{
    "header": {
        "PPQ": 480,
        "timeSignature": [
            3,
            4
        ],
        "bpm": 54.88002312278308,
        "name": "Hammerklaviersonate 4. Satz"
    },
    "startTime": 0,
    "duration": 1403.7894960000026,
    "tracks": [
        {
            "startTime": 0,
            "duration": 0,
            "length": 0,
            "notes": [],
            "controlChanges": {},
            "id": 0,
            "name": "Hammerklaviersonate 4. Satz"
        },
        {
            "startTime": 0.546647,
            "duration": 1403.7894960000026,
            "length": 4244,
            "notes": [
                {
                    "name": "F4",
                    "midi": 65,
                    "time": 0.546647,
                    "velocity": 0.36220472440944884,
                    "duration": 0.13666175000000003
                },
                {
                    "name": "F4",
                    "midi": 65,
                    "time": 0.7288626666666667,
                    "velocity": 0.3937007874015748,
                    "duration": 0.18221566666666666
                },
                {
                    "name": "F5",
                    "midi": 77,
                    "time": 0.9110783333333333,
                    "velocity": 0.36220472440944884,
                    "duration": 0.13666174999999992
                },
                {
                    "name": "F5",
                    "midi": 77,
                    "time": 1.093294,
                    "velocity": 0.4645669291338583,
                    "duration": 0.18221566666666678
                },
                {
                    "name": "F6",
                    "midi": 89,
                    "time": 1.2755096666666668,
                    "velocity": 0.5196850393700787,
                    "duration": 1.1844018333333333
                },
                {
                    "name": "F5",
                    "midi": 77,
                    "time": 1.639941,
                    "velocity": 0.4015748031496063,
                    "duration": 0.8199704999999999
                },
                {
                    "name": "F6",
                    "midi": 89,
                    "time": 2.4599115,
                    "velocity": 0.3937007874015748,
                    "duration": 0.8199704999999997
                },
                {
                    "name": "F5",
                    "midi": 77,
                    "time": 2.4599115,
                    "velocity": 0.33070866141732286,
                    "duration": 0.8199704999999997
                },
                {
                    "name": "C#6",
                    "midi": 85,
                    "time": 4.6464995,
                    "velocity": 0.30708661417322836,
                    "duration": 0.8199705000000002
                },
                {
                    "name": "F6",
                    "midi": 89,
                    "time": 4.6464995,
                    "velocity": 0.3700787401574803,
                    "duration": 0.8199705000000002
                },
                {
                    "name": "G#5",
                    "midi": 80,
                    "time": 4.6464995,
                    "velocity": 0.30708661417322836,
                    "duration": 0.8199705000000002
                },
                {
                    "name": "F5",
                    "midi": 77,
                    "time": 4.6464995,
                    "velocity": 0.30708661417322836,
                    "duration": 0.8199705000000002
                },
                {
                    "name": "F6",
                    "midi": 89,
                    "time": 6.8330875,
                    "velocity": 0.31496062992125984,
                    "duration": 0.8199705000000002
                },
                {
                    "name": "A#5",
                    "midi": 82,
                    "time": 6.8330875,
                    "velocity": 0.2677165354330709,
                    "duration": 0.8199705000000002
                },
                {
                    "name": "F5",
                    "midi": 77,
                    "time": 6.8330875,
                    "velocity": 0.2677165354330709,
                    "duration": 0.8199705000000002
                },
                {
                    "name": "C#6",
                    "midi": 85,
                    "time": 6.8330875,
                    "velocity": 0.2677165354330709,
                    "duration": 0.8199705000000002
                },
                {
                    "name": "A#5",
                    "midi": 82,
                    "time": 9.0196755,
                    "velocity": 0.25196850393700787,
                    "duration": 1.3666175000000003
                },
                {
                    "name": "F#5",
                    "midi": 78,
                    "time": 9.0196755,
                    "velocity": 0.25196850393700787,
                    "duration": 1.3666175000000003
                },
                {
                    "name": "F#6",
                    "midi": 90,
                    "time": 9.0196755,
                    "velocity": 0.2992125984251969,
                    "duration": 1.3666175000000003
                },
                {
                    "name": "C#6",
                    "midi": 85,
                    "time": 9.0196755,
                    "velocity": 0.25196850393700787,
                    "duration": 1.3666175000000003
                },
                {
                    "name": "C#5",
                    "midi": 73,
                    "time": 11.2062635,
                    "velocity": 0.29133858267716534,
                    "duration": 0.27332350000000005
                },
                {
                    "name": "F#5",
                    "midi": 78,
                    "time": 11.479587,
                    "velocity": 0.3228346456692913,
                    "duration": 0.27332350000000005
                },
                {
                    "name": "C#5",
                    "midi": 73,
                    "time": 11.7529105,
                    "velocity": 0.28346456692913385,
                    "duration": 0.27332350000000005
                },
                {
                    "name": "F#5",
                    "midi": 78,
                    "time": 12.026234,
                    "velocity": 0.33070866141732286,
                    "duration": 0.27332350000000005
                },
                {
                    "name": "C#5",
                    "midi": 73,
                    "time": 12.2995575,
                    "velocity": 0.2755905511811024,
                    "duration": 0.27332350000000005
                },
                {
                    "name": "F#5",
                    "midi": 78,
                    "time": 12.572881,
                    "velocity": 0.33070866141732286,
                    "duration": 0.27332350000000005
                },
                {
                    "name": "A#4",
                    "midi": 70,
                    "time": 12.8462045,
                    "velocity": 0.2992125984251969,
                    "duration": 0.27332350000000005
                },
                {
                    "name": "D#5",
                    "midi": 75,
                    "time": 13.119528,
                    "velocity": 0.3779527559055118,
                    "duration": 2.1865880000000004
                },
                {
                    "name": "F#4",
                    "midi": 66,
                    "time": 13.3928515,
                    "velocity": 0.2755905511811024,
                    "duration": 0.27332350000000005
                },
                {
                    "name": "B4",
                    "midi": 71,
                    "time": 13.666175,
                    "velocity": 0.3228346456692913,
                    "duration": 0.27332350000000005
                },
                {
                    "name": "F#4",
                    "midi": 66,
                    "time": 13.939498500000001,
                    "velocity": 0.2755905511811024,
                    "duration": 0.27332350000000005
                },
                {
                    "name": "B4",
                    "midi": 71,
                    "time": 14.212822000000001,
                    "velocity": 0.33858267716535434,
                    "duration": 0.27332350000000005
                },
                {
                    "name": "F#4",
                    "midi": 66,
                    "time": 14.486145500000001,
                    "velocity": 0.29133858267716534,
                    "duration": 0.27332350000000005
                },
                {
                    "name": "B4",
                    "midi": 71,
                    "time": 14.759469000000001,
                    "velocity": 0.33070866141732286,
                    "duration": 0.27332350000000005
                },
                {
                    "name": "D#4",
                    "midi": 63,
                    "time": 15.032792500000001,
                    "velocity": 0.30708661417322836,
                    "duration": 0.27332350000000005
                },
                {
                    "name": "D#5",
                    "midi": 75,
                    "time": 15.306116000000001,
                    "velocity": 0.3700787401574803,
                    "duration": 0.5466470000000001
                },
                {
                    "name": "F4",
                    "midi": 65,
                    "time": 15.306116000000001,
                    "velocity": 0.25984251968503935,
                    "duration": 0.27332350000000005
                },
                {
                    "name": "G#4",
                    "midi": 68,
                    "time": 15.579439500000001,
                    "velocity": 0.25196850393700787,
                    "duration": 0.27332350000000005
                },
                {
                    "name": "C#5",
                    "midi": 73,
                    "time": 15.852763000000001,
                    "velocity": 0.33858267716535434,
                    "duration": 1.0932939999999984
                },
                {
                    "name": "F4",
                    "midi": 65,
                    "time": 15.852763000000001,
                    "velocity": 0.23622047244094488,
                    "duration": 0.2733234999999983
                },
                {
                    "name": "G#4",
                    "midi": 68,
                    "time": 16.1260865,
                    "velocity": 0.29133858267716534,
                    "duration": 0.27332350000000005
                },
                {
                    "name": "F4",
                    "midi": 65,
                    "time": 16.39941,
                    "velocity": 0.2755905511811024,
                    "duration": 0.27332350000000005
                },
                {
                    "name": "G#4",
                    "midi": 68,
                    "time": 16.6727335,
                    "velocity": 0.2992125984251969,
                    "duration": 0.27332350000000005
                },
                {
                    "name": "F4",
                    "midi": 65,
                    "time": 16.946057,
                    "velocity": 0.2204724409448819,
                    "duration": 0.27332350000000005
                },
                {
                    "name": "B4",
                    "midi": 71,
                    "time": 16.946057,
                    "velocity": 0.30708661417322836,
                    "duration": 0.5466470000000001
                },
                {
                    "name": "G#4",
                    "midi": 68,
                    "time": 17.2193805,
                    "velocity": 0.2125984251968504,
                    "duration": 0.27332350000000005
                },
                {
                    "name": "F#4",
                    "midi": 66,
                    "time": 17.492704,
                    "velocity": 0.2992125984251969,
                    "duration": 0.5466470000000001
                },
                {
                    "name": "A#4",
                    "midi": 70,
                    "time": 17.492704,
                    "velocity": 0.3543307086614173,
                    "duration": 0.5466470000000001
                },
                {
                    "name": "A4",
                    "midi": 69,
                    "time": 18.039351,
                    "velocity": 0.2992125984251969,
                    "duration": 0.5466470000000001
                },
                {
                    "name": "F#4",
                    "midi": 66,
                    "time": 18.039351,
                    "velocity": 0.2992125984251969,
                    "duration": 0.5466470000000001
                },
                {
                    "name": "D#5",
                    "midi": 75,
                    "time": 18.039351,
                    "velocity": 0.3543307086614173,
                    "duration": 0.5466470000000001
                },
                {
                    "name": "F4",
                    "midi": 65,
                    "time": 18.585998,
                    "velocity": 0.2677165354330709,
                    "duration": 0.9566322499999984
                },
                {
                    "name": "G#4",
                    "midi": 68,
                    "time": 18.585998,
                    "velocity": 0.31496062992125984,
                    "duration": 0.9566322499999984
                },
                {
                    "name": "F#4",
                    "midi": 66,
                    "time": 19.54263025,
                    "velocity": 0.2283464566929134,
                    "duration": 0.13666174999999825
                },
                {
                    "name": "A#4",
                    "midi": 70,
                    "time": 19.54263025,
                    "velocity": 0.2755905511811024,
                    "duration": 0.13666174999999825
                },
                {
                    "name": "F#5",
                    "midi": 78,
                    "time": 19.679291999999997,
                    "velocity": 0.30708661417322836,
                    "duration": 0.5466470000000001
                },
                {
                    "name": "A#5",
                    "midi": 82,
                    "time": 19.679291999999997,
                    "velocity": 0.3700787401574803,
                    "duration": 0.5466470000000001
                },
                {
                    "name": "A#4",
                    "midi": 70,
                    "time": 19.679291999999997,
                    "velocity": 0.30708661417322836,
                    "duration": 0.5466470000000001
                },
                {
                    "name": "C#5",
                    "midi": 73,
                    "time": 19.679291999999997,
                    "velocity": 0.30708661417322836,
                    "duration": 0.5466470000000001
                },
                {
                    "name": "F#5",
                    "midi": 78,
                    "time": 21.045909499999997,
                    "velocity": 0.2677165354330709,
                    "duration": 0.8199705000000002
                },
                {
                    "name": "A#4",
                    "midi": 70,
                    "time": 21.045909499999997,
                    "velocity": 0.2677165354330709,
                    "duration": 0.8199705000000002
                },
                {
                    "name": "D#5",
                    "midi": 75,
                    "time": 21.045909499999997,
                    "velocity": 0.2677165354330709,
                    "duration": 0.8199705000000002
                },
                {
                    "name": "A#5",
                    "midi": 82,
                    "time": 21.045909499999997,
                    "velocity": 0.3228346456692913,
                    "duration": 0.8199705000000002
                },
                {
                    "name": "F#5",
                    "midi": 78,
                    "time": 22.685850499999997,
                    "velocity": 0.25196850393700787,
                    "duration": 0.5466470000000001
                },
                {
                    "name": "D#6",
                    "midi": 87,
                    "time": 22.685850499999997,
                    "velocity": 0.30708661417322836,
                    "duration": 0.5466470000000001
                },
                {
                    "name": "D#5",
                    "midi": 75,
                    "time": 22.685850499999997,
                    "velocity": 0.25196850393700787,
                    "duration": 0.5466470000000001
                },
                {
                    "name": "F#4",
                    "midi": 66,
                    "time": 25.419085499999998,
                    "velocity": 0.2755905511811024,
                    "duration": 0.2687681083333331
                },
                {
                    "name": "G#4",
                    "midi": 68,
                    "time": 25.692408999999998,
                    "velocity": 0.2992125984251969,
                    "duration": 0.3006558499999983
                },
                {
                    "name": "A#4",
                    "midi": 70,
                    "time": 25.965732499999998,
                    "velocity": 0.3228346456692913,
                    "duration": 0.30065584999999473
                },
                {
                    "name": "B4",
                    "midi": 71,
                    "time": 26.239055999999994,
                    "velocity": 0.3543307086614173,
                    "duration": 0.30065584999999473
                },
                {
                    "name": "C#5",
                    "midi": 73,
                    "time": 26.51237949999999,
                    "velocity": 0.3779527559055118,
                    "duration": 0.30065584999999473
                },
                {
                    "name": "D#5",
                    "midi": 75,
                    "time": 26.785702999999987,
                    "velocity": 0.4094488188976378,
                    "duration": 0.30065584999999473
                },
                {
                    "name": "E5",
                    "midi": 76,
                    "time": 27.059026499999984,
                    "velocity": 0.4094488188976378,
                    "duration": 0.30065584999999473
                },
                {
                    "name": "D#5",
                    "midi": 75,
                    "time": 27.33234999999998,
                    "velocity": 0.4330708661417323,
                    "duration": 0.30065584999999473
                },
                {
                    "name": "B4",
                    "midi": 71,
                    "time": 27.605673499999977,
                    "velocity": 0.4094488188976378,
                    "duration": 0.2733234999999965
                },
                {
                    "name": "F#5",
                    "midi": 78,
                    "time": 27.878996999999973,
                    "velocity": 0.44881889763779526,
                    "duration": 0.3006558499999983
                },
                {
                    "name": "E5",
                    "midi": 76,
                    "time": 28.152320499999973,
                    "velocity": 0.4330708661417323,
                    "duration": 0.30065584999999473
                },
                {
                    "name": "D#5",
                    "midi": 75,
                    "time": 28.42564399999997,
                    "velocity": 0.41732283464566927,
                    "duration": 0.30065584999999473
                },
                {
                    "name": "C#5",
                    "midi": 73,
                    "time": 28.698967499999966,
                    "velocity": 0.4015748031496063,
                    "duration": 0.30065584999999473
                },
                {
                    "name": "B4",
                    "midi": 71,
                    "time": 28.972290999999963,
                    "velocity": 0.3858267716535433,
                    "duration": 0.30065584999999473
                },
                {
                    "name": "A#4",
                    "midi": 70,
                    "time": 29.24561449999996,
                    "velocity": 0.3700787401574803,
                    "duration": 0.30065584999999473
                },
                {
                    "name": "B4",
                    "midi": 71,
                    "time": 29.518937999999956,
                    "velocity": 0.3700787401574803,
                    "duration": 0.2733234999999965
                },
                {
                    "name": "F#5",
                    "midi": 78,
                    "time": 29.792261499999952,
                    "velocity": 0.3700787401574803,
                    "duration": 0.2687681083333331
                },
                {
                    "name": "G#5",
                    "midi": 80,
                    "time": 30.065584999999952,
                    "velocity": 0.3700787401574803,
                    "duration": 0.3006558499999983
                },
                {
                    "name": "A#5",
                    "midi": 82,
                    "time": 30.338908499999953,
                    "velocity": 0.3858267716535433,
                    "duration": 0.30065584999999473
                },
                {
                    "name": "B5",
                    "midi": 83,
                    "time": 30.61223199999995,
                    "velocity": 0.3937007874015748,
                    "duration": 0.30065584999999473
                },
                {
                    "name": "C#6",
                    "midi": 85,
                    "time": 30.885555499999946,
                    "velocity": 0.4094488188976378,
                    "duration": 0.30065584999999473
                },
                {
                    "name": "D#6",
                    "midi": 87,
                    "time": 31.158878999999942,
                    "velocity": 0.41732283464566927,
                    "duration": 0.30065584999999473
                },
                {
                    "name": "E6",
                    "midi": 88,
                    "time": 31.43220249999994,
                    "velocity": 0.4094488188976378,
                    "duration": 0.30065584999999473
                },
                {
                    "name": "D#6",
                    "midi": 87,
                    "time": 31.705525999999935,
                    "velocity": 0.4645669291338583,
                    "duration": 0.3006558499999983
                },
                {
                    "name": "C#6",
                    "midi": 85,
                    "time": 31.97884949999993,
                    "velocity": 0.3700787401574803,
                    "duration": 0.3006558500000054
                },
                {
                    "name": "B5",
                    "midi": 83,
                    "time": 32.252172999999935,
                    "velocity": 0.3700787401574803,
                    "duration": 0.3006558500000054
                },
                {
                    "name": "A#5",
                    "midi": 82,
                    "time": 32.52549649999994,
                    "velocity": 0.3700787401574803,
                    "duration": 0.3006558500000054
                },
                {
                    "name": "G#5",
                    "midi": 80,
                    "time": 32.79881999999994,
                    "velocity": 0.4251968503937008,
                    "duration": 0.3006558500000054
                },
                {
                    "name": "F#5",
                    "midi": 78,
                    "time": 33.072143499999946,
                    "velocity": 0.3700787401574803,
                    "duration": 0.3006558500000054
                },
                {
                    "name": "E5",
                    "midi": 76,
                    "time": 33.34546699999995,
                    "velocity": 0.3700787401574803,
                    "duration": 0.3006558500000054
                },
                {
                    "name": "D#5",
                    "midi": 75,
                    "time": 33.61879049999995,
                    "velocity": 0.3700787401574803,
                    "duration": 0.3006558500000054
                },
                {
                    "name": "C#5",
                    "midi": 73,
                    "time": 33.89211399999996,
                    "velocity": 0.4015748031496063,
                    "duration": 0.3006558500000054
                },
                {
                    "name": "B4",
                    "midi": 71,
                    "time": 34.16543749999996,
                    "velocity": 0.3700787401574803,
                    "duration": 0.3006558500000054
                },
                {
                    "name": "A#4",
                    "midi": 70,
                    "time": 34.438760999999964,
                    "velocity": 0.3700787401574803,
                    "duration": 0.3006558500000054
                },
                {
                    "name": "G#4",
                    "midi": 68,
                    "time": 34.71208449999997,
                    "velocity": 0.3700787401574803,
                    "duration": 0.3006558500000054
                },
                {
                    "name": "F#4",
                    "midi": 66,
                    "time": 34.98540799999997,
                    "velocity": 0.4015748031496063,
                    "duration": 0.2733235000000036
                },
                {
                    "name": "E5",
                    "midi": 76,
                    "time": 35.258731499999975,
                    "velocity": 0.4251968503937008,
                    "duration": 0.2733234999999965
                },
                {
                    "name": "D#5",
                    "midi": 75,
                    "time": 35.53205499999997,
                    "velocity": 0.44881889763779526,
                    "duration": 0.2733234999999965
                },
                {
                    "name": "G#5",
                    "midi": 80,
                    "time": 35.80537849999997,
                    "velocity": 0.47244094488188976,
                    "duration": 0.2733234999999965
                },
                {
                    "name": "F#5",
                    "midi": 78,
                    "time": 36.078701999999964,
                    "velocity": 0.47244094488188976,
                    "duration": 0.2733234999999965
                },
                {
                    "name": "B5",
                    "midi": 83,
                    "time": 36.35202549999996,
                    "velocity": 0.3543307086614173,
                    "duration": 0.2733234999999965
                },
                {
                    "name": "A#5",
                    "midi": 82,
                    "time": 36.62534899999996,
                    "velocity": 0.4094488188976378,
                    "duration": 0.2733234999999965
                },
                {
                    "name": "E6",
                    "midi": 88,
                    "time": 36.898672499999954,
                    "velocity": 0.3858267716535433,
                    "duration": 0.2733234999999965
                },
                {
                    "name": "E5",
                    "midi": 76,
                    "time": 37.17199599999995,
                    "velocity": 0.3228346456692913,
                    "duration": 0.8199704999999966
                },
                {
                    "name": "A#5",
                    "midi": 82,
                    "time": 37.17199599999995,
                    "velocity": 0.3228346456692913,
                    "duration": 0.8199704999999966
                },
                {
                    "name": "E6",
                    "midi": 88,
                    "time": 37.17199599999995,
                    "velocity": 0.3858267716535433,
                    "duration": 0.8199704999999966
                },
                {
                    "name": "B5",
                    "midi": 83,
                    "time": 37.99196649999995,
                    "velocity": 0.3228346456692913,
                    "duration": 0.8199704999999966
                },
                {
                    "name": "D#6",
                    "midi": 87,
                    "time": 37.99196649999995,
                    "velocity": 0.3858267716535433,
                    "duration": 0.8199704999999966
                },
                {
                    "name": "F#5",
                    "midi": 78,
                    "time": 37.99196649999995,
                    "velocity": 0.3228346456692913,
                    "duration": 0.8199704999999966
                },
                {
                    "name": "D#5",
                    "midi": 75,
                    "time": 37.99196649999995,
                    "velocity": 0.3228346456692913,
                    "duration": 0.8199704999999966
                },
                {
                    "name": "D#5",
                    "midi": 75,
                    "time": 40.17855449999994,
                    "velocity": 0.3858267716535433,
                    "duration": 0.5466470000000001
                },
                {
                    "name": "B5",
                    "midi": 83,
                    "time": 40.17855449999994,
                    "velocity": 0.3858267716535433,
                    "duration": 0.5466470000000001
                },
                {
                    "name": "D#6",
                    "midi": 87,
                    "time": 40.17855449999994,
                    "velocity": 0.3858267716535433,
                    "duration": 0.5466470000000001
                },
                {
                    "name": "G#5",
                    "midi": 80,
                    "time": 40.17855449999994,
                    "velocity": 0.3858267716535433,
                    "duration": 0.5466470000000001
                },
                {
                    "name": "D#5",
                    "midi": 75,
                    "time": 40.72520149999994,
                    "velocity": 0.29133858267716534,
                    "duration": 0.2733234999999965
                },
                {
                    "name": "G#4",
                    "midi": 68,
                    "time": 40.99852499999994,
                    "velocity": 0.29133858267716534,
                    "duration": 0.2733234999999965
                },
                {
                    "name": "D#5",
                    "midi": 75,
                    "time": 41.27184849999993,
                    "velocity": 0.29133858267716534,
                    "duration": 0.2733234999999965
                },
                {
                    "name": "E5",
                    "midi": 76,
                    "time": 41.54517199999993,
                    "velocity": 0.36220472440944884,
                    "duration": 0.2733234999999965
                },
                {
                    "name": "D#5",
                    "midi": 75,
                    "time": 41.818495499999926,
                    "velocity": 0.31496062992125984,
                    "duration": 0.2733234999999965
                },
                {
                    "name": "G#4",
                    "midi": 68,
                    "time": 42.09181899999992,
                    "velocity": 0.33070866141732286,
                    "duration": 0.2733234999999965
                },
                {
                    "name": "D#5",
                    "midi": 75,
                    "time": 42.36514249999992,
                    "velocity": 0.3543307086614173,
                    "duration": 0.2733234999999965
                },
                {
                    "name": "E5",
                    "midi": 76,
                    "time": 42.638465999999916,
                    "velocity": 0.3858267716535433,
                    "duration": 2.459911499999997
                },
                {
                    "name": "A#4",
                    "midi": 70,
                    "time": 45.09837749999991,
                    "velocity": 0.3228346456692913,
                    "duration": 0.2733234999999965
                },
                {
                    "name": "D#5",
                    "midi": 75,
                    "time": 45.37170099999991,
                    "velocity": 0.36220472440944884,
                    "duration": 0.2733234999999965
                },
                {
                    "name": "D5",
                    "midi": 74,
                    "time": 45.645024499999906,
                    "velocity": 0.33070866141732286,
                    "duration": 0.2733234999999965
                },
                {
                    "name": "D#5",
                    "midi": 75,
                    "time": 45.9183479999999,
                    "velocity": 0.3464566929133858,
                    "duration": 0.2733234999999965
                },
                {
                    "name": "A#4",
                    "midi": 70,
                    "time": 46.1916714999999,
                    "velocity": 0.29133858267716534,
                    "duration": 0.2733234999999965
                },
                {
                    "name": "D#5",
                    "midi": 75,
                    "time": 46.464994999999895,
                    "velocity": 0.33858267716535434,
                    "duration": 0.2733234999999965
                },
                {
                    "name": "C#5",
                    "midi": 73,
                    "time": 46.73831849999989,
                    "velocity": 0.29133858267716534,
                    "duration": 0.2733234999999965
                },
                {
                    "name": "C5",
                    "midi": 72,
                    "time": 47.01164199999989,
                    "velocity": 0.4094488188976378,
                    "duration": 0.2733234999999965
                },
                {
                    "name": "D#5",
                    "midi": 75,
                    "time": 47.284965499999885,
                    "velocity": 0.36220472440944884,
                    "duration": 0.2733234999999965
                },
                {
                    "name": "C5",
                    "midi": 72,
                    "time": 47.55828899999988,
                    "velocity": 0.4330708661417323,
                    "duration": 0.2733234999999965
                },
                {
                    "name": "G#5",
                    "midi": 80,
                    "time": 47.83161249999988,
                    "velocity": 0.3700787401574803,
                    "duration": 0.2733234999999965
                },
                {
                    "name": "C#5",
                    "midi": 73,
                    "time": 48.104935999999874,
                    "velocity": 0.47244094488188976,
                    "duration": 0.2733234999999965
                },
                {
                    "name": "G#5",
                    "midi": 80,
                    "time": 48.37825949999987,
                    "velocity": 0.4251968503937008,
                    "duration": 0.2733234999999965
                },
                {
                    "name": "D#5",
                    "midi": 75,
                    "time": 48.65158299999987,
                    "velocity": 0.49606299212598426,
                    "duration": 0.2733234999999965
                },
                {
                    "name": "G#5",
                    "midi": 80,
                    "time": 48.924906499999864,
                    "velocity": 0.4566929133858268,
                    "duration": 0.2733234999999965
                },
                {
                    "name": "E5",
                    "midi": 76,
                    "time": 49.19822999999986,
                    "velocity": 0.5511811023622047,
                    "duration": 1.0932940000000002
                },
                {
                    "name": "E4",
                    "midi": 64,
                    "time": 50.29152399999986,
                    "velocity": 0.41732283464566927,
                    "duration": 1.3666174999999967
                },
                {
                    "name": "C#4",
                    "midi": 61,
                    "time": 51.65814149999986,
                    "velocity": 0.33070866141732286,
                    "duration": 0.2733234999999965
                },
                {
                    "name": "F#4",
                    "midi": 66,
                    "time": 51.931464999999854,
                    "velocity": 0.3937007874015748,
                    "duration": 0.2733234999999965
                },
                {
                    "name": "F4",
                    "midi": 65,
                    "time": 52.20478849999985,
                    "velocity": 0.29133858267716534,
                    "duration": 0.2733234999999965
                },
                {
                    "name": "F#4",
                    "midi": 66,
                    "time": 52.47811199999985,
                    "velocity": 0.4015748031496063,
                    "duration": 0.2733234999999965
                },
                {
                    "name": "C#4",
                    "midi": 61,
                    "time": 52.75143549999984,
                    "velocity": 0.33858267716535434,
                    "duration": 0.2733234999999965
                },
                {
                    "name": "F#4",
                    "midi": 66,
                    "time": 53.02475899999984,
                    "velocity": 0.4015748031496063,
                    "duration": 0.2733234999999965
                },
                {
                    "name": "E4",
                    "midi": 64,
                    "time": 53.298082499999836,
                    "velocity": 0.3464566929133858,
                    "duration": 0.2733234999999965
                },
                {
                    "name": "D#4",
                    "midi": 63,
                    "time": 53.57140599999983,
                    "velocity": 0.4251968503937008,
                    "duration": 0.5466470000000001
                },
                {
                    "name": "D#5",
                    "midi": 75,
                    "time": 54.11805299999983,
                    "velocity": 0.47244094488188976,
                    "duration": 1.0932940000000002
                },
                {
                    "name": "C#5",
                    "midi": 73,
                    "time": 55.21134699999983,
                    "velocity": 0.4094488188976378,
                    "duration": 0.5466470000000001
                },
                {
                    "name": "B4",
                    "midi": 71,
                    "time": 55.75799399999983,
                    "velocity": 0.49606299212598426,
                    "duration": 0.2733234999999965
                },
                {
                    "name": "D#5",
                    "midi": 75,
                    "time": 56.03131749999983,
                    "velocity": 0.41732283464566927,
                    "duration": 0.2733234999999965
                },
                {
                    "name": "B4",
                    "midi": 71,
                    "time": 56.304640999999826,
                    "velocity": 0.4881889763779528,
                    "duration": 0.2733234999999965
                },
                {
                    "name": "D#5",
                    "midi": 75,
                    "time": 56.57796449999982,
                    "velocity": 0.41732283464566927,
                    "duration": 0.2733234999999965
                },
                {
                    "name": "E5",
                    "midi": 76,
                    "time": 56.85128799999982,
                    "velocity": 0.49606299212598426,
                    "duration": 0.2733234999999965
                },
                {
                    "name": "B5",
                    "midi": 83,
                    "time": 56.85128799999982,
                    "velocity": 0.49606299212598426,
                    "duration": 1.3666174999999825
                },
                {
                    "name": "D#5",
                    "midi": 75,
                    "time": 57.124611499999816,
                    "velocity": 0.47244094488188976,
                    "duration": 0.2733234999999965
                },
                {
                    "name": "G#4",
                    "midi": 68,
                    "time": 57.39793499999981,
                    "velocity": 0.5118110236220472,
                    "duration": 0.2733234999999965
                },
                {
                    "name": "B4",
                    "midi": 71,
                    "time": 57.67125849999981,
                    "velocity": 0.47244094488188976,
                    "duration": 0.2733234999999965
                },
                {
                    "name": "E5",
                    "midi": 76,
                    "time": 57.944581999999805,
                    "velocity": 0.4566929133858268,
                    "duration": 1.093293999999986
                },
                {
                    "name": "G#5",
                    "midi": 80,
                    "time": 58.2179054999998,
                    "velocity": 0.4645669291338583,
                    "duration": 0.2733234999999965
                },
                {
                    "name": "A5",
                    "midi": 81,
                    "time": 58.4912289999998,
                    "velocity": 0.5118110236220472,
                    "duration": 0.2733234999999965
                },
                {
                    "name": "C#6",
                    "midi": 85,
                    "time": 58.764552499999795,
                    "velocity": 0.4645669291338583,
                    "duration": 0.2733234999999965
                },
                {
                    "name": "A4",
                    "midi": 69,
                    "time": 59.03787599999979,
                    "velocity": 0.4566929133858268,
                    "duration": 0.546646999999993
                },
                {
                    "name": "E5",
                    "midi": 76,
                    "time": 59.03787599999979,
                    "velocity": 0.5511811023622047,
                    "duration": 0.2733234999999965
                },
                {
                    "name": "A5",
                    "midi": 81,
                    "time": 59.31119949999979,
                    "velocity": 0.4645669291338583,
                    "duration": 0.2733234999999965
                },
                {
                    "name": "B4",
                    "midi": 71,
                    "time": 59.584522999999784,
                    "velocity": 0.4881889763779528,
                    "duration": 0.546646999999993
                },
                {
                    "name": "D#5",
                    "midi": 75,
                    "time": 59.584522999999784,
                    "velocity": 0.5748031496062992,
                    "duration": 0.2733234999999965
                },
                {
                    "name": "G#5",
                    "midi": 80,
                    "time": 59.85784649999978,
                    "velocity": 0.5590551181102362,
                    "duration": 0.2733234999999965
                },
                {
                    "name": "D#5",
                    "midi": 75,
                    "time": 60.13116999999978,
                    "velocity": 0.6377952755905512,
                    "duration": 0.2733234999999965
                },
                {
                    "name": "B4",
                    "midi": 71,
                    "time": 60.13116999999978,
                    "velocity": 0.5433070866141733,
                    "duration": 0.546646999999993
                },
                {
                    "name": "G#5",
                    "midi": 80,
                    "time": 60.404493499999774,
                    "velocity": 0.5748031496062992,
                    "duration": 0.2733234999999965
                },
                {
                    "name": "D#5",
                    "midi": 75,
                    "time": 60.67781699999977,
                    "velocity": 0.6377952755905512,
                    "duration": 0.2733234999999965
                },
                {
                    "name": "C#5",
                    "midi": 73,
                    "time": 60.67781699999977,
                    "velocity": 0.5433070866141733,
                    "duration": 0.546646999999993
                },
                {
                    "name": "G5",
                    "midi": 79,
                    "time": 60.95114049999977,
                    "velocity": 0.6062992125984252,
                    "duration": 0.2733234999999965
                },
                {
                    "name": "D#5",
                    "midi": 75,
                    "time": 61.22446399999976,
                    "velocity": 0.6377952755905512,
                    "duration": 0.2733234999999965
                },
                {
                    "name": "B4",
                    "midi": 71,
                    "time": 61.22446399999976,
                    "velocity": 0.5433070866141733,
                    "duration": 0.546646999999993
                },
                {
                    "name": "G#5",
                    "midi": 80,
                    "time": 61.49778749999976,
                    "velocity": 0.5826771653543307,
                    "duration": 0.2733234999999965
                },
                {
                    "name": "A#4",
                    "midi": 70,
                    "time": 61.771110999999756,
                    "velocity": 0.5433070866141733,
                    "duration": 0.546646999999993
                },
                {
                    "name": "D#5",
                    "midi": 75,
                    "time": 61.771110999999756,
                    "velocity": 0.6377952755905512,
                    "duration": 0.2733234999999965
                },
                {
                    "name": "A#5",
                    "midi": 82,
                    "time": 62.04443449999975,
                    "velocity": 0.5669291338582677,
                    "duration": 0.2733234999999965
                },
                {
                    "name": "G#5",
                    "midi": 80,
                    "time": 62.591081499999746,
                    "velocity": 0.25196850393700787,
                    "duration": 1.3666174999999967
                },
                {
                    "name": "D#5",
                    "midi": 75,
                    "time": 62.591081499999746,
                    "velocity": 0.25196850393700787,
                    "duration": 1.3666174999999967
                },
                {
                    "name": "B5",
                    "midi": 83,
                    "time": 62.591081499999746,
                    "velocity": 0.2992125984251969,
                    "duration": 1.3666174999999967
                },
                {
                    "name": "B4",
                    "midi": 71,
                    "time": 62.591081499999746,
                    "velocity": 0.25196850393700787,
                    "duration": 1.3666174999999967
                },
                {
                    "name": "G#5",
                    "midi": 80,
                    "time": 64.77766949999975,
                    "velocity": 0.25196850393700787,
                    "duration": 1.3666175000000038
                },
                {
                    "name": "B5",
                    "midi": 83,
                    "time": 64.77766949999975,
                    "velocity": 0.2992125984251969,
                    "duration": 1.3666175000000038
                },
                {
                    "name": "E5",
                    "midi": 76,
                    "time": 64.77766949999975,
                    "velocity": 0.25196850393700787,
                    "duration": 1.3666175000000038
                },
                {
                    "name": "B4",
                    "midi": 71,
                    "time": 64.77766949999975,
                    "velocity": 0.25196850393700787,
                    "duration": 1.3666175000000038
                },
                {
                    "name": "C#6",
                    "midi": 85,
                    "time": 66.96425749999975,
                    "velocity": 0.2992125984251969,
                    "duration": 1.3666175000000038
                },
                {
                    "name": "E5",
                    "midi": 76,
                    "time": 66.96425749999975,
                    "velocity": 0.25196850393700787,
                    "duration": 1.3666175000000038
                },
                {
                    "name": "C#5",
                    "midi": 73,
                    "time": 66.96425749999975,
                    "velocity": 0.25196850393700787,
                    "duration": 1.3666175000000038
                },
                {
                    "name": "G#5",
                    "midi": 80,
                    "time": 66.96425749999975,
                    "velocity": 0.25196850393700787,
                    "duration": 1.3666175000000038
                },
                {
                    "name": "E5",
                    "midi": 76,
                    "time": 69.15084549999975,
                    "velocity": 0.25196850393700787,
                    "duration": 1.3666175000000038
                },
                {
                    "name": "C#5",
                    "midi": 73,
                    "time": 69.15084549999975,
                    "velocity": 0.25196850393700787,
                    "duration": 1.3666175000000038
                },
                {
                    "name": "C#6",
                    "midi": 85,
                    "time": 69.15084549999975,
                    "velocity": 0.2992125984251969,
                    "duration": 1.3666175000000038
                },
                {
                    "name": "A5",
                    "midi": 81,
                    "time": 69.15084549999975,
                    "velocity": 0.25196850393700787,
                    "duration": 1.3666175000000038
                },
                {
                    "name": "A4",
                    "midi": 69,
                    "time": 71.06410999999974,
                    "velocity": 0.29133858267716534,
                    "duration": 0.1366617500000018
                },
                {
                    "name": "A4",
                    "midi": 69,
                    "time": 71.24632566666641,
                    "velocity": 0.25196850393700787,
                    "duration": 0.18221566666666433
                },
                {
                    "name": "A5",
                    "midi": 81,
                    "time": 71.42854133333307,
                    "velocity": 0.3228346456692913,
                    "duration": 0.18221566666666433
                },
                {
                    "name": "A5",
                    "midi": 81,
                    "time": 71.61075699999974,
                    "velocity": 0.36220472440944884,
                    "duration": 1.2755096666666645
                },
                {
                    "name": "A6",
                    "midi": 93,
                    "time": 71.7929726666664,
                    "velocity": 0.3543307086614173,
                    "duration": 1.0932940000000002
                },
                {
                    "name": "G#6",
                    "midi": 92,
                    "time": 72.8862666666664,
                    "velocity": 0.48031496062992124,
                    "duration": 0.7288626666666715
                },
                {
                    "name": "G#5",
                    "midi": 80,
                    "time": 72.8862666666664,
                    "velocity": 0.4015748031496063,
                    "duration": 0.7288626666666715
                },
                {
                    "name": "E6",
                    "midi": 88,
                    "time": 73.61512933333307,
                    "velocity": 0.4566929133858268,
                    "duration": 0.7288626666666715
                },
                {
                    "name": "E5",
                    "midi": 76,
                    "time": 73.61512933333307,
                    "velocity": 0.3858267716535433,
                    "duration": 0.7288626666666715
                },
                {
                    "name": "D#5",
                    "midi": 75,
                    "time": 74.34399199999974,
                    "velocity": 0.36220472440944884,
                    "duration": 0.7288626666666715
                },
                {
                    "name": "D#6",
                    "midi": 87,
                    "time": 74.34399199999974,
                    "velocity": 0.4330708661417323,
                    "duration": 0.7288626666666715
                },
                {
                    "name": "D5",
                    "midi": 74,
                    "time": 75.07285466666642,
                    "velocity": 0.3543307086614173,
                    "duration": 0.7288626666666715
                },
                {
                    "name": "D6",
                    "midi": 86,
                    "time": 75.07285466666642,
                    "velocity": 0.41732283464566927,
                    "duration": 0.7288626666666715
                },
                {
                    "name": "B5",
                    "midi": 83,
                    "time": 75.80171733333309,
                    "velocity": 0.3937007874015748,
                    "duration": 0.7288626666666715
                },
                {
                    "name": "B4",
                    "midi": 71,
                    "time": 75.80171733333309,
                    "velocity": 0.33070866141732286,
                    "duration": 0.7288626666666715
                },
                {
                    "name": "G#5",
                    "midi": 80,
                    "time": 76.53057999999976,
                    "velocity": 0.4015748031496063,
                    "duration": 0.36443133333332867
                },
                {
                    "name": "E5",
                    "midi": 76,
                    "time": 76.89501133333309,
                    "velocity": 0.3543307086614173,
                    "duration": 0.36443133333332867
                },
                {
                    "name": "D#5",
                    "midi": 75,
                    "time": 77.25944266666642,
                    "velocity": 0.3543307086614173,
                    "duration": 0.36443133333332867
                },
                {
                    "name": "D5",
                    "midi": 74,
                    "time": 77.62387399999974,
                    "velocity": 0.3543307086614173,
                    "duration": 0.36443133333332867
                },
                {
                    "name": "B4",
                    "midi": 71,
                    "time": 77.98830533333307,
                    "velocity": 0.3543307086614173,
                    "duration": 0.36443133333332867
                },
                {
                    "name": "G#4",
                    "midi": 68,
                    "time": 78.3527366666664,
                    "velocity": 0.3543307086614173,
                    "duration": 0.36443133333332867
                },
                {
                    "name": "E4",
                    "midi": 64,
                    "time": 78.71716799999973,
                    "velocity": 0.3779527559055118,
                    "duration": 0.36443133333332867
                },
                {
                    "name": "D#4",
                    "midi": 63,
                    "time": 79.08159933333306,
                    "velocity": 0.33070866141732286,
                    "duration": 0.36443133333332867
                },
                {
                    "name": "D4",
                    "midi": 62,
                    "time": 79.44603066666639,
                    "velocity": 0.33070866141732286,
                    "duration": 0.36443133333332867
                },
                {
                    "name": "D4",
                    "midi": 62,
                    "time": 98.39645999999972,
                    "velocity": 0.3228346456692913,
                    "duration": 1.0932940000000002
                },
                {
                    "name": "B3",
                    "midi": 59,
                    "time": 98.39645999999972,
                    "velocity": 0.2677165354330709,
                    "duration": 1.0932940000000002
                },
                {
                    "name": "B3",
                    "midi": 59,
                    "time": 99.48975399999972,
                    "velocity": 0.2755905511811024,
                    "duration": 0.10249631249999425
                },
                {
                    "name": "D4",
                    "midi": 62,
                    "time": 99.48975399999972,
                    "velocity": 0.33070866141732286,
                    "duration": 0.10249631249999425
                },
                {
                    "name": "B3",
                    "midi": 59,
                    "time": 100.03640099999971,
                    "velocity": 0.2755905511811024,
                    "duration": 0.546646999999993
                },
                {
                    "name": "D4",
                    "midi": 62,
                    "time": 100.03640099999971,
                    "velocity": 0.33070866141732286,
                    "duration": 0.546646999999993
                },
                {
                    "name": "D4",
                    "midi": 62,
                    "time": 100.5830479999997,
                    "velocity": 0.33858267716535434,
                    "duration": 1.0932940000000002
                },
                {
                    "name": "B3",
                    "midi": 59,
                    "time": 100.5830479999997,
                    "velocity": 0.28346456692913385,
                    "duration": 1.0932940000000002
                },
                {
                    "name": "G4",
                    "midi": 67,
                    "time": 101.6763419999997,
                    "velocity": 0.3543307086614173,
                    "duration": 0.10249631249999425
                },
                {
                    "name": "B3",
                    "midi": 59,
                    "time": 101.6763419999997,
                    "velocity": 0.2992125984251969,
                    "duration": 0.10249631249999425
                },
                {
                    "name": "B3",
                    "midi": 59,
                    "time": 102.2229889999997,
                    "velocity": 0.2992125984251969,
                    "duration": 0.546646999999993
                },
                {
                    "name": "G4",
                    "midi": 67,
                    "time": 102.2229889999997,
                    "velocity": 0.3700787401574803,
                    "duration": 0.546646999999993
                },
                {
                    "name": "G4",
                    "midi": 67,
                    "time": 102.7696359999997,
                    "velocity": 0.3700787401574803,
                    "duration": 1.0932940000000002
                },
                {
                    "name": "E4",
                    "midi": 64,
                    "time": 102.7696359999997,
                    "velocity": 0.31496062992125984,
                    "duration": 1.0932940000000002
                },
                {
                    "name": "E4",
                    "midi": 64,
                    "time": 103.8629299999997,
                    "velocity": 0.33070866141732286,
                    "duration": 0.10249631249999425
                },
                {
                    "name": "G4",
                    "midi": 67,
                    "time": 103.8629299999997,
                    "velocity": 0.4015748031496063,
                    "duration": 0.10249631249999425
                },
                {
                    "name": "G4",
                    "midi": 67,
                    "time": 104.40957699999969,
                    "velocity": 0.4015748031496063,
                    "duration": 0.546646999999993
                },
                {
                    "name": "E4",
                    "midi": 64,
                    "time": 104.40957699999969,
                    "velocity": 0.33070866141732286,
                    "duration": 0.546646999999993
                },
                {
                    "name": "E4",
                    "midi": 64,
                    "time": 104.95622399999968,
                    "velocity": 0.3464566929133858,
                    "duration": 1.0932940000000002
                },
                {
                    "name": "C5",
                    "midi": 72,
                    "time": 104.95622399999968,
                    "velocity": 0.41732283464566927,
                    "duration": 1.0932940000000002
                },
                {
                    "name": "E4",
                    "midi": 64,
                    "time": 106.04951799999968,
                    "velocity": 0.36220472440944884,
                    "duration": 0.10249631249999425
                },
                {
                    "name": "C5",
                    "midi": 72,
                    "time": 106.04951799999968,
                    "velocity": 0.4330708661417323,
                    "duration": 0.10249631249999425
                },
                {
                    "name": "E4",
                    "midi": 64,
                    "time": 106.59616499999967,
                    "velocity": 0.4094488188976378,
                    "duration": 0.546646999999993
                },
                {
                    "name": "C5",
                    "midi": 72,
                    "time": 106.59616499999967,
                    "velocity": 0.4094488188976378,
                    "duration": 0.546646999999993
                },
                {
                    "name": "C5",
                    "midi": 72,
                    "time": 107.14281199999967,
                    "velocity": 0.4566929133858268,
                    "duration": 1.0932940000000002
                },
                {
                    "name": "A4",
                    "midi": 69,
                    "time": 107.14281199999967,
                    "velocity": 0.3779527559055118,
                    "duration": 1.0932940000000002
                },
                {
                    "name": "C5",
                    "midi": 72,
                    "time": 108.23610599999967,
                    "velocity": 0.5118110236220472,
                    "duration": 0.1366617500000018
                },
                {
                    "name": "A4",
                    "midi": 69,
                    "time": 108.23610599999967,
                    "velocity": 0.4251968503937008,
                    "duration": 0.1366617500000018
                },
                {
                    "name": "A4",
                    "midi": 69,
                    "time": 108.78275299999967,
                    "velocity": 0.44881889763779526,
                    "duration": 0.546646999999993
                },
                {
                    "name": "C5",
                    "midi": 72,
                    "time": 108.78275299999967,
                    "velocity": 0.5433070866141733,
                    "duration": 0.546646999999993
                },
                {
                    "name": "A4",
                    "midi": 69,
                    "time": 109.32939999999967,
                    "velocity": 0.47244094488188976,
                    "duration": 1.0932940000000002
                },
                {
                    "name": "F5",
                    "midi": 77,
                    "time": 109.32939999999967,
                    "velocity": 0.5748031496062992,
                    "duration": 1.0932940000000002
                },
                {
                    "name": "A4",
                    "midi": 69,
                    "time": 110.42269399999967,
                    "velocity": 0.5275590551181102,
                    "duration": 0.1366617500000018
                },
                {
                    "name": "D5",
                    "midi": 74,
                    "time": 110.42269399999967,
                    "velocity": 0.5275590551181102,
                    "duration": 0.1366617500000018
                },
                {
                    "name": "F5",
                    "midi": 77,
                    "time": 110.42269399999967,
                    "velocity": 0.6456692913385826,
                    "duration": 0.1366617500000018
                },
                {
                    "name": "D5",
                    "midi": 74,
                    "time": 110.96934099999967,
                    "velocity": 0.5590551181102362,
                    "duration": 0.546646999999993
                },
                {
                    "name": "A4",
                    "midi": 69,
                    "time": 110.96934099999967,
                    "velocity": 0.5590551181102362,
                    "duration": 0.546646999999993
                },
                {
                    "name": "F5",
                    "midi": 77,
                    "time": 110.96934099999967,
                    "velocity": 0.6771653543307087,
                    "duration": 0.546646999999993
                },
                {
                    "name": "E5",
                    "midi": 76,
                    "time": 111.51598799999967,
                    "velocity": 0.5984251968503937,
                    "duration": 1.0932940000000002
                },
                {
                    "name": "A4",
                    "midi": 69,
                    "time": 111.51598799999967,
                    "velocity": 0.5984251968503937,
                    "duration": 1.0932940000000002
                },
                {
                    "name": "C#5",
                    "midi": 73,
                    "time": 111.51598799999967,
                    "velocity": 0.5984251968503937,
                    "duration": 1.0932940000000002
                },
                {
                    "name": "A5",
                    "midi": 81,
                    "time": 111.51598799999967,
                    "velocity": 0.7165354330708661,
                    "duration": 1.0932940000000002
                },
                {
                    "name": "E5",
                    "midi": 76,
                    "time": 112.60928199999967,
                    "velocity": 0.5905511811023622,
                    "duration": 0.1366617500000018
                },
                {
                    "name": "C#5",
                    "midi": 73,
                    "time": 112.60928199999967,
                    "velocity": 0.5905511811023622,
                    "duration": 0.1366617500000018
                },
                {
                    "name": "A4",
                    "midi": 69,
                    "time": 112.60928199999967,
                    "velocity": 0.5905511811023622,
                    "duration": 0.1366617500000018
                },
                {
                    "name": "A5",
                    "midi": 81,
                    "time": 112.60928199999967,
                    "velocity": 0.7007874015748031,
                    "duration": 0.1366617500000018
                },
                {
                    "name": "C#5",
                    "midi": 73,
                    "time": 113.15592899999967,
                    "velocity": 0.5826771653543307,
                    "duration": 0.546646999999993
                },
                {
                    "name": "A4",
                    "midi": 69,
                    "time": 113.15592899999967,
                    "velocity": 0.5826771653543307,
                    "duration": 0.546646999999993
                },
                {
                    "name": "A5",
                    "midi": 81,
                    "time": 113.15592899999967,
                    "velocity": 0.7007874015748031,
                    "duration": 0.546646999999993
                },
                {
                    "name": "E5",
                    "midi": 76,
                    "time": 113.15592899999967,
                    "velocity": 0.5826771653543307,
                    "duration": 0.546646999999993
                },
                {
                    "name": "A4",
                    "midi": 69,
                    "time": 113.70257599999967,
                    "velocity": 0.5748031496062992,
                    "duration": 1.0932940000000002
                },
                {
                    "name": "A5",
                    "midi": 81,
                    "time": 113.70257599999967,
                    "velocity": 0.6850393700787402,
                    "duration": 1.0932940000000002
                },
                {
                    "name": "C#5",
                    "midi": 73,
                    "time": 113.70257599999967,
                    "velocity": 0.5748031496062992,
                    "duration": 1.0932940000000002
                },
                {
                    "name": "E5",
                    "midi": 76,
                    "time": 113.70257599999967,
                    "velocity": 0.5748031496062992,
                    "duration": 1.0932940000000002
                },
                {
                    "name": "A4",
                    "midi": 69,
                    "time": 114.79586999999967,
                    "velocity": 0.5590551181102362,
                    "duration": 0.1366617500000018
                },
                {
                    "name": "C#5",
                    "midi": 73,
                    "time": 114.79586999999967,
                    "velocity": 0.5590551181102362,
                    "duration": 0.1366617500000018
                },
                {
                    "name": "E5",
                    "midi": 76,
                    "time": 114.79586999999967,
                    "velocity": 0.5590551181102362,
                    "duration": 0.1366617500000018
                },
                {
                    "name": "A5",
                    "midi": 81,
                    "time": 114.79586999999967,
                    "velocity": 0.6771653543307087,
                    "duration": 0.1366617500000018
                },
                {
                    "name": "E5",
                    "midi": 76,
                    "time": 115.34251699999967,
                    "velocity": 0.5590551181102362,
                    "duration": 0.546646999999993
                },
                {
                    "name": "C#5",
                    "midi": 73,
                    "time": 115.34251699999967,
                    "velocity": 0.5590551181102362,
                    "duration": 0.546646999999993
                },
                {
                    "name": "A5",
                    "midi": 81,
                    "time": 115.34251699999967,
                    "velocity": 0.6692913385826772,
                    "duration": 0.546646999999993
                },
                {
                    "name": "A4",
                    "midi": 69,
                    "time": 115.34251699999967,
                    "velocity": 0.5590551181102362,
                    "duration": 0.546646999999993
                },
                {
                    "name": "C#5",
                    "midi": 73,
                    "time": 115.88916399999967,
                    "velocity": 0.5511811023622047,
                    "duration": 1.0932940000000002
                },
                {
                    "name": "A5",
                    "midi": 81,
                    "time": 115.88916399999967,
                    "velocity": 0.6535433070866141,
                    "duration": 1.0932940000000002
                },
                {
                    "name": "E5",
                    "midi": 76,
                    "time": 115.88916399999967,
                    "velocity": 0.5511811023622047,
                    "duration": 1.0932940000000002
                },
                {
                    "name": "A4",
                    "midi": 69,
                    "time": 115.88916399999967,
                    "velocity": 0.5511811023622047,
                    "duration": 1.0932940000000002
                },
                {
                    "name": "A4",
                    "midi": 69,
                    "time": 116.98245799999967,
                    "velocity": 0.5354330708661418,
                    "duration": 0.1366617500000018
                },
                {
                    "name": "A5",
                    "midi": 81,
                    "time": 116.98245799999967,
                    "velocity": 0.6456692913385826,
                    "duration": 0.1366617500000018
                },
                {
                    "name": "A5",
                    "midi": 81,
                    "time": 117.52910499999967,
                    "velocity": 0.6377952755905512,
                    "duration": 0.546646999999993
                },
                {
                    "name": "A4",
                    "midi": 69,
                    "time": 117.52910499999967,
                    "velocity": 0.5354330708661418,
                    "duration": 0.546646999999993
                },
                {
                    "name": "A4",
                    "midi": 69,
                    "time": 118.07575199999967,
                    "velocity": 0.48031496062992124,
                    "duration": 1.0932940000000002
                },
                {
                    "name": "A5",
                    "midi": 81,
                    "time": 118.07575199999967,
                    "velocity": 0.5748031496062992,
                    "duration": 1.0932940000000002
                },
                {
                    "name": "A4",
                    "midi": 69,
                    "time": 119.16904599999967,
                    "velocity": 0.4251968503937008,
                    "duration": 0.1366617500000018
                },
                {
                    "name": "A5",
                    "midi": 81,
                    "time": 119.16904599999967,
                    "velocity": 0.5118110236220472,
                    "duration": 0.1366617500000018
                },
                {
                    "name": "A4",
                    "midi": 69,
                    "time": 119.71569299999967,
                    "velocity": 0.4015748031496063,
                    "duration": 0.546646999999993
                },
                {
                    "name": "A5",
                    "midi": 81,
                    "time": 119.71569299999967,
                    "velocity": 0.48031496062992124,
                    "duration": 0.546646999999993
                },
                {
                    "name": "A5",
                    "midi": 81,
                    "time": 120.26233999999967,
                    "velocity": 0.44881889763779526,
                    "duration": 1.0932940000000002
                },
                {
                    "name": "A4",
                    "midi": 69,
                    "time": 120.26233999999967,
                    "velocity": 0.3700787401574803,
                    "duration": 1.0932940000000002
                },
                {
                    "name": "A5",
                    "midi": 81,
                    "time": 121.35563399999967,
                    "velocity": 0.3858267716535433,
                    "duration": 0.1366617500000018
                },
                {
                    "name": "A4",
                    "midi": 69,
                    "time": 121.35563399999967,
                    "velocity": 0.31496062992125984,
                    "duration": 0.1366617500000018
                },
                {
                    "name": "A4",
                    "midi": 69,
                    "time": 121.90228099999968,
                    "velocity": 0.29133858267716534,
                    "duration": 0.546646999999993
                },
                {
                    "name": "A5",
                    "midi": 81,
                    "time": 121.90228099999968,
                    "velocity": 0.3543307086614173,
                    "duration": 0.546646999999993
                },
                {
                    "name": "A4",
                    "midi": 69,
                    "time": 122.44892799999967,
                    "velocity": 0.2125984251968504,
                    "duration": 1.0932940000000002
                },
                {
                    "name": "A5",
                    "midi": 81,
                    "time": 122.44892799999967,
                    "velocity": 0.25196850393700787,
                    "duration": 1.0932940000000002
                },
                {
                    "name": "A5",
                    "midi": 81,
                    "time": 123.54222199999967,
                    "velocity": 0.25196850393700787,
                    "duration": 0.1366617500000018
                },
                {
                    "name": "A4",
                    "midi": 69,
                    "time": 123.54222199999967,
                    "velocity": 0.2125984251968504,
                    "duration": 0.1366617500000018
                },
                {
                    "name": "A5",
                    "midi": 81,
                    "time": 124.08886899999968,
                    "velocity": 0.25196850393700787,
                    "duration": 0.546646999999993
                },
                {
                    "name": "A4",
                    "midi": 69,
                    "time": 124.08886899999968,
                    "velocity": 0.2125984251968504,
                    "duration": 0.546646999999993
                },
                {
                    "name": "A5",
                    "midi": 81,
                    "time": 124.63551599999967,
                    "velocity": 0.31496062992125984,
                    "duration": 0.18221566666666433
                },
                {
                    "name": "A#5",
                    "midi": 82,
                    "time": 124.81773166666633,
                    "velocity": 0.28346456692913385,
                    "duration": 0.18221566666666433
                },
                {
                    "name": "A5",
                    "midi": 81,
                    "time": 124.999947333333,
                    "velocity": 0.31496062992125984,
                    "duration": 0.18221566666666433
                },
                {
                    "name": "A#5",
                    "midi": 82,
                    "time": 125.18216299999966,
                    "velocity": 0.2755905511811024,
                    "duration": 0.18221566666666433
                },
                {
                    "name": "A5",
                    "midi": 81,
                    "time": 125.36437866666633,
                    "velocity": 0.31496062992125984,
                    "duration": 0.18221566666666433
                },
                {
                    "name": "A#5",
                    "midi": 82,
                    "time": 125.54659433333299,
                    "velocity": 0.28346456692913385,
                    "duration": 0.18221566666666433
                },
                {
                    "name": "A5",
                    "midi": 81,
                    "time": 125.72880999999965,
                    "velocity": 0.31496062992125984,
                    "duration": 0.18221566666666433
                },
                {
                    "name": "A#5",
                    "midi": 82,
                    "time": 125.91102566666632,
                    "velocity": 0.28346456692913385,
                    "duration": 0.18221566666666433
                },
                {
                    "name": "A5",
                    "midi": 81,
                    "time": 126.09324133333298,
                    "velocity": 0.31496062992125984,
                    "duration": 0.18221566666666433
                },
                {
                    "name": "A#5",
                    "midi": 82,
                    "time": 126.27545699999965,
                    "velocity": 0.28346456692913385,
                    "duration": 0.18221566666666433
                },
                {
                    "name": "A5",
                    "midi": 81,
                    "time": 126.45767266666631,
                    "velocity": 0.31496062992125984,
                    "duration": 0.18221566666666433
                },
                {
                    "name": "A#5",
                    "midi": 82,
                    "time": 126.63988833333298,
                    "velocity": 0.2755905511811024,
                    "duration": 0.18221566666666433
                },
                {
                    "name": "A5",
                    "midi": 81,
                    "time": 126.82210399999964,
                    "velocity": 0.31496062992125984,
                    "duration": 0.18221566666666433
                },
                {
                    "name": "A#5",
                    "midi": 82,
                    "time": 127.0043196666663,
                    "velocity": 0.28346456692913385,
                    "duration": 0.18221566666666433
                },
                {
                    "name": "A5",
                    "midi": 81,
                    "time": 127.18653533333297,
                    "velocity": 0.31496062992125984,
                    "duration": 0.18221566666666433
                },
                {
                    "name": "A#5",
                    "midi": 82,
                    "time": 127.36875099999963,
                    "velocity": 0.2755905511811024,
                    "duration": 0.18221566666666433
                },
                {
                    "name": "A5",
                    "midi": 81,
                    "time": 127.5509666666663,
                    "velocity": 0.31496062992125984,
                    "duration": 0.18221566666666433
                },
                {
                    "name": "A#5",
                    "midi": 82,
                    "time": 127.73318233333296,
                    "velocity": 0.2677165354330709,
                    "duration": 0.18221566666666433
                },
                {
                    "name": "A5",
                    "midi": 81,
                    "time": 127.91539799999963,
                    "velocity": 0.3779527559055118,
                    "duration": 0.18221566666666433
                },
                {
                    "name": "A#5",
                    "midi": 82,
                    "time": 128.0976136666663,
                    "velocity": 0.33858267716535434,
                    "duration": 0.18221566666667854
                },
                {
                    "name": "A5",
                    "midi": 81,
                    "time": 128.27982933333297,
                    "velocity": 0.3858267716535433,
                    "duration": 0.18221566666667854
                },
                {
                    "name": "A#5",
                    "midi": 82,
                    "time": 128.46204499999965,
                    "velocity": 0.33858267716535434,
                    "duration": 0.18221566666667854
                },
                {
                    "name": "A5",
                    "midi": 81,
                    "time": 128.64426066666633,
                    "velocity": 0.3937007874015748,
                    "duration": 0.18221566666667854
                },
                {
                    "name": "A#5",
                    "midi": 82,
                    "time": 128.826476333333,
                    "velocity": 0.33858267716535434,
                    "duration": 0.18221566666667854
                },
                {
                    "name": "C6",
                    "midi": 84,
                    "time": 129.00869199999968,
                    "velocity": 0.4094488188976378,
                    "duration": 0.18221566666667854
                },
                {
                    "name": "D6",
                    "midi": 86,
                    "time": 129.19090766666636,
                    "velocity": 0.3700787401574803,
                    "duration": 0.18221566666667854
                },
                {
                    "name": "C6",
                    "midi": 84,
                    "time": 129.37312333333304,
                    "velocity": 0.41732283464566927,
                    "duration": 0.18221566666667854
                },
                {
                    "name": "D6",
                    "midi": 86,
                    "time": 129.55533899999972,
                    "velocity": 0.3700787401574803,
                    "duration": 0.18221566666667854
                },
                {
                    "name": "C6",
                    "midi": 84,
                    "time": 129.7375546666664,
                    "velocity": 0.4251968503937008,
                    "duration": 0.18221566666667854
                },
                {
                    "name": "D6",
                    "midi": 86,
                    "time": 129.91977033333308,
                    "velocity": 0.3858267716535433,
                    "duration": 0.18221566666667854
                },
                {
                    "name": "C6",
                    "midi": 84,
                    "time": 130.10198599999975,
                    "velocity": 0.4409448818897638,
                    "duration": 0.18221566666667854
                },
                {
                    "name": "D6",
                    "midi": 86,
                    "time": 130.28420166666643,
                    "velocity": 0.3937007874015748,
                    "duration": 0.18221566666667854
                },
                {
                    "name": "C6",
                    "midi": 84,
                    "time": 130.4664173333331,
                    "velocity": 0.44881889763779526,
                    "duration": 0.18221566666667854
                },
                {
                    "name": "D6",
                    "midi": 86,
                    "time": 130.6486329999998,
                    "velocity": 0.4094488188976378,
                    "duration": 0.18221566666667854
                },
                {
                    "name": "C6",
                    "midi": 84,
                    "time": 130.83084866666647,
                    "velocity": 0.4566929133858268,
                    "duration": 0.18221566666667854
                },
                {
                    "name": "D6",
                    "midi": 86,
                    "time": 131.01306433333315,
                    "velocity": 0.4015748031496063,
                    "duration": 0.18221566666667854
                },
                {
                    "name": "C6",
                    "midi": 84,
                    "time": 131.19527999999983,
                    "velocity": 0.47244094488188976,
                    "duration": 0.18221566666667854
                },
                {
                    "name": "D6",
                    "midi": 86,
                    "time": 131.3774956666665,
                    "velocity": 0.4251968503937008,
                    "duration": 0.18221566666667854
                },
                {
                    "name": "C6",
                    "midi": 84,
                    "time": 131.55971133333318,
                    "velocity": 0.48031496062992124,
                    "duration": 0.18221566666667854
                },
                {
                    "name": "D6",
                    "midi": 86,
                    "time": 131.74192699999986,
                    "velocity": 0.4251968503937008,
                    "duration": 0.18221566666667854
                },
                {
                    "name": "C6",
                    "midi": 84,
                    "time": 131.92414266666654,
                    "velocity": 0.4881889763779528,
                    "duration": 0.18221566666667854
                },
                {
                    "name": "D6",
                    "midi": 86,
                    "time": 132.10635833333322,
                    "velocity": 0.41732283464566927,
                    "duration": 0.18221566666667854
                },
                {
                    "name": "F6",
                    "midi": 89,
                    "time": 132.2885739999999,
                    "velocity": 0.5039370078740157,
                    "duration": 0.18221566666667854
                },
                {
                    "name": "G6",
                    "midi": 91,
                    "time": 132.47078966666658,
                    "velocity": 0.44881889763779526,
                    "duration": 0.18221566666667854
                },
                {
                    "name": "F6",
                    "midi": 89,
                    "time": 132.65300533333325,
                    "velocity": 0.5118110236220472,
                    "duration": 0.18221566666667854
                },
                {
                    "name": "G6",
                    "midi": 91,
                    "time": 132.83522099999993,
                    "velocity": 0.44881889763779526,
                    "duration": 0.18221566666667854
                },
                {
                    "name": "F6",
                    "midi": 89,
                    "time": 133.0174366666666,
                    "velocity": 0.5196850393700787,
                    "duration": 0.18221566666667854
                },
                {
                    "name": "G6",
                    "midi": 91,
                    "time": 133.1996523333333,
                    "velocity": 0.47244094488188976,
                    "duration": 0.18221566666667854
                },
                {
                    "name": "F6",
                    "midi": 89,
                    "time": 133.38186799999997,
                    "velocity": 0.5354330708661418,
                    "duration": 0.18221566666667854
                },
                {
                    "name": "G6",
                    "midi": 91,
                    "time": 133.56408366666665,
                    "velocity": 0.48031496062992124,
                    "duration": 0.18221566666667854
                },
                {
                    "name": "F6",
                    "midi": 89,
                    "time": 133.74629933333333,
                    "velocity": 0.5433070866141733,
                    "duration": 0.18221566666667854
                },
                {
                    "name": "G6",
                    "midi": 91,
                    "time": 133.928515,
                    "velocity": 0.49606299212598426,
                    "duration": 0.18221566666667854
                },
                {
                    "name": "F6",
                    "midi": 89,
                    "time": 134.11073066666668,
                    "velocity": 0.5511811023622047,
                    "duration": 0.18221566666667854
                },
                {
                    "name": "G6",
                    "midi": 91,
                    "time": 134.29294633333336,
                    "velocity": 0.4881889763779528,
                    "duration": 0.18221566666667854
                },
                {
                    "name": "F6",
                    "midi": 89,
                    "time": 134.47516200000004,
                    "velocity": 0.6141732283464567,
                    "duration": 0.2733235000000036
                },
                {
                    "name": "D#6",
                    "midi": 87,
                    "time": 134.74848550000004,
                    "velocity": 0.6062992125984252,
                    "duration": 0.2733235000000036
                },
                {
                    "name": "D6",
                    "midi": 86,
                    "time": 135.02180900000005,
                    "velocity": 0.5984251968503937,
                    "duration": 0.2733235000000036
                },
                {
                    "name": "C6",
                    "midi": 84,
                    "time": 135.29513250000005,
                    "velocity": 0.5905511811023622,
                    "duration": 0.2733235000000036
                },
                {
                    "name": "A#5",
                    "midi": 82,
                    "time": 135.56845600000005,
                    "velocity": 0.5748031496062992,
                    "duration": 0.2733235000000036
                },
                {
                    "name": "A5",
                    "midi": 81,
                    "time": 135.84177950000006,
                    "velocity": 0.5669291338582677,
                    "duration": 0.2733235000000036
                },
                {
                    "name": "G5",
                    "midi": 79,
                    "time": 136.11510300000006,
                    "velocity": 0.5590551181102362,
                    "duration": 0.2733235000000036
                },
                {
                    "name": "F5",
                    "midi": 77,
                    "time": 136.38842650000007,
                    "velocity": 0.5748031496062992,
                    "duration": 0.2733235000000036
                },
                {
                    "name": "D#5",
                    "midi": 75,
                    "time": 136.66175000000007,
                    "velocity": 0.5905511811023622,
                    "duration": 0.2733235000000036
                },
                {
                    "name": "D5",
                    "midi": 74,
                    "time": 136.93507350000007,
                    "velocity": 0.5984251968503937,
                    "duration": 0.2733235000000036
                },
                {
                    "name": "C5",
                    "midi": 72,
                    "time": 137.20839700000008,
                    "velocity": 0.6141732283464567,
                    "duration": 0.2733235000000036
                },
                {
                    "name": "F5",
                    "midi": 77,
                    "time": 137.48172050000008,
                    "velocity": 0.6220472440944882,
                    "duration": 0.2733235000000036
                },
                {
                    "name": "F4",
                    "midi": 65,
                    "time": 137.75504400000008,
                    "velocity": 0.5905511811023622,
                    "duration": 0.5466470000000072
                },
                {
                    "name": "A#4",
                    "midi": 70,
                    "time": 137.75504400000008,
                    "velocity": 0.7007874015748031,
                    "duration": 0.5466470000000072
                },
                {
                    "name": "A#3",
                    "midi": 58,
                    "time": 137.75504400000008,
                    "velocity": 0.5905511811023622,
                    "duration": 0.5466470000000072
                },
                {
                    "name": "D4",
                    "midi": 62,
                    "time": 137.75504400000008,
                    "velocity": 0.5905511811023622,
                    "duration": 0.5466470000000072
                },
                {
                    "name": "G4",
                    "midi": 67,
                    "time": 139.39498500000008,
                    "velocity": 0.3937007874015748,
                    "duration": 0.32798819999999296
                },
                {
                    "name": "F4",
                    "midi": 65,
                    "time": 139.66830850000008,
                    "velocity": 0.33858267716535434,
                    "duration": 0.32798819999996454
                },
                {
                    "name": "D#4",
                    "midi": 63,
                    "time": 139.94163200000006,
                    "velocity": 0.3937007874015748,
                    "duration": 0.32798819999996454
                },
                {
                    "name": "D4",
                    "midi": 62,
                    "time": 140.21495550000003,
                    "velocity": 0.3700787401574803,
                    "duration": 0.32798819999996454
                },
                {
                    "name": "C4",
                    "midi": 60,
                    "time": 140.488279,
                    "velocity": 0.3700787401574803,
                    "duration": 0.32798819999996454
                },
                {
                    "name": "A#3",
                    "midi": 58,
                    "time": 140.76160249999998,
                    "velocity": 0.3700787401574803,
                    "duration": 0.32798819999996454
                },
                {
                    "name": "A3",
                    "midi": 57,
                    "time": 141.03492599999996,
                    "velocity": 0.3937007874015748,
                    "duration": 0.32798819999996454
                },
                {
                    "name": "A#3",
                    "midi": 58,
                    "time": 141.30824949999993,
                    "velocity": 0.3464566929133858,
                    "duration": 0.32798819999996454
                },
                {
                    "name": "A3",
                    "midi": 57,
                    "time": 141.5815729999999,
                    "velocity": 0.3464566929133858,
                    "duration": 0.32798819999996454
                },
                {
                    "name": "G3",
                    "midi": 55,
                    "time": 141.85489649999988,
                    "velocity": 0.3464566929133858,
                    "duration": 0.32798819999996454
                },
                {
                    "name": "F3",
                    "midi": 53,
                    "time": 142.12821999999986,
                    "velocity": 0.3937007874015748,
                    "duration": 0.2733234999999752
                },
                {
                    "name": "G3",
                    "midi": 55,
                    "time": 142.40154349999983,
                    "velocity": 0.3464566929133858,
                    "duration": 0.2733235000000036
                },
                {
                    "name": "F3",
                    "midi": 53,
                    "time": 142.67486699999984,
                    "velocity": 0.3464566929133858,
                    "duration": 0.2733235000000036
                },
                {
                    "name": "D#3",
                    "midi": 51,
                    "time": 142.94819049999984,
                    "velocity": 0.3464566929133858,
                    "duration": 0.2733235000000036
                },
                {
                    "name": "D3",
                    "midi": 50,
                    "time": 143.22151399999984,
                    "velocity": 0.3937007874015748,
                    "duration": 0.2733235000000036
                },
                {
                    "name": "D#3",
                    "midi": 51,
                    "time": 143.49483749999985,
                    "velocity": 0.3464566929133858,
                    "duration": 0.2733235000000036
                },
                {
                    "name": "D3",
                    "midi": 50,
                    "time": 143.76816099999985,
                    "velocity": 0.3464566929133858,
                    "duration": 0.2733235000000036
                },
                {
                    "name": "C3",
                    "midi": 48,
                    "time": 144.04148449999985,
                    "velocity": 0.3464566929133858,
                    "duration": 0.2733235000000036
                },
                {
                    "name": "A#2",
                    "midi": 46,
                    "time": 144.31480799999986,
                    "velocity": 0.3937007874015748,
                    "duration": 1.093293999999986
                },
                {
                    "name": "A#3",
                    "midi": 58,
                    "time": 173.83374599999985,
                    "velocity": 0.5118110236220472,
                    "duration": 0.2733235000000036
                },
                {
                    "name": "E5",
                    "midi": 76,
                    "time": 174.92703999999986,
                    "velocity": 0.5118110236220472,
                    "duration": 0.18221566666667854
                },
                {
                    "name": "F5",
                    "midi": 77,
                    "time": 175.10925566666654,
                    "velocity": 0.4645669291338583,
                    "duration": 0.18221566666667854
                },
                {
                    "name": "E5",
                    "midi": 76,
                    "time": 175.29147133333322,
                    "velocity": 0.5118110236220472,
                    "duration": 0.18221566666667854
                },
                {
                    "name": "F5",
                    "midi": 77,
                    "time": 175.4736869999999,
                    "velocity": 0.47244094488188976,
                    "duration": 0.18221566666667854
                },
                {
                    "name": "E5",
                    "midi": 76,
                    "time": 175.65590266666658,
                    "velocity": 0.5118110236220472,
                    "duration": 0.18221566666667854
                },
                {
                    "name": "F5",
                    "midi": 77,
                    "time": 175.83811833333326,
                    "velocity": 0.48031496062992124,
                    "duration": 0.18221566666667854
                },
                {
                    "name": "E5",
                    "midi": 76,
                    "time": 176.02033399999993,
                    "velocity": 0.5118110236220472,
                    "duration": 0.18221566666667854
                },
                {
                    "name": "F5",
                    "midi": 77,
                    "time": 176.2025496666666,
                    "velocity": 0.5118110236220472,
                    "duration": 0.18221566666667854
                },
                {
                    "name": "E5",
                    "midi": 76,
                    "time": 176.3847653333333,
                    "velocity": 0.5118110236220472,
                    "duration": 0.18221566666667854
                },
                {
                    "name": "F5",
                    "midi": 77,
                    "time": 176.56698099999997,
                    "velocity": 0.48031496062992124,
                    "duration": 0.1366617500000018
                },
                {
                    "name": "E5",
                    "midi": 76,
                    "time": 176.70364274999997,
                    "velocity": 0.5118110236220472,
                    "duration": 0.1366617500000018
                },
                {
                    "name": "D5",
                    "midi": 74,
                    "time": 176.84030449999997,
                    "velocity": 0.48031496062992124,
                    "duration": 0.1366617500000018
                },
                {
                    "name": "E5",
                    "midi": 76,
                    "time": 176.97696624999998,
                    "velocity": 0.48031496062992124,
                    "duration": 0.1366617500000018
                },
                {
                    "name": "F5",
                    "midi": 77,
                    "time": 177.11362799999998,
                    "velocity": 0.5433070866141733,
                    "duration": 1.093293999999986
                },
                {
                    "name": "F5",
                    "midi": 77,
                    "time": 178.75356899999997,
                    "velocity": 0.4881889763779528,
                    "duration": 0.32798819999999296
                },
                {
                    "name": "E5",
                    "midi": 76,
                    "time": 179.02689249999997,
                    "velocity": 0.4094488188976378,
                    "duration": 0.32798819999996454
                },
                {
                    "name": "D5",
                    "midi": 74,
                    "time": 179.30021599999995,
                    "velocity": 0.4094488188976378,
                    "duration": 0.32798819999996454
                },
                {
                    "name": "C5",
                    "midi": 72,
                    "time": 179.57353949999992,
                    "velocity": 0.4094488188976378,
                    "duration": 0.32798819999996454
                },
                {
                    "name": "A#4",
                    "midi": 70,
                    "time": 179.8468629999999,
                    "velocity": 0.4566929133858268,
                    "duration": 0.32798819999996454
                },
                {
                    "name": "A4",
                    "midi": 69,
                    "time": 180.12018649999987,
                    "velocity": 0.4015748031496063,
                    "duration": 0.32798819999996454
                },
                {
                    "name": "D5",
                    "midi": 74,
                    "time": 180.39350999999985,
                    "velocity": 0.5433070866141733,
                    "duration": 1.093293999999986
                },
                {
                    "name": "D5",
                    "midi": 74,
                    "time": 182.03345099999984,
                    "velocity": 0.4881889763779528,
                    "duration": 0.32798819999999296
                },
                {
                    "name": "C5",
                    "midi": 72,
                    "time": 182.30677449999985,
                    "velocity": 0.4094488188976378,
                    "duration": 0.32798819999996454
                },
                {
                    "name": "A#4",
                    "midi": 70,
                    "time": 182.58009799999982,
                    "velocity": 0.4094488188976378,
                    "duration": 0.32798819999996454
                },
                {
                    "name": "A4",
                    "midi": 69,
                    "time": 182.8534214999998,
                    "velocity": 0.4094488188976378,
                    "duration": 0.32798819999996454
                },
                {
                    "name": "G4",
                    "midi": 67,
                    "time": 183.12674499999977,
                    "velocity": 0.4566929133858268,
                    "duration": 0.32798819999996454
                },
                {
                    "name": "F4",
                    "midi": 65,
                    "time": 183.40006849999975,
                    "velocity": 0.4015748031496063,
                    "duration": 0.32798819999996454
                },
                {
                    "name": "A#4",
                    "midi": 70,
                    "time": 183.67339199999972,
                    "velocity": 0.5433070866141733,
                    "duration": 1.093293999999986
                },
                {
                    "name": "A#4",
                    "midi": 70,
                    "time": 185.31333299999972,
                    "velocity": 0.5196850393700787,
                    "duration": 0.32798819999999296
                },
                {
                    "name": "A4",
                    "midi": 69,
                    "time": 185.58665649999972,
                    "velocity": 0.5118110236220472,
                    "duration": 0.32798819999996454
                },
                {
                    "name": "G4",
                    "midi": 67,
                    "time": 185.8599799999997,
                    "velocity": 0.5039370078740157,
                    "duration": 0.32798819999996454
                },
                {
                    "name": "A4",
                    "midi": 69,
                    "time": 186.13330349999967,
                    "velocity": 0.49606299212598426,
                    "duration": 0.32798819999996454
                },
                {
                    "name": "G4",
                    "midi": 67,
                    "time": 186.40662699999965,
                    "velocity": 0.48031496062992124,
                    "duration": 0.32798819999996454
                },
                {
                    "name": "F4",
                    "midi": 65,
                    "time": 186.67995049999962,
                    "velocity": 0.4881889763779528,
                    "duration": 0.32798819999996454
                },
                {
                    "name": "E4",
                    "midi": 64,
                    "time": 186.9532739999996,
                    "velocity": 0.5196850393700787,
                    "duration": 0.32798819999996454
                },
                {
                    "name": "F4",
                    "midi": 65,
                    "time": 187.22659749999957,
                    "velocity": 0.4645669291338583,
                    "duration": 0.32798819999996454
                },
                {
                    "name": "E4",
                    "midi": 64,
                    "time": 187.49992099999955,
                    "velocity": 0.4645669291338583,
                    "duration": 0.32798819999996454
                },
                {
                    "name": "D4",
                    "midi": 62,
                    "time": 187.77324449999952,
                    "velocity": 0.4645669291338583,
                    "duration": 0.2733234999999752
                },
                {
                    "name": "C4",
                    "midi": 60,
                    "time": 188.0465679999995,
                    "velocity": 0.4645669291338583,
                    "duration": 0.2733235000000036
                },
                {
                    "name": "D4",
                    "midi": 62,
                    "time": 188.3198914999995,
                    "velocity": 0.4881889763779528,
                    "duration": 0.32798819999999296
                },
                {
                    "name": "E4",
                    "midi": 64,
                    "time": 188.5932149999995,
                    "velocity": 0.44881889763779526,
                    "duration": 0.32798819999996454
                },
                {
                    "name": "F4",
                    "midi": 65,
                    "time": 188.86653849999948,
                    "velocity": 0.44881889763779526,
                    "duration": 0.32798819999996454
                },
                {
                    "name": "F#4",
                    "midi": 66,
                    "time": 189.13986199999945,
                    "velocity": 0.44881889763779526,
                    "duration": 0.32798819999996454
                },
                {
                    "name": "G4",
                    "midi": 67,
                    "time": 189.41318549999943,
                    "velocity": 0.44881889763779526,
                    "duration": 0.32798819999996454
                },
                {
                    "name": "A4",
                    "midi": 69,
                    "time": 189.6865089999994,
                    "velocity": 0.44881889763779526,
                    "duration": 0.32798819999996454
                },
                {
                    "name": "G4",
                    "midi": 67,
                    "time": 189.95983249999938,
                    "velocity": 0.44881889763779526,
                    "duration": 0.2733234999999752
                },
                {
                    "name": "F4",
                    "midi": 65,
                    "time": 190.23315599999935,
                    "velocity": 0.47244094488188976,
                    "duration": 0.32798819999999296
                },
                {
                    "name": "G4",
                    "midi": 67,
                    "time": 190.50647949999936,
                    "velocity": 0.48031496062992124,
                    "duration": 0.32798819999996454
                },
                {
                    "name": "A4",
                    "midi": 69,
                    "time": 190.77980299999933,
                    "velocity": 0.48031496062992124,
                    "duration": 0.32798819999996454
                },
                {
                    "name": "A#4",
                    "midi": 70,
                    "time": 191.0531264999993,
                    "velocity": 0.4881889763779528,
                    "duration": 0.32798819999996454
                },
                {
                    "name": "B4",
                    "midi": 71,
                    "time": 191.32644999999928,
                    "velocity": 0.49606299212598426,
                    "duration": 0.32798819999996454
                },
                {
                    "name": "C5",
                    "midi": 72,
                    "time": 191.59977349999926,
                    "velocity": 0.49606299212598426,
                    "duration": 0.32798819999996454
                },
                {
                    "name": "D5",
                    "midi": 74,
                    "time": 191.87309699999923,
                    "velocity": 0.5039370078740157,
                    "duration": 0.32798819999996454
                },
                {
                    "name": "C5",
                    "midi": 72,
                    "time": 192.1464204999992,
                    "velocity": 0.47244094488188976,
                    "duration": 0.32798819999996454
                },
                {
                    "name": "A#4",
                    "midi": 70,
                    "time": 192.41974399999918,
                    "velocity": 0.5039370078740157,
                    "duration": 0.32798819999996454
                },
                {
                    "name": "A4",
                    "midi": 69,
                    "time": 192.69306749999916,
                    "velocity": 0.49606299212598426,
                    "duration": 0.32798819999996454
                },
                {
                    "name": "G4",
                    "midi": 67,
                    "time": 192.96639099999913,
                    "velocity": 0.4881889763779528,
                    "duration": 0.32798819999996454
                },
                {
                    "name": "F4",
                    "midi": 65,
                    "time": 193.2397144999991,
                    "velocity": 0.47244094488188976,
                    "duration": 0.32798819999996454
                },
                {
                    "name": "E4",
                    "midi": 64,
                    "time": 193.51303799999909,
                    "velocity": 0.5118110236220472,
                    "duration": 0.32798819999996454
                },
                {
                    "name": "F4",
                    "midi": 65,
                    "time": 193.78636149999906,
                    "velocity": 0.4409448818897638,
                    "duration": 0.32798819999996454
                },
                {
                    "name": "E4",
                    "midi": 64,
                    "time": 194.05968499999904,
                    "velocity": 0.4566929133858268,
                    "duration": 0.32798819999996454
                },
                {
                    "name": "D4",
                    "midi": 62,
                    "time": 194.333008499999,
                    "velocity": 0.4566929133858268,
                    "duration": 0.2733234999999752
                },
                {
                    "name": "C4",
                    "midi": 60,
                    "time": 194.606331999999,
                    "velocity": 0.4881889763779528,
                    "duration": 0.32798819999999296
                },
                {
                    "name": "D4",
                    "midi": 62,
                    "time": 194.879655499999,
                    "velocity": 0.4881889763779528,
                    "duration": 0.32798819999996454
                },
                {
                    "name": "E4",
                    "midi": 64,
                    "time": 195.15297899999896,
                    "velocity": 0.4566929133858268,
                    "duration": 0.32798819999996454
                },
                {
                    "name": "F4",
                    "midi": 65,
                    "time": 195.42630249999894,
                    "velocity": 0.4566929133858268,
                    "duration": 0.32798819999996454
                },
                {
                    "name": "F#4",
                    "midi": 66,
                    "time": 195.69962599999891,
                    "velocity": 0.4566929133858268,
                    "duration": 0.32798819999996454
                },
                {
                    "name": "G4",
                    "midi": 67,
                    "time": 195.9729494999989,
                    "velocity": 0.4566929133858268,
                    "duration": 0.32798819999996454
                },
                {
                    "name": "A4",
                    "midi": 69,
                    "time": 196.24627299999887,
                    "velocity": 0.4566929133858268,
                    "duration": 0.32798819999996454
                },
                {
                    "name": "F4",
                    "midi": 65,
                    "time": 196.51959649999884,
                    "velocity": 0.4566929133858268,
                    "duration": 0.2733234999999752
                },
                {
                    "name": "E4",
                    "midi": 64,
                    "time": 196.79291999999882,
                    "velocity": 0.5196850393700787,
                    "duration": 0.32798819999999296
                },
                {
                    "name": "F4",
                    "midi": 65,
                    "time": 197.06624349999882,
                    "velocity": 0.4881889763779528,
                    "duration": 0.32798819999996454
                },
                {
                    "name": "C5",
                    "midi": 72,
                    "time": 197.3395669999988,
                    "velocity": 0.4645669291338583,
                    "duration": 0.32798819999996454
                },
                {
                    "name": "A#4",
                    "midi": 70,
                    "time": 197.61289049999877,
                    "velocity": 0.4645669291338583,
                    "duration": 0.2733234999999752
                },
                {
                    "name": "A4",
                    "midi": 69,
                    "time": 197.88621399999874,
                    "velocity": 0.4881889763779528,
                    "duration": 0.32798819999999296
                },
                {
                    "name": "A#4",
                    "midi": 70,
                    "time": 198.15953749999875,
                    "velocity": 0.4409448818897638,
                    "duration": 0.32798819999996454
                },
                {
                    "name": "C5",
                    "midi": 72,
                    "time": 198.43286099999872,
                    "velocity": 0.4409448818897638,
                    "duration": 0.32798819999996454
                },
                {
                    "name": "A#4",
                    "midi": 70,
                    "time": 198.7061844999987,
                    "velocity": 0.4409448818897638,
                    "duration": 0.2733234999999752
                },
                {
                    "name": "G#4",
                    "midi": 68,
                    "time": 198.97950799999867,
                    "velocity": 0.4566929133858268,
                    "duration": 0.32798819999999296
                },
                {
                    "name": "A4",
                    "midi": 69,
                    "time": 199.25283149999868,
                    "velocity": 0.44881889763779526,
                    "duration": 0.32798819999996454
                },
                {
                    "name": "A#4",
                    "midi": 70,
                    "time": 199.52615499999865,
                    "velocity": 0.44881889763779526,
                    "duration": 0.32798819999996454
                },
                {
                    "name": "A4",
                    "midi": 69,
                    "time": 199.79947849999863,
                    "velocity": 0.44881889763779526,
                    "duration": 0.2733234999999752
                },
                {
                    "name": "G4",
                    "midi": 67,
                    "time": 200.0728019999986,
                    "velocity": 0.5354330708661418,
                    "duration": 0.32798819999999296
                },
                {
                    "name": "G#4",
                    "midi": 68,
                    "time": 200.3461254999986,
                    "velocity": 0.4881889763779528,
                    "duration": 0.32798819999996454
                },
                {
                    "name": "D#5",
                    "midi": 75,
                    "time": 200.61944899999858,
                    "velocity": 0.5354330708661418,
                    "duration": 0.32798819999996454
                },
                {
                    "name": "D5",
                    "midi": 74,
                    "time": 200.89277249999856,
                    "velocity": 0.4881889763779528,
                    "duration": 0.2733234999999752
                },
                {
                    "name": "C5",
                    "midi": 72,
                    "time": 201.16609599999853,
                    "velocity": 0.5039370078740157,
                    "duration": 0.32798819999999296
                },
                {
                    "name": "C#5",
                    "midi": 73,
                    "time": 201.43941949999854,
                    "velocity": 0.4645669291338583,
                    "duration": 0.32798819999996454
                },
                {
                    "name": "D5",
                    "midi": 74,
                    "time": 201.7127429999985,
                    "velocity": 0.4645669291338583,
                    "duration": 0.32798819999996454
                },
                {
                    "name": "C#5",
                    "midi": 73,
                    "time": 201.9860664999985,
                    "velocity": 0.4645669291338583,
                    "duration": 0.2733234999999752
                },
                {
                    "name": "B4",
                    "midi": 71,
                    "time": 202.25938999999846,
                    "velocity": 0.4881889763779528,
                    "duration": 0.32798819999999296
                },
                {
                    "name": "C5",
                    "midi": 72,
                    "time": 202.53271349999847,
                    "velocity": 0.4566929133858268,
                    "duration": 0.32798819999996454
                },
                {
                    "name": "D5",
                    "midi": 74,
                    "time": 202.80603699999844,
                    "velocity": 0.4566929133858268,
                    "duration": 0.32798819999996454
                },
                {
                    "name": "C5",
                    "midi": 72,
                    "time": 203.07936049999842,
                    "velocity": 0.4566929133858268,
                    "duration": 0.2733234999999752
                },
                {
                    "name": "D#4",
                    "midi": 63,
                    "time": 203.3526839999984,
                    "velocity": 0.6220472440944882,
                    "duration": 2.1865879999999436
                },
                {
                    "name": "G#4",
                    "midi": 68,
                    "time": 203.3526839999984,
                    "velocity": 0.6220472440944882,
                    "duration": 0.32798819999999296
                },
                {
                    "name": "A4",
                    "midi": 69,
                    "time": 203.6260074999984,
                    "velocity": 0.5354330708661418,
                    "duration": 0.32798819999996454
                },
                {
                    "name": "A#4",
                    "midi": 70,
                    "time": 203.89933099999837,
                    "velocity": 0.5354330708661418,
                    "duration": 0.32798819999996454
                },
                {
                    "name": "A4",
                    "midi": 69,
                    "time": 204.17265449999834,
                    "velocity": 0.5354330708661418,
                    "duration": 0.2733234999999752
                },
                {
                    "name": "E4",
                    "midi": 64,
                    "time": 204.44597799999832,
                    "velocity": 0.5354330708661418,
                    "duration": 0.2733235000000036
                },
                {
                    "name": "F4",
                    "midi": 65,
                    "time": 204.71930149999832,
                    "velocity": 0.5039370078740157,
                    "duration": 0.2733235000000036
                },
                {
                    "name": "G4",
                    "midi": 67,
                    "time": 204.99262499999833,
                    "velocity": 0.5039370078740157,
                    "duration": 0.2733235000000036
                },
                {
                    "name": "F4",
                    "midi": 65,
                    "time": 205.26594849999833,
                    "velocity": 0.5039370078740157,
                    "duration": 0.2733235000000036
                },
                {
                    "name": "F4",
                    "midi": 65,
                    "time": 205.53927199999833,
                    "velocity": 0.5590551181102362,
                    "duration": 1.6399410000000216
                },
                {
                    "name": "B4",
                    "midi": 71,
                    "time": 205.53927199999833,
                    "velocity": 0.5354330708661418,
                    "duration": 0.2733235000000036
                },
                {
                    "name": "C5",
                    "midi": 72,
                    "time": 205.81259549999834,
                    "velocity": 0.49606299212598426,
                    "duration": 0.2733235000000036
                },
                {
                    "name": "D5",
                    "midi": 74,
                    "time": 206.08591899999834,
                    "velocity": 0.49606299212598426,
                    "duration": 0.2733235000000036
                },
                {
                    "name": "C5",
                    "midi": 72,
                    "time": 206.35924249999835,
                    "velocity": 0.49606299212598426,
                    "duration": 0.2733235000000036
                },
                {
                    "name": "D4",
                    "midi": 62,
                    "time": 207.17921299999836,
                    "velocity": 0.5118110236220472,
                    "duration": 0.2733235000000036
                },
                {
                    "name": "D5",
                    "midi": 74,
                    "time": 207.72585999999836,
                    "velocity": 0.5984251968503937,
                    "duration": 1.6399410000000216
                },
                {
                    "name": "A4",
                    "midi": 69,
                    "time": 208.27250699999837,
                    "velocity": 0.3543307086614173,
                    "duration": 0.5466470000000072
                },
                {
                    "name": "A#4",
                    "midi": 70,
                    "time": 208.81915399999838,
                    "velocity": 0.3937007874015748,
                    "duration": 1.0932940000000144
                },
                {
                    "name": "A#3",
                    "midi": 58,
                    "time": 210.4590949999984,
                    "velocity": 0.5118110236220472,
                    "duration": 0.2733235000000036
                },
                {
                    "name": "A#4",
                    "midi": 70,
                    "time": 211.0057419999984,
                    "velocity": 0.5984251968503937,
                    "duration": 1.6399410000000216
                },
                {
                    "name": "F#4",
                    "midi": 66,
                    "time": 211.5523889999984,
                    "velocity": 0.3543307086614173,
                    "duration": 0.5466470000000072
                },
                {
                    "name": "G4",
                    "midi": 67,
                    "time": 212.09903599999842,
                    "velocity": 0.3937007874015748,
                    "duration": 1.0932940000000144
                },
                {
                    "name": "G4",
                    "midi": 67,
                    "time": 213.73897699999844,
                    "velocity": 0.48031496062992124,
                    "duration": 0.2733235000000036
                },
                {
                    "name": "G5",
                    "midi": 79,
                    "time": 214.28562399999845,
                    "velocity": 0.5354330708661418,
                    "duration": 0.6013116999999966
                },
                {
                    "name": "B4",
                    "midi": 71,
                    "time": 214.83227099999846,
                    "velocity": 0.4015748031496063,
                    "duration": 0.5466469999999788
                },
                {
                    "name": "F5",
                    "midi": 77,
                    "time": 214.83227099999846,
                    "velocity": 0.48031496062992124,
                    "duration": 0.6013116999999681
                },
                {
                    "name": "C5",
                    "midi": 72,
                    "time": 215.37891799999844,
                    "velocity": 0.4015748031496063,
                    "duration": 0.5466469999999788
                },
                {
                    "name": "D#5",
                    "midi": 75,
                    "time": 215.37891799999844,
                    "velocity": 0.47244094488188976,
                    "duration": 0.6013116999999681
                },
                {
                    "name": "G4",
                    "midi": 67,
                    "time": 215.92556499999841,
                    "velocity": 0.4015748031496063,
                    "duration": 0.5466469999999788
                },
                {
                    "name": "E5",
                    "midi": 76,
                    "time": 215.92556499999841,
                    "velocity": 0.47244094488188976,
                    "duration": 0.6013116999999681
                },
                {
                    "name": "C5",
                    "midi": 72,
                    "time": 216.4722119999984,
                    "velocity": 0.4645669291338583,
                    "duration": 0.2733234999999752
                },
                {
                    "name": "F5",
                    "midi": 77,
                    "time": 216.4722119999984,
                    "velocity": 0.5511811023622047,
                    "duration": 0.2733234999999752
                },
                {
                    "name": "F4",
                    "midi": 65,
                    "time": 217.01885899999837,
                    "velocity": 0.4645669291338583,
                    "duration": 0.5466470000000072
                },
                {
                    "name": "C5",
                    "midi": 72,
                    "time": 217.56550599999838,
                    "velocity": 0.4645669291338583,
                    "duration": 0.5466470000000072
                },
                {
                    "name": "D#5",
                    "midi": 75,
                    "time": 217.56550599999838,
                    "velocity": 0.6141732283464567,
                    "duration": 1.6399410000000216
                },
                {
                    "name": "F#4",
                    "midi": 66,
                    "time": 218.1121529999984,
                    "velocity": 0.4645669291338583,
                    "duration": 0.5466470000000072
                },
                {
                    "name": "F4",
                    "midi": 65,
                    "time": 218.6587999999984,
                    "velocity": 0.4645669291338583,
                    "duration": 1.6399410000000216
                },
                {
                    "name": "D#5",
                    "midi": 75,
                    "time": 219.2054469999984,
                    "velocity": 0.4645669291338583,
                    "duration": 0.5466470000000072
                },
                {
                    "name": "D#5",
                    "midi": 75,
                    "time": 219.7520939999984,
                    "velocity": 0.5118110236220472,
                    "duration": 0.6013116999999966
                },
                {
                    "name": "F4",
                    "midi": 65,
                    "time": 220.29874099999842,
                    "velocity": 0.3937007874015748,
                    "duration": 0.5466469999999788
                },
                {
                    "name": "D5",
                    "midi": 74,
                    "time": 220.29874099999842,
                    "velocity": 0.4645669291338583,
                    "duration": 0.6013116999999681
                },
                {
                    "name": "D#4",
                    "midi": 63,
                    "time": 220.8453879999984,
                    "velocity": 0.3937007874015748,
                    "duration": 0.5466469999999788
                },
                {
                    "name": "C5",
                    "midi": 72,
                    "time": 220.8453879999984,
                    "velocity": 0.4645669291338583,
                    "duration": 0.6013116999999681
                },
                {
                    "name": "D4",
                    "midi": 62,
                    "time": 221.39203499999837,
                    "velocity": 0.3937007874015748,
                    "duration": 0.5466469999999788
                },
                {
                    "name": "A#4",
                    "midi": 70,
                    "time": 221.39203499999837,
                    "velocity": 0.4645669291338583,
                    "duration": 0.6013116999999681
                },
                {
                    "name": "C4",
                    "midi": 60,
                    "time": 221.93868199999835,
                    "velocity": 0.3937007874015748,
                    "duration": 0.5466469999999788
                },
                {
                    "name": "A4",
                    "midi": 69,
                    "time": 221.93868199999835,
                    "velocity": 0.4645669291338583,
                    "duration": 0.6013116999999681
                },
                {
                    "name": "D4",
                    "midi": 62,
                    "time": 222.48532899999833,
                    "velocity": 0.3937007874015748,
                    "duration": 0.5466469999999788
                },
                {
                    "name": "A#4",
                    "midi": 70,
                    "time": 222.48532899999833,
                    "velocity": 0.4645669291338583,
                    "duration": 0.5466469999999788
                },
                {
                    "name": "F4",
                    "midi": 65,
                    "time": 223.0319759999983,
                    "velocity": 0.5511811023622047,
                    "duration": 0.2733235000000036
                },
                {
                    "name": "B4",
                    "midi": 71,
                    "time": 223.57862299999832,
                    "velocity": 0.4645669291338583,
                    "duration": 0.5466470000000072
                },
                {
                    "name": "C5",
                    "midi": 72,
                    "time": 224.12526999999832,
                    "velocity": 0.4645669291338583,
                    "duration": 0.5466470000000072
                },
                {
                    "name": "D#4",
                    "midi": 63,
                    "time": 224.12526999999832,
                    "velocity": 0.6141732283464567,
                    "duration": 1.6399410000000216
                },
                {
                    "name": "F#4",
                    "midi": 66,
                    "time": 224.67191699999833,
                    "velocity": 0.4645669291338583,
                    "duration": 0.5466470000000072
                },
                {
                    "name": "F4",
                    "midi": 65,
                    "time": 225.21856399999834,
                    "velocity": 0.4645669291338583,
                    "duration": 1.0932940000000144
                },
                {
                    "name": "D4",
                    "midi": 62,
                    "time": 225.76521099999835,
                    "velocity": 0.4645669291338583,
                    "duration": 0.5466470000000072
                },
                {
                    "name": "G#5",
                    "midi": 80,
                    "time": 226.31185799999835,
                    "velocity": 0.6062992125984252,
                    "duration": 0.2733235000000036
                },
                {
                    "name": "A#4",
                    "midi": 70,
                    "time": 226.85850499999836,
                    "velocity": 0.4645669291338583,
                    "duration": 0.5466470000000072
                },
                {
                    "name": "E5",
                    "midi": 76,
                    "time": 227.40515199999837,
                    "velocity": 0.4645669291338583,
                    "duration": 0.5466470000000072
                },
                {
                    "name": "G5",
                    "midi": 79,
                    "time": 227.40515199999837,
                    "velocity": 0.6692913385826772,
                    "duration": 1.6399409999999932
                },
                {
                    "name": "A#4",
                    "midi": 70,
                    "time": 227.95179899999837,
                    "velocity": 0.4645669291338583,
                    "duration": 1.6399409999999932
                },
                {
                    "name": "F5",
                    "midi": 77,
                    "time": 229.04509299999836,
                    "velocity": 0.4645669291338583,
                    "duration": 0.5466470000000072
                },
                {
                    "name": "C5",
                    "midi": 72,
                    "time": 229.59173999999837,
                    "velocity": 0.6062992125984252,
                    "duration": 0.2733235000000036
                },
                {
                    "name": "D#5",
                    "midi": 75,
                    "time": 230.13838699999837,
                    "velocity": 0.4645669291338583,
                    "duration": 0.5466470000000072
                },
                {
                    "name": "G5",
                    "midi": 79,
                    "time": 230.68503399999838,
                    "velocity": 0.4645669291338583,
                    "duration": 0.5466470000000072
                },
                {
                    "name": "A#4",
                    "midi": 70,
                    "time": 230.68503399999838,
                    "velocity": 0.6692913385826772,
                    "duration": 1.6399410000000216
                },
                {
                    "name": "C#5",
                    "midi": 73,
                    "time": 231.2316809999984,
                    "velocity": 0.4645669291338583,
                    "duration": 0.5466470000000072
                },
                {
                    "name": "C5",
                    "midi": 72,
                    "time": 231.7783279999984,
                    "velocity": 0.4645669291338583,
                    "duration": 1.0932940000000144
                },
                {
                    "name": "A4",
                    "midi": 69,
                    "time": 232.3249749999984,
                    "velocity": 0.4645669291338583,
                    "duration": 0.5466470000000072
                },
                {
                    "name": "F6",
                    "midi": 89,
                    "time": 232.8716219999984,
                    "velocity": 0.6535433070866141,
                    "duration": 0.2733235000000036
                },
                {
                    "name": "A5",
                    "midi": 81,
                    "time": 233.41826899999842,
                    "velocity": 0.5275590551181102,
                    "duration": 0.5466470000000072
                },
                {
                    "name": "C6",
                    "midi": 84,
                    "time": 233.96491599999842,
                    "velocity": 0.5275590551181102,
                    "duration": 0.5466470000000072
                },
                {
                    "name": "D#6",
                    "midi": 87,
                    "time": 233.96491599999842,
                    "velocity": 0.7007874015748031,
                    "duration": 1.6399410000000216
                },
                {
                    "name": "F#5",
                    "midi": 78,
                    "time": 234.51156299999843,
                    "velocity": 0.5275590551181102,
                    "duration": 0.5466470000000072
                },
                {
                    "name": "F5",
                    "midi": 77,
                    "time": 235.05820999999844,
                    "velocity": 0.5275590551181102,
                    "duration": 1.0932940000000144
                },
                {
                    "name": "D6",
                    "midi": 86,
                    "time": 235.60485699999845,
                    "velocity": 0.5590551181102362,
                    "duration": 0.5466470000000072
                },
                {
                    "name": "G#6",
                    "midi": 92,
                    "time": 236.15150399999845,
                    "velocity": 0.7244094488188977,
                    "duration": 0.2733235000000036
                },
                {
                    "name": "A#5",
                    "midi": 82,
                    "time": 236.69815099999846,
                    "velocity": 0.5275590551181102,
                    "duration": 0.5466470000000072
                },
                {
                    "name": "E6",
                    "midi": 88,
                    "time": 237.24479799999847,
                    "velocity": 0.5275590551181102,
                    "duration": 0.5466470000000072
                },
                {
                    "name": "G6",
                    "midi": 91,
                    "time": 237.24479799999847,
                    "velocity": 0.8031496062992126,
                    "duration": 1.6399409999999932
                },
                {
                    "name": "A#5",
                    "midi": 82,
                    "time": 237.79144499999848,
                    "velocity": 0.5275590551181102,
                    "duration": 1.093293999999986
                },
                {
                    "name": "D6",
                    "midi": 86,
                    "time": 238.88473899999846,
                    "velocity": 0.5275590551181102,
                    "duration": 0.5466470000000072
                },
                {
                    "name": "F6",
                    "midi": 89,
                    "time": 238.88473899999846,
                    "velocity": 0.6062992125984252,
                    "duration": 1.0932940000000144
                },
                {
                    "name": "B5",
                    "midi": 83,
                    "time": 239.43138599999847,
                    "velocity": 0.5275590551181102,
                    "duration": 0.5466470000000072
                },
                {
                    "name": "G5",
                    "midi": 79,
                    "time": 239.97803299999848,
                    "velocity": 0.5275590551181102,
                    "duration": 0.5466470000000072
                },
                {
                    "name": "F6",
                    "midi": 89,
                    "time": 239.97803299999848,
                    "velocity": 0.6062992125984252,
                    "duration": 1.0932940000000144
                },
                {
                    "name": "C6",
                    "midi": 84,
                    "time": 240.52467999999848,
                    "velocity": 0.5275590551181102,
                    "duration": 0.5466470000000072
                },
                {
                    "name": "G5",
                    "midi": 79,
                    "time": 241.0713269999985,
                    "velocity": 0.5275590551181102,
                    "duration": 0.5466470000000072
                },
                {
                    "name": "E6",
                    "midi": 88,
                    "time": 241.0713269999985,
                    "velocity": 0.5669291338582677,
                    "duration": 0.5466470000000072
                },
                {
                    "name": "C6",
                    "midi": 84,
                    "time": 241.6179739999985,
                    "velocity": 0.5275590551181102,
                    "duration": 0.5466470000000072
                },
                {
                    "name": "D#6",
                    "midi": 87,
                    "time": 241.6179739999985,
                    "velocity": 0.6062992125984252,
                    "duration": 1.6399409999999932
                },
                {
                    "name": "F5",
                    "midi": 77,
                    "time": 242.1646209999985,
                    "velocity": 0.5275590551181102,
                    "duration": 1.093293999999986
                },
                {
                    "name": "A#5",
                    "midi": 82,
                    "time": 243.2579149999985,
                    "velocity": 0.5275590551181102,
                    "duration": 0.5466470000000072
                },
                {
                    "name": "D6",
                    "midi": 86,
                    "time": 243.2579149999985,
                    "velocity": 0.6062992125984252,
                    "duration": 0.5466470000000072
                },
                {
                    "name": "A#5",
                    "midi": 82,
                    "time": 243.8045619999985,
                    "velocity": 0.5275590551181102,
                    "duration": 0.5466470000000072
                },
                {
                    "name": "C#6",
                    "midi": 85,
                    "time": 243.8045619999985,
                    "velocity": 0.6062992125984252,
                    "duration": 0.5466470000000072
                },
                {
                    "name": "A#4",
                    "midi": 70,
                    "time": 244.3512089999985,
                    "velocity": 0.5275590551181102,
                    "duration": 0.5466470000000072
                },
                {
                    "name": "C#5",
                    "midi": 73,
                    "time": 244.3512089999985,
                    "velocity": 0.6062992125984252,
                    "duration": 0.8199705000000108
                },
                {
                    "name": "A#3",
                    "midi": 58,
                    "time": 244.8978559999985,
                    "velocity": 0.5275590551181102,
                    "duration": 0.5466470000000072
                },
                {
                    "name": "G5",
                    "midi": 79,
                    "time": 245.17117949999852,
                    "velocity": 0.5354330708661418,
                    "duration": 0.2733235000000036
                },
                {
                    "name": "A#5",
                    "midi": 82,
                    "time": 245.44450299999852,
                    "velocity": 0.5590551181102362,
                    "duration": 0.2733235000000036
                },
                {
                    "name": "C#6",
                    "midi": 85,
                    "time": 245.71782649999852,
                    "velocity": 0.5748031496062992,
                    "duration": 0.2733235000000036
                },
                {
                    "name": "E5",
                    "midi": 76,
                    "time": 245.99114999999853,
                    "velocity": 0.5984251968503937,
                    "duration": 0.18221566666667854
                },
                {
                    "name": "C#6",
                    "midi": 85,
                    "time": 245.99114999999853,
                    "velocity": 0.5984251968503937,
                    "duration": 0.5466470000000356
                },
                {
                    "name": "F5",
                    "midi": 77,
                    "time": 246.1733656666652,
                    "velocity": 0.5039370078740157,
                    "duration": 0.18221566666667854
                },
                {
                    "name": "E5",
                    "midi": 76,
                    "time": 246.35558133333188,
                    "velocity": 0.5984251968503937,
                    "duration": 0.18221566666667854
                },
                {
                    "name": "F5",
                    "midi": 77,
                    "time": 246.53779699999856,
                    "velocity": 0.5039370078740157,
                    "duration": 0.18221566666667854
                },
                {
                    "name": "C6",
                    "midi": 84,
                    "time": 246.53779699999856,
                    "velocity": 0.5433070866141733,
                    "duration": 0.2733235000000036
                },
                {
                    "name": "E5",
                    "midi": 76,
                    "time": 246.72001266666524,
                    "velocity": 0.5984251968503937,
                    "duration": 0.18221566666665012
                },
                {
                    "name": "A#5",
                    "midi": 82,
                    "time": 246.81112049999857,
                    "velocity": 0.5433070866141733,
                    "duration": 0.2733235000000036
                },
                {
                    "name": "F5",
                    "midi": 77,
                    "time": 246.9022283333319,
                    "velocity": 0.5039370078740157,
                    "duration": 0.18221566666667854
                },
                {
                    "name": "E5",
                    "midi": 76,
                    "time": 247.08444399999857,
                    "velocity": 0.5984251968503937,
                    "duration": 0.18221566666667854
                },
                {
                    "name": "A5",
                    "midi": 81,
                    "time": 247.08444399999857,
                    "velocity": 0.5669291338582677,
                    "duration": 0.2733235000000036
                },
                {
                    "name": "F5",
                    "midi": 77,
                    "time": 247.26665966666525,
                    "velocity": 0.5039370078740157,
                    "duration": 0.18221566666665012
                },
                {
                    "name": "A#5",
                    "midi": 82,
                    "time": 247.35776749999857,
                    "velocity": 0.5275590551181102,
                    "duration": 0.2733235000000036
                },
                {
                    "name": "E5",
                    "midi": 76,
                    "time": 247.4488753333319,
                    "velocity": 0.5984251968503937,
                    "duration": 0.18221566666667854
                },
                {
                    "name": "F5",
                    "midi": 77,
                    "time": 247.63109099999858,
                    "velocity": 0.5039370078740157,
                    "duration": 0.1366617500000018
                },
                {
                    "name": "C6",
                    "midi": 84,
                    "time": 247.63109099999858,
                    "velocity": 0.5275590551181102,
                    "duration": 0.2733235000000036
                },
                {
                    "name": "E5",
                    "midi": 76,
                    "time": 247.76775274999858,
                    "velocity": 0.44881889763779526,
                    "duration": 0.1366617500000018
                },
                {
                    "name": "D5",
                    "midi": 74,
                    "time": 247.90441449999858,
                    "velocity": 0.44881889763779526,
                    "duration": 0.1366617500000018
                },
                {
                    "name": "A#5",
                    "midi": 82,
                    "time": 247.90441449999858,
                    "velocity": 0.5275590551181102,
                    "duration": 0.2733235000000036
                },
                {
                    "name": "E5",
                    "midi": 76,
                    "time": 248.04107624999858,
                    "velocity": 0.44881889763779526,
                    "duration": 0.1366617500000018
                },
                {
                    "name": "F5",
                    "midi": 77,
                    "time": 248.17773799999858,
                    "velocity": 0.5748031496062992,
                    "duration": 1.0932940000000144
                },
                {
                    "name": "A5",
                    "midi": 81,
                    "time": 248.17773799999858,
                    "velocity": 0.5748031496062992,
                    "duration": 0.2733235000000036
                },
                {
                    "name": "G5",
                    "midi": 79,
                    "time": 248.4510614999986,
                    "velocity": 0.5275590551181102,
                    "duration": 0.2733235000000036
                },
                {
                    "name": "A5",
                    "midi": 81,
                    "time": 248.7243849999986,
                    "velocity": 0.5275590551181102,
                    "duration": 0.2733235000000036
                },
                {
                    "name": "A#5",
                    "midi": 82,
                    "time": 248.9977084999986,
                    "velocity": 0.5275590551181102,
                    "duration": 0.2733235000000036
                },
                {
                    "name": "C6",
                    "midi": 84,
                    "time": 249.2710319999986,
                    "velocity": 0.6062992125984252,
                    "duration": 0.2733235000000036
                },
                {
                    "name": "A#5",
                    "midi": 82,
                    "time": 249.5443554999986,
                    "velocity": 0.5590551181102362,
                    "duration": 0.2733235000000036
                },
                {
                    "name": "A5",
                    "midi": 81,
                    "time": 249.8176789999986,
                    "velocity": 0.5511811023622047,
                    "duration": 0.2733235000000036
                },
                {
                    "name": "G5",
                    "midi": 79,
                    "time": 250.0910024999986,
                    "velocity": 0.5433070866141733,
                    "duration": 0.2733235000000036
                },
                {
                    "name": "F5",
                    "midi": 77,
                    "time": 250.3643259999986,
                    "velocity": 0.5354330708661418,
                    "duration": 0.2733235000000036
                },
                {
                    "name": "G5",
                    "midi": 79,
                    "time": 250.63764949999862,
                    "velocity": 0.5433070866141733,
                    "duration": 0.2733235000000036
                },
                {
                    "name": "F5",
                    "midi": 77,
                    "time": 250.91097299999862,
                    "velocity": 0.5433070866141733,
                    "duration": 0.2733235000000036
                },
                {
                    "name": "D#5",
                    "midi": 75,
                    "time": 251.18429649999862,
                    "velocity": 0.5433070866141733,
                    "duration": 0.2733235000000036
                },
                {
                    "name": "D4",
                    "midi": 62,
                    "time": 251.45761999999863,
                    "velocity": 0.5275590551181102,
                    "duration": 0.5466470000000072
                },
                {
                    "name": "D5",
                    "midi": 74,
                    "time": 251.45761999999863,
                    "velocity": 0.5748031496062992,
                    "duration": 0.2733235000000036
                },
                {
                    "name": "C#6",
                    "midi": 85,
                    "time": 251.73094349999863,
                    "velocity": 0.6456692913385826,
                    "duration": 0.2733235000000036
                },
                {
                    "name": "D6",
                    "midi": 86,
                    "time": 252.00426699999863,
                    "velocity": 0.6692913385826772,
                    "duration": 0.2733235000000036
                },
                {
                    "name": "C#6",
                    "midi": 85,
                    "time": 252.27759049999864,
                    "velocity": 0.6377952755905512,
                    "duration": 0.2733235000000036
                },
                {
                    "name": "F#5",
                    "midi": 78,
                    "time": 252.55091399999864,
                    "velocity": 0.5984251968503937,
                    "duration": 0.18221566666667854
                },
                {
                    "name": "D#6",
                    "midi": 87,
                    "time": 252.55091399999864,
                    "velocity": 0.5984251968503937,
                    "duration": 0.5466470000000356
                },
                {
                    "name": "G5",
                    "midi": 79,
                    "time": 252.73312966666532,
                    "velocity": 0.5039370078740157,
                    "duration": 0.18221566666667854
                },
                {
                    "name": "F#5",
                    "midi": 78,
                    "time": 252.915345333332,
                    "velocity": 0.5984251968503937,
                    "duration": 0.18221566666667854
                },
                {
                    "name": "G5",
                    "midi": 79,
                    "time": 253.09756099999868,
                    "velocity": 0.5039370078740157,
                    "duration": 0.18221566666667854
                },
                {
                    "name": "D6",
                    "midi": 86,
                    "time": 253.09756099999868,
                    "velocity": 0.5433070866141733,
                    "duration": 0.2733235000000036
                },
                {
                    "name": "F#5",
                    "midi": 78,
                    "time": 253.27977666666536,
                    "velocity": 0.5984251968503937,
                    "duration": 0.18221566666665012
                },
                {
                    "name": "C6",
                    "midi": 84,
                    "time": 253.37088449999868,
                    "velocity": 0.5433070866141733,
                    "duration": 0.2733235000000036
                },
                {
                    "name": "G5",
                    "midi": 79,
                    "time": 253.461992333332,
                    "velocity": 0.5039370078740157,
                    "duration": 0.18221566666667854
                },
                {
                    "name": "F#5",
                    "midi": 78,
                    "time": 253.64420799999868,
                    "velocity": 0.5984251968503937,
                    "duration": 0.18221566666667854
                },
                {
                    "name": "B5",
                    "midi": 83,
                    "time": 253.64420799999868,
                    "velocity": 0.5669291338582677,
                    "duration": 0.2733235000000036
                },
                {
                    "name": "G5",
                    "midi": 79,
                    "time": 253.82642366666536,
                    "velocity": 0.5039370078740157,
                    "duration": 0.18221566666665012
                },
                {
                    "name": "C6",
                    "midi": 84,
                    "time": 253.9175314999987,
                    "velocity": 0.5275590551181102,
                    "duration": 0.2733235000000036
                },
                {
                    "name": "F#5",
                    "midi": 78,
                    "time": 254.008639333332,
                    "velocity": 0.5984251968503937,
                    "duration": 0.18221566666667854
                },
                {
                    "name": "G5",
                    "midi": 79,
                    "time": 254.1908549999987,
                    "velocity": 0.5039370078740157,
                    "duration": 0.1366617500000018
                },
                {
                    "name": "D6",
                    "midi": 86,
                    "time": 254.1908549999987,
                    "velocity": 0.5275590551181102,
                    "duration": 0.2733235000000036
                },
                {
                    "name": "F#5",
                    "midi": 78,
                    "time": 254.3275167499987,
                    "velocity": 0.44881889763779526,
                    "duration": 0.1366617500000018
                },
                {
                    "name": "D#5",
                    "midi": 75,
                    "time": 254.4641784999987,
                    "velocity": 0.44881889763779526,
                    "duration": 0.1366617500000018
                },
                {
                    "name": "C6",
                    "midi": 84,
                    "time": 254.4641784999987,
                    "velocity": 0.5275590551181102,
                    "duration": 0.2733235000000036
                },
                {
                    "name": "F#5",
                    "midi": 78,
                    "time": 254.6008402499987,
                    "velocity": 0.44881889763779526,
                    "duration": 0.1366617500000018
                },
                {
                    "name": "G5",
                    "midi": 79,
                    "time": 254.7375019999987,
                    "velocity": 0.5748031496062992,
                    "duration": 1.0932940000000144
                },
                {
                    "name": "B5",
                    "midi": 83,
                    "time": 254.7375019999987,
                    "velocity": 0.5748031496062992,
                    "duration": 0.2733235000000036
                },
                {
                    "name": "A5",
                    "midi": 81,
                    "time": 255.0108254999987,
                    "velocity": 0.5275590551181102,
                    "duration": 0.2733235000000036
                },
                {
                    "name": "B5",
                    "midi": 83,
                    "time": 255.2841489999987,
                    "velocity": 0.5275590551181102,
                    "duration": 0.2733235000000036
                },
                {
                    "name": "C6",
                    "midi": 84,
                    "time": 255.5574724999987,
                    "velocity": 0.5275590551181102,
                    "duration": 0.2733235000000036
                },
                {
                    "name": "D6",
                    "midi": 86,
                    "time": 255.8307959999987,
                    "velocity": 0.6062992125984252,
                    "duration": 0.2733235000000036
                },
                {
                    "name": "C6",
                    "midi": 84,
                    "time": 256.1041194999987,
                    "velocity": 0.5590551181102362,
                    "duration": 0.2733235000000036
                },
                {
                    "name": "B5",
                    "midi": 83,
                    "time": 256.3774429999987,
                    "velocity": 0.5511811023622047,
                    "duration": 0.2733235000000036
                },
                {
                    "name": "G#5",
                    "midi": 80,
                    "time": 256.6507664999987,
                    "velocity": 0.5433070866141733,
                    "duration": 0.2733235000000036
                },
                {
                    "name": "G5",
                    "midi": 79,
                    "time": 256.9240899999987,
                    "velocity": 0.5354330708661418,
                    "duration": 0.2733235000000036
                },
                {
                    "name": "G#5",
                    "midi": 80,
                    "time": 257.19741349999873,
                    "velocity": 0.5433070866141733,
                    "duration": 0.2733235000000036
                },
                {
                    "name": "G5",
                    "midi": 79,
                    "time": 257.47073699999873,
                    "velocity": 0.5433070866141733,
                    "duration": 0.2733235000000036
                },
                {
                    "name": "F5",
                    "midi": 77,
                    "time": 257.74406049999874,
                    "velocity": 0.5433070866141733,
                    "duration": 0.2733235000000036
                },
                {
                    "name": "D#5",
                    "midi": 75,
                    "time": 258.01738399999874,
                    "velocity": 0.5118110236220472,
                    "duration": 0.5466470000000072
                },
                {
                    "name": "G4",
                    "midi": 67,
                    "time": 258.01738399999874,
                    "velocity": 0.5118110236220472,
                    "duration": 0.2733235000000036
                },
                {
                    "name": "B4",
                    "midi": 71,
                    "time": 258.29070749999875,
                    "velocity": 0.5196850393700787,
                    "duration": 0.2733235000000036
                },
                {
                    "name": "C5",
                    "midi": 72,
                    "time": 258.56403099999875,
                    "velocity": 0.5354330708661418,
                    "duration": 0.2733235000000036
                },
                {
                    "name": "C#5",
                    "midi": 73,
                    "time": 258.83735449999875,
                    "velocity": 0.5590551181102362,
                    "duration": 0.2733235000000036
                },
                {
                    "name": "D#5",
                    "midi": 75,
                    "time": 259.11067799999876,
                    "velocity": 0.5826771653543307,
                    "duration": 0.2733235000000036
                },
                {
                    "name": "C#5",
                    "midi": 73,
                    "time": 259.38400149999876,
                    "velocity": 0.5826771653543307,
                    "duration": 0.2733235000000036
                },
                {
                    "name": "C5",
                    "midi": 72,
                    "time": 259.65732499999876,
                    "velocity": 0.5669291338582677,
                    "duration": 0.2733235000000036
                },
                {
                    "name": "A#4",
                    "midi": 70,
                    "time": 259.93064849999877,
                    "velocity": 0.5511811023622047,
                    "duration": 0.2733235000000036
                },
                {
                    "name": "G#4",
                    "midi": 68,
                    "time": 260.20397199999877,
                    "velocity": 0.6141732283464567,
                    "duration": 0.2733235000000036
                },
                {
                    "name": "A#4",
                    "midi": 70,
                    "time": 260.4772954999988,
                    "velocity": 0.5905511811023622,
                    "duration": 0.2733235000000036
                },
                {
                    "name": "G#4",
                    "midi": 68,
                    "time": 260.7506189999988,
                    "velocity": 0.5748031496062992,
                    "duration": 0.2733235000000036
                },
                {
                    "name": "F#4",
                    "midi": 66,
                    "time": 261.0239424999988,
                    "velocity": 0.5511811023622047,
                    "duration": 0.2733235000000036
                },
                {
                    "name": "F4",
                    "midi": 65,
                    "time": 261.2972659999988,
                    "velocity": 0.5984251968503937,
                    "duration": 1.0932940000000144
                },
                {
                    "name": "C#5",
                    "midi": 73,
                    "time": 261.8439129999988,
                    "velocity": 0.5511811023622047,
                    "duration": 0.2733235000000036
                },
                {
                    "name": "D#5",
                    "midi": 75,
                    "time": 262.1172364999988,
                    "velocity": 0.5511811023622047,
                    "duration": 0.2733235000000036
                },
                {
                    "name": "F5",
                    "midi": 77,
                    "time": 262.3905599999988,
                    "velocity": 0.5984251968503937,
                    "duration": 0.2733235000000036
                },
                {
                    "name": "F#5",
                    "midi": 78,
                    "time": 262.6638834999988,
                    "velocity": 0.5826771653543307,
                    "duration": 0.2733235000000036
                },
                {
                    "name": "F5",
                    "midi": 77,
                    "time": 262.9372069999988,
                    "velocity": 0.5590551181102362,
                    "duration": 0.2733235000000036
                },
                {
                    "name": "D#5",
                    "midi": 75,
                    "time": 263.2105304999988,
                    "velocity": 0.5590551181102362,
                    "duration": 0.2733235000000036
                },
                {
                    "name": "C#5",
                    "midi": 73,
                    "time": 263.4838539999988,
                    "velocity": 0.5669291338582677,
                    "duration": 0.2733235000000036
                },
                {
                    "name": "C5",
                    "midi": 72,
                    "time": 263.7571774999988,
                    "velocity": 0.5590551181102362,
                    "duration": 0.2733235000000036
                },
                {
                    "name": "A#4",
                    "midi": 70,
                    "time": 264.0305009999988,
                    "velocity": 0.5433070866141733,
                    "duration": 0.2733235000000036
                },
                {
                    "name": "G#4",
                    "midi": 68,
                    "time": 264.3038244999988,
                    "velocity": 0.5354330708661418,
                    "duration": 0.2733235000000036
                },
                {
                    "name": "C#5",
                    "midi": 73,
                    "time": 264.57714799999883,
                    "velocity": 0.6220472440944882,
                    "duration": 1.366617500000018
                },
                {
                    "name": "C#4",
                    "midi": 61,
                    "time": 264.57714799999883,
                    "velocity": 0.6220472440944882,
                    "duration": 0.2733235000000036
                },
                {
                    "name": "D#4",
                    "midi": 63,
                    "time": 264.85047149999883,
                    "velocity": 0.5433070866141733,
                    "duration": 0.2733235000000036
                },
                {
                    "name": "E4",
                    "midi": 64,
                    "time": 265.12379499999884,
                    "velocity": 0.5433070866141733,
                    "duration": 0.2733235000000036
                },
                {
                    "name": "F4",
                    "midi": 65,
                    "time": 265.39711849999884,
                    "velocity": 0.5433070866141733,
                    "duration": 0.2733235000000036
                },
                {
                    "name": "F#4",
                    "midi": 66,
                    "time": 265.67044199999884,
                    "velocity": 0.5826771653543307,
                    "duration": 1.0932940000000144
                },
                {
                    "name": "D#5",
                    "midi": 75,
                    "time": 265.94376549999885,
                    "velocity": 0.5826771653543307,
                    "duration": 0.2733235000000036
                },
                {
                    "name": "C#5",
                    "midi": 73,
                    "time": 266.21708899999885,
                    "velocity": 0.5433070866141733,
                    "duration": 0.2733235000000036
                },
                {
                    "name": "C5",
                    "midi": 72,
                    "time": 266.49041249999885,
                    "velocity": 0.5433070866141733,
                    "duration": 0.2733235000000036
                },
                {
                    "name": "A#4",
                    "midi": 70,
                    "time": 266.76373599999886,
                    "velocity": 0.5354330708661418,
                    "duration": 0.2733235000000036
                },
                {
                    "name": "G#4",
                    "midi": 68,
                    "time": 267.03705949999886,
                    "velocity": 0.5275590551181102,
                    "duration": 0.2733235000000036
                },
                {
                    "name": "F#4",
                    "midi": 66,
                    "time": 267.31038299999886,
                    "velocity": 0.5196850393700787,
                    "duration": 0.2733235000000036
                },
                {
                    "name": "F4",
                    "midi": 65,
                    "time": 267.58370649999887,
                    "velocity": 0.5196850393700787,
                    "duration": 0.2733235000000036
                },
                {
                    "name": "A#4",
                    "midi": 70,
                    "time": 267.8570299999989,
                    "velocity": 0.5826771653543307,
                    "duration": 1.9132645000000252
                },
                {
                    "name": "A#3",
                    "midi": 58,
                    "time": 267.8570299999989,
                    "velocity": 0.5826771653543307,
                    "duration": 0.2733235000000036
                },
                {
                    "name": "C4",
                    "midi": 60,
                    "time": 268.1303534999989,
                    "velocity": 0.5354330708661418,
                    "duration": 0.2733235000000036
                },
                {
                    "name": "C#4",
                    "midi": 61,
                    "time": 268.4036769999989,
                    "velocity": 0.5433070866141733,
                    "duration": 0.2733235000000036
                },
                {
                    "name": "D4",
                    "midi": 62,
                    "time": 268.6770004999989,
                    "velocity": 0.5511811023622047,
                    "duration": 0.2733235000000036
                },
                {
                    "name": "D#4",
                    "midi": 63,
                    "time": 268.9503239999989,
                    "velocity": 0.5590551181102362,
                    "duration": 0.2733235000000036
                },
                {
                    "name": "D4",
                    "midi": 62,
                    "time": 269.2236474999989,
                    "velocity": 0.5275590551181102,
                    "duration": 0.2733235000000036
                },
                {
                    "name": "D#4",
                    "midi": 63,
                    "time": 269.4969709999989,
                    "velocity": 0.5275590551181102,
                    "duration": 0.2733235000000036
                },
                {
                    "name": "F4",
                    "midi": 65,
                    "time": 269.7702944999989,
                    "velocity": 0.5275590551181102,
                    "duration": 0.2733235000000036
                },
                {
                    "name": "F#4",
                    "midi": 66,
                    "time": 270.0436179999989,
                    "velocity": 0.5826771653543307,
                    "duration": 0.5466470000000072
                },
                {
                    "name": "G4",
                    "midi": 67,
                    "time": 270.5902649999989,
                    "velocity": 0.5511811023622047,
                    "duration": 0.5466470000000072
                },
                {
                    "name": "A#4",
                    "midi": 70,
                    "time": 270.5902649999989,
                    "velocity": 0.6299212598425197,
                    "duration": 0.5466470000000072
                },
                {
                    "name": "G#4",
                    "midi": 68,
                    "time": 271.1369119999989,
                    "velocity": 0.5669291338582677,
                    "duration": 0.5466470000000072
                },
                {
                    "name": "C5",
                    "midi": 72,
                    "time": 271.1369119999989,
                    "velocity": 0.6456692913385826,
                    "duration": 0.5466470000000072
                },
                {
                    "name": "C#5",
                    "midi": 73,
                    "time": 271.6835589999989,
                    "velocity": 0.6535433070866141,
                    "duration": 0.5466470000000072
                },
                {
                    "name": "F#4",
                    "midi": 66,
                    "time": 272.23020599999893,
                    "velocity": 0.6220472440944882,
                    "duration": 1.6399410000000216
                },
                {
                    "name": "D#5",
                    "midi": 75,
                    "time": 272.23020599999893,
                    "velocity": 0.7086614173228346,
                    "duration": 1.6399410000000216
                },
                {
                    "name": "F#4",
                    "midi": 66,
                    "time": 273.87014699999895,
                    "velocity": 0.5511811023622047,
                    "duration": 0.5466470000000072
                },
                {
                    "name": "D#5",
                    "midi": 75,
                    "time": 273.87014699999895,
                    "velocity": 0.6299212598425197,
                    "duration": 0.5466470000000072
                },
                {
                    "name": "F#4",
                    "midi": 66,
                    "time": 274.41679399999896,
                    "velocity": 0.5826771653543307,
                    "duration": 0.5466470000000072
                },
                {
                    "name": "D#5",
                    "midi": 75,
                    "time": 274.41679399999896,
                    "velocity": 0.6692913385826772,
                    "duration": 0.5466470000000072
                },
                {
                    "name": "F4",
                    "midi": 65,
                    "time": 274.96344099999897,
                    "velocity": 0.5511811023622047,
                    "duration": 0.5466470000000072
                },
                {
                    "name": "C#5",
                    "midi": 73,
                    "time": 274.96344099999897,
                    "velocity": 0.6299212598425197,
                    "duration": 0.5466470000000072
                },
                {
                    "name": "D#4",
                    "midi": 63,
                    "time": 275.510087999999,
                    "velocity": 0.5748031496062992,
                    "duration": 0.5466470000000072
                },
                {
                    "name": "C5",
                    "midi": 72,
                    "time": 275.510087999999,
                    "velocity": 0.6535433070866141,
                    "duration": 0.5466470000000072
                },
                {
                    "name": "C#4",
                    "midi": 61,
                    "time": 276.056734999999,
                    "velocity": 0.5511811023622047,
                    "duration": 0.5466470000000072
                },
                {
                    "name": "C#5",
                    "midi": 73,
                    "time": 276.056734999999,
                    "velocity": 0.6299212598425197,
                    "duration": 0.5466470000000072
                },
                {
                    "name": "C4",
                    "midi": 60,
                    "time": 276.603381999999,
                    "velocity": 0.5511811023622047,
                    "duration": 0.5466470000000072
                },
                {
                    "name": "D#4",
                    "midi": 63,
                    "time": 276.603381999999,
                    "velocity": 0.5511811023622047,
                    "duration": 0.5466470000000072
                },
                {
                    "name": "F4",
                    "midi": 65,
                    "time": 277.150028999999,
                    "velocity": 0.5275590551181102,
                    "duration": 0.2733235000000036
                },
                {
                    "name": "C#4",
                    "midi": 61,
                    "time": 277.150028999999,
                    "velocity": 0.5275590551181102,
                    "duration": 0.5466470000000072
                },
                {
                    "name": "F#4",
                    "midi": 66,
                    "time": 277.423352499999,
                    "velocity": 0.5354330708661418,
                    "duration": 0.2733235000000036
                },
                {
                    "name": "G#4",
                    "midi": 68,
                    "time": 277.696675999999,
                    "velocity": 0.5511811023622047,
                    "duration": 0.2733235000000036
                },
                {
                    "name": "C4",
                    "midi": 60,
                    "time": 277.696675999999,
                    "velocity": 0.5511811023622047,
                    "duration": 0.5466470000000072
                },
                {
                    "name": "A#4",
                    "midi": 70,
                    "time": 277.969999499999,
                    "velocity": 0.5590551181102362,
                    "duration": 0.2733235000000036
                },
                {
                    "name": "C5",
                    "midi": 72,
                    "time": 278.243322999999,
                    "velocity": 0.5669291338582677,
                    "duration": 0.2733235000000036
                },
                {
                    "name": "D#4",
                    "midi": 63,
                    "time": 278.243322999999,
                    "velocity": 0.5669291338582677,
                    "duration": 0.5466470000000072
                },
                {
                    "name": "C#5",
                    "midi": 73,
                    "time": 278.516646499999,
                    "velocity": 0.5826771653543307,
                    "duration": 0.2733235000000036
                },
                {
                    "name": "D5",
                    "midi": 74,
                    "time": 278.789969999999,
                    "velocity": 0.5905511811023622,
                    "duration": 0.2733235000000036
                },
                {
                    "name": "D#5",
                    "midi": 75,
                    "time": 279.063293499999,
                    "velocity": 0.6062992125984252,
                    "duration": 0.2733235000000036
                },
                {
                    "name": "F5",
                    "midi": 77,
                    "time": 279.336616999999,
                    "velocity": 0.6220472440944882,
                    "duration": 0.2733235000000036
                },
                {
                    "name": "D#5",
                    "midi": 75,
                    "time": 279.609940499999,
                    "velocity": 0.5984251968503937,
                    "duration": 0.2733235000000036
                },
                {
                    "name": "C#5",
                    "midi": 73,
                    "time": 279.88326399999903,
                    "velocity": 0.5826771653543307,
                    "duration": 0.2733235000000036
                },
                {
                    "name": "C5",
                    "midi": 72,
                    "time": 280.15658749999903,
                    "velocity": 0.5748031496062992,
                    "duration": 0.2733235000000036
                },
                {
                    "name": "A#4",
                    "midi": 70,
                    "time": 280.42991099999904,
                    "velocity": 0.5669291338582677,
                    "duration": 0.2733235000000036
                },
                {
                    "name": "G#4",
                    "midi": 68,
                    "time": 280.70323449999904,
                    "velocity": 0.5590551181102362,
                    "duration": 0.2733235000000036
                },
                {
                    "name": "C#5",
                    "midi": 73,
                    "time": 280.97655799999905,
                    "velocity": 0.5669291338582677,
                    "duration": 0.2733235000000036
                },
                {
                    "name": "D#5",
                    "midi": 75,
                    "time": 281.24988149999905,
                    "velocity": 0.5748031496062992,
                    "duration": 0.2733235000000036
                },
                {
                    "name": "F5",
                    "midi": 77,
                    "time": 281.52320499999905,
                    "velocity": 0.5905511811023622,
                    "duration": 0.2733235000000036
                },
                {
                    "name": "F#5",
                    "midi": 78,
                    "time": 281.79652849999906,
                    "velocity": 0.6062992125984252,
                    "duration": 0.2733235000000036
                },
                {
                    "name": "G5",
                    "midi": 79,
                    "time": 282.06985199999906,
                    "velocity": 0.6141732283464567,
                    "duration": 0.2733235000000036
                },
                {
                    "name": "G#5",
                    "midi": 80,
                    "time": 282.34317549999906,
                    "velocity": 0.5984251968503937,
                    "duration": 0.2733235000000036
                },
                {
                    "name": "A#5",
                    "midi": 82,
                    "time": 282.61649899999907,
                    "velocity": 0.6377952755905512,
                    "duration": 0.2733235000000036
                },
                {
                    "name": "G#5",
                    "midi": 80,
                    "time": 282.88982249999907,
                    "velocity": 0.5748031496062992,
                    "duration": 0.2733235000000036
                },
                {
                    "name": "F#5",
                    "midi": 78,
                    "time": 283.1631459999991,
                    "velocity": 0.6220472440944882,
                    "duration": 0.2733235000000036
                },
                {
                    "name": "F5",
                    "midi": 77,
                    "time": 283.4364694999991,
                    "velocity": 0.6141732283464567,
                    "duration": 0.2733235000000036
                },
                {
                    "name": "D#5",
                    "midi": 75,
                    "time": 283.7097929999991,
                    "velocity": 0.5984251968503937,
                    "duration": 0.2733235000000036
                },
                {
                    "name": "C#5",
                    "midi": 73,
                    "time": 283.9831164999991,
                    "velocity": 0.5905511811023622,
                    "duration": 0.2733235000000036
                },
                {
                    "name": "C4",
                    "midi": 60,
                    "time": 284.2564399999991,
                    "velocity": 0.5511811023622047,
                    "duration": 0.2733235000000036
                },
                {
                    "name": "G#4",
                    "midi": 68,
                    "time": 284.2564399999991,
                    "velocity": 0.6299212598425197,
                    "duration": 0.5466470000000072
                },
                {
                    "name": "C#4",
                    "midi": 61,
                    "time": 284.5297634999991,
                    "velocity": 0.49606299212598426,
                    "duration": 0.2733235000000036
                },
                {
                    "name": "C4",
                    "midi": 60,
                    "time": 284.8030869999991,
                    "velocity": 0.49606299212598426,
                    "duration": 0.2733235000000036
                },
                {
                    "name": "A#3",
                    "midi": 58,
                    "time": 285.0764104999991,
                    "velocity": 0.5118110236220472,
                    "duration": 0.2733235000000036
                },
                {
                    "name": "F#4",
                    "midi": 66,
                    "time": 285.3497339999991,
                    "velocity": 0.6299212598425197,
                    "duration": 1.6399410000000216
                },
                {
                    "name": "G#3",
                    "midi": 56,
                    "time": 285.3497339999991,
                    "velocity": 0.5354330708661418,
                    "duration": 0.2733235000000036
                },
                {
                    "name": "A#3",
                    "midi": 58,
                    "time": 285.6230574999991,
                    "velocity": 0.4566929133858268,
                    "duration": 0.2733235000000036
                },
                {
                    "name": "C4",
                    "midi": 60,
                    "time": 285.8963809999991,
                    "velocity": 0.4566929133858268,
                    "duration": 0.2733235000000036
                },
                {
                    "name": "C#4",
                    "midi": 61,
                    "time": 286.1697044999991,
                    "velocity": 0.4566929133858268,
                    "duration": 0.2733235000000036
                },
                {
                    "name": "D4",
                    "midi": 62,
                    "time": 286.4430279999991,
                    "velocity": 0.5039370078740157,
                    "duration": 0.2733235000000036
                },
                {
                    "name": "D#4",
                    "midi": 63,
                    "time": 286.7163514999991,
                    "velocity": 0.4566929133858268,
                    "duration": 0.2733235000000036
                },
                {
                    "name": "F4",
                    "midi": 65,
                    "time": 286.9896749999991,
                    "velocity": 0.6299212598425197,
                    "duration": 0.5466470000000072
                },
                {
                    "name": "C4",
                    "midi": 60,
                    "time": 286.9896749999991,
                    "velocity": 0.4566929133858268,
                    "duration": 0.2733235000000036
                },
                {
                    "name": "C#4",
                    "midi": 61,
                    "time": 287.2629984999991,
                    "velocity": 0.4566929133858268,
                    "duration": 0.2733235000000036
                },
                {
                    "name": "A#4",
                    "midi": 70,
                    "time": 287.53632199999913,
                    "velocity": 0.6299212598425197,
                    "duration": 1.0932940000000144
                },
                {
                    "name": "E4",
                    "midi": 64,
                    "time": 287.53632199999913,
                    "velocity": 0.5039370078740157,
                    "duration": 0.2733235000000036
                },
                {
                    "name": "F4",
                    "midi": 65,
                    "time": 287.80964549999914,
                    "velocity": 0.4566929133858268,
                    "duration": 0.2733235000000036
                },
                {
                    "name": "F#4",
                    "midi": 66,
                    "time": 288.08296899999914,
                    "velocity": 0.4566929133858268,
                    "duration": 0.2733235000000036
                },
                {
                    "name": "F4",
                    "midi": 65,
                    "time": 288.35629249999914,
                    "velocity": 0.4566929133858268,
                    "duration": 0.2733235000000036
                },
                {
                    "name": "D4",
                    "midi": 62,
                    "time": 288.62961599999915,
                    "velocity": 0.5354330708661418,
                    "duration": 0.2733235000000036
                },
                {
                    "name": "D#4",
                    "midi": 63,
                    "time": 288.90293949999915,
                    "velocity": 0.44881889763779526,
                    "duration": 0.2733235000000036
                },
                {
                    "name": "G4",
                    "midi": 67,
                    "time": 289.17626299999915,
                    "velocity": 0.44881889763779526,
                    "duration": 0.2733235000000036
                },
                {
                    "name": "G#4",
                    "midi": 68,
                    "time": 289.44958649999916,
                    "velocity": 0.44881889763779526,
                    "duration": 0.2733235000000036
                },
                {
                    "name": "F#4",
                    "midi": 66,
                    "time": 289.72290999999916,
                    "velocity": 0.5118110236220472,
                    "duration": 0.2733235000000036
                },
                {
                    "name": "G4",
                    "midi": 67,
                    "time": 289.99623349999916,
                    "velocity": 0.4566929133858268,
                    "duration": 0.2733235000000036
                },
                {
                    "name": "G#4",
                    "midi": 68,
                    "time": 290.26955699999917,
                    "velocity": 0.4566929133858268,
                    "duration": 0.2733235000000036
                },
                {
                    "name": "G4",
                    "midi": 67,
                    "time": 290.54288049999917,
                    "velocity": 0.4566929133858268,
                    "duration": 0.2733235000000036
                },
                {
                    "name": "C#5",
                    "midi": 73,
                    "time": 290.8162039999992,
                    "velocity": 0.5511811023622047,
                    "duration": 0.5466470000000072
                },
                {
                    "name": "A4",
                    "midi": 69,
                    "time": 290.8162039999992,
                    "velocity": 0.5196850393700787,
                    "duration": 0.2733235000000036
                },
                {
                    "name": "A#4",
                    "midi": 70,
                    "time": 291.0895274999992,
                    "velocity": 0.48031496062992124,
                    "duration": 0.2733235000000036
                },
                {
                    "name": "C5",
                    "midi": 72,
                    "time": 291.3628509999992,
                    "velocity": 0.5511811023622047,
                    "duration": 0.2733235000000036
                },
                {
                    "name": "A#4",
                    "midi": 70,
                    "time": 291.6361744999992,
                    "velocity": 0.48031496062992124,
                    "duration": 0.2733235000000036
                },
                {
                    "name": "C5",
                    "midi": 72,
                    "time": 291.9094979999992,
                    "velocity": 0.6299212598425197,
                    "duration": 1.6399410000000216
                },
                {
                    "name": "G4",
                    "midi": 67,
                    "time": 291.9094979999992,
                    "velocity": 0.5354330708661418,
                    "duration": 0.2733235000000036
                },
                {
                    "name": "G#4",
                    "midi": 68,
                    "time": 292.1828214999992,
                    "velocity": 0.47244094488188976,
                    "duration": 0.2733235000000036
                },
                {
                    "name": "A#4",
                    "midi": 70,
                    "time": 292.4561449999992,
                    "velocity": 0.47244094488188976,
                    "duration": 0.2733235000000036
                },
                {
                    "name": "G#4",
                    "midi": 68,
                    "time": 292.7294684999992,
                    "velocity": 0.47244094488188976,
                    "duration": 0.2733235000000036
                },
                {
                    "name": "F#4",
                    "midi": 66,
                    "time": 293.0027919999992,
                    "velocity": 0.5196850393700787,
                    "duration": 0.2733235000000036
                },
                {
                    "name": "G4",
                    "midi": 67,
                    "time": 293.2761154999992,
                    "velocity": 0.48031496062992124,
                    "duration": 0.2733235000000036
                },
                {
                    "name": "A#4",
                    "midi": 70,
                    "time": 293.5494389999992,
                    "velocity": 0.6299212598425197,
                    "duration": 0.5466470000000072
                },
                {
                    "name": "G#4",
                    "midi": 68,
                    "time": 293.5494389999992,
                    "velocity": 0.48031496062992124,
                    "duration": 0.2733235000000036
                },
                {
                    "name": "G4",
                    "midi": 67,
                    "time": 293.8227624999992,
                    "velocity": 0.48031496062992124,
                    "duration": 0.2733235000000036
                },
                {
                    "name": "D#5",
                    "midi": 75,
                    "time": 294.0960859999992,
                    "velocity": 0.6299212598425197,
                    "duration": 1.0932940000000144
                },
                {
                    "name": "A4",
                    "midi": 69,
                    "time": 294.0960859999992,
                    "velocity": 0.5354330708661418,
                    "duration": 0.2733235000000036
                },
                {
                    "name": "A#4",
                    "midi": 70,
                    "time": 294.3694094999992,
                    "velocity": 0.4881889763779528,
                    "duration": 0.2733235000000036
                },
                {
                    "name": "C5",
                    "midi": 72,
                    "time": 294.6427329999992,
                    "velocity": 0.4881889763779528,
                    "duration": 0.2733235000000036
                },
                {
                    "name": "A#4",
                    "midi": 70,
                    "time": 294.91605649999923,
                    "velocity": 0.4881889763779528,
                    "duration": 0.2733235000000036
                },
                {
                    "name": "G#4",
                    "midi": 68,
                    "time": 295.18937999999923,
                    "velocity": 0.5354330708661418,
                    "duration": 0.2733235000000036
                },
                {
                    "name": "A#4",
                    "midi": 70,
                    "time": 295.46270349999924,
                    "velocity": 0.48031496062992124,
                    "duration": 0.2733235000000036
                },
                {
                    "name": "C5",
                    "midi": 72,
                    "time": 295.73602699999924,
                    "velocity": 0.48031496062992124,
                    "duration": 0.2733235000000036
                },
                {
                    "name": "C#5",
                    "midi": 73,
                    "time": 296.00935049999924,
                    "velocity": 0.48031496062992124,
                    "duration": 0.2733235000000036
                },
                {
                    "name": "C5",
                    "midi": 72,
                    "time": 296.28267399999925,
                    "velocity": 0.5354330708661418,
                    "duration": 0.2733235000000036
                },
                {
                    "name": "C#5",
                    "midi": 73,
                    "time": 296.55599749999925,
                    "velocity": 0.49606299212598426,
                    "duration": 0.2733235000000036
                },
                {
                    "name": "B4",
                    "midi": 71,
                    "time": 296.82932099999925,
                    "velocity": 0.49606299212598426,
                    "duration": 0.2733235000000036
                },
                {
                    "name": "C5",
                    "midi": 72,
                    "time": 297.10264449999926,
                    "velocity": 0.49606299212598426,
                    "duration": 0.2733235000000036
                },
                {
                    "name": "F5",
                    "midi": 77,
                    "time": 297.37596799999926,
                    "velocity": 0.6299212598425197,
                    "duration": 0.5466470000000072
                },
                {
                    "name": "B4",
                    "midi": 71,
                    "time": 297.37596799999926,
                    "velocity": 0.5354330708661418,
                    "duration": 0.2733235000000036
                },
                {
                    "name": "C5",
                    "midi": 72,
                    "time": 297.64929149999926,
                    "velocity": 0.4881889763779528,
                    "duration": 0.2733235000000036
                },
                {
                    "name": "C#5",
                    "midi": 73,
                    "time": 297.92261499999927,
                    "velocity": 0.4881889763779528,
                    "duration": 0.2733235000000036
                },
                {
                    "name": "C5",
                    "midi": 72,
                    "time": 298.1959384999993,
                    "velocity": 0.4881889763779528,
                    "duration": 0.2733235000000036
                },
                {
                    "name": "F5",
                    "midi": 77,
                    "time": 298.4692619999993,
                    "velocity": 0.6299212598425197,
                    "duration": 0.2733235000000036
                },
                {
                    "name": "A4",
                    "midi": 69,
                    "time": 298.4692619999993,
                    "velocity": 0.5354330708661418,
                    "duration": 0.2733235000000036
                },
                {
                    "name": "A#4",
                    "midi": 70,
                    "time": 298.7425854999993,
                    "velocity": 0.49606299212598426,
                    "duration": 0.2733235000000036
                },
                {
                    "name": "D#5",
                    "midi": 75,
                    "time": 299.0159089999993,
                    "velocity": 0.6299212598425197,
                    "duration": 0.2733235000000036
                },
                {
                    "name": "C5",
                    "midi": 72,
                    "time": 299.0159089999993,
                    "velocity": 0.49606299212598426,
                    "duration": 0.2733235000000036
                },
                {
                    "name": "A#4",
                    "midi": 70,
                    "time": 299.2892324999993,
                    "velocity": 0.49606299212598426,
                    "duration": 0.2733235000000036
                },
                {
                    "name": "D4",
                    "midi": 62,
                    "time": 299.5625559999993,
                    "velocity": 0.5354330708661418,
                    "duration": 0.2733235000000036
                },
                {
                    "name": "D#4",
                    "midi": 63,
                    "time": 299.8358794999993,
                    "velocity": 0.49606299212598426,
                    "duration": 0.2733235000000036
                },
                {
                    "name": "F4",
                    "midi": 65,
                    "time": 300.1092029999993,
                    "velocity": 0.49606299212598426,
                    "duration": 0.2733235000000036
                },
                {
                    "name": "D#4",
                    "midi": 63,
                    "time": 300.3825264999993,
                    "velocity": 0.49606299212598426,
                    "duration": 0.2733235000000036
                },
                {
                    "name": "C#5",
                    "midi": 73,
                    "time": 300.6558499999993,
                    "velocity": 0.6299212598425197,
                    "duration": 0.5466470000000072
                },
                {
                    "name": "G4",
                    "midi": 67,
                    "time": 300.6558499999993,
                    "velocity": 0.5354330708661418,
                    "duration": 0.2733235000000036
                },
                {
                    "name": "G#4",
                    "midi": 68,
                    "time": 300.9291734999993,
                    "velocity": 0.48031496062992124,
                    "duration": 0.2733235000000036
                },
                {
                    "name": "A#4",
                    "midi": 70,
                    "time": 301.2024969999993,
                    "velocity": 0.48031496062992124,
                    "duration": 0.2733235000000036
                },
                {
                    "name": "G#4",
                    "midi": 68,
                    "time": 301.4758204999993,
                    "velocity": 0.48031496062992124,
                    "duration": 0.2733235000000036
                },
                {
                    "name": "C#5",
                    "midi": 73,
                    "time": 301.7491439999993,
                    "velocity": 0.6299212598425197,
                    "duration": 0.5466470000000072
                },
                {
                    "name": "G4",
                    "midi": 67,
                    "time": 301.7491439999993,
                    "velocity": 0.5354330708661418,
                    "duration": 0.2733235000000036
                },
                {
                    "name": "G#4",
                    "midi": 68,
                    "time": 302.0224674999993,
                    "velocity": 0.49606299212598426,
                    "duration": 0.2733235000000036
                },
                {
                    "name": "C5",
                    "midi": 72,
                    "time": 302.2957909999993,
                    "velocity": 0.6299212598425197,
                    "duration": 0.5466470000000072
                },
                {
                    "name": "A#4",
                    "midi": 70,
                    "time": 302.2957909999993,
                    "velocity": 0.49606299212598426,
                    "duration": 0.2733235000000036
                },
                {
                    "name": "G#4",
                    "midi": 68,
                    "time": 302.56911449999933,
                    "velocity": 0.49606299212598426,
                    "duration": 0.2733235000000036
                },
                {
                    "name": "G4",
                    "midi": 67,
                    "time": 302.84243799999933,
                    "velocity": 0.5354330708661418,
                    "duration": 0.2733235000000036
                },
                {
                    "name": "G#4",
                    "midi": 68,
                    "time": 303.11576149999934,
                    "velocity": 0.4881889763779528,
                    "duration": 0.2733235000000036
                },
                {
                    "name": "C#5",
                    "midi": 73,
                    "time": 303.38908499999934,
                    "velocity": 0.6299212598425197,
                    "duration": 0.2733235000000036
                },
                {
                    "name": "A#4",
                    "midi": 70,
                    "time": 303.38908499999934,
                    "velocity": 0.4881889763779528,
                    "duration": 0.2733235000000036
                },
                {
                    "name": "B4",
                    "midi": 71,
                    "time": 303.66240849999934,
                    "velocity": 0.4881889763779528,
                    "duration": 0.2733235000000036
                },
                {
                    "name": "G6",
                    "midi": 91,
                    "time": 303.93573199999935,
                    "velocity": 0.5905511811023622,
                    "duration": 0.18221566666665012
                },
                {
                    "name": "C5",
                    "midi": 72,
                    "time": 303.93573199999935,
                    "velocity": 0.5354330708661418,
                    "duration": 0.2733235000000036
                },
                {
                    "name": "G#6",
                    "midi": 92,
                    "time": 304.117947666666,
                    "velocity": 0.47244094488188976,
                    "duration": 0.18221566666670697
                },
                {
                    "name": "A#4",
                    "midi": 70,
                    "time": 304.20905549999935,
                    "velocity": 0.5354330708661418,
                    "duration": 0.2733235000000036
                },
                {
                    "name": "G6",
                    "midi": 91,
                    "time": 304.3001633333327,
                    "velocity": 0.5354330708661418,
                    "duration": 0.17082718749998094
                },
                {
                    "name": "G#6",
                    "midi": 92,
                    "time": 304.48237899999936,
                    "velocity": 0.47244094488188976,
                    "duration": 0.18221566666665012
                },
                {
                    "name": "A4",
                    "midi": 69,
                    "time": 304.48237899999936,
                    "velocity": 0.48031496062992124,
                    "duration": 0.2733235000000036
                },
                {
                    "name": "G6",
                    "midi": 91,
                    "time": 304.664594666666,
                    "velocity": 0.5905511811023622,
                    "duration": 0.18221566666670697
                },
                {
                    "name": "A#4",
                    "midi": 70,
                    "time": 304.75570249999936,
                    "velocity": 0.48031496062992124,
                    "duration": 0.25054654166666523
                },
                {
                    "name": "G#6",
                    "midi": 92,
                    "time": 304.8468103333327,
                    "velocity": 0.47244094488188976,
                    "duration": 0.18221566666665012
                },
                {
                    "name": "G6",
                    "midi": 91,
                    "time": 305.02902599999936,
                    "velocity": 0.5905511811023622,
                    "duration": 0.18221566666665012
                },
                {
                    "name": "A#4",
                    "midi": 70,
                    "time": 305.02902599999936,
                    "velocity": 0.5354330708661418,
                    "duration": 0.2733235000000036
                },
                {
                    "name": "G#6",
                    "midi": 92,
                    "time": 305.211241666666,
                    "velocity": 0.47244094488188976,
                    "duration": 0.18221566666670697
                },
                {
                    "name": "G#4",
                    "midi": 68,
                    "time": 305.30234949999937,
                    "velocity": 0.4566929133858268,
                    "duration": 0.2733235000000036
                },
                {
                    "name": "G6",
                    "midi": 91,
                    "time": 305.3934573333327,
                    "velocity": 0.5905511811023622,
                    "duration": 0.18221566666665012
                },
                {
                    "name": "G#6",
                    "midi": 92,
                    "time": 305.57567299999937,
                    "velocity": 0.47244094488188976,
                    "duration": 0.13666174999997338
                },
                {
                    "name": "D#4",
                    "midi": 63,
                    "time": 305.57567299999937,
                    "velocity": 0.5118110236220472,
                    "duration": 0.27332349999994676
                },
                {
                    "name": "G6",
                    "midi": 91,
                    "time": 305.71233474999934,
                    "velocity": 0.5905511811023622,
                    "duration": 0.13666174999997338
                },
                {
                    "name": "F6",
                    "midi": 89,
                    "time": 305.8489964999993,
                    "velocity": 0.47244094488188976,
                    "duration": 0.13666174999997338
                },
                {
                    "name": "G#4",
                    "midi": 68,
                    "time": 305.8489964999993,
                    "velocity": 0.47244094488188976,
                    "duration": 0.27332349999994676
                },
                {
                    "name": "G6",
                    "midi": 91,
                    "time": 305.9856582499993,
                    "velocity": 0.47244094488188976,
                    "duration": 0.13666174999997338
                },
                {
                    "name": "G#6",
                    "midi": 92,
                    "time": 306.12231999999926,
                    "velocity": 0.5905511811023622,
                    "duration": 1.0932940000000144
                },
                {
                    "name": "G4",
                    "midi": 67,
                    "time": 307.7622609999993,
                    "velocity": 0.5196850393700787,
                    "duration": 0.2733235000000036
                },
                {
                    "name": "G#6",
                    "midi": 92,
                    "time": 307.7622609999993,
                    "velocity": 0.5275590551181102,
                    "duration": 0.2733235000000036
                },
                {
                    "name": "G6",
                    "midi": 91,
                    "time": 308.0355844999993,
                    "velocity": 0.4881889763779528,
                    "duration": 0.2733235000000036
                },
                {
                    "name": "G#4",
                    "midi": 68,
                    "time": 308.3089079999993,
                    "velocity": 0.5826771653543307,
                    "duration": 1.0932940000000144
                },
                {
                    "name": "F6",
                    "midi": 89,
                    "time": 308.3089079999993,
                    "velocity": 0.5433070866141733,
                    "duration": 0.2733235000000036
                },
                {
                    "name": "D#6",
                    "midi": 87,
                    "time": 308.5822314999993,
                    "velocity": 0.47244094488188976,
                    "duration": 0.2733235000000036
                },
                {
                    "name": "C#6",
                    "midi": 85,
                    "time": 308.8555549999993,
                    "velocity": 0.47244094488188976,
                    "duration": 0.2733235000000036
                },
                {
                    "name": "C6",
                    "midi": 84,
                    "time": 309.1288784999993,
                    "velocity": 0.47244094488188976,
                    "duration": 0.2733235000000036
                },
                {
                    "name": "F6",
                    "midi": 89,
                    "time": 309.4022019999993,
                    "velocity": 0.5354330708661418,
                    "duration": 1.0932940000000144
                },
                {
                    "name": "E4",
                    "midi": 64,
                    "time": 311.0421429999993,
                    "velocity": 0.5196850393700787,
                    "duration": 0.2733235000000036
                },
                {
                    "name": "F6",
                    "midi": 89,
                    "time": 311.0421429999993,
                    "velocity": 0.5275590551181102,
                    "duration": 0.2733235000000036
                },
                {
                    "name": "D#6",
                    "midi": 87,
                    "time": 311.31546649999933,
                    "velocity": 0.4881889763779528,
                    "duration": 0.2733235000000036
                },
                {
                    "name": "F4",
                    "midi": 65,
                    "time": 311.58878999999934,
                    "velocity": 0.5826771653543307,
                    "duration": 1.0932940000000144
                },
                {
                    "name": "C#6",
                    "midi": 85,
                    "time": 311.58878999999934,
                    "velocity": 0.5433070866141733,
                    "duration": 0.2733235000000036
                },
                {
                    "name": "C6",
                    "midi": 84,
                    "time": 311.86211349999934,
                    "velocity": 0.47244094488188976,
                    "duration": 0.2733235000000036
                },
                {
                    "name": "A#5",
                    "midi": 82,
                    "time": 312.13543699999934,
                    "velocity": 0.47244094488188976,
                    "duration": 0.2733235000000036
                },
                {
                    "name": "G#5",
                    "midi": 80,
                    "time": 312.40876049999935,
                    "velocity": 0.47244094488188976,
                    "duration": 0.2733235000000036
                },
                {
                    "name": "C#6",
                    "midi": 85,
                    "time": 312.68208399999935,
                    "velocity": 0.5354330708661418,
                    "duration": 1.0932940000000144
                },
                {
                    "name": "D#5",
                    "midi": 75,
                    "time": 314.32202499999937,
                    "velocity": 0.5669291338582677,
                    "duration": 0.5466470000000072
                },
                {
                    "name": "C#6",
                    "midi": 85,
                    "time": 314.32202499999937,
                    "velocity": 0.5275590551181102,
                    "duration": 0.2733235000000036
                },
                {
                    "name": "C6",
                    "midi": 84,
                    "time": 314.5953484999994,
                    "velocity": 0.47244094488188976,
                    "duration": 0.2733235000000036
                },
                {
                    "name": "C#5",
                    "midi": 73,
                    "time": 314.8686719999994,
                    "velocity": 0.6299212598425197,
                    "duration": 0.5466470000000072
                },
                {
                    "name": "A#5",
                    "midi": 82,
                    "time": 314.8686719999994,
                    "velocity": 0.5275590551181102,
                    "duration": 0.2733235000000036
                },
                {
                    "name": "C6",
                    "midi": 84,
                    "time": 315.1419954999994,
                    "velocity": 0.48031496062992124,
                    "duration": 0.2733235000000036
                },
                {
                    "name": "A#4",
                    "midi": 70,
                    "time": 315.4153189999994,
                    "velocity": 0.5354330708661418,
                    "duration": 0.5466470000000072
                },
                {
                    "name": "A#5",
                    "midi": 82,
                    "time": 315.4153189999994,
                    "velocity": 0.48031496062992124,
                    "duration": 0.2733235000000036
                },
                {
                    "name": "G#5",
                    "midi": 80,
                    "time": 315.6886424999994,
                    "velocity": 0.48031496062992124,
                    "duration": 0.2733235000000036
                },
                {
                    "name": "A#4",
                    "midi": 70,
                    "time": 315.9619659999994,
                    "velocity": 0.5354330708661418,
                    "duration": 0.5466470000000072
                },
                {
                    "name": "G5",
                    "midi": 79,
                    "time": 315.9619659999994,
                    "velocity": 0.5275590551181102,
                    "duration": 0.2733235000000036
                },
                {
                    "name": "G#5",
                    "midi": 80,
                    "time": 316.2352894999994,
                    "velocity": 0.4881889763779528,
                    "duration": 0.2733235000000036
                },
                {
                    "name": "G5",
                    "midi": 79,
                    "time": 316.5086129999994,
                    "velocity": 0.4881889763779528,
                    "duration": 0.2733235000000036
                },
                {
                    "name": "F5",
                    "midi": 77,
                    "time": 316.7819364999994,
                    "velocity": 0.4881889763779528,
                    "duration": 0.2733235000000036
                },
                {
                    "name": "D#5",
                    "midi": 75,
                    "time": 317.0552599999994,
                    "velocity": 0.4881889763779528,
                    "duration": 0.2733235000000036
                },
                {
                    "name": "F5",
                    "midi": 77,
                    "time": 317.3285834999994,
                    "velocity": 0.48031496062992124,
                    "duration": 0.2733235000000036
                },
                {
                    "name": "G5",
                    "midi": 79,
                    "time": 317.6019069999994,
                    "velocity": 0.49606299212598426,
                    "duration": 0.2733235000000036
                },
                {
                    "name": "G#5",
                    "midi": 80,
                    "time": 317.8752304999994,
                    "velocity": 0.5039370078740157,
                    "duration": 0.2733235000000036
                },
                {
                    "name": "A5",
                    "midi": 81,
                    "time": 318.1485539999994,
                    "velocity": 0.5196850393700787,
                    "duration": 0.2733235000000036
                },
                {
                    "name": "A#5",
                    "midi": 82,
                    "time": 318.4218774999994,
                    "velocity": 0.5354330708661418,
                    "duration": 0.2733235000000036
                },
                {
                    "name": "C6",
                    "midi": 84,
                    "time": 318.69520099999943,
                    "velocity": 0.5433070866141733,
                    "duration": 0.2733235000000036
                },
                {
                    "name": "A#5",
                    "midi": 82,
                    "time": 318.96852449999943,
                    "velocity": 0.5275590551181102,
                    "duration": 0.2733235000000036
                },
                {
                    "name": "G#5",
                    "midi": 80,
                    "time": 319.24184799999944,
                    "velocity": 0.5433070866141733,
                    "duration": 0.2733235000000036
                },
                {
                    "name": "A#5",
                    "midi": 82,
                    "time": 319.51517149999944,
                    "velocity": 0.5039370078740157,
                    "duration": 0.2733235000000036
                },
                {
                    "name": "C6",
                    "midi": 84,
                    "time": 319.78849499999944,
                    "velocity": 0.5354330708661418,
                    "duration": 0.2733235000000036
                },
                {
                    "name": "C#6",
                    "midi": 85,
                    "time": 320.06181849999945,
                    "velocity": 0.5433070866141733,
                    "duration": 0.2733235000000036
                },
                {
                    "name": "D6",
                    "midi": 86,
                    "time": 320.33514199999945,
                    "velocity": 0.5669291338582677,
                    "duration": 0.2733235000000036
                },
                {
                    "name": "D#6",
                    "midi": 87,
                    "time": 320.60846549999945,
                    "velocity": 0.5748031496062992,
                    "duration": 0.2733235000000036
                },
                {
                    "name": "F6",
                    "midi": 89,
                    "time": 320.88178899999946,
                    "velocity": 0.5905511811023622,
                    "duration": 0.2733235000000036
                },
                {
                    "name": "D#6",
                    "midi": 87,
                    "time": 321.15511249999946,
                    "velocity": 0.5590551181102362,
                    "duration": 0.2733235000000036
                },
                {
                    "name": "C#6",
                    "midi": 85,
                    "time": 321.42843599999946,
                    "velocity": 0.5826771653543307,
                    "duration": 0.2733235000000036
                },
                {
                    "name": "C6",
                    "midi": 84,
                    "time": 321.70175949999947,
                    "velocity": 0.5748031496062992,
                    "duration": 0.2733235000000036
                },
                {
                    "name": "A#5",
                    "midi": 82,
                    "time": 321.9750829999995,
                    "velocity": 0.5590551181102362,
                    "duration": 0.2733235000000036
                },
                {
                    "name": "G#5",
                    "midi": 80,
                    "time": 322.2484064999995,
                    "velocity": 0.5511811023622047,
                    "duration": 0.2733235000000036
                },
                {
                    "name": "C#5",
                    "midi": 73,
                    "time": 322.5217299999995,
                    "velocity": 0.6141732283464567,
                    "duration": 0.5466470000000072
                },
                {
                    "name": "A#5",
                    "midi": 82,
                    "time": 322.5217299999995,
                    "velocity": 0.6141732283464567,
                    "duration": 0.5466470000000072
                },
                {
                    "name": "C#5",
                    "midi": 73,
                    "time": 323.6150239999995,
                    "velocity": 0.6299212598425197,
                    "duration": 1.6399410000000216
                },
                {
                    "name": "A#4",
                    "midi": 70,
                    "time": 323.6150239999995,
                    "velocity": 0.5748031496062992,
                    "duration": 1.6399410000000216
                },
                {
                    "name": "C#5",
                    "midi": 73,
                    "time": 325.2549649999995,
                    "velocity": 0.5905511811023622,
                    "duration": 0.5420916083333509
                },
                {
                    "name": "F4",
                    "midi": 65,
                    "time": 325.2549649999995,
                    "velocity": 0.5433070866141733,
                    "duration": 0.5420916083333509
                },
                {
                    "name": "C#5",
                    "midi": 73,
                    "time": 325.8016119999995,
                    "velocity": 0.6141732283464567,
                    "duration": 0.6013116999999966
                },
                {
                    "name": "F4",
                    "midi": 65,
                    "time": 325.8016119999995,
                    "velocity": 0.5590551181102362,
                    "duration": 0.6013116999999966
                },
                {
                    "name": "C5",
                    "midi": 72,
                    "time": 326.34825899999953,
                    "velocity": 0.5826771653543307,
                    "duration": 0.6013116999999966
                },
                {
                    "name": "D#4",
                    "midi": 63,
                    "time": 326.34825899999953,
                    "velocity": 0.5354330708661418,
                    "duration": 0.6013116999999966
                },
                {
                    "name": "C#4",
                    "midi": 61,
                    "time": 326.89490599999954,
                    "velocity": 0.5511811023622047,
                    "duration": 0.6013116999999966
                },
                {
                    "name": "A#4",
                    "midi": 70,
                    "time": 326.89490599999954,
                    "velocity": 0.6062992125984252,
                    "duration": 0.6013116999999966
                },
                {
                    "name": "C4",
                    "midi": 60,
                    "time": 327.44155299999954,
                    "velocity": 0.4881889763779528,
                    "duration": 0.5466470000000072
                },
                {
                    "name": "G#4",
                    "midi": 68,
                    "time": 327.44155299999954,
                    "velocity": 0.5354330708661418,
                    "duration": 0.5466470000000072
                },
                {
                    "name": "A#3",
                    "midi": 58,
                    "time": 327.98819999999955,
                    "velocity": 0.5669291338582677,
                    "duration": 0.6013116999999966
                },
                {
                    "name": "G4",
                    "midi": 67,
                    "time": 327.98819999999955,
                    "velocity": 0.6220472440944882,
                    "duration": 0.6013116999999966
                },
                {
                    "name": "C4",
                    "midi": 60,
                    "time": 328.53484699999956,
                    "velocity": 0.5354330708661418,
                    "duration": 0.5466470000000072
                },
                {
                    "name": "G#4",
                    "midi": 68,
                    "time": 328.53484699999956,
                    "velocity": 0.5826771653543307,
                    "duration": 0.5466470000000072
                },
                {
                    "name": "A4",
                    "midi": 69,
                    "time": 329.08149399999957,
                    "velocity": 0.4881889763779528,
                    "duration": 0.2733235000000036
                },
                {
                    "name": "A#4",
                    "midi": 70,
                    "time": 329.35481749999957,
                    "velocity": 0.44881889763779526,
                    "duration": 0.2733235000000036
                },
                {
                    "name": "C5",
                    "midi": 72,
                    "time": 329.6281409999996,
                    "velocity": 0.48031496062992124,
                    "duration": 0.2733235000000036
                },
                {
                    "name": "C#5",
                    "midi": 73,
                    "time": 329.9014644999996,
                    "velocity": 0.4881889763779528,
                    "duration": 0.2733235000000036
                },
                {
                    "name": "D#5",
                    "midi": 75,
                    "time": 330.1747879999996,
                    "velocity": 0.5039370078740157,
                    "duration": 0.2733235000000036
                },
                {
                    "name": "F5",
                    "midi": 77,
                    "time": 330.4481114999996,
                    "velocity": 0.5118110236220472,
                    "duration": 0.2733235000000036
                },
                {
                    "name": "F#5",
                    "midi": 78,
                    "time": 330.7214349999996,
                    "velocity": 0.5275590551181102,
                    "duration": 0.2733235000000036
                },
                {
                    "name": "F5",
                    "midi": 77,
                    "time": 330.9947584999996,
                    "velocity": 0.49606299212598426,
                    "duration": 0.2733235000000036
                },
                {
                    "name": "D#5",
                    "midi": 75,
                    "time": 331.2680819999996,
                    "velocity": 0.5196850393700787,
                    "duration": 0.2733235000000036
                },
                {
                    "name": "C#5",
                    "midi": 73,
                    "time": 331.5414054999996,
                    "velocity": 0.5118110236220472,
                    "duration": 0.2733235000000036
                },
                {
                    "name": "C5",
                    "midi": 72,
                    "time": 331.8147289999996,
                    "velocity": 0.49606299212598426,
                    "duration": 0.2733235000000036
                },
                {
                    "name": "A#4",
                    "midi": 70,
                    "time": 332.0880524999996,
                    "velocity": 0.49606299212598426,
                    "duration": 0.2733235000000036
                },
                {
                    "name": "D#5",
                    "midi": 75,
                    "time": 332.3613759999996,
                    "velocity": 0.6141732283464567,
                    "duration": 0.6013116999999966
                },
                {
                    "name": "F#4",
                    "midi": 66,
                    "time": 332.3613759999996,
                    "velocity": 0.5590551181102362,
                    "duration": 0.6013116999999966
                },
                {
                    "name": "C#5",
                    "midi": 73,
                    "time": 332.9080229999996,
                    "velocity": 0.5826771653543307,
                    "duration": 0.6013116999999966
                },
                {
                    "name": "F4",
                    "midi": 65,
                    "time": 332.9080229999996,
                    "velocity": 0.5354330708661418,
                    "duration": 0.6013116999999966
                },
                {
                    "name": "D#4",
                    "midi": 63,
                    "time": 333.4546699999996,
                    "velocity": 0.5511811023622047,
                    "duration": 0.6013116999999966
                },
                {
                    "name": "C5",
                    "midi": 72,
                    "time": 333.4546699999996,
                    "velocity": 0.6062992125984252,
                    "duration": 0.6013116999999966
                },
                {
                    "name": "C#4",
                    "midi": 61,
                    "time": 334.00131699999963,
                    "velocity": 0.4881889763779528,
                    "duration": 0.5466470000000072
                },
                {
                    "name": "A#4",
                    "midi": 70,
                    "time": 334.00131699999963,
                    "velocity": 0.5354330708661418,
                    "duration": 0.5466470000000072
                },
                {
                    "name": "C4",
                    "midi": 60,
                    "time": 334.54796399999964,
                    "velocity": 0.5669291338582677,
                    "duration": 0.6013116999999966
                },
                {
                    "name": "A4",
                    "midi": 69,
                    "time": 334.54796399999964,
                    "velocity": 0.6220472440944882,
                    "duration": 0.6013116999999966
                },
                {
                    "name": "C#4",
                    "midi": 61,
                    "time": 335.09461099999965,
                    "velocity": 0.5354330708661418,
                    "duration": 0.5466470000000072
                },
                {
                    "name": "A#4",
                    "midi": 70,
                    "time": 335.09461099999965,
                    "velocity": 0.5826771653543307,
                    "duration": 0.5466470000000072
                },
                {
                    "name": "D3",
                    "midi": 50,
                    "time": 335.64125799999965,
                    "velocity": 0.4881889763779528,
                    "duration": 0.32798819999999296
                },
                {
                    "name": "D#3",
                    "midi": 51,
                    "time": 335.91458149999966,
                    "velocity": 0.44881889763779526,
                    "duration": 0.32798819999999296
                },
                {
                    "name": "F3",
                    "midi": 53,
                    "time": 336.18790499999966,
                    "velocity": 0.48031496062992124,
                    "duration": 0.32798819999999296
                },
                {
                    "name": "G3",
                    "midi": 55,
                    "time": 336.46122849999966,
                    "velocity": 0.4881889763779528,
                    "duration": 0.32798819999999296
                },
                {
                    "name": "G#3",
                    "midi": 56,
                    "time": 336.73455199999967,
                    "velocity": 0.5039370078740157,
                    "duration": 0.32798819999999296
                },
                {
                    "name": "A#3",
                    "midi": 58,
                    "time": 337.00787549999967,
                    "velocity": 0.5118110236220472,
                    "duration": 0.32798819999999296
                },
                {
                    "name": "B3",
                    "midi": 59,
                    "time": 337.2811989999997,
                    "velocity": 0.5275590551181102,
                    "duration": 0.32798819999999296
                },
                {
                    "name": "A#3",
                    "midi": 58,
                    "time": 337.5545224999997,
                    "velocity": 0.49606299212598426,
                    "duration": 0.32798819999999296
                },
                {
                    "name": "G#3",
                    "midi": 56,
                    "time": 337.8278459999997,
                    "velocity": 0.5196850393700787,
                    "duration": 0.32798819999999296
                },
                {
                    "name": "G3",
                    "midi": 55,
                    "time": 338.1011694999997,
                    "velocity": 0.5118110236220472,
                    "duration": 0.32798819999999296
                },
                {
                    "name": "F3",
                    "midi": 53,
                    "time": 338.3744929999997,
                    "velocity": 0.49606299212598426,
                    "duration": 0.32798819999999296
                },
                {
                    "name": "D#3",
                    "midi": 51,
                    "time": 338.6478164999997,
                    "velocity": 0.49606299212598426,
                    "duration": 0.2733235000000036
                },
                {
                    "name": "E3",
                    "midi": 52,
                    "time": 338.9211399999997,
                    "velocity": 0.4881889763779528,
                    "duration": 0.32798819999999296
                },
                {
                    "name": "F3",
                    "midi": 53,
                    "time": 339.1944634999997,
                    "velocity": 0.44881889763779526,
                    "duration": 0.32798819999999296
                },
                {
                    "name": "G3",
                    "midi": 55,
                    "time": 339.4677869999997,
                    "velocity": 0.48031496062992124,
                    "duration": 0.32798819999999296
                },
                {
                    "name": "G#3",
                    "midi": 56,
                    "time": 339.7411104999997,
                    "velocity": 0.4881889763779528,
                    "duration": 0.32798819999999296
                },
                {
                    "name": "A#3",
                    "midi": 58,
                    "time": 340.0144339999997,
                    "velocity": 0.5039370078740157,
                    "duration": 0.32798819999999296
                },
                {
                    "name": "C4",
                    "midi": 60,
                    "time": 340.2877574999997,
                    "velocity": 0.5118110236220472,
                    "duration": 0.32798819999999296
                },
                {
                    "name": "C#4",
                    "midi": 61,
                    "time": 340.5610809999997,
                    "velocity": 0.5275590551181102,
                    "duration": 0.32798819999999296
                },
                {
                    "name": "C4",
                    "midi": 60,
                    "time": 340.8344044999997,
                    "velocity": 0.49606299212598426,
                    "duration": 0.32798819999999296
                },
                {
                    "name": "A#3",
                    "midi": 58,
                    "time": 341.1077279999997,
                    "velocity": 0.5196850393700787,
                    "duration": 0.32798819999999296
                },
                {
                    "name": "G#3",
                    "midi": 56,
                    "time": 341.3810514999997,
                    "velocity": 0.5118110236220472,
                    "duration": 0.32798819999999296
                },
                {
                    "name": "G3",
                    "midi": 55,
                    "time": 341.65437499999973,
                    "velocity": 0.49606299212598426,
                    "duration": 0.32798819999999296
                },
                {
                    "name": "F3",
                    "midi": 53,
                    "time": 341.92769849999974,
                    "velocity": 0.49606299212598426,
                    "duration": 0.2733235000000036
                },
                {
                    "name": "D#5",
                    "midi": 75,
                    "time": 342.20102199999974,
                    "velocity": 0.6141732283464567,
                    "duration": 0.6013116999999966
                },
                {
                    "name": "B4",
                    "midi": 71,
                    "time": 342.20102199999974,
                    "velocity": 0.5590551181102362,
                    "duration": 0.6013116999999966
                },
                {
                    "name": "C#5",
                    "midi": 73,
                    "time": 342.74766899999975,
                    "velocity": 0.5826771653543307,
                    "duration": 0.6013116999999966
                },
                {
                    "name": "A#4",
                    "midi": 70,
                    "time": 342.74766899999975,
                    "velocity": 0.5354330708661418,
                    "duration": 0.6013116999999966
                },
                {
                    "name": "G#4",
                    "midi": 68,
                    "time": 343.29431599999975,
                    "velocity": 0.5511811023622047,
                    "duration": 0.6013116999999966
                },
                {
                    "name": "B4",
                    "midi": 71,
                    "time": 343.29431599999975,
                    "velocity": 0.6062992125984252,
                    "duration": 0.6013116999999966
                },
                {
                    "name": "F#4",
                    "midi": 66,
                    "time": 343.84096299999976,
                    "velocity": 0.4881889763779528,
                    "duration": 0.5466470000000072
                },
                {
                    "name": "A#4",
                    "midi": 70,
                    "time": 343.84096299999976,
                    "velocity": 0.5354330708661418,
                    "duration": 0.5466470000000072
                },
                {
                    "name": "F4",
                    "midi": 65,
                    "time": 344.38760999999977,
                    "velocity": 0.5669291338582677,
                    "duration": 0.6013116999999966
                },
                {
                    "name": "G#4",
                    "midi": 68,
                    "time": 344.38760999999977,
                    "velocity": 0.6220472440944882,
                    "duration": 0.6013116999999966
                },
                {
                    "name": "F#4",
                    "midi": 66,
                    "time": 344.9342569999998,
                    "velocity": 0.5354330708661418,
                    "duration": 0.5466470000000072
                },
                {
                    "name": "A#4",
                    "midi": 70,
                    "time": 344.9342569999998,
                    "velocity": 0.5826771653543307,
                    "duration": 0.5466470000000072
                },
                {
                    "name": "C#6",
                    "midi": 85,
                    "time": 345.4809039999998,
                    "velocity": 0.6141732283464567,
                    "duration": 0.6013116999999966
                },
                {
                    "name": "E5",
                    "midi": 76,
                    "time": 345.4809039999998,
                    "velocity": 0.5590551181102362,
                    "duration": 0.6013116999999966
                },
                {
                    "name": "B5",
                    "midi": 83,
                    "time": 346.0275509999998,
                    "velocity": 0.5826771653543307,
                    "duration": 0.6013116999999966
                },
                {
                    "name": "D#5",
                    "midi": 75,
                    "time": 346.0275509999998,
                    "velocity": 0.5354330708661418,
                    "duration": 0.6013116999999966
                },
                {
                    "name": "C#5",
                    "midi": 73,
                    "time": 346.5741979999998,
                    "velocity": 0.5511811023622047,
                    "duration": 0.6013116999999966
                },
                {
                    "name": "A#5",
                    "midi": 82,
                    "time": 346.5741979999998,
                    "velocity": 0.6062992125984252,
                    "duration": 0.6013116999999966
                },
                {
                    "name": "B4",
                    "midi": 71,
                    "time": 347.1208449999998,
                    "velocity": 0.4881889763779528,
                    "duration": 0.5466470000000072
                },
                {
                    "name": "G#5",
                    "midi": 80,
                    "time": 347.1208449999998,
                    "velocity": 0.5354330708661418,
                    "duration": 0.5466470000000072
                },
                {
                    "name": "A#4",
                    "midi": 70,
                    "time": 347.6674919999998,
                    "velocity": 0.5669291338582677,
                    "duration": 0.6013116999999966
                },
                {
                    "name": "G5",
                    "midi": 79,
                    "time": 347.6674919999998,
                    "velocity": 0.6220472440944882,
                    "duration": 0.6013116999999966
                },
                {
                    "name": "B4",
                    "midi": 71,
                    "time": 348.2141389999998,
                    "velocity": 0.5354330708661418,
                    "duration": 1.0932940000000144
                },
                {
                    "name": "G#5",
                    "midi": 80,
                    "time": 348.2141389999998,
                    "velocity": 0.5826771653543307,
                    "duration": 1.0932940000000144
                },
                {
                    "name": "G#5",
                    "midi": 80,
                    "time": 349.30743299999983,
                    "velocity": 0.6141732283464567,
                    "duration": 1.0932940000000144
                },
                {
                    "name": "B5",
                    "midi": 83,
                    "time": 349.30743299999983,
                    "velocity": 0.6692913385826772,
                    "duration": 1.0932940000000144
                },
                {
                    "name": "G5",
                    "midi": 79,
                    "time": 350.40072699999985,
                    "velocity": 0.6456692913385826,
                    "duration": 0.5466470000000072
                },
                {
                    "name": "A#5",
                    "midi": 82,
                    "time": 350.40072699999985,
                    "velocity": 0.7086614173228346,
                    "duration": 0.5466470000000072
                },
                {
                    "name": "C#5",
                    "midi": 73,
                    "time": 350.94737399999985,
                    "velocity": 0.5196850393700787,
                    "duration": 1.6399410000000216
                },
                {
                    "name": "E5",
                    "midi": 76,
                    "time": 350.94737399999985,
                    "velocity": 0.6141732283464567,
                    "duration": 1.6399410000000216
                },
                {
                    "name": "C#5",
                    "midi": 73,
                    "time": 352.5873149999999,
                    "velocity": 0.5039370078740157,
                    "duration": 1.0932940000000144
                },
                {
                    "name": "E5",
                    "midi": 76,
                    "time": 352.5873149999999,
                    "velocity": 0.5984251968503937,
                    "duration": 1.0932940000000144
                },
                {
                    "name": "B4",
                    "midi": 71,
                    "time": 353.6806089999999,
                    "velocity": 0.4094488188976378,
                    "duration": 0.5466470000000072
                },
                {
                    "name": "D#5",
                    "midi": 75,
                    "time": 353.6806089999999,
                    "velocity": 0.4881889763779528,
                    "duration": 0.5466470000000072
                },
                {
                    "name": "A#4",
                    "midi": 70,
                    "time": 354.2272559999999,
                    "velocity": 0.44881889763779526,
                    "duration": 0.5466470000000072
                },
                {
                    "name": "C#5",
                    "midi": 73,
                    "time": 354.2272559999999,
                    "velocity": 0.5354330708661418,
                    "duration": 0.5466470000000072
                },
                {
                    "name": "G#4",
                    "midi": 68,
                    "time": 354.7739029999999,
                    "velocity": 0.4409448818897638,
                    "duration": 0.5466470000000072
                },
                {
                    "name": "B4",
                    "midi": 71,
                    "time": 354.7739029999999,
                    "velocity": 0.5196850393700787,
                    "duration": 0.5466470000000072
                },
                {
                    "name": "G4",
                    "midi": 67,
                    "time": 355.3205499999999,
                    "velocity": 0.4645669291338583,
                    "duration": 0.5466470000000072
                },
                {
                    "name": "A#4",
                    "midi": 70,
                    "time": 355.3205499999999,
                    "velocity": 0.5511811023622047,
                    "duration": 0.5466470000000072
                },
                {
                    "name": "G#4",
                    "midi": 68,
                    "time": 355.8671969999999,
                    "velocity": 0.4409448818897638,
                    "duration": 0.5466470000000072
                },
                {
                    "name": "B4",
                    "midi": 71,
                    "time": 355.8671969999999,
                    "velocity": 0.5196850393700787,
                    "duration": 0.5466470000000072
                },
                {
                    "name": "A#4",
                    "midi": 70,
                    "time": 356.4138439999999,
                    "velocity": 0.44881889763779526,
                    "duration": 0.5466470000000072
                },
                {
                    "name": "C#5",
                    "midi": 73,
                    "time": 356.4138439999999,
                    "velocity": 0.5354330708661418,
                    "duration": 0.5466470000000072
                },
                {
                    "name": "B4",
                    "midi": 71,
                    "time": 356.96049099999993,
                    "velocity": 0.47244094488188976,
                    "duration": 1.0887386083333581
                },
                {
                    "name": "D#5",
                    "midi": 75,
                    "time": 356.96049099999993,
                    "velocity": 0.5590551181102362,
                    "duration": 1.0887386083333581
                },
                {
                    "name": "B4",
                    "midi": 71,
                    "time": 358.05378499999995,
                    "velocity": 0.4645669291338583,
                    "duration": 0.5420916083333509
                },
                {
                    "name": "D#5",
                    "midi": 75,
                    "time": 358.05378499999995,
                    "velocity": 0.5511811023622047,
                    "duration": 0.5420916083333509
                },
                {
                    "name": "D#5",
                    "midi": 75,
                    "time": 358.60043199999996,
                    "velocity": 0.6692913385826772,
                    "duration": 1.6399410000000216
                },
                {
                    "name": "B4",
                    "midi": 71,
                    "time": 358.60043199999996,
                    "velocity": 0.5669291338582677,
                    "duration": 1.6399410000000216
                },
                {
                    "name": "C#5",
                    "midi": 73,
                    "time": 360.240373,
                    "velocity": 0.5984251968503937,
                    "duration": 1.0932940000000144
                },
                {
                    "name": "A#4",
                    "midi": 70,
                    "time": 360.240373,
                    "velocity": 0.4094488188976378,
                    "duration": 1.0932940000000144
                },
                {
                    "name": "G#4",
                    "midi": 68,
                    "time": 361.333667,
                    "velocity": 0.4409448818897638,
                    "duration": 0.5466470000000072
                },
                {
                    "name": "B4",
                    "midi": 71,
                    "time": 361.333667,
                    "velocity": 0.5196850393700787,
                    "duration": 0.5466470000000072
                },
                {
                    "name": "F#4",
                    "midi": 66,
                    "time": 361.880314,
                    "velocity": 0.3700787401574803,
                    "duration": 0.5466470000000072
                },
                {
                    "name": "A#4",
                    "midi": 70,
                    "time": 361.880314,
                    "velocity": 0.4409448818897638,
                    "duration": 0.5466470000000072
                },
                {
                    "name": "G#4",
                    "midi": 68,
                    "time": 362.426961,
                    "velocity": 0.4094488188976378,
                    "duration": 0.5466470000000072
                },
                {
                    "name": "F4",
                    "midi": 65,
                    "time": 362.426961,
                    "velocity": 0.3464566929133858,
                    "duration": 0.5466470000000072
                },
                {
                    "name": "A#4",
                    "midi": 70,
                    "time": 362.973608,
                    "velocity": 0.4251968503937008,
                    "duration": 0.5466470000000072
                },
                {
                    "name": "F#4",
                    "midi": 66,
                    "time": 362.973608,
                    "velocity": 0.3543307086614173,
                    "duration": 0.5466470000000072
                },
                {
                    "name": "G#4",
                    "midi": 68,
                    "time": 363.520255,
                    "velocity": 0.3779527559055118,
                    "duration": 0.5466470000000072
                },
                {
                    "name": "B4",
                    "midi": 71,
                    "time": 363.520255,
                    "velocity": 0.4409448818897638,
                    "duration": 0.5466470000000072
                },
                {
                    "name": "F#4",
                    "midi": 66,
                    "time": 364.066902,
                    "velocity": 0.4409448818897638,
                    "duration": 0.5466470000000072
                },
                {
                    "name": "C#5",
                    "midi": 73,
                    "time": 364.066902,
                    "velocity": 0.4409448818897638,
                    "duration": 0.5466470000000072
                },
                {
                    "name": "F#4",
                    "midi": 66,
                    "time": 364.61354900000003,
                    "velocity": 0.4015748031496063,
                    "duration": 0.5466470000000072
                },
                {
                    "name": "D#5",
                    "midi": 75,
                    "time": 364.61354900000003,
                    "velocity": 0.47244094488188976,
                    "duration": 1.0932940000000144
                },
                {
                    "name": "F4",
                    "midi": 65,
                    "time": 365.16019600000004,
                    "velocity": 0.4251968503937008,
                    "duration": 0.5466470000000072
                },
                {
                    "name": "F#4",
                    "midi": 66,
                    "time": 365.70684300000005,
                    "velocity": 0.3543307086614173,
                    "duration": 0.5466470000000072
                },
                {
                    "name": "C#5",
                    "midi": 73,
                    "time": 365.70684300000005,
                    "velocity": 0.4251968503937008,
                    "duration": 1.0932940000000144
                },
                {
                    "name": "G#4",
                    "midi": 68,
                    "time": 366.25349000000006,
                    "velocity": 0.31496062992125984,
                    "duration": 0.2733235000000036
                },
                {
                    "name": "F#4",
                    "midi": 66,
                    "time": 366.52681350000006,
                    "velocity": 0.41732283464566927,
                    "duration": 0.2733235000000036
                },
                {
                    "name": "F4",
                    "midi": 65,
                    "time": 366.80013700000006,
                    "velocity": 0.31496062992125984,
                    "duration": 0.2733235000000036
                },
                {
                    "name": "C#5",
                    "midi": 73,
                    "time": 366.80013700000006,
                    "velocity": 0.3779527559055118,
                    "duration": 0.5466470000000072
                },
                {
                    "name": "G#4",
                    "midi": 68,
                    "time": 367.07346050000007,
                    "velocity": 0.3779527559055118,
                    "duration": 0.2733235000000036
                },
                {
                    "name": "F#4",
                    "midi": 66,
                    "time": 367.34678400000007,
                    "velocity": 0.36220472440944884,
                    "duration": 0.5466470000000072
                },
                {
                    "name": "A#4",
                    "midi": 70,
                    "time": 367.34678400000007,
                    "velocity": 0.30708661417322836,
                    "duration": 0.2733235000000036
                },
                {
                    "name": "A#3",
                    "midi": 58,
                    "time": 367.6201075000001,
                    "velocity": 0.36220472440944884,
                    "duration": 0.2733235000000036
                },
                {
                    "name": "C#4",
                    "midi": 61,
                    "time": 367.8934310000001,
                    "velocity": 0.31496062992125984,
                    "duration": 0.2733235000000036
                },
                {
                    "name": "F#4",
                    "midi": 66,
                    "time": 368.1667545000001,
                    "velocity": 0.31496062992125984,
                    "duration": 0.2733235000000036
                },
                {
                    "name": "A#4",
                    "midi": 70,
                    "time": 368.4400780000001,
                    "velocity": 0.4094488188976378,
                    "duration": 0.2733235000000036
                },
                {
                    "name": "F#4",
                    "midi": 66,
                    "time": 368.7134015000001,
                    "velocity": 0.31496062992125984,
                    "duration": 0.2733235000000036
                },
                {
                    "name": "F4",
                    "midi": 65,
                    "time": 368.9867250000001,
                    "velocity": 0.31496062992125984,
                    "duration": 0.2733235000000036
                },
                {
                    "name": "B4",
                    "midi": 71,
                    "time": 368.9867250000001,
                    "velocity": 0.4251968503937008,
                    "duration": 0.2733235000000036
                },
                {
                    "name": "D#4",
                    "midi": 63,
                    "time": 369.2600485000001,
                    "velocity": 0.31496062992125984,
                    "duration": 0.2733235000000036
                },
                {
                    "name": "F4",
                    "midi": 65,
                    "time": 369.5333720000001,
                    "velocity": 0.3228346456692913,
                    "duration": 0.5466470000000072
                },
                {
                    "name": "C#5",
                    "midi": 73,
                    "time": 369.5333720000001,
                    "velocity": 0.44881889763779526,
                    "duration": 0.5466470000000072
                },
                {
                    "name": "F#4",
                    "midi": 66,
                    "time": 370.0800190000001,
                    "velocity": 0.31496062992125984,
                    "duration": 0.2733235000000036
                },
                {
                    "name": "G#4",
                    "midi": 68,
                    "time": 370.3533425000001,
                    "velocity": 0.31496062992125984,
                    "duration": 0.2733235000000036
                },
                {
                    "name": "A#4",
                    "midi": 70,
                    "time": 370.6266660000001,
                    "velocity": 0.3937007874015748,
                    "duration": 1.0932940000000144
                },
                {
                    "name": "F#5",
                    "midi": 78,
                    "time": 371.99328350000013,
                    "velocity": 0.4566929133858268,
                    "duration": 0.2733235000000036
                },
                {
                    "name": "F5",
                    "midi": 77,
                    "time": 372.26660700000014,
                    "velocity": 0.4251968503937008,
                    "duration": 0.2733235000000036
                },
                {
                    "name": "D#5",
                    "midi": 75,
                    "time": 372.53993050000014,
                    "velocity": 0.4566929133858268,
                    "duration": 0.2733235000000036
                },
                {
                    "name": "F5",
                    "midi": 77,
                    "time": 372.81325400000014,
                    "velocity": 0.5118110236220472,
                    "duration": 0.5466470000000072
                },
                {
                    "name": "F#5",
                    "midi": 78,
                    "time": 373.35990100000015,
                    "velocity": 0.4881889763779528,
                    "duration": 0.2733235000000036
                },
                {
                    "name": "G#5",
                    "midi": 80,
                    "time": 373.63322450000015,
                    "velocity": 0.5354330708661418,
                    "duration": 1.6399410000000216
                },
                {
                    "name": "F5",
                    "midi": 77,
                    "time": 373.90654800000016,
                    "velocity": 0.5275590551181102,
                    "duration": 0.2733235000000036
                },
                {
                    "name": "F4",
                    "midi": 65,
                    "time": 374.17987150000016,
                    "velocity": 0.4409448818897638,
                    "duration": 0.2733235000000036
                },
                {
                    "name": "G#4",
                    "midi": 68,
                    "time": 374.45319500000016,
                    "velocity": 0.47244094488188976,
                    "duration": 0.2733235000000036
                },
                {
                    "name": "C#5",
                    "midi": 73,
                    "time": 374.72651850000017,
                    "velocity": 0.5039370078740157,
                    "duration": 0.2733235000000036
                },
                {
                    "name": "F5",
                    "midi": 77,
                    "time": 374.99984200000017,
                    "velocity": 0.5511811023622047,
                    "duration": 0.5466470000000072
                },
                {
                    "name": "F6",
                    "midi": 89,
                    "time": 375.2731655000002,
                    "velocity": 0.5669291338582677,
                    "duration": 0.2733235000000036
                },
                {
                    "name": "F#5",
                    "midi": 78,
                    "time": 375.5464890000002,
                    "velocity": 0.5905511811023622,
                    "duration": 0.5466470000000072
                },
                {
                    "name": "D#6",
                    "midi": 87,
                    "time": 375.5464890000002,
                    "velocity": 0.5905511811023622,
                    "duration": 0.2733235000000036
                },
                {
                    "name": "C#6",
                    "midi": 85,
                    "time": 375.8198125000002,
                    "velocity": 0.5590551181102362,
                    "duration": 0.2733235000000036
                },
                {
                    "name": "G#5",
                    "midi": 80,
                    "time": 376.0931360000002,
                    "velocity": 0.4645669291338583,
                    "duration": 1.0932940000000144
                },
                {
                    "name": "C6",
                    "midi": 84,
                    "time": 376.0931360000002,
                    "velocity": 0.5905511811023622,
                    "duration": 0.5466470000000072
                },
                {
                    "name": "C#6",
                    "midi": 85,
                    "time": 376.6397830000002,
                    "velocity": 0.5511811023622047,
                    "duration": 0.2733235000000036
                },
                {
                    "name": "D#6",
                    "midi": 87,
                    "time": 376.9131065000002,
                    "velocity": 0.5511811023622047,
                    "duration": 0.2733235000000036
                },
                {
                    "name": "G#5",
                    "midi": 80,
                    "time": 377.1864300000002,
                    "velocity": 0.5196850393700787,
                    "duration": 1.0932940000000144
                },
                {
                    "name": "F5",
                    "midi": 77,
                    "time": 377.1864300000002,
                    "velocity": 0.44881889763779526,
                    "duration": 1.366617500000018
                },
                {
                    "name": "F5",
                    "midi": 77,
                    "time": 378.5530475000002,
                    "velocity": 0.5196850393700787,
                    "duration": 0.2733235000000036
                },
                {
                    "name": "D#5",
                    "midi": 75,
                    "time": 378.8263710000002,
                    "velocity": 0.5118110236220472,
                    "duration": 0.2733235000000036
                },
                {
                    "name": "C#5",
                    "midi": 73,
                    "time": 379.0996945000002,
                    "velocity": 0.49606299212598426,
                    "duration": 0.2733235000000036
                },
                {
                    "name": "C5",
                    "midi": 72,
                    "time": 379.37301800000023,
                    "velocity": 0.4881889763779528,
                    "duration": 0.2733235000000036
                },
                {
                    "name": "A#4",
                    "midi": 70,
                    "time": 379.64634150000023,
                    "velocity": 0.48031496062992124,
                    "duration": 0.2733235000000036
                },
                {
                    "name": "G#4",
                    "midi": 68,
                    "time": 379.91966500000024,
                    "velocity": 0.4645669291338583,
                    "duration": 0.2733235000000036
                },
                {
                    "name": "F#4",
                    "midi": 66,
                    "time": 380.19298850000024,
                    "velocity": 0.4566929133858268,
                    "duration": 0.2733235000000036
                },
                {
                    "name": "F4",
                    "midi": 65,
                    "time": 380.46631200000024,
                    "velocity": 0.5433070866141733,
                    "duration": 0.2687681083333473
                },
                {
                    "name": "F5",
                    "midi": 77,
                    "time": 380.46631200000024,
                    "velocity": 0.5905511811023622,
                    "duration": 0.2733235000000036
                },
                {
                    "name": "F#5",
                    "midi": 78,
                    "time": 381.01295900000025,
                    "velocity": 0.6299212598425197,
                    "duration": 0.2733235000000036
                },
                {
                    "name": "G#5",
                    "midi": 80,
                    "time": 381.55960600000026,
                    "velocity": 0.6535433070866141,
                    "duration": 1.366617500000018
                },
                {
                    "name": "G#4",
                    "midi": 68,
                    "time": 381.83292950000026,
                    "velocity": 0.4881889763779528,
                    "duration": 0.2733235000000036
                },
                {
                    "name": "A#4",
                    "midi": 70,
                    "time": 382.10625300000027,
                    "velocity": 0.4881889763779528,
                    "duration": 0.2733235000000036
                },
                {
                    "name": "C5",
                    "midi": 72,
                    "time": 382.37957650000027,
                    "velocity": 0.4881889763779528,
                    "duration": 0.2733235000000036
                },
                {
                    "name": "D5",
                    "midi": 74,
                    "time": 382.6529000000003,
                    "velocity": 0.4881889763779528,
                    "duration": 0.5466470000000072
                },
                {
                    "name": "F5",
                    "midi": 77,
                    "time": 382.9262235000003,
                    "velocity": 0.4881889763779528,
                    "duration": 0.2733235000000036
                },
                {
                    "name": "D#5",
                    "midi": 75,
                    "time": 383.1995470000003,
                    "velocity": 0.4881889763779528,
                    "duration": 0.2733235000000036
                },
                {
                    "name": "A#4",
                    "midi": 70,
                    "time": 383.1995470000003,
                    "velocity": 0.4881889763779528,
                    "duration": 0.5466470000000072
                },
                {
                    "name": "D5",
                    "midi": 74,
                    "time": 383.4728705000003,
                    "velocity": 0.4881889763779528,
                    "duration": 0.2733235000000036
                },
                {
                    "name": "A#4",
                    "midi": 70,
                    "time": 383.7461940000003,
                    "velocity": 0.4409448818897638,
                    "duration": 0.2733235000000036
                },
                {
                    "name": "D#5",
                    "midi": 75,
                    "time": 383.7461940000003,
                    "velocity": 0.4881889763779528,
                    "duration": 1.0932940000000144
                },
                {
                    "name": "F#4",
                    "midi": 66,
                    "time": 384.8394880000003,
                    "velocity": 0.5196850393700787,
                    "duration": 0.2733235000000036
                },
                {
                    "name": "F#6",
                    "midi": 90,
                    "time": 385.1128115000003,
                    "velocity": 0.6141732283464567,
                    "duration": 0.2733235000000036
                },
                {
                    "name": "F6",
                    "midi": 89,
                    "time": 385.3861350000003,
                    "velocity": 0.6141732283464567,
                    "duration": 0.2733235000000036
                },
                {
                    "name": "G#4",
                    "midi": 68,
                    "time": 385.3861350000003,
                    "velocity": 0.6141732283464567,
                    "duration": 0.2733235000000036
                },
                {
                    "name": "D#6",
                    "midi": 87,
                    "time": 385.6594585000003,
                    "velocity": 0.5984251968503937,
                    "duration": 0.2733235000000036
                },
                {
                    "name": "D6",
                    "midi": 86,
                    "time": 385.9327820000003,
                    "velocity": 0.5826771653543307,
                    "duration": 0.2733235000000036
                },
                {
                    "name": "A#4",
                    "midi": 70,
                    "time": 385.9327820000003,
                    "velocity": 0.5826771653543307,
                    "duration": 1.0932940000000144
                },
                {
                    "name": "B5",
                    "midi": 83,
                    "time": 386.2061055000003,
                    "velocity": 0.5669291338582677,
                    "duration": 0.2733235000000036
                },
                {
                    "name": "A#5",
                    "midi": 82,
                    "time": 386.4794290000003,
                    "velocity": 0.5511811023622047,
                    "duration": 0.2733235000000036
                },
                {
                    "name": "G#5",
                    "midi": 80,
                    "time": 386.7527525000003,
                    "velocity": 0.5354330708661418,
                    "duration": 0.2733235000000036
                },
                {
                    "name": "A#4",
                    "midi": 70,
                    "time": 387.02607600000033,
                    "velocity": 0.5196850393700787,
                    "duration": 0.5466470000000072
                },
                {
                    "name": "F#5",
                    "midi": 78,
                    "time": 387.02607600000033,
                    "velocity": 0.5826771653543307,
                    "duration": 1.0932940000000144
                },
                {
                    "name": "F#4",
                    "midi": 66,
                    "time": 387.57272300000034,
                    "velocity": 0.5196850393700787,
                    "duration": 0.8199705000000108
                },
                {
                    "name": "F#5",
                    "midi": 78,
                    "time": 388.39269350000035,
                    "velocity": 0.5826771653543307,
                    "duration": 0.2733235000000036
                },
                {
                    "name": "F5",
                    "midi": 77,
                    "time": 388.66601700000035,
                    "velocity": 0.5669291338582677,
                    "duration": 0.2733235000000036
                },
                {
                    "name": "D#5",
                    "midi": 75,
                    "time": 388.93934050000036,
                    "velocity": 0.5590551181102362,
                    "duration": 0.2733235000000036
                },
                {
                    "name": "D5",
                    "midi": 74,
                    "time": 389.21266400000036,
                    "velocity": 0.5511811023622047,
                    "duration": 0.2733235000000036
                },
                {
                    "name": "B4",
                    "midi": 71,
                    "time": 389.48598750000036,
                    "velocity": 0.5354330708661418,
                    "duration": 0.2733235000000036
                },
                {
                    "name": "A#4",
                    "midi": 70,
                    "time": 389.75931100000037,
                    "velocity": 0.5275590551181102,
                    "duration": 0.2733235000000036
                },
                {
                    "name": "G#4",
                    "midi": 68,
                    "time": 390.03263450000037,
                    "velocity": 0.5118110236220472,
                    "duration": 0.2733235000000036
                },
                {
                    "name": "F#4",
                    "midi": 66,
                    "time": 390.3059580000004,
                    "velocity": 0.5433070866141733,
                    "duration": 0.2733235000000036
                },
                {
                    "name": "F#5",
                    "midi": 78,
                    "time": 390.3059580000004,
                    "velocity": 0.6141732283464567,
                    "duration": 0.2733235000000036
                },
                {
                    "name": "G#5",
                    "midi": 80,
                    "time": 390.8526050000004,
                    "velocity": 0.6535433070866141,
                    "duration": 0.2733235000000036
                },
                {
                    "name": "A#5",
                    "midi": 82,
                    "time": 391.3992520000004,
                    "velocity": 0.6929133858267716,
                    "duration": 1.366617500000018
                },
                {
                    "name": "G5",
                    "midi": 79,
                    "time": 392.7658695000004,
                    "velocity": 0.5196850393700787,
                    "duration": 0.2733235000000036
                },
                {
                    "name": "F5",
                    "midi": 77,
                    "time": 393.0391930000004,
                    "velocity": 0.5118110236220472,
                    "duration": 0.2733235000000036
                },
                {
                    "name": "D#5",
                    "midi": 75,
                    "time": 393.3125165000004,
                    "velocity": 0.5118110236220472,
                    "duration": 0.2733235000000036
                },
                {
                    "name": "D#6",
                    "midi": 87,
                    "time": 393.5858400000004,
                    "velocity": 0.5984251968503937,
                    "duration": 0.2733235000000036
                },
                {
                    "name": "B5",
                    "midi": 83,
                    "time": 393.8591635000004,
                    "velocity": 0.5118110236220472,
                    "duration": 0.2733235000000036
                },
                {
                    "name": "A#5",
                    "midi": 82,
                    "time": 394.1324870000004,
                    "velocity": 0.5118110236220472,
                    "duration": 0.2733235000000036
                },
                {
                    "name": "G#5",
                    "midi": 80,
                    "time": 394.4058105000004,
                    "velocity": 0.5118110236220472,
                    "duration": 0.2733235000000036
                },
                {
                    "name": "G#6",
                    "midi": 92,
                    "time": 394.67913400000043,
                    "velocity": 0.6299212598425197,
                    "duration": 0.2733235000000036
                },
                {
                    "name": "F6",
                    "midi": 89,
                    "time": 394.95245750000043,
                    "velocity": 0.5275590551181102,
                    "duration": 0.2733235000000036
                },
                {
                    "name": "D#6",
                    "midi": 87,
                    "time": 395.22578100000044,
                    "velocity": 0.5354330708661418,
                    "duration": 0.2733235000000036
                },
                {
                    "name": "D6",
                    "midi": 86,
                    "time": 395.49910450000044,
                    "velocity": 0.5354330708661418,
                    "duration": 0.2733235000000036
                },
                {
                    "name": "G#6",
                    "midi": 92,
                    "time": 395.77242800000045,
                    "velocity": 0.6850393700787402,
                    "duration": 1.366617500000018
                },
                {
                    "name": "G#5",
                    "midi": 80,
                    "time": 397.13904550000046,
                    "velocity": 0.5511811023622047,
                    "duration": 0.2733235000000036
                },
                {
                    "name": "F#5",
                    "midi": 78,
                    "time": 397.41236900000047,
                    "velocity": 0.5511811023622047,
                    "duration": 0.2733235000000036
                },
                {
                    "name": "F5",
                    "midi": 77,
                    "time": 397.68569250000047,
                    "velocity": 0.5511811023622047,
                    "duration": 0.2733235000000036
                },
                {
                    "name": "G#5",
                    "midi": 80,
                    "time": 397.9590160000005,
                    "velocity": 0.6456692913385826,
                    "duration": 0.2733235000000036
                },
                {
                    "name": "F5",
                    "midi": 77,
                    "time": 398.2323395000005,
                    "velocity": 0.5433070866141733,
                    "duration": 0.2733235000000036
                },
                {
                    "name": "D#5",
                    "midi": 75,
                    "time": 398.5056630000005,
                    "velocity": 0.5433070866141733,
                    "duration": 0.2733235000000036
                },
                {
                    "name": "D5",
                    "midi": 74,
                    "time": 398.7789865000005,
                    "velocity": 0.5433070866141733,
                    "duration": 0.2733235000000036
                },
                {
                    "name": "F5",
                    "midi": 77,
                    "time": 399.0523100000005,
                    "velocity": 0.6377952755905512,
                    "duration": 0.2733235000000036
                },
                {
                    "name": "A#4",
                    "midi": 70,
                    "time": 399.3256335000005,
                    "velocity": 0.5511811023622047,
                    "duration": 0.2733235000000036
                },
                {
                    "name": "A4",
                    "midi": 69,
                    "time": 399.5989570000005,
                    "velocity": 0.5511811023622047,
                    "duration": 0.2733235000000036
                },
                {
                    "name": "A#4",
                    "midi": 70,
                    "time": 399.8722805000005,
                    "velocity": 0.5511811023622047,
                    "duration": 0.2733235000000036
                },
                {
                    "name": "A#5",
                    "midi": 82,
                    "time": 400.1456040000005,
                    "velocity": 0.6692913385826772,
                    "duration": 0.2733235000000036
                },
                {
                    "name": "F5",
                    "midi": 77,
                    "time": 400.4189275000005,
                    "velocity": 0.5669291338582677,
                    "duration": 0.2733235000000036
                },
                {
                    "name": "E5",
                    "midi": 76,
                    "time": 400.6922510000005,
                    "velocity": 0.5669291338582677,
                    "duration": 0.2733235000000036
                },
                {
                    "name": "F5",
                    "midi": 77,
                    "time": 400.9655745000005,
                    "velocity": 0.5669291338582677,
                    "duration": 0.2733235000000036
                },
                {
                    "name": "F6",
                    "midi": 89,
                    "time": 401.2388980000005,
                    "velocity": 0.6692913385826772,
                    "duration": 0.2733235000000036
                },
                {
                    "name": "A#5",
                    "midi": 82,
                    "time": 401.5122215000005,
                    "velocity": 0.5748031496062992,
                    "duration": 0.2733235000000036
                },
                {
                    "name": "A5",
                    "midi": 81,
                    "time": 401.7855450000005,
                    "velocity": 0.5748031496062992,
                    "duration": 0.2733235000000036
                },
                {
                    "name": "A#5",
                    "midi": 82,
                    "time": 402.05886850000053,
                    "velocity": 0.5748031496062992,
                    "duration": 0.2733235000000036
                },
                {
                    "name": "A#6",
                    "midi": 94,
                    "time": 402.33219200000053,
                    "velocity": 0.6850393700787402,
                    "duration": 0.2733235000000036
                },
                {
                    "name": "G#6",
                    "midi": 92,
                    "time": 402.60551550000054,
                    "velocity": 0.5984251968503937,
                    "duration": 0.2733235000000036
                },
                {
                    "name": "F#6",
                    "midi": 90,
                    "time": 402.87883900000054,
                    "velocity": 0.5984251968503937,
                    "duration": 0.2733235000000036
                },
                {
                    "name": "F6",
                    "midi": 89,
                    "time": 403.15216250000054,
                    "velocity": 0.5984251968503937,
                    "duration": 0.2733235000000036
                },
                {
                    "name": "F#6",
                    "midi": 90,
                    "time": 403.42548600000055,
                    "velocity": 0.6850393700787402,
                    "duration": 1.0932940000000144
                },
                {
                    "name": "D#5",
                    "midi": 75,
                    "time": 406.70536800000053,
                    "velocity": 0.6850393700787402,
                    "duration": 0.2733235000000036
                },
                {
                    "name": "F4",
                    "midi": 65,
                    "time": 407.25201500000054,
                    "velocity": 0.5275590551181102,
                    "duration": 0.2733235000000036
                },
                {
                    "name": "C#5",
                    "midi": 73,
                    "time": 407.25201500000054,
                    "velocity": 0.6299212598425197,
                    "duration": 0.2733235000000036
                },
                {
                    "name": "D#4",
                    "midi": 63,
                    "time": 407.79866200000055,
                    "velocity": 0.5196850393700787,
                    "duration": 0.2733235000000036
                },
                {
                    "name": "B4",
                    "midi": 71,
                    "time": 407.79866200000055,
                    "velocity": 0.6141732283464567,
                    "duration": 0.2733235000000036
                },
                {
                    "name": "D6",
                    "midi": 86,
                    "time": 407.79866200000055,
                    "velocity": 0.7165354330708661,
                    "duration": 0.2733235000000036
                },
                {
                    "name": "C#4",
                    "midi": 61,
                    "time": 408.34530900000055,
                    "velocity": 0.4881889763779528,
                    "duration": 0.2733235000000036
                },
                {
                    "name": "A#4",
                    "midi": 70,
                    "time": 408.34530900000055,
                    "velocity": 0.5826771653543307,
                    "duration": 0.2733235000000036
                },
                {
                    "name": "B3",
                    "midi": 59,
                    "time": 408.89195600000056,
                    "velocity": 0.47244094488188976,
                    "duration": 0.2733235000000036
                },
                {
                    "name": "G#4",
                    "midi": 68,
                    "time": 408.89195600000056,
                    "velocity": 0.5590551181102362,
                    "duration": 0.2733235000000036
                },
                {
                    "name": "D#6",
                    "midi": 87,
                    "time": 408.89195600000056,
                    "velocity": 0.7559055118110236,
                    "duration": 2.186588000000029
                },
                {
                    "name": "A#3",
                    "midi": 58,
                    "time": 409.43860300000057,
                    "velocity": 0.44881889763779526,
                    "duration": 0.2733235000000036
                },
                {
                    "name": "F#4",
                    "midi": 66,
                    "time": 409.43860300000057,
                    "velocity": 0.5354330708661418,
                    "duration": 0.2733235000000036
                },
                {
                    "name": "D#4",
                    "midi": 63,
                    "time": 409.9852500000006,
                    "velocity": 0.5669291338582677,
                    "duration": 2.186588000000029
                },
                {
                    "name": "B4",
                    "midi": 71,
                    "time": 409.9852500000006,
                    "velocity": 0.6692913385826772,
                    "duration": 2.186588000000029
                },
                {
                    "name": "D#4",
                    "midi": 63,
                    "time": 413.2651320000006,
                    "velocity": 0.5511811023622047,
                    "duration": 0.2733235000000036
                },
                {
                    "name": "B4",
                    "midi": 71,
                    "time": 413.2651320000006,
                    "velocity": 0.6850393700787402,
                    "duration": 0.2733235000000036
                },
                {
                    "name": "C#4",
                    "midi": 61,
                    "time": 413.8117790000006,
                    "velocity": 0.5275590551181102,
                    "duration": 0.2733235000000036
                },
                {
                    "name": "A#4",
                    "midi": 70,
                    "time": 413.8117790000006,
                    "velocity": 0.6299212598425197,
                    "duration": 0.2733235000000036
                },
                {
                    "name": "B3",
                    "midi": 59,
                    "time": 414.35842600000063,
                    "velocity": 0.5196850393700787,
                    "duration": 0.2733235000000036
                },
                {
                    "name": "G#4",
                    "midi": 68,
                    "time": 414.35842600000063,
                    "velocity": 0.6141732283464567,
                    "duration": 0.2733235000000036
                },
                {
                    "name": "A#5",
                    "midi": 82,
                    "time": 414.35842600000063,
                    "velocity": 0.7165354330708661,
                    "duration": 0.2733235000000036
                },
                {
                    "name": "A#3",
                    "midi": 58,
                    "time": 414.90507300000064,
                    "velocity": 0.4881889763779528,
                    "duration": 0.2733235000000036
                },
                {
                    "name": "F#4",
                    "midi": 66,
                    "time": 414.90507300000064,
                    "velocity": 0.5826771653543307,
                    "duration": 0.2733235000000036
                },
                {
                    "name": "G#3",
                    "midi": 56,
                    "time": 415.45172000000065,
                    "velocity": 0.47244094488188976,
                    "duration": 0.2733235000000036
                },
                {
                    "name": "F4",
                    "midi": 65,
                    "time": 415.45172000000065,
                    "velocity": 0.5590551181102362,
                    "duration": 0.2733235000000036
                },
                {
                    "name": "B5",
                    "midi": 83,
                    "time": 415.45172000000065,
                    "velocity": 0.7559055118110236,
                    "duration": 2.186588000000029
                },
                {
                    "name": "F#3",
                    "midi": 54,
                    "time": 415.99836700000066,
                    "velocity": 0.44881889763779526,
                    "duration": 0.2733235000000036
                },
                {
                    "name": "D#4",
                    "midi": 63,
                    "time": 415.99836700000066,
                    "velocity": 0.5354330708661418,
                    "duration": 0.2733235000000036
                },
                {
                    "name": "B3",
                    "midi": 59,
                    "time": 416.54501400000066,
                    "velocity": 0.5669291338582677,
                    "duration": 2.186588000000029
                },
                {
                    "name": "G#4",
                    "midi": 68,
                    "time": 416.54501400000066,
                    "velocity": 0.6692913385826772,
                    "duration": 2.186588000000029
                },
                {
                    "name": "B3",
                    "midi": 59,
                    "time": 419.8248960000007,
                    "velocity": 0.5511811023622047,
                    "duration": 0.2733235000000036
                },
                {
                    "name": "G#4",
                    "midi": 68,
                    "time": 419.8248960000007,
                    "velocity": 0.6850393700787402,
                    "duration": 0.2733235000000036
                },
                {
                    "name": "A#3",
                    "midi": 58,
                    "time": 420.3715430000007,
                    "velocity": 0.5275590551181102,
                    "duration": 0.2733235000000036
                },
                {
                    "name": "F#4",
                    "midi": 66,
                    "time": 420.3715430000007,
                    "velocity": 0.6299212598425197,
                    "duration": 0.2733235000000036
                },
                {
                    "name": "G#3",
                    "midi": 56,
                    "time": 420.9181900000007,
                    "velocity": 0.5196850393700787,
                    "duration": 0.2733235000000036
                },
                {
                    "name": "F4",
                    "midi": 65,
                    "time": 420.9181900000007,
                    "velocity": 0.6141732283464567,
                    "duration": 0.2733235000000036
                },
                {
                    "name": "A#5",
                    "midi": 82,
                    "time": 420.9181900000007,
                    "velocity": 0.7165354330708661,
                    "duration": 0.2733235000000036
                },
                {
                    "name": "A#3",
                    "midi": 58,
                    "time": 421.4648370000007,
                    "velocity": 0.4881889763779528,
                    "duration": 0.2733235000000036
                },
                {
                    "name": "F#4",
                    "midi": 66,
                    "time": 421.4648370000007,
                    "velocity": 0.5826771653543307,
                    "duration": 0.2733235000000036
                },
                {
                    "name": "G#3",
                    "midi": 56,
                    "time": 422.01148400000073,
                    "velocity": 0.47244094488188976,
                    "duration": 0.2733235000000036
                },
                {
                    "name": "F4",
                    "midi": 65,
                    "time": 422.01148400000073,
                    "velocity": 0.5590551181102362,
                    "duration": 0.2733235000000036
                },
                {
                    "name": "B5",
                    "midi": 83,
                    "time": 422.01148400000073,
                    "velocity": 0.7559055118110236,
                    "duration": 2.186588000000029
                },
                {
                    "name": "F#3",
                    "midi": 54,
                    "time": 422.55813100000074,
                    "velocity": 0.44881889763779526,
                    "duration": 0.2733235000000036
                },
                {
                    "name": "D#4",
                    "midi": 63,
                    "time": 422.55813100000074,
                    "velocity": 0.5354330708661418,
                    "duration": 0.2733235000000036
                },
                {
                    "name": "A#5",
                    "midi": 82,
                    "time": 424.19807200000076,
                    "velocity": 0.7559055118110236,
                    "duration": 1.0932940000000144
                },
                {
                    "name": "G#5",
                    "midi": 80,
                    "time": 425.2913660000008,
                    "velocity": 0.7559055118110236,
                    "duration": 3.2798819999999864
                },
                {
                    "name": "G#6",
                    "midi": 92,
                    "time": 428.57124800000076,
                    "velocity": 0.8582677165354331,
                    "duration": 1.6399410000000216
                },
                {
                    "name": "F#6",
                    "midi": 90,
                    "time": 430.7578360000008,
                    "velocity": 0.7795275590551181,
                    "duration": 0.2733235000000036
                },
                {
                    "name": "F6",
                    "midi": 89,
                    "time": 431.8511300000008,
                    "velocity": 0.7795275590551181,
                    "duration": 0.2733235000000036
                },
                {
                    "name": "D#6",
                    "midi": 87,
                    "time": 432.9444240000008,
                    "velocity": 0.84251968503937,
                    "duration": 0.2733235000000036
                },
                {
                    "name": "D6",
                    "midi": 86,
                    "time": 434.03771800000084,
                    "velocity": 0.7795275590551181,
                    "duration": 0.2733235000000036
                },
                {
                    "name": "F4",
                    "midi": 65,
                    "time": 435.13101200000085,
                    "velocity": 0.5433070866141733,
                    "duration": 0.2733235000000036
                },
                {
                    "name": "G#4",
                    "midi": 68,
                    "time": 435.13101200000085,
                    "velocity": 0.6456692913385826,
                    "duration": 0.2733235000000036
                },
                {
                    "name": "D#4",
                    "midi": 63,
                    "time": 435.67765900000086,
                    "velocity": 0.47244094488188976,
                    "duration": 0.2733235000000036
                },
                {
                    "name": "F#4",
                    "midi": 66,
                    "time": 435.67765900000086,
                    "velocity": 0.5590551181102362,
                    "duration": 0.2733235000000036
                },
                {
                    "name": "G#3",
                    "midi": 56,
                    "time": 436.22430600000087,
                    "velocity": 0.5354330708661418,
                    "duration": 0.2733235000000036
                },
                {
                    "name": "F4",
                    "midi": 65,
                    "time": 436.22430600000087,
                    "velocity": 0.6377952755905512,
                    "duration": 0.2733235000000036
                },
                {
                    "name": "A#3",
                    "midi": 58,
                    "time": 436.7709530000009,
                    "velocity": 0.47244094488188976,
                    "duration": 0.2733235000000036
                },
                {
                    "name": "F#4",
                    "midi": 66,
                    "time": 436.7709530000009,
                    "velocity": 0.5590551181102362,
                    "duration": 0.2733235000000036
                },
                {
                    "name": "G#3",
                    "midi": 56,
                    "time": 437.3176000000009,
                    "velocity": 0.5354330708661418,
                    "duration": 0.2733235000000036
                },
                {
                    "name": "F4",
                    "midi": 65,
                    "time": 437.3176000000009,
                    "velocity": 0.6299212598425197,
                    "duration": 0.2733235000000036
                },
                {
                    "name": "F#3",
                    "midi": 54,
                    "time": 437.8642470000009,
                    "velocity": 0.47244094488188976,
                    "duration": 0.2733235000000036
                },
                {
                    "name": "D#4",
                    "midi": 63,
                    "time": 437.8642470000009,
                    "velocity": 0.5590551181102362,
                    "duration": 0.2733235000000036
                },
                {
                    "name": "F3",
                    "midi": 53,
                    "time": 438.4108940000009,
                    "velocity": 0.5196850393700787,
                    "duration": 0.2733235000000036
                },
                {
                    "name": "D4",
                    "midi": 62,
                    "time": 438.4108940000009,
                    "velocity": 0.6141732283464567,
                    "duration": 0.2733235000000036
                },
                {
                    "name": "F#3",
                    "midi": 54,
                    "time": 438.9575410000009,
                    "velocity": 0.47244094488188976,
                    "duration": 0.2733235000000036
                },
                {
                    "name": "D#4",
                    "midi": 63,
                    "time": 438.9575410000009,
                    "velocity": 0.5590551181102362,
                    "duration": 0.2733235000000036
                },
                {
                    "name": "D4",
                    "midi": 62,
                    "time": 439.5041880000009,
                    "velocity": 0.5354330708661418,
                    "duration": 0.2733235000000036
                },
                {
                    "name": "F4",
                    "midi": 65,
                    "time": 439.5041880000009,
                    "velocity": 0.6377952755905512,
                    "duration": 0.2733235000000036
                },
                {
                    "name": "D#4",
                    "midi": 63,
                    "time": 440.0508350000009,
                    "velocity": 0.47244094488188976,
                    "duration": 0.2733235000000036
                },
                {
                    "name": "F#4",
                    "midi": 66,
                    "time": 440.0508350000009,
                    "velocity": 0.5590551181102362,
                    "duration": 0.2733235000000036
                },
                {
                    "name": "F4",
                    "midi": 65,
                    "time": 440.5974820000009,
                    "velocity": 0.5354330708661418,
                    "duration": 0.2733235000000036
                },
                {
                    "name": "G#4",
                    "midi": 68,
                    "time": 440.5974820000009,
                    "velocity": 0.6299212598425197,
                    "duration": 0.2733235000000036
                },
                {
                    "name": "F#4",
                    "midi": 66,
                    "time": 441.14412900000093,
                    "velocity": 0.5590551181102362,
                    "duration": 0.2733235000000036
                },
                {
                    "name": "A#4",
                    "midi": 70,
                    "time": 441.14412900000093,
                    "velocity": 0.47244094488188976,
                    "duration": 0.2733235000000036
                },
                {
                    "name": "D#4",
                    "midi": 63,
                    "time": 441.69077600000094,
                    "velocity": 0.5275590551181102,
                    "duration": 0.2733235000000036
                },
                {
                    "name": "C5",
                    "midi": 72,
                    "time": 441.69077600000094,
                    "velocity": 0.6220472440944882,
                    "duration": 0.2733235000000036
                },
                {
                    "name": "F4",
                    "midi": 65,
                    "time": 442.23742300000094,
                    "velocity": 0.47244094488188976,
                    "duration": 0.2733235000000036
                },
                {
                    "name": "D5",
                    "midi": 74,
                    "time": 442.23742300000094,
                    "velocity": 0.5590551181102362,
                    "duration": 0.2733235000000036
                },
                {
                    "name": "F#4",
                    "midi": 66,
                    "time": 442.78407000000095,
                    "velocity": 0.5275590551181102,
                    "duration": 0.2733235000000036
                },
                {
                    "name": "D#5",
                    "midi": 75,
                    "time": 442.78407000000095,
                    "velocity": 0.6220472440944882,
                    "duration": 0.2733235000000036
                },
                {
                    "name": "G#4",
                    "midi": 68,
                    "time": 443.33071700000096,
                    "velocity": 0.47244094488188976,
                    "duration": 0.2733235000000036
                },
                {
                    "name": "F5",
                    "midi": 77,
                    "time": 443.33071700000096,
                    "velocity": 0.5590551181102362,
                    "duration": 0.2733235000000036
                },
                {
                    "name": "A#4",
                    "midi": 70,
                    "time": 443.87736400000097,
                    "velocity": 0.5196850393700787,
                    "duration": 0.2733235000000036
                },
                {
                    "name": "F#5",
                    "midi": 78,
                    "time": 443.87736400000097,
                    "velocity": 0.6141732283464567,
                    "duration": 0.2733235000000036
                },
                {
                    "name": "B4",
                    "midi": 71,
                    "time": 444.424011000001,
                    "velocity": 0.47244094488188976,
                    "duration": 0.2733235000000036
                },
                {
                    "name": "G5",
                    "midi": 79,
                    "time": 444.424011000001,
                    "velocity": 0.5590551181102362,
                    "duration": 0.2733235000000036
                },
                {
                    "name": "F5",
                    "midi": 77,
                    "time": 444.970658000001,
                    "velocity": 0.5196850393700787,
                    "duration": 0.2733235000000036
                },
                {
                    "name": "G#5",
                    "midi": 80,
                    "time": 444.970658000001,
                    "velocity": 0.6141732283464567,
                    "duration": 0.2733235000000036
                },
                {
                    "name": "A#5",
                    "midi": 82,
                    "time": 445.517305000001,
                    "velocity": 0.5590551181102362,
                    "duration": 0.2733235000000036
                },
                {
                    "name": "F#5",
                    "midi": 78,
                    "time": 445.517305000001,
                    "velocity": 0.47244094488188976,
                    "duration": 0.2733235000000036
                },
                {
                    "name": "B5",
                    "midi": 83,
                    "time": 446.063952000001,
                    "velocity": 0.6299212598425197,
                    "duration": 0.2733235000000036
                },
                {
                    "name": "G#5",
                    "midi": 80,
                    "time": 446.063952000001,
                    "velocity": 0.5354330708661418,
                    "duration": 0.2733235000000036
                },
                {
                    "name": "A#5",
                    "midi": 82,
                    "time": 446.610599000001,
                    "velocity": 0.5590551181102362,
                    "duration": 0.2733235000000036
                },
                {
                    "name": "F#5",
                    "midi": 78,
                    "time": 446.610599000001,
                    "velocity": 0.47244094488188976,
                    "duration": 0.2733235000000036
                },
                {
                    "name": "B4",
                    "midi": 71,
                    "time": 447.157246000001,
                    "velocity": 0.5354330708661418,
                    "duration": 0.2733235000000036
                },
                {
                    "name": "G#5",
                    "midi": 80,
                    "time": 447.157246000001,
                    "velocity": 0.6377952755905512,
                    "duration": 0.2733235000000036
                },
                {
                    "name": "A#4",
                    "midi": 70,
                    "time": 447.703893000001,
                    "velocity": 0.47244094488188976,
                    "duration": 0.2733235000000036
                },
                {
                    "name": "F#5",
                    "midi": 78,
                    "time": 447.703893000001,
                    "velocity": 0.5590551181102362,
                    "duration": 0.2733235000000036
                },
                {
                    "name": "G#4",
                    "midi": 68,
                    "time": 448.250540000001,
                    "velocity": 0.5354330708661418,
                    "duration": 0.2733235000000036
                },
                {
                    "name": "D#5",
                    "midi": 75,
                    "time": 448.250540000001,
                    "velocity": 0.6299212598425197,
                    "duration": 0.2733235000000036
                },
                {
                    "name": "F#4",
                    "midi": 66,
                    "time": 448.79718700000103,
                    "velocity": 0.5590551181102362,
                    "duration": 0.2733235000000036
                },
                {
                    "name": "C#5",
                    "midi": 73,
                    "time": 449.34383400000104,
                    "velocity": 0.5196850393700787,
                    "duration": 0.2733235000000036
                },
                {
                    "name": "F4",
                    "midi": 65,
                    "time": 449.34383400000104,
                    "velocity": 0.6141732283464567,
                    "duration": 0.2733235000000036
                },
                {
                    "name": "D#4",
                    "midi": 63,
                    "time": 449.89048100000105,
                    "velocity": 0.5590551181102362,
                    "duration": 0.2733235000000036
                },
                {
                    "name": "C5",
                    "midi": 72,
                    "time": 450.43712800000105,
                    "velocity": 0.5196850393700787,
                    "duration": 0.2733235000000036
                },
                {
                    "name": "C#4",
                    "midi": 61,
                    "time": 450.43712800000105,
                    "velocity": 0.6141732283464567,
                    "duration": 0.2733235000000036
                },
                {
                    "name": "C4",
                    "midi": 60,
                    "time": 450.98377500000106,
                    "velocity": 0.5590551181102362,
                    "duration": 0.2733235000000036
                },
                {
                    "name": "D#4",
                    "midi": 63,
                    "time": 451.53042200000107,
                    "velocity": 0.6141732283464567,
                    "duration": 3.2798819999999864
                },
                {
                    "name": "A5",
                    "midi": 81,
                    "time": 454.81030400000105,
                    "velocity": 0.5590551181102362,
                    "duration": 0.18221566666665012
                },
                {
                    "name": "C#5",
                    "midi": 73,
                    "time": 454.81030400000105,
                    "velocity": 0.5590551181102362,
                    "duration": 0.2733235000000036
                },
                {
                    "name": "A#5",
                    "midi": 82,
                    "time": 454.9925196666677,
                    "velocity": 0.5118110236220472,
                    "duration": 0.18221566666670697
                },
                {
                    "name": "A5",
                    "midi": 81,
                    "time": 455.1747353333344,
                    "velocity": 0.5590551181102362,
                    "duration": 0.18221566666665012
                },
                {
                    "name": "A#5",
                    "midi": 82,
                    "time": 455.35695100000106,
                    "velocity": 0.5196850393700787,
                    "duration": 0.18221566666665012
                },
                {
                    "name": "C5",
                    "midi": 72,
                    "time": 455.35695100000106,
                    "velocity": 0.5196850393700787,
                    "duration": 0.2733235000000036
                },
                {
                    "name": "A5",
                    "midi": 81,
                    "time": 455.5391666666677,
                    "velocity": 0.5590551181102362,
                    "duration": 0.18221566666670697
                },
                {
                    "name": "A#5",
                    "midi": 82,
                    "time": 455.7213823333344,
                    "velocity": 0.5196850393700787,
                    "duration": 0.18221566666665012
                },
                {
                    "name": "A5",
                    "midi": 81,
                    "time": 455.90359800000107,
                    "velocity": 0.5590551181102362,
                    "duration": 0.18221566666665012
                },
                {
                    "name": "F5",
                    "midi": 77,
                    "time": 455.90359800000107,
                    "velocity": 0.5590551181102362,
                    "duration": 0.2733235000000036
                },
                {
                    "name": "A#5",
                    "midi": 82,
                    "time": 456.0858136666677,
                    "velocity": 0.5196850393700787,
                    "duration": 0.18221566666670697
                },
                {
                    "name": "A5",
                    "midi": 81,
                    "time": 456.2680293333344,
                    "velocity": 0.5590551181102362,
                    "duration": 0.18221566666665012
                },
                {
                    "name": "A#5",
                    "midi": 82,
                    "time": 456.4502450000011,
                    "velocity": 0.5118110236220472,
                    "duration": 0.18221566666665012
                },
                {
                    "name": "D#5",
                    "midi": 75,
                    "time": 456.4502450000011,
                    "velocity": 0.5118110236220472,
                    "duration": 0.2733235000000036
                },
                {
                    "name": "A5",
                    "midi": 81,
                    "time": 456.6324606666677,
                    "velocity": 0.5590551181102362,
                    "duration": 0.18221566666670697
                },
                {
                    "name": "A#5",
                    "midi": 82,
                    "time": 456.81467633333443,
                    "velocity": 0.5118110236220472,
                    "duration": 0.18221566666665012
                },
                {
                    "name": "A5",
                    "midi": 81,
                    "time": 456.9968920000011,
                    "velocity": 0.5590551181102362,
                    "duration": 0.18221566666665012
                },
                {
                    "name": "C#5",
                    "midi": 73,
                    "time": 456.9968920000011,
                    "velocity": 0.5590551181102362,
                    "duration": 0.2733235000000036
                },
                {
                    "name": "A#5",
                    "midi": 82,
                    "time": 457.17910766666773,
                    "velocity": 0.5039370078740157,
                    "duration": 0.18221566666670697
                },
                {
                    "name": "A5",
                    "midi": 81,
                    "time": 457.36132333333444,
                    "velocity": 0.5590551181102362,
                    "duration": 0.18221566666665012
                },
                {
                    "name": "A#5",
                    "midi": 82,
                    "time": 457.5435390000011,
                    "velocity": 0.5275590551181102,
                    "duration": 0.18221566666665012
                },
                {
                    "name": "C5",
                    "midi": 72,
                    "time": 457.5435390000011,
                    "velocity": 0.5275590551181102,
                    "duration": 0.2733235000000036
                },
                {
                    "name": "A5",
                    "midi": 81,
                    "time": 457.72575466666774,
                    "velocity": 0.5590551181102362,
                    "duration": 0.18221566666670697
                },
                {
                    "name": "A#5",
                    "midi": 82,
                    "time": 457.90797033333445,
                    "velocity": 0.5275590551181102,
                    "duration": 0.18221566666665012
                },
                {
                    "name": "A5",
                    "midi": 81,
                    "time": 458.0901860000011,
                    "velocity": 0.5590551181102362,
                    "duration": 0.18221566666665012
                },
                {
                    "name": "F#5",
                    "midi": 78,
                    "time": 458.0901860000011,
                    "velocity": 0.5590551181102362,
                    "duration": 0.2733235000000036
                },
                {
                    "name": "A#5",
                    "midi": 82,
                    "time": 458.27240166666775,
                    "velocity": 0.5196850393700787,
                    "duration": 0.18221566666670697
                },
                {
                    "name": "A5",
                    "midi": 81,
                    "time": 458.45461733333445,
                    "velocity": 0.5590551181102362,
                    "duration": 0.18221566666665012
                },
                {
                    "name": "G5",
                    "midi": 79,
                    "time": 458.6368330000011,
                    "velocity": 0.5275590551181102,
                    "duration": 0.2733235000000036
                },
                {
                    "name": "C5",
                    "midi": 72,
                    "time": 458.6368330000011,
                    "velocity": 0.5275590551181102,
                    "duration": 0.2733235000000036
                },
                {
                    "name": "A5",
                    "midi": 81,
                    "time": 458.9101565000011,
                    "velocity": 0.5275590551181102,
                    "duration": 0.2733235000000036
                },
                {
                    "name": "D#5",
                    "midi": 75,
                    "time": 459.1834800000011,
                    "velocity": 0.5826771653543307,
                    "duration": 0.18221566666665012
                },
                {
                    "name": "A#5",
                    "midi": 82,
                    "time": 459.1834800000011,
                    "velocity": 0.5826771653543307,
                    "duration": 3.279881999999759
                },
                {
                    "name": "F5",
                    "midi": 77,
                    "time": 459.36569566666776,
                    "velocity": 0.5433070866141733,
                    "duration": 0.18221566666665012
                },
                {
                    "name": "D#5",
                    "midi": 75,
                    "time": 459.5479113333344,
                    "velocity": 0.5826771653543307,
                    "duration": 0.18221566666665012
                },
                {
                    "name": "F5",
                    "midi": 77,
                    "time": 459.73012700000106,
                    "velocity": 0.5433070866141733,
                    "duration": 0.18221566666665012
                },
                {
                    "name": "D#5",
                    "midi": 75,
                    "time": 459.9123426666677,
                    "velocity": 0.5826771653543307,
                    "duration": 0.18221566666665012
                },
                {
                    "name": "F5",
                    "midi": 77,
                    "time": 460.09455833333436,
                    "velocity": 0.5511811023622047,
                    "duration": 0.18221566666665012
                },
                {
                    "name": "D#5",
                    "midi": 75,
                    "time": 460.276774000001,
                    "velocity": 0.5826771653543307,
                    "duration": 0.18221566666665012
                },
                {
                    "name": "F5",
                    "midi": 77,
                    "time": 460.45898966666766,
                    "velocity": 0.5511811023622047,
                    "duration": 0.18221566666665012
                },
                {
                    "name": "D#5",
                    "midi": 75,
                    "time": 460.6412053333343,
                    "velocity": 0.5826771653543307,
                    "duration": 0.18221566666665012
                },
                {
                    "name": "F5",
                    "midi": 77,
                    "time": 460.82342100000096,
                    "velocity": 0.5275590551181102,
                    "duration": 0.18221566666665012
                },
                {
                    "name": "D#5",
                    "midi": 75,
                    "time": 461.0056366666676,
                    "velocity": 0.5826771653543307,
                    "duration": 0.18221566666665012
                },
                {
                    "name": "F5",
                    "midi": 77,
                    "time": 461.18785233333426,
                    "velocity": 0.5433070866141733,
                    "duration": 0.18221566666665012
                },
                {
                    "name": "D#5",
                    "midi": 75,
                    "time": 461.3700680000009,
                    "velocity": 0.5826771653543307,
                    "duration": 0.18221566666665012
                },
                {
                    "name": "F5",
                    "midi": 77,
                    "time": 461.55228366666756,
                    "velocity": 0.5433070866141733,
                    "duration": 0.18221566666665012
                },
                {
                    "name": "D#5",
                    "midi": 75,
                    "time": 461.7344993333342,
                    "velocity": 0.5826771653543307,
                    "duration": 0.18221566666665012
                },
                {
                    "name": "C#5",
                    "midi": 73,
                    "time": 461.91671500000086,
                    "velocity": 0.5511811023622047,
                    "duration": 0.2733235000000036
                },
                {
                    "name": "D#5",
                    "midi": 75,
                    "time": 462.19003850000087,
                    "velocity": 0.5354330708661418,
                    "duration": 0.2733235000000036
                },
                {
                    "name": "C#5",
                    "midi": 73,
                    "time": 462.46336200000087,
                    "velocity": 0.5511811023622047,
                    "duration": 0.2733235000000036
                },
                {
                    "name": "A#5",
                    "midi": 82,
                    "time": 462.46336200000087,
                    "velocity": 0.6535433070866141,
                    "duration": 0.2733235000000036
                },
                {
                    "name": "C5",
                    "midi": 72,
                    "time": 463.0100090000009,
                    "velocity": 0.4881889763779528,
                    "duration": 0.2733235000000036
                },
                {
                    "name": "G#5",
                    "midi": 80,
                    "time": 463.0100090000009,
                    "velocity": 0.5826771653543307,
                    "duration": 0.2733235000000036
                },
                {
                    "name": "A#4",
                    "midi": 70,
                    "time": 463.5566560000009,
                    "velocity": 0.4881889763779528,
                    "duration": 0.2733235000000036
                },
                {
                    "name": "F#5",
                    "midi": 78,
                    "time": 463.5566560000009,
                    "velocity": 0.5826771653543307,
                    "duration": 0.2733235000000036
                },
                {
                    "name": "G#4",
                    "midi": 68,
                    "time": 464.1033030000009,
                    "velocity": 0.4881889763779528,
                    "duration": 0.2733235000000036
                },
                {
                    "name": "F5",
                    "midi": 77,
                    "time": 464.1033030000009,
                    "velocity": 0.5826771653543307,
                    "duration": 0.2733235000000036
                },
                {
                    "name": "F#4",
                    "midi": 66,
                    "time": 464.6499500000009,
                    "velocity": 0.4881889763779528,
                    "duration": 0.2733235000000036
                },
                {
                    "name": "D#5",
                    "midi": 75,
                    "time": 464.6499500000009,
                    "velocity": 0.5826771653543307,
                    "duration": 0.2733235000000036
                },
                {
                    "name": "F4",
                    "midi": 65,
                    "time": 465.1965970000009,
                    "velocity": 0.4881889763779528,
                    "duration": 0.2733235000000036
                },
                {
                    "name": "C#5",
                    "midi": 73,
                    "time": 465.1965970000009,
                    "velocity": 0.5826771653543307,
                    "duration": 0.2733235000000036
                },
                {
                    "name": "D#5",
                    "midi": 75,
                    "time": 465.7432440000009,
                    "velocity": 0.5748031496062992,
                    "duration": 0.2733235000000036
                },
                {
                    "name": "F#5",
                    "midi": 78,
                    "time": 465.7432440000009,
                    "velocity": 0.6850393700787402,
                    "duration": 2.186588000000029
                },
                {
                    "name": "D#4",
                    "midi": 63,
                    "time": 466.2898910000009,
                    "velocity": 0.5590551181102362,
                    "duration": 0.2733235000000036
                },
                {
                    "name": "F4",
                    "midi": 65,
                    "time": 466.8365380000009,
                    "velocity": 0.5826771653543307,
                    "duration": 0.2733235000000036
                },
                {
                    "name": "F#4",
                    "midi": 66,
                    "time": 467.38318500000094,
                    "velocity": 0.6062992125984252,
                    "duration": 0.2733235000000036
                },
                {
                    "name": "G#4",
                    "midi": 68,
                    "time": 467.92983200000094,
                    "velocity": 0.6220472440944882,
                    "duration": 0.2733235000000036
                },
                {
                    "name": "A#4",
                    "midi": 70,
                    "time": 468.47647900000095,
                    "velocity": 0.6456692913385826,
                    "duration": 0.8199705000000108
                },
                {
                    "name": "F#5",
                    "midi": 78,
                    "time": 469.02312600000096,
                    "velocity": 0.6692913385826772,
                    "duration": 0.2733235000000036
                },
                {
                    "name": "G#4",
                    "midi": 68,
                    "time": 469.56977300000096,
                    "velocity": 0.5196850393700787,
                    "duration": 0.2733235000000036
                },
                {
                    "name": "F5",
                    "midi": 77,
                    "time": 469.56977300000096,
                    "velocity": 0.6141732283464567,
                    "duration": 0.2733235000000036
                },
                {
                    "name": "F#4",
                    "midi": 66,
                    "time": 470.11642000000097,
                    "velocity": 0.5039370078740157,
                    "duration": 0.2733235000000036
                },
                {
                    "name": "D#5",
                    "midi": 75,
                    "time": 470.11642000000097,
                    "velocity": 0.5984251968503937,
                    "duration": 0.2733235000000036
                },
                {
                    "name": "F4",
                    "midi": 65,
                    "time": 470.663067000001,
                    "velocity": 0.4881889763779528,
                    "duration": 0.2733235000000036
                },
                {
                    "name": "C#5",
                    "midi": 73,
                    "time": 470.663067000001,
                    "velocity": 0.5826771653543307,
                    "duration": 0.2733235000000036
                },
                {
                    "name": "E5",
                    "midi": 76,
                    "time": 471.209714000001,
                    "velocity": 0.6299212598425197,
                    "duration": 1.0932940000000144
                },
                {
                    "name": "G5",
                    "midi": 79,
                    "time": 471.209714000001,
                    "velocity": 0.6299212598425197,
                    "duration": 0.2733235000000036
                },
                {
                    "name": "C#6",
                    "midi": 85,
                    "time": 471.483037500001,
                    "velocity": 0.5511811023622047,
                    "duration": 0.2733235000000036
                },
                {
                    "name": "A#5",
                    "midi": 82,
                    "time": 471.756361000001,
                    "velocity": 0.5590551181102362,
                    "duration": 0.2733235000000036
                },
                {
                    "name": "G5",
                    "midi": 79,
                    "time": 472.029684500001,
                    "velocity": 0.5590551181102362,
                    "duration": 0.2733235000000036
                },
                {
                    "name": "E5",
                    "midi": 76,
                    "time": 472.303008000001,
                    "velocity": 0.5826771653543307,
                    "duration": 0.2733235000000036
                },
                {
                    "name": "A#5",
                    "midi": 82,
                    "time": 472.576331500001,
                    "velocity": 0.5433070866141733,
                    "duration": 0.2733235000000036
                },
                {
                    "name": "G5",
                    "midi": 79,
                    "time": 472.849655000001,
                    "velocity": 0.5511811023622047,
                    "duration": 0.2733235000000036
                },
                {
                    "name": "E5",
                    "midi": 76,
                    "time": 473.122978500001,
                    "velocity": 0.5511811023622047,
                    "duration": 0.2733235000000036
                },
                {
                    "name": "C#5",
                    "midi": 73,
                    "time": 473.396302000001,
                    "velocity": 0.5984251968503937,
                    "duration": 0.2733235000000036
                },
                {
                    "name": "G5",
                    "midi": 79,
                    "time": 473.669625500001,
                    "velocity": 0.5433070866141733,
                    "duration": 0.2733235000000036
                },
                {
                    "name": "E5",
                    "midi": 76,
                    "time": 473.942949000001,
                    "velocity": 0.5433070866141733,
                    "duration": 0.2733235000000036
                },
                {
                    "name": "C#5",
                    "midi": 73,
                    "time": 474.216272500001,
                    "velocity": 0.5433070866141733,
                    "duration": 0.2733235000000036
                },
                {
                    "name": "A#4",
                    "midi": 70,
                    "time": 474.48959600000103,
                    "velocity": 0.5196850393700787,
                    "duration": 3.2798820000000433
                },
                {
                    "name": "C5",
                    "midi": 72,
                    "time": 474.48959600000103,
                    "velocity": 0.6141732283464567,
                    "duration": 0.2733235000000036
                },
                {
                    "name": "G5",
                    "midi": 79,
                    "time": 474.76291950000103,
                    "velocity": 0.5433070866141733,
                    "duration": 0.2733235000000036
                },
                {
                    "name": "E5",
                    "midi": 76,
                    "time": 475.03624300000104,
                    "velocity": 0.5433070866141733,
                    "duration": 0.2733235000000036
                },
                {
                    "name": "C5",
                    "midi": 72,
                    "time": 475.30956650000104,
                    "velocity": 0.5433070866141733,
                    "duration": 0.2733235000000036
                },
                {
                    "name": "C#5",
                    "midi": 73,
                    "time": 475.58289000000104,
                    "velocity": 0.6062992125984252,
                    "duration": 0.2733235000000036
                },
                {
                    "name": "A#5",
                    "midi": 82,
                    "time": 475.85621350000105,
                    "velocity": 0.5433070866141733,
                    "duration": 0.2733235000000036
                },
                {
                    "name": "G5",
                    "midi": 79,
                    "time": 476.12953700000105,
                    "velocity": 0.5433070866141733,
                    "duration": 0.2733235000000036
                },
                {
                    "name": "E5",
                    "midi": 76,
                    "time": 476.40286050000105,
                    "velocity": 0.5433070866141733,
                    "duration": 0.2733235000000036
                },
                {
                    "name": "C5",
                    "midi": 72,
                    "time": 476.67618400000106,
                    "velocity": 0.6692913385826772,
                    "duration": 1.0932940000000144
                },
                {
                    "name": "A#5",
                    "midi": 82,
                    "time": 478.8627720000011,
                    "velocity": 0.6850393700787402,
                    "duration": 2.186587999999972
                },
                {
                    "name": "A#3",
                    "midi": 58,
                    "time": 481.04936000000106,
                    "velocity": 0.5511811023622047,
                    "duration": 3.279881999999702
                },
                {
                    "name": "G4",
                    "midi": 67,
                    "time": 481.04936000000106,
                    "velocity": 0.5590551181102362,
                    "duration": 0.18221566666665012
                },
                {
                    "name": "G#4",
                    "midi": 68,
                    "time": 481.2315756666677,
                    "velocity": 0.5196850393700787,
                    "duration": 0.18221566666665012
                },
                {
                    "name": "G4",
                    "midi": 67,
                    "time": 481.41379133333436,
                    "velocity": 0.49606299212598426,
                    "duration": 0.18221566666665012
                },
                {
                    "name": "G#4",
                    "midi": 68,
                    "time": 481.596007000001,
                    "velocity": 0.47244094488188976,
                    "duration": 0.18221566666665012
                },
                {
                    "name": "G4",
                    "midi": 67,
                    "time": 481.77822266666766,
                    "velocity": 0.49606299212598426,
                    "duration": 0.18221566666665012
                },
                {
                    "name": "G#4",
                    "midi": 68,
                    "time": 481.9604383333343,
                    "velocity": 0.4645669291338583,
                    "duration": 0.18221566666665012
                },
                {
                    "name": "G4",
                    "midi": 67,
                    "time": 482.14265400000096,
                    "velocity": 0.49606299212598426,
                    "duration": 0.18221566666665012
                },
                {
                    "name": "G#4",
                    "midi": 68,
                    "time": 482.3248696666676,
                    "velocity": 0.47244094488188976,
                    "duration": 0.18221566666665012
                },
                {
                    "name": "G4",
                    "midi": 67,
                    "time": 482.50708533333426,
                    "velocity": 0.49606299212598426,
                    "duration": 0.18221566666665012
                },
                {
                    "name": "G#4",
                    "midi": 68,
                    "time": 482.6893010000009,
                    "velocity": 0.4645669291338583,
                    "duration": 0.18221566666665012
                },
                {
                    "name": "G4",
                    "midi": 67,
                    "time": 482.87151666666756,
                    "velocity": 0.49606299212598426,
                    "duration": 0.18221566666665012
                },
                {
                    "name": "G#4",
                    "midi": 68,
                    "time": 483.0537323333342,
                    "velocity": 0.4645669291338583,
                    "duration": 0.18221566666665012
                },
                {
                    "name": "G4",
                    "midi": 67,
                    "time": 483.23594800000086,
                    "velocity": 0.49606299212598426,
                    "duration": 0.18221566666665012
                },
                {
                    "name": "G#4",
                    "midi": 68,
                    "time": 483.4181636666675,
                    "velocity": 0.47244094488188976,
                    "duration": 0.18221566666665012
                },
                {
                    "name": "G4",
                    "midi": 67,
                    "time": 483.60037933333416,
                    "velocity": 0.49606299212598426,
                    "duration": 0.18221566666665012
                },
                {
                    "name": "G#4",
                    "midi": 68,
                    "time": 483.7825950000008,
                    "velocity": 0.4645669291338583,
                    "duration": 0.18221566666665012
                },
                {
                    "name": "G4",
                    "midi": 67,
                    "time": 483.96481066666746,
                    "velocity": 0.49606299212598426,
                    "duration": 0.18221566666665012
                },
                {
                    "name": "G#4",
                    "midi": 68,
                    "time": 484.1470263333341,
                    "velocity": 0.4645669291338583,
                    "duration": 0.18221566666665012
                },
                {
                    "name": "C4",
                    "midi": 60,
                    "time": 484.32924200000076,
                    "velocity": 0.5511811023622047,
                    "duration": 0.5466470000000072
                },
                {
                    "name": "F4",
                    "midi": 65,
                    "time": 484.32924200000076,
                    "velocity": 0.5511811023622047,
                    "duration": 1.0932940000000144
                },
                {
                    "name": "D#5",
                    "midi": 75,
                    "time": 484.87588900000077,
                    "velocity": 0.5511811023622047,
                    "duration": 2.733234999999979
                },
                {
                    "name": "C4",
                    "midi": 60,
                    "time": 487.60912400000075,
                    "velocity": 0.47244094488188976,
                    "duration": 0.18221566666665012
                },
                {
                    "name": "C#4",
                    "midi": 61,
                    "time": 487.7913396666674,
                    "velocity": 0.4409448818897638,
                    "duration": 0.18221566666665012
                },
                {
                    "name": "C4",
                    "midi": 60,
                    "time": 487.97355533333405,
                    "velocity": 0.47244094488188976,
                    "duration": 0.18221566666665012
                },
                {
                    "name": "C#4",
                    "midi": 61,
                    "time": 488.1557710000007,
                    "velocity": 0.4409448818897638,
                    "duration": 0.18221566666665012
                },
                {
                    "name": "C4",
                    "midi": 60,
                    "time": 488.33798666666735,
                    "velocity": 0.47244094488188976,
                    "duration": 0.18221566666665012
                },
                {
                    "name": "C#4",
                    "midi": 61,
                    "time": 488.520202333334,
                    "velocity": 0.4409448818897638,
                    "duration": 0.18221566666665012
                },
                {
                    "name": "D#6",
                    "midi": 87,
                    "time": 488.70241800000065,
                    "velocity": 0.9133858267716536,
                    "duration": 2.1865879999998015
                },
                {
                    "name": "C4",
                    "midi": 60,
                    "time": 488.70241800000065,
                    "velocity": 0.47244094488188976,
                    "duration": 0.18221566666665012
                },
                {
                    "name": "C#4",
                    "midi": 61,
                    "time": 488.8846336666673,
                    "velocity": 0.4409448818897638,
                    "duration": 0.18221566666665012
                },
                {
                    "name": "C4",
                    "midi": 60,
                    "time": 489.06684933333395,
                    "velocity": 0.47244094488188976,
                    "duration": 0.18221566666665012
                },
                {
                    "name": "C#4",
                    "midi": 61,
                    "time": 489.2490650000006,
                    "velocity": 0.4409448818897638,
                    "duration": 0.18221566666665012
                },
                {
                    "name": "C4",
                    "midi": 60,
                    "time": 489.43128066666725,
                    "velocity": 0.47244094488188976,
                    "duration": 0.18221566666665012
                },
                {
                    "name": "C#4",
                    "midi": 61,
                    "time": 489.6134963333339,
                    "velocity": 0.4409448818897638,
                    "duration": 0.18221566666665012
                },
                {
                    "name": "C4",
                    "midi": 60,
                    "time": 489.79571200000055,
                    "velocity": 0.47244094488188976,
                    "duration": 0.18221566666665012
                },
                {
                    "name": "C#4",
                    "midi": 61,
                    "time": 489.9779276666672,
                    "velocity": 0.4409448818897638,
                    "duration": 0.18221566666665012
                },
                {
                    "name": "C4",
                    "midi": 60,
                    "time": 490.16014333333385,
                    "velocity": 0.47244094488188976,
                    "duration": 0.18221566666665012
                },
                {
                    "name": "C#4",
                    "midi": 61,
                    "time": 490.3423590000005,
                    "velocity": 0.4409448818897638,
                    "duration": 0.18221566666665012
                },
                {
                    "name": "C4",
                    "midi": 60,
                    "time": 490.52457466666715,
                    "velocity": 0.47244094488188976,
                    "duration": 0.18221566666665012
                },
                {
                    "name": "C#4",
                    "midi": 61,
                    "time": 490.7067903333338,
                    "velocity": 0.4409448818897638,
                    "duration": 0.18221566666665012
                },
                {
                    "name": "D#4",
                    "midi": 63,
                    "time": 490.88900600000045,
                    "velocity": 0.6220472440944882,
                    "duration": 2.1865879999998015
                },
                {
                    "name": "C5",
                    "midi": 72,
                    "time": 490.88900600000045,
                    "velocity": 0.47244094488188976,
                    "duration": 0.18221566666665012
                },
                {
                    "name": "C#5",
                    "midi": 73,
                    "time": 491.0712216666671,
                    "velocity": 0.4409448818897638,
                    "duration": 0.18221566666665012
                },
                {
                    "name": "C5",
                    "midi": 72,
                    "time": 491.25343733333375,
                    "velocity": 0.47244094488188976,
                    "duration": 0.18221566666665012
                },
                {
                    "name": "C#5",
                    "midi": 73,
                    "time": 491.4356530000004,
                    "velocity": 0.4409448818897638,
                    "duration": 0.18221566666665012
                },
                {
                    "name": "C5",
                    "midi": 72,
                    "time": 491.61786866666705,
                    "velocity": 0.47244094488188976,
                    "duration": 0.18221566666665012
                },
                {
                    "name": "C#5",
                    "midi": 73,
                    "time": 491.8000843333337,
                    "velocity": 0.4409448818897638,
                    "duration": 0.18221566666665012
                },
                {
                    "name": "C5",
                    "midi": 72,
                    "time": 491.98230000000035,
                    "velocity": 0.47244094488188976,
                    "duration": 0.18221566666665012
                },
                {
                    "name": "C#5",
                    "midi": 73,
                    "time": 492.164515666667,
                    "velocity": 0.4409448818897638,
                    "duration": 0.18221566666665012
                },
                {
                    "name": "C5",
                    "midi": 72,
                    "time": 492.34673133333365,
                    "velocity": 0.47244094488188976,
                    "duration": 0.18221566666665012
                },
                {
                    "name": "C#5",
                    "midi": 73,
                    "time": 492.5289470000003,
                    "velocity": 0.4409448818897638,
                    "duration": 0.18221566666665012
                },
                {
                    "name": "C5",
                    "midi": 72,
                    "time": 492.71116266666695,
                    "velocity": 0.47244094488188976,
                    "duration": 0.18221566666665012
                },
                {
                    "name": "C#5",
                    "midi": 73,
                    "time": 492.8933783333336,
                    "velocity": 0.4409448818897638,
                    "duration": 0.18221566666665012
                },
                {
                    "name": "E4",
                    "midi": 64,
                    "time": 493.07559400000025,
                    "velocity": 0.6220472440944882,
                    "duration": 1.0932939999999007
                },
                {
                    "name": "C5",
                    "midi": 72,
                    "time": 493.07559400000025,
                    "velocity": 0.47244094488188976,
                    "duration": 0.18221566666665012
                },
                {
                    "name": "C#5",
                    "midi": 73,
                    "time": 493.2578096666669,
                    "velocity": 0.4409448818897638,
                    "duration": 0.18221566666665012
                },
                {
                    "name": "C5",
                    "midi": 72,
                    "time": 493.44002533333355,
                    "velocity": 0.47244094488188976,
                    "duration": 0.18221566666665012
                },
                {
                    "name": "C#5",
                    "midi": 73,
                    "time": 493.6222410000002,
                    "velocity": 0.4409448818897638,
                    "duration": 0.18221566666665012
                },
                {
                    "name": "C5",
                    "midi": 72,
                    "time": 493.80445666666685,
                    "velocity": 0.47244094488188976,
                    "duration": 0.18221566666665012
                },
                {
                    "name": "C#5",
                    "midi": 73,
                    "time": 493.9866723333335,
                    "velocity": 0.4409448818897638,
                    "duration": 0.18221566666665012
                },
                {
                    "name": "A#4",
                    "midi": 70,
                    "time": 494.16888800000015,
                    "velocity": 0.4645669291338583,
                    "duration": 1.0932940000000144
                },
                {
                    "name": "F4",
                    "midi": 65,
                    "time": 494.16888800000015,
                    "velocity": 0.4645669291338583,
                    "duration": 0.5466470000000072
                },
                {
                    "name": "C#5",
                    "midi": 73,
                    "time": 494.71553500000016,
                    "velocity": 0.4645669291338583,
                    "duration": 2.733234999999979
                },
                {
                    "name": "C#6",
                    "midi": 85,
                    "time": 497.44877000000014,
                    "velocity": 0.8661417322834646,
                    "duration": 3.2798819999996454
                },
                {
                    "name": "A#3",
                    "midi": 58,
                    "time": 497.44877000000014,
                    "velocity": 0.4015748031496063,
                    "duration": 0.18221566666665012
                },
                {
                    "name": "C4",
                    "midi": 60,
                    "time": 497.6309856666668,
                    "velocity": 0.3700787401574803,
                    "duration": 0.18221566666665012
                },
                {
                    "name": "A#3",
                    "midi": 58,
                    "time": 497.81320133333344,
                    "velocity": 0.4015748031496063,
                    "duration": 0.18221566666665012
                },
                {
                    "name": "C4",
                    "midi": 60,
                    "time": 497.9954170000001,
                    "velocity": 0.3700787401574803,
                    "duration": 0.18221566666665012
                },
                {
                    "name": "A#3",
                    "midi": 58,
                    "time": 498.17763266666674,
                    "velocity": 0.4015748031496063,
                    "duration": 0.18221566666665012
                },
                {
                    "name": "C4",
                    "midi": 60,
                    "time": 498.3598483333334,
                    "velocity": 0.3700787401574803,
                    "duration": 0.18221566666665012
                },
                {
                    "name": "A#3",
                    "midi": 58,
                    "time": 498.54206400000004,
                    "velocity": 0.47244094488188976,
                    "duration": 0.18221566666665012
                },
                {
                    "name": "C4",
                    "midi": 60,
                    "time": 498.7242796666667,
                    "velocity": 0.4409448818897638,
                    "duration": 0.18221566666665012
                },
                {
                    "name": "A#3",
                    "midi": 58,
                    "time": 498.90649533333334,
                    "velocity": 0.47244094488188976,
                    "duration": 0.18221566666665012
                },
                {
                    "name": "C4",
                    "midi": 60,
                    "time": 499.088711,
                    "velocity": 0.4409448818897638,
                    "duration": 0.18221566666665012
                },
                {
                    "name": "A#3",
                    "midi": 58,
                    "time": 499.27092666666664,
                    "velocity": 0.47244094488188976,
                    "duration": 0.18221566666665012
                },
                {
                    "name": "C4",
                    "midi": 60,
                    "time": 499.4531423333333,
                    "velocity": 0.4409448818897638,
                    "duration": 0.18221566666665012
                },
                {
                    "name": "A#3",
                    "midi": 58,
                    "time": 499.63535799999994,
                    "velocity": 0.47244094488188976,
                    "duration": 0.18221566666665012
                },
                {
                    "name": "C4",
                    "midi": 60,
                    "time": 499.8175736666666,
                    "velocity": 0.4409448818897638,
                    "duration": 0.18221566666665012
                },
                {
                    "name": "A#3",
                    "midi": 58,
                    "time": 499.99978933333324,
                    "velocity": 0.47244094488188976,
                    "duration": 0.18221566666665012
                },
                {
                    "name": "C4",
                    "midi": 60,
                    "time": 500.1820049999999,
                    "velocity": 0.47244094488188976,
                    "duration": 0.13666174999997338
                },
                {
                    "name": "A#3",
                    "midi": 58,
                    "time": 500.31866674999986,
                    "velocity": 0.4409448818897638,
                    "duration": 0.13666174999997338
                },
                {
                    "name": "A3",
                    "midi": 57,
                    "time": 500.45532849999984,
                    "velocity": 0.4409448818897638,
                    "duration": 0.13666174999997338
                },
                {
                    "name": "A#3",
                    "midi": 58,
                    "time": 500.5919902499998,
                    "velocity": 0.4409448818897638,
                    "duration": 0.13666174999997338
                },
                {
                    "name": "C#4",
                    "midi": 61,
                    "time": 500.7286519999998,
                    "velocity": 0.6220472440944882,
                    "duration": 3.279881999999702
                },
                {
                    "name": "A#4",
                    "midi": 70,
                    "time": 500.7286519999998,
                    "velocity": 0.47244094488188976,
                    "duration": 0.18221566666665012
                },
                {
                    "name": "C5",
                    "midi": 72,
                    "time": 500.91086766666643,
                    "velocity": 0.4409448818897638,
                    "duration": 0.18221566666665012
                },
                {
                    "name": "A#4",
                    "midi": 70,
                    "time": 501.0930833333331,
                    "velocity": 0.47244094488188976,
                    "duration": 0.18221566666665012
                },
                {
                    "name": "C5",
                    "midi": 72,
                    "time": 501.27529899999973,
                    "velocity": 0.4409448818897638,
                    "duration": 0.18221566666665012
                },
                {
                    "name": "A#4",
                    "midi": 70,
                    "time": 501.4575146666664,
                    "velocity": 0.47244094488188976,
                    "duration": 0.18221566666665012
                },
                {
                    "name": "C5",
                    "midi": 72,
                    "time": 501.63973033333303,
                    "velocity": 0.4409448818897638,
                    "duration": 0.18221566666665012
                },
                {
                    "name": "A#4",
                    "midi": 70,
                    "time": 501.8219459999997,
                    "velocity": 0.47244094488188976,
                    "duration": 0.18221566666665012
                },
                {
                    "name": "C5",
                    "midi": 72,
                    "time": 502.00416166666633,
                    "velocity": 0.4409448818897638,
                    "duration": 0.18221566666665012
                },
                {
                    "name": "A#4",
                    "midi": 70,
                    "time": 502.186377333333,
                    "velocity": 0.47244094488188976,
                    "duration": 0.18221566666665012
                },
                {
                    "name": "C5",
                    "midi": 72,
                    "time": 502.36859299999963,
                    "velocity": 0.4409448818897638,
                    "duration": 0.18221566666665012
                },
                {
                    "name": "A#4",
                    "midi": 70,
                    "time": 502.5508086666663,
                    "velocity": 0.47244094488188976,
                    "duration": 0.18221566666665012
                },
                {
                    "name": "C5",
                    "midi": 72,
                    "time": 502.73302433333293,
                    "velocity": 0.4409448818897638,
                    "duration": 0.18221566666665012
                },
                {
                    "name": "A#4",
                    "midi": 70,
                    "time": 502.9152399999996,
                    "velocity": 0.47244094488188976,
                    "duration": 0.18221566666665012
                },
                {
                    "name": "C5",
                    "midi": 72,
                    "time": 503.09745566666624,
                    "velocity": 0.4409448818897638,
                    "duration": 0.18221566666665012
                },
                {
                    "name": "A#4",
                    "midi": 70,
                    "time": 503.2796713333329,
                    "velocity": 0.47244094488188976,
                    "duration": 0.18221566666665012
                },
                {
                    "name": "C5",
                    "midi": 72,
                    "time": 503.46188699999954,
                    "velocity": 0.4409448818897638,
                    "duration": 0.18221566666665012
                },
                {
                    "name": "A#4",
                    "midi": 70,
                    "time": 503.6441026666662,
                    "velocity": 0.47244094488188976,
                    "duration": 0.18221566666665012
                },
                {
                    "name": "C5",
                    "midi": 72,
                    "time": 503.82631833333284,
                    "velocity": 0.4409448818897638,
                    "duration": 0.18221566666665012
                },
                {
                    "name": "G4",
                    "midi": 67,
                    "time": 504.0085339999995,
                    "velocity": 0.5433070866141733,
                    "duration": 1.639940999999851
                },
                {
                    "name": "A#4",
                    "midi": 70,
                    "time": 504.0085339999995,
                    "velocity": 0.47244094488188976,
                    "duration": 0.18221566666665012
                },
                {
                    "name": "C5",
                    "midi": 72,
                    "time": 504.19074966666614,
                    "velocity": 0.4409448818897638,
                    "duration": 0.18221566666665012
                },
                {
                    "name": "A#4",
                    "midi": 70,
                    "time": 504.3729653333328,
                    "velocity": 0.47244094488188976,
                    "duration": 0.18221566666665012
                },
                {
                    "name": "C5",
                    "midi": 72,
                    "time": 504.55518099999944,
                    "velocity": 0.4409448818897638,
                    "duration": 0.18221566666665012
                },
                {
                    "name": "A#4",
                    "midi": 70,
                    "time": 504.7373966666661,
                    "velocity": 0.47244094488188976,
                    "duration": 0.18221566666665012
                },
                {
                    "name": "C5",
                    "midi": 72,
                    "time": 504.91961233333274,
                    "velocity": 0.4409448818897638,
                    "duration": 0.18221566666665012
                },
                {
                    "name": "A#4",
                    "midi": 70,
                    "time": 505.1018279999994,
                    "velocity": 0.47244094488188976,
                    "duration": 0.18221566666665012
                },
                {
                    "name": "C5",
                    "midi": 72,
                    "time": 505.28404366666604,
                    "velocity": 0.4409448818897638,
                    "duration": 0.18221566666665012
                },
                {
                    "name": "A#4",
                    "midi": 70,
                    "time": 505.4662593333327,
                    "velocity": 0.47244094488188976,
                    "duration": 0.18221566666665012
                },
                {
                    "name": "F4",
                    "midi": 65,
                    "time": 505.64847499999934,
                    "velocity": 0.4645669291338583,
                    "duration": 0.5466469999999504
                },
                {
                    "name": "C5",
                    "midi": 72,
                    "time": 505.64847499999934,
                    "velocity": 0.4409448818897638,
                    "duration": 0.18221566666665012
                },
                {
                    "name": "A#4",
                    "midi": 70,
                    "time": 505.830690666666,
                    "velocity": 0.47244094488188976,
                    "duration": 0.18221566666665012
                },
                {
                    "name": "C5",
                    "midi": 72,
                    "time": 506.01290633333264,
                    "velocity": 0.4409448818897638,
                    "duration": 0.18221566666665012
                },
                {
                    "name": "D#4",
                    "midi": 63,
                    "time": 506.1951219999993,
                    "velocity": 0.4645669291338583,
                    "duration": 0.5466469999999504
                },
                {
                    "name": "A#4",
                    "midi": 70,
                    "time": 506.1951219999993,
                    "velocity": 0.47244094488188976,
                    "duration": 0.18221566666665012
                },
                {
                    "name": "C5",
                    "midi": 72,
                    "time": 506.37733766666594,
                    "velocity": 0.4409448818897638,
                    "duration": 0.18221566666665012
                },
                {
                    "name": "A#4",
                    "midi": 70,
                    "time": 506.5595533333326,
                    "velocity": 0.47244094488188976,
                    "duration": 0.18221566666665012
                },
                {
                    "name": "C5",
                    "midi": 72,
                    "time": 506.74176899999924,
                    "velocity": 0.4409448818897638,
                    "duration": 0.13666174999997338
                },
                {
                    "name": "C#4",
                    "midi": 61,
                    "time": 506.74176899999924,
                    "velocity": 0.4645669291338583,
                    "duration": 0.5466469999998935
                },
                {
                    "name": "A#4",
                    "midi": 70,
                    "time": 506.8784307499992,
                    "velocity": 0.4409448818897638,
                    "duration": 0.13666174999997338
                },
                {
                    "name": "A4",
                    "midi": 69,
                    "time": 507.0150924999992,
                    "velocity": 0.41732283464566927,
                    "duration": 0.13666174999997338
                },
                {
                    "name": "A#4",
                    "midi": 70,
                    "time": 507.15175424999916,
                    "velocity": 0.4251968503937008,
                    "duration": 0.13666174999997338
                },
                {
                    "name": "F5",
                    "midi": 77,
                    "time": 507.28841599999913,
                    "velocity": 0.5433070866141733,
                    "duration": 1.6399410000000216
                },
                {
                    "name": "D#5",
                    "midi": 75,
                    "time": 508.92835699999915,
                    "velocity": 0.3700787401574803,
                    "duration": 0.5466470000000072
                },
                {
                    "name": "C#5",
                    "midi": 73,
                    "time": 509.47500399999916,
                    "velocity": 0.4015748031496063,
                    "duration": 0.5466470000000072
                },
                {
                    "name": "C5",
                    "midi": 72,
                    "time": 510.02165099999917,
                    "velocity": 0.3779527559055118,
                    "duration": 0.5466470000000072
                },
                {
                    "name": "G4",
                    "midi": 67,
                    "time": 510.5682979999992,
                    "velocity": 0.4015748031496063,
                    "duration": 0.5466470000000072
                },
                {
                    "name": "B4",
                    "midi": 71,
                    "time": 510.5682979999992,
                    "velocity": 0.4015748031496063,
                    "duration": 0.5466470000000072
                },
                {
                    "name": "G#4",
                    "midi": 68,
                    "time": 511.1149449999992,
                    "velocity": 0.36220472440944884,
                    "duration": 0.5466470000000072
                },
                {
                    "name": "C5",
                    "midi": 72,
                    "time": 511.1149449999992,
                    "velocity": 0.36220472440944884,
                    "duration": 0.5466470000000072
                },
                {
                    "name": "A4",
                    "midi": 69,
                    "time": 511.6615919999992,
                    "velocity": 0.4015748031496063,
                    "duration": 0.5466469999999504
                },
                {
                    "name": "D#5",
                    "midi": 75,
                    "time": 511.6615919999992,
                    "velocity": 0.4015748031496063,
                    "duration": 0.5466469999999504
                },
                {
                    "name": "A#4",
                    "midi": 70,
                    "time": 512.2082389999991,
                    "velocity": 0.3779527559055118,
                    "duration": 0.5466470000000072
                },
                {
                    "name": "C#5",
                    "midi": 73,
                    "time": 512.2082389999991,
                    "velocity": 0.3779527559055118,
                    "duration": 0.5466470000000072
                },
                {
                    "name": "D#4",
                    "midi": 63,
                    "time": 512.7548859999991,
                    "velocity": 0.4015748031496063,
                    "duration": 0.5466470000000072
                },
                {
                    "name": "C5",
                    "midi": 72,
                    "time": 512.7548859999991,
                    "velocity": 0.4015748031496063,
                    "duration": 0.5466470000000072
                },
                {
                    "name": "C#4",
                    "midi": 61,
                    "time": 513.3015329999992,
                    "velocity": 0.3858267716535433,
                    "duration": 1.0932940000000144
                },
                {
                    "name": "A#4",
                    "midi": 70,
                    "time": 513.3015329999992,
                    "velocity": 0.3858267716535433,
                    "duration": 0.5466470000000072
                },
                {
                    "name": "A4",
                    "midi": 69,
                    "time": 513.8481799999992,
                    "velocity": 0.4015748031496063,
                    "duration": 0.5466470000000072
                },
                {
                    "name": "C#4",
                    "midi": 61,
                    "time": 514.3948269999992,
                    "velocity": 0.3543307086614173,
                    "duration": 1.0932940000000144
                },
                {
                    "name": "A#4",
                    "midi": 70,
                    "time": 514.3948269999992,
                    "velocity": 0.3543307086614173,
                    "duration": 0.5466470000000072
                },
                {
                    "name": "D#4",
                    "midi": 63,
                    "time": 514.9414739999992,
                    "velocity": 0.4015748031496063,
                    "duration": 1.0932939999999007
                },
                {
                    "name": "C4",
                    "midi": 60,
                    "time": 515.4881209999992,
                    "velocity": 0.3543307086614173,
                    "duration": 0.5352585208332812
                },
                {
                    "name": "G#5",
                    "midi": 80,
                    "time": 516.308091499999,
                    "velocity": 0.4094488188976378,
                    "duration": 0.3279881999999361
                },
                {
                    "name": "G5",
                    "midi": 79,
                    "time": 516.581414999999,
                    "velocity": 0.4015748031496063,
                    "duration": 0.3279881999999361
                },
                {
                    "name": "F5",
                    "midi": 77,
                    "time": 516.8547384999989,
                    "velocity": 0.3937007874015748,
                    "duration": 0.3279881999999361
                },
                {
                    "name": "D#5",
                    "midi": 75,
                    "time": 517.1280619999989,
                    "velocity": 0.47244094488188976,
                    "duration": 0.27332349999994676
                },
                {
                    "name": "A#4",
                    "midi": 70,
                    "time": 517.4013854999988,
                    "velocity": 0.3779527559055118,
                    "duration": 0.27332349999994676
                },
                {
                    "name": "C5",
                    "midi": 72,
                    "time": 517.6747089999988,
                    "velocity": 0.31496062992125984,
                    "duration": 0.27332349999994676
                },
                {
                    "name": "G5",
                    "midi": 79,
                    "time": 517.6747089999988,
                    "velocity": 0.5039370078740157,
                    "duration": 0.27332349999994676
                },
                {
                    "name": "C#5",
                    "midi": 73,
                    "time": 517.9480324999987,
                    "velocity": 0.41732283464566927,
                    "duration": 0.27332349999994676
                },
                {
                    "name": "C5",
                    "midi": 72,
                    "time": 518.2213559999987,
                    "velocity": 0.3779527559055118,
                    "duration": 0.27332349999994676
                },
                {
                    "name": "G#5",
                    "midi": 80,
                    "time": 518.2213559999987,
                    "velocity": 0.5354330708661418,
                    "duration": 0.5466469999998935
                },
                {
                    "name": "C4",
                    "midi": 60,
                    "time": 518.4946794999986,
                    "velocity": 0.3779527559055118,
                    "duration": 0.27332349999994676
                },
                {
                    "name": "D#4",
                    "midi": 63,
                    "time": 518.7680029999985,
                    "velocity": 0.3779527559055118,
                    "duration": 0.27332349999994676
                },
                {
                    "name": "G#4",
                    "midi": 68,
                    "time": 519.0413264999985,
                    "velocity": 0.3779527559055118,
                    "duration": 0.27332349999994676
                },
                {
                    "name": "C5",
                    "midi": 72,
                    "time": 519.3146499999984,
                    "velocity": 0.4645669291338583,
                    "duration": 0.27332349999994676
                },
                {
                    "name": "C6",
                    "midi": 84,
                    "time": 519.5879734999984,
                    "velocity": 0.4094488188976378,
                    "duration": 0.27332349999994676
                },
                {
                    "name": "A#5",
                    "midi": 82,
                    "time": 519.8612969999983,
                    "velocity": 0.4015748031496063,
                    "duration": 0.27332349999994676
                },
                {
                    "name": "C#5",
                    "midi": 73,
                    "time": 519.8612969999983,
                    "velocity": 0.4881889763779528,
                    "duration": 0.27332349999994676
                },
                {
                    "name": "G#5",
                    "midi": 80,
                    "time": 520.1346204999983,
                    "velocity": 0.3937007874015748,
                    "duration": 0.27332349999994676
                },
                {
                    "name": "G5",
                    "midi": 79,
                    "time": 520.4079439999982,
                    "velocity": 0.3937007874015748,
                    "duration": 1.0932940000000144
                },
                {
                    "name": "D#5",
                    "midi": 75,
                    "time": 520.4079439999982,
                    "velocity": 0.5118110236220472,
                    "duration": 1.639940999999908
                },
                {
                    "name": "G#5",
                    "midi": 80,
                    "time": 521.5012379999982,
                    "velocity": 0.4015748031496063,
                    "duration": 0.27332349999994676
                },
                {
                    "name": "C5",
                    "midi": 72,
                    "time": 521.7745614999982,
                    "velocity": 0.3937007874015748,
                    "duration": 0.27332349999994676
                },
                {
                    "name": "D#5",
                    "midi": 75,
                    "time": 522.0478849999981,
                    "velocity": 0.3779527559055118,
                    "duration": 0.27332349999994676
                },
                {
                    "name": "G#5",
                    "midi": 80,
                    "time": 522.3212084999981,
                    "velocity": 0.44881889763779526,
                    "duration": 0.27332349999994676
                },
                {
                    "name": "C6",
                    "midi": 84,
                    "time": 522.594531999998,
                    "velocity": 0.5826771653543307,
                    "duration": 0.27332349999994676
                },
                {
                    "name": "C#6",
                    "midi": 85,
                    "time": 523.1411789999979,
                    "velocity": 0.6062992125984252,
                    "duration": 0.27332349999994676
                },
                {
                    "name": "D#6",
                    "midi": 87,
                    "time": 523.6878259999978,
                    "velocity": 0.6299212598425197,
                    "duration": 1.0932940000000144
                },
                {
                    "name": "C4",
                    "midi": 60,
                    "time": 524.7811199999978,
                    "velocity": 0.49606299212598426,
                    "duration": 0.27332349999994676
                },
                {
                    "name": "C5",
                    "midi": 72,
                    "time": 525.0544434999978,
                    "velocity": 0.4094488188976378,
                    "duration": 0.27332349999994676
                },
                {
                    "name": "A#4",
                    "midi": 70,
                    "time": 525.3277669999977,
                    "velocity": 0.3937007874015748,
                    "duration": 0.27332349999994676
                },
                {
                    "name": "C#4",
                    "midi": 61,
                    "time": 525.3277669999977,
                    "velocity": 0.5118110236220472,
                    "duration": 0.27332349999994676
                },
                {
                    "name": "G#4",
                    "midi": 68,
                    "time": 525.6010904999977,
                    "velocity": 0.3858267716535433,
                    "duration": 0.27332349999994676
                },
                {
                    "name": "G4",
                    "midi": 67,
                    "time": 525.8744139999976,
                    "velocity": 0.3937007874015748,
                    "duration": 1.0932940000000144
                },
                {
                    "name": "D#4",
                    "midi": 63,
                    "time": 525.8744139999976,
                    "velocity": 0.5354330708661418,
                    "duration": 1.3666174999999612
                },
                {
                    "name": "G#4",
                    "midi": 68,
                    "time": 526.9677079999976,
                    "velocity": 0.3937007874015748,
                    "duration": 1.3666174999997338
                },
                {
                    "name": "C4",
                    "midi": 60,
                    "time": 527.2410314999976,
                    "velocity": 0.4881889763779528,
                    "duration": 0.27332349999994676
                },
                {
                    "name": "A#3",
                    "midi": 58,
                    "time": 527.5143549999975,
                    "velocity": 0.5118110236220472,
                    "duration": 0.27332349999994676
                },
                {
                    "name": "G#3",
                    "midi": 56,
                    "time": 527.7876784999975,
                    "velocity": 0.5354330708661418,
                    "duration": 0.27332349999994676
                },
                {
                    "name": "C4",
                    "midi": 60,
                    "time": 528.0610019999974,
                    "velocity": 0.5590551181102362,
                    "duration": 0.5466469999998935
                },
                {
                    "name": "G#4",
                    "midi": 68,
                    "time": 528.3343254999974,
                    "velocity": 0.4881889763779528,
                    "duration": 0.27332349999994676
                },
                {
                    "name": "C5",
                    "midi": 72,
                    "time": 528.6076489999973,
                    "velocity": 0.5118110236220472,
                    "duration": 0.27332349999994676
                },
                {
                    "name": "F5",
                    "midi": 77,
                    "time": 528.8809724999973,
                    "velocity": 0.5275590551181102,
                    "duration": 0.27332349999994676
                },
                {
                    "name": "G#5",
                    "midi": 80,
                    "time": 529.1542959999972,
                    "velocity": 0.5669291338582677,
                    "duration": 0.27332349999994676
                },
                {
                    "name": "F5",
                    "midi": 77,
                    "time": 529.4276194999971,
                    "velocity": 0.5118110236220472,
                    "duration": 0.27332349999994676
                },
                {
                    "name": "D#5",
                    "midi": 75,
                    "time": 529.7009429999971,
                    "velocity": 0.5118110236220472,
                    "duration": 0.27332349999994676
                },
                {
                    "name": "A#5",
                    "midi": 82,
                    "time": 529.7009429999971,
                    "velocity": 0.5905511811023622,
                    "duration": 0.27332349999994676
                },
                {
                    "name": "C#5",
                    "midi": 73,
                    "time": 529.974266499997,
                    "velocity": 0.4881889763779528,
                    "duration": 0.27332349999994676
                },
                {
                    "name": "C5",
                    "midi": 72,
                    "time": 530.247589999997,
                    "velocity": 0.5196850393700787,
                    "duration": 1.3666174999999612
                },
                {
                    "name": "C6",
                    "midi": 84,
                    "time": 530.247589999997,
                    "velocity": 0.6220472440944882,
                    "duration": 2.1865879999998015
                },
                {
                    "name": "G#4",
                    "midi": 68,
                    "time": 531.614207499997,
                    "velocity": 0.5118110236220472,
                    "duration": 0.3279881999999361
                },
                {
                    "name": "G4",
                    "midi": 67,
                    "time": 531.8875309999969,
                    "velocity": 0.49606299212598426,
                    "duration": 0.3279881999999361
                },
                {
                    "name": "F4",
                    "midi": 65,
                    "time": 532.1608544999968,
                    "velocity": 0.48031496062992124,
                    "duration": 0.3279881999999361
                },
                {
                    "name": "G#4",
                    "midi": 68,
                    "time": 532.4341779999968,
                    "velocity": 0.5590551181102362,
                    "duration": 1.3666174999997338
                },
                {
                    "name": "G#5",
                    "midi": 80,
                    "time": 532.7075014999967,
                    "velocity": 0.5118110236220472,
                    "duration": 0.27332349999994676
                },
                {
                    "name": "G5",
                    "midi": 79,
                    "time": 532.9808249999967,
                    "velocity": 0.5433070866141733,
                    "duration": 0.27332349999994676
                },
                {
                    "name": "F5",
                    "midi": 77,
                    "time": 533.2541484999966,
                    "velocity": 0.49606299212598426,
                    "duration": 0.27332349999994676
                },
                {
                    "name": "E5",
                    "midi": 76,
                    "time": 533.5274719999966,
                    "velocity": 0.5590551181102362,
                    "duration": 0.27332349999994676
                },
                {
                    "name": "C5",
                    "midi": 72,
                    "time": 533.8007954999965,
                    "velocity": 0.48031496062992124,
                    "duration": 0.27332349999994676
                },
                {
                    "name": "A#4",
                    "midi": 70,
                    "time": 534.0741189999965,
                    "velocity": 0.5118110236220472,
                    "duration": 0.27332349999994676
                },
                {
                    "name": "F5",
                    "midi": 77,
                    "time": 534.0741189999965,
                    "velocity": 0.5118110236220472,
                    "duration": 0.27332349999994676
                },
                {
                    "name": "G#4",
                    "midi": 68,
                    "time": 534.3474424999964,
                    "velocity": 0.47244094488188976,
                    "duration": 0.27332349999994676
                },
                {
                    "name": "G#5",
                    "midi": 80,
                    "time": 534.6207659999964,
                    "velocity": 0.5196850393700787,
                    "duration": 0.27332349999994676
                },
                {
                    "name": "A#5",
                    "midi": 82,
                    "time": 535.1674129999963,
                    "velocity": 0.5354330708661418,
                    "duration": 0.27332349999994676
                },
                {
                    "name": "C6",
                    "midi": 84,
                    "time": 535.7140599999962,
                    "velocity": 0.5433070866141733,
                    "duration": 1.3666174999997338
                },
                {
                    "name": "C5",
                    "midi": 72,
                    "time": 535.9873834999961,
                    "velocity": 0.4881889763779528,
                    "duration": 0.27332349999994676
                },
                {
                    "name": "D5",
                    "midi": 74,
                    "time": 536.260706999996,
                    "velocity": 0.5039370078740157,
                    "duration": 0.27332349999994676
                },
                {
                    "name": "E5",
                    "midi": 76,
                    "time": 536.534030499996,
                    "velocity": 0.5196850393700787,
                    "duration": 0.27332349999994676
                },
                {
                    "name": "F5",
                    "midi": 77,
                    "time": 536.8073539999959,
                    "velocity": 0.5354330708661418,
                    "duration": 1.093293999999787
                },
                {
                    "name": "G#5",
                    "midi": 80,
                    "time": 537.0806774999959,
                    "velocity": 0.4881889763779528,
                    "duration": 0.27332349999994676
                },
                {
                    "name": "G5",
                    "midi": 79,
                    "time": 537.3540009999958,
                    "velocity": 0.5118110236220472,
                    "duration": 0.27332349999994676
                },
                {
                    "name": "F5",
                    "midi": 77,
                    "time": 537.6273244999958,
                    "velocity": 0.47244094488188976,
                    "duration": 0.27332349999994676
                },
                {
                    "name": "A5",
                    "midi": 81,
                    "time": 537.9006479999957,
                    "velocity": 0.5196850393700787,
                    "duration": 0.27332349999994676
                },
                {
                    "name": "A#5",
                    "midi": 82,
                    "time": 538.4472949999956,
                    "velocity": 0.5433070866141733,
                    "duration": 0.27332349999994676
                },
                {
                    "name": "C6",
                    "midi": 84,
                    "time": 538.9939419999955,
                    "velocity": 0.5669291338582677,
                    "duration": 1.3666174999997338
                },
                {
                    "name": "C5",
                    "midi": 72,
                    "time": 539.2672654999955,
                    "velocity": 0.4566929133858268,
                    "duration": 0.27332349999994676
                },
                {
                    "name": "D5",
                    "midi": 74,
                    "time": 539.5405889999954,
                    "velocity": 0.48031496062992124,
                    "duration": 0.27332349999994676
                },
                {
                    "name": "E5",
                    "midi": 76,
                    "time": 539.8139124999954,
                    "velocity": 0.5039370078740157,
                    "duration": 0.27332349999994676
                },
                {
                    "name": "F5",
                    "midi": 77,
                    "time": 540.0872359999953,
                    "velocity": 0.5354330708661418,
                    "duration": 0.8154151083332408
                },
                {
                    "name": "A5",
                    "midi": 81,
                    "time": 540.3605594999952,
                    "velocity": 0.49606299212598426,
                    "duration": 0.27332349999994676
                },
                {
                    "name": "G5",
                    "midi": 79,
                    "time": 540.6338829999952,
                    "velocity": 0.5118110236220472,
                    "duration": 0.27332350000006045
                },
                {
                    "name": "F5",
                    "midi": 77,
                    "time": 540.9072064999953,
                    "velocity": 0.4881889763779528,
                    "duration": 0.27332349999994676
                },
                {
                    "name": "A#5",
                    "midi": 82,
                    "time": 541.1805299999952,
                    "velocity": 0.5354330708661418,
                    "duration": 0.27332349999994676
                },
                {
                    "name": "C6",
                    "midi": 84,
                    "time": 541.7271769999951,
                    "velocity": 0.5590551181102362,
                    "duration": 0.27332349999994676
                },
                {
                    "name": "C#6",
                    "midi": 85,
                    "time": 542.273823999995,
                    "velocity": 0.5826771653543307,
                    "duration": 1.3666174999998475
                },
                {
                    "name": "F5",
                    "midi": 77,
                    "time": 542.5471474999949,
                    "velocity": 0.4645669291338583,
                    "duration": 0.27332349999994676
                },
                {
                    "name": "G5",
                    "midi": 79,
                    "time": 542.8204709999949,
                    "velocity": 0.48031496062992124,
                    "duration": 0.27332349999994676
                },
                {
                    "name": "A5",
                    "midi": 81,
                    "time": 543.0937944999948,
                    "velocity": 0.49606299212598426,
                    "duration": 0.27332349999994676
                },
                {
                    "name": "A#5",
                    "midi": 82,
                    "time": 543.3671179999948,
                    "velocity": 0.5118110236220472,
                    "duration": 0.2505465416667221
                },
                {
                    "name": "A#5",
                    "midi": 82,
                    "time": 543.6404414999948,
                    "velocity": 0.4566929133858268,
                    "duration": 0.8199704999998403
                },
                {
                    "name": "F#5",
                    "midi": 78,
                    "time": 543.9137649999948,
                    "velocity": 0.4566929133858268,
                    "duration": 0.27332349999994676
                },
                {
                    "name": "F5",
                    "midi": 77,
                    "time": 544.1870884999947,
                    "velocity": 0.4409448818897638,
                    "duration": 0.27332349999994676
                },
                {
                    "name": "A5",
                    "midi": 81,
                    "time": 544.4604119999947,
                    "velocity": 0.49606299212598426,
                    "duration": 1.093293999999787
                },
                {
                    "name": "D#5",
                    "midi": 75,
                    "time": 544.4604119999947,
                    "velocity": 0.49606299212598426,
                    "duration": 0.27332349999994676
                },
                {
                    "name": "F5",
                    "midi": 77,
                    "time": 545.0070589999946,
                    "velocity": 0.5118110236220472,
                    "duration": 0.27332349999994676
                },
                {
                    "name": "F#5",
                    "midi": 78,
                    "time": 545.5537059999945,
                    "velocity": 0.5511811023622047,
                    "duration": 1.3666174999997338
                },
                {
                    "name": "A5",
                    "midi": 81,
                    "time": 545.8270294999944,
                    "velocity": 0.47244094488188976,
                    "duration": 0.27332349999994676
                },
                {
                    "name": "C6",
                    "midi": 84,
                    "time": 546.1003529999944,
                    "velocity": 0.4881889763779528,
                    "duration": 0.27332349999994676
                },
                {
                    "name": "C#6",
                    "midi": 85,
                    "time": 546.3736764999943,
                    "velocity": 0.5118110236220472,
                    "duration": 0.27332349999994676
                },
                {
                    "name": "D#6",
                    "midi": 87,
                    "time": 546.6469999999943,
                    "velocity": 0.5275590551181102,
                    "duration": 1.093293999999787
                },
                {
                    "name": "D#5",
                    "midi": 75,
                    "time": 546.9203234999942,
                    "velocity": 0.47244094488188976,
                    "duration": 0.27332349999994676
                },
                {
                    "name": "C#5",
                    "midi": 73,
                    "time": 547.1936469999941,
                    "velocity": 0.49606299212598426,
                    "duration": 0.27332349999994676
                },
                {
                    "name": "C5",
                    "midi": 72,
                    "time": 547.4669704999941,
                    "velocity": 0.4330708661417323,
                    "duration": 0.27332349999994676
                },
                {
                    "name": "F5",
                    "midi": 77,
                    "time": 547.740293999994,
                    "velocity": 0.5118110236220472,
                    "duration": 0.3279881999999361
                },
                {
                    "name": "A#5",
                    "midi": 82,
                    "time": 548.013617499994,
                    "velocity": 0.5433070866141733,
                    "duration": 0.3279881999999361
                },
                {
                    "name": "A5",
                    "midi": 81,
                    "time": 548.2869409999939,
                    "velocity": 0.5118110236220472,
                    "duration": 0.3279881999999361
                },
                {
                    "name": "G5",
                    "midi": 79,
                    "time": 548.5602644999939,
                    "velocity": 0.5039370078740157,
                    "duration": 0.3279881999999361
                },
                {
                    "name": "F5",
                    "midi": 77,
                    "time": 548.8335879999938,
                    "velocity": 0.47244094488188976,
                    "duration": 0.27332349999994676
                },
                {
                    "name": "D#5",
                    "midi": 75,
                    "time": 549.1069114999938,
                    "velocity": 0.47244094488188976,
                    "duration": 0.27332349999994676
                },
                {
                    "name": "D5",
                    "midi": 74,
                    "time": 549.3802349999937,
                    "velocity": 0.47244094488188976,
                    "duration": 0.27332349999994676
                },
                {
                    "name": "C5",
                    "midi": 72,
                    "time": 549.6535584999937,
                    "velocity": 0.47244094488188976,
                    "duration": 0.27332349999994676
                },
                {
                    "name": "A#4",
                    "midi": 70,
                    "time": 549.9268819999936,
                    "velocity": 0.5275590551181102,
                    "duration": 1.6399409999996806
                },
                {
                    "name": "D5",
                    "midi": 74,
                    "time": 549.9268819999936,
                    "velocity": 0.5275590551181102,
                    "duration": 0.27332349999994676
                },
                {
                    "name": "F5",
                    "midi": 77,
                    "time": 550.2002054999936,
                    "velocity": 0.47244094488188976,
                    "duration": 0.27332349999994676
                },
                {
                    "name": "F#5",
                    "midi": 78,
                    "time": 550.4735289999935,
                    "velocity": 0.47244094488188976,
                    "duration": 0.27332349999994676
                },
                {
                    "name": "G#5",
                    "midi": 80,
                    "time": 550.7468524999935,
                    "velocity": 0.47244094488188976,
                    "duration": 0.27332349999994676
                },
                {
                    "name": "G5",
                    "midi": 79,
                    "time": 551.0201759999934,
                    "velocity": 0.5196850393700787,
                    "duration": 0.3279881999999361
                },
                {
                    "name": "A#5",
                    "midi": 82,
                    "time": 551.2934994999933,
                    "velocity": 0.5275590551181102,
                    "duration": 0.3279881999999361
                },
                {
                    "name": "G#5",
                    "midi": 80,
                    "time": 551.5668229999933,
                    "velocity": 0.5511811023622047,
                    "duration": 0.3279881999999361
                },
                {
                    "name": "G5",
                    "midi": 79,
                    "time": 551.8401464999932,
                    "velocity": 0.5433070866141733,
                    "duration": 0.3279881999999361
                },
                {
                    "name": "F5",
                    "midi": 77,
                    "time": 552.1134699999932,
                    "velocity": 0.5354330708661418,
                    "duration": 0.27332349999994676
                },
                {
                    "name": "D#5",
                    "midi": 75,
                    "time": 552.3867934999931,
                    "velocity": 0.5196850393700787,
                    "duration": 0.27332349999994676
                },
                {
                    "name": "D#4",
                    "midi": 63,
                    "time": 552.6601169999931,
                    "velocity": 0.5118110236220472,
                    "duration": 0.8199704999998403
                },
                {
                    "name": "D5",
                    "midi": 74,
                    "time": 552.6601169999931,
                    "velocity": 0.5118110236220472,
                    "duration": 0.27332349999994676
                },
                {
                    "name": "C5",
                    "midi": 72,
                    "time": 552.933440499993,
                    "velocity": 0.5039370078740157,
                    "duration": 0.27332349999994676
                },
                {
                    "name": "A#4",
                    "midi": 70,
                    "time": 553.206763999993,
                    "velocity": 0.5433070866141733,
                    "duration": 1.093293999999787
                },
                {
                    "name": "G4",
                    "midi": 67,
                    "time": 553.4800874999929,
                    "velocity": 0.47244094488188976,
                    "duration": 0.27332349999994676
                },
                {
                    "name": "G#4",
                    "midi": 68,
                    "time": 553.7534109999929,
                    "velocity": 0.47244094488188976,
                    "duration": 0.27332349999994676
                },
                {
                    "name": "A#4",
                    "midi": 70,
                    "time": 554.0267344999928,
                    "velocity": 0.47244094488188976,
                    "duration": 0.27332349999994676
                },
                {
                    "name": "D#4",
                    "midi": 63,
                    "time": 554.3000579999928,
                    "velocity": 0.5118110236220472,
                    "duration": 0.27332349999994676
                },
                {
                    "name": "D#5",
                    "midi": 75,
                    "time": 554.5733814999927,
                    "velocity": 0.5433070866141733,
                    "duration": 0.3279881999999361
                },
                {
                    "name": "C#5",
                    "midi": 73,
                    "time": 554.8467049999927,
                    "velocity": 0.5354330708661418,
                    "duration": 0.3279881999999361
                },
                {
                    "name": "C5",
                    "midi": 72,
                    "time": 555.1200284999926,
                    "velocity": 0.5275590551181102,
                    "duration": 0.3279881999999361
                },
                {
                    "name": "A#4",
                    "midi": 70,
                    "time": 555.3933519999925,
                    "velocity": 0.5118110236220472,
                    "duration": 0.27332349999994676
                },
                {
                    "name": "G#4",
                    "midi": 68,
                    "time": 555.6666754999925,
                    "velocity": 0.5039370078740157,
                    "duration": 0.27332349999994676
                },
                {
                    "name": "G4",
                    "midi": 67,
                    "time": 555.9399989999924,
                    "velocity": 0.47244094488188976,
                    "duration": 0.27332349999994676
                },
                {
                    "name": "F4",
                    "midi": 65,
                    "time": 556.2133224999924,
                    "velocity": 0.47244094488188976,
                    "duration": 0.27332349999994676
                },
                {
                    "name": "G4",
                    "midi": 67,
                    "time": 556.4866459999923,
                    "velocity": 0.5196850393700787,
                    "duration": 0.27332349999994676
                },
                {
                    "name": "D#4",
                    "midi": 63,
                    "time": 556.4866459999923,
                    "velocity": 0.5196850393700787,
                    "duration": 1.6399409999996806
                },
                {
                    "name": "A#4",
                    "midi": 70,
                    "time": 556.7599694999923,
                    "velocity": 0.48031496062992124,
                    "duration": 0.27332349999994676
                },
                {
                    "name": "C5",
                    "midi": 72,
                    "time": 557.0332929999922,
                    "velocity": 0.4881889763779528,
                    "duration": 0.27332349999994676
                },
                {
                    "name": "C#5",
                    "midi": 73,
                    "time": 557.3066164999922,
                    "velocity": 0.49606299212598426,
                    "duration": 0.27332349999994676
                },
                {
                    "name": "C5",
                    "midi": 72,
                    "time": 557.5799399999921,
                    "velocity": 0.5039370078740157,
                    "duration": 0.3279881999999361
                },
                {
                    "name": "C6",
                    "midi": 84,
                    "time": 557.8532634999921,
                    "velocity": 0.5511811023622047,
                    "duration": 0.3279881999999361
                },
                {
                    "name": "A#5",
                    "midi": 82,
                    "time": 558.126586999992,
                    "velocity": 0.5433070866141733,
                    "duration": 0.3279881999999361
                },
                {
                    "name": "G#5",
                    "midi": 80,
                    "time": 558.399910499992,
                    "velocity": 0.5354330708661418,
                    "duration": 0.3279881999999361
                },
                {
                    "name": "G5",
                    "midi": 79,
                    "time": 558.6732339999919,
                    "velocity": 0.5196850393700787,
                    "duration": 0.27332349999994676
                },
                {
                    "name": "F5",
                    "midi": 77,
                    "time": 558.9465574999919,
                    "velocity": 0.5196850393700787,
                    "duration": 0.27332349999994676
                },
                {
                    "name": "D#5",
                    "midi": 75,
                    "time": 559.2198809999918,
                    "velocity": 0.49606299212598426,
                    "duration": 0.27332349999994676
                },
                {
                    "name": "C#5",
                    "midi": 73,
                    "time": 559.4932044999917,
                    "velocity": 0.48031496062992124,
                    "duration": 0.27332349999994676
                },
                {
                    "name": "D#4",
                    "midi": 63,
                    "time": 559.7665279999917,
                    "velocity": 0.5669291338582677,
                    "duration": 0.27332349999994676
                },
                {
                    "name": "C5",
                    "midi": 72,
                    "time": 559.7665279999917,
                    "velocity": 0.5118110236220472,
                    "duration": 1.6399409999997943
                },
                {
                    "name": "G4",
                    "midi": 67,
                    "time": 560.3131749999916,
                    "velocity": 0.5826771653543307,
                    "duration": 0.27332349999994676
                },
                {
                    "name": "G#4",
                    "midi": 68,
                    "time": 560.8598219999915,
                    "velocity": 0.6220472440944882,
                    "duration": 0.5466470000000072
                },
                {
                    "name": "G5",
                    "midi": 79,
                    "time": 561.4064689999915,
                    "velocity": 0.5118110236220472,
                    "duration": 0.5466470000000072
                },
                {
                    "name": "A#4",
                    "midi": 70,
                    "time": 561.4064689999915,
                    "velocity": 0.6141732283464567,
                    "duration": 0.5466470000000072
                },
                {
                    "name": "G#5",
                    "midi": 80,
                    "time": 561.9531159999915,
                    "velocity": 0.5118110236220472,
                    "duration": 1.6399410000000216
                },
                {
                    "name": "C5",
                    "midi": 72,
                    "time": 561.9531159999915,
                    "velocity": 0.6220472440944882,
                    "duration": 0.5466470000000072
                },
                {
                    "name": "C#5",
                    "midi": 73,
                    "time": 562.4997629999915,
                    "velocity": 0.6299212598425197,
                    "duration": 0.5466470000000072
                },
                {
                    "name": "D#5",
                    "midi": 75,
                    "time": 563.0464099999915,
                    "velocity": 0.6456692913385826,
                    "duration": 1.0932940000000144
                },
                {
                    "name": "C6",
                    "midi": 84,
                    "time": 563.5930569999915,
                    "velocity": 0.6850393700787402,
                    "duration": 0.5466470000000072
                },
                {
                    "name": "C#5",
                    "midi": 73,
                    "time": 564.1397039999915,
                    "velocity": 0.5196850393700787,
                    "duration": 0.3279881999999361
                },
                {
                    "name": "C#6",
                    "midi": 85,
                    "time": 564.1397039999915,
                    "velocity": 0.7244094488188977,
                    "duration": 1.093293999999787
                },
                {
                    "name": "F5",
                    "midi": 77,
                    "time": 564.4130274999915,
                    "velocity": 0.5748031496062992,
                    "duration": 0.3279881999999361
                },
                {
                    "name": "D#5",
                    "midi": 75,
                    "time": 564.6863509999914,
                    "velocity": 0.5590551181102362,
                    "duration": 0.3279881999999361
                },
                {
                    "name": "C#5",
                    "midi": 73,
                    "time": 564.9596744999914,
                    "velocity": 0.5433070866141733,
                    "duration": 0.3279881999999361
                },
                {
                    "name": "C5",
                    "midi": 72,
                    "time": 565.2329979999913,
                    "velocity": 0.5590551181102362,
                    "duration": 0.27332349999994676
                },
                {
                    "name": "A#4",
                    "midi": 70,
                    "time": 565.5063214999913,
                    "velocity": 0.5196850393700787,
                    "duration": 0.27332349999994676
                },
                {
                    "name": "G#4",
                    "midi": 68,
                    "time": 565.7796449999912,
                    "velocity": 0.5196850393700787,
                    "duration": 0.27332349999994676
                },
                {
                    "name": "F#4",
                    "midi": 66,
                    "time": 566.0529684999912,
                    "velocity": 0.5196850393700787,
                    "duration": 0.27332349999994676
                },
                {
                    "name": "F4",
                    "midi": 65,
                    "time": 566.3262919999911,
                    "velocity": 0.5196850393700787,
                    "duration": 1.6399409999997943
                },
                {
                    "name": "G#4",
                    "midi": 68,
                    "time": 566.3262919999911,
                    "velocity": 0.6220472440944882,
                    "duration": 0.27332349999994676
                },
                {
                    "name": "C5",
                    "midi": 72,
                    "time": 566.872938999991,
                    "velocity": 0.6377952755905512,
                    "duration": 0.27332349999994676
                },
                {
                    "name": "C#5",
                    "midi": 73,
                    "time": 567.4195859999909,
                    "velocity": 0.6692913385826772,
                    "duration": 1.639940999999908
                },
                {
                    "name": "F#4",
                    "midi": 66,
                    "time": 567.9662329999909,
                    "velocity": 0.5669291338582677,
                    "duration": 0.27332349999994676
                },
                {
                    "name": "G#4",
                    "midi": 68,
                    "time": 568.5128799999908,
                    "velocity": 0.6220472440944882,
                    "duration": 1.6399410000000216
                },
                {
                    "name": "E5",
                    "midi": 76,
                    "time": 569.0595269999908,
                    "velocity": 0.6220472440944882,
                    "duration": 0.5466470000000072
                },
                {
                    "name": "F5",
                    "midi": 77,
                    "time": 569.6061739999908,
                    "velocity": 0.6614173228346457,
                    "duration": 0.5466470000000072
                },
                {
                    "name": "A#4",
                    "midi": 70,
                    "time": 570.1528209999908,
                    "velocity": 0.5826771653543307,
                    "duration": 1.6399409999997943
                },
                {
                    "name": "F#5",
                    "midi": 78,
                    "time": 570.1528209999908,
                    "velocity": 0.6771653543307087,
                    "duration": 0.819970499999954
                },
                {
                    "name": "A#5",
                    "midi": 82,
                    "time": 570.9727914999908,
                    "velocity": 0.6535433070866141,
                    "duration": 0.3279881999999361
                },
                {
                    "name": "G#5",
                    "midi": 80,
                    "time": 571.2461149999907,
                    "velocity": 0.6299212598425197,
                    "duration": 0.3279881999999361
                },
                {
                    "name": "F#5",
                    "midi": 78,
                    "time": 571.5194384999907,
                    "velocity": 0.6062992125984252,
                    "duration": 0.3279881999999361
                },
                {
                    "name": "F5",
                    "midi": 77,
                    "time": 571.7927619999906,
                    "velocity": 0.6377952755905512,
                    "duration": 0.27332349999994676
                },
                {
                    "name": "D#5",
                    "midi": 75,
                    "time": 572.0660854999905,
                    "velocity": 0.5669291338582677,
                    "duration": 0.27332349999994676
                },
                {
                    "name": "C#5",
                    "midi": 73,
                    "time": 572.3394089999905,
                    "velocity": 0.5669291338582677,
                    "duration": 0.27332349999994676
                },
                {
                    "name": "B4",
                    "midi": 71,
                    "time": 572.6127324999904,
                    "velocity": 0.5669291338582677,
                    "duration": 0.27332349999994676
                },
                {
                    "name": "C#4",
                    "midi": 61,
                    "time": 572.8860559999904,
                    "velocity": 0.5669291338582677,
                    "duration": 0.27332349999994676
                },
                {
                    "name": "A#4",
                    "midi": 70,
                    "time": 572.8860559999904,
                    "velocity": 0.5669291338582677,
                    "duration": 1.6399409999997943
                },
                {
                    "name": "F4",
                    "midi": 65,
                    "time": 573.4327029999903,
                    "velocity": 0.5905511811023622,
                    "duration": 0.27332349999994676
                },
                {
                    "name": "F#4",
                    "midi": 66,
                    "time": 573.9793499999902,
                    "velocity": 0.6141732283464567,
                    "duration": 1.6399410000000216
                },
                {
                    "name": "B4",
                    "midi": 71,
                    "time": 574.5259969999902,
                    "velocity": 0.5669291338582677,
                    "duration": 0.5466470000000072
                },
                {
                    "name": "C#5",
                    "midi": 73,
                    "time": 575.0726439999902,
                    "velocity": 0.5984251968503937,
                    "duration": 1.6399410000000216
                },
                {
                    "name": "G#4",
                    "midi": 68,
                    "time": 575.6192909999902,
                    "velocity": 0.5196850393700787,
                    "duration": 0.5466470000000072
                },
                {
                    "name": "A#4",
                    "midi": 70,
                    "time": 576.1659379999902,
                    "velocity": 0.5748031496062992,
                    "duration": 0.5466470000000072
                },
                {
                    "name": "A#5",
                    "midi": 82,
                    "time": 576.7125849999902,
                    "velocity": 0.5196850393700787,
                    "duration": 0.5466470000000072
                },
                {
                    "name": "F#5",
                    "midi": 78,
                    "time": 576.7125849999902,
                    "velocity": 0.5196850393700787,
                    "duration": 0.819970499999954
                },
                {
                    "name": "B5",
                    "midi": 83,
                    "time": 577.2592319999902,
                    "velocity": 0.5669291338582677,
                    "duration": 0.5466469999998935
                },
                {
                    "name": "D5",
                    "midi": 74,
                    "time": 577.5325554999902,
                    "velocity": 0.5196850393700787,
                    "duration": 0.3279881999999361
                },
                {
                    "name": "C#5",
                    "midi": 73,
                    "time": 577.8058789999901,
                    "velocity": 0.5196850393700787,
                    "duration": 0.3279881999999361
                },
                {
                    "name": "B4",
                    "midi": 71,
                    "time": 578.0792024999901,
                    "velocity": 0.5196850393700787,
                    "duration": 0.3279881999999361
                },
                {
                    "name": "A#4",
                    "midi": 70,
                    "time": 578.35252599999,
                    "velocity": 0.5511811023622047,
                    "duration": 0.27332349999994676
                },
                {
                    "name": "G4",
                    "midi": 67,
                    "time": 578.62584949999,
                    "velocity": 0.5354330708661418,
                    "duration": 0.27332349999994676
                },
                {
                    "name": "F#4",
                    "midi": 66,
                    "time": 578.8991729999899,
                    "velocity": 0.5275590551181102,
                    "duration": 0.27332349999994676
                },
                {
                    "name": "E4",
                    "midi": 64,
                    "time": 579.1724964999898,
                    "velocity": 0.5196850393700787,
                    "duration": 0.27332349999994676
                },
                {
                    "name": "D4",
                    "midi": 62,
                    "time": 579.4458199999898,
                    "velocity": 0.5590551181102362,
                    "duration": 1.6399409999997943
                },
                {
                    "name": "F#4",
                    "midi": 66,
                    "time": 579.4458199999898,
                    "velocity": 0.5590551181102362,
                    "duration": 0.27332349999994676
                },
                {
                    "name": "A#4",
                    "midi": 70,
                    "time": 579.9924669999897,
                    "velocity": 0.5826771653543307,
                    "duration": 0.27332349999994676
                },
                {
                    "name": "B4",
                    "midi": 71,
                    "time": 580.5391139999896,
                    "velocity": 0.6220472440944882,
                    "duration": 1.6399410000000216
                },
                {
                    "name": "E4",
                    "midi": 64,
                    "time": 581.0857609999896,
                    "velocity": 0.5748031496062992,
                    "duration": 0.5466470000000072
                },
                {
                    "name": "F#4",
                    "midi": 66,
                    "time": 581.6324079999896,
                    "velocity": 0.5984251968503937,
                    "duration": 1.6399410000000216
                },
                {
                    "name": "C#5",
                    "midi": 73,
                    "time": 582.1790549999896,
                    "velocity": 0.5590551181102362,
                    "duration": 0.5466470000000072
                },
                {
                    "name": "D5",
                    "midi": 74,
                    "time": 582.7257019999896,
                    "velocity": 0.5905511811023622,
                    "duration": 0.5466470000000072
                },
                {
                    "name": "C#5",
                    "midi": 73,
                    "time": 583.2723489999896,
                    "velocity": 0.6141732283464567,
                    "duration": 0.5466470000000072
                },
                {
                    "name": "E5",
                    "midi": 76,
                    "time": 583.2723489999896,
                    "velocity": 0.6141732283464567,
                    "duration": 0.5466470000000072
                },
                {
                    "name": "F#5",
                    "midi": 78,
                    "time": 583.8189959999896,
                    "velocity": 0.6771653543307087,
                    "duration": 0.27332349999994676
                },
                {
                    "name": "A#5",
                    "midi": 82,
                    "time": 584.3656429999895,
                    "velocity": 0.7086614173228346,
                    "duration": 0.27332349999994676
                },
                {
                    "name": "B5",
                    "midi": 83,
                    "time": 584.9122899999894,
                    "velocity": 0.7086614173228346,
                    "duration": 1.6399410000000216
                },
                {
                    "name": "C#6",
                    "midi": 85,
                    "time": 586.5522309999894,
                    "velocity": 0.7086614173228346,
                    "duration": 0.27332349999994676
                },
                {
                    "name": "D6",
                    "midi": 86,
                    "time": 587.0988779999893,
                    "velocity": 0.7401574803149606,
                    "duration": 0.27332349999994676
                },
                {
                    "name": "E6",
                    "midi": 88,
                    "time": 587.6455249999892,
                    "velocity": 0.7637795275590551,
                    "duration": 0.27332349999994676
                },
                {
                    "name": "F#6",
                    "midi": 90,
                    "time": 588.1921719999891,
                    "velocity": 0.7795275590551181,
                    "duration": 0.5466470000000072
                },
                {
                    "name": "F#5",
                    "midi": 78,
                    "time": 589.2854659999891,
                    "velocity": 0.5590551181102362,
                    "duration": 0.5466470000000072
                },
                {
                    "name": "F#5",
                    "midi": 78,
                    "time": 592.5653479999892,
                    "velocity": 0.44881889763779526,
                    "duration": 1.0932940000000144
                },
                {
                    "name": "E5",
                    "midi": 76,
                    "time": 593.6586419999892,
                    "velocity": 0.4409448818897638,
                    "duration": 2.186588000000029
                },
                {
                    "name": "C#5",
                    "midi": 73,
                    "time": 595.8452299999892,
                    "velocity": 0.3937007874015748,
                    "duration": 1.0932940000000144
                },
                {
                    "name": "D5",
                    "midi": 74,
                    "time": 596.9385239999892,
                    "velocity": 0.4409448818897638,
                    "duration": 2.186588000000029
                },
                {
                    "name": "C#5",
                    "midi": 73,
                    "time": 599.1251119999893,
                    "velocity": 0.3937007874015748,
                    "duration": 2.186588000000029
                },
                {
                    "name": "B4",
                    "midi": 71,
                    "time": 601.3116999999893,
                    "velocity": 0.3937007874015748,
                    "duration": 1.0932940000000144
                },
                {
                    "name": "B4",
                    "midi": 71,
                    "time": 602.4049939999893,
                    "velocity": 0.3937007874015748,
                    "duration": 1.0932940000000144
                },
                {
                    "name": "B4",
                    "midi": 71,
                    "time": 603.4982879999893,
                    "velocity": 0.4409448818897638,
                    "duration": 1.0932940000000144
                },
                {
                    "name": "F#4",
                    "midi": 66,
                    "time": 604.5915819999893,
                    "velocity": 0.3937007874015748,
                    "duration": 1.0932940000000144
                },
                {
                    "name": "D5",
                    "midi": 74,
                    "time": 605.6848759999893,
                    "velocity": 0.4409448818897638,
                    "duration": 1.0932940000000144
                },
                {
                    "name": "C#5",
                    "midi": 73,
                    "time": 606.7781699999894,
                    "velocity": 0.4409448818897638,
                    "duration": 1.0932940000000144
                },
                {
                    "name": "F#4",
                    "midi": 66,
                    "time": 607.8714639999894,
                    "velocity": 0.4409448818897638,
                    "duration": 0.5466470000000072
                },
                {
                    "name": "A#5",
                    "midi": 82,
                    "time": 608.9647579999894,
                    "velocity": 0.36220472440944884,
                    "duration": 0.18221566666670697
                },
                {
                    "name": "B5",
                    "midi": 83,
                    "time": 609.1469736666561,
                    "velocity": 0.29133858267716534,
                    "duration": 0.18221566666670697
                },
                {
                    "name": "A#5",
                    "midi": 82,
                    "time": 609.3291893333228,
                    "velocity": 0.3543307086614173,
                    "duration": 0.18221566666670697
                },
                {
                    "name": "B5",
                    "midi": 83,
                    "time": 609.5114049999895,
                    "velocity": 0.31496062992125984,
                    "duration": 0.18221566666670697
                },
                {
                    "name": "A#5",
                    "midi": 82,
                    "time": 609.6936206666562,
                    "velocity": 0.3543307086614173,
                    "duration": 0.18221566666670697
                },
                {
                    "name": "B5",
                    "midi": 83,
                    "time": 609.8758363333229,
                    "velocity": 0.3543307086614173,
                    "duration": 0.18221566666670697
                },
                {
                    "name": "A#5",
                    "midi": 82,
                    "time": 610.0580519999896,
                    "velocity": 0.36220472440944884,
                    "duration": 0.18221566666670697
                },
                {
                    "name": "B5",
                    "midi": 83,
                    "time": 610.2402676666563,
                    "velocity": 0.36220472440944884,
                    "duration": 0.18221566666670697
                },
                {
                    "name": "A#5",
                    "midi": 82,
                    "time": 610.422483333323,
                    "velocity": 0.31496062992125984,
                    "duration": 0.18221566666670697
                },
                {
                    "name": "B5",
                    "midi": 83,
                    "time": 610.6046989999898,
                    "velocity": 0.36220472440944884,
                    "duration": 0.13666175000003022
                },
                {
                    "name": "A#5",
                    "midi": 82,
                    "time": 610.7413607499898,
                    "velocity": 0.3228346456692913,
                    "duration": 0.13666175000003022
                },
                {
                    "name": "G#5",
                    "midi": 80,
                    "time": 610.8780224999898,
                    "velocity": 0.3228346456692913,
                    "duration": 0.13666175000003022
                },
                {
                    "name": "A#5",
                    "midi": 82,
                    "time": 611.0146842499898,
                    "velocity": 0.33070866141732286,
                    "duration": 0.13666175000003022
                },
                {
                    "name": "B5",
                    "midi": 83,
                    "time": 611.1513459999899,
                    "velocity": 0.4251968503937008,
                    "duration": 1.0932940000000144
                },
                {
                    "name": "B5",
                    "midi": 83,
                    "time": 612.7912869999899,
                    "velocity": 0.36220472440944884,
                    "duration": 0.27332349999994676
                },
                {
                    "name": "A5",
                    "midi": 81,
                    "time": 613.0646104999898,
                    "velocity": 0.31496062992125984,
                    "duration": 0.27332349999994676
                },
                {
                    "name": "G5",
                    "midi": 79,
                    "time": 613.3379339999898,
                    "velocity": 0.3700787401574803,
                    "duration": 0.27332349999994676
                },
                {
                    "name": "F#5",
                    "midi": 78,
                    "time": 613.6112574999897,
                    "velocity": 0.31496062992125984,
                    "duration": 0.27332349999994676
                },
                {
                    "name": "E5",
                    "midi": 76,
                    "time": 613.8845809999897,
                    "velocity": 0.33858267716535434,
                    "duration": 0.27332349999994676
                },
                {
                    "name": "F#5",
                    "midi": 78,
                    "time": 614.1579044999896,
                    "velocity": 0.31496062992125984,
                    "duration": 0.27332349999994676
                },
                {
                    "name": "G5",
                    "midi": 79,
                    "time": 614.4312279999896,
                    "velocity": 0.3543307086614173,
                    "duration": 0.27332349999994676
                },
                {
                    "name": "A5",
                    "midi": 81,
                    "time": 614.7045514999895,
                    "velocity": 0.31496062992125984,
                    "duration": 0.27332349999994676
                },
                {
                    "name": "G5",
                    "midi": 79,
                    "time": 614.9778749999895,
                    "velocity": 0.3464566929133858,
                    "duration": 0.27332349999994676
                },
                {
                    "name": "F#5",
                    "midi": 78,
                    "time": 615.2511984999894,
                    "velocity": 0.31496062992125984,
                    "duration": 0.27332349999994676
                },
                {
                    "name": "E5",
                    "midi": 76,
                    "time": 615.5245219999894,
                    "velocity": 0.33070866141732286,
                    "duration": 0.27332349999994676
                },
                {
                    "name": "D5",
                    "midi": 74,
                    "time": 615.7978454999893,
                    "velocity": 0.31496062992125984,
                    "duration": 0.27332349999994676
                },
                {
                    "name": "C#5",
                    "midi": 73,
                    "time": 616.0711689999893,
                    "velocity": 0.29133858267716534,
                    "duration": 0.27332349999994676
                },
                {
                    "name": "D5",
                    "midi": 74,
                    "time": 616.3444924999892,
                    "velocity": 0.31496062992125984,
                    "duration": 0.27332349999994676
                },
                {
                    "name": "E5",
                    "midi": 76,
                    "time": 616.6178159999891,
                    "velocity": 0.3464566929133858,
                    "duration": 0.27332349999994676
                },
                {
                    "name": "D5",
                    "midi": 74,
                    "time": 616.8911394999891,
                    "velocity": 0.31496062992125984,
                    "duration": 0.27332349999994676
                },
                {
                    "name": "C#5",
                    "midi": 73,
                    "time": 617.164462999989,
                    "velocity": 0.31496062992125984,
                    "duration": 0.27332349999994676
                },
                {
                    "name": "B4",
                    "midi": 71,
                    "time": 617.437786499989,
                    "velocity": 0.31496062992125984,
                    "duration": 0.27332349999994676
                },
                {
                    "name": "A4",
                    "midi": 69,
                    "time": 617.7111099999889,
                    "velocity": 0.3464566929133858,
                    "duration": 0.27332349999994676
                },
                {
                    "name": "G#4",
                    "midi": 68,
                    "time": 617.9844334999889,
                    "velocity": 0.28346456692913385,
                    "duration": 0.27332349999994676
                },
                {
                    "name": "A4",
                    "midi": 69,
                    "time": 618.2577569999888,
                    "velocity": 0.31496062992125984,
                    "duration": 0.27332349999994676
                },
                {
                    "name": "G4",
                    "midi": 67,
                    "time": 618.5310804999888,
                    "velocity": 0.2992125984251969,
                    "duration": 0.27332349999994676
                },
                {
                    "name": "F#4",
                    "midi": 66,
                    "time": 618.8044039999887,
                    "velocity": 0.2992125984251969,
                    "duration": 0.27332349999994676
                },
                {
                    "name": "A4",
                    "midi": 69,
                    "time": 619.0777274999887,
                    "velocity": 0.30708661417322836,
                    "duration": 0.2687681083333473
                },
                {
                    "name": "B4",
                    "midi": 71,
                    "time": 619.3510509999887,
                    "velocity": 0.31496062992125984,
                    "duration": 0.27332349999994676
                },
                {
                    "name": "C#5",
                    "midi": 73,
                    "time": 619.6243744999887,
                    "velocity": 0.3228346456692913,
                    "duration": 0.27332349999994676
                },
                {
                    "name": "D5",
                    "midi": 74,
                    "time": 619.8976979999886,
                    "velocity": 0.3228346456692913,
                    "duration": 0.27332349999994676
                },
                {
                    "name": "E5",
                    "midi": 76,
                    "time": 620.1710214999886,
                    "velocity": 0.3464566929133858,
                    "duration": 0.27332349999994676
                },
                {
                    "name": "F#5",
                    "midi": 78,
                    "time": 620.4443449999885,
                    "velocity": 0.36220472440944884,
                    "duration": 0.27332349999994676
                },
                {
                    "name": "G5",
                    "midi": 79,
                    "time": 620.7176684999885,
                    "velocity": 0.3779527559055118,
                    "duration": 0.27332349999994676
                },
                {
                    "name": "A5",
                    "midi": 81,
                    "time": 620.9909919999884,
                    "velocity": 0.3937007874015748,
                    "duration": 0.27332349999994676
                },
                {
                    "name": "B5",
                    "midi": 83,
                    "time": 621.2643154999884,
                    "velocity": 0.3700787401574803,
                    "duration": 0.27332349999994676
                },
                {
                    "name": "A5",
                    "midi": 81,
                    "time": 621.5376389999883,
                    "velocity": 0.3858267716535433,
                    "duration": 0.27332349999994676
                },
                {
                    "name": "G#5",
                    "midi": 80,
                    "time": 621.8109624999882,
                    "velocity": 0.3858267716535433,
                    "duration": 0.27332349999994676
                },
                {
                    "name": "G5",
                    "midi": 79,
                    "time": 622.0842859999882,
                    "velocity": 0.3779527559055118,
                    "duration": 0.27332349999994676
                },
                {
                    "name": "F#5",
                    "midi": 78,
                    "time": 622.3576094999881,
                    "velocity": 0.33070866141732286,
                    "duration": 0.27332349999994676
                },
                {
                    "name": "E5",
                    "midi": 76,
                    "time": 622.6309329999881,
                    "velocity": 0.33070866141732286,
                    "duration": 0.27332349999994676
                },
                {
                    "name": "D#5",
                    "midi": 75,
                    "time": 622.904256499988,
                    "velocity": 0.3464566929133858,
                    "duration": 0.27332349999994676
                },
                {
                    "name": "E5",
                    "midi": 76,
                    "time": 623.177579999988,
                    "velocity": 0.3937007874015748,
                    "duration": 0.27332349999994676
                },
                {
                    "name": "F#5",
                    "midi": 78,
                    "time": 623.4509034999879,
                    "velocity": 0.31496062992125984,
                    "duration": 0.27332349999994676
                },
                {
                    "name": "E5",
                    "midi": 76,
                    "time": 623.7242269999879,
                    "velocity": 0.31496062992125984,
                    "duration": 0.27332349999994676
                },
                {
                    "name": "D#5",
                    "midi": 75,
                    "time": 623.9975504999878,
                    "velocity": 0.31496062992125984,
                    "duration": 0.27332349999994676
                },
                {
                    "name": "D5",
                    "midi": 74,
                    "time": 624.2708739999878,
                    "velocity": 0.3700787401574803,
                    "duration": 0.27332349999994676
                },
                {
                    "name": "C#5",
                    "midi": 73,
                    "time": 624.5441974999877,
                    "velocity": 0.31496062992125984,
                    "duration": 0.27332349999994676
                },
                {
                    "name": "B4",
                    "midi": 71,
                    "time": 624.8175209999877,
                    "velocity": 0.31496062992125984,
                    "duration": 0.27332349999994676
                },
                {
                    "name": "A4",
                    "midi": 69,
                    "time": 625.0908444999876,
                    "velocity": 0.31496062992125984,
                    "duration": 0.27332349999994676
                },
                {
                    "name": "B4",
                    "midi": 71,
                    "time": 625.3641679999876,
                    "velocity": 0.3464566929133858,
                    "duration": 0.27332349999994676
                },
                {
                    "name": "C#5",
                    "midi": 73,
                    "time": 625.6374914999875,
                    "velocity": 0.29133858267716534,
                    "duration": 0.27332349999994676
                },
                {
                    "name": "D5",
                    "midi": 74,
                    "time": 625.9108149999875,
                    "velocity": 0.31496062992125984,
                    "duration": 0.27332349999994676
                },
                {
                    "name": "C#5",
                    "midi": 73,
                    "time": 626.1841384999874,
                    "velocity": 0.28346456692913385,
                    "duration": 0.27332349999994676
                },
                {
                    "name": "D5",
                    "midi": 74,
                    "time": 626.4574619999873,
                    "velocity": 0.3228346456692913,
                    "duration": 0.27332349999994676
                },
                {
                    "name": "E5",
                    "midi": 76,
                    "time": 626.7307854999873,
                    "velocity": 0.33070866141732286,
                    "duration": 0.27332349999994676
                },
                {
                    "name": "F#5",
                    "midi": 78,
                    "time": 627.0041089999872,
                    "velocity": 0.3464566929133858,
                    "duration": 0.27332349999994676
                },
                {
                    "name": "E5",
                    "midi": 76,
                    "time": 627.2774324999872,
                    "velocity": 0.3543307086614173,
                    "duration": 0.27332349999994676
                },
                {
                    "name": "F#5",
                    "midi": 78,
                    "time": 627.5507559999871,
                    "velocity": 0.4015748031496063,
                    "duration": 0.27332349999994676
                },
                {
                    "name": "G5",
                    "midi": 79,
                    "time": 627.8240794999871,
                    "velocity": 0.36220472440944884,
                    "duration": 0.27332349999994676
                },
                {
                    "name": "G5",
                    "midi": 79,
                    "time": 628.644049999987,
                    "velocity": 0.3464566929133858,
                    "duration": 1.0932940000000144
                },
                {
                    "name": "D5",
                    "midi": 74,
                    "time": 629.737343999987,
                    "velocity": 0.36220472440944884,
                    "duration": 0.27332349999994676
                },
                {
                    "name": "E5",
                    "midi": 76,
                    "time": 630.010667499987,
                    "velocity": 0.3700787401574803,
                    "duration": 0.27332349999994676
                },
                {
                    "name": "F#5",
                    "midi": 78,
                    "time": 630.2839909999869,
                    "velocity": 0.3779527559055118,
                    "duration": 0.27332349999994676
                },
                {
                    "name": "G5",
                    "midi": 79,
                    "time": 630.5573144999869,
                    "velocity": 0.3858267716535433,
                    "duration": 0.27332349999994676
                },
                {
                    "name": "A5",
                    "midi": 81,
                    "time": 630.8306379999868,
                    "velocity": 0.4330708661417323,
                    "duration": 0.27332349999994676
                },
                {
                    "name": "B5",
                    "midi": 83,
                    "time": 631.1039614999868,
                    "velocity": 0.3937007874015748,
                    "duration": 0.27332349999994676
                },
                {
                    "name": "B5",
                    "midi": 83,
                    "time": 631.9239319999867,
                    "velocity": 0.4330708661417323,
                    "duration": 1.0932940000000144
                },
                {
                    "name": "F#5",
                    "midi": 78,
                    "time": 633.0172259999867,
                    "velocity": 0.4645669291338583,
                    "duration": 0.27332349999994676
                },
                {
                    "name": "G5",
                    "midi": 79,
                    "time": 633.2905494999867,
                    "velocity": 0.47244094488188976,
                    "duration": 0.27332349999994676
                },
                {
                    "name": "A5",
                    "midi": 81,
                    "time": 633.5638729999866,
                    "velocity": 0.48031496062992124,
                    "duration": 0.27332349999994676
                },
                {
                    "name": "B5",
                    "midi": 83,
                    "time": 633.8371964999866,
                    "velocity": 0.4881889763779528,
                    "duration": 0.27332349999994676
                },
                {
                    "name": "C#6",
                    "midi": 85,
                    "time": 634.1105199999865,
                    "velocity": 0.49606299212598426,
                    "duration": 0.27332349999994676
                },
                {
                    "name": "D6",
                    "midi": 86,
                    "time": 634.3838434999865,
                    "velocity": 0.4645669291338583,
                    "duration": 0.27332349999994676
                },
                {
                    "name": "D6",
                    "midi": 86,
                    "time": 635.2038139999864,
                    "velocity": 0.5275590551181102,
                    "duration": 1.0932940000000144
                },
                {
                    "name": "C#6",
                    "midi": 85,
                    "time": 636.2971079999865,
                    "velocity": 0.48031496062992124,
                    "duration": 0.18221566666670697
                },
                {
                    "name": "D6",
                    "midi": 86,
                    "time": 636.4793236666532,
                    "velocity": 0.4015748031496063,
                    "duration": 0.18221566666670697
                },
                {
                    "name": "C#6",
                    "midi": 85,
                    "time": 636.6615393333199,
                    "velocity": 0.49606299212598426,
                    "duration": 0.18221566666670697
                },
                {
                    "name": "D6",
                    "midi": 86,
                    "time": 636.8437549999866,
                    "velocity": 0.4094488188976378,
                    "duration": 0.18221566666670697
                },
                {
                    "name": "C#6",
                    "midi": 85,
                    "time": 637.0259706666533,
                    "velocity": 0.5118110236220472,
                    "duration": 0.18221566666670697
                },
                {
                    "name": "D6",
                    "midi": 86,
                    "time": 637.20818633332,
                    "velocity": 0.4251968503937008,
                    "duration": 0.18221566666670697
                },
                {
                    "name": "C#6",
                    "midi": 85,
                    "time": 637.3904019999867,
                    "velocity": 0.5354330708661418,
                    "duration": 0.18221566666670697
                },
                {
                    "name": "D6",
                    "midi": 86,
                    "time": 637.5726176666534,
                    "velocity": 0.4409448818897638,
                    "duration": 0.18221566666670697
                },
                {
                    "name": "C#6",
                    "midi": 85,
                    "time": 637.7548333333201,
                    "velocity": 0.5354330708661418,
                    "duration": 0.18221566666670697
                },
                {
                    "name": "D6",
                    "midi": 86,
                    "time": 637.9370489999868,
                    "velocity": 0.41732283464566927,
                    "duration": 0.18221566666670697
                },
                {
                    "name": "C#6",
                    "midi": 85,
                    "time": 638.1192646666535,
                    "velocity": 0.49606299212598426,
                    "duration": 0.18221566666670697
                },
                {
                    "name": "D6",
                    "midi": 86,
                    "time": 638.3014803333202,
                    "velocity": 0.4015748031496063,
                    "duration": 0.18221566666670697
                },
                {
                    "name": "A#4",
                    "midi": 70,
                    "time": 638.4836959999869,
                    "velocity": 0.3779527559055118,
                    "duration": 0.5466470000000072
                },
                {
                    "name": "A#4",
                    "midi": 70,
                    "time": 639.576989999987,
                    "velocity": 0.3779527559055118,
                    "duration": 0.18221566666670697
                },
                {
                    "name": "F#5",
                    "midi": 78,
                    "time": 639.576989999987,
                    "velocity": 0.47244094488188976,
                    "duration": 1.0932940000002418
                },
                {
                    "name": "B4",
                    "midi": 71,
                    "time": 639.7592056666537,
                    "velocity": 0.33858267716535434,
                    "duration": 0.18221566666670697
                },
                {
                    "name": "A#4",
                    "midi": 70,
                    "time": 639.9414213333204,
                    "velocity": 0.3779527559055118,
                    "duration": 0.18221566666670697
                },
                {
                    "name": "B4",
                    "midi": 71,
                    "time": 640.1236369999871,
                    "velocity": 0.3464566929133858,
                    "duration": 0.18221566666670697
                },
                {
                    "name": "A#4",
                    "midi": 70,
                    "time": 640.3058526666538,
                    "velocity": 0.3779527559055118,
                    "duration": 0.18221566666670697
                },
                {
                    "name": "B4",
                    "midi": 71,
                    "time": 640.4880683333205,
                    "velocity": 0.3464566929133858,
                    "duration": 0.18221566666670697
                },
                {
                    "name": "A#4",
                    "midi": 70,
                    "time": 640.6702839999872,
                    "velocity": 0.3779527559055118,
                    "duration": 0.18221566666670697
                },
                {
                    "name": "E5",
                    "midi": 76,
                    "time": 640.6702839999872,
                    "velocity": 0.4409448818897638,
                    "duration": 1.0932940000002418
                },
                {
                    "name": "B4",
                    "midi": 71,
                    "time": 640.8524996666539,
                    "velocity": 0.3543307086614173,
                    "duration": 0.18221566666670697
                },
                {
                    "name": "A#4",
                    "midi": 70,
                    "time": 641.0347153333206,
                    "velocity": 0.3779527559055118,
                    "duration": 0.18221566666670697
                },
                {
                    "name": "B4",
                    "midi": 71,
                    "time": 641.2169309999873,
                    "velocity": 0.3543307086614173,
                    "duration": 0.18221566666670697
                },
                {
                    "name": "A#4",
                    "midi": 70,
                    "time": 641.399146666654,
                    "velocity": 0.3779527559055118,
                    "duration": 0.18221566666670697
                },
                {
                    "name": "B4",
                    "midi": 71,
                    "time": 641.5813623333207,
                    "velocity": 0.3464566929133858,
                    "duration": 0.18221566666670697
                },
                {
                    "name": "A#4",
                    "midi": 70,
                    "time": 641.7635779999874,
                    "velocity": 0.3779527559055118,
                    "duration": 0.18221566666670697
                },
                {
                    "name": "C#5",
                    "midi": 73,
                    "time": 641.7635779999874,
                    "velocity": 0.4409448818897638,
                    "duration": 1.0932940000000144
                },
                {
                    "name": "B4",
                    "midi": 71,
                    "time": 641.9457936666541,
                    "velocity": 0.3779527559055118,
                    "duration": 0.18221566666670697
                },
                {
                    "name": "A#4",
                    "midi": 70,
                    "time": 642.1280093333208,
                    "velocity": 0.3464566929133858,
                    "duration": 0.18221566666670697
                },
                {
                    "name": "B4",
                    "midi": 71,
                    "time": 642.3102249999876,
                    "velocity": 0.3779527559055118,
                    "duration": 0.27332349999994676
                },
                {
                    "name": "A#4",
                    "midi": 70,
                    "time": 642.5835484999875,
                    "velocity": 0.3779527559055118,
                    "duration": 0.27332349999994676
                },
                {
                    "name": "B4",
                    "midi": 71,
                    "time": 642.8568719999874,
                    "velocity": 0.4251968503937008,
                    "duration": 2.186588000000029
                },
                {
                    "name": "E5",
                    "midi": 76,
                    "time": 642.8568719999874,
                    "velocity": 0.5039370078740157,
                    "duration": 1.0932940000000144
                },
                {
                    "name": "D5",
                    "midi": 74,
                    "time": 643.9501659999875,
                    "velocity": 0.44881889763779526,
                    "duration": 3.2798820000000433
                },
                {
                    "name": "F#4",
                    "midi": 66,
                    "time": 645.0434599999875,
                    "velocity": 0.44881889763779526,
                    "duration": 1.0932940000000144
                },
                {
                    "name": "E4",
                    "midi": 64,
                    "time": 646.1367539999875,
                    "velocity": 0.4645669291338583,
                    "duration": 2.186588000000029
                },
                {
                    "name": "C#5",
                    "midi": 73,
                    "time": 647.2300479999875,
                    "velocity": 0.49606299212598426,
                    "duration": 3.2798820000000433
                },
                {
                    "name": "C#4",
                    "midi": 61,
                    "time": 648.3233419999875,
                    "velocity": 0.4409448818897638,
                    "duration": 1.0932940000000144
                },
                {
                    "name": "E4",
                    "midi": 64,
                    "time": 649.4166359999875,
                    "velocity": 0.44881889763779526,
                    "duration": 1.0932940000000144
                },
                {
                    "name": "B4",
                    "midi": 71,
                    "time": 650.5099299999875,
                    "velocity": 0.49606299212598426,
                    "duration": 4.373176000000058
                },
                {
                    "name": "D4",
                    "midi": 62,
                    "time": 650.5099299999875,
                    "velocity": 0.3779527559055118,
                    "duration": 1.0932940000000144
                },
                {
                    "name": "C#4",
                    "midi": 61,
                    "time": 651.6032239999876,
                    "velocity": 0.3779527559055118,
                    "duration": 2.186588000000029
                },
                {
                    "name": "B3",
                    "midi": 59,
                    "time": 653.7898119999876,
                    "velocity": 0.3779527559055118,
                    "duration": 1.0932940000000144
                },
                {
                    "name": "E4",
                    "midi": 64,
                    "time": 654.8831059999876,
                    "velocity": 0.3779527559055118,
                    "duration": 0.5466470000000072
                },
                {
                    "name": "B3",
                    "midi": 59,
                    "time": 654.8831059999876,
                    "velocity": 0.31496062992125984,
                    "duration": 1.0932940000000144
                },
                {
                    "name": "D4",
                    "midi": 62,
                    "time": 655.4297529999876,
                    "velocity": 0.33858267716535434,
                    "duration": 0.5466470000000072
                },
                {
                    "name": "C#4",
                    "midi": 61,
                    "time": 655.9763999999876,
                    "velocity": 0.3779527559055118,
                    "duration": 0.5466470000000072
                },
                {
                    "name": "B3",
                    "midi": 59,
                    "time": 655.9763999999876,
                    "velocity": 0.31496062992125984,
                    "duration": 1.0932940000000144
                },
                {
                    "name": "D4",
                    "midi": 62,
                    "time": 656.5230469999876,
                    "velocity": 0.33070866141732286,
                    "duration": 0.5466470000000072
                },
                {
                    "name": "C#4",
                    "midi": 61,
                    "time": 657.0696939999876,
                    "velocity": 0.3779527559055118,
                    "duration": 0.5466470000000072
                },
                {
                    "name": "F#3",
                    "midi": 54,
                    "time": 657.0696939999876,
                    "velocity": 0.31496062992125984,
                    "duration": 1.0932940000000144
                },
                {
                    "name": "D4",
                    "midi": 62,
                    "time": 657.6163409999876,
                    "velocity": 0.33858267716535434,
                    "duration": 0.5466470000000072
                },
                {
                    "name": "E4",
                    "midi": 64,
                    "time": 658.1629879999876,
                    "velocity": 0.3779527559055118,
                    "duration": 0.5466470000000072
                },
                {
                    "name": "D4",
                    "midi": 62,
                    "time": 658.1629879999876,
                    "velocity": 0.31496062992125984,
                    "duration": 1.0932940000000144
                },
                {
                    "name": "F4",
                    "midi": 65,
                    "time": 658.7096349999877,
                    "velocity": 0.33858267716535434,
                    "duration": 0.5466470000000072
                },
                {
                    "name": "C#4",
                    "midi": 61,
                    "time": 659.2562819999877,
                    "velocity": 0.3779527559055118,
                    "duration": 1.0932940000000144
                },
                {
                    "name": "F#4",
                    "midi": 66,
                    "time": 659.2562819999877,
                    "velocity": 0.4015748031496063,
                    "duration": 2.186588000000029
                },
                {
                    "name": "F#3",
                    "midi": 54,
                    "time": 660.3495759999877,
                    "velocity": 0.3779527559055118,
                    "duration": 1.0932940000000144
                },
                {
                    "name": "F#5",
                    "midi": 78,
                    "time": 661.4428699999877,
                    "velocity": 0.4330708661417323,
                    "duration": 1.0932940000000144
                },
                {
                    "name": "D5",
                    "midi": 74,
                    "time": 662.5361639999877,
                    "velocity": 0.3937007874015748,
                    "duration": 0.18221566666670697
                },
                {
                    "name": "E5",
                    "midi": 76,
                    "time": 662.7183796666544,
                    "velocity": 0.3700787401574803,
                    "duration": 0.18221566666670697
                },
                {
                    "name": "D5",
                    "midi": 74,
                    "time": 662.9005953333211,
                    "velocity": 0.4094488188976378,
                    "duration": 0.18221566666670697
                },
                {
                    "name": "E5",
                    "midi": 76,
                    "time": 663.0828109999878,
                    "velocity": 0.3937007874015748,
                    "duration": 0.18221566666670697
                },
                {
                    "name": "D5",
                    "midi": 74,
                    "time": 663.2650266666545,
                    "velocity": 0.4330708661417323,
                    "duration": 0.18221566666670697
                },
                {
                    "name": "E5",
                    "midi": 76,
                    "time": 663.4472423333212,
                    "velocity": 0.4094488188976378,
                    "duration": 0.18221566666670697
                },
                {
                    "name": "D5",
                    "midi": 74,
                    "time": 663.629457999988,
                    "velocity": 0.4409448818897638,
                    "duration": 0.18221566666670697
                },
                {
                    "name": "E5",
                    "midi": 76,
                    "time": 663.8116736666547,
                    "velocity": 0.3937007874015748,
                    "duration": 0.18221566666670697
                },
                {
                    "name": "D5",
                    "midi": 74,
                    "time": 663.9938893333214,
                    "velocity": 0.41732283464566927,
                    "duration": 0.18221566666670697
                },
                {
                    "name": "E5",
                    "midi": 76,
                    "time": 664.1761049999881,
                    "velocity": 0.3543307086614173,
                    "duration": 0.18221566666670697
                },
                {
                    "name": "D5",
                    "midi": 74,
                    "time": 664.3583206666548,
                    "velocity": 0.3937007874015748,
                    "duration": 0.18221566666670697
                },
                {
                    "name": "E5",
                    "midi": 76,
                    "time": 664.5405363333215,
                    "velocity": 0.3464566929133858,
                    "duration": 0.18221566666670697
                },
                {
                    "name": "D4",
                    "midi": 62,
                    "time": 664.7227519999882,
                    "velocity": 0.4330708661417323,
                    "duration": 1.0932940000000144
                },
                {
                    "name": "B4",
                    "midi": 71,
                    "time": 664.7227519999882,
                    "velocity": 0.4330708661417323,
                    "duration": 0.5466470000000072
                },
                {
                    "name": "F4",
                    "midi": 65,
                    "time": 665.2693989999882,
                    "velocity": 0.3700787401574803,
                    "duration": 0.5466470000000072
                },
                {
                    "name": "C#4",
                    "midi": 61,
                    "time": 665.8160459999882,
                    "velocity": 0.4015748031496063,
                    "duration": 1.0932940000000144
                },
                {
                    "name": "F#4",
                    "midi": 66,
                    "time": 665.8160459999882,
                    "velocity": 0.4015748031496063,
                    "duration": 2.186588000000029
                },
                {
                    "name": "F#3",
                    "midi": 54,
                    "time": 666.9093399999882,
                    "velocity": 0.33858267716535434,
                    "duration": 1.0932940000000144
                },
                {
                    "name": "F#4",
                    "midi": 66,
                    "time": 668.0026339999882,
                    "velocity": 0.4015748031496063,
                    "duration": 0.5466470000000072
                },
                {
                    "name": "G#4",
                    "midi": 68,
                    "time": 668.5492809999882,
                    "velocity": 0.4015748031496063,
                    "duration": 0.27332349999994676
                },
                {
                    "name": "A#4",
                    "midi": 70,
                    "time": 668.8226044999882,
                    "velocity": 0.4409448818897638,
                    "duration": 0.27332349999994676
                },
                {
                    "name": "B4",
                    "midi": 71,
                    "time": 669.0959279999881,
                    "velocity": 0.4566929133858268,
                    "duration": 0.27332349999994676
                },
                {
                    "name": "C#5",
                    "midi": 73,
                    "time": 669.3692514999881,
                    "velocity": 0.47244094488188976,
                    "duration": 0.27332349999994676
                },
                {
                    "name": "D5",
                    "midi": 74,
                    "time": 669.642574999988,
                    "velocity": 0.4881889763779528,
                    "duration": 0.27332349999994676
                },
                {
                    "name": "E5",
                    "midi": 76,
                    "time": 669.915898499988,
                    "velocity": 0.5039370078740157,
                    "duration": 0.27332349999994676
                },
                {
                    "name": "F#5",
                    "midi": 78,
                    "time": 670.1892219999879,
                    "velocity": 0.5196850393700787,
                    "duration": 0.27332349999994676
                },
                {
                    "name": "G5",
                    "midi": 79,
                    "time": 670.4625454999879,
                    "velocity": 0.5433070866141733,
                    "duration": 0.27332349999994676
                },
                {
                    "name": "G5",
                    "midi": 79,
                    "time": 671.2825159999878,
                    "velocity": 0.47244094488188976,
                    "duration": 1.0932940000000144
                },
                {
                    "name": "F#5",
                    "midi": 78,
                    "time": 672.3758099999878,
                    "velocity": 0.3937007874015748,
                    "duration": 0.18221566666670697
                },
                {
                    "name": "G5",
                    "midi": 79,
                    "time": 672.5580256666545,
                    "velocity": 0.3700787401574803,
                    "duration": 0.18221566666670697
                },
                {
                    "name": "F#5",
                    "midi": 78,
                    "time": 672.7402413333213,
                    "velocity": 0.4094488188976378,
                    "duration": 0.18221566666670697
                },
                {
                    "name": "G5",
                    "midi": 79,
                    "time": 672.922456999988,
                    "velocity": 0.3937007874015748,
                    "duration": 0.18221566666670697
                },
                {
                    "name": "F#5",
                    "midi": 78,
                    "time": 673.1046726666547,
                    "velocity": 0.4330708661417323,
                    "duration": 0.18221566666670697
                },
                {
                    "name": "G5",
                    "midi": 79,
                    "time": 673.2868883333214,
                    "velocity": 0.4094488188976378,
                    "duration": 0.18221566666670697
                },
                {
                    "name": "F#5",
                    "midi": 78,
                    "time": 673.4691039999881,
                    "velocity": 0.4409448818897638,
                    "duration": 0.18221566666670697
                },
                {
                    "name": "G5",
                    "midi": 79,
                    "time": 673.6513196666548,
                    "velocity": 0.3937007874015748,
                    "duration": 0.18221566666670697
                },
                {
                    "name": "F#5",
                    "midi": 78,
                    "time": 673.8335353333215,
                    "velocity": 0.41732283464566927,
                    "duration": 0.18221566666670697
                },
                {
                    "name": "G5",
                    "midi": 79,
                    "time": 674.0157509999882,
                    "velocity": 0.3543307086614173,
                    "duration": 0.18221566666670697
                },
                {
                    "name": "F#5",
                    "midi": 78,
                    "time": 674.1979666666549,
                    "velocity": 0.3937007874015748,
                    "duration": 0.18221566666670697
                },
                {
                    "name": "G5",
                    "midi": 79,
                    "time": 674.3801823333216,
                    "velocity": 0.3464566929133858,
                    "duration": 0.18221566666670697
                },
                {
                    "name": "D5",
                    "midi": 74,
                    "time": 674.5623979999883,
                    "velocity": 0.47244094488188976,
                    "duration": 1.0932940000000144
                },
                {
                    "name": "B4",
                    "midi": 71,
                    "time": 675.6556919999883,
                    "velocity": 0.47244094488188976,
                    "duration": 2.1865880000004836
                },
                {
                    "name": "D4",
                    "midi": 62,
                    "time": 675.6556919999883,
                    "velocity": 0.3543307086614173,
                    "duration": 0.18221566666670697
                },
                {
                    "name": "E4",
                    "midi": 64,
                    "time": 675.837907666655,
                    "velocity": 0.33070866141732286,
                    "duration": 0.18221566666670697
                },
                {
                    "name": "D4",
                    "midi": 62,
                    "time": 676.0201233333217,
                    "velocity": 0.36220472440944884,
                    "duration": 0.18221566666670697
                },
                {
                    "name": "E4",
                    "midi": 64,
                    "time": 676.2023389999885,
                    "velocity": 0.3543307086614173,
                    "duration": 0.18221566666670697
                },
                {
                    "name": "D4",
                    "midi": 62,
                    "time": 676.3845546666552,
                    "velocity": 0.3858267716535433,
                    "duration": 0.18221566666670697
                },
                {
                    "name": "E4",
                    "midi": 64,
                    "time": 676.5667703333219,
                    "velocity": 0.36220472440944884,
                    "duration": 0.18221566666670697
                },
                {
                    "name": "D4",
                    "midi": 62,
                    "time": 676.7489859999886,
                    "velocity": 0.3937007874015748,
                    "duration": 0.18221566666670697
                },
                {
                    "name": "E4",
                    "midi": 64,
                    "time": 676.9312016666553,
                    "velocity": 0.3543307086614173,
                    "duration": 0.18221566666670697
                },
                {
                    "name": "D4",
                    "midi": 62,
                    "time": 677.113417333322,
                    "velocity": 0.3700787401574803,
                    "duration": 0.18221566666670697
                },
                {
                    "name": "E4",
                    "midi": 64,
                    "time": 677.2956329999887,
                    "velocity": 0.31496062992125984,
                    "duration": 0.18221566666670697
                },
                {
                    "name": "D4",
                    "midi": 62,
                    "time": 677.4778486666554,
                    "velocity": 0.3543307086614173,
                    "duration": 0.18221566666670697
                },
                {
                    "name": "E4",
                    "midi": 64,
                    "time": 677.6600643333221,
                    "velocity": 0.30708661417322836,
                    "duration": 0.18221566666670697
                },
                {
                    "name": "C#4",
                    "midi": 61,
                    "time": 677.8422799999888,
                    "velocity": 0.3937007874015748,
                    "duration": 1.0932940000000144
                },
                {
                    "name": "G4",
                    "midi": 67,
                    "time": 677.8422799999888,
                    "velocity": 0.47244094488188976,
                    "duration": 1.0932940000000144
                },
                {
                    "name": "E4",
                    "midi": 64,
                    "time": 678.9355739999888,
                    "velocity": 0.4881889763779528,
                    "duration": 0.27332349999994676
                },
                {
                    "name": "F#4",
                    "midi": 66,
                    "time": 679.2088974999888,
                    "velocity": 0.49606299212598426,
                    "duration": 0.27332349999994676
                },
                {
                    "name": "G4",
                    "midi": 67,
                    "time": 679.4822209999887,
                    "velocity": 0.5039370078740157,
                    "duration": 0.27332349999994676
                },
                {
                    "name": "A4",
                    "midi": 69,
                    "time": 679.7555444999887,
                    "velocity": 0.5118110236220472,
                    "duration": 0.27332349999994676
                },
                {
                    "name": "B4",
                    "midi": 71,
                    "time": 680.0288679999886,
                    "velocity": 0.5275590551181102,
                    "duration": 0.27332349999994676
                },
                {
                    "name": "C#5",
                    "midi": 73,
                    "time": 680.3021914999886,
                    "velocity": 0.5196850393700787,
                    "duration": 0.27332349999994676
                },
                {
                    "name": "C#4",
                    "midi": 61,
                    "time": 680.5755149999885,
                    "velocity": 0.4330708661417323,
                    "duration": 0.27332349999994676
                },
                {
                    "name": "D4",
                    "midi": 62,
                    "time": 680.8488384999885,
                    "velocity": 0.44881889763779526,
                    "duration": 0.27332349999994676
                },
                {
                    "name": "C#5",
                    "midi": 73,
                    "time": 681.1221619999884,
                    "velocity": 0.5433070866141733,
                    "duration": 1.093293999999787
                },
                {
                    "name": "E4",
                    "midi": 64,
                    "time": 681.1221619999884,
                    "velocity": 0.44881889763779526,
                    "duration": 0.27332349999994676
                },
                {
                    "name": "F#4",
                    "midi": 66,
                    "time": 681.3954854999884,
                    "velocity": 0.4330708661417323,
                    "duration": 0.27332349999994676
                },
                {
                    "name": "G4",
                    "midi": 67,
                    "time": 681.6688089999883,
                    "velocity": 0.44881889763779526,
                    "duration": 0.27332349999994676
                },
                {
                    "name": "A4",
                    "midi": 69,
                    "time": 681.9421324999882,
                    "velocity": 0.47244094488188976,
                    "duration": 0.27332349999994676
                },
                {
                    "name": "G4",
                    "midi": 67,
                    "time": 682.2154559999882,
                    "velocity": 0.4881889763779528,
                    "duration": 0.27332349999994676
                },
                {
                    "name": "A4",
                    "midi": 69,
                    "time": 682.4887794999881,
                    "velocity": 0.49606299212598426,
                    "duration": 0.27332349999994676
                },
                {
                    "name": "B4",
                    "midi": 71,
                    "time": 682.7621029999881,
                    "velocity": 0.5039370078740157,
                    "duration": 0.27332349999994676
                },
                {
                    "name": "C#5",
                    "midi": 73,
                    "time": 683.035426499988,
                    "velocity": 0.5118110236220472,
                    "duration": 0.27332349999994676
                },
                {
                    "name": "D5",
                    "midi": 74,
                    "time": 683.308749999988,
                    "velocity": 0.5275590551181102,
                    "duration": 0.27332349999994676
                },
                {
                    "name": "E5",
                    "midi": 76,
                    "time": 683.5820734999879,
                    "velocity": 0.5196850393700787,
                    "duration": 0.27332349999994676
                },
                {
                    "name": "E4",
                    "midi": 64,
                    "time": 683.8553969999879,
                    "velocity": 0.4330708661417323,
                    "duration": 0.27332349999994676
                },
                {
                    "name": "F#4",
                    "midi": 66,
                    "time": 684.1287204999878,
                    "velocity": 0.44881889763779526,
                    "duration": 0.27332349999994676
                },
                {
                    "name": "E5",
                    "midi": 76,
                    "time": 684.4020439999878,
                    "velocity": 0.5433070866141733,
                    "duration": 1.093293999999787
                },
                {
                    "name": "G4",
                    "midi": 67,
                    "time": 684.4020439999878,
                    "velocity": 0.44881889763779526,
                    "duration": 0.27332349999994676
                },
                {
                    "name": "A4",
                    "midi": 69,
                    "time": 684.6753674999877,
                    "velocity": 0.4330708661417323,
                    "duration": 0.27332349999994676
                },
                {
                    "name": "B4",
                    "midi": 71,
                    "time": 684.9486909999877,
                    "velocity": 0.44881889763779526,
                    "duration": 0.27332349999994676
                },
                {
                    "name": "C#5",
                    "midi": 73,
                    "time": 685.2220144999876,
                    "velocity": 0.47244094488188976,
                    "duration": 0.27332349999994676
                },
                {
                    "name": "G5",
                    "midi": 79,
                    "time": 685.4953379999876,
                    "velocity": 0.5826771653543307,
                    "duration": 0.27332349999994676
                },
                {
                    "name": "F#5",
                    "midi": 78,
                    "time": 685.7686614999875,
                    "velocity": 0.5669291338582677,
                    "duration": 0.27332349999994676
                },
                {
                    "name": "E5",
                    "midi": 76,
                    "time": 686.0419849999874,
                    "velocity": 0.5590551181102362,
                    "duration": 0.27332349999994676
                },
                {
                    "name": "D5",
                    "midi": 74,
                    "time": 686.3153084999874,
                    "velocity": 0.5433070866141733,
                    "duration": 0.27332349999994676
                },
                {
                    "name": "C#5",
                    "midi": 73,
                    "time": 686.5886319999873,
                    "velocity": 0.5275590551181102,
                    "duration": 0.27332349999994676
                },
                {
                    "name": "B4",
                    "midi": 71,
                    "time": 686.8619554999873,
                    "velocity": 0.5354330708661418,
                    "duration": 0.27332349999994676
                },
                {
                    "name": "G4",
                    "midi": 67,
                    "time": 687.1352789999872,
                    "velocity": 0.5039370078740157,
                    "duration": 0.27332349999994676
                },
                {
                    "name": "F#4",
                    "midi": 66,
                    "time": 687.4086024999872,
                    "velocity": 0.48031496062992124,
                    "duration": 0.27332349999994676
                },
                {
                    "name": "B4",
                    "midi": 71,
                    "time": 687.6819259999871,
                    "velocity": 0.5905511811023622,
                    "duration": 1.093293999999787
                },
                {
                    "name": "E4",
                    "midi": 64,
                    "time": 687.6819259999871,
                    "velocity": 0.4881889763779528,
                    "duration": 0.27332349999994676
                },
                {
                    "name": "D4",
                    "midi": 62,
                    "time": 687.9552494999871,
                    "velocity": 0.47244094488188976,
                    "duration": 0.27332349999994676
                },
                {
                    "name": "C#4",
                    "midi": 61,
                    "time": 688.228572999987,
                    "velocity": 0.44881889763779526,
                    "duration": 0.27332349999994676
                },
                {
                    "name": "B3",
                    "midi": 59,
                    "time": 688.501896499987,
                    "velocity": 0.4330708661417323,
                    "duration": 0.27332349999994676
                },
                {
                    "name": "E5",
                    "midi": 76,
                    "time": 688.7752199999869,
                    "velocity": 0.5826771653543307,
                    "duration": 0.27332349999994676
                },
                {
                    "name": "D5",
                    "midi": 74,
                    "time": 689.0485434999869,
                    "velocity": 0.5669291338582677,
                    "duration": 0.27332349999994676
                },
                {
                    "name": "C#5",
                    "midi": 73,
                    "time": 689.3218669999868,
                    "velocity": 0.5590551181102362,
                    "duration": 0.27332349999994676
                },
                {
                    "name": "B4",
                    "midi": 71,
                    "time": 689.5951904999868,
                    "velocity": 0.5433070866141733,
                    "duration": 0.27332349999994676
                },
                {
                    "name": "A4",
                    "midi": 69,
                    "time": 689.8685139999867,
                    "velocity": 0.5275590551181102,
                    "duration": 0.27332349999994676
                },
                {
                    "name": "G4",
                    "midi": 67,
                    "time": 690.1418374999867,
                    "velocity": 0.5669291338582677,
                    "duration": 0.27332349999994676
                },
                {
                    "name": "E4",
                    "midi": 64,
                    "time": 690.4151609999866,
                    "velocity": 0.5039370078740157,
                    "duration": 0.27332349999994676
                },
                {
                    "name": "D4",
                    "midi": 62,
                    "time": 690.6884844999865,
                    "velocity": 0.48031496062992124,
                    "duration": 0.27332349999994676
                },
                {
                    "name": "G4",
                    "midi": 67,
                    "time": 690.9618079999865,
                    "velocity": 0.5905511811023622,
                    "duration": 1.093293999999787
                },
                {
                    "name": "C#4",
                    "midi": 61,
                    "time": 690.9618079999865,
                    "velocity": 0.4881889763779528,
                    "duration": 0.27332349999994676
                },
                {
                    "name": "B3",
                    "midi": 59,
                    "time": 691.2351314999864,
                    "velocity": 0.47244094488188976,
                    "duration": 0.27332349999994676
                },
                {
                    "name": "A3",
                    "midi": 57,
                    "time": 691.5084549999864,
                    "velocity": 0.44881889763779526,
                    "duration": 0.27332349999994676
                },
                {
                    "name": "G3",
                    "midi": 55,
                    "time": 691.7817784999863,
                    "velocity": 0.4330708661417323,
                    "duration": 0.27332349999994676
                },
                {
                    "name": "D4",
                    "midi": 62,
                    "time": 692.0551019999863,
                    "velocity": 0.5748031496062992,
                    "duration": 0.27332349999994676
                },
                {
                    "name": "F#4",
                    "midi": 66,
                    "time": 692.0551019999863,
                    "velocity": 0.5748031496062992,
                    "duration": 1.093293999999787
                },
                {
                    "name": "C#4",
                    "midi": 61,
                    "time": 692.3284254999862,
                    "velocity": 0.5354330708661418,
                    "duration": 0.27332349999994676
                },
                {
                    "name": "B3",
                    "midi": 59,
                    "time": 692.6017489999862,
                    "velocity": 0.49606299212598426,
                    "duration": 0.27332349999994676
                },
                {
                    "name": "A3",
                    "midi": 57,
                    "time": 692.8750724999861,
                    "velocity": 0.4881889763779528,
                    "duration": 0.27332349999994676
                },
                {
                    "name": "G3",
                    "midi": 55,
                    "time": 693.1483959999861,
                    "velocity": 0.4881889763779528,
                    "duration": 0.27332349999994676
                },
                {
                    "name": "F#3",
                    "midi": 54,
                    "time": 693.421719499986,
                    "velocity": 0.48031496062992124,
                    "duration": 0.27332349999994676
                },
                {
                    "name": "F#4",
                    "midi": 66,
                    "time": 693.695042999986,
                    "velocity": 0.49606299212598426,
                    "duration": 0.27332349999994676
                },
                {
                    "name": "G4",
                    "midi": 67,
                    "time": 693.9683664999859,
                    "velocity": 0.5118110236220472,
                    "duration": 0.27332349999994676
                },
                {
                    "name": "A4",
                    "midi": 69,
                    "time": 694.2416899999859,
                    "velocity": 0.5275590551181102,
                    "duration": 0.27332349999994676
                },
                {
                    "name": "B4",
                    "midi": 71,
                    "time": 694.5150134999858,
                    "velocity": 0.5433070866141733,
                    "duration": 0.27332349999994676
                },
                {
                    "name": "C#5",
                    "midi": 73,
                    "time": 694.7883369999857,
                    "velocity": 0.5669291338582677,
                    "duration": 0.27332349999994676
                },
                {
                    "name": "D5",
                    "midi": 74,
                    "time": 695.0616604999857,
                    "velocity": 0.5826771653543307,
                    "duration": 0.27332349999994676
                },
                {
                    "name": "F#4",
                    "midi": 66,
                    "time": 695.3349839999856,
                    "velocity": 0.5748031496062992,
                    "duration": 0.27332349999994676
                },
                {
                    "name": "A4",
                    "midi": 69,
                    "time": 695.3349839999856,
                    "velocity": 0.5748031496062992,
                    "duration": 1.093293999999787
                },
                {
                    "name": "E4",
                    "midi": 64,
                    "time": 695.6083074999856,
                    "velocity": 0.5354330708661418,
                    "duration": 0.27332349999994676
                },
                {
                    "name": "D4",
                    "midi": 62,
                    "time": 695.8816309999855,
                    "velocity": 0.49606299212598426,
                    "duration": 0.27332349999994676
                },
                {
                    "name": "C#4",
                    "midi": 61,
                    "time": 696.1549544999855,
                    "velocity": 0.4881889763779528,
                    "duration": 0.27332349999994676
                },
                {
                    "name": "B3",
                    "midi": 59,
                    "time": 696.4282779999854,
                    "velocity": 0.4881889763779528,
                    "duration": 0.27332349999994676
                },
                {
                    "name": "A3",
                    "midi": 57,
                    "time": 696.7016014999854,
                    "velocity": 0.48031496062992124,
                    "duration": 0.27332349999994676
                },
                {
                    "name": "A4",
                    "midi": 69,
                    "time": 696.9749249999853,
                    "velocity": 0.49606299212598426,
                    "duration": 0.27332349999994676
                },
                {
                    "name": "B4",
                    "midi": 71,
                    "time": 697.2482484999853,
                    "velocity": 0.5118110236220472,
                    "duration": 0.27332349999994676
                },
                {
                    "name": "C#5",
                    "midi": 73,
                    "time": 697.5215719999852,
                    "velocity": 0.5275590551181102,
                    "duration": 0.27332349999994676
                },
                {
                    "name": "D5",
                    "midi": 74,
                    "time": 697.7948954999852,
                    "velocity": 0.5433070866141733,
                    "duration": 0.27332349999994676
                },
                {
                    "name": "E5",
                    "midi": 76,
                    "time": 698.0682189999851,
                    "velocity": 0.5669291338582677,
                    "duration": 0.27332349999994676
                },
                {
                    "name": "F#5",
                    "midi": 78,
                    "time": 698.341542499985,
                    "velocity": 0.5826771653543307,
                    "duration": 0.27332349999994676
                },
                {
                    "name": "G4",
                    "midi": 67,
                    "time": 698.614865999985,
                    "velocity": 0.5748031496062992,
                    "duration": 0.27332349999994676
                },
                {
                    "name": "B4",
                    "midi": 71,
                    "time": 698.614865999985,
                    "velocity": 0.5748031496062992,
                    "duration": 1.093293999999787
                },
                {
                    "name": "F#4",
                    "midi": 66,
                    "time": 698.888189499985,
                    "velocity": 0.5354330708661418,
                    "duration": 0.27332349999994676
                },
                {
                    "name": "E4",
                    "midi": 64,
                    "time": 699.1615129999849,
                    "velocity": 0.49606299212598426,
                    "duration": 0.27332349999994676
                },
                {
                    "name": "D4",
                    "midi": 62,
                    "time": 699.4348364999848,
                    "velocity": 0.4881889763779528,
                    "duration": 0.27332349999994676
                },
                {
                    "name": "C#4",
                    "midi": 61,
                    "time": 699.7081599999848,
                    "velocity": 0.4881889763779528,
                    "duration": 0.27332349999994676
                },
                {
                    "name": "B3",
                    "midi": 59,
                    "time": 699.9814834999847,
                    "velocity": 0.48031496062992124,
                    "duration": 0.27332349999994676
                },
                {
                    "name": "B4",
                    "midi": 71,
                    "time": 700.2548069999847,
                    "velocity": 0.49606299212598426,
                    "duration": 0.27332349999994676
                },
                {
                    "name": "C#5",
                    "midi": 73,
                    "time": 700.5281304999846,
                    "velocity": 0.5118110236220472,
                    "duration": 0.27332349999994676
                },
                {
                    "name": "G4",
                    "midi": 67,
                    "time": 700.8014539999846,
                    "velocity": 0.5118110236220472,
                    "duration": 1.093293999999787
                },
                {
                    "name": "D5",
                    "midi": 74,
                    "time": 700.8014539999846,
                    "velocity": 0.5275590551181102,
                    "duration": 0.27332349999994676
                },
                {
                    "name": "E5",
                    "midi": 76,
                    "time": 701.0747774999845,
                    "velocity": 0.5433070866141733,
                    "duration": 0.27332349999994676
                },
                {
                    "name": "F#5",
                    "midi": 78,
                    "time": 701.3481009999845,
                    "velocity": 0.5669291338582677,
                    "duration": 0.27332349999994676
                },
                {
                    "name": "G5",
                    "midi": 79,
                    "time": 701.6214244999844,
                    "velocity": 0.5826771653543307,
                    "duration": 0.27332349999994676
                },
                {
                    "name": "E5",
                    "midi": 76,
                    "time": 701.8947479999844,
                    "velocity": 0.6299212598425197,
                    "duration": 0.27332349999994676
                },
                {
                    "name": "G5",
                    "midi": 79,
                    "time": 701.8947479999844,
                    "velocity": 0.6299212598425197,
                    "duration": 1.093293999999787
                },
                {
                    "name": "D5",
                    "midi": 74,
                    "time": 702.1680714999843,
                    "velocity": 0.5826771653543307,
                    "duration": 0.27332349999994676
                },
                {
                    "name": "C#5",
                    "midi": 73,
                    "time": 702.4413949999843,
                    "velocity": 0.5433070866141733,
                    "duration": 0.27332349999994676
                },
                {
                    "name": "B4",
                    "midi": 71,
                    "time": 702.7147184999842,
                    "velocity": 0.5354330708661418,
                    "duration": 0.27332349999994676
                },
                {
                    "name": "A4",
                    "midi": 69,
                    "time": 702.9880419999841,
                    "velocity": 0.5354330708661418,
                    "duration": 0.27332349999994676
                },
                {
                    "name": "G4",
                    "midi": 67,
                    "time": 703.2613654999841,
                    "velocity": 0.5275590551181102,
                    "duration": 0.27332349999994676
                },
                {
                    "name": "G5",
                    "midi": 79,
                    "time": 703.534688999984,
                    "velocity": 0.5433070866141733,
                    "duration": 0.27332349999994676
                },
                {
                    "name": "A5",
                    "midi": 81,
                    "time": 703.808012499984,
                    "velocity": 0.5354330708661418,
                    "duration": 0.27332349999994676
                },
                {
                    "name": "G5",
                    "midi": 79,
                    "time": 704.0813359999839,
                    "velocity": 0.5590551181102362,
                    "duration": 1.093293999999787
                },
                {
                    "name": "B5",
                    "midi": 83,
                    "time": 704.0813359999839,
                    "velocity": 0.5748031496062992,
                    "duration": 0.27332349999994676
                },
                {
                    "name": "C#6",
                    "midi": 85,
                    "time": 704.3546594999839,
                    "velocity": 0.5905511811023622,
                    "duration": 0.27332349999994676
                },
                {
                    "name": "D6",
                    "midi": 86,
                    "time": 704.6279829999838,
                    "velocity": 0.6220472440944882,
                    "duration": 0.27332349999994676
                },
                {
                    "name": "E6",
                    "midi": 88,
                    "time": 704.9013064999838,
                    "velocity": 0.6377952755905512,
                    "duration": 0.27332349999994676
                },
                {
                    "name": "F#5",
                    "midi": 78,
                    "time": 705.1746299999837,
                    "velocity": 0.5590551181102362,
                    "duration": 1.093293999999787
                },
                {
                    "name": "F#6",
                    "midi": 90,
                    "time": 705.1746299999837,
                    "velocity": 0.6692913385826772,
                    "duration": 0.27332349999994676
                },
                {
                    "name": "E6",
                    "midi": 88,
                    "time": 705.4479534999837,
                    "velocity": 0.6535433070866141,
                    "duration": 0.27332349999994676
                },
                {
                    "name": "D6",
                    "midi": 86,
                    "time": 705.7212769999836,
                    "velocity": 0.6299212598425197,
                    "duration": 0.27332349999994676
                },
                {
                    "name": "C#6",
                    "midi": 85,
                    "time": 705.9946004999836,
                    "velocity": 0.6141732283464567,
                    "duration": 0.27332349999994676
                },
                {
                    "name": "B5",
                    "midi": 83,
                    "time": 706.2679239999835,
                    "velocity": 0.5984251968503937,
                    "duration": 0.27332349999994676
                },
                {
                    "name": "A5",
                    "midi": 81,
                    "time": 706.5412474999835,
                    "velocity": 0.5748031496062992,
                    "duration": 0.27332349999994676
                },
                {
                    "name": "A5",
                    "midi": 81,
                    "time": 707.3612179999834,
                    "velocity": 0.5590551181102362,
                    "duration": 1.0932940000000144
                },
                {
                    "name": "D5",
                    "midi": 74,
                    "time": 708.4545119999834,
                    "velocity": 0.5590551181102362,
                    "duration": 1.093293999999787
                },
                {
                    "name": "D6",
                    "midi": 86,
                    "time": 708.4545119999834,
                    "velocity": 0.6692913385826772,
                    "duration": 0.27332349999994676
                },
                {
                    "name": "C#6",
                    "midi": 85,
                    "time": 708.7278354999834,
                    "velocity": 0.6535433070866141,
                    "duration": 0.27332349999994676
                },
                {
                    "name": "B5",
                    "midi": 83,
                    "time": 709.0011589999833,
                    "velocity": 0.6299212598425197,
                    "duration": 0.27332349999994676
                },
                {
                    "name": "A5",
                    "midi": 81,
                    "time": 709.2744824999833,
                    "velocity": 0.6141732283464567,
                    "duration": 0.27332349999994676
                },
                {
                    "name": "G5",
                    "midi": 79,
                    "time": 709.5478059999832,
                    "velocity": 0.5984251968503937,
                    "duration": 0.27332349999994676
                },
                {
                    "name": "F#5",
                    "midi": 78,
                    "time": 709.8211294999832,
                    "velocity": 0.5748031496062992,
                    "duration": 0.27332349999994676
                },
                {
                    "name": "F#5",
                    "midi": 78,
                    "time": 710.6410999999831,
                    "velocity": 0.5590551181102362,
                    "duration": 1.0932940000000144
                },
                {
                    "name": "D5",
                    "midi": 74,
                    "time": 713.3743349999831,
                    "velocity": 0.5433070866141733,
                    "duration": 0.27332349999994676
                },
                {
                    "name": "E5",
                    "midi": 76,
                    "time": 713.6476584999831,
                    "velocity": 0.5511811023622047,
                    "duration": 0.27332349999994676
                },
                {
                    "name": "F#5",
                    "midi": 78,
                    "time": 713.920981999983,
                    "velocity": 0.5669291338582677,
                    "duration": 0.27332349999994676
                },
                {
                    "name": "G5",
                    "midi": 79,
                    "time": 714.194305499983,
                    "velocity": 0.5748031496062992,
                    "duration": 0.27332349999994676
                },
                {
                    "name": "A5",
                    "midi": 81,
                    "time": 714.4676289999829,
                    "velocity": 0.5826771653543307,
                    "duration": 0.27332349999994676
                },
                {
                    "name": "A#5",
                    "midi": 82,
                    "time": 714.7409524999829,
                    "velocity": 0.5905511811023622,
                    "duration": 0.27332349999994676
                },
                {
                    "name": "B5",
                    "midi": 83,
                    "time": 715.0142759999828,
                    "velocity": 0.5984251968503937,
                    "duration": 0.27332349999994676
                },
                {
                    "name": "A5",
                    "midi": 81,
                    "time": 715.2875994999828,
                    "velocity": 0.5590551181102362,
                    "duration": 0.27332349999994676
                },
                {
                    "name": "G5",
                    "midi": 79,
                    "time": 715.5609229999827,
                    "velocity": 0.5590551181102362,
                    "duration": 0.27332349999994676
                },
                {
                    "name": "F#5",
                    "midi": 78,
                    "time": 715.8342464999827,
                    "velocity": 0.5511811023622047,
                    "duration": 0.27332349999994676
                },
                {
                    "name": "E5",
                    "midi": 76,
                    "time": 716.1075699999826,
                    "velocity": 0.5433070866141733,
                    "duration": 0.27332349999994676
                },
                {
                    "name": "D5",
                    "midi": 74,
                    "time": 716.3808934999826,
                    "velocity": 0.5354330708661418,
                    "duration": 0.27332349999994676
                },
                {
                    "name": "G5",
                    "midi": 79,
                    "time": 716.6542169999825,
                    "velocity": 0.6062992125984252,
                    "duration": 0.27332349999994676
                },
                {
                    "name": "F#5",
                    "midi": 78,
                    "time": 716.9275404999825,
                    "velocity": 0.5590551181102362,
                    "duration": 0.27332349999994676
                },
                {
                    "name": "E5",
                    "midi": 76,
                    "time": 717.2008639999824,
                    "velocity": 0.5511811023622047,
                    "duration": 0.27332349999994676
                },
                {
                    "name": "D5",
                    "midi": 74,
                    "time": 717.4741874999823,
                    "velocity": 0.5433070866141733,
                    "duration": 0.27332349999994676
                },
                {
                    "name": "C5",
                    "midi": 72,
                    "time": 717.7475109999823,
                    "velocity": 0.5354330708661418,
                    "duration": 0.27332349999994676
                },
                {
                    "name": "B4",
                    "midi": 71,
                    "time": 718.0208344999822,
                    "velocity": 0.5196850393700787,
                    "duration": 0.27332349999994676
                },
                {
                    "name": "E5",
                    "midi": 76,
                    "time": 718.2941579999822,
                    "velocity": 0.6141732283464567,
                    "duration": 0.27332349999994676
                },
                {
                    "name": "D5",
                    "midi": 74,
                    "time": 718.5674814999821,
                    "velocity": 0.5433070866141733,
                    "duration": 0.27332349999994676
                },
                {
                    "name": "C#5",
                    "midi": 73,
                    "time": 718.8408049999821,
                    "velocity": 0.5275590551181102,
                    "duration": 0.27332349999994676
                },
                {
                    "name": "B4",
                    "midi": 71,
                    "time": 719.114128499982,
                    "velocity": 0.5196850393700787,
                    "duration": 0.27332349999994676
                },
                {
                    "name": "A4",
                    "midi": 69,
                    "time": 719.387451999982,
                    "velocity": 0.5275590551181102,
                    "duration": 0.27332349999994676
                },
                {
                    "name": "G#4",
                    "midi": 68,
                    "time": 719.6607754999819,
                    "velocity": 0.49606299212598426,
                    "duration": 0.27332349999994676
                },
                {
                    "name": "G4",
                    "midi": 67,
                    "time": 719.9340989999819,
                    "velocity": 0.49606299212598426,
                    "duration": 2.7332349999994676
                },
                {
                    "name": "E4",
                    "midi": 64,
                    "time": 719.9340989999819,
                    "velocity": 0.49606299212598426,
                    "duration": 0.27332349999994676
                },
                {
                    "name": "D4",
                    "midi": 62,
                    "time": 720.2074224999818,
                    "velocity": 0.4645669291338583,
                    "duration": 0.27332349999994676
                },
                {
                    "name": "C#4",
                    "midi": 61,
                    "time": 720.4807459999818,
                    "velocity": 0.49606299212598426,
                    "duration": 0.27332349999994676
                },
                {
                    "name": "B3",
                    "midi": 59,
                    "time": 720.7540694999817,
                    "velocity": 0.4645669291338583,
                    "duration": 0.27332349999994676
                },
                {
                    "name": "A3",
                    "midi": 57,
                    "time": 721.0273929999817,
                    "velocity": 0.4566929133858268,
                    "duration": 0.27332349999994676
                },
                {
                    "name": "G#3",
                    "midi": 56,
                    "time": 721.3007164999816,
                    "velocity": 0.44881889763779526,
                    "duration": 0.27332349999994676
                },
                {
                    "name": "E4",
                    "midi": 64,
                    "time": 721.5740399999816,
                    "velocity": 0.4881889763779528,
                    "duration": 0.27332349999994676
                },
                {
                    "name": "D4",
                    "midi": 62,
                    "time": 721.8473634999815,
                    "velocity": 0.44881889763779526,
                    "duration": 0.27332349999994676
                },
                {
                    "name": "C#4",
                    "midi": 61,
                    "time": 722.1206869999814,
                    "velocity": 0.44881889763779526,
                    "duration": 0.27332349999994676
                },
                {
                    "name": "D4",
                    "midi": 62,
                    "time": 722.3940104999814,
                    "velocity": 0.44881889763779526,
                    "duration": 0.27332349999994676
                },
                {
                    "name": "F#4",
                    "midi": 66,
                    "time": 722.6673339999813,
                    "velocity": 0.5511811023622047,
                    "duration": 2.1865879999998015
                },
                {
                    "name": "E4",
                    "midi": 64,
                    "time": 722.6673339999813,
                    "velocity": 0.5511811023622047,
                    "duration": 1.3666174999999612
                },
                {
                    "name": "C#4",
                    "midi": 61,
                    "time": 724.0339514999813,
                    "velocity": 0.4566929133858268,
                    "duration": 0.27332349999994676
                },
                {
                    "name": "D4",
                    "midi": 62,
                    "time": 724.3072749999812,
                    "velocity": 0.4566929133858268,
                    "duration": 0.27332349999994676
                },
                {
                    "name": "E4",
                    "midi": 64,
                    "time": 724.5805984999812,
                    "velocity": 0.4566929133858268,
                    "duration": 0.27332349999994676
                },
                {
                    "name": "D4",
                    "midi": 62,
                    "time": 724.8539219999811,
                    "velocity": 0.5118110236220472,
                    "duration": 2.186588000000029
                },
                {
                    "name": "F#4",
                    "midi": 66,
                    "time": 724.8539219999811,
                    "velocity": 0.5118110236220472,
                    "duration": 1.0932940000000144
                },
                {
                    "name": "B4",
                    "midi": 71,
                    "time": 725.9472159999812,
                    "velocity": 0.5354330708661418,
                    "duration": 2.7332349999998087
                },
                {
                    "name": "D4",
                    "midi": 62,
                    "time": 727.3138334999811,
                    "velocity": 0.4094488188976378,
                    "duration": 0.27332349999994676
                },
                {
                    "name": "B3",
                    "midi": 59,
                    "time": 727.5871569999811,
                    "velocity": 0.44881889763779526,
                    "duration": 0.27332349999994676
                },
                {
                    "name": "F4",
                    "midi": 65,
                    "time": 727.860480499981,
                    "velocity": 0.4094488188976378,
                    "duration": 0.27332349999994676
                },
                {
                    "name": "F#4",
                    "midi": 66,
                    "time": 728.133803999981,
                    "velocity": 0.44881889763779526,
                    "duration": 1.0932940000000144
                },
                {
                    "name": "D4",
                    "midi": 62,
                    "time": 729.227097999981,
                    "velocity": 0.44881889763779526,
                    "duration": 0.27332349999994676
                },
                {
                    "name": "F#4",
                    "midi": 66,
                    "time": 729.5004214999809,
                    "velocity": 0.4094488188976378,
                    "duration": 0.27332349999994676
                },
                {
                    "name": "G#4",
                    "midi": 68,
                    "time": 729.7737449999809,
                    "velocity": 0.44881889763779526,
                    "duration": 0.5466469999998935
                },
                {
                    "name": "F4",
                    "midi": 65,
                    "time": 729.7737449999809,
                    "velocity": 0.3779527559055118,
                    "duration": 0.27332349999994676
                },
                {
                    "name": "E4",
                    "midi": 64,
                    "time": 730.0470684999808,
                    "velocity": 0.4094488188976378,
                    "duration": 0.27332349999994676
                },
                {
                    "name": "G4",
                    "midi": 67,
                    "time": 730.3203919999808,
                    "velocity": 0.49606299212598426,
                    "duration": 0.5466469999998935
                },
                {
                    "name": "A#3",
                    "midi": 58,
                    "time": 730.3203919999808,
                    "velocity": 0.44881889763779526,
                    "duration": 0.27332349999994676
                },
                {
                    "name": "E4",
                    "midi": 64,
                    "time": 730.5937154999807,
                    "velocity": 0.3937007874015748,
                    "duration": 0.27332349999994676
                },
                {
                    "name": "F#4",
                    "midi": 66,
                    "time": 730.8670389999807,
                    "velocity": 0.4566929133858268,
                    "duration": 1.0932939999999007
                },
                {
                    "name": "D4",
                    "midi": 62,
                    "time": 730.8670389999807,
                    "velocity": 0.3779527559055118,
                    "duration": 0.27332349999994676
                },
                {
                    "name": "A3",
                    "midi": 57,
                    "time": 731.1403624999806,
                    "velocity": 0.4015748031496063,
                    "duration": 0.27332349999994676
                },
                {
                    "name": "A#3",
                    "midi": 58,
                    "time": 731.4136859999805,
                    "velocity": 0.5354330708661418,
                    "duration": 1.0932940000000144
                },
                {
                    "name": "E4",
                    "midi": 64,
                    "time": 731.9603329999806,
                    "velocity": 0.44881889763779526,
                    "duration": 0.5466470000000072
                },
                {
                    "name": "A#3",
                    "midi": 58,
                    "time": 732.5069799999806,
                    "velocity": 0.5118110236220472,
                    "duration": 1.6399410000000216
                },
                {
                    "name": "G3",
                    "midi": 55,
                    "time": 733.0536269999806,
                    "velocity": 0.5118110236220472,
                    "duration": 0.5466470000000072
                },
                {
                    "name": "E3",
                    "midi": 52,
                    "time": 733.6002739999806,
                    "velocity": 0.5118110236220472,
                    "duration": 1.0932940000000144
                },
                {
                    "name": "A#3",
                    "midi": 58,
                    "time": 734.1469209999806,
                    "velocity": 0.5118110236220472,
                    "duration": 0.819970499999954
                },
                {
                    "name": "F#3",
                    "midi": 54,
                    "time": 734.6935679999806,
                    "velocity": 0.5118110236220472,
                    "duration": 0.8199704999998403
                },
                {
                    "name": "G#3",
                    "midi": 56,
                    "time": 734.9668914999805,
                    "velocity": 0.44881889763779526,
                    "duration": 0.27332349999994676
                },
                {
                    "name": "A3",
                    "midi": 57,
                    "time": 735.2402149999805,
                    "velocity": 0.5118110236220472,
                    "duration": 0.8199704999998403
                },
                {
                    "name": "F3",
                    "midi": 53,
                    "time": 735.5135384999804,
                    "velocity": 0.47244094488188976,
                    "duration": 0.27332349999994676
                },
                {
                    "name": "F#3",
                    "midi": 54,
                    "time": 735.7868619999804,
                    "velocity": 0.5118110236220472,
                    "duration": 0.8199704999998403
                },
                {
                    "name": "C#4",
                    "midi": 61,
                    "time": 736.0601854999803,
                    "velocity": 0.4566929133858268,
                    "duration": 0.27332349999994676
                },
                {
                    "name": "D4",
                    "midi": 62,
                    "time": 736.3335089999803,
                    "velocity": 0.5118110236220472,
                    "duration": 0.8199704999998403
                },
                {
                    "name": "G3",
                    "midi": 55,
                    "time": 736.6068324999802,
                    "velocity": 0.47244094488188976,
                    "duration": 0.27332349999994676
                },
                {
                    "name": "A3",
                    "midi": 57,
                    "time": 736.8801559999802,
                    "velocity": 0.5118110236220472,
                    "duration": 0.8199704999998403
                },
                {
                    "name": "C#4",
                    "midi": 61,
                    "time": 737.1534794999801,
                    "velocity": 0.4566929133858268,
                    "duration": 0.27332349999994676
                },
                {
                    "name": "D4",
                    "midi": 62,
                    "time": 737.42680299998,
                    "velocity": 0.5118110236220472,
                    "duration": 0.8199704999998403
                },
                {
                    "name": "A#3",
                    "midi": 58,
                    "time": 737.70012649998,
                    "velocity": 0.47244094488188976,
                    "duration": 0.27332349999994676
                },
                {
                    "name": "B3",
                    "midi": 59,
                    "time": 737.97344999998,
                    "velocity": 0.5118110236220472,
                    "duration": 0.8199704999998403
                },
                {
                    "name": "F3",
                    "midi": 53,
                    "time": 738.2467734999799,
                    "velocity": 0.4566929133858268,
                    "duration": 0.27332349999994676
                },
                {
                    "name": "F#3",
                    "midi": 54,
                    "time": 738.5200969999798,
                    "velocity": 0.5118110236220472,
                    "duration": 0.8199704999998403
                },
                {
                    "name": "C#3",
                    "midi": 49,
                    "time": 738.7934204999798,
                    "velocity": 0.47244094488188976,
                    "duration": 0.27332349999994676
                },
                {
                    "name": "D3",
                    "midi": 50,
                    "time": 739.0667439999797,
                    "velocity": 0.5118110236220472,
                    "duration": 0.8199704999998403
                },
                {
                    "name": "F#3",
                    "midi": 54,
                    "time": 739.3400674999797,
                    "velocity": 0.4645669291338583,
                    "duration": 0.27332349999994676
                },
                {
                    "name": "G3",
                    "midi": 55,
                    "time": 739.6133909999796,
                    "velocity": 0.5118110236220472,
                    "duration": 0.8199704999998403
                },
                {
                    "name": "D#3",
                    "midi": 51,
                    "time": 739.8867144999796,
                    "velocity": 0.47244094488188976,
                    "duration": 0.27332349999994676
                },
                {
                    "name": "E3",
                    "midi": 52,
                    "time": 740.1600379999795,
                    "velocity": 0.5118110236220472,
                    "duration": 0.8199704999998403
                },
                {
                    "name": "A3",
                    "midi": 57,
                    "time": 740.4333614999795,
                    "velocity": 0.44881889763779526,
                    "duration": 0.27332349999994676
                },
                {
                    "name": "B3",
                    "midi": 59,
                    "time": 740.7066849999794,
                    "velocity": 0.5118110236220472,
                    "duration": 0.8199704999998403
                },
                {
                    "name": "F#3",
                    "midi": 54,
                    "time": 740.9800084999794,
                    "velocity": 0.47244094488188976,
                    "duration": 0.27332349999994676
                },
                {
                    "name": "G3",
                    "midi": 55,
                    "time": 741.2533319999793,
                    "velocity": 0.5118110236220472,
                    "duration": 0.8199704999998403
                },
                {
                    "name": "A#3",
                    "midi": 58,
                    "time": 741.5266554999793,
                    "velocity": 0.4645669291338583,
                    "duration": 0.27332349999994676
                },
                {
                    "name": "B3",
                    "midi": 59,
                    "time": 741.7999789999792,
                    "velocity": 0.5118110236220472,
                    "duration": 0.8199704999998403
                },
                {
                    "name": "F#3",
                    "midi": 54,
                    "time": 742.0733024999791,
                    "velocity": 0.47244094488188976,
                    "duration": 0.27332349999994676
                },
                {
                    "name": "G3",
                    "midi": 55,
                    "time": 742.3466259999791,
                    "velocity": 0.5118110236220472,
                    "duration": 0.8199704999998403
                },
                {
                    "name": "D#4",
                    "midi": 63,
                    "time": 742.619949499979,
                    "velocity": 0.4409448818897638,
                    "duration": 0.27332349999994676
                },
                {
                    "name": "E4",
                    "midi": 64,
                    "time": 742.893272999979,
                    "velocity": 0.5118110236220472,
                    "duration": 0.8199704999998403
                },
                {
                    "name": "A3",
                    "midi": 57,
                    "time": 743.1665964999789,
                    "velocity": 0.47244094488188976,
                    "duration": 0.27332349999994676
                },
                {
                    "name": "B3",
                    "midi": 59,
                    "time": 743.4399199999789,
                    "velocity": 0.5118110236220472,
                    "duration": 0.8199704999998403
                },
                {
                    "name": "F#4",
                    "midi": 66,
                    "time": 743.7132434999788,
                    "velocity": 0.4645669291338583,
                    "duration": 0.27332349999994676
                },
                {
                    "name": "G4",
                    "midi": 67,
                    "time": 743.9865669999788,
                    "velocity": 0.5118110236220472,
                    "duration": 1.0932939999999007
                },
                {
                    "name": "A#3",
                    "midi": 58,
                    "time": 744.2598904999787,
                    "velocity": 0.47244094488188976,
                    "duration": 0.27332349999994676
                },
                {
                    "name": "A3",
                    "midi": 57,
                    "time": 744.5332139999787,
                    "velocity": 0.47244094488188976,
                    "duration": 1.0932940000000144
                },
                {
                    "name": "G#4",
                    "midi": 68,
                    "time": 745.0798609999787,
                    "velocity": 0.5669291338582677,
                    "duration": 0.5466470000000072
                },
                {
                    "name": "A4",
                    "midi": 69,
                    "time": 745.6265079999787,
                    "velocity": 0.6141732283464567,
                    "duration": 1.6399410000000216
                },
                {
                    "name": "E4",
                    "midi": 64,
                    "time": 746.1731549999787,
                    "velocity": 0.5275590551181102,
                    "duration": 0.5466470000000072
                },
                {
                    "name": "C#4",
                    "midi": 61,
                    "time": 746.7198019999787,
                    "velocity": 0.5748031496062992,
                    "duration": 0.5466470000000072
                },
                {
                    "name": "A3",
                    "midi": 57,
                    "time": 747.2664489999787,
                    "velocity": 0.5118110236220472,
                    "duration": 1.0932940000000144
                },
                {
                    "name": "G4",
                    "midi": 67,
                    "time": 747.2664489999787,
                    "velocity": 0.5118110236220472,
                    "duration": 0.5466470000000072
                },
                {
                    "name": "F#4",
                    "midi": 66,
                    "time": 747.8130959999787,
                    "velocity": 0.5748031496062992,
                    "duration": 1.0932940000000144
                },
                {
                    "name": "A#3",
                    "midi": 58,
                    "time": 748.3597429999787,
                    "velocity": 0.5118110236220472,
                    "duration": 0.5466470000000072
                },
                {
                    "name": "B3",
                    "midi": 59,
                    "time": 748.9063899999787,
                    "velocity": 0.5118110236220472,
                    "duration": 1.6399410000000216
                },
                {
                    "name": "F#4",
                    "midi": 66,
                    "time": 749.4530369999787,
                    "velocity": 0.5196850393700787,
                    "duration": 0.5466470000000072
                },
                {
                    "name": "D#4",
                    "midi": 63,
                    "time": 749.9996839999787,
                    "velocity": 0.5590551181102362,
                    "duration": 0.5466470000000072
                },
                {
                    "name": "A3",
                    "midi": 57,
                    "time": 750.5463309999787,
                    "velocity": 0.5118110236220472,
                    "duration": 0.5466470000000072
                },
                {
                    "name": "B3",
                    "midi": 59,
                    "time": 750.5463309999787,
                    "velocity": 0.5275590551181102,
                    "duration": 1.0932940000000144
                },
                {
                    "name": "G3",
                    "midi": 55,
                    "time": 751.0929779999788,
                    "velocity": 0.5118110236220472,
                    "duration": 0.5466470000000072
                },
                {
                    "name": "B4",
                    "midi": 71,
                    "time": 751.6396249999788,
                    "velocity": 0.6456692913385826,
                    "duration": 0.5466470000000072
                },
                {
                    "name": "C5",
                    "midi": 72,
                    "time": 752.1862719999788,
                    "velocity": 0.6771653543307087,
                    "duration": 1.6399410000000216
                },
                {
                    "name": "G4",
                    "midi": 67,
                    "time": 752.7329189999788,
                    "velocity": 0.5433070866141733,
                    "duration": 0.5466470000000072
                },
                {
                    "name": "E4",
                    "midi": 64,
                    "time": 753.2795659999788,
                    "velocity": 0.5905511811023622,
                    "duration": 0.5466470000000072
                },
                {
                    "name": "C4",
                    "midi": 60,
                    "time": 753.8262129999788,
                    "velocity": 0.5118110236220472,
                    "duration": 1.0932940000000144
                },
                {
                    "name": "B4",
                    "midi": 71,
                    "time": 753.8262129999788,
                    "velocity": 0.5511811023622047,
                    "duration": 0.5466470000000072
                },
                {
                    "name": "A4",
                    "midi": 69,
                    "time": 754.3728599999788,
                    "velocity": 0.5984251968503937,
                    "duration": 0.5466470000000072
                },
                {
                    "name": "C#4",
                    "midi": 61,
                    "time": 754.9195069999788,
                    "velocity": 0.5905511811023622,
                    "duration": 0.5466470000000072
                },
                {
                    "name": "D4",
                    "midi": 62,
                    "time": 755.4661539999788,
                    "velocity": 0.5905511811023622,
                    "duration": 1.6399410000000216
                },
                {
                    "name": "A4",
                    "midi": 69,
                    "time": 756.0128009999788,
                    "velocity": 0.5433070866141733,
                    "duration": 0.5466470000000072
                },
                {
                    "name": "F#4",
                    "midi": 66,
                    "time": 756.5594479999788,
                    "velocity": 0.5826771653543307,
                    "duration": 0.5466470000000072
                },
                {
                    "name": "C4",
                    "midi": 60,
                    "time": 757.1060949999788,
                    "velocity": 0.5433070866141733,
                    "duration": 0.5466470000000072
                },
                {
                    "name": "D4",
                    "midi": 62,
                    "time": 757.1060949999788,
                    "velocity": 0.5433070866141733,
                    "duration": 1.0932939999999007
                },
                {
                    "name": "B3",
                    "midi": 59,
                    "time": 757.6527419999788,
                    "velocity": 0.49606299212598426,
                    "duration": 0.27332349999994676
                },
                {
                    "name": "C4",
                    "midi": 60,
                    "time": 757.9260654999788,
                    "velocity": 0.4881889763779528,
                    "duration": 0.3279881999999361
                },
                {
                    "name": "D5",
                    "midi": 74,
                    "time": 758.1993889999787,
                    "velocity": 0.5669291338582677,
                    "duration": 0.3279881999999361
                },
                {
                    "name": "C5",
                    "midi": 72,
                    "time": 758.4727124999787,
                    "velocity": 0.5433070866141733,
                    "duration": 0.3279881999999361
                },
                {
                    "name": "B4",
                    "midi": 71,
                    "time": 758.7460359999786,
                    "velocity": 0.5669291338582677,
                    "duration": 1.6399410000000216
                },
                {
                    "name": "E5",
                    "midi": 76,
                    "time": 760.3859769999787,
                    "velocity": 0.5433070866141733,
                    "duration": 1.0932940000000144
                },
                {
                    "name": "E5",
                    "midi": 76,
                    "time": 761.4792709999787,
                    "velocity": 0.5433070866141733,
                    "duration": 0.27332349999994676
                },
                {
                    "name": "D5",
                    "midi": 74,
                    "time": 761.7525944999786,
                    "velocity": 0.5118110236220472,
                    "duration": 0.27332349999994676
                },
                {
                    "name": "C5",
                    "midi": 72,
                    "time": 762.0259179999786,
                    "velocity": 0.5826771653543307,
                    "duration": 1.0932940000000144
                },
                {
                    "name": "C#5",
                    "midi": 73,
                    "time": 763.1192119999786,
                    "velocity": 0.5433070866141733,
                    "duration": 0.5466470000000072
                },
                {
                    "name": "F#5",
                    "midi": 78,
                    "time": 763.6658589999786,
                    "velocity": 0.5905511811023622,
                    "duration": 1.0932940000000144
                },
                {
                    "name": "F#5",
                    "midi": 78,
                    "time": 764.7591529999786,
                    "velocity": 0.5511811023622047,
                    "duration": 0.27332349999994676
                },
                {
                    "name": "E5",
                    "midi": 76,
                    "time": 765.0324764999785,
                    "velocity": 0.5118110236220472,
                    "duration": 0.27332349999994676
                },
                {
                    "name": "D5",
                    "midi": 74,
                    "time": 765.3057999999785,
                    "velocity": 0.5984251968503937,
                    "duration": 1.6399410000000216
                },
                {
                    "name": "B4",
                    "midi": 71,
                    "time": 766.9457409999785,
                    "velocity": 0.5433070866141733,
                    "duration": 0.27332349999994676
                },
                {
                    "name": "G5",
                    "midi": 79,
                    "time": 767.2190644999785,
                    "velocity": 0.5905511811023622,
                    "duration": 0.819970499999954
                },
                {
                    "name": "G5",
                    "midi": 79,
                    "time": 768.0390349999784,
                    "velocity": 0.5433070866141733,
                    "duration": 0.27332349999994676
                },
                {
                    "name": "F5",
                    "midi": 77,
                    "time": 768.3123584999784,
                    "velocity": 0.5433070866141733,
                    "duration": 0.27332349999994676
                },
                {
                    "name": "E5",
                    "midi": 76,
                    "time": 768.5856819999783,
                    "velocity": 0.5984251968503937,
                    "duration": 0.5466470000000072
                },
                {
                    "name": "G5",
                    "midi": 79,
                    "time": 769.1323289999783,
                    "velocity": 0.6141732283464567,
                    "duration": 0.5466470000000072
                },
                {
                    "name": "F#5",
                    "midi": 78,
                    "time": 769.6789759999783,
                    "velocity": 0.6377952755905512,
                    "duration": 0.5466470000000072
                },
                {
                    "name": "G5",
                    "midi": 79,
                    "time": 770.2256229999783,
                    "velocity": 0.6614173228346457,
                    "duration": 0.5466470000000072
                },
                {
                    "name": "C6",
                    "midi": 84,
                    "time": 770.7722699999783,
                    "velocity": 0.6771653543307087,
                    "duration": 0.5466470000000072
                },
                {
                    "name": "A4",
                    "midi": 69,
                    "time": 771.8655639999783,
                    "velocity": 0.5433070866141733,
                    "duration": 0.18221566666670697
                },
                {
                    "name": "B4",
                    "midi": 71,
                    "time": 772.047779666645,
                    "velocity": 0.49606299212598426,
                    "duration": 0.18221566666670697
                },
                {
                    "name": "A4",
                    "midi": 69,
                    "time": 772.2299953333118,
                    "velocity": 0.5433070866141733,
                    "duration": 0.18221566666670697
                },
                {
                    "name": "B4",
                    "midi": 71,
                    "time": 772.4122109999785,
                    "velocity": 0.5039370078740157,
                    "duration": 0.18221566666670697
                },
                {
                    "name": "A4",
                    "midi": 69,
                    "time": 772.5944266666452,
                    "velocity": 0.5433070866141733,
                    "duration": 0.18221566666670697
                },
                {
                    "name": "B4",
                    "midi": 71,
                    "time": 772.7766423333119,
                    "velocity": 0.49606299212598426,
                    "duration": 0.18221566666670697
                },
                {
                    "name": "A4",
                    "midi": 69,
                    "time": 772.9588579999786,
                    "velocity": 0.5433070866141733,
                    "duration": 0.18221566666670697
                },
                {
                    "name": "F#4",
                    "midi": 66,
                    "time": 772.9588579999786,
                    "velocity": 0.5433070866141733,
                    "duration": 1.0932940000002418
                },
                {
                    "name": "B4",
                    "midi": 71,
                    "time": 773.1410736666453,
                    "velocity": 0.5039370078740157,
                    "duration": 0.18221566666670697
                },
                {
                    "name": "A4",
                    "midi": 69,
                    "time": 773.323289333312,
                    "velocity": 0.5433070866141733,
                    "duration": 0.18221566666670697
                },
                {
                    "name": "B4",
                    "midi": 71,
                    "time": 773.5055049999787,
                    "velocity": 0.5039370078740157,
                    "duration": 0.18221566666670697
                },
                {
                    "name": "A4",
                    "midi": 69,
                    "time": 773.6877206666454,
                    "velocity": 0.5433070866141733,
                    "duration": 0.18221566666670697
                },
                {
                    "name": "B4",
                    "midi": 71,
                    "time": 773.8699363333121,
                    "velocity": 0.49606299212598426,
                    "duration": 0.18221566666670697
                },
                {
                    "name": "G4",
                    "midi": 67,
                    "time": 774.0521519999788,
                    "velocity": 0.5433070866141733,
                    "duration": 1.0932940000000144
                },
                {
                    "name": "G4",
                    "midi": 67,
                    "time": 775.6920929999789,
                    "velocity": 0.5433070866141733,
                    "duration": 0.27332349999994676
                },
                {
                    "name": "A4",
                    "midi": 69,
                    "time": 775.9654164999788,
                    "velocity": 0.4881889763779528,
                    "duration": 0.27332349999994676
                },
                {
                    "name": "B4",
                    "midi": 71,
                    "time": 776.2387399999787,
                    "velocity": 0.5433070866141733,
                    "duration": 0.27332349999994676
                },
                {
                    "name": "C5",
                    "midi": 72,
                    "time": 776.5120634999787,
                    "velocity": 0.5118110236220472,
                    "duration": 0.27332349999994676
                },
                {
                    "name": "D5",
                    "midi": 74,
                    "time": 776.7853869999786,
                    "velocity": 0.5118110236220472,
                    "duration": 0.27332349999994676
                },
                {
                    "name": "E5",
                    "midi": 76,
                    "time": 777.0587104999786,
                    "velocity": 0.5118110236220472,
                    "duration": 0.27332349999994676
                },
                {
                    "name": "B4",
                    "midi": 71,
                    "time": 777.3320339999785,
                    "velocity": 0.5905511811023622,
                    "duration": 1.0932940000000144
                },
                {
                    "name": "B4",
                    "midi": 71,
                    "time": 778.9719749999786,
                    "velocity": 0.5433070866141733,
                    "duration": 0.27332349999994676
                },
                {
                    "name": "C5",
                    "midi": 72,
                    "time": 779.2452984999785,
                    "velocity": 0.49606299212598426,
                    "duration": 0.27332349999994676
                },
                {
                    "name": "D5",
                    "midi": 74,
                    "time": 779.5186219999784,
                    "velocity": 0.5433070866141733,
                    "duration": 0.27332349999994676
                },
                {
                    "name": "E5",
                    "midi": 76,
                    "time": 779.7919454999784,
                    "velocity": 0.5433070866141733,
                    "duration": 0.27332349999994676
                },
                {
                    "name": "F#5",
                    "midi": 78,
                    "time": 780.0652689999783,
                    "velocity": 0.49606299212598426,
                    "duration": 0.27332349999994676
                },
                {
                    "name": "G5",
                    "midi": 79,
                    "time": 780.3385924999783,
                    "velocity": 0.49606299212598426,
                    "duration": 0.27332349999994676
                },
                {
                    "name": "D5",
                    "midi": 74,
                    "time": 780.6119159999782,
                    "velocity": 0.5905511811023622,
                    "duration": 1.0932940000000144
                },
                {
                    "name": "D5",
                    "midi": 74,
                    "time": 782.2518569999783,
                    "velocity": 0.5433070866141733,
                    "duration": 0.27332349999994676
                },
                {
                    "name": "E5",
                    "midi": 76,
                    "time": 782.5251804999782,
                    "velocity": 0.49606299212598426,
                    "duration": 0.27332349999994676
                },
                {
                    "name": "F#5",
                    "midi": 78,
                    "time": 782.7985039999782,
                    "velocity": 0.5433070866141733,
                    "duration": 0.27332349999994676
                },
                {
                    "name": "E5",
                    "midi": 76,
                    "time": 783.0718274999781,
                    "velocity": 0.5118110236220472,
                    "duration": 0.27332349999994676
                },
                {
                    "name": "F#5",
                    "midi": 78,
                    "time": 783.345150999978,
                    "velocity": 0.5118110236220472,
                    "duration": 0.27332349999994676
                },
                {
                    "name": "G5",
                    "midi": 79,
                    "time": 783.618474499978,
                    "velocity": 0.5118110236220472,
                    "duration": 0.27332349999994676
                },
                {
                    "name": "A5",
                    "midi": 81,
                    "time": 783.8917979999779,
                    "velocity": 0.5433070866141733,
                    "duration": 0.27332349999994676
                },
                {
                    "name": "G#5",
                    "midi": 80,
                    "time": 784.1651214999779,
                    "velocity": 0.5118110236220472,
                    "duration": 0.27332349999994676
                },
                {
                    "name": "A5",
                    "midi": 81,
                    "time": 784.4384449999778,
                    "velocity": 0.5433070866141733,
                    "duration": 0.27332349999994676
                },
                {
                    "name": "B5",
                    "midi": 83,
                    "time": 784.7117684999778,
                    "velocity": 0.5433070866141733,
                    "duration": 0.27332349999994676
                },
                {
                    "name": "C6",
                    "midi": 84,
                    "time": 784.9850919999777,
                    "velocity": 0.6220472440944882,
                    "duration": 0.27332349999994676
                },
                {
                    "name": "B5",
                    "midi": 83,
                    "time": 785.2584154999777,
                    "velocity": 0.5590551181102362,
                    "duration": 0.27332349999994676
                },
                {
                    "name": "A5",
                    "midi": 81,
                    "time": 785.5317389999776,
                    "velocity": 0.5511811023622047,
                    "duration": 0.27332349999994676
                },
                {
                    "name": "G5",
                    "midi": 79,
                    "time": 785.8050624999776,
                    "velocity": 0.5275590551181102,
                    "duration": 0.27332349999994676
                },
                {
                    "name": "F#5",
                    "midi": 78,
                    "time": 786.0783859999775,
                    "velocity": 0.5511811023622047,
                    "duration": 0.27332349999994676
                },
                {
                    "name": "D#5",
                    "midi": 75,
                    "time": 786.3517094999775,
                    "velocity": 0.5275590551181102,
                    "duration": 0.27332349999994676
                },
                {
                    "name": "D5",
                    "midi": 74,
                    "time": 786.6250329999774,
                    "velocity": 0.5275590551181102,
                    "duration": 0.27332349999994676
                },
                {
                    "name": "E5",
                    "midi": 76,
                    "time": 786.8983564999774,
                    "velocity": 0.5275590551181102,
                    "duration": 0.27332349999994676
                },
                {
                    "name": "F#5",
                    "midi": 78,
                    "time": 787.1716799999773,
                    "velocity": 0.5905511811023622,
                    "duration": 0.27332349999994676
                },
                {
                    "name": "E5",
                    "midi": 76,
                    "time": 787.4450034999772,
                    "velocity": 0.5748031496062992,
                    "duration": 0.27332349999994676
                },
                {
                    "name": "D5",
                    "midi": 74,
                    "time": 787.7183269999772,
                    "velocity": 0.5590551181102362,
                    "duration": 0.27332349999994676
                },
                {
                    "name": "C5",
                    "midi": 72,
                    "time": 787.9916504999771,
                    "velocity": 0.5433070866141733,
                    "duration": 0.27332349999994676
                },
                {
                    "name": "B4",
                    "midi": 71,
                    "time": 788.2649739999771,
                    "velocity": 0.5433070866141733,
                    "duration": 0.27332349999994676
                },
                {
                    "name": "A4",
                    "midi": 69,
                    "time": 788.538297499977,
                    "velocity": 0.5039370078740157,
                    "duration": 0.27332349999994676
                },
                {
                    "name": "G4",
                    "midi": 67,
                    "time": 788.811620999977,
                    "velocity": 0.5039370078740157,
                    "duration": 0.27332349999994676
                },
                {
                    "name": "A4",
                    "midi": 69,
                    "time": 789.0849444999769,
                    "velocity": 0.5039370078740157,
                    "duration": 0.27332349999994676
                },
                {
                    "name": "B4",
                    "midi": 71,
                    "time": 789.3582679999769,
                    "velocity": 0.5039370078740157,
                    "duration": 0.27332349999994676
                },
                {
                    "name": "C5",
                    "midi": 72,
                    "time": 789.6315914999768,
                    "velocity": 0.5196850393700787,
                    "duration": 0.27332349999994676
                },
                {
                    "name": "D5",
                    "midi": 74,
                    "time": 789.9049149999768,
                    "velocity": 0.5354330708661418,
                    "duration": 0.27332349999994676
                },
                {
                    "name": "D#5",
                    "midi": 75,
                    "time": 790.1782384999767,
                    "velocity": 0.5511811023622047,
                    "duration": 0.27332349999994676
                },
                {
                    "name": "E5",
                    "midi": 76,
                    "time": 790.4515619999767,
                    "velocity": 0.5669291338582677,
                    "duration": 0.27332349999994676
                },
                {
                    "name": "G5",
                    "midi": 79,
                    "time": 790.7248854999766,
                    "velocity": 0.5196850393700787,
                    "duration": 0.27332349999994676
                },
                {
                    "name": "F#5",
                    "midi": 78,
                    "time": 790.9982089999766,
                    "velocity": 0.5433070866141733,
                    "duration": 0.27332349999994676
                },
                {
                    "name": "E5",
                    "midi": 76,
                    "time": 791.2715324999765,
                    "velocity": 0.5196850393700787,
                    "duration": 0.27332349999994676
                },
                {
                    "name": "D5",
                    "midi": 74,
                    "time": 791.5448559999764,
                    "velocity": 0.5433070866141733,
                    "duration": 0.27332349999994676
                },
                {
                    "name": "G5",
                    "midi": 79,
                    "time": 791.8181794999764,
                    "velocity": 0.5039370078740157,
                    "duration": 0.27332349999994676
                },
                {
                    "name": "F#5",
                    "midi": 78,
                    "time": 792.0915029999763,
                    "velocity": 0.5275590551181102,
                    "duration": 0.27332349999994676
                },
                {
                    "name": "G5",
                    "midi": 79,
                    "time": 792.3648264999763,
                    "velocity": 0.49606299212598426,
                    "duration": 0.27332349999994676
                },
                {
                    "name": "C#5",
                    "midi": 73,
                    "time": 792.6381499999762,
                    "velocity": 0.5433070866141733,
                    "duration": 1.0932940000000144
                },
                {
                    "name": "A4",
                    "midi": 69,
                    "time": 793.7314439999762,
                    "velocity": 0.49606299212598426,
                    "duration": 0.5466470000000072
                },
                {
                    "name": "C5",
                    "midi": 72,
                    "time": 793.7314439999762,
                    "velocity": 0.5905511811023622,
                    "duration": 2.186588000000029
                },
                {
                    "name": "D#4",
                    "midi": 63,
                    "time": 794.2780909999763,
                    "velocity": 0.5354330708661418,
                    "duration": 0.5466470000000072
                },
                {
                    "name": "F#4",
                    "midi": 66,
                    "time": 794.8247379999763,
                    "velocity": 0.5354330708661418,
                    "duration": 0.5466470000000072
                },
                {
                    "name": "A4",
                    "midi": 69,
                    "time": 795.3713849999763,
                    "velocity": 0.5354330708661418,
                    "duration": 1.0932940000000144
                },
                {
                    "name": "B4",
                    "midi": 71,
                    "time": 795.9180319999763,
                    "velocity": 0.5905511811023622,
                    "duration": 1.0932940000000144
                },
                {
                    "name": "G4",
                    "midi": 67,
                    "time": 796.4646789999763,
                    "velocity": 0.5433070866141733,
                    "duration": 0.5466470000000072
                },
                {
                    "name": "C#5",
                    "midi": 73,
                    "time": 797.0113259999763,
                    "velocity": 0.5748031496062992,
                    "duration": 0.5466470000000072
                },
                {
                    "name": "D5",
                    "midi": 74,
                    "time": 797.5579729999763,
                    "velocity": 0.5984251968503937,
                    "duration": 0.5466470000000072
                },
                {
                    "name": "G4",
                    "midi": 67,
                    "time": 798.1046199999763,
                    "velocity": 0.5196850393700787,
                    "duration": 0.5466470000000072
                },
                {
                    "name": "E5",
                    "midi": 76,
                    "time": 798.1046199999763,
                    "velocity": 0.6141732283464567,
                    "duration": 0.5466470000000072
                },
                {
                    "name": "F#5",
                    "midi": 78,
                    "time": 798.6512669999763,
                    "velocity": 0.6377952755905512,
                    "duration": 0.5466470000000072
                },
                {
                    "name": "G5",
                    "midi": 79,
                    "time": 799.1979139999763,
                    "velocity": 0.7086614173228346,
                    "duration": 1.6399410000000216
                },
                {
                    "name": "F#5",
                    "midi": 78,
                    "time": 800.8378549999763,
                    "velocity": 0.6299212598425197,
                    "duration": 0.5466470000000072
                },
                {
                    "name": "E5",
                    "midi": 76,
                    "time": 801.3845019999764,
                    "velocity": 0.6692913385826772,
                    "duration": 0.5466470000000072
                },
                {
                    "name": "G5",
                    "midi": 79,
                    "time": 801.9311489999764,
                    "velocity": 0.6299212598425197,
                    "duration": 0.27332349999994676
                },
                {
                    "name": "F#5",
                    "midi": 78,
                    "time": 802.2044724999763,
                    "velocity": 0.5433070866141733,
                    "duration": 0.27332349999994676
                },
                {
                    "name": "F#4",
                    "midi": 66,
                    "time": 802.4777959999763,
                    "velocity": 0.6220472440944882,
                    "duration": 1.0932940000000144
                },
                {
                    "name": "E5",
                    "midi": 76,
                    "time": 805.2110309999763,
                    "velocity": 0.6299212598425197,
                    "duration": 0.27332349999994676
                },
                {
                    "name": "D5",
                    "midi": 74,
                    "time": 805.4843544999762,
                    "velocity": 0.5433070866141733,
                    "duration": 0.27332349999994676
                },
                {
                    "name": "D4",
                    "midi": 62,
                    "time": 805.7576779999762,
                    "velocity": 0.6220472440944882,
                    "duration": 1.0932940000000144
                },
                {
                    "name": "B5",
                    "midi": 83,
                    "time": 808.4909129999762,
                    "velocity": 0.6299212598425197,
                    "duration": 0.27332349999994676
                },
                {
                    "name": "A5",
                    "midi": 81,
                    "time": 808.7642364999762,
                    "velocity": 0.5433070866141733,
                    "duration": 0.27332349999994676
                },
                {
                    "name": "F#5",
                    "midi": 78,
                    "time": 809.0375599999761,
                    "velocity": 0.5511811023622047,
                    "duration": 0.27332349999994676
                },
                {
                    "name": "D5",
                    "midi": 74,
                    "time": 809.3108834999761,
                    "velocity": 0.5039370078740157,
                    "duration": 0.27332349999994676
                },
                {
                    "name": "C#5",
                    "midi": 73,
                    "time": 809.584206999976,
                    "velocity": 0.5039370078740157,
                    "duration": 0.27332349999994676
                },
                {
                    "name": "B4",
                    "midi": 71,
                    "time": 809.857530499976,
                    "velocity": 0.5039370078740157,
                    "duration": 0.27332349999994676
                },
                {
                    "name": "A#4",
                    "midi": 70,
                    "time": 810.1308539999759,
                    "velocity": 0.5748031496062992,
                    "duration": 1.093293999999787
                },
                {
                    "name": "C#4",
                    "midi": 61,
                    "time": 810.1308539999759,
                    "velocity": 0.4881889763779528,
                    "duration": 0.27332349999994676
                },
                {
                    "name": "C4",
                    "midi": 60,
                    "time": 810.4041774999758,
                    "velocity": 0.4881889763779528,
                    "duration": 0.27332349999994676
                },
                {
                    "name": "C#4",
                    "midi": 61,
                    "time": 810.6775009999758,
                    "velocity": 0.4881889763779528,
                    "duration": 0.27332349999994676
                },
                {
                    "name": "D#4",
                    "midi": 63,
                    "time": 810.9508244999757,
                    "velocity": 0.4881889763779528,
                    "duration": 0.27332349999994676
                },
                {
                    "name": "A4",
                    "midi": 69,
                    "time": 811.2241479999757,
                    "velocity": 0.5433070866141733,
                    "duration": 1.6399409999996806
                },
                {
                    "name": "E4",
                    "midi": 64,
                    "time": 811.2241479999757,
                    "velocity": 0.4566929133858268,
                    "duration": 0.27332349999994676
                },
                {
                    "name": "D#4",
                    "midi": 63,
                    "time": 811.4974714999756,
                    "velocity": 0.47244094488188976,
                    "duration": 0.27332349999994676
                },
                {
                    "name": "E4",
                    "midi": 64,
                    "time": 811.7707949999756,
                    "velocity": 0.47244094488188976,
                    "duration": 0.27332349999994676
                },
                {
                    "name": "F#4",
                    "midi": 66,
                    "time": 812.0441184999755,
                    "velocity": 0.47244094488188976,
                    "duration": 0.27332349999994676
                },
                {
                    "name": "G4",
                    "midi": 67,
                    "time": 812.3174419999755,
                    "velocity": 0.5354330708661418,
                    "duration": 0.27332349999994676
                },
                {
                    "name": "F#4",
                    "midi": 66,
                    "time": 812.5907654999754,
                    "velocity": 0.48031496062992124,
                    "duration": 0.27332349999994676
                },
                {
                    "name": "B4",
                    "midi": 71,
                    "time": 812.8640889999754,
                    "velocity": 0.5433070866141733,
                    "duration": 0.27332349999994676
                },
                {
                    "name": "E4",
                    "midi": 64,
                    "time": 812.8640889999754,
                    "velocity": 0.4566929133858268,
                    "duration": 0.27332349999994676
                },
                {
                    "name": "D4",
                    "midi": 62,
                    "time": 813.1374124999753,
                    "velocity": 0.4881889763779528,
                    "duration": 0.27332349999994676
                },
                {
                    "name": "C#5",
                    "midi": 73,
                    "time": 813.4107359999753,
                    "velocity": 0.5826771653543307,
                    "duration": 0.27332349999994676
                },
                {
                    "name": "C5",
                    "midi": 72,
                    "time": 813.6840594999752,
                    "velocity": 0.49606299212598426,
                    "duration": 0.27332349999994676
                },
                {
                    "name": "C#5",
                    "midi": 73,
                    "time": 813.9573829999752,
                    "velocity": 0.49606299212598426,
                    "duration": 0.27332349999994676
                },
                {
                    "name": "D5",
                    "midi": 74,
                    "time": 814.2307064999751,
                    "velocity": 0.49606299212598426,
                    "duration": 0.27332349999994676
                },
                {
                    "name": "E5",
                    "midi": 76,
                    "time": 814.504029999975,
                    "velocity": 0.5354330708661418,
                    "duration": 0.27332349999994676
                },
                {
                    "name": "D#5",
                    "midi": 75,
                    "time": 814.777353499975,
                    "velocity": 0.5275590551181102,
                    "duration": 0.27332349999994676
                },
                {
                    "name": "E5",
                    "midi": 76,
                    "time": 815.0506769999749,
                    "velocity": 0.5354330708661418,
                    "duration": 0.27332349999994676
                },
                {
                    "name": "F#5",
                    "midi": 78,
                    "time": 815.3240004999749,
                    "velocity": 0.5511811023622047,
                    "duration": 0.27332349999994676
                },
                {
                    "name": "G5",
                    "midi": 79,
                    "time": 815.5973239999748,
                    "velocity": 0.5590551181102362,
                    "duration": 0.27332349999994676
                },
                {
                    "name": "F#5",
                    "midi": 78,
                    "time": 815.8706474999748,
                    "velocity": 0.5354330708661418,
                    "duration": 0.27332349999994676
                },
                {
                    "name": "E5",
                    "midi": 76,
                    "time": 816.1439709999747,
                    "velocity": 0.5039370078740157,
                    "duration": 0.27332349999994676
                },
                {
                    "name": "D5",
                    "midi": 74,
                    "time": 816.4172944999747,
                    "velocity": 0.5039370078740157,
                    "duration": 0.27332349999994676
                },
                {
                    "name": "C#5",
                    "midi": 73,
                    "time": 816.6906179999746,
                    "velocity": 0.5354330708661418,
                    "duration": 0.27332349999994676
                },
                {
                    "name": "A#4",
                    "midi": 70,
                    "time": 816.9639414999746,
                    "velocity": 0.47244094488188976,
                    "duration": 0.27332349999994676
                },
                {
                    "name": "A4",
                    "midi": 69,
                    "time": 817.2372649999745,
                    "velocity": 0.47244094488188976,
                    "duration": 0.27332349999994676
                },
                {
                    "name": "B4",
                    "midi": 71,
                    "time": 817.5105884999745,
                    "velocity": 0.47244094488188976,
                    "duration": 0.27332349999994676
                },
                {
                    "name": "C5",
                    "midi": 72,
                    "time": 817.7839119999744,
                    "velocity": 0.5354330708661418,
                    "duration": 0.27332349999994676
                },
                {
                    "name": "B4",
                    "midi": 71,
                    "time": 818.0572354999744,
                    "velocity": 0.4881889763779528,
                    "duration": 0.27332349999994676
                },
                {
                    "name": "A4",
                    "midi": 69,
                    "time": 818.3305589999743,
                    "velocity": 0.4881889763779528,
                    "duration": 0.27332349999994676
                },
                {
                    "name": "G4",
                    "midi": 67,
                    "time": 818.6038824999742,
                    "velocity": 0.4881889763779528,
                    "duration": 0.27332349999994676
                },
                {
                    "name": "F#4",
                    "midi": 66,
                    "time": 818.8772059999742,
                    "velocity": 0.5354330708661418,
                    "duration": 0.27332349999994676
                },
                {
                    "name": "G4",
                    "midi": 67,
                    "time": 819.1505294999741,
                    "velocity": 0.5039370078740157,
                    "duration": 0.27332349999994676
                },
                {
                    "name": "A4",
                    "midi": 69,
                    "time": 819.4238529999741,
                    "velocity": 0.5039370078740157,
                    "duration": 0.27332349999994676
                },
                {
                    "name": "B4",
                    "midi": 71,
                    "time": 819.697176499974,
                    "velocity": 0.5039370078740157,
                    "duration": 0.27332349999994676
                },
                {
                    "name": "C5",
                    "midi": 72,
                    "time": 819.970499999974,
                    "velocity": 0.6062992125984252,
                    "duration": 0.18221566666670697
                },
                {
                    "name": "D5",
                    "midi": 74,
                    "time": 820.1527156666407,
                    "velocity": 0.5433070866141733,
                    "duration": 0.18221566666670697
                },
                {
                    "name": "C5",
                    "midi": 72,
                    "time": 820.3349313333074,
                    "velocity": 0.5826771653543307,
                    "duration": 0.18221566666670697
                },
                {
                    "name": "D5",
                    "midi": 74,
                    "time": 820.5171469999741,
                    "velocity": 0.5354330708661418,
                    "duration": 0.18221566666670697
                },
                {
                    "name": "C5",
                    "midi": 72,
                    "time": 820.6993626666408,
                    "velocity": 0.5590551181102362,
                    "duration": 0.18221566666670697
                },
                {
                    "name": "D5",
                    "midi": 74,
                    "time": 820.8815783333075,
                    "velocity": 0.5196850393700787,
                    "duration": 0.18221566666670697
                },
                {
                    "name": "C5",
                    "midi": 72,
                    "time": 821.0637939999742,
                    "velocity": 0.5511811023622047,
                    "duration": 0.18221566666670697
                },
                {
                    "name": "D5",
                    "midi": 74,
                    "time": 821.2460096666409,
                    "velocity": 0.4881889763779528,
                    "duration": 0.18221566666670697
                },
                {
                    "name": "C5",
                    "midi": 72,
                    "time": 821.4282253333076,
                    "velocity": 0.5433070866141733,
                    "duration": 0.18221566666670697
                },
                {
                    "name": "D5",
                    "midi": 74,
                    "time": 821.6104409999743,
                    "velocity": 0.49606299212598426,
                    "duration": 0.18221566666670697
                },
                {
                    "name": "E4",
                    "midi": 64,
                    "time": 821.6104409999743,
                    "velocity": 0.44881889763779526,
                    "duration": 0.27332350000006045
                },
                {
                    "name": "C5",
                    "midi": 72,
                    "time": 821.792656666641,
                    "velocity": 0.5354330708661418,
                    "duration": 0.18221566666670697
                },
                {
                    "name": "F#4",
                    "midi": 66,
                    "time": 821.8837644999744,
                    "velocity": 0.33858267716535434,
                    "duration": 0.27332350000006045
                },
                {
                    "name": "D5",
                    "midi": 74,
                    "time": 821.9748723333078,
                    "velocity": 0.5275590551181102,
                    "duration": 0.18221566666670697
                },
                {
                    "name": "G4",
                    "midi": 67,
                    "time": 822.1570879999745,
                    "velocity": 0.5039370078740157,
                    "duration": 1.0932940000000144
                },
                {
                    "name": "B4",
                    "midi": 71,
                    "time": 822.1570879999745,
                    "velocity": 0.5039370078740157,
                    "duration": 1.0932940000000144
                },
                {
                    "name": "A4",
                    "midi": 69,
                    "time": 823.2503819999745,
                    "velocity": 0.6062992125984252,
                    "duration": 0.18221566666670697
                },
                {
                    "name": "B4",
                    "midi": 71,
                    "time": 823.4325976666412,
                    "velocity": 0.5433070866141733,
                    "duration": 0.18221566666670697
                },
                {
                    "name": "A4",
                    "midi": 69,
                    "time": 823.6148133333079,
                    "velocity": 0.5826771653543307,
                    "duration": 0.18221566666670697
                },
                {
                    "name": "B4",
                    "midi": 71,
                    "time": 823.7970289999746,
                    "velocity": 0.5354330708661418,
                    "duration": 0.18221566666670697
                },
                {
                    "name": "A4",
                    "midi": 69,
                    "time": 823.9792446666413,
                    "velocity": 0.5590551181102362,
                    "duration": 0.18221566666670697
                },
                {
                    "name": "B4",
                    "midi": 71,
                    "time": 824.161460333308,
                    "velocity": 0.5196850393700787,
                    "duration": 0.18221566666670697
                },
                {
                    "name": "A4",
                    "midi": 69,
                    "time": 824.3436759999747,
                    "velocity": 0.5511811023622047,
                    "duration": 0.18221566666670697
                },
                {
                    "name": "B4",
                    "midi": 71,
                    "time": 824.5258916666414,
                    "velocity": 0.4881889763779528,
                    "duration": 0.18221566666670697
                },
                {
                    "name": "A4",
                    "midi": 69,
                    "time": 824.7081073333081,
                    "velocity": 0.5433070866141733,
                    "duration": 0.18221566666670697
                },
                {
                    "name": "B4",
                    "midi": 71,
                    "time": 824.8903229999748,
                    "velocity": 0.49606299212598426,
                    "duration": 0.18221566666670697
                },
                {
                    "name": "C#4",
                    "midi": 61,
                    "time": 824.8903229999748,
                    "velocity": 0.44881889763779526,
                    "duration": 0.27332350000006045
                },
                {
                    "name": "A4",
                    "midi": 69,
                    "time": 825.0725386666415,
                    "velocity": 0.5354330708661418,
                    "duration": 0.18221566666670697
                },
                {
                    "name": "D#4",
                    "midi": 63,
                    "time": 825.1636464999749,
                    "velocity": 0.33858267716535434,
                    "duration": 0.27332350000006045
                },
                {
                    "name": "B4",
                    "midi": 71,
                    "time": 825.2547543333083,
                    "velocity": 0.5275590551181102,
                    "duration": 0.18221566666670697
                },
                {
                    "name": "G#4",
                    "midi": 68,
                    "time": 825.436969999975,
                    "velocity": 0.36220472440944884,
                    "duration": 0.27332349999994676
                },
                {
                    "name": "E4",
                    "midi": 64,
                    "time": 825.436969999975,
                    "velocity": 0.5039370078740157,
                    "duration": 1.093293999999787
                },
                {
                    "name": "B4",
                    "midi": 71,
                    "time": 825.7102934999749,
                    "velocity": 0.31496062992125984,
                    "duration": 0.27332349999994676
                },
                {
                    "name": "G#4",
                    "midi": 68,
                    "time": 825.9836169999749,
                    "velocity": 0.36220472440944884,
                    "duration": 0.27332349999994676
                },
                {
                    "name": "E4",
                    "midi": 64,
                    "time": 826.2569404999748,
                    "velocity": 0.33858267716535434,
                    "duration": 0.27332349999994676
                },
                {
                    "name": "G4",
                    "midi": 67,
                    "time": 826.5302639999747,
                    "velocity": 0.5748031496062992,
                    "duration": 0.18221566666670697
                },
                {
                    "name": "A4",
                    "midi": 69,
                    "time": 826.7124796666415,
                    "velocity": 0.5196850393700787,
                    "duration": 0.18221566666670697
                },
                {
                    "name": "G4",
                    "midi": 67,
                    "time": 826.8946953333082,
                    "velocity": 0.5511811023622047,
                    "duration": 0.18221566666670697
                },
                {
                    "name": "A4",
                    "midi": 69,
                    "time": 827.0769109999749,
                    "velocity": 0.5118110236220472,
                    "duration": 0.18221566666670697
                },
                {
                    "name": "G4",
                    "midi": 67,
                    "time": 827.2591266666416,
                    "velocity": 0.5354330708661418,
                    "duration": 0.18221566666670697
                },
                {
                    "name": "A4",
                    "midi": 69,
                    "time": 827.4413423333083,
                    "velocity": 0.49606299212598426,
                    "duration": 0.18221566666670697
                },
                {
                    "name": "G4",
                    "midi": 67,
                    "time": 827.623557999975,
                    "velocity": 0.5275590551181102,
                    "duration": 0.18221566666670697
                },
                {
                    "name": "A4",
                    "midi": 69,
                    "time": 827.8057736666417,
                    "velocity": 0.4645669291338583,
                    "duration": 0.18221566666670697
                },
                {
                    "name": "G4",
                    "midi": 67,
                    "time": 827.9879893333084,
                    "velocity": 0.5196850393700787,
                    "duration": 0.18221566666670697
                },
                {
                    "name": "A4",
                    "midi": 69,
                    "time": 828.1702049999751,
                    "velocity": 0.47244094488188976,
                    "duration": 0.18221566666670697
                },
                {
                    "name": "B3",
                    "midi": 59,
                    "time": 828.1702049999751,
                    "velocity": 0.44881889763779526,
                    "duration": 0.27332350000006045
                },
                {
                    "name": "G4",
                    "midi": 67,
                    "time": 828.3524206666418,
                    "velocity": 0.5118110236220472,
                    "duration": 0.18221566666670697
                },
                {
                    "name": "C#4",
                    "midi": 61,
                    "time": 828.4435284999752,
                    "velocity": 0.33858267716535434,
                    "duration": 0.27332350000006045
                },
                {
                    "name": "A4",
                    "midi": 69,
                    "time": 828.5346363333085,
                    "velocity": 0.5039370078740157,
                    "duration": 0.18221566666670697
                },
                {
                    "name": "F#4",
                    "midi": 66,
                    "time": 828.7168519999752,
                    "velocity": 0.4094488188976378,
                    "duration": 0.27332349999994676
                },
                {
                    "name": "D4",
                    "midi": 62,
                    "time": 828.7168519999752,
                    "velocity": 0.5039370078740157,
                    "duration": 1.093293999999787
                },
                {
                    "name": "A4",
                    "midi": 69,
                    "time": 828.9901754999752,
                    "velocity": 0.36220472440944884,
                    "duration": 0.27332349999994676
                },
                {
                    "name": "F#4",
                    "midi": 66,
                    "time": 829.2634989999751,
                    "velocity": 0.4094488188976378,
                    "duration": 0.27332349999994676
                },
                {
                    "name": "D4",
                    "midi": 62,
                    "time": 829.5368224999751,
                    "velocity": 0.3858267716535433,
                    "duration": 0.27332349999994676
                },
                {
                    "name": "F#4",
                    "midi": 66,
                    "time": 829.810145999975,
                    "velocity": 0.3937007874015748,
                    "duration": 0.27332349999994676
                },
                {
                    "name": "E4",
                    "midi": 64,
                    "time": 830.083469499975,
                    "velocity": 0.36220472440944884,
                    "duration": 0.27332349999994676
                },
                {
                    "name": "F#4",
                    "midi": 66,
                    "time": 830.3567929999749,
                    "velocity": 0.3779527559055118,
                    "duration": 0.27332349999994676
                },
                {
                    "name": "G4",
                    "midi": 67,
                    "time": 830.6301164999749,
                    "velocity": 0.31496062992125984,
                    "duration": 0.27332349999994676
                },
                {
                    "name": "A4",
                    "midi": 69,
                    "time": 830.9034399999748,
                    "velocity": 0.3779527559055118,
                    "duration": 0.27332349999994676
                },
                {
                    "name": "B4",
                    "midi": 71,
                    "time": 831.1767634999748,
                    "velocity": 0.3937007874015748,
                    "duration": 0.27332349999994676
                },
                {
                    "name": "B5",
                    "midi": 83,
                    "time": 831.4500869999747,
                    "velocity": 0.5748031496062992,
                    "duration": 0.5466469999998935
                },
                {
                    "name": "C#5",
                    "midi": 73,
                    "time": 831.4500869999747,
                    "velocity": 0.47244094488188976,
                    "duration": 0.27332349999994676
                },
                {
                    "name": "D#5",
                    "midi": 75,
                    "time": 831.7234104999746,
                    "velocity": 0.4330708661417323,
                    "duration": 0.27332349999994676
                },
                {
                    "name": "E5",
                    "midi": 76,
                    "time": 831.9967339999746,
                    "velocity": 0.6535433070866141,
                    "duration": 0.5466470000000072
                },
                {
                    "name": "E6",
                    "midi": 88,
                    "time": 832.5433809999746,
                    "velocity": 0.6614173228346457,
                    "duration": 0.5466470000000072
                },
                {
                    "name": "E4",
                    "midi": 64,
                    "time": 833.0900279999746,
                    "velocity": 0.3937007874015748,
                    "duration": 0.27332349999994676
                },
                {
                    "name": "D4",
                    "midi": 62,
                    "time": 833.3633514999746,
                    "velocity": 0.36220472440944884,
                    "duration": 0.27332349999994676
                },
                {
                    "name": "E4",
                    "midi": 64,
                    "time": 833.6366749999745,
                    "velocity": 0.3779527559055118,
                    "duration": 0.27332349999994676
                },
                {
                    "name": "F#4",
                    "midi": 66,
                    "time": 833.9099984999744,
                    "velocity": 0.31496062992125984,
                    "duration": 0.27332349999994676
                },
                {
                    "name": "G4",
                    "midi": 67,
                    "time": 834.1833219999744,
                    "velocity": 0.3779527559055118,
                    "duration": 0.27332349999994676
                },
                {
                    "name": "A4",
                    "midi": 69,
                    "time": 834.4566454999743,
                    "velocity": 0.3937007874015748,
                    "duration": 0.27332349999994676
                },
                {
                    "name": "A5",
                    "midi": 81,
                    "time": 834.7299689999743,
                    "velocity": 0.5748031496062992,
                    "duration": 0.5466469999998935
                },
                {
                    "name": "B4",
                    "midi": 71,
                    "time": 834.7299689999743,
                    "velocity": 0.48031496062992124,
                    "duration": 0.27332349999994676
                },
                {
                    "name": "C#5",
                    "midi": 73,
                    "time": 835.0032924999742,
                    "velocity": 0.4330708661417323,
                    "duration": 0.27332349999994676
                },
                {
                    "name": "D5",
                    "midi": 74,
                    "time": 835.2766159999742,
                    "velocity": 0.6535433070866141,
                    "duration": 0.5466470000000072
                },
                {
                    "name": "D6",
                    "midi": 86,
                    "time": 835.8232629999742,
                    "velocity": 0.6614173228346457,
                    "duration": 0.5466470000000072
                },
                {
                    "name": "D4",
                    "midi": 62,
                    "time": 836.3699099999742,
                    "velocity": 0.3937007874015748,
                    "duration": 0.27332349999994676
                },
                {
                    "name": "C4",
                    "midi": 60,
                    "time": 836.6432334999741,
                    "velocity": 0.36220472440944884,
                    "duration": 0.27332349999994676
                },
                {
                    "name": "D4",
                    "midi": 62,
                    "time": 836.9165569999741,
                    "velocity": 0.3779527559055118,
                    "duration": 0.27332349999994676
                },
                {
                    "name": "D#4",
                    "midi": 63,
                    "time": 837.189880499974,
                    "velocity": 0.31496062992125984,
                    "duration": 0.27332349999994676
                },
                {
                    "name": "F4",
                    "midi": 65,
                    "time": 837.463203999974,
                    "velocity": 0.3779527559055118,
                    "duration": 0.27332349999994676
                },
                {
                    "name": "G4",
                    "midi": 67,
                    "time": 837.7365274999739,
                    "velocity": 0.3937007874015748,
                    "duration": 0.27332349999994676
                },
                {
                    "name": "G5",
                    "midi": 79,
                    "time": 838.0098509999739,
                    "velocity": 0.5748031496062992,
                    "duration": 0.5466469999998935
                },
                {
                    "name": "A4",
                    "midi": 69,
                    "time": 838.0098509999739,
                    "velocity": 0.48031496062992124,
                    "duration": 0.27332349999994676
                },
                {
                    "name": "B4",
                    "midi": 71,
                    "time": 838.2831744999738,
                    "velocity": 0.4330708661417323,
                    "duration": 0.27332349999994676
                },
                {
                    "name": "C5",
                    "midi": 72,
                    "time": 838.5564979999738,
                    "velocity": 0.6535433070866141,
                    "duration": 0.5466470000000072
                },
                {
                    "name": "C6",
                    "midi": 84,
                    "time": 839.1031449999738,
                    "velocity": 0.6614173228346457,
                    "duration": 0.819970499999954
                },
                {
                    "name": "E5",
                    "midi": 76,
                    "time": 839.9231154999737,
                    "velocity": 0.6141732283464567,
                    "duration": 0.27332349999994676
                },
                {
                    "name": "F5",
                    "midi": 77,
                    "time": 840.1964389999737,
                    "velocity": 0.6614173228346457,
                    "duration": 0.27332349999994676
                },
                {
                    "name": "G5",
                    "midi": 79,
                    "time": 840.4697624999736,
                    "velocity": 0.7007874015748031,
                    "duration": 0.27332349999994676
                },
                {
                    "name": "G#5",
                    "midi": 80,
                    "time": 840.7430859999736,
                    "velocity": 0.7401574803149606,
                    "duration": 0.5466469999998935
                },
                {
                    "name": "E4",
                    "midi": 64,
                    "time": 841.0164094999735,
                    "velocity": 0.4330708661417323,
                    "duration": 0.27332349999994676
                },
                {
                    "name": "F4",
                    "midi": 65,
                    "time": 841.2897329999735,
                    "velocity": 0.44881889763779526,
                    "duration": 0.27332349999994676
                },
                {
                    "name": "G4",
                    "midi": 67,
                    "time": 841.5630564999734,
                    "velocity": 0.4566929133858268,
                    "duration": 0.27332349999994676
                },
                {
                    "name": "G#4",
                    "midi": 68,
                    "time": 841.8363799999734,
                    "velocity": 0.4645669291338583,
                    "duration": 1.3666174999997338
                },
                {
                    "name": "A#4",
                    "midi": 70,
                    "time": 842.1097034999733,
                    "velocity": 0.48031496062992124,
                    "duration": 0.27332349999994676
                },
                {
                    "name": "C5",
                    "midi": 72,
                    "time": 842.3830269999733,
                    "velocity": 0.4881889763779528,
                    "duration": 0.27332349999994676
                },
                {
                    "name": "D5",
                    "midi": 74,
                    "time": 842.6563504999732,
                    "velocity": 0.5118110236220472,
                    "duration": 0.27332349999994676
                },
                {
                    "name": "D#5",
                    "midi": 75,
                    "time": 842.9296739999731,
                    "velocity": 0.5511811023622047,
                    "duration": 1.093293999999787
                },
                {
                    "name": "G4",
                    "midi": 67,
                    "time": 843.2029974999731,
                    "velocity": 0.4566929133858268,
                    "duration": 0.27332349999994676
                },
                {
                    "name": "A#4",
                    "midi": 70,
                    "time": 843.476320999973,
                    "velocity": 0.4881889763779528,
                    "duration": 0.3279881999999361
                },
                {
                    "name": "G#4",
                    "midi": 68,
                    "time": 843.749644499973,
                    "velocity": 0.4566929133858268,
                    "duration": 0.3279881999999361
                },
                {
                    "name": "G4",
                    "midi": 67,
                    "time": 844.0229679999729,
                    "velocity": 0.4881889763779528,
                    "duration": 0.3279881999999361
                },
                {
                    "name": "F4",
                    "midi": 65,
                    "time": 844.2962914999729,
                    "velocity": 0.4330708661417323,
                    "duration": 0.3279881999999361
                },
                {
                    "name": "D#4",
                    "midi": 63,
                    "time": 844.5696149999728,
                    "velocity": 0.4330708661417323,
                    "duration": 0.3279881999999361
                },
                {
                    "name": "D4",
                    "midi": 62,
                    "time": 844.8429384999728,
                    "velocity": 0.4330708661417323,
                    "duration": 0.3279881999999361
                },
                {
                    "name": "D#5",
                    "midi": 75,
                    "time": 845.1162619999727,
                    "velocity": 0.4881889763779528,
                    "duration": 0.3279881999999361
                },
                {
                    "name": "D#4",
                    "midi": 63,
                    "time": 845.1162619999727,
                    "velocity": 0.4881889763779528,
                    "duration": 2.186587999999574
                },
                {
                    "name": "D5",
                    "midi": 74,
                    "time": 845.3895854999727,
                    "velocity": 0.4566929133858268,
                    "duration": 0.3279881999999361
                },
                {
                    "name": "C5",
                    "midi": 72,
                    "time": 845.6629089999726,
                    "velocity": 0.4566929133858268,
                    "duration": 0.3279881999999361
                },
                {
                    "name": "A#4",
                    "midi": 70,
                    "time": 845.9362324999726,
                    "velocity": 0.4566929133858268,
                    "duration": 0.27332349999994676
                },
                {
                    "name": "D#5",
                    "midi": 75,
                    "time": 846.2095559999725,
                    "velocity": 0.4881889763779528,
                    "duration": 0.27332349999994676
                },
                {
                    "name": "A#4",
                    "midi": 70,
                    "time": 846.4828794999725,
                    "velocity": 0.4330708661417323,
                    "duration": 0.3279881999999361
                },
                {
                    "name": "D#5",
                    "midi": 75,
                    "time": 846.7562029999724,
                    "velocity": 0.4881889763779528,
                    "duration": 0.3279881999999361
                },
                {
                    "name": "D5",
                    "midi": 74,
                    "time": 847.0295264999723,
                    "velocity": 0.4330708661417323,
                    "duration": 0.3279881999999361
                },
                {
                    "name": "C5",
                    "midi": 72,
                    "time": 847.3028499999723,
                    "velocity": 0.4881889763779528,
                    "duration": 0.3279881999999361
                },
                {
                    "name": "A#4",
                    "midi": 70,
                    "time": 847.5761734999722,
                    "velocity": 0.48031496062992124,
                    "duration": 0.3279881999999361
                },
                {
                    "name": "G#4",
                    "midi": 68,
                    "time": 847.8494969999722,
                    "velocity": 0.47244094488188976,
                    "duration": 0.3279881999999361
                },
                {
                    "name": "G4",
                    "midi": 67,
                    "time": 848.1228204999721,
                    "velocity": 0.4645669291338583,
                    "duration": 0.27332349999994676
                },
                {
                    "name": "G5",
                    "midi": 79,
                    "time": 848.3961439999721,
                    "velocity": 0.5748031496062992,
                    "duration": 1.3666174999997338
                },
                {
                    "name": "D#5",
                    "midi": 75,
                    "time": 848.3961439999721,
                    "velocity": 0.5748031496062992,
                    "duration": 0.3279881999999361
                },
                {
                    "name": "D5",
                    "midi": 74,
                    "time": 848.669467499972,
                    "velocity": 0.47244094488188976,
                    "duration": 0.3279881999999361
                },
                {
                    "name": "C5",
                    "midi": 72,
                    "time": 848.942790999972,
                    "velocity": 0.5196850393700787,
                    "duration": 0.3279881999999361
                },
                {
                    "name": "A#4",
                    "midi": 70,
                    "time": 849.2161144999719,
                    "velocity": 0.47244094488188976,
                    "duration": 0.3279881999999361
                },
                {
                    "name": "D5",
                    "midi": 74,
                    "time": 849.4894379999719,
                    "velocity": 0.5748031496062992,
                    "duration": 1.093293999999787
                },
                {
                    "name": "F5",
                    "midi": 77,
                    "time": 849.7627614999718,
                    "velocity": 0.5196850393700787,
                    "duration": 0.3279881999999361
                },
                {
                    "name": "G#5",
                    "midi": 80,
                    "time": 850.0360849999718,
                    "velocity": 0.5433070866141733,
                    "duration": 0.3279881999999361
                },
                {
                    "name": "G5",
                    "midi": 79,
                    "time": 850.3094084999717,
                    "velocity": 0.4881889763779528,
                    "duration": 0.3279881999999361
                },
                {
                    "name": "F5",
                    "midi": 77,
                    "time": 850.5827319999717,
                    "velocity": 0.5433070866141733,
                    "duration": 0.3279881999999361
                },
                {
                    "name": "D#5",
                    "midi": 75,
                    "time": 850.8560554999716,
                    "velocity": 0.5354330708661418,
                    "duration": 0.3279881999999361
                },
                {
                    "name": "D5",
                    "midi": 74,
                    "time": 851.1293789999716,
                    "velocity": 0.5196850393700787,
                    "duration": 0.3279881999999361
                },
                {
                    "name": "C5",
                    "midi": 72,
                    "time": 851.4027024999715,
                    "velocity": 0.5039370078740157,
                    "duration": 0.27332349999994676
                },
                {
                    "name": "A#4",
                    "midi": 70,
                    "time": 851.6760259999714,
                    "velocity": 0.5433070866141733,
                    "duration": 2.459911499999521
                },
                {
                    "name": "F4",
                    "midi": 65,
                    "time": 851.6760259999714,
                    "velocity": 0.5433070866141733,
                    "duration": 0.3279881999999361
                },
                {
                    "name": "G4",
                    "midi": 67,
                    "time": 851.9493494999714,
                    "velocity": 0.4330708661417323,
                    "duration": 0.3279881999999361
                },
                {
                    "name": "F4",
                    "midi": 65,
                    "time": 852.2226729999713,
                    "velocity": 0.4881889763779528,
                    "duration": 0.3279881999999361
                },
                {
                    "name": "D#4",
                    "midi": 63,
                    "time": 852.4959964999713,
                    "velocity": 0.4566929133858268,
                    "duration": 0.3279881999999361
                },
                {
                    "name": "D4",
                    "midi": 62,
                    "time": 852.7693199999712,
                    "velocity": 0.5354330708661418,
                    "duration": 0.3279881999999361
                },
                {
                    "name": "C4",
                    "midi": 60,
                    "time": 853.0426434999712,
                    "velocity": 0.4645669291338583,
                    "duration": 0.3279881999999361
                },
                {
                    "name": "D4",
                    "midi": 62,
                    "time": 853.3159669999711,
                    "velocity": 0.4645669291338583,
                    "duration": 0.3279881999999361
                },
                {
                    "name": "D#4",
                    "midi": 63,
                    "time": 853.5892904999711,
                    "velocity": 0.4645669291338583,
                    "duration": 0.3279881999999361
                },
                {
                    "name": "F4",
                    "midi": 65,
                    "time": 853.862613999971,
                    "velocity": 0.4881889763779528,
                    "duration": 1.3666174999997338
                },
                {
                    "name": "C5",
                    "midi": 72,
                    "time": 854.135937499971,
                    "velocity": 0.4645669291338583,
                    "duration": 0.3279881999999361
                },
                {
                    "name": "D5",
                    "midi": 74,
                    "time": 854.4092609999709,
                    "velocity": 0.48031496062992124,
                    "duration": 0.3279881999999361
                },
                {
                    "name": "D#5",
                    "midi": 75,
                    "time": 854.6825844999709,
                    "velocity": 0.5039370078740157,
                    "duration": 0.3279881999999361
                },
                {
                    "name": "F5",
                    "midi": 77,
                    "time": 854.9559079999708,
                    "velocity": 0.5511811023622047,
                    "duration": 1.3666174999997338
                },
                {
                    "name": "G4",
                    "midi": 67,
                    "time": 855.2292314999708,
                    "velocity": 0.47244094488188976,
                    "duration": 0.3279881999999361
                },
                {
                    "name": "G#4",
                    "midi": 68,
                    "time": 855.5025549999707,
                    "velocity": 0.49606299212598426,
                    "duration": 0.3279881999999361
                },
                {
                    "name": "A4",
                    "midi": 69,
                    "time": 855.7758784999706,
                    "velocity": 0.5118110236220472,
                    "duration": 0.3279881999999361
                },
                {
                    "name": "A#4",
                    "midi": 70,
                    "time": 856.0492019999706,
                    "velocity": 0.5354330708661418,
                    "duration": 1.3666174999997338
                },
                {
                    "name": "G5",
                    "midi": 79,
                    "time": 856.3225254999705,
                    "velocity": 0.4881889763779528,
                    "duration": 0.3279881999999361
                },
                {
                    "name": "G#5",
                    "midi": 80,
                    "time": 856.5958489999705,
                    "velocity": 0.5275590551181102,
                    "duration": 0.3279881999999361
                },
                {
                    "name": "A5",
                    "midi": 81,
                    "time": 856.8691724999704,
                    "velocity": 0.5511811023622047,
                    "duration": 0.3279881999999361
                },
                {
                    "name": "A#5",
                    "midi": 82,
                    "time": 857.1424959999704,
                    "velocity": 0.5669291338582677,
                    "duration": 1.093293999999787
                },
                {
                    "name": "C5",
                    "midi": 72,
                    "time": 857.4158194999703,
                    "velocity": 0.4881889763779528,
                    "duration": 0.3279881999999361
                },
                {
                    "name": "D5",
                    "midi": 74,
                    "time": 857.6891429999703,
                    "velocity": 0.5118110236220472,
                    "duration": 0.3279881999999361
                },
                {
                    "name": "D#5",
                    "midi": 75,
                    "time": 857.9624664999702,
                    "velocity": 0.5433070866141733,
                    "duration": 0.3279881999999361
                },
                {
                    "name": "F5",
                    "midi": 77,
                    "time": 858.2357899999702,
                    "velocity": 0.48031496062992124,
                    "duration": 0.3279881999999361
                },
                {
                    "name": "G#5",
                    "midi": 80,
                    "time": 858.2357899999702,
                    "velocity": 0.5669291338582677,
                    "duration": 0.3279881999999361
                },
                {
                    "name": "D#5",
                    "midi": 75,
                    "time": 858.5091134999701,
                    "velocity": 0.44881889763779526,
                    "duration": 0.3279881999999361
                },
                {
                    "name": "G5",
                    "midi": 79,
                    "time": 858.5091134999701,
                    "velocity": 0.5354330708661418,
                    "duration": 0.3279881999999361
                },
                {
                    "name": "D5",
                    "midi": 74,
                    "time": 858.7824369999701,
                    "velocity": 0.4251968503937008,
                    "duration": 0.27332349999994676
                },
                {
                    "name": "F5",
                    "midi": 77,
                    "time": 858.7824369999701,
                    "velocity": 0.5905511811023622,
                    "duration": 0.3279881999999361
                },
                {
                    "name": "D#5",
                    "midi": 75,
                    "time": 859.05576049997,
                    "velocity": 0.5511811023622047,
                    "duration": 0.27332349999994676
                },
                {
                    "name": "C6",
                    "midi": 84,
                    "time": 859.32908399997,
                    "velocity": 0.6850393700787402,
                    "duration": 0.5466470000000072
                },
                {
                    "name": "G#4",
                    "midi": 68,
                    "time": 860.42237799997,
                    "velocity": 0.5905511811023622,
                    "duration": 0.18221566666670697
                },
                {
                    "name": "A#4",
                    "midi": 70,
                    "time": 860.6045936666367,
                    "velocity": 0.5275590551181102,
                    "duration": 0.18221566666670697
                },
                {
                    "name": "G#4",
                    "midi": 68,
                    "time": 860.7868093333034,
                    "velocity": 0.5669291338582677,
                    "duration": 0.18221566666670697
                },
                {
                    "name": "A#4",
                    "midi": 70,
                    "time": 860.9690249999701,
                    "velocity": 0.4881889763779528,
                    "duration": 0.18221566666670697
                },
                {
                    "name": "G#4",
                    "midi": 68,
                    "time": 861.1512406666368,
                    "velocity": 0.5275590551181102,
                    "duration": 0.18221566666670697
                },
                {
                    "name": "A#4",
                    "midi": 70,
                    "time": 861.3334563333035,
                    "velocity": 0.48031496062992124,
                    "duration": 0.18221566666670697
                },
                {
                    "name": "G#4",
                    "midi": 68,
                    "time": 861.5156719999702,
                    "velocity": 0.5275590551181102,
                    "duration": 0.18221566666670697
                },
                {
                    "name": "A#4",
                    "midi": 70,
                    "time": 861.6978876666369,
                    "velocity": 0.4881889763779528,
                    "duration": 0.18221566666670697
                },
                {
                    "name": "G#4",
                    "midi": 68,
                    "time": 861.8801033333036,
                    "velocity": 0.5275590551181102,
                    "duration": 0.18221566666670697
                },
                {
                    "name": "A#4",
                    "midi": 70,
                    "time": 862.0623189999703,
                    "velocity": 0.48031496062992124,
                    "duration": 0.18221566666670697
                },
                {
                    "name": "G#4",
                    "midi": 68,
                    "time": 862.244534666637,
                    "velocity": 0.5275590551181102,
                    "duration": 0.18221566666670697
                },
                {
                    "name": "A#4",
                    "midi": 70,
                    "time": 862.4267503333037,
                    "velocity": 0.4881889763779528,
                    "duration": 0.18221566666670697
                },
                {
                    "name": "F5",
                    "midi": 77,
                    "time": 862.6089659999705,
                    "velocity": 0.5511811023622047,
                    "duration": 0.3279881999999361
                },
                {
                    "name": "G5",
                    "midi": 79,
                    "time": 862.8822894999704,
                    "velocity": 0.5669291338582677,
                    "duration": 0.3279881999999361
                },
                {
                    "name": "G#5",
                    "midi": 80,
                    "time": 863.1556129999703,
                    "velocity": 0.5748031496062992,
                    "duration": 0.3279881999999361
                },
                {
                    "name": "A#5",
                    "midi": 82,
                    "time": 863.4289364999703,
                    "velocity": 0.5905511811023622,
                    "duration": 0.3279881999999361
                },
                {
                    "name": "C6",
                    "midi": 84,
                    "time": 863.7022599999702,
                    "velocity": 0.5984251968503937,
                    "duration": 0.27332349999994676
                },
                {
                    "name": "D6",
                    "midi": 86,
                    "time": 863.9755834999702,
                    "velocity": 0.6141732283464567,
                    "duration": 0.27332349999994676
                },
                {
                    "name": "D#6",
                    "midi": 87,
                    "time": 864.2489069999701,
                    "velocity": 0.6299212598425197,
                    "duration": 0.27332349999994676
                },
                {
                    "name": "E6",
                    "midi": 88,
                    "time": 864.5222304999701,
                    "velocity": 0.6377952755905512,
                    "duration": 0.27332349999994676
                },
                {
                    "name": "F6",
                    "midi": 89,
                    "time": 864.79555399997,
                    "velocity": 0.6535433070866141,
                    "duration": 0.27332349999994676
                },
                {
                    "name": "G6",
                    "midi": 91,
                    "time": 865.06887749997,
                    "velocity": 0.6614173228346457,
                    "duration": 0.27332349999994676
                },
                {
                    "name": "G#6",
                    "midi": 92,
                    "time": 865.3422009999699,
                    "velocity": 0.6771653543307087,
                    "duration": 0.5466470000000072
                },
                {
                    "name": "A#6",
                    "midi": 94,
                    "time": 865.8888479999699,
                    "velocity": 0.7874015748031497,
                    "duration": 0.5466470000000072
                },
                {
                    "name": "G5",
                    "midi": 79,
                    "time": 866.9821419999699,
                    "velocity": 0.5905511811023622,
                    "duration": 0.18221566666670697
                },
                {
                    "name": "G#5",
                    "midi": 80,
                    "time": 867.1643576666366,
                    "velocity": 0.5275590551181102,
                    "duration": 0.18221566666670697
                },
                {
                    "name": "G5",
                    "midi": 79,
                    "time": 867.3465733333034,
                    "velocity": 0.5669291338582677,
                    "duration": 0.18221566666670697
                },
                {
                    "name": "G#5",
                    "midi": 80,
                    "time": 867.5287889999701,
                    "velocity": 0.4881889763779528,
                    "duration": 0.18221566666670697
                },
                {
                    "name": "G5",
                    "midi": 79,
                    "time": 867.7110046666368,
                    "velocity": 0.5275590551181102,
                    "duration": 0.18221566666670697
                },
                {
                    "name": "G#5",
                    "midi": 80,
                    "time": 867.8932203333035,
                    "velocity": 0.48031496062992124,
                    "duration": 0.18221566666670697
                },
                {
                    "name": "G5",
                    "midi": 79,
                    "time": 868.0754359999702,
                    "velocity": 0.5275590551181102,
                    "duration": 0.18221566666670697
                },
                {
                    "name": "G#5",
                    "midi": 80,
                    "time": 868.2576516666369,
                    "velocity": 0.4881889763779528,
                    "duration": 0.18221566666670697
                },
                {
                    "name": "G5",
                    "midi": 79,
                    "time": 868.4398673333036,
                    "velocity": 0.5275590551181102,
                    "duration": 0.18221566666670697
                },
                {
                    "name": "G#5",
                    "midi": 80,
                    "time": 868.6220829999703,
                    "velocity": 0.48031496062992124,
                    "duration": 0.18221566666670697
                },
                {
                    "name": "G5",
                    "midi": 79,
                    "time": 868.804298666637,
                    "velocity": 0.5275590551181102,
                    "duration": 0.18221566666670697
                },
                {
                    "name": "G#5",
                    "midi": 80,
                    "time": 868.9865143333037,
                    "velocity": 0.4881889763779528,
                    "duration": 0.18221566666670697
                },
                {
                    "name": "D#5",
                    "midi": 75,
                    "time": 869.1687299999704,
                    "velocity": 0.5511811023622047,
                    "duration": 0.3279881999999361
                },
                {
                    "name": "F5",
                    "midi": 77,
                    "time": 869.4420534999704,
                    "velocity": 0.5669291338582677,
                    "duration": 0.3279881999999361
                },
                {
                    "name": "G5",
                    "midi": 79,
                    "time": 869.7153769999703,
                    "velocity": 0.5748031496062992,
                    "duration": 0.3279881999999361
                },
                {
                    "name": "G#5",
                    "midi": 80,
                    "time": 869.9887004999703,
                    "velocity": 0.5905511811023622,
                    "duration": 0.3279881999999361
                },
                {
                    "name": "A#5",
                    "midi": 82,
                    "time": 870.2620239999702,
                    "velocity": 0.5984251968503937,
                    "duration": 0.27332349999994676
                },
                {
                    "name": "C6",
                    "midi": 84,
                    "time": 870.5353474999702,
                    "velocity": 0.6141732283464567,
                    "duration": 0.27332349999994676
                },
                {
                    "name": "C#6",
                    "midi": 85,
                    "time": 870.8086709999701,
                    "velocity": 0.6299212598425197,
                    "duration": 0.27332349999994676
                },
                {
                    "name": "D6",
                    "midi": 86,
                    "time": 871.08199449997,
                    "velocity": 0.6377952755905512,
                    "duration": 0.27332349999994676
                },
                {
                    "name": "D#6",
                    "midi": 87,
                    "time": 871.35531799997,
                    "velocity": 0.6535433070866141,
                    "duration": 0.27332349999994676
                },
                {
                    "name": "F6",
                    "midi": 89,
                    "time": 871.62864149997,
                    "velocity": 0.6614173228346457,
                    "duration": 0.27332349999994676
                },
                {
                    "name": "F#6",
                    "midi": 90,
                    "time": 871.9019649999699,
                    "velocity": 0.6771653543307087,
                    "duration": 0.27332349999994676
                },
                {
                    "name": "G6",
                    "midi": 91,
                    "time": 872.1752884999698,
                    "velocity": 0.6929133858267716,
                    "duration": 0.27332349999994676
                },
                {
                    "name": "G#6",
                    "midi": 92,
                    "time": 872.4486119999698,
                    "velocity": 0.7086614173228346,
                    "duration": 0.27332349999994676
                },
                {
                    "name": "A#5",
                    "midi": 82,
                    "time": 872.4486119999698,
                    "velocity": 0.5511811023622047,
                    "duration": 0.3279881999999361
                },
                {
                    "name": "G#5",
                    "midi": 80,
                    "time": 872.7219354999697,
                    "velocity": 0.5984251968503937,
                    "duration": 0.3279881999999361
                },
                {
                    "name": "G5",
                    "midi": 79,
                    "time": 872.9952589999697,
                    "velocity": 0.5748031496062992,
                    "duration": 0.3279881999999361
                },
                {
                    "name": "F5",
                    "midi": 77,
                    "time": 873.2685824999696,
                    "velocity": 0.5748031496062992,
                    "duration": 0.2687681083333473
                },
                {
                    "name": "F5",
                    "midi": 77,
                    "time": 873.5419059999697,
                    "velocity": 0.5669291338582677,
                    "duration": 2.186587999999574
                },
                {
                    "name": "D#5",
                    "midi": 75,
                    "time": 873.5419059999697,
                    "velocity": 0.5669291338582677,
                    "duration": 0.27332349999994676
                },
                {
                    "name": "D5",
                    "midi": 74,
                    "time": 873.8152294999696,
                    "velocity": 0.5669291338582677,
                    "duration": 0.27332349999994676
                },
                {
                    "name": "C5",
                    "midi": 72,
                    "time": 874.0885529999696,
                    "velocity": 0.5590551181102362,
                    "duration": 0.27332349999994676
                },
                {
                    "name": "A#4",
                    "midi": 70,
                    "time": 874.3618764999695,
                    "velocity": 0.5511811023622047,
                    "duration": 0.27332349999994676
                },
                {
                    "name": "A4",
                    "midi": 69,
                    "time": 874.6351999999695,
                    "velocity": 0.5511811023622047,
                    "duration": 0.27332349999994676
                },
                {
                    "name": "A#4",
                    "midi": 70,
                    "time": 874.9085234999694,
                    "velocity": 0.5118110236220472,
                    "duration": 0.27332349999994676
                },
                {
                    "name": "F4",
                    "midi": 65,
                    "time": 875.1818469999694,
                    "velocity": 0.5354330708661418,
                    "duration": 0.27332349999994676
                },
                {
                    "name": "G#4",
                    "midi": 68,
                    "time": 875.4551704999693,
                    "velocity": 0.49606299212598426,
                    "duration": 0.27332349999994676
                },
                {
                    "name": "G4",
                    "midi": 67,
                    "time": 875.7284939999693,
                    "velocity": 0.7086614173228346,
                    "duration": 0.27332349999994676
                },
                {
                    "name": "A#5",
                    "midi": 82,
                    "time": 876.0018174999692,
                    "velocity": 0.5748031496062992,
                    "duration": 0.3279881999999361
                },
                {
                    "name": "C6",
                    "midi": 84,
                    "time": 876.2751409999692,
                    "velocity": 0.5826771653543307,
                    "duration": 0.3279881999999361
                },
                {
                    "name": "D6",
                    "midi": 86,
                    "time": 876.5484644999691,
                    "velocity": 0.5905511811023622,
                    "duration": 0.3279881999999361
                },
                {
                    "name": "A#5",
                    "midi": 82,
                    "time": 876.821787999969,
                    "velocity": 0.6062992125984252,
                    "duration": 2.186587999999574
                },
                {
                    "name": "D#6",
                    "midi": 87,
                    "time": 876.821787999969,
                    "velocity": 0.6062992125984252,
                    "duration": 0.27332349999994676
                },
                {
                    "name": "D6",
                    "midi": 86,
                    "time": 877.095111499969,
                    "velocity": 0.6141732283464567,
                    "duration": 0.27332349999994676
                },
                {
                    "name": "D#6",
                    "midi": 87,
                    "time": 877.3684349999689,
                    "velocity": 0.6220472440944882,
                    "duration": 0.27332349999994676
                },
                {
                    "name": "F6",
                    "midi": 89,
                    "time": 877.6417584999689,
                    "velocity": 0.6377952755905512,
                    "duration": 0.27332349999994676
                },
                {
                    "name": "G6",
                    "midi": 91,
                    "time": 877.9150819999688,
                    "velocity": 0.6456692913385826,
                    "duration": 0.27332349999994676
                },
                {
                    "name": "F6",
                    "midi": 89,
                    "time": 878.1884054999688,
                    "velocity": 0.6535433070866141,
                    "duration": 0.27332349999994676
                },
                {
                    "name": "G6",
                    "midi": 91,
                    "time": 878.4617289999687,
                    "velocity": 0.6692913385826772,
                    "duration": 0.27332349999994676
                },
                {
                    "name": "G#6",
                    "midi": 92,
                    "time": 878.7350524999687,
                    "velocity": 0.6771653543307087,
                    "duration": 0.27332349999994676
                },
                {
                    "name": "A#6",
                    "midi": 94,
                    "time": 879.0083759999686,
                    "velocity": 0.7086614173228346,
                    "duration": 0.27332349999994676
                },
                {
                    "name": "G#5",
                    "midi": 80,
                    "time": 879.5550229999685,
                    "velocity": 0.5748031496062992,
                    "duration": 0.3279881999999361
                },
                {
                    "name": "G5",
                    "midi": 79,
                    "time": 879.8283464999685,
                    "velocity": 0.5748031496062992,
                    "duration": 0.2687681083333473
                },
                {
                    "name": "G5",
                    "midi": 79,
                    "time": 880.1016699999685,
                    "velocity": 0.5669291338582677,
                    "duration": 2.186587999999574
                },
                {
                    "name": "F5",
                    "midi": 77,
                    "time": 880.1016699999685,
                    "velocity": 0.5669291338582677,
                    "duration": 0.27332349999994676
                },
                {
                    "name": "E5",
                    "midi": 76,
                    "time": 880.3749934999685,
                    "velocity": 0.5669291338582677,
                    "duration": 0.27332349999994676
                },
                {
                    "name": "C#5",
                    "midi": 73,
                    "time": 880.6483169999684,
                    "velocity": 0.5590551181102362,
                    "duration": 0.27332349999994676
                },
                {
                    "name": "C5",
                    "midi": 72,
                    "time": 880.9216404999684,
                    "velocity": 0.5511811023622047,
                    "duration": 0.27332349999994676
                },
                {
                    "name": "B4",
                    "midi": 71,
                    "time": 881.1949639999683,
                    "velocity": 0.5511811023622047,
                    "duration": 0.27332349999994676
                },
                {
                    "name": "C5",
                    "midi": 72,
                    "time": 881.4682874999683,
                    "velocity": 0.5118110236220472,
                    "duration": 0.27332349999994676
                },
                {
                    "name": "G4",
                    "midi": 67,
                    "time": 881.7416109999682,
                    "velocity": 0.5354330708661418,
                    "duration": 0.27332349999994676
                },
                {
                    "name": "A#4",
                    "midi": 70,
                    "time": 882.0149344999681,
                    "velocity": 0.49606299212598426,
                    "duration": 0.27332349999994676
                },
                {
                    "name": "G#4",
                    "midi": 68,
                    "time": 882.2882579999681,
                    "velocity": 0.7086614173228346,
                    "duration": 0.27332349999994676
                },
                {
                    "name": "C6",
                    "midi": 84,
                    "time": 882.834904999968,
                    "velocity": 0.5826771653543307,
                    "duration": 0.3279881999999361
                },
                {
                    "name": "E6",
                    "midi": 88,
                    "time": 883.1082284999679,
                    "velocity": 0.5905511811023622,
                    "duration": 0.3279881999999361
                },
                {
                    "name": "C6",
                    "midi": 84,
                    "time": 883.3815519999679,
                    "velocity": 0.6062992125984252,
                    "duration": 1.6399409999996806
                },
                {
                    "name": "F6",
                    "midi": 89,
                    "time": 883.3815519999679,
                    "velocity": 0.6062992125984252,
                    "duration": 0.27332349999994676
                },
                {
                    "name": "G6",
                    "midi": 91,
                    "time": 883.6548754999678,
                    "velocity": 0.6141732283464567,
                    "duration": 0.27332349999994676
                },
                {
                    "name": "G#6",
                    "midi": 92,
                    "time": 883.9281989999678,
                    "velocity": 0.6220472440944882,
                    "duration": 0.27332349999994676
                },
                {
                    "name": "G6",
                    "midi": 91,
                    "time": 884.2015224999677,
                    "velocity": 0.6377952755905512,
                    "duration": 0.27332349999994676
                },
                {
                    "name": "F6",
                    "midi": 89,
                    "time": 884.4748459999677,
                    "velocity": 0.6220472440944882,
                    "duration": 0.27332349999994676
                },
                {
                    "name": "D#6",
                    "midi": 87,
                    "time": 884.7481694999676,
                    "velocity": 0.6062992125984252,
                    "duration": 0.27332349999994676
                },
                {
                    "name": "F#5",
                    "midi": 78,
                    "time": 885.0214929999676,
                    "velocity": 0.5905511811023622,
                    "duration": 0.5466469999998935
                },
                {
                    "name": "D6",
                    "midi": 86,
                    "time": 885.0214929999676,
                    "velocity": 0.5905511811023622,
                    "duration": 0.27332349999994676
                },
                {
                    "name": "C6",
                    "midi": 84,
                    "time": 885.2948164999675,
                    "velocity": 0.5748031496062992,
                    "duration": 0.27332349999994676
                },
                {
                    "name": "B5",
                    "midi": 83,
                    "time": 885.5681399999675,
                    "velocity": 0.6220472440944882,
                    "duration": 0.5466470000000072
                },
                {
                    "name": "G5",
                    "midi": 79,
                    "time": 885.5681399999675,
                    "velocity": 0.5748031496062992,
                    "duration": 0.5466470000000072
                },
                {
                    "name": "D5",
                    "midi": 74,
                    "time": 886.1147869999675,
                    "velocity": 0.5748031496062992,
                    "duration": 0.27332349999994676
                },
                {
                    "name": "B3",
                    "midi": 59,
                    "time": 886.6614339999674,
                    "velocity": 0.5748031496062992,
                    "duration": 0.13666175000003022
                },
                {
                    "name": "C4",
                    "midi": 60,
                    "time": 886.7980957499674,
                    "velocity": 0.5354330708661418,
                    "duration": 0.13666175000003022
                },
                {
                    "name": "B3",
                    "midi": 59,
                    "time": 886.9347574999674,
                    "velocity": 0.5748031496062992,
                    "duration": 0.13666175000003022
                },
                {
                    "name": "C4",
                    "midi": 60,
                    "time": 887.0714192499674,
                    "velocity": 0.5196850393700787,
                    "duration": 0.13666175000003022
                },
                {
                    "name": "G3",
                    "midi": 55,
                    "time": 887.2080809999675,
                    "velocity": 0.5748031496062992,
                    "duration": 0.27332349999994676
                },
                {
                    "name": "B4",
                    "midi": 71,
                    "time": 887.7547279999674,
                    "velocity": 0.5748031496062992,
                    "duration": 0.13666175000003022
                },
                {
                    "name": "C5",
                    "midi": 72,
                    "time": 887.8913897499674,
                    "velocity": 0.5354330708661418,
                    "duration": 0.13666175000003022
                },
                {
                    "name": "B4",
                    "midi": 71,
                    "time": 888.0280514999674,
                    "velocity": 0.5748031496062992,
                    "duration": 0.13666175000003022
                },
                {
                    "name": "C5",
                    "midi": 72,
                    "time": 888.1647132499675,
                    "velocity": 0.5196850393700787,
                    "duration": 0.13666175000003022
                },
                {
                    "name": "G5",
                    "midi": 79,
                    "time": 888.3013749999675,
                    "velocity": 0.5748031496062992,
                    "duration": 0.27332349999994676
                },
                {
                    "name": "D#4",
                    "midi": 63,
                    "time": 888.8480219999674,
                    "velocity": 0.5748031496062992,
                    "duration": 0.13666175000003022
                },
                {
                    "name": "F4",
                    "midi": 65,
                    "time": 888.9846837499674,
                    "velocity": 0.5354330708661418,
                    "duration": 0.13666175000003022
                },
                {
                    "name": "D#4",
                    "midi": 63,
                    "time": 889.1213454999674,
                    "velocity": 0.5748031496062992,
                    "duration": 0.13666175000003022
                },
                {
                    "name": "F4",
                    "midi": 65,
                    "time": 889.2580072499675,
                    "velocity": 0.5196850393700787,
                    "duration": 0.13666175000003022
                },
                {
                    "name": "C4",
                    "midi": 60,
                    "time": 889.3946689999675,
                    "velocity": 0.5748031496062992,
                    "duration": 0.27332349999994676
                },
                {
                    "name": "D#5",
                    "midi": 75,
                    "time": 889.9413159999674,
                    "velocity": 0.5905511811023622,
                    "duration": 0.13666175000003022
                },
                {
                    "name": "F5",
                    "midi": 77,
                    "time": 890.0779777499674,
                    "velocity": 0.5511811023622047,
                    "duration": 0.13666175000003022
                },
                {
                    "name": "D#5",
                    "midi": 75,
                    "time": 890.2146394999675,
                    "velocity": 0.5905511811023622,
                    "duration": 0.13666175000003022
                },
                {
                    "name": "F5",
                    "midi": 77,
                    "time": 890.3513012499675,
                    "velocity": 0.5354330708661418,
                    "duration": 0.13666175000003022
                },
                {
                    "name": "C6",
                    "midi": 84,
                    "time": 890.4879629999675,
                    "velocity": 0.5905511811023622,
                    "duration": 0.27332349999994676
                },
                {
                    "name": "A4",
                    "midi": 69,
                    "time": 891.0346099999674,
                    "velocity": 0.6062992125984252,
                    "duration": 0.13666175000003022
                },
                {
                    "name": "A#4",
                    "midi": 70,
                    "time": 891.1712717499674,
                    "velocity": 0.5669291338582677,
                    "duration": 0.13666175000003022
                },
                {
                    "name": "A4",
                    "midi": 69,
                    "time": 891.3079334999675,
                    "velocity": 0.6141732283464567,
                    "duration": 0.13666175000003022
                },
                {
                    "name": "A#4",
                    "midi": 70,
                    "time": 891.4445952499675,
                    "velocity": 0.5511811023622047,
                    "duration": 0.13666175000003022
                },
                {
                    "name": "D4",
                    "midi": 62,
                    "time": 891.5812569999675,
                    "velocity": 0.6141732283464567,
                    "duration": 0.27332349999994676
                },
                {
                    "name": "F#5",
                    "midi": 78,
                    "time": 892.1279039999674,
                    "velocity": 0.6220472440944882,
                    "duration": 0.13666175000003022
                },
                {
                    "name": "G5",
                    "midi": 79,
                    "time": 892.2645657499675,
                    "velocity": 0.5826771653543307,
                    "duration": 0.13666175000003022
                },
                {
                    "name": "F#5",
                    "midi": 78,
                    "time": 892.4012274999675,
                    "velocity": 0.6299212598425197,
                    "duration": 0.13666175000003022
                },
                {
                    "name": "G5",
                    "midi": 79,
                    "time": 892.5378892499675,
                    "velocity": 0.5669291338582677,
                    "duration": 0.13666175000003022
                },
                {
                    "name": "D6",
                    "midi": 86,
                    "time": 892.6745509999676,
                    "velocity": 0.6377952755905512,
                    "duration": 0.27332349999994676
                },
                {
                    "name": "A#4",
                    "midi": 70,
                    "time": 893.2211979999674,
                    "velocity": 0.6377952755905512,
                    "duration": 0.5466470000000072
                },
                {
                    "name": "G4",
                    "midi": 67,
                    "time": 893.7678449999675,
                    "velocity": 0.6535433070866141,
                    "duration": 0.27332349999994676
                },
                {
                    "name": "A#5",
                    "midi": 82,
                    "time": 894.3144919999673,
                    "velocity": 0.6535433070866141,
                    "duration": 0.13666175000003022
                },
                {
                    "name": "C6",
                    "midi": 84,
                    "time": 894.4511537499674,
                    "velocity": 0.6141732283464567,
                    "duration": 0.13666175000003022
                },
                {
                    "name": "A#5",
                    "midi": 82,
                    "time": 894.5878154999674,
                    "velocity": 0.6614173228346457,
                    "duration": 0.13666175000003022
                },
                {
                    "name": "C6",
                    "midi": 84,
                    "time": 894.7244772499674,
                    "velocity": 0.6062992125984252,
                    "duration": 0.13666175000003022
                },
                {
                    "name": "G6",
                    "midi": 91,
                    "time": 894.8611389999675,
                    "velocity": 0.6771653543307087,
                    "duration": 0.27332349999994676
                },
                {
                    "name": "E5",
                    "midi": 76,
                    "time": 895.4077859999674,
                    "velocity": 0.6929133858267716,
                    "duration": 0.13666175000003022
                },
                {
                    "name": "F5",
                    "midi": 77,
                    "time": 895.5444477499674,
                    "velocity": 0.6456692913385826,
                    "duration": 0.13666175000003022
                },
                {
                    "name": "E5",
                    "midi": 76,
                    "time": 895.6811094999674,
                    "velocity": 0.7007874015748031,
                    "duration": 0.13666175000003022
                },
                {
                    "name": "F5",
                    "midi": 77,
                    "time": 895.8177712499674,
                    "velocity": 0.6377952755905512,
                    "duration": 0.13666175000003022
                },
                {
                    "name": "C#5",
                    "midi": 73,
                    "time": 895.9544329999675,
                    "velocity": 0.7086614173228346,
                    "duration": 0.27332349999994676
                },
                {
                    "name": "E6",
                    "midi": 88,
                    "time": 896.5010799999674,
                    "velocity": 0.7244094488188977,
                    "duration": 0.13666175000003022
                },
                {
                    "name": "F6",
                    "midi": 89,
                    "time": 896.6377417499674,
                    "velocity": 0.6771653543307087,
                    "duration": 0.13666175000003022
                },
                {
                    "name": "E6",
                    "midi": 88,
                    "time": 896.7744034999674,
                    "velocity": 0.7322834645669292,
                    "duration": 0.13666175000003022
                },
                {
                    "name": "F6",
                    "midi": 89,
                    "time": 896.9110652499675,
                    "velocity": 0.6692913385826772,
                    "duration": 0.13666175000003022
                },
                {
                    "name": "A5",
                    "midi": 81,
                    "time": 897.0477269999675,
                    "velocity": 0.7322834645669292,
                    "duration": 0.27332349999994676
                },
                {
                    "name": "A6",
                    "midi": 93,
                    "time": 897.0477269999675,
                    "velocity": 0.7322834645669292,
                    "duration": 0.27332349999994676
                },
                {
                    "name": "F6",
                    "midi": 89,
                    "time": 897.5943739999674,
                    "velocity": 0.7401574803149606,
                    "duration": 0.27332349999994676
                },
                {
                    "name": "F5",
                    "midi": 77,
                    "time": 897.5943739999674,
                    "velocity": 0.6220472440944882,
                    "duration": 0.27332349999994676
                },
                {
                    "name": "D6",
                    "midi": 86,
                    "time": 898.1410209999673,
                    "velocity": 0.7480314960629921,
                    "duration": 0.27332349999994676
                },
                {
                    "name": "D5",
                    "midi": 74,
                    "time": 898.1410209999673,
                    "velocity": 0.6299212598425197,
                    "duration": 0.27332349999994676
                },
                {
                    "name": "A5",
                    "midi": 81,
                    "time": 898.6876679999672,
                    "velocity": 0.7637795275590551,
                    "duration": 0.27332349999994676
                },
                {
                    "name": "A4",
                    "midi": 69,
                    "time": 898.6876679999672,
                    "velocity": 0.6456692913385826,
                    "duration": 0.27332349999994676
                },
                {
                    "name": "F5",
                    "midi": 77,
                    "time": 899.2343149999671,
                    "velocity": 0.7716535433070866,
                    "duration": 0.27332349999994676
                },
                {
                    "name": "F4",
                    "midi": 65,
                    "time": 899.2343149999671,
                    "velocity": 0.6535433070866141,
                    "duration": 0.27332349999994676
                },
                {
                    "name": "D5",
                    "midi": 74,
                    "time": 899.780961999967,
                    "velocity": 0.7952755905511811,
                    "duration": 0.27332349999994676
                },
                {
                    "name": "D4",
                    "midi": 62,
                    "time": 899.780961999967,
                    "velocity": 0.6692913385826772,
                    "duration": 0.27332349999994676
                },
                {
                    "name": "A4",
                    "midi": 69,
                    "time": 900.3276089999669,
                    "velocity": 0.7322834645669292,
                    "duration": 0.27332349999994676
                },
                {
                    "name": "A3",
                    "midi": 57,
                    "time": 900.3276089999669,
                    "velocity": 0.6141732283464567,
                    "duration": 0.27332349999994676
                },
                {
                    "name": "G#3",
                    "midi": 56,
                    "time": 900.8742559999667,
                    "velocity": 0.6299212598425197,
                    "duration": 0.27332349999994676
                },
                {
                    "name": "D4",
                    "midi": 62,
                    "time": 900.8742559999667,
                    "velocity": 0.6299212598425197,
                    "duration": 0.27332349999994676
                },
                {
                    "name": "G#4",
                    "midi": 68,
                    "time": 900.8742559999667,
                    "velocity": 0.7480314960629921,
                    "duration": 0.27332349999994676
                },
                {
                    "name": "G#5",
                    "midi": 80,
                    "time": 901.4209029999666,
                    "velocity": 0.7559055118110236,
                    "duration": 0.27332349999994676
                },
                {
                    "name": "D5",
                    "midi": 74,
                    "time": 901.4209029999666,
                    "velocity": 0.6377952755905512,
                    "duration": 0.27332349999994676
                },
                {
                    "name": "G#4",
                    "midi": 68,
                    "time": 901.4209029999666,
                    "velocity": 0.6377952755905512,
                    "duration": 0.27332349999994676
                },
                {
                    "name": "A5",
                    "midi": 81,
                    "time": 901.9675499999665,
                    "velocity": 0.7716535433070866,
                    "duration": 0.27332349999994676
                },
                {
                    "name": "C#5",
                    "midi": 73,
                    "time": 901.9675499999665,
                    "velocity": 0.6456692913385826,
                    "duration": 0.27332349999994676
                },
                {
                    "name": "A4",
                    "midi": 69,
                    "time": 901.9675499999665,
                    "velocity": 0.6456692913385826,
                    "duration": 0.27332349999994676
                },
                {
                    "name": "A6",
                    "midi": 93,
                    "time": 903.0608439999664,
                    "velocity": 0.8661417322834646,
                    "duration": 0.27332349999994676
                },
                {
                    "name": "E6",
                    "midi": 88,
                    "time": 903.0608439999664,
                    "velocity": 0.7322834645669292,
                    "duration": 0.27332349999994676
                },
                {
                    "name": "C#6",
                    "midi": 85,
                    "time": 903.0608439999664,
                    "velocity": 0.7322834645669292,
                    "duration": 0.27332349999994676
                },
                {
                    "name": "A5",
                    "midi": 81,
                    "time": 903.0608439999664,
                    "velocity": 0.7322834645669292,
                    "duration": 0.27332349999994676
                },
                {
                    "name": "A4",
                    "midi": 69,
                    "time": 909.6206079999664,
                    "velocity": 0.3937007874015748,
                    "duration": 1.1479587000000038
                },
                {
                    "name": "G4",
                    "midi": 67,
                    "time": 910.7139019999664,
                    "velocity": 0.3543307086614173,
                    "duration": 1.1479587000000038
                },
                {
                    "name": "F#4",
                    "midi": 66,
                    "time": 911.8071959999664,
                    "velocity": 0.3937007874015748,
                    "duration": 1.1479587000000038
                },
                {
                    "name": "G4",
                    "midi": 67,
                    "time": 912.9004899999665,
                    "velocity": 0.36220472440944884,
                    "duration": 1.1479587000000038
                },
                {
                    "name": "A4",
                    "midi": 69,
                    "time": 913.9937839999665,
                    "velocity": 0.36220472440944884,
                    "duration": 1.0932940000000144
                },
                {
                    "name": "D4",
                    "midi": 62,
                    "time": 915.0870779999665,
                    "velocity": 0.3937007874015748,
                    "duration": 1.0932940000000144
                },
                {
                    "name": "D4",
                    "midi": 62,
                    "time": 916.1803719999665,
                    "velocity": 0.3464566929133858,
                    "duration": 1.1479587000000038
                },
                {
                    "name": "E4",
                    "midi": 64,
                    "time": 916.1803719999665,
                    "velocity": 0.3464566929133858,
                    "duration": 1.1479587000000038
                },
                {
                    "name": "C4",
                    "midi": 60,
                    "time": 917.2736659999665,
                    "velocity": 0.3464566929133858,
                    "duration": 1.0932940000000144
                },
                {
                    "name": "F#4",
                    "midi": 66,
                    "time": 917.2736659999665,
                    "velocity": 0.3464566929133858,
                    "duration": 1.0932940000000144
                },
                {
                    "name": "G4",
                    "midi": 67,
                    "time": 918.3669599999665,
                    "velocity": 0.3937007874015748,
                    "duration": 2.186588000000029
                },
                {
                    "name": "B3",
                    "midi": 59,
                    "time": 918.3669599999665,
                    "velocity": 0.3937007874015748,
                    "duration": 1.1479587000000038
                },
                {
                    "name": "C#4",
                    "midi": 61,
                    "time": 919.4602539999665,
                    "velocity": 0.3228346456692913,
                    "duration": 1.1479587000000038
                },
                {
                    "name": "F#4",
                    "midi": 66,
                    "time": 920.5535479999666,
                    "velocity": 0.3464566929133858,
                    "duration": 1.0932940000000144
                },
                {
                    "name": "D4",
                    "midi": 62,
                    "time": 920.5535479999666,
                    "velocity": 0.3464566929133858,
                    "duration": 2.186588000000029
                },
                {
                    "name": "E4",
                    "midi": 64,
                    "time": 921.6468419999666,
                    "velocity": 0.3937007874015748,
                    "duration": 2.186588000000029
                },
                {
                    "name": "C#4",
                    "midi": 61,
                    "time": 922.7401359999666,
                    "velocity": 0.33070866141732286,
                    "duration": 2.186588000000029
                },
                {
                    "name": "A4",
                    "midi": 69,
                    "time": 923.8334299999666,
                    "velocity": 0.3700787401574803,
                    "duration": 4.373176000000058
                },
                {
                    "name": "D#4",
                    "midi": 63,
                    "time": 924.9267239999666,
                    "velocity": 0.3779527559055118,
                    "duration": 1.1479587000000038
                },
                {
                    "name": "E4",
                    "midi": 64,
                    "time": 926.0200179999666,
                    "velocity": 0.3700787401574803,
                    "duration": 1.1479587000000038
                },
                {
                    "name": "F#4",
                    "midi": 66,
                    "time": 927.1133119999666,
                    "velocity": 0.3779527559055118,
                    "duration": 2.186588000000029
                },
                {
                    "name": "B4",
                    "midi": 71,
                    "time": 928.2066059999667,
                    "velocity": 0.4094488188976378,
                    "duration": 1.1479587000000038
                },
                {
                    "name": "C#5",
                    "midi": 73,
                    "time": 929.2998999999667,
                    "velocity": 0.4251968503937008,
                    "duration": 1.1479587000000038
                },
                {
                    "name": "E4",
                    "midi": 64,
                    "time": 929.2998999999667,
                    "velocity": 0.3543307086614173,
                    "duration": 1.0932940000000144
                },
                {
                    "name": "D5",
                    "midi": 74,
                    "time": 930.3931939999667,
                    "velocity": 0.4251968503937008,
                    "duration": 1.0932940000000144
                },
                {
                    "name": "D4",
                    "midi": 62,
                    "time": 930.3931939999667,
                    "velocity": 0.3543307086614173,
                    "duration": 2.186588000000029
                },
                {
                    "name": "A4",
                    "midi": 69,
                    "time": 931.4864879999667,
                    "velocity": 0.3937007874015748,
                    "duration": 1.0932940000000144
                },
                {
                    "name": "G4",
                    "midi": 67,
                    "time": 932.5797819999667,
                    "velocity": 0.3700787401574803,
                    "duration": 1.0932940000000144
                },
                {
                    "name": "E4",
                    "midi": 64,
                    "time": 932.5797819999667,
                    "velocity": 0.3700787401574803,
                    "duration": 1.0932940000000144
                },
                {
                    "name": "F#4",
                    "midi": 66,
                    "time": 933.6730759999667,
                    "velocity": 0.3700787401574803,
                    "duration": 2.186588000000029
                },
                {
                    "name": "A3",
                    "midi": 57,
                    "time": 933.6730759999667,
                    "velocity": 0.30708661417322836,
                    "duration": 1.0932940000000144
                },
                {
                    "name": "A#3",
                    "midi": 58,
                    "time": 934.7663699999667,
                    "velocity": 0.3937007874015748,
                    "duration": 1.0932940000000144
                },
                {
                    "name": "E4",
                    "midi": 64,
                    "time": 935.8596639999668,
                    "velocity": 0.36220472440944884,
                    "duration": 3.2798820000000433
                },
                {
                    "name": "B3",
                    "midi": 59,
                    "time": 935.8596639999668,
                    "velocity": 0.36220472440944884,
                    "duration": 1.0932940000000144
                },
                {
                    "name": "C#4",
                    "midi": 61,
                    "time": 936.9529579999668,
                    "velocity": 0.36220472440944884,
                    "duration": 1.0932940000000144
                },
                {
                    "name": "D4",
                    "midi": 62,
                    "time": 938.0462519999668,
                    "velocity": 0.3937007874015748,
                    "duration": 1.0932940000000144
                },
                {
                    "name": "A4",
                    "midi": 69,
                    "time": 939.1395459999668,
                    "velocity": 0.4015748031496063,
                    "duration": 1.1479587000000038
                },
                {
                    "name": "E5",
                    "midi": 76,
                    "time": 939.1395459999668,
                    "velocity": 0.47244094488188976,
                    "duration": 1.1479587000000038
                },
                {
                    "name": "B4",
                    "midi": 71,
                    "time": 940.2328399999668,
                    "velocity": 0.3543307086614173,
                    "duration": 2.186588000000029
                },
                {
                    "name": "D5",
                    "midi": 74,
                    "time": 940.2328399999668,
                    "velocity": 0.4251968503937008,
                    "duration": 1.1479587000000038
                },
                {
                    "name": "C#5",
                    "midi": 73,
                    "time": 941.3261339999668,
                    "velocity": 0.4566929133858268,
                    "duration": 1.1479587000000038
                },
                {
                    "name": "A4",
                    "midi": 69,
                    "time": 942.4194279999668,
                    "velocity": 0.33070866141732286,
                    "duration": 1.1479587000000038
                },
                {
                    "name": "D5",
                    "midi": 74,
                    "time": 942.4194279999668,
                    "velocity": 0.41732283464566927,
                    "duration": 1.1479587000000038
                },
                {
                    "name": "G4",
                    "midi": 67,
                    "time": 943.5127219999669,
                    "velocity": 0.33070866141732286,
                    "duration": 1.0932940000000144
                },
                {
                    "name": "E5",
                    "midi": 76,
                    "time": 943.5127219999669,
                    "velocity": 0.41732283464566927,
                    "duration": 1.0932940000000144
                },
                {
                    "name": "F#4",
                    "midi": 66,
                    "time": 944.6060159999669,
                    "velocity": 0.33070866141732286,
                    "duration": 1.1479587000000038
                },
                {
                    "name": "A4",
                    "midi": 69,
                    "time": 944.6060159999669,
                    "velocity": 0.3937007874015748,
                    "duration": 1.1479587000000038
                },
                {
                    "name": "G4",
                    "midi": 67,
                    "time": 945.6993099999669,
                    "velocity": 0.30708661417322836,
                    "duration": 1.1479587000000038
                },
                {
                    "name": "B4",
                    "midi": 71,
                    "time": 945.6993099999669,
                    "velocity": 0.36220472440944884,
                    "duration": 1.1479587000000038
                },
                {
                    "name": "A4",
                    "midi": 69,
                    "time": 946.7926039999669,
                    "velocity": 0.30708661417322836,
                    "duration": 1.1479587000000038
                },
                {
                    "name": "C5",
                    "midi": 72,
                    "time": 946.7926039999669,
                    "velocity": 0.36220472440944884,
                    "duration": 1.1479587000000038
                },
                {
                    "name": "D5",
                    "midi": 74,
                    "time": 947.8858979999669,
                    "velocity": 0.4094488188976378,
                    "duration": 2.186588000000029
                },
                {
                    "name": "D4",
                    "midi": 62,
                    "time": 947.8858979999669,
                    "velocity": 0.33070866141732286,
                    "duration": 1.1479587000000038
                },
                {
                    "name": "E4",
                    "midi": 64,
                    "time": 948.9791919999669,
                    "velocity": 0.3464566929133858,
                    "duration": 1.1479587000000038
                },
                {
                    "name": "C#5",
                    "midi": 73,
                    "time": 950.072485999967,
                    "velocity": 0.4094488188976378,
                    "duration": 2.186588000000029
                },
                {
                    "name": "F#4",
                    "midi": 66,
                    "time": 950.072485999967,
                    "velocity": 0.3464566929133858,
                    "duration": 1.0932940000000144
                },
                {
                    "name": "G4",
                    "midi": 67,
                    "time": 951.165779999967,
                    "velocity": 0.3937007874015748,
                    "duration": 2.186588000000029
                },
                {
                    "name": "B4",
                    "midi": 71,
                    "time": 952.259073999967,
                    "velocity": 0.36220472440944884,
                    "duration": 1.0932940000000144
                },
                {
                    "name": "F#4",
                    "midi": 66,
                    "time": 953.352367999967,
                    "velocity": 0.30708661417322836,
                    "duration": 2.241252700000018
                },
                {
                    "name": "A4",
                    "midi": 69,
                    "time": 953.352367999967,
                    "velocity": 0.36220472440944884,
                    "duration": 2.241252700000018
                },
                {
                    "name": "E4",
                    "midi": 64,
                    "time": 955.538955999967,
                    "velocity": 0.30708661417322836,
                    "duration": 1.1479587000000038
                },
                {
                    "name": "G4",
                    "midi": 67,
                    "time": 955.538955999967,
                    "velocity": 0.36220472440944884,
                    "duration": 1.1479587000000038
                },
                {
                    "name": "D4",
                    "midi": 62,
                    "time": 956.632249999967,
                    "velocity": 0.30708661417322836,
                    "duration": 2.186588000000029
                },
                {
                    "name": "F#4",
                    "midi": 66,
                    "time": 956.632249999967,
                    "velocity": 0.36220472440944884,
                    "duration": 1.1479587000000038
                },
                {
                    "name": "E4",
                    "midi": 64,
                    "time": 957.725543999967,
                    "velocity": 0.3937007874015748,
                    "duration": 2.186588000000029
                },
                {
                    "name": "C#4",
                    "midi": 61,
                    "time": 958.8188379999671,
                    "velocity": 0.3464566929133858,
                    "duration": 2.186588000000029
                },
                {
                    "name": "A4",
                    "midi": 69,
                    "time": 959.9121319999671,
                    "velocity": 0.4251968503937008,
                    "duration": 2.186588000000029
                },
                {
                    "name": "D#4",
                    "midi": 63,
                    "time": 961.0054259999671,
                    "velocity": 0.3779527559055118,
                    "duration": 3.2798820000000433
                },
                {
                    "name": "F#4",
                    "midi": 66,
                    "time": 962.0987199999671,
                    "velocity": 0.3779527559055118,
                    "duration": 1.0932940000000144
                },
                {
                    "name": "B4",
                    "midi": 71,
                    "time": 963.1920139999671,
                    "velocity": 0.4251968503937008,
                    "duration": 2.186588000000029
                },
                {
                    "name": "E4",
                    "midi": 64,
                    "time": 964.2853079999671,
                    "velocity": 0.4251968503937008,
                    "duration": 1.0932940000000144
                },
                {
                    "name": "E5",
                    "midi": 76,
                    "time": 965.3786019999671,
                    "velocity": 0.5275590551181102,
                    "duration": 1.1479587000000038
                },
                {
                    "name": "D5",
                    "midi": 74,
                    "time": 966.4718959999672,
                    "velocity": 0.49606299212598426,
                    "duration": 1.1479587000000038
                },
                {
                    "name": "C#5",
                    "midi": 73,
                    "time": 967.5651899999672,
                    "velocity": 0.4645669291338583,
                    "duration": 1.0932940000000144
                },
                {
                    "name": "F#5",
                    "midi": 78,
                    "time": 968.6584839999672,
                    "velocity": 0.5039370078740157,
                    "duration": 1.1479587000000038
                },
                {
                    "name": "E5",
                    "midi": 76,
                    "time": 969.7517779999672,
                    "velocity": 0.44881889763779526,
                    "duration": 1.1479587000000038
                },
                {
                    "name": "D5",
                    "midi": 74,
                    "time": 970.8450719999672,
                    "velocity": 0.44881889763779526,
                    "duration": 1.0932940000000144
                },
                {
                    "name": "A5",
                    "midi": 81,
                    "time": 971.9383659999672,
                    "velocity": 0.5590551181102362,
                    "duration": 1.1479587000000038
                },
                {
                    "name": "G5",
                    "midi": 79,
                    "time": 973.0316599999672,
                    "velocity": 0.5354330708661418,
                    "duration": 1.1479587000000038
                },
                {
                    "name": "F#5",
                    "midi": 78,
                    "time": 974.1249539999673,
                    "velocity": 0.5275590551181102,
                    "duration": 1.0932940000000144
                },
                {
                    "name": "B4",
                    "midi": 71,
                    "time": 975.2182479999673,
                    "velocity": 0.41732283464566927,
                    "duration": 1.0932940000000144
                },
                {
                    "name": "D#5",
                    "midi": 75,
                    "time": 975.2182479999673,
                    "velocity": 0.49606299212598426,
                    "duration": 1.0932940000000144
                },
                {
                    "name": "A4",
                    "midi": 69,
                    "time": 976.3115419999673,
                    "velocity": 0.36220472440944884,
                    "duration": 1.0932940000000144
                },
                {
                    "name": "F#5",
                    "midi": 78,
                    "time": 976.3115419999673,
                    "velocity": 0.4409448818897638,
                    "duration": 1.0932940000000144
                },
                {
                    "name": "G4",
                    "midi": 67,
                    "time": 977.4048359999673,
                    "velocity": 0.4015748031496063,
                    "duration": 1.0932940000000144
                },
                {
                    "name": "B4",
                    "midi": 71,
                    "time": 977.4048359999673,
                    "velocity": 0.4881889763779528,
                    "duration": 1.0932940000000144
                },
                {
                    "name": "F#4",
                    "midi": 66,
                    "time": 978.4981299999673,
                    "velocity": 0.33070866141732286,
                    "duration": 1.1479587000000038
                },
                {
                    "name": "A4",
                    "midi": 69,
                    "time": 978.4981299999673,
                    "velocity": 0.3937007874015748,
                    "duration": 1.1479587000000038
                },
                {
                    "name": "G#4",
                    "midi": 68,
                    "time": 979.5914239999673,
                    "velocity": 0.33070866141732286,
                    "duration": 1.1479587000000038
                },
                {
                    "name": "B4",
                    "midi": 71,
                    "time": 979.5914239999673,
                    "velocity": 0.3858267716535433,
                    "duration": 1.1479587000000038
                },
                {
                    "name": "A4",
                    "midi": 69,
                    "time": 980.6847179999673,
                    "velocity": 0.3937007874015748,
                    "duration": 1.0932940000000144
                },
                {
                    "name": "C#5",
                    "midi": 73,
                    "time": 980.6847179999673,
                    "velocity": 0.44881889763779526,
                    "duration": 1.0932940000000144
                },
                {
                    "name": "B4",
                    "midi": 71,
                    "time": 981.7780119999674,
                    "velocity": 0.3464566929133858,
                    "duration": 1.1479587000000038
                },
                {
                    "name": "D5",
                    "midi": 74,
                    "time": 981.7780119999674,
                    "velocity": 0.48031496062992124,
                    "duration": 1.1479587000000038
                },
                {
                    "name": "E5",
                    "midi": 76,
                    "time": 982.8713059999674,
                    "velocity": 0.4881889763779528,
                    "duration": 2.186588000000029
                },
                {
                    "name": "C#5",
                    "midi": 73,
                    "time": 982.8713059999674,
                    "velocity": 0.3464566929133858,
                    "duration": 1.1479587000000038
                },
                {
                    "name": "A4",
                    "midi": 69,
                    "time": 983.9645999999674,
                    "velocity": 0.4330708661417323,
                    "duration": 1.0932940000000144
                },
                {
                    "name": "F4",
                    "midi": 65,
                    "time": 985.0578939999674,
                    "velocity": 0.3858267716535433,
                    "duration": 1.1479587000000038
                },
                {
                    "name": "D5",
                    "midi": 74,
                    "time": 985.0578939999674,
                    "velocity": 0.4566929133858268,
                    "duration": 1.1479587000000038
                },
                {
                    "name": "E4",
                    "midi": 64,
                    "time": 986.1511879999674,
                    "velocity": 0.36220472440944884,
                    "duration": 1.1479587000000038
                },
                {
                    "name": "C#5",
                    "midi": 73,
                    "time": 986.1511879999674,
                    "velocity": 0.4251968503937008,
                    "duration": 1.1479587000000038
                },
                {
                    "name": "D4",
                    "midi": 62,
                    "time": 987.2444819999674,
                    "velocity": 0.3464566929133858,
                    "duration": 4.373175999999944
                },
                {
                    "name": "B4",
                    "midi": 71,
                    "time": 987.2444819999674,
                    "velocity": 0.4094488188976378,
                    "duration": 4.373175999999944
                },
                {
                    "name": "C#4",
                    "midi": 61,
                    "time": 991.6176579999674,
                    "velocity": 0.3543307086614173,
                    "duration": 1.0932940000000144
                },
                {
                    "name": "A4",
                    "midi": 69,
                    "time": 991.6176579999674,
                    "velocity": 0.41732283464566927,
                    "duration": 1.0932940000000144
                },
                {
                    "name": "D#4",
                    "midi": 63,
                    "time": 992.7109519999674,
                    "velocity": 0.36220472440944884,
                    "duration": 2.186588000000029
                },
                {
                    "name": "C5",
                    "midi": 72,
                    "time": 992.7109519999674,
                    "velocity": 0.4330708661417323,
                    "duration": 2.186588000000029
                },
                {
                    "name": "E4",
                    "midi": 64,
                    "time": 994.8975399999674,
                    "velocity": 0.3543307086614173,
                    "duration": 1.0932940000000144
                },
                {
                    "name": "B4",
                    "midi": 71,
                    "time": 994.8975399999674,
                    "velocity": 0.4251968503937008,
                    "duration": 1.0932940000000144
                },
                {
                    "name": "G4",
                    "midi": 67,
                    "time": 995.9908339999674,
                    "velocity": 0.33070866141732286,
                    "duration": 2.186588000000029
                },
                {
                    "name": "C#5",
                    "midi": 73,
                    "time": 995.9908339999674,
                    "velocity": 0.41732283464566927,
                    "duration": 2.186588000000029
                },
                {
                    "name": "F#4",
                    "midi": 66,
                    "time": 998.1774219999675,
                    "velocity": 0.3543307086614173,
                    "duration": 1.0932940000000144
                },
                {
                    "name": "D5",
                    "midi": 74,
                    "time": 998.1774219999675,
                    "velocity": 0.44881889763779526,
                    "duration": 1.0932940000000144
                },
                {
                    "name": "D#5",
                    "midi": 75,
                    "time": 999.2707159999675,
                    "velocity": 0.4251968503937008,
                    "duration": 2.186588000000029
                },
                {
                    "name": "G4",
                    "midi": 67,
                    "time": 999.2707159999675,
                    "velocity": 0.3543307086614173,
                    "duration": 1.0932940000000144
                },
                {
                    "name": "D5",
                    "midi": 74,
                    "time": 1001.4573039999675,
                    "velocity": 0.4566929133858268,
                    "duration": 1.0932940000000144
                },
                {
                    "name": "C#5",
                    "midi": 73,
                    "time": 1002.5505979999675,
                    "velocity": 0.4330708661417323,
                    "duration": 1.0932940000000144
                },
                {
                    "name": "C5",
                    "midi": 72,
                    "time": 1003.6438919999675,
                    "velocity": 0.4330708661417323,
                    "duration": 0.5466470000000072
                },
                {
                    "name": "A4",
                    "midi": 69,
                    "time": 1004.7371859999676,
                    "velocity": 0.3937007874015748,
                    "duration": 0.18221566666670697
                },
                {
                    "name": "F5",
                    "midi": 77,
                    "time": 1004.7371859999676,
                    "velocity": 0.3937007874015748,
                    "duration": 1.0932940000002418
                },
                {
                    "name": "A#4",
                    "midi": 70,
                    "time": 1004.9194016666343,
                    "velocity": 0.3464566929133858,
                    "duration": 0.18221566666670697
                },
                {
                    "name": "A4",
                    "midi": 69,
                    "time": 1005.101617333301,
                    "velocity": 0.3937007874015748,
                    "duration": 0.18221566666670697
                },
                {
                    "name": "A#4",
                    "midi": 70,
                    "time": 1005.2838329999677,
                    "velocity": 0.3464566929133858,
                    "duration": 0.18221566666670697
                },
                {
                    "name": "A4",
                    "midi": 69,
                    "time": 1005.4660486666344,
                    "velocity": 0.3937007874015748,
                    "duration": 0.18221566666670697
                },
                {
                    "name": "A#4",
                    "midi": 70,
                    "time": 1005.6482643333011,
                    "velocity": 0.3464566929133858,
                    "duration": 0.18221566666670697
                },
                {
                    "name": "A4",
                    "midi": 69,
                    "time": 1005.8304799999678,
                    "velocity": 0.3937007874015748,
                    "duration": 0.18221566666670697
                },
                {
                    "name": "D#5",
                    "midi": 75,
                    "time": 1005.8304799999678,
                    "velocity": 0.3543307086614173,
                    "duration": 1.0932940000002418
                },
                {
                    "name": "A#4",
                    "midi": 70,
                    "time": 1006.0126956666345,
                    "velocity": 0.3543307086614173,
                    "duration": 0.18221566666670697
                },
                {
                    "name": "A4",
                    "midi": 69,
                    "time": 1006.1949113333012,
                    "velocity": 0.3937007874015748,
                    "duration": 0.18221566666670697
                },
                {
                    "name": "A#4",
                    "midi": 70,
                    "time": 1006.3771269999679,
                    "velocity": 0.3858267716535433,
                    "duration": 0.13666175000003022
                },
                {
                    "name": "A4",
                    "midi": 69,
                    "time": 1006.513788749968,
                    "velocity": 0.36220472440944884,
                    "duration": 0.13666175000003022
                },
                {
                    "name": "G4",
                    "midi": 67,
                    "time": 1006.650450499968,
                    "velocity": 0.36220472440944884,
                    "duration": 0.13666175000003022
                },
                {
                    "name": "A4",
                    "midi": 69,
                    "time": 1006.787112249968,
                    "velocity": 0.36220472440944884,
                    "duration": 0.13666175000003022
                },
                {
                    "name": "D5",
                    "midi": 74,
                    "time": 1006.923773999968,
                    "velocity": 0.3937007874015748,
                    "duration": 1.1479587000000038
                },
                {
                    "name": "D#5",
                    "midi": 75,
                    "time": 1008.017067999968,
                    "velocity": 0.36220472440944884,
                    "duration": 1.14795869999989
                },
                {
                    "name": "A#4",
                    "midi": 70,
                    "time": 1008.563714999968,
                    "velocity": 0.33858267716535434,
                    "duration": 0.3279881999999361
                },
                {
                    "name": "A4",
                    "midi": 69,
                    "time": 1008.837038499968,
                    "velocity": 0.30708661417322836,
                    "duration": 0.3279881999999361
                },
                {
                    "name": "G4",
                    "midi": 67,
                    "time": 1009.110361999968,
                    "velocity": 0.33070866141732286,
                    "duration": 0.3279881999999361
                },
                {
                    "name": "F5",
                    "midi": 77,
                    "time": 1009.110361999968,
                    "velocity": 0.36220472440944884,
                    "duration": 1.093293999999787
                },
                {
                    "name": "F4",
                    "midi": 65,
                    "time": 1009.3836854999679,
                    "velocity": 0.3228346456692913,
                    "duration": 0.3279881999999361
                },
                {
                    "name": "D#4",
                    "midi": 63,
                    "time": 1009.6570089999678,
                    "velocity": 0.30708661417322836,
                    "duration": 0.3279881999999361
                },
                {
                    "name": "D4",
                    "midi": 62,
                    "time": 1009.9303324999678,
                    "velocity": 0.29133858267716534,
                    "duration": 0.27332349999994676
                },
                {
                    "name": "G4",
                    "midi": 67,
                    "time": 1010.2036559999677,
                    "velocity": 0.3937007874015748,
                    "duration": 1.0932940000000144
                },
                {
                    "name": "B4",
                    "midi": 71,
                    "time": 1010.2036559999677,
                    "velocity": 0.3937007874015748,
                    "duration": 1.0932940000000144
                },
                {
                    "name": "C5",
                    "midi": 72,
                    "time": 1011.2969499999678,
                    "velocity": 0.3464566929133858,
                    "duration": 1.14795869999989
                },
                {
                    "name": "G4",
                    "midi": 67,
                    "time": 1011.8435969999678,
                    "velocity": 0.31496062992125984,
                    "duration": 0.3279881999999361
                },
                {
                    "name": "F4",
                    "midi": 65,
                    "time": 1012.1169204999677,
                    "velocity": 0.2992125984251969,
                    "duration": 0.3279881999999361
                },
                {
                    "name": "D#4",
                    "midi": 63,
                    "time": 1012.3902439999677,
                    "velocity": 0.31496062992125984,
                    "duration": 0.3279881999999361
                },
                {
                    "name": "D5",
                    "midi": 74,
                    "time": 1012.3902439999677,
                    "velocity": 0.3464566929133858,
                    "duration": 1.093293999999787
                },
                {
                    "name": "D4",
                    "midi": 62,
                    "time": 1012.6635674999676,
                    "velocity": 0.31496062992125984,
                    "duration": 0.3279881999999361
                },
                {
                    "name": "C4",
                    "midi": 60,
                    "time": 1012.9368909999675,
                    "velocity": 0.30708661417322836,
                    "duration": 0.3279881999999361
                },
                {
                    "name": "B3",
                    "midi": 59,
                    "time": 1013.2102144999675,
                    "velocity": 0.2992125984251969,
                    "duration": 0.27332349999994676
                },
                {
                    "name": "D4",
                    "midi": 62,
                    "time": 1013.4835379999674,
                    "velocity": 0.36220472440944884,
                    "duration": 1.0932940000000144
                },
                {
                    "name": "B4",
                    "midi": 71,
                    "time": 1013.4835379999674,
                    "velocity": 0.4330708661417323,
                    "duration": 0.5466470000000072
                },
                {
                    "name": "G4",
                    "midi": 67,
                    "time": 1014.5768319999675,
                    "velocity": 0.3937007874015748,
                    "duration": 1.0932940000000144
                },
                {
                    "name": "F4",
                    "midi": 65,
                    "time": 1015.6701259999675,
                    "velocity": 0.36220472440944884,
                    "duration": 1.0932940000000144
                },
                {
                    "name": "E4",
                    "midi": 64,
                    "time": 1016.7634199999675,
                    "velocity": 0.41732283464566927,
                    "duration": 1.1479587000000038
                },
                {
                    "name": "F4",
                    "midi": 65,
                    "time": 1017.8567139999675,
                    "velocity": 0.3937007874015748,
                    "duration": 1.1479587000000038
                },
                {
                    "name": "G4",
                    "midi": 67,
                    "time": 1018.9500079999675,
                    "velocity": 0.4015748031496063,
                    "duration": 1.0932940000000144
                },
                {
                    "name": "C4",
                    "midi": 60,
                    "time": 1020.0433019999675,
                    "velocity": 0.4566929133858268,
                    "duration": 1.0932940000000144
                },
                {
                    "name": "D4",
                    "midi": 62,
                    "time": 1021.1365959999675,
                    "velocity": 0.4094488188976378,
                    "duration": 1.1479587000000038
                },
                {
                    "name": "C5",
                    "midi": 72,
                    "time": 1021.1365959999675,
                    "velocity": 0.4094488188976378,
                    "duration": 1.1479587000000038
                },
                {
                    "name": "E4",
                    "midi": 64,
                    "time": 1022.2298899999676,
                    "velocity": 0.4251968503937008,
                    "duration": 1.1479587000000038
                },
                {
                    "name": "A#4",
                    "midi": 70,
                    "time": 1022.2298899999676,
                    "velocity": 0.4251968503937008,
                    "duration": 1.0932940000000144
                },
                {
                    "name": "F4",
                    "midi": 65,
                    "time": 1023.3231839999676,
                    "velocity": 0.44881889763779526,
                    "duration": 1.0932940000000144
                },
                {
                    "name": "A4",
                    "midi": 69,
                    "time": 1023.3231839999676,
                    "velocity": 0.49606299212598426,
                    "duration": 1.0932940000000144
                },
                {
                    "name": "G4",
                    "midi": 67,
                    "time": 1024.4164779999676,
                    "velocity": 0.44881889763779526,
                    "duration": 1.1479587000001175
                },
                {
                    "name": "A#4",
                    "midi": 70,
                    "time": 1024.4164779999676,
                    "velocity": 0.44881889763779526,
                    "duration": 1.1479587000001175
                },
                {
                    "name": "A4",
                    "midi": 69,
                    "time": 1025.5097719999676,
                    "velocity": 0.4566929133858268,
                    "duration": 1.1479587000001175
                },
                {
                    "name": "C5",
                    "midi": 72,
                    "time": 1025.5097719999676,
                    "velocity": 0.4566929133858268,
                    "duration": 1.0932940000000144
                },
                {
                    "name": "D#4",
                    "midi": 63,
                    "time": 1026.6030659999676,
                    "velocity": 0.5511811023622047,
                    "duration": 0.5466470000001209
                },
                {
                    "name": "F4",
                    "midi": 65,
                    "time": 1026.6030659999676,
                    "velocity": 0.5511811023622047,
                    "duration": 0.5466470000001209
                },
                {
                    "name": "C5",
                    "midi": 72,
                    "time": 1027.1497129999677,
                    "velocity": 0.5039370078740157,
                    "duration": 1.0932940000000144
                },
                {
                    "name": "A5",
                    "midi": 81,
                    "time": 1027.6963599999676,
                    "velocity": 0.5669291338582677,
                    "duration": 0.18221566666670697
                },
                {
                    "name": "A#5",
                    "midi": 82,
                    "time": 1027.8785756666343,
                    "velocity": 0.44881889763779526,
                    "duration": 0.18221566666670697
                },
                {
                    "name": "A5",
                    "midi": 81,
                    "time": 1028.060791333301,
                    "velocity": 0.5669291338582677,
                    "duration": 0.18221566666670697
                },
                {
                    "name": "A#5",
                    "midi": 82,
                    "time": 1028.2430069999677,
                    "velocity": 0.44881889763779526,
                    "duration": 0.18221566666670697
                },
                {
                    "name": "F5",
                    "midi": 77,
                    "time": 1028.2430069999677,
                    "velocity": 0.5669291338582677,
                    "duration": 1.0932940000002418
                },
                {
                    "name": "A5",
                    "midi": 81,
                    "time": 1028.4252226666345,
                    "velocity": 0.5669291338582677,
                    "duration": 0.18221566666670697
                },
                {
                    "name": "A#5",
                    "midi": 82,
                    "time": 1028.6074383333012,
                    "velocity": 0.44881889763779526,
                    "duration": 0.18221566666670697
                },
                {
                    "name": "A5",
                    "midi": 81,
                    "time": 1028.7896539999679,
                    "velocity": 0.5669291338582677,
                    "duration": 0.18221566666670697
                },
                {
                    "name": "A#5",
                    "midi": 82,
                    "time": 1028.9718696666346,
                    "velocity": 0.44881889763779526,
                    "duration": 0.18221566666670697
                },
                {
                    "name": "A5",
                    "midi": 81,
                    "time": 1029.1540853333013,
                    "velocity": 0.5669291338582677,
                    "duration": 0.18221566666670697
                },
                {
                    "name": "A#5",
                    "midi": 82,
                    "time": 1029.336300999968,
                    "velocity": 0.44881889763779526,
                    "duration": 0.18221566666670697
                },
                {
                    "name": "F#5",
                    "midi": 78,
                    "time": 1029.336300999968,
                    "velocity": 0.6377952755905512,
                    "duration": 0.5466470000001209
                },
                {
                    "name": "A5",
                    "midi": 81,
                    "time": 1029.5185166666347,
                    "velocity": 0.5669291338582677,
                    "duration": 0.18221566666670697
                },
                {
                    "name": "A#5",
                    "midi": 82,
                    "time": 1029.7007323333014,
                    "velocity": 0.44881889763779526,
                    "duration": 0.18221566666670697
                },
                {
                    "name": "A#5",
                    "midi": 82,
                    "time": 1030.429594999968,
                    "velocity": 0.7086614173228346,
                    "duration": 0.27332350000006045
                },
                {
                    "name": "A5",
                    "midi": 81,
                    "time": 1030.702918499968,
                    "velocity": 0.6456692913385826,
                    "duration": 0.27332350000006045
                },
                {
                    "name": "G5",
                    "midi": 79,
                    "time": 1030.9762419999681,
                    "velocity": 0.6377952755905512,
                    "duration": 0.27332350000006045
                },
                {
                    "name": "F5",
                    "midi": 77,
                    "time": 1031.2495654999682,
                    "velocity": 0.6299212598425197,
                    "duration": 0.27332350000006045
                },
                {
                    "name": "D#5",
                    "midi": 75,
                    "time": 1031.5228889999682,
                    "velocity": 0.6220472440944882,
                    "duration": 0.27332350000006045
                },
                {
                    "name": "D5",
                    "midi": 74,
                    "time": 1031.7962124999683,
                    "velocity": 0.6141732283464567,
                    "duration": 0.27332350000006045
                },
                {
                    "name": "A#3",
                    "midi": 58,
                    "time": 1032.6161829999683,
                    "velocity": 0.6456692913385826,
                    "duration": 0.27332350000006045
                },
                {
                    "name": "G#3",
                    "midi": 56,
                    "time": 1032.8895064999683,
                    "velocity": 0.5748031496062992,
                    "duration": 0.27332350000006045
                },
                {
                    "name": "G3",
                    "midi": 55,
                    "time": 1033.1628299999684,
                    "velocity": 0.5669291338582677,
                    "duration": 0.27332350000006045
                },
                {
                    "name": "F3",
                    "midi": 53,
                    "time": 1033.4361534999684,
                    "velocity": 0.5669291338582677,
                    "duration": 0.27332350000006045
                },
                {
                    "name": "D#3",
                    "midi": 51,
                    "time": 1033.7094769999685,
                    "velocity": 0.5590551181102362,
                    "duration": 0.27332350000006045
                },
                {
                    "name": "D3",
                    "midi": 50,
                    "time": 1033.9828004999686,
                    "velocity": 0.5511811023622047,
                    "duration": 0.27332350000006045
                },
                {
                    "name": "G5",
                    "midi": 79,
                    "time": 1034.8027709999685,
                    "velocity": 0.7480314960629921,
                    "duration": 0.27332350000006045
                },
                {
                    "name": "F5",
                    "midi": 77,
                    "time": 1035.0760944999686,
                    "velocity": 0.6456692913385826,
                    "duration": 0.27332350000006045
                },
                {
                    "name": "D#5",
                    "midi": 75,
                    "time": 1035.3494179999686,
                    "velocity": 0.6377952755905512,
                    "duration": 0.27332350000006045
                },
                {
                    "name": "D5",
                    "midi": 74,
                    "time": 1035.6227414999687,
                    "velocity": 0.6299212598425197,
                    "duration": 0.27332350000006045
                },
                {
                    "name": "C5",
                    "midi": 72,
                    "time": 1035.8960649999688,
                    "velocity": 0.6220472440944882,
                    "duration": 0.27332350000006045
                },
                {
                    "name": "A#4",
                    "midi": 70,
                    "time": 1036.1693884999688,
                    "velocity": 0.6141732283464567,
                    "duration": 0.27332350000006045
                },
                {
                    "name": "C4",
                    "midi": 60,
                    "time": 1036.9893589999688,
                    "velocity": 0.6456692913385826,
                    "duration": 0.27332350000006045
                },
                {
                    "name": "A#3",
                    "midi": 58,
                    "time": 1037.2626824999688,
                    "velocity": 0.5748031496062992,
                    "duration": 0.27332350000006045
                },
                {
                    "name": "G#3",
                    "midi": 56,
                    "time": 1037.536005999969,
                    "velocity": 0.5669291338582677,
                    "duration": 0.27332350000006045
                },
                {
                    "name": "G3",
                    "midi": 55,
                    "time": 1037.809329499969,
                    "velocity": 0.5669291338582677,
                    "duration": 0.27332350000006045
                },
                {
                    "name": "F3",
                    "midi": 53,
                    "time": 1038.082652999969,
                    "velocity": 0.5590551181102362,
                    "duration": 0.27332350000006045
                },
                {
                    "name": "E3",
                    "midi": 52,
                    "time": 1038.355976499969,
                    "velocity": 0.5511811023622047,
                    "duration": 0.27332350000006045
                },
                {
                    "name": "F5",
                    "midi": 77,
                    "time": 1039.175946999969,
                    "velocity": 0.7244094488188977,
                    "duration": 0.27332350000006045
                },
                {
                    "name": "E5",
                    "midi": 76,
                    "time": 1039.449270499969,
                    "velocity": 0.6456692913385826,
                    "duration": 0.27332350000006045
                },
                {
                    "name": "C#5",
                    "midi": 73,
                    "time": 1039.7225939999691,
                    "velocity": 0.6377952755905512,
                    "duration": 0.27332350000006045
                },
                {
                    "name": "C5",
                    "midi": 72,
                    "time": 1039.9959174999692,
                    "velocity": 0.6299212598425197,
                    "duration": 0.27332350000006045
                },
                {
                    "name": "A#4",
                    "midi": 70,
                    "time": 1040.2692409999693,
                    "velocity": 0.6220472440944882,
                    "duration": 0.27332350000006045
                },
                {
                    "name": "A4",
                    "midi": 69,
                    "time": 1040.5425644999693,
                    "velocity": 0.6141732283464567,
                    "duration": 0.27332350000006045
                },
                {
                    "name": "A3",
                    "midi": 57,
                    "time": 1041.3625349999693,
                    "velocity": 0.6456692913385826,
                    "duration": 0.27332350000006045
                },
                {
                    "name": "G3",
                    "midi": 55,
                    "time": 1041.6358584999693,
                    "velocity": 0.5748031496062992,
                    "duration": 0.27332350000006045
                },
                {
                    "name": "F#3",
                    "midi": 54,
                    "time": 1041.9091819999694,
                    "velocity": 0.5669291338582677,
                    "duration": 0.27332350000006045
                },
                {
                    "name": "D#3",
                    "midi": 51,
                    "time": 1042.1825054999695,
                    "velocity": 0.5669291338582677,
                    "duration": 0.27332350000006045
                },
                {
                    "name": "D3",
                    "midi": 50,
                    "time": 1042.4558289999695,
                    "velocity": 0.5590551181102362,
                    "duration": 0.27332350000006045
                },
                {
                    "name": "C3",
                    "midi": 48,
                    "time": 1042.7291524999696,
                    "velocity": 0.5511811023622047,
                    "duration": 0.27332350000006045
                },
                {
                    "name": "D6",
                    "midi": 86,
                    "time": 1043.5491229999695,
                    "velocity": 0.7086614173228346,
                    "duration": 0.27332350000006045
                },
                {
                    "name": "C6",
                    "midi": 84,
                    "time": 1043.8224464999696,
                    "velocity": 0.6456692913385826,
                    "duration": 0.27332350000006045
                },
                {
                    "name": "A#5",
                    "midi": 82,
                    "time": 1044.0957699999697,
                    "velocity": 0.6377952755905512,
                    "duration": 0.27332350000006045
                },
                {
                    "name": "A5",
                    "midi": 81,
                    "time": 1044.3690934999697,
                    "velocity": 0.6299212598425197,
                    "duration": 0.27332350000006045
                },
                {
                    "name": "G5",
                    "midi": 79,
                    "time": 1044.6424169999698,
                    "velocity": 0.6220472440944882,
                    "duration": 0.27332350000006045
                },
                {
                    "name": "F#5",
                    "midi": 78,
                    "time": 1044.9157404999698,
                    "velocity": 0.6141732283464567,
                    "duration": 0.27332350000006045
                },
                {
                    "name": "D4",
                    "midi": 62,
                    "time": 1045.7357109999698,
                    "velocity": 0.6456692913385826,
                    "duration": 0.27332350000006045
                },
                {
                    "name": "C#4",
                    "midi": 61,
                    "time": 1046.0090344999699,
                    "velocity": 0.5748031496062992,
                    "duration": 0.27332350000006045
                },
                {
                    "name": "C4",
                    "midi": 60,
                    "time": 1046.28235799997,
                    "velocity": 0.5669291338582677,
                    "duration": 0.27332350000006045
                },
                {
                    "name": "A#3",
                    "midi": 58,
                    "time": 1046.55568149997,
                    "velocity": 0.5669291338582677,
                    "duration": 0.27332350000006045
                },
                {
                    "name": "A3",
                    "midi": 57,
                    "time": 1046.82900499997,
                    "velocity": 0.5590551181102362,
                    "duration": 0.27332350000006045
                },
                {
                    "name": "G3",
                    "midi": 55,
                    "time": 1047.10232849997,
                    "velocity": 0.5511811023622047,
                    "duration": 0.27332350000006045
                },
                {
                    "name": "D#5",
                    "midi": 75,
                    "time": 1047.92229899997,
                    "velocity": 0.7244094488188977,
                    "duration": 0.27332350000006045
                },
                {
                    "name": "D5",
                    "midi": 74,
                    "time": 1048.19562249997,
                    "velocity": 0.6456692913385826,
                    "duration": 0.27332350000006045
                },
                {
                    "name": "C5",
                    "midi": 72,
                    "time": 1048.4689459999702,
                    "velocity": 0.6377952755905512,
                    "duration": 0.27332350000006045
                },
                {
                    "name": "A#4",
                    "midi": 70,
                    "time": 1048.7422694999702,
                    "velocity": 0.6299212598425197,
                    "duration": 0.27332350000006045
                },
                {
                    "name": "A4",
                    "midi": 69,
                    "time": 1049.0155929999703,
                    "velocity": 0.6220472440944882,
                    "duration": 0.27332350000006045
                },
                {
                    "name": "G4",
                    "midi": 67,
                    "time": 1049.2889164999704,
                    "velocity": 0.6141732283464567,
                    "duration": 0.27332350000006045
                },
                {
                    "name": "F4",
                    "midi": 65,
                    "time": 1049.5622399999704,
                    "velocity": 0.6141732283464567,
                    "duration": 0.27332350000006045
                },
                {
                    "name": "E4",
                    "midi": 64,
                    "time": 1049.8355634999705,
                    "velocity": 0.6141732283464567,
                    "duration": 0.27332350000006045
                },
                {
                    "name": "A#4",
                    "midi": 70,
                    "time": 1050.1088869999705,
                    "velocity": 0.6929133858267716,
                    "duration": 0.5466470000001209
                },
                {
                    "name": "D4",
                    "midi": 62,
                    "time": 1050.1088869999705,
                    "velocity": 0.6929133858267716,
                    "duration": 0.27332350000006045
                },
                {
                    "name": "C4",
                    "midi": 60,
                    "time": 1050.3822104999706,
                    "velocity": 0.6377952755905512,
                    "duration": 0.27332350000006045
                },
                {
                    "name": "A#3",
                    "midi": 58,
                    "time": 1050.6555339999707,
                    "velocity": 0.6299212598425197,
                    "duration": 0.27332350000006045
                },
                {
                    "name": "A3",
                    "midi": 57,
                    "time": 1050.9288574999707,
                    "velocity": 0.6299212598425197,
                    "duration": 0.27332350000006045
                },
                {
                    "name": "G3",
                    "midi": 55,
                    "time": 1051.2021809999708,
                    "velocity": 0.6220472440944882,
                    "duration": 0.27332350000006045
                },
                {
                    "name": "F3",
                    "midi": 53,
                    "time": 1051.4755044999708,
                    "velocity": 0.6141732283464567,
                    "duration": 0.27332350000006045
                },
                {
                    "name": "E3",
                    "midi": 52,
                    "time": 1051.748827999971,
                    "velocity": 0.6062992125984252,
                    "duration": 0.27332350000006045
                },
                {
                    "name": "D3",
                    "midi": 50,
                    "time": 1052.022151499971,
                    "velocity": 0.5905511811023622,
                    "duration": 0.27332350000006045
                },
                {
                    "name": "C4",
                    "midi": 60,
                    "time": 1052.295474999971,
                    "velocity": 0.6141732283464567,
                    "duration": 0.27332350000006045
                },
                {
                    "name": "A#3",
                    "midi": 58,
                    "time": 1052.568798499971,
                    "velocity": 0.5826771653543307,
                    "duration": 0.27332350000006045
                },
                {
                    "name": "A3",
                    "midi": 57,
                    "time": 1052.8421219999711,
                    "velocity": 0.6299212598425197,
                    "duration": 0.27332350000006045
                },
                {
                    "name": "G3",
                    "midi": 55,
                    "time": 1053.1154454999712,
                    "velocity": 0.6456692913385826,
                    "duration": 0.27332350000006045
                },
                {
                    "name": "F3",
                    "midi": 53,
                    "time": 1053.3887689999713,
                    "velocity": 0.6771653543307087,
                    "duration": 0.27332350000006045
                },
                {
                    "name": "E3",
                    "midi": 52,
                    "time": 1053.6620924999713,
                    "velocity": 0.7007874015748031,
                    "duration": 0.27332350000006045
                },
                {
                    "name": "A#3",
                    "midi": 58,
                    "time": 1053.9354159999714,
                    "velocity": 0.7480314960629921,
                    "duration": 0.5466470000001209
                },
                {
                    "name": "D3",
                    "midi": 50,
                    "time": 1053.9354159999714,
                    "velocity": 0.7480314960629921,
                    "duration": 0.27332350000006045
                },
                {
                    "name": "C3",
                    "midi": 48,
                    "time": 1054.2087394999714,
                    "velocity": 0.6850393700787402,
                    "duration": 0.27332350000006045
                },
                {
                    "name": "E3",
                    "midi": 52,
                    "time": 1054.4820629999715,
                    "velocity": 0.6377952755905512,
                    "duration": 0.27332350000006045
                },
                {
                    "name": "G3",
                    "midi": 55,
                    "time": 1054.7553864999716,
                    "velocity": 0.6692913385826772,
                    "duration": 0.27332350000006045
                },
                {
                    "name": "A#2",
                    "midi": 46,
                    "time": 1055.0287099999716,
                    "velocity": 0.6299212598425197,
                    "duration": 0.5466469999998935
                },
                {
                    "name": "E4",
                    "midi": 64,
                    "time": 1056.1220039999714,
                    "velocity": 0.6299212598425197,
                    "duration": 0.18221566666670697
                },
                {
                    "name": "F4",
                    "midi": 65,
                    "time": 1056.3042196666381,
                    "velocity": 0.5826771653543307,
                    "duration": 0.18221566666670697
                },
                {
                    "name": "E4",
                    "midi": 64,
                    "time": 1056.4864353333048,
                    "velocity": 0.6299212598425197,
                    "duration": 0.18221566666670697
                },
                {
                    "name": "F4",
                    "midi": 65,
                    "time": 1056.6686509999715,
                    "velocity": 0.5826771653543307,
                    "duration": 0.18221566666670697
                },
                {
                    "name": "E4",
                    "midi": 64,
                    "time": 1056.8508666666382,
                    "velocity": 0.6299212598425197,
                    "duration": 0.18221566666670697
                },
                {
                    "name": "F4",
                    "midi": 65,
                    "time": 1057.033082333305,
                    "velocity": 0.5905511811023622,
                    "duration": 0.18221566666670697
                },
                {
                    "name": "E4",
                    "midi": 64,
                    "time": 1057.2152979999717,
                    "velocity": 0.6299212598425197,
                    "duration": 0.18221566666670697
                },
                {
                    "name": "F4",
                    "midi": 65,
                    "time": 1057.3975136666384,
                    "velocity": 0.5748031496062992,
                    "duration": 0.18221566666670697
                },
                {
                    "name": "E4",
                    "midi": 64,
                    "time": 1057.579729333305,
                    "velocity": 0.6456692913385826,
                    "duration": 0.18221566666670697
                },
                {
                    "name": "F4",
                    "midi": 65,
                    "time": 1057.7619449999718,
                    "velocity": 0.5826771653543307,
                    "duration": 0.13666175000003022
                },
                {
                    "name": "E4",
                    "midi": 64,
                    "time": 1057.8986067499718,
                    "velocity": 0.6299212598425197,
                    "duration": 0.13666175000003022
                },
                {
                    "name": "D4",
                    "midi": 62,
                    "time": 1058.0352684999718,
                    "velocity": 0.5748031496062992,
                    "duration": 0.13666175000003022
                },
                {
                    "name": "E4",
                    "midi": 64,
                    "time": 1058.1719302499719,
                    "velocity": 0.5748031496062992,
                    "duration": 0.13666175000003022
                },
                {
                    "name": "F4",
                    "midi": 65,
                    "time": 1058.308591999972,
                    "velocity": 0.6771653543307087,
                    "duration": 1.0932940000000144
                },
                {
                    "name": "F4",
                    "midi": 65,
                    "time": 1059.9485329999718,
                    "velocity": 0.6141732283464567,
                    "duration": 0.27332350000006045
                },
                {
                    "name": "E4",
                    "midi": 64,
                    "time": 1060.2218564999719,
                    "velocity": 0.5826771653543307,
                    "duration": 0.27332350000006045
                },
                {
                    "name": "D4",
                    "midi": 62,
                    "time": 1060.495179999972,
                    "velocity": 0.6299212598425197,
                    "duration": 0.27332350000006045
                },
                {
                    "name": "C4",
                    "midi": 60,
                    "time": 1060.768503499972,
                    "velocity": 0.5826771653543307,
                    "duration": 0.27332350000006045
                },
                {
                    "name": "A#3",
                    "midi": 58,
                    "time": 1061.041826999972,
                    "velocity": 0.5826771653543307,
                    "duration": 0.27332350000006045
                },
                {
                    "name": "A3",
                    "midi": 57,
                    "time": 1061.315150499972,
                    "velocity": 0.5826771653543307,
                    "duration": 0.27332350000006045
                },
                {
                    "name": "D4",
                    "midi": 62,
                    "time": 1061.5884739999722,
                    "velocity": 0.6929133858267716,
                    "duration": 1.0932940000000144
                },
                {
                    "name": "D4",
                    "midi": 62,
                    "time": 1063.228414999972,
                    "velocity": 0.6141732283464567,
                    "duration": 0.27332350000006045
                },
                {
                    "name": "C4",
                    "midi": 60,
                    "time": 1063.5017384999721,
                    "velocity": 0.5826771653543307,
                    "duration": 0.27332350000006045
                },
                {
                    "name": "A#3",
                    "midi": 58,
                    "time": 1063.7750619999722,
                    "velocity": 0.6299212598425197,
                    "duration": 0.27332350000006045
                },
                {
                    "name": "A3",
                    "midi": 57,
                    "time": 1064.0483854999723,
                    "velocity": 0.5826771653543307,
                    "duration": 0.27332350000006045
                },
                {
                    "name": "G3",
                    "midi": 55,
                    "time": 1064.3217089999723,
                    "velocity": 0.5826771653543307,
                    "duration": 0.27332350000006045
                },
                {
                    "name": "F3",
                    "midi": 53,
                    "time": 1064.5950324999724,
                    "velocity": 0.5826771653543307,
                    "duration": 0.27332350000006045
                },
                {
                    "name": "A#3",
                    "midi": 58,
                    "time": 1064.8683559999724,
                    "velocity": 0.6929133858267716,
                    "duration": 1.0932940000000144
                },
                {
                    "name": "A#4",
                    "midi": 70,
                    "time": 1066.5082969999723,
                    "velocity": 0.6141732283464567,
                    "duration": 0.27332350000006045
                },
                {
                    "name": "A4",
                    "midi": 69,
                    "time": 1066.7816204999724,
                    "velocity": 0.5669291338582677,
                    "duration": 0.27332350000006045
                },
                {
                    "name": "G4",
                    "midi": 67,
                    "time": 1067.0549439999725,
                    "velocity": 0.7086614173228346,
                    "duration": 0.27332350000006045
                },
                {
                    "name": "A4",
                    "midi": 69,
                    "time": 1067.3282674999725,
                    "velocity": 0.5748031496062992,
                    "duration": 0.27332350000006045
                },
                {
                    "name": "G4",
                    "midi": 67,
                    "time": 1067.6015909999726,
                    "velocity": 0.5748031496062992,
                    "duration": 0.27332350000006045
                },
                {
                    "name": "F4",
                    "midi": 65,
                    "time": 1067.8749144999726,
                    "velocity": 0.5748031496062992,
                    "duration": 0.27332350000006045
                },
                {
                    "name": "E4",
                    "midi": 64,
                    "time": 1068.1482379999727,
                    "velocity": 0.7007874015748031,
                    "duration": 0.27332350000006045
                },
                {
                    "name": "F4",
                    "midi": 65,
                    "time": 1068.4215614999728,
                    "velocity": 0.5826771653543307,
                    "duration": 0.27332350000006045
                },
                {
                    "name": "E4",
                    "midi": 64,
                    "time": 1068.6948849999728,
                    "velocity": 0.5826771653543307,
                    "duration": 0.27332350000006045
                },
                {
                    "name": "D4",
                    "midi": 62,
                    "time": 1068.968208499973,
                    "velocity": 0.5826771653543307,
                    "duration": 0.27332350000006045
                },
                {
                    "name": "C4",
                    "midi": 60,
                    "time": 1069.241531999973,
                    "velocity": 0.7086614173228346,
                    "duration": 0.27332350000006045
                },
                {
                    "name": "D4",
                    "midi": 62,
                    "time": 1069.514855499973,
                    "velocity": 0.5748031496062992,
                    "duration": 0.27332350000006045
                },
                {
                    "name": "E4",
                    "midi": 64,
                    "time": 1069.788178999973,
                    "velocity": 0.5748031496062992,
                    "duration": 0.27332350000006045
                },
                {
                    "name": "F4",
                    "midi": 65,
                    "time": 1070.0615024999731,
                    "velocity": 0.5748031496062992,
                    "duration": 0.27332350000006045
                },
                {
                    "name": "F#4",
                    "midi": 66,
                    "time": 1070.3348259999732,
                    "velocity": 0.6929133858267716,
                    "duration": 0.27332350000006045
                },
                {
                    "name": "G4",
                    "midi": 67,
                    "time": 1070.6081494999733,
                    "velocity": 0.5748031496062992,
                    "duration": 0.27332350000006045
                },
                {
                    "name": "A4",
                    "midi": 69,
                    "time": 1070.8814729999733,
                    "velocity": 0.5748031496062992,
                    "duration": 0.27332350000006045
                },
                {
                    "name": "G4",
                    "midi": 67,
                    "time": 1071.1547964999734,
                    "velocity": 0.5748031496062992,
                    "duration": 0.27332350000006045
                },
                {
                    "name": "F4",
                    "midi": 65,
                    "time": 1071.4281199999734,
                    "velocity": 0.6850393700787402,
                    "duration": 0.27332350000006045
                },
                {
                    "name": "G4",
                    "midi": 67,
                    "time": 1071.7014434999735,
                    "velocity": 0.5905511811023622,
                    "duration": 0.27332350000006045
                },
                {
                    "name": "A4",
                    "midi": 69,
                    "time": 1071.9747669999736,
                    "velocity": 0.5905511811023622,
                    "duration": 0.27332350000006045
                },
                {
                    "name": "A#4",
                    "midi": 70,
                    "time": 1072.2480904999736,
                    "velocity": 0.5905511811023622,
                    "duration": 0.27332350000006045
                },
                {
                    "name": "B4",
                    "midi": 71,
                    "time": 1072.5214139999737,
                    "velocity": 0.7007874015748031,
                    "duration": 0.27332350000006045
                },
                {
                    "name": "C5",
                    "midi": 72,
                    "time": 1072.7947374999737,
                    "velocity": 0.5748031496062992,
                    "duration": 0.27332350000006045
                },
                {
                    "name": "D5",
                    "midi": 74,
                    "time": 1073.0680609999738,
                    "velocity": 0.5748031496062992,
                    "duration": 0.27332350000006045
                },
                {
                    "name": "C5",
                    "midi": 72,
                    "time": 1073.3413844999739,
                    "velocity": 0.5748031496062992,
                    "duration": 0.27332350000006045
                },
                {
                    "name": "D5",
                    "midi": 74,
                    "time": 1073.614707999974,
                    "velocity": 0.7401574803149606,
                    "duration": 0.27332350000006045
                },
                {
                    "name": "D#5",
                    "midi": 75,
                    "time": 1073.614707999974,
                    "velocity": 0.7401574803149606,
                    "duration": 0.5466470000001209
                },
                {
                    "name": "C5",
                    "midi": 72,
                    "time": 1073.888031499974,
                    "velocity": 0.5748031496062992,
                    "duration": 0.27332350000006045
                },
                {
                    "name": "A#4",
                    "midi": 70,
                    "time": 1074.161354999974,
                    "velocity": 0.5748031496062992,
                    "duration": 0.27332350000006045
                },
                {
                    "name": "A4",
                    "midi": 69,
                    "time": 1074.434678499974,
                    "velocity": 0.5748031496062992,
                    "duration": 0.27332350000006045
                },
                {
                    "name": "C4",
                    "midi": 60,
                    "time": 1074.7080019999742,
                    "velocity": 0.6692913385826772,
                    "duration": 0.18221566666670697
                },
                {
                    "name": "D4",
                    "midi": 62,
                    "time": 1074.8902176666409,
                    "velocity": 0.6141732283464567,
                    "duration": 0.18221566666670697
                },
                {
                    "name": "C4",
                    "midi": 60,
                    "time": 1075.0724333333076,
                    "velocity": 0.6692913385826772,
                    "duration": 0.18221566666670697
                },
                {
                    "name": "D4",
                    "midi": 62,
                    "time": 1075.2546489999743,
                    "velocity": 0.6299212598425197,
                    "duration": 0.18221566666670697
                },
                {
                    "name": "C4",
                    "midi": 60,
                    "time": 1075.436864666641,
                    "velocity": 0.6692913385826772,
                    "duration": 0.18221566666670697
                },
                {
                    "name": "D4",
                    "midi": 62,
                    "time": 1075.6190803333077,
                    "velocity": 0.6141732283464567,
                    "duration": 0.18221566666670697
                },
                {
                    "name": "C4",
                    "midi": 60,
                    "time": 1075.8012959999744,
                    "velocity": 0.6692913385826772,
                    "duration": 0.18221566666670697
                },
                {
                    "name": "D4",
                    "midi": 62,
                    "time": 1075.983511666641,
                    "velocity": 0.6299212598425197,
                    "duration": 0.18221566666670697
                },
                {
                    "name": "C4",
                    "midi": 60,
                    "time": 1076.1657273333078,
                    "velocity": 0.6692913385826772,
                    "duration": 0.18221566666670697
                },
                {
                    "name": "D4",
                    "midi": 62,
                    "time": 1076.3479429999745,
                    "velocity": 0.5748031496062992,
                    "duration": 0.18221566666670697
                },
                {
                    "name": "C4",
                    "midi": 60,
                    "time": 1076.5301586666412,
                    "velocity": 0.6456692913385826,
                    "duration": 0.18221566666670697
                },
                {
                    "name": "D4",
                    "midi": 62,
                    "time": 1076.712374333308,
                    "velocity": 0.5748031496062992,
                    "duration": 0.18221566666670697
                },
                {
                    "name": "A#3",
                    "midi": 58,
                    "time": 1076.8945899999746,
                    "velocity": 0.6141732283464567,
                    "duration": 1.0932940000000144
                },
                {
                    "name": "A#3",
                    "midi": 58,
                    "time": 1078.5345309999745,
                    "velocity": 0.5118110236220472,
                    "duration": 0.27332350000006045
                },
                {
                    "name": "C4",
                    "midi": 60,
                    "time": 1078.8078544999746,
                    "velocity": 0.47244094488188976,
                    "duration": 0.27332350000006045
                },
                {
                    "name": "D4",
                    "midi": 62,
                    "time": 1079.0811779999747,
                    "velocity": 0.5354330708661418,
                    "duration": 0.27332350000006045
                },
                {
                    "name": "D#4",
                    "midi": 63,
                    "time": 1079.3545014999747,
                    "velocity": 0.47244094488188976,
                    "duration": 0.27332350000006045
                },
                {
                    "name": "D4",
                    "midi": 62,
                    "time": 1079.6278249999748,
                    "velocity": 0.47244094488188976,
                    "duration": 0.27332350000006045
                },
                {
                    "name": "F4",
                    "midi": 65,
                    "time": 1079.6278249999748,
                    "velocity": 0.47244094488188976,
                    "duration": 0.27332350000006045
                },
                {
                    "name": "C4",
                    "midi": 60,
                    "time": 1079.9011484999749,
                    "velocity": 0.47244094488188976,
                    "duration": 0.27332350000006045
                },
                {
                    "name": "G4",
                    "midi": 67,
                    "time": 1079.9011484999749,
                    "velocity": 0.47244094488188976,
                    "duration": 0.27332350000006045
                },
                {
                    "name": "A#3",
                    "midi": 58,
                    "time": 1080.174471999975,
                    "velocity": 0.47244094488188976,
                    "duration": 0.27332350000006045
                },
                {
                    "name": "D#4",
                    "midi": 63,
                    "time": 1080.174471999975,
                    "velocity": 0.5669291338582677,
                    "duration": 1.0932940000002418
                },
                {
                    "name": "A3",
                    "midi": 57,
                    "time": 1080.447795499975,
                    "velocity": 0.47244094488188976,
                    "duration": 0.27332350000006045
                },
                {
                    "name": "G3",
                    "midi": 55,
                    "time": 1080.721118999975,
                    "velocity": 0.47244094488188976,
                    "duration": 0.27332350000006045
                },
                {
                    "name": "F3",
                    "midi": 53,
                    "time": 1080.994442499975,
                    "velocity": 0.47244094488188976,
                    "duration": 0.27332350000006045
                },
                {
                    "name": "A#3",
                    "midi": 58,
                    "time": 1081.2677659999752,
                    "velocity": 0.5669291338582677,
                    "duration": 1.0932940000000144
                },
                {
                    "name": "D4",
                    "midi": 62,
                    "time": 1081.814412999975,
                    "velocity": 0.5118110236220472,
                    "duration": 0.27332350000006045
                },
                {
                    "name": "D#4",
                    "midi": 63,
                    "time": 1082.087736499975,
                    "velocity": 0.4409448818897638,
                    "duration": 0.27332350000006045
                },
                {
                    "name": "F4",
                    "midi": 65,
                    "time": 1082.3610599999752,
                    "velocity": 0.5196850393700787,
                    "duration": 0.27332350000006045
                },
                {
                    "name": "G4",
                    "midi": 67,
                    "time": 1082.6343834999752,
                    "velocity": 0.47244094488188976,
                    "duration": 0.27332350000006045
                },
                {
                    "name": "A#3",
                    "midi": 58,
                    "time": 1082.9077069999753,
                    "velocity": 0.47244094488188976,
                    "duration": 0.8199705000001813
                },
                {
                    "name": "A4",
                    "midi": 69,
                    "time": 1082.9077069999753,
                    "velocity": 0.47244094488188976,
                    "duration": 0.27332350000006045
                },
                {
                    "name": "A#4",
                    "midi": 70,
                    "time": 1083.1810304999753,
                    "velocity": 0.47244094488188976,
                    "duration": 0.27332350000006045
                },
                {
                    "name": "G4",
                    "midi": 67,
                    "time": 1083.4543539999754,
                    "velocity": 0.5826771653543307,
                    "duration": 1.0932940000002418
                },
                {
                    "name": "B3",
                    "midi": 59,
                    "time": 1083.7276774999755,
                    "velocity": 0.47244094488188976,
                    "duration": 0.27332350000006045
                },
                {
                    "name": "C4",
                    "midi": 60,
                    "time": 1084.0010009999755,
                    "velocity": 0.47244094488188976,
                    "duration": 0.27332350000006045
                },
                {
                    "name": "D4",
                    "midi": 62,
                    "time": 1084.2743244999756,
                    "velocity": 0.47244094488188976,
                    "duration": 0.27332350000006045
                },
                {
                    "name": "D#4",
                    "midi": 63,
                    "time": 1084.5476479999757,
                    "velocity": 0.5669291338582677,
                    "duration": 1.0932940000000144
                },
                {
                    "name": "F4",
                    "midi": 65,
                    "time": 1085.0942949999755,
                    "velocity": 0.5196850393700787,
                    "duration": 0.27332350000006045
                },
                {
                    "name": "G4",
                    "midi": 67,
                    "time": 1085.3676184999756,
                    "velocity": 0.47244094488188976,
                    "duration": 0.27332350000006045
                },
                {
                    "name": "A4",
                    "midi": 69,
                    "time": 1085.6409419999757,
                    "velocity": 0.5590551181102362,
                    "duration": 0.27332350000006045
                },
                {
                    "name": "G4",
                    "midi": 67,
                    "time": 1085.9142654999757,
                    "velocity": 0.4881889763779528,
                    "duration": 0.27332350000006045
                },
                {
                    "name": "D#4",
                    "midi": 63,
                    "time": 1086.1875889999758,
                    "velocity": 0.4330708661417323,
                    "duration": 1.0932940000002418
                },
                {
                    "name": "A4",
                    "midi": 69,
                    "time": 1086.1875889999758,
                    "velocity": 0.4881889763779528,
                    "duration": 0.27332350000006045
                },
                {
                    "name": "A#4",
                    "midi": 70,
                    "time": 1086.4609124999758,
                    "velocity": 0.4881889763779528,
                    "duration": 0.27332350000006045
                },
                {
                    "name": "C5",
                    "midi": 72,
                    "time": 1086.734235999976,
                    "velocity": 0.5669291338582677,
                    "duration": 0.27332350000006045
                },
                {
                    "name": "A#4",
                    "midi": 70,
                    "time": 1087.007559499976,
                    "velocity": 0.5118110236220472,
                    "duration": 0.27332350000006045
                },
                {
                    "name": "E4",
                    "midi": 64,
                    "time": 1087.280882999976,
                    "velocity": 0.4645669291338583,
                    "duration": 1.0932940000002418
                },
                {
                    "name": "C5",
                    "midi": 72,
                    "time": 1087.280882999976,
                    "velocity": 0.5118110236220472,
                    "duration": 0.27332350000006045
                },
                {
                    "name": "D5",
                    "midi": 74,
                    "time": 1087.554206499976,
                    "velocity": 0.5118110236220472,
                    "duration": 0.27332350000006045
                },
                {
                    "name": "D#5",
                    "midi": 75,
                    "time": 1087.8275299999762,
                    "velocity": 0.6141732283464567,
                    "duration": 0.27332350000006045
                },
                {
                    "name": "D5",
                    "midi": 74,
                    "time": 1088.1008534999762,
                    "velocity": 0.5433070866141733,
                    "duration": 0.27332350000006045
                },
                {
                    "name": "F4",
                    "midi": 65,
                    "time": 1088.3741769999763,
                    "velocity": 0.47244094488188976,
                    "duration": 2.1865880000004836
                },
                {
                    "name": "C5",
                    "midi": 72,
                    "time": 1088.3741769999763,
                    "velocity": 0.5669291338582677,
                    "duration": 0.27332350000006045
                },
                {
                    "name": "D5",
                    "midi": 74,
                    "time": 1088.6475004999763,
                    "velocity": 0.5905511811023622,
                    "duration": 0.27332350000006045
                },
                {
                    "name": "D#5",
                    "midi": 75,
                    "time": 1088.9208239999764,
                    "velocity": 0.6771653543307087,
                    "duration": 0.27332350000006045
                },
                {
                    "name": "D5",
                    "midi": 74,
                    "time": 1089.1941474999765,
                    "velocity": 0.5984251968503937,
                    "duration": 0.27332350000006045
                },
                {
                    "name": "C#5",
                    "midi": 73,
                    "time": 1089.4674709999765,
                    "velocity": 0.5748031496062992,
                    "duration": 0.27332350000006045
                },
                {
                    "name": "C5",
                    "midi": 72,
                    "time": 1089.7407944999766,
                    "velocity": 0.5669291338582677,
                    "duration": 0.27332350000006045
                },
                {
                    "name": "A#4",
                    "midi": 70,
                    "time": 1090.0141179999766,
                    "velocity": 0.6062992125984252,
                    "duration": 0.27332350000006045
                },
                {
                    "name": "A4",
                    "midi": 69,
                    "time": 1090.2874414999767,
                    "velocity": 0.5039370078740157,
                    "duration": 0.27332350000006045
                },
                {
                    "name": "D#4",
                    "midi": 63,
                    "time": 1090.5607649999768,
                    "velocity": 0.4251968503937008,
                    "duration": 0.5466470000001209
                },
                {
                    "name": "G4",
                    "midi": 67,
                    "time": 1090.5607649999768,
                    "velocity": 0.49606299212598426,
                    "duration": 0.27332350000006045
                },
                {
                    "name": "A4",
                    "midi": 69,
                    "time": 1090.8340884999768,
                    "velocity": 0.5039370078740157,
                    "duration": 0.27332350000006045
                },
                {
                    "name": "D4",
                    "midi": 62,
                    "time": 1091.1074119999769,
                    "velocity": 0.49606299212598426,
                    "duration": 1.0932940000002418
                },
                {
                    "name": "A#4",
                    "midi": 70,
                    "time": 1091.1074119999769,
                    "velocity": 0.5826771653543307,
                    "duration": 0.27332350000006045
                },
                {
                    "name": "A4",
                    "midi": 69,
                    "time": 1091.380735499977,
                    "velocity": 0.49606299212598426,
                    "duration": 0.27332350000006045
                },
                {
                    "name": "G4",
                    "midi": 67,
                    "time": 1091.654058999977,
                    "velocity": 0.4881889763779528,
                    "duration": 0.27332350000006045
                },
                {
                    "name": "F4",
                    "midi": 65,
                    "time": 1091.927382499977,
                    "velocity": 0.4881889763779528,
                    "duration": 0.5466470000001209
                },
                {
                    "name": "C4",
                    "midi": 60,
                    "time": 1092.2007059999771,
                    "velocity": 0.5118110236220472,
                    "duration": 0.5466470000001209
                },
                {
                    "name": "F#5",
                    "midi": 78,
                    "time": 1092.4740294999772,
                    "velocity": 0.5354330708661418,
                    "duration": 0.27332350000006045
                },
                {
                    "name": "G5",
                    "midi": 79,
                    "time": 1092.7473529999772,
                    "velocity": 0.5826771653543307,
                    "duration": 0.27332350000006045
                },
                {
                    "name": "F5",
                    "midi": 77,
                    "time": 1093.0206764999773,
                    "velocity": 0.5433070866141733,
                    "duration": 0.27332350000006045
                },
                {
                    "name": "D#5",
                    "midi": 75,
                    "time": 1093.2939999999774,
                    "velocity": 0.5590551181102362,
                    "duration": 0.27332350000006045
                },
                {
                    "name": "D5",
                    "midi": 74,
                    "time": 1093.5673234999774,
                    "velocity": 0.5039370078740157,
                    "duration": 0.27332350000006045
                },
                {
                    "name": "C5",
                    "midi": 72,
                    "time": 1093.8406469999775,
                    "velocity": 0.5275590551181102,
                    "duration": 0.27332350000006045
                },
                {
                    "name": "A#4",
                    "midi": 70,
                    "time": 1094.1139704999775,
                    "velocity": 0.5433070866141733,
                    "duration": 0.27332350000006045
                },
                {
                    "name": "A4",
                    "midi": 69,
                    "time": 1094.3872939999776,
                    "velocity": 0.5826771653543307,
                    "duration": 0.27332350000006045
                },
                {
                    "name": "A#4",
                    "midi": 70,
                    "time": 1094.6606174999777,
                    "velocity": 0.5118110236220472,
                    "duration": 0.27332350000006045
                },
                {
                    "name": "A4",
                    "midi": 69,
                    "time": 1094.9339409999777,
                    "velocity": 0.5275590551181102,
                    "duration": 0.27332350000006045
                },
                {
                    "name": "G4",
                    "midi": 67,
                    "time": 1095.2072644999778,
                    "velocity": 0.5354330708661418,
                    "duration": 0.27332350000006045
                },
                {
                    "name": "F4",
                    "midi": 65,
                    "time": 1095.4805879999778,
                    "velocity": 0.6377952755905512,
                    "duration": 0.27332350000006045
                },
                {
                    "name": "G4",
                    "midi": 67,
                    "time": 1095.753911499978,
                    "velocity": 0.5590551181102362,
                    "duration": 0.27332350000006045
                },
                {
                    "name": "A4",
                    "midi": 69,
                    "time": 1096.027234999978,
                    "velocity": 0.5590551181102362,
                    "duration": 0.27332350000006045
                },
                {
                    "name": "A#4",
                    "midi": 70,
                    "time": 1096.300558499978,
                    "velocity": 0.5590551181102362,
                    "duration": 0.27332350000006045
                },
                {
                    "name": "C5",
                    "midi": 72,
                    "time": 1096.573881999978,
                    "velocity": 0.6299212598425197,
                    "duration": 0.27332350000006045
                },
                {
                    "name": "C#5",
                    "midi": 73,
                    "time": 1096.8472054999781,
                    "velocity": 0.5511811023622047,
                    "duration": 0.27332350000006045
                },
                {
                    "name": "D5",
                    "midi": 74,
                    "time": 1097.1205289999782,
                    "velocity": 0.5511811023622047,
                    "duration": 0.27332350000006045
                },
                {
                    "name": "C5",
                    "midi": 72,
                    "time": 1097.3938524999783,
                    "velocity": 0.5511811023622047,
                    "duration": 0.27332350000006045
                },
                {
                    "name": "A#4",
                    "midi": 70,
                    "time": 1097.6671759999783,
                    "velocity": 0.5118110236220472,
                    "duration": 0.5466470000001209
                },
                {
                    "name": "D5",
                    "midi": 74,
                    "time": 1097.6671759999783,
                    "velocity": 0.6377952755905512,
                    "duration": 0.27332350000006045
                },
                {
                    "name": "E5",
                    "midi": 76,
                    "time": 1097.9404994999784,
                    "velocity": 0.5511811023622047,
                    "duration": 0.27332350000006045
                },
                {
                    "name": "F5",
                    "midi": 77,
                    "time": 1098.2138229999784,
                    "velocity": 0.5511811023622047,
                    "duration": 0.27332350000006045
                },
                {
                    "name": "G5",
                    "midi": 79,
                    "time": 1098.4871464999785,
                    "velocity": 0.6377952755905512,
                    "duration": 0.5466469999998935
                },
                {
                    "name": "C5",
                    "midi": 72,
                    "time": 1099.0337934999784,
                    "velocity": 0.5511811023622047,
                    "duration": 0.27332350000006045
                },
                {
                    "name": "D5",
                    "midi": 74,
                    "time": 1099.3071169999785,
                    "velocity": 0.5590551181102362,
                    "duration": 0.27332350000006045
                },
                {
                    "name": "E5",
                    "midi": 76,
                    "time": 1099.5804404999785,
                    "velocity": 0.5669291338582677,
                    "duration": 0.27332350000006045
                },
                {
                    "name": "F5",
                    "midi": 77,
                    "time": 1099.8537639999786,
                    "velocity": 0.5748031496062992,
                    "duration": 0.27332350000006045
                },
                {
                    "name": "G5",
                    "midi": 79,
                    "time": 1100.1270874999786,
                    "velocity": 0.5826771653543307,
                    "duration": 0.27332350000006045
                },
                {
                    "name": "A5",
                    "midi": 81,
                    "time": 1100.4004109999787,
                    "velocity": 0.5905511811023622,
                    "duration": 0.27332350000006045
                },
                {
                    "name": "A#5",
                    "midi": 82,
                    "time": 1100.6737344999788,
                    "velocity": 0.5984251968503937,
                    "duration": 0.27332350000006045
                },
                {
                    "name": "C6",
                    "midi": 84,
                    "time": 1100.9470579999788,
                    "velocity": 0.6062992125984252,
                    "duration": 0.27332350000006045
                },
                {
                    "name": "A5",
                    "midi": 81,
                    "time": 1101.2203814999789,
                    "velocity": 0.5354330708661418,
                    "duration": 0.27332350000006045
                },
                {
                    "name": "G5",
                    "midi": 79,
                    "time": 1101.493704999979,
                    "velocity": 0.5748031496062992,
                    "duration": 0.27332350000006045
                },
                {
                    "name": "F5",
                    "midi": 77,
                    "time": 1101.767028499979,
                    "velocity": 0.5669291338582677,
                    "duration": 0.27332350000006045
                },
                {
                    "name": "D#5",
                    "midi": 75,
                    "time": 1102.040351999979,
                    "velocity": 0.6377952755905512,
                    "duration": 0.27332350000006045
                },
                {
                    "name": "D5",
                    "midi": 74,
                    "time": 1102.3136754999791,
                    "velocity": 0.5590551181102362,
                    "duration": 0.27332350000006045
                },
                {
                    "name": "E5",
                    "midi": 76,
                    "time": 1102.5869989999792,
                    "velocity": 0.5590551181102362,
                    "duration": 0.27332350000006045
                },
                {
                    "name": "F#5",
                    "midi": 78,
                    "time": 1102.8603224999792,
                    "velocity": 0.5590551181102362,
                    "duration": 0.27332350000006045
                },
                {
                    "name": "G5",
                    "midi": 79,
                    "time": 1103.1336459999793,
                    "velocity": 0.6220472440944882,
                    "duration": 0.27332350000006045
                },
                {
                    "name": "A5",
                    "midi": 81,
                    "time": 1103.4069694999794,
                    "velocity": 0.5669291338582677,
                    "duration": 0.27332350000006045
                },
                {
                    "name": "A#5",
                    "midi": 82,
                    "time": 1103.6802929999794,
                    "velocity": 0.6377952755905512,
                    "duration": 0.27332350000006045
                },
                {
                    "name": "C6",
                    "midi": 84,
                    "time": 1103.9536164999795,
                    "velocity": 0.5590551181102362,
                    "duration": 0.27332350000006045
                },
                {
                    "name": "D6",
                    "midi": 86,
                    "time": 1104.2269399999795,
                    "velocity": 0.6692913385826772,
                    "duration": 0.27332350000006045
                },
                {
                    "name": "A#5",
                    "midi": 82,
                    "time": 1104.5002634999796,
                    "velocity": 0.5984251968503937,
                    "duration": 0.27332350000006045
                },
                {
                    "name": "A5",
                    "midi": 81,
                    "time": 1104.7735869999797,
                    "velocity": 0.5984251968503937,
                    "duration": 0.27332350000006045
                },
                {
                    "name": "G5",
                    "midi": 79,
                    "time": 1105.0469104999797,
                    "velocity": 0.5984251968503937,
                    "duration": 0.27332350000006045
                },
                {
                    "name": "F5",
                    "midi": 77,
                    "time": 1105.3202339999798,
                    "velocity": 0.6456692913385826,
                    "duration": 0.27332350000006045
                },
                {
                    "name": "D#5",
                    "midi": 75,
                    "time": 1105.5935574999799,
                    "velocity": 0.5748031496062992,
                    "duration": 0.27332350000006045
                },
                {
                    "name": "F5",
                    "midi": 77,
                    "time": 1105.86688099998,
                    "velocity": 0.5984251968503937,
                    "duration": 0.27332350000006045
                },
                {
                    "name": "G5",
                    "midi": 79,
                    "time": 1106.14020449998,
                    "velocity": 0.6220472440944882,
                    "duration": 0.27332350000006045
                },
                {
                    "name": "A5",
                    "midi": 81,
                    "time": 1106.41352799998,
                    "velocity": 0.6456692913385826,
                    "duration": 0.27332350000006045
                },
                {
                    "name": "A#5",
                    "midi": 82,
                    "time": 1106.68685149998,
                    "velocity": 0.6614173228346457,
                    "duration": 0.27332350000006045
                },
                {
                    "name": "C6",
                    "midi": 84,
                    "time": 1106.9601749999802,
                    "velocity": 0.6850393700787402,
                    "duration": 0.27332350000006045
                },
                {
                    "name": "D6",
                    "midi": 86,
                    "time": 1107.2334984999802,
                    "velocity": 0.7086614173228346,
                    "duration": 0.27332350000006045
                },
                {
                    "name": "D#6",
                    "midi": 87,
                    "time": 1107.5068219999803,
                    "velocity": 0.7322834645669292,
                    "duration": 0.5466469999998935
                },
                {
                    "name": "A4",
                    "midi": 69,
                    "time": 1108.60011599998,
                    "velocity": 0.5433070866141733,
                    "duration": 1.0932940000002418
                },
                {
                    "name": "C5",
                    "midi": 72,
                    "time": 1108.60011599998,
                    "velocity": 0.5826771653543307,
                    "duration": 0.18221566666670697
                },
                {
                    "name": "D5",
                    "midi": 74,
                    "time": 1108.7823316666468,
                    "velocity": 0.5511811023622047,
                    "duration": 0.18221566666670697
                },
                {
                    "name": "C5",
                    "midi": 72,
                    "time": 1108.9645473333135,
                    "velocity": 0.5826771653543307,
                    "duration": 0.18221566666670697
                },
                {
                    "name": "D5",
                    "midi": 74,
                    "time": 1109.1467629999802,
                    "velocity": 0.5511811023622047,
                    "duration": 0.18221566666670697
                },
                {
                    "name": "C5",
                    "midi": 72,
                    "time": 1109.328978666647,
                    "velocity": 0.5826771653543307,
                    "duration": 0.18221566666670697
                },
                {
                    "name": "D5",
                    "midi": 74,
                    "time": 1109.5111943333136,
                    "velocity": 0.5511811023622047,
                    "duration": 0.18221566666670697
                },
                {
                    "name": "D#4",
                    "midi": 63,
                    "time": 1109.6934099999803,
                    "velocity": 0.5433070866141733,
                    "duration": 1.0932940000002418
                },
                {
                    "name": "C5",
                    "midi": 72,
                    "time": 1109.6934099999803,
                    "velocity": 0.5826771653543307,
                    "duration": 0.18221566666670697
                },
                {
                    "name": "D5",
                    "midi": 74,
                    "time": 1109.875625666647,
                    "velocity": 0.5433070866141733,
                    "duration": 0.18221566666670697
                },
                {
                    "name": "C5",
                    "midi": 72,
                    "time": 1110.0578413333137,
                    "velocity": 0.5826771653543307,
                    "duration": 0.18221566666670697
                },
                {
                    "name": "D5",
                    "midi": 74,
                    "time": 1110.2400569999804,
                    "velocity": 0.5511811023622047,
                    "duration": 0.13666175000003022
                },
                {
                    "name": "C5",
                    "midi": 72,
                    "time": 1110.3767187499805,
                    "velocity": 0.5826771653543307,
                    "duration": 0.13666175000003022
                },
                {
                    "name": "A#4",
                    "midi": 70,
                    "time": 1110.5133804999805,
                    "velocity": 0.5354330708661418,
                    "duration": 0.13666175000003022
                },
                {
                    "name": "C5",
                    "midi": 72,
                    "time": 1110.6500422499805,
                    "velocity": 0.5354330708661418,
                    "duration": 0.13666175000003022
                },
                {
                    "name": "D4",
                    "midi": 62,
                    "time": 1110.7867039999805,
                    "velocity": 0.5433070866141733,
                    "duration": 0.5466469999998935
                },
                {
                    "name": "A#4",
                    "midi": 70,
                    "time": 1110.7867039999805,
                    "velocity": 0.6377952755905512,
                    "duration": 1.093293999999787
                },
                {
                    "name": "C#4",
                    "midi": 61,
                    "time": 1111.3333509999804,
                    "velocity": 0.5433070866141733,
                    "duration": 0.5466469999998935
                },
                {
                    "name": "G4",
                    "midi": 67,
                    "time": 1111.8799979999803,
                    "velocity": 0.5433070866141733,
                    "duration": 1.0932940000002418
                },
                {
                    "name": "A#4",
                    "midi": 70,
                    "time": 1111.8799979999803,
                    "velocity": 0.5826771653543307,
                    "duration": 0.18221566666670697
                },
                {
                    "name": "C5",
                    "midi": 72,
                    "time": 1112.062213666647,
                    "velocity": 0.5511811023622047,
                    "duration": 0.18221566666670697
                },
                {
                    "name": "A#4",
                    "midi": 70,
                    "time": 1112.2444293333137,
                    "velocity": 0.5826771653543307,
                    "duration": 0.18221566666670697
                },
                {
                    "name": "C5",
                    "midi": 72,
                    "time": 1112.4266449999805,
                    "velocity": 0.5511811023622047,
                    "duration": 0.18221566666670697
                },
                {
                    "name": "A#4",
                    "midi": 70,
                    "time": 1112.6088606666472,
                    "velocity": 0.5826771653543307,
                    "duration": 0.18221566666670697
                },
                {
                    "name": "C5",
                    "midi": 72,
                    "time": 1112.7910763333139,
                    "velocity": 0.5511811023622047,
                    "duration": 0.18221566666670697
                },
                {
                    "name": "C#4",
                    "midi": 61,
                    "time": 1112.9732919999806,
                    "velocity": 0.5433070866141733,
                    "duration": 1.0932940000002418
                },
                {
                    "name": "A#4",
                    "midi": 70,
                    "time": 1112.9732919999806,
                    "velocity": 0.5826771653543307,
                    "duration": 0.18221566666670697
                },
                {
                    "name": "C5",
                    "midi": 72,
                    "time": 1113.1555076666473,
                    "velocity": 0.5433070866141733,
                    "duration": 0.18221566666670697
                },
                {
                    "name": "A#4",
                    "midi": 70,
                    "time": 1113.337723333314,
                    "velocity": 0.5826771653543307,
                    "duration": 0.18221566666670697
                },
                {
                    "name": "C5",
                    "midi": 72,
                    "time": 1113.5199389999807,
                    "velocity": 0.5511811023622047,
                    "duration": 0.13666175000003022
                },
                {
                    "name": "A#4",
                    "midi": 70,
                    "time": 1113.6566007499807,
                    "velocity": 0.5826771653543307,
                    "duration": 0.13666175000003022
                },
                {
                    "name": "A4",
                    "midi": 69,
                    "time": 1113.7932624999808,
                    "velocity": 0.5354330708661418,
                    "duration": 0.13666175000003022
                },
                {
                    "name": "A#4",
                    "midi": 70,
                    "time": 1113.9299242499808,
                    "velocity": 0.5354330708661418,
                    "duration": 0.13666175000003022
                },
                {
                    "name": "C4",
                    "midi": 60,
                    "time": 1114.0665859999808,
                    "velocity": 0.5433070866141733,
                    "duration": 0.5466469999998935
                },
                {
                    "name": "A4",
                    "midi": 69,
                    "time": 1114.0665859999808,
                    "velocity": 0.6377952755905512,
                    "duration": 0.5466469999998935
                },
                {
                    "name": "G#4",
                    "midi": 68,
                    "time": 1114.6132329999807,
                    "velocity": 0.5275590551181102,
                    "duration": 0.5466469999998935
                },
                {
                    "name": "B3",
                    "midi": 59,
                    "time": 1114.6132329999807,
                    "velocity": 0.4881889763779528,
                    "duration": 0.5466469999998935
                },
                {
                    "name": "F4",
                    "midi": 65,
                    "time": 1115.1598799999806,
                    "velocity": 0.5433070866141733,
                    "duration": 1.0932940000002418
                },
                {
                    "name": "G#4",
                    "midi": 68,
                    "time": 1115.1598799999806,
                    "velocity": 0.5826771653543307,
                    "duration": 0.18221566666670697
                },
                {
                    "name": "A#4",
                    "midi": 70,
                    "time": 1115.3420956666473,
                    "velocity": 0.5511811023622047,
                    "duration": 0.18221566666670697
                },
                {
                    "name": "G#4",
                    "midi": 68,
                    "time": 1115.524311333314,
                    "velocity": 0.5826771653543307,
                    "duration": 0.18221566666670697
                },
                {
                    "name": "A#4",
                    "midi": 70,
                    "time": 1115.7065269999807,
                    "velocity": 0.5511811023622047,
                    "duration": 0.18221566666670697
                },
                {
                    "name": "G#4",
                    "midi": 68,
                    "time": 1115.8887426666474,
                    "velocity": 0.5826771653543307,
                    "duration": 0.18221566666670697
                },
                {
                    "name": "A#4",
                    "midi": 70,
                    "time": 1116.0709583333141,
                    "velocity": 0.5511811023622047,
                    "duration": 0.18221566666670697
                },
                {
                    "name": "B3",
                    "midi": 59,
                    "time": 1116.2531739999808,
                    "velocity": 0.5433070866141733,
                    "duration": 1.0932940000002418
                },
                {
                    "name": "G#4",
                    "midi": 68,
                    "time": 1116.2531739999808,
                    "velocity": 0.5826771653543307,
                    "duration": 0.18221566666670697
                },
                {
                    "name": "A#4",
                    "midi": 70,
                    "time": 1116.4353896666476,
                    "velocity": 0.5433070866141733,
                    "duration": 0.18221566666670697
                },
                {
                    "name": "G#4",
                    "midi": 68,
                    "time": 1116.6176053333143,
                    "velocity": 0.5826771653543307,
                    "duration": 0.18221566666670697
                },
                {
                    "name": "A#4",
                    "midi": 70,
                    "time": 1116.799820999981,
                    "velocity": 0.5511811023622047,
                    "duration": 0.13666175000003022
                },
                {
                    "name": "G#4",
                    "midi": 68,
                    "time": 1116.936482749981,
                    "velocity": 0.5826771653543307,
                    "duration": 0.13666175000003022
                },
                {
                    "name": "G4",
                    "midi": 67,
                    "time": 1117.073144499981,
                    "velocity": 0.5354330708661418,
                    "duration": 0.13666175000003022
                },
                {
                    "name": "G#4",
                    "midi": 68,
                    "time": 1117.209806249981,
                    "velocity": 0.5354330708661418,
                    "duration": 0.13666175000003022
                },
                {
                    "name": "A#3",
                    "midi": 58,
                    "time": 1117.346467999981,
                    "velocity": 0.5433070866141733,
                    "duration": 0.5466469999998935
                },
                {
                    "name": "G4",
                    "midi": 67,
                    "time": 1117.346467999981,
                    "velocity": 0.6377952755905512,
                    "duration": 1.093293999999787
                },
                {
                    "name": "E4",
                    "midi": 64,
                    "time": 1117.893114999981,
                    "velocity": 0.4881889763779528,
                    "duration": 0.5466469999998935
                },
                {
                    "name": "G4",
                    "midi": 67,
                    "time": 1120.0797029999808,
                    "velocity": 0.4881889763779528,
                    "duration": 0.5466469999998935
                },
                {
                    "name": "E4",
                    "midi": 64,
                    "time": 1120.6263499999807,
                    "velocity": 0.5433070866141733,
                    "duration": 0.5466469999998935
                },
                {
                    "name": "F4",
                    "midi": 65,
                    "time": 1121.1729969999806,
                    "velocity": 0.48031496062992124,
                    "duration": 0.5466469999998935
                },
                {
                    "name": "A4",
                    "midi": 69,
                    "time": 1123.3595849999804,
                    "velocity": 0.4881889763779528,
                    "duration": 0.5466469999998935
                },
                {
                    "name": "F#4",
                    "midi": 66,
                    "time": 1123.9062319999803,
                    "velocity": 0.5433070866141733,
                    "duration": 0.5466469999998935
                },
                {
                    "name": "G4",
                    "midi": 67,
                    "time": 1124.4528789999802,
                    "velocity": 0.48031496062992124,
                    "duration": 0.5466469999998935
                },
                {
                    "name": "A#4",
                    "midi": 70,
                    "time": 1126.63946699998,
                    "velocity": 0.4881889763779528,
                    "duration": 0.5466469999998935
                },
                {
                    "name": "G4",
                    "midi": 67,
                    "time": 1127.1861139999799,
                    "velocity": 0.5433070866141733,
                    "duration": 0.5466469999998935
                },
                {
                    "name": "A4",
                    "midi": 69,
                    "time": 1127.7327609999797,
                    "velocity": 0.48031496062992124,
                    "duration": 0.5466469999998935
                },
                {
                    "name": "A4",
                    "midi": 69,
                    "time": 1128.2794079999796,
                    "velocity": 0.4330708661417323,
                    "duration": 0.27332350000006045
                },
                {
                    "name": "C5",
                    "midi": 72,
                    "time": 1128.2794079999796,
                    "velocity": 0.48031496062992124,
                    "duration": 0.5466470000001209
                },
                {
                    "name": "F4",
                    "midi": 65,
                    "time": 1128.5527314999797,
                    "velocity": 0.3858267716535433,
                    "duration": 0.27332350000006045
                },
                {
                    "name": "G4",
                    "midi": 67,
                    "time": 1128.8260549999798,
                    "velocity": 0.4330708661417323,
                    "duration": 0.27332350000006045
                },
                {
                    "name": "F5",
                    "midi": 77,
                    "time": 1128.8260549999798,
                    "velocity": 0.5196850393700787,
                    "duration": 1.0932940000002418
                },
                {
                    "name": "A4",
                    "midi": 69,
                    "time": 1129.0993784999798,
                    "velocity": 0.3937007874015748,
                    "duration": 0.27332350000006045
                },
                {
                    "name": "A#4",
                    "midi": 70,
                    "time": 1129.3727019999799,
                    "velocity": 0.4330708661417323,
                    "duration": 0.27332350000006045
                },
                {
                    "name": "A4",
                    "midi": 69,
                    "time": 1129.64602549998,
                    "velocity": 0.3779527559055118,
                    "duration": 0.27332350000006045
                },
                {
                    "name": "A#4",
                    "midi": 70,
                    "time": 1129.91934899998,
                    "velocity": 0.4330708661417323,
                    "duration": 0.27332350000006045
                },
                {
                    "name": "D5",
                    "midi": 74,
                    "time": 1129.91934899998,
                    "velocity": 0.48031496062992124,
                    "duration": 0.5466470000001209
                },
                {
                    "name": "F4",
                    "midi": 65,
                    "time": 1130.19267249998,
                    "velocity": 0.33858267716535434,
                    "duration": 0.27332350000006045
                },
                {
                    "name": "G4",
                    "midi": 67,
                    "time": 1130.4659959999801,
                    "velocity": 0.4330708661417323,
                    "duration": 0.27332350000006045
                },
                {
                    "name": "C5",
                    "midi": 72,
                    "time": 1130.4659959999801,
                    "velocity": 0.48031496062992124,
                    "duration": 0.5466470000001209
                },
                {
                    "name": "F#4",
                    "midi": 66,
                    "time": 1130.7393194999802,
                    "velocity": 0.3779527559055118,
                    "duration": 0.27332350000006045
                },
                {
                    "name": "G4",
                    "midi": 67,
                    "time": 1131.0126429999802,
                    "velocity": 0.4330708661417323,
                    "duration": 0.27332350000006045
                },
                {
                    "name": "A#4",
                    "midi": 70,
                    "time": 1131.0126429999802,
                    "velocity": 0.44881889763779526,
                    "duration": 0.5466470000001209
                },
                {
                    "name": "C4",
                    "midi": 60,
                    "time": 1131.2859664999803,
                    "velocity": 0.3858267716535433,
                    "duration": 0.5466470000001209
                },
                {
                    "name": "A4",
                    "midi": 69,
                    "time": 1131.5592899999804,
                    "velocity": 0.48031496062992124,
                    "duration": 0.5466470000001209
                },
                {
                    "name": "G#4",
                    "midi": 68,
                    "time": 1132.1059369999805,
                    "velocity": 0.4566929133858268,
                    "duration": 0.5466469999998935
                },
                {
                    "name": "G4",
                    "midi": 67,
                    "time": 1132.6525839999804,
                    "velocity": 0.3858267716535433,
                    "duration": 0.27332350000006045
                },
                {
                    "name": "G5",
                    "midi": 79,
                    "time": 1132.6525839999804,
                    "velocity": 0.5748031496062992,
                    "duration": 1.6399410000003627
                },
                {
                    "name": "A4",
                    "midi": 69,
                    "time": 1132.9259074999804,
                    "velocity": 0.4645669291338583,
                    "duration": 0.27332350000006045
                },
                {
                    "name": "B4",
                    "midi": 71,
                    "time": 1133.1992309999805,
                    "velocity": 0.44881889763779526,
                    "duration": 0.27332350000006045
                },
                {
                    "name": "C5",
                    "midi": 72,
                    "time": 1133.4725544999806,
                    "velocity": 0.4330708661417323,
                    "duration": 0.27332350000006045
                },
                {
                    "name": "C#5",
                    "midi": 73,
                    "time": 1133.7458779999806,
                    "velocity": 0.41732283464566927,
                    "duration": 0.27332350000006045
                },
                {
                    "name": "D5",
                    "midi": 74,
                    "time": 1134.0192014999807,
                    "velocity": 0.4015748031496063,
                    "duration": 0.27332350000006045
                },
                {
                    "name": "D#5",
                    "midi": 75,
                    "time": 1134.2925249999807,
                    "velocity": 0.4645669291338583,
                    "duration": 0.27332350000006045
                },
                {
                    "name": "F5",
                    "midi": 77,
                    "time": 1134.2925249999807,
                    "velocity": 0.4645669291338583,
                    "duration": 0.5466470000001209
                },
                {
                    "name": "D5",
                    "midi": 74,
                    "time": 1134.5658484999808,
                    "velocity": 0.3228346456692913,
                    "duration": 0.27332350000006045
                },
                {
                    "name": "F5",
                    "midi": 77,
                    "time": 1134.8391719999809,
                    "velocity": 0.4094488188976378,
                    "duration": 0.5466469999998935
                },
                {
                    "name": "D#5",
                    "midi": 75,
                    "time": 1135.3858189999808,
                    "velocity": 0.3700787401574803,
                    "duration": 0.5466469999998935
                },
                {
                    "name": "F#4",
                    "midi": 66,
                    "time": 1135.9324659999806,
                    "velocity": 0.3543307086614173,
                    "duration": 0.27332350000006045
                },
                {
                    "name": "D5",
                    "midi": 74,
                    "time": 1135.9324659999806,
                    "velocity": 0.4094488188976378,
                    "duration": 0.5466470000001209
                },
                {
                    "name": "G4",
                    "midi": 67,
                    "time": 1136.2057894999807,
                    "velocity": 0.3228346456692913,
                    "duration": 0.27332350000006045
                },
                {
                    "name": "G#4",
                    "midi": 68,
                    "time": 1136.4791129999808,
                    "velocity": 0.3543307086614173,
                    "duration": 0.27332350000006045
                },
                {
                    "name": "C5",
                    "midi": 72,
                    "time": 1136.4791129999808,
                    "velocity": 0.3700787401574803,
                    "duration": 0.5466470000001209
                },
                {
                    "name": "G4",
                    "midi": 67,
                    "time": 1136.7524364999808,
                    "velocity": 0.3228346456692913,
                    "duration": 0.27332350000006045
                },
                {
                    "name": "B4",
                    "midi": 71,
                    "time": 1137.025759999981,
                    "velocity": 0.4094488188976378,
                    "duration": 0.5466469999998935
                },
                {
                    "name": "C5",
                    "midi": 72,
                    "time": 1137.5724069999808,
                    "velocity": 0.36220472440944884,
                    "duration": 0.5466469999998935
                },
                {
                    "name": "A4",
                    "midi": 69,
                    "time": 1138.1190539999807,
                    "velocity": 0.44881889763779526,
                    "duration": 0.27332350000006045
                },
                {
                    "name": "F5",
                    "midi": 77,
                    "time": 1138.1190539999807,
                    "velocity": 0.44881889763779526,
                    "duration": 0.5466470000001209
                },
                {
                    "name": "A#4",
                    "midi": 70,
                    "time": 1138.3923774999807,
                    "velocity": 0.3937007874015748,
                    "duration": 0.27332350000006045
                },
                {
                    "name": "A4",
                    "midi": 69,
                    "time": 1138.6657009999808,
                    "velocity": 0.4330708661417323,
                    "duration": 0.27332350000006045
                },
                {
                    "name": "G4",
                    "midi": 67,
                    "time": 1138.9390244999809,
                    "velocity": 0.3858267716535433,
                    "duration": 0.27332350000006045
                },
                {
                    "name": "F4",
                    "midi": 65,
                    "time": 1139.212347999981,
                    "velocity": 0.4566929133858268,
                    "duration": 0.27332350000006045
                },
                {
                    "name": "D#5",
                    "midi": 75,
                    "time": 1139.212347999981,
                    "velocity": 0.5354330708661418,
                    "duration": 1.6399410000003627
                },
                {
                    "name": "G4",
                    "midi": 67,
                    "time": 1139.485671499981,
                    "velocity": 0.4330708661417323,
                    "duration": 0.27332350000006045
                },
                {
                    "name": "A4",
                    "midi": 69,
                    "time": 1139.758994999981,
                    "velocity": 0.4251968503937008,
                    "duration": 0.27332350000006045
                },
                {
                    "name": "A#4",
                    "midi": 70,
                    "time": 1140.032318499981,
                    "velocity": 0.4094488188976378,
                    "duration": 0.27332350000006045
                },
                {
                    "name": "B4",
                    "midi": 71,
                    "time": 1140.3056419999812,
                    "velocity": 0.3937007874015748,
                    "duration": 0.27332350000006045
                },
                {
                    "name": "C5",
                    "midi": 72,
                    "time": 1140.5789654999812,
                    "velocity": 0.3858267716535433,
                    "duration": 0.27332350000006045
                },
                {
                    "name": "D5",
                    "midi": 74,
                    "time": 1140.8522889999813,
                    "velocity": 0.4645669291338583,
                    "duration": 0.27332350000006045
                },
                {
                    "name": "D#5",
                    "midi": 75,
                    "time": 1140.8522889999813,
                    "velocity": 0.4645669291338583,
                    "duration": 0.5466470000001209
                },
                {
                    "name": "C5",
                    "midi": 72,
                    "time": 1141.1256124999813,
                    "velocity": 0.3228346456692913,
                    "duration": 0.27332350000006045
                },
                {
                    "name": "D#5",
                    "midi": 75,
                    "time": 1141.3989359999814,
                    "velocity": 0.4094488188976378,
                    "duration": 0.5466469999998935
                },
                {
                    "name": "D5",
                    "midi": 74,
                    "time": 1141.9455829999813,
                    "velocity": 0.3700787401574803,
                    "duration": 0.5466469999998935
                },
                {
                    "name": "E4",
                    "midi": 64,
                    "time": 1142.4922299999812,
                    "velocity": 0.3543307086614173,
                    "duration": 0.27332350000006045
                },
                {
                    "name": "C5",
                    "midi": 72,
                    "time": 1142.4922299999812,
                    "velocity": 0.4094488188976378,
                    "duration": 0.5466470000001209
                },
                {
                    "name": "F4",
                    "midi": 65,
                    "time": 1142.7655534999813,
                    "velocity": 0.3228346456692913,
                    "duration": 0.27332350000006045
                },
                {
                    "name": "G4",
                    "midi": 67,
                    "time": 1143.0388769999813,
                    "velocity": 0.3543307086614173,
                    "duration": 0.27332350000006045
                },
                {
                    "name": "A#4",
                    "midi": 70,
                    "time": 1143.0388769999813,
                    "velocity": 0.3700787401574803,
                    "duration": 0.5466470000001209
                },
                {
                    "name": "F4",
                    "midi": 65,
                    "time": 1143.3122004999814,
                    "velocity": 0.3228346456692913,
                    "duration": 0.27332350000006045
                },
                {
                    "name": "A4",
                    "midi": 69,
                    "time": 1143.5855239999814,
                    "velocity": 0.4094488188976378,
                    "duration": 0.5466469999998935
                },
                {
                    "name": "A#4",
                    "midi": 70,
                    "time": 1144.1321709999813,
                    "velocity": 0.36220472440944884,
                    "duration": 0.5466469999998935
                },
                {
                    "name": "B3",
                    "midi": 59,
                    "time": 1144.6788179999812,
                    "velocity": 0.5039370078740157,
                    "duration": 0.27332350000006045
                },
                {
                    "name": "C4",
                    "midi": 60,
                    "time": 1144.9521414999813,
                    "velocity": 0.44881889763779526,
                    "duration": 0.27332350000006045
                },
                {
                    "name": "B3",
                    "midi": 59,
                    "time": 1145.2254649999813,
                    "velocity": 0.44881889763779526,
                    "duration": 0.27332350000006045
                },
                {
                    "name": "A3",
                    "midi": 57,
                    "time": 1145.4987884999814,
                    "velocity": 0.44881889763779526,
                    "duration": 0.27332350000006045
                },
                {
                    "name": "G3",
                    "midi": 55,
                    "time": 1145.7721119999815,
                    "velocity": 0.5118110236220472,
                    "duration": 0.27332350000006045
                },
                {
                    "name": "A3",
                    "midi": 57,
                    "time": 1146.0454354999815,
                    "velocity": 0.4566929133858268,
                    "duration": 0.27332350000006045
                },
                {
                    "name": "B3",
                    "midi": 59,
                    "time": 1146.3187589999816,
                    "velocity": 0.4645669291338583,
                    "duration": 0.27332350000006045
                },
                {
                    "name": "C4",
                    "midi": 60,
                    "time": 1146.5920824999816,
                    "velocity": 0.4645669291338583,
                    "duration": 0.27332350000006045
                },
                {
                    "name": "C#4",
                    "midi": 61,
                    "time": 1146.8654059999817,
                    "velocity": 0.5118110236220472,
                    "duration": 0.27332350000006045
                },
                {
                    "name": "D4",
                    "midi": 62,
                    "time": 1147.1387294999818,
                    "velocity": 0.4566929133858268,
                    "duration": 0.27332350000006045
                },
                {
                    "name": "D#4",
                    "midi": 63,
                    "time": 1147.4120529999818,
                    "velocity": 0.4566929133858268,
                    "duration": 0.27332350000006045
                },
                {
                    "name": "D4",
                    "midi": 62,
                    "time": 1147.6853764999819,
                    "velocity": 0.4566929133858268,
                    "duration": 0.27332350000006045
                },
                {
                    "name": "C5",
                    "midi": 72,
                    "time": 1147.958699999982,
                    "velocity": 0.44881889763779526,
                    "duration": 0.5466470000001209
                },
                {
                    "name": "C4",
                    "midi": 60,
                    "time": 1147.958699999982,
                    "velocity": 0.5039370078740157,
                    "duration": 0.27332350000006045
                },
                {
                    "name": "D4",
                    "midi": 62,
                    "time": 1148.232023499982,
                    "velocity": 0.44881889763779526,
                    "duration": 0.27332350000006045
                },
                {
                    "name": "E4",
                    "midi": 64,
                    "time": 1148.505346999982,
                    "velocity": 0.44881889763779526,
                    "duration": 0.27332350000006045
                },
                {
                    "name": "F4",
                    "midi": 65,
                    "time": 1148.7786704999821,
                    "velocity": 0.44881889763779526,
                    "duration": 0.27332350000006045
                },
                {
                    "name": "A#4",
                    "midi": 70,
                    "time": 1149.0519939999822,
                    "velocity": 0.5354330708661418,
                    "duration": 1.6399410000003627
                },
                {
                    "name": "F#4",
                    "midi": 66,
                    "time": 1149.0519939999822,
                    "velocity": 0.5039370078740157,
                    "duration": 0.27332350000006045
                },
                {
                    "name": "G4",
                    "midi": 67,
                    "time": 1149.3253174999822,
                    "velocity": 0.44881889763779526,
                    "duration": 0.27332350000006045
                },
                {
                    "name": "G#4",
                    "midi": 68,
                    "time": 1149.5986409999823,
                    "velocity": 0.44881889763779526,
                    "duration": 0.27332350000006045
                },
                {
                    "name": "G4",
                    "midi": 67,
                    "time": 1149.8719644999824,
                    "velocity": 0.44881889763779526,
                    "duration": 0.27332350000006045
                },
                {
                    "name": "F4",
                    "midi": 65,
                    "time": 1150.1452879999824,
                    "velocity": 0.49606299212598426,
                    "duration": 0.27332350000006045
                },
                {
                    "name": "E4",
                    "midi": 64,
                    "time": 1150.4186114999825,
                    "velocity": 0.4409448818897638,
                    "duration": 0.27332350000006045
                },
                {
                    "name": "A#4",
                    "midi": 70,
                    "time": 1150.6919349999825,
                    "velocity": 0.4645669291338583,
                    "duration": 0.5466470000001209
                },
                {
                    "name": "C#4",
                    "midi": 61,
                    "time": 1150.6919349999825,
                    "velocity": 0.4409448818897638,
                    "duration": 0.27332350000006045
                },
                {
                    "name": "C4",
                    "midi": 60,
                    "time": 1150.9652584999826,
                    "velocity": 0.4409448818897638,
                    "duration": 0.27332350000006045
                },
                {
                    "name": "A4",
                    "midi": 69,
                    "time": 1151.2385819999827,
                    "velocity": 0.5039370078740157,
                    "duration": 0.27332350000006045
                },
                {
                    "name": "A#4",
                    "midi": 70,
                    "time": 1151.5119054999827,
                    "velocity": 0.44881889763779526,
                    "duration": 0.27332350000006045
                },
                {
                    "name": "A4",
                    "midi": 69,
                    "time": 1151.7852289999828,
                    "velocity": 0.44881889763779526,
                    "duration": 0.27332350000006045
                },
                {
                    "name": "G4",
                    "midi": 67,
                    "time": 1152.0585524999829,
                    "velocity": 0.44881889763779526,
                    "duration": 0.27332350000006045
                },
                {
                    "name": "F4",
                    "midi": 65,
                    "time": 1152.331875999983,
                    "velocity": 0.5118110236220472,
                    "duration": 0.27332350000006045
                },
                {
                    "name": "G4",
                    "midi": 67,
                    "time": 1152.605199499983,
                    "velocity": 0.4566929133858268,
                    "duration": 0.27332350000006045
                },
                {
                    "name": "A4",
                    "midi": 69,
                    "time": 1152.878522999983,
                    "velocity": 0.4645669291338583,
                    "duration": 0.27332350000006045
                },
                {
                    "name": "A#4",
                    "midi": 70,
                    "time": 1153.151846499983,
                    "velocity": 0.4645669291338583,
                    "duration": 0.27332350000006045
                },
                {
                    "name": "B4",
                    "midi": 71,
                    "time": 1153.4251699999832,
                    "velocity": 0.5118110236220472,
                    "duration": 0.27332350000006045
                },
                {
                    "name": "C5",
                    "midi": 72,
                    "time": 1153.6984934999832,
                    "velocity": 0.4566929133858268,
                    "duration": 0.27332350000006045
                },
                {
                    "name": "D5",
                    "midi": 74,
                    "time": 1153.9718169999833,
                    "velocity": 0.4566929133858268,
                    "duration": 0.27332350000006045
                },
                {
                    "name": "C5",
                    "midi": 72,
                    "time": 1154.2451404999833,
                    "velocity": 0.4566929133858268,
                    "duration": 0.27332350000006045
                },
                {
                    "name": "A#4",
                    "midi": 70,
                    "time": 1154.5184639999834,
                    "velocity": 0.5039370078740157,
                    "duration": 0.27332350000006045
                },
                {
                    "name": "C5",
                    "midi": 72,
                    "time": 1154.7917874999835,
                    "velocity": 0.44881889763779526,
                    "duration": 0.27332350000006045
                },
                {
                    "name": "D5",
                    "midi": 74,
                    "time": 1155.0651109999835,
                    "velocity": 0.44881889763779526,
                    "duration": 0.27332350000006045
                },
                {
                    "name": "D#5",
                    "midi": 75,
                    "time": 1155.3384344999836,
                    "velocity": 0.44881889763779526,
                    "duration": 0.27332350000006045
                },
                {
                    "name": "E5",
                    "midi": 76,
                    "time": 1155.6117579999836,
                    "velocity": 0.5039370078740157,
                    "duration": 0.27332350000006045
                },
                {
                    "name": "F5",
                    "midi": 77,
                    "time": 1155.8850814999837,
                    "velocity": 0.44881889763779526,
                    "duration": 0.27332350000006045
                },
                {
                    "name": "G5",
                    "midi": 79,
                    "time": 1156.1584049999838,
                    "velocity": 0.44881889763779526,
                    "duration": 0.27332350000006045
                },
                {
                    "name": "F5",
                    "midi": 77,
                    "time": 1156.4317284999838,
                    "velocity": 0.44881889763779526,
                    "duration": 0.27332350000006045
                },
                {
                    "name": "G4",
                    "midi": 67,
                    "time": 1156.7050519999839,
                    "velocity": 0.5196850393700787,
                    "duration": 0.5466470000001209
                },
                {
                    "name": "B4",
                    "midi": 71,
                    "time": 1156.7050519999839,
                    "velocity": 0.49606299212598426,
                    "duration": 0.27332350000006045
                },
                {
                    "name": "D5",
                    "midi": 74,
                    "time": 1156.978375499984,
                    "velocity": 0.4409448818897638,
                    "duration": 0.27332350000006045
                },
                {
                    "name": "F4",
                    "midi": 65,
                    "time": 1157.251698999984,
                    "velocity": 0.4409448818897638,
                    "duration": 0.4099852500000907
                },
                {
                    "name": "D#5",
                    "midi": 75,
                    "time": 1157.251698999984,
                    "velocity": 0.4409448818897638,
                    "duration": 0.27332350000006045
                },
                {
                    "name": "F5",
                    "midi": 77,
                    "time": 1157.525022499984,
                    "velocity": 0.4409448818897638,
                    "duration": 0.27332350000006045
                },
                {
                    "name": "F4",
                    "midi": 65,
                    "time": 1157.7983459999841,
                    "velocity": 0.5354330708661418,
                    "duration": 0.5466470000001209
                },
                {
                    "name": "B4",
                    "midi": 71,
                    "time": 1157.7983459999841,
                    "velocity": 0.5039370078740157,
                    "duration": 0.27332350000006045
                },
                {
                    "name": "C5",
                    "midi": 72,
                    "time": 1158.0716694999842,
                    "velocity": 0.44881889763779526,
                    "duration": 0.27332350000006045
                },
                {
                    "name": "D#4",
                    "midi": 63,
                    "time": 1158.3449929999842,
                    "velocity": 0.4881889763779528,
                    "duration": 0.4099852500000907
                },
                {
                    "name": "D5",
                    "midi": 74,
                    "time": 1158.3449929999842,
                    "velocity": 0.44881889763779526,
                    "duration": 0.27332350000006045
                },
                {
                    "name": "C5",
                    "midi": 72,
                    "time": 1158.6183164999843,
                    "velocity": 0.44881889763779526,
                    "duration": 0.27332350000006045
                },
                {
                    "name": "D4",
                    "midi": 62,
                    "time": 1158.8916399999844,
                    "velocity": 0.5196850393700787,
                    "duration": 0.5466470000001209
                },
                {
                    "name": "D5",
                    "midi": 74,
                    "time": 1158.8916399999844,
                    "velocity": 0.5039370078740157,
                    "duration": 0.27332350000006045
                },
                {
                    "name": "D#5",
                    "midi": 75,
                    "time": 1159.1649634999844,
                    "velocity": 0.44881889763779526,
                    "duration": 0.27332350000006045
                },
                {
                    "name": "C4",
                    "midi": 60,
                    "time": 1159.4382869999845,
                    "velocity": 0.48031496062992124,
                    "duration": 0.4099852500000907
                },
                {
                    "name": "F5",
                    "midi": 77,
                    "time": 1159.4382869999845,
                    "velocity": 0.44881889763779526,
                    "duration": 0.27332350000006045
                },
                {
                    "name": "D#5",
                    "midi": 75,
                    "time": 1159.7116104999845,
                    "velocity": 0.44881889763779526,
                    "duration": 0.27332350000006045
                },
                {
                    "name": "A4",
                    "midi": 69,
                    "time": 1159.9849339999846,
                    "velocity": 0.49606299212598426,
                    "duration": 0.27332350000006045
                },
                {
                    "name": "C5",
                    "midi": 72,
                    "time": 1160.2582574999847,
                    "velocity": 0.4409448818897638,
                    "duration": 0.27332350000006045
                },
                {
                    "name": "D5",
                    "midi": 74,
                    "time": 1160.5315809999847,
                    "velocity": 0.4409448818897638,
                    "duration": 0.27332350000006045
                },
                {
                    "name": "D#5",
                    "midi": 75,
                    "time": 1160.8049044999848,
                    "velocity": 0.4409448818897638,
                    "duration": 0.27332350000006045
                },
                {
                    "name": "E5",
                    "midi": 76,
                    "time": 1161.0782279999848,
                    "velocity": 0.5039370078740157,
                    "duration": 0.27332350000006045
                },
                {
                    "name": "F5",
                    "midi": 77,
                    "time": 1161.351551499985,
                    "velocity": 0.44881889763779526,
                    "duration": 0.27332350000006045
                },
                {
                    "name": "G5",
                    "midi": 79,
                    "time": 1161.624874999985,
                    "velocity": 0.44881889763779526,
                    "duration": 0.27332350000006045
                },
                {
                    "name": "F5",
                    "midi": 77,
                    "time": 1161.898198499985,
                    "velocity": 0.44881889763779526,
                    "duration": 0.27332350000006045
                },
                {
                    "name": "A5",
                    "midi": 81,
                    "time": 1162.171521999985,
                    "velocity": 0.5039370078740157,
                    "duration": 0.27332350000006045
                },
                {
                    "name": "A#5",
                    "midi": 82,
                    "time": 1162.4448454999851,
                    "velocity": 0.44881889763779526,
                    "duration": 0.27332350000006045
                },
                {
                    "name": "C6",
                    "midi": 84,
                    "time": 1162.7181689999852,
                    "velocity": 0.44881889763779526,
                    "duration": 0.27332350000006045
                },
                {
                    "name": "A#5",
                    "midi": 82,
                    "time": 1162.9914924999853,
                    "velocity": 0.44881889763779526,
                    "duration": 0.27332350000006045
                },
                {
                    "name": "D#5",
                    "midi": 75,
                    "time": 1163.2648159999853,
                    "velocity": 0.5196850393700787,
                    "duration": 0.5466470000001209
                },
                {
                    "name": "F#5",
                    "midi": 78,
                    "time": 1163.2648159999853,
                    "velocity": 0.49606299212598426,
                    "duration": 0.27332350000006045
                },
                {
                    "name": "G5",
                    "midi": 79,
                    "time": 1163.5381394999854,
                    "velocity": 0.4409448818897638,
                    "duration": 0.27332350000006045
                },
                {
                    "name": "D5",
                    "midi": 74,
                    "time": 1163.8114629999855,
                    "velocity": 0.4409448818897638,
                    "duration": 0.4099852500000907
                },
                {
                    "name": "A5",
                    "midi": 81,
                    "time": 1163.8114629999855,
                    "velocity": 0.4409448818897638,
                    "duration": 0.27332350000006045
                },
                {
                    "name": "G5",
                    "midi": 79,
                    "time": 1164.0847864999855,
                    "velocity": 0.4409448818897638,
                    "duration": 0.27332350000006045
                },
                {
                    "name": "D5",
                    "midi": 74,
                    "time": 1164.3581099999856,
                    "velocity": 0.5354330708661418,
                    "duration": 0.5466470000001209
                },
                {
                    "name": "G#5",
                    "midi": 80,
                    "time": 1164.3581099999856,
                    "velocity": 0.5039370078740157,
                    "duration": 0.27332350000006045
                },
                {
                    "name": "A5",
                    "midi": 81,
                    "time": 1164.6314334999856,
                    "velocity": 0.44881889763779526,
                    "duration": 0.27332350000006045
                },
                {
                    "name": "C5",
                    "midi": 72,
                    "time": 1164.9047569999857,
                    "velocity": 0.4881889763779528,
                    "duration": 0.4099852500000907
                },
                {
                    "name": "A#5",
                    "midi": 82,
                    "time": 1164.9047569999857,
                    "velocity": 0.44881889763779526,
                    "duration": 0.27332350000006045
                },
                {
                    "name": "A5",
                    "midi": 81,
                    "time": 1165.1780804999858,
                    "velocity": 0.44881889763779526,
                    "duration": 0.27332350000006045
                },
                {
                    "name": "A#4",
                    "midi": 70,
                    "time": 1165.4514039999858,
                    "velocity": 0.5196850393700787,
                    "duration": 0.5466470000001209
                },
                {
                    "name": "B5",
                    "midi": 83,
                    "time": 1165.4514039999858,
                    "velocity": 0.5039370078740157,
                    "duration": 0.27332350000006045
                },
                {
                    "name": "C6",
                    "midi": 84,
                    "time": 1165.7247274999859,
                    "velocity": 0.44881889763779526,
                    "duration": 0.27332350000006045
                },
                {
                    "name": "A4",
                    "midi": 69,
                    "time": 1165.998050999986,
                    "velocity": 0.48031496062992124,
                    "duration": 0.4099852500000907
                },
                {
                    "name": "D6",
                    "midi": 86,
                    "time": 1165.998050999986,
                    "velocity": 0.44881889763779526,
                    "duration": 0.27332350000006045
                },
                {
                    "name": "C6",
                    "midi": 84,
                    "time": 1166.271374499986,
                    "velocity": 0.44881889763779526,
                    "duration": 0.27332350000006045
                },
                {
                    "name": "D5",
                    "midi": 74,
                    "time": 1166.544697999986,
                    "velocity": 0.5196850393700787,
                    "duration": 0.5466470000001209
                },
                {
                    "name": "E5",
                    "midi": 76,
                    "time": 1166.544697999986,
                    "velocity": 0.49606299212598426,
                    "duration": 0.27332350000006045
                },
                {
                    "name": "F#5",
                    "midi": 78,
                    "time": 1166.8180214999861,
                    "velocity": 0.4409448818897638,
                    "duration": 0.27332350000006045
                },
                {
                    "name": "C5",
                    "midi": 72,
                    "time": 1167.0913449999862,
                    "velocity": 0.4409448818897638,
                    "duration": 0.4099852500000907
                },
                {
                    "name": "G5",
                    "midi": 79,
                    "time": 1167.0913449999862,
                    "velocity": 0.4409448818897638,
                    "duration": 0.27332350000006045
                },
                {
                    "name": "F#5",
                    "midi": 78,
                    "time": 1167.3646684999862,
                    "velocity": 0.4409448818897638,
                    "duration": 0.27332350000006045
                },
                {
                    "name": "C5",
                    "midi": 72,
                    "time": 1167.6379919999863,
                    "velocity": 0.5354330708661418,
                    "duration": 0.5466470000001209
                },
                {
                    "name": "G5",
                    "midi": 79,
                    "time": 1167.6379919999863,
                    "velocity": 0.5039370078740157,
                    "duration": 0.27332350000006045
                },
                {
                    "name": "G#5",
                    "midi": 80,
                    "time": 1167.9113154999864,
                    "velocity": 0.44881889763779526,
                    "duration": 0.27332350000006045
                },
                {
                    "name": "A#4",
                    "midi": 70,
                    "time": 1168.1846389999864,
                    "velocity": 0.4881889763779528,
                    "duration": 0.4099852500000907
                },
                {
                    "name": "A5",
                    "midi": 81,
                    "time": 1168.1846389999864,
                    "velocity": 0.44881889763779526,
                    "duration": 0.27332350000006045
                },
                {
                    "name": "G5",
                    "midi": 79,
                    "time": 1168.4579624999865,
                    "velocity": 0.44881889763779526,
                    "duration": 0.27332350000006045
                },
                {
                    "name": "D5",
                    "midi": 74,
                    "time": 1168.7312859999865,
                    "velocity": 0.5196850393700787,
                    "duration": 0.5466470000001209
                },
                {
                    "name": "A#5",
                    "midi": 82,
                    "time": 1168.7312859999865,
                    "velocity": 0.5039370078740157,
                    "duration": 0.27332350000006045
                },
                {
                    "name": "B5",
                    "midi": 83,
                    "time": 1169.0046094999866,
                    "velocity": 0.44881889763779526,
                    "duration": 0.27332350000006045
                },
                {
                    "name": "D#5",
                    "midi": 75,
                    "time": 1169.2779329999867,
                    "velocity": 0.48031496062992124,
                    "duration": 0.4099852500000907
                },
                {
                    "name": "C6",
                    "midi": 84,
                    "time": 1169.2779329999867,
                    "velocity": 0.44881889763779526,
                    "duration": 0.27332350000006045
                },
                {
                    "name": "A#5",
                    "midi": 82,
                    "time": 1169.5512564999867,
                    "velocity": 0.44881889763779526,
                    "duration": 0.27332350000006045
                },
                {
                    "name": "D5",
                    "midi": 74,
                    "time": 1169.8245799999868,
                    "velocity": 0.5196850393700787,
                    "duration": 0.5466470000001209
                },
                {
                    "name": "G#5",
                    "midi": 80,
                    "time": 1169.8245799999868,
                    "velocity": 0.49606299212598426,
                    "duration": 0.27332350000006045
                },
                {
                    "name": "A5",
                    "midi": 81,
                    "time": 1170.0979034999868,
                    "velocity": 0.4409448818897638,
                    "duration": 0.27332350000006045
                },
                {
                    "name": "C5",
                    "midi": 72,
                    "time": 1170.371226999987,
                    "velocity": 0.4409448818897638,
                    "duration": 0.4099852500000907
                },
                {
                    "name": "A#5",
                    "midi": 82,
                    "time": 1170.371226999987,
                    "velocity": 0.4409448818897638,
                    "duration": 0.27332350000006045
                },
                {
                    "name": "A5",
                    "midi": 81,
                    "time": 1170.644550499987,
                    "velocity": 0.4409448818897638,
                    "duration": 0.27332350000006045
                },
                {
                    "name": "E5",
                    "midi": 76,
                    "time": 1170.917873999987,
                    "velocity": 0.5354330708661418,
                    "duration": 0.5466470000001209
                },
                {
                    "name": "C#6",
                    "midi": 85,
                    "time": 1170.917873999987,
                    "velocity": 0.5039370078740157,
                    "duration": 0.27332350000006045
                },
                {
                    "name": "D6",
                    "midi": 86,
                    "time": 1171.191197499987,
                    "velocity": 0.44881889763779526,
                    "duration": 0.27332350000006045
                },
                {
                    "name": "F5",
                    "midi": 77,
                    "time": 1171.4645209999871,
                    "velocity": 0.4881889763779528,
                    "duration": 0.4099852500000907
                },
                {
                    "name": "D#6",
                    "midi": 87,
                    "time": 1171.4645209999871,
                    "velocity": 0.44881889763779526,
                    "duration": 0.27332350000006045
                },
                {
                    "name": "D6",
                    "midi": 86,
                    "time": 1171.7378444999872,
                    "velocity": 0.44881889763779526,
                    "duration": 0.27332350000006045
                },
                {
                    "name": "D#5",
                    "midi": 75,
                    "time": 1172.0111679999873,
                    "velocity": 0.5196850393700787,
                    "duration": 0.5466470000001209
                },
                {
                    "name": "B5",
                    "midi": 83,
                    "time": 1172.0111679999873,
                    "velocity": 0.5039370078740157,
                    "duration": 0.27332350000006045
                },
                {
                    "name": "C6",
                    "midi": 84,
                    "time": 1172.2844914999873,
                    "velocity": 0.44881889763779526,
                    "duration": 0.27332350000006045
                },
                {
                    "name": "D5",
                    "midi": 74,
                    "time": 1172.5578149999874,
                    "velocity": 0.48031496062992124,
                    "duration": 0.4099852500000907
                },
                {
                    "name": "D6",
                    "midi": 86,
                    "time": 1172.5578149999874,
                    "velocity": 0.44881889763779526,
                    "duration": 0.27332350000006045
                },
                {
                    "name": "A#5",
                    "midi": 82,
                    "time": 1172.8311384999874,
                    "velocity": 0.44881889763779526,
                    "duration": 0.27332350000006045
                },
                {
                    "name": "C#5",
                    "midi": 73,
                    "time": 1173.1044619999875,
                    "velocity": 0.5511811023622047,
                    "duration": 0.27332350000006045
                },
                {
                    "name": "D5",
                    "midi": 74,
                    "time": 1173.3777854999876,
                    "velocity": 0.5118110236220472,
                    "duration": 0.27332350000006045
                },
                {
                    "name": "C5",
                    "midi": 72,
                    "time": 1173.6511089999876,
                    "velocity": 0.5590551181102362,
                    "duration": 0.3279882000001635
                },
                {
                    "name": "A#4",
                    "midi": 70,
                    "time": 1173.9244324999877,
                    "velocity": 0.5275590551181102,
                    "duration": 0.27332350000006045
                },
                {
                    "name": "G#4",
                    "midi": 68,
                    "time": 1174.1977559999877,
                    "velocity": 0.5039370078740157,
                    "duration": 0.27332350000006045
                },
                {
                    "name": "B4",
                    "midi": 71,
                    "time": 1174.1977559999877,
                    "velocity": 0.6535433070866141,
                    "duration": 0.5466470000001209
                },
                {
                    "name": "D4",
                    "midi": 62,
                    "time": 1174.4710794999878,
                    "velocity": 0.48031496062992124,
                    "duration": 0.27332350000006045
                },
                {
                    "name": "G4",
                    "midi": 67,
                    "time": 1174.7444029999879,
                    "velocity": 0.5039370078740157,
                    "duration": 0.3279882000001635
                },
                {
                    "name": "C5",
                    "midi": 72,
                    "time": 1174.7444029999879,
                    "velocity": 0.5984251968503937,
                    "duration": 0.3279882000001635
                },
                {
                    "name": "E4",
                    "midi": 64,
                    "time": 1175.017726499988,
                    "velocity": 0.48031496062992124,
                    "duration": 0.27332350000006045
                },
                {
                    "name": "D4",
                    "midi": 62,
                    "time": 1175.291049999988,
                    "velocity": 0.5039370078740157,
                    "duration": 0.27332350000006045
                },
                {
                    "name": "A#4",
                    "midi": 70,
                    "time": 1175.291049999988,
                    "velocity": 0.6456692913385826,
                    "duration": 0.5466470000001209
                },
                {
                    "name": "E4",
                    "midi": 64,
                    "time": 1175.564373499988,
                    "velocity": 0.4881889763779528,
                    "duration": 0.27332350000006045
                },
                {
                    "name": "C#4",
                    "midi": 61,
                    "time": 1175.837696999988,
                    "velocity": 0.5039370078740157,
                    "duration": 0.3279882000001635
                },
                {
                    "name": "A4",
                    "midi": 69,
                    "time": 1175.837696999988,
                    "velocity": 0.5984251968503937,
                    "duration": 0.3279882000001635
                },
                {
                    "name": "E4",
                    "midi": 64,
                    "time": 1176.1110204999882,
                    "velocity": 0.48031496062992124,
                    "duration": 0.27332350000006045
                },
                {
                    "name": "A#4",
                    "midi": 70,
                    "time": 1176.3843439999882,
                    "velocity": 0.5039370078740157,
                    "duration": 0.27332350000006045
                },
                {
                    "name": "C#5",
                    "midi": 73,
                    "time": 1176.3843439999882,
                    "velocity": 0.6535433070866141,
                    "duration": 0.5466470000001209
                },
                {
                    "name": "E4",
                    "midi": 64,
                    "time": 1176.6576674999883,
                    "velocity": 0.48031496062992124,
                    "duration": 0.27332350000006045
                },
                {
                    "name": "A4",
                    "midi": 69,
                    "time": 1176.9309909999884,
                    "velocity": 0.5039370078740157,
                    "duration": 0.3279882000001635
                },
                {
                    "name": "D5",
                    "midi": 74,
                    "time": 1176.9309909999884,
                    "velocity": 0.5984251968503937,
                    "duration": 0.3279882000001635
                },
                {
                    "name": "F#4",
                    "midi": 66,
                    "time": 1177.2043144999884,
                    "velocity": 0.5039370078740157,
                    "duration": 0.27332350000006045
                },
                {
                    "name": "D#4",
                    "midi": 63,
                    "time": 1177.4776379999885,
                    "velocity": 0.5039370078740157,
                    "duration": 0.27332350000006045
                },
                {
                    "name": "C5",
                    "midi": 72,
                    "time": 1177.4776379999885,
                    "velocity": 0.6535433070866141,
                    "duration": 0.5466470000001209
                },
                {
                    "name": "F#4",
                    "midi": 66,
                    "time": 1177.7509614999885,
                    "velocity": 0.48031496062992124,
                    "duration": 0.27332350000006045
                },
                {
                    "name": "D4",
                    "midi": 62,
                    "time": 1178.0242849999886,
                    "velocity": 0.5039370078740157,
                    "duration": 0.3279882000001635
                },
                {
                    "name": "A#4",
                    "midi": 70,
                    "time": 1178.0242849999886,
                    "velocity": 0.5984251968503937,
                    "duration": 0.3279882000001635
                },
                {
                    "name": "G4",
                    "midi": 67,
                    "time": 1178.2976084999887,
                    "velocity": 0.4881889763779528,
                    "duration": 0.27332350000006045
                },
                {
                    "name": "A#4",
                    "midi": 70,
                    "time": 1178.5709319999887,
                    "velocity": 0.5039370078740157,
                    "duration": 0.27332350000006045
                },
                {
                    "name": "D#5",
                    "midi": 75,
                    "time": 1178.5709319999887,
                    "velocity": 0.6535433070866141,
                    "duration": 0.5466470000001209
                },
                {
                    "name": "A4",
                    "midi": 69,
                    "time": 1178.8442554999888,
                    "velocity": 0.49606299212598426,
                    "duration": 0.27332350000006045
                },
                {
                    "name": "A#4",
                    "midi": 70,
                    "time": 1179.1175789999888,
                    "velocity": 0.5039370078740157,
                    "duration": 0.3279882000001635
                },
                {
                    "name": "E5",
                    "midi": 76,
                    "time": 1179.1175789999888,
                    "velocity": 0.5984251968503937,
                    "duration": 0.3279882000001635
                },
                {
                    "name": "G4",
                    "midi": 67,
                    "time": 1179.390902499989,
                    "velocity": 0.4881889763779528,
                    "duration": 0.27332350000006045
                },
                {
                    "name": "C#5",
                    "midi": 73,
                    "time": 1179.664225999989,
                    "velocity": 0.5039370078740157,
                    "duration": 0.27332350000006045
                },
                {
                    "name": "F#5",
                    "midi": 78,
                    "time": 1179.664225999989,
                    "velocity": 0.6456692913385826,
                    "duration": 0.5466470000001209
                },
                {
                    "name": "C5",
                    "midi": 72,
                    "time": 1179.937549499989,
                    "velocity": 0.49606299212598426,
                    "duration": 0.27332350000006045
                },
                {
                    "name": "C#5",
                    "midi": 73,
                    "time": 1180.210872999989,
                    "velocity": 0.5039370078740157,
                    "duration": 0.3279882000001635
                },
                {
                    "name": "G5",
                    "midi": 79,
                    "time": 1180.210872999989,
                    "velocity": 0.5984251968503937,
                    "duration": 0.3279882000001635
                },
                {
                    "name": "A#4",
                    "midi": 70,
                    "time": 1180.4841964999891,
                    "velocity": 0.4881889763779528,
                    "duration": 0.27332350000006045
                },
                {
                    "name": "E4",
                    "midi": 64,
                    "time": 1180.7575199999892,
                    "velocity": 0.6141732283464567,
                    "duration": 0.5466469999998935
                },
                {
                    "name": "G4",
                    "midi": 67,
                    "time": 1180.7575199999892,
                    "velocity": 0.6141732283464567,
                    "duration": 0.5466469999998935
                },
                {
                    "name": "A#4",
                    "midi": 70,
                    "time": 1180.7575199999892,
                    "velocity": 0.7244094488188977,
                    "duration": 0.5466469999998935
                },
                {
                    "name": "C#6",
                    "midi": 85,
                    "time": 1181.850813999989,
                    "velocity": 0.5826771653543307,
                    "duration": 2.1865880000004836
                },
                {
                    "name": "A#5",
                    "midi": 82,
                    "time": 1181.850813999989,
                    "velocity": 0.5826771653543307,
                    "duration": 2.1865880000004836
                },
                {
                    "name": "E6",
                    "midi": 88,
                    "time": 1181.850813999989,
                    "velocity": 0.6929133858267716,
                    "duration": 0.18221566666670697
                },
                {
                    "name": "F6",
                    "midi": 89,
                    "time": 1182.0330296666557,
                    "velocity": 0.6299212598425197,
                    "duration": 0.18221566666670697
                },
                {
                    "name": "E6",
                    "midi": 88,
                    "time": 1182.2152453333224,
                    "velocity": 0.6929133858267716,
                    "duration": 0.18221566666670697
                },
                {
                    "name": "F6",
                    "midi": 89,
                    "time": 1182.397460999989,
                    "velocity": 0.6220472440944882,
                    "duration": 0.18221566666670697
                },
                {
                    "name": "E6",
                    "midi": 88,
                    "time": 1182.5796766666558,
                    "velocity": 0.7007874015748031,
                    "duration": 0.18221566666670697
                },
                {
                    "name": "F6",
                    "midi": 89,
                    "time": 1182.7618923333225,
                    "velocity": 0.6456692913385826,
                    "duration": 0.18221566666670697
                },
                {
                    "name": "E6",
                    "midi": 88,
                    "time": 1182.9441079999892,
                    "velocity": 0.7086614173228346,
                    "duration": 0.18221566666670697
                },
                {
                    "name": "F6",
                    "midi": 89,
                    "time": 1183.126323666656,
                    "velocity": 0.6456692913385826,
                    "duration": 0.18221566666670697
                },
                {
                    "name": "E6",
                    "midi": 88,
                    "time": 1183.3085393333226,
                    "velocity": 0.7165354330708661,
                    "duration": 0.18221566666670697
                },
                {
                    "name": "F6",
                    "midi": 89,
                    "time": 1183.4907549999893,
                    "velocity": 0.6377952755905512,
                    "duration": 0.13666175000003022
                },
                {
                    "name": "E6",
                    "midi": 88,
                    "time": 1183.6274167499894,
                    "velocity": 0.6929133858267716,
                    "duration": 0.13666175000003022
                },
                {
                    "name": "D6",
                    "midi": 86,
                    "time": 1183.7640784999894,
                    "velocity": 0.6614173228346457,
                    "duration": 0.13666175000003022
                },
                {
                    "name": "E6",
                    "midi": 88,
                    "time": 1183.9007402499894,
                    "velocity": 0.7007874015748031,
                    "duration": 0.13666175000003022
                },
                {
                    "name": "G6",
                    "midi": 91,
                    "time": 1184.0374019999895,
                    "velocity": 0.7716535433070866,
                    "duration": 1.0932940000000144
                },
                {
                    "name": "A#3",
                    "midi": 58,
                    "time": 1184.5840489999894,
                    "velocity": 0.7244094488188977,
                    "duration": 0.13666175000003022
                },
                {
                    "name": "E5",
                    "midi": 76,
                    "time": 1185.1306959999895,
                    "velocity": 0.6929133858267716,
                    "duration": 0.18221566666670697
                },
                {
                    "name": "F5",
                    "midi": 77,
                    "time": 1185.3129116666562,
                    "velocity": 0.6299212598425197,
                    "duration": 0.18221566666670697
                },
                {
                    "name": "E5",
                    "midi": 76,
                    "time": 1185.495127333323,
                    "velocity": 0.6929133858267716,
                    "duration": 0.18221566666670697
                },
                {
                    "name": "F5",
                    "midi": 77,
                    "time": 1185.6773429999896,
                    "velocity": 0.6220472440944882,
                    "duration": 0.18221566666670697
                },
                {
                    "name": "G6",
                    "midi": 91,
                    "time": 1185.6773429999896,
                    "velocity": 0.6929133858267716,
                    "duration": 0.27332350000006045
                },
                {
                    "name": "E5",
                    "midi": 76,
                    "time": 1185.8595586666563,
                    "velocity": 0.7007874015748031,
                    "duration": 0.18221566666670697
                },
                {
                    "name": "F6",
                    "midi": 89,
                    "time": 1185.9506664999897,
                    "velocity": 0.6220472440944882,
                    "duration": 0.27332350000006045
                },
                {
                    "name": "F5",
                    "midi": 77,
                    "time": 1186.041774333323,
                    "velocity": 0.6456692913385826,
                    "duration": 0.18221566666670697
                },
                {
                    "name": "E5",
                    "midi": 76,
                    "time": 1186.2239899999897,
                    "velocity": 0.7086614173228346,
                    "duration": 0.18221566666670697
                },
                {
                    "name": "E6",
                    "midi": 88,
                    "time": 1186.2239899999897,
                    "velocity": 0.6929133858267716,
                    "duration": 0.27332350000006045
                },
                {
                    "name": "F5",
                    "midi": 77,
                    "time": 1186.4062056666564,
                    "velocity": 0.6456692913385826,
                    "duration": 0.18221566666670697
                },
                {
                    "name": "C#6",
                    "midi": 85,
                    "time": 1186.4973134999898,
                    "velocity": 0.6220472440944882,
                    "duration": 0.27332350000006045
                },
                {
                    "name": "E5",
                    "midi": 76,
                    "time": 1186.5884213333231,
                    "velocity": 0.7165354330708661,
                    "duration": 0.18221566666670697
                },
                {
                    "name": "C6",
                    "midi": 84,
                    "time": 1186.7706369999898,
                    "velocity": 0.6929133858267716,
                    "duration": 0.27332350000006045
                },
                {
                    "name": "F5",
                    "midi": 77,
                    "time": 1186.7706369999898,
                    "velocity": 0.6377952755905512,
                    "duration": 0.13666175000003022
                },
                {
                    "name": "E5",
                    "midi": 76,
                    "time": 1186.9072987499899,
                    "velocity": 0.6929133858267716,
                    "duration": 0.13666175000003022
                },
                {
                    "name": "A#5",
                    "midi": 82,
                    "time": 1187.04396049999,
                    "velocity": 0.6220472440944882,
                    "duration": 0.27332350000006045
                },
                {
                    "name": "D5",
                    "midi": 74,
                    "time": 1187.04396049999,
                    "velocity": 0.6614173228346457,
                    "duration": 0.13666175000003022
                },
                {
                    "name": "E5",
                    "midi": 76,
                    "time": 1187.18062224999,
                    "velocity": 0.7007874015748031,
                    "duration": 0.13666175000003022
                },
                {
                    "name": "F5",
                    "midi": 77,
                    "time": 1187.31728399999,
                    "velocity": 0.7716535433070866,
                    "duration": 1.0932940000000144
                },
                {
                    "name": "A5",
                    "midi": 81,
                    "time": 1187.8639309999899,
                    "velocity": 0.7244094488188977,
                    "duration": 0.13666175000003022
                },
                {
                    "name": "A6",
                    "midi": 93,
                    "time": 1188.41057799999,
                    "velocity": 0.7716535433070866,
                    "duration": 0.5466469999998935
                },
                {
                    "name": "F5",
                    "midi": 77,
                    "time": 1188.9572249999899,
                    "velocity": 0.6771653543307087,
                    "duration": 0.27332350000006045
                },
                {
                    "name": "E5",
                    "midi": 76,
                    "time": 1189.23054849999,
                    "velocity": 0.6692913385826772,
                    "duration": 0.27332350000006045
                },
                {
                    "name": "D5",
                    "midi": 74,
                    "time": 1189.50387199999,
                    "velocity": 0.6535433070866141,
                    "duration": 0.27332350000006045
                },
                {
                    "name": "C5",
                    "midi": 72,
                    "time": 1189.77719549999,
                    "velocity": 0.6456692913385826,
                    "duration": 0.27332350000006045
                },
                {
                    "name": "A#4",
                    "midi": 70,
                    "time": 1190.0505189999901,
                    "velocity": 0.6377952755905512,
                    "duration": 0.27332350000006045
                },
                {
                    "name": "A4",
                    "midi": 69,
                    "time": 1190.3238424999902,
                    "velocity": 0.6299212598425197,
                    "duration": 0.27332350000006045
                },
                {
                    "name": "D5",
                    "midi": 74,
                    "time": 1190.5971659999902,
                    "velocity": 0.7716535433070866,
                    "duration": 1.0932940000000144
                },
                {
                    "name": "F5",
                    "midi": 77,
                    "time": 1191.1438129999901,
                    "velocity": 0.7244094488188977,
                    "duration": 0.13666175000003022
                },
                {
                    "name": "F6",
                    "midi": 89,
                    "time": 1191.6904599999903,
                    "velocity": 0.7716535433070866,
                    "duration": 0.5466469999998935
                },
                {
                    "name": "D5",
                    "midi": 74,
                    "time": 1192.2371069999901,
                    "velocity": 0.6771653543307087,
                    "duration": 0.27332350000006045
                },
                {
                    "name": "C5",
                    "midi": 72,
                    "time": 1192.5104304999902,
                    "velocity": 0.6692913385826772,
                    "duration": 0.27332350000006045
                },
                {
                    "name": "A#4",
                    "midi": 70,
                    "time": 1192.7837539999903,
                    "velocity": 0.6535433070866141,
                    "duration": 0.27332350000006045
                },
                {
                    "name": "A4",
                    "midi": 69,
                    "time": 1193.0570774999903,
                    "velocity": 0.6456692913385826,
                    "duration": 0.27332350000006045
                },
                {
                    "name": "G4",
                    "midi": 67,
                    "time": 1193.3304009999904,
                    "velocity": 0.6377952755905512,
                    "duration": 0.27332350000006045
                },
                {
                    "name": "F4",
                    "midi": 65,
                    "time": 1193.6037244999904,
                    "velocity": 0.6299212598425197,
                    "duration": 0.27332350000006045
                },
                {
                    "name": "A#4",
                    "midi": 70,
                    "time": 1193.8770479999905,
                    "velocity": 0.7716535433070866,
                    "duration": 1.093293999999787
                },
                {
                    "name": "D5",
                    "midi": 74,
                    "time": 1194.4236949999904,
                    "velocity": 0.6692913385826772,
                    "duration": 0.5466469999998935
                },
                {
                    "name": "D6",
                    "midi": 86,
                    "time": 1194.9703419999903,
                    "velocity": 0.7637795275590551,
                    "duration": 0.5466469999998935
                },
                {
                    "name": "C6",
                    "midi": 84,
                    "time": 1195.5169889999902,
                    "velocity": 0.7480314960629921,
                    "duration": 0.5466469999998935
                },
                {
                    "name": "A#5",
                    "midi": 82,
                    "time": 1196.06363599999,
                    "velocity": 0.7244094488188977,
                    "duration": 0.5466469999998935
                },
                {
                    "name": "B5",
                    "midi": 83,
                    "time": 1196.61028299999,
                    "velocity": 0.7086614173228346,
                    "duration": 0.5466469999998935
                },
                {
                    "name": "C6",
                    "midi": 84,
                    "time": 1197.1569299999899,
                    "velocity": 0.7086614173228346,
                    "duration": 0.5466469999998935
                },
                {
                    "name": "A#5",
                    "midi": 82,
                    "time": 1198.2502239999897,
                    "velocity": 0.7401574803149606,
                    "duration": 1.639940999999908
                },
                {
                    "name": "A#5",
                    "midi": 82,
                    "time": 1199.8901649999896,
                    "velocity": 0.6850393700787402,
                    "duration": 0.5466469999998935
                },
                {
                    "name": "F5",
                    "midi": 77,
                    "time": 1200.4368119999895,
                    "velocity": 0.5826771653543307,
                    "duration": 0.3279882000001635
                },
                {
                    "name": "G5",
                    "midi": 79,
                    "time": 1200.7101354999895,
                    "velocity": 0.5354330708661418,
                    "duration": 0.3279882000001635
                },
                {
                    "name": "A5",
                    "midi": 81,
                    "time": 1200.9834589999896,
                    "velocity": 0.5354330708661418,
                    "duration": 0.3279882000001635
                },
                {
                    "name": "A#5",
                    "midi": 82,
                    "time": 1201.2567824999896,
                    "velocity": 0.5354330708661418,
                    "duration": 0.3279882000001635
                },
                {
                    "name": "B5",
                    "midi": 83,
                    "time": 1201.5301059999897,
                    "velocity": 0.5669291338582677,
                    "duration": 0.3279882000001635
                },
                {
                    "name": "C6",
                    "midi": 84,
                    "time": 1201.8034294999898,
                    "velocity": 0.5039370078740157,
                    "duration": 0.3279882000001635
                },
                {
                    "name": "D6",
                    "midi": 86,
                    "time": 1202.0767529999898,
                    "velocity": 0.5433070866141733,
                    "duration": 0.3279882000001635
                },
                {
                    "name": "C6",
                    "midi": 84,
                    "time": 1202.3500764999899,
                    "velocity": 0.5039370078740157,
                    "duration": 0.3279882000001635
                },
                {
                    "name": "A#5",
                    "midi": 82,
                    "time": 1202.62339999999,
                    "velocity": 0.5669291338582677,
                    "duration": 0.3279882000001635
                },
                {
                    "name": "A5",
                    "midi": 81,
                    "time": 1202.89672349999,
                    "velocity": 0.5039370078740157,
                    "duration": 0.3279882000001635
                },
                {
                    "name": "G5",
                    "midi": 79,
                    "time": 1203.17004699999,
                    "velocity": 0.5590551181102362,
                    "duration": 0.3279882000001635
                },
                {
                    "name": "F5",
                    "midi": 77,
                    "time": 1203.4433704999901,
                    "velocity": 0.5196850393700787,
                    "duration": 0.27332350000006045
                },
                {
                    "name": "D6",
                    "midi": 86,
                    "time": 1203.7166939999902,
                    "velocity": 0.7086614173228346,
                    "duration": 0.5466469999998935
                },
                {
                    "name": "C6",
                    "midi": 84,
                    "time": 1204.80998799999,
                    "velocity": 0.7401574803149606,
                    "duration": 1.639940999999908
                },
                {
                    "name": "C6",
                    "midi": 84,
                    "time": 1206.4499289999899,
                    "velocity": 0.6850393700787402,
                    "duration": 0.5466469999998935
                },
                {
                    "name": "G5",
                    "midi": 79,
                    "time": 1206.9965759999898,
                    "velocity": 0.5826771653543307,
                    "duration": 0.3279882000001635
                },
                {
                    "name": "A5",
                    "midi": 81,
                    "time": 1207.2698994999898,
                    "velocity": 0.5354330708661418,
                    "duration": 0.3279882000001635
                },
                {
                    "name": "A#5",
                    "midi": 82,
                    "time": 1207.54322299999,
                    "velocity": 0.5354330708661418,
                    "duration": 0.3279882000001635
                },
                {
                    "name": "C6",
                    "midi": 84,
                    "time": 1207.81654649999,
                    "velocity": 0.5354330708661418,
                    "duration": 0.3279882000001635
                },
                {
                    "name": "C#6",
                    "midi": 85,
                    "time": 1208.08986999999,
                    "velocity": 0.5669291338582677,
                    "duration": 0.3279882000001635
                },
                {
                    "name": "D6",
                    "midi": 86,
                    "time": 1208.36319349999,
                    "velocity": 0.5039370078740157,
                    "duration": 0.3279882000001635
                },
                {
                    "name": "D#6",
                    "midi": 87,
                    "time": 1208.6365169999901,
                    "velocity": 0.5433070866141733,
                    "duration": 0.3279882000001635
                },
                {
                    "name": "D6",
                    "midi": 86,
                    "time": 1208.9098404999902,
                    "velocity": 0.5039370078740157,
                    "duration": 0.3279882000001635
                },
                {
                    "name": "C6",
                    "midi": 84,
                    "time": 1209.1831639999903,
                    "velocity": 0.5669291338582677,
                    "duration": 0.3279882000001635
                },
                {
                    "name": "A#5",
                    "midi": 82,
                    "time": 1209.4564874999903,
                    "velocity": 0.5039370078740157,
                    "duration": 0.3279882000001635
                },
                {
                    "name": "A5",
                    "midi": 81,
                    "time": 1209.7298109999904,
                    "velocity": 0.5590551181102362,
                    "duration": 0.3279882000001635
                },
                {
                    "name": "G5",
                    "midi": 79,
                    "time": 1210.0031344999904,
                    "velocity": 0.5196850393700787,
                    "duration": 0.27332350000006045
                },
                {
                    "name": "F6",
                    "midi": 89,
                    "time": 1210.2764579999905,
                    "velocity": 0.7086614173228346,
                    "duration": 0.5466469999998935
                },
                {
                    "name": "D#6",
                    "midi": 87,
                    "time": 1211.3697519999903,
                    "velocity": 0.7401574803149606,
                    "duration": 1.639940999999908
                },
                {
                    "name": "D#6",
                    "midi": 87,
                    "time": 1213.0096929999902,
                    "velocity": 0.6850393700787402,
                    "duration": 0.5466469999998935
                },
                {
                    "name": "A#5",
                    "midi": 82,
                    "time": 1213.55633999999,
                    "velocity": 0.5826771653543307,
                    "duration": 0.3279882000001635
                },
                {
                    "name": "C6",
                    "midi": 84,
                    "time": 1213.8296634999901,
                    "velocity": 0.5354330708661418,
                    "duration": 0.3279882000001635
                },
                {
                    "name": "D6",
                    "midi": 86,
                    "time": 1214.1029869999902,
                    "velocity": 0.5354330708661418,
                    "duration": 0.3279882000001635
                },
                {
                    "name": "D#6",
                    "midi": 87,
                    "time": 1214.3763104999903,
                    "velocity": 0.5354330708661418,
                    "duration": 0.3279882000001635
                },
                {
                    "name": "E6",
                    "midi": 88,
                    "time": 1214.6496339999903,
                    "velocity": 0.5669291338582677,
                    "duration": 0.3279882000001635
                },
                {
                    "name": "F6",
                    "midi": 89,
                    "time": 1214.9229574999904,
                    "velocity": 0.5118110236220472,
                    "duration": 0.3279882000001635
                },
                {
                    "name": "G6",
                    "midi": 91,
                    "time": 1215.1962809999904,
                    "velocity": 0.5511811023622047,
                    "duration": 0.3279882000001635
                },
                {
                    "name": "F6",
                    "midi": 89,
                    "time": 1215.4696044999905,
                    "velocity": 0.5118110236220472,
                    "duration": 0.3279882000001635
                },
                {
                    "name": "E6",
                    "midi": 88,
                    "time": 1215.7429279999906,
                    "velocity": 0.5826771653543307,
                    "duration": 0.3279882000001635
                },
                {
                    "name": "F6",
                    "midi": 89,
                    "time": 1216.0162514999906,
                    "velocity": 0.5118110236220472,
                    "duration": 0.3279882000001635
                },
                {
                    "name": "F#6",
                    "midi": 90,
                    "time": 1216.2895749999907,
                    "velocity": 0.5748031496062992,
                    "duration": 0.3279882000001635
                },
                {
                    "name": "F6",
                    "midi": 89,
                    "time": 1216.5628984999908,
                    "velocity": 0.5354330708661418,
                    "duration": 0.27332350000006045
                },
                {
                    "name": "D6",
                    "midi": 86,
                    "time": 1216.8362219999908,
                    "velocity": 0.5905511811023622,
                    "duration": 0.3279882000001635
                },
                {
                    "name": "D#6",
                    "midi": 87,
                    "time": 1217.1095454999909,
                    "velocity": 0.5511811023622047,
                    "duration": 0.3279882000001635
                },
                {
                    "name": "F6",
                    "midi": 89,
                    "time": 1217.382868999991,
                    "velocity": 0.5511811023622047,
                    "duration": 0.3279882000001635
                },
                {
                    "name": "D#6",
                    "midi": 87,
                    "time": 1217.656192499991,
                    "velocity": 0.5590551181102362,
                    "duration": 0.27332350000006045
                },
                {
                    "name": "C6",
                    "midi": 84,
                    "time": 1217.929515999991,
                    "velocity": 0.5984251968503937,
                    "duration": 0.3279882000001635
                },
                {
                    "name": "C#6",
                    "midi": 85,
                    "time": 1218.2028394999911,
                    "velocity": 0.5590551181102362,
                    "duration": 0.3279882000001635
                },
                {
                    "name": "D#6",
                    "midi": 87,
                    "time": 1218.4761629999912,
                    "velocity": 0.5590551181102362,
                    "duration": 0.3279882000001635
                },
                {
                    "name": "C#6",
                    "midi": 85,
                    "time": 1218.7494864999912,
                    "velocity": 0.5590551181102362,
                    "duration": 0.27332350000006045
                },
                {
                    "name": "B5",
                    "midi": 83,
                    "time": 1219.0228099999913,
                    "velocity": 0.6062992125984252,
                    "duration": 0.3279882000001635
                },
                {
                    "name": "C6",
                    "midi": 84,
                    "time": 1219.2961334999914,
                    "velocity": 0.5669291338582677,
                    "duration": 0.3279882000001635
                },
                {
                    "name": "C#6",
                    "midi": 85,
                    "time": 1219.5694569999914,
                    "velocity": 0.5748031496062992,
                    "duration": 0.3279882000001635
                },
                {
                    "name": "C6",
                    "midi": 84,
                    "time": 1219.8427804999915,
                    "velocity": 0.5748031496062992,
                    "duration": 0.27332350000006045
                },
                {
                    "name": "D#5",
                    "midi": 75,
                    "time": 1220.1161039999915,
                    "velocity": 0.7007874015748031,
                    "duration": 0.27332350000006045
                },
                {
                    "name": "F#6",
                    "midi": 90,
                    "time": 1220.6627509999917,
                    "velocity": 0.7480314960629921,
                    "duration": 0.5466469999998935
                },
                {
                    "name": "F#4",
                    "midi": 66,
                    "time": 1221.2093979999916,
                    "velocity": 0.5196850393700787,
                    "duration": 2.733235000000377
                },
                {
                    "name": "C5",
                    "midi": 72,
                    "time": 1221.2093979999916,
                    "velocity": 0.5196850393700787,
                    "duration": 2.1865880000004836
                },
                {
                    "name": "F5",
                    "midi": 77,
                    "time": 1221.2093979999916,
                    "velocity": 0.5669291338582677,
                    "duration": 0.27332350000006045
                },
                {
                    "name": "D#5",
                    "midi": 75,
                    "time": 1221.4827214999916,
                    "velocity": 0.5118110236220472,
                    "duration": 0.27332350000006045
                },
                {
                    "name": "F5",
                    "midi": 77,
                    "time": 1221.7560449999917,
                    "velocity": 0.5669291338582677,
                    "duration": 0.27332350000006045
                },
                {
                    "name": "D#5",
                    "midi": 75,
                    "time": 1222.0293684999917,
                    "velocity": 0.5275590551181102,
                    "duration": 0.27332350000006045
                },
                {
                    "name": "F5",
                    "midi": 77,
                    "time": 1222.3026919999918,
                    "velocity": 0.5669291338582677,
                    "duration": 0.27332350000006045
                },
                {
                    "name": "D#5",
                    "midi": 75,
                    "time": 1222.5760154999919,
                    "velocity": 0.5275590551181102,
                    "duration": 0.27332350000006045
                },
                {
                    "name": "D5",
                    "midi": 74,
                    "time": 1222.849338999992,
                    "velocity": 0.5669291338582677,
                    "duration": 0.27332350000006045
                },
                {
                    "name": "D#5",
                    "midi": 75,
                    "time": 1223.122662499992,
                    "velocity": 0.5196850393700787,
                    "duration": 0.27332350000006045
                },
                {
                    "name": "D5",
                    "midi": 74,
                    "time": 1223.395985999992,
                    "velocity": 0.5826771653543307,
                    "duration": 1.093293999999787
                },
                {
                    "name": "A#3",
                    "midi": 58,
                    "time": 1223.942632999992,
                    "velocity": 0.5748031496062992,
                    "duration": 0.5466469999998935
                },
                {
                    "name": "F4",
                    "midi": 65,
                    "time": 1223.942632999992,
                    "velocity": 0.5748031496062992,
                    "duration": 0.5466469999998935
                },
                {
                    "name": "A#4",
                    "midi": 70,
                    "time": 1224.4892799999918,
                    "velocity": 0.5905511811023622,
                    "duration": 0.5466469999998935
                },
                {
                    "name": "D5",
                    "midi": 74,
                    "time": 1225.0359269999917,
                    "velocity": 0.5433070866141733,
                    "duration": 0.27332350000006045
                },
                {
                    "name": "D#5",
                    "midi": 75,
                    "time": 1225.3092504999918,
                    "velocity": 0.48031496062992124,
                    "duration": 0.27332350000006045
                },
                {
                    "name": "F5",
                    "midi": 77,
                    "time": 1225.5825739999918,
                    "velocity": 0.5196850393700787,
                    "duration": 0.27332350000006045
                },
                {
                    "name": "G5",
                    "midi": 79,
                    "time": 1225.855897499992,
                    "velocity": 0.5275590551181102,
                    "duration": 0.27332350000006045
                },
                {
                    "name": "A5",
                    "midi": 81,
                    "time": 1226.129220999992,
                    "velocity": 0.5354330708661418,
                    "duration": 0.27332350000006045
                },
                {
                    "name": "A#5",
                    "midi": 82,
                    "time": 1226.402544499992,
                    "velocity": 0.5433070866141733,
                    "duration": 0.27332350000006045
                },
                {
                    "name": "F5",
                    "midi": 77,
                    "time": 1226.675867999992,
                    "velocity": 0.6141732283464567,
                    "duration": 1.093293999999787
                },
                {
                    "name": "D4",
                    "midi": 62,
                    "time": 1227.222514999992,
                    "velocity": 0.5748031496062992,
                    "duration": 0.5466469999998935
                },
                {
                    "name": "D5",
                    "midi": 74,
                    "time": 1227.7691619999919,
                    "velocity": 0.5905511811023622,
                    "duration": 0.5466469999998935
                },
                {
                    "name": "F5",
                    "midi": 77,
                    "time": 1228.3158089999918,
                    "velocity": 0.5433070866141733,
                    "duration": 0.27332350000006045
                },
                {
                    "name": "G5",
                    "midi": 79,
                    "time": 1228.5891324999918,
                    "velocity": 0.48031496062992124,
                    "duration": 0.27332350000006045
                },
                {
                    "name": "A5",
                    "midi": 81,
                    "time": 1228.8624559999919,
                    "velocity": 0.5196850393700787,
                    "duration": 0.27332350000006045
                },
                {
                    "name": "A#5",
                    "midi": 82,
                    "time": 1229.135779499992,
                    "velocity": 0.5275590551181102,
                    "duration": 0.27332350000006045
                },
                {
                    "name": "C6",
                    "midi": 84,
                    "time": 1229.409102999992,
                    "velocity": 0.5354330708661418,
                    "duration": 0.27332350000006045
                },
                {
                    "name": "D6",
                    "midi": 86,
                    "time": 1229.682426499992,
                    "velocity": 0.5433070866141733,
                    "duration": 0.27332350000006045
                },
                {
                    "name": "G5",
                    "midi": 79,
                    "time": 1229.9557499999921,
                    "velocity": 0.6141732283464567,
                    "duration": 1.093293999999787
                },
                {
                    "name": "D#4",
                    "midi": 63,
                    "time": 1230.502396999992,
                    "velocity": 0.5748031496062992,
                    "duration": 0.5466469999998935
                },
                {
                    "name": "D#5",
                    "midi": 75,
                    "time": 1231.049043999992,
                    "velocity": 0.5905511811023622,
                    "duration": 0.5466469999998935
                },
                {
                    "name": "G5",
                    "midi": 79,
                    "time": 1231.5956909999918,
                    "velocity": 0.5433070866141733,
                    "duration": 0.27332350000006045
                },
                {
                    "name": "A5",
                    "midi": 81,
                    "time": 1231.8690144999919,
                    "velocity": 0.48031496062992124,
                    "duration": 0.27332350000006045
                },
                {
                    "name": "A#5",
                    "midi": 82,
                    "time": 1232.142337999992,
                    "velocity": 0.5196850393700787,
                    "duration": 0.27332350000006045
                },
                {
                    "name": "B5",
                    "midi": 83,
                    "time": 1232.415661499992,
                    "velocity": 0.5275590551181102,
                    "duration": 0.27332350000006045
                },
                {
                    "name": "C6",
                    "midi": 84,
                    "time": 1232.688984999992,
                    "velocity": 0.5354330708661418,
                    "duration": 0.27332350000006045
                },
                {
                    "name": "D6",
                    "midi": 86,
                    "time": 1232.962308499992,
                    "velocity": 0.5433070866141733,
                    "duration": 0.27332350000006045
                },
                {
                    "name": "D#6",
                    "midi": 87,
                    "time": 1233.2356319999922,
                    "velocity": 0.6141732283464567,
                    "duration": 0.5466469999998935
                },
                {
                    "name": "E6",
                    "midi": 88,
                    "time": 1233.782278999992,
                    "velocity": 0.6535433070866141,
                    "duration": 0.819970499999954
                },
                {
                    "name": "F6",
                    "midi": 89,
                    "time": 1234.602249499992,
                    "velocity": 0.5748031496062992,
                    "duration": 0.27332350000006045
                },
                {
                    "name": "D#6",
                    "midi": 87,
                    "time": 1234.875572999992,
                    "velocity": 0.6377952755905512,
                    "duration": 0.27332350000006045
                },
                {
                    "name": "D6",
                    "midi": 86,
                    "time": 1235.1488964999921,
                    "velocity": 0.6141732283464567,
                    "duration": 0.27332350000006045
                },
                {
                    "name": "C6",
                    "midi": 84,
                    "time": 1235.4222199999922,
                    "velocity": 0.6220472440944882,
                    "duration": 0.27332350000006045
                },
                {
                    "name": "A#5",
                    "midi": 82,
                    "time": 1235.6955434999923,
                    "velocity": 0.5905511811023622,
                    "duration": 0.27332350000006045
                },
                {
                    "name": "A5",
                    "midi": 81,
                    "time": 1235.9688669999923,
                    "velocity": 0.5905511811023622,
                    "duration": 0.27332350000006045
                },
                {
                    "name": "G5",
                    "midi": 79,
                    "time": 1236.2421904999924,
                    "velocity": 0.5905511811023622,
                    "duration": 0.27332350000006045
                },
                {
                    "name": "F5",
                    "midi": 77,
                    "time": 1236.5155139999924,
                    "velocity": 0.6299212598425197,
                    "duration": 0.27332350000006045
                },
                {
                    "name": "G5",
                    "midi": 79,
                    "time": 1236.7888374999925,
                    "velocity": 0.5511811023622047,
                    "duration": 0.27332350000006045
                },
                {
                    "name": "F5",
                    "midi": 77,
                    "time": 1237.0621609999926,
                    "velocity": 0.5984251968503937,
                    "duration": 0.27332350000006045
                },
                {
                    "name": "D#5",
                    "midi": 75,
                    "time": 1237.3354844999926,
                    "velocity": 0.5354330708661418,
                    "duration": 0.27332350000006045
                },
                {
                    "name": "D5",
                    "midi": 74,
                    "time": 1237.6088079999927,
                    "velocity": 0.5826771653543307,
                    "duration": 0.27332350000006045
                },
                {
                    "name": "D#5",
                    "midi": 75,
                    "time": 1237.8821314999927,
                    "velocity": 0.5354330708661418,
                    "duration": 0.27332350000006045
                },
                {
                    "name": "F5",
                    "midi": 77,
                    "time": 1238.1554549999928,
                    "velocity": 0.5748031496062992,
                    "duration": 0.27332350000006045
                },
                {
                    "name": "E5",
                    "midi": 76,
                    "time": 1238.4287784999929,
                    "velocity": 0.5196850393700787,
                    "duration": 0.27332350000006045
                },
                {
                    "name": "F5",
                    "midi": 77,
                    "time": 1238.702101999993,
                    "velocity": 0.6141732283464567,
                    "duration": 0.5466469999998935
                },
                {
                    "name": "B3",
                    "midi": 59,
                    "time": 1240.8886899999927,
                    "velocity": 0.6141732283464567,
                    "duration": 0.5466469999998935
                },
                {
                    "name": "D#5",
                    "midi": 75,
                    "time": 1241.9819839999925,
                    "velocity": 0.5039370078740157,
                    "duration": 0.18221566666670697
                },
                {
                    "name": "F5",
                    "midi": 77,
                    "time": 1242.1641996666592,
                    "velocity": 0.4645669291338583,
                    "duration": 0.18221566666670697
                },
                {
                    "name": "D#5",
                    "midi": 75,
                    "time": 1242.346415333326,
                    "velocity": 0.5039370078740157,
                    "duration": 0.18221566666670697
                },
                {
                    "name": "F5",
                    "midi": 77,
                    "time": 1242.5286309999926,
                    "velocity": 0.4645669291338583,
                    "duration": 0.18221566666670697
                },
                {
                    "name": "D#5",
                    "midi": 75,
                    "time": 1242.7108466666593,
                    "velocity": 0.5039370078740157,
                    "duration": 0.18221566666670697
                },
                {
                    "name": "F5",
                    "midi": 77,
                    "time": 1242.893062333326,
                    "velocity": 0.4566929133858268,
                    "duration": 0.18221566666670697
                },
                {
                    "name": "D#5",
                    "midi": 75,
                    "time": 1243.0752779999927,
                    "velocity": 0.5039370078740157,
                    "duration": 0.18221566666670697
                },
                {
                    "name": "F5",
                    "midi": 77,
                    "time": 1243.2574936666595,
                    "velocity": 0.4645669291338583,
                    "duration": 0.18221566666670697
                },
                {
                    "name": "D#5",
                    "midi": 75,
                    "time": 1243.4397093333262,
                    "velocity": 0.5039370078740157,
                    "duration": 0.18221566666670697
                },
                {
                    "name": "F5",
                    "midi": 77,
                    "time": 1243.6219249999929,
                    "velocity": 0.4566929133858268,
                    "duration": 0.13666175000003022
                },
                {
                    "name": "D#5",
                    "midi": 75,
                    "time": 1243.758586749993,
                    "velocity": 0.48031496062992124,
                    "duration": 0.13666175000003022
                },
                {
                    "name": "D5",
                    "midi": 74,
                    "time": 1243.895248499993,
                    "velocity": 0.4566929133858268,
                    "duration": 0.13666175000003022
                },
                {
                    "name": "D#5",
                    "midi": 75,
                    "time": 1244.031910249993,
                    "velocity": 0.4566929133858268,
                    "duration": 0.13666175000003022
                },
                {
                    "name": "G5",
                    "midi": 79,
                    "time": 1244.168571999993,
                    "velocity": 0.5039370078740157,
                    "duration": 1.0932940000000144
                },
                {
                    "name": "G5",
                    "midi": 79,
                    "time": 1245.808512999993,
                    "velocity": 0.5748031496062992,
                    "duration": 0.27332350000006045
                },
                {
                    "name": "F5",
                    "midi": 77,
                    "time": 1246.081836499993,
                    "velocity": 0.5826771653543307,
                    "duration": 0.27332350000006045
                },
                {
                    "name": "D#5",
                    "midi": 75,
                    "time": 1246.355159999993,
                    "velocity": 0.5669291338582677,
                    "duration": 0.27332350000006045
                },
                {
                    "name": "D5",
                    "midi": 74,
                    "time": 1246.628483499993,
                    "velocity": 0.5433070866141733,
                    "duration": 0.27332350000006045
                },
                {
                    "name": "C5",
                    "midi": 72,
                    "time": 1246.9018069999931,
                    "velocity": 0.5275590551181102,
                    "duration": 0.27332350000006045
                },
                {
                    "name": "B4",
                    "midi": 71,
                    "time": 1247.1751304999932,
                    "velocity": 0.5039370078740157,
                    "duration": 0.27332350000006045
                },
                {
                    "name": "C5",
                    "midi": 72,
                    "time": 1247.4484539999933,
                    "velocity": 0.5748031496062992,
                    "duration": 1.0932940000000144
                },
                {
                    "name": "G4",
                    "midi": 67,
                    "time": 1248.5417479999933,
                    "velocity": 0.5748031496062992,
                    "duration": 1.0932940000000144
                },
                {
                    "name": "C5",
                    "midi": 72,
                    "time": 1249.0883949999932,
                    "velocity": 0.5748031496062992,
                    "duration": 0.27332350000006045
                },
                {
                    "name": "A#4",
                    "midi": 70,
                    "time": 1249.3617184999932,
                    "velocity": 0.5511811023622047,
                    "duration": 0.27332350000006045
                },
                {
                    "name": "C4",
                    "midi": 60,
                    "time": 1249.6350419999933,
                    "velocity": 0.5748031496062992,
                    "duration": 1.0932940000002418
                },
                {
                    "name": "A4",
                    "midi": 69,
                    "time": 1249.6350419999933,
                    "velocity": 0.5669291338582677,
                    "duration": 0.27332350000006045
                },
                {
                    "name": "G4",
                    "midi": 67,
                    "time": 1249.9083654999934,
                    "velocity": 0.5433070866141733,
                    "duration": 0.27332350000006045
                },
                {
                    "name": "F4",
                    "midi": 65,
                    "time": 1250.1816889999934,
                    "velocity": 0.5275590551181102,
                    "duration": 0.27332350000006045
                },
                {
                    "name": "E4",
                    "midi": 64,
                    "time": 1250.4550124999935,
                    "velocity": 0.5039370078740157,
                    "duration": 0.27332350000006045
                },
                {
                    "name": "D4",
                    "midi": 62,
                    "time": 1250.7283359999935,
                    "velocity": 0.5039370078740157,
                    "duration": 0.27332350000006045
                },
                {
                    "name": "C4",
                    "midi": 60,
                    "time": 1251.0016594999936,
                    "velocity": 0.48031496062992124,
                    "duration": 0.27332350000006045
                },
                {
                    "name": "A#3",
                    "midi": 58,
                    "time": 1251.2749829999937,
                    "velocity": 0.4645669291338583,
                    "duration": 0.27332350000006045
                },
                {
                    "name": "A3",
                    "midi": 57,
                    "time": 1251.5483064999937,
                    "velocity": 0.4566929133858268,
                    "duration": 0.27332350000006045
                },
                {
                    "name": "A4",
                    "midi": 69,
                    "time": 1251.8216299999938,
                    "velocity": 0.5748031496062992,
                    "duration": 0.5466469999998935
                },
                {
                    "name": "D4",
                    "midi": 62,
                    "time": 1252.3682769999937,
                    "velocity": 0.5354330708661418,
                    "duration": 0.27332350000006045
                },
                {
                    "name": "C4",
                    "midi": 60,
                    "time": 1252.6416004999937,
                    "velocity": 0.5039370078740157,
                    "duration": 0.27332350000006045
                },
                {
                    "name": "A#3",
                    "midi": 58,
                    "time": 1252.9149239999938,
                    "velocity": 0.5354330708661418,
                    "duration": 0.27332350000006045
                },
                {
                    "name": "A3",
                    "midi": 57,
                    "time": 1253.1882474999938,
                    "velocity": 0.5118110236220472,
                    "duration": 0.27332350000006045
                },
                {
                    "name": "G3",
                    "midi": 55,
                    "time": 1253.461570999994,
                    "velocity": 0.49606299212598426,
                    "duration": 0.27332350000006045
                },
                {
                    "name": "F3",
                    "midi": 53,
                    "time": 1253.734894499994,
                    "velocity": 0.47244094488188976,
                    "duration": 0.27332350000006045
                },
                {
                    "name": "E3",
                    "midi": 52,
                    "time": 1254.008217999994,
                    "velocity": 0.5039370078740157,
                    "duration": 0.27332350000006045
                },
                {
                    "name": "D3",
                    "midi": 50,
                    "time": 1254.281541499994,
                    "velocity": 0.5039370078740157,
                    "duration": 0.27332350000006045
                },
                {
                    "name": "C3",
                    "midi": 48,
                    "time": 1254.5548649999942,
                    "velocity": 0.4881889763779528,
                    "duration": 0.27332350000006045
                },
                {
                    "name": "A#2",
                    "midi": 46,
                    "time": 1254.8281884999942,
                    "velocity": 0.48031496062992124,
                    "duration": 0.27332350000006045
                },
                {
                    "name": "D#5",
                    "midi": 75,
                    "time": 1255.6481589999942,
                    "velocity": 0.5984251968503937,
                    "duration": 0.27332350000006045
                },
                {
                    "name": "D5",
                    "midi": 74,
                    "time": 1255.9214824999942,
                    "velocity": 0.5590551181102362,
                    "duration": 0.27332350000006045
                },
                {
                    "name": "C5",
                    "midi": 72,
                    "time": 1256.1948059999943,
                    "velocity": 0.6062992125984252,
                    "duration": 0.27332350000006045
                },
                {
                    "name": "A#4",
                    "midi": 70,
                    "time": 1256.4681294999943,
                    "velocity": 0.5826771653543307,
                    "duration": 0.27332350000006045
                },
                {
                    "name": "A4",
                    "midi": 69,
                    "time": 1256.7414529999944,
                    "velocity": 0.5590551181102362,
                    "duration": 0.27332350000006045
                },
                {
                    "name": "G4",
                    "midi": 67,
                    "time": 1257.0147764999945,
                    "velocity": 0.5354330708661418,
                    "duration": 0.27332350000006045
                },
                {
                    "name": "F4",
                    "midi": 65,
                    "time": 1257.2880999999945,
                    "velocity": 0.5826771653543307,
                    "duration": 0.27332350000006045
                },
                {
                    "name": "D#4",
                    "midi": 63,
                    "time": 1257.5614234999946,
                    "velocity": 0.5748031496062992,
                    "duration": 0.27332350000006045
                },
                {
                    "name": "D4",
                    "midi": 62,
                    "time": 1257.8347469999946,
                    "velocity": 0.5590551181102362,
                    "duration": 0.27332350000006045
                },
                {
                    "name": "C4",
                    "midi": 60,
                    "time": 1258.1080704999947,
                    "velocity": 0.5433070866141733,
                    "duration": 0.27332350000006045
                },
                {
                    "name": "C5",
                    "midi": 72,
                    "time": 1258.3813939999948,
                    "velocity": 0.6062992125984252,
                    "duration": 0.5466469999998935
                },
                {
                    "name": "C4",
                    "midi": 60,
                    "time": 1258.9280409999947,
                    "velocity": 0.5826771653543307,
                    "duration": 0.27332350000006045
                },
                {
                    "name": "A#3",
                    "midi": 58,
                    "time": 1259.2013644999947,
                    "velocity": 0.5511811023622047,
                    "duration": 0.27332350000006045
                },
                {
                    "name": "A3",
                    "midi": 57,
                    "time": 1259.4746879999948,
                    "velocity": 0.5984251968503937,
                    "duration": 0.27332350000006045
                },
                {
                    "name": "G3",
                    "midi": 55,
                    "time": 1259.7480114999948,
                    "velocity": 0.5669291338582677,
                    "duration": 0.27332350000006045
                },
                {
                    "name": "F3",
                    "midi": 53,
                    "time": 1260.021334999995,
                    "velocity": 0.5511811023622047,
                    "duration": 0.27332350000006045
                },
                {
                    "name": "D#3",
                    "midi": 51,
                    "time": 1260.294658499995,
                    "velocity": 0.5354330708661418,
                    "duration": 0.27332350000006045
                },
                {
                    "name": "D3",
                    "midi": 50,
                    "time": 1260.567981999995,
                    "velocity": 0.5669291338582677,
                    "duration": 0.27332350000006045
                },
                {
                    "name": "C4",
                    "midi": 60,
                    "time": 1260.841305499995,
                    "velocity": 0.6220472440944882,
                    "duration": 0.27332350000006045
                },
                {
                    "name": "A#3",
                    "midi": 58,
                    "time": 1261.1146289999951,
                    "velocity": 0.5433070866141733,
                    "duration": 0.27332350000006045
                },
                {
                    "name": "A3",
                    "midi": 57,
                    "time": 1261.3879524999952,
                    "velocity": 0.5196850393700787,
                    "duration": 0.27332350000006045
                },
                {
                    "name": "D4",
                    "midi": 62,
                    "time": 1261.6612759999953,
                    "velocity": 0.48031496062992124,
                    "duration": 0.5466470000001209
                },
                {
                    "name": "D5",
                    "midi": 74,
                    "time": 1261.6612759999953,
                    "velocity": 0.5984251968503937,
                    "duration": 0.27332350000006045
                },
                {
                    "name": "C5",
                    "midi": 72,
                    "time": 1261.9345994999953,
                    "velocity": 0.5669291338582677,
                    "duration": 0.27332350000006045
                },
                {
                    "name": "F5",
                    "midi": 77,
                    "time": 1262.2079229999954,
                    "velocity": 0.5984251968503937,
                    "duration": 0.27332350000006045
                },
                {
                    "name": "D#5",
                    "midi": 75,
                    "time": 1262.4812464999954,
                    "velocity": 0.5590551181102362,
                    "duration": 0.27332350000006045
                },
                {
                    "name": "D5",
                    "midi": 74,
                    "time": 1262.7545699999955,
                    "velocity": 0.6220472440944882,
                    "duration": 0.27332350000006045
                },
                {
                    "name": "C5",
                    "midi": 72,
                    "time": 1263.0278934999956,
                    "velocity": 0.5984251968503937,
                    "duration": 0.27332350000006045
                },
                {
                    "name": "A#4",
                    "midi": 70,
                    "time": 1263.3012169999956,
                    "velocity": 0.5826771653543307,
                    "duration": 0.27332350000006045
                },
                {
                    "name": "A4",
                    "midi": 69,
                    "time": 1263.5745404999957,
                    "velocity": 0.5590551181102362,
                    "duration": 0.27332350000006045
                },
                {
                    "name": "G5",
                    "midi": 79,
                    "time": 1263.8478639999958,
                    "velocity": 0.6141732283464567,
                    "duration": 0.27332350000006045
                },
                {
                    "name": "F5",
                    "midi": 77,
                    "time": 1264.1211874999958,
                    "velocity": 0.5984251968503937,
                    "duration": 0.27332350000006045
                },
                {
                    "name": "D#5",
                    "midi": 75,
                    "time": 1264.3945109999959,
                    "velocity": 0.5748031496062992,
                    "duration": 0.27332350000006045
                },
                {
                    "name": "D5",
                    "midi": 74,
                    "time": 1264.667834499996,
                    "velocity": 0.5590551181102362,
                    "duration": 0.27332350000006045
                },
                {
                    "name": "D5",
                    "midi": 74,
                    "time": 1264.941157999996,
                    "velocity": 0.48031496062992124,
                    "duration": 1.0932940000002418
                },
                {
                    "name": "A#5",
                    "midi": 82,
                    "time": 1264.941157999996,
                    "velocity": 0.6377952755905512,
                    "duration": 0.27332350000006045
                },
                {
                    "name": "A5",
                    "midi": 81,
                    "time": 1265.214481499996,
                    "velocity": 0.6141732283464567,
                    "duration": 0.27332350000006045
                },
                {
                    "name": "G5",
                    "midi": 79,
                    "time": 1265.4878049999961,
                    "velocity": 0.5905511811023622,
                    "duration": 0.27332350000006045
                },
                {
                    "name": "F5",
                    "midi": 77,
                    "time": 1265.7611284999962,
                    "velocity": 0.5669291338582677,
                    "duration": 0.27332350000006045
                },
                {
                    "name": "G4",
                    "midi": 67,
                    "time": 1266.0344519999962,
                    "velocity": 0.6771653543307087,
                    "duration": 0.5466469999998935
                },
                {
                    "name": "D#5",
                    "midi": 75,
                    "time": 1266.0344519999962,
                    "velocity": 0.6771653543307087,
                    "duration": 0.5466469999998935
                },
                {
                    "name": "C5",
                    "midi": 72,
                    "time": 1266.5810989999961,
                    "velocity": 0.6771653543307087,
                    "duration": 0.5466469999998935
                },
                {
                    "name": "A6",
                    "midi": 93,
                    "time": 1267.127745999996,
                    "velocity": 0.6771653543307087,
                    "duration": 0.18221566666670697
                },
                {
                    "name": "A#6",
                    "midi": 94,
                    "time": 1267.3099616666627,
                    "velocity": 0.6456692913385826,
                    "duration": 0.18221566666670697
                },
                {
                    "name": "A6",
                    "midi": 93,
                    "time": 1267.4921773333294,
                    "velocity": 0.6771653543307087,
                    "duration": 0.18221566666670697
                },
                {
                    "name": "C6",
                    "midi": 84,
                    "time": 1267.6743929999961,
                    "velocity": 0.6771653543307087,
                    "duration": 0.5466470000001209
                },
                {
                    "name": "A#6",
                    "midi": 94,
                    "time": 1267.6743929999961,
                    "velocity": 0.6377952755905512,
                    "duration": 0.18221566666670697
                },
                {
                    "name": "A6",
                    "midi": 93,
                    "time": 1267.8566086666629,
                    "velocity": 0.6771653543307087,
                    "duration": 0.18221566666670697
                },
                {
                    "name": "A#6",
                    "midi": 94,
                    "time": 1268.0388243333296,
                    "velocity": 0.6377952755905512,
                    "duration": 0.18221566666670697
                },
                {
                    "name": "A6",
                    "midi": 93,
                    "time": 1268.2210399999963,
                    "velocity": 0.6771653543307087,
                    "duration": 0.18221566666670697
                },
                {
                    "name": "A#6",
                    "midi": 94,
                    "time": 1268.403255666663,
                    "velocity": 0.6299212598425197,
                    "duration": 0.18221566666670697
                },
                {
                    "name": "A6",
                    "midi": 93,
                    "time": 1268.5854713333297,
                    "velocity": 0.6771653543307087,
                    "duration": 0.18221566666670697
                },
                {
                    "name": "A#6",
                    "midi": 94,
                    "time": 1268.7676869999964,
                    "velocity": 0.6771653543307087,
                    "duration": 0.13666175000003022
                },
                {
                    "name": "F6",
                    "midi": 89,
                    "time": 1268.7676869999964,
                    "velocity": 0.6456692913385826,
                    "duration": 0.5466470000001209
                },
                {
                    "name": "A6",
                    "midi": 93,
                    "time": 1268.9043487499964,
                    "velocity": 0.6377952755905512,
                    "duration": 0.13666175000003022
                },
                {
                    "name": "G6",
                    "midi": 91,
                    "time": 1269.0410104999964,
                    "velocity": 0.6299212598425197,
                    "duration": 0.13666175000003022
                },
                {
                    "name": "A6",
                    "midi": 93,
                    "time": 1269.1776722499965,
                    "velocity": 0.6299212598425197,
                    "duration": 0.13666175000003022
                },
                {
                    "name": "A#6",
                    "midi": 94,
                    "time": 1269.3143339999965,
                    "velocity": 0.7086614173228346,
                    "duration": 1.093293999999787
                },
                {
                    "name": "D6",
                    "midi": 86,
                    "time": 1269.8609809999964,
                    "velocity": 0.6929133858267716,
                    "duration": 0.5466469999998935
                },
                {
                    "name": "A#6",
                    "midi": 94,
                    "time": 1270.9542749999962,
                    "velocity": 0.6929133858267716,
                    "duration": 0.27332350000006045
                },
                {
                    "name": "A6",
                    "midi": 93,
                    "time": 1271.2275984999962,
                    "velocity": 0.6771653543307087,
                    "duration": 0.27332350000006045
                },
                {
                    "name": "G6",
                    "midi": 91,
                    "time": 1271.5009219999963,
                    "velocity": 0.6535433070866141,
                    "duration": 0.27332350000006045
                },
                {
                    "name": "F6",
                    "midi": 89,
                    "time": 1271.7742454999964,
                    "velocity": 0.6377952755905512,
                    "duration": 0.27332350000006045
                },
                {
                    "name": "D#6",
                    "midi": 87,
                    "time": 1272.0475689999964,
                    "velocity": 0.6141732283464567,
                    "duration": 0.27332350000006045
                },
                {
                    "name": "D6",
                    "midi": 86,
                    "time": 1272.3208924999965,
                    "velocity": 0.5984251968503937,
                    "duration": 0.27332350000006045
                },
                {
                    "name": "D#4",
                    "midi": 63,
                    "time": 1272.5942159999965,
                    "velocity": 0.6062992125984252,
                    "duration": 0.5466469999998935
                },
                {
                    "name": "G6",
                    "midi": 91,
                    "time": 1272.5942159999965,
                    "velocity": 0.6929133858267716,
                    "duration": 0.5466469999998935
                },
                {
                    "name": "G5",
                    "midi": 79,
                    "time": 1273.1408629999964,
                    "velocity": 0.6377952755905512,
                    "duration": 0.5466469999998935
                },
                {
                    "name": "G5",
                    "midi": 79,
                    "time": 1273.6875099999963,
                    "velocity": 0.5433070866141733,
                    "duration": 0.18221566666670697
                },
                {
                    "name": "A5",
                    "midi": 81,
                    "time": 1273.869725666663,
                    "velocity": 0.5039370078740157,
                    "duration": 0.18221566666670697
                },
                {
                    "name": "G5",
                    "midi": 79,
                    "time": 1274.0519413333298,
                    "velocity": 0.5354330708661418,
                    "duration": 0.18221566666670697
                },
                {
                    "name": "A5",
                    "midi": 81,
                    "time": 1274.2341569999965,
                    "velocity": 0.5196850393700787,
                    "duration": 0.18221566666670697
                },
                {
                    "name": "G6",
                    "midi": 91,
                    "time": 1274.2341569999965,
                    "velocity": 0.6929133858267716,
                    "duration": 0.27332350000006045
                },
                {
                    "name": "G5",
                    "midi": 79,
                    "time": 1274.4163726666632,
                    "velocity": 0.5433070866141733,
                    "duration": 0.18221566666670697
                },
                {
                    "name": "F6",
                    "midi": 89,
                    "time": 1274.5074804999965,
                    "velocity": 0.6771653543307087,
                    "duration": 0.27332350000006045
                },
                {
                    "name": "A5",
                    "midi": 81,
                    "time": 1274.5985883333299,
                    "velocity": 0.5196850393700787,
                    "duration": 0.18221566666670697
                },
                {
                    "name": "G5",
                    "midi": 79,
                    "time": 1274.7808039999966,
                    "velocity": 0.5590551181102362,
                    "duration": 0.18221566666670697
                },
                {
                    "name": "D#6",
                    "midi": 87,
                    "time": 1274.7808039999966,
                    "velocity": 0.6535433070866141,
                    "duration": 0.27332350000006045
                },
                {
                    "name": "A5",
                    "midi": 81,
                    "time": 1274.9630196666633,
                    "velocity": 0.5118110236220472,
                    "duration": 0.18221566666670697
                },
                {
                    "name": "D6",
                    "midi": 86,
                    "time": 1275.0541274999966,
                    "velocity": 0.6377952755905512,
                    "duration": 0.27332350000006045
                },
                {
                    "name": "G5",
                    "midi": 79,
                    "time": 1275.14523533333,
                    "velocity": 0.5590551181102362,
                    "duration": 0.18221566666670697
                },
                {
                    "name": "A5",
                    "midi": 81,
                    "time": 1275.3274509999967,
                    "velocity": 0.5433070866141733,
                    "duration": 0.18221566666670697
                },
                {
                    "name": "C6",
                    "midi": 84,
                    "time": 1275.3274509999967,
                    "velocity": 0.6141732283464567,
                    "duration": 0.27332350000006045
                },
                {
                    "name": "G5",
                    "midi": 79,
                    "time": 1275.5096666666634,
                    "velocity": 0.5748031496062992,
                    "duration": 0.18221566666670697
                },
                {
                    "name": "A#5",
                    "midi": 82,
                    "time": 1275.6007744999968,
                    "velocity": 0.5984251968503937,
                    "duration": 0.27332350000006045
                },
                {
                    "name": "A5",
                    "midi": 81,
                    "time": 1275.69188233333,
                    "velocity": 0.5275590551181102,
                    "duration": 0.18221566666670697
                },
                {
                    "name": "D#6",
                    "midi": 87,
                    "time": 1275.8740979999968,
                    "velocity": 0.6929133858267716,
                    "duration": 1.0932940000000144
                },
                {
                    "name": "G5",
                    "midi": 79,
                    "time": 1275.8740979999968,
                    "velocity": 0.5905511811023622,
                    "duration": 0.18221566666670697
                },
                {
                    "name": "A5",
                    "midi": 81,
                    "time": 1276.0563136666635,
                    "velocity": 0.5511811023622047,
                    "duration": 0.18221566666670697
                },
                {
                    "name": "G5",
                    "midi": 79,
                    "time": 1276.2385293333302,
                    "velocity": 0.5826771653543307,
                    "duration": 0.18221566666670697
                },
                {
                    "name": "G#5",
                    "midi": 80,
                    "time": 1276.420744999997,
                    "velocity": 0.5669291338582677,
                    "duration": 0.5466469999998935
                },
                {
                    "name": "A5",
                    "midi": 81,
                    "time": 1276.9673919999968,
                    "velocity": 0.6141732283464567,
                    "duration": 0.5466469999998935
                },
                {
                    "name": "D#6",
                    "midi": 87,
                    "time": 1277.5140389999967,
                    "velocity": 0.6929133858267716,
                    "duration": 0.27332350000006045
                },
                {
                    "name": "D6",
                    "midi": 86,
                    "time": 1277.7873624999968,
                    "velocity": 0.6456692913385826,
                    "duration": 0.27332350000006045
                },
                {
                    "name": "C6",
                    "midi": 84,
                    "time": 1278.0606859999968,
                    "velocity": 0.6929133858267716,
                    "duration": 0.27332350000006045
                },
                {
                    "name": "D6",
                    "midi": 86,
                    "time": 1278.334009499997,
                    "velocity": 0.6456692913385826,
                    "duration": 0.27332350000006045
                },
                {
                    "name": "E4",
                    "midi": 64,
                    "time": 1278.607332999997,
                    "velocity": 0.5275590551181102,
                    "duration": 0.5466470000001209
                },
                {
                    "name": "C6",
                    "midi": 84,
                    "time": 1278.607332999997,
                    "velocity": 0.6535433070866141,
                    "duration": 0.27332350000006045
                },
                {
                    "name": "A#5",
                    "midi": 82,
                    "time": 1278.880656499997,
                    "velocity": 0.6535433070866141,
                    "duration": 0.27332350000006045
                },
                {
                    "name": "F4",
                    "midi": 65,
                    "time": 1279.153979999997,
                    "velocity": 0.5669291338582677,
                    "duration": 0.5466470000001209
                },
                {
                    "name": "A5",
                    "midi": 81,
                    "time": 1279.153979999997,
                    "velocity": 0.6929133858267716,
                    "duration": 0.27332350000006045
                },
                {
                    "name": "A#5",
                    "midi": 82,
                    "time": 1279.4273034999972,
                    "velocity": 0.6535433070866141,
                    "duration": 0.27332350000006045
                },
                {
                    "name": "A5",
                    "midi": 81,
                    "time": 1279.7006269999972,
                    "velocity": 0.6535433070866141,
                    "duration": 0.27332350000006045
                },
                {
                    "name": "G5",
                    "midi": 79,
                    "time": 1279.9739504999973,
                    "velocity": 0.6535433070866141,
                    "duration": 0.27332350000006045
                },
                {
                    "name": "F5",
                    "midi": 77,
                    "time": 1280.2472739999973,
                    "velocity": 0.6929133858267716,
                    "duration": 0.27332350000006045
                },
                {
                    "name": "G5",
                    "midi": 79,
                    "time": 1280.5205974999974,
                    "velocity": 0.6456692913385826,
                    "duration": 0.27332350000006045
                },
                {
                    "name": "A5",
                    "midi": 81,
                    "time": 1280.7939209999975,
                    "velocity": 0.6456692913385826,
                    "duration": 0.27332350000006045
                },
                {
                    "name": "A#5",
                    "midi": 82,
                    "time": 1281.0672444999975,
                    "velocity": 0.6456692913385826,
                    "duration": 0.27332350000006045
                },
                {
                    "name": "B5",
                    "midi": 83,
                    "time": 1281.3405679999976,
                    "velocity": 0.6614173228346457,
                    "duration": 0.27332350000006045
                },
                {
                    "name": "C6",
                    "midi": 84,
                    "time": 1281.6138914999976,
                    "velocity": 0.6692913385826772,
                    "duration": 0.27332350000006045
                },
                {
                    "name": "D6",
                    "midi": 86,
                    "time": 1281.8872149999977,
                    "velocity": 0.6771653543307087,
                    "duration": 0.27332350000006045
                },
                {
                    "name": "C6",
                    "midi": 84,
                    "time": 1282.1605384999978,
                    "velocity": 0.6614173228346457,
                    "duration": 0.27332350000006045
                },
                {
                    "name": "A#5",
                    "midi": 82,
                    "time": 1282.4338619999978,
                    "velocity": 0.7007874015748031,
                    "duration": 0.27332350000006045
                },
                {
                    "name": "C6",
                    "midi": 84,
                    "time": 1282.7071854999979,
                    "velocity": 0.7086614173228346,
                    "duration": 0.27332350000006045
                },
                {
                    "name": "D6",
                    "midi": 86,
                    "time": 1282.980508999998,
                    "velocity": 0.7244094488188977,
                    "duration": 0.27332350000006045
                },
                {
                    "name": "D#6",
                    "midi": 87,
                    "time": 1283.253832499998,
                    "velocity": 0.7401574803149606,
                    "duration": 0.27332350000006045
                },
                {
                    "name": "F6",
                    "midi": 89,
                    "time": 1283.527155999998,
                    "velocity": 0.7559055118110236,
                    "duration": 0.27332350000006045
                },
                {
                    "name": "G#5",
                    "midi": 80,
                    "time": 1283.8004794999981,
                    "velocity": 0.6456692913385826,
                    "duration": 0.27332350000006045
                },
                {
                    "name": "A5",
                    "midi": 81,
                    "time": 1284.0738029999982,
                    "velocity": 0.6535433070866141,
                    "duration": 0.27332350000006045
                },
                {
                    "name": "A#5",
                    "midi": 82,
                    "time": 1284.3471264999982,
                    "velocity": 0.6850393700787402,
                    "duration": 0.27332350000006045
                },
                {
                    "name": "C6",
                    "midi": 84,
                    "time": 1284.6204499999983,
                    "velocity": 0.7480314960629921,
                    "duration": 0.5466469999998935
                },
                {
                    "name": "A#5",
                    "midi": 82,
                    "time": 1285.1670969999982,
                    "velocity": 0.6929133858267716,
                    "duration": 0.5466469999998935
                },
                {
                    "name": "G5",
                    "midi": 79,
                    "time": 1285.713743999998,
                    "velocity": 0.6299212598425197,
                    "duration": 0.5466469999998935
                },
                {
                    "name": "A#5",
                    "midi": 82,
                    "time": 1285.713743999998,
                    "velocity": 0.7480314960629921,
                    "duration": 0.5466469999998935
                },
                {
                    "name": "F5",
                    "midi": 77,
                    "time": 1286.260390999998,
                    "velocity": 0.5905511811023622,
                    "duration": 0.5466469999998935
                },
                {
                    "name": "G#5",
                    "midi": 80,
                    "time": 1286.260390999998,
                    "velocity": 0.7007874015748031,
                    "duration": 0.5466469999998935
                },
                {
                    "name": "A#4",
                    "midi": 70,
                    "time": 1286.8070379999979,
                    "velocity": 0.5905511811023622,
                    "duration": 0.5466469999998935
                },
                {
                    "name": "G5",
                    "midi": 79,
                    "time": 1286.8070379999979,
                    "velocity": 0.7007874015748031,
                    "duration": 0.5466469999998935
                },
                {
                    "name": "G#4",
                    "midi": 68,
                    "time": 1287.3536849999978,
                    "velocity": 0.5590551181102362,
                    "duration": 0.5466469999998935
                },
                {
                    "name": "F5",
                    "midi": 77,
                    "time": 1287.3536849999978,
                    "velocity": 0.6614173228346457,
                    "duration": 0.5466469999998935
                },
                {
                    "name": "G#6",
                    "midi": 92,
                    "time": 1287.9003319999977,
                    "velocity": 0.7874015748031497,
                    "duration": 0.5466469999998935
                },
                {
                    "name": "F6",
                    "midi": 89,
                    "time": 1287.9003319999977,
                    "velocity": 0.6692913385826772,
                    "duration": 0.5466469999998935
                },
                {
                    "name": "D#6",
                    "midi": 87,
                    "time": 1288.4469789999976,
                    "velocity": 0.6299212598425197,
                    "duration": 0.4099852500000907
                },
                {
                    "name": "G6",
                    "midi": 91,
                    "time": 1288.4469789999976,
                    "velocity": 0.7480314960629921,
                    "duration": 0.4099852500000907
                },
                {
                    "name": "G6",
                    "midi": 91,
                    "time": 1288.9936259999977,
                    "velocity": 0.7952755905511811,
                    "duration": 0.5466469999998935
                },
                {
                    "name": "D#6",
                    "midi": 87,
                    "time": 1288.9936259999977,
                    "velocity": 0.6692913385826772,
                    "duration": 0.5466469999998935
                },
                {
                    "name": "C6",
                    "midi": 84,
                    "time": 1289.5402729999976,
                    "velocity": 0.6299212598425197,
                    "duration": 0.5466469999998935
                },
                {
                    "name": "D#6",
                    "midi": 87,
                    "time": 1289.5402729999976,
                    "velocity": 0.7480314960629921,
                    "duration": 0.5466469999998935
                },
                {
                    "name": "D6",
                    "midi": 86,
                    "time": 1290.0869199999975,
                    "velocity": 0.7795275590551181,
                    "duration": 0.5466469999998935
                },
                {
                    "name": "A#5",
                    "midi": 82,
                    "time": 1290.0869199999975,
                    "velocity": 0.6614173228346457,
                    "duration": 0.5466469999998935
                },
                {
                    "name": "F6",
                    "midi": 89,
                    "time": 1290.6335669999974,
                    "velocity": 0.7086614173228346,
                    "duration": 0.4099852500000907
                },
                {
                    "name": "D6",
                    "midi": 86,
                    "time": 1290.6335669999974,
                    "velocity": 0.5984251968503937,
                    "duration": 0.4099852500000907
                },
                {
                    "name": "C5",
                    "midi": 72,
                    "time": 1291.1802139999975,
                    "velocity": 0.6535433070866141,
                    "duration": 0.5466469999998935
                },
                {
                    "name": "D#5",
                    "midi": 75,
                    "time": 1291.1802139999975,
                    "velocity": 0.6535433070866141,
                    "duration": 0.5466469999998935
                },
                {
                    "name": "A5",
                    "midi": 81,
                    "time": 1291.1802139999975,
                    "velocity": 0.7716535433070866,
                    "duration": 0.5466469999998935
                },
                {
                    "name": "A#4",
                    "midi": 70,
                    "time": 1291.7268609999974,
                    "velocity": 0.6614173228346457,
                    "duration": 0.5466469999998935
                },
                {
                    "name": "D5",
                    "midi": 74,
                    "time": 1291.7268609999974,
                    "velocity": 0.6614173228346457,
                    "duration": 0.5466469999998935
                },
                {
                    "name": "A#5",
                    "midi": 82,
                    "time": 1291.7268609999974,
                    "velocity": 0.7795275590551181,
                    "duration": 0.5466469999998935
                },
                {
                    "name": "G#5",
                    "midi": 80,
                    "time": 1293.3668019999973,
                    "velocity": 0.4881889763779528,
                    "duration": 0.5466469999998935
                },
                {
                    "name": "F#4",
                    "midi": 66,
                    "time": 1294.460095999997,
                    "velocity": 0.3543307086614173,
                    "duration": 0.18221566666670697
                },
                {
                    "name": "G4",
                    "midi": 67,
                    "time": 1294.6423116666638,
                    "velocity": 0.33070866141732286,
                    "duration": 0.18221566666670697
                },
                {
                    "name": "F#4",
                    "midi": 66,
                    "time": 1294.8245273333305,
                    "velocity": 0.3779527559055118,
                    "duration": 0.18221566666670697
                },
                {
                    "name": "G4",
                    "midi": 67,
                    "time": 1295.0067429999972,
                    "velocity": 0.36220472440944884,
                    "duration": 0.18221566666670697
                },
                {
                    "name": "F#4",
                    "midi": 66,
                    "time": 1295.188958666664,
                    "velocity": 0.4094488188976378,
                    "duration": 0.18221566666670697
                },
                {
                    "name": "G4",
                    "midi": 67,
                    "time": 1295.3711743333306,
                    "velocity": 0.3779527559055118,
                    "duration": 0.18221566666670697
                },
                {
                    "name": "F#4",
                    "midi": 66,
                    "time": 1295.5533899999973,
                    "velocity": 0.4409448818897638,
                    "duration": 0.18221566666670697
                },
                {
                    "name": "G4",
                    "midi": 67,
                    "time": 1295.735605666664,
                    "velocity": 0.4015748031496063,
                    "duration": 0.18221566666670697
                },
                {
                    "name": "F#4",
                    "midi": 66,
                    "time": 1295.9178213333307,
                    "velocity": 0.4566929133858268,
                    "duration": 0.18221566666670697
                },
                {
                    "name": "G4",
                    "midi": 67,
                    "time": 1296.1000369999974,
                    "velocity": 0.4330708661417323,
                    "duration": 0.13666175000003022
                },
                {
                    "name": "F#4",
                    "midi": 66,
                    "time": 1296.2366987499975,
                    "velocity": 0.49606299212598426,
                    "duration": 0.13666175000003022
                },
                {
                    "name": "G4",
                    "midi": 67,
                    "time": 1296.3733604999975,
                    "velocity": 0.4566929133858268,
                    "duration": 0.13666175000003022
                },
                {
                    "name": "F#4",
                    "midi": 66,
                    "time": 1296.5100222499975,
                    "velocity": 0.47244094488188976,
                    "duration": 0.13666175000003022
                },
                {
                    "name": "F#5",
                    "midi": 78,
                    "time": 1296.6466839999975,
                    "velocity": 0.7322834645669292,
                    "duration": 0.5466469999998935
                },
                {
                    "name": "D#4",
                    "midi": 63,
                    "time": 1297.7399779999973,
                    "velocity": 0.49606299212598426,
                    "duration": 0.18221566666670697
                },
                {
                    "name": "F4",
                    "midi": 65,
                    "time": 1297.922193666664,
                    "velocity": 0.44881889763779526,
                    "duration": 0.18221566666670697
                },
                {
                    "name": "D#4",
                    "midi": 63,
                    "time": 1298.1044093333308,
                    "velocity": 0.5196850393700787,
                    "duration": 0.18221566666670697
                },
                {
                    "name": "F4",
                    "midi": 65,
                    "time": 1298.2866249999975,
                    "velocity": 0.47244094488188976,
                    "duration": 0.18221566666670697
                },
                {
                    "name": "D#4",
                    "midi": 63,
                    "time": 1298.4688406666642,
                    "velocity": 0.5433070866141733,
                    "duration": 0.18221566666670697
                },
                {
                    "name": "F4",
                    "midi": 65,
                    "time": 1298.6510563333309,
                    "velocity": 0.5039370078740157,
                    "duration": 0.18221566666670697
                },
                {
                    "name": "D#4",
                    "midi": 63,
                    "time": 1298.8332719999976,
                    "velocity": 0.5748031496062992,
                    "duration": 0.18221566666670697
                },
                {
                    "name": "F4",
                    "midi": 65,
                    "time": 1299.0154876666643,
                    "velocity": 0.5275590551181102,
                    "duration": 0.18221566666670697
                },
                {
                    "name": "D#4",
                    "midi": 63,
                    "time": 1299.197703333331,
                    "velocity": 0.5984251968503937,
                    "duration": 0.18221566666670697
                },
                {
                    "name": "F4",
                    "midi": 65,
                    "time": 1299.3799189999977,
                    "velocity": 0.5590551181102362,
                    "duration": 0.13666175000003022
                },
                {
                    "name": "D#4",
                    "midi": 63,
                    "time": 1299.5165807499977,
                    "velocity": 0.6299212598425197,
                    "duration": 0.13666175000003022
                },
                {
                    "name": "D4",
                    "midi": 62,
                    "time": 1299.6532424999978,
                    "velocity": 0.5826771653543307,
                    "duration": 0.13666175000003022
                },
                {
                    "name": "D#4",
                    "midi": 63,
                    "time": 1299.7899042499978,
                    "velocity": 0.5905511811023622,
                    "duration": 0.13666175000003022
                },
                {
                    "name": "F#4",
                    "midi": 66,
                    "time": 1299.9265659999978,
                    "velocity": 0.6535433070866141,
                    "duration": 0.27332350000006045
                },
                {
                    "name": "A2",
                    "midi": 45,
                    "time": 1300.1998894999979,
                    "velocity": 0.49606299212598426,
                    "duration": 0.27332350000006045
                },
                {
                    "name": "C3",
                    "midi": 48,
                    "time": 1300.473212999998,
                    "velocity": 0.5118110236220472,
                    "duration": 0.27332350000006045
                },
                {
                    "name": "D#3",
                    "midi": 51,
                    "time": 1300.746536499998,
                    "velocity": 0.5196850393700787,
                    "duration": 0.27332350000006045
                },
                {
                    "name": "F#3",
                    "midi": 54,
                    "time": 1301.019859999998,
                    "velocity": 0.5354330708661418,
                    "duration": 0.27332350000006045
                },
                {
                    "name": "A3",
                    "midi": 57,
                    "time": 1301.2931834999981,
                    "velocity": 0.5511811023622047,
                    "duration": 0.27332350000006045
                },
                {
                    "name": "C4",
                    "midi": 60,
                    "time": 1301.5665069999982,
                    "velocity": 0.5590551181102362,
                    "duration": 0.27332350000006045
                },
                {
                    "name": "D#4",
                    "midi": 63,
                    "time": 1301.8398304999982,
                    "velocity": 0.5748031496062992,
                    "duration": 0.27332350000006045
                },
                {
                    "name": "F#4",
                    "midi": 66,
                    "time": 1302.1131539999983,
                    "velocity": 0.6141732283464567,
                    "duration": 0.27332350000006045
                },
                {
                    "name": "A3",
                    "midi": 57,
                    "time": 1302.3864774999984,
                    "velocity": 0.5039370078740157,
                    "duration": 0.27332350000006045
                },
                {
                    "name": "C4",
                    "midi": 60,
                    "time": 1302.6598009999984,
                    "velocity": 0.5196850393700787,
                    "duration": 0.27332350000006045
                },
                {
                    "name": "D#4",
                    "midi": 63,
                    "time": 1302.9331244999985,
                    "velocity": 0.5354330708661418,
                    "duration": 0.27332350000006045
                },
                {
                    "name": "F#4",
                    "midi": 66,
                    "time": 1303.2064479999985,
                    "velocity": 0.5433070866141733,
                    "duration": 0.27332350000006045
                },
                {
                    "name": "A4",
                    "midi": 69,
                    "time": 1303.4797714999986,
                    "velocity": 0.5590551181102362,
                    "duration": 0.27332350000006045
                },
                {
                    "name": "C5",
                    "midi": 72,
                    "time": 1303.7530949999987,
                    "velocity": 0.5748031496062992,
                    "duration": 0.27332350000006045
                },
                {
                    "name": "D#5",
                    "midi": 75,
                    "time": 1304.0264184999987,
                    "velocity": 0.5905511811023622,
                    "duration": 0.27332350000006045
                },
                {
                    "name": "F#5",
                    "midi": 78,
                    "time": 1304.2997419999988,
                    "velocity": 0.6377952755905512,
                    "duration": 0.27332350000006045
                },
                {
                    "name": "A4",
                    "midi": 69,
                    "time": 1304.5730654999988,
                    "velocity": 0.5196850393700787,
                    "duration": 0.27332350000006045
                },
                {
                    "name": "C5",
                    "midi": 72,
                    "time": 1304.846388999999,
                    "velocity": 0.5275590551181102,
                    "duration": 0.27332350000006045
                },
                {
                    "name": "D#5",
                    "midi": 75,
                    "time": 1305.119712499999,
                    "velocity": 0.5433070866141733,
                    "duration": 0.27332350000006045
                },
                {
                    "name": "F#5",
                    "midi": 78,
                    "time": 1305.393035999999,
                    "velocity": 0.5590551181102362,
                    "duration": 0.27332350000006045
                },
                {
                    "name": "A5",
                    "midi": 81,
                    "time": 1305.666359499999,
                    "velocity": 0.5669291338582677,
                    "duration": 0.27332350000006045
                },
                {
                    "name": "C6",
                    "midi": 84,
                    "time": 1305.9396829999991,
                    "velocity": 0.5826771653543307,
                    "duration": 0.27332350000006045
                },
                {
                    "name": "D#6",
                    "midi": 87,
                    "time": 1306.2130064999992,
                    "velocity": 0.5984251968503937,
                    "duration": 0.27332350000006045
                },
                {
                    "name": "F#6",
                    "midi": 90,
                    "time": 1306.4863299999993,
                    "velocity": 0.6771653543307087,
                    "duration": 0.27332350000006045
                },
                {
                    "name": "A4",
                    "midi": 69,
                    "time": 1306.7596534999993,
                    "velocity": 0.5275590551181102,
                    "duration": 0.27332350000006045
                },
                {
                    "name": "C5",
                    "midi": 72,
                    "time": 1307.0329769999994,
                    "velocity": 0.5511811023622047,
                    "duration": 0.27332350000006045
                },
                {
                    "name": "D#5",
                    "midi": 75,
                    "time": 1307.3063004999995,
                    "velocity": 0.5826771653543307,
                    "duration": 0.27332350000006045
                },
                {
                    "name": "F#5",
                    "midi": 78,
                    "time": 1307.5796239999995,
                    "velocity": 0.6062992125984252,
                    "duration": 0.27332350000006045
                },
                {
                    "name": "A3",
                    "midi": 57,
                    "time": 1307.8529474999996,
                    "velocity": 0.49606299212598426,
                    "duration": 0.27332350000006045
                },
                {
                    "name": "C4",
                    "midi": 60,
                    "time": 1308.1262709999996,
                    "velocity": 0.5354330708661418,
                    "duration": 0.27332350000006045
                },
                {
                    "name": "D#4",
                    "midi": 63,
                    "time": 1308.3995944999997,
                    "velocity": 0.5669291338582677,
                    "duration": 0.27332350000006045
                },
                {
                    "name": "F#4",
                    "midi": 66,
                    "time": 1308.6729179999998,
                    "velocity": 0.5984251968503937,
                    "duration": 0.27332350000006045
                },
                {
                    "name": "A2",
                    "midi": 45,
                    "time": 1308.9462414999998,
                    "velocity": 0.5039370078740157,
                    "duration": 0.27332350000006045
                },
                {
                    "name": "C3",
                    "midi": 48,
                    "time": 1309.2195649999999,
                    "velocity": 0.5433070866141733,
                    "duration": 0.27332350000006045
                },
                {
                    "name": "D#3",
                    "midi": 51,
                    "time": 1309.4928885,
                    "velocity": 0.5826771653543307,
                    "duration": 0.27332350000006045
                },
                {
                    "name": "F#3",
                    "midi": 54,
                    "time": 1309.766212,
                    "velocity": 0.6220472440944882,
                    "duration": 1.0932940000000144
                },
                {
                    "name": "A2",
                    "midi": 45,
                    "time": 1310.859506,
                    "velocity": 0.6220472440944882,
                    "duration": 1.639940999999908
                },
                {
                    "name": "F#2",
                    "midi": 42,
                    "time": 1310.859506,
                    "velocity": 0.6220472440944882,
                    "duration": 1.639940999999908
                },
                {
                    "name": "D#3",
                    "midi": 51,
                    "time": 1310.859506,
                    "velocity": 0.6220472440944882,
                    "duration": 1.639940999999908
                },
                {
                    "name": "F2",
                    "midi": 41,
                    "time": 1312.499447,
                    "velocity": 0.5511811023622047,
                    "duration": 0.5466469999998935
                },
                {
                    "name": "G#2",
                    "midi": 44,
                    "time": 1312.499447,
                    "velocity": 0.5511811023622047,
                    "duration": 0.5466469999998935
                },
                {
                    "name": "D3",
                    "midi": 50,
                    "time": 1312.499447,
                    "velocity": 0.5511811023622047,
                    "duration": 0.5466469999998935
                },
                {
                    "name": "A#4",
                    "midi": 70,
                    "time": 1313.0460939999998,
                    "velocity": 0.3937007874015748,
                    "duration": 0.27332350000006045
                },
                {
                    "name": "G#4",
                    "midi": 68,
                    "time": 1313.3194174999999,
                    "velocity": 0.3543307086614173,
                    "duration": 0.27332350000006045
                },
                {
                    "name": "A#4",
                    "midi": 70,
                    "time": 1313.592741,
                    "velocity": 0.3937007874015748,
                    "duration": 0.27332350000006045
                },
                {
                    "name": "G#4",
                    "midi": 68,
                    "time": 1313.8660645,
                    "velocity": 0.3543307086614173,
                    "duration": 0.27332350000006045
                },
                {
                    "name": "A#4",
                    "midi": 70,
                    "time": 1314.139388,
                    "velocity": 0.3937007874015748,
                    "duration": 0.27332350000006045
                },
                {
                    "name": "G#4",
                    "midi": 68,
                    "time": 1314.4127115000001,
                    "velocity": 0.3543307086614173,
                    "duration": 0.27332350000006045
                },
                {
                    "name": "G4",
                    "midi": 67,
                    "time": 1314.6860350000002,
                    "velocity": 0.3937007874015748,
                    "duration": 0.27332350000006045
                },
                {
                    "name": "G#4",
                    "midi": 68,
                    "time": 1314.9593585000002,
                    "velocity": 0.3543307086614173,
                    "duration": 0.27332350000006045
                },
                {
                    "name": "B4",
                    "midi": 71,
                    "time": 1315.2326820000003,
                    "velocity": 0.4566929133858268,
                    "duration": 1.093293999999787
                },
                {
                    "name": "G#3",
                    "midi": 56,
                    "time": 1315.7793290000002,
                    "velocity": 0.41732283464566927,
                    "duration": 0.5466469999998935
                },
                {
                    "name": "G#4",
                    "midi": 68,
                    "time": 1316.325976,
                    "velocity": 0.3937007874015748,
                    "duration": 0.5466469999998935
                },
                {
                    "name": "B4",
                    "midi": 71,
                    "time": 1316.872623,
                    "velocity": 0.36220472440944884,
                    "duration": 0.27332350000006045
                },
                {
                    "name": "G5",
                    "midi": 79,
                    "time": 1316.872623,
                    "velocity": 0.4330708661417323,
                    "duration": 0.5466470000001209
                },
                {
                    "name": "A#4",
                    "midi": 70,
                    "time": 1317.1459465,
                    "velocity": 0.3937007874015748,
                    "duration": 0.27332350000006045
                },
                {
                    "name": "G#4",
                    "midi": 68,
                    "time": 1317.41927,
                    "velocity": 0.3700787401574803,
                    "duration": 0.27332350000006045
                },
                {
                    "name": "G#5",
                    "midi": 80,
                    "time": 1317.41927,
                    "velocity": 0.4409448818897638,
                    "duration": 0.5466470000001209
                },
                {
                    "name": "F#4",
                    "midi": 66,
                    "time": 1317.6925935000002,
                    "velocity": 0.3779527559055118,
                    "duration": 0.27332350000006045
                },
                {
                    "name": "F4",
                    "midi": 65,
                    "time": 1317.9659170000002,
                    "velocity": 0.4094488188976378,
                    "duration": 0.27332350000006045
                },
                {
                    "name": "D#4",
                    "midi": 63,
                    "time": 1318.2392405000003,
                    "velocity": 0.3779527559055118,
                    "duration": 0.27332350000006045
                },
                {
                    "name": "G#4",
                    "midi": 68,
                    "time": 1318.5125640000003,
                    "velocity": 0.4566929133858268,
                    "duration": 1.093293999999787
                },
                {
                    "name": "F3",
                    "midi": 53,
                    "time": 1319.0592110000002,
                    "velocity": 0.41732283464566927,
                    "duration": 0.5466469999998935
                },
                {
                    "name": "F4",
                    "midi": 65,
                    "time": 1319.6058580000001,
                    "velocity": 0.3937007874015748,
                    "duration": 0.5466469999998935
                },
                {
                    "name": "G#4",
                    "midi": 68,
                    "time": 1320.152505,
                    "velocity": 0.36220472440944884,
                    "duration": 0.27332350000006045
                },
                {
                    "name": "E5",
                    "midi": 76,
                    "time": 1320.152505,
                    "velocity": 0.4330708661417323,
                    "duration": 0.5466470000001209
                },
                {
                    "name": "F#4",
                    "midi": 66,
                    "time": 1320.4258285,
                    "velocity": 0.3937007874015748,
                    "duration": 0.27332350000006045
                },
                {
                    "name": "F4",
                    "midi": 65,
                    "time": 1320.6991520000001,
                    "velocity": 0.3700787401574803,
                    "duration": 0.27332350000006045
                },
                {
                    "name": "F5",
                    "midi": 77,
                    "time": 1320.6991520000001,
                    "velocity": 0.4409448818897638,
                    "duration": 0.5466470000001209
                },
                {
                    "name": "D#4",
                    "midi": 63,
                    "time": 1320.9724755000002,
                    "velocity": 0.3779527559055118,
                    "duration": 0.27332350000006045
                },
                {
                    "name": "D4",
                    "midi": 62,
                    "time": 1321.2457990000003,
                    "velocity": 0.4094488188976378,
                    "duration": 0.27332350000006045
                },
                {
                    "name": "B3",
                    "midi": 59,
                    "time": 1321.5191225000003,
                    "velocity": 0.3779527559055118,
                    "duration": 0.27332350000006045
                },
                {
                    "name": "F#4",
                    "midi": 66,
                    "time": 1321.7924460000004,
                    "velocity": 0.4566929133858268,
                    "duration": 1.093293999999787
                },
                {
                    "name": "D#3",
                    "midi": 51,
                    "time": 1322.3390930000003,
                    "velocity": 0.41732283464566927,
                    "duration": 0.5466469999998935
                },
                {
                    "name": "D#4",
                    "midi": 63,
                    "time": 1322.8857400000002,
                    "velocity": 0.3937007874015748,
                    "duration": 0.5466469999998935
                },
                {
                    "name": "F#4",
                    "midi": 66,
                    "time": 1323.432387,
                    "velocity": 0.36220472440944884,
                    "duration": 0.27332350000006045
                },
                {
                    "name": "D5",
                    "midi": 74,
                    "time": 1323.432387,
                    "velocity": 0.4330708661417323,
                    "duration": 0.5466470000001209
                },
                {
                    "name": "F4",
                    "midi": 65,
                    "time": 1323.7057105000001,
                    "velocity": 0.3937007874015748,
                    "duration": 0.27332350000006045
                },
                {
                    "name": "D#4",
                    "midi": 63,
                    "time": 1323.9790340000002,
                    "velocity": 0.3700787401574803,
                    "duration": 0.27332350000006045
                },
                {
                    "name": "D#5",
                    "midi": 75,
                    "time": 1323.9790340000002,
                    "velocity": 0.4409448818897638,
                    "duration": 0.5466470000001209
                },
                {
                    "name": "C#4",
                    "midi": 61,
                    "time": 1324.2523575000002,
                    "velocity": 0.3779527559055118,
                    "duration": 0.27332350000006045
                },
                {
                    "name": "D#4",
                    "midi": 63,
                    "time": 1324.5256810000003,
                    "velocity": 0.4409448818897638,
                    "duration": 0.8199705000001813
                },
                {
                    "name": "B3",
                    "midi": 59,
                    "time": 1324.5256810000003,
                    "velocity": 0.4094488188976378,
                    "duration": 0.27332350000006045
                },
                {
                    "name": "A#3",
                    "midi": 58,
                    "time": 1324.7990045000004,
                    "velocity": 0.3779527559055118,
                    "duration": 0.27332350000006045
                },
                {
                    "name": "A3",
                    "midi": 57,
                    "time": 1325.0723280000004,
                    "velocity": 0.3937007874015748,
                    "duration": 0.5466470000001209
                },
                {
                    "name": "F4",
                    "midi": 65,
                    "time": 1325.3456515000005,
                    "velocity": 0.36220472440944884,
                    "duration": 0.27332350000006045
                },
                {
                    "name": "D#4",
                    "midi": 63,
                    "time": 1325.6189750000005,
                    "velocity": 0.36220472440944884,
                    "duration": 0.27332350000006045
                },
                {
                    "name": "D4",
                    "midi": 62,
                    "time": 1325.8922985000006,
                    "velocity": 0.36220472440944884,
                    "duration": 0.27332350000006045
                },
                {
                    "name": "F#3",
                    "midi": 54,
                    "time": 1326.1656220000007,
                    "velocity": 0.4094488188976378,
                    "duration": 1.6399410000003627
                },
                {
                    "name": "D#4",
                    "midi": 63,
                    "time": 1326.1656220000007,
                    "velocity": 0.4094488188976378,
                    "duration": 0.27332350000006045
                },
                {
                    "name": "C#4",
                    "midi": 61,
                    "time": 1326.4389455000007,
                    "velocity": 0.3779527559055118,
                    "duration": 0.27332350000006045
                },
                {
                    "name": "C4",
                    "midi": 60,
                    "time": 1326.7122690000008,
                    "velocity": 0.3779527559055118,
                    "duration": 0.27332350000006045
                },
                {
                    "name": "B3",
                    "midi": 59,
                    "time": 1326.9855925000008,
                    "velocity": 0.3779527559055118,
                    "duration": 0.27332350000006045
                },
                {
                    "name": "C4",
                    "midi": 60,
                    "time": 1327.258916000001,
                    "velocity": 0.4251968503937008,
                    "duration": 0.27332350000006045
                },
                {
                    "name": "B3",
                    "midi": 59,
                    "time": 1327.532239500001,
                    "velocity": 0.3779527559055118,
                    "duration": 0.27332350000006045
                },
                {
                    "name": "F#3",
                    "midi": 54,
                    "time": 1327.805563000001,
                    "velocity": 0.3779527559055118,
                    "duration": 0.5466470000001209
                },
                {
                    "name": "C4",
                    "midi": 60,
                    "time": 1327.805563000001,
                    "velocity": 0.3779527559055118,
                    "duration": 0.27332350000006045
                },
                {
                    "name": "C#4",
                    "midi": 61,
                    "time": 1328.078886500001,
                    "velocity": 0.3779527559055118,
                    "duration": 0.27332350000006045
                },
                {
                    "name": "F#3",
                    "midi": 54,
                    "time": 1328.3522100000012,
                    "velocity": 0.3779527559055118,
                    "duration": 0.5466469999998935
                },
                {
                    "name": "D#4",
                    "midi": 63,
                    "time": 1328.3522100000012,
                    "velocity": 0.4409448818897638,
                    "duration": 0.5466469999998935
                },
                {
                    "name": "F3",
                    "midi": 53,
                    "time": 1328.898857000001,
                    "velocity": 0.3779527559055118,
                    "duration": 0.5466469999998935
                },
                {
                    "name": "C4",
                    "midi": 60,
                    "time": 1329.445504000001,
                    "velocity": 0.4409448818897638,
                    "duration": 1.6399409999996806
                },
                {
                    "name": "F3",
                    "midi": 53,
                    "time": 1329.445504000001,
                    "velocity": 0.3779527559055118,
                    "duration": 0.5466469999998935
                },
                {
                    "name": "D#3",
                    "midi": 51,
                    "time": 1329.9921510000008,
                    "velocity": 0.3543307086614173,
                    "duration": 0.5466469999998935
                },
                {
                    "name": "D3",
                    "midi": 50,
                    "time": 1330.5387980000007,
                    "velocity": 0.4330708661417323,
                    "duration": 0.5466469999998935
                },
                {
                    "name": "C4",
                    "midi": 60,
                    "time": 1331.0854450000006,
                    "velocity": 0.3543307086614173,
                    "duration": 0.5466469999998935
                },
                {
                    "name": "D#3",
                    "midi": 51,
                    "time": 1331.0854450000006,
                    "velocity": 0.3543307086614173,
                    "duration": 0.5466469999998935
                },
                {
                    "name": "D#3",
                    "midi": 51,
                    "time": 1331.6320920000005,
                    "velocity": 0.4094488188976378,
                    "duration": 0.5466469999998935
                },
                {
                    "name": "C4",
                    "midi": 60,
                    "time": 1331.6320920000005,
                    "velocity": 0.4094488188976378,
                    "duration": 0.5466469999998935
                },
                {
                    "name": "D3",
                    "midi": 50,
                    "time": 1332.1787390000004,
                    "velocity": 0.2992125984251969,
                    "duration": 0.5466469999998935
                },
                {
                    "name": "A#3",
                    "midi": 58,
                    "time": 1332.1787390000004,
                    "velocity": 0.3543307086614173,
                    "duration": 0.5466469999998935
                },
                {
                    "name": "D#3",
                    "midi": 51,
                    "time": 1332.7253860000003,
                    "velocity": 0.33858267716535434,
                    "duration": 0.5466469999998935
                },
                {
                    "name": "A3",
                    "midi": 57,
                    "time": 1332.7253860000003,
                    "velocity": 0.4015748031496063,
                    "duration": 0.5466469999998935
                },
                {
                    "name": "D3",
                    "midi": 50,
                    "time": 1333.2720330000002,
                    "velocity": 0.28346456692913385,
                    "duration": 0.5466469999998935
                },
                {
                    "name": "A#3",
                    "midi": 58,
                    "time": 1333.2720330000002,
                    "velocity": 0.33858267716535434,
                    "duration": 0.5466469999998935
                },
                {
                    "name": "A2",
                    "midi": 45,
                    "time": 1333.81868,
                    "velocity": 0.3228346456692913,
                    "duration": 0.5466469999998935
                },
                {
                    "name": "D#3",
                    "midi": 51,
                    "time": 1333.81868,
                    "velocity": 0.3228346456692913,
                    "duration": 0.5466469999998935
                },
                {
                    "name": "F#3",
                    "midi": 54,
                    "time": 1333.81868,
                    "velocity": 0.3858267716535433,
                    "duration": 0.5466469999998935
                },
                {
                    "name": "A#2",
                    "midi": 46,
                    "time": 1334.365327,
                    "velocity": 0.25984251968503935,
                    "duration": 0.5466469999998935
                },
                {
                    "name": "D3",
                    "midi": 50,
                    "time": 1334.365327,
                    "velocity": 0.25984251968503935,
                    "duration": 0.5466469999998935
                },
                {
                    "name": "F3",
                    "midi": 53,
                    "time": 1334.365327,
                    "velocity": 0.30708661417322836,
                    "duration": 0.5466469999998935
                },
                {
                    "name": "F#3",
                    "midi": 54,
                    "time": 1334.9119739999999,
                    "velocity": 0.3543307086614173,
                    "duration": 0.5466469999998935
                },
                {
                    "name": "A3",
                    "midi": 57,
                    "time": 1334.9119739999999,
                    "velocity": 0.3543307086614173,
                    "duration": 0.5466469999998935
                },
                {
                    "name": "D#4",
                    "midi": 63,
                    "time": 1334.9119739999999,
                    "velocity": 0.41732283464566927,
                    "duration": 0.5466469999998935
                },
                {
                    "name": "F3",
                    "midi": 53,
                    "time": 1335.4586209999998,
                    "velocity": 0.2755905511811024,
                    "duration": 0.5466469999998935
                },
                {
                    "name": "A#3",
                    "midi": 58,
                    "time": 1335.4586209999998,
                    "velocity": 0.2755905511811024,
                    "duration": 0.5466469999998935
                },
                {
                    "name": "D4",
                    "midi": 62,
                    "time": 1335.4586209999998,
                    "velocity": 0.33070866141732286,
                    "duration": 0.5466469999998935
                },
                {
                    "name": "D#4",
                    "midi": 63,
                    "time": 1336.0052679999997,
                    "velocity": 0.33858267716535434,
                    "duration": 0.5466469999998935
                },
                {
                    "name": "F#4",
                    "midi": 66,
                    "time": 1336.0052679999997,
                    "velocity": 0.33858267716535434,
                    "duration": 0.5466469999998935
                },
                {
                    "name": "A4",
                    "midi": 69,
                    "time": 1336.0052679999997,
                    "velocity": 0.4015748031496063,
                    "duration": 0.5466469999998935
                },
                {
                    "name": "D4",
                    "midi": 62,
                    "time": 1336.5519149999996,
                    "velocity": 0.2755905511811024,
                    "duration": 0.5466469999998935
                },
                {
                    "name": "F4",
                    "midi": 65,
                    "time": 1336.5519149999996,
                    "velocity": 0.2755905511811024,
                    "duration": 0.5466469999998935
                },
                {
                    "name": "A#4",
                    "midi": 70,
                    "time": 1336.5519149999996,
                    "velocity": 0.33070866141732286,
                    "duration": 0.5466469999998935
                },
                {
                    "name": "A4",
                    "midi": 69,
                    "time": 1337.0985619999994,
                    "velocity": 0.3464566929133858,
                    "duration": 0.5466469999998935
                },
                {
                    "name": "D#5",
                    "midi": 75,
                    "time": 1337.0985619999994,
                    "velocity": 0.3464566929133858,
                    "duration": 0.5466469999998935
                },
                {
                    "name": "F#5",
                    "midi": 78,
                    "time": 1337.0985619999994,
                    "velocity": 0.4094488188976378,
                    "duration": 0.5466469999998935
                },
                {
                    "name": "A#4",
                    "midi": 70,
                    "time": 1337.6452089999993,
                    "velocity": 0.2992125984251969,
                    "duration": 0.5466469999998935
                },
                {
                    "name": "D5",
                    "midi": 74,
                    "time": 1337.6452089999993,
                    "velocity": 0.2992125984251969,
                    "duration": 0.5466469999998935
                },
                {
                    "name": "F5",
                    "midi": 77,
                    "time": 1337.6452089999993,
                    "velocity": 0.3543307086614173,
                    "duration": 0.5466469999998935
                },
                {
                    "name": "A5",
                    "midi": 81,
                    "time": 1338.1918559999992,
                    "velocity": 0.4094488188976378,
                    "duration": 0.13666175000003022
                },
                {
                    "name": "C5",
                    "midi": 72,
                    "time": 1338.1918559999992,
                    "velocity": 0.3464566929133858,
                    "duration": 2.1865880000004836
                },
                {
                    "name": "D#5",
                    "midi": 75,
                    "time": 1338.1918559999992,
                    "velocity": 0.3464566929133858,
                    "duration": 2.1865880000004836
                },
                {
                    "name": "A#5",
                    "midi": 82,
                    "time": 1338.3285177499993,
                    "velocity": 0.3700787401574803,
                    "duration": 0.13666175000003022
                },
                {
                    "name": "A5",
                    "midi": 81,
                    "time": 1338.4651794999993,
                    "velocity": 0.4094488188976378,
                    "duration": 0.13666175000003022
                },
                {
                    "name": "A#5",
                    "midi": 82,
                    "time": 1338.6018412499993,
                    "velocity": 0.3700787401574803,
                    "duration": 0.13666175000003022
                },
                {
                    "name": "A5",
                    "midi": 81,
                    "time": 1338.7385029999994,
                    "velocity": 0.4094488188976378,
                    "duration": 0.13666175000003022
                },
                {
                    "name": "A#5",
                    "midi": 82,
                    "time": 1338.8751647499994,
                    "velocity": 0.36220472440944884,
                    "duration": 0.13666175000003022
                },
                {
                    "name": "A5",
                    "midi": 81,
                    "time": 1339.0118264999994,
                    "velocity": 0.4094488188976378,
                    "duration": 0.13666175000003022
                },
                {
                    "name": "A#5",
                    "midi": 82,
                    "time": 1339.1484882499994,
                    "velocity": 0.3700787401574803,
                    "duration": 0.13666175000003022
                },
                {
                    "name": "A5",
                    "midi": 81,
                    "time": 1339.2851499999995,
                    "velocity": 0.4094488188976378,
                    "duration": 0.13666175000003022
                },
                {
                    "name": "A#5",
                    "midi": 82,
                    "time": 1339.4218117499995,
                    "velocity": 0.3700787401574803,
                    "duration": 0.13666175000003022
                },
                {
                    "name": "A5",
                    "midi": 81,
                    "time": 1339.5584734999995,
                    "velocity": 0.4094488188976378,
                    "duration": 0.13666175000003022
                },
                {
                    "name": "A#5",
                    "midi": 82,
                    "time": 1339.6951352499996,
                    "velocity": 0.3779527559055118,
                    "duration": 0.13666175000003022
                },
                {
                    "name": "A5",
                    "midi": 81,
                    "time": 1339.8317969999996,
                    "velocity": 0.4094488188976378,
                    "duration": 0.18221566666670697
                },
                {
                    "name": "G5",
                    "midi": 79,
                    "time": 1340.0140126666663,
                    "velocity": 0.3700787401574803,
                    "duration": 0.18221566666670697
                },
                {
                    "name": "A5",
                    "midi": 81,
                    "time": 1340.196228333333,
                    "velocity": 0.3700787401574803,
                    "duration": 0.18221566666670697
                },
                {
                    "name": "A#4",
                    "midi": 70,
                    "time": 1340.3784439999997,
                    "velocity": 0.30708661417322836,
                    "duration": 1.0932940000000144
                },
                {
                    "name": "C#5",
                    "midi": 73,
                    "time": 1340.3784439999997,
                    "velocity": 0.30708661417322836,
                    "duration": 1.0932940000000144
                },
                {
                    "name": "A#5",
                    "midi": 82,
                    "time": 1340.3784439999997,
                    "velocity": 0.3700787401574803,
                    "duration": 1.0932940000000144
                },
                {
                    "name": "E4",
                    "midi": 64,
                    "time": 1341.4717379999997,
                    "velocity": 0.3464566929133858,
                    "duration": 0.13666175000003022
                },
                {
                    "name": "F4",
                    "midi": 65,
                    "time": 1341.6083997499998,
                    "velocity": 0.30708661417322836,
                    "duration": 0.13666175000003022
                },
                {
                    "name": "E4",
                    "midi": 64,
                    "time": 1341.7450614999998,
                    "velocity": 0.3464566929133858,
                    "duration": 0.13666175000003022
                },
                {
                    "name": "F4",
                    "midi": 65,
                    "time": 1341.8817232499998,
                    "velocity": 0.30708661417322836,
                    "duration": 0.13666175000003022
                },
                {
                    "name": "E4",
                    "midi": 64,
                    "time": 1342.0183849999999,
                    "velocity": 0.3464566929133858,
                    "duration": 0.13666175000003022
                },
                {
                    "name": "F4",
                    "midi": 65,
                    "time": 1342.1550467499999,
                    "velocity": 0.30708661417322836,
                    "duration": 0.13666175000003022
                },
                {
                    "name": "E4",
                    "midi": 64,
                    "time": 1342.2917085,
                    "velocity": 0.3464566929133858,
                    "duration": 0.13666175000003022
                },
                {
                    "name": "F4",
                    "midi": 65,
                    "time": 1342.42837025,
                    "velocity": 0.30708661417322836,
                    "duration": 0.13666175000003022
                },
                {
                    "name": "A#4",
                    "midi": 70,
                    "time": 1342.565032,
                    "velocity": 0.31496062992125984,
                    "duration": 1.0932940000002418
                },
                {
                    "name": "C#5",
                    "midi": 73,
                    "time": 1342.565032,
                    "velocity": 0.3779527559055118,
                    "duration": 1.0932940000002418
                },
                {
                    "name": "E4",
                    "midi": 64,
                    "time": 1342.565032,
                    "velocity": 0.3464566929133858,
                    "duration": 0.13666175000003022
                },
                {
                    "name": "F4",
                    "midi": 65,
                    "time": 1342.70169375,
                    "velocity": 0.30708661417322836,
                    "duration": 0.13666175000003022
                },
                {
                    "name": "E4",
                    "midi": 64,
                    "time": 1342.8383555,
                    "velocity": 0.3464566929133858,
                    "duration": 0.13666175000003022
                },
                {
                    "name": "F4",
                    "midi": 65,
                    "time": 1342.97501725,
                    "velocity": 0.31496062992125984,
                    "duration": 0.13666175000003022
                },
                {
                    "name": "E4",
                    "midi": 64,
                    "time": 1343.111679,
                    "velocity": 0.3464566929133858,
                    "duration": 0.18221566666670697
                },
                {
                    "name": "D4",
                    "midi": 62,
                    "time": 1343.2938946666668,
                    "velocity": 0.30708661417322836,
                    "duration": 0.18221566666670697
                },
                {
                    "name": "E4",
                    "midi": 64,
                    "time": 1343.4761103333335,
                    "velocity": 0.30708661417322836,
                    "duration": 0.18221566666670697
                },
                {
                    "name": "F4",
                    "midi": 65,
                    "time": 1343.6583260000002,
                    "velocity": 0.36220472440944884,
                    "duration": 1.0932940000000144
                },
                {
                    "name": "C5",
                    "midi": 72,
                    "time": 1343.6583260000002,
                    "velocity": 0.36220472440944884,
                    "duration": 1.0932940000000144
                },
                {
                    "name": "A4",
                    "midi": 69,
                    "time": 1344.7516200000002,
                    "velocity": 0.36220472440944884,
                    "duration": 0.13666175000003022
                },
                {
                    "name": "A#4",
                    "midi": 70,
                    "time": 1344.8882817500003,
                    "velocity": 0.33070866141732286,
                    "duration": 0.13666175000003022
                },
                {
                    "name": "A4",
                    "midi": 69,
                    "time": 1345.0249435000003,
                    "velocity": 0.36220472440944884,
                    "duration": 0.13666175000003022
                },
                {
                    "name": "A#4",
                    "midi": 70,
                    "time": 1345.1616052500003,
                    "velocity": 0.33070866141732286,
                    "duration": 0.13666175000003022
                },
                {
                    "name": "A4",
                    "midi": 69,
                    "time": 1345.2982670000004,
                    "velocity": 0.36220472440944884,
                    "duration": 0.13666175000003022
                },
                {
                    "name": "A#4",
                    "midi": 70,
                    "time": 1345.4349287500004,
                    "velocity": 0.3228346456692913,
                    "duration": 0.13666175000003022
                },
                {
                    "name": "A4",
                    "midi": 69,
                    "time": 1345.5715905000004,
                    "velocity": 0.36220472440944884,
                    "duration": 0.13666175000003022
                },
                {
                    "name": "A#4",
                    "midi": 70,
                    "time": 1345.7082522500004,
                    "velocity": 0.33070866141732286,
                    "duration": 0.13666175000003022
                },
                {
                    "name": "A4",
                    "midi": 69,
                    "time": 1345.8449140000005,
                    "velocity": 0.36220472440944884,
                    "duration": 0.13666175000003022
                },
                {
                    "name": "D#5",
                    "midi": 75,
                    "time": 1345.8449140000005,
                    "velocity": 0.4094488188976378,
                    "duration": 1.0932940000002418
                },
                {
                    "name": "A#4",
                    "midi": 70,
                    "time": 1345.9815757500005,
                    "velocity": 0.33070866141732286,
                    "duration": 0.13666175000003022
                },
                {
                    "name": "A4",
                    "midi": 69,
                    "time": 1346.1182375000005,
                    "velocity": 0.36220472440944884,
                    "duration": 0.13666175000003022
                },
                {
                    "name": "A#4",
                    "midi": 70,
                    "time": 1346.2548992500006,
                    "velocity": 0.33858267716535434,
                    "duration": 0.13666175000003022
                },
                {
                    "name": "A4",
                    "midi": 69,
                    "time": 1346.3915610000006,
                    "velocity": 0.36220472440944884,
                    "duration": 0.18221566666670697
                },
                {
                    "name": "G4",
                    "midi": 67,
                    "time": 1346.5737766666673,
                    "velocity": 0.33070866141732286,
                    "duration": 0.18221566666670697
                },
                {
                    "name": "A4",
                    "midi": 69,
                    "time": 1346.755992333334,
                    "velocity": 0.33070866141732286,
                    "duration": 0.18221566666670697
                },
                {
                    "name": "F4",
                    "midi": 65,
                    "time": 1346.9382080000007,
                    "velocity": 0.29133858267716534,
                    "duration": 1.0932940000000144
                },
                {
                    "name": "C5",
                    "midi": 72,
                    "time": 1346.9382080000007,
                    "velocity": 0.29133858267716534,
                    "duration": 1.0932940000000144
                },
                {
                    "name": "D#5",
                    "midi": 75,
                    "time": 1346.9382080000007,
                    "velocity": 0.3464566929133858,
                    "duration": 1.0932940000000144
                },
                {
                    "name": "F4",
                    "midi": 65,
                    "time": 1348.0315020000007,
                    "velocity": 0.29133858267716534,
                    "duration": 1.639940999999908
                },
                {
                    "name": "C5",
                    "midi": 72,
                    "time": 1348.0315020000007,
                    "velocity": 0.29133858267716534,
                    "duration": 1.639940999999908
                },
                {
                    "name": "D#5",
                    "midi": 75,
                    "time": 1348.0315020000007,
                    "velocity": 0.3464566929133858,
                    "duration": 1.639940999999908
                },
                {
                    "name": "G5",
                    "midi": 79,
                    "time": 1349.6714430000006,
                    "velocity": 0.3464566929133858,
                    "duration": 0.3279882000001635
                },
                {
                    "name": "F5",
                    "midi": 77,
                    "time": 1349.9447665000007,
                    "velocity": 0.30708661417322836,
                    "duration": 0.3279882000001635
                },
                {
                    "name": "D#5",
                    "midi": 75,
                    "time": 1350.2180900000008,
                    "velocity": 0.3464566929133858,
                    "duration": 0.3279882000001635
                },
                {
                    "name": "D5",
                    "midi": 74,
                    "time": 1350.4914135000008,
                    "velocity": 0.30708661417322836,
                    "duration": 0.3279882000001635
                },
                {
                    "name": "C5",
                    "midi": 72,
                    "time": 1350.7647370000009,
                    "velocity": 0.30708661417322836,
                    "duration": 0.3279882000001635
                },
                {
                    "name": "B4",
                    "midi": 71,
                    "time": 1351.038060500001,
                    "velocity": 0.30708661417322836,
                    "duration": 0.27332350000006045
                },
                {
                    "name": "D#5",
                    "midi": 75,
                    "time": 1351.311384000001,
                    "velocity": 0.36220472440944884,
                    "duration": 1.0932940000000144
                },
                {
                    "name": "G4",
                    "midi": 67,
                    "time": 1352.951325000001,
                    "velocity": 0.3464566929133858,
                    "duration": 0.3279882000001635
                },
                {
                    "name": "F4",
                    "midi": 65,
                    "time": 1353.224648500001,
                    "velocity": 0.30708661417322836,
                    "duration": 0.3279882000001635
                },
                {
                    "name": "D#4",
                    "midi": 63,
                    "time": 1353.497972000001,
                    "velocity": 0.3464566929133858,
                    "duration": 0.3279882000001635
                },
                {
                    "name": "D4",
                    "midi": 62,
                    "time": 1353.771295500001,
                    "velocity": 0.30708661417322836,
                    "duration": 0.3279882000001635
                },
                {
                    "name": "C4",
                    "midi": 60,
                    "time": 1354.0446190000011,
                    "velocity": 0.30708661417322836,
                    "duration": 0.3279882000001635
                },
                {
                    "name": "B3",
                    "midi": 59,
                    "time": 1354.3179425000012,
                    "velocity": 0.30708661417322836,
                    "duration": 0.27332350000006045
                },
                {
                    "name": "D#4",
                    "midi": 63,
                    "time": 1354.5912660000013,
                    "velocity": 0.36220472440944884,
                    "duration": 1.0932940000000144
                },
                {
                    "name": "G5",
                    "midi": 79,
                    "time": 1356.2312070000012,
                    "velocity": 0.3464566929133858,
                    "duration": 0.3279882000001635
                },
                {
                    "name": "F5",
                    "midi": 77,
                    "time": 1356.5045305000012,
                    "velocity": 0.30708661417322836,
                    "duration": 0.3279882000001635
                },
                {
                    "name": "D#5",
                    "midi": 75,
                    "time": 1356.7778540000013,
                    "velocity": 0.3464566929133858,
                    "duration": 0.3279882000001635
                },
                {
                    "name": "D5",
                    "midi": 74,
                    "time": 1357.0511775000014,
                    "velocity": 0.30708661417322836,
                    "duration": 0.3279882000001635
                },
                {
                    "name": "C5",
                    "midi": 72,
                    "time": 1357.3245010000014,
                    "velocity": 0.30708661417322836,
                    "duration": 0.3279882000001635
                },
                {
                    "name": "B4",
                    "midi": 71,
                    "time": 1357.5978245000015,
                    "velocity": 0.30708661417322836,
                    "duration": 0.3279882000001635
                },
                {
                    "name": "G5",
                    "midi": 79,
                    "time": 1357.8711480000015,
                    "velocity": 0.36220472440944884,
                    "duration": 0.3279882000001635
                },
                {
                    "name": "F5",
                    "midi": 77,
                    "time": 1358.1444715000016,
                    "velocity": 0.3700787401574803,
                    "duration": 0.3279882000001635
                },
                {
                    "name": "D#5",
                    "midi": 75,
                    "time": 1358.4177950000017,
                    "velocity": 0.3779527559055118,
                    "duration": 0.3279882000001635
                },
                {
                    "name": "D5",
                    "midi": 74,
                    "time": 1358.6911185000017,
                    "velocity": 0.3779527559055118,
                    "duration": 0.3279882000001635
                },
                {
                    "name": "C5",
                    "midi": 72,
                    "time": 1358.9644420000018,
                    "velocity": 0.3858267716535433,
                    "duration": 0.3279882000001635
                },
                {
                    "name": "A#4",
                    "midi": 70,
                    "time": 1359.2377655000018,
                    "velocity": 0.4015748031496063,
                    "duration": 0.3279882000001635
                },
                {
                    "name": "A4",
                    "midi": 69,
                    "time": 1359.511089000002,
                    "velocity": 0.4094488188976378,
                    "duration": 0.3279882000001635
                },
                {
                    "name": "G4",
                    "midi": 67,
                    "time": 1359.784412500002,
                    "velocity": 0.41732283464566927,
                    "duration": 0.3279882000001635
                },
                {
                    "name": "F4",
                    "midi": 65,
                    "time": 1360.057736000002,
                    "velocity": 0.4330708661417323,
                    "duration": 0.3279882000001635
                },
                {
                    "name": "D#4",
                    "midi": 63,
                    "time": 1360.331059500002,
                    "velocity": 0.4409448818897638,
                    "duration": 0.3279882000001635
                },
                {
                    "name": "D4",
                    "midi": 62,
                    "time": 1360.6043830000021,
                    "velocity": 0.44881889763779526,
                    "duration": 0.3279882000001635
                },
                {
                    "name": "C4",
                    "midi": 60,
                    "time": 1360.8777065000022,
                    "velocity": 0.4645669291338583,
                    "duration": 0.3279882000001635
                },
                {
                    "name": "A#3",
                    "midi": 58,
                    "time": 1361.1510300000023,
                    "velocity": 0.47244094488188976,
                    "duration": 0.27332350000006045
                },
                {
                    "name": "A3",
                    "midi": 57,
                    "time": 1361.4243535000023,
                    "velocity": 0.4881889763779528,
                    "duration": 0.27332350000006045
                },
                {
                    "name": "G3",
                    "midi": 55,
                    "time": 1361.6976770000024,
                    "velocity": 0.49606299212598426,
                    "duration": 0.27332350000006045
                },
                {
                    "name": "F3",
                    "midi": 53,
                    "time": 1361.9710005000024,
                    "velocity": 0.5039370078740157,
                    "duration": 0.27332350000006045
                },
                {
                    "name": "D#3",
                    "midi": 51,
                    "time": 1362.2443240000025,
                    "velocity": 0.5275590551181102,
                    "duration": 0.27332350000006045
                },
                {
                    "name": "D3",
                    "midi": 50,
                    "time": 1362.5176475000026,
                    "velocity": 0.5354330708661418,
                    "duration": 0.27332350000006045
                },
                {
                    "name": "C3",
                    "midi": 48,
                    "time": 1362.7909710000026,
                    "velocity": 0.5590551181102362,
                    "duration": 0.27332350000006045
                },
                {
                    "name": "A#2",
                    "midi": 46,
                    "time": 1363.0642945000027,
                    "velocity": 0.5669291338582677,
                    "duration": 0.27332350000006045
                },
                {
                    "name": "A2",
                    "midi": 45,
                    "time": 1363.3376180000027,
                    "velocity": 0.5984251968503937,
                    "duration": 0.27332350000006045
                },
                {
                    "name": "G2",
                    "midi": 43,
                    "time": 1363.6109415000028,
                    "velocity": 0.6220472440944882,
                    "duration": 0.27332350000006045
                },
                {
                    "name": "F2",
                    "midi": 41,
                    "time": 1363.8842650000029,
                    "velocity": 0.6692913385826772,
                    "duration": 0.27332350000006045
                },
                {
                    "name": "E2",
                    "midi": 40,
                    "time": 1364.157588500003,
                    "velocity": 0.7007874015748031,
                    "duration": 0.27332350000006045
                },
                {
                    "name": "F2",
                    "midi": 41,
                    "time": 1364.430912000003,
                    "velocity": 0.7795275590551181,
                    "duration": 0.5466469999998935
                },
                {
                    "name": "F3",
                    "midi": 53,
                    "time": 1364.430912000003,
                    "velocity": 0.7795275590551181,
                    "duration": 0.5466469999998935
                },
                {
                    "name": "A4",
                    "midi": 69,
                    "time": 1365.5242060000028,
                    "velocity": 0.7480314960629921,
                    "duration": 2.1865880000004836
                },
                {
                    "name": "A5",
                    "midi": 81,
                    "time": 1365.5242060000028,
                    "velocity": 0.7480314960629921,
                    "duration": 0.18221566666670697
                },
                {
                    "name": "A#5",
                    "midi": 82,
                    "time": 1365.7064216666695,
                    "velocity": 0.5905511811023622,
                    "duration": 0.18221566666670697
                },
                {
                    "name": "A5",
                    "midi": 81,
                    "time": 1365.8886373333362,
                    "velocity": 0.6456692913385826,
                    "duration": 0.18221566666670697
                },
                {
                    "name": "A#5",
                    "midi": 82,
                    "time": 1366.070853000003,
                    "velocity": 0.5669291338582677,
                    "duration": 0.18221566666670697
                },
                {
                    "name": "A5",
                    "midi": 81,
                    "time": 1366.2530686666696,
                    "velocity": 0.6220472440944882,
                    "duration": 0.18221566666670697
                },
                {
                    "name": "A#5",
                    "midi": 82,
                    "time": 1366.4352843333363,
                    "velocity": 0.5590551181102362,
                    "duration": 0.18221566666670697
                },
                {
                    "name": "A5",
                    "midi": 81,
                    "time": 1366.617500000003,
                    "velocity": 0.5984251968503937,
                    "duration": 0.18221566666670697
                },
                {
                    "name": "A#5",
                    "midi": 82,
                    "time": 1366.7997156666697,
                    "velocity": 0.5433070866141733,
                    "duration": 0.18221566666670697
                },
                {
                    "name": "A5",
                    "midi": 81,
                    "time": 1366.9819313333364,
                    "velocity": 0.5748031496062992,
                    "duration": 0.18221566666670697
                },
                {
                    "name": "A#5",
                    "midi": 82,
                    "time": 1367.1641470000031,
                    "velocity": 0.5275590551181102,
                    "duration": 0.13666175000003022
                },
                {
                    "name": "A5",
                    "midi": 81,
                    "time": 1367.3008087500032,
                    "velocity": 0.5984251968503937,
                    "duration": 0.13666175000003022
                },
                {
                    "name": "G5",
                    "midi": 79,
                    "time": 1367.4374705000032,
                    "velocity": 0.5748031496062992,
                    "duration": 0.13666175000003022
                },
                {
                    "name": "A5",
                    "midi": 81,
                    "time": 1367.5741322500032,
                    "velocity": 0.6299212598425197,
                    "duration": 0.13666175000003022
                },
                {
                    "name": "A#4",
                    "midi": 70,
                    "time": 1367.7107940000033,
                    "velocity": 0.6141732283464567,
                    "duration": 0.5466469999998935
                },
                {
                    "name": "A#5",
                    "midi": 82,
                    "time": 1367.7107940000033,
                    "velocity": 0.7244094488188977,
                    "duration": 0.5466469999998935
                },
                {
                    "name": "G3",
                    "midi": 55,
                    "time": 1368.804088000003,
                    "velocity": 0.5905511811023622,
                    "duration": 0.5466469999998935
                },
                {
                    "name": "G4",
                    "midi": 67,
                    "time": 1368.804088000003,
                    "velocity": 0.7007874015748031,
                    "duration": 0.5466469999998935
                },
                {
                    "name": "B4",
                    "midi": 71,
                    "time": 1369.8973820000028,
                    "velocity": 0.7480314960629921,
                    "duration": 2.1865880000004836
                },
                {
                    "name": "B5",
                    "midi": 83,
                    "time": 1369.8973820000028,
                    "velocity": 0.7480314960629921,
                    "duration": 0.18221566666670697
                },
                {
                    "name": "C6",
                    "midi": 84,
                    "time": 1370.0795976666695,
                    "velocity": 0.5905511811023622,
                    "duration": 0.18221566666670697
                },
                {
                    "name": "B5",
                    "midi": 83,
                    "time": 1370.2618133333362,
                    "velocity": 0.6456692913385826,
                    "duration": 0.18221566666670697
                },
                {
                    "name": "C6",
                    "midi": 84,
                    "time": 1370.444029000003,
                    "velocity": 0.5669291338582677,
                    "duration": 0.18221566666670697
                },
                {
                    "name": "B5",
                    "midi": 83,
                    "time": 1370.6262446666697,
                    "velocity": 0.6220472440944882,
                    "duration": 0.18221566666670697
                },
                {
                    "name": "C6",
                    "midi": 84,
                    "time": 1370.8084603333364,
                    "velocity": 0.5590551181102362,
                    "duration": 0.18221566666670697
                },
                {
                    "name": "B5",
                    "midi": 83,
                    "time": 1370.990676000003,
                    "velocity": 0.5984251968503937,
                    "duration": 0.18221566666670697
                },
                {
                    "name": "C6",
                    "midi": 84,
                    "time": 1371.1728916666698,
                    "velocity": 0.5433070866141733,
                    "duration": 0.18221566666670697
                },
                {
                    "name": "B5",
                    "midi": 83,
                    "time": 1371.3551073333365,
                    "velocity": 0.5748031496062992,
                    "duration": 0.18221566666670697
                },
                {
                    "name": "C6",
                    "midi": 84,
                    "time": 1371.5373230000032,
                    "velocity": 0.5275590551181102,
                    "duration": 0.13666175000003022
                },
                {
                    "name": "B5",
                    "midi": 83,
                    "time": 1371.6739847500032,
                    "velocity": 0.5826771653543307,
                    "duration": 0.13666175000003022
                },
                {
                    "name": "A5",
                    "midi": 81,
                    "time": 1371.8106465000033,
                    "velocity": 0.5511811023622047,
                    "duration": 0.13666175000003022
                },
                {
                    "name": "B5",
                    "midi": 83,
                    "time": 1371.9473082500033,
                    "velocity": 0.6220472440944882,
                    "duration": 0.13666175000003022
                },
                {
                    "name": "C5",
                    "midi": 72,
                    "time": 1372.0839700000033,
                    "velocity": 0.6141732283464567,
                    "duration": 0.5466469999998935
                },
                {
                    "name": "C6",
                    "midi": 84,
                    "time": 1372.0839700000033,
                    "velocity": 0.7244094488188977,
                    "duration": 0.5466469999998935
                },
                {
                    "name": "A3",
                    "midi": 57,
                    "time": 1373.177264000003,
                    "velocity": 0.5905511811023622,
                    "duration": 0.5466469999998935
                },
                {
                    "name": "A4",
                    "midi": 69,
                    "time": 1373.177264000003,
                    "velocity": 0.7007874015748031,
                    "duration": 0.5466469999998935
                },
                {
                    "name": "C#5",
                    "midi": 73,
                    "time": 1374.270558000003,
                    "velocity": 0.7480314960629921,
                    "duration": 2.1865880000004836
                },
                {
                    "name": "C#6",
                    "midi": 85,
                    "time": 1374.270558000003,
                    "velocity": 0.7480314960629921,
                    "duration": 0.18221566666670697
                },
                {
                    "name": "D6",
                    "midi": 86,
                    "time": 1374.4527736666696,
                    "velocity": 0.5905511811023622,
                    "duration": 0.18221566666670697
                },
                {
                    "name": "C#6",
                    "midi": 85,
                    "time": 1374.6349893333363,
                    "velocity": 0.6456692913385826,
                    "duration": 0.18221566666670697
                },
                {
                    "name": "D6",
                    "midi": 86,
                    "time": 1374.817205000003,
                    "velocity": 0.5669291338582677,
                    "duration": 0.18221566666670697
                },
                {
                    "name": "C#6",
                    "midi": 85,
                    "time": 1374.9994206666697,
                    "velocity": 0.6220472440944882,
                    "duration": 0.18221566666670697
                },
                {
                    "name": "D6",
                    "midi": 86,
                    "time": 1375.1816363333364,
                    "velocity": 0.5590551181102362,
                    "duration": 0.18221566666670697
                },
                {
                    "name": "C#6",
                    "midi": 85,
                    "time": 1375.3638520000031,
                    "velocity": 0.5984251968503937,
                    "duration": 0.18221566666670697
                },
                {
                    "name": "D6",
                    "midi": 86,
                    "time": 1375.5460676666698,
                    "velocity": 0.5433070866141733,
                    "duration": 0.18221566666670697
                },
                {
                    "name": "C#6",
                    "midi": 85,
                    "time": 1375.7282833333365,
                    "velocity": 0.5748031496062992,
                    "duration": 0.18221566666670697
                },
                {
                    "name": "D6",
                    "midi": 86,
                    "time": 1375.9104990000033,
                    "velocity": 0.5275590551181102,
                    "duration": 0.13666175000003022
                },
                {
                    "name": "C#6",
                    "midi": 85,
                    "time": 1376.0471607500033,
                    "velocity": 0.5826771653543307,
                    "duration": 0.13666175000003022
                },
                {
                    "name": "B5",
                    "midi": 83,
                    "time": 1376.1838225000033,
                    "velocity": 0.5196850393700787,
                    "duration": 0.13666175000003022
                },
                {
                    "name": "C#6",
                    "midi": 85,
                    "time": 1376.3204842500033,
                    "velocity": 0.6220472440944882,
                    "duration": 0.13666175000003022
                },
                {
                    "name": "D5",
                    "midi": 74,
                    "time": 1376.4571460000034,
                    "velocity": 0.6141732283464567,
                    "duration": 0.5466469999998935
                },
                {
                    "name": "D6",
                    "midi": 86,
                    "time": 1376.4571460000034,
                    "velocity": 0.7244094488188977,
                    "duration": 0.5466469999998935
                },
                {
                    "name": "A#3",
                    "midi": 58,
                    "time": 1377.5504400000032,
                    "velocity": 0.5905511811023622,
                    "duration": 0.5466469999998935
                },
                {
                    "name": "A#4",
                    "midi": 70,
                    "time": 1377.5504400000032,
                    "velocity": 0.7007874015748031,
                    "duration": 0.5466469999998935
                },
                {
                    "name": "D5",
                    "midi": 74,
                    "time": 1378.643734000003,
                    "velocity": 0.7480314960629921,
                    "duration": 2.1865880000004836
                },
                {
                    "name": "D6",
                    "midi": 86,
                    "time": 1378.643734000003,
                    "velocity": 0.7480314960629921,
                    "duration": 0.18221566666670697
                },
                {
                    "name": "D#6",
                    "midi": 87,
                    "time": 1378.8259496666697,
                    "velocity": 0.5905511811023622,
                    "duration": 0.18221566666670697
                },
                {
                    "name": "D6",
                    "midi": 86,
                    "time": 1379.0081653333364,
                    "velocity": 0.6456692913385826,
                    "duration": 0.18221566666670697
                },
                {
                    "name": "D#6",
                    "midi": 87,
                    "time": 1379.190381000003,
                    "velocity": 0.5669291338582677,
                    "duration": 0.18221566666670697
                },
                {
                    "name": "D6",
                    "midi": 86,
                    "time": 1379.3725966666698,
                    "velocity": 0.6220472440944882,
                    "duration": 0.18221566666670697
                },
                {
                    "name": "D#6",
                    "midi": 87,
                    "time": 1379.5548123333365,
                    "velocity": 0.5590551181102362,
                    "duration": 0.18221566666670697
                },
                {
                    "name": "D6",
                    "midi": 86,
                    "time": 1379.7370280000032,
                    "velocity": 0.5984251968503937,
                    "duration": 0.18221566666670697
                },
                {
                    "name": "D#6",
                    "midi": 87,
                    "time": 1379.91924366667,
                    "velocity": 0.5433070866141733,
                    "duration": 0.18221566666670697
                },
                {
                    "name": "D6",
                    "midi": 86,
                    "time": 1380.1014593333366,
                    "velocity": 0.5748031496062992,
                    "duration": 0.18221566666670697
                },
                {
                    "name": "D#6",
                    "midi": 87,
                    "time": 1380.2836750000033,
                    "velocity": 0.5511811023622047,
                    "duration": 0.13666175000003022
                },
                {
                    "name": "D6",
                    "midi": 86,
                    "time": 1380.4203367500033,
                    "velocity": 0.6141732283464567,
                    "duration": 0.13666175000003022
                },
                {
                    "name": "C6",
                    "midi": 84,
                    "time": 1380.5569985000034,
                    "velocity": 0.5748031496062992,
                    "duration": 0.13666175000003022
                },
                {
                    "name": "D6",
                    "midi": 86,
                    "time": 1380.6936602500034,
                    "velocity": 0.6377952755905512,
                    "duration": 0.13666175000003022
                },
                {
                    "name": "D#5",
                    "midi": 75,
                    "time": 1380.8303220000034,
                    "velocity": 0.6141732283464567,
                    "duration": 0.5466469999998935
                },
                {
                    "name": "D#6",
                    "midi": 87,
                    "time": 1380.8303220000034,
                    "velocity": 0.7244094488188977,
                    "duration": 0.5466469999998935
                },
                {
                    "name": "C4",
                    "midi": 60,
                    "time": 1381.9236160000032,
                    "velocity": 0.5905511811023622,
                    "duration": 0.5466469999998935
                },
                {
                    "name": "C5",
                    "midi": 72,
                    "time": 1381.9236160000032,
                    "velocity": 0.7007874015748031,
                    "duration": 0.5466469999998935
                },
                {
                    "name": "E5",
                    "midi": 76,
                    "time": 1383.016910000003,
                    "velocity": 0.7480314960629921,
                    "duration": 2.1865880000004836
                },
                {
                    "name": "E6",
                    "midi": 88,
                    "time": 1383.016910000003,
                    "velocity": 0.7480314960629921,
                    "duration": 0.18221566666670697
                },
                {
                    "name": "F6",
                    "midi": 89,
                    "time": 1383.1991256666697,
                    "velocity": 0.5905511811023622,
                    "duration": 0.18221566666670697
                },
                {
                    "name": "E6",
                    "midi": 88,
                    "time": 1383.3813413333364,
                    "velocity": 0.6456692913385826,
                    "duration": 0.18221566666670697
                },
                {
                    "name": "F6",
                    "midi": 89,
                    "time": 1383.5635570000031,
                    "velocity": 0.5669291338582677,
                    "duration": 0.18221566666670697
                },
                {
                    "name": "E6",
                    "midi": 88,
                    "time": 1383.7457726666698,
                    "velocity": 0.6220472440944882,
                    "duration": 0.18221566666670697
                },
                {
                    "name": "F6",
                    "midi": 89,
                    "time": 1383.9279883333365,
                    "velocity": 0.5590551181102362,
                    "duration": 0.18221566666670697
                },
                {
                    "name": "E6",
                    "midi": 88,
                    "time": 1384.1102040000033,
                    "velocity": 0.5984251968503937,
                    "duration": 0.18221566666670697
                },
                {
                    "name": "F6",
                    "midi": 89,
                    "time": 1384.29241966667,
                    "velocity": 0.5433070866141733,
                    "duration": 0.18221566666670697
                },
                {
                    "name": "E6",
                    "midi": 88,
                    "time": 1384.4746353333367,
                    "velocity": 0.5748031496062992,
                    "duration": 0.18221566666670697
                },
                {
                    "name": "F6",
                    "midi": 89,
                    "time": 1384.6568510000034,
                    "velocity": 0.5275590551181102,
                    "duration": 0.13666175000003022
                },
                {
                    "name": "E6",
                    "midi": 88,
                    "time": 1384.7935127500034,
                    "velocity": 0.5984251968503937,
                    "duration": 0.13666175000003022
                },
                {
                    "name": "D6",
                    "midi": 86,
                    "time": 1384.9301745000034,
                    "velocity": 0.5511811023622047,
                    "duration": 0.13666175000003022
                },
                {
                    "name": "E6",
                    "midi": 88,
                    "time": 1385.0668362500035,
                    "velocity": 0.6220472440944882,
                    "duration": 0.13666175000003022
                },
                {
                    "name": "F5",
                    "midi": 77,
                    "time": 1385.2034980000035,
                    "velocity": 0.6141732283464567,
                    "duration": 0.5466469999998935
                },
                {
                    "name": "F6",
                    "midi": 89,
                    "time": 1385.2034980000035,
                    "velocity": 0.7244094488188977,
                    "duration": 0.5466469999998935
                },
                {
                    "name": "D4",
                    "midi": 62,
                    "time": 1386.2967920000033,
                    "velocity": 0.5905511811023622,
                    "duration": 0.5466469999998935
                },
                {
                    "name": "D5",
                    "midi": 74,
                    "time": 1386.2967920000033,
                    "velocity": 0.7007874015748031,
                    "duration": 0.5466469999998935
                },
                {
                    "name": "F#5",
                    "midi": 78,
                    "time": 1387.390086000003,
                    "velocity": 0.7480314960629921,
                    "duration": 2.1865880000004836
                },
                {
                    "name": "F#6",
                    "midi": 90,
                    "time": 1387.390086000003,
                    "velocity": 0.7480314960629921,
                    "duration": 0.18221566666670697
                },
                {
                    "name": "G6",
                    "midi": 91,
                    "time": 1387.5723016666698,
                    "velocity": 0.5905511811023622,
                    "duration": 0.18221566666670697
                },
                {
                    "name": "F#6",
                    "midi": 90,
                    "time": 1387.7545173333365,
                    "velocity": 0.6456692913385826,
                    "duration": 0.18221566666670697
                },
                {
                    "name": "G6",
                    "midi": 91,
                    "time": 1387.9367330000032,
                    "velocity": 0.5669291338582677,
                    "duration": 0.18221566666670697
                },
                {
                    "name": "F#6",
                    "midi": 90,
                    "time": 1388.11894866667,
                    "velocity": 0.6220472440944882,
                    "duration": 0.18221566666670697
                },
                {
                    "name": "G6",
                    "midi": 91,
                    "time": 1388.3011643333366,
                    "velocity": 0.5590551181102362,
                    "duration": 0.18221566666670697
                },
                {
                    "name": "F#6",
                    "midi": 90,
                    "time": 1388.4833800000033,
                    "velocity": 0.5984251968503937,
                    "duration": 0.18221566666670697
                },
                {
                    "name": "G6",
                    "midi": 91,
                    "time": 1388.66559566667,
                    "velocity": 0.5433070866141733,
                    "duration": 0.18221566666670697
                },
                {
                    "name": "F#6",
                    "midi": 90,
                    "time": 1388.8478113333367,
                    "velocity": 0.5748031496062992,
                    "duration": 0.18221566666670697
                },
                {
                    "name": "G6",
                    "midi": 91,
                    "time": 1389.0300270000034,
                    "velocity": 0.5275590551181102,
                    "duration": 0.13666175000003022
                },
                {
                    "name": "F#6",
                    "midi": 90,
                    "time": 1389.1666887500035,
                    "velocity": 0.6062992125984252,
                    "duration": 0.13666175000003022
                },
                {
                    "name": "E6",
                    "midi": 88,
                    "time": 1389.3033505000035,
                    "velocity": 0.5826771653543307,
                    "duration": 0.13666175000003022
                },
                {
                    "name": "F#6",
                    "midi": 90,
                    "time": 1389.4400122500035,
                    "velocity": 0.6535433070866141,
                    "duration": 0.13666175000003022
                },
                {
                    "name": "G5",
                    "midi": 79,
                    "time": 1389.5766740000035,
                    "velocity": 0.6141732283464567,
                    "duration": 0.5466469999998935
                },
                {
                    "name": "G6",
                    "midi": 91,
                    "time": 1389.5766740000035,
                    "velocity": 0.7244094488188977,
                    "duration": 0.5466469999998935
                },
                {
                    "name": "D#4",
                    "midi": 63,
                    "time": 1390.6699680000033,
                    "velocity": 0.5905511811023622,
                    "duration": 0.5466469999998935
                },
                {
                    "name": "D#5",
                    "midi": 75,
                    "time": 1390.6699680000033,
                    "velocity": 0.7007874015748031,
                    "duration": 0.5466469999998935
                },
                {
                    "name": "A6",
                    "midi": 93,
                    "time": 1391.7632620000031,
                    "velocity": 0.7007874015748031,
                    "duration": 1.639940999999908
                },
                {
                    "name": "F6",
                    "midi": 89,
                    "time": 1391.7632620000031,
                    "velocity": 0.5905511811023622,
                    "duration": 1.639940999999908
                },
                {
                    "name": "D#6",
                    "midi": 87,
                    "time": 1391.7632620000031,
                    "velocity": 0.5905511811023622,
                    "duration": 1.639940999999908
                },
                {
                    "name": "C6",
                    "midi": 84,
                    "time": 1391.7632620000031,
                    "velocity": 0.5905511811023622,
                    "duration": 1.639940999999908
                },
                {
                    "name": "A5",
                    "midi": 81,
                    "time": 1391.7632620000031,
                    "velocity": 0.5905511811023622,
                    "duration": 1.639940999999908
                },
                {
                    "name": "A#6",
                    "midi": 94,
                    "time": 1393.949850000003,
                    "velocity": 0.7322834645669292,
                    "duration": 1.639940999999908
                },
                {
                    "name": "F6",
                    "midi": 89,
                    "time": 1393.949850000003,
                    "velocity": 0.6141732283464567,
                    "duration": 1.639940999999908
                },
                {
                    "name": "D6",
                    "midi": 86,
                    "time": 1393.949850000003,
                    "velocity": 0.6141732283464567,
                    "duration": 1.639940999999908
                },
                {
                    "name": "A#5",
                    "midi": 82,
                    "time": 1393.949850000003,
                    "velocity": 0.6141732283464567,
                    "duration": 1.639940999999908
                },
                {
                    "name": "A5",
                    "midi": 81,
                    "time": 1396.1364380000027,
                    "velocity": 0.7007874015748031,
                    "duration": 1.639940999999908
                },
                {
                    "name": "F5",
                    "midi": 77,
                    "time": 1396.1364380000027,
                    "velocity": 0.5905511811023622,
                    "duration": 1.639940999999908
                },
                {
                    "name": "D#5",
                    "midi": 75,
                    "time": 1396.1364380000027,
                    "velocity": 0.5905511811023622,
                    "duration": 1.639940999999908
                },
                {
                    "name": "C5",
                    "midi": 72,
                    "time": 1396.1364380000027,
                    "velocity": 0.5905511811023622,
                    "duration": 1.639940999999908
                },
                {
                    "name": "A4",
                    "midi": 69,
                    "time": 1396.1364380000027,
                    "velocity": 0.5905511811023622,
                    "duration": 1.639940999999908
                },
                {
                    "name": "A#5",
                    "midi": 82,
                    "time": 1399.4163200000025,
                    "velocity": 0.7401574803149606,
                    "duration": 4.373176000000058
                },
                {
                    "name": "F5",
                    "midi": 77,
                    "time": 1399.4163200000025,
                    "velocity": 0.6220472440944882,
                    "duration": 4.373176000000058
                },
                {
                    "name": "D5",
                    "midi": 74,
                    "time": 1399.4163200000025,
                    "velocity": 0.6220472440944882,
                    "duration": 4.373176000000058
                },
                {
                    "name": "A#4",
                    "midi": 70,
                    "time": 1399.4163200000025,
                    "velocity": 0.6220472440944882,
                    "duration": 4.373176000000058
                }
            ],
            "controlChanges": {},
            "id": 1,
            "name": "Piano right",
            "instrumentNumber": 0,
            "instrument": "acoustic grand piano",
            "instrumentFamily": "piano",
            "channelNumber": 0,
            "isPercussion": false
        },
        {
            "startTime": 0,
            "duration": 1403.7894960000024,
            "length": 3764,
            "notes": [
                {
                    "name": "F2",
                    "midi": 41,
                    "time": 0,
                    "velocity": 0.3937007874015748,
                    "duration": 0.18221566666666666
                },
                {
                    "name": "F3",
                    "midi": 53,
                    "time": 0.18221566666666666,
                    "velocity": 0.36220472440944884,
                    "duration": 0.13666175000000003
                },
                {
                    "name": "F3",
                    "midi": 53,
                    "time": 0.36443133333333333,
                    "velocity": 0.4251968503937008,
                    "duration": 0.18221566666666666
                },
                {
                    "name": "F1",
                    "midi": 29,
                    "time": 1.4577253333333333,
                    "velocity": 0.23622047244094488,
                    "duration": 1.0021861666666667
                },
                {
                    "name": "F2",
                    "midi": 41,
                    "time": 1.4577253333333333,
                    "velocity": 0.28346456692913385,
                    "duration": 1.0021861666666667
                },
                {
                    "name": "F2",
                    "midi": 41,
                    "time": 3.2798819999999997,
                    "velocity": 0.2125984251968504,
                    "duration": 0.5466470000000001
                },
                {
                    "name": "F3",
                    "midi": 53,
                    "time": 3.2798819999999997,
                    "velocity": 0.25196850393700787,
                    "duration": 0.5466470000000001
                },
                {
                    "name": "C#2",
                    "midi": 37,
                    "time": 5.466469999999999,
                    "velocity": 0.2204724409448819,
                    "duration": 0.5466470000000001
                },
                {
                    "name": "C#3",
                    "midi": 49,
                    "time": 5.466469999999999,
                    "velocity": 0.2677165354330709,
                    "duration": 0.5466470000000001
                },
                {
                    "name": "A#1",
                    "midi": 34,
                    "time": 7.653058,
                    "velocity": 0.2047244094488189,
                    "duration": 0.5466470000000001
                },
                {
                    "name": "A#2",
                    "midi": 46,
                    "time": 7.653058,
                    "velocity": 0.2440944881889764,
                    "duration": 0.5466470000000001
                },
                {
                    "name": "F#1",
                    "midi": 30,
                    "time": 9.839646,
                    "velocity": 0.15748031496062992,
                    "duration": 0.5466470000000001
                },
                {
                    "name": "F#2",
                    "midi": 42,
                    "time": 9.839646,
                    "velocity": 0.1889763779527559,
                    "duration": 0.5466470000000001
                },
                {
                    "name": "F3",
                    "midi": 53,
                    "time": 15.5794395,
                    "velocity": 0.2283464566929134,
                    "duration": 0.27332350000000005
                },
                {
                    "name": "G#3",
                    "midi": 56,
                    "time": 15.852763,
                    "velocity": 0.25196850393700787,
                    "duration": 0.27332350000000005
                },
                {
                    "name": "F3",
                    "midi": 53,
                    "time": 16.1260865,
                    "velocity": 0.2125984251968504,
                    "duration": 0.27332350000000005
                },
                {
                    "name": "G#3",
                    "midi": 56,
                    "time": 16.39941,
                    "velocity": 0.25196850393700787,
                    "duration": 0.27332350000000005
                },
                {
                    "name": "F3",
                    "midi": 53,
                    "time": 16.6727335,
                    "velocity": 0.2047244094488189,
                    "duration": 0.27332350000000005
                },
                {
                    "name": "G#3",
                    "midi": 56,
                    "time": 16.946057,
                    "velocity": 0.2440944881889764,
                    "duration": 0.27332350000000005
                },
                {
                    "name": "C#3",
                    "midi": 49,
                    "time": 17.2193805,
                    "velocity": 0.1968503937007874,
                    "duration": 0.27332350000000005
                },
                {
                    "name": "F#3",
                    "midi": 54,
                    "time": 17.492704,
                    "velocity": 0.2992125984251969,
                    "duration": 0.5466470000000001
                },
                {
                    "name": "C3",
                    "midi": 48,
                    "time": 18.039351,
                    "velocity": 0.23622047244094488,
                    "duration": 0.5466470000000001
                },
                {
                    "name": "C#3",
                    "midi": 49,
                    "time": 18.585998,
                    "velocity": 0.2204724409448819,
                    "duration": 0.5466470000000001
                },
                {
                    "name": "F#2",
                    "midi": 42,
                    "time": 19.132645,
                    "velocity": 0.2204724409448819,
                    "duration": 0.5466470000000001
                },
                {
                    "name": "F#3",
                    "midi": 54,
                    "time": 20.225939,
                    "velocity": 0.2440944881889764,
                    "duration": 0.5466470000000001
                },
                {
                    "name": "F#2",
                    "midi": 42,
                    "time": 20.225939,
                    "velocity": 0.2047244094488189,
                    "duration": 0.5466470000000001
                },
                {
                    "name": "D#3",
                    "midi": 51,
                    "time": 21.86588,
                    "velocity": 0.25196850393700787,
                    "duration": 0.5466470000000001
                },
                {
                    "name": "D#2",
                    "midi": 39,
                    "time": 21.86588,
                    "velocity": 0.2125984251968504,
                    "duration": 0.5466470000000001
                },
                {
                    "name": "B1",
                    "midi": 35,
                    "time": 22.959174,
                    "velocity": 0.2125984251968504,
                    "duration": 0.27332350000000005
                },
                {
                    "name": "B2",
                    "midi": 47,
                    "time": 22.959174,
                    "velocity": 0.25196850393700787,
                    "duration": 0.27332350000000005
                },
                {
                    "name": "F#3",
                    "midi": 54,
                    "time": 23.2324975,
                    "velocity": 0.23622047244094488,
                    "duration": 0.27332350000000005
                },
                {
                    "name": "G#3",
                    "midi": 56,
                    "time": 23.505821,
                    "velocity": 0.2440944881889764,
                    "duration": 0.27332350000000005
                },
                {
                    "name": "A#3",
                    "midi": 58,
                    "time": 23.7791445,
                    "velocity": 0.2440944881889764,
                    "duration": 0.27332350000000005
                },
                {
                    "name": "B3",
                    "midi": 59,
                    "time": 24.052468,
                    "velocity": 0.25196850393700787,
                    "duration": 0.27332350000000005
                },
                {
                    "name": "C#4",
                    "midi": 61,
                    "time": 24.3257915,
                    "velocity": 0.25984251968503935,
                    "duration": 0.27332350000000005
                },
                {
                    "name": "D#4",
                    "midi": 63,
                    "time": 24.599115,
                    "velocity": 0.2677165354330709,
                    "duration": 0.27332350000000005
                },
                {
                    "name": "E4",
                    "midi": 64,
                    "time": 24.8724385,
                    "velocity": 0.2755905511811024,
                    "duration": 0.27332350000000005
                },
                {
                    "name": "D#4",
                    "midi": 63,
                    "time": 25.145762,
                    "velocity": 0.28346456692913385,
                    "duration": 0.27332350000000005
                },
                {
                    "name": "B3",
                    "midi": 59,
                    "time": 25.4190855,
                    "velocity": 0.25984251968503935,
                    "duration": 0.3006558499999983
                },
                {
                    "name": "F#4",
                    "midi": 66,
                    "time": 25.692409,
                    "velocity": 0.30708661417322836,
                    "duration": 0.30065584999999473
                },
                {
                    "name": "E4",
                    "midi": 64,
                    "time": 25.965732499999998,
                    "velocity": 0.30708661417322836,
                    "duration": 0.30065584999999473
                },
                {
                    "name": "D#4",
                    "midi": 63,
                    "time": 26.239055999999994,
                    "velocity": 0.31496062992125984,
                    "duration": 0.30065584999999473
                },
                {
                    "name": "C#4",
                    "midi": 61,
                    "time": 26.51237949999999,
                    "velocity": 0.3228346456692913,
                    "duration": 0.30065584999999473
                },
                {
                    "name": "B3",
                    "midi": 59,
                    "time": 26.785702999999987,
                    "velocity": 0.33070866141732286,
                    "duration": 0.30065584999999473
                },
                {
                    "name": "A#3",
                    "midi": 58,
                    "time": 27.059026499999984,
                    "velocity": 0.33858267716535434,
                    "duration": 0.30065584999999473
                },
                {
                    "name": "B3",
                    "midi": 59,
                    "time": 27.33234999999998,
                    "velocity": 0.33858267716535434,
                    "duration": 0.30065584999999473
                },
                {
                    "name": "F#3",
                    "midi": 54,
                    "time": 27.605673499999977,
                    "velocity": 0.2992125984251969,
                    "duration": 0.2733234999999965
                },
                {
                    "name": "G#3",
                    "midi": 56,
                    "time": 27.878996999999973,
                    "velocity": 0.3464566929133858,
                    "duration": 0.3006558499999983
                },
                {
                    "name": "A#3",
                    "midi": 58,
                    "time": 28.152320499999973,
                    "velocity": 0.3464566929133858,
                    "duration": 0.30065584999999473
                },
                {
                    "name": "B3",
                    "midi": 59,
                    "time": 28.42564399999997,
                    "velocity": 0.33858267716535434,
                    "duration": 0.30065584999999473
                },
                {
                    "name": "C#4",
                    "midi": 61,
                    "time": 28.698967499999966,
                    "velocity": 0.33858267716535434,
                    "duration": 0.30065584999999473
                },
                {
                    "name": "D#4",
                    "midi": 63,
                    "time": 28.972290999999963,
                    "velocity": 0.33070866141732286,
                    "duration": 0.30065584999999473
                },
                {
                    "name": "E4",
                    "midi": 64,
                    "time": 29.24561449999996,
                    "velocity": 0.33070866141732286,
                    "duration": 0.30065584999999473
                },
                {
                    "name": "D#4",
                    "midi": 63,
                    "time": 29.518937999999956,
                    "velocity": 0.33070866141732286,
                    "duration": 0.2733234999999965
                },
                {
                    "name": "D#5",
                    "midi": 75,
                    "time": 29.792261499999952,
                    "velocity": 0.33070866141732286,
                    "duration": 0.3006558499999983
                },
                {
                    "name": "F#5",
                    "midi": 78,
                    "time": 30.065584999999952,
                    "velocity": 0.30708661417322836,
                    "duration": 0.30065584999999473
                },
                {
                    "name": "E5",
                    "midi": 76,
                    "time": 30.33890849999995,
                    "velocity": 0.31496062992125984,
                    "duration": 0.30065584999999473
                },
                {
                    "name": "D#5",
                    "midi": 75,
                    "time": 30.612231999999945,
                    "velocity": 0.33070866141732286,
                    "duration": 0.30065584999999473
                },
                {
                    "name": "C#5",
                    "midi": 73,
                    "time": 30.885555499999942,
                    "velocity": 0.3464566929133858,
                    "duration": 0.30065584999999473
                },
                {
                    "name": "B4",
                    "midi": 71,
                    "time": 31.15887899999994,
                    "velocity": 0.3543307086614173,
                    "duration": 0.30065584999999473
                },
                {
                    "name": "A#4",
                    "midi": 70,
                    "time": 31.432202499999935,
                    "velocity": 0.3700787401574803,
                    "duration": 0.30065584999999473
                },
                {
                    "name": "B4",
                    "midi": 71,
                    "time": 31.70552599999993,
                    "velocity": 0.3937007874015748,
                    "duration": 0.30065584999999473
                },
                {
                    "name": "A#4",
                    "midi": 70,
                    "time": 31.978849499999928,
                    "velocity": 0.33070866141732286,
                    "duration": 0.30065585000000183
                },
                {
                    "name": "D#5",
                    "midi": 75,
                    "time": 32.25217299999993,
                    "velocity": 0.33070866141732286,
                    "duration": 0.3006558500000054
                },
                {
                    "name": "C#5",
                    "midi": 73,
                    "time": 32.52549649999993,
                    "velocity": 0.33070866141732286,
                    "duration": 0.3006558500000054
                },
                {
                    "name": "B4",
                    "midi": 71,
                    "time": 32.798819999999935,
                    "velocity": 0.3858267716535433,
                    "duration": 0.3006558500000054
                },
                {
                    "name": "A#4",
                    "midi": 70,
                    "time": 33.07214349999994,
                    "velocity": 0.29133858267716534,
                    "duration": 0.3006558500000054
                },
                {
                    "name": "G#4",
                    "midi": 68,
                    "time": 33.34546699999994,
                    "velocity": 0.29133858267716534,
                    "duration": 0.3006558500000054
                },
                {
                    "name": "F#4",
                    "midi": 66,
                    "time": 33.618790499999946,
                    "velocity": 0.29133858267716534,
                    "duration": 0.3006558500000054
                },
                {
                    "name": "E4",
                    "midi": 64,
                    "time": 33.89211399999995,
                    "velocity": 0.36220472440944884,
                    "duration": 0.3006558500000054
                },
                {
                    "name": "D#4",
                    "midi": 63,
                    "time": 34.16543749999995,
                    "velocity": 0.33070866141732286,
                    "duration": 0.3006558500000054
                },
                {
                    "name": "C#4",
                    "midi": 61,
                    "time": 34.43876099999996,
                    "velocity": 0.33070866141732286,
                    "duration": 0.3006558500000054
                },
                {
                    "name": "B3",
                    "midi": 59,
                    "time": 34.71208449999996,
                    "velocity": 0.33070866141732286,
                    "duration": 0.3006558500000054
                },
                {
                    "name": "A#3",
                    "midi": 58,
                    "time": 34.985407999999964,
                    "velocity": 0.33070866141732286,
                    "duration": 0.2733235000000036
                },
                {
                    "name": "C#4",
                    "midi": 61,
                    "time": 35.25873149999997,
                    "velocity": 0.3543307086614173,
                    "duration": 0.2733234999999965
                },
                {
                    "name": "B3",
                    "midi": 59,
                    "time": 35.532054999999964,
                    "velocity": 0.3700787401574803,
                    "duration": 0.2733234999999965
                },
                {
                    "name": "E4",
                    "midi": 64,
                    "time": 35.80537849999996,
                    "velocity": 0.3937007874015748,
                    "duration": 0.2733234999999965
                },
                {
                    "name": "D#4",
                    "midi": 63,
                    "time": 36.07870199999996,
                    "velocity": 0.3937007874015748,
                    "duration": 0.2733234999999965
                },
                {
                    "name": "D4",
                    "midi": 62,
                    "time": 36.352025499999954,
                    "velocity": 0.30708661417322836,
                    "duration": 0.2733234999999965
                },
                {
                    "name": "C#4",
                    "midi": 61,
                    "time": 36.62534899999995,
                    "velocity": 0.3700787401574803,
                    "duration": 0.2733234999999965
                },
                {
                    "name": "F#3",
                    "midi": 54,
                    "time": 36.89867249999995,
                    "velocity": 0.31496062992125984,
                    "duration": 0.2733234999999965
                },
                {
                    "name": "C#4",
                    "midi": 61,
                    "time": 37.17199599999994,
                    "velocity": 0.2677165354330709,
                    "duration": 0.8199704999999966
                },
                {
                    "name": "F#4",
                    "midi": 66,
                    "time": 37.17199599999994,
                    "velocity": 0.31496062992125984,
                    "duration": 0.8199704999999966
                },
                {
                    "name": "F#3",
                    "midi": 54,
                    "time": 37.17199599999994,
                    "velocity": 0.2677165354330709,
                    "duration": 0.8199704999999966
                },
                {
                    "name": "B2",
                    "midi": 47,
                    "time": 38.811936999999936,
                    "velocity": 0.25196850393700787,
                    "duration": 0.5466470000000001
                },
                {
                    "name": "B1",
                    "midi": 35,
                    "time": 38.811936999999936,
                    "velocity": 0.25196850393700787,
                    "duration": 0.5466470000000001
                },
                {
                    "name": "G#1",
                    "midi": 32,
                    "time": 40.45187799999994,
                    "velocity": 0.6456692913385826,
                    "duration": 0.5466470000000001
                },
                {
                    "name": "G#2",
                    "midi": 44,
                    "time": 40.45187799999994,
                    "velocity": 0.6456692913385826,
                    "duration": 0.5466470000000001
                },
                {
                    "name": "G#4",
                    "midi": 68,
                    "time": 42.911789499999934,
                    "velocity": 0.30708661417322836,
                    "duration": 0.2733234999999965
                },
                {
                    "name": "C#4",
                    "midi": 61,
                    "time": 43.18511299999993,
                    "velocity": 0.3228346456692913,
                    "duration": 0.2733234999999965
                },
                {
                    "name": "G#4",
                    "midi": 68,
                    "time": 43.45843649999993,
                    "velocity": 0.29133858267716534,
                    "duration": 0.2733234999999965
                },
                {
                    "name": "A#4",
                    "midi": 70,
                    "time": 43.73175999999992,
                    "velocity": 0.33070866141732286,
                    "duration": 0.2733234999999965
                },
                {
                    "name": "G#4",
                    "midi": 68,
                    "time": 44.00508349999992,
                    "velocity": 0.2677165354330709,
                    "duration": 0.2733234999999965
                },
                {
                    "name": "C#4",
                    "midi": 61,
                    "time": 44.278406999999916,
                    "velocity": 0.3228346456692913,
                    "duration": 0.2733234999999965
                },
                {
                    "name": "G#4",
                    "midi": 68,
                    "time": 44.55173049999991,
                    "velocity": 0.2677165354330709,
                    "duration": 0.2733234999999965
                },
                {
                    "name": "G4",
                    "midi": 67,
                    "time": 44.82505399999991,
                    "velocity": 0.3543307086614173,
                    "duration": 1.6399410000000003
                },
                {
                    "name": "G4",
                    "midi": 67,
                    "time": 46.46499499999991,
                    "velocity": 0.4094488188976378,
                    "duration": 1.0932940000000002
                },
                {
                    "name": "G4",
                    "midi": 67,
                    "time": 47.55828899999991,
                    "velocity": 0.3858267716535433,
                    "duration": 0.5466470000000001
                },
                {
                    "name": "E4",
                    "midi": 64,
                    "time": 48.10493599999991,
                    "velocity": 0.44881889763779526,
                    "duration": 0.5466470000000001
                },
                {
                    "name": "D#4",
                    "midi": 63,
                    "time": 48.65158299999991,
                    "velocity": 0.4094488188976378,
                    "duration": 0.5466470000000001
                },
                {
                    "name": "C#4",
                    "midi": 61,
                    "time": 49.19822999999991,
                    "velocity": 0.47244094488188976,
                    "duration": 0.2733234999999965
                },
                {
                    "name": "G#3",
                    "midi": 56,
                    "time": 49.47155349999991,
                    "velocity": 0.29133858267716534,
                    "duration": 0.2733234999999965
                },
                {
                    "name": "C#3",
                    "midi": 49,
                    "time": 49.7448769999999,
                    "velocity": 0.33070866141732286,
                    "duration": 0.2733234999999965
                },
                {
                    "name": "G#3",
                    "midi": 56,
                    "time": 50.0182004999999,
                    "velocity": 0.29133858267716534,
                    "duration": 0.2733234999999965
                },
                {
                    "name": "A3",
                    "midi": 57,
                    "time": 50.291523999999896,
                    "velocity": 0.3464566929133858,
                    "duration": 0.2733234999999965
                },
                {
                    "name": "G#3",
                    "midi": 56,
                    "time": 50.56484749999989,
                    "velocity": 0.29133858267716534,
                    "duration": 0.2733234999999965
                },
                {
                    "name": "C#3",
                    "midi": 49,
                    "time": 50.83817099999989,
                    "velocity": 0.29133858267716534,
                    "duration": 0.2733234999999965
                },
                {
                    "name": "G#3",
                    "midi": 56,
                    "time": 51.111494499999885,
                    "velocity": 0.29133858267716534,
                    "duration": 0.2733234999999965
                },
                {
                    "name": "A3",
                    "midi": 57,
                    "time": 51.38481799999988,
                    "velocity": 0.36220472440944884,
                    "duration": 1.6399410000000003
                },
                {
                    "name": "G#3",
                    "midi": 56,
                    "time": 53.02475899999988,
                    "velocity": 0.31496062992125984,
                    "duration": 0.5466470000000001
                },
                {
                    "name": "A#3",
                    "midi": 58,
                    "time": 53.57140599999988,
                    "velocity": 0.44881889763779526,
                    "duration": 0.2733234999999965
                },
                {
                    "name": "G3",
                    "midi": 55,
                    "time": 53.57140599999988,
                    "velocity": 0.44881889763779526,
                    "duration": 2.186587999999972
                },
                {
                    "name": "C#4",
                    "midi": 61,
                    "time": 53.84472949999988,
                    "velocity": 0.3464566929133858,
                    "duration": 0.2733234999999965
                },
                {
                    "name": "A#3",
                    "midi": 58,
                    "time": 54.118052999999875,
                    "velocity": 0.4094488188976378,
                    "duration": 0.2733234999999965
                },
                {
                    "name": "D#4",
                    "midi": 63,
                    "time": 54.39137649999987,
                    "velocity": 0.3464566929133858,
                    "duration": 0.2733234999999965
                },
                {
                    "name": "E4",
                    "midi": 64,
                    "time": 54.66469999999987,
                    "velocity": 0.4251968503937008,
                    "duration": 0.2733234999999965
                },
                {
                    "name": "D#4",
                    "midi": 63,
                    "time": 54.938023499999865,
                    "velocity": 0.33070866141732286,
                    "duration": 0.2733234999999965
                },
                {
                    "name": "A#3",
                    "midi": 58,
                    "time": 55.21134699999986,
                    "velocity": 0.36220472440944884,
                    "duration": 0.2733234999999965
                },
                {
                    "name": "D#4",
                    "midi": 63,
                    "time": 55.48467049999986,
                    "velocity": 0.30708661417322836,
                    "duration": 0.2733234999999965
                },
                {
                    "name": "G#3",
                    "midi": 56,
                    "time": 55.757993999999854,
                    "velocity": 0.4330708661417323,
                    "duration": 0.546646999999993
                },
                {
                    "name": "B3",
                    "midi": 59,
                    "time": 56.03131749999985,
                    "velocity": 0.3228346456692913,
                    "duration": 0.2733234999999965
                },
                {
                    "name": "G#3",
                    "midi": 56,
                    "time": 56.30464099999985,
                    "velocity": 0.33070866141732286,
                    "duration": 0.2733234999999965
                },
                {
                    "name": "B3",
                    "midi": 59,
                    "time": 56.577964499999844,
                    "velocity": 0.33070866141732286,
                    "duration": 0.2733234999999965
                },
                {
                    "name": "C#4",
                    "midi": 61,
                    "time": 56.85128799999984,
                    "velocity": 0.41732283464566927,
                    "duration": 0.2733234999999965
                },
                {
                    "name": "B3",
                    "midi": 59,
                    "time": 57.12461149999984,
                    "velocity": 0.29133858267716534,
                    "duration": 0.2733234999999965
                },
                {
                    "name": "G#3",
                    "midi": 56,
                    "time": 57.39793499999983,
                    "velocity": 0.3543307086614173,
                    "duration": 0.2733234999999965
                },
                {
                    "name": "B2",
                    "midi": 47,
                    "time": 57.39793499999983,
                    "velocity": 0.2992125984251969,
                    "duration": 0.546646999999993
                },
                {
                    "name": "B3",
                    "midi": 59,
                    "time": 57.67125849999983,
                    "velocity": 0.29133858267716534,
                    "duration": 0.2733234999999965
                },
                {
                    "name": "E3",
                    "midi": 52,
                    "time": 57.944581999999826,
                    "velocity": 0.3858267716535433,
                    "duration": 0.5466470000000001
                },
                {
                    "name": "C#3",
                    "midi": 49,
                    "time": 57.944581999999826,
                    "velocity": 0.3228346456692913,
                    "duration": 1.6399410000000003
                },
                {
                    "name": "C#4",
                    "midi": 61,
                    "time": 58.49122899999983,
                    "velocity": 0.44881889763779526,
                    "duration": 1.0932940000000002
                },
                {
                    "name": "B3",
                    "midi": 59,
                    "time": 59.58452299999983,
                    "velocity": 0.36220472440944884,
                    "duration": 0.5466470000000001
                },
                {
                    "name": "D#3",
                    "midi": 51,
                    "time": 59.58452299999983,
                    "velocity": 0.30708661417322836,
                    "duration": 0.5466470000000001
                },
                {
                    "name": "B3",
                    "midi": 59,
                    "time": 60.13116999999983,
                    "velocity": 0.44881889763779526,
                    "duration": 0.5466470000000001
                },
                {
                    "name": "D#3",
                    "midi": 51,
                    "time": 60.13116999999983,
                    "velocity": 0.3779527559055118,
                    "duration": 1.6399410000000003
                },
                {
                    "name": "A#3",
                    "midi": 58,
                    "time": 60.67781699999983,
                    "velocity": 0.3779527559055118,
                    "duration": 0.5466470000000001
                },
                {
                    "name": "G#3",
                    "midi": 56,
                    "time": 61.22446399999983,
                    "velocity": 0.4330708661417323,
                    "duration": 0.5466470000000001
                },
                {
                    "name": "D#3",
                    "midi": 51,
                    "time": 61.77111099999983,
                    "velocity": 0.3228346456692913,
                    "duration": 0.5466470000000001
                },
                {
                    "name": "G3",
                    "midi": 55,
                    "time": 61.77111099999983,
                    "velocity": 0.3858267716535433,
                    "duration": 0.5466470000000001
                },
                {
                    "name": "G#2",
                    "midi": 44,
                    "time": 63.95769899999983,
                    "velocity": 0.15748031496062992,
                    "duration": 0.5466470000000001
                },
                {
                    "name": "G#3",
                    "midi": 56,
                    "time": 63.95769899999983,
                    "velocity": 0.1889763779527559,
                    "duration": 0.5466470000000001
                },
                {
                    "name": "E2",
                    "midi": 40,
                    "time": 66.14428699999982,
                    "velocity": 0.15748031496062992,
                    "duration": 0.546646999999993
                },
                {
                    "name": "E3",
                    "midi": 52,
                    "time": 66.14428699999982,
                    "velocity": 0.1889763779527559,
                    "duration": 0.546646999999993
                },
                {
                    "name": "C#3",
                    "midi": 49,
                    "time": 68.3308749999998,
                    "velocity": 0.1889763779527559,
                    "duration": 0.546646999999993
                },
                {
                    "name": "C#2",
                    "midi": 37,
                    "time": 68.3308749999998,
                    "velocity": 0.15748031496062992,
                    "duration": 0.546646999999993
                },
                {
                    "name": "A1",
                    "midi": 33,
                    "time": 70.15303166666646,
                    "velocity": 0.2992125984251969,
                    "duration": 0.18221566666666433
                },
                {
                    "name": "A2",
                    "midi": 45,
                    "time": 70.33524733333313,
                    "velocity": 0.25196850393700787,
                    "duration": 0.1366617500000018
                },
                {
                    "name": "A2",
                    "midi": 45,
                    "time": 70.5174629999998,
                    "velocity": 0.3228346456692913,
                    "duration": 0.18221566666666433
                },
                {
                    "name": "A3",
                    "midi": 57,
                    "time": 70.69967866666646,
                    "velocity": 0.25196850393700787,
                    "duration": 0.1366617500000018
                },
                {
                    "name": "A3",
                    "midi": 57,
                    "time": 70.88189433333312,
                    "velocity": 0.25196850393700787,
                    "duration": 0.18221566666666433
                },
                {
                    "name": "A2",
                    "midi": 45,
                    "time": 71.97518833333312,
                    "velocity": 0.25196850393700787,
                    "duration": 0.18221566666666433
                },
                {
                    "name": "A1",
                    "midi": 33,
                    "time": 71.97518833333312,
                    "velocity": 0.2125984251968504,
                    "duration": 0.18221566666666433
                },
                {
                    "name": "B2",
                    "midi": 47,
                    "time": 72.15740399999979,
                    "velocity": 0.30708661417322836,
                    "duration": 17.492703999999364
                },
                {
                    "name": "A1",
                    "midi": 33,
                    "time": 72.15740399999979,
                    "velocity": 0.25984251968503935,
                    "duration": 17.492703999999364
                },
                {
                    "name": "D2",
                    "midi": 38,
                    "time": 72.15740399999979,
                    "velocity": 0.25984251968503935,
                    "duration": 17.492703999999364
                },
                {
                    "name": "E2",
                    "midi": 40,
                    "time": 72.15740399999979,
                    "velocity": 0.25984251968503935,
                    "duration": 17.492703999999364
                },
                {
                    "name": "B3",
                    "midi": 59,
                    "time": 79.81046199999979,
                    "velocity": 0.33070866141732286,
                    "duration": 0.2733235000000036
                },
                {
                    "name": "G#3",
                    "midi": 56,
                    "time": 80.08378549999979,
                    "velocity": 0.28346456692913385,
                    "duration": 0.2733235000000036
                },
                {
                    "name": "E3",
                    "midi": 52,
                    "time": 80.3571089999998,
                    "velocity": 0.29133858267716534,
                    "duration": 0.2733235000000036
                },
                {
                    "name": "D#3",
                    "midi": 51,
                    "time": 80.6304324999998,
                    "velocity": 0.29133858267716534,
                    "duration": 0.2733235000000036
                },
                {
                    "name": "D3",
                    "midi": 50,
                    "time": 80.9037559999998,
                    "velocity": 0.3779527559055118,
                    "duration": 0.16399409999999648
                },
                {
                    "name": "E3",
                    "midi": 52,
                    "time": 81.0404177499998,
                    "velocity": 0.30708661417322836,
                    "duration": 0.16399409999998227
                },
                {
                    "name": "D3",
                    "midi": 50,
                    "time": 81.17707949999979,
                    "velocity": 0.3779527559055118,
                    "duration": 0.16399409999998227
                },
                {
                    "name": "E3",
                    "midi": 52,
                    "time": 81.31374124999978,
                    "velocity": 0.3228346456692913,
                    "duration": 0.16399409999998227
                },
                {
                    "name": "D3",
                    "midi": 50,
                    "time": 81.45040299999977,
                    "velocity": 0.31496062992125984,
                    "duration": 0.16399409999998227
                },
                {
                    "name": "E3",
                    "midi": 52,
                    "time": 81.58706474999975,
                    "velocity": 0.2677165354330709,
                    "duration": 0.16399409999998227
                },
                {
                    "name": "D3",
                    "midi": 50,
                    "time": 81.72372649999974,
                    "velocity": 0.31496062992125984,
                    "duration": 0.16399409999998227
                },
                {
                    "name": "E3",
                    "midi": 52,
                    "time": 81.86038824999973,
                    "velocity": 0.2755905511811024,
                    "duration": 0.16399409999998227
                },
                {
                    "name": "D3",
                    "midi": 50,
                    "time": 81.99704999999972,
                    "velocity": 0.31496062992125984,
                    "duration": 0.16399409999998227
                },
                {
                    "name": "E3",
                    "midi": 52,
                    "time": 82.1337117499997,
                    "velocity": 0.2677165354330709,
                    "duration": 0.16399409999998227
                },
                {
                    "name": "D3",
                    "midi": 50,
                    "time": 82.27037349999969,
                    "velocity": 0.31496062992125984,
                    "duration": 0.16399409999998227
                },
                {
                    "name": "E3",
                    "midi": 52,
                    "time": 82.40703524999968,
                    "velocity": 0.2755905511811024,
                    "duration": 0.16399409999998227
                },
                {
                    "name": "D3",
                    "midi": 50,
                    "time": 82.54369699999967,
                    "velocity": 0.31496062992125984,
                    "duration": 0.16399409999998227
                },
                {
                    "name": "E3",
                    "midi": 52,
                    "time": 82.68035874999966,
                    "velocity": 0.2677165354330709,
                    "duration": 0.16399409999998227
                },
                {
                    "name": "D3",
                    "midi": 50,
                    "time": 82.81702049999964,
                    "velocity": 0.31496062992125984,
                    "duration": 0.16399409999998227
                },
                {
                    "name": "E3",
                    "midi": 52,
                    "time": 82.95368224999963,
                    "velocity": 0.2755905511811024,
                    "duration": 0.16399409999998227
                },
                {
                    "name": "D3",
                    "midi": 50,
                    "time": 83.09034399999962,
                    "velocity": 0.31496062992125984,
                    "duration": 0.16399409999998227
                },
                {
                    "name": "E3",
                    "midi": 52,
                    "time": 83.2270057499996,
                    "velocity": 0.2677165354330709,
                    "duration": 0.16399409999998227
                },
                {
                    "name": "D3",
                    "midi": 50,
                    "time": 83.3636674999996,
                    "velocity": 0.31496062992125984,
                    "duration": 0.16399409999998227
                },
                {
                    "name": "E3",
                    "midi": 52,
                    "time": 83.50032924999958,
                    "velocity": 0.2677165354330709,
                    "duration": 0.16399409999998227
                },
                {
                    "name": "D3",
                    "midi": 50,
                    "time": 83.63699099999957,
                    "velocity": 0.31496062992125984,
                    "duration": 0.16399409999998227
                },
                {
                    "name": "E3",
                    "midi": 52,
                    "time": 83.77365274999956,
                    "velocity": 0.2677165354330709,
                    "duration": 0.16399409999998227
                },
                {
                    "name": "D3",
                    "midi": 50,
                    "time": 83.91031449999954,
                    "velocity": 0.31496062992125984,
                    "duration": 0.16399409999998227
                },
                {
                    "name": "E3",
                    "midi": 52,
                    "time": 84.04697624999953,
                    "velocity": 0.2677165354330709,
                    "duration": 0.1366617499999876
                },
                {
                    "name": "D#3",
                    "midi": 51,
                    "time": 84.18363799999952,
                    "velocity": 0.3543307086614173,
                    "duration": 0.16399409999999648
                },
                {
                    "name": "E3",
                    "midi": 52,
                    "time": 84.32029974999952,
                    "velocity": 0.2992125984251969,
                    "duration": 0.16399409999998227
                },
                {
                    "name": "D#3",
                    "midi": 51,
                    "time": 84.45696149999951,
                    "velocity": 0.3543307086614173,
                    "duration": 0.16399409999998227
                },
                {
                    "name": "E3",
                    "midi": 52,
                    "time": 84.5936232499995,
                    "velocity": 0.3228346456692913,
                    "duration": 0.16399409999998227
                },
                {
                    "name": "D#3",
                    "midi": 51,
                    "time": 84.73028499999948,
                    "velocity": 0.31496062992125984,
                    "duration": 0.16399409999998227
                },
                {
                    "name": "E3",
                    "midi": 52,
                    "time": 84.86694674999947,
                    "velocity": 0.2677165354330709,
                    "duration": 0.16399409999998227
                },
                {
                    "name": "D#3",
                    "midi": 51,
                    "time": 85.00360849999946,
                    "velocity": 0.31496062992125984,
                    "duration": 0.16399409999998227
                },
                {
                    "name": "E3",
                    "midi": 52,
                    "time": 85.14027024999945,
                    "velocity": 0.2755905511811024,
                    "duration": 0.16399409999998227
                },
                {
                    "name": "D#3",
                    "midi": 51,
                    "time": 85.27693199999943,
                    "velocity": 0.31496062992125984,
                    "duration": 0.16399409999998227
                },
                {
                    "name": "E3",
                    "midi": 52,
                    "time": 85.41359374999942,
                    "velocity": 0.2755905511811024,
                    "duration": 0.16399409999998227
                },
                {
                    "name": "D#3",
                    "midi": 51,
                    "time": 85.55025549999941,
                    "velocity": 0.31496062992125984,
                    "duration": 0.16399409999998227
                },
                {
                    "name": "E3",
                    "midi": 52,
                    "time": 85.6869172499994,
                    "velocity": 0.2755905511811024,
                    "duration": 0.16399409999998227
                },
                {
                    "name": "D#3",
                    "midi": 51,
                    "time": 85.82357899999938,
                    "velocity": 0.31496062992125984,
                    "duration": 0.16399409999999648
                },
                {
                    "name": "E3",
                    "midi": 52,
                    "time": 86.00579466666605,
                    "velocity": 0.2755905511811024,
                    "duration": 0.21865880000000004
                },
                {
                    "name": "D#3",
                    "midi": 51,
                    "time": 86.18801033333271,
                    "velocity": 0.31496062992125984,
                    "duration": 0.21865880000000004
                },
                {
                    "name": "E3",
                    "midi": 52,
                    "time": 86.37022599999938,
                    "velocity": 0.33070866141732286,
                    "duration": 0.1366617500000018
                },
                {
                    "name": "F#3",
                    "midi": 54,
                    "time": 86.50688774999938,
                    "velocity": 0.2755905511811024,
                    "duration": 0.16399409999999648
                },
                {
                    "name": "E3",
                    "midi": 52,
                    "time": 86.64354949999938,
                    "velocity": 0.3464566929133858,
                    "duration": 0.16399409999998227
                },
                {
                    "name": "F#3",
                    "midi": 54,
                    "time": 86.78021124999937,
                    "velocity": 0.2992125984251969,
                    "duration": 0.16399409999998227
                },
                {
                    "name": "E3",
                    "midi": 52,
                    "time": 86.91687299999936,
                    "velocity": 0.31496062992125984,
                    "duration": 0.16399409999998227
                },
                {
                    "name": "F#3",
                    "midi": 54,
                    "time": 87.05353474999934,
                    "velocity": 0.2755905511811024,
                    "duration": 0.16399409999998227
                },
                {
                    "name": "E3",
                    "midi": 52,
                    "time": 87.19019649999933,
                    "velocity": 0.31496062992125984,
                    "duration": 0.16399409999998227
                },
                {
                    "name": "F#3",
                    "midi": 54,
                    "time": 87.32685824999932,
                    "velocity": 0.2755905511811024,
                    "duration": 0.16399409999998227
                },
                {
                    "name": "E3",
                    "midi": 52,
                    "time": 87.4635199999993,
                    "velocity": 0.31496062992125984,
                    "duration": 0.16399409999998227
                },
                {
                    "name": "F#3",
                    "midi": 54,
                    "time": 87.6001817499993,
                    "velocity": 0.2755905511811024,
                    "duration": 0.16399409999998227
                },
                {
                    "name": "E3",
                    "midi": 52,
                    "time": 87.73684349999928,
                    "velocity": 0.31496062992125984,
                    "duration": 0.16399409999998227
                },
                {
                    "name": "F#3",
                    "midi": 54,
                    "time": 87.87350524999927,
                    "velocity": 0.2755905511811024,
                    "duration": 0.16399409999998227
                },
                {
                    "name": "E3",
                    "midi": 52,
                    "time": 88.01016699999926,
                    "velocity": 0.31496062992125984,
                    "duration": 0.16399409999998227
                },
                {
                    "name": "F#3",
                    "midi": 54,
                    "time": 88.14682874999924,
                    "velocity": 0.2755905511811024,
                    "duration": 0.16399409999998227
                },
                {
                    "name": "E3",
                    "midi": 52,
                    "time": 88.28349049999923,
                    "velocity": 0.31496062992125984,
                    "duration": 0.16399409999998227
                },
                {
                    "name": "F#3",
                    "midi": 54,
                    "time": 88.42015224999922,
                    "velocity": 0.28346456692913385,
                    "duration": 0.16399409999998227
                },
                {
                    "name": "E3",
                    "midi": 52,
                    "time": 88.5568139999992,
                    "velocity": 0.31496062992125984,
                    "duration": 0.16399409999998227
                },
                {
                    "name": "F#3",
                    "midi": 54,
                    "time": 88.6934757499992,
                    "velocity": 0.2755905511811024,
                    "duration": 0.16399409999998227
                },
                {
                    "name": "E3",
                    "midi": 52,
                    "time": 88.83013749999918,
                    "velocity": 0.31496062992125984,
                    "duration": 0.16399409999998227
                },
                {
                    "name": "F#3",
                    "midi": 54,
                    "time": 88.96679924999917,
                    "velocity": 0.28346456692913385,
                    "duration": 0.16399409999998227
                },
                {
                    "name": "E3",
                    "midi": 52,
                    "time": 89.10346099999916,
                    "velocity": 0.31496062992125984,
                    "duration": 0.21865880000000004
                },
                {
                    "name": "D#3",
                    "midi": 51,
                    "time": 89.28567666666582,
                    "velocity": 0.29133858267716534,
                    "duration": 0.21865880000000004
                },
                {
                    "name": "E3",
                    "midi": 52,
                    "time": 89.46789233333249,
                    "velocity": 0.29133858267716534,
                    "duration": 0.18221566666666433
                },
                {
                    "name": "E3",
                    "midi": 52,
                    "time": 89.65010799999915,
                    "velocity": 0.3228346456692913,
                    "duration": 1.093293999999986
                },
                {
                    "name": "C#3",
                    "midi": 49,
                    "time": 89.65010799999915,
                    "velocity": 0.2677165354330709,
                    "duration": 1.093293999999986
                },
                {
                    "name": "A2",
                    "midi": 45,
                    "time": 90.19675499999914,
                    "velocity": 0.2047244094488189,
                    "duration": 0.546646999999993
                },
                {
                    "name": "A1",
                    "midi": 33,
                    "time": 90.19675499999914,
                    "velocity": 0.1732283464566929,
                    "duration": 0.546646999999993
                },
                {
                    "name": "E3",
                    "midi": 52,
                    "time": 90.74340199999914,
                    "velocity": 0.3228346456692913,
                    "duration": 0.0683308750000009
                },
                {
                    "name": "C#3",
                    "midi": 49,
                    "time": 90.74340199999914,
                    "velocity": 0.2677165354330709,
                    "duration": 0.0683308750000009
                },
                {
                    "name": "A2",
                    "midi": 45,
                    "time": 91.01672549999914,
                    "velocity": 0.2204724409448819,
                    "duration": 0.1366617500000018
                },
                {
                    "name": "A1",
                    "midi": 33,
                    "time": 91.01672549999914,
                    "velocity": 0.18110236220472442,
                    "duration": 0.1366617500000018
                },
                {
                    "name": "C#3",
                    "midi": 49,
                    "time": 91.29004899999914,
                    "velocity": 0.2677165354330709,
                    "duration": 0.546646999999993
                },
                {
                    "name": "E3",
                    "midi": 52,
                    "time": 91.29004899999914,
                    "velocity": 0.3228346456692913,
                    "duration": 0.546646999999993
                },
                {
                    "name": "E3",
                    "midi": 52,
                    "time": 91.83669599999914,
                    "velocity": 0.3228346456692913,
                    "duration": 1.093293999999986
                },
                {
                    "name": "C#3",
                    "midi": 49,
                    "time": 91.83669599999914,
                    "velocity": 0.2677165354330709,
                    "duration": 1.093293999999986
                },
                {
                    "name": "A1",
                    "midi": 33,
                    "time": 92.38334299999913,
                    "velocity": 0.1732283464566929,
                    "duration": 0.546646999999993
                },
                {
                    "name": "A2",
                    "midi": 45,
                    "time": 92.38334299999913,
                    "velocity": 0.2047244094488189,
                    "duration": 0.546646999999993
                },
                {
                    "name": "C#3",
                    "midi": 49,
                    "time": 92.92998999999912,
                    "velocity": 0.2677165354330709,
                    "duration": 0.0683308750000009
                },
                {
                    "name": "A3",
                    "midi": 57,
                    "time": 92.92998999999912,
                    "velocity": 0.3228346456692913,
                    "duration": 0.0683308750000009
                },
                {
                    "name": "F#2",
                    "midi": 42,
                    "time": 93.20331349999913,
                    "velocity": 0.2204724409448819,
                    "duration": 0.1366617500000018
                },
                {
                    "name": "F#1",
                    "midi": 30,
                    "time": 93.20331349999913,
                    "velocity": 0.18110236220472442,
                    "duration": 0.1366617500000018
                },
                {
                    "name": "F#3",
                    "midi": 54,
                    "time": 93.47663699999913,
                    "velocity": 0.2677165354330709,
                    "duration": 0.546646999999993
                },
                {
                    "name": "C#3",
                    "midi": 49,
                    "time": 93.47663699999913,
                    "velocity": 0.2677165354330709,
                    "duration": 0.546646999999993
                },
                {
                    "name": "A3",
                    "midi": 57,
                    "time": 93.47663699999913,
                    "velocity": 0.3228346456692913,
                    "duration": 0.546646999999993
                },
                {
                    "name": "A3",
                    "midi": 57,
                    "time": 94.02328399999912,
                    "velocity": 0.3228346456692913,
                    "duration": 1.093293999999986
                },
                {
                    "name": "F#3",
                    "midi": 54,
                    "time": 94.02328399999912,
                    "velocity": 0.2677165354330709,
                    "duration": 1.093293999999986
                },
                {
                    "name": "D2",
                    "midi": 38,
                    "time": 94.56993099999912,
                    "velocity": 0.1732283464566929,
                    "duration": 0.546646999999993
                },
                {
                    "name": "D3",
                    "midi": 50,
                    "time": 94.56993099999912,
                    "velocity": 0.2047244094488189,
                    "duration": 0.546646999999993
                },
                {
                    "name": "A3",
                    "midi": 57,
                    "time": 95.11657799999911,
                    "velocity": 0.3228346456692913,
                    "duration": 0.0683308750000009
                },
                {
                    "name": "F#3",
                    "midi": 54,
                    "time": 95.11657799999911,
                    "velocity": 0.2677165354330709,
                    "duration": 0.0683308750000009
                },
                {
                    "name": "D2",
                    "midi": 38,
                    "time": 95.38990149999911,
                    "velocity": 0.18110236220472442,
                    "duration": 0.1366617500000018
                },
                {
                    "name": "D3",
                    "midi": 50,
                    "time": 95.38990149999911,
                    "velocity": 0.2204724409448819,
                    "duration": 0.1366617500000018
                },
                {
                    "name": "A3",
                    "midi": 57,
                    "time": 95.66322499999912,
                    "velocity": 0.3228346456692913,
                    "duration": 0.546646999999993
                },
                {
                    "name": "F#3",
                    "midi": 54,
                    "time": 95.66322499999912,
                    "velocity": 0.2677165354330709,
                    "duration": 0.546646999999993
                },
                {
                    "name": "A3",
                    "midi": 57,
                    "time": 96.20987199999911,
                    "velocity": 0.3228346456692913,
                    "duration": 1.093293999999986
                },
                {
                    "name": "F#3",
                    "midi": 54,
                    "time": 96.20987199999911,
                    "velocity": 0.2677165354330709,
                    "duration": 1.093293999999986
                },
                {
                    "name": "D3",
                    "midi": 50,
                    "time": 96.7565189999991,
                    "velocity": 0.2047244094488189,
                    "duration": 0.546646999999993
                },
                {
                    "name": "D2",
                    "midi": 38,
                    "time": 96.7565189999991,
                    "velocity": 0.1732283464566929,
                    "duration": 0.546646999999993
                },
                {
                    "name": "F#3",
                    "midi": 54,
                    "time": 97.3031659999991,
                    "velocity": 0.2677165354330709,
                    "duration": 0.0683308750000009
                },
                {
                    "name": "D4",
                    "midi": 62,
                    "time": 97.3031659999991,
                    "velocity": 0.3228346456692913,
                    "duration": 0.0683308750000009
                },
                {
                    "name": "B1",
                    "midi": 35,
                    "time": 97.5764894999991,
                    "velocity": 0.18110236220472442,
                    "duration": 0.1366617500000018
                },
                {
                    "name": "B2",
                    "midi": 47,
                    "time": 97.5764894999991,
                    "velocity": 0.2204724409448819,
                    "duration": 0.1366617500000018
                },
                {
                    "name": "F#3",
                    "midi": 54,
                    "time": 97.8498129999991,
                    "velocity": 0.2677165354330709,
                    "duration": 0.5466470000000072
                },
                {
                    "name": "B3",
                    "midi": 59,
                    "time": 97.8498129999991,
                    "velocity": 0.2677165354330709,
                    "duration": 0.5420916083333367
                },
                {
                    "name": "D4",
                    "midi": 62,
                    "time": 97.8498129999991,
                    "velocity": 0.3228346456692913,
                    "duration": 0.5420916083333367
                },
                {
                    "name": "G2",
                    "midi": 43,
                    "time": 98.9431069999991,
                    "velocity": 0.1732283464566929,
                    "duration": 0.546646999999993
                },
                {
                    "name": "G3",
                    "midi": 55,
                    "time": 98.9431069999991,
                    "velocity": 0.2047244094488189,
                    "duration": 0.546646999999993
                },
                {
                    "name": "G2",
                    "midi": 43,
                    "time": 99.7630774999991,
                    "velocity": 0.18110236220472442,
                    "duration": 0.1366617500000018
                },
                {
                    "name": "G3",
                    "midi": 55,
                    "time": 99.7630774999991,
                    "velocity": 0.2204724409448819,
                    "duration": 0.1366617500000018
                },
                {
                    "name": "G2",
                    "midi": 43,
                    "time": 101.1296949999991,
                    "velocity": 0.18110236220472442,
                    "duration": 0.546646999999993
                },
                {
                    "name": "G3",
                    "midi": 55,
                    "time": 101.1296949999991,
                    "velocity": 0.2125984251968504,
                    "duration": 0.546646999999993
                },
                {
                    "name": "E2",
                    "midi": 40,
                    "time": 101.9496654999991,
                    "velocity": 0.2047244094488189,
                    "duration": 0.1366617500000018
                },
                {
                    "name": "E3",
                    "midi": 52,
                    "time": 101.9496654999991,
                    "velocity": 0.2440944881889764,
                    "duration": 0.1366617500000018
                },
                {
                    "name": "C4",
                    "midi": 60,
                    "time": 103.3162829999991,
                    "velocity": 0.2440944881889764,
                    "duration": 0.546646999999993
                },
                {
                    "name": "C3",
                    "midi": 48,
                    "time": 103.3162829999991,
                    "velocity": 0.2125984251968504,
                    "duration": 0.546646999999993
                },
                {
                    "name": "C3",
                    "midi": 48,
                    "time": 104.1362534999991,
                    "velocity": 0.2204724409448819,
                    "duration": 0.1366617500000018
                },
                {
                    "name": "C4",
                    "midi": 60,
                    "time": 104.1362534999991,
                    "velocity": 0.2677165354330709,
                    "duration": 0.1366617500000018
                },
                {
                    "name": "A3",
                    "midi": 57,
                    "time": 105.5028709999991,
                    "velocity": 0.2677165354330709,
                    "duration": 0.546646999999993
                },
                {
                    "name": "A2",
                    "midi": 45,
                    "time": 105.5028709999991,
                    "velocity": 0.2283464566929134,
                    "duration": 0.546646999999993
                },
                {
                    "name": "A2",
                    "midi": 45,
                    "time": 106.3228414999991,
                    "velocity": 0.2440944881889764,
                    "duration": 0.1366617500000018
                },
                {
                    "name": "A3",
                    "midi": 57,
                    "time": 106.3228414999991,
                    "velocity": 0.2992125984251969,
                    "duration": 0.1366617500000018
                },
                {
                    "name": "F2",
                    "midi": 41,
                    "time": 107.6894589999991,
                    "velocity": 0.25196850393700787,
                    "duration": 0.546646999999993
                },
                {
                    "name": "F3",
                    "midi": 53,
                    "time": 107.6894589999991,
                    "velocity": 0.2992125984251969,
                    "duration": 0.546646999999993
                },
                {
                    "name": "F3",
                    "midi": 53,
                    "time": 108.5094294999991,
                    "velocity": 0.3543307086614173,
                    "duration": 0.1366617500000018
                },
                {
                    "name": "F2",
                    "midi": 41,
                    "time": 108.5094294999991,
                    "velocity": 0.29133858267716534,
                    "duration": 0.1366617500000018
                },
                {
                    "name": "D2",
                    "midi": 38,
                    "time": 109.8760469999991,
                    "velocity": 0.3228346456692913,
                    "duration": 0.546646999999993
                },
                {
                    "name": "D3",
                    "midi": 50,
                    "time": 109.8760469999991,
                    "velocity": 0.3779527559055118,
                    "duration": 0.546646999999993
                },
                {
                    "name": "D3",
                    "midi": 50,
                    "time": 110.6960174999991,
                    "velocity": 0.44881889763779526,
                    "duration": 0.1366617500000018
                },
                {
                    "name": "D2",
                    "midi": 38,
                    "time": 110.6960174999991,
                    "velocity": 0.3700787401574803,
                    "duration": 0.1366617500000018
                },
                {
                    "name": "A1",
                    "midi": 33,
                    "time": 112.0626349999991,
                    "velocity": 0.3779527559055118,
                    "duration": 0.546646999999993
                },
                {
                    "name": "C#2",
                    "midi": 37,
                    "time": 112.0626349999991,
                    "velocity": 0.3779527559055118,
                    "duration": 0.546646999999993
                },
                {
                    "name": "E2",
                    "midi": 40,
                    "time": 112.0626349999991,
                    "velocity": 0.3779527559055118,
                    "duration": 0.546646999999993
                },
                {
                    "name": "A2",
                    "midi": 45,
                    "time": 112.0626349999991,
                    "velocity": 0.44881889763779526,
                    "duration": 0.546646999999993
                },
                {
                    "name": "C#2",
                    "midi": 37,
                    "time": 112.8826054999991,
                    "velocity": 0.3937007874015748,
                    "duration": 0.1366617500000018
                },
                {
                    "name": "A1",
                    "midi": 33,
                    "time": 112.8826054999991,
                    "velocity": 0.3937007874015748,
                    "duration": 0.1366617500000018
                },
                {
                    "name": "A2",
                    "midi": 45,
                    "time": 112.8826054999991,
                    "velocity": 0.48031496062992124,
                    "duration": 0.1366617500000018
                },
                {
                    "name": "E2",
                    "midi": 40,
                    "time": 112.8826054999991,
                    "velocity": 0.3937007874015748,
                    "duration": 0.1366617500000018
                },
                {
                    "name": "C#2",
                    "midi": 37,
                    "time": 114.2492229999991,
                    "velocity": 0.36220472440944884,
                    "duration": 0.546646999999993
                },
                {
                    "name": "E2",
                    "midi": 40,
                    "time": 114.2492229999991,
                    "velocity": 0.36220472440944884,
                    "duration": 0.546646999999993
                },
                {
                    "name": "A2",
                    "midi": 45,
                    "time": 114.2492229999991,
                    "velocity": 0.4251968503937008,
                    "duration": 0.546646999999993
                },
                {
                    "name": "A1",
                    "midi": 33,
                    "time": 114.2492229999991,
                    "velocity": 0.36220472440944884,
                    "duration": 0.546646999999993
                },
                {
                    "name": "A1",
                    "midi": 33,
                    "time": 115.0691934999991,
                    "velocity": 0.3700787401574803,
                    "duration": 0.1366617500000018
                },
                {
                    "name": "E2",
                    "midi": 40,
                    "time": 115.0691934999991,
                    "velocity": 0.3700787401574803,
                    "duration": 0.1366617500000018
                },
                {
                    "name": "A2",
                    "midi": 45,
                    "time": 115.0691934999991,
                    "velocity": 0.4566929133858268,
                    "duration": 0.1366617500000018
                },
                {
                    "name": "C#2",
                    "midi": 37,
                    "time": 115.0691934999991,
                    "velocity": 0.3700787401574803,
                    "duration": 0.1366617500000018
                },
                {
                    "name": "C#2",
                    "midi": 37,
                    "time": 116.4358109999991,
                    "velocity": 0.3464566929133858,
                    "duration": 0.546646999999993
                },
                {
                    "name": "A1",
                    "midi": 33,
                    "time": 116.4358109999991,
                    "velocity": 0.3464566929133858,
                    "duration": 0.546646999999993
                },
                {
                    "name": "A2",
                    "midi": 45,
                    "time": 116.4358109999991,
                    "velocity": 0.4094488188976378,
                    "duration": 0.546646999999993
                },
                {
                    "name": "E2",
                    "midi": 40,
                    "time": 116.4358109999991,
                    "velocity": 0.3464566929133858,
                    "duration": 0.546646999999993
                },
                {
                    "name": "A1",
                    "midi": 33,
                    "time": 117.2557814999991,
                    "velocity": 0.3543307086614173,
                    "duration": 0.1366617500000018
                },
                {
                    "name": "A2",
                    "midi": 45,
                    "time": 117.2557814999991,
                    "velocity": 0.4409448818897638,
                    "duration": 0.1366617500000018
                },
                {
                    "name": "A2",
                    "midi": 45,
                    "time": 118.6223989999991,
                    "velocity": 0.3464566929133858,
                    "duration": 0.546646999999993
                },
                {
                    "name": "A1",
                    "midi": 33,
                    "time": 118.6223989999991,
                    "velocity": 0.29133858267716534,
                    "duration": 0.546646999999993
                },
                {
                    "name": "A1",
                    "midi": 33,
                    "time": 119.4423694999991,
                    "velocity": 0.2755905511811024,
                    "duration": 0.1366617500000018
                },
                {
                    "name": "A2",
                    "midi": 45,
                    "time": 119.4423694999991,
                    "velocity": 0.33858267716535434,
                    "duration": 0.1366617500000018
                },
                {
                    "name": "A1",
                    "midi": 33,
                    "time": 120.8089869999991,
                    "velocity": 0.2204724409448819,
                    "duration": 0.546646999999993
                },
                {
                    "name": "A2",
                    "midi": 45,
                    "time": 120.8089869999991,
                    "velocity": 0.25984251968503935,
                    "duration": 0.546646999999993
                },
                {
                    "name": "A2",
                    "midi": 45,
                    "time": 121.6289574999991,
                    "velocity": 0.25196850393700787,
                    "duration": 0.1366617500000018
                },
                {
                    "name": "A1",
                    "midi": 33,
                    "time": 121.6289574999991,
                    "velocity": 0.2047244094488189,
                    "duration": 0.1366617500000018
                },
                {
                    "name": "F1",
                    "midi": 29,
                    "time": 122.9955749999991,
                    "velocity": 0.13385826771653545,
                    "duration": 0.546646999999993
                },
                {
                    "name": "F2",
                    "midi": 41,
                    "time": 122.9955749999991,
                    "velocity": 0.15748031496062992,
                    "duration": 0.546646999999993
                },
                {
                    "name": "F2",
                    "midi": 41,
                    "time": 123.8155454999991,
                    "velocity": 0.1732283464566929,
                    "duration": 0.1366617500000018
                },
                {
                    "name": "F1",
                    "midi": 29,
                    "time": 123.8155454999991,
                    "velocity": 0.14173228346456693,
                    "duration": 0.1366617500000018
                },
                {
                    "name": "F1",
                    "midi": 29,
                    "time": 124.6355159999991,
                    "velocity": 0.1968503937007874,
                    "duration": 0.546646999999993
                },
                {
                    "name": "F2",
                    "midi": 41,
                    "time": 124.6355159999991,
                    "velocity": 0.23622047244094488,
                    "duration": 0.546646999999993
                },
                {
                    "name": "F3",
                    "midi": 53,
                    "time": 125.72880999999909,
                    "velocity": 0.1968503937007874,
                    "duration": 0.546646999999993
                },
                {
                    "name": "A3",
                    "midi": 57,
                    "time": 125.72880999999909,
                    "velocity": 0.23622047244094488,
                    "duration": 0.546646999999993
                },
                {
                    "name": "F2",
                    "midi": 41,
                    "time": 127.91539799999907,
                    "velocity": 0.36220472440944884,
                    "duration": 0.5466470000000072
                },
                {
                    "name": "F1",
                    "midi": 29,
                    "time": 127.91539799999907,
                    "velocity": 0.30708661417322836,
                    "duration": 0.5466470000000072
                },
                {
                    "name": "A3",
                    "midi": 57,
                    "time": 129.0086919999991,
                    "velocity": 0.25984251968503935,
                    "duration": 0.5466470000000072
                },
                {
                    "name": "C4",
                    "midi": 60,
                    "time": 129.0086919999991,
                    "velocity": 0.30708661417322836,
                    "duration": 0.5466470000000072
                },
                {
                    "name": "F2",
                    "midi": 41,
                    "time": 131.1952799999991,
                    "velocity": 0.4330708661417323,
                    "duration": 0.5466470000000072
                },
                {
                    "name": "F1",
                    "midi": 29,
                    "time": 131.1952799999991,
                    "velocity": 0.36220472440944884,
                    "duration": 0.5466470000000072
                },
                {
                    "name": "F4",
                    "midi": 65,
                    "time": 132.2885739999991,
                    "velocity": 0.4251968503937008,
                    "duration": 0.5466470000000072
                },
                {
                    "name": "C4",
                    "midi": 60,
                    "time": 132.2885739999991,
                    "velocity": 0.3543307086614173,
                    "duration": 0.5466470000000072
                },
                {
                    "name": "A3",
                    "midi": 57,
                    "time": 132.2885739999991,
                    "velocity": 0.3543307086614173,
                    "duration": 0.5466470000000072
                },
                {
                    "name": "F3",
                    "midi": 53,
                    "time": 132.2885739999991,
                    "velocity": 0.3543307086614173,
                    "duration": 0.5466470000000072
                },
                {
                    "name": "F1",
                    "midi": 29,
                    "time": 133.38186799999912,
                    "velocity": 0.3779527559055118,
                    "duration": 0.5466470000000072
                },
                {
                    "name": "F2",
                    "midi": 41,
                    "time": 133.38186799999912,
                    "velocity": 0.44881889763779526,
                    "duration": 0.5466470000000072
                },
                {
                    "name": "F4",
                    "midi": 65,
                    "time": 134.47516199999913,
                    "velocity": 0.5196850393700787,
                    "duration": 0.5466470000000072
                },
                {
                    "name": "C4",
                    "midi": 60,
                    "time": 134.47516199999913,
                    "velocity": 0.4409448818897638,
                    "duration": 0.5466470000000072
                },
                {
                    "name": "A3",
                    "midi": 57,
                    "time": 134.47516199999913,
                    "velocity": 0.4409448818897638,
                    "duration": 0.5466470000000072
                },
                {
                    "name": "F3",
                    "midi": 53,
                    "time": 134.47516199999913,
                    "velocity": 0.4409448818897638,
                    "duration": 0.5466470000000072
                },
                {
                    "name": "F1",
                    "midi": 29,
                    "time": 135.56845599999914,
                    "velocity": 0.49606299212598426,
                    "duration": 1.6399409999999932
                },
                {
                    "name": "F2",
                    "midi": 41,
                    "time": 135.56845599999914,
                    "velocity": 0.5905511811023622,
                    "duration": 1.6399409999999932
                },
                {
                    "name": "G2",
                    "midi": 43,
                    "time": 137.20839699999914,
                    "velocity": 0.4251968503937008,
                    "duration": 0.2733235000000036
                },
                {
                    "name": "A2",
                    "midi": 45,
                    "time": 137.48172049999914,
                    "velocity": 0.4330708661417323,
                    "duration": 0.2733235000000036
                },
                {
                    "name": "A#1",
                    "midi": 34,
                    "time": 137.75504399999915,
                    "velocity": 0.4330708661417323,
                    "duration": 0.5466470000000072
                },
                {
                    "name": "D2",
                    "midi": 38,
                    "time": 137.75504399999915,
                    "velocity": 0.4330708661417323,
                    "duration": 0.5466470000000072
                },
                {
                    "name": "A#2",
                    "midi": 46,
                    "time": 137.75504399999915,
                    "velocity": 0.5118110236220472,
                    "duration": 0.5466470000000072
                },
                {
                    "name": "F2",
                    "midi": 41,
                    "time": 137.75504399999915,
                    "velocity": 0.4330708661417323,
                    "duration": 0.5466470000000072
                },
                {
                    "name": "F3",
                    "midi": 53,
                    "time": 141.03492599999916,
                    "velocity": 0.31496062992125984,
                    "duration": 0.5466470000000072
                },
                {
                    "name": "A4",
                    "midi": 69,
                    "time": 142.12821999999917,
                    "velocity": 0.36220472440944884,
                    "duration": 0.18221566666667854
                },
                {
                    "name": "A#4",
                    "midi": 70,
                    "time": 142.31043566666585,
                    "velocity": 0.31496062992125984,
                    "duration": 0.18221566666667854
                },
                {
                    "name": "A4",
                    "midi": 69,
                    "time": 142.49265133333253,
                    "velocity": 0.36220472440944884,
                    "duration": 0.18221566666667854
                },
                {
                    "name": "A#4",
                    "midi": 70,
                    "time": 142.6748669999992,
                    "velocity": 0.31496062992125984,
                    "duration": 0.18221566666667854
                },
                {
                    "name": "A4",
                    "midi": 69,
                    "time": 142.8570826666659,
                    "velocity": 0.3464566929133858,
                    "duration": 0.18221566666667854
                },
                {
                    "name": "A#4",
                    "midi": 70,
                    "time": 143.03929833333257,
                    "velocity": 0.31496062992125984,
                    "duration": 0.18221566666667854
                },
                {
                    "name": "A4",
                    "midi": 69,
                    "time": 143.22151399999925,
                    "velocity": 0.3543307086614173,
                    "duration": 0.18221566666667854
                },
                {
                    "name": "A#4",
                    "midi": 70,
                    "time": 143.40372966666592,
                    "velocity": 0.31496062992125984,
                    "duration": 0.18221566666667854
                },
                {
                    "name": "A4",
                    "midi": 69,
                    "time": 143.5859453333326,
                    "velocity": 0.3464566929133858,
                    "duration": 0.18221566666667854
                },
                {
                    "name": "A#4",
                    "midi": 70,
                    "time": 143.76816099999928,
                    "velocity": 0.31496062992125984,
                    "duration": 0.1366617500000018
                },
                {
                    "name": "A4",
                    "midi": 69,
                    "time": 143.90482274999928,
                    "velocity": 0.3464566929133858,
                    "duration": 0.1366617500000018
                },
                {
                    "name": "G4",
                    "midi": 67,
                    "time": 144.04148449999929,
                    "velocity": 0.31496062992125984,
                    "duration": 0.1366617500000018
                },
                {
                    "name": "A4",
                    "midi": 69,
                    "time": 144.1781462499993,
                    "velocity": 0.31496062992125984,
                    "duration": 0.1366617500000018
                },
                {
                    "name": "A#4",
                    "midi": 70,
                    "time": 144.3148079999993,
                    "velocity": 0.4094488188976378,
                    "duration": 1.093293999999986
                },
                {
                    "name": "A#4",
                    "midi": 70,
                    "time": 145.95474899999928,
                    "velocity": 0.4094488188976378,
                    "duration": 0.32798819999999296
                },
                {
                    "name": "A4",
                    "midi": 69,
                    "time": 146.22807249999929,
                    "velocity": 0.36220472440944884,
                    "duration": 0.32798819999996454
                },
                {
                    "name": "G4",
                    "midi": 67,
                    "time": 146.50139599999926,
                    "velocity": 0.36220472440944884,
                    "duration": 0.32798819999996454
                },
                {
                    "name": "F4",
                    "midi": 65,
                    "time": 146.77471949999924,
                    "velocity": 0.36220472440944884,
                    "duration": 0.32798819999996454
                },
                {
                    "name": "D#4",
                    "midi": 63,
                    "time": 147.0480429999992,
                    "velocity": 0.3779527559055118,
                    "duration": 0.32798819999996454
                },
                {
                    "name": "D4",
                    "midi": 62,
                    "time": 147.3213664999992,
                    "velocity": 0.33858267716535434,
                    "duration": 0.32798819999996454
                },
                {
                    "name": "G4",
                    "midi": 67,
                    "time": 147.59468999999916,
                    "velocity": 0.4094488188976378,
                    "duration": 0.5466469999999788
                },
                {
                    "name": "G4",
                    "midi": 67,
                    "time": 149.23463099999913,
                    "velocity": 0.4094488188976378,
                    "duration": 0.32798819999999296
                },
                {
                    "name": "F4",
                    "midi": 65,
                    "time": 149.50795449999913,
                    "velocity": 0.36220472440944884,
                    "duration": 0.32798819999996454
                },
                {
                    "name": "D#4",
                    "midi": 63,
                    "time": 149.7812779999991,
                    "velocity": 0.36220472440944884,
                    "duration": 0.32798819999996454
                },
                {
                    "name": "D4",
                    "midi": 62,
                    "time": 150.05460149999908,
                    "velocity": 0.36220472440944884,
                    "duration": 0.32798819999996454
                },
                {
                    "name": "C4",
                    "midi": 60,
                    "time": 150.32792499999906,
                    "velocity": 0.3858267716535433,
                    "duration": 0.32798819999996454
                },
                {
                    "name": "A#3",
                    "midi": 58,
                    "time": 150.60124849999903,
                    "velocity": 0.3543307086614173,
                    "duration": 0.32798819999996454
                },
                {
                    "name": "D#4",
                    "midi": 63,
                    "time": 150.874571999999,
                    "velocity": 0.4094488188976378,
                    "duration": 0.5466469999999788
                },
                {
                    "name": "D#4",
                    "midi": 63,
                    "time": 152.51451299999897,
                    "velocity": 0.4094488188976378,
                    "duration": 0.32798819999999296
                },
                {
                    "name": "D4",
                    "midi": 62,
                    "time": 152.78783649999897,
                    "velocity": 0.36220472440944884,
                    "duration": 0.32798819999996454
                },
                {
                    "name": "C4",
                    "midi": 60,
                    "time": 153.06115999999895,
                    "velocity": 0.4094488188976378,
                    "duration": 0.32798819999996454
                },
                {
                    "name": "D4",
                    "midi": 62,
                    "time": 153.33448349999892,
                    "velocity": 0.36220472440944884,
                    "duration": 0.32798819999996454
                },
                {
                    "name": "C4",
                    "midi": 60,
                    "time": 153.6078069999989,
                    "velocity": 0.36220472440944884,
                    "duration": 0.32798819999996454
                },
                {
                    "name": "A#3",
                    "midi": 58,
                    "time": 153.88113049999887,
                    "velocity": 0.36220472440944884,
                    "duration": 0.2733234999999752
                },
                {
                    "name": "A3",
                    "midi": 57,
                    "time": 154.15445399999885,
                    "velocity": 0.41732283464566927,
                    "duration": 0.32798819999999296
                },
                {
                    "name": "A#3",
                    "midi": 58,
                    "time": 154.42777749999885,
                    "velocity": 0.3700787401574803,
                    "duration": 0.32798819999996454
                },
                {
                    "name": "A3",
                    "midi": 57,
                    "time": 154.70110099999883,
                    "velocity": 0.3700787401574803,
                    "duration": 0.32798819999996454
                },
                {
                    "name": "G3",
                    "midi": 55,
                    "time": 154.9744244999988,
                    "velocity": 0.3700787401574803,
                    "duration": 0.32798819999996454
                },
                {
                    "name": "F3",
                    "midi": 53,
                    "time": 155.24774799999878,
                    "velocity": 0.4094488188976378,
                    "duration": 0.32798819999996454
                },
                {
                    "name": "G3",
                    "midi": 55,
                    "time": 155.52107149999875,
                    "velocity": 0.3700787401574803,
                    "duration": 0.32798819999996454
                },
                {
                    "name": "A3",
                    "midi": 57,
                    "time": 155.79439499999873,
                    "velocity": 0.3779527559055118,
                    "duration": 0.32798819999996454
                },
                {
                    "name": "A#3",
                    "midi": 58,
                    "time": 156.0677184999987,
                    "velocity": 0.3779527559055118,
                    "duration": 0.32798819999996454
                },
                {
                    "name": "B3",
                    "midi": 59,
                    "time": 156.34104199999868,
                    "velocity": 0.4094488188976378,
                    "duration": 0.32798819999996454
                },
                {
                    "name": "C4",
                    "midi": 60,
                    "time": 156.61436549999866,
                    "velocity": 0.3858267716535433,
                    "duration": 0.32798819999996454
                },
                {
                    "name": "D4",
                    "midi": 62,
                    "time": 156.88768899999863,
                    "velocity": 0.3858267716535433,
                    "duration": 0.32798819999996454
                },
                {
                    "name": "C4",
                    "midi": 60,
                    "time": 157.1610124999986,
                    "velocity": 0.3858267716535433,
                    "duration": 0.2733234999999752
                },
                {
                    "name": "A#3",
                    "midi": 58,
                    "time": 157.43433599999858,
                    "velocity": 0.4094488188976378,
                    "duration": 0.32798819999999296
                },
                {
                    "name": "C4",
                    "midi": 60,
                    "time": 157.70765949999858,
                    "velocity": 0.3700787401574803,
                    "duration": 0.32798819999996454
                },
                {
                    "name": "D4",
                    "midi": 62,
                    "time": 157.98098299999856,
                    "velocity": 0.3700787401574803,
                    "duration": 0.32798819999996454
                },
                {
                    "name": "D#4",
                    "midi": 63,
                    "time": 158.25430649999853,
                    "velocity": 0.3700787401574803,
                    "duration": 0.32798819999996454
                },
                {
                    "name": "E4",
                    "midi": 64,
                    "time": 158.5276299999985,
                    "velocity": 0.4094488188976378,
                    "duration": 0.32798819999996454
                },
                {
                    "name": "F4",
                    "midi": 65,
                    "time": 158.80095349999849,
                    "velocity": 0.3543307086614173,
                    "duration": 0.32798819999996454
                },
                {
                    "name": "G4",
                    "midi": 67,
                    "time": 159.07427699999846,
                    "velocity": 0.3543307086614173,
                    "duration": 0.32798819999996454
                },
                {
                    "name": "F4",
                    "midi": 65,
                    "time": 159.34760049999844,
                    "velocity": 0.3543307086614173,
                    "duration": 0.32798819999996454
                },
                {
                    "name": "D#4",
                    "midi": 63,
                    "time": 159.6209239999984,
                    "velocity": 0.4094488188976378,
                    "duration": 0.32798819999996454
                },
                {
                    "name": "D4",
                    "midi": 62,
                    "time": 159.8942474999984,
                    "velocity": 0.3779527559055118,
                    "duration": 0.32798819999996454
                },
                {
                    "name": "C4",
                    "midi": 60,
                    "time": 160.16757099999836,
                    "velocity": 0.3779527559055118,
                    "duration": 0.32798819999996454
                },
                {
                    "name": "A#3",
                    "midi": 58,
                    "time": 160.44089449999834,
                    "velocity": 0.3779527559055118,
                    "duration": 0.2733234999999752
                },
                {
                    "name": "A3",
                    "midi": 57,
                    "time": 160.7142179999983,
                    "velocity": 0.4094488188976378,
                    "duration": 0.32798819999999296
                },
                {
                    "name": "A#3",
                    "midi": 58,
                    "time": 160.98754149999831,
                    "velocity": 0.3700787401574803,
                    "duration": 0.32798819999996454
                },
                {
                    "name": "A3",
                    "midi": 57,
                    "time": 161.2608649999983,
                    "velocity": 0.3700787401574803,
                    "duration": 0.32798819999996454
                },
                {
                    "name": "G3",
                    "midi": 55,
                    "time": 161.53418849999827,
                    "velocity": 0.3700787401574803,
                    "duration": 0.32798819999996454
                },
                {
                    "name": "F3",
                    "midi": 53,
                    "time": 161.80751199999824,
                    "velocity": 0.41732283464566927,
                    "duration": 0.32798819999996454
                },
                {
                    "name": "G3",
                    "midi": 55,
                    "time": 162.08083549999822,
                    "velocity": 0.3700787401574803,
                    "duration": 0.32798819999996454
                },
                {
                    "name": "A3",
                    "midi": 57,
                    "time": 162.3541589999982,
                    "velocity": 0.3779527559055118,
                    "duration": 0.32798819999996454
                },
                {
                    "name": "A#3",
                    "midi": 58,
                    "time": 162.62748249999817,
                    "velocity": 0.3779527559055118,
                    "duration": 0.2733234999999752
                },
                {
                    "name": "B3",
                    "midi": 59,
                    "time": 162.90080599999814,
                    "velocity": 0.4251968503937008,
                    "duration": 0.32798819999999296
                },
                {
                    "name": "C4",
                    "midi": 60,
                    "time": 163.17412949999814,
                    "velocity": 0.3700787401574803,
                    "duration": 0.32798819999996454
                },
                {
                    "name": "D4",
                    "midi": 62,
                    "time": 163.44745299999812,
                    "velocity": 0.3779527559055118,
                    "duration": 0.32798819999996454
                },
                {
                    "name": "C4",
                    "midi": 60,
                    "time": 163.7207764999981,
                    "velocity": 0.3779527559055118,
                    "duration": 0.2733234999999752
                },
                {
                    "name": "A#3",
                    "midi": 58,
                    "time": 163.99409999999807,
                    "velocity": 0.4330708661417323,
                    "duration": 0.32798819999999296
                },
                {
                    "name": "C4",
                    "midi": 60,
                    "time": 164.26742349999807,
                    "velocity": 0.3779527559055118,
                    "duration": 0.32798819999996454
                },
                {
                    "name": "D4",
                    "midi": 62,
                    "time": 164.54074699999805,
                    "velocity": 0.3858267716535433,
                    "duration": 0.32798819999996454
                },
                {
                    "name": "D#4",
                    "midi": 63,
                    "time": 164.81407049999802,
                    "velocity": 0.3858267716535433,
                    "duration": 0.32798819999996454
                },
                {
                    "name": "E4",
                    "midi": 64,
                    "time": 165.087393999998,
                    "velocity": 0.4409448818897638,
                    "duration": 0.32798819999996454
                },
                {
                    "name": "F4",
                    "midi": 65,
                    "time": 165.36071749999797,
                    "velocity": 0.4015748031496063,
                    "duration": 0.32798819999996454
                },
                {
                    "name": "G4",
                    "midi": 67,
                    "time": 165.63404099999795,
                    "velocity": 0.4094488188976378,
                    "duration": 0.32798819999996454
                },
                {
                    "name": "F4",
                    "midi": 65,
                    "time": 165.90736449999793,
                    "velocity": 0.4094488188976378,
                    "duration": 0.2733234999999752
                },
                {
                    "name": "A#3",
                    "midi": 58,
                    "time": 166.1806879999979,
                    "velocity": 0.44881889763779526,
                    "duration": 0.2733235000000036
                },
                {
                    "name": "F#4",
                    "midi": 66,
                    "time": 166.4540114999979,
                    "velocity": 0.4094488188976378,
                    "duration": 0.32798819999999296
                },
                {
                    "name": "G4",
                    "midi": 67,
                    "time": 166.7273349999979,
                    "velocity": 0.41732283464566927,
                    "duration": 0.32798819999996454
                },
                {
                    "name": "F#4",
                    "midi": 66,
                    "time": 167.00065849999788,
                    "velocity": 0.41732283464566927,
                    "duration": 0.2733234999999752
                },
                {
                    "name": "A#3",
                    "midi": 58,
                    "time": 167.27398199999786,
                    "velocity": 0.48031496062992124,
                    "duration": 0.2733235000000036
                },
                {
                    "name": "G4",
                    "midi": 67,
                    "time": 167.54730549999786,
                    "velocity": 0.41732283464566927,
                    "duration": 0.32798819999999296
                },
                {
                    "name": "A4",
                    "midi": 69,
                    "time": 167.82062899999787,
                    "velocity": 0.41732283464566927,
                    "duration": 0.32798819999996454
                },
                {
                    "name": "G4",
                    "midi": 67,
                    "time": 168.09395249999784,
                    "velocity": 0.41732283464566927,
                    "duration": 0.2733234999999752
                },
                {
                    "name": "F#4",
                    "midi": 66,
                    "time": 168.36727599999782,
                    "velocity": 0.4645669291338583,
                    "duration": 0.2733235000000036
                },
                {
                    "name": "G4",
                    "midi": 67,
                    "time": 168.64059949999782,
                    "velocity": 0.4330708661417323,
                    "duration": 0.32798819999999296
                },
                {
                    "name": "A4",
                    "midi": 69,
                    "time": 168.91392299999782,
                    "velocity": 0.4330708661417323,
                    "duration": 0.32798819999996454
                },
                {
                    "name": "G4",
                    "midi": 67,
                    "time": 169.1872464999978,
                    "velocity": 0.4330708661417323,
                    "duration": 0.2733234999999752
                },
                {
                    "name": "E4",
                    "midi": 64,
                    "time": 169.46056999999777,
                    "velocity": 0.47244094488188976,
                    "duration": 0.2733235000000036
                },
                {
                    "name": "F4",
                    "midi": 65,
                    "time": 169.73389349999778,
                    "velocity": 0.4251968503937008,
                    "duration": 0.32798819999999296
                },
                {
                    "name": "G4",
                    "midi": 67,
                    "time": 170.00721699999778,
                    "velocity": 0.4251968503937008,
                    "duration": 0.32798819999996454
                },
                {
                    "name": "F4",
                    "midi": 65,
                    "time": 170.28054049999776,
                    "velocity": 0.4330708661417323,
                    "duration": 0.2733234999999752
                },
                {
                    "name": "E4",
                    "midi": 64,
                    "time": 170.55386399999773,
                    "velocity": 0.48031496062992124,
                    "duration": 0.2733235000000036
                },
                {
                    "name": "F4",
                    "midi": 65,
                    "time": 170.82718749999773,
                    "velocity": 0.44881889763779526,
                    "duration": 0.32798819999999296
                },
                {
                    "name": "G4",
                    "midi": 67,
                    "time": 171.10051099999774,
                    "velocity": 0.44881889763779526,
                    "duration": 0.32798819999996454
                },
                {
                    "name": "F4",
                    "midi": 65,
                    "time": 171.3738344999977,
                    "velocity": 0.44881889763779526,
                    "duration": 0.2733234999999752
                },
                {
                    "name": "D4",
                    "midi": 62,
                    "time": 171.6471579999977,
                    "velocity": 0.4881889763779528,
                    "duration": 0.2733235000000036
                },
                {
                    "name": "D#4",
                    "midi": 63,
                    "time": 171.9204814999977,
                    "velocity": 0.4566929133858268,
                    "duration": 0.32798819999999296
                },
                {
                    "name": "F4",
                    "midi": 65,
                    "time": 172.1938049999977,
                    "velocity": 0.4645669291338583,
                    "duration": 0.32798819999996454
                },
                {
                    "name": "D#4",
                    "midi": 63,
                    "time": 172.46712849999767,
                    "velocity": 0.4645669291338583,
                    "duration": 0.2733234999999752
                },
                {
                    "name": "C#4",
                    "midi": 61,
                    "time": 172.74045199999765,
                    "velocity": 0.49606299212598426,
                    "duration": 0.2733235000000036
                },
                {
                    "name": "D4",
                    "midi": 62,
                    "time": 173.01377549999765,
                    "velocity": 0.4645669291338583,
                    "duration": 0.32798819999999296
                },
                {
                    "name": "D#4",
                    "midi": 63,
                    "time": 173.28709899999765,
                    "velocity": 0.4645669291338583,
                    "duration": 0.32798819999996454
                },
                {
                    "name": "D4",
                    "midi": 62,
                    "time": 173.56042249999763,
                    "velocity": 0.4645669291338583,
                    "duration": 0.2733234999999752
                },
                {
                    "name": "C#4",
                    "midi": 61,
                    "time": 173.8337459999976,
                    "velocity": 0.5118110236220472,
                    "duration": 0.2733235000000036
                },
                {
                    "name": "D4",
                    "midi": 62,
                    "time": 174.1070694999976,
                    "velocity": 0.4566929133858268,
                    "duration": 0.32798819999999296
                },
                {
                    "name": "D#4",
                    "midi": 63,
                    "time": 174.3803929999976,
                    "velocity": 0.4566929133858268,
                    "duration": 0.32798819999996454
                },
                {
                    "name": "D4",
                    "midi": 62,
                    "time": 174.65371649999759,
                    "velocity": 0.4566929133858268,
                    "duration": 0.2733234999999752
                },
                {
                    "name": "B3",
                    "midi": 59,
                    "time": 174.92703999999756,
                    "velocity": 0.5118110236220472,
                    "duration": 0.2733235000000036
                },
                {
                    "name": "C4",
                    "midi": 60,
                    "time": 175.20036349999756,
                    "velocity": 0.47244094488188976,
                    "duration": 0.2733235000000036
                },
                {
                    "name": "D4",
                    "midi": 62,
                    "time": 175.47368699999757,
                    "velocity": 0.47244094488188976,
                    "duration": 0.2733235000000036
                },
                {
                    "name": "C4",
                    "midi": 60,
                    "time": 175.74701049999757,
                    "velocity": 0.47244094488188976,
                    "duration": 0.2733235000000036
                },
                {
                    "name": "A3",
                    "midi": 57,
                    "time": 176.02033399999758,
                    "velocity": 0.5118110236220472,
                    "duration": 0.2733235000000036
                },
                {
                    "name": "A#3",
                    "midi": 58,
                    "time": 176.29365749999758,
                    "velocity": 0.4566929133858268,
                    "duration": 0.2733235000000036
                },
                {
                    "name": "C4",
                    "midi": 60,
                    "time": 176.56698099999758,
                    "velocity": 0.4566929133858268,
                    "duration": 0.2733235000000036
                },
                {
                    "name": "A#3",
                    "midi": 58,
                    "time": 176.8403044999976,
                    "velocity": 0.4566929133858268,
                    "duration": 0.2733235000000036
                },
                {
                    "name": "A3",
                    "midi": 57,
                    "time": 177.6602749999976,
                    "velocity": 0.5118110236220472,
                    "duration": 0.2733235000000036
                },
                {
                    "name": "A4",
                    "midi": 69,
                    "time": 178.2069219999976,
                    "velocity": 0.5984251968503937,
                    "duration": 1.6399409999999932
                },
                {
                    "name": "F3",
                    "midi": 53,
                    "time": 180.94015699999758,
                    "velocity": 0.5118110236220472,
                    "duration": 0.2733235000000036
                },
                {
                    "name": "F4",
                    "midi": 65,
                    "time": 181.4868039999976,
                    "velocity": 0.5984251968503937,
                    "duration": 1.6399409999999932
                },
                {
                    "name": "D3",
                    "midi": 50,
                    "time": 184.22003899999757,
                    "velocity": 0.48031496062992124,
                    "duration": 0.2733235000000036
                },
                {
                    "name": "D4",
                    "midi": 62,
                    "time": 184.76668599999758,
                    "velocity": 0.5354330708661418,
                    "duration": 0.6013116999999966
                },
                {
                    "name": "C4",
                    "midi": 60,
                    "time": 185.31333299999758,
                    "velocity": 0.48031496062992124,
                    "duration": 0.6013116999999681
                },
                {
                    "name": "A#3",
                    "midi": 58,
                    "time": 185.85997999999756,
                    "velocity": 0.47244094488188976,
                    "duration": 0.6013116999999681
                },
                {
                    "name": "B3",
                    "midi": 59,
                    "time": 186.40662699999754,
                    "velocity": 0.47244094488188976,
                    "duration": 0.6013116999999681
                },
                {
                    "name": "C4",
                    "midi": 60,
                    "time": 186.95327399999752,
                    "velocity": 0.5511811023622047,
                    "duration": 0.2733234999999752
                },
                {
                    "name": "A#3",
                    "midi": 58,
                    "time": 188.0465679999975,
                    "velocity": 0.5590551181102362,
                    "duration": 1.6399409999999932
                },
                {
                    "name": "A#3",
                    "midi": 58,
                    "time": 189.6865089999975,
                    "velocity": 0.4645669291338583,
                    "duration": 0.5466470000000072
                },
                {
                    "name": "A#3",
                    "midi": 58,
                    "time": 190.2331559999975,
                    "velocity": 0.5118110236220472,
                    "duration": 0.6013116999999966
                },
                {
                    "name": "A3",
                    "midi": 57,
                    "time": 190.77980299999751,
                    "velocity": 0.4645669291338583,
                    "duration": 0.6013116999999681
                },
                {
                    "name": "G3",
                    "midi": 55,
                    "time": 191.3264499999975,
                    "velocity": 0.4645669291338583,
                    "duration": 0.6013116999999681
                },
                {
                    "name": "F3",
                    "midi": 53,
                    "time": 191.87309699999747,
                    "velocity": 0.4645669291338583,
                    "duration": 0.6013116999999681
                },
                {
                    "name": "E3",
                    "midi": 52,
                    "time": 192.41974399999745,
                    "velocity": 0.4645669291338583,
                    "duration": 0.6013116999999681
                },
                {
                    "name": "F3",
                    "midi": 53,
                    "time": 192.96639099999743,
                    "velocity": 0.4645669291338583,
                    "duration": 0.5466469999999788
                },
                {
                    "name": "C4",
                    "midi": 60,
                    "time": 193.5130379999974,
                    "velocity": 0.5433070866141733,
                    "duration": 0.2733235000000036
                },
                {
                    "name": "A#3",
                    "midi": 58,
                    "time": 194.60633199999742,
                    "velocity": 0.5354330708661418,
                    "duration": 1.6399409999999932
                },
                {
                    "name": "A3",
                    "midi": 57,
                    "time": 196.24627299999742,
                    "velocity": 0.5118110236220472,
                    "duration": 0.5466470000000072
                },
                {
                    "name": "D4",
                    "midi": 62,
                    "time": 196.79291999999742,
                    "velocity": 0.5590551181102362,
                    "duration": 0.2733235000000036
                },
                {
                    "name": "C#4",
                    "midi": 61,
                    "time": 197.88621399999744,
                    "velocity": 0.5511811023622047,
                    "duration": 1.6399409999999932
                },
                {
                    "name": "C4",
                    "midi": 60,
                    "time": 199.52615499999743,
                    "velocity": 0.4881889763779528,
                    "duration": 0.5466470000000072
                },
                {
                    "name": "F4",
                    "midi": 65,
                    "time": 200.07280199999744,
                    "velocity": 0.5590551181102362,
                    "duration": 0.2733235000000036
                },
                {
                    "name": "E4",
                    "midi": 64,
                    "time": 201.16609599999745,
                    "velocity": 0.5511811023622047,
                    "duration": 1.6399409999999932
                },
                {
                    "name": "D#4",
                    "midi": 63,
                    "time": 202.80603699999745,
                    "velocity": 0.48031496062992124,
                    "duration": 0.5466470000000072
                },
                {
                    "name": "F2",
                    "midi": 41,
                    "time": 203.35268399999745,
                    "velocity": 0.5748031496062992,
                    "duration": 0.5466470000000072
                },
                {
                    "name": "A3",
                    "midi": 57,
                    "time": 204.44597799999747,
                    "velocity": 0.5511811023622047,
                    "duration": 0.18221566666667854
                },
                {
                    "name": "A#3",
                    "midi": 58,
                    "time": 204.62819366666415,
                    "velocity": 0.4881889763779528,
                    "duration": 0.18221566666667854
                },
                {
                    "name": "A3",
                    "midi": 57,
                    "time": 204.81040933333082,
                    "velocity": 0.5511811023622047,
                    "duration": 0.18221566666667854
                },
                {
                    "name": "A#3",
                    "midi": 58,
                    "time": 204.9926249999975,
                    "velocity": 0.49606299212598426,
                    "duration": 0.18221566666667854
                },
                {
                    "name": "A3",
                    "midi": 57,
                    "time": 205.17484066666418,
                    "velocity": 0.5511811023622047,
                    "duration": 0.18221566666667854
                },
                {
                    "name": "A#3",
                    "midi": 58,
                    "time": 205.35705633333086,
                    "velocity": 0.49606299212598426,
                    "duration": 0.18221566666667854
                },
                {
                    "name": "A3",
                    "midi": 57,
                    "time": 205.53927199999754,
                    "velocity": 0.5511811023622047,
                    "duration": 0.18221566666667854
                },
                {
                    "name": "A#3",
                    "midi": 58,
                    "time": 205.72148766666422,
                    "velocity": 0.5039370078740157,
                    "duration": 0.18221566666667854
                },
                {
                    "name": "A3",
                    "midi": 57,
                    "time": 205.9037033333309,
                    "velocity": 0.5511811023622047,
                    "duration": 0.18221566666667854
                },
                {
                    "name": "A#3",
                    "midi": 58,
                    "time": 206.08591899999757,
                    "velocity": 0.49606299212598426,
                    "duration": 0.1366617500000018
                },
                {
                    "name": "A3",
                    "midi": 57,
                    "time": 206.22258074999758,
                    "velocity": 0.5511811023622047,
                    "duration": 0.1366617500000018
                },
                {
                    "name": "G3",
                    "midi": 55,
                    "time": 206.35924249999758,
                    "velocity": 0.5118110236220472,
                    "duration": 0.1366617500000018
                },
                {
                    "name": "A3",
                    "midi": 57,
                    "time": 206.49590424999758,
                    "velocity": 0.5118110236220472,
                    "duration": 0.1366617500000018
                },
                {
                    "name": "A#3",
                    "midi": 58,
                    "time": 206.63256599999758,
                    "velocity": 0.5669291338582677,
                    "duration": 1.093293999999986
                },
                {
                    "name": "A#3",
                    "midi": 58,
                    "time": 208.27250699999757,
                    "velocity": 0.4881889763779528,
                    "duration": 0.32798819999999296
                },
                {
                    "name": "A3",
                    "midi": 57,
                    "time": 208.54583049999758,
                    "velocity": 0.4094488188976378,
                    "duration": 0.32798819999996454
                },
                {
                    "name": "G3",
                    "midi": 55,
                    "time": 208.81915399999755,
                    "velocity": 0.4094488188976378,
                    "duration": 0.32798819999996454
                },
                {
                    "name": "F3",
                    "midi": 53,
                    "time": 209.09247749999753,
                    "velocity": 0.4094488188976378,
                    "duration": 0.32798819999996454
                },
                {
                    "name": "D#3",
                    "midi": 51,
                    "time": 209.3658009999975,
                    "velocity": 0.4566929133858268,
                    "duration": 0.32798819999996454
                },
                {
                    "name": "D3",
                    "midi": 50,
                    "time": 209.63912449999748,
                    "velocity": 0.4015748031496063,
                    "duration": 0.32798819999996454
                },
                {
                    "name": "G3",
                    "midi": 55,
                    "time": 209.91244799999745,
                    "velocity": 0.5433070866141733,
                    "duration": 1.093293999999986
                },
                {
                    "name": "G3",
                    "midi": 55,
                    "time": 211.55238899999745,
                    "velocity": 0.4881889763779528,
                    "duration": 0.32798819999999296
                },
                {
                    "name": "F3",
                    "midi": 53,
                    "time": 211.82571249999745,
                    "velocity": 0.4094488188976378,
                    "duration": 0.32798819999996454
                },
                {
                    "name": "D#3",
                    "midi": 51,
                    "time": 212.09903599999743,
                    "velocity": 0.4094488188976378,
                    "duration": 0.32798819999996454
                },
                {
                    "name": "D3",
                    "midi": 50,
                    "time": 212.3723594999974,
                    "velocity": 0.4094488188976378,
                    "duration": 0.32798819999996454
                },
                {
                    "name": "C3",
                    "midi": 48,
                    "time": 212.64568299999738,
                    "velocity": 0.4566929133858268,
                    "duration": 0.32798819999996454
                },
                {
                    "name": "A#2",
                    "midi": 46,
                    "time": 212.91900649999735,
                    "velocity": 0.4015748031496063,
                    "duration": 0.32798819999996454
                },
                {
                    "name": "D#3",
                    "midi": 51,
                    "time": 213.19232999999733,
                    "velocity": 0.5433070866141733,
                    "duration": 1.093293999999986
                },
                {
                    "name": "D#3",
                    "midi": 51,
                    "time": 214.83227099999732,
                    "velocity": 0.4409448818897638,
                    "duration": 0.32798819999999296
                },
                {
                    "name": "D3",
                    "midi": 50,
                    "time": 215.10559449999732,
                    "velocity": 0.4330708661417323,
                    "duration": 0.32798819999996454
                },
                {
                    "name": "C3",
                    "midi": 48,
                    "time": 215.3789179999973,
                    "velocity": 0.4251968503937008,
                    "duration": 0.32798819999996454
                },
                {
                    "name": "D3",
                    "midi": 50,
                    "time": 215.65224149999727,
                    "velocity": 0.41732283464566927,
                    "duration": 0.32798819999996454
                },
                {
                    "name": "C3",
                    "midi": 48,
                    "time": 215.92556499999725,
                    "velocity": 0.4015748031496063,
                    "duration": 0.32798819999996454
                },
                {
                    "name": "A#2",
                    "midi": 46,
                    "time": 216.19888849999722,
                    "velocity": 0.4094488188976378,
                    "duration": 0.32798819999996454
                },
                {
                    "name": "A2",
                    "midi": 45,
                    "time": 216.4722119999972,
                    "velocity": 0.4409448818897638,
                    "duration": 0.32798819999996454
                },
                {
                    "name": "A#2",
                    "midi": 46,
                    "time": 216.74553549999717,
                    "velocity": 0.3937007874015748,
                    "duration": 0.32798819999996454
                },
                {
                    "name": "A2",
                    "midi": 45,
                    "time": 217.01885899999715,
                    "velocity": 0.3937007874015748,
                    "duration": 0.32798819999996454
                },
                {
                    "name": "G2",
                    "midi": 43,
                    "time": 217.29218249999712,
                    "velocity": 0.3937007874015748,
                    "duration": 0.2733234999999752
                },
                {
                    "name": "F2",
                    "midi": 41,
                    "time": 217.5655059999971,
                    "velocity": 0.3937007874015748,
                    "duration": 0.2733235000000036
                },
                {
                    "name": "G2",
                    "midi": 43,
                    "time": 217.8388294999971,
                    "velocity": 0.4094488188976378,
                    "duration": 0.32798819999999296
                },
                {
                    "name": "A2",
                    "midi": 45,
                    "time": 218.1121529999971,
                    "velocity": 0.3779527559055118,
                    "duration": 0.32798819999996454
                },
                {
                    "name": "A#2",
                    "midi": 46,
                    "time": 218.38547649999708,
                    "velocity": 0.3779527559055118,
                    "duration": 0.32798819999996454
                },
                {
                    "name": "B2",
                    "midi": 47,
                    "time": 218.65879999999706,
                    "velocity": 0.3779527559055118,
                    "duration": 0.32798819999996454
                },
                {
                    "name": "C3",
                    "midi": 48,
                    "time": 218.93212349999703,
                    "velocity": 0.3779527559055118,
                    "duration": 0.32798819999996454
                },
                {
                    "name": "D3",
                    "midi": 50,
                    "time": 219.205446999997,
                    "velocity": 0.3779527559055118,
                    "duration": 0.32798819999996454
                },
                {
                    "name": "C3",
                    "midi": 48,
                    "time": 219.47877049999698,
                    "velocity": 0.3779527559055118,
                    "duration": 0.2733234999999752
                },
                {
                    "name": "A#2",
                    "midi": 46,
                    "time": 219.75209399999696,
                    "velocity": 0.4015748031496063,
                    "duration": 0.32798819999999296
                },
                {
                    "name": "C3",
                    "midi": 48,
                    "time": 220.02541749999696,
                    "velocity": 0.4015748031496063,
                    "duration": 0.32798819999996454
                },
                {
                    "name": "D3",
                    "midi": 50,
                    "time": 220.29874099999694,
                    "velocity": 0.4015748031496063,
                    "duration": 0.32798819999996454
                },
                {
                    "name": "D#3",
                    "midi": 51,
                    "time": 220.5720644999969,
                    "velocity": 0.4094488188976378,
                    "duration": 0.32798819999996454
                },
                {
                    "name": "E3",
                    "midi": 52,
                    "time": 220.8453879999969,
                    "velocity": 0.41732283464566927,
                    "duration": 0.32798819999996454
                },
                {
                    "name": "F3",
                    "midi": 53,
                    "time": 221.11871149999686,
                    "velocity": 0.41732283464566927,
                    "duration": 0.32798819999996454
                },
                {
                    "name": "G3",
                    "midi": 55,
                    "time": 221.39203499999684,
                    "velocity": 0.4251968503937008,
                    "duration": 0.32798819999996454
                },
                {
                    "name": "F3",
                    "midi": 53,
                    "time": 221.6653584999968,
                    "velocity": 0.4015748031496063,
                    "duration": 0.32798819999996454
                },
                {
                    "name": "D#3",
                    "midi": 51,
                    "time": 221.9386819999968,
                    "velocity": 0.4251968503937008,
                    "duration": 0.32798819999996454
                },
                {
                    "name": "D3",
                    "midi": 50,
                    "time": 222.21200549999676,
                    "velocity": 0.41732283464566927,
                    "duration": 0.32798819999996454
                },
                {
                    "name": "C3",
                    "midi": 48,
                    "time": 222.48532899999674,
                    "velocity": 0.4094488188976378,
                    "duration": 0.32798819999996454
                },
                {
                    "name": "A#2",
                    "midi": 46,
                    "time": 222.7586524999967,
                    "velocity": 0.4015748031496063,
                    "duration": 0.32798819999996454
                },
                {
                    "name": "A2",
                    "midi": 45,
                    "time": 223.0319759999967,
                    "velocity": 0.4409448818897638,
                    "duration": 0.32798819999996454
                },
                {
                    "name": "A#2",
                    "midi": 46,
                    "time": 223.30529949999666,
                    "velocity": 0.3937007874015748,
                    "duration": 0.32798819999996454
                },
                {
                    "name": "A2",
                    "midi": 45,
                    "time": 223.57862299999664,
                    "velocity": 0.3937007874015748,
                    "duration": 0.32798819999996454
                },
                {
                    "name": "G2",
                    "midi": 43,
                    "time": 223.85194649999661,
                    "velocity": 0.3937007874015748,
                    "duration": 0.2733234999999752
                },
                {
                    "name": "F2",
                    "midi": 41,
                    "time": 224.1252699999966,
                    "velocity": 0.3937007874015748,
                    "duration": 0.2733235000000036
                },
                {
                    "name": "G2",
                    "midi": 43,
                    "time": 224.3985934999966,
                    "velocity": 0.4094488188976378,
                    "duration": 0.32798819999999296
                },
                {
                    "name": "A2",
                    "midi": 45,
                    "time": 224.6719169999966,
                    "velocity": 0.3779527559055118,
                    "duration": 0.32798819999996454
                },
                {
                    "name": "A#2",
                    "midi": 46,
                    "time": 224.94524049999657,
                    "velocity": 0.3779527559055118,
                    "duration": 0.32798819999996454
                },
                {
                    "name": "A2",
                    "midi": 45,
                    "time": 225.21856399999655,
                    "velocity": 0.3779527559055118,
                    "duration": 0.32798819999996454
                },
                {
                    "name": "A#2",
                    "midi": 46,
                    "time": 225.49188749999652,
                    "velocity": 0.3779527559055118,
                    "duration": 0.32798819999996454
                },
                {
                    "name": "C3",
                    "midi": 48,
                    "time": 225.7652109999965,
                    "velocity": 0.3779527559055118,
                    "duration": 0.32798819999996454
                },
                {
                    "name": "D3",
                    "midi": 50,
                    "time": 226.03853449999647,
                    "velocity": 0.3779527559055118,
                    "duration": 0.2733234999999752
                },
                {
                    "name": "D#3",
                    "midi": 51,
                    "time": 226.31185799999645,
                    "velocity": 0.4015748031496063,
                    "duration": 0.32798819999999296
                },
                {
                    "name": "F3",
                    "midi": 53,
                    "time": 226.58518149999645,
                    "velocity": 0.4015748031496063,
                    "duration": 0.32798819999996454
                },
                {
                    "name": "G3",
                    "midi": 55,
                    "time": 226.85850499999643,
                    "velocity": 0.4015748031496063,
                    "duration": 0.32798819999996454
                },
                {
                    "name": "D#3",
                    "midi": 51,
                    "time": 227.1318284999964,
                    "velocity": 0.4094488188976378,
                    "duration": 0.32798819999996454
                },
                {
                    "name": "C#3",
                    "midi": 49,
                    "time": 227.40515199999638,
                    "velocity": 0.41732283464566927,
                    "duration": 0.32798819999996454
                },
                {
                    "name": "D3",
                    "midi": 50,
                    "time": 227.67847549999635,
                    "velocity": 0.41732283464566927,
                    "duration": 0.32798819999996454
                },
                {
                    "name": "E3",
                    "midi": 52,
                    "time": 227.95179899999633,
                    "velocity": 0.4251968503937008,
                    "duration": 0.32798819999996454
                },
                {
                    "name": "C#3",
                    "midi": 49,
                    "time": 228.2251224999963,
                    "velocity": 0.4015748031496063,
                    "duration": 0.32798819999996454
                },
                {
                    "name": "D3",
                    "midi": 50,
                    "time": 228.49844599999628,
                    "velocity": 0.4251968503937008,
                    "duration": 0.2733234999999752
                },
                {
                    "name": "F3",
                    "midi": 53,
                    "time": 228.77176949999625,
                    "velocity": 0.41732283464566927,
                    "duration": 0.2733235000000036
                },
                {
                    "name": "A#3",
                    "midi": 58,
                    "time": 229.04509299999626,
                    "velocity": 0.4094488188976378,
                    "duration": 0.2733235000000036
                },
                {
                    "name": "D4",
                    "midi": 62,
                    "time": 229.31841649999626,
                    "velocity": 0.4015748031496063,
                    "duration": 0.2733235000000036
                },
                {
                    "name": "F#3",
                    "midi": 54,
                    "time": 229.59173999999626,
                    "velocity": 0.4409448818897638,
                    "duration": 0.32798819999999296
                },
                {
                    "name": "G3",
                    "midi": 55,
                    "time": 229.86506349999627,
                    "velocity": 0.3937007874015748,
                    "duration": 0.32798819999996454
                },
                {
                    "name": "A3",
                    "midi": 57,
                    "time": 230.13838699999624,
                    "velocity": 0.3937007874015748,
                    "duration": 0.32798819999996454
                },
                {
                    "name": "G3",
                    "midi": 55,
                    "time": 230.41171049999622,
                    "velocity": 0.3937007874015748,
                    "duration": 0.2733234999999752
                },
                {
                    "name": "D#3",
                    "midi": 51,
                    "time": 230.6850339999962,
                    "velocity": 0.3937007874015748,
                    "duration": 0.2733235000000036
                },
                {
                    "name": "E3",
                    "midi": 52,
                    "time": 230.9583574999962,
                    "velocity": 0.4094488188976378,
                    "duration": 0.32798819999999296
                },
                {
                    "name": "F3",
                    "midi": 53,
                    "time": 231.2316809999962,
                    "velocity": 0.3779527559055118,
                    "duration": 0.32798819999996454
                },
                {
                    "name": "E3",
                    "midi": 52,
                    "time": 231.50500449999618,
                    "velocity": 0.3779527559055118,
                    "duration": 0.32798819999996454
                },
                {
                    "name": "F3",
                    "midi": 53,
                    "time": 231.77832799999615,
                    "velocity": 0.3779527559055118,
                    "duration": 0.2733234999999752
                },
                {
                    "name": "A3",
                    "midi": 57,
                    "time": 232.05165149999613,
                    "velocity": 0.3779527559055118,
                    "duration": 0.2733235000000036
                },
                {
                    "name": "C4",
                    "midi": 60,
                    "time": 232.32497499999613,
                    "velocity": 0.3779527559055118,
                    "duration": 0.2733235000000036
                },
                {
                    "name": "F4",
                    "midi": 65,
                    "time": 232.59829849999613,
                    "velocity": 0.3779527559055118,
                    "duration": 0.2733235000000036
                },
                {
                    "name": "B3",
                    "midi": 59,
                    "time": 232.87162199999614,
                    "velocity": 0.4015748031496063,
                    "duration": 0.32798819999999296
                },
                {
                    "name": "C4",
                    "midi": 60,
                    "time": 233.14494549999614,
                    "velocity": 0.4015748031496063,
                    "duration": 0.32798819999996454
                },
                {
                    "name": "D4",
                    "midi": 62,
                    "time": 233.41826899999612,
                    "velocity": 0.4015748031496063,
                    "duration": 0.32798819999996454
                },
                {
                    "name": "C4",
                    "midi": 60,
                    "time": 233.6915924999961,
                    "velocity": 0.4094488188976378,
                    "duration": 0.32798819999996454
                },
                {
                    "name": "G#3",
                    "midi": 56,
                    "time": 233.96491599999607,
                    "velocity": 0.41732283464566927,
                    "duration": 0.32798819999996454
                },
                {
                    "name": "A3",
                    "midi": 57,
                    "time": 234.23823949999604,
                    "velocity": 0.41732283464566927,
                    "duration": 0.32798819999996454
                },
                {
                    "name": "A#3",
                    "midi": 58,
                    "time": 234.51156299999602,
                    "velocity": 0.4251968503937008,
                    "duration": 0.32798819999996454
                },
                {
                    "name": "A3",
                    "midi": 57,
                    "time": 234.784886499996,
                    "velocity": 0.4015748031496063,
                    "duration": 0.32798819999996454
                },
                {
                    "name": "A#3",
                    "midi": 58,
                    "time": 235.05820999999597,
                    "velocity": 0.4251968503937008,
                    "duration": 0.32798819999996454
                },
                {
                    "name": "A3",
                    "midi": 57,
                    "time": 235.33153349999594,
                    "velocity": 0.41732283464566927,
                    "duration": 0.32798819999996454
                },
                {
                    "name": "G3",
                    "midi": 55,
                    "time": 235.60485699999592,
                    "velocity": 0.4094488188976378,
                    "duration": 0.32798819999996454
                },
                {
                    "name": "F3",
                    "midi": 53,
                    "time": 235.8781804999959,
                    "velocity": 0.4015748031496063,
                    "duration": 0.32798819999996454
                },
                {
                    "name": "D#3",
                    "midi": 51,
                    "time": 236.15150399999587,
                    "velocity": 0.4015748031496063,
                    "duration": 0.32798819999996454
                },
                {
                    "name": "F3",
                    "midi": 53,
                    "time": 236.42482749999584,
                    "velocity": 0.4015748031496063,
                    "duration": 0.32798819999996454
                },
                {
                    "name": "G3",
                    "midi": 55,
                    "time": 236.69815099999582,
                    "velocity": 0.4015748031496063,
                    "duration": 0.32798819999996454
                },
                {
                    "name": "D#3",
                    "midi": 51,
                    "time": 236.9714744999958,
                    "velocity": 0.4094488188976378,
                    "duration": 0.32798819999996454
                },
                {
                    "name": "D3",
                    "midi": 50,
                    "time": 237.24479799999577,
                    "velocity": 0.41732283464566927,
                    "duration": 0.32798819999996454
                },
                {
                    "name": "C#3",
                    "midi": 49,
                    "time": 237.51812149999574,
                    "velocity": 0.41732283464566927,
                    "duration": 0.32798819999996454
                },
                {
                    "name": "C3",
                    "midi": 48,
                    "time": 237.79144499999572,
                    "velocity": 0.4251968503937008,
                    "duration": 0.32798819999996454
                },
                {
                    "name": "C#3",
                    "midi": 49,
                    "time": 238.0647684999957,
                    "velocity": 0.4015748031496063,
                    "duration": 0.32798819999996454
                },
                {
                    "name": "D3",
                    "midi": 50,
                    "time": 238.33809199999567,
                    "velocity": 0.4251968503937008,
                    "duration": 0.32798819999996454
                },
                {
                    "name": "E3",
                    "midi": 52,
                    "time": 238.61141549999564,
                    "velocity": 0.41732283464566927,
                    "duration": 0.32798819999996454
                },
                {
                    "name": "F3",
                    "midi": 53,
                    "time": 238.88473899999562,
                    "velocity": 0.4094488188976378,
                    "duration": 0.32798819999996454
                },
                {
                    "name": "F#3",
                    "midi": 54,
                    "time": 239.1580624999956,
                    "velocity": 0.4015748031496063,
                    "duration": 0.32798819999996454
                },
                {
                    "name": "G3",
                    "midi": 55,
                    "time": 239.43138599999557,
                    "velocity": 0.4015748031496063,
                    "duration": 0.32798819999996454
                },
                {
                    "name": "A3",
                    "midi": 57,
                    "time": 239.70470949999554,
                    "velocity": 0.4015748031496063,
                    "duration": 0.32798819999996454
                },
                {
                    "name": "A#3",
                    "midi": 58,
                    "time": 239.97803299999552,
                    "velocity": 0.4015748031496063,
                    "duration": 0.32798819999996454
                },
                {
                    "name": "B3",
                    "midi": 59,
                    "time": 240.2513564999955,
                    "velocity": 0.4094488188976378,
                    "duration": 0.32798819999996454
                },
                {
                    "name": "C3",
                    "midi": 48,
                    "time": 240.52467999999547,
                    "velocity": 0.41732283464566927,
                    "duration": 0.2733234999999752
                },
                {
                    "name": "E3",
                    "midi": 52,
                    "time": 240.79800349999545,
                    "velocity": 0.41732283464566927,
                    "duration": 0.2733235000000036
                },
                {
                    "name": "G3",
                    "midi": 55,
                    "time": 241.07132699999545,
                    "velocity": 0.4251968503937008,
                    "duration": 0.2733235000000036
                },
                {
                    "name": "C4",
                    "midi": 60,
                    "time": 241.34465049999545,
                    "velocity": 0.4015748031496063,
                    "duration": 0.2733235000000036
                },
                {
                    "name": "F3",
                    "midi": 53,
                    "time": 241.61797399999546,
                    "velocity": 0.4251968503937008,
                    "duration": 0.32798819999999296
                },
                {
                    "name": "G3",
                    "midi": 55,
                    "time": 241.89129749999546,
                    "velocity": 0.41732283464566927,
                    "duration": 0.32798819999996454
                },
                {
                    "name": "G#3",
                    "midi": 56,
                    "time": 242.16462099999544,
                    "velocity": 0.4094488188976378,
                    "duration": 0.32798819999996454
                },
                {
                    "name": "A3",
                    "midi": 57,
                    "time": 242.4379444999954,
                    "velocity": 0.4015748031496063,
                    "duration": 0.32798819999996454
                },
                {
                    "name": "A#2",
                    "midi": 46,
                    "time": 242.71126799999539,
                    "velocity": 0.4015748031496063,
                    "duration": 0.2733234999999752
                },
                {
                    "name": "D3",
                    "midi": 50,
                    "time": 242.98459149999536,
                    "velocity": 0.4015748031496063,
                    "duration": 0.2733235000000036
                },
                {
                    "name": "F3",
                    "midi": 53,
                    "time": 243.25791499999536,
                    "velocity": 0.4015748031496063,
                    "duration": 0.2733235000000036
                },
                {
                    "name": "A#3",
                    "midi": 58,
                    "time": 243.53123849999537,
                    "velocity": 0.4094488188976378,
                    "duration": 0.2733235000000036
                },
                {
                    "name": "E3",
                    "midi": 52,
                    "time": 243.80456199999537,
                    "velocity": 0.41732283464566927,
                    "duration": 0.2733235000000036
                },
                {
                    "name": "G3",
                    "midi": 55,
                    "time": 244.07788549999538,
                    "velocity": 0.41732283464566927,
                    "duration": 0.2733235000000036
                },
                {
                    "name": "A#3",
                    "midi": 58,
                    "time": 244.35120899999538,
                    "velocity": 0.4251968503937008,
                    "duration": 0.2733235000000036
                },
                {
                    "name": "E4",
                    "midi": 64,
                    "time": 244.62453249999538,
                    "velocity": 0.4015748031496063,
                    "duration": 0.2733235000000036
                },
                {
                    "name": "G3",
                    "midi": 55,
                    "time": 244.8978559999954,
                    "velocity": 0.4251968503937008,
                    "duration": 0.2733235000000036
                },
                {
                    "name": "E3",
                    "midi": 52,
                    "time": 245.1711794999954,
                    "velocity": 0.41732283464566927,
                    "duration": 0.2733235000000036
                },
                {
                    "name": "G3",
                    "midi": 55,
                    "time": 245.4445029999954,
                    "velocity": 0.4094488188976378,
                    "duration": 0.2733235000000036
                },
                {
                    "name": "E3",
                    "midi": 52,
                    "time": 245.7178264999954,
                    "velocity": 0.4015748031496063,
                    "duration": 0.2733235000000036
                },
                {
                    "name": "F2",
                    "midi": 41,
                    "time": 248.1777379999954,
                    "velocity": 0.5275590551181102,
                    "duration": 0.5466470000000072
                },
                {
                    "name": "A3",
                    "midi": 57,
                    "time": 249.27103199999542,
                    "velocity": 0.5511811023622047,
                    "duration": 0.18221566666667854
                },
                {
                    "name": "A#3",
                    "midi": 58,
                    "time": 249.4532476666621,
                    "velocity": 0.5039370078740157,
                    "duration": 0.18221566666667854
                },
                {
                    "name": "A3",
                    "midi": 57,
                    "time": 249.63546333332877,
                    "velocity": 0.5511811023622047,
                    "duration": 0.18221566666667854
                },
                {
                    "name": "A#3",
                    "midi": 58,
                    "time": 249.81767899999545,
                    "velocity": 0.4881889763779528,
                    "duration": 0.18221566666667854
                },
                {
                    "name": "A3",
                    "midi": 57,
                    "time": 249.99989466666213,
                    "velocity": 0.5511811023622047,
                    "duration": 0.18221566666667854
                },
                {
                    "name": "A#3",
                    "midi": 58,
                    "time": 250.1821103333288,
                    "velocity": 0.4881889763779528,
                    "duration": 0.18221566666667854
                },
                {
                    "name": "A3",
                    "midi": 57,
                    "time": 250.3643259999955,
                    "velocity": 0.5354330708661418,
                    "duration": 0.18221566666667854
                },
                {
                    "name": "A#3",
                    "midi": 58,
                    "time": 250.54654166666216,
                    "velocity": 0.4645669291338583,
                    "duration": 0.18221566666667854
                },
                {
                    "name": "A3",
                    "midi": 57,
                    "time": 250.72875733332884,
                    "velocity": 0.5354330708661418,
                    "duration": 0.18221566666667854
                },
                {
                    "name": "A#3",
                    "midi": 58,
                    "time": 250.91097299999552,
                    "velocity": 0.48031496062992124,
                    "duration": 0.1366617500000018
                },
                {
                    "name": "A3",
                    "midi": 57,
                    "time": 251.04763474999552,
                    "velocity": 0.5354330708661418,
                    "duration": 0.1366617500000018
                },
                {
                    "name": "G3",
                    "midi": 55,
                    "time": 251.18429649999553,
                    "velocity": 0.49606299212598426,
                    "duration": 0.1366617500000018
                },
                {
                    "name": "A3",
                    "midi": 57,
                    "time": 251.32095824999553,
                    "velocity": 0.49606299212598426,
                    "duration": 0.1366617500000018
                },
                {
                    "name": "A#3",
                    "midi": 58,
                    "time": 251.45761999999553,
                    "velocity": 0.49606299212598426,
                    "duration": 1.093293999999986
                },
                {
                    "name": "G2",
                    "midi": 43,
                    "time": 254.73750199999552,
                    "velocity": 0.5275590551181102,
                    "duration": 0.5466470000000072
                },
                {
                    "name": "B3",
                    "midi": 59,
                    "time": 255.83079599999553,
                    "velocity": 0.5511811023622047,
                    "duration": 0.18221566666665012
                },
                {
                    "name": "C4",
                    "midi": 60,
                    "time": 256.0130116666622,
                    "velocity": 0.5039370078740157,
                    "duration": 0.18221566666665012
                },
                {
                    "name": "B3",
                    "midi": 59,
                    "time": 256.19522733332883,
                    "velocity": 0.5511811023622047,
                    "duration": 0.18221566666665012
                },
                {
                    "name": "C4",
                    "midi": 60,
                    "time": 256.3774429999955,
                    "velocity": 0.4881889763779528,
                    "duration": 0.18221566666665012
                },
                {
                    "name": "B3",
                    "midi": 59,
                    "time": 256.55965866666213,
                    "velocity": 0.5511811023622047,
                    "duration": 0.18221566666665012
                },
                {
                    "name": "C4",
                    "midi": 60,
                    "time": 256.7418743333288,
                    "velocity": 0.4881889763779528,
                    "duration": 0.18221566666665012
                },
                {
                    "name": "B3",
                    "midi": 59,
                    "time": 256.92408999999543,
                    "velocity": 0.5354330708661418,
                    "duration": 0.18221566666665012
                },
                {
                    "name": "C4",
                    "midi": 60,
                    "time": 257.1063056666621,
                    "velocity": 0.4645669291338583,
                    "duration": 0.18221566666665012
                },
                {
                    "name": "B3",
                    "midi": 59,
                    "time": 257.28852133332873,
                    "velocity": 0.5354330708661418,
                    "duration": 0.18221566666665012
                },
                {
                    "name": "C4",
                    "midi": 60,
                    "time": 257.4707369999954,
                    "velocity": 0.48031496062992124,
                    "duration": 0.13666174999997338
                },
                {
                    "name": "B3",
                    "midi": 59,
                    "time": 257.60739874999535,
                    "velocity": 0.5354330708661418,
                    "duration": 0.13666174999997338
                },
                {
                    "name": "A3",
                    "midi": 57,
                    "time": 257.7440604999953,
                    "velocity": 0.49606299212598426,
                    "duration": 0.13666174999997338
                },
                {
                    "name": "B3",
                    "midi": 59,
                    "time": 257.8807222499953,
                    "velocity": 0.49606299212598426,
                    "duration": 0.13666174999997338
                },
                {
                    "name": "C4",
                    "midi": 60,
                    "time": 258.0173839999953,
                    "velocity": 0.49606299212598426,
                    "duration": 0.5466470000000072
                },
                {
                    "name": "G#2",
                    "midi": 44,
                    "time": 258.5640309999953,
                    "velocity": 0.49606299212598426,
                    "duration": 0.5466470000000072
                },
                {
                    "name": "C4",
                    "midi": 60,
                    "time": 259.1106779999953,
                    "velocity": 0.5511811023622047,
                    "duration": 0.18221566666665012
                },
                {
                    "name": "C#4",
                    "midi": 61,
                    "time": 259.29289366666194,
                    "velocity": 0.5039370078740157,
                    "duration": 0.18221566666665012
                },
                {
                    "name": "C4",
                    "midi": 60,
                    "time": 259.4751093333286,
                    "velocity": 0.5511811023622047,
                    "duration": 0.18221566666665012
                },
                {
                    "name": "C#4",
                    "midi": 61,
                    "time": 259.65732499999524,
                    "velocity": 0.4881889763779528,
                    "duration": 0.18221566666665012
                },
                {
                    "name": "C4",
                    "midi": 60,
                    "time": 259.8395406666619,
                    "velocity": 0.5511811023622047,
                    "duration": 0.18221566666665012
                },
                {
                    "name": "C#4",
                    "midi": 61,
                    "time": 260.02175633332854,
                    "velocity": 0.4881889763779528,
                    "duration": 0.18221566666665012
                },
                {
                    "name": "C4",
                    "midi": 60,
                    "time": 260.2039719999952,
                    "velocity": 0.5354330708661418,
                    "duration": 0.18221566666665012
                },
                {
                    "name": "C#4",
                    "midi": 61,
                    "time": 260.38618766666184,
                    "velocity": 0.4645669291338583,
                    "duration": 0.18221566666665012
                },
                {
                    "name": "C4",
                    "midi": 60,
                    "time": 260.5684033333285,
                    "velocity": 0.5354330708661418,
                    "duration": 0.18221566666665012
                },
                {
                    "name": "C#4",
                    "midi": 61,
                    "time": 260.75061899999514,
                    "velocity": 0.48031496062992124,
                    "duration": 0.13666174999997338
                },
                {
                    "name": "C4",
                    "midi": 60,
                    "time": 260.8872807499951,
                    "velocity": 0.5354330708661418,
                    "duration": 0.13666174999997338
                },
                {
                    "name": "A#3",
                    "midi": 58,
                    "time": 261.0239424999951,
                    "velocity": 0.49606299212598426,
                    "duration": 0.13666174999997338
                },
                {
                    "name": "C4",
                    "midi": 60,
                    "time": 261.16060424999506,
                    "velocity": 0.49606299212598426,
                    "duration": 0.13666174999997338
                },
                {
                    "name": "C#4",
                    "midi": 61,
                    "time": 261.29726599999503,
                    "velocity": 0.49606299212598426,
                    "duration": 1.0932940000000144
                },
                {
                    "name": "C#4",
                    "midi": 61,
                    "time": 262.93720699999506,
                    "velocity": 0.48031496062992124,
                    "duration": 0.2733235000000036
                },
                {
                    "name": "C4",
                    "midi": 60,
                    "time": 263.21053049999506,
                    "velocity": 0.48031496062992124,
                    "duration": 0.2733235000000036
                },
                {
                    "name": "A#3",
                    "midi": 58,
                    "time": 263.48385399999506,
                    "velocity": 0.5275590551181102,
                    "duration": 0.2733235000000036
                },
                {
                    "name": "G#3",
                    "midi": 56,
                    "time": 263.75717749999507,
                    "velocity": 0.48031496062992124,
                    "duration": 0.2733235000000036
                },
                {
                    "name": "F#3",
                    "midi": 54,
                    "time": 264.03050099999507,
                    "velocity": 0.48031496062992124,
                    "duration": 0.2733235000000036
                },
                {
                    "name": "F3",
                    "midi": 53,
                    "time": 264.3038244999951,
                    "velocity": 0.48031496062992124,
                    "duration": 0.2733235000000036
                },
                {
                    "name": "A#3",
                    "midi": 58,
                    "time": 264.5771479999951,
                    "velocity": 0.5433070866141733,
                    "duration": 1.0932940000000144
                },
                {
                    "name": "A#3",
                    "midi": 58,
                    "time": 266.2170889999951,
                    "velocity": 0.49606299212598426,
                    "duration": 0.2733235000000036
                },
                {
                    "name": "G#3",
                    "midi": 56,
                    "time": 266.4904124999951,
                    "velocity": 0.48031496062992124,
                    "duration": 0.2733235000000036
                },
                {
                    "name": "F#3",
                    "midi": 54,
                    "time": 266.7637359999951,
                    "velocity": 0.44881889763779526,
                    "duration": 0.2733235000000036
                },
                {
                    "name": "F3",
                    "midi": 53,
                    "time": 267.0370594999951,
                    "velocity": 0.4566929133858268,
                    "duration": 0.2733235000000036
                },
                {
                    "name": "D#3",
                    "midi": 51,
                    "time": 267.3103829999951,
                    "velocity": 0.4566929133858268,
                    "duration": 0.2733235000000036
                },
                {
                    "name": "C#3",
                    "midi": 49,
                    "time": 267.5837064999951,
                    "velocity": 0.4566929133858268,
                    "duration": 0.2733235000000036
                },
                {
                    "name": "F#3",
                    "midi": 54,
                    "time": 267.8570299999951,
                    "velocity": 0.5039370078740157,
                    "duration": 1.0932940000000144
                },
                {
                    "name": "F#3",
                    "midi": 54,
                    "time": 269.49697099999514,
                    "velocity": 0.48031496062992124,
                    "duration": 0.2733235000000036
                },
                {
                    "name": "F3",
                    "midi": 53,
                    "time": 269.77029449999515,
                    "velocity": 0.4409448818897638,
                    "duration": 0.2733235000000036
                },
                {
                    "name": "D#3",
                    "midi": 51,
                    "time": 270.04361799999515,
                    "velocity": 0.48031496062992124,
                    "duration": 0.2733235000000036
                },
                {
                    "name": "F3",
                    "midi": 53,
                    "time": 270.31694149999515,
                    "velocity": 0.44881889763779526,
                    "duration": 0.2733235000000036
                },
                {
                    "name": "D#3",
                    "midi": 51,
                    "time": 270.59026499999516,
                    "velocity": 0.44881889763779526,
                    "duration": 0.2733235000000036
                },
                {
                    "name": "C#3",
                    "midi": 49,
                    "time": 270.86358849999516,
                    "velocity": 0.44881889763779526,
                    "duration": 0.2733235000000036
                },
                {
                    "name": "C3",
                    "midi": 48,
                    "time": 271.13691199999516,
                    "velocity": 0.48031496062992124,
                    "duration": 0.2733235000000036
                },
                {
                    "name": "C#3",
                    "midi": 49,
                    "time": 271.41023549999517,
                    "velocity": 0.4330708661417323,
                    "duration": 0.2733235000000036
                },
                {
                    "name": "C3",
                    "midi": 48,
                    "time": 271.68355899999517,
                    "velocity": 0.4330708661417323,
                    "duration": 0.2733235000000036
                },
                {
                    "name": "A#2",
                    "midi": 46,
                    "time": 271.9568824999952,
                    "velocity": 0.4330708661417323,
                    "duration": 0.2733235000000036
                },
                {
                    "name": "G#2",
                    "midi": 44,
                    "time": 272.2302059999952,
                    "velocity": 0.48031496062992124,
                    "duration": 0.2733235000000036
                },
                {
                    "name": "A#2",
                    "midi": 46,
                    "time": 272.5035294999952,
                    "velocity": 0.4330708661417323,
                    "duration": 0.2733235000000036
                },
                {
                    "name": "C3",
                    "midi": 48,
                    "time": 272.7768529999952,
                    "velocity": 0.4409448818897638,
                    "duration": 0.2733235000000036
                },
                {
                    "name": "C#3",
                    "midi": 49,
                    "time": 273.0501764999952,
                    "velocity": 0.44881889763779526,
                    "duration": 0.2733235000000036
                },
                {
                    "name": "D3",
                    "midi": 50,
                    "time": 273.3234999999952,
                    "velocity": 0.4881889763779528,
                    "duration": 0.2733235000000036
                },
                {
                    "name": "D#3",
                    "midi": 51,
                    "time": 273.5968234999952,
                    "velocity": 0.44881889763779526,
                    "duration": 0.2733235000000036
                },
                {
                    "name": "F3",
                    "midi": 53,
                    "time": 273.8701469999952,
                    "velocity": 0.44881889763779526,
                    "duration": 0.2733235000000036
                },
                {
                    "name": "D#3",
                    "midi": 51,
                    "time": 274.1434704999952,
                    "velocity": 0.44881889763779526,
                    "duration": 0.2733235000000036
                },
                {
                    "name": "C#3",
                    "midi": 49,
                    "time": 274.4167939999952,
                    "velocity": 0.44881889763779526,
                    "duration": 0.2733235000000036
                },
                {
                    "name": "D#3",
                    "midi": 51,
                    "time": 274.6901174999952,
                    "velocity": 0.44881889763779526,
                    "duration": 0.2733235000000036
                },
                {
                    "name": "F3",
                    "midi": 53,
                    "time": 274.9634409999952,
                    "velocity": 0.4645669291338583,
                    "duration": 0.2733235000000036
                },
                {
                    "name": "F#3",
                    "midi": 54,
                    "time": 275.2367644999952,
                    "velocity": 0.4645669291338583,
                    "duration": 0.2733235000000036
                },
                {
                    "name": "G3",
                    "midi": 55,
                    "time": 275.5100879999952,
                    "velocity": 0.48031496062992124,
                    "duration": 0.2733235000000036
                },
                {
                    "name": "G#3",
                    "midi": 56,
                    "time": 275.7834114999952,
                    "velocity": 0.4881889763779528,
                    "duration": 0.2733235000000036
                },
                {
                    "name": "A#3",
                    "midi": 58,
                    "time": 276.05673499999523,
                    "velocity": 0.5196850393700787,
                    "duration": 0.2733235000000036
                },
                {
                    "name": "G#3",
                    "midi": 56,
                    "time": 276.33005849999523,
                    "velocity": 0.4881889763779528,
                    "duration": 0.2733235000000036
                },
                {
                    "name": "F#3",
                    "midi": 54,
                    "time": 276.60338199999524,
                    "velocity": 0.48031496062992124,
                    "duration": 0.2733235000000036
                },
                {
                    "name": "F3",
                    "midi": 53,
                    "time": 276.87670549999524,
                    "velocity": 0.4881889763779528,
                    "duration": 0.2733235000000036
                },
                {
                    "name": "D#3",
                    "midi": 51,
                    "time": 277.15002899999524,
                    "velocity": 0.47244094488188976,
                    "duration": 0.2733235000000036
                },
                {
                    "name": "C#3",
                    "midi": 49,
                    "time": 277.42335249999525,
                    "velocity": 0.4566929133858268,
                    "duration": 0.2733235000000036
                },
                {
                    "name": "G#2",
                    "midi": 44,
                    "time": 277.69667599999525,
                    "velocity": 0.5511811023622047,
                    "duration": 0.5466470000000072
                },
                {
                    "name": "D#3",
                    "midi": 51,
                    "time": 278.78996999999526,
                    "velocity": 0.6771653543307087,
                    "duration": 1.6399410000000216
                },
                {
                    "name": "F#2",
                    "midi": 42,
                    "time": 278.78996999999526,
                    "velocity": 0.5905511811023622,
                    "duration": 1.6399410000000216
                },
                {
                    "name": "F#2",
                    "midi": 42,
                    "time": 280.4299109999953,
                    "velocity": 0.5118110236220472,
                    "duration": 0.5466470000000072
                },
                {
                    "name": "D#3",
                    "midi": 51,
                    "time": 280.4299109999953,
                    "velocity": 0.5826771653543307,
                    "duration": 0.5466470000000072
                },
                {
                    "name": "D#3",
                    "midi": 51,
                    "time": 280.9765579999953,
                    "velocity": 0.6299212598425197,
                    "duration": 0.5466470000000072
                },
                {
                    "name": "F#2",
                    "midi": 42,
                    "time": 280.9765579999953,
                    "velocity": 0.5511811023622047,
                    "duration": 0.5466470000000072
                },
                {
                    "name": "F2",
                    "midi": 41,
                    "time": 281.5232049999953,
                    "velocity": 0.5118110236220472,
                    "duration": 0.5466470000000072
                },
                {
                    "name": "C#3",
                    "midi": 49,
                    "time": 281.5232049999953,
                    "velocity": 0.5826771653543307,
                    "duration": 0.5466470000000072
                },
                {
                    "name": "D#2",
                    "midi": 39,
                    "time": 282.0698519999953,
                    "velocity": 0.5511811023622047,
                    "duration": 0.5466470000000072
                },
                {
                    "name": "C3",
                    "midi": 48,
                    "time": 282.0698519999953,
                    "velocity": 0.6299212598425197,
                    "duration": 0.5466470000000072
                },
                {
                    "name": "C#3",
                    "midi": 49,
                    "time": 282.6164989999953,
                    "velocity": 0.6062992125984252,
                    "duration": 0.5466470000000072
                },
                {
                    "name": "C#2",
                    "midi": 37,
                    "time": 282.6164989999953,
                    "velocity": 0.5275590551181102,
                    "duration": 0.5466470000000072
                },
                {
                    "name": "C3",
                    "midi": 48,
                    "time": 283.1631459999953,
                    "velocity": 0.5511811023622047,
                    "duration": 0.5466470000000072
                },
                {
                    "name": "D#3",
                    "midi": 51,
                    "time": 283.1631459999953,
                    "velocity": 0.6299212598425197,
                    "duration": 0.5466470000000072
                },
                {
                    "name": "F3",
                    "midi": 53,
                    "time": 283.70979299999533,
                    "velocity": 0.5669291338582677,
                    "duration": 0.5466470000000072
                },
                {
                    "name": "C#3",
                    "midi": 49,
                    "time": 283.70979299999533,
                    "velocity": 0.49606299212598426,
                    "duration": 0.5466470000000072
                },
                {
                    "name": "C#2",
                    "midi": 37,
                    "time": 287.5363219999953,
                    "velocity": 0.49606299212598426,
                    "duration": 0.5466470000000072
                },
                {
                    "name": "C#3",
                    "midi": 49,
                    "time": 287.5363219999953,
                    "velocity": 0.5669291338582677,
                    "duration": 0.5466470000000072
                },
                {
                    "name": "C2",
                    "midi": 36,
                    "time": 288.62961599999534,
                    "velocity": 0.5511811023622047,
                    "duration": 1.6399410000000216
                },
                {
                    "name": "C3",
                    "midi": 48,
                    "time": 288.62961599999534,
                    "velocity": 0.6299212598425197,
                    "duration": 1.6399410000000216
                },
                {
                    "name": "A#2",
                    "midi": 46,
                    "time": 290.26955699999536,
                    "velocity": 0.5748031496062992,
                    "duration": 0.5466470000000072
                },
                {
                    "name": "A#1",
                    "midi": 34,
                    "time": 290.26955699999536,
                    "velocity": 0.5039370078740157,
                    "duration": 0.5466470000000072
                },
                {
                    "name": "D#3",
                    "midi": 51,
                    "time": 290.81620399999537,
                    "velocity": 0.6377952755905512,
                    "duration": 1.0932940000000144
                },
                {
                    "name": "D#2",
                    "midi": 39,
                    "time": 290.81620399999537,
                    "velocity": 0.5590551181102362,
                    "duration": 1.0932940000000144
                },
                {
                    "name": "G2",
                    "midi": 43,
                    "time": 294.09608599999535,
                    "velocity": 0.49606299212598426,
                    "duration": 0.5466470000000072
                },
                {
                    "name": "G3",
                    "midi": 55,
                    "time": 294.09608599999535,
                    "velocity": 0.5669291338582677,
                    "duration": 0.5466470000000072
                },
                {
                    "name": "F2",
                    "midi": 41,
                    "time": 295.18937999999537,
                    "velocity": 0.5511811023622047,
                    "duration": 1.6399410000000216
                },
                {
                    "name": "F3",
                    "midi": 53,
                    "time": 295.18937999999537,
                    "velocity": 0.6299212598425197,
                    "duration": 1.6399410000000216
                },
                {
                    "name": "D#3",
                    "midi": 51,
                    "time": 296.8293209999954,
                    "velocity": 0.5669291338582677,
                    "duration": 0.5466470000000072
                },
                {
                    "name": "D#2",
                    "midi": 39,
                    "time": 296.8293209999954,
                    "velocity": 0.49606299212598426,
                    "duration": 0.5466470000000072
                },
                {
                    "name": "G#3",
                    "midi": 56,
                    "time": 297.3759679999954,
                    "velocity": 0.6299212598425197,
                    "duration": 1.0932940000000144
                },
                {
                    "name": "G#2",
                    "midi": 44,
                    "time": 297.3759679999954,
                    "velocity": 0.5511811023622047,
                    "duration": 1.0932940000000144
                },
                {
                    "name": "G3",
                    "midi": 55,
                    "time": 299.5625559999954,
                    "velocity": 0.5669291338582677,
                    "duration": 0.5466470000000072
                },
                {
                    "name": "G2",
                    "midi": 43,
                    "time": 299.5625559999954,
                    "velocity": 0.49606299212598426,
                    "duration": 0.5466470000000072
                },
                {
                    "name": "G2",
                    "midi": 43,
                    "time": 300.65584999999544,
                    "velocity": 0.5433070866141733,
                    "duration": 0.5466470000000072
                },
                {
                    "name": "G3",
                    "midi": 55,
                    "time": 300.65584999999544,
                    "velocity": 0.6220472440944882,
                    "duration": 0.5466470000000072
                },
                {
                    "name": "F2",
                    "midi": 41,
                    "time": 301.20249699999545,
                    "velocity": 0.5275590551181102,
                    "duration": 0.5466470000000072
                },
                {
                    "name": "F3",
                    "midi": 53,
                    "time": 301.20249699999545,
                    "velocity": 0.6062992125984252,
                    "duration": 0.5466470000000072
                },
                {
                    "name": "D#4",
                    "midi": 63,
                    "time": 302.84243799999547,
                    "velocity": 0.5354330708661418,
                    "duration": 0.5466470000000072
                },
                {
                    "name": "D#3",
                    "midi": 51,
                    "time": 302.84243799999547,
                    "velocity": 0.5354330708661418,
                    "duration": 0.5466470000000072
                },
                {
                    "name": "D#4",
                    "midi": 63,
                    "time": 303.9357319999955,
                    "velocity": 0.5354330708661418,
                    "duration": 0.5466470000000072
                },
                {
                    "name": "C#4",
                    "midi": 61,
                    "time": 304.4823789999955,
                    "velocity": 0.47244094488188976,
                    "duration": 0.5238700416666688
                },
                {
                    "name": "C#4",
                    "midi": 61,
                    "time": 305.0290259999955,
                    "velocity": 0.5354330708661418,
                    "duration": 0.5466470000000072
                },
                {
                    "name": "C4",
                    "midi": 60,
                    "time": 305.5756729999955,
                    "velocity": 0.4645669291338583,
                    "duration": 0.5466470000000072
                },
                {
                    "name": "C3",
                    "midi": 48,
                    "time": 306.6689669999955,
                    "velocity": 0.5196850393700787,
                    "duration": 0.2733235000000036
                },
                {
                    "name": "C4",
                    "midi": 60,
                    "time": 307.2156139999955,
                    "velocity": 0.5826771653543307,
                    "duration": 1.0932940000000144
                },
                {
                    "name": "G#2",
                    "midi": 44,
                    "time": 309.94884899999556,
                    "velocity": 0.5196850393700787,
                    "duration": 0.2733235000000036
                },
                {
                    "name": "G#3",
                    "midi": 56,
                    "time": 310.49549599999557,
                    "velocity": 0.5826771653543307,
                    "duration": 1.0932940000000144
                },
                {
                    "name": "F2",
                    "midi": 41,
                    "time": 313.2287309999956,
                    "velocity": 0.4645669291338583,
                    "duration": 0.2733235000000036
                },
                {
                    "name": "F3",
                    "midi": 53,
                    "time": 313.7753779999956,
                    "velocity": 0.5196850393700787,
                    "duration": 0.2733235000000036
                },
                {
                    "name": "A3",
                    "midi": 57,
                    "time": 314.3220249999956,
                    "velocity": 0.4566929133858268,
                    "duration": 0.2733235000000036
                },
                {
                    "name": "A#3",
                    "midi": 58,
                    "time": 314.8686719999956,
                    "velocity": 0.5354330708661418,
                    "duration": 0.5466470000000072
                },
                {
                    "name": "D4",
                    "midi": 62,
                    "time": 315.41531899999563,
                    "velocity": 0.44881889763779526,
                    "duration": 0.5466470000000072
                },
                {
                    "name": "D#4",
                    "midi": 63,
                    "time": 315.96196599999564,
                    "velocity": 0.4881889763779528,
                    "duration": 0.5466470000000072
                },
                {
                    "name": "A#3",
                    "midi": 58,
                    "time": 317.05525999999566,
                    "velocity": 0.5275590551181102,
                    "duration": 1.6353856083333085
                },
                {
                    "name": "C#4",
                    "midi": 61,
                    "time": 317.05525999999566,
                    "velocity": 0.5748031496062992,
                    "duration": 1.6353856083333085
                },
                {
                    "name": "C#4",
                    "midi": 61,
                    "time": 318.6952009999956,
                    "velocity": 0.5433070866141733,
                    "duration": 0.5420916083333509
                },
                {
                    "name": "A#3",
                    "midi": 58,
                    "time": 318.6952009999956,
                    "velocity": 0.49606299212598426,
                    "duration": 0.5420916083333509
                },
                {
                    "name": "A#3",
                    "midi": 58,
                    "time": 319.2418479999956,
                    "velocity": 0.5118110236220472,
                    "duration": 0.5466470000000072
                },
                {
                    "name": "C#4",
                    "midi": 61,
                    "time": 319.2418479999956,
                    "velocity": 0.5590551181102362,
                    "duration": 0.5466470000000072
                },
                {
                    "name": "C4",
                    "midi": 60,
                    "time": 319.78849499999563,
                    "velocity": 0.5354330708661418,
                    "duration": 0.5466470000000072
                },
                {
                    "name": "G#3",
                    "midi": 56,
                    "time": 319.78849499999563,
                    "velocity": 0.4881889763779528,
                    "duration": 0.5466470000000072
                },
                {
                    "name": "C#3",
                    "midi": 49,
                    "time": 320.33514199999564,
                    "velocity": 0.5039370078740157,
                    "duration": 0.5466470000000072
                },
                {
                    "name": "A#3",
                    "midi": 58,
                    "time": 320.33514199999564,
                    "velocity": 0.5511811023622047,
                    "duration": 0.5466470000000072
                },
                {
                    "name": "G#3",
                    "midi": 56,
                    "time": 320.88178899999565,
                    "velocity": 0.4881889763779528,
                    "duration": 0.5466470000000072
                },
                {
                    "name": "C3",
                    "midi": 48,
                    "time": 320.88178899999565,
                    "velocity": 0.44881889763779526,
                    "duration": 0.5466470000000072
                },
                {
                    "name": "G3",
                    "midi": 55,
                    "time": 321.42843599999566,
                    "velocity": 0.5669291338582677,
                    "duration": 0.5466470000000072
                },
                {
                    "name": "A#2",
                    "midi": 46,
                    "time": 321.42843599999566,
                    "velocity": 0.5196850393700787,
                    "duration": 0.5466470000000072
                },
                {
                    "name": "G#3",
                    "midi": 56,
                    "time": 321.97508299999566,
                    "velocity": 0.5354330708661418,
                    "duration": 0.5466470000000072
                },
                {
                    "name": "C3",
                    "midi": 48,
                    "time": 321.97508299999566,
                    "velocity": 0.4881889763779528,
                    "duration": 0.5466470000000072
                },
                {
                    "name": "G2",
                    "midi": 43,
                    "time": 322.52172999999567,
                    "velocity": 0.47244094488188976,
                    "duration": 0.32798819999999296
                },
                {
                    "name": "G#2",
                    "midi": 44,
                    "time": 322.7950534999957,
                    "velocity": 0.4330708661417323,
                    "duration": 0.32798819999999296
                },
                {
                    "name": "G2",
                    "midi": 43,
                    "time": 323.0683769999957,
                    "velocity": 0.4330708661417323,
                    "duration": 0.32798819999999296
                },
                {
                    "name": "F2",
                    "midi": 41,
                    "time": 323.3417004999957,
                    "velocity": 0.4330708661417323,
                    "duration": 0.32798819999999296
                },
                {
                    "name": "D#2",
                    "midi": 39,
                    "time": 323.6150239999957,
                    "velocity": 0.4330708661417323,
                    "duration": 0.32798819999999296
                },
                {
                    "name": "F2",
                    "midi": 41,
                    "time": 323.8883474999957,
                    "velocity": 0.4251968503937008,
                    "duration": 0.32798819999999296
                },
                {
                    "name": "G2",
                    "midi": 43,
                    "time": 324.1616709999957,
                    "velocity": 0.4409448818897638,
                    "duration": 0.32798819999999296
                },
                {
                    "name": "G#2",
                    "midi": 44,
                    "time": 324.4349944999957,
                    "velocity": 0.44881889763779526,
                    "duration": 0.2733235000000036
                },
                {
                    "name": "A2",
                    "midi": 45,
                    "time": 324.7083179999957,
                    "velocity": 0.4645669291338583,
                    "duration": 0.2733235000000036
                },
                {
                    "name": "A#2",
                    "midi": 46,
                    "time": 324.9816414999957,
                    "velocity": 0.48031496062992124,
                    "duration": 0.32798819999999296
                },
                {
                    "name": "C3",
                    "midi": 48,
                    "time": 325.2549649999957,
                    "velocity": 0.4881889763779528,
                    "duration": 0.32798819999999296
                },
                {
                    "name": "A#2",
                    "midi": 46,
                    "time": 325.5282884999957,
                    "velocity": 0.47244094488188976,
                    "duration": 0.32798819999999296
                },
                {
                    "name": "G2",
                    "midi": 43,
                    "time": 325.8016119999957,
                    "velocity": 0.4881889763779528,
                    "duration": 0.32798819999999296
                },
                {
                    "name": "G#2",
                    "midi": 44,
                    "time": 326.0749354999957,
                    "velocity": 0.44881889763779526,
                    "duration": 0.32798819999999296
                },
                {
                    "name": "A#2",
                    "midi": 46,
                    "time": 326.3482589999957,
                    "velocity": 0.48031496062992124,
                    "duration": 0.32798819999999296
                },
                {
                    "name": "C3",
                    "midi": 48,
                    "time": 326.6215824999957,
                    "velocity": 0.4881889763779528,
                    "duration": 0.32798819999999296
                },
                {
                    "name": "C#3",
                    "midi": 49,
                    "time": 326.89490599999573,
                    "velocity": 0.5039370078740157,
                    "duration": 0.32798819999999296
                },
                {
                    "name": "D#3",
                    "midi": 51,
                    "time": 327.16822949999573,
                    "velocity": 0.5118110236220472,
                    "duration": 0.32798819999999296
                },
                {
                    "name": "F3",
                    "midi": 53,
                    "time": 327.44155299999574,
                    "velocity": 0.5275590551181102,
                    "duration": 0.32798819999999296
                },
                {
                    "name": "D#3",
                    "midi": 51,
                    "time": 327.71487649999574,
                    "velocity": 0.49606299212598426,
                    "duration": 0.2733235000000036
                },
                {
                    "name": "C#3",
                    "midi": 49,
                    "time": 327.98819999999574,
                    "velocity": 0.5669291338582677,
                    "duration": 0.2733235000000036
                },
                {
                    "name": "C3",
                    "midi": 48,
                    "time": 328.26152349999575,
                    "velocity": 0.5590551181102362,
                    "duration": 0.2733235000000036
                },
                {
                    "name": "A#2",
                    "midi": 46,
                    "time": 328.53484699999575,
                    "velocity": 0.5433070866141733,
                    "duration": 0.2733235000000036
                },
                {
                    "name": "G#2",
                    "midi": 44,
                    "time": 328.80817049999575,
                    "velocity": 0.49606299212598426,
                    "duration": 0.2733235000000036
                },
                {
                    "name": "D#4",
                    "midi": 63,
                    "time": 329.08149399999576,
                    "velocity": 0.5590551181102362,
                    "duration": 0.5466470000000072
                },
                {
                    "name": "F#3",
                    "midi": 54,
                    "time": 329.08149399999576,
                    "velocity": 0.5118110236220472,
                    "duration": 0.5466470000000072
                },
                {
                    "name": "C#4",
                    "midi": 61,
                    "time": 329.62814099999576,
                    "velocity": 0.5354330708661418,
                    "duration": 0.5466470000000072
                },
                {
                    "name": "F3",
                    "midi": 53,
                    "time": 329.62814099999576,
                    "velocity": 0.4881889763779528,
                    "duration": 0.5466470000000072
                },
                {
                    "name": "D#3",
                    "midi": 51,
                    "time": 330.1747879999958,
                    "velocity": 0.5039370078740157,
                    "duration": 0.5466470000000072
                },
                {
                    "name": "C4",
                    "midi": 60,
                    "time": 330.1747879999958,
                    "velocity": 0.5511811023622047,
                    "duration": 0.5466470000000072
                },
                {
                    "name": "C#3",
                    "midi": 49,
                    "time": 330.7214349999958,
                    "velocity": 0.44881889763779526,
                    "duration": 0.5466470000000072
                },
                {
                    "name": "A#3",
                    "midi": 58,
                    "time": 330.7214349999958,
                    "velocity": 0.4881889763779528,
                    "duration": 0.5466470000000072
                },
                {
                    "name": "A3",
                    "midi": 57,
                    "time": 331.2680819999958,
                    "velocity": 0.5669291338582677,
                    "duration": 0.5466470000000072
                },
                {
                    "name": "C3",
                    "midi": 48,
                    "time": 331.2680819999958,
                    "velocity": 0.5196850393700787,
                    "duration": 0.5466470000000072
                },
                {
                    "name": "C#3",
                    "midi": 49,
                    "time": 331.8147289999958,
                    "velocity": 0.4881889763779528,
                    "duration": 0.5466470000000072
                },
                {
                    "name": "A#3",
                    "midi": 58,
                    "time": 331.8147289999958,
                    "velocity": 0.5354330708661418,
                    "duration": 0.5466470000000072
                },
                {
                    "name": "A2",
                    "midi": 45,
                    "time": 332.3613759999958,
                    "velocity": 0.4881889763779528,
                    "duration": 0.32798819999999296
                },
                {
                    "name": "A#2",
                    "midi": 46,
                    "time": 332.6346994999958,
                    "velocity": 0.44881889763779526,
                    "duration": 0.32798819999999296
                },
                {
                    "name": "C3",
                    "midi": 48,
                    "time": 332.9080229999958,
                    "velocity": 0.48031496062992124,
                    "duration": 0.32798819999999296
                },
                {
                    "name": "C#3",
                    "midi": 49,
                    "time": 333.1813464999958,
                    "velocity": 0.4881889763779528,
                    "duration": 0.32798819999999296
                },
                {
                    "name": "D#3",
                    "midi": 51,
                    "time": 333.4546699999958,
                    "velocity": 0.5039370078740157,
                    "duration": 0.32798819999999296
                },
                {
                    "name": "F3",
                    "midi": 53,
                    "time": 333.7279934999958,
                    "velocity": 0.5118110236220472,
                    "duration": 0.32798819999999296
                },
                {
                    "name": "F#3",
                    "midi": 54,
                    "time": 334.0013169999958,
                    "velocity": 0.5275590551181102,
                    "duration": 0.32798819999999296
                },
                {
                    "name": "F3",
                    "midi": 53,
                    "time": 334.2746404999958,
                    "velocity": 0.49606299212598426,
                    "duration": 0.2733235000000036
                },
                {
                    "name": "D#3",
                    "midi": 51,
                    "time": 334.54796399999583,
                    "velocity": 0.5669291338582677,
                    "duration": 0.2733235000000036
                },
                {
                    "name": "C#3",
                    "midi": 49,
                    "time": 334.82128749999583,
                    "velocity": 0.5590551181102362,
                    "duration": 0.2733235000000036
                },
                {
                    "name": "C3",
                    "midi": 48,
                    "time": 335.09461099999584,
                    "velocity": 0.5433070866141733,
                    "duration": 0.2733235000000036
                },
                {
                    "name": "A#2",
                    "midi": 46,
                    "time": 335.36793449999584,
                    "velocity": 0.49606299212598426,
                    "duration": 0.2733235000000036
                },
                {
                    "name": "G#2",
                    "midi": 44,
                    "time": 335.64125799999584,
                    "velocity": 0.5590551181102362,
                    "duration": 0.6013116999999966
                },
                {
                    "name": "G2",
                    "midi": 43,
                    "time": 336.18790499999585,
                    "velocity": 0.5354330708661418,
                    "duration": 0.6013116999999966
                },
                {
                    "name": "F2",
                    "midi": 41,
                    "time": 336.73455199999586,
                    "velocity": 0.5511811023622047,
                    "duration": 0.6013116999999966
                },
                {
                    "name": "D#2",
                    "midi": 39,
                    "time": 337.28119899999587,
                    "velocity": 0.4881889763779528,
                    "duration": 0.6013116999999966
                },
                {
                    "name": "D2",
                    "midi": 38,
                    "time": 337.8278459999959,
                    "velocity": 0.5669291338582677,
                    "duration": 0.6013116999999966
                },
                {
                    "name": "D#2",
                    "midi": 39,
                    "time": 338.3744929999959,
                    "velocity": 0.5354330708661418,
                    "duration": 0.5466470000000072
                },
                {
                    "name": "A#2",
                    "midi": 46,
                    "time": 338.9211399999959,
                    "velocity": 0.5590551181102362,
                    "duration": 0.6013116999999966
                },
                {
                    "name": "G#2",
                    "midi": 44,
                    "time": 339.4677869999959,
                    "velocity": 0.5354330708661418,
                    "duration": 0.6013116999999966
                },
                {
                    "name": "G2",
                    "midi": 43,
                    "time": 340.0144339999959,
                    "velocity": 0.5511811023622047,
                    "duration": 0.6013116999999966
                },
                {
                    "name": "F2",
                    "midi": 41,
                    "time": 340.5610809999959,
                    "velocity": 0.4881889763779528,
                    "duration": 0.6013116999999966
                },
                {
                    "name": "E2",
                    "midi": 40,
                    "time": 341.1077279999959,
                    "velocity": 0.5669291338582677,
                    "duration": 0.6013116999999966
                },
                {
                    "name": "F2",
                    "midi": 41,
                    "time": 341.6543749999959,
                    "velocity": 0.5354330708661418,
                    "duration": 0.5466470000000072
                },
                {
                    "name": "F3",
                    "midi": 53,
                    "time": 342.20102199999593,
                    "velocity": 0.4881889763779528,
                    "duration": 0.32798819999999296
                },
                {
                    "name": "F#3",
                    "midi": 54,
                    "time": 342.47434549999593,
                    "velocity": 0.44881889763779526,
                    "duration": 0.32798819999999296
                },
                {
                    "name": "G#3",
                    "midi": 56,
                    "time": 342.74766899999594,
                    "velocity": 0.48031496062992124,
                    "duration": 0.32798819999999296
                },
                {
                    "name": "A#3",
                    "midi": 58,
                    "time": 343.02099249999594,
                    "velocity": 0.4881889763779528,
                    "duration": 0.32798819999999296
                },
                {
                    "name": "B3",
                    "midi": 59,
                    "time": 343.29431599999594,
                    "velocity": 0.5039370078740157,
                    "duration": 0.32798819999999296
                },
                {
                    "name": "C#4",
                    "midi": 61,
                    "time": 343.56763949999595,
                    "velocity": 0.5118110236220472,
                    "duration": 0.32798819999999296
                },
                {
                    "name": "D#4",
                    "midi": 63,
                    "time": 343.84096299999595,
                    "velocity": 0.5275590551181102,
                    "duration": 0.32798819999999296
                },
                {
                    "name": "C#4",
                    "midi": 61,
                    "time": 344.11428649999596,
                    "velocity": 0.49606299212598426,
                    "duration": 0.32798819999999296
                },
                {
                    "name": "B3",
                    "midi": 59,
                    "time": 344.38760999999596,
                    "velocity": 0.5669291338582677,
                    "duration": 0.32798819999999296
                },
                {
                    "name": "A#3",
                    "midi": 58,
                    "time": 344.66093349999596,
                    "velocity": 0.5590551181102362,
                    "duration": 0.32798819999999296
                },
                {
                    "name": "G#3",
                    "midi": 56,
                    "time": 344.93425699999597,
                    "velocity": 0.5433070866141733,
                    "duration": 0.32798819999999296
                },
                {
                    "name": "F#3",
                    "midi": 54,
                    "time": 345.20758049999597,
                    "velocity": 0.49606299212598426,
                    "duration": 0.2733235000000036
                },
                {
                    "name": "G2",
                    "midi": 43,
                    "time": 345.480903999996,
                    "velocity": 0.4881889763779528,
                    "duration": 0.32798819999999296
                },
                {
                    "name": "G#2",
                    "midi": 44,
                    "time": 345.754227499996,
                    "velocity": 0.44881889763779526,
                    "duration": 0.32798819999999296
                },
                {
                    "name": "A#2",
                    "midi": 46,
                    "time": 346.027550999996,
                    "velocity": 0.48031496062992124,
                    "duration": 0.32798819999999296
                },
                {
                    "name": "B2",
                    "midi": 47,
                    "time": 346.300874499996,
                    "velocity": 0.4881889763779528,
                    "duration": 0.32798819999999296
                },
                {
                    "name": "C#3",
                    "midi": 49,
                    "time": 346.574197999996,
                    "velocity": 0.5039370078740157,
                    "duration": 0.32798819999999296
                },
                {
                    "name": "D#3",
                    "midi": 51,
                    "time": 346.847521499996,
                    "velocity": 0.5118110236220472,
                    "duration": 0.32798819999999296
                },
                {
                    "name": "E3",
                    "midi": 52,
                    "time": 347.120844999996,
                    "velocity": 0.5275590551181102,
                    "duration": 0.32798819999999296
                },
                {
                    "name": "D#3",
                    "midi": 51,
                    "time": 347.394168499996,
                    "velocity": 0.49606299212598426,
                    "duration": 0.32798819999999296
                },
                {
                    "name": "C#3",
                    "midi": 49,
                    "time": 347.667491999996,
                    "velocity": 0.5669291338582677,
                    "duration": 0.32798819999999296
                },
                {
                    "name": "B2",
                    "midi": 47,
                    "time": 347.940815499996,
                    "velocity": 0.5590551181102362,
                    "duration": 0.32798819999999296
                },
                {
                    "name": "A#2",
                    "midi": 46,
                    "time": 348.214138999996,
                    "velocity": 0.5433070866141733,
                    "duration": 0.32798819999999296
                },
                {
                    "name": "G#2",
                    "midi": 44,
                    "time": 348.487462499996,
                    "velocity": 0.49606299212598426,
                    "duration": 0.32798819999999296
                },
                {
                    "name": "F#2",
                    "midi": 42,
                    "time": 348.760785999996,
                    "velocity": 0.49606299212598426,
                    "duration": 0.32798819999999296
                },
                {
                    "name": "E2",
                    "midi": 40,
                    "time": 349.034109499996,
                    "velocity": 0.49606299212598426,
                    "duration": 0.32798819999999296
                },
                {
                    "name": "D#2",
                    "midi": 39,
                    "time": 349.307432999996,
                    "velocity": 0.49606299212598426,
                    "duration": 0.32798819999999296
                },
                {
                    "name": "D2",
                    "midi": 38,
                    "time": 349.580756499996,
                    "velocity": 0.49606299212598426,
                    "duration": 0.2733235000000036
                },
                {
                    "name": "D#2",
                    "midi": 39,
                    "time": 349.85407999999603,
                    "velocity": 0.49606299212598426,
                    "duration": 0.2733235000000036
                },
                {
                    "name": "G2",
                    "midi": 43,
                    "time": 350.12740349999603,
                    "velocity": 0.49606299212598426,
                    "duration": 0.2733235000000036
                },
                {
                    "name": "A#2",
                    "midi": 46,
                    "time": 350.40072699999604,
                    "velocity": 0.49606299212598426,
                    "duration": 0.2733235000000036
                },
                {
                    "name": "D#3",
                    "midi": 51,
                    "time": 350.67405049999604,
                    "velocity": 0.49606299212598426,
                    "duration": 0.2733235000000036
                },
                {
                    "name": "G2",
                    "midi": 43,
                    "time": 350.94737399999605,
                    "velocity": 0.47244094488188976,
                    "duration": 2.1865879999997446
                },
                {
                    "name": "G3",
                    "midi": 55,
                    "time": 350.94737399999605,
                    "velocity": 0.6614173228346457,
                    "duration": 0.18221566666665012
                },
                {
                    "name": "G#3",
                    "midi": 56,
                    "time": 351.1295896666627,
                    "velocity": 0.5511811023622047,
                    "duration": 0.18221566666665012
                },
                {
                    "name": "G3",
                    "midi": 55,
                    "time": 351.31180533332935,
                    "velocity": 0.5826771653543307,
                    "duration": 0.18221566666665012
                },
                {
                    "name": "G#3",
                    "midi": 56,
                    "time": 351.494020999996,
                    "velocity": 0.5275590551181102,
                    "duration": 0.18221566666665012
                },
                {
                    "name": "G3",
                    "midi": 55,
                    "time": 351.67623666666265,
                    "velocity": 0.5748031496062992,
                    "duration": 0.18221566666665012
                },
                {
                    "name": "G#3",
                    "midi": 56,
                    "time": 351.8584523333293,
                    "velocity": 0.5039370078740157,
                    "duration": 0.18221566666665012
                },
                {
                    "name": "G3",
                    "midi": 55,
                    "time": 352.04066799999595,
                    "velocity": 0.5669291338582677,
                    "duration": 0.18221566666665012
                },
                {
                    "name": "G#3",
                    "midi": 56,
                    "time": 352.2228836666626,
                    "velocity": 0.5039370078740157,
                    "duration": 0.18221566666665012
                },
                {
                    "name": "G3",
                    "midi": 55,
                    "time": 352.40509933332925,
                    "velocity": 0.5511811023622047,
                    "duration": 0.18221566666665012
                },
                {
                    "name": "G#3",
                    "midi": 56,
                    "time": 352.5873149999959,
                    "velocity": 0.5039370078740157,
                    "duration": 0.13666174999997338
                },
                {
                    "name": "G3",
                    "midi": 55,
                    "time": 352.72397674999587,
                    "velocity": 0.5905511811023622,
                    "duration": 0.13666174999997338
                },
                {
                    "name": "F3",
                    "midi": 53,
                    "time": 352.86063849999584,
                    "velocity": 0.5118110236220472,
                    "duration": 0.13666174999997338
                },
                {
                    "name": "G3",
                    "midi": 55,
                    "time": 352.9973002499958,
                    "velocity": 0.5511811023622047,
                    "duration": 0.13666174999997338
                },
                {
                    "name": "G#2",
                    "midi": 44,
                    "time": 353.1339619999958,
                    "velocity": 0.5905511811023622,
                    "duration": 2.186587999999972
                },
                {
                    "name": "G#3",
                    "midi": 56,
                    "time": 353.1339619999958,
                    "velocity": 0.6535433070866141,
                    "duration": 2.186587999999972
                },
                {
                    "name": "D#3",
                    "midi": 51,
                    "time": 355.32054999999576,
                    "velocity": 0.5511811023622047,
                    "duration": 1.0932940000000144
                },
                {
                    "name": "D#2",
                    "midi": 39,
                    "time": 355.32054999999576,
                    "velocity": 0.4645669291338583,
                    "duration": 1.0932940000000144
                },
                {
                    "name": "C#2",
                    "midi": 37,
                    "time": 356.4138439999958,
                    "velocity": 0.4645669291338583,
                    "duration": 1.0932940000000144
                },
                {
                    "name": "C#3",
                    "midi": 49,
                    "time": 356.4138439999958,
                    "velocity": 0.5511811023622047,
                    "duration": 1.0932940000000144
                },
                {
                    "name": "F2",
                    "midi": 41,
                    "time": 357.5071379999958,
                    "velocity": 0.47244094488188976,
                    "duration": 2.1865879999997446
                },
                {
                    "name": "F3",
                    "midi": 53,
                    "time": 357.5071379999958,
                    "velocity": 0.6614173228346457,
                    "duration": 0.18221566666665012
                },
                {
                    "name": "F#3",
                    "midi": 54,
                    "time": 357.68935366666244,
                    "velocity": 0.5511811023622047,
                    "duration": 0.18221566666665012
                },
                {
                    "name": "F3",
                    "midi": 53,
                    "time": 357.8715693333291,
                    "velocity": 0.5826771653543307,
                    "duration": 0.18221566666665012
                },
                {
                    "name": "F#3",
                    "midi": 54,
                    "time": 358.05378499999574,
                    "velocity": 0.5275590551181102,
                    "duration": 0.18221566666665012
                },
                {
                    "name": "F3",
                    "midi": 53,
                    "time": 358.2360006666624,
                    "velocity": 0.5748031496062992,
                    "duration": 0.18221566666665012
                },
                {
                    "name": "F#3",
                    "midi": 54,
                    "time": 358.41821633332904,
                    "velocity": 0.5039370078740157,
                    "duration": 0.18221566666665012
                },
                {
                    "name": "F3",
                    "midi": 53,
                    "time": 358.6004319999957,
                    "velocity": 0.5669291338582677,
                    "duration": 0.18221566666665012
                },
                {
                    "name": "F#3",
                    "midi": 54,
                    "time": 358.78264766666234,
                    "velocity": 0.5039370078740157,
                    "duration": 0.18221566666665012
                },
                {
                    "name": "F3",
                    "midi": 53,
                    "time": 358.964863333329,
                    "velocity": 0.5511811023622047,
                    "duration": 0.18221566666665012
                },
                {
                    "name": "F#3",
                    "midi": 54,
                    "time": 359.14707899999564,
                    "velocity": 0.5039370078740157,
                    "duration": 0.13666174999997338
                },
                {
                    "name": "F3",
                    "midi": 53,
                    "time": 359.2837407499956,
                    "velocity": 0.5905511811023622,
                    "duration": 0.13666174999997338
                },
                {
                    "name": "D#3",
                    "midi": 51,
                    "time": 359.4204024999956,
                    "velocity": 0.5118110236220472,
                    "duration": 0.13666174999997338
                },
                {
                    "name": "F3",
                    "midi": 53,
                    "time": 359.55706424999556,
                    "velocity": 0.5511811023622047,
                    "duration": 0.13666174999997338
                },
                {
                    "name": "F#3",
                    "midi": 54,
                    "time": 359.69372599999554,
                    "velocity": 0.6535433070866141,
                    "duration": 1.0932940000000144
                },
                {
                    "name": "F#2",
                    "midi": 42,
                    "time": 359.69372599999554,
                    "velocity": 0.5905511811023622,
                    "duration": 1.0932940000000144
                },
                {
                    "name": "C#2",
                    "midi": 37,
                    "time": 360.78701999999555,
                    "velocity": 0.4645669291338583,
                    "duration": 1.0932940000000144
                },
                {
                    "name": "C#3",
                    "midi": 49,
                    "time": 360.78701999999555,
                    "velocity": 0.5511811023622047,
                    "duration": 1.0932940000000144
                },
                {
                    "name": "D#2",
                    "midi": 39,
                    "time": 361.88031399999556,
                    "velocity": 0.3700787401574803,
                    "duration": 1.0932940000000144
                },
                {
                    "name": "D#3",
                    "midi": 51,
                    "time": 361.88031399999556,
                    "velocity": 0.4409448818897638,
                    "duration": 1.0932940000000144
                },
                {
                    "name": "B2",
                    "midi": 47,
                    "time": 362.9736079999956,
                    "velocity": 0.4409448818897638,
                    "duration": 1.6399410000000216
                },
                {
                    "name": "B1",
                    "midi": 35,
                    "time": 362.9736079999956,
                    "velocity": 0.3700787401574803,
                    "duration": 1.6399410000000216
                },
                {
                    "name": "A#2",
                    "midi": 46,
                    "time": 364.6135489999956,
                    "velocity": 0.3543307086614173,
                    "duration": 0.5466470000000072
                },
                {
                    "name": "A#1",
                    "midi": 34,
                    "time": 364.6135489999956,
                    "velocity": 0.2992125984251969,
                    "duration": 0.5466470000000072
                },
                {
                    "name": "G#2",
                    "midi": 44,
                    "time": 365.1601959999956,
                    "velocity": 0.3543307086614173,
                    "duration": 0.5466470000000072
                },
                {
                    "name": "G#1",
                    "midi": 32,
                    "time": 365.1601959999956,
                    "velocity": 0.2992125984251969,
                    "duration": 0.5466470000000072
                },
                {
                    "name": "A#2",
                    "midi": 46,
                    "time": 365.7068429999956,
                    "velocity": 0.3543307086614173,
                    "duration": 0.5466470000000072
                },
                {
                    "name": "A#1",
                    "midi": 34,
                    "time": 365.7068429999956,
                    "velocity": 0.2992125984251969,
                    "duration": 0.5466470000000072
                },
                {
                    "name": "B1",
                    "midi": 35,
                    "time": 366.2534899999956,
                    "velocity": 0.2992125984251969,
                    "duration": 0.5466470000000072
                },
                {
                    "name": "B2",
                    "midi": 47,
                    "time": 366.2534899999956,
                    "velocity": 0.3543307086614173,
                    "duration": 0.5466470000000072
                },
                {
                    "name": "C#3",
                    "midi": 49,
                    "time": 366.80013699999563,
                    "velocity": 0.3543307086614173,
                    "duration": 0.5466470000000072
                },
                {
                    "name": "C#2",
                    "midi": 37,
                    "time": 366.80013699999563,
                    "velocity": 0.2992125984251969,
                    "duration": 0.5466470000000072
                },
                {
                    "name": "F#1",
                    "midi": 30,
                    "time": 367.34678399999564,
                    "velocity": 0.30708661417322836,
                    "duration": 1.0932940000000144
                },
                {
                    "name": "F#2",
                    "midi": 42,
                    "time": 367.34678399999564,
                    "velocity": 0.30708661417322836,
                    "duration": 1.0932940000000144
                },
                {
                    "name": "C#3",
                    "midi": 49,
                    "time": 369.80669549999567,
                    "velocity": 0.2755905511811024,
                    "duration": 0.2733235000000036
                },
                {
                    "name": "D#3",
                    "midi": 51,
                    "time": 370.0800189999957,
                    "velocity": 0.2755905511811024,
                    "duration": 0.2733235000000036
                },
                {
                    "name": "F3",
                    "midi": 53,
                    "time": 370.3533424999957,
                    "velocity": 0.2755905511811024,
                    "duration": 0.2733235000000036
                },
                {
                    "name": "F#3",
                    "midi": 54,
                    "time": 370.6266659999957,
                    "velocity": 0.31496062992125984,
                    "duration": 0.2733235000000036
                },
                {
                    "name": "A#2",
                    "midi": 46,
                    "time": 370.8999894999957,
                    "velocity": 0.2755905511811024,
                    "duration": 0.2733235000000036
                },
                {
                    "name": "C#3",
                    "midi": 49,
                    "time": 371.1733129999957,
                    "velocity": 0.2755905511811024,
                    "duration": 0.2733235000000036
                },
                {
                    "name": "F#3",
                    "midi": 54,
                    "time": 371.4466364999957,
                    "velocity": 0.2755905511811024,
                    "duration": 0.2733235000000036
                },
                {
                    "name": "A#3",
                    "midi": 58,
                    "time": 371.7199599999957,
                    "velocity": 0.4015748031496063,
                    "duration": 0.2733235000000036
                },
                {
                    "name": "B3",
                    "midi": 59,
                    "time": 372.2666069999957,
                    "velocity": 0.4251968503937008,
                    "duration": 0.2733235000000036
                },
                {
                    "name": "C#4",
                    "midi": 61,
                    "time": 372.8132539999957,
                    "velocity": 0.4409448818897638,
                    "duration": 1.0932940000000144
                },
                {
                    "name": "G#3",
                    "midi": 56,
                    "time": 376.3664594999957,
                    "velocity": 0.3464566929133858,
                    "duration": 0.2733235000000036
                },
                {
                    "name": "A#3",
                    "midi": 58,
                    "time": 376.6397829999957,
                    "velocity": 0.36220472440944884,
                    "duration": 0.2733235000000036
                },
                {
                    "name": "C4",
                    "midi": 60,
                    "time": 376.9131064999957,
                    "velocity": 0.3779527559055118,
                    "duration": 0.2733235000000036
                },
                {
                    "name": "C#4",
                    "midi": 61,
                    "time": 377.1864299999957,
                    "velocity": 0.3937007874015748,
                    "duration": 0.2733235000000036
                },
                {
                    "name": "F3",
                    "midi": 53,
                    "time": 377.4597534999957,
                    "velocity": 0.33858267716535434,
                    "duration": 0.2733235000000036
                },
                {
                    "name": "G#3",
                    "midi": 56,
                    "time": 377.7330769999957,
                    "velocity": 0.3543307086614173,
                    "duration": 0.2733235000000036
                },
                {
                    "name": "C#4",
                    "midi": 61,
                    "time": 378.0064004999957,
                    "velocity": 0.3543307086614173,
                    "duration": 0.2733235000000036
                },
                {
                    "name": "F3",
                    "midi": 53,
                    "time": 378.2797239999957,
                    "velocity": 0.5748031496062992,
                    "duration": 0.2733235000000036
                },
                {
                    "name": "F#3",
                    "midi": 54,
                    "time": 378.82637099999573,
                    "velocity": 0.5905511811023622,
                    "duration": 0.2733235000000036
                },
                {
                    "name": "G#3",
                    "midi": 56,
                    "time": 379.37301799999574,
                    "velocity": 0.6141732283464567,
                    "duration": 1.366617500000018
                },
                {
                    "name": "F4",
                    "midi": 65,
                    "time": 380.73963549999576,
                    "velocity": 0.4409448818897638,
                    "duration": 0.2733235000000036
                },
                {
                    "name": "D#4",
                    "midi": 63,
                    "time": 381.01295899999576,
                    "velocity": 0.4409448818897638,
                    "duration": 0.2733235000000036
                },
                {
                    "name": "C#4",
                    "midi": 61,
                    "time": 381.28628249999576,
                    "velocity": 0.4409448818897638,
                    "duration": 0.2733235000000036
                },
                {
                    "name": "C4",
                    "midi": 60,
                    "time": 381.55960599999577,
                    "velocity": 0.4409448818897638,
                    "duration": 0.2733235000000036
                },
                {
                    "name": "A#3",
                    "midi": 58,
                    "time": 381.83292949999577,
                    "velocity": 0.4409448818897638,
                    "duration": 0.2733235000000036
                },
                {
                    "name": "G#3",
                    "midi": 56,
                    "time": 382.1062529999958,
                    "velocity": 0.4409448818897638,
                    "duration": 0.2733235000000036
                },
                {
                    "name": "F#3",
                    "midi": 54,
                    "time": 382.3795764999958,
                    "velocity": 0.4409448818897638,
                    "duration": 0.2733235000000036
                },
                {
                    "name": "F3",
                    "midi": 53,
                    "time": 382.6528999999958,
                    "velocity": 0.4409448818897638,
                    "duration": 0.5466470000000072
                },
                {
                    "name": "G#3",
                    "midi": 56,
                    "time": 383.1995469999958,
                    "velocity": 0.4409448818897638,
                    "duration": 0.5466470000000072
                },
                {
                    "name": "F#3",
                    "midi": 54,
                    "time": 383.7461939999958,
                    "velocity": 0.4409448818897638,
                    "duration": 0.2619350208333344
                },
                {
                    "name": "F#3",
                    "midi": 54,
                    "time": 384.0195174999958,
                    "velocity": 0.4409448818897638,
                    "duration": 0.2733235000000036
                },
                {
                    "name": "A#3",
                    "midi": 58,
                    "time": 384.2928409999958,
                    "velocity": 0.4409448818897638,
                    "duration": 0.2733235000000036
                },
                {
                    "name": "D#4",
                    "midi": 63,
                    "time": 384.5661644999958,
                    "velocity": 0.4409448818897638,
                    "duration": 0.2733235000000036
                },
                {
                    "name": "D4",
                    "midi": 62,
                    "time": 386.20610549999583,
                    "velocity": 0.4409448818897638,
                    "duration": 0.2733235000000036
                },
                {
                    "name": "D#4",
                    "midi": 63,
                    "time": 386.47942899999583,
                    "velocity": 0.4409448818897638,
                    "duration": 0.2733235000000036
                },
                {
                    "name": "F4",
                    "midi": 65,
                    "time": 386.75275249999584,
                    "velocity": 0.4409448818897638,
                    "duration": 0.2733235000000036
                },
                {
                    "name": "D#4",
                    "midi": 63,
                    "time": 387.02607599999584,
                    "velocity": 0.4409448818897638,
                    "duration": 0.2733235000000036
                },
                {
                    "name": "F#3",
                    "midi": 54,
                    "time": 387.29939949999584,
                    "velocity": 0.4409448818897638,
                    "duration": 0.2733235000000036
                },
                {
                    "name": "A#3",
                    "midi": 58,
                    "time": 387.57272299999585,
                    "velocity": 0.4409448818897638,
                    "duration": 0.2733235000000036
                },
                {
                    "name": "D#3",
                    "midi": 51,
                    "time": 387.84604649999585,
                    "velocity": 0.4409448818897638,
                    "duration": 0.2733235000000036
                },
                {
                    "name": "F#3",
                    "midi": 54,
                    "time": 388.11936999999585,
                    "velocity": 0.5039370078740157,
                    "duration": 0.2733235000000036
                },
                {
                    "name": "G#3",
                    "midi": 56,
                    "time": 388.66601699999586,
                    "velocity": 0.5039370078740157,
                    "duration": 0.2733235000000036
                },
                {
                    "name": "A#3",
                    "midi": 58,
                    "time": 389.21266399999587,
                    "velocity": 0.5039370078740157,
                    "duration": 1.366617500000018
                },
                {
                    "name": "F#3",
                    "midi": 54,
                    "time": 390.5792814999959,
                    "velocity": 0.4409448818897638,
                    "duration": 0.2733235000000036
                },
                {
                    "name": "F3",
                    "midi": 53,
                    "time": 390.8526049999959,
                    "velocity": 0.4409448818897638,
                    "duration": 0.2733235000000036
                },
                {
                    "name": "D#3",
                    "midi": 51,
                    "time": 391.1259284999959,
                    "velocity": 0.4409448818897638,
                    "duration": 0.2733235000000036
                },
                {
                    "name": "D3",
                    "midi": 50,
                    "time": 391.3992519999959,
                    "velocity": 0.4409448818897638,
                    "duration": 0.2733235000000036
                },
                {
                    "name": "B2",
                    "midi": 47,
                    "time": 391.6725754999959,
                    "velocity": 0.4409448818897638,
                    "duration": 0.2733235000000036
                },
                {
                    "name": "A#2",
                    "midi": 46,
                    "time": 391.9458989999959,
                    "velocity": 0.4409448818897638,
                    "duration": 0.2733235000000036
                },
                {
                    "name": "G#2",
                    "midi": 44,
                    "time": 392.2192224999959,
                    "velocity": 0.4409448818897638,
                    "duration": 0.2733235000000036
                },
                {
                    "name": "G2",
                    "midi": 43,
                    "time": 392.4925459999959,
                    "velocity": 0.5039370078740157,
                    "duration": 0.2733235000000036
                },
                {
                    "name": "G#2",
                    "midi": 44,
                    "time": 393.0391929999959,
                    "velocity": 0.5039370078740157,
                    "duration": 0.2733235000000036
                },
                {
                    "name": "A#2",
                    "midi": 46,
                    "time": 393.5858399999959,
                    "velocity": 0.5433070866141733,
                    "duration": 0.2733235000000036
                },
                {
                    "name": "B2",
                    "midi": 47,
                    "time": 394.13248699999593,
                    "velocity": 0.5826771653543307,
                    "duration": 0.2733235000000036
                },
                {
                    "name": "B3",
                    "midi": 59,
                    "time": 394.67913399999594,
                    "velocity": 0.6062992125984252,
                    "duration": 1.366617500000018
                },
                {
                    "name": "G#3",
                    "midi": 56,
                    "time": 396.04575149999596,
                    "velocity": 0.4409448818897638,
                    "duration": 0.2733235000000036
                },
                {
                    "name": "F#3",
                    "midi": 54,
                    "time": 396.31907499999596,
                    "velocity": 0.4409448818897638,
                    "duration": 0.2733235000000036
                },
                {
                    "name": "F3",
                    "midi": 53,
                    "time": 396.59239849999597,
                    "velocity": 0.4409448818897638,
                    "duration": 0.2733235000000036
                },
                {
                    "name": "D#3",
                    "midi": 51,
                    "time": 396.86572199999597,
                    "velocity": 0.4409448818897638,
                    "duration": 1.0932940000000144
                },
                {
                    "name": "A#3",
                    "midi": 58,
                    "time": 396.86572199999597,
                    "velocity": 0.4409448818897638,
                    "duration": 2.186588000000029
                },
                {
                    "name": "D3",
                    "midi": 50,
                    "time": 397.959015999996,
                    "velocity": 0.4409448818897638,
                    "duration": 1.0932940000000144
                },
                {
                    "name": "C#5",
                    "midi": 73,
                    "time": 399.052309999996,
                    "velocity": 0.3937007874015748,
                    "duration": 0.18221566666665012
                },
                {
                    "name": "D#5",
                    "midi": 75,
                    "time": 399.23452566666265,
                    "velocity": 0.3464566929133858,
                    "duration": 0.18221566666665012
                },
                {
                    "name": "C#5",
                    "midi": 73,
                    "time": 399.4167413333293,
                    "velocity": 0.3937007874015748,
                    "duration": 0.18221566666665012
                },
                {
                    "name": "D#5",
                    "midi": 75,
                    "time": 399.59895699999595,
                    "velocity": 0.36220472440944884,
                    "duration": 0.18221566666665012
                },
                {
                    "name": "C#5",
                    "midi": 73,
                    "time": 399.7811726666626,
                    "velocity": 0.4094488188976378,
                    "duration": 0.18221566666665012
                },
                {
                    "name": "D#5",
                    "midi": 75,
                    "time": 399.96338833332925,
                    "velocity": 0.3700787401574803,
                    "duration": 0.18221566666665012
                },
                {
                    "name": "C#5",
                    "midi": 73,
                    "time": 400.1456039999959,
                    "velocity": 0.41732283464566927,
                    "duration": 0.18221566666665012
                },
                {
                    "name": "D#5",
                    "midi": 75,
                    "time": 400.32781966666255,
                    "velocity": 0.3543307086614173,
                    "duration": 0.18221566666665012
                },
                {
                    "name": "C#5",
                    "midi": 73,
                    "time": 400.5100353333292,
                    "velocity": 0.41732283464566927,
                    "duration": 0.18221566666665012
                },
                {
                    "name": "D#5",
                    "midi": 75,
                    "time": 400.69225099999585,
                    "velocity": 0.3700787401574803,
                    "duration": 0.18221566666665012
                },
                {
                    "name": "C#5",
                    "midi": 73,
                    "time": 400.8744666666625,
                    "velocity": 0.4251968503937008,
                    "duration": 0.18221566666665012
                },
                {
                    "name": "D#5",
                    "midi": 75,
                    "time": 401.05668233332915,
                    "velocity": 0.3858267716535433,
                    "duration": 0.18221566666665012
                },
                {
                    "name": "C#5",
                    "midi": 73,
                    "time": 401.2388979999958,
                    "velocity": 0.4409448818897638,
                    "duration": 0.18221566666665012
                },
                {
                    "name": "D#5",
                    "midi": 75,
                    "time": 401.42111366666245,
                    "velocity": 0.3858267716535433,
                    "duration": 0.18221566666665012
                },
                {
                    "name": "C#5",
                    "midi": 73,
                    "time": 401.6033293333291,
                    "velocity": 0.4409448818897638,
                    "duration": 0.18221566666665012
                },
                {
                    "name": "D#5",
                    "midi": 75,
                    "time": 401.78554499999575,
                    "velocity": 0.4015748031496063,
                    "duration": 0.18221566666665012
                },
                {
                    "name": "C#5",
                    "midi": 73,
                    "time": 401.9677606666624,
                    "velocity": 0.4409448818897638,
                    "duration": 0.18221566666665012
                },
                {
                    "name": "D#5",
                    "midi": 75,
                    "time": 402.14997633332905,
                    "velocity": 0.3937007874015748,
                    "duration": 0.18221566666665012
                },
                {
                    "name": "C#5",
                    "midi": 73,
                    "time": 402.3321919999957,
                    "velocity": 0.4409448818897638,
                    "duration": 0.18221566666665012
                },
                {
                    "name": "D#5",
                    "midi": 75,
                    "time": 402.51440766666235,
                    "velocity": 0.3937007874015748,
                    "duration": 0.18221566666665012
                },
                {
                    "name": "C#5",
                    "midi": 73,
                    "time": 402.696623333329,
                    "velocity": 0.4409448818897638,
                    "duration": 0.18221566666665012
                },
                {
                    "name": "D#5",
                    "midi": 75,
                    "time": 402.87883899999565,
                    "velocity": 0.4015748031496063,
                    "duration": 0.13666174999997338
                },
                {
                    "name": "C#5",
                    "midi": 73,
                    "time": 403.0155007499956,
                    "velocity": 0.4409448818897638,
                    "duration": 0.13666174999997338
                },
                {
                    "name": "B4",
                    "midi": 71,
                    "time": 403.1521624999956,
                    "velocity": 0.3779527559055118,
                    "duration": 0.13666174999997338
                },
                {
                    "name": "C#5",
                    "midi": 73,
                    "time": 403.28882424999557,
                    "velocity": 0.3779527559055118,
                    "duration": 0.13666174999997338
                },
                {
                    "name": "D#5",
                    "midi": 75,
                    "time": 403.42548599999554,
                    "velocity": 0.48031496062992124,
                    "duration": 2.186588000000029
                },
                {
                    "name": "B2",
                    "midi": 47,
                    "time": 404.51877999999556,
                    "velocity": 0.6850393700787402,
                    "duration": 0.2733235000000036
                },
                {
                    "name": "B3",
                    "midi": 59,
                    "time": 405.6120739999956,
                    "velocity": 0.7559055118110236,
                    "duration": 2.186587999999972
                },
                {
                    "name": "G#2",
                    "midi": 44,
                    "time": 411.07854399999553,
                    "velocity": 0.6850393700787402,
                    "duration": 0.2733235000000036
                },
                {
                    "name": "G#3",
                    "midi": 56,
                    "time": 412.17183799999555,
                    "velocity": 0.7559055118110236,
                    "duration": 2.186587999999972
                },
                {
                    "name": "F2",
                    "midi": 41,
                    "time": 417.6383079999955,
                    "velocity": 0.6850393700787402,
                    "duration": 0.2733235000000036
                },
                {
                    "name": "F3",
                    "midi": 53,
                    "time": 418.7316019999955,
                    "velocity": 0.7559055118110236,
                    "duration": 2.186587999999972
                },
                {
                    "name": "F3",
                    "midi": 53,
                    "time": 423.10477799999546,
                    "velocity": 0.5275590551181102,
                    "duration": 0.2733235000000036
                },
                {
                    "name": "D4",
                    "midi": 62,
                    "time": 423.10477799999546,
                    "velocity": 0.6220472440944882,
                    "duration": 0.2733235000000036
                },
                {
                    "name": "D#4",
                    "midi": 63,
                    "time": 423.65142499999547,
                    "velocity": 0.5590551181102362,
                    "duration": 0.2733235000000036
                },
                {
                    "name": "F#3",
                    "midi": 54,
                    "time": 423.65142499999547,
                    "velocity": 0.47244094488188976,
                    "duration": 0.2733235000000036
                },
                {
                    "name": "F3",
                    "midi": 53,
                    "time": 424.1980719999955,
                    "velocity": 0.5196850393700787,
                    "duration": 0.2733235000000036
                },
                {
                    "name": "D4",
                    "midi": 62,
                    "time": 424.1980719999955,
                    "velocity": 0.6141732283464567,
                    "duration": 0.2733235000000036
                },
                {
                    "name": "D#3",
                    "midi": 51,
                    "time": 424.7447189999955,
                    "velocity": 0.47244094488188976,
                    "duration": 0.2733235000000036
                },
                {
                    "name": "C4",
                    "midi": 60,
                    "time": 424.7447189999955,
                    "velocity": 0.5590551181102362,
                    "duration": 0.2733235000000036
                },
                {
                    "name": "D3",
                    "midi": 50,
                    "time": 425.2913659999955,
                    "velocity": 0.5275590551181102,
                    "duration": 0.2733235000000036
                },
                {
                    "name": "A#3",
                    "midi": 58,
                    "time": 425.2913659999955,
                    "velocity": 0.6220472440944882,
                    "duration": 0.2733235000000036
                },
                {
                    "name": "D#3",
                    "midi": 51,
                    "time": 425.8380129999955,
                    "velocity": 0.47244094488188976,
                    "duration": 0.2733235000000036
                },
                {
                    "name": "C4",
                    "midi": 60,
                    "time": 425.8380129999955,
                    "velocity": 0.5590551181102362,
                    "duration": 0.2733235000000036
                },
                {
                    "name": "F3",
                    "midi": 53,
                    "time": 426.3846599999955,
                    "velocity": 0.5275590551181102,
                    "duration": 0.2733235000000036
                },
                {
                    "name": "D4",
                    "midi": 62,
                    "time": 426.3846599999955,
                    "velocity": 0.6220472440944882,
                    "duration": 0.2733235000000036
                },
                {
                    "name": "D#4",
                    "midi": 63,
                    "time": 426.9313069999955,
                    "velocity": 0.5590551181102362,
                    "duration": 0.2733235000000036
                },
                {
                    "name": "F#3",
                    "midi": 54,
                    "time": 426.9313069999955,
                    "velocity": 0.47244094488188976,
                    "duration": 0.2733235000000036
                },
                {
                    "name": "G3",
                    "midi": 55,
                    "time": 427.4779539999955,
                    "velocity": 0.5275590551181102,
                    "duration": 0.2733235000000036
                },
                {
                    "name": "E4",
                    "midi": 64,
                    "time": 427.4779539999955,
                    "velocity": 0.6220472440944882,
                    "duration": 0.2733235000000036
                },
                {
                    "name": "F4",
                    "midi": 65,
                    "time": 428.0246009999955,
                    "velocity": 0.5590551181102362,
                    "duration": 0.2733235000000036
                },
                {
                    "name": "G#3",
                    "midi": 56,
                    "time": 428.0246009999955,
                    "velocity": 0.47244094488188976,
                    "duration": 0.2733235000000036
                },
                {
                    "name": "A#3",
                    "midi": 58,
                    "time": 428.57124799999553,
                    "velocity": 0.5118110236220472,
                    "duration": 0.2733235000000036
                },
                {
                    "name": "F#4",
                    "midi": 66,
                    "time": 428.57124799999553,
                    "velocity": 0.6062992125984252,
                    "duration": 0.2733235000000036
                },
                {
                    "name": "G#3",
                    "midi": 56,
                    "time": 429.11789499999554,
                    "velocity": 0.47244094488188976,
                    "duration": 0.2733235000000036
                },
                {
                    "name": "F4",
                    "midi": 65,
                    "time": 429.11789499999554,
                    "velocity": 0.5590551181102362,
                    "duration": 0.2733235000000036
                },
                {
                    "name": "F#3",
                    "midi": 54,
                    "time": 429.66454199999555,
                    "velocity": 0.5118110236220472,
                    "duration": 0.2733235000000036
                },
                {
                    "name": "D#4",
                    "midi": 63,
                    "time": 429.66454199999555,
                    "velocity": 0.6062992125984252,
                    "duration": 0.2733235000000036
                },
                {
                    "name": "F4",
                    "midi": 65,
                    "time": 430.21118899999556,
                    "velocity": 0.5590551181102362,
                    "duration": 0.2733235000000036
                },
                {
                    "name": "G#3",
                    "midi": 56,
                    "time": 430.21118899999556,
                    "velocity": 0.47244094488188976,
                    "duration": 0.2733235000000036
                },
                {
                    "name": "A#3",
                    "midi": 58,
                    "time": 430.75783599999556,
                    "velocity": 0.5196850393700787,
                    "duration": 0.2733235000000036
                },
                {
                    "name": "F#4",
                    "midi": 66,
                    "time": 430.75783599999556,
                    "velocity": 0.6141732283464567,
                    "duration": 0.2733235000000036
                },
                {
                    "name": "B3",
                    "midi": 59,
                    "time": 431.30448299999557,
                    "velocity": 0.47244094488188976,
                    "duration": 0.2733235000000036
                },
                {
                    "name": "G#4",
                    "midi": 68,
                    "time": 431.30448299999557,
                    "velocity": 0.5590551181102362,
                    "duration": 0.2733235000000036
                },
                {
                    "name": "A4",
                    "midi": 69,
                    "time": 431.8511299999956,
                    "velocity": 0.6141732283464567,
                    "duration": 0.2733235000000036
                },
                {
                    "name": "F4",
                    "midi": 65,
                    "time": 431.8511299999956,
                    "velocity": 0.5196850393700787,
                    "duration": 0.2733235000000036
                },
                {
                    "name": "F#4",
                    "midi": 66,
                    "time": 432.3977769999956,
                    "velocity": 0.47244094488188976,
                    "duration": 0.2733235000000036
                },
                {
                    "name": "A#4",
                    "midi": 70,
                    "time": 432.3977769999956,
                    "velocity": 0.5590551181102362,
                    "duration": 0.2733235000000036
                },
                {
                    "name": "B4",
                    "midi": 71,
                    "time": 432.9444239999956,
                    "velocity": 0.6220472440944882,
                    "duration": 0.2733235000000036
                },
                {
                    "name": "G#4",
                    "midi": 68,
                    "time": 432.9444239999956,
                    "velocity": 0.5275590551181102,
                    "duration": 0.2733235000000036
                },
                {
                    "name": "F#4",
                    "midi": 66,
                    "time": 433.4910709999956,
                    "velocity": 0.47244094488188976,
                    "duration": 0.2733235000000036
                },
                {
                    "name": "A#4",
                    "midi": 70,
                    "time": 433.4910709999956,
                    "velocity": 0.5590551181102362,
                    "duration": 0.2733235000000036
                },
                {
                    "name": "B3",
                    "midi": 59,
                    "time": 434.0377179999956,
                    "velocity": 0.5275590551181102,
                    "duration": 0.2733235000000036
                },
                {
                    "name": "G#4",
                    "midi": 68,
                    "time": 434.0377179999956,
                    "velocity": 0.6220472440944882,
                    "duration": 0.2733235000000036
                },
                {
                    "name": "F#4",
                    "midi": 66,
                    "time": 434.5843649999956,
                    "velocity": 0.5590551181102362,
                    "duration": 0.2733235000000036
                },
                {
                    "name": "A#3",
                    "midi": 58,
                    "time": 434.5843649999956,
                    "velocity": 0.47244094488188976,
                    "duration": 0.2733235000000036
                },
                {
                    "name": "A#1",
                    "midi": 34,
                    "time": 435.1310119999956,
                    "velocity": 0.6614173228346457,
                    "duration": 3.2798819999999864
                },
                {
                    "name": "A#2",
                    "midi": 46,
                    "time": 435.1310119999956,
                    "velocity": 0.7795275590551181,
                    "duration": 3.2798819999999864
                },
                {
                    "name": "G#2",
                    "midi": 44,
                    "time": 438.4108939999956,
                    "velocity": 0.7795275590551181,
                    "duration": 3.2798819999999864
                },
                {
                    "name": "G#1",
                    "midi": 32,
                    "time": 438.4108939999956,
                    "velocity": 0.6614173228346457,
                    "duration": 3.2798819999999864
                },
                {
                    "name": "G#1",
                    "midi": 32,
                    "time": 441.6907759999956,
                    "velocity": 0.6614173228346457,
                    "duration": 1.6399410000000216
                },
                {
                    "name": "G#2",
                    "midi": 44,
                    "time": 441.6907759999956,
                    "velocity": 0.7795275590551181,
                    "duration": 1.6399410000000216
                },
                {
                    "name": "F#2",
                    "midi": 42,
                    "time": 443.8773639999956,
                    "velocity": 0.7795275590551181,
                    "duration": 0.2733235000000036
                },
                {
                    "name": "F#1",
                    "midi": 30,
                    "time": 443.8773639999956,
                    "velocity": 0.6614173228346457,
                    "duration": 0.2733235000000036
                },
                {
                    "name": "F2",
                    "midi": 41,
                    "time": 444.97065799999564,
                    "velocity": 0.7795275590551181,
                    "duration": 0.2733235000000036
                },
                {
                    "name": "F1",
                    "midi": 29,
                    "time": 444.97065799999564,
                    "velocity": 0.6614173228346457,
                    "duration": 0.2733235000000036
                },
                {
                    "name": "D#2",
                    "midi": 39,
                    "time": 446.06395199999565,
                    "velocity": 0.7795275590551181,
                    "duration": 0.2733235000000036
                },
                {
                    "name": "D#1",
                    "midi": 27,
                    "time": 446.06395199999565,
                    "velocity": 0.6614173228346457,
                    "duration": 0.2733235000000036
                },
                {
                    "name": "D1",
                    "midi": 26,
                    "time": 447.15724599999567,
                    "velocity": 0.6614173228346457,
                    "duration": 0.2733235000000036
                },
                {
                    "name": "D2",
                    "midi": 38,
                    "time": 447.15724599999567,
                    "velocity": 0.7795275590551181,
                    "duration": 0.2733235000000036
                },
                {
                    "name": "D#1",
                    "midi": 27,
                    "time": 448.2505399999957,
                    "velocity": 0.6614173228346457,
                    "duration": 0.2733235000000036
                },
                {
                    "name": "D#2",
                    "midi": 39,
                    "time": 448.2505399999957,
                    "velocity": 0.7795275590551181,
                    "duration": 0.2733235000000036
                },
                {
                    "name": "A#3",
                    "midi": 58,
                    "time": 448.7971869999957,
                    "velocity": 0.47244094488188976,
                    "duration": 0.2733235000000036
                },
                {
                    "name": "G#3",
                    "midi": 56,
                    "time": 449.3438339999957,
                    "velocity": 0.5354330708661418,
                    "duration": 0.2733235000000036
                },
                {
                    "name": "F#3",
                    "midi": 54,
                    "time": 449.8904809999957,
                    "velocity": 0.47244094488188976,
                    "duration": 0.2733235000000036
                },
                {
                    "name": "F3",
                    "midi": 53,
                    "time": 450.4371279999957,
                    "velocity": 0.5354330708661418,
                    "duration": 0.2733235000000036
                },
                {
                    "name": "D#3",
                    "midi": 51,
                    "time": 450.9837749999957,
                    "velocity": 0.47244094488188976,
                    "duration": 0.2733235000000036
                },
                {
                    "name": "C#3",
                    "midi": 49,
                    "time": 451.5304219999957,
                    "velocity": 0.5196850393700787,
                    "duration": 0.2733235000000036
                },
                {
                    "name": "A#3",
                    "midi": 58,
                    "time": 451.5304219999957,
                    "velocity": 0.6141732283464567,
                    "duration": 0.2733235000000036
                },
                {
                    "name": "A3",
                    "midi": 57,
                    "time": 452.07706899999573,
                    "velocity": 0.5590551181102362,
                    "duration": 0.2733235000000036
                },
                {
                    "name": "C3",
                    "midi": 48,
                    "time": 452.07706899999573,
                    "velocity": 0.47244094488188976,
                    "duration": 0.2733235000000036
                },
                {
                    "name": "A#2",
                    "midi": 46,
                    "time": 452.62371599999574,
                    "velocity": 0.47244094488188976,
                    "duration": 0.2733235000000036
                },
                {
                    "name": "F#3",
                    "midi": 54,
                    "time": 452.62371599999574,
                    "velocity": 0.5590551181102362,
                    "duration": 0.2733235000000036
                },
                {
                    "name": "G#2",
                    "midi": 44,
                    "time": 453.17036299999575,
                    "velocity": 0.47244094488188976,
                    "duration": 0.2733235000000036
                },
                {
                    "name": "F3",
                    "midi": 53,
                    "time": 453.17036299999575,
                    "velocity": 0.5590551181102362,
                    "duration": 0.2733235000000036
                },
                {
                    "name": "F#2",
                    "midi": 42,
                    "time": 453.71700999999575,
                    "velocity": 0.47244094488188976,
                    "duration": 0.2733235000000036
                },
                {
                    "name": "D#3",
                    "midi": 51,
                    "time": 453.71700999999575,
                    "velocity": 0.5590551181102362,
                    "duration": 0.2733235000000036
                },
                {
                    "name": "F2",
                    "midi": 41,
                    "time": 454.26365699999576,
                    "velocity": 0.47244094488188976,
                    "duration": 0.2733235000000036
                },
                {
                    "name": "C#3",
                    "midi": 49,
                    "time": 454.26365699999576,
                    "velocity": 0.5590551181102362,
                    "duration": 0.2733235000000036
                },
                {
                    "name": "D#3",
                    "midi": 51,
                    "time": 454.81030399999577,
                    "velocity": 0.5590551181102362,
                    "duration": 3.2798819999999864
                },
                {
                    "name": "D#2",
                    "midi": 39,
                    "time": 454.81030399999577,
                    "velocity": 0.47244094488188976,
                    "duration": 3.2798819999999864
                },
                {
                    "name": "C1",
                    "midi": 24,
                    "time": 458.09018599999575,
                    "velocity": 0.5039370078740157,
                    "duration": 3.279881999999702
                },
                {
                    "name": "C2",
                    "midi": 36,
                    "time": 458.09018599999575,
                    "velocity": 0.5590551181102362,
                    "duration": 0.18221566666665012
                },
                {
                    "name": "C#2",
                    "midi": 37,
                    "time": 458.2724016666624,
                    "velocity": 0.5118110236220472,
                    "duration": 0.18221566666665012
                },
                {
                    "name": "C2",
                    "midi": 36,
                    "time": 458.45461733332905,
                    "velocity": 0.5590551181102362,
                    "duration": 0.18221566666665012
                },
                {
                    "name": "C#2",
                    "midi": 37,
                    "time": 458.6368329999957,
                    "velocity": 0.5196850393700787,
                    "duration": 0.18221566666665012
                },
                {
                    "name": "C2",
                    "midi": 36,
                    "time": 458.81904866666235,
                    "velocity": 0.5590551181102362,
                    "duration": 0.18221566666665012
                },
                {
                    "name": "C#2",
                    "midi": 37,
                    "time": 459.001264333329,
                    "velocity": 0.5196850393700787,
                    "duration": 0.18221566666665012
                },
                {
                    "name": "C2",
                    "midi": 36,
                    "time": 459.18347999999565,
                    "velocity": 0.5590551181102362,
                    "duration": 0.18221566666665012
                },
                {
                    "name": "C#2",
                    "midi": 37,
                    "time": 459.3656956666623,
                    "velocity": 0.5196850393700787,
                    "duration": 0.18221566666665012
                },
                {
                    "name": "C2",
                    "midi": 36,
                    "time": 459.54791133332895,
                    "velocity": 0.5590551181102362,
                    "duration": 0.18221566666665012
                },
                {
                    "name": "C#2",
                    "midi": 37,
                    "time": 459.7301269999956,
                    "velocity": 0.5275590551181102,
                    "duration": 0.18221566666665012
                },
                {
                    "name": "C2",
                    "midi": 36,
                    "time": 459.91234266666225,
                    "velocity": 0.5590551181102362,
                    "duration": 0.18221566666665012
                },
                {
                    "name": "C#2",
                    "midi": 37,
                    "time": 460.0945583333289,
                    "velocity": 0.5196850393700787,
                    "duration": 0.18221566666665012
                },
                {
                    "name": "C2",
                    "midi": 36,
                    "time": 460.27677399999556,
                    "velocity": 0.5590551181102362,
                    "duration": 0.18221566666665012
                },
                {
                    "name": "C#2",
                    "midi": 37,
                    "time": 460.4589896666622,
                    "velocity": 0.5275590551181102,
                    "duration": 0.18221566666665012
                },
                {
                    "name": "C2",
                    "midi": 36,
                    "time": 460.64120533332886,
                    "velocity": 0.5590551181102362,
                    "duration": 0.18221566666665012
                },
                {
                    "name": "C#2",
                    "midi": 37,
                    "time": 460.8234209999955,
                    "velocity": 0.5196850393700787,
                    "duration": 0.18221566666665012
                },
                {
                    "name": "C2",
                    "midi": 36,
                    "time": 461.00563666666216,
                    "velocity": 0.5590551181102362,
                    "duration": 0.18221566666665012
                },
                {
                    "name": "C#2",
                    "midi": 37,
                    "time": 461.1878523333288,
                    "velocity": 0.5196850393700787,
                    "duration": 0.18221566666665012
                },
                {
                    "name": "C2",
                    "midi": 36,
                    "time": 461.37006799999546,
                    "velocity": 0.5590551181102362,
                    "duration": 0.18221566666665012
                },
                {
                    "name": "C#2",
                    "midi": 37,
                    "time": 461.5522836666621,
                    "velocity": 0.5354330708661418,
                    "duration": 0.18221566666665012
                },
                {
                    "name": "C2",
                    "midi": 36,
                    "time": 461.73449933332876,
                    "velocity": 0.5590551181102362,
                    "duration": 0.18221566666665012
                },
                {
                    "name": "A#1",
                    "midi": 34,
                    "time": 461.9167149999954,
                    "velocity": 0.5354330708661418,
                    "duration": 0.2733235000000036
                },
                {
                    "name": "C2",
                    "midi": 36,
                    "time": 462.1900384999954,
                    "velocity": 0.5354330708661418,
                    "duration": 0.2733235000000036
                },
                {
                    "name": "A#1",
                    "midi": 34,
                    "time": 462.4633619999954,
                    "velocity": 0.6771653543307087,
                    "duration": 2.186587999999972
                },
                {
                    "name": "A#1",
                    "midi": 34,
                    "time": 465.7432439999954,
                    "velocity": 0.6614173228346457,
                    "duration": 0.2733235000000036
                },
                {
                    "name": "C1",
                    "midi": 24,
                    "time": 466.2898909999954,
                    "velocity": 0.4330708661417323,
                    "duration": 0.2733235000000036
                },
                {
                    "name": "C2",
                    "midi": 36,
                    "time": 466.2898909999954,
                    "velocity": 0.5118110236220472,
                    "duration": 0.2733235000000036
                },
                {
                    "name": "C#2",
                    "midi": 37,
                    "time": 466.8365379999954,
                    "velocity": 0.5196850393700787,
                    "duration": 0.2733235000000036
                },
                {
                    "name": "C#1",
                    "midi": 25,
                    "time": 466.8365379999954,
                    "velocity": 0.4409448818897638,
                    "duration": 0.2733235000000036
                },
                {
                    "name": "D#1",
                    "midi": 27,
                    "time": 467.3831849999954,
                    "velocity": 0.4409448818897638,
                    "duration": 0.2733235000000036
                },
                {
                    "name": "D#2",
                    "midi": 39,
                    "time": 467.3831849999954,
                    "velocity": 0.5275590551181102,
                    "duration": 0.2733235000000036
                },
                {
                    "name": "F2",
                    "midi": 41,
                    "time": 467.92983199999543,
                    "velocity": 0.5354330708661418,
                    "duration": 0.2733235000000036
                },
                {
                    "name": "F1",
                    "midi": 29,
                    "time": 467.92983199999543,
                    "velocity": 0.44881889763779526,
                    "duration": 0.2733235000000036
                },
                {
                    "name": "F#1",
                    "midi": 30,
                    "time": 468.47647899999544,
                    "velocity": 0.4566929133858268,
                    "duration": 0.2733235000000036
                },
                {
                    "name": "F#2",
                    "midi": 42,
                    "time": 468.47647899999544,
                    "velocity": 0.5433070866141733,
                    "duration": 0.2733235000000036
                },
                {
                    "name": "C#1",
                    "midi": 25,
                    "time": 469.02312599999544,
                    "velocity": 0.4645669291338583,
                    "duration": 2.186587999999972
                },
                {
                    "name": "C#2",
                    "midi": 37,
                    "time": 469.02312599999544,
                    "velocity": 0.5511811023622047,
                    "duration": 2.186587999999972
                },
                {
                    "name": "C2",
                    "midi": 36,
                    "time": 471.2097139999954,
                    "velocity": 0.6220472440944882,
                    "duration": 2.186587999999972
                },
                {
                    "name": "C1",
                    "midi": 24,
                    "time": 471.2097139999954,
                    "velocity": 0.4881889763779528,
                    "duration": 2.186587999999972
                },
                {
                    "name": "E3",
                    "midi": 52,
                    "time": 474.4895959999954,
                    "velocity": 0.5590551181102362,
                    "duration": 0.18221566666665012
                },
                {
                    "name": "E2",
                    "midi": 40,
                    "time": 474.4895959999954,
                    "velocity": 0.5590551181102362,
                    "duration": 3.279881999999702
                },
                {
                    "name": "F3",
                    "midi": 53,
                    "time": 474.67181166666205,
                    "velocity": 0.5118110236220472,
                    "duration": 0.18221566666665012
                },
                {
                    "name": "E3",
                    "midi": 52,
                    "time": 474.8540273333287,
                    "velocity": 0.49606299212598426,
                    "duration": 0.18221566666665012
                },
                {
                    "name": "F3",
                    "midi": 53,
                    "time": 475.03624299999535,
                    "velocity": 0.4645669291338583,
                    "duration": 0.18221566666665012
                },
                {
                    "name": "E3",
                    "midi": 52,
                    "time": 475.218458666662,
                    "velocity": 0.49606299212598426,
                    "duration": 0.18221566666665012
                },
                {
                    "name": "F3",
                    "midi": 53,
                    "time": 475.40067433332865,
                    "velocity": 0.4645669291338583,
                    "duration": 0.18221566666665012
                },
                {
                    "name": "E3",
                    "midi": 52,
                    "time": 475.5828899999953,
                    "velocity": 0.49606299212598426,
                    "duration": 0.18221566666665012
                },
                {
                    "name": "F3",
                    "midi": 53,
                    "time": 475.76510566666195,
                    "velocity": 0.4645669291338583,
                    "duration": 0.18221566666665012
                },
                {
                    "name": "E3",
                    "midi": 52,
                    "time": 475.9473213333286,
                    "velocity": 0.49606299212598426,
                    "duration": 0.18221566666665012
                },
                {
                    "name": "F3",
                    "midi": 53,
                    "time": 476.12953699999525,
                    "velocity": 0.47244094488188976,
                    "duration": 0.18221566666665012
                },
                {
                    "name": "E3",
                    "midi": 52,
                    "time": 476.3117526666619,
                    "velocity": 0.49606299212598426,
                    "duration": 0.18221566666665012
                },
                {
                    "name": "F3",
                    "midi": 53,
                    "time": 476.49396833332855,
                    "velocity": 0.4645669291338583,
                    "duration": 0.18221566666665012
                },
                {
                    "name": "E3",
                    "midi": 52,
                    "time": 476.6761839999952,
                    "velocity": 0.49606299212598426,
                    "duration": 0.18221566666665012
                },
                {
                    "name": "F3",
                    "midi": 53,
                    "time": 476.85839966666185,
                    "velocity": 0.47244094488188976,
                    "duration": 0.18221566666665012
                },
                {
                    "name": "E3",
                    "midi": 52,
                    "time": 477.0406153333285,
                    "velocity": 0.49606299212598426,
                    "duration": 0.18221566666665012
                },
                {
                    "name": "F3",
                    "midi": 53,
                    "time": 477.22283099999515,
                    "velocity": 0.4645669291338583,
                    "duration": 0.18221566666665012
                },
                {
                    "name": "E3",
                    "midi": 52,
                    "time": 477.4050466666618,
                    "velocity": 0.49606299212598426,
                    "duration": 0.18221566666665012
                },
                {
                    "name": "F3",
                    "midi": 53,
                    "time": 477.58726233332845,
                    "velocity": 0.4645669291338583,
                    "duration": 0.18221566666665012
                },
                {
                    "name": "G3",
                    "midi": 55,
                    "time": 477.7694779999951,
                    "velocity": 0.5590551181102362,
                    "duration": 0.18221566666665012
                },
                {
                    "name": "G#3",
                    "midi": 56,
                    "time": 477.95169366666175,
                    "velocity": 0.5196850393700787,
                    "duration": 0.18221566666665012
                },
                {
                    "name": "G3",
                    "midi": 55,
                    "time": 478.1339093333284,
                    "velocity": 0.49606299212598426,
                    "duration": 0.18221566666665012
                },
                {
                    "name": "G#3",
                    "midi": 56,
                    "time": 478.31612499999505,
                    "velocity": 0.47244094488188976,
                    "duration": 0.18221566666665012
                },
                {
                    "name": "G3",
                    "midi": 55,
                    "time": 478.4983406666617,
                    "velocity": 0.49606299212598426,
                    "duration": 0.18221566666665012
                },
                {
                    "name": "G#3",
                    "midi": 56,
                    "time": 478.68055633332835,
                    "velocity": 0.4645669291338583,
                    "duration": 0.18221566666665012
                },
                {
                    "name": "G3",
                    "midi": 55,
                    "time": 478.862771999995,
                    "velocity": 0.49606299212598426,
                    "duration": 0.18221566666665012
                },
                {
                    "name": "G#3",
                    "midi": 56,
                    "time": 479.04498766666165,
                    "velocity": 0.47244094488188976,
                    "duration": 0.18221566666665012
                },
                {
                    "name": "G3",
                    "midi": 55,
                    "time": 479.2272033333283,
                    "velocity": 0.49606299212598426,
                    "duration": 0.18221566666665012
                },
                {
                    "name": "G#3",
                    "midi": 56,
                    "time": 479.40941899999495,
                    "velocity": 0.4645669291338583,
                    "duration": 0.18221566666665012
                },
                {
                    "name": "G3",
                    "midi": 55,
                    "time": 479.5916346666616,
                    "velocity": 0.49606299212598426,
                    "duration": 0.18221566666665012
                },
                {
                    "name": "G#3",
                    "midi": 56,
                    "time": 479.77385033332826,
                    "velocity": 0.4645669291338583,
                    "duration": 0.18221566666665012
                },
                {
                    "name": "G3",
                    "midi": 55,
                    "time": 479.9560659999949,
                    "velocity": 0.49606299212598426,
                    "duration": 0.18221566666665012
                },
                {
                    "name": "G#3",
                    "midi": 56,
                    "time": 480.13828166666156,
                    "velocity": 0.47244094488188976,
                    "duration": 0.18221566666665012
                },
                {
                    "name": "G3",
                    "midi": 55,
                    "time": 480.3204973333282,
                    "velocity": 0.49606299212598426,
                    "duration": 0.18221566666665012
                },
                {
                    "name": "G#3",
                    "midi": 56,
                    "time": 480.50271299999486,
                    "velocity": 0.4645669291338583,
                    "duration": 0.18221566666665012
                },
                {
                    "name": "G3",
                    "midi": 55,
                    "time": 480.6849286666615,
                    "velocity": 0.49606299212598426,
                    "duration": 0.18221566666665012
                },
                {
                    "name": "G#3",
                    "midi": 56,
                    "time": 480.86714433332816,
                    "velocity": 0.4645669291338583,
                    "duration": 0.18221566666665012
                },
                {
                    "name": "F1",
                    "midi": 29,
                    "time": 481.0493599999948,
                    "velocity": 0.7007874015748031,
                    "duration": 2.186587999999972
                },
                {
                    "name": "A2",
                    "midi": 45,
                    "time": 484.3292419999948,
                    "velocity": 0.47244094488188976,
                    "duration": 0.18221566666665012
                },
                {
                    "name": "A#2",
                    "midi": 46,
                    "time": 484.51145766666144,
                    "velocity": 0.4409448818897638,
                    "duration": 0.18221566666665012
                },
                {
                    "name": "A2",
                    "midi": 45,
                    "time": 484.6936733333281,
                    "velocity": 0.47244094488188976,
                    "duration": 0.18221566666665012
                },
                {
                    "name": "A#2",
                    "midi": 46,
                    "time": 484.87588899999474,
                    "velocity": 0.4409448818897638,
                    "duration": 0.18221566666665012
                },
                {
                    "name": "A2",
                    "midi": 45,
                    "time": 485.0581046666614,
                    "velocity": 0.47244094488188976,
                    "duration": 0.18221566666665012
                },
                {
                    "name": "A#2",
                    "midi": 46,
                    "time": 485.24032033332804,
                    "velocity": 0.4409448818897638,
                    "duration": 0.18221566666665012
                },
                {
                    "name": "A2",
                    "midi": 45,
                    "time": 485.4225359999947,
                    "velocity": 0.47244094488188976,
                    "duration": 0.18221566666665012
                },
                {
                    "name": "A#2",
                    "midi": 46,
                    "time": 485.60475166666134,
                    "velocity": 0.4409448818897638,
                    "duration": 0.18221566666665012
                },
                {
                    "name": "A2",
                    "midi": 45,
                    "time": 485.786967333328,
                    "velocity": 0.47244094488188976,
                    "duration": 0.18221566666665012
                },
                {
                    "name": "A#2",
                    "midi": 46,
                    "time": 485.96918299999464,
                    "velocity": 0.4409448818897638,
                    "duration": 0.18221566666665012
                },
                {
                    "name": "A2",
                    "midi": 45,
                    "time": 486.1513986666613,
                    "velocity": 0.47244094488188976,
                    "duration": 0.18221566666665012
                },
                {
                    "name": "A#2",
                    "midi": 46,
                    "time": 486.33361433332794,
                    "velocity": 0.4409448818897638,
                    "duration": 0.18221566666665012
                },
                {
                    "name": "A2",
                    "midi": 45,
                    "time": 486.5158299999946,
                    "velocity": 0.47244094488188976,
                    "duration": 0.18221566666665012
                },
                {
                    "name": "A#2",
                    "midi": 46,
                    "time": 486.69804566666124,
                    "velocity": 0.4409448818897638,
                    "duration": 0.18221566666665012
                },
                {
                    "name": "A2",
                    "midi": 45,
                    "time": 486.8802613333279,
                    "velocity": 0.47244094488188976,
                    "duration": 0.18221566666665012
                },
                {
                    "name": "A#2",
                    "midi": 46,
                    "time": 487.06247699999454,
                    "velocity": 0.4409448818897638,
                    "duration": 0.18221566666665012
                },
                {
                    "name": "A2",
                    "midi": 45,
                    "time": 487.2446926666612,
                    "velocity": 0.47244094488188976,
                    "duration": 0.18221566666665012
                },
                {
                    "name": "A#2",
                    "midi": 46,
                    "time": 487.42690833332784,
                    "velocity": 0.4409448818897638,
                    "duration": 0.18221566666665012
                },
                {
                    "name": "A#1",
                    "midi": 34,
                    "time": 490.8890059999945,
                    "velocity": 0.5590551181102362,
                    "duration": 3.2798819999999864
                },
                {
                    "name": "C#3",
                    "midi": 49,
                    "time": 494.16888799999447,
                    "velocity": 0.4015748031496063,
                    "duration": 0.18221566666665012
                },
                {
                    "name": "D#3",
                    "midi": 51,
                    "time": 494.3511036666611,
                    "velocity": 0.3700787401574803,
                    "duration": 0.18221566666665012
                },
                {
                    "name": "C#3",
                    "midi": 49,
                    "time": 494.53331933332777,
                    "velocity": 0.4015748031496063,
                    "duration": 0.18221566666665012
                },
                {
                    "name": "D#3",
                    "midi": 51,
                    "time": 494.7155349999944,
                    "velocity": 0.3700787401574803,
                    "duration": 0.18221566666665012
                },
                {
                    "name": "C#3",
                    "midi": 49,
                    "time": 494.89775066666107,
                    "velocity": 0.4015748031496063,
                    "duration": 0.18221566666665012
                },
                {
                    "name": "D#3",
                    "midi": 51,
                    "time": 495.0799663333277,
                    "velocity": 0.3700787401574803,
                    "duration": 0.18221566666665012
                },
                {
                    "name": "C#3",
                    "midi": 49,
                    "time": 495.26218199999437,
                    "velocity": 0.4015748031496063,
                    "duration": 0.18221566666665012
                },
                {
                    "name": "D#3",
                    "midi": 51,
                    "time": 495.444397666661,
                    "velocity": 0.3700787401574803,
                    "duration": 0.18221566666665012
                },
                {
                    "name": "C#3",
                    "midi": 49,
                    "time": 495.62661333332767,
                    "velocity": 0.4015748031496063,
                    "duration": 0.18221566666665012
                },
                {
                    "name": "D#3",
                    "midi": 51,
                    "time": 495.8088289999943,
                    "velocity": 0.3700787401574803,
                    "duration": 0.18221566666665012
                },
                {
                    "name": "C#3",
                    "midi": 49,
                    "time": 495.99104466666097,
                    "velocity": 0.4015748031496063,
                    "duration": 0.18221566666665012
                },
                {
                    "name": "D#3",
                    "midi": 51,
                    "time": 496.1732603333276,
                    "velocity": 0.3700787401574803,
                    "duration": 0.18221566666665012
                },
                {
                    "name": "C#3",
                    "midi": 49,
                    "time": 496.35547599999427,
                    "velocity": 0.4015748031496063,
                    "duration": 0.18221566666665012
                },
                {
                    "name": "D#3",
                    "midi": 51,
                    "time": 496.5376916666609,
                    "velocity": 0.3700787401574803,
                    "duration": 0.18221566666665012
                },
                {
                    "name": "C#3",
                    "midi": 49,
                    "time": 496.71990733332757,
                    "velocity": 0.4015748031496063,
                    "duration": 0.18221566666665012
                },
                {
                    "name": "D#3",
                    "midi": 51,
                    "time": 496.9021229999942,
                    "velocity": 0.4015748031496063,
                    "duration": 0.13666174999997338
                },
                {
                    "name": "C#3",
                    "midi": 49,
                    "time": 497.0387847499942,
                    "velocity": 0.3543307086614173,
                    "duration": 0.13666174999997338
                },
                {
                    "name": "C3",
                    "midi": 48,
                    "time": 497.17544649999417,
                    "velocity": 0.3543307086614173,
                    "duration": 0.13666174999997338
                },
                {
                    "name": "C#3",
                    "midi": 49,
                    "time": 497.31210824999414,
                    "velocity": 0.3543307086614173,
                    "duration": 0.13666174999997338
                },
                {
                    "name": "D#3",
                    "midi": 51,
                    "time": 497.4487699999941,
                    "velocity": 0.3937007874015748,
                    "duration": 3.2798819999999864
                },
                {
                    "name": "G#3",
                    "midi": 56,
                    "time": 500.7286519999941,
                    "velocity": 0.5196850393700787,
                    "duration": 1.6399410000000216
                },
                {
                    "name": "G3",
                    "midi": 55,
                    "time": 502.3685929999941,
                    "velocity": 0.47244094488188976,
                    "duration": 0.5466470000000072
                },
                {
                    "name": "F3",
                    "midi": 53,
                    "time": 502.9152399999941,
                    "velocity": 0.5196850393700787,
                    "duration": 0.5466470000000072
                },
                {
                    "name": "D#3",
                    "midi": 51,
                    "time": 503.46188699999414,
                    "velocity": 0.41732283464566927,
                    "duration": 0.5466470000000072
                },
                {
                    "name": "D3",
                    "midi": 50,
                    "time": 504.00853399999414,
                    "velocity": 0.5196850393700787,
                    "duration": 0.5466470000000072
                },
                {
                    "name": "D#3",
                    "midi": 51,
                    "time": 504.55518099999415,
                    "velocity": 0.4330708661417323,
                    "duration": 0.5466470000000072
                },
                {
                    "name": "D#3",
                    "midi": 51,
                    "time": 505.10182799999416,
                    "velocity": 0.5196850393700787,
                    "duration": 3.2798819999999864
                },
                {
                    "name": "C4",
                    "midi": 60,
                    "time": 507.28841599999413,
                    "velocity": 0.4330708661417323,
                    "duration": 0.5466470000000072
                },
                {
                    "name": "C#4",
                    "midi": 61,
                    "time": 507.83506299999414,
                    "velocity": 0.4645669291338583,
                    "duration": 0.5466470000000072
                },
                {
                    "name": "D#3",
                    "midi": 51,
                    "time": 508.38170999999414,
                    "velocity": 0.44881889763779526,
                    "duration": 2.186588000000029
                },
                {
                    "name": "B3",
                    "midi": 59,
                    "time": 508.38170999999414,
                    "velocity": 0.4645669291338583,
                    "duration": 0.5466470000000072
                },
                {
                    "name": "C4",
                    "midi": 60,
                    "time": 508.92835699999415,
                    "velocity": 0.41732283464566927,
                    "duration": 0.5466470000000072
                },
                {
                    "name": "A#3",
                    "midi": 58,
                    "time": 509.47500399999416,
                    "velocity": 0.4645669291338583,
                    "duration": 0.5466470000000072
                },
                {
                    "name": "G#3",
                    "midi": 56,
                    "time": 510.02165099999416,
                    "velocity": 0.41732283464566927,
                    "duration": 0.5466470000000072
                },
                {
                    "name": "D#3",
                    "midi": 51,
                    "time": 510.5682979999942,
                    "velocity": 0.3543307086614173,
                    "duration": 0.18221566666665012
                },
                {
                    "name": "F3",
                    "midi": 53,
                    "time": 510.7505136666608,
                    "velocity": 0.33070866141732286,
                    "duration": 0.18221566666665012
                },
                {
                    "name": "D#3",
                    "midi": 51,
                    "time": 510.9327293333275,
                    "velocity": 0.3543307086614173,
                    "duration": 0.18221566666665012
                },
                {
                    "name": "F3",
                    "midi": 53,
                    "time": 511.1149449999941,
                    "velocity": 0.33070866141732286,
                    "duration": 0.18221566666665012
                },
                {
                    "name": "D#3",
                    "midi": 51,
                    "time": 511.2971606666608,
                    "velocity": 0.3543307086614173,
                    "duration": 0.18221566666665012
                },
                {
                    "name": "F3",
                    "midi": 53,
                    "time": 511.4793763333274,
                    "velocity": 0.33070866141732286,
                    "duration": 0.18221566666665012
                },
                {
                    "name": "D#3",
                    "midi": 51,
                    "time": 511.6615919999941,
                    "velocity": 0.3543307086614173,
                    "duration": 0.18221566666665012
                },
                {
                    "name": "F3",
                    "midi": 53,
                    "time": 511.8438076666607,
                    "velocity": 0.33070866141732286,
                    "duration": 0.18221566666670697
                },
                {
                    "name": "D#3",
                    "midi": 51,
                    "time": 512.0260233333274,
                    "velocity": 0.3543307086614173,
                    "duration": 0.18221566666670697
                },
                {
                    "name": "F3",
                    "midi": 53,
                    "time": 512.2082389999941,
                    "velocity": 0.33070866141732286,
                    "duration": 0.18221566666670697
                },
                {
                    "name": "D#3",
                    "midi": 51,
                    "time": 512.3904546666608,
                    "velocity": 0.3543307086614173,
                    "duration": 0.18221566666670697
                },
                {
                    "name": "F3",
                    "midi": 53,
                    "time": 512.5726703333276,
                    "velocity": 0.33070866141732286,
                    "duration": 0.18221566666670697
                },
                {
                    "name": "D#3",
                    "midi": 51,
                    "time": 512.7548859999943,
                    "velocity": 0.3543307086614173,
                    "duration": 0.18221566666670697
                },
                {
                    "name": "F3",
                    "midi": 53,
                    "time": 512.937101666661,
                    "velocity": 0.33070866141732286,
                    "duration": 0.18221566666670697
                },
                {
                    "name": "D#3",
                    "midi": 51,
                    "time": 513.1193173333277,
                    "velocity": 0.3543307086614173,
                    "duration": 0.18221566666670697
                },
                {
                    "name": "F3",
                    "midi": 53,
                    "time": 513.3015329999944,
                    "velocity": 0.3543307086614173,
                    "duration": 0.27332349999994676
                },
                {
                    "name": "D#3",
                    "midi": 51,
                    "time": 513.5748564999943,
                    "velocity": 0.31496062992125984,
                    "duration": 0.27332349999994676
                },
                {
                    "name": "F3",
                    "midi": 53,
                    "time": 513.8481799999943,
                    "velocity": 0.4094488188976378,
                    "duration": 0.5466470000000072
                },
                {
                    "name": "G3",
                    "midi": 55,
                    "time": 514.3948269999943,
                    "velocity": 0.3700787401574803,
                    "duration": 0.5466470000000072
                },
                {
                    "name": "G#3",
                    "midi": 56,
                    "time": 514.9414739999943,
                    "velocity": 0.31496062992125984,
                    "duration": 0.27332349999994676
                },
                {
                    "name": "C3",
                    "midi": 48,
                    "time": 515.2147974999942,
                    "velocity": 0.31496062992125984,
                    "duration": 0.27332349999994676
                },
                {
                    "name": "D#3",
                    "midi": 51,
                    "time": 515.4881209999942,
                    "velocity": 0.31496062992125984,
                    "duration": 0.27332349999994676
                },
                {
                    "name": "G#3",
                    "midi": 56,
                    "time": 515.7614444999941,
                    "velocity": 0.31496062992125984,
                    "duration": 0.27332349999994676
                },
                {
                    "name": "C4",
                    "midi": 60,
                    "time": 516.0347679999941,
                    "velocity": 0.4094488188976378,
                    "duration": 0.27332349999994676
                },
                {
                    "name": "C#4",
                    "midi": 61,
                    "time": 516.581414999994,
                    "velocity": 0.4251968503937008,
                    "duration": 0.27332349999994676
                },
                {
                    "name": "D#4",
                    "midi": 63,
                    "time": 517.1280619999939,
                    "velocity": 0.48031496062992124,
                    "duration": 1.0932940000000144
                },
                {
                    "name": "A#3",
                    "midi": 58,
                    "time": 520.6812674999939,
                    "velocity": 0.31496062992125984,
                    "duration": 0.27332349999994676
                },
                {
                    "name": "C4",
                    "midi": 60,
                    "time": 520.9545909999938,
                    "velocity": 0.33858267716535434,
                    "duration": 0.27332349999994676
                },
                {
                    "name": "C#4",
                    "midi": 61,
                    "time": 521.2279144999937,
                    "velocity": 0.3543307086614173,
                    "duration": 0.27332349999994676
                },
                {
                    "name": "C4",
                    "midi": 60,
                    "time": 521.5012379999937,
                    "velocity": 0.3858267716535433,
                    "duration": 1.0932940000000144
                },
                {
                    "name": "G#3",
                    "midi": 56,
                    "time": 522.8678554999937,
                    "velocity": 0.31496062992125984,
                    "duration": 0.3279881999999361
                },
                {
                    "name": "G3",
                    "midi": 55,
                    "time": 523.1411789999936,
                    "velocity": 0.3464566929133858,
                    "duration": 0.3279881999999361
                },
                {
                    "name": "F3",
                    "midi": 53,
                    "time": 523.4145024999935,
                    "velocity": 0.31496062992125984,
                    "duration": 0.3279881999999361
                },
                {
                    "name": "D#3",
                    "midi": 51,
                    "time": 523.6878259999935,
                    "velocity": 0.3858267716535433,
                    "duration": 1.093293999999787
                },
                {
                    "name": "G3",
                    "midi": 55,
                    "time": 523.9611494999934,
                    "velocity": 0.33070866141732286,
                    "duration": 0.27332349999994676
                },
                {
                    "name": "G#3",
                    "midi": 56,
                    "time": 524.2344729999934,
                    "velocity": 0.3464566929133858,
                    "duration": 0.27332349999994676
                },
                {
                    "name": "A#3",
                    "midi": 58,
                    "time": 524.5077964999933,
                    "velocity": 0.3700787401574803,
                    "duration": 0.27332349999994676
                },
                {
                    "name": "F3",
                    "midi": 53,
                    "time": 526.1477374999932,
                    "velocity": 0.3464566929133858,
                    "duration": 0.27332349999994676
                },
                {
                    "name": "D#3",
                    "midi": 51,
                    "time": 526.4210609999932,
                    "velocity": 0.4094488188976378,
                    "duration": 0.27332349999994676
                },
                {
                    "name": "C#3",
                    "midi": 49,
                    "time": 526.6943844999931,
                    "velocity": 0.36220472440944884,
                    "duration": 0.27332349999994676
                },
                {
                    "name": "C3",
                    "midi": 48,
                    "time": 526.9677079999931,
                    "velocity": 0.41732283464566927,
                    "duration": 0.5466470000000072
                },
                {
                    "name": "D3",
                    "midi": 50,
                    "time": 527.5143549999931,
                    "velocity": 0.4330708661417323,
                    "duration": 0.27332349999994676
                },
                {
                    "name": "E3",
                    "midi": 52,
                    "time": 527.787678499993,
                    "velocity": 0.4566929133858268,
                    "duration": 0.27332349999994676
                },
                {
                    "name": "F3",
                    "midi": 53,
                    "time": 528.061001999993,
                    "velocity": 0.48031496062992124,
                    "duration": 1.0932940000000144
                },
                {
                    "name": "E3",
                    "midi": 52,
                    "time": 530.520913499993,
                    "velocity": 0.4330708661417323,
                    "duration": 0.27332349999994676
                },
                {
                    "name": "F3",
                    "midi": 53,
                    "time": 530.7942369999929,
                    "velocity": 0.4409448818897638,
                    "duration": 0.27332349999994676
                },
                {
                    "name": "G3",
                    "midi": 55,
                    "time": 531.0675604999929,
                    "velocity": 0.4566929133858268,
                    "duration": 0.27332349999994676
                },
                {
                    "name": "G#3",
                    "midi": 56,
                    "time": 531.3408839999928,
                    "velocity": 0.5039370078740157,
                    "duration": 0.27332349999994676
                },
                {
                    "name": "A#3",
                    "midi": 58,
                    "time": 531.8875309999927,
                    "velocity": 0.5354330708661418,
                    "duration": 0.27332349999994676
                },
                {
                    "name": "C4",
                    "midi": 60,
                    "time": 532.4341779999926,
                    "velocity": 0.5748031496062992,
                    "duration": 1.3666174999999612
                },
                {
                    "name": "G#3",
                    "midi": 56,
                    "time": 533.8007954999925,
                    "velocity": 0.4645669291338583,
                    "duration": 0.27332349999994676
                },
                {
                    "name": "G3",
                    "midi": 55,
                    "time": 534.0741189999925,
                    "velocity": 0.4645669291338583,
                    "duration": 0.27332349999994676
                },
                {
                    "name": "F3",
                    "midi": 53,
                    "time": 534.3474424999924,
                    "velocity": 0.4645669291338583,
                    "duration": 0.27332349999994676
                },
                {
                    "name": "C4",
                    "midi": 60,
                    "time": 534.6207659999924,
                    "velocity": 0.5039370078740157,
                    "duration": 0.27332349999994676
                },
                {
                    "name": "F4",
                    "midi": 65,
                    "time": 534.8940894999923,
                    "velocity": 0.5433070866141733,
                    "duration": 0.3279881999999361
                },
                {
                    "name": "E4",
                    "midi": 64,
                    "time": 535.1674129999923,
                    "velocity": 0.5275590551181102,
                    "duration": 0.3279881999999361
                },
                {
                    "name": "D4",
                    "midi": 62,
                    "time": 535.4407364999922,
                    "velocity": 0.5118110236220472,
                    "duration": 0.3279881999999361
                },
                {
                    "name": "C4",
                    "midi": 60,
                    "time": 535.7140599999922,
                    "velocity": 0.4881889763779528,
                    "duration": 0.27332349999994676
                },
                {
                    "name": "A#3",
                    "midi": 58,
                    "time": 535.9873834999921,
                    "velocity": 0.47244094488188976,
                    "duration": 0.27332349999994676
                },
                {
                    "name": "G#3",
                    "midi": 56,
                    "time": 536.2607069999921,
                    "velocity": 0.44881889763779526,
                    "duration": 0.27332349999994676
                },
                {
                    "name": "G3",
                    "midi": 55,
                    "time": 536.534030499992,
                    "velocity": 0.4330708661417323,
                    "duration": 0.27332349999994676
                },
                {
                    "name": "F3",
                    "midi": 53,
                    "time": 536.807353999992,
                    "velocity": 0.5354330708661418,
                    "duration": 0.5466470000000072
                },
                {
                    "name": "C4",
                    "midi": 60,
                    "time": 537.900647999992,
                    "velocity": 0.5039370078740157,
                    "duration": 0.27332349999994676
                },
                {
                    "name": "D#4",
                    "midi": 63,
                    "time": 538.1739714999919,
                    "velocity": 0.5433070866141733,
                    "duration": 0.3279881999999361
                },
                {
                    "name": "C#4",
                    "midi": 61,
                    "time": 538.4472949999919,
                    "velocity": 0.5275590551181102,
                    "duration": 0.3279881999999361
                },
                {
                    "name": "C4",
                    "midi": 60,
                    "time": 538.7206184999918,
                    "velocity": 0.5118110236220472,
                    "duration": 0.3279881999999361
                },
                {
                    "name": "A#3",
                    "midi": 58,
                    "time": 538.9939419999918,
                    "velocity": 0.4881889763779528,
                    "duration": 0.27332349999994676
                },
                {
                    "name": "A3",
                    "midi": 57,
                    "time": 539.2672654999917,
                    "velocity": 0.47244094488188976,
                    "duration": 0.27332349999994676
                },
                {
                    "name": "G3",
                    "midi": 55,
                    "time": 539.5405889999917,
                    "velocity": 0.44881889763779526,
                    "duration": 0.27332349999994676
                },
                {
                    "name": "F3",
                    "midi": 53,
                    "time": 539.8139124999916,
                    "velocity": 0.4330708661417323,
                    "duration": 0.27332349999994676
                },
                {
                    "name": "D#3",
                    "midi": 51,
                    "time": 540.0872359999915,
                    "velocity": 0.5354330708661418,
                    "duration": 1.0932940000000144
                },
                {
                    "name": "C#3",
                    "midi": 49,
                    "time": 541.1805299999916,
                    "velocity": 0.5039370078740157,
                    "duration": 0.27332349999994676
                },
                {
                    "name": "C#4",
                    "midi": 61,
                    "time": 541.4538534999915,
                    "velocity": 0.5433070866141733,
                    "duration": 0.3279881999999361
                },
                {
                    "name": "C4",
                    "midi": 60,
                    "time": 541.7271769999915,
                    "velocity": 0.5275590551181102,
                    "duration": 0.3279881999999361
                },
                {
                    "name": "A#3",
                    "midi": 58,
                    "time": 542.0005004999914,
                    "velocity": 0.5118110236220472,
                    "duration": 0.3279881999999361
                },
                {
                    "name": "A3",
                    "midi": 57,
                    "time": 542.2738239999914,
                    "velocity": 0.4881889763779528,
                    "duration": 0.27332349999994676
                },
                {
                    "name": "G3",
                    "midi": 55,
                    "time": 542.5471474999913,
                    "velocity": 0.47244094488188976,
                    "duration": 0.27332349999994676
                },
                {
                    "name": "F3",
                    "midi": 53,
                    "time": 542.8204709999912,
                    "velocity": 0.44881889763779526,
                    "duration": 0.27332349999994676
                },
                {
                    "name": "D#3",
                    "midi": 51,
                    "time": 543.0937944999912,
                    "velocity": 0.4330708661417323,
                    "duration": 0.27332349999994676
                },
                {
                    "name": "C#3",
                    "midi": 49,
                    "time": 543.3671179999911,
                    "velocity": 0.5354330708661418,
                    "duration": 1.0932940000000144
                },
                {
                    "name": "C3",
                    "midi": 48,
                    "time": 544.4604119999912,
                    "velocity": 0.5039370078740157,
                    "duration": 0.27332349999994676
                },
                {
                    "name": "C4",
                    "midi": 60,
                    "time": 544.7337354999911,
                    "velocity": 0.5433070866141733,
                    "duration": 0.3279881999999361
                },
                {
                    "name": "A#3",
                    "midi": 58,
                    "time": 545.007058999991,
                    "velocity": 0.5275590551181102,
                    "duration": 0.3279881999999361
                },
                {
                    "name": "A3",
                    "midi": 57,
                    "time": 545.280382499991,
                    "velocity": 0.5118110236220472,
                    "duration": 0.3279881999999361
                },
                {
                    "name": "F#3",
                    "midi": 54,
                    "time": 545.5537059999909,
                    "velocity": 0.4881889763779528,
                    "duration": 0.27332349999994676
                },
                {
                    "name": "F3",
                    "midi": 53,
                    "time": 545.8270294999909,
                    "velocity": 0.47244094488188976,
                    "duration": 0.27332349999994676
                },
                {
                    "name": "D#3",
                    "midi": 51,
                    "time": 546.1003529999908,
                    "velocity": 0.44881889763779526,
                    "duration": 0.27332349999994676
                },
                {
                    "name": "C#3",
                    "midi": 49,
                    "time": 546.3736764999908,
                    "velocity": 0.4330708661417323,
                    "duration": 0.27332349999994676
                },
                {
                    "name": "C3",
                    "midi": 48,
                    "time": 546.6469999999907,
                    "velocity": 0.5354330708661418,
                    "duration": 1.0932940000000144
                },
                {
                    "name": "D3",
                    "midi": 50,
                    "time": 547.7402939999907,
                    "velocity": 0.5354330708661418,
                    "duration": 0.27332349999994676
                },
                {
                    "name": "D2",
                    "midi": 38,
                    "time": 547.7402939999907,
                    "velocity": 0.44881889763779526,
                    "duration": 0.27332349999994676
                },
                {
                    "name": "D#3",
                    "midi": 51,
                    "time": 548.2869409999906,
                    "velocity": 0.5590551181102362,
                    "duration": 0.27332349999994676
                },
                {
                    "name": "D#2",
                    "midi": 39,
                    "time": 548.2869409999906,
                    "velocity": 0.47244094488188976,
                    "duration": 0.27332349999994676
                },
                {
                    "name": "F2",
                    "midi": 41,
                    "time": 548.8335879999905,
                    "velocity": 0.5039370078740157,
                    "duration": 1.3666174999999612
                },
                {
                    "name": "F3",
                    "midi": 53,
                    "time": 548.8335879999905,
                    "velocity": 0.5984251968503937,
                    "duration": 1.3666174999999612
                },
                {
                    "name": "D3",
                    "midi": 50,
                    "time": 550.2002054999905,
                    "velocity": 0.49606299212598426,
                    "duration": 0.27332349999994676
                },
                {
                    "name": "C3",
                    "midi": 48,
                    "time": 550.4735289999904,
                    "velocity": 0.49606299212598426,
                    "duration": 0.27332349999994676
                },
                {
                    "name": "A#2",
                    "midi": 46,
                    "time": 550.7468524999904,
                    "velocity": 0.49606299212598426,
                    "duration": 0.27332349999994676
                },
                {
                    "name": "D#2",
                    "midi": 39,
                    "time": 551.0201759999903,
                    "velocity": 0.44881889763779526,
                    "duration": 0.27332349999994676
                },
                {
                    "name": "D#3",
                    "midi": 51,
                    "time": 551.0201759999903,
                    "velocity": 0.5354330708661418,
                    "duration": 0.27332349999994676
                },
                {
                    "name": "F2",
                    "midi": 41,
                    "time": 551.5668229999902,
                    "velocity": 0.44881889763779526,
                    "duration": 0.27332349999994676
                },
                {
                    "name": "F3",
                    "midi": 53,
                    "time": 551.5668229999902,
                    "velocity": 0.5354330708661418,
                    "duration": 0.27332349999994676
                },
                {
                    "name": "G2",
                    "midi": 43,
                    "time": 552.1134699999901,
                    "velocity": 0.4645669291338583,
                    "duration": 1.3666174999999612
                },
                {
                    "name": "G3",
                    "midi": 55,
                    "time": 552.1134699999901,
                    "velocity": 0.5511811023622047,
                    "duration": 1.3666174999999612
                },
                {
                    "name": "D#3",
                    "midi": 51,
                    "time": 553.4800874999901,
                    "velocity": 0.5039370078740157,
                    "duration": 0.27332349999994676
                },
                {
                    "name": "B2",
                    "midi": 47,
                    "time": 553.75341099999,
                    "velocity": 0.5039370078740157,
                    "duration": 0.27332349999994676
                },
                {
                    "name": "A#2",
                    "midi": 46,
                    "time": 554.02673449999,
                    "velocity": 0.5039370078740157,
                    "duration": 0.27332349999994676
                },
                {
                    "name": "G2",
                    "midi": 43,
                    "time": 554.3000579999899,
                    "velocity": 0.44881889763779526,
                    "duration": 0.27332349999994676
                },
                {
                    "name": "G3",
                    "midi": 55,
                    "time": 554.3000579999899,
                    "velocity": 0.5354330708661418,
                    "duration": 0.27332349999994676
                },
                {
                    "name": "G#2",
                    "midi": 44,
                    "time": 554.8467049999898,
                    "velocity": 0.47244094488188976,
                    "duration": 0.27332349999994676
                },
                {
                    "name": "G#3",
                    "midi": 56,
                    "time": 554.8467049999898,
                    "velocity": 0.5590551181102362,
                    "duration": 0.27332349999994676
                },
                {
                    "name": "A#2",
                    "midi": 46,
                    "time": 555.3933519999897,
                    "velocity": 0.48031496062992124,
                    "duration": 1.3666174999999612
                },
                {
                    "name": "A#3",
                    "midi": 58,
                    "time": 555.3933519999897,
                    "velocity": 0.5669291338582677,
                    "duration": 1.3666174999999612
                },
                {
                    "name": "G3",
                    "midi": 55,
                    "time": 556.7599694999897,
                    "velocity": 0.5039370078740157,
                    "duration": 0.27332349999994676
                },
                {
                    "name": "F3",
                    "midi": 53,
                    "time": 557.0332929999896,
                    "velocity": 0.5039370078740157,
                    "duration": 0.27332349999994676
                },
                {
                    "name": "D#3",
                    "midi": 51,
                    "time": 557.3066164999896,
                    "velocity": 0.5039370078740157,
                    "duration": 0.27332349999994676
                },
                {
                    "name": "G#2",
                    "midi": 44,
                    "time": 557.5799399999895,
                    "velocity": 0.48031496062992124,
                    "duration": 0.27332349999994676
                },
                {
                    "name": "G#3",
                    "midi": 56,
                    "time": 557.5799399999895,
                    "velocity": 0.5669291338582677,
                    "duration": 0.27332349999994676
                },
                {
                    "name": "A#2",
                    "midi": 46,
                    "time": 558.1265869999894,
                    "velocity": 0.48031496062992124,
                    "duration": 0.27332349999994676
                },
                {
                    "name": "A#3",
                    "midi": 58,
                    "time": 558.1265869999894,
                    "velocity": 0.5669291338582677,
                    "duration": 0.27332349999994676
                },
                {
                    "name": "C3",
                    "midi": 48,
                    "time": 558.6732339999893,
                    "velocity": 0.49606299212598426,
                    "duration": 1.3666174999999612
                },
                {
                    "name": "C4",
                    "midi": 60,
                    "time": 558.6732339999893,
                    "velocity": 0.5905511811023622,
                    "duration": 1.3666174999999612
                },
                {
                    "name": "G#3",
                    "midi": 56,
                    "time": 560.0398514999893,
                    "velocity": 0.47244094488188976,
                    "duration": 0.3279881999999361
                },
                {
                    "name": "D#3",
                    "midi": 51,
                    "time": 560.3131749999892,
                    "velocity": 0.4645669291338583,
                    "duration": 0.3279881999999361
                },
                {
                    "name": "C3",
                    "midi": 48,
                    "time": 560.5864984999891,
                    "velocity": 0.4645669291338583,
                    "duration": 0.27332349999994676
                },
                {
                    "name": "G#3",
                    "midi": 56,
                    "time": 560.8598219999891,
                    "velocity": 0.5433070866141733,
                    "duration": 0.27332349999994676
                },
                {
                    "name": "D#3",
                    "midi": 51,
                    "time": 561.133145499989,
                    "velocity": 0.47244094488188976,
                    "duration": 0.27332349999994676
                },
                {
                    "name": "C3",
                    "midi": 48,
                    "time": 561.406468999989,
                    "velocity": 0.47244094488188976,
                    "duration": 0.27332349999994676
                },
                {
                    "name": "G#2",
                    "midi": 44,
                    "time": 561.6797924999889,
                    "velocity": 0.47244094488188976,
                    "duration": 0.27332349999994676
                },
                {
                    "name": "D#3",
                    "midi": 51,
                    "time": 561.9531159999889,
                    "velocity": 0.49606299212598426,
                    "duration": 0.27332349999994676
                },
                {
                    "name": "C3",
                    "midi": 48,
                    "time": 562.2264394999888,
                    "velocity": 0.4566929133858268,
                    "duration": 0.27332349999994676
                },
                {
                    "name": "G#2",
                    "midi": 44,
                    "time": 562.4997629999888,
                    "velocity": 0.4566929133858268,
                    "duration": 0.27332349999994676
                },
                {
                    "name": "D#2",
                    "midi": 39,
                    "time": 562.7730864999887,
                    "velocity": 0.4566929133858268,
                    "duration": 0.27332349999994676
                },
                {
                    "name": "F#2",
                    "midi": 42,
                    "time": 563.0464099999887,
                    "velocity": 0.49606299212598426,
                    "duration": 0.27332349999994676
                },
                {
                    "name": "D#3",
                    "midi": 51,
                    "time": 563.3197334999886,
                    "velocity": 0.4566929133858268,
                    "duration": 0.27332349999994676
                },
                {
                    "name": "C3",
                    "midi": 48,
                    "time": 563.5930569999886,
                    "velocity": 0.4566929133858268,
                    "duration": 0.27332349999994676
                },
                {
                    "name": "F#2",
                    "midi": 42,
                    "time": 563.8663804999885,
                    "velocity": 0.4566929133858268,
                    "duration": 0.27332349999994676
                },
                {
                    "name": "F3",
                    "midi": 53,
                    "time": 564.1397039999885,
                    "velocity": 0.5669291338582677,
                    "duration": 0.27332349999994676
                },
                {
                    "name": "F2",
                    "midi": 41,
                    "time": 564.1397039999885,
                    "velocity": 0.48031496062992124,
                    "duration": 0.27332349999994676
                },
                {
                    "name": "F#2",
                    "midi": 42,
                    "time": 564.6863509999883,
                    "velocity": 0.48031496062992124,
                    "duration": 0.27332349999994676
                },
                {
                    "name": "F#3",
                    "midi": 54,
                    "time": 564.6863509999883,
                    "velocity": 0.5669291338582677,
                    "duration": 0.27332349999994676
                },
                {
                    "name": "G#2",
                    "midi": 44,
                    "time": 565.2329979999882,
                    "velocity": 0.49606299212598426,
                    "duration": 1.3666174999999612
                },
                {
                    "name": "G#3",
                    "midi": 56,
                    "time": 565.2329979999882,
                    "velocity": 0.5905511811023622,
                    "duration": 1.3666174999999612
                },
                {
                    "name": "F3",
                    "midi": 53,
                    "time": 566.5996154999882,
                    "velocity": 0.47244094488188976,
                    "duration": 0.3279881999999361
                },
                {
                    "name": "C#3",
                    "midi": 49,
                    "time": 566.8729389999882,
                    "velocity": 0.4645669291338583,
                    "duration": 0.3279881999999361
                },
                {
                    "name": "G#2",
                    "midi": 44,
                    "time": 567.1462624999881,
                    "velocity": 0.4645669291338583,
                    "duration": 0.27332349999994676
                },
                {
                    "name": "F3",
                    "midi": 53,
                    "time": 567.419585999988,
                    "velocity": 0.5433070866141733,
                    "duration": 0.27332349999994676
                },
                {
                    "name": "C3",
                    "midi": 48,
                    "time": 567.692909499988,
                    "velocity": 0.47244094488188976,
                    "duration": 0.27332349999994676
                },
                {
                    "name": "G#2",
                    "midi": 44,
                    "time": 567.9662329999879,
                    "velocity": 0.47244094488188976,
                    "duration": 0.27332349999994676
                },
                {
                    "name": "F2",
                    "midi": 41,
                    "time": 568.2395564999879,
                    "velocity": 0.47244094488188976,
                    "duration": 0.27332349999994676
                },
                {
                    "name": "C#3",
                    "midi": 49,
                    "time": 568.5128799999878,
                    "velocity": 0.49606299212598426,
                    "duration": 0.27332349999994676
                },
                {
                    "name": "G#2",
                    "midi": 44,
                    "time": 568.7862034999878,
                    "velocity": 0.4566929133858268,
                    "duration": 0.27332349999994676
                },
                {
                    "name": "F2",
                    "midi": 41,
                    "time": 569.0595269999877,
                    "velocity": 0.4566929133858268,
                    "duration": 0.27332349999994676
                },
                {
                    "name": "C#2",
                    "midi": 37,
                    "time": 569.3328504999877,
                    "velocity": 0.4566929133858268,
                    "duration": 0.27332349999994676
                },
                {
                    "name": "G#2",
                    "midi": 44,
                    "time": 569.6061739999876,
                    "velocity": 0.49606299212598426,
                    "duration": 0.27332349999994676
                },
                {
                    "name": "F2",
                    "midi": 41,
                    "time": 569.8794974999876,
                    "velocity": 0.4566929133858268,
                    "duration": 0.27332349999994676
                },
                {
                    "name": "D#2",
                    "midi": 39,
                    "time": 570.1528209999875,
                    "velocity": 0.4566929133858268,
                    "duration": 0.27332349999994676
                },
                {
                    "name": "C#2",
                    "midi": 37,
                    "time": 570.4261444999875,
                    "velocity": 0.4566929133858268,
                    "duration": 0.27332349999994676
                },
                {
                    "name": "A#3",
                    "midi": 58,
                    "time": 570.6994679999874,
                    "velocity": 0.5669291338582677,
                    "duration": 0.27332349999994676
                },
                {
                    "name": "A#2",
                    "midi": 46,
                    "time": 570.6994679999874,
                    "velocity": 0.48031496062992124,
                    "duration": 0.27332349999994676
                },
                {
                    "name": "B3",
                    "midi": 59,
                    "time": 571.2461149999873,
                    "velocity": 0.5669291338582677,
                    "duration": 0.27332349999994676
                },
                {
                    "name": "B2",
                    "midi": 47,
                    "time": 571.2461149999873,
                    "velocity": 0.48031496062992124,
                    "duration": 0.27332349999994676
                },
                {
                    "name": "C#4",
                    "midi": 61,
                    "time": 571.7927619999872,
                    "velocity": 0.5905511811023622,
                    "duration": 1.3666174999999612
                },
                {
                    "name": "C#3",
                    "midi": 49,
                    "time": 571.7927619999872,
                    "velocity": 0.49606299212598426,
                    "duration": 1.3666174999999612
                },
                {
                    "name": "A#3",
                    "midi": 58,
                    "time": 573.1593794999872,
                    "velocity": 0.47244094488188976,
                    "duration": 0.3279881999999361
                },
                {
                    "name": "F#3",
                    "midi": 54,
                    "time": 573.4327029999871,
                    "velocity": 0.4645669291338583,
                    "duration": 0.3279881999999361
                },
                {
                    "name": "C#3",
                    "midi": 49,
                    "time": 573.706026499987,
                    "velocity": 0.4645669291338583,
                    "duration": 0.27332349999994676
                },
                {
                    "name": "A#3",
                    "midi": 58,
                    "time": 573.979349999987,
                    "velocity": 0.5433070866141733,
                    "duration": 0.27332349999994676
                },
                {
                    "name": "F#3",
                    "midi": 54,
                    "time": 574.2526734999869,
                    "velocity": 0.47244094488188976,
                    "duration": 0.27332349999994676
                },
                {
                    "name": "C#3",
                    "midi": 49,
                    "time": 574.5259969999869,
                    "velocity": 0.47244094488188976,
                    "duration": 0.27332349999994676
                },
                {
                    "name": "A#2",
                    "midi": 46,
                    "time": 574.7993204999868,
                    "velocity": 0.47244094488188976,
                    "duration": 0.27332349999994676
                },
                {
                    "name": "F#3",
                    "midi": 54,
                    "time": 575.0726439999868,
                    "velocity": 0.49606299212598426,
                    "duration": 0.27332349999994676
                },
                {
                    "name": "C#3",
                    "midi": 49,
                    "time": 575.3459674999867,
                    "velocity": 0.4566929133858268,
                    "duration": 0.27332349999994676
                },
                {
                    "name": "A#2",
                    "midi": 46,
                    "time": 575.6192909999867,
                    "velocity": 0.4566929133858268,
                    "duration": 0.27332349999994676
                },
                {
                    "name": "F#2",
                    "midi": 42,
                    "time": 575.8926144999866,
                    "velocity": 0.4566929133858268,
                    "duration": 0.27332349999994676
                },
                {
                    "name": "C#3",
                    "midi": 49,
                    "time": 576.1659379999866,
                    "velocity": 0.49606299212598426,
                    "duration": 0.27332349999994676
                },
                {
                    "name": "A#2",
                    "midi": 46,
                    "time": 576.4392614999865,
                    "velocity": 0.4566929133858268,
                    "duration": 0.27332349999994676
                },
                {
                    "name": "G#2",
                    "midi": 44,
                    "time": 576.7125849999865,
                    "velocity": 0.4566929133858268,
                    "duration": 0.27332349999994676
                },
                {
                    "name": "F#2",
                    "midi": 42,
                    "time": 576.9859084999864,
                    "velocity": 0.4566929133858268,
                    "duration": 0.27332349999994676
                },
                {
                    "name": "D3",
                    "midi": 50,
                    "time": 577.2592319999864,
                    "velocity": 0.5669291338582677,
                    "duration": 0.27332349999994676
                },
                {
                    "name": "D2",
                    "midi": 38,
                    "time": 577.2592319999864,
                    "velocity": 0.48031496062992124,
                    "duration": 0.27332349999994676
                },
                {
                    "name": "E3",
                    "midi": 52,
                    "time": 577.8058789999862,
                    "velocity": 0.5669291338582677,
                    "duration": 0.27332349999994676
                },
                {
                    "name": "E2",
                    "midi": 40,
                    "time": 577.8058789999862,
                    "velocity": 0.48031496062992124,
                    "duration": 0.27332349999994676
                },
                {
                    "name": "F#3",
                    "midi": 54,
                    "time": 578.3525259999861,
                    "velocity": 0.5905511811023622,
                    "duration": 1.3666174999999612
                },
                {
                    "name": "F#2",
                    "midi": 42,
                    "time": 578.3525259999861,
                    "velocity": 0.49606299212598426,
                    "duration": 1.3666174999999612
                },
                {
                    "name": "D3",
                    "midi": 50,
                    "time": 579.7191434999861,
                    "velocity": 0.47244094488188976,
                    "duration": 0.3279881999999361
                },
                {
                    "name": "B2",
                    "midi": 47,
                    "time": 579.992466999986,
                    "velocity": 0.4645669291338583,
                    "duration": 0.3279881999999361
                },
                {
                    "name": "F#2",
                    "midi": 42,
                    "time": 580.265790499986,
                    "velocity": 0.4645669291338583,
                    "duration": 0.27332349999994676
                },
                {
                    "name": "D3",
                    "midi": 50,
                    "time": 580.539113999986,
                    "velocity": 0.5433070866141733,
                    "duration": 0.27332349999994676
                },
                {
                    "name": "B2",
                    "midi": 47,
                    "time": 580.8124374999859,
                    "velocity": 0.47244094488188976,
                    "duration": 0.27332349999994676
                },
                {
                    "name": "F#2",
                    "midi": 42,
                    "time": 581.0857609999858,
                    "velocity": 0.47244094488188976,
                    "duration": 0.27332349999994676
                },
                {
                    "name": "D2",
                    "midi": 38,
                    "time": 581.3590844999858,
                    "velocity": 0.47244094488188976,
                    "duration": 0.27332349999994676
                },
                {
                    "name": "B2",
                    "midi": 47,
                    "time": 581.6324079999857,
                    "velocity": 0.49606299212598426,
                    "duration": 0.27332349999994676
                },
                {
                    "name": "F#2",
                    "midi": 42,
                    "time": 581.9057314999857,
                    "velocity": 0.4566929133858268,
                    "duration": 0.27332349999994676
                },
                {
                    "name": "D2",
                    "midi": 38,
                    "time": 582.1790549999856,
                    "velocity": 0.4566929133858268,
                    "duration": 0.27332349999994676
                },
                {
                    "name": "B1",
                    "midi": 35,
                    "time": 582.4523784999856,
                    "velocity": 0.4566929133858268,
                    "duration": 0.27332349999994676
                },
                {
                    "name": "F#2",
                    "midi": 42,
                    "time": 582.7257019999855,
                    "velocity": 0.5118110236220472,
                    "duration": 0.27332349999994676
                },
                {
                    "name": "D2",
                    "midi": 38,
                    "time": 582.9990254999855,
                    "velocity": 0.4566929133858268,
                    "duration": 0.27332349999994676
                },
                {
                    "name": "C#2",
                    "midi": 37,
                    "time": 583.2723489999854,
                    "velocity": 0.49606299212598426,
                    "duration": 0.27332349999994676
                },
                {
                    "name": "B1",
                    "midi": 35,
                    "time": 583.5456724999854,
                    "velocity": 0.5196850393700787,
                    "duration": 0.27332349999994676
                },
                {
                    "name": "D5",
                    "midi": 74,
                    "time": 583.8189959999853,
                    "velocity": 0.5118110236220472,
                    "duration": 0.5466470000000072
                },
                {
                    "name": "F#1",
                    "midi": 30,
                    "time": 583.8189959999853,
                    "velocity": 0.5826771653543307,
                    "duration": 0.5466470000000072
                },
                {
                    "name": "C#5",
                    "midi": 73,
                    "time": 584.3656429999853,
                    "velocity": 0.5118110236220472,
                    "duration": 0.3279881999999361
                },
                {
                    "name": "B4",
                    "midi": 71,
                    "time": 584.6389664999853,
                    "velocity": 0.5118110236220472,
                    "duration": 0.27332349999994676
                },
                {
                    "name": "D5",
                    "midi": 74,
                    "time": 584.9122899999852,
                    "velocity": 0.5118110236220472,
                    "duration": 0.3279881999999361
                },
                {
                    "name": "B4",
                    "midi": 71,
                    "time": 585.1856134999852,
                    "velocity": 0.47244094488188976,
                    "duration": 0.3279881999999361
                },
                {
                    "name": "G4",
                    "midi": 67,
                    "time": 585.4589369999851,
                    "velocity": 0.48031496062992124,
                    "duration": 0.3279881999999361
                },
                {
                    "name": "F#4",
                    "midi": 66,
                    "time": 585.732260499985,
                    "velocity": 0.48031496062992124,
                    "duration": 0.27332349999994676
                },
                {
                    "name": "B4",
                    "midi": 71,
                    "time": 586.005583999985,
                    "velocity": 0.5118110236220472,
                    "duration": 0.3279881999999361
                },
                {
                    "name": "F#4",
                    "midi": 66,
                    "time": 586.2789074999849,
                    "velocity": 0.4566929133858268,
                    "duration": 0.3279881999999361
                },
                {
                    "name": "E4",
                    "midi": 64,
                    "time": 586.5522309999849,
                    "velocity": 0.4566929133858268,
                    "duration": 0.3279881999999361
                },
                {
                    "name": "D4",
                    "midi": 62,
                    "time": 586.8255544999848,
                    "velocity": 0.4566929133858268,
                    "duration": 0.27332349999994676
                },
                {
                    "name": "F#4",
                    "midi": 66,
                    "time": 587.0988779999848,
                    "velocity": 0.49606299212598426,
                    "duration": 0.3279881999999361
                },
                {
                    "name": "D4",
                    "midi": 62,
                    "time": 587.3722014999847,
                    "velocity": 0.4251968503937008,
                    "duration": 0.3279881999999361
                },
                {
                    "name": "C#4",
                    "midi": 61,
                    "time": 587.6455249999847,
                    "velocity": 0.4251968503937008,
                    "duration": 0.3279881999999361
                },
                {
                    "name": "B3",
                    "midi": 59,
                    "time": 587.9188484999846,
                    "velocity": 0.4251968503937008,
                    "duration": 0.27332349999994676
                },
                {
                    "name": "D4",
                    "midi": 62,
                    "time": 588.1921719999846,
                    "velocity": 0.4645669291338583,
                    "duration": 0.3279881999999361
                },
                {
                    "name": "B3",
                    "midi": 59,
                    "time": 588.4654954999845,
                    "velocity": 0.3858267716535433,
                    "duration": 0.3279881999999361
                },
                {
                    "name": "G3",
                    "midi": 55,
                    "time": 588.7388189999845,
                    "velocity": 0.3937007874015748,
                    "duration": 0.3279881999999361
                },
                {
                    "name": "F#3",
                    "midi": 54,
                    "time": 589.0121424999844,
                    "velocity": 0.3937007874015748,
                    "duration": 0.27332349999994676
                },
                {
                    "name": "G3",
                    "midi": 55,
                    "time": 589.2854659999844,
                    "velocity": 0.4645669291338583,
                    "duration": 0.27332349999994676
                },
                {
                    "name": "F#3",
                    "midi": 54,
                    "time": 589.5587894999843,
                    "velocity": 0.3228346456692913,
                    "duration": 0.3279881999999361
                },
                {
                    "name": "G#3",
                    "midi": 56,
                    "time": 589.8321129999842,
                    "velocity": 0.3228346456692913,
                    "duration": 0.3279881999999361
                },
                {
                    "name": "A#3",
                    "midi": 58,
                    "time": 590.1054364999842,
                    "velocity": 0.3228346456692913,
                    "duration": 0.27332349999994676
                },
                {
                    "name": "B3",
                    "midi": 59,
                    "time": 590.3787599999841,
                    "velocity": 0.31496062992125984,
                    "duration": 0.3279881999999361
                },
                {
                    "name": "C#4",
                    "midi": 61,
                    "time": 590.6520834999841,
                    "velocity": 0.28346456692913385,
                    "duration": 0.3279881999999361
                },
                {
                    "name": "D4",
                    "midi": 62,
                    "time": 590.925406999984,
                    "velocity": 0.29133858267716534,
                    "duration": 0.3279881999999361
                },
                {
                    "name": "E4",
                    "midi": 64,
                    "time": 591.198730499984,
                    "velocity": 0.30708661417322836,
                    "duration": 0.3279881999999361
                },
                {
                    "name": "F#4",
                    "midi": 66,
                    "time": 591.4720539999839,
                    "velocity": 0.31496062992125984,
                    "duration": 0.3279881999999361
                },
                {
                    "name": "G4",
                    "midi": 67,
                    "time": 591.7453774999839,
                    "velocity": 0.3228346456692913,
                    "duration": 0.3279881999999361
                },
                {
                    "name": "F#4",
                    "midi": 66,
                    "time": 592.0187009999838,
                    "velocity": 0.3228346456692913,
                    "duration": 0.3279881999999361
                },
                {
                    "name": "F4",
                    "midi": 65,
                    "time": 592.2920244999838,
                    "velocity": 0.31496062992125984,
                    "duration": 0.3279881999999361
                },
                {
                    "name": "E4",
                    "midi": 64,
                    "time": 592.5653479999837,
                    "velocity": 0.2992125984251969,
                    "duration": 0.3279881999999361
                },
                {
                    "name": "D4",
                    "midi": 62,
                    "time": 592.8386714999837,
                    "velocity": 0.29133858267716534,
                    "duration": 0.3279881999999361
                },
                {
                    "name": "C#4",
                    "midi": 61,
                    "time": 593.1119949999836,
                    "velocity": 0.28346456692913385,
                    "duration": 0.3279881999999361
                },
                {
                    "name": "B3",
                    "midi": 59,
                    "time": 593.3853184999836,
                    "velocity": 0.2755905511811024,
                    "duration": 0.27332349999994676
                },
                {
                    "name": "C#4",
                    "midi": 61,
                    "time": 593.6586419999835,
                    "velocity": 0.2755905511811024,
                    "duration": 0.3279881999999361
                },
                {
                    "name": "D4",
                    "midi": 62,
                    "time": 593.9319654999834,
                    "velocity": 0.29133858267716534,
                    "duration": 0.3279881999999361
                },
                {
                    "name": "C#4",
                    "midi": 61,
                    "time": 594.2052889999834,
                    "velocity": 0.28346456692913385,
                    "duration": 0.3279881999999361
                },
                {
                    "name": "C4",
                    "midi": 60,
                    "time": 594.4786124999833,
                    "velocity": 0.28346456692913385,
                    "duration": 0.3279881999999361
                },
                {
                    "name": "B3",
                    "midi": 59,
                    "time": 594.7519359999833,
                    "velocity": 0.2755905511811024,
                    "duration": 0.3279881999999361
                },
                {
                    "name": "A#3",
                    "midi": 58,
                    "time": 595.0252594999832,
                    "velocity": 0.2677165354330709,
                    "duration": 0.3279881999999361
                },
                {
                    "name": "G#3",
                    "midi": 56,
                    "time": 595.2985829999832,
                    "velocity": 0.25984251968503935,
                    "duration": 0.3279881999999361
                },
                {
                    "name": "F#3",
                    "midi": 54,
                    "time": 595.5719064999831,
                    "velocity": 0.25196850393700787,
                    "duration": 0.3279881999999361
                },
                {
                    "name": "G#3",
                    "midi": 56,
                    "time": 595.8452299999831,
                    "velocity": 0.28346456692913385,
                    "duration": 0.3279881999999361
                },
                {
                    "name": "A#3",
                    "midi": 58,
                    "time": 596.118553499983,
                    "velocity": 0.2755905511811024,
                    "duration": 0.3279881999999361
                },
                {
                    "name": "B3",
                    "midi": 59,
                    "time": 596.391876999983,
                    "velocity": 0.30708661417322836,
                    "duration": 0.3279881999999361
                },
                {
                    "name": "A#3",
                    "midi": 58,
                    "time": 596.6652004999829,
                    "velocity": 0.2677165354330709,
                    "duration": 0.3279881999999361
                },
                {
                    "name": "B3",
                    "midi": 59,
                    "time": 596.9385239999829,
                    "velocity": 0.28346456692913385,
                    "duration": 0.3279881999999361
                },
                {
                    "name": "C#4",
                    "midi": 61,
                    "time": 597.2118474999828,
                    "velocity": 0.2677165354330709,
                    "duration": 0.3279881999999361
                },
                {
                    "name": "D4",
                    "midi": 62,
                    "time": 597.4851709999828,
                    "velocity": 0.3228346456692913,
                    "duration": 0.3279881999999361
                },
                {
                    "name": "C#4",
                    "midi": 61,
                    "time": 597.7584944999827,
                    "velocity": 0.2755905511811024,
                    "duration": 0.3279881999999361
                },
                {
                    "name": "D4",
                    "midi": 62,
                    "time": 598.0318179999826,
                    "velocity": 0.30708661417322836,
                    "duration": 0.3279881999999361
                },
                {
                    "name": "E4",
                    "midi": 64,
                    "time": 598.3051414999826,
                    "velocity": 0.28346456692913385,
                    "duration": 0.27332349999994676
                },
                {
                    "name": "E4",
                    "midi": 64,
                    "time": 599.1251119999826,
                    "velocity": 0.28346456692913385,
                    "duration": 1.0932940000000144
                },
                {
                    "name": "B3",
                    "midi": 59,
                    "time": 600.2184059999826,
                    "velocity": 0.30708661417322836,
                    "duration": 0.3279881999999361
                },
                {
                    "name": "C#4",
                    "midi": 61,
                    "time": 600.4917294999825,
                    "velocity": 0.30708661417322836,
                    "duration": 0.3279881999999361
                },
                {
                    "name": "D4",
                    "midi": 62,
                    "time": 600.7650529999825,
                    "velocity": 0.2677165354330709,
                    "duration": 0.3279881999999361
                },
                {
                    "name": "E4",
                    "midi": 64,
                    "time": 601.0383764999824,
                    "velocity": 0.2677165354330709,
                    "duration": 0.3279881999999361
                },
                {
                    "name": "F#4",
                    "midi": 66,
                    "time": 601.3116999999824,
                    "velocity": 0.30708661417322836,
                    "duration": 0.3279881999999361
                },
                {
                    "name": "G4",
                    "midi": 67,
                    "time": 601.5850234999823,
                    "velocity": 0.2677165354330709,
                    "duration": 0.27332349999994676
                },
                {
                    "name": "G4",
                    "midi": 67,
                    "time": 602.4049939999823,
                    "velocity": 0.28346456692913385,
                    "duration": 1.0932940000000144
                },
                {
                    "name": "D4",
                    "midi": 62,
                    "time": 603.4982879999823,
                    "velocity": 0.30708661417322836,
                    "duration": 0.3279881999999361
                },
                {
                    "name": "E4",
                    "midi": 64,
                    "time": 603.7716114999822,
                    "velocity": 0.28346456692913385,
                    "duration": 0.3279881999999361
                },
                {
                    "name": "F#4",
                    "midi": 66,
                    "time": 604.0449349999822,
                    "velocity": 0.28346456692913385,
                    "duration": 0.3279881999999361
                },
                {
                    "name": "G#4",
                    "midi": 68,
                    "time": 604.3182584999821,
                    "velocity": 0.28346456692913385,
                    "duration": 0.3279881999999361
                },
                {
                    "name": "A#4",
                    "midi": 70,
                    "time": 604.591581999982,
                    "velocity": 0.30708661417322836,
                    "duration": 0.3279881999999361
                },
                {
                    "name": "B4",
                    "midi": 71,
                    "time": 604.864905499982,
                    "velocity": 0.2755905511811024,
                    "duration": 0.27332349999994676
                },
                {
                    "name": "B4",
                    "midi": 71,
                    "time": 605.684875999982,
                    "velocity": 0.28346456692913385,
                    "duration": 1.0932940000000144
                },
                {
                    "name": "A#4",
                    "midi": 70,
                    "time": 606.778169999982,
                    "velocity": 0.25984251968503935,
                    "duration": 0.18221566666670697
                },
                {
                    "name": "B4",
                    "midi": 71,
                    "time": 606.9603856666487,
                    "velocity": 0.2125984251968504,
                    "duration": 0.18221566666670697
                },
                {
                    "name": "A#4",
                    "midi": 70,
                    "time": 607.1426013333154,
                    "velocity": 0.25196850393700787,
                    "duration": 0.18221566666670697
                },
                {
                    "name": "B4",
                    "midi": 71,
                    "time": 607.3248169999821,
                    "velocity": 0.2204724409448819,
                    "duration": 0.18221566666670697
                },
                {
                    "name": "A#4",
                    "midi": 70,
                    "time": 607.5070326666488,
                    "velocity": 0.25196850393700787,
                    "duration": 0.18221566666670697
                },
                {
                    "name": "B4",
                    "midi": 71,
                    "time": 607.6892483333155,
                    "velocity": 0.25196850393700787,
                    "duration": 0.18221566666670697
                },
                {
                    "name": "A#4",
                    "midi": 70,
                    "time": 607.8714639999822,
                    "velocity": 0.25984251968503935,
                    "duration": 0.18221566666670697
                },
                {
                    "name": "B4",
                    "midi": 71,
                    "time": 608.0536796666489,
                    "velocity": 0.25984251968503935,
                    "duration": 0.18221566666670697
                },
                {
                    "name": "A#4",
                    "midi": 70,
                    "time": 608.2358953333156,
                    "velocity": 0.2204724409448819,
                    "duration": 0.18221566666670697
                },
                {
                    "name": "B4",
                    "midi": 71,
                    "time": 608.4181109999823,
                    "velocity": 0.25984251968503935,
                    "duration": 0.13666175000003022
                },
                {
                    "name": "A#4",
                    "midi": 70,
                    "time": 608.5547727499824,
                    "velocity": 0.2283464566929134,
                    "duration": 0.13666175000003022
                },
                {
                    "name": "G#4",
                    "midi": 68,
                    "time": 608.6914344999824,
                    "velocity": 0.2283464566929134,
                    "duration": 0.13666175000003022
                },
                {
                    "name": "A#4",
                    "midi": 70,
                    "time": 608.8280962499824,
                    "velocity": 0.23622047244094488,
                    "duration": 0.13666175000003022
                },
                {
                    "name": "F#3",
                    "midi": 54,
                    "time": 608.9647579999825,
                    "velocity": 0.3937007874015748,
                    "duration": 0.5466470000000072
                },
                {
                    "name": "B3",
                    "midi": 59,
                    "time": 611.1513459999825,
                    "velocity": 0.3937007874015748,
                    "duration": 0.5466470000000072
                },
                {
                    "name": "D5",
                    "midi": 74,
                    "time": 612.2446399999825,
                    "velocity": 0.28346456692913385,
                    "duration": 0.18221566666670697
                },
                {
                    "name": "E5",
                    "midi": 76,
                    "time": 612.4268556666492,
                    "velocity": 0.2677165354330709,
                    "duration": 0.18221566666670697
                },
                {
                    "name": "D5",
                    "midi": 74,
                    "time": 612.6090713333159,
                    "velocity": 0.29133858267716534,
                    "duration": 0.18221566666670697
                },
                {
                    "name": "E5",
                    "midi": 76,
                    "time": 612.7912869999826,
                    "velocity": 0.2755905511811024,
                    "duration": 0.18221566666670697
                },
                {
                    "name": "D5",
                    "midi": 74,
                    "time": 612.9735026666493,
                    "velocity": 0.30708661417322836,
                    "duration": 0.18221566666670697
                },
                {
                    "name": "E5",
                    "midi": 76,
                    "time": 613.155718333316,
                    "velocity": 0.28346456692913385,
                    "duration": 0.18221566666670697
                },
                {
                    "name": "D5",
                    "midi": 74,
                    "time": 613.3379339999827,
                    "velocity": 0.31496062992125984,
                    "duration": 0.18221566666670697
                },
                {
                    "name": "E5",
                    "midi": 76,
                    "time": 613.5201496666494,
                    "velocity": 0.29133858267716534,
                    "duration": 0.18221566666670697
                },
                {
                    "name": "D5",
                    "midi": 74,
                    "time": 613.7023653333162,
                    "velocity": 0.3228346456692913,
                    "duration": 0.18221566666670697
                },
                {
                    "name": "D5",
                    "midi": 74,
                    "time": 614.0212427499829,
                    "velocity": 0.33070866141732286,
                    "duration": 0.13666175000003022
                },
                {
                    "name": "C#5",
                    "midi": 73,
                    "time": 614.1579044999829,
                    "velocity": 0.33858267716535434,
                    "duration": 0.13666175000003022
                },
                {
                    "name": "D5",
                    "midi": 74,
                    "time": 614.294566249983,
                    "velocity": 0.3779527559055118,
                    "duration": 0.13666175000003022
                },
                {
                    "name": "E5",
                    "midi": 76,
                    "time": 614.431227999983,
                    "velocity": 0.4251968503937008,
                    "duration": 1.0932940000000144
                },
                {
                    "name": "A2",
                    "midi": 45,
                    "time": 615.524521999983,
                    "velocity": 0.3937007874015748,
                    "duration": 0.5466470000000072
                },
                {
                    "name": "G4",
                    "midi": 67,
                    "time": 615.524521999983,
                    "velocity": 0.3228346456692913,
                    "duration": 1.0932940000000144
                },
                {
                    "name": "C#4",
                    "midi": 61,
                    "time": 616.617815999983,
                    "velocity": 0.28346456692913385,
                    "duration": 0.18221566666670697
                },
                {
                    "name": "D4",
                    "midi": 62,
                    "time": 616.8000316666497,
                    "velocity": 0.2677165354330709,
                    "duration": 0.18221566666670697
                },
                {
                    "name": "C#4",
                    "midi": 61,
                    "time": 616.9822473333164,
                    "velocity": 0.29133858267716534,
                    "duration": 0.18221566666670697
                },
                {
                    "name": "D4",
                    "midi": 62,
                    "time": 617.1644629999831,
                    "velocity": 0.2755905511811024,
                    "duration": 0.18221566666670697
                },
                {
                    "name": "C#4",
                    "midi": 61,
                    "time": 617.3466786666498,
                    "velocity": 0.30708661417322836,
                    "duration": 0.18221566666670697
                },
                {
                    "name": "D4",
                    "midi": 62,
                    "time": 617.5288943333165,
                    "velocity": 0.28346456692913385,
                    "duration": 0.18221566666670697
                },
                {
                    "name": "C#4",
                    "midi": 61,
                    "time": 617.7111099999833,
                    "velocity": 0.31496062992125984,
                    "duration": 0.18221566666670697
                },
                {
                    "name": "D4",
                    "midi": 62,
                    "time": 617.89332566665,
                    "velocity": 0.29133858267716534,
                    "duration": 0.18221566666670697
                },
                {
                    "name": "C#4",
                    "midi": 61,
                    "time": 618.0755413333167,
                    "velocity": 0.3228346456692913,
                    "duration": 0.18221566666670697
                },
                {
                    "name": "D4",
                    "midi": 62,
                    "time": 618.2577569999834,
                    "velocity": 0.29133858267716534,
                    "duration": 0.13666175000003022
                },
                {
                    "name": "C#4",
                    "midi": 61,
                    "time": 618.3944187499834,
                    "velocity": 0.33858267716535434,
                    "duration": 0.13666175000003022
                },
                {
                    "name": "B3",
                    "midi": 59,
                    "time": 618.5310804999834,
                    "velocity": 0.33858267716535434,
                    "duration": 0.13666175000003022
                },
                {
                    "name": "C#4",
                    "midi": 61,
                    "time": 618.6677422499835,
                    "velocity": 0.3779527559055118,
                    "duration": 0.13666175000003022
                },
                {
                    "name": "D4",
                    "midi": 62,
                    "time": 618.8044039999835,
                    "velocity": 0.4251968503937008,
                    "duration": 1.0932940000000144
                },
                {
                    "name": "A4",
                    "midi": 69,
                    "time": 619.3510509999835,
                    "velocity": 0.3464566929133858,
                    "duration": 0.5466470000000072
                },
                {
                    "name": "B4",
                    "midi": 71,
                    "time": 619.8976979999835,
                    "velocity": 0.3937007874015748,
                    "duration": 0.5466470000000072
                },
                {
                    "name": "G4",
                    "midi": 67,
                    "time": 620.4443449999835,
                    "velocity": 0.3858267716535433,
                    "duration": 0.5466470000000072
                },
                {
                    "name": "F#4",
                    "midi": 66,
                    "time": 620.9909919999835,
                    "velocity": 0.3700787401574803,
                    "duration": 0.5466470000000072
                },
                {
                    "name": "F4",
                    "midi": 65,
                    "time": 621.5376389999835,
                    "velocity": 0.3543307086614173,
                    "duration": 0.5466470000000072
                },
                {
                    "name": "F#4",
                    "midi": 66,
                    "time": 622.0842859999835,
                    "velocity": 0.3700787401574803,
                    "duration": 2.186588000000029
                },
                {
                    "name": "A3",
                    "midi": 57,
                    "time": 622.0842859999835,
                    "velocity": 0.3700787401574803,
                    "duration": 1.0932940000000144
                },
                {
                    "name": "G3",
                    "midi": 55,
                    "time": 623.1775799999835,
                    "velocity": 0.3700787401574803,
                    "duration": 2.186588000000029
                },
                {
                    "name": "E4",
                    "midi": 64,
                    "time": 624.2708739999836,
                    "velocity": 0.4015748031496063,
                    "duration": 1.0932940000000144
                },
                {
                    "name": "G3",
                    "midi": 55,
                    "time": 625.3641679999836,
                    "velocity": 0.3700787401574803,
                    "duration": 1.0932940000000144
                },
                {
                    "name": "E3",
                    "midi": 52,
                    "time": 625.3641679999836,
                    "velocity": 0.3700787401574803,
                    "duration": 1.0932940000000144
                },
                {
                    "name": "B3",
                    "midi": 59,
                    "time": 626.4574619999836,
                    "velocity": 0.3700787401574803,
                    "duration": 1.0932940000000144
                },
                {
                    "name": "F#3",
                    "midi": 54,
                    "time": 626.4574619999836,
                    "velocity": 0.3700787401574803,
                    "duration": 2.186588000000029
                },
                {
                    "name": "A3",
                    "midi": 57,
                    "time": 627.5507559999836,
                    "velocity": 0.3543307086614173,
                    "duration": 1.0932940000000144
                },
                {
                    "name": "E3",
                    "midi": 52,
                    "time": 628.6440499999836,
                    "velocity": 0.3464566929133858,
                    "duration": 2.186588000000029
                },
                {
                    "name": "G3",
                    "midi": 55,
                    "time": 628.6440499999836,
                    "velocity": 0.3464566929133858,
                    "duration": 2.186588000000029
                },
                {
                    "name": "D3",
                    "midi": 50,
                    "time": 630.8306379999837,
                    "velocity": 0.3700787401574803,
                    "duration": 1.0932940000000144
                },
                {
                    "name": "F#3",
                    "midi": 54,
                    "time": 630.8306379999837,
                    "velocity": 0.3700787401574803,
                    "duration": 1.0932940000000144
                },
                {
                    "name": "D3",
                    "midi": 50,
                    "time": 631.9239319999837,
                    "velocity": 0.3543307086614173,
                    "duration": 1.0932940000000144
                },
                {
                    "name": "G3",
                    "midi": 55,
                    "time": 631.9239319999837,
                    "velocity": 0.3543307086614173,
                    "duration": 1.0932940000000144
                },
                {
                    "name": "D3",
                    "midi": 50,
                    "time": 633.0172259999837,
                    "velocity": 0.3700787401574803,
                    "duration": 1.0932940000000144
                },
                {
                    "name": "G3",
                    "midi": 55,
                    "time": 633.0172259999837,
                    "velocity": 0.3700787401574803,
                    "duration": 0.5466470000000072
                },
                {
                    "name": "F#3",
                    "midi": 54,
                    "time": 633.5638729999837,
                    "velocity": 0.33858267716535434,
                    "duration": 0.5466470000000072
                },
                {
                    "name": "E3",
                    "midi": 52,
                    "time": 634.1105199999837,
                    "velocity": 0.3700787401574803,
                    "duration": 0.5466470000000072
                },
                {
                    "name": "A2",
                    "midi": 45,
                    "time": 634.1105199999837,
                    "velocity": 0.3700787401574803,
                    "duration": 1.0932940000000144
                },
                {
                    "name": "F#3",
                    "midi": 54,
                    "time": 634.6571669999837,
                    "velocity": 0.33070866141732286,
                    "duration": 0.5466470000000072
                },
                {
                    "name": "F#3",
                    "midi": 54,
                    "time": 635.2038139999837,
                    "velocity": 0.3700787401574803,
                    "duration": 1.0932940000000144
                },
                {
                    "name": "G#3",
                    "midi": 56,
                    "time": 635.2038139999837,
                    "velocity": 0.3700787401574803,
                    "duration": 0.5466470000000072
                },
                {
                    "name": "A3",
                    "midi": 57,
                    "time": 635.7504609999837,
                    "velocity": 0.33070866141732286,
                    "duration": 0.5466470000000072
                },
                {
                    "name": "G3",
                    "midi": 55,
                    "time": 636.2971079999837,
                    "velocity": 0.4094488188976378,
                    "duration": 2.186588000000029
                },
                {
                    "name": "E3",
                    "midi": 52,
                    "time": 636.2971079999837,
                    "velocity": 0.4094488188976378,
                    "duration": 1.0932940000000144
                },
                {
                    "name": "A#2",
                    "midi": 46,
                    "time": 637.3904019999837,
                    "velocity": 0.36220472440944884,
                    "duration": 1.0932940000000144
                },
                {
                    "name": "F#3",
                    "midi": 54,
                    "time": 638.4836959999838,
                    "velocity": 0.36220472440944884,
                    "duration": 0.5466470000000072
                },
                {
                    "name": "F#3",
                    "midi": 54,
                    "time": 641.7635779999838,
                    "velocity": 0.3228346456692913,
                    "duration": 0.27332349999994676
                },
                {
                    "name": "E3",
                    "midi": 52,
                    "time": 642.0369014999837,
                    "velocity": 0.30708661417322836,
                    "duration": 0.27332349999994676
                },
                {
                    "name": "D3",
                    "midi": 50,
                    "time": 642.3102249999837,
                    "velocity": 0.30708661417322836,
                    "duration": 0.27332349999994676
                },
                {
                    "name": "C#3",
                    "midi": 49,
                    "time": 642.5835484999836,
                    "velocity": 0.30708661417322836,
                    "duration": 0.27332349999994676
                },
                {
                    "name": "B2",
                    "midi": 47,
                    "time": 642.8568719999836,
                    "velocity": 0.30708661417322836,
                    "duration": 0.3279881999999361
                },
                {
                    "name": "C#3",
                    "midi": 49,
                    "time": 643.1301954999835,
                    "velocity": 0.2992125984251969,
                    "duration": 0.3279881999999361
                },
                {
                    "name": "D3",
                    "midi": 50,
                    "time": 643.4035189999835,
                    "velocity": 0.2992125984251969,
                    "duration": 0.3279881999999361
                },
                {
                    "name": "E3",
                    "midi": 52,
                    "time": 643.6768424999834,
                    "velocity": 0.2992125984251969,
                    "duration": 0.3279881999999361
                },
                {
                    "name": "F#3",
                    "midi": 54,
                    "time": 643.9501659999834,
                    "velocity": 0.3228346456692913,
                    "duration": 0.3279881999999361
                },
                {
                    "name": "G3",
                    "midi": 55,
                    "time": 644.2234894999833,
                    "velocity": 0.2992125984251969,
                    "duration": 0.3279881999999361
                },
                {
                    "name": "F#3",
                    "midi": 54,
                    "time": 644.4968129999833,
                    "velocity": 0.2992125984251969,
                    "duration": 0.3279881999999361
                },
                {
                    "name": "F3",
                    "midi": 53,
                    "time": 644.7701364999832,
                    "velocity": 0.2992125984251969,
                    "duration": 0.3279881999999361
                },
                {
                    "name": "E3",
                    "midi": 52,
                    "time": 645.0434599999832,
                    "velocity": 0.3228346456692913,
                    "duration": 0.3279881999999361
                },
                {
                    "name": "D3",
                    "midi": 50,
                    "time": 645.3167834999831,
                    "velocity": 0.29133858267716534,
                    "duration": 0.3279881999999361
                },
                {
                    "name": "C#3",
                    "midi": 49,
                    "time": 645.590106999983,
                    "velocity": 0.29133858267716534,
                    "duration": 0.3279881999999361
                },
                {
                    "name": "B2",
                    "midi": 47,
                    "time": 645.863430499983,
                    "velocity": 0.29133858267716534,
                    "duration": 0.3279881999999361
                },
                {
                    "name": "C#3",
                    "midi": 49,
                    "time": 646.136753999983,
                    "velocity": 0.29133858267716534,
                    "duration": 0.3279881999999361
                },
                {
                    "name": "D3",
                    "midi": 50,
                    "time": 646.4100774999829,
                    "velocity": 0.28346456692913385,
                    "duration": 0.3279881999999361
                },
                {
                    "name": "C#3",
                    "midi": 49,
                    "time": 646.6834009999828,
                    "velocity": 0.28346456692913385,
                    "duration": 0.3279881999999361
                },
                {
                    "name": "C3",
                    "midi": 48,
                    "time": 646.9567244999828,
                    "velocity": 0.28346456692913385,
                    "duration": 0.3279881999999361
                },
                {
                    "name": "B2",
                    "midi": 47,
                    "time": 647.2300479999827,
                    "velocity": 0.3228346456692913,
                    "duration": 0.3279881999999361
                },
                {
                    "name": "A#2",
                    "midi": 46,
                    "time": 647.5033714999827,
                    "velocity": 0.2677165354330709,
                    "duration": 0.3279881999999361
                },
                {
                    "name": "G#2",
                    "midi": 44,
                    "time": 647.7766949999826,
                    "velocity": 0.2677165354330709,
                    "duration": 0.3279881999999361
                },
                {
                    "name": "F#2",
                    "midi": 42,
                    "time": 648.0500184999826,
                    "velocity": 0.2677165354330709,
                    "duration": 0.3279881999999361
                },
                {
                    "name": "G#2",
                    "midi": 44,
                    "time": 648.3233419999825,
                    "velocity": 0.31496062992125984,
                    "duration": 0.3279881999999361
                },
                {
                    "name": "A#2",
                    "midi": 46,
                    "time": 648.5966654999825,
                    "velocity": 0.28346456692913385,
                    "duration": 0.3279881999999361
                },
                {
                    "name": "B2",
                    "midi": 47,
                    "time": 648.8699889999824,
                    "velocity": 0.28346456692913385,
                    "duration": 0.3279881999999361
                },
                {
                    "name": "A#2",
                    "midi": 46,
                    "time": 649.1433124999824,
                    "velocity": 0.28346456692913385,
                    "duration": 0.3279881999999361
                },
                {
                    "name": "B2",
                    "midi": 47,
                    "time": 649.4166359999823,
                    "velocity": 0.28346456692913385,
                    "duration": 0.3279881999999361
                },
                {
                    "name": "C#3",
                    "midi": 49,
                    "time": 649.6899594999823,
                    "velocity": 0.2992125984251969,
                    "duration": 0.3279881999999361
                },
                {
                    "name": "D3",
                    "midi": 50,
                    "time": 649.9632829999822,
                    "velocity": 0.3228346456692913,
                    "duration": 0.3279881999999361
                },
                {
                    "name": "C#3",
                    "midi": 49,
                    "time": 650.2366064999821,
                    "velocity": 0.33858267716535434,
                    "duration": 0.3279881999999361
                },
                {
                    "name": "D3",
                    "midi": 50,
                    "time": 650.5099299999821,
                    "velocity": 0.3543307086614173,
                    "duration": 0.3279881999999361
                },
                {
                    "name": "E3",
                    "midi": 52,
                    "time": 650.783253499982,
                    "velocity": 0.3228346456692913,
                    "duration": 0.27332349999994676
                },
                {
                    "name": "E3",
                    "midi": 52,
                    "time": 651.603223999982,
                    "velocity": 0.3464566929133858,
                    "duration": 1.0932940000000144
                },
                {
                    "name": "B2",
                    "midi": 47,
                    "time": 652.696517999982,
                    "velocity": 0.28346456692913385,
                    "duration": 0.3279881999999361
                },
                {
                    "name": "C#3",
                    "midi": 49,
                    "time": 652.969841499982,
                    "velocity": 0.2992125984251969,
                    "duration": 0.3279881999999361
                },
                {
                    "name": "D3",
                    "midi": 50,
                    "time": 653.2431649999819,
                    "velocity": 0.3228346456692913,
                    "duration": 0.3279881999999361
                },
                {
                    "name": "E3",
                    "midi": 52,
                    "time": 653.5164884999818,
                    "velocity": 0.33858267716535434,
                    "duration": 0.3279881999999361
                },
                {
                    "name": "F#3",
                    "midi": 54,
                    "time": 653.7898119999818,
                    "velocity": 0.3543307086614173,
                    "duration": 0.3279881999999361
                },
                {
                    "name": "G3",
                    "midi": 55,
                    "time": 654.0631354999817,
                    "velocity": 0.3228346456692913,
                    "duration": 0.27332349999994676
                },
                {
                    "name": "G3",
                    "midi": 55,
                    "time": 654.8831059999817,
                    "velocity": 0.3464566929133858,
                    "duration": 1.0932940000000144
                },
                {
                    "name": "D3",
                    "midi": 50,
                    "time": 655.9763999999817,
                    "velocity": 0.28346456692913385,
                    "duration": 0.3279881999999361
                },
                {
                    "name": "E3",
                    "midi": 52,
                    "time": 656.2497234999817,
                    "velocity": 0.2992125984251969,
                    "duration": 0.3279881999999361
                },
                {
                    "name": "F#3",
                    "midi": 54,
                    "time": 656.5230469999816,
                    "velocity": 0.3228346456692913,
                    "duration": 0.3279881999999361
                },
                {
                    "name": "G#3",
                    "midi": 56,
                    "time": 656.7963704999815,
                    "velocity": 0.33858267716535434,
                    "duration": 0.3279881999999361
                },
                {
                    "name": "A#3",
                    "midi": 58,
                    "time": 657.0696939999815,
                    "velocity": 0.3543307086614173,
                    "duration": 0.3279881999999361
                },
                {
                    "name": "B3",
                    "midi": 59,
                    "time": 657.3430174999814,
                    "velocity": 0.3228346456692913,
                    "duration": 0.27332349999994676
                },
                {
                    "name": "B3",
                    "midi": 59,
                    "time": 658.1629879999814,
                    "velocity": 0.3464566929133858,
                    "duration": 1.0932940000000144
                },
                {
                    "name": "A#3",
                    "midi": 58,
                    "time": 659.2562819999814,
                    "velocity": 0.31496062992125984,
                    "duration": 0.18221566666670697
                },
                {
                    "name": "B3",
                    "midi": 59,
                    "time": 659.4384976666481,
                    "velocity": 0.29133858267716534,
                    "duration": 0.18221566666670697
                },
                {
                    "name": "A#3",
                    "midi": 58,
                    "time": 659.6207133333148,
                    "velocity": 0.31496062992125984,
                    "duration": 0.18221566666670697
                },
                {
                    "name": "B3",
                    "midi": 59,
                    "time": 659.8029289999815,
                    "velocity": 0.28346456692913385,
                    "duration": 0.18221566666670697
                },
                {
                    "name": "A#3",
                    "midi": 58,
                    "time": 659.9851446666482,
                    "velocity": 0.31496062992125984,
                    "duration": 0.18221566666670697
                },
                {
                    "name": "B3",
                    "midi": 59,
                    "time": 660.167360333315,
                    "velocity": 0.2677165354330709,
                    "duration": 0.18221566666670697
                },
                {
                    "name": "A#3",
                    "midi": 58,
                    "time": 660.3495759999817,
                    "velocity": 0.31496062992125984,
                    "duration": 0.18221566666670697
                },
                {
                    "name": "B3",
                    "midi": 59,
                    "time": 660.5317916666484,
                    "velocity": 0.29133858267716534,
                    "duration": 0.18221566666670697
                },
                {
                    "name": "A#3",
                    "midi": 58,
                    "time": 660.7140073333151,
                    "velocity": 0.31496062992125984,
                    "duration": 0.18221566666670697
                },
                {
                    "name": "B3",
                    "midi": 59,
                    "time": 660.8962229999818,
                    "velocity": 0.28346456692913385,
                    "duration": 0.18221566666670697
                },
                {
                    "name": "A#3",
                    "midi": 58,
                    "time": 661.0784386666485,
                    "velocity": 0.31496062992125984,
                    "duration": 0.18221566666670697
                },
                {
                    "name": "B3",
                    "midi": 59,
                    "time": 661.2606543333152,
                    "velocity": 0.28346456692913385,
                    "duration": 0.18221566666670697
                },
                {
                    "name": "F#2",
                    "midi": 42,
                    "time": 661.4428699999819,
                    "velocity": 0.28346456692913385,
                    "duration": 0.5466470000000072
                },
                {
                    "name": "G#2",
                    "midi": 44,
                    "time": 661.9895169999819,
                    "velocity": 0.30708661417322836,
                    "duration": 0.27332349999994676
                },
                {
                    "name": "A#2",
                    "midi": 46,
                    "time": 662.2628404999818,
                    "velocity": 0.33070866141732286,
                    "duration": 0.27332349999994676
                },
                {
                    "name": "B2",
                    "midi": 47,
                    "time": 662.5361639999818,
                    "velocity": 0.3543307086614173,
                    "duration": 0.27332349999994676
                },
                {
                    "name": "C#3",
                    "midi": 49,
                    "time": 662.8094874999817,
                    "velocity": 0.3543307086614173,
                    "duration": 0.27332349999994676
                },
                {
                    "name": "D3",
                    "midi": 50,
                    "time": 663.0828109999817,
                    "velocity": 0.3464566929133858,
                    "duration": 0.27332349999994676
                },
                {
                    "name": "E3",
                    "midi": 52,
                    "time": 663.3561344999816,
                    "velocity": 0.33070866141732286,
                    "duration": 0.27332349999994676
                },
                {
                    "name": "F#3",
                    "midi": 54,
                    "time": 663.6294579999816,
                    "velocity": 0.3937007874015748,
                    "duration": 0.5466470000000072
                },
                {
                    "name": "B3",
                    "midi": 59,
                    "time": 664.7227519999816,
                    "velocity": 0.3464566929133858,
                    "duration": 1.0932940000000144
                },
                {
                    "name": "A#3",
                    "midi": 58,
                    "time": 665.8160459999816,
                    "velocity": 0.31496062992125984,
                    "duration": 0.18221566666670697
                },
                {
                    "name": "B3",
                    "midi": 59,
                    "time": 665.9982616666483,
                    "velocity": 0.29133858267716534,
                    "duration": 0.18221566666670697
                },
                {
                    "name": "A#3",
                    "midi": 58,
                    "time": 666.180477333315,
                    "velocity": 0.31496062992125984,
                    "duration": 0.18221566666670697
                },
                {
                    "name": "B3",
                    "midi": 59,
                    "time": 666.3626929999817,
                    "velocity": 0.28346456692913385,
                    "duration": 0.18221566666670697
                },
                {
                    "name": "A#3",
                    "midi": 58,
                    "time": 666.5449086666484,
                    "velocity": 0.31496062992125984,
                    "duration": 0.18221566666670697
                },
                {
                    "name": "B3",
                    "midi": 59,
                    "time": 666.7271243333151,
                    "velocity": 0.2677165354330709,
                    "duration": 0.18221566666670697
                },
                {
                    "name": "A#3",
                    "midi": 58,
                    "time": 666.9093399999819,
                    "velocity": 0.31496062992125984,
                    "duration": 0.18221566666670697
                },
                {
                    "name": "B3",
                    "midi": 59,
                    "time": 667.0915556666486,
                    "velocity": 0.29133858267716534,
                    "duration": 0.18221566666670697
                },
                {
                    "name": "A#3",
                    "midi": 58,
                    "time": 667.2737713333153,
                    "velocity": 0.31496062992125984,
                    "duration": 0.18221566666670697
                },
                {
                    "name": "B3",
                    "midi": 59,
                    "time": 667.455986999982,
                    "velocity": 0.28346456692913385,
                    "duration": 0.18221566666670697
                },
                {
                    "name": "A#3",
                    "midi": 58,
                    "time": 667.6382026666487,
                    "velocity": 0.31496062992125984,
                    "duration": 0.18221566666670697
                },
                {
                    "name": "B3",
                    "midi": 59,
                    "time": 667.8204183333154,
                    "velocity": 0.28346456692913385,
                    "duration": 0.18221566666670697
                },
                {
                    "name": "F#2",
                    "midi": 42,
                    "time": 668.0026339999821,
                    "velocity": 0.3464566929133858,
                    "duration": 1.0932940000000144
                },
                {
                    "name": "F#3",
                    "midi": 54,
                    "time": 668.0026339999821,
                    "velocity": 0.3464566929133858,
                    "duration": 1.0932940000000144
                },
                {
                    "name": "D3",
                    "midi": 50,
                    "time": 669.0959279999821,
                    "velocity": 0.31496062992125984,
                    "duration": 0.18221566666670697
                },
                {
                    "name": "E3",
                    "midi": 52,
                    "time": 669.2781436666488,
                    "velocity": 0.29133858267716534,
                    "duration": 0.18221566666670697
                },
                {
                    "name": "D3",
                    "midi": 50,
                    "time": 669.4603593333155,
                    "velocity": 0.31496062992125984,
                    "duration": 0.18221566666670697
                },
                {
                    "name": "E3",
                    "midi": 52,
                    "time": 669.6425749999822,
                    "velocity": 0.28346456692913385,
                    "duration": 0.18221566666670697
                },
                {
                    "name": "D3",
                    "midi": 50,
                    "time": 669.8247906666489,
                    "velocity": 0.31496062992125984,
                    "duration": 0.18221566666670697
                },
                {
                    "name": "E3",
                    "midi": 52,
                    "time": 670.0070063333156,
                    "velocity": 0.2677165354330709,
                    "duration": 0.18221566666670697
                },
                {
                    "name": "D3",
                    "midi": 50,
                    "time": 670.1892219999824,
                    "velocity": 0.31496062992125984,
                    "duration": 0.18221566666670697
                },
                {
                    "name": "E3",
                    "midi": 52,
                    "time": 670.3714376666491,
                    "velocity": 0.29133858267716534,
                    "duration": 0.18221566666670697
                },
                {
                    "name": "D3",
                    "midi": 50,
                    "time": 670.5536533333158,
                    "velocity": 0.31496062992125984,
                    "duration": 0.18221566666670697
                },
                {
                    "name": "E3",
                    "midi": 52,
                    "time": 670.7358689999825,
                    "velocity": 0.28346456692913385,
                    "duration": 0.18221566666670697
                },
                {
                    "name": "D3",
                    "midi": 50,
                    "time": 670.9180846666492,
                    "velocity": 0.31496062992125984,
                    "duration": 0.18221566666670697
                },
                {
                    "name": "E3",
                    "midi": 52,
                    "time": 671.1003003333159,
                    "velocity": 0.28346456692913385,
                    "duration": 0.18221566666670697
                },
                {
                    "name": "B2",
                    "midi": 47,
                    "time": 671.2825159999826,
                    "velocity": 0.25984251968503935,
                    "duration": 0.5466470000000072
                },
                {
                    "name": "C#2",
                    "midi": 37,
                    "time": 671.8291629999826,
                    "velocity": 0.2204724409448819,
                    "duration": 0.5466470000000072
                },
                {
                    "name": "A#2",
                    "midi": 46,
                    "time": 671.8291629999826,
                    "velocity": 0.2677165354330709,
                    "duration": 0.5466470000000072
                },
                {
                    "name": "D2",
                    "midi": 38,
                    "time": 672.3758099999826,
                    "velocity": 0.25196850393700787,
                    "duration": 0.27332349999994676
                },
                {
                    "name": "A2",
                    "midi": 45,
                    "time": 672.3758099999826,
                    "velocity": 0.25196850393700787,
                    "duration": 1.093293999999787
                },
                {
                    "name": "E2",
                    "midi": 40,
                    "time": 672.6491334999826,
                    "velocity": 0.25984251968503935,
                    "duration": 0.27332349999994676
                },
                {
                    "name": "F#2",
                    "midi": 42,
                    "time": 672.9224569999825,
                    "velocity": 0.2755905511811024,
                    "duration": 0.27332349999994676
                },
                {
                    "name": "G2",
                    "midi": 43,
                    "time": 673.1957804999824,
                    "velocity": 0.28346456692913385,
                    "duration": 0.27332349999994676
                },
                {
                    "name": "A2",
                    "midi": 45,
                    "time": 673.4691039999824,
                    "velocity": 0.2992125984251969,
                    "duration": 0.27332349999994676
                },
                {
                    "name": "B2",
                    "midi": 47,
                    "time": 673.7424274999823,
                    "velocity": 0.29133858267716534,
                    "duration": 0.27332349999994676
                },
                {
                    "name": "F#3",
                    "midi": 54,
                    "time": 674.5623979999823,
                    "velocity": 0.2992125984251969,
                    "duration": 1.0932940000000144
                },
                {
                    "name": "B2",
                    "midi": 47,
                    "time": 674.5623979999823,
                    "velocity": 0.25984251968503935,
                    "duration": 1.0932940000000144
                },
                {
                    "name": "G2",
                    "midi": 43,
                    "time": 675.6556919999823,
                    "velocity": 0.25196850393700787,
                    "duration": 0.27332349999994676
                },
                {
                    "name": "A2",
                    "midi": 45,
                    "time": 675.9290154999823,
                    "velocity": 0.25984251968503935,
                    "duration": 0.27332349999994676
                },
                {
                    "name": "B2",
                    "midi": 47,
                    "time": 676.2023389999822,
                    "velocity": 0.2755905511811024,
                    "duration": 0.27332349999994676
                },
                {
                    "name": "C#3",
                    "midi": 49,
                    "time": 676.4756624999821,
                    "velocity": 0.28346456692913385,
                    "duration": 0.27332349999994676
                },
                {
                    "name": "D3",
                    "midi": 50,
                    "time": 676.7489859999821,
                    "velocity": 0.2992125984251969,
                    "duration": 0.27332349999994676
                },
                {
                    "name": "E3",
                    "midi": 52,
                    "time": 677.022309499982,
                    "velocity": 0.29133858267716534,
                    "duration": 0.27332349999994676
                },
                {
                    "name": "E3",
                    "midi": 52,
                    "time": 677.842279999982,
                    "velocity": 0.2992125984251969,
                    "duration": 1.0932940000000144
                },
                {
                    "name": "C#3",
                    "midi": 49,
                    "time": 678.935573999982,
                    "velocity": 0.3543307086614173,
                    "duration": 0.27332349999994676
                },
                {
                    "name": "D3",
                    "midi": 50,
                    "time": 679.208897499982,
                    "velocity": 0.3779527559055118,
                    "duration": 0.27332349999994676
                },
                {
                    "name": "E3",
                    "midi": 52,
                    "time": 679.4822209999819,
                    "velocity": 0.3937007874015748,
                    "duration": 0.27332349999994676
                },
                {
                    "name": "F#3",
                    "midi": 54,
                    "time": 679.7555444999819,
                    "velocity": 0.41732283464566927,
                    "duration": 0.27332349999994676
                },
                {
                    "name": "G3",
                    "midi": 55,
                    "time": 680.0288679999818,
                    "velocity": 0.4330708661417323,
                    "duration": 0.27332349999994676
                },
                {
                    "name": "A3",
                    "midi": 57,
                    "time": 680.3021914999817,
                    "velocity": 0.3779527559055118,
                    "duration": 0.27332349999994676
                },
                {
                    "name": "A3",
                    "midi": 57,
                    "time": 681.1221619999817,
                    "velocity": 0.4645669291338583,
                    "duration": 1.0932940000000144
                },
                {
                    "name": "E3",
                    "midi": 52,
                    "time": 682.2154559999817,
                    "velocity": 0.3543307086614173,
                    "duration": 0.27332349999994676
                },
                {
                    "name": "F#3",
                    "midi": 54,
                    "time": 682.4887794999817,
                    "velocity": 0.3779527559055118,
                    "duration": 0.27332349999994676
                },
                {
                    "name": "G3",
                    "midi": 55,
                    "time": 682.7621029999816,
                    "velocity": 0.3937007874015748,
                    "duration": 0.27332349999994676
                },
                {
                    "name": "A3",
                    "midi": 57,
                    "time": 683.0354264999816,
                    "velocity": 0.41732283464566927,
                    "duration": 0.27332349999994676
                },
                {
                    "name": "B3",
                    "midi": 59,
                    "time": 683.3087499999815,
                    "velocity": 0.4330708661417323,
                    "duration": 0.27332349999994676
                },
                {
                    "name": "C#4",
                    "midi": 61,
                    "time": 683.5820734999814,
                    "velocity": 0.3779527559055118,
                    "duration": 0.27332349999994676
                },
                {
                    "name": "C#4",
                    "midi": 61,
                    "time": 684.4020439999814,
                    "velocity": 0.4645669291338583,
                    "duration": 1.0932940000000144
                },
                {
                    "name": "E4",
                    "midi": 64,
                    "time": 685.4953379999814,
                    "velocity": 0.4566929133858268,
                    "duration": 0.27332349999994676
                },
                {
                    "name": "D4",
                    "midi": 62,
                    "time": 685.7686614999814,
                    "velocity": 0.4409448818897638,
                    "duration": 0.27332349999994676
                },
                {
                    "name": "C#4",
                    "midi": 61,
                    "time": 686.0419849999813,
                    "velocity": 0.41732283464566927,
                    "duration": 0.27332349999994676
                },
                {
                    "name": "B3",
                    "midi": 59,
                    "time": 686.3153084999813,
                    "velocity": 0.4015748031496063,
                    "duration": 0.27332349999994676
                },
                {
                    "name": "A3",
                    "midi": 57,
                    "time": 686.5886319999812,
                    "velocity": 0.3858267716535433,
                    "duration": 0.27332349999994676
                },
                {
                    "name": "G3",
                    "midi": 55,
                    "time": 686.8619554999811,
                    "velocity": 0.3464566929133858,
                    "duration": 0.27332349999994676
                },
                {
                    "name": "G3",
                    "midi": 55,
                    "time": 687.6819259999811,
                    "velocity": 0.5039370078740157,
                    "duration": 1.0932940000000144
                },
                {
                    "name": "C#4",
                    "midi": 61,
                    "time": 688.7752199999811,
                    "velocity": 0.4566929133858268,
                    "duration": 0.27332349999994676
                },
                {
                    "name": "B3",
                    "midi": 59,
                    "time": 689.0485434999811,
                    "velocity": 0.4409448818897638,
                    "duration": 0.27332349999994676
                },
                {
                    "name": "A3",
                    "midi": 57,
                    "time": 689.321866999981,
                    "velocity": 0.41732283464566927,
                    "duration": 0.27332349999994676
                },
                {
                    "name": "G3",
                    "midi": 55,
                    "time": 689.595190499981,
                    "velocity": 0.4015748031496063,
                    "duration": 0.27332349999994676
                },
                {
                    "name": "F#3",
                    "midi": 54,
                    "time": 689.8685139999809,
                    "velocity": 0.3858267716535433,
                    "duration": 0.27332349999994676
                },
                {
                    "name": "E3",
                    "midi": 52,
                    "time": 690.1418374999809,
                    "velocity": 0.3464566929133858,
                    "duration": 0.27332349999994676
                },
                {
                    "name": "E3",
                    "midi": 52,
                    "time": 690.9618079999808,
                    "velocity": 0.5039370078740157,
                    "duration": 1.0932940000000144
                },
                {
                    "name": "D2",
                    "midi": 38,
                    "time": 692.0551019999808,
                    "velocity": 0.44881889763779526,
                    "duration": 0.27332349999994676
                },
                {
                    "name": "E2",
                    "midi": 40,
                    "time": 692.3284254999808,
                    "velocity": 0.3700787401574803,
                    "duration": 0.27332349999994676
                },
                {
                    "name": "F#2",
                    "midi": 42,
                    "time": 692.6017489999807,
                    "velocity": 0.3937007874015748,
                    "duration": 0.27332349999994676
                },
                {
                    "name": "G2",
                    "midi": 43,
                    "time": 692.8750724999807,
                    "velocity": 0.41732283464566927,
                    "duration": 0.27332349999994676
                },
                {
                    "name": "G#2",
                    "midi": 44,
                    "time": 693.1483959999806,
                    "velocity": 0.4409448818897638,
                    "duration": 0.27332349999994676
                },
                {
                    "name": "A2",
                    "midi": 45,
                    "time": 693.4217194999806,
                    "velocity": 0.3937007874015748,
                    "duration": 0.27332349999994676
                },
                {
                    "name": "F#3",
                    "midi": 54,
                    "time": 694.2416899999805,
                    "velocity": 0.5118110236220472,
                    "duration": 1.0932940000000144
                },
                {
                    "name": "A2",
                    "midi": 45,
                    "time": 694.2416899999805,
                    "velocity": 0.5118110236220472,
                    "duration": 1.0932940000000144
                },
                {
                    "name": "F#2",
                    "midi": 42,
                    "time": 695.3349839999805,
                    "velocity": 0.44881889763779526,
                    "duration": 0.27332349999994676
                },
                {
                    "name": "G2",
                    "midi": 43,
                    "time": 695.6083074999805,
                    "velocity": 0.3700787401574803,
                    "duration": 0.27332349999994676
                },
                {
                    "name": "A2",
                    "midi": 45,
                    "time": 695.8816309999804,
                    "velocity": 0.3937007874015748,
                    "duration": 0.27332349999994676
                },
                {
                    "name": "B2",
                    "midi": 47,
                    "time": 696.1549544999804,
                    "velocity": 0.41732283464566927,
                    "duration": 0.27332349999994676
                },
                {
                    "name": "C#3",
                    "midi": 49,
                    "time": 696.4282779999803,
                    "velocity": 0.4409448818897638,
                    "duration": 0.27332349999994676
                },
                {
                    "name": "D3",
                    "midi": 50,
                    "time": 696.7016014999803,
                    "velocity": 0.3937007874015748,
                    "duration": 0.27332349999994676
                },
                {
                    "name": "D3",
                    "midi": 50,
                    "time": 697.5215719999802,
                    "velocity": 0.5118110236220472,
                    "duration": 1.0932940000000144
                },
                {
                    "name": "A3",
                    "midi": 57,
                    "time": 697.5215719999802,
                    "velocity": 0.5118110236220472,
                    "duration": 1.0932940000000144
                },
                {
                    "name": "G2",
                    "midi": 43,
                    "time": 698.6148659999802,
                    "velocity": 0.44881889763779526,
                    "duration": 0.27332349999994676
                },
                {
                    "name": "A2",
                    "midi": 45,
                    "time": 698.8881894999802,
                    "velocity": 0.3700787401574803,
                    "duration": 0.27332349999994676
                },
                {
                    "name": "B2",
                    "midi": 47,
                    "time": 699.1615129999801,
                    "velocity": 0.3937007874015748,
                    "duration": 0.27332349999994676
                },
                {
                    "name": "C#3",
                    "midi": 49,
                    "time": 699.4348364999801,
                    "velocity": 0.41732283464566927,
                    "duration": 0.27332349999994676
                },
                {
                    "name": "D3",
                    "midi": 50,
                    "time": 699.70815999998,
                    "velocity": 0.4409448818897638,
                    "duration": 0.27332349999994676
                },
                {
                    "name": "E3",
                    "midi": 52,
                    "time": 699.98148349998,
                    "velocity": 0.3937007874015748,
                    "duration": 0.27332349999994676
                },
                {
                    "name": "E3",
                    "midi": 52,
                    "time": 700.8014539999799,
                    "velocity": 0.5118110236220472,
                    "duration": 1.0932940000000144
                },
                {
                    "name": "C#3",
                    "midi": 49,
                    "time": 701.8947479999799,
                    "velocity": 0.4881889763779528,
                    "duration": 0.27332349999994676
                },
                {
                    "name": "D3",
                    "midi": 50,
                    "time": 702.1680714999799,
                    "velocity": 0.4015748031496063,
                    "duration": 0.27332349999994676
                },
                {
                    "name": "E3",
                    "midi": 52,
                    "time": 702.4413949999798,
                    "velocity": 0.4330708661417323,
                    "duration": 0.27332349999994676
                },
                {
                    "name": "F#3",
                    "midi": 54,
                    "time": 702.7147184999798,
                    "velocity": 0.4566929133858268,
                    "duration": 0.27332349999994676
                },
                {
                    "name": "G3",
                    "midi": 55,
                    "time": 702.9880419999797,
                    "velocity": 0.48031496062992124,
                    "duration": 0.27332349999994676
                },
                {
                    "name": "A3",
                    "midi": 57,
                    "time": 703.2613654999797,
                    "velocity": 0.4330708661417323,
                    "duration": 0.27332349999994676
                },
                {
                    "name": "A3",
                    "midi": 57,
                    "time": 704.0813359999796,
                    "velocity": 0.5590551181102362,
                    "duration": 1.0932940000000144
                },
                {
                    "name": "D3",
                    "midi": 50,
                    "time": 705.1746299999796,
                    "velocity": 0.5275590551181102,
                    "duration": 0.27332349999994676
                },
                {
                    "name": "C#3",
                    "midi": 49,
                    "time": 705.4479534999796,
                    "velocity": 0.5039370078740157,
                    "duration": 0.27332349999994676
                },
                {
                    "name": "B2",
                    "midi": 47,
                    "time": 705.7212769999795,
                    "velocity": 0.4881889763779528,
                    "duration": 0.27332349999994676
                },
                {
                    "name": "A2",
                    "midi": 45,
                    "time": 705.9946004999795,
                    "velocity": 0.47244094488188976,
                    "duration": 0.27332349999994676
                },
                {
                    "name": "G2",
                    "midi": 43,
                    "time": 706.2679239999794,
                    "velocity": 0.44881889763779526,
                    "duration": 0.27332349999994676
                },
                {
                    "name": "F#2",
                    "midi": 42,
                    "time": 706.5412474999794,
                    "velocity": 0.4330708661417323,
                    "duration": 0.27332349999994676
                },
                {
                    "name": "F#3",
                    "midi": 54,
                    "time": 706.8145709999793,
                    "velocity": 0.4330708661417323,
                    "duration": 0.27332349999994676
                },
                {
                    "name": "G3",
                    "midi": 55,
                    "time": 707.0878944999793,
                    "velocity": 0.4566929133858268,
                    "duration": 0.27332349999994676
                },
                {
                    "name": "A3",
                    "midi": 57,
                    "time": 707.3612179999792,
                    "velocity": 0.4881889763779528,
                    "duration": 0.27332349999994676
                },
                {
                    "name": "B3",
                    "midi": 59,
                    "time": 707.6345414999792,
                    "velocity": 0.5118110236220472,
                    "duration": 0.27332349999994676
                },
                {
                    "name": "C#4",
                    "midi": 61,
                    "time": 707.9078649999791,
                    "velocity": 0.5433070866141733,
                    "duration": 0.27332349999994676
                },
                {
                    "name": "D4",
                    "midi": 62,
                    "time": 708.181188499979,
                    "velocity": 0.5669291338582677,
                    "duration": 0.27332349999994676
                },
                {
                    "name": "B2",
                    "midi": 47,
                    "time": 708.454511999979,
                    "velocity": 0.5275590551181102,
                    "duration": 0.27332349999994676
                },
                {
                    "name": "A2",
                    "midi": 45,
                    "time": 708.7278354999789,
                    "velocity": 0.5039370078740157,
                    "duration": 0.27332349999994676
                },
                {
                    "name": "G2",
                    "midi": 43,
                    "time": 709.0011589999789,
                    "velocity": 0.4881889763779528,
                    "duration": 0.27332349999994676
                },
                {
                    "name": "F#2",
                    "midi": 42,
                    "time": 709.2744824999788,
                    "velocity": 0.47244094488188976,
                    "duration": 0.27332349999994676
                },
                {
                    "name": "E2",
                    "midi": 40,
                    "time": 709.5478059999788,
                    "velocity": 0.44881889763779526,
                    "duration": 0.27332349999994676
                },
                {
                    "name": "D2",
                    "midi": 38,
                    "time": 709.8211294999787,
                    "velocity": 0.4330708661417323,
                    "duration": 0.27332349999994676
                },
                {
                    "name": "D3",
                    "midi": 50,
                    "time": 710.0944529999787,
                    "velocity": 0.4330708661417323,
                    "duration": 0.27332349999994676
                },
                {
                    "name": "E3",
                    "midi": 52,
                    "time": 710.3677764999786,
                    "velocity": 0.4566929133858268,
                    "duration": 0.27332349999994676
                },
                {
                    "name": "F#3",
                    "midi": 54,
                    "time": 710.6410999999786,
                    "velocity": 0.4881889763779528,
                    "duration": 0.27332349999994676
                },
                {
                    "name": "G3",
                    "midi": 55,
                    "time": 710.9144234999785,
                    "velocity": 0.5118110236220472,
                    "duration": 0.27332349999994676
                },
                {
                    "name": "A3",
                    "midi": 57,
                    "time": 711.1877469999785,
                    "velocity": 0.5433070866141733,
                    "duration": 0.27332349999994676
                },
                {
                    "name": "B3",
                    "midi": 59,
                    "time": 711.4610704999784,
                    "velocity": 0.5669291338582677,
                    "duration": 0.2687681083333473
                },
                {
                    "name": "G3",
                    "midi": 55,
                    "time": 711.7343939999785,
                    "velocity": 0.48031496062992124,
                    "duration": 0.27332349999994676
                },
                {
                    "name": "B3",
                    "midi": 59,
                    "time": 711.7343939999785,
                    "velocity": 0.5669291338582677,
                    "duration": 0.27332349999994676
                },
                {
                    "name": "A3",
                    "midi": 57,
                    "time": 712.0077174999784,
                    "velocity": 0.5433070866141733,
                    "duration": 0.27332349999994676
                },
                {
                    "name": "F#3",
                    "midi": 54,
                    "time": 712.0077174999784,
                    "velocity": 0.4566929133858268,
                    "duration": 0.27332349999994676
                },
                {
                    "name": "E3",
                    "midi": 52,
                    "time": 712.2810409999784,
                    "velocity": 0.4409448818897638,
                    "duration": 0.27332349999994676
                },
                {
                    "name": "G3",
                    "midi": 55,
                    "time": 712.2810409999784,
                    "velocity": 0.5275590551181102,
                    "duration": 0.27332349999994676
                },
                {
                    "name": "D3",
                    "midi": 50,
                    "time": 712.5543644999783,
                    "velocity": 0.4251968503937008,
                    "duration": 0.27332349999994676
                },
                {
                    "name": "F#3",
                    "midi": 54,
                    "time": 712.5543644999783,
                    "velocity": 0.5039370078740157,
                    "duration": 0.27332349999994676
                },
                {
                    "name": "C#3",
                    "midi": 49,
                    "time": 712.8276879999783,
                    "velocity": 0.4094488188976378,
                    "duration": 0.27332349999994676
                },
                {
                    "name": "E3",
                    "midi": 52,
                    "time": 712.8276879999783,
                    "velocity": 0.4881889763779528,
                    "duration": 0.27332349999994676
                },
                {
                    "name": "B2",
                    "midi": 47,
                    "time": 713.1010114999782,
                    "velocity": 0.4015748031496063,
                    "duration": 0.27332349999994676
                },
                {
                    "name": "D3",
                    "midi": 50,
                    "time": 713.1010114999782,
                    "velocity": 0.47244094488188976,
                    "duration": 0.27332349999994676
                },
                {
                    "name": "B2",
                    "midi": 47,
                    "time": 713.9209819999782,
                    "velocity": 0.4094488188976378,
                    "duration": 1.0932940000000144
                },
                {
                    "name": "D3",
                    "midi": 50,
                    "time": 713.9209819999782,
                    "velocity": 0.47244094488188976,
                    "duration": 1.0932940000000144
                },
                {
                    "name": "G2",
                    "midi": 43,
                    "time": 715.0142759999782,
                    "velocity": 0.5118110236220472,
                    "duration": 0.27332349999994676
                },
                {
                    "name": "A2",
                    "midi": 45,
                    "time": 715.2875994999781,
                    "velocity": 0.4645669291338583,
                    "duration": 0.27332349999994676
                },
                {
                    "name": "B2",
                    "midi": 47,
                    "time": 715.5609229999781,
                    "velocity": 0.4645669291338583,
                    "duration": 0.27332349999994676
                },
                {
                    "name": "C3",
                    "midi": 48,
                    "time": 715.834246499978,
                    "velocity": 0.4566929133858268,
                    "duration": 0.27332349999994676
                },
                {
                    "name": "D3",
                    "midi": 50,
                    "time": 716.107569999978,
                    "velocity": 0.44881889763779526,
                    "duration": 0.27332349999994676
                },
                {
                    "name": "E3",
                    "midi": 52,
                    "time": 716.3808934999779,
                    "velocity": 0.4409448818897638,
                    "duration": 0.27332349999994676
                },
                {
                    "name": "B2",
                    "midi": 47,
                    "time": 716.6542169999778,
                    "velocity": 0.5039370078740157,
                    "duration": 0.27332349999994676
                },
                {
                    "name": "C3",
                    "midi": 48,
                    "time": 716.9275404999778,
                    "velocity": 0.4645669291338583,
                    "duration": 0.27332349999994676
                },
                {
                    "name": "D3",
                    "midi": 50,
                    "time": 717.2008639999777,
                    "velocity": 0.4566929133858268,
                    "duration": 0.27332349999994676
                },
                {
                    "name": "E3",
                    "midi": 52,
                    "time": 717.4741874999777,
                    "velocity": 0.44881889763779526,
                    "duration": 0.27332349999994676
                },
                {
                    "name": "F#3",
                    "midi": 54,
                    "time": 717.7475109999776,
                    "velocity": 0.4330708661417323,
                    "duration": 0.27332349999994676
                },
                {
                    "name": "G3",
                    "midi": 55,
                    "time": 718.0208344999776,
                    "velocity": 0.4251968503937008,
                    "duration": 0.27332349999994676
                },
                {
                    "name": "A2",
                    "midi": 45,
                    "time": 718.2941579999775,
                    "velocity": 0.5039370078740157,
                    "duration": 0.27332349999994676
                },
                {
                    "name": "B2",
                    "midi": 47,
                    "time": 718.5674814999775,
                    "velocity": 0.4566929133858268,
                    "duration": 0.27332349999994676
                },
                {
                    "name": "C#3",
                    "midi": 49,
                    "time": 718.8408049999774,
                    "velocity": 0.44881889763779526,
                    "duration": 0.27332349999994676
                },
                {
                    "name": "D3",
                    "midi": 50,
                    "time": 719.1141284999774,
                    "velocity": 0.4330708661417323,
                    "duration": 0.27332349999994676
                },
                {
                    "name": "E3",
                    "midi": 52,
                    "time": 719.3874519999773,
                    "velocity": 0.4251968503937008,
                    "duration": 0.27332349999994676
                },
                {
                    "name": "F3",
                    "midi": 53,
                    "time": 719.6607754999773,
                    "velocity": 0.4566929133858268,
                    "duration": 0.27332349999994676
                },
                {
                    "name": "A2",
                    "midi": 45,
                    "time": 719.9340989999772,
                    "velocity": 0.4251968503937008,
                    "duration": 0.27332349999994676
                },
                {
                    "name": "B2",
                    "midi": 47,
                    "time": 720.2074224999772,
                    "velocity": 0.4015748031496063,
                    "duration": 0.27332349999994676
                },
                {
                    "name": "C#3",
                    "midi": 49,
                    "time": 720.4807459999771,
                    "velocity": 0.4251968503937008,
                    "duration": 0.27332349999994676
                },
                {
                    "name": "D3",
                    "midi": 50,
                    "time": 720.754069499977,
                    "velocity": 0.4094488188976378,
                    "duration": 0.27332349999994676
                },
                {
                    "name": "C#3",
                    "midi": 49,
                    "time": 721.027392999977,
                    "velocity": 0.4094488188976378,
                    "duration": 0.27332349999994676
                },
                {
                    "name": "B2",
                    "midi": 47,
                    "time": 721.3007164999769,
                    "velocity": 0.4094488188976378,
                    "duration": 0.27332349999994676
                },
                {
                    "name": "A#2",
                    "midi": 46,
                    "time": 721.5740399999769,
                    "velocity": 0.47244094488188976,
                    "duration": 1.3666174999999612
                },
                {
                    "name": "G#2",
                    "midi": 44,
                    "time": 722.9406574999769,
                    "velocity": 0.3937007874015748,
                    "duration": 0.27332349999994676
                },
                {
                    "name": "F#2",
                    "midi": 42,
                    "time": 723.2139809999768,
                    "velocity": 0.3937007874015748,
                    "duration": 0.27332349999994676
                },
                {
                    "name": "G#2",
                    "midi": 44,
                    "time": 723.4873044999767,
                    "velocity": 0.3937007874015748,
                    "duration": 0.27332349999994676
                },
                {
                    "name": "A#2",
                    "midi": 46,
                    "time": 723.7606279999767,
                    "velocity": 0.47244094488188976,
                    "duration": 1.0932940000000144
                },
                {
                    "name": "B2",
                    "midi": 47,
                    "time": 724.8539219999767,
                    "velocity": 0.3937007874015748,
                    "duration": 0.27332349999994676
                },
                {
                    "name": "C#3",
                    "midi": 49,
                    "time": 725.1272454999767,
                    "velocity": 0.36220472440944884,
                    "duration": 0.27332349999994676
                },
                {
                    "name": "B2",
                    "midi": 47,
                    "time": 725.4005689999766,
                    "velocity": 0.36220472440944884,
                    "duration": 0.27332349999994676
                },
                {
                    "name": "A2",
                    "midi": 45,
                    "time": 725.6738924999765,
                    "velocity": 0.36220472440944884,
                    "duration": 0.27332349999994676
                },
                {
                    "name": "G#2",
                    "midi": 44,
                    "time": 725.9472159999765,
                    "velocity": 0.3937007874015748,
                    "duration": 0.27332349999994676
                },
                {
                    "name": "D3",
                    "midi": 50,
                    "time": 726.2205394999764,
                    "velocity": 0.3779527559055118,
                    "duration": 0.27332349999994676
                },
                {
                    "name": "B2",
                    "midi": 47,
                    "time": 726.4938629999764,
                    "velocity": 0.3779527559055118,
                    "duration": 0.27332349999994676
                },
                {
                    "name": "F3",
                    "midi": 53,
                    "time": 726.7671864999763,
                    "velocity": 0.3779527559055118,
                    "duration": 0.27332349999994676
                },
                {
                    "name": "G#3",
                    "midi": 56,
                    "time": 727.0405099999763,
                    "velocity": 0.4409448818897638,
                    "duration": 0.27332349999994676
                },
                {
                    "name": "A2",
                    "midi": 45,
                    "time": 728.1338039999762,
                    "velocity": 0.44881889763779526,
                    "duration": 0.27332349999994676
                },
                {
                    "name": "F#3",
                    "midi": 54,
                    "time": 728.4071274999761,
                    "velocity": 0.4094488188976378,
                    "duration": 0.27332349999994676
                },
                {
                    "name": "D3",
                    "midi": 50,
                    "time": 728.6804509999761,
                    "velocity": 0.44881889763779526,
                    "duration": 0.27332349999994676
                },
                {
                    "name": "A3",
                    "midi": 57,
                    "time": 728.953774499976,
                    "velocity": 0.4094488188976378,
                    "duration": 0.27332349999994676
                },
                {
                    "name": "F#3",
                    "midi": 54,
                    "time": 729.227097999976,
                    "velocity": 0.44881889763779526,
                    "duration": 0.27332349999994676
                },
                {
                    "name": "D4",
                    "midi": 62,
                    "time": 729.5004214999759,
                    "velocity": 0.3858267716535433,
                    "duration": 0.27332349999994676
                },
                {
                    "name": "B2",
                    "midi": 47,
                    "time": 729.7737449999759,
                    "velocity": 0.44881889763779526,
                    "duration": 0.5466470000000072
                },
                {
                    "name": "C#3",
                    "midi": 49,
                    "time": 730.3203919999759,
                    "velocity": 0.4645669291338583,
                    "duration": 0.5466470000000072
                },
                {
                    "name": "D3",
                    "midi": 50,
                    "time": 730.8670389999759,
                    "velocity": 0.5118110236220472,
                    "duration": 0.5466470000000072
                },
                {
                    "name": "G1",
                    "midi": 31,
                    "time": 731.4136859999759,
                    "velocity": 0.6299212598425197,
                    "duration": 0.5466470000000072
                },
                {
                    "name": "C#3",
                    "midi": 49,
                    "time": 732.5069799999759,
                    "velocity": 0.5590551181102362,
                    "duration": 0.18221566666670697
                },
                {
                    "name": "D3",
                    "midi": 50,
                    "time": 732.6891956666426,
                    "velocity": 0.49606299212598426,
                    "duration": 0.18221566666670697
                },
                {
                    "name": "C#3",
                    "midi": 49,
                    "time": 732.8714113333093,
                    "velocity": 0.5590551181102362,
                    "duration": 0.18221566666670697
                },
                {
                    "name": "D3",
                    "midi": 50,
                    "time": 733.053626999976,
                    "velocity": 0.4881889763779528,
                    "duration": 0.18221566666670697
                },
                {
                    "name": "C#3",
                    "midi": 49,
                    "time": 733.2358426666427,
                    "velocity": 0.5590551181102362,
                    "duration": 0.18221566666670697
                },
                {
                    "name": "D3",
                    "midi": 50,
                    "time": 733.4180583333094,
                    "velocity": 0.49606299212598426,
                    "duration": 0.18221566666670697
                },
                {
                    "name": "C#3",
                    "midi": 49,
                    "time": 733.6002739999761,
                    "velocity": 0.5590551181102362,
                    "duration": 0.18221566666670697
                },
                {
                    "name": "D3",
                    "midi": 50,
                    "time": 733.7824896666428,
                    "velocity": 0.5118110236220472,
                    "duration": 0.18221566666670697
                },
                {
                    "name": "C#3",
                    "midi": 49,
                    "time": 733.9647053333096,
                    "velocity": 0.5590551181102362,
                    "duration": 0.18221566666670697
                },
                {
                    "name": "D3",
                    "midi": 50,
                    "time": 734.1469209999763,
                    "velocity": 0.5118110236220472,
                    "duration": 0.13666175000003022
                },
                {
                    "name": "C#3",
                    "midi": 49,
                    "time": 734.2835827499763,
                    "velocity": 0.5118110236220472,
                    "duration": 0.13666175000003022
                },
                {
                    "name": "B2",
                    "midi": 47,
                    "time": 734.4202444999763,
                    "velocity": 0.5118110236220472,
                    "duration": 0.13666175000003022
                },
                {
                    "name": "C#3",
                    "midi": 49,
                    "time": 734.5569062499764,
                    "velocity": 0.5118110236220472,
                    "duration": 0.13666175000003022
                },
                {
                    "name": "D3",
                    "midi": 50,
                    "time": 734.6935679999764,
                    "velocity": 0.5748031496062992,
                    "duration": 1.0932940000000144
                },
                {
                    "name": "D3",
                    "midi": 50,
                    "time": 736.3335089999764,
                    "velocity": 0.5433070866141733,
                    "duration": 0.3279881999999361
                },
                {
                    "name": "C#3",
                    "midi": 49,
                    "time": 736.6068324999763,
                    "velocity": 0.5354330708661418,
                    "duration": 0.3279881999999361
                },
                {
                    "name": "B2",
                    "midi": 47,
                    "time": 736.8801559999763,
                    "velocity": 0.5196850393700787,
                    "duration": 0.3279881999999361
                },
                {
                    "name": "A2",
                    "midi": 45,
                    "time": 737.1534794999762,
                    "velocity": 0.5118110236220472,
                    "duration": 0.3279881999999361
                },
                {
                    "name": "G2",
                    "midi": 43,
                    "time": 737.4268029999762,
                    "velocity": 0.5039370078740157,
                    "duration": 0.3279881999999361
                },
                {
                    "name": "F#2",
                    "midi": 42,
                    "time": 737.7001264999761,
                    "velocity": 0.4881889763779528,
                    "duration": 0.27332349999994676
                },
                {
                    "name": "B2",
                    "midi": 47,
                    "time": 737.9734499999761,
                    "velocity": 0.5748031496062992,
                    "duration": 1.0932940000000144
                },
                {
                    "name": "B2",
                    "midi": 47,
                    "time": 739.6133909999761,
                    "velocity": 0.5433070866141733,
                    "duration": 0.3279881999999361
                },
                {
                    "name": "A2",
                    "midi": 45,
                    "time": 739.886714499976,
                    "velocity": 0.5354330708661418,
                    "duration": 0.3279881999999361
                },
                {
                    "name": "G2",
                    "midi": 43,
                    "time": 740.160037999976,
                    "velocity": 0.5196850393700787,
                    "duration": 0.3279881999999361
                },
                {
                    "name": "F#2",
                    "midi": 42,
                    "time": 740.433361499976,
                    "velocity": 0.5118110236220472,
                    "duration": 0.3279881999999361
                },
                {
                    "name": "E2",
                    "midi": 40,
                    "time": 740.7066849999759,
                    "velocity": 0.5039370078740157,
                    "duration": 0.3279881999999361
                },
                {
                    "name": "D2",
                    "midi": 38,
                    "time": 740.9800084999758,
                    "velocity": 0.4881889763779528,
                    "duration": 0.27332349999994676
                },
                {
                    "name": "G2",
                    "midi": 43,
                    "time": 741.2533319999758,
                    "velocity": 0.5748031496062992,
                    "duration": 1.0932940000000144
                },
                {
                    "name": "G2",
                    "midi": 43,
                    "time": 742.8932729999758,
                    "velocity": 0.5196850393700787,
                    "duration": 0.3279881999999361
                },
                {
                    "name": "F#2",
                    "midi": 42,
                    "time": 743.1665964999758,
                    "velocity": 0.47244094488188976,
                    "duration": 0.3279881999999361
                },
                {
                    "name": "E2",
                    "midi": 40,
                    "time": 743.4399199999757,
                    "velocity": 0.5196850393700787,
                    "duration": 0.3279881999999361
                },
                {
                    "name": "D#2",
                    "midi": 39,
                    "time": 743.7132434999756,
                    "velocity": 0.44881889763779526,
                    "duration": 0.3279881999999361
                },
                {
                    "name": "E2",
                    "midi": 40,
                    "time": 743.9865669999756,
                    "velocity": 0.44881889763779526,
                    "duration": 0.3279881999999361
                },
                {
                    "name": "D2",
                    "midi": 38,
                    "time": 744.2598904999755,
                    "velocity": 0.44881889763779526,
                    "duration": 0.3279881999999361
                },
                {
                    "name": "C#2",
                    "midi": 37,
                    "time": 744.5332139999755,
                    "velocity": 0.5196850393700787,
                    "duration": 0.3279881999999361
                },
                {
                    "name": "D2",
                    "midi": 38,
                    "time": 744.8065374999754,
                    "velocity": 0.4566929133858268,
                    "duration": 0.3279881999999361
                },
                {
                    "name": "C#2",
                    "midi": 37,
                    "time": 745.0798609999754,
                    "velocity": 0.4566929133858268,
                    "duration": 0.3279881999999361
                },
                {
                    "name": "B1",
                    "midi": 35,
                    "time": 745.3531844999753,
                    "velocity": 0.4566929133858268,
                    "duration": 0.3279881999999361
                },
                {
                    "name": "A1",
                    "midi": 33,
                    "time": 745.6265079999753,
                    "velocity": 0.5196850393700787,
                    "duration": 0.3279881999999361
                },
                {
                    "name": "B1",
                    "midi": 35,
                    "time": 745.8998314999752,
                    "velocity": 0.48031496062992124,
                    "duration": 0.3279881999999361
                },
                {
                    "name": "C#2",
                    "midi": 37,
                    "time": 746.1731549999752,
                    "velocity": 0.48031496062992124,
                    "duration": 0.3279881999999361
                },
                {
                    "name": "D2",
                    "midi": 38,
                    "time": 746.4464784999751,
                    "velocity": 0.48031496062992124,
                    "duration": 0.3279881999999361
                },
                {
                    "name": "D#2",
                    "midi": 39,
                    "time": 746.7198019999751,
                    "velocity": 0.5196850393700787,
                    "duration": 0.3279881999999361
                },
                {
                    "name": "E2",
                    "midi": 40,
                    "time": 746.993125499975,
                    "velocity": 0.4566929133858268,
                    "duration": 0.3279881999999361
                },
                {
                    "name": "F#2",
                    "midi": 42,
                    "time": 747.266448999975,
                    "velocity": 0.4566929133858268,
                    "duration": 0.3279881999999361
                },
                {
                    "name": "E2",
                    "midi": 40,
                    "time": 747.5397724999749,
                    "velocity": 0.4566929133858268,
                    "duration": 0.3279881999999361
                },
                {
                    "name": "D2",
                    "midi": 38,
                    "time": 747.8130959999748,
                    "velocity": 0.5196850393700787,
                    "duration": 0.3279881999999361
                },
                {
                    "name": "E2",
                    "midi": 40,
                    "time": 748.0864194999748,
                    "velocity": 0.4566929133858268,
                    "duration": 0.3279881999999361
                },
                {
                    "name": "D2",
                    "midi": 38,
                    "time": 748.3597429999747,
                    "velocity": 0.4566929133858268,
                    "duration": 0.3279881999999361
                },
                {
                    "name": "C#2",
                    "midi": 37,
                    "time": 748.6330664999747,
                    "velocity": 0.4566929133858268,
                    "duration": 0.3279881999999361
                },
                {
                    "name": "B1",
                    "midi": 35,
                    "time": 748.9063899999746,
                    "velocity": 0.5196850393700787,
                    "duration": 0.3279881999999361
                },
                {
                    "name": "C#2",
                    "midi": 37,
                    "time": 749.1797134999746,
                    "velocity": 0.48031496062992124,
                    "duration": 0.3279881999999361
                },
                {
                    "name": "D2",
                    "midi": 38,
                    "time": 749.4530369999745,
                    "velocity": 0.48031496062992124,
                    "duration": 0.3279881999999361
                },
                {
                    "name": "E2",
                    "midi": 40,
                    "time": 749.7263604999745,
                    "velocity": 0.48031496062992124,
                    "duration": 0.3279881999999361
                },
                {
                    "name": "F2",
                    "midi": 41,
                    "time": 749.9996839999744,
                    "velocity": 0.5196850393700787,
                    "duration": 0.3279881999999361
                },
                {
                    "name": "F#2",
                    "midi": 42,
                    "time": 750.2730074999744,
                    "velocity": 0.4566929133858268,
                    "duration": 0.3279881999999361
                },
                {
                    "name": "G2",
                    "midi": 43,
                    "time": 750.5463309999743,
                    "velocity": 0.4566929133858268,
                    "duration": 0.3279881999999361
                },
                {
                    "name": "F#2",
                    "midi": 42,
                    "time": 750.8196544999743,
                    "velocity": 0.4566929133858268,
                    "duration": 0.3279881999999361
                },
                {
                    "name": "E2",
                    "midi": 40,
                    "time": 751.0929779999742,
                    "velocity": 0.5196850393700787,
                    "duration": 0.3279881999999361
                },
                {
                    "name": "F2",
                    "midi": 41,
                    "time": 751.3663014999742,
                    "velocity": 0.4566929133858268,
                    "duration": 0.3279881999999361
                },
                {
                    "name": "E2",
                    "midi": 40,
                    "time": 751.6396249999741,
                    "velocity": 0.4566929133858268,
                    "duration": 0.3279881999999361
                },
                {
                    "name": "D2",
                    "midi": 38,
                    "time": 751.912948499974,
                    "velocity": 0.4566929133858268,
                    "duration": 0.3279881999999361
                },
                {
                    "name": "C2",
                    "midi": 36,
                    "time": 752.186271999974,
                    "velocity": 0.5196850393700787,
                    "duration": 0.3279881999999361
                },
                {
                    "name": "D2",
                    "midi": 38,
                    "time": 752.459595499974,
                    "velocity": 0.48031496062992124,
                    "duration": 0.3279881999999361
                },
                {
                    "name": "E2",
                    "midi": 40,
                    "time": 752.7329189999739,
                    "velocity": 0.48031496062992124,
                    "duration": 0.3279881999999361
                },
                {
                    "name": "F2",
                    "midi": 41,
                    "time": 753.0062424999738,
                    "velocity": 0.48031496062992124,
                    "duration": 0.3279881999999361
                },
                {
                    "name": "F#2",
                    "midi": 42,
                    "time": 753.2795659999738,
                    "velocity": 0.5196850393700787,
                    "duration": 0.3279881999999361
                },
                {
                    "name": "G2",
                    "midi": 43,
                    "time": 753.5528894999737,
                    "velocity": 0.4566929133858268,
                    "duration": 0.3279881999999361
                },
                {
                    "name": "A2",
                    "midi": 45,
                    "time": 753.8262129999737,
                    "velocity": 0.4566929133858268,
                    "duration": 0.3279881999999361
                },
                {
                    "name": "G2",
                    "midi": 43,
                    "time": 754.0995364999736,
                    "velocity": 0.4566929133858268,
                    "duration": 0.3279881999999361
                },
                {
                    "name": "F#2",
                    "midi": 42,
                    "time": 754.3728599999736,
                    "velocity": 0.5196850393700787,
                    "duration": 0.3279881999999361
                },
                {
                    "name": "G2",
                    "midi": 43,
                    "time": 754.6461834999735,
                    "velocity": 0.4566929133858268,
                    "duration": 0.3279881999999361
                },
                {
                    "name": "F#2",
                    "midi": 42,
                    "time": 754.9195069999735,
                    "velocity": 0.4566929133858268,
                    "duration": 0.3279881999999361
                },
                {
                    "name": "E2",
                    "midi": 40,
                    "time": 755.1928304999734,
                    "velocity": 0.4566929133858268,
                    "duration": 0.3279881999999361
                },
                {
                    "name": "D2",
                    "midi": 38,
                    "time": 755.4661539999734,
                    "velocity": 0.5196850393700787,
                    "duration": 0.3279881999999361
                },
                {
                    "name": "E2",
                    "midi": 40,
                    "time": 755.7394774999733,
                    "velocity": 0.48031496062992124,
                    "duration": 0.3279881999999361
                },
                {
                    "name": "F#2",
                    "midi": 42,
                    "time": 756.0128009999733,
                    "velocity": 0.48031496062992124,
                    "duration": 0.3279881999999361
                },
                {
                    "name": "G2",
                    "midi": 43,
                    "time": 756.2861244999732,
                    "velocity": 0.48031496062992124,
                    "duration": 0.3279881999999361
                },
                {
                    "name": "G#2",
                    "midi": 44,
                    "time": 756.5594479999731,
                    "velocity": 0.5196850393700787,
                    "duration": 0.3279881999999361
                },
                {
                    "name": "A2",
                    "midi": 45,
                    "time": 756.8327714999731,
                    "velocity": 0.4566929133858268,
                    "duration": 0.3279881999999361
                },
                {
                    "name": "B2",
                    "midi": 47,
                    "time": 757.106094999973,
                    "velocity": 0.4566929133858268,
                    "duration": 0.3279881999999361
                },
                {
                    "name": "A2",
                    "midi": 45,
                    "time": 757.379418499973,
                    "velocity": 0.4566929133858268,
                    "duration": 0.27332349999994676
                },
                {
                    "name": "G2",
                    "midi": 43,
                    "time": 757.6527419999729,
                    "velocity": 0.4566929133858268,
                    "duration": 0.5466470000000072
                },
                {
                    "name": "B3",
                    "midi": 59,
                    "time": 758.1993889999729,
                    "velocity": 0.4251968503937008,
                    "duration": 0.3279881999999361
                },
                {
                    "name": "A3",
                    "midi": 57,
                    "time": 758.4727124999729,
                    "velocity": 0.4251968503937008,
                    "duration": 0.3279881999999361
                },
                {
                    "name": "G3",
                    "midi": 55,
                    "time": 758.7460359999728,
                    "velocity": 0.5039370078740157,
                    "duration": 0.5466469999998935
                },
                {
                    "name": "A3",
                    "midi": 57,
                    "time": 759.0193594999728,
                    "velocity": 0.44881889763779526,
                    "duration": 0.3279881999999361
                },
                {
                    "name": "F3",
                    "midi": 53,
                    "time": 759.2926829999727,
                    "velocity": 0.44881889763779526,
                    "duration": 0.5466469999998935
                },
                {
                    "name": "B3",
                    "midi": 59,
                    "time": 759.2926829999727,
                    "velocity": 0.44881889763779526,
                    "duration": 0.3279881999999361
                },
                {
                    "name": "C4",
                    "midi": 60,
                    "time": 759.5660064999727,
                    "velocity": 0.44881889763779526,
                    "duration": 0.3279881999999361
                },
                {
                    "name": "C#4",
                    "midi": 61,
                    "time": 759.8393299999726,
                    "velocity": 0.5039370078740157,
                    "duration": 0.3279881999999361
                },
                {
                    "name": "E3",
                    "midi": 52,
                    "time": 759.8393299999726,
                    "velocity": 0.5039370078740157,
                    "duration": 0.5466469999998935
                },
                {
                    "name": "D4",
                    "midi": 62,
                    "time": 760.1126534999726,
                    "velocity": 0.44881889763779526,
                    "duration": 0.3279881999999361
                },
                {
                    "name": "G#3",
                    "midi": 56,
                    "time": 760.3859769999725,
                    "velocity": 0.44881889763779526,
                    "duration": 0.3279881999999361
                },
                {
                    "name": "D4",
                    "midi": 62,
                    "time": 760.6593004999725,
                    "velocity": 0.44881889763779526,
                    "duration": 0.27332349999994676
                },
                {
                    "name": "G#3",
                    "midi": 56,
                    "time": 760.9326239999724,
                    "velocity": 0.41732283464566927,
                    "duration": 1.093293999999787
                },
                {
                    "name": "C4",
                    "midi": 60,
                    "time": 760.9326239999724,
                    "velocity": 0.3858267716535433,
                    "duration": 0.27332349999994676
                },
                {
                    "name": "D4",
                    "midi": 62,
                    "time": 761.2059474999724,
                    "velocity": 0.3464566929133858,
                    "duration": 0.27332349999994676
                },
                {
                    "name": "C4",
                    "midi": 60,
                    "time": 761.4792709999723,
                    "velocity": 0.3858267716535433,
                    "duration": 0.27332349999994676
                },
                {
                    "name": "B3",
                    "midi": 59,
                    "time": 761.7525944999722,
                    "velocity": 0.3464566929133858,
                    "duration": 0.27332349999994676
                },
                {
                    "name": "A3",
                    "midi": 57,
                    "time": 762.0259179999722,
                    "velocity": 0.3779527559055118,
                    "duration": 0.5466469999998935
                },
                {
                    "name": "B3",
                    "midi": 59,
                    "time": 762.2992414999721,
                    "velocity": 0.3464566929133858,
                    "duration": 0.27332349999994676
                },
                {
                    "name": "C4",
                    "midi": 60,
                    "time": 762.5725649999721,
                    "velocity": 0.3858267716535433,
                    "duration": 0.27332349999994676
                },
                {
                    "name": "G3",
                    "midi": 55,
                    "time": 762.5725649999721,
                    "velocity": 0.3779527559055118,
                    "duration": 0.5466469999998935
                },
                {
                    "name": "D4",
                    "midi": 62,
                    "time": 762.845888499972,
                    "velocity": 0.3464566929133858,
                    "duration": 0.27332349999994676
                },
                {
                    "name": "D#4",
                    "midi": 63,
                    "time": 763.119211999972,
                    "velocity": 0.3858267716535433,
                    "duration": 0.27332349999994676
                },
                {
                    "name": "F#3",
                    "midi": 54,
                    "time": 763.119211999972,
                    "velocity": 0.4330708661417323,
                    "duration": 0.5466469999998935
                },
                {
                    "name": "E4",
                    "midi": 64,
                    "time": 763.3925354999719,
                    "velocity": 0.3543307086614173,
                    "duration": 0.27332349999994676
                },
                {
                    "name": "A#3",
                    "midi": 58,
                    "time": 763.6658589999719,
                    "velocity": 0.3858267716535433,
                    "duration": 0.27332349999994676
                },
                {
                    "name": "E4",
                    "midi": 64,
                    "time": 763.9391824999718,
                    "velocity": 0.36220472440944884,
                    "duration": 0.27332349999994676
                },
                {
                    "name": "D4",
                    "midi": 62,
                    "time": 764.2125059999718,
                    "velocity": 0.3858267716535433,
                    "duration": 0.27332349999994676
                },
                {
                    "name": "A#3",
                    "midi": 58,
                    "time": 764.2125059999718,
                    "velocity": 0.4015748031496063,
                    "duration": 1.093293999999787
                },
                {
                    "name": "E4",
                    "midi": 64,
                    "time": 764.4858294999717,
                    "velocity": 0.3543307086614173,
                    "duration": 0.27332349999994676
                },
                {
                    "name": "D4",
                    "midi": 62,
                    "time": 764.7591529999717,
                    "velocity": 0.3858267716535433,
                    "duration": 0.27332349999994676
                },
                {
                    "name": "C#4",
                    "midi": 61,
                    "time": 765.0324764999716,
                    "velocity": 0.33858267716535434,
                    "duration": 0.27332349999994676
                },
                {
                    "name": "B3",
                    "midi": 59,
                    "time": 765.3057999999716,
                    "velocity": 0.3779527559055118,
                    "duration": 0.5466469999998935
                },
                {
                    "name": "C#4",
                    "midi": 61,
                    "time": 765.5791234999715,
                    "velocity": 0.33070866141732286,
                    "duration": 0.27332349999994676
                },
                {
                    "name": "A3",
                    "midi": 57,
                    "time": 765.8524469999714,
                    "velocity": 0.3779527559055118,
                    "duration": 0.5466469999998935
                },
                {
                    "name": "D4",
                    "midi": 62,
                    "time": 765.8524469999714,
                    "velocity": 0.3858267716535433,
                    "duration": 0.27332349999994676
                },
                {
                    "name": "E4",
                    "midi": 64,
                    "time": 766.1257704999714,
                    "velocity": 0.3543307086614173,
                    "duration": 0.27332349999994676
                },
                {
                    "name": "F4",
                    "midi": 65,
                    "time": 766.3990939999713,
                    "velocity": 0.3858267716535433,
                    "duration": 0.27332349999994676
                },
                {
                    "name": "G3",
                    "midi": 55,
                    "time": 766.3990939999713,
                    "velocity": 0.4330708661417323,
                    "duration": 0.5466469999998935
                },
                {
                    "name": "F#4",
                    "midi": 66,
                    "time": 766.6724174999713,
                    "velocity": 0.3543307086614173,
                    "duration": 0.27332349999994676
                },
                {
                    "name": "G4",
                    "midi": 67,
                    "time": 766.9457409999712,
                    "velocity": 0.3858267716535433,
                    "duration": 0.27332349999994676
                },
                {
                    "name": "F4",
                    "midi": 65,
                    "time": 767.2190644999712,
                    "velocity": 0.3543307086614173,
                    "duration": 0.27332349999994676
                },
                {
                    "name": "E4",
                    "midi": 64,
                    "time": 767.4923879999711,
                    "velocity": 0.3858267716535433,
                    "duration": 0.27332349999994676
                },
                {
                    "name": "B3",
                    "midi": 59,
                    "time": 767.4923879999711,
                    "velocity": 0.41732283464566927,
                    "duration": 1.093293999999787
                },
                {
                    "name": "F4",
                    "midi": 65,
                    "time": 767.7657114999711,
                    "velocity": 0.3543307086614173,
                    "duration": 0.27332349999994676
                },
                {
                    "name": "E4",
                    "midi": 64,
                    "time": 768.039034999971,
                    "velocity": 0.3858267716535433,
                    "duration": 0.27332349999994676
                },
                {
                    "name": "D4",
                    "midi": 62,
                    "time": 768.312358499971,
                    "velocity": 0.3543307086614173,
                    "duration": 0.27332349999994676
                },
                {
                    "name": "C4",
                    "midi": 60,
                    "time": 768.5856819999709,
                    "velocity": 0.3779527559055118,
                    "duration": 0.5466469999998935
                },
                {
                    "name": "D4",
                    "midi": 62,
                    "time": 768.8590054999709,
                    "velocity": 0.3858267716535433,
                    "duration": 0.27332349999994676
                },
                {
                    "name": "E4",
                    "midi": 64,
                    "time": 769.1323289999708,
                    "velocity": 0.3858267716535433,
                    "duration": 0.27332349999994676
                },
                {
                    "name": "B3",
                    "midi": 59,
                    "time": 769.1323289999708,
                    "velocity": 0.3937007874015748,
                    "duration": 0.5466469999998935
                },
                {
                    "name": "D4",
                    "midi": 62,
                    "time": 769.4056524999708,
                    "velocity": 0.3700787401574803,
                    "duration": 0.27332349999994676
                },
                {
                    "name": "A3",
                    "midi": 57,
                    "time": 769.6789759999707,
                    "velocity": 0.4015748031496063,
                    "duration": 0.5466469999998935
                },
                {
                    "name": "C4",
                    "midi": 60,
                    "time": 769.6789759999707,
                    "velocity": 0.3858267716535433,
                    "duration": 0.27332349999994676
                },
                {
                    "name": "D4",
                    "midi": 62,
                    "time": 769.9522994999706,
                    "velocity": 0.3700787401574803,
                    "duration": 0.27332349999994676
                },
                {
                    "name": "C4",
                    "midi": 60,
                    "time": 770.2256229999706,
                    "velocity": 0.3858267716535433,
                    "duration": 0.27332349999994676
                },
                {
                    "name": "G3",
                    "midi": 55,
                    "time": 770.2256229999706,
                    "velocity": 0.4094488188976378,
                    "duration": 0.5466469999998935
                },
                {
                    "name": "B3",
                    "midi": 59,
                    "time": 770.4989464999705,
                    "velocity": 0.3779527559055118,
                    "duration": 0.27332349999994676
                },
                {
                    "name": "A3",
                    "midi": 57,
                    "time": 770.7722699999705,
                    "velocity": 0.3858267716535433,
                    "duration": 0.27332349999994676
                },
                {
                    "name": "F#3",
                    "midi": 54,
                    "time": 770.7722699999705,
                    "velocity": 0.4251968503937008,
                    "duration": 0.5466469999998935
                },
                {
                    "name": "B3",
                    "midi": 59,
                    "time": 771.0455934999704,
                    "velocity": 0.3858267716535433,
                    "duration": 0.27332349999994676
                },
                {
                    "name": "E3",
                    "midi": 52,
                    "time": 771.3189169999704,
                    "velocity": 0.4409448818897638,
                    "duration": 0.5466469999998935
                },
                {
                    "name": "A3",
                    "midi": 57,
                    "time": 771.3189169999704,
                    "velocity": 0.3858267716535433,
                    "duration": 0.27332349999994676
                },
                {
                    "name": "G3",
                    "midi": 55,
                    "time": 771.5922404999703,
                    "velocity": 0.3937007874015748,
                    "duration": 0.27332349999994676
                },
                {
                    "name": "F#3",
                    "midi": 54,
                    "time": 771.8655639999703,
                    "velocity": 0.44881889763779526,
                    "duration": 1.093293999999787
                },
                {
                    "name": "D#3",
                    "midi": 51,
                    "time": 771.8655639999703,
                    "velocity": 0.3858267716535433,
                    "duration": 0.27332349999994676
                },
                {
                    "name": "D3",
                    "midi": 50,
                    "time": 772.1388874999702,
                    "velocity": 0.3858267716535433,
                    "duration": 0.27332349999994676
                },
                {
                    "name": "C3",
                    "midi": 48,
                    "time": 772.4122109999702,
                    "velocity": 0.4251968503937008,
                    "duration": 0.27332349999994676
                },
                {
                    "name": "D3",
                    "midi": 50,
                    "time": 772.6855344999701,
                    "velocity": 0.3858267716535433,
                    "duration": 0.27332349999994676
                },
                {
                    "name": "D#3",
                    "midi": 51,
                    "time": 772.9588579999701,
                    "velocity": 0.41732283464566927,
                    "duration": 0.27332349999994676
                },
                {
                    "name": "D3",
                    "midi": 50,
                    "time": 773.23218149997,
                    "velocity": 0.3858267716535433,
                    "duration": 0.27332349999994676
                },
                {
                    "name": "D#3",
                    "midi": 51,
                    "time": 773.50550499997,
                    "velocity": 0.41732283464566927,
                    "duration": 0.27332349999994676
                },
                {
                    "name": "C3",
                    "midi": 48,
                    "time": 773.7788284999699,
                    "velocity": 0.3858267716535433,
                    "duration": 0.27332349999994676
                },
                {
                    "name": "B3",
                    "midi": 59,
                    "time": 774.5987989999699,
                    "velocity": 0.5118110236220472,
                    "duration": 0.27332349999994676
                },
                {
                    "name": "B2",
                    "midi": 47,
                    "time": 775.1454459999698,
                    "velocity": 0.5748031496062992,
                    "duration": 1.6399410000000216
                },
                {
                    "name": "A3",
                    "midi": 57,
                    "time": 775.6920929999698,
                    "velocity": 0.44881889763779526,
                    "duration": 0.5466470000000072
                },
                {
                    "name": "G3",
                    "midi": 55,
                    "time": 776.2387399999698,
                    "velocity": 0.49606299212598426,
                    "duration": 1.0932940000000144
                },
                {
                    "name": "G3",
                    "midi": 55,
                    "time": 777.8786809999698,
                    "velocity": 0.5039370078740157,
                    "duration": 0.27332349999994676
                },
                {
                    "name": "G2",
                    "midi": 43,
                    "time": 778.4253279999697,
                    "velocity": 0.5433070866141733,
                    "duration": 1.6399410000000216
                },
                {
                    "name": "F#3",
                    "midi": 54,
                    "time": 778.9719749999697,
                    "velocity": 0.41732283464566927,
                    "duration": 0.5466470000000072
                },
                {
                    "name": "E3",
                    "midi": 52,
                    "time": 779.5186219999697,
                    "velocity": 0.48031496062992124,
                    "duration": 0.5466470000000072
                },
                {
                    "name": "D3",
                    "midi": 50,
                    "time": 780.0652689999697,
                    "velocity": 0.41732283464566927,
                    "duration": 0.5466470000000072
                },
                {
                    "name": "B2",
                    "midi": 47,
                    "time": 780.0652689999697,
                    "velocity": 0.41732283464566927,
                    "duration": 0.5466470000000072
                },
                {
                    "name": "A2",
                    "midi": 45,
                    "time": 780.6119159999697,
                    "velocity": 0.41732283464566927,
                    "duration": 0.5466470000000072
                },
                {
                    "name": "C3",
                    "midi": 48,
                    "time": 780.6119159999697,
                    "velocity": 0.41732283464566927,
                    "duration": 0.5466470000000072
                },
                {
                    "name": "C4",
                    "midi": 60,
                    "time": 781.1585629999697,
                    "velocity": 0.5118110236220472,
                    "duration": 0.5466470000000072
                },
                {
                    "name": "C3",
                    "midi": 48,
                    "time": 781.7052099999697,
                    "velocity": 0.41732283464566927,
                    "duration": 0.5466470000000072
                },
                {
                    "name": "E3",
                    "midi": 52,
                    "time": 781.7052099999697,
                    "velocity": 0.41732283464566927,
                    "duration": 0.5466470000000072
                },
                {
                    "name": "D3",
                    "midi": 50,
                    "time": 782.2518569999697,
                    "velocity": 0.3937007874015748,
                    "duration": 0.5466470000000072
                },
                {
                    "name": "B2",
                    "midi": 47,
                    "time": 782.2518569999697,
                    "velocity": 0.3937007874015748,
                    "duration": 0.5466470000000072
                },
                {
                    "name": "A2",
                    "midi": 45,
                    "time": 782.7985039999697,
                    "velocity": 0.41732283464566927,
                    "duration": 0.5466470000000072
                },
                {
                    "name": "C3",
                    "midi": 48,
                    "time": 782.7985039999697,
                    "velocity": 0.41732283464566927,
                    "duration": 0.5466470000000072
                },
                {
                    "name": "G2",
                    "midi": 43,
                    "time": 783.3451509999697,
                    "velocity": 0.3937007874015748,
                    "duration": 0.5466470000000072
                },
                {
                    "name": "B2",
                    "midi": 47,
                    "time": 783.3451509999697,
                    "velocity": 0.3937007874015748,
                    "duration": 0.5466470000000072
                },
                {
                    "name": "F#2",
                    "midi": 42,
                    "time": 783.8917979999698,
                    "velocity": 0.4645669291338583,
                    "duration": 0.5466470000000072
                },
                {
                    "name": "A2",
                    "midi": 45,
                    "time": 783.8917979999698,
                    "velocity": 0.4645669291338583,
                    "duration": 1.0932940000000144
                },
                {
                    "name": "D#3",
                    "midi": 51,
                    "time": 784.4384449999698,
                    "velocity": 0.41732283464566927,
                    "duration": 0.5466470000000072
                },
                {
                    "name": "D3",
                    "midi": 50,
                    "time": 784.9850919999698,
                    "velocity": 0.49606299212598426,
                    "duration": 3.8265290000000505
                },
                {
                    "name": "E3",
                    "midi": 52,
                    "time": 785.5317389999698,
                    "velocity": 0.41732283464566927,
                    "duration": 0.5466470000000072
                },
                {
                    "name": "F#3",
                    "midi": 54,
                    "time": 786.0783859999698,
                    "velocity": 0.41732283464566927,
                    "duration": 0.5466470000000072
                },
                {
                    "name": "G3",
                    "midi": 55,
                    "time": 786.6250329999698,
                    "velocity": 0.41732283464566927,
                    "duration": 0.5466470000000072
                },
                {
                    "name": "A3",
                    "midi": 57,
                    "time": 787.1716799999698,
                    "velocity": 0.41732283464566927,
                    "duration": 0.5466470000000072
                },
                {
                    "name": "B3",
                    "midi": 59,
                    "time": 787.7183269999698,
                    "velocity": 0.4409448818897638,
                    "duration": 0.5466470000000072
                },
                {
                    "name": "C4",
                    "midi": 60,
                    "time": 788.2649739999698,
                    "velocity": 0.47244094488188976,
                    "duration": 0.5466470000000072
                },
                {
                    "name": "D3",
                    "midi": 50,
                    "time": 788.8116209999698,
                    "velocity": 0.41732283464566927,
                    "duration": 0.5466470000000072
                },
                {
                    "name": "B3",
                    "midi": 59,
                    "time": 788.8116209999698,
                    "velocity": 0.41732283464566927,
                    "duration": 0.5466470000000072
                },
                {
                    "name": "A3",
                    "midi": 57,
                    "time": 789.3582679999698,
                    "velocity": 0.41732283464566927,
                    "duration": 0.5466470000000072
                },
                {
                    "name": "C3",
                    "midi": 48,
                    "time": 789.3582679999698,
                    "velocity": 0.41732283464566927,
                    "duration": 0.5466470000000072
                },
                {
                    "name": "G3",
                    "midi": 55,
                    "time": 789.9049149999698,
                    "velocity": 0.3858267716535433,
                    "duration": 1.0932940000000144
                },
                {
                    "name": "B2",
                    "midi": 47,
                    "time": 789.9049149999698,
                    "velocity": 0.3858267716535433,
                    "duration": 0.5466470000000072
                },
                {
                    "name": "C3",
                    "midi": 48,
                    "time": 790.4515619999698,
                    "velocity": 0.41732283464566927,
                    "duration": 1.0932940000000144
                },
                {
                    "name": "C4",
                    "midi": 60,
                    "time": 790.9982089999698,
                    "velocity": 0.41732283464566927,
                    "duration": 1.0932940000000144
                },
                {
                    "name": "D3",
                    "midi": 50,
                    "time": 791.5448559999699,
                    "velocity": 0.4566929133858268,
                    "duration": 1.0932940000000144
                },
                {
                    "name": "B3",
                    "midi": 59,
                    "time": 792.0915029999699,
                    "velocity": 0.41732283464566927,
                    "duration": 0.5466470000000072
                },
                {
                    "name": "A#3",
                    "midi": 58,
                    "time": 792.6381499999699,
                    "velocity": 0.5039370078740157,
                    "duration": 0.27332349999994676
                },
                {
                    "name": "E3",
                    "midi": 52,
                    "time": 792.6381499999699,
                    "velocity": 0.5039370078740157,
                    "duration": 1.093293999999787
                },
                {
                    "name": "G4",
                    "midi": 67,
                    "time": 792.9114734999698,
                    "velocity": 0.4330708661417323,
                    "duration": 0.27332349999994676
                },
                {
                    "name": "F#4",
                    "midi": 66,
                    "time": 793.1847969999698,
                    "velocity": 0.4409448818897638,
                    "duration": 0.27332349999994676
                },
                {
                    "name": "G4",
                    "midi": 67,
                    "time": 793.4581204999697,
                    "velocity": 0.4409448818897638,
                    "duration": 0.27332349999994676
                },
                {
                    "name": "F#3",
                    "midi": 54,
                    "time": 793.7314439999697,
                    "velocity": 0.48031496062992124,
                    "duration": 0.3279881999999361
                },
                {
                    "name": "A3",
                    "midi": 57,
                    "time": 794.0047674999696,
                    "velocity": 0.4409448818897638,
                    "duration": 0.3279881999999361
                },
                {
                    "name": "G3",
                    "midi": 55,
                    "time": 794.2780909999695,
                    "velocity": 0.4409448818897638,
                    "duration": 0.3279881999999361
                },
                {
                    "name": "F#3",
                    "midi": 54,
                    "time": 794.5514144999695,
                    "velocity": 0.4409448818897638,
                    "duration": 0.3279881999999361
                },
                {
                    "name": "E3",
                    "midi": 52,
                    "time": 794.8247379999694,
                    "velocity": 0.47244094488188976,
                    "duration": 0.3279881999999361
                },
                {
                    "name": "D3",
                    "midi": 50,
                    "time": 795.0980614999694,
                    "velocity": 0.4330708661417323,
                    "duration": 0.3279881999999361
                },
                {
                    "name": "E3",
                    "midi": 52,
                    "time": 795.3713849999693,
                    "velocity": 0.4330708661417323,
                    "duration": 0.3279881999999361
                },
                {
                    "name": "F#3",
                    "midi": 54,
                    "time": 795.6447084999693,
                    "velocity": 0.4330708661417323,
                    "duration": 0.3279881999999361
                },
                {
                    "name": "G3",
                    "midi": 55,
                    "time": 795.9180319999692,
                    "velocity": 0.48031496062992124,
                    "duration": 0.3279881999999361
                },
                {
                    "name": "D3",
                    "midi": 50,
                    "time": 796.1913554999692,
                    "velocity": 0.4330708661417323,
                    "duration": 0.3279881999999361
                },
                {
                    "name": "G3",
                    "midi": 55,
                    "time": 796.4646789999691,
                    "velocity": 0.4330708661417323,
                    "duration": 0.3279881999999361
                },
                {
                    "name": "F#3",
                    "midi": 54,
                    "time": 796.7380024999691,
                    "velocity": 0.4330708661417323,
                    "duration": 0.3279881999999361
                },
                {
                    "name": "E3",
                    "midi": 52,
                    "time": 797.011325999969,
                    "velocity": 0.47244094488188976,
                    "duration": 0.3279881999999361
                },
                {
                    "name": "F#3",
                    "midi": 54,
                    "time": 797.284649499969,
                    "velocity": 0.41732283464566927,
                    "duration": 0.3279881999999361
                },
                {
                    "name": "E3",
                    "midi": 52,
                    "time": 797.5579729999689,
                    "velocity": 0.41732283464566927,
                    "duration": 0.3279881999999361
                },
                {
                    "name": "D3",
                    "midi": 50,
                    "time": 797.8312964999689,
                    "velocity": 0.41732283464566927,
                    "duration": 0.3279881999999361
                },
                {
                    "name": "C#3",
                    "midi": 49,
                    "time": 798.1046199999688,
                    "velocity": 0.47244094488188976,
                    "duration": 0.3279881999999361
                },
                {
                    "name": "D3",
                    "midi": 50,
                    "time": 798.3779434999688,
                    "velocity": 0.4251968503937008,
                    "duration": 0.3279881999999361
                },
                {
                    "name": "C#3",
                    "midi": 49,
                    "time": 798.6512669999687,
                    "velocity": 0.4330708661417323,
                    "duration": 0.3279881999999361
                },
                {
                    "name": "B2",
                    "midi": 47,
                    "time": 798.9245904999686,
                    "velocity": 0.4330708661417323,
                    "duration": 0.27332349999994676
                },
                {
                    "name": "D3",
                    "midi": 50,
                    "time": 799.1979139999686,
                    "velocity": 0.47244094488188976,
                    "duration": 0.18221566666670697
                },
                {
                    "name": "A2",
                    "midi": 45,
                    "time": 799.1979139999686,
                    "velocity": 0.47244094488188976,
                    "duration": 0.5466470000001209
                },
                {
                    "name": "E3",
                    "midi": 52,
                    "time": 799.3801296666353,
                    "velocity": 0.4330708661417323,
                    "duration": 0.18221566666670697
                },
                {
                    "name": "D3",
                    "midi": 50,
                    "time": 799.562345333302,
                    "velocity": 0.47244094488188976,
                    "duration": 0.18221566666670697
                },
                {
                    "name": "E3",
                    "midi": 52,
                    "time": 799.7445609999687,
                    "velocity": 0.4330708661417323,
                    "duration": 0.18221566666670697
                },
                {
                    "name": "G#2",
                    "midi": 44,
                    "time": 799.7445609999687,
                    "velocity": 0.4330708661417323,
                    "duration": 0.5466470000001209
                },
                {
                    "name": "D3",
                    "midi": 50,
                    "time": 799.9267766666354,
                    "velocity": 0.47244094488188976,
                    "duration": 0.18221566666670697
                },
                {
                    "name": "E3",
                    "midi": 52,
                    "time": 800.1089923333021,
                    "velocity": 0.4251968503937008,
                    "duration": 0.18221566666670697
                },
                {
                    "name": "D3",
                    "midi": 50,
                    "time": 800.2912079999688,
                    "velocity": 0.47244094488188976,
                    "duration": 0.18221566666670697
                },
                {
                    "name": "A2",
                    "midi": 45,
                    "time": 800.2912079999688,
                    "velocity": 0.49606299212598426,
                    "duration": 2.186588000000256
                },
                {
                    "name": "E3",
                    "midi": 52,
                    "time": 800.4734236666355,
                    "velocity": 0.4409448818897638,
                    "duration": 0.18221566666670697
                },
                {
                    "name": "D3",
                    "midi": 50,
                    "time": 800.6556393333022,
                    "velocity": 0.47244094488188976,
                    "duration": 0.18221566666670697
                },
                {
                    "name": "E3",
                    "midi": 52,
                    "time": 800.837854999969,
                    "velocity": 0.47244094488188976,
                    "duration": 0.13666175000003022
                },
                {
                    "name": "D3",
                    "midi": 50,
                    "time": 800.974516749969,
                    "velocity": 0.4330708661417323,
                    "duration": 0.13666175000003022
                },
                {
                    "name": "C#3",
                    "midi": 49,
                    "time": 801.111178499969,
                    "velocity": 0.4330708661417323,
                    "duration": 0.13666175000003022
                },
                {
                    "name": "D3",
                    "midi": 50,
                    "time": 801.247840249969,
                    "velocity": 0.4330708661417323,
                    "duration": 0.13666175000003022
                },
                {
                    "name": "C#3",
                    "midi": 49,
                    "time": 801.3845019999691,
                    "velocity": 0.47244094488188976,
                    "duration": 1.0932940000000144
                },
                {
                    "name": "D3",
                    "midi": 50,
                    "time": 803.0244429999691,
                    "velocity": 0.48031496062992124,
                    "duration": 0.27332349999994676
                },
                {
                    "name": "B2",
                    "midi": 47,
                    "time": 803.0244429999691,
                    "velocity": 0.48031496062992124,
                    "duration": 0.5466469999998935
                },
                {
                    "name": "E3",
                    "midi": 52,
                    "time": 803.297766499969,
                    "velocity": 0.4409448818897638,
                    "duration": 0.27332349999994676
                },
                {
                    "name": "A2",
                    "midi": 45,
                    "time": 803.571089999969,
                    "velocity": 0.47244094488188976,
                    "duration": 1.093293999999787
                },
                {
                    "name": "F#3",
                    "midi": 54,
                    "time": 803.571089999969,
                    "velocity": 0.47244094488188976,
                    "duration": 0.27332349999994676
                },
                {
                    "name": "G3",
                    "midi": 55,
                    "time": 803.8444134999689,
                    "velocity": 0.4881889763779528,
                    "duration": 0.27332349999994676
                },
                {
                    "name": "A3",
                    "midi": 57,
                    "time": 804.1177369999689,
                    "velocity": 0.5039370078740157,
                    "duration": 0.27332349999994676
                },
                {
                    "name": "B3",
                    "midi": 59,
                    "time": 804.3910604999688,
                    "velocity": 0.5196850393700787,
                    "duration": 0.27332349999994676
                },
                {
                    "name": "F#3",
                    "midi": 54,
                    "time": 804.6643839999688,
                    "velocity": 0.5196850393700787,
                    "duration": 1.0932940000000144
                },
                {
                    "name": "G2",
                    "midi": 43,
                    "time": 806.3043249999688,
                    "velocity": 0.48031496062992124,
                    "duration": 0.5466469999998935
                },
                {
                    "name": "F#3",
                    "midi": 54,
                    "time": 806.3043249999688,
                    "velocity": 0.48031496062992124,
                    "duration": 0.27332349999994676
                },
                {
                    "name": "G3",
                    "midi": 55,
                    "time": 806.5776484999687,
                    "velocity": 0.4409448818897638,
                    "duration": 0.27332349999994676
                },
                {
                    "name": "F#3",
                    "midi": 54,
                    "time": 806.8509719999687,
                    "velocity": 0.47244094488188976,
                    "duration": 1.093293999999787
                },
                {
                    "name": "A3",
                    "midi": 57,
                    "time": 806.8509719999687,
                    "velocity": 0.47244094488188976,
                    "duration": 0.27332349999994676
                },
                {
                    "name": "B3",
                    "midi": 59,
                    "time": 807.1242954999686,
                    "velocity": 0.4881889763779528,
                    "duration": 0.27332349999994676
                },
                {
                    "name": "C#4",
                    "midi": 61,
                    "time": 807.3976189999686,
                    "velocity": 0.5039370078740157,
                    "duration": 0.27332349999994676
                },
                {
                    "name": "D4",
                    "midi": 62,
                    "time": 807.6709424999685,
                    "velocity": 0.5196850393700787,
                    "duration": 0.27332349999994676
                },
                {
                    "name": "A3",
                    "midi": 57,
                    "time": 807.9442659999685,
                    "velocity": 0.5196850393700787,
                    "duration": 1.0932940000000144
                },
                {
                    "name": "D3",
                    "midi": 50,
                    "time": 809.5842069999685,
                    "velocity": 0.41732283464566927,
                    "duration": 0.5466469999998935
                },
                {
                    "name": "A3",
                    "midi": 57,
                    "time": 809.5842069999685,
                    "velocity": 0.41732283464566927,
                    "duration": 0.27332349999994676
                },
                {
                    "name": "B3",
                    "midi": 59,
                    "time": 809.8575304999684,
                    "velocity": 0.3700787401574803,
                    "duration": 0.27332349999994676
                },
                {
                    "name": "E3",
                    "midi": 52,
                    "time": 810.1308539999684,
                    "velocity": 0.41732283464566927,
                    "duration": 0.27332349999994676
                },
                {
                    "name": "D#3",
                    "midi": 51,
                    "time": 810.4041774999683,
                    "velocity": 0.3700787401574803,
                    "duration": 0.27332349999994676
                },
                {
                    "name": "E3",
                    "midi": 52,
                    "time": 810.6775009999683,
                    "velocity": 0.3700787401574803,
                    "duration": 0.27332349999994676
                },
                {
                    "name": "F#3",
                    "midi": 54,
                    "time": 810.9508244999682,
                    "velocity": 0.3700787401574803,
                    "duration": 0.27332349999994676
                },
                {
                    "name": "G3",
                    "midi": 55,
                    "time": 811.2241479999682,
                    "velocity": 0.41732283464566927,
                    "duration": 0.27332349999994676
                },
                {
                    "name": "F#3",
                    "midi": 54,
                    "time": 811.4974714999681,
                    "velocity": 0.3700787401574803,
                    "duration": 0.27332349999994676
                },
                {
                    "name": "G3",
                    "midi": 55,
                    "time": 811.7707949999681,
                    "velocity": 0.3700787401574803,
                    "duration": 0.27332349999994676
                },
                {
                    "name": "A3",
                    "midi": 57,
                    "time": 812.044118499968,
                    "velocity": 0.3700787401574803,
                    "duration": 0.27332349999994676
                },
                {
                    "name": "B3",
                    "midi": 59,
                    "time": 812.317441999968,
                    "velocity": 0.41732283464566927,
                    "duration": 0.27332349999994676
                },
                {
                    "name": "A3",
                    "midi": 57,
                    "time": 812.5907654999679,
                    "velocity": 0.3700787401574803,
                    "duration": 0.27332349999994676
                },
                {
                    "name": "G3",
                    "midi": 55,
                    "time": 812.8640889999679,
                    "velocity": 0.3700787401574803,
                    "duration": 0.27332349999994676
                },
                {
                    "name": "G#3",
                    "midi": 56,
                    "time": 813.1374124999678,
                    "velocity": 0.3700787401574803,
                    "duration": 0.27332349999994676
                },
                {
                    "name": "A2",
                    "midi": 45,
                    "time": 813.4107359999678,
                    "velocity": 0.3700787401574803,
                    "duration": 0.5466469999998935
                },
                {
                    "name": "A3",
                    "midi": 57,
                    "time": 813.4107359999678,
                    "velocity": 0.3700787401574803,
                    "duration": 0.27332349999994676
                },
                {
                    "name": "G#3",
                    "midi": 56,
                    "time": 813.6840594999677,
                    "velocity": 0.33070866141732286,
                    "duration": 0.27332349999994676
                },
                {
                    "name": "A3",
                    "midi": 57,
                    "time": 813.9573829999676,
                    "velocity": 0.36220472440944884,
                    "duration": 0.27332349999994676
                },
                {
                    "name": "B3",
                    "midi": 59,
                    "time": 814.2307064999676,
                    "velocity": 0.3858267716535433,
                    "duration": 0.27332349999994676
                },
                {
                    "name": "C#4",
                    "midi": 61,
                    "time": 814.5040299999675,
                    "velocity": 0.41732283464566927,
                    "duration": 0.5466470000000072
                },
                {
                    "name": "C#3",
                    "midi": 49,
                    "time": 815.0506769999675,
                    "velocity": 0.3700787401574803,
                    "duration": 0.27332349999994676
                },
                {
                    "name": "A2",
                    "midi": 45,
                    "time": 815.0506769999675,
                    "velocity": 0.3700787401574803,
                    "duration": 1.0932939999999007
                },
                {
                    "name": "D3",
                    "midi": 50,
                    "time": 815.3240004999675,
                    "velocity": 0.3228346456692913,
                    "duration": 0.27332349999994676
                },
                {
                    "name": "E3",
                    "midi": 52,
                    "time": 815.5973239999674,
                    "velocity": 0.4094488188976378,
                    "duration": 1.6399410000000216
                },
                {
                    "name": "B2",
                    "midi": 47,
                    "time": 816.1439709999675,
                    "velocity": 0.31496062992125984,
                    "duration": 0.5466470000000072
                },
                {
                    "name": "C#3",
                    "midi": 49,
                    "time": 816.6906179999675,
                    "velocity": 0.41732283464566927,
                    "duration": 0.5466470000000072
                },
                {
                    "name": "F#3",
                    "midi": 54,
                    "time": 817.2372649999675,
                    "velocity": 0.3700787401574803,
                    "duration": 0.27332349999994676
                },
                {
                    "name": "D3",
                    "midi": 50,
                    "time": 817.2372649999675,
                    "velocity": 0.3700787401574803,
                    "duration": 1.6399409999996806
                },
                {
                    "name": "G3",
                    "midi": 55,
                    "time": 817.5105884999674,
                    "velocity": 0.33070866141732286,
                    "duration": 0.27332349999994676
                },
                {
                    "name": "A3",
                    "midi": 57,
                    "time": 817.7839119999674,
                    "velocity": 0.3700787401574803,
                    "duration": 0.27332349999994676
                },
                {
                    "name": "G3",
                    "midi": 55,
                    "time": 818.0572354999673,
                    "velocity": 0.3228346456692913,
                    "duration": 0.27332349999994676
                },
                {
                    "name": "F#3",
                    "midi": 54,
                    "time": 818.3305589999673,
                    "velocity": 0.3228346456692913,
                    "duration": 0.27332349999994676
                },
                {
                    "name": "E3",
                    "midi": 52,
                    "time": 818.6038824999672,
                    "velocity": 0.3228346456692913,
                    "duration": 0.27332349999994676
                },
                {
                    "name": "D3",
                    "midi": 50,
                    "time": 818.8772059999671,
                    "velocity": 0.3700787401574803,
                    "duration": 0.27332349999994676
                },
                {
                    "name": "E3",
                    "midi": 52,
                    "time": 819.1505294999671,
                    "velocity": 0.33858267716535434,
                    "duration": 0.27332349999994676
                },
                {
                    "name": "F#3",
                    "midi": 54,
                    "time": 819.423852999967,
                    "velocity": 0.33858267716535434,
                    "duration": 0.27332349999994676
                },
                {
                    "name": "G3",
                    "midi": 55,
                    "time": 819.697176499967,
                    "velocity": 0.33858267716535434,
                    "duration": 0.27332349999994676
                },
                {
                    "name": "A3",
                    "midi": 57,
                    "time": 819.9704999999669,
                    "velocity": 0.33858267716535434,
                    "duration": 0.27332349999994676
                },
                {
                    "name": "B3",
                    "midi": 59,
                    "time": 820.2438234999669,
                    "velocity": 0.30708661417322836,
                    "duration": 0.27332349999994676
                },
                {
                    "name": "C4",
                    "midi": 60,
                    "time": 820.5171469999668,
                    "velocity": 0.33858267716535434,
                    "duration": 0.27332349999994676
                },
                {
                    "name": "D4",
                    "midi": 62,
                    "time": 820.7904704999668,
                    "velocity": 0.30708661417322836,
                    "duration": 0.27332349999994676
                },
                {
                    "name": "E4",
                    "midi": 64,
                    "time": 821.0637939999667,
                    "velocity": 0.3858267716535433,
                    "duration": 0.27332349999994676
                },
                {
                    "name": "D4",
                    "midi": 62,
                    "time": 821.3371174999667,
                    "velocity": 0.33858267716535434,
                    "duration": 0.27332349999994676
                },
                {
                    "name": "D3",
                    "midi": 50,
                    "time": 821.6104409999666,
                    "velocity": 0.33858267716535434,
                    "duration": 0.5466470000000072
                },
                {
                    "name": "G3",
                    "midi": 55,
                    "time": 822.1570879999666,
                    "velocity": 0.36220472440944884,
                    "duration": 0.27332349999994676
                },
                {
                    "name": "B3",
                    "midi": 59,
                    "time": 822.4304114999666,
                    "velocity": 0.31496062992125984,
                    "duration": 0.27332349999994676
                },
                {
                    "name": "G3",
                    "midi": 55,
                    "time": 822.7037349999665,
                    "velocity": 0.36220472440944884,
                    "duration": 0.27332349999994676
                },
                {
                    "name": "E3",
                    "midi": 52,
                    "time": 822.9770584999665,
                    "velocity": 0.33858267716535434,
                    "duration": 0.27332349999994676
                },
                {
                    "name": "F#3",
                    "midi": 54,
                    "time": 823.2503819999664,
                    "velocity": 0.33858267716535434,
                    "duration": 0.27332349999994676
                },
                {
                    "name": "E3",
                    "midi": 52,
                    "time": 823.5237054999664,
                    "velocity": 0.30708661417322836,
                    "duration": 0.27332349999994676
                },
                {
                    "name": "F#3",
                    "midi": 54,
                    "time": 823.7970289999663,
                    "velocity": 0.33858267716535434,
                    "duration": 0.27332349999994676
                },
                {
                    "name": "G3",
                    "midi": 55,
                    "time": 824.0703524999662,
                    "velocity": 0.30708661417322836,
                    "duration": 0.27332349999994676
                },
                {
                    "name": "A3",
                    "midi": 57,
                    "time": 824.3436759999662,
                    "velocity": 0.3858267716535433,
                    "duration": 0.27332349999994676
                },
                {
                    "name": "B3",
                    "midi": 59,
                    "time": 824.6169994999661,
                    "velocity": 0.33858267716535434,
                    "duration": 0.27332349999994676
                },
                {
                    "name": "B2",
                    "midi": 47,
                    "time": 824.8903229999661,
                    "velocity": 0.33858267716535434,
                    "duration": 0.5466470000000072
                },
                {
                    "name": "E3",
                    "midi": 52,
                    "time": 825.4369699999661,
                    "velocity": 0.4094488188976378,
                    "duration": 1.0932940000000144
                },
                {
                    "name": "E3",
                    "midi": 52,
                    "time": 826.5302639999661,
                    "velocity": 0.33858267716535434,
                    "duration": 0.27332349999994676
                },
                {
                    "name": "D3",
                    "midi": 50,
                    "time": 826.803587499966,
                    "velocity": 0.30708661417322836,
                    "duration": 0.27332349999994676
                },
                {
                    "name": "E3",
                    "midi": 52,
                    "time": 827.076910999966,
                    "velocity": 0.33858267716535434,
                    "duration": 0.27332349999994676
                },
                {
                    "name": "F#3",
                    "midi": 54,
                    "time": 827.350234499966,
                    "velocity": 0.30708661417322836,
                    "duration": 0.27332349999994676
                },
                {
                    "name": "G3",
                    "midi": 55,
                    "time": 827.6235579999659,
                    "velocity": 0.3858267716535433,
                    "duration": 0.27332349999994676
                },
                {
                    "name": "A3",
                    "midi": 57,
                    "time": 827.8968814999658,
                    "velocity": 0.33858267716535434,
                    "duration": 0.27332349999994676
                },
                {
                    "name": "A2",
                    "midi": 45,
                    "time": 828.1702049999658,
                    "velocity": 0.33858267716535434,
                    "duration": 0.5466470000000072
                },
                {
                    "name": "D3",
                    "midi": 50,
                    "time": 828.7168519999658,
                    "velocity": 0.4094488188976378,
                    "duration": 1.0932940000000144
                },
                {
                    "name": "A3",
                    "midi": 57,
                    "time": 829.8101459999658,
                    "velocity": 0.5196850393700787,
                    "duration": 0.18221566666670697
                },
                {
                    "name": "B3",
                    "midi": 59,
                    "time": 829.9923616666325,
                    "velocity": 0.4645669291338583,
                    "duration": 0.18221566666670697
                },
                {
                    "name": "A3",
                    "midi": 57,
                    "time": 830.1745773332992,
                    "velocity": 0.49606299212598426,
                    "duration": 0.18221566666670697
                },
                {
                    "name": "B3",
                    "midi": 59,
                    "time": 830.3567929999659,
                    "velocity": 0.4566929133858268,
                    "duration": 0.18221566666670697
                },
                {
                    "name": "A3",
                    "midi": 57,
                    "time": 830.5390086666326,
                    "velocity": 0.47244094488188976,
                    "duration": 0.18221566666670697
                },
                {
                    "name": "B3",
                    "midi": 59,
                    "time": 830.7212243332993,
                    "velocity": 0.44881889763779526,
                    "duration": 0.18221566666670697
                },
                {
                    "name": "A3",
                    "midi": 57,
                    "time": 830.903439999966,
                    "velocity": 0.4645669291338583,
                    "duration": 0.18221566666670697
                },
                {
                    "name": "B3",
                    "midi": 59,
                    "time": 831.0856556666328,
                    "velocity": 0.41732283464566927,
                    "duration": 0.18221566666670697
                },
                {
                    "name": "A3",
                    "midi": 57,
                    "time": 831.2678713332995,
                    "velocity": 0.4645669291338583,
                    "duration": 0.18221566666670697
                },
                {
                    "name": "B3",
                    "midi": 59,
                    "time": 831.4500869999662,
                    "velocity": 0.4251968503937008,
                    "duration": 0.18221566666670697
                },
                {
                    "name": "A3",
                    "midi": 57,
                    "time": 831.6323026666329,
                    "velocity": 0.4566929133858268,
                    "duration": 0.18221566666670697
                },
                {
                    "name": "B3",
                    "midi": 59,
                    "time": 831.8145183332996,
                    "velocity": 0.44881889763779526,
                    "duration": 0.18221566666670697
                },
                {
                    "name": "G#3",
                    "midi": 56,
                    "time": 831.9967339999663,
                    "velocity": 0.4251968503937008,
                    "duration": 0.27332349999994676
                },
                {
                    "name": "B3",
                    "midi": 59,
                    "time": 832.2700574999662,
                    "velocity": 0.33070866141732286,
                    "duration": 0.27332349999994676
                },
                {
                    "name": "G#3",
                    "midi": 56,
                    "time": 832.5433809999662,
                    "velocity": 0.3937007874015748,
                    "duration": 0.27332349999994676
                },
                {
                    "name": "E3",
                    "midi": 52,
                    "time": 832.8167044999661,
                    "velocity": 0.31496062992125984,
                    "duration": 0.27332349999994676
                },
                {
                    "name": "G3",
                    "midi": 55,
                    "time": 833.0900279999661,
                    "velocity": 0.5196850393700787,
                    "duration": 0.18221566666670697
                },
                {
                    "name": "A3",
                    "midi": 57,
                    "time": 833.2722436666328,
                    "velocity": 0.4645669291338583,
                    "duration": 0.18221566666670697
                },
                {
                    "name": "G3",
                    "midi": 55,
                    "time": 833.4544593332995,
                    "velocity": 0.49606299212598426,
                    "duration": 0.18221566666670697
                },
                {
                    "name": "A3",
                    "midi": 57,
                    "time": 833.6366749999662,
                    "velocity": 0.4566929133858268,
                    "duration": 0.18221566666670697
                },
                {
                    "name": "G3",
                    "midi": 55,
                    "time": 833.8188906666329,
                    "velocity": 0.47244094488188976,
                    "duration": 0.18221566666670697
                },
                {
                    "name": "A3",
                    "midi": 57,
                    "time": 834.0011063332996,
                    "velocity": 0.44881889763779526,
                    "duration": 0.18221566666670697
                },
                {
                    "name": "G3",
                    "midi": 55,
                    "time": 834.1833219999663,
                    "velocity": 0.4645669291338583,
                    "duration": 0.18221566666670697
                },
                {
                    "name": "A3",
                    "midi": 57,
                    "time": 834.365537666633,
                    "velocity": 0.41732283464566927,
                    "duration": 0.18221566666670697
                },
                {
                    "name": "G3",
                    "midi": 55,
                    "time": 834.5477533332997,
                    "velocity": 0.4645669291338583,
                    "duration": 0.18221566666670697
                },
                {
                    "name": "A3",
                    "midi": 57,
                    "time": 834.7299689999664,
                    "velocity": 0.4251968503937008,
                    "duration": 0.18221566666670697
                },
                {
                    "name": "G3",
                    "midi": 55,
                    "time": 834.9121846666332,
                    "velocity": 0.4566929133858268,
                    "duration": 0.18221566666670697
                },
                {
                    "name": "A3",
                    "midi": 57,
                    "time": 835.0944003332999,
                    "velocity": 0.44881889763779526,
                    "duration": 0.18221566666670697
                },
                {
                    "name": "F#3",
                    "midi": 54,
                    "time": 835.2766159999666,
                    "velocity": 0.4251968503937008,
                    "duration": 0.27332349999994676
                },
                {
                    "name": "A3",
                    "midi": 57,
                    "time": 835.5499394999665,
                    "velocity": 0.33070866141732286,
                    "duration": 0.27332349999994676
                },
                {
                    "name": "F#3",
                    "midi": 54,
                    "time": 835.8232629999665,
                    "velocity": 0.3937007874015748,
                    "duration": 0.27332349999994676
                },
                {
                    "name": "D3",
                    "midi": 50,
                    "time": 836.0965864999664,
                    "velocity": 0.31496062992125984,
                    "duration": 0.27332349999994676
                },
                {
                    "name": "F3",
                    "midi": 53,
                    "time": 836.3699099999664,
                    "velocity": 0.5196850393700787,
                    "duration": 0.18221566666670697
                },
                {
                    "name": "G3",
                    "midi": 55,
                    "time": 836.5521256666331,
                    "velocity": 0.4645669291338583,
                    "duration": 0.18221566666670697
                },
                {
                    "name": "F3",
                    "midi": 53,
                    "time": 836.7343413332998,
                    "velocity": 0.49606299212598426,
                    "duration": 0.18221566666670697
                },
                {
                    "name": "G3",
                    "midi": 55,
                    "time": 836.9165569999665,
                    "velocity": 0.4566929133858268,
                    "duration": 0.18221566666670697
                },
                {
                    "name": "F3",
                    "midi": 53,
                    "time": 837.0987726666332,
                    "velocity": 0.47244094488188976,
                    "duration": 0.18221566666670697
                },
                {
                    "name": "G3",
                    "midi": 55,
                    "time": 837.2809883332999,
                    "velocity": 0.44881889763779526,
                    "duration": 0.18221566666670697
                },
                {
                    "name": "F3",
                    "midi": 53,
                    "time": 837.4632039999666,
                    "velocity": 0.4645669291338583,
                    "duration": 0.18221566666670697
                },
                {
                    "name": "G3",
                    "midi": 55,
                    "time": 837.6454196666333,
                    "velocity": 0.41732283464566927,
                    "duration": 0.18221566666670697
                },
                {
                    "name": "F3",
                    "midi": 53,
                    "time": 837.8276353333,
                    "velocity": 0.4645669291338583,
                    "duration": 0.18221566666670697
                },
                {
                    "name": "G3",
                    "midi": 55,
                    "time": 838.0098509999667,
                    "velocity": 0.4251968503937008,
                    "duration": 0.18221566666670697
                },
                {
                    "name": "F3",
                    "midi": 53,
                    "time": 838.1920666666334,
                    "velocity": 0.4566929133858268,
                    "duration": 0.18221566666670697
                },
                {
                    "name": "G3",
                    "midi": 55,
                    "time": 838.3742823333001,
                    "velocity": 0.44881889763779526,
                    "duration": 0.18221566666670697
                },
                {
                    "name": "D#3",
                    "midi": 51,
                    "time": 838.5564979999668,
                    "velocity": 0.4251968503937008,
                    "duration": 0.27332349999994676
                },
                {
                    "name": "G3",
                    "midi": 55,
                    "time": 838.8298214999668,
                    "velocity": 0.3858267716535433,
                    "duration": 0.27332349999994676
                },
                {
                    "name": "D#3",
                    "midi": 51,
                    "time": 839.1031449999667,
                    "velocity": 0.4645669291338583,
                    "duration": 0.27332349999994676
                },
                {
                    "name": "C3",
                    "midi": 48,
                    "time": 839.3764684999667,
                    "velocity": 0.4251968503937008,
                    "duration": 0.27332349999994676
                },
                {
                    "name": "G#3",
                    "midi": 56,
                    "time": 839.6497919999666,
                    "velocity": 0.5748031496062992,
                    "duration": 0.5466470000000072
                },
                {
                    "name": "F2",
                    "midi": 41,
                    "time": 840.7430859999666,
                    "velocity": 0.5196850393700787,
                    "duration": 0.18221566666670697
                },
                {
                    "name": "G2",
                    "midi": 43,
                    "time": 840.9253016666333,
                    "velocity": 0.4645669291338583,
                    "duration": 0.18221566666670697
                },
                {
                    "name": "F2",
                    "midi": 41,
                    "time": 841.1075173333,
                    "velocity": 0.49606299212598426,
                    "duration": 0.18221566666670697
                },
                {
                    "name": "G2",
                    "midi": 43,
                    "time": 841.2897329999668,
                    "velocity": 0.4566929133858268,
                    "duration": 0.18221566666670697
                },
                {
                    "name": "F2",
                    "midi": 41,
                    "time": 841.4719486666335,
                    "velocity": 0.47244094488188976,
                    "duration": 0.18221566666670697
                },
                {
                    "name": "G2",
                    "midi": 43,
                    "time": 841.6541643333002,
                    "velocity": 0.44881889763779526,
                    "duration": 0.18221566666670697
                },
                {
                    "name": "F2",
                    "midi": 41,
                    "time": 841.8363799999669,
                    "velocity": 0.4645669291338583,
                    "duration": 0.18221566666670697
                },
                {
                    "name": "G2",
                    "midi": 43,
                    "time": 842.0185956666336,
                    "velocity": 0.41732283464566927,
                    "duration": 0.18221566666670697
                },
                {
                    "name": "F2",
                    "midi": 41,
                    "time": 842.2008113333003,
                    "velocity": 0.4645669291338583,
                    "duration": 0.18221566666670697
                },
                {
                    "name": "G2",
                    "midi": 43,
                    "time": 842.383026999967,
                    "velocity": 0.4251968503937008,
                    "duration": 0.18221566666670697
                },
                {
                    "name": "F2",
                    "midi": 41,
                    "time": 842.5652426666337,
                    "velocity": 0.4566929133858268,
                    "duration": 0.18221566666670697
                },
                {
                    "name": "G2",
                    "midi": 43,
                    "time": 842.7474583333004,
                    "velocity": 0.44881889763779526,
                    "duration": 0.18221566666670697
                },
                {
                    "name": "D#2",
                    "midi": 39,
                    "time": 842.9296739999671,
                    "velocity": 0.49606299212598426,
                    "duration": 1.0932940000000144
                },
                {
                    "name": "D#2",
                    "midi": 39,
                    "time": 844.5696149999671,
                    "velocity": 0.41732283464566927,
                    "duration": 0.3279881999999361
                },
                {
                    "name": "F2",
                    "midi": 41,
                    "time": 844.8429384999671,
                    "velocity": 0.4251968503937008,
                    "duration": 0.3279881999999361
                },
                {
                    "name": "G2",
                    "midi": 43,
                    "time": 845.116261999967,
                    "velocity": 0.4409448818897638,
                    "duration": 0.3279881999999361
                },
                {
                    "name": "G#2",
                    "midi": 44,
                    "time": 845.389585499967,
                    "velocity": 0.44881889763779526,
                    "duration": 0.3279881999999361
                },
                {
                    "name": "A#2",
                    "midi": 46,
                    "time": 845.6629089999669,
                    "velocity": 0.4645669291338583,
                    "duration": 0.3279881999999361
                },
                {
                    "name": "C3",
                    "midi": 48,
                    "time": 845.9362324999669,
                    "velocity": 0.47244094488188976,
                    "duration": 0.27332349999994676
                },
                {
                    "name": "G2",
                    "midi": 43,
                    "time": 846.2095559999668,
                    "velocity": 0.5275590551181102,
                    "duration": 0.5466470000000072
                },
                {
                    "name": "G2",
                    "midi": 43,
                    "time": 847.8494969999668,
                    "velocity": 0.41732283464566927,
                    "duration": 0.3279881999999361
                },
                {
                    "name": "G#2",
                    "midi": 44,
                    "time": 848.1228204999668,
                    "velocity": 0.4251968503937008,
                    "duration": 0.3279881999999361
                },
                {
                    "name": "A#2",
                    "midi": 46,
                    "time": 848.3961439999667,
                    "velocity": 0.4409448818897638,
                    "duration": 0.3279881999999361
                },
                {
                    "name": "C3",
                    "midi": 48,
                    "time": 848.6694674999667,
                    "velocity": 0.44881889763779526,
                    "duration": 0.3279881999999361
                },
                {
                    "name": "D3",
                    "midi": 50,
                    "time": 848.9427909999666,
                    "velocity": 0.4645669291338583,
                    "duration": 0.3279881999999361
                },
                {
                    "name": "D#3",
                    "midi": 51,
                    "time": 849.2161144999666,
                    "velocity": 0.47244094488188976,
                    "duration": 0.27332349999994676
                },
                {
                    "name": "A#2",
                    "midi": 46,
                    "time": 849.4894379999665,
                    "velocity": 0.5275590551181102,
                    "duration": 0.5466470000000072
                },
                {
                    "name": "A#2",
                    "midi": 46,
                    "time": 851.1293789999665,
                    "velocity": 0.41732283464566927,
                    "duration": 0.3279881999999361
                },
                {
                    "name": "C3",
                    "midi": 48,
                    "time": 851.4027024999665,
                    "velocity": 0.4251968503937008,
                    "duration": 0.3279881999999361
                },
                {
                    "name": "D3",
                    "midi": 50,
                    "time": 851.6760259999664,
                    "velocity": 0.4409448818897638,
                    "duration": 0.3279881999999361
                },
                {
                    "name": "C3",
                    "midi": 48,
                    "time": 851.9493494999664,
                    "velocity": 0.44881889763779526,
                    "duration": 0.3279881999999361
                },
                {
                    "name": "D3",
                    "midi": 50,
                    "time": 852.2226729999663,
                    "velocity": 0.4645669291338583,
                    "duration": 0.3279881999999361
                },
                {
                    "name": "D#3",
                    "midi": 51,
                    "time": 852.4959964999663,
                    "velocity": 0.47244094488188976,
                    "duration": 0.3279881999999361
                },
                {
                    "name": "F3",
                    "midi": 53,
                    "time": 852.7693199999662,
                    "velocity": 0.4881889763779528,
                    "duration": 0.3279881999999361
                },
                {
                    "name": "E3",
                    "midi": 52,
                    "time": 853.0426434999662,
                    "velocity": 0.4409448818897638,
                    "duration": 0.3279881999999361
                },
                {
                    "name": "F3",
                    "midi": 53,
                    "time": 853.3159669999661,
                    "velocity": 0.4409448818897638,
                    "duration": 0.3279881999999361
                },
                {
                    "name": "G3",
                    "midi": 55,
                    "time": 853.5892904999661,
                    "velocity": 0.4409448818897638,
                    "duration": 0.3279881999999361
                },
                {
                    "name": "G#3",
                    "midi": 56,
                    "time": 853.862613999966,
                    "velocity": 0.49606299212598426,
                    "duration": 0.3279881999999361
                },
                {
                    "name": "G3",
                    "midi": 55,
                    "time": 854.135937499966,
                    "velocity": 0.4251968503937008,
                    "duration": 0.3279881999999361
                },
                {
                    "name": "F3",
                    "midi": 53,
                    "time": 854.4092609999659,
                    "velocity": 0.4251968503937008,
                    "duration": 0.3279881999999361
                },
                {
                    "name": "D#3",
                    "midi": 51,
                    "time": 854.6825844999659,
                    "velocity": 0.4251968503937008,
                    "duration": 0.3279881999999361
                },
                {
                    "name": "D3",
                    "midi": 50,
                    "time": 854.9559079999658,
                    "velocity": 0.48031496062992124,
                    "duration": 0.3279881999999361
                },
                {
                    "name": "D#3",
                    "midi": 51,
                    "time": 855.2292314999657,
                    "velocity": 0.4251968503937008,
                    "duration": 0.3279881999999361
                },
                {
                    "name": "D3",
                    "midi": 50,
                    "time": 855.5025549999657,
                    "velocity": 0.4251968503937008,
                    "duration": 0.3279881999999361
                },
                {
                    "name": "C3",
                    "midi": 48,
                    "time": 855.7758784999656,
                    "velocity": 0.4251968503937008,
                    "duration": 0.3279881999999361
                },
                {
                    "name": "A#2",
                    "midi": 46,
                    "time": 856.0492019999656,
                    "velocity": 0.4409448818897638,
                    "duration": 0.3279881999999361
                },
                {
                    "name": "C3",
                    "midi": 48,
                    "time": 856.3225254999655,
                    "velocity": 0.4015748031496063,
                    "duration": 0.3279881999999361
                },
                {
                    "name": "A#2",
                    "midi": 46,
                    "time": 856.5958489999655,
                    "velocity": 0.4015748031496063,
                    "duration": 0.3279881999999361
                },
                {
                    "name": "G#2",
                    "midi": 44,
                    "time": 856.8691724999654,
                    "velocity": 0.4015748031496063,
                    "duration": 0.3279881999999361
                },
                {
                    "name": "G2",
                    "midi": 43,
                    "time": 857.1424959999654,
                    "velocity": 0.4409448818897638,
                    "duration": 0.3279881999999361
                },
                {
                    "name": "G#2",
                    "midi": 44,
                    "time": 857.4158194999653,
                    "velocity": 0.3937007874015748,
                    "duration": 0.3279881999999361
                },
                {
                    "name": "A#2",
                    "midi": 46,
                    "time": 857.6891429999653,
                    "velocity": 0.3937007874015748,
                    "duration": 0.3279881999999361
                },
                {
                    "name": "C3",
                    "midi": 48,
                    "time": 857.9624664999652,
                    "velocity": 0.3937007874015748,
                    "duration": 0.3279881999999361
                },
                {
                    "name": "D3",
                    "midi": 50,
                    "time": 858.2357899999652,
                    "velocity": 0.4645669291338583,
                    "duration": 0.3279881999999361
                },
                {
                    "name": "D#3",
                    "midi": 51,
                    "time": 858.5091134999651,
                    "velocity": 0.4094488188976378,
                    "duration": 0.3279881999999361
                },
                {
                    "name": "F3",
                    "midi": 53,
                    "time": 858.7824369999651,
                    "velocity": 0.44881889763779526,
                    "duration": 0.3279881999999361
                },
                {
                    "name": "G3",
                    "midi": 55,
                    "time": 859.055760499965,
                    "velocity": 0.4881889763779528,
                    "duration": 0.27332349999994676
                },
                {
                    "name": "G#2",
                    "midi": 44,
                    "time": 859.329083999965,
                    "velocity": 0.47244094488188976,
                    "duration": 0.3279881999999361
                },
                {
                    "name": "A#2",
                    "midi": 46,
                    "time": 859.6024074999649,
                    "velocity": 0.48031496062992124,
                    "duration": 0.3279881999999361
                },
                {
                    "name": "C3",
                    "midi": 48,
                    "time": 859.8757309999648,
                    "velocity": 0.4881889763779528,
                    "duration": 0.3279881999999361
                },
                {
                    "name": "C#3",
                    "midi": 49,
                    "time": 860.1490544999648,
                    "velocity": 0.49606299212598426,
                    "duration": 0.3279881999999361
                },
                {
                    "name": "D#3",
                    "midi": 51,
                    "time": 860.4223779999647,
                    "velocity": 0.5039370078740157,
                    "duration": 0.27332349999994676
                },
                {
                    "name": "F3",
                    "midi": 53,
                    "time": 860.6957014999647,
                    "velocity": 0.5118110236220472,
                    "duration": 0.27332349999994676
                },
                {
                    "name": "G3",
                    "midi": 55,
                    "time": 860.9690249999646,
                    "velocity": 0.5196850393700787,
                    "duration": 0.27332349999994676
                },
                {
                    "name": "G#3",
                    "midi": 56,
                    "time": 861.2423484999646,
                    "velocity": 0.5275590551181102,
                    "duration": 0.27332349999994676
                },
                {
                    "name": "A#3",
                    "midi": 58,
                    "time": 861.5156719999645,
                    "velocity": 0.5433070866141733,
                    "duration": 0.27332349999994676
                },
                {
                    "name": "B3",
                    "midi": 59,
                    "time": 861.7889954999645,
                    "velocity": 0.5511811023622047,
                    "duration": 0.27332349999994676
                },
                {
                    "name": "C4",
                    "midi": 60,
                    "time": 862.0623189999644,
                    "velocity": 0.5590551181102362,
                    "duration": 0.5466470000000072
                },
                {
                    "name": "G#5",
                    "midi": 80,
                    "time": 862.6089659999644,
                    "velocity": 0.6456692913385826,
                    "duration": 0.5420916083332941
                },
                {
                    "name": "F4",
                    "midi": 65,
                    "time": 863.7022599999644,
                    "velocity": 0.5905511811023622,
                    "duration": 0.18221566666670697
                },
                {
                    "name": "G4",
                    "midi": 67,
                    "time": 863.8844756666311,
                    "velocity": 0.5275590551181102,
                    "duration": 0.18221566666670697
                },
                {
                    "name": "F4",
                    "midi": 65,
                    "time": 864.0666913332979,
                    "velocity": 0.5669291338582677,
                    "duration": 0.18221566666670697
                },
                {
                    "name": "G4",
                    "midi": 67,
                    "time": 864.2489069999646,
                    "velocity": 0.4881889763779528,
                    "duration": 0.18221566666670697
                },
                {
                    "name": "F4",
                    "midi": 65,
                    "time": 864.4311226666313,
                    "velocity": 0.5275590551181102,
                    "duration": 0.18221566666670697
                },
                {
                    "name": "G4",
                    "midi": 67,
                    "time": 864.613338333298,
                    "velocity": 0.48031496062992124,
                    "duration": 0.18221566666670697
                },
                {
                    "name": "F4",
                    "midi": 65,
                    "time": 864.7955539999647,
                    "velocity": 0.5275590551181102,
                    "duration": 0.18221566666670697
                },
                {
                    "name": "G4",
                    "midi": 67,
                    "time": 864.9777696666314,
                    "velocity": 0.4881889763779528,
                    "duration": 0.18221566666670697
                },
                {
                    "name": "F4",
                    "midi": 65,
                    "time": 865.1599853332981,
                    "velocity": 0.5275590551181102,
                    "duration": 0.18221566666670697
                },
                {
                    "name": "G4",
                    "midi": 67,
                    "time": 865.3422009999648,
                    "velocity": 0.48031496062992124,
                    "duration": 0.18221566666670697
                },
                {
                    "name": "F4",
                    "midi": 65,
                    "time": 865.5244166666315,
                    "velocity": 0.5275590551181102,
                    "duration": 0.18221566666670697
                },
                {
                    "name": "G4",
                    "midi": 67,
                    "time": 865.7066323332982,
                    "velocity": 0.4881889763779528,
                    "duration": 0.18221566666670697
                },
                {
                    "name": "G3",
                    "midi": 55,
                    "time": 865.8888479999649,
                    "velocity": 0.47244094488188976,
                    "duration": 0.3279881999999361
                },
                {
                    "name": "G#3",
                    "midi": 56,
                    "time": 866.1621714999649,
                    "velocity": 0.48031496062992124,
                    "duration": 0.3279881999999361
                },
                {
                    "name": "A#3",
                    "midi": 58,
                    "time": 866.4354949999648,
                    "velocity": 0.4881889763779528,
                    "duration": 0.3279881999999361
                },
                {
                    "name": "C4",
                    "midi": 60,
                    "time": 866.7088184999648,
                    "velocity": 0.49606299212598426,
                    "duration": 0.3279881999999361
                },
                {
                    "name": "D4",
                    "midi": 62,
                    "time": 866.9821419999647,
                    "velocity": 0.5039370078740157,
                    "duration": 0.27332349999994676
                },
                {
                    "name": "D#4",
                    "midi": 63,
                    "time": 867.2554654999647,
                    "velocity": 0.5118110236220472,
                    "duration": 0.27332349999994676
                },
                {
                    "name": "F4",
                    "midi": 65,
                    "time": 867.5287889999646,
                    "velocity": 0.5196850393700787,
                    "duration": 0.27332349999994676
                },
                {
                    "name": "G4",
                    "midi": 67,
                    "time": 867.8021124999646,
                    "velocity": 0.5275590551181102,
                    "duration": 0.27332349999994676
                },
                {
                    "name": "G#4",
                    "midi": 68,
                    "time": 868.0754359999645,
                    "velocity": 0.5433070866141733,
                    "duration": 0.27332349999994676
                },
                {
                    "name": "A4",
                    "midi": 69,
                    "time": 868.3487594999644,
                    "velocity": 0.5511811023622047,
                    "duration": 0.27332349999994676
                },
                {
                    "name": "A#4",
                    "midi": 70,
                    "time": 868.6220829999644,
                    "velocity": 0.5590551181102362,
                    "duration": 0.5466470000000072
                },
                {
                    "name": "G3",
                    "midi": 55,
                    "time": 869.1687299999644,
                    "velocity": 0.7322834645669292,
                    "duration": 0.5466470000000072
                },
                {
                    "name": "D#2",
                    "midi": 39,
                    "time": 870.2620239999644,
                    "velocity": 0.5905511811023622,
                    "duration": 0.18221566666670697
                },
                {
                    "name": "F2",
                    "midi": 41,
                    "time": 870.4442396666311,
                    "velocity": 0.5275590551181102,
                    "duration": 0.18221566666670697
                },
                {
                    "name": "D#2",
                    "midi": 39,
                    "time": 870.6264553332978,
                    "velocity": 0.5669291338582677,
                    "duration": 0.18221566666670697
                },
                {
                    "name": "F2",
                    "midi": 41,
                    "time": 870.8086709999645,
                    "velocity": 0.4881889763779528,
                    "duration": 0.18221566666670697
                },
                {
                    "name": "D#2",
                    "midi": 39,
                    "time": 870.9908866666312,
                    "velocity": 0.5275590551181102,
                    "duration": 0.18221566666670697
                },
                {
                    "name": "F2",
                    "midi": 41,
                    "time": 871.173102333298,
                    "velocity": 0.48031496062992124,
                    "duration": 0.18221566666670697
                },
                {
                    "name": "D#2",
                    "midi": 39,
                    "time": 871.3553179999647,
                    "velocity": 0.5275590551181102,
                    "duration": 0.18221566666670697
                },
                {
                    "name": "F2",
                    "midi": 41,
                    "time": 871.5375336666314,
                    "velocity": 0.4881889763779528,
                    "duration": 0.18221566666670697
                },
                {
                    "name": "D#2",
                    "midi": 39,
                    "time": 871.7197493332981,
                    "velocity": 0.5275590551181102,
                    "duration": 0.18221566666670697
                },
                {
                    "name": "F2",
                    "midi": 41,
                    "time": 871.9019649999648,
                    "velocity": 0.48031496062992124,
                    "duration": 0.18221566666670697
                },
                {
                    "name": "D#2",
                    "midi": 39,
                    "time": 872.0841806666315,
                    "velocity": 0.5275590551181102,
                    "duration": 0.18221566666670697
                },
                {
                    "name": "F2",
                    "midi": 41,
                    "time": 872.2663963332982,
                    "velocity": 0.4881889763779528,
                    "duration": 0.18221566666670697
                },
                {
                    "name": "A#1",
                    "midi": 34,
                    "time": 872.4486119999649,
                    "velocity": 0.7637795275590551,
                    "duration": 0.5466470000000072
                },
                {
                    "name": "D3",
                    "midi": 50,
                    "time": 873.5419059999649,
                    "velocity": 0.5905511811023622,
                    "duration": 0.18221566666670697
                },
                {
                    "name": "D#3",
                    "midi": 51,
                    "time": 873.7241216666316,
                    "velocity": 0.5275590551181102,
                    "duration": 0.18221566666670697
                },
                {
                    "name": "D3",
                    "midi": 50,
                    "time": 873.9063373332983,
                    "velocity": 0.5669291338582677,
                    "duration": 0.18221566666670697
                },
                {
                    "name": "D#3",
                    "midi": 51,
                    "time": 874.088552999965,
                    "velocity": 0.4881889763779528,
                    "duration": 0.18221566666670697
                },
                {
                    "name": "D3",
                    "midi": 50,
                    "time": 874.2707686666317,
                    "velocity": 0.5275590551181102,
                    "duration": 0.18221566666670697
                },
                {
                    "name": "D#3",
                    "midi": 51,
                    "time": 874.4529843332984,
                    "velocity": 0.48031496062992124,
                    "duration": 0.18221566666670697
                },
                {
                    "name": "D3",
                    "midi": 50,
                    "time": 874.6351999999652,
                    "velocity": 0.5275590551181102,
                    "duration": 0.18221566666670697
                },
                {
                    "name": "D#3",
                    "midi": 51,
                    "time": 874.8174156666319,
                    "velocity": 0.4881889763779528,
                    "duration": 0.18221566666670697
                },
                {
                    "name": "D3",
                    "midi": 50,
                    "time": 874.9996313332986,
                    "velocity": 0.5275590551181102,
                    "duration": 0.18221566666670697
                },
                {
                    "name": "D#3",
                    "midi": 51,
                    "time": 875.1818469999653,
                    "velocity": 0.48031496062992124,
                    "duration": 0.18221566666670697
                },
                {
                    "name": "D3",
                    "midi": 50,
                    "time": 875.364062666632,
                    "velocity": 0.5275590551181102,
                    "duration": 0.18221566666670697
                },
                {
                    "name": "D#3",
                    "midi": 51,
                    "time": 875.5462783332987,
                    "velocity": 0.4881889763779528,
                    "duration": 0.18221566666670697
                },
                {
                    "name": "D#2",
                    "midi": 39,
                    "time": 875.7284939999654,
                    "velocity": 0.7401574803149606,
                    "duration": 0.5466470000000072
                },
                {
                    "name": "G3",
                    "midi": 55,
                    "time": 876.8217879999654,
                    "velocity": 0.5905511811023622,
                    "duration": 0.18221566666670697
                },
                {
                    "name": "G#3",
                    "midi": 56,
                    "time": 877.0040036666321,
                    "velocity": 0.5275590551181102,
                    "duration": 0.18221566666670697
                },
                {
                    "name": "G3",
                    "midi": 55,
                    "time": 877.1862193332988,
                    "velocity": 0.5669291338582677,
                    "duration": 0.18221566666670697
                },
                {
                    "name": "G#3",
                    "midi": 56,
                    "time": 877.3684349999655,
                    "velocity": 0.4881889763779528,
                    "duration": 0.18221566666670697
                },
                {
                    "name": "G3",
                    "midi": 55,
                    "time": 877.5506506666322,
                    "velocity": 0.5275590551181102,
                    "duration": 0.18221566666670697
                },
                {
                    "name": "G#3",
                    "midi": 56,
                    "time": 877.732866333299,
                    "velocity": 0.48031496062992124,
                    "duration": 0.18221566666670697
                },
                {
                    "name": "G3",
                    "midi": 55,
                    "time": 877.9150819999657,
                    "velocity": 0.5275590551181102,
                    "duration": 0.18221566666670697
                },
                {
                    "name": "G#3",
                    "midi": 56,
                    "time": 878.0972976666324,
                    "velocity": 0.4881889763779528,
                    "duration": 0.18221566666670697
                },
                {
                    "name": "G3",
                    "midi": 55,
                    "time": 878.2795133332991,
                    "velocity": 0.5275590551181102,
                    "duration": 0.18221566666670697
                },
                {
                    "name": "G#3",
                    "midi": 56,
                    "time": 878.4617289999658,
                    "velocity": 0.48031496062992124,
                    "duration": 0.18221566666670697
                },
                {
                    "name": "G3",
                    "midi": 55,
                    "time": 878.6439446666325,
                    "velocity": 0.5275590551181102,
                    "duration": 0.18221566666670697
                },
                {
                    "name": "G#3",
                    "midi": 56,
                    "time": 878.8261603332992,
                    "velocity": 0.4881889763779528,
                    "duration": 0.18221566666670697
                },
                {
                    "name": "C2",
                    "midi": 36,
                    "time": 879.0083759999659,
                    "velocity": 0.7716535433070866,
                    "duration": 0.5466470000000072
                },
                {
                    "name": "E3",
                    "midi": 52,
                    "time": 880.1016699999659,
                    "velocity": 0.5905511811023622,
                    "duration": 0.18221566666670697
                },
                {
                    "name": "F3",
                    "midi": 53,
                    "time": 880.2838856666326,
                    "velocity": 0.5275590551181102,
                    "duration": 0.18221566666670697
                },
                {
                    "name": "E3",
                    "midi": 52,
                    "time": 880.4661013332993,
                    "velocity": 0.5669291338582677,
                    "duration": 0.18221566666670697
                },
                {
                    "name": "F3",
                    "midi": 53,
                    "time": 880.648316999966,
                    "velocity": 0.4881889763779528,
                    "duration": 0.18221566666670697
                },
                {
                    "name": "E3",
                    "midi": 52,
                    "time": 880.8305326666327,
                    "velocity": 0.5275590551181102,
                    "duration": 0.18221566666670697
                },
                {
                    "name": "F3",
                    "midi": 53,
                    "time": 881.0127483332994,
                    "velocity": 0.48031496062992124,
                    "duration": 0.18221566666670697
                },
                {
                    "name": "E3",
                    "midi": 52,
                    "time": 881.1949639999661,
                    "velocity": 0.5275590551181102,
                    "duration": 0.18221566666670697
                },
                {
                    "name": "F3",
                    "midi": 53,
                    "time": 881.3771796666329,
                    "velocity": 0.4881889763779528,
                    "duration": 0.18221566666670697
                },
                {
                    "name": "E3",
                    "midi": 52,
                    "time": 881.5593953332996,
                    "velocity": 0.5275590551181102,
                    "duration": 0.18221566666670697
                },
                {
                    "name": "F3",
                    "midi": 53,
                    "time": 881.7416109999663,
                    "velocity": 0.48031496062992124,
                    "duration": 0.18221566666670697
                },
                {
                    "name": "E3",
                    "midi": 52,
                    "time": 881.923826666633,
                    "velocity": 0.5275590551181102,
                    "duration": 0.18221566666670697
                },
                {
                    "name": "F3",
                    "midi": 53,
                    "time": 882.1060423332997,
                    "velocity": 0.4881889763779528,
                    "duration": 0.18221566666670697
                },
                {
                    "name": "F2",
                    "midi": 41,
                    "time": 882.2882579999664,
                    "velocity": 0.7480314960629921,
                    "duration": 0.5466470000000072
                },
                {
                    "name": "G#3",
                    "midi": 56,
                    "time": 883.3815519999664,
                    "velocity": 0.5905511811023622,
                    "duration": 0.18221566666670697
                },
                {
                    "name": "A#3",
                    "midi": 58,
                    "time": 883.5637676666331,
                    "velocity": 0.5275590551181102,
                    "duration": 0.18221566666670697
                },
                {
                    "name": "G#3",
                    "midi": 56,
                    "time": 883.7459833332998,
                    "velocity": 0.5669291338582677,
                    "duration": 0.18221566666670697
                },
                {
                    "name": "A#3",
                    "midi": 58,
                    "time": 883.9281989999665,
                    "velocity": 0.4881889763779528,
                    "duration": 0.18221566666670697
                },
                {
                    "name": "G#3",
                    "midi": 56,
                    "time": 884.1104146666332,
                    "velocity": 0.5275590551181102,
                    "duration": 0.18221566666670697
                },
                {
                    "name": "A#3",
                    "midi": 58,
                    "time": 884.2926303332999,
                    "velocity": 0.48031496062992124,
                    "duration": 0.18221566666670697
                },
                {
                    "name": "G#3",
                    "midi": 56,
                    "time": 884.4748459999666,
                    "velocity": 0.5275590551181102,
                    "duration": 0.18221566666670697
                },
                {
                    "name": "A#3",
                    "midi": 58,
                    "time": 884.6570616666334,
                    "velocity": 0.4881889763779528,
                    "duration": 0.18221566666670697
                },
                {
                    "name": "G#3",
                    "midi": 56,
                    "time": 884.8392773333001,
                    "velocity": 0.5275590551181102,
                    "duration": 0.18221566666670697
                },
                {
                    "name": "A#3",
                    "midi": 58,
                    "time": 885.0214929999668,
                    "velocity": 0.48031496062992124,
                    "duration": 0.18221566666670697
                },
                {
                    "name": "G#3",
                    "midi": 56,
                    "time": 885.2037086666335,
                    "velocity": 0.5275590551181102,
                    "duration": 0.18221566666670697
                },
                {
                    "name": "A#3",
                    "midi": 58,
                    "time": 885.3859243333002,
                    "velocity": 0.4881889763779528,
                    "duration": 0.18221566666670697
                },
                {
                    "name": "G3",
                    "midi": 55,
                    "time": 885.5681399999669,
                    "velocity": 0.5748031496062992,
                    "duration": 0.5466470000000072
                },
                {
                    "name": "B3",
                    "midi": 59,
                    "time": 886.1147869999669,
                    "velocity": 0.5118110236220472,
                    "duration": 0.27332349999994676
                },
                {
                    "name": "G2",
                    "midi": 43,
                    "time": 886.6614339999668,
                    "velocity": 0.4881889763779528,
                    "duration": 0.13666175000003022
                },
                {
                    "name": "G#2",
                    "midi": 44,
                    "time": 886.7980957499668,
                    "velocity": 0.4251968503937008,
                    "duration": 0.13666175000003022
                },
                {
                    "name": "G2",
                    "midi": 43,
                    "time": 886.9347574999668,
                    "velocity": 0.48031496062992124,
                    "duration": 0.13666175000003022
                },
                {
                    "name": "G#2",
                    "midi": 44,
                    "time": 887.0714192499669,
                    "velocity": 0.4251968503937008,
                    "duration": 0.13666175000003022
                },
                {
                    "name": "D#4",
                    "midi": 63,
                    "time": 888.3013749999669,
                    "velocity": 0.5039370078740157,
                    "duration": 0.27332349999994676
                },
                {
                    "name": "C3",
                    "midi": 48,
                    "time": 888.8480219999668,
                    "velocity": 0.4881889763779528,
                    "duration": 0.13666175000003022
                },
                {
                    "name": "D3",
                    "midi": 50,
                    "time": 888.9846837499668,
                    "velocity": 0.4251968503937008,
                    "duration": 0.13666175000003022
                },
                {
                    "name": "C3",
                    "midi": 48,
                    "time": 889.1213454999669,
                    "velocity": 0.48031496062992124,
                    "duration": 0.13666175000003022
                },
                {
                    "name": "D3",
                    "midi": 50,
                    "time": 889.2580072499669,
                    "velocity": 0.4251968503937008,
                    "duration": 0.13666175000003022
                },
                {
                    "name": "A3",
                    "midi": 57,
                    "time": 890.487962999967,
                    "velocity": 0.5196850393700787,
                    "duration": 0.27332349999994676
                },
                {
                    "name": "F#2",
                    "midi": 42,
                    "time": 891.0346099999668,
                    "velocity": 0.5118110236220472,
                    "duration": 0.13666175000003022
                },
                {
                    "name": "G2",
                    "midi": 43,
                    "time": 891.1712717499669,
                    "velocity": 0.44881889763779526,
                    "duration": 0.13666175000003022
                },
                {
                    "name": "F#2",
                    "midi": 42,
                    "time": 891.3079334999669,
                    "velocity": 0.5118110236220472,
                    "duration": 0.13666175000003022
                },
                {
                    "name": "G2",
                    "midi": 43,
                    "time": 891.4445952499669,
                    "velocity": 0.44881889763779526,
                    "duration": 0.13666175000003022
                },
                {
                    "name": "A#3",
                    "midi": 58,
                    "time": 892.674550999967,
                    "velocity": 0.5354330708661418,
                    "duration": 0.27332349999994676
                },
                {
                    "name": "G2",
                    "midi": 43,
                    "time": 893.2211979999669,
                    "velocity": 0.5433070866141733,
                    "duration": 0.13666175000003022
                },
                {
                    "name": "G#2",
                    "midi": 44,
                    "time": 893.3578597499669,
                    "velocity": 0.48031496062992124,
                    "duration": 0.13666175000003022
                },
                {
                    "name": "G2",
                    "midi": 43,
                    "time": 893.4945214999669,
                    "velocity": 0.5354330708661418,
                    "duration": 0.13666175000003022
                },
                {
                    "name": "G#2",
                    "midi": 44,
                    "time": 893.631183249967,
                    "velocity": 0.48031496062992124,
                    "duration": 0.13666175000003022
                },
                {
                    "name": "E4",
                    "midi": 64,
                    "time": 894.861138999967,
                    "velocity": 0.5905511811023622,
                    "duration": 0.27332349999994676
                },
                {
                    "name": "C#3",
                    "midi": 49,
                    "time": 895.4077859999669,
                    "velocity": 0.5905511811023622,
                    "duration": 0.13666175000003022
                },
                {
                    "name": "D3",
                    "midi": 50,
                    "time": 895.5444477499669,
                    "velocity": 0.5118110236220472,
                    "duration": 0.13666175000003022
                },
                {
                    "name": "C#3",
                    "midi": 49,
                    "time": 895.681109499967,
                    "velocity": 0.5826771653543307,
                    "duration": 0.13666175000003022
                },
                {
                    "name": "D3",
                    "midi": 50,
                    "time": 895.817771249967,
                    "velocity": 0.5196850393700787,
                    "duration": 0.13666175000003022
                },
                {
                    "name": "A3",
                    "midi": 57,
                    "time": 897.047726999967,
                    "velocity": 0.6456692913385826,
                    "duration": 0.27332349999994676
                },
                {
                    "name": "F3",
                    "midi": 53,
                    "time": 897.5943739999669,
                    "velocity": 0.5275590551181102,
                    "duration": 0.27332349999994676
                },
                {
                    "name": "D3",
                    "midi": 50,
                    "time": 898.1410209999668,
                    "velocity": 0.5433070866141733,
                    "duration": 0.27332349999994676
                },
                {
                    "name": "A2",
                    "midi": 45,
                    "time": 898.6876679999667,
                    "velocity": 0.5511811023622047,
                    "duration": 0.27332349999994676
                },
                {
                    "name": "F2",
                    "midi": 41,
                    "time": 899.2343149999666,
                    "velocity": 0.5669291338582677,
                    "duration": 0.27332349999994676
                },
                {
                    "name": "D2",
                    "midi": 38,
                    "time": 899.7809619999665,
                    "velocity": 0.5748031496062992,
                    "duration": 0.27332349999994676
                },
                {
                    "name": "A1",
                    "midi": 33,
                    "time": 900.3276089999664,
                    "velocity": 0.44881889763779526,
                    "duration": 0.27332349999994676
                },
                {
                    "name": "A2",
                    "midi": 45,
                    "time": 900.3276089999664,
                    "velocity": 0.5354330708661418,
                    "duration": 0.27332349999994676
                },
                {
                    "name": "A#2",
                    "midi": 46,
                    "time": 900.8742559999663,
                    "velocity": 0.5511811023622047,
                    "duration": 0.27332349999994676
                },
                {
                    "name": "A#1",
                    "midi": 34,
                    "time": 900.8742559999663,
                    "velocity": 0.4566929133858268,
                    "duration": 0.27332349999994676
                },
                {
                    "name": "A#1",
                    "midi": 34,
                    "time": 901.4209029999662,
                    "velocity": 0.4645669291338583,
                    "duration": 0.27332349999994676
                },
                {
                    "name": "A#2",
                    "midi": 46,
                    "time": 901.4209029999662,
                    "velocity": 0.5590551181102362,
                    "duration": 0.27332349999994676
                },
                {
                    "name": "A1",
                    "midi": 33,
                    "time": 901.9675499999661,
                    "velocity": 0.47244094488188976,
                    "duration": 0.27332349999994676
                },
                {
                    "name": "C#2",
                    "midi": 37,
                    "time": 901.9675499999661,
                    "velocity": 0.47244094488188976,
                    "duration": 0.27332349999994676
                },
                {
                    "name": "A2",
                    "midi": 45,
                    "time": 901.9675499999661,
                    "velocity": 0.5669291338582677,
                    "duration": 0.27332349999994676
                },
                {
                    "name": "E2",
                    "midi": 40,
                    "time": 901.9675499999661,
                    "velocity": 0.47244094488188976,
                    "duration": 0.27332349999994676
                },
                {
                    "name": "A1",
                    "midi": 33,
                    "time": 903.060843999966,
                    "velocity": 0.5118110236220472,
                    "duration": 0.27332349999994676
                },
                {
                    "name": "A2",
                    "midi": 45,
                    "time": 903.060843999966,
                    "velocity": 0.5984251968503937,
                    "duration": 0.27332349999994676
                },
                {
                    "name": "C#2",
                    "midi": 37,
                    "time": 903.060843999966,
                    "velocity": 0.5118110236220472,
                    "duration": 0.27332349999994676
                },
                {
                    "name": "E2",
                    "midi": 40,
                    "time": 903.060843999966,
                    "velocity": 0.5118110236220472,
                    "duration": 0.27332349999994676
                },
                {
                    "name": "A3",
                    "midi": 57,
                    "time": 922.7401359999659,
                    "velocity": 0.3464566929133858,
                    "duration": 1.1479587000000038
                },
                {
                    "name": "G3",
                    "midi": 55,
                    "time": 923.8334299999659,
                    "velocity": 0.33070866141732286,
                    "duration": 1.1479587000000038
                },
                {
                    "name": "F#3",
                    "midi": 54,
                    "time": 924.9267239999659,
                    "velocity": 0.33070866141732286,
                    "duration": 1.1479587000000038
                },
                {
                    "name": "G3",
                    "midi": 55,
                    "time": 926.020017999966,
                    "velocity": 0.3464566929133858,
                    "duration": 1.1479587000000038
                },
                {
                    "name": "A3",
                    "midi": 57,
                    "time": 927.113311999966,
                    "velocity": 0.3464566929133858,
                    "duration": 2.186588000000029
                },
                {
                    "name": "G3",
                    "midi": 55,
                    "time": 929.299899999966,
                    "velocity": 0.3464566929133858,
                    "duration": 1.1479587000000038
                },
                {
                    "name": "F#3",
                    "midi": 54,
                    "time": 930.393193999966,
                    "velocity": 0.31496062992125984,
                    "duration": 1.0932940000000144
                },
                {
                    "name": "B3",
                    "midi": 59,
                    "time": 931.486487999966,
                    "velocity": 0.3700787401574803,
                    "duration": 1.0932940000000144
                },
                {
                    "name": "C#3",
                    "midi": 49,
                    "time": 932.579781999966,
                    "velocity": 0.31496062992125984,
                    "duration": 1.0932940000000144
                },
                {
                    "name": "D3",
                    "midi": 50,
                    "time": 933.673075999966,
                    "velocity": 0.31496062992125984,
                    "duration": 1.0932940000000144
                },
                {
                    "name": "G2",
                    "midi": 43,
                    "time": 934.7663699999661,
                    "velocity": 0.33858267716535434,
                    "duration": 1.0932940000000144
                },
                {
                    "name": "G#2",
                    "midi": 44,
                    "time": 935.8596639999661,
                    "velocity": 0.3228346456692913,
                    "duration": 1.0932940000000144
                },
                {
                    "name": "A2",
                    "midi": 45,
                    "time": 936.9529579999661,
                    "velocity": 0.3228346456692913,
                    "duration": 1.0932940000000144
                },
                {
                    "name": "B2",
                    "midi": 47,
                    "time": 938.0462519999661,
                    "velocity": 0.29133858267716534,
                    "duration": 1.0932940000000144
                },
                {
                    "name": "F#2",
                    "midi": 42,
                    "time": 939.1395459999661,
                    "velocity": 0.3700787401574803,
                    "duration": 1.1479587000000038
                },
                {
                    "name": "G#2",
                    "midi": 44,
                    "time": 940.2328399999661,
                    "velocity": 0.3700787401574803,
                    "duration": 1.1479587000000038
                },
                {
                    "name": "A2",
                    "midi": 45,
                    "time": 941.3261339999661,
                    "velocity": 0.3700787401574803,
                    "duration": 1.1479587000000038
                },
                {
                    "name": "B2",
                    "midi": 47,
                    "time": 942.4194279999662,
                    "velocity": 0.36220472440944884,
                    "duration": 1.1479587000000038
                },
                {
                    "name": "C#3",
                    "midi": 49,
                    "time": 943.5127219999662,
                    "velocity": 0.3700787401574803,
                    "duration": 1.0932940000000144
                },
                {
                    "name": "D3",
                    "midi": 50,
                    "time": 944.6060159999662,
                    "velocity": 0.3700787401574803,
                    "duration": 1.1479587000000038
                },
                {
                    "name": "D4",
                    "midi": 62,
                    "time": 945.6993099999662,
                    "velocity": 0.3464566929133858,
                    "duration": 1.1479587000000038
                },
                {
                    "name": "C4",
                    "midi": 60,
                    "time": 946.7926039999662,
                    "velocity": 0.3464566929133858,
                    "duration": 1.1479587000000038
                },
                {
                    "name": "B3",
                    "midi": 59,
                    "time": 947.8858979999662,
                    "velocity": 0.3700787401574803,
                    "duration": 1.1479587000000038
                },
                {
                    "name": "C#4",
                    "midi": 61,
                    "time": 948.9791919999662,
                    "velocity": 0.30708661417322836,
                    "duration": 1.1479587000000038
                },
                {
                    "name": "D4",
                    "midi": 62,
                    "time": 950.0724859999663,
                    "velocity": 0.31496062992125984,
                    "duration": 1.0932940000000144
                },
                {
                    "name": "G3",
                    "midi": 55,
                    "time": 951.1657799999663,
                    "velocity": 0.33070866141732286,
                    "duration": 1.1479587000000038
                },
                {
                    "name": "A3",
                    "midi": 57,
                    "time": 952.2590739999663,
                    "velocity": 0.3464566929133858,
                    "duration": 1.1479587000000038
                },
                {
                    "name": "B3",
                    "midi": 59,
                    "time": 953.3523679999663,
                    "velocity": 0.3700787401574803,
                    "duration": 1.0932940000000144
                },
                {
                    "name": "E3",
                    "midi": 52,
                    "time": 954.4456619999663,
                    "velocity": 0.3700787401574803,
                    "duration": 1.1479587000000038
                },
                {
                    "name": "F#3",
                    "midi": 54,
                    "time": 955.5389559999663,
                    "velocity": 0.3228346456692913,
                    "duration": 1.1479587000000038
                },
                {
                    "name": "G3",
                    "midi": 55,
                    "time": 956.6322499999663,
                    "velocity": 0.3228346456692913,
                    "duration": 1.1479587000000038
                },
                {
                    "name": "G#3",
                    "midi": 56,
                    "time": 957.7255439999664,
                    "velocity": 0.3700787401574803,
                    "duration": 1.1479587000000038
                },
                {
                    "name": "A3",
                    "midi": 57,
                    "time": 958.8188379999664,
                    "velocity": 0.3543307086614173,
                    "duration": 1.1479587000000038
                },
                {
                    "name": "G3",
                    "midi": 55,
                    "time": 959.9121319999664,
                    "velocity": 0.3543307086614173,
                    "duration": 1.0932940000000144
                },
                {
                    "name": "F#3",
                    "midi": 54,
                    "time": 961.0054259999664,
                    "velocity": 0.3464566929133858,
                    "duration": 1.0932940000000144
                },
                {
                    "name": "B3",
                    "midi": 59,
                    "time": 962.0987199999664,
                    "velocity": 0.3543307086614173,
                    "duration": 1.0932940000000144
                },
                {
                    "name": "A3",
                    "midi": 57,
                    "time": 963.1920139999664,
                    "velocity": 0.3543307086614173,
                    "duration": 1.0932940000000144
                },
                {
                    "name": "G3",
                    "midi": 55,
                    "time": 964.2853079999664,
                    "velocity": 0.3464566929133858,
                    "duration": 2.186588000000029
                },
                {
                    "name": "C#4",
                    "midi": 61,
                    "time": 965.3786019999665,
                    "velocity": 0.4015748031496063,
                    "duration": 1.1479587000000038
                },
                {
                    "name": "B3",
                    "midi": 59,
                    "time": 966.4718959999665,
                    "velocity": 0.3700787401574803,
                    "duration": 1.1479587000000038
                },
                {
                    "name": "F3",
                    "midi": 53,
                    "time": 966.4718959999665,
                    "velocity": 0.30708661417322836,
                    "duration": 1.1479587000000038
                },
                {
                    "name": "F#3",
                    "midi": 54,
                    "time": 967.5651899999665,
                    "velocity": 0.3464566929133858,
                    "duration": 2.186588000000029
                },
                {
                    "name": "A#3",
                    "midi": 58,
                    "time": 967.5651899999665,
                    "velocity": 0.4015748031496063,
                    "duration": 1.0932940000000144
                },
                {
                    "name": "D4",
                    "midi": 62,
                    "time": 968.6584839999665,
                    "velocity": 0.4251968503937008,
                    "duration": 1.1479587000000038
                },
                {
                    "name": "C#4",
                    "midi": 61,
                    "time": 969.7517779999665,
                    "velocity": 0.4251968503937008,
                    "duration": 1.1479587000000038
                },
                {
                    "name": "G#3",
                    "midi": 56,
                    "time": 969.7517779999665,
                    "velocity": 0.4251968503937008,
                    "duration": 0.6013116999999966
                },
                {
                    "name": "A#3",
                    "midi": 58,
                    "time": 970.2984249999665,
                    "velocity": 0.3779527559055118,
                    "duration": 0.6013116999999966
                },
                {
                    "name": "B3",
                    "midi": 59,
                    "time": 970.8450719999665,
                    "velocity": 0.3464566929133858,
                    "duration": 1.0932940000000144
                },
                {
                    "name": "D4",
                    "midi": 62,
                    "time": 970.8450719999665,
                    "velocity": 0.4251968503937008,
                    "duration": 1.0932940000000144
                },
                {
                    "name": "A3",
                    "midi": 57,
                    "time": 971.9383659999665,
                    "velocity": 0.36220472440944884,
                    "duration": 1.1479587000000038
                },
                {
                    "name": "C#4",
                    "midi": 61,
                    "time": 971.9383659999665,
                    "velocity": 0.4330708661417323,
                    "duration": 1.0932940000000144
                },
                {
                    "name": "C#4",
                    "midi": 61,
                    "time": 973.0316599999666,
                    "velocity": 0.3543307086614173,
                    "duration": 1.1479587000000038
                },
                {
                    "name": "E4",
                    "midi": 64,
                    "time": 973.0316599999666,
                    "velocity": 0.4251968503937008,
                    "duration": 1.1479587000000038
                },
                {
                    "name": "D4",
                    "midi": 62,
                    "time": 974.1249539999666,
                    "velocity": 0.3700787401574803,
                    "duration": 1.0932940000000144
                },
                {
                    "name": "F#4",
                    "midi": 66,
                    "time": 974.1249539999666,
                    "velocity": 0.4409448818897638,
                    "duration": 1.0932940000000144
                },
                {
                    "name": "F#3",
                    "midi": 54,
                    "time": 975.2182479999666,
                    "velocity": 0.4094488188976378,
                    "duration": 1.0932940000000144
                },
                {
                    "name": "D#3",
                    "midi": 51,
                    "time": 976.3115419999666,
                    "velocity": 0.4015748031496063,
                    "duration": 1.0932940000000144
                },
                {
                    "name": "E3",
                    "midi": 52,
                    "time": 977.4048359999666,
                    "velocity": 0.4251968503937008,
                    "duration": 1.0932940000000144
                },
                {
                    "name": "E4",
                    "midi": 64,
                    "time": 978.4981299999666,
                    "velocity": 0.41732283464566927,
                    "duration": 1.1479587000000038
                },
                {
                    "name": "D4",
                    "midi": 62,
                    "time": 979.5914239999667,
                    "velocity": 0.4094488188976378,
                    "duration": 1.1479587000000038
                },
                {
                    "name": "C#4",
                    "midi": 61,
                    "time": 980.6847179999667,
                    "velocity": 0.4645669291338583,
                    "duration": 1.0932940000000144
                },
                {
                    "name": "A2",
                    "midi": 45,
                    "time": 981.7780119999667,
                    "velocity": 0.3937007874015748,
                    "duration": 1.1479587000000038
                },
                {
                    "name": "G2",
                    "midi": 43,
                    "time": 982.8713059999667,
                    "velocity": 0.3700787401574803,
                    "duration": 1.1479587000000038
                },
                {
                    "name": "F#2",
                    "midi": 42,
                    "time": 983.9645999999667,
                    "velocity": 0.3779527559055118,
                    "duration": 1.0932940000000144
                },
                {
                    "name": "G#2",
                    "midi": 44,
                    "time": 985.0578939999667,
                    "velocity": 0.3700787401574803,
                    "duration": 1.1479587000000038
                },
                {
                    "name": "A2",
                    "midi": 45,
                    "time": 986.1511879999667,
                    "velocity": 0.3700787401574803,
                    "duration": 2.186588000000029
                },
                {
                    "name": "G#2",
                    "midi": 44,
                    "time": 988.3377759999668,
                    "velocity": 0.33858267716535434,
                    "duration": 1.0932940000000144
                },
                {
                    "name": "E2",
                    "midi": 40,
                    "time": 989.4310699999668,
                    "velocity": 0.33858267716535434,
                    "duration": 1.0932940000000144
                },
                {
                    "name": "A2",
                    "midi": 45,
                    "time": 990.5243639999668,
                    "velocity": 0.3700787401574803,
                    "duration": 1.0932940000000144
                },
                {
                    "name": "A3",
                    "midi": 57,
                    "time": 991.6176579999668,
                    "velocity": 0.33858267716535434,
                    "duration": 1.0932940000000144
                },
                {
                    "name": "F#3",
                    "midi": 54,
                    "time": 992.7109519999668,
                    "velocity": 0.33858267716535434,
                    "duration": 1.0932940000000144
                },
                {
                    "name": "G3",
                    "midi": 55,
                    "time": 993.8042459999668,
                    "velocity": 0.3700787401574803,
                    "duration": 2.186588000000029
                },
                {
                    "name": "E3",
                    "midi": 52,
                    "time": 995.9908339999669,
                    "velocity": 0.3700787401574803,
                    "duration": 1.0932940000000144
                },
                {
                    "name": "D#3",
                    "midi": 51,
                    "time": 997.0841279999669,
                    "velocity": 0.33070866141732286,
                    "duration": 1.0932940000000144
                },
                {
                    "name": "D3",
                    "midi": 50,
                    "time": 998.1774219999669,
                    "velocity": 0.36220472440944884,
                    "duration": 1.0932940000000144
                },
                {
                    "name": "C3",
                    "midi": 48,
                    "time": 999.2707159999669,
                    "velocity": 0.36220472440944884,
                    "duration": 1.0932940000000144
                },
                {
                    "name": "A3",
                    "midi": 57,
                    "time": 1000.3640099999669,
                    "velocity": 0.3464566929133858,
                    "duration": 1.0932940000000144
                },
                {
                    "name": "F3",
                    "midi": 53,
                    "time": 1000.3640099999669,
                    "velocity": 0.23622047244094488,
                    "duration": 1.0932940000000144
                },
                {
                    "name": "A#3",
                    "midi": 58,
                    "time": 1001.4573039999669,
                    "velocity": 0.36220472440944884,
                    "duration": 1.0932940000000144
                },
                {
                    "name": "A#2",
                    "midi": 46,
                    "time": 1001.4573039999669,
                    "velocity": 0.30708661417322836,
                    "duration": 1.0932940000000144
                },
                {
                    "name": "A#2",
                    "midi": 46,
                    "time": 1002.550597999967,
                    "velocity": 0.30708661417322836,
                    "duration": 1.0932940000000144
                },
                {
                    "name": "E3",
                    "midi": 52,
                    "time": 1002.550597999967,
                    "velocity": 0.36220472440944884,
                    "duration": 1.0932940000000144
                },
                {
                    "name": "F3",
                    "midi": 53,
                    "time": 1003.643891999967,
                    "velocity": 0.36220472440944884,
                    "duration": 1.0932940000000144
                },
                {
                    "name": "A2",
                    "midi": 45,
                    "time": 1003.643891999967,
                    "velocity": 0.36220472440944884,
                    "duration": 1.0932940000000144
                },
                {
                    "name": "C3",
                    "midi": 48,
                    "time": 1004.737185999967,
                    "velocity": 0.36220472440944884,
                    "duration": 1.0932940000000144
                },
                {
                    "name": "F2",
                    "midi": 41,
                    "time": 1005.830479999967,
                    "velocity": 0.36220472440944884,
                    "duration": 1.0932940000000144
                },
                {
                    "name": "A#2",
                    "midi": 46,
                    "time": 1006.923773999967,
                    "velocity": 0.36220472440944884,
                    "duration": 1.0932940000000144
                },
                {
                    "name": "G2",
                    "midi": 43,
                    "time": 1013.483537999967,
                    "velocity": 0.36220472440944884,
                    "duration": 1.0932940000000144
                },
                {
                    "name": "B3",
                    "midi": 59,
                    "time": 1014.576831999967,
                    "velocity": 0.3937007874015748,
                    "duration": 0.18221566666670697
                },
                {
                    "name": "C4",
                    "midi": 60,
                    "time": 1014.7590476666337,
                    "velocity": 0.3464566929133858,
                    "duration": 0.18221566666670697
                },
                {
                    "name": "B3",
                    "midi": 59,
                    "time": 1014.9412633333004,
                    "velocity": 0.3937007874015748,
                    "duration": 0.18221566666670697
                },
                {
                    "name": "C4",
                    "midi": 60,
                    "time": 1015.1234789999671,
                    "velocity": 0.3464566929133858,
                    "duration": 0.18221566666670697
                },
                {
                    "name": "B3",
                    "midi": 59,
                    "time": 1015.3056946666338,
                    "velocity": 0.4015748031496063,
                    "duration": 0.18221566666670697
                },
                {
                    "name": "C4",
                    "midi": 60,
                    "time": 1015.4879103333005,
                    "velocity": 0.3464566929133858,
                    "duration": 0.18221566666670697
                },
                {
                    "name": "B3",
                    "midi": 59,
                    "time": 1015.6701259999672,
                    "velocity": 0.4015748031496063,
                    "duration": 0.18221566666670697
                },
                {
                    "name": "C4",
                    "midi": 60,
                    "time": 1015.852341666634,
                    "velocity": 0.36220472440944884,
                    "duration": 0.18221566666670697
                },
                {
                    "name": "B3",
                    "midi": 59,
                    "time": 1016.0345573333007,
                    "velocity": 0.4094488188976378,
                    "duration": 0.18221566666670697
                },
                {
                    "name": "C4",
                    "midi": 60,
                    "time": 1016.2167729999674,
                    "velocity": 0.4015748031496063,
                    "duration": 0.13666175000003022
                },
                {
                    "name": "B3",
                    "midi": 59,
                    "time": 1016.3534347499674,
                    "velocity": 0.3779527559055118,
                    "duration": 0.13666175000003022
                },
                {
                    "name": "A3",
                    "midi": 57,
                    "time": 1016.4900964999674,
                    "velocity": 0.3779527559055118,
                    "duration": 0.13666175000003022
                },
                {
                    "name": "B3",
                    "midi": 59,
                    "time": 1016.6267582499675,
                    "velocity": 0.3779527559055118,
                    "duration": 0.13666175000003022
                },
                {
                    "name": "C4",
                    "midi": 60,
                    "time": 1016.7634199999675,
                    "velocity": 0.3779527559055118,
                    "duration": 1.0932940000000144
                },
                {
                    "name": "C4",
                    "midi": 60,
                    "time": 1018.4033609999675,
                    "velocity": 0.3700787401574803,
                    "duration": 0.3279881999999361
                },
                {
                    "name": "A#3",
                    "midi": 58,
                    "time": 1018.6766844999675,
                    "velocity": 0.33858267716535434,
                    "duration": 0.3279881999999361
                },
                {
                    "name": "A3",
                    "midi": 57,
                    "time": 1018.9500079999674,
                    "velocity": 0.3700787401574803,
                    "duration": 0.3279881999999361
                },
                {
                    "name": "G3",
                    "midi": 55,
                    "time": 1019.2233314999673,
                    "velocity": 0.36220472440944884,
                    "duration": 0.3279881999999361
                },
                {
                    "name": "F3",
                    "midi": 53,
                    "time": 1019.4966549999673,
                    "velocity": 0.3464566929133858,
                    "duration": 0.3279881999999361
                },
                {
                    "name": "E3",
                    "midi": 52,
                    "time": 1019.7699784999672,
                    "velocity": 0.33070866141732286,
                    "duration": 0.27332349999994676
                },
                {
                    "name": "A3",
                    "midi": 57,
                    "time": 1020.0433019999672,
                    "velocity": 0.41732283464566927,
                    "duration": 1.0932940000000144
                },
                {
                    "name": "A3",
                    "midi": 57,
                    "time": 1021.6832429999672,
                    "velocity": 0.4094488188976378,
                    "duration": 0.3279881999999361
                },
                {
                    "name": "G3",
                    "midi": 55,
                    "time": 1021.9565664999672,
                    "velocity": 0.3700787401574803,
                    "duration": 0.3279881999999361
                },
                {
                    "name": "F3",
                    "midi": 53,
                    "time": 1022.2298899999671,
                    "velocity": 0.4015748031496063,
                    "duration": 0.3279881999999361
                },
                {
                    "name": "E3",
                    "midi": 52,
                    "time": 1022.503213499967,
                    "velocity": 0.3937007874015748,
                    "duration": 0.3279881999999361
                },
                {
                    "name": "D3",
                    "midi": 50,
                    "time": 1022.776536999967,
                    "velocity": 0.3779527559055118,
                    "duration": 0.3279881999999361
                },
                {
                    "name": "C3",
                    "midi": 48,
                    "time": 1023.0498604999669,
                    "velocity": 0.36220472440944884,
                    "duration": 0.27332349999994676
                },
                {
                    "name": "F3",
                    "midi": 53,
                    "time": 1023.3231839999669,
                    "velocity": 0.44881889763779526,
                    "duration": 1.0932940000000144
                },
                {
                    "name": "F3",
                    "midi": 53,
                    "time": 1024.9631249999668,
                    "velocity": 0.4409448818897638,
                    "duration": 0.3279882000001635
                },
                {
                    "name": "E3",
                    "midi": 52,
                    "time": 1025.2364484999669,
                    "velocity": 0.4015748031496063,
                    "duration": 0.3279882000001635
                },
                {
                    "name": "D3",
                    "midi": 50,
                    "time": 1025.509771999967,
                    "velocity": 0.4330708661417323,
                    "duration": 0.3279882000001635
                },
                {
                    "name": "C3",
                    "midi": 48,
                    "time": 1025.783095499967,
                    "velocity": 0.4251968503937008,
                    "duration": 0.3279882000001635
                },
                {
                    "name": "A#2",
                    "midi": 46,
                    "time": 1026.056418999967,
                    "velocity": 0.4094488188976378,
                    "duration": 0.3279882000001635
                },
                {
                    "name": "A2",
                    "midi": 45,
                    "time": 1026.329742499967,
                    "velocity": 0.3858267716535433,
                    "duration": 0.27332350000006045
                },
                {
                    "name": "C3",
                    "midi": 48,
                    "time": 1026.6030659999672,
                    "velocity": 0.44881889763779526,
                    "duration": 0.3279882000001635
                },
                {
                    "name": "A#2",
                    "midi": 46,
                    "time": 1026.8763894999672,
                    "velocity": 0.44881889763779526,
                    "duration": 0.3279882000001635
                },
                {
                    "name": "A2",
                    "midi": 45,
                    "time": 1027.1497129999673,
                    "velocity": 0.44881889763779526,
                    "duration": 0.3279882000001635
                },
                {
                    "name": "G2",
                    "midi": 43,
                    "time": 1027.4230364999673,
                    "velocity": 0.4566929133858268,
                    "duration": 0.27332350000006045
                },
                {
                    "name": "F2",
                    "midi": 41,
                    "time": 1027.6963599999674,
                    "velocity": 0.6377952755905512,
                    "duration": 1.0932940000000144
                },
                {
                    "name": "F1",
                    "midi": 29,
                    "time": 1027.6963599999674,
                    "velocity": 0.5590551181102362,
                    "duration": 1.0932940000000144
                },
                {
                    "name": "D#2",
                    "midi": 39,
                    "time": 1028.7896539999674,
                    "velocity": 0.5669291338582677,
                    "duration": 1.0932940000000144
                },
                {
                    "name": "D#1",
                    "midi": 27,
                    "time": 1028.7896539999674,
                    "velocity": 0.49606299212598426,
                    "duration": 1.0932940000000144
                },
                {
                    "name": "D1",
                    "midi": 26,
                    "time": 1029.8829479999674,
                    "velocity": 0.5590551181102362,
                    "duration": 1.0932940000000144
                },
                {
                    "name": "D2",
                    "midi": 38,
                    "time": 1029.8829479999674,
                    "velocity": 0.6377952755905512,
                    "duration": 1.0932940000000144
                },
                {
                    "name": "D#2",
                    "midi": 39,
                    "time": 1030.9762419999674,
                    "velocity": 0.5748031496062992,
                    "duration": 1.0932940000000144
                },
                {
                    "name": "D#1",
                    "midi": 27,
                    "time": 1030.9762419999674,
                    "velocity": 0.5039370078740157,
                    "duration": 1.0932940000000144
                },
                {
                    "name": "F1",
                    "midi": 29,
                    "time": 1032.0695359999675,
                    "velocity": 0.49606299212598426,
                    "duration": 1.0932940000000144
                },
                {
                    "name": "F2",
                    "midi": 41,
                    "time": 1032.0695359999675,
                    "velocity": 0.5669291338582677,
                    "duration": 1.0932940000000144
                },
                {
                    "name": "D#2",
                    "midi": 39,
                    "time": 1033.1628299999675,
                    "velocity": 0.6377952755905512,
                    "duration": 1.0932940000000144
                },
                {
                    "name": "D#1",
                    "midi": 27,
                    "time": 1033.1628299999675,
                    "velocity": 0.5590551181102362,
                    "duration": 1.0932940000000144
                },
                {
                    "name": "F2",
                    "midi": 41,
                    "time": 1034.2561239999675,
                    "velocity": 0.5590551181102362,
                    "duration": 1.0932940000000144
                },
                {
                    "name": "F1",
                    "midi": 29,
                    "time": 1034.2561239999675,
                    "velocity": 0.4881889763779528,
                    "duration": 1.0932940000000144
                },
                {
                    "name": "G1",
                    "midi": 31,
                    "time": 1035.3494179999675,
                    "velocity": 0.4881889763779528,
                    "duration": 1.0932940000000144
                },
                {
                    "name": "G2",
                    "midi": 43,
                    "time": 1035.3494179999675,
                    "velocity": 0.5590551181102362,
                    "duration": 1.0932940000000144
                },
                {
                    "name": "E2",
                    "midi": 40,
                    "time": 1036.4427119999675,
                    "velocity": 0.6299212598425197,
                    "duration": 1.0932940000000144
                },
                {
                    "name": "E1",
                    "midi": 28,
                    "time": 1036.4427119999675,
                    "velocity": 0.5511811023622047,
                    "duration": 1.0932940000000144
                },
                {
                    "name": "F1",
                    "midi": 29,
                    "time": 1037.5360059999675,
                    "velocity": 0.47244094488188976,
                    "duration": 1.0932940000000144
                },
                {
                    "name": "F2",
                    "midi": 41,
                    "time": 1037.5360059999675,
                    "velocity": 0.5433070866141733,
                    "duration": 1.0932940000000144
                },
                {
                    "name": "G1",
                    "midi": 31,
                    "time": 1038.6292999999675,
                    "velocity": 0.47244094488188976,
                    "duration": 1.0932940000000144
                },
                {
                    "name": "G2",
                    "midi": 43,
                    "time": 1038.6292999999675,
                    "velocity": 0.5433070866141733,
                    "duration": 1.0932940000000144
                },
                {
                    "name": "F1",
                    "midi": 29,
                    "time": 1039.7225939999676,
                    "velocity": 0.5275590551181102,
                    "duration": 1.0932940000000144
                },
                {
                    "name": "F2",
                    "midi": 41,
                    "time": 1039.7225939999676,
                    "velocity": 0.6062992125984252,
                    "duration": 1.0932940000000144
                },
                {
                    "name": "G1",
                    "midi": 31,
                    "time": 1040.8158879999676,
                    "velocity": 0.4645669291338583,
                    "duration": 1.0932940000000144
                },
                {
                    "name": "G2",
                    "midi": 43,
                    "time": 1040.8158879999676,
                    "velocity": 0.5275590551181102,
                    "duration": 1.0932940000000144
                },
                {
                    "name": "A2",
                    "midi": 45,
                    "time": 1041.9091819999676,
                    "velocity": 0.5275590551181102,
                    "duration": 1.0932940000000144
                },
                {
                    "name": "A1",
                    "midi": 33,
                    "time": 1041.9091819999676,
                    "velocity": 0.4645669291338583,
                    "duration": 1.0932940000000144
                },
                {
                    "name": "F#1",
                    "midi": 30,
                    "time": 1043.0024759999676,
                    "velocity": 0.5039370078740157,
                    "duration": 1.0932940000000144
                },
                {
                    "name": "F#2",
                    "midi": 42,
                    "time": 1043.0024759999676,
                    "velocity": 0.5748031496062992,
                    "duration": 1.0932940000000144
                },
                {
                    "name": "G2",
                    "midi": 43,
                    "time": 1044.0957699999676,
                    "velocity": 0.5118110236220472,
                    "duration": 1.0932940000000144
                },
                {
                    "name": "G1",
                    "midi": 31,
                    "time": 1044.0957699999676,
                    "velocity": 0.44881889763779526,
                    "duration": 1.0932940000000144
                },
                {
                    "name": "A2",
                    "midi": 45,
                    "time": 1045.1890639999676,
                    "velocity": 0.5118110236220472,
                    "duration": 1.0932940000000144
                },
                {
                    "name": "A1",
                    "midi": 33,
                    "time": 1045.1890639999676,
                    "velocity": 0.44881889763779526,
                    "duration": 1.0932940000000144
                },
                {
                    "name": "G2",
                    "midi": 43,
                    "time": 1046.2823579999676,
                    "velocity": 0.5669291338582677,
                    "duration": 1.0932940000000144
                },
                {
                    "name": "G1",
                    "midi": 31,
                    "time": 1046.2823579999676,
                    "velocity": 0.49606299212598426,
                    "duration": 1.0932940000000144
                },
                {
                    "name": "A1",
                    "midi": 33,
                    "time": 1047.3756519999677,
                    "velocity": 0.44881889763779526,
                    "duration": 1.0932940000000144
                },
                {
                    "name": "A2",
                    "midi": 45,
                    "time": 1047.3756519999677,
                    "velocity": 0.5118110236220472,
                    "duration": 1.0932940000000144
                },
                {
                    "name": "A#1",
                    "midi": 34,
                    "time": 1048.4689459999677,
                    "velocity": 0.5433070866141733,
                    "duration": 0.27332350000006045
                },
                {
                    "name": "A#2",
                    "midi": 46,
                    "time": 1048.7422694999677,
                    "velocity": 0.5118110236220472,
                    "duration": 0.27332350000006045
                },
                {
                    "name": "C3",
                    "midi": 48,
                    "time": 1049.0155929999678,
                    "velocity": 0.5118110236220472,
                    "duration": 0.27332350000006045
                },
                {
                    "name": "A#2",
                    "midi": 46,
                    "time": 1049.2889164999679,
                    "velocity": 0.48031496062992124,
                    "duration": 0.27332350000006045
                },
                {
                    "name": "A2",
                    "midi": 45,
                    "time": 1049.562239999968,
                    "velocity": 0.5118110236220472,
                    "duration": 0.27332350000006045
                },
                {
                    "name": "G2",
                    "midi": 43,
                    "time": 1049.835563499968,
                    "velocity": 0.5433070866141733,
                    "duration": 0.27332350000006045
                },
                {
                    "name": "F2",
                    "midi": 41,
                    "time": 1050.108886999968,
                    "velocity": 0.5433070866141733,
                    "duration": 0.27332350000006045
                },
                {
                    "name": "E2",
                    "midi": 40,
                    "time": 1050.382210499968,
                    "velocity": 0.5433070866141733,
                    "duration": 0.27332350000006045
                },
                {
                    "name": "G2",
                    "midi": 43,
                    "time": 1050.6555339999682,
                    "velocity": 0.5433070866141733,
                    "duration": 0.27332350000006045
                },
                {
                    "name": "F2",
                    "midi": 41,
                    "time": 1050.9288574999682,
                    "velocity": 0.5118110236220472,
                    "duration": 0.27332350000006045
                },
                {
                    "name": "E3",
                    "midi": 52,
                    "time": 1051.2021809999683,
                    "velocity": 0.5118110236220472,
                    "duration": 0.27332350000006045
                },
                {
                    "name": "D3",
                    "midi": 50,
                    "time": 1051.4755044999683,
                    "velocity": 0.5118110236220472,
                    "duration": 0.27332350000006045
                },
                {
                    "name": "C3",
                    "midi": 48,
                    "time": 1051.7488279999684,
                    "velocity": 0.5118110236220472,
                    "duration": 0.27332350000006045
                },
                {
                    "name": "A#2",
                    "midi": 46,
                    "time": 1052.0221514999685,
                    "velocity": 0.49606299212598426,
                    "duration": 0.27332350000006045
                },
                {
                    "name": "A2",
                    "midi": 45,
                    "time": 1052.2954749999685,
                    "velocity": 0.5118110236220472,
                    "duration": 0.27332350000006045
                },
                {
                    "name": "G2",
                    "midi": 43,
                    "time": 1052.5687984999686,
                    "velocity": 0.47244094488188976,
                    "duration": 0.27332350000006045
                },
                {
                    "name": "F2",
                    "midi": 41,
                    "time": 1052.8421219999686,
                    "velocity": 0.5433070866141733,
                    "duration": 0.27332350000006045
                },
                {
                    "name": "E2",
                    "midi": 40,
                    "time": 1053.1154454999687,
                    "velocity": 0.5590551181102362,
                    "duration": 0.27332350000006045
                },
                {
                    "name": "D2",
                    "midi": 38,
                    "time": 1053.3887689999688,
                    "velocity": 0.5748031496062992,
                    "duration": 0.27332350000006045
                },
                {
                    "name": "C2",
                    "midi": 36,
                    "time": 1053.6620924999688,
                    "velocity": 0.5905511811023622,
                    "duration": 0.27332350000006045
                },
                {
                    "name": "G2",
                    "midi": 43,
                    "time": 1055.028709999969,
                    "velocity": 0.5590551181102362,
                    "duration": 0.18221566666670697
                },
                {
                    "name": "A2",
                    "midi": 45,
                    "time": 1055.2109256666356,
                    "velocity": 0.5118110236220472,
                    "duration": 0.18221566666670697
                },
                {
                    "name": "G2",
                    "midi": 43,
                    "time": 1055.3931413333023,
                    "velocity": 0.5590551181102362,
                    "duration": 0.18221566666670697
                },
                {
                    "name": "A2",
                    "midi": 45,
                    "time": 1055.575356999969,
                    "velocity": 0.5118110236220472,
                    "duration": 0.18221566666670697
                },
                {
                    "name": "G2",
                    "midi": 43,
                    "time": 1055.7575726666357,
                    "velocity": 0.5590551181102362,
                    "duration": 0.18221566666670697
                },
                {
                    "name": "A2",
                    "midi": 45,
                    "time": 1055.9397883333024,
                    "velocity": 0.5196850393700787,
                    "duration": 0.18221566666670697
                },
                {
                    "name": "G2",
                    "midi": 43,
                    "time": 1056.1220039999691,
                    "velocity": 0.5590551181102362,
                    "duration": 0.18221566666670697
                },
                {
                    "name": "A2",
                    "midi": 45,
                    "time": 1056.3042196666358,
                    "velocity": 0.5118110236220472,
                    "duration": 0.18221566666670697
                },
                {
                    "name": "G2",
                    "midi": 43,
                    "time": 1056.4864353333026,
                    "velocity": 0.5590551181102362,
                    "duration": 0.18221566666670697
                },
                {
                    "name": "A2",
                    "midi": 45,
                    "time": 1056.6686509999693,
                    "velocity": 0.5196850393700787,
                    "duration": 0.18221566666670697
                },
                {
                    "name": "G2",
                    "midi": 43,
                    "time": 1056.850866666636,
                    "velocity": 0.5590551181102362,
                    "duration": 0.18221566666670697
                },
                {
                    "name": "A2",
                    "midi": 45,
                    "time": 1057.0330823333027,
                    "velocity": 0.5196850393700787,
                    "duration": 0.18221566666670697
                },
                {
                    "name": "F2",
                    "midi": 41,
                    "time": 1057.2152979999694,
                    "velocity": 0.6929133858267716,
                    "duration": 1.0932940000000144
                },
                {
                    "name": "F2",
                    "midi": 41,
                    "time": 1058.8552389999693,
                    "velocity": 0.5905511811023622,
                    "duration": 0.27332350000006045
                },
                {
                    "name": "G2",
                    "midi": 43,
                    "time": 1059.1285624999693,
                    "velocity": 0.5354330708661418,
                    "duration": 0.27332350000006045
                },
                {
                    "name": "A2",
                    "midi": 45,
                    "time": 1059.4018859999694,
                    "velocity": 0.5905511811023622,
                    "duration": 0.27332350000006045
                },
                {
                    "name": "A#2",
                    "midi": 46,
                    "time": 1059.6752094999695,
                    "velocity": 0.5826771653543307,
                    "duration": 0.27332350000006045
                },
                {
                    "name": "C3",
                    "midi": 48,
                    "time": 1059.9485329999695,
                    "velocity": 0.5826771653543307,
                    "duration": 0.27332350000006045
                },
                {
                    "name": "D3",
                    "midi": 50,
                    "time": 1060.2218564999696,
                    "velocity": 0.5826771653543307,
                    "duration": 0.27332350000006045
                },
                {
                    "name": "A2",
                    "midi": 45,
                    "time": 1060.4951799999697,
                    "velocity": 0.6850393700787402,
                    "duration": 1.0932940000000144
                },
                {
                    "name": "A2",
                    "midi": 45,
                    "time": 1062.1351209999696,
                    "velocity": 0.5905511811023622,
                    "duration": 0.27332350000006045
                },
                {
                    "name": "A#2",
                    "midi": 46,
                    "time": 1062.4084444999696,
                    "velocity": 0.5354330708661418,
                    "duration": 0.27332350000006045
                },
                {
                    "name": "C3",
                    "midi": 48,
                    "time": 1062.6817679999697,
                    "velocity": 0.5905511811023622,
                    "duration": 0.27332350000006045
                },
                {
                    "name": "D3",
                    "midi": 50,
                    "time": 1062.9550914999697,
                    "velocity": 0.5826771653543307,
                    "duration": 0.27332350000006045
                },
                {
                    "name": "E3",
                    "midi": 52,
                    "time": 1063.2284149999698,
                    "velocity": 0.5826771653543307,
                    "duration": 0.27332350000006045
                },
                {
                    "name": "F3",
                    "midi": 53,
                    "time": 1063.5017384999699,
                    "velocity": 0.5826771653543307,
                    "duration": 0.27332350000006045
                },
                {
                    "name": "C3",
                    "midi": 48,
                    "time": 1063.77506199997,
                    "velocity": 0.6850393700787402,
                    "duration": 1.0932940000000144
                },
                {
                    "name": "C3",
                    "midi": 48,
                    "time": 1065.4150029999698,
                    "velocity": 0.5275590551181102,
                    "duration": 0.27332350000006045
                },
                {
                    "name": "D3",
                    "midi": 50,
                    "time": 1065.68832649997,
                    "velocity": 0.49606299212598426,
                    "duration": 0.27332350000006045
                },
                {
                    "name": "E3",
                    "midi": 52,
                    "time": 1065.96164999997,
                    "velocity": 0.5748031496062992,
                    "duration": 0.27332350000006045
                },
                {
                    "name": "D3",
                    "midi": 50,
                    "time": 1066.23497349997,
                    "velocity": 0.49606299212598426,
                    "duration": 0.27332350000006045
                },
                {
                    "name": "E3",
                    "midi": 52,
                    "time": 1066.50829699997,
                    "velocity": 0.49606299212598426,
                    "duration": 0.27332350000006045
                },
                {
                    "name": "F3",
                    "midi": 53,
                    "time": 1066.7816204999701,
                    "velocity": 0.49606299212598426,
                    "duration": 0.27332350000006045
                },
                {
                    "name": "G3",
                    "midi": 55,
                    "time": 1067.0549439999702,
                    "velocity": 0.5826771653543307,
                    "duration": 0.27332350000006045
                },
                {
                    "name": "F3",
                    "midi": 53,
                    "time": 1067.3282674999703,
                    "velocity": 0.49606299212598426,
                    "duration": 0.27332350000006045
                },
                {
                    "name": "G3",
                    "midi": 55,
                    "time": 1067.6015909999703,
                    "velocity": 0.49606299212598426,
                    "duration": 0.27332350000006045
                },
                {
                    "name": "A3",
                    "midi": 57,
                    "time": 1067.8749144999704,
                    "velocity": 0.49606299212598426,
                    "duration": 0.27332350000006045
                },
                {
                    "name": "A#3",
                    "midi": 58,
                    "time": 1068.1482379999704,
                    "velocity": 0.5826771653543307,
                    "duration": 0.27332350000006045
                },
                {
                    "name": "A3",
                    "midi": 57,
                    "time": 1068.4215614999705,
                    "velocity": 0.4881889763779528,
                    "duration": 0.27332350000006045
                },
                {
                    "name": "G3",
                    "midi": 55,
                    "time": 1068.6948849999706,
                    "velocity": 0.4881889763779528,
                    "duration": 0.27332350000006045
                },
                {
                    "name": "A3",
                    "midi": 57,
                    "time": 1068.9682084999706,
                    "velocity": 0.4881889763779528,
                    "duration": 0.27332350000006045
                },
                {
                    "name": "A#3",
                    "midi": 58,
                    "time": 1069.2415319999707,
                    "velocity": 0.5748031496062992,
                    "duration": 0.27332350000006045
                },
                {
                    "name": "A3",
                    "midi": 57,
                    "time": 1069.5148554999707,
                    "velocity": 0.48031496062992124,
                    "duration": 0.27332350000006045
                },
                {
                    "name": "G3",
                    "midi": 55,
                    "time": 1069.7881789999708,
                    "velocity": 0.4881889763779528,
                    "duration": 0.27332350000006045
                },
                {
                    "name": "F3",
                    "midi": 53,
                    "time": 1070.0615024999709,
                    "velocity": 0.4881889763779528,
                    "duration": 0.27332350000006045
                },
                {
                    "name": "E3",
                    "midi": 52,
                    "time": 1070.334825999971,
                    "velocity": 0.5826771653543307,
                    "duration": 0.27332350000006045
                },
                {
                    "name": "D3",
                    "midi": 50,
                    "time": 1070.608149499971,
                    "velocity": 0.4881889763779528,
                    "duration": 0.27332350000006045
                },
                {
                    "name": "C3",
                    "midi": 48,
                    "time": 1070.881472999971,
                    "velocity": 0.4881889763779528,
                    "duration": 0.27332350000006045
                },
                {
                    "name": "D3",
                    "midi": 50,
                    "time": 1071.154796499971,
                    "velocity": 0.4881889763779528,
                    "duration": 0.27332350000006045
                },
                {
                    "name": "D#3",
                    "midi": 51,
                    "time": 1071.4281199999712,
                    "velocity": 0.5748031496062992,
                    "duration": 0.27332350000006045
                },
                {
                    "name": "D3",
                    "midi": 50,
                    "time": 1071.7014434999712,
                    "velocity": 0.4881889763779528,
                    "duration": 0.27332350000006045
                },
                {
                    "name": "C3",
                    "midi": 48,
                    "time": 1071.9747669999713,
                    "velocity": 0.4881889763779528,
                    "duration": 0.27332350000006045
                },
                {
                    "name": "A#2",
                    "midi": 46,
                    "time": 1072.2480904999713,
                    "velocity": 0.4881889763779528,
                    "duration": 0.27332350000006045
                },
                {
                    "name": "D3",
                    "midi": 50,
                    "time": 1072.5214139999714,
                    "velocity": 0.5984251968503937,
                    "duration": 0.27332350000006045
                },
                {
                    "name": "C3",
                    "midi": 48,
                    "time": 1072.7947374999715,
                    "velocity": 0.4881889763779528,
                    "duration": 0.27332350000006045
                },
                {
                    "name": "A#2",
                    "midi": 46,
                    "time": 1073.0680609999715,
                    "velocity": 0.4881889763779528,
                    "duration": 0.27332350000006045
                },
                {
                    "name": "A2",
                    "midi": 45,
                    "time": 1073.3413844999716,
                    "velocity": 0.4881889763779528,
                    "duration": 0.27332350000006045
                },
                {
                    "name": "A#2",
                    "midi": 46,
                    "time": 1073.6147079999716,
                    "velocity": 0.5748031496062992,
                    "duration": 0.27332350000006045
                },
                {
                    "name": "A2",
                    "midi": 45,
                    "time": 1073.8880314999717,
                    "velocity": 0.49606299212598426,
                    "duration": 0.27332350000006045
                },
                {
                    "name": "G2",
                    "midi": 43,
                    "time": 1074.1613549999718,
                    "velocity": 0.49606299212598426,
                    "duration": 0.27332350000006045
                },
                {
                    "name": "F2",
                    "midi": 41,
                    "time": 1074.4346784999718,
                    "velocity": 0.49606299212598426,
                    "duration": 0.27332350000006045
                },
                {
                    "name": "D#3",
                    "midi": 51,
                    "time": 1074.7080019999719,
                    "velocity": 0.6141732283464567,
                    "duration": 2.186588000000029
                },
                {
                    "name": "F1",
                    "midi": 29,
                    "time": 1075.2546489999718,
                    "velocity": 0.7716535433070866,
                    "duration": 0.5466469999998935
                },
                {
                    "name": "A2",
                    "midi": 45,
                    "time": 1075.8012959999717,
                    "velocity": 0.5669291338582677,
                    "duration": 0.18221566666670697
                },
                {
                    "name": "A#2",
                    "midi": 46,
                    "time": 1075.9835116666384,
                    "velocity": 0.5118110236220472,
                    "duration": 0.18221566666670697
                },
                {
                    "name": "A2",
                    "midi": 45,
                    "time": 1076.165727333305,
                    "velocity": 0.5669291338582677,
                    "duration": 0.18221566666670697
                },
                {
                    "name": "A#2",
                    "midi": 46,
                    "time": 1076.3479429999718,
                    "velocity": 0.5039370078740157,
                    "duration": 0.18221566666670697
                },
                {
                    "name": "A2",
                    "midi": 45,
                    "time": 1076.5301586666385,
                    "velocity": 0.5669291338582677,
                    "duration": 0.18221566666670697
                },
                {
                    "name": "A#2",
                    "midi": 46,
                    "time": 1076.7123743333052,
                    "velocity": 0.5039370078740157,
                    "duration": 0.18221566666670697
                },
                {
                    "name": "A2",
                    "midi": 45,
                    "time": 1076.894589999972,
                    "velocity": 0.5669291338582677,
                    "duration": 0.18221566666670697
                },
                {
                    "name": "D3",
                    "midi": 50,
                    "time": 1076.894589999972,
                    "velocity": 0.5669291338582677,
                    "duration": 1.0932940000002418
                },
                {
                    "name": "A#2",
                    "midi": 46,
                    "time": 1077.0768056666386,
                    "velocity": 0.5118110236220472,
                    "duration": 0.18221566666670697
                },
                {
                    "name": "A2",
                    "midi": 45,
                    "time": 1077.2590213333053,
                    "velocity": 0.5669291338582677,
                    "duration": 0.18221566666670697
                },
                {
                    "name": "A#2",
                    "midi": 46,
                    "time": 1077.441236999972,
                    "velocity": 0.5511811023622047,
                    "duration": 0.13666175000003022
                },
                {
                    "name": "A2",
                    "midi": 45,
                    "time": 1077.577898749972,
                    "velocity": 0.49606299212598426,
                    "duration": 0.13666175000003022
                },
                {
                    "name": "G2",
                    "midi": 43,
                    "time": 1077.714560499972,
                    "velocity": 0.49606299212598426,
                    "duration": 0.13666175000003022
                },
                {
                    "name": "A2",
                    "midi": 45,
                    "time": 1077.8512222499721,
                    "velocity": 0.49606299212598426,
                    "duration": 0.13666175000003022
                },
                {
                    "name": "A#2",
                    "midi": 46,
                    "time": 1077.9878839999722,
                    "velocity": 0.6614173228346457,
                    "duration": 1.0932940000000144
                },
                {
                    "name": "A#2",
                    "midi": 46,
                    "time": 1079.627824999972,
                    "velocity": 0.47244094488188976,
                    "duration": 0.27332350000006045
                },
                {
                    "name": "A2",
                    "midi": 45,
                    "time": 1079.9011484999721,
                    "velocity": 0.4251968503937008,
                    "duration": 0.27332350000006045
                },
                {
                    "name": "G2",
                    "midi": 43,
                    "time": 1080.1744719999722,
                    "velocity": 0.47244094488188976,
                    "duration": 0.27332350000006045
                },
                {
                    "name": "F2",
                    "midi": 41,
                    "time": 1080.4477954999722,
                    "velocity": 0.41732283464566927,
                    "duration": 0.27332350000006045
                },
                {
                    "name": "D#2",
                    "midi": 39,
                    "time": 1080.7211189999723,
                    "velocity": 0.41732283464566927,
                    "duration": 0.27332350000006045
                },
                {
                    "name": "D2",
                    "midi": 38,
                    "time": 1080.9944424999724,
                    "velocity": 0.41732283464566927,
                    "duration": 0.27332350000006045
                },
                {
                    "name": "G2",
                    "midi": 43,
                    "time": 1081.2677659999724,
                    "velocity": 0.5118110236220472,
                    "duration": 1.0932940000000144
                },
                {
                    "name": "G2",
                    "midi": 43,
                    "time": 1082.9077069999723,
                    "velocity": 0.47244094488188976,
                    "duration": 0.27332350000006045
                },
                {
                    "name": "F2",
                    "midi": 41,
                    "time": 1083.1810304999724,
                    "velocity": 0.4251968503937008,
                    "duration": 0.27332350000006045
                },
                {
                    "name": "D#2",
                    "midi": 39,
                    "time": 1083.4543539999725,
                    "velocity": 0.47244094488188976,
                    "duration": 0.27332350000006045
                },
                {
                    "name": "D2",
                    "midi": 38,
                    "time": 1083.7276774999725,
                    "velocity": 0.41732283464566927,
                    "duration": 0.27332350000006045
                },
                {
                    "name": "C2",
                    "midi": 36,
                    "time": 1084.0010009999726,
                    "velocity": 0.41732283464566927,
                    "duration": 0.27332350000006045
                },
                {
                    "name": "B1",
                    "midi": 35,
                    "time": 1084.2743244999726,
                    "velocity": 0.41732283464566927,
                    "duration": 0.27332350000006045
                },
                {
                    "name": "C2",
                    "midi": 36,
                    "time": 1084.5476479999727,
                    "velocity": 0.5118110236220472,
                    "duration": 1.0932940000000144
                },
                {
                    "name": "D#3",
                    "midi": 51,
                    "time": 1086.1875889999726,
                    "velocity": 0.47244094488188976,
                    "duration": 0.27332350000006045
                },
                {
                    "name": "D3",
                    "midi": 50,
                    "time": 1086.4609124999727,
                    "velocity": 0.41732283464566927,
                    "duration": 0.27332350000006045
                },
                {
                    "name": "C3",
                    "midi": 48,
                    "time": 1086.7342359999727,
                    "velocity": 0.47244094488188976,
                    "duration": 0.27332350000006045
                },
                {
                    "name": "D3",
                    "midi": 50,
                    "time": 1087.0075594999728,
                    "velocity": 0.41732283464566927,
                    "duration": 0.27332350000006045
                },
                {
                    "name": "C3",
                    "midi": 48,
                    "time": 1087.2808829999728,
                    "velocity": 0.41732283464566927,
                    "duration": 0.27332350000006045
                },
                {
                    "name": "A#2",
                    "midi": 46,
                    "time": 1087.554206499973,
                    "velocity": 0.41732283464566927,
                    "duration": 0.27332350000006045
                },
                {
                    "name": "A2",
                    "midi": 45,
                    "time": 1087.827529999973,
                    "velocity": 0.5039370078740157,
                    "duration": 0.27332350000006045
                },
                {
                    "name": "A#2",
                    "midi": 46,
                    "time": 1088.100853499973,
                    "velocity": 0.4566929133858268,
                    "duration": 0.27332350000006045
                },
                {
                    "name": "A2",
                    "midi": 45,
                    "time": 1088.374176999973,
                    "velocity": 0.48031496062992124,
                    "duration": 0.27332350000006045
                },
                {
                    "name": "G2",
                    "midi": 43,
                    "time": 1088.6475004999731,
                    "velocity": 0.5039370078740157,
                    "duration": 0.27332350000006045
                },
                {
                    "name": "F2",
                    "midi": 41,
                    "time": 1088.9208239999732,
                    "velocity": 0.5669291338582677,
                    "duration": 0.27332350000006045
                },
                {
                    "name": "G2",
                    "midi": 43,
                    "time": 1089.1941474999733,
                    "velocity": 0.47244094488188976,
                    "duration": 0.27332350000006045
                },
                {
                    "name": "A2",
                    "midi": 45,
                    "time": 1089.4674709999733,
                    "velocity": 0.47244094488188976,
                    "duration": 0.27332350000006045
                },
                {
                    "name": "A#2",
                    "midi": 46,
                    "time": 1089.7407944999734,
                    "velocity": 0.47244094488188976,
                    "duration": 0.27332350000006045
                },
                {
                    "name": "C3",
                    "midi": 48,
                    "time": 1090.0141179999735,
                    "velocity": 0.5354330708661418,
                    "duration": 0.27332350000006045
                },
                {
                    "name": "C#3",
                    "midi": 49,
                    "time": 1090.2874414999735,
                    "velocity": 0.4409448818897638,
                    "duration": 0.27332350000006045
                },
                {
                    "name": "D3",
                    "midi": 50,
                    "time": 1090.5607649999736,
                    "velocity": 0.4409448818897638,
                    "duration": 0.27332350000006045
                },
                {
                    "name": "C3",
                    "midi": 48,
                    "time": 1090.8340884999736,
                    "velocity": 0.4409448818897638,
                    "duration": 0.27332350000006045
                },
                {
                    "name": "A#2",
                    "midi": 46,
                    "time": 1091.1074119999737,
                    "velocity": 0.5196850393700787,
                    "duration": 0.27332350000006045
                },
                {
                    "name": "C3",
                    "midi": 48,
                    "time": 1091.3807354999738,
                    "velocity": 0.44881889763779526,
                    "duration": 0.27332350000006045
                },
                {
                    "name": "D3",
                    "midi": 50,
                    "time": 1091.6540589999738,
                    "velocity": 0.44881889763779526,
                    "duration": 0.27332350000006045
                },
                {
                    "name": "D#3",
                    "midi": 51,
                    "time": 1091.9273824999739,
                    "velocity": 0.44881889763779526,
                    "duration": 0.27332350000006045
                },
                {
                    "name": "E3",
                    "midi": 52,
                    "time": 1092.200705999974,
                    "velocity": 0.47244094488188976,
                    "duration": 0.27332350000006045
                },
                {
                    "name": "D#3",
                    "midi": 51,
                    "time": 1092.474029499974,
                    "velocity": 0.4330708661417323,
                    "duration": 0.27332350000006045
                },
                {
                    "name": "D3",
                    "midi": 50,
                    "time": 1092.747352999974,
                    "velocity": 0.47244094488188976,
                    "duration": 0.27332350000006045
                },
                {
                    "name": "D#3",
                    "midi": 51,
                    "time": 1093.0206764999741,
                    "velocity": 0.4251968503937008,
                    "duration": 0.27332350000006045
                },
                {
                    "name": "F3",
                    "midi": 53,
                    "time": 1093.2939999999742,
                    "velocity": 0.4645669291338583,
                    "duration": 0.27332350000006045
                },
                {
                    "name": "G3",
                    "midi": 55,
                    "time": 1093.5673234999742,
                    "velocity": 0.4409448818897638,
                    "duration": 0.27332350000006045
                },
                {
                    "name": "A3",
                    "midi": 57,
                    "time": 1093.8406469999743,
                    "velocity": 0.48031496062992124,
                    "duration": 0.27332350000006045
                },
                {
                    "name": "A#3",
                    "midi": 58,
                    "time": 1094.1139704999744,
                    "velocity": 0.44881889763779526,
                    "duration": 0.27332350000006045
                },
                {
                    "name": "C4",
                    "midi": 60,
                    "time": 1094.3872939999744,
                    "velocity": 0.49606299212598426,
                    "duration": 0.27332350000006045
                },
                {
                    "name": "A#3",
                    "midi": 58,
                    "time": 1094.6606174999745,
                    "velocity": 0.47244094488188976,
                    "duration": 0.27332350000006045
                },
                {
                    "name": "C4",
                    "midi": 60,
                    "time": 1094.9339409999745,
                    "velocity": 0.5196850393700787,
                    "duration": 0.27332350000006045
                },
                {
                    "name": "D4",
                    "midi": 62,
                    "time": 1095.2072644999746,
                    "velocity": 0.4881889763779528,
                    "duration": 0.27332350000006045
                },
                {
                    "name": "D#4",
                    "midi": 63,
                    "time": 1095.4805879999747,
                    "velocity": 0.5354330708661418,
                    "duration": 0.27332350000006045
                },
                {
                    "name": "D4",
                    "midi": 62,
                    "time": 1095.7539114999747,
                    "velocity": 0.49606299212598426,
                    "duration": 0.27332350000006045
                },
                {
                    "name": "C#4",
                    "midi": 61,
                    "time": 1096.0272349999748,
                    "velocity": 0.4881889763779528,
                    "duration": 0.27332350000006045
                },
                {
                    "name": "C4",
                    "midi": 60,
                    "time": 1096.3005584999748,
                    "velocity": 0.47244094488188976,
                    "duration": 0.27332350000006045
                },
                {
                    "name": "A#3",
                    "midi": 58,
                    "time": 1096.573881999975,
                    "velocity": 0.5118110236220472,
                    "duration": 0.27332350000006045
                },
                {
                    "name": "A3",
                    "midi": 57,
                    "time": 1096.847205499975,
                    "velocity": 0.47244094488188976,
                    "duration": 0.27332350000006045
                },
                {
                    "name": "G3",
                    "midi": 55,
                    "time": 1097.120528999975,
                    "velocity": 0.44881889763779526,
                    "duration": 0.27332350000006045
                },
                {
                    "name": "A3",
                    "midi": 57,
                    "time": 1097.393852499975,
                    "velocity": 0.4330708661417323,
                    "duration": 0.27332350000006045
                },
                {
                    "name": "A#3",
                    "midi": 58,
                    "time": 1097.6671759999751,
                    "velocity": 0.49606299212598426,
                    "duration": 0.27332350000006045
                },
                {
                    "name": "A3",
                    "midi": 57,
                    "time": 1097.9404994999752,
                    "velocity": 0.44881889763779526,
                    "duration": 0.27332350000006045
                },
                {
                    "name": "G3",
                    "midi": 55,
                    "time": 1098.2138229999753,
                    "velocity": 0.4566929133858268,
                    "duration": 0.27332350000006045
                },
                {
                    "name": "F3",
                    "midi": 53,
                    "time": 1098.4871464999753,
                    "velocity": 0.4566929133858268,
                    "duration": 0.27332350000006045
                },
                {
                    "name": "G3",
                    "midi": 55,
                    "time": 1098.7604699999754,
                    "velocity": 0.4566929133858268,
                    "duration": 0.18221566666670697
                },
                {
                    "name": "E3",
                    "midi": 52,
                    "time": 1098.7604699999754,
                    "velocity": 0.3937007874015748,
                    "duration": 1.0932940000002418
                },
                {
                    "name": "A3",
                    "midi": 57,
                    "time": 1098.942685666642,
                    "velocity": 0.4094488188976378,
                    "duration": 0.18221566666670697
                },
                {
                    "name": "G3",
                    "midi": 55,
                    "time": 1099.1249013333088,
                    "velocity": 0.4566929133858268,
                    "duration": 0.18221566666670697
                },
                {
                    "name": "A3",
                    "midi": 57,
                    "time": 1099.3071169999755,
                    "velocity": 0.4094488188976378,
                    "duration": 0.18221566666670697
                },
                {
                    "name": "G3",
                    "midi": 55,
                    "time": 1099.4893326666422,
                    "velocity": 0.4566929133858268,
                    "duration": 0.18221566666670697
                },
                {
                    "name": "A3",
                    "midi": 57,
                    "time": 1099.671548333309,
                    "velocity": 0.41732283464566927,
                    "duration": 0.18221566666670697
                },
                {
                    "name": "G3",
                    "midi": 55,
                    "time": 1099.8537639999756,
                    "velocity": 0.4566929133858268,
                    "duration": 0.18221566666670697
                },
                {
                    "name": "A#2",
                    "midi": 46,
                    "time": 1099.8537639999756,
                    "velocity": 0.4566929133858268,
                    "duration": 1.0932940000002418
                },
                {
                    "name": "A3",
                    "midi": 57,
                    "time": 1100.0359796666423,
                    "velocity": 0.41732283464566927,
                    "duration": 0.18221566666670697
                },
                {
                    "name": "G3",
                    "midi": 55,
                    "time": 1100.218195333309,
                    "velocity": 0.4566929133858268,
                    "duration": 0.18221566666670697
                },
                {
                    "name": "A3",
                    "midi": 57,
                    "time": 1100.4004109999757,
                    "velocity": 0.4251968503937008,
                    "duration": 0.18221566666670697
                },
                {
                    "name": "G3",
                    "midi": 55,
                    "time": 1100.5826266666425,
                    "velocity": 0.4566929133858268,
                    "duration": 0.18221566666670697
                },
                {
                    "name": "A3",
                    "midi": 57,
                    "time": 1100.7648423333092,
                    "velocity": 0.4251968503937008,
                    "duration": 0.18221566666670697
                },
                {
                    "name": "F3",
                    "midi": 53,
                    "time": 1100.9470579999759,
                    "velocity": 0.4566929133858268,
                    "duration": 1.0932940000000144
                },
                {
                    "name": "A2",
                    "midi": 45,
                    "time": 1100.9470579999759,
                    "velocity": 0.4015748031496063,
                    "duration": 1.0932940000000144
                },
                {
                    "name": "A3",
                    "midi": 57,
                    "time": 1102.0403519999759,
                    "velocity": 0.4566929133858268,
                    "duration": 0.18221566666670697
                },
                {
                    "name": "F#3",
                    "midi": 54,
                    "time": 1102.0403519999759,
                    "velocity": 0.3937007874015748,
                    "duration": 1.0932940000002418
                },
                {
                    "name": "A#3",
                    "midi": 58,
                    "time": 1102.2225676666426,
                    "velocity": 0.4094488188976378,
                    "duration": 0.18221566666670697
                },
                {
                    "name": "A3",
                    "midi": 57,
                    "time": 1102.4047833333093,
                    "velocity": 0.4566929133858268,
                    "duration": 0.18221566666670697
                },
                {
                    "name": "A#3",
                    "midi": 58,
                    "time": 1102.586998999976,
                    "velocity": 0.4094488188976378,
                    "duration": 0.18221566666670697
                },
                {
                    "name": "A3",
                    "midi": 57,
                    "time": 1102.7692146666427,
                    "velocity": 0.4566929133858268,
                    "duration": 0.18221566666670697
                },
                {
                    "name": "A#3",
                    "midi": 58,
                    "time": 1102.9514303333094,
                    "velocity": 0.41732283464566927,
                    "duration": 0.18221566666670697
                },
                {
                    "name": "C3",
                    "midi": 48,
                    "time": 1103.1336459999761,
                    "velocity": 0.4566929133858268,
                    "duration": 1.0932940000002418
                },
                {
                    "name": "A3",
                    "midi": 57,
                    "time": 1103.1336459999761,
                    "velocity": 0.4566929133858268,
                    "duration": 0.18221566666670697
                },
                {
                    "name": "A#3",
                    "midi": 58,
                    "time": 1103.3158616666428,
                    "velocity": 0.41732283464566927,
                    "duration": 0.18221566666670697
                },
                {
                    "name": "A3",
                    "midi": 57,
                    "time": 1103.4980773333095,
                    "velocity": 0.4566929133858268,
                    "duration": 0.18221566666670697
                },
                {
                    "name": "A#3",
                    "midi": 58,
                    "time": 1103.6802929999762,
                    "velocity": 0.4251968503937008,
                    "duration": 0.18221566666670697
                },
                {
                    "name": "A3",
                    "midi": 57,
                    "time": 1103.862508666643,
                    "velocity": 0.4566929133858268,
                    "duration": 0.18221566666670697
                },
                {
                    "name": "A#3",
                    "midi": 58,
                    "time": 1104.0447243333097,
                    "velocity": 0.4251968503937008,
                    "duration": 0.18221566666670697
                },
                {
                    "name": "G3",
                    "midi": 55,
                    "time": 1104.2269399999764,
                    "velocity": 0.4566929133858268,
                    "duration": 1.0932940000000144
                },
                {
                    "name": "A#2",
                    "midi": 46,
                    "time": 1104.2269399999764,
                    "velocity": 0.4015748031496063,
                    "duration": 1.0932940000000144
                },
                {
                    "name": "G3",
                    "midi": 55,
                    "time": 1105.3202339999764,
                    "velocity": 0.3937007874015748,
                    "duration": 1.0932940000002418
                },
                {
                    "name": "A#3",
                    "midi": 58,
                    "time": 1105.3202339999764,
                    "velocity": 0.4566929133858268,
                    "duration": 0.18221566666670697
                },
                {
                    "name": "C4",
                    "midi": 60,
                    "time": 1105.502449666643,
                    "velocity": 0.4094488188976378,
                    "duration": 0.18221566666670697
                },
                {
                    "name": "A#3",
                    "midi": 58,
                    "time": 1105.6846653333098,
                    "velocity": 0.4566929133858268,
                    "duration": 0.18221566666670697
                },
                {
                    "name": "C4",
                    "midi": 60,
                    "time": 1105.8668809999765,
                    "velocity": 0.4094488188976378,
                    "duration": 0.18221566666670697
                },
                {
                    "name": "A#3",
                    "midi": 58,
                    "time": 1106.0490966666432,
                    "velocity": 0.4566929133858268,
                    "duration": 0.18221566666670697
                },
                {
                    "name": "C4",
                    "midi": 60,
                    "time": 1106.23131233331,
                    "velocity": 0.41732283464566927,
                    "duration": 0.18221566666670697
                },
                {
                    "name": "A#3",
                    "midi": 58,
                    "time": 1106.4135279999766,
                    "velocity": 0.4566929133858268,
                    "duration": 0.18221566666670697
                },
                {
                    "name": "D3",
                    "midi": 50,
                    "time": 1106.4135279999766,
                    "velocity": 0.4566929133858268,
                    "duration": 1.0932940000002418
                },
                {
                    "name": "C4",
                    "midi": 60,
                    "time": 1106.5957436666433,
                    "velocity": 0.41732283464566927,
                    "duration": 0.18221566666670697
                },
                {
                    "name": "A#3",
                    "midi": 58,
                    "time": 1106.77795933331,
                    "velocity": 0.4566929133858268,
                    "duration": 0.18221566666670697
                },
                {
                    "name": "C4",
                    "midi": 60,
                    "time": 1106.9601749999767,
                    "velocity": 0.4251968503937008,
                    "duration": 0.18221566666670697
                },
                {
                    "name": "A#3",
                    "midi": 58,
                    "time": 1107.1423906666435,
                    "velocity": 0.4566929133858268,
                    "duration": 0.18221566666670697
                },
                {
                    "name": "C4",
                    "midi": 60,
                    "time": 1107.3246063333102,
                    "velocity": 0.4251968503937008,
                    "duration": 0.18221566666670697
                },
                {
                    "name": "A3",
                    "midi": 57,
                    "time": 1107.5068219999769,
                    "velocity": 0.4566929133858268,
                    "duration": 1.093293999999787
                },
                {
                    "name": "C3",
                    "midi": 48,
                    "time": 1107.5068219999769,
                    "velocity": 0.4015748031496063,
                    "duration": 0.5466469999998935
                },
                {
                    "name": "F#2",
                    "midi": 42,
                    "time": 1108.0534689999768,
                    "velocity": 0.4094488188976378,
                    "duration": 0.819970499999954
                },
                {
                    "name": "G2",
                    "midi": 43,
                    "time": 1108.8734394999767,
                    "velocity": 0.3779527559055118,
                    "duration": 0.27332350000006045
                },
                {
                    "name": "A2",
                    "midi": 45,
                    "time": 1109.1467629999768,
                    "velocity": 0.3937007874015748,
                    "duration": 0.27332350000006045
                },
                {
                    "name": "A#2",
                    "midi": 46,
                    "time": 1109.4200864999768,
                    "velocity": 0.41732283464566927,
                    "duration": 0.27332350000006045
                },
                {
                    "name": "C3",
                    "midi": 48,
                    "time": 1109.693409999977,
                    "velocity": 0.4330708661417323,
                    "duration": 0.27332350000006045
                },
                {
                    "name": "D3",
                    "midi": 50,
                    "time": 1109.966733499977,
                    "velocity": 0.4566929133858268,
                    "duration": 0.27332350000006045
                },
                {
                    "name": "E3",
                    "midi": 52,
                    "time": 1110.240056999977,
                    "velocity": 0.47244094488188976,
                    "duration": 0.27332350000006045
                },
                {
                    "name": "F#3",
                    "midi": 54,
                    "time": 1110.513380499977,
                    "velocity": 0.49606299212598426,
                    "duration": 0.27332350000006045
                },
                {
                    "name": "G2",
                    "midi": 43,
                    "time": 1110.7867039999771,
                    "velocity": 0.5118110236220472,
                    "duration": 0.27332350000006045
                },
                {
                    "name": "G3",
                    "midi": 55,
                    "time": 1111.0600274999772,
                    "velocity": 0.4330708661417323,
                    "duration": 0.27332350000006045
                },
                {
                    "name": "F2",
                    "midi": 41,
                    "time": 1111.3333509999773,
                    "velocity": 0.4881889763779528,
                    "duration": 0.27332350000006045
                },
                {
                    "name": "F3",
                    "midi": 53,
                    "time": 1111.6066744999773,
                    "velocity": 0.4015748031496063,
                    "duration": 0.27332350000006045
                },
                {
                    "name": "E2",
                    "midi": 40,
                    "time": 1111.8799979999774,
                    "velocity": 0.41732283464566927,
                    "duration": 0.27332350000006045
                },
                {
                    "name": "F2",
                    "midi": 41,
                    "time": 1112.1533214999774,
                    "velocity": 0.3779527559055118,
                    "duration": 0.27332350000006045
                },
                {
                    "name": "G2",
                    "midi": 43,
                    "time": 1112.4266449999775,
                    "velocity": 0.3937007874015748,
                    "duration": 0.27332350000006045
                },
                {
                    "name": "A2",
                    "midi": 45,
                    "time": 1112.6999684999776,
                    "velocity": 0.41732283464566927,
                    "duration": 0.27332350000006045
                },
                {
                    "name": "A#2",
                    "midi": 46,
                    "time": 1112.9732919999776,
                    "velocity": 0.4330708661417323,
                    "duration": 0.27332350000006045
                },
                {
                    "name": "C3",
                    "midi": 48,
                    "time": 1113.2466154999777,
                    "velocity": 0.4566929133858268,
                    "duration": 0.27332350000006045
                },
                {
                    "name": "D3",
                    "midi": 50,
                    "time": 1113.5199389999777,
                    "velocity": 0.47244094488188976,
                    "duration": 0.27332350000006045
                },
                {
                    "name": "E3",
                    "midi": 52,
                    "time": 1113.7932624999778,
                    "velocity": 0.49606299212598426,
                    "duration": 0.27332350000006045
                },
                {
                    "name": "F2",
                    "midi": 41,
                    "time": 1114.0665859999779,
                    "velocity": 0.5118110236220472,
                    "duration": 0.27332350000006045
                },
                {
                    "name": "F3",
                    "midi": 53,
                    "time": 1114.339909499978,
                    "velocity": 0.4330708661417323,
                    "duration": 0.27332350000006045
                },
                {
                    "name": "D#2",
                    "midi": 39,
                    "time": 1114.613232999978,
                    "velocity": 0.4881889763779528,
                    "duration": 0.27332350000006045
                },
                {
                    "name": "D#3",
                    "midi": 51,
                    "time": 1114.886556499978,
                    "velocity": 0.4015748031496063,
                    "duration": 0.27332350000006045
                },
                {
                    "name": "D2",
                    "midi": 38,
                    "time": 1115.159879999978,
                    "velocity": 0.41732283464566927,
                    "duration": 0.27332350000006045
                },
                {
                    "name": "D#2",
                    "midi": 39,
                    "time": 1115.4332034999782,
                    "velocity": 0.3779527559055118,
                    "duration": 0.27332350000006045
                },
                {
                    "name": "F2",
                    "midi": 41,
                    "time": 1115.7065269999782,
                    "velocity": 0.3937007874015748,
                    "duration": 0.27332350000006045
                },
                {
                    "name": "G2",
                    "midi": 43,
                    "time": 1115.9798504999783,
                    "velocity": 0.41732283464566927,
                    "duration": 0.27332350000006045
                },
                {
                    "name": "G#2",
                    "midi": 44,
                    "time": 1116.2531739999783,
                    "velocity": 0.4330708661417323,
                    "duration": 0.27332350000006045
                },
                {
                    "name": "A#2",
                    "midi": 46,
                    "time": 1116.5264974999784,
                    "velocity": 0.4566929133858268,
                    "duration": 0.27332350000006045
                },
                {
                    "name": "C3",
                    "midi": 48,
                    "time": 1116.7998209999785,
                    "velocity": 0.47244094488188976,
                    "duration": 0.27332350000006045
                },
                {
                    "name": "D3",
                    "midi": 50,
                    "time": 1117.0731444999785,
                    "velocity": 0.49606299212598426,
                    "duration": 0.27332350000006045
                },
                {
                    "name": "D#2",
                    "midi": 39,
                    "time": 1117.3464679999786,
                    "velocity": 0.5826771653543307,
                    "duration": 0.27332350000006045
                },
                {
                    "name": "D#3",
                    "midi": 51,
                    "time": 1117.6197914999786,
                    "velocity": 0.49606299212598426,
                    "duration": 0.27332350000006045
                },
                {
                    "name": "C#3",
                    "midi": 49,
                    "time": 1117.8931149999787,
                    "velocity": 0.5590551181102362,
                    "duration": 0.5466469999998935
                },
                {
                    "name": "C#2",
                    "midi": 37,
                    "time": 1117.8931149999787,
                    "velocity": 0.4566929133858268,
                    "duration": 0.5466469999998935
                },
                {
                    "name": "A#1",
                    "midi": 34,
                    "time": 1118.4397619999786,
                    "velocity": 0.5196850393700787,
                    "duration": 0.18221566666670697
                },
                {
                    "name": "C#3",
                    "midi": 49,
                    "time": 1118.4397619999786,
                    "velocity": 0.5196850393700787,
                    "duration": 0.27332350000006045
                },
                {
                    "name": "C2",
                    "midi": 36,
                    "time": 1118.6219776666453,
                    "velocity": 0.4094488188976378,
                    "duration": 0.18221566666670697
                },
                {
                    "name": "C3",
                    "midi": 48,
                    "time": 1118.7130854999787,
                    "velocity": 0.41732283464566927,
                    "duration": 0.27332350000006045
                },
                {
                    "name": "A#1",
                    "midi": 34,
                    "time": 1118.804193333312,
                    "velocity": 0.5196850393700787,
                    "duration": 0.18221566666670697
                },
                {
                    "name": "D3",
                    "midi": 50,
                    "time": 1118.9864089999787,
                    "velocity": 0.41732283464566927,
                    "duration": 0.27332350000006045
                },
                {
                    "name": "C2",
                    "midi": 36,
                    "time": 1118.9864089999787,
                    "velocity": 0.4094488188976378,
                    "duration": 0.18221566666670697
                },
                {
                    "name": "A#1",
                    "midi": 34,
                    "time": 1119.1686246666454,
                    "velocity": 0.5196850393700787,
                    "duration": 0.18221566666670697
                },
                {
                    "name": "E3",
                    "midi": 52,
                    "time": 1119.2597324999788,
                    "velocity": 0.41732283464566927,
                    "duration": 0.27332350000006045
                },
                {
                    "name": "C2",
                    "midi": 36,
                    "time": 1119.3508403333121,
                    "velocity": 0.4094488188976378,
                    "duration": 0.18221566666670697
                },
                {
                    "name": "A#1",
                    "midi": 34,
                    "time": 1119.5330559999788,
                    "velocity": 0.5196850393700787,
                    "duration": 0.18221566666670697
                },
                {
                    "name": "F3",
                    "midi": 53,
                    "time": 1119.5330559999788,
                    "velocity": 0.44881889763779526,
                    "duration": 0.27332350000006045
                },
                {
                    "name": "C2",
                    "midi": 36,
                    "time": 1119.7152716666455,
                    "velocity": 0.4094488188976378,
                    "duration": 0.18221566666670697
                },
                {
                    "name": "G3",
                    "midi": 55,
                    "time": 1119.806379499979,
                    "velocity": 0.4645669291338583,
                    "duration": 0.27332350000006045
                },
                {
                    "name": "A#1",
                    "midi": 34,
                    "time": 1119.8974873333123,
                    "velocity": 0.5196850393700787,
                    "duration": 0.18221566666670697
                },
                {
                    "name": "C2",
                    "midi": 36,
                    "time": 1120.079702999979,
                    "velocity": 0.4094488188976378,
                    "duration": 0.18221566666670697
                },
                {
                    "name": "A3",
                    "midi": 57,
                    "time": 1120.079702999979,
                    "velocity": 0.48031496062992124,
                    "duration": 0.27332350000006045
                },
                {
                    "name": "A#1",
                    "midi": 34,
                    "time": 1120.2619186666457,
                    "velocity": 0.5196850393700787,
                    "duration": 0.18221566666670697
                },
                {
                    "name": "A#3",
                    "midi": 58,
                    "time": 1120.353026499979,
                    "velocity": 0.49606299212598426,
                    "duration": 0.27332350000006045
                },
                {
                    "name": "C2",
                    "midi": 36,
                    "time": 1120.4441343333124,
                    "velocity": 0.4094488188976378,
                    "duration": 0.18221566666670697
                },
                {
                    "name": "A1",
                    "midi": 33,
                    "time": 1120.626349999979,
                    "velocity": 0.5196850393700787,
                    "duration": 1.0932940000002418
                },
                {
                    "name": "C4",
                    "midi": 60,
                    "time": 1120.626349999979,
                    "velocity": 0.5118110236220472,
                    "duration": 0.27332350000006045
                },
                {
                    "name": "A3",
                    "midi": 57,
                    "time": 1120.8996734999791,
                    "velocity": 0.5039370078740157,
                    "duration": 0.27332350000006045
                },
                {
                    "name": "G3",
                    "midi": 55,
                    "time": 1121.1729969999792,
                    "velocity": 0.4881889763779528,
                    "duration": 0.27332350000006045
                },
                {
                    "name": "F3",
                    "midi": 53,
                    "time": 1121.4463204999793,
                    "velocity": 0.47244094488188976,
                    "duration": 0.27332350000006045
                },
                {
                    "name": "D#3",
                    "midi": 51,
                    "time": 1121.7196439999793,
                    "velocity": 0.5196850393700787,
                    "duration": 0.27332350000006045
                },
                {
                    "name": "C2",
                    "midi": 36,
                    "time": 1121.7196439999793,
                    "velocity": 0.5196850393700787,
                    "duration": 0.18221566666670697
                },
                {
                    "name": "D2",
                    "midi": 38,
                    "time": 1121.901859666646,
                    "velocity": 0.4094488188976378,
                    "duration": 0.18221566666670697
                },
                {
                    "name": "D3",
                    "midi": 50,
                    "time": 1121.9929674999794,
                    "velocity": 0.41732283464566927,
                    "duration": 0.27332350000006045
                },
                {
                    "name": "C2",
                    "midi": 36,
                    "time": 1122.0840753333127,
                    "velocity": 0.5196850393700787,
                    "duration": 0.18221566666670697
                },
                {
                    "name": "D2",
                    "midi": 38,
                    "time": 1122.2662909999794,
                    "velocity": 0.4094488188976378,
                    "duration": 0.18221566666670697
                },
                {
                    "name": "E3",
                    "midi": 52,
                    "time": 1122.2662909999794,
                    "velocity": 0.41732283464566927,
                    "duration": 0.27332350000006045
                },
                {
                    "name": "C2",
                    "midi": 36,
                    "time": 1122.4485066666462,
                    "velocity": 0.5196850393700787,
                    "duration": 0.18221566666670697
                },
                {
                    "name": "F#3",
                    "midi": 54,
                    "time": 1122.5396144999795,
                    "velocity": 0.41732283464566927,
                    "duration": 0.27332350000006045
                },
                {
                    "name": "D2",
                    "midi": 38,
                    "time": 1122.6307223333129,
                    "velocity": 0.4094488188976378,
                    "duration": 0.18221566666670697
                },
                {
                    "name": "C2",
                    "midi": 36,
                    "time": 1122.8129379999796,
                    "velocity": 0.5196850393700787,
                    "duration": 0.18221566666670697
                },
                {
                    "name": "G3",
                    "midi": 55,
                    "time": 1122.8129379999796,
                    "velocity": 0.44881889763779526,
                    "duration": 0.27332350000006045
                },
                {
                    "name": "D2",
                    "midi": 38,
                    "time": 1122.9951536666463,
                    "velocity": 0.4094488188976378,
                    "duration": 0.18221566666670697
                },
                {
                    "name": "A3",
                    "midi": 57,
                    "time": 1123.0862614999796,
                    "velocity": 0.4645669291338583,
                    "duration": 0.27332350000006045
                },
                {
                    "name": "C2",
                    "midi": 36,
                    "time": 1123.1750916374797,
                    "velocity": 0.5196850393700787,
                    "duration": 0.18221566666670697
                },
                {
                    "name": "D2",
                    "midi": 38,
                    "time": 1123.3595849999797,
                    "velocity": 0.4094488188976378,
                    "duration": 0.18221566666670697
                },
                {
                    "name": "A#3",
                    "midi": 58,
                    "time": 1123.3595849999797,
                    "velocity": 0.48031496062992124,
                    "duration": 0.27332350000006045
                },
                {
                    "name": "C2",
                    "midi": 36,
                    "time": 1123.5418006666464,
                    "velocity": 0.5196850393700787,
                    "duration": 0.18221566666670697
                },
                {
                    "name": "C4",
                    "midi": 60,
                    "time": 1123.6329084999797,
                    "velocity": 0.49606299212598426,
                    "duration": 0.27332350000006045
                },
                {
                    "name": "D2",
                    "midi": 38,
                    "time": 1123.724016333313,
                    "velocity": 0.4094488188976378,
                    "duration": 0.18221566666670697
                },
                {
                    "name": "A#1",
                    "midi": 34,
                    "time": 1123.9062319999798,
                    "velocity": 0.5196850393700787,
                    "duration": 1.0932940000002418
                },
                {
                    "name": "D4",
                    "midi": 62,
                    "time": 1123.9062319999798,
                    "velocity": 0.5118110236220472,
                    "duration": 0.27332350000006045
                },
                {
                    "name": "A#3",
                    "midi": 58,
                    "time": 1124.1795554999799,
                    "velocity": 0.5039370078740157,
                    "duration": 0.27332350000006045
                },
                {
                    "name": "A3",
                    "midi": 57,
                    "time": 1124.45287899998,
                    "velocity": 0.4881889763779528,
                    "duration": 0.27332350000006045
                },
                {
                    "name": "G3",
                    "midi": 55,
                    "time": 1124.72620249998,
                    "velocity": 0.47244094488188976,
                    "duration": 0.27332350000006045
                },
                {
                    "name": "F3",
                    "midi": 53,
                    "time": 1124.99952599998,
                    "velocity": 0.5196850393700787,
                    "duration": 0.27332350000006045
                },
                {
                    "name": "D2",
                    "midi": 38,
                    "time": 1124.99952599998,
                    "velocity": 0.5196850393700787,
                    "duration": 0.18221566666670697
                },
                {
                    "name": "D#2",
                    "midi": 39,
                    "time": 1125.1817416666468,
                    "velocity": 0.4094488188976378,
                    "duration": 0.18221566666670697
                },
                {
                    "name": "D#3",
                    "midi": 51,
                    "time": 1125.27284949998,
                    "velocity": 0.41732283464566927,
                    "duration": 0.27332350000006045
                },
                {
                    "name": "D2",
                    "midi": 38,
                    "time": 1125.3639573333135,
                    "velocity": 0.5196850393700787,
                    "duration": 0.18221566666670697
                },
                {
                    "name": "F3",
                    "midi": 53,
                    "time": 1125.5461729999802,
                    "velocity": 0.41732283464566927,
                    "duration": 0.27332350000006045
                },
                {
                    "name": "D#2",
                    "midi": 39,
                    "time": 1125.5461729999802,
                    "velocity": 0.4094488188976378,
                    "duration": 0.18221566666670697
                },
                {
                    "name": "D2",
                    "midi": 38,
                    "time": 1125.7283886666469,
                    "velocity": 0.5196850393700787,
                    "duration": 0.18221566666670697
                },
                {
                    "name": "G3",
                    "midi": 55,
                    "time": 1125.8194964999802,
                    "velocity": 0.41732283464566927,
                    "duration": 0.27332350000006045
                },
                {
                    "name": "D#2",
                    "midi": 39,
                    "time": 1125.9106043333136,
                    "velocity": 0.4094488188976378,
                    "duration": 0.18221566666670697
                },
                {
                    "name": "A3",
                    "midi": 57,
                    "time": 1126.0928199999803,
                    "velocity": 0.44881889763779526,
                    "duration": 0.27332350000006045
                },
                {
                    "name": "D2",
                    "midi": 38,
                    "time": 1126.0928199999803,
                    "velocity": 0.5196850393700787,
                    "duration": 0.18221566666670697
                },
                {
                    "name": "D#2",
                    "midi": 39,
                    "time": 1126.275035666647,
                    "velocity": 0.4094488188976378,
                    "duration": 0.18221566666670697
                },
                {
                    "name": "A#3",
                    "midi": 58,
                    "time": 1126.3661434999804,
                    "velocity": 0.4645669291338583,
                    "duration": 0.27332350000006045
                },
                {
                    "name": "D2",
                    "midi": 38,
                    "time": 1126.4572513333137,
                    "velocity": 0.5196850393700787,
                    "duration": 0.18221566666670697
                },
                {
                    "name": "C4",
                    "midi": 60,
                    "time": 1126.6394669999804,
                    "velocity": 0.48031496062992124,
                    "duration": 0.27332350000006045
                },
                {
                    "name": "D#2",
                    "midi": 39,
                    "time": 1126.6394669999804,
                    "velocity": 0.4094488188976378,
                    "duration": 0.18221566666670697
                },
                {
                    "name": "D2",
                    "midi": 38,
                    "time": 1126.8216826666471,
                    "velocity": 0.5196850393700787,
                    "duration": 0.18221566666670697
                },
                {
                    "name": "D4",
                    "midi": 62,
                    "time": 1126.9127904999805,
                    "velocity": 0.49606299212598426,
                    "duration": 0.27332350000006045
                },
                {
                    "name": "D#2",
                    "midi": 39,
                    "time": 1127.0038983333138,
                    "velocity": 0.4094488188976378,
                    "duration": 0.18221566666670697
                },
                {
                    "name": "C2",
                    "midi": 36,
                    "time": 1127.1861139999805,
                    "velocity": 0.5196850393700787,
                    "duration": 1.0932940000002418
                },
                {
                    "name": "D#4",
                    "midi": 63,
                    "time": 1127.1861139999805,
                    "velocity": 0.5118110236220472,
                    "duration": 0.27332350000006045
                },
                {
                    "name": "C4",
                    "midi": 60,
                    "time": 1127.4594374999806,
                    "velocity": 0.5039370078740157,
                    "duration": 0.27332350000006045
                },
                {
                    "name": "A#3",
                    "midi": 58,
                    "time": 1127.7327609999807,
                    "velocity": 0.4881889763779528,
                    "duration": 0.27332350000006045
                },
                {
                    "name": "A3",
                    "midi": 57,
                    "time": 1128.0060844999807,
                    "velocity": 0.47244094488188976,
                    "duration": 0.27332350000006045
                },
                {
                    "name": "D#2",
                    "midi": 39,
                    "time": 1128.2794079999808,
                    "velocity": 0.5196850393700787,
                    "duration": 0.18221566666670697
                },
                {
                    "name": "F2",
                    "midi": 41,
                    "time": 1128.4616236666475,
                    "velocity": 0.47244094488188976,
                    "duration": 0.18221566666670697
                },
                {
                    "name": "D#2",
                    "midi": 39,
                    "time": 1128.6438393333142,
                    "velocity": 0.5196850393700787,
                    "duration": 0.18221566666670697
                },
                {
                    "name": "F2",
                    "midi": 41,
                    "time": 1128.826054999981,
                    "velocity": 0.4881889763779528,
                    "duration": 0.13666175000003022
                },
                {
                    "name": "D#2",
                    "midi": 39,
                    "time": 1128.962716749981,
                    "velocity": 0.4330708661417323,
                    "duration": 0.13666175000003022
                },
                {
                    "name": "D2",
                    "midi": 38,
                    "time": 1129.099378499981,
                    "velocity": 0.4330708661417323,
                    "duration": 0.13666175000003022
                },
                {
                    "name": "D#2",
                    "midi": 39,
                    "time": 1129.236040249981,
                    "velocity": 0.4330708661417323,
                    "duration": 0.13666175000003022
                },
                {
                    "name": "D2",
                    "midi": 38,
                    "time": 1129.372701999981,
                    "velocity": 0.49606299212598426,
                    "duration": 1.0932940000000144
                },
                {
                    "name": "E2",
                    "midi": 40,
                    "time": 1130.465995999981,
                    "velocity": 0.49606299212598426,
                    "duration": 0.5466469999998935
                },
                {
                    "name": "E3",
                    "midi": 52,
                    "time": 1131.012642999981,
                    "velocity": 0.44881889763779526,
                    "duration": 0.5466469999998935
                },
                {
                    "name": "F3",
                    "midi": 53,
                    "time": 1131.5592899999808,
                    "velocity": 0.29133858267716534,
                    "duration": 3.2798820000007254
                },
                {
                    "name": "D#4",
                    "midi": 63,
                    "time": 1131.8326134999809,
                    "velocity": 0.3858267716535433,
                    "duration": 0.27332350000006045
                },
                {
                    "name": "D4",
                    "midi": 62,
                    "time": 1132.105936999981,
                    "velocity": 0.3779527559055118,
                    "duration": 0.27332350000006045
                },
                {
                    "name": "C4",
                    "midi": 60,
                    "time": 1132.379260499981,
                    "velocity": 0.3779527559055118,
                    "duration": 0.27332350000006045
                },
                {
                    "name": "B3",
                    "midi": 59,
                    "time": 1132.652583999981,
                    "velocity": 0.3779527559055118,
                    "duration": 0.27332350000006045
                },
                {
                    "name": "C4",
                    "midi": 60,
                    "time": 1132.9259074999811,
                    "velocity": 0.4094488188976378,
                    "duration": 0.27332350000006045
                },
                {
                    "name": "D4",
                    "midi": 62,
                    "time": 1133.1992309999812,
                    "velocity": 0.3858267716535433,
                    "duration": 0.27332350000006045
                },
                {
                    "name": "D#4",
                    "midi": 63,
                    "time": 1133.4725544999812,
                    "velocity": 0.36220472440944884,
                    "duration": 0.27332350000006045
                },
                {
                    "name": "E4",
                    "midi": 64,
                    "time": 1133.7458779999813,
                    "velocity": 0.41732283464566927,
                    "duration": 0.27332350000006045
                },
                {
                    "name": "F4",
                    "midi": 65,
                    "time": 1134.0192014999814,
                    "velocity": 0.33858267716535434,
                    "duration": 0.27332350000006045
                },
                {
                    "name": "G4",
                    "midi": 67,
                    "time": 1134.2925249999814,
                    "velocity": 0.3858267716535433,
                    "duration": 0.27332350000006045
                },
                {
                    "name": "F4",
                    "midi": 65,
                    "time": 1134.5658484999815,
                    "velocity": 0.31496062992125984,
                    "duration": 0.27332350000006045
                },
                {
                    "name": "C4",
                    "midi": 60,
                    "time": 1134.8391719999815,
                    "velocity": 0.3543307086614173,
                    "duration": 0.27332350000006045
                },
                {
                    "name": "F3",
                    "midi": 53,
                    "time": 1134.8391719999815,
                    "velocity": 0.29133858267716534,
                    "duration": 3.279882000000498
                },
                {
                    "name": "D4",
                    "midi": 62,
                    "time": 1135.1124954999816,
                    "velocity": 0.3228346456692913,
                    "duration": 0.27332350000006045
                },
                {
                    "name": "D#4",
                    "midi": 63,
                    "time": 1135.3858189999817,
                    "velocity": 0.3543307086614173,
                    "duration": 0.27332350000006045
                },
                {
                    "name": "D4",
                    "midi": 62,
                    "time": 1135.6591424999817,
                    "velocity": 0.30708661417322836,
                    "duration": 0.27332350000006045
                },
                {
                    "name": "F4",
                    "midi": 65,
                    "time": 1137.0257599999818,
                    "velocity": 0.3543307086614173,
                    "duration": 0.27332350000006045
                },
                {
                    "name": "D#4",
                    "midi": 63,
                    "time": 1137.2990834999819,
                    "velocity": 0.3228346456692913,
                    "duration": 0.27332350000006045
                },
                {
                    "name": "D4",
                    "midi": 62,
                    "time": 1137.572406999982,
                    "velocity": 0.3543307086614173,
                    "duration": 0.27332350000006045
                },
                {
                    "name": "D#4",
                    "midi": 63,
                    "time": 1137.845730499982,
                    "velocity": 0.3228346456692913,
                    "duration": 0.27332350000006045
                },
                {
                    "name": "C4",
                    "midi": 60,
                    "time": 1138.119053999982,
                    "velocity": 0.3779527559055118,
                    "duration": 0.27332350000006045
                },
                {
                    "name": "F3",
                    "midi": 53,
                    "time": 1138.119053999982,
                    "velocity": 0.29133858267716534,
                    "duration": 3.2798820000007254
                },
                {
                    "name": "D4",
                    "midi": 62,
                    "time": 1138.392377499982,
                    "velocity": 0.3228346456692913,
                    "duration": 0.27332350000006045
                },
                {
                    "name": "C4",
                    "midi": 60,
                    "time": 1138.6657009999822,
                    "velocity": 0.3779527559055118,
                    "duration": 0.27332350000006045
                },
                {
                    "name": "A#3",
                    "midi": 58,
                    "time": 1138.9390244999822,
                    "velocity": 0.3228346456692913,
                    "duration": 0.27332350000006045
                },
                {
                    "name": "A3",
                    "midi": 57,
                    "time": 1139.2123479999823,
                    "velocity": 0.3779527559055118,
                    "duration": 0.27332350000006045
                },
                {
                    "name": "A#3",
                    "midi": 58,
                    "time": 1139.4856714999823,
                    "velocity": 0.4094488188976378,
                    "duration": 0.27332350000006045
                },
                {
                    "name": "C4",
                    "midi": 60,
                    "time": 1139.7589949999824,
                    "velocity": 0.3858267716535433,
                    "duration": 0.27332350000006045
                },
                {
                    "name": "D4",
                    "midi": 62,
                    "time": 1140.0323184999825,
                    "velocity": 0.36220472440944884,
                    "duration": 0.27332350000006045
                },
                {
                    "name": "D#4",
                    "midi": 63,
                    "time": 1140.3056419999825,
                    "velocity": 0.41732283464566927,
                    "duration": 0.27332350000006045
                },
                {
                    "name": "E4",
                    "midi": 64,
                    "time": 1140.5789654999826,
                    "velocity": 0.33858267716535434,
                    "duration": 0.27332350000006045
                },
                {
                    "name": "F4",
                    "midi": 65,
                    "time": 1140.8522889999826,
                    "velocity": 0.3858267716535433,
                    "duration": 0.27332350000006045
                },
                {
                    "name": "D#4",
                    "midi": 63,
                    "time": 1141.1256124999827,
                    "velocity": 0.31496062992125984,
                    "duration": 0.27332350000006045
                },
                {
                    "name": "F3",
                    "midi": 53,
                    "time": 1141.3989359999828,
                    "velocity": 0.29133858267716534,
                    "duration": 2.733235000000377
                },
                {
                    "name": "A#3",
                    "midi": 58,
                    "time": 1141.3989359999828,
                    "velocity": 0.3543307086614173,
                    "duration": 0.27332350000006045
                },
                {
                    "name": "C4",
                    "midi": 60,
                    "time": 1141.6722594999828,
                    "velocity": 0.3228346456692913,
                    "duration": 0.27332350000006045
                },
                {
                    "name": "D4",
                    "midi": 62,
                    "time": 1141.945582999983,
                    "velocity": 0.3543307086614173,
                    "duration": 0.27332350000006045
                },
                {
                    "name": "D#4",
                    "midi": 63,
                    "time": 1142.218906499983,
                    "velocity": 0.30708661417322836,
                    "duration": 0.27332350000006045
                },
                {
                    "name": "D#4",
                    "midi": 63,
                    "time": 1143.585523999983,
                    "velocity": 0.3543307086614173,
                    "duration": 0.27332350000006045
                },
                {
                    "name": "D4",
                    "midi": 62,
                    "time": 1143.858847499983,
                    "velocity": 0.3228346456692913,
                    "duration": 0.27332350000006045
                },
                {
                    "name": "C4",
                    "midi": 60,
                    "time": 1144.1321709999831,
                    "velocity": 0.3543307086614173,
                    "duration": 0.27332350000006045
                },
                {
                    "name": "F#3",
                    "midi": 54,
                    "time": 1144.1321709999831,
                    "velocity": 0.29133858267716534,
                    "duration": 0.5466470000001209
                },
                {
                    "name": "A#3",
                    "midi": 58,
                    "time": 1144.4054944999832,
                    "velocity": 0.3228346456692913,
                    "duration": 0.27332350000006045
                },
                {
                    "name": "G3",
                    "midi": 55,
                    "time": 1144.6788179999833,
                    "velocity": 0.6062992125984252,
                    "duration": 0.27332350000006045
                },
                {
                    "name": "G2",
                    "midi": 43,
                    "time": 1144.6788179999833,
                    "velocity": 0.5118110236220472,
                    "duration": 0.27332350000006045
                },
                {
                    "name": "F2",
                    "midi": 41,
                    "time": 1145.7721119999833,
                    "velocity": 0.5669291338582677,
                    "duration": 1.639940999999908
                },
                {
                    "name": "F3",
                    "midi": 53,
                    "time": 1145.7721119999833,
                    "velocity": 0.6692913385826772,
                    "duration": 1.639940999999908
                },
                {
                    "name": "F3",
                    "midi": 53,
                    "time": 1147.4120529999832,
                    "velocity": 0.5669291338582677,
                    "duration": 0.5466469999998935
                },
                {
                    "name": "F2",
                    "midi": 41,
                    "time": 1147.4120529999832,
                    "velocity": 0.48031496062992124,
                    "duration": 0.5466469999998935
                },
                {
                    "name": "F3",
                    "midi": 53,
                    "time": 1147.958699999983,
                    "velocity": 0.5826771653543307,
                    "duration": 0.5466469999998935
                },
                {
                    "name": "F2",
                    "midi": 41,
                    "time": 1147.958699999983,
                    "velocity": 0.4881889763779528,
                    "duration": 0.5466469999998935
                },
                {
                    "name": "E2",
                    "midi": 40,
                    "time": 1148.505346999983,
                    "velocity": 0.4251968503937008,
                    "duration": 0.4099852500000907
                },
                {
                    "name": "E3",
                    "midi": 52,
                    "time": 1148.505346999983,
                    "velocity": 0.5039370078740157,
                    "duration": 0.4099852500000907
                },
                {
                    "name": "C#3",
                    "midi": 49,
                    "time": 1149.051993999983,
                    "velocity": 0.5196850393700787,
                    "duration": 0.5466469999998935
                },
                {
                    "name": "C#2",
                    "midi": 37,
                    "time": 1149.051993999983,
                    "velocity": 0.4409448818897638,
                    "duration": 0.5466469999998935
                },
                {
                    "name": "C2",
                    "midi": 36,
                    "time": 1149.598640999983,
                    "velocity": 0.3937007874015748,
                    "duration": 0.4099852500000907
                },
                {
                    "name": "C3",
                    "midi": 48,
                    "time": 1149.598640999983,
                    "velocity": 0.4645669291338583,
                    "duration": 0.4099852500000907
                },
                {
                    "name": "B1",
                    "midi": 35,
                    "time": 1150.145287999983,
                    "velocity": 0.4409448818897638,
                    "duration": 0.5466469999998935
                },
                {
                    "name": "B2",
                    "midi": 47,
                    "time": 1150.145287999983,
                    "velocity": 0.5196850393700787,
                    "duration": 0.5466469999998935
                },
                {
                    "name": "C2",
                    "midi": 36,
                    "time": 1150.691934999983,
                    "velocity": 0.3700787401574803,
                    "duration": 0.4099852500000907
                },
                {
                    "name": "C3",
                    "midi": 48,
                    "time": 1150.691934999983,
                    "velocity": 0.4409448818897638,
                    "duration": 0.4099852500000907
                },
                {
                    "name": "F3",
                    "midi": 53,
                    "time": 1151.2385819999831,
                    "velocity": 0.6062992125984252,
                    "duration": 0.27332350000006045
                },
                {
                    "name": "F2",
                    "midi": 41,
                    "time": 1151.2385819999831,
                    "velocity": 0.5118110236220472,
                    "duration": 0.27332350000006045
                },
                {
                    "name": "D#2",
                    "midi": 39,
                    "time": 1152.3318759999831,
                    "velocity": 0.5669291338582677,
                    "duration": 1.639940999999908
                },
                {
                    "name": "D#3",
                    "midi": 51,
                    "time": 1152.3318759999831,
                    "velocity": 0.6692913385826772,
                    "duration": 1.639940999999908
                },
                {
                    "name": "D#3",
                    "midi": 51,
                    "time": 1153.971816999983,
                    "velocity": 0.5669291338582677,
                    "duration": 0.5466469999998935
                },
                {
                    "name": "D#2",
                    "midi": 39,
                    "time": 1153.971816999983,
                    "velocity": 0.48031496062992124,
                    "duration": 0.5466469999998935
                },
                {
                    "name": "D#3",
                    "midi": 51,
                    "time": 1154.518463999983,
                    "velocity": 0.5826771653543307,
                    "duration": 0.5466469999998935
                },
                {
                    "name": "D#2",
                    "midi": 39,
                    "time": 1154.518463999983,
                    "velocity": 0.4881889763779528,
                    "duration": 0.5466469999998935
                },
                {
                    "name": "D3",
                    "midi": 50,
                    "time": 1155.0651109999828,
                    "velocity": 0.5039370078740157,
                    "duration": 0.4099852500000907
                },
                {
                    "name": "D2",
                    "midi": 38,
                    "time": 1155.0651109999828,
                    "velocity": 0.4251968503937008,
                    "duration": 0.4099852500000907
                },
                {
                    "name": "C3",
                    "midi": 48,
                    "time": 1155.611757999983,
                    "velocity": 0.5196850393700787,
                    "duration": 0.5466469999998935
                },
                {
                    "name": "C2",
                    "midi": 36,
                    "time": 1155.611757999983,
                    "velocity": 0.4409448818897638,
                    "duration": 0.5466469999998935
                },
                {
                    "name": "B2",
                    "midi": 47,
                    "time": 1156.1584049999828,
                    "velocity": 0.4645669291338583,
                    "duration": 0.4099852500000907
                },
                {
                    "name": "B1",
                    "midi": 35,
                    "time": 1156.1584049999828,
                    "velocity": 0.3937007874015748,
                    "duration": 0.4099852500000907
                },
                {
                    "name": "F3",
                    "midi": 53,
                    "time": 1159.984933999983,
                    "velocity": 0.5196850393700787,
                    "duration": 0.5466469999998935
                },
                {
                    "name": "F2",
                    "midi": 41,
                    "time": 1159.984933999983,
                    "velocity": 0.4409448818897638,
                    "duration": 0.5466469999998935
                },
                {
                    "name": "D#2",
                    "midi": 39,
                    "time": 1160.531580999983,
                    "velocity": 0.4015748031496063,
                    "duration": 0.4099852500000907
                },
                {
                    "name": "D#3",
                    "midi": 51,
                    "time": 1160.531580999983,
                    "velocity": 0.47244094488188976,
                    "duration": 0.4099852500000907
                },
                {
                    "name": "D#3",
                    "midi": 51,
                    "time": 1161.078227999983,
                    "velocity": 0.5196850393700787,
                    "duration": 0.5466469999998935
                },
                {
                    "name": "D#2",
                    "midi": 39,
                    "time": 1161.078227999983,
                    "velocity": 0.4409448818897638,
                    "duration": 0.5466469999998935
                },
                {
                    "name": "D2",
                    "midi": 38,
                    "time": 1161.624874999983,
                    "velocity": 0.4015748031496063,
                    "duration": 0.4099852500000907
                },
                {
                    "name": "D3",
                    "midi": 50,
                    "time": 1161.624874999983,
                    "velocity": 0.47244094488188976,
                    "duration": 0.4099852500000907
                },
                {
                    "name": "C2",
                    "midi": 36,
                    "time": 1162.171521999983,
                    "velocity": 0.4409448818897638,
                    "duration": 0.5466469999998935
                },
                {
                    "name": "C3",
                    "midi": 48,
                    "time": 1162.171521999983,
                    "velocity": 0.5196850393700787,
                    "duration": 0.5466469999998935
                },
                {
                    "name": "A#1",
                    "midi": 34,
                    "time": 1162.718168999983,
                    "velocity": 0.4015748031496063,
                    "duration": 0.4099852500000907
                },
                {
                    "name": "A#2",
                    "midi": 46,
                    "time": 1162.718168999983,
                    "velocity": 0.48031496062992124,
                    "duration": 0.4099852500000907
                },
                {
                    "name": "F#2",
                    "midi": 42,
                    "time": 1173.104461999983,
                    "velocity": 0.5039370078740157,
                    "duration": 0.5466469999998935
                },
                {
                    "name": "F#3",
                    "midi": 54,
                    "time": 1173.104461999983,
                    "velocity": 0.5984251968503937,
                    "duration": 0.5466469999998935
                },
                {
                    "name": "G3",
                    "midi": 55,
                    "time": 1173.6511089999829,
                    "velocity": 0.5196850393700787,
                    "duration": 0.27332350000006045
                },
                {
                    "name": "G2",
                    "midi": 43,
                    "time": 1173.6511089999829,
                    "velocity": 0.4409448818897638,
                    "duration": 0.27332350000006045
                },
                {
                    "name": "F2",
                    "midi": 41,
                    "time": 1174.197755999983,
                    "velocity": 0.48031496062992124,
                    "duration": 0.5466469999998935
                },
                {
                    "name": "F3",
                    "midi": 53,
                    "time": 1174.197755999983,
                    "velocity": 0.5669291338582677,
                    "duration": 0.5466469999998935
                },
                {
                    "name": "E3",
                    "midi": 52,
                    "time": 1174.7444029999829,
                    "velocity": 0.5196850393700787,
                    "duration": 0.27332350000006045
                },
                {
                    "name": "E2",
                    "midi": 40,
                    "time": 1174.7444029999829,
                    "velocity": 0.4409448818897638,
                    "duration": 0.27332350000006045
                },
                {
                    "name": "G3",
                    "midi": 55,
                    "time": 1175.291049999983,
                    "velocity": 0.5669291338582677,
                    "duration": 0.5466469999998935
                },
                {
                    "name": "G2",
                    "midi": 43,
                    "time": 1175.291049999983,
                    "velocity": 0.48031496062992124,
                    "duration": 0.5466469999998935
                },
                {
                    "name": "A3",
                    "midi": 57,
                    "time": 1175.8376969999829,
                    "velocity": 0.5196850393700787,
                    "duration": 0.27332350000006045
                },
                {
                    "name": "A2",
                    "midi": 45,
                    "time": 1175.8376969999829,
                    "velocity": 0.4409448818897638,
                    "duration": 0.27332350000006045
                },
                {
                    "name": "G2",
                    "midi": 43,
                    "time": 1176.384343999983,
                    "velocity": 0.4881889763779528,
                    "duration": 0.5466469999998935
                },
                {
                    "name": "G3",
                    "midi": 55,
                    "time": 1176.384343999983,
                    "velocity": 0.5826771653543307,
                    "duration": 0.5466469999998935
                },
                {
                    "name": "F#2",
                    "midi": 42,
                    "time": 1176.930990999983,
                    "velocity": 0.4409448818897638,
                    "duration": 0.27332350000006045
                },
                {
                    "name": "F#3",
                    "midi": 54,
                    "time": 1176.930990999983,
                    "velocity": 0.5196850393700787,
                    "duration": 0.27332350000006045
                },
                {
                    "name": "A2",
                    "midi": 45,
                    "time": 1177.477637999983,
                    "velocity": 0.5039370078740157,
                    "duration": 0.5466469999998935
                },
                {
                    "name": "A3",
                    "midi": 57,
                    "time": 1177.477637999983,
                    "velocity": 0.5984251968503937,
                    "duration": 0.5466469999998935
                },
                {
                    "name": "A#3",
                    "midi": 58,
                    "time": 1178.024284999983,
                    "velocity": 0.5196850393700787,
                    "duration": 0.27332350000006045
                },
                {
                    "name": "A#2",
                    "midi": 46,
                    "time": 1178.024284999983,
                    "velocity": 0.4409448818897638,
                    "duration": 0.27332350000006045
                },
                {
                    "name": "F#2",
                    "midi": 42,
                    "time": 1178.570931999983,
                    "velocity": 0.4881889763779528,
                    "duration": 0.5466469999998935
                },
                {
                    "name": "F#3",
                    "midi": 54,
                    "time": 1178.570931999983,
                    "velocity": 0.5826771653543307,
                    "duration": 0.5466469999998935
                },
                {
                    "name": "G2",
                    "midi": 43,
                    "time": 1179.117578999983,
                    "velocity": 0.4409448818897638,
                    "duration": 0.27332350000006045
                },
                {
                    "name": "G3",
                    "midi": 55,
                    "time": 1179.117578999983,
                    "velocity": 0.5196850393700787,
                    "duration": 0.27332350000006045
                },
                {
                    "name": "D#2",
                    "midi": 39,
                    "time": 1179.664225999983,
                    "velocity": 0.5118110236220472,
                    "duration": 0.5466469999998935
                },
                {
                    "name": "D#3",
                    "midi": 51,
                    "time": 1179.664225999983,
                    "velocity": 0.6062992125984252,
                    "duration": 0.5466469999998935
                },
                {
                    "name": "E2",
                    "midi": 40,
                    "time": 1180.210872999983,
                    "velocity": 0.4409448818897638,
                    "duration": 0.27332350000006045
                },
                {
                    "name": "E3",
                    "midi": 52,
                    "time": 1180.210872999983,
                    "velocity": 0.5196850393700787,
                    "duration": 0.27332350000006045
                },
                {
                    "name": "A#3",
                    "midi": 58,
                    "time": 1180.757519999983,
                    "velocity": 0.4409448818897638,
                    "duration": 0.5466469999998935
                },
                {
                    "name": "C#4",
                    "midi": 61,
                    "time": 1180.757519999983,
                    "velocity": 0.5196850393700787,
                    "duration": 0.5466469999998935
                },
                {
                    "name": "A#2",
                    "midi": 46,
                    "time": 1181.8508139999828,
                    "velocity": 0.5433070866141733,
                    "duration": 2.1865880000004836
                },
                {
                    "name": "G2",
                    "midi": 43,
                    "time": 1181.8508139999828,
                    "velocity": 0.5118110236220472,
                    "duration": 0.18221566666670697
                },
                {
                    "name": "A2",
                    "midi": 45,
                    "time": 1182.0330296666496,
                    "velocity": 0.44881889763779526,
                    "duration": 0.18221566666670697
                },
                {
                    "name": "G2",
                    "midi": 43,
                    "time": 1182.2152453333163,
                    "velocity": 0.5118110236220472,
                    "duration": 0.18221566666670697
                },
                {
                    "name": "A2",
                    "midi": 45,
                    "time": 1182.397460999983,
                    "velocity": 0.4566929133858268,
                    "duration": 0.18221566666670697
                },
                {
                    "name": "G2",
                    "midi": 43,
                    "time": 1182.5796766666497,
                    "velocity": 0.5196850393700787,
                    "duration": 0.18221566666670697
                },
                {
                    "name": "A2",
                    "midi": 45,
                    "time": 1182.7618923333164,
                    "velocity": 0.4566929133858268,
                    "duration": 0.18221566666670697
                },
                {
                    "name": "G2",
                    "midi": 43,
                    "time": 1182.944107999983,
                    "velocity": 0.5196850393700787,
                    "duration": 0.18221566666670697
                },
                {
                    "name": "A2",
                    "midi": 45,
                    "time": 1183.1263236666498,
                    "velocity": 0.48031496062992124,
                    "duration": 0.18221566666670697
                },
                {
                    "name": "G2",
                    "midi": 43,
                    "time": 1183.3085393333165,
                    "velocity": 0.5275590551181102,
                    "duration": 0.18221566666670697
                },
                {
                    "name": "A2",
                    "midi": 45,
                    "time": 1183.4907549999832,
                    "velocity": 0.4566929133858268,
                    "duration": 0.13666175000003022
                },
                {
                    "name": "G2",
                    "midi": 43,
                    "time": 1183.6274167499832,
                    "velocity": 0.5433070866141733,
                    "duration": 0.13666175000003022
                },
                {
                    "name": "F2",
                    "midi": 41,
                    "time": 1183.7640784999833,
                    "velocity": 0.4881889763779528,
                    "duration": 0.13666175000003022
                },
                {
                    "name": "G2",
                    "midi": 43,
                    "time": 1183.9007402499833,
                    "velocity": 0.5196850393700787,
                    "duration": 0.13666175000003022
                },
                {
                    "name": "E4",
                    "midi": 64,
                    "time": 1188.9572249999833,
                    "velocity": 0.4881889763779528,
                    "duration": 0.5466469999998935
                },
                {
                    "name": "F4",
                    "midi": 65,
                    "time": 1189.5038719999832,
                    "velocity": 0.5748031496062992,
                    "duration": 0.5466469999998935
                },
                {
                    "name": "C#4",
                    "midi": 61,
                    "time": 1192.237106999983,
                    "velocity": 0.4881889763779528,
                    "duration": 0.5466469999998935
                },
                {
                    "name": "D4",
                    "midi": 62,
                    "time": 1192.783753999983,
                    "velocity": 0.5748031496062992,
                    "duration": 0.5466469999998935
                },
                {
                    "name": "A#4",
                    "midi": 70,
                    "time": 1195.516988999983,
                    "velocity": 0.5511811023622047,
                    "duration": 0.3279882000001635
                },
                {
                    "name": "A4",
                    "midi": 69,
                    "time": 1195.790312499983,
                    "velocity": 0.5118110236220472,
                    "duration": 0.3279882000001635
                },
                {
                    "name": "G4",
                    "midi": 67,
                    "time": 1196.063635999983,
                    "velocity": 0.5511811023622047,
                    "duration": 0.3279882000001635
                },
                {
                    "name": "A4",
                    "midi": 69,
                    "time": 1196.336959499983,
                    "velocity": 0.48031496062992124,
                    "duration": 0.3279882000001635
                },
                {
                    "name": "G4",
                    "midi": 67,
                    "time": 1196.6102829999832,
                    "velocity": 0.5275590551181102,
                    "duration": 0.3279882000001635
                },
                {
                    "name": "F4",
                    "midi": 65,
                    "time": 1196.8836064999832,
                    "velocity": 0.48031496062992124,
                    "duration": 0.3279882000001635
                },
                {
                    "name": "E4",
                    "midi": 64,
                    "time": 1197.1569299999833,
                    "velocity": 0.5354330708661418,
                    "duration": 0.3279882000001635
                },
                {
                    "name": "F4",
                    "midi": 65,
                    "time": 1197.4302534999833,
                    "velocity": 0.4881889763779528,
                    "duration": 0.3279882000001635
                },
                {
                    "name": "E4",
                    "midi": 64,
                    "time": 1197.7035769999834,
                    "velocity": 0.4881889763779528,
                    "duration": 0.3279882000001635
                },
                {
                    "name": "D4",
                    "midi": 62,
                    "time": 1197.9769004999835,
                    "velocity": 0.4881889763779528,
                    "duration": 0.3279882000001635
                },
                {
                    "name": "C4",
                    "midi": 60,
                    "time": 1198.2502239999835,
                    "velocity": 0.5196850393700787,
                    "duration": 0.3279882000001635
                },
                {
                    "name": "D4",
                    "midi": 62,
                    "time": 1198.5235474999836,
                    "velocity": 0.4645669291338583,
                    "duration": 0.3279882000001635
                },
                {
                    "name": "E4",
                    "midi": 64,
                    "time": 1198.7968709999836,
                    "velocity": 0.49606299212598426,
                    "duration": 0.3279882000001635
                },
                {
                    "name": "F4",
                    "midi": 65,
                    "time": 1199.0701944999837,
                    "velocity": 0.4645669291338583,
                    "duration": 0.3279882000001635
                },
                {
                    "name": "F#4",
                    "midi": 66,
                    "time": 1199.3435179999838,
                    "velocity": 0.5196850393700787,
                    "duration": 0.3279882000001635
                },
                {
                    "name": "G4",
                    "midi": 67,
                    "time": 1199.6168414999838,
                    "velocity": 0.4645669291338583,
                    "duration": 0.3279882000001635
                },
                {
                    "name": "A4",
                    "midi": 69,
                    "time": 1199.8901649999839,
                    "velocity": 0.5118110236220472,
                    "duration": 0.3279882000001635
                },
                {
                    "name": "G4",
                    "midi": 67,
                    "time": 1200.163488499984,
                    "velocity": 0.47244094488188976,
                    "duration": 0.27332350000006045
                },
                {
                    "name": "A#4",
                    "midi": 70,
                    "time": 1200.436811999984,
                    "velocity": 0.6692913385826772,
                    "duration": 0.5466469999998935
                },
                {
                    "name": "A4",
                    "midi": 69,
                    "time": 1201.5301059999838,
                    "velocity": 0.7007874015748031,
                    "duration": 1.639940999999908
                },
                {
                    "name": "A4",
                    "midi": 69,
                    "time": 1203.1700469999837,
                    "velocity": 0.6456692913385826,
                    "duration": 0.5466469999998935
                },
                {
                    "name": "F#4",
                    "midi": 66,
                    "time": 1203.7166939999836,
                    "velocity": 0.5354330708661418,
                    "duration": 0.3279882000001635
                },
                {
                    "name": "G4",
                    "midi": 67,
                    "time": 1203.9900174999837,
                    "velocity": 0.4881889763779528,
                    "duration": 0.3279882000001635
                },
                {
                    "name": "F#4",
                    "midi": 66,
                    "time": 1204.2633409999837,
                    "velocity": 0.4881889763779528,
                    "duration": 0.3279882000001635
                },
                {
                    "name": "E4",
                    "midi": 64,
                    "time": 1204.5366644999838,
                    "velocity": 0.4881889763779528,
                    "duration": 0.3279882000001635
                },
                {
                    "name": "D4",
                    "midi": 62,
                    "time": 1204.8099879999838,
                    "velocity": 0.5196850393700787,
                    "duration": 0.3279882000001635
                },
                {
                    "name": "E4",
                    "midi": 64,
                    "time": 1205.083311499984,
                    "velocity": 0.4645669291338583,
                    "duration": 0.3279882000001635
                },
                {
                    "name": "F#4",
                    "midi": 66,
                    "time": 1205.356634999984,
                    "velocity": 0.49606299212598426,
                    "duration": 0.3279882000001635
                },
                {
                    "name": "G4",
                    "midi": 67,
                    "time": 1205.629958499984,
                    "velocity": 0.4645669291338583,
                    "duration": 0.3279882000001635
                },
                {
                    "name": "G#4",
                    "midi": 68,
                    "time": 1205.903281999984,
                    "velocity": 0.5196850393700787,
                    "duration": 0.3279882000001635
                },
                {
                    "name": "A4",
                    "midi": 69,
                    "time": 1206.1766054999841,
                    "velocity": 0.4645669291338583,
                    "duration": 0.3279882000001635
                },
                {
                    "name": "A#4",
                    "midi": 70,
                    "time": 1206.4499289999842,
                    "velocity": 0.5118110236220472,
                    "duration": 0.3279882000001635
                },
                {
                    "name": "A4",
                    "midi": 69,
                    "time": 1206.7232524999843,
                    "velocity": 0.47244094488188976,
                    "duration": 0.27332350000006045
                },
                {
                    "name": "C5",
                    "midi": 72,
                    "time": 1206.9965759999843,
                    "velocity": 0.6692913385826772,
                    "duration": 0.5466469999998935
                },
                {
                    "name": "A#4",
                    "midi": 70,
                    "time": 1208.089869999984,
                    "velocity": 0.7007874015748031,
                    "duration": 1.639940999999908
                },
                {
                    "name": "A#4",
                    "midi": 70,
                    "time": 1209.729810999984,
                    "velocity": 0.6456692913385826,
                    "duration": 0.5466469999998935
                },
                {
                    "name": "A4",
                    "midi": 69,
                    "time": 1210.276457999984,
                    "velocity": 0.5354330708661418,
                    "duration": 0.3279882000001635
                },
                {
                    "name": "A#4",
                    "midi": 70,
                    "time": 1210.549781499984,
                    "velocity": 0.4881889763779528,
                    "duration": 0.3279882000001635
                },
                {
                    "name": "A4",
                    "midi": 69,
                    "time": 1210.823104999984,
                    "velocity": 0.4881889763779528,
                    "duration": 0.3279882000001635
                },
                {
                    "name": "G4",
                    "midi": 67,
                    "time": 1211.096428499984,
                    "velocity": 0.4881889763779528,
                    "duration": 0.3279882000001635
                },
                {
                    "name": "F4",
                    "midi": 65,
                    "time": 1211.3697519999841,
                    "velocity": 0.5196850393700787,
                    "duration": 0.3279882000001635
                },
                {
                    "name": "G4",
                    "midi": 67,
                    "time": 1211.6430754999842,
                    "velocity": 0.4645669291338583,
                    "duration": 0.3279882000001635
                },
                {
                    "name": "A4",
                    "midi": 69,
                    "time": 1211.9163989999843,
                    "velocity": 0.49606299212598426,
                    "duration": 0.3279882000001635
                },
                {
                    "name": "A#4",
                    "midi": 70,
                    "time": 1212.1897224999843,
                    "velocity": 0.4645669291338583,
                    "duration": 0.3279882000001635
                },
                {
                    "name": "B4",
                    "midi": 71,
                    "time": 1212.4630459999844,
                    "velocity": 0.5196850393700787,
                    "duration": 0.3279882000001635
                },
                {
                    "name": "C5",
                    "midi": 72,
                    "time": 1212.7363694999844,
                    "velocity": 0.4645669291338583,
                    "duration": 0.3279882000001635
                },
                {
                    "name": "D5",
                    "midi": 74,
                    "time": 1213.0096929999845,
                    "velocity": 0.5118110236220472,
                    "duration": 0.3279882000001635
                },
                {
                    "name": "C5",
                    "midi": 72,
                    "time": 1213.2830164999846,
                    "velocity": 0.47244094488188976,
                    "duration": 0.27332350000006045
                },
                {
                    "name": "D#5",
                    "midi": 75,
                    "time": 1213.5563399999846,
                    "velocity": 0.6692913385826772,
                    "duration": 0.5466469999998935
                },
                {
                    "name": "D5",
                    "midi": 74,
                    "time": 1214.6496339999844,
                    "velocity": 0.7007874015748031,
                    "duration": 1.639940999999908
                },
                {
                    "name": "D#5",
                    "midi": 75,
                    "time": 1216.2895749999843,
                    "velocity": 0.6692913385826772,
                    "duration": 0.27332350000006045
                },
                {
                    "name": "C#5",
                    "midi": 73,
                    "time": 1216.5628984999844,
                    "velocity": 0.5984251968503937,
                    "duration": 0.27332350000006045
                },
                {
                    "name": "B4",
                    "midi": 71,
                    "time": 1216.8362219999844,
                    "velocity": 0.6771653543307087,
                    "duration": 0.3279882000001635
                },
                {
                    "name": "C5",
                    "midi": 72,
                    "time": 1217.1095454999845,
                    "velocity": 0.6220472440944882,
                    "duration": 0.3279882000001635
                },
                {
                    "name": "C#5",
                    "midi": 73,
                    "time": 1217.3828689999846,
                    "velocity": 0.6220472440944882,
                    "duration": 0.3279882000001635
                },
                {
                    "name": "C5",
                    "midi": 72,
                    "time": 1217.6561924999846,
                    "velocity": 0.6299212598425197,
                    "duration": 0.27332350000006045
                },
                {
                    "name": "A4",
                    "midi": 69,
                    "time": 1217.9295159999847,
                    "velocity": 0.6771653543307087,
                    "duration": 0.3279882000001635
                },
                {
                    "name": "A#4",
                    "midi": 70,
                    "time": 1218.2028394999847,
                    "velocity": 0.6535433070866141,
                    "duration": 0.3279882000001635
                },
                {
                    "name": "C5",
                    "midi": 72,
                    "time": 1218.4761629999848,
                    "velocity": 0.6535433070866141,
                    "duration": 0.3279882000001635
                },
                {
                    "name": "A#4",
                    "midi": 70,
                    "time": 1218.7494864999849,
                    "velocity": 0.6535433070866141,
                    "duration": 0.27332350000006045
                },
                {
                    "name": "G#4",
                    "midi": 68,
                    "time": 1219.022809999985,
                    "velocity": 0.6929133858267716,
                    "duration": 0.3279882000001635
                },
                {
                    "name": "A4",
                    "midi": 69,
                    "time": 1219.296133499985,
                    "velocity": 0.6614173228346457,
                    "duration": 0.3279882000001635
                },
                {
                    "name": "A#4",
                    "midi": 70,
                    "time": 1219.569456999985,
                    "velocity": 0.6692913385826772,
                    "duration": 0.3279882000001635
                },
                {
                    "name": "A4",
                    "midi": 69,
                    "time": 1219.842780499985,
                    "velocity": 0.6692913385826772,
                    "duration": 0.27332350000006045
                },
                {
                    "name": "F1",
                    "midi": 29,
                    "time": 1220.1161039999852,
                    "velocity": 0.6614173228346457,
                    "duration": 0.27332350000006045
                },
                {
                    "name": "A2",
                    "midi": 45,
                    "time": 1221.2093979999852,
                    "velocity": 0.5196850393700787,
                    "duration": 0.18221566666670697
                },
                {
                    "name": "A#2",
                    "midi": 46,
                    "time": 1221.391613666652,
                    "velocity": 0.4566929133858268,
                    "duration": 0.18221566666670697
                },
                {
                    "name": "A2",
                    "midi": 45,
                    "time": 1221.5738293333186,
                    "velocity": 0.5196850393700787,
                    "duration": 0.18221566666670697
                },
                {
                    "name": "A#2",
                    "midi": 46,
                    "time": 1221.7560449999853,
                    "velocity": 0.4645669291338583,
                    "duration": 0.18221566666670697
                },
                {
                    "name": "A2",
                    "midi": 45,
                    "time": 1221.938260666652,
                    "velocity": 0.5196850393700787,
                    "duration": 0.18221566666670697
                },
                {
                    "name": "A#2",
                    "midi": 46,
                    "time": 1222.1204763333187,
                    "velocity": 0.47244094488188976,
                    "duration": 0.18221566666670697
                },
                {
                    "name": "A2",
                    "midi": 45,
                    "time": 1222.3026919999854,
                    "velocity": 0.5196850393700787,
                    "duration": 0.18221566666670697
                },
                {
                    "name": "A#2",
                    "midi": 46,
                    "time": 1222.4849076666521,
                    "velocity": 0.5196850393700787,
                    "duration": 0.18221566666670697
                },
                {
                    "name": "A2",
                    "midi": 45,
                    "time": 1222.6671233333188,
                    "velocity": 0.5196850393700787,
                    "duration": 0.18221566666670697
                },
                {
                    "name": "A#2",
                    "midi": 46,
                    "time": 1222.8493389999855,
                    "velocity": 0.47244094488188976,
                    "duration": 0.13666175000003022
                },
                {
                    "name": "A2",
                    "midi": 45,
                    "time": 1222.9860007499856,
                    "velocity": 0.5196850393700787,
                    "duration": 0.13666175000003022
                },
                {
                    "name": "G2",
                    "midi": 43,
                    "time": 1223.1226624999856,
                    "velocity": 0.47244094488188976,
                    "duration": 0.13666175000003022
                },
                {
                    "name": "A2",
                    "midi": 45,
                    "time": 1223.2593242499856,
                    "velocity": 0.47244094488188976,
                    "duration": 0.13666175000003022
                },
                {
                    "name": "A#2",
                    "midi": 46,
                    "time": 1223.3959859999857,
                    "velocity": 0.5590551181102362,
                    "duration": 1.0932940000000144
                },
                {
                    "name": "A#2",
                    "midi": 46,
                    "time": 1225.0359269999856,
                    "velocity": 0.47244094488188976,
                    "duration": 0.27332350000006045
                },
                {
                    "name": "A2",
                    "midi": 45,
                    "time": 1225.3092504999856,
                    "velocity": 0.4094488188976378,
                    "duration": 0.27332350000006045
                },
                {
                    "name": "G2",
                    "midi": 43,
                    "time": 1225.5825739999857,
                    "velocity": 0.4645669291338583,
                    "duration": 0.27332350000006045
                },
                {
                    "name": "F2",
                    "midi": 41,
                    "time": 1225.8558974999858,
                    "velocity": 0.4645669291338583,
                    "duration": 0.27332350000006045
                },
                {
                    "name": "D#2",
                    "midi": 39,
                    "time": 1226.1292209999858,
                    "velocity": 0.49606299212598426,
                    "duration": 0.27332350000006045
                },
                {
                    "name": "D2",
                    "midi": 38,
                    "time": 1226.4025444999859,
                    "velocity": 0.5039370078740157,
                    "duration": 0.27332350000006045
                },
                {
                    "name": "F2",
                    "midi": 41,
                    "time": 1226.675867999986,
                    "velocity": 0.5433070866141733,
                    "duration": 1.0932940000000144
                },
                {
                    "name": "G2",
                    "midi": 43,
                    "time": 1228.3158089999858,
                    "velocity": 0.47244094488188976,
                    "duration": 0.27332350000006045
                },
                {
                    "name": "F2",
                    "midi": 41,
                    "time": 1228.589132499986,
                    "velocity": 0.4094488188976378,
                    "duration": 0.27332350000006045
                },
                {
                    "name": "D#2",
                    "midi": 39,
                    "time": 1228.862455999986,
                    "velocity": 0.4645669291338583,
                    "duration": 0.27332350000006045
                },
                {
                    "name": "D2",
                    "midi": 38,
                    "time": 1229.135779499986,
                    "velocity": 0.4645669291338583,
                    "duration": 0.27332350000006045
                },
                {
                    "name": "C2",
                    "midi": 36,
                    "time": 1229.409102999986,
                    "velocity": 0.49606299212598426,
                    "duration": 0.27332350000006045
                },
                {
                    "name": "A#1",
                    "midi": 34,
                    "time": 1229.6824264999861,
                    "velocity": 0.5039370078740157,
                    "duration": 0.27332350000006045
                },
                {
                    "name": "D#2",
                    "midi": 39,
                    "time": 1229.9557499999862,
                    "velocity": 0.5433070866141733,
                    "duration": 1.0932940000000144
                },
                {
                    "name": "D#2",
                    "midi": 39,
                    "time": 1231.5956909999861,
                    "velocity": 0.47244094488188976,
                    "duration": 0.27332350000006045
                },
                {
                    "name": "D2",
                    "midi": 38,
                    "time": 1231.8690144999862,
                    "velocity": 0.4094488188976378,
                    "duration": 0.27332350000006045
                },
                {
                    "name": "C2",
                    "midi": 36,
                    "time": 1232.1423379999862,
                    "velocity": 0.4645669291338583,
                    "duration": 0.27332350000006045
                },
                {
                    "name": "D2",
                    "midi": 38,
                    "time": 1232.4156614999863,
                    "velocity": 0.4645669291338583,
                    "duration": 0.27332350000006045
                },
                {
                    "name": "C2",
                    "midi": 36,
                    "time": 1232.6889849999864,
                    "velocity": 0.49606299212598426,
                    "duration": 0.27332350000006045
                },
                {
                    "name": "A#1",
                    "midi": 34,
                    "time": 1232.9623084999864,
                    "velocity": 0.5039370078740157,
                    "duration": 0.27332350000006045
                },
                {
                    "name": "A1",
                    "midi": 33,
                    "time": 1233.2356319999865,
                    "velocity": 0.4645669291338583,
                    "duration": 0.5466469999998935
                },
                {
                    "name": "A2",
                    "midi": 45,
                    "time": 1233.7822789999864,
                    "velocity": 0.47244094488188976,
                    "duration": 0.27332350000006045
                },
                {
                    "name": "G2",
                    "midi": 43,
                    "time": 1234.0556024999864,
                    "velocity": 0.4094488188976378,
                    "duration": 0.27332350000006045
                },
                {
                    "name": "F3",
                    "midi": 53,
                    "time": 1234.3289259999865,
                    "velocity": 0.4645669291338583,
                    "duration": 0.5466469999998935
                },
                {
                    "name": "F2",
                    "midi": 41,
                    "time": 1234.3289259999865,
                    "velocity": 0.4645669291338583,
                    "duration": 0.5466469999998935
                },
                {
                    "name": "A4",
                    "midi": 69,
                    "time": 1235.4222199999863,
                    "velocity": 0.4645669291338583,
                    "duration": 0.18221566666670697
                },
                {
                    "name": "A#4",
                    "midi": 70,
                    "time": 1235.604435666653,
                    "velocity": 0.4251968503937008,
                    "duration": 0.18221566666670697
                },
                {
                    "name": "A4",
                    "midi": 69,
                    "time": 1235.7866513333197,
                    "velocity": 0.4645669291338583,
                    "duration": 0.18221566666670697
                },
                {
                    "name": "A#4",
                    "midi": 70,
                    "time": 1235.9688669999864,
                    "velocity": 0.4251968503937008,
                    "duration": 0.18221566666670697
                },
                {
                    "name": "A4",
                    "midi": 69,
                    "time": 1236.151082666653,
                    "velocity": 0.4645669291338583,
                    "duration": 0.18221566666670697
                },
                {
                    "name": "A#4",
                    "midi": 70,
                    "time": 1236.3332983333198,
                    "velocity": 0.41732283464566927,
                    "duration": 0.18221566666670697
                },
                {
                    "name": "A4",
                    "midi": 69,
                    "time": 1236.5155139999865,
                    "velocity": 0.4645669291338583,
                    "duration": 0.18221566666670697
                },
                {
                    "name": "A#4",
                    "midi": 70,
                    "time": 1236.6977296666532,
                    "velocity": 0.4251968503937008,
                    "duration": 0.18221566666670697
                },
                {
                    "name": "A4",
                    "midi": 69,
                    "time": 1236.87994533332,
                    "velocity": 0.4645669291338583,
                    "duration": 0.18221566666670697
                },
                {
                    "name": "A#4",
                    "midi": 70,
                    "time": 1237.0621609999866,
                    "velocity": 0.41732283464566927,
                    "duration": 0.13666175000003022
                },
                {
                    "name": "A4",
                    "midi": 69,
                    "time": 1237.1988227499867,
                    "velocity": 0.4409448818897638,
                    "duration": 0.13666175000003022
                },
                {
                    "name": "G4",
                    "midi": 67,
                    "time": 1237.3354844999867,
                    "velocity": 0.41732283464566927,
                    "duration": 0.13666175000003022
                },
                {
                    "name": "A4",
                    "midi": 69,
                    "time": 1237.4721462499867,
                    "velocity": 0.41732283464566927,
                    "duration": 0.13666175000003022
                },
                {
                    "name": "A#4",
                    "midi": 70,
                    "time": 1237.6088079999868,
                    "velocity": 0.4645669291338583,
                    "duration": 1.0932940000000144
                },
                {
                    "name": "A#2",
                    "midi": 46,
                    "time": 1238.1554549999867,
                    "velocity": 0.5748031496062992,
                    "duration": 0.27332350000006045
                },
                {
                    "name": "D4",
                    "midi": 62,
                    "time": 1238.7021019999868,
                    "velocity": 0.5748031496062992,
                    "duration": 0.13666175000003022
                },
                {
                    "name": "D#4",
                    "midi": 63,
                    "time": 1238.8387637499868,
                    "velocity": 0.5354330708661418,
                    "duration": 0.13666175000003022
                },
                {
                    "name": "D4",
                    "midi": 62,
                    "time": 1238.9754254999868,
                    "velocity": 0.5748031496062992,
                    "duration": 0.13666175000003022
                },
                {
                    "name": "D#4",
                    "midi": 63,
                    "time": 1239.1120872499869,
                    "velocity": 0.5354330708661418,
                    "duration": 0.13666175000003022
                },
                {
                    "name": "A#4",
                    "midi": 70,
                    "time": 1239.248748999987,
                    "velocity": 0.5748031496062992,
                    "duration": 0.27332350000006045
                },
                {
                    "name": "A4",
                    "midi": 69,
                    "time": 1239.522072499987,
                    "velocity": 0.5826771653543307,
                    "duration": 0.27332350000006045
                },
                {
                    "name": "G4",
                    "midi": 67,
                    "time": 1239.795395999987,
                    "velocity": 0.5669291338582677,
                    "duration": 0.27332350000006045
                },
                {
                    "name": "F4",
                    "midi": 65,
                    "time": 1240.068719499987,
                    "velocity": 0.5433070866141733,
                    "duration": 0.27332350000006045
                },
                {
                    "name": "D#4",
                    "midi": 63,
                    "time": 1240.3420429999871,
                    "velocity": 0.5275590551181102,
                    "duration": 0.27332350000006045
                },
                {
                    "name": "D4",
                    "midi": 62,
                    "time": 1240.6153664999872,
                    "velocity": 0.5039370078740157,
                    "duration": 0.27332350000006045
                },
                {
                    "name": "G4",
                    "midi": 67,
                    "time": 1240.8886899999873,
                    "velocity": 0.5748031496062992,
                    "duration": 1.0932940000000144
                },
                {
                    "name": "G4",
                    "midi": 67,
                    "time": 1242.5286309999872,
                    "velocity": 0.5748031496062992,
                    "duration": 0.27332350000006045
                },
                {
                    "name": "F4",
                    "midi": 65,
                    "time": 1242.8019544999872,
                    "velocity": 0.5826771653543307,
                    "duration": 0.27332350000006045
                },
                {
                    "name": "D#4",
                    "midi": 63,
                    "time": 1243.0752779999873,
                    "velocity": 0.5669291338582677,
                    "duration": 0.27332350000006045
                },
                {
                    "name": "D4",
                    "midi": 62,
                    "time": 1243.3486014999874,
                    "velocity": 0.5433070866141733,
                    "duration": 0.27332350000006045
                },
                {
                    "name": "C4",
                    "midi": 60,
                    "time": 1243.6219249999874,
                    "velocity": 0.5275590551181102,
                    "duration": 0.27332350000006045
                },
                {
                    "name": "B3",
                    "midi": 59,
                    "time": 1243.8952484999875,
                    "velocity": 0.5039370078740157,
                    "duration": 0.27332350000006045
                },
                {
                    "name": "D#4",
                    "midi": 63,
                    "time": 1244.1685719999875,
                    "velocity": 0.5748031496062992,
                    "duration": 1.0932940000000144
                },
                {
                    "name": "D#3",
                    "midi": 51,
                    "time": 1244.7152189999874,
                    "velocity": 0.5748031496062992,
                    "duration": 0.27332350000006045
                },
                {
                    "name": "C4",
                    "midi": 60,
                    "time": 1245.2618659999875,
                    "velocity": 0.5748031496062992,
                    "duration": 0.13666175000003022
                },
                {
                    "name": "D4",
                    "midi": 62,
                    "time": 1245.3985277499876,
                    "velocity": 0.5354330708661418,
                    "duration": 0.13666175000003022
                },
                {
                    "name": "C4",
                    "midi": 60,
                    "time": 1245.5351894999876,
                    "velocity": 0.5748031496062992,
                    "duration": 0.13666175000003022
                },
                {
                    "name": "D4",
                    "midi": 62,
                    "time": 1245.6718512499876,
                    "velocity": 0.5354330708661418,
                    "duration": 0.13666175000003022
                },
                {
                    "name": "D#4",
                    "midi": 63,
                    "time": 1245.8085129999877,
                    "velocity": 0.4881889763779528,
                    "duration": 0.27332350000006045
                },
                {
                    "name": "D4",
                    "midi": 62,
                    "time": 1246.0818364999877,
                    "velocity": 0.4881889763779528,
                    "duration": 0.27332350000006045
                },
                {
                    "name": "C4",
                    "midi": 60,
                    "time": 1246.3551599999878,
                    "velocity": 0.48031496062992124,
                    "duration": 0.27332350000006045
                },
                {
                    "name": "B3",
                    "midi": 59,
                    "time": 1246.6284834999879,
                    "velocity": 0.4566929133858268,
                    "duration": 0.27332350000006045
                },
                {
                    "name": "A3",
                    "midi": 57,
                    "time": 1246.901806999988,
                    "velocity": 0.4409448818897638,
                    "duration": 0.27332350000006045
                },
                {
                    "name": "G3",
                    "midi": 55,
                    "time": 1247.175130499988,
                    "velocity": 0.4251968503937008,
                    "duration": 0.27332350000006045
                },
                {
                    "name": "C2",
                    "midi": 36,
                    "time": 1247.448453999988,
                    "velocity": 0.5748031496062992,
                    "duration": 0.5466469999998935
                },
                {
                    "name": "D#4",
                    "midi": 63,
                    "time": 1247.448453999988,
                    "velocity": 0.4881889763779528,
                    "duration": 1.093293999999787
                },
                {
                    "name": "E3",
                    "midi": 52,
                    "time": 1248.5417479999878,
                    "velocity": 0.4645669291338583,
                    "duration": 0.18221566666670697
                },
                {
                    "name": "F3",
                    "midi": 53,
                    "time": 1248.7239636666545,
                    "velocity": 0.4251968503937008,
                    "duration": 0.18221566666670697
                },
                {
                    "name": "E3",
                    "midi": 52,
                    "time": 1248.9061793333212,
                    "velocity": 0.4645669291338583,
                    "duration": 0.18221566666670697
                },
                {
                    "name": "F3",
                    "midi": 53,
                    "time": 1249.088394999988,
                    "velocity": 0.4251968503937008,
                    "duration": 0.18221566666670697
                },
                {
                    "name": "E3",
                    "midi": 52,
                    "time": 1249.2706106666546,
                    "velocity": 0.4645669291338583,
                    "duration": 0.18221566666670697
                },
                {
                    "name": "F3",
                    "midi": 53,
                    "time": 1249.4528263333214,
                    "velocity": 0.41732283464566927,
                    "duration": 0.18221566666670697
                },
                {
                    "name": "E3",
                    "midi": 52,
                    "time": 1249.635041999988,
                    "velocity": 0.4645669291338583,
                    "duration": 0.18221566666670697
                },
                {
                    "name": "F3",
                    "midi": 53,
                    "time": 1249.8172576666548,
                    "velocity": 0.4251968503937008,
                    "duration": 0.18221566666670697
                },
                {
                    "name": "E3",
                    "midi": 52,
                    "time": 1249.9994733333215,
                    "velocity": 0.4645669291338583,
                    "duration": 0.18221566666670697
                },
                {
                    "name": "F3",
                    "midi": 53,
                    "time": 1250.1816889999882,
                    "velocity": 0.41732283464566927,
                    "duration": 0.13666175000003022
                },
                {
                    "name": "E3",
                    "midi": 52,
                    "time": 1250.3183507499882,
                    "velocity": 0.4409448818897638,
                    "duration": 0.13666175000003022
                },
                {
                    "name": "D3",
                    "midi": 50,
                    "time": 1250.4550124999882,
                    "velocity": 0.41732283464566927,
                    "duration": 0.13666175000003022
                },
                {
                    "name": "E3",
                    "midi": 52,
                    "time": 1250.5916742499883,
                    "velocity": 0.41732283464566927,
                    "duration": 0.13666175000003022
                },
                {
                    "name": "F3",
                    "midi": 53,
                    "time": 1250.7283359999883,
                    "velocity": 0.4645669291338583,
                    "duration": 1.0932940000000144
                },
                {
                    "name": "F3",
                    "midi": 53,
                    "time": 1252.3682769999882,
                    "velocity": 0.5039370078740157,
                    "duration": 0.27332350000006045
                },
                {
                    "name": "E3",
                    "midi": 52,
                    "time": 1252.6416004999883,
                    "velocity": 0.4645669291338583,
                    "duration": 0.27332350000006045
                },
                {
                    "name": "D3",
                    "midi": 50,
                    "time": 1252.9149239999883,
                    "velocity": 0.5118110236220472,
                    "duration": 0.27332350000006045
                },
                {
                    "name": "C3",
                    "midi": 48,
                    "time": 1253.1882474999884,
                    "velocity": 0.4881889763779528,
                    "duration": 0.27332350000006045
                },
                {
                    "name": "A#2",
                    "midi": 46,
                    "time": 1253.4615709999885,
                    "velocity": 0.4645669291338583,
                    "duration": 0.27332350000006045
                },
                {
                    "name": "A2",
                    "midi": 45,
                    "time": 1253.7348944999885,
                    "velocity": 0.4409448818897638,
                    "duration": 0.27332350000006045
                },
                {
                    "name": "G3",
                    "midi": 55,
                    "time": 1254.0082179999886,
                    "velocity": 0.6771653543307087,
                    "duration": 1.0932940000000144
                },
                {
                    "name": "A#3",
                    "midi": 58,
                    "time": 1255.1015119999886,
                    "velocity": 0.5984251968503937,
                    "duration": 0.5466469999998935
                },
                {
                    "name": "G3",
                    "midi": 55,
                    "time": 1255.6481589999885,
                    "velocity": 0.5039370078740157,
                    "duration": 0.27332350000006045
                },
                {
                    "name": "F3",
                    "midi": 53,
                    "time": 1255.9214824999885,
                    "velocity": 0.47244094488188976,
                    "duration": 0.27332350000006045
                },
                {
                    "name": "D#3",
                    "midi": 51,
                    "time": 1256.1948059999886,
                    "velocity": 0.5039370078740157,
                    "duration": 0.27332350000006045
                },
                {
                    "name": "D3",
                    "midi": 50,
                    "time": 1256.4681294999887,
                    "velocity": 0.48031496062992124,
                    "duration": 0.27332350000006045
                },
                {
                    "name": "C3",
                    "midi": 48,
                    "time": 1256.7414529999887,
                    "velocity": 0.47244094488188976,
                    "duration": 0.27332350000006045
                },
                {
                    "name": "A#2",
                    "midi": 46,
                    "time": 1257.0147764999888,
                    "velocity": 0.4645669291338583,
                    "duration": 0.27332350000006045
                },
                {
                    "name": "A3",
                    "midi": 57,
                    "time": 1257.2880999999888,
                    "velocity": 0.5039370078740157,
                    "duration": 1.0932940000000144
                },
                {
                    "name": "A3",
                    "midi": 57,
                    "time": 1258.9280409999888,
                    "velocity": 0.4881889763779528,
                    "duration": 0.27332350000006045
                },
                {
                    "name": "G3",
                    "midi": 55,
                    "time": 1259.2013644999888,
                    "velocity": 0.4645669291338583,
                    "duration": 0.27332350000006045
                },
                {
                    "name": "F3",
                    "midi": 53,
                    "time": 1259.4746879999889,
                    "velocity": 0.5039370078740157,
                    "duration": 0.27332350000006045
                },
                {
                    "name": "D#3",
                    "midi": 51,
                    "time": 1259.748011499989,
                    "velocity": 0.48031496062992124,
                    "duration": 0.27332350000006045
                },
                {
                    "name": "D3",
                    "midi": 50,
                    "time": 1260.021334999989,
                    "velocity": 0.4645669291338583,
                    "duration": 0.27332350000006045
                },
                {
                    "name": "C3",
                    "midi": 48,
                    "time": 1260.294658499989,
                    "velocity": 0.44881889763779526,
                    "duration": 0.27332350000006045
                },
                {
                    "name": "A#2",
                    "midi": 46,
                    "time": 1260.5679819999891,
                    "velocity": 0.48031496062992124,
                    "duration": 0.27332350000006045
                },
                {
                    "name": "A3",
                    "midi": 57,
                    "time": 1260.8413054999892,
                    "velocity": 0.5275590551181102,
                    "duration": 0.27332350000006045
                },
                {
                    "name": "G3",
                    "midi": 55,
                    "time": 1261.1146289999892,
                    "velocity": 0.4566929133858268,
                    "duration": 0.27332350000006045
                },
                {
                    "name": "F3",
                    "midi": 53,
                    "time": 1261.3879524999893,
                    "velocity": 0.4409448818897638,
                    "duration": 0.27332350000006045
                },
                {
                    "name": "A#3",
                    "midi": 58,
                    "time": 1261.6612759999894,
                    "velocity": 0.5039370078740157,
                    "duration": 0.27332350000006045
                },
                {
                    "name": "A3",
                    "midi": 57,
                    "time": 1261.9345994999894,
                    "velocity": 0.48031496062992124,
                    "duration": 0.27332350000006045
                },
                {
                    "name": "D4",
                    "midi": 62,
                    "time": 1262.2079229999895,
                    "velocity": 0.5039370078740157,
                    "duration": 0.27332350000006045
                },
                {
                    "name": "C4",
                    "midi": 60,
                    "time": 1262.4812464999895,
                    "velocity": 0.47244094488188976,
                    "duration": 0.27332350000006045
                },
                {
                    "name": "A#3",
                    "midi": 58,
                    "time": 1262.7545699999896,
                    "velocity": 0.5275590551181102,
                    "duration": 0.27332350000006045
                },
                {
                    "name": "A3",
                    "midi": 57,
                    "time": 1263.0278934999897,
                    "velocity": 0.5039370078740157,
                    "duration": 0.27332350000006045
                },
                {
                    "name": "G3",
                    "midi": 55,
                    "time": 1263.3012169999897,
                    "velocity": 0.4881889763779528,
                    "duration": 0.27332350000006045
                },
                {
                    "name": "F3",
                    "midi": 53,
                    "time": 1263.5745404999898,
                    "velocity": 0.47244094488188976,
                    "duration": 0.27332350000006045
                },
                {
                    "name": "D#3",
                    "midi": 51,
                    "time": 1263.8478639999898,
                    "velocity": 0.5196850393700787,
                    "duration": 0.27332350000006045
                },
                {
                    "name": "D3",
                    "midi": 50,
                    "time": 1264.12118749999,
                    "velocity": 0.5039370078740157,
                    "duration": 0.27332350000006045
                },
                {
                    "name": "C3",
                    "midi": 48,
                    "time": 1264.39451099999,
                    "velocity": 0.4881889763779528,
                    "duration": 0.27332350000006045
                },
                {
                    "name": "A#2",
                    "midi": 46,
                    "time": 1264.66783449999,
                    "velocity": 0.47244094488188976,
                    "duration": 0.27332350000006045
                },
                {
                    "name": "G2",
                    "midi": 43,
                    "time": 1264.94115799999,
                    "velocity": 0.5354330708661418,
                    "duration": 0.27332350000006045
                },
                {
                    "name": "A2",
                    "midi": 45,
                    "time": 1265.2144814999901,
                    "velocity": 0.5196850393700787,
                    "duration": 0.27332350000006045
                },
                {
                    "name": "A#2",
                    "midi": 46,
                    "time": 1265.4878049999902,
                    "velocity": 0.49606299212598426,
                    "duration": 0.27332350000006045
                },
                {
                    "name": "B2",
                    "midi": 47,
                    "time": 1265.7611284999903,
                    "velocity": 0.48031496062992124,
                    "duration": 0.27332350000006045
                },
                {
                    "name": "C3",
                    "midi": 48,
                    "time": 1266.0344519999903,
                    "velocity": 0.48031496062992124,
                    "duration": 0.27332350000006045
                },
                {
                    "name": "D3",
                    "midi": 50,
                    "time": 1266.3077754999904,
                    "velocity": 0.4881889763779528,
                    "duration": 0.27332350000006045
                },
                {
                    "name": "D#3",
                    "midi": 51,
                    "time": 1266.5810989999904,
                    "velocity": 0.5039370078740157,
                    "duration": 0.27332350000006045
                },
                {
                    "name": "D3",
                    "midi": 50,
                    "time": 1266.8544224999905,
                    "velocity": 0.4881889763779528,
                    "duration": 0.27332350000006045
                },
                {
                    "name": "C3",
                    "midi": 48,
                    "time": 1267.1277459999906,
                    "velocity": 0.48031496062992124,
                    "duration": 0.27332350000006045
                },
                {
                    "name": "A#2",
                    "midi": 46,
                    "time": 1267.4010694999906,
                    "velocity": 0.4566929133858268,
                    "duration": 0.27332350000006045
                },
                {
                    "name": "A2",
                    "midi": 45,
                    "time": 1267.6743929999907,
                    "velocity": 0.4566929133858268,
                    "duration": 0.27332350000006045
                },
                {
                    "name": "G2",
                    "midi": 43,
                    "time": 1267.9477164999907,
                    "velocity": 0.44881889763779526,
                    "duration": 0.27332350000006045
                },
                {
                    "name": "F2",
                    "midi": 41,
                    "time": 1268.2210399999908,
                    "velocity": 0.48031496062992124,
                    "duration": 0.27332350000006045
                },
                {
                    "name": "D#2",
                    "midi": 39,
                    "time": 1268.4943634999909,
                    "velocity": 0.48031496062992124,
                    "duration": 0.27332350000006045
                },
                {
                    "name": "D2",
                    "midi": 38,
                    "time": 1268.767686999991,
                    "velocity": 0.5039370078740157,
                    "duration": 0.27332350000006045
                },
                {
                    "name": "C2",
                    "midi": 36,
                    "time": 1269.041010499991,
                    "velocity": 0.5196850393700787,
                    "duration": 0.27332350000006045
                },
                {
                    "name": "A#1",
                    "midi": 34,
                    "time": 1269.314333999991,
                    "velocity": 0.5984251968503937,
                    "duration": 0.5466469999998935
                },
                {
                    "name": "D3",
                    "midi": 50,
                    "time": 1270.4076279999908,
                    "velocity": 0.5039370078740157,
                    "duration": 0.18221566666670697
                },
                {
                    "name": "D#3",
                    "midi": 51,
                    "time": 1270.5898436666575,
                    "velocity": 0.4645669291338583,
                    "duration": 0.18221566666670697
                },
                {
                    "name": "D3",
                    "midi": 50,
                    "time": 1270.7720593333243,
                    "velocity": 0.5118110236220472,
                    "duration": 0.18221566666670697
                },
                {
                    "name": "D#3",
                    "midi": 51,
                    "time": 1270.954274999991,
                    "velocity": 0.47244094488188976,
                    "duration": 0.18221566666670697
                },
                {
                    "name": "D3",
                    "midi": 50,
                    "time": 1271.1364906666577,
                    "velocity": 0.5196850393700787,
                    "duration": 0.18221566666670697
                },
                {
                    "name": "D#3",
                    "midi": 51,
                    "time": 1271.3187063333244,
                    "velocity": 0.48031496062992124,
                    "duration": 0.18221566666670697
                },
                {
                    "name": "D3",
                    "midi": 50,
                    "time": 1271.500921999991,
                    "velocity": 0.5275590551181102,
                    "duration": 0.18221566666670697
                },
                {
                    "name": "D#3",
                    "midi": 51,
                    "time": 1271.6831376666578,
                    "velocity": 0.4881889763779528,
                    "duration": 0.18221566666670697
                },
                {
                    "name": "D3",
                    "midi": 50,
                    "time": 1271.8653533333245,
                    "velocity": 0.5354330708661418,
                    "duration": 0.18221566666670697
                },
                {
                    "name": "D#3",
                    "midi": 51,
                    "time": 1272.0475689999912,
                    "velocity": 0.5118110236220472,
                    "duration": 0.13666175000003022
                },
                {
                    "name": "D3",
                    "midi": 50,
                    "time": 1272.1842307499912,
                    "velocity": 0.5433070866141733,
                    "duration": 0.13666175000003022
                },
                {
                    "name": "C3",
                    "midi": 48,
                    "time": 1272.3208924999913,
                    "velocity": 0.5118110236220472,
                    "duration": 0.13666175000003022
                },
                {
                    "name": "D3",
                    "midi": 50,
                    "time": 1272.4575542499913,
                    "velocity": 0.5118110236220472,
                    "duration": 0.13666175000003022
                },
                {
                    "name": "D#3",
                    "midi": 51,
                    "time": 1272.5942159999913,
                    "velocity": 0.5669291338582677,
                    "duration": 0.5466469999998935
                },
                {
                    "name": "E3",
                    "midi": 52,
                    "time": 1277.5140389999913,
                    "velocity": 0.5275590551181102,
                    "duration": 0.5466469999998935
                },
                {
                    "name": "F3",
                    "midi": 53,
                    "time": 1278.0606859999912,
                    "velocity": 0.5669291338582677,
                    "duration": 1.0932940000000144
                },
                {
                    "name": "F3",
                    "midi": 53,
                    "time": 1279.700626999991,
                    "velocity": 0.5669291338582677,
                    "duration": 0.5466469999998935
                },
                {
                    "name": "D#4",
                    "midi": 63,
                    "time": 1280.247273999991,
                    "velocity": 0.48031496062992124,
                    "duration": 1.639940999999908
                },
                {
                    "name": "F#4",
                    "midi": 66,
                    "time": 1280.247273999991,
                    "velocity": 0.5669291338582677,
                    "duration": 1.639940999999908
                },
                {
                    "name": "F#4",
                    "midi": 66,
                    "time": 1281.8872149999909,
                    "velocity": 0.5196850393700787,
                    "duration": 0.5466469999998935
                },
                {
                    "name": "D#4",
                    "midi": 63,
                    "time": 1281.8872149999909,
                    "velocity": 0.4409448818897638,
                    "duration": 0.5466469999998935
                },
                {
                    "name": "D#4",
                    "midi": 63,
                    "time": 1282.4338619999908,
                    "velocity": 0.4645669291338583,
                    "duration": 0.5466469999998935
                },
                {
                    "name": "F#4",
                    "midi": 66,
                    "time": 1282.4338619999908,
                    "velocity": 0.5511811023622047,
                    "duration": 0.5466469999998935
                },
                {
                    "name": "F4",
                    "midi": 65,
                    "time": 1282.9805089999907,
                    "velocity": 0.5275590551181102,
                    "duration": 0.5466469999998935
                },
                {
                    "name": "D4",
                    "midi": 62,
                    "time": 1282.9805089999907,
                    "velocity": 0.4409448818897638,
                    "duration": 0.5466469999998935
                },
                {
                    "name": "C4",
                    "midi": 60,
                    "time": 1283.5271559999906,
                    "velocity": 0.4330708661417323,
                    "duration": 0.5466469999998935
                },
                {
                    "name": "D#4",
                    "midi": 63,
                    "time": 1283.5271559999906,
                    "velocity": 0.5118110236220472,
                    "duration": 0.5466469999998935
                },
                {
                    "name": "D4",
                    "midi": 62,
                    "time": 1284.0738029999904,
                    "velocity": 0.49606299212598426,
                    "duration": 0.5466469999998935
                },
                {
                    "name": "A#3",
                    "midi": 58,
                    "time": 1284.0738029999904,
                    "velocity": 0.41732283464566927,
                    "duration": 0.5466469999998935
                },
                {
                    "name": "D3",
                    "midi": 50,
                    "time": 1284.6204499999903,
                    "velocity": 0.49606299212598426,
                    "duration": 0.27332350000006045
                },
                {
                    "name": "D#3",
                    "midi": 51,
                    "time": 1284.8937734999904,
                    "velocity": 0.4409448818897638,
                    "duration": 0.27332350000006045
                },
                {
                    "name": "D3",
                    "midi": 50,
                    "time": 1285.1670969999905,
                    "velocity": 0.44881889763779526,
                    "duration": 0.27332350000006045
                },
                {
                    "name": "C3",
                    "midi": 48,
                    "time": 1285.4404204999905,
                    "velocity": 0.44881889763779526,
                    "duration": 0.27332350000006045
                },
                {
                    "name": "A#2",
                    "midi": 46,
                    "time": 1285.7137439999906,
                    "velocity": 0.49606299212598426,
                    "duration": 0.27332350000006045
                },
                {
                    "name": "C3",
                    "midi": 48,
                    "time": 1285.9870674999906,
                    "velocity": 0.4566929133858268,
                    "duration": 0.27332350000006045
                },
                {
                    "name": "D3",
                    "midi": 50,
                    "time": 1286.2603909999907,
                    "velocity": 0.4566929133858268,
                    "duration": 0.27332350000006045
                },
                {
                    "name": "D#3",
                    "midi": 51,
                    "time": 1286.5337144999908,
                    "velocity": 0.4566929133858268,
                    "duration": 0.27332350000006045
                },
                {
                    "name": "E3",
                    "midi": 52,
                    "time": 1286.8070379999908,
                    "velocity": 0.48031496062992124,
                    "duration": 0.27332350000006045
                },
                {
                    "name": "F3",
                    "midi": 53,
                    "time": 1287.0803614999909,
                    "velocity": 0.4881889763779528,
                    "duration": 0.27332350000006045
                },
                {
                    "name": "G3",
                    "midi": 55,
                    "time": 1287.353684999991,
                    "velocity": 0.5039370078740157,
                    "duration": 0.27332350000006045
                },
                {
                    "name": "F3",
                    "midi": 53,
                    "time": 1287.627008499991,
                    "velocity": 0.4881889763779528,
                    "duration": 0.27332350000006045
                },
                {
                    "name": "D3",
                    "midi": 50,
                    "time": 1287.900331999991,
                    "velocity": 0.48031496062992124,
                    "duration": 0.27332350000006045
                },
                {
                    "name": "D#3",
                    "midi": 51,
                    "time": 1288.1736554999911,
                    "velocity": 0.49606299212598426,
                    "duration": 0.27332350000006045
                },
                {
                    "name": "F3",
                    "midi": 53,
                    "time": 1288.4469789999912,
                    "velocity": 0.5118110236220472,
                    "duration": 0.27332350000006045
                },
                {
                    "name": "D#3",
                    "midi": 51,
                    "time": 1288.7203024999912,
                    "velocity": 0.49606299212598426,
                    "duration": 0.27332350000006045
                },
                {
                    "name": "B2",
                    "midi": 47,
                    "time": 1288.9936259999913,
                    "velocity": 0.49606299212598426,
                    "duration": 0.27332350000006045
                },
                {
                    "name": "C3",
                    "midi": 48,
                    "time": 1289.2669494999914,
                    "velocity": 0.49606299212598426,
                    "duration": 0.27332350000006045
                },
                {
                    "name": "D3",
                    "midi": 50,
                    "time": 1289.5402729999914,
                    "velocity": 0.5118110236220472,
                    "duration": 0.27332350000006045
                },
                {
                    "name": "D#3",
                    "midi": 51,
                    "time": 1289.8135964999915,
                    "velocity": 0.5196850393700787,
                    "duration": 0.27332350000006045
                },
                {
                    "name": "E3",
                    "midi": 52,
                    "time": 1290.0869199999916,
                    "velocity": 0.5354330708661418,
                    "duration": 0.27332350000006045
                },
                {
                    "name": "F3",
                    "midi": 53,
                    "time": 1290.3602434999916,
                    "velocity": 0.5511811023622047,
                    "duration": 0.27332350000006045
                },
                {
                    "name": "G3",
                    "midi": 55,
                    "time": 1290.6335669999917,
                    "velocity": 0.5748031496062992,
                    "duration": 0.27332350000006045
                },
                {
                    "name": "F3",
                    "midi": 53,
                    "time": 1290.9068904999917,
                    "velocity": 0.5433070866141733,
                    "duration": 0.27332350000006045
                },
                {
                    "name": "F3",
                    "midi": 53,
                    "time": 1291.1802139999918,
                    "velocity": 0.5590551181102362,
                    "duration": 0.5466469999998935
                },
                {
                    "name": "F2",
                    "midi": 41,
                    "time": 1291.1802139999918,
                    "velocity": 0.47244094488188976,
                    "duration": 0.5466469999998935
                },
                {
                    "name": "A#1",
                    "midi": 34,
                    "time": 1291.7268609999917,
                    "velocity": 0.4409448818897638,
                    "duration": 0.5466469999998935
                },
                {
                    "name": "A#2",
                    "midi": 46,
                    "time": 1291.7268609999917,
                    "velocity": 0.5275590551181102,
                    "duration": 0.5466469999998935
                },
                {
                    "name": "A#1",
                    "midi": 34,
                    "time": 1294.4600959999916,
                    "velocity": 0.3543307086614173,
                    "duration": 0.5466469999998935
                },
                {
                    "name": "D3",
                    "midi": 50,
                    "time": 1295.5533899999914,
                    "velocity": 0.4409448818897638,
                    "duration": 0.18221566666670697
                },
                {
                    "name": "D#3",
                    "midi": 51,
                    "time": 1295.735605666658,
                    "velocity": 0.4015748031496063,
                    "duration": 0.18221566666670697
                },
                {
                    "name": "D3",
                    "midi": 50,
                    "time": 1295.9178213333248,
                    "velocity": 0.4645669291338583,
                    "duration": 0.18221566666670697
                },
                {
                    "name": "D#3",
                    "midi": 51,
                    "time": 1296.1000369999915,
                    "velocity": 0.4330708661417323,
                    "duration": 0.13666175000003022
                },
                {
                    "name": "D3",
                    "midi": 50,
                    "time": 1296.2366987499915,
                    "velocity": 0.49606299212598426,
                    "duration": 0.13666175000003022
                },
                {
                    "name": "D#3",
                    "midi": 51,
                    "time": 1296.3733604999916,
                    "velocity": 0.4409448818897638,
                    "duration": 0.13666175000003022
                },
                {
                    "name": "D3",
                    "midi": 50,
                    "time": 1296.5100222499916,
                    "velocity": 0.4566929133858268,
                    "duration": 0.13666175000003022
                },
                {
                    "name": "D#3",
                    "midi": 51,
                    "time": 1296.6466839999916,
                    "velocity": 0.5275590551181102,
                    "duration": 0.5466469999998935
                },
                {
                    "name": "D#4",
                    "midi": 63,
                    "time": 1296.6466839999916,
                    "velocity": 0.5275590551181102,
                    "duration": 0.5466469999998935
                },
                {
                    "name": "F#5",
                    "midi": 78,
                    "time": 1297.7399779999914,
                    "velocity": 0.44881889763779526,
                    "duration": 1.0932940000000144
                },
                {
                    "name": "F#2",
                    "midi": 42,
                    "time": 1298.8332719999914,
                    "velocity": 0.6062992125984252,
                    "duration": 0.5466469999998935
                },
                {
                    "name": "F#3",
                    "midi": 54,
                    "time": 1298.8332719999914,
                    "velocity": 0.6614173228346457,
                    "duration": 0.5466469999998935
                },
                {
                    "name": "D#1",
                    "midi": 27,
                    "time": 1299.9265659999912,
                    "velocity": 0.7874015748031497,
                    "duration": 0.18221566666670697
                },
                {
                    "name": "F1",
                    "midi": 29,
                    "time": 1300.108781666658,
                    "velocity": 0.4409448818897638,
                    "duration": 0.18221566666670697
                },
                {
                    "name": "D#1",
                    "midi": 27,
                    "time": 1300.2909973333246,
                    "velocity": 0.5196850393700787,
                    "duration": 0.18221566666670697
                },
                {
                    "name": "F1",
                    "midi": 29,
                    "time": 1300.4732129999913,
                    "velocity": 0.4330708661417323,
                    "duration": 0.18221566666670697
                },
                {
                    "name": "D#1",
                    "midi": 27,
                    "time": 1300.655428666658,
                    "velocity": 0.5196850393700787,
                    "duration": 0.18221566666670697
                },
                {
                    "name": "F1",
                    "midi": 29,
                    "time": 1300.8376443333248,
                    "velocity": 0.4251968503937008,
                    "duration": 0.18221566666670697
                },
                {
                    "name": "D#1",
                    "midi": 27,
                    "time": 1301.0198599999915,
                    "velocity": 0.5039370078740157,
                    "duration": 0.18221566666670697
                },
                {
                    "name": "F1",
                    "midi": 29,
                    "time": 1301.2020756666582,
                    "velocity": 0.44881889763779526,
                    "duration": 0.18221566666670697
                },
                {
                    "name": "D#1",
                    "midi": 27,
                    "time": 1301.3842913333249,
                    "velocity": 0.49606299212598426,
                    "duration": 0.18221566666670697
                },
                {
                    "name": "F1",
                    "midi": 29,
                    "time": 1301.5665069999916,
                    "velocity": 0.41732283464566927,
                    "duration": 0.18221566666670697
                },
                {
                    "name": "D#1",
                    "midi": 27,
                    "time": 1301.7487226666583,
                    "velocity": 0.4881889763779528,
                    "duration": 0.18221566666670697
                },
                {
                    "name": "F1",
                    "midi": 29,
                    "time": 1301.930938333325,
                    "velocity": 0.4330708661417323,
                    "duration": 0.18221566666670697
                },
                {
                    "name": "D#1",
                    "midi": 27,
                    "time": 1302.1131539999917,
                    "velocity": 0.4881889763779528,
                    "duration": 0.18221566666670697
                },
                {
                    "name": "F1",
                    "midi": 29,
                    "time": 1302.2953696666584,
                    "velocity": 0.4094488188976378,
                    "duration": 0.18221566666670697
                },
                {
                    "name": "D#1",
                    "midi": 27,
                    "time": 1302.4775853333251,
                    "velocity": 0.48031496062992124,
                    "duration": 0.18221566666670697
                },
                {
                    "name": "F1",
                    "midi": 29,
                    "time": 1302.6598009999918,
                    "velocity": 0.4015748031496063,
                    "duration": 0.18221566666670697
                },
                {
                    "name": "D#1",
                    "midi": 27,
                    "time": 1302.8420166666585,
                    "velocity": 0.4645669291338583,
                    "duration": 0.18221566666670697
                },
                {
                    "name": "F1",
                    "midi": 29,
                    "time": 1303.0242323333252,
                    "velocity": 0.3937007874015748,
                    "duration": 0.18221566666670697
                },
                {
                    "name": "D#1",
                    "midi": 27,
                    "time": 1303.206447999992,
                    "velocity": 0.4566929133858268,
                    "duration": 0.18221566666670697
                },
                {
                    "name": "F1",
                    "midi": 29,
                    "time": 1303.3886636666587,
                    "velocity": 0.3937007874015748,
                    "duration": 0.18221566666670697
                },
                {
                    "name": "D#1",
                    "midi": 27,
                    "time": 1303.5708793333254,
                    "velocity": 0.44881889763779526,
                    "duration": 0.18221566666670697
                },
                {
                    "name": "F1",
                    "midi": 29,
                    "time": 1303.753094999992,
                    "velocity": 0.4015748031496063,
                    "duration": 0.18221566666670697
                },
                {
                    "name": "D#1",
                    "midi": 27,
                    "time": 1303.9353106666588,
                    "velocity": 0.44881889763779526,
                    "duration": 0.18221566666670697
                },
                {
                    "name": "F1",
                    "midi": 29,
                    "time": 1304.1175263333255,
                    "velocity": 0.3858267716535433,
                    "duration": 0.18221566666670697
                },
                {
                    "name": "D#1",
                    "midi": 27,
                    "time": 1304.2997419999922,
                    "velocity": 0.4409448818897638,
                    "duration": 0.18221566666670697
                },
                {
                    "name": "F1",
                    "midi": 29,
                    "time": 1304.481957666659,
                    "velocity": 0.3858267716535433,
                    "duration": 0.18221566666670697
                },
                {
                    "name": "D#1",
                    "midi": 27,
                    "time": 1304.6641733333256,
                    "velocity": 0.4409448818897638,
                    "duration": 0.18221566666670697
                },
                {
                    "name": "F1",
                    "midi": 29,
                    "time": 1304.8463889999923,
                    "velocity": 0.3858267716535433,
                    "duration": 0.18221566666670697
                },
                {
                    "name": "D#1",
                    "midi": 27,
                    "time": 1305.028604666659,
                    "velocity": 0.4409448818897638,
                    "duration": 0.18221566666670697
                },
                {
                    "name": "F1",
                    "midi": 29,
                    "time": 1305.2108203333257,
                    "velocity": 0.3779527559055118,
                    "duration": 0.18221566666670697
                },
                {
                    "name": "D#1",
                    "midi": 27,
                    "time": 1305.3930359999924,
                    "velocity": 0.4409448818897638,
                    "duration": 0.18221566666670697
                },
                {
                    "name": "F1",
                    "midi": 29,
                    "time": 1305.5752516666591,
                    "velocity": 0.3779527559055118,
                    "duration": 0.18221566666670697
                },
                {
                    "name": "D#1",
                    "midi": 27,
                    "time": 1305.7574673333258,
                    "velocity": 0.4409448818897638,
                    "duration": 0.18221566666670697
                },
                {
                    "name": "F1",
                    "midi": 29,
                    "time": 1305.9396829999926,
                    "velocity": 0.3779527559055118,
                    "duration": 0.18221566666670697
                },
                {
                    "name": "D#1",
                    "midi": 27,
                    "time": 1306.1218986666593,
                    "velocity": 0.4409448818897638,
                    "duration": 0.18221566666670697
                },
                {
                    "name": "F1",
                    "midi": 29,
                    "time": 1306.304114333326,
                    "velocity": 0.3779527559055118,
                    "duration": 0.18221566666670697
                },
                {
                    "name": "D#1",
                    "midi": 27,
                    "time": 1306.4863299999927,
                    "velocity": 0.4409448818897638,
                    "duration": 0.18221566666670697
                },
                {
                    "name": "F1",
                    "midi": 29,
                    "time": 1306.6685456666594,
                    "velocity": 0.3858267716535433,
                    "duration": 0.18221566666670697
                },
                {
                    "name": "D#1",
                    "midi": 27,
                    "time": 1306.850761333326,
                    "velocity": 0.4409448818897638,
                    "duration": 0.18221566666670697
                },
                {
                    "name": "F1",
                    "midi": 29,
                    "time": 1307.0329769999928,
                    "velocity": 0.3937007874015748,
                    "duration": 0.18221566666670697
                },
                {
                    "name": "D#1",
                    "midi": 27,
                    "time": 1307.2151926666595,
                    "velocity": 0.4409448818897638,
                    "duration": 0.18221566666670697
                },
                {
                    "name": "F1",
                    "midi": 29,
                    "time": 1307.3974083333262,
                    "velocity": 0.3858267716535433,
                    "duration": 0.18221566666670697
                },
                {
                    "name": "D#1",
                    "midi": 27,
                    "time": 1307.579623999993,
                    "velocity": 0.4409448818897638,
                    "duration": 0.18221566666670697
                },
                {
                    "name": "F1",
                    "midi": 29,
                    "time": 1307.7618396666596,
                    "velocity": 0.3858267716535433,
                    "duration": 0.18221566666670697
                },
                {
                    "name": "D#1",
                    "midi": 27,
                    "time": 1307.9440553333263,
                    "velocity": 0.4409448818897638,
                    "duration": 0.18221566666670697
                },
                {
                    "name": "F1",
                    "midi": 29,
                    "time": 1308.126270999993,
                    "velocity": 0.3858267716535433,
                    "duration": 0.18221566666670697
                },
                {
                    "name": "D#1",
                    "midi": 27,
                    "time": 1308.3084866666597,
                    "velocity": 0.4409448818897638,
                    "duration": 0.18221566666670697
                },
                {
                    "name": "F1",
                    "midi": 29,
                    "time": 1308.4907023333265,
                    "velocity": 0.3779527559055118,
                    "duration": 0.18221566666670697
                },
                {
                    "name": "D#1",
                    "midi": 27,
                    "time": 1308.6729179999932,
                    "velocity": 0.4409448818897638,
                    "duration": 0.18221566666670697
                },
                {
                    "name": "F1",
                    "midi": 29,
                    "time": 1308.8551336666599,
                    "velocity": 0.3779527559055118,
                    "duration": 0.18221566666670697
                },
                {
                    "name": "D#1",
                    "midi": 27,
                    "time": 1309.0373493333266,
                    "velocity": 0.4409448818897638,
                    "duration": 0.18221566666670697
                },
                {
                    "name": "F1",
                    "midi": 29,
                    "time": 1309.2195649999933,
                    "velocity": 0.3779527559055118,
                    "duration": 0.18221566666670697
                },
                {
                    "name": "D#1",
                    "midi": 27,
                    "time": 1309.40178066666,
                    "velocity": 0.4409448818897638,
                    "duration": 0.18221566666670697
                },
                {
                    "name": "F1",
                    "midi": 29,
                    "time": 1309.5839963333267,
                    "velocity": 0.3779527559055118,
                    "duration": 0.18221566666670697
                },
                {
                    "name": "D#1",
                    "midi": 27,
                    "time": 1309.7662119999934,
                    "velocity": 0.4409448818897638,
                    "duration": 0.18221566666670697
                },
                {
                    "name": "F1",
                    "midi": 29,
                    "time": 1309.94842766666,
                    "velocity": 0.3858267716535433,
                    "duration": 0.18221566666670697
                },
                {
                    "name": "D#1",
                    "midi": 27,
                    "time": 1310.1306433333268,
                    "velocity": 0.4409448818897638,
                    "duration": 0.18221566666670697
                },
                {
                    "name": "F1",
                    "midi": 29,
                    "time": 1310.3128589999935,
                    "velocity": 0.3937007874015748,
                    "duration": 0.18221566666670697
                },
                {
                    "name": "D#1",
                    "midi": 27,
                    "time": 1310.4950746666602,
                    "velocity": 0.4409448818897638,
                    "duration": 0.18221566666670697
                },
                {
                    "name": "F1",
                    "midi": 29,
                    "time": 1310.677290333327,
                    "velocity": 0.3228346456692913,
                    "duration": 0.18221566666670697
                },
                {
                    "name": "F1",
                    "midi": 29,
                    "time": 1310.8595059999936,
                    "velocity": 0.23622047244094488,
                    "duration": 1.0932940000002418
                },
                {
                    "name": "A#1",
                    "midi": 34,
                    "time": 1310.8595059999936,
                    "velocity": 0.4251968503937008,
                    "duration": 0.18221566666670697
                },
                {
                    "name": "C2",
                    "midi": 36,
                    "time": 1311.0417216666604,
                    "velocity": 0.3464566929133858,
                    "duration": 0.18221566666670697
                },
                {
                    "name": "A#1",
                    "midi": 34,
                    "time": 1311.223937333327,
                    "velocity": 0.4094488188976378,
                    "duration": 0.18221566666670697
                },
                {
                    "name": "C2",
                    "midi": 36,
                    "time": 1311.4061529999938,
                    "velocity": 0.30708661417322836,
                    "duration": 0.18221566666670697
                },
                {
                    "name": "A#1",
                    "midi": 34,
                    "time": 1311.5883686666605,
                    "velocity": 0.3858267716535433,
                    "duration": 0.18221566666670697
                },
                {
                    "name": "C2",
                    "midi": 36,
                    "time": 1311.7705843333272,
                    "velocity": 0.2992125984251969,
                    "duration": 0.18221566666670697
                },
                {
                    "name": "F1",
                    "midi": 29,
                    "time": 1311.9527999999939,
                    "velocity": 0.23622047244094488,
                    "duration": 3.2798820000007254
                },
                {
                    "name": "A#1",
                    "midi": 34,
                    "time": 1311.9527999999939,
                    "velocity": 0.36220472440944884,
                    "duration": 0.18221566666670697
                },
                {
                    "name": "C2",
                    "midi": 36,
                    "time": 1312.1350156666606,
                    "velocity": 0.28346456692913385,
                    "duration": 0.18221566666670697
                },
                {
                    "name": "A#1",
                    "midi": 34,
                    "time": 1312.3172313333273,
                    "velocity": 0.3464566929133858,
                    "duration": 0.18221566666670697
                },
                {
                    "name": "C2",
                    "midi": 36,
                    "time": 1312.499446999994,
                    "velocity": 0.25984251968503935,
                    "duration": 0.18221566666670697
                },
                {
                    "name": "A#1",
                    "midi": 34,
                    "time": 1312.6816626666607,
                    "velocity": 0.3228346456692913,
                    "duration": 0.18221566666670697
                },
                {
                    "name": "C2",
                    "midi": 36,
                    "time": 1312.8638783333274,
                    "velocity": 0.23622047244094488,
                    "duration": 0.18221566666670697
                },
                {
                    "name": "A#1",
                    "midi": 34,
                    "time": 1313.0460939999941,
                    "velocity": 0.29133858267716534,
                    "duration": 0.18221566666670697
                },
                {
                    "name": "C2",
                    "midi": 36,
                    "time": 1313.2283096666608,
                    "velocity": 0.2440944881889764,
                    "duration": 0.18221566666670697
                },
                {
                    "name": "A#1",
                    "midi": 34,
                    "time": 1313.4105253333275,
                    "velocity": 0.29133858267716534,
                    "duration": 0.18221566666670697
                },
                {
                    "name": "C2",
                    "midi": 36,
                    "time": 1313.5927409999942,
                    "velocity": 0.25196850393700787,
                    "duration": 0.18221566666670697
                },
                {
                    "name": "A#1",
                    "midi": 34,
                    "time": 1313.774956666661,
                    "velocity": 0.29133858267716534,
                    "duration": 0.18221566666670697
                },
                {
                    "name": "C2",
                    "midi": 36,
                    "time": 1313.9571723333277,
                    "velocity": 0.25196850393700787,
                    "duration": 0.18221566666670697
                },
                {
                    "name": "A#1",
                    "midi": 34,
                    "time": 1314.1393879999944,
                    "velocity": 0.29133858267716534,
                    "duration": 0.18221566666670697
                },
                {
                    "name": "C2",
                    "midi": 36,
                    "time": 1314.321603666661,
                    "velocity": 0.2440944881889764,
                    "duration": 0.18221566666670697
                },
                {
                    "name": "A#1",
                    "midi": 34,
                    "time": 1314.5038193333278,
                    "velocity": 0.29133858267716534,
                    "duration": 0.18221566666670697
                },
                {
                    "name": "C2",
                    "midi": 36,
                    "time": 1314.6860349999945,
                    "velocity": 0.23622047244094488,
                    "duration": 0.18221566666670697
                },
                {
                    "name": "A#1",
                    "midi": 34,
                    "time": 1314.8682506666612,
                    "velocity": 0.29133858267716534,
                    "duration": 0.18221566666670697
                },
                {
                    "name": "C2",
                    "midi": 36,
                    "time": 1315.050466333328,
                    "velocity": 0.2440944881889764,
                    "duration": 0.18221566666670697
                },
                {
                    "name": "A#1",
                    "midi": 34,
                    "time": 1315.2326819999946,
                    "velocity": 0.29133858267716534,
                    "duration": 0.18221566666670697
                },
                {
                    "name": "F1",
                    "midi": 29,
                    "time": 1315.2326819999946,
                    "velocity": 0.23622047244094488,
                    "duration": 3.2798820000007254
                },
                {
                    "name": "C2",
                    "midi": 36,
                    "time": 1315.4148976666613,
                    "velocity": 0.2440944881889764,
                    "duration": 0.18221566666670697
                },
                {
                    "name": "A#1",
                    "midi": 34,
                    "time": 1315.597113333328,
                    "velocity": 0.29133858267716534,
                    "duration": 0.18221566666670697
                },
                {
                    "name": "C2",
                    "midi": 36,
                    "time": 1315.7793289999947,
                    "velocity": 0.23622047244094488,
                    "duration": 0.18221566666670697
                },
                {
                    "name": "A#1",
                    "midi": 34,
                    "time": 1315.9615446666614,
                    "velocity": 0.29133858267716534,
                    "duration": 0.18221566666670697
                },
                {
                    "name": "C2",
                    "midi": 36,
                    "time": 1316.1437603333281,
                    "velocity": 0.2440944881889764,
                    "duration": 0.18221566666670697
                },
                {
                    "name": "A#1",
                    "midi": 34,
                    "time": 1316.3259759999949,
                    "velocity": 0.29133858267716534,
                    "duration": 0.18221566666670697
                },
                {
                    "name": "C2",
                    "midi": 36,
                    "time": 1316.5081916666616,
                    "velocity": 0.2440944881889764,
                    "duration": 0.18221566666670697
                },
                {
                    "name": "A#1",
                    "midi": 34,
                    "time": 1316.6904073333283,
                    "velocity": 0.29133858267716534,
                    "duration": 0.18221566666670697
                },
                {
                    "name": "C2",
                    "midi": 36,
                    "time": 1316.872622999995,
                    "velocity": 0.23622047244094488,
                    "duration": 0.18221566666670697
                },
                {
                    "name": "A#1",
                    "midi": 34,
                    "time": 1317.0548386666617,
                    "velocity": 0.29133858267716534,
                    "duration": 0.18221566666670697
                },
                {
                    "name": "C2",
                    "midi": 36,
                    "time": 1317.2370543333284,
                    "velocity": 0.2440944881889764,
                    "duration": 0.18221566666670697
                },
                {
                    "name": "A#1",
                    "midi": 34,
                    "time": 1317.419269999995,
                    "velocity": 0.29133858267716534,
                    "duration": 0.18221566666670697
                },
                {
                    "name": "C2",
                    "midi": 36,
                    "time": 1317.6014856666618,
                    "velocity": 0.2440944881889764,
                    "duration": 0.18221566666670697
                },
                {
                    "name": "A#1",
                    "midi": 34,
                    "time": 1317.7837013333285,
                    "velocity": 0.29133858267716534,
                    "duration": 0.18221566666670697
                },
                {
                    "name": "C2",
                    "midi": 36,
                    "time": 1317.9659169999952,
                    "velocity": 0.23622047244094488,
                    "duration": 0.18221566666670697
                },
                {
                    "name": "A#1",
                    "midi": 34,
                    "time": 1318.148132666662,
                    "velocity": 0.29133858267716534,
                    "duration": 0.18221566666670697
                },
                {
                    "name": "C2",
                    "midi": 36,
                    "time": 1318.3303483333286,
                    "velocity": 0.2440944881889764,
                    "duration": 0.18221566666670697
                },
                {
                    "name": "A#1",
                    "midi": 34,
                    "time": 1318.5125639999953,
                    "velocity": 0.29133858267716534,
                    "duration": 0.18221566666670697
                },
                {
                    "name": "F1",
                    "midi": 29,
                    "time": 1318.5125639999953,
                    "velocity": 0.23622047244094488,
                    "duration": 3.2798820000007254
                },
                {
                    "name": "C2",
                    "midi": 36,
                    "time": 1318.694779666662,
                    "velocity": 0.2440944881889764,
                    "duration": 0.18221566666670697
                },
                {
                    "name": "A#1",
                    "midi": 34,
                    "time": 1318.8769953333288,
                    "velocity": 0.29133858267716534,
                    "duration": 0.18221566666670697
                },
                {
                    "name": "C2",
                    "midi": 36,
                    "time": 1319.0592109999955,
                    "velocity": 0.23622047244094488,
                    "duration": 0.18221566666670697
                },
                {
                    "name": "A#1",
                    "midi": 34,
                    "time": 1319.2414266666622,
                    "velocity": 0.29133858267716534,
                    "duration": 0.18221566666670697
                },
                {
                    "name": "C2",
                    "midi": 36,
                    "time": 1319.4236423333289,
                    "velocity": 0.2440944881889764,
                    "duration": 0.18221566666670697
                },
                {
                    "name": "A#1",
                    "midi": 34,
                    "time": 1319.6058579999956,
                    "velocity": 0.29133858267716534,
                    "duration": 0.18221566666670697
                },
                {
                    "name": "C2",
                    "midi": 36,
                    "time": 1319.7880736666623,
                    "velocity": 0.2440944881889764,
                    "duration": 0.18221566666670697
                },
                {
                    "name": "A#1",
                    "midi": 34,
                    "time": 1319.970289333329,
                    "velocity": 0.29133858267716534,
                    "duration": 0.18221566666670697
                },
                {
                    "name": "C2",
                    "midi": 36,
                    "time": 1320.1525049999957,
                    "velocity": 0.23622047244094488,
                    "duration": 0.18221566666670697
                },
                {
                    "name": "A#1",
                    "midi": 34,
                    "time": 1320.3347206666624,
                    "velocity": 0.29133858267716534,
                    "duration": 0.18221566666670697
                },
                {
                    "name": "C2",
                    "midi": 36,
                    "time": 1320.516936333329,
                    "velocity": 0.2440944881889764,
                    "duration": 0.18221566666670697
                },
                {
                    "name": "A#1",
                    "midi": 34,
                    "time": 1320.6991519999958,
                    "velocity": 0.29133858267716534,
                    "duration": 0.18221566666670697
                },
                {
                    "name": "C2",
                    "midi": 36,
                    "time": 1320.8813676666625,
                    "velocity": 0.2440944881889764,
                    "duration": 0.18221566666670697
                },
                {
                    "name": "A#1",
                    "midi": 34,
                    "time": 1321.0635833333292,
                    "velocity": 0.29133858267716534,
                    "duration": 0.18221566666670697
                },
                {
                    "name": "C2",
                    "midi": 36,
                    "time": 1321.245798999996,
                    "velocity": 0.23622047244094488,
                    "duration": 0.18221566666670697
                },
                {
                    "name": "A#1",
                    "midi": 34,
                    "time": 1321.4280146666626,
                    "velocity": 0.29133858267716534,
                    "duration": 0.18221566666670697
                },
                {
                    "name": "C2",
                    "midi": 36,
                    "time": 1321.6102303333294,
                    "velocity": 0.2440944881889764,
                    "duration": 0.18221566666670697
                },
                {
                    "name": "F1",
                    "midi": 29,
                    "time": 1321.792445999996,
                    "velocity": 0.23622047244094488,
                    "duration": 3.2798820000007254
                },
                {
                    "name": "A#1",
                    "midi": 34,
                    "time": 1321.792445999996,
                    "velocity": 0.29133858267716534,
                    "duration": 0.18221566666670697
                },
                {
                    "name": "C2",
                    "midi": 36,
                    "time": 1321.9746616666628,
                    "velocity": 0.2440944881889764,
                    "duration": 0.18221566666670697
                },
                {
                    "name": "A#1",
                    "midi": 34,
                    "time": 1322.1568773333295,
                    "velocity": 0.29133858267716534,
                    "duration": 0.18221566666670697
                },
                {
                    "name": "C2",
                    "midi": 36,
                    "time": 1322.3390929999962,
                    "velocity": 0.23622047244094488,
                    "duration": 0.18221566666670697
                },
                {
                    "name": "A#1",
                    "midi": 34,
                    "time": 1322.521308666663,
                    "velocity": 0.29133858267716534,
                    "duration": 0.18221566666670697
                },
                {
                    "name": "C2",
                    "midi": 36,
                    "time": 1322.7035243333296,
                    "velocity": 0.2440944881889764,
                    "duration": 0.18221566666670697
                },
                {
                    "name": "A#1",
                    "midi": 34,
                    "time": 1322.8857399999963,
                    "velocity": 0.29133858267716534,
                    "duration": 0.18221566666670697
                },
                {
                    "name": "C2",
                    "midi": 36,
                    "time": 1323.067955666663,
                    "velocity": 0.2440944881889764,
                    "duration": 0.18221566666670697
                },
                {
                    "name": "A#1",
                    "midi": 34,
                    "time": 1323.2501713333297,
                    "velocity": 0.29133858267716534,
                    "duration": 0.18221566666670697
                },
                {
                    "name": "C2",
                    "midi": 36,
                    "time": 1323.4323869999964,
                    "velocity": 0.23622047244094488,
                    "duration": 0.18221566666670697
                },
                {
                    "name": "A#1",
                    "midi": 34,
                    "time": 1323.6146026666631,
                    "velocity": 0.29133858267716534,
                    "duration": 0.18221566666670697
                },
                {
                    "name": "C2",
                    "midi": 36,
                    "time": 1323.7968183333298,
                    "velocity": 0.2440944881889764,
                    "duration": 0.18221566666670697
                },
                {
                    "name": "A#1",
                    "midi": 34,
                    "time": 1323.9790339999965,
                    "velocity": 0.29133858267716534,
                    "duration": 0.18221566666670697
                },
                {
                    "name": "C2",
                    "midi": 36,
                    "time": 1324.1612496666633,
                    "velocity": 0.2440944881889764,
                    "duration": 0.18221566666670697
                },
                {
                    "name": "A#1",
                    "midi": 34,
                    "time": 1324.34346533333,
                    "velocity": 0.29133858267716534,
                    "duration": 0.18221566666670697
                },
                {
                    "name": "C2",
                    "midi": 36,
                    "time": 1324.5256809999967,
                    "velocity": 0.23622047244094488,
                    "duration": 0.18221566666670697
                },
                {
                    "name": "A#1",
                    "midi": 34,
                    "time": 1324.7078966666634,
                    "velocity": 0.29133858267716534,
                    "duration": 0.18221566666670697
                },
                {
                    "name": "C2",
                    "midi": 36,
                    "time": 1324.89011233333,
                    "velocity": 0.2440944881889764,
                    "duration": 0.18221566666670697
                },
                {
                    "name": "F1",
                    "midi": 29,
                    "time": 1325.0723279999968,
                    "velocity": 0.23622047244094488,
                    "duration": 3.2798820000007254
                },
                {
                    "name": "A#1",
                    "midi": 34,
                    "time": 1325.0723279999968,
                    "velocity": 0.29133858267716534,
                    "duration": 0.18221566666670697
                },
                {
                    "name": "C2",
                    "midi": 36,
                    "time": 1325.2545436666635,
                    "velocity": 0.2440944881889764,
                    "duration": 0.18221566666670697
                },
                {
                    "name": "A#1",
                    "midi": 34,
                    "time": 1325.4367593333302,
                    "velocity": 0.29133858267716534,
                    "duration": 0.18221566666670697
                },
                {
                    "name": "C2",
                    "midi": 36,
                    "time": 1325.618974999997,
                    "velocity": 0.23622047244094488,
                    "duration": 0.18221566666670697
                },
                {
                    "name": "A#1",
                    "midi": 34,
                    "time": 1325.8011906666636,
                    "velocity": 0.29133858267716534,
                    "duration": 0.18221566666670697
                },
                {
                    "name": "C2",
                    "midi": 36,
                    "time": 1325.9834063333303,
                    "velocity": 0.2440944881889764,
                    "duration": 0.18221566666670697
                },
                {
                    "name": "A#1",
                    "midi": 34,
                    "time": 1326.165621999997,
                    "velocity": 0.29133858267716534,
                    "duration": 0.18221566666670697
                },
                {
                    "name": "C2",
                    "midi": 36,
                    "time": 1326.3478376666637,
                    "velocity": 0.2440944881889764,
                    "duration": 0.18221566666670697
                },
                {
                    "name": "A#1",
                    "midi": 34,
                    "time": 1326.5300533333304,
                    "velocity": 0.29133858267716534,
                    "duration": 0.18221566666670697
                },
                {
                    "name": "C2",
                    "midi": 36,
                    "time": 1326.7122689999971,
                    "velocity": 0.23622047244094488,
                    "duration": 0.18221566666670697
                },
                {
                    "name": "A#1",
                    "midi": 34,
                    "time": 1326.8944846666639,
                    "velocity": 0.29133858267716534,
                    "duration": 0.18221566666670697
                },
                {
                    "name": "C2",
                    "midi": 36,
                    "time": 1327.0767003333306,
                    "velocity": 0.2440944881889764,
                    "duration": 0.18221566666670697
                },
                {
                    "name": "A#1",
                    "midi": 34,
                    "time": 1327.2589159999973,
                    "velocity": 0.29133858267716534,
                    "duration": 0.18221566666670697
                },
                {
                    "name": "C2",
                    "midi": 36,
                    "time": 1327.441131666664,
                    "velocity": 0.2440944881889764,
                    "duration": 0.18221566666670697
                },
                {
                    "name": "A#1",
                    "midi": 34,
                    "time": 1327.6233473333307,
                    "velocity": 0.29133858267716534,
                    "duration": 0.18221566666670697
                },
                {
                    "name": "C2",
                    "midi": 36,
                    "time": 1327.8055629999974,
                    "velocity": 0.23622047244094488,
                    "duration": 0.18221566666670697
                },
                {
                    "name": "A#1",
                    "midi": 34,
                    "time": 1327.987778666664,
                    "velocity": 0.29133858267716534,
                    "duration": 0.18221566666670697
                },
                {
                    "name": "C2",
                    "midi": 36,
                    "time": 1328.1699943333308,
                    "velocity": 0.2440944881889764,
                    "duration": 0.18221566666670697
                },
                {
                    "name": "A#1",
                    "midi": 34,
                    "time": 1328.3522099999975,
                    "velocity": 0.29133858267716534,
                    "duration": 0.18221566666670697
                },
                {
                    "name": "F1",
                    "midi": 29,
                    "time": 1328.3522099999975,
                    "velocity": 0.23622047244094488,
                    "duration": 3.2798820000007254
                },
                {
                    "name": "C2",
                    "midi": 36,
                    "time": 1328.5344256666642,
                    "velocity": 0.2440944881889764,
                    "duration": 0.18221566666670697
                },
                {
                    "name": "A#1",
                    "midi": 34,
                    "time": 1328.716641333331,
                    "velocity": 0.29133858267716534,
                    "duration": 0.18221566666670697
                },
                {
                    "name": "C2",
                    "midi": 36,
                    "time": 1328.8988569999976,
                    "velocity": 0.23622047244094488,
                    "duration": 0.18221566666670697
                },
                {
                    "name": "A#1",
                    "midi": 34,
                    "time": 1329.0810726666643,
                    "velocity": 0.29133858267716534,
                    "duration": 0.18221566666670697
                },
                {
                    "name": "C2",
                    "midi": 36,
                    "time": 1329.263288333331,
                    "velocity": 0.2440944881889764,
                    "duration": 0.18221566666670697
                },
                {
                    "name": "A#1",
                    "midi": 34,
                    "time": 1329.4455039999978,
                    "velocity": 0.29133858267716534,
                    "duration": 0.18221566666670697
                },
                {
                    "name": "C2",
                    "midi": 36,
                    "time": 1329.6277196666645,
                    "velocity": 0.2440944881889764,
                    "duration": 0.18221566666670697
                },
                {
                    "name": "A#1",
                    "midi": 34,
                    "time": 1329.8099353333312,
                    "velocity": 0.29133858267716534,
                    "duration": 0.18221566666670697
                },
                {
                    "name": "C2",
                    "midi": 36,
                    "time": 1329.9921509999979,
                    "velocity": 0.23622047244094488,
                    "duration": 0.18221566666670697
                },
                {
                    "name": "A#1",
                    "midi": 34,
                    "time": 1330.1743666666646,
                    "velocity": 0.29133858267716534,
                    "duration": 0.18221566666670697
                },
                {
                    "name": "C2",
                    "midi": 36,
                    "time": 1330.3565823333313,
                    "velocity": 0.2440944881889764,
                    "duration": 0.18221566666670697
                },
                {
                    "name": "A#1",
                    "midi": 34,
                    "time": 1330.538797999998,
                    "velocity": 0.29133858267716534,
                    "duration": 0.18221566666670697
                },
                {
                    "name": "C2",
                    "midi": 36,
                    "time": 1330.7210136666647,
                    "velocity": 0.2440944881889764,
                    "duration": 0.18221566666670697
                },
                {
                    "name": "A#1",
                    "midi": 34,
                    "time": 1330.9032293333314,
                    "velocity": 0.29133858267716534,
                    "duration": 0.18221566666670697
                },
                {
                    "name": "C2",
                    "midi": 36,
                    "time": 1331.0854449999981,
                    "velocity": 0.23622047244094488,
                    "duration": 0.18221566666670697
                },
                {
                    "name": "A#1",
                    "midi": 34,
                    "time": 1331.2676606666648,
                    "velocity": 0.29133858267716534,
                    "duration": 0.18221566666670697
                },
                {
                    "name": "C2",
                    "midi": 36,
                    "time": 1331.4498763333315,
                    "velocity": 0.2440944881889764,
                    "duration": 0.18221566666670697
                },
                {
                    "name": "F1",
                    "midi": 29,
                    "time": 1331.6320919999982,
                    "velocity": 0.23622047244094488,
                    "duration": 1.0932940000002418
                },
                {
                    "name": "A#1",
                    "midi": 34,
                    "time": 1331.6320919999982,
                    "velocity": 0.29133858267716534,
                    "duration": 0.13666175000003022
                },
                {
                    "name": "C2",
                    "midi": 36,
                    "time": 1331.7687537499983,
                    "velocity": 0.2440944881889764,
                    "duration": 0.13666175000003022
                },
                {
                    "name": "A#1",
                    "midi": 34,
                    "time": 1331.9054154999983,
                    "velocity": 0.29133858267716534,
                    "duration": 0.13666175000003022
                },
                {
                    "name": "C2",
                    "midi": 36,
                    "time": 1332.0420772499983,
                    "velocity": 0.23622047244094488,
                    "duration": 0.13666175000003022
                },
                {
                    "name": "A#1",
                    "midi": 34,
                    "time": 1332.1787389999984,
                    "velocity": 0.29133858267716534,
                    "duration": 0.13666175000003022
                },
                {
                    "name": "C2",
                    "midi": 36,
                    "time": 1332.3154007499984,
                    "velocity": 0.2440944881889764,
                    "duration": 0.13666175000003022
                },
                {
                    "name": "A#1",
                    "midi": 34,
                    "time": 1332.4520624999984,
                    "velocity": 0.29133858267716534,
                    "duration": 0.13666175000003022
                },
                {
                    "name": "C2",
                    "midi": 36,
                    "time": 1332.5887242499984,
                    "velocity": 0.2440944881889764,
                    "duration": 0.13666175000003022
                },
                {
                    "name": "F1",
                    "midi": 29,
                    "time": 1332.7253859999985,
                    "velocity": 0.23622047244094488,
                    "duration": 1.0932940000002418
                },
                {
                    "name": "A#1",
                    "midi": 34,
                    "time": 1332.7253859999985,
                    "velocity": 0.29133858267716534,
                    "duration": 0.13666175000003022
                },
                {
                    "name": "C2",
                    "midi": 36,
                    "time": 1332.8620477499985,
                    "velocity": 0.23622047244094488,
                    "duration": 0.13666175000003022
                },
                {
                    "name": "A#1",
                    "midi": 34,
                    "time": 1332.9987094999985,
                    "velocity": 0.29133858267716534,
                    "duration": 0.13666175000003022
                },
                {
                    "name": "C2",
                    "midi": 36,
                    "time": 1333.1353712499986,
                    "velocity": 0.2440944881889764,
                    "duration": 0.13666175000003022
                },
                {
                    "name": "A#1",
                    "midi": 34,
                    "time": 1333.2720329999986,
                    "velocity": 0.29133858267716534,
                    "duration": 0.13666175000003022
                },
                {
                    "name": "C2",
                    "midi": 36,
                    "time": 1333.4086947499986,
                    "velocity": 0.2440944881889764,
                    "duration": 0.13666175000003022
                },
                {
                    "name": "A#1",
                    "midi": 34,
                    "time": 1333.5453564999987,
                    "velocity": 0.29133858267716534,
                    "duration": 0.13666175000003022
                },
                {
                    "name": "C2",
                    "midi": 36,
                    "time": 1333.6820182499987,
                    "velocity": 0.23622047244094488,
                    "duration": 0.13666175000003022
                },
                {
                    "name": "F1",
                    "midi": 29,
                    "time": 1333.8186799999987,
                    "velocity": 0.23622047244094488,
                    "duration": 1.0932940000002418
                },
                {
                    "name": "A#1",
                    "midi": 34,
                    "time": 1333.8186799999987,
                    "velocity": 0.29133858267716534,
                    "duration": 0.13666175000003022
                },
                {
                    "name": "C2",
                    "midi": 36,
                    "time": 1333.9553417499988,
                    "velocity": 0.2440944881889764,
                    "duration": 0.13666175000003022
                },
                {
                    "name": "A#1",
                    "midi": 34,
                    "time": 1334.0920034999988,
                    "velocity": 0.29133858267716534,
                    "duration": 0.13666175000003022
                },
                {
                    "name": "C2",
                    "midi": 36,
                    "time": 1334.2286652499988,
                    "velocity": 0.2440944881889764,
                    "duration": 0.13666175000003022
                },
                {
                    "name": "A#1",
                    "midi": 34,
                    "time": 1334.3653269999988,
                    "velocity": 0.29133858267716534,
                    "duration": 0.13666175000003022
                },
                {
                    "name": "C2",
                    "midi": 36,
                    "time": 1334.5019887499989,
                    "velocity": 0.23622047244094488,
                    "duration": 0.13666175000003022
                },
                {
                    "name": "A#1",
                    "midi": 34,
                    "time": 1334.638650499999,
                    "velocity": 0.29133858267716534,
                    "duration": 0.13666175000003022
                },
                {
                    "name": "C2",
                    "midi": 36,
                    "time": 1334.775312249999,
                    "velocity": 0.2440944881889764,
                    "duration": 0.13666175000003022
                },
                {
                    "name": "F1",
                    "midi": 29,
                    "time": 1334.911973999999,
                    "velocity": 0.23622047244094488,
                    "duration": 1.0932940000002418
                },
                {
                    "name": "A#1",
                    "midi": 34,
                    "time": 1334.911973999999,
                    "velocity": 0.29133858267716534,
                    "duration": 0.13666175000003022
                },
                {
                    "name": "C2",
                    "midi": 36,
                    "time": 1335.048635749999,
                    "velocity": 0.2440944881889764,
                    "duration": 0.13666175000003022
                },
                {
                    "name": "A#1",
                    "midi": 34,
                    "time": 1335.185297499999,
                    "velocity": 0.29133858267716534,
                    "duration": 0.13666175000003022
                },
                {
                    "name": "C2",
                    "midi": 36,
                    "time": 1335.321959249999,
                    "velocity": 0.2440944881889764,
                    "duration": 0.13666175000003022
                },
                {
                    "name": "A#1",
                    "midi": 34,
                    "time": 1335.458620999999,
                    "velocity": 0.29133858267716534,
                    "duration": 0.13666175000003022
                },
                {
                    "name": "C2",
                    "midi": 36,
                    "time": 1335.5952827499991,
                    "velocity": 0.23622047244094488,
                    "duration": 0.13666175000003022
                },
                {
                    "name": "A#1",
                    "midi": 34,
                    "time": 1335.7319444999991,
                    "velocity": 0.29133858267716534,
                    "duration": 0.13666175000003022
                },
                {
                    "name": "C2",
                    "midi": 36,
                    "time": 1335.8686062499992,
                    "velocity": 0.2440944881889764,
                    "duration": 0.13666175000003022
                },
                {
                    "name": "F1",
                    "midi": 29,
                    "time": 1336.0052679999992,
                    "velocity": 0.23622047244094488,
                    "duration": 1.0932940000002418
                },
                {
                    "name": "A#1",
                    "midi": 34,
                    "time": 1336.0052679999992,
                    "velocity": 0.29133858267716534,
                    "duration": 0.13666175000003022
                },
                {
                    "name": "C2",
                    "midi": 36,
                    "time": 1336.1419297499992,
                    "velocity": 0.2440944881889764,
                    "duration": 0.13666175000003022
                },
                {
                    "name": "A#1",
                    "midi": 34,
                    "time": 1336.2785914999993,
                    "velocity": 0.29133858267716534,
                    "duration": 0.13666175000003022
                },
                {
                    "name": "C2",
                    "midi": 36,
                    "time": 1336.4152532499993,
                    "velocity": 0.2440944881889764,
                    "duration": 0.13666175000003022
                },
                {
                    "name": "A#1",
                    "midi": 34,
                    "time": 1336.5519149999993,
                    "velocity": 0.29133858267716534,
                    "duration": 0.13666175000003022
                },
                {
                    "name": "C2",
                    "midi": 36,
                    "time": 1336.6885767499994,
                    "velocity": 0.23622047244094488,
                    "duration": 0.13666175000003022
                },
                {
                    "name": "A#1",
                    "midi": 34,
                    "time": 1336.8252384999994,
                    "velocity": 0.29133858267716534,
                    "duration": 0.13666175000003022
                },
                {
                    "name": "C2",
                    "midi": 36,
                    "time": 1336.9619002499994,
                    "velocity": 0.2440944881889764,
                    "duration": 0.13666175000003022
                },
                {
                    "name": "F1",
                    "midi": 29,
                    "time": 1337.0985619999994,
                    "velocity": 0.23622047244094488,
                    "duration": 1.0932940000002418
                },
                {
                    "name": "A#1",
                    "midi": 34,
                    "time": 1337.0985619999994,
                    "velocity": 0.29133858267716534,
                    "duration": 0.13666175000003022
                },
                {
                    "name": "C2",
                    "midi": 36,
                    "time": 1337.2352237499995,
                    "velocity": 0.2440944881889764,
                    "duration": 0.13666175000003022
                },
                {
                    "name": "A#1",
                    "midi": 34,
                    "time": 1337.3718854999995,
                    "velocity": 0.29133858267716534,
                    "duration": 0.13666175000003022
                },
                {
                    "name": "C2",
                    "midi": 36,
                    "time": 1337.5085472499995,
                    "velocity": 0.29133858267716534,
                    "duration": 0.18221566666670697
                },
                {
                    "name": "A#1",
                    "midi": 34,
                    "time": 1337.6452089999996,
                    "velocity": 0.29133858267716534,
                    "duration": 0.18221566666670697
                },
                {
                    "name": "A1",
                    "midi": 33,
                    "time": 1337.8274246666663,
                    "velocity": 0.2755905511811024,
                    "duration": 0.18221566666670697
                },
                {
                    "name": "A#1",
                    "midi": 34,
                    "time": 1338.009640333333,
                    "velocity": 0.2755905511811024,
                    "duration": 0.18221566666670697
                },
                {
                    "name": "F#1",
                    "midi": 30,
                    "time": 1338.1918559999997,
                    "velocity": 0.2755905511811024,
                    "duration": 1.0932940000000144
                },
                {
                    "name": "A#1",
                    "midi": 34,
                    "time": 1338.1918559999997,
                    "velocity": 0.2755905511811024,
                    "duration": 1.0932940000000144
                },
                {
                    "name": "F#2",
                    "midi": 42,
                    "time": 1338.1918559999997,
                    "velocity": 0.33070866141732286,
                    "duration": 1.0932940000000144
                },
                {
                    "name": "G1",
                    "midi": 31,
                    "time": 1339.2851499999997,
                    "velocity": 0.2755905511811024,
                    "duration": 2.186588000000029
                },
                {
                    "name": "A#1",
                    "midi": 34,
                    "time": 1339.2851499999997,
                    "velocity": 0.2755905511811024,
                    "duration": 2.186588000000029
                },
                {
                    "name": "G2",
                    "midi": 43,
                    "time": 1339.2851499999997,
                    "velocity": 0.33070866141732286,
                    "duration": 2.186588000000029
                },
                {
                    "name": "G3",
                    "midi": 55,
                    "time": 1341.4717379999997,
                    "velocity": 0.29133858267716534,
                    "duration": 0.13666175000003022
                },
                {
                    "name": "A3",
                    "midi": 57,
                    "time": 1341.6083997499998,
                    "velocity": 0.25984251968503935,
                    "duration": 0.13666175000003022
                },
                {
                    "name": "G3",
                    "midi": 55,
                    "time": 1341.7450614999998,
                    "velocity": 0.29133858267716534,
                    "duration": 0.13666175000003022
                },
                {
                    "name": "A3",
                    "midi": 57,
                    "time": 1341.8817232499998,
                    "velocity": 0.25984251968503935,
                    "duration": 0.13666175000003022
                },
                {
                    "name": "G3",
                    "midi": 55,
                    "time": 1342.0183849999999,
                    "velocity": 0.29133858267716534,
                    "duration": 0.13666175000003022
                },
                {
                    "name": "A3",
                    "midi": 57,
                    "time": 1342.1550467499999,
                    "velocity": 0.25984251968503935,
                    "duration": 0.13666175000003022
                },
                {
                    "name": "G3",
                    "midi": 55,
                    "time": 1342.2917085,
                    "velocity": 0.29133858267716534,
                    "duration": 0.13666175000003022
                },
                {
                    "name": "A3",
                    "midi": 57,
                    "time": 1342.42837025,
                    "velocity": 0.25984251968503935,
                    "duration": 0.13666175000003022
                },
                {
                    "name": "G3",
                    "midi": 55,
                    "time": 1342.565032,
                    "velocity": 0.29133858267716534,
                    "duration": 0.13666175000003022
                },
                {
                    "name": "A3",
                    "midi": 57,
                    "time": 1342.70169375,
                    "velocity": 0.25984251968503935,
                    "duration": 0.13666175000003022
                },
                {
                    "name": "G3",
                    "midi": 55,
                    "time": 1342.8383555,
                    "velocity": 0.29133858267716534,
                    "duration": 0.13666175000003022
                },
                {
                    "name": "A3",
                    "midi": 57,
                    "time": 1342.97501725,
                    "velocity": 0.2677165354330709,
                    "duration": 0.13666175000003022
                },
                {
                    "name": "G3",
                    "midi": 55,
                    "time": 1343.111679,
                    "velocity": 0.29133858267716534,
                    "duration": 0.18221566666670697
                },
                {
                    "name": "F3",
                    "midi": 53,
                    "time": 1343.2938946666668,
                    "velocity": 0.25984251968503935,
                    "duration": 0.18221566666670697
                },
                {
                    "name": "G3",
                    "midi": 55,
                    "time": 1343.4761103333335,
                    "velocity": 0.25984251968503935,
                    "duration": 0.18221566666670697
                },
                {
                    "name": "A3",
                    "midi": 57,
                    "time": 1343.6583260000002,
                    "velocity": 0.33070866141732286,
                    "duration": 1.0932940000000144
                },
                {
                    "name": "C4",
                    "midi": 60,
                    "time": 1344.7516200000002,
                    "velocity": 0.30708661417322836,
                    "duration": 0.13666175000003022
                },
                {
                    "name": "D4",
                    "midi": 62,
                    "time": 1344.8882817500003,
                    "velocity": 0.2755905511811024,
                    "duration": 0.13666175000003022
                },
                {
                    "name": "C4",
                    "midi": 60,
                    "time": 1345.0249435000003,
                    "velocity": 0.30708661417322836,
                    "duration": 0.13666175000003022
                },
                {
                    "name": "D4",
                    "midi": 62,
                    "time": 1345.1616052500003,
                    "velocity": 0.2755905511811024,
                    "duration": 0.13666175000003022
                },
                {
                    "name": "C4",
                    "midi": 60,
                    "time": 1345.2982670000004,
                    "velocity": 0.30708661417322836,
                    "duration": 0.13666175000003022
                },
                {
                    "name": "D4",
                    "midi": 62,
                    "time": 1345.4349287500004,
                    "velocity": 0.2755905511811024,
                    "duration": 0.13666175000003022
                },
                {
                    "name": "C4",
                    "midi": 60,
                    "time": 1345.5715905000004,
                    "velocity": 0.30708661417322836,
                    "duration": 0.13666175000003022
                },
                {
                    "name": "D4",
                    "midi": 62,
                    "time": 1345.7082522500004,
                    "velocity": 0.2755905511811024,
                    "duration": 0.13666175000003022
                },
                {
                    "name": "C4",
                    "midi": 60,
                    "time": 1345.8449140000005,
                    "velocity": 0.30708661417322836,
                    "duration": 0.13666175000003022
                },
                {
                    "name": "F3",
                    "midi": 53,
                    "time": 1345.8449140000005,
                    "velocity": 0.4094488188976378,
                    "duration": 1.0932940000002418
                },
                {
                    "name": "D4",
                    "midi": 62,
                    "time": 1345.9815757500005,
                    "velocity": 0.2755905511811024,
                    "duration": 0.13666175000003022
                },
                {
                    "name": "C4",
                    "midi": 60,
                    "time": 1346.1182375000005,
                    "velocity": 0.30708661417322836,
                    "duration": 0.13666175000003022
                },
                {
                    "name": "D4",
                    "midi": 62,
                    "time": 1346.2548992500006,
                    "velocity": 0.28346456692913385,
                    "duration": 0.13666175000003022
                },
                {
                    "name": "C4",
                    "midi": 60,
                    "time": 1346.3915610000006,
                    "velocity": 0.30708661417322836,
                    "duration": 0.18221566666670697
                },
                {
                    "name": "A#3",
                    "midi": 58,
                    "time": 1346.5737766666673,
                    "velocity": 0.2755905511811024,
                    "duration": 0.18221566666670697
                },
                {
                    "name": "C4",
                    "midi": 60,
                    "time": 1346.755992333334,
                    "velocity": 0.2755905511811024,
                    "duration": 0.18221566666670697
                },
                {
                    "name": "F3",
                    "midi": 53,
                    "time": 1346.9382080000007,
                    "velocity": 0.2677165354330709,
                    "duration": 1.0932940000000144
                },
                {
                    "name": "A3",
                    "midi": 57,
                    "time": 1346.9382080000007,
                    "velocity": 0.2677165354330709,
                    "duration": 1.0932940000000144
                },
                {
                    "name": "C4",
                    "midi": 60,
                    "time": 1346.9382080000007,
                    "velocity": 0.31496062992125984,
                    "duration": 1.0932940000000144
                },
                {
                    "name": "F3",
                    "midi": 53,
                    "time": 1348.0315020000007,
                    "velocity": 0.30708661417322836,
                    "duration": 1.639940999999908
                },
                {
                    "name": "C4",
                    "midi": 60,
                    "time": 1348.0315020000007,
                    "velocity": 0.3700787401574803,
                    "duration": 1.639940999999908
                },
                {
                    "name": "A3",
                    "midi": 57,
                    "time": 1348.0315020000007,
                    "velocity": 0.30708661417322836,
                    "duration": 1.639940999999908
                },
                {
                    "name": "G3",
                    "midi": 55,
                    "time": 1352.9513250000007,
                    "velocity": 0.29133858267716534,
                    "duration": 0.3279882000001635
                },
                {
                    "name": "F3",
                    "midi": 53,
                    "time": 1353.2246485000007,
                    "velocity": 0.25984251968503935,
                    "duration": 0.3279882000001635
                },
                {
                    "name": "D#3",
                    "midi": 51,
                    "time": 1353.4979720000008,
                    "velocity": 0.29133858267716534,
                    "duration": 0.3279882000001635
                },
                {
                    "name": "D3",
                    "midi": 50,
                    "time": 1353.7712955000009,
                    "velocity": 0.25984251968503935,
                    "duration": 0.3279882000001635
                },
                {
                    "name": "C3",
                    "midi": 48,
                    "time": 1354.044619000001,
                    "velocity": 0.25984251968503935,
                    "duration": 0.3279882000001635
                },
                {
                    "name": "B2",
                    "midi": 47,
                    "time": 1354.317942500001,
                    "velocity": 0.25984251968503935,
                    "duration": 0.27332350000006045
                },
                {
                    "name": "D#3",
                    "midi": 51,
                    "time": 1354.591266000001,
                    "velocity": 0.30708661417322836,
                    "duration": 1.0932940000000144
                },
                {
                    "name": "G4",
                    "midi": 67,
                    "time": 1356.231207000001,
                    "velocity": 0.29133858267716534,
                    "duration": 0.3279882000001635
                },
                {
                    "name": "F4",
                    "midi": 65,
                    "time": 1356.504530500001,
                    "velocity": 0.25984251968503935,
                    "duration": 0.3279882000001635
                },
                {
                    "name": "D#4",
                    "midi": 63,
                    "time": 1356.777854000001,
                    "velocity": 0.29133858267716534,
                    "duration": 0.3279882000001635
                },
                {
                    "name": "D4",
                    "midi": 62,
                    "time": 1357.0511775000011,
                    "velocity": 0.25984251968503935,
                    "duration": 0.3279882000001635
                },
                {
                    "name": "C4",
                    "midi": 60,
                    "time": 1357.3245010000012,
                    "velocity": 0.25984251968503935,
                    "duration": 0.3279882000001635
                },
                {
                    "name": "B3",
                    "midi": 59,
                    "time": 1357.5978245000013,
                    "velocity": 0.25984251968503935,
                    "duration": 0.3279882000001635
                },
                {
                    "name": "G4",
                    "midi": 67,
                    "time": 1357.8711480000013,
                    "velocity": 0.30708661417322836,
                    "duration": 0.3279882000001635
                },
                {
                    "name": "F4",
                    "midi": 65,
                    "time": 1358.1444715000014,
                    "velocity": 0.30708661417322836,
                    "duration": 0.3279882000001635
                },
                {
                    "name": "D#4",
                    "midi": 63,
                    "time": 1358.4177950000014,
                    "velocity": 0.31496062992125984,
                    "duration": 0.3279882000001635
                },
                {
                    "name": "D4",
                    "midi": 62,
                    "time": 1358.6911185000015,
                    "velocity": 0.31496062992125984,
                    "duration": 0.3279882000001635
                },
                {
                    "name": "C4",
                    "midi": 60,
                    "time": 1358.9644420000016,
                    "velocity": 0.3228346456692913,
                    "duration": 0.3279882000001635
                },
                {
                    "name": "A#3",
                    "midi": 58,
                    "time": 1359.2377655000016,
                    "velocity": 0.33070866141732286,
                    "duration": 0.3279882000001635
                },
                {
                    "name": "A3",
                    "midi": 57,
                    "time": 1359.5110890000017,
                    "velocity": 0.3464566929133858,
                    "duration": 0.3279882000001635
                },
                {
                    "name": "G3",
                    "midi": 55,
                    "time": 1359.7844125000017,
                    "velocity": 0.3543307086614173,
                    "duration": 0.3279882000001635
                },
                {
                    "name": "F3",
                    "midi": 53,
                    "time": 1360.0577360000018,
                    "velocity": 0.36220472440944884,
                    "duration": 0.3279882000001635
                },
                {
                    "name": "D#3",
                    "midi": 51,
                    "time": 1360.3310595000019,
                    "velocity": 0.3700787401574803,
                    "duration": 0.3279882000001635
                },
                {
                    "name": "D3",
                    "midi": 50,
                    "time": 1360.604383000002,
                    "velocity": 0.3779527559055118,
                    "duration": 0.3279882000001635
                },
                {
                    "name": "C3",
                    "midi": 48,
                    "time": 1360.877706500002,
                    "velocity": 0.3858267716535433,
                    "duration": 0.3279882000001635
                },
                {
                    "name": "A#2",
                    "midi": 46,
                    "time": 1361.151030000002,
                    "velocity": 0.3937007874015748,
                    "duration": 0.27332350000006045
                },
                {
                    "name": "A2",
                    "midi": 45,
                    "time": 1361.424353500002,
                    "velocity": 0.4094488188976378,
                    "duration": 0.27332350000006045
                },
                {
                    "name": "G2",
                    "midi": 43,
                    "time": 1361.6976770000022,
                    "velocity": 0.41732283464566927,
                    "duration": 0.27332350000006045
                },
                {
                    "name": "F2",
                    "midi": 41,
                    "time": 1361.9710005000022,
                    "velocity": 0.4330708661417323,
                    "duration": 0.27332350000006045
                },
                {
                    "name": "D#2",
                    "midi": 39,
                    "time": 1362.2443240000023,
                    "velocity": 0.4409448818897638,
                    "duration": 0.27332350000006045
                },
                {
                    "name": "D2",
                    "midi": 38,
                    "time": 1362.5176475000023,
                    "velocity": 0.44881889763779526,
                    "duration": 0.27332350000006045
                },
                {
                    "name": "C2",
                    "midi": 36,
                    "time": 1362.7909710000024,
                    "velocity": 0.47244094488188976,
                    "duration": 0.27332350000006045
                },
                {
                    "name": "A#1",
                    "midi": 34,
                    "time": 1363.0642945000025,
                    "velocity": 0.48031496062992124,
                    "duration": 0.27332350000006045
                },
                {
                    "name": "A1",
                    "midi": 33,
                    "time": 1363.3376180000025,
                    "velocity": 0.5039370078740157,
                    "duration": 0.27332350000006045
                },
                {
                    "name": "G1",
                    "midi": 31,
                    "time": 1363.6109415000026,
                    "velocity": 0.5275590551181102,
                    "duration": 0.27332350000006045
                },
                {
                    "name": "F1",
                    "midi": 29,
                    "time": 1363.8842650000026,
                    "velocity": 0.5590551181102362,
                    "duration": 0.27332350000006045
                },
                {
                    "name": "E1",
                    "midi": 28,
                    "time": 1364.1575885000027,
                    "velocity": 0.5905511811023622,
                    "duration": 0.27332350000006045
                },
                {
                    "name": "F1",
                    "midi": 29,
                    "time": 1364.4309120000028,
                    "velocity": 0.6535433070866141,
                    "duration": 0.5466469999998935
                },
                {
                    "name": "A2",
                    "midi": 45,
                    "time": 1365.5242060000026,
                    "velocity": 0.6220472440944882,
                    "duration": 0.18221566666670697
                },
                {
                    "name": "A#2",
                    "midi": 46,
                    "time": 1365.7064216666693,
                    "velocity": 0.4409448818897638,
                    "duration": 0.18221566666670697
                },
                {
                    "name": "A2",
                    "midi": 45,
                    "time": 1365.888637333336,
                    "velocity": 0.48031496062992124,
                    "duration": 0.18221566666670697
                },
                {
                    "name": "A#2",
                    "midi": 46,
                    "time": 1366.0708530000027,
                    "velocity": 0.41732283464566927,
                    "duration": 0.18221566666670697
                },
                {
                    "name": "A2",
                    "midi": 45,
                    "time": 1366.2530686666694,
                    "velocity": 0.4645669291338583,
                    "duration": 0.18221566666670697
                },
                {
                    "name": "A#2",
                    "midi": 46,
                    "time": 1366.435284333336,
                    "velocity": 0.4094488188976378,
                    "duration": 0.18221566666670697
                },
                {
                    "name": "A2",
                    "midi": 45,
                    "time": 1366.6175000000028,
                    "velocity": 0.44881889763779526,
                    "duration": 0.18221566666670697
                },
                {
                    "name": "A#2",
                    "midi": 46,
                    "time": 1366.7997156666695,
                    "velocity": 0.4094488188976378,
                    "duration": 0.18221566666670697
                },
                {
                    "name": "A2",
                    "midi": 45,
                    "time": 1366.9819313333362,
                    "velocity": 0.4330708661417323,
                    "duration": 0.18221566666670697
                },
                {
                    "name": "A#2",
                    "midi": 46,
                    "time": 1367.164147000003,
                    "velocity": 0.3937007874015748,
                    "duration": 0.13666175000003022
                },
                {
                    "name": "A2",
                    "midi": 45,
                    "time": 1367.300808750003,
                    "velocity": 0.4566929133858268,
                    "duration": 0.13666175000003022
                },
                {
                    "name": "G2",
                    "midi": 43,
                    "time": 1367.437470500003,
                    "velocity": 0.4409448818897638,
                    "duration": 0.13666175000003022
                },
                {
                    "name": "A2",
                    "midi": 45,
                    "time": 1367.574132250003,
                    "velocity": 0.49606299212598426,
                    "duration": 0.13666175000003022
                },
                {
                    "name": "A#2",
                    "midi": 46,
                    "time": 1367.710794000003,
                    "velocity": 0.5354330708661418,
                    "duration": 0.5466469999998935
                },
                {
                    "name": "G1",
                    "midi": 31,
                    "time": 1368.8040880000028,
                    "velocity": 0.5433070866141733,
                    "duration": 0.5466469999998935
                },
                {
                    "name": "B2",
                    "midi": 47,
                    "time": 1369.8973820000026,
                    "velocity": 0.6220472440944882,
                    "duration": 0.18221566666670697
                },
                {
                    "name": "C3",
                    "midi": 48,
                    "time": 1370.0795976666693,
                    "velocity": 0.4409448818897638,
                    "duration": 0.18221566666670697
                },
                {
                    "name": "B2",
                    "midi": 47,
                    "time": 1370.261813333336,
                    "velocity": 0.48031496062992124,
                    "duration": 0.18221566666670697
                },
                {
                    "name": "C3",
                    "midi": 48,
                    "time": 1370.4440290000027,
                    "velocity": 0.41732283464566927,
                    "duration": 0.18221566666670697
                },
                {
                    "name": "B2",
                    "midi": 47,
                    "time": 1370.6262446666694,
                    "velocity": 0.4645669291338583,
                    "duration": 0.18221566666670697
                },
                {
                    "name": "C3",
                    "midi": 48,
                    "time": 1370.8084603333361,
                    "velocity": 0.4094488188976378,
                    "duration": 0.18221566666670697
                },
                {
                    "name": "B2",
                    "midi": 47,
                    "time": 1370.9906760000028,
                    "velocity": 0.44881889763779526,
                    "duration": 0.18221566666670697
                },
                {
                    "name": "C3",
                    "midi": 48,
                    "time": 1371.1728916666696,
                    "velocity": 0.4094488188976378,
                    "duration": 0.18221566666670697
                },
                {
                    "name": "B2",
                    "midi": 47,
                    "time": 1371.3551073333363,
                    "velocity": 0.4330708661417323,
                    "duration": 0.18221566666670697
                },
                {
                    "name": "C3",
                    "midi": 48,
                    "time": 1371.537323000003,
                    "velocity": 0.3937007874015748,
                    "duration": 0.13666175000003022
                },
                {
                    "name": "B2",
                    "midi": 47,
                    "time": 1371.673984750003,
                    "velocity": 0.4566929133858268,
                    "duration": 0.13666175000003022
                },
                {
                    "name": "A2",
                    "midi": 45,
                    "time": 1371.810646500003,
                    "velocity": 0.4094488188976378,
                    "duration": 0.13666175000003022
                },
                {
                    "name": "B2",
                    "midi": 47,
                    "time": 1371.947308250003,
                    "velocity": 0.48031496062992124,
                    "duration": 0.13666175000003022
                },
                {
                    "name": "C3",
                    "midi": 48,
                    "time": 1372.083970000003,
                    "velocity": 0.5354330708661418,
                    "duration": 0.5466469999998935
                },
                {
                    "name": "A1",
                    "midi": 33,
                    "time": 1373.1772640000029,
                    "velocity": 0.5433070866141733,
                    "duration": 0.5466469999998935
                },
                {
                    "name": "C#3",
                    "midi": 49,
                    "time": 1374.2705580000027,
                    "velocity": 0.6220472440944882,
                    "duration": 0.18221566666670697
                },
                {
                    "name": "D3",
                    "midi": 50,
                    "time": 1374.4527736666694,
                    "velocity": 0.4409448818897638,
                    "duration": 0.18221566666670697
                },
                {
                    "name": "C#3",
                    "midi": 49,
                    "time": 1374.634989333336,
                    "velocity": 0.48031496062992124,
                    "duration": 0.18221566666670697
                },
                {
                    "name": "D3",
                    "midi": 50,
                    "time": 1374.8172050000028,
                    "velocity": 0.41732283464566927,
                    "duration": 0.18221566666670697
                },
                {
                    "name": "C#3",
                    "midi": 49,
                    "time": 1374.9994206666695,
                    "velocity": 0.4645669291338583,
                    "duration": 0.18221566666670697
                },
                {
                    "name": "D3",
                    "midi": 50,
                    "time": 1375.1816363333362,
                    "velocity": 0.4094488188976378,
                    "duration": 0.18221566666670697
                },
                {
                    "name": "C#3",
                    "midi": 49,
                    "time": 1375.363852000003,
                    "velocity": 0.44881889763779526,
                    "duration": 0.18221566666670697
                },
                {
                    "name": "D3",
                    "midi": 50,
                    "time": 1375.5460676666696,
                    "velocity": 0.4094488188976378,
                    "duration": 0.18221566666670697
                },
                {
                    "name": "C#3",
                    "midi": 49,
                    "time": 1375.7282833333363,
                    "velocity": 0.4330708661417323,
                    "duration": 0.18221566666670697
                },
                {
                    "name": "D3",
                    "midi": 50,
                    "time": 1375.910499000003,
                    "velocity": 0.3937007874015748,
                    "duration": 0.13666175000003022
                },
                {
                    "name": "C#3",
                    "midi": 49,
                    "time": 1376.047160750003,
                    "velocity": 0.4566929133858268,
                    "duration": 0.13666175000003022
                },
                {
                    "name": "B2",
                    "midi": 47,
                    "time": 1376.183822500003,
                    "velocity": 0.4251968503937008,
                    "duration": 0.13666175000003022
                },
                {
                    "name": "C#3",
                    "midi": 49,
                    "time": 1376.3204842500031,
                    "velocity": 0.48031496062992124,
                    "duration": 0.13666175000003022
                },
                {
                    "name": "D3",
                    "midi": 50,
                    "time": 1376.4571460000031,
                    "velocity": 0.5354330708661418,
                    "duration": 0.5466469999998935
                },
                {
                    "name": "A#1",
                    "midi": 34,
                    "time": 1377.550440000003,
                    "velocity": 0.5433070866141733,
                    "duration": 0.5466469999998935
                },
                {
                    "name": "D3",
                    "midi": 50,
                    "time": 1378.6437340000027,
                    "velocity": 0.6220472440944882,
                    "duration": 0.18221566666670697
                },
                {
                    "name": "D#3",
                    "midi": 51,
                    "time": 1378.8259496666694,
                    "velocity": 0.4409448818897638,
                    "duration": 0.18221566666670697
                },
                {
                    "name": "D3",
                    "midi": 50,
                    "time": 1379.0081653333361,
                    "velocity": 0.48031496062992124,
                    "duration": 0.18221566666670697
                },
                {
                    "name": "D#3",
                    "midi": 51,
                    "time": 1379.1903810000028,
                    "velocity": 0.41732283464566927,
                    "duration": 0.18221566666670697
                },
                {
                    "name": "D3",
                    "midi": 50,
                    "time": 1379.3725966666696,
                    "velocity": 0.4645669291338583,
                    "duration": 0.18221566666670697
                },
                {
                    "name": "D#3",
                    "midi": 51,
                    "time": 1379.5548123333363,
                    "velocity": 0.4094488188976378,
                    "duration": 0.18221566666670697
                },
                {
                    "name": "D3",
                    "midi": 50,
                    "time": 1379.737028000003,
                    "velocity": 0.44881889763779526,
                    "duration": 0.18221566666670697
                },
                {
                    "name": "D#3",
                    "midi": 51,
                    "time": 1379.9192436666697,
                    "velocity": 0.4094488188976378,
                    "duration": 0.18221566666670697
                },
                {
                    "name": "D3",
                    "midi": 50,
                    "time": 1380.1014593333364,
                    "velocity": 0.4330708661417323,
                    "duration": 0.18221566666670697
                },
                {
                    "name": "D#3",
                    "midi": 51,
                    "time": 1380.283675000003,
                    "velocity": 0.3937007874015748,
                    "duration": 0.13666175000003022
                },
                {
                    "name": "D3",
                    "midi": 50,
                    "time": 1380.4203367500031,
                    "velocity": 0.4566929133858268,
                    "duration": 0.13666175000003022
                },
                {
                    "name": "C3",
                    "midi": 48,
                    "time": 1380.5569985000031,
                    "velocity": 0.41732283464566927,
                    "duration": 0.13666175000003022
                },
                {
                    "name": "D3",
                    "midi": 50,
                    "time": 1380.6936602500032,
                    "velocity": 0.4251968503937008,
                    "duration": 0.13666175000003022
                },
                {
                    "name": "D#3",
                    "midi": 51,
                    "time": 1380.8303220000032,
                    "velocity": 0.5354330708661418,
                    "duration": 0.5466469999998935
                },
                {
                    "name": "C2",
                    "midi": 36,
                    "time": 1381.923616000003,
                    "velocity": 0.5433070866141733,
                    "duration": 0.5466469999998935
                },
                {
                    "name": "E3",
                    "midi": 52,
                    "time": 1383.0169100000028,
                    "velocity": 0.6220472440944882,
                    "duration": 0.18221566666670697
                },
                {
                    "name": "F3",
                    "midi": 53,
                    "time": 1383.1991256666695,
                    "velocity": 0.4409448818897638,
                    "duration": 0.18221566666670697
                },
                {
                    "name": "E3",
                    "midi": 52,
                    "time": 1383.3813413333362,
                    "velocity": 0.48031496062992124,
                    "duration": 0.18221566666670697
                },
                {
                    "name": "F3",
                    "midi": 53,
                    "time": 1383.563557000003,
                    "velocity": 0.41732283464566927,
                    "duration": 0.18221566666670697
                },
                {
                    "name": "E3",
                    "midi": 52,
                    "time": 1383.7457726666696,
                    "velocity": 0.4645669291338583,
                    "duration": 0.18221566666670697
                },
                {
                    "name": "F3",
                    "midi": 53,
                    "time": 1383.9279883333363,
                    "velocity": 0.4094488188976378,
                    "duration": 0.18221566666670697
                },
                {
                    "name": "E3",
                    "midi": 52,
                    "time": 1384.110204000003,
                    "velocity": 0.44881889763779526,
                    "duration": 0.18221566666670697
                },
                {
                    "name": "F3",
                    "midi": 53,
                    "time": 1384.2924196666697,
                    "velocity": 0.4094488188976378,
                    "duration": 0.18221566666670697
                },
                {
                    "name": "E3",
                    "midi": 52,
                    "time": 1384.4746353333364,
                    "velocity": 0.4330708661417323,
                    "duration": 0.18221566666670697
                },
                {
                    "name": "F3",
                    "midi": 53,
                    "time": 1384.6568510000031,
                    "velocity": 0.3937007874015748,
                    "duration": 0.13666175000003022
                },
                {
                    "name": "E3",
                    "midi": 52,
                    "time": 1384.7935127500032,
                    "velocity": 0.4409448818897638,
                    "duration": 0.13666175000003022
                },
                {
                    "name": "D3",
                    "midi": 50,
                    "time": 1384.9301745000032,
                    "velocity": 0.4251968503937008,
                    "duration": 0.13666175000003022
                },
                {
                    "name": "E3",
                    "midi": 52,
                    "time": 1385.0668362500032,
                    "velocity": 0.4645669291338583,
                    "duration": 0.13666175000003022
                },
                {
                    "name": "F3",
                    "midi": 53,
                    "time": 1385.2034980000033,
                    "velocity": 0.5354330708661418,
                    "duration": 0.5466469999998935
                },
                {
                    "name": "D2",
                    "midi": 38,
                    "time": 1386.296792000003,
                    "velocity": 0.5433070866141733,
                    "duration": 0.5466469999998935
                },
                {
                    "name": "F#3",
                    "midi": 54,
                    "time": 1387.3900860000028,
                    "velocity": 0.6220472440944882,
                    "duration": 0.18221566666670697
                },
                {
                    "name": "G3",
                    "midi": 55,
                    "time": 1387.5723016666695,
                    "velocity": 0.4409448818897638,
                    "duration": 0.18221566666670697
                },
                {
                    "name": "F#3",
                    "midi": 54,
                    "time": 1387.7545173333363,
                    "velocity": 0.48031496062992124,
                    "duration": 0.18221566666670697
                },
                {
                    "name": "G3",
                    "midi": 55,
                    "time": 1387.936733000003,
                    "velocity": 0.41732283464566927,
                    "duration": 0.18221566666670697
                },
                {
                    "name": "F#3",
                    "midi": 54,
                    "time": 1388.1189486666697,
                    "velocity": 0.4645669291338583,
                    "duration": 0.18221566666670697
                },
                {
                    "name": "G3",
                    "midi": 55,
                    "time": 1388.3011643333364,
                    "velocity": 0.4094488188976378,
                    "duration": 0.18221566666670697
                },
                {
                    "name": "F#3",
                    "midi": 54,
                    "time": 1388.483380000003,
                    "velocity": 0.44881889763779526,
                    "duration": 0.18221566666670697
                },
                {
                    "name": "G3",
                    "midi": 55,
                    "time": 1388.6655956666698,
                    "velocity": 0.4094488188976378,
                    "duration": 0.18221566666670697
                },
                {
                    "name": "F#3",
                    "midi": 54,
                    "time": 1388.8478113333365,
                    "velocity": 0.4330708661417323,
                    "duration": 0.18221566666670697
                },
                {
                    "name": "G3",
                    "midi": 55,
                    "time": 1389.0300270000032,
                    "velocity": 0.3937007874015748,
                    "duration": 0.13666175000003022
                },
                {
                    "name": "F#3",
                    "midi": 54,
                    "time": 1389.1666887500032,
                    "velocity": 0.4251968503937008,
                    "duration": 0.13666175000003022
                },
                {
                    "name": "E3",
                    "midi": 52,
                    "time": 1389.3033505000033,
                    "velocity": 0.3858267716535433,
                    "duration": 0.13666175000003022
                },
                {
                    "name": "F#3",
                    "midi": 54,
                    "time": 1389.4400122500033,
                    "velocity": 0.4251968503937008,
                    "duration": 0.13666175000003022
                },
                {
                    "name": "G3",
                    "midi": 55,
                    "time": 1389.5766740000033,
                    "velocity": 0.5354330708661418,
                    "duration": 0.5466469999998935
                },
                {
                    "name": "D#2",
                    "midi": 39,
                    "time": 1390.669968000003,
                    "velocity": 0.5433070866141733,
                    "duration": 0.5466469999998935
                },
                {
                    "name": "F4",
                    "midi": 65,
                    "time": 1391.763262000003,
                    "velocity": 0.6614173228346457,
                    "duration": 1.639940999999908
                },
                {
                    "name": "D#4",
                    "midi": 63,
                    "time": 1391.763262000003,
                    "velocity": 0.5590551181102362,
                    "duration": 1.639940999999908
                },
                {
                    "name": "C4",
                    "midi": 60,
                    "time": 1391.763262000003,
                    "velocity": 0.5590551181102362,
                    "duration": 1.639940999999908
                },
                {
                    "name": "F3",
                    "midi": 53,
                    "time": 1391.763262000003,
                    "velocity": 0.5590551181102362,
                    "duration": 1.639940999999908
                },
                {
                    "name": "A#2",
                    "midi": 46,
                    "time": 1393.9498500000027,
                    "velocity": 0.5748031496062992,
                    "duration": 1.639940999999908
                },
                {
                    "name": "D3",
                    "midi": 50,
                    "time": 1393.9498500000027,
                    "velocity": 0.5748031496062992,
                    "duration": 1.639940999999908
                },
                {
                    "name": "F3",
                    "midi": 53,
                    "time": 1393.9498500000027,
                    "velocity": 0.5748031496062992,
                    "duration": 1.639940999999908
                },
                {
                    "name": "A#3",
                    "midi": 58,
                    "time": 1393.9498500000027,
                    "velocity": 0.6850393700787402,
                    "duration": 1.639940999999908
                },
                {
                    "name": "F3",
                    "midi": 53,
                    "time": 1396.1364380000025,
                    "velocity": 0.6220472440944882,
                    "duration": 1.639940999999908
                },
                {
                    "name": "D#3",
                    "midi": 51,
                    "time": 1396.1364380000025,
                    "velocity": 0.5275590551181102,
                    "duration": 1.639940999999908
                },
                {
                    "name": "C3",
                    "midi": 48,
                    "time": 1396.1364380000025,
                    "velocity": 0.5275590551181102,
                    "duration": 1.639940999999908
                },
                {
                    "name": "F2",
                    "midi": 41,
                    "time": 1396.1364380000025,
                    "velocity": 0.5275590551181102,
                    "duration": 1.639940999999908
                },
                {
                    "name": "A#1",
                    "midi": 34,
                    "time": 1399.4163200000023,
                    "velocity": 0.5748031496062992,
                    "duration": 4.373176000000058
                },
                {
                    "name": "D2",
                    "midi": 38,
                    "time": 1399.4163200000023,
                    "velocity": 0.5748031496062992,
                    "duration": 4.373176000000058
                },
                {
                    "name": "F2",
                    "midi": 41,
                    "time": 1399.4163200000023,
                    "velocity": 0.5748031496062992,
                    "duration": 4.373176000000058
                },
                {
                    "name": "A#2",
                    "midi": 46,
                    "time": 1399.4163200000023,
                    "velocity": 0.6850393700787402,
                    "duration": 4.373176000000058
                }
            ],
            "controlChanges": {},
            "id": 2,
            "name": "Piano left",
            "instrumentNumber": 0,
            "instrument": "acoustic grand piano",
            "instrumentFamily": "piano",
            "channelNumber": 0,
            "isPercussion": false
        },
        {
            "startTime": 0,
            "duration": 0,
            "length": 0,
            "notes": [],
            "controlChanges": {
                "64": [
                    {
                        "number": 64,
                        "time": 0,
                        "value": 1
                    },
                    {
                        "number": 64,
                        "time": 3.8834713958333333,
                        "value": 0
                    },
                    {
                        "number": 64,
                        "time": 4.72849655,
                        "value": 1
                    },
                    {
                        "number": 64,
                        "time": 6.318328241666666,
                        "value": 0
                    },
                    {
                        "number": 64,
                        "time": 7.268127404166666,
                        "value": 1
                    },
                    {
                        "number": 64,
                        "time": 8.361421404166666,
                        "value": 0
                    },
                    {
                        "number": 64,
                        "time": 9.3408306125,
                        "value": 1
                    },
                    {
                        "number": 64,
                        "time": 10.6596165,
                        "value": 0
                    },
                    {
                        "number": 64,
                        "time": 11.427199995833334,
                        "value": 1
                    },
                    {
                        "number": 64,
                        "time": 13.126361087500001,
                        "value": 0
                    },
                    {
                        "number": 64,
                        "time": 13.360963758333334,
                        "value": 1
                    },
                    {
                        "number": 64,
                        "time": 15.358503004166668,
                        "value": 0
                    },
                    {
                        "number": 64,
                        "time": 15.470110100000001,
                        "value": 1
                    },
                    {
                        "number": 64,
                        "time": 15.859596087500002,
                        "value": 0
                    },
                    {
                        "number": 64,
                        "time": 16.003090925000002,
                        "value": 1
                    },
                    {
                        "number": 64,
                        "time": 16.399410000000003,
                        "value": 0
                    },
                    {
                        "number": 64,
                        "time": 16.497350920833338,
                        "value": 1
                    },
                    {
                        "number": 64,
                        "time": 16.96427856666667,
                        "value": 0
                    },
                    {
                        "number": 64,
                        "time": 17.043997920833338,
                        "value": 1
                    },
                    {
                        "number": 64,
                        "time": 17.506370175000004,
                        "value": 0
                    },
                    {
                        "number": 64,
                        "time": 17.622532662500003,
                        "value": 1
                    },
                    {
                        "number": 64,
                        "time": 18.06440565416667,
                        "value": 0
                    },
                    {
                        "number": 64,
                        "time": 18.17601275,
                        "value": 1
                    },
                    {
                        "number": 64,
                        "time": 18.624718829166667,
                        "value": 0
                    },
                    {
                        "number": 64,
                        "time": 18.736325925,
                        "value": 1
                    },
                    {
                        "number": 64,
                        "time": 19.679292,
                        "value": 0
                    },
                    {
                        "number": 64,
                        "time": 19.875173841666665,
                        "value": 1
                    },
                    {
                        "number": 64,
                        "time": 20.578981854166667,
                        "value": 0
                    },
                    {
                        "number": 64,
                        "time": 21.1894043375,
                        "value": 1
                    },
                    {
                        "number": 64,
                        "time": 22.114148845833334,
                        "value": 0
                    },
                    {
                        "number": 64,
                        "time": 22.699516675,
                        "value": 1
                    },
                    {
                        "number": 64,
                        "time": 22.975117870833333,
                        "value": 0
                    },
                    {
                        "number": 64,
                        "time": 35.17901214583333,
                        "value": 1
                    },
                    {
                        "number": 64,
                        "time": 35.55027656666667,
                        "value": 0
                    },
                    {
                        "number": 64,
                        "time": 35.77349075833333,
                        "value": 1
                    },
                    {
                        "number": 64,
                        "time": 36.09692356666667,
                        "value": 0
                    },
                    {
                        "number": 64,
                        "time": 36.2358630125,
                        "value": 1
                    },
                    {
                        "number": 64,
                        "time": 36.63673747916666,
                        "value": 0
                    },
                    {
                        "number": 64,
                        "time": 36.7825100125,
                        "value": 1
                    },
                    {
                        "number": 64,
                        "time": 37.199328349999995,
                        "value": 0
                    },
                    {
                        "number": 64,
                        "time": 37.354211666666664,
                        "value": 1
                    },
                    {
                        "number": 64,
                        "time": 38.003354979166666,
                        "value": 0
                    },
                    {
                        "number": 64,
                        "time": 38.22656917083333,
                        "value": 1
                    },
                    {
                        "number": 64,
                        "time": 39.17636833333333,
                        "value": 0
                    },
                    {
                        "number": 64,
                        "time": 40.16716602083333,
                        "value": 1
                    },
                    {
                        "number": 64,
                        "time": 40.5817066625,
                        "value": 0
                    },
                    {
                        "number": 64,
                        "time": 40.87097403333333,
                        "value": 1
                    },
                    {
                        "number": 64,
                        "time": 41.4973403875,
                        "value": 0
                    },
                    {
                        "number": 64,
                        "time": 42.14420600416667,
                        "value": 1
                    },
                    {
                        "number": 64,
                        "time": 42.911789500000005,
                        "value": 0
                    },
                    {
                        "number": 64,
                        "time": 43.12133751666667,
                        "value": 1
                    },
                    {
                        "number": 64,
                        "time": 43.75909235,
                        "value": 0
                    },
                    {
                        "number": 64,
                        "time": 44.408235662500005,
                        "value": 1
                    },
                    {
                        "number": 64,
                        "time": 44.825054,
                        "value": 0
                    },
                    {
                        "number": 64,
                        "time": 45.02093584166667,
                        "value": 1
                    },
                    {
                        "number": 64,
                        "time": 45.380811783333336,
                        "value": 0
                    },
                    {
                        "number": 64,
                        "time": 46.12789601666667,
                        "value": 1
                    },
                    {
                        "number": 64,
                        "time": 46.4718280875,
                        "value": 0
                    },
                    {
                        "number": 64,
                        "time": 47.193857666666666,
                        "value": 1
                    },
                    {
                        "number": 64,
                        "time": 47.569677479166664,
                        "value": 0
                    },
                    {
                        "number": 64,
                        "time": 47.740504666666666,
                        "value": 1
                    },
                    {
                        "number": 64,
                        "time": 48.12771295833333,
                        "value": 0
                    },
                    {
                        "number": 64,
                        "time": 48.31448401666667,
                        "value": 1
                    },
                    {
                        "number": 64,
                        "time": 48.660693783333336,
                        "value": 0
                    },
                    {
                        "number": 64,
                        "time": 48.84746484166667,
                        "value": 1
                    },
                    {
                        "number": 64,
                        "time": 49.225562350000004,
                        "value": 0
                    },
                    {
                        "number": 64,
                        "time": 49.380445666666674,
                        "value": 1
                    },
                    {
                        "number": 64,
                        "time": 50.312023262500006,
                        "value": 0
                    },
                    {
                        "number": 64,
                        "time": 50.89055800416667,
                        "value": 1
                    },
                    {
                        "number": 64,
                        "time": 51.412150350000005,
                        "value": 0
                    },
                    {
                        "number": 64,
                        "time": 51.567033666666674,
                        "value": 1
                    },
                    {
                        "number": 64,
                        "time": 51.94513117500001,
                        "value": 0
                    },
                    {
                        "number": 64,
                        "time": 52.607940662500006,
                        "value": 1
                    },
                    {
                        "number": 64,
                        "time": 53.04753595833334,
                        "value": 0
                    },
                    {
                        "number": 64,
                        "time": 53.63518148333334,
                        "value": 1
                    },
                    {
                        "number": 64,
                        "time": 54.13399687083334,
                        "value": 0
                    },
                    {
                        "number": 64,
                        "time": 54.34354488750001,
                        "value": 1
                    },
                    {
                        "number": 64,
                        "time": 54.69203235000001,
                        "value": 0
                    },
                    {
                        "number": 64,
                        "time": 55.32523179166668,
                        "value": 1
                    },
                    {
                        "number": 64,
                        "time": 55.783048654166684,
                        "value": 0
                    },
                    {
                        "number": 64,
                        "time": 55.98348588750002,
                        "value": 1
                    },
                    {
                        "number": 64,
                        "time": 56.864954175000015,
                        "value": 0
                    },
                    {
                        "number": 64,
                        "time": 57.51181979166668,
                        "value": 1
                    },
                    {
                        "number": 64,
                        "time": 57.95141508750002,
                        "value": 0
                    },
                    {
                        "number": 64,
                        "time": 58.08807683750002,
                        "value": 1
                    },
                    {
                        "number": 64,
                        "time": 58.51400595833335,
                        "value": 0
                    },
                    {
                        "number": 64,
                        "time": 58.68711084166668,
                        "value": 1
                    },
                    {
                        "number": 64,
                        "time": 59.06293065416668,
                        "value": 0
                    },
                    {
                        "number": 64,
                        "time": 59.25881249583335,
                        "value": 1
                    },
                    {
                        "number": 64,
                        "time": 59.60729995833335,
                        "value": 0
                    },
                    {
                        "number": 64,
                        "time": 59.76673866666668,
                        "value": 1
                    },
                    {
                        "number": 64,
                        "time": 60.15394695833335,
                        "value": 0
                    },
                    {
                        "number": 64,
                        "time": 60.31338566666668,
                        "value": 1
                    },
                    {
                        "number": 64,
                        "time": 60.70059395833335,
                        "value": 0
                    },
                    {
                        "number": 64,
                        "time": 60.887365016666685,
                        "value": 1
                    },
                    {
                        "number": 64,
                        "time": 61.249518654166685,
                        "value": 0
                    },
                    {
                        "number": 64,
                        "time": 61.434012016666685,
                        "value": 1
                    },
                    {
                        "number": 64,
                        "time": 61.78022178333335,
                        "value": 0
                    },
                    {
                        "number": 64,
                        "time": 61.94193818750002,
                        "value": 1
                    },
                    {
                        "number": 64,
                        "time": 62.31775800000002,
                        "value": 0
                    },
                    {
                        "number": 64,
                        "time": 62.91223661250002,
                        "value": 1
                    },
                    {
                        "number": 64,
                        "time": 64.61823079166669,
                        "value": 0
                    },
                    {
                        "number": 64,
                        "time": 65.16487779166668,
                        "value": 1
                    },
                    {
                        "number": 64,
                        "time": 66.69093400000001,
                        "value": 0
                    },
                    {
                        "number": 64,
                        "time": 67.28541261250001,
                        "value": 1
                    },
                    {
                        "number": 64,
                        "time": 68.87752200000001,
                        "value": 0
                    },
                    {
                        "number": 64,
                        "time": 69.47200061250001,
                        "value": 1
                    },
                    {
                        "number": 64,
                        "time": 72.19156943750001,
                        "value": 0
                    },
                    {
                        "number": 64,
                        "time": 89.650108,
                        "value": 0
                    },
                    {
                        "number": 64,
                        "time": 111.7824784125,
                        "value": 1
                    },
                    {
                        "number": 64,
                        "time": 122.47626035,
                        "value": 0
                    },
                    {
                        "number": 64,
                        "time": 122.64253214583334,
                        "value": 1
                    },
                    {
                        "number": 64,
                        "time": 124.63551600000001,
                        "value": 0
                    },
                    {
                        "number": 64,
                        "time": 124.73345692083335,
                        "value": 1
                    },
                    {
                        "number": 64,
                        "time": 129.0200804791667,
                        "value": 0
                    },
                    {
                        "number": 64,
                        "time": 129.1294098791667,
                        "value": 1
                    },
                    {
                        "number": 64,
                        "time": 132.31590635000003,
                        "value": 0
                    },
                    {
                        "number": 64,
                        "time": 132.44117962083337,
                        "value": 1
                    },
                    {
                        "number": 64,
                        "time": 134.51160513333338,
                        "value": 0
                    },
                    {
                        "number": 64,
                        "time": 134.71659775833336,
                        "value": 1
                    },
                    {
                        "number": 64,
                        "time": 136.68908235000004,
                        "value": 0
                    },
                    {
                        "number": 64,
                        "time": 136.95101737083337,
                        "value": 1
                    },
                    {
                        "number": 64,
                        "time": 137.88487266250004,
                        "value": 0
                    },
                    {
                        "number": 64,
                        "time": 138.14225229166672,
                        "value": 1
                    },
                    {
                        "number": 64,
                        "time": 138.68889929166673,
                        "value": 0
                    },
                    {
                        "number": 64,
                        "time": 142.1919954833334,
                        "value": 1
                    },
                    {
                        "number": 64,
                        "time": 143.24429095833338,
                        "value": 0
                    },
                    {
                        "number": 64,
                        "time": 143.3832304041667,
                        "value": 1
                    },
                    {
                        "number": 64,
                        "time": 144.3785834833334,
                        "value": 0
                    },
                    {
                        "number": 64,
                        "time": 174.9725939166667,
                        "value": 1
                    },
                    {
                        "number": 64,
                        "time": 175.49190856666672,
                        "value": 0
                    },
                    {
                        "number": 64,
                        "time": 175.55796174583338,
                        "value": 1
                    },
                    {
                        "number": 64,
                        "time": 176.03400017500005,
                        "value": 0
                    },
                    {
                        "number": 64,
                        "time": 176.12510800833337,
                        "value": 1
                    },
                    {
                        "number": 64,
                        "time": 176.60114643750003,
                        "value": 0
                    },
                    {
                        "number": 64,
                        "time": 176.68542118333337,
                        "value": 1
                    },
                    {
                        "number": 64,
                        "time": 177.11362800000003,
                        "value": 0
                    },
                    {
                        "number": 64,
                        "time": 180.39351000000002,
                        "value": 0
                    },
                    {
                        "number": 64,
                        "time": 204.5758066625,
                        "value": 1
                    },
                    {
                        "number": 64,
                        "time": 205.56660435,
                        "value": 0
                    },
                    {
                        "number": 64,
                        "time": 205.7647638875,
                        "value": 1
                    },
                    {
                        "number": 64,
                        "time": 206.6393990875,
                        "value": 0
                    },
                    {
                        "number": 64,
                        "time": 228.70799401666667,
                        "value": 1
                    },
                    {
                        "number": 64,
                        "time": 229.59174000000002,
                        "value": 0
                    },
                    {
                        "number": 64,
                        "time": 231.9742098416667,
                        "value": 1
                    },
                    {
                        "number": 64,
                        "time": 232.87162200000003,
                        "value": 0
                    },
                    {
                        "number": 64,
                        "time": 240.6043993541667,
                        "value": 1
                    },
                    {
                        "number": 64,
                        "time": 241.56558699583337,
                        "value": 0
                    },
                    {
                        "number": 64,
                        "time": 242.7636550041667,
                        "value": 1
                    },
                    {
                        "number": 64,
                        "time": 243.8432828291667,
                        "value": 0
                    },
                    {
                        "number": 64,
                        "time": 244.0141100166667,
                        "value": 1
                    },
                    {
                        "number": 64,
                        "time": 244.92518835000004,
                        "value": 0
                    },
                    {
                        "number": 64,
                        "time": 245.0937378416667,
                        "value": 1
                    },
                    {
                        "number": 64,
                        "time": 245.99115000000003,
                        "value": 0
                    },
                    {
                        "number": 64,
                        "time": 246.09592400833336,
                        "value": 1
                    },
                    {
                        "number": 64,
                        "time": 247.09127708750003,
                        "value": 0
                    },
                    {
                        "number": 64,
                        "time": 247.1504971791667,
                        "value": 1
                    },
                    {
                        "number": 64,
                        "time": 248.17773800000003,
                        "value": 0
                    },
                    {
                        "number": 64,
                        "time": 249.27103200000002,
                        "value": 1
                    },
                    {
                        "number": 64,
                        "time": 250.39165835000003,
                        "value": 0
                    },
                    {
                        "number": 64,
                        "time": 250.50098775000004,
                        "value": 1
                    },
                    {
                        "number": 64,
                        "time": 251.4895077416667,
                        "value": 0
                    },
                    {
                        "number": 64,
                        "time": 252.55091400000003,
                        "value": 1
                    },
                    {
                        "number": 64,
                        "time": 253.6624295666667,
                        "value": 0
                    },
                    {
                        "number": 64,
                        "time": 253.76948127083338,
                        "value": 1
                    },
                    {
                        "number": 64,
                        "time": 254.77622282916673,
                        "value": 0
                    },
                    {
                        "number": 64,
                        "time": 255.86496143750006,
                        "value": 1
                    },
                    {
                        "number": 64,
                        "time": 256.9423115666667,
                        "value": 0
                    },
                    {
                        "number": 64,
                        "time": 257.03569709583337,
                        "value": 1
                    },
                    {
                        "number": 64,
                        "time": 258.0424386541667,
                        "value": 0
                    },
                    {
                        "number": 64,
                        "time": 259.1835642666667,
                        "value": 1
                    },
                    {
                        "number": 64,
                        "time": 260.2221935666667,
                        "value": 0
                    },
                    {
                        "number": 64,
                        "time": 260.3019129208334,
                        "value": 1
                    },
                    {
                        "number": 64,
                        "time": 261.3268760458334,
                        "value": 0
                    },
                    {
                        "number": 64,
                        "time": 262.47027935416673,
                        "value": 1
                    },
                    {
                        "number": 64,
                        "time": 263.50890865416676,
                        "value": 0
                    },
                    {
                        "number": 64,
                        "time": 263.7457890208334,
                        "value": 1
                    },
                    {
                        "number": 64,
                        "time": 264.5999249583334,
                        "value": 0
                    },
                    {
                        "number": 64,
                        "time": 265.86632384166677,
                        "value": 1
                    },
                    {
                        "number": 64,
                        "time": 266.78879065416675,
                        "value": 0
                    },
                    {
                        "number": 64,
                        "time": 266.97328401666675,
                        "value": 1
                    },
                    {
                        "number": 64,
                        "time": 267.8775292625001,
                        "value": 0
                    },
                    {
                        "number": 64,
                        "time": 269.58807883333344,
                        "value": 1
                    },
                    {
                        "number": 64,
                        "time": 270.0572841750001,
                        "value": 0
                    },
                    {
                        "number": 64,
                        "time": 270.2258336666668,
                        "value": 1
                    },
                    {
                        "number": 64,
                        "time": 270.6016534791668,
                        "value": 0
                    },
                    {
                        "number": 64,
                        "time": 270.74742601250017,
                        "value": 1
                    },
                    {
                        "number": 64,
                        "time": 271.1710774375002,
                        "value": 0
                    },
                    {
                        "number": 64,
                        "time": 271.3191276666668,
                        "value": 1
                    },
                    {
                        "number": 64,
                        "time": 271.7086136541668,
                        "value": 0
                    },
                    {
                        "number": 64,
                        "time": 271.85438618750015,
                        "value": 1
                    },
                    {
                        "number": 64,
                        "time": 272.2302060000002,
                        "value": 0
                    },
                    {
                        "number": 64,
                        "time": 272.40103318750016,
                        "value": 1
                    },
                    {
                        "number": 64,
                        "time": 273.35538774166685,
                        "value": 0
                    },
                    {
                        "number": 64,
                        "time": 273.5717688458335,
                        "value": 1
                    },
                    {
                        "number": 64,
                        "time": 274.44184865416685,
                        "value": 0
                    },
                    {
                        "number": 64,
                        "time": 274.6377304958335,
                        "value": 1
                    },
                    {
                        "number": 64,
                        "time": 274.98849565416685,
                        "value": 0
                    },
                    {
                        "number": 64,
                        "time": 275.0932696625002,
                        "value": 1
                    },
                    {
                        "number": 64,
                        "time": 275.51008800000017,
                        "value": 0
                    },
                    {
                        "number": 64,
                        "time": 275.70596984166684,
                        "value": 1
                    },
                    {
                        "number": 64,
                        "time": 276.0863450458335,
                        "value": 0
                    },
                    {
                        "number": 64,
                        "time": 276.2275621875002,
                        "value": 1
                    },
                    {
                        "number": 64,
                        "time": 276.65576900416687,
                        "value": 0
                    },
                    {
                        "number": 64,
                        "time": 276.79926384166686,
                        "value": 1
                    },
                    {
                        "number": 64,
                        "time": 277.1728059583335,
                        "value": 0
                    },
                    {
                        "number": 64,
                        "time": 277.3071900125002,
                        "value": 1
                    },
                    {
                        "number": 64,
                        "time": 277.7240083500002,
                        "value": 0
                    },
                    {
                        "number": 64,
                        "time": 277.8675031875002,
                        "value": 1
                    },
                    {
                        "number": 64,
                        "time": 278.78997000000015,
                        "value": 0
                    },
                    {
                        "number": 64,
                        "time": 279.0245726708335,
                        "value": 1
                    },
                    {
                        "number": 64,
                        "time": 279.9083186541668,
                        "value": 0
                    },
                    {
                        "number": 64,
                        "time": 280.05409118750015,
                        "value": 1
                    },
                    {
                        "number": 64,
                        "time": 281.0038903500002,
                        "value": 0
                    },
                    {
                        "number": 64,
                        "time": 281.1974944958335,
                        "value": 1
                    },
                    {
                        "number": 64,
                        "time": 281.5482596541668,
                        "value": 0
                    },
                    {
                        "number": 64,
                        "time": 281.70542066666684,
                        "value": 1
                    },
                    {
                        "number": 64,
                        "time": 282.0698520000002,
                        "value": 0
                    },
                    {
                        "number": 64,
                        "time": 282.2907884958335,
                        "value": 1
                    },
                    {
                        "number": 64,
                        "time": 282.64155365416684,
                        "value": 0
                    },
                    {
                        "number": 64,
                        "time": 282.79871466666685,
                        "value": 1
                    },
                    {
                        "number": 64,
                        "time": 283.1904783500002,
                        "value": 0
                    },
                    {
                        "number": 64,
                        "time": 283.3590278416669,
                        "value": 1
                    },
                    {
                        "number": 64,
                        "time": 283.73256995833356,
                        "value": 0
                    },
                    {
                        "number": 64,
                        "time": 283.89200866666687,
                        "value": 1
                    },
                    {
                        "number": 64,
                        "time": 284.2632730875002,
                        "value": 0
                    },
                    {
                        "number": 64,
                        "time": 284.45232184166684,
                        "value": 1
                    },
                    {
                        "number": 64,
                        "time": 285.3497340000002,
                        "value": 0
                    },
                    {
                        "number": 64,
                        "time": 285.52056118750016,
                        "value": 1
                    },
                    {
                        "number": 64,
                        "time": 286.4703603500002,
                        "value": 0
                    },
                    {
                        "number": 64,
                        "time": 286.6389098416669,
                        "value": 1
                    },
                    {
                        "number": 64,
                        "time": 287.01245195833354,
                        "value": 0
                    },
                    {
                        "number": 64,
                        "time": 287.1195036625002,
                        "value": 1
                    },
                    {
                        "number": 64,
                        "time": 287.5545435666669,
                        "value": 0
                    },
                    {
                        "number": 64,
                        "time": 287.7322038416669,
                        "value": 1
                    },
                    {
                        "number": 64,
                        "time": 288.6296160000002,
                        "value": 0
                    },
                    {
                        "number": 64,
                        "time": 288.86421867083357,
                        "value": 1
                    },
                    {
                        "number": 64,
                        "time": 289.7456869583336,
                        "value": 0
                    },
                    {
                        "number": 64,
                        "time": 289.9187918416669,
                        "value": 1
                    },
                    {
                        "number": 64,
                        "time": 290.29461165416694,
                        "value": 0
                    },
                    {
                        "number": 64,
                        "time": 290.4654388416669,
                        "value": 1
                    },
                    {
                        "number": 64,
                        "time": 290.83670326250024,
                        "value": 0
                    },
                    {
                        "number": 64,
                        "time": 291.06447284583356,
                        "value": 1
                    },
                    {
                        "number": 64,
                        "time": 291.9094980000002,
                        "value": 0
                    },
                    {
                        "number": 64,
                        "time": 292.1053798416669,
                        "value": 1
                    },
                    {
                        "number": 64,
                        "time": 293.0164581750002,
                        "value": 0
                    },
                    {
                        "number": 64,
                        "time": 293.1736191875002,
                        "value": 1
                    },
                    {
                        "number": 64,
                        "time": 294.1165852625002,
                        "value": 0
                    },
                    {
                        "number": 64,
                        "time": 294.3056340166669,
                        "value": 1
                    },
                    {
                        "number": 64,
                        "time": 295.1893800000002,
                        "value": 0
                    },
                    {
                        "number": 64,
                        "time": 295.42398267083354,
                        "value": 1
                    },
                    {
                        "number": 64,
                        "time": 296.3100063500002,
                        "value": 0
                    },
                    {
                        "number": 64,
                        "time": 296.51727667083355,
                        "value": 1
                    },
                    {
                        "number": 64,
                        "time": 297.4033003500002,
                        "value": 0
                    },
                    {
                        "number": 64,
                        "time": 297.5855160166669,
                        "value": 1
                    },
                    {
                        "number": 64,
                        "time": 298.4692620000002,
                        "value": 0
                    },
                    {
                        "number": 64,
                        "time": 298.5740360083335,
                        "value": 1
                    },
                    {
                        "number": 64,
                        "time": 299.5898883500002,
                        "value": 0
                    },
                    {
                        "number": 64,
                        "time": 299.8108248458335,
                        "value": 1
                    },
                    {
                        "number": 64,
                        "time": 300.68318235000015,
                        "value": 0
                    },
                    {
                        "number": 64,
                        "time": 300.9177850208335,
                        "value": 1
                    },
                    {
                        "number": 64,
                        "time": 301.7491440000002,
                        "value": 0
                    },
                    {
                        "number": 64,
                        "time": 301.9063050125002,
                        "value": 1
                    },
                    {
                        "number": 64,
                        "time": 302.8697703500002,
                        "value": 0
                    },
                    {
                        "number": 64,
                        "time": 303.03831984166686,
                        "value": 1
                    },
                    {
                        "number": 64,
                        "time": 303.9562312625002,
                        "value": 0
                    },
                    {
                        "number": 64,
                        "time": 304.1042814916668,
                        "value": 1
                    },
                    {
                        "number": 64,
                        "time": 305.02902600000016,
                        "value": 0
                    },
                    {
                        "number": 64,
                        "time": 305.14291079166685,
                        "value": 1
                    },
                    {
                        "number": 64,
                        "time": 306.1450969583335,
                        "value": 0
                    },
                    {
                        "number": 64,
                        "time": 307.90803353333354,
                        "value": 1
                    },
                    {
                        "number": 64,
                        "time": 308.3225741750002,
                        "value": 0
                    },
                    {
                        "number": 64,
                        "time": 308.54351067083354,
                        "value": 1
                    },
                    {
                        "number": 64,
                        "time": 309.4295343500002,
                        "value": 0
                    },
                    {
                        "number": 64,
                        "time": 311.2129701875002,
                        "value": 1
                    },
                    {
                        "number": 64,
                        "time": 311.58879000000024,
                        "value": 0
                    },
                    {
                        "number": 64,
                        "time": 311.7596171875002,
                        "value": 1
                    },
                    {
                        "number": 64,
                        "time": 312.70941635000025,
                        "value": 0
                    },
                    {
                        "number": 64,
                        "time": 314.86867200000023,
                        "value": 1
                    },
                    {
                        "number": 64,
                        "time": 315.43126287083356,
                        "value": 0
                    },
                    {
                        "number": 64,
                        "time": 315.5770354041669,
                        "value": 1
                    },
                    {
                        "number": 64,
                        "time": 315.9915760458336,
                        "value": 0
                    },
                    {
                        "number": 64,
                        "time": 316.1555701458336,
                        "value": 1
                    },
                    {
                        "number": 64,
                        "time": 317.0848700458336,
                        "value": 0
                    },
                    {
                        "number": 64,
                        "time": 317.2966957583336,
                        "value": 1
                    },
                    {
                        "number": 64,
                        "time": 318.1485540000003,
                        "value": 0
                    },
                    {
                        "number": 64,
                        "time": 318.29204883750026,
                        "value": 1
                    },
                    {
                        "number": 64,
                        "time": 318.7202556541669,
                        "value": 0
                    },
                    {
                        "number": 64,
                        "time": 318.82502966250024,
                        "value": 1
                    },
                    {
                        "number": 64,
                        "time": 319.2691803500002,
                        "value": 0
                    },
                    {
                        "number": 64,
                        "time": 319.4764506708336,
                        "value": 1
                    },
                    {
                        "number": 64,
                        "time": 319.81582735000023,
                        "value": 0
                    },
                    {
                        "number": 64,
                        "time": 319.9707106666669,
                        "value": 1
                    },
                    {
                        "number": 64,
                        "time": 320.36247435000024,
                        "value": 0
                    },
                    {
                        "number": 64,
                        "time": 320.5446900166669,
                        "value": 1
                    },
                    {
                        "number": 64,
                        "time": 320.8863443916669,
                        "value": 0
                    },
                    {
                        "number": 64,
                        "time": 321.03895001250027,
                        "value": 1
                    },
                    {
                        "number": 64,
                        "time": 321.43982447916693,
                        "value": 0
                    },
                    {
                        "number": 64,
                        "time": 321.6379840166669,
                        "value": 1
                    },
                    {
                        "number": 64,
                        "time": 321.9910268708336,
                        "value": 0
                    },
                    {
                        "number": 64,
                        "time": 322.1686871458336,
                        "value": 1
                    },
                    {
                        "number": 64,
                        "time": 322.56272852500024,
                        "value": 0
                    },
                    {
                        "number": 64,
                        "time": 329.1293256125002,
                        "value": 0
                    },
                    {
                        "number": 64,
                        "time": 329.33659593333357,
                        "value": 1
                    },
                    {
                        "number": 64,
                        "time": 329.67597261250023,
                        "value": 0
                    },
                    {
                        "number": 64,
                        "time": 329.8308559291669,
                        "value": 1
                    },
                    {
                        "number": 64,
                        "time": 330.22261961250024,
                        "value": 0
                    },
                    {
                        "number": 64,
                        "time": 330.4048352791669,
                        "value": 1
                    },
                    {
                        "number": 64,
                        "time": 330.7464896541669,
                        "value": 0
                    },
                    {
                        "number": 64,
                        "time": 330.89909527500026,
                        "value": 1
                    },
                    {
                        "number": 64,
                        "time": 331.2999697416669,
                        "value": 0
                    },
                    {
                        "number": 64,
                        "time": 331.4981292791669,
                        "value": 1
                    },
                    {
                        "number": 64,
                        "time": 331.8511721333336,
                        "value": 0
                    },
                    {
                        "number": 64,
                        "time": 332.0288324083336,
                        "value": 1
                    },
                    {
                        "number": 64,
                        "time": 332.38870835000023,
                        "value": 0
                    },
                    {
                        "number": 64,
                        "time": 350.12740350000024,
                        "value": 1
                    },
                    {
                        "number": 64,
                        "time": 350.94737400000025,
                        "value": 0
                    },
                    {
                        "number": 64,
                        "time": 351.06125879166694,
                        "value": 1
                    },
                    {
                        "number": 64,
                        "time": 353.1749605250003,
                        "value": 0
                    },
                    {
                        "number": 64,
                        "time": 353.2797345333336,
                        "value": 1
                    },
                    {
                        "number": 64,
                        "time": 353.7079413500003,
                        "value": 0
                    },
                    {
                        "number": 64,
                        "time": 353.7944937916669,
                        "value": 1
                    },
                    {
                        "number": 64,
                        "time": 354.22725600000024,
                        "value": 0
                    },
                    {
                        "number": 64,
                        "time": 354.6964613416669,
                        "value": 1
                    },
                    {
                        "number": 64,
                        "time": 355.34788235000025,
                        "value": 0
                    },
                    {
                        "number": 64,
                        "time": 355.6325943291669,
                        "value": 1
                    },
                    {
                        "number": 64,
                        "time": 356.44117635000026,
                        "value": 0
                    },
                    {
                        "number": 64,
                        "time": 356.72588832916693,
                        "value": 1
                    },
                    {
                        "number": 64,
                        "time": 357.5071380000003,
                        "value": 0
                    },
                    {
                        "number": 64,
                        "time": 357.67796518750026,
                        "value": 1
                    },
                    {
                        "number": 64,
                        "time": 359.72105835000025,
                        "value": 0
                    },
                    {
                        "number": 64,
                        "time": 359.89644092916694,
                        "value": 1
                    },
                    {
                        "number": 64,
                        "time": 360.79840847916694,
                        "value": 0
                    },
                    {
                        "number": 64,
                        "time": 361.20383833750026,
                        "value": 1
                    },
                    {
                        "number": 64,
                        "time": 361.9076463500003,
                        "value": 0
                    },
                    {
                        "number": 64,
                        "time": 362.16730367500026,
                        "value": 1
                    },
                    {
                        "number": 64,
                        "time": 363.00094035000023,
                        "value": 0
                    },
                    {
                        "number": 64,
                        "time": 363.2856523291669,
                        "value": 1
                    },
                    {
                        "number": 64,
                        "time": 364.0714573916669,
                        "value": 0
                    },
                    {
                        "number": 64,
                        "time": 364.3561693708336,
                        "value": 1
                    },
                    {
                        "number": 64,
                        "time": 364.63177056666694,
                        "value": 0
                    },
                    {
                        "number": 64,
                        "time": 364.82309701666696,
                        "value": 1
                    },
                    {
                        "number": 64,
                        "time": 365.1875283500003,
                        "value": 0
                    },
                    {
                        "number": 64,
                        "time": 365.3378562750003,
                        "value": 1
                    },
                    {
                        "number": 64,
                        "time": 365.72506456666696,
                        "value": 0
                    },
                    {
                        "number": 64,
                        "time": 365.88450327500027,
                        "value": 1
                    },
                    {
                        "number": 64,
                        "time": 366.28537774166693,
                        "value": 0
                    },
                    {
                        "number": 64,
                        "time": 366.4470941458336,
                        "value": 1
                    },
                    {
                        "number": 64,
                        "time": 366.82291395833363,
                        "value": 0
                    },
                    {
                        "number": 64,
                        "time": 366.94590953333363,
                        "value": 1
                    },
                    {
                        "number": 64,
                        "time": 367.3467840000003,
                        "value": 0
                    },
                    {
                        "number": 64,
                        "time": 367.5722758875003,
                        "value": 1
                    },
                    {
                        "number": 64,
                        "time": 368.50385348333367,
                        "value": 0
                    },
                    {
                        "number": 64,
                        "time": 370.884045629167,
                        "value": 1
                    },
                    {
                        "number": 64,
                        "time": 371.81790092083367,
                        "value": 0
                    },
                    {
                        "number": 64,
                        "time": 373.118465241667,
                        "value": 1
                    },
                    {
                        "number": 64,
                        "time": 373.94526882916705,
                        "value": 0
                    },
                    {
                        "number": 64,
                        "time": 374.1274844958337,
                        "value": 1
                    },
                    {
                        "number": 64,
                        "time": 376.12046835000035,
                        "value": 0
                    },
                    {
                        "number": 64,
                        "time": 376.34140484583367,
                        "value": 1
                    },
                    {
                        "number": 64,
                        "time": 377.1864300000003,
                        "value": 0
                    },
                    {
                        "number": 64,
                        "time": 377.36864566666696,
                        "value": 1
                    },
                    {
                        "number": 64,
                        "time": 378.3093340458336,
                        "value": 0
                    },
                    {
                        "number": 64,
                        "time": 379.55523366666694,
                        "value": 1
                    },
                    {
                        "number": 64,
                        "time": 380.46631200000024,
                        "value": 0
                    },
                    {
                        "number": 64,
                        "time": 381.71676701250027,
                        "value": 1
                    },
                    {
                        "number": 64,
                        "time": 382.68023235000027,
                        "value": 0
                    },
                    {
                        "number": 64,
                        "time": 382.84878184166695,
                        "value": 1
                    },
                    {
                        "number": 64,
                        "time": 383.7461940000003,
                        "value": 0
                    },
                    {
                        "number": 64,
                        "time": 383.9671304958336,
                        "value": 1
                    },
                    {
                        "number": 64,
                        "time": 384.86682035000024,
                        "value": 0
                    },
                    {
                        "number": 64,
                        "time": 385.93278200000026,
                        "value": 1
                    },
                    {
                        "number": 64,
                        "time": 387.0260760000003,
                        "value": 0
                    },
                    {
                        "number": 64,
                        "time": 387.2743448458336,
                        "value": 1
                    },
                    {
                        "number": 64,
                        "time": 388.1444246541669,
                        "value": 0
                    },
                    {
                        "number": 64,
                        "time": 389.3834911875003,
                        "value": 1
                    },
                    {
                        "number": 64,
                        "time": 390.30595800000026,
                        "value": 0
                    },
                    {
                        "number": 64,
                        "time": 391.5040260083336,
                        "value": 1
                    },
                    {
                        "number": 64,
                        "time": 392.5198783500003,
                        "value": 0
                    },
                    {
                        "number": 64,
                        "time": 394.745187179167,
                        "value": 1
                    },
                    {
                        "number": 64,
                        "time": 395.7997603500003,
                        "value": 0
                    },
                    {
                        "number": 64,
                        "time": 395.954643666667,
                        "value": 1
                    },
                    {
                        "number": 64,
                        "time": 396.8816658708337,
                        "value": 0
                    },
                    {
                        "number": 64,
                        "time": 397.0114945333337,
                        "value": 1
                    },
                    {
                        "number": 64,
                        "time": 397.98634835000036,
                        "value": 0
                    },
                    {
                        "number": 64,
                        "time": 398.1776748000004,
                        "value": 1
                    },
                    {
                        "number": 64,
                        "time": 399.0819200458337,
                        "value": 0
                    },
                    {
                        "number": 64,
                        "time": 399.20491562083373,
                        "value": 1
                    },
                    {
                        "number": 64,
                        "time": 400.1615478708337,
                        "value": 0
                    },
                    {
                        "number": 64,
                        "time": 400.29137653333373,
                        "value": 1
                    },
                    {
                        "number": 64,
                        "time": 401.27078574166705,
                        "value": 0
                    },
                    {
                        "number": 64,
                        "time": 401.3755597500004,
                        "value": 1
                    },
                    {
                        "number": 64,
                        "time": 402.3731905250004,
                        "value": 0
                    },
                    {
                        "number": 64,
                        "time": 402.4779645333337,
                        "value": 1
                    },
                    {
                        "number": 64,
                        "time": 403.43687447916705,
                        "value": 0
                    },
                    {
                        "number": 64,
                        "time": 454.9469657500004,
                        "value": 1
                    },
                    {
                        "number": 64,
                        "time": 455.9035980000004,
                        "value": 0
                    },
                    {
                        "number": 64,
                        "time": 455.9878727458337,
                        "value": 1
                    },
                    {
                        "number": 64,
                        "time": 457.0242243500004,
                        "value": 0
                    },
                    {
                        "number": 64,
                        "time": 457.1016660083337,
                        "value": 1
                    },
                    {
                        "number": 64,
                        "time": 458.1106852625004,
                        "value": 0
                    },
                    {
                        "number": 64,
                        "time": 458.2200146625004,
                        "value": 1
                    },
                    {
                        "number": 64,
                        "time": 459.215367741667,
                        "value": 0
                    },
                    {
                        "number": 64,
                        "time": 459.33608562083367,
                        "value": 1
                    },
                    {
                        "number": 64,
                        "time": 460.32460561250036,
                        "value": 0
                    },
                    {
                        "number": 64,
                        "time": 460.445323491667,
                        "value": 1
                    },
                    {
                        "number": 64,
                        "time": 461.39512265416704,
                        "value": 0
                    },
                    {
                        "number": 64,
                        "time": 461.49989666250036,
                        "value": 1
                    },
                    {
                        "number": 64,
                        "time": 462.46336200000036,
                        "value": 0
                    },
                    {
                        "number": 64,
                        "time": 471.419262016667,
                        "value": 1
                    },
                    {
                        "number": 64,
                        "time": 474.548816091667,
                        "value": 0
                    },
                    {
                        "number": 64,
                        "time": 474.6535901000003,
                        "value": 1
                    },
                    {
                        "number": 64,
                        "time": 475.5828900000003,
                        "value": 0
                    },
                    {
                        "number": 64,
                        "time": 475.6876640083336,
                        "value": 1
                    },
                    {
                        "number": 64,
                        "time": 477.7990880458336,
                        "value": 0
                    },
                    {
                        "number": 64,
                        "time": 477.9061397500003,
                        "value": 1
                    },
                    {
                        "number": 64,
                        "time": 481.07213695833366,
                        "value": 0
                    },
                    {
                        "number": 64,
                        "time": 481.28396267083366,
                        "value": 1
                    },
                    {
                        "number": 64,
                        "time": 484.265466516667,
                        "value": 0
                    },
                    {
                        "number": 64,
                        "time": 484.374795916667,
                        "value": 1
                    },
                    {
                        "number": 64,
                        "time": 487.641011741667,
                        "value": 0
                    },
                    {
                        "number": 64,
                        "time": 487.73439727083365,
                        "value": 1
                    },
                    {
                        "number": 64,
                        "time": 490.90722756666696,
                        "value": 0
                    },
                    {
                        "number": 64,
                        "time": 491.05755549166696,
                        "value": 1
                    },
                    {
                        "number": 64,
                        "time": 493.1120371333336,
                        "value": 0
                    },
                    {
                        "number": 64,
                        "time": 493.2281996208336,
                        "value": 1
                    },
                    {
                        "number": 64,
                        "time": 494.20760882916693,
                        "value": 0
                    },
                    {
                        "number": 64,
                        "time": 494.3898244958336,
                        "value": 1
                    },
                    {
                        "number": 64,
                        "time": 497.4806577416669,
                        "value": 0
                    },
                    {
                        "number": 64,
                        "time": 497.57404327083356,
                        "value": 1
                    },
                    {
                        "number": 64,
                        "time": 500.74687356666686,
                        "value": 0
                    },
                    {
                        "number": 64,
                        "time": 500.89720149166686,
                        "value": 1
                    },
                    {
                        "number": 64,
                        "time": 502.9516831333335,
                        "value": 0
                    },
                    {
                        "number": 64,
                        "time": 503.0678456208335,
                        "value": 1
                    },
                    {
                        "number": 64,
                        "time": 505.1086610875002,
                        "value": 0
                    },
                    {
                        "number": 64,
                        "time": 505.2316566625002,
                        "value": 1
                    },
                    {
                        "number": 64,
                        "time": 507.2975267833335,
                        "value": 0
                    },
                    {
                        "number": 64,
                        "time": 510.4954117333335,
                        "value": 1
                    },
                    {
                        "number": 64,
                        "time": 511.6615920000002,
                        "value": 0
                    },
                    {
                        "number": 64,
                        "time": 511.79142066250023,
                        "value": 1
                    },
                    {
                        "number": 64,
                        "time": 512.7753852625002,
                        "value": 0
                    },
                    {
                        "number": 64,
                        "time": 512.9484901458335,
                        "value": 1
                    },
                    {
                        "number": 64,
                        "time": 513.8755123500001,
                        "value": 0
                    },
                    {
                        "number": 64,
                        "time": 514.0007856208334,
                        "value": 1
                    },
                    {
                        "number": 64,
                        "time": 514.9414740000001,
                        "value": 0
                    },
                    {
                        "number": 64,
                        "time": 515.1988536291667,
                        "value": 1
                    },
                    {
                        "number": 64,
                        "time": 516.06210035,
                        "value": 0
                    },
                    {
                        "number": 64,
                        "time": 518.2532437416667,
                        "value": 1
                    },
                    {
                        "number": 64,
                        "time": 519.3397046541667,
                        "value": 0
                    },
                    {
                        "number": 64,
                        "time": 520.6812675,
                        "value": 1
                    },
                    {
                        "number": 64,
                        "time": 521.5080710875,
                        "value": 0
                    },
                    {
                        "number": 64,
                        "time": 521.6948421458333,
                        "value": 1
                    },
                    {
                        "number": 64,
                        "time": 522.6013650875,
                        "value": 0
                    },
                    {
                        "number": 64,
                        "time": 523.865486275,
                        "value": 1
                    },
                    {
                        "number": 64,
                        "time": 524.78112,
                        "value": 0
                    },
                    {
                        "number": 64,
                        "time": 526.0042426625,
                        "value": 1
                    },
                    {
                        "number": 64,
                        "time": 527.0064288291667,
                        "value": 0
                    },
                    {
                        "number": 64,
                        "time": 527.1635898416666,
                        "value": 1
                    },
                    {
                        "number": 64,
                        "time": 528.0610019999999,
                        "value": 0
                    },
                    {
                        "number": 64,
                        "time": 528.2819384958333,
                        "value": 1
                    },
                    {
                        "number": 64,
                        "time": 529.18162835,
                        "value": 0
                    },
                    {
                        "number": 64,
                        "time": 530.5095250208333,
                        "value": 1
                    },
                    {
                        "number": 64,
                        "time": 531.340884,
                        "value": 0
                    },
                    {
                        "number": 64,
                        "time": 532.6050051875,
                        "value": 1
                    },
                    {
                        "number": 64,
                        "time": 533.5525266541666,
                        "value": 0
                    },
                    {
                        "number": 64,
                        "time": 533.7757408458333,
                        "value": 1
                    },
                    {
                        "number": 64,
                        "time": 534.620766,
                        "value": 0
                    },
                    {
                        "number": 64,
                        "time": 535.8051678333334,
                        "value": 1
                    },
                    {
                        "number": 64,
                        "time": 536.8369640458334,
                        "value": 0
                    },
                    {
                        "number": 64,
                        "time": 537.0556228458333,
                        "value": 1
                    },
                    {
                        "number": 64,
                        "time": 537.9667011791666,
                        "value": 0
                    },
                    {
                        "number": 64,
                        "time": 539.1898238416667,
                        "value": 1
                    },
                    {
                        "number": 64,
                        "time": 540.1054575666667,
                        "value": 0
                    },
                    {
                        "number": 64,
                        "time": 540.2831178416667,
                        "value": 1
                    },
                    {
                        "number": 64,
                        "time": 541.18053,
                        "value": 0
                    },
                    {
                        "number": 64,
                        "time": 542.4036526625,
                        "value": 1
                    },
                    {
                        "number": 64,
                        "time": 543.3785064791667,
                        "value": 0
                    },
                    {
                        "number": 64,
                        "time": 543.5880544958334,
                        "value": 1
                    },
                    {
                        "number": 64,
                        "time": 544.460412,
                        "value": 0
                    },
                    {
                        "number": 64,
                        "time": 545.8156410208334,
                        "value": 1
                    },
                    {
                        "number": 64,
                        "time": 546.67433235,
                        "value": 0
                    },
                    {
                        "number": 64,
                        "time": 546.9089350208333,
                        "value": 1
                    },
                    {
                        "number": 64,
                        "time": 547.740294,
                        "value": 0
                    },
                    {
                        "number": 64,
                        "time": 549.0431360166666,
                        "value": 1
                    },
                    {
                        "number": 64,
                        "time": 549.9519366541666,
                        "value": 0
                    },
                    {
                        "number": 64,
                        "time": 550.1614846708333,
                        "value": 1
                    },
                    {
                        "number": 64,
                        "time": 551.0270090874999,
                        "value": 0
                    },
                    {
                        "number": 64,
                        "time": 552.2956856666666,
                        "value": 1
                    },
                    {
                        "number": 64,
                        "time": 553.2318186541665,
                        "value": 0
                    },
                    {
                        "number": 64,
                        "time": 553.4026458416665,
                        "value": 1
                    },
                    {
                        "number": 64,
                        "time": 554.3000579999998,
                        "value": 0
                    },
                    {
                        "number": 64,
                        "time": 555.5869561458331,
                        "value": 1
                    },
                    {
                        "number": 64,
                        "time": 556.5139783499998,
                        "value": 0
                    },
                    {
                        "number": 64,
                        "time": 556.7599694999998,
                        "value": 1
                    },
                    {
                        "number": 64,
                        "time": 557.6095500458331,
                        "value": 0
                    },
                    {
                        "number": 64,
                        "time": 558.8508942749997,
                        "value": 1
                    },
                    {
                        "number": 64,
                        "time": 559.7847495666664,
                        "value": 0
                    },
                    {
                        "number": 64,
                        "time": 560.8598219999998,
                        "value": 1
                    },
                    {
                        "number": 64,
                        "time": 561.9827260458331,
                        "value": 0
                    },
                    {
                        "number": 64,
                        "time": 562.1489978416665,
                        "value": 1
                    },
                    {
                        "number": 64,
                        "time": 563.0760200458332,
                        "value": 0
                    },
                    {
                        "number": 64,
                        "time": 563.2559580166665,
                        "value": 1
                    },
                    {
                        "number": 64,
                        "time": 564.1510924791664,
                        "value": 0
                    },
                    {
                        "number": 64,
                        "time": 565.3901590124998,
                        "value": 1
                    },
                    {
                        "number": 64,
                        "time": 566.3376804791665,
                        "value": 0
                    },
                    {
                        "number": 64,
                        "time": 567.4469183499998,
                        "value": 1
                    },
                    {
                        "number": 64,
                        "time": 568.5402123499998,
                        "value": 0
                    },
                    {
                        "number": 64,
                        "time": 568.7338164958331,
                        "value": 1
                    },
                    {
                        "number": 64,
                        "time": 569.6380617416664,
                        "value": 0
                    },
                    {
                        "number": 64,
                        "time": 569.8271104958332,
                        "value": 1
                    },
                    {
                        "number": 64,
                        "time": 570.7063010874998,
                        "value": 0
                    },
                    {
                        "number": 64,
                        "time": 571.9635891874998,
                        "value": 1
                    },
                    {
                        "number": 64,
                        "time": 572.8951667833331,
                        "value": 0
                    },
                    {
                        "number": 64,
                        "time": 573.9793499999998,
                        "value": 1
                    },
                    {
                        "number": 64,
                        "time": 575.0908655666665,
                        "value": 0
                    },
                    {
                        "number": 64,
                        "time": 575.2935804958331,
                        "value": 1
                    },
                    {
                        "number": 64,
                        "time": 576.1978257416664,
                        "value": 0
                    },
                    {
                        "number": 64,
                        "time": 576.3618198416664,
                        "value": 1
                    },
                    {
                        "number": 64,
                        "time": 577.2660650874997,
                        "value": 0
                    },
                    {
                        "number": 64,
                        "time": 578.5347416666664,
                        "value": 1
                    },
                    {
                        "number": 64,
                        "time": 579.4572084791664,
                        "value": 0
                    },
                    {
                        "number": 64,
                        "time": 580.5391139999997,
                        "value": 1
                    },
                    {
                        "number": 64,
                        "time": 581.6620180458331,
                        "value": 0
                    },
                    {
                        "number": 64,
                        "time": 581.9216753708331,
                        "value": 1
                    },
                    {
                        "number": 64,
                        "time": 582.7644228291664,
                        "value": 0
                    },
                    {
                        "number": 64,
                        "time": 582.9511938874997,
                        "value": 1
                    },
                    {
                        "number": 64,
                        "time": 583.8189959999997,
                        "value": 0
                    },
                    {
                        "number": 64,
                        "time": 606.8692778333331,
                        "value": 1
                    },
                    {
                        "number": 64,
                        "time": 608.9761464791663,
                        "value": 0
                    },
                    {
                        "number": 64,
                        "time": 609.6548998374997,
                        "value": 1
                    },
                    {
                        "number": 64,
                        "time": 611.1786783499997,
                        "value": 0
                    },
                    {
                        "number": 64,
                        "time": 612.2970270041664,
                        "value": 1
                    },
                    {
                        "number": 64,
                        "time": 614.4745042208331,
                        "value": 0
                    },
                    {
                        "number": 64,
                        "time": 614.6157213624997,
                        "value": 1
                    },
                    {
                        "number": 64,
                        "time": 615.5586874374997,
                        "value": 0
                    },
                    {
                        "number": 64,
                        "time": 615.6930714916663,
                        "value": 1
                    },
                    {
                        "number": 64,
                        "time": 616.6178159999996,
                        "value": 0
                    },
                    {
                        "number": 64,
                        "time": 616.7317007916663,
                        "value": 1
                    },
                    {
                        "number": 64,
                        "time": 617.7452754374997,
                        "value": 0
                    },
                    {
                        "number": 64,
                        "time": 617.8409386624996,
                        "value": 1
                    },
                    {
                        "number": 64,
                        "time": 618.827180958333,
                        "value": 0
                    },
                    {
                        "number": 64,
                        "time": 618.9661204041663,
                        "value": 1
                    },
                    {
                        "number": 64,
                        "time": 619.9045310874997,
                        "value": 0
                    },
                    {
                        "number": 64,
                        "time": 620.1710214999997,
                        "value": 1
                    },
                    {
                        "number": 64,
                        "time": 621.020602045833,
                        "value": 0
                    },
                    {
                        "number": 64,
                        "time": 621.2643154999997,
                        "value": 1
                    },
                    {
                        "number": 64,
                        "time": 622.113896045833,
                        "value": 0
                    },
                    {
                        "number": 64,
                        "time": 622.2801678416664,
                        "value": 1
                    },
                    {
                        "number": 64,
                        "time": 623.1844130874997,
                        "value": 0
                    },
                    {
                        "number": 64,
                        "time": 623.3734618416664,
                        "value": 1
                    },
                    {
                        "number": 64,
                        "time": 624.3027617416665,
                        "value": 0
                    },
                    {
                        "number": 64,
                        "time": 624.5191428458331,
                        "value": 1
                    },
                    {
                        "number": 64,
                        "time": 625.3892226541665,
                        "value": 0
                    },
                    {
                        "number": 64,
                        "time": 625.5737160166665,
                        "value": 1
                    },
                    {
                        "number": 64,
                        "time": 626.4574619999999,
                        "value": 0
                    },
                    {
                        "number": 64,
                        "time": 626.7148416291665,
                        "value": 1
                    },
                    {
                        "number": 64,
                        "time": 627.5917545249998,
                        "value": 0
                    },
                    {
                        "number": 64,
                        "time": 628.9333173708332,
                        "value": 1
                    },
                    {
                        "number": 64,
                        "time": 629.7373439999998,
                        "value": 0
                    },
                    {
                        "number": 64,
                        "time": 629.9309481458331,
                        "value": 1
                    },
                    {
                        "number": 64,
                        "time": 630.8648034374997,
                        "value": 0
                    },
                    {
                        "number": 64,
                        "time": 632.1972554999998,
                        "value": 1
                    },
                    {
                        "number": 64,
                        "time": 633.0240590874997,
                        "value": 0
                    },
                    {
                        "number": 64,
                        "time": 633.258661758333,
                        "value": 1
                    },
                    {
                        "number": 64,
                        "time": 634.1378523499997,
                        "value": 0
                    },
                    {
                        "number": 64,
                        "time": 635.397418145833,
                        "value": 1
                    },
                    {
                        "number": 64,
                        "time": 636.306218783333,
                        "value": 0
                    },
                    {
                        "number": 64,
                        "time": 636.4269366624997,
                        "value": 1
                    },
                    {
                        "number": 64,
                        "time": 638.5041952624997,
                        "value": 0
                    },
                    {
                        "number": 64,
                        "time": 639.6043223499997,
                        "value": 1
                    },
                    {
                        "number": 64,
                        "time": 641.8227980916664,
                        "value": 0
                    },
                    {
                        "number": 64,
                        "time": 641.9457936666664,
                        "value": 1
                    },
                    {
                        "number": 64,
                        "time": 642.8568719999997,
                        "value": 0
                    },
                    {
                        "number": 64,
                        "time": 659.3360013541663,
                        "value": 1
                    },
                    {
                        "number": 64,
                        "time": 661.465646958333,
                        "value": 0
                    },
                    {
                        "number": 64,
                        "time": 662.5931063958329,
                        "value": 1
                    },
                    {
                        "number": 64,
                        "time": 663.6408464791663,
                        "value": 0
                    },
                    {
                        "number": 64,
                        "time": 664.0234993791663,
                        "value": 1
                    },
                    {
                        "number": 64,
                        "time": 664.7637505249996,
                        "value": 0
                    },
                    {
                        "number": 64,
                        "time": 665.9003207458329,
                        "value": 1
                    },
                    {
                        "number": 64,
                        "time": 668.0254109583329,
                        "value": 0
                    },
                    {
                        "number": 64,
                        "time": 669.200702008333,
                        "value": 1
                    },
                    {
                        "number": 64,
                        "time": 670.4762116749997,
                        "value": 0
                    },
                    {
                        "number": 64,
                        "time": 670.9203623624998,
                        "value": 1
                    },
                    {
                        "number": 64,
                        "time": 671.3554022666664,
                        "value": 0
                    },
                    {
                        "number": 64,
                        "time": 672.4327523958331,
                        "value": 1
                    },
                    {
                        "number": 64,
                        "time": 673.7834260249997,
                        "value": 0
                    },
                    {
                        "number": 64,
                        "time": 674.1524127499997,
                        "value": 1
                    },
                    {
                        "number": 64,
                        "time": 674.5942857416663,
                        "value": 0
                    },
                    {
                        "number": 64,
                        "time": 675.7695767916664,
                        "value": 1
                    },
                    {
                        "number": 64,
                        "time": 677.0359756749997,
                        "value": 0
                    },
                    {
                        "number": 64,
                        "time": 677.400407008333,
                        "value": 1
                    },
                    {
                        "number": 64,
                        "time": 677.8696123499997,
                        "value": 0
                    },
                    {
                        "number": 64,
                        "time": 679.033514920833,
                        "value": 1
                    },
                    {
                        "number": 64,
                        "time": 679.4936094791664,
                        "value": 0
                    },
                    {
                        "number": 64,
                        "time": 679.6598812749997,
                        "value": 1
                    },
                    {
                        "number": 64,
                        "time": 680.0562003499997,
                        "value": 0
                    },
                    {
                        "number": 64,
                        "time": 680.2224721458331,
                        "value": 1
                    },
                    {
                        "number": 64,
                        "time": 680.6165135249997,
                        "value": 0
                    },
                    {
                        "number": 64,
                        "time": 681.2041590499997,
                        "value": 1
                    },
                    {
                        "number": 64,
                        "time": 681.6756420874997,
                        "value": 0
                    },
                    {
                        "number": 64,
                        "time": 681.8464692749997,
                        "value": 1
                    },
                    {
                        "number": 64,
                        "time": 682.2154559999997,
                        "value": 0
                    },
                    {
                        "number": 64,
                        "time": 682.3931162749997,
                        "value": 1
                    },
                    {
                        "number": 64,
                        "time": 682.7734914791663,
                        "value": 0
                    },
                    {
                        "number": 64,
                        "time": 682.9397632749997,
                        "value": 1
                    },
                    {
                        "number": 64,
                        "time": 683.3360823499996,
                        "value": 0
                    },
                    {
                        "number": 64,
                        "time": 683.502354145833,
                        "value": 1
                    },
                    {
                        "number": 64,
                        "time": 683.8963955249997,
                        "value": 0
                    },
                    {
                        "number": 64,
                        "time": 684.4840410499996,
                        "value": 1
                    },
                    {
                        "number": 64,
                        "time": 684.9555240874996,
                        "value": 0
                    },
                    {
                        "number": 64,
                        "time": 685.1263512749996,
                        "value": 1
                    },
                    {
                        "number": 64,
                        "time": 685.4953379999996,
                        "value": 0
                    },
                    {
                        "number": 64,
                        "time": 685.6729982749996,
                        "value": 1
                    },
                    {
                        "number": 64,
                        "time": 686.0533734791662,
                        "value": 0
                    },
                    {
                        "number": 64,
                        "time": 686.2196452749996,
                        "value": 1
                    },
                    {
                        "number": 64,
                        "time": 686.6159643499996,
                        "value": 0
                    },
                    {
                        "number": 64,
                        "time": 686.7822361458329,
                        "value": 1
                    },
                    {
                        "number": 64,
                        "time": 687.1762775249996,
                        "value": 0
                    },
                    {
                        "number": 64,
                        "time": 687.7639230499996,
                        "value": 1
                    },
                    {
                        "number": 64,
                        "time": 688.2354060874995,
                        "value": 0
                    },
                    {
                        "number": 64,
                        "time": 688.4062332749995,
                        "value": 1
                    },
                    {
                        "number": 64,
                        "time": 688.7752199999995,
                        "value": 0
                    },
                    {
                        "number": 64,
                        "time": 688.9528802749995,
                        "value": 1
                    },
                    {
                        "number": 64,
                        "time": 689.3332554791662,
                        "value": 0
                    },
                    {
                        "number": 64,
                        "time": 689.4995272749995,
                        "value": 1
                    },
                    {
                        "number": 64,
                        "time": 689.8958463499995,
                        "value": 0
                    },
                    {
                        "number": 64,
                        "time": 690.0621181458329,
                        "value": 1
                    },
                    {
                        "number": 64,
                        "time": 690.4561595249995,
                        "value": 0
                    },
                    {
                        "number": 64,
                        "time": 691.0438050499995,
                        "value": 1
                    },
                    {
                        "number": 64,
                        "time": 691.5152880874995,
                        "value": 0
                    },
                    {
                        "number": 64,
                        "time": 691.6861152749995,
                        "value": 1
                    },
                    {
                        "number": 64,
                        "time": 692.0551019999995,
                        "value": 0
                    },
                    {
                        "number": 64,
                        "time": 692.1735421833328,
                        "value": 1
                    },
                    {
                        "number": 64,
                        "time": 692.6131374791661,
                        "value": 0
                    },
                    {
                        "number": 64,
                        "time": 692.7315776624994,
                        "value": 1
                    },
                    {
                        "number": 64,
                        "time": 693.1757283499994,
                        "value": 0
                    },
                    {
                        "number": 64,
                        "time": 693.2918908374994,
                        "value": 1
                    },
                    {
                        "number": 64,
                        "time": 693.7360415249995,
                        "value": 0
                    },
                    {
                        "number": 64,
                        "time": 694.4762926708328,
                        "value": 1
                    },
                    {
                        "number": 64,
                        "time": 695.3349839999994,
                        "value": 0
                    },
                    {
                        "number": 64,
                        "time": 695.4534241833327,
                        "value": 1
                    },
                    {
                        "number": 64,
                        "time": 695.893019479166,
                        "value": 0
                    },
                    {
                        "number": 64,
                        "time": 696.0114596624993,
                        "value": 1
                    },
                    {
                        "number": 64,
                        "time": 696.4556103499993,
                        "value": 0
                    },
                    {
                        "number": 64,
                        "time": 696.5717728374993,
                        "value": 1
                    },
                    {
                        "number": 64,
                        "time": 697.0159235249994,
                        "value": 0
                    },
                    {
                        "number": 64,
                        "time": 697.7561746708327,
                        "value": 1
                    },
                    {
                        "number": 64,
                        "time": 698.6148659999993,
                        "value": 0
                    },
                    {
                        "number": 64,
                        "time": 698.7333061833326,
                        "value": 1
                    },
                    {
                        "number": 64,
                        "time": 699.172901479166,
                        "value": 0
                    },
                    {
                        "number": 64,
                        "time": 699.2913416624992,
                        "value": 1
                    },
                    {
                        "number": 64,
                        "time": 699.7354923499993,
                        "value": 0
                    },
                    {
                        "number": 64,
                        "time": 699.8516548374993,
                        "value": 1
                    },
                    {
                        "number": 64,
                        "time": 700.2958055249993,
                        "value": 0
                    },
                    {
                        "number": 64,
                        "time": 701.0360566708326,
                        "value": 1
                    },
                    {
                        "number": 64,
                        "time": 701.8947479999993,
                        "value": 0
                    },
                    {
                        "number": 64,
                        "time": 702.0131881833325,
                        "value": 1
                    },
                    {
                        "number": 64,
                        "time": 702.4527834791659,
                        "value": 0
                    },
                    {
                        "number": 64,
                        "time": 702.5712236624992,
                        "value": 1
                    },
                    {
                        "number": 64,
                        "time": 703.0153743499992,
                        "value": 0
                    },
                    {
                        "number": 64,
                        "time": 703.1315368374992,
                        "value": 1
                    },
                    {
                        "number": 64,
                        "time": 703.5756875249992,
                        "value": 0
                    },
                    {
                        "number": 64,
                        "time": 704.3159386708326,
                        "value": 1
                    },
                    {
                        "number": 64,
                        "time": 705.1746299999992,
                        "value": 0
                    },
                    {
                        "number": 64,
                        "time": 705.3522902749992,
                        "value": 1
                    },
                    {
                        "number": 64,
                        "time": 705.7326654791658,
                        "value": 0
                    },
                    {
                        "number": 64,
                        "time": 705.8989372749992,
                        "value": 1
                    },
                    {
                        "number": 64,
                        "time": 706.2952563499991,
                        "value": 0
                    },
                    {
                        "number": 64,
                        "time": 706.4615281458325,
                        "value": 1
                    },
                    {
                        "number": 64,
                        "time": 706.8555695249992,
                        "value": 0
                    },
                    {
                        "number": 64,
                        "time": 707.4910466624991,
                        "value": 1
                    },
                    {
                        "number": 64,
                        "time": 707.9238088708324,
                        "value": 0
                    },
                    {
                        "number": 64,
                        "time": 708.1014691458324,
                        "value": 1
                    },
                    {
                        "number": 64,
                        "time": 708.4545119999991,
                        "value": 0
                    },
                    {
                        "number": 64,
                        "time": 708.6321722749991,
                        "value": 1
                    },
                    {
                        "number": 64,
                        "time": 709.0125474791657,
                        "value": 0
                    },
                    {
                        "number": 64,
                        "time": 709.1788192749991,
                        "value": 1
                    },
                    {
                        "number": 64,
                        "time": 709.5751383499991,
                        "value": 0
                    },
                    {
                        "number": 64,
                        "time": 709.7414101458324,
                        "value": 1
                    },
                    {
                        "number": 64,
                        "time": 710.1354515249991,
                        "value": 0
                    },
                    {
                        "number": 64,
                        "time": 710.770928662499,
                        "value": 1
                    },
                    {
                        "number": 64,
                        "time": 711.2036908708324,
                        "value": 0
                    },
                    {
                        "number": 64,
                        "time": 711.3813511458324,
                        "value": 1
                    },
                    {
                        "number": 64,
                        "time": 711.734393999999,
                        "value": 0
                    },
                    {
                        "number": 64,
                        "time": 711.9166096666657,
                        "value": 1
                    },
                    {
                        "number": 64,
                        "time": 712.2924294791658,
                        "value": 0
                    },
                    {
                        "number": 64,
                        "time": 712.4518681874991,
                        "value": 1
                    },
                    {
                        "number": 64,
                        "time": 712.8641311333324,
                        "value": 0
                    },
                    {
                        "number": 64,
                        "time": 713.0099036666658,
                        "value": 1
                    },
                    {
                        "number": 64,
                        "time": 713.3743349999991,
                        "value": 0
                    },
                    {
                        "number": 64,
                        "time": 713.545162187499,
                        "value": 1
                    },
                    {
                        "number": 64,
                        "time": 713.948314349999,
                        "value": 0
                    },
                    {
                        "number": 64,
                        "time": 714.1031976666657,
                        "value": 1
                    },
                    {
                        "number": 64,
                        "time": 715.014275999999,
                        "value": 0
                    },
                    {
                        "number": 64,
                        "time": 715.185103187499,
                        "value": 1
                    },
                    {
                        "number": 64,
                        "time": 716.6838270458322,
                        "value": 0
                    },
                    {
                        "number": 64,
                        "time": 717.0323145083322,
                        "value": 1
                    },
                    {
                        "number": 64,
                        "time": 718.3009910874989,
                        "value": 0
                    },
                    {
                        "number": 64,
                        "time": 718.5037060166655,
                        "value": 1
                    },
                    {
                        "number": 64,
                        "time": 719.8953781708323,
                        "value": 0
                    },
                    {
                        "number": 64,
                        "time": 720.0001521791656,
                        "value": 1
                    },
                    {
                        "number": 64,
                        "time": 720.4921344791657,
                        "value": 0
                    },
                    {
                        "number": 64,
                        "time": 720.6629616666656,
                        "value": 1
                    },
                    {
                        "number": 64,
                        "time": 721.047892262499,
                        "value": 0
                    },
                    {
                        "number": 64,
                        "time": 721.157221662499,
                        "value": 1
                    },
                    {
                        "number": 64,
                        "time": 721.6537593541656,
                        "value": 0
                    },
                    {
                        "number": 64,
                        "time": 721.8086426708322,
                        "value": 1
                    },
                    {
                        "number": 64,
                        "time": 722.6923886541656,
                        "value": 0
                    },
                    {
                        "number": 64,
                        "time": 722.8768820166656,
                        "value": 1
                    },
                    {
                        "number": 64,
                        "time": 723.7902380458323,
                        "value": 0
                    },
                    {
                        "number": 64,
                        "time": 724.0088968458323,
                        "value": 1
                    },
                    {
                        "number": 64,
                        "time": 724.8812543499989,
                        "value": 0
                    },
                    {
                        "number": 64,
                        "time": 725.0361376666656,
                        "value": 1
                    },
                    {
                        "number": 64,
                        "time": 725.9654375666656,
                        "value": 0
                    },
                    {
                        "number": 64,
                        "time": 726.1430978416656,
                        "value": 1
                    },
                    {
                        "number": 64,
                        "time": 727.0610092624989,
                        "value": 0
                    },
                    {
                        "number": 64,
                        "time": 727.2887788458323,
                        "value": 1
                    },
                    {
                        "number": 64,
                        "time": 728.133803999999,
                        "value": 0
                    },
                    {
                        "number": 64,
                        "time": 728.3547404958324,
                        "value": 1
                    },
                    {
                        "number": 64,
                        "time": 729.2498749583324,
                        "value": 0
                    },
                    {
                        "number": 64,
                        "time": 729.397925187499,
                        "value": 1
                    },
                    {
                        "number": 64,
                        "time": 729.8033550458324,
                        "value": 0
                    },
                    {
                        "number": 64,
                        "time": 729.9696268416658,
                        "value": 1
                    },
                    {
                        "number": 64,
                        "time": 730.3363358708325,
                        "value": 0
                    },
                    {
                        "number": 64,
                        "time": 730.4912191874992,
                        "value": 1
                    },
                    {
                        "number": 64,
                        "time": 730.8966490458325,
                        "value": 0
                    },
                    {
                        "number": 64,
                        "time": 731.0629208416659,
                        "value": 1
                    },
                    {
                        "number": 64,
                        "time": 731.4387406541659,
                        "value": 0
                    },
                    {
                        "number": 64,
                        "time": 731.5503477499992,
                        "value": 1
                    },
                    {
                        "number": 64,
                        "time": 732.5343123499993,
                        "value": 0
                    },
                    {
                        "number": 64,
                        "time": 732.6846402749993,
                        "value": 1
                    },
                    {
                        "number": 64,
                        "time": 734.7072341749993,
                        "value": 0
                    },
                    {
                        "number": 64,
                        "time": 760.9326239999992,
                        "value": 1
                    },
                    {
                        "number": 64,
                        "time": 761.5043256541659,
                        "value": 0
                    },
                    {
                        "number": 64,
                        "time": 761.6090996624993,
                        "value": 1
                    },
                    {
                        "number": 64,
                        "time": 762.0418618708326,
                        "value": 0
                    },
                    {
                        "number": 64,
                        "time": 762.2217998416659,
                        "value": 1
                    },
                    {
                        "number": 64,
                        "time": 762.5998973499992,
                        "value": 0
                    },
                    {
                        "number": 64,
                        "time": 762.7684468416659,
                        "value": 1
                    },
                    {
                        "number": 64,
                        "time": 763.1510997416659,
                        "value": 0
                    },
                    {
                        "number": 64,
                        "time": 763.301427666666,
                        "value": 1
                    },
                    {
                        "number": 64,
                        "time": 764.2125059999993,
                        "value": 0
                    },
                    {
                        "number": 64,
                        "time": 764.4220540166659,
                        "value": 1
                    },
                    {
                        "number": 64,
                        "time": 764.7887630458326,
                        "value": 0
                    },
                    {
                        "number": 64,
                        "time": 764.941368666666,
                        "value": 1
                    },
                    {
                        "number": 64,
                        "time": 765.3331323499993,
                        "value": 0
                    },
                    {
                        "number": 64,
                        "time": 765.5404026708327,
                        "value": 1
                    },
                    {
                        "number": 64,
                        "time": 765.877501654166,
                        "value": 0
                    },
                    {
                        "number": 64,
                        "time": 766.034662666666,
                        "value": 1
                    },
                    {
                        "number": 64,
                        "time": 766.4264263499994,
                        "value": 0
                    },
                    {
                        "number": 64,
                        "time": 766.6473628458327,
                        "value": 1
                    },
                    {
                        "number": 64,
                        "time": 766.957129479166,
                        "value": 0
                    },
                    {
                        "number": 64,
                        "time": 767.0892358374994,
                        "value": 1
                    },
                    {
                        "number": 64,
                        "time": 767.4923879999993,
                        "value": 0
                    },
                    {
                        "number": 64,
                        "time": 767.701936016666,
                        "value": 1
                    },
                    {
                        "number": 64,
                        "time": 768.0618119583327,
                        "value": 0
                    },
                    {
                        "number": 64,
                        "time": 768.2098621874993,
                        "value": 1
                    },
                    {
                        "number": 64,
                        "time": 768.6152920458327,
                        "value": 0
                    },
                    {
                        "number": 64,
                        "time": 768.7815638416661,
                        "value": 1
                    },
                    {
                        "number": 64,
                        "time": 769.1573836541661,
                        "value": 0
                    },
                    {
                        "number": 64,
                        "time": 769.2894900124994,
                        "value": 1
                    },
                    {
                        "number": 64,
                        "time": 769.7063083499994,
                        "value": 0
                    },
                    {
                        "number": 64,
                        "time": 769.8999124958327,
                        "value": 1
                    },
                    {
                        "number": 64,
                        "time": 770.2347337833327,
                        "value": 0
                    },
                    {
                        "number": 64,
                        "time": 770.4465594958326,
                        "value": 1
                    },
                    {
                        "number": 64,
                        "time": 770.7722699999993,
                        "value": 0
                    },
                    {
                        "number": 64,
                        "time": 770.886154791666,
                        "value": 1
                    },
                    {
                        "number": 64,
                        "time": 771.323472391666,
                        "value": 0
                    },
                    {
                        "number": 64,
                        "time": 771.5193542333326,
                        "value": 1
                    },
                    {
                        "number": 64,
                        "time": 771.8815078708326,
                        "value": 0
                    },
                    {
                        "number": 64,
                        "time": 772.0113365333326,
                        "value": 1
                    },
                    {
                        "number": 64,
                        "time": 772.9748018708326,
                        "value": 0
                    },
                    {
                        "number": 64,
                        "time": 773.0886866624993,
                        "value": 1
                    },
                    {
                        "number": 64,
                        "time": 774.0521519999993,
                        "value": 0
                    },
                    {
                        "number": 64,
                        "time": 775.8378655333327,
                        "value": 1
                    },
                    {
                        "number": 64,
                        "time": 776.2683500458327,
                        "value": 0
                    },
                    {
                        "number": 64,
                        "time": 776.4961196291661,
                        "value": 1
                    },
                    {
                        "number": 64,
                        "time": 777.3320339999993,
                        "value": 0
                    },
                    {
                        "number": 64,
                        "time": 779.1974668874993,
                        "value": 1
                    },
                    {
                        "number": 64,
                        "time": 779.5459543499993,
                        "value": 0
                    },
                    {
                        "number": 64,
                        "time": 779.728170016666,
                        "value": 1
                    },
                    {
                        "number": 64,
                        "time": 780.7098569208326,
                        "value": 0
                    },
                    {
                        "number": 64,
                        "time": 782.4454611458326,
                        "value": 1
                    },
                    {
                        "number": 64,
                        "time": 782.8258363499992,
                        "value": 0
                    },
                    {
                        "number": 64,
                        "time": 783.0877713708326,
                        "value": 1
                    },
                    {
                        "number": 64,
                        "time": 783.8917979999992,
                        "value": 0
                    },
                    {
                        "number": 64,
                        "time": 784.0102381833325,
                        "value": 1
                    },
                    {
                        "number": 64,
                        "time": 784.4566665666658,
                        "value": 0
                    },
                    {
                        "number": 64,
                        "time": 784.6479930166659,
                        "value": 1
                    },
                    {
                        "number": 64,
                        "time": 785.0101466541659,
                        "value": 0
                    },
                    {
                        "number": 64,
                        "time": 785.1673076666658,
                        "value": 1
                    },
                    {
                        "number": 64,
                        "time": 785.5727375249992,
                        "value": 0
                    },
                    {
                        "number": 64,
                        "time": 785.6752338374991,
                        "value": 1
                    },
                    {
                        "number": 64,
                        "time": 786.1011629583325,
                        "value": 0
                    },
                    {
                        "number": 64,
                        "time": 786.2492131874991,
                        "value": 1
                    },
                    {
                        "number": 64,
                        "time": 786.6569207416658,
                        "value": 0
                    },
                    {
                        "number": 64,
                        "time": 786.7548616624991,
                        "value": 1
                    },
                    {
                        "number": 64,
                        "time": 787.1716799999991,
                        "value": 0
                    },
                    {
                        "number": 64,
                        "time": 787.3015086624991,
                        "value": 1
                    },
                    {
                        "number": 64,
                        "time": 787.7479370458325,
                        "value": 0
                    },
                    {
                        "number": 64,
                        "time": 787.9005426666658,
                        "value": 1
                    },
                    {
                        "number": 64,
                        "time": 788.2923063499992,
                        "value": 0
                    },
                    {
                        "number": 64,
                        "time": 788.4358011874992,
                        "value": 1
                    },
                    {
                        "number": 64,
                        "time": 788.8230094791659,
                        "value": 0
                    },
                    {
                        "number": 64,
                        "time": 788.9824481874992,
                        "value": 1
                    },
                    {
                        "number": 64,
                        "time": 789.3673787833326,
                        "value": 0
                    },
                    {
                        "number": 64,
                        "time": 789.5290951874993,
                        "value": 1
                    },
                    {
                        "number": 64,
                        "time": 789.9345250458326,
                        "value": 0
                    },
                    {
                        "number": 64,
                        "time": 790.0757421874993,
                        "value": 1
                    },
                    {
                        "number": 64,
                        "time": 790.4515619999993,
                        "value": 0
                    },
                    {
                        "number": 64,
                        "time": 790.6451661458326,
                        "value": 1
                    },
                    {
                        "number": 64,
                        "time": 791.0255413499992,
                        "value": 0
                    },
                    {
                        "number": 64,
                        "time": 791.2237008874993,
                        "value": 1
                    },
                    {
                        "number": 64,
                        "time": 791.5744660458327,
                        "value": 0
                    },
                    {
                        "number": 64,
                        "time": 791.7225162749993,
                        "value": 1
                    },
                    {
                        "number": 64,
                        "time": 792.1325015249993,
                        "value": 0
                    },
                    {
                        "number": 64,
                        "time": 792.3169948874993,
                        "value": 1
                    },
                    {
                        "number": 64,
                        "time": 792.6677600458327,
                        "value": 0
                    },
                    {
                        "number": 64,
                        "time": 792.9114734999994,
                        "value": 1
                    },
                    {
                        "number": 64,
                        "time": 793.7929417874993,
                        "value": 0
                    },
                    {
                        "number": 64,
                        "time": 799.2389125249994,
                        "value": 1
                    },
                    {
                        "number": 64,
                        "time": 799.7582271749993,
                        "value": 0
                    },
                    {
                        "number": 64,
                        "time": 799.8333911374993,
                        "value": 1
                    },
                    {
                        "number": 64,
                        "time": 800.2912079999993,
                        "value": 0
                    },
                    {
                        "number": 64,
                        "time": 800.4096481833326,
                        "value": 1
                    },
                    {
                        "number": 64,
                        "time": 800.862909654166,
                        "value": 0
                    },
                    {
                        "number": 64,
                        "time": 800.9357959208326,
                        "value": 1
                    },
                    {
                        "number": 64,
                        "time": 801.4141120458326,
                        "value": 0
                    },
                    {
                        "number": 64,
                        "time": 801.5279968374992,
                        "value": 1
                    },
                    {
                        "number": 64,
                        "time": 802.5096837416659,
                        "value": 0
                    },
                    {
                        "number": 64,
                        "time": 803.0631638291659,
                        "value": 1
                    },
                    {
                        "number": 64,
                        "time": 803.5710899999992,
                        "value": 0
                    },
                    {
                        "number": 64,
                        "time": 803.7168625333326,
                        "value": 1
                    },
                    {
                        "number": 64,
                        "time": 804.6803278708326,
                        "value": 0
                    },
                    {
                        "number": 64,
                        "time": 804.8739320166659,
                        "value": 1
                    },
                    {
                        "number": 64,
                        "time": 805.7736218708326,
                        "value": 0
                    },
                    {
                        "number": 64,
                        "time": 806.3430458291659,
                        "value": 1
                    },
                    {
                        "number": 64,
                        "time": 806.8509719999993,
                        "value": 0
                    },
                    {
                        "number": 64,
                        "time": 806.9967445333326,
                        "value": 1
                    },
                    {
                        "number": 64,
                        "time": 807.9602098708326,
                        "value": 0
                    },
                    {
                        "number": 64,
                        "time": 808.1538140166659,
                        "value": 1
                    },
                    {
                        "number": 64,
                        "time": 809.0535038708326,
                        "value": 0
                    },
                    {
                        "number": 64,
                        "time": 810.1308539999993,
                        "value": 1
                    },
                    {
                        "number": 64,
                        "time": 810.6934448708326,
                        "value": 0
                    },
                    {
                        "number": 64,
                        "time": 810.8483281874993,
                        "value": 1
                    },
                    {
                        "number": 64,
                        "time": 811.2537580458327,
                        "value": 0
                    },
                    {
                        "number": 64,
                        "time": 811.3949751874993,
                        "value": 1
                    },
                    {
                        "number": 64,
                        "time": 811.7935719583327,
                        "value": 0
                    },
                    {
                        "number": 64,
                        "time": 811.9279560124993,
                        "value": 1
                    },
                    {
                        "number": 64,
                        "time": 812.335663566666,
                        "value": 0
                    },
                    {
                        "number": 64,
                        "time": 812.4609368374993,
                        "value": 1
                    },
                    {
                        "number": 64,
                        "time": 812.8709220874993,
                        "value": 0
                    },
                    {
                        "number": 64,
                        "time": 812.9939176624993,
                        "value": 1
                    },
                    {
                        "number": 64,
                        "time": 813.4107359999992,
                        "value": 0
                    },
                    {
                        "number": 64,
                        "time": 813.5542308374993,
                        "value": 1
                    },
                    {
                        "number": 64,
                        "time": 814.522251566666,
                        "value": 0
                    },
                    {
                        "number": 64,
                        "time": 814.6611910124993,
                        "value": 1
                    },
                    {
                        "number": 64,
                        "time": 815.075731654166,
                        "value": 0
                    },
                    {
                        "number": 64,
                        "time": 815.232892666666,
                        "value": 1
                    },
                    {
                        "number": 64,
                        "time": 815.6246563499993,
                        "value": 0
                    },
                    {
                        "number": 64,
                        "time": 815.779539666666,
                        "value": 1
                    },
                    {
                        "number": 64,
                        "time": 816.169025654166,
                        "value": 0
                    },
                    {
                        "number": 64,
                        "time": 816.3922398458327,
                        "value": 1
                    },
                    {
                        "number": 64,
                        "time": 816.7065618708327,
                        "value": 0
                    },
                    {
                        "number": 64,
                        "time": 816.8728336666661,
                        "value": 1
                    },
                    {
                        "number": 64,
                        "time": 817.2645973499995,
                        "value": 0
                    },
                    {
                        "number": 64,
                        "time": 817.4080921874995,
                        "value": 1
                    },
                    {
                        "number": 64,
                        "time": 817.8135220458329,
                        "value": 0
                    },
                    {
                        "number": 64,
                        "time": 817.9661276666662,
                        "value": 1
                    },
                    {
                        "number": 64,
                        "time": 818.9068160458329,
                        "value": 0
                    },
                    {
                        "number": 64,
                        "time": 819.0981424958329,
                        "value": 1
                    },
                    {
                        "number": 64,
                        "time": 819.9704999999996,
                        "value": 0
                    },
                    {
                        "number": 64,
                        "time": 820.1527156666663,
                        "value": 1
                    },
                    {
                        "number": 64,
                        "time": 822.1798649583329,
                        "value": 0
                    },
                    {
                        "number": 64,
                        "time": 822.3506921458329,
                        "value": 1
                    },
                    {
                        "number": 64,
                        "time": 823.2503819999996,
                        "value": 0
                    },
                    {
                        "number": 64,
                        "time": 823.4325976666663,
                        "value": 1
                    },
                    {
                        "number": 64,
                        "time": 825.459746958333,
                        "value": 0
                    },
                    {
                        "number": 64,
                        "time": 825.630574145833,
                        "value": 1
                    },
                    {
                        "number": 64,
                        "time": 826.5302639999996,
                        "value": 0
                    },
                    {
                        "number": 64,
                        "time": 826.7124796666664,
                        "value": 1
                    },
                    {
                        "number": 64,
                        "time": 828.739628958333,
                        "value": 0
                    },
                    {
                        "number": 64,
                        "time": 828.910456145833,
                        "value": 1
                    },
                    {
                        "number": 64,
                        "time": 829.8101459999997,
                        "value": 0
                    },
                    {
                        "number": 64,
                        "time": 829.962751620833,
                        "value": 1
                    },
                    {
                        "number": 64,
                        "time": 832.012677870833,
                        "value": 0
                    },
                    {
                        "number": 64,
                        "time": 832.1743942749997,
                        "value": 1
                    },
                    {
                        "number": 64,
                        "time": 833.0900279999997,
                        "value": 0
                    },
                    {
                        "number": 64,
                        "time": 833.2426336208331,
                        "value": 1
                    },
                    {
                        "number": 64,
                        "time": 835.2925598708331,
                        "value": 0
                    },
                    {
                        "number": 64,
                        "time": 835.4542762749998,
                        "value": 1
                    },
                    {
                        "number": 64,
                        "time": 836.3699099999998,
                        "value": 0
                    },
                    {
                        "number": 64,
                        "time": 836.5225156208331,
                        "value": 1
                    },
                    {
                        "number": 64,
                        "time": 838.5724418708331,
                        "value": 0
                    },
                    {
                        "number": 64,
                        "time": 838.7341582749998,
                        "value": 1
                    },
                    {
                        "number": 64,
                        "time": 839.6497919999998,
                        "value": 0
                    },
                    {
                        "number": 64,
                        "time": 840.0073902458331,
                        "value": 1
                    },
                    {
                        "number": 64,
                        "time": 840.7681406541665,
                        "value": 0
                    },
                    {
                        "number": 64,
                        "time": 840.9321347541664,
                        "value": 1
                    },
                    {
                        "number": 64,
                        "time": 842.9957271791665,
                        "value": 0
                    },
                    {
                        "number": 64,
                        "time": 860.4952642666665,
                        "value": 1
                    },
                    {
                        "number": 64,
                        "time": 861.5726143958332,
                        "value": 0
                    },
                    {
                        "number": 64,
                        "time": 861.7161092333332,
                        "value": 1
                    },
                    {
                        "number": 64,
                        "time": 862.6089659999999,
                        "value": 0
                    },
                    {
                        "number": 64,
                        "time": 863.8480325333333,
                        "value": 1
                    },
                    {
                        "number": 64,
                        "time": 864.8274417416666,
                        "value": 0
                    },
                    {
                        "number": 64,
                        "time": 864.9572704041666,
                        "value": 1
                    },
                    {
                        "number": 64,
                        "time": 865.8888479999999,
                        "value": 0
                    },
                    {
                        "number": 64,
                        "time": 867.0550282666666,
                        "value": 1
                    },
                    {
                        "number": 64,
                        "time": 868.1323783958333,
                        "value": 0
                    },
                    {
                        "number": 64,
                        "time": 868.2758732333333,
                        "value": 1
                    },
                    {
                        "number": 64,
                        "time": 869.16873,
                        "value": 0
                    },
                    {
                        "number": 64,
                        "time": 870.4077965333333,
                        "value": 1
                    },
                    {
                        "number": 64,
                        "time": 871.3872057416667,
                        "value": 0
                    },
                    {
                        "number": 64,
                        "time": 871.5170344041667,
                        "value": 1
                    },
                    {
                        "number": 64,
                        "time": 872.448612,
                        "value": 0
                    },
                    {
                        "number": 64,
                        "time": 873.6876785333334,
                        "value": 1
                    },
                    {
                        "number": 64,
                        "time": 874.6670877416667,
                        "value": 0
                    },
                    {
                        "number": 64,
                        "time": 874.7969164041667,
                        "value": 1
                    },
                    {
                        "number": 64,
                        "time": 875.7284940000001,
                        "value": 0
                    },
                    {
                        "number": 64,
                        "time": 876.9675605333334,
                        "value": 1
                    },
                    {
                        "number": 64,
                        "time": 877.9469697416667,
                        "value": 0
                    },
                    {
                        "number": 64,
                        "time": 878.0767984041668,
                        "value": 1
                    },
                    {
                        "number": 64,
                        "time": 879.0083760000001,
                        "value": 0
                    },
                    {
                        "number": 64,
                        "time": 880.2474425333335,
                        "value": 1
                    },
                    {
                        "number": 64,
                        "time": 881.2268517416668,
                        "value": 0
                    },
                    {
                        "number": 64,
                        "time": 881.3566804041668,
                        "value": 1
                    },
                    {
                        "number": 64,
                        "time": 882.2882580000002,
                        "value": 0
                    },
                    {
                        "number": 64,
                        "time": 883.5273245333335,
                        "value": 1
                    },
                    {
                        "number": 64,
                        "time": 884.5067337416668,
                        "value": 0
                    },
                    {
                        "number": 64,
                        "time": 884.6365624041669,
                        "value": 1
                    },
                    {
                        "number": 64,
                        "time": 885.5681400000002,
                        "value": 0
                    },
                    {
                        "number": 64,
                        "time": 886.7206540916669,
                        "value": 1
                    },
                    {
                        "number": 64,
                        "time": 887.3128550083336,
                        "value": 0
                    },
                    {
                        "number": 64,
                        "time": 887.8595020083336,
                        "value": 1
                    },
                    {
                        "number": 64,
                        "time": 888.3924828333336,
                        "value": 0
                    },
                    {
                        "number": 64,
                        "time": 888.9527960083336,
                        "value": 1
                    },
                    {
                        "number": 64,
                        "time": 889.467555266667,
                        "value": 0
                    },
                    {
                        "number": 64,
                        "time": 890.0324238333336,
                        "value": 1
                    },
                    {
                        "number": 64,
                        "time": 890.6382909250003,
                        "value": 0
                    },
                    {
                        "number": 64,
                        "time": 891.1462170958337,
                        "value": 1
                    },
                    {
                        "number": 64,
                        "time": 891.8295258458337,
                        "value": 0
                    },
                    {
                        "number": 64,
                        "time": 892.207623354167,
                        "value": 1
                    },
                    {
                        "number": 64,
                        "time": 892.8248789250003,
                        "value": 0
                    },
                    {
                        "number": 64,
                        "time": 893.3259720083337,
                        "value": 1
                    },
                    {
                        "number": 64,
                        "time": 893.7951773500004,
                        "value": 0
                    },
                    {
                        "number": 64,
                        "time": 894.4192660083337,
                        "value": 1
                    },
                    {
                        "number": 64,
                        "time": 894.9727460958337,
                        "value": 0
                    },
                    {
                        "number": 64,
                        "time": 895.5125600083337,
                        "value": 1
                    },
                    {
                        "number": 64,
                        "time": 896.1822025833337,
                        "value": 0
                    },
                    {
                        "number": 64,
                        "time": 896.6263532708338,
                        "value": 1
                    },
                    {
                        "number": 64,
                        "time": 897.1661671833338,
                        "value": 0
                    },
                    {
                        "number": 64,
                        "time": 897.7310357500004,
                        "value": 1
                    },
                    {
                        "number": 64,
                        "time": 899.7809620000004,
                        "value": 0
                    },
                    {
                        "number": 64,
                        "time": 900.0679516750004,
                        "value": 1
                    },
                    {
                        "number": 64,
                        "time": 900.8355351708337,
                        "value": 0
                    },
                    {
                        "number": 64,
                        "time": 902.1110448375005,
                        "value": 1
                    },
                    {
                        "number": 64,
                        "time": 902.6576918375005,
                        "value": 0
                    },
                    {
                        "number": 64,
                        "time": 903.2954466708338,
                        "value": 1
                    },
                    {
                        "number": 64,
                        "time": 903.9992546833338,
                        "value": 0
                    },
                    {
                        "number": 64,
                        "time": 932.0331350000005,
                        "value": 1
                    },
                    {
                        "number": 64,
                        "time": 933.6867421750005,
                        "value": 0
                    },
                    {
                        "number": 64,
                        "time": 961.0054260000005,
                        "value": 1
                    },
                    {
                        "number": 64,
                        "time": 963.2147909583339,
                        "value": 0
                    },
                    {
                        "number": 64,
                        "time": 975.9471106666672,
                        "value": 1
                    },
                    {
                        "number": 64,
                        "time": 977.4048360000005,
                        "value": 0
                    },
                    {
                        "number": 64,
                        "time": 987.4016430125005,
                        "value": 1
                    },
                    {
                        "number": 64,
                        "time": 990.5243640000004,
                        "value": 0
                    },
                    {
                        "number": 64,
                        "time": 992.1392503458338,
                        "value": 1
                    },
                    {
                        "number": 64,
                        "time": 993.8042460000005,
                        "value": 0
                    },
                    {
                        "number": 64,
                        "time": 994.5854956708338,
                        "value": 1
                    },
                    {
                        "number": 64,
                        "time": 996.0158886541672,
                        "value": 0
                    },
                    {
                        "number": 64,
                        "time": 996.4600393416672,
                        "value": 1
                    },
                    {
                        "number": 64,
                        "time": 997.1023495666672,
                        "value": 0
                    },
                    {
                        "number": 64,
                        "time": 998.9062846666671,
                        "value": 1
                    },
                    {
                        "number": 64,
                        "time": 999.3003260458338,
                        "value": 0
                    },
                    {
                        "number": 64,
                        "time": 999.9471916625005,
                        "value": 1
                    },
                    {
                        "number": 64,
                        "time": 1000.3640100000005,
                        "value": 0
                    },
                    {
                        "number": 64,
                        "time": 1000.9903763541671,
                        "value": 1
                    },
                    {
                        "number": 64,
                        "time": 1001.4891917416671,
                        "value": 0
                    },
                    {
                        "number": 64,
                        "time": 1002.0312833500004,
                        "value": 1
                    },
                    {
                        "number": 64,
                        "time": 1002.5802080458337,
                        "value": 0
                    },
                    {
                        "number": 64,
                        "time": 1003.0198033416671,
                        "value": 1
                    },
                    {
                        "number": 64,
                        "time": 1003.6438920000004,
                        "value": 0
                    },
                    {
                        "number": 64,
                        "time": 1004.8419600083337,
                        "value": 1
                    },
                    {
                        "number": 64,
                        "time": 1005.8555346541671,
                        "value": 0
                    },
                    {
                        "number": 64,
                        "time": 1005.9671417500003,
                        "value": 1
                    },
                    {
                        "number": 64,
                        "time": 1006.9237740000003,
                        "value": 0
                    },
                    {
                        "number": 64,
                        "time": 1013.4835380000003,
                        "value": 0
                    },
                    {
                        "number": 64,
                        "time": 1014.6816060083336,
                        "value": 1
                    },
                    {
                        "number": 64,
                        "time": 1015.695180654167,
                        "value": 0
                    },
                    {
                        "number": 64,
                        "time": 1015.8067877500002,
                        "value": 1
                    },
                    {
                        "number": 64,
                        "time": 1016.7634200000002,
                        "value": 0
                    },
                    {
                        "number": 64,
                        "time": 1027.810244791667,
                        "value": 1
                    },
                    {
                        "number": 64,
                        "time": 1028.821541741667,
                        "value": 0
                    },
                    {
                        "number": 64,
                        "time": 1028.9422596208337,
                        "value": 1
                    },
                    {
                        "number": 64,
                        "time": 1029.8829480000004,
                        "value": 0
                    },
                    {
                        "number": 64,
                        "time": 1030.481982004167,
                        "value": 1
                    },
                    {
                        "number": 64,
                        "time": 1030.9990189583339,
                        "value": 0
                    },
                    {
                        "number": 64,
                        "time": 1031.2768978500005,
                        "value": 1
                    },
                    {
                        "number": 64,
                        "time": 1032.0968683500005,
                        "value": 0
                    },
                    {
                        "number": 64,
                        "time": 1032.2790840166672,
                        "value": 1
                    },
                    {
                        "number": 64,
                        "time": 1032.641237654167,
                        "value": 0
                    },
                    {
                        "number": 64,
                        "time": 1032.798398666667,
                        "value": 1
                    },
                    {
                        "number": 64,
                        "time": 1033.1787738708338,
                        "value": 0
                    },
                    {
                        "number": 64,
                        "time": 1033.4042657583338,
                        "value": 1
                    },
                    {
                        "number": 64,
                        "time": 1034.288011741667,
                        "value": 0
                    },
                    {
                        "number": 64,
                        "time": 1034.4816158875005,
                        "value": 1
                    },
                    {
                        "number": 64,
                        "time": 1034.832381045834,
                        "value": 0
                    },
                    {
                        "number": 64,
                        "time": 1034.996375145834,
                        "value": 1
                    },
                    {
                        "number": 64,
                        "time": 1035.379028045834,
                        "value": 0
                    },
                    {
                        "number": 64,
                        "time": 1035.6067976291674,
                        "value": 1
                    },
                    {
                        "number": 64,
                        "time": 1036.5087651791675,
                        "value": 0
                    },
                    {
                        "number": 64,
                        "time": 1036.6636484958342,
                        "value": 1
                    },
                    {
                        "number": 64,
                        "time": 1037.0166913500009,
                        "value": 0
                    },
                    {
                        "number": 64,
                        "time": 1037.1852408416676,
                        "value": 1
                    },
                    {
                        "number": 64,
                        "time": 1037.5656160458343,
                        "value": 0
                    },
                    {
                        "number": 64,
                        "time": 1037.7318878416677,
                        "value": 1
                    },
                    {
                        "number": 64,
                        "time": 1038.6543546541677,
                        "value": 0
                    },
                    {
                        "number": 64,
                        "time": 1038.8639026708345,
                        "value": 1
                    },
                    {
                        "number": 64,
                        "time": 1039.1941685666677,
                        "value": 0
                    },
                    {
                        "number": 64,
                        "time": 1039.319441837501,
                        "value": 1
                    },
                    {
                        "number": 64,
                        "time": 1039.736260175001,
                        "value": 0
                    },
                    {
                        "number": 64,
                        "time": 1039.9048096666677,
                        "value": 1
                    },
                    {
                        "number": 64,
                        "time": 1040.8454980458343,
                        "value": 0
                    },
                    {
                        "number": 64,
                        "time": 1041.0254360166678,
                        "value": 1
                    },
                    {
                        "number": 64,
                        "time": 1041.3784788708344,
                        "value": 0
                    },
                    {
                        "number": 64,
                        "time": 1041.5447506666678,
                        "value": 1
                    },
                    {
                        "number": 64,
                        "time": 1041.9342366541678,
                        "value": 0
                    },
                    {
                        "number": 64,
                        "time": 1042.0913976666677,
                        "value": 1
                    },
                    {
                        "number": 64,
                        "time": 1043.016142175001,
                        "value": 0
                    },
                    {
                        "number": 64,
                        "time": 1043.2120240166678,
                        "value": 1
                    },
                    {
                        "number": 64,
                        "time": 1043.583288437501,
                        "value": 0
                    },
                    {
                        "number": 64,
                        "time": 1043.7313386666679,
                        "value": 1
                    },
                    {
                        "number": 64,
                        "time": 1044.1253800458346,
                        "value": 0
                    },
                    {
                        "number": 64,
                        "time": 1044.291651841668,
                        "value": 1
                    },
                    {
                        "number": 64,
                        "time": 1045.214118654168,
                        "value": 0
                    },
                    {
                        "number": 64,
                        "time": 1045.4897198500014,
                        "value": 1
                    },
                    {
                        "number": 64,
                        "time": 1045.7470994791681,
                        "value": 0
                    },
                    {
                        "number": 64,
                        "time": 1045.8655396625015,
                        "value": 1
                    },
                    {
                        "number": 64,
                        "time": 1046.3301896125015,
                        "value": 0
                    },
                    {
                        "number": 64,
                        "time": 1046.5078498875016,
                        "value": 1
                    },
                    {
                        "number": 64,
                        "time": 1047.4075397416682,
                        "value": 0
                    },
                    {
                        "number": 64,
                        "time": 1047.664919370835,
                        "value": 1
                    },
                    {
                        "number": 64,
                        "time": 1047.9564644375016,
                        "value": 0
                    },
                    {
                        "number": 64,
                        "time": 1048.211566370835,
                        "value": 1
                    },
                    {
                        "number": 64,
                        "time": 1048.4962783500016,
                        "value": 0
                    },
                    {
                        "number": 64,
                        "time": 1048.710381758335,
                        "value": 1
                    },
                    {
                        "number": 64,
                        "time": 1049.5622400000016,
                        "value": 0
                    },
                    {
                        "number": 64,
                        "time": 1049.7330671875015,
                        "value": 1
                    },
                    {
                        "number": 64,
                        "time": 1050.1384970458348,
                        "value": 0
                    },
                    {
                        "number": 64,
                        "time": 1050.2660480125014,
                        "value": 1
                    },
                    {
                        "number": 64,
                        "time": 1050.6828663500014,
                        "value": 0
                    },
                    {
                        "number": 64,
                        "time": 1050.8263611875013,
                        "value": 1
                    },
                    {
                        "number": 64,
                        "time": 1051.220402566668,
                        "value": 0
                    },
                    {
                        "number": 64,
                        "time": 1051.3593420125014,
                        "value": 1
                    },
                    {
                        "number": 64,
                        "time": 1051.7716049583348,
                        "value": 0
                    },
                    {
                        "number": 64,
                        "time": 1051.9196551875016,
                        "value": 1
                    },
                    {
                        "number": 64,
                        "time": 1052.3250850458348,
                        "value": 0
                    },
                    {
                        "number": 64,
                        "time": 1052.4776906666682,
                        "value": 1
                    },
                    {
                        "number": 64,
                        "time": 1052.8421220000016,
                        "value": 0
                    },
                    {
                        "number": 64,
                        "time": 1052.946896008335,
                        "value": 1
                    },
                    {
                        "number": 64,
                        "time": 1053.4069905666684,
                        "value": 0
                    },
                    {
                        "number": 64,
                        "time": 1053.493543008335,
                        "value": 1
                    },
                    {
                        "number": 64,
                        "time": 1053.9673037416685,
                        "value": 0
                    },
                    {
                        "number": 64,
                        "time": 1054.081188533335,
                        "value": 1
                    },
                    {
                        "number": 64,
                        "time": 1054.498006870835,
                        "value": 0
                    },
                    {
                        "number": 64,
                        "time": 1054.6027808791684,
                        "value": 1
                    },
                    {
                        "number": 64,
                        "time": 1055.0537646541684,
                        "value": 0
                    },
                    {
                        "number": 64,
                        "time": 1055.2063702750017,
                        "value": 1
                    },
                    {
                        "number": 64,
                        "time": 1056.1356701750017,
                        "value": 0
                    },
                    {
                        "number": 64,
                        "time": 1056.240444183335,
                        "value": 1
                    },
                    {
                        "number": 64,
                        "time": 1057.2289641750017,
                        "value": 0
                    },
                    {
                        "number": 64,
                        "time": 1057.313238920835,
                        "value": 1
                    },
                    {
                        "number": 64,
                        "time": 1058.3268135666683,
                        "value": 0
                    },
                    {
                        "number": 64,
                        "time": 1058.9281252666683,
                        "value": 1
                    },
                    {
                        "number": 64,
                        "time": 1059.4018860000017,
                        "value": 0
                    },
                    {
                        "number": 64,
                        "time": 1059.5590470125017,
                        "value": 1
                    },
                    {
                        "number": 64,
                        "time": 1060.5202346541682,
                        "value": 0
                    },
                    {
                        "number": 64,
                        "time": 1060.6773956666682,
                        "value": 1
                    },
                    {
                        "number": 64,
                        "time": 1061.5634193458347,
                        "value": 0
                    },
                    {
                        "number": 64,
                        "time": 1062.2398950083348,
                        "value": 1
                    },
                    {
                        "number": 64,
                        "time": 1062.693156479168,
                        "value": 0
                    },
                    {
                        "number": 64,
                        "time": 1062.8525951875013,
                        "value": 1
                    },
                    {
                        "number": 64,
                        "time": 1063.8001166541678,
                        "value": 0
                    },
                    {
                        "number": 64,
                        "time": 1064.0096646708346,
                        "value": 1
                    },
                    {
                        "number": 64,
                        "time": 1064.886577566668,
                        "value": 0
                    },
                    {
                        "number": 64,
                        "time": 1065.5448316625013,
                        "value": 1
                    },
                    {
                        "number": 64,
                        "time": 1066.000370829168,
                        "value": 0
                    },
                    {
                        "number": 64,
                        "time": 1066.157531841668,
                        "value": 1
                    },
                    {
                        "number": 64,
                        "time": 1067.0777209583348,
                        "value": 0
                    },
                    {
                        "number": 64,
                        "time": 1067.250825841668,
                        "value": 1
                    },
                    {
                        "number": 64,
                        "time": 1068.1755703500014,
                        "value": 0
                    },
                    {
                        "number": 64,
                        "time": 1068.3577860166681,
                        "value": 1
                    },
                    {
                        "number": 64,
                        "time": 1069.2415320000014,
                        "value": 0
                    },
                    {
                        "number": 64,
                        "time": 1069.3986930125013,
                        "value": 1
                    },
                    {
                        "number": 64,
                        "time": 1070.353047566668,
                        "value": 0
                    },
                    {
                        "number": 64,
                        "time": 1070.544374016668,
                        "value": 1
                    },
                    {
                        "number": 64,
                        "time": 1071.4554523500012,
                        "value": 0
                    },
                    {
                        "number": 64,
                        "time": 1071.6103356666679,
                        "value": 1
                    },
                    {
                        "number": 64,
                        "time": 1072.5214140000012,
                        "value": 0
                    },
                    {
                        "number": 64,
                        "time": 1072.6034110500011,
                        "value": 1
                    },
                    {
                        "number": 64,
                        "time": 1073.6374849583344,
                        "value": 0
                    },
                    {
                        "number": 64,
                        "time": 1073.7194820083344,
                        "value": 1
                    },
                    {
                        "number": 64,
                        "time": 1074.7376120458343,
                        "value": 0
                    },
                    {
                        "number": 64,
                        "time": 1074.9175500166677,
                        "value": 1
                    },
                    {
                        "number": 64,
                        "time": 1075.9060700083344,
                        "value": 0
                    },
                    {
                        "number": 64,
                        "time": 1076.0586756291677,
                        "value": 1
                    },
                    {
                        "number": 64,
                        "time": 1076.9264777416677,
                        "value": 0
                    },
                    {
                        "number": 64,
                        "time": 1077.0471956208344,
                        "value": 1
                    },
                    {
                        "number": 64,
                        "time": 1078.0174940458344,
                        "value": 0
                    },
                    {
                        "number": 64,
                        "time": 1078.6871366208343,
                        "value": 1
                    },
                    {
                        "number": 64,
                        "time": 1079.0948441750008,
                        "value": 0
                    },
                    {
                        "number": 64,
                        "time": 1079.2747821458343,
                        "value": 1
                    },
                    {
                        "number": 64,
                        "time": 1079.6392134791677,
                        "value": 0
                    },
                    {
                        "number": 64,
                        "time": 1079.8214291458344,
                        "value": 1
                    },
                    {
                        "number": 64,
                        "time": 1080.1904158708344,
                        "value": 0
                    },
                    {
                        "number": 64,
                        "time": 1080.4159077583345,
                        "value": 1
                    },
                    {
                        "number": 64,
                        "time": 1080.7530067416678,
                        "value": 0
                    },
                    {
                        "number": 64,
                        "time": 1080.9147231458344,
                        "value": 1
                    },
                    {
                        "number": 64,
                        "time": 1081.2928206541678,
                        "value": 0
                    },
                    {
                        "number": 64,
                        "time": 1081.5092017583345,
                        "value": 1
                    },
                    {
                        "number": 64,
                        "time": 1081.8371899583344,
                        "value": 0
                    },
                    {
                        "number": 64,
                        "time": 1081.9761294041678,
                        "value": 1
                    },
                    {
                        "number": 64,
                        "time": 1082.3792815666677,
                        "value": 0
                    },
                    {
                        "number": 64,
                        "time": 1082.5546641458343,
                        "value": 1
                    },
                    {
                        "number": 64,
                        "time": 1082.9190954791677,
                        "value": 0
                    },
                    {
                        "number": 64,
                        "time": 1083.1013111458344,
                        "value": 1
                    },
                    {
                        "number": 64,
                        "time": 1083.4702978708344,
                        "value": 0
                    },
                    {
                        "number": 64,
                        "time": 1083.6957897583345,
                        "value": 1
                    },
                    {
                        "number": 64,
                        "time": 1084.0328887416679,
                        "value": 0
                    },
                    {
                        "number": 64,
                        "time": 1084.1946051458344,
                        "value": 1
                    },
                    {
                        "number": 64,
                        "time": 1084.5727026541679,
                        "value": 0
                    },
                    {
                        "number": 64,
                        "time": 1084.7890837583345,
                        "value": 1
                    },
                    {
                        "number": 64,
                        "time": 1085.1170719583345,
                        "value": 0
                    },
                    {
                        "number": 64,
                        "time": 1085.2560114041678,
                        "value": 1
                    },
                    {
                        "number": 64,
                        "time": 1085.6591635666678,
                        "value": 0
                    },
                    {
                        "number": 64,
                        "time": 1085.8345461458343,
                        "value": 1
                    },
                    {
                        "number": 64,
                        "time": 1086.1989774791678,
                        "value": 0
                    },
                    {
                        "number": 64,
                        "time": 1086.3811931458345,
                        "value": 1
                    },
                    {
                        "number": 64,
                        "time": 1086.7501798708345,
                        "value": 0
                    },
                    {
                        "number": 64,
                        "time": 1086.9756717583346,
                        "value": 1
                    },
                    {
                        "number": 64,
                        "time": 1087.312770741668,
                        "value": 0
                    },
                    {
                        "number": 64,
                        "time": 1087.4744871458345,
                        "value": 1
                    },
                    {
                        "number": 64,
                        "time": 1087.852584654168,
                        "value": 0
                    },
                    {
                        "number": 64,
                        "time": 1088.0689657583346,
                        "value": 1
                    },
                    {
                        "number": 64,
                        "time": 1088.3969539583345,
                        "value": 0
                    },
                    {
                        "number": 64,
                        "time": 1088.5358934041678,
                        "value": 1
                    },
                    {
                        "number": 64,
                        "time": 1088.945878654168,
                        "value": 0
                    },
                    {
                        "number": 64,
                        "time": 1089.1144281458346,
                        "value": 1
                    },
                    {
                        "number": 64,
                        "time": 1089.478859479168,
                        "value": 0
                    },
                    {
                        "number": 64,
                        "time": 1089.6610751458347,
                        "value": 1
                    },
                    {
                        "number": 64,
                        "time": 1090.0300618708347,
                        "value": 0
                    },
                    {
                        "number": 64,
                        "time": 1090.2555537583348,
                        "value": 1
                    },
                    {
                        "number": 64,
                        "time": 1090.5926527416682,
                        "value": 0
                    },
                    {
                        "number": 64,
                        "time": 1090.7543691458347,
                        "value": 1
                    },
                    {
                        "number": 64,
                        "time": 1091.1324666541682,
                        "value": 0
                    },
                    {
                        "number": 64,
                        "time": 1091.3488477583348,
                        "value": 1
                    },
                    {
                        "number": 64,
                        "time": 1091.6768359583348,
                        "value": 0
                    },
                    {
                        "number": 64,
                        "time": 1091.815775404168,
                        "value": 1
                    },
                    {
                        "number": 64,
                        "time": 1092.218927566668,
                        "value": 0
                    },
                    {
                        "number": 64,
                        "time": 1092.3943101458347,
                        "value": 1
                    },
                    {
                        "number": 64,
                        "time": 1092.758741479168,
                        "value": 0
                    },
                    {
                        "number": 64,
                        "time": 1092.9409571458348,
                        "value": 1
                    },
                    {
                        "number": 64,
                        "time": 1093.3099438708348,
                        "value": 0
                    },
                    {
                        "number": 64,
                        "time": 1093.5354357583349,
                        "value": 1
                    },
                    {
                        "number": 64,
                        "time": 1093.8725347416682,
                        "value": 0
                    },
                    {
                        "number": 64,
                        "time": 1094.0342511458348,
                        "value": 1
                    },
                    {
                        "number": 64,
                        "time": 1094.4123486541682,
                        "value": 0
                    },
                    {
                        "number": 64,
                        "time": 1094.6287297583349,
                        "value": 1
                    },
                    {
                        "number": 64,
                        "time": 1094.9567179583348,
                        "value": 0
                    },
                    {
                        "number": 64,
                        "time": 1095.0956574041682,
                        "value": 1
                    },
                    {
                        "number": 64,
                        "time": 1095.5010872625014,
                        "value": 0
                    },
                    {
                        "number": 64,
                        "time": 1095.6741921458347,
                        "value": 1
                    },
                    {
                        "number": 64,
                        "time": 1096.038623479168,
                        "value": 0
                    },
                    {
                        "number": 64,
                        "time": 1096.2208391458348,
                        "value": 1
                    },
                    {
                        "number": 64,
                        "time": 1096.5898258708348,
                        "value": 0
                    },
                    {
                        "number": 64,
                        "time": 1096.815317758335,
                        "value": 1
                    },
                    {
                        "number": 64,
                        "time": 1097.1524167416683,
                        "value": 0
                    },
                    {
                        "number": 64,
                        "time": 1097.3141331458348,
                        "value": 1
                    },
                    {
                        "number": 64,
                        "time": 1097.6922306541683,
                        "value": 0
                    },
                    {
                        "number": 64,
                        "time": 1097.908611758335,
                        "value": 1
                    },
                    {
                        "number": 64,
                        "time": 1098.2365999583349,
                        "value": 0
                    },
                    {
                        "number": 64,
                        "time": 1098.3755394041682,
                        "value": 1
                    },
                    {
                        "number": 64,
                        "time": 1098.7832469583348,
                        "value": 0
                    },
                    {
                        "number": 64,
                        "time": 1098.9540741458347,
                        "value": 1
                    },
                    {
                        "number": 64,
                        "time": 1099.8697078708346,
                        "value": 0
                    },
                    {
                        "number": 64,
                        "time": 1100.0951997583347,
                        "value": 1
                    },
                    {
                        "number": 64,
                        "time": 1100.972112654168,
                        "value": 0
                    },
                    {
                        "number": 64,
                        "time": 1101.1884937583347,
                        "value": 1
                    },
                    {
                        "number": 64,
                        "time": 1101.5164819583347,
                        "value": 0
                    },
                    {
                        "number": 64,
                        "time": 1101.655421404168,
                        "value": 1
                    },
                    {
                        "number": 64,
                        "time": 1102.0608512625013,
                        "value": 0
                    },
                    {
                        "number": 64,
                        "time": 1102.2339561458346,
                        "value": 1
                    },
                    {
                        "number": 64,
                        "time": 1103.1495898708345,
                        "value": 0
                    },
                    {
                        "number": 64,
                        "time": 1103.3750817583345,
                        "value": 1
                    },
                    {
                        "number": 64,
                        "time": 1104.251994654168,
                        "value": 0
                    },
                    {
                        "number": 64,
                        "time": 1104.4683757583346,
                        "value": 1
                    },
                    {
                        "number": 64,
                        "time": 1104.7963639583345,
                        "value": 0
                    },
                    {
                        "number": 64,
                        "time": 1104.9353034041678,
                        "value": 1
                    },
                    {
                        "number": 64,
                        "time": 1105.340733262501,
                        "value": 0
                    },
                    {
                        "number": 64,
                        "time": 1105.5138381458344,
                        "value": 1
                    },
                    {
                        "number": 64,
                        "time": 1105.8782694791678,
                        "value": 0
                    },
                    {
                        "number": 64,
                        "time": 1106.0604851458345,
                        "value": 1
                    },
                    {
                        "number": 64,
                        "time": 1106.4294718708345,
                        "value": 0
                    },
                    {
                        "number": 64,
                        "time": 1106.6549637583346,
                        "value": 1
                    },
                    {
                        "number": 64,
                        "time": 1106.992062741668,
                        "value": 0
                    },
                    {
                        "number": 64,
                        "time": 1107.1537791458345,
                        "value": 1
                    },
                    {
                        "number": 64,
                        "time": 1107.531876654168,
                        "value": 0
                    },
                    {
                        "number": 64,
                        "time": 1107.7482577583346,
                        "value": 1
                    },
                    {
                        "number": 64,
                        "time": 1108.0762459583345,
                        "value": 0
                    },
                    {
                        "number": 64,
                        "time": 1108.2151854041679,
                        "value": 1
                    },
                    {
                        "number": 64,
                        "time": 1108.6001160000012,
                        "value": 0
                    },
                    {
                        "number": 64,
                        "time": 1108.7618324041678,
                        "value": 1
                    },
                    {
                        "number": 64,
                        "time": 1109.7139092625011,
                        "value": 0
                    },
                    {
                        "number": 64,
                        "time": 1109.871070275001,
                        "value": 1
                    },
                    {
                        "number": 64,
                        "time": 1110.8185917416677,
                        "value": 0
                    },
                    {
                        "number": 64,
                        "time": 1110.9552534916677,
                        "value": 1
                    },
                    {
                        "number": 64,
                        "time": 1111.340184087501,
                        "value": 0
                    },
                    {
                        "number": 64,
                        "time": 1111.463179662501,
                        "value": 1
                    },
                    {
                        "number": 64,
                        "time": 1111.879998000001,
                        "value": 0
                    },
                    {
                        "number": 64,
                        "time": 1112.0417144041676,
                        "value": 1
                    },
                    {
                        "number": 64,
                        "time": 1112.993791262501,
                        "value": 0
                    },
                    {
                        "number": 64,
                        "time": 1113.150952275001,
                        "value": 1
                    },
                    {
                        "number": 64,
                        "time": 1114.0984737416675,
                        "value": 0
                    },
                    {
                        "number": 64,
                        "time": 1114.2442462750007,
                        "value": 1
                    },
                    {
                        "number": 64,
                        "time": 1114.6451207416674,
                        "value": 0
                    },
                    {
                        "number": 64,
                        "time": 1114.7498947500007,
                        "value": 1
                    },
                    {
                        "number": 64,
                        "time": 1115.1598800000008,
                        "value": 0
                    },
                    {
                        "number": 64,
                        "time": 1115.3215964041674,
                        "value": 1
                    },
                    {
                        "number": 64,
                        "time": 1116.2736732625008,
                        "value": 0
                    },
                    {
                        "number": 64,
                        "time": 1116.4308342750007,
                        "value": 1
                    },
                    {
                        "number": 64,
                        "time": 1117.3783557416673,
                        "value": 0
                    },
                    {
                        "number": 64,
                        "time": 1117.5241282750005,
                        "value": 1
                    },
                    {
                        "number": 64,
                        "time": 1117.9250027416672,
                        "value": 0
                    },
                    {
                        "number": 64,
                        "time": 1118.0297767500006,
                        "value": 1
                    },
                    {
                        "number": 64,
                        "time": 1118.4397620000007,
                        "value": 0
                    },
                    {
                        "number": 64,
                        "time": 1118.592367620834,
                        "value": 1
                    },
                    {
                        "number": 64,
                        "time": 1118.995519783334,
                        "value": 0
                    },
                    {
                        "number": 64,
                        "time": 1119.091183008334,
                        "value": 1
                    },
                    {
                        "number": 64,
                        "time": 1119.5512775666673,
                        "value": 0
                    },
                    {
                        "number": 64,
                        "time": 1119.637830008334,
                        "value": 1
                    },
                    {
                        "number": 64,
                        "time": 1120.0979245666674,
                        "value": 0
                    },
                    {
                        "number": 64,
                        "time": 1120.2004208791675,
                        "value": 1
                    },
                    {
                        "number": 64,
                        "time": 1120.6559600458343,
                        "value": 0
                    },
                    {
                        "number": 64,
                        "time": 1120.8199541458343,
                        "value": 1
                    },
                    {
                        "number": 64,
                        "time": 1121.1889408708344,
                        "value": 0
                    },
                    {
                        "number": 64,
                        "time": 1121.302825662501,
                        "value": 1
                    },
                    {
                        "number": 64,
                        "time": 1121.719644000001,
                        "value": 0
                    },
                    {
                        "number": 64,
                        "time": 1121.8722496208343,
                        "value": 1
                    },
                    {
                        "number": 64,
                        "time": 1122.2754017833342,
                        "value": 0
                    },
                    {
                        "number": 64,
                        "time": 1122.3710650083342,
                        "value": 1
                    },
                    {
                        "number": 64,
                        "time": 1122.8311595666676,
                        "value": 0
                    },
                    {
                        "number": 64,
                        "time": 1122.9177120083343,
                        "value": 1
                    },
                    {
                        "number": 64,
                        "time": 1123.3778065666677,
                        "value": 0
                    },
                    {
                        "number": 64,
                        "time": 1123.4803028791678,
                        "value": 1
                    },
                    {
                        "number": 64,
                        "time": 1123.9358420458345,
                        "value": 0
                    },
                    {
                        "number": 64,
                        "time": 1124.0998361458346,
                        "value": 1
                    },
                    {
                        "number": 64,
                        "time": 1124.4688228708346,
                        "value": 0
                    },
                    {
                        "number": 64,
                        "time": 1124.5827076625012,
                        "value": 1
                    },
                    {
                        "number": 64,
                        "time": 1124.9995260000012,
                        "value": 0
                    },
                    {
                        "number": 64,
                        "time": 1125.1521316208346,
                        "value": 1
                    },
                    {
                        "number": 64,
                        "time": 1125.5552837833345,
                        "value": 0
                    },
                    {
                        "number": 64,
                        "time": 1125.6509470083345,
                        "value": 1
                    },
                    {
                        "number": 64,
                        "time": 1126.1110415666678,
                        "value": 0
                    },
                    {
                        "number": 64,
                        "time": 1126.1975940083346,
                        "value": 1
                    },
                    {
                        "number": 64,
                        "time": 1126.657688566668,
                        "value": 0
                    },
                    {
                        "number": 64,
                        "time": 1126.760184879168,
                        "value": 1
                    },
                    {
                        "number": 64,
                        "time": 1127.2157240458348,
                        "value": 0
                    },
                    {
                        "number": 64,
                        "time": 1127.3797181458349,
                        "value": 1
                    },
                    {
                        "number": 64,
                        "time": 1127.748704870835,
                        "value": 0
                    },
                    {
                        "number": 64,
                        "time": 1127.8625896625015,
                        "value": 1
                    },
                    {
                        "number": 64,
                        "time": 1128.3204065250015,
                        "value": 0
                    },
                    {
                        "number": 64,
                        "time": 1128.4411244041682,
                        "value": 1
                    },
                    {
                        "number": 64,
                        "time": 1128.8397211750016,
                        "value": 0
                    },
                    {
                        "number": 64,
                        "time": 1128.930829008335,
                        "value": 1
                    },
                    {
                        "number": 64,
                        "time": 1129.388645870835,
                        "value": 0
                    },
                    {
                        "number": 64,
                        "time": 1129.5344184041683,
                        "value": 1
                    },
                    {
                        "number": 64,
                        "time": 1130.4956060458348,
                        "value": 0
                    },
                    {
                        "number": 64,
                        "time": 1130.6186016208349,
                        "value": 1
                    },
                    {
                        "number": 64,
                        "time": 1131.5592900000015,
                        "value": 0
                    },
                    {
                        "number": 64,
                        "time": 1131.7415056666682,
                        "value": 1
                    },
                    {
                        "number": 64,
                        "time": 1132.6776386541683,
                        "value": 0
                    },
                    {
                        "number": 64,
                        "time": 1132.9145190208349,
                        "value": 1
                    },
                    {
                        "number": 64,
                        "time": 1133.7618218708349,
                        "value": 0
                    },
                    {
                        "number": 64,
                        "time": 1133.9668144958348,
                        "value": 1
                    },
                    {
                        "number": 64,
                        "time": 1134.2993580875016,
                        "value": 0
                    },
                    {
                        "number": 64,
                        "time": 1134.5020730166682,
                        "value": 1
                    },
                    {
                        "number": 64,
                        "time": 1134.9188913541682,
                        "value": 0
                    },
                    {
                        "number": 64,
                        "time": 1135.0737746708348,
                        "value": 1
                    },
                    {
                        "number": 64,
                        "time": 1135.957520654168,
                        "value": 0
                    },
                    {
                        "number": 64,
                        "time": 1136.114681666668,
                        "value": 1
                    },
                    {
                        "number": 64,
                        "time": 1137.043981566668,
                        "value": 0
                    },
                    {
                        "number": 64,
                        "time": 1137.221641841668,
                        "value": 1
                    },
                    {
                        "number": 64,
                        "time": 1138.1190540000014,
                        "value": 0
                    },
                    {
                        "number": 64,
                        "time": 1138.301269666668,
                        "value": 1
                    },
                    {
                        "number": 64,
                        "time": 1139.2374026541681,
                        "value": 0
                    },
                    {
                        "number": 64,
                        "time": 1139.4742830208347,
                        "value": 1
                    },
                    {
                        "number": 64,
                        "time": 1140.3215858708347,
                        "value": 0
                    },
                    {
                        "number": 64,
                        "time": 1140.5265784958347,
                        "value": 1
                    },
                    {
                        "number": 64,
                        "time": 1140.8750659583347,
                        "value": 0
                    },
                    {
                        "number": 64,
                        "time": 1141.048170841668,
                        "value": 1
                    },
                    {
                        "number": 64,
                        "time": 1141.478655354168,
                        "value": 0
                    },
                    {
                        "number": 64,
                        "time": 1141.6335386708347,
                        "value": 1
                    },
                    {
                        "number": 64,
                        "time": 1142.517284654168,
                        "value": 0
                    },
                    {
                        "number": 64,
                        "time": 1142.674445666668,
                        "value": 1
                    },
                    {
                        "number": 64,
                        "time": 1143.6037455666678,
                        "value": 0
                    },
                    {
                        "number": 64,
                        "time": 1143.781405841668,
                        "value": 1
                    },
                    {
                        "number": 64,
                        "time": 1144.1481148708347,
                        "value": 0
                    },
                    {
                        "number": 64,
                        "time": 1144.341719016668,
                        "value": 1
                    },
                    {
                        "number": 64,
                        "time": 1144.710705741668,
                        "value": 0
                    },
                    {
                        "number": 64,
                        "time": 1144.8610336666682,
                        "value": 1
                    },
                    {
                        "number": 64,
                        "time": 1145.070581683335,
                        "value": 0
                    },
                    {
                        "number": 64,
                        "time": 1145.8905521833349,
                        "value": 1
                    },
                    {
                        "number": 64,
                        "time": 1146.888182958335,
                        "value": 0
                    },
                    {
                        "number": 64,
                        "time": 1147.100008670835,
                        "value": 1
                    },
                    {
                        "number": 64,
                        "time": 1147.9587000000017,
                        "value": 0
                    },
                    {
                        "number": 64,
                        "time": 1148.1295271875017,
                        "value": 1
                    },
                    {
                        "number": 64,
                        "time": 1148.5190131750016,
                        "value": 0
                    },
                    {
                        "number": 64,
                        "time": 1148.6875626666683,
                        "value": 1
                    },
                    {
                        "number": 64,
                        "time": 1149.067937870835,
                        "value": 0
                    },
                    {
                        "number": 64,
                        "time": 1149.2228211875017,
                        "value": 1
                    },
                    {
                        "number": 64,
                        "time": 1149.6328064375018,
                        "value": 0
                    },
                    {
                        "number": 64,
                        "time": 1149.8195774958351,
                        "value": 1
                    },
                    {
                        "number": 64,
                        "time": 1150.1794534375017,
                        "value": 0
                    },
                    {
                        "number": 64,
                        "time": 1150.366224495835,
                        "value": 1
                    },
                    {
                        "number": 64,
                        "time": 1150.7169896541684,
                        "value": 0
                    },
                    {
                        "number": 64,
                        "time": 1150.8627621875016,
                        "value": 1
                    },
                    {
                        "number": 64,
                        "time": 1151.2704697416682,
                        "value": 0
                    },
                    {
                        "number": 64,
                        "time": 1151.4207976666682,
                        "value": 1
                    },
                    {
                        "number": 64,
                        "time": 1151.630345683335,
                        "value": 0
                    },
                    {
                        "number": 64,
                        "time": 1152.450316183335,
                        "value": 1
                    },
                    {
                        "number": 64,
                        "time": 1153.447946958335,
                        "value": 0
                    },
                    {
                        "number": 64,
                        "time": 1153.659772670835,
                        "value": 1
                    },
                    {
                        "number": 64,
                        "time": 1154.5184640000018,
                        "value": 0
                    },
                    {
                        "number": 64,
                        "time": 1154.6892911875018,
                        "value": 1
                    },
                    {
                        "number": 64,
                        "time": 1155.0787771750017,
                        "value": 0
                    },
                    {
                        "number": 64,
                        "time": 1155.2473266666684,
                        "value": 1
                    },
                    {
                        "number": 64,
                        "time": 1155.6277018708352,
                        "value": 0
                    },
                    {
                        "number": 64,
                        "time": 1155.7825851875018,
                        "value": 1
                    },
                    {
                        "number": 64,
                        "time": 1156.192570437502,
                        "value": 0
                    },
                    {
                        "number": 64,
                        "time": 1156.3793414958352,
                        "value": 1
                    },
                    {
                        "number": 64,
                        "time": 1156.7392174375018,
                        "value": 0
                    },
                    {
                        "number": 64,
                        "time": 1156.925988495835,
                        "value": 1
                    },
                    {
                        "number": 64,
                        "time": 1157.2767536541685,
                        "value": 0
                    },
                    {
                        "number": 64,
                        "time": 1157.4225261875017,
                        "value": 1
                    },
                    {
                        "number": 64,
                        "time": 1157.7983460000016,
                        "value": 0
                    },
                    {
                        "number": 64,
                        "time": 1157.9691731875016,
                        "value": 1
                    },
                    {
                        "number": 64,
                        "time": 1158.3563814791682,
                        "value": 0
                    },
                    {
                        "number": 64,
                        "time": 1158.5272086666682,
                        "value": 1
                    },
                    {
                        "number": 64,
                        "time": 1158.9166946541682,
                        "value": 0
                    },
                    {
                        "number": 64,
                        "time": 1159.0100801833348,
                        "value": 1
                    },
                    {
                        "number": 64,
                        "time": 1159.467897045835,
                        "value": 0
                    },
                    {
                        "number": 64,
                        "time": 1159.6205026666682,
                        "value": 1
                    },
                    {
                        "number": 64,
                        "time": 1160.014544045835,
                        "value": 0
                    },
                    {
                        "number": 64,
                        "time": 1160.1944820166684,
                        "value": 1
                    },
                    {
                        "number": 64,
                        "time": 1160.5611910458351,
                        "value": 0
                    },
                    {
                        "number": 64,
                        "time": 1160.7137966666685,
                        "value": 1
                    },
                    {
                        "number": 64,
                        "time": 1161.0805056958352,
                        "value": 0
                    },
                    {
                        "number": 64,
                        "time": 1161.2604436666686,
                        "value": 1
                    },
                    {
                        "number": 64,
                        "time": 1161.6544850458354,
                        "value": 0
                    },
                    {
                        "number": 64,
                        "time": 1161.8458114958353,
                        "value": 1
                    },
                    {
                        "number": 64,
                        "time": 1162.198854350002,
                        "value": 0
                    },
                    {
                        "number": 64,
                        "time": 1162.3674038416686,
                        "value": 1
                    },
                    {
                        "number": 64,
                        "time": 1162.745501350002,
                        "value": 0
                    },
                    {
                        "number": 64,
                        "time": 1162.9003846666687,
                        "value": 1
                    },
                    {
                        "number": 64,
                        "time": 1163.298981437502,
                        "value": 0
                    },
                    {
                        "number": 64,
                        "time": 1163.4857524958354,
                        "value": 1
                    },
                    {
                        "number": 64,
                        "time": 1163.8365176541688,
                        "value": 0
                    },
                    {
                        "number": 64,
                        "time": 1163.982290187502,
                        "value": 1
                    },
                    {
                        "number": 64,
                        "time": 1164.358110000002,
                        "value": 0
                    },
                    {
                        "number": 64,
                        "time": 1164.528937187502,
                        "value": 1
                    },
                    {
                        "number": 64,
                        "time": 1164.9161454791686,
                        "value": 0
                    },
                    {
                        "number": 64,
                        "time": 1165.0869726666685,
                        "value": 1
                    },
                    {
                        "number": 64,
                        "time": 1165.4764586541685,
                        "value": 0
                    },
                    {
                        "number": 64,
                        "time": 1165.5698441833351,
                        "value": 1
                    },
                    {
                        "number": 64,
                        "time": 1166.0276610458352,
                        "value": 0
                    },
                    {
                        "number": 64,
                        "time": 1166.1802666666686,
                        "value": 1
                    },
                    {
                        "number": 64,
                        "time": 1166.578863437502,
                        "value": 0
                    },
                    {
                        "number": 64,
                        "time": 1166.7656344958352,
                        "value": 1
                    },
                    {
                        "number": 64,
                        "time": 1167.1163996541686,
                        "value": 0
                    },
                    {
                        "number": 64,
                        "time": 1167.2621721875018,
                        "value": 1
                    },
                    {
                        "number": 64,
                        "time": 1167.6379920000018,
                        "value": 0
                    },
                    {
                        "number": 64,
                        "time": 1167.8088191875017,
                        "value": 1
                    },
                    {
                        "number": 64,
                        "time": 1168.1960274791684,
                        "value": 0
                    },
                    {
                        "number": 64,
                        "time": 1168.3668546666684,
                        "value": 1
                    },
                    {
                        "number": 64,
                        "time": 1168.7563406541683,
                        "value": 0
                    },
                    {
                        "number": 64,
                        "time": 1168.849726183335,
                        "value": 1
                    },
                    {
                        "number": 64,
                        "time": 1169.307543045835,
                        "value": 0
                    },
                    {
                        "number": 64,
                        "time": 1169.4601486666684,
                        "value": 1
                    },
                    {
                        "number": 64,
                        "time": 1169.8587454375017,
                        "value": 0
                    },
                    {
                        "number": 64,
                        "time": 1170.045516495835,
                        "value": 1
                    },
                    {
                        "number": 64,
                        "time": 1170.3962816541684,
                        "value": 0
                    },
                    {
                        "number": 64,
                        "time": 1170.5420541875017,
                        "value": 1
                    },
                    {
                        "number": 64,
                        "time": 1170.9178740000016,
                        "value": 0
                    },
                    {
                        "number": 64,
                        "time": 1171.0887011875016,
                        "value": 1
                    },
                    {
                        "number": 64,
                        "time": 1171.4759094791682,
                        "value": 0
                    },
                    {
                        "number": 64,
                        "time": 1171.6467366666682,
                        "value": 1
                    },
                    {
                        "number": 64,
                        "time": 1172.0362226541681,
                        "value": 0
                    },
                    {
                        "number": 64,
                        "time": 1172.1296081833348,
                        "value": 1
                    },
                    {
                        "number": 64,
                        "time": 1172.5874250458348,
                        "value": 0
                    },
                    {
                        "number": 64,
                        "time": 1172.7400306666682,
                        "value": 1
                    },
                    {
                        "number": 64,
                        "time": 1173.134072045835,
                        "value": 0
                    },
                    {
                        "number": 64,
                        "time": 1173.2752891875016,
                        "value": 1
                    },
                    {
                        "number": 64,
                        "time": 1173.6670528708348,
                        "value": 0
                    },
                    {
                        "number": 64,
                        "time": 1174.2364768291682,
                        "value": 1
                    },
                    {
                        "number": 64,
                        "time": 1174.7740130458349,
                        "value": 0
                    },
                    {
                        "number": 64,
                        "time": 1175.4208786625015,
                        "value": 1
                    },
                    {
                        "number": 64,
                        "time": 1175.8559185666682,
                        "value": 0
                    },
                    {
                        "number": 64,
                        "time": 1176.5027841833348,
                        "value": 1
                    },
                    {
                        "number": 64,
                        "time": 1176.9537679583348,
                        "value": 0
                    },
                    {
                        "number": 64,
                        "time": 1177.530025004168,
                        "value": 1
                    },
                    {
                        "number": 64,
                        "time": 1178.0538950458347,
                        "value": 0
                    },
                    {
                        "number": 64,
                        "time": 1178.6620398333346,
                        "value": 1
                    },
                    {
                        "number": 64,
                        "time": 1179.1449113500012,
                        "value": 0
                    },
                    {
                        "number": 64,
                        "time": 1179.8213870125012,
                        "value": 1
                    },
                    {
                        "number": 64,
                        "time": 1180.2404830458345,
                        "value": 0
                    },
                    {
                        "number": 64,
                        "time": 1181.8576470875012,
                        "value": 1
                    },
                    {
                        "number": 64,
                        "time": 1184.0715674375012,
                        "value": 0
                    },
                    {
                        "number": 64,
                        "time": 1185.2673577500013,
                        "value": 1
                    },
                    {
                        "number": 64,
                        "time": 1187.3400609583346,
                        "value": 0
                    },
                    {
                        "number": 64,
                        "time": 1189.0141673958346,
                        "value": 1
                    },
                    {
                        "number": 64,
                        "time": 1189.535759741668,
                        "value": 0
                    },
                    {
                        "number": 64,
                        "time": 1189.6496445333346,
                        "value": 1
                    },
                    {
                        "number": 64,
                        "time": 1190.6199429583346,
                        "value": 0
                    },
                    {
                        "number": 64,
                        "time": 1192.2940493958347,
                        "value": 1
                    },
                    {
                        "number": 64,
                        "time": 1192.815641741668,
                        "value": 0
                    },
                    {
                        "number": 64,
                        "time": 1192.9295265333346,
                        "value": 1
                    },
                    {
                        "number": 64,
                        "time": 1193.8770480000012,
                        "value": 0
                    },
                    {
                        "number": 64,
                        "time": 1221.3301158791678,
                        "value": 1
                    },
                    {
                        "number": 64,
                        "time": 1222.323191262501,
                        "value": 0
                    },
                    {
                        "number": 64,
                        "time": 1222.432520662501,
                        "value": 1
                    },
                    {
                        "number": 64,
                        "time": 1223.3959860000011,
                        "value": 0
                    },
                    {
                        "number": 64,
                        "time": 1224.1202932750011,
                        "value": 1
                    },
                    {
                        "number": 64,
                        "time": 1224.9584853416677,
                        "value": 0
                    },
                    {
                        "number": 64,
                        "time": 1225.2295311458345,
                        "value": 1
                    },
                    {
                        "number": 64,
                        "time": 1225.726068837501,
                        "value": 0
                    },
                    {
                        "number": 64,
                        "time": 1225.9378945500011,
                        "value": 1
                    },
                    {
                        "number": 64,
                        "time": 1226.6758680000012,
                        "value": 0
                    },
                    {
                        "number": 64,
                        "time": 1227.0630762916678,
                        "value": 1
                    },
                    {
                        "number": 64,
                        "time": 1228.2383673416678,
                        "value": 0
                    },
                    {
                        "number": 64,
                        "time": 1228.5094131458345,
                        "value": 1
                    },
                    {
                        "number": 64,
                        "time": 1229.0059508375011,
                        "value": 0
                    },
                    {
                        "number": 64,
                        "time": 1229.2177765500012,
                        "value": 1
                    },
                    {
                        "number": 64,
                        "time": 1229.9557500000012,
                        "value": 0
                    },
                    {
                        "number": 64,
                        "time": 1230.2814605041679,
                        "value": 1
                    },
                    {
                        "number": 64,
                        "time": 1231.5182493416678,
                        "value": 0
                    },
                    {
                        "number": 64,
                        "time": 1231.7892951458346,
                        "value": 1
                    },
                    {
                        "number": 64,
                        "time": 1232.2858328375012,
                        "value": 0
                    },
                    {
                        "number": 64,
                        "time": 1232.4976585500012,
                        "value": 1
                    },
                    {
                        "number": 64,
                        "time": 1233.2743528291678,
                        "value": 0
                    },
                    {
                        "number": 64,
                        "time": 1233.3085182666678,
                        "value": 1
                    },
                    {
                        "number": 64,
                        "time": 1233.8073336541677,
                        "value": 0
                    },
                    {
                        "number": 64,
                        "time": 1234.465587750001,
                        "value": 1
                    },
                    {
                        "number": 64,
                        "time": 1235.435886175001,
                        "value": 0
                    },
                    {
                        "number": 64,
                        "time": 1235.6317680166678,
                        "value": 1
                    },
                    {
                        "number": 64,
                        "time": 1237.6293072625012,
                        "value": 0
                    },
                    {
                        "number": 64,
                        "time": 1237.7614136208347,
                        "value": 1
                    },
                    {
                        "number": 64,
                        "time": 1238.1554550000014,
                        "value": 0
                    },
                    {
                        "number": 64,
                        "time": 1238.7590443958347,
                        "value": 1
                    },
                    {
                        "number": 64,
                        "time": 1239.2760813500015,
                        "value": 0
                    },
                    {
                        "number": 64,
                        "time": 1239.3626337916683,
                        "value": 1
                    },
                    {
                        "number": 64,
                        "time": 1239.7953960000016,
                        "value": 0
                    },
                    {
                        "number": 64,
                        "time": 1239.989000145835,
                        "value": 1
                    },
                    {
                        "number": 64,
                        "time": 1240.9160223500016,
                        "value": 0
                    },
                    {
                        "number": 64,
                        "time": 1242.134589620835,
                        "value": 1
                    },
                    {
                        "number": 64,
                        "time": 1243.091221870835,
                        "value": 0
                    },
                    {
                        "number": 64,
                        "time": 1243.1959958791683,
                        "value": 1
                    },
                    {
                        "number": 64,
                        "time": 1244.2095705250017,
                        "value": 0
                    },
                    {
                        "number": 64,
                        "time": 1245.3506961375017,
                        "value": 1
                    },
                    {
                        "number": 64,
                        "time": 1245.8335676541683,
                        "value": 0
                    },
                    {
                        "number": 64,
                        "time": 1245.9451747500016,
                        "value": 1
                    },
                    {
                        "number": 64,
                        "time": 1246.3551600000017,
                        "value": 0
                    },
                    {
                        "number": 64,
                        "time": 1246.5259871875016,
                        "value": 1
                    },
                    {
                        "number": 64,
                        "time": 1247.4666755666683,
                        "value": 0
                    },
                    {
                        "number": 64,
                        "time": 1248.6009680916684,
                        "value": 1
                    },
                    {
                        "number": 64,
                        "time": 1249.650985870835,
                        "value": 0
                    },
                    {
                        "number": 64,
                        "time": 1249.8104245791683,
                        "value": 1
                    },
                    {
                        "number": 64,
                        "time": 1250.7488352625016,
                        "value": 0
                    },
                    {
                        "number": 64,
                        "time": 1250.8581646625016,
                        "value": 1
                    },
                    {
                        "number": 64,
                        "time": 1251.837573870835,
                        "value": 0
                    },
                    {
                        "number": 64,
                        "time": 1252.452551745835,
                        "value": 1
                    },
                    {
                        "number": 64,
                        "time": 1252.9468117416684,
                        "value": 0
                    },
                    {
                        "number": 64,
                        "time": 1253.0584188375017,
                        "value": 1
                    },
                    {
                        "number": 64,
                        "time": 1253.477514870835,
                        "value": 0
                    },
                    {
                        "number": 64,
                        "time": 1253.6437866666683,
                        "value": 1
                    },
                    {
                        "number": 64,
                        "time": 1254.0423834375017,
                        "value": 0
                    },
                    {
                        "number": 64,
                        "time": 1254.229154495835,
                        "value": 1
                    },
                    {
                        "number": 64,
                        "time": 1254.577641958335,
                        "value": 0
                    },
                    {
                        "number": 64,
                        "time": 1254.7120260125018,
                        "value": 1
                    },
                    {
                        "number": 64,
                        "time": 1255.1265666541685,
                        "value": 0
                    },
                    {
                        "number": 64,
                        "time": 1255.7665991833353,
                        "value": 1
                    },
                    {
                        "number": 64,
                        "time": 1256.194806000002,
                        "value": 0
                    },
                    {
                        "number": 64,
                        "time": 1256.4840733708354,
                        "value": 1
                    },
                    {
                        "number": 64,
                        "time": 1257.308599262502,
                        "value": 0
                    },
                    {
                        "number": 64,
                        "time": 1257.513591887502,
                        "value": 1
                    },
                    {
                        "number": 64,
                        "time": 1258.4178371333353,
                        "value": 0
                    },
                    {
                        "number": 64,
                        "time": 1258.9918164833352,
                        "value": 1
                    },
                    {
                        "number": 64,
                        "time": 1259.4746880000018,
                        "value": 0
                    },
                    {
                        "number": 64,
                        "time": 1259.6682921458353,
                        "value": 1
                    },
                    {
                        "number": 64,
                        "time": 1260.5998697416685,
                        "value": 0
                    },
                    {
                        "number": 64,
                        "time": 1260.9711341625018,
                        "value": 1
                    },
                    {
                        "number": 64,
                        "time": 1261.6772198708352,
                        "value": 0
                    },
                    {
                        "number": 64,
                        "time": 1261.8548801458353,
                        "value": 1
                    },
                    {
                        "number": 64,
                        "time": 1262.2306999583352,
                        "value": 0
                    },
                    {
                        "number": 64,
                        "time": 1262.4015271458352,
                        "value": 1
                    },
                    {
                        "number": 64,
                        "time": 1262.7545700000019,
                        "value": 0
                    },
                    {
                        "number": 64,
                        "time": 1262.9504518416686,
                        "value": 1
                    },
                    {
                        "number": 64,
                        "time": 1263.8934179166686,
                        "value": 0
                    },
                    {
                        "number": 64,
                        "time": 1264.0437458416686,
                        "value": 1
                    },
                    {
                        "number": 64,
                        "time": 1264.9730457416686,
                        "value": 0
                    },
                    {
                        "number": 64,
                        "time": 1265.111985187502,
                        "value": 1
                    },
                    {
                        "number": 64,
                        "time": 1266.048118175002,
                        "value": 0
                    },
                    {
                        "number": 64,
                        "time": 1266.1483367916687,
                        "value": 1
                    },
                    {
                        "number": 64,
                        "time": 1267.1436898708355,
                        "value": 0
                    },
                    {
                        "number": 64,
                        "time": 1267.2484638791689,
                        "value": 1
                    },
                    {
                        "number": 64,
                        "time": 1267.6880591750023,
                        "value": 0
                    },
                    {
                        "number": 64,
                        "time": 1267.8269986208356,
                        "value": 1
                    },
                    {
                        "number": 64,
                        "time": 1268.2483723500022,
                        "value": 0
                    },
                    {
                        "number": 64,
                        "time": 1268.3736456208355,
                        "value": 1
                    },
                    {
                        "number": 64,
                        "time": 1269.3143340000022,
                        "value": 0
                    },
                    {
                        "number": 64,
                        "time": 1269.4509957500022,
                        "value": 1
                    },
                    {
                        "number": 64,
                        "time": 1270.296020904169,
                        "value": 0
                    },
                    {
                        "number": 64,
                        "time": 1270.480514266669,
                        "value": 1
                    },
                    {
                        "number": 64,
                        "time": 1271.5328097416689,
                        "value": 0
                    },
                    {
                        "number": 64,
                        "time": 1271.6466945333354,
                        "value": 1
                    },
                    {
                        "number": 64,
                        "time": 1272.6101598708356,
                        "value": 0
                    },
                    {
                        "number": 64,
                        "time": 1272.7878201458357,
                        "value": 1
                    },
                    {
                        "number": 64,
                        "time": 1273.726230829169,
                        "value": 0
                    },
                    {
                        "number": 64,
                        "time": 1273.8651702750024,
                        "value": 1
                    },
                    {
                        "number": 64,
                        "time": 1276.4366888708357,
                        "value": 0
                    },
                    {
                        "number": 64,
                        "time": 1276.5505736625023,
                        "value": 1
                    },
                    {
                        "number": 64,
                        "time": 1276.9947243500023,
                        "value": 0
                    },
                    {
                        "number": 64,
                        "time": 1277.5778144833357,
                        "value": 1
                    },
                    {
                        "number": 64,
                        "time": 1278.0811852625025,
                        "value": 0
                    },
                    {
                        "number": 64,
                        "time": 1278.1973477500026,
                        "value": 1
                    },
                    {
                        "number": 64,
                        "time": 1279.1676461750026,
                        "value": 0
                    },
                    {
                        "number": 64,
                        "time": 1279.3111410125025,
                        "value": 1
                    },
                    {
                        "number": 64,
                        "time": 1280.258662479169,
                        "value": 0
                    },
                    {
                        "number": 64,
                        "time": 1280.4682104958358,
                        "value": 1
                    },
                    {
                        "number": 64,
                        "time": 1282.4338620000026,
                        "value": 0
                    },
                    {
                        "number": 64,
                        "time": 1282.682130845836,
                        "value": 1
                    },
                    {
                        "number": 64,
                        "time": 1283.556766045836,
                        "value": 0
                    },
                    {
                        "number": 64,
                        "time": 1283.7367040166694,
                        "value": 1
                    },
                    {
                        "number": 64,
                        "time": 1284.650060045836,
                        "value": 0
                    },
                    {
                        "number": 64,
                        "time": 1284.7912771875026,
                        "value": 1
                    },
                    {
                        "number": 64,
                        "time": 1285.7274101750027,
                        "value": 0
                    },
                    {
                        "number": 64,
                        "time": 1285.9096258416694,
                        "value": 1
                    },
                    {
                        "number": 64,
                        "time": 1286.816148783336,
                        "value": 0
                    },
                    {
                        "number": 64,
                        "time": 1286.9892536666694,
                        "value": 1
                    },
                    {
                        "number": 64,
                        "time": 1287.9185535666693,
                        "value": 0
                    },
                    {
                        "number": 64,
                        "time": 1288.0825476666694,
                        "value": 1
                    },
                    {
                        "number": 64,
                        "time": 1289.098400008336,
                        "value": 0
                    },
                    {
                        "number": 64,
                        "time": 1289.255561020836,
                        "value": 1
                    },
                    {
                        "number": 64,
                        "time": 1290.1119746541694,
                        "value": 0
                    },
                    {
                        "number": 64,
                        "time": 1290.2828018416694,
                        "value": 1
                    },
                    {
                        "number": 64,
                        "time": 1291.2052686541695,
                        "value": 0
                    },
                    {
                        "number": 64,
                        "time": 1291.3237088375029,
                        "value": 1
                    },
                    {
                        "number": 64,
                        "time": 1291.7564710458362,
                        "value": 0
                    },
                    {
                        "number": 64,
                        "time": 1291.8840220125028,
                        "value": 1
                    },
                    {
                        "number": 64,
                        "time": 1292.3463942666694,
                        "value": 0
                    },
                    {
                        "number": 64,
                        "time": 1294.5124830041696,
                        "value": 1
                    },
                    {
                        "number": 64,
                        "time": 1296.6762940458361,
                        "value": 0
                    },
                    {
                        "number": 64,
                        "time": 1297.8310858333361,
                        "value": 1
                    },
                    {
                        "number": 64,
                        "time": 1299.949342958336,
                        "value": 0
                    },
                    {
                        "number": 64,
                        "time": 1300.0563946625027,
                        "value": 1
                    },
                    {
                        "number": 64,
                        "time": 1310.889116045836,
                        "value": 0
                    },
                    {
                        "number": 64,
                        "time": 1311.012111620836,
                        "value": 1
                    },
                    {
                        "number": 64,
                        "time": 1312.5040023916695,
                        "value": 0
                    },
                    {
                        "number": 64,
                        "time": 1312.6042210083363,
                        "value": 1
                    },
                    {
                        "number": 64,
                        "time": 1313.0779817416696,
                        "value": 0
                    },
                    {
                        "number": 64,
                        "time": 1313.175922662503,
                        "value": 1
                    },
                    {
                        "number": 64,
                        "time": 1315.2486258708361,
                        "value": 0
                    },
                    {
                        "number": 64,
                        "time": 1315.3693437500028,
                        "value": 1
                    },
                    {
                        "number": 64,
                        "time": 1316.8885668708363,
                        "value": 0
                    },
                    {
                        "number": 64,
                        "time": 1317.0343394041695,
                        "value": 1
                    },
                    {
                        "number": 64,
                        "time": 1318.5239524791696,
                        "value": 0
                    },
                    {
                        "number": 64,
                        "time": 1318.6173380083362,
                        "value": 1
                    },
                    {
                        "number": 64,
                        "time": 1320.173004262503,
                        "value": 0
                    },
                    {
                        "number": 64,
                        "time": 1320.2732228791697,
                        "value": 1
                    },
                    {
                        "number": 64,
                        "time": 1321.8288891333364,
                        "value": 0
                    },
                    {
                        "number": 64,
                        "time": 1321.922274662503,
                        "value": 1
                    },
                    {
                        "number": 64,
                        "time": 1323.4642747416697,
                        "value": 0
                    },
                    {
                        "number": 64,
                        "time": 1323.5849926208364,
                        "value": 1
                    },
                    {
                        "number": 64,
                        "time": 1325.0723280000032,
                        "value": 0
                    },
                    {
                        "number": 64,
                        "time": 1325.2249336208365,
                        "value": 1
                    },
                    {
                        "number": 64,
                        "time": 1326.1883989583366,
                        "value": 0
                    },
                    {
                        "number": 64,
                        "time": 1326.3182276208365,
                        "value": 1
                    },
                    {
                        "number": 64,
                        "time": 1328.3727092625031,
                        "value": 0
                    },
                    {
                        "number": 64,
                        "time": 1328.4979825333364,
                        "value": 1
                    },
                    {
                        "number": 64,
                        "time": 1329.4773917416699,
                        "value": 0
                    },
                    {
                        "number": 64,
                        "time": 1329.65505201667,
                        "value": 1
                    },
                    {
                        "number": 64,
                        "time": 1331.70497826667,
                        "value": 0
                    },
                    {
                        "number": 64,
                        "time": 1331.8097522750033,
                        "value": 1
                    },
                    {
                        "number": 64,
                        "time": 1332.7413298708366,
                        "value": 0
                    },
                    {
                        "number": 64,
                        "time": 1332.8392707916698,
                        "value": 1
                    },
                    {
                        "number": 64,
                        "time": 1333.832346175003,
                        "value": 0
                    },
                    {
                        "number": 64,
                        "time": 1333.9485086625032,
                        "value": 1
                    },
                    {
                        "number": 64,
                        "time": 1334.9119740000033,
                        "value": 0
                    },
                    {
                        "number": 64,
                        "time": 1335.0577465333365,
                        "value": 1
                    },
                    {
                        "number": 64,
                        "time": 1336.0394334375032,
                        "value": 0
                    },
                    {
                        "number": 64,
                        "time": 1336.17381749167,
                        "value": 1
                    },
                    {
                        "number": 64,
                        "time": 1337.1145058708366,
                        "value": 0
                    },
                    {
                        "number": 64,
                        "time": 1337.2443345333365,
                        "value": 1
                    },
                    {
                        "number": 64,
                        "time": 1338.191856000003,
                        "value": 0
                    },
                    {
                        "number": 64,
                        "time": 1338.410514800003,
                        "value": 1
                    },
                    {
                        "number": 64,
                        "time": 1339.3079269583363,
                        "value": 0
                    },
                    {
                        "number": 64,
                        "time": 1339.469643362503,
                        "value": 1
                    },
                    {
                        "number": 64,
                        "time": 1340.405776350003,
                        "value": 0
                    },
                    {
                        "number": 64,
                        "time": 1340.6836552416696,
                        "value": 1
                    },
                    {
                        "number": 64,
                        "time": 1341.471738000003,
                        "value": 0
                    },
                    {
                        "number": 64,
                        "time": 1341.6152328375028,
                        "value": 1
                    },
                    {
                        "number": 64,
                        "time": 1343.6833806541695,
                        "value": 0
                    },
                    {
                        "number": 64,
                        "time": 1343.9316495000028,
                        "value": 1
                    },
                    {
                        "number": 64,
                        "time": 1344.7835077416694,
                        "value": 0
                    },
                    {
                        "number": 64,
                        "time": 1344.9338356666694,
                        "value": 1
                    },
                    {
                        "number": 64,
                        "time": 1346.9564295666694,
                        "value": 0
                    },
                    {
                        "number": 64,
                        "time": 1347.2434192416695,
                        "value": 1
                    },
                    {
                        "number": 64,
                        "time": 1349.425451850003,
                        "value": 0
                    },
                    {
                        "number": 64,
                        "time": 1361.3719664958362,
                        "value": 1
                    },
                    {
                        "number": 64,
                        "time": 1364.4627997416696,
                        "value": 0
                    },
                    {
                        "number": 64,
                        "time": 1365.654034662503,
                        "value": 1
                    },
                    {
                        "number": 64,
                        "time": 1367.7107940000028,
                        "value": 0
                    },
                    {
                        "number": 64,
                        "time": 1370.0272106625027,
                        "value": 1
                    },
                    {
                        "number": 64,
                        "time": 1372.0839700000026,
                        "value": 0
                    },
                    {
                        "number": 64,
                        "time": 1374.4003866625026,
                        "value": 1
                    },
                    {
                        "number": 64,
                        "time": 1376.4571460000025,
                        "value": 0
                    },
                    {
                        "number": 64,
                        "time": 1378.7735626625024,
                        "value": 1
                    },
                    {
                        "number": 64,
                        "time": 1380.8303220000023,
                        "value": 0
                    },
                    {
                        "number": 64,
                        "time": 1383.1467386625022,
                        "value": 1
                    },
                    {
                        "number": 64,
                        "time": 1385.2034980000021,
                        "value": 0
                    },
                    {
                        "number": 64,
                        "time": 1387.519914662502,
                        "value": 1
                    },
                    {
                        "number": 64,
                        "time": 1389.576674000002,
                        "value": 0
                    },
                    {
                        "number": 64,
                        "time": 1392.118582550002,
                        "value": 1
                    },
                    {
                        "number": 64,
                        "time": 1393.4350907416685,
                        "value": 0
                    },
                    {
                        "number": 64,
                        "time": 1394.2072296291685,
                        "value": 1
                    },
                    {
                        "number": 64,
                        "time": 1395.6216787416686,
                        "value": 0
                    },
                    {
                        "number": 64,
                        "time": 1396.4257053708352,
                        "value": 1
                    },
                    {
                        "number": 64,
                        "time": 1398.6122933708352,
                        "value": 0
                    },
                    {
                        "number": 64,
                        "time": 1399.8194721625018,
                        "value": 1
                    },
                    {
                        "number": 64,
                        "time": 1408.5886011208352,
                        "value": 0
                    }
                ]
            },
            "id": 3,
            "name": "Pedale",
            "instrumentNumber": 0,
            "instrument": "acoustic grand piano",
            "instrumentFamily": "piano",
            "channelNumber": 0,
            "isPercussion": false
        },
        {
            "startTime": 0,
            "duration": 0,
            "length": 0,
            "notes": [],
            "controlChanges": {},
            "id": 4,
            "name": "Beethoven: Hammerklaviersonate 4. Satz"
        },
        {
            "startTime": 0,
            "duration": 0,
            "length": 0,
            "notes": [],
            "controlChanges": {},
            "id": 5,
            "name": "Copyright  2008 by Bernd Krueger"
        },
        {
            "startTime": 0,
            "duration": 0,
            "length": 0,
            "notes": [],
            "controlChanges": {},
            "id": 6,
            "name": "http://www.piano-midi.de/"
        },
        {
            "startTime": 0,
            "duration": 0,
            "length": 0,
            "notes": [],
            "controlChanges": {},
            "id": 7,
            "name": "Edition: 2012-08-28"
        },
        {
            "startTime": 0,
            "duration": 0,
            "length": 0,
            "notes": [],
            "controlChanges": {},
            "id": 8,
            "name": "Spur 8"
        },
        {
            "startTime": 0,
            "duration": 0,
            "length": 0,
            "notes": [],
            "controlChanges": {},
            "id": 9,
            "name": "Spur 9"
        },
        {
            "startTime": 0,
            "duration": 0,
            "length": 0,
            "notes": [],
            "controlChanges": {},
            "id": 10,
            "name": "Spur 10"
        },
        {
            "startTime": 0,
            "duration": 0,
            "length": 0,
            "notes": [],
            "controlChanges": {},
            "id": 11,
            "name": "Spur 11"
        },
        {
            "startTime": 0,
            "duration": 0,
            "length": 0,
            "notes": [],
            "controlChanges": {},
            "id": 12,
            "name": "Spur 12"
        },
        {
            "startTime": 0,
            "duration": 0,
            "length": 0,
            "notes": [],
            "controlChanges": {},
            "id": 13,
            "name": "Spur 13"
        },
        {
            "startTime": 0,
            "duration": 0,
            "length": 0,
            "notes": [],
            "controlChanges": {},
            "id": 14,
            "name": "Spur 14"
        },
        {
            "startTime": 0,
            "duration": 0,
            "length": 0,
            "notes": [],
            "controlChanges": {},
            "id": 15,
            "name": "Spur 15"
        },
        {
            "startTime": 0,
            "duration": 0,
            "length": 0,
            "notes": [],
            "controlChanges": {},
            "id": 16,
            "name": "Spur 16"
        }
    ]
}