{
    "header": {
        "PPQ": 480,
        "timeSignature": [
            3,
            4
        ],
        "bpm": 183.31973711949698,
        "name": "Klaviersonate No. 5 -  1. Satz"
    },
    "startTime": 0,
    "duration": 380.31911400000075,
    "tracks": [
        {
            "startTime": 0,
            "duration": 0,
            "length": 0,
            "notes": [],
            "controlChanges": {},
            "id": 0,
            "name": "Klaviersonate No. 5 -  1. Satz"
        },
        {
            "startTime": 0,
            "duration": 380.3191140000001,
            "length": 1441,
            "notes": [
                {
                    "name": "D#4",
                    "midi": 63,
                    "time": 0,
                    "velocity": 0.5433070866141733,
                    "duration": 0.49094550000000003
                },
                {
                    "name": "G4",
                    "midi": 67,
                    "time": 0,
                    "velocity": 0.5433070866141733,
                    "duration": 0.49094550000000003
                },
                {
                    "name": "C5",
                    "midi": 72,
                    "time": 0,
                    "velocity": 0.6456692913385826,
                    "duration": 0.49094550000000003
                },
                {
                    "name": "G4",
                    "midi": 67,
                    "time": 0.5727697500000001,
                    "velocity": 0.5511811023622047,
                    "duration": 0.08182425000000004
                },
                {
                    "name": "D#5",
                    "midi": 75,
                    "time": 0.6545940000000001,
                    "velocity": 0.6141732283464567,
                    "duration": 0.24547275000000002
                },
                {
                    "name": "C5",
                    "midi": 72,
                    "time": 0.9000667500000001,
                    "velocity": 0.5511811023622047,
                    "duration": 0.08182425000000004
                },
                {
                    "name": "G5",
                    "midi": 79,
                    "time": 0.9818910000000002,
                    "velocity": 0.6220472440944882,
                    "duration": 0.24547275000000013
                },
                {
                    "name": "D#5",
                    "midi": 75,
                    "time": 1.2273637500000003,
                    "velocity": 0.5511811023622047,
                    "duration": 0.08182424999999993
                },
                {
                    "name": "C6",
                    "midi": 84,
                    "time": 1.3091880000000002,
                    "velocity": 0.6220472440944882,
                    "duration": 0.24547275000000002
                },
                {
                    "name": "G5",
                    "midi": 79,
                    "time": 1.5546607500000003,
                    "velocity": 0.5511811023622047,
                    "duration": 0.08182424999999993
                },
                {
                    "name": "D#6",
                    "midi": 87,
                    "time": 1.6364850000000002,
                    "velocity": 0.6614173228346457,
                    "duration": 0.08182424999999993
                },
                {
                    "name": "D#6",
                    "midi": 87,
                    "time": 1.9637820000000001,
                    "velocity": 0.6614173228346457,
                    "duration": 0.08182424999999993
                },
                {
                    "name": "G4",
                    "midi": 67,
                    "time": 2.618376,
                    "velocity": 0.30708661417322836,
                    "duration": 0.16364849999999986
                },
                {
                    "name": "C5",
                    "midi": 72,
                    "time": 2.618376,
                    "velocity": 0.36220472440944884,
                    "duration": 0.16364849999999986
                },
                {
                    "name": "G4",
                    "midi": 67,
                    "time": 2.9456729999999998,
                    "velocity": 0.33070866141732286,
                    "duration": 0.6545939999999999
                },
                {
                    "name": "C5",
                    "midi": 72,
                    "time": 2.9456729999999998,
                    "velocity": 0.3937007874015748,
                    "duration": 0.6545939999999999
                },
                {
                    "name": "G4",
                    "midi": 67,
                    "time": 3.6002669999999997,
                    "velocity": 0.30708661417322836,
                    "duration": 0.32047831250000014
                },
                {
                    "name": "B4",
                    "midi": 71,
                    "time": 3.6070856874999997,
                    "velocity": 0.36220472440944884,
                    "duration": 0.32047831250000014
                },
                {
                    "name": "G#4",
                    "midi": 68,
                    "time": 3.927564,
                    "velocity": 0.5433070866141733,
                    "duration": 0.49094550000000003
                },
                {
                    "name": "F4",
                    "midi": 65,
                    "time": 3.927564,
                    "velocity": 0.5433070866141733,
                    "duration": 0.49094550000000003
                },
                {
                    "name": "B4",
                    "midi": 71,
                    "time": 3.927564,
                    "velocity": 0.6456692913385826,
                    "duration": 0.49094550000000003
                },
                {
                    "name": "B4",
                    "midi": 71,
                    "time": 4.50033375,
                    "velocity": 0.5511811023622047,
                    "duration": 0.08182425000000038
                },
                {
                    "name": "F5",
                    "midi": 77,
                    "time": 4.582158000000001,
                    "velocity": 0.6141732283464567,
                    "duration": 0.24547275000000024
                },
                {
                    "name": "D5",
                    "midi": 74,
                    "time": 4.827630750000001,
                    "velocity": 0.5511811023622047,
                    "duration": 0.08182425000000038
                },
                {
                    "name": "B5",
                    "midi": 83,
                    "time": 4.909455000000001,
                    "velocity": 0.6220472440944882,
                    "duration": 0.24547275000000024
                },
                {
                    "name": "F5",
                    "midi": 77,
                    "time": 5.1549277500000015,
                    "velocity": 0.5511811023622047,
                    "duration": 0.08182425000000038
                },
                {
                    "name": "D6",
                    "midi": 86,
                    "time": 5.236752000000002,
                    "velocity": 0.6220472440944882,
                    "duration": 0.24547275000000024
                },
                {
                    "name": "B5",
                    "midi": 83,
                    "time": 5.482224750000002,
                    "velocity": 0.5511811023622047,
                    "duration": 0.08182425000000038
                },
                {
                    "name": "F6",
                    "midi": 89,
                    "time": 5.5640490000000025,
                    "velocity": 0.6614173228346457,
                    "duration": 0.08182425000000038
                },
                {
                    "name": "F6",
                    "midi": 89,
                    "time": 5.891346000000003,
                    "velocity": 0.6614173228346457,
                    "duration": 0.08182425000000038
                },
                {
                    "name": "B4",
                    "midi": 71,
                    "time": 6.545940000000003,
                    "velocity": 0.30708661417322836,
                    "duration": 0.16364849999999986
                },
                {
                    "name": "D5",
                    "midi": 74,
                    "time": 6.545940000000003,
                    "velocity": 0.36220472440944884,
                    "duration": 0.16364849999999986
                },
                {
                    "name": "B4",
                    "midi": 71,
                    "time": 6.873237000000003,
                    "velocity": 0.33070866141732286,
                    "duration": 0.6545940000000003
                },
                {
                    "name": "D5",
                    "midi": 74,
                    "time": 6.873237000000003,
                    "velocity": 0.3937007874015748,
                    "duration": 0.6545940000000003
                },
                {
                    "name": "C5",
                    "midi": 72,
                    "time": 7.5278310000000035,
                    "velocity": 0.36220472440944884,
                    "duration": 0.24547275000000024
                },
                {
                    "name": "C5",
                    "midi": 72,
                    "time": 7.773303750000004,
                    "velocity": 0.3543307086614173,
                    "duration": 0.04091212500000019
                },
                {
                    "name": "D#5",
                    "midi": 75,
                    "time": 7.814215875000004,
                    "velocity": 0.3779527559055118,
                    "duration": 0.04091212500000019
                },
                {
                    "name": "G5",
                    "midi": 79,
                    "time": 7.855128000000004,
                    "velocity": 0.41732283464566927,
                    "duration": 0.4909455000000005
                },
                {
                    "name": "F5",
                    "midi": 77,
                    "time": 8.346073500000005,
                    "velocity": 0.3228346456692913,
                    "duration": 0.16364850000000075
                },
                {
                    "name": "D#5",
                    "midi": 75,
                    "time": 8.509722000000005,
                    "velocity": 0.4015748031496063,
                    "duration": 0.3272969999999997
                },
                {
                    "name": "D5",
                    "midi": 74,
                    "time": 8.837019000000005,
                    "velocity": 0.3700787401574803,
                    "duration": 0.6545939999999995
                },
                {
                    "name": "C5",
                    "midi": 72,
                    "time": 9.491613000000005,
                    "velocity": 0.30708661417322836,
                    "duration": 0.24547274999999935
                },
                {
                    "name": "G4",
                    "midi": 67,
                    "time": 9.737085750000004,
                    "velocity": 0.2125984251968504,
                    "duration": 0.027274750000000125
                },
                {
                    "name": "C5",
                    "midi": 72,
                    "time": 9.764360500000004,
                    "velocity": 0.3543307086614173,
                    "duration": 0.027274750000000125
                },
                {
                    "name": "D#5",
                    "midi": 75,
                    "time": 9.791635250000004,
                    "velocity": 0.3779527559055118,
                    "duration": 0.027274750000000125
                },
                {
                    "name": "G5",
                    "midi": 79,
                    "time": 9.818910000000004,
                    "velocity": 0.41732283464566927,
                    "duration": 0.4909455000000005
                },
                {
                    "name": "F5",
                    "midi": 77,
                    "time": 10.309855500000005,
                    "velocity": 0.3228346456692913,
                    "duration": 0.16364850000000075
                },
                {
                    "name": "C5",
                    "midi": 72,
                    "time": 10.473504000000005,
                    "velocity": 0.33858267716535434,
                    "duration": 0.3272969999999997
                },
                {
                    "name": "D#5",
                    "midi": 75,
                    "time": 10.473504000000005,
                    "velocity": 0.4015748031496063,
                    "duration": 0.3272969999999997
                },
                {
                    "name": "B4",
                    "midi": 71,
                    "time": 10.800801000000005,
                    "velocity": 0.30708661417322836,
                    "duration": 0.6545939999999995
                },
                {
                    "name": "D5",
                    "midi": 74,
                    "time": 10.800801000000005,
                    "velocity": 0.3700787401574803,
                    "duration": 0.6545939999999995
                },
                {
                    "name": "C5",
                    "midi": 72,
                    "time": 11.455395000000005,
                    "velocity": 0.30708661417322836,
                    "duration": 0.24547274999999935
                },
                {
                    "name": "G4",
                    "midi": 67,
                    "time": 11.700867750000004,
                    "velocity": 0.47244094488188976,
                    "duration": 0.027274750000000125
                },
                {
                    "name": "C5",
                    "midi": 72,
                    "time": 11.728142500000004,
                    "velocity": 0.49606299212598426,
                    "duration": 0.027274750000000125
                },
                {
                    "name": "D#5",
                    "midi": 75,
                    "time": 11.755417250000004,
                    "velocity": 0.5433070866141733,
                    "duration": 0.027274750000000125
                },
                {
                    "name": "G4",
                    "midi": 67,
                    "time": 11.782692000000004,
                    "velocity": 0.5433070866141733,
                    "duration": 0.4909455000000005
                },
                {
                    "name": "G5",
                    "midi": 79,
                    "time": 11.782692000000004,
                    "velocity": 0.6377952755905512,
                    "duration": 0.4909455000000005
                },
                {
                    "name": "F5",
                    "midi": 77,
                    "time": 12.273637500000005,
                    "velocity": 0.48031496062992124,
                    "duration": 0.16364850000000075
                },
                {
                    "name": "F4",
                    "midi": 65,
                    "time": 12.273637500000005,
                    "velocity": 0.4015748031496063,
                    "duration": 0.16364850000000075
                },
                {
                    "name": "D#5",
                    "midi": 75,
                    "time": 12.437286000000006,
                    "velocity": 0.5748031496062992,
                    "duration": 0.6545939999999995
                },
                {
                    "name": "D#4",
                    "midi": 63,
                    "time": 12.437286000000006,
                    "velocity": 0.4881889763779528,
                    "duration": 0.6545939999999995
                },
                {
                    "name": "D5",
                    "midi": 74,
                    "time": 13.091880000000005,
                    "velocity": 0.5669291338582677,
                    "duration": 0.08182425000000038
                },
                {
                    "name": "D4",
                    "midi": 62,
                    "time": 13.091880000000005,
                    "velocity": 0.48031496062992124,
                    "duration": 0.08182425000000038
                },
                {
                    "name": "C5",
                    "midi": 72,
                    "time": 13.419177000000005,
                    "velocity": 0.5905511811023622,
                    "duration": 0.6545939999999995
                },
                {
                    "name": "C4",
                    "midi": 60,
                    "time": 13.419177000000005,
                    "velocity": 0.49606299212598426,
                    "duration": 0.6545939999999995
                },
                {
                    "name": "B3",
                    "midi": 59,
                    "time": 14.073771000000004,
                    "velocity": 0.49606299212598426,
                    "duration": 0.08182425000000038
                },
                {
                    "name": "B4",
                    "midi": 71,
                    "time": 14.073771000000004,
                    "velocity": 0.5905511811023622,
                    "duration": 0.08182425000000038
                },
                {
                    "name": "G#3",
                    "midi": 56,
                    "time": 14.401068000000004,
                    "velocity": 0.4881889763779528,
                    "duration": 0.6545939999999995
                },
                {
                    "name": "G#4",
                    "midi": 68,
                    "time": 14.401068000000004,
                    "velocity": 0.5826771653543307,
                    "duration": 0.6545939999999995
                },
                {
                    "name": "G3",
                    "midi": 55,
                    "time": 15.055662000000003,
                    "velocity": 0.44881889763779526,
                    "duration": 0.16364850000000075
                },
                {
                    "name": "G4",
                    "midi": 67,
                    "time": 15.055662000000003,
                    "velocity": 0.5275590551181102,
                    "duration": 0.16364850000000075
                },
                {
                    "name": "B3",
                    "midi": 59,
                    "time": 16.037553000000003,
                    "velocity": 0.33070866141732286,
                    "duration": 0.1090990000000005
                },
                {
                    "name": "D4",
                    "midi": 62,
                    "time": 16.146652000000003,
                    "velocity": 0.2755905511811024,
                    "duration": 0.1090990000000005
                },
                {
                    "name": "F4",
                    "midi": 65,
                    "time": 16.255751000000004,
                    "velocity": 0.2755905511811024,
                    "duration": 0.1090990000000005
                },
                {
                    "name": "G#4",
                    "midi": 68,
                    "time": 16.364850000000004,
                    "velocity": 0.33858267716535434,
                    "duration": 0.1090990000000005
                },
                {
                    "name": "G4",
                    "midi": 67,
                    "time": 16.473949000000005,
                    "velocity": 0.28346456692913385,
                    "duration": 0.1090990000000005
                },
                {
                    "name": "F4",
                    "midi": 65,
                    "time": 16.583048000000005,
                    "velocity": 0.28346456692913385,
                    "duration": 0.1090990000000005
                },
                {
                    "name": "D#4",
                    "midi": 63,
                    "time": 16.692147000000006,
                    "velocity": 0.33858267716535434,
                    "duration": 0.08182425000000038
                },
                {
                    "name": "F3",
                    "midi": 53,
                    "time": 18.001335000000005,
                    "velocity": 0.33070866141732286,
                    "duration": 0.1090990000000005
                },
                {
                    "name": "G#3",
                    "midi": 56,
                    "time": 18.110434000000005,
                    "velocity": 0.2755905511811024,
                    "duration": 0.1090990000000005
                },
                {
                    "name": "D4",
                    "midi": 62,
                    "time": 18.219533000000006,
                    "velocity": 0.2755905511811024,
                    "duration": 0.1090990000000005
                },
                {
                    "name": "F4",
                    "midi": 65,
                    "time": 18.328632000000006,
                    "velocity": 0.33858267716535434,
                    "duration": 0.1090990000000005
                },
                {
                    "name": "D#4",
                    "midi": 63,
                    "time": 18.437731000000007,
                    "velocity": 0.28346456692913385,
                    "duration": 0.1090990000000005
                },
                {
                    "name": "D4",
                    "midi": 62,
                    "time": 18.546830000000007,
                    "velocity": 0.28346456692913385,
                    "duration": 0.1090990000000005
                },
                {
                    "name": "C4",
                    "midi": 60,
                    "time": 18.655929000000008,
                    "velocity": 0.33858267716535434,
                    "duration": 0.08182425000000038
                },
                {
                    "name": "G3",
                    "midi": 55,
                    "time": 19.965117000000006,
                    "velocity": 0.5196850393700787,
                    "duration": 0.1090990000000005
                },
                {
                    "name": "B3",
                    "midi": 59,
                    "time": 20.074216000000007,
                    "velocity": 0.5433070866141733,
                    "duration": 0.1090990000000005
                },
                {
                    "name": "D4",
                    "midi": 62,
                    "time": 20.183315000000007,
                    "velocity": 0.5669291338582677,
                    "duration": 0.1090990000000005
                },
                {
                    "name": "F4",
                    "midi": 65,
                    "time": 20.292414000000008,
                    "velocity": 0.5905511811023622,
                    "duration": 0.1090990000000005
                },
                {
                    "name": "D4",
                    "midi": 62,
                    "time": 20.40151300000001,
                    "velocity": 0.5275590551181102,
                    "duration": 0.1090990000000005
                },
                {
                    "name": "B3",
                    "midi": 59,
                    "time": 20.51061200000001,
                    "velocity": 0.5275590551181102,
                    "duration": 0.1090990000000005
                },
                {
                    "name": "G3",
                    "midi": 55,
                    "time": 20.61971100000001,
                    "velocity": 0.6220472440944882,
                    "duration": 0.4909454999999987
                },
                {
                    "name": "D#3",
                    "midi": 51,
                    "time": 20.61971100000001,
                    "velocity": 0.6220472440944882,
                    "duration": 0.4909454999999987
                },
                {
                    "name": "C4",
                    "midi": 60,
                    "time": 20.61971100000001,
                    "velocity": 0.7401574803149606,
                    "duration": 0.4909454999999987
                },
                {
                    "name": "C4",
                    "midi": 60,
                    "time": 21.19248075000001,
                    "velocity": 0.5511811023622047,
                    "duration": 0.08182425000000038
                },
                {
                    "name": "G4",
                    "midi": 67,
                    "time": 21.27430500000001,
                    "velocity": 0.6141732283464567,
                    "duration": 0.24547275000000113
                },
                {
                    "name": "D#4",
                    "midi": 63,
                    "time": 21.51977775000001,
                    "velocity": 0.5511811023622047,
                    "duration": 0.08182425000000038
                },
                {
                    "name": "C5",
                    "midi": 72,
                    "time": 21.60160200000001,
                    "velocity": 0.6692913385826772,
                    "duration": 0.24547275000000113
                },
                {
                    "name": "G4",
                    "midi": 67,
                    "time": 21.84707475000001,
                    "velocity": 0.5669291338582677,
                    "duration": 0.08182425000000038
                },
                {
                    "name": "D#5",
                    "midi": 75,
                    "time": 21.928899000000012,
                    "velocity": 0.6299212598425197,
                    "duration": 0.24547275000000113
                },
                {
                    "name": "C5",
                    "midi": 72,
                    "time": 22.174371750000013,
                    "velocity": 0.6535433070866141,
                    "duration": 0.08182425000000038
                },
                {
                    "name": "G5",
                    "midi": 79,
                    "time": 22.256196000000013,
                    "velocity": 0.7559055118110236,
                    "duration": 0.08182425000000038
                },
                {
                    "name": "G4",
                    "midi": 67,
                    "time": 22.256196000000013,
                    "velocity": 0.6377952755905512,
                    "duration": 0.08182425000000038
                },
                {
                    "name": "G5",
                    "midi": 79,
                    "time": 22.583493000000015,
                    "velocity": 0.7559055118110236,
                    "duration": 0.08182425000000038
                },
                {
                    "name": "G4",
                    "midi": 67,
                    "time": 22.583493000000015,
                    "velocity": 0.6377952755905512,
                    "duration": 0.08182425000000038
                },
                {
                    "name": "B3",
                    "midi": 59,
                    "time": 23.156262750000014,
                    "velocity": 0.5511811023622047,
                    "duration": 0.08182425000000038
                },
                {
                    "name": "G4",
                    "midi": 67,
                    "time": 23.238087000000014,
                    "velocity": 0.6141732283464567,
                    "duration": 0.24547275000000113
                },
                {
                    "name": "D4",
                    "midi": 62,
                    "time": 23.483559750000015,
                    "velocity": 0.5511811023622047,
                    "duration": 0.08182425000000038
                },
                {
                    "name": "B4",
                    "midi": 71,
                    "time": 23.565384000000016,
                    "velocity": 0.6692913385826772,
                    "duration": 0.24547275000000113
                },
                {
                    "name": "G4",
                    "midi": 67,
                    "time": 23.810856750000017,
                    "velocity": 0.5826771653543307,
                    "duration": 0.08182425000000038
                },
                {
                    "name": "D5",
                    "midi": 74,
                    "time": 23.892681000000017,
                    "velocity": 0.6771653543307087,
                    "duration": 0.24547275000000113
                },
                {
                    "name": "B4",
                    "midi": 71,
                    "time": 24.13815375000002,
                    "velocity": 0.6535433070866141,
                    "duration": 0.08182425000000038
                },
                {
                    "name": "G5",
                    "midi": 79,
                    "time": 24.21997800000002,
                    "velocity": 0.7559055118110236,
                    "duration": 0.08182425000000038
                },
                {
                    "name": "G4",
                    "midi": 67,
                    "time": 24.21997800000002,
                    "velocity": 0.6377952755905512,
                    "duration": 0.08182425000000038
                },
                {
                    "name": "G5",
                    "midi": 79,
                    "time": 24.54727500000002,
                    "velocity": 0.7559055118110236,
                    "duration": 0.08182425000000038
                },
                {
                    "name": "G4",
                    "midi": 67,
                    "time": 24.54727500000002,
                    "velocity": 0.6377952755905512,
                    "duration": 0.08182425000000038
                },
                {
                    "name": "D#4",
                    "midi": 63,
                    "time": 25.12004475000002,
                    "velocity": 0.5511811023622047,
                    "duration": 0.08182425000000038
                },
                {
                    "name": "G4",
                    "midi": 67,
                    "time": 25.20186900000002,
                    "velocity": 0.6141732283464567,
                    "duration": 0.24547275000000113
                },
                {
                    "name": "D#4",
                    "midi": 63,
                    "time": 25.44734175000002,
                    "velocity": 0.5511811023622047,
                    "duration": 0.08182425000000038
                },
                {
                    "name": "C5",
                    "midi": 72,
                    "time": 25.52916600000002,
                    "velocity": 0.6692913385826772,
                    "duration": 0.24547275000000113
                },
                {
                    "name": "G4",
                    "midi": 67,
                    "time": 25.774638750000022,
                    "velocity": 0.5826771653543307,
                    "duration": 0.08182425000000038
                },
                {
                    "name": "D#5",
                    "midi": 75,
                    "time": 25.856463000000023,
                    "velocity": 0.6771653543307087,
                    "duration": 0.24547275000000113
                },
                {
                    "name": "C5",
                    "midi": 72,
                    "time": 26.101935750000024,
                    "velocity": 0.6535433070866141,
                    "duration": 0.08182425000000038
                },
                {
                    "name": "G5",
                    "midi": 79,
                    "time": 26.183760000000024,
                    "velocity": 0.7086614173228346,
                    "duration": 0.24547275000000113
                },
                {
                    "name": "D#5",
                    "midi": 75,
                    "time": 26.429232750000025,
                    "velocity": 0.6535433070866141,
                    "duration": 0.08182425000000038
                },
                {
                    "name": "D5",
                    "midi": 74,
                    "time": 26.511057000000026,
                    "velocity": 0.7559055118110236,
                    "duration": 0.08182425000000038
                },
                {
                    "name": "F6",
                    "midi": 89,
                    "time": 26.838354000000027,
                    "velocity": 0.7559055118110236,
                    "duration": 0.08182425000000038
                },
                {
                    "name": "B4",
                    "midi": 71,
                    "time": 27.492948000000027,
                    "velocity": 0.7559055118110236,
                    "duration": 0.08182425000000038
                },
                {
                    "name": "D6",
                    "midi": 86,
                    "time": 27.82024500000003,
                    "velocity": 0.7559055118110236,
                    "duration": 0.08182425000000038
                },
                {
                    "name": "C5",
                    "midi": 72,
                    "time": 28.474839000000028,
                    "velocity": 0.7559055118110236,
                    "duration": 0.08182425000000038
                },
                {
                    "name": "C6",
                    "midi": 84,
                    "time": 28.80213600000003,
                    "velocity": 0.7559055118110236,
                    "duration": 0.08182425000000038
                },
                {
                    "name": "G4",
                    "midi": 67,
                    "time": 31.74780900000003,
                    "velocity": 0.3937007874015748,
                    "duration": 0.6545939999999995
                },
                {
                    "name": "D#5",
                    "midi": 75,
                    "time": 32.07510600000003,
                    "velocity": 0.3543307086614173,
                    "duration": 0.3272970000000015
                },
                {
                    "name": "G#4",
                    "midi": 68,
                    "time": 32.40240300000003,
                    "velocity": 0.33070866141732286,
                    "duration": 0.9818910000000045
                },
                {
                    "name": "D#5",
                    "midi": 75,
                    "time": 32.40240300000003,
                    "velocity": 0.3937007874015748,
                    "duration": 0.654594000000003
                },
                {
                    "name": "D#5",
                    "midi": 75,
                    "time": 33.05699700000003,
                    "velocity": 0.3543307086614173,
                    "duration": 0.654594000000003
                },
                {
                    "name": "G4",
                    "midi": 67,
                    "time": 33.38429400000003,
                    "velocity": 0.33070866141732286,
                    "duration": 0.9818910000000045
                },
                {
                    "name": "F5",
                    "midi": 77,
                    "time": 33.711591000000034,
                    "velocity": 0.3543307086614173,
                    "duration": 0.3272970000000015
                },
                {
                    "name": "C#5",
                    "midi": 73,
                    "time": 34.038888000000036,
                    "velocity": 0.3464566929133858,
                    "duration": 0.654594000000003
                },
                {
                    "name": "G#4",
                    "midi": 68,
                    "time": 34.36618500000004,
                    "velocity": 0.33070866141732286,
                    "duration": 0.9818910000000045
                },
                {
                    "name": "B4",
                    "midi": 71,
                    "time": 34.69348200000004,
                    "velocity": 0.3543307086614173,
                    "duration": 0.3272970000000015
                },
                {
                    "name": "C5",
                    "midi": 72,
                    "time": 35.02077900000004,
                    "velocity": 0.3543307086614173,
                    "duration": 0.3272970000000015
                },
                {
                    "name": "E5",
                    "midi": 76,
                    "time": 35.67537300000004,
                    "velocity": 0.3937007874015748,
                    "duration": 0.654594000000003
                },
                {
                    "name": "C6",
                    "midi": 84,
                    "time": 36.002670000000045,
                    "velocity": 0.3543307086614173,
                    "duration": 0.3272970000000015
                },
                {
                    "name": "F5",
                    "midi": 77,
                    "time": 36.329967000000046,
                    "velocity": 0.33070866141732286,
                    "duration": 0.9818910000000045
                },
                {
                    "name": "C6",
                    "midi": 84,
                    "time": 36.329967000000046,
                    "velocity": 0.3937007874015748,
                    "duration": 0.654594000000003
                },
                {
                    "name": "C6",
                    "midi": 84,
                    "time": 36.98456100000005,
                    "velocity": 0.3543307086614173,
                    "duration": 0.654594000000003
                },
                {
                    "name": "E5",
                    "midi": 76,
                    "time": 37.31185800000005,
                    "velocity": 0.33070866141732286,
                    "duration": 0.9818910000000045
                },
                {
                    "name": "C#6",
                    "midi": 85,
                    "time": 37.63915500000005,
                    "velocity": 0.3543307086614173,
                    "duration": 0.3272970000000015
                },
                {
                    "name": "A#5",
                    "midi": 82,
                    "time": 37.966452000000054,
                    "velocity": 0.3464566929133858,
                    "duration": 0.654594000000003
                },
                {
                    "name": "C5",
                    "midi": 72,
                    "time": 38.293749000000055,
                    "velocity": 0.33070866141732286,
                    "duration": 0.9818910000000045
                },
                {
                    "name": "G5",
                    "midi": 79,
                    "time": 38.62104600000006,
                    "velocity": 0.3543307086614173,
                    "duration": 0.3272970000000015
                },
                {
                    "name": "G#5",
                    "midi": 80,
                    "time": 38.94834300000006,
                    "velocity": 0.3543307086614173,
                    "duration": 0.3272970000000015
                },
                {
                    "name": "C5",
                    "midi": 72,
                    "time": 39.60293700000006,
                    "velocity": 0.3937007874015748,
                    "duration": 0.654594000000003
                },
                {
                    "name": "G#5",
                    "midi": 80,
                    "time": 39.93023400000006,
                    "velocity": 0.3543307086614173,
                    "duration": 0.3272970000000015
                },
                {
                    "name": "C#5",
                    "midi": 73,
                    "time": 40.257531000000064,
                    "velocity": 0.33070866141732286,
                    "duration": 0.9818910000000045
                },
                {
                    "name": "G#5",
                    "midi": 80,
                    "time": 40.257531000000064,
                    "velocity": 0.3937007874015748,
                    "duration": 0.654594000000003
                },
                {
                    "name": "G#5",
                    "midi": 80,
                    "time": 40.91212500000007,
                    "velocity": 0.3543307086614173,
                    "duration": 0.654594000000003
                },
                {
                    "name": "C5",
                    "midi": 72,
                    "time": 41.23942200000007,
                    "velocity": 0.33070866141732286,
                    "duration": 0.9818910000000045
                },
                {
                    "name": "A#5",
                    "midi": 82,
                    "time": 41.56671900000007,
                    "velocity": 0.3543307086614173,
                    "duration": 0.3272970000000015
                },
                {
                    "name": "F#5",
                    "midi": 78,
                    "time": 41.89401600000007,
                    "velocity": 0.3464566929133858,
                    "duration": 0.654594000000003
                },
                {
                    "name": "G#4",
                    "midi": 68,
                    "time": 42.22131300000007,
                    "velocity": 0.3858267716535433,
                    "duration": 0.9818910000000045
                },
                {
                    "name": "E5",
                    "midi": 76,
                    "time": 42.548610000000075,
                    "velocity": 0.4094488188976378,
                    "duration": 0.3272970000000015
                },
                {
                    "name": "F5",
                    "midi": 77,
                    "time": 42.875907000000076,
                    "velocity": 0.4094488188976378,
                    "duration": 0.654594000000003
                },
                {
                    "name": "A4",
                    "midi": 69,
                    "time": 43.20320400000008,
                    "velocity": 0.3937007874015748,
                    "duration": 0.9818910000000045
                },
                {
                    "name": "F#5",
                    "midi": 78,
                    "time": 43.53050100000008,
                    "velocity": 0.4330708661417323,
                    "duration": 0.3272970000000015
                },
                {
                    "name": "D#5",
                    "midi": 75,
                    "time": 43.85779800000008,
                    "velocity": 0.3937007874015748,
                    "duration": 0.654594000000003
                },
                {
                    "name": "F4",
                    "midi": 65,
                    "time": 44.18509500000008,
                    "velocity": 0.33070866141732286,
                    "duration": 0.9818910000000045
                },
                {
                    "name": "D#5",
                    "midi": 75,
                    "time": 44.512392000000084,
                    "velocity": 0.3543307086614173,
                    "duration": 0.3272970000000015
                },
                {
                    "name": "D5",
                    "midi": 74,
                    "time": 44.839689000000085,
                    "velocity": 0.3543307086614173,
                    "duration": 0.654594000000003
                },
                {
                    "name": "F#4",
                    "midi": 66,
                    "time": 45.16698600000009,
                    "velocity": 0.33070866141732286,
                    "duration": 0.654594000000003
                },
                {
                    "name": "D#5",
                    "midi": 75,
                    "time": 45.49428300000009,
                    "velocity": 0.3543307086614173,
                    "duration": 0.3272970000000015
                },
                {
                    "name": "D#4",
                    "midi": 63,
                    "time": 45.82158000000009,
                    "velocity": 0.2204724409448819,
                    "duration": 0.3272970000000015
                },
                {
                    "name": "F#4",
                    "midi": 66,
                    "time": 45.82158000000009,
                    "velocity": 0.25984251968503935,
                    "duration": 0.3272970000000015
                },
                {
                    "name": "D4",
                    "midi": 62,
                    "time": 46.14887700000009,
                    "velocity": 0.25196850393700787,
                    "duration": 0.3272970000000015
                },
                {
                    "name": "F4",
                    "midi": 65,
                    "time": 46.14887700000009,
                    "velocity": 0.2992125984251969,
                    "duration": 0.3272970000000015
                },
                {
                    "name": "C5",
                    "midi": 72,
                    "time": 47.45806500000009,
                    "velocity": 0.2992125984251969,
                    "duration": 0.16364850000000075
                },
                {
                    "name": "C5",
                    "midi": 72,
                    "time": 47.78536200000009,
                    "velocity": 0.2992125984251969,
                    "duration": 0.16364850000000075
                },
                {
                    "name": "C5",
                    "midi": 72,
                    "time": 48.11265900000009,
                    "velocity": 0.36220472440944884,
                    "duration": 0.3272970000000015
                },
                {
                    "name": "A#4",
                    "midi": 70,
                    "time": 48.439956000000095,
                    "velocity": 0.2992125984251969,
                    "duration": 0.3272970000000015
                },
                {
                    "name": "G#4",
                    "midi": 68,
                    "time": 49.4218470000001,
                    "velocity": 0.2992125984251969,
                    "duration": 0.16364850000000075
                },
                {
                    "name": "G#4",
                    "midi": 68,
                    "time": 49.7491440000001,
                    "velocity": 0.2992125984251969,
                    "duration": 0.16364850000000075
                },
                {
                    "name": "G#4",
                    "midi": 68,
                    "time": 50.0764410000001,
                    "velocity": 0.33858267716535434,
                    "duration": 0.3272970000000015
                },
                {
                    "name": "G4",
                    "midi": 67,
                    "time": 50.403738000000104,
                    "velocity": 0.2992125984251969,
                    "duration": 0.3272970000000015
                },
                {
                    "name": "C5",
                    "midi": 72,
                    "time": 51.22198050000011,
                    "velocity": 0.29133858267716534,
                    "duration": 0.16364850000000075
                },
                {
                    "name": "B4",
                    "midi": 71,
                    "time": 51.38562900000011,
                    "velocity": 0.2992125984251969,
                    "duration": 0.16364850000000075
                },
                {
                    "name": "C5",
                    "midi": 72,
                    "time": 51.54927750000011,
                    "velocity": 0.2677165354330709,
                    "duration": 0.16364850000000075
                },
                {
                    "name": "D5",
                    "midi": 74,
                    "time": 51.71292600000011,
                    "velocity": 0.33858267716535434,
                    "duration": 0.16364850000000075
                },
                {
                    "name": "C5",
                    "midi": 72,
                    "time": 51.87657450000011,
                    "velocity": 0.2992125984251969,
                    "duration": 0.16364850000000075
                },
                {
                    "name": "A#4",
                    "midi": 70,
                    "time": 52.20387150000011,
                    "velocity": 0.28346456692913385,
                    "duration": 0.16364850000000075
                },
                {
                    "name": "A4",
                    "midi": 69,
                    "time": 52.36752000000011,
                    "velocity": 0.2992125984251969,
                    "duration": 0.16364850000000075
                },
                {
                    "name": "A#4",
                    "midi": 70,
                    "time": 52.53116850000011,
                    "velocity": 0.28346456692913385,
                    "duration": 0.16364850000000075
                },
                {
                    "name": "C5",
                    "midi": 72,
                    "time": 52.694817000000114,
                    "velocity": 0.3464566929133858,
                    "duration": 0.16364850000000075
                },
                {
                    "name": "A#4",
                    "midi": 70,
                    "time": 52.858465500000115,
                    "velocity": 0.2992125984251969,
                    "duration": 0.16364850000000075
                },
                {
                    "name": "G#4",
                    "midi": 68,
                    "time": 53.185762500000116,
                    "velocity": 0.28346456692913385,
                    "duration": 0.16364850000000075
                },
                {
                    "name": "G4",
                    "midi": 67,
                    "time": 53.34941100000012,
                    "velocity": 0.2992125984251969,
                    "duration": 0.16364850000000075
                },
                {
                    "name": "G#4",
                    "midi": 68,
                    "time": 53.51305950000012,
                    "velocity": 0.2755905511811024,
                    "duration": 0.16364850000000075
                },
                {
                    "name": "A#4",
                    "midi": 70,
                    "time": 53.67670800000012,
                    "velocity": 0.3464566929133858,
                    "duration": 0.16364850000000075
                },
                {
                    "name": "G#4",
                    "midi": 68,
                    "time": 53.84035650000012,
                    "velocity": 0.29133858267716534,
                    "duration": 0.16364850000000075
                },
                {
                    "name": "G4",
                    "midi": 67,
                    "time": 54.00400500000012,
                    "velocity": 0.36220472440944884,
                    "duration": 1.4728364999999997
                },
                {
                    "name": "A#4",
                    "midi": 70,
                    "time": 55.47684150000012,
                    "velocity": 0.4409448818897638,
                    "duration": 0.16364850000000075
                },
                {
                    "name": "D#5",
                    "midi": 75,
                    "time": 55.64049000000012,
                    "velocity": 0.4881889763779528,
                    "duration": 0.3204783125000006
                },
                {
                    "name": "D#5",
                    "midi": 75,
                    "time": 55.96778700000012,
                    "velocity": 0.49606299212598426,
                    "duration": 0.9818909999999974
                },
                {
                    "name": "D5",
                    "midi": 74,
                    "time": 56.94967800000012,
                    "velocity": 0.44881889763779526,
                    "duration": 0.3272970000000015
                },
                {
                    "name": "A#4",
                    "midi": 70,
                    "time": 57.931569000000124,
                    "velocity": 0.4015748031496063,
                    "duration": 0.9818909999999974
                },
                {
                    "name": "A#4",
                    "midi": 70,
                    "time": 58.91346000000012,
                    "velocity": 0.48031496062992124,
                    "duration": 0.16364850000000075
                },
                {
                    "name": "C5",
                    "midi": 72,
                    "time": 59.07710850000012,
                    "velocity": 0.44881889763779526,
                    "duration": 0.05454950000000025
                },
                {
                    "name": "A#4",
                    "midi": 70,
                    "time": 59.13165800000012,
                    "velocity": 0.4094488188976378,
                    "duration": 0.05454950000000025
                },
                {
                    "name": "A4",
                    "midi": 69,
                    "time": 59.18620750000012,
                    "velocity": 0.4094488188976378,
                    "duration": 0.05454950000000025
                },
                {
                    "name": "A#4",
                    "midi": 70,
                    "time": 59.24075700000012,
                    "velocity": 0.48031496062992124,
                    "duration": 0.16364850000000075
                },
                {
                    "name": "F5",
                    "midi": 77,
                    "time": 59.404405500000124,
                    "velocity": 0.5118110236220472,
                    "duration": 0.16364850000000075
                },
                {
                    "name": "G#5",
                    "midi": 80,
                    "time": 59.568054000000124,
                    "velocity": 0.5748031496062992,
                    "duration": 0.3272970000000015
                },
                {
                    "name": "G#5",
                    "midi": 80,
                    "time": 59.895351000000126,
                    "velocity": 0.5826771653543307,
                    "duration": 0.9818909999999974
                },
                {
                    "name": "G5",
                    "midi": 79,
                    "time": 60.87724200000012,
                    "velocity": 0.5433070866141733,
                    "duration": 0.3272970000000015
                },
                {
                    "name": "G4",
                    "midi": 67,
                    "time": 61.85913300000013,
                    "velocity": 0.4409448818897638,
                    "duration": 0.08182424999999682
                },
                {
                    "name": "G#4",
                    "midi": 68,
                    "time": 62.02278150000012,
                    "velocity": 0.4566929133858268,
                    "duration": 0.08182424999999682
                },
                {
                    "name": "A#4",
                    "midi": 70,
                    "time": 62.186430000000115,
                    "velocity": 0.47244094488188976,
                    "duration": 0.08182424999999682
                },
                {
                    "name": "C5",
                    "midi": 72,
                    "time": 62.35007850000011,
                    "velocity": 0.4881889763779528,
                    "duration": 0.08182424999999682
                },
                {
                    "name": "D5",
                    "midi": 74,
                    "time": 62.5137270000001,
                    "velocity": 0.5039370078740157,
                    "duration": 0.08182424999999682
                },
                {
                    "name": "D#5",
                    "midi": 75,
                    "time": 62.677375500000096,
                    "velocity": 0.5118110236220472,
                    "duration": 0.08182424999999682
                },
                {
                    "name": "F5",
                    "midi": 77,
                    "time": 62.84102400000009,
                    "velocity": 0.5511811023622047,
                    "duration": 0.08182424999999682
                },
                {
                    "name": "G5",
                    "midi": 79,
                    "time": 63.00467250000008,
                    "velocity": 0.5748031496062992,
                    "duration": 0.08182424999999682
                },
                {
                    "name": "G#5",
                    "midi": 80,
                    "time": 63.16832100000008,
                    "velocity": 0.5984251968503937,
                    "duration": 0.08182424999999682
                },
                {
                    "name": "A#5",
                    "midi": 82,
                    "time": 63.33196950000007,
                    "velocity": 0.6141732283464567,
                    "duration": 0.08182424999999682
                },
                {
                    "name": "C6",
                    "midi": 84,
                    "time": 63.495618000000064,
                    "velocity": 0.6377952755905512,
                    "duration": 0.08182424999999682
                },
                {
                    "name": "D6",
                    "midi": 86,
                    "time": 63.65926650000006,
                    "velocity": 0.6614173228346457,
                    "duration": 0.08182424999999682
                },
                {
                    "name": "D#6",
                    "midi": 87,
                    "time": 63.82291500000005,
                    "velocity": 0.7165354330708661,
                    "duration": 0.9818910000000045
                },
                {
                    "name": "D6",
                    "midi": 86,
                    "time": 64.80480600000006,
                    "velocity": 0.5590551181102362,
                    "duration": 0.3272970000000015
                },
                {
                    "name": "A#3",
                    "midi": 58,
                    "time": 65.78669700000006,
                    "velocity": 0.4409448818897638,
                    "duration": 0.08182424999999682
                },
                {
                    "name": "C4",
                    "midi": 60,
                    "time": 65.95034550000005,
                    "velocity": 0.4566929133858268,
                    "duration": 0.08182424999999682
                },
                {
                    "name": "D4",
                    "midi": 62,
                    "time": 66.11399400000005,
                    "velocity": 0.47244094488188976,
                    "duration": 0.08182424999999682
                },
                {
                    "name": "D#4",
                    "midi": 63,
                    "time": 66.27764250000004,
                    "velocity": 0.4881889763779528,
                    "duration": 0.08182424999999682
                },
                {
                    "name": "F4",
                    "midi": 65,
                    "time": 66.44129100000004,
                    "velocity": 0.5039370078740157,
                    "duration": 0.08182424999999682
                },
                {
                    "name": "G4",
                    "midi": 67,
                    "time": 66.60493950000003,
                    "velocity": 0.5118110236220472,
                    "duration": 0.08182424999999682
                },
                {
                    "name": "G#4",
                    "midi": 68,
                    "time": 66.76858800000002,
                    "velocity": 0.5275590551181102,
                    "duration": 0.08182424999999682
                },
                {
                    "name": "A#4",
                    "midi": 70,
                    "time": 66.93223650000002,
                    "velocity": 0.5669291338582677,
                    "duration": 0.08182424999999682
                },
                {
                    "name": "C5",
                    "midi": 72,
                    "time": 67.09588500000001,
                    "velocity": 0.5826771653543307,
                    "duration": 0.08182424999999682
                },
                {
                    "name": "D5",
                    "midi": 74,
                    "time": 67.2595335,
                    "velocity": 0.5984251968503937,
                    "duration": 0.08182424999999682
                },
                {
                    "name": "D#5",
                    "midi": 75,
                    "time": 67.423182,
                    "velocity": 0.6141732283464567,
                    "duration": 0.08182424999999682
                },
                {
                    "name": "F5",
                    "midi": 77,
                    "time": 67.58683049999999,
                    "velocity": 0.6299212598425197,
                    "duration": 0.08182424999999682
                },
                {
                    "name": "G5",
                    "midi": 79,
                    "time": 67.75047899999998,
                    "velocity": 0.7401574803149606,
                    "duration": 0.9818910000000045
                },
                {
                    "name": "D#6",
                    "midi": 87,
                    "time": 68.73236999999999,
                    "velocity": 0.7874015748031497,
                    "duration": 0.654594000000003
                },
                {
                    "name": "G3",
                    "midi": 55,
                    "time": 69.38696399999999,
                    "velocity": 0.6062992125984252,
                    "duration": 0.3272970000000015
                },
                {
                    "name": "G#3",
                    "midi": 56,
                    "time": 69.714261,
                    "velocity": 0.6456692913385826,
                    "duration": 0.9818910000000045
                },
                {
                    "name": "A3",
                    "midi": 57,
                    "time": 70.696152,
                    "velocity": 0.6614173228346457,
                    "duration": 0.9818910000000045
                },
                {
                    "name": "A#3",
                    "midi": 58,
                    "time": 71.678043,
                    "velocity": 0.6614173228346457,
                    "duration": 0.9818910000000045
                },
                {
                    "name": "G#3",
                    "midi": 56,
                    "time": 72.659934,
                    "velocity": 0.6614173228346457,
                    "duration": 0.08182424999999682
                },
                {
                    "name": "A#3",
                    "midi": 58,
                    "time": 72.74175825,
                    "velocity": 0.44881889763779526,
                    "duration": 0.08182424999999682
                },
                {
                    "name": "G#3",
                    "midi": 56,
                    "time": 72.8235825,
                    "velocity": 0.48031496062992124,
                    "duration": 0.054549499999993145
                },
                {
                    "name": "A#3",
                    "midi": 58,
                    "time": 72.878132,
                    "velocity": 0.44881889763779526,
                    "duration": 0.054549499999993145
                },
                {
                    "name": "G#3",
                    "midi": 56,
                    "time": 72.93268149999999,
                    "velocity": 0.5039370078740157,
                    "duration": 0.054549499999993145
                },
                {
                    "name": "A#3",
                    "midi": 58,
                    "time": 72.98723099999998,
                    "velocity": 0.4409448818897638,
                    "duration": 0.054549499999993145
                },
                {
                    "name": "G#3",
                    "midi": 56,
                    "time": 73.04178049999997,
                    "velocity": 0.5039370078740157,
                    "duration": 0.054549499999993145
                },
                {
                    "name": "A#3",
                    "midi": 58,
                    "time": 73.09632999999997,
                    "velocity": 0.4409448818897638,
                    "duration": 0.054549499999993145
                },
                {
                    "name": "G#3",
                    "midi": 56,
                    "time": 73.15087949999996,
                    "velocity": 0.5039370078740157,
                    "duration": 0.054549499999993145
                },
                {
                    "name": "A#3",
                    "midi": 58,
                    "time": 73.20542899999995,
                    "velocity": 0.4330708661417323,
                    "duration": 0.054549499999993145
                },
                {
                    "name": "G#3",
                    "midi": 56,
                    "time": 73.25997849999995,
                    "velocity": 0.5039370078740157,
                    "duration": 0.054549499999993145
                },
                {
                    "name": "A#3",
                    "midi": 58,
                    "time": 73.31452799999994,
                    "velocity": 0.4251968503937008,
                    "duration": 0.08182424999999682
                },
                {
                    "name": "G#3",
                    "midi": 56,
                    "time": 73.39635224999994,
                    "velocity": 0.4645669291338583,
                    "duration": 0.08182424999999682
                },
                {
                    "name": "G3",
                    "midi": 55,
                    "time": 73.47817649999993,
                    "velocity": 0.4330708661417323,
                    "duration": 0.08182424999999682
                },
                {
                    "name": "G#3",
                    "midi": 56,
                    "time": 73.56000074999993,
                    "velocity": 0.44881889763779526,
                    "duration": 0.08182424999999682
                },
                {
                    "name": "G3",
                    "midi": 55,
                    "time": 73.64182499999993,
                    "velocity": 0.5826771653543307,
                    "duration": 0.16364849999999365
                },
                {
                    "name": "A#3",
                    "midi": 58,
                    "time": 73.80547349999992,
                    "velocity": 0.47244094488188976,
                    "duration": 0.16364849999999365
                },
                {
                    "name": "D#4",
                    "midi": 63,
                    "time": 73.96912199999991,
                    "velocity": 0.5354330708661418,
                    "duration": 0.16364849999999365
                },
                {
                    "name": "A#3",
                    "midi": 58,
                    "time": 74.1327704999999,
                    "velocity": 0.48031496062992124,
                    "duration": 0.16364849999999365
                },
                {
                    "name": "D#4",
                    "midi": 63,
                    "time": 74.2964189999999,
                    "velocity": 0.5433070866141733,
                    "duration": 0.16364849999999365
                },
                {
                    "name": "G4",
                    "midi": 67,
                    "time": 74.4600674999999,
                    "velocity": 0.49606299212598426,
                    "duration": 0.16364849999999365
                },
                {
                    "name": "A#4",
                    "midi": 70,
                    "time": 74.62371599999989,
                    "velocity": 0.5433070866141733,
                    "duration": 0.16364849999999365
                },
                {
                    "name": "G4",
                    "midi": 67,
                    "time": 74.78736449999988,
                    "velocity": 0.47244094488188976,
                    "duration": 0.16364849999999365
                },
                {
                    "name": "A#4",
                    "midi": 70,
                    "time": 74.95101299999988,
                    "velocity": 0.5433070866141733,
                    "duration": 0.16364849999999365
                },
                {
                    "name": "D#5",
                    "midi": 75,
                    "time": 75.11466149999987,
                    "velocity": 0.4881889763779528,
                    "duration": 0.16364849999999365
                },
                {
                    "name": "G5",
                    "midi": 79,
                    "time": 75.27830999999986,
                    "velocity": 0.5748031496062992,
                    "duration": 0.16364849999999365
                },
                {
                    "name": "A#5",
                    "midi": 82,
                    "time": 75.44195849999986,
                    "velocity": 0.5118110236220472,
                    "duration": 0.16364849999999365
                },
                {
                    "name": "D#6",
                    "midi": 87,
                    "time": 75.60560699999985,
                    "velocity": 0.7007874015748031,
                    "duration": 0.16364849999999365
                },
                {
                    "name": "D#4",
                    "midi": 63,
                    "time": 76.26020099999984,
                    "velocity": 0.6614173228346457,
                    "duration": 0.9818910000000045
                },
                {
                    "name": "G3",
                    "midi": 55,
                    "time": 77.24209199999984,
                    "velocity": 0.6377952755905512,
                    "duration": 0.3272970000000015
                },
                {
                    "name": "G#3",
                    "midi": 56,
                    "time": 77.56938899999984,
                    "velocity": 0.6614173228346457,
                    "duration": 0.654594000000003
                },
                {
                    "name": "D#4",
                    "midi": 63,
                    "time": 78.22398299999985,
                    "velocity": 0.6614173228346457,
                    "duration": 0.3272970000000015
                },
                {
                    "name": "A3",
                    "midi": 57,
                    "time": 78.55127999999985,
                    "velocity": 0.7244094488188977,
                    "duration": 0.654594000000003
                },
                {
                    "name": "D#4",
                    "midi": 63,
                    "time": 79.20587399999985,
                    "velocity": 0.6614173228346457,
                    "duration": 0.3272970000000015
                },
                {
                    "name": "A#3",
                    "midi": 58,
                    "time": 79.53317099999985,
                    "velocity": 0.6062992125984252,
                    "duration": 0.16364849999999365
                },
                {
                    "name": "D#4",
                    "midi": 63,
                    "time": 79.69681949999985,
                    "velocity": 0.4645669291338583,
                    "duration": 0.16364849999999365
                },
                {
                    "name": "D4",
                    "midi": 62,
                    "time": 79.86046799999984,
                    "velocity": 0.5354330708661418,
                    "duration": 0.16364849999999365
                },
                {
                    "name": "D#4",
                    "midi": 63,
                    "time": 80.02411649999983,
                    "velocity": 0.4330708661417323,
                    "duration": 0.16364849999999365
                },
                {
                    "name": "B3",
                    "midi": 59,
                    "time": 80.18776499999983,
                    "velocity": 0.5118110236220472,
                    "duration": 0.16364849999999365
                },
                {
                    "name": "D#4",
                    "midi": 63,
                    "time": 80.35141349999982,
                    "velocity": 0.4645669291338583,
                    "duration": 0.16364849999999365
                },
                {
                    "name": "C4",
                    "midi": 60,
                    "time": 80.51506199999982,
                    "velocity": 0.6456692913385826,
                    "duration": 0.16364849999999365
                },
                {
                    "name": "D#4",
                    "midi": 63,
                    "time": 80.67871049999981,
                    "velocity": 0.4881889763779528,
                    "duration": 0.16364849999999365
                },
                {
                    "name": "D4",
                    "midi": 62,
                    "time": 80.8423589999998,
                    "velocity": 0.5590551181102362,
                    "duration": 0.16364849999999365
                },
                {
                    "name": "D#4",
                    "midi": 63,
                    "time": 81.0060074999998,
                    "velocity": 0.4645669291338583,
                    "duration": 0.16364849999999365
                },
                {
                    "name": "A3",
                    "midi": 57,
                    "time": 81.16965599999979,
                    "velocity": 0.5196850393700787,
                    "duration": 0.16364849999999365
                },
                {
                    "name": "D#4",
                    "midi": 63,
                    "time": 81.33330449999978,
                    "velocity": 0.4409448818897638,
                    "duration": 0.16364849999999365
                },
                {
                    "name": "A#3",
                    "midi": 58,
                    "time": 81.49695299999978,
                    "velocity": 0.6929133858267716,
                    "duration": 0.16364849999999365
                },
                {
                    "name": "D#4",
                    "midi": 63,
                    "time": 81.66060149999977,
                    "velocity": 0.4566929133858268,
                    "duration": 0.16364849999999365
                },
                {
                    "name": "C#4",
                    "midi": 61,
                    "time": 81.82424999999976,
                    "velocity": 0.5669291338582677,
                    "duration": 0.16364849999999365
                },
                {
                    "name": "D#4",
                    "midi": 63,
                    "time": 81.98789849999976,
                    "velocity": 0.4881889763779528,
                    "duration": 0.16364849999999365
                },
                {
                    "name": "B3",
                    "midi": 59,
                    "time": 82.15154699999975,
                    "velocity": 0.5669291338582677,
                    "duration": 0.16364849999999365
                },
                {
                    "name": "D#4",
                    "midi": 63,
                    "time": 82.31519549999975,
                    "velocity": 0.5039370078740157,
                    "duration": 0.16364849999999365
                },
                {
                    "name": "C4",
                    "midi": 60,
                    "time": 82.47884399999974,
                    "velocity": 0.6929133858267716,
                    "duration": 0.16364849999999365
                },
                {
                    "name": "D#4",
                    "midi": 63,
                    "time": 82.64249249999973,
                    "velocity": 0.5118110236220472,
                    "duration": 0.16364849999999365
                },
                {
                    "name": "D4",
                    "midi": 62,
                    "time": 82.80614099999973,
                    "velocity": 0.5905511811023622,
                    "duration": 0.16364849999999365
                },
                {
                    "name": "D#4",
                    "midi": 63,
                    "time": 82.96978949999972,
                    "velocity": 0.5118110236220472,
                    "duration": 0.16364849999999365
                },
                {
                    "name": "A3",
                    "midi": 57,
                    "time": 83.13343799999971,
                    "velocity": 0.6299212598425197,
                    "duration": 0.16364849999999365
                },
                {
                    "name": "D#4",
                    "midi": 63,
                    "time": 83.29708649999971,
                    "velocity": 0.5669291338582677,
                    "duration": 0.16364849999999365
                },
                {
                    "name": "A#3",
                    "midi": 58,
                    "time": 83.4607349999997,
                    "velocity": 0.7322834645669292,
                    "duration": 0.3272970000000015
                },
                {
                    "name": "D#4",
                    "midi": 63,
                    "time": 84.03350474999971,
                    "velocity": 0.6377952755905512,
                    "duration": 0.08182424999999682
                },
                {
                    "name": "A#4",
                    "midi": 70,
                    "time": 84.1153289999997,
                    "velocity": 0.6850393700787402,
                    "duration": 0.24547275000000468
                },
                {
                    "name": "G4",
                    "midi": 67,
                    "time": 84.36080174999971,
                    "velocity": 0.6614173228346457,
                    "duration": 0.08182424999999682
                },
                {
                    "name": "D#5",
                    "midi": 75,
                    "time": 84.4426259999997,
                    "velocity": 0.7322834645669292,
                    "duration": 0.08182424999999682
                },
                {
                    "name": "D#4",
                    "midi": 63,
                    "time": 85.0153957499997,
                    "velocity": 0.6377952755905512,
                    "duration": 0.08182424999999682
                },
                {
                    "name": "A4",
                    "midi": 69,
                    "time": 85.0972199999997,
                    "velocity": 0.6850393700787402,
                    "duration": 0.24547275000000468
                },
                {
                    "name": "F#4",
                    "midi": 66,
                    "time": 85.3426927499997,
                    "velocity": 0.6614173228346457,
                    "duration": 0.08182424999999682
                },
                {
                    "name": "D#5",
                    "midi": 75,
                    "time": 85.4245169999997,
                    "velocity": 0.7322834645669292,
                    "duration": 0.08182424999999682
                },
                {
                    "name": "D#4",
                    "midi": 63,
                    "time": 85.99728674999969,
                    "velocity": 0.6377952755905512,
                    "duration": 0.08182424999999682
                },
                {
                    "name": "A#4",
                    "midi": 70,
                    "time": 86.07911099999968,
                    "velocity": 0.6850393700787402,
                    "duration": 0.24547275000000468
                },
                {
                    "name": "G4",
                    "midi": 67,
                    "time": 86.32458374999969,
                    "velocity": 0.6614173228346457,
                    "duration": 0.08182424999999682
                },
                {
                    "name": "D#5",
                    "midi": 75,
                    "time": 86.40640799999969,
                    "velocity": 0.7322834645669292,
                    "duration": 0.08182424999999682
                },
                {
                    "name": "C5",
                    "midi": 72,
                    "time": 86.97917774999968,
                    "velocity": 0.6377952755905512,
                    "duration": 0.08182424999999682
                },
                {
                    "name": "F#5",
                    "midi": 78,
                    "time": 87.06100199999968,
                    "velocity": 0.6850393700787402,
                    "duration": 0.24547275000000468
                },
                {
                    "name": "D#5",
                    "midi": 75,
                    "time": 87.30647474999968,
                    "velocity": 0.6614173228346457,
                    "duration": 0.08182424999999682
                },
                {
                    "name": "G5",
                    "midi": 79,
                    "time": 87.38829899999968,
                    "velocity": 0.7480314960629921,
                    "duration": 0.49094549999999515
                },
                {
                    "name": "D#5",
                    "midi": 75,
                    "time": 87.87924449999967,
                    "velocity": 0.6692913385826772,
                    "duration": 0.16364849999999365
                },
                {
                    "name": "D#5",
                    "midi": 75,
                    "time": 88.04289299999967,
                    "velocity": 0.7322834645669292,
                    "duration": 0.16364849999999365
                },
                {
                    "name": "A#4",
                    "midi": 70,
                    "time": 88.20654149999966,
                    "velocity": 0.6220472440944882,
                    "duration": 0.12273637500000234
                },
                {
                    "name": "A#4",
                    "midi": 70,
                    "time": 88.37018999999967,
                    "velocity": 0.6929133858267716,
                    "duration": 0.16364849999999365
                },
                {
                    "name": "G4",
                    "midi": 67,
                    "time": 88.53383849999966,
                    "velocity": 0.6141732283464567,
                    "duration": 0.12273637500000234
                },
                {
                    "name": "G4",
                    "midi": 67,
                    "time": 88.69748699999967,
                    "velocity": 0.6692913385826772,
                    "duration": 0.16364849999999365
                },
                {
                    "name": "D#4",
                    "midi": 63,
                    "time": 88.86113549999966,
                    "velocity": 0.6062992125984252,
                    "duration": 0.12273637500000234
                },
                {
                    "name": "D#4",
                    "midi": 63,
                    "time": 89.02478399999967,
                    "velocity": 0.6377952755905512,
                    "duration": 0.16364849999999365
                },
                {
                    "name": "A#3",
                    "midi": 58,
                    "time": 89.18843249999966,
                    "velocity": 0.6062992125984252,
                    "duration": 0.12273637500000234
                },
                {
                    "name": "A#3",
                    "midi": 58,
                    "time": 90.98856599999966,
                    "velocity": 0.5196850393700787,
                    "duration": 0.3272970000000015
                },
                {
                    "name": "D4",
                    "midi": 62,
                    "time": 90.98856599999966,
                    "velocity": 0.6141732283464567,
                    "duration": 0.3272970000000015
                },
                {
                    "name": "A#3",
                    "midi": 58,
                    "time": 91.31586299999967,
                    "velocity": 0.5511811023622047,
                    "duration": 0.3272970000000015
                },
                {
                    "name": "D#4",
                    "midi": 63,
                    "time": 91.31586299999967,
                    "velocity": 0.6535433070866141,
                    "duration": 0.3272970000000015
                },
                {
                    "name": "A#4",
                    "midi": 70,
                    "time": 92.62505099999967,
                    "velocity": 0.41732283464566927,
                    "duration": 0.3272970000000015
                },
                {
                    "name": "F4",
                    "midi": 65,
                    "time": 92.62505099999967,
                    "velocity": 0.33070866141732286,
                    "duration": 0.3272970000000015
                },
                {
                    "name": "G#4",
                    "midi": 68,
                    "time": 92.62505099999967,
                    "velocity": 0.33070866141732286,
                    "duration": 0.3272970000000015
                },
                {
                    "name": "D4",
                    "midi": 62,
                    "time": 92.62505099999967,
                    "velocity": 0.33070866141732286,
                    "duration": 0.3272970000000015
                },
                {
                    "name": "D4",
                    "midi": 62,
                    "time": 92.95234799999967,
                    "velocity": 0.2992125984251969,
                    "duration": 0.3272970000000015
                },
                {
                    "name": "F4",
                    "midi": 65,
                    "time": 92.95234799999967,
                    "velocity": 0.2992125984251969,
                    "duration": 0.3272970000000015
                },
                {
                    "name": "G#4",
                    "midi": 68,
                    "time": 92.95234799999967,
                    "velocity": 0.2992125984251969,
                    "duration": 0.3272970000000015
                },
                {
                    "name": "A#4",
                    "midi": 70,
                    "time": 92.95234799999967,
                    "velocity": 0.3779527559055118,
                    "duration": 0.3272970000000015
                },
                {
                    "name": "D#4",
                    "midi": 63,
                    "time": 93.27964499999968,
                    "velocity": 0.33070866141732286,
                    "duration": 0.654594000000003
                },
                {
                    "name": "G4",
                    "midi": 67,
                    "time": 93.27964499999968,
                    "velocity": 0.33070866141732286,
                    "duration": 0.654594000000003
                },
                {
                    "name": "C5",
                    "midi": 72,
                    "time": 93.27964499999968,
                    "velocity": 0.41732283464566927,
                    "duration": 0.3272970000000015
                },
                {
                    "name": "A#4",
                    "midi": 70,
                    "time": 93.60694199999968,
                    "velocity": 0.3858267716535433,
                    "duration": 0.3272970000000015
                },
                {
                    "name": "F4",
                    "midi": 65,
                    "time": 94.58883299999968,
                    "velocity": 0.33070866141732286,
                    "duration": 0.3272970000000015
                },
                {
                    "name": "G#4",
                    "midi": 68,
                    "time": 94.58883299999968,
                    "velocity": 0.33070866141732286,
                    "duration": 0.3272970000000015
                },
                {
                    "name": "D5",
                    "midi": 74,
                    "time": 94.58883299999968,
                    "velocity": 0.41732283464566927,
                    "duration": 0.3272970000000015
                },
                {
                    "name": "F4",
                    "midi": 65,
                    "time": 94.91612999999968,
                    "velocity": 0.2992125984251969,
                    "duration": 0.3272970000000015
                },
                {
                    "name": "G#4",
                    "midi": 68,
                    "time": 94.91612999999968,
                    "velocity": 0.2992125984251969,
                    "duration": 0.3272970000000015
                },
                {
                    "name": "D5",
                    "midi": 74,
                    "time": 94.91612999999968,
                    "velocity": 0.3779527559055118,
                    "duration": 0.3272970000000015
                },
                {
                    "name": "G4",
                    "midi": 67,
                    "time": 95.24342699999968,
                    "velocity": 0.33070866141732286,
                    "duration": 0.654594000000003
                },
                {
                    "name": "A#4",
                    "midi": 70,
                    "time": 95.24342699999968,
                    "velocity": 0.33070866141732286,
                    "duration": 0.654594000000003
                },
                {
                    "name": "F5",
                    "midi": 77,
                    "time": 95.24342699999968,
                    "velocity": 0.41732283464566927,
                    "duration": 0.3272970000000015
                },
                {
                    "name": "D#5",
                    "midi": 75,
                    "time": 95.57072399999969,
                    "velocity": 0.3858267716535433,
                    "duration": 0.3272970000000015
                },
                {
                    "name": "D4",
                    "midi": 62,
                    "time": 96.55261499999969,
                    "velocity": 0.33070866141732286,
                    "duration": 0.3272970000000015
                },
                {
                    "name": "F4",
                    "midi": 65,
                    "time": 96.55261499999969,
                    "velocity": 0.33070866141732286,
                    "duration": 0.3272970000000015
                },
                {
                    "name": "G#4",
                    "midi": 68,
                    "time": 96.55261499999969,
                    "velocity": 0.33070866141732286,
                    "duration": 0.3272970000000015
                },
                {
                    "name": "A#4",
                    "midi": 70,
                    "time": 96.55261499999969,
                    "velocity": 0.41732283464566927,
                    "duration": 0.3272970000000015
                },
                {
                    "name": "A#4",
                    "midi": 70,
                    "time": 96.87991199999969,
                    "velocity": 0.3779527559055118,
                    "duration": 0.3272970000000015
                },
                {
                    "name": "F4",
                    "midi": 65,
                    "time": 96.87991199999969,
                    "velocity": 0.2992125984251969,
                    "duration": 0.3272970000000015
                },
                {
                    "name": "G#4",
                    "midi": 68,
                    "time": 96.87991199999969,
                    "velocity": 0.2992125984251969,
                    "duration": 0.3272970000000015
                },
                {
                    "name": "D4",
                    "midi": 62,
                    "time": 96.87991199999969,
                    "velocity": 0.2992125984251969,
                    "duration": 0.3272970000000015
                },
                {
                    "name": "D#4",
                    "midi": 63,
                    "time": 97.2072089999997,
                    "velocity": 0.33070866141732286,
                    "duration": 0.654594000000003
                },
                {
                    "name": "G4",
                    "midi": 67,
                    "time": 97.2072089999997,
                    "velocity": 0.33070866141732286,
                    "duration": 0.654594000000003
                },
                {
                    "name": "C5",
                    "midi": 72,
                    "time": 97.2072089999997,
                    "velocity": 0.41732283464566927,
                    "duration": 0.3272970000000015
                },
                {
                    "name": "A#4",
                    "midi": 70,
                    "time": 97.5345059999997,
                    "velocity": 0.3858267716535433,
                    "duration": 0.3272970000000015
                },
                {
                    "name": "F3",
                    "midi": 53,
                    "time": 98.5163969999997,
                    "velocity": 0.33070866141732286,
                    "duration": 0.3272970000000015
                },
                {
                    "name": "G#3",
                    "midi": 56,
                    "time": 98.5163969999997,
                    "velocity": 0.33070866141732286,
                    "duration": 0.3272970000000015
                },
                {
                    "name": "D4",
                    "midi": 62,
                    "time": 98.5163969999997,
                    "velocity": 0.41732283464566927,
                    "duration": 0.3272970000000015
                },
                {
                    "name": "F3",
                    "midi": 53,
                    "time": 98.8436939999997,
                    "velocity": 0.2992125984251969,
                    "duration": 0.3272970000000015
                },
                {
                    "name": "G#3",
                    "midi": 56,
                    "time": 98.8436939999997,
                    "velocity": 0.2992125984251969,
                    "duration": 0.3272970000000015
                },
                {
                    "name": "D4",
                    "midi": 62,
                    "time": 98.8436939999997,
                    "velocity": 0.3779527559055118,
                    "duration": 0.3272970000000015
                },
                {
                    "name": "G3",
                    "midi": 55,
                    "time": 99.1709909999997,
                    "velocity": 0.33070866141732286,
                    "duration": 0.654594000000003
                },
                {
                    "name": "A#3",
                    "midi": 58,
                    "time": 99.1709909999997,
                    "velocity": 0.33070866141732286,
                    "duration": 0.654594000000003
                },
                {
                    "name": "F4",
                    "midi": 65,
                    "time": 99.1709909999997,
                    "velocity": 0.41732283464566927,
                    "duration": 0.3272970000000015
                },
                {
                    "name": "D#4",
                    "midi": 63,
                    "time": 99.4982879999997,
                    "velocity": 0.3858267716535433,
                    "duration": 0.3272970000000015
                },
                {
                    "name": "F3",
                    "midi": 53,
                    "time": 100.48017899999971,
                    "velocity": 0.33070866141732286,
                    "duration": 0.3272970000000015
                },
                {
                    "name": "G#3",
                    "midi": 56,
                    "time": 100.48017899999971,
                    "velocity": 0.33070866141732286,
                    "duration": 0.3272970000000015
                },
                {
                    "name": "D4",
                    "midi": 62,
                    "time": 100.48017899999971,
                    "velocity": 0.41732283464566927,
                    "duration": 0.3272970000000015
                },
                {
                    "name": "F3",
                    "midi": 53,
                    "time": 100.80747599999971,
                    "velocity": 0.2992125984251969,
                    "duration": 0.3272970000000015
                },
                {
                    "name": "G#3",
                    "midi": 56,
                    "time": 100.80747599999971,
                    "velocity": 0.2992125984251969,
                    "duration": 0.3272970000000015
                },
                {
                    "name": "D4",
                    "midi": 62,
                    "time": 100.80747599999971,
                    "velocity": 0.3779527559055118,
                    "duration": 0.3272970000000015
                },
                {
                    "name": "G#3",
                    "midi": 56,
                    "time": 101.13477299999971,
                    "velocity": 0.33070866141732286,
                    "duration": 0.9818910000000045
                },
                {
                    "name": "D4",
                    "midi": 62,
                    "time": 101.13477299999971,
                    "velocity": 0.33070866141732286,
                    "duration": 0.9818910000000045
                },
                {
                    "name": "F4",
                    "midi": 65,
                    "time": 101.13477299999971,
                    "velocity": 0.41732283464566927,
                    "duration": 0.9818910000000045
                },
                {
                    "name": "A#3",
                    "midi": 58,
                    "time": 102.11666399999972,
                    "velocity": 0.3464566929133858,
                    "duration": 0.3272970000000015
                },
                {
                    "name": "D#4",
                    "midi": 63,
                    "time": 102.11666399999972,
                    "velocity": 0.3858267716535433,
                    "duration": 0.3272970000000015
                },
                {
                    "name": "D#4",
                    "midi": 63,
                    "time": 103.09855499999972,
                    "velocity": 0.5433070866141733,
                    "duration": 0.49094549999999515
                },
                {
                    "name": "G4",
                    "midi": 67,
                    "time": 103.09855499999972,
                    "velocity": 0.5433070866141733,
                    "duration": 0.49094549999999515
                },
                {
                    "name": "C5",
                    "midi": 72,
                    "time": 103.09855499999972,
                    "velocity": 0.6456692913385826,
                    "duration": 0.49094549999999515
                },
                {
                    "name": "G4",
                    "midi": 67,
                    "time": 103.67132474999971,
                    "velocity": 0.5511811023622047,
                    "duration": 0.08182424999999682
                },
                {
                    "name": "D#5",
                    "midi": 75,
                    "time": 103.75314899999971,
                    "velocity": 0.6141732283464567,
                    "duration": 0.24547275000000468
                },
                {
                    "name": "C5",
                    "midi": 72,
                    "time": 103.99862174999971,
                    "velocity": 0.5511811023622047,
                    "duration": 0.08182424999999682
                },
                {
                    "name": "G5",
                    "midi": 79,
                    "time": 104.08044599999971,
                    "velocity": 0.6220472440944882,
                    "duration": 0.24547275000000468
                },
                {
                    "name": "D#5",
                    "midi": 75,
                    "time": 104.32591874999972,
                    "velocity": 0.5511811023622047,
                    "duration": 0.08182424999999682
                },
                {
                    "name": "C6",
                    "midi": 84,
                    "time": 104.40774299999971,
                    "velocity": 0.6220472440944882,
                    "duration": 0.24547275000000468
                },
                {
                    "name": "G5",
                    "midi": 79,
                    "time": 104.65321574999972,
                    "velocity": 0.5511811023622047,
                    "duration": 0.08182424999999682
                },
                {
                    "name": "D#6",
                    "midi": 87,
                    "time": 104.73503999999971,
                    "velocity": 0.6614173228346457,
                    "duration": 0.08182424999999682
                },
                {
                    "name": "D#6",
                    "midi": 87,
                    "time": 105.06233699999972,
                    "velocity": 0.6614173228346457,
                    "duration": 0.08182424999999682
                },
                {
                    "name": "G4",
                    "midi": 67,
                    "time": 105.71693099999972,
                    "velocity": 0.30708661417322836,
                    "duration": 0.16364849999999365
                },
                {
                    "name": "C5",
                    "midi": 72,
                    "time": 105.71693099999972,
                    "velocity": 0.36220472440944884,
                    "duration": 0.16364849999999365
                },
                {
                    "name": "G4",
                    "midi": 67,
                    "time": 106.0442279999997,
                    "velocity": 0.33070866141732286,
                    "duration": 0.654594000000003
                },
                {
                    "name": "C5",
                    "midi": 72,
                    "time": 106.0442279999997,
                    "velocity": 0.3937007874015748,
                    "duration": 0.654594000000003
                },
                {
                    "name": "G4",
                    "midi": 67,
                    "time": 106.69882199999971,
                    "velocity": 0.30708661417322836,
                    "duration": 0.3204783125000006
                },
                {
                    "name": "B4",
                    "midi": 71,
                    "time": 106.70564068749971,
                    "velocity": 0.36220472440944884,
                    "duration": 0.3204783125000006
                },
                {
                    "name": "G#4",
                    "midi": 68,
                    "time": 107.02611899999971,
                    "velocity": 0.5433070866141733,
                    "duration": 0.49094549999999515
                },
                {
                    "name": "F4",
                    "midi": 65,
                    "time": 107.02611899999971,
                    "velocity": 0.5433070866141733,
                    "duration": 0.49094549999999515
                },
                {
                    "name": "B4",
                    "midi": 71,
                    "time": 107.02611899999971,
                    "velocity": 0.6456692913385826,
                    "duration": 0.49094549999999515
                },
                {
                    "name": "B4",
                    "midi": 71,
                    "time": 107.5988887499997,
                    "velocity": 0.5511811023622047,
                    "duration": 0.08182424999999682
                },
                {
                    "name": "F5",
                    "midi": 77,
                    "time": 107.6807129999997,
                    "velocity": 0.6141732283464567,
                    "duration": 0.24547275000000468
                },
                {
                    "name": "D5",
                    "midi": 74,
                    "time": 107.9261857499997,
                    "velocity": 0.5511811023622047,
                    "duration": 0.08182424999999682
                },
                {
                    "name": "B5",
                    "midi": 83,
                    "time": 108.0080099999997,
                    "velocity": 0.6220472440944882,
                    "duration": 0.24547275000000468
                },
                {
                    "name": "F5",
                    "midi": 77,
                    "time": 108.2534827499997,
                    "velocity": 0.5511811023622047,
                    "duration": 0.08182424999999682
                },
                {
                    "name": "D6",
                    "midi": 86,
                    "time": 108.3353069999997,
                    "velocity": 0.6220472440944882,
                    "duration": 0.24547275000000468
                },
                {
                    "name": "B5",
                    "midi": 83,
                    "time": 108.5807797499997,
                    "velocity": 0.5511811023622047,
                    "duration": 0.08182424999999682
                },
                {
                    "name": "F6",
                    "midi": 89,
                    "time": 108.6626039999997,
                    "velocity": 0.6614173228346457,
                    "duration": 0.08182424999999682
                },
                {
                    "name": "F6",
                    "midi": 89,
                    "time": 108.9899009999997,
                    "velocity": 0.6614173228346457,
                    "duration": 0.08182424999999682
                },
                {
                    "name": "B4",
                    "midi": 71,
                    "time": 109.64449499999971,
                    "velocity": 0.30708661417322836,
                    "duration": 0.16364849999999365
                },
                {
                    "name": "D5",
                    "midi": 74,
                    "time": 109.64449499999971,
                    "velocity": 0.36220472440944884,
                    "duration": 0.16364849999999365
                },
                {
                    "name": "B4",
                    "midi": 71,
                    "time": 109.9717919999997,
                    "velocity": 0.33070866141732286,
                    "duration": 0.654594000000003
                },
                {
                    "name": "D5",
                    "midi": 74,
                    "time": 109.9717919999997,
                    "velocity": 0.3937007874015748,
                    "duration": 0.654594000000003
                },
                {
                    "name": "C5",
                    "midi": 72,
                    "time": 110.6263859999997,
                    "velocity": 0.36220472440944884,
                    "duration": 0.24547275000000468
                },
                {
                    "name": "C5",
                    "midi": 72,
                    "time": 110.8718587499997,
                    "velocity": 0.3543307086614173,
                    "duration": 0.04091212500000552
                },
                {
                    "name": "D#5",
                    "midi": 75,
                    "time": 110.91277087499971,
                    "velocity": 0.3779527559055118,
                    "duration": 0.04091212500000552
                },
                {
                    "name": "G5",
                    "midi": 79,
                    "time": 110.95368299999971,
                    "velocity": 0.41732283464566927,
                    "duration": 0.49094549999999515
                },
                {
                    "name": "F5",
                    "midi": 77,
                    "time": 111.44462849999971,
                    "velocity": 0.3228346456692913,
                    "duration": 0.16364849999999365
                },
                {
                    "name": "D#5",
                    "midi": 75,
                    "time": 111.6082769999997,
                    "velocity": 0.4015748031496063,
                    "duration": 0.3272970000000015
                },
                {
                    "name": "D5",
                    "midi": 74,
                    "time": 111.9355739999997,
                    "velocity": 0.3700787401574803,
                    "duration": 0.654594000000003
                },
                {
                    "name": "C5",
                    "midi": 72,
                    "time": 112.59016799999971,
                    "velocity": 0.30708661417322836,
                    "duration": 0.24547275000000468
                },
                {
                    "name": "G4",
                    "midi": 67,
                    "time": 112.83564074999971,
                    "velocity": 0.2125984251968504,
                    "duration": 0.027274750000003678
                },
                {
                    "name": "C5",
                    "midi": 72,
                    "time": 112.86291549999972,
                    "velocity": 0.3543307086614173,
                    "duration": 0.027274750000003678
                },
                {
                    "name": "D#5",
                    "midi": 75,
                    "time": 112.89019024999972,
                    "velocity": 0.3779527559055118,
                    "duration": 0.027274750000003678
                },
                {
                    "name": "G5",
                    "midi": 79,
                    "time": 112.91746499999972,
                    "velocity": 0.41732283464566927,
                    "duration": 0.49094549999999515
                },
                {
                    "name": "F5",
                    "midi": 77,
                    "time": 113.40841049999972,
                    "velocity": 0.3228346456692913,
                    "duration": 0.16364849999999365
                },
                {
                    "name": "C5",
                    "midi": 72,
                    "time": 113.57205899999971,
                    "velocity": 0.33858267716535434,
                    "duration": 0.3272970000000015
                },
                {
                    "name": "D#5",
                    "midi": 75,
                    "time": 113.57205899999971,
                    "velocity": 0.4015748031496063,
                    "duration": 0.3272970000000015
                },
                {
                    "name": "B4",
                    "midi": 71,
                    "time": 113.89935599999971,
                    "velocity": 0.30708661417322836,
                    "duration": 0.654594000000003
                },
                {
                    "name": "D5",
                    "midi": 74,
                    "time": 113.89935599999971,
                    "velocity": 0.3700787401574803,
                    "duration": 0.654594000000003
                },
                {
                    "name": "C5",
                    "midi": 72,
                    "time": 114.55394999999972,
                    "velocity": 0.30708661417322836,
                    "duration": 0.24547275000000468
                },
                {
                    "name": "G4",
                    "midi": 67,
                    "time": 114.79942274999972,
                    "velocity": 0.47244094488188976,
                    "duration": 0.027274750000003678
                },
                {
                    "name": "C5",
                    "midi": 72,
                    "time": 114.82669749999972,
                    "velocity": 0.49606299212598426,
                    "duration": 0.027274750000003678
                },
                {
                    "name": "D#5",
                    "midi": 75,
                    "time": 114.85397224999973,
                    "velocity": 0.5433070866141733,
                    "duration": 0.027274750000003678
                },
                {
                    "name": "G4",
                    "midi": 67,
                    "time": 114.88124699999973,
                    "velocity": 0.5433070866141733,
                    "duration": 0.49094549999999515
                },
                {
                    "name": "G5",
                    "midi": 79,
                    "time": 114.88124699999973,
                    "velocity": 0.6377952755905512,
                    "duration": 0.49094549999999515
                },
                {
                    "name": "F5",
                    "midi": 77,
                    "time": 115.37219249999973,
                    "velocity": 0.48031496062992124,
                    "duration": 0.16364849999999365
                },
                {
                    "name": "F4",
                    "midi": 65,
                    "time": 115.37219249999973,
                    "velocity": 0.4015748031496063,
                    "duration": 0.16364849999999365
                },
                {
                    "name": "D#5",
                    "midi": 75,
                    "time": 115.53584099999972,
                    "velocity": 0.5748031496062992,
                    "duration": 0.654594000000003
                },
                {
                    "name": "D#4",
                    "midi": 63,
                    "time": 115.53584099999972,
                    "velocity": 0.4881889763779528,
                    "duration": 0.654594000000003
                },
                {
                    "name": "D5",
                    "midi": 74,
                    "time": 116.19043499999972,
                    "velocity": 0.5669291338582677,
                    "duration": 0.08182424999999682
                },
                {
                    "name": "D4",
                    "midi": 62,
                    "time": 116.19043499999972,
                    "velocity": 0.48031496062992124,
                    "duration": 0.08182424999999682
                },
                {
                    "name": "C5",
                    "midi": 72,
                    "time": 116.51773199999973,
                    "velocity": 0.5905511811023622,
                    "duration": 0.654594000000003
                },
                {
                    "name": "C4",
                    "midi": 60,
                    "time": 116.51773199999973,
                    "velocity": 0.49606299212598426,
                    "duration": 0.654594000000003
                },
                {
                    "name": "B3",
                    "midi": 59,
                    "time": 117.17232599999973,
                    "velocity": 0.49606299212598426,
                    "duration": 0.08182424999999682
                },
                {
                    "name": "B4",
                    "midi": 71,
                    "time": 117.17232599999973,
                    "velocity": 0.5905511811023622,
                    "duration": 0.08182424999999682
                },
                {
                    "name": "G#3",
                    "midi": 56,
                    "time": 117.49962299999973,
                    "velocity": 0.4881889763779528,
                    "duration": 0.654594000000003
                },
                {
                    "name": "G#4",
                    "midi": 68,
                    "time": 117.49962299999973,
                    "velocity": 0.5826771653543307,
                    "duration": 0.654594000000003
                },
                {
                    "name": "G3",
                    "midi": 55,
                    "time": 118.15421699999973,
                    "velocity": 0.4566929133858268,
                    "duration": 0.16364849999999365
                },
                {
                    "name": "G4",
                    "midi": 67,
                    "time": 118.15421699999973,
                    "velocity": 0.5354330708661418,
                    "duration": 0.16364849999999365
                },
                {
                    "name": "B3",
                    "midi": 59,
                    "time": 119.13610799999972,
                    "velocity": 0.33070866141732286,
                    "duration": 0.1090990000000005
                },
                {
                    "name": "D4",
                    "midi": 62,
                    "time": 119.24520699999972,
                    "velocity": 0.2755905511811024,
                    "duration": 0.1090990000000005
                },
                {
                    "name": "F4",
                    "midi": 65,
                    "time": 119.35430599999972,
                    "velocity": 0.2755905511811024,
                    "duration": 0.1090990000000005
                },
                {
                    "name": "G#4",
                    "midi": 68,
                    "time": 119.46340499999972,
                    "velocity": 0.33858267716535434,
                    "duration": 0.1090990000000005
                },
                {
                    "name": "G4",
                    "midi": 67,
                    "time": 119.57250399999973,
                    "velocity": 0.28346456692913385,
                    "duration": 0.1090990000000005
                },
                {
                    "name": "F4",
                    "midi": 65,
                    "time": 119.68160299999973,
                    "velocity": 0.28346456692913385,
                    "duration": 0.1090990000000005
                },
                {
                    "name": "D#4",
                    "midi": 63,
                    "time": 119.79070199999973,
                    "velocity": 0.33858267716535434,
                    "duration": 0.08182424999999682
                },
                {
                    "name": "F3",
                    "midi": 53,
                    "time": 121.09988999999972,
                    "velocity": 0.33070866141732286,
                    "duration": 0.1090990000000005
                },
                {
                    "name": "G#3",
                    "midi": 56,
                    "time": 121.20898899999972,
                    "velocity": 0.2755905511811024,
                    "duration": 0.1090990000000005
                },
                {
                    "name": "D4",
                    "midi": 62,
                    "time": 121.31808799999972,
                    "velocity": 0.2755905511811024,
                    "duration": 0.1090990000000005
                },
                {
                    "name": "F4",
                    "midi": 65,
                    "time": 121.42718699999972,
                    "velocity": 0.33858267716535434,
                    "duration": 0.1090990000000005
                },
                {
                    "name": "D#4",
                    "midi": 63,
                    "time": 121.53628599999972,
                    "velocity": 0.28346456692913385,
                    "duration": 0.1090990000000005
                },
                {
                    "name": "D4",
                    "midi": 62,
                    "time": 121.64538499999972,
                    "velocity": 0.28346456692913385,
                    "duration": 0.1090990000000005
                },
                {
                    "name": "C4",
                    "midi": 60,
                    "time": 121.75448399999972,
                    "velocity": 0.33858267716535434,
                    "duration": 0.08182424999999682
                },
                {
                    "name": "G3",
                    "midi": 55,
                    "time": 123.06367199999971,
                    "velocity": 0.5196850393700787,
                    "duration": 0.1090990000000005
                },
                {
                    "name": "B3",
                    "midi": 59,
                    "time": 123.17277099999971,
                    "velocity": 0.5433070866141733,
                    "duration": 0.1090990000000005
                },
                {
                    "name": "D4",
                    "midi": 62,
                    "time": 123.28186999999971,
                    "velocity": 0.5669291338582677,
                    "duration": 0.1090990000000005
                },
                {
                    "name": "F4",
                    "midi": 65,
                    "time": 123.39096899999971,
                    "velocity": 0.5905511811023622,
                    "duration": 0.1090990000000005
                },
                {
                    "name": "D4",
                    "midi": 62,
                    "time": 123.50006799999971,
                    "velocity": 0.5275590551181102,
                    "duration": 0.1090990000000005
                },
                {
                    "name": "B3",
                    "midi": 59,
                    "time": 123.60916699999972,
                    "velocity": 0.5275590551181102,
                    "duration": 0.1090990000000005
                },
                {
                    "name": "G3",
                    "midi": 55,
                    "time": 123.71826599999972,
                    "velocity": 0.6220472440944882,
                    "duration": 0.49094549999999515
                },
                {
                    "name": "D#3",
                    "midi": 51,
                    "time": 123.71826599999972,
                    "velocity": 0.6220472440944882,
                    "duration": 0.49094549999999515
                },
                {
                    "name": "C4",
                    "midi": 60,
                    "time": 123.71826599999972,
                    "velocity": 0.7401574803149606,
                    "duration": 0.49094549999999515
                },
                {
                    "name": "C4",
                    "midi": 60,
                    "time": 124.29103574999971,
                    "velocity": 0.5511811023622047,
                    "duration": 0.08182424999999682
                },
                {
                    "name": "G4",
                    "midi": 67,
                    "time": 124.3728599999997,
                    "velocity": 0.6141732283464567,
                    "duration": 0.24547275000000468
                },
                {
                    "name": "D#4",
                    "midi": 63,
                    "time": 124.61833274999971,
                    "velocity": 0.5511811023622047,
                    "duration": 0.08182424999999682
                },
                {
                    "name": "C5",
                    "midi": 72,
                    "time": 124.7001569999997,
                    "velocity": 0.6692913385826772,
                    "duration": 0.24547275000000468
                },
                {
                    "name": "G4",
                    "midi": 67,
                    "time": 124.94562974999971,
                    "velocity": 0.5669291338582677,
                    "duration": 0.08182424999999682
                },
                {
                    "name": "D#5",
                    "midi": 75,
                    "time": 125.02745399999971,
                    "velocity": 0.6299212598425197,
                    "duration": 0.24547275000000468
                },
                {
                    "name": "C5",
                    "midi": 72,
                    "time": 125.27292674999971,
                    "velocity": 0.6535433070866141,
                    "duration": 0.08182424999999682
                },
                {
                    "name": "G5",
                    "midi": 79,
                    "time": 125.35475099999971,
                    "velocity": 0.7559055118110236,
                    "duration": 0.08182424999999682
                },
                {
                    "name": "G4",
                    "midi": 67,
                    "time": 125.35475099999971,
                    "velocity": 0.6377952755905512,
                    "duration": 0.08182424999999682
                },
                {
                    "name": "G5",
                    "midi": 79,
                    "time": 125.68204799999971,
                    "velocity": 0.7559055118110236,
                    "duration": 0.08182424999999682
                },
                {
                    "name": "G4",
                    "midi": 67,
                    "time": 125.68204799999971,
                    "velocity": 0.6377952755905512,
                    "duration": 0.08182424999999682
                },
                {
                    "name": "B3",
                    "midi": 59,
                    "time": 126.2548177499997,
                    "velocity": 0.5511811023622047,
                    "duration": 0.08182424999999682
                },
                {
                    "name": "G4",
                    "midi": 67,
                    "time": 126.3366419999997,
                    "velocity": 0.6141732283464567,
                    "duration": 0.24547275000000468
                },
                {
                    "name": "D4",
                    "midi": 62,
                    "time": 126.5821147499997,
                    "velocity": 0.5511811023622047,
                    "duration": 0.08182424999999682
                },
                {
                    "name": "B4",
                    "midi": 71,
                    "time": 126.6639389999997,
                    "velocity": 0.6692913385826772,
                    "duration": 0.24547275000000468
                },
                {
                    "name": "G4",
                    "midi": 67,
                    "time": 126.9094117499997,
                    "velocity": 0.5826771653543307,
                    "duration": 0.08182424999999682
                },
                {
                    "name": "D5",
                    "midi": 74,
                    "time": 126.9912359999997,
                    "velocity": 0.6771653543307087,
                    "duration": 0.24547275000000468
                },
                {
                    "name": "B4",
                    "midi": 71,
                    "time": 127.2367087499997,
                    "velocity": 0.6535433070866141,
                    "duration": 0.08182424999999682
                },
                {
                    "name": "G5",
                    "midi": 79,
                    "time": 127.3185329999997,
                    "velocity": 0.7559055118110236,
                    "duration": 0.08182424999999682
                },
                {
                    "name": "G4",
                    "midi": 67,
                    "time": 127.3185329999997,
                    "velocity": 0.6377952755905512,
                    "duration": 0.08182424999999682
                },
                {
                    "name": "G5",
                    "midi": 79,
                    "time": 127.6458299999997,
                    "velocity": 0.7559055118110236,
                    "duration": 0.08182424999999682
                },
                {
                    "name": "G4",
                    "midi": 67,
                    "time": 127.6458299999997,
                    "velocity": 0.6377952755905512,
                    "duration": 0.08182424999999682
                },
                {
                    "name": "D#4",
                    "midi": 63,
                    "time": 128.2185997499997,
                    "velocity": 0.5511811023622047,
                    "duration": 0.08182425000001103
                },
                {
                    "name": "G4",
                    "midi": 67,
                    "time": 128.3004239999997,
                    "velocity": 0.6141732283464567,
                    "duration": 0.24547275000000468
                },
                {
                    "name": "D#4",
                    "midi": 63,
                    "time": 128.5458967499997,
                    "velocity": 0.5511811023622047,
                    "duration": 0.08182425000001103
                },
                {
                    "name": "C5",
                    "midi": 72,
                    "time": 128.62772099999972,
                    "velocity": 0.6692913385826772,
                    "duration": 0.24547275000000468
                },
                {
                    "name": "G4",
                    "midi": 67,
                    "time": 128.87319374999973,
                    "velocity": 0.5826771653543307,
                    "duration": 0.08182425000001103
                },
                {
                    "name": "D#5",
                    "midi": 75,
                    "time": 128.95501799999974,
                    "velocity": 0.6771653543307087,
                    "duration": 0.24547275000000468
                },
                {
                    "name": "C5",
                    "midi": 72,
                    "time": 129.20049074999974,
                    "velocity": 0.6535433070866141,
                    "duration": 0.08182425000001103
                },
                {
                    "name": "G5",
                    "midi": 79,
                    "time": 129.28231499999976,
                    "velocity": 0.7086614173228346,
                    "duration": 0.24547275000000468
                },
                {
                    "name": "D#5",
                    "midi": 75,
                    "time": 129.52778774999976,
                    "velocity": 0.6535433070866141,
                    "duration": 0.08182425000001103
                },
                {
                    "name": "D5",
                    "midi": 74,
                    "time": 129.60961199999977,
                    "velocity": 0.7559055118110236,
                    "duration": 0.08182425000001103
                },
                {
                    "name": "F6",
                    "midi": 89,
                    "time": 129.9369089999998,
                    "velocity": 0.7559055118110236,
                    "duration": 0.08182425000001103
                },
                {
                    "name": "B4",
                    "midi": 71,
                    "time": 130.5915029999998,
                    "velocity": 0.7559055118110236,
                    "duration": 0.08182425000001103
                },
                {
                    "name": "D6",
                    "midi": 86,
                    "time": 130.9187999999998,
                    "velocity": 0.7559055118110236,
                    "duration": 0.08182425000001103
                },
                {
                    "name": "C5",
                    "midi": 72,
                    "time": 131.5733939999998,
                    "velocity": 0.7559055118110236,
                    "duration": 0.08182425000001103
                },
                {
                    "name": "C6",
                    "midi": 84,
                    "time": 131.90069099999982,
                    "velocity": 0.7559055118110236,
                    "duration": 0.08182425000001103
                },
                {
                    "name": "G4",
                    "midi": 67,
                    "time": 134.84636399999982,
                    "velocity": 0.3937007874015748,
                    "duration": 0.6545939999999746
                },
                {
                    "name": "D#5",
                    "midi": 75,
                    "time": 135.1736609999998,
                    "velocity": 0.3543307086614173,
                    "duration": 0.3272969999999873
                },
                {
                    "name": "G#4",
                    "midi": 68,
                    "time": 135.5009579999998,
                    "velocity": 0.33070866141732286,
                    "duration": 0.9818909999999903
                },
                {
                    "name": "D#5",
                    "midi": 75,
                    "time": 135.5009579999998,
                    "velocity": 0.3937007874015748,
                    "duration": 0.654594000000003
                },
                {
                    "name": "D#5",
                    "midi": 75,
                    "time": 136.1555519999998,
                    "velocity": 0.3543307086614173,
                    "duration": 0.6545939999999746
                },
                {
                    "name": "G4",
                    "midi": 67,
                    "time": 136.4828489999998,
                    "velocity": 0.33070866141732286,
                    "duration": 0.9818909999999619
                },
                {
                    "name": "F5",
                    "midi": 77,
                    "time": 136.81014599999978,
                    "velocity": 0.3543307086614173,
                    "duration": 0.3272969999999873
                },
                {
                    "name": "C#5",
                    "midi": 73,
                    "time": 137.13744299999976,
                    "velocity": 0.3464566929133858,
                    "duration": 0.6545939999999746
                },
                {
                    "name": "G#4",
                    "midi": 68,
                    "time": 137.46473999999975,
                    "velocity": 0.33070866141732286,
                    "duration": 0.9818909999999619
                },
                {
                    "name": "B4",
                    "midi": 71,
                    "time": 137.79203699999974,
                    "velocity": 0.3543307086614173,
                    "duration": 0.3272969999999873
                },
                {
                    "name": "C5",
                    "midi": 72,
                    "time": 138.11933399999972,
                    "velocity": 0.3543307086614173,
                    "duration": 0.3272969999999873
                },
                {
                    "name": "E5",
                    "midi": 76,
                    "time": 138.7739279999997,
                    "velocity": 0.3937007874015748,
                    "duration": 0.6545939999999746
                },
                {
                    "name": "C6",
                    "midi": 84,
                    "time": 139.1012249999997,
                    "velocity": 0.3543307086614173,
                    "duration": 0.3272969999999873
                },
                {
                    "name": "F5",
                    "midi": 77,
                    "time": 139.42852199999967,
                    "velocity": 0.33070866141732286,
                    "duration": 0.9818909999999903
                },
                {
                    "name": "C6",
                    "midi": 84,
                    "time": 139.42852199999967,
                    "velocity": 0.3937007874015748,
                    "duration": 0.654594000000003
                },
                {
                    "name": "C6",
                    "midi": 84,
                    "time": 140.08311599999968,
                    "velocity": 0.3543307086614173,
                    "duration": 0.6545939999999746
                },
                {
                    "name": "E5",
                    "midi": 76,
                    "time": 140.41041299999966,
                    "velocity": 0.33070866141732286,
                    "duration": 0.9818909999999619
                },
                {
                    "name": "C#6",
                    "midi": 85,
                    "time": 140.73770999999965,
                    "velocity": 0.3543307086614173,
                    "duration": 0.3272969999999873
                },
                {
                    "name": "A#5",
                    "midi": 82,
                    "time": 141.06500699999964,
                    "velocity": 0.3464566929133858,
                    "duration": 0.6545939999999746
                },
                {
                    "name": "C5",
                    "midi": 72,
                    "time": 141.39230399999963,
                    "velocity": 0.33070866141732286,
                    "duration": 0.9818909999999619
                },
                {
                    "name": "G5",
                    "midi": 79,
                    "time": 141.7196009999996,
                    "velocity": 0.3543307086614173,
                    "duration": 0.3272969999999873
                },
                {
                    "name": "G#5",
                    "midi": 80,
                    "time": 142.0468979999996,
                    "velocity": 0.3543307086614173,
                    "duration": 0.3272969999999873
                },
                {
                    "name": "C5",
                    "midi": 72,
                    "time": 142.70149199999958,
                    "velocity": 0.3937007874015748,
                    "duration": 0.6545939999999746
                },
                {
                    "name": "G#5",
                    "midi": 80,
                    "time": 143.02878899999956,
                    "velocity": 0.3543307086614173,
                    "duration": 0.3272969999999873
                },
                {
                    "name": "C#5",
                    "midi": 73,
                    "time": 143.35608599999955,
                    "velocity": 0.33070866141732286,
                    "duration": 0.9818909999999903
                },
                {
                    "name": "G#5",
                    "midi": 80,
                    "time": 143.35608599999955,
                    "velocity": 0.3937007874015748,
                    "duration": 0.654594000000003
                },
                {
                    "name": "G#5",
                    "midi": 80,
                    "time": 144.01067999999955,
                    "velocity": 0.3543307086614173,
                    "duration": 0.6545939999999746
                },
                {
                    "name": "C5",
                    "midi": 72,
                    "time": 144.33797699999954,
                    "velocity": 0.33070866141732286,
                    "duration": 0.9818909999999619
                },
                {
                    "name": "A#5",
                    "midi": 82,
                    "time": 144.66527399999953,
                    "velocity": 0.3543307086614173,
                    "duration": 0.3272969999999873
                },
                {
                    "name": "F#5",
                    "midi": 78,
                    "time": 144.99257099999951,
                    "velocity": 0.3464566929133858,
                    "duration": 0.6545939999999746
                },
                {
                    "name": "G#4",
                    "midi": 68,
                    "time": 145.3198679999995,
                    "velocity": 0.3858267716535433,
                    "duration": 0.9818909999999619
                },
                {
                    "name": "E5",
                    "midi": 76,
                    "time": 145.6471649999995,
                    "velocity": 0.4094488188976378,
                    "duration": 0.3272969999999873
                },
                {
                    "name": "F5",
                    "midi": 77,
                    "time": 145.97446199999948,
                    "velocity": 0.4094488188976378,
                    "duration": 0.6545939999999746
                },
                {
                    "name": "A4",
                    "midi": 69,
                    "time": 146.30175899999946,
                    "velocity": 0.3937007874015748,
                    "duration": 0.9818909999999619
                },
                {
                    "name": "F#5",
                    "midi": 78,
                    "time": 146.62905599999945,
                    "velocity": 0.4330708661417323,
                    "duration": 0.3272969999999873
                },
                {
                    "name": "D#5",
                    "midi": 75,
                    "time": 146.95635299999944,
                    "velocity": 0.3937007874015748,
                    "duration": 0.6545939999999746
                },
                {
                    "name": "F4",
                    "midi": 65,
                    "time": 147.28364999999943,
                    "velocity": 0.33070866141732286,
                    "duration": 0.9818909999999619
                },
                {
                    "name": "D#5",
                    "midi": 75,
                    "time": 147.6109469999994,
                    "velocity": 0.3543307086614173,
                    "duration": 0.3272969999999873
                },
                {
                    "name": "D5",
                    "midi": 74,
                    "time": 147.9382439999994,
                    "velocity": 0.3543307086614173,
                    "duration": 0.6545939999999746
                },
                {
                    "name": "F#4",
                    "midi": 66,
                    "time": 148.2655409999994,
                    "velocity": 0.33070866141732286,
                    "duration": 0.6545939999999746
                },
                {
                    "name": "D#5",
                    "midi": 75,
                    "time": 148.59283799999938,
                    "velocity": 0.3543307086614173,
                    "duration": 0.3272969999999873
                },
                {
                    "name": "D#4",
                    "midi": 63,
                    "time": 148.92013499999936,
                    "velocity": 0.2204724409448819,
                    "duration": 0.3272969999999873
                },
                {
                    "name": "F#4",
                    "midi": 66,
                    "time": 148.92013499999936,
                    "velocity": 0.25984251968503935,
                    "duration": 0.3272969999999873
                },
                {
                    "name": "D4",
                    "midi": 62,
                    "time": 149.24743199999935,
                    "velocity": 0.25196850393700787,
                    "duration": 0.3272969999999873
                },
                {
                    "name": "F4",
                    "midi": 65,
                    "time": 149.24743199999935,
                    "velocity": 0.2992125984251969,
                    "duration": 0.3272969999999873
                },
                {
                    "name": "C5",
                    "midi": 72,
                    "time": 150.55661999999933,
                    "velocity": 0.2992125984251969,
                    "duration": 0.16364849999999365
                },
                {
                    "name": "C5",
                    "midi": 72,
                    "time": 150.88391699999931,
                    "velocity": 0.2992125984251969,
                    "duration": 0.16364849999999365
                },
                {
                    "name": "C5",
                    "midi": 72,
                    "time": 151.2112139999993,
                    "velocity": 0.36220472440944884,
                    "duration": 0.3272969999999873
                },
                {
                    "name": "A#4",
                    "midi": 70,
                    "time": 151.5385109999993,
                    "velocity": 0.2992125984251969,
                    "duration": 0.3272969999999873
                },
                {
                    "name": "G#4",
                    "midi": 68,
                    "time": 152.52040199999928,
                    "velocity": 0.2992125984251969,
                    "duration": 0.16364849999999365
                },
                {
                    "name": "G#4",
                    "midi": 68,
                    "time": 152.84769899999927,
                    "velocity": 0.2992125984251969,
                    "duration": 0.16364849999999365
                },
                {
                    "name": "G#4",
                    "midi": 68,
                    "time": 153.17499599999925,
                    "velocity": 0.33858267716535434,
                    "duration": 0.3272969999999873
                },
                {
                    "name": "G4",
                    "midi": 67,
                    "time": 153.50229299999924,
                    "velocity": 0.2992125984251969,
                    "duration": 0.3272969999999873
                },
                {
                    "name": "C5",
                    "midi": 72,
                    "time": 154.32053549999924,
                    "velocity": 0.29133858267716534,
                    "duration": 0.16364849999999365
                },
                {
                    "name": "B4",
                    "midi": 71,
                    "time": 154.48418399999923,
                    "velocity": 0.2992125984251969,
                    "duration": 0.16364849999999365
                },
                {
                    "name": "C5",
                    "midi": 72,
                    "time": 154.64783249999923,
                    "velocity": 0.2677165354330709,
                    "duration": 0.16364849999999365
                },
                {
                    "name": "D5",
                    "midi": 74,
                    "time": 154.81148099999922,
                    "velocity": 0.33858267716535434,
                    "duration": 0.16364849999999365
                },
                {
                    "name": "C5",
                    "midi": 72,
                    "time": 154.9751294999992,
                    "velocity": 0.2992125984251969,
                    "duration": 0.16364849999999365
                },
                {
                    "name": "A#4",
                    "midi": 70,
                    "time": 155.3024264999992,
                    "velocity": 0.28346456692913385,
                    "duration": 0.16364849999999365
                },
                {
                    "name": "A4",
                    "midi": 69,
                    "time": 155.4660749999992,
                    "velocity": 0.2992125984251969,
                    "duration": 0.16364849999999365
                },
                {
                    "name": "A#4",
                    "midi": 70,
                    "time": 155.6297234999992,
                    "velocity": 0.28346456692913385,
                    "duration": 0.16364849999999365
                },
                {
                    "name": "C5",
                    "midi": 72,
                    "time": 155.79337199999918,
                    "velocity": 0.3464566929133858,
                    "duration": 0.16364849999999365
                },
                {
                    "name": "A#4",
                    "midi": 70,
                    "time": 155.95702049999917,
                    "velocity": 0.2992125984251969,
                    "duration": 0.16364849999999365
                },
                {
                    "name": "G#4",
                    "midi": 68,
                    "time": 156.28431749999916,
                    "velocity": 0.28346456692913385,
                    "duration": 0.16364849999999365
                },
                {
                    "name": "G4",
                    "midi": 67,
                    "time": 156.44796599999916,
                    "velocity": 0.2992125984251969,
                    "duration": 0.16364849999999365
                },
                {
                    "name": "G#4",
                    "midi": 68,
                    "time": 156.61161449999915,
                    "velocity": 0.2755905511811024,
                    "duration": 0.16364849999999365
                },
                {
                    "name": "A#4",
                    "midi": 70,
                    "time": 156.77526299999914,
                    "velocity": 0.3464566929133858,
                    "duration": 0.16364849999999365
                },
                {
                    "name": "G#4",
                    "midi": 68,
                    "time": 156.93891149999914,
                    "velocity": 0.29133858267716534,
                    "duration": 0.16364849999999365
                },
                {
                    "name": "G4",
                    "midi": 67,
                    "time": 157.10255999999913,
                    "velocity": 0.36220472440944884,
                    "duration": 1.4728364999999997
                },
                {
                    "name": "A#4",
                    "midi": 70,
                    "time": 158.57539649999913,
                    "velocity": 0.4409448818897638,
                    "duration": 0.16364849999999365
                },
                {
                    "name": "D#5",
                    "midi": 75,
                    "time": 158.73904499999912,
                    "velocity": 0.4881889763779528,
                    "duration": 0.3204783125000006
                },
                {
                    "name": "D#5",
                    "midi": 75,
                    "time": 159.0663419999991,
                    "velocity": 0.49606299212598426,
                    "duration": 0.9818909999999903
                },
                {
                    "name": "D5",
                    "midi": 74,
                    "time": 160.0482329999991,
                    "velocity": 0.44881889763779526,
                    "duration": 0.3272969999999873
                },
                {
                    "name": "A#4",
                    "midi": 70,
                    "time": 161.0301239999991,
                    "velocity": 0.4015748031496063,
                    "duration": 0.9818909999999903
                },
                {
                    "name": "A#4",
                    "midi": 70,
                    "time": 162.01201499999908,
                    "velocity": 0.48031496062992124,
                    "duration": 0.16364849999999365
                },
                {
                    "name": "C5",
                    "midi": 72,
                    "time": 162.17566349999908,
                    "velocity": 0.44881889763779526,
                    "duration": 0.054549500000007356
                },
                {
                    "name": "A#4",
                    "midi": 70,
                    "time": 162.23021299999908,
                    "velocity": 0.4094488188976378,
                    "duration": 0.054549500000007356
                },
                {
                    "name": "A4",
                    "midi": 69,
                    "time": 162.2847624999991,
                    "velocity": 0.4094488188976378,
                    "duration": 0.054549500000007356
                },
                {
                    "name": "A#4",
                    "midi": 70,
                    "time": 162.3393119999991,
                    "velocity": 0.48031496062992124,
                    "duration": 0.16364849999999365
                },
                {
                    "name": "F5",
                    "midi": 77,
                    "time": 162.5029604999991,
                    "velocity": 0.5118110236220472,
                    "duration": 0.16364849999999365
                },
                {
                    "name": "G#5",
                    "midi": 80,
                    "time": 162.66660899999908,
                    "velocity": 0.5905511811023622,
                    "duration": 0.3272969999999873
                },
                {
                    "name": "G#5",
                    "midi": 80,
                    "time": 162.99390599999907,
                    "velocity": 0.6141732283464567,
                    "duration": 0.9818909999999903
                },
                {
                    "name": "G5",
                    "midi": 79,
                    "time": 163.97579699999906,
                    "velocity": 0.5433070866141733,
                    "duration": 0.3272969999999873
                },
                {
                    "name": "G4",
                    "midi": 67,
                    "time": 164.95768799999905,
                    "velocity": 0.4409448818897638,
                    "duration": 0.08182425000001103
                },
                {
                    "name": "G#4",
                    "midi": 68,
                    "time": 165.12133649999907,
                    "velocity": 0.4566929133858268,
                    "duration": 0.08182425000001103
                },
                {
                    "name": "A#4",
                    "midi": 70,
                    "time": 165.2849849999991,
                    "velocity": 0.47244094488188976,
                    "duration": 0.08182425000001103
                },
                {
                    "name": "C5",
                    "midi": 72,
                    "time": 165.44863349999912,
                    "velocity": 0.4881889763779528,
                    "duration": 0.08182425000001103
                },
                {
                    "name": "D5",
                    "midi": 74,
                    "time": 165.61228199999914,
                    "velocity": 0.5039370078740157,
                    "duration": 0.08182425000001103
                },
                {
                    "name": "D#5",
                    "midi": 75,
                    "time": 165.77593049999916,
                    "velocity": 0.5118110236220472,
                    "duration": 0.08182425000001103
                },
                {
                    "name": "F5",
                    "midi": 77,
                    "time": 165.93957899999918,
                    "velocity": 0.5354330708661418,
                    "duration": 0.08182425000001103
                },
                {
                    "name": "G5",
                    "midi": 79,
                    "time": 166.1032274999992,
                    "velocity": 0.5511811023622047,
                    "duration": 0.08182425000001103
                },
                {
                    "name": "G#5",
                    "midi": 80,
                    "time": 166.26687599999923,
                    "velocity": 0.5748031496062992,
                    "duration": 0.08182425000001103
                },
                {
                    "name": "A#5",
                    "midi": 82,
                    "time": 166.43052449999925,
                    "velocity": 0.5984251968503937,
                    "duration": 0.08182425000001103
                },
                {
                    "name": "C6",
                    "midi": 84,
                    "time": 166.59417299999927,
                    "velocity": 0.6220472440944882,
                    "duration": 0.08182425000001103
                },
                {
                    "name": "D6",
                    "midi": 86,
                    "time": 166.7578214999993,
                    "velocity": 0.6377952755905512,
                    "duration": 0.08182425000001103
                },
                {
                    "name": "D#6",
                    "midi": 87,
                    "time": 166.92146999999932,
                    "velocity": 0.6929133858267716,
                    "duration": 0.9818909999999903
                },
                {
                    "name": "D6",
                    "midi": 86,
                    "time": 167.9033609999993,
                    "velocity": 0.6377952755905512,
                    "duration": 0.3272969999999873
                },
                {
                    "name": "A#3",
                    "midi": 58,
                    "time": 168.8852519999993,
                    "velocity": 0.4409448818897638,
                    "duration": 0.08182425000001103
                },
                {
                    "name": "C4",
                    "midi": 60,
                    "time": 169.04890049999932,
                    "velocity": 0.4566929133858268,
                    "duration": 0.08182425000001103
                },
                {
                    "name": "D4",
                    "midi": 62,
                    "time": 169.21254899999934,
                    "velocity": 0.47244094488188976,
                    "duration": 0.08182425000001103
                },
                {
                    "name": "D#4",
                    "midi": 63,
                    "time": 169.37619749999936,
                    "velocity": 0.4881889763779528,
                    "duration": 0.08182425000001103
                },
                {
                    "name": "F4",
                    "midi": 65,
                    "time": 169.5398459999994,
                    "velocity": 0.5039370078740157,
                    "duration": 0.08182425000001103
                },
                {
                    "name": "G4",
                    "midi": 67,
                    "time": 169.7034944999994,
                    "velocity": 0.5118110236220472,
                    "duration": 0.08182425000001103
                },
                {
                    "name": "G#4",
                    "midi": 68,
                    "time": 169.86714299999943,
                    "velocity": 0.5275590551181102,
                    "duration": 0.08182425000001103
                },
                {
                    "name": "A#4",
                    "midi": 70,
                    "time": 170.03079149999945,
                    "velocity": 0.5511811023622047,
                    "duration": 0.08182425000001103
                },
                {
                    "name": "C5",
                    "midi": 72,
                    "time": 170.19443999999947,
                    "velocity": 0.5748031496062992,
                    "duration": 0.08182425000001103
                },
                {
                    "name": "D5",
                    "midi": 74,
                    "time": 170.3580884999995,
                    "velocity": 0.5984251968503937,
                    "duration": 0.08182425000001103
                },
                {
                    "name": "D#5",
                    "midi": 75,
                    "time": 170.52173699999952,
                    "velocity": 0.6220472440944882,
                    "duration": 0.08182425000001103
                },
                {
                    "name": "F5",
                    "midi": 77,
                    "time": 170.68538549999954,
                    "velocity": 0.6456692913385826,
                    "duration": 0.08182425000001103
                },
                {
                    "name": "G5",
                    "midi": 79,
                    "time": 170.84903399999956,
                    "velocity": 0.7007874015748031,
                    "duration": 0.9818909999999903
                },
                {
                    "name": "D#6",
                    "midi": 87,
                    "time": 171.83092499999955,
                    "velocity": 0.7874015748031497,
                    "duration": 0.654594000000003
                },
                {
                    "name": "G3",
                    "midi": 55,
                    "time": 172.48551899999956,
                    "velocity": 0.6062992125984252,
                    "duration": 0.3272969999999873
                },
                {
                    "name": "G#3",
                    "midi": 56,
                    "time": 172.81281599999954,
                    "velocity": 0.6456692913385826,
                    "duration": 0.9818909999999903
                },
                {
                    "name": "A3",
                    "midi": 57,
                    "time": 173.79470699999953,
                    "velocity": 0.6614173228346457,
                    "duration": 0.9818909999999903
                },
                {
                    "name": "A#3",
                    "midi": 58,
                    "time": 174.77659799999952,
                    "velocity": 0.6614173228346457,
                    "duration": 0.9818909999999903
                },
                {
                    "name": "G#3",
                    "midi": 56,
                    "time": 175.7584889999995,
                    "velocity": 0.6614173228346457,
                    "duration": 0.08182425000001103
                },
                {
                    "name": "A#3",
                    "midi": 58,
                    "time": 175.84031324999953,
                    "velocity": 0.44881889763779526,
                    "duration": 0.08182425000001103
                },
                {
                    "name": "G#3",
                    "midi": 56,
                    "time": 175.92213749999954,
                    "velocity": 0.48031496062992124,
                    "duration": 0.054549500000007356
                },
                {
                    "name": "A#3",
                    "midi": 58,
                    "time": 175.97668699999954,
                    "velocity": 0.44881889763779526,
                    "duration": 0.054549500000007356
                },
                {
                    "name": "G#3",
                    "midi": 56,
                    "time": 176.03123649999955,
                    "velocity": 0.5039370078740157,
                    "duration": 0.054549500000007356
                },
                {
                    "name": "A#3",
                    "midi": 58,
                    "time": 176.08578599999956,
                    "velocity": 0.4409448818897638,
                    "duration": 0.054549500000007356
                },
                {
                    "name": "G#3",
                    "midi": 56,
                    "time": 176.14033549999957,
                    "velocity": 0.5039370078740157,
                    "duration": 0.054549500000007356
                },
                {
                    "name": "A#3",
                    "midi": 58,
                    "time": 176.19488499999957,
                    "velocity": 0.4409448818897638,
                    "duration": 0.054549500000007356
                },
                {
                    "name": "G#3",
                    "midi": 56,
                    "time": 176.24943449999958,
                    "velocity": 0.5039370078740157,
                    "duration": 0.054549500000007356
                },
                {
                    "name": "A#3",
                    "midi": 58,
                    "time": 176.3039839999996,
                    "velocity": 0.4330708661417323,
                    "duration": 0.054549500000007356
                },
                {
                    "name": "G#3",
                    "midi": 56,
                    "time": 176.3585334999996,
                    "velocity": 0.5039370078740157,
                    "duration": 0.054549500000007356
                },
                {
                    "name": "A#3",
                    "midi": 58,
                    "time": 176.4130829999996,
                    "velocity": 0.4251968503937008,
                    "duration": 0.08182425000001103
                },
                {
                    "name": "G#3",
                    "midi": 56,
                    "time": 176.4949072499996,
                    "velocity": 0.4645669291338583,
                    "duration": 0.08182425000001103
                },
                {
                    "name": "G3",
                    "midi": 55,
                    "time": 176.57673149999962,
                    "velocity": 0.4330708661417323,
                    "duration": 0.08182425000001103
                },
                {
                    "name": "G#3",
                    "midi": 56,
                    "time": 176.65855574999964,
                    "velocity": 0.44881889763779526,
                    "duration": 0.08182425000001103
                },
                {
                    "name": "G3",
                    "midi": 55,
                    "time": 176.74037999999965,
                    "velocity": 0.5826771653543307,
                    "duration": 0.16364849999999365
                },
                {
                    "name": "A#3",
                    "midi": 58,
                    "time": 176.90402849999964,
                    "velocity": 0.47244094488188976,
                    "duration": 0.16364849999999365
                },
                {
                    "name": "D#4",
                    "midi": 63,
                    "time": 177.06767699999963,
                    "velocity": 0.5354330708661418,
                    "duration": 0.16364849999999365
                },
                {
                    "name": "A#3",
                    "midi": 58,
                    "time": 177.23132549999963,
                    "velocity": 0.48031496062992124,
                    "duration": 0.16364849999999365
                },
                {
                    "name": "D#4",
                    "midi": 63,
                    "time": 177.39497399999962,
                    "velocity": 0.5433070866141733,
                    "duration": 0.16364849999999365
                },
                {
                    "name": "G4",
                    "midi": 67,
                    "time": 177.55862249999961,
                    "velocity": 0.49606299212598426,
                    "duration": 0.16364849999999365
                },
                {
                    "name": "A#4",
                    "midi": 70,
                    "time": 177.7222709999996,
                    "velocity": 0.5433070866141733,
                    "duration": 0.16364849999999365
                },
                {
                    "name": "G4",
                    "midi": 67,
                    "time": 177.8859194999996,
                    "velocity": 0.47244094488188976,
                    "duration": 0.16364849999999365
                },
                {
                    "name": "A#4",
                    "midi": 70,
                    "time": 178.0495679999996,
                    "velocity": 0.5433070866141733,
                    "duration": 0.16364849999999365
                },
                {
                    "name": "D#5",
                    "midi": 75,
                    "time": 178.2132164999996,
                    "velocity": 0.4881889763779528,
                    "duration": 0.16364849999999365
                },
                {
                    "name": "G5",
                    "midi": 79,
                    "time": 178.37686499999958,
                    "velocity": 0.6141732283464567,
                    "duration": 0.16364849999999365
                },
                {
                    "name": "A#5",
                    "midi": 82,
                    "time": 178.54051349999958,
                    "velocity": 0.5748031496062992,
                    "duration": 0.16364849999999365
                },
                {
                    "name": "D#6",
                    "midi": 87,
                    "time": 178.70416199999957,
                    "velocity": 0.7007874015748031,
                    "duration": 0.16364849999999365
                },
                {
                    "name": "D#4",
                    "midi": 63,
                    "time": 179.35875599999957,
                    "velocity": 0.6614173228346457,
                    "duration": 0.9818909999999903
                },
                {
                    "name": "G3",
                    "midi": 55,
                    "time": 180.34064699999956,
                    "velocity": 0.6377952755905512,
                    "duration": 0.3272969999999873
                },
                {
                    "name": "G#3",
                    "midi": 56,
                    "time": 180.66794399999955,
                    "velocity": 0.6614173228346457,
                    "duration": 0.654594000000003
                },
                {
                    "name": "D#4",
                    "midi": 63,
                    "time": 181.32253799999955,
                    "velocity": 0.6614173228346457,
                    "duration": 0.3272969999999873
                },
                {
                    "name": "A3",
                    "midi": 57,
                    "time": 181.64983499999954,
                    "velocity": 0.7244094488188977,
                    "duration": 0.654594000000003
                },
                {
                    "name": "D#4",
                    "midi": 63,
                    "time": 182.30442899999954,
                    "velocity": 0.6614173228346457,
                    "duration": 0.3272969999999873
                },
                {
                    "name": "A#3",
                    "midi": 58,
                    "time": 182.63172599999953,
                    "velocity": 0.6062992125984252,
                    "duration": 0.16364849999999365
                },
                {
                    "name": "D#4",
                    "midi": 63,
                    "time": 182.79537449999953,
                    "velocity": 0.47244094488188976,
                    "duration": 0.16364849999999365
                },
                {
                    "name": "D4",
                    "midi": 62,
                    "time": 182.95902299999952,
                    "velocity": 0.5433070866141733,
                    "duration": 0.16364849999999365
                },
                {
                    "name": "D#4",
                    "midi": 63,
                    "time": 183.1226714999995,
                    "velocity": 0.4330708661417323,
                    "duration": 0.16364849999999365
                },
                {
                    "name": "B3",
                    "midi": 59,
                    "time": 183.2863199999995,
                    "velocity": 0.5354330708661418,
                    "duration": 0.16364849999999365
                },
                {
                    "name": "D#4",
                    "midi": 63,
                    "time": 183.4499684999995,
                    "velocity": 0.48031496062992124,
                    "duration": 0.16364849999999365
                },
                {
                    "name": "C4",
                    "midi": 60,
                    "time": 183.6136169999995,
                    "velocity": 0.6456692913385826,
                    "duration": 0.16364849999999365
                },
                {
                    "name": "D#4",
                    "midi": 63,
                    "time": 183.7772654999995,
                    "velocity": 0.49606299212598426,
                    "duration": 0.16364849999999365
                },
                {
                    "name": "D4",
                    "midi": 62,
                    "time": 183.94091399999948,
                    "velocity": 0.5511811023622047,
                    "duration": 0.16364849999999365
                },
                {
                    "name": "D#4",
                    "midi": 63,
                    "time": 184.10456249999947,
                    "velocity": 0.4881889763779528,
                    "duration": 0.16364849999999365
                },
                {
                    "name": "A3",
                    "midi": 57,
                    "time": 184.26821099999947,
                    "velocity": 0.5511811023622047,
                    "duration": 0.16364849999999365
                },
                {
                    "name": "D#4",
                    "midi": 63,
                    "time": 184.43185949999946,
                    "velocity": 0.48031496062992124,
                    "duration": 0.16364849999999365
                },
                {
                    "name": "A#3",
                    "midi": 58,
                    "time": 184.59550799999946,
                    "velocity": 0.6929133858267716,
                    "duration": 0.16364849999999365
                },
                {
                    "name": "D#4",
                    "midi": 63,
                    "time": 184.75915649999945,
                    "velocity": 0.5196850393700787,
                    "duration": 0.16364849999999365
                },
                {
                    "name": "C#4",
                    "midi": 61,
                    "time": 184.92280499999944,
                    "velocity": 0.5905511811023622,
                    "duration": 0.16364849999999365
                },
                {
                    "name": "D#4",
                    "midi": 63,
                    "time": 185.08645349999944,
                    "velocity": 0.4881889763779528,
                    "duration": 0.16364849999999365
                },
                {
                    "name": "B3",
                    "midi": 59,
                    "time": 185.25010199999943,
                    "velocity": 0.5826771653543307,
                    "duration": 0.16364849999999365
                },
                {
                    "name": "D#4",
                    "midi": 63,
                    "time": 185.41375049999942,
                    "velocity": 0.5118110236220472,
                    "duration": 0.16364849999999365
                },
                {
                    "name": "C4",
                    "midi": 60,
                    "time": 185.57739899999942,
                    "velocity": 0.6929133858267716,
                    "duration": 0.16364849999999365
                },
                {
                    "name": "D#4",
                    "midi": 63,
                    "time": 185.7410474999994,
                    "velocity": 0.5118110236220472,
                    "duration": 0.16364849999999365
                },
                {
                    "name": "D4",
                    "midi": 62,
                    "time": 185.9046959999994,
                    "velocity": 0.5590551181102362,
                    "duration": 0.16364849999999365
                },
                {
                    "name": "D#4",
                    "midi": 63,
                    "time": 186.0683444999994,
                    "velocity": 0.5118110236220472,
                    "duration": 0.16364849999999365
                },
                {
                    "name": "A3",
                    "midi": 57,
                    "time": 186.2319929999994,
                    "velocity": 0.6299212598425197,
                    "duration": 0.16364849999999365
                },
                {
                    "name": "D#4",
                    "midi": 63,
                    "time": 186.39564149999939,
                    "velocity": 0.5669291338582677,
                    "duration": 0.16364849999999365
                },
                {
                    "name": "A#3",
                    "midi": 58,
                    "time": 186.55928999999938,
                    "velocity": 0.7322834645669292,
                    "duration": 0.3272969999999873
                },
                {
                    "name": "D#4",
                    "midi": 63,
                    "time": 187.13205974999937,
                    "velocity": 0.6377952755905512,
                    "duration": 0.08182425000001103
                },
                {
                    "name": "A#4",
                    "midi": 70,
                    "time": 187.21388399999938,
                    "velocity": 0.6850393700787402,
                    "duration": 0.24547275000000468
                },
                {
                    "name": "G4",
                    "midi": 67,
                    "time": 187.4593567499994,
                    "velocity": 0.6614173228346457,
                    "duration": 0.08182425000001103
                },
                {
                    "name": "D#5",
                    "midi": 75,
                    "time": 187.5411809999994,
                    "velocity": 0.7322834645669292,
                    "duration": 0.08182425000001103
                },
                {
                    "name": "D#4",
                    "midi": 63,
                    "time": 188.11395074999942,
                    "velocity": 0.6377952755905512,
                    "duration": 0.08182425000001103
                },
                {
                    "name": "A4",
                    "midi": 69,
                    "time": 188.19577499999943,
                    "velocity": 0.6850393700787402,
                    "duration": 0.24547275000000468
                },
                {
                    "name": "F#4",
                    "midi": 66,
                    "time": 188.44124774999943,
                    "velocity": 0.6614173228346457,
                    "duration": 0.08182425000001103
                },
                {
                    "name": "D#5",
                    "midi": 75,
                    "time": 188.52307199999944,
                    "velocity": 0.7322834645669292,
                    "duration": 0.08182425000001103
                },
                {
                    "name": "D#4",
                    "midi": 63,
                    "time": 189.09584174999947,
                    "velocity": 0.6377952755905512,
                    "duration": 0.08182425000001103
                },
                {
                    "name": "A#4",
                    "midi": 70,
                    "time": 189.17766599999948,
                    "velocity": 0.6850393700787402,
                    "duration": 0.24547275000000468
                },
                {
                    "name": "G4",
                    "midi": 67,
                    "time": 189.42313874999948,
                    "velocity": 0.6614173228346457,
                    "duration": 0.08182425000001103
                },
                {
                    "name": "D#5",
                    "midi": 75,
                    "time": 189.5049629999995,
                    "velocity": 0.7322834645669292,
                    "duration": 0.08182425000001103
                },
                {
                    "name": "C5",
                    "midi": 72,
                    "time": 190.0777327499995,
                    "velocity": 0.6377952755905512,
                    "duration": 0.08182425000001103
                },
                {
                    "name": "F#5",
                    "midi": 78,
                    "time": 190.15955699999952,
                    "velocity": 0.6850393700787402,
                    "duration": 0.24547275000000468
                },
                {
                    "name": "D#5",
                    "midi": 75,
                    "time": 190.40502974999953,
                    "velocity": 0.6614173228346457,
                    "duration": 0.08182425000001103
                },
                {
                    "name": "G5",
                    "midi": 79,
                    "time": 190.48685399999954,
                    "velocity": 0.7480314960629921,
                    "duration": 0.49094550000000936
                },
                {
                    "name": "D#5",
                    "midi": 75,
                    "time": 190.97779949999955,
                    "velocity": 0.6692913385826772,
                    "duration": 0.16364849999999365
                },
                {
                    "name": "D#5",
                    "midi": 75,
                    "time": 191.14144799999954,
                    "velocity": 0.7322834645669292,
                    "duration": 0.16364849999999365
                },
                {
                    "name": "A#4",
                    "midi": 70,
                    "time": 191.30509649999954,
                    "velocity": 0.6220472440944882,
                    "duration": 0.12273637499998813
                },
                {
                    "name": "A#4",
                    "midi": 70,
                    "time": 191.46874499999953,
                    "velocity": 0.6929133858267716,
                    "duration": 0.16364849999999365
                },
                {
                    "name": "G4",
                    "midi": 67,
                    "time": 191.63239349999952,
                    "velocity": 0.6141732283464567,
                    "duration": 0.12273637499998813
                },
                {
                    "name": "G4",
                    "midi": 67,
                    "time": 191.79604199999952,
                    "velocity": 0.6692913385826772,
                    "duration": 0.16364849999999365
                },
                {
                    "name": "D#4",
                    "midi": 63,
                    "time": 191.9596904999995,
                    "velocity": 0.6062992125984252,
                    "duration": 0.12273637499998813
                },
                {
                    "name": "D#4",
                    "midi": 63,
                    "time": 192.1233389999995,
                    "velocity": 0.6377952755905512,
                    "duration": 0.16364849999999365
                },
                {
                    "name": "A#3",
                    "midi": 58,
                    "time": 192.2869874999995,
                    "velocity": 0.6062992125984252,
                    "duration": 0.12273637499998813
                },
                {
                    "name": "A#3",
                    "midi": 58,
                    "time": 194.08712099999948,
                    "velocity": 0.5196850393700787,
                    "duration": 0.3272969999999873
                },
                {
                    "name": "D4",
                    "midi": 62,
                    "time": 194.08712099999948,
                    "velocity": 0.6141732283464567,
                    "duration": 0.3272969999999873
                },
                {
                    "name": "A#3",
                    "midi": 58,
                    "time": 194.41441799999947,
                    "velocity": 0.5511811023622047,
                    "duration": 0.3272969999999873
                },
                {
                    "name": "D#4",
                    "midi": 63,
                    "time": 194.41441799999947,
                    "velocity": 0.6535433070866141,
                    "duration": 0.3272969999999873
                },
                {
                    "name": "A#4",
                    "midi": 70,
                    "time": 195.72360599999945,
                    "velocity": 0.41732283464566927,
                    "duration": 0.3272969999999873
                },
                {
                    "name": "F4",
                    "midi": 65,
                    "time": 195.72360599999945,
                    "velocity": 0.33070866141732286,
                    "duration": 0.3272969999999873
                },
                {
                    "name": "G#4",
                    "midi": 68,
                    "time": 195.72360599999945,
                    "velocity": 0.33070866141732286,
                    "duration": 0.3272969999999873
                },
                {
                    "name": "D4",
                    "midi": 62,
                    "time": 195.72360599999945,
                    "velocity": 0.33070866141732286,
                    "duration": 0.3272969999999873
                },
                {
                    "name": "D4",
                    "midi": 62,
                    "time": 196.05090299999944,
                    "velocity": 0.2992125984251969,
                    "duration": 0.3272969999999873
                },
                {
                    "name": "F4",
                    "midi": 65,
                    "time": 196.05090299999944,
                    "velocity": 0.2992125984251969,
                    "duration": 0.3272969999999873
                },
                {
                    "name": "G#4",
                    "midi": 68,
                    "time": 196.05090299999944,
                    "velocity": 0.2992125984251969,
                    "duration": 0.3272969999999873
                },
                {
                    "name": "A#4",
                    "midi": 70,
                    "time": 196.05090299999944,
                    "velocity": 0.3779527559055118,
                    "duration": 0.3272969999999873
                },
                {
                    "name": "D#4",
                    "midi": 63,
                    "time": 196.37819999999942,
                    "velocity": 0.33070866141732286,
                    "duration": 0.6545939999999746
                },
                {
                    "name": "G4",
                    "midi": 67,
                    "time": 196.37819999999942,
                    "velocity": 0.33070866141732286,
                    "duration": 0.6545939999999746
                },
                {
                    "name": "C5",
                    "midi": 72,
                    "time": 196.37819999999942,
                    "velocity": 0.41732283464566927,
                    "duration": 0.3272969999999873
                },
                {
                    "name": "A#4",
                    "midi": 70,
                    "time": 196.7054969999994,
                    "velocity": 0.3858267716535433,
                    "duration": 0.3272969999999873
                },
                {
                    "name": "F4",
                    "midi": 65,
                    "time": 197.6873879999994,
                    "velocity": 0.33070866141732286,
                    "duration": 0.3272969999999873
                },
                {
                    "name": "G#4",
                    "midi": 68,
                    "time": 197.6873879999994,
                    "velocity": 0.33070866141732286,
                    "duration": 0.3272969999999873
                },
                {
                    "name": "D5",
                    "midi": 74,
                    "time": 197.6873879999994,
                    "velocity": 0.41732283464566927,
                    "duration": 0.3272969999999873
                },
                {
                    "name": "F4",
                    "midi": 65,
                    "time": 198.0146849999994,
                    "velocity": 0.2992125984251969,
                    "duration": 0.3272969999999873
                },
                {
                    "name": "G#4",
                    "midi": 68,
                    "time": 198.0146849999994,
                    "velocity": 0.2992125984251969,
                    "duration": 0.3272969999999873
                },
                {
                    "name": "D5",
                    "midi": 74,
                    "time": 198.0146849999994,
                    "velocity": 0.3779527559055118,
                    "duration": 0.3272969999999873
                },
                {
                    "name": "G4",
                    "midi": 67,
                    "time": 198.34198199999938,
                    "velocity": 0.33070866141732286,
                    "duration": 0.6545939999999746
                },
                {
                    "name": "A#4",
                    "midi": 70,
                    "time": 198.34198199999938,
                    "velocity": 0.33070866141732286,
                    "duration": 0.6545939999999746
                },
                {
                    "name": "F5",
                    "midi": 77,
                    "time": 198.34198199999938,
                    "velocity": 0.41732283464566927,
                    "duration": 0.3272969999999873
                },
                {
                    "name": "D#5",
                    "midi": 75,
                    "time": 198.66927899999936,
                    "velocity": 0.3858267716535433,
                    "duration": 0.3272969999999873
                },
                {
                    "name": "D4",
                    "midi": 62,
                    "time": 199.65116999999935,
                    "velocity": 0.33070866141732286,
                    "duration": 0.3272969999999873
                },
                {
                    "name": "F4",
                    "midi": 65,
                    "time": 199.65116999999935,
                    "velocity": 0.33070866141732286,
                    "duration": 0.3272969999999873
                },
                {
                    "name": "G#4",
                    "midi": 68,
                    "time": 199.65116999999935,
                    "velocity": 0.33070866141732286,
                    "duration": 0.3272969999999873
                },
                {
                    "name": "A#4",
                    "midi": 70,
                    "time": 199.65116999999935,
                    "velocity": 0.41732283464566927,
                    "duration": 0.3272969999999873
                },
                {
                    "name": "A#4",
                    "midi": 70,
                    "time": 199.97846699999934,
                    "velocity": 0.3779527559055118,
                    "duration": 0.3272969999999873
                },
                {
                    "name": "F4",
                    "midi": 65,
                    "time": 199.97846699999934,
                    "velocity": 0.2992125984251969,
                    "duration": 0.3272969999999873
                },
                {
                    "name": "G#4",
                    "midi": 68,
                    "time": 199.97846699999934,
                    "velocity": 0.2992125984251969,
                    "duration": 0.3272969999999873
                },
                {
                    "name": "D4",
                    "midi": 62,
                    "time": 199.97846699999934,
                    "velocity": 0.2992125984251969,
                    "duration": 0.3272969999999873
                },
                {
                    "name": "D#4",
                    "midi": 63,
                    "time": 200.30576399999933,
                    "velocity": 0.33070866141732286,
                    "duration": 0.6545939999999746
                },
                {
                    "name": "G4",
                    "midi": 67,
                    "time": 200.30576399999933,
                    "velocity": 0.33070866141732286,
                    "duration": 0.6545939999999746
                },
                {
                    "name": "C5",
                    "midi": 72,
                    "time": 200.30576399999933,
                    "velocity": 0.41732283464566927,
                    "duration": 0.3272969999999873
                },
                {
                    "name": "A#4",
                    "midi": 70,
                    "time": 200.63306099999932,
                    "velocity": 0.3858267716535433,
                    "duration": 0.3272969999999873
                },
                {
                    "name": "F3",
                    "midi": 53,
                    "time": 201.6149519999993,
                    "velocity": 0.33070866141732286,
                    "duration": 0.3272969999999873
                },
                {
                    "name": "G#3",
                    "midi": 56,
                    "time": 201.6149519999993,
                    "velocity": 0.33070866141732286,
                    "duration": 0.3272969999999873
                },
                {
                    "name": "D4",
                    "midi": 62,
                    "time": 201.6149519999993,
                    "velocity": 0.41732283464566927,
                    "duration": 0.3272969999999873
                },
                {
                    "name": "F3",
                    "midi": 53,
                    "time": 201.9422489999993,
                    "velocity": 0.2992125984251969,
                    "duration": 0.3272969999999873
                },
                {
                    "name": "G#3",
                    "midi": 56,
                    "time": 201.9422489999993,
                    "velocity": 0.2992125984251969,
                    "duration": 0.3272969999999873
                },
                {
                    "name": "D4",
                    "midi": 62,
                    "time": 201.9422489999993,
                    "velocity": 0.3779527559055118,
                    "duration": 0.3272969999999873
                },
                {
                    "name": "G3",
                    "midi": 55,
                    "time": 202.26954599999928,
                    "velocity": 0.33070866141732286,
                    "duration": 0.6545939999999746
                },
                {
                    "name": "A#3",
                    "midi": 58,
                    "time": 202.26954599999928,
                    "velocity": 0.33070866141732286,
                    "duration": 0.6545939999999746
                },
                {
                    "name": "F4",
                    "midi": 65,
                    "time": 202.26954599999928,
                    "velocity": 0.41732283464566927,
                    "duration": 0.3272969999999873
                },
                {
                    "name": "D#4",
                    "midi": 63,
                    "time": 202.59684299999927,
                    "velocity": 0.3858267716535433,
                    "duration": 0.3272969999999873
                },
                {
                    "name": "F3",
                    "midi": 53,
                    "time": 203.57873399999926,
                    "velocity": 0.33070866141732286,
                    "duration": 0.3272969999999873
                },
                {
                    "name": "G#3",
                    "midi": 56,
                    "time": 203.57873399999926,
                    "velocity": 0.33070866141732286,
                    "duration": 0.3272969999999873
                },
                {
                    "name": "D4",
                    "midi": 62,
                    "time": 203.57873399999926,
                    "velocity": 0.41732283464566927,
                    "duration": 0.3272969999999873
                },
                {
                    "name": "F3",
                    "midi": 53,
                    "time": 203.90603099999925,
                    "velocity": 0.2992125984251969,
                    "duration": 0.3272969999999873
                },
                {
                    "name": "G#3",
                    "midi": 56,
                    "time": 203.90603099999925,
                    "velocity": 0.2992125984251969,
                    "duration": 0.3272969999999873
                },
                {
                    "name": "D4",
                    "midi": 62,
                    "time": 203.90603099999925,
                    "velocity": 0.3779527559055118,
                    "duration": 0.3272969999999873
                },
                {
                    "name": "G#3",
                    "midi": 56,
                    "time": 204.23332799999923,
                    "velocity": 0.33070866141732286,
                    "duration": 0.9818909999999903
                },
                {
                    "name": "D4",
                    "midi": 62,
                    "time": 204.23332799999923,
                    "velocity": 0.33070866141732286,
                    "duration": 0.9818909999999903
                },
                {
                    "name": "F4",
                    "midi": 65,
                    "time": 204.23332799999923,
                    "velocity": 0.41732283464566927,
                    "duration": 0.9818909999999903
                },
                {
                    "name": "A#3",
                    "midi": 58,
                    "time": 205.21521899999922,
                    "velocity": 0.3464566929133858,
                    "duration": 0.3272969999999873
                },
                {
                    "name": "D#4",
                    "midi": 63,
                    "time": 205.21521899999922,
                    "velocity": 0.3858267716535433,
                    "duration": 0.3272969999999873
                },
                {
                    "name": "E4",
                    "midi": 64,
                    "time": 206.1971099999992,
                    "velocity": 0.5433070866141733,
                    "duration": 0.49094550000000936
                },
                {
                    "name": "G4",
                    "midi": 67,
                    "time": 206.1971099999992,
                    "velocity": 0.5433070866141733,
                    "duration": 0.49094550000000936
                },
                {
                    "name": "C5",
                    "midi": 72,
                    "time": 206.1971099999992,
                    "velocity": 0.6456692913385826,
                    "duration": 0.49094550000000936
                },
                {
                    "name": "G4",
                    "midi": 67,
                    "time": 206.76987974999923,
                    "velocity": 0.5511811023622047,
                    "duration": 0.08182425000001103
                },
                {
                    "name": "E5",
                    "midi": 76,
                    "time": 206.85170399999924,
                    "velocity": 0.6141732283464567,
                    "duration": 0.24547275000000468
                },
                {
                    "name": "C5",
                    "midi": 72,
                    "time": 207.09717674999925,
                    "velocity": 0.5511811023622047,
                    "duration": 0.08182425000001103
                },
                {
                    "name": "G5",
                    "midi": 79,
                    "time": 207.17900099999926,
                    "velocity": 0.6220472440944882,
                    "duration": 0.24547275000000468
                },
                {
                    "name": "E5",
                    "midi": 76,
                    "time": 207.42447374999927,
                    "velocity": 0.5511811023622047,
                    "duration": 0.08182425000001103
                },
                {
                    "name": "C6",
                    "midi": 84,
                    "time": 207.50629799999928,
                    "velocity": 0.6220472440944882,
                    "duration": 0.24547275000000468
                },
                {
                    "name": "G5",
                    "midi": 79,
                    "time": 207.75177074999928,
                    "velocity": 0.5511811023622047,
                    "duration": 0.08182425000001103
                },
                {
                    "name": "E6",
                    "midi": 88,
                    "time": 207.8335949999993,
                    "velocity": 0.6614173228346457,
                    "duration": 0.08182425000001103
                },
                {
                    "name": "E6",
                    "midi": 88,
                    "time": 208.1608919999993,
                    "velocity": 0.6614173228346457,
                    "duration": 0.08182425000001103
                },
                {
                    "name": "C5",
                    "midi": 72,
                    "time": 208.8154859999993,
                    "velocity": 0.30708661417322836,
                    "duration": 0.16364849999999365
                },
                {
                    "name": "E5",
                    "midi": 76,
                    "time": 208.8154859999993,
                    "velocity": 0.36220472440944884,
                    "duration": 0.16364849999999365
                },
                {
                    "name": "C5",
                    "midi": 72,
                    "time": 209.1427829999993,
                    "velocity": 0.33070866141732286,
                    "duration": 0.654594000000003
                },
                {
                    "name": "E5",
                    "midi": 76,
                    "time": 209.1427829999993,
                    "velocity": 0.3937007874015748,
                    "duration": 0.654594000000003
                },
                {
                    "name": "D5",
                    "midi": 74,
                    "time": 209.7973769999993,
                    "velocity": 0.36220472440944884,
                    "duration": 0.3204783125000006
                },
                {
                    "name": "B4",
                    "midi": 71,
                    "time": 209.7973769999993,
                    "velocity": 0.30708661417322836,
                    "duration": 0.3204783125000006
                },
                {
                    "name": "B4",
                    "midi": 71,
                    "time": 210.1246739999993,
                    "velocity": 0.33070866141732286,
                    "duration": 0.49094550000000936
                },
                {
                    "name": "D5",
                    "midi": 74,
                    "time": 210.1246739999993,
                    "velocity": 0.3937007874015748,
                    "duration": 0.49094550000000936
                },
                {
                    "name": "B4",
                    "midi": 71,
                    "time": 210.6974437499993,
                    "velocity": 0.5511811023622047,
                    "duration": 0.08182425000001103
                },
                {
                    "name": "F5",
                    "midi": 77,
                    "time": 210.77926799999932,
                    "velocity": 0.6141732283464567,
                    "duration": 0.24547275000000468
                },
                {
                    "name": "D5",
                    "midi": 74,
                    "time": 211.02474074999932,
                    "velocity": 0.5511811023622047,
                    "duration": 0.08182425000001103
                },
                {
                    "name": "B5",
                    "midi": 83,
                    "time": 211.10656499999934,
                    "velocity": 0.6220472440944882,
                    "duration": 0.24547275000000468
                },
                {
                    "name": "F5",
                    "midi": 77,
                    "time": 211.35203774999934,
                    "velocity": 0.5511811023622047,
                    "duration": 0.08182425000001103
                },
                {
                    "name": "D6",
                    "midi": 86,
                    "time": 211.43386199999935,
                    "velocity": 0.6220472440944882,
                    "duration": 0.24547275000000468
                },
                {
                    "name": "B5",
                    "midi": 83,
                    "time": 211.67933474999936,
                    "velocity": 0.5511811023622047,
                    "duration": 0.08182425000001103
                },
                {
                    "name": "F6",
                    "midi": 89,
                    "time": 211.76115899999937,
                    "velocity": 0.6614173228346457,
                    "duration": 0.08182425000001103
                },
                {
                    "name": "F6",
                    "midi": 89,
                    "time": 212.08845599999938,
                    "velocity": 0.6614173228346457,
                    "duration": 0.08182425000001103
                },
                {
                    "name": "D5",
                    "midi": 74,
                    "time": 212.74304999999939,
                    "velocity": 0.30708661417322836,
                    "duration": 0.16364849999999365
                },
                {
                    "name": "F5",
                    "midi": 77,
                    "time": 212.74304999999939,
                    "velocity": 0.36220472440944884,
                    "duration": 0.16364849999999365
                },
                {
                    "name": "D5",
                    "midi": 74,
                    "time": 213.07034699999937,
                    "velocity": 0.33070866141732286,
                    "duration": 0.654594000000003
                },
                {
                    "name": "F5",
                    "midi": 77,
                    "time": 213.07034699999937,
                    "velocity": 0.3937007874015748,
                    "duration": 0.654594000000003
                },
                {
                    "name": "E5",
                    "midi": 76,
                    "time": 213.72494099999938,
                    "velocity": 0.36220472440944884,
                    "duration": 0.3204783125000006
                },
                {
                    "name": "C#5",
                    "midi": 73,
                    "time": 213.72494099999938,
                    "velocity": 0.30708661417322836,
                    "duration": 0.3204783125000006
                },
                {
                    "name": "C#5",
                    "midi": 73,
                    "time": 214.05223799999936,
                    "velocity": 0.33070866141732286,
                    "duration": 0.49094550000000936
                },
                {
                    "name": "E5",
                    "midi": 76,
                    "time": 214.05223799999936,
                    "velocity": 0.3937007874015748,
                    "duration": 0.49094550000000936
                },
                {
                    "name": "A#4",
                    "midi": 70,
                    "time": 214.62500774999938,
                    "velocity": 0.5511811023622047,
                    "duration": 0.08182425000001103
                },
                {
                    "name": "E5",
                    "midi": 76,
                    "time": 214.7068319999994,
                    "velocity": 0.6141732283464567,
                    "duration": 0.24547275000000468
                },
                {
                    "name": "C#5",
                    "midi": 73,
                    "time": 214.9523047499994,
                    "velocity": 0.5511811023622047,
                    "duration": 0.08182425000001103
                },
                {
                    "name": "G5",
                    "midi": 79,
                    "time": 215.0341289999994,
                    "velocity": 0.6614173228346457,
                    "duration": 0.24547275000000468
                },
                {
                    "name": "E5",
                    "midi": 76,
                    "time": 215.27960174999942,
                    "velocity": 0.5511811023622047,
                    "duration": 0.08182425000001103
                },
                {
                    "name": "A#5",
                    "midi": 82,
                    "time": 215.36142599999943,
                    "velocity": 0.6692913385826772,
                    "duration": 0.24547275000000468
                },
                {
                    "name": "G5",
                    "midi": 79,
                    "time": 215.60689874999943,
                    "velocity": 0.5511811023622047,
                    "duration": 0.08182425000001103
                },
                {
                    "name": "C#6",
                    "midi": 85,
                    "time": 215.68872299999944,
                    "velocity": 0.7007874015748031,
                    "duration": 0.08182425000001103
                },
                {
                    "name": "G4",
                    "midi": 67,
                    "time": 216.01601999999946,
                    "velocity": 0.6850393700787402,
                    "duration": 0.08182425000001103
                },
                {
                    "name": "A#5",
                    "midi": 82,
                    "time": 216.34331699999947,
                    "velocity": 0.6771653543307087,
                    "duration": 0.08182425000001103
                },
                {
                    "name": "E4",
                    "midi": 64,
                    "time": 216.99791099999948,
                    "velocity": 0.6692913385826772,
                    "duration": 0.08182425000001103
                },
                {
                    "name": "G5",
                    "midi": 79,
                    "time": 217.3252079999995,
                    "velocity": 0.6220472440944882,
                    "duration": 0.08182425000001103
                },
                {
                    "name": "F4",
                    "midi": 65,
                    "time": 217.9798019999995,
                    "velocity": 0.33070866141732286,
                    "duration": 0.9818909999999903
                },
                {
                    "name": "F5",
                    "midi": 77,
                    "time": 217.9798019999995,
                    "velocity": 0.3937007874015748,
                    "duration": 0.9818909999999903
                },
                {
                    "name": "C6",
                    "midi": 84,
                    "time": 218.96169299999949,
                    "velocity": 0.41732283464566927,
                    "duration": 0.6477753124999879
                },
                {
                    "name": "C5",
                    "midi": 72,
                    "time": 218.96169299999949,
                    "velocity": 0.3543307086614173,
                    "duration": 0.6477753124999879
                },
                {
                    "name": "C6",
                    "midi": 84,
                    "time": 219.61628699999946,
                    "velocity": 0.3937007874015748,
                    "duration": 0.3204783125000006
                },
                {
                    "name": "C5",
                    "midi": 72,
                    "time": 219.61628699999946,
                    "velocity": 0.33070866141732286,
                    "duration": 0.3204783125000006
                },
                {
                    "name": "C6",
                    "midi": 84,
                    "time": 219.94358399999945,
                    "velocity": 0.4251968503937008,
                    "duration": 0.3272969999999873
                },
                {
                    "name": "C5",
                    "midi": 72,
                    "time": 219.94358399999945,
                    "velocity": 0.3543307086614173,
                    "duration": 0.3272969999999873
                },
                {
                    "name": "B5",
                    "midi": 83,
                    "time": 220.27088099999943,
                    "velocity": 0.3937007874015748,
                    "duration": 0.3272969999999873
                },
                {
                    "name": "B4",
                    "midi": 71,
                    "time": 220.27088099999943,
                    "velocity": 0.33070866141732286,
                    "duration": 0.3272969999999873
                },
                {
                    "name": "C#6",
                    "midi": 85,
                    "time": 220.59817799999942,
                    "velocity": 0.3937007874015748,
                    "duration": 0.3272969999999873
                },
                {
                    "name": "C#5",
                    "midi": 73,
                    "time": 220.59817799999942,
                    "velocity": 0.33070866141732286,
                    "duration": 0.3272969999999873
                },
                {
                    "name": "C5",
                    "midi": 72,
                    "time": 220.9254749999994,
                    "velocity": 0.33070866141732286,
                    "duration": 0.3272969999999873
                },
                {
                    "name": "C6",
                    "midi": 84,
                    "time": 220.9254749999994,
                    "velocity": 0.3937007874015748,
                    "duration": 0.3272969999999873
                },
                {
                    "name": "A#5",
                    "midi": 82,
                    "time": 221.2527719999994,
                    "velocity": 0.3937007874015748,
                    "duration": 0.3272969999999873
                },
                {
                    "name": "A#4",
                    "midi": 70,
                    "time": 221.2527719999994,
                    "velocity": 0.33070866141732286,
                    "duration": 0.3272969999999873
                },
                {
                    "name": "G5",
                    "midi": 79,
                    "time": 221.58006899999938,
                    "velocity": 0.3937007874015748,
                    "duration": 0.3272969999999873
                },
                {
                    "name": "G4",
                    "midi": 67,
                    "time": 221.58006899999938,
                    "velocity": 0.33070866141732286,
                    "duration": 0.3272969999999873
                },
                {
                    "name": "E5",
                    "midi": 76,
                    "time": 221.90736599999937,
                    "velocity": 0.4409448818897638,
                    "duration": 0.654594000000003
                },
                {
                    "name": "E4",
                    "midi": 64,
                    "time": 221.90736599999937,
                    "velocity": 0.3700787401574803,
                    "duration": 0.654594000000003
                },
                {
                    "name": "G4",
                    "midi": 67,
                    "time": 222.56195999999937,
                    "velocity": 0.3937007874015748,
                    "duration": 0.3272969999999873
                },
                {
                    "name": "G5",
                    "midi": 79,
                    "time": 222.56195999999937,
                    "velocity": 0.4645669291338583,
                    "duration": 0.3272969999999873
                },
                {
                    "name": "C6",
                    "midi": 84,
                    "time": 222.88925699999936,
                    "velocity": 0.5118110236220472,
                    "duration": 0.654594000000003
                },
                {
                    "name": "C5",
                    "midi": 72,
                    "time": 222.88925699999936,
                    "velocity": 0.4330708661417323,
                    "duration": 0.654594000000003
                },
                {
                    "name": "G5",
                    "midi": 79,
                    "time": 223.54385099999936,
                    "velocity": 0.4645669291338583,
                    "duration": 0.3272969999999873
                },
                {
                    "name": "G4",
                    "midi": 67,
                    "time": 223.54385099999936,
                    "velocity": 0.3937007874015748,
                    "duration": 0.3272969999999873
                },
                {
                    "name": "A#4",
                    "midi": 70,
                    "time": 223.87114799999935,
                    "velocity": 0.4251968503937008,
                    "duration": 0.9818909999999903
                },
                {
                    "name": "A#5",
                    "midi": 82,
                    "time": 223.87114799999935,
                    "velocity": 0.5039370078740157,
                    "duration": 0.9818909999999903
                },
                {
                    "name": "G#5",
                    "midi": 80,
                    "time": 224.85303899999934,
                    "velocity": 0.4566929133858268,
                    "duration": 0.3272969999999873
                },
                {
                    "name": "G#4",
                    "midi": 68,
                    "time": 224.85303899999934,
                    "velocity": 0.3858267716535433,
                    "duration": 0.3272969999999873
                },
                {
                    "name": "A4",
                    "midi": 69,
                    "time": 225.50763299999932,
                    "velocity": 0.3779527559055118,
                    "duration": 0.3272969999999873
                },
                {
                    "name": "A5",
                    "midi": 81,
                    "time": 225.50763299999932,
                    "velocity": 0.44881889763779526,
                    "duration": 0.3272969999999873
                },
                {
                    "name": "A#4",
                    "midi": 70,
                    "time": 225.8349299999993,
                    "velocity": 0.4094488188976378,
                    "duration": 0.9818909999999903
                },
                {
                    "name": "A#5",
                    "midi": 82,
                    "time": 225.8349299999993,
                    "velocity": 0.4881889763779528,
                    "duration": 0.9818909999999903
                },
                {
                    "name": "F6",
                    "midi": 89,
                    "time": 226.8168209999993,
                    "velocity": 0.5196850393700787,
                    "duration": 0.6477753124999879
                },
                {
                    "name": "F5",
                    "midi": 77,
                    "time": 226.8168209999993,
                    "velocity": 0.4409448818897638,
                    "duration": 0.6477753124999879
                },
                {
                    "name": "F6",
                    "midi": 89,
                    "time": 227.47141499999927,
                    "velocity": 0.4881889763779528,
                    "duration": 0.3204783125000006
                },
                {
                    "name": "F5",
                    "midi": 77,
                    "time": 227.47141499999927,
                    "velocity": 0.4094488188976378,
                    "duration": 0.3204783125000006
                },
                {
                    "name": "F6",
                    "midi": 89,
                    "time": 227.79871199999926,
                    "velocity": 0.5354330708661418,
                    "duration": 0.3272969999999873
                },
                {
                    "name": "F5",
                    "midi": 77,
                    "time": 227.79871199999926,
                    "velocity": 0.44881889763779526,
                    "duration": 0.3272969999999873
                },
                {
                    "name": "E6",
                    "midi": 88,
                    "time": 228.12600899999924,
                    "velocity": 0.4881889763779528,
                    "duration": 0.3272969999999873
                },
                {
                    "name": "E5",
                    "midi": 76,
                    "time": 228.12600899999924,
                    "velocity": 0.4094488188976378,
                    "duration": 0.3272969999999873
                },
                {
                    "name": "F#6",
                    "midi": 90,
                    "time": 228.45330599999923,
                    "velocity": 0.4881889763779528,
                    "duration": 0.3272969999999873
                },
                {
                    "name": "F#5",
                    "midi": 78,
                    "time": 228.45330599999923,
                    "velocity": 0.4094488188976378,
                    "duration": 0.3272969999999873
                },
                {
                    "name": "F5",
                    "midi": 77,
                    "time": 228.78060299999922,
                    "velocity": 0.4094488188976378,
                    "duration": 0.3272969999999873
                },
                {
                    "name": "F6",
                    "midi": 89,
                    "time": 228.78060299999922,
                    "velocity": 0.4881889763779528,
                    "duration": 0.3272969999999873
                },
                {
                    "name": "D#6",
                    "midi": 87,
                    "time": 229.1078999999992,
                    "velocity": 0.4881889763779528,
                    "duration": 0.3272969999999873
                },
                {
                    "name": "D#5",
                    "midi": 75,
                    "time": 229.1078999999992,
                    "velocity": 0.4094488188976378,
                    "duration": 0.3272969999999873
                },
                {
                    "name": "C6",
                    "midi": 84,
                    "time": 229.4351969999992,
                    "velocity": 0.4881889763779528,
                    "duration": 0.3272969999999873
                },
                {
                    "name": "C5",
                    "midi": 72,
                    "time": 229.4351969999992,
                    "velocity": 0.4094488188976378,
                    "duration": 0.3272969999999873
                },
                {
                    "name": "A5",
                    "midi": 81,
                    "time": 229.76249399999918,
                    "velocity": 0.5511811023622047,
                    "duration": 0.654594000000003
                },
                {
                    "name": "A4",
                    "midi": 69,
                    "time": 229.76249399999918,
                    "velocity": 0.4645669291338583,
                    "duration": 0.654594000000003
                },
                {
                    "name": "C5",
                    "midi": 72,
                    "time": 230.41708799999918,
                    "velocity": 0.48031496062992124,
                    "duration": 0.3272969999999873
                },
                {
                    "name": "C6",
                    "midi": 84,
                    "time": 230.41708799999918,
                    "velocity": 0.5748031496062992,
                    "duration": 0.3272969999999873
                },
                {
                    "name": "F6",
                    "midi": 89,
                    "time": 230.74438499999917,
                    "velocity": 0.6377952755905512,
                    "duration": 0.654594000000003
                },
                {
                    "name": "F5",
                    "midi": 77,
                    "time": 230.74438499999917,
                    "velocity": 0.5354330708661418,
                    "duration": 0.654594000000003
                },
                {
                    "name": "C6",
                    "midi": 84,
                    "time": 231.39897899999917,
                    "velocity": 0.5748031496062992,
                    "duration": 0.3272969999999873
                },
                {
                    "name": "C5",
                    "midi": 72,
                    "time": 231.39897899999917,
                    "velocity": 0.48031496062992124,
                    "duration": 0.3272969999999873
                },
                {
                    "name": "D#5",
                    "midi": 75,
                    "time": 231.72627599999916,
                    "velocity": 0.5354330708661418,
                    "duration": 0.9818909999999903
                },
                {
                    "name": "D#6",
                    "midi": 87,
                    "time": 231.72627599999916,
                    "velocity": 0.6299212598425197,
                    "duration": 0.9818909999999903
                },
                {
                    "name": "C#6",
                    "midi": 85,
                    "time": 232.70816699999915,
                    "velocity": 0.5669291338582677,
                    "duration": 0.3272969999999873
                },
                {
                    "name": "C#5",
                    "midi": 73,
                    "time": 232.70816699999915,
                    "velocity": 0.48031496062992124,
                    "duration": 0.3272969999999873
                },
                {
                    "name": "C#5",
                    "midi": 73,
                    "time": 233.36276099999913,
                    "velocity": 0.48031496062992124,
                    "duration": 0.3272969999999873
                },
                {
                    "name": "C5",
                    "midi": 72,
                    "time": 233.6900579999991,
                    "velocity": 0.5275590551181102,
                    "duration": 0.654594000000003
                },
                {
                    "name": "D#5",
                    "midi": 75,
                    "time": 234.34465199999912,
                    "velocity": 0.48031496062992124,
                    "duration": 0.08182425000001103
                },
                {
                    "name": "F5",
                    "midi": 77,
                    "time": 234.42647624999913,
                    "velocity": 0.44881889763779526,
                    "duration": 0.054549500000007356
                },
                {
                    "name": "D#5",
                    "midi": 75,
                    "time": 234.48102574999913,
                    "velocity": 0.48031496062992124,
                    "duration": 0.054549500000007356
                },
                {
                    "name": "D5",
                    "midi": 74,
                    "time": 234.53557524999914,
                    "velocity": 0.5118110236220472,
                    "duration": 0.054549500000007356
                },
                {
                    "name": "D#5",
                    "midi": 75,
                    "time": 234.59012474999915,
                    "velocity": 0.5433070866141733,
                    "duration": 0.08182425000001103
                },
                {
                    "name": "G#5",
                    "midi": 80,
                    "time": 234.67194899999916,
                    "velocity": 0.5826771653543307,
                    "duration": 0.654594000000003
                },
                {
                    "name": "D#5",
                    "midi": 75,
                    "time": 235.32654299999916,
                    "velocity": 0.5196850393700787,
                    "duration": 0.3272969999999873
                },
                {
                    "name": "F5",
                    "midi": 77,
                    "time": 235.65383999999915,
                    "velocity": 0.5511811023622047,
                    "duration": 0.3272969999999873
                },
                {
                    "name": "E5",
                    "midi": 76,
                    "time": 235.98113699999914,
                    "velocity": 0.48031496062992124,
                    "duration": 0.3272969999999873
                },
                {
                    "name": "F#5",
                    "midi": 78,
                    "time": 236.30843399999912,
                    "velocity": 0.48031496062992124,
                    "duration": 0.3272969999999873
                },
                {
                    "name": "F5",
                    "midi": 77,
                    "time": 236.6357309999991,
                    "velocity": 0.5511811023622047,
                    "duration": 0.3272969999999873
                },
                {
                    "name": "D#5",
                    "midi": 75,
                    "time": 236.9630279999991,
                    "velocity": 0.48031496062992124,
                    "duration": 0.3272969999999873
                },
                {
                    "name": "C5",
                    "midi": 72,
                    "time": 237.2903249999991,
                    "velocity": 0.48031496062992124,
                    "duration": 0.3272969999999873
                },
                {
                    "name": "G#5",
                    "midi": 80,
                    "time": 237.61762199999907,
                    "velocity": 0.5511811023622047,
                    "duration": 0.3272969999999873
                },
                {
                    "name": "G5",
                    "midi": 79,
                    "time": 237.94491899999906,
                    "velocity": 0.48031496062992124,
                    "duration": 0.3272969999999873
                },
                {
                    "name": "A#5",
                    "midi": 82,
                    "time": 238.27221599999905,
                    "velocity": 0.48031496062992124,
                    "duration": 0.3272969999999873
                },
                {
                    "name": "G#5",
                    "midi": 80,
                    "time": 238.59951299999904,
                    "velocity": 0.5511811023622047,
                    "duration": 0.3272969999999873
                },
                {
                    "name": "F#5",
                    "midi": 78,
                    "time": 238.92680999999902,
                    "velocity": 0.48031496062992124,
                    "duration": 0.3272969999999873
                },
                {
                    "name": "D#5",
                    "midi": 75,
                    "time": 239.254106999999,
                    "velocity": 0.48031496062992124,
                    "duration": 0.3272969999999873
                },
                {
                    "name": "F5",
                    "midi": 77,
                    "time": 239.581403999999,
                    "velocity": 0.5511811023622047,
                    "duration": 0.3272969999999873
                },
                {
                    "name": "E5",
                    "midi": 76,
                    "time": 239.90870099999898,
                    "velocity": 0.48031496062992124,
                    "duration": 0.3272969999999873
                },
                {
                    "name": "F#5",
                    "midi": 78,
                    "time": 240.23599799999897,
                    "velocity": 0.48031496062992124,
                    "duration": 0.3272969999999873
                },
                {
                    "name": "F5",
                    "midi": 77,
                    "time": 240.56329499999896,
                    "velocity": 0.5511811023622047,
                    "duration": 0.3272969999999873
                },
                {
                    "name": "D#5",
                    "midi": 75,
                    "time": 240.89059199999895,
                    "velocity": 0.48031496062992124,
                    "duration": 0.3272969999999873
                },
                {
                    "name": "C5",
                    "midi": 72,
                    "time": 241.21788899999893,
                    "velocity": 0.48031496062992124,
                    "duration": 0.3272969999999873
                },
                {
                    "name": "C#5",
                    "midi": 73,
                    "time": 241.54518599999892,
                    "velocity": 0.5196850393700787,
                    "duration": 0.9818909999999903
                },
                {
                    "name": "A#5",
                    "midi": 82,
                    "time": 242.5270769999989,
                    "velocity": 0.5590551181102362,
                    "duration": 0.6477753124999879
                },
                {
                    "name": "C#5",
                    "midi": 73,
                    "time": 242.5270769999989,
                    "velocity": 0.44881889763779526,
                    "duration": 0.6477753124999879
                },
                {
                    "name": "A#5",
                    "midi": 82,
                    "time": 243.1816709999989,
                    "velocity": 0.5826771653543307,
                    "duration": 0.3204783125000006
                },
                {
                    "name": "C#5",
                    "midi": 73,
                    "time": 243.1816709999989,
                    "velocity": 0.47244094488188976,
                    "duration": 0.3204783125000006
                },
                {
                    "name": "A#5",
                    "midi": 82,
                    "time": 243.50896799999887,
                    "velocity": 0.6141732283464567,
                    "duration": 1.6364849999999933
                },
                {
                    "name": "C5",
                    "midi": 72,
                    "time": 243.50896799999887,
                    "velocity": 0.49606299212598426,
                    "duration": 1.6364849999999933
                },
                {
                    "name": "G4",
                    "midi": 67,
                    "time": 245.14545299999887,
                    "velocity": 0.48031496062992124,
                    "duration": 0.3272969999999873
                },
                {
                    "name": "A#4",
                    "midi": 70,
                    "time": 245.14545299999887,
                    "velocity": 0.5669291338582677,
                    "duration": 0.3272969999999873
                },
                {
                    "name": "F4",
                    "midi": 65,
                    "time": 245.47274999999885,
                    "velocity": 0.4566929133858268,
                    "duration": 0.9818909999999903
                },
                {
                    "name": "G#4",
                    "midi": 68,
                    "time": 245.47274999999885,
                    "velocity": 0.5433070866141733,
                    "duration": 0.9818909999999903
                },
                {
                    "name": "G#5",
                    "midi": 80,
                    "time": 246.45464099999884,
                    "velocity": 0.6141732283464567,
                    "duration": 0.6477753124999879
                },
                {
                    "name": "F5",
                    "midi": 77,
                    "time": 246.45464099999884,
                    "velocity": 0.4881889763779528,
                    "duration": 0.6477753124999879
                },
                {
                    "name": "F5",
                    "midi": 77,
                    "time": 247.10923499999882,
                    "velocity": 0.5196850393700787,
                    "duration": 0.3272969999999873
                },
                {
                    "name": "G#5",
                    "midi": 80,
                    "time": 247.10923499999882,
                    "velocity": 0.6377952755905512,
                    "duration": 0.3272969999999873
                },
                {
                    "name": "G5",
                    "midi": 79,
                    "time": 247.4365319999988,
                    "velocity": 0.6692913385826772,
                    "duration": 1.6364849999999933
                },
                {
                    "name": "F5",
                    "midi": 77,
                    "time": 247.4365319999988,
                    "velocity": 0.5433070866141733,
                    "duration": 1.6364849999999933
                },
                {
                    "name": "D4",
                    "midi": 62,
                    "time": 249.0730169999988,
                    "velocity": 0.48031496062992124,
                    "duration": 0.3272969999999873
                },
                {
                    "name": "F4",
                    "midi": 65,
                    "time": 249.0730169999988,
                    "velocity": 0.5669291338582677,
                    "duration": 0.3272969999999873
                },
                {
                    "name": "C4",
                    "midi": 60,
                    "time": 249.4003139999988,
                    "velocity": 0.4566929133858268,
                    "duration": 0.3272969999999873
                },
                {
                    "name": "D#4",
                    "midi": 63,
                    "time": 249.4003139999988,
                    "velocity": 0.5433070866141733,
                    "duration": 0.3272969999999873
                },
                {
                    "name": "C5",
                    "midi": 72,
                    "time": 250.38220499999878,
                    "velocity": 0.5669291338582677,
                    "duration": 0.6477753124999879
                },
                {
                    "name": "C6",
                    "midi": 84,
                    "time": 250.38220499999878,
                    "velocity": 0.6692913385826772,
                    "duration": 0.6477753124999879
                },
                {
                    "name": "D#5",
                    "midi": 75,
                    "time": 250.38220499999878,
                    "velocity": 0.5669291338582677,
                    "duration": 0.6477753124999879
                },
                {
                    "name": "C5",
                    "midi": 72,
                    "time": 251.03679899999875,
                    "velocity": 0.5590551181102362,
                    "duration": 0.3204783125000006
                },
                {
                    "name": "D#5",
                    "midi": 75,
                    "time": 251.03679899999875,
                    "velocity": 0.5590551181102362,
                    "duration": 0.3204783125000006
                },
                {
                    "name": "C6",
                    "midi": 84,
                    "time": 251.03679899999875,
                    "velocity": 0.6614173228346457,
                    "duration": 0.3204783125000006
                },
                {
                    "name": "C5",
                    "midi": 72,
                    "time": 251.36409599999874,
                    "velocity": 0.5984251968503937,
                    "duration": 0.9818909999999903
                },
                {
                    "name": "C6",
                    "midi": 84,
                    "time": 251.36409599999874,
                    "velocity": 0.7086614173228346,
                    "duration": 0.9818909999999903
                },
                {
                    "name": "G#5",
                    "midi": 80,
                    "time": 251.36409599999874,
                    "velocity": 0.5984251968503937,
                    "duration": 0.9818909999999903
                },
                {
                    "name": "F5",
                    "midi": 77,
                    "time": 252.34598699999873,
                    "velocity": 0.6456692913385826,
                    "duration": 0.6477753124999879
                },
                {
                    "name": "F6",
                    "midi": 89,
                    "time": 252.34598699999873,
                    "velocity": 0.7637795275590551,
                    "duration": 0.6477753124999879
                },
                {
                    "name": "G#5",
                    "midi": 80,
                    "time": 252.34598699999873,
                    "velocity": 0.6456692913385826,
                    "duration": 0.6477753124999879
                },
                {
                    "name": "F5",
                    "midi": 77,
                    "time": 253.0005809999987,
                    "velocity": 0.6377952755905512,
                    "duration": 0.3204783125000006
                },
                {
                    "name": "G#5",
                    "midi": 80,
                    "time": 253.0005809999987,
                    "velocity": 0.6377952755905512,
                    "duration": 0.3204783125000006
                },
                {
                    "name": "F6",
                    "midi": 89,
                    "time": 253.0005809999987,
                    "velocity": 0.7559055118110236,
                    "duration": 0.3204783125000006
                },
                {
                    "name": "G5",
                    "midi": 79,
                    "time": 253.3278779999987,
                    "velocity": 0.6850393700787402,
                    "duration": 1.6364849999999933
                },
                {
                    "name": "F5",
                    "midi": 77,
                    "time": 253.3278779999987,
                    "velocity": 0.6850393700787402,
                    "duration": 1.6364849999999933
                },
                {
                    "name": "F6",
                    "midi": 89,
                    "time": 253.3278779999987,
                    "velocity": 0.8110236220472441,
                    "duration": 1.6364849999999933
                },
                {
                    "name": "D6",
                    "midi": 86,
                    "time": 253.3278779999987,
                    "velocity": 0.6850393700787402,
                    "duration": 1.6364849999999933
                },
                {
                    "name": "D5",
                    "midi": 74,
                    "time": 254.96436299999868,
                    "velocity": 0.5275590551181102,
                    "duration": 0.3272969999999873
                },
                {
                    "name": "F5",
                    "midi": 77,
                    "time": 254.96436299999868,
                    "velocity": 0.6220472440944882,
                    "duration": 0.3272969999999873
                },
                {
                    "name": "C5",
                    "midi": 72,
                    "time": 255.29165999999867,
                    "velocity": 0.5669291338582677,
                    "duration": 0.654594000000003
                },
                {
                    "name": "D#5",
                    "midi": 75,
                    "time": 255.29165999999867,
                    "velocity": 0.6692913385826772,
                    "duration": 0.654594000000003
                },
                {
                    "name": "G4",
                    "midi": 67,
                    "time": 255.94625399999867,
                    "velocity": 0.5039370078740157,
                    "duration": 0.654594000000003
                },
                {
                    "name": "D#5",
                    "midi": 75,
                    "time": 255.94625399999867,
                    "velocity": 0.5984251968503937,
                    "duration": 0.654594000000003
                },
                {
                    "name": "G#4",
                    "midi": 68,
                    "time": 256.2735509999987,
                    "velocity": 0.6299212598425197,
                    "duration": 0.6545939999999746
                },
                {
                    "name": "F4",
                    "midi": 65,
                    "time": 256.6008479999987,
                    "velocity": 0.4881889763779528,
                    "duration": 0.3272969999999873
                },
                {
                    "name": "D5",
                    "midi": 74,
                    "time": 256.6008479999987,
                    "velocity": 0.5826771653543307,
                    "duration": 0.3272969999999873
                },
                {
                    "name": "D#4",
                    "midi": 63,
                    "time": 256.92814499999866,
                    "velocity": 0.47244094488188976,
                    "duration": 0.3272969999999873
                },
                {
                    "name": "A4",
                    "midi": 69,
                    "time": 256.92814499999866,
                    "velocity": 0.47244094488188976,
                    "duration": 0.3272969999999873
                },
                {
                    "name": "C5",
                    "midi": 72,
                    "time": 256.92814499999866,
                    "velocity": 0.5590551181102362,
                    "duration": 0.3272969999999873
                },
                {
                    "name": "D4",
                    "midi": 62,
                    "time": 257.25544199999865,
                    "velocity": 0.5039370078740157,
                    "duration": 0.3272969999999873
                },
                {
                    "name": "G4",
                    "midi": 67,
                    "time": 257.25544199999865,
                    "velocity": 0.5039370078740157,
                    "duration": 0.3272969999999873
                },
                {
                    "name": "B4",
                    "midi": 71,
                    "time": 257.25544199999865,
                    "velocity": 0.5984251968503937,
                    "duration": 0.3272969999999873
                },
                {
                    "name": "B4",
                    "midi": 71,
                    "time": 257.9100359999986,
                    "velocity": 0.3779527559055118,
                    "duration": 0.3272969999999873
                },
                {
                    "name": "D5",
                    "midi": 74,
                    "time": 257.9100359999986,
                    "velocity": 0.3779527559055118,
                    "duration": 0.3272969999999873
                },
                {
                    "name": "G5",
                    "midi": 79,
                    "time": 257.9100359999986,
                    "velocity": 0.44881889763779526,
                    "duration": 0.3272969999999873
                },
                {
                    "name": "G#4",
                    "midi": 68,
                    "time": 258.2373329999986,
                    "velocity": 0.4015748031496063,
                    "duration": 0.3272969999999873
                },
                {
                    "name": "C5",
                    "midi": 72,
                    "time": 258.2373329999986,
                    "velocity": 0.4015748031496063,
                    "duration": 0.3272969999999873
                },
                {
                    "name": "F5",
                    "midi": 77,
                    "time": 258.2373329999986,
                    "velocity": 0.47244094488188976,
                    "duration": 0.3272969999999873
                },
                {
                    "name": "G4",
                    "midi": 67,
                    "time": 258.8919269999986,
                    "velocity": 0.3700787401574803,
                    "duration": 0.3272969999999873
                },
                {
                    "name": "A#4",
                    "midi": 70,
                    "time": 258.8919269999986,
                    "velocity": 0.3700787401574803,
                    "duration": 0.3272969999999873
                },
                {
                    "name": "D#5",
                    "midi": 75,
                    "time": 258.8919269999986,
                    "velocity": 0.4409448818897638,
                    "duration": 0.3272969999999873
                },
                {
                    "name": "F4",
                    "midi": 65,
                    "time": 259.2192239999986,
                    "velocity": 0.4015748031496063,
                    "duration": 0.3272969999999873
                },
                {
                    "name": "G#4",
                    "midi": 68,
                    "time": 259.2192239999986,
                    "velocity": 0.4015748031496063,
                    "duration": 0.3272969999999873
                },
                {
                    "name": "D5",
                    "midi": 74,
                    "time": 259.2192239999986,
                    "velocity": 0.47244094488188976,
                    "duration": 0.3272969999999873
                },
                {
                    "name": "D#4",
                    "midi": 63,
                    "time": 259.87381799999855,
                    "velocity": 0.3779527559055118,
                    "duration": 0.3272969999999873
                },
                {
                    "name": "G4",
                    "midi": 67,
                    "time": 259.87381799999855,
                    "velocity": 0.3779527559055118,
                    "duration": 0.3272969999999873
                },
                {
                    "name": "C5",
                    "midi": 72,
                    "time": 259.87381799999855,
                    "velocity": 0.44881889763779526,
                    "duration": 0.3272969999999873
                },
                {
                    "name": "D4",
                    "midi": 62,
                    "time": 260.20111499999854,
                    "velocity": 0.4015748031496063,
                    "duration": 0.3272969999999873
                },
                {
                    "name": "F4",
                    "midi": 65,
                    "time": 260.20111499999854,
                    "velocity": 0.4015748031496063,
                    "duration": 0.3272969999999873
                },
                {
                    "name": "B4",
                    "midi": 71,
                    "time": 260.20111499999854,
                    "velocity": 0.47244094488188976,
                    "duration": 0.3272969999999873
                },
                {
                    "name": "C4",
                    "midi": 60,
                    "time": 260.8557089999985,
                    "velocity": 0.3543307086614173,
                    "duration": 0.3272969999999873
                },
                {
                    "name": "D#4",
                    "midi": 63,
                    "time": 260.8557089999985,
                    "velocity": 0.3543307086614173,
                    "duration": 0.3272969999999873
                },
                {
                    "name": "G#4",
                    "midi": 68,
                    "time": 260.8557089999985,
                    "velocity": 0.4251968503937008,
                    "duration": 0.3272969999999873
                },
                {
                    "name": "B3",
                    "midi": 59,
                    "time": 261.1830059999985,
                    "velocity": 0.4015748031496063,
                    "duration": 0.3272969999999873
                },
                {
                    "name": "D4",
                    "midi": 62,
                    "time": 261.1830059999985,
                    "velocity": 0.4015748031496063,
                    "duration": 0.3272969999999873
                },
                {
                    "name": "G4",
                    "midi": 67,
                    "time": 261.1830059999985,
                    "velocity": 0.47244094488188976,
                    "duration": 0.3272969999999873
                },
                {
                    "name": "B4",
                    "midi": 71,
                    "time": 261.8375999999985,
                    "velocity": 0.33858267716535434,
                    "duration": 0.3272969999999873
                },
                {
                    "name": "D5",
                    "midi": 74,
                    "time": 261.8375999999985,
                    "velocity": 0.33858267716535434,
                    "duration": 0.3272969999999873
                },
                {
                    "name": "G5",
                    "midi": 79,
                    "time": 261.8375999999985,
                    "velocity": 0.4015748031496063,
                    "duration": 0.3272969999999873
                },
                {
                    "name": "G#4",
                    "midi": 68,
                    "time": 262.16489699999846,
                    "velocity": 0.3543307086614173,
                    "duration": 0.3272969999999873
                },
                {
                    "name": "C5",
                    "midi": 72,
                    "time": 262.16489699999846,
                    "velocity": 0.3543307086614173,
                    "duration": 0.3272969999999873
                },
                {
                    "name": "F5",
                    "midi": 77,
                    "time": 262.16489699999846,
                    "velocity": 0.41732283464566927,
                    "duration": 0.3272969999999873
                },
                {
                    "name": "G4",
                    "midi": 67,
                    "time": 262.81949099999844,
                    "velocity": 0.31496062992125984,
                    "duration": 0.3272969999999873
                },
                {
                    "name": "A#4",
                    "midi": 70,
                    "time": 262.81949099999844,
                    "velocity": 0.31496062992125984,
                    "duration": 0.3272969999999873
                },
                {
                    "name": "D#5",
                    "midi": 75,
                    "time": 262.81949099999844,
                    "velocity": 0.3779527559055118,
                    "duration": 0.3272969999999873
                },
                {
                    "name": "F4",
                    "midi": 65,
                    "time": 263.1467879999984,
                    "velocity": 0.33858267716535434,
                    "duration": 0.3272969999999873
                },
                {
                    "name": "G#4",
                    "midi": 68,
                    "time": 263.1467879999984,
                    "velocity": 0.33858267716535434,
                    "duration": 0.3272969999999873
                },
                {
                    "name": "D5",
                    "midi": 74,
                    "time": 263.1467879999984,
                    "velocity": 0.4015748031496063,
                    "duration": 0.3272969999999873
                },
                {
                    "name": "D#4",
                    "midi": 63,
                    "time": 263.8013819999984,
                    "velocity": 0.30708661417322836,
                    "duration": 0.3272969999999873
                },
                {
                    "name": "G4",
                    "midi": 67,
                    "time": 263.8013819999984,
                    "velocity": 0.30708661417322836,
                    "duration": 0.3272969999999873
                },
                {
                    "name": "C5",
                    "midi": 72,
                    "time": 263.8013819999984,
                    "velocity": 0.3700787401574803,
                    "duration": 0.3272969999999873
                },
                {
                    "name": "D4",
                    "midi": 62,
                    "time": 264.1286789999984,
                    "velocity": 0.3228346456692913,
                    "duration": 0.3272969999999873
                },
                {
                    "name": "F4",
                    "midi": 65,
                    "time": 264.1286789999984,
                    "velocity": 0.3228346456692913,
                    "duration": 0.3272969999999873
                },
                {
                    "name": "B4",
                    "midi": 71,
                    "time": 264.1286789999984,
                    "velocity": 0.3858267716535433,
                    "duration": 0.3272969999999873
                },
                {
                    "name": "C4",
                    "midi": 60,
                    "time": 264.78327299999836,
                    "velocity": 0.2755905511811024,
                    "duration": 0.3272969999999873
                },
                {
                    "name": "D#4",
                    "midi": 63,
                    "time": 264.78327299999836,
                    "velocity": 0.2755905511811024,
                    "duration": 0.3272969999999873
                },
                {
                    "name": "G#4",
                    "midi": 68,
                    "time": 264.78327299999836,
                    "velocity": 0.33070866141732286,
                    "duration": 0.3272969999999873
                },
                {
                    "name": "B3",
                    "midi": 59,
                    "time": 265.11056999999835,
                    "velocity": 0.30708661417322836,
                    "duration": 0.3272969999999873
                },
                {
                    "name": "D4",
                    "midi": 62,
                    "time": 265.11056999999835,
                    "velocity": 0.30708661417322836,
                    "duration": 0.3272969999999873
                },
                {
                    "name": "G4",
                    "midi": 67,
                    "time": 265.11056999999835,
                    "velocity": 0.36220472440944884,
                    "duration": 0.3272969999999873
                },
                {
                    "name": "C4",
                    "midi": 60,
                    "time": 265.7651639999983,
                    "velocity": 0.2677165354330709,
                    "duration": 0.3272969999999873
                },
                {
                    "name": "G#3",
                    "midi": 56,
                    "time": 265.7651639999983,
                    "velocity": 0.2677165354330709,
                    "duration": 0.3272969999999873
                },
                {
                    "name": "F4",
                    "midi": 65,
                    "time": 265.7651639999983,
                    "velocity": 0.3228346456692913,
                    "duration": 0.3272969999999873
                },
                {
                    "name": "G3",
                    "midi": 55,
                    "time": 266.0924609999983,
                    "velocity": 0.28346456692913385,
                    "duration": 0.3272969999999873
                },
                {
                    "name": "C4",
                    "midi": 60,
                    "time": 266.0924609999983,
                    "velocity": 0.28346456692913385,
                    "duration": 0.3272969999999873
                },
                {
                    "name": "D#4",
                    "midi": 63,
                    "time": 266.0924609999983,
                    "velocity": 0.33858267716535434,
                    "duration": 0.3272969999999873
                },
                {
                    "name": "F3",
                    "midi": 53,
                    "time": 266.7470549999983,
                    "velocity": 0.25196850393700787,
                    "duration": 0.3272969999999873
                },
                {
                    "name": "B3",
                    "midi": 59,
                    "time": 266.7470549999983,
                    "velocity": 0.25196850393700787,
                    "duration": 0.3272969999999873
                },
                {
                    "name": "D4",
                    "midi": 62,
                    "time": 266.7470549999983,
                    "velocity": 0.2992125984251969,
                    "duration": 0.3272969999999873
                },
                {
                    "name": "D#3",
                    "midi": 51,
                    "time": 267.07435199999827,
                    "velocity": 0.5433070866141733,
                    "duration": 0.49094550000000936
                },
                {
                    "name": "G3",
                    "midi": 55,
                    "time": 267.07435199999827,
                    "velocity": 0.5433070866141733,
                    "duration": 0.49094550000000936
                },
                {
                    "name": "C4",
                    "midi": 60,
                    "time": 267.07435199999827,
                    "velocity": 0.6456692913385826,
                    "duration": 0.49094550000000936
                },
                {
                    "name": "G4",
                    "midi": 67,
                    "time": 267.6471217499983,
                    "velocity": 0.5511811023622047,
                    "duration": 0.08182425000001103
                },
                {
                    "name": "D#5",
                    "midi": 75,
                    "time": 267.7289459999983,
                    "velocity": 0.6141732283464567,
                    "duration": 0.24547274999997626
                },
                {
                    "name": "C5",
                    "midi": 72,
                    "time": 267.9744187499983,
                    "velocity": 0.5511811023622047,
                    "duration": 0.08182425000001103
                },
                {
                    "name": "G5",
                    "midi": 79,
                    "time": 268.0562429999983,
                    "velocity": 0.6220472440944882,
                    "duration": 0.24547274999997626
                },
                {
                    "name": "D#5",
                    "midi": 75,
                    "time": 268.30171574999827,
                    "velocity": 0.5511811023622047,
                    "duration": 0.08182425000001103
                },
                {
                    "name": "C6",
                    "midi": 84,
                    "time": 268.3835399999983,
                    "velocity": 0.6220472440944882,
                    "duration": 0.24547274999997626
                },
                {
                    "name": "G5",
                    "midi": 79,
                    "time": 268.62901274999825,
                    "velocity": 0.5511811023622047,
                    "duration": 0.08182425000001103
                },
                {
                    "name": "D#6",
                    "midi": 87,
                    "time": 268.71083699999826,
                    "velocity": 0.6614173228346457,
                    "duration": 0.08182425000001103
                },
                {
                    "name": "D#6",
                    "midi": 87,
                    "time": 269.03813399999825,
                    "velocity": 0.6614173228346457,
                    "duration": 0.08182425000001103
                },
                {
                    "name": "G4",
                    "midi": 67,
                    "time": 269.6927279999983,
                    "velocity": 0.30708661417322836,
                    "duration": 0.16364850000002207
                },
                {
                    "name": "C5",
                    "midi": 72,
                    "time": 269.6927279999983,
                    "velocity": 0.36220472440944884,
                    "duration": 0.16364850000002207
                },
                {
                    "name": "G4",
                    "midi": 67,
                    "time": 270.0200249999983,
                    "velocity": 0.33070866141732286,
                    "duration": 0.6545939999999746
                },
                {
                    "name": "C5",
                    "midi": 72,
                    "time": 270.0200249999983,
                    "velocity": 0.3937007874015748,
                    "duration": 0.6545939999999746
                },
                {
                    "name": "G4",
                    "midi": 67,
                    "time": 270.6746189999983,
                    "velocity": 0.30708661417322836,
                    "duration": 0.320478312500029
                },
                {
                    "name": "B4",
                    "midi": 71,
                    "time": 270.6814376874983,
                    "velocity": 0.36220472440944884,
                    "duration": 0.320478312500029
                },
                {
                    "name": "G#4",
                    "midi": 68,
                    "time": 271.00191599999835,
                    "velocity": 0.5433070866141733,
                    "duration": 0.49094550000000936
                },
                {
                    "name": "F4",
                    "midi": 65,
                    "time": 271.00191599999835,
                    "velocity": 0.5433070866141733,
                    "duration": 0.49094550000000936
                },
                {
                    "name": "B4",
                    "midi": 71,
                    "time": 271.00191599999835,
                    "velocity": 0.6456692913385826,
                    "duration": 0.49094550000000936
                },
                {
                    "name": "B4",
                    "midi": 71,
                    "time": 271.57468574999837,
                    "velocity": 0.5511811023622047,
                    "duration": 0.08182425000001103
                },
                {
                    "name": "F5",
                    "midi": 77,
                    "time": 271.6565099999984,
                    "velocity": 0.6141732283464567,
                    "duration": 0.24547274999997626
                },
                {
                    "name": "D5",
                    "midi": 74,
                    "time": 271.90198274999835,
                    "velocity": 0.5511811023622047,
                    "duration": 0.08182425000001103
                },
                {
                    "name": "B5",
                    "midi": 83,
                    "time": 271.98380699999836,
                    "velocity": 0.6220472440944882,
                    "duration": 0.24547274999997626
                },
                {
                    "name": "F5",
                    "midi": 77,
                    "time": 272.22927974999834,
                    "velocity": 0.5511811023622047,
                    "duration": 0.08182425000001103
                },
                {
                    "name": "D6",
                    "midi": 86,
                    "time": 272.31110399999835,
                    "velocity": 0.6220472440944882,
                    "duration": 0.24547274999997626
                },
                {
                    "name": "B5",
                    "midi": 83,
                    "time": 272.5565767499983,
                    "velocity": 0.5511811023622047,
                    "duration": 0.08182425000001103
                },
                {
                    "name": "F6",
                    "midi": 89,
                    "time": 272.63840099999834,
                    "velocity": 0.6614173228346457,
                    "duration": 0.08182425000001103
                },
                {
                    "name": "F6",
                    "midi": 89,
                    "time": 272.9656979999983,
                    "velocity": 0.6614173228346457,
                    "duration": 0.08182425000001103
                },
                {
                    "name": "B4",
                    "midi": 71,
                    "time": 273.62029199999836,
                    "velocity": 0.30708661417322836,
                    "duration": 0.16364850000002207
                },
                {
                    "name": "D5",
                    "midi": 74,
                    "time": 273.62029199999836,
                    "velocity": 0.36220472440944884,
                    "duration": 0.16364850000002207
                },
                {
                    "name": "B4",
                    "midi": 71,
                    "time": 273.9475889999984,
                    "velocity": 0.33070866141732286,
                    "duration": 0.6545939999999746
                },
                {
                    "name": "D5",
                    "midi": 74,
                    "time": 273.9475889999984,
                    "velocity": 0.3937007874015748,
                    "duration": 0.6545939999999746
                },
                {
                    "name": "C5",
                    "midi": 72,
                    "time": 274.6021829999984,
                    "velocity": 0.36220472440944884,
                    "duration": 0.24547274999997626
                },
                {
                    "name": "C5",
                    "midi": 72,
                    "time": 274.84765574999835,
                    "velocity": 0.3543307086614173,
                    "duration": 0.040912124999977095
                },
                {
                    "name": "D#5",
                    "midi": 75,
                    "time": 274.88856787499833,
                    "velocity": 0.3779527559055118,
                    "duration": 0.040912124999977095
                },
                {
                    "name": "G5",
                    "midi": 79,
                    "time": 274.9294799999983,
                    "velocity": 0.41732283464566927,
                    "duration": 0.49094550000000936
                },
                {
                    "name": "F5",
                    "midi": 77,
                    "time": 275.4204254999983,
                    "velocity": 0.3228346456692913,
                    "duration": 0.16364850000002207
                },
                {
                    "name": "D#5",
                    "midi": 75,
                    "time": 275.58407399999834,
                    "velocity": 0.4015748031496063,
                    "duration": 0.3272969999999873
                },
                {
                    "name": "D5",
                    "midi": 74,
                    "time": 275.9113709999983,
                    "velocity": 0.3700787401574803,
                    "duration": 0.6545939999999746
                },
                {
                    "name": "C5",
                    "midi": 72,
                    "time": 276.5659649999983,
                    "velocity": 0.30708661417322836,
                    "duration": 0.24547274999997626
                },
                {
                    "name": "G4",
                    "midi": 67,
                    "time": 276.8114377499983,
                    "velocity": 0.2125984251968504,
                    "duration": 0.027274750000003678
                },
                {
                    "name": "C5",
                    "midi": 72,
                    "time": 276.8387124999983,
                    "velocity": 0.3543307086614173,
                    "duration": 0.027274750000003678
                },
                {
                    "name": "D#5",
                    "midi": 75,
                    "time": 276.8659872499983,
                    "velocity": 0.3779527559055118,
                    "duration": 0.027274750000003678
                },
                {
                    "name": "G5",
                    "midi": 79,
                    "time": 276.8932619999983,
                    "velocity": 0.41732283464566927,
                    "duration": 0.49094550000000936
                },
                {
                    "name": "F5",
                    "midi": 77,
                    "time": 277.3842074999983,
                    "velocity": 0.3228346456692913,
                    "duration": 0.16364850000002207
                },
                {
                    "name": "C5",
                    "midi": 72,
                    "time": 277.5478559999983,
                    "velocity": 0.33858267716535434,
                    "duration": 0.3272969999999873
                },
                {
                    "name": "D#5",
                    "midi": 75,
                    "time": 277.5478559999983,
                    "velocity": 0.4015748031496063,
                    "duration": 0.3272969999999873
                },
                {
                    "name": "B4",
                    "midi": 71,
                    "time": 277.8751529999983,
                    "velocity": 0.30708661417322836,
                    "duration": 0.6545939999999746
                },
                {
                    "name": "D5",
                    "midi": 74,
                    "time": 277.8751529999983,
                    "velocity": 0.3700787401574803,
                    "duration": 0.6545939999999746
                },
                {
                    "name": "C5",
                    "midi": 72,
                    "time": 278.5297469999983,
                    "velocity": 0.30708661417322836,
                    "duration": 0.24547274999997626
                },
                {
                    "name": "G4",
                    "midi": 67,
                    "time": 278.77521974999826,
                    "velocity": 0.47244094488188976,
                    "duration": 0.027274750000003678
                },
                {
                    "name": "C5",
                    "midi": 72,
                    "time": 278.80249449999826,
                    "velocity": 0.49606299212598426,
                    "duration": 0.027274750000003678
                },
                {
                    "name": "D#5",
                    "midi": 75,
                    "time": 278.82976924999826,
                    "velocity": 0.5433070866141733,
                    "duration": 0.027274750000003678
                },
                {
                    "name": "G4",
                    "midi": 67,
                    "time": 278.85704399999827,
                    "velocity": 0.5433070866141733,
                    "duration": 0.49094550000000936
                },
                {
                    "name": "G5",
                    "midi": 79,
                    "time": 278.85704399999827,
                    "velocity": 0.6377952755905512,
                    "duration": 0.49094550000000936
                },
                {
                    "name": "F5",
                    "midi": 77,
                    "time": 279.3479894999983,
                    "velocity": 0.48031496062992124,
                    "duration": 0.16364850000002207
                },
                {
                    "name": "F4",
                    "midi": 65,
                    "time": 279.3479894999983,
                    "velocity": 0.4015748031496063,
                    "duration": 0.16364850000002207
                },
                {
                    "name": "D#5",
                    "midi": 75,
                    "time": 279.5116379999983,
                    "velocity": 0.5748031496062992,
                    "duration": 0.6545939999999746
                },
                {
                    "name": "D#4",
                    "midi": 63,
                    "time": 279.5116379999983,
                    "velocity": 0.4881889763779528,
                    "duration": 0.6545939999999746
                },
                {
                    "name": "D5",
                    "midi": 74,
                    "time": 280.1662319999983,
                    "velocity": 0.5669291338582677,
                    "duration": 0.08182425000001103
                },
                {
                    "name": "D4",
                    "midi": 62,
                    "time": 280.1662319999983,
                    "velocity": 0.48031496062992124,
                    "duration": 0.08182425000001103
                },
                {
                    "name": "C5",
                    "midi": 72,
                    "time": 280.49352899999826,
                    "velocity": 0.5905511811023622,
                    "duration": 0.6545939999999746
                },
                {
                    "name": "C4",
                    "midi": 60,
                    "time": 280.49352899999826,
                    "velocity": 0.49606299212598426,
                    "duration": 0.6545939999999746
                },
                {
                    "name": "B3",
                    "midi": 59,
                    "time": 281.14812299999824,
                    "velocity": 0.49606299212598426,
                    "duration": 0.08182425000001103
                },
                {
                    "name": "B4",
                    "midi": 71,
                    "time": 281.14812299999824,
                    "velocity": 0.5905511811023622,
                    "duration": 0.08182425000001103
                },
                {
                    "name": "G#3",
                    "midi": 56,
                    "time": 281.4754199999982,
                    "velocity": 0.4881889763779528,
                    "duration": 0.6545939999999746
                },
                {
                    "name": "G#4",
                    "midi": 68,
                    "time": 281.4754199999982,
                    "velocity": 0.5826771653543307,
                    "duration": 0.6545939999999746
                },
                {
                    "name": "G3",
                    "midi": 55,
                    "time": 282.1300139999982,
                    "velocity": 0.44881889763779526,
                    "duration": 0.16364850000002207
                },
                {
                    "name": "G4",
                    "midi": 67,
                    "time": 282.1300139999982,
                    "velocity": 0.5275590551181102,
                    "duration": 0.16364850000002207
                },
                {
                    "name": "B3",
                    "midi": 59,
                    "time": 283.1119049999982,
                    "velocity": 0.33070866141732286,
                    "duration": 0.10909900000001471
                },
                {
                    "name": "D4",
                    "midi": 62,
                    "time": 283.22100399999823,
                    "velocity": 0.2755905511811024,
                    "duration": 0.10909900000001471
                },
                {
                    "name": "F4",
                    "midi": 65,
                    "time": 283.33010299999825,
                    "velocity": 0.2755905511811024,
                    "duration": 0.10909900000001471
                },
                {
                    "name": "G#4",
                    "midi": 68,
                    "time": 283.43920199999826,
                    "velocity": 0.33858267716535434,
                    "duration": 0.10909900000001471
                },
                {
                    "name": "G4",
                    "midi": 67,
                    "time": 283.5483009999983,
                    "velocity": 0.28346456692913385,
                    "duration": 0.10909900000001471
                },
                {
                    "name": "F4",
                    "midi": 65,
                    "time": 283.6573999999983,
                    "velocity": 0.28346456692913385,
                    "duration": 0.10909900000001471
                },
                {
                    "name": "D#4",
                    "midi": 63,
                    "time": 283.7664989999983,
                    "velocity": 0.33858267716535434,
                    "duration": 0.08182425000001103
                },
                {
                    "name": "F3",
                    "midi": 53,
                    "time": 285.0756869999983,
                    "velocity": 0.33070866141732286,
                    "duration": 0.10909900000001471
                },
                {
                    "name": "G#3",
                    "midi": 56,
                    "time": 285.1847859999983,
                    "velocity": 0.2755905511811024,
                    "duration": 0.10909900000001471
                },
                {
                    "name": "D4",
                    "midi": 62,
                    "time": 285.29388499999834,
                    "velocity": 0.2755905511811024,
                    "duration": 0.10909900000001471
                },
                {
                    "name": "F4",
                    "midi": 65,
                    "time": 285.40298399999836,
                    "velocity": 0.33858267716535434,
                    "duration": 0.10909900000001471
                },
                {
                    "name": "D#4",
                    "midi": 63,
                    "time": 285.51208299999837,
                    "velocity": 0.28346456692913385,
                    "duration": 0.10909900000001471
                },
                {
                    "name": "D4",
                    "midi": 62,
                    "time": 285.6211819999984,
                    "velocity": 0.28346456692913385,
                    "duration": 0.10909900000001471
                },
                {
                    "name": "C4",
                    "midi": 60,
                    "time": 285.7302809999984,
                    "velocity": 0.33858267716535434,
                    "duration": 0.08182425000001103
                },
                {
                    "name": "G3",
                    "midi": 55,
                    "time": 287.0394689999984,
                    "velocity": 0.5196850393700787,
                    "duration": 0.10909900000001471
                },
                {
                    "name": "B3",
                    "midi": 59,
                    "time": 287.1485679999984,
                    "velocity": 0.5433070866141733,
                    "duration": 0.10909900000001471
                },
                {
                    "name": "D4",
                    "midi": 62,
                    "time": 287.25766699999843,
                    "velocity": 0.5669291338582677,
                    "duration": 0.10909900000001471
                },
                {
                    "name": "F4",
                    "midi": 65,
                    "time": 287.36676599999845,
                    "velocity": 0.5905511811023622,
                    "duration": 0.10909900000001471
                },
                {
                    "name": "D4",
                    "midi": 62,
                    "time": 287.47586499999846,
                    "velocity": 0.5275590551181102,
                    "duration": 0.10909900000001471
                },
                {
                    "name": "B3",
                    "midi": 59,
                    "time": 287.5849639999985,
                    "velocity": 0.5590551181102362,
                    "duration": 0.10909900000001471
                },
                {
                    "name": "C4",
                    "midi": 60,
                    "time": 287.6940629999985,
                    "velocity": 0.7401574803149606,
                    "duration": 0.16364850000002207
                },
                {
                    "name": "F4",
                    "midi": 65,
                    "time": 290.96703299999854,
                    "velocity": 0.3937007874015748,
                    "duration": 0.6545939999999746
                },
                {
                    "name": "C#5",
                    "midi": 73,
                    "time": 291.2943299999985,
                    "velocity": 0.3543307086614173,
                    "duration": 0.3272969999999873
                },
                {
                    "name": "F#4",
                    "midi": 66,
                    "time": 291.6216269999985,
                    "velocity": 0.33070866141732286,
                    "duration": 0.9818909999999619
                },
                {
                    "name": "C#5",
                    "midi": 73,
                    "time": 291.6216269999985,
                    "velocity": 0.3937007874015748,
                    "duration": 0.6545939999999746
                },
                {
                    "name": "C#5",
                    "midi": 73,
                    "time": 292.2762209999985,
                    "velocity": 0.3543307086614173,
                    "duration": 0.6545939999999746
                },
                {
                    "name": "F4",
                    "midi": 65,
                    "time": 292.6035179999985,
                    "velocity": 0.33070866141732286,
                    "duration": 0.9818909999999619
                },
                {
                    "name": "D#5",
                    "midi": 75,
                    "time": 292.93081499999846,
                    "velocity": 0.3543307086614173,
                    "duration": 0.3272969999999873
                },
                {
                    "name": "B4",
                    "midi": 71,
                    "time": 293.25811199999845,
                    "velocity": 0.3464566929133858,
                    "duration": 0.6545939999999746
                },
                {
                    "name": "F#4",
                    "midi": 66,
                    "time": 293.58540899999844,
                    "velocity": 0.33070866141732286,
                    "duration": 0.9818909999999619
                },
                {
                    "name": "A4",
                    "midi": 69,
                    "time": 293.9127059999984,
                    "velocity": 0.3543307086614173,
                    "duration": 0.3272969999999873
                },
                {
                    "name": "A#4",
                    "midi": 70,
                    "time": 294.2400029999984,
                    "velocity": 0.3543307086614173,
                    "duration": 0.3272969999999873
                },
                {
                    "name": "F5",
                    "midi": 77,
                    "time": 294.8945969999984,
                    "velocity": 0.3937007874015748,
                    "duration": 0.6545939999999746
                },
                {
                    "name": "C#6",
                    "midi": 85,
                    "time": 295.2218939999984,
                    "velocity": 0.3543307086614173,
                    "duration": 0.3272969999999873
                },
                {
                    "name": "F#5",
                    "midi": 78,
                    "time": 295.54919099999836,
                    "velocity": 0.33070866141732286,
                    "duration": 0.9818909999999619
                },
                {
                    "name": "C#6",
                    "midi": 85,
                    "time": 295.54919099999836,
                    "velocity": 0.3937007874015748,
                    "duration": 0.6545939999999746
                },
                {
                    "name": "C#6",
                    "midi": 85,
                    "time": 296.20378499999833,
                    "velocity": 0.3543307086614173,
                    "duration": 0.6545939999999746
                },
                {
                    "name": "F5",
                    "midi": 77,
                    "time": 296.5310819999983,
                    "velocity": 0.33070866141732286,
                    "duration": 0.9818909999999619
                },
                {
                    "name": "D#6",
                    "midi": 87,
                    "time": 296.8583789999983,
                    "velocity": 0.3543307086614173,
                    "duration": 0.3272969999999873
                },
                {
                    "name": "B5",
                    "midi": 83,
                    "time": 297.1856759999983,
                    "velocity": 0.3464566929133858,
                    "duration": 0.6545939999999746
                },
                {
                    "name": "F#5",
                    "midi": 78,
                    "time": 297.5129729999983,
                    "velocity": 0.33070866141732286,
                    "duration": 0.9818909999999619
                },
                {
                    "name": "A5",
                    "midi": 81,
                    "time": 297.84026999999827,
                    "velocity": 0.3543307086614173,
                    "duration": 0.3272969999999873
                },
                {
                    "name": "A#5",
                    "midi": 82,
                    "time": 298.16756699999826,
                    "velocity": 0.3543307086614173,
                    "duration": 0.3272969999999873
                },
                {
                    "name": "D5",
                    "midi": 74,
                    "time": 298.82216099999823,
                    "velocity": 0.3937007874015748,
                    "duration": 0.6545939999999746
                },
                {
                    "name": "A#5",
                    "midi": 82,
                    "time": 299.1494579999982,
                    "velocity": 0.3543307086614173,
                    "duration": 0.3272969999999873
                },
                {
                    "name": "D#5",
                    "midi": 75,
                    "time": 299.4767549999982,
                    "velocity": 0.33070866141732286,
                    "duration": 0.9818909999999619
                },
                {
                    "name": "A#5",
                    "midi": 82,
                    "time": 299.4767549999982,
                    "velocity": 0.3937007874015748,
                    "duration": 0.6545939999999746
                },
                {
                    "name": "A#5",
                    "midi": 82,
                    "time": 300.1313489999982,
                    "velocity": 0.3543307086614173,
                    "duration": 0.6545939999999746
                },
                {
                    "name": "D5",
                    "midi": 74,
                    "time": 300.45864599999817,
                    "velocity": 0.33070866141732286,
                    "duration": 0.9818909999999619
                },
                {
                    "name": "B5",
                    "midi": 83,
                    "time": 300.78594299999816,
                    "velocity": 0.3543307086614173,
                    "duration": 0.3272969999999873
                },
                {
                    "name": "G#5",
                    "midi": 80,
                    "time": 301.11323999999814,
                    "velocity": 0.3464566929133858,
                    "duration": 0.6545939999999746
                },
                {
                    "name": "A#4",
                    "midi": 70,
                    "time": 301.44053699999813,
                    "velocity": 0.3858267716535433,
                    "duration": 0.9818909999999619
                },
                {
                    "name": "F5",
                    "midi": 77,
                    "time": 301.7678339999981,
                    "velocity": 0.4094488188976378,
                    "duration": 0.3272969999999873
                },
                {
                    "name": "F#5",
                    "midi": 78,
                    "time": 302.0951309999981,
                    "velocity": 0.4094488188976378,
                    "duration": 0.6545939999999746
                },
                {
                    "name": "B4",
                    "midi": 71,
                    "time": 302.4224279999981,
                    "velocity": 0.3937007874015748,
                    "duration": 0.9818909999999619
                },
                {
                    "name": "G#5",
                    "midi": 80,
                    "time": 302.7497249999981,
                    "velocity": 0.4330708661417323,
                    "duration": 0.3272969999999873
                },
                {
                    "name": "F5",
                    "midi": 77,
                    "time": 303.07702199999807,
                    "velocity": 0.3937007874015748,
                    "duration": 0.6545939999999746
                },
                {
                    "name": "C5",
                    "midi": 72,
                    "time": 303.40431899999805,
                    "velocity": 0.33070866141732286,
                    "duration": 0.9818909999999619
                },
                {
                    "name": "F5",
                    "midi": 77,
                    "time": 303.73161599999804,
                    "velocity": 0.3543307086614173,
                    "duration": 0.3272969999999873
                },
                {
                    "name": "E5",
                    "midi": 76,
                    "time": 304.05891299999803,
                    "velocity": 0.3543307086614173,
                    "duration": 0.6545939999999746
                },
                {
                    "name": "G#4",
                    "midi": 68,
                    "time": 304.386209999998,
                    "velocity": 0.33070866141732286,
                    "duration": 0.6545939999999746
                },
                {
                    "name": "F5",
                    "midi": 77,
                    "time": 304.713506999998,
                    "velocity": 0.3543307086614173,
                    "duration": 0.3272969999999873
                },
                {
                    "name": "F4",
                    "midi": 65,
                    "time": 305.040803999998,
                    "velocity": 0.2204724409448819,
                    "duration": 0.3272969999999873
                },
                {
                    "name": "G#4",
                    "midi": 68,
                    "time": 305.040803999998,
                    "velocity": 0.25984251968503935,
                    "duration": 0.3272969999999873
                },
                {
                    "name": "E4",
                    "midi": 64,
                    "time": 305.368100999998,
                    "velocity": 0.25196850393700787,
                    "duration": 0.3272969999999873
                },
                {
                    "name": "G4",
                    "midi": 67,
                    "time": 305.368100999998,
                    "velocity": 0.2992125984251969,
                    "duration": 0.3272969999999873
                },
                {
                    "name": "C#5",
                    "midi": 73,
                    "time": 306.677288999998,
                    "velocity": 0.2992125984251969,
                    "duration": 0.16364850000002207
                },
                {
                    "name": "C#5",
                    "midi": 73,
                    "time": 307.004585999998,
                    "velocity": 0.2992125984251969,
                    "duration": 0.16364850000002207
                },
                {
                    "name": "C#5",
                    "midi": 73,
                    "time": 307.3318829999981,
                    "velocity": 0.36220472440944884,
                    "duration": 0.3272969999999873
                },
                {
                    "name": "C5",
                    "midi": 72,
                    "time": 307.65917999999806,
                    "velocity": 0.2992125984251969,
                    "duration": 0.3272969999999873
                },
                {
                    "name": "A#4",
                    "midi": 70,
                    "time": 308.641070999998,
                    "velocity": 0.2992125984251969,
                    "duration": 0.16364850000002207
                },
                {
                    "name": "A#4",
                    "midi": 70,
                    "time": 308.96836799999807,
                    "velocity": 0.2992125984251969,
                    "duration": 0.16364850000002207
                },
                {
                    "name": "A#4",
                    "midi": 70,
                    "time": 309.2956649999981,
                    "velocity": 0.33858267716535434,
                    "duration": 0.3272969999999873
                },
                {
                    "name": "A4",
                    "midi": 69,
                    "time": 309.6229619999981,
                    "velocity": 0.2992125984251969,
                    "duration": 0.3272969999999873
                },
                {
                    "name": "D5",
                    "midi": 74,
                    "time": 310.4412044999981,
                    "velocity": 0.29133858267716534,
                    "duration": 0.16364850000002207
                },
                {
                    "name": "C#5",
                    "midi": 73,
                    "time": 310.6048529999981,
                    "velocity": 0.2992125984251969,
                    "duration": 0.16364850000002207
                },
                {
                    "name": "D5",
                    "midi": 74,
                    "time": 310.76850149999814,
                    "velocity": 0.2677165354330709,
                    "duration": 0.16364850000002207
                },
                {
                    "name": "E5",
                    "midi": 76,
                    "time": 310.93214999999816,
                    "velocity": 0.33858267716535434,
                    "duration": 0.16364850000002207
                },
                {
                    "name": "D5",
                    "midi": 74,
                    "time": 311.0957984999982,
                    "velocity": 0.2992125984251969,
                    "duration": 0.16364850000002207
                },
                {
                    "name": "C5",
                    "midi": 72,
                    "time": 311.4230954999982,
                    "velocity": 0.28346456692913385,
                    "duration": 0.16364850000002207
                },
                {
                    "name": "B4",
                    "midi": 71,
                    "time": 311.58674399999825,
                    "velocity": 0.2992125984251969,
                    "duration": 0.16364850000002207
                },
                {
                    "name": "C5",
                    "midi": 72,
                    "time": 311.75039249999827,
                    "velocity": 0.28346456692913385,
                    "duration": 0.16364850000002207
                },
                {
                    "name": "D5",
                    "midi": 74,
                    "time": 311.9140409999983,
                    "velocity": 0.3464566929133858,
                    "duration": 0.16364850000002207
                },
                {
                    "name": "C5",
                    "midi": 72,
                    "time": 312.0776894999983,
                    "velocity": 0.2992125984251969,
                    "duration": 0.16364850000002207
                },
                {
                    "name": "A#4",
                    "midi": 70,
                    "time": 312.40498649999836,
                    "velocity": 0.28346456692913385,
                    "duration": 0.16364850000002207
                },
                {
                    "name": "A4",
                    "midi": 69,
                    "time": 312.5686349999984,
                    "velocity": 0.2992125984251969,
                    "duration": 0.16364850000002207
                },
                {
                    "name": "A#4",
                    "midi": 70,
                    "time": 312.7322834999984,
                    "velocity": 0.2755905511811024,
                    "duration": 0.16364850000002207
                },
                {
                    "name": "C5",
                    "midi": 72,
                    "time": 312.8959319999984,
                    "velocity": 0.3464566929133858,
                    "duration": 0.16364850000002207
                },
                {
                    "name": "A#4",
                    "midi": 70,
                    "time": 313.05958049999845,
                    "velocity": 0.29133858267716534,
                    "duration": 0.16364850000002207
                },
                {
                    "name": "A4",
                    "midi": 69,
                    "time": 313.22322899999847,
                    "velocity": 0.36220472440944884,
                    "duration": 1.472836500000028
                },
                {
                    "name": "C5",
                    "midi": 72,
                    "time": 314.6960654999985,
                    "velocity": 0.4409448818897638,
                    "duration": 0.16364850000002207
                },
                {
                    "name": "F5",
                    "midi": 77,
                    "time": 314.8597139999985,
                    "velocity": 0.4881889763779528,
                    "duration": 0.3272969999999873
                },
                {
                    "name": "F5",
                    "midi": 77,
                    "time": 315.1870109999985,
                    "velocity": 0.49606299212598426,
                    "duration": 0.9818910000000187
                },
                {
                    "name": "E5",
                    "midi": 76,
                    "time": 316.1689019999985,
                    "velocity": 0.44881889763779526,
                    "duration": 0.3272969999999873
                },
                {
                    "name": "C5",
                    "midi": 72,
                    "time": 317.1507929999985,
                    "velocity": 0.4015748031496063,
                    "duration": 0.9818910000000187
                },
                {
                    "name": "C5",
                    "midi": 72,
                    "time": 318.1326839999985,
                    "velocity": 0.48031496062992124,
                    "duration": 0.16364850000002207
                },
                {
                    "name": "D5",
                    "midi": 74,
                    "time": 318.2963324999985,
                    "velocity": 0.44881889763779526,
                    "duration": 0.054549500000007356
                },
                {
                    "name": "C5",
                    "midi": 72,
                    "time": 318.35088199999853,
                    "velocity": 0.4094488188976378,
                    "duration": 0.054549500000007356
                },
                {
                    "name": "B4",
                    "midi": 71,
                    "time": 318.40543149999854,
                    "velocity": 0.4094488188976378,
                    "duration": 0.054549500000007356
                },
                {
                    "name": "C5",
                    "midi": 72,
                    "time": 318.45998099999855,
                    "velocity": 0.48031496062992124,
                    "duration": 0.16364850000002207
                },
                {
                    "name": "G5",
                    "midi": 79,
                    "time": 318.6236294999986,
                    "velocity": 0.5590551181102362,
                    "duration": 0.16364850000002207
                },
                {
                    "name": "A#5",
                    "midi": 82,
                    "time": 318.7872779999986,
                    "velocity": 0.5984251968503937,
                    "duration": 0.3272969999999873
                },
                {
                    "name": "A#5",
                    "midi": 82,
                    "time": 319.1145749999986,
                    "velocity": 0.6141732283464567,
                    "duration": 0.9818910000000187
                },
                {
                    "name": "A5",
                    "midi": 81,
                    "time": 320.0964659999986,
                    "velocity": 0.5433070866141733,
                    "duration": 0.3272969999999873
                },
                {
                    "name": "A4",
                    "midi": 69,
                    "time": 321.07835699999856,
                    "velocity": 0.4409448818897638,
                    "duration": 0.08182425000001103
                },
                {
                    "name": "A#4",
                    "midi": 70,
                    "time": 321.2420054999986,
                    "velocity": 0.4566929133858268,
                    "duration": 0.08182425000001103
                },
                {
                    "name": "C5",
                    "midi": 72,
                    "time": 321.4056539999986,
                    "velocity": 0.47244094488188976,
                    "duration": 0.08182425000001103
                },
                {
                    "name": "D5",
                    "midi": 74,
                    "time": 321.5693024999986,
                    "velocity": 0.4881889763779528,
                    "duration": 0.08182425000001103
                },
                {
                    "name": "E5",
                    "midi": 76,
                    "time": 321.73295099999865,
                    "velocity": 0.5039370078740157,
                    "duration": 0.08182425000001103
                },
                {
                    "name": "F5",
                    "midi": 77,
                    "time": 321.8965994999987,
                    "velocity": 0.5118110236220472,
                    "duration": 0.08182425000001103
                },
                {
                    "name": "G5",
                    "midi": 79,
                    "time": 322.0602479999987,
                    "velocity": 0.5275590551181102,
                    "duration": 0.08182425000001103
                },
                {
                    "name": "A5",
                    "midi": 81,
                    "time": 322.2238964999987,
                    "velocity": 0.5590551181102362,
                    "duration": 0.08182425000001103
                },
                {
                    "name": "A#5",
                    "midi": 82,
                    "time": 322.38754499999874,
                    "velocity": 0.5826771653543307,
                    "duration": 0.08182425000001103
                },
                {
                    "name": "C6",
                    "midi": 84,
                    "time": 322.55119349999876,
                    "velocity": 0.6062992125984252,
                    "duration": 0.08182425000001103
                },
                {
                    "name": "D6",
                    "midi": 86,
                    "time": 322.7148419999988,
                    "velocity": 0.6299212598425197,
                    "duration": 0.08182425000001103
                },
                {
                    "name": "E6",
                    "midi": 88,
                    "time": 322.8784904999988,
                    "velocity": 0.6535433070866141,
                    "duration": 0.08182425000001103
                },
                {
                    "name": "F6",
                    "midi": 89,
                    "time": 323.0421389999988,
                    "velocity": 0.7086614173228346,
                    "duration": 0.9818910000000187
                },
                {
                    "name": "E6",
                    "midi": 88,
                    "time": 324.02402999999885,
                    "velocity": 0.5590551181102362,
                    "duration": 0.3272969999999873
                },
                {
                    "name": "C4",
                    "midi": 60,
                    "time": 325.0059209999988,
                    "velocity": 0.4409448818897638,
                    "duration": 0.08182425000001103
                },
                {
                    "name": "D4",
                    "midi": 62,
                    "time": 325.16956949999883,
                    "velocity": 0.4566929133858268,
                    "duration": 0.08182425000001103
                },
                {
                    "name": "E4",
                    "midi": 64,
                    "time": 325.33321799999885,
                    "velocity": 0.47244094488188976,
                    "duration": 0.08182425000001103
                },
                {
                    "name": "F4",
                    "midi": 65,
                    "time": 325.4968664999989,
                    "velocity": 0.4881889763779528,
                    "duration": 0.08182425000001103
                },
                {
                    "name": "G4",
                    "midi": 67,
                    "time": 325.6605149999989,
                    "velocity": 0.5039370078740157,
                    "duration": 0.08182425000001103
                },
                {
                    "name": "A4",
                    "midi": 69,
                    "time": 325.8241634999989,
                    "velocity": 0.5118110236220472,
                    "duration": 0.08182425000001103
                },
                {
                    "name": "A#4",
                    "midi": 70,
                    "time": 325.98781199999894,
                    "velocity": 0.5590551181102362,
                    "duration": 0.08182425000001103
                },
                {
                    "name": "C5",
                    "midi": 72,
                    "time": 326.15146049999896,
                    "velocity": 0.5590551181102362,
                    "duration": 0.08182425000001103
                },
                {
                    "name": "D5",
                    "midi": 74,
                    "time": 326.315108999999,
                    "velocity": 0.5748031496062992,
                    "duration": 0.08182425000001103
                },
                {
                    "name": "E5",
                    "midi": 76,
                    "time": 326.478757499999,
                    "velocity": 0.5905511811023622,
                    "duration": 0.08182425000001103
                },
                {
                    "name": "F5",
                    "midi": 77,
                    "time": 326.642405999999,
                    "velocity": 0.6456692913385826,
                    "duration": 0.08182425000001103
                },
                {
                    "name": "G5",
                    "midi": 79,
                    "time": 326.80605449999905,
                    "velocity": 0.6614173228346457,
                    "duration": 0.08182425000001103
                },
                {
                    "name": "G#5",
                    "midi": 80,
                    "time": 326.9697029999991,
                    "velocity": 0.7244094488188977,
                    "duration": 1.309188000000006
                },
                {
                    "name": "G5",
                    "midi": 79,
                    "time": 328.2788909999991,
                    "velocity": 0.6062992125984252,
                    "duration": 0.3272969999999873
                },
                {
                    "name": "F5",
                    "midi": 77,
                    "time": 328.60618799999907,
                    "velocity": 0.6062992125984252,
                    "duration": 0.3272969999999873
                },
                {
                    "name": "D#5",
                    "midi": 75,
                    "time": 328.93348499999905,
                    "velocity": 0.6614173228346457,
                    "duration": 0.7364182499999856
                },
                {
                    "name": "F5",
                    "midi": 77,
                    "time": 329.66990324999904,
                    "velocity": 0.44881889763779526,
                    "duration": 0.054549500000007356
                },
                {
                    "name": "D#5",
                    "midi": 75,
                    "time": 329.72445274999905,
                    "velocity": 0.48031496062992124,
                    "duration": 0.054549500000007356
                },
                {
                    "name": "D5",
                    "midi": 74,
                    "time": 329.77900224999905,
                    "velocity": 0.5118110236220472,
                    "duration": 0.054549500000007356
                },
                {
                    "name": "D#5",
                    "midi": 75,
                    "time": 329.83355174999906,
                    "velocity": 0.5433070866141733,
                    "duration": 0.08182425000001103
                },
                {
                    "name": "G5",
                    "midi": 79,
                    "time": 329.91537599999907,
                    "velocity": 0.6614173228346457,
                    "duration": 0.3272969999999873
                },
                {
                    "name": "F5",
                    "midi": 77,
                    "time": 330.24267299999906,
                    "velocity": 0.6141732283464567,
                    "duration": 0.3272969999999873
                },
                {
                    "name": "D5",
                    "midi": 74,
                    "time": 330.56996999999905,
                    "velocity": 0.6141732283464567,
                    "duration": 0.3272969999999873
                },
                {
                    "name": "D#4",
                    "midi": 63,
                    "time": 330.89726699999903,
                    "velocity": 0.5196850393700787,
                    "duration": 1.472836500000028
                },
                {
                    "name": "D#5",
                    "midi": 75,
                    "time": 330.89726699999903,
                    "velocity": 0.7007874015748031,
                    "duration": 1.472836500000028
                },
                {
                    "name": "G4",
                    "midi": 67,
                    "time": 332.37010349999906,
                    "velocity": 0.49606299212598426,
                    "duration": 0.16364850000002207
                },
                {
                    "name": "G5",
                    "midi": 79,
                    "time": 332.37010349999906,
                    "velocity": 0.6614173228346457,
                    "duration": 0.16364850000002207
                },
                {
                    "name": "C5",
                    "midi": 72,
                    "time": 332.5337519999991,
                    "velocity": 0.5669291338582677,
                    "duration": 0.3272969999999873
                },
                {
                    "name": "C6",
                    "midi": 84,
                    "time": 332.5337519999991,
                    "velocity": 0.7637795275590551,
                    "duration": 0.3272969999999873
                },
                {
                    "name": "C5",
                    "midi": 72,
                    "time": 332.86104899999907,
                    "velocity": 0.5748031496062992,
                    "duration": 0.9818910000000187
                },
                {
                    "name": "C6",
                    "midi": 84,
                    "time": 332.86104899999907,
                    "velocity": 0.7716535433070866,
                    "duration": 0.9818910000000187
                },
                {
                    "name": "B4",
                    "midi": 71,
                    "time": 333.8429399999991,
                    "velocity": 0.49606299212598426,
                    "duration": 0.3272969999999873
                },
                {
                    "name": "B5",
                    "midi": 83,
                    "time": 333.8429399999991,
                    "velocity": 0.6692913385826772,
                    "duration": 0.3272969999999873
                },
                {
                    "name": "G4",
                    "midi": 67,
                    "time": 334.82483099999905,
                    "velocity": 0.5196850393700787,
                    "duration": 1.472836500000028
                },
                {
                    "name": "G5",
                    "midi": 79,
                    "time": 334.82483099999905,
                    "velocity": 0.7007874015748031,
                    "duration": 1.472836500000028
                },
                {
                    "name": "D5",
                    "midi": 74,
                    "time": 336.2976674999991,
                    "velocity": 0.49606299212598426,
                    "duration": 0.16364850000002207
                },
                {
                    "name": "D6",
                    "midi": 86,
                    "time": 336.2976674999991,
                    "velocity": 0.6614173228346457,
                    "duration": 0.16364850000002207
                },
                {
                    "name": "F5",
                    "midi": 77,
                    "time": 336.4613159999991,
                    "velocity": 0.5669291338582677,
                    "duration": 0.32047831249997216
                },
                {
                    "name": "F6",
                    "midi": 89,
                    "time": 336.4613159999991,
                    "velocity": 0.7637795275590551,
                    "duration": 0.32047831249997216
                },
                {
                    "name": "F5",
                    "midi": 77,
                    "time": 336.7886129999991,
                    "velocity": 0.5748031496062992,
                    "duration": 0.9818910000000187
                },
                {
                    "name": "F6",
                    "midi": 89,
                    "time": 336.7886129999991,
                    "velocity": 0.7716535433070866,
                    "duration": 0.9818910000000187
                },
                {
                    "name": "D#5",
                    "midi": 75,
                    "time": 337.7705039999991,
                    "velocity": 0.5196850393700787,
                    "duration": 0.3272969999999873
                },
                {
                    "name": "D#6",
                    "midi": 87,
                    "time": 337.7705039999991,
                    "velocity": 0.6929133858267716,
                    "duration": 0.3272969999999873
                },
                {
                    "name": "D#4",
                    "midi": 63,
                    "time": 338.75239499999907,
                    "velocity": 0.7007874015748031,
                    "duration": 0.16364850000002207
                },
                {
                    "name": "G4",
                    "midi": 67,
                    "time": 338.9160434999991,
                    "velocity": 0.5905511811023622,
                    "duration": 0.16364850000002207
                },
                {
                    "name": "C5",
                    "midi": 72,
                    "time": 339.0796919999991,
                    "velocity": 0.6220472440944882,
                    "duration": 0.16364850000002207
                },
                {
                    "name": "G4",
                    "midi": 67,
                    "time": 339.24334049999914,
                    "velocity": 0.6220472440944882,
                    "duration": 0.16364850000002207
                },
                {
                    "name": "C5",
                    "midi": 72,
                    "time": 339.40698899999916,
                    "velocity": 0.6535433070866141,
                    "duration": 0.16364850000002207
                },
                {
                    "name": "D#5",
                    "midi": 75,
                    "time": 339.5706374999992,
                    "velocity": 0.7007874015748031,
                    "duration": 0.16364850000002207
                },
                {
                    "name": "C5",
                    "midi": 72,
                    "time": 339.7342859999992,
                    "velocity": 0.7007874015748031,
                    "duration": 0.16364850000002207
                },
                {
                    "name": "D#5",
                    "midi": 75,
                    "time": 339.8979344999992,
                    "velocity": 0.6062992125984252,
                    "duration": 0.16364850000002207
                },
                {
                    "name": "G5",
                    "midi": 79,
                    "time": 340.06158299999925,
                    "velocity": 0.6535433070866141,
                    "duration": 0.16364850000002207
                },
                {
                    "name": "D#5",
                    "midi": 75,
                    "time": 340.22523149999927,
                    "velocity": 0.7007874015748031,
                    "duration": 0.16364850000002207
                },
                {
                    "name": "G5",
                    "midi": 79,
                    "time": 340.3888799999993,
                    "velocity": 0.6535433070866141,
                    "duration": 0.16364850000002207
                },
                {
                    "name": "C6",
                    "midi": 84,
                    "time": 340.5525284999993,
                    "velocity": 0.7007874015748031,
                    "duration": 0.15682981250000694
                },
                {
                    "name": "C6",
                    "midi": 84,
                    "time": 340.71617699999933,
                    "velocity": 0.7716535433070866,
                    "duration": 0.9818910000000187
                },
                {
                    "name": "B5",
                    "midi": 83,
                    "time": 341.69806799999935,
                    "velocity": 0.7244094488188977,
                    "duration": 0.3272969999999873
                },
                {
                    "name": "G3",
                    "midi": 55,
                    "time": 342.6799589999993,
                    "velocity": 0.6299212598425197,
                    "duration": 0.16364850000002207
                },
                {
                    "name": "B3",
                    "midi": 59,
                    "time": 342.84360749999934,
                    "velocity": 0.5275590551181102,
                    "duration": 0.16364850000002207
                },
                {
                    "name": "D4",
                    "midi": 62,
                    "time": 343.00725599999936,
                    "velocity": 0.5590551181102362,
                    "duration": 0.16364850000002207
                },
                {
                    "name": "B3",
                    "midi": 59,
                    "time": 343.1709044999994,
                    "velocity": 0.5590551181102362,
                    "duration": 0.16364850000002207
                },
                {
                    "name": "D4",
                    "midi": 62,
                    "time": 343.3345529999994,
                    "velocity": 0.5826771653543307,
                    "duration": 0.16364850000002207
                },
                {
                    "name": "G4",
                    "midi": 67,
                    "time": 343.4982014999994,
                    "velocity": 0.6299212598425197,
                    "duration": 0.16364850000002207
                },
                {
                    "name": "D4",
                    "midi": 62,
                    "time": 343.66184999999945,
                    "velocity": 0.6299212598425197,
                    "duration": 0.16364850000002207
                },
                {
                    "name": "G4",
                    "midi": 67,
                    "time": 343.82549849999947,
                    "velocity": 0.5433070866141733,
                    "duration": 0.16364850000002207
                },
                {
                    "name": "B4",
                    "midi": 71,
                    "time": 343.9891469999995,
                    "velocity": 0.5826771653543307,
                    "duration": 0.16364850000002207
                },
                {
                    "name": "G4",
                    "midi": 67,
                    "time": 344.1527954999995,
                    "velocity": 0.6299212598425197,
                    "duration": 0.16364850000002207
                },
                {
                    "name": "B4",
                    "midi": 71,
                    "time": 344.31644399999954,
                    "velocity": 0.5826771653543307,
                    "duration": 0.16364850000002207
                },
                {
                    "name": "D5",
                    "midi": 74,
                    "time": 344.48009249999956,
                    "velocity": 0.6299212598425197,
                    "duration": 0.16364850000002207
                },
                {
                    "name": "D#5",
                    "midi": 75,
                    "time": 344.6437409999996,
                    "velocity": 0.6771653543307087,
                    "duration": 0.3272969999999873
                },
                {
                    "name": "C6",
                    "midi": 84,
                    "time": 345.29833499999955,
                    "velocity": 0.7874015748031497,
                    "duration": 0.9818910000000187
                },
                {
                    "name": "E3",
                    "midi": 52,
                    "time": 346.2802259999996,
                    "velocity": 0.6062992125984252,
                    "duration": 0.3272969999999873
                },
                {
                    "name": "F3",
                    "midi": 53,
                    "time": 346.60752299999956,
                    "velocity": 0.6456692913385826,
                    "duration": 0.9818910000000187
                },
                {
                    "name": "F#3",
                    "midi": 54,
                    "time": 347.5894139999996,
                    "velocity": 0.6614173228346457,
                    "duration": 0.9818910000000187
                },
                {
                    "name": "G3",
                    "midi": 55,
                    "time": 348.5713049999996,
                    "velocity": 0.6614173228346457,
                    "duration": 0.9818910000000187
                },
                {
                    "name": "F3",
                    "midi": 53,
                    "time": 349.5531959999996,
                    "velocity": 0.6614173228346457,
                    "duration": 0.08182425000001103
                },
                {
                    "name": "G3",
                    "midi": 55,
                    "time": 349.6350202499996,
                    "velocity": 0.44881889763779526,
                    "duration": 0.08182425000001103
                },
                {
                    "name": "F3",
                    "midi": 53,
                    "time": 349.71684449999964,
                    "velocity": 0.48031496062992124,
                    "duration": 0.054549500000007356
                },
                {
                    "name": "G3",
                    "midi": 55,
                    "time": 349.77139399999965,
                    "velocity": 0.44881889763779526,
                    "duration": 0.054549500000007356
                },
                {
                    "name": "F3",
                    "midi": 53,
                    "time": 349.82594349999965,
                    "velocity": 0.5039370078740157,
                    "duration": 0.054549500000007356
                },
                {
                    "name": "G3",
                    "midi": 55,
                    "time": 349.88049299999966,
                    "velocity": 0.4409448818897638,
                    "duration": 0.054549500000007356
                },
                {
                    "name": "F3",
                    "midi": 53,
                    "time": 349.93504249999967,
                    "velocity": 0.5039370078740157,
                    "duration": 0.054549500000007356
                },
                {
                    "name": "G3",
                    "midi": 55,
                    "time": 349.9895919999997,
                    "velocity": 0.4409448818897638,
                    "duration": 0.054549500000007356
                },
                {
                    "name": "F3",
                    "midi": 53,
                    "time": 350.0441414999997,
                    "velocity": 0.5039370078740157,
                    "duration": 0.054549500000007356
                },
                {
                    "name": "G3",
                    "midi": 55,
                    "time": 350.0986909999997,
                    "velocity": 0.4330708661417323,
                    "duration": 0.054549500000007356
                },
                {
                    "name": "F3",
                    "midi": 53,
                    "time": 350.1532404999997,
                    "velocity": 0.5039370078740157,
                    "duration": 0.054549500000007356
                },
                {
                    "name": "G3",
                    "midi": 55,
                    "time": 350.2077899999997,
                    "velocity": 0.4251968503937008,
                    "duration": 0.08182425000001103
                },
                {
                    "name": "F3",
                    "midi": 53,
                    "time": 350.2896142499997,
                    "velocity": 0.4645669291338583,
                    "duration": 0.08182425000001103
                },
                {
                    "name": "E3",
                    "midi": 52,
                    "time": 350.3714384999997,
                    "velocity": 0.4330708661417323,
                    "duration": 0.08182425000001103
                },
                {
                    "name": "F3",
                    "midi": 53,
                    "time": 350.45326274999974,
                    "velocity": 0.44881889763779526,
                    "duration": 0.08182425000001103
                },
                {
                    "name": "D#3",
                    "midi": 51,
                    "time": 350.53508699999975,
                    "velocity": 0.5826771653543307,
                    "duration": 0.16364850000002207
                },
                {
                    "name": "G3",
                    "midi": 55,
                    "time": 350.69873549999977,
                    "velocity": 0.47244094488188976,
                    "duration": 0.16364850000002207
                },
                {
                    "name": "C4",
                    "midi": 60,
                    "time": 350.8623839999998,
                    "velocity": 0.5354330708661418,
                    "duration": 0.16364850000002207
                },
                {
                    "name": "G3",
                    "midi": 55,
                    "time": 351.0260324999998,
                    "velocity": 0.48031496062992124,
                    "duration": 0.16364850000002207
                },
                {
                    "name": "C4",
                    "midi": 60,
                    "time": 351.18968099999984,
                    "velocity": 0.5433070866141733,
                    "duration": 0.16364850000002207
                },
                {
                    "name": "D#4",
                    "midi": 63,
                    "time": 351.35332949999986,
                    "velocity": 0.49606299212598426,
                    "duration": 0.16364850000002207
                },
                {
                    "name": "G4",
                    "midi": 67,
                    "time": 351.5169779999999,
                    "velocity": 0.5433070866141733,
                    "duration": 0.16364850000002207
                },
                {
                    "name": "D#4",
                    "midi": 63,
                    "time": 351.6806264999999,
                    "velocity": 0.47244094488188976,
                    "duration": 0.16364850000002207
                },
                {
                    "name": "G4",
                    "midi": 67,
                    "time": 351.8442749999999,
                    "velocity": 0.5748031496062992,
                    "duration": 0.16364850000002207
                },
                {
                    "name": "C5",
                    "midi": 72,
                    "time": 352.00792349999995,
                    "velocity": 0.5354330708661418,
                    "duration": 0.16364850000002207
                },
                {
                    "name": "D#5",
                    "midi": 75,
                    "time": 352.17157199999997,
                    "velocity": 0.6299212598425197,
                    "duration": 0.16364850000002207
                },
                {
                    "name": "G5",
                    "midi": 79,
                    "time": 352.3352205,
                    "velocity": 0.5748031496062992,
                    "duration": 0.16364850000002207
                },
                {
                    "name": "C6",
                    "midi": 84,
                    "time": 352.498869,
                    "velocity": 0.7007874015748031,
                    "duration": 0.16364850000002207
                },
                {
                    "name": "C4",
                    "midi": 60,
                    "time": 353.15346300000004,
                    "velocity": 0.6614173228346457,
                    "duration": 0.9818910000000187
                },
                {
                    "name": "E3",
                    "midi": 52,
                    "time": 354.13535400000006,
                    "velocity": 0.6377952755905512,
                    "duration": 0.3272969999999873
                },
                {
                    "name": "F3",
                    "midi": 53,
                    "time": 354.46265100000005,
                    "velocity": 0.6614173228346457,
                    "duration": 0.6545939999999746
                },
                {
                    "name": "C4",
                    "midi": 60,
                    "time": 355.117245,
                    "velocity": 0.6614173228346457,
                    "duration": 0.3272969999999873
                },
                {
                    "name": "F#3",
                    "midi": 54,
                    "time": 355.444542,
                    "velocity": 0.7244094488188977,
                    "duration": 0.6545939999999746
                },
                {
                    "name": "C4",
                    "midi": 60,
                    "time": 356.099136,
                    "velocity": 0.6614173228346457,
                    "duration": 0.3272969999999873
                },
                {
                    "name": "G3",
                    "midi": 55,
                    "time": 356.426433,
                    "velocity": 0.6929133858267716,
                    "duration": 0.16364850000002207
                },
                {
                    "name": "C4",
                    "midi": 60,
                    "time": 356.5900815,
                    "velocity": 0.4881889763779528,
                    "duration": 0.16364850000002207
                },
                {
                    "name": "B3",
                    "midi": 59,
                    "time": 356.75373,
                    "velocity": 0.5826771653543307,
                    "duration": 0.16364850000002207
                },
                {
                    "name": "C4",
                    "midi": 60,
                    "time": 356.91737850000004,
                    "velocity": 0.4881889763779528,
                    "duration": 0.16364850000002207
                },
                {
                    "name": "G3",
                    "midi": 55,
                    "time": 357.08102700000006,
                    "velocity": 0.5669291338582677,
                    "duration": 0.16364850000002207
                },
                {
                    "name": "C4",
                    "midi": 60,
                    "time": 357.2446755000001,
                    "velocity": 0.4881889763779528,
                    "duration": 0.16364850000002207
                },
                {
                    "name": "G#3",
                    "midi": 56,
                    "time": 357.4083240000001,
                    "velocity": 0.6456692913385826,
                    "duration": 0.16364850000002207
                },
                {
                    "name": "C4",
                    "midi": 60,
                    "time": 357.57197250000013,
                    "velocity": 0.4881889763779528,
                    "duration": 0.16364850000002207
                },
                {
                    "name": "B3",
                    "midi": 59,
                    "time": 357.73562100000015,
                    "velocity": 0.5748031496062992,
                    "duration": 0.16364850000002207
                },
                {
                    "name": "C4",
                    "midi": 60,
                    "time": 357.8992695000002,
                    "velocity": 0.5039370078740157,
                    "duration": 0.16364850000002207
                },
                {
                    "name": "F#3",
                    "midi": 54,
                    "time": 358.0629180000002,
                    "velocity": 0.5748031496062992,
                    "duration": 0.16364850000002207
                },
                {
                    "name": "C4",
                    "midi": 60,
                    "time": 358.2265665000002,
                    "velocity": 0.4881889763779528,
                    "duration": 0.16364850000002207
                },
                {
                    "name": "G3",
                    "midi": 55,
                    "time": 358.39021500000024,
                    "velocity": 0.6929133858267716,
                    "duration": 0.16364850000002207
                },
                {
                    "name": "C4",
                    "midi": 60,
                    "time": 358.55386350000026,
                    "velocity": 0.49606299212598426,
                    "duration": 0.16364850000002207
                },
                {
                    "name": "B3",
                    "midi": 59,
                    "time": 358.7175120000003,
                    "velocity": 0.5748031496062992,
                    "duration": 0.16364850000002207
                },
                {
                    "name": "C4",
                    "midi": 60,
                    "time": 358.8811605000003,
                    "velocity": 0.4881889763779528,
                    "duration": 0.16364850000002207
                },
                {
                    "name": "E3",
                    "midi": 52,
                    "time": 359.0448090000003,
                    "velocity": 0.5826771653543307,
                    "duration": 0.16364850000002207
                },
                {
                    "name": "C4",
                    "midi": 60,
                    "time": 359.20845750000035,
                    "velocity": 0.5118110236220472,
                    "duration": 0.16364850000002207
                },
                {
                    "name": "F3",
                    "midi": 53,
                    "time": 359.3721060000004,
                    "velocity": 0.6929133858267716,
                    "duration": 0.16364850000002207
                },
                {
                    "name": "C4",
                    "midi": 60,
                    "time": 359.5357545000004,
                    "velocity": 0.5039370078740157,
                    "duration": 0.16364850000002207
                },
                {
                    "name": "G#3",
                    "midi": 56,
                    "time": 359.6994030000004,
                    "velocity": 0.5590551181102362,
                    "duration": 0.16364850000002207
                },
                {
                    "name": "C4",
                    "midi": 60,
                    "time": 359.86305150000044,
                    "velocity": 0.5118110236220472,
                    "duration": 0.16364850000002207
                },
                {
                    "name": "F#3",
                    "midi": 54,
                    "time": 360.02670000000046,
                    "velocity": 0.6299212598425197,
                    "duration": 0.16364850000002207
                },
                {
                    "name": "C4",
                    "midi": 60,
                    "time": 360.1903485000005,
                    "velocity": 0.5669291338582677,
                    "duration": 0.16364850000002207
                },
                {
                    "name": "G3",
                    "midi": 55,
                    "time": 360.3539970000005,
                    "velocity": 0.7322834645669292,
                    "duration": 0.3272969999999873
                },
                {
                    "name": "G4",
                    "midi": 67,
                    "time": 360.92676675000047,
                    "velocity": 0.6377952755905512,
                    "duration": 0.08182425000001103
                },
                {
                    "name": "D#5",
                    "midi": 75,
                    "time": 361.0085910000005,
                    "velocity": 0.6850393700787402,
                    "duration": 0.24547274999997626
                },
                {
                    "name": "C5",
                    "midi": 72,
                    "time": 361.25406375000046,
                    "velocity": 0.6614173228346457,
                    "duration": 0.08182425000001103
                },
                {
                    "name": "F#5",
                    "midi": 78,
                    "time": 361.33588800000047,
                    "velocity": 0.7322834645669292,
                    "duration": 0.08182425000001103
                },
                {
                    "name": "F#4",
                    "midi": 66,
                    "time": 361.9086577500005,
                    "velocity": 0.6377952755905512,
                    "duration": 0.08182425000001103
                },
                {
                    "name": "D#5",
                    "midi": 75,
                    "time": 361.9904820000005,
                    "velocity": 0.6850393700787402,
                    "duration": 0.24547274999997626
                },
                {
                    "name": "C5",
                    "midi": 72,
                    "time": 362.2359547500005,
                    "velocity": 0.6614173228346457,
                    "duration": 0.08182425000001103
                },
                {
                    "name": "G5",
                    "midi": 79,
                    "time": 362.3177790000005,
                    "velocity": 0.7322834645669292,
                    "duration": 0.08182425000001103
                },
                {
                    "name": "G4",
                    "midi": 67,
                    "time": 362.8905487500005,
                    "velocity": 0.6377952755905512,
                    "duration": 0.08182425000001103
                },
                {
                    "name": "D#5",
                    "midi": 75,
                    "time": 362.9723730000005,
                    "velocity": 0.6850393700787402,
                    "duration": 0.24547274999997626
                },
                {
                    "name": "C5",
                    "midi": 72,
                    "time": 363.2178457500005,
                    "velocity": 0.6614173228346457,
                    "duration": 0.08182425000001103
                },
                {
                    "name": "A5",
                    "midi": 81,
                    "time": 363.2996700000005,
                    "velocity": 0.7322834645669292,
                    "duration": 0.08182425000001103
                },
                {
                    "name": "A4",
                    "midi": 69,
                    "time": 363.8724397500005,
                    "velocity": 0.6377952755905512,
                    "duration": 0.08182425000001103
                },
                {
                    "name": "D#5",
                    "midi": 75,
                    "time": 363.95426400000053,
                    "velocity": 0.6850393700787402,
                    "duration": 0.24547274999997626
                },
                {
                    "name": "C5",
                    "midi": 72,
                    "time": 364.1997367500005,
                    "velocity": 0.6614173228346457,
                    "duration": 0.08182425000001103
                },
                {
                    "name": "G5",
                    "midi": 79,
                    "time": 364.2815610000005,
                    "velocity": 0.7480314960629921,
                    "duration": 0.49094550000000936
                },
                {
                    "name": "D#5",
                    "midi": 75,
                    "time": 364.77250650000053,
                    "velocity": 0.6692913385826772,
                    "duration": 0.16364850000002207
                },
                {
                    "name": "D#5",
                    "midi": 75,
                    "time": 364.93615500000055,
                    "velocity": 0.7322834645669292,
                    "duration": 0.16364850000002207
                },
                {
                    "name": "C5",
                    "midi": 72,
                    "time": 365.0998035000006,
                    "velocity": 0.6220472440944882,
                    "duration": 0.12273637499998813
                },
                {
                    "name": "C5",
                    "midi": 72,
                    "time": 365.26345200000054,
                    "velocity": 0.6929133858267716,
                    "duration": 0.16364850000002207
                },
                {
                    "name": "G4",
                    "midi": 67,
                    "time": 365.42710050000056,
                    "velocity": 0.6141732283464567,
                    "duration": 0.12273637499998813
                },
                {
                    "name": "G4",
                    "midi": 67,
                    "time": 365.5907490000005,
                    "velocity": 0.6692913385826772,
                    "duration": 0.16364850000002207
                },
                {
                    "name": "D#4",
                    "midi": 63,
                    "time": 365.75439750000055,
                    "velocity": 0.6062992125984252,
                    "duration": 0.12273637499998813
                },
                {
                    "name": "D#4",
                    "midi": 63,
                    "time": 365.9180460000005,
                    "velocity": 0.6377952755905512,
                    "duration": 0.16364850000002207
                },
                {
                    "name": "C4",
                    "midi": 60,
                    "time": 366.08169450000054,
                    "velocity": 0.6062992125984252,
                    "duration": 0.12273637499998813
                },
                {
                    "name": "G3",
                    "midi": 55,
                    "time": 367.88182800000055,
                    "velocity": 0.5196850393700787,
                    "duration": 0.3272969999999873
                },
                {
                    "name": "B3",
                    "midi": 59,
                    "time": 367.88182800000055,
                    "velocity": 0.6141732283464567,
                    "duration": 0.3272969999999873
                },
                {
                    "name": "G3",
                    "midi": 55,
                    "time": 368.20912500000054,
                    "velocity": 0.5511811023622047,
                    "duration": 0.3272969999999873
                },
                {
                    "name": "C4",
                    "midi": 60,
                    "time": 368.20912500000054,
                    "velocity": 0.6535433070866141,
                    "duration": 0.3272969999999873
                },
                {
                    "name": "G4",
                    "midi": 67,
                    "time": 369.51831300000055,
                    "velocity": 0.41732283464566927,
                    "duration": 0.3272969999999873
                },
                {
                    "name": "D4",
                    "midi": 62,
                    "time": 369.51831300000055,
                    "velocity": 0.33070866141732286,
                    "duration": 0.3272969999999873
                },
                {
                    "name": "F4",
                    "midi": 65,
                    "time": 369.51831300000055,
                    "velocity": 0.33070866141732286,
                    "duration": 0.3272969999999873
                },
                {
                    "name": "B3",
                    "midi": 59,
                    "time": 369.51831300000055,
                    "velocity": 0.33070866141732286,
                    "duration": 0.3272969999999873
                },
                {
                    "name": "B3",
                    "midi": 59,
                    "time": 369.84561000000053,
                    "velocity": 0.2992125984251969,
                    "duration": 0.3272969999999873
                },
                {
                    "name": "D4",
                    "midi": 62,
                    "time": 369.84561000000053,
                    "velocity": 0.2992125984251969,
                    "duration": 0.3272969999999873
                },
                {
                    "name": "F4",
                    "midi": 65,
                    "time": 369.84561000000053,
                    "velocity": 0.2992125984251969,
                    "duration": 0.3272969999999873
                },
                {
                    "name": "G4",
                    "midi": 67,
                    "time": 369.84561000000053,
                    "velocity": 0.3779527559055118,
                    "duration": 0.3272969999999873
                },
                {
                    "name": "C4",
                    "midi": 60,
                    "time": 370.1729070000005,
                    "velocity": 0.33070866141732286,
                    "duration": 0.6545939999999746
                },
                {
                    "name": "D#4",
                    "midi": 63,
                    "time": 370.1729070000005,
                    "velocity": 0.33070866141732286,
                    "duration": 0.6545939999999746
                },
                {
                    "name": "G#4",
                    "midi": 68,
                    "time": 370.1729070000005,
                    "velocity": 0.41732283464566927,
                    "duration": 0.3272969999999873
                },
                {
                    "name": "G4",
                    "midi": 67,
                    "time": 370.5002040000005,
                    "velocity": 0.3858267716535433,
                    "duration": 0.3272969999999873
                },
                {
                    "name": "D4",
                    "midi": 62,
                    "time": 371.48209500000047,
                    "velocity": 0.33070866141732286,
                    "duration": 0.3272969999999873
                },
                {
                    "name": "F4",
                    "midi": 65,
                    "time": 371.48209500000047,
                    "velocity": 0.33070866141732286,
                    "duration": 0.3272969999999873
                },
                {
                    "name": "B4",
                    "midi": 71,
                    "time": 371.48209500000047,
                    "velocity": 0.41732283464566927,
                    "duration": 0.3272969999999873
                },
                {
                    "name": "D4",
                    "midi": 62,
                    "time": 371.80939200000046,
                    "velocity": 0.2992125984251969,
                    "duration": 0.3272969999999873
                },
                {
                    "name": "F4",
                    "midi": 65,
                    "time": 371.80939200000046,
                    "velocity": 0.2992125984251969,
                    "duration": 0.3272969999999873
                },
                {
                    "name": "B4",
                    "midi": 71,
                    "time": 371.80939200000046,
                    "velocity": 0.3779527559055118,
                    "duration": 0.3272969999999873
                },
                {
                    "name": "D#4",
                    "midi": 63,
                    "time": 372.13668900000044,
                    "velocity": 0.33070866141732286,
                    "duration": 0.6545939999999746
                },
                {
                    "name": "G4",
                    "midi": 67,
                    "time": 372.13668900000044,
                    "velocity": 0.33070866141732286,
                    "duration": 0.6545939999999746
                },
                {
                    "name": "D5",
                    "midi": 74,
                    "time": 372.13668900000044,
                    "velocity": 0.41732283464566927,
                    "duration": 0.3272969999999873
                },
                {
                    "name": "C5",
                    "midi": 72,
                    "time": 372.46398600000043,
                    "velocity": 0.3858267716535433,
                    "duration": 0.3272969999999873
                },
                {
                    "name": "B3",
                    "midi": 59,
                    "time": 373.4458770000004,
                    "velocity": 0.33070866141732286,
                    "duration": 0.3272969999999873
                },
                {
                    "name": "D4",
                    "midi": 62,
                    "time": 373.4458770000004,
                    "velocity": 0.33070866141732286,
                    "duration": 0.3272969999999873
                },
                {
                    "name": "F4",
                    "midi": 65,
                    "time": 373.4458770000004,
                    "velocity": 0.33070866141732286,
                    "duration": 0.3272969999999873
                },
                {
                    "name": "G4",
                    "midi": 67,
                    "time": 373.4458770000004,
                    "velocity": 0.41732283464566927,
                    "duration": 0.3272969999999873
                },
                {
                    "name": "G4",
                    "midi": 67,
                    "time": 373.7731740000004,
                    "velocity": 0.3779527559055118,
                    "duration": 0.3272969999999873
                },
                {
                    "name": "D4",
                    "midi": 62,
                    "time": 373.7731740000004,
                    "velocity": 0.2992125984251969,
                    "duration": 0.3272969999999873
                },
                {
                    "name": "F4",
                    "midi": 65,
                    "time": 373.7731740000004,
                    "velocity": 0.2992125984251969,
                    "duration": 0.3272969999999873
                },
                {
                    "name": "B3",
                    "midi": 59,
                    "time": 373.7731740000004,
                    "velocity": 0.2992125984251969,
                    "duration": 0.3272969999999873
                },
                {
                    "name": "C4",
                    "midi": 60,
                    "time": 374.10047100000037,
                    "velocity": 0.33070866141732286,
                    "duration": 0.6545939999999746
                },
                {
                    "name": "D#4",
                    "midi": 63,
                    "time": 374.10047100000037,
                    "velocity": 0.33070866141732286,
                    "duration": 0.6545939999999746
                },
                {
                    "name": "G#4",
                    "midi": 68,
                    "time": 374.10047100000037,
                    "velocity": 0.41732283464566927,
                    "duration": 0.3272969999999873
                },
                {
                    "name": "G4",
                    "midi": 67,
                    "time": 374.42776800000036,
                    "velocity": 0.3858267716535433,
                    "duration": 0.3272969999999873
                },
                {
                    "name": "D3",
                    "midi": 50,
                    "time": 375.4096590000003,
                    "velocity": 0.33070866141732286,
                    "duration": 0.3272969999999873
                },
                {
                    "name": "F3",
                    "midi": 53,
                    "time": 375.4096590000003,
                    "velocity": 0.33070866141732286,
                    "duration": 0.3272969999999873
                },
                {
                    "name": "B3",
                    "midi": 59,
                    "time": 375.4096590000003,
                    "velocity": 0.41732283464566927,
                    "duration": 0.3272969999999873
                },
                {
                    "name": "D3",
                    "midi": 50,
                    "time": 375.7369560000003,
                    "velocity": 0.2992125984251969,
                    "duration": 0.3272969999999873
                },
                {
                    "name": "F3",
                    "midi": 53,
                    "time": 375.7369560000003,
                    "velocity": 0.2992125984251969,
                    "duration": 0.3272969999999873
                },
                {
                    "name": "B3",
                    "midi": 59,
                    "time": 375.7369560000003,
                    "velocity": 0.3779527559055118,
                    "duration": 0.3272969999999873
                },
                {
                    "name": "D#3",
                    "midi": 51,
                    "time": 376.0642530000003,
                    "velocity": 0.33070866141732286,
                    "duration": 0.6545939999999746
                },
                {
                    "name": "G3",
                    "midi": 55,
                    "time": 376.0642530000003,
                    "velocity": 0.33070866141732286,
                    "duration": 0.6545939999999746
                },
                {
                    "name": "D4",
                    "midi": 62,
                    "time": 376.0642530000003,
                    "velocity": 0.41732283464566927,
                    "duration": 0.3272969999999873
                },
                {
                    "name": "C4",
                    "midi": 60,
                    "time": 376.3915500000003,
                    "velocity": 0.3858267716535433,
                    "duration": 0.3272969999999873
                },
                {
                    "name": "D3",
                    "midi": 50,
                    "time": 377.37344100000024,
                    "velocity": 0.33070866141732286,
                    "duration": 0.3272969999999873
                },
                {
                    "name": "F3",
                    "midi": 53,
                    "time": 377.37344100000024,
                    "velocity": 0.33070866141732286,
                    "duration": 0.3272969999999873
                },
                {
                    "name": "B3",
                    "midi": 59,
                    "time": 377.37344100000024,
                    "velocity": 0.41732283464566927,
                    "duration": 0.3272969999999873
                },
                {
                    "name": "D3",
                    "midi": 50,
                    "time": 377.70073800000023,
                    "velocity": 0.2992125984251969,
                    "duration": 0.3272969999999873
                },
                {
                    "name": "F3",
                    "midi": 53,
                    "time": 377.70073800000023,
                    "velocity": 0.2992125984251969,
                    "duration": 0.3272969999999873
                },
                {
                    "name": "B3",
                    "midi": 59,
                    "time": 377.70073800000023,
                    "velocity": 0.3779527559055118,
                    "duration": 0.3272969999999873
                },
                {
                    "name": "D#3",
                    "midi": 51,
                    "time": 378.0280350000002,
                    "velocity": 0.33070866141732286,
                    "duration": 0.3272969999999873
                },
                {
                    "name": "G3",
                    "midi": 55,
                    "time": 378.0280350000002,
                    "velocity": 0.33070866141732286,
                    "duration": 0.3272969999999873
                },
                {
                    "name": "C4",
                    "midi": 60,
                    "time": 378.0280350000002,
                    "velocity": 0.41732283464566927,
                    "duration": 0.3272969999999873
                },
                {
                    "name": "G4",
                    "midi": 67,
                    "time": 379.0099260000002,
                    "velocity": 0.6456692913385826,
                    "duration": 0.3272969999999873
                },
                {
                    "name": "B4",
                    "midi": 71,
                    "time": 379.0099260000002,
                    "velocity": 0.6456692913385826,
                    "duration": 0.3272969999999873
                },
                {
                    "name": "D5",
                    "midi": 74,
                    "time": 379.0099260000002,
                    "velocity": 0.6456692913385826,
                    "duration": 0.3272969999999873
                },
                {
                    "name": "G5",
                    "midi": 79,
                    "time": 379.0099260000002,
                    "velocity": 0.7637795275590551,
                    "duration": 0.3272969999999873
                },
                {
                    "name": "C4",
                    "midi": 60,
                    "time": 379.99181700000014,
                    "velocity": 0.6456692913385826,
                    "duration": 0.3272969999999873
                },
                {
                    "name": "D#4",
                    "midi": 63,
                    "time": 379.99181700000014,
                    "velocity": 0.6456692913385826,
                    "duration": 0.3272969999999873
                },
                {
                    "name": "G4",
                    "midi": 67,
                    "time": 379.99181700000014,
                    "velocity": 0.6456692913385826,
                    "duration": 0.3272969999999873
                },
                {
                    "name": "C5",
                    "midi": 72,
                    "time": 379.99181700000014,
                    "velocity": 0.7637795275590551,
                    "duration": 0.3272969999999873
                }
            ],
            "controlChanges": {},
            "id": 1,
            "name": "Piano right",
            "instrumentNumber": 0,
            "instrument": "acoustic grand piano",
            "instrumentFamily": "piano",
            "channelNumber": 0,
            "isPercussion": false
        },
        {
            "startTime": 0,
            "duration": 380.31911400000075,
            "length": 1433,
            "notes": [
                {
                    "name": "C4",
                    "midi": 60,
                    "time": 0,
                    "velocity": 0.5511811023622047,
                    "duration": 0.49094550000000003
                },
                {
                    "name": "G3",
                    "midi": 55,
                    "time": 0,
                    "velocity": 0.4645669291338583,
                    "duration": 0.49094550000000003
                },
                {
                    "name": "D#3",
                    "midi": 51,
                    "time": 0,
                    "velocity": 0.4645669291338583,
                    "duration": 0.49094550000000003
                },
                {
                    "name": "C3",
                    "midi": 48,
                    "time": 0,
                    "velocity": 0.4645669291338583,
                    "duration": 0.49094550000000003
                },
                {
                    "name": "C4",
                    "midi": 60,
                    "time": 2.618376,
                    "velocity": 0.2677165354330709,
                    "duration": 0.16364849999999986
                },
                {
                    "name": "D#4",
                    "midi": 63,
                    "time": 2.618376,
                    "velocity": 0.3228346456692913,
                    "duration": 0.16364849999999986
                },
                {
                    "name": "D#4",
                    "midi": 63,
                    "time": 2.9456729999999998,
                    "velocity": 0.3228346456692913,
                    "duration": 0.6545939999999999
                },
                {
                    "name": "C4",
                    "midi": 60,
                    "time": 2.9456729999999998,
                    "velocity": 0.2677165354330709,
                    "duration": 0.6545939999999999
                },
                {
                    "name": "D4",
                    "midi": 62,
                    "time": 3.6002669999999997,
                    "velocity": 0.25196850393700787,
                    "duration": 0.32047831250000014
                },
                {
                    "name": "F4",
                    "midi": 65,
                    "time": 3.6002669999999997,
                    "velocity": 0.2992125984251969,
                    "duration": 0.32047831250000014
                },
                {
                    "name": "F3",
                    "midi": 53,
                    "time": 3.927564,
                    "velocity": 0.4645669291338583,
                    "duration": 0.49094550000000003
                },
                {
                    "name": "B3",
                    "midi": 59,
                    "time": 3.927564,
                    "velocity": 0.4645669291338583,
                    "duration": 0.49094550000000003
                },
                {
                    "name": "G#3",
                    "midi": 56,
                    "time": 3.927564,
                    "velocity": 0.4645669291338583,
                    "duration": 0.49094550000000003
                },
                {
                    "name": "D4",
                    "midi": 62,
                    "time": 3.927564,
                    "velocity": 0.5511811023622047,
                    "duration": 0.49094550000000003
                },
                {
                    "name": "D3",
                    "midi": 50,
                    "time": 3.927564,
                    "velocity": 0.4645669291338583,
                    "duration": 0.49094550000000003
                },
                {
                    "name": "D4",
                    "midi": 62,
                    "time": 6.54594,
                    "velocity": 0.2677165354330709,
                    "duration": 0.16364849999999986
                },
                {
                    "name": "G#4",
                    "midi": 68,
                    "time": 6.54594,
                    "velocity": 0.3228346456692913,
                    "duration": 0.16364849999999986
                },
                {
                    "name": "F4",
                    "midi": 65,
                    "time": 6.54594,
                    "velocity": 0.2677165354330709,
                    "duration": 0.16364849999999986
                },
                {
                    "name": "G#4",
                    "midi": 68,
                    "time": 6.873237,
                    "velocity": 0.3228346456692913,
                    "duration": 0.6545940000000003
                },
                {
                    "name": "F4",
                    "midi": 65,
                    "time": 6.873237,
                    "velocity": 0.2677165354330709,
                    "duration": 0.6545940000000003
                },
                {
                    "name": "D4",
                    "midi": 62,
                    "time": 6.873237,
                    "velocity": 0.2677165354330709,
                    "duration": 0.6545940000000003
                },
                {
                    "name": "G4",
                    "midi": 67,
                    "time": 7.527831,
                    "velocity": 0.2992125984251969,
                    "duration": 0.3272969999999997
                },
                {
                    "name": "D#4",
                    "midi": 63,
                    "time": 7.527831,
                    "velocity": 0.25196850393700787,
                    "duration": 0.3272969999999997
                },
                {
                    "name": "C4",
                    "midi": 60,
                    "time": 8.509722,
                    "velocity": 0.2755905511811024,
                    "duration": 0.3272969999999997
                },
                {
                    "name": "G3",
                    "midi": 55,
                    "time": 8.509722,
                    "velocity": 0.2283464566929134,
                    "duration": 0.3272969999999997
                },
                {
                    "name": "D#3",
                    "midi": 51,
                    "time": 8.509722,
                    "velocity": 0.2283464566929134,
                    "duration": 0.3272969999999997
                },
                {
                    "name": "F3",
                    "midi": 53,
                    "time": 8.837019,
                    "velocity": 0.25984251968503935,
                    "duration": 0.6545939999999995
                },
                {
                    "name": "G#3",
                    "midi": 56,
                    "time": 8.837019,
                    "velocity": 0.25984251968503935,
                    "duration": 0.6545939999999995
                },
                {
                    "name": "B3",
                    "midi": 59,
                    "time": 8.837019,
                    "velocity": 0.30708661417322836,
                    "duration": 0.6545939999999995
                },
                {
                    "name": "C4",
                    "midi": 60,
                    "time": 9.491613,
                    "velocity": 0.2677165354330709,
                    "duration": 0.3272969999999997
                },
                {
                    "name": "G3",
                    "midi": 55,
                    "time": 9.491613,
                    "velocity": 0.2204724409448819,
                    "duration": 0.3272969999999997
                },
                {
                    "name": "D#3",
                    "midi": 51,
                    "time": 9.491613,
                    "velocity": 0.2204724409448819,
                    "duration": 0.3272969999999997
                },
                {
                    "name": "D#4",
                    "midi": 63,
                    "time": 10.473503999999998,
                    "velocity": 0.2283464566929134,
                    "duration": 0.3272969999999997
                },
                {
                    "name": "G4",
                    "midi": 67,
                    "time": 10.473503999999998,
                    "velocity": 0.2755905511811024,
                    "duration": 0.3272969999999997
                },
                {
                    "name": "G#4",
                    "midi": 68,
                    "time": 10.800800999999998,
                    "velocity": 0.30708661417322836,
                    "duration": 0.6545939999999995
                },
                {
                    "name": "F4",
                    "midi": 65,
                    "time": 10.800800999999998,
                    "velocity": 0.25984251968503935,
                    "duration": 0.6545939999999995
                },
                {
                    "name": "D#4",
                    "midi": 63,
                    "time": 11.455394999999998,
                    "velocity": 0.2204724409448819,
                    "duration": 0.3272969999999997
                },
                {
                    "name": "G4",
                    "midi": 67,
                    "time": 11.455394999999998,
                    "velocity": 0.2677165354330709,
                    "duration": 0.3272969999999997
                },
                {
                    "name": "G3",
                    "midi": 55,
                    "time": 12.437285999999997,
                    "velocity": 0.30708661417322836,
                    "duration": 0.3272969999999997
                },
                {
                    "name": "C4",
                    "midi": 60,
                    "time": 12.437285999999997,
                    "velocity": 0.3700787401574803,
                    "duration": 0.3272969999999997
                },
                {
                    "name": "D#3",
                    "midi": 51,
                    "time": 12.437285999999997,
                    "velocity": 0.30708661417322836,
                    "duration": 0.3272969999999997
                },
                {
                    "name": "B3",
                    "midi": 59,
                    "time": 12.764582999999996,
                    "velocity": 0.41732283464566927,
                    "duration": 0.6545939999999995
                },
                {
                    "name": "F3",
                    "midi": 53,
                    "time": 12.764582999999996,
                    "velocity": 0.3543307086614173,
                    "duration": 0.6545939999999995
                },
                {
                    "name": "G#3",
                    "midi": 56,
                    "time": 12.764582999999996,
                    "velocity": 0.3543307086614173,
                    "duration": 0.6545939999999995
                },
                {
                    "name": "G3",
                    "midi": 55,
                    "time": 13.419176999999996,
                    "velocity": 0.36220472440944884,
                    "duration": 0.3272969999999997
                },
                {
                    "name": "D#3",
                    "midi": 51,
                    "time": 13.419176999999996,
                    "velocity": 0.30708661417322836,
                    "duration": 0.3272969999999997
                },
                {
                    "name": "D3",
                    "midi": 50,
                    "time": 13.746473999999996,
                    "velocity": 0.36220472440944884,
                    "duration": 0.6545939999999995
                },
                {
                    "name": "F3",
                    "midi": 53,
                    "time": 13.746473999999996,
                    "velocity": 0.4409448818897638,
                    "duration": 0.6545939999999995
                },
                {
                    "name": "D#3",
                    "midi": 51,
                    "time": 14.401067999999995,
                    "velocity": 0.3858267716535433,
                    "duration": 0.3272969999999997
                },
                {
                    "name": "C3",
                    "midi": 48,
                    "time": 14.401067999999995,
                    "velocity": 0.3228346456692913,
                    "duration": 0.3272969999999997
                },
                {
                    "name": "D3",
                    "midi": 50,
                    "time": 14.728364999999995,
                    "velocity": 0.3700787401574803,
                    "duration": 0.3272969999999997
                },
                {
                    "name": "B2",
                    "midi": 47,
                    "time": 14.728364999999995,
                    "velocity": 0.4330708661417323,
                    "duration": 0.3272969999999997
                },
                {
                    "name": "G#3",
                    "midi": 56,
                    "time": 16.364849999999993,
                    "velocity": 0.2677165354330709,
                    "duration": 0.3272970000000015
                },
                {
                    "name": "F3",
                    "midi": 53,
                    "time": 16.364849999999993,
                    "velocity": 0.2204724409448819,
                    "duration": 0.3272970000000015
                },
                {
                    "name": "D3",
                    "midi": 50,
                    "time": 16.364849999999993,
                    "velocity": 0.2204724409448819,
                    "duration": 0.3272970000000015
                },
                {
                    "name": "B2",
                    "midi": 47,
                    "time": 16.364849999999993,
                    "velocity": 0.2204724409448819,
                    "duration": 0.3272970000000015
                },
                {
                    "name": "G3",
                    "midi": 55,
                    "time": 16.692146999999995,
                    "velocity": 0.2677165354330709,
                    "duration": 0.08182425000000038
                },
                {
                    "name": "D#3",
                    "midi": 51,
                    "time": 16.692146999999995,
                    "velocity": 0.2204724409448819,
                    "duration": 0.08182425000000038
                },
                {
                    "name": "C3",
                    "midi": 48,
                    "time": 16.692146999999995,
                    "velocity": 0.2204724409448819,
                    "duration": 0.08182425000000038
                },
                {
                    "name": "D3",
                    "midi": 50,
                    "time": 18.328631999999995,
                    "velocity": 0.2677165354330709,
                    "duration": 0.3272970000000015
                },
                {
                    "name": "G#2",
                    "midi": 44,
                    "time": 18.328631999999995,
                    "velocity": 0.2204724409448819,
                    "duration": 0.3272970000000015
                },
                {
                    "name": "F2",
                    "midi": 41,
                    "time": 18.328631999999995,
                    "velocity": 0.2204724409448819,
                    "duration": 0.3272970000000015
                },
                {
                    "name": "C3",
                    "midi": 48,
                    "time": 18.655928999999997,
                    "velocity": 0.2204724409448819,
                    "duration": 0.08182425000000038
                },
                {
                    "name": "G2",
                    "midi": 43,
                    "time": 18.655928999999997,
                    "velocity": 0.2204724409448819,
                    "duration": 0.08182425000000038
                },
                {
                    "name": "D#3",
                    "midi": 51,
                    "time": 18.655928999999997,
                    "velocity": 0.2677165354330709,
                    "duration": 0.08182425000000038
                },
                {
                    "name": "G2",
                    "midi": 43,
                    "time": 20.292413999999997,
                    "velocity": 0.5748031496062992,
                    "duration": 0.16364850000000075
                },
                {
                    "name": "G1",
                    "midi": 31,
                    "time": 20.292413999999997,
                    "velocity": 0.5748031496062992,
                    "duration": 0.16364850000000075
                },
                {
                    "name": "G2",
                    "midi": 43,
                    "time": 20.619711,
                    "velocity": 0.5275590551181102,
                    "duration": 0.4909454999999987
                },
                {
                    "name": "C2",
                    "midi": 36,
                    "time": 20.619711,
                    "velocity": 0.5275590551181102,
                    "duration": 0.4909454999999987
                },
                {
                    "name": "C3",
                    "midi": 48,
                    "time": 20.619711,
                    "velocity": 0.6299212598425197,
                    "duration": 0.4909454999999987
                },
                {
                    "name": "D#2",
                    "midi": 39,
                    "time": 20.619711,
                    "velocity": 0.5275590551181102,
                    "duration": 0.4909454999999987
                },
                {
                    "name": "C3",
                    "midi": 48,
                    "time": 22.256195999999996,
                    "velocity": 0.4566929133858268,
                    "duration": 0.08182425000000038
                },
                {
                    "name": "G3",
                    "midi": 55,
                    "time": 22.256195999999996,
                    "velocity": 0.5433070866141733,
                    "duration": 0.08182425000000038
                },
                {
                    "name": "D#3",
                    "midi": 51,
                    "time": 22.256195999999996,
                    "velocity": 0.4566929133858268,
                    "duration": 0.08182425000000038
                },
                {
                    "name": "B2",
                    "midi": 47,
                    "time": 22.583492999999997,
                    "velocity": 0.4566929133858268,
                    "duration": 0.08182425000000038
                },
                {
                    "name": "D3",
                    "midi": 50,
                    "time": 22.583492999999997,
                    "velocity": 0.4566929133858268,
                    "duration": 0.08182425000000038
                },
                {
                    "name": "G3",
                    "midi": 55,
                    "time": 22.583492999999997,
                    "velocity": 0.5433070866141733,
                    "duration": 0.08182425000000038
                },
                {
                    "name": "G3",
                    "midi": 55,
                    "time": 24.219977999999998,
                    "velocity": 0.5433070866141733,
                    "duration": 0.08182425000000038
                },
                {
                    "name": "B2",
                    "midi": 47,
                    "time": 24.219977999999998,
                    "velocity": 0.4566929133858268,
                    "duration": 0.08182425000000038
                },
                {
                    "name": "D3",
                    "midi": 50,
                    "time": 24.219977999999998,
                    "velocity": 0.4566929133858268,
                    "duration": 0.08182425000000038
                },
                {
                    "name": "G3",
                    "midi": 55,
                    "time": 24.547275,
                    "velocity": 0.5433070866141733,
                    "duration": 0.08182425000000038
                },
                {
                    "name": "C3",
                    "midi": 48,
                    "time": 24.547275,
                    "velocity": 0.4566929133858268,
                    "duration": 0.08182425000000038
                },
                {
                    "name": "D#3",
                    "midi": 51,
                    "time": 24.547275,
                    "velocity": 0.4566929133858268,
                    "duration": 0.08182425000000038
                },
                {
                    "name": "D#3",
                    "midi": 51,
                    "time": 26.18376,
                    "velocity": 0.4566929133858268,
                    "duration": 0.08182425000000038
                },
                {
                    "name": "C4",
                    "midi": 60,
                    "time": 26.18376,
                    "velocity": 0.5433070866141733,
                    "duration": 0.08182425000000038
                },
                {
                    "name": "G3",
                    "midi": 55,
                    "time": 26.18376,
                    "velocity": 0.4566929133858268,
                    "duration": 0.08182425000000038
                },
                {
                    "name": "G#3",
                    "midi": 56,
                    "time": 26.511057,
                    "velocity": 0.4566929133858268,
                    "duration": 0.08182425000000038
                },
                {
                    "name": "D4",
                    "midi": 62,
                    "time": 26.511057,
                    "velocity": 0.5433070866141733,
                    "duration": 0.08182425000000038
                },
                {
                    "name": "F3",
                    "midi": 53,
                    "time": 26.511057,
                    "velocity": 0.4566929133858268,
                    "duration": 0.08182425000000038
                },
                {
                    "name": "D4",
                    "midi": 62,
                    "time": 27.492948000000002,
                    "velocity": 0.5433070866141733,
                    "duration": 0.08182425000000038
                },
                {
                    "name": "B3",
                    "midi": 59,
                    "time": 27.492948000000002,
                    "velocity": 0.4566929133858268,
                    "duration": 0.08182425000000038
                },
                {
                    "name": "G3",
                    "midi": 55,
                    "time": 27.492948000000002,
                    "velocity": 0.4566929133858268,
                    "duration": 0.08182425000000038
                },
                {
                    "name": "G3",
                    "midi": 55,
                    "time": 28.474839000000003,
                    "velocity": 0.4566929133858268,
                    "duration": 0.08182425000000038
                },
                {
                    "name": "C3",
                    "midi": 48,
                    "time": 28.474839000000003,
                    "velocity": 0.4566929133858268,
                    "duration": 0.08182425000000038
                },
                {
                    "name": "C4",
                    "midi": 60,
                    "time": 28.474839000000003,
                    "velocity": 0.5433070866141733,
                    "duration": 0.08182425000000038
                },
                {
                    "name": "D#3",
                    "midi": 51,
                    "time": 28.474839000000003,
                    "velocity": 0.4566929133858268,
                    "duration": 0.08182425000000038
                },
                {
                    "name": "D#4",
                    "midi": 63,
                    "time": 30.438621000000005,
                    "velocity": 0.5433070866141733,
                    "duration": 2.9456729999999993
                },
                {
                    "name": "C#4",
                    "midi": 61,
                    "time": 31.420512000000006,
                    "velocity": 0.3937007874015748,
                    "duration": 0.981891000000001
                },
                {
                    "name": "C4",
                    "midi": 60,
                    "time": 32.40240300000001,
                    "velocity": 0.3858267716535433,
                    "duration": 0.9818909999999974
                },
                {
                    "name": "C#4",
                    "midi": 61,
                    "time": 33.384294000000004,
                    "velocity": 0.2677165354330709,
                    "duration": 0.9818909999999974
                },
                {
                    "name": "A#3",
                    "midi": 58,
                    "time": 33.384294000000004,
                    "velocity": 0.2204724409448819,
                    "duration": 0.9818909999999974
                },
                {
                    "name": "G#3",
                    "midi": 56,
                    "time": 34.366185,
                    "velocity": 0.2204724409448819,
                    "duration": 0.9818909999999974
                },
                {
                    "name": "D#4",
                    "midi": 63,
                    "time": 34.366185,
                    "velocity": 0.25984251968503935,
                    "duration": 0.9818909999999974
                },
                {
                    "name": "A#4",
                    "midi": 70,
                    "time": 35.348076,
                    "velocity": 0.3937007874015748,
                    "duration": 0.9818909999999974
                },
                {
                    "name": "C5",
                    "midi": 72,
                    "time": 35.348076,
                    "velocity": 0.47244094488188976,
                    "duration": 1.9637819999999948
                },
                {
                    "name": "G#4",
                    "midi": 68,
                    "time": 36.329966999999996,
                    "velocity": 0.3858267716535433,
                    "duration": 0.9818909999999974
                },
                {
                    "name": "G4",
                    "midi": 67,
                    "time": 37.311857999999994,
                    "velocity": 0.2204724409448819,
                    "duration": 0.9818909999999974
                },
                {
                    "name": "A#4",
                    "midi": 70,
                    "time": 37.311857999999994,
                    "velocity": 0.2677165354330709,
                    "duration": 0.9818909999999974
                },
                {
                    "name": "F4",
                    "midi": 65,
                    "time": 38.29374899999999,
                    "velocity": 0.2204724409448819,
                    "duration": 0.9818909999999974
                },
                {
                    "name": "G#4",
                    "midi": 68,
                    "time": 38.29374899999999,
                    "velocity": 0.25984251968503935,
                    "duration": 0.9818909999999974
                },
                {
                    "name": "F#4",
                    "midi": 66,
                    "time": 39.27563999999999,
                    "velocity": 0.3937007874015748,
                    "duration": 0.9818909999999974
                },
                {
                    "name": "G#4",
                    "midi": 68,
                    "time": 39.27563999999999,
                    "velocity": 0.47244094488188976,
                    "duration": 1.9637819999999948
                },
                {
                    "name": "F4",
                    "midi": 65,
                    "time": 40.257530999999986,
                    "velocity": 0.3858267716535433,
                    "duration": 0.9818909999999974
                },
                {
                    "name": "D#4",
                    "midi": 63,
                    "time": 41.23942199999998,
                    "velocity": 0.3464566929133858,
                    "duration": 0.9818909999999974
                },
                {
                    "name": "F#4",
                    "midi": 66,
                    "time": 41.23942199999998,
                    "velocity": 0.3464566929133858,
                    "duration": 0.9818909999999974
                },
                {
                    "name": "C#4",
                    "midi": 61,
                    "time": 42.22131299999998,
                    "velocity": 0.2204724409448819,
                    "duration": 0.9818909999999974
                },
                {
                    "name": "F4",
                    "midi": 65,
                    "time": 42.22131299999998,
                    "velocity": 0.25984251968503935,
                    "duration": 0.9818909999999974
                },
                {
                    "name": "B3",
                    "midi": 59,
                    "time": 43.20320399999998,
                    "velocity": 0.33070866141732286,
                    "duration": 0.9818909999999974
                },
                {
                    "name": "D#4",
                    "midi": 63,
                    "time": 43.20320399999998,
                    "velocity": 0.3779527559055118,
                    "duration": 0.9818909999999974
                },
                {
                    "name": "A#3",
                    "midi": 58,
                    "time": 44.185094999999976,
                    "velocity": 0.25984251968503935,
                    "duration": 0.9818909999999974
                },
                {
                    "name": "A3",
                    "midi": 57,
                    "time": 45.16698599999997,
                    "velocity": 0.25984251968503935,
                    "duration": 0.9818909999999974
                },
                {
                    "name": "A#2",
                    "midi": 46,
                    "time": 46.14887699999997,
                    "velocity": 0.25984251968503935,
                    "duration": 1.963782000000009
                },
                {
                    "name": "F3",
                    "midi": 53,
                    "time": 46.47617399999997,
                    "velocity": 0.25984251968503935,
                    "duration": 0.3272970000000015
                },
                {
                    "name": "G3",
                    "midi": 55,
                    "time": 46.80347099999997,
                    "velocity": 0.29133858267716534,
                    "duration": 0.3272970000000015
                },
                {
                    "name": "G#3",
                    "midi": 56,
                    "time": 47.130767999999975,
                    "velocity": 0.3228346456692913,
                    "duration": 0.3272970000000015
                },
                {
                    "name": "E3",
                    "midi": 52,
                    "time": 47.458064999999976,
                    "velocity": 0.25984251968503935,
                    "duration": 0.3272970000000015
                },
                {
                    "name": "F3",
                    "midi": 53,
                    "time": 47.78536199999998,
                    "velocity": 0.2755905511811024,
                    "duration": 0.3272970000000015
                },
                {
                    "name": "A#2",
                    "midi": 46,
                    "time": 48.11265899999998,
                    "velocity": 0.33070866141732286,
                    "duration": 1.963782000000009
                },
                {
                    "name": "G3",
                    "midi": 55,
                    "time": 48.11265899999998,
                    "velocity": 0.33070866141732286,
                    "duration": 0.3272970000000015
                },
                {
                    "name": "D3",
                    "midi": 50,
                    "time": 48.43995599999998,
                    "velocity": 0.25984251968503935,
                    "duration": 0.3272970000000015
                },
                {
                    "name": "D#3",
                    "midi": 51,
                    "time": 48.76725299999998,
                    "velocity": 0.25984251968503935,
                    "duration": 0.3272970000000015
                },
                {
                    "name": "F3",
                    "midi": 53,
                    "time": 49.094549999999984,
                    "velocity": 0.31496062992125984,
                    "duration": 0.3272970000000015
                },
                {
                    "name": "C3",
                    "midi": 48,
                    "time": 49.421846999999985,
                    "velocity": 0.25984251968503935,
                    "duration": 0.3272970000000015
                },
                {
                    "name": "D3",
                    "midi": 50,
                    "time": 49.74914399999999,
                    "velocity": 0.25984251968503935,
                    "duration": 0.3272970000000015
                },
                {
                    "name": "A#2",
                    "midi": 46,
                    "time": 50.07644099999999,
                    "velocity": 0.30708661417322836,
                    "duration": 1.963782000000009
                },
                {
                    "name": "D#3",
                    "midi": 51,
                    "time": 50.07644099999999,
                    "velocity": 0.30708661417322836,
                    "duration": 0.3272970000000015
                },
                {
                    "name": "F3",
                    "midi": 53,
                    "time": 50.40373799999999,
                    "velocity": 0.25984251968503935,
                    "duration": 0.3272970000000015
                },
                {
                    "name": "G3",
                    "midi": 55,
                    "time": 50.73103499999999,
                    "velocity": 0.28346456692913385,
                    "duration": 0.3272970000000015
                },
                {
                    "name": "G#3",
                    "midi": 56,
                    "time": 51.05833199999999,
                    "velocity": 0.31496062992125984,
                    "duration": 0.3272970000000015
                },
                {
                    "name": "E3",
                    "midi": 52,
                    "time": 51.385628999999994,
                    "velocity": 0.25984251968503935,
                    "duration": 0.3272970000000015
                },
                {
                    "name": "F3",
                    "midi": 53,
                    "time": 51.712925999999996,
                    "velocity": 0.25984251968503935,
                    "duration": 0.3272970000000015
                },
                {
                    "name": "G3",
                    "midi": 55,
                    "time": 52.040223,
                    "velocity": 0.33070866141732286,
                    "duration": 0.3272970000000015
                },
                {
                    "name": "A#2",
                    "midi": 46,
                    "time": 52.040223,
                    "velocity": 0.33070866141732286,
                    "duration": 1.963782000000009
                },
                {
                    "name": "D3",
                    "midi": 50,
                    "time": 52.36752,
                    "velocity": 0.25984251968503935,
                    "duration": 0.3272970000000015
                },
                {
                    "name": "D#3",
                    "midi": 51,
                    "time": 52.694817,
                    "velocity": 0.25984251968503935,
                    "duration": 0.3272970000000015
                },
                {
                    "name": "F3",
                    "midi": 53,
                    "time": 53.022114,
                    "velocity": 0.31496062992125984,
                    "duration": 0.3272970000000015
                },
                {
                    "name": "C3",
                    "midi": 48,
                    "time": 53.349411,
                    "velocity": 0.25984251968503935,
                    "duration": 0.3272970000000015
                },
                {
                    "name": "D3",
                    "midi": 50,
                    "time": 53.676708000000005,
                    "velocity": 0.25984251968503935,
                    "duration": 0.3272970000000015
                },
                {
                    "name": "D#3",
                    "midi": 51,
                    "time": 54.00400500000001,
                    "velocity": 0.31496062992125984,
                    "duration": 0.16364850000000075
                },
                {
                    "name": "A#3",
                    "midi": 58,
                    "time": 54.16765350000001,
                    "velocity": 0.2204724409448819,
                    "duration": 0.16364850000000075
                },
                {
                    "name": "G3",
                    "midi": 55,
                    "time": 54.33130200000001,
                    "velocity": 0.25984251968503935,
                    "duration": 0.16364850000000075
                },
                {
                    "name": "A#3",
                    "midi": 58,
                    "time": 54.49495050000001,
                    "velocity": 0.2125984251968504,
                    "duration": 0.16364850000000075
                },
                {
                    "name": "F3",
                    "midi": 53,
                    "time": 54.66814516250001,
                    "velocity": 0.25984251968503935,
                    "duration": 0.16364850000000075
                },
                {
                    "name": "A#3",
                    "midi": 58,
                    "time": 54.82224750000001,
                    "velocity": 0.23622047244094488,
                    "duration": 0.16364850000000075
                },
                {
                    "name": "D#3",
                    "midi": 51,
                    "time": 54.98589600000001,
                    "velocity": 0.2992125984251969,
                    "duration": 0.16364850000000075
                },
                {
                    "name": "A#3",
                    "midi": 58,
                    "time": 55.14954450000001,
                    "velocity": 0.2204724409448819,
                    "duration": 0.16364850000000075
                },
                {
                    "name": "F3",
                    "midi": 53,
                    "time": 55.31319300000001,
                    "velocity": 0.33070866141732286,
                    "duration": 0.16364850000000075
                },
                {
                    "name": "A#3",
                    "midi": 58,
                    "time": 55.47684150000001,
                    "velocity": 0.2755905511811024,
                    "duration": 0.16364850000000075
                },
                {
                    "name": "G3",
                    "midi": 55,
                    "time": 55.640490000000014,
                    "velocity": 0.36220472440944884,
                    "duration": 0.16364850000000075
                },
                {
                    "name": "A#3",
                    "midi": 58,
                    "time": 55.804138500000015,
                    "velocity": 0.31496062992125984,
                    "duration": 0.16364850000000075
                },
                {
                    "name": "F3",
                    "midi": 53,
                    "time": 55.967787000000015,
                    "velocity": 0.4015748031496063,
                    "duration": 0.16364850000000075
                },
                {
                    "name": "A#3",
                    "midi": 58,
                    "time": 56.131435500000016,
                    "velocity": 0.3464566929133858,
                    "duration": 0.16364850000000075
                },
                {
                    "name": "G3",
                    "midi": 55,
                    "time": 56.29508400000002,
                    "velocity": 0.4094488188976378,
                    "duration": 0.16364850000000075
                },
                {
                    "name": "A#3",
                    "midi": 58,
                    "time": 56.45873250000002,
                    "velocity": 0.33858267716535434,
                    "duration": 0.16364850000000075
                },
                {
                    "name": "G#3",
                    "midi": 56,
                    "time": 56.62238100000002,
                    "velocity": 0.4330708661417323,
                    "duration": 0.16364850000000075
                },
                {
                    "name": "A#3",
                    "midi": 58,
                    "time": 56.78602950000002,
                    "velocity": 0.3700787401574803,
                    "duration": 0.16364850000000075
                },
                {
                    "name": "F3",
                    "midi": 53,
                    "time": 56.94967800000002,
                    "velocity": 0.47244094488188976,
                    "duration": 0.16364850000000075
                },
                {
                    "name": "A#3",
                    "midi": 58,
                    "time": 57.11332650000002,
                    "velocity": 0.30708661417322836,
                    "duration": 0.16364850000000075
                },
                {
                    "name": "G3",
                    "midi": 55,
                    "time": 57.27697500000002,
                    "velocity": 0.36220472440944884,
                    "duration": 0.16364850000000075
                },
                {
                    "name": "A#3",
                    "midi": 58,
                    "time": 57.44062350000002,
                    "velocity": 0.25984251968503935,
                    "duration": 0.16364850000000075
                },
                {
                    "name": "G#3",
                    "midi": 56,
                    "time": 57.60427200000002,
                    "velocity": 0.3228346456692913,
                    "duration": 0.16364850000000075
                },
                {
                    "name": "A#3",
                    "midi": 58,
                    "time": 57.767920500000024,
                    "velocity": 0.25984251968503935,
                    "duration": 0.16364850000000075
                },
                {
                    "name": "D3",
                    "midi": 50,
                    "time": 57.931569000000025,
                    "velocity": 0.31496062992125984,
                    "duration": 0.16364850000000075
                },
                {
                    "name": "A#3",
                    "midi": 58,
                    "time": 58.095217500000025,
                    "velocity": 0.2204724409448819,
                    "duration": 0.16364850000000075
                },
                {
                    "name": "F3",
                    "midi": 53,
                    "time": 58.258866000000026,
                    "velocity": 0.25984251968503935,
                    "duration": 0.16364850000000075
                },
                {
                    "name": "A#3",
                    "midi": 58,
                    "time": 58.42251450000003,
                    "velocity": 0.2125984251968504,
                    "duration": 0.16364850000000075
                },
                {
                    "name": "D#3",
                    "midi": 51,
                    "time": 58.58616300000003,
                    "velocity": 0.25984251968503935,
                    "duration": 0.16364850000000075
                },
                {
                    "name": "A#3",
                    "midi": 58,
                    "time": 58.74981150000003,
                    "velocity": 0.23622047244094488,
                    "duration": 0.16364850000000075
                },
                {
                    "name": "D3",
                    "midi": 50,
                    "time": 58.91346000000003,
                    "velocity": 0.2992125984251969,
                    "duration": 0.16364850000000075
                },
                {
                    "name": "A#3",
                    "midi": 58,
                    "time": 59.07710850000003,
                    "velocity": 0.2440944881889764,
                    "duration": 0.16364850000000075
                },
                {
                    "name": "D#3",
                    "midi": 51,
                    "time": 59.24075700000003,
                    "velocity": 0.36220472440944884,
                    "duration": 0.16364850000000075
                },
                {
                    "name": "A#3",
                    "midi": 58,
                    "time": 59.40440550000003,
                    "velocity": 0.2992125984251969,
                    "duration": 0.16364850000000075
                },
                {
                    "name": "F3",
                    "midi": 53,
                    "time": 59.56805400000003,
                    "velocity": 0.3937007874015748,
                    "duration": 0.16364850000000075
                },
                {
                    "name": "A#3",
                    "midi": 58,
                    "time": 59.73170250000003,
                    "velocity": 0.33858267716535434,
                    "duration": 0.16364850000000075
                },
                {
                    "name": "D#3",
                    "midi": 51,
                    "time": 59.89535100000003,
                    "velocity": 0.4409448818897638,
                    "duration": 0.16364850000000075
                },
                {
                    "name": "A#3",
                    "midi": 58,
                    "time": 60.058999500000034,
                    "velocity": 0.33070866141732286,
                    "duration": 0.16364850000000075
                },
                {
                    "name": "F3",
                    "midi": 53,
                    "time": 60.222648000000035,
                    "velocity": 0.4251968503937008,
                    "duration": 0.16364850000000075
                },
                {
                    "name": "A#3",
                    "midi": 58,
                    "time": 60.386296500000036,
                    "velocity": 0.3464566929133858,
                    "duration": 0.16364850000000075
                },
                {
                    "name": "G3",
                    "midi": 55,
                    "time": 60.54994500000004,
                    "velocity": 0.36220472440944884,
                    "duration": 0.16364850000000075
                },
                {
                    "name": "A#3",
                    "midi": 58,
                    "time": 60.71359350000004,
                    "velocity": 0.25984251968503935,
                    "duration": 0.16364850000000075
                },
                {
                    "name": "D#3",
                    "midi": 51,
                    "time": 60.87724200000004,
                    "velocity": 0.3779527559055118,
                    "duration": 0.16364850000000075
                },
                {
                    "name": "A#3",
                    "midi": 58,
                    "time": 61.04089050000004,
                    "velocity": 0.30708661417322836,
                    "duration": 0.16364850000000075
                },
                {
                    "name": "F3",
                    "midi": 53,
                    "time": 61.20453900000004,
                    "velocity": 0.3228346456692913,
                    "duration": 0.16364850000000075
                },
                {
                    "name": "A#3",
                    "midi": 58,
                    "time": 61.36818750000004,
                    "velocity": 0.25984251968503935,
                    "duration": 0.16364850000000075
                },
                {
                    "name": "G3",
                    "midi": 55,
                    "time": 61.53183600000004,
                    "velocity": 0.3228346456692913,
                    "duration": 0.16364850000000075
                },
                {
                    "name": "A#3",
                    "midi": 58,
                    "time": 61.69548450000004,
                    "velocity": 0.25984251968503935,
                    "duration": 0.16364850000000075
                },
                {
                    "name": "D#3",
                    "midi": 51,
                    "time": 61.85913300000004,
                    "velocity": 0.31496062992125984,
                    "duration": 0.16364850000000075
                },
                {
                    "name": "A#3",
                    "midi": 58,
                    "time": 62.02278150000004,
                    "velocity": 0.2204724409448819,
                    "duration": 0.16364850000000075
                },
                {
                    "name": "G3",
                    "midi": 55,
                    "time": 62.186430000000044,
                    "velocity": 0.25984251968503935,
                    "duration": 0.16364850000000075
                },
                {
                    "name": "A#3",
                    "midi": 58,
                    "time": 62.350078500000045,
                    "velocity": 0.2125984251968504,
                    "duration": 0.16364850000000075
                },
                {
                    "name": "D#3",
                    "midi": 51,
                    "time": 62.513727000000046,
                    "velocity": 0.2755905511811024,
                    "duration": 0.16364850000000075
                },
                {
                    "name": "A#3",
                    "midi": 58,
                    "time": 62.677375500000046,
                    "velocity": 0.25196850393700787,
                    "duration": 0.16364850000000075
                },
                {
                    "name": "D#3",
                    "midi": 51,
                    "time": 62.84102400000005,
                    "velocity": 0.3228346456692913,
                    "duration": 0.16364850000000075
                },
                {
                    "name": "A#3",
                    "midi": 58,
                    "time": 63.00467250000005,
                    "velocity": 0.2992125984251969,
                    "duration": 0.16364850000000075
                },
                {
                    "name": "G3",
                    "midi": 55,
                    "time": 63.16832100000005,
                    "velocity": 0.3779527559055118,
                    "duration": 0.16364850000000075
                },
                {
                    "name": "A#3",
                    "midi": 58,
                    "time": 63.33196950000005,
                    "velocity": 0.3228346456692913,
                    "duration": 0.16364850000000075
                },
                {
                    "name": "D#3",
                    "midi": 51,
                    "time": 63.49561800000005,
                    "velocity": 0.4251968503937008,
                    "duration": 0.16364850000000075
                },
                {
                    "name": "A#3",
                    "midi": 58,
                    "time": 63.65926650000005,
                    "velocity": 0.4015748031496063,
                    "duration": 0.16364850000000075
                },
                {
                    "name": "F3",
                    "midi": 53,
                    "time": 63.82291500000005,
                    "velocity": 0.4094488188976378,
                    "duration": 0.16364850000000075
                },
                {
                    "name": "A#3",
                    "midi": 58,
                    "time": 63.98656350000005,
                    "velocity": 0.3779527559055118,
                    "duration": 0.16364850000000075
                },
                {
                    "name": "G#3",
                    "midi": 56,
                    "time": 64.15021200000005,
                    "velocity": 0.4094488188976378,
                    "duration": 0.16364849999999365
                },
                {
                    "name": "A#3",
                    "midi": 58,
                    "time": 64.31386050000005,
                    "velocity": 0.3464566929133858,
                    "duration": 0.16364849999999365
                },
                {
                    "name": "F3",
                    "midi": 53,
                    "time": 64.47750900000004,
                    "velocity": 0.36220472440944884,
                    "duration": 0.16364849999999365
                },
                {
                    "name": "A#3",
                    "midi": 58,
                    "time": 64.64115750000003,
                    "velocity": 0.33858267716535434,
                    "duration": 0.16364849999999365
                },
                {
                    "name": "F3",
                    "midi": 53,
                    "time": 64.80480600000003,
                    "velocity": 0.33858267716535434,
                    "duration": 0.16364849999999365
                },
                {
                    "name": "A#3",
                    "midi": 58,
                    "time": 64.96845450000002,
                    "velocity": 0.2440944881889764,
                    "duration": 0.16364849999999365
                },
                {
                    "name": "G#3",
                    "midi": 56,
                    "time": 65.13210300000001,
                    "velocity": 0.30708661417322836,
                    "duration": 0.16364849999999365
                },
                {
                    "name": "A#3",
                    "midi": 58,
                    "time": 65.29575150000001,
                    "velocity": 0.2440944881889764,
                    "duration": 0.16364849999999365
                },
                {
                    "name": "F3",
                    "midi": 53,
                    "time": 65.4594,
                    "velocity": 0.30708661417322836,
                    "duration": 0.16364849999999365
                },
                {
                    "name": "A#3",
                    "midi": 58,
                    "time": 65.6230485,
                    "velocity": 0.2440944881889764,
                    "duration": 0.16228476249999346
                },
                {
                    "name": "D3",
                    "midi": 50,
                    "time": 65.78669699999999,
                    "velocity": 0.31496062992125984,
                    "duration": 0.16364849999999365
                },
                {
                    "name": "A#3",
                    "midi": 58,
                    "time": 65.95034549999998,
                    "velocity": 0.25196850393700787,
                    "duration": 0.16364849999999365
                },
                {
                    "name": "F3",
                    "midi": 53,
                    "time": 66.11399399999998,
                    "velocity": 0.30708661417322836,
                    "duration": 0.16364849999999365
                },
                {
                    "name": "A#3",
                    "midi": 58,
                    "time": 66.27764249999997,
                    "velocity": 0.2283464566929134,
                    "duration": 0.16364849999999365
                },
                {
                    "name": "D3",
                    "midi": 50,
                    "time": 66.44129099999996,
                    "velocity": 0.36220472440944884,
                    "duration": 0.16364849999999365
                },
                {
                    "name": "A#3",
                    "midi": 58,
                    "time": 66.60493949999996,
                    "velocity": 0.29133858267716534,
                    "duration": 0.16364849999999365
                },
                {
                    "name": "D3",
                    "midi": 50,
                    "time": 66.76858799999995,
                    "velocity": 0.4094488188976378,
                    "duration": 0.16364849999999365
                },
                {
                    "name": "A#3",
                    "midi": 58,
                    "time": 66.93223649999995,
                    "velocity": 0.33858267716535434,
                    "duration": 0.16364849999999365
                },
                {
                    "name": "F3",
                    "midi": 53,
                    "time": 67.09588499999994,
                    "velocity": 0.44881889763779526,
                    "duration": 0.16364849999999365
                },
                {
                    "name": "A#3",
                    "midi": 58,
                    "time": 67.25953349999993,
                    "velocity": 0.3858267716535433,
                    "duration": 0.16364849999999365
                },
                {
                    "name": "D3",
                    "midi": 50,
                    "time": 67.42318199999993,
                    "velocity": 0.4881889763779528,
                    "duration": 0.16364849999999365
                },
                {
                    "name": "A#3",
                    "midi": 58,
                    "time": 67.58683049999992,
                    "velocity": 0.4015748031496063,
                    "duration": 0.16364849999999365
                },
                {
                    "name": "D#3",
                    "midi": 51,
                    "time": 67.9141274999999,
                    "velocity": 0.33858267716535434,
                    "duration": 0.16364849999999365
                },
                {
                    "name": "D3",
                    "midi": 50,
                    "time": 68.0777759999999,
                    "velocity": 0.3937007874015748,
                    "duration": 0.16364849999999365
                },
                {
                    "name": "D#3",
                    "midi": 51,
                    "time": 68.2414244999999,
                    "velocity": 0.3464566929133858,
                    "duration": 0.16364849999999365
                },
                {
                    "name": "D3",
                    "midi": 50,
                    "time": 68.40507299999989,
                    "velocity": 0.41732283464566927,
                    "duration": 0.16364849999999365
                },
                {
                    "name": "D#3",
                    "midi": 51,
                    "time": 68.56872149999988,
                    "velocity": 0.3464566929133858,
                    "duration": 0.16364849999999365
                },
                {
                    "name": "G2",
                    "midi": 43,
                    "time": 68.73236999999988,
                    "velocity": 0.5275590551181102,
                    "duration": 0.16364849999999365
                },
                {
                    "name": "D#3",
                    "midi": 51,
                    "time": 68.89601849999987,
                    "velocity": 0.3543307086614173,
                    "duration": 0.16364849999999365
                },
                {
                    "name": "G#2",
                    "midi": 44,
                    "time": 69.05966699999986,
                    "velocity": 0.4645669291338583,
                    "duration": 0.16364849999999365
                },
                {
                    "name": "D#3",
                    "midi": 51,
                    "time": 69.22331549999986,
                    "velocity": 0.3700787401574803,
                    "duration": 0.16364849999999365
                },
                {
                    "name": "A#2",
                    "midi": 46,
                    "time": 69.38696399999985,
                    "velocity": 0.48031496062992124,
                    "duration": 0.16364849999999365
                },
                {
                    "name": "D#3",
                    "midi": 51,
                    "time": 69.55061249999984,
                    "velocity": 0.3464566929133858,
                    "duration": 0.16364849999999365
                },
                {
                    "name": "G#2",
                    "midi": 44,
                    "time": 69.71426099999984,
                    "velocity": 0.5118110236220472,
                    "duration": 0.16364849999999365
                },
                {
                    "name": "D#3",
                    "midi": 51,
                    "time": 69.87790949999983,
                    "velocity": 0.3543307086614173,
                    "duration": 0.16364849999999365
                },
                {
                    "name": "A#2",
                    "midi": 46,
                    "time": 70.04155799999982,
                    "velocity": 0.44881889763779526,
                    "duration": 0.16364849999999365
                },
                {
                    "name": "D#3",
                    "midi": 51,
                    "time": 70.20520649999982,
                    "velocity": 0.33070866141732286,
                    "duration": 0.16364849999999365
                },
                {
                    "name": "C3",
                    "midi": 48,
                    "time": 70.36885499999981,
                    "velocity": 0.4330708661417323,
                    "duration": 0.16364849999999365
                },
                {
                    "name": "D#3",
                    "midi": 51,
                    "time": 70.5325034999998,
                    "velocity": 0.3543307086614173,
                    "duration": 0.16364849999999365
                },
                {
                    "name": "A2",
                    "midi": 45,
                    "time": 70.6961519999998,
                    "velocity": 0.5275590551181102,
                    "duration": 0.16364849999999365
                },
                {
                    "name": "D#3",
                    "midi": 51,
                    "time": 70.85980049999979,
                    "velocity": 0.3543307086614173,
                    "duration": 0.16364849999999365
                },
                {
                    "name": "A#2",
                    "midi": 46,
                    "time": 71.02344899999979,
                    "velocity": 0.4409448818897638,
                    "duration": 0.16364849999999365
                },
                {
                    "name": "D#3",
                    "midi": 51,
                    "time": 71.18709749999978,
                    "velocity": 0.3700787401574803,
                    "duration": 0.16364849999999365
                },
                {
                    "name": "C3",
                    "midi": 48,
                    "time": 71.35074599999977,
                    "velocity": 0.4330708661417323,
                    "duration": 0.16364849999999365
                },
                {
                    "name": "D#3",
                    "midi": 51,
                    "time": 71.51439449999977,
                    "velocity": 0.3464566929133858,
                    "duration": 0.16364849999999365
                },
                {
                    "name": "A#2",
                    "midi": 46,
                    "time": 71.67804299999976,
                    "velocity": 0.5039370078740157,
                    "duration": 0.16364849999999365
                },
                {
                    "name": "G3",
                    "midi": 55,
                    "time": 71.84169149999975,
                    "velocity": 0.36220472440944884,
                    "duration": 0.16364849999999365
                },
                {
                    "name": "D#3",
                    "midi": 51,
                    "time": 72.00533999999975,
                    "velocity": 0.4409448818897638,
                    "duration": 0.16364849999999365
                },
                {
                    "name": "G3",
                    "midi": 55,
                    "time": 72.16898849999974,
                    "velocity": 0.3543307086614173,
                    "duration": 0.16364849999999365
                },
                {
                    "name": "A#2",
                    "midi": 46,
                    "time": 72.33263699999974,
                    "velocity": 0.44881889763779526,
                    "duration": 0.16364849999999365
                },
                {
                    "name": "G3",
                    "midi": 55,
                    "time": 72.49628549999973,
                    "velocity": 0.36220472440944884,
                    "duration": 0.16364849999999365
                },
                {
                    "name": "A#2",
                    "midi": 46,
                    "time": 72.65993399999972,
                    "velocity": 0.5039370078740157,
                    "duration": 0.16364849999999365
                },
                {
                    "name": "F3",
                    "midi": 53,
                    "time": 72.82358249999972,
                    "velocity": 0.36220472440944884,
                    "duration": 0.16364849999999365
                },
                {
                    "name": "D3",
                    "midi": 50,
                    "time": 72.98723099999971,
                    "velocity": 0.4330708661417323,
                    "duration": 0.16364849999999365
                },
                {
                    "name": "F3",
                    "midi": 53,
                    "time": 73.1508794999997,
                    "velocity": 0.3543307086614173,
                    "duration": 0.16364849999999365
                },
                {
                    "name": "A#2",
                    "midi": 46,
                    "time": 73.3145279999997,
                    "velocity": 0.4330708661417323,
                    "duration": 0.16364849999999365
                },
                {
                    "name": "F3",
                    "midi": 53,
                    "time": 73.47817649999969,
                    "velocity": 0.36220472440944884,
                    "duration": 0.16364849999999365
                },
                {
                    "name": "D#2",
                    "midi": 39,
                    "time": 73.64182499999968,
                    "velocity": 0.5039370078740157,
                    "duration": 0.3272970000000015
                },
                {
                    "name": "D#3",
                    "midi": 51,
                    "time": 73.64182499999968,
                    "velocity": 0.5039370078740157,
                    "duration": 0.3272970000000015
                },
                {
                    "name": "G2",
                    "midi": 43,
                    "time": 75.60560699999968,
                    "velocity": 0.5275590551181102,
                    "duration": 0.16364849999999365
                },
                {
                    "name": "D#3",
                    "midi": 51,
                    "time": 75.76925549999967,
                    "velocity": 0.3543307086614173,
                    "duration": 0.16364849999999365
                },
                {
                    "name": "G#2",
                    "midi": 44,
                    "time": 75.93290399999967,
                    "velocity": 0.4645669291338583,
                    "duration": 0.16364849999999365
                },
                {
                    "name": "D#3",
                    "midi": 51,
                    "time": 76.09655249999966,
                    "velocity": 0.3700787401574803,
                    "duration": 0.16364849999999365
                },
                {
                    "name": "A#2",
                    "midi": 46,
                    "time": 76.26020099999965,
                    "velocity": 0.48031496062992124,
                    "duration": 0.16364849999999365
                },
                {
                    "name": "D#3",
                    "midi": 51,
                    "time": 76.42384949999965,
                    "velocity": 0.3464566929133858,
                    "duration": 0.16364849999999365
                },
                {
                    "name": "G2",
                    "midi": 43,
                    "time": 76.58749799999964,
                    "velocity": 0.5275590551181102,
                    "duration": 0.16364849999999365
                },
                {
                    "name": "D#3",
                    "midi": 51,
                    "time": 76.75114649999963,
                    "velocity": 0.3543307086614173,
                    "duration": 0.16364849999999365
                },
                {
                    "name": "G#2",
                    "midi": 44,
                    "time": 76.91479499999963,
                    "velocity": 0.44881889763779526,
                    "duration": 0.16364849999999365
                },
                {
                    "name": "D#3",
                    "midi": 51,
                    "time": 77.07844349999962,
                    "velocity": 0.4094488188976378,
                    "duration": 0.16364849999999365
                },
                {
                    "name": "A#2",
                    "midi": 46,
                    "time": 77.24209199999962,
                    "velocity": 0.48031496062992124,
                    "duration": 0.16364849999999365
                },
                {
                    "name": "D#3",
                    "midi": 51,
                    "time": 77.40574049999961,
                    "velocity": 0.3464566929133858,
                    "duration": 0.16364849999999365
                },
                {
                    "name": "G#2",
                    "midi": 44,
                    "time": 77.5693889999996,
                    "velocity": 0.5118110236220472,
                    "duration": 0.16364849999999365
                },
                {
                    "name": "D#3",
                    "midi": 51,
                    "time": 77.7330374999996,
                    "velocity": 0.3543307086614173,
                    "duration": 0.16364849999999365
                },
                {
                    "name": "A#2",
                    "midi": 46,
                    "time": 77.89668599999959,
                    "velocity": 0.4566929133858268,
                    "duration": 0.16364849999999365
                },
                {
                    "name": "D#3",
                    "midi": 51,
                    "time": 78.06033449999958,
                    "velocity": 0.33070866141732286,
                    "duration": 0.16364849999999365
                },
                {
                    "name": "C3",
                    "midi": 48,
                    "time": 78.22398299999958,
                    "velocity": 0.44881889763779526,
                    "duration": 0.16364849999999365
                },
                {
                    "name": "D#3",
                    "midi": 51,
                    "time": 78.38763149999957,
                    "velocity": 0.3543307086614173,
                    "duration": 0.16364849999999365
                },
                {
                    "name": "A2",
                    "midi": 45,
                    "time": 78.55127999999957,
                    "velocity": 0.5275590551181102,
                    "duration": 0.16364849999999365
                },
                {
                    "name": "D#3",
                    "midi": 51,
                    "time": 78.71492849999956,
                    "velocity": 0.3543307086614173,
                    "duration": 0.16364849999999365
                },
                {
                    "name": "A#2",
                    "midi": 46,
                    "time": 78.87857699999955,
                    "velocity": 0.4409448818897638,
                    "duration": 0.16364849999999365
                },
                {
                    "name": "D#3",
                    "midi": 51,
                    "time": 79.04222549999955,
                    "velocity": 0.3700787401574803,
                    "duration": 0.16364849999999365
                },
                {
                    "name": "C3",
                    "midi": 48,
                    "time": 79.20587399999954,
                    "velocity": 0.4566929133858268,
                    "duration": 0.16364849999999365
                },
                {
                    "name": "D#3",
                    "midi": 51,
                    "time": 79.36952249999953,
                    "velocity": 0.3464566929133858,
                    "duration": 0.16364849999999365
                },
                {
                    "name": "A#2",
                    "midi": 46,
                    "time": 79.53317099999953,
                    "velocity": 0.5275590551181102,
                    "duration": 0.16364849999999365
                },
                {
                    "name": "D#3",
                    "midi": 51,
                    "time": 79.69681949999952,
                    "velocity": 0.4094488188976378,
                    "duration": 0.16364849999999365
                },
                {
                    "name": "D3",
                    "midi": 50,
                    "time": 79.86046799999951,
                    "velocity": 0.48031496062992124,
                    "duration": 0.16364849999999365
                },
                {
                    "name": "D#3",
                    "midi": 51,
                    "time": 80.02411649999951,
                    "velocity": 0.3779527559055118,
                    "duration": 0.16364849999999365
                },
                {
                    "name": "B2",
                    "midi": 47,
                    "time": 80.1877649999995,
                    "velocity": 0.4881889763779528,
                    "duration": 0.16364849999999365
                },
                {
                    "name": "D#3",
                    "midi": 51,
                    "time": 80.3514134999995,
                    "velocity": 0.41732283464566927,
                    "duration": 0.16364849999999365
                },
                {
                    "name": "C3",
                    "midi": 48,
                    "time": 80.51506199999949,
                    "velocity": 0.5590551181102362,
                    "duration": 0.16364849999999365
                },
                {
                    "name": "D#3",
                    "midi": 51,
                    "time": 80.67871049999948,
                    "velocity": 0.4251968503937008,
                    "duration": 0.16364849999999365
                },
                {
                    "name": "D3",
                    "midi": 50,
                    "time": 80.84235899999948,
                    "velocity": 0.5118110236220472,
                    "duration": 0.16364849999999365
                },
                {
                    "name": "D#3",
                    "midi": 51,
                    "time": 81.00600749999947,
                    "velocity": 0.4094488188976378,
                    "duration": 0.16364849999999365
                },
                {
                    "name": "A2",
                    "midi": 45,
                    "time": 81.16965599999946,
                    "velocity": 0.5039370078740157,
                    "duration": 0.16364849999999365
                },
                {
                    "name": "D#3",
                    "midi": 51,
                    "time": 81.33330449999946,
                    "velocity": 0.3858267716535433,
                    "duration": 0.16364849999999365
                },
                {
                    "name": "A#2",
                    "midi": 46,
                    "time": 81.49695299999945,
                    "velocity": 0.6062992125984252,
                    "duration": 0.16364849999999365
                },
                {
                    "name": "D#3",
                    "midi": 51,
                    "time": 81.66060149999944,
                    "velocity": 0.4566929133858268,
                    "duration": 0.16364849999999365
                },
                {
                    "name": "C#3",
                    "midi": 49,
                    "time": 81.82424999999944,
                    "velocity": 0.5118110236220472,
                    "duration": 0.16364849999999365
                },
                {
                    "name": "D#3",
                    "midi": 51,
                    "time": 81.98789849999943,
                    "velocity": 0.4409448818897638,
                    "duration": 0.16364849999999365
                },
                {
                    "name": "B2",
                    "midi": 47,
                    "time": 82.15154699999943,
                    "velocity": 0.5511811023622047,
                    "duration": 0.16364849999999365
                },
                {
                    "name": "D#3",
                    "midi": 51,
                    "time": 82.31519549999942,
                    "velocity": 0.4251968503937008,
                    "duration": 0.16364849999999365
                },
                {
                    "name": "C3",
                    "midi": 48,
                    "time": 82.47884399999941,
                    "velocity": 0.6062992125984252,
                    "duration": 0.16364849999999365
                },
                {
                    "name": "D#3",
                    "midi": 51,
                    "time": 82.6424924999994,
                    "velocity": 0.44881889763779526,
                    "duration": 0.16364849999999365
                },
                {
                    "name": "D3",
                    "midi": 50,
                    "time": 82.8061409999994,
                    "velocity": 0.49606299212598426,
                    "duration": 0.16364849999999365
                },
                {
                    "name": "D#3",
                    "midi": 51,
                    "time": 82.9697894999994,
                    "velocity": 0.4566929133858268,
                    "duration": 0.16364849999999365
                },
                {
                    "name": "A2",
                    "midi": 45,
                    "time": 83.13343799999939,
                    "velocity": 0.5590551181102362,
                    "duration": 0.16364849999999365
                },
                {
                    "name": "D#3",
                    "midi": 51,
                    "time": 83.29708649999938,
                    "velocity": 0.5118110236220472,
                    "duration": 0.16364849999999365
                },
                {
                    "name": "A#2",
                    "midi": 46,
                    "time": 83.46073499999937,
                    "velocity": 0.6456692913385826,
                    "duration": 0.3272970000000015
                },
                {
                    "name": "A#2",
                    "midi": 46,
                    "time": 83.78803199999938,
                    "velocity": 0.6062992125984252,
                    "duration": 0.08182424999999682
                },
                {
                    "name": "D#3",
                    "midi": 51,
                    "time": 83.78803199999938,
                    "velocity": 0.6062992125984252,
                    "duration": 0.08182424999999682
                },
                {
                    "name": "G3",
                    "midi": 55,
                    "time": 83.78803199999938,
                    "velocity": 0.6850393700787402,
                    "duration": 0.08182424999999682
                },
                {
                    "name": "D#3",
                    "midi": 51,
                    "time": 84.76992299999937,
                    "velocity": 0.6062992125984252,
                    "duration": 0.08182424999999682
                },
                {
                    "name": "C3",
                    "midi": 48,
                    "time": 84.76992299999937,
                    "velocity": 0.6062992125984252,
                    "duration": 0.08182424999999682
                },
                {
                    "name": "F#3",
                    "midi": 54,
                    "time": 84.76992299999937,
                    "velocity": 0.6850393700787402,
                    "duration": 0.08182424999999682
                },
                {
                    "name": "G3",
                    "midi": 55,
                    "time": 85.75181399999936,
                    "velocity": 0.6850393700787402,
                    "duration": 0.08182424999999682
                },
                {
                    "name": "A#2",
                    "midi": 46,
                    "time": 85.75181399999936,
                    "velocity": 0.6062992125984252,
                    "duration": 0.08182424999999682
                },
                {
                    "name": "D#3",
                    "midi": 51,
                    "time": 85.75181399999936,
                    "velocity": 0.6062992125984252,
                    "duration": 0.08182424999999682
                },
                {
                    "name": "A3",
                    "midi": 57,
                    "time": 86.73370499999935,
                    "velocity": 0.6850393700787402,
                    "duration": 0.08182424999999682
                },
                {
                    "name": "D#3",
                    "midi": 51,
                    "time": 86.73370499999935,
                    "velocity": 0.6062992125984252,
                    "duration": 0.08182424999999682
                },
                {
                    "name": "F#3",
                    "midi": 54,
                    "time": 86.73370499999935,
                    "velocity": 0.6062992125984252,
                    "duration": 0.08182424999999682
                },
                {
                    "name": "A2",
                    "midi": 45,
                    "time": 86.73370499999935,
                    "velocity": 0.6062992125984252,
                    "duration": 0.08182424999999682
                },
                {
                    "name": "A#2",
                    "midi": 46,
                    "time": 87.71559599999934,
                    "velocity": 0.6062992125984252,
                    "duration": 0.08182424999999682
                },
                {
                    "name": "A#3",
                    "midi": 58,
                    "time": 87.71559599999934,
                    "velocity": 0.6850393700787402,
                    "duration": 0.08182424999999682
                },
                {
                    "name": "G3",
                    "midi": 55,
                    "time": 87.71559599999934,
                    "velocity": 0.6062992125984252,
                    "duration": 0.08182424999999682
                },
                {
                    "name": "D#3",
                    "midi": 51,
                    "time": 87.71559599999934,
                    "velocity": 0.6062992125984252,
                    "duration": 0.08182424999999682
                },
                {
                    "name": "A#3",
                    "midi": 58,
                    "time": 89.35208099999933,
                    "velocity": 0.6377952755905512,
                    "duration": 0.16364849999999365
                },
                {
                    "name": "G3",
                    "midi": 55,
                    "time": 89.51572949999932,
                    "velocity": 0.6062992125984252,
                    "duration": 0.12273637500000234
                },
                {
                    "name": "G3",
                    "midi": 55,
                    "time": 89.67937799999933,
                    "velocity": 0.6456692913385826,
                    "duration": 0.16364849999999365
                },
                {
                    "name": "D#3",
                    "midi": 51,
                    "time": 89.84302649999933,
                    "velocity": 0.6062992125984252,
                    "duration": 0.12273637500000234
                },
                {
                    "name": "D#3",
                    "midi": 51,
                    "time": 90.00667499999933,
                    "velocity": 0.6535433070866141,
                    "duration": 0.16364849999999365
                },
                {
                    "name": "A#2",
                    "midi": 46,
                    "time": 90.17032349999933,
                    "velocity": 0.6062992125984252,
                    "duration": 0.12273637500000234
                },
                {
                    "name": "A#2",
                    "midi": 46,
                    "time": 90.33397199999933,
                    "velocity": 0.7244094488188977,
                    "duration": 0.9818910000000045
                },
                {
                    "name": "A#1",
                    "midi": 34,
                    "time": 90.33397199999933,
                    "velocity": 0.6141732283464567,
                    "duration": 0.9818910000000045
                },
                {
                    "name": "G#3",
                    "midi": 56,
                    "time": 90.98856599999934,
                    "velocity": 0.5511811023622047,
                    "duration": 0.3272970000000015
                },
                {
                    "name": "F3",
                    "midi": 53,
                    "time": 90.98856599999934,
                    "velocity": 0.4645669291338583,
                    "duration": 0.3272970000000015
                },
                {
                    "name": "G3",
                    "midi": 55,
                    "time": 91.31586299999934,
                    "velocity": 0.6220472440944882,
                    "duration": 0.3272970000000015
                },
                {
                    "name": "D#2",
                    "midi": 39,
                    "time": 91.31586299999934,
                    "velocity": 0.5275590551181102,
                    "duration": 0.3272970000000015
                },
                {
                    "name": "A#2",
                    "midi": 46,
                    "time": 91.64315999999934,
                    "velocity": 0.4015748031496063,
                    "duration": 1.6364850000000075
                },
                {
                    "name": "A2",
                    "midi": 45,
                    "time": 91.97045699999934,
                    "velocity": 0.4015748031496063,
                    "duration": 0.3272970000000015
                },
                {
                    "name": "G#2",
                    "midi": 44,
                    "time": 92.29775399999934,
                    "velocity": 0.4015748031496063,
                    "duration": 0.3272970000000015
                },
                {
                    "name": "G2",
                    "midi": 43,
                    "time": 92.62505099999935,
                    "velocity": 0.3858267716535433,
                    "duration": 0.3272970000000015
                },
                {
                    "name": "F2",
                    "midi": 41,
                    "time": 92.95234799999935,
                    "velocity": 0.3858267716535433,
                    "duration": 0.3272970000000015
                },
                {
                    "name": "D#2",
                    "midi": 39,
                    "time": 93.27964499999935,
                    "velocity": 0.4015748031496063,
                    "duration": 0.3272970000000015
                },
                {
                    "name": "G2",
                    "midi": 43,
                    "time": 93.60694199999935,
                    "velocity": 0.3700787401574803,
                    "duration": 0.3272970000000015
                },
                {
                    "name": "A#2",
                    "midi": 46,
                    "time": 93.93423899999935,
                    "velocity": 0.3700787401574803,
                    "duration": 0.3272970000000015
                },
                {
                    "name": "A#1",
                    "midi": 34,
                    "time": 94.26153599999935,
                    "velocity": 0.4015748031496063,
                    "duration": 0.3272970000000015
                },
                {
                    "name": "F2",
                    "midi": 41,
                    "time": 94.58883299999935,
                    "velocity": 0.3779527559055118,
                    "duration": 0.3272970000000015
                },
                {
                    "name": "A#2",
                    "midi": 46,
                    "time": 94.91612999999936,
                    "velocity": 0.3779527559055118,
                    "duration": 0.3272970000000015
                },
                {
                    "name": "D#2",
                    "midi": 39,
                    "time": 95.24342699999936,
                    "velocity": 0.5275590551181102,
                    "duration": 0.3272970000000015
                },
                {
                    "name": "A#2",
                    "midi": 46,
                    "time": 95.57072399999936,
                    "velocity": 0.4015748031496063,
                    "duration": 1.6364850000000075
                },
                {
                    "name": "A2",
                    "midi": 45,
                    "time": 95.89802099999936,
                    "velocity": 0.4015748031496063,
                    "duration": 0.3272970000000015
                },
                {
                    "name": "G#2",
                    "midi": 44,
                    "time": 96.22531799999936,
                    "velocity": 0.4015748031496063,
                    "duration": 0.3272970000000015
                },
                {
                    "name": "G2",
                    "midi": 43,
                    "time": 96.55261499999936,
                    "velocity": 0.3858267716535433,
                    "duration": 0.3272970000000015
                },
                {
                    "name": "F2",
                    "midi": 41,
                    "time": 96.87991199999936,
                    "velocity": 0.3858267716535433,
                    "duration": 0.3272970000000015
                },
                {
                    "name": "D#2",
                    "midi": 39,
                    "time": 97.20720899999937,
                    "velocity": 0.4015748031496063,
                    "duration": 0.3272970000000015
                },
                {
                    "name": "G2",
                    "midi": 43,
                    "time": 97.53450599999937,
                    "velocity": 0.3700787401574803,
                    "duration": 0.3272970000000015
                },
                {
                    "name": "A#2",
                    "midi": 46,
                    "time": 97.86180299999937,
                    "velocity": 0.3700787401574803,
                    "duration": 0.3272970000000015
                },
                {
                    "name": "A#1",
                    "midi": 34,
                    "time": 98.18909999999937,
                    "velocity": 0.4015748031496063,
                    "duration": 0.3272970000000015
                },
                {
                    "name": "F2",
                    "midi": 41,
                    "time": 98.51639699999937,
                    "velocity": 0.3779527559055118,
                    "duration": 0.3272970000000015
                },
                {
                    "name": "A#2",
                    "midi": 46,
                    "time": 98.84369399999937,
                    "velocity": 0.3779527559055118,
                    "duration": 0.3272970000000015
                },
                {
                    "name": "D#2",
                    "midi": 39,
                    "time": 99.17099099999938,
                    "velocity": 0.4015748031496063,
                    "duration": 0.3272970000000015
                },
                {
                    "name": "G2",
                    "midi": 43,
                    "time": 99.49828799999938,
                    "velocity": 0.3700787401574803,
                    "duration": 0.3272970000000015
                },
                {
                    "name": "A#2",
                    "midi": 46,
                    "time": 99.82558499999938,
                    "velocity": 0.3700787401574803,
                    "duration": 0.3272970000000015
                },
                {
                    "name": "A#1",
                    "midi": 34,
                    "time": 100.15288199999938,
                    "velocity": 0.4015748031496063,
                    "duration": 0.3272970000000015
                },
                {
                    "name": "F2",
                    "midi": 41,
                    "time": 100.48017899999938,
                    "velocity": 0.3779527559055118,
                    "duration": 0.3272970000000015
                },
                {
                    "name": "A#2",
                    "midi": 46,
                    "time": 100.80747599999938,
                    "velocity": 0.3779527559055118,
                    "duration": 0.3272970000000015
                },
                {
                    "name": "D#2",
                    "midi": 39,
                    "time": 101.13477299999938,
                    "velocity": 0.4015748031496063,
                    "duration": 0.3272970000000015
                },
                {
                    "name": "G2",
                    "midi": 43,
                    "time": 101.46206999999939,
                    "velocity": 0.3700787401574803,
                    "duration": 0.3272970000000015
                },
                {
                    "name": "A#2",
                    "midi": 46,
                    "time": 101.78936699999939,
                    "velocity": 0.3700787401574803,
                    "duration": 0.3272970000000015
                },
                {
                    "name": "D#3",
                    "midi": 51,
                    "time": 102.11666399999939,
                    "velocity": 0.31496062992125984,
                    "duration": 0.3272970000000015
                },
                {
                    "name": "G3",
                    "midi": 55,
                    "time": 102.11666399999939,
                    "velocity": 0.3464566929133858,
                    "duration": 0.3272970000000015
                },
                {
                    "name": "C4",
                    "midi": 60,
                    "time": 103.0985549999994,
                    "velocity": 0.5511811023622047,
                    "duration": 0.49094549999999515
                },
                {
                    "name": "G3",
                    "midi": 55,
                    "time": 103.0985549999994,
                    "velocity": 0.4645669291338583,
                    "duration": 0.49094549999999515
                },
                {
                    "name": "D#3",
                    "midi": 51,
                    "time": 103.0985549999994,
                    "velocity": 0.4645669291338583,
                    "duration": 0.49094549999999515
                },
                {
                    "name": "C3",
                    "midi": 48,
                    "time": 103.0985549999994,
                    "velocity": 0.4645669291338583,
                    "duration": 0.49094549999999515
                },
                {
                    "name": "C4",
                    "midi": 60,
                    "time": 105.71693099999939,
                    "velocity": 0.2677165354330709,
                    "duration": 0.16364849999999365
                },
                {
                    "name": "D#4",
                    "midi": 63,
                    "time": 105.71693099999939,
                    "velocity": 0.3228346456692913,
                    "duration": 0.16364849999999365
                },
                {
                    "name": "D#4",
                    "midi": 63,
                    "time": 106.04422799999938,
                    "velocity": 0.3228346456692913,
                    "duration": 0.654594000000003
                },
                {
                    "name": "C4",
                    "midi": 60,
                    "time": 106.04422799999938,
                    "velocity": 0.2677165354330709,
                    "duration": 0.654594000000003
                },
                {
                    "name": "D4",
                    "midi": 62,
                    "time": 106.69882199999938,
                    "velocity": 0.25196850393700787,
                    "duration": 0.3204783125000006
                },
                {
                    "name": "F4",
                    "midi": 65,
                    "time": 106.69882199999938,
                    "velocity": 0.2992125984251969,
                    "duration": 0.3204783125000006
                },
                {
                    "name": "F3",
                    "midi": 53,
                    "time": 107.02611899999938,
                    "velocity": 0.4645669291338583,
                    "duration": 0.49094549999999515
                },
                {
                    "name": "B3",
                    "midi": 59,
                    "time": 107.02611899999938,
                    "velocity": 0.4645669291338583,
                    "duration": 0.49094549999999515
                },
                {
                    "name": "G#3",
                    "midi": 56,
                    "time": 107.02611899999938,
                    "velocity": 0.4645669291338583,
                    "duration": 0.49094549999999515
                },
                {
                    "name": "D4",
                    "midi": 62,
                    "time": 107.02611899999938,
                    "velocity": 0.5511811023622047,
                    "duration": 0.49094549999999515
                },
                {
                    "name": "D3",
                    "midi": 50,
                    "time": 107.02611899999938,
                    "velocity": 0.4645669291338583,
                    "duration": 0.49094549999999515
                },
                {
                    "name": "D4",
                    "midi": 62,
                    "time": 109.64449499999938,
                    "velocity": 0.2677165354330709,
                    "duration": 0.16364849999999365
                },
                {
                    "name": "G#4",
                    "midi": 68,
                    "time": 109.64449499999938,
                    "velocity": 0.3228346456692913,
                    "duration": 0.16364849999999365
                },
                {
                    "name": "F4",
                    "midi": 65,
                    "time": 109.64449499999938,
                    "velocity": 0.2677165354330709,
                    "duration": 0.16364849999999365
                },
                {
                    "name": "G#4",
                    "midi": 68,
                    "time": 109.97179199999937,
                    "velocity": 0.3228346456692913,
                    "duration": 0.654594000000003
                },
                {
                    "name": "F4",
                    "midi": 65,
                    "time": 109.97179199999937,
                    "velocity": 0.2677165354330709,
                    "duration": 0.654594000000003
                },
                {
                    "name": "D4",
                    "midi": 62,
                    "time": 109.97179199999937,
                    "velocity": 0.2677165354330709,
                    "duration": 0.654594000000003
                },
                {
                    "name": "G4",
                    "midi": 67,
                    "time": 110.62638599999937,
                    "velocity": 0.2992125984251969,
                    "duration": 0.3272970000000015
                },
                {
                    "name": "D#4",
                    "midi": 63,
                    "time": 110.62638599999937,
                    "velocity": 0.25196850393700787,
                    "duration": 0.3272970000000015
                },
                {
                    "name": "C4",
                    "midi": 60,
                    "time": 111.60827699999938,
                    "velocity": 0.2755905511811024,
                    "duration": 0.3272970000000015
                },
                {
                    "name": "G3",
                    "midi": 55,
                    "time": 111.60827699999938,
                    "velocity": 0.2283464566929134,
                    "duration": 0.3272970000000015
                },
                {
                    "name": "D#3",
                    "midi": 51,
                    "time": 111.60827699999938,
                    "velocity": 0.2283464566929134,
                    "duration": 0.3272970000000015
                },
                {
                    "name": "F3",
                    "midi": 53,
                    "time": 111.93557399999938,
                    "velocity": 0.25984251968503935,
                    "duration": 0.654594000000003
                },
                {
                    "name": "G#3",
                    "midi": 56,
                    "time": 111.93557399999938,
                    "velocity": 0.25984251968503935,
                    "duration": 0.654594000000003
                },
                {
                    "name": "B3",
                    "midi": 59,
                    "time": 111.93557399999938,
                    "velocity": 0.30708661417322836,
                    "duration": 0.654594000000003
                },
                {
                    "name": "C4",
                    "midi": 60,
                    "time": 112.59016799999938,
                    "velocity": 0.2677165354330709,
                    "duration": 0.3272970000000015
                },
                {
                    "name": "G3",
                    "midi": 55,
                    "time": 112.59016799999938,
                    "velocity": 0.2204724409448819,
                    "duration": 0.3272970000000015
                },
                {
                    "name": "D#3",
                    "midi": 51,
                    "time": 112.59016799999938,
                    "velocity": 0.2204724409448819,
                    "duration": 0.3272970000000015
                },
                {
                    "name": "D#4",
                    "midi": 63,
                    "time": 113.57205899999938,
                    "velocity": 0.2283464566929134,
                    "duration": 0.3272970000000015
                },
                {
                    "name": "G4",
                    "midi": 67,
                    "time": 113.57205899999938,
                    "velocity": 0.2755905511811024,
                    "duration": 0.3272970000000015
                },
                {
                    "name": "G#4",
                    "midi": 68,
                    "time": 113.89935599999939,
                    "velocity": 0.30708661417322836,
                    "duration": 0.654594000000003
                },
                {
                    "name": "F4",
                    "midi": 65,
                    "time": 113.89935599999939,
                    "velocity": 0.25984251968503935,
                    "duration": 0.654594000000003
                },
                {
                    "name": "D#4",
                    "midi": 63,
                    "time": 114.55394999999939,
                    "velocity": 0.2204724409448819,
                    "duration": 0.3272970000000015
                },
                {
                    "name": "G4",
                    "midi": 67,
                    "time": 114.55394999999939,
                    "velocity": 0.2677165354330709,
                    "duration": 0.3272970000000015
                },
                {
                    "name": "G3",
                    "midi": 55,
                    "time": 115.5358409999994,
                    "velocity": 0.30708661417322836,
                    "duration": 0.3272970000000015
                },
                {
                    "name": "C4",
                    "midi": 60,
                    "time": 115.5358409999994,
                    "velocity": 0.3700787401574803,
                    "duration": 0.3272970000000015
                },
                {
                    "name": "D#3",
                    "midi": 51,
                    "time": 115.5358409999994,
                    "velocity": 0.30708661417322836,
                    "duration": 0.3272970000000015
                },
                {
                    "name": "B3",
                    "midi": 59,
                    "time": 115.8631379999994,
                    "velocity": 0.41732283464566927,
                    "duration": 0.654594000000003
                },
                {
                    "name": "F3",
                    "midi": 53,
                    "time": 115.8631379999994,
                    "velocity": 0.3543307086614173,
                    "duration": 0.654594000000003
                },
                {
                    "name": "G#3",
                    "midi": 56,
                    "time": 115.8631379999994,
                    "velocity": 0.3543307086614173,
                    "duration": 0.654594000000003
                },
                {
                    "name": "G3",
                    "midi": 55,
                    "time": 116.5177319999994,
                    "velocity": 0.36220472440944884,
                    "duration": 0.3272970000000015
                },
                {
                    "name": "D#3",
                    "midi": 51,
                    "time": 116.5177319999994,
                    "velocity": 0.30708661417322836,
                    "duration": 0.3272970000000015
                },
                {
                    "name": "D3",
                    "midi": 50,
                    "time": 116.8450289999994,
                    "velocity": 0.36220472440944884,
                    "duration": 0.654594000000003
                },
                {
                    "name": "F3",
                    "midi": 53,
                    "time": 116.8450289999994,
                    "velocity": 0.4409448818897638,
                    "duration": 0.654594000000003
                },
                {
                    "name": "D#3",
                    "midi": 51,
                    "time": 117.4996229999994,
                    "velocity": 0.3858267716535433,
                    "duration": 0.3272970000000015
                },
                {
                    "name": "C3",
                    "midi": 48,
                    "time": 117.4996229999994,
                    "velocity": 0.3228346456692913,
                    "duration": 0.3272970000000015
                },
                {
                    "name": "D3",
                    "midi": 50,
                    "time": 117.8269199999994,
                    "velocity": 0.3700787401574803,
                    "duration": 0.3272970000000015
                },
                {
                    "name": "B2",
                    "midi": 47,
                    "time": 117.8269199999994,
                    "velocity": 0.4409448818897638,
                    "duration": 0.3272970000000015
                },
                {
                    "name": "G#3",
                    "midi": 56,
                    "time": 119.46340499999941,
                    "velocity": 0.2677165354330709,
                    "duration": 0.3272970000000015
                },
                {
                    "name": "F3",
                    "midi": 53,
                    "time": 119.46340499999941,
                    "velocity": 0.2204724409448819,
                    "duration": 0.3272970000000015
                },
                {
                    "name": "D3",
                    "midi": 50,
                    "time": 119.46340499999941,
                    "velocity": 0.2204724409448819,
                    "duration": 0.3272970000000015
                },
                {
                    "name": "B2",
                    "midi": 47,
                    "time": 119.46340499999941,
                    "velocity": 0.2204724409448819,
                    "duration": 0.3272970000000015
                },
                {
                    "name": "G3",
                    "midi": 55,
                    "time": 119.79070199999941,
                    "velocity": 0.2677165354330709,
                    "duration": 0.08182424999999682
                },
                {
                    "name": "D#3",
                    "midi": 51,
                    "time": 119.79070199999941,
                    "velocity": 0.2204724409448819,
                    "duration": 0.08182424999999682
                },
                {
                    "name": "C3",
                    "midi": 48,
                    "time": 119.79070199999941,
                    "velocity": 0.2204724409448819,
                    "duration": 0.08182424999999682
                },
                {
                    "name": "D3",
                    "midi": 50,
                    "time": 121.4271869999994,
                    "velocity": 0.2677165354330709,
                    "duration": 0.3272970000000015
                },
                {
                    "name": "G#2",
                    "midi": 44,
                    "time": 121.4271869999994,
                    "velocity": 0.2204724409448819,
                    "duration": 0.3272970000000015
                },
                {
                    "name": "F2",
                    "midi": 41,
                    "time": 121.4271869999994,
                    "velocity": 0.2204724409448819,
                    "duration": 0.3272970000000015
                },
                {
                    "name": "C3",
                    "midi": 48,
                    "time": 121.75448399999941,
                    "velocity": 0.2204724409448819,
                    "duration": 0.08182424999999682
                },
                {
                    "name": "G2",
                    "midi": 43,
                    "time": 121.75448399999941,
                    "velocity": 0.2204724409448819,
                    "duration": 0.08182424999999682
                },
                {
                    "name": "D#3",
                    "midi": 51,
                    "time": 121.75448399999941,
                    "velocity": 0.2677165354330709,
                    "duration": 0.08182424999999682
                },
                {
                    "name": "G2",
                    "midi": 43,
                    "time": 123.3909689999994,
                    "velocity": 0.5748031496062992,
                    "duration": 0.16364849999999365
                },
                {
                    "name": "G1",
                    "midi": 31,
                    "time": 123.3909689999994,
                    "velocity": 0.5748031496062992,
                    "duration": 0.16364849999999365
                },
                {
                    "name": "G2",
                    "midi": 43,
                    "time": 123.71826599999939,
                    "velocity": 0.5275590551181102,
                    "duration": 0.49094549999999515
                },
                {
                    "name": "C2",
                    "midi": 36,
                    "time": 123.71826599999939,
                    "velocity": 0.5275590551181102,
                    "duration": 0.49094549999999515
                },
                {
                    "name": "C3",
                    "midi": 48,
                    "time": 123.71826599999939,
                    "velocity": 0.6299212598425197,
                    "duration": 0.49094549999999515
                },
                {
                    "name": "D#2",
                    "midi": 39,
                    "time": 123.71826599999939,
                    "velocity": 0.5275590551181102,
                    "duration": 0.49094549999999515
                },
                {
                    "name": "C3",
                    "midi": 48,
                    "time": 125.35475099999938,
                    "velocity": 0.4566929133858268,
                    "duration": 0.08182424999999682
                },
                {
                    "name": "G3",
                    "midi": 55,
                    "time": 125.35475099999938,
                    "velocity": 0.5433070866141733,
                    "duration": 0.08182424999999682
                },
                {
                    "name": "D#3",
                    "midi": 51,
                    "time": 125.35475099999938,
                    "velocity": 0.4566929133858268,
                    "duration": 0.08182424999999682
                },
                {
                    "name": "B2",
                    "midi": 47,
                    "time": 125.68204799999938,
                    "velocity": 0.4566929133858268,
                    "duration": 0.08182424999999682
                },
                {
                    "name": "D3",
                    "midi": 50,
                    "time": 125.68204799999938,
                    "velocity": 0.4566929133858268,
                    "duration": 0.08182424999999682
                },
                {
                    "name": "G3",
                    "midi": 55,
                    "time": 125.68204799999938,
                    "velocity": 0.5433070866141733,
                    "duration": 0.08182424999999682
                },
                {
                    "name": "G3",
                    "midi": 55,
                    "time": 127.31853299999938,
                    "velocity": 0.5433070866141733,
                    "duration": 0.08182424999999682
                },
                {
                    "name": "B2",
                    "midi": 47,
                    "time": 127.31853299999938,
                    "velocity": 0.4566929133858268,
                    "duration": 0.08182424999999682
                },
                {
                    "name": "D3",
                    "midi": 50,
                    "time": 127.31853299999938,
                    "velocity": 0.4566929133858268,
                    "duration": 0.08182424999999682
                },
                {
                    "name": "G3",
                    "midi": 55,
                    "time": 127.64582999999938,
                    "velocity": 0.5433070866141733,
                    "duration": 0.08182424999999682
                },
                {
                    "name": "C3",
                    "midi": 48,
                    "time": 127.64582999999938,
                    "velocity": 0.4566929133858268,
                    "duration": 0.08182424999999682
                },
                {
                    "name": "D#3",
                    "midi": 51,
                    "time": 127.64582999999938,
                    "velocity": 0.4566929133858268,
                    "duration": 0.08182424999999682
                },
                {
                    "name": "D#3",
                    "midi": 51,
                    "time": 129.2823149999994,
                    "velocity": 0.4566929133858268,
                    "duration": 0.08182425000001103
                },
                {
                    "name": "C4",
                    "midi": 60,
                    "time": 129.2823149999994,
                    "velocity": 0.5433070866141733,
                    "duration": 0.08182425000001103
                },
                {
                    "name": "G3",
                    "midi": 55,
                    "time": 129.2823149999994,
                    "velocity": 0.4566929133858268,
                    "duration": 0.08182425000001103
                },
                {
                    "name": "G#3",
                    "midi": 56,
                    "time": 129.6096119999994,
                    "velocity": 0.4566929133858268,
                    "duration": 0.08182425000001103
                },
                {
                    "name": "D4",
                    "midi": 62,
                    "time": 129.6096119999994,
                    "velocity": 0.5433070866141733,
                    "duration": 0.08182425000001103
                },
                {
                    "name": "F3",
                    "midi": 53,
                    "time": 129.6096119999994,
                    "velocity": 0.4566929133858268,
                    "duration": 0.08182425000001103
                },
                {
                    "name": "D4",
                    "midi": 62,
                    "time": 130.59150299999942,
                    "velocity": 0.5433070866141733,
                    "duration": 0.08182425000001103
                },
                {
                    "name": "B3",
                    "midi": 59,
                    "time": 130.59150299999942,
                    "velocity": 0.4566929133858268,
                    "duration": 0.08182425000001103
                },
                {
                    "name": "G3",
                    "midi": 55,
                    "time": 130.59150299999942,
                    "velocity": 0.4566929133858268,
                    "duration": 0.08182425000001103
                },
                {
                    "name": "G3",
                    "midi": 55,
                    "time": 131.57339399999944,
                    "velocity": 0.4566929133858268,
                    "duration": 0.08182425000001103
                },
                {
                    "name": "C3",
                    "midi": 48,
                    "time": 131.57339399999944,
                    "velocity": 0.4566929133858268,
                    "duration": 0.08182425000001103
                },
                {
                    "name": "C4",
                    "midi": 60,
                    "time": 131.57339399999944,
                    "velocity": 0.5433070866141733,
                    "duration": 0.08182425000001103
                },
                {
                    "name": "D#3",
                    "midi": 51,
                    "time": 131.57339399999944,
                    "velocity": 0.4566929133858268,
                    "duration": 0.08182425000001103
                },
                {
                    "name": "D#4",
                    "midi": 63,
                    "time": 133.53717599999945,
                    "velocity": 0.5433070866141733,
                    "duration": 2.945672999999971
                },
                {
                    "name": "C#4",
                    "midi": 61,
                    "time": 134.51906699999944,
                    "velocity": 0.3937007874015748,
                    "duration": 0.9818909999999903
                },
                {
                    "name": "C4",
                    "midi": 60,
                    "time": 135.50095799999943,
                    "velocity": 0.3858267716535433,
                    "duration": 0.9818909999999903
                },
                {
                    "name": "C#4",
                    "midi": 61,
                    "time": 136.48284899999942,
                    "velocity": 0.2677165354330709,
                    "duration": 0.9818909999999903
                },
                {
                    "name": "A#3",
                    "midi": 58,
                    "time": 136.48284899999942,
                    "velocity": 0.2204724409448819,
                    "duration": 0.9818909999999903
                },
                {
                    "name": "G#3",
                    "midi": 56,
                    "time": 137.4647399999994,
                    "velocity": 0.2204724409448819,
                    "duration": 0.9818909999999903
                },
                {
                    "name": "D#4",
                    "midi": 63,
                    "time": 137.4647399999994,
                    "velocity": 0.25984251968503935,
                    "duration": 0.9818909999999903
                },
                {
                    "name": "A#4",
                    "midi": 70,
                    "time": 138.4466309999994,
                    "velocity": 0.3937007874015748,
                    "duration": 0.9818909999999903
                },
                {
                    "name": "C5",
                    "midi": 72,
                    "time": 138.4466309999994,
                    "velocity": 0.47244094488188976,
                    "duration": 1.9637819999999806
                },
                {
                    "name": "G#4",
                    "midi": 68,
                    "time": 139.4285219999994,
                    "velocity": 0.3858267716535433,
                    "duration": 0.9818909999999903
                },
                {
                    "name": "G4",
                    "midi": 67,
                    "time": 140.41041299999938,
                    "velocity": 0.2204724409448819,
                    "duration": 0.9818909999999903
                },
                {
                    "name": "A#4",
                    "midi": 70,
                    "time": 140.41041299999938,
                    "velocity": 0.2677165354330709,
                    "duration": 0.9818909999999903
                },
                {
                    "name": "F4",
                    "midi": 65,
                    "time": 141.39230399999937,
                    "velocity": 0.2204724409448819,
                    "duration": 0.9818909999999903
                },
                {
                    "name": "G#4",
                    "midi": 68,
                    "time": 141.39230399999937,
                    "velocity": 0.25984251968503935,
                    "duration": 0.9818909999999903
                },
                {
                    "name": "F#4",
                    "midi": 66,
                    "time": 142.37419499999936,
                    "velocity": 0.3937007874015748,
                    "duration": 0.9818909999999903
                },
                {
                    "name": "G#4",
                    "midi": 68,
                    "time": 142.37419499999936,
                    "velocity": 0.47244094488188976,
                    "duration": 1.9637819999999806
                },
                {
                    "name": "F4",
                    "midi": 65,
                    "time": 143.35608599999935,
                    "velocity": 0.3858267716535433,
                    "duration": 0.9818909999999903
                },
                {
                    "name": "D#4",
                    "midi": 63,
                    "time": 144.33797699999934,
                    "velocity": 0.3464566929133858,
                    "duration": 0.9818909999999903
                },
                {
                    "name": "F#4",
                    "midi": 66,
                    "time": 144.33797699999934,
                    "velocity": 0.3464566929133858,
                    "duration": 0.9818909999999903
                },
                {
                    "name": "C#4",
                    "midi": 61,
                    "time": 145.31986799999933,
                    "velocity": 0.2204724409448819,
                    "duration": 0.9818909999999903
                },
                {
                    "name": "F4",
                    "midi": 65,
                    "time": 145.31986799999933,
                    "velocity": 0.25984251968503935,
                    "duration": 0.9818909999999903
                },
                {
                    "name": "B3",
                    "midi": 59,
                    "time": 146.30175899999932,
                    "velocity": 0.33070866141732286,
                    "duration": 0.9818909999999903
                },
                {
                    "name": "D#4",
                    "midi": 63,
                    "time": 146.30175899999932,
                    "velocity": 0.3779527559055118,
                    "duration": 0.9818909999999903
                },
                {
                    "name": "A#3",
                    "midi": 58,
                    "time": 147.2836499999993,
                    "velocity": 0.25984251968503935,
                    "duration": 0.9818909999999903
                },
                {
                    "name": "A3",
                    "midi": 57,
                    "time": 148.2655409999993,
                    "velocity": 0.25984251968503935,
                    "duration": 0.9818909999999903
                },
                {
                    "name": "A#2",
                    "midi": 46,
                    "time": 149.2474319999993,
                    "velocity": 0.25984251968503935,
                    "duration": 1.9637819999999238
                },
                {
                    "name": "F3",
                    "midi": 53,
                    "time": 149.57472899999928,
                    "velocity": 0.25984251968503935,
                    "duration": 0.3272969999999873
                },
                {
                    "name": "G3",
                    "midi": 55,
                    "time": 149.90202599999927,
                    "velocity": 0.29133858267716534,
                    "duration": 0.3272969999999873
                },
                {
                    "name": "G#3",
                    "midi": 56,
                    "time": 150.22932299999925,
                    "velocity": 0.3228346456692913,
                    "duration": 0.3272969999999873
                },
                {
                    "name": "E3",
                    "midi": 52,
                    "time": 150.55661999999924,
                    "velocity": 0.25984251968503935,
                    "duration": 0.3272969999999873
                },
                {
                    "name": "F3",
                    "midi": 53,
                    "time": 150.88391699999923,
                    "velocity": 0.2755905511811024,
                    "duration": 0.3272969999999873
                },
                {
                    "name": "A#2",
                    "midi": 46,
                    "time": 151.21121399999922,
                    "velocity": 0.33070866141732286,
                    "duration": 1.9637819999999238
                },
                {
                    "name": "G3",
                    "midi": 55,
                    "time": 151.21121399999922,
                    "velocity": 0.33070866141732286,
                    "duration": 0.3272969999999873
                },
                {
                    "name": "D3",
                    "midi": 50,
                    "time": 151.5385109999992,
                    "velocity": 0.25984251968503935,
                    "duration": 0.3272969999999873
                },
                {
                    "name": "D#3",
                    "midi": 51,
                    "time": 151.8658079999992,
                    "velocity": 0.25984251968503935,
                    "duration": 0.3272969999999873
                },
                {
                    "name": "F3",
                    "midi": 53,
                    "time": 152.19310499999918,
                    "velocity": 0.31496062992125984,
                    "duration": 0.3272969999999873
                },
                {
                    "name": "C3",
                    "midi": 48,
                    "time": 152.52040199999917,
                    "velocity": 0.25984251968503935,
                    "duration": 0.3272969999999873
                },
                {
                    "name": "D3",
                    "midi": 50,
                    "time": 152.84769899999915,
                    "velocity": 0.25984251968503935,
                    "duration": 0.3272969999999873
                },
                {
                    "name": "A#2",
                    "midi": 46,
                    "time": 153.17499599999914,
                    "velocity": 0.30708661417322836,
                    "duration": 1.9637819999999238
                },
                {
                    "name": "D#3",
                    "midi": 51,
                    "time": 153.17499599999914,
                    "velocity": 0.30708661417322836,
                    "duration": 0.3272969999999873
                },
                {
                    "name": "F3",
                    "midi": 53,
                    "time": 153.50229299999913,
                    "velocity": 0.25984251968503935,
                    "duration": 0.3272969999999873
                },
                {
                    "name": "G3",
                    "midi": 55,
                    "time": 153.82958999999911,
                    "velocity": 0.28346456692913385,
                    "duration": 0.3272969999999873
                },
                {
                    "name": "G#3",
                    "midi": 56,
                    "time": 154.1568869999991,
                    "velocity": 0.31496062992125984,
                    "duration": 0.3272969999999873
                },
                {
                    "name": "E3",
                    "midi": 52,
                    "time": 154.4841839999991,
                    "velocity": 0.25984251968503935,
                    "duration": 0.3272969999999873
                },
                {
                    "name": "F3",
                    "midi": 53,
                    "time": 154.81148099999908,
                    "velocity": 0.25984251968503935,
                    "duration": 0.3272969999999873
                },
                {
                    "name": "G3",
                    "midi": 55,
                    "time": 155.13877799999906,
                    "velocity": 0.33070866141732286,
                    "duration": 0.3272969999999873
                },
                {
                    "name": "A#2",
                    "midi": 46,
                    "time": 155.13877799999906,
                    "velocity": 0.33070866141732286,
                    "duration": 1.9637819999999238
                },
                {
                    "name": "D3",
                    "midi": 50,
                    "time": 155.46607499999905,
                    "velocity": 0.25984251968503935,
                    "duration": 0.3272969999999873
                },
                {
                    "name": "D#3",
                    "midi": 51,
                    "time": 155.79337199999904,
                    "velocity": 0.25984251968503935,
                    "duration": 0.3272969999999873
                },
                {
                    "name": "F3",
                    "midi": 53,
                    "time": 156.12066899999903,
                    "velocity": 0.31496062992125984,
                    "duration": 0.3272969999999873
                },
                {
                    "name": "C3",
                    "midi": 48,
                    "time": 156.447965999999,
                    "velocity": 0.25984251968503935,
                    "duration": 0.3272969999999873
                },
                {
                    "name": "D3",
                    "midi": 50,
                    "time": 156.775262999999,
                    "velocity": 0.25984251968503935,
                    "duration": 0.3272969999999873
                },
                {
                    "name": "D#3",
                    "midi": 51,
                    "time": 157.102559999999,
                    "velocity": 0.31496062992125984,
                    "duration": 0.16364849999999365
                },
                {
                    "name": "A#3",
                    "midi": 58,
                    "time": 157.26620849999898,
                    "velocity": 0.2204724409448819,
                    "duration": 0.16364849999999365
                },
                {
                    "name": "G3",
                    "midi": 55,
                    "time": 157.42985699999898,
                    "velocity": 0.25984251968503935,
                    "duration": 0.16364849999999365
                },
                {
                    "name": "A#3",
                    "midi": 58,
                    "time": 157.59350549999897,
                    "velocity": 0.2125984251968504,
                    "duration": 0.16364849999999365
                },
                {
                    "name": "F3",
                    "midi": 53,
                    "time": 157.76670016249895,
                    "velocity": 0.25984251968503935,
                    "duration": 0.16364849999999365
                },
                {
                    "name": "A#3",
                    "midi": 58,
                    "time": 157.92080249999896,
                    "velocity": 0.23622047244094488,
                    "duration": 0.16364849999999365
                },
                {
                    "name": "D#3",
                    "midi": 51,
                    "time": 158.08445099999895,
                    "velocity": 0.2992125984251969,
                    "duration": 0.16364849999999365
                },
                {
                    "name": "A#3",
                    "midi": 58,
                    "time": 158.24809949999894,
                    "velocity": 0.25984251968503935,
                    "duration": 0.16364849999999365
                },
                {
                    "name": "F3",
                    "midi": 53,
                    "time": 158.41174799999894,
                    "velocity": 0.3543307086614173,
                    "duration": 0.16364849999999365
                },
                {
                    "name": "A#3",
                    "midi": 58,
                    "time": 158.57539649999893,
                    "velocity": 0.29133858267716534,
                    "duration": 0.16364849999999365
                },
                {
                    "name": "G3",
                    "midi": 55,
                    "time": 158.73904499999892,
                    "velocity": 0.3779527559055118,
                    "duration": 0.16364849999999365
                },
                {
                    "name": "A#3",
                    "midi": 58,
                    "time": 158.90269349999892,
                    "velocity": 0.33858267716535434,
                    "duration": 0.16364849999999365
                },
                {
                    "name": "F3",
                    "midi": 53,
                    "time": 159.0663419999989,
                    "velocity": 0.4330708661417323,
                    "duration": 0.16364849999999365
                },
                {
                    "name": "A#3",
                    "midi": 58,
                    "time": 159.2299904999989,
                    "velocity": 0.31496062992125984,
                    "duration": 0.16364849999999365
                },
                {
                    "name": "G3",
                    "midi": 55,
                    "time": 159.3936389999989,
                    "velocity": 0.3779527559055118,
                    "duration": 0.16364849999999365
                },
                {
                    "name": "A#3",
                    "midi": 58,
                    "time": 159.5572874999989,
                    "velocity": 0.23622047244094488,
                    "duration": 0.16364849999999365
                },
                {
                    "name": "G#3",
                    "midi": 56,
                    "time": 159.7209359999989,
                    "velocity": 0.31496062992125984,
                    "duration": 0.16364849999999365
                },
                {
                    "name": "A#3",
                    "midi": 58,
                    "time": 159.88458449999888,
                    "velocity": 0.25984251968503935,
                    "duration": 0.16364849999999365
                },
                {
                    "name": "F3",
                    "midi": 53,
                    "time": 160.04823299999887,
                    "velocity": 0.30708661417322836,
                    "duration": 0.16364849999999365
                },
                {
                    "name": "A#3",
                    "midi": 58,
                    "time": 160.21188149999887,
                    "velocity": 0.25984251968503935,
                    "duration": 0.16364849999999365
                },
                {
                    "name": "G3",
                    "midi": 55,
                    "time": 160.37552999999886,
                    "velocity": 0.3228346456692913,
                    "duration": 0.16364849999999365
                },
                {
                    "name": "A#3",
                    "midi": 58,
                    "time": 160.53917849999885,
                    "velocity": 0.25984251968503935,
                    "duration": 0.16364849999999365
                },
                {
                    "name": "G#3",
                    "midi": 56,
                    "time": 160.70282699999885,
                    "velocity": 0.3228346456692913,
                    "duration": 0.16364849999999365
                },
                {
                    "name": "A#3",
                    "midi": 58,
                    "time": 160.86647549999884,
                    "velocity": 0.25984251968503935,
                    "duration": 0.16364849999999365
                },
                {
                    "name": "D3",
                    "midi": 50,
                    "time": 161.03012399999884,
                    "velocity": 0.31496062992125984,
                    "duration": 0.16364849999999365
                },
                {
                    "name": "A#3",
                    "midi": 58,
                    "time": 161.19377249999883,
                    "velocity": 0.2204724409448819,
                    "duration": 0.16364849999999365
                },
                {
                    "name": "F3",
                    "midi": 53,
                    "time": 161.35742099999882,
                    "velocity": 0.25984251968503935,
                    "duration": 0.16364849999999365
                },
                {
                    "name": "A#3",
                    "midi": 58,
                    "time": 161.52106949999882,
                    "velocity": 0.2125984251968504,
                    "duration": 0.16364849999999365
                },
                {
                    "name": "D#3",
                    "midi": 51,
                    "time": 161.6847179999988,
                    "velocity": 0.2992125984251969,
                    "duration": 0.16364849999999365
                },
                {
                    "name": "A#3",
                    "midi": 58,
                    "time": 161.8483664999988,
                    "velocity": 0.2677165354330709,
                    "duration": 0.16364849999999365
                },
                {
                    "name": "D3",
                    "midi": 50,
                    "time": 162.0120149999988,
                    "velocity": 0.2992125984251969,
                    "duration": 0.16364849999999365
                },
                {
                    "name": "A#3",
                    "midi": 58,
                    "time": 162.1756634999988,
                    "velocity": 0.2677165354330709,
                    "duration": 0.16364849999999365
                },
                {
                    "name": "D#3",
                    "midi": 51,
                    "time": 162.33931199999878,
                    "velocity": 0.36220472440944884,
                    "duration": 0.16364849999999365
                },
                {
                    "name": "A#3",
                    "midi": 58,
                    "time": 162.50296049999878,
                    "velocity": 0.30708661417322836,
                    "duration": 0.16364849999999365
                },
                {
                    "name": "F3",
                    "midi": 53,
                    "time": 162.66660899999877,
                    "velocity": 0.3779527559055118,
                    "duration": 0.16364849999999365
                },
                {
                    "name": "A#3",
                    "midi": 58,
                    "time": 162.83025749999877,
                    "velocity": 0.3464566929133858,
                    "duration": 0.16364849999999365
                },
                {
                    "name": "D#3",
                    "midi": 51,
                    "time": 162.99390599999876,
                    "velocity": 0.4330708661417323,
                    "duration": 0.16364849999999365
                },
                {
                    "name": "A#3",
                    "midi": 58,
                    "time": 163.15755449999875,
                    "velocity": 0.33858267716535434,
                    "duration": 0.16364849999999365
                },
                {
                    "name": "F3",
                    "midi": 53,
                    "time": 163.32120299999875,
                    "velocity": 0.4094488188976378,
                    "duration": 0.16364849999999365
                },
                {
                    "name": "A#3",
                    "midi": 58,
                    "time": 163.48485149999874,
                    "velocity": 0.29133858267716534,
                    "duration": 0.16364849999999365
                },
                {
                    "name": "G3",
                    "midi": 55,
                    "time": 163.64849999999873,
                    "velocity": 0.36220472440944884,
                    "duration": 0.16364849999999365
                },
                {
                    "name": "A#3",
                    "midi": 58,
                    "time": 163.81214849999873,
                    "velocity": 0.25984251968503935,
                    "duration": 0.16364849999999365
                },
                {
                    "name": "D#3",
                    "midi": 51,
                    "time": 163.97579699999872,
                    "velocity": 0.3464566929133858,
                    "duration": 0.16364849999999365
                },
                {
                    "name": "A#3",
                    "midi": 58,
                    "time": 164.13944549999871,
                    "velocity": 0.30708661417322836,
                    "duration": 0.16364849999999365
                },
                {
                    "name": "F3",
                    "midi": 53,
                    "time": 164.3030939999987,
                    "velocity": 0.3228346456692913,
                    "duration": 0.16364849999999365
                },
                {
                    "name": "A#3",
                    "midi": 58,
                    "time": 164.4667424999987,
                    "velocity": 0.25984251968503935,
                    "duration": 0.16364849999999365
                },
                {
                    "name": "G3",
                    "midi": 55,
                    "time": 164.6303909999987,
                    "velocity": 0.3228346456692913,
                    "duration": 0.16364849999999365
                },
                {
                    "name": "A#3",
                    "midi": 58,
                    "time": 164.7940394999987,
                    "velocity": 0.25984251968503935,
                    "duration": 0.16364849999999365
                },
                {
                    "name": "D#3",
                    "midi": 51,
                    "time": 164.95768799999868,
                    "velocity": 0.31496062992125984,
                    "duration": 0.16364849999999365
                },
                {
                    "name": "A#3",
                    "midi": 58,
                    "time": 165.12133649999868,
                    "velocity": 0.2204724409448819,
                    "duration": 0.16364849999999365
                },
                {
                    "name": "G3",
                    "midi": 55,
                    "time": 165.28498499999867,
                    "velocity": 0.25984251968503935,
                    "duration": 0.16364849999999365
                },
                {
                    "name": "A#3",
                    "midi": 58,
                    "time": 165.44863349999866,
                    "velocity": 0.2125984251968504,
                    "duration": 0.16364849999999365
                },
                {
                    "name": "D#3",
                    "midi": 51,
                    "time": 165.61228199999866,
                    "velocity": 0.31496062992125984,
                    "duration": 0.16364849999999365
                },
                {
                    "name": "A#3",
                    "midi": 58,
                    "time": 165.77593049999865,
                    "velocity": 0.2440944881889764,
                    "duration": 0.16364849999999365
                },
                {
                    "name": "D#3",
                    "midi": 51,
                    "time": 165.93957899999864,
                    "velocity": 0.33858267716535434,
                    "duration": 0.16364849999999365
                },
                {
                    "name": "A#3",
                    "midi": 58,
                    "time": 166.10322749999864,
                    "velocity": 0.2992125984251969,
                    "duration": 0.16364849999999365
                },
                {
                    "name": "G3",
                    "midi": 55,
                    "time": 166.26687599999863,
                    "velocity": 0.4094488188976378,
                    "duration": 0.16364849999999365
                },
                {
                    "name": "A#3",
                    "midi": 58,
                    "time": 166.43052449999863,
                    "velocity": 0.3543307086614173,
                    "duration": 0.16364849999999365
                },
                {
                    "name": "D#3",
                    "midi": 51,
                    "time": 166.59417299999862,
                    "velocity": 0.4251968503937008,
                    "duration": 0.16364849999999365
                },
                {
                    "name": "A#3",
                    "midi": 58,
                    "time": 166.7578214999986,
                    "velocity": 0.3700787401574803,
                    "duration": 0.16364849999999365
                },
                {
                    "name": "F3",
                    "midi": 53,
                    "time": 166.9214699999986,
                    "velocity": 0.4094488188976378,
                    "duration": 0.16364849999999365
                },
                {
                    "name": "A#3",
                    "midi": 58,
                    "time": 167.0851184999986,
                    "velocity": 0.33858267716535434,
                    "duration": 0.16364849999999365
                },
                {
                    "name": "G#3",
                    "midi": 56,
                    "time": 167.2487669999986,
                    "velocity": 0.4015748031496063,
                    "duration": 0.16364849999999365
                },
                {
                    "name": "A#3",
                    "midi": 58,
                    "time": 167.4124154999986,
                    "velocity": 0.31496062992125984,
                    "duration": 0.16364849999999365
                },
                {
                    "name": "F3",
                    "midi": 53,
                    "time": 167.57606399999858,
                    "velocity": 0.36220472440944884,
                    "duration": 0.16364849999999365
                },
                {
                    "name": "A#3",
                    "midi": 58,
                    "time": 167.73971249999857,
                    "velocity": 0.29133858267716534,
                    "duration": 0.16364849999999365
                },
                {
                    "name": "F3",
                    "midi": 53,
                    "time": 167.90336099999857,
                    "velocity": 0.29133858267716534,
                    "duration": 0.16364849999999365
                },
                {
                    "name": "A#3",
                    "midi": 58,
                    "time": 168.06700949999856,
                    "velocity": 0.2440944881889764,
                    "duration": 0.16364849999999365
                },
                {
                    "name": "G#3",
                    "midi": 56,
                    "time": 168.23065799999856,
                    "velocity": 0.30708661417322836,
                    "duration": 0.16364849999999365
                },
                {
                    "name": "A#3",
                    "midi": 58,
                    "time": 168.39430649999855,
                    "velocity": 0.2440944881889764,
                    "duration": 0.16364849999999365
                },
                {
                    "name": "F3",
                    "midi": 53,
                    "time": 168.55795499999854,
                    "velocity": 0.30708661417322836,
                    "duration": 0.16364849999999365
                },
                {
                    "name": "A#3",
                    "midi": 58,
                    "time": 168.72160349999854,
                    "velocity": 0.2440944881889764,
                    "duration": 0.16228476250000767
                },
                {
                    "name": "D3",
                    "midi": 50,
                    "time": 168.88525199999853,
                    "velocity": 0.31496062992125984,
                    "duration": 0.16364849999999365
                },
                {
                    "name": "A#3",
                    "midi": 58,
                    "time": 169.04890049999852,
                    "velocity": 0.25196850393700787,
                    "duration": 0.16364849999999365
                },
                {
                    "name": "F3",
                    "midi": 53,
                    "time": 169.21254899999852,
                    "velocity": 0.30708661417322836,
                    "duration": 0.16364849999999365
                },
                {
                    "name": "A#3",
                    "midi": 58,
                    "time": 169.3761974999985,
                    "velocity": 0.2283464566929134,
                    "duration": 0.16364849999999365
                },
                {
                    "name": "D3",
                    "midi": 50,
                    "time": 169.5398459999985,
                    "velocity": 0.3543307086614173,
                    "duration": 0.16364849999999365
                },
                {
                    "name": "A#3",
                    "midi": 58,
                    "time": 169.7034944999985,
                    "velocity": 0.28346456692913385,
                    "duration": 0.16364849999999365
                },
                {
                    "name": "D3",
                    "midi": 50,
                    "time": 169.8671429999985,
                    "velocity": 0.3779527559055118,
                    "duration": 0.16364849999999365
                },
                {
                    "name": "A#3",
                    "midi": 58,
                    "time": 170.0307914999985,
                    "velocity": 0.31496062992125984,
                    "duration": 0.16364849999999365
                },
                {
                    "name": "F3",
                    "midi": 53,
                    "time": 170.19443999999848,
                    "velocity": 0.41732283464566927,
                    "duration": 0.16364849999999365
                },
                {
                    "name": "A#3",
                    "midi": 58,
                    "time": 170.35808849999847,
                    "velocity": 0.3543307086614173,
                    "duration": 0.16364849999999365
                },
                {
                    "name": "D3",
                    "midi": 50,
                    "time": 170.52173699999847,
                    "velocity": 0.47244094488188976,
                    "duration": 0.16364849999999365
                },
                {
                    "name": "A#3",
                    "midi": 58,
                    "time": 170.68538549999846,
                    "velocity": 0.3937007874015748,
                    "duration": 0.16364849999999365
                },
                {
                    "name": "D#3",
                    "midi": 51,
                    "time": 171.01268249999845,
                    "velocity": 0.33858267716535434,
                    "duration": 0.16364849999999365
                },
                {
                    "name": "D3",
                    "midi": 50,
                    "time": 171.17633099999844,
                    "velocity": 0.48031496062992124,
                    "duration": 0.16364849999999365
                },
                {
                    "name": "D#3",
                    "midi": 51,
                    "time": 171.33997949999844,
                    "velocity": 0.3779527559055118,
                    "duration": 0.16364849999999365
                },
                {
                    "name": "D3",
                    "midi": 50,
                    "time": 171.50362799999843,
                    "velocity": 0.47244094488188976,
                    "duration": 0.16364849999999365
                },
                {
                    "name": "D#3",
                    "midi": 51,
                    "time": 171.66727649999842,
                    "velocity": 0.3937007874015748,
                    "duration": 0.16364849999999365
                },
                {
                    "name": "G2",
                    "midi": 43,
                    "time": 171.83092499999842,
                    "velocity": 0.5275590551181102,
                    "duration": 0.16364849999999365
                },
                {
                    "name": "D#3",
                    "midi": 51,
                    "time": 171.9945734999984,
                    "velocity": 0.3543307086614173,
                    "duration": 0.16364849999999365
                },
                {
                    "name": "G#2",
                    "midi": 44,
                    "time": 172.1582219999984,
                    "velocity": 0.4645669291338583,
                    "duration": 0.16364849999999365
                },
                {
                    "name": "D#3",
                    "midi": 51,
                    "time": 172.3218704999984,
                    "velocity": 0.4015748031496063,
                    "duration": 0.16364849999999365
                },
                {
                    "name": "A#2",
                    "midi": 46,
                    "time": 172.4855189999984,
                    "velocity": 0.47244094488188976,
                    "duration": 0.16364849999999365
                },
                {
                    "name": "D#3",
                    "midi": 51,
                    "time": 172.64916749999838,
                    "velocity": 0.3464566929133858,
                    "duration": 0.16364849999999365
                },
                {
                    "name": "G#2",
                    "midi": 44,
                    "time": 172.81281599999838,
                    "velocity": 0.5118110236220472,
                    "duration": 0.16364849999999365
                },
                {
                    "name": "D#3",
                    "midi": 51,
                    "time": 172.97646449999837,
                    "velocity": 0.3858267716535433,
                    "duration": 0.16364849999999365
                },
                {
                    "name": "A#2",
                    "midi": 46,
                    "time": 173.14011299999837,
                    "velocity": 0.47244094488188976,
                    "duration": 0.16364849999999365
                },
                {
                    "name": "D#3",
                    "midi": 51,
                    "time": 173.30376149999836,
                    "velocity": 0.3700787401574803,
                    "duration": 0.16364849999999365
                },
                {
                    "name": "C3",
                    "midi": 48,
                    "time": 173.46740999999835,
                    "velocity": 0.4645669291338583,
                    "duration": 0.16364849999999365
                },
                {
                    "name": "D#3",
                    "midi": 51,
                    "time": 173.63105849999835,
                    "velocity": 0.3779527559055118,
                    "duration": 0.16364849999999365
                },
                {
                    "name": "A2",
                    "midi": 45,
                    "time": 173.79470699999834,
                    "velocity": 0.5275590551181102,
                    "duration": 0.16364849999999365
                },
                {
                    "name": "D#3",
                    "midi": 51,
                    "time": 173.95835549999833,
                    "velocity": 0.3858267716535433,
                    "duration": 0.16364849999999365
                },
                {
                    "name": "A#2",
                    "midi": 46,
                    "time": 174.12200399999833,
                    "velocity": 0.4645669291338583,
                    "duration": 0.16364849999999365
                },
                {
                    "name": "D#3",
                    "midi": 51,
                    "time": 174.28565249999832,
                    "velocity": 0.3700787401574803,
                    "duration": 0.16364849999999365
                },
                {
                    "name": "C3",
                    "midi": 48,
                    "time": 174.44930099999831,
                    "velocity": 0.44881889763779526,
                    "duration": 0.16364849999999365
                },
                {
                    "name": "D#3",
                    "midi": 51,
                    "time": 174.6129494999983,
                    "velocity": 0.3464566929133858,
                    "duration": 0.16364849999999365
                },
                {
                    "name": "A#2",
                    "midi": 46,
                    "time": 174.7765979999983,
                    "velocity": 0.5039370078740157,
                    "duration": 0.16364849999999365
                },
                {
                    "name": "G3",
                    "midi": 55,
                    "time": 174.9402464999983,
                    "velocity": 0.36220472440944884,
                    "duration": 0.16364849999999365
                },
                {
                    "name": "D#3",
                    "midi": 51,
                    "time": 175.1038949999983,
                    "velocity": 0.44881889763779526,
                    "duration": 0.16364849999999365
                },
                {
                    "name": "G3",
                    "midi": 55,
                    "time": 175.26754349999828,
                    "velocity": 0.3543307086614173,
                    "duration": 0.16364849999999365
                },
                {
                    "name": "A#2",
                    "midi": 46,
                    "time": 175.43119199999828,
                    "velocity": 0.4409448818897638,
                    "duration": 0.16364849999999365
                },
                {
                    "name": "G3",
                    "midi": 55,
                    "time": 175.59484049999827,
                    "velocity": 0.4409448818897638,
                    "duration": 0.16364849999999365
                },
                {
                    "name": "A#2",
                    "midi": 46,
                    "time": 175.75848899999826,
                    "velocity": 0.5039370078740157,
                    "duration": 0.16364849999999365
                },
                {
                    "name": "F3",
                    "midi": 53,
                    "time": 175.92213749999826,
                    "velocity": 0.36220472440944884,
                    "duration": 0.16364849999999365
                },
                {
                    "name": "D3",
                    "midi": 50,
                    "time": 176.08578599999825,
                    "velocity": 0.4409448818897638,
                    "duration": 0.16364849999999365
                },
                {
                    "name": "F3",
                    "midi": 53,
                    "time": 176.24943449999824,
                    "velocity": 0.3543307086614173,
                    "duration": 0.16364849999999365
                },
                {
                    "name": "A#2",
                    "midi": 46,
                    "time": 176.41308299999824,
                    "velocity": 0.4566929133858268,
                    "duration": 0.16364849999999365
                },
                {
                    "name": "F3",
                    "midi": 53,
                    "time": 176.57673149999823,
                    "velocity": 0.41732283464566927,
                    "duration": 0.16364849999999365
                },
                {
                    "name": "D#2",
                    "midi": 39,
                    "time": 176.74037999999823,
                    "velocity": 0.5039370078740157,
                    "duration": 0.3272969999999873
                },
                {
                    "name": "D#3",
                    "midi": 51,
                    "time": 176.74037999999823,
                    "velocity": 0.5039370078740157,
                    "duration": 0.3272969999999873
                },
                {
                    "name": "G2",
                    "midi": 43,
                    "time": 178.7041619999982,
                    "velocity": 0.5275590551181102,
                    "duration": 0.16364849999999365
                },
                {
                    "name": "D#3",
                    "midi": 51,
                    "time": 178.8678104999982,
                    "velocity": 0.3543307086614173,
                    "duration": 0.16364849999999365
                },
                {
                    "name": "G#2",
                    "midi": 44,
                    "time": 179.0314589999982,
                    "velocity": 0.3937007874015748,
                    "duration": 0.16364849999999365
                },
                {
                    "name": "D#3",
                    "midi": 51,
                    "time": 179.1951074999982,
                    "velocity": 0.3700787401574803,
                    "duration": 0.16364849999999365
                },
                {
                    "name": "A#2",
                    "midi": 46,
                    "time": 179.35875599999818,
                    "velocity": 0.4251968503937008,
                    "duration": 0.16364849999999365
                },
                {
                    "name": "D#3",
                    "midi": 51,
                    "time": 179.52240449999817,
                    "velocity": 0.3464566929133858,
                    "duration": 0.16364849999999365
                },
                {
                    "name": "G2",
                    "midi": 43,
                    "time": 179.68605299999817,
                    "velocity": 0.5275590551181102,
                    "duration": 0.16364849999999365
                },
                {
                    "name": "D#3",
                    "midi": 51,
                    "time": 179.84970149999816,
                    "velocity": 0.3543307086614173,
                    "duration": 0.16364849999999365
                },
                {
                    "name": "G#2",
                    "midi": 44,
                    "time": 180.01334999999816,
                    "velocity": 0.3937007874015748,
                    "duration": 0.16364849999999365
                },
                {
                    "name": "D#3",
                    "midi": 51,
                    "time": 180.17699849999815,
                    "velocity": 0.3700787401574803,
                    "duration": 0.16364849999999365
                },
                {
                    "name": "A#2",
                    "midi": 46,
                    "time": 180.34064699999814,
                    "velocity": 0.4251968503937008,
                    "duration": 0.16364849999999365
                },
                {
                    "name": "D#3",
                    "midi": 51,
                    "time": 180.50429549999814,
                    "velocity": 0.3464566929133858,
                    "duration": 0.16364849999999365
                },
                {
                    "name": "G#2",
                    "midi": 44,
                    "time": 180.66794399999813,
                    "velocity": 0.5118110236220472,
                    "duration": 0.16364849999999365
                },
                {
                    "name": "D#3",
                    "midi": 51,
                    "time": 180.83159249999812,
                    "velocity": 0.3543307086614173,
                    "duration": 0.16364849999999365
                },
                {
                    "name": "A#2",
                    "midi": 46,
                    "time": 180.99524099999812,
                    "velocity": 0.4645669291338583,
                    "duration": 0.16364849999999365
                },
                {
                    "name": "D#3",
                    "midi": 51,
                    "time": 181.1588894999981,
                    "velocity": 0.33070866141732286,
                    "duration": 0.16364849999999365
                },
                {
                    "name": "C3",
                    "midi": 48,
                    "time": 181.3225379999981,
                    "velocity": 0.4566929133858268,
                    "duration": 0.16364849999999365
                },
                {
                    "name": "D#3",
                    "midi": 51,
                    "time": 181.4861864999981,
                    "velocity": 0.3543307086614173,
                    "duration": 0.16364849999999365
                },
                {
                    "name": "A2",
                    "midi": 45,
                    "time": 181.6498349999981,
                    "velocity": 0.5275590551181102,
                    "duration": 0.16364849999999365
                },
                {
                    "name": "D#3",
                    "midi": 51,
                    "time": 181.81348349999809,
                    "velocity": 0.3543307086614173,
                    "duration": 0.16364849999999365
                },
                {
                    "name": "A#2",
                    "midi": 46,
                    "time": 181.97713199999808,
                    "velocity": 0.47244094488188976,
                    "duration": 0.16364849999999365
                },
                {
                    "name": "D#3",
                    "midi": 51,
                    "time": 182.14078049999807,
                    "velocity": 0.3700787401574803,
                    "duration": 0.16364849999999365
                },
                {
                    "name": "C3",
                    "midi": 48,
                    "time": 182.30442899999807,
                    "velocity": 0.4566929133858268,
                    "duration": 0.16364849999999365
                },
                {
                    "name": "D#3",
                    "midi": 51,
                    "time": 182.46807749999806,
                    "velocity": 0.3464566929133858,
                    "duration": 0.16364849999999365
                },
                {
                    "name": "A#2",
                    "midi": 46,
                    "time": 182.63172599999805,
                    "velocity": 0.5275590551181102,
                    "duration": 0.16364849999999365
                },
                {
                    "name": "D#3",
                    "midi": 51,
                    "time": 182.79537449999805,
                    "velocity": 0.41732283464566927,
                    "duration": 0.16364849999999365
                },
                {
                    "name": "D3",
                    "midi": 50,
                    "time": 182.95902299999804,
                    "velocity": 0.48031496062992124,
                    "duration": 0.16364849999999365
                },
                {
                    "name": "D#3",
                    "midi": 51,
                    "time": 183.12267149999803,
                    "velocity": 0.3779527559055118,
                    "duration": 0.16364849999999365
                },
                {
                    "name": "B2",
                    "midi": 47,
                    "time": 183.28631999999803,
                    "velocity": 0.48031496062992124,
                    "duration": 0.16364849999999365
                },
                {
                    "name": "D#3",
                    "midi": 51,
                    "time": 183.44996849999802,
                    "velocity": 0.3858267716535433,
                    "duration": 0.16364849999999365
                },
                {
                    "name": "C3",
                    "midi": 48,
                    "time": 183.61361699999802,
                    "velocity": 0.5590551181102362,
                    "duration": 0.16364849999999365
                },
                {
                    "name": "D#3",
                    "midi": 51,
                    "time": 183.777265499998,
                    "velocity": 0.4094488188976378,
                    "duration": 0.16364849999999365
                },
                {
                    "name": "D3",
                    "midi": 50,
                    "time": 183.940913999998,
                    "velocity": 0.49606299212598426,
                    "duration": 0.16364849999999365
                },
                {
                    "name": "D#3",
                    "midi": 51,
                    "time": 184.104562499998,
                    "velocity": 0.4330708661417323,
                    "duration": 0.16364849999999365
                },
                {
                    "name": "A2",
                    "midi": 45,
                    "time": 184.268210999998,
                    "velocity": 0.5196850393700787,
                    "duration": 0.16364849999999365
                },
                {
                    "name": "D#3",
                    "midi": 51,
                    "time": 184.43185949999798,
                    "velocity": 0.3858267716535433,
                    "duration": 0.16364849999999365
                },
                {
                    "name": "A#2",
                    "midi": 46,
                    "time": 184.59550799999798,
                    "velocity": 0.6062992125984252,
                    "duration": 0.16364849999999365
                },
                {
                    "name": "D#3",
                    "midi": 51,
                    "time": 184.75915649999797,
                    "velocity": 0.4409448818897638,
                    "duration": 0.16364849999999365
                },
                {
                    "name": "C#3",
                    "midi": 49,
                    "time": 184.92280499999796,
                    "velocity": 0.5196850393700787,
                    "duration": 0.16364849999999365
                },
                {
                    "name": "D#3",
                    "midi": 51,
                    "time": 185.08645349999796,
                    "velocity": 0.4251968503937008,
                    "duration": 0.16364849999999365
                },
                {
                    "name": "B2",
                    "midi": 47,
                    "time": 185.25010199999795,
                    "velocity": 0.5275590551181102,
                    "duration": 0.16364849999999365
                },
                {
                    "name": "D#3",
                    "midi": 51,
                    "time": 185.41375049999795,
                    "velocity": 0.4409448818897638,
                    "duration": 0.16364849999999365
                },
                {
                    "name": "C3",
                    "midi": 48,
                    "time": 185.57739899999794,
                    "velocity": 0.6062992125984252,
                    "duration": 0.16364849999999365
                },
                {
                    "name": "D#3",
                    "midi": 51,
                    "time": 185.74104749999793,
                    "velocity": 0.4566929133858268,
                    "duration": 0.16364849999999365
                },
                {
                    "name": "D3",
                    "midi": 50,
                    "time": 185.90469599999793,
                    "velocity": 0.49606299212598426,
                    "duration": 0.16364849999999365
                },
                {
                    "name": "D#3",
                    "midi": 51,
                    "time": 186.06834449999792,
                    "velocity": 0.4566929133858268,
                    "duration": 0.16364849999999365
                },
                {
                    "name": "A2",
                    "midi": 45,
                    "time": 186.2319929999979,
                    "velocity": 0.5590551181102362,
                    "duration": 0.16364849999999365
                },
                {
                    "name": "D#3",
                    "midi": 51,
                    "time": 186.3956414999979,
                    "velocity": 0.5118110236220472,
                    "duration": 0.16364849999999365
                },
                {
                    "name": "A#2",
                    "midi": 46,
                    "time": 186.5592899999979,
                    "velocity": 0.6456692913385826,
                    "duration": 0.3272969999999873
                },
                {
                    "name": "A#2",
                    "midi": 46,
                    "time": 186.8865869999979,
                    "velocity": 0.6062992125984252,
                    "duration": 0.08182425000001103
                },
                {
                    "name": "D#3",
                    "midi": 51,
                    "time": 186.8865869999979,
                    "velocity": 0.6062992125984252,
                    "duration": 0.08182425000001103
                },
                {
                    "name": "G3",
                    "midi": 55,
                    "time": 186.8865869999979,
                    "velocity": 0.6850393700787402,
                    "duration": 0.08182425000001103
                },
                {
                    "name": "D#3",
                    "midi": 51,
                    "time": 187.8684779999979,
                    "velocity": 0.6062992125984252,
                    "duration": 0.08182425000001103
                },
                {
                    "name": "C3",
                    "midi": 48,
                    "time": 187.8684779999979,
                    "velocity": 0.6062992125984252,
                    "duration": 0.08182425000001103
                },
                {
                    "name": "F#3",
                    "midi": 54,
                    "time": 187.8684779999979,
                    "velocity": 0.6850393700787402,
                    "duration": 0.08182425000001103
                },
                {
                    "name": "G3",
                    "midi": 55,
                    "time": 188.85036899999793,
                    "velocity": 0.6850393700787402,
                    "duration": 0.08182425000001103
                },
                {
                    "name": "A#2",
                    "midi": 46,
                    "time": 188.85036899999793,
                    "velocity": 0.6062992125984252,
                    "duration": 0.08182425000001103
                },
                {
                    "name": "D#3",
                    "midi": 51,
                    "time": 188.85036899999793,
                    "velocity": 0.6062992125984252,
                    "duration": 0.08182425000001103
                },
                {
                    "name": "A3",
                    "midi": 57,
                    "time": 189.83225999999794,
                    "velocity": 0.6850393700787402,
                    "duration": 0.08182425000001103
                },
                {
                    "name": "D#3",
                    "midi": 51,
                    "time": 189.83225999999794,
                    "velocity": 0.6062992125984252,
                    "duration": 0.08182425000001103
                },
                {
                    "name": "F#3",
                    "midi": 54,
                    "time": 189.83225999999794,
                    "velocity": 0.6062992125984252,
                    "duration": 0.08182425000001103
                },
                {
                    "name": "A2",
                    "midi": 45,
                    "time": 189.83225999999794,
                    "velocity": 0.6062992125984252,
                    "duration": 0.08182425000001103
                },
                {
                    "name": "A#2",
                    "midi": 46,
                    "time": 190.81415099999796,
                    "velocity": 0.6062992125984252,
                    "duration": 0.08182425000001103
                },
                {
                    "name": "A#3",
                    "midi": 58,
                    "time": 190.81415099999796,
                    "velocity": 0.6850393700787402,
                    "duration": 0.08182425000001103
                },
                {
                    "name": "G3",
                    "midi": 55,
                    "time": 190.81415099999796,
                    "velocity": 0.6062992125984252,
                    "duration": 0.08182425000001103
                },
                {
                    "name": "D#3",
                    "midi": 51,
                    "time": 190.81415099999796,
                    "velocity": 0.6062992125984252,
                    "duration": 0.08182425000001103
                },
                {
                    "name": "A#3",
                    "midi": 58,
                    "time": 192.45063599999798,
                    "velocity": 0.6377952755905512,
                    "duration": 0.16364849999999365
                },
                {
                    "name": "G3",
                    "midi": 55,
                    "time": 192.61428449999798,
                    "velocity": 0.6062992125984252,
                    "duration": 0.12273637499998813
                },
                {
                    "name": "G3",
                    "midi": 55,
                    "time": 192.77793299999797,
                    "velocity": 0.6456692913385826,
                    "duration": 0.16364849999999365
                },
                {
                    "name": "D#3",
                    "midi": 51,
                    "time": 192.94158149999797,
                    "velocity": 0.6062992125984252,
                    "duration": 0.12273637499998813
                },
                {
                    "name": "D#3",
                    "midi": 51,
                    "time": 193.10522999999796,
                    "velocity": 0.6535433070866141,
                    "duration": 0.16364849999999365
                },
                {
                    "name": "A#2",
                    "midi": 46,
                    "time": 193.26887849999795,
                    "velocity": 0.6062992125984252,
                    "duration": 0.12273637499998813
                },
                {
                    "name": "A#2",
                    "midi": 46,
                    "time": 193.43252699999795,
                    "velocity": 0.7244094488188977,
                    "duration": 0.9818909999999903
                },
                {
                    "name": "A#1",
                    "midi": 34,
                    "time": 193.43252699999795,
                    "velocity": 0.6141732283464567,
                    "duration": 0.9818909999999903
                },
                {
                    "name": "G#3",
                    "midi": 56,
                    "time": 194.08712099999795,
                    "velocity": 0.5511811023622047,
                    "duration": 0.3272969999999873
                },
                {
                    "name": "F3",
                    "midi": 53,
                    "time": 194.08712099999795,
                    "velocity": 0.4645669291338583,
                    "duration": 0.3272969999999873
                },
                {
                    "name": "G3",
                    "midi": 55,
                    "time": 194.41441799999794,
                    "velocity": 0.6220472440944882,
                    "duration": 0.3272969999999873
                },
                {
                    "name": "D#2",
                    "midi": 39,
                    "time": 194.41441799999794,
                    "velocity": 0.5275590551181102,
                    "duration": 0.3272969999999873
                },
                {
                    "name": "A#2",
                    "midi": 46,
                    "time": 194.74171499999792,
                    "velocity": 0.4015748031496063,
                    "duration": 1.6364849999999365
                },
                {
                    "name": "A2",
                    "midi": 45,
                    "time": 195.0690119999979,
                    "velocity": 0.4015748031496063,
                    "duration": 0.3272969999999873
                },
                {
                    "name": "G#2",
                    "midi": 44,
                    "time": 195.3963089999979,
                    "velocity": 0.4015748031496063,
                    "duration": 0.3272969999999873
                },
                {
                    "name": "G2",
                    "midi": 43,
                    "time": 195.7236059999979,
                    "velocity": 0.3858267716535433,
                    "duration": 0.3272969999999873
                },
                {
                    "name": "F2",
                    "midi": 41,
                    "time": 196.05090299999787,
                    "velocity": 0.3858267716535433,
                    "duration": 0.3272969999999873
                },
                {
                    "name": "D#2",
                    "midi": 39,
                    "time": 196.37819999999786,
                    "velocity": 0.4015748031496063,
                    "duration": 0.3272969999999873
                },
                {
                    "name": "G2",
                    "midi": 43,
                    "time": 196.70549699999785,
                    "velocity": 0.3700787401574803,
                    "duration": 0.3272969999999873
                },
                {
                    "name": "A#2",
                    "midi": 46,
                    "time": 197.03279399999784,
                    "velocity": 0.3700787401574803,
                    "duration": 0.3272969999999873
                },
                {
                    "name": "A#1",
                    "midi": 34,
                    "time": 197.36009099999782,
                    "velocity": 0.4015748031496063,
                    "duration": 0.3272969999999873
                },
                {
                    "name": "F2",
                    "midi": 41,
                    "time": 197.6873879999978,
                    "velocity": 0.3779527559055118,
                    "duration": 0.3272969999999873
                },
                {
                    "name": "A#2",
                    "midi": 46,
                    "time": 198.0146849999978,
                    "velocity": 0.3779527559055118,
                    "duration": 0.3272969999999873
                },
                {
                    "name": "D#2",
                    "midi": 39,
                    "time": 198.34198199999778,
                    "velocity": 0.5275590551181102,
                    "duration": 0.3272969999999873
                },
                {
                    "name": "A#2",
                    "midi": 46,
                    "time": 198.66927899999777,
                    "velocity": 0.4015748031496063,
                    "duration": 1.6364849999999365
                },
                {
                    "name": "A2",
                    "midi": 45,
                    "time": 198.99657599999776,
                    "velocity": 0.4015748031496063,
                    "duration": 0.3272969999999873
                },
                {
                    "name": "G#2",
                    "midi": 44,
                    "time": 199.32387299999775,
                    "velocity": 0.4015748031496063,
                    "duration": 0.3272969999999873
                },
                {
                    "name": "G2",
                    "midi": 43,
                    "time": 199.65116999999773,
                    "velocity": 0.3858267716535433,
                    "duration": 0.3272969999999873
                },
                {
                    "name": "F2",
                    "midi": 41,
                    "time": 199.97846699999772,
                    "velocity": 0.3858267716535433,
                    "duration": 0.3272969999999873
                },
                {
                    "name": "D#2",
                    "midi": 39,
                    "time": 200.3057639999977,
                    "velocity": 0.4015748031496063,
                    "duration": 0.3272969999999873
                },
                {
                    "name": "G2",
                    "midi": 43,
                    "time": 200.6330609999977,
                    "velocity": 0.3700787401574803,
                    "duration": 0.3272969999999873
                },
                {
                    "name": "A#2",
                    "midi": 46,
                    "time": 200.96035799999768,
                    "velocity": 0.3700787401574803,
                    "duration": 0.3272969999999873
                },
                {
                    "name": "A#1",
                    "midi": 34,
                    "time": 201.28765499999767,
                    "velocity": 0.4015748031496063,
                    "duration": 0.3272969999999873
                },
                {
                    "name": "F2",
                    "midi": 41,
                    "time": 201.61495199999766,
                    "velocity": 0.3779527559055118,
                    "duration": 0.3272969999999873
                },
                {
                    "name": "A#2",
                    "midi": 46,
                    "time": 201.94224899999764,
                    "velocity": 0.3779527559055118,
                    "duration": 0.3272969999999873
                },
                {
                    "name": "D#2",
                    "midi": 39,
                    "time": 202.26954599999763,
                    "velocity": 0.4015748031496063,
                    "duration": 0.3272969999999873
                },
                {
                    "name": "G2",
                    "midi": 43,
                    "time": 202.59684299999762,
                    "velocity": 0.3700787401574803,
                    "duration": 0.3272969999999873
                },
                {
                    "name": "A#2",
                    "midi": 46,
                    "time": 202.9241399999976,
                    "velocity": 0.3700787401574803,
                    "duration": 0.3272969999999873
                },
                {
                    "name": "A#1",
                    "midi": 34,
                    "time": 203.2514369999976,
                    "velocity": 0.4015748031496063,
                    "duration": 0.3272969999999873
                },
                {
                    "name": "F2",
                    "midi": 41,
                    "time": 203.57873399999758,
                    "velocity": 0.3779527559055118,
                    "duration": 0.3272969999999873
                },
                {
                    "name": "A#2",
                    "midi": 46,
                    "time": 203.90603099999757,
                    "velocity": 0.3779527559055118,
                    "duration": 0.3272969999999873
                },
                {
                    "name": "D#2",
                    "midi": 39,
                    "time": 204.23332799999756,
                    "velocity": 0.4015748031496063,
                    "duration": 0.3272969999999873
                },
                {
                    "name": "G2",
                    "midi": 43,
                    "time": 204.56062499999754,
                    "velocity": 0.3700787401574803,
                    "duration": 0.3272969999999873
                },
                {
                    "name": "A#2",
                    "midi": 46,
                    "time": 204.88792199999753,
                    "velocity": 0.3700787401574803,
                    "duration": 0.3272969999999873
                },
                {
                    "name": "D#3",
                    "midi": 51,
                    "time": 205.21521899999752,
                    "velocity": 0.31496062992125984,
                    "duration": 0.3272969999999873
                },
                {
                    "name": "G3",
                    "midi": 55,
                    "time": 205.21521899999752,
                    "velocity": 0.3464566929133858,
                    "duration": 0.3272969999999873
                },
                {
                    "name": "C4",
                    "midi": 60,
                    "time": 206.1971099999975,
                    "velocity": 0.5511811023622047,
                    "duration": 0.49094550000000936
                },
                {
                    "name": "G3",
                    "midi": 55,
                    "time": 206.1971099999975,
                    "velocity": 0.4645669291338583,
                    "duration": 0.49094550000000936
                },
                {
                    "name": "E3",
                    "midi": 52,
                    "time": 206.1971099999975,
                    "velocity": 0.4645669291338583,
                    "duration": 0.49094550000000936
                },
                {
                    "name": "C3",
                    "midi": 48,
                    "time": 206.1971099999975,
                    "velocity": 0.4645669291338583,
                    "duration": 0.49094550000000936
                },
                {
                    "name": "E4",
                    "midi": 64,
                    "time": 208.81548599999752,
                    "velocity": 0.2677165354330709,
                    "duration": 0.16364849999999365
                },
                {
                    "name": "G4",
                    "midi": 67,
                    "time": 208.81548599999752,
                    "velocity": 0.3228346456692913,
                    "duration": 0.16364849999999365
                },
                {
                    "name": "G4",
                    "midi": 67,
                    "time": 209.1427829999975,
                    "velocity": 0.3228346456692913,
                    "duration": 0.654594000000003
                },
                {
                    "name": "E4",
                    "midi": 64,
                    "time": 209.1427829999975,
                    "velocity": 0.2677165354330709,
                    "duration": 0.654594000000003
                },
                {
                    "name": "F4",
                    "midi": 65,
                    "time": 209.7973769999975,
                    "velocity": 0.25196850393700787,
                    "duration": 0.3204783125000006
                },
                {
                    "name": "G#4",
                    "midi": 68,
                    "time": 209.7973769999975,
                    "velocity": 0.2992125984251969,
                    "duration": 0.3204783125000006
                },
                {
                    "name": "F4",
                    "midi": 65,
                    "time": 210.1246739999975,
                    "velocity": 0.2677165354330709,
                    "duration": 0.49094550000000936
                },
                {
                    "name": "G#4",
                    "midi": 68,
                    "time": 210.1246739999975,
                    "velocity": 0.3228346456692913,
                    "duration": 0.49094550000000936
                },
                {
                    "name": "F4",
                    "midi": 65,
                    "time": 212.7430499999975,
                    "velocity": 0.2677165354330709,
                    "duration": 0.16364849999999365
                },
                {
                    "name": "G#4",
                    "midi": 68,
                    "time": 212.7430499999975,
                    "velocity": 0.3228346456692913,
                    "duration": 0.16364849999999365
                },
                {
                    "name": "G#4",
                    "midi": 68,
                    "time": 213.0703469999975,
                    "velocity": 0.3228346456692913,
                    "duration": 0.654594000000003
                },
                {
                    "name": "F4",
                    "midi": 65,
                    "time": 213.0703469999975,
                    "velocity": 0.2677165354330709,
                    "duration": 0.654594000000003
                },
                {
                    "name": "G4",
                    "midi": 67,
                    "time": 213.7249409999975,
                    "velocity": 0.25196850393700787,
                    "duration": 0.3204783125000006
                },
                {
                    "name": "A#4",
                    "midi": 70,
                    "time": 213.7249409999975,
                    "velocity": 0.2992125984251969,
                    "duration": 0.3204783125000006
                },
                {
                    "name": "G4",
                    "midi": 67,
                    "time": 214.0522379999975,
                    "velocity": 0.2677165354330709,
                    "duration": 0.49094550000000936
                },
                {
                    "name": "A#4",
                    "midi": 70,
                    "time": 214.0522379999975,
                    "velocity": 0.3228346456692913,
                    "duration": 0.49094550000000936
                },
                {
                    "name": "F3",
                    "midi": 53,
                    "time": 217.9798019999975,
                    "velocity": 0.31496062992125984,
                    "duration": 0.16364849999999365
                },
                {
                    "name": "C4",
                    "midi": 60,
                    "time": 218.1434504999975,
                    "velocity": 0.25196850393700787,
                    "duration": 0.16364849999999365
                },
                {
                    "name": "G#3",
                    "midi": 56,
                    "time": 218.3070989999975,
                    "velocity": 0.2677165354330709,
                    "duration": 0.16364849999999365
                },
                {
                    "name": "C4",
                    "midi": 60,
                    "time": 218.4707474999975,
                    "velocity": 0.25196850393700787,
                    "duration": 0.16364849999999365
                },
                {
                    "name": "F3",
                    "midi": 53,
                    "time": 218.63439599999748,
                    "velocity": 0.2677165354330709,
                    "duration": 0.16364849999999365
                },
                {
                    "name": "C4",
                    "midi": 60,
                    "time": 218.79804449999747,
                    "velocity": 0.25196850393700787,
                    "duration": 0.16364849999999365
                },
                {
                    "name": "F3",
                    "midi": 53,
                    "time": 218.96169299999747,
                    "velocity": 0.31496062992125984,
                    "duration": 0.16364849999999365
                },
                {
                    "name": "C4",
                    "midi": 60,
                    "time": 219.12534149999746,
                    "velocity": 0.25984251968503935,
                    "duration": 0.16364849999999365
                },
                {
                    "name": "G#3",
                    "midi": 56,
                    "time": 219.28898999999745,
                    "velocity": 0.2677165354330709,
                    "duration": 0.16364849999999365
                },
                {
                    "name": "C4",
                    "midi": 60,
                    "time": 219.45263849999745,
                    "velocity": 0.25196850393700787,
                    "duration": 0.16364849999999365
                },
                {
                    "name": "F3",
                    "midi": 53,
                    "time": 219.61628699999744,
                    "velocity": 0.2755905511811024,
                    "duration": 0.16364849999999365
                },
                {
                    "name": "C4",
                    "midi": 60,
                    "time": 219.77993549999744,
                    "velocity": 0.25196850393700787,
                    "duration": 0.16364849999999365
                },
                {
                    "name": "G3",
                    "midi": 55,
                    "time": 219.94358399999743,
                    "velocity": 0.31496062992125984,
                    "duration": 0.16364849999999365
                },
                {
                    "name": "C4",
                    "midi": 60,
                    "time": 220.10723249999742,
                    "velocity": 0.25196850393700787,
                    "duration": 0.16364849999999365
                },
                {
                    "name": "A#3",
                    "midi": 58,
                    "time": 220.27088099999742,
                    "velocity": 0.2677165354330709,
                    "duration": 0.16364849999999365
                },
                {
                    "name": "C4",
                    "midi": 60,
                    "time": 220.4345294999974,
                    "velocity": 0.25196850393700787,
                    "duration": 0.16364849999999365
                },
                {
                    "name": "G3",
                    "midi": 55,
                    "time": 220.5981779999974,
                    "velocity": 0.29133858267716534,
                    "duration": 0.16364849999999365
                },
                {
                    "name": "C4",
                    "midi": 60,
                    "time": 220.7618264999974,
                    "velocity": 0.25196850393700787,
                    "duration": 0.16364849999999365
                },
                {
                    "name": "E3",
                    "midi": 52,
                    "time": 220.9254749999974,
                    "velocity": 0.25196850393700787,
                    "duration": 0.16364849999999365
                },
                {
                    "name": "C4",
                    "midi": 60,
                    "time": 221.08912349999738,
                    "velocity": 0.25196850393700787,
                    "duration": 0.16364849999999365
                },
                {
                    "name": "G3",
                    "midi": 55,
                    "time": 221.25277199999738,
                    "velocity": 0.2755905511811024,
                    "duration": 0.16364849999999365
                },
                {
                    "name": "C4",
                    "midi": 60,
                    "time": 221.41642049999737,
                    "velocity": 0.25196850393700787,
                    "duration": 0.16364849999999365
                },
                {
                    "name": "E3",
                    "midi": 52,
                    "time": 221.58006899999737,
                    "velocity": 0.29133858267716534,
                    "duration": 0.16364849999999365
                },
                {
                    "name": "C4",
                    "midi": 60,
                    "time": 221.74371749999736,
                    "velocity": 0.25196850393700787,
                    "duration": 0.16364849999999365
                },
                {
                    "name": "C3",
                    "midi": 48,
                    "time": 221.90736599999735,
                    "velocity": 0.31496062992125984,
                    "duration": 0.16364849999999365
                },
                {
                    "name": "C4",
                    "midi": 60,
                    "time": 222.07101449999735,
                    "velocity": 0.2440944881889764,
                    "duration": 0.16364849999999365
                },
                {
                    "name": "E3",
                    "midi": 52,
                    "time": 222.23466299999734,
                    "velocity": 0.28346456692913385,
                    "duration": 0.16364849999999365
                },
                {
                    "name": "C4",
                    "midi": 60,
                    "time": 222.39831149999733,
                    "velocity": 0.25196850393700787,
                    "duration": 0.16364849999999365
                },
                {
                    "name": "G3",
                    "midi": 55,
                    "time": 222.56195999999733,
                    "velocity": 0.2992125984251969,
                    "duration": 0.16364849999999365
                },
                {
                    "name": "C4",
                    "midi": 60,
                    "time": 222.72560849999732,
                    "velocity": 0.25984251968503935,
                    "duration": 0.16364849999999365
                },
                {
                    "name": "E3",
                    "midi": 52,
                    "time": 222.88925699999731,
                    "velocity": 0.3543307086614173,
                    "duration": 0.16364849999999365
                },
                {
                    "name": "C4",
                    "midi": 60,
                    "time": 223.0529054999973,
                    "velocity": 0.2755905511811024,
                    "duration": 0.16364849999999365
                },
                {
                    "name": "G3",
                    "midi": 55,
                    "time": 223.2165539999973,
                    "velocity": 0.2992125984251969,
                    "duration": 0.16364849999999365
                },
                {
                    "name": "C4",
                    "midi": 60,
                    "time": 223.3802024999973,
                    "velocity": 0.2440944881889764,
                    "duration": 0.16364849999999365
                },
                {
                    "name": "A#3",
                    "midi": 58,
                    "time": 223.5438509999973,
                    "velocity": 0.29133858267716534,
                    "duration": 0.16364849999999365
                },
                {
                    "name": "C4",
                    "midi": 60,
                    "time": 223.70749949999728,
                    "velocity": 0.2440944881889764,
                    "duration": 0.16364849999999365
                },
                {
                    "name": "F3",
                    "midi": 53,
                    "time": 223.87114799999728,
                    "velocity": 0.3543307086614173,
                    "duration": 0.16364849999999365
                },
                {
                    "name": "C4",
                    "midi": 60,
                    "time": 224.03479649999727,
                    "velocity": 0.2440944881889764,
                    "duration": 0.16364849999999365
                },
                {
                    "name": "G#3",
                    "midi": 56,
                    "time": 224.19844499999726,
                    "velocity": 0.28346456692913385,
                    "duration": 0.16364849999999365
                },
                {
                    "name": "C4",
                    "midi": 60,
                    "time": 224.36209349999726,
                    "velocity": 0.2440944881889764,
                    "duration": 0.16364849999999365
                },
                {
                    "name": "F3",
                    "midi": 53,
                    "time": 224.52574199999725,
                    "velocity": 0.28346456692913385,
                    "duration": 0.16364849999999365
                },
                {
                    "name": "C4",
                    "midi": 60,
                    "time": 224.68939049999724,
                    "velocity": 0.2440944881889764,
                    "duration": 0.16364849999999365
                },
                {
                    "name": "F3",
                    "midi": 53,
                    "time": 224.85303899999724,
                    "velocity": 0.31496062992125984,
                    "duration": 0.16364849999999365
                },
                {
                    "name": "C4",
                    "midi": 60,
                    "time": 225.01668749999723,
                    "velocity": 0.23622047244094488,
                    "duration": 0.16364849999999365
                },
                {
                    "name": "E3",
                    "midi": 52,
                    "time": 225.18033599999723,
                    "velocity": 0.33070866141732286,
                    "duration": 0.16364849999999365
                },
                {
                    "name": "F3",
                    "midi": 53,
                    "time": 225.34398449999722,
                    "velocity": 0.31496062992125984,
                    "duration": 0.16364849999999365
                },
                {
                    "name": "D#3",
                    "midi": 51,
                    "time": 225.5076329999972,
                    "velocity": 0.3858267716535433,
                    "duration": 0.16364849999999365
                },
                {
                    "name": "F3",
                    "midi": 53,
                    "time": 225.6712814999972,
                    "velocity": 0.33858267716535434,
                    "duration": 0.16364849999999365
                },
                {
                    "name": "C#3",
                    "midi": 49,
                    "time": 225.8349299999972,
                    "velocity": 0.4094488188976378,
                    "duration": 0.16364849999999365
                },
                {
                    "name": "F3",
                    "midi": 53,
                    "time": 225.9985784999972,
                    "velocity": 0.2992125984251969,
                    "duration": 0.16364849999999365
                },
                {
                    "name": "C3",
                    "midi": 48,
                    "time": 226.1622269999972,
                    "velocity": 0.33858267716535434,
                    "duration": 0.16364849999999365
                },
                {
                    "name": "F3",
                    "midi": 53,
                    "time": 226.32587549999718,
                    "velocity": 0.25196850393700787,
                    "duration": 0.16364849999999365
                },
                {
                    "name": "C#3",
                    "midi": 49,
                    "time": 226.48952399999717,
                    "velocity": 0.2992125984251969,
                    "duration": 0.16364849999999365
                },
                {
                    "name": "F3",
                    "midi": 53,
                    "time": 226.65317249999717,
                    "velocity": 0.25196850393700787,
                    "duration": 0.16364849999999365
                },
                {
                    "name": "A#2",
                    "midi": 46,
                    "time": 226.81682099999716,
                    "velocity": 0.3543307086614173,
                    "duration": 0.16364849999999365
                },
                {
                    "name": "F3",
                    "midi": 53,
                    "time": 226.98046949999716,
                    "velocity": 0.25984251968503935,
                    "duration": 0.16364849999999365
                },
                {
                    "name": "C3",
                    "midi": 48,
                    "time": 227.14411799999715,
                    "velocity": 0.2677165354330709,
                    "duration": 0.16364849999999365
                },
                {
                    "name": "F3",
                    "midi": 53,
                    "time": 227.30776649999714,
                    "velocity": 0.25196850393700787,
                    "duration": 0.16364849999999365
                },
                {
                    "name": "C#3",
                    "midi": 49,
                    "time": 227.47141499999714,
                    "velocity": 0.2755905511811024,
                    "duration": 0.16364849999999365
                },
                {
                    "name": "F3",
                    "midi": 53,
                    "time": 227.63506349999713,
                    "velocity": 0.25196850393700787,
                    "duration": 0.16364849999999365
                },
                {
                    "name": "C3",
                    "midi": 48,
                    "time": 227.79871199999712,
                    "velocity": 0.36220472440944884,
                    "duration": 0.16364849999999365
                },
                {
                    "name": "F3",
                    "midi": 53,
                    "time": 227.96236049999712,
                    "velocity": 0.25196850393700787,
                    "duration": 0.16364849999999365
                },
                {
                    "name": "D#3",
                    "midi": 51,
                    "time": 228.1260089999971,
                    "velocity": 0.2677165354330709,
                    "duration": 0.16364849999999365
                },
                {
                    "name": "F3",
                    "midi": 53,
                    "time": 228.2896574999971,
                    "velocity": 0.25196850393700787,
                    "duration": 0.16364849999999365
                },
                {
                    "name": "C3",
                    "midi": 48,
                    "time": 228.4533059999971,
                    "velocity": 0.29133858267716534,
                    "duration": 0.16364849999999365
                },
                {
                    "name": "F3",
                    "midi": 53,
                    "time": 228.6169544999971,
                    "velocity": 0.25196850393700787,
                    "duration": 0.16364849999999365
                },
                {
                    "name": "A2",
                    "midi": 45,
                    "time": 228.7806029999971,
                    "velocity": 0.31496062992125984,
                    "duration": 0.16364849999999365
                },
                {
                    "name": "F3",
                    "midi": 53,
                    "time": 228.94425149999708,
                    "velocity": 0.25196850393700787,
                    "duration": 0.16364849999999365
                },
                {
                    "name": "C3",
                    "midi": 48,
                    "time": 229.10789999999707,
                    "velocity": 0.2755905511811024,
                    "duration": 0.16364849999999365
                },
                {
                    "name": "F3",
                    "midi": 53,
                    "time": 229.27154849999707,
                    "velocity": 0.25196850393700787,
                    "duration": 0.16364849999999365
                },
                {
                    "name": "A2",
                    "midi": 45,
                    "time": 229.43519699999706,
                    "velocity": 0.29133858267716534,
                    "duration": 0.16364849999999365
                },
                {
                    "name": "F3",
                    "midi": 53,
                    "time": 229.59884549999705,
                    "velocity": 0.25196850393700787,
                    "duration": 0.16364849999999365
                },
                {
                    "name": "F2",
                    "midi": 41,
                    "time": 229.76249399999705,
                    "velocity": 0.31496062992125984,
                    "duration": 0.16364849999999365
                },
                {
                    "name": "F3",
                    "midi": 53,
                    "time": 229.92614249999704,
                    "velocity": 0.2440944881889764,
                    "duration": 0.16364849999999365
                },
                {
                    "name": "A2",
                    "midi": 45,
                    "time": 230.08979099999704,
                    "velocity": 0.3543307086614173,
                    "duration": 0.16364849999999365
                },
                {
                    "name": "F3",
                    "midi": 53,
                    "time": 230.25343949999703,
                    "velocity": 0.29133858267716534,
                    "duration": 0.16364849999999365
                },
                {
                    "name": "C3",
                    "midi": 48,
                    "time": 230.41708799999702,
                    "velocity": 0.36220472440944884,
                    "duration": 0.16364849999999365
                },
                {
                    "name": "F3",
                    "midi": 53,
                    "time": 230.58073649999702,
                    "velocity": 0.30708661417322836,
                    "duration": 0.16364849999999365
                },
                {
                    "name": "A2",
                    "midi": 45,
                    "time": 230.744384999997,
                    "velocity": 0.4015748031496063,
                    "duration": 0.16364849999999365
                },
                {
                    "name": "F3",
                    "midi": 53,
                    "time": 230.908033499997,
                    "velocity": 0.3464566929133858,
                    "duration": 0.16364849999999365
                },
                {
                    "name": "C3",
                    "midi": 48,
                    "time": 231.071681999997,
                    "velocity": 0.2992125984251969,
                    "duration": 0.16364849999999365
                },
                {
                    "name": "F3",
                    "midi": 53,
                    "time": 231.235330499997,
                    "velocity": 0.2440944881889764,
                    "duration": 0.16364849999999365
                },
                {
                    "name": "D#3",
                    "midi": 51,
                    "time": 231.39897899999698,
                    "velocity": 0.29133858267716534,
                    "duration": 0.16364849999999365
                },
                {
                    "name": "F3",
                    "midi": 53,
                    "time": 231.56262749999698,
                    "velocity": 0.2440944881889764,
                    "duration": 0.16364849999999365
                },
                {
                    "name": "A#2",
                    "midi": 46,
                    "time": 231.72627599999697,
                    "velocity": 0.3543307086614173,
                    "duration": 0.16364849999999365
                },
                {
                    "name": "F3",
                    "midi": 53,
                    "time": 231.88992449999697,
                    "velocity": 0.2440944881889764,
                    "duration": 0.16364849999999365
                },
                {
                    "name": "C#3",
                    "midi": 49,
                    "time": 232.05357299999696,
                    "velocity": 0.28346456692913385,
                    "duration": 0.16364849999999365
                },
                {
                    "name": "F3",
                    "midi": 53,
                    "time": 232.21722149999695,
                    "velocity": 0.2440944881889764,
                    "duration": 0.16364849999999365
                },
                {
                    "name": "A#2",
                    "midi": 46,
                    "time": 232.38086999999695,
                    "velocity": 0.28346456692913385,
                    "duration": 0.16364849999999365
                },
                {
                    "name": "F3",
                    "midi": 53,
                    "time": 232.54451849999694,
                    "velocity": 0.2440944881889764,
                    "duration": 0.16364849999999365
                },
                {
                    "name": "A#2",
                    "midi": 46,
                    "time": 232.70816699999693,
                    "velocity": 0.31496062992125984,
                    "duration": 0.16364849999999365
                },
                {
                    "name": "F3",
                    "midi": 53,
                    "time": 232.87181549999693,
                    "velocity": 0.23622047244094488,
                    "duration": 0.16364849999999365
                },
                {
                    "name": "C#3",
                    "midi": 49,
                    "time": 233.03546399999692,
                    "velocity": 0.25984251968503935,
                    "duration": 0.16364849999999365
                },
                {
                    "name": "F3",
                    "midi": 53,
                    "time": 233.19911249999691,
                    "velocity": 0.23622047244094488,
                    "duration": 0.16364849999999365
                },
                {
                    "name": "A#2",
                    "midi": 46,
                    "time": 233.3627609999969,
                    "velocity": 0.25984251968503935,
                    "duration": 0.16364849999999365
                },
                {
                    "name": "F3",
                    "midi": 53,
                    "time": 233.5264094999969,
                    "velocity": 0.23622047244094488,
                    "duration": 0.16364849999999365
                },
                {
                    "name": "G#2",
                    "midi": 44,
                    "time": 233.6900579999969,
                    "velocity": 0.31496062992125984,
                    "duration": 0.16364849999999365
                },
                {
                    "name": "F#3",
                    "midi": 54,
                    "time": 233.8537064999969,
                    "velocity": 0.25196850393700787,
                    "duration": 0.16364849999999365
                },
                {
                    "name": "D#3",
                    "midi": 51,
                    "time": 234.01735499999688,
                    "velocity": 0.3779527559055118,
                    "duration": 0.16364849999999365
                },
                {
                    "name": "F#3",
                    "midi": 54,
                    "time": 234.18100349999688,
                    "velocity": 0.31496062992125984,
                    "duration": 0.16364849999999365
                },
                {
                    "name": "G#2",
                    "midi": 44,
                    "time": 234.34465199999687,
                    "velocity": 0.4015748031496063,
                    "duration": 0.16364849999999365
                },
                {
                    "name": "F#3",
                    "midi": 54,
                    "time": 234.50830049999686,
                    "velocity": 0.36220472440944884,
                    "duration": 0.16364849999999365
                },
                {
                    "name": "G#2",
                    "midi": 44,
                    "time": 234.67194899999686,
                    "velocity": 0.4094488188976378,
                    "duration": 0.16364849999999365
                },
                {
                    "name": "F#3",
                    "midi": 54,
                    "time": 234.83559749999685,
                    "velocity": 0.31496062992125984,
                    "duration": 0.16364849999999365
                },
                {
                    "name": "C3",
                    "midi": 48,
                    "time": 234.99924599999684,
                    "velocity": 0.31496062992125984,
                    "duration": 0.16364849999999365
                },
                {
                    "name": "F#3",
                    "midi": 54,
                    "time": 235.16289449999684,
                    "velocity": 0.2755905511811024,
                    "duration": 0.16364849999999365
                },
                {
                    "name": "G#2",
                    "midi": 44,
                    "time": 235.32654299999683,
                    "velocity": 0.31496062992125984,
                    "duration": 0.16364849999999365
                },
                {
                    "name": "F#3",
                    "midi": 54,
                    "time": 235.49019149999683,
                    "velocity": 0.2677165354330709,
                    "duration": 0.16364849999999365
                },
                {
                    "name": "C#3",
                    "midi": 49,
                    "time": 235.65383999999682,
                    "velocity": 0.31496062992125984,
                    "duration": 0.3272969999999873
                },
                {
                    "name": "F3",
                    "midi": 53,
                    "time": 235.65383999999682,
                    "velocity": 0.31496062992125984,
                    "duration": 0.3272969999999873
                },
                {
                    "name": "G#4",
                    "midi": 68,
                    "time": 236.6357309999968,
                    "velocity": 0.3543307086614173,
                    "duration": 0.3272969999999873
                },
                {
                    "name": "F#4",
                    "midi": 66,
                    "time": 236.9630279999968,
                    "velocity": 0.2992125984251969,
                    "duration": 0.3272969999999873
                },
                {
                    "name": "D#4",
                    "midi": 63,
                    "time": 237.29032499999678,
                    "velocity": 0.2992125984251969,
                    "duration": 0.3272969999999873
                },
                {
                    "name": "F4",
                    "midi": 65,
                    "time": 237.61762199999677,
                    "velocity": 0.3543307086614173,
                    "duration": 0.3272969999999873
                },
                {
                    "name": "E4",
                    "midi": 64,
                    "time": 237.94491899999676,
                    "velocity": 0.2992125984251969,
                    "duration": 0.3272969999999873
                },
                {
                    "name": "F#4",
                    "midi": 66,
                    "time": 238.27221599999675,
                    "velocity": 0.2992125984251969,
                    "duration": 0.3272969999999873
                },
                {
                    "name": "F4",
                    "midi": 65,
                    "time": 238.59951299999673,
                    "velocity": 0.3543307086614173,
                    "duration": 0.3272969999999873
                },
                {
                    "name": "D#4",
                    "midi": 63,
                    "time": 238.92680999999672,
                    "velocity": 0.2992125984251969,
                    "duration": 0.3272969999999873
                },
                {
                    "name": "C4",
                    "midi": 60,
                    "time": 239.2541069999967,
                    "velocity": 0.2992125984251969,
                    "duration": 0.3272969999999873
                },
                {
                    "name": "C#4",
                    "midi": 61,
                    "time": 239.5814039999967,
                    "velocity": 0.3543307086614173,
                    "duration": 0.3272969999999873
                },
                {
                    "name": "C4",
                    "midi": 60,
                    "time": 239.90870099999668,
                    "velocity": 0.2992125984251969,
                    "duration": 0.3272969999999873
                },
                {
                    "name": "D#4",
                    "midi": 63,
                    "time": 240.23599799999667,
                    "velocity": 0.2992125984251969,
                    "duration": 0.3272969999999873
                },
                {
                    "name": "C#4",
                    "midi": 61,
                    "time": 240.56329499999666,
                    "velocity": 0.3543307086614173,
                    "duration": 0.3272969999999873
                },
                {
                    "name": "C4",
                    "midi": 60,
                    "time": 240.89059199999664,
                    "velocity": 0.2992125984251969,
                    "duration": 0.3272969999999873
                },
                {
                    "name": "A3",
                    "midi": 57,
                    "time": 241.21788899999663,
                    "velocity": 0.2992125984251969,
                    "duration": 0.3272969999999873
                },
                {
                    "name": "A#3",
                    "midi": 58,
                    "time": 241.54518599999662,
                    "velocity": 0.3543307086614173,
                    "duration": 0.3272969999999873
                },
                {
                    "name": "C#4",
                    "midi": 61,
                    "time": 241.8724829999966,
                    "velocity": 0.29133858267716534,
                    "duration": 0.3272969999999873
                },
                {
                    "name": "G#3",
                    "midi": 56,
                    "time": 242.1997799999966,
                    "velocity": 0.29133858267716534,
                    "duration": 0.3272969999999873
                },
                {
                    "name": "G3",
                    "midi": 55,
                    "time": 242.52707699999658,
                    "velocity": 0.3543307086614173,
                    "duration": 0.3272969999999873
                },
                {
                    "name": "A#3",
                    "midi": 58,
                    "time": 242.85437399999657,
                    "velocity": 0.33858267716535434,
                    "duration": 0.3272969999999873
                },
                {
                    "name": "F3",
                    "midi": 53,
                    "time": 243.18167099999656,
                    "velocity": 0.3779527559055118,
                    "duration": 0.3272969999999873
                },
                {
                    "name": "E3",
                    "midi": 52,
                    "time": 243.50896799999654,
                    "velocity": 0.41732283464566927,
                    "duration": 0.3272969999999873
                },
                {
                    "name": "G3",
                    "midi": 55,
                    "time": 243.83626499999653,
                    "velocity": 0.3464566929133858,
                    "duration": 0.3272969999999873
                },
                {
                    "name": "D3",
                    "midi": 50,
                    "time": 244.16356199999652,
                    "velocity": 0.3464566929133858,
                    "duration": 0.3272969999999873
                },
                {
                    "name": "C3",
                    "midi": 48,
                    "time": 244.4908589999965,
                    "velocity": 0.4094488188976378,
                    "duration": 0.3272969999999873
                },
                {
                    "name": "D3",
                    "midi": 50,
                    "time": 244.8181559999965,
                    "velocity": 0.3464566929133858,
                    "duration": 0.3272969999999873
                },
                {
                    "name": "E3",
                    "midi": 52,
                    "time": 245.14545299999648,
                    "velocity": 0.3464566929133858,
                    "duration": 0.3272969999999873
                },
                {
                    "name": "F3",
                    "midi": 53,
                    "time": 245.47274999999647,
                    "velocity": 0.41732283464566927,
                    "duration": 0.3272969999999873
                },
                {
                    "name": "G#3",
                    "midi": 56,
                    "time": 245.80004699999645,
                    "velocity": 0.3543307086614173,
                    "duration": 0.3272969999999873
                },
                {
                    "name": "D#3",
                    "midi": 51,
                    "time": 246.12734399999644,
                    "velocity": 0.3543307086614173,
                    "duration": 0.3272969999999873
                },
                {
                    "name": "D3",
                    "midi": 50,
                    "time": 246.45464099999643,
                    "velocity": 0.3543307086614173,
                    "duration": 0.3272969999999873
                },
                {
                    "name": "F3",
                    "midi": 53,
                    "time": 246.78193799999642,
                    "velocity": 0.33858267716535434,
                    "duration": 0.3272969999999873
                },
                {
                    "name": "C3",
                    "midi": 48,
                    "time": 247.1092349999964,
                    "velocity": 0.3779527559055118,
                    "duration": 0.3272969999999873
                },
                {
                    "name": "B2",
                    "midi": 47,
                    "time": 247.4365319999964,
                    "velocity": 0.4409448818897638,
                    "duration": 0.3272969999999873
                },
                {
                    "name": "D3",
                    "midi": 50,
                    "time": 247.76382899999638,
                    "velocity": 0.36220472440944884,
                    "duration": 0.3272969999999873
                },
                {
                    "name": "A2",
                    "midi": 45,
                    "time": 248.09112599999636,
                    "velocity": 0.36220472440944884,
                    "duration": 0.3272969999999873
                },
                {
                    "name": "G2",
                    "midi": 43,
                    "time": 248.41842299999635,
                    "velocity": 0.4330708661417323,
                    "duration": 0.3272969999999873
                },
                {
                    "name": "A2",
                    "midi": 45,
                    "time": 248.74571999999634,
                    "velocity": 0.3779527559055118,
                    "duration": 0.3272969999999873
                },
                {
                    "name": "B2",
                    "midi": 47,
                    "time": 249.07301699999633,
                    "velocity": 0.3779527559055118,
                    "duration": 0.3272969999999873
                },
                {
                    "name": "C3",
                    "midi": 48,
                    "time": 249.4003139999963,
                    "velocity": 0.4881889763779528,
                    "duration": 0.3272969999999873
                },
                {
                    "name": "D#3",
                    "midi": 51,
                    "time": 249.7276109999963,
                    "velocity": 0.4094488188976378,
                    "duration": 0.3272969999999873
                },
                {
                    "name": "A#2",
                    "midi": 46,
                    "time": 250.0549079999963,
                    "velocity": 0.4094488188976378,
                    "duration": 0.3272969999999873
                },
                {
                    "name": "G#2",
                    "midi": 44,
                    "time": 250.38220499999628,
                    "velocity": 0.48031496062992124,
                    "duration": 0.3272969999999873
                },
                {
                    "name": "C3",
                    "midi": 48,
                    "time": 250.70950199999626,
                    "velocity": 0.41732283464566927,
                    "duration": 0.3272969999999873
                },
                {
                    "name": "G2",
                    "midi": 43,
                    "time": 251.03679899999625,
                    "velocity": 0.41732283464566927,
                    "duration": 0.3272969999999873
                },
                {
                    "name": "F2",
                    "midi": 41,
                    "time": 251.36409599999624,
                    "velocity": 0.48031496062992124,
                    "duration": 0.3272969999999873
                },
                {
                    "name": "G#2",
                    "midi": 44,
                    "time": 251.69139299999622,
                    "velocity": 0.41732283464566927,
                    "duration": 0.3272969999999873
                },
                {
                    "name": "D#2",
                    "midi": 39,
                    "time": 252.0186899999962,
                    "velocity": 0.41732283464566927,
                    "duration": 0.3272969999999873
                },
                {
                    "name": "D2",
                    "midi": 38,
                    "time": 252.3459869999962,
                    "velocity": 0.5511811023622047,
                    "duration": 0.3272969999999873
                },
                {
                    "name": "F2",
                    "midi": 41,
                    "time": 252.6732839999962,
                    "velocity": 0.47244094488188976,
                    "duration": 0.3272969999999873
                },
                {
                    "name": "C2",
                    "midi": 36,
                    "time": 253.00058099999617,
                    "velocity": 0.47244094488188976,
                    "duration": 0.3272969999999873
                },
                {
                    "name": "B1",
                    "midi": 35,
                    "time": 253.32787799999616,
                    "velocity": 0.5511811023622047,
                    "duration": 0.3272969999999873
                },
                {
                    "name": "D2",
                    "midi": 38,
                    "time": 253.65517499999615,
                    "velocity": 0.47244094488188976,
                    "duration": 0.3272969999999873
                },
                {
                    "name": "A1",
                    "midi": 33,
                    "time": 253.98247199999614,
                    "velocity": 0.47244094488188976,
                    "duration": 0.3272969999999873
                },
                {
                    "name": "G1",
                    "midi": 31,
                    "time": 254.30976899999612,
                    "velocity": 0.5196850393700787,
                    "duration": 0.3272969999999873
                },
                {
                    "name": "A1",
                    "midi": 33,
                    "time": 254.6370659999961,
                    "velocity": 0.44881889763779526,
                    "duration": 0.3272969999999873
                },
                {
                    "name": "B1",
                    "midi": 35,
                    "time": 254.9643629999961,
                    "velocity": 0.44881889763779526,
                    "duration": 0.3272969999999873
                },
                {
                    "name": "C2",
                    "midi": 36,
                    "time": 255.29165999999609,
                    "velocity": 0.4881889763779528,
                    "duration": 0.3272969999999873
                },
                {
                    "name": "D2",
                    "midi": 38,
                    "time": 255.61895699999607,
                    "velocity": 0.44881889763779526,
                    "duration": 0.3272969999999873
                },
                {
                    "name": "D#2",
                    "midi": 39,
                    "time": 255.94625399999606,
                    "velocity": 0.4881889763779528,
                    "duration": 0.3272970000000157
                },
                {
                    "name": "F2",
                    "midi": 41,
                    "time": 256.2735509999961,
                    "velocity": 0.44881889763779526,
                    "duration": 0.6545939999999746
                },
                {
                    "name": "F#2",
                    "midi": 42,
                    "time": 256.92814499999605,
                    "velocity": 0.3937007874015748,
                    "duration": 0.3272969999999873
                },
                {
                    "name": "G2",
                    "midi": 43,
                    "time": 257.25544199999604,
                    "velocity": 0.44881889763779526,
                    "duration": 0.16364850000002207
                },
                {
                    "name": "G3",
                    "midi": 55,
                    "time": 257.5827389999961,
                    "velocity": 0.4251968503937008,
                    "duration": 0.3272969999999873
                },
                {
                    "name": "G3",
                    "midi": 55,
                    "time": 258.56462999999604,
                    "velocity": 0.3543307086614173,
                    "duration": 0.3272969999999873
                },
                {
                    "name": "G3",
                    "midi": 55,
                    "time": 259.546520999996,
                    "velocity": 0.36220472440944884,
                    "duration": 0.3272969999999873
                },
                {
                    "name": "G3",
                    "midi": 55,
                    "time": 260.52841199999597,
                    "velocity": 0.3700787401574803,
                    "duration": 0.3272969999999873
                },
                {
                    "name": "G2",
                    "midi": 43,
                    "time": 261.51030299999593,
                    "velocity": 0.3700787401574803,
                    "duration": 0.3272969999999873
                },
                {
                    "name": "G2",
                    "midi": 43,
                    "time": 262.4921939999959,
                    "velocity": 0.30708661417322836,
                    "duration": 0.3272969999999873
                },
                {
                    "name": "G2",
                    "midi": 43,
                    "time": 263.47408499999585,
                    "velocity": 0.2992125984251969,
                    "duration": 0.3272969999999873
                },
                {
                    "name": "G2",
                    "midi": 43,
                    "time": 264.4559759999958,
                    "velocity": 0.29133858267716534,
                    "duration": 0.3272969999999873
                },
                {
                    "name": "G1",
                    "midi": 31,
                    "time": 265.4378669999958,
                    "velocity": 0.28346456692913385,
                    "duration": 0.3272969999999873
                },
                {
                    "name": "G2",
                    "midi": 43,
                    "time": 265.4378669999958,
                    "velocity": 0.28346456692913385,
                    "duration": 0.3272969999999873
                },
                {
                    "name": "G1",
                    "midi": 31,
                    "time": 266.41975799999574,
                    "velocity": 0.2204724409448819,
                    "duration": 0.3272969999999873
                },
                {
                    "name": "G2",
                    "midi": 43,
                    "time": 266.41975799999574,
                    "velocity": 0.25984251968503935,
                    "duration": 0.3272969999999873
                },
                {
                    "name": "C3",
                    "midi": 48,
                    "time": 267.0743519999957,
                    "velocity": 0.5511811023622047,
                    "duration": 0.49094550000000936
                },
                {
                    "name": "G2",
                    "midi": 43,
                    "time": 267.0743519999957,
                    "velocity": 0.4645669291338583,
                    "duration": 0.49094550000000936
                },
                {
                    "name": "D#2",
                    "midi": 39,
                    "time": 267.0743519999957,
                    "velocity": 0.4645669291338583,
                    "duration": 0.49094550000000936
                },
                {
                    "name": "C2",
                    "midi": 36,
                    "time": 267.0743519999957,
                    "velocity": 0.4645669291338583,
                    "duration": 0.49094550000000936
                },
                {
                    "name": "C4",
                    "midi": 60,
                    "time": 269.6927279999957,
                    "velocity": 0.2677165354330709,
                    "duration": 0.16364850000002207
                },
                {
                    "name": "D#4",
                    "midi": 63,
                    "time": 269.6927279999957,
                    "velocity": 0.3228346456692913,
                    "duration": 0.16364850000002207
                },
                {
                    "name": "D#4",
                    "midi": 63,
                    "time": 270.02002499999577,
                    "velocity": 0.3228346456692913,
                    "duration": 0.6545939999999746
                },
                {
                    "name": "C4",
                    "midi": 60,
                    "time": 270.02002499999577,
                    "velocity": 0.2677165354330709,
                    "duration": 0.6545939999999746
                },
                {
                    "name": "D4",
                    "midi": 62,
                    "time": 270.67461899999574,
                    "velocity": 0.25196850393700787,
                    "duration": 0.32047831249997216
                },
                {
                    "name": "F4",
                    "midi": 65,
                    "time": 270.67461899999574,
                    "velocity": 0.2992125984251969,
                    "duration": 0.32047831249997216
                },
                {
                    "name": "F3",
                    "midi": 53,
                    "time": 271.00191599999573,
                    "velocity": 0.4645669291338583,
                    "duration": 0.49094550000000936
                },
                {
                    "name": "B3",
                    "midi": 59,
                    "time": 271.00191599999573,
                    "velocity": 0.4645669291338583,
                    "duration": 0.49094550000000936
                },
                {
                    "name": "G#3",
                    "midi": 56,
                    "time": 271.00191599999573,
                    "velocity": 0.4645669291338583,
                    "duration": 0.49094550000000936
                },
                {
                    "name": "D4",
                    "midi": 62,
                    "time": 271.00191599999573,
                    "velocity": 0.5511811023622047,
                    "duration": 0.49094550000000936
                },
                {
                    "name": "D3",
                    "midi": 50,
                    "time": 271.00191599999573,
                    "velocity": 0.4645669291338583,
                    "duration": 0.49094550000000936
                },
                {
                    "name": "D4",
                    "midi": 62,
                    "time": 273.62029199999574,
                    "velocity": 0.2677165354330709,
                    "duration": 0.16364850000002207
                },
                {
                    "name": "G#4",
                    "midi": 68,
                    "time": 273.62029199999574,
                    "velocity": 0.3228346456692913,
                    "duration": 0.16364850000002207
                },
                {
                    "name": "F4",
                    "midi": 65,
                    "time": 273.62029199999574,
                    "velocity": 0.2677165354330709,
                    "duration": 0.16364850000002207
                },
                {
                    "name": "G#4",
                    "midi": 68,
                    "time": 273.9475889999958,
                    "velocity": 0.3228346456692913,
                    "duration": 0.6545939999999746
                },
                {
                    "name": "F4",
                    "midi": 65,
                    "time": 273.9475889999958,
                    "velocity": 0.2677165354330709,
                    "duration": 0.6545939999999746
                },
                {
                    "name": "D4",
                    "midi": 62,
                    "time": 273.9475889999958,
                    "velocity": 0.2677165354330709,
                    "duration": 0.6545939999999746
                },
                {
                    "name": "G4",
                    "midi": 67,
                    "time": 274.60218299999576,
                    "velocity": 0.2992125984251969,
                    "duration": 0.3272969999999873
                },
                {
                    "name": "D#4",
                    "midi": 63,
                    "time": 274.60218299999576,
                    "velocity": 0.25196850393700787,
                    "duration": 0.3272969999999873
                },
                {
                    "name": "C4",
                    "midi": 60,
                    "time": 275.5840739999957,
                    "velocity": 0.2755905511811024,
                    "duration": 0.3272969999999873
                },
                {
                    "name": "G3",
                    "midi": 55,
                    "time": 275.5840739999957,
                    "velocity": 0.2283464566929134,
                    "duration": 0.3272969999999873
                },
                {
                    "name": "D#3",
                    "midi": 51,
                    "time": 275.5840739999957,
                    "velocity": 0.2283464566929134,
                    "duration": 0.3272969999999873
                },
                {
                    "name": "F3",
                    "midi": 53,
                    "time": 275.9113709999957,
                    "velocity": 0.25984251968503935,
                    "duration": 0.6545939999999746
                },
                {
                    "name": "G#3",
                    "midi": 56,
                    "time": 275.9113709999957,
                    "velocity": 0.25984251968503935,
                    "duration": 0.6545939999999746
                },
                {
                    "name": "B3",
                    "midi": 59,
                    "time": 275.9113709999957,
                    "velocity": 0.30708661417322836,
                    "duration": 0.6545939999999746
                },
                {
                    "name": "C4",
                    "midi": 60,
                    "time": 276.5659649999957,
                    "velocity": 0.2677165354330709,
                    "duration": 0.3272969999999873
                },
                {
                    "name": "G3",
                    "midi": 55,
                    "time": 276.5659649999957,
                    "velocity": 0.2204724409448819,
                    "duration": 0.3272969999999873
                },
                {
                    "name": "D#3",
                    "midi": 51,
                    "time": 276.5659649999957,
                    "velocity": 0.2204724409448819,
                    "duration": 0.3272969999999873
                },
                {
                    "name": "D#4",
                    "midi": 63,
                    "time": 277.54785599999565,
                    "velocity": 0.2283464566929134,
                    "duration": 0.3272969999999873
                },
                {
                    "name": "G4",
                    "midi": 67,
                    "time": 277.54785599999565,
                    "velocity": 0.2755905511811024,
                    "duration": 0.3272969999999873
                },
                {
                    "name": "G#4",
                    "midi": 68,
                    "time": 277.87515299999563,
                    "velocity": 0.30708661417322836,
                    "duration": 0.6545939999999746
                },
                {
                    "name": "F4",
                    "midi": 65,
                    "time": 277.87515299999563,
                    "velocity": 0.25984251968503935,
                    "duration": 0.6545939999999746
                },
                {
                    "name": "D#4",
                    "midi": 63,
                    "time": 278.5297469999956,
                    "velocity": 0.2204724409448819,
                    "duration": 0.3272969999999873
                },
                {
                    "name": "G4",
                    "midi": 67,
                    "time": 278.5297469999956,
                    "velocity": 0.2677165354330709,
                    "duration": 0.3272969999999873
                },
                {
                    "name": "G3",
                    "midi": 55,
                    "time": 279.51163799999557,
                    "velocity": 0.30708661417322836,
                    "duration": 0.3272969999999873
                },
                {
                    "name": "C4",
                    "midi": 60,
                    "time": 279.51163799999557,
                    "velocity": 0.3700787401574803,
                    "duration": 0.3272969999999873
                },
                {
                    "name": "D#3",
                    "midi": 51,
                    "time": 279.51163799999557,
                    "velocity": 0.30708661417322836,
                    "duration": 0.3272969999999873
                },
                {
                    "name": "B3",
                    "midi": 59,
                    "time": 279.83893499999556,
                    "velocity": 0.41732283464566927,
                    "duration": 0.6545939999999746
                },
                {
                    "name": "F3",
                    "midi": 53,
                    "time": 279.83893499999556,
                    "velocity": 0.3543307086614173,
                    "duration": 0.6545939999999746
                },
                {
                    "name": "G#3",
                    "midi": 56,
                    "time": 279.83893499999556,
                    "velocity": 0.3543307086614173,
                    "duration": 0.6545939999999746
                },
                {
                    "name": "G3",
                    "midi": 55,
                    "time": 280.49352899999553,
                    "velocity": 0.36220472440944884,
                    "duration": 0.3272969999999873
                },
                {
                    "name": "D#3",
                    "midi": 51,
                    "time": 280.49352899999553,
                    "velocity": 0.30708661417322836,
                    "duration": 0.3272969999999873
                },
                {
                    "name": "D3",
                    "midi": 50,
                    "time": 280.8208259999955,
                    "velocity": 0.36220472440944884,
                    "duration": 0.6545939999999746
                },
                {
                    "name": "F3",
                    "midi": 53,
                    "time": 280.8208259999955,
                    "velocity": 0.4409448818897638,
                    "duration": 0.6545939999999746
                },
                {
                    "name": "D#3",
                    "midi": 51,
                    "time": 281.4754199999955,
                    "velocity": 0.3858267716535433,
                    "duration": 0.3272969999999873
                },
                {
                    "name": "C3",
                    "midi": 48,
                    "time": 281.4754199999955,
                    "velocity": 0.3228346456692913,
                    "duration": 0.3272969999999873
                },
                {
                    "name": "D3",
                    "midi": 50,
                    "time": 281.8027169999955,
                    "velocity": 0.3700787401574803,
                    "duration": 0.3272969999999873
                },
                {
                    "name": "B2",
                    "midi": 47,
                    "time": 281.8027169999955,
                    "velocity": 0.4409448818897638,
                    "duration": 0.3272969999999873
                },
                {
                    "name": "G#3",
                    "midi": 56,
                    "time": 283.4392019999955,
                    "velocity": 0.2677165354330709,
                    "duration": 0.3272969999999873
                },
                {
                    "name": "F3",
                    "midi": 53,
                    "time": 283.4392019999955,
                    "velocity": 0.2204724409448819,
                    "duration": 0.3272969999999873
                },
                {
                    "name": "D3",
                    "midi": 50,
                    "time": 283.4392019999955,
                    "velocity": 0.2204724409448819,
                    "duration": 0.3272969999999873
                },
                {
                    "name": "B2",
                    "midi": 47,
                    "time": 283.4392019999955,
                    "velocity": 0.2204724409448819,
                    "duration": 0.3272969999999873
                },
                {
                    "name": "G3",
                    "midi": 55,
                    "time": 283.76649899999546,
                    "velocity": 0.2677165354330709,
                    "duration": 0.08182425000001103
                },
                {
                    "name": "D#3",
                    "midi": 51,
                    "time": 283.76649899999546,
                    "velocity": 0.2204724409448819,
                    "duration": 0.08182425000001103
                },
                {
                    "name": "C3",
                    "midi": 48,
                    "time": 283.76649899999546,
                    "velocity": 0.2204724409448819,
                    "duration": 0.08182425000001103
                },
                {
                    "name": "D3",
                    "midi": 50,
                    "time": 285.40298399999546,
                    "velocity": 0.2677165354330709,
                    "duration": 0.3272969999999873
                },
                {
                    "name": "G#2",
                    "midi": 44,
                    "time": 285.40298399999546,
                    "velocity": 0.2204724409448819,
                    "duration": 0.3272969999999873
                },
                {
                    "name": "F2",
                    "midi": 41,
                    "time": 285.40298399999546,
                    "velocity": 0.2204724409448819,
                    "duration": 0.3272969999999873
                },
                {
                    "name": "C3",
                    "midi": 48,
                    "time": 285.73028099999544,
                    "velocity": 0.2204724409448819,
                    "duration": 0.08182425000001103
                },
                {
                    "name": "G2",
                    "midi": 43,
                    "time": 285.73028099999544,
                    "velocity": 0.2204724409448819,
                    "duration": 0.08182425000001103
                },
                {
                    "name": "D#3",
                    "midi": 51,
                    "time": 285.73028099999544,
                    "velocity": 0.2677165354330709,
                    "duration": 0.08182425000001103
                },
                {
                    "name": "G2",
                    "midi": 43,
                    "time": 287.36676599999544,
                    "velocity": 0.5748031496062992,
                    "duration": 0.16364850000002207
                },
                {
                    "name": "G1",
                    "midi": 31,
                    "time": 287.36676599999544,
                    "velocity": 0.5748031496062992,
                    "duration": 0.16364850000002207
                },
                {
                    "name": "C2",
                    "midi": 36,
                    "time": 287.6940629999955,
                    "velocity": 0.5275590551181102,
                    "duration": 0.16364850000002207
                },
                {
                    "name": "C3",
                    "midi": 48,
                    "time": 287.6940629999955,
                    "velocity": 0.6299212598425197,
                    "duration": 0.16364850000002207
                },
                {
                    "name": "C#4",
                    "midi": 61,
                    "time": 289.6578449999955,
                    "velocity": 0.5433070866141733,
                    "duration": 2.945673000000056
                },
                {
                    "name": "B3",
                    "midi": 59,
                    "time": 290.63973599999554,
                    "velocity": 0.3937007874015748,
                    "duration": 0.9818910000000187
                },
                {
                    "name": "A#3",
                    "midi": 58,
                    "time": 291.62162699999556,
                    "velocity": 0.3858267716535433,
                    "duration": 0.9818910000000187
                },
                {
                    "name": "B3",
                    "midi": 59,
                    "time": 292.6035179999956,
                    "velocity": 0.2677165354330709,
                    "duration": 0.9818910000000187
                },
                {
                    "name": "G#3",
                    "midi": 56,
                    "time": 292.6035179999956,
                    "velocity": 0.2204724409448819,
                    "duration": 0.9818910000000187
                },
                {
                    "name": "F#3",
                    "midi": 54,
                    "time": 293.5854089999956,
                    "velocity": 0.2204724409448819,
                    "duration": 0.9818910000000187
                },
                {
                    "name": "C#4",
                    "midi": 61,
                    "time": 293.5854089999956,
                    "velocity": 0.25984251968503935,
                    "duration": 0.9818910000000187
                },
                {
                    "name": "B4",
                    "midi": 71,
                    "time": 294.5672999999956,
                    "velocity": 0.3937007874015748,
                    "duration": 0.9818910000000187
                },
                {
                    "name": "C#5",
                    "midi": 73,
                    "time": 294.5672999999956,
                    "velocity": 0.47244094488188976,
                    "duration": 1.9637820000000374
                },
                {
                    "name": "A#4",
                    "midi": 70,
                    "time": 295.54919099999563,
                    "velocity": 0.3858267716535433,
                    "duration": 0.9818910000000187
                },
                {
                    "name": "G#4",
                    "midi": 68,
                    "time": 296.53108199999565,
                    "velocity": 0.2204724409448819,
                    "duration": 0.9818910000000187
                },
                {
                    "name": "B4",
                    "midi": 71,
                    "time": 296.53108199999565,
                    "velocity": 0.2677165354330709,
                    "duration": 0.9818910000000187
                },
                {
                    "name": "F#4",
                    "midi": 66,
                    "time": 297.51297299999567,
                    "velocity": 0.2204724409448819,
                    "duration": 0.9818910000000187
                },
                {
                    "name": "C#5",
                    "midi": 73,
                    "time": 297.51297299999567,
                    "velocity": 0.25984251968503935,
                    "duration": 0.9818910000000187
                },
                {
                    "name": "G#4",
                    "midi": 68,
                    "time": 298.4948639999957,
                    "velocity": 0.3937007874015748,
                    "duration": 0.9818910000000187
                },
                {
                    "name": "A#4",
                    "midi": 70,
                    "time": 298.4948639999957,
                    "velocity": 0.47244094488188976,
                    "duration": 1.9637820000000374
                },
                {
                    "name": "F#4",
                    "midi": 66,
                    "time": 299.4767549999957,
                    "velocity": 0.3858267716535433,
                    "duration": 0.9818910000000187
                },
                {
                    "name": "F4",
                    "midi": 65,
                    "time": 300.4586459999957,
                    "velocity": 0.3464566929133858,
                    "duration": 0.9818910000000187
                },
                {
                    "name": "G#4",
                    "midi": 68,
                    "time": 300.4586459999957,
                    "velocity": 0.3464566929133858,
                    "duration": 0.9818910000000187
                },
                {
                    "name": "D#4",
                    "midi": 63,
                    "time": 301.44053699999574,
                    "velocity": 0.2204724409448819,
                    "duration": 0.9818910000000187
                },
                {
                    "name": "F#4",
                    "midi": 66,
                    "time": 301.44053699999574,
                    "velocity": 0.25984251968503935,
                    "duration": 0.9818910000000187
                },
                {
                    "name": "C#4",
                    "midi": 61,
                    "time": 302.42242799999576,
                    "velocity": 0.33070866141732286,
                    "duration": 0.9818910000000187
                },
                {
                    "name": "F4",
                    "midi": 65,
                    "time": 302.42242799999576,
                    "velocity": 0.3779527559055118,
                    "duration": 0.9818910000000187
                },
                {
                    "name": "G4",
                    "midi": 67,
                    "time": 303.4043189999958,
                    "velocity": 0.25984251968503935,
                    "duration": 0.9818910000000187
                },
                {
                    "name": "C4",
                    "midi": 60,
                    "time": 303.4043189999958,
                    "velocity": 0.2204724409448819,
                    "duration": 0.9818910000000187
                },
                {
                    "name": "B3",
                    "midi": 59,
                    "time": 304.3862099999958,
                    "velocity": 0.25984251968503935,
                    "duration": 0.9818910000000187
                },
                {
                    "name": "C4",
                    "midi": 60,
                    "time": 305.3681009999958,
                    "velocity": 0.33070866141732286,
                    "duration": 0.3272969999999873
                },
                {
                    "name": "C3",
                    "midi": 48,
                    "time": 305.3681009999958,
                    "velocity": 0.25984251968503935,
                    "duration": 1.9637819999999238
                },
                {
                    "name": "G3",
                    "midi": 55,
                    "time": 305.6953979999958,
                    "velocity": 0.25984251968503935,
                    "duration": 0.3272969999999873
                },
                {
                    "name": "G#3",
                    "midi": 56,
                    "time": 306.0226949999958,
                    "velocity": 0.29133858267716534,
                    "duration": 0.3272969999999873
                },
                {
                    "name": "A#3",
                    "midi": 58,
                    "time": 306.3499919999958,
                    "velocity": 0.3228346456692913,
                    "duration": 0.3272969999999873
                },
                {
                    "name": "F3",
                    "midi": 53,
                    "time": 306.67728899999577,
                    "velocity": 0.25984251968503935,
                    "duration": 0.3272969999999873
                },
                {
                    "name": "G3",
                    "midi": 55,
                    "time": 307.00458599999575,
                    "velocity": 0.2755905511811024,
                    "duration": 0.3272969999999873
                },
                {
                    "name": "C3",
                    "midi": 48,
                    "time": 307.33188299999574,
                    "velocity": 0.33070866141732286,
                    "duration": 1.9637819999999238
                },
                {
                    "name": "G#3",
                    "midi": 56,
                    "time": 307.33188299999574,
                    "velocity": 0.33070866141732286,
                    "duration": 0.3272969999999873
                },
                {
                    "name": "E3",
                    "midi": 52,
                    "time": 307.65917999999573,
                    "velocity": 0.25984251968503935,
                    "duration": 0.3272969999999873
                },
                {
                    "name": "F3",
                    "midi": 53,
                    "time": 307.9864769999957,
                    "velocity": 0.25984251968503935,
                    "duration": 0.3272969999999873
                },
                {
                    "name": "G3",
                    "midi": 55,
                    "time": 308.3137739999957,
                    "velocity": 0.31496062992125984,
                    "duration": 0.3272969999999873
                },
                {
                    "name": "D3",
                    "midi": 50,
                    "time": 308.6410709999957,
                    "velocity": 0.25984251968503935,
                    "duration": 0.3272969999999873
                },
                {
                    "name": "E3",
                    "midi": 52,
                    "time": 308.9683679999957,
                    "velocity": 0.25984251968503935,
                    "duration": 0.3272969999999873
                },
                {
                    "name": "C3",
                    "midi": 48,
                    "time": 309.29566499999567,
                    "velocity": 0.30708661417322836,
                    "duration": 1.9637819999999238
                },
                {
                    "name": "F3",
                    "midi": 53,
                    "time": 309.29566499999567,
                    "velocity": 0.30708661417322836,
                    "duration": 0.3272969999999873
                },
                {
                    "name": "G3",
                    "midi": 55,
                    "time": 309.62296199999565,
                    "velocity": 0.25984251968503935,
                    "duration": 0.3272969999999873
                },
                {
                    "name": "A3",
                    "midi": 57,
                    "time": 309.95025899999564,
                    "velocity": 0.28346456692913385,
                    "duration": 0.3272969999999873
                },
                {
                    "name": "A#3",
                    "midi": 58,
                    "time": 310.2775559999956,
                    "velocity": 0.31496062992125984,
                    "duration": 0.3272969999999873
                },
                {
                    "name": "F#3",
                    "midi": 54,
                    "time": 310.6048529999956,
                    "velocity": 0.25984251968503935,
                    "duration": 0.3272969999999873
                },
                {
                    "name": "G3",
                    "midi": 55,
                    "time": 310.9321499999956,
                    "velocity": 0.25984251968503935,
                    "duration": 0.3272969999999873
                },
                {
                    "name": "A3",
                    "midi": 57,
                    "time": 311.2594469999956,
                    "velocity": 0.33070866141732286,
                    "duration": 0.3272969999999873
                },
                {
                    "name": "C3",
                    "midi": 48,
                    "time": 311.2594469999956,
                    "velocity": 0.33070866141732286,
                    "duration": 1.9637819999999238
                },
                {
                    "name": "E3",
                    "midi": 52,
                    "time": 311.5867439999956,
                    "velocity": 0.25984251968503935,
                    "duration": 0.3272969999999873
                },
                {
                    "name": "F3",
                    "midi": 53,
                    "time": 311.91404099999556,
                    "velocity": 0.25984251968503935,
                    "duration": 0.3272969999999873
                },
                {
                    "name": "G3",
                    "midi": 55,
                    "time": 312.24133799999555,
                    "velocity": 0.31496062992125984,
                    "duration": 0.3272969999999873
                },
                {
                    "name": "D3",
                    "midi": 50,
                    "time": 312.56863499999554,
                    "velocity": 0.25984251968503935,
                    "duration": 0.3272969999999873
                },
                {
                    "name": "E3",
                    "midi": 52,
                    "time": 312.8959319999955,
                    "velocity": 0.25984251968503935,
                    "duration": 0.3272969999999873
                },
                {
                    "name": "F3",
                    "midi": 53,
                    "time": 313.2232289999955,
                    "velocity": 0.31496062992125984,
                    "duration": 0.16364850000002207
                },
                {
                    "name": "C4",
                    "midi": 60,
                    "time": 313.38687749999553,
                    "velocity": 0.2204724409448819,
                    "duration": 0.16364850000002207
                },
                {
                    "name": "A3",
                    "midi": 57,
                    "time": 313.55052599999556,
                    "velocity": 0.25984251968503935,
                    "duration": 0.16364850000002207
                },
                {
                    "name": "C4",
                    "midi": 60,
                    "time": 313.7141744999956,
                    "velocity": 0.2125984251968504,
                    "duration": 0.16364850000002207
                },
                {
                    "name": "G3",
                    "midi": 55,
                    "time": 313.8873691624956,
                    "velocity": 0.25984251968503935,
                    "duration": 0.16364849999996522
                },
                {
                    "name": "C4",
                    "midi": 60,
                    "time": 314.04147149999557,
                    "velocity": 0.23622047244094488,
                    "duration": 0.16364849999996522
                },
                {
                    "name": "F3",
                    "midi": 53,
                    "time": 314.20511999999553,
                    "velocity": 0.2992125984251969,
                    "duration": 0.16364850000002207
                },
                {
                    "name": "C4",
                    "midi": 60,
                    "time": 314.36876849999555,
                    "velocity": 0.2204724409448819,
                    "duration": 0.16364850000002207
                },
                {
                    "name": "G3",
                    "midi": 55,
                    "time": 314.5324169999956,
                    "velocity": 0.33858267716535434,
                    "duration": 0.16364850000002207
                },
                {
                    "name": "C4",
                    "midi": 60,
                    "time": 314.6960654999956,
                    "velocity": 0.2992125984251969,
                    "duration": 0.16364850000002207
                },
                {
                    "name": "A3",
                    "midi": 57,
                    "time": 314.8597139999956,
                    "velocity": 0.4015748031496063,
                    "duration": 0.16364850000002207
                },
                {
                    "name": "C4",
                    "midi": 60,
                    "time": 315.02336249999564,
                    "velocity": 0.3228346456692913,
                    "duration": 0.16364850000002207
                },
                {
                    "name": "G3",
                    "midi": 55,
                    "time": 315.18701099999566,
                    "velocity": 0.41732283464566927,
                    "duration": 0.16364850000002207
                },
                {
                    "name": "C4",
                    "midi": 60,
                    "time": 315.3506594999957,
                    "velocity": 0.31496062992125984,
                    "duration": 0.16364850000002207
                },
                {
                    "name": "A3",
                    "midi": 57,
                    "time": 315.5143079999957,
                    "velocity": 0.3543307086614173,
                    "duration": 0.16364850000002207
                },
                {
                    "name": "C4",
                    "midi": 60,
                    "time": 315.67795649999573,
                    "velocity": 0.2755905511811024,
                    "duration": 0.16364850000002207
                },
                {
                    "name": "A#3",
                    "midi": 58,
                    "time": 315.84160499999575,
                    "velocity": 0.31496062992125984,
                    "duration": 0.16364850000002207
                },
                {
                    "name": "C4",
                    "midi": 60,
                    "time": 316.0052534999958,
                    "velocity": 0.25984251968503935,
                    "duration": 0.16364850000002207
                },
                {
                    "name": "G3",
                    "midi": 55,
                    "time": 316.1689019999958,
                    "velocity": 0.30708661417322836,
                    "duration": 0.16364850000002207
                },
                {
                    "name": "C4",
                    "midi": 60,
                    "time": 316.3325504999958,
                    "velocity": 0.25984251968503935,
                    "duration": 0.16364850000002207
                },
                {
                    "name": "A3",
                    "midi": 57,
                    "time": 316.49619899999584,
                    "velocity": 0.3228346456692913,
                    "duration": 0.16364850000002207
                },
                {
                    "name": "C4",
                    "midi": 60,
                    "time": 316.65984749999586,
                    "velocity": 0.25984251968503935,
                    "duration": 0.16364850000002207
                },
                {
                    "name": "A#3",
                    "midi": 58,
                    "time": 316.8234959999959,
                    "velocity": 0.3228346456692913,
                    "duration": 0.16364850000002207
                },
                {
                    "name": "C4",
                    "midi": 60,
                    "time": 316.9871444999959,
                    "velocity": 0.25984251968503935,
                    "duration": 0.16364850000002207
                },
                {
                    "name": "E3",
                    "midi": 52,
                    "time": 317.15079299999593,
                    "velocity": 0.31496062992125984,
                    "duration": 0.16364850000002207
                },
                {
                    "name": "C4",
                    "midi": 60,
                    "time": 317.31444149999595,
                    "velocity": 0.2204724409448819,
                    "duration": 0.16364850000002207
                },
                {
                    "name": "G3",
                    "midi": 55,
                    "time": 317.478089999996,
                    "velocity": 0.25984251968503935,
                    "duration": 0.16364850000002207
                },
                {
                    "name": "C4",
                    "midi": 60,
                    "time": 317.641738499996,
                    "velocity": 0.2125984251968504,
                    "duration": 0.16364850000002207
                },
                {
                    "name": "F3",
                    "midi": 53,
                    "time": 317.805386999996,
                    "velocity": 0.25984251968503935,
                    "duration": 0.16364850000002207
                },
                {
                    "name": "C4",
                    "midi": 60,
                    "time": 317.96903549999604,
                    "velocity": 0.23622047244094488,
                    "duration": 0.16364850000002207
                },
                {
                    "name": "E3",
                    "midi": 52,
                    "time": 318.13268399999606,
                    "velocity": 0.2992125984251969,
                    "duration": 0.16364850000002207
                },
                {
                    "name": "C4",
                    "midi": 60,
                    "time": 318.2963324999961,
                    "velocity": 0.2204724409448819,
                    "duration": 0.16364850000002207
                },
                {
                    "name": "F3",
                    "midi": 53,
                    "time": 318.4599809999961,
                    "velocity": 0.3700787401574803,
                    "duration": 0.16364850000002207
                },
                {
                    "name": "C4",
                    "midi": 60,
                    "time": 318.6236294999961,
                    "velocity": 0.3228346456692913,
                    "duration": 0.16364850000002207
                },
                {
                    "name": "G3",
                    "midi": 55,
                    "time": 318.78727799999615,
                    "velocity": 0.3858267716535433,
                    "duration": 0.16364850000002207
                },
                {
                    "name": "C4",
                    "midi": 60,
                    "time": 318.95092649999617,
                    "velocity": 0.31496062992125984,
                    "duration": 0.16364850000002207
                },
                {
                    "name": "F3",
                    "midi": 53,
                    "time": 319.1145749999962,
                    "velocity": 0.4251968503937008,
                    "duration": 0.16364850000002207
                },
                {
                    "name": "C4",
                    "midi": 60,
                    "time": 319.2782234999962,
                    "velocity": 0.33858267716535434,
                    "duration": 0.16364850000002207
                },
                {
                    "name": "G3",
                    "midi": 55,
                    "time": 319.44187199999624,
                    "velocity": 0.3543307086614173,
                    "duration": 0.16364850000002207
                },
                {
                    "name": "C4",
                    "midi": 60,
                    "time": 319.60552049999626,
                    "velocity": 0.29133858267716534,
                    "duration": 0.16364850000002207
                },
                {
                    "name": "A3",
                    "midi": 57,
                    "time": 319.7691689999963,
                    "velocity": 0.36220472440944884,
                    "duration": 0.16364850000002207
                },
                {
                    "name": "C4",
                    "midi": 60,
                    "time": 319.9328174999963,
                    "velocity": 0.25984251968503935,
                    "duration": 0.16364850000002207
                },
                {
                    "name": "F3",
                    "midi": 53,
                    "time": 320.0964659999963,
                    "velocity": 0.3464566929133858,
                    "duration": 0.16364850000002207
                },
                {
                    "name": "C4",
                    "midi": 60,
                    "time": 320.26011449999635,
                    "velocity": 0.30708661417322836,
                    "duration": 0.16364850000002207
                },
                {
                    "name": "G3",
                    "midi": 55,
                    "time": 320.43330916249636,
                    "velocity": 0.3228346456692913,
                    "duration": 0.16364849999996522
                },
                {
                    "name": "C4",
                    "midi": 60,
                    "time": 320.58741149999634,
                    "velocity": 0.25984251968503935,
                    "duration": 0.16364849999996522
                },
                {
                    "name": "A3",
                    "midi": 57,
                    "time": 320.7510599999963,
                    "velocity": 0.3228346456692913,
                    "duration": 0.16364850000002207
                },
                {
                    "name": "C4",
                    "midi": 60,
                    "time": 320.9147084999963,
                    "velocity": 0.25984251968503935,
                    "duration": 0.16364850000002207
                },
                {
                    "name": "F3",
                    "midi": 53,
                    "time": 321.07835699999634,
                    "velocity": 0.31496062992125984,
                    "duration": 0.16364850000002207
                },
                {
                    "name": "C4",
                    "midi": 60,
                    "time": 321.24200549999637,
                    "velocity": 0.2204724409448819,
                    "duration": 0.16364850000002207
                },
                {
                    "name": "A3",
                    "midi": 57,
                    "time": 321.4056539999964,
                    "velocity": 0.25984251968503935,
                    "duration": 0.16364850000002207
                },
                {
                    "name": "C4",
                    "midi": 60,
                    "time": 321.5693024999964,
                    "velocity": 0.2125984251968504,
                    "duration": 0.16364850000002207
                },
                {
                    "name": "F3",
                    "midi": 53,
                    "time": 321.73295099999643,
                    "velocity": 0.2677165354330709,
                    "duration": 0.16364850000002207
                },
                {
                    "name": "C4",
                    "midi": 60,
                    "time": 321.89659949999646,
                    "velocity": 0.2440944881889764,
                    "duration": 0.16364850000002207
                },
                {
                    "name": "F3",
                    "midi": 53,
                    "time": 322.0602479999965,
                    "velocity": 0.31496062992125984,
                    "duration": 0.16364850000002207
                },
                {
                    "name": "C4",
                    "midi": 60,
                    "time": 322.2238964999965,
                    "velocity": 0.28346456692913385,
                    "duration": 0.16364850000002207
                },
                {
                    "name": "A3",
                    "midi": 57,
                    "time": 322.3875449999965,
                    "velocity": 0.3779527559055118,
                    "duration": 0.16364850000002207
                },
                {
                    "name": "C4",
                    "midi": 60,
                    "time": 322.55119349999654,
                    "velocity": 0.31496062992125984,
                    "duration": 0.16364850000002207
                },
                {
                    "name": "F3",
                    "midi": 53,
                    "time": 322.71484199999657,
                    "velocity": 0.4015748031496063,
                    "duration": 0.16364850000002207
                },
                {
                    "name": "C4",
                    "midi": 60,
                    "time": 322.8784904999966,
                    "velocity": 0.33070866141732286,
                    "duration": 0.16364850000002207
                },
                {
                    "name": "G3",
                    "midi": 55,
                    "time": 323.0421389999966,
                    "velocity": 0.4645669291338583,
                    "duration": 0.16364850000002207
                },
                {
                    "name": "C4",
                    "midi": 60,
                    "time": 323.20578749999663,
                    "velocity": 0.3700787401574803,
                    "duration": 0.16364850000002207
                },
                {
                    "name": "A#3",
                    "midi": 58,
                    "time": 323.36943599999665,
                    "velocity": 0.36220472440944884,
                    "duration": 0.16364850000002207
                },
                {
                    "name": "C4",
                    "midi": 60,
                    "time": 323.5330844999967,
                    "velocity": 0.2992125984251969,
                    "duration": 0.16364850000002207
                },
                {
                    "name": "G3",
                    "midi": 55,
                    "time": 323.6967329999967,
                    "velocity": 0.36220472440944884,
                    "duration": 0.16364850000002207
                },
                {
                    "name": "C4",
                    "midi": 60,
                    "time": 323.8603814999967,
                    "velocity": 0.29133858267716534,
                    "duration": 0.16364850000002207
                },
                {
                    "name": "G3",
                    "midi": 55,
                    "time": 324.02402999999674,
                    "velocity": 0.3464566929133858,
                    "duration": 0.16364850000002207
                },
                {
                    "name": "C4",
                    "midi": 60,
                    "time": 324.18767849999676,
                    "velocity": 0.29133858267716534,
                    "duration": 0.16364850000002207
                },
                {
                    "name": "A#3",
                    "midi": 58,
                    "time": 324.3513269999968,
                    "velocity": 0.3700787401574803,
                    "duration": 0.16364850000002207
                },
                {
                    "name": "C4",
                    "midi": 60,
                    "time": 324.5149754999968,
                    "velocity": 0.29133858267716534,
                    "duration": 0.16364850000002207
                },
                {
                    "name": "G3",
                    "midi": 55,
                    "time": 324.67862399999683,
                    "velocity": 0.3700787401574803,
                    "duration": 0.16364850000002207
                },
                {
                    "name": "C4",
                    "midi": 60,
                    "time": 324.84227249999685,
                    "velocity": 0.29133858267716534,
                    "duration": 0.16228476250000767
                },
                {
                    "name": "E3",
                    "midi": 52,
                    "time": 325.0059209999969,
                    "velocity": 0.31496062992125984,
                    "duration": 0.16364850000002207
                },
                {
                    "name": "C4",
                    "midi": 60,
                    "time": 325.1695694999969,
                    "velocity": 0.25196850393700787,
                    "duration": 0.16364850000002207
                },
                {
                    "name": "G3",
                    "midi": 55,
                    "time": 325.3332179999969,
                    "velocity": 0.30708661417322836,
                    "duration": 0.16364850000002207
                },
                {
                    "name": "C4",
                    "midi": 60,
                    "time": 325.49686649999694,
                    "velocity": 0.2283464566929134,
                    "duration": 0.16364850000002207
                },
                {
                    "name": "E3",
                    "midi": 52,
                    "time": 325.66051499999696,
                    "velocity": 0.31496062992125984,
                    "duration": 0.16364850000002207
                },
                {
                    "name": "C4",
                    "midi": 60,
                    "time": 325.824163499997,
                    "velocity": 0.2440944881889764,
                    "duration": 0.16364850000002207
                },
                {
                    "name": "E3",
                    "midi": 52,
                    "time": 325.987811999997,
                    "velocity": 0.36220472440944884,
                    "duration": 0.16364850000002207
                },
                {
                    "name": "C4",
                    "midi": 60,
                    "time": 326.15146049999703,
                    "velocity": 0.3228346456692913,
                    "duration": 0.16364850000002207
                },
                {
                    "name": "G3",
                    "midi": 55,
                    "time": 326.31510899999705,
                    "velocity": 0.4094488188976378,
                    "duration": 0.16364850000002207
                },
                {
                    "name": "C4",
                    "midi": 60,
                    "time": 326.4787574999971,
                    "velocity": 0.31496062992125984,
                    "duration": 0.16364850000002207
                },
                {
                    "name": "E3",
                    "midi": 52,
                    "time": 326.6424059999971,
                    "velocity": 0.44881889763779526,
                    "duration": 0.16364850000002207
                },
                {
                    "name": "C4",
                    "midi": 60,
                    "time": 326.8060544999971,
                    "velocity": 0.3464566929133858,
                    "duration": 0.16364850000002207
                },
                {
                    "name": "F3",
                    "midi": 53,
                    "time": 326.96970299999714,
                    "velocity": 0.3543307086614173,
                    "duration": 0.16364850000002207
                },
                {
                    "name": "C4",
                    "midi": 60,
                    "time": 327.13335149999716,
                    "velocity": 0.28346456692913385,
                    "duration": 0.16364850000002207
                },
                {
                    "name": "G3",
                    "midi": 55,
                    "time": 327.2969999999972,
                    "velocity": 0.3858267716535433,
                    "duration": 0.16364850000002207
                },
                {
                    "name": "C4",
                    "midi": 60,
                    "time": 327.4606484999972,
                    "velocity": 0.33070866141732286,
                    "duration": 0.16364850000002207
                },
                {
                    "name": "G#3",
                    "midi": 56,
                    "time": 327.6242969999972,
                    "velocity": 0.4015748031496063,
                    "duration": 0.16364850000002207
                },
                {
                    "name": "C4",
                    "midi": 60,
                    "time": 327.78794549999725,
                    "velocity": 0.3464566929133858,
                    "duration": 0.16364850000002207
                },
                {
                    "name": "F3",
                    "midi": 53,
                    "time": 327.95159399999727,
                    "velocity": 0.3700787401574803,
                    "duration": 0.16364850000002207
                },
                {
                    "name": "C4",
                    "midi": 60,
                    "time": 328.1152424999973,
                    "velocity": 0.29133858267716534,
                    "duration": 0.16364850000002207
                },
                {
                    "name": "G3",
                    "midi": 55,
                    "time": 328.2788909999973,
                    "velocity": 0.3228346456692913,
                    "duration": 0.16364850000002207
                },
                {
                    "name": "C4",
                    "midi": 60,
                    "time": 328.44253949999734,
                    "velocity": 0.29133858267716534,
                    "duration": 0.16364850000002207
                },
                {
                    "name": "G#3",
                    "midi": 56,
                    "time": 328.60618799999736,
                    "velocity": 0.3228346456692913,
                    "duration": 0.16364850000002207
                },
                {
                    "name": "C4",
                    "midi": 60,
                    "time": 328.7698364999974,
                    "velocity": 0.29133858267716534,
                    "duration": 0.16364850000002207
                },
                {
                    "name": "G3",
                    "midi": 55,
                    "time": 328.9334849999974,
                    "velocity": 0.4015748031496063,
                    "duration": 0.16364850000002207
                },
                {
                    "name": "D#4",
                    "midi": 63,
                    "time": 329.0971334999974,
                    "velocity": 0.28346456692913385,
                    "duration": 0.16364850000002207
                },
                {
                    "name": "C4",
                    "midi": 60,
                    "time": 329.26078199999745,
                    "velocity": 0.3228346456692913,
                    "duration": 0.16364850000002207
                },
                {
                    "name": "D#4",
                    "midi": 63,
                    "time": 329.42443049999747,
                    "velocity": 0.28346456692913385,
                    "duration": 0.16364850000002207
                },
                {
                    "name": "G3",
                    "midi": 55,
                    "time": 329.5880789999975,
                    "velocity": 0.3228346456692913,
                    "duration": 0.16364850000002207
                },
                {
                    "name": "D#4",
                    "midi": 63,
                    "time": 329.7517274999975,
                    "velocity": 0.28346456692913385,
                    "duration": 0.16364850000002207
                },
                {
                    "name": "G3",
                    "midi": 55,
                    "time": 329.91537599999754,
                    "velocity": 0.3700787401574803,
                    "duration": 0.16364850000002207
                },
                {
                    "name": "D4",
                    "midi": 62,
                    "time": 330.07902449999756,
                    "velocity": 0.28346456692913385,
                    "duration": 0.16364850000002207
                },
                {
                    "name": "B3",
                    "midi": 59,
                    "time": 330.2426729999976,
                    "velocity": 0.33070866141732286,
                    "duration": 0.16364850000002207
                },
                {
                    "name": "D4",
                    "midi": 62,
                    "time": 330.4063214999976,
                    "velocity": 0.2677165354330709,
                    "duration": 0.16364850000002207
                },
                {
                    "name": "G3",
                    "midi": 55,
                    "time": 330.5699699999976,
                    "velocity": 0.31496062992125984,
                    "duration": 0.16364850000002207
                },
                {
                    "name": "D4",
                    "midi": 62,
                    "time": 330.73361849999765,
                    "velocity": 0.2755905511811024,
                    "duration": 0.16364850000002207
                },
                {
                    "name": "C3",
                    "midi": 48,
                    "time": 330.89726699999767,
                    "velocity": 0.47244094488188976,
                    "duration": 0.16364850000002207
                },
                {
                    "name": "G3",
                    "midi": 55,
                    "time": 331.0609154999977,
                    "velocity": 0.29133858267716534,
                    "duration": 0.16364850000002207
                },
                {
                    "name": "D#3",
                    "midi": 51,
                    "time": 331.2245639999977,
                    "velocity": 0.4094488188976378,
                    "duration": 0.16364850000002207
                },
                {
                    "name": "G3",
                    "midi": 55,
                    "time": 331.38821249999773,
                    "velocity": 0.28346456692913385,
                    "duration": 0.16364850000002207
                },
                {
                    "name": "D3",
                    "midi": 50,
                    "time": 331.56140716249774,
                    "velocity": 0.4094488188976378,
                    "duration": 0.16364849999996522
                },
                {
                    "name": "G3",
                    "midi": 55,
                    "time": 331.7155094999977,
                    "velocity": 0.36220472440944884,
                    "duration": 0.16364849999996522
                },
                {
                    "name": "C3",
                    "midi": 48,
                    "time": 331.8791579999977,
                    "velocity": 0.44881889763779526,
                    "duration": 0.16364850000002207
                },
                {
                    "name": "G3",
                    "midi": 55,
                    "time": 332.0428064999977,
                    "velocity": 0.36220472440944884,
                    "duration": 0.16364850000002207
                },
                {
                    "name": "D3",
                    "midi": 50,
                    "time": 332.20645499999773,
                    "velocity": 0.44881889763779526,
                    "duration": 0.16364850000002207
                },
                {
                    "name": "G3",
                    "midi": 55,
                    "time": 332.37010349999775,
                    "velocity": 0.3937007874015748,
                    "duration": 0.16364850000002207
                },
                {
                    "name": "D#3",
                    "midi": 51,
                    "time": 332.5337519999978,
                    "velocity": 0.48031496062992124,
                    "duration": 0.16364850000002207
                },
                {
                    "name": "G3",
                    "midi": 55,
                    "time": 332.6974004999978,
                    "velocity": 0.4409448818897638,
                    "duration": 0.16364850000002207
                },
                {
                    "name": "D3",
                    "midi": 50,
                    "time": 332.8610489999978,
                    "velocity": 0.5196850393700787,
                    "duration": 0.16364850000002207
                },
                {
                    "name": "G3",
                    "midi": 55,
                    "time": 333.02469749999784,
                    "velocity": 0.33858267716535434,
                    "duration": 0.16364850000002207
                },
                {
                    "name": "D#3",
                    "midi": 51,
                    "time": 333.18834599999786,
                    "velocity": 0.4645669291338583,
                    "duration": 0.16364850000002207
                },
                {
                    "name": "G3",
                    "midi": 55,
                    "time": 333.3519944999979,
                    "velocity": 0.4015748031496063,
                    "duration": 0.16364850000002207
                },
                {
                    "name": "F3",
                    "midi": 53,
                    "time": 333.5156429999979,
                    "velocity": 0.47244094488188976,
                    "duration": 0.16364850000002207
                },
                {
                    "name": "G3",
                    "midi": 55,
                    "time": 333.67929149999793,
                    "velocity": 0.41732283464566927,
                    "duration": 0.16364850000002207
                },
                {
                    "name": "D3",
                    "midi": 50,
                    "time": 333.84293999999795,
                    "velocity": 0.49606299212598426,
                    "duration": 0.16364850000002207
                },
                {
                    "name": "G3",
                    "midi": 55,
                    "time": 334.006588499998,
                    "velocity": 0.3464566929133858,
                    "duration": 0.16364850000002207
                },
                {
                    "name": "D#3",
                    "midi": 51,
                    "time": 334.170236999998,
                    "velocity": 0.4251968503937008,
                    "duration": 0.16364850000002207
                },
                {
                    "name": "G3",
                    "midi": 55,
                    "time": 334.333885499998,
                    "velocity": 0.3464566929133858,
                    "duration": 0.16364850000002207
                },
                {
                    "name": "F3",
                    "midi": 53,
                    "time": 334.49753399999804,
                    "velocity": 0.4251968503937008,
                    "duration": 0.16364850000002207
                },
                {
                    "name": "G3",
                    "midi": 55,
                    "time": 334.66118249999806,
                    "velocity": 0.3464566929133858,
                    "duration": 0.16364850000002207
                },
                {
                    "name": "B2",
                    "midi": 47,
                    "time": 334.8248309999981,
                    "velocity": 0.4251968503937008,
                    "duration": 0.16364850000002207
                },
                {
                    "name": "G3",
                    "midi": 55,
                    "time": 334.9884794999981,
                    "velocity": 0.29133858267716534,
                    "duration": 0.16364850000002207
                },
                {
                    "name": "D3",
                    "midi": 50,
                    "time": 335.15212799999813,
                    "velocity": 0.3464566929133858,
                    "duration": 0.16364850000002207
                },
                {
                    "name": "G3",
                    "midi": 55,
                    "time": 335.31577649999815,
                    "velocity": 0.28346456692913385,
                    "duration": 0.16364850000002207
                },
                {
                    "name": "C3",
                    "midi": 48,
                    "time": 335.4794249999982,
                    "velocity": 0.3464566929133858,
                    "duration": 0.16364850000002207
                },
                {
                    "name": "G3",
                    "midi": 55,
                    "time": 335.6430734999982,
                    "velocity": 0.31496062992125984,
                    "duration": 0.16364850000002207
                },
                {
                    "name": "B2",
                    "midi": 47,
                    "time": 335.8067219999982,
                    "velocity": 0.4015748031496063,
                    "duration": 0.16364850000002207
                },
                {
                    "name": "G3",
                    "midi": 55,
                    "time": 335.97037049999824,
                    "velocity": 0.3464566929133858,
                    "duration": 0.16364850000002207
                },
                {
                    "name": "C3",
                    "midi": 48,
                    "time": 336.13401899999826,
                    "velocity": 0.44881889763779526,
                    "duration": 0.16364850000002207
                },
                {
                    "name": "G3",
                    "midi": 55,
                    "time": 336.2976674999983,
                    "velocity": 0.4094488188976378,
                    "duration": 0.16364850000002207
                },
                {
                    "name": "D3",
                    "midi": 50,
                    "time": 336.4613159999983,
                    "velocity": 0.48031496062992124,
                    "duration": 0.16364850000002207
                },
                {
                    "name": "G3",
                    "midi": 55,
                    "time": 336.6249644999983,
                    "velocity": 0.36220472440944884,
                    "duration": 0.16364850000002207
                },
                {
                    "name": "C3",
                    "midi": 48,
                    "time": 336.78861299999835,
                    "velocity": 0.5433070866141733,
                    "duration": 0.16364850000002207
                },
                {
                    "name": "G3",
                    "midi": 55,
                    "time": 336.9522614999984,
                    "velocity": 0.41732283464566927,
                    "duration": 0.16364850000002207
                },
                {
                    "name": "D3",
                    "midi": 50,
                    "time": 337.1159099999984,
                    "velocity": 0.47244094488188976,
                    "duration": 0.16364850000002207
                },
                {
                    "name": "G3",
                    "midi": 55,
                    "time": 337.2795584999984,
                    "velocity": 0.3464566929133858,
                    "duration": 0.16364850000002207
                },
                {
                    "name": "D#3",
                    "midi": 51,
                    "time": 337.44320699999844,
                    "velocity": 0.4251968503937008,
                    "duration": 0.16364850000002207
                },
                {
                    "name": "G3",
                    "midi": 55,
                    "time": 337.60685549999846,
                    "velocity": 0.3464566929133858,
                    "duration": 0.16364850000002207
                },
                {
                    "name": "C3",
                    "midi": 48,
                    "time": 337.7705039999985,
                    "velocity": 0.4094488188976378,
                    "duration": 0.16364850000002207
                },
                {
                    "name": "G3",
                    "midi": 55,
                    "time": 337.9341524999985,
                    "velocity": 0.3464566929133858,
                    "duration": 0.16364850000002207
                },
                {
                    "name": "D3",
                    "midi": 50,
                    "time": 338.0978009999985,
                    "velocity": 0.4251968503937008,
                    "duration": 0.16364850000002207
                },
                {
                    "name": "G3",
                    "midi": 55,
                    "time": 338.26144949999855,
                    "velocity": 0.3464566929133858,
                    "duration": 0.16364850000002207
                },
                {
                    "name": "D#3",
                    "midi": 51,
                    "time": 338.42509799999857,
                    "velocity": 0.4251968503937008,
                    "duration": 0.16364850000002207
                },
                {
                    "name": "G3",
                    "midi": 55,
                    "time": 338.5887464999986,
                    "velocity": 0.3464566929133858,
                    "duration": 0.16364850000002207
                },
                {
                    "name": "C3",
                    "midi": 48,
                    "time": 338.7523949999986,
                    "velocity": 0.4251968503937008,
                    "duration": 0.16364850000002207
                },
                {
                    "name": "G3",
                    "midi": 55,
                    "time": 338.91604349999864,
                    "velocity": 0.29133858267716534,
                    "duration": 0.16364850000002207
                },
                {
                    "name": "D#3",
                    "midi": 51,
                    "time": 339.07969199999866,
                    "velocity": 0.3464566929133858,
                    "duration": 0.16364850000002207
                },
                {
                    "name": "G3",
                    "midi": 55,
                    "time": 339.2433404999987,
                    "velocity": 0.28346456692913385,
                    "duration": 0.16364850000002207
                },
                {
                    "name": "C3",
                    "midi": 48,
                    "time": 339.4069889999987,
                    "velocity": 0.3464566929133858,
                    "duration": 0.16364850000002207
                },
                {
                    "name": "G3",
                    "midi": 55,
                    "time": 339.5706374999987,
                    "velocity": 0.31496062992125984,
                    "duration": 0.16364850000002207
                },
                {
                    "name": "C3",
                    "midi": 48,
                    "time": 339.73428599999875,
                    "velocity": 0.4015748031496063,
                    "duration": 0.16364850000002207
                },
                {
                    "name": "G3",
                    "midi": 55,
                    "time": 339.89793449999877,
                    "velocity": 0.33070866141732286,
                    "duration": 0.16364850000002207
                },
                {
                    "name": "D#3",
                    "midi": 51,
                    "time": 340.0615829999988,
                    "velocity": 0.4015748031496063,
                    "duration": 0.16364850000002207
                },
                {
                    "name": "G3",
                    "midi": 55,
                    "time": 340.2252314999988,
                    "velocity": 0.33070866141732286,
                    "duration": 0.16364850000002207
                },
                {
                    "name": "C3",
                    "midi": 48,
                    "time": 340.38887999999884,
                    "velocity": 0.47244094488188976,
                    "duration": 0.16364850000002207
                },
                {
                    "name": "G3",
                    "midi": 55,
                    "time": 340.55252849999886,
                    "velocity": 0.41732283464566927,
                    "duration": 0.16364850000002207
                },
                {
                    "name": "D3",
                    "midi": 50,
                    "time": 340.7161769999989,
                    "velocity": 0.5196850393700787,
                    "duration": 0.16364850000002207
                },
                {
                    "name": "G3",
                    "midi": 55,
                    "time": 340.8798254999989,
                    "velocity": 0.33858267716535434,
                    "duration": 0.16364850000002207
                },
                {
                    "name": "F3",
                    "midi": 53,
                    "time": 341.0434739999989,
                    "velocity": 0.4251968503937008,
                    "duration": 0.16364850000002207
                },
                {
                    "name": "G3",
                    "midi": 55,
                    "time": 341.20712249999895,
                    "velocity": 0.3543307086614173,
                    "duration": 0.16364850000002207
                },
                {
                    "name": "D3",
                    "midi": 50,
                    "time": 341.37077099999897,
                    "velocity": 0.4251968503937008,
                    "duration": 0.16364850000002207
                },
                {
                    "name": "G3",
                    "midi": 55,
                    "time": 341.534419499999,
                    "velocity": 0.3464566929133858,
                    "duration": 0.16364850000002207
                },
                {
                    "name": "D3",
                    "midi": 50,
                    "time": 341.698067999999,
                    "velocity": 0.4094488188976378,
                    "duration": 0.16364850000002207
                },
                {
                    "name": "G3",
                    "midi": 55,
                    "time": 341.86171649999903,
                    "velocity": 0.3464566929133858,
                    "duration": 0.16364850000002207
                },
                {
                    "name": "F3",
                    "midi": 53,
                    "time": 342.02536499999906,
                    "velocity": 0.4251968503937008,
                    "duration": 0.16364850000002207
                },
                {
                    "name": "G3",
                    "midi": 55,
                    "time": 342.1890134999991,
                    "velocity": 0.3464566929133858,
                    "duration": 0.16364850000002207
                },
                {
                    "name": "D3",
                    "midi": 50,
                    "time": 342.3526619999991,
                    "velocity": 0.4251968503937008,
                    "duration": 0.16364850000002207
                },
                {
                    "name": "G3",
                    "midi": 55,
                    "time": 342.5163104999991,
                    "velocity": 0.3464566929133858,
                    "duration": 0.16228476250000767
                },
                {
                    "name": "B2",
                    "midi": 47,
                    "time": 342.67995899999914,
                    "velocity": 0.4251968503937008,
                    "duration": 0.16364850000002207
                },
                {
                    "name": "G3",
                    "midi": 55,
                    "time": 342.84360749999917,
                    "velocity": 0.29133858267716534,
                    "duration": 0.16364850000002207
                },
                {
                    "name": "D3",
                    "midi": 50,
                    "time": 343.0072559999992,
                    "velocity": 0.3858267716535433,
                    "duration": 0.16364850000002207
                },
                {
                    "name": "G3",
                    "midi": 55,
                    "time": 343.1709044999992,
                    "velocity": 0.28346456692913385,
                    "duration": 0.16364850000002207
                },
                {
                    "name": "B2",
                    "midi": 47,
                    "time": 343.33455299999923,
                    "velocity": 0.3937007874015748,
                    "duration": 0.16364850000002207
                },
                {
                    "name": "G3",
                    "midi": 55,
                    "time": 343.49820149999925,
                    "velocity": 0.31496062992125984,
                    "duration": 0.16364850000002207
                },
                {
                    "name": "B2",
                    "midi": 47,
                    "time": 343.6618499999993,
                    "velocity": 0.4566929133858268,
                    "duration": 0.16364850000002207
                },
                {
                    "name": "G3",
                    "midi": 55,
                    "time": 343.8254984999993,
                    "velocity": 0.3543307086614173,
                    "duration": 0.16364850000002207
                },
                {
                    "name": "D3",
                    "midi": 50,
                    "time": 343.9891469999993,
                    "velocity": 0.4015748031496063,
                    "duration": 0.16364850000002207
                },
                {
                    "name": "G3",
                    "midi": 55,
                    "time": 344.15279549999934,
                    "velocity": 0.3543307086614173,
                    "duration": 0.16364850000002207
                },
                {
                    "name": "B2",
                    "midi": 47,
                    "time": 344.31644399999936,
                    "velocity": 0.4409448818897638,
                    "duration": 0.16364850000002207
                },
                {
                    "name": "G3",
                    "midi": 55,
                    "time": 344.4800924999994,
                    "velocity": 0.29133858267716534,
                    "duration": 0.16364850000002207
                },
                {
                    "name": "C3",
                    "midi": 48,
                    "time": 344.80738949999943,
                    "velocity": 0.33858267716535434,
                    "duration": 0.16364850000002207
                },
                {
                    "name": "B2",
                    "midi": 47,
                    "time": 344.97103799999945,
                    "velocity": 0.48031496062992124,
                    "duration": 0.16364850000002207
                },
                {
                    "name": "C3",
                    "midi": 48,
                    "time": 345.1346864999995,
                    "velocity": 0.3464566929133858,
                    "duration": 0.16364850000002207
                },
                {
                    "name": "B2",
                    "midi": 47,
                    "time": 345.2983349999995,
                    "velocity": 0.49606299212598426,
                    "duration": 0.16364850000002207
                },
                {
                    "name": "C3",
                    "midi": 48,
                    "time": 345.4619834999995,
                    "velocity": 0.3937007874015748,
                    "duration": 0.16364850000002207
                },
                {
                    "name": "E2",
                    "midi": 40,
                    "time": 345.62563199999954,
                    "velocity": 0.5275590551181102,
                    "duration": 0.16364850000002207
                },
                {
                    "name": "C3",
                    "midi": 48,
                    "time": 345.78928049999956,
                    "velocity": 0.4094488188976378,
                    "duration": 0.16364850000002207
                },
                {
                    "name": "F2",
                    "midi": 41,
                    "time": 345.9529289999996,
                    "velocity": 0.44881889763779526,
                    "duration": 0.16364850000002207
                },
                {
                    "name": "C3",
                    "midi": 48,
                    "time": 346.1165774999996,
                    "velocity": 0.3700787401574803,
                    "duration": 0.16364850000002207
                },
                {
                    "name": "G2",
                    "midi": 43,
                    "time": 346.28022599999963,
                    "velocity": 0.48031496062992124,
                    "duration": 0.16364850000002207
                },
                {
                    "name": "C3",
                    "midi": 48,
                    "time": 346.44387449999965,
                    "velocity": 0.3464566929133858,
                    "duration": 0.16364850000002207
                },
                {
                    "name": "F2",
                    "midi": 41,
                    "time": 346.6075229999997,
                    "velocity": 0.5118110236220472,
                    "duration": 0.16364850000002207
                },
                {
                    "name": "C3",
                    "midi": 48,
                    "time": 346.7711714999997,
                    "velocity": 0.3543307086614173,
                    "duration": 0.16364850000002207
                },
                {
                    "name": "G2",
                    "midi": 43,
                    "time": 346.9348199999997,
                    "velocity": 0.44881889763779526,
                    "duration": 0.16364850000002207
                },
                {
                    "name": "C3",
                    "midi": 48,
                    "time": 347.09846849999974,
                    "velocity": 0.3779527559055118,
                    "duration": 0.16364850000002207
                },
                {
                    "name": "G#2",
                    "midi": 44,
                    "time": 347.26211699999976,
                    "velocity": 0.4409448818897638,
                    "duration": 0.16364850000002207
                },
                {
                    "name": "C3",
                    "midi": 48,
                    "time": 347.4257654999998,
                    "velocity": 0.3937007874015748,
                    "duration": 0.16364850000002207
                },
                {
                    "name": "F#2",
                    "midi": 42,
                    "time": 347.5894139999998,
                    "velocity": 0.5275590551181102,
                    "duration": 0.16364850000002207
                },
                {
                    "name": "C3",
                    "midi": 48,
                    "time": 347.7530624999998,
                    "velocity": 0.4015748031496063,
                    "duration": 0.16364850000002207
                },
                {
                    "name": "G2",
                    "midi": 43,
                    "time": 347.91671099999985,
                    "velocity": 0.4566929133858268,
                    "duration": 0.16364850000002207
                },
                {
                    "name": "C3",
                    "midi": 48,
                    "time": 348.0803594999999,
                    "velocity": 0.3858267716535433,
                    "duration": 0.16364850000002207
                },
                {
                    "name": "A2",
                    "midi": 45,
                    "time": 348.2440079999999,
                    "velocity": 0.47244094488188976,
                    "duration": 0.16364850000002207
                },
                {
                    "name": "C3",
                    "midi": 48,
                    "time": 348.4076564999999,
                    "velocity": 0.3464566929133858,
                    "duration": 0.16364850000002207
                },
                {
                    "name": "G2",
                    "midi": 43,
                    "time": 348.57130499999994,
                    "velocity": 0.5039370078740157,
                    "duration": 0.16364850000002207
                },
                {
                    "name": "D#3",
                    "midi": 51,
                    "time": 348.73495349999996,
                    "velocity": 0.4015748031496063,
                    "duration": 0.16364850000002207
                },
                {
                    "name": "C3",
                    "midi": 48,
                    "time": 348.898602,
                    "velocity": 0.4645669291338583,
                    "duration": 0.16364850000002207
                },
                {
                    "name": "D#3",
                    "midi": 51,
                    "time": 349.0622505,
                    "velocity": 0.3937007874015748,
                    "duration": 0.16364850000002207
                },
                {
                    "name": "G2",
                    "midi": 43,
                    "time": 349.225899,
                    "velocity": 0.44881889763779526,
                    "duration": 0.16364850000002207
                },
                {
                    "name": "D#3",
                    "midi": 51,
                    "time": 349.38954750000005,
                    "velocity": 0.36220472440944884,
                    "duration": 0.16364850000002207
                },
                {
                    "name": "G2",
                    "midi": 43,
                    "time": 349.55319600000007,
                    "velocity": 0.5039370078740157,
                    "duration": 0.16364850000002207
                },
                {
                    "name": "D3",
                    "midi": 50,
                    "time": 349.7168445000001,
                    "velocity": 0.36220472440944884,
                    "duration": 0.16364850000002207
                },
                {
                    "name": "B2",
                    "midi": 47,
                    "time": 349.8804930000001,
                    "velocity": 0.4566929133858268,
                    "duration": 0.16364850000002207
                },
                {
                    "name": "D3",
                    "midi": 50,
                    "time": 350.04414150000014,
                    "velocity": 0.3700787401574803,
                    "duration": 0.16364850000002207
                },
                {
                    "name": "G2",
                    "midi": 43,
                    "time": 350.20779000000016,
                    "velocity": 0.4409448818897638,
                    "duration": 0.16364850000002207
                },
                {
                    "name": "D3",
                    "midi": 50,
                    "time": 350.3714385000002,
                    "velocity": 0.36220472440944884,
                    "duration": 0.16364850000002207
                },
                {
                    "name": "C2",
                    "midi": 36,
                    "time": 350.5350870000002,
                    "velocity": 0.5039370078740157,
                    "duration": 0.3272969999999873
                },
                {
                    "name": "C3",
                    "midi": 48,
                    "time": 350.5350870000002,
                    "velocity": 0.5039370078740157,
                    "duration": 0.3272969999999873
                },
                {
                    "name": "D#2",
                    "midi": 39,
                    "time": 352.4988690000002,
                    "velocity": 0.5275590551181102,
                    "duration": 0.16364850000002207
                },
                {
                    "name": "C3",
                    "midi": 48,
                    "time": 352.6625175000002,
                    "velocity": 0.3543307086614173,
                    "duration": 0.16364850000002207
                },
                {
                    "name": "F2",
                    "midi": 41,
                    "time": 352.8261660000002,
                    "velocity": 0.3937007874015748,
                    "duration": 0.16364850000002207
                },
                {
                    "name": "C3",
                    "midi": 48,
                    "time": 352.98981450000025,
                    "velocity": 0.3700787401574803,
                    "duration": 0.16364850000002207
                },
                {
                    "name": "G2",
                    "midi": 43,
                    "time": 353.1534630000003,
                    "velocity": 0.4409448818897638,
                    "duration": 0.16364850000002207
                },
                {
                    "name": "C3",
                    "midi": 48,
                    "time": 353.3171115000003,
                    "velocity": 0.3937007874015748,
                    "duration": 0.16364850000002207
                },
                {
                    "name": "E2",
                    "midi": 40,
                    "time": 353.4807600000003,
                    "velocity": 0.5275590551181102,
                    "duration": 0.16364850000002207
                },
                {
                    "name": "C3",
                    "midi": 48,
                    "time": 353.64440850000034,
                    "velocity": 0.3543307086614173,
                    "duration": 0.16364850000002207
                },
                {
                    "name": "F2",
                    "midi": 41,
                    "time": 353.80805700000036,
                    "velocity": 0.48031496062992124,
                    "duration": 0.16364850000002207
                },
                {
                    "name": "C3",
                    "midi": 48,
                    "time": 353.9717055000004,
                    "velocity": 0.3700787401574803,
                    "duration": 0.16364850000002207
                },
                {
                    "name": "G2",
                    "midi": 43,
                    "time": 354.1353540000004,
                    "velocity": 0.47244094488188976,
                    "duration": 0.16364850000002207
                },
                {
                    "name": "C3",
                    "midi": 48,
                    "time": 354.2990025000004,
                    "velocity": 0.3464566929133858,
                    "duration": 0.16364850000002207
                },
                {
                    "name": "F2",
                    "midi": 41,
                    "time": 354.46265100000045,
                    "velocity": 0.5118110236220472,
                    "duration": 0.16364850000002207
                },
                {
                    "name": "C3",
                    "midi": 48,
                    "time": 354.62629950000047,
                    "velocity": 0.3543307086614173,
                    "duration": 0.16364850000002207
                },
                {
                    "name": "G2",
                    "midi": 43,
                    "time": 354.7899480000005,
                    "velocity": 0.44881889763779526,
                    "duration": 0.16364850000002207
                },
                {
                    "name": "C3",
                    "midi": 48,
                    "time": 354.9535965000005,
                    "velocity": 0.33070866141732286,
                    "duration": 0.16364850000002207
                },
                {
                    "name": "G#2",
                    "midi": 44,
                    "time": 355.11724500000054,
                    "velocity": 0.4566929133858268,
                    "duration": 0.16364850000002207
                },
                {
                    "name": "C3",
                    "midi": 48,
                    "time": 355.28089350000056,
                    "velocity": 0.3543307086614173,
                    "duration": 0.16364850000002207
                },
                {
                    "name": "F#2",
                    "midi": 42,
                    "time": 355.4445420000006,
                    "velocity": 0.5275590551181102,
                    "duration": 0.16364850000002207
                },
                {
                    "name": "C3",
                    "midi": 48,
                    "time": 355.6081905000006,
                    "velocity": 0.4015748031496063,
                    "duration": 0.16364850000002207
                },
                {
                    "name": "G2",
                    "midi": 43,
                    "time": 355.7718390000006,
                    "velocity": 0.4566929133858268,
                    "duration": 0.16364850000002207
                },
                {
                    "name": "C3",
                    "midi": 48,
                    "time": 355.93548750000065,
                    "velocity": 0.3700787401574803,
                    "duration": 0.16364850000002207
                },
                {
                    "name": "A2",
                    "midi": 45,
                    "time": 356.09913600000067,
                    "velocity": 0.4566929133858268,
                    "duration": 0.16364850000002207
                },
                {
                    "name": "C3",
                    "midi": 48,
                    "time": 356.2627845000007,
                    "velocity": 0.3464566929133858,
                    "duration": 0.16364850000002207
                },
                {
                    "name": "G2",
                    "midi": 43,
                    "time": 356.4264330000007,
                    "velocity": 0.5275590551181102,
                    "duration": 0.16364850000002207
                },
                {
                    "name": "C3",
                    "midi": 48,
                    "time": 356.59008150000074,
                    "velocity": 0.4015748031496063,
                    "duration": 0.16364850000002207
                },
                {
                    "name": "B2",
                    "midi": 47,
                    "time": 356.75373000000076,
                    "velocity": 0.44881889763779526,
                    "duration": 0.16364850000002207
                },
                {
                    "name": "C3",
                    "midi": 48,
                    "time": 356.9173785000008,
                    "velocity": 0.3779527559055118,
                    "duration": 0.16364850000002207
                },
                {
                    "name": "G2",
                    "midi": 43,
                    "time": 357.0810270000008,
                    "velocity": 0.48031496062992124,
                    "duration": 0.16364850000002207
                },
                {
                    "name": "C3",
                    "midi": 48,
                    "time": 357.2446755000008,
                    "velocity": 0.3937007874015748,
                    "duration": 0.16364850000002207
                },
                {
                    "name": "G#2",
                    "midi": 44,
                    "time": 357.40832400000085,
                    "velocity": 0.5590551181102362,
                    "duration": 0.16364850000002207
                },
                {
                    "name": "C3",
                    "midi": 48,
                    "time": 357.57197250000087,
                    "velocity": 0.4409448818897638,
                    "duration": 0.16364850000002207
                },
                {
                    "name": "B2",
                    "midi": 47,
                    "time": 357.7356210000009,
                    "velocity": 0.5039370078740157,
                    "duration": 0.16364850000002207
                },
                {
                    "name": "C3",
                    "midi": 48,
                    "time": 357.8992695000009,
                    "velocity": 0.4330708661417323,
                    "duration": 0.16364850000002207
                },
                {
                    "name": "F#2",
                    "midi": 42,
                    "time": 358.06291800000093,
                    "velocity": 0.5118110236220472,
                    "duration": 0.16364850000002207
                },
                {
                    "name": "C3",
                    "midi": 48,
                    "time": 358.22656650000096,
                    "velocity": 0.4251968503937008,
                    "duration": 0.16364850000002207
                },
                {
                    "name": "G2",
                    "midi": 43,
                    "time": 358.390215000001,
                    "velocity": 0.6062992125984252,
                    "duration": 0.16364850000002207
                },
                {
                    "name": "C3",
                    "midi": 48,
                    "time": 358.553863500001,
                    "velocity": 0.4566929133858268,
                    "duration": 0.16364850000002207
                },
                {
                    "name": "B2",
                    "midi": 47,
                    "time": 358.717512000001,
                    "velocity": 0.5354330708661418,
                    "duration": 0.16364850000002207
                },
                {
                    "name": "C3",
                    "midi": 48,
                    "time": 358.88116050000104,
                    "velocity": 0.4251968503937008,
                    "duration": 0.16364850000002207
                },
                {
                    "name": "E2",
                    "midi": 40,
                    "time": 359.04480900000107,
                    "velocity": 0.5118110236220472,
                    "duration": 0.16364850000002207
                },
                {
                    "name": "C3",
                    "midi": 48,
                    "time": 359.2084575000011,
                    "velocity": 0.3937007874015748,
                    "duration": 0.16364850000002207
                },
                {
                    "name": "F2",
                    "midi": 41,
                    "time": 359.3721060000011,
                    "velocity": 0.6062992125984252,
                    "duration": 0.16364850000002207
                },
                {
                    "name": "C3",
                    "midi": 48,
                    "time": 359.53575450000113,
                    "velocity": 0.4015748031496063,
                    "duration": 0.16364850000002207
                },
                {
                    "name": "G#2",
                    "midi": 44,
                    "time": 359.69940300000115,
                    "velocity": 0.49606299212598426,
                    "duration": 0.16364850000002207
                },
                {
                    "name": "C3",
                    "midi": 48,
                    "time": 359.8630515000012,
                    "velocity": 0.4566929133858268,
                    "duration": 0.16364850000002207
                },
                {
                    "name": "F#2",
                    "midi": 42,
                    "time": 360.0267000000012,
                    "velocity": 0.5590551181102362,
                    "duration": 0.16364850000002207
                },
                {
                    "name": "C3",
                    "midi": 48,
                    "time": 360.1903485000012,
                    "velocity": 0.5118110236220472,
                    "duration": 0.16364850000002207
                },
                {
                    "name": "G2",
                    "midi": 43,
                    "time": 360.35399700000124,
                    "velocity": 0.6456692913385826,
                    "duration": 0.3272969999999873
                },
                {
                    "name": "G3",
                    "midi": 55,
                    "time": 360.68129400000123,
                    "velocity": 0.6062992125984252,
                    "duration": 0.08182425000001103
                },
                {
                    "name": "C4",
                    "midi": 60,
                    "time": 360.68129400000123,
                    "velocity": 0.6062992125984252,
                    "duration": 0.08182425000001103
                },
                {
                    "name": "D#4",
                    "midi": 63,
                    "time": 360.68129400000123,
                    "velocity": 0.6850393700787402,
                    "duration": 0.08182425000001103
                },
                {
                    "name": "C4",
                    "midi": 60,
                    "time": 361.66318500000125,
                    "velocity": 0.6062992125984252,
                    "duration": 0.08182425000001103
                },
                {
                    "name": "G#3",
                    "midi": 56,
                    "time": 361.66318500000125,
                    "velocity": 0.6062992125984252,
                    "duration": 0.08182425000001103
                },
                {
                    "name": "D#4",
                    "midi": 63,
                    "time": 361.66318500000125,
                    "velocity": 0.6850393700787402,
                    "duration": 0.08182425000001103
                },
                {
                    "name": "D#4",
                    "midi": 63,
                    "time": 362.64507600000127,
                    "velocity": 0.6850393700787402,
                    "duration": 0.08182425000001103
                },
                {
                    "name": "G3",
                    "midi": 55,
                    "time": 362.64507600000127,
                    "velocity": 0.6062992125984252,
                    "duration": 0.08182425000001103
                },
                {
                    "name": "C4",
                    "midi": 60,
                    "time": 362.64507600000127,
                    "velocity": 0.6062992125984252,
                    "duration": 0.08182425000001103
                },
                {
                    "name": "D#4",
                    "midi": 63,
                    "time": 363.6269670000013,
                    "velocity": 0.6850393700787402,
                    "duration": 0.08182425000001103
                },
                {
                    "name": "C4",
                    "midi": 60,
                    "time": 363.6269670000013,
                    "velocity": 0.6062992125984252,
                    "duration": 0.08182425000001103
                },
                {
                    "name": "F#3",
                    "midi": 54,
                    "time": 363.6269670000013,
                    "velocity": 0.6062992125984252,
                    "duration": 0.08182425000001103
                },
                {
                    "name": "G3",
                    "midi": 55,
                    "time": 364.6088580000013,
                    "velocity": 0.6062992125984252,
                    "duration": 0.08182425000001103
                },
                {
                    "name": "D#4",
                    "midi": 63,
                    "time": 364.6088580000013,
                    "velocity": 0.6850393700787402,
                    "duration": 0.08182425000001103
                },
                {
                    "name": "C4",
                    "midi": 60,
                    "time": 364.6088580000013,
                    "velocity": 0.6062992125984252,
                    "duration": 0.08182425000001103
                },
                {
                    "name": "C4",
                    "midi": 60,
                    "time": 366.2453430000013,
                    "velocity": 0.6377952755905512,
                    "duration": 0.16364850000002207
                },
                {
                    "name": "G3",
                    "midi": 55,
                    "time": 366.4089915000013,
                    "velocity": 0.6062992125984252,
                    "duration": 0.12273637499998813
                },
                {
                    "name": "G3",
                    "midi": 55,
                    "time": 366.5726400000013,
                    "velocity": 0.6456692913385826,
                    "duration": 0.16364850000002207
                },
                {
                    "name": "D#3",
                    "midi": 51,
                    "time": 366.7362885000013,
                    "velocity": 0.6062992125984252,
                    "duration": 0.12273637499998813
                },
                {
                    "name": "D#3",
                    "midi": 51,
                    "time": 366.8999370000013,
                    "velocity": 0.6535433070866141,
                    "duration": 0.16364850000002207
                },
                {
                    "name": "C3",
                    "midi": 48,
                    "time": 367.0635855000013,
                    "velocity": 0.6062992125984252,
                    "duration": 0.12273637499998813
                },
                {
                    "name": "G2",
                    "midi": 43,
                    "time": 367.22723400000126,
                    "velocity": 0.7244094488188977,
                    "duration": 0.9818909999999619
                },
                {
                    "name": "G1",
                    "midi": 31,
                    "time": 367.22723400000126,
                    "velocity": 0.6141732283464567,
                    "duration": 0.9818909999999619
                },
                {
                    "name": "F3",
                    "midi": 53,
                    "time": 367.88182800000124,
                    "velocity": 0.5511811023622047,
                    "duration": 0.3272969999999873
                },
                {
                    "name": "D3",
                    "midi": 50,
                    "time": 367.88182800000124,
                    "velocity": 0.4645669291338583,
                    "duration": 0.3272969999999873
                },
                {
                    "name": "D#3",
                    "midi": 51,
                    "time": 368.2091250000012,
                    "velocity": 0.6220472440944882,
                    "duration": 0.3272969999999873
                },
                {
                    "name": "C2",
                    "midi": 36,
                    "time": 368.2091250000012,
                    "velocity": 0.5275590551181102,
                    "duration": 0.3272969999999873
                },
                {
                    "name": "G2",
                    "midi": 43,
                    "time": 368.5364220000012,
                    "velocity": 0.4015748031496063,
                    "duration": 1.6364849999999365
                },
                {
                    "name": "F#2",
                    "midi": 42,
                    "time": 368.8637190000012,
                    "velocity": 0.4015748031496063,
                    "duration": 0.3272969999999873
                },
                {
                    "name": "F2",
                    "midi": 41,
                    "time": 369.1910160000012,
                    "velocity": 0.4015748031496063,
                    "duration": 0.3272969999999873
                },
                {
                    "name": "D#2",
                    "midi": 39,
                    "time": 369.51831300000117,
                    "velocity": 0.3858267716535433,
                    "duration": 0.3272969999999873
                },
                {
                    "name": "D2",
                    "midi": 38,
                    "time": 369.84561000000116,
                    "velocity": 0.3858267716535433,
                    "duration": 0.3272969999999873
                },
                {
                    "name": "C2",
                    "midi": 36,
                    "time": 370.17290700000115,
                    "velocity": 0.4015748031496063,
                    "duration": 0.3272969999999873
                },
                {
                    "name": "D#2",
                    "midi": 39,
                    "time": 370.50020400000113,
                    "velocity": 0.3700787401574803,
                    "duration": 0.3272969999999873
                },
                {
                    "name": "G2",
                    "midi": 43,
                    "time": 370.8275010000011,
                    "velocity": 0.3700787401574803,
                    "duration": 0.3272969999999873
                },
                {
                    "name": "G1",
                    "midi": 31,
                    "time": 371.1547980000011,
                    "velocity": 0.4015748031496063,
                    "duration": 0.3272969999999873
                },
                {
                    "name": "D2",
                    "midi": 38,
                    "time": 371.4820950000011,
                    "velocity": 0.3779527559055118,
                    "duration": 0.3272969999999873
                },
                {
                    "name": "G2",
                    "midi": 43,
                    "time": 371.8093920000011,
                    "velocity": 0.3779527559055118,
                    "duration": 0.3272969999999873
                },
                {
                    "name": "C2",
                    "midi": 36,
                    "time": 372.13668900000107,
                    "velocity": 0.5275590551181102,
                    "duration": 0.3272969999999873
                },
                {
                    "name": "G2",
                    "midi": 43,
                    "time": 372.46398600000106,
                    "velocity": 0.4015748031496063,
                    "duration": 1.6364849999999365
                },
                {
                    "name": "F#2",
                    "midi": 42,
                    "time": 372.79128300000104,
                    "velocity": 0.4015748031496063,
                    "duration": 0.3272969999999873
                },
                {
                    "name": "F2",
                    "midi": 41,
                    "time": 373.11858000000103,
                    "velocity": 0.4015748031496063,
                    "duration": 0.3272969999999873
                },
                {
                    "name": "D#2",
                    "midi": 39,
                    "time": 373.445877000001,
                    "velocity": 0.3858267716535433,
                    "duration": 0.3272969999999873
                },
                {
                    "name": "D2",
                    "midi": 38,
                    "time": 373.773174000001,
                    "velocity": 0.3858267716535433,
                    "duration": 0.3272969999999873
                },
                {
                    "name": "C2",
                    "midi": 36,
                    "time": 374.100471000001,
                    "velocity": 0.4015748031496063,
                    "duration": 0.3272969999999873
                },
                {
                    "name": "D#2",
                    "midi": 39,
                    "time": 374.427768000001,
                    "velocity": 0.3700787401574803,
                    "duration": 0.3272969999999873
                },
                {
                    "name": "G2",
                    "midi": 43,
                    "time": 374.75506500000097,
                    "velocity": 0.3700787401574803,
                    "duration": 0.3272969999999873
                },
                {
                    "name": "G1",
                    "midi": 31,
                    "time": 375.08236200000096,
                    "velocity": 0.4015748031496063,
                    "duration": 0.3272969999999873
                },
                {
                    "name": "D2",
                    "midi": 38,
                    "time": 375.40965900000094,
                    "velocity": 0.3779527559055118,
                    "duration": 0.3272969999999873
                },
                {
                    "name": "G2",
                    "midi": 43,
                    "time": 375.73695600000093,
                    "velocity": 0.3779527559055118,
                    "duration": 0.3272969999999873
                },
                {
                    "name": "C2",
                    "midi": 36,
                    "time": 376.0642530000009,
                    "velocity": 0.4015748031496063,
                    "duration": 0.3272969999999873
                },
                {
                    "name": "D#2",
                    "midi": 39,
                    "time": 376.3915500000009,
                    "velocity": 0.3700787401574803,
                    "duration": 0.3272969999999873
                },
                {
                    "name": "G2",
                    "midi": 43,
                    "time": 376.7188470000009,
                    "velocity": 0.3700787401574803,
                    "duration": 0.3272969999999873
                },
                {
                    "name": "G1",
                    "midi": 31,
                    "time": 377.0461440000009,
                    "velocity": 0.4015748031496063,
                    "duration": 0.3272969999999873
                },
                {
                    "name": "D2",
                    "midi": 38,
                    "time": 377.37344100000087,
                    "velocity": 0.3779527559055118,
                    "duration": 0.3272969999999873
                },
                {
                    "name": "G2",
                    "midi": 43,
                    "time": 377.70073800000085,
                    "velocity": 0.3779527559055118,
                    "duration": 0.3272969999999873
                },
                {
                    "name": "C2",
                    "midi": 36,
                    "time": 378.02803500000084,
                    "velocity": 0.4015748031496063,
                    "duration": 0.3272969999999873
                },
                {
                    "name": "G1",
                    "midi": 31,
                    "time": 379.0099260000008,
                    "velocity": 0.47244094488188976,
                    "duration": 0.3272969999999873
                },
                {
                    "name": "B1",
                    "midi": 35,
                    "time": 379.0099260000008,
                    "velocity": 0.47244094488188976,
                    "duration": 0.3272969999999873
                },
                {
                    "name": "D2",
                    "midi": 38,
                    "time": 379.0099260000008,
                    "velocity": 0.47244094488188976,
                    "duration": 0.3272969999999873
                },
                {
                    "name": "G2",
                    "midi": 43,
                    "time": 379.0099260000008,
                    "velocity": 0.5590551181102362,
                    "duration": 0.3272969999999873
                },
                {
                    "name": "C2",
                    "midi": 36,
                    "time": 379.99181700000076,
                    "velocity": 0.47244094488188976,
                    "duration": 0.3272969999999873
                },
                {
                    "name": "D#2",
                    "midi": 39,
                    "time": 379.99181700000076,
                    "velocity": 0.47244094488188976,
                    "duration": 0.3272969999999873
                },
                {
                    "name": "G2",
                    "midi": 43,
                    "time": 379.99181700000076,
                    "velocity": 0.47244094488188976,
                    "duration": 0.3272969999999873
                },
                {
                    "name": "C3",
                    "midi": 48,
                    "time": 379.99181700000076,
                    "velocity": 0.5590551181102362,
                    "duration": 0.3272969999999873
                }
            ],
            "controlChanges": {},
            "id": 2,
            "name": "Piano left",
            "instrumentNumber": 0,
            "instrument": "acoustic grand piano",
            "instrumentFamily": "piano",
            "channelNumber": 0,
            "isPercussion": false
        },
        {
            "startTime": 0,
            "duration": 0,
            "length": 0,
            "notes": [],
            "controlChanges": {
                "64": [
                    {
                        "number": 64,
                        "time": 0.10637152500000001,
                        "value": 1
                    },
                    {
                        "number": 64,
                        "time": 1.65080424375,
                        "value": 0
                    },
                    {
                        "number": 64,
                        "time": 2.5992836749999997,
                        "value": 1
                    },
                    {
                        "number": 64,
                        "time": 3.6070856874999997,
                        "value": 0
                    },
                    {
                        "number": 64,
                        "time": 4.0339355249999995,
                        "value": 1
                    },
                    {
                        "number": 64,
                        "time": 5.578368243749999,
                        "value": 0
                    },
                    {
                        "number": 64,
                        "time": 6.526847674999999,
                        "value": 1
                    },
                    {
                        "number": 64,
                        "time": 7.574879943749999,
                        "value": 0
                    },
                    {
                        "number": 64,
                        "time": 7.896040124999999,
                        "value": 1
                    },
                    {
                        "number": 64,
                        "time": 8.523359374999998,
                        "value": 0
                    },
                    {
                        "number": 64,
                        "time": 8.654278174999998,
                        "value": 1
                    },
                    {
                        "number": 64,
                        "time": 8.837018999999998,
                        "value": 0
                    },
                    {
                        "number": 64,
                        "time": 9.000667499999999,
                        "value": 1
                    },
                    {
                        "number": 64,
                        "time": 9.498431687499998,
                        "value": 0
                    },
                    {
                        "number": 64,
                        "time": 9.859822124999999,
                        "value": 1
                    },
                    {
                        "number": 64,
                        "time": 10.487141374999998,
                        "value": 0
                    },
                    {
                        "number": 64,
                        "time": 10.618060174999998,
                        "value": 1
                    },
                    {
                        "number": 64,
                        "time": 10.800800999999998,
                        "value": 0
                    },
                    {
                        "number": 64,
                        "time": 10.964449499999999,
                        "value": 1
                    },
                    {
                        "number": 64,
                        "time": 11.462213687499998,
                        "value": 0
                    },
                    {
                        "number": 64,
                        "time": 11.823604125,
                        "value": 1
                    },
                    {
                        "number": 64,
                        "time": 12.441377212499999,
                        "value": 0
                    },
                    {
                        "number": 64,
                        "time": 12.56274985,
                        "value": 1
                    },
                    {
                        "number": 64,
                        "time": 12.764583,
                        "value": 0
                    },
                    {
                        "number": 64,
                        "time": 12.982781,
                        "value": 1
                    },
                    {
                        "number": 64,
                        "time": 13.112336062499999,
                        "value": 0
                    },
                    {
                        "number": 64,
                        "time": 13.6196464125,
                        "value": 1
                    },
                    {
                        "number": 64,
                        "time": 13.749201475,
                        "value": 0
                    },
                    {
                        "number": 64,
                        "time": 13.964672,
                        "value": 1
                    },
                    {
                        "number": 64,
                        "time": 14.087408375,
                        "value": 0
                    },
                    {
                        "number": 64,
                        "time": 14.510167000000001,
                        "value": 1
                    },
                    {
                        "number": 64,
                        "time": 14.728365,
                        "value": 0
                    },
                    {
                        "number": 64,
                        "time": 14.8442826875,
                        "value": 1
                    },
                    {
                        "number": 64,
                        "time": 15.06725376875,
                        "value": 0
                    },
                    {
                        "number": 64,
                        "time": 19.98079998125,
                        "value": 1
                    },
                    {
                        "number": 64,
                        "time": 20.63539398125,
                        "value": 0
                    },
                    {
                        "number": 64,
                        "time": 20.726082525000002,
                        "value": 1
                    },
                    {
                        "number": 64,
                        "time": 22.27051524375,
                        "value": 0
                    },
                    {
                        "number": 64,
                        "time": 23.16785451875,
                        "value": 1
                    },
                    {
                        "number": 64,
                        "time": 24.23429724375,
                        "value": 0
                    },
                    {
                        "number": 64,
                        "time": 25.13163651875,
                        "value": 1
                    },
                    {
                        "number": 64,
                        "time": 26.511057,
                        "value": 0
                    },
                    {
                        "number": 64,
                        "time": 30.475441912500003,
                        "value": 1
                    },
                    {
                        "number": 64,
                        "time": 32.4064942125,
                        "value": 0
                    },
                    {
                        "number": 64,
                        "time": 32.620601,
                        "value": 1
                    },
                    {
                        "number": 64,
                        "time": 33.38906708125,
                        "value": 0
                    },
                    {
                        "number": 64,
                        "time": 33.57180790625,
                        "value": 1
                    },
                    {
                        "number": 64,
                        "time": 34.366185,
                        "value": 0
                    },
                    {
                        "number": 64,
                        "time": 34.56870001875,
                        "value": 1
                    },
                    {
                        "number": 64,
                        "time": 35.03237076875,
                        "value": 0
                    },
                    {
                        "number": 64,
                        "time": 36.3340582125,
                        "value": 0
                    },
                    {
                        "number": 64,
                        "time": 36.548165,
                        "value": 1
                    },
                    {
                        "number": 64,
                        "time": 37.316631081249994,
                        "value": 0
                    },
                    {
                        "number": 64,
                        "time": 37.49937190625,
                        "value": 1
                    },
                    {
                        "number": 64,
                        "time": 38.293749,
                        "value": 0
                    },
                    {
                        "number": 64,
                        "time": 38.49626401875,
                        "value": 1
                    },
                    {
                        "number": 64,
                        "time": 38.959934768749996,
                        "value": 0
                    },
                    {
                        "number": 64,
                        "time": 40.261622212499994,
                        "value": 0
                    },
                    {
                        "number": 64,
                        "time": 40.475728999999994,
                        "value": 1
                    },
                    {
                        "number": 64,
                        "time": 41.24419508124999,
                        "value": 0
                    },
                    {
                        "number": 64,
                        "time": 41.426935906249994,
                        "value": 1
                    },
                    {
                        "number": 64,
                        "time": 42.221312999999995,
                        "value": 0
                    },
                    {
                        "number": 64,
                        "time": 42.423828018749994,
                        "value": 1
                    },
                    {
                        "number": 64,
                        "time": 42.88749876874999,
                        "value": 0
                    },
                    {
                        "number": 64,
                        "time": 43.20797708124999,
                        "value": 0
                    },
                    {
                        "number": 64,
                        "time": 43.390717906249996,
                        "value": 1
                    },
                    {
                        "number": 64,
                        "time": 44.185095,
                        "value": 0
                    },
                    {
                        "number": 64,
                        "time": 44.387610018749996,
                        "value": 1
                    },
                    {
                        "number": 64,
                        "time": 44.851280768749994,
                        "value": 0
                    },
                    {
                        "number": 64,
                        "time": 45.25358333124999,
                        "value": 1
                    },
                    {
                        "number": 64,
                        "time": 45.83248989999999,
                        "value": 0
                    },
                    {
                        "number": 64,
                        "time": 51.42449551874999,
                        "value": 1
                    },
                    {
                        "number": 64,
                        "time": 51.72110842499999,
                        "value": 0
                    },
                    {
                        "number": 64,
                        "time": 51.84589040624999,
                        "value": 1
                    },
                    {
                        "number": 64,
                        "time": 52.04022299999999,
                        "value": 0
                    },
                    {
                        "number": 64,
                        "time": 52.51548551874999,
                        "value": 1
                    },
                    {
                        "number": 64,
                        "time": 52.70299942499999,
                        "value": 0
                    },
                    {
                        "number": 64,
                        "time": 52.80391599999999,
                        "value": 1
                    },
                    {
                        "number": 64,
                        "time": 53.02211399999999,
                        "value": 0
                    },
                    {
                        "number": 64,
                        "time": 53.522605662499984,
                        "value": 1
                    },
                    {
                        "number": 64,
                        "time": 53.744213006249986,
                        "value": 0
                    },
                    {
                        "number": 64,
                        "time": 53.82126417499999,
                        "value": 1
                    },
                    {
                        "number": 64,
                        "time": 54.00400499999999,
                        "value": 0
                    },
                    {
                        "number": 64,
                        "time": 54.14856117499999,
                        "value": 1
                    },
                    {
                        "number": 64,
                        "time": 54.66950889999999,
                        "value": 0
                    },
                    {
                        "number": 64,
                        "time": 54.76497052499999,
                        "value": 1
                    },
                    {
                        "number": 64,
                        "time": 54.98589599999999,
                        "value": 0
                    },
                    {
                        "number": 64,
                        "time": 55.10181368749999,
                        "value": 1
                    },
                    {
                        "number": 64,
                        "time": 55.32546663749999,
                        "value": 0
                    },
                    {
                        "number": 64,
                        "time": 55.438656849999994,
                        "value": 1
                    },
                    {
                        "number": 64,
                        "time": 55.650036162499994,
                        "value": 0
                    },
                    {
                        "number": 64,
                        "time": 55.72708733125,
                        "value": 1
                    },
                    {
                        "number": 64,
                        "time": 55.967786999999994,
                        "value": 0
                    },
                    {
                        "number": 64,
                        "time": 56.06393049374999,
                        "value": 1
                    },
                    {
                        "number": 64,
                        "time": 56.30531203124999,
                        "value": 0
                    },
                    {
                        "number": 64,
                        "time": 56.36258900624999,
                        "value": 1
                    },
                    {
                        "number": 64,
                        "time": 56.62647221249999,
                        "value": 0
                    },
                    {
                        "number": 64,
                        "time": 56.71852449374999,
                        "value": 1
                    },
                    {
                        "number": 64,
                        "time": 56.94967799999999,
                        "value": 0
                    },
                    {
                        "number": 64,
                        "time": 57.03627533124999,
                        "value": 1
                    },
                    {
                        "number": 64,
                        "time": 57.28515742499999,
                        "value": 0
                    },
                    {
                        "number": 64,
                        "time": 57.383346524999986,
                        "value": 1
                    },
                    {
                        "number": 64,
                        "time": 57.61381816249999,
                        "value": 0
                    },
                    {
                        "number": 64,
                        "time": 57.69086933124999,
                        "value": 1
                    },
                    {
                        "number": 64,
                        "time": 57.93156899999999,
                        "value": 0
                    },
                    {
                        "number": 64,
                        "time": 57.99907400624999,
                        "value": 1
                    },
                    {
                        "number": 64,
                        "time": 58.599800374999994,
                        "value": 0
                    },
                    {
                        "number": 64,
                        "time": 58.67276033125,
                        "value": 1
                    },
                    {
                        "number": 64,
                        "time": 58.91345999999999,
                        "value": 0
                    },
                    {
                        "number": 64,
                        "time": 58.95437212499999,
                        "value": 1
                    },
                    {
                        "number": 64,
                        "time": 59.25303063749999,
                        "value": 0
                    },
                    {
                        "number": 64,
                        "time": 59.28780594374999,
                        "value": 1
                    },
                    {
                        "number": 64,
                        "time": 59.57760016249999,
                        "value": 0
                    },
                    {
                        "number": 64,
                        "time": 59.654651331249994,
                        "value": 1
                    },
                    {
                        "number": 64,
                        "time": 59.89535099999999,
                        "value": 0
                    },
                    {
                        "number": 64,
                        "time": 59.99149449374999,
                        "value": 1
                    },
                    {
                        "number": 64,
                        "time": 60.23287603124999,
                        "value": 0
                    },
                    {
                        "number": 64,
                        "time": 60.29015300624999,
                        "value": 1
                    },
                    {
                        "number": 64,
                        "time": 60.55403621249999,
                        "value": 0
                    },
                    {
                        "number": 64,
                        "time": 60.646088493749986,
                        "value": 1
                    },
                    {
                        "number": 64,
                        "time": 60.87724199999999,
                        "value": 0
                    },
                    {
                        "number": 64,
                        "time": 60.963839331249986,
                        "value": 1
                    },
                    {
                        "number": 64,
                        "time": 61.212721424999984,
                        "value": 0
                    },
                    {
                        "number": 64,
                        "time": 61.31091052499998,
                        "value": 1
                    },
                    {
                        "number": 64,
                        "time": 61.541382162499985,
                        "value": 0
                    },
                    {
                        "number": 64,
                        "time": 61.61843333124999,
                        "value": 1
                    },
                    {
                        "number": 64,
                        "time": 61.859132999999986,
                        "value": 0
                    },
                    {
                        "number": 64,
                        "time": 63.82291499999999,
                        "value": 0
                    },
                    {
                        "number": 64,
                        "time": 63.919058493749986,
                        "value": 1
                    },
                    {
                        "number": 64,
                        "time": 64.16044003124999,
                        "value": 0
                    },
                    {
                        "number": 64,
                        "time": 64.21771700624998,
                        "value": 1
                    },
                    {
                        "number": 64,
                        "time": 64.48160021249998,
                        "value": 0
                    },
                    {
                        "number": 64,
                        "time": 64.57365249374999,
                        "value": 1
                    },
                    {
                        "number": 64,
                        "time": 64.80889721249999,
                        "value": 0
                    },
                    {
                        "number": 64,
                        "time": 64.89140333124999,
                        "value": 1
                    },
                    {
                        "number": 64,
                        "time": 65.14028542499999,
                        "value": 0
                    },
                    {
                        "number": 64,
                        "time": 65.23847452499999,
                        "value": 1
                    },
                    {
                        "number": 64,
                        "time": 65.46894616249999,
                        "value": 0
                    },
                    {
                        "number": 64,
                        "time": 65.54599733124999,
                        "value": 1
                    },
                    {
                        "number": 64,
                        "time": 65.78669699999999,
                        "value": 0
                    },
                    {
                        "number": 64,
                        "time": 68.79987500624999,
                        "value": 1
                    },
                    {
                        "number": 64,
                        "time": 69.06784942499999,
                        "value": 0
                    },
                    {
                        "number": 64,
                        "time": 69.17558468749999,
                        "value": 1
                    },
                    {
                        "number": 64,
                        "time": 69.3978739,
                        "value": 0
                    },
                    {
                        "number": 64,
                        "time": 69.48310749375,
                        "value": 1
                    },
                    {
                        "number": 64,
                        "time": 69.714261,
                        "value": 0
                    },
                    {
                        "number": 64,
                        "time": 69.83972485,
                        "value": 1
                    },
                    {
                        "number": 64,
                        "time": 70.0483766875,
                        "value": 0
                    },
                    {
                        "number": 64,
                        "time": 70.13770149375,
                        "value": 1
                    },
                    {
                        "number": 64,
                        "time": 70.3756736875,
                        "value": 0
                    },
                    {
                        "number": 64,
                        "time": 70.45545233125,
                        "value": 1
                    },
                    {
                        "number": 64,
                        "time": 70.696152,
                        "value": 0
                    },
                    {
                        "number": 64,
                        "time": 70.76638448125,
                        "value": 1
                    },
                    {
                        "number": 64,
                        "time": 71.03231329375,
                        "value": 0
                    },
                    {
                        "number": 64,
                        "time": 71.132548,
                        "value": 1
                    },
                    {
                        "number": 64,
                        "time": 71.35961029375,
                        "value": 0
                    },
                    {
                        "number": 64,
                        "time": 71.42916090624999,
                        "value": 1
                    },
                    {
                        "number": 64,
                        "time": 71.67804299999999,
                        "value": 0
                    },
                    {
                        "number": 64,
                        "time": 71.80350684999999,
                        "value": 1
                    },
                    {
                        "number": 64,
                        "time": 72.69880051874999,
                        "value": 0
                    },
                    {
                        "number": 64,
                        "time": 72.74175824999999,
                        "value": 1
                    },
                    {
                        "number": 64,
                        "time": 73.67864591249999,
                        "value": 0
                    },
                    {
                        "number": 64,
                        "time": 73.83479385624999,
                        "value": 1
                    },
                    {
                        "number": 64,
                        "time": 75.60560699999999,
                        "value": 0
                    },
                    {
                        "number": 64,
                        "time": 75.67311200625,
                        "value": 1
                    },
                    {
                        "number": 64,
                        "time": 75.941086425,
                        "value": 0
                    },
                    {
                        "number": 64,
                        "time": 76.0488216875,
                        "value": 1
                    },
                    {
                        "number": 64,
                        "time": 76.2711109,
                        "value": 0
                    },
                    {
                        "number": 64,
                        "time": 76.35634449375,
                        "value": 1
                    },
                    {
                        "number": 64,
                        "time": 76.65500300625,
                        "value": 1
                    },
                    {
                        "number": 64,
                        "time": 76.922977425,
                        "value": 0
                    },
                    {
                        "number": 64,
                        "time": 77.0307126875,
                        "value": 1
                    },
                    {
                        "number": 64,
                        "time": 77.2530019,
                        "value": 0
                    },
                    {
                        "number": 64,
                        "time": 77.33823549375,
                        "value": 1
                    },
                    {
                        "number": 64,
                        "time": 77.569389,
                        "value": 0
                    },
                    {
                        "number": 64,
                        "time": 77.69485285,
                        "value": 1
                    },
                    {
                        "number": 64,
                        "time": 77.9035046875,
                        "value": 0
                    },
                    {
                        "number": 64,
                        "time": 77.99282949375001,
                        "value": 1
                    },
                    {
                        "number": 64,
                        "time": 78.2308016875,
                        "value": 0
                    },
                    {
                        "number": 64,
                        "time": 78.31058033125001,
                        "value": 1
                    },
                    {
                        "number": 64,
                        "time": 78.55128,
                        "value": 0
                    },
                    {
                        "number": 64,
                        "time": 78.62151248125001,
                        "value": 1
                    },
                    {
                        "number": 64,
                        "time": 78.88744129375,
                        "value": 0
                    },
                    {
                        "number": 64,
                        "time": 78.98767600000001,
                        "value": 1
                    },
                    {
                        "number": 64,
                        "time": 79.21473829375,
                        "value": 0
                    },
                    {
                        "number": 64,
                        "time": 79.28428890625,
                        "value": 1
                    },
                    {
                        "number": 64,
                        "time": 79.533171,
                        "value": 0
                    },
                    {
                        "number": 64,
                        "time": 79.60340348125,
                        "value": 1
                    },
                    {
                        "number": 64,
                        "time": 79.86933229374999,
                        "value": 0
                    },
                    {
                        "number": 64,
                        "time": 79.969567,
                        "value": 1
                    },
                    {
                        "number": 64,
                        "time": 80.19662929375,
                        "value": 0
                    },
                    {
                        "number": 64,
                        "time": 80.26617990624999,
                        "value": 1
                    },
                    {
                        "number": 64,
                        "time": 80.51506199999999,
                        "value": 0
                    },
                    {
                        "number": 64,
                        "time": 80.58529448124999,
                        "value": 1
                    },
                    {
                        "number": 64,
                        "time": 80.85122329374998,
                        "value": 0
                    },
                    {
                        "number": 64,
                        "time": 80.95145799999999,
                        "value": 1
                    },
                    {
                        "number": 64,
                        "time": 81.17852029374998,
                        "value": 0
                    },
                    {
                        "number": 64,
                        "time": 81.24807090624998,
                        "value": 1
                    },
                    {
                        "number": 64,
                        "time": 81.49695299999998,
                        "value": 0
                    },
                    {
                        "number": 64,
                        "time": 81.56718548124998,
                        "value": 1
                    },
                    {
                        "number": 64,
                        "time": 81.83311429374997,
                        "value": 0
                    },
                    {
                        "number": 64,
                        "time": 81.93334899999998,
                        "value": 1
                    },
                    {
                        "number": 64,
                        "time": 82.16041129374997,
                        "value": 0
                    },
                    {
                        "number": 64,
                        "time": 82.22996190624997,
                        "value": 1
                    },
                    {
                        "number": 64,
                        "time": 82.47884399999997,
                        "value": 0
                    },
                    {
                        "number": 64,
                        "time": 82.54907648124997,
                        "value": 1
                    },
                    {
                        "number": 64,
                        "time": 82.81500529374996,
                        "value": 0
                    },
                    {
                        "number": 64,
                        "time": 82.91523999999997,
                        "value": 1
                    },
                    {
                        "number": 64,
                        "time": 83.14230229374996,
                        "value": 0
                    },
                    {
                        "number": 64,
                        "time": 83.21185290624996,
                        "value": 1
                    },
                    {
                        "number": 64,
                        "time": 83.46073499999996,
                        "value": 0
                    },
                    {
                        "number": 64,
                        "time": 84.04714212499995,
                        "value": 1
                    },
                    {
                        "number": 64,
                        "time": 84.44262599999995,
                        "value": 0
                    },
                    {
                        "number": 64,
                        "time": 85.02903312499994,
                        "value": 1
                    },
                    {
                        "number": 64,
                        "time": 85.42451699999994,
                        "value": 0
                    },
                    {
                        "number": 64,
                        "time": 86.01092412499993,
                        "value": 1
                    },
                    {
                        "number": 64,
                        "time": 86.40640799999993,
                        "value": 0
                    },
                    {
                        "number": 64,
                        "time": 86.99281512499992,
                        "value": 1
                    },
                    {
                        "number": 64,
                        "time": 87.38829899999992,
                        "value": 0
                    },
                    {
                        "number": 64,
                        "time": 88.04289299999992,
                        "value": 1
                    },
                    {
                        "number": 64,
                        "time": 90.33397199999992,
                        "value": 0
                    },
                    {
                        "number": 64,
                        "time": 93.40715445624991,
                        "value": 1
                    },
                    {
                        "number": 64,
                        "time": 93.61717003124991,
                        "value": 0
                    },
                    {
                        "number": 64,
                        "time": 94.69793199999991,
                        "value": 1
                    },
                    {
                        "number": 64,
                        "time": 95.24342699999991,
                        "value": 0
                    },
                    {
                        "number": 64,
                        "time": 95.47730798124991,
                        "value": 1
                    },
                    {
                        "number": 64,
                        "time": 95.5843613749999,
                        "value": 0
                    },
                    {
                        "number": 64,
                        "time": 97.3708574999999,
                        "value": 1
                    },
                    {
                        "number": 64,
                        "time": 97.5481433749999,
                        "value": 0
                    },
                    {
                        "number": 64,
                        "time": 98.66231691249989,
                        "value": 1
                    },
                    {
                        "number": 64,
                        "time": 99.17099099999989,
                        "value": 0
                    },
                    {
                        "number": 64,
                        "time": 99.33463949999988,
                        "value": 1
                    },
                    {
                        "number": 64,
                        "time": 99.51192537499988,
                        "value": 0
                    },
                    {
                        "number": 64,
                        "time": 100.53472849999987,
                        "value": 1
                    },
                    {
                        "number": 64,
                        "time": 101.13477299999987,
                        "value": 0
                    },
                    {
                        "number": 64,
                        "time": 101.38979191249987,
                        "value": 1
                    },
                    {
                        "number": 64,
                        "time": 102.11666399999987,
                        "value": 0
                    },
                    {
                        "number": 64,
                        "time": 103.20492652499988,
                        "value": 1
                    },
                    {
                        "number": 64,
                        "time": 104.74935924374988,
                        "value": 0
                    },
                    {
                        "number": 64,
                        "time": 105.69783867499987,
                        "value": 1
                    },
                    {
                        "number": 64,
                        "time": 106.70700442499987,
                        "value": 0
                    },
                    {
                        "number": 64,
                        "time": 107.13249052499987,
                        "value": 1
                    },
                    {
                        "number": 64,
                        "time": 108.67692324374987,
                        "value": 0
                    },
                    {
                        "number": 64,
                        "time": 109.62540267499986,
                        "value": 1
                    },
                    {
                        "number": 64,
                        "time": 110.67343494374987,
                        "value": 0
                    },
                    {
                        "number": 64,
                        "time": 110.99459512499986,
                        "value": 1
                    },
                    {
                        "number": 64,
                        "time": 111.62191437499986,
                        "value": 0
                    },
                    {
                        "number": 64,
                        "time": 111.75283317499986,
                        "value": 1
                    },
                    {
                        "number": 64,
                        "time": 111.93557399999986,
                        "value": 0
                    },
                    {
                        "number": 64,
                        "time": 112.09922249999985,
                        "value": 1
                    },
                    {
                        "number": 64,
                        "time": 112.59698668749985,
                        "value": 0
                    },
                    {
                        "number": 64,
                        "time": 112.95837712499986,
                        "value": 1
                    },
                    {
                        "number": 64,
                        "time": 113.58569637499986,
                        "value": 0
                    },
                    {
                        "number": 64,
                        "time": 113.71661517499986,
                        "value": 1
                    },
                    {
                        "number": 64,
                        "time": 113.89935599999986,
                        "value": 0
                    },
                    {
                        "number": 64,
                        "time": 114.06300449999985,
                        "value": 1
                    },
                    {
                        "number": 64,
                        "time": 114.56076868749984,
                        "value": 0
                    },
                    {
                        "number": 64,
                        "time": 114.92215912499985,
                        "value": 1
                    },
                    {
                        "number": 64,
                        "time": 115.53993221249985,
                        "value": 0
                    },
                    {
                        "number": 64,
                        "time": 115.66130484999985,
                        "value": 1
                    },
                    {
                        "number": 64,
                        "time": 115.86313799999985,
                        "value": 0
                    },
                    {
                        "number": 64,
                        "time": 116.08133599999985,
                        "value": 1
                    },
                    {
                        "number": 64,
                        "time": 116.21089106249985,
                        "value": 0
                    },
                    {
                        "number": 64,
                        "time": 116.71820141249985,
                        "value": 1
                    },
                    {
                        "number": 64,
                        "time": 116.84775647499985,
                        "value": 0
                    },
                    {
                        "number": 64,
                        "time": 117.06322699999986,
                        "value": 1
                    },
                    {
                        "number": 64,
                        "time": 117.18596337499986,
                        "value": 0
                    },
                    {
                        "number": 64,
                        "time": 117.60872199999986,
                        "value": 1
                    },
                    {
                        "number": 64,
                        "time": 117.82691999999986,
                        "value": 0
                    },
                    {
                        "number": 64,
                        "time": 117.94283768749986,
                        "value": 1
                    },
                    {
                        "number": 64,
                        "time": 118.16580876874986,
                        "value": 0
                    },
                    {
                        "number": 64,
                        "time": 123.07935498124985,
                        "value": 1
                    },
                    {
                        "number": 64,
                        "time": 123.73394898124985,
                        "value": 0
                    },
                    {
                        "number": 64,
                        "time": 123.82463752499986,
                        "value": 1
                    },
                    {
                        "number": 64,
                        "time": 125.36907024374986,
                        "value": 0
                    },
                    {
                        "number": 64,
                        "time": 126.26640951874985,
                        "value": 1
                    },
                    {
                        "number": 64,
                        "time": 127.33285224374985,
                        "value": 0
                    },
                    {
                        "number": 64,
                        "time": 128.23019151874985,
                        "value": 1
                    },
                    {
                        "number": 64,
                        "time": 129.60961199999986,
                        "value": 0
                    },
                    {
                        "number": 64,
                        "time": 133.57399691249987,
                        "value": 1
                    },
                    {
                        "number": 64,
                        "time": 135.50504921249987,
                        "value": 0
                    },
                    {
                        "number": 64,
                        "time": 135.71915599999986,
                        "value": 1
                    },
                    {
                        "number": 64,
                        "time": 136.48762208124987,
                        "value": 0
                    },
                    {
                        "number": 64,
                        "time": 136.67036290624986,
                        "value": 1
                    },
                    {
                        "number": 64,
                        "time": 137.46473999999986,
                        "value": 0
                    },
                    {
                        "number": 64,
                        "time": 137.66725501874987,
                        "value": 1
                    },
                    {
                        "number": 64,
                        "time": 138.13092576874988,
                        "value": 0
                    },
                    {
                        "number": 64,
                        "time": 139.4326132124999,
                        "value": 0
                    },
                    {
                        "number": 64,
                        "time": 139.64671999999987,
                        "value": 1
                    },
                    {
                        "number": 64,
                        "time": 140.41518608124989,
                        "value": 0
                    },
                    {
                        "number": 64,
                        "time": 140.59792690624988,
                        "value": 1
                    },
                    {
                        "number": 64,
                        "time": 141.39230399999988,
                        "value": 0
                    },
                    {
                        "number": 64,
                        "time": 141.5948190187499,
                        "value": 1
                    },
                    {
                        "number": 64,
                        "time": 142.0584897687499,
                        "value": 0
                    },
                    {
                        "number": 64,
                        "time": 143.3601772124999,
                        "value": 0
                    },
                    {
                        "number": 64,
                        "time": 143.5742839999999,
                        "value": 1
                    },
                    {
                        "number": 64,
                        "time": 144.3427500812499,
                        "value": 0
                    },
                    {
                        "number": 64,
                        "time": 144.5254909062499,
                        "value": 1
                    },
                    {
                        "number": 64,
                        "time": 145.3198679999999,
                        "value": 0
                    },
                    {
                        "number": 64,
                        "time": 145.5223830187499,
                        "value": 1
                    },
                    {
                        "number": 64,
                        "time": 145.9860537687499,
                        "value": 0
                    },
                    {
                        "number": 64,
                        "time": 146.3065320812499,
                        "value": 0
                    },
                    {
                        "number": 64,
                        "time": 146.4892729062499,
                        "value": 1
                    },
                    {
                        "number": 64,
                        "time": 147.2836499999999,
                        "value": 0
                    },
                    {
                        "number": 64,
                        "time": 147.48616501874992,
                        "value": 1
                    },
                    {
                        "number": 64,
                        "time": 147.94983576874992,
                        "value": 0
                    },
                    {
                        "number": 64,
                        "time": 154.52305051874993,
                        "value": 1
                    },
                    {
                        "number": 64,
                        "time": 154.81966342499993,
                        "value": 0
                    },
                    {
                        "number": 64,
                        "time": 154.94444540624994,
                        "value": 1
                    },
                    {
                        "number": 64,
                        "time": 155.13877799999995,
                        "value": 0
                    },
                    {
                        "number": 64,
                        "time": 155.61404051874993,
                        "value": 1
                    },
                    {
                        "number": 64,
                        "time": 155.80155442499992,
                        "value": 0
                    },
                    {
                        "number": 64,
                        "time": 155.90247099999993,
                        "value": 1
                    },
                    {
                        "number": 64,
                        "time": 156.12066899999994,
                        "value": 0
                    },
                    {
                        "number": 64,
                        "time": 156.62116066249993,
                        "value": 1
                    },
                    {
                        "number": 64,
                        "time": 156.84276800624994,
                        "value": 0
                    },
                    {
                        "number": 64,
                        "time": 156.91981917499993,
                        "value": 1
                    },
                    {
                        "number": 64,
                        "time": 157.10255999999993,
                        "value": 0
                    },
                    {
                        "number": 64,
                        "time": 157.24711617499992,
                        "value": 1
                    },
                    {
                        "number": 64,
                        "time": 157.76806389999993,
                        "value": 0
                    },
                    {
                        "number": 64,
                        "time": 157.86352552499994,
                        "value": 1
                    },
                    {
                        "number": 64,
                        "time": 158.08445099999994,
                        "value": 0
                    },
                    {
                        "number": 64,
                        "time": 158.20036868749995,
                        "value": 1
                    },
                    {
                        "number": 64,
                        "time": 158.42402163749995,
                        "value": 0
                    },
                    {
                        "number": 64,
                        "time": 158.53721184999995,
                        "value": 1
                    },
                    {
                        "number": 64,
                        "time": 158.74859116249993,
                        "value": 0
                    },
                    {
                        "number": 64,
                        "time": 158.82564233124992,
                        "value": 1
                    },
                    {
                        "number": 64,
                        "time": 159.06634199999993,
                        "value": 0
                    },
                    {
                        "number": 64,
                        "time": 159.16248549374993,
                        "value": 1
                    },
                    {
                        "number": 64,
                        "time": 159.40386703124992,
                        "value": 0
                    },
                    {
                        "number": 64,
                        "time": 159.46114400624992,
                        "value": 1
                    },
                    {
                        "number": 64,
                        "time": 159.72502721249992,
                        "value": 0
                    },
                    {
                        "number": 64,
                        "time": 159.81707949374993,
                        "value": 1
                    },
                    {
                        "number": 64,
                        "time": 160.04823299999993,
                        "value": 0
                    },
                    {
                        "number": 64,
                        "time": 160.13483033124993,
                        "value": 1
                    },
                    {
                        "number": 64,
                        "time": 160.38371242499994,
                        "value": 0
                    },
                    {
                        "number": 64,
                        "time": 160.48190152499996,
                        "value": 1
                    },
                    {
                        "number": 64,
                        "time": 160.71237316249994,
                        "value": 0
                    },
                    {
                        "number": 64,
                        "time": 160.78942433124993,
                        "value": 1
                    },
                    {
                        "number": 64,
                        "time": 161.03012399999994,
                        "value": 0
                    },
                    {
                        "number": 64,
                        "time": 161.09762900624995,
                        "value": 1
                    },
                    {
                        "number": 64,
                        "time": 161.69835537499995,
                        "value": 0
                    },
                    {
                        "number": 64,
                        "time": 161.77131533124995,
                        "value": 1
                    },
                    {
                        "number": 64,
                        "time": 162.01201499999996,
                        "value": 0
                    },
                    {
                        "number": 64,
                        "time": 162.05292712499997,
                        "value": 1
                    },
                    {
                        "number": 64,
                        "time": 162.35158563749997,
                        "value": 0
                    },
                    {
                        "number": 64,
                        "time": 162.38636094374996,
                        "value": 1
                    },
                    {
                        "number": 64,
                        "time": 162.67615516249995,
                        "value": 0
                    },
                    {
                        "number": 64,
                        "time": 162.75320633124994,
                        "value": 1
                    },
                    {
                        "number": 64,
                        "time": 162.99390599999995,
                        "value": 0
                    },
                    {
                        "number": 64,
                        "time": 163.09004949374994,
                        "value": 1
                    },
                    {
                        "number": 64,
                        "time": 163.33143103124993,
                        "value": 0
                    },
                    {
                        "number": 64,
                        "time": 163.38870800624994,
                        "value": 1
                    },
                    {
                        "number": 64,
                        "time": 163.65259121249994,
                        "value": 0
                    },
                    {
                        "number": 64,
                        "time": 163.74464349374995,
                        "value": 1
                    },
                    {
                        "number": 64,
                        "time": 163.97579699999994,
                        "value": 0
                    },
                    {
                        "number": 64,
                        "time": 164.06239433124995,
                        "value": 1
                    },
                    {
                        "number": 64,
                        "time": 164.31127642499996,
                        "value": 0
                    },
                    {
                        "number": 64,
                        "time": 164.40946552499997,
                        "value": 1
                    },
                    {
                        "number": 64,
                        "time": 164.63993716249996,
                        "value": 0
                    },
                    {
                        "number": 64,
                        "time": 164.71698833124995,
                        "value": 1
                    },
                    {
                        "number": 64,
                        "time": 164.95768799999996,
                        "value": 0
                    },
                    {
                        "number": 64,
                        "time": 166.92146999999997,
                        "value": 0
                    },
                    {
                        "number": 64,
                        "time": 167.01761349374996,
                        "value": 1
                    },
                    {
                        "number": 64,
                        "time": 167.25899503124995,
                        "value": 0
                    },
                    {
                        "number": 64,
                        "time": 167.31627200624996,
                        "value": 1
                    },
                    {
                        "number": 64,
                        "time": 167.58015521249996,
                        "value": 0
                    },
                    {
                        "number": 64,
                        "time": 167.67220749374997,
                        "value": 1
                    },
                    {
                        "number": 64,
                        "time": 167.90813408124995,
                        "value": 0
                    },
                    {
                        "number": 64,
                        "time": 167.98995833124997,
                        "value": 1
                    },
                    {
                        "number": 64,
                        "time": 168.23884042499998,
                        "value": 0
                    },
                    {
                        "number": 64,
                        "time": 168.337029525,
                        "value": 1
                    },
                    {
                        "number": 64,
                        "time": 168.56750116249998,
                        "value": 0
                    },
                    {
                        "number": 64,
                        "time": 168.64455233124997,
                        "value": 1
                    },
                    {
                        "number": 64,
                        "time": 168.88525199999998,
                        "value": 0
                    },
                    {
                        "number": 64,
                        "time": 171.89843000624998,
                        "value": 1
                    },
                    {
                        "number": 64,
                        "time": 172.16640442499997,
                        "value": 0
                    },
                    {
                        "number": 64,
                        "time": 172.27413968749997,
                        "value": 1
                    },
                    {
                        "number": 64,
                        "time": 172.49642889999996,
                        "value": 0
                    },
                    {
                        "number": 64,
                        "time": 172.58166249374995,
                        "value": 1
                    },
                    {
                        "number": 64,
                        "time": 172.81281599999994,
                        "value": 0
                    },
                    {
                        "number": 64,
                        "time": 172.93827984999993,
                        "value": 1
                    },
                    {
                        "number": 64,
                        "time": 173.14693168749994,
                        "value": 0
                    },
                    {
                        "number": 64,
                        "time": 173.23625649374995,
                        "value": 1
                    },
                    {
                        "number": 64,
                        "time": 173.47422868749996,
                        "value": 0
                    },
                    {
                        "number": 64,
                        "time": 173.55400733124995,
                        "value": 1
                    },
                    {
                        "number": 64,
                        "time": 173.79470699999996,
                        "value": 0
                    },
                    {
                        "number": 64,
                        "time": 173.86493948124996,
                        "value": 1
                    },
                    {
                        "number": 64,
                        "time": 174.13086829374996,
                        "value": 0
                    },
                    {
                        "number": 64,
                        "time": 174.23110299999996,
                        "value": 1
                    },
                    {
                        "number": 64,
                        "time": 174.45816529374997,
                        "value": 0
                    },
                    {
                        "number": 64,
                        "time": 174.52771590624997,
                        "value": 1
                    },
                    {
                        "number": 64,
                        "time": 174.77659799999998,
                        "value": 0
                    },
                    {
                        "number": 64,
                        "time": 174.90206184999997,
                        "value": 1
                    },
                    {
                        "number": 64,
                        "time": 175.79735551874995,
                        "value": 0
                    },
                    {
                        "number": 64,
                        "time": 175.84031324999995,
                        "value": 1
                    },
                    {
                        "number": 64,
                        "time": 176.77720091249995,
                        "value": 0
                    },
                    {
                        "number": 64,
                        "time": 176.93334885624995,
                        "value": 1
                    },
                    {
                        "number": 64,
                        "time": 178.70416199999994,
                        "value": 0
                    },
                    {
                        "number": 64,
                        "time": 178.77166700624994,
                        "value": 1
                    },
                    {
                        "number": 64,
                        "time": 179.03964142499993,
                        "value": 0
                    },
                    {
                        "number": 64,
                        "time": 179.14737668749993,
                        "value": 1
                    },
                    {
                        "number": 64,
                        "time": 179.36966589999992,
                        "value": 0
                    },
                    {
                        "number": 64,
                        "time": 179.4548994937499,
                        "value": 1
                    },
                    {
                        "number": 64,
                        "time": 179.7535580062499,
                        "value": 1
                    },
                    {
                        "number": 64,
                        "time": 180.0215324249999,
                        "value": 0
                    },
                    {
                        "number": 64,
                        "time": 180.1292676874999,
                        "value": 1
                    },
                    {
                        "number": 64,
                        "time": 180.35155689999988,
                        "value": 0
                    },
                    {
                        "number": 64,
                        "time": 180.43679049374987,
                        "value": 1
                    },
                    {
                        "number": 64,
                        "time": 180.66794399999986,
                        "value": 0
                    },
                    {
                        "number": 64,
                        "time": 180.79340784999985,
                        "value": 1
                    },
                    {
                        "number": 64,
                        "time": 181.00205968749987,
                        "value": 0
                    },
                    {
                        "number": 64,
                        "time": 181.09138449374987,
                        "value": 1
                    },
                    {
                        "number": 64,
                        "time": 181.32935668749988,
                        "value": 0
                    },
                    {
                        "number": 64,
                        "time": 181.40913533124987,
                        "value": 1
                    },
                    {
                        "number": 64,
                        "time": 181.64983499999988,
                        "value": 0
                    },
                    {
                        "number": 64,
                        "time": 181.72006748124988,
                        "value": 1
                    },
                    {
                        "number": 64,
                        "time": 181.98599629374988,
                        "value": 0
                    },
                    {
                        "number": 64,
                        "time": 182.08623099999988,
                        "value": 1
                    },
                    {
                        "number": 64,
                        "time": 182.3132932937499,
                        "value": 0
                    },
                    {
                        "number": 64,
                        "time": 182.3828439062499,
                        "value": 1
                    },
                    {
                        "number": 64,
                        "time": 182.6317259999999,
                        "value": 0
                    },
                    {
                        "number": 64,
                        "time": 182.7019584812499,
                        "value": 1
                    },
                    {
                        "number": 64,
                        "time": 182.9678872937499,
                        "value": 0
                    },
                    {
                        "number": 64,
                        "time": 183.0681219999999,
                        "value": 1
                    },
                    {
                        "number": 64,
                        "time": 183.2951842937499,
                        "value": 0
                    },
                    {
                        "number": 64,
                        "time": 183.3647349062499,
                        "value": 1
                    },
                    {
                        "number": 64,
                        "time": 183.61361699999992,
                        "value": 0
                    },
                    {
                        "number": 64,
                        "time": 183.68384948124992,
                        "value": 1
                    },
                    {
                        "number": 64,
                        "time": 183.94977829374992,
                        "value": 0
                    },
                    {
                        "number": 64,
                        "time": 184.05001299999992,
                        "value": 1
                    },
                    {
                        "number": 64,
                        "time": 184.27707529374993,
                        "value": 0
                    },
                    {
                        "number": 64,
                        "time": 184.34662590624993,
                        "value": 1
                    },
                    {
                        "number": 64,
                        "time": 184.59550799999994,
                        "value": 0
                    },
                    {
                        "number": 64,
                        "time": 184.66574048124994,
                        "value": 1
                    },
                    {
                        "number": 64,
                        "time": 184.93166929374993,
                        "value": 0
                    },
                    {
                        "number": 64,
                        "time": 185.03190399999994,
                        "value": 1
                    },
                    {
                        "number": 64,
                        "time": 185.25896629374995,
                        "value": 0
                    },
                    {
                        "number": 64,
                        "time": 185.32851690624994,
                        "value": 1
                    },
                    {
                        "number": 64,
                        "time": 185.57739899999996,
                        "value": 0
                    },
                    {
                        "number": 64,
                        "time": 185.64763148124996,
                        "value": 1
                    },
                    {
                        "number": 64,
                        "time": 185.91356029374995,
                        "value": 0
                    },
                    {
                        "number": 64,
                        "time": 186.01379499999996,
                        "value": 1
                    },
                    {
                        "number": 64,
                        "time": 186.24085729374997,
                        "value": 0
                    },
                    {
                        "number": 64,
                        "time": 186.31040790624996,
                        "value": 1
                    },
                    {
                        "number": 64,
                        "time": 186.55928999999998,
                        "value": 0
                    },
                    {
                        "number": 64,
                        "time": 187.14569712499997,
                        "value": 1
                    },
                    {
                        "number": 64,
                        "time": 187.54118099999997,
                        "value": 0
                    },
                    {
                        "number": 64,
                        "time": 188.12758812499996,
                        "value": 1
                    },
                    {
                        "number": 64,
                        "time": 188.52307199999996,
                        "value": 0
                    },
                    {
                        "number": 64,
                        "time": 189.10947912499995,
                        "value": 1
                    },
                    {
                        "number": 64,
                        "time": 189.50496299999995,
                        "value": 0
                    },
                    {
                        "number": 64,
                        "time": 190.09137012499994,
                        "value": 1
                    },
                    {
                        "number": 64,
                        "time": 190.48685399999994,
                        "value": 0
                    },
                    {
                        "number": 64,
                        "time": 191.14144799999994,
                        "value": 1
                    },
                    {
                        "number": 64,
                        "time": 193.43252699999994,
                        "value": 0
                    },
                    {
                        "number": 64,
                        "time": 196.50570945624995,
                        "value": 1
                    },
                    {
                        "number": 64,
                        "time": 196.71572503124995,
                        "value": 0
                    },
                    {
                        "number": 64,
                        "time": 197.79648699999996,
                        "value": 1
                    },
                    {
                        "number": 64,
                        "time": 198.34198199999994,
                        "value": 0
                    },
                    {
                        "number": 64,
                        "time": 198.57586298124994,
                        "value": 1
                    },
                    {
                        "number": 64,
                        "time": 198.68291637499993,
                        "value": 0
                    },
                    {
                        "number": 64,
                        "time": 200.46941249999995,
                        "value": 1
                    },
                    {
                        "number": 64,
                        "time": 200.64669837499994,
                        "value": 0
                    },
                    {
                        "number": 64,
                        "time": 201.76087191249994,
                        "value": 1
                    },
                    {
                        "number": 64,
                        "time": 202.26954599999993,
                        "value": 0
                    },
                    {
                        "number": 64,
                        "time": 202.43319449999993,
                        "value": 1
                    },
                    {
                        "number": 64,
                        "time": 202.61048037499992,
                        "value": 0
                    },
                    {
                        "number": 64,
                        "time": 203.63328349999992,
                        "value": 1
                    },
                    {
                        "number": 64,
                        "time": 204.23332799999991,
                        "value": 0
                    },
                    {
                        "number": 64,
                        "time": 204.4883469124999,
                        "value": 1
                    },
                    {
                        "number": 64,
                        "time": 205.2152189999999,
                        "value": 0
                    },
                    {
                        "number": 64,
                        "time": 206.3034815249999,
                        "value": 1
                    },
                    {
                        "number": 64,
                        "time": 207.8479142437499,
                        "value": 0
                    },
                    {
                        "number": 64,
                        "time": 208.7963936749999,
                        "value": 1
                    },
                    {
                        "number": 64,
                        "time": 209.8055594249999,
                        "value": 0
                    },
                    {
                        "number": 64,
                        "time": 210.2310455249999,
                        "value": 1
                    },
                    {
                        "number": 64,
                        "time": 211.7754782437499,
                        "value": 0
                    },
                    {
                        "number": 64,
                        "time": 212.8637407687499,
                        "value": 1
                    },
                    {
                        "number": 64,
                        "time": 213.7317596874999,
                        "value": 0
                    },
                    {
                        "number": 64,
                        "time": 214.1586095249999,
                        "value": 1
                    },
                    {
                        "number": 64,
                        "time": 215.70304224374988,
                        "value": 0
                    },
                    {
                        "number": 64,
                        "time": 216.01601999999988,
                        "value": 0
                    },
                    {
                        "number": 64,
                        "time": 218.12435817499988,
                        "value": 1
                    },
                    {
                        "number": 64,
                        "time": 218.96169299999988,
                        "value": 0
                    },
                    {
                        "number": 64,
                        "time": 219.05783649374987,
                        "value": 1
                    },
                    {
                        "number": 64,
                        "time": 219.94358399999987,
                        "value": 0
                    },
                    {
                        "number": 64,
                        "time": 220.04995552499986,
                        "value": 1
                    },
                    {
                        "number": 64,
                        "time": 220.27701781874987,
                        "value": 0
                    },
                    {
                        "number": 64,
                        "time": 220.37725252499988,
                        "value": 1
                    },
                    {
                        "number": 64,
                        "time": 220.60431481874988,
                        "value": 0
                    },
                    {
                        "number": 64,
                        "time": 220.68477533124988,
                        "value": 1
                    },
                    {
                        "number": 64,
                        "time": 220.9254749999999,
                        "value": 0
                    },
                    {
                        "number": 64,
                        "time": 221.02707344374988,
                        "value": 1
                    },
                    {
                        "number": 64,
                        "time": 221.90736599999988,
                        "value": 0
                    },
                    {
                        "number": 64,
                        "time": 222.00078201874987,
                        "value": 1
                    },
                    {
                        "number": 64,
                        "time": 222.88925699999987,
                        "value": 0
                    },
                    {
                        "number": 64,
                        "time": 223.03722251874987,
                        "value": 1
                    },
                    {
                        "number": 64,
                        "time": 223.87114799999986,
                        "value": 0
                    },
                    {
                        "number": 64,
                        "time": 223.97751952499985,
                        "value": 1
                    },
                    {
                        "number": 64,
                        "time": 224.85303899999985,
                        "value": 0
                    },
                    {
                        "number": 64,
                        "time": 224.97782098124986,
                        "value": 1
                    },
                    {
                        "number": 64,
                        "time": 225.19056403124986,
                        "value": 0
                    },
                    {
                        "number": 64,
                        "time": 225.26625146249987,
                        "value": 1
                    },
                    {
                        "number": 64,
                        "time": 225.51717916249987,
                        "value": 0
                    },
                    {
                        "number": 64,
                        "time": 225.60104901874988,
                        "value": 1
                    },
                    {
                        "number": 64,
                        "time": 225.83492999999987,
                        "value": 0
                    },
                    {
                        "number": 64,
                        "time": 225.97948617499986,
                        "value": 1
                    },
                    {
                        "number": 64,
                        "time": 226.16768194999986,
                        "value": 0
                    },
                    {
                        "number": 64,
                        "time": 226.27132599999987,
                        "value": 1
                    },
                    {
                        "number": 64,
                        "time": 226.49566081874988,
                        "value": 0
                    },
                    {
                        "number": 64,
                        "time": 226.6068054249999,
                        "value": 1
                    },
                    {
                        "number": 64,
                        "time": 226.8168209999999,
                        "value": 0
                    },
                    {
                        "number": 64,
                        "time": 226.91296449374988,
                        "value": 1
                    },
                    {
                        "number": 64,
                        "time": 227.14957294999988,
                        "value": 0
                    },
                    {
                        "number": 64,
                        "time": 227.21435048124988,
                        "value": 1
                    },
                    {
                        "number": 64,
                        "time": 227.4741424749999,
                        "value": 0
                    },
                    {
                        "number": 64,
                        "time": 227.5498299062499,
                        "value": 1
                    },
                    {
                        "number": 64,
                        "time": 227.7987119999999,
                        "value": 0
                    },
                    {
                        "number": 64,
                        "time": 227.9050835249999,
                        "value": 1
                    },
                    {
                        "number": 64,
                        "time": 228.1321458187499,
                        "value": 0
                    },
                    {
                        "number": 64,
                        "time": 228.2323805249999,
                        "value": 1
                    },
                    {
                        "number": 64,
                        "time": 228.45944281874992,
                        "value": 0
                    },
                    {
                        "number": 64,
                        "time": 228.53990333124992,
                        "value": 1
                    },
                    {
                        "number": 64,
                        "time": 228.78060299999993,
                        "value": 0
                    },
                    {
                        "number": 64,
                        "time": 228.88220144374992,
                        "value": 1
                    },
                    {
                        "number": 64,
                        "time": 229.76249399999992,
                        "value": 0
                    },
                    {
                        "number": 64,
                        "time": 229.8559100187499,
                        "value": 1
                    },
                    {
                        "number": 64,
                        "time": 230.7443849999999,
                        "value": 0
                    },
                    {
                        "number": 64,
                        "time": 230.8923505187499,
                        "value": 1
                    },
                    {
                        "number": 64,
                        "time": 231.7262759999999,
                        "value": 0
                    },
                    {
                        "number": 64,
                        "time": 231.83264752499989,
                        "value": 1
                    },
                    {
                        "number": 64,
                        "time": 232.7081669999999,
                        "value": 0
                    },
                    {
                        "number": 64,
                        "time": 232.8329489812499,
                        "value": 1
                    },
                    {
                        "number": 64,
                        "time": 233.0456920312499,
                        "value": 0
                    },
                    {
                        "number": 64,
                        "time": 233.1213794624999,
                        "value": 1
                    },
                    {
                        "number": 64,
                        "time": 233.6900579999999,
                        "value": 0
                    },
                    {
                        "number": 64,
                        "time": 233.75551739999992,
                        "value": 1
                    },
                    {
                        "number": 64,
                        "time": 234.67194899999993,
                        "value": 0
                    },
                    {
                        "number": 64,
                        "time": 234.7810479999999,
                        "value": 1
                    },
                    {
                        "number": 64,
                        "time": 235.7008889437499,
                        "value": 0
                    },
                    {
                        "number": 64,
                        "time": 241.76338399999992,
                        "value": 1
                    },
                    {
                        "number": 64,
                        "time": 242.5270769999999,
                        "value": 0
                    },
                    {
                        "number": 64,
                        "time": 242.79982449999991,
                        "value": 1
                    },
                    {
                        "number": 64,
                        "time": 243.1898534249999,
                        "value": 0
                    },
                    {
                        "number": 64,
                        "time": 243.68079892499992,
                        "value": 1
                    },
                    {
                        "number": 64,
                        "time": 244.17174442499993,
                        "value": 0
                    },
                    {
                        "number": 64,
                        "time": 245.63639849999993,
                        "value": 1
                    },
                    {
                        "number": 64,
                        "time": 246.13075334374992,
                        "value": 0
                    },
                    {
                        "number": 64,
                        "time": 246.45464099999992,
                        "value": 0
                    },
                    {
                        "number": 64,
                        "time": 246.72738849999993,
                        "value": 1
                    },
                    {
                        "number": 64,
                        "time": 247.11741742499993,
                        "value": 0
                    },
                    {
                        "number": 64,
                        "time": 247.60836292499994,
                        "value": 1
                    },
                    {
                        "number": 64,
                        "time": 248.09930842499995,
                        "value": 0
                    },
                    {
                        "number": 64,
                        "time": 249.56396249999995,
                        "value": 1
                    },
                    {
                        "number": 64,
                        "time": 250.05831734374993,
                        "value": 0
                    },
                    {
                        "number": 64,
                        "time": 250.38220499999994,
                        "value": 0
                    },
                    {
                        "number": 64,
                        "time": 250.65495249999995,
                        "value": 1
                    },
                    {
                        "number": 64,
                        "time": 251.04498142499995,
                        "value": 0
                    },
                    {
                        "number": 64,
                        "time": 251.53592692499996,
                        "value": 1
                    },
                    {
                        "number": 64,
                        "time": 252.02687242499997,
                        "value": 0
                    },
                    {
                        "number": 64,
                        "time": 252.34598699999995,
                        "value": 0
                    },
                    {
                        "number": 64,
                        "time": 252.61873449999996,
                        "value": 1
                    },
                    {
                        "number": 64,
                        "time": 253.00876342499996,
                        "value": 0
                    },
                    {
                        "number": 64,
                        "time": 253.49970892499996,
                        "value": 1
                    },
                    {
                        "number": 64,
                        "time": 253.99065442499997,
                        "value": 0
                    },
                    {
                        "number": 64,
                        "time": 267.18072352499996,
                        "value": 1
                    },
                    {
                        "number": 64,
                        "time": 268.72515624374995,
                        "value": 0
                    },
                    {
                        "number": 64,
                        "time": 269.67363567499996,
                        "value": 1
                    },
                    {
                        "number": 64,
                        "time": 270.68348329374993,
                        "value": 0
                    },
                    {
                        "number": 64,
                        "time": 271.1082875249999,
                        "value": 1
                    },
                    {
                        "number": 64,
                        "time": 272.6527202437499,
                        "value": 0
                    },
                    {
                        "number": 64,
                        "time": 273.6011996749999,
                        "value": 1
                    },
                    {
                        "number": 64,
                        "time": 274.6492319437499,
                        "value": 0
                    },
                    {
                        "number": 64,
                        "time": 274.9703921249999,
                        "value": 1
                    },
                    {
                        "number": 64,
                        "time": 275.5977113749999,
                        "value": 0
                    },
                    {
                        "number": 64,
                        "time": 275.7286301749999,
                        "value": 1
                    },
                    {
                        "number": 64,
                        "time": 275.9113709999999,
                        "value": 0
                    },
                    {
                        "number": 64,
                        "time": 276.07501949999994,
                        "value": 1
                    },
                    {
                        "number": 64,
                        "time": 276.57278368749996,
                        "value": 0
                    },
                    {
                        "number": 64,
                        "time": 276.93417412499997,
                        "value": 1
                    },
                    {
                        "number": 64,
                        "time": 277.561493375,
                        "value": 0
                    },
                    {
                        "number": 64,
                        "time": 277.692412175,
                        "value": 1
                    },
                    {
                        "number": 64,
                        "time": 277.875153,
                        "value": 0
                    },
                    {
                        "number": 64,
                        "time": 278.03880150000003,
                        "value": 1
                    },
                    {
                        "number": 64,
                        "time": 278.53656568750006,
                        "value": 0
                    },
                    {
                        "number": 64,
                        "time": 278.89795612500006,
                        "value": 1
                    },
                    {
                        "number": 64,
                        "time": 279.51572921250005,
                        "value": 0
                    },
                    {
                        "number": 64,
                        "time": 279.63710185,
                        "value": 1
                    },
                    {
                        "number": 64,
                        "time": 279.83893500000005,
                        "value": 0
                    },
                    {
                        "number": 64,
                        "time": 280.057133,
                        "value": 1
                    },
                    {
                        "number": 64,
                        "time": 280.1866880625,
                        "value": 0
                    },
                    {
                        "number": 64,
                        "time": 280.69399841250004,
                        "value": 1
                    },
                    {
                        "number": 64,
                        "time": 280.82355347500004,
                        "value": 0
                    },
                    {
                        "number": 64,
                        "time": 281.03902400000004,
                        "value": 1
                    },
                    {
                        "number": 64,
                        "time": 281.16176037500003,
                        "value": 0
                    },
                    {
                        "number": 64,
                        "time": 281.584519,
                        "value": 1
                    },
                    {
                        "number": 64,
                        "time": 281.802717,
                        "value": 0
                    },
                    {
                        "number": 64,
                        "time": 281.91863468749995,
                        "value": 1
                    },
                    {
                        "number": 64,
                        "time": 282.14160576874997,
                        "value": 0
                    },
                    {
                        "number": 64,
                        "time": 287.05515198125,
                        "value": 1
                    },
                    {
                        "number": 64,
                        "time": 287.70974598124997,
                        "value": 0
                    },
                    {
                        "number": 64,
                        "time": 289.69466591249994,
                        "value": 1
                    },
                    {
                        "number": 64,
                        "time": 291.6257182124999,
                        "value": 0
                    },
                    {
                        "number": 64,
                        "time": 291.8398249999999,
                        "value": 1
                    },
                    {
                        "number": 64,
                        "time": 292.6082910812499,
                        "value": 0
                    },
                    {
                        "number": 64,
                        "time": 292.7910319062499,
                        "value": 1
                    },
                    {
                        "number": 64,
                        "time": 293.58540899999986,
                        "value": 0
                    },
                    {
                        "number": 64,
                        "time": 293.78792401874983,
                        "value": 1
                    },
                    {
                        "number": 64,
                        "time": 294.25159476874984,
                        "value": 0
                    },
                    {
                        "number": 64,
                        "time": 295.5532822124998,
                        "value": 0
                    },
                    {
                        "number": 64,
                        "time": 295.7673889999998,
                        "value": 1
                    },
                    {
                        "number": 64,
                        "time": 296.5358550812498,
                        "value": 0
                    },
                    {
                        "number": 64,
                        "time": 296.7185959062498,
                        "value": 1
                    },
                    {
                        "number": 64,
                        "time": 297.51297299999976,
                        "value": 0
                    },
                    {
                        "number": 64,
                        "time": 297.71548801874974,
                        "value": 1
                    },
                    {
                        "number": 64,
                        "time": 298.17915876874974,
                        "value": 0
                    },
                    {
                        "number": 64,
                        "time": 299.4808462124997,
                        "value": 0
                    },
                    {
                        "number": 64,
                        "time": 299.6949529999997,
                        "value": 1
                    },
                    {
                        "number": 64,
                        "time": 300.4634190812497,
                        "value": 0
                    },
                    {
                        "number": 64,
                        "time": 300.6461599062497,
                        "value": 1
                    },
                    {
                        "number": 64,
                        "time": 301.44053699999967,
                        "value": 0
                    },
                    {
                        "number": 64,
                        "time": 301.64305201874964,
                        "value": 1
                    },
                    {
                        "number": 64,
                        "time": 302.10672276874965,
                        "value": 0
                    },
                    {
                        "number": 64,
                        "time": 302.4272010812496,
                        "value": 0
                    },
                    {
                        "number": 64,
                        "time": 302.6099419062496,
                        "value": 1
                    },
                    {
                        "number": 64,
                        "time": 303.4043189999996,
                        "value": 0
                    },
                    {
                        "number": 64,
                        "time": 303.60683401874957,
                        "value": 1
                    },
                    {
                        "number": 64,
                        "time": 304.0705047687496,
                        "value": 0
                    },
                    {
                        "number": 64,
                        "time": 310.64371951874955,
                        "value": 1
                    },
                    {
                        "number": 64,
                        "time": 310.94033242499955,
                        "value": 0
                    },
                    {
                        "number": 64,
                        "time": 311.06511440624956,
                        "value": 1
                    },
                    {
                        "number": 64,
                        "time": 311.25944699999957,
                        "value": 0
                    },
                    {
                        "number": 64,
                        "time": 311.7347095187496,
                        "value": 1
                    },
                    {
                        "number": 64,
                        "time": 311.9222234249996,
                        "value": 0
                    },
                    {
                        "number": 64,
                        "time": 312.02313999999956,
                        "value": 1
                    },
                    {
                        "number": 64,
                        "time": 312.24133799999953,
                        "value": 0
                    },
                    {
                        "number": 64,
                        "time": 312.7418296624995,
                        "value": 1
                    },
                    {
                        "number": 64,
                        "time": 312.96343700624953,
                        "value": 0
                    },
                    {
                        "number": 64,
                        "time": 313.04048817499955,
                        "value": 1
                    },
                    {
                        "number": 64,
                        "time": 313.22322899999955,
                        "value": 0
                    },
                    {
                        "number": 64,
                        "time": 313.36778517499954,
                        "value": 1
                    },
                    {
                        "number": 64,
                        "time": 313.8887328999995,
                        "value": 0
                    },
                    {
                        "number": 64,
                        "time": 313.9841945249995,
                        "value": 1
                    },
                    {
                        "number": 64,
                        "time": 314.2051199999995,
                        "value": 0
                    },
                    {
                        "number": 64,
                        "time": 314.3210376874995,
                        "value": 1
                    },
                    {
                        "number": 64,
                        "time": 314.54469063749946,
                        "value": 0
                    },
                    {
                        "number": 64,
                        "time": 314.65788084999946,
                        "value": 1
                    },
                    {
                        "number": 64,
                        "time": 314.8692601624995,
                        "value": 0
                    },
                    {
                        "number": 64,
                        "time": 314.9463113312495,
                        "value": 1
                    },
                    {
                        "number": 64,
                        "time": 315.1870109999995,
                        "value": 0
                    },
                    {
                        "number": 64,
                        "time": 315.28315449374946,
                        "value": 1
                    },
                    {
                        "number": 64,
                        "time": 315.52453603124945,
                        "value": 0
                    },
                    {
                        "number": 64,
                        "time": 315.58181300624943,
                        "value": 1
                    },
                    {
                        "number": 64,
                        "time": 315.84569621249943,
                        "value": 0
                    },
                    {
                        "number": 64,
                        "time": 315.93774849374944,
                        "value": 1
                    },
                    {
                        "number": 64,
                        "time": 316.16890199999943,
                        "value": 0
                    },
                    {
                        "number": 64,
                        "time": 316.25549933124944,
                        "value": 1
                    },
                    {
                        "number": 64,
                        "time": 316.50438142499945,
                        "value": 0
                    },
                    {
                        "number": 64,
                        "time": 316.60257052499946,
                        "value": 1
                    },
                    {
                        "number": 64,
                        "time": 316.83304216249945,
                        "value": 0
                    },
                    {
                        "number": 64,
                        "time": 316.91009333124947,
                        "value": 1
                    },
                    {
                        "number": 64,
                        "time": 317.15079299999945,
                        "value": 0
                    },
                    {
                        "number": 64,
                        "time": 317.2182980062494,
                        "value": 1
                    },
                    {
                        "number": 64,
                        "time": 317.8190243749994,
                        "value": 0
                    },
                    {
                        "number": 64,
                        "time": 317.8919843312494,
                        "value": 1
                    },
                    {
                        "number": 64,
                        "time": 318.13268399999936,
                        "value": 0
                    },
                    {
                        "number": 64,
                        "time": 318.17359612499934,
                        "value": 1
                    },
                    {
                        "number": 64,
                        "time": 318.47225463749936,
                        "value": 0
                    },
                    {
                        "number": 64,
                        "time": 318.5070299437494,
                        "value": 1
                    },
                    {
                        "number": 64,
                        "time": 318.7968241624994,
                        "value": 0
                    },
                    {
                        "number": 64,
                        "time": 318.8738753312494,
                        "value": 1
                    },
                    {
                        "number": 64,
                        "time": 319.1145749999994,
                        "value": 0
                    },
                    {
                        "number": 64,
                        "time": 319.21071849374937,
                        "value": 1
                    },
                    {
                        "number": 64,
                        "time": 319.45210003124936,
                        "value": 0
                    },
                    {
                        "number": 64,
                        "time": 319.50937700624934,
                        "value": 1
                    },
                    {
                        "number": 64,
                        "time": 319.77326021249934,
                        "value": 0
                    },
                    {
                        "number": 64,
                        "time": 319.86531249374934,
                        "value": 1
                    },
                    {
                        "number": 64,
                        "time": 320.09646599999934,
                        "value": 0
                    },
                    {
                        "number": 64,
                        "time": 320.18306333124934,
                        "value": 1
                    },
                    {
                        "number": 64,
                        "time": 320.43194542499936,
                        "value": 0
                    },
                    {
                        "number": 64,
                        "time": 320.53013452499937,
                        "value": 1
                    },
                    {
                        "number": 64,
                        "time": 320.76060616249936,
                        "value": 0
                    },
                    {
                        "number": 64,
                        "time": 320.8376573312494,
                        "value": 1
                    },
                    {
                        "number": 64,
                        "time": 321.07835699999936,
                        "value": 0
                    },
                    {
                        "number": 64,
                        "time": 323.04213899999934,
                        "value": 0
                    },
                    {
                        "number": 64,
                        "time": 323.13828249374933,
                        "value": 1
                    },
                    {
                        "number": 64,
                        "time": 323.3796640312493,
                        "value": 0
                    },
                    {
                        "number": 64,
                        "time": 323.4369410062493,
                        "value": 1
                    },
                    {
                        "number": 64,
                        "time": 323.7008242124993,
                        "value": 0
                    },
                    {
                        "number": 64,
                        "time": 323.7928764937493,
                        "value": 1
                    },
                    {
                        "number": 64,
                        "time": 324.0240299999993,
                        "value": 0
                    },
                    {
                        "number": 64,
                        "time": 324.1106273312493,
                        "value": 1
                    },
                    {
                        "number": 64,
                        "time": 324.3595094249993,
                        "value": 0
                    },
                    {
                        "number": 64,
                        "time": 324.45769852499933,
                        "value": 1
                    },
                    {
                        "number": 64,
                        "time": 324.6881701624993,
                        "value": 0
                    },
                    {
                        "number": 64,
                        "time": 324.76522133124934,
                        "value": 1
                    },
                    {
                        "number": 64,
                        "time": 325.0059209999993,
                        "value": 0
                    },
                    {
                        "number": 64,
                        "time": 326.9697029999993,
                        "value": 1
                    },
                    {
                        "number": 64,
                        "time": 327.3058642937493,
                        "value": 0
                    },
                    {
                        "number": 64,
                        "time": 327.44155617499933,
                        "value": 1
                    },
                    {
                        "number": 64,
                        "time": 327.63247942499936,
                        "value": 0
                    },
                    {
                        "number": 64,
                        "time": 327.75930701249933,
                        "value": 1
                    },
                    {
                        "number": 64,
                        "time": 327.9515939999993,
                        "value": 0
                    },
                    {
                        "number": 64,
                        "time": 328.11524249999934,
                        "value": 1
                    },
                    {
                        "number": 64,
                        "time": 328.28911903124936,
                        "value": 0
                    },
                    {
                        "number": 64,
                        "time": 328.39480868749934,
                        "value": 1
                    },
                    {
                        "number": 64,
                        "time": 328.61641603124934,
                        "value": 0
                    },
                    {
                        "number": 64,
                        "time": 328.70233149374934,
                        "value": 1
                    },
                    {
                        "number": 64,
                        "time": 328.93348499999934,
                        "value": 0
                    },
                    {
                        "number": 64,
                        "time": 329.0494026874993,
                        "value": 1
                    },
                    {
                        "number": 64,
                        "time": 329.9153759999993,
                        "value": 0
                    },
                    {
                        "number": 64,
                        "time": 330.0326574249993,
                        "value": 1
                    },
                    {
                        "number": 64,
                        "time": 330.89726699999926,
                        "value": 0
                    },
                    {
                        "number": 64,
                        "time": 330.89726699999926,
                        "value": 0
                    },
                    {
                        "number": 64,
                        "time": 331.04182317499925,
                        "value": 1
                    },
                    {
                        "number": 64,
                        "time": 331.56277089999924,
                        "value": 0
                    },
                    {
                        "number": 64,
                        "time": 331.6582325249992,
                        "value": 1
                    },
                    {
                        "number": 64,
                        "time": 331.8791579999992,
                        "value": 0
                    },
                    {
                        "number": 64,
                        "time": 331.9950756874992,
                        "value": 1
                    },
                    {
                        "number": 64,
                        "time": 332.21872863749917,
                        "value": 0
                    },
                    {
                        "number": 64,
                        "time": 332.33191884999917,
                        "value": 1
                    },
                    {
                        "number": 64,
                        "time": 332.5432981624992,
                        "value": 0
                    },
                    {
                        "number": 64,
                        "time": 332.6203493312492,
                        "value": 1
                    },
                    {
                        "number": 64,
                        "time": 332.8610489999992,
                        "value": 0
                    },
                    {
                        "number": 64,
                        "time": 332.9571924937492,
                        "value": 1
                    },
                    {
                        "number": 64,
                        "time": 333.19857403124917,
                        "value": 0
                    },
                    {
                        "number": 64,
                        "time": 333.25585100624915,
                        "value": 1
                    },
                    {
                        "number": 64,
                        "time": 333.51973421249915,
                        "value": 0
                    },
                    {
                        "number": 64,
                        "time": 333.61178649374915,
                        "value": 1
                    },
                    {
                        "number": 64,
                        "time": 333.84293999999915,
                        "value": 0
                    },
                    {
                        "number": 64,
                        "time": 333.92953733124915,
                        "value": 1
                    },
                    {
                        "number": 64,
                        "time": 334.17841942499916,
                        "value": 0
                    },
                    {
                        "number": 64,
                        "time": 334.2766085249992,
                        "value": 1
                    },
                    {
                        "number": 64,
                        "time": 334.50708016249916,
                        "value": 0
                    },
                    {
                        "number": 64,
                        "time": 334.5841313312492,
                        "value": 1
                    },
                    {
                        "number": 64,
                        "time": 334.82483099999916,
                        "value": 0
                    },
                    {
                        "number": 64,
                        "time": 334.82483099999916,
                        "value": 0
                    },
                    {
                        "number": 64,
                        "time": 334.96938717499916,
                        "value": 1
                    },
                    {
                        "number": 64,
                        "time": 335.49033489999914,
                        "value": 0
                    },
                    {
                        "number": 64,
                        "time": 335.5857965249991,
                        "value": 1
                    },
                    {
                        "number": 64,
                        "time": 335.8067219999991,
                        "value": 0
                    },
                    {
                        "number": 64,
                        "time": 335.9226396874991,
                        "value": 1
                    },
                    {
                        "number": 64,
                        "time": 336.1462926374991,
                        "value": 0
                    },
                    {
                        "number": 64,
                        "time": 336.2594828499991,
                        "value": 1
                    },
                    {
                        "number": 64,
                        "time": 336.4708621624991,
                        "value": 0
                    },
                    {
                        "number": 64,
                        "time": 336.5479133312491,
                        "value": 1
                    },
                    {
                        "number": 64,
                        "time": 336.7886129999991,
                        "value": 0
                    },
                    {
                        "number": 64,
                        "time": 336.8847564937491,
                        "value": 1
                    },
                    {
                        "number": 64,
                        "time": 337.12613803124907,
                        "value": 0
                    },
                    {
                        "number": 64,
                        "time": 337.18341500624905,
                        "value": 1
                    },
                    {
                        "number": 64,
                        "time": 337.44729821249905,
                        "value": 0
                    },
                    {
                        "number": 64,
                        "time": 337.53935049374905,
                        "value": 1
                    },
                    {
                        "number": 64,
                        "time": 337.77050399999905,
                        "value": 0
                    },
                    {
                        "number": 64,
                        "time": 337.85710133124905,
                        "value": 1
                    },
                    {
                        "number": 64,
                        "time": 338.10598342499907,
                        "value": 0
                    },
                    {
                        "number": 64,
                        "time": 338.2041725249991,
                        "value": 1
                    },
                    {
                        "number": 64,
                        "time": 338.43464416249907,
                        "value": 0
                    },
                    {
                        "number": 64,
                        "time": 338.5116953312491,
                        "value": 1
                    },
                    {
                        "number": 64,
                        "time": 338.75239499999907,
                        "value": 0
                    },
                    {
                        "number": 64,
                        "time": 338.75239499999907,
                        "value": 0
                    },
                    {
                        "number": 64,
                        "time": 338.89695117499906,
                        "value": 1
                    },
                    {
                        "number": 64,
                        "time": 340.71617699999905,
                        "value": 0
                    },
                    {
                        "number": 64,
                        "time": 340.81232049374904,
                        "value": 1
                    },
                    {
                        "number": 64,
                        "time": 341.69806799999907,
                        "value": 0
                    },
                    {
                        "number": 64,
                        "time": 341.7846653312491,
                        "value": 1
                    },
                    {
                        "number": 64,
                        "time": 342.0335474249991,
                        "value": 0
                    },
                    {
                        "number": 64,
                        "time": 342.1317365249991,
                        "value": 1
                    },
                    {
                        "number": 64,
                        "time": 342.6799589999991,
                        "value": 0
                    },
                    {
                        "number": 64,
                        "time": 342.6799589999991,
                        "value": 0
                    },
                    {
                        "number": 64,
                        "time": 342.8245151749991,
                        "value": 1
                    },
                    {
                        "number": 64,
                        "time": 344.64374099999907,
                        "value": 0
                    },
                    {
                        "number": 64,
                        "time": 345.69313700624906,
                        "value": 1
                    },
                    {
                        "number": 64,
                        "time": 345.96111142499905,
                        "value": 0
                    },
                    {
                        "number": 64,
                        "time": 346.06884668749905,
                        "value": 1
                    },
                    {
                        "number": 64,
                        "time": 346.29113589999906,
                        "value": 0
                    },
                    {
                        "number": 64,
                        "time": 346.37636949374905,
                        "value": 1
                    },
                    {
                        "number": 64,
                        "time": 346.60752299999905,
                        "value": 0
                    },
                    {
                        "number": 64,
                        "time": 346.73298684999907,
                        "value": 1
                    },
                    {
                        "number": 64,
                        "time": 346.94163868749905,
                        "value": 0
                    },
                    {
                        "number": 64,
                        "time": 347.030963493749,
                        "value": 1
                    },
                    {
                        "number": 64,
                        "time": 347.26893568749904,
                        "value": 0
                    },
                    {
                        "number": 64,
                        "time": 347.348714331249,
                        "value": 1
                    },
                    {
                        "number": 64,
                        "time": 347.589413999999,
                        "value": 0
                    },
                    {
                        "number": 64,
                        "time": 347.659646481249,
                        "value": 1
                    },
                    {
                        "number": 64,
                        "time": 347.92557529374903,
                        "value": 0
                    },
                    {
                        "number": 64,
                        "time": 348.025809999999,
                        "value": 1
                    },
                    {
                        "number": 64,
                        "time": 348.252872293749,
                        "value": 0
                    },
                    {
                        "number": 64,
                        "time": 348.322422906249,
                        "value": 1
                    },
                    {
                        "number": 64,
                        "time": 348.57130499999903,
                        "value": 0
                    },
                    {
                        "number": 64,
                        "time": 348.69676884999905,
                        "value": 1
                    },
                    {
                        "number": 64,
                        "time": 349.59206251874906,
                        "value": 0
                    },
                    {
                        "number": 64,
                        "time": 349.63502024999906,
                        "value": 1
                    },
                    {
                        "number": 64,
                        "time": 350.57190791249906,
                        "value": 0
                    },
                    {
                        "number": 64,
                        "time": 350.72805585624906,
                        "value": 1
                    },
                    {
                        "number": 64,
                        "time": 352.49886899999905,
                        "value": 0
                    },
                    {
                        "number": 64,
                        "time": 352.566374006249,
                        "value": 1
                    },
                    {
                        "number": 64,
                        "time": 352.834348424999,
                        "value": 0
                    },
                    {
                        "number": 64,
                        "time": 352.942083687499,
                        "value": 1
                    },
                    {
                        "number": 64,
                        "time": 353.164372899999,
                        "value": 0
                    },
                    {
                        "number": 64,
                        "time": 353.249606493749,
                        "value": 1
                    },
                    {
                        "number": 64,
                        "time": 353.54826500624904,
                        "value": 1
                    },
                    {
                        "number": 64,
                        "time": 353.816239424999,
                        "value": 0
                    },
                    {
                        "number": 64,
                        "time": 353.923974687499,
                        "value": 1
                    },
                    {
                        "number": 64,
                        "time": 354.14626389999904,
                        "value": 0
                    },
                    {
                        "number": 64,
                        "time": 354.23149749374903,
                        "value": 1
                    },
                    {
                        "number": 64,
                        "time": 354.462650999999,
                        "value": 0
                    },
                    {
                        "number": 64,
                        "time": 354.58811484999904,
                        "value": 1
                    },
                    {
                        "number": 64,
                        "time": 354.79676668749903,
                        "value": 0
                    },
                    {
                        "number": 64,
                        "time": 354.886091493749,
                        "value": 1
                    },
                    {
                        "number": 64,
                        "time": 355.124063687499,
                        "value": 0
                    },
                    {
                        "number": 64,
                        "time": 355.203842331249,
                        "value": 1
                    },
                    {
                        "number": 64,
                        "time": 355.444541999999,
                        "value": 0
                    },
                    {
                        "number": 64,
                        "time": 355.514774481249,
                        "value": 1
                    },
                    {
                        "number": 64,
                        "time": 355.780703293749,
                        "value": 0
                    },
                    {
                        "number": 64,
                        "time": 355.880937999999,
                        "value": 1
                    },
                    {
                        "number": 64,
                        "time": 356.108000293749,
                        "value": 0
                    },
                    {
                        "number": 64,
                        "time": 356.177550906249,
                        "value": 1
                    },
                    {
                        "number": 64,
                        "time": 356.426432999999,
                        "value": 0
                    },
                    {
                        "number": 64,
                        "time": 356.496665481249,
                        "value": 1
                    },
                    {
                        "number": 64,
                        "time": 356.76259429374903,
                        "value": 0
                    },
                    {
                        "number": 64,
                        "time": 356.862828999999,
                        "value": 1
                    },
                    {
                        "number": 64,
                        "time": 357.089891293749,
                        "value": 0
                    },
                    {
                        "number": 64,
                        "time": 357.159441906249,
                        "value": 1
                    },
                    {
                        "number": 64,
                        "time": 357.408323999999,
                        "value": 0
                    },
                    {
                        "number": 64,
                        "time": 357.47855648124903,
                        "value": 1
                    },
                    {
                        "number": 64,
                        "time": 357.74448529374905,
                        "value": 0
                    },
                    {
                        "number": 64,
                        "time": 357.84471999999903,
                        "value": 1
                    },
                    {
                        "number": 64,
                        "time": 358.07178229374904,
                        "value": 0
                    },
                    {
                        "number": 64,
                        "time": 358.14133290624903,
                        "value": 1
                    },
                    {
                        "number": 64,
                        "time": 358.39021499999905,
                        "value": 0
                    },
                    {
                        "number": 64,
                        "time": 358.46044748124905,
                        "value": 1
                    },
                    {
                        "number": 64,
                        "time": 358.72637629374907,
                        "value": 0
                    },
                    {
                        "number": 64,
                        "time": 358.82661099999905,
                        "value": 1
                    },
                    {
                        "number": 64,
                        "time": 359.05367329374906,
                        "value": 0
                    },
                    {
                        "number": 64,
                        "time": 359.12322390624905,
                        "value": 1
                    },
                    {
                        "number": 64,
                        "time": 359.37210599999906,
                        "value": 0
                    },
                    {
                        "number": 64,
                        "time": 359.44233848124907,
                        "value": 1
                    },
                    {
                        "number": 64,
                        "time": 359.7082672937491,
                        "value": 0
                    },
                    {
                        "number": 64,
                        "time": 359.80850199999907,
                        "value": 1
                    },
                    {
                        "number": 64,
                        "time": 360.0355642937491,
                        "value": 0
                    },
                    {
                        "number": 64,
                        "time": 360.10511490624907,
                        "value": 1
                    },
                    {
                        "number": 64,
                        "time": 360.3539969999991,
                        "value": 0
                    },
                    {
                        "number": 64,
                        "time": 360.9404041249991,
                        "value": 1
                    },
                    {
                        "number": 64,
                        "time": 361.3358879999991,
                        "value": 0
                    },
                    {
                        "number": 64,
                        "time": 361.9222951249991,
                        "value": 1
                    },
                    {
                        "number": 64,
                        "time": 362.3177789999991,
                        "value": 0
                    },
                    {
                        "number": 64,
                        "time": 362.9041861249991,
                        "value": 1
                    },
                    {
                        "number": 64,
                        "time": 363.29966999999914,
                        "value": 0
                    },
                    {
                        "number": 64,
                        "time": 363.88607712499913,
                        "value": 1
                    },
                    {
                        "number": 64,
                        "time": 364.28156099999916,
                        "value": 0
                    },
                    {
                        "number": 64,
                        "time": 364.93615499999913,
                        "value": 1
                    },
                    {
                        "number": 64,
                        "time": 367.22723399999916,
                        "value": 0
                    },
                    {
                        "number": 64,
                        "time": 370.30041645624914,
                        "value": 1
                    },
                    {
                        "number": 64,
                        "time": 370.51043203124914,
                        "value": 0
                    },
                    {
                        "number": 64,
                        "time": 371.5911939999991,
                        "value": 1
                    },
                    {
                        "number": 64,
                        "time": 372.13668899999914,
                        "value": 0
                    },
                    {
                        "number": 64,
                        "time": 372.37056998124916,
                        "value": 1
                    },
                    {
                        "number": 64,
                        "time": 372.47762337499915,
                        "value": 0
                    },
                    {
                        "number": 64,
                        "time": 374.26411949999914,
                        "value": 1
                    },
                    {
                        "number": 64,
                        "time": 374.44140537499914,
                        "value": 0
                    },
                    {
                        "number": 64,
                        "time": 375.55557891249913,
                        "value": 1
                    },
                    {
                        "number": 64,
                        "time": 376.06425299999916,
                        "value": 0
                    },
                    {
                        "number": 64,
                        "time": 376.2279014999992,
                        "value": 1
                    },
                    {
                        "number": 64,
                        "time": 376.4051873749992,
                        "value": 0
                    },
                    {
                        "number": 64,
                        "time": 377.42799049999917,
                        "value": 1
                    },
                    {
                        "number": 64,
                        "time": 378.0280349999992,
                        "value": 0
                    },
                    {
                        "number": 64,
                        "time": 378.2830539124992,
                        "value": 1
                    },
                    {
                        "number": 64,
                        "time": 378.59194045624923,
                        "value": 0
                    },
                    {
                        "number": 64,
                        "time": 379.0256089812492,
                        "value": 1
                    },
                    {
                        "number": 64,
                        "time": 379.4463219999992,
                        "value": 0
                    },
                    {
                        "number": 64,
                        "time": 380.1009159999992,
                        "value": 1
                    },
                    {
                        "number": 64,
                        "time": 380.45957896249917,
                        "value": 0
                    }
                ]
            },
            "id": 3,
            "name": "Pedale",
            "instrumentNumber": 0,
            "instrument": "acoustic grand piano",
            "instrumentFamily": "piano",
            "channelNumber": 0,
            "isPercussion": false
        },
        {
            "startTime": 0,
            "duration": 0,
            "length": 0,
            "notes": [],
            "controlChanges": {},
            "id": 4,
            "name": "Beethoven: Sonate Nr. 5 - 1. Satz"
        },
        {
            "startTime": 0,
            "duration": 0,
            "length": 0,
            "notes": [],
            "controlChanges": {},
            "id": 5,
            "name": "Copyright  2008 by Bernd Krueger"
        },
        {
            "startTime": 0,
            "duration": 0,
            "length": 0,
            "notes": [],
            "controlChanges": {},
            "id": 6,
            "name": "http://www.piano-midi.de/"
        },
        {
            "startTime": 0,
            "duration": 0,
            "length": 0,
            "notes": [],
            "controlChanges": {},
            "id": 7,
            "name": "Edition: 2012-05-02"
        },
        {
            "startTime": 0,
            "duration": 0,
            "length": 0,
            "notes": [],
            "controlChanges": {},
            "id": 8,
            "name": "Spur 8"
        },
        {
            "startTime": 0,
            "duration": 0,
            "length": 0,
            "notes": [],
            "controlChanges": {},
            "id": 9,
            "name": "Spur 9"
        },
        {
            "startTime": 0,
            "duration": 0,
            "length": 0,
            "notes": [],
            "controlChanges": {},
            "id": 10,
            "name": "Spur 10"
        },
        {
            "startTime": 0,
            "duration": 0,
            "length": 0,
            "notes": [],
            "controlChanges": {},
            "id": 11,
            "name": "Spur 11"
        },
        {
            "startTime": 0,
            "duration": 0,
            "length": 0,
            "notes": [],
            "controlChanges": {},
            "id": 12,
            "name": "Spur 12"
        },
        {
            "startTime": 0,
            "duration": 0,
            "length": 0,
            "notes": [],
            "controlChanges": {},
            "id": 13,
            "name": "Spur 13"
        },
        {
            "startTime": 0,
            "duration": 0,
            "length": 0,
            "notes": [],
            "controlChanges": {},
            "id": 14,
            "name": "Spur 14"
        },
        {
            "startTime": 0,
            "duration": 0,
            "length": 0,
            "notes": [],
            "controlChanges": {},
            "id": 15,
            "name": "Spur 15"
        },
        {
            "startTime": 0,
            "duration": 0,
            "length": 0,
            "notes": [],
            "controlChanges": {},
            "id": 16,
            "name": "Spur 16"
        }
    ]
}