{
    "header": {
        "PPQ": 480,
        "timeSignature": [
            2,
            4
        ],
        "bpm": 120.4899119821193,
        "name": ""
    },
    "startTime": 0.7469505,
    "duration": 118.01817900000083,
    "tracks": [
        {
            "startTime": 0.7469505,
            "duration": 118.01817900000083,
            "length": 1108,
            "notes": [
                {
                    "name": "D5",
                    "midi": 74,
                    "time": 0.7469505,
                    "velocity": 0.36220472440944884,
                    "duration": 0.24898350000000002
                },
                {
                    "name": "D5",
                    "midi": 74,
                    "time": 0.995934,
                    "velocity": 0.3937007874015748,
                    "duration": 0.2489834999999999
                },
                {
                    "name": "G3",
                    "midi": 55,
                    "time": 0.995934,
                    "velocity": 0.2755905511811024,
                    "duration": 0.2489834999999999
                },
                {
                    "name": "B4",
                    "midi": 71,
                    "time": 1.2449175,
                    "velocity": 0.3543307086614173,
                    "duration": 0.24898350000000002
                },
                {
                    "name": "B3",
                    "midi": 59,
                    "time": 1.2449175,
                    "velocity": 0.2204724409448819,
                    "duration": 0.24898350000000002
                },
                {
                    "name": "B4",
                    "midi": 71,
                    "time": 1.493901,
                    "velocity": 0.3858267716535433,
                    "duration": 0.24898350000000002
                },
                {
                    "name": "D4",
                    "midi": 62,
                    "time": 1.493901,
                    "velocity": 0.2204724409448819,
                    "duration": 0.24898350000000002
                },
                {
                    "name": "G5",
                    "midi": 79,
                    "time": 1.7428845,
                    "velocity": 0.4881889763779528,
                    "duration": 0.24898350000000002
                },
                {
                    "name": "B3",
                    "midi": 59,
                    "time": 1.7428845,
                    "velocity": 0.25196850393700787,
                    "duration": 0.24898350000000002
                },
                {
                    "name": "G5",
                    "midi": 79,
                    "time": 1.991868,
                    "velocity": 0.5433070866141733,
                    "duration": 0.7469504999999999
                },
                {
                    "name": "G3",
                    "midi": 55,
                    "time": 1.991868,
                    "velocity": 0.3228346456692913,
                    "duration": 0.2489834999999998
                },
                {
                    "name": "B3",
                    "midi": 59,
                    "time": 2.2408514999999998,
                    "velocity": 0.25984251968503935,
                    "duration": 0.24898350000000002
                },
                {
                    "name": "D4",
                    "midi": 62,
                    "time": 2.489835,
                    "velocity": 0.2440944881889764,
                    "duration": 0.24898350000000002
                },
                {
                    "name": "F#5",
                    "midi": 78,
                    "time": 2.7388185,
                    "velocity": 0.3858267716535433,
                    "duration": 0.12449174999999979
                },
                {
                    "name": "B3",
                    "midi": 59,
                    "time": 2.7388185,
                    "velocity": 0.2440944881889764,
                    "duration": 0.24898349999999958
                },
                {
                    "name": "E5",
                    "midi": 76,
                    "time": 2.8633102499999996,
                    "velocity": 0.3543307086614173,
                    "duration": 0.12449174999999979
                },
                {
                    "name": "D5",
                    "midi": 74,
                    "time": 2.9878019999999994,
                    "velocity": 0.3937007874015748,
                    "duration": 0.12449174999999979
                },
                {
                    "name": "F#3",
                    "midi": 54,
                    "time": 2.9878019999999994,
                    "velocity": 0.2755905511811024,
                    "duration": 0.24898349999999958
                },
                {
                    "name": "D5",
                    "midi": 74,
                    "time": 3.236785499999999,
                    "velocity": 0.3543307086614173,
                    "duration": 0.12449174999999979
                },
                {
                    "name": "A3",
                    "midi": 57,
                    "time": 3.236785499999999,
                    "velocity": 0.2440944881889764,
                    "duration": 0.24898349999999958
                },
                {
                    "name": "D5",
                    "midi": 74,
                    "time": 3.4857689999999986,
                    "velocity": 0.3937007874015748,
                    "duration": 0.13694092499999977
                },
                {
                    "name": "D4",
                    "midi": 62,
                    "time": 3.4857689999999986,
                    "velocity": 0.2755905511811024,
                    "duration": 0.24898349999999958
                },
                {
                    "name": "E5",
                    "midi": 76,
                    "time": 3.6102607499999984,
                    "velocity": 0.33858267716535434,
                    "duration": 0.13694092499999977
                },
                {
                    "name": "D5",
                    "midi": 74,
                    "time": 3.734752499999998,
                    "velocity": 0.33858267716535434,
                    "duration": 0.13694092499999977
                },
                {
                    "name": "A3",
                    "midi": 57,
                    "time": 3.734752499999998,
                    "velocity": 0.23622047244094488,
                    "duration": 0.24898349999999958
                },
                {
                    "name": "C5",
                    "midi": 72,
                    "time": 3.859244249999998,
                    "velocity": 0.33858267716535434,
                    "duration": 0.13694092499999977
                },
                {
                    "name": "B4",
                    "midi": 71,
                    "time": 3.9837359999999977,
                    "velocity": 0.41732283464566927,
                    "duration": 0.24898349999999958
                },
                {
                    "name": "G3",
                    "midi": 55,
                    "time": 3.9837359999999977,
                    "velocity": 0.2755905511811024,
                    "duration": 0.24898349999999958
                },
                {
                    "name": "D5",
                    "midi": 74,
                    "time": 4.232719499999997,
                    "velocity": 0.36220472440944884,
                    "duration": 0.12449174999999979
                },
                {
                    "name": "B3",
                    "midi": 59,
                    "time": 4.232719499999997,
                    "velocity": 0.23622047244094488,
                    "duration": 0.24898349999999958
                },
                {
                    "name": "D4",
                    "midi": 62,
                    "time": 4.481702999999997,
                    "velocity": 0.23622047244094488,
                    "duration": 0.24898349999999958
                },
                {
                    "name": "G5",
                    "midi": 79,
                    "time": 4.7306864999999965,
                    "velocity": 0.36220472440944884,
                    "duration": 0.24898349999999958
                },
                {
                    "name": "B3",
                    "midi": 59,
                    "time": 4.7306864999999965,
                    "velocity": 0.23622047244094488,
                    "duration": 0.24898349999999958
                },
                {
                    "name": "G5",
                    "midi": 79,
                    "time": 4.979669999999996,
                    "velocity": 0.41732283464566927,
                    "duration": 0.24898350000000047
                },
                {
                    "name": "G3",
                    "midi": 55,
                    "time": 4.979669999999996,
                    "velocity": 0.2755905511811024,
                    "duration": 0.24898350000000047
                },
                {
                    "name": "D5",
                    "midi": 74,
                    "time": 5.2286534999999965,
                    "velocity": 0.3858267716535433,
                    "duration": 0.24898349999999958
                },
                {
                    "name": "B3",
                    "midi": 59,
                    "time": 5.2286534999999965,
                    "velocity": 0.2204724409448819,
                    "duration": 0.24898349999999958
                },
                {
                    "name": "D5",
                    "midi": 74,
                    "time": 5.477636999999996,
                    "velocity": 0.4566929133858268,
                    "duration": 0.24898349999999958
                },
                {
                    "name": "D4",
                    "midi": 62,
                    "time": 5.477636999999996,
                    "velocity": 0.2677165354330709,
                    "duration": 0.24898349999999958
                },
                {
                    "name": "B5",
                    "midi": 83,
                    "time": 5.726620499999996,
                    "velocity": 0.4881889763779528,
                    "duration": 0.24898349999999958
                },
                {
                    "name": "B3",
                    "midi": 59,
                    "time": 5.726620499999996,
                    "velocity": 0.30708661417322836,
                    "duration": 0.24898349999999958
                },
                {
                    "name": "B5",
                    "midi": 83,
                    "time": 5.975603999999995,
                    "velocity": 0.5433070866141733,
                    "duration": 0.7469505000000005
                },
                {
                    "name": "G3",
                    "midi": 55,
                    "time": 5.975603999999995,
                    "velocity": 0.33070866141732286,
                    "duration": 0.24898350000000047
                },
                {
                    "name": "B3",
                    "midi": 59,
                    "time": 6.224587499999996,
                    "velocity": 0.2992125984251969,
                    "duration": 0.24898349999999958
                },
                {
                    "name": "E4",
                    "midi": 64,
                    "time": 6.473570999999995,
                    "velocity": 0.2440944881889764,
                    "duration": 0.24898350000000047
                },
                {
                    "name": "G5",
                    "midi": 79,
                    "time": 6.722554499999996,
                    "velocity": 0.3858267716535433,
                    "duration": 0.12449174999999979
                },
                {
                    "name": "E5",
                    "midi": 76,
                    "time": 6.847046249999996,
                    "velocity": 0.3543307086614173,
                    "duration": 0.12449174999999979
                },
                {
                    "name": "D5",
                    "midi": 74,
                    "time": 6.971537999999995,
                    "velocity": 0.3937007874015748,
                    "duration": 0.12449174999999979
                },
                {
                    "name": "F#4",
                    "midi": 66,
                    "time": 6.971537999999995,
                    "velocity": 0.2755905511811024,
                    "duration": 0.12449174999999979
                },
                {
                    "name": "A3",
                    "midi": 57,
                    "time": 6.971537999999995,
                    "velocity": 0.2755905511811024,
                    "duration": 0.12449174999999979
                },
                {
                    "name": "D5",
                    "midi": 74,
                    "time": 7.220521499999995,
                    "velocity": 0.3543307086614173,
                    "duration": 0.12449174999999979
                },
                {
                    "name": "F#4",
                    "midi": 66,
                    "time": 7.220521499999995,
                    "velocity": 0.2440944881889764,
                    "duration": 0.12449174999999979
                },
                {
                    "name": "A3",
                    "midi": 57,
                    "time": 7.220521499999995,
                    "velocity": 0.2440944881889764,
                    "duration": 0.12449174999999979
                },
                {
                    "name": "D5",
                    "midi": 74,
                    "time": 7.4695049999999945,
                    "velocity": 0.3937007874015748,
                    "duration": 0.1369409250000002
                },
                {
                    "name": "A3",
                    "midi": 57,
                    "time": 7.4695049999999945,
                    "velocity": 0.2755905511811024,
                    "duration": 0.12449174999999979
                },
                {
                    "name": "E4",
                    "midi": 64,
                    "time": 7.4695049999999945,
                    "velocity": 0.2755905511811024,
                    "duration": 0.12449174999999979
                },
                {
                    "name": "C#5",
                    "midi": 73,
                    "time": 7.593996749999994,
                    "velocity": 0.33858267716535434,
                    "duration": 0.1369409250000011
                },
                {
                    "name": "B4",
                    "midi": 71,
                    "time": 7.718488499999995,
                    "velocity": 0.33858267716535434,
                    "duration": 0.1369409250000011
                },
                {
                    "name": "E4",
                    "midi": 64,
                    "time": 7.718488499999995,
                    "velocity": 0.23622047244094488,
                    "duration": 0.12449175000000068
                },
                {
                    "name": "A3",
                    "midi": 57,
                    "time": 7.718488499999995,
                    "velocity": 0.23622047244094488,
                    "duration": 0.12449175000000068
                },
                {
                    "name": "C#5",
                    "midi": 73,
                    "time": 7.842980249999996,
                    "velocity": 0.33858267716535434,
                    "duration": 0.1369409250000011
                },
                {
                    "name": "D5",
                    "midi": 74,
                    "time": 7.967471999999996,
                    "velocity": 0.41732283464566927,
                    "duration": 0.4979670000000018
                },
                {
                    "name": "D3",
                    "midi": 50,
                    "time": 7.967471999999996,
                    "velocity": 0.2755905511811024,
                    "duration": 0.12449174999999979
                },
                {
                    "name": "D4",
                    "midi": 62,
                    "time": 8.216455499999997,
                    "velocity": 0.23622047244094488,
                    "duration": 0.12449175000000068
                },
                {
                    "name": "D3",
                    "midi": 50,
                    "time": 8.465438999999998,
                    "velocity": 0.2755905511811024,
                    "duration": 0.12449175000000068
                },
                {
                    "name": "A5",
                    "midi": 81,
                    "time": 8.7144225,
                    "velocity": 0.3937007874015748,
                    "duration": 0.1369409250000011
                },
                {
                    "name": "D4",
                    "midi": 62,
                    "time": 8.7144225,
                    "velocity": 0.2755905511811024,
                    "duration": 0.12449175000000068
                },
                {
                    "name": "G5",
                    "midi": 79,
                    "time": 8.83891425,
                    "velocity": 0.36220472440944884,
                    "duration": 0.1369409250000011
                },
                {
                    "name": "F#5",
                    "midi": 78,
                    "time": 8.963406,
                    "velocity": 0.3937007874015748,
                    "duration": 0.13694092500000288
                },
                {
                    "name": "D3",
                    "midi": 50,
                    "time": 8.963406,
                    "velocity": 0.2755905511811024,
                    "duration": 0.12449175000000245
                },
                {
                    "name": "E5",
                    "midi": 76,
                    "time": 9.087897750000003,
                    "velocity": 0.3543307086614173,
                    "duration": 0.1369409250000011
                },
                {
                    "name": "D5",
                    "midi": 74,
                    "time": 9.212389500000004,
                    "velocity": 0.3543307086614173,
                    "duration": 0.1369409250000011
                },
                {
                    "name": "D4",
                    "midi": 62,
                    "time": 9.212389500000004,
                    "velocity": 0.25196850393700787,
                    "duration": 0.12449175000000068
                },
                {
                    "name": "C#5",
                    "midi": 73,
                    "time": 9.336881250000005,
                    "velocity": 0.3543307086614173,
                    "duration": 0.13694092500000288
                },
                {
                    "name": "B4",
                    "midi": 71,
                    "time": 9.461373000000007,
                    "velocity": 0.3937007874015748,
                    "duration": 0.1369409250000011
                },
                {
                    "name": "D3",
                    "midi": 50,
                    "time": 9.461373000000007,
                    "velocity": 0.2755905511811024,
                    "duration": 0.12449175000000068
                },
                {
                    "name": "C#5",
                    "midi": 73,
                    "time": 9.585864750000008,
                    "velocity": 0.36220472440944884,
                    "duration": 0.1369409250000011
                },
                {
                    "name": "D5",
                    "midi": 74,
                    "time": 9.710356500000008,
                    "velocity": 0.36220472440944884,
                    "duration": 0.1369409250000011
                },
                {
                    "name": "D4",
                    "midi": 62,
                    "time": 9.710356500000008,
                    "velocity": 0.2440944881889764,
                    "duration": 0.12449175000000068
                },
                {
                    "name": "B4",
                    "midi": 71,
                    "time": 9.83484825000001,
                    "velocity": 0.36220472440944884,
                    "duration": 0.13694092500000288
                },
                {
                    "name": "A4",
                    "midi": 69,
                    "time": 9.959340000000012,
                    "velocity": 0.3937007874015748,
                    "duration": 0.24898350000000846
                },
                {
                    "name": "D3",
                    "midi": 50,
                    "time": 9.959340000000012,
                    "velocity": 0.2755905511811024,
                    "duration": 0.13694092500000465
                },
                {
                    "name": "E3",
                    "midi": 52,
                    "time": 10.083831750000016,
                    "velocity": 0.23622047244094488,
                    "duration": 0.13694092500000465
                },
                {
                    "name": "F#3",
                    "midi": 54,
                    "time": 10.20832350000002,
                    "velocity": 0.2440944881889764,
                    "duration": 0.13694092500000465
                },
                {
                    "name": "G3",
                    "midi": 55,
                    "time": 10.332815250000024,
                    "velocity": 0.2440944881889764,
                    "duration": 0.13694092500000465
                },
                {
                    "name": "A3",
                    "midi": 57,
                    "time": 10.457307000000029,
                    "velocity": 0.25196850393700787,
                    "duration": 0.13694092500000465
                },
                {
                    "name": "B3",
                    "midi": 59,
                    "time": 10.581798750000033,
                    "velocity": 0.2677165354330709,
                    "duration": 0.13694092500000465
                },
                {
                    "name": "A5",
                    "midi": 81,
                    "time": 10.706290500000037,
                    "velocity": 0.3937007874015748,
                    "duration": 0.13694092500000465
                },
                {
                    "name": "C#4",
                    "midi": 61,
                    "time": 10.706290500000037,
                    "velocity": 0.2677165354330709,
                    "duration": 0.13694092500000465
                },
                {
                    "name": "G5",
                    "midi": 79,
                    "time": 10.830782250000041,
                    "velocity": 0.36220472440944884,
                    "duration": 0.13694092500000465
                },
                {
                    "name": "D4",
                    "midi": 62,
                    "time": 10.830782250000041,
                    "velocity": 0.28346456692913385,
                    "duration": 0.12449175000000423
                },
                {
                    "name": "F#5",
                    "midi": 78,
                    "time": 10.955274000000045,
                    "velocity": 0.3937007874015748,
                    "duration": 0.13694092500000288
                },
                {
                    "name": "D3",
                    "midi": 50,
                    "time": 10.955274000000045,
                    "velocity": 0.2755905511811024,
                    "duration": 0.12449175000000245
                },
                {
                    "name": "E5",
                    "midi": 76,
                    "time": 11.079765750000048,
                    "velocity": 0.3543307086614173,
                    "duration": 0.13694092500000288
                },
                {
                    "name": "D5",
                    "midi": 74,
                    "time": 11.20425750000005,
                    "velocity": 0.3543307086614173,
                    "duration": 0.13694092500000288
                },
                {
                    "name": "D4",
                    "midi": 62,
                    "time": 11.20425750000005,
                    "velocity": 0.25196850393700787,
                    "duration": 0.12449175000000245
                },
                {
                    "name": "C#5",
                    "midi": 73,
                    "time": 11.328749250000053,
                    "velocity": 0.3543307086614173,
                    "duration": 0.1369409250000011
                },
                {
                    "name": "B4",
                    "midi": 71,
                    "time": 11.453241000000054,
                    "velocity": 0.3937007874015748,
                    "duration": 0.1369409250000011
                },
                {
                    "name": "D3",
                    "midi": 50,
                    "time": 11.453241000000054,
                    "velocity": 0.33070866141732286,
                    "duration": 0.12449175000000068
                },
                {
                    "name": "C#5",
                    "midi": 73,
                    "time": 11.577732750000054,
                    "velocity": 0.3779527559055118,
                    "duration": 0.13694092500000288
                },
                {
                    "name": "D5",
                    "midi": 74,
                    "time": 11.702224500000057,
                    "velocity": 0.3937007874015748,
                    "duration": 0.13694092500000288
                },
                {
                    "name": "D4",
                    "midi": 62,
                    "time": 11.702224500000057,
                    "velocity": 0.29133858267716534,
                    "duration": 0.12449175000000245
                },
                {
                    "name": "B4",
                    "midi": 71,
                    "time": 11.826716250000059,
                    "velocity": 0.4330708661417323,
                    "duration": 0.1369409250000011
                },
                {
                    "name": "A4",
                    "midi": 69,
                    "time": 11.95120800000006,
                    "velocity": 0.47244094488188976,
                    "duration": 0.24898350000000136
                },
                {
                    "name": "D3",
                    "midi": 50,
                    "time": 11.95120800000006,
                    "velocity": 0.3779527559055118,
                    "duration": 0.12449175000000068
                },
                {
                    "name": "F#3",
                    "midi": 54,
                    "time": 12.07569975000006,
                    "velocity": 0.3228346456692913,
                    "duration": 0.12449175000000068
                },
                {
                    "name": "A3",
                    "midi": 57,
                    "time": 12.200191500000061,
                    "velocity": 0.3700787401574803,
                    "duration": 0.12449175000000068
                },
                {
                    "name": "D4",
                    "midi": 62,
                    "time": 12.324683250000062,
                    "velocity": 0.3228346456692913,
                    "duration": 0.12449175000000245
                },
                {
                    "name": "D6",
                    "midi": 86,
                    "time": 12.449175000000064,
                    "velocity": 0.4881889763779528,
                    "duration": 0.1244917499999989
                },
                {
                    "name": "A5",
                    "midi": 81,
                    "time": 12.573666750000063,
                    "velocity": 0.41732283464566927,
                    "duration": 0.1244917499999989
                },
                {
                    "name": "F#5",
                    "midi": 78,
                    "time": 12.698158500000062,
                    "velocity": 0.4409448818897638,
                    "duration": 0.12449175000000068
                },
                {
                    "name": "D5",
                    "midi": 74,
                    "time": 12.822650250000063,
                    "velocity": 0.4251968503937008,
                    "duration": 0.12449175000000068
                },
                {
                    "name": "E5",
                    "midi": 76,
                    "time": 12.947142000000063,
                    "velocity": 0.4881889763779528,
                    "duration": 0.12449175000000068
                },
                {
                    "name": "G3",
                    "midi": 55,
                    "time": 12.947142000000063,
                    "velocity": 0.31496062992125984,
                    "duration": 0.12449175000000068
                },
                {
                    "name": "B3",
                    "midi": 59,
                    "time": 12.947142000000063,
                    "velocity": 0.3779527559055118,
                    "duration": 0.12449175000000068
                },
                {
                    "name": "E5",
                    "midi": 76,
                    "time": 13.196125500000065,
                    "velocity": 0.4566929133858268,
                    "duration": 0.12449175000000068
                },
                {
                    "name": "B3",
                    "midi": 59,
                    "time": 13.196125500000065,
                    "velocity": 0.33858267716535434,
                    "duration": 0.12449175000000068
                },
                {
                    "name": "G3",
                    "midi": 55,
                    "time": 13.196125500000065,
                    "velocity": 0.28346456692913385,
                    "duration": 0.12449175000000068
                },
                {
                    "name": "C#5",
                    "midi": 73,
                    "time": 13.445109000000066,
                    "velocity": 0.4094488188976378,
                    "duration": 0.12449175000000068
                },
                {
                    "name": "A5",
                    "midi": 81,
                    "time": 13.445109000000066,
                    "velocity": 0.4881889763779528,
                    "duration": 0.12449175000000068
                },
                {
                    "name": "A3",
                    "midi": 57,
                    "time": 13.445109000000066,
                    "velocity": 0.3779527559055118,
                    "duration": 0.12449175000000068
                },
                {
                    "name": "A5",
                    "midi": 81,
                    "time": 13.694092500000068,
                    "velocity": 0.44881889763779526,
                    "duration": 0.12449175000000068
                },
                {
                    "name": "C#5",
                    "midi": 73,
                    "time": 13.694092500000068,
                    "velocity": 0.3779527559055118,
                    "duration": 0.12449175000000068
                },
                {
                    "name": "A3",
                    "midi": 57,
                    "time": 13.694092500000068,
                    "velocity": 0.33858267716535434,
                    "duration": 0.12449175000000068
                },
                {
                    "name": "E5",
                    "midi": 76,
                    "time": 13.943076000000069,
                    "velocity": 0.4094488188976378,
                    "duration": 0.4979670000000027
                },
                {
                    "name": "G5",
                    "midi": 79,
                    "time": 13.943076000000069,
                    "velocity": 0.4881889763779528,
                    "duration": 0.4979670000000027
                },
                {
                    "name": "D3",
                    "midi": 50,
                    "time": 13.943076000000069,
                    "velocity": 0.2755905511811024,
                    "duration": 0.12449175000000068
                },
                {
                    "name": "D4",
                    "midi": 62,
                    "time": 14.19205950000007,
                    "velocity": 0.25196850393700787,
                    "duration": 0.12449175000000068
                },
                {
                    "name": "F#5",
                    "midi": 78,
                    "time": 14.441043000000072,
                    "velocity": 0.4645669291338583,
                    "duration": 0.24898350000000136
                },
                {
                    "name": "D5",
                    "midi": 74,
                    "time": 14.441043000000072,
                    "velocity": 0.3937007874015748,
                    "duration": 0.24898350000000136
                },
                {
                    "name": "D3",
                    "midi": 50,
                    "time": 14.441043000000072,
                    "velocity": 0.2755905511811024,
                    "duration": 0.12449175000000068
                },
                {
                    "name": "A5",
                    "midi": 81,
                    "time": 14.690026500000073,
                    "velocity": 0.3937007874015748,
                    "duration": 0.1369409250000011
                },
                {
                    "name": "D4",
                    "midi": 62,
                    "time": 14.690026500000073,
                    "velocity": 0.2755905511811024,
                    "duration": 0.12449175000000068
                },
                {
                    "name": "G5",
                    "midi": 79,
                    "time": 14.814518250000074,
                    "velocity": 0.36220472440944884,
                    "duration": 0.1369409250000011
                },
                {
                    "name": "F#5",
                    "midi": 78,
                    "time": 14.939010000000074,
                    "velocity": 0.3937007874015748,
                    "duration": 0.1369409250000011
                },
                {
                    "name": "D3",
                    "midi": 50,
                    "time": 14.939010000000074,
                    "velocity": 0.2755905511811024,
                    "duration": 0.12449175000000068
                },
                {
                    "name": "E5",
                    "midi": 76,
                    "time": 15.063501750000075,
                    "velocity": 0.3543307086614173,
                    "duration": 0.1369409250000011
                },
                {
                    "name": "D5",
                    "midi": 74,
                    "time": 15.187993500000076,
                    "velocity": 0.3543307086614173,
                    "duration": 0.1369409250000011
                },
                {
                    "name": "D4",
                    "midi": 62,
                    "time": 15.187993500000076,
                    "velocity": 0.25196850393700787,
                    "duration": 0.12449175000000068
                },
                {
                    "name": "C#5",
                    "midi": 73,
                    "time": 15.312485250000076,
                    "velocity": 0.3543307086614173,
                    "duration": 0.1369409250000011
                },
                {
                    "name": "B4",
                    "midi": 71,
                    "time": 15.436977000000077,
                    "velocity": 0.3937007874015748,
                    "duration": 0.1369409250000011
                },
                {
                    "name": "D3",
                    "midi": 50,
                    "time": 15.436977000000077,
                    "velocity": 0.2755905511811024,
                    "duration": 0.12449175000000068
                },
                {
                    "name": "C#5",
                    "midi": 73,
                    "time": 15.561468750000078,
                    "velocity": 0.36220472440944884,
                    "duration": 0.13694092500000288
                },
                {
                    "name": "D5",
                    "midi": 74,
                    "time": 15.68596050000008,
                    "velocity": 0.36220472440944884,
                    "duration": 0.1369409250000011
                },
                {
                    "name": "D4",
                    "midi": 62,
                    "time": 15.68596050000008,
                    "velocity": 0.2440944881889764,
                    "duration": 0.12449175000000068
                },
                {
                    "name": "B4",
                    "midi": 71,
                    "time": 15.81045225000008,
                    "velocity": 0.36220472440944884,
                    "duration": 0.1369409250000011
                },
                {
                    "name": "A4",
                    "midi": 69,
                    "time": 15.934944000000081,
                    "velocity": 0.3937007874015748,
                    "duration": 0.13694092499999932
                },
                {
                    "name": "D3",
                    "midi": 50,
                    "time": 15.934944000000081,
                    "velocity": 0.2755905511811024,
                    "duration": 0.1244917499999989
                },
                {
                    "name": "G4",
                    "midi": 67,
                    "time": 16.05943575000008,
                    "velocity": 0.36220472440944884,
                    "duration": 0.1369409250000011
                },
                {
                    "name": "F#4",
                    "midi": 66,
                    "time": 16.18392750000008,
                    "velocity": 0.36220472440944884,
                    "duration": 0.1369409250000011
                },
                {
                    "name": "D4",
                    "midi": 62,
                    "time": 16.18392750000008,
                    "velocity": 0.25196850393700787,
                    "duration": 0.12449175000000068
                },
                {
                    "name": "G4",
                    "midi": 67,
                    "time": 16.30841925000008,
                    "velocity": 0.36220472440944884,
                    "duration": 0.1369409250000011
                },
                {
                    "name": "A4",
                    "midi": 69,
                    "time": 16.432911000000082,
                    "velocity": 0.3937007874015748,
                    "duration": 0.12449175000000068
                },
                {
                    "name": "D3",
                    "midi": 50,
                    "time": 16.432911000000082,
                    "velocity": 0.2755905511811024,
                    "duration": 0.12449175000000068
                },
                {
                    "name": "A5",
                    "midi": 81,
                    "time": 16.681894500000084,
                    "velocity": 0.3937007874015748,
                    "duration": 0.1369409250000011
                },
                {
                    "name": "D4",
                    "midi": 62,
                    "time": 16.681894500000084,
                    "velocity": 0.2440944881889764,
                    "duration": 0.12449175000000068
                },
                {
                    "name": "G5",
                    "midi": 79,
                    "time": 16.806386250000084,
                    "velocity": 0.36220472440944884,
                    "duration": 0.1369409250000011
                },
                {
                    "name": "F#5",
                    "midi": 78,
                    "time": 16.930878000000085,
                    "velocity": 0.3937007874015748,
                    "duration": 0.13694092500000465
                },
                {
                    "name": "D3",
                    "midi": 50,
                    "time": 16.930878000000085,
                    "velocity": 0.2755905511811024,
                    "duration": 0.12449175000000423
                },
                {
                    "name": "E5",
                    "midi": 76,
                    "time": 17.05536975000009,
                    "velocity": 0.3543307086614173,
                    "duration": 0.13694092500000465
                },
                {
                    "name": "D5",
                    "midi": 74,
                    "time": 17.179861500000094,
                    "velocity": 0.3543307086614173,
                    "duration": 0.13694092500000465
                },
                {
                    "name": "D4",
                    "midi": 62,
                    "time": 17.179861500000094,
                    "velocity": 0.25196850393700787,
                    "duration": 0.12449175000000423
                },
                {
                    "name": "C#5",
                    "midi": 73,
                    "time": 17.304353250000098,
                    "velocity": 0.3543307086614173,
                    "duration": 0.13694092500000465
                },
                {
                    "name": "B4",
                    "midi": 71,
                    "time": 17.428845000000102,
                    "velocity": 0.3937007874015748,
                    "duration": 0.13694092500000465
                },
                {
                    "name": "D3",
                    "midi": 50,
                    "time": 17.428845000000102,
                    "velocity": 0.33070866141732286,
                    "duration": 0.12449175000000423
                },
                {
                    "name": "C#5",
                    "midi": 73,
                    "time": 17.553336750000106,
                    "velocity": 0.3779527559055118,
                    "duration": 0.13694092500000465
                },
                {
                    "name": "D5",
                    "midi": 74,
                    "time": 17.67782850000011,
                    "velocity": 0.3937007874015748,
                    "duration": 0.1369409250000011
                },
                {
                    "name": "D4",
                    "midi": 62,
                    "time": 17.67782850000011,
                    "velocity": 0.29133858267716534,
                    "duration": 0.12449175000000068
                },
                {
                    "name": "B4",
                    "midi": 71,
                    "time": 17.80232025000011,
                    "velocity": 0.4330708661417323,
                    "duration": 0.1369409250000011
                },
                {
                    "name": "A4",
                    "midi": 69,
                    "time": 17.926812000000112,
                    "velocity": 0.47244094488188976,
                    "duration": 0.24898350000000136
                },
                {
                    "name": "D3",
                    "midi": 50,
                    "time": 17.926812000000112,
                    "velocity": 0.3779527559055118,
                    "duration": 0.12449175000000068
                },
                {
                    "name": "F#3",
                    "midi": 54,
                    "time": 18.051303750000113,
                    "velocity": 0.3228346456692913,
                    "duration": 0.12449175000000068
                },
                {
                    "name": "A3",
                    "midi": 57,
                    "time": 18.175795500000113,
                    "velocity": 0.3700787401574803,
                    "duration": 0.12449175000000068
                },
                {
                    "name": "D4",
                    "midi": 62,
                    "time": 18.300287250000114,
                    "velocity": 0.3228346456692913,
                    "duration": 0.12449175000000068
                },
                {
                    "name": "D5",
                    "midi": 74,
                    "time": 18.424779000000115,
                    "velocity": 0.4881889763779528,
                    "duration": 0.12449175000000068
                },
                {
                    "name": "F#5",
                    "midi": 78,
                    "time": 18.549270750000115,
                    "velocity": 0.41732283464566927,
                    "duration": 0.12449175000000423
                },
                {
                    "name": "A5",
                    "midi": 81,
                    "time": 18.67376250000012,
                    "velocity": 0.4409448818897638,
                    "duration": 0.12449175000000423
                },
                {
                    "name": "D6",
                    "midi": 86,
                    "time": 18.798254250000124,
                    "velocity": 0.4251968503937008,
                    "duration": 0.12449175000000423
                },
                {
                    "name": "C#6",
                    "midi": 85,
                    "time": 18.922746000000128,
                    "velocity": 0.5275590551181102,
                    "duration": 0.13694092500000465
                },
                {
                    "name": "G3",
                    "midi": 55,
                    "time": 18.922746000000128,
                    "velocity": 0.3858267716535433,
                    "duration": 0.24898350000000846
                },
                {
                    "name": "B5",
                    "midi": 83,
                    "time": 19.047237750000132,
                    "velocity": 0.4330708661417323,
                    "duration": 0.13694092500000465
                },
                {
                    "name": "A5",
                    "midi": 81,
                    "time": 19.171729500000136,
                    "velocity": 0.4566929133858268,
                    "duration": 0.13694092500000465
                },
                {
                    "name": "E3",
                    "midi": 52,
                    "time": 19.171729500000136,
                    "velocity": 0.31496062992125984,
                    "duration": 0.24898350000000846
                },
                {
                    "name": "G5",
                    "midi": 79,
                    "time": 19.29622125000014,
                    "velocity": 0.4330708661417323,
                    "duration": 0.13694092500000465
                },
                {
                    "name": "F#5",
                    "midi": 78,
                    "time": 19.420713000000145,
                    "velocity": 0.5196850393700787,
                    "duration": 0.13694092500000465
                },
                {
                    "name": "A3",
                    "midi": 57,
                    "time": 19.420713000000145,
                    "velocity": 0.3700787401574803,
                    "duration": 0.24898350000000846
                },
                {
                    "name": "E5",
                    "midi": 76,
                    "time": 19.54520475000015,
                    "velocity": 0.41732283464566927,
                    "duration": 0.13694092500000465
                },
                {
                    "name": "D5",
                    "midi": 74,
                    "time": 19.669696500000153,
                    "velocity": 0.4566929133858268,
                    "duration": 0.13694092500000465
                },
                {
                    "name": "A2",
                    "midi": 45,
                    "time": 19.669696500000153,
                    "velocity": 0.33070866141732286,
                    "duration": 0.2489835000000049
                },
                {
                    "name": "C#5",
                    "midi": 73,
                    "time": 19.794188250000158,
                    "velocity": 0.4409448818897638,
                    "duration": 0.12449175000000068
                },
                {
                    "name": "D5",
                    "midi": 74,
                    "time": 19.91868000000016,
                    "velocity": 0.5275590551181102,
                    "duration": 0.12449175000000068
                },
                {
                    "name": "D3",
                    "midi": 50,
                    "time": 19.91868000000016,
                    "velocity": 0.3858267716535433,
                    "duration": 0.24898350000000136
                },
                {
                    "name": "F#5",
                    "midi": 78,
                    "time": 20.04317175000016,
                    "velocity": 0.4566929133858268,
                    "duration": 0.12449175000000068
                },
                {
                    "name": "A5",
                    "midi": 81,
                    "time": 20.16766350000016,
                    "velocity": 0.5039370078740157,
                    "duration": 0.12449175000000068
                },
                {
                    "name": "F#5",
                    "midi": 78,
                    "time": 20.29215525000016,
                    "velocity": 0.4566929133858268,
                    "duration": 0.12449175000000068
                },
                {
                    "name": "A5",
                    "midi": 81,
                    "time": 20.41664700000016,
                    "velocity": 0.5275590551181102,
                    "duration": 0.12449175000000068
                },
                {
                    "name": "F#5",
                    "midi": 78,
                    "time": 20.54113875000016,
                    "velocity": 0.4645669291338583,
                    "duration": 0.12449175000000068
                },
                {
                    "name": "G5",
                    "midi": 79,
                    "time": 20.665630500000162,
                    "velocity": 0.5039370078740157,
                    "duration": 0.12449175000000068
                },
                {
                    "name": "A2",
                    "midi": 45,
                    "time": 20.665630500000162,
                    "velocity": 0.3858267716535433,
                    "duration": 0.12449175000000068
                },
                {
                    "name": "E5",
                    "midi": 76,
                    "time": 20.790122250000163,
                    "velocity": 0.4566929133858268,
                    "duration": 0.12449175000000068
                },
                {
                    "name": "D5",
                    "midi": 74,
                    "time": 20.914614000000164,
                    "velocity": 0.5275590551181102,
                    "duration": 0.12449175000000068
                },
                {
                    "name": "D3",
                    "midi": 50,
                    "time": 20.914614000000164,
                    "velocity": 0.44881889763779526,
                    "duration": 0.12449175000000068
                },
                {
                    "name": "F#5",
                    "midi": 78,
                    "time": 21.039105750000164,
                    "velocity": 0.4645669291338583,
                    "duration": 0.12449175000000068
                },
                {
                    "name": "A5",
                    "midi": 81,
                    "time": 21.163597500000165,
                    "velocity": 0.49606299212598426,
                    "duration": 0.12449175000000068
                },
                {
                    "name": "F#5",
                    "midi": 78,
                    "time": 21.288089250000166,
                    "velocity": 0.4566929133858268,
                    "duration": 0.12449175000000068
                },
                {
                    "name": "A5",
                    "midi": 81,
                    "time": 21.412581000000166,
                    "velocity": 0.5275590551181102,
                    "duration": 0.12449174999999713
                },
                {
                    "name": "F#5",
                    "midi": 78,
                    "time": 21.537072750000164,
                    "velocity": 0.4645669291338583,
                    "duration": 0.12449175000000068
                },
                {
                    "name": "G5",
                    "midi": 79,
                    "time": 21.661564500000164,
                    "velocity": 0.5118110236220472,
                    "duration": 0.12449175000000068
                },
                {
                    "name": "A2",
                    "midi": 45,
                    "time": 21.661564500000164,
                    "velocity": 0.3858267716535433,
                    "duration": 0.12449175000000068
                },
                {
                    "name": "E5",
                    "midi": 76,
                    "time": 21.786056250000165,
                    "velocity": 0.4645669291338583,
                    "duration": 0.12449175000000068
                },
                {
                    "name": "D5",
                    "midi": 74,
                    "time": 21.910548000000166,
                    "velocity": 0.5511811023622047,
                    "duration": 0.4979670000000027
                },
                {
                    "name": "D3",
                    "midi": 50,
                    "time": 21.910548000000166,
                    "velocity": 0.4409448818897638,
                    "duration": 0.12449175000000068
                },
                {
                    "name": "D2",
                    "midi": 38,
                    "time": 22.159531500000167,
                    "velocity": 0.3858267716535433,
                    "duration": 0.12449175000000068
                },
                {
                    "name": "D2",
                    "midi": 38,
                    "time": 22.40851500000017,
                    "velocity": 0.4251968503937008,
                    "duration": 0.12449175000000068
                },
                {
                    "name": "D5",
                    "midi": 74,
                    "time": 22.65749850000017,
                    "velocity": 0.36220472440944884,
                    "duration": 0.24898350000000136
                },
                {
                    "name": "D5",
                    "midi": 74,
                    "time": 22.90648200000017,
                    "velocity": 0.3937007874015748,
                    "duration": 0.24898350000000136
                },
                {
                    "name": "G3",
                    "midi": 55,
                    "time": 22.90648200000017,
                    "velocity": 0.2755905511811024,
                    "duration": 0.24898350000000136
                },
                {
                    "name": "B4",
                    "midi": 71,
                    "time": 23.155465500000172,
                    "velocity": 0.3543307086614173,
                    "duration": 0.24898350000000136
                },
                {
                    "name": "B3",
                    "midi": 59,
                    "time": 23.155465500000172,
                    "velocity": 0.2204724409448819,
                    "duration": 0.24898350000000136
                },
                {
                    "name": "B4",
                    "midi": 71,
                    "time": 23.404449000000174,
                    "velocity": 0.3858267716535433,
                    "duration": 0.24898350000000136
                },
                {
                    "name": "D4",
                    "midi": 62,
                    "time": 23.404449000000174,
                    "velocity": 0.2204724409448819,
                    "duration": 0.24898350000000136
                },
                {
                    "name": "G5",
                    "midi": 79,
                    "time": 23.653432500000175,
                    "velocity": 0.4881889763779528,
                    "duration": 0.24898350000000136
                },
                {
                    "name": "B3",
                    "midi": 59,
                    "time": 23.653432500000175,
                    "velocity": 0.25196850393700787,
                    "duration": 0.24898350000000136
                },
                {
                    "name": "G5",
                    "midi": 79,
                    "time": 23.902416000000176,
                    "velocity": 0.5433070866141733,
                    "duration": 0.7469505000000041
                },
                {
                    "name": "G3",
                    "midi": 55,
                    "time": 23.902416000000176,
                    "velocity": 0.3228346456692913,
                    "duration": 0.24898350000000136
                },
                {
                    "name": "B3",
                    "midi": 59,
                    "time": 24.151399500000178,
                    "velocity": 0.25984251968503935,
                    "duration": 0.24898350000000136
                },
                {
                    "name": "D4",
                    "midi": 62,
                    "time": 24.40038300000018,
                    "velocity": 0.2440944881889764,
                    "duration": 0.24898350000000136
                },
                {
                    "name": "F#5",
                    "midi": 78,
                    "time": 24.64936650000018,
                    "velocity": 0.3858267716535433,
                    "duration": 0.12449175000000068
                },
                {
                    "name": "B3",
                    "midi": 59,
                    "time": 24.64936650000018,
                    "velocity": 0.2440944881889764,
                    "duration": 0.24898350000000136
                },
                {
                    "name": "E5",
                    "midi": 76,
                    "time": 24.77385825000018,
                    "velocity": 0.3543307086614173,
                    "duration": 0.12449175000000068
                },
                {
                    "name": "D5",
                    "midi": 74,
                    "time": 24.898350000000182,
                    "velocity": 0.3937007874015748,
                    "duration": 0.12449175000000068
                },
                {
                    "name": "F#3",
                    "midi": 54,
                    "time": 24.898350000000182,
                    "velocity": 0.2755905511811024,
                    "duration": 0.24898350000000136
                },
                {
                    "name": "D5",
                    "midi": 74,
                    "time": 25.147333500000183,
                    "velocity": 0.3543307086614173,
                    "duration": 0.12449175000000068
                },
                {
                    "name": "A3",
                    "midi": 57,
                    "time": 25.147333500000183,
                    "velocity": 0.2440944881889764,
                    "duration": 0.24898350000000136
                },
                {
                    "name": "D5",
                    "midi": 74,
                    "time": 25.396317000000185,
                    "velocity": 0.3937007874015748,
                    "duration": 0.1369409250000011
                },
                {
                    "name": "D4",
                    "midi": 62,
                    "time": 25.396317000000185,
                    "velocity": 0.2755905511811024,
                    "duration": 0.24898350000000136
                },
                {
                    "name": "E5",
                    "midi": 76,
                    "time": 25.520808750000185,
                    "velocity": 0.33858267716535434,
                    "duration": 0.1369409250000011
                },
                {
                    "name": "D5",
                    "midi": 74,
                    "time": 25.645300500000186,
                    "velocity": 0.33858267716535434,
                    "duration": 0.1369409250000011
                },
                {
                    "name": "A3",
                    "midi": 57,
                    "time": 25.645300500000186,
                    "velocity": 0.23622047244094488,
                    "duration": 0.24898350000000136
                },
                {
                    "name": "C5",
                    "midi": 72,
                    "time": 25.769792250000187,
                    "velocity": 0.33858267716535434,
                    "duration": 0.1369409250000011
                },
                {
                    "name": "B4",
                    "midi": 71,
                    "time": 25.894284000000187,
                    "velocity": 0.41732283464566927,
                    "duration": 0.24898350000000136
                },
                {
                    "name": "G3",
                    "midi": 55,
                    "time": 25.894284000000187,
                    "velocity": 0.2755905511811024,
                    "duration": 0.24898350000000136
                },
                {
                    "name": "D5",
                    "midi": 74,
                    "time": 26.14326750000019,
                    "velocity": 0.36220472440944884,
                    "duration": 0.12449175000000068
                },
                {
                    "name": "B3",
                    "midi": 59,
                    "time": 26.14326750000019,
                    "velocity": 0.23622047244094488,
                    "duration": 0.24898350000000136
                },
                {
                    "name": "D4",
                    "midi": 62,
                    "time": 26.39225100000019,
                    "velocity": 0.23622047244094488,
                    "duration": 0.24898350000000136
                },
                {
                    "name": "G5",
                    "midi": 79,
                    "time": 26.64123450000019,
                    "velocity": 0.36220472440944884,
                    "duration": 0.24898350000000136
                },
                {
                    "name": "B3",
                    "midi": 59,
                    "time": 26.64123450000019,
                    "velocity": 0.23622047244094488,
                    "duration": 0.24898350000000136
                },
                {
                    "name": "G5",
                    "midi": 79,
                    "time": 26.890218000000193,
                    "velocity": 0.41732283464566927,
                    "duration": 0.2489834999999978
                },
                {
                    "name": "G3",
                    "midi": 55,
                    "time": 26.890218000000193,
                    "velocity": 0.2755905511811024,
                    "duration": 0.2489834999999978
                },
                {
                    "name": "D5",
                    "midi": 74,
                    "time": 27.13920150000019,
                    "velocity": 0.3858267716535433,
                    "duration": 0.24898350000000136
                },
                {
                    "name": "B3",
                    "midi": 59,
                    "time": 27.13920150000019,
                    "velocity": 0.2204724409448819,
                    "duration": 0.24898350000000136
                },
                {
                    "name": "D5",
                    "midi": 74,
                    "time": 27.388185000000192,
                    "velocity": 0.4566929133858268,
                    "duration": 0.24898350000000136
                },
                {
                    "name": "D4",
                    "midi": 62,
                    "time": 27.388185000000192,
                    "velocity": 0.2677165354330709,
                    "duration": 0.24898350000000136
                },
                {
                    "name": "B5",
                    "midi": 83,
                    "time": 27.637168500000193,
                    "velocity": 0.4881889763779528,
                    "duration": 0.24898350000000136
                },
                {
                    "name": "B3",
                    "midi": 59,
                    "time": 27.637168500000193,
                    "velocity": 0.30708661417322836,
                    "duration": 0.24898350000000136
                },
                {
                    "name": "B5",
                    "midi": 83,
                    "time": 27.886152000000195,
                    "velocity": 0.5433070866141733,
                    "duration": 0.746950499999997
                },
                {
                    "name": "G3",
                    "midi": 55,
                    "time": 27.886152000000195,
                    "velocity": 0.33070866141732286,
                    "duration": 0.2489834999999978
                },
                {
                    "name": "B3",
                    "midi": 59,
                    "time": 28.135135500000192,
                    "velocity": 0.2992125984251969,
                    "duration": 0.24898350000000136
                },
                {
                    "name": "E4",
                    "midi": 64,
                    "time": 28.384119000000194,
                    "velocity": 0.2440944881889764,
                    "duration": 0.2489834999999978
                },
                {
                    "name": "G5",
                    "midi": 79,
                    "time": 28.63310250000019,
                    "velocity": 0.3858267716535433,
                    "duration": 0.12449175000000068
                },
                {
                    "name": "E5",
                    "midi": 76,
                    "time": 28.757594250000192,
                    "velocity": 0.3543307086614173,
                    "duration": 0.12449175000000068
                },
                {
                    "name": "D5",
                    "midi": 74,
                    "time": 28.882086000000193,
                    "velocity": 0.3937007874015748,
                    "duration": 0.12449175000000068
                },
                {
                    "name": "F#4",
                    "midi": 66,
                    "time": 28.882086000000193,
                    "velocity": 0.2755905511811024,
                    "duration": 0.12449175000000068
                },
                {
                    "name": "A3",
                    "midi": 57,
                    "time": 28.882086000000193,
                    "velocity": 0.2755905511811024,
                    "duration": 0.12449175000000068
                },
                {
                    "name": "D5",
                    "midi": 74,
                    "time": 29.131069500000194,
                    "velocity": 0.3543307086614173,
                    "duration": 0.12449175000000068
                },
                {
                    "name": "F#4",
                    "midi": 66,
                    "time": 29.131069500000194,
                    "velocity": 0.2440944881889764,
                    "duration": 0.12449175000000068
                },
                {
                    "name": "A3",
                    "midi": 57,
                    "time": 29.131069500000194,
                    "velocity": 0.2440944881889764,
                    "duration": 0.12449175000000068
                },
                {
                    "name": "D5",
                    "midi": 74,
                    "time": 29.380053000000196,
                    "velocity": 0.3937007874015748,
                    "duration": 0.1369409250000011
                },
                {
                    "name": "A3",
                    "midi": 57,
                    "time": 29.380053000000196,
                    "velocity": 0.2755905511811024,
                    "duration": 0.12449175000000068
                },
                {
                    "name": "E4",
                    "midi": 64,
                    "time": 29.380053000000196,
                    "velocity": 0.2755905511811024,
                    "duration": 0.12449175000000068
                },
                {
                    "name": "C#5",
                    "midi": 73,
                    "time": 29.504544750000196,
                    "velocity": 0.33858267716535434,
                    "duration": 0.1369409250000011
                },
                {
                    "name": "B4",
                    "midi": 71,
                    "time": 29.629036500000197,
                    "velocity": 0.33858267716535434,
                    "duration": 0.1369409250000011
                },
                {
                    "name": "E4",
                    "midi": 64,
                    "time": 29.629036500000197,
                    "velocity": 0.23622047244094488,
                    "duration": 0.12449175000000068
                },
                {
                    "name": "A3",
                    "midi": 57,
                    "time": 29.629036500000197,
                    "velocity": 0.23622047244094488,
                    "duration": 0.12449175000000068
                },
                {
                    "name": "C#5",
                    "midi": 73,
                    "time": 29.753528250000198,
                    "velocity": 0.33858267716535434,
                    "duration": 0.1369409250000011
                },
                {
                    "name": "D5",
                    "midi": 74,
                    "time": 29.8780200000002,
                    "velocity": 0.41732283464566927,
                    "duration": 0.4979670000000027
                },
                {
                    "name": "D3",
                    "midi": 50,
                    "time": 29.8780200000002,
                    "velocity": 0.2755905511811024,
                    "duration": 0.12449175000000068
                },
                {
                    "name": "D4",
                    "midi": 62,
                    "time": 30.1270035000002,
                    "velocity": 0.23622047244094488,
                    "duration": 0.12449175000000068
                },
                {
                    "name": "D3",
                    "midi": 50,
                    "time": 30.3759870000002,
                    "velocity": 0.2755905511811024,
                    "duration": 0.12449175000000068
                },
                {
                    "name": "A5",
                    "midi": 81,
                    "time": 30.624970500000202,
                    "velocity": 0.3937007874015748,
                    "duration": 0.1369409250000011
                },
                {
                    "name": "D4",
                    "midi": 62,
                    "time": 30.624970500000202,
                    "velocity": 0.2755905511811024,
                    "duration": 0.12449175000000068
                },
                {
                    "name": "G5",
                    "midi": 79,
                    "time": 30.749462250000203,
                    "velocity": 0.36220472440944884,
                    "duration": 0.1369409250000011
                },
                {
                    "name": "F#5",
                    "midi": 78,
                    "time": 30.873954000000204,
                    "velocity": 0.3937007874015748,
                    "duration": 0.1369409250000011
                },
                {
                    "name": "D3",
                    "midi": 50,
                    "time": 30.873954000000204,
                    "velocity": 0.2755905511811024,
                    "duration": 0.12449175000000068
                },
                {
                    "name": "E5",
                    "midi": 76,
                    "time": 30.998445750000204,
                    "velocity": 0.3543307086614173,
                    "duration": 0.13694092500000465
                },
                {
                    "name": "D5",
                    "midi": 74,
                    "time": 31.12293750000021,
                    "velocity": 0.3543307086614173,
                    "duration": 0.13694092500000465
                },
                {
                    "name": "D4",
                    "midi": 62,
                    "time": 31.12293750000021,
                    "velocity": 0.25196850393700787,
                    "duration": 0.12449175000000423
                },
                {
                    "name": "C#5",
                    "midi": 73,
                    "time": 31.247429250000213,
                    "velocity": 0.3543307086614173,
                    "duration": 0.13694092500000465
                },
                {
                    "name": "B4",
                    "midi": 71,
                    "time": 31.371921000000217,
                    "velocity": 0.3937007874015748,
                    "duration": 0.13694092500000465
                },
                {
                    "name": "D3",
                    "midi": 50,
                    "time": 31.371921000000217,
                    "velocity": 0.2755905511811024,
                    "duration": 0.12449175000000423
                },
                {
                    "name": "C#5",
                    "midi": 73,
                    "time": 31.49641275000022,
                    "velocity": 0.36220472440944884,
                    "duration": 0.13694092500000465
                },
                {
                    "name": "D5",
                    "midi": 74,
                    "time": 31.620904500000226,
                    "velocity": 0.36220472440944884,
                    "duration": 0.1369409250000011
                },
                {
                    "name": "D4",
                    "midi": 62,
                    "time": 31.620904500000226,
                    "velocity": 0.2440944881889764,
                    "duration": 0.12449175000000068
                },
                {
                    "name": "B4",
                    "midi": 71,
                    "time": 31.745396250000226,
                    "velocity": 0.36220472440944884,
                    "duration": 0.1369409250000011
                },
                {
                    "name": "A4",
                    "midi": 69,
                    "time": 31.869888000000227,
                    "velocity": 0.3937007874015748,
                    "duration": 0.2489835000000049
                },
                {
                    "name": "D3",
                    "midi": 50,
                    "time": 31.869888000000227,
                    "velocity": 0.2755905511811024,
                    "duration": 0.1369409250000011
                },
                {
                    "name": "E3",
                    "midi": 52,
                    "time": 31.99437975000023,
                    "velocity": 0.23622047244094488,
                    "duration": 0.1369409250000011
                },
                {
                    "name": "F#3",
                    "midi": 54,
                    "time": 32.11887150000023,
                    "velocity": 0.2440944881889764,
                    "duration": 0.13694092500000465
                },
                {
                    "name": "G3",
                    "midi": 55,
                    "time": 32.243363250000236,
                    "velocity": 0.2440944881889764,
                    "duration": 0.13694092500000465
                },
                {
                    "name": "A3",
                    "midi": 57,
                    "time": 32.36785500000024,
                    "velocity": 0.25196850393700787,
                    "duration": 0.13694092500000465
                },
                {
                    "name": "B3",
                    "midi": 59,
                    "time": 32.492346750000245,
                    "velocity": 0.2677165354330709,
                    "duration": 0.13694092500000465
                },
                {
                    "name": "A5",
                    "midi": 81,
                    "time": 32.61683850000025,
                    "velocity": 0.3937007874015748,
                    "duration": 0.13694092500000465
                },
                {
                    "name": "C#4",
                    "midi": 61,
                    "time": 32.61683850000025,
                    "velocity": 0.2677165354330709,
                    "duration": 0.13694092500000465
                },
                {
                    "name": "G5",
                    "midi": 79,
                    "time": 32.74133025000025,
                    "velocity": 0.36220472440944884,
                    "duration": 0.13694092500000465
                },
                {
                    "name": "D4",
                    "midi": 62,
                    "time": 32.74133025000025,
                    "velocity": 0.28346456692913385,
                    "duration": 0.12449175000000423
                },
                {
                    "name": "F#5",
                    "midi": 78,
                    "time": 32.86582200000026,
                    "velocity": 0.3937007874015748,
                    "duration": 0.13694092500000465
                },
                {
                    "name": "D3",
                    "midi": 50,
                    "time": 32.86582200000026,
                    "velocity": 0.2755905511811024,
                    "duration": 0.12449175000000423
                },
                {
                    "name": "E5",
                    "midi": 76,
                    "time": 32.99031375000026,
                    "velocity": 0.3543307086614173,
                    "duration": 0.13694092500000465
                },
                {
                    "name": "D5",
                    "midi": 74,
                    "time": 33.114805500000266,
                    "velocity": 0.3543307086614173,
                    "duration": 0.13694092500000465
                },
                {
                    "name": "D4",
                    "midi": 62,
                    "time": 33.114805500000266,
                    "velocity": 0.25196850393700787,
                    "duration": 0.12449175000000423
                },
                {
                    "name": "C#5",
                    "midi": 73,
                    "time": 33.23929725000027,
                    "velocity": 0.3543307086614173,
                    "duration": 0.13694092500000465
                },
                {
                    "name": "B4",
                    "midi": 71,
                    "time": 33.363789000000274,
                    "velocity": 0.3937007874015748,
                    "duration": 0.13694092500000465
                },
                {
                    "name": "D3",
                    "midi": 50,
                    "time": 33.363789000000274,
                    "velocity": 0.33070866141732286,
                    "duration": 0.12449175000000423
                },
                {
                    "name": "C#5",
                    "midi": 73,
                    "time": 33.48828075000028,
                    "velocity": 0.3779527559055118,
                    "duration": 0.13694092500000465
                },
                {
                    "name": "D5",
                    "midi": 74,
                    "time": 33.61277250000028,
                    "velocity": 0.3937007874015748,
                    "duration": 0.13694092500000465
                },
                {
                    "name": "D4",
                    "midi": 62,
                    "time": 33.61277250000028,
                    "velocity": 0.29133858267716534,
                    "duration": 0.12449175000000423
                },
                {
                    "name": "B4",
                    "midi": 71,
                    "time": 33.73726425000029,
                    "velocity": 0.4330708661417323,
                    "duration": 0.13694092499999755
                },
                {
                    "name": "A4",
                    "midi": 69,
                    "time": 33.861756000000284,
                    "velocity": 0.47244094488188976,
                    "duration": 0.24898350000000136
                },
                {
                    "name": "D3",
                    "midi": 50,
                    "time": 33.861756000000284,
                    "velocity": 0.3779527559055118,
                    "duration": 0.12449174999999713
                },
                {
                    "name": "F#3",
                    "midi": 54,
                    "time": 33.98624775000028,
                    "velocity": 0.3228346456692913,
                    "duration": 0.12449175000000423
                },
                {
                    "name": "A3",
                    "midi": 57,
                    "time": 34.110739500000285,
                    "velocity": 0.3700787401574803,
                    "duration": 0.12449175000000423
                },
                {
                    "name": "D4",
                    "midi": 62,
                    "time": 34.23523125000029,
                    "velocity": 0.3228346456692913,
                    "duration": 0.12449175000000423
                },
                {
                    "name": "D6",
                    "midi": 86,
                    "time": 34.359723000000294,
                    "velocity": 0.4881889763779528,
                    "duration": 0.12449175000000423
                },
                {
                    "name": "A5",
                    "midi": 81,
                    "time": 34.4842147500003,
                    "velocity": 0.41732283464566927,
                    "duration": 0.12449175000000423
                },
                {
                    "name": "F#5",
                    "midi": 78,
                    "time": 34.6087065000003,
                    "velocity": 0.4409448818897638,
                    "duration": 0.12449174999999713
                },
                {
                    "name": "D5",
                    "midi": 74,
                    "time": 34.7331982500003,
                    "velocity": 0.4251968503937008,
                    "duration": 0.12449174999999713
                },
                {
                    "name": "E5",
                    "midi": 76,
                    "time": 34.8576900000003,
                    "velocity": 0.4881889763779528,
                    "duration": 0.12449175000000423
                },
                {
                    "name": "G3",
                    "midi": 55,
                    "time": 34.8576900000003,
                    "velocity": 0.31496062992125984,
                    "duration": 0.12449175000000423
                },
                {
                    "name": "B3",
                    "midi": 59,
                    "time": 34.8576900000003,
                    "velocity": 0.3779527559055118,
                    "duration": 0.12449175000000423
                },
                {
                    "name": "E5",
                    "midi": 76,
                    "time": 35.1066735000003,
                    "velocity": 0.4566929133858268,
                    "duration": 0.12449174999999713
                },
                {
                    "name": "B3",
                    "midi": 59,
                    "time": 35.1066735000003,
                    "velocity": 0.33858267716535434,
                    "duration": 0.12449174999999713
                },
                {
                    "name": "G3",
                    "midi": 55,
                    "time": 35.1066735000003,
                    "velocity": 0.28346456692913385,
                    "duration": 0.12449174999999713
                },
                {
                    "name": "C#5",
                    "midi": 73,
                    "time": 35.35565700000029,
                    "velocity": 0.4094488188976378,
                    "duration": 0.12449174999999713
                },
                {
                    "name": "A5",
                    "midi": 81,
                    "time": 35.35565700000029,
                    "velocity": 0.4881889763779528,
                    "duration": 0.12449174999999713
                },
                {
                    "name": "A3",
                    "midi": 57,
                    "time": 35.35565700000029,
                    "velocity": 0.3779527559055118,
                    "duration": 0.12449174999999713
                },
                {
                    "name": "A5",
                    "midi": 81,
                    "time": 35.604640500000286,
                    "velocity": 0.44881889763779526,
                    "duration": 0.12449174999999713
                },
                {
                    "name": "C#5",
                    "midi": 73,
                    "time": 35.604640500000286,
                    "velocity": 0.3779527559055118,
                    "duration": 0.12449174999999713
                },
                {
                    "name": "A3",
                    "midi": 57,
                    "time": 35.604640500000286,
                    "velocity": 0.33858267716535434,
                    "duration": 0.12449174999999713
                },
                {
                    "name": "E5",
                    "midi": 76,
                    "time": 35.85362400000028,
                    "velocity": 0.4094488188976378,
                    "duration": 0.4979669999999885
                },
                {
                    "name": "G5",
                    "midi": 79,
                    "time": 35.85362400000028,
                    "velocity": 0.4881889763779528,
                    "duration": 0.4979669999999885
                },
                {
                    "name": "D3",
                    "midi": 50,
                    "time": 35.85362400000028,
                    "velocity": 0.2755905511811024,
                    "duration": 0.12449174999999713
                },
                {
                    "name": "D4",
                    "midi": 62,
                    "time": 36.102607500000275,
                    "velocity": 0.25196850393700787,
                    "duration": 0.12449174999999713
                },
                {
                    "name": "F#5",
                    "midi": 78,
                    "time": 36.35159100000027,
                    "velocity": 0.4645669291338583,
                    "duration": 0.24898349999999425
                },
                {
                    "name": "D5",
                    "midi": 74,
                    "time": 36.35159100000027,
                    "velocity": 0.3937007874015748,
                    "duration": 0.24898349999999425
                },
                {
                    "name": "D3",
                    "midi": 50,
                    "time": 36.35159100000027,
                    "velocity": 0.2755905511811024,
                    "duration": 0.12449174999999713
                },
                {
                    "name": "A5",
                    "midi": 81,
                    "time": 36.60057450000026,
                    "velocity": 0.3937007874015748,
                    "duration": 0.13694092499999755
                },
                {
                    "name": "D4",
                    "midi": 62,
                    "time": 36.60057450000026,
                    "velocity": 0.2755905511811024,
                    "duration": 0.12449174999999713
                },
                {
                    "name": "G5",
                    "midi": 79,
                    "time": 36.72506625000026,
                    "velocity": 0.36220472440944884,
                    "duration": 0.13694092499999755
                },
                {
                    "name": "F#5",
                    "midi": 78,
                    "time": 36.84955800000026,
                    "velocity": 0.3937007874015748,
                    "duration": 0.13694092500000465
                },
                {
                    "name": "D3",
                    "midi": 50,
                    "time": 36.84955800000026,
                    "velocity": 0.2755905511811024,
                    "duration": 0.12449175000000423
                },
                {
                    "name": "E5",
                    "midi": 76,
                    "time": 36.97404975000026,
                    "velocity": 0.3543307086614173,
                    "duration": 0.13694092500000465
                },
                {
                    "name": "D5",
                    "midi": 74,
                    "time": 37.098541500000266,
                    "velocity": 0.3543307086614173,
                    "duration": 0.13694092500000465
                },
                {
                    "name": "D4",
                    "midi": 62,
                    "time": 37.098541500000266,
                    "velocity": 0.25196850393700787,
                    "duration": 0.12449175000000423
                },
                {
                    "name": "C#5",
                    "midi": 73,
                    "time": 37.22303325000027,
                    "velocity": 0.3543307086614173,
                    "duration": 0.13694092500000465
                },
                {
                    "name": "B4",
                    "midi": 71,
                    "time": 37.347525000000275,
                    "velocity": 0.3937007874015748,
                    "duration": 0.13694092500000465
                },
                {
                    "name": "D3",
                    "midi": 50,
                    "time": 37.347525000000275,
                    "velocity": 0.2755905511811024,
                    "duration": 0.12449175000000423
                },
                {
                    "name": "C#5",
                    "midi": 73,
                    "time": 37.47201675000028,
                    "velocity": 0.36220472440944884,
                    "duration": 0.13694092500000465
                },
                {
                    "name": "D5",
                    "midi": 74,
                    "time": 37.59650850000028,
                    "velocity": 0.36220472440944884,
                    "duration": 0.13694092500000465
                },
                {
                    "name": "D4",
                    "midi": 62,
                    "time": 37.59650850000028,
                    "velocity": 0.2440944881889764,
                    "duration": 0.12449175000000423
                },
                {
                    "name": "B4",
                    "midi": 71,
                    "time": 37.72100025000029,
                    "velocity": 0.36220472440944884,
                    "duration": 0.13694092500000465
                },
                {
                    "name": "A4",
                    "midi": 69,
                    "time": 37.84549200000029,
                    "velocity": 0.3937007874015748,
                    "duration": 0.13694092500000465
                },
                {
                    "name": "D3",
                    "midi": 50,
                    "time": 37.84549200000029,
                    "velocity": 0.2755905511811024,
                    "duration": 0.12449175000000423
                },
                {
                    "name": "G4",
                    "midi": 67,
                    "time": 37.969983750000296,
                    "velocity": 0.36220472440944884,
                    "duration": 0.13694092499999755
                },
                {
                    "name": "F#4",
                    "midi": 66,
                    "time": 38.09447550000029,
                    "velocity": 0.36220472440944884,
                    "duration": 0.13694092499999755
                },
                {
                    "name": "D4",
                    "midi": 62,
                    "time": 38.09447550000029,
                    "velocity": 0.25196850393700787,
                    "duration": 0.12449174999999713
                },
                {
                    "name": "G4",
                    "midi": 67,
                    "time": 38.21896725000029,
                    "velocity": 0.36220472440944884,
                    "duration": 0.13694092499999755
                },
                {
                    "name": "A4",
                    "midi": 69,
                    "time": 38.34345900000029,
                    "velocity": 0.3937007874015748,
                    "duration": 0.12449174999999713
                },
                {
                    "name": "D3",
                    "midi": 50,
                    "time": 38.34345900000029,
                    "velocity": 0.2755905511811024,
                    "duration": 0.12449174999999713
                },
                {
                    "name": "A5",
                    "midi": 81,
                    "time": 38.59244250000028,
                    "velocity": 0.3937007874015748,
                    "duration": 0.13694092499999755
                },
                {
                    "name": "D4",
                    "midi": 62,
                    "time": 38.59244250000028,
                    "velocity": 0.2440944881889764,
                    "duration": 0.12449174999999713
                },
                {
                    "name": "G5",
                    "midi": 79,
                    "time": 38.71693425000028,
                    "velocity": 0.36220472440944884,
                    "duration": 0.13694092499999755
                },
                {
                    "name": "F#5",
                    "midi": 78,
                    "time": 38.841426000000276,
                    "velocity": 0.3937007874015748,
                    "duration": 0.13694092500000465
                },
                {
                    "name": "D3",
                    "midi": 50,
                    "time": 38.841426000000276,
                    "velocity": 0.2755905511811024,
                    "duration": 0.12449175000000423
                },
                {
                    "name": "E5",
                    "midi": 76,
                    "time": 38.96591775000028,
                    "velocity": 0.3543307086614173,
                    "duration": 0.13694092500000465
                },
                {
                    "name": "D5",
                    "midi": 74,
                    "time": 39.090409500000284,
                    "velocity": 0.3543307086614173,
                    "duration": 0.13694092500000465
                },
                {
                    "name": "D4",
                    "midi": 62,
                    "time": 39.090409500000284,
                    "velocity": 0.25196850393700787,
                    "duration": 0.12449175000000423
                },
                {
                    "name": "C#5",
                    "midi": 73,
                    "time": 39.21490125000029,
                    "velocity": 0.3543307086614173,
                    "duration": 0.13694092500000465
                },
                {
                    "name": "B4",
                    "midi": 71,
                    "time": 39.33939300000029,
                    "velocity": 0.3937007874015748,
                    "duration": 0.13694092500000465
                },
                {
                    "name": "D3",
                    "midi": 50,
                    "time": 39.33939300000029,
                    "velocity": 0.33070866141732286,
                    "duration": 0.12449175000000423
                },
                {
                    "name": "C#5",
                    "midi": 73,
                    "time": 39.4638847500003,
                    "velocity": 0.3779527559055118,
                    "duration": 0.13694092500000465
                },
                {
                    "name": "D5",
                    "midi": 74,
                    "time": 39.5883765000003,
                    "velocity": 0.3937007874015748,
                    "duration": 0.13694092499999755
                },
                {
                    "name": "D4",
                    "midi": 62,
                    "time": 39.5883765000003,
                    "velocity": 0.29133858267716534,
                    "duration": 0.12449174999999713
                },
                {
                    "name": "B4",
                    "midi": 71,
                    "time": 39.7128682500003,
                    "velocity": 0.4330708661417323,
                    "duration": 0.13694092499999755
                },
                {
                    "name": "A4",
                    "midi": 69,
                    "time": 39.837360000000295,
                    "velocity": 0.47244094488188976,
                    "duration": 0.24898350000000136
                },
                {
                    "name": "D3",
                    "midi": 50,
                    "time": 39.837360000000295,
                    "velocity": 0.3779527559055118,
                    "duration": 0.12449175000000423
                },
                {
                    "name": "F#3",
                    "midi": 54,
                    "time": 39.9618517500003,
                    "velocity": 0.3228346456692913,
                    "duration": 0.12449174999999713
                },
                {
                    "name": "A3",
                    "midi": 57,
                    "time": 40.0863435000003,
                    "velocity": 0.3700787401574803,
                    "duration": 0.12449174999999713
                },
                {
                    "name": "D4",
                    "midi": 62,
                    "time": 40.210835250000294,
                    "velocity": 0.3228346456692913,
                    "duration": 0.12449175000000423
                },
                {
                    "name": "D5",
                    "midi": 74,
                    "time": 40.3353270000003,
                    "velocity": 0.4881889763779528,
                    "duration": 0.12449174999999713
                },
                {
                    "name": "F#5",
                    "midi": 78,
                    "time": 40.459818750000295,
                    "velocity": 0.41732283464566927,
                    "duration": 0.12449175000000423
                },
                {
                    "name": "A5",
                    "midi": 81,
                    "time": 40.5843105000003,
                    "velocity": 0.4409448818897638,
                    "duration": 0.12449175000000423
                },
                {
                    "name": "D6",
                    "midi": 86,
                    "time": 40.7088022500003,
                    "velocity": 0.4251968503937008,
                    "duration": 0.12449175000000423
                },
                {
                    "name": "C#6",
                    "midi": 85,
                    "time": 40.83329400000031,
                    "velocity": 0.5275590551181102,
                    "duration": 0.13694092500000465
                },
                {
                    "name": "G3",
                    "midi": 55,
                    "time": 40.83329400000031,
                    "velocity": 0.3858267716535433,
                    "duration": 0.24898350000000846
                },
                {
                    "name": "B5",
                    "midi": 83,
                    "time": 40.95778575000031,
                    "velocity": 0.4330708661417323,
                    "duration": 0.13694092500000465
                },
                {
                    "name": "A5",
                    "midi": 81,
                    "time": 41.082277500000316,
                    "velocity": 0.4566929133858268,
                    "duration": 0.13694092500000465
                },
                {
                    "name": "E3",
                    "midi": 52,
                    "time": 41.082277500000316,
                    "velocity": 0.31496062992125984,
                    "duration": 0.24898350000000846
                },
                {
                    "name": "G5",
                    "midi": 79,
                    "time": 41.20676925000032,
                    "velocity": 0.4330708661417323,
                    "duration": 0.13694092500000465
                },
                {
                    "name": "F#5",
                    "midi": 78,
                    "time": 41.331261000000325,
                    "velocity": 0.5196850393700787,
                    "duration": 0.13694092500000465
                },
                {
                    "name": "A3",
                    "midi": 57,
                    "time": 41.331261000000325,
                    "velocity": 0.3700787401574803,
                    "duration": 0.24898350000000846
                },
                {
                    "name": "E5",
                    "midi": 76,
                    "time": 41.45575275000033,
                    "velocity": 0.41732283464566927,
                    "duration": 0.13694092500000465
                },
                {
                    "name": "D5",
                    "midi": 74,
                    "time": 41.58024450000033,
                    "velocity": 0.4566929133858268,
                    "duration": 0.13694092500000465
                },
                {
                    "name": "A2",
                    "midi": 45,
                    "time": 41.58024450000033,
                    "velocity": 0.33070866141732286,
                    "duration": 0.24898350000000846
                },
                {
                    "name": "C#5",
                    "midi": 73,
                    "time": 41.70473625000034,
                    "velocity": 0.4409448818897638,
                    "duration": 0.12449175000000423
                },
                {
                    "name": "D5",
                    "midi": 74,
                    "time": 41.82922800000034,
                    "velocity": 0.5275590551181102,
                    "duration": 0.12449174999999713
                },
                {
                    "name": "D3",
                    "midi": 50,
                    "time": 41.82922800000034,
                    "velocity": 0.3858267716535433,
                    "duration": 0.24898349999999425
                },
                {
                    "name": "F#5",
                    "midi": 78,
                    "time": 41.95371975000034,
                    "velocity": 0.4566929133858268,
                    "duration": 0.12449174999999713
                },
                {
                    "name": "A5",
                    "midi": 81,
                    "time": 42.078211500000336,
                    "velocity": 0.5039370078740157,
                    "duration": 0.12449174999999713
                },
                {
                    "name": "F#5",
                    "midi": 78,
                    "time": 42.20270325000033,
                    "velocity": 0.4566929133858268,
                    "duration": 0.12449174999999713
                },
                {
                    "name": "A5",
                    "midi": 81,
                    "time": 42.32719500000033,
                    "velocity": 0.5275590551181102,
                    "duration": 0.12449174999999713
                },
                {
                    "name": "F#5",
                    "midi": 78,
                    "time": 42.45168675000033,
                    "velocity": 0.4645669291338583,
                    "duration": 0.12449174999999713
                },
                {
                    "name": "G5",
                    "midi": 79,
                    "time": 42.576178500000324,
                    "velocity": 0.5039370078740157,
                    "duration": 0.12449174999999713
                },
                {
                    "name": "A2",
                    "midi": 45,
                    "time": 42.576178500000324,
                    "velocity": 0.3858267716535433,
                    "duration": 0.12449174999999713
                },
                {
                    "name": "E5",
                    "midi": 76,
                    "time": 42.70067025000032,
                    "velocity": 0.4566929133858268,
                    "duration": 0.12449174999999713
                },
                {
                    "name": "D5",
                    "midi": 74,
                    "time": 42.82516200000032,
                    "velocity": 0.5275590551181102,
                    "duration": 0.12449174999999713
                },
                {
                    "name": "D3",
                    "midi": 50,
                    "time": 42.82516200000032,
                    "velocity": 0.44881889763779526,
                    "duration": 0.12449174999999713
                },
                {
                    "name": "F#5",
                    "midi": 78,
                    "time": 42.949653750000316,
                    "velocity": 0.4645669291338583,
                    "duration": 0.12449174999999713
                },
                {
                    "name": "A5",
                    "midi": 81,
                    "time": 43.07414550000031,
                    "velocity": 0.49606299212598426,
                    "duration": 0.12449174999999713
                },
                {
                    "name": "F#5",
                    "midi": 78,
                    "time": 43.19863725000031,
                    "velocity": 0.4566929133858268,
                    "duration": 0.12449174999999713
                },
                {
                    "name": "A5",
                    "midi": 81,
                    "time": 43.32312900000031,
                    "velocity": 0.5275590551181102,
                    "duration": 0.12449175000000423
                },
                {
                    "name": "F#5",
                    "midi": 78,
                    "time": 43.44762075000031,
                    "velocity": 0.4645669291338583,
                    "duration": 0.12449174999999713
                },
                {
                    "name": "G5",
                    "midi": 79,
                    "time": 43.57211250000031,
                    "velocity": 0.5118110236220472,
                    "duration": 0.12449174999999713
                },
                {
                    "name": "A2",
                    "midi": 45,
                    "time": 43.57211250000031,
                    "velocity": 0.3858267716535433,
                    "duration": 0.12449174999999713
                },
                {
                    "name": "E5",
                    "midi": 76,
                    "time": 43.696604250000306,
                    "velocity": 0.4645669291338583,
                    "duration": 0.12449174999999713
                },
                {
                    "name": "D5",
                    "midi": 74,
                    "time": 43.8210960000003,
                    "velocity": 0.5511811023622047,
                    "duration": 0.4979669999999885
                },
                {
                    "name": "D3",
                    "midi": 50,
                    "time": 43.8210960000003,
                    "velocity": 0.4409448818897638,
                    "duration": 0.12449174999999713
                },
                {
                    "name": "D2",
                    "midi": 38,
                    "time": 44.0700795000003,
                    "velocity": 0.3858267716535433,
                    "duration": 0.12449174999999713
                },
                {
                    "name": "D2",
                    "midi": 38,
                    "time": 44.31906300000029,
                    "velocity": 0.4251968503937008,
                    "duration": 0.12449174999999713
                },
                {
                    "name": "D5",
                    "midi": 74,
                    "time": 44.568046500000285,
                    "velocity": 0.36220472440944884,
                    "duration": 0.24898350000000136
                },
                {
                    "name": "D5",
                    "midi": 74,
                    "time": 44.81703000000029,
                    "velocity": 0.3937007874015748,
                    "duration": 0.24898350000000136
                },
                {
                    "name": "B4",
                    "midi": 71,
                    "time": 45.06601350000029,
                    "velocity": 0.3543307086614173,
                    "duration": 0.24898350000000136
                },
                {
                    "name": "B4",
                    "midi": 71,
                    "time": 45.31499700000029,
                    "velocity": 0.3858267716535433,
                    "duration": 0.24898350000000136
                },
                {
                    "name": "F5",
                    "midi": 77,
                    "time": 45.56398050000029,
                    "velocity": 0.4881889763779528,
                    "duration": 0.24898350000000136
                },
                {
                    "name": "G#3",
                    "midi": 56,
                    "time": 45.56398050000029,
                    "velocity": 0.25196850393700787,
                    "duration": 0.24898350000000136
                },
                {
                    "name": "F5",
                    "midi": 77,
                    "time": 45.81296400000029,
                    "velocity": 0.5433070866141733,
                    "duration": 0.7469505000000041
                },
                {
                    "name": "G#3",
                    "midi": 56,
                    "time": 45.81296400000029,
                    "velocity": 0.3228346456692913,
                    "duration": 0.24898350000000136
                },
                {
                    "name": "D4",
                    "midi": 62,
                    "time": 46.061947500000294,
                    "velocity": 0.25984251968503935,
                    "duration": 0.24898350000000136
                },
                {
                    "name": "B3",
                    "midi": 59,
                    "time": 46.061947500000294,
                    "velocity": 0.25984251968503935,
                    "duration": 0.24898350000000136
                },
                {
                    "name": "B3",
                    "midi": 59,
                    "time": 46.310931000000295,
                    "velocity": 0.2440944881889764,
                    "duration": 0.24898350000000136
                },
                {
                    "name": "D4",
                    "midi": 62,
                    "time": 46.310931000000295,
                    "velocity": 0.2440944881889764,
                    "duration": 0.24898350000000136
                },
                {
                    "name": "E5",
                    "midi": 76,
                    "time": 46.559914500000296,
                    "velocity": 0.3858267716535433,
                    "duration": 0.12449174999999713
                },
                {
                    "name": "G#3",
                    "midi": 56,
                    "time": 46.559914500000296,
                    "velocity": 0.2440944881889764,
                    "duration": 0.24898349999999425
                },
                {
                    "name": "D5",
                    "midi": 74,
                    "time": 46.68440625000029,
                    "velocity": 0.3543307086614173,
                    "duration": 0.12449174999999713
                },
                {
                    "name": "C5",
                    "midi": 72,
                    "time": 46.80889800000029,
                    "velocity": 0.3937007874015748,
                    "duration": 0.12449174999999713
                },
                {
                    "name": "A3",
                    "midi": 57,
                    "time": 46.80889800000029,
                    "velocity": 0.2755905511811024,
                    "duration": 0.12449174999999713
                },
                {
                    "name": "C5",
                    "midi": 72,
                    "time": 47.057881500000285,
                    "velocity": 0.3543307086614173,
                    "duration": 0.12449174999999713
                },
                {
                    "name": "C5",
                    "midi": 72,
                    "time": 47.30686500000028,
                    "velocity": 0.3937007874015748,
                    "duration": 0.13694092499999755
                },
                {
                    "name": "E3",
                    "midi": 52,
                    "time": 47.30686500000028,
                    "velocity": 0.2755905511811024,
                    "duration": 0.12449174999999713
                },
                {
                    "name": "B4",
                    "midi": 71,
                    "time": 47.431356750000276,
                    "velocity": 0.33858267716535434,
                    "duration": 0.13694092499999755
                },
                {
                    "name": "A4",
                    "midi": 69,
                    "time": 47.55584850000027,
                    "velocity": 0.33858267716535434,
                    "duration": 0.13694092499999755
                },
                {
                    "name": "B4",
                    "midi": 71,
                    "time": 47.68034025000027,
                    "velocity": 0.33858267716535434,
                    "duration": 0.13694092499999755
                },
                {
                    "name": "C5",
                    "midi": 72,
                    "time": 47.80483200000027,
                    "velocity": 0.41732283464566927,
                    "duration": 0.24898350000000136
                },
                {
                    "name": "A2",
                    "midi": 45,
                    "time": 47.80483200000027,
                    "velocity": 0.2755905511811024,
                    "duration": 0.24898350000000136
                },
                {
                    "name": "A5",
                    "midi": 81,
                    "time": 48.05381550000027,
                    "velocity": 0.36220472440944884,
                    "duration": 0.12449174999999713
                },
                {
                    "name": "E5",
                    "midi": 76,
                    "time": 48.30279900000026,
                    "velocity": 0.3937007874015748,
                    "duration": 0.13694092500000465
                },
                {
                    "name": "F5",
                    "midi": 77,
                    "time": 48.42729075000027,
                    "velocity": 0.33858267716535434,
                    "duration": 0.13694092500000465
                },
                {
                    "name": "E5",
                    "midi": 76,
                    "time": 48.55178250000027,
                    "velocity": 0.33858267716535434,
                    "duration": 0.13694092499999755
                },
                {
                    "name": "G#3",
                    "midi": 56,
                    "time": 48.55178250000027,
                    "velocity": 0.2755905511811024,
                    "duration": 0.12449174999999713
                },
                {
                    "name": "D5",
                    "midi": 74,
                    "time": 48.67627425000027,
                    "velocity": 0.33858267716535434,
                    "duration": 0.13694092499999755
                },
                {
                    "name": "C5",
                    "midi": 72,
                    "time": 48.800766000000266,
                    "velocity": 0.41732283464566927,
                    "duration": 0.24898350000000136
                },
                {
                    "name": "A3",
                    "midi": 57,
                    "time": 48.800766000000266,
                    "velocity": 0.2755905511811024,
                    "duration": 0.24898350000000136
                },
                {
                    "name": "A5",
                    "midi": 81,
                    "time": 49.04974950000027,
                    "velocity": 0.36220472440944884,
                    "duration": 0.12449174999999713
                },
                {
                    "name": "E5",
                    "midi": 76,
                    "time": 49.29873300000026,
                    "velocity": 0.3937007874015748,
                    "duration": 0.13694092500000465
                },
                {
                    "name": "F5",
                    "midi": 77,
                    "time": 49.423224750000266,
                    "velocity": 0.33858267716535434,
                    "duration": 0.13694092500000465
                },
                {
                    "name": "E5",
                    "midi": 76,
                    "time": 49.54771650000027,
                    "velocity": 0.33858267716535434,
                    "duration": 0.13694092500000465
                },
                {
                    "name": "G#3",
                    "midi": 56,
                    "time": 49.54771650000027,
                    "velocity": 0.2755905511811024,
                    "duration": 0.12449175000000423
                },
                {
                    "name": "D5",
                    "midi": 74,
                    "time": 49.672208250000274,
                    "velocity": 0.33858267716535434,
                    "duration": 0.13694092499999755
                },
                {
                    "name": "C5",
                    "midi": 72,
                    "time": 49.79670000000027,
                    "velocity": 0.3937007874015748,
                    "duration": 0.13694092499999755
                },
                {
                    "name": "A3",
                    "midi": 57,
                    "time": 49.79670000000027,
                    "velocity": 0.33070866141732286,
                    "duration": 0.24898349999999425
                },
                {
                    "name": "D5",
                    "midi": 74,
                    "time": 49.92119175000027,
                    "velocity": 0.3543307086614173,
                    "duration": 0.13694092499999755
                },
                {
                    "name": "C5",
                    "midi": 72,
                    "time": 50.045683500000266,
                    "velocity": 0.3543307086614173,
                    "duration": 0.13694092499999755
                },
                {
                    "name": "A2",
                    "midi": 45,
                    "time": 50.045683500000266,
                    "velocity": 0.2755905511811024,
                    "duration": 0.24898349999999425
                },
                {
                    "name": "B4",
                    "midi": 71,
                    "time": 50.17017525000026,
                    "velocity": 0.3543307086614173,
                    "duration": 0.13694092499999755
                },
                {
                    "name": "A4",
                    "midi": 69,
                    "time": 50.29466700000026,
                    "velocity": 0.4015748031496063,
                    "duration": 0.13694092500000465
                },
                {
                    "name": "A3",
                    "midi": 57,
                    "time": 50.29466700000026,
                    "velocity": 0.30708661417322836,
                    "duration": 0.24898350000000846
                },
                {
                    "name": "B4",
                    "midi": 71,
                    "time": 50.419158750000264,
                    "velocity": 0.4330708661417323,
                    "duration": 0.13694092500000465
                },
                {
                    "name": "C5",
                    "midi": 72,
                    "time": 50.54365050000027,
                    "velocity": 0.4566929133858268,
                    "duration": 0.13694092500000465
                },
                {
                    "name": "G3",
                    "midi": 55,
                    "time": 50.54365050000027,
                    "velocity": 0.3779527559055118,
                    "duration": 0.24898350000000846
                },
                {
                    "name": "D5",
                    "midi": 74,
                    "time": 50.66814225000027,
                    "velocity": 0.4881889763779528,
                    "duration": 0.13694092500000465
                },
                {
                    "name": "E5",
                    "midi": 76,
                    "time": 50.79263400000028,
                    "velocity": 0.5511811023622047,
                    "duration": 0.7469505000000041
                },
                {
                    "name": "F#3",
                    "midi": 54,
                    "time": 50.79263400000028,
                    "velocity": 0.4094488188976378,
                    "duration": 0.24898350000000136
                },
                {
                    "name": "A3",
                    "midi": 57,
                    "time": 51.04161750000028,
                    "velocity": 0.2755905511811024,
                    "duration": 0.24898350000000136
                },
                {
                    "name": "C4",
                    "midi": 60,
                    "time": 51.04161750000028,
                    "velocity": 0.33070866141732286,
                    "duration": 0.24898350000000136
                },
                {
                    "name": "A3",
                    "midi": 57,
                    "time": 51.29060100000028,
                    "velocity": 0.2755905511811024,
                    "duration": 0.24898350000000136
                },
                {
                    "name": "C4",
                    "midi": 60,
                    "time": 51.29060100000028,
                    "velocity": 0.33070866141732286,
                    "duration": 0.24898350000000136
                },
                {
                    "name": "D5",
                    "midi": 74,
                    "time": 51.53958450000028,
                    "velocity": 0.3937007874015748,
                    "duration": 0.13694092499999755
                },
                {
                    "name": "F#3",
                    "midi": 54,
                    "time": 51.53958450000028,
                    "velocity": 0.2992125984251969,
                    "duration": 0.24898349999999425
                },
                {
                    "name": "C5",
                    "midi": 72,
                    "time": 51.66407625000028,
                    "velocity": 0.33858267716535434,
                    "duration": 0.13694092499999755
                },
                {
                    "name": "B4",
                    "midi": 71,
                    "time": 51.788568000000275,
                    "velocity": 0.3937007874015748,
                    "duration": 0.12449174999999713
                },
                {
                    "name": "G3",
                    "midi": 55,
                    "time": 51.788568000000275,
                    "velocity": 0.2755905511811024,
                    "duration": 0.12449174999999713
                },
                {
                    "name": "D5",
                    "midi": 74,
                    "time": 51.91305975000027,
                    "velocity": 0.3543307086614173,
                    "duration": 0.13694092499999755
                },
                {
                    "name": "C5",
                    "midi": 72,
                    "time": 52.03755150000027,
                    "velocity": 0.33858267716535434,
                    "duration": 0.13694092499999755
                },
                {
                    "name": "B4",
                    "midi": 71,
                    "time": 52.162043250000266,
                    "velocity": 0.33858267716535434,
                    "duration": 0.13694092499999755
                },
                {
                    "name": "A4",
                    "midi": 69,
                    "time": 52.28653500000026,
                    "velocity": 0.3937007874015748,
                    "duration": 0.13694092499999755
                },
                {
                    "name": "D3",
                    "midi": 50,
                    "time": 52.28653500000026,
                    "velocity": 0.2283464566929134,
                    "duration": 0.12449174999999713
                },
                {
                    "name": "C5",
                    "midi": 72,
                    "time": 52.41102675000026,
                    "velocity": 0.3543307086614173,
                    "duration": 0.13694092499999755
                },
                {
                    "name": "B4",
                    "midi": 71,
                    "time": 52.53551850000026,
                    "velocity": 0.33858267716535434,
                    "duration": 0.13694092499999755
                },
                {
                    "name": "A4",
                    "midi": 69,
                    "time": 52.660010250000255,
                    "velocity": 0.33858267716535434,
                    "duration": 0.13694092499999755
                },
                {
                    "name": "G4",
                    "midi": 67,
                    "time": 52.78450200000025,
                    "velocity": 0.3937007874015748,
                    "duration": 0.13694092499999755
                },
                {
                    "name": "E3",
                    "midi": 52,
                    "time": 52.78450200000025,
                    "velocity": 0.2992125984251969,
                    "duration": 0.9959340000000054
                },
                {
                    "name": "E2",
                    "midi": 40,
                    "time": 52.78450200000025,
                    "velocity": 0.2992125984251969,
                    "duration": 0.9959340000000054
                },
                {
                    "name": "A4",
                    "midi": 69,
                    "time": 52.90899375000025,
                    "velocity": 0.3543307086614173,
                    "duration": 0.13694092499999755
                },
                {
                    "name": "G4",
                    "midi": 67,
                    "time": 53.033485500000246,
                    "velocity": 0.3543307086614173,
                    "duration": 0.13694092499999755
                },
                {
                    "name": "F#4",
                    "midi": 66,
                    "time": 53.15797725000024,
                    "velocity": 0.3543307086614173,
                    "duration": 0.13694092500000465
                },
                {
                    "name": "G4",
                    "midi": 67,
                    "time": 53.28246900000025,
                    "velocity": 0.3937007874015748,
                    "duration": 0.13694092500000465
                },
                {
                    "name": "A4",
                    "midi": 69,
                    "time": 53.40696075000025,
                    "velocity": 0.36220472440944884,
                    "duration": 0.13694092500000465
                },
                {
                    "name": "B4",
                    "midi": 71,
                    "time": 53.531452500000256,
                    "velocity": 0.3937007874015748,
                    "duration": 0.13694092500000465
                },
                {
                    "name": "C#5",
                    "midi": 73,
                    "time": 53.65594425000026,
                    "velocity": 0.44881889763779526,
                    "duration": 0.13694092499999755
                },
                {
                    "name": "D5",
                    "midi": 74,
                    "time": 53.78043600000026,
                    "velocity": 0.5275590551181102,
                    "duration": 0.24898349999999425
                },
                {
                    "name": "D3",
                    "midi": 50,
                    "time": 53.78043600000026,
                    "velocity": 0.3858267716535433,
                    "duration": 0.12449174999999713
                },
                {
                    "name": "D2",
                    "midi": 38,
                    "time": 54.02941950000025,
                    "velocity": 0.2992125984251969,
                    "duration": 0.12449174999999713
                },
                {
                    "name": "F#4",
                    "midi": 66,
                    "time": 54.278403000000246,
                    "velocity": 0.4251968503937008,
                    "duration": 0.13694092499999755
                },
                {
                    "name": "G4",
                    "midi": 67,
                    "time": 54.40289475000024,
                    "velocity": 0.3937007874015748,
                    "duration": 0.13694092499999755
                },
                {
                    "name": "F#4",
                    "midi": 66,
                    "time": 54.52738650000024,
                    "velocity": 0.41732283464566927,
                    "duration": 0.13694092499999755
                },
                {
                    "name": "E4",
                    "midi": 64,
                    "time": 54.65187825000024,
                    "velocity": 0.3937007874015748,
                    "duration": 0.13694092499999755
                },
                {
                    "name": "D4",
                    "midi": 62,
                    "time": 54.776370000000234,
                    "velocity": 0.4566929133858268,
                    "duration": 0.12449174999999713
                },
                {
                    "name": "D3",
                    "midi": 50,
                    "time": 54.776370000000234,
                    "velocity": 0.3858267716535433,
                    "duration": 0.12449174999999713
                },
                {
                    "name": "D2",
                    "midi": 38,
                    "time": 55.02535350000023,
                    "velocity": 0.2992125984251969,
                    "duration": 0.12449174999999713
                },
                {
                    "name": "G4",
                    "midi": 67,
                    "time": 55.27433700000022,
                    "velocity": 0.3937007874015748,
                    "duration": 0.13694092499999755
                },
                {
                    "name": "A4",
                    "midi": 69,
                    "time": 55.39882875000022,
                    "velocity": 0.36220472440944884,
                    "duration": 0.13694092499999755
                },
                {
                    "name": "G4",
                    "midi": 67,
                    "time": 55.52332050000022,
                    "velocity": 0.3937007874015748,
                    "duration": 0.13694092499999755
                },
                {
                    "name": "F#4",
                    "midi": 66,
                    "time": 55.647812250000214,
                    "velocity": 0.3700787401574803,
                    "duration": 0.13694092499999755
                },
                {
                    "name": "E4",
                    "midi": 64,
                    "time": 55.77230400000021,
                    "velocity": 0.3937007874015748,
                    "duration": 0.12449174999999713
                },
                {
                    "name": "D3",
                    "midi": 50,
                    "time": 55.77230400000021,
                    "velocity": 0.30708661417322836,
                    "duration": 0.12449174999999713
                },
                {
                    "name": "D2",
                    "midi": 38,
                    "time": 56.021287500000206,
                    "velocity": 0.2677165354330709,
                    "duration": 0.12449174999999713
                },
                {
                    "name": "A4",
                    "midi": 69,
                    "time": 56.2702710000002,
                    "velocity": 0.3543307086614173,
                    "duration": 0.13694092499999755
                },
                {
                    "name": "B4",
                    "midi": 71,
                    "time": 56.3947627500002,
                    "velocity": 0.3228346456692913,
                    "duration": 0.13694092499999755
                },
                {
                    "name": "A4",
                    "midi": 69,
                    "time": 56.519254500000194,
                    "velocity": 0.3543307086614173,
                    "duration": 0.13694092499999755
                },
                {
                    "name": "G4",
                    "midi": 67,
                    "time": 56.64374625000019,
                    "velocity": 0.30708661417322836,
                    "duration": 0.13694092500000465
                },
                {
                    "name": "F#4",
                    "midi": 66,
                    "time": 56.768238000000196,
                    "velocity": 0.3543307086614173,
                    "duration": 0.13694092500000465
                },
                {
                    "name": "D3",
                    "midi": 50,
                    "time": 56.768238000000196,
                    "velocity": 0.2677165354330709,
                    "duration": 0.24898350000000846
                },
                {
                    "name": "G4",
                    "midi": 67,
                    "time": 56.8927297500002,
                    "velocity": 0.2992125984251969,
                    "duration": 0.13694092500000465
                },
                {
                    "name": "F#4",
                    "midi": 66,
                    "time": 57.017221500000204,
                    "velocity": 0.2992125984251969,
                    "duration": 0.13694092500000465
                },
                {
                    "name": "D2",
                    "midi": 38,
                    "time": 57.017221500000204,
                    "velocity": 0.2204724409448819,
                    "duration": 0.24898350000000846
                },
                {
                    "name": "E4",
                    "midi": 64,
                    "time": 57.14171325000021,
                    "velocity": 0.2992125984251969,
                    "duration": 0.13694092500000465
                },
                {
                    "name": "F#4",
                    "midi": 66,
                    "time": 57.26620500000021,
                    "velocity": 0.33070866141732286,
                    "duration": 0.13694092500000465
                },
                {
                    "name": "D3",
                    "midi": 50,
                    "time": 57.26620500000021,
                    "velocity": 0.29133858267716534,
                    "duration": 0.24898350000000846
                },
                {
                    "name": "G4",
                    "midi": 67,
                    "time": 57.39069675000022,
                    "velocity": 0.33858267716535434,
                    "duration": 0.13694092500000465
                },
                {
                    "name": "A4",
                    "midi": 69,
                    "time": 57.51518850000022,
                    "velocity": 0.3228346456692913,
                    "duration": 0.13694092500000465
                },
                {
                    "name": "D2",
                    "midi": 38,
                    "time": 57.51518850000022,
                    "velocity": 0.2440944881889764,
                    "duration": 0.24898350000000136
                },
                {
                    "name": "B4",
                    "midi": 71,
                    "time": 57.639680250000225,
                    "velocity": 0.31496062992125984,
                    "duration": 0.13694092499999755
                },
                {
                    "name": "C5",
                    "midi": 72,
                    "time": 57.76417200000022,
                    "velocity": 0.33070866141732286,
                    "duration": 0.24898350000000136
                },
                {
                    "name": "D3",
                    "midi": 50,
                    "time": 57.76417200000022,
                    "velocity": 0.23622047244094488,
                    "duration": 0.24898350000000136
                },
                {
                    "name": "D5",
                    "midi": 74,
                    "time": 58.511122500000226,
                    "velocity": 0.36220472440944884,
                    "duration": 0.24898350000000136
                },
                {
                    "name": "D5",
                    "midi": 74,
                    "time": 58.76010600000023,
                    "velocity": 0.3937007874015748,
                    "duration": 0.24898350000000136
                },
                {
                    "name": "G3",
                    "midi": 55,
                    "time": 58.76010600000023,
                    "velocity": 0.2755905511811024,
                    "duration": 0.24898350000000136
                },
                {
                    "name": "B4",
                    "midi": 71,
                    "time": 59.00908950000023,
                    "velocity": 0.3543307086614173,
                    "duration": 0.24898350000000136
                },
                {
                    "name": "B3",
                    "midi": 59,
                    "time": 59.00908950000023,
                    "velocity": 0.2204724409448819,
                    "duration": 0.24898350000000136
                },
                {
                    "name": "B4",
                    "midi": 71,
                    "time": 59.25807300000023,
                    "velocity": 0.3858267716535433,
                    "duration": 0.24898350000000136
                },
                {
                    "name": "D4",
                    "midi": 62,
                    "time": 59.25807300000023,
                    "velocity": 0.2204724409448819,
                    "duration": 0.24898350000000136
                },
                {
                    "name": "G5",
                    "midi": 79,
                    "time": 59.50705650000023,
                    "velocity": 0.4881889763779528,
                    "duration": 0.24898350000000136
                },
                {
                    "name": "B3",
                    "midi": 59,
                    "time": 59.50705650000023,
                    "velocity": 0.25196850393700787,
                    "duration": 0.24898350000000136
                },
                {
                    "name": "G5",
                    "midi": 79,
                    "time": 59.75604000000023,
                    "velocity": 0.5433070866141733,
                    "duration": 0.746950499999997
                },
                {
                    "name": "G3",
                    "midi": 55,
                    "time": 59.75604000000023,
                    "velocity": 0.3228346456692913,
                    "duration": 0.24898349999999425
                },
                {
                    "name": "B3",
                    "midi": 59,
                    "time": 60.00502350000023,
                    "velocity": 0.25984251968503935,
                    "duration": 0.24898350000000136
                },
                {
                    "name": "D4",
                    "midi": 62,
                    "time": 60.25400700000023,
                    "velocity": 0.2440944881889764,
                    "duration": 0.24898350000000136
                },
                {
                    "name": "F#5",
                    "midi": 78,
                    "time": 60.50299050000023,
                    "velocity": 0.3858267716535433,
                    "duration": 0.12449174999999713
                },
                {
                    "name": "B3",
                    "midi": 59,
                    "time": 60.50299050000023,
                    "velocity": 0.2440944881889764,
                    "duration": 0.24898349999999425
                },
                {
                    "name": "E5",
                    "midi": 76,
                    "time": 60.62748225000023,
                    "velocity": 0.3543307086614173,
                    "duration": 0.12449174999999713
                },
                {
                    "name": "D5",
                    "midi": 74,
                    "time": 60.751974000000224,
                    "velocity": 0.3937007874015748,
                    "duration": 0.12449174999999713
                },
                {
                    "name": "F#3",
                    "midi": 54,
                    "time": 60.751974000000224,
                    "velocity": 0.2755905511811024,
                    "duration": 0.24898349999999425
                },
                {
                    "name": "D5",
                    "midi": 74,
                    "time": 61.00095750000022,
                    "velocity": 0.3543307086614173,
                    "duration": 0.12449174999999713
                },
                {
                    "name": "A3",
                    "midi": 57,
                    "time": 61.00095750000022,
                    "velocity": 0.2440944881889764,
                    "duration": 0.24898349999999425
                },
                {
                    "name": "D5",
                    "midi": 74,
                    "time": 61.24994100000021,
                    "velocity": 0.3937007874015748,
                    "duration": 0.13694092499999755
                },
                {
                    "name": "D4",
                    "midi": 62,
                    "time": 61.24994100000021,
                    "velocity": 0.2755905511811024,
                    "duration": 0.24898349999999425
                },
                {
                    "name": "E5",
                    "midi": 76,
                    "time": 61.37443275000021,
                    "velocity": 0.33858267716535434,
                    "duration": 0.13694092499999755
                },
                {
                    "name": "D5",
                    "midi": 74,
                    "time": 61.49892450000021,
                    "velocity": 0.33858267716535434,
                    "duration": 0.13694092499999755
                },
                {
                    "name": "A3",
                    "midi": 57,
                    "time": 61.49892450000021,
                    "velocity": 0.23622047244094488,
                    "duration": 0.24898349999999425
                },
                {
                    "name": "C5",
                    "midi": 72,
                    "time": 61.623416250000204,
                    "velocity": 0.33858267716535434,
                    "duration": 0.13694092499999755
                },
                {
                    "name": "B4",
                    "midi": 71,
                    "time": 61.7479080000002,
                    "velocity": 0.41732283464566927,
                    "duration": 0.24898350000000136
                },
                {
                    "name": "G3",
                    "midi": 55,
                    "time": 61.7479080000002,
                    "velocity": 0.2755905511811024,
                    "duration": 0.24898350000000136
                },
                {
                    "name": "D5",
                    "midi": 74,
                    "time": 61.9968915000002,
                    "velocity": 0.36220472440944884,
                    "duration": 0.12449174999999713
                },
                {
                    "name": "D3",
                    "midi": 50,
                    "time": 61.9968915000002,
                    "velocity": 0.23622047244094488,
                    "duration": 0.24898349999999425
                },
                {
                    "name": "B2",
                    "midi": 47,
                    "time": 62.2458750000002,
                    "velocity": 0.23622047244094488,
                    "duration": 0.24898350000000136
                },
                {
                    "name": "B4",
                    "midi": 71,
                    "time": 62.4948585000002,
                    "velocity": 0.36220472440944884,
                    "duration": 0.24898350000000136
                },
                {
                    "name": "G2",
                    "midi": 43,
                    "time": 62.4948585000002,
                    "velocity": 0.23622047244094488,
                    "duration": 0.24898350000000136
                },
                {
                    "name": "B4",
                    "midi": 71,
                    "time": 62.7438420000002,
                    "velocity": 0.41732283464566927,
                    "duration": 0.24898350000000136
                },
                {
                    "name": "C3",
                    "midi": 48,
                    "time": 62.7438420000002,
                    "velocity": 0.2755905511811024,
                    "duration": 0.24898350000000136
                },
                {
                    "name": "A4",
                    "midi": 69,
                    "time": 62.9928255000002,
                    "velocity": 0.3858267716535433,
                    "duration": 0.24898350000000136
                },
                {
                    "name": "E3",
                    "midi": 52,
                    "time": 62.9928255000002,
                    "velocity": 0.2204724409448819,
                    "duration": 0.24898350000000136
                },
                {
                    "name": "A4",
                    "midi": 69,
                    "time": 63.2418090000002,
                    "velocity": 0.4566929133858268,
                    "duration": 0.24898350000000136
                },
                {
                    "name": "A3",
                    "midi": 57,
                    "time": 63.2418090000002,
                    "velocity": 0.2677165354330709,
                    "duration": 0.24898350000000136
                },
                {
                    "name": "E5",
                    "midi": 76,
                    "time": 63.490792500000204,
                    "velocity": 0.4881889763779528,
                    "duration": 0.24898350000000136
                },
                {
                    "name": "E3",
                    "midi": 52,
                    "time": 63.490792500000204,
                    "velocity": 0.30708661417322836,
                    "duration": 0.24898350000000136
                },
                {
                    "name": "E5",
                    "midi": 76,
                    "time": 63.739776000000205,
                    "velocity": 0.5433070866141733,
                    "duration": 0.7469505000000112
                },
                {
                    "name": "C3",
                    "midi": 48,
                    "time": 63.739776000000205,
                    "velocity": 0.33070866141732286,
                    "duration": 0.24898350000000136
                },
                {
                    "name": "E3",
                    "midi": 52,
                    "time": 63.98875950000021,
                    "velocity": 0.2992125984251969,
                    "duration": 0.24898350000000136
                },
                {
                    "name": "A3",
                    "midi": 57,
                    "time": 64.23774300000021,
                    "velocity": 0.2440944881889764,
                    "duration": 0.24898350000000846
                },
                {
                    "name": "C5",
                    "midi": 72,
                    "time": 64.48672650000022,
                    "velocity": 0.3858267716535433,
                    "duration": 0.12449175000000423
                },
                {
                    "name": "A4",
                    "midi": 69,
                    "time": 64.61121825000022,
                    "velocity": 0.3543307086614173,
                    "duration": 0.12449175000000423
                },
                {
                    "name": "G4",
                    "midi": 67,
                    "time": 64.73571000000022,
                    "velocity": 0.3937007874015748,
                    "duration": 0.12449175000000423
                },
                {
                    "name": "B3",
                    "midi": 59,
                    "time": 64.73571000000022,
                    "velocity": 0.2755905511811024,
                    "duration": 0.12449175000000423
                },
                {
                    "name": "D3",
                    "midi": 50,
                    "time": 64.73571000000022,
                    "velocity": 0.2755905511811024,
                    "duration": 0.12449175000000423
                },
                {
                    "name": "G4",
                    "midi": 67,
                    "time": 64.98469350000023,
                    "velocity": 0.3543307086614173,
                    "duration": 0.12449175000000423
                },
                {
                    "name": "B3",
                    "midi": 59,
                    "time": 64.98469350000023,
                    "velocity": 0.2440944881889764,
                    "duration": 0.12449175000000423
                },
                {
                    "name": "D3",
                    "midi": 50,
                    "time": 64.98469350000023,
                    "velocity": 0.2440944881889764,
                    "duration": 0.12449175000000423
                },
                {
                    "name": "G4",
                    "midi": 67,
                    "time": 65.23367700000024,
                    "velocity": 0.3937007874015748,
                    "duration": 0.13694092500000465
                },
                {
                    "name": "D3",
                    "midi": 50,
                    "time": 65.23367700000024,
                    "velocity": 0.2755905511811024,
                    "duration": 0.12449175000000423
                },
                {
                    "name": "A3",
                    "midi": 57,
                    "time": 65.23367700000024,
                    "velocity": 0.2755905511811024,
                    "duration": 0.12449175000000423
                },
                {
                    "name": "F#4",
                    "midi": 66,
                    "time": 65.35816875000025,
                    "velocity": 0.33858267716535434,
                    "duration": 0.13694092500000465
                },
                {
                    "name": "E4",
                    "midi": 64,
                    "time": 65.48266050000025,
                    "velocity": 0.33858267716535434,
                    "duration": 0.13694092500000465
                },
                {
                    "name": "A3",
                    "midi": 57,
                    "time": 65.48266050000025,
                    "velocity": 0.23622047244094488,
                    "duration": 0.12449175000000423
                },
                {
                    "name": "D3",
                    "midi": 50,
                    "time": 65.48266050000025,
                    "velocity": 0.23622047244094488,
                    "duration": 0.12449175000000423
                },
                {
                    "name": "F#4",
                    "midi": 66,
                    "time": 65.60715225000025,
                    "velocity": 0.33858267716535434,
                    "duration": 0.13694092500000465
                },
                {
                    "name": "G4",
                    "midi": 67,
                    "time": 65.73164400000026,
                    "velocity": 0.41732283464566927,
                    "duration": 0.4979670000000169
                },
                {
                    "name": "G2",
                    "midi": 43,
                    "time": 65.73164400000026,
                    "velocity": 0.2755905511811024,
                    "duration": 0.12449175000000423
                },
                {
                    "name": "G3",
                    "midi": 55,
                    "time": 65.98062750000027,
                    "velocity": 0.23622047244094488,
                    "duration": 0.12449175000000423
                },
                {
                    "name": "G2",
                    "midi": 43,
                    "time": 66.22961100000028,
                    "velocity": 0.2755905511811024,
                    "duration": 0.12449175000000423
                },
                {
                    "name": "D5",
                    "midi": 74,
                    "time": 66.47859450000028,
                    "velocity": 0.3937007874015748,
                    "duration": 0.13694092500000465
                },
                {
                    "name": "G3",
                    "midi": 55,
                    "time": 66.47859450000028,
                    "velocity": 0.2755905511811024,
                    "duration": 0.12449175000000423
                },
                {
                    "name": "C5",
                    "midi": 72,
                    "time": 66.60308625000029,
                    "velocity": 0.36220472440944884,
                    "duration": 0.13694092500000465
                },
                {
                    "name": "B4",
                    "midi": 71,
                    "time": 66.72757800000029,
                    "velocity": 0.3937007874015748,
                    "duration": 0.13694092499999044
                },
                {
                    "name": "G2",
                    "midi": 43,
                    "time": 66.72757800000029,
                    "velocity": 0.2755905511811024,
                    "duration": 0.12449174999999002
                },
                {
                    "name": "A4",
                    "midi": 69,
                    "time": 66.85206975000028,
                    "velocity": 0.3543307086614173,
                    "duration": 0.13694092499999044
                },
                {
                    "name": "G4",
                    "midi": 67,
                    "time": 66.97656150000027,
                    "velocity": 0.3543307086614173,
                    "duration": 0.13694092499999044
                },
                {
                    "name": "G3",
                    "midi": 55,
                    "time": 66.97656150000027,
                    "velocity": 0.25196850393700787,
                    "duration": 0.12449174999999002
                },
                {
                    "name": "F#4",
                    "midi": 66,
                    "time": 67.10105325000026,
                    "velocity": 0.3543307086614173,
                    "duration": 0.13694092499999044
                },
                {
                    "name": "E4",
                    "midi": 64,
                    "time": 67.22554500000025,
                    "velocity": 0.3937007874015748,
                    "duration": 0.13694092499999044
                },
                {
                    "name": "G2",
                    "midi": 43,
                    "time": 67.22554500000025,
                    "velocity": 0.2755905511811024,
                    "duration": 0.12449174999999002
                },
                {
                    "name": "F#4",
                    "midi": 66,
                    "time": 67.35003675000024,
                    "velocity": 0.36220472440944884,
                    "duration": 0.13694092499999044
                },
                {
                    "name": "G4",
                    "midi": 67,
                    "time": 67.47452850000023,
                    "velocity": 0.36220472440944884,
                    "duration": 0.13694092500000465
                },
                {
                    "name": "G3",
                    "midi": 55,
                    "time": 67.47452850000023,
                    "velocity": 0.2440944881889764,
                    "duration": 0.12449175000000423
                },
                {
                    "name": "E4",
                    "midi": 64,
                    "time": 67.59902025000024,
                    "velocity": 0.36220472440944884,
                    "duration": 0.13694092499999044
                },
                {
                    "name": "D4",
                    "midi": 62,
                    "time": 67.72351200000024,
                    "velocity": 0.3937007874015748,
                    "duration": 0.24898349999995162
                },
                {
                    "name": "G2",
                    "midi": 43,
                    "time": 67.72351200000024,
                    "velocity": 0.2755905511811024,
                    "duration": 0.13694092499996202
                },
                {
                    "name": "A2",
                    "midi": 45,
                    "time": 67.84800375000022,
                    "velocity": 0.23622047244094488,
                    "duration": 0.13694092499996202
                },
                {
                    "name": "B2",
                    "midi": 47,
                    "time": 67.97249550000019,
                    "velocity": 0.2440944881889764,
                    "duration": 0.13694092499996202
                },
                {
                    "name": "C3",
                    "midi": 48,
                    "time": 68.09698725000017,
                    "velocity": 0.2440944881889764,
                    "duration": 0.13694092499996202
                },
                {
                    "name": "D3",
                    "midi": 50,
                    "time": 68.22147900000014,
                    "velocity": 0.25196850393700787,
                    "duration": 0.13694092499997623
                },
                {
                    "name": "E3",
                    "midi": 52,
                    "time": 68.34597075000012,
                    "velocity": 0.2677165354330709,
                    "duration": 0.13694092500000465
                },
                {
                    "name": "D5",
                    "midi": 74,
                    "time": 68.47046250000012,
                    "velocity": 0.3937007874015748,
                    "duration": 0.13694092500000465
                },
                {
                    "name": "F#3",
                    "midi": 54,
                    "time": 68.47046250000012,
                    "velocity": 0.2677165354330709,
                    "duration": 0.13694092500000465
                },
                {
                    "name": "C5",
                    "midi": 72,
                    "time": 68.59495425000013,
                    "velocity": 0.36220472440944884,
                    "duration": 0.13694092500000465
                },
                {
                    "name": "G3",
                    "midi": 55,
                    "time": 68.59495425000013,
                    "velocity": 0.28346456692913385,
                    "duration": 0.12449175000000423
                },
                {
                    "name": "B4",
                    "midi": 71,
                    "time": 68.71944600000013,
                    "velocity": 0.3937007874015748,
                    "duration": 0.13694092499999044
                },
                {
                    "name": "G2",
                    "midi": 43,
                    "time": 68.71944600000013,
                    "velocity": 0.2755905511811024,
                    "duration": 0.12449174999999002
                },
                {
                    "name": "A4",
                    "midi": 69,
                    "time": 68.84393775000012,
                    "velocity": 0.3543307086614173,
                    "duration": 0.13694092499999044
                },
                {
                    "name": "G4",
                    "midi": 67,
                    "time": 68.96842950000011,
                    "velocity": 0.3543307086614173,
                    "duration": 0.13694092499999044
                },
                {
                    "name": "G3",
                    "midi": 55,
                    "time": 68.96842950000011,
                    "velocity": 0.25196850393700787,
                    "duration": 0.12449174999999002
                },
                {
                    "name": "F#4",
                    "midi": 66,
                    "time": 69.0929212500001,
                    "velocity": 0.3543307086614173,
                    "duration": 0.13694092499999044
                },
                {
                    "name": "E4",
                    "midi": 64,
                    "time": 69.21741300000009,
                    "velocity": 0.3937007874015748,
                    "duration": 0.13694092499999044
                },
                {
                    "name": "G2",
                    "midi": 43,
                    "time": 69.21741300000009,
                    "velocity": 0.33070866141732286,
                    "duration": 0.12449174999999002
                },
                {
                    "name": "F#4",
                    "midi": 66,
                    "time": 69.34190475000008,
                    "velocity": 0.3779527559055118,
                    "duration": 0.13694092499999044
                },
                {
                    "name": "G4",
                    "midi": 67,
                    "time": 69.46639650000007,
                    "velocity": 0.3937007874015748,
                    "duration": 0.13694092499999044
                },
                {
                    "name": "G3",
                    "midi": 55,
                    "time": 69.46639650000007,
                    "velocity": 0.29133858267716534,
                    "duration": 0.12449174999999002
                },
                {
                    "name": "E4",
                    "midi": 64,
                    "time": 69.59088825000006,
                    "velocity": 0.4330708661417323,
                    "duration": 0.13694092500000465
                },
                {
                    "name": "D4",
                    "midi": 62,
                    "time": 69.71538000000007,
                    "velocity": 0.47244094488188976,
                    "duration": 0.12449175000000423
                },
                {
                    "name": "G2",
                    "midi": 43,
                    "time": 69.71538000000007,
                    "velocity": 0.3779527559055118,
                    "duration": 0.12449175000000423
                },
                {
                    "name": "G5",
                    "midi": 79,
                    "time": 69.96436350000008,
                    "velocity": 0.4881889763779528,
                    "duration": 0.12449175000000423
                },
                {
                    "name": "B2",
                    "midi": 47,
                    "time": 69.96436350000008,
                    "velocity": 0.33070866141732286,
                    "duration": 0.24898350000000846
                },
                {
                    "name": "F#5",
                    "midi": 78,
                    "time": 70.08885525000008,
                    "velocity": 0.4566929133858268,
                    "duration": 0.12449175000000423
                },
                {
                    "name": "E5",
                    "midi": 76,
                    "time": 70.21334700000008,
                    "velocity": 0.4409448818897638,
                    "duration": 0.12449175000000423
                },
                {
                    "name": "D3",
                    "midi": 50,
                    "time": 70.21334700000008,
                    "velocity": 0.3779527559055118,
                    "duration": 0.24898350000000846
                },
                {
                    "name": "D5",
                    "midi": 74,
                    "time": 70.33783875000009,
                    "velocity": 0.4409448818897638,
                    "duration": 0.12449175000000423
                },
                {
                    "name": "C5",
                    "midi": 72,
                    "time": 70.46233050000009,
                    "velocity": 0.4409448818897638,
                    "duration": 0.12449175000000423
                },
                {
                    "name": "G3",
                    "midi": 55,
                    "time": 70.46233050000009,
                    "velocity": 0.33858267716535434,
                    "duration": 0.24898350000000846
                },
                {
                    "name": "B4",
                    "midi": 71,
                    "time": 70.5868222500001,
                    "velocity": 0.4409448818897638,
                    "duration": 0.12449175000000423
                },
                {
                    "name": "A4",
                    "midi": 69,
                    "time": 70.7113140000001,
                    "velocity": 0.4881889763779528,
                    "duration": 0.12449175000000423
                },
                {
                    "name": "C3",
                    "midi": 48,
                    "time": 70.7113140000001,
                    "velocity": 0.3779527559055118,
                    "duration": 0.12449175000000423
                },
                {
                    "name": "A4",
                    "midi": 69,
                    "time": 70.96029750000011,
                    "velocity": 0.4566929133858268,
                    "duration": 0.12449175000000423
                },
                {
                    "name": "C3",
                    "midi": 48,
                    "time": 70.96029750000011,
                    "velocity": 0.33858267716535434,
                    "duration": 0.12449175000000423
                },
                {
                    "name": "F#4",
                    "midi": 66,
                    "time": 71.20928100000012,
                    "velocity": 0.4094488188976378,
                    "duration": 0.12449175000000423
                },
                {
                    "name": "D5",
                    "midi": 74,
                    "time": 71.20928100000012,
                    "velocity": 0.4881889763779528,
                    "duration": 0.12449175000000423
                },
                {
                    "name": "D3",
                    "midi": 50,
                    "time": 71.20928100000012,
                    "velocity": 0.3779527559055118,
                    "duration": 0.12449175000000423
                },
                {
                    "name": "D5",
                    "midi": 74,
                    "time": 71.45826450000013,
                    "velocity": 0.44881889763779526,
                    "duration": 0.12449175000000423
                },
                {
                    "name": "F#4",
                    "midi": 66,
                    "time": 71.45826450000013,
                    "velocity": 0.3779527559055118,
                    "duration": 0.12449175000000423
                },
                {
                    "name": "D3",
                    "midi": 50,
                    "time": 71.45826450000013,
                    "velocity": 0.33858267716535434,
                    "duration": 0.12449175000000423
                },
                {
                    "name": "A4",
                    "midi": 69,
                    "time": 71.70724800000013,
                    "velocity": 0.4094488188976378,
                    "duration": 0.4979670000000169
                },
                {
                    "name": "C5",
                    "midi": 72,
                    "time": 71.70724800000013,
                    "velocity": 0.4881889763779528,
                    "duration": 0.4979670000000169
                },
                {
                    "name": "G2",
                    "midi": 43,
                    "time": 71.70724800000013,
                    "velocity": 0.2755905511811024,
                    "duration": 0.12449175000000423
                },
                {
                    "name": "G3",
                    "midi": 55,
                    "time": 71.95623150000014,
                    "velocity": 0.25196850393700787,
                    "duration": 0.12449175000000423
                },
                {
                    "name": "B4",
                    "midi": 71,
                    "time": 72.20521500000015,
                    "velocity": 0.4645669291338583,
                    "duration": 0.24898350000000846
                },
                {
                    "name": "G4",
                    "midi": 67,
                    "time": 72.20521500000015,
                    "velocity": 0.3937007874015748,
                    "duration": 0.24898350000000846
                },
                {
                    "name": "G2",
                    "midi": 43,
                    "time": 72.20521500000015,
                    "velocity": 0.2755905511811024,
                    "duration": 0.12449175000000423
                },
                {
                    "name": "B5",
                    "midi": 83,
                    "time": 72.45419850000016,
                    "velocity": 0.3937007874015748,
                    "duration": 0.13694092500000465
                },
                {
                    "name": "G3",
                    "midi": 55,
                    "time": 72.45419850000016,
                    "velocity": 0.2755905511811024,
                    "duration": 0.12449175000000423
                },
                {
                    "name": "A5",
                    "midi": 81,
                    "time": 72.57869025000016,
                    "velocity": 0.36220472440944884,
                    "duration": 0.13694092499999044
                },
                {
                    "name": "G5",
                    "midi": 79,
                    "time": 72.70318200000015,
                    "velocity": 0.3937007874015748,
                    "duration": 0.13694092499999044
                },
                {
                    "name": "G2",
                    "midi": 43,
                    "time": 72.70318200000015,
                    "velocity": 0.2755905511811024,
                    "duration": 0.12449174999999002
                },
                {
                    "name": "F#5",
                    "midi": 78,
                    "time": 72.82767375000014,
                    "velocity": 0.3543307086614173,
                    "duration": 0.13694092499999044
                },
                {
                    "name": "E5",
                    "midi": 76,
                    "time": 72.95216550000013,
                    "velocity": 0.3543307086614173,
                    "duration": 0.13694092499999044
                },
                {
                    "name": "G3",
                    "midi": 55,
                    "time": 72.95216550000013,
                    "velocity": 0.25196850393700787,
                    "duration": 0.12449174999999002
                },
                {
                    "name": "D#5",
                    "midi": 75,
                    "time": 73.07665725000012,
                    "velocity": 0.3543307086614173,
                    "duration": 0.13694092499999044
                },
                {
                    "name": "E5",
                    "midi": 76,
                    "time": 73.20114900000011,
                    "velocity": 0.3937007874015748,
                    "duration": 0.13694092499999044
                },
                {
                    "name": "G2",
                    "midi": 43,
                    "time": 73.20114900000011,
                    "velocity": 0.2755905511811024,
                    "duration": 0.12449174999999002
                },
                {
                    "name": "F#5",
                    "midi": 78,
                    "time": 73.3256407500001,
                    "velocity": 0.36220472440944884,
                    "duration": 0.13694092500000465
                },
                {
                    "name": "G5",
                    "midi": 79,
                    "time": 73.45013250000011,
                    "velocity": 0.36220472440944884,
                    "duration": 0.13694092500000465
                },
                {
                    "name": "G3",
                    "midi": 55,
                    "time": 73.45013250000011,
                    "velocity": 0.2440944881889764,
                    "duration": 0.12449175000000423
                },
                {
                    "name": "E5",
                    "midi": 76,
                    "time": 73.57462425000011,
                    "velocity": 0.36220472440944884,
                    "duration": 0.13694092500000465
                },
                {
                    "name": "D5",
                    "midi": 74,
                    "time": 73.69911600000012,
                    "velocity": 0.3937007874015748,
                    "duration": 0.13694092500000465
                },
                {
                    "name": "G2",
                    "midi": 43,
                    "time": 73.69911600000012,
                    "velocity": 0.2755905511811024,
                    "duration": 0.12449175000000423
                },
                {
                    "name": "C5",
                    "midi": 72,
                    "time": 73.82360775000012,
                    "velocity": 0.36220472440944884,
                    "duration": 0.13694092500000465
                },
                {
                    "name": "B4",
                    "midi": 71,
                    "time": 73.94809950000013,
                    "velocity": 0.36220472440944884,
                    "duration": 0.13694092500000465
                },
                {
                    "name": "G3",
                    "midi": 55,
                    "time": 73.94809950000013,
                    "velocity": 0.25196850393700787,
                    "duration": 0.12449175000000423
                },
                {
                    "name": "C5",
                    "midi": 72,
                    "time": 74.07259125000013,
                    "velocity": 0.36220472440944884,
                    "duration": 0.13694092500000465
                },
                {
                    "name": "D5",
                    "midi": 74,
                    "time": 74.19708300000013,
                    "velocity": 0.3937007874015748,
                    "duration": 0.12449175000000423
                },
                {
                    "name": "G2",
                    "midi": 43,
                    "time": 74.19708300000013,
                    "velocity": 0.2755905511811024,
                    "duration": 0.12449175000000423
                },
                {
                    "name": "B5",
                    "midi": 83,
                    "time": 74.44606650000014,
                    "velocity": 0.3937007874015748,
                    "duration": 0.13694092500000465
                },
                {
                    "name": "G3",
                    "midi": 55,
                    "time": 74.44606650000014,
                    "velocity": 0.2440944881889764,
                    "duration": 0.12449175000000423
                },
                {
                    "name": "A5",
                    "midi": 81,
                    "time": 74.57055825000015,
                    "velocity": 0.36220472440944884,
                    "duration": 0.13694092500000465
                },
                {
                    "name": "G5",
                    "midi": 79,
                    "time": 74.69505000000015,
                    "velocity": 0.3937007874015748,
                    "duration": 0.13694092500000465
                },
                {
                    "name": "G2",
                    "midi": 43,
                    "time": 74.69505000000015,
                    "velocity": 0.2755905511811024,
                    "duration": 0.12449175000000423
                },
                {
                    "name": "F#5",
                    "midi": 78,
                    "time": 74.81954175000016,
                    "velocity": 0.3543307086614173,
                    "duration": 0.13694092500000465
                },
                {
                    "name": "E5",
                    "midi": 76,
                    "time": 74.94403350000016,
                    "velocity": 0.3543307086614173,
                    "duration": 0.13694092500000465
                },
                {
                    "name": "G3",
                    "midi": 55,
                    "time": 74.94403350000016,
                    "velocity": 0.25196850393700787,
                    "duration": 0.12449175000000423
                },
                {
                    "name": "D#5",
                    "midi": 75,
                    "time": 75.06852525000016,
                    "velocity": 0.3543307086614173,
                    "duration": 0.13694092500000465
                },
                {
                    "name": "E5",
                    "midi": 76,
                    "time": 75.19301700000017,
                    "velocity": 0.3937007874015748,
                    "duration": 0.13694092500000465
                },
                {
                    "name": "G2",
                    "midi": 43,
                    "time": 75.19301700000017,
                    "velocity": 0.33070866141732286,
                    "duration": 0.12449175000000423
                },
                {
                    "name": "F#5",
                    "midi": 78,
                    "time": 75.31750875000017,
                    "velocity": 0.3779527559055118,
                    "duration": 0.13694092500000465
                },
                {
                    "name": "G5",
                    "midi": 79,
                    "time": 75.44200050000018,
                    "velocity": 0.3937007874015748,
                    "duration": 0.13694092500000465
                },
                {
                    "name": "G3",
                    "midi": 55,
                    "time": 75.44200050000018,
                    "velocity": 0.29133858267716534,
                    "duration": 0.12449175000000423
                },
                {
                    "name": "E5",
                    "midi": 76,
                    "time": 75.56649225000018,
                    "velocity": 0.4330708661417323,
                    "duration": 0.13694092500000465
                },
                {
                    "name": "D5",
                    "midi": 74,
                    "time": 75.69098400000019,
                    "velocity": 0.4881889763779528,
                    "duration": 0.12449174999999002
                },
                {
                    "name": "G2",
                    "midi": 43,
                    "time": 75.69098400000019,
                    "velocity": 0.3779527559055118,
                    "duration": 0.24898349999999425
                },
                {
                    "name": "G5",
                    "midi": 79,
                    "time": 75.81547575000018,
                    "velocity": 0.41732283464566927,
                    "duration": 0.12449175000000423
                },
                {
                    "name": "B5",
                    "midi": 83,
                    "time": 75.93996750000018,
                    "velocity": 0.4409448818897638,
                    "duration": 0.12449175000000423
                },
                {
                    "name": "G3",
                    "midi": 55,
                    "time": 75.93996750000018,
                    "velocity": 0.3228346456692913,
                    "duration": 0.24898350000000846
                },
                {
                    "name": "D6",
                    "midi": 86,
                    "time": 76.06445925000018,
                    "velocity": 0.4251968503937008,
                    "duration": 0.12449175000000423
                },
                {
                    "name": "C6",
                    "midi": 84,
                    "time": 76.18895100000019,
                    "velocity": 0.4881889763779528,
                    "duration": 0.12449175000000423
                },
                {
                    "name": "D3",
                    "midi": 50,
                    "time": 76.18895100000019,
                    "velocity": 0.3228346456692913,
                    "duration": 0.24898350000000846
                },
                {
                    "name": "B5",
                    "midi": 83,
                    "time": 76.31344275000019,
                    "velocity": 0.41732283464566927,
                    "duration": 0.12449175000000423
                },
                {
                    "name": "A5",
                    "midi": 81,
                    "time": 76.4379345000002,
                    "velocity": 0.4409448818897638,
                    "duration": 0.12449175000000423
                },
                {
                    "name": "B2",
                    "midi": 47,
                    "time": 76.4379345000002,
                    "velocity": 0.3228346456692913,
                    "duration": 0.24898350000000846
                },
                {
                    "name": "G5",
                    "midi": 79,
                    "time": 76.5624262500002,
                    "velocity": 0.4645669291338583,
                    "duration": 0.12449175000000423
                },
                {
                    "name": "F#5",
                    "midi": 78,
                    "time": 76.6869180000002,
                    "velocity": 0.5275590551181102,
                    "duration": 0.12449174999999002
                },
                {
                    "name": "C3",
                    "midi": 48,
                    "time": 76.6869180000002,
                    "velocity": 0.3858267716535433,
                    "duration": 0.24898349999999425
                },
                {
                    "name": "E5",
                    "midi": 76,
                    "time": 76.8114097500002,
                    "velocity": 0.4330708661417323,
                    "duration": 0.12449175000000423
                },
                {
                    "name": "D5",
                    "midi": 74,
                    "time": 76.9359015000002,
                    "velocity": 0.4566929133858268,
                    "duration": 0.12449174999999002
                },
                {
                    "name": "A2",
                    "midi": 45,
                    "time": 76.9359015000002,
                    "velocity": 0.31496062992125984,
                    "duration": 0.24898349999998004
                },
                {
                    "name": "C5",
                    "midi": 72,
                    "time": 77.06039325000019,
                    "velocity": 0.4330708661417323,
                    "duration": 0.12449174999999002
                },
                {
                    "name": "B4",
                    "midi": 71,
                    "time": 77.18488500000018,
                    "velocity": 0.5196850393700787,
                    "duration": 0.12449174999999002
                },
                {
                    "name": "D3",
                    "midi": 50,
                    "time": 77.18488500000018,
                    "velocity": 0.3700787401574803,
                    "duration": 0.24898349999998004
                },
                {
                    "name": "A4",
                    "midi": 69,
                    "time": 77.30937675000017,
                    "velocity": 0.41732283464566927,
                    "duration": 0.12449174999999002
                },
                {
                    "name": "G4",
                    "midi": 67,
                    "time": 77.43386850000016,
                    "velocity": 0.4566929133858268,
                    "duration": 0.12449174999999002
                },
                {
                    "name": "D2",
                    "midi": 38,
                    "time": 77.43386850000016,
                    "velocity": 0.33070866141732286,
                    "duration": 0.24898349999998004
                },
                {
                    "name": "F#4",
                    "midi": 66,
                    "time": 77.55836025000015,
                    "velocity": 0.4409448818897638,
                    "duration": 0.12449174999999002
                },
                {
                    "name": "G4",
                    "midi": 67,
                    "time": 77.68285200000014,
                    "velocity": 0.5275590551181102,
                    "duration": 0.12449175000000423
                },
                {
                    "name": "G2",
                    "midi": 43,
                    "time": 77.68285200000014,
                    "velocity": 0.3858267716535433,
                    "duration": 0.24898350000000846
                },
                {
                    "name": "B4",
                    "midi": 71,
                    "time": 77.80734375000014,
                    "velocity": 0.4566929133858268,
                    "duration": 0.12449175000000423
                },
                {
                    "name": "D5",
                    "midi": 74,
                    "time": 77.93183550000015,
                    "velocity": 0.5039370078740157,
                    "duration": 0.12449175000000423
                },
                {
                    "name": "B4",
                    "midi": 71,
                    "time": 78.05632725000015,
                    "velocity": 0.4566929133858268,
                    "duration": 0.12449175000000423
                },
                {
                    "name": "D5",
                    "midi": 74,
                    "time": 78.18081900000016,
                    "velocity": 0.5275590551181102,
                    "duration": 0.12449174999999002
                },
                {
                    "name": "B4",
                    "midi": 71,
                    "time": 78.30531075000015,
                    "velocity": 0.4645669291338583,
                    "duration": 0.12449175000000423
                },
                {
                    "name": "C5",
                    "midi": 72,
                    "time": 78.42980250000015,
                    "velocity": 0.5039370078740157,
                    "duration": 0.12449175000000423
                },
                {
                    "name": "D3",
                    "midi": 50,
                    "time": 78.42980250000015,
                    "velocity": 0.3858267716535433,
                    "duration": 0.12449175000000423
                },
                {
                    "name": "A4",
                    "midi": 69,
                    "time": 78.55429425000015,
                    "velocity": 0.4566929133858268,
                    "duration": 0.12449175000000423
                },
                {
                    "name": "G4",
                    "midi": 67,
                    "time": 78.67878600000016,
                    "velocity": 0.5275590551181102,
                    "duration": 0.12449175000000423
                },
                {
                    "name": "G3",
                    "midi": 55,
                    "time": 78.67878600000016,
                    "velocity": 0.44881889763779526,
                    "duration": 0.12449175000000423
                },
                {
                    "name": "B4",
                    "midi": 71,
                    "time": 78.80327775000016,
                    "velocity": 0.4645669291338583,
                    "duration": 0.12449175000000423
                },
                {
                    "name": "D5",
                    "midi": 74,
                    "time": 78.92776950000017,
                    "velocity": 0.49606299212598426,
                    "duration": 0.12449175000000423
                },
                {
                    "name": "B4",
                    "midi": 71,
                    "time": 79.05226125000017,
                    "velocity": 0.4566929133858268,
                    "duration": 0.12449175000000423
                },
                {
                    "name": "D5",
                    "midi": 74,
                    "time": 79.17675300000018,
                    "velocity": 0.5275590551181102,
                    "duration": 0.12449175000000423
                },
                {
                    "name": "B4",
                    "midi": 71,
                    "time": 79.30124475000018,
                    "velocity": 0.4645669291338583,
                    "duration": 0.12449175000000423
                },
                {
                    "name": "C5",
                    "midi": 72,
                    "time": 79.42573650000018,
                    "velocity": 0.5118110236220472,
                    "duration": 0.12449174999999002
                },
                {
                    "name": "D3",
                    "midi": 50,
                    "time": 79.42573650000018,
                    "velocity": 0.3858267716535433,
                    "duration": 0.12449174999999002
                },
                {
                    "name": "A4",
                    "midi": 69,
                    "time": 79.55022825000017,
                    "velocity": 0.4645669291338583,
                    "duration": 0.12449175000000423
                },
                {
                    "name": "G4",
                    "midi": 67,
                    "time": 79.67472000000018,
                    "velocity": 0.5511811023622047,
                    "duration": 0.24898350000000846
                },
                {
                    "name": "G2",
                    "midi": 43,
                    "time": 79.67472000000018,
                    "velocity": 0.4409448818897638,
                    "duration": 0.12449175000000423
                },
                {
                    "name": "G3",
                    "midi": 55,
                    "time": 79.92370350000019,
                    "velocity": 0.3228346456692913,
                    "duration": 0.24898350000000846
                },
                {
                    "name": "B4",
                    "midi": 71,
                    "time": 80.1726870000002,
                    "velocity": 0.4645669291338583,
                    "duration": 0.24898349999999425
                },
                {
                    "name": "D5",
                    "midi": 74,
                    "time": 80.1726870000002,
                    "velocity": 0.4645669291338583,
                    "duration": 0.24898349999999425
                },
                {
                    "name": "G5",
                    "midi": 79,
                    "time": 80.1726870000002,
                    "velocity": 0.5511811023622047,
                    "duration": 0.24898349999999425
                },
                {
                    "name": "D3",
                    "midi": 50,
                    "time": 80.1726870000002,
                    "velocity": 0.3779527559055118,
                    "duration": 0.24898349999999425
                },
                {
                    "name": "B2",
                    "midi": 47,
                    "time": 80.42167050000019,
                    "velocity": 0.3228346456692913,
                    "duration": 0.24898349999999425
                },
                {
                    "name": "B4",
                    "midi": 71,
                    "time": 80.67065400000018,
                    "velocity": 0.4645669291338583,
                    "duration": 0.4979670000000027
                },
                {
                    "name": "D5",
                    "midi": 74,
                    "time": 80.67065400000018,
                    "velocity": 0.4645669291338583,
                    "duration": 0.4979670000000027
                },
                {
                    "name": "G5",
                    "midi": 79,
                    "time": 80.67065400000018,
                    "velocity": 0.5511811023622047,
                    "duration": 0.4979670000000027
                },
                {
                    "name": "G2",
                    "midi": 43,
                    "time": 80.67065400000018,
                    "velocity": 0.4409448818897638,
                    "duration": 0.4979670000000027
                },
                {
                    "name": "D5",
                    "midi": 74,
                    "time": 81.41760450000018,
                    "velocity": 0.36220472440944884,
                    "duration": 0.24898349999999425
                },
                {
                    "name": "D5",
                    "midi": 74,
                    "time": 81.66658800000017,
                    "velocity": 0.3937007874015748,
                    "duration": 0.24898349999999425
                },
                {
                    "name": "B4",
                    "midi": 71,
                    "time": 81.91557150000017,
                    "velocity": 0.3543307086614173,
                    "duration": 0.24898349999999425
                },
                {
                    "name": "B4",
                    "midi": 71,
                    "time": 82.16455500000016,
                    "velocity": 0.3858267716535433,
                    "duration": 0.24898349999999425
                },
                {
                    "name": "F5",
                    "midi": 77,
                    "time": 82.41353850000016,
                    "velocity": 0.4881889763779528,
                    "duration": 0.24898349999999425
                },
                {
                    "name": "G#3",
                    "midi": 56,
                    "time": 82.41353850000016,
                    "velocity": 0.25196850393700787,
                    "duration": 0.24898349999999425
                },
                {
                    "name": "F5",
                    "midi": 77,
                    "time": 82.66252200000015,
                    "velocity": 0.5433070866141733,
                    "duration": 0.746950499999997
                },
                {
                    "name": "G#3",
                    "midi": 56,
                    "time": 82.66252200000015,
                    "velocity": 0.3228346456692913,
                    "duration": 0.24898350000000846
                },
                {
                    "name": "D4",
                    "midi": 62,
                    "time": 82.91150550000016,
                    "velocity": 0.25984251968503935,
                    "duration": 0.24898349999999425
                },
                {
                    "name": "B3",
                    "midi": 59,
                    "time": 82.91150550000016,
                    "velocity": 0.25984251968503935,
                    "duration": 0.24898349999999425
                },
                {
                    "name": "B3",
                    "midi": 59,
                    "time": 83.16048900000015,
                    "velocity": 0.2440944881889764,
                    "duration": 0.24898349999999425
                },
                {
                    "name": "D4",
                    "midi": 62,
                    "time": 83.16048900000015,
                    "velocity": 0.2440944881889764,
                    "duration": 0.24898349999999425
                },
                {
                    "name": "E5",
                    "midi": 76,
                    "time": 83.40947250000015,
                    "velocity": 0.3858267716535433,
                    "duration": 0.12449175000000423
                },
                {
                    "name": "G#3",
                    "midi": 56,
                    "time": 83.40947250000015,
                    "velocity": 0.2440944881889764,
                    "duration": 0.24898350000000846
                },
                {
                    "name": "D5",
                    "midi": 74,
                    "time": 83.53396425000015,
                    "velocity": 0.3543307086614173,
                    "duration": 0.12449175000000423
                },
                {
                    "name": "C5",
                    "midi": 72,
                    "time": 83.65845600000016,
                    "velocity": 0.3937007874015748,
                    "duration": 0.12449175000000423
                },
                {
                    "name": "A3",
                    "midi": 57,
                    "time": 83.65845600000016,
                    "velocity": 0.2755905511811024,
                    "duration": 0.12449175000000423
                },
                {
                    "name": "C5",
                    "midi": 72,
                    "time": 83.90743950000017,
                    "velocity": 0.3543307086614173,
                    "duration": 0.12449175000000423
                },
                {
                    "name": "C5",
                    "midi": 72,
                    "time": 84.15642300000017,
                    "velocity": 0.3937007874015748,
                    "duration": 0.13694092500000465
                },
                {
                    "name": "E3",
                    "midi": 52,
                    "time": 84.15642300000017,
                    "velocity": 0.2755905511811024,
                    "duration": 0.12449175000000423
                },
                {
                    "name": "B4",
                    "midi": 71,
                    "time": 84.28091475000018,
                    "velocity": 0.33858267716535434,
                    "duration": 0.13694092500000465
                },
                {
                    "name": "A4",
                    "midi": 69,
                    "time": 84.40540650000018,
                    "velocity": 0.33858267716535434,
                    "duration": 0.13694092500000465
                },
                {
                    "name": "B4",
                    "midi": 71,
                    "time": 84.52989825000019,
                    "velocity": 0.33858267716535434,
                    "duration": 0.13694092500000465
                },
                {
                    "name": "C5",
                    "midi": 72,
                    "time": 84.65439000000019,
                    "velocity": 0.41732283464566927,
                    "duration": 0.24898349999999425
                },
                {
                    "name": "A2",
                    "midi": 45,
                    "time": 84.65439000000019,
                    "velocity": 0.2755905511811024,
                    "duration": 0.24898349999999425
                },
                {
                    "name": "A5",
                    "midi": 81,
                    "time": 84.90337350000019,
                    "velocity": 0.36220472440944884,
                    "duration": 0.12449175000000423
                },
                {
                    "name": "E5",
                    "midi": 76,
                    "time": 85.1523570000002,
                    "velocity": 0.3937007874015748,
                    "duration": 0.13694092500000465
                },
                {
                    "name": "F5",
                    "midi": 77,
                    "time": 85.2768487500002,
                    "velocity": 0.33858267716535434,
                    "duration": 0.13694092500000465
                },
                {
                    "name": "E5",
                    "midi": 76,
                    "time": 85.4013405000002,
                    "velocity": 0.33858267716535434,
                    "duration": 0.13694092500000465
                },
                {
                    "name": "G#3",
                    "midi": 56,
                    "time": 85.4013405000002,
                    "velocity": 0.2755905511811024,
                    "duration": 0.12449175000000423
                },
                {
                    "name": "D5",
                    "midi": 74,
                    "time": 85.5258322500002,
                    "velocity": 0.33858267716535434,
                    "duration": 0.13694092500000465
                },
                {
                    "name": "C5",
                    "midi": 72,
                    "time": 85.65032400000021,
                    "velocity": 0.41732283464566927,
                    "duration": 0.24898349999999425
                },
                {
                    "name": "A3",
                    "midi": 57,
                    "time": 85.65032400000021,
                    "velocity": 0.2755905511811024,
                    "duration": 0.24898349999999425
                },
                {
                    "name": "A5",
                    "midi": 81,
                    "time": 85.8993075000002,
                    "velocity": 0.36220472440944884,
                    "duration": 0.12449175000000423
                },
                {
                    "name": "E5",
                    "midi": 76,
                    "time": 86.14829100000021,
                    "velocity": 0.3937007874015748,
                    "duration": 0.13694092500000465
                },
                {
                    "name": "F5",
                    "midi": 77,
                    "time": 86.27278275000022,
                    "velocity": 0.33858267716535434,
                    "duration": 0.13694092500000465
                },
                {
                    "name": "E5",
                    "midi": 76,
                    "time": 86.39727450000022,
                    "velocity": 0.33858267716535434,
                    "duration": 0.13694092500000465
                },
                {
                    "name": "G#3",
                    "midi": 56,
                    "time": 86.39727450000022,
                    "velocity": 0.2755905511811024,
                    "duration": 0.12449175000000423
                },
                {
                    "name": "D5",
                    "midi": 74,
                    "time": 86.52176625000023,
                    "velocity": 0.33858267716535434,
                    "duration": 0.13694092500000465
                },
                {
                    "name": "C5",
                    "midi": 72,
                    "time": 86.64625800000023,
                    "velocity": 0.3937007874015748,
                    "duration": 0.13694092500000465
                },
                {
                    "name": "A3",
                    "midi": 57,
                    "time": 86.64625800000023,
                    "velocity": 0.33070866141732286,
                    "duration": 0.24898350000000846
                },
                {
                    "name": "D5",
                    "midi": 74,
                    "time": 86.77074975000023,
                    "velocity": 0.3543307086614173,
                    "duration": 0.13694092500000465
                },
                {
                    "name": "C5",
                    "midi": 72,
                    "time": 86.89524150000024,
                    "velocity": 0.3543307086614173,
                    "duration": 0.13694092500000465
                },
                {
                    "name": "A2",
                    "midi": 45,
                    "time": 86.89524150000024,
                    "velocity": 0.2755905511811024,
                    "duration": 0.24898350000000846
                },
                {
                    "name": "B4",
                    "midi": 71,
                    "time": 87.01973325000024,
                    "velocity": 0.3543307086614173,
                    "duration": 0.13694092500000465
                },
                {
                    "name": "A4",
                    "midi": 69,
                    "time": 87.14422500000025,
                    "velocity": 0.4015748031496063,
                    "duration": 0.13694092499999044
                },
                {
                    "name": "A3",
                    "midi": 57,
                    "time": 87.14422500000025,
                    "velocity": 0.30708661417322836,
                    "duration": 0.24898349999999425
                },
                {
                    "name": "B4",
                    "midi": 71,
                    "time": 87.26871675000024,
                    "velocity": 0.4330708661417323,
                    "duration": 0.13694092500000465
                },
                {
                    "name": "C5",
                    "midi": 72,
                    "time": 87.39320850000024,
                    "velocity": 0.4566929133858268,
                    "duration": 0.13694092500000465
                },
                {
                    "name": "G3",
                    "midi": 55,
                    "time": 87.39320850000024,
                    "velocity": 0.3779527559055118,
                    "duration": 0.24898350000000846
                },
                {
                    "name": "D5",
                    "midi": 74,
                    "time": 87.51770025000025,
                    "velocity": 0.4881889763779528,
                    "duration": 0.13694092500000465
                },
                {
                    "name": "E5",
                    "midi": 76,
                    "time": 87.64219200000025,
                    "velocity": 0.5511811023622047,
                    "duration": 0.746950499999997
                },
                {
                    "name": "F#3",
                    "midi": 54,
                    "time": 87.64219200000025,
                    "velocity": 0.4094488188976378,
                    "duration": 0.24898350000000846
                },
                {
                    "name": "A3",
                    "midi": 57,
                    "time": 87.89117550000026,
                    "velocity": 0.2755905511811024,
                    "duration": 0.24898349999999425
                },
                {
                    "name": "C4",
                    "midi": 60,
                    "time": 87.89117550000026,
                    "velocity": 0.33070866141732286,
                    "duration": 0.24898349999999425
                },
                {
                    "name": "A3",
                    "midi": 57,
                    "time": 88.14015900000025,
                    "velocity": 0.2755905511811024,
                    "duration": 0.24898349999999425
                },
                {
                    "name": "C4",
                    "midi": 60,
                    "time": 88.14015900000025,
                    "velocity": 0.33070866141732286,
                    "duration": 0.24898349999999425
                },
                {
                    "name": "D5",
                    "midi": 74,
                    "time": 88.38914250000025,
                    "velocity": 0.3937007874015748,
                    "duration": 0.13694092500000465
                },
                {
                    "name": "F#3",
                    "midi": 54,
                    "time": 88.38914250000025,
                    "velocity": 0.2992125984251969,
                    "duration": 0.24898350000000846
                },
                {
                    "name": "C5",
                    "midi": 72,
                    "time": 88.51363425000025,
                    "velocity": 0.33858267716535434,
                    "duration": 0.13694092500000465
                },
                {
                    "name": "B4",
                    "midi": 71,
                    "time": 88.63812600000026,
                    "velocity": 0.3937007874015748,
                    "duration": 0.12449175000000423
                },
                {
                    "name": "G3",
                    "midi": 55,
                    "time": 88.63812600000026,
                    "velocity": 0.2755905511811024,
                    "duration": 0.12449175000000423
                },
                {
                    "name": "D5",
                    "midi": 74,
                    "time": 88.76261775000026,
                    "velocity": 0.3543307086614173,
                    "duration": 0.13694092500000465
                },
                {
                    "name": "C5",
                    "midi": 72,
                    "time": 88.88710950000026,
                    "velocity": 0.33858267716535434,
                    "duration": 0.13694092500000465
                },
                {
                    "name": "B4",
                    "midi": 71,
                    "time": 89.01160125000027,
                    "velocity": 0.33858267716535434,
                    "duration": 0.13694092500000465
                },
                {
                    "name": "A4",
                    "midi": 69,
                    "time": 89.13609300000027,
                    "velocity": 0.3937007874015748,
                    "duration": 0.13694092500000465
                },
                {
                    "name": "D3",
                    "midi": 50,
                    "time": 89.13609300000027,
                    "velocity": 0.2283464566929134,
                    "duration": 0.12449175000000423
                },
                {
                    "name": "C5",
                    "midi": 72,
                    "time": 89.26058475000028,
                    "velocity": 0.3543307086614173,
                    "duration": 0.13694092500000465
                },
                {
                    "name": "B4",
                    "midi": 71,
                    "time": 89.38507650000028,
                    "velocity": 0.33858267716535434,
                    "duration": 0.13694092500000465
                },
                {
                    "name": "A4",
                    "midi": 69,
                    "time": 89.50956825000029,
                    "velocity": 0.33858267716535434,
                    "duration": 0.13694092500000465
                },
                {
                    "name": "G4",
                    "midi": 67,
                    "time": 89.63406000000029,
                    "velocity": 0.3937007874015748,
                    "duration": 0.13694092500000465
                },
                {
                    "name": "E3",
                    "midi": 52,
                    "time": 89.63406000000029,
                    "velocity": 0.2992125984251969,
                    "duration": 0.9959340000000196
                },
                {
                    "name": "E2",
                    "midi": 40,
                    "time": 89.63406000000029,
                    "velocity": 0.2992125984251969,
                    "duration": 0.9959340000000196
                },
                {
                    "name": "A4",
                    "midi": 69,
                    "time": 89.7585517500003,
                    "velocity": 0.3543307086614173,
                    "duration": 0.13694092500000465
                },
                {
                    "name": "G4",
                    "midi": 67,
                    "time": 89.8830435000003,
                    "velocity": 0.3543307086614173,
                    "duration": 0.13694092500000465
                },
                {
                    "name": "F#4",
                    "midi": 66,
                    "time": 90.0075352500003,
                    "velocity": 0.3543307086614173,
                    "duration": 0.13694092499999044
                },
                {
                    "name": "G4",
                    "midi": 67,
                    "time": 90.13202700000029,
                    "velocity": 0.3937007874015748,
                    "duration": 0.13694092500000465
                },
                {
                    "name": "A4",
                    "midi": 69,
                    "time": 90.2565187500003,
                    "velocity": 0.36220472440944884,
                    "duration": 0.13694092500000465
                },
                {
                    "name": "B4",
                    "midi": 71,
                    "time": 90.3810105000003,
                    "velocity": 0.3937007874015748,
                    "duration": 0.13694092500000465
                },
                {
                    "name": "C#5",
                    "midi": 73,
                    "time": 90.5055022500003,
                    "velocity": 0.44881889763779526,
                    "duration": 0.13694092500000465
                },
                {
                    "name": "D5",
                    "midi": 74,
                    "time": 90.62999400000031,
                    "velocity": 0.5275590551181102,
                    "duration": 0.24898350000000846
                },
                {
                    "name": "D3",
                    "midi": 50,
                    "time": 90.62999400000031,
                    "velocity": 0.3858267716535433,
                    "duration": 0.12449175000000423
                },
                {
                    "name": "D2",
                    "midi": 38,
                    "time": 90.87897750000032,
                    "velocity": 0.2992125984251969,
                    "duration": 0.12449175000000423
                },
                {
                    "name": "F#4",
                    "midi": 66,
                    "time": 91.12796100000033,
                    "velocity": 0.4251968503937008,
                    "duration": 0.13694092500000465
                },
                {
                    "name": "G4",
                    "midi": 67,
                    "time": 91.25245275000033,
                    "velocity": 0.3937007874015748,
                    "duration": 0.13694092500000465
                },
                {
                    "name": "F#4",
                    "midi": 66,
                    "time": 91.37694450000033,
                    "velocity": 0.41732283464566927,
                    "duration": 0.13694092500000465
                },
                {
                    "name": "E4",
                    "midi": 64,
                    "time": 91.50143625000034,
                    "velocity": 0.3937007874015748,
                    "duration": 0.13694092500000465
                },
                {
                    "name": "D4",
                    "midi": 62,
                    "time": 91.62592800000034,
                    "velocity": 0.4566929133858268,
                    "duration": 0.12449175000000423
                },
                {
                    "name": "D3",
                    "midi": 50,
                    "time": 91.62592800000034,
                    "velocity": 0.3858267716535433,
                    "duration": 0.12449175000000423
                },
                {
                    "name": "D2",
                    "midi": 38,
                    "time": 91.87491150000035,
                    "velocity": 0.2992125984251969,
                    "duration": 0.12449175000000423
                },
                {
                    "name": "G4",
                    "midi": 67,
                    "time": 92.12389500000036,
                    "velocity": 0.3937007874015748,
                    "duration": 0.13694092500000465
                },
                {
                    "name": "A4",
                    "midi": 69,
                    "time": 92.24838675000036,
                    "velocity": 0.36220472440944884,
                    "duration": 0.13694092500000465
                },
                {
                    "name": "G4",
                    "midi": 67,
                    "time": 92.37287850000037,
                    "velocity": 0.3937007874015748,
                    "duration": 0.13694092500000465
                },
                {
                    "name": "F#4",
                    "midi": 66,
                    "time": 92.49737025000037,
                    "velocity": 0.3700787401574803,
                    "duration": 0.13694092500000465
                },
                {
                    "name": "E4",
                    "midi": 64,
                    "time": 92.62186200000038,
                    "velocity": 0.3937007874015748,
                    "duration": 0.12449175000000423
                },
                {
                    "name": "D3",
                    "midi": 50,
                    "time": 92.62186200000038,
                    "velocity": 0.30708661417322836,
                    "duration": 0.12449175000000423
                },
                {
                    "name": "D2",
                    "midi": 38,
                    "time": 92.87084550000039,
                    "velocity": 0.2677165354330709,
                    "duration": 0.12449175000000423
                },
                {
                    "name": "A4",
                    "midi": 69,
                    "time": 93.1198290000004,
                    "velocity": 0.3543307086614173,
                    "duration": 0.13694092500000465
                },
                {
                    "name": "B4",
                    "midi": 71,
                    "time": 93.2443207500004,
                    "velocity": 0.3228346456692913,
                    "duration": 0.13694092500000465
                },
                {
                    "name": "A4",
                    "midi": 69,
                    "time": 93.3688125000004,
                    "velocity": 0.3543307086614173,
                    "duration": 0.13694092500000465
                },
                {
                    "name": "G4",
                    "midi": 67,
                    "time": 93.4933042500004,
                    "velocity": 0.30708661417322836,
                    "duration": 0.13694092499999044
                },
                {
                    "name": "F#4",
                    "midi": 66,
                    "time": 93.6177960000004,
                    "velocity": 0.3543307086614173,
                    "duration": 0.13694092500000465
                },
                {
                    "name": "D3",
                    "midi": 50,
                    "time": 93.6177960000004,
                    "velocity": 0.2677165354330709,
                    "duration": 0.24898350000000846
                },
                {
                    "name": "G4",
                    "midi": 67,
                    "time": 93.7422877500004,
                    "velocity": 0.2992125984251969,
                    "duration": 0.13694092500000465
                },
                {
                    "name": "F#4",
                    "midi": 66,
                    "time": 93.8667795000004,
                    "velocity": 0.2992125984251969,
                    "duration": 0.13694092500000465
                },
                {
                    "name": "D2",
                    "midi": 38,
                    "time": 93.8667795000004,
                    "velocity": 0.2204724409448819,
                    "duration": 0.24898350000000846
                },
                {
                    "name": "E4",
                    "midi": 64,
                    "time": 93.99127125000041,
                    "velocity": 0.2992125984251969,
                    "duration": 0.13694092500000465
                },
                {
                    "name": "F#4",
                    "midi": 66,
                    "time": 94.11576300000041,
                    "velocity": 0.33070866141732286,
                    "duration": 0.13694092500000465
                },
                {
                    "name": "D3",
                    "midi": 50,
                    "time": 94.11576300000041,
                    "velocity": 0.29133858267716534,
                    "duration": 0.24898350000000846
                },
                {
                    "name": "G4",
                    "midi": 67,
                    "time": 94.24025475000042,
                    "velocity": 0.33858267716535434,
                    "duration": 0.13694092500000465
                },
                {
                    "name": "A4",
                    "midi": 69,
                    "time": 94.36474650000042,
                    "velocity": 0.3228346456692913,
                    "duration": 0.13694092500000465
                },
                {
                    "name": "D2",
                    "midi": 38,
                    "time": 94.36474650000042,
                    "velocity": 0.2440944881889764,
                    "duration": 0.24898350000000846
                },
                {
                    "name": "B4",
                    "midi": 71,
                    "time": 94.48923825000043,
                    "velocity": 0.31496062992125984,
                    "duration": 0.13694092500000465
                },
                {
                    "name": "C5",
                    "midi": 72,
                    "time": 94.61373000000043,
                    "velocity": 0.33070866141732286,
                    "duration": 0.24898349999999425
                },
                {
                    "name": "D3",
                    "midi": 50,
                    "time": 94.61373000000043,
                    "velocity": 0.23622047244094488,
                    "duration": 0.24898349999999425
                },
                {
                    "name": "D5",
                    "midi": 74,
                    "time": 95.36068050000041,
                    "velocity": 0.36220472440944884,
                    "duration": 0.24898349999999425
                },
                {
                    "name": "D5",
                    "midi": 74,
                    "time": 95.60966400000041,
                    "velocity": 0.3937007874015748,
                    "duration": 0.24898349999999425
                },
                {
                    "name": "G3",
                    "midi": 55,
                    "time": 95.60966400000041,
                    "velocity": 0.2755905511811024,
                    "duration": 0.24898349999999425
                },
                {
                    "name": "B4",
                    "midi": 71,
                    "time": 95.8586475000004,
                    "velocity": 0.3543307086614173,
                    "duration": 0.24898349999999425
                },
                {
                    "name": "B3",
                    "midi": 59,
                    "time": 95.8586475000004,
                    "velocity": 0.2204724409448819,
                    "duration": 0.24898349999999425
                },
                {
                    "name": "B4",
                    "midi": 71,
                    "time": 96.1076310000004,
                    "velocity": 0.3858267716535433,
                    "duration": 0.24898349999999425
                },
                {
                    "name": "D4",
                    "midi": 62,
                    "time": 96.1076310000004,
                    "velocity": 0.2204724409448819,
                    "duration": 0.24898349999999425
                },
                {
                    "name": "G5",
                    "midi": 79,
                    "time": 96.35661450000039,
                    "velocity": 0.4881889763779528,
                    "duration": 0.24898349999999425
                },
                {
                    "name": "B3",
                    "midi": 59,
                    "time": 96.35661450000039,
                    "velocity": 0.25196850393700787,
                    "duration": 0.24898349999999425
                },
                {
                    "name": "G5",
                    "midi": 79,
                    "time": 96.60559800000038,
                    "velocity": 0.5433070866141733,
                    "duration": 0.746950499999997
                },
                {
                    "name": "G3",
                    "midi": 55,
                    "time": 96.60559800000038,
                    "velocity": 0.3228346456692913,
                    "duration": 0.24898350000000846
                },
                {
                    "name": "B3",
                    "midi": 59,
                    "time": 96.85458150000039,
                    "velocity": 0.25984251968503935,
                    "duration": 0.24898349999999425
                },
                {
                    "name": "D4",
                    "midi": 62,
                    "time": 97.10356500000039,
                    "velocity": 0.2440944881889764,
                    "duration": 0.24898349999999425
                },
                {
                    "name": "F#5",
                    "midi": 78,
                    "time": 97.35254850000038,
                    "velocity": 0.3858267716535433,
                    "duration": 0.12449175000000423
                },
                {
                    "name": "B3",
                    "midi": 59,
                    "time": 97.35254850000038,
                    "velocity": 0.2440944881889764,
                    "duration": 0.24898350000000846
                },
                {
                    "name": "E5",
                    "midi": 76,
                    "time": 97.47704025000039,
                    "velocity": 0.3543307086614173,
                    "duration": 0.12449175000000423
                },
                {
                    "name": "D5",
                    "midi": 74,
                    "time": 97.60153200000039,
                    "velocity": 0.3937007874015748,
                    "duration": 0.12449175000000423
                },
                {
                    "name": "F#3",
                    "midi": 54,
                    "time": 97.60153200000039,
                    "velocity": 0.2755905511811024,
                    "duration": 0.24898350000000846
                },
                {
                    "name": "D5",
                    "midi": 74,
                    "time": 97.8505155000004,
                    "velocity": 0.3543307086614173,
                    "duration": 0.12449175000000423
                },
                {
                    "name": "A3",
                    "midi": 57,
                    "time": 97.8505155000004,
                    "velocity": 0.2440944881889764,
                    "duration": 0.24898350000000846
                },
                {
                    "name": "D5",
                    "midi": 74,
                    "time": 98.0994990000004,
                    "velocity": 0.3937007874015748,
                    "duration": 0.13694092500000465
                },
                {
                    "name": "D4",
                    "midi": 62,
                    "time": 98.0994990000004,
                    "velocity": 0.2755905511811024,
                    "duration": 0.24898350000000846
                },
                {
                    "name": "E5",
                    "midi": 76,
                    "time": 98.22399075000041,
                    "velocity": 0.33858267716535434,
                    "duration": 0.13694092500000465
                },
                {
                    "name": "D5",
                    "midi": 74,
                    "time": 98.34848250000042,
                    "velocity": 0.33858267716535434,
                    "duration": 0.13694092500000465
                },
                {
                    "name": "A3",
                    "midi": 57,
                    "time": 98.34848250000042,
                    "velocity": 0.23622047244094488,
                    "duration": 0.24898350000000846
                },
                {
                    "name": "C5",
                    "midi": 72,
                    "time": 98.47297425000042,
                    "velocity": 0.33858267716535434,
                    "duration": 0.13694092500000465
                },
                {
                    "name": "B4",
                    "midi": 71,
                    "time": 98.59746600000042,
                    "velocity": 0.41732283464566927,
                    "duration": 0.24898349999999425
                },
                {
                    "name": "G3",
                    "midi": 55,
                    "time": 98.59746600000042,
                    "velocity": 0.2755905511811024,
                    "duration": 0.24898349999999425
                },
                {
                    "name": "D5",
                    "midi": 74,
                    "time": 98.84644950000042,
                    "velocity": 0.36220472440944884,
                    "duration": 0.12449175000000423
                },
                {
                    "name": "D3",
                    "midi": 50,
                    "time": 98.84644950000042,
                    "velocity": 0.23622047244094488,
                    "duration": 0.24898350000000846
                },
                {
                    "name": "B2",
                    "midi": 47,
                    "time": 99.09543300000043,
                    "velocity": 0.23622047244094488,
                    "duration": 0.24898349999999425
                },
                {
                    "name": "B4",
                    "midi": 71,
                    "time": 99.34441650000042,
                    "velocity": 0.36220472440944884,
                    "duration": 0.24898349999999425
                },
                {
                    "name": "G2",
                    "midi": 43,
                    "time": 99.34441650000042,
                    "velocity": 0.23622047244094488,
                    "duration": 0.24898349999999425
                },
                {
                    "name": "B4",
                    "midi": 71,
                    "time": 99.59340000000041,
                    "velocity": 0.41732283464566927,
                    "duration": 0.24898350000000846
                },
                {
                    "name": "C3",
                    "midi": 48,
                    "time": 99.59340000000041,
                    "velocity": 0.2755905511811024,
                    "duration": 0.24898350000000846
                },
                {
                    "name": "A4",
                    "midi": 69,
                    "time": 99.84238350000042,
                    "velocity": 0.3858267716535433,
                    "duration": 0.24898349999999425
                },
                {
                    "name": "E3",
                    "midi": 52,
                    "time": 99.84238350000042,
                    "velocity": 0.2204724409448819,
                    "duration": 0.24898349999999425
                },
                {
                    "name": "A4",
                    "midi": 69,
                    "time": 100.09136700000042,
                    "velocity": 0.4566929133858268,
                    "duration": 0.24898349999999425
                },
                {
                    "name": "A3",
                    "midi": 57,
                    "time": 100.09136700000042,
                    "velocity": 0.2677165354330709,
                    "duration": 0.24898349999999425
                },
                {
                    "name": "E5",
                    "midi": 76,
                    "time": 100.34035050000041,
                    "velocity": 0.4881889763779528,
                    "duration": 0.24898349999999425
                },
                {
                    "name": "E3",
                    "midi": 52,
                    "time": 100.34035050000041,
                    "velocity": 0.30708661417322836,
                    "duration": 0.24898349999999425
                },
                {
                    "name": "E5",
                    "midi": 76,
                    "time": 100.5893340000004,
                    "velocity": 0.5433070866141733,
                    "duration": 0.7469505000000112
                },
                {
                    "name": "C3",
                    "midi": 48,
                    "time": 100.5893340000004,
                    "velocity": 0.33070866141732286,
                    "duration": 0.24898350000000846
                },
                {
                    "name": "E3",
                    "midi": 52,
                    "time": 100.83831750000041,
                    "velocity": 0.2992125984251969,
                    "duration": 0.24898349999999425
                },
                {
                    "name": "A3",
                    "midi": 57,
                    "time": 101.08730100000041,
                    "velocity": 0.2440944881889764,
                    "duration": 0.24898350000000846
                },
                {
                    "name": "C5",
                    "midi": 72,
                    "time": 101.33628450000042,
                    "velocity": 0.3858267716535433,
                    "duration": 0.12449175000000423
                },
                {
                    "name": "A4",
                    "midi": 69,
                    "time": 101.46077625000042,
                    "velocity": 0.3543307086614173,
                    "duration": 0.12449175000000423
                },
                {
                    "name": "G4",
                    "midi": 67,
                    "time": 101.58526800000043,
                    "velocity": 0.3937007874015748,
                    "duration": 0.12449175000000423
                },
                {
                    "name": "B3",
                    "midi": 59,
                    "time": 101.58526800000043,
                    "velocity": 0.2755905511811024,
                    "duration": 0.12449175000000423
                },
                {
                    "name": "D3",
                    "midi": 50,
                    "time": 101.58526800000043,
                    "velocity": 0.2755905511811024,
                    "duration": 0.12449175000000423
                },
                {
                    "name": "G4",
                    "midi": 67,
                    "time": 101.83425150000043,
                    "velocity": 0.3543307086614173,
                    "duration": 0.12449175000000423
                },
                {
                    "name": "B3",
                    "midi": 59,
                    "time": 101.83425150000043,
                    "velocity": 0.2440944881889764,
                    "duration": 0.12449175000000423
                },
                {
                    "name": "D3",
                    "midi": 50,
                    "time": 101.83425150000043,
                    "velocity": 0.2440944881889764,
                    "duration": 0.12449175000000423
                },
                {
                    "name": "G4",
                    "midi": 67,
                    "time": 102.08323500000044,
                    "velocity": 0.3937007874015748,
                    "duration": 0.13694092500000465
                },
                {
                    "name": "D3",
                    "midi": 50,
                    "time": 102.08323500000044,
                    "velocity": 0.2755905511811024,
                    "duration": 0.12449175000000423
                },
                {
                    "name": "A3",
                    "midi": 57,
                    "time": 102.08323500000044,
                    "velocity": 0.2755905511811024,
                    "duration": 0.12449175000000423
                },
                {
                    "name": "F#4",
                    "midi": 66,
                    "time": 102.20772675000045,
                    "velocity": 0.33858267716535434,
                    "duration": 0.13694092500000465
                },
                {
                    "name": "E4",
                    "midi": 64,
                    "time": 102.33221850000045,
                    "velocity": 0.33858267716535434,
                    "duration": 0.13694092500000465
                },
                {
                    "name": "A3",
                    "midi": 57,
                    "time": 102.33221850000045,
                    "velocity": 0.23622047244094488,
                    "duration": 0.12449175000000423
                },
                {
                    "name": "D3",
                    "midi": 50,
                    "time": 102.33221850000045,
                    "velocity": 0.23622047244094488,
                    "duration": 0.12449175000000423
                },
                {
                    "name": "F#4",
                    "midi": 66,
                    "time": 102.45671025000046,
                    "velocity": 0.33858267716535434,
                    "duration": 0.13694092500000465
                },
                {
                    "name": "G4",
                    "midi": 67,
                    "time": 102.58120200000046,
                    "velocity": 0.41732283464566927,
                    "duration": 0.4979670000000169
                },
                {
                    "name": "G2",
                    "midi": 43,
                    "time": 102.58120200000046,
                    "velocity": 0.2755905511811024,
                    "duration": 0.12449175000000423
                },
                {
                    "name": "G3",
                    "midi": 55,
                    "time": 102.83018550000047,
                    "velocity": 0.23622047244094488,
                    "duration": 0.12449175000000423
                },
                {
                    "name": "G2",
                    "midi": 43,
                    "time": 103.07916900000048,
                    "velocity": 0.2755905511811024,
                    "duration": 0.12449175000000423
                },
                {
                    "name": "D5",
                    "midi": 74,
                    "time": 103.32815250000048,
                    "velocity": 0.3937007874015748,
                    "duration": 0.13694092500000465
                },
                {
                    "name": "G3",
                    "midi": 55,
                    "time": 103.32815250000048,
                    "velocity": 0.2755905511811024,
                    "duration": 0.12449175000000423
                },
                {
                    "name": "C5",
                    "midi": 72,
                    "time": 103.45264425000049,
                    "velocity": 0.36220472440944884,
                    "duration": 0.13694092500000465
                },
                {
                    "name": "B4",
                    "midi": 71,
                    "time": 103.5771360000005,
                    "velocity": 0.3937007874015748,
                    "duration": 0.13694092500000465
                },
                {
                    "name": "G2",
                    "midi": 43,
                    "time": 103.5771360000005,
                    "velocity": 0.2755905511811024,
                    "duration": 0.12449175000000423
                },
                {
                    "name": "A4",
                    "midi": 69,
                    "time": 103.7016277500005,
                    "velocity": 0.3543307086614173,
                    "duration": 0.13694092500000465
                },
                {
                    "name": "G4",
                    "midi": 67,
                    "time": 103.8261195000005,
                    "velocity": 0.3543307086614173,
                    "duration": 0.13694092500000465
                },
                {
                    "name": "G3",
                    "midi": 55,
                    "time": 103.8261195000005,
                    "velocity": 0.25196850393700787,
                    "duration": 0.12449175000000423
                },
                {
                    "name": "F#4",
                    "midi": 66,
                    "time": 103.9506112500005,
                    "velocity": 0.3543307086614173,
                    "duration": 0.13694092500000465
                },
                {
                    "name": "E4",
                    "midi": 64,
                    "time": 104.07510300000051,
                    "velocity": 0.3937007874015748,
                    "duration": 0.13694092500000465
                },
                {
                    "name": "G2",
                    "midi": 43,
                    "time": 104.07510300000051,
                    "velocity": 0.2755905511811024,
                    "duration": 0.12449175000000423
                },
                {
                    "name": "F#4",
                    "midi": 66,
                    "time": 104.19959475000051,
                    "velocity": 0.36220472440944884,
                    "duration": 0.13694092500000465
                },
                {
                    "name": "G4",
                    "midi": 67,
                    "time": 104.32408650000052,
                    "velocity": 0.36220472440944884,
                    "duration": 0.13694092500000465
                },
                {
                    "name": "G3",
                    "midi": 55,
                    "time": 104.32408650000052,
                    "velocity": 0.2440944881889764,
                    "duration": 0.12449175000000423
                },
                {
                    "name": "E4",
                    "midi": 64,
                    "time": 104.44857825000052,
                    "velocity": 0.36220472440944884,
                    "duration": 0.13694092500000465
                },
                {
                    "name": "D4",
                    "midi": 62,
                    "time": 104.57307000000053,
                    "velocity": 0.3937007874015748,
                    "duration": 0.24898350000000846
                },
                {
                    "name": "G2",
                    "midi": 43,
                    "time": 104.57307000000053,
                    "velocity": 0.2755905511811024,
                    "duration": 0.13694092500000465
                },
                {
                    "name": "A2",
                    "midi": 45,
                    "time": 104.69756175000053,
                    "velocity": 0.23622047244094488,
                    "duration": 0.13694092500000465
                },
                {
                    "name": "B2",
                    "midi": 47,
                    "time": 104.82205350000054,
                    "velocity": 0.2440944881889764,
                    "duration": 0.13694092500000465
                },
                {
                    "name": "C3",
                    "midi": 48,
                    "time": 104.94654525000054,
                    "velocity": 0.2440944881889764,
                    "duration": 0.13694092500000465
                },
                {
                    "name": "D3",
                    "midi": 50,
                    "time": 105.07103700000054,
                    "velocity": 0.25196850393700787,
                    "duration": 0.13694092500000465
                },
                {
                    "name": "E3",
                    "midi": 52,
                    "time": 105.19552875000055,
                    "velocity": 0.2677165354330709,
                    "duration": 0.13694092500000465
                },
                {
                    "name": "D5",
                    "midi": 74,
                    "time": 105.32002050000055,
                    "velocity": 0.3937007874015748,
                    "duration": 0.13694092500000465
                },
                {
                    "name": "F#3",
                    "midi": 54,
                    "time": 105.32002050000055,
                    "velocity": 0.2677165354330709,
                    "duration": 0.13694092500000465
                },
                {
                    "name": "C5",
                    "midi": 72,
                    "time": 105.44451225000056,
                    "velocity": 0.36220472440944884,
                    "duration": 0.13694092500000465
                },
                {
                    "name": "G3",
                    "midi": 55,
                    "time": 105.44451225000056,
                    "velocity": 0.28346456692913385,
                    "duration": 0.12449175000000423
                },
                {
                    "name": "B4",
                    "midi": 71,
                    "time": 105.56900400000056,
                    "velocity": 0.3937007874015748,
                    "duration": 0.13694092500000465
                },
                {
                    "name": "G2",
                    "midi": 43,
                    "time": 105.56900400000056,
                    "velocity": 0.2755905511811024,
                    "duration": 0.12449175000000423
                },
                {
                    "name": "A4",
                    "midi": 69,
                    "time": 105.69349575000057,
                    "velocity": 0.3543307086614173,
                    "duration": 0.13694092500000465
                },
                {
                    "name": "G4",
                    "midi": 67,
                    "time": 105.81798750000057,
                    "velocity": 0.3543307086614173,
                    "duration": 0.13694092500000465
                },
                {
                    "name": "G3",
                    "midi": 55,
                    "time": 105.81798750000057,
                    "velocity": 0.25196850393700787,
                    "duration": 0.12449175000000423
                },
                {
                    "name": "F#4",
                    "midi": 66,
                    "time": 105.94247925000057,
                    "velocity": 0.3543307086614173,
                    "duration": 0.13694092500000465
                },
                {
                    "name": "E4",
                    "midi": 64,
                    "time": 106.06697100000058,
                    "velocity": 0.3937007874015748,
                    "duration": 0.13694092500000465
                },
                {
                    "name": "G2",
                    "midi": 43,
                    "time": 106.06697100000058,
                    "velocity": 0.33070866141732286,
                    "duration": 0.12449175000000423
                },
                {
                    "name": "F#4",
                    "midi": 66,
                    "time": 106.19146275000058,
                    "velocity": 0.3779527559055118,
                    "duration": 0.13694092500000465
                },
                {
                    "name": "G4",
                    "midi": 67,
                    "time": 106.31595450000059,
                    "velocity": 0.3937007874015748,
                    "duration": 0.13694092500000465
                },
                {
                    "name": "G3",
                    "midi": 55,
                    "time": 106.31595450000059,
                    "velocity": 0.29133858267716534,
                    "duration": 0.12449175000000423
                },
                {
                    "name": "E4",
                    "midi": 64,
                    "time": 106.44044625000059,
                    "velocity": 0.4330708661417323,
                    "duration": 0.13694092500000465
                },
                {
                    "name": "D4",
                    "midi": 62,
                    "time": 106.5649380000006,
                    "velocity": 0.47244094488188976,
                    "duration": 0.12449175000000423
                },
                {
                    "name": "G2",
                    "midi": 43,
                    "time": 106.5649380000006,
                    "velocity": 0.3779527559055118,
                    "duration": 0.12449175000000423
                },
                {
                    "name": "G5",
                    "midi": 79,
                    "time": 106.8139215000006,
                    "velocity": 0.4881889763779528,
                    "duration": 0.12449175000000423
                },
                {
                    "name": "B2",
                    "midi": 47,
                    "time": 106.8139215000006,
                    "velocity": 0.33070866141732286,
                    "duration": 0.24898350000000846
                },
                {
                    "name": "F#5",
                    "midi": 78,
                    "time": 106.93841325000061,
                    "velocity": 0.4566929133858268,
                    "duration": 0.12449175000000423
                },
                {
                    "name": "E5",
                    "midi": 76,
                    "time": 107.06290500000061,
                    "velocity": 0.4409448818897638,
                    "duration": 0.12449175000000423
                },
                {
                    "name": "D3",
                    "midi": 50,
                    "time": 107.06290500000061,
                    "velocity": 0.3779527559055118,
                    "duration": 0.24898350000000846
                },
                {
                    "name": "D5",
                    "midi": 74,
                    "time": 107.18739675000062,
                    "velocity": 0.4409448818897638,
                    "duration": 0.12449175000000423
                },
                {
                    "name": "C5",
                    "midi": 72,
                    "time": 107.31188850000062,
                    "velocity": 0.4409448818897638,
                    "duration": 0.12449175000000423
                },
                {
                    "name": "G3",
                    "midi": 55,
                    "time": 107.31188850000062,
                    "velocity": 0.33858267716535434,
                    "duration": 0.24898350000000846
                },
                {
                    "name": "B4",
                    "midi": 71,
                    "time": 107.43638025000062,
                    "velocity": 0.4409448818897638,
                    "duration": 0.12449175000000423
                },
                {
                    "name": "A4",
                    "midi": 69,
                    "time": 107.56087200000063,
                    "velocity": 0.4881889763779528,
                    "duration": 0.12449175000000423
                },
                {
                    "name": "C3",
                    "midi": 48,
                    "time": 107.56087200000063,
                    "velocity": 0.3779527559055118,
                    "duration": 0.12449175000000423
                },
                {
                    "name": "A4",
                    "midi": 69,
                    "time": 107.80985550000064,
                    "velocity": 0.4566929133858268,
                    "duration": 0.12449175000000423
                },
                {
                    "name": "C3",
                    "midi": 48,
                    "time": 107.80985550000064,
                    "velocity": 0.33858267716535434,
                    "duration": 0.12449175000000423
                },
                {
                    "name": "F#4",
                    "midi": 66,
                    "time": 108.05883900000065,
                    "velocity": 0.4094488188976378,
                    "duration": 0.12449175000000423
                },
                {
                    "name": "D5",
                    "midi": 74,
                    "time": 108.05883900000065,
                    "velocity": 0.4881889763779528,
                    "duration": 0.12449175000000423
                },
                {
                    "name": "D3",
                    "midi": 50,
                    "time": 108.05883900000065,
                    "velocity": 0.3779527559055118,
                    "duration": 0.12449175000000423
                },
                {
                    "name": "D5",
                    "midi": 74,
                    "time": 108.30782250000065,
                    "velocity": 0.44881889763779526,
                    "duration": 0.12449175000000423
                },
                {
                    "name": "F#4",
                    "midi": 66,
                    "time": 108.30782250000065,
                    "velocity": 0.3779527559055118,
                    "duration": 0.12449175000000423
                },
                {
                    "name": "D3",
                    "midi": 50,
                    "time": 108.30782250000065,
                    "velocity": 0.33858267716535434,
                    "duration": 0.12449175000000423
                },
                {
                    "name": "A4",
                    "midi": 69,
                    "time": 108.55680600000066,
                    "velocity": 0.4094488188976378,
                    "duration": 0.4979670000000169
                },
                {
                    "name": "C5",
                    "midi": 72,
                    "time": 108.55680600000066,
                    "velocity": 0.4881889763779528,
                    "duration": 0.4979670000000169
                },
                {
                    "name": "G2",
                    "midi": 43,
                    "time": 108.55680600000066,
                    "velocity": 0.2755905511811024,
                    "duration": 0.12449175000000423
                },
                {
                    "name": "G3",
                    "midi": 55,
                    "time": 108.80578950000067,
                    "velocity": 0.25196850393700787,
                    "duration": 0.12449175000000423
                },
                {
                    "name": "B4",
                    "midi": 71,
                    "time": 109.05477300000068,
                    "velocity": 0.4645669291338583,
                    "duration": 0.24898350000000846
                },
                {
                    "name": "G4",
                    "midi": 67,
                    "time": 109.05477300000068,
                    "velocity": 0.3937007874015748,
                    "duration": 0.24898350000000846
                },
                {
                    "name": "G2",
                    "midi": 43,
                    "time": 109.05477300000068,
                    "velocity": 0.2755905511811024,
                    "duration": 0.12449175000000423
                },
                {
                    "name": "B5",
                    "midi": 83,
                    "time": 109.30375650000069,
                    "velocity": 0.3937007874015748,
                    "duration": 0.13694092500000465
                },
                {
                    "name": "G3",
                    "midi": 55,
                    "time": 109.30375650000069,
                    "velocity": 0.2755905511811024,
                    "duration": 0.12449175000000423
                },
                {
                    "name": "A5",
                    "midi": 81,
                    "time": 109.42824825000069,
                    "velocity": 0.36220472440944884,
                    "duration": 0.13694092499999044
                },
                {
                    "name": "G5",
                    "midi": 79,
                    "time": 109.55274000000068,
                    "velocity": 0.3937007874015748,
                    "duration": 0.13694092500000465
                },
                {
                    "name": "G2",
                    "midi": 43,
                    "time": 109.55274000000068,
                    "velocity": 0.2755905511811024,
                    "duration": 0.12449175000000423
                },
                {
                    "name": "F#5",
                    "midi": 78,
                    "time": 109.67723175000069,
                    "velocity": 0.3543307086614173,
                    "duration": 0.13694092500000465
                },
                {
                    "name": "E5",
                    "midi": 76,
                    "time": 109.80172350000069,
                    "velocity": 0.3543307086614173,
                    "duration": 0.13694092500000465
                },
                {
                    "name": "G3",
                    "midi": 55,
                    "time": 109.80172350000069,
                    "velocity": 0.25196850393700787,
                    "duration": 0.12449175000000423
                },
                {
                    "name": "D#5",
                    "midi": 75,
                    "time": 109.9262152500007,
                    "velocity": 0.3543307086614173,
                    "duration": 0.13694092500000465
                },
                {
                    "name": "E5",
                    "midi": 76,
                    "time": 110.0507070000007,
                    "velocity": 0.3937007874015748,
                    "duration": 0.13694092500000465
                },
                {
                    "name": "G2",
                    "midi": 43,
                    "time": 110.0507070000007,
                    "velocity": 0.2755905511811024,
                    "duration": 0.12449175000000423
                },
                {
                    "name": "F#5",
                    "midi": 78,
                    "time": 110.1751987500007,
                    "velocity": 0.36220472440944884,
                    "duration": 0.13694092500000465
                },
                {
                    "name": "G5",
                    "midi": 79,
                    "time": 110.29969050000071,
                    "velocity": 0.36220472440944884,
                    "duration": 0.13694092500000465
                },
                {
                    "name": "G3",
                    "midi": 55,
                    "time": 110.29969050000071,
                    "velocity": 0.2440944881889764,
                    "duration": 0.12449175000000423
                },
                {
                    "name": "E5",
                    "midi": 76,
                    "time": 110.42418225000071,
                    "velocity": 0.36220472440944884,
                    "duration": 0.13694092500000465
                },
                {
                    "name": "D5",
                    "midi": 74,
                    "time": 110.54867400000072,
                    "velocity": 0.3937007874015748,
                    "duration": 0.13694092500000465
                },
                {
                    "name": "G2",
                    "midi": 43,
                    "time": 110.54867400000072,
                    "velocity": 0.2755905511811024,
                    "duration": 0.12449175000000423
                },
                {
                    "name": "C5",
                    "midi": 72,
                    "time": 110.67316575000072,
                    "velocity": 0.36220472440944884,
                    "duration": 0.13694092500000465
                },
                {
                    "name": "B4",
                    "midi": 71,
                    "time": 110.79765750000072,
                    "velocity": 0.36220472440944884,
                    "duration": 0.13694092500000465
                },
                {
                    "name": "G3",
                    "midi": 55,
                    "time": 110.79765750000072,
                    "velocity": 0.25196850393700787,
                    "duration": 0.12449175000000423
                },
                {
                    "name": "C5",
                    "midi": 72,
                    "time": 110.92214925000073,
                    "velocity": 0.36220472440944884,
                    "duration": 0.13694092500000465
                },
                {
                    "name": "D5",
                    "midi": 74,
                    "time": 111.04664100000073,
                    "velocity": 0.3937007874015748,
                    "duration": 0.12449175000000423
                },
                {
                    "name": "G2",
                    "midi": 43,
                    "time": 111.04664100000073,
                    "velocity": 0.2755905511811024,
                    "duration": 0.12449175000000423
                },
                {
                    "name": "B5",
                    "midi": 83,
                    "time": 111.29562450000074,
                    "velocity": 0.3937007874015748,
                    "duration": 0.13694092500000465
                },
                {
                    "name": "G3",
                    "midi": 55,
                    "time": 111.29562450000074,
                    "velocity": 0.2440944881889764,
                    "duration": 0.12449175000000423
                },
                {
                    "name": "A5",
                    "midi": 81,
                    "time": 111.42011625000075,
                    "velocity": 0.36220472440944884,
                    "duration": 0.13694092500000465
                },
                {
                    "name": "G5",
                    "midi": 79,
                    "time": 111.54460800000075,
                    "velocity": 0.3937007874015748,
                    "duration": 0.13694092500000465
                },
                {
                    "name": "G2",
                    "midi": 43,
                    "time": 111.54460800000075,
                    "velocity": 0.2755905511811024,
                    "duration": 0.12449175000000423
                },
                {
                    "name": "F#5",
                    "midi": 78,
                    "time": 111.66909975000075,
                    "velocity": 0.3543307086614173,
                    "duration": 0.13694092500000465
                },
                {
                    "name": "E5",
                    "midi": 76,
                    "time": 111.79359150000076,
                    "velocity": 0.3543307086614173,
                    "duration": 0.13694092500000465
                },
                {
                    "name": "G3",
                    "midi": 55,
                    "time": 111.79359150000076,
                    "velocity": 0.25196850393700787,
                    "duration": 0.12449175000000423
                },
                {
                    "name": "D#5",
                    "midi": 75,
                    "time": 111.91808325000076,
                    "velocity": 0.3543307086614173,
                    "duration": 0.13694092500000465
                },
                {
                    "name": "E5",
                    "midi": 76,
                    "time": 112.04257500000077,
                    "velocity": 0.3937007874015748,
                    "duration": 0.13694092500000465
                },
                {
                    "name": "G2",
                    "midi": 43,
                    "time": 112.04257500000077,
                    "velocity": 0.33070866141732286,
                    "duration": 0.12449175000000423
                },
                {
                    "name": "F#5",
                    "midi": 78,
                    "time": 112.16706675000077,
                    "velocity": 0.3779527559055118,
                    "duration": 0.13694092500000465
                },
                {
                    "name": "G5",
                    "midi": 79,
                    "time": 112.29155850000078,
                    "velocity": 0.3937007874015748,
                    "duration": 0.13694092500000465
                },
                {
                    "name": "G3",
                    "midi": 55,
                    "time": 112.29155850000078,
                    "velocity": 0.29133858267716534,
                    "duration": 0.12449175000000423
                },
                {
                    "name": "E5",
                    "midi": 76,
                    "time": 112.41605025000078,
                    "velocity": 0.4330708661417323,
                    "duration": 0.13694092500000465
                },
                {
                    "name": "D5",
                    "midi": 74,
                    "time": 112.54054200000078,
                    "velocity": 0.4881889763779528,
                    "duration": 0.12449174999999002
                },
                {
                    "name": "G2",
                    "midi": 43,
                    "time": 112.54054200000078,
                    "velocity": 0.3779527559055118,
                    "duration": 0.24898349999999425
                },
                {
                    "name": "G5",
                    "midi": 79,
                    "time": 112.66503375000077,
                    "velocity": 0.41732283464566927,
                    "duration": 0.12449175000000423
                },
                {
                    "name": "B5",
                    "midi": 83,
                    "time": 112.78952550000078,
                    "velocity": 0.4409448818897638,
                    "duration": 0.12449175000000423
                },
                {
                    "name": "G3",
                    "midi": 55,
                    "time": 112.78952550000078,
                    "velocity": 0.3228346456692913,
                    "duration": 0.24898350000000846
                },
                {
                    "name": "D6",
                    "midi": 86,
                    "time": 112.91401725000078,
                    "velocity": 0.4251968503937008,
                    "duration": 0.12449175000000423
                },
                {
                    "name": "C6",
                    "midi": 84,
                    "time": 113.03850900000079,
                    "velocity": 0.4881889763779528,
                    "duration": 0.12449175000000423
                },
                {
                    "name": "D3",
                    "midi": 50,
                    "time": 113.03850900000079,
                    "velocity": 0.3228346456692913,
                    "duration": 0.24898350000000846
                },
                {
                    "name": "B5",
                    "midi": 83,
                    "time": 113.16300075000079,
                    "velocity": 0.41732283464566927,
                    "duration": 0.12449175000000423
                },
                {
                    "name": "A5",
                    "midi": 81,
                    "time": 113.2874925000008,
                    "velocity": 0.4409448818897638,
                    "duration": 0.12449175000000423
                },
                {
                    "name": "B2",
                    "midi": 47,
                    "time": 113.2874925000008,
                    "velocity": 0.3228346456692913,
                    "duration": 0.24898350000000846
                },
                {
                    "name": "G5",
                    "midi": 79,
                    "time": 113.4119842500008,
                    "velocity": 0.4645669291338583,
                    "duration": 0.12449175000000423
                },
                {
                    "name": "F#5",
                    "midi": 78,
                    "time": 113.5364760000008,
                    "velocity": 0.5275590551181102,
                    "duration": 0.12449174999999002
                },
                {
                    "name": "C3",
                    "midi": 48,
                    "time": 113.5364760000008,
                    "velocity": 0.3858267716535433,
                    "duration": 0.24898349999999425
                },
                {
                    "name": "E5",
                    "midi": 76,
                    "time": 113.6609677500008,
                    "velocity": 0.4330708661417323,
                    "duration": 0.12449175000000423
                },
                {
                    "name": "D5",
                    "midi": 74,
                    "time": 113.7854595000008,
                    "velocity": 0.4566929133858268,
                    "duration": 0.12449175000000423
                },
                {
                    "name": "A2",
                    "midi": 45,
                    "time": 113.7854595000008,
                    "velocity": 0.31496062992125984,
                    "duration": 0.24898350000000846
                },
                {
                    "name": "C5",
                    "midi": 72,
                    "time": 113.9099512500008,
                    "velocity": 0.4330708661417323,
                    "duration": 0.12449175000000423
                },
                {
                    "name": "B4",
                    "midi": 71,
                    "time": 114.0344430000008,
                    "velocity": 0.5196850393700787,
                    "duration": 0.12449174999999002
                },
                {
                    "name": "D3",
                    "midi": 50,
                    "time": 114.0344430000008,
                    "velocity": 0.3700787401574803,
                    "duration": 0.24898349999999425
                },
                {
                    "name": "A4",
                    "midi": 69,
                    "time": 114.1589347500008,
                    "velocity": 0.41732283464566927,
                    "duration": 0.12449175000000423
                },
                {
                    "name": "G4",
                    "midi": 67,
                    "time": 114.2834265000008,
                    "velocity": 0.4566929133858268,
                    "duration": 0.12449175000000423
                },
                {
                    "name": "D2",
                    "midi": 38,
                    "time": 114.2834265000008,
                    "velocity": 0.33070866141732286,
                    "duration": 0.24898349999999425
                },
                {
                    "name": "F#4",
                    "midi": 66,
                    "time": 114.4079182500008,
                    "velocity": 0.4409448818897638,
                    "duration": 0.12449174999999002
                },
                {
                    "name": "G4",
                    "midi": 67,
                    "time": 114.5324100000008,
                    "velocity": 0.5275590551181102,
                    "duration": 0.12449174999999002
                },
                {
                    "name": "G2",
                    "midi": 43,
                    "time": 114.5324100000008,
                    "velocity": 0.3858267716535433,
                    "duration": 0.24898349999999425
                },
                {
                    "name": "B4",
                    "midi": 71,
                    "time": 114.65690175000078,
                    "velocity": 0.4566929133858268,
                    "duration": 0.12449175000000423
                },
                {
                    "name": "D5",
                    "midi": 74,
                    "time": 114.78139350000079,
                    "velocity": 0.5039370078740157,
                    "duration": 0.12449175000000423
                },
                {
                    "name": "B4",
                    "midi": 71,
                    "time": 114.9058852500008,
                    "velocity": 0.4566929133858268,
                    "duration": 0.12449175000000423
                },
                {
                    "name": "D5",
                    "midi": 74,
                    "time": 115.0303770000008,
                    "velocity": 0.5275590551181102,
                    "duration": 0.12449174999999002
                },
                {
                    "name": "B4",
                    "midi": 71,
                    "time": 115.15486875000079,
                    "velocity": 0.4645669291338583,
                    "duration": 0.12449175000000423
                },
                {
                    "name": "C5",
                    "midi": 72,
                    "time": 115.27936050000079,
                    "velocity": 0.5039370078740157,
                    "duration": 0.12449175000000423
                },
                {
                    "name": "D3",
                    "midi": 50,
                    "time": 115.27936050000079,
                    "velocity": 0.3858267716535433,
                    "duration": 0.12449175000000423
                },
                {
                    "name": "A4",
                    "midi": 69,
                    "time": 115.4038522500008,
                    "velocity": 0.4566929133858268,
                    "duration": 0.12449175000000423
                },
                {
                    "name": "G4",
                    "midi": 67,
                    "time": 115.5283440000008,
                    "velocity": 0.5275590551181102,
                    "duration": 0.12449175000000423
                },
                {
                    "name": "G3",
                    "midi": 55,
                    "time": 115.5283440000008,
                    "velocity": 0.44881889763779526,
                    "duration": 0.12449175000000423
                },
                {
                    "name": "B4",
                    "midi": 71,
                    "time": 115.6528357500008,
                    "velocity": 0.4645669291338583,
                    "duration": 0.12449175000000423
                },
                {
                    "name": "D5",
                    "midi": 74,
                    "time": 115.77732750000081,
                    "velocity": 0.49606299212598426,
                    "duration": 0.12449175000000423
                },
                {
                    "name": "B4",
                    "midi": 71,
                    "time": 115.90181925000081,
                    "velocity": 0.4566929133858268,
                    "duration": 0.12449175000000423
                },
                {
                    "name": "D5",
                    "midi": 74,
                    "time": 116.02631100000082,
                    "velocity": 0.5275590551181102,
                    "duration": 0.12449175000000423
                },
                {
                    "name": "B4",
                    "midi": 71,
                    "time": 116.15080275000082,
                    "velocity": 0.4645669291338583,
                    "duration": 0.12449175000000423
                },
                {
                    "name": "C5",
                    "midi": 72,
                    "time": 116.27529450000083,
                    "velocity": 0.5118110236220472,
                    "duration": 0.12449174999999002
                },
                {
                    "name": "D3",
                    "midi": 50,
                    "time": 116.27529450000083,
                    "velocity": 0.3858267716535433,
                    "duration": 0.12449174999999002
                },
                {
                    "name": "A4",
                    "midi": 69,
                    "time": 116.39978625000082,
                    "velocity": 0.4645669291338583,
                    "duration": 0.12449175000000423
                },
                {
                    "name": "G4",
                    "midi": 67,
                    "time": 116.52427800000082,
                    "velocity": 0.5511811023622047,
                    "duration": 0.24898350000000846
                },
                {
                    "name": "G2",
                    "midi": 43,
                    "time": 116.52427800000082,
                    "velocity": 0.4409448818897638,
                    "duration": 0.12449175000000423
                },
                {
                    "name": "G3",
                    "midi": 55,
                    "time": 116.77326150000083,
                    "velocity": 0.3228346456692913,
                    "duration": 0.24898350000000846
                },
                {
                    "name": "B4",
                    "midi": 71,
                    "time": 117.02224500000084,
                    "velocity": 0.4645669291338583,
                    "duration": 0.24898349999999425
                },
                {
                    "name": "D5",
                    "midi": 74,
                    "time": 117.02224500000084,
                    "velocity": 0.4645669291338583,
                    "duration": 0.24898349999999425
                },
                {
                    "name": "G5",
                    "midi": 79,
                    "time": 117.02224500000084,
                    "velocity": 0.5511811023622047,
                    "duration": 0.24898349999999425
                },
                {
                    "name": "D3",
                    "midi": 50,
                    "time": 117.02224500000084,
                    "velocity": 0.3779527559055118,
                    "duration": 0.24898349999999425
                },
                {
                    "name": "B2",
                    "midi": 47,
                    "time": 117.27122850000083,
                    "velocity": 0.3228346456692913,
                    "duration": 0.24898349999999425
                },
                {
                    "name": "B4",
                    "midi": 71,
                    "time": 117.52021200000083,
                    "velocity": 0.4645669291338583,
                    "duration": 0.4979670000000027
                },
                {
                    "name": "D5",
                    "midi": 74,
                    "time": 117.52021200000083,
                    "velocity": 0.4645669291338583,
                    "duration": 0.4979670000000027
                },
                {
                    "name": "G5",
                    "midi": 79,
                    "time": 117.52021200000083,
                    "velocity": 0.5511811023622047,
                    "duration": 0.4979670000000027
                },
                {
                    "name": "G2",
                    "midi": 43,
                    "time": 117.52021200000083,
                    "velocity": 0.4409448818897638,
                    "duration": 0.4979670000000027
                }
            ],
            "controlChanges": {
                "64": [
                    {
                        "number": 64,
                        "time": 0.995934,
                        "value": 1
                    },
                    {
                        "number": 64,
                        "time": 1.991868,
                        "value": 0
                    },
                    {
                        "number": 64,
                        "time": 2.11635975,
                        "value": 1
                    },
                    {
                        "number": 64,
                        "time": 2.742968225,
                        "value": 0
                    },
                    {
                        "number": 64,
                        "time": 4.122751787499998,
                        "value": 1
                    },
                    {
                        "number": 64,
                        "time": 4.2389440874999975,
                        "value": 0
                    },
                    {
                        "number": 64,
                        "time": 5.096899731249996,
                        "value": 1
                    },
                    {
                        "number": 64,
                        "time": 5.975603999999995,
                        "value": 0
                    },
                    {
                        "number": 64,
                        "time": 6.107357768749996,
                        "value": 1
                    },
                    {
                        "number": 64,
                        "time": 6.491207331249996,
                        "value": 0
                    },
                    {
                        "number": 64,
                        "time": 12.024865618750061,
                        "value": 1
                    },
                    {
                        "number": 64,
                        "time": 12.463699037500064,
                        "value": 0
                    },
                    {
                        "number": 64,
                        "time": 12.588190787500062,
                        "value": 1
                    },
                    {
                        "number": 64,
                        "time": 12.949216862500064,
                        "value": 0
                    },
                    {
                        "number": 64,
                        "time": 17.94133603750011,
                        "value": 1
                    },
                    {
                        "number": 64,
                        "time": 18.439303037500114,
                        "value": 0
                    },
                    {
                        "number": 64,
                        "time": 18.520222675000113,
                        "value": 1
                    },
                    {
                        "number": 64,
                        "time": 18.922746000000128,
                        "value": 0
                    },
                    {
                        "number": 64,
                        "time": 19.985075600000158,
                        "value": 1
                    },
                    {
                        "number": 64,
                        "time": 20.43635819375016,
                        "value": 0
                    },
                    {
                        "number": 64,
                        "time": 20.51935269375016,
                        "value": 1
                    },
                    {
                        "number": 64,
                        "time": 20.679117106250164,
                        "value": 0
                    },
                    {
                        "number": 64,
                        "time": 20.739288118750164,
                        "value": 1
                    },
                    {
                        "number": 64,
                        "time": 20.914614000000164,
                        "value": 0
                    },
                    {
                        "number": 64,
                        "time": 21.002795656250164,
                        "value": 1
                    },
                    {
                        "number": 64,
                        "time": 21.430217331250166,
                        "value": 0
                    },
                    {
                        "number": 64,
                        "time": 21.508024675000165,
                        "value": 1
                    },
                    {
                        "number": 64,
                        "time": 21.670901381250165,
                        "value": 0
                    },
                    {
                        "number": 64,
                        "time": 21.735222118750166,
                        "value": 1
                    },
                    {
                        "number": 64,
                        "time": 21.910548000000166,
                        "value": 0
                    },
                    {
                        "number": 64,
                        "time": 22.90648200000017,
                        "value": 1
                    },
                    {
                        "number": 64,
                        "time": 23.902416000000176,
                        "value": 0
                    },
                    {
                        "number": 64,
                        "time": 24.026907750000177,
                        "value": 1
                    },
                    {
                        "number": 64,
                        "time": 24.653516225000182,
                        "value": 0
                    },
                    {
                        "number": 64,
                        "time": 26.033299787500187,
                        "value": 1
                    },
                    {
                        "number": 64,
                        "time": 26.14949208750019,
                        "value": 0
                    },
                    {
                        "number": 64,
                        "time": 27.007447731250192,
                        "value": 1
                    },
                    {
                        "number": 64,
                        "time": 27.886152000000195,
                        "value": 0
                    },
                    {
                        "number": 64,
                        "time": 28.017905768750193,
                        "value": 1
                    },
                    {
                        "number": 64,
                        "time": 28.401755331250193,
                        "value": 0
                    },
                    {
                        "number": 64,
                        "time": 33.93541361875028,
                        "value": 1
                    },
                    {
                        "number": 64,
                        "time": 34.3742470375003,
                        "value": 0
                    },
                    {
                        "number": 64,
                        "time": 34.4987387875003,
                        "value": 1
                    },
                    {
                        "number": 64,
                        "time": 34.8597648625003,
                        "value": 0
                    },
                    {
                        "number": 64,
                        "time": 39.8518840375003,
                        "value": 1
                    },
                    {
                        "number": 64,
                        "time": 40.3498510375003,
                        "value": 0
                    },
                    {
                        "number": 64,
                        "time": 40.430770675000296,
                        "value": 1
                    },
                    {
                        "number": 64,
                        "time": 40.83329400000031,
                        "value": 0
                    },
                    {
                        "number": 64,
                        "time": 41.89562360000034,
                        "value": 1
                    },
                    {
                        "number": 64,
                        "time": 42.34690619375033,
                        "value": 0
                    },
                    {
                        "number": 64,
                        "time": 42.42990069375033,
                        "value": 1
                    },
                    {
                        "number": 64,
                        "time": 42.58966510625032,
                        "value": 0
                    },
                    {
                        "number": 64,
                        "time": 42.64983611875032,
                        "value": 1
                    },
                    {
                        "number": 64,
                        "time": 42.82516200000032,
                        "value": 0
                    },
                    {
                        "number": 64,
                        "time": 42.91334365625032,
                        "value": 1
                    },
                    {
                        "number": 64,
                        "time": 43.34076533125031,
                        "value": 0
                    },
                    {
                        "number": 64,
                        "time": 43.41857267500031,
                        "value": 1
                    },
                    {
                        "number": 64,
                        "time": 43.58144938125031,
                        "value": 0
                    },
                    {
                        "number": 64,
                        "time": 43.645770118750306,
                        "value": 1
                    },
                    {
                        "number": 64,
                        "time": 43.8210960000003,
                        "value": 0
                    },
                    {
                        "number": 64,
                        "time": 44.81703000000029,
                        "value": 1
                    },
                    {
                        "number": 64,
                        "time": 45.57124251875029,
                        "value": 0
                    },
                    {
                        "number": 64,
                        "time": 45.893883637500295,
                        "value": 1
                    },
                    {
                        "number": 64,
                        "time": 46.564064225000294,
                        "value": 0
                    },
                    {
                        "number": 64,
                        "time": 47.90753769375027,
                        "value": 1
                    },
                    {
                        "number": 64,
                        "time": 48.06004008750027,
                        "value": 0
                    },
                    {
                        "number": 64,
                        "time": 48.90347169375027,
                        "value": 1
                    },
                    {
                        "number": 64,
                        "time": 49.05597408750027,
                        "value": 0
                    },
                    {
                        "number": 64,
                        "time": 58.76010600000023,
                        "value": 1
                    },
                    {
                        "number": 64,
                        "time": 59.75604000000023,
                        "value": 0
                    },
                    {
                        "number": 64,
                        "time": 59.88053175000023,
                        "value": 1
                    },
                    {
                        "number": 64,
                        "time": 60.50714022500023,
                        "value": 0
                    },
                    {
                        "number": 64,
                        "time": 61.8869237875002,
                        "value": 1
                    },
                    {
                        "number": 64,
                        "time": 62.0031160875002,
                        "value": 0
                    },
                    {
                        "number": 64,
                        "time": 62.8610717312502,
                        "value": 1
                    },
                    {
                        "number": 64,
                        "time": 63.739776000000205,
                        "value": 0
                    },
                    {
                        "number": 64,
                        "time": 63.87152976875021,
                        "value": 1
                    },
                    {
                        "number": 64,
                        "time": 64.25537933125021,
                        "value": 0
                    },
                    {
                        "number": 64,
                        "time": 75.70550803750018,
                        "value": 1
                    },
                    {
                        "number": 64,
                        "time": 76.20347503750018,
                        "value": 0
                    },
                    {
                        "number": 64,
                        "time": 76.28439467500019,
                        "value": 1
                    },
                    {
                        "number": 64,
                        "time": 76.6869180000002,
                        "value": 0
                    },
                    {
                        "number": 64,
                        "time": 76.8114097500002,
                        "value": 1
                    },
                    {
                        "number": 64,
                        "time": 77.20044646875017,
                        "value": 0
                    },
                    {
                        "number": 64,
                        "time": 77.30937675000017,
                        "value": 1
                    },
                    {
                        "number": 64,
                        "time": 77.68285200000014,
                        "value": 0
                    },
                    {
                        "number": 64,
                        "time": 77.74924760000015,
                        "value": 1
                    },
                    {
                        "number": 64,
                        "time": 78.20053019375015,
                        "value": 0
                    },
                    {
                        "number": 64,
                        "time": 78.28352469375015,
                        "value": 1
                    },
                    {
                        "number": 64,
                        "time": 78.44328910625015,
                        "value": 0
                    },
                    {
                        "number": 64,
                        "time": 78.50346011875016,
                        "value": 1
                    },
                    {
                        "number": 64,
                        "time": 78.67878600000016,
                        "value": 0
                    },
                    {
                        "number": 64,
                        "time": 78.76696765625016,
                        "value": 1
                    },
                    {
                        "number": 64,
                        "time": 79.19438933125018,
                        "value": 0
                    },
                    {
                        "number": 64,
                        "time": 79.27219667500017,
                        "value": 1
                    },
                    {
                        "number": 64,
                        "time": 79.43507338125018,
                        "value": 0
                    },
                    {
                        "number": 64,
                        "time": 79.49939411875017,
                        "value": 1
                    },
                    {
                        "number": 64,
                        "time": 79.67472000000018,
                        "value": 0
                    },
                    {
                        "number": 64,
                        "time": 80.00462313750019,
                        "value": 1
                    },
                    {
                        "number": 64,
                        "time": 81.18314503750018,
                        "value": 0
                    },
                    {
                        "number": 64,
                        "time": 81.70704781875017,
                        "value": 1
                    },
                    {
                        "number": 64,
                        "time": 82.42080051875016,
                        "value": 0
                    },
                    {
                        "number": 64,
                        "time": 82.74344163750015,
                        "value": 1
                    },
                    {
                        "number": 64,
                        "time": 83.41362222500015,
                        "value": 0
                    },
                    {
                        "number": 64,
                        "time": 84.75709569375019,
                        "value": 1
                    },
                    {
                        "number": 64,
                        "time": 84.90959808750019,
                        "value": 0
                    },
                    {
                        "number": 64,
                        "time": 85.75302969375021,
                        "value": 1
                    },
                    {
                        "number": 64,
                        "time": 85.9055320875002,
                        "value": 0
                    },
                    {
                        "number": 64,
                        "time": 95.60966400000041,
                        "value": 1
                    },
                    {
                        "number": 64,
                        "time": 96.60559800000038,
                        "value": 0
                    },
                    {
                        "number": 64,
                        "time": 96.73008975000039,
                        "value": 1
                    },
                    {
                        "number": 64,
                        "time": 97.35669822500039,
                        "value": 0
                    },
                    {
                        "number": 64,
                        "time": 98.73648178750042,
                        "value": 1
                    },
                    {
                        "number": 64,
                        "time": 98.85267408750042,
                        "value": 0
                    },
                    {
                        "number": 64,
                        "time": 99.71062973125042,
                        "value": 1
                    },
                    {
                        "number": 64,
                        "time": 100.5893340000004,
                        "value": 0
                    },
                    {
                        "number": 64,
                        "time": 100.72108776875041,
                        "value": 1
                    },
                    {
                        "number": 64,
                        "time": 101.10493733125041,
                        "value": 0
                    },
                    {
                        "number": 64,
                        "time": 112.55506603750078,
                        "value": 1
                    },
                    {
                        "number": 64,
                        "time": 113.05303303750078,
                        "value": 0
                    },
                    {
                        "number": 64,
                        "time": 113.13395267500078,
                        "value": 1
                    },
                    {
                        "number": 64,
                        "time": 113.5364760000008,
                        "value": 0
                    },
                    {
                        "number": 64,
                        "time": 113.6609677500008,
                        "value": 1
                    },
                    {
                        "number": 64,
                        "time": 114.0500044687508,
                        "value": 0
                    },
                    {
                        "number": 64,
                        "time": 114.1589347500008,
                        "value": 1
                    },
                    {
                        "number": 64,
                        "time": 114.5324100000008,
                        "value": 0
                    },
                    {
                        "number": 64,
                        "time": 114.59880560000079,
                        "value": 1
                    },
                    {
                        "number": 64,
                        "time": 115.0500881937508,
                        "value": 0
                    },
                    {
                        "number": 64,
                        "time": 115.1330826937508,
                        "value": 1
                    },
                    {
                        "number": 64,
                        "time": 115.29284710625079,
                        "value": 0
                    },
                    {
                        "number": 64,
                        "time": 115.3530181187508,
                        "value": 1
                    },
                    {
                        "number": 64,
                        "time": 115.5283440000008,
                        "value": 0
                    },
                    {
                        "number": 64,
                        "time": 115.6165256562508,
                        "value": 1
                    },
                    {
                        "number": 64,
                        "time": 116.04394733125082,
                        "value": 0
                    },
                    {
                        "number": 64,
                        "time": 116.12175467500082,
                        "value": 1
                    },
                    {
                        "number": 64,
                        "time": 116.28463138125082,
                        "value": 0
                    },
                    {
                        "number": 64,
                        "time": 116.34895211875082,
                        "value": 1
                    },
                    {
                        "number": 64,
                        "time": 116.52427800000082,
                        "value": 0
                    },
                    {
                        "number": 64,
                        "time": 116.85418113750083,
                        "value": 1
                    },
                    {
                        "number": 64,
                        "time": 119.01411300000083,
                        "value": 0
                    }
                ]
            },
            "id": 0,
            "name": "Clementi: Sonatine Opus 36 Nr. 2, 1. Satz",
            "instrumentNumber": 0,
            "instrument": "acoustic grand piano",
            "instrumentFamily": "piano",
            "channelNumber": 0,
            "isPercussion": false
        }
    ]
}