{
    "header": {
        "PPQ": 480,
        "timeSignature": [
            3,
            4
        ],
        "bpm": 122.29000258847172,
        "name": "Haydn: Klaviersonate Hoboken XVI: 33 3. Satz"
    },
    "startTime": 0,
    "duration": 236.24171549999946,
    "tracks": [
        {
            "startTime": 0,
            "duration": 0,
            "length": 0,
            "notes": [],
            "controlChanges": {},
            "id": 0,
            "name": "Haydn: Klaviersonate Hoboken XVI: 33 3. Satz"
        },
        {
            "startTime": 0.981274,
            "duration": 235.99639699999892,
            "length": 1273,
            "notes": [
                {
                    "name": "A4",
                    "midi": 69,
                    "time": 0.981274,
                    "velocity": 0.3937007874015748,
                    "duration": 0.3679777500000001
                },
                {
                    "name": "F#4",
                    "midi": 66,
                    "time": 1.34925175,
                    "velocity": 0.3543307086614173,
                    "duration": 0.12265924999999989
                },
                {
                    "name": "D5",
                    "midi": 74,
                    "time": 1.471911,
                    "velocity": 0.3937007874015748,
                    "duration": 0.12265924999999989
                },
                {
                    "name": "D5",
                    "midi": 74,
                    "time": 1.962548,
                    "velocity": 0.3700787401574803,
                    "duration": 0.12265924999999989
                },
                {
                    "name": "D5",
                    "midi": 74,
                    "time": 2.453185,
                    "velocity": 0.3700787401574803,
                    "duration": 0.24531850000000022
                },
                {
                    "name": "C#5",
                    "midi": 73,
                    "time": 2.6985035,
                    "velocity": 0.3700787401574803,
                    "duration": 0.06132962499999994
                },
                {
                    "name": "D5",
                    "midi": 74,
                    "time": 2.759833125,
                    "velocity": 0.3700787401574803,
                    "duration": 0.06132962499999994
                },
                {
                    "name": "E5",
                    "midi": 76,
                    "time": 2.82116275,
                    "velocity": 0.3700787401574803,
                    "duration": 0.06132962499999994
                },
                {
                    "name": "D5",
                    "midi": 74,
                    "time": 2.882492375,
                    "velocity": 0.3700787401574803,
                    "duration": 0.06132962499999994
                },
                {
                    "name": "C#5",
                    "midi": 73,
                    "time": 2.943822,
                    "velocity": 0.4015748031496063,
                    "duration": 0.3679777500000001
                },
                {
                    "name": "E5",
                    "midi": 76,
                    "time": 3.31179975,
                    "velocity": 0.4094488188976378,
                    "duration": 0.12265924999999989
                },
                {
                    "name": "G5",
                    "midi": 79,
                    "time": 3.434459,
                    "velocity": 0.4409448818897638,
                    "duration": 0.8586147499999996
                },
                {
                    "name": "E5",
                    "midi": 76,
                    "time": 4.29307375,
                    "velocity": 0.4015748031496063,
                    "duration": 0.12265924999999989
                },
                {
                    "name": "F#5",
                    "midi": 78,
                    "time": 4.4157329999999995,
                    "velocity": 0.4566929133858268,
                    "duration": 0.36797774999999966
                },
                {
                    "name": "D5",
                    "midi": 74,
                    "time": 4.783710749999999,
                    "velocity": 0.41732283464566927,
                    "duration": 0.12265924999999989
                },
                {
                    "name": "A5",
                    "midi": 81,
                    "time": 4.906369999999999,
                    "velocity": 0.4566929133858268,
                    "duration": 0.36797774999999966
                },
                {
                    "name": "F#5",
                    "midi": 78,
                    "time": 5.274347749999999,
                    "velocity": 0.4251968503937008,
                    "duration": 0.12265924999999989
                },
                {
                    "name": "B5",
                    "midi": 83,
                    "time": 5.3970069999999986,
                    "velocity": 0.4645669291338583,
                    "duration": 0.36797774999999966
                },
                {
                    "name": "G5",
                    "midi": 79,
                    "time": 5.764984749999998,
                    "velocity": 0.3779527559055118,
                    "duration": 0.12265924999999989
                },
                {
                    "name": "F#5",
                    "midi": 78,
                    "time": 5.887643999999998,
                    "velocity": 0.4015748031496063,
                    "duration": 0.49063699999999955
                },
                {
                    "name": "E5",
                    "midi": 76,
                    "time": 6.378280999999998,
                    "velocity": 0.30708661417322836,
                    "duration": 0.36797774999999966
                },
                {
                    "name": "A4",
                    "midi": 69,
                    "time": 6.868917999999997,
                    "velocity": 0.3937007874015748,
                    "duration": 0.36797774999999966
                },
                {
                    "name": "F#4",
                    "midi": 66,
                    "time": 7.236895749999997,
                    "velocity": 0.3543307086614173,
                    "duration": 0.12265924999999989
                },
                {
                    "name": "D5",
                    "midi": 74,
                    "time": 7.359554999999997,
                    "velocity": 0.3937007874015748,
                    "duration": 0.12265924999999989
                },
                {
                    "name": "D5",
                    "midi": 74,
                    "time": 7.850191999999996,
                    "velocity": 0.3700787401574803,
                    "duration": 0.12265924999999989
                },
                {
                    "name": "D5",
                    "midi": 74,
                    "time": 8.340828999999996,
                    "velocity": 0.3700787401574803,
                    "duration": 0.24531849999999977
                },
                {
                    "name": "C#5",
                    "midi": 73,
                    "time": 8.586147499999996,
                    "velocity": 0.3700787401574803,
                    "duration": 0.06132962500000083
                },
                {
                    "name": "D5",
                    "midi": 74,
                    "time": 8.647477124999996,
                    "velocity": 0.3700787401574803,
                    "duration": 0.06132962500000083
                },
                {
                    "name": "E5",
                    "midi": 76,
                    "time": 8.708806749999997,
                    "velocity": 0.3700787401574803,
                    "duration": 0.06132962500000083
                },
                {
                    "name": "D5",
                    "midi": 74,
                    "time": 8.770136374999998,
                    "velocity": 0.3700787401574803,
                    "duration": 0.06132962500000083
                },
                {
                    "name": "C#5",
                    "midi": 73,
                    "time": 8.831465999999999,
                    "velocity": 0.4566929133858268,
                    "duration": 0.36797774999999966
                },
                {
                    "name": "E5",
                    "midi": 76,
                    "time": 9.199443749999999,
                    "velocity": 0.41732283464566927,
                    "duration": 0.12265924999999989
                },
                {
                    "name": "G5",
                    "midi": 79,
                    "time": 9.322102999999998,
                    "velocity": 0.4566929133858268,
                    "duration": 0.36797774999999966
                },
                {
                    "name": "E5",
                    "midi": 76,
                    "time": 9.690080749999998,
                    "velocity": 0.4251968503937008,
                    "duration": 0.12265924999999989
                },
                {
                    "name": "F#5",
                    "midi": 78,
                    "time": 9.812739999999998,
                    "velocity": 0.4645669291338583,
                    "duration": 0.36797774999999966
                },
                {
                    "name": "D5",
                    "midi": 74,
                    "time": 10.180717749999998,
                    "velocity": 0.3779527559055118,
                    "duration": 0.12265924999999989
                },
                {
                    "name": "B4",
                    "midi": 71,
                    "time": 10.303376999999998,
                    "velocity": 0.4566929133858268,
                    "duration": 0.12265924999999989
                },
                {
                    "name": "E5",
                    "midi": 76,
                    "time": 10.794013999999997,
                    "velocity": 0.4409448818897638,
                    "duration": 0.12265924999999989
                },
                {
                    "name": "C#5",
                    "midi": 73,
                    "time": 11.284650999999997,
                    "velocity": 0.3543307086614173,
                    "duration": 0.24531849999999977
                },
                {
                    "name": "G4",
                    "midi": 67,
                    "time": 11.284650999999997,
                    "velocity": 0.3543307086614173,
                    "duration": 0.4906370000000031
                },
                {
                    "name": "D5",
                    "midi": 74,
                    "time": 11.529969499999996,
                    "velocity": 0.4330708661417323,
                    "duration": 0.06132962500000083
                },
                {
                    "name": "C#5",
                    "midi": 73,
                    "time": 11.591299124999997,
                    "velocity": 0.3779527559055118,
                    "duration": 0.06132962500000083
                },
                {
                    "name": "B4",
                    "midi": 71,
                    "time": 11.652628749999998,
                    "velocity": 0.3779527559055118,
                    "duration": 0.06132962500000083
                },
                {
                    "name": "C#5",
                    "midi": 73,
                    "time": 11.713958374999999,
                    "velocity": 0.3779527559055118,
                    "duration": 0.06132962500000083
                },
                {
                    "name": "D5",
                    "midi": 74,
                    "time": 11.775288,
                    "velocity": 0.4566929133858268,
                    "duration": 0.49063699999999955
                },
                {
                    "name": "F#4",
                    "midi": 66,
                    "time": 11.775288,
                    "velocity": 0.3858267716535433,
                    "duration": 0.49063699999999955
                },
                {
                    "name": "A4",
                    "midi": 69,
                    "time": 12.756561999999999,
                    "velocity": 0.3937007874015748,
                    "duration": 0.36797774999999966
                },
                {
                    "name": "F#4",
                    "midi": 66,
                    "time": 13.124539749999999,
                    "velocity": 0.3543307086614173,
                    "duration": 0.12265924999999989
                },
                {
                    "name": "D5",
                    "midi": 74,
                    "time": 13.247198999999998,
                    "velocity": 0.3937007874015748,
                    "duration": 0.12265924999999989
                },
                {
                    "name": "D5",
                    "midi": 74,
                    "time": 13.737835999999998,
                    "velocity": 0.3700787401574803,
                    "duration": 0.12265924999999989
                },
                {
                    "name": "D5",
                    "midi": 74,
                    "time": 14.228472999999997,
                    "velocity": 0.3700787401574803,
                    "duration": 0.24531849999999977
                },
                {
                    "name": "C#5",
                    "midi": 73,
                    "time": 14.473791499999997,
                    "velocity": 0.3700787401574803,
                    "duration": 0.06132962500000083
                },
                {
                    "name": "D5",
                    "midi": 74,
                    "time": 14.535121124999998,
                    "velocity": 0.3700787401574803,
                    "duration": 0.06132962500000083
                },
                {
                    "name": "E5",
                    "midi": 76,
                    "time": 14.596450749999999,
                    "velocity": 0.3700787401574803,
                    "duration": 0.06132962500000083
                },
                {
                    "name": "D5",
                    "midi": 74,
                    "time": 14.657780375,
                    "velocity": 0.3700787401574803,
                    "duration": 0.06132962500000083
                },
                {
                    "name": "C#5",
                    "midi": 73,
                    "time": 14.71911,
                    "velocity": 0.4015748031496063,
                    "duration": 0.36797774999999966
                },
                {
                    "name": "E5",
                    "midi": 76,
                    "time": 15.08708775,
                    "velocity": 0.4094488188976378,
                    "duration": 0.12265924999999989
                },
                {
                    "name": "G5",
                    "midi": 79,
                    "time": 15.209747,
                    "velocity": 0.4409448818897638,
                    "duration": 0.858614750000001
                },
                {
                    "name": "E5",
                    "midi": 76,
                    "time": 16.06836175,
                    "velocity": 0.4015748031496063,
                    "duration": 0.12265925000000166
                },
                {
                    "name": "F#5",
                    "midi": 78,
                    "time": 16.191021000000003,
                    "velocity": 0.4566929133858268,
                    "duration": 0.36797775000000144
                },
                {
                    "name": "D5",
                    "midi": 74,
                    "time": 16.558998750000004,
                    "velocity": 0.41732283464566927,
                    "duration": 0.12265925000000166
                },
                {
                    "name": "A5",
                    "midi": 81,
                    "time": 16.681658000000006,
                    "velocity": 0.4566929133858268,
                    "duration": 0.36797775000000144
                },
                {
                    "name": "F#5",
                    "midi": 78,
                    "time": 17.049635750000007,
                    "velocity": 0.4251968503937008,
                    "duration": 0.12265925000000166
                },
                {
                    "name": "B5",
                    "midi": 83,
                    "time": 17.17229500000001,
                    "velocity": 0.4645669291338583,
                    "duration": 0.36797775000000144
                },
                {
                    "name": "G5",
                    "midi": 79,
                    "time": 17.54027275000001,
                    "velocity": 0.3779527559055118,
                    "duration": 0.12265925000000166
                },
                {
                    "name": "F#5",
                    "midi": 78,
                    "time": 17.662932000000012,
                    "velocity": 0.4015748031496063,
                    "duration": 0.49063699999999955
                },
                {
                    "name": "E5",
                    "midi": 76,
                    "time": 18.15356900000001,
                    "velocity": 0.30708661417322836,
                    "duration": 0.36797775000000144
                },
                {
                    "name": "A4",
                    "midi": 69,
                    "time": 18.644206000000015,
                    "velocity": 0.3937007874015748,
                    "duration": 0.36797775000000144
                },
                {
                    "name": "F#4",
                    "midi": 66,
                    "time": 19.012183750000016,
                    "velocity": 0.3543307086614173,
                    "duration": 0.12265925000000166
                },
                {
                    "name": "D5",
                    "midi": 74,
                    "time": 19.134843000000018,
                    "velocity": 0.3937007874015748,
                    "duration": 0.12265925000000166
                },
                {
                    "name": "D5",
                    "midi": 74,
                    "time": 19.62548000000002,
                    "velocity": 0.3700787401574803,
                    "duration": 0.12265925000000166
                },
                {
                    "name": "D5",
                    "midi": 74,
                    "time": 20.116117000000024,
                    "velocity": 0.3700787401574803,
                    "duration": 0.24531849999999977
                },
                {
                    "name": "C#5",
                    "midi": 73,
                    "time": 20.361435500000024,
                    "velocity": 0.3700787401574803,
                    "duration": 0.061329624999999055
                },
                {
                    "name": "D5",
                    "midi": 74,
                    "time": 20.422765125000023,
                    "velocity": 0.3700787401574803,
                    "duration": 0.061329624999999055
                },
                {
                    "name": "E5",
                    "midi": 76,
                    "time": 20.484094750000022,
                    "velocity": 0.3700787401574803,
                    "duration": 0.061329624999999055
                },
                {
                    "name": "D5",
                    "midi": 74,
                    "time": 20.54542437500002,
                    "velocity": 0.3700787401574803,
                    "duration": 0.061329624999999055
                },
                {
                    "name": "C#5",
                    "midi": 73,
                    "time": 20.60675400000002,
                    "velocity": 0.4566929133858268,
                    "duration": 0.36797775000000144
                },
                {
                    "name": "E5",
                    "midi": 76,
                    "time": 20.97473175000002,
                    "velocity": 0.41732283464566927,
                    "duration": 0.12265925000000166
                },
                {
                    "name": "G5",
                    "midi": 79,
                    "time": 21.097391000000023,
                    "velocity": 0.4566929133858268,
                    "duration": 0.36797775000000144
                },
                {
                    "name": "E5",
                    "midi": 76,
                    "time": 21.465368750000025,
                    "velocity": 0.4251968503937008,
                    "duration": 0.12265925000000166
                },
                {
                    "name": "F#5",
                    "midi": 78,
                    "time": 21.588028000000026,
                    "velocity": 0.4645669291338583,
                    "duration": 0.36797775000000144
                },
                {
                    "name": "D5",
                    "midi": 74,
                    "time": 21.956005750000028,
                    "velocity": 0.3779527559055118,
                    "duration": 0.12265925000000166
                },
                {
                    "name": "B4",
                    "midi": 71,
                    "time": 22.07866500000003,
                    "velocity": 0.4566929133858268,
                    "duration": 0.12265925000000166
                },
                {
                    "name": "E5",
                    "midi": 76,
                    "time": 22.569302000000032,
                    "velocity": 0.4409448818897638,
                    "duration": 0.12265925000000166
                },
                {
                    "name": "C#5",
                    "midi": 73,
                    "time": 23.059939000000035,
                    "velocity": 0.3543307086614173,
                    "duration": 0.24531849999999977
                },
                {
                    "name": "G4",
                    "midi": 67,
                    "time": 23.059939000000035,
                    "velocity": 0.3543307086614173,
                    "duration": 0.490636999999996
                },
                {
                    "name": "D5",
                    "midi": 74,
                    "time": 23.305257500000035,
                    "velocity": 0.4330708661417323,
                    "duration": 0.061329624999999055
                },
                {
                    "name": "C#5",
                    "midi": 73,
                    "time": 23.366587125000034,
                    "velocity": 0.3779527559055118,
                    "duration": 0.061329624999999055
                },
                {
                    "name": "B4",
                    "midi": 71,
                    "time": 23.427916750000033,
                    "velocity": 0.3779527559055118,
                    "duration": 0.061329624999999055
                },
                {
                    "name": "C#5",
                    "midi": 73,
                    "time": 23.489246375000032,
                    "velocity": 0.3779527559055118,
                    "duration": 0.061329624999999055
                },
                {
                    "name": "D5",
                    "midi": 74,
                    "time": 23.55057600000003,
                    "velocity": 0.4566929133858268,
                    "duration": 0.49063699999999955
                },
                {
                    "name": "F#4",
                    "midi": 66,
                    "time": 23.55057600000003,
                    "velocity": 0.3858267716535433,
                    "duration": 0.49063699999999955
                },
                {
                    "name": "A5",
                    "midi": 81,
                    "time": 24.53185000000003,
                    "velocity": 0.4566929133858268,
                    "duration": 0.36797775000000144
                },
                {
                    "name": "F#5",
                    "midi": 78,
                    "time": 24.899827750000032,
                    "velocity": 0.41732283464566927,
                    "duration": 0.12265925000000166
                },
                {
                    "name": "D6",
                    "midi": 86,
                    "time": 25.022487000000034,
                    "velocity": 0.4566929133858268,
                    "duration": 0.36797775000000144
                },
                {
                    "name": "A5",
                    "midi": 81,
                    "time": 25.390464750000035,
                    "velocity": 0.41732283464566927,
                    "duration": 0.12265925000000166
                },
                {
                    "name": "B5",
                    "midi": 83,
                    "time": 25.513124000000037,
                    "velocity": 0.4566929133858268,
                    "duration": 0.36797775000000144
                },
                {
                    "name": "G#5",
                    "midi": 80,
                    "time": 25.881101750000038,
                    "velocity": 0.4251968503937008,
                    "duration": 0.12265925000000166
                },
                {
                    "name": "A5",
                    "midi": 81,
                    "time": 26.00376100000004,
                    "velocity": 0.4645669291338583,
                    "duration": 0.36797775000000144
                },
                {
                    "name": "E5",
                    "midi": 76,
                    "time": 26.37173875000004,
                    "velocity": 0.3779527559055118,
                    "duration": 0.12265925000000166
                },
                {
                    "name": "G5",
                    "midi": 79,
                    "time": 26.494398000000043,
                    "velocity": 0.4566929133858268,
                    "duration": 0.36797775000000144
                },
                {
                    "name": "D5",
                    "midi": 74,
                    "time": 26.862375750000044,
                    "velocity": 0.4251968503937008,
                    "duration": 0.12265925000000166
                },
                {
                    "name": "F#5",
                    "midi": 78,
                    "time": 26.985035000000046,
                    "velocity": 0.4645669291338583,
                    "duration": 0.36797775000000144
                },
                {
                    "name": "C#5",
                    "midi": 73,
                    "time": 27.353012750000048,
                    "velocity": 0.44881889763779526,
                    "duration": 0.12265925000000166
                },
                {
                    "name": "E5",
                    "midi": 76,
                    "time": 27.47567200000005,
                    "velocity": 0.49606299212598426,
                    "duration": 0.36797775000000144
                },
                {
                    "name": "B4",
                    "midi": 71,
                    "time": 27.84364975000005,
                    "velocity": 0.4094488188976378,
                    "duration": 0.12265925000000166
                },
                {
                    "name": "D5",
                    "midi": 74,
                    "time": 27.966309000000052,
                    "velocity": 0.5118110236220472,
                    "duration": 0.36797775000000144
                },
                {
                    "name": "A4",
                    "midi": 69,
                    "time": 28.334286750000054,
                    "velocity": 0.48031496062992124,
                    "duration": 0.12265925000000166
                },
                {
                    "name": "C#5",
                    "midi": 73,
                    "time": 28.456946000000055,
                    "velocity": 0.3937007874015748,
                    "duration": 0.4906370000000031
                },
                {
                    "name": "G5",
                    "midi": 79,
                    "time": 28.456946000000055,
                    "velocity": 0.5196850393700787,
                    "duration": 0.36797775000000144
                },
                {
                    "name": "E5",
                    "midi": 76,
                    "time": 28.824923750000057,
                    "velocity": 0.4566929133858268,
                    "duration": 0.12265925000000166
                },
                {
                    "name": "D5",
                    "midi": 74,
                    "time": 28.94758300000006,
                    "velocity": 0.4409448818897638,
                    "duration": 0.4906370000000031
                },
                {
                    "name": "F#5",
                    "midi": 78,
                    "time": 28.94758300000006,
                    "velocity": 0.5118110236220472,
                    "duration": 0.36797775000000144
                },
                {
                    "name": "A5",
                    "midi": 81,
                    "time": 29.31556075000006,
                    "velocity": 0.44881889763779526,
                    "duration": 0.12265925000000166
                },
                {
                    "name": "D5",
                    "midi": 74,
                    "time": 29.43822000000006,
                    "velocity": 0.3700787401574803,
                    "duration": 0.49063699999999955
                },
                {
                    "name": "F#5",
                    "midi": 78,
                    "time": 29.43822000000006,
                    "velocity": 0.4409448818897638,
                    "duration": 0.49063699999999955
                },
                {
                    "name": "C#5",
                    "midi": 73,
                    "time": 29.92885700000006,
                    "velocity": 0.33070866141732286,
                    "duration": 0.24531849999999977
                },
                {
                    "name": "E5",
                    "midi": 76,
                    "time": 29.92885700000006,
                    "velocity": 0.3937007874015748,
                    "duration": 0.24531849999999977
                },
                {
                    "name": "A5",
                    "midi": 81,
                    "time": 30.41949400000006,
                    "velocity": 0.4566929133858268,
                    "duration": 0.36797775000000144
                },
                {
                    "name": "F#5",
                    "midi": 78,
                    "time": 30.787471750000062,
                    "velocity": 0.41732283464566927,
                    "duration": 0.12265925000000166
                },
                {
                    "name": "D6",
                    "midi": 86,
                    "time": 30.910131000000064,
                    "velocity": 0.4566929133858268,
                    "duration": 0.36797775000000144
                },
                {
                    "name": "A5",
                    "midi": 81,
                    "time": 31.278108750000065,
                    "velocity": 0.41732283464566927,
                    "duration": 0.12265925000000166
                },
                {
                    "name": "B5",
                    "midi": 83,
                    "time": 31.400768000000067,
                    "velocity": 0.4566929133858268,
                    "duration": 0.36797775000000144
                },
                {
                    "name": "G#5",
                    "midi": 80,
                    "time": 31.76874575000007,
                    "velocity": 0.4251968503937008,
                    "duration": 0.12265925000000166
                },
                {
                    "name": "A5",
                    "midi": 81,
                    "time": 31.89140500000007,
                    "velocity": 0.4645669291338583,
                    "duration": 0.36797775000000144
                },
                {
                    "name": "E5",
                    "midi": 76,
                    "time": 32.25938275000007,
                    "velocity": 0.3779527559055118,
                    "duration": 0.12265924999999811
                },
                {
                    "name": "G5",
                    "midi": 79,
                    "time": 32.38204200000007,
                    "velocity": 0.4566929133858268,
                    "duration": 0.36797775000000144
                },
                {
                    "name": "D5",
                    "midi": 74,
                    "time": 32.75001975000007,
                    "velocity": 0.4251968503937008,
                    "duration": 0.12265924999999811
                },
                {
                    "name": "F#5",
                    "midi": 78,
                    "time": 32.87267900000007,
                    "velocity": 0.47244094488188976,
                    "duration": 0.36797775000000144
                },
                {
                    "name": "C#5",
                    "midi": 73,
                    "time": 33.24065675000007,
                    "velocity": 0.44881889763779526,
                    "duration": 0.12265924999999811
                },
                {
                    "name": "E5",
                    "midi": 76,
                    "time": 33.36331600000007,
                    "velocity": 0.49606299212598426,
                    "duration": 0.36797775000000144
                },
                {
                    "name": "B4",
                    "midi": 71,
                    "time": 33.73129375000007,
                    "velocity": 0.41732283464566927,
                    "duration": 0.12265924999999811
                },
                {
                    "name": "D5",
                    "midi": 74,
                    "time": 33.85395300000007,
                    "velocity": 0.5196850393700787,
                    "duration": 0.36797775000000144
                },
                {
                    "name": "A4",
                    "midi": 69,
                    "time": 34.22193075000007,
                    "velocity": 0.4251968503937008,
                    "duration": 0.12265924999999811
                },
                {
                    "name": "F#5",
                    "midi": 78,
                    "time": 34.34459000000007,
                    "velocity": 0.5196850393700787,
                    "duration": 0.49063699999999955
                },
                {
                    "name": "E5",
                    "midi": 76,
                    "time": 34.83522700000007,
                    "velocity": 0.3700787401574803,
                    "duration": 0.061329624999999055
                },
                {
                    "name": "F#5",
                    "midi": 78,
                    "time": 34.896556625000066,
                    "velocity": 0.3464566929133858,
                    "duration": 0.061329624999999055
                },
                {
                    "name": "E5",
                    "midi": 76,
                    "time": 34.957886250000065,
                    "velocity": 0.3700787401574803,
                    "duration": 0.061329624999999055
                },
                {
                    "name": "F#5",
                    "midi": 78,
                    "time": 35.019215875000064,
                    "velocity": 0.3543307086614173,
                    "duration": 0.061329624999999055
                },
                {
                    "name": "E5",
                    "midi": 76,
                    "time": 35.08054550000006,
                    "velocity": 0.3700787401574803,
                    "duration": 0.061329624999999055
                },
                {
                    "name": "F#5",
                    "midi": 78,
                    "time": 35.14187512500006,
                    "velocity": 0.33858267716535434,
                    "duration": 0.061329624999999055
                },
                {
                    "name": "E5",
                    "midi": 76,
                    "time": 35.20320475000006,
                    "velocity": 0.33858267716535434,
                    "duration": 0.04088641666666604
                },
                {
                    "name": "D5",
                    "midi": 74,
                    "time": 35.24409116666673,
                    "velocity": 0.33858267716535434,
                    "duration": 0.04088641666666604
                },
                {
                    "name": "E5",
                    "midi": 76,
                    "time": 35.28599974375006,
                    "velocity": 0.33858267716535434,
                    "duration": 0.04088641666666604
                },
                {
                    "name": "D5",
                    "midi": 74,
                    "time": 35.32586400000006,
                    "velocity": 0.5196850393700787,
                    "duration": 0.49063699999999955
                },
                {
                    "name": "A5",
                    "midi": 81,
                    "time": 36.30713800000006,
                    "velocity": 0.4566929133858268,
                    "duration": 0.36797775000000144
                },
                {
                    "name": "F#5",
                    "midi": 78,
                    "time": 36.67511575000006,
                    "velocity": 0.41732283464566927,
                    "duration": 0.12265924999999811
                },
                {
                    "name": "D6",
                    "midi": 86,
                    "time": 36.79777500000006,
                    "velocity": 0.4566929133858268,
                    "duration": 0.36797775000000144
                },
                {
                    "name": "A5",
                    "midi": 81,
                    "time": 37.16575275000006,
                    "velocity": 0.41732283464566927,
                    "duration": 0.12265924999999811
                },
                {
                    "name": "B5",
                    "midi": 83,
                    "time": 37.28841200000006,
                    "velocity": 0.4566929133858268,
                    "duration": 0.36797775000000144
                },
                {
                    "name": "G#5",
                    "midi": 80,
                    "time": 37.65638975000006,
                    "velocity": 0.4251968503937008,
                    "duration": 0.12265924999999811
                },
                {
                    "name": "A5",
                    "midi": 81,
                    "time": 37.77904900000006,
                    "velocity": 0.4645669291338583,
                    "duration": 0.36797775000000144
                },
                {
                    "name": "E5",
                    "midi": 76,
                    "time": 38.14702675000006,
                    "velocity": 0.3779527559055118,
                    "duration": 0.12265924999999811
                },
                {
                    "name": "G5",
                    "midi": 79,
                    "time": 38.26968600000006,
                    "velocity": 0.4566929133858268,
                    "duration": 0.36797775000000144
                },
                {
                    "name": "D5",
                    "midi": 74,
                    "time": 38.63766375000006,
                    "velocity": 0.4251968503937008,
                    "duration": 0.12265924999999811
                },
                {
                    "name": "F#5",
                    "midi": 78,
                    "time": 38.76032300000006,
                    "velocity": 0.4645669291338583,
                    "duration": 0.36797775000000144
                },
                {
                    "name": "C#5",
                    "midi": 73,
                    "time": 39.12830075000006,
                    "velocity": 0.44881889763779526,
                    "duration": 0.12265924999999811
                },
                {
                    "name": "E5",
                    "midi": 76,
                    "time": 39.250960000000056,
                    "velocity": 0.49606299212598426,
                    "duration": 0.36797775000000144
                },
                {
                    "name": "B4",
                    "midi": 71,
                    "time": 39.61893775000006,
                    "velocity": 0.4094488188976378,
                    "duration": 0.12265924999999811
                },
                {
                    "name": "D5",
                    "midi": 74,
                    "time": 39.741597000000056,
                    "velocity": 0.5118110236220472,
                    "duration": 0.36797775000000144
                },
                {
                    "name": "A4",
                    "midi": 69,
                    "time": 40.10957475000006,
                    "velocity": 0.48031496062992124,
                    "duration": 0.12265924999999811
                },
                {
                    "name": "C#5",
                    "midi": 73,
                    "time": 40.232234000000055,
                    "velocity": 0.3937007874015748,
                    "duration": 0.49063699999999955
                },
                {
                    "name": "G5",
                    "midi": 79,
                    "time": 40.232234000000055,
                    "velocity": 0.5196850393700787,
                    "duration": 0.36797775000000144
                },
                {
                    "name": "E5",
                    "midi": 76,
                    "time": 40.60021175000006,
                    "velocity": 0.4566929133858268,
                    "duration": 0.12265924999999811
                },
                {
                    "name": "D5",
                    "midi": 74,
                    "time": 40.722871000000055,
                    "velocity": 0.4409448818897638,
                    "duration": 0.49063699999999955
                },
                {
                    "name": "F#5",
                    "midi": 78,
                    "time": 40.722871000000055,
                    "velocity": 0.5118110236220472,
                    "duration": 0.36797775000000144
                },
                {
                    "name": "A5",
                    "midi": 81,
                    "time": 41.090848750000056,
                    "velocity": 0.44881889763779526,
                    "duration": 0.12265924999999811
                },
                {
                    "name": "D5",
                    "midi": 74,
                    "time": 41.213508000000054,
                    "velocity": 0.3700787401574803,
                    "duration": 0.49063699999999955
                },
                {
                    "name": "F#5",
                    "midi": 78,
                    "time": 41.213508000000054,
                    "velocity": 0.4409448818897638,
                    "duration": 0.49063699999999955
                },
                {
                    "name": "C#5",
                    "midi": 73,
                    "time": 41.704145000000054,
                    "velocity": 0.33070866141732286,
                    "duration": 0.24531850000000333
                },
                {
                    "name": "E5",
                    "midi": 76,
                    "time": 41.704145000000054,
                    "velocity": 0.3937007874015748,
                    "duration": 0.24531850000000333
                },
                {
                    "name": "A5",
                    "midi": 81,
                    "time": 42.19478200000006,
                    "velocity": 0.4566929133858268,
                    "duration": 0.36797775000000144
                },
                {
                    "name": "F#5",
                    "midi": 78,
                    "time": 42.56275975000006,
                    "velocity": 0.41732283464566927,
                    "duration": 0.12265924999999811
                },
                {
                    "name": "D6",
                    "midi": 86,
                    "time": 42.68541900000006,
                    "velocity": 0.4566929133858268,
                    "duration": 0.36797775000000144
                },
                {
                    "name": "A5",
                    "midi": 81,
                    "time": 43.05339675000006,
                    "velocity": 0.41732283464566927,
                    "duration": 0.12265924999999811
                },
                {
                    "name": "B5",
                    "midi": 83,
                    "time": 43.17605600000006,
                    "velocity": 0.4566929133858268,
                    "duration": 0.36797775000000144
                },
                {
                    "name": "G#5",
                    "midi": 80,
                    "time": 43.54403375000006,
                    "velocity": 0.4251968503937008,
                    "duration": 0.12265924999999811
                },
                {
                    "name": "A5",
                    "midi": 81,
                    "time": 43.66669300000006,
                    "velocity": 0.4645669291338583,
                    "duration": 0.36797775000000144
                },
                {
                    "name": "E5",
                    "midi": 76,
                    "time": 44.03467075000006,
                    "velocity": 0.3779527559055118,
                    "duration": 0.12265924999999811
                },
                {
                    "name": "G5",
                    "midi": 79,
                    "time": 44.15733000000006,
                    "velocity": 0.4566929133858268,
                    "duration": 0.36797775000000144
                },
                {
                    "name": "D5",
                    "midi": 74,
                    "time": 44.52530775000006,
                    "velocity": 0.4251968503937008,
                    "duration": 0.12265924999999811
                },
                {
                    "name": "F#5",
                    "midi": 78,
                    "time": 44.64796700000006,
                    "velocity": 0.47244094488188976,
                    "duration": 0.36797775000000144
                },
                {
                    "name": "C#5",
                    "midi": 73,
                    "time": 45.01594475000006,
                    "velocity": 0.44881889763779526,
                    "duration": 0.12265924999999811
                },
                {
                    "name": "E5",
                    "midi": 76,
                    "time": 45.13860400000006,
                    "velocity": 0.49606299212598426,
                    "duration": 0.36797775000000144
                },
                {
                    "name": "B4",
                    "midi": 71,
                    "time": 45.50658175000006,
                    "velocity": 0.41732283464566927,
                    "duration": 0.12265924999999811
                },
                {
                    "name": "D5",
                    "midi": 74,
                    "time": 45.62924100000006,
                    "velocity": 0.5196850393700787,
                    "duration": 0.36797775000000144
                },
                {
                    "name": "A4",
                    "midi": 69,
                    "time": 45.99721875000006,
                    "velocity": 0.4251968503937008,
                    "duration": 0.12265924999999811
                },
                {
                    "name": "F#5",
                    "midi": 78,
                    "time": 46.11987800000006,
                    "velocity": 0.5196850393700787,
                    "duration": 0.49063699999999955
                },
                {
                    "name": "E5",
                    "midi": 76,
                    "time": 46.610515000000056,
                    "velocity": 0.3700787401574803,
                    "duration": 0.061329624999999055
                },
                {
                    "name": "F#5",
                    "midi": 78,
                    "time": 46.671844625000055,
                    "velocity": 0.3464566929133858,
                    "duration": 0.061329624999999055
                },
                {
                    "name": "E5",
                    "midi": 76,
                    "time": 46.733174250000054,
                    "velocity": 0.3700787401574803,
                    "duration": 0.061329624999999055
                },
                {
                    "name": "F#5",
                    "midi": 78,
                    "time": 46.79450387500005,
                    "velocity": 0.3543307086614173,
                    "duration": 0.061329624999999055
                },
                {
                    "name": "E5",
                    "midi": 76,
                    "time": 46.85583350000005,
                    "velocity": 0.3700787401574803,
                    "duration": 0.061329624999999055
                },
                {
                    "name": "F#5",
                    "midi": 78,
                    "time": 46.91716312500005,
                    "velocity": 0.33858267716535434,
                    "duration": 0.061329624999999055
                },
                {
                    "name": "E5",
                    "midi": 76,
                    "time": 46.97849275000005,
                    "velocity": 0.33858267716535434,
                    "duration": 0.04088641666666604
                },
                {
                    "name": "D5",
                    "midi": 74,
                    "time": 47.01937916666672,
                    "velocity": 0.33858267716535434,
                    "duration": 0.04088641666666604
                },
                {
                    "name": "E5",
                    "midi": 76,
                    "time": 47.06128774375005,
                    "velocity": 0.33858267716535434,
                    "duration": 0.04088641666666604
                },
                {
                    "name": "D5",
                    "midi": 74,
                    "time": 47.10115200000005,
                    "velocity": 0.5196850393700787,
                    "duration": 0.49063699999999955
                },
                {
                    "name": "G4",
                    "midi": 67,
                    "time": 48.08242600000005,
                    "velocity": 0.4566929133858268,
                    "duration": 0.12265924999999811
                },
                {
                    "name": "F4",
                    "midi": 65,
                    "time": 48.205085250000046,
                    "velocity": 0.4566929133858268,
                    "duration": 0.12265924999999811
                },
                {
                    "name": "E4",
                    "midi": 64,
                    "time": 48.327744500000044,
                    "velocity": 0.48031496062992124,
                    "duration": 0.12265924999999811
                },
                {
                    "name": "D4",
                    "midi": 62,
                    "time": 48.45040375000004,
                    "velocity": 0.5118110236220472,
                    "duration": 0.12265924999999811
                },
                {
                    "name": "D5",
                    "midi": 74,
                    "time": 48.57306300000004,
                    "velocity": 0.5984251968503937,
                    "duration": 0.858614750000001
                },
                {
                    "name": "A4",
                    "midi": 69,
                    "time": 49.43167775000004,
                    "velocity": 0.4645669291338583,
                    "duration": 0.12265924999999811
                },
                {
                    "name": "F5",
                    "midi": 77,
                    "time": 49.55433700000004,
                    "velocity": 0.5118110236220472,
                    "duration": 0.36797775000000144
                },
                {
                    "name": "A4",
                    "midi": 69,
                    "time": 49.92231475000004,
                    "velocity": 0.4409448818897638,
                    "duration": 0.1124376458333316
                },
                {
                    "name": "A4",
                    "midi": 69,
                    "time": 50.04497400000004,
                    "velocity": 0.49606299212598426,
                    "duration": 0.36797775000000144
                },
                {
                    "name": "G#4",
                    "midi": 68,
                    "time": 50.41295175000004,
                    "velocity": 0.4251968503937008,
                    "duration": 0.12265924999999811
                },
                {
                    "name": "G4",
                    "midi": 67,
                    "time": 50.53561100000004,
                    "velocity": 0.5039370078740157,
                    "duration": 0.858614750000001
                },
                {
                    "name": "E4",
                    "midi": 64,
                    "time": 51.39422575000004,
                    "velocity": 0.4409448818897638,
                    "duration": 0.12265924999999811
                },
                {
                    "name": "F4",
                    "midi": 65,
                    "time": 51.51688500000004,
                    "velocity": 0.5118110236220472,
                    "duration": 0.36797775000000144
                },
                {
                    "name": "D4",
                    "midi": 62,
                    "time": 51.88486275000004,
                    "velocity": 0.48031496062992124,
                    "duration": 0.12265924999999811
                },
                {
                    "name": "A4",
                    "midi": 69,
                    "time": 52.00752200000004,
                    "velocity": 0.5196850393700787,
                    "duration": 0.36797775000000144
                },
                {
                    "name": "F4",
                    "midi": 65,
                    "time": 52.37549975000004,
                    "velocity": 0.4566929133858268,
                    "duration": 0.12265924999999811
                },
                {
                    "name": "A#4",
                    "midi": 70,
                    "time": 52.49815900000004,
                    "velocity": 0.5118110236220472,
                    "duration": 0.36797775000000144
                },
                {
                    "name": "D4",
                    "midi": 62,
                    "time": 52.86613675000004,
                    "velocity": 0.3858267716535433,
                    "duration": 0.1124376458333316
                },
                {
                    "name": "D4",
                    "midi": 62,
                    "time": 52.988796000000036,
                    "velocity": 0.3937007874015748,
                    "duration": 0.49063699999999955
                },
                {
                    "name": "C#4",
                    "midi": 61,
                    "time": 53.479433000000036,
                    "velocity": 0.3543307086614173,
                    "duration": 0.24531850000000333
                },
                {
                    "name": "A#4",
                    "midi": 70,
                    "time": 53.97007000000004,
                    "velocity": 0.4566929133858268,
                    "duration": 0.12265924999999811
                },
                {
                    "name": "A4",
                    "midi": 69,
                    "time": 54.09272925000004,
                    "velocity": 0.4566929133858268,
                    "duration": 0.12265924999999811
                },
                {
                    "name": "G4",
                    "midi": 67,
                    "time": 54.21538850000004,
                    "velocity": 0.48031496062992124,
                    "duration": 0.12265924999999811
                },
                {
                    "name": "F4",
                    "midi": 65,
                    "time": 54.33804775000004,
                    "velocity": 0.5118110236220472,
                    "duration": 0.12265924999999811
                },
                {
                    "name": "C5",
                    "midi": 72,
                    "time": 54.460707000000035,
                    "velocity": 0.5984251968503937,
                    "duration": 0.36797775000000144
                },
                {
                    "name": "A4",
                    "midi": 69,
                    "time": 54.828684750000036,
                    "velocity": 0.49606299212598426,
                    "duration": 0.12265924999999811
                },
                {
                    "name": "F5",
                    "midi": 77,
                    "time": 54.951344000000034,
                    "velocity": 0.5748031496062992,
                    "duration": 0.36797775000000144
                },
                {
                    "name": "C5",
                    "midi": 72,
                    "time": 55.319321750000036,
                    "velocity": 0.5039370078740157,
                    "duration": 0.12265924999999811
                },
                {
                    "name": "A5",
                    "midi": 81,
                    "time": 55.441981000000034,
                    "velocity": 0.5826771653543307,
                    "duration": 0.36797775000000144
                },
                {
                    "name": "F5",
                    "midi": 77,
                    "time": 55.809958750000035,
                    "velocity": 0.5354330708661418,
                    "duration": 0.1124376458333316
                },
                {
                    "name": "A#5",
                    "midi": 82,
                    "time": 55.93261800000003,
                    "velocity": 0.6299212598425197,
                    "duration": 0.36797775000000144
                },
                {
                    "name": "F5",
                    "midi": 77,
                    "time": 56.300595750000035,
                    "velocity": 0.5511811023622047,
                    "duration": 0.12265924999999811
                },
                {
                    "name": "D6",
                    "midi": 86,
                    "time": 56.42325500000003,
                    "velocity": 0.6456692913385826,
                    "duration": 0.36797775000000144
                },
                {
                    "name": "F5",
                    "midi": 77,
                    "time": 56.791232750000034,
                    "velocity": 0.5354330708661418,
                    "duration": 0.12265924999999811
                },
                {
                    "name": "E6",
                    "midi": 88,
                    "time": 56.91389200000003,
                    "velocity": 0.6377952755905512,
                    "duration": 0.36797775000000144
                },
                {
                    "name": "G5",
                    "midi": 79,
                    "time": 57.281869750000034,
                    "velocity": 0.5354330708661418,
                    "duration": 0.12265924999999811
                },
                {
                    "name": "F6",
                    "midi": 89,
                    "time": 57.40452900000003,
                    "velocity": 0.6299212598425197,
                    "duration": 0.36797775000000144
                },
                {
                    "name": "F5",
                    "midi": 77,
                    "time": 57.77250675000003,
                    "velocity": 0.48031496062992124,
                    "duration": 0.12265924999999811
                },
                {
                    "name": "A5",
                    "midi": 81,
                    "time": 57.89516600000003,
                    "velocity": 0.5196850393700787,
                    "duration": 0.49063699999999955
                },
                {
                    "name": "G5",
                    "midi": 79,
                    "time": 58.38580300000003,
                    "velocity": 0.3700787401574803,
                    "duration": 0.061329624999999055
                },
                {
                    "name": "A5",
                    "midi": 81,
                    "time": 58.44713262500003,
                    "velocity": 0.3464566929133858,
                    "duration": 0.061329624999999055
                },
                {
                    "name": "G5",
                    "midi": 79,
                    "time": 58.50846225000003,
                    "velocity": 0.3700787401574803,
                    "duration": 0.061329624999999055
                },
                {
                    "name": "A5",
                    "midi": 81,
                    "time": 58.56979187500003,
                    "velocity": 0.3543307086614173,
                    "duration": 0.061329624999999055
                },
                {
                    "name": "G5",
                    "midi": 79,
                    "time": 58.63112150000003,
                    "velocity": 0.3700787401574803,
                    "duration": 0.061329624999999055
                },
                {
                    "name": "A5",
                    "midi": 81,
                    "time": 58.69245112500003,
                    "velocity": 0.33858267716535434,
                    "duration": 0.061329624999999055
                },
                {
                    "name": "G5",
                    "midi": 79,
                    "time": 58.753780750000026,
                    "velocity": 0.33858267716535434,
                    "duration": 0.04088641666666604
                },
                {
                    "name": "F5",
                    "midi": 77,
                    "time": 58.79466716666669,
                    "velocity": 0.33858267716535434,
                    "duration": 0.04088641666666604
                },
                {
                    "name": "G5",
                    "midi": 79,
                    "time": 58.836575743750025,
                    "velocity": 0.33858267716535434,
                    "duration": 0.04088641666666604
                },
                {
                    "name": "F5",
                    "midi": 77,
                    "time": 58.876440000000024,
                    "velocity": 0.5196850393700787,
                    "duration": 0.858614750000001
                },
                {
                    "name": "G4",
                    "midi": 67,
                    "time": 59.85771400000002,
                    "velocity": 0.4566929133858268,
                    "duration": 0.12265924999999811
                },
                {
                    "name": "F4",
                    "midi": 65,
                    "time": 59.98037325000002,
                    "velocity": 0.4566929133858268,
                    "duration": 0.12265924999999811
                },
                {
                    "name": "E4",
                    "midi": 64,
                    "time": 60.10303250000002,
                    "velocity": 0.48031496062992124,
                    "duration": 0.12265924999999811
                },
                {
                    "name": "D4",
                    "midi": 62,
                    "time": 60.22569175000002,
                    "velocity": 0.5118110236220472,
                    "duration": 0.12265924999999811
                },
                {
                    "name": "D5",
                    "midi": 74,
                    "time": 60.348351000000015,
                    "velocity": 0.5984251968503937,
                    "duration": 0.858614750000001
                },
                {
                    "name": "A4",
                    "midi": 69,
                    "time": 61.206965750000016,
                    "velocity": 0.4645669291338583,
                    "duration": 0.12265924999999811
                },
                {
                    "name": "F5",
                    "midi": 77,
                    "time": 61.329625000000014,
                    "velocity": 0.5118110236220472,
                    "duration": 0.36797775000000144
                },
                {
                    "name": "A4",
                    "midi": 69,
                    "time": 61.697602750000016,
                    "velocity": 0.4409448818897638,
                    "duration": 0.1124376458333316
                },
                {
                    "name": "A4",
                    "midi": 69,
                    "time": 61.820262000000014,
                    "velocity": 0.49606299212598426,
                    "duration": 0.36797775000000144
                },
                {
                    "name": "G#4",
                    "midi": 68,
                    "time": 62.188239750000015,
                    "velocity": 0.4251968503937008,
                    "duration": 0.12265924999999811
                },
                {
                    "name": "G4",
                    "midi": 67,
                    "time": 62.31089900000001,
                    "velocity": 0.5039370078740157,
                    "duration": 0.858614750000001
                },
                {
                    "name": "E4",
                    "midi": 64,
                    "time": 63.169513750000014,
                    "velocity": 0.4409448818897638,
                    "duration": 0.12265924999999811
                },
                {
                    "name": "F4",
                    "midi": 65,
                    "time": 63.29217300000001,
                    "velocity": 0.5118110236220472,
                    "duration": 0.36797775000000144
                },
                {
                    "name": "D4",
                    "midi": 62,
                    "time": 63.660150750000014,
                    "velocity": 0.48031496062992124,
                    "duration": 0.12265924999999811
                },
                {
                    "name": "A4",
                    "midi": 69,
                    "time": 63.78281000000001,
                    "velocity": 0.5196850393700787,
                    "duration": 0.36797774999999433
                },
                {
                    "name": "F4",
                    "midi": 65,
                    "time": 64.15078775,
                    "velocity": 0.4566929133858268,
                    "duration": 0.12265924999999811
                },
                {
                    "name": "A#4",
                    "midi": 70,
                    "time": 64.273447,
                    "velocity": 0.5118110236220472,
                    "duration": 0.36797774999999433
                },
                {
                    "name": "D4",
                    "midi": 62,
                    "time": 64.64142475,
                    "velocity": 0.3858267716535433,
                    "duration": 0.1124376458333387
                },
                {
                    "name": "D4",
                    "midi": 62,
                    "time": 64.76408400000001,
                    "velocity": 0.3937007874015748,
                    "duration": 0.49063700000000665
                },
                {
                    "name": "C#4",
                    "midi": 61,
                    "time": 65.25472100000002,
                    "velocity": 0.3543307086614173,
                    "duration": 0.24531849999999622
                },
                {
                    "name": "A#4",
                    "midi": 70,
                    "time": 65.74535800000001,
                    "velocity": 0.4566929133858268,
                    "duration": 0.12265924999999811
                },
                {
                    "name": "A4",
                    "midi": 69,
                    "time": 65.86801725000001,
                    "velocity": 0.4566929133858268,
                    "duration": 0.12265924999999811
                },
                {
                    "name": "G4",
                    "midi": 67,
                    "time": 65.9906765,
                    "velocity": 0.48031496062992124,
                    "duration": 0.12265924999999811
                },
                {
                    "name": "F4",
                    "midi": 65,
                    "time": 66.11333575,
                    "velocity": 0.5118110236220472,
                    "duration": 0.12265924999999811
                },
                {
                    "name": "C5",
                    "midi": 72,
                    "time": 66.235995,
                    "velocity": 0.5984251968503937,
                    "duration": 0.36797774999999433
                },
                {
                    "name": "A4",
                    "midi": 69,
                    "time": 66.60397275,
                    "velocity": 0.49606299212598426,
                    "duration": 0.12265924999999811
                },
                {
                    "name": "F5",
                    "midi": 77,
                    "time": 66.726632,
                    "velocity": 0.5748031496062992,
                    "duration": 0.36797774999999433
                },
                {
                    "name": "C5",
                    "midi": 72,
                    "time": 67.09460974999999,
                    "velocity": 0.5039370078740157,
                    "duration": 0.12265924999999811
                },
                {
                    "name": "A5",
                    "midi": 81,
                    "time": 67.21726899999999,
                    "velocity": 0.5826771653543307,
                    "duration": 0.36797774999999433
                },
                {
                    "name": "F5",
                    "midi": 77,
                    "time": 67.58524674999998,
                    "velocity": 0.5354330708661418,
                    "duration": 0.1124376458333387
                },
                {
                    "name": "A#5",
                    "midi": 82,
                    "time": 67.707906,
                    "velocity": 0.6299212598425197,
                    "duration": 0.36797774999999433
                },
                {
                    "name": "F5",
                    "midi": 77,
                    "time": 68.07588374999999,
                    "velocity": 0.5511811023622047,
                    "duration": 0.12265924999999811
                },
                {
                    "name": "D6",
                    "midi": 86,
                    "time": 68.19854299999999,
                    "velocity": 0.6456692913385826,
                    "duration": 0.36797774999999433
                },
                {
                    "name": "F5",
                    "midi": 77,
                    "time": 68.56652074999998,
                    "velocity": 0.5354330708661418,
                    "duration": 0.12265924999999811
                },
                {
                    "name": "E6",
                    "midi": 88,
                    "time": 68.68917999999998,
                    "velocity": 0.6377952755905512,
                    "duration": 0.36797774999999433
                },
                {
                    "name": "G5",
                    "midi": 79,
                    "time": 69.05715774999997,
                    "velocity": 0.5354330708661418,
                    "duration": 0.12265924999999811
                },
                {
                    "name": "F6",
                    "midi": 89,
                    "time": 69.17981699999997,
                    "velocity": 0.6299212598425197,
                    "duration": 0.36797774999999433
                },
                {
                    "name": "F5",
                    "midi": 77,
                    "time": 69.54779474999997,
                    "velocity": 0.48031496062992124,
                    "duration": 0.12265924999999811
                },
                {
                    "name": "A5",
                    "midi": 81,
                    "time": 69.67045399999996,
                    "velocity": 0.5196850393700787,
                    "duration": 0.49063700000000665
                },
                {
                    "name": "G5",
                    "midi": 79,
                    "time": 70.16109099999997,
                    "velocity": 0.3700787401574803,
                    "duration": 0.061329624999999055
                },
                {
                    "name": "A5",
                    "midi": 81,
                    "time": 70.22242062499997,
                    "velocity": 0.3464566929133858,
                    "duration": 0.061329624999999055
                },
                {
                    "name": "G5",
                    "midi": 79,
                    "time": 70.28375024999997,
                    "velocity": 0.3700787401574803,
                    "duration": 0.061329624999999055
                },
                {
                    "name": "A5",
                    "midi": 81,
                    "time": 70.34507987499997,
                    "velocity": 0.3543307086614173,
                    "duration": 0.061329624999999055
                },
                {
                    "name": "G5",
                    "midi": 79,
                    "time": 70.40640949999997,
                    "velocity": 0.3700787401574803,
                    "duration": 0.061329624999999055
                },
                {
                    "name": "A5",
                    "midi": 81,
                    "time": 70.46773912499997,
                    "velocity": 0.33858267716535434,
                    "duration": 0.061329624999999055
                },
                {
                    "name": "G5",
                    "midi": 79,
                    "time": 70.52906874999996,
                    "velocity": 0.33858267716535434,
                    "duration": 0.04088641666666604
                },
                {
                    "name": "F5",
                    "midi": 77,
                    "time": 70.56995516666663,
                    "velocity": 0.33858267716535434,
                    "duration": 0.04088641666666604
                },
                {
                    "name": "G5",
                    "midi": 79,
                    "time": 70.61186374374996,
                    "velocity": 0.33858267716535434,
                    "duration": 0.04088641666666604
                },
                {
                    "name": "F5",
                    "midi": 77,
                    "time": 70.65172799999996,
                    "velocity": 0.5196850393700787,
                    "duration": 0.858614750000001
                },
                {
                    "name": "A#5",
                    "midi": 82,
                    "time": 71.63300199999996,
                    "velocity": 0.3858267716535433,
                    "duration": 0.12265924999999811
                },
                {
                    "name": "A5",
                    "midi": 81,
                    "time": 71.75566124999996,
                    "velocity": 0.3858267716535433,
                    "duration": 0.12265924999999811
                },
                {
                    "name": "G5",
                    "midi": 79,
                    "time": 71.87832049999996,
                    "velocity": 0.4015748031496063,
                    "duration": 0.12265924999999811
                },
                {
                    "name": "F5",
                    "midi": 77,
                    "time": 72.00097974999996,
                    "velocity": 0.4330708661417323,
                    "duration": 0.12265924999999811
                },
                {
                    "name": "C6",
                    "midi": 84,
                    "time": 72.12363899999995,
                    "velocity": 0.5039370078740157,
                    "duration": 0.858614750000001
                },
                {
                    "name": "D#5",
                    "midi": 75,
                    "time": 72.98225374999996,
                    "velocity": 0.36220472440944884,
                    "duration": 0.12265924999999811
                },
                {
                    "name": "F5",
                    "midi": 77,
                    "time": 73.10491299999995,
                    "velocity": 0.4330708661417323,
                    "duration": 0.36797774999999433
                },
                {
                    "name": "D#5",
                    "midi": 75,
                    "time": 73.47289074999995,
                    "velocity": 0.3700787401574803,
                    "duration": 0.1124376458333387
                },
                {
                    "name": "D5",
                    "midi": 74,
                    "time": 73.59554999999996,
                    "velocity": 0.41732283464566927,
                    "duration": 0.36797774999999433
                },
                {
                    "name": "A5",
                    "midi": 81,
                    "time": 73.96352774999995,
                    "velocity": 0.3543307086614173,
                    "duration": 0.12265924999999811
                },
                {
                    "name": "D6",
                    "midi": 86,
                    "time": 74.08618699999995,
                    "velocity": 0.47244094488188976,
                    "duration": 0.36797774999999433
                },
                {
                    "name": "A5",
                    "midi": 81,
                    "time": 74.45416474999995,
                    "velocity": 0.3700787401574803,
                    "duration": 0.12265924999999811
                },
                {
                    "name": "A#5",
                    "midi": 82,
                    "time": 74.57682399999995,
                    "velocity": 0.4566929133858268,
                    "duration": 0.36797774999999433
                },
                {
                    "name": "G5",
                    "midi": 79,
                    "time": 74.94480174999994,
                    "velocity": 0.3937007874015748,
                    "duration": 0.12265924999999811
                },
                {
                    "name": "C6",
                    "midi": 84,
                    "time": 75.06746099999994,
                    "velocity": 0.47244094488188976,
                    "duration": 0.36797774999999433
                },
                {
                    "name": "G5",
                    "midi": 79,
                    "time": 75.43543874999993,
                    "velocity": 0.4015748031496063,
                    "duration": 0.12265924999999811
                },
                {
                    "name": "A5",
                    "midi": 81,
                    "time": 75.55809799999993,
                    "velocity": 0.4409448818897638,
                    "duration": 0.36797774999999433
                },
                {
                    "name": "F5",
                    "midi": 77,
                    "time": 75.92607574999992,
                    "velocity": 0.3858267716535433,
                    "duration": 0.12265924999999811
                },
                {
                    "name": "A#5",
                    "midi": 82,
                    "time": 76.04873499999992,
                    "velocity": 0.4330708661417323,
                    "duration": 0.24531849999999622
                },
                {
                    "name": "G5",
                    "midi": 79,
                    "time": 76.29405349999992,
                    "velocity": 0.3779527559055118,
                    "duration": 0.12265924999999811
                },
                {
                    "name": "E5",
                    "midi": 76,
                    "time": 76.41671274999992,
                    "velocity": 0.3228346456692913,
                    "duration": 0.1124376458333387
                },
                {
                    "name": "D5",
                    "midi": 74,
                    "time": 76.53937199999993,
                    "velocity": 0.33070866141732286,
                    "duration": 0.49063700000000665
                },
                {
                    "name": "C#5",
                    "midi": 73,
                    "time": 77.03000899999994,
                    "velocity": 0.2992125984251969,
                    "duration": 0.24531849999999622
                },
                {
                    "name": "A4",
                    "midi": 69,
                    "time": 77.52064599999993,
                    "velocity": 0.3700787401574803,
                    "duration": 0.12265924999999811
                },
                {
                    "name": "G4",
                    "midi": 67,
                    "time": 77.64330524999993,
                    "velocity": 0.3858267716535433,
                    "duration": 0.12265924999999811
                },
                {
                    "name": "F4",
                    "midi": 65,
                    "time": 77.76596449999992,
                    "velocity": 0.3937007874015748,
                    "duration": 0.12265924999999811
                },
                {
                    "name": "E4",
                    "midi": 64,
                    "time": 77.88862374999992,
                    "velocity": 0.4094488188976378,
                    "duration": 0.12265924999999811
                },
                {
                    "name": "G5",
                    "midi": 79,
                    "time": 78.01128299999992,
                    "velocity": 0.5039370078740157,
                    "duration": 0.858614750000001
                },
                {
                    "name": "E5",
                    "midi": 76,
                    "time": 78.86989774999992,
                    "velocity": 0.5039370078740157,
                    "duration": 0.12265924999999811
                },
                {
                    "name": "C#6",
                    "midi": 85,
                    "time": 78.99255699999992,
                    "velocity": 0.5826771653543307,
                    "duration": 0.36797774999999433
                },
                {
                    "name": "A#5",
                    "midi": 82,
                    "time": 79.36053474999991,
                    "velocity": 0.5354330708661418,
                    "duration": 0.1124376458333387
                },
                {
                    "name": "D6",
                    "midi": 86,
                    "time": 79.48319399999993,
                    "velocity": 0.6299212598425197,
                    "duration": 0.36797774999999433
                },
                {
                    "name": "A5",
                    "midi": 81,
                    "time": 79.85117174999992,
                    "velocity": 0.5511811023622047,
                    "duration": 0.12265924999999811
                },
                {
                    "name": "E6",
                    "midi": 88,
                    "time": 79.97383099999992,
                    "velocity": 0.6456692913385826,
                    "duration": 0.36797774999999433
                },
                {
                    "name": "A5",
                    "midi": 81,
                    "time": 80.34180874999991,
                    "velocity": 0.5354330708661418,
                    "duration": 0.12265924999999811
                },
                {
                    "name": "F6",
                    "midi": 89,
                    "time": 80.46446799999991,
                    "velocity": 0.6377952755905512,
                    "duration": 0.36797774999999433
                },
                {
                    "name": "D6",
                    "midi": 86,
                    "time": 80.8324457499999,
                    "velocity": 0.5354330708661418,
                    "duration": 0.1124376458333387
                },
                {
                    "name": "C6",
                    "midi": 84,
                    "time": 80.95510499999992,
                    "velocity": 0.6299212598425197,
                    "duration": 0.12265924999999811
                },
                {
                    "name": "A#5",
                    "midi": 82,
                    "time": 81.07776424999992,
                    "velocity": 0.48031496062992124,
                    "duration": 0.12265924999999811
                },
                {
                    "name": "A5",
                    "midi": 81,
                    "time": 81.20042349999991,
                    "velocity": 0.5354330708661418,
                    "duration": 0.12265924999999811
                },
                {
                    "name": "G5",
                    "midi": 79,
                    "time": 81.32308274999991,
                    "velocity": 0.48031496062992124,
                    "duration": 0.12265924999999811
                },
                {
                    "name": "F5",
                    "midi": 77,
                    "time": 81.44574199999991,
                    "velocity": 0.5196850393700787,
                    "duration": 0.49063700000000665
                },
                {
                    "name": "E5",
                    "midi": 76,
                    "time": 81.93637899999992,
                    "velocity": 0.3700787401574803,
                    "duration": 0.061329624999999055
                },
                {
                    "name": "F5",
                    "midi": 77,
                    "time": 81.99770862499992,
                    "velocity": 0.3464566929133858,
                    "duration": 0.061329624999999055
                },
                {
                    "name": "E5",
                    "midi": 76,
                    "time": 82.05903824999992,
                    "velocity": 0.3700787401574803,
                    "duration": 0.061329624999999055
                },
                {
                    "name": "F5",
                    "midi": 77,
                    "time": 82.12036787499991,
                    "velocity": 0.3543307086614173,
                    "duration": 0.061329624999999055
                },
                {
                    "name": "E5",
                    "midi": 76,
                    "time": 82.18169749999991,
                    "velocity": 0.3700787401574803,
                    "duration": 0.061329624999999055
                },
                {
                    "name": "F5",
                    "midi": 77,
                    "time": 82.24302712499991,
                    "velocity": 0.33858267716535434,
                    "duration": 0.061329624999999055
                },
                {
                    "name": "E5",
                    "midi": 76,
                    "time": 82.30435674999991,
                    "velocity": 0.33858267716535434,
                    "duration": 0.04088641666666604
                },
                {
                    "name": "D5",
                    "midi": 74,
                    "time": 82.34524316666658,
                    "velocity": 0.33858267716535434,
                    "duration": 0.04088641666666604
                },
                {
                    "name": "E5",
                    "midi": 76,
                    "time": 82.38715174374991,
                    "velocity": 0.33858267716535434,
                    "duration": 0.04088641666666604
                },
                {
                    "name": "D5",
                    "midi": 74,
                    "time": 82.42701599999991,
                    "velocity": 0.5196850393700787,
                    "duration": 0.858614750000001
                },
                {
                    "name": "A#5",
                    "midi": 82,
                    "time": 83.40828999999991,
                    "velocity": 0.3858267716535433,
                    "duration": 0.12265924999999811
                },
                {
                    "name": "A5",
                    "midi": 81,
                    "time": 83.5309492499999,
                    "velocity": 0.3858267716535433,
                    "duration": 0.12265924999999811
                },
                {
                    "name": "G5",
                    "midi": 79,
                    "time": 83.6536084999999,
                    "velocity": 0.4015748031496063,
                    "duration": 0.12265924999999811
                },
                {
                    "name": "F5",
                    "midi": 77,
                    "time": 83.7762677499999,
                    "velocity": 0.4330708661417323,
                    "duration": 0.12265924999999811
                },
                {
                    "name": "C6",
                    "midi": 84,
                    "time": 83.8989269999999,
                    "velocity": 0.5039370078740157,
                    "duration": 0.858614750000001
                },
                {
                    "name": "D#5",
                    "midi": 75,
                    "time": 84.7575417499999,
                    "velocity": 0.36220472440944884,
                    "duration": 0.12265924999999811
                },
                {
                    "name": "F5",
                    "midi": 77,
                    "time": 84.8802009999999,
                    "velocity": 0.4330708661417323,
                    "duration": 0.36797774999999433
                },
                {
                    "name": "D#5",
                    "midi": 75,
                    "time": 85.2481787499999,
                    "velocity": 0.3700787401574803,
                    "duration": 0.1124376458333387
                },
                {
                    "name": "D5",
                    "midi": 74,
                    "time": 85.3708379999999,
                    "velocity": 0.41732283464566927,
                    "duration": 0.36797774999999433
                },
                {
                    "name": "A5",
                    "midi": 81,
                    "time": 85.7388157499999,
                    "velocity": 0.3543307086614173,
                    "duration": 0.12265924999999811
                },
                {
                    "name": "D6",
                    "midi": 86,
                    "time": 85.8614749999999,
                    "velocity": 0.47244094488188976,
                    "duration": 0.36797774999999433
                },
                {
                    "name": "A5",
                    "midi": 81,
                    "time": 86.2294527499999,
                    "velocity": 0.3700787401574803,
                    "duration": 0.12265924999999811
                },
                {
                    "name": "A#5",
                    "midi": 82,
                    "time": 86.35211199999989,
                    "velocity": 0.4566929133858268,
                    "duration": 0.36797774999999433
                },
                {
                    "name": "G5",
                    "midi": 79,
                    "time": 86.72008974999989,
                    "velocity": 0.3937007874015748,
                    "duration": 0.12265924999999811
                },
                {
                    "name": "C6",
                    "midi": 84,
                    "time": 86.84274899999988,
                    "velocity": 0.47244094488188976,
                    "duration": 0.36797774999999433
                },
                {
                    "name": "G5",
                    "midi": 79,
                    "time": 87.21072674999988,
                    "velocity": 0.4015748031496063,
                    "duration": 0.12265924999999811
                },
                {
                    "name": "A5",
                    "midi": 81,
                    "time": 87.33338599999988,
                    "velocity": 0.4409448818897638,
                    "duration": 0.36797774999999433
                },
                {
                    "name": "F5",
                    "midi": 77,
                    "time": 87.70136374999987,
                    "velocity": 0.3858267716535433,
                    "duration": 0.12265924999999811
                },
                {
                    "name": "A#5",
                    "midi": 82,
                    "time": 87.82402299999987,
                    "velocity": 0.4330708661417323,
                    "duration": 0.24531849999999622
                },
                {
                    "name": "G5",
                    "midi": 79,
                    "time": 88.06934149999987,
                    "velocity": 0.3779527559055118,
                    "duration": 0.12265924999999811
                },
                {
                    "name": "E5",
                    "midi": 76,
                    "time": 88.19200074999986,
                    "velocity": 0.3228346456692913,
                    "duration": 0.1124376458333387
                },
                {
                    "name": "D5",
                    "midi": 74,
                    "time": 88.31465999999988,
                    "velocity": 0.33070866141732286,
                    "duration": 0.49063700000000665
                },
                {
                    "name": "C#5",
                    "midi": 73,
                    "time": 88.80529699999988,
                    "velocity": 0.2992125984251969,
                    "duration": 0.24531849999999622
                },
                {
                    "name": "A4",
                    "midi": 69,
                    "time": 89.29593399999987,
                    "velocity": 0.3700787401574803,
                    "duration": 0.12265924999999811
                },
                {
                    "name": "G4",
                    "midi": 67,
                    "time": 89.41859324999987,
                    "velocity": 0.3858267716535433,
                    "duration": 0.12265924999999811
                },
                {
                    "name": "F4",
                    "midi": 65,
                    "time": 89.54125249999987,
                    "velocity": 0.3937007874015748,
                    "duration": 0.12265924999999811
                },
                {
                    "name": "E4",
                    "midi": 64,
                    "time": 89.66391174999987,
                    "velocity": 0.4094488188976378,
                    "duration": 0.12265924999999811
                },
                {
                    "name": "G5",
                    "midi": 79,
                    "time": 89.78657099999987,
                    "velocity": 0.5039370078740157,
                    "duration": 0.858614750000001
                },
                {
                    "name": "E5",
                    "midi": 76,
                    "time": 90.64518574999987,
                    "velocity": 0.5039370078740157,
                    "duration": 0.12265924999999811
                },
                {
                    "name": "C#6",
                    "midi": 85,
                    "time": 90.76784499999987,
                    "velocity": 0.5826771653543307,
                    "duration": 0.36797774999999433
                },
                {
                    "name": "A#5",
                    "midi": 82,
                    "time": 91.13582274999986,
                    "velocity": 0.5354330708661418,
                    "duration": 0.1124376458333387
                },
                {
                    "name": "D6",
                    "midi": 86,
                    "time": 91.25848199999987,
                    "velocity": 0.6299212598425197,
                    "duration": 0.36797774999999433
                },
                {
                    "name": "A5",
                    "midi": 81,
                    "time": 91.62645974999987,
                    "velocity": 0.5511811023622047,
                    "duration": 0.12265924999999811
                },
                {
                    "name": "E6",
                    "midi": 88,
                    "time": 91.74911899999987,
                    "velocity": 0.6456692913385826,
                    "duration": 0.36797774999999433
                },
                {
                    "name": "A5",
                    "midi": 81,
                    "time": 92.11709674999986,
                    "velocity": 0.5354330708661418,
                    "duration": 0.12265924999999811
                },
                {
                    "name": "F6",
                    "midi": 89,
                    "time": 92.23975599999986,
                    "velocity": 0.6377952755905512,
                    "duration": 0.36797774999999433
                },
                {
                    "name": "D6",
                    "midi": 86,
                    "time": 92.60773374999985,
                    "velocity": 0.5354330708661418,
                    "duration": 0.1124376458333387
                },
                {
                    "name": "C6",
                    "midi": 84,
                    "time": 92.73039299999986,
                    "velocity": 0.6299212598425197,
                    "duration": 0.12265924999999811
                },
                {
                    "name": "A#5",
                    "midi": 82,
                    "time": 92.85305224999986,
                    "velocity": 0.48031496062992124,
                    "duration": 0.12265924999999811
                },
                {
                    "name": "A5",
                    "midi": 81,
                    "time": 92.97571149999986,
                    "velocity": 0.5354330708661418,
                    "duration": 0.12265924999999811
                },
                {
                    "name": "G5",
                    "midi": 79,
                    "time": 93.09837074999986,
                    "velocity": 0.48031496062992124,
                    "duration": 0.12265924999999811
                },
                {
                    "name": "F5",
                    "midi": 77,
                    "time": 93.22102999999986,
                    "velocity": 0.5196850393700787,
                    "duration": 0.49063700000000665
                },
                {
                    "name": "E5",
                    "midi": 76,
                    "time": 93.71166699999986,
                    "velocity": 0.3700787401574803,
                    "duration": 0.061329624999999055
                },
                {
                    "name": "F5",
                    "midi": 77,
                    "time": 93.77299662499986,
                    "velocity": 0.3464566929133858,
                    "duration": 0.061329624999999055
                },
                {
                    "name": "E5",
                    "midi": 76,
                    "time": 93.83432624999986,
                    "velocity": 0.3700787401574803,
                    "duration": 0.061329624999999055
                },
                {
                    "name": "F5",
                    "midi": 77,
                    "time": 93.89565587499986,
                    "velocity": 0.3543307086614173,
                    "duration": 0.061329624999999055
                },
                {
                    "name": "E5",
                    "midi": 76,
                    "time": 93.95698549999986,
                    "velocity": 0.3700787401574803,
                    "duration": 0.061329624999999055
                },
                {
                    "name": "F5",
                    "midi": 77,
                    "time": 94.01831512499986,
                    "velocity": 0.33858267716535434,
                    "duration": 0.061329624999999055
                },
                {
                    "name": "E5",
                    "midi": 76,
                    "time": 94.07964474999986,
                    "velocity": 0.33858267716535434,
                    "duration": 0.04088641666666604
                },
                {
                    "name": "D5",
                    "midi": 74,
                    "time": 94.12053116666652,
                    "velocity": 0.33858267716535434,
                    "duration": 0.04088641666666604
                },
                {
                    "name": "E5",
                    "midi": 76,
                    "time": 94.16243974374986,
                    "velocity": 0.33858267716535434,
                    "duration": 0.04088641666666604
                },
                {
                    "name": "D5",
                    "midi": 74,
                    "time": 94.20230399999986,
                    "velocity": 0.5196850393700787,
                    "duration": 0.858614750000001
                },
                {
                    "name": "G4",
                    "midi": 67,
                    "time": 95.18357799999986,
                    "velocity": 0.3937007874015748,
                    "duration": 0.12265924999999811
                },
                {
                    "name": "F#4",
                    "midi": 66,
                    "time": 95.30623724999985,
                    "velocity": 0.3543307086614173,
                    "duration": 0.12265924999999811
                },
                {
                    "name": "E4",
                    "midi": 64,
                    "time": 95.42889649999985,
                    "velocity": 0.3543307086614173,
                    "duration": 0.12265924999999811
                },
                {
                    "name": "D4",
                    "midi": 62,
                    "time": 95.55155574999985,
                    "velocity": 0.3543307086614173,
                    "duration": 0.12265924999999811
                },
                {
                    "name": "D5",
                    "midi": 74,
                    "time": 95.67421499999985,
                    "velocity": 0.3937007874015748,
                    "duration": 0.061329624999999055
                },
                {
                    "name": "D5",
                    "midi": 74,
                    "time": 95.91953349999984,
                    "velocity": 0.3937007874015748,
                    "duration": 0.061329624999999055
                },
                {
                    "name": "D5",
                    "midi": 74,
                    "time": 96.41017049999984,
                    "velocity": 0.3700787401574803,
                    "duration": 0.12265924999999811
                },
                {
                    "name": "E5",
                    "midi": 76,
                    "time": 96.65548899999983,
                    "velocity": 0.41732283464566927,
                    "duration": 0.12265924999999811
                },
                {
                    "name": "D5",
                    "midi": 74,
                    "time": 96.77814824999983,
                    "velocity": 0.3779527559055118,
                    "duration": 0.12265924999999811
                },
                {
                    "name": "C#5",
                    "midi": 73,
                    "time": 96.90080749999983,
                    "velocity": 0.3779527559055118,
                    "duration": 0.12265924999999811
                },
                {
                    "name": "D5",
                    "midi": 74,
                    "time": 97.02346674999983,
                    "velocity": 0.3779527559055118,
                    "duration": 0.12265924999999811
                },
                {
                    "name": "C#5",
                    "midi": 73,
                    "time": 97.14612599999982,
                    "velocity": 0.4015748031496063,
                    "duration": 0.061329624999999055
                },
                {
                    "name": "G5",
                    "midi": 79,
                    "time": 97.39144449999982,
                    "velocity": 0.4094488188976378,
                    "duration": 0.061329624999999055
                },
                {
                    "name": "G5",
                    "midi": 79,
                    "time": 97.88208149999981,
                    "velocity": 0.4409448818897638,
                    "duration": 0.24531849999999622
                },
                {
                    "name": "A5",
                    "midi": 81,
                    "time": 98.12739999999981,
                    "velocity": 0.4015748031496063,
                    "duration": 0.12265924999999811
                },
                {
                    "name": "G5",
                    "midi": 79,
                    "time": 98.25005924999981,
                    "velocity": 0.4015748031496063,
                    "duration": 0.12265924999999811
                },
                {
                    "name": "F#5",
                    "midi": 78,
                    "time": 98.3727184999998,
                    "velocity": 0.4015748031496063,
                    "duration": 0.12265924999999811
                },
                {
                    "name": "E5",
                    "midi": 76,
                    "time": 98.4953777499998,
                    "velocity": 0.4015748031496063,
                    "duration": 0.12265924999999811
                },
                {
                    "name": "G5",
                    "midi": 79,
                    "time": 98.6180369999998,
                    "velocity": 0.4566929133858268,
                    "duration": 0.12265924999999811
                },
                {
                    "name": "F#5",
                    "midi": 78,
                    "time": 98.7406962499998,
                    "velocity": 0.41732283464566927,
                    "duration": 0.12265924999999811
                },
                {
                    "name": "E5",
                    "midi": 76,
                    "time": 98.8633554999998,
                    "velocity": 0.41732283464566927,
                    "duration": 0.12265924999999811
                },
                {
                    "name": "D5",
                    "midi": 74,
                    "time": 98.9860147499998,
                    "velocity": 0.3858267716535433,
                    "duration": 0.12265924999999811
                },
                {
                    "name": "B5",
                    "midi": 83,
                    "time": 99.1086739999998,
                    "velocity": 0.4881889763779528,
                    "duration": 0.12265924999999811
                },
                {
                    "name": "A5",
                    "midi": 81,
                    "time": 99.23133324999979,
                    "velocity": 0.4409448818897638,
                    "duration": 0.12265924999999811
                },
                {
                    "name": "G5",
                    "midi": 79,
                    "time": 99.35399249999979,
                    "velocity": 0.4409448818897638,
                    "duration": 0.12265924999999811
                },
                {
                    "name": "F#5",
                    "midi": 78,
                    "time": 99.47665174999979,
                    "velocity": 0.4251968503937008,
                    "duration": 0.12265924999999811
                },
                {
                    "name": "B5",
                    "midi": 83,
                    "time": 99.59931099999979,
                    "velocity": 0.5118110236220472,
                    "duration": 0.12265924999999811
                },
                {
                    "name": "C#6",
                    "midi": 85,
                    "time": 99.72197024999979,
                    "velocity": 0.3858267716535433,
                    "duration": 0.12265924999999811
                },
                {
                    "name": "D6",
                    "midi": 86,
                    "time": 99.84462949999978,
                    "velocity": 0.36220472440944884,
                    "duration": 0.12265924999999811
                },
                {
                    "name": "G5",
                    "midi": 79,
                    "time": 99.96728874999978,
                    "velocity": 0.33858267716535434,
                    "duration": 0.12265924999999811
                },
                {
                    "name": "D5",
                    "midi": 74,
                    "time": 100.08994799999978,
                    "velocity": 0.4015748031496063,
                    "duration": 0.49063700000000665
                },
                {
                    "name": "F#5",
                    "midi": 78,
                    "time": 100.08994799999978,
                    "velocity": 0.4015748031496063,
                    "duration": 0.49063700000000665
                },
                {
                    "name": "C#5",
                    "midi": 73,
                    "time": 100.58058499999979,
                    "velocity": 0.30708661417322836,
                    "duration": 0.36797774999999433
                },
                {
                    "name": "E5",
                    "midi": 76,
                    "time": 100.58058499999979,
                    "velocity": 0.30708661417322836,
                    "duration": 0.36797774999999433
                },
                {
                    "name": "G4",
                    "midi": 67,
                    "time": 101.07122199999978,
                    "velocity": 0.3937007874015748,
                    "duration": 0.12265924999999811
                },
                {
                    "name": "F#4",
                    "midi": 66,
                    "time": 101.19388124999978,
                    "velocity": 0.3543307086614173,
                    "duration": 0.12265924999999811
                },
                {
                    "name": "E4",
                    "midi": 64,
                    "time": 101.31654049999977,
                    "velocity": 0.3543307086614173,
                    "duration": 0.12265924999999811
                },
                {
                    "name": "D4",
                    "midi": 62,
                    "time": 101.43919974999977,
                    "velocity": 0.3543307086614173,
                    "duration": 0.12265924999999811
                },
                {
                    "name": "D5",
                    "midi": 74,
                    "time": 101.56185899999977,
                    "velocity": 0.3937007874015748,
                    "duration": 0.061329624999999055
                },
                {
                    "name": "D5",
                    "midi": 74,
                    "time": 101.80717749999977,
                    "velocity": 0.3937007874015748,
                    "duration": 0.061329624999999055
                },
                {
                    "name": "D5",
                    "midi": 74,
                    "time": 102.29781449999976,
                    "velocity": 0.3700787401574803,
                    "duration": 0.12265924999999811
                },
                {
                    "name": "E5",
                    "midi": 76,
                    "time": 102.54313299999976,
                    "velocity": 0.3858267716535433,
                    "duration": 0.12265924999999811
                },
                {
                    "name": "D5",
                    "midi": 74,
                    "time": 102.66579224999975,
                    "velocity": 0.33858267716535434,
                    "duration": 0.12265924999999811
                },
                {
                    "name": "C#5",
                    "midi": 73,
                    "time": 102.78845149999975,
                    "velocity": 0.33858267716535434,
                    "duration": 0.12265924999999811
                },
                {
                    "name": "D5",
                    "midi": 74,
                    "time": 102.91111074999975,
                    "velocity": 0.33858267716535434,
                    "duration": 0.12265924999999811
                },
                {
                    "name": "C#5",
                    "midi": 73,
                    "time": 103.03376999999975,
                    "velocity": 0.4015748031496063,
                    "duration": 0.061329624999999055
                },
                {
                    "name": "G5",
                    "midi": 79,
                    "time": 103.27908849999974,
                    "velocity": 0.4094488188976378,
                    "duration": 0.061329624999999055
                },
                {
                    "name": "A5",
                    "midi": 81,
                    "time": 103.52440699999974,
                    "velocity": 0.4409448818897638,
                    "duration": 0.12265924999999811
                },
                {
                    "name": "G5",
                    "midi": 79,
                    "time": 103.64706624999974,
                    "velocity": 0.4015748031496063,
                    "duration": 0.12265924999999811
                },
                {
                    "name": "F#5",
                    "midi": 78,
                    "time": 103.76972549999974,
                    "velocity": 0.4015748031496063,
                    "duration": 0.12265924999999811
                },
                {
                    "name": "E5",
                    "midi": 76,
                    "time": 103.89238474999974,
                    "velocity": 0.3779527559055118,
                    "duration": 0.12265924999999811
                },
                {
                    "name": "G5",
                    "midi": 79,
                    "time": 104.01504399999973,
                    "velocity": 0.4566929133858268,
                    "duration": 0.12265924999999811
                },
                {
                    "name": "F#5",
                    "midi": 78,
                    "time": 104.13770324999973,
                    "velocity": 0.4251968503937008,
                    "duration": 0.12265924999999811
                },
                {
                    "name": "E5",
                    "midi": 76,
                    "time": 104.26036249999973,
                    "velocity": 0.41732283464566927,
                    "duration": 0.12265924999999811
                },
                {
                    "name": "D5",
                    "midi": 74,
                    "time": 104.38302174999973,
                    "velocity": 0.41732283464566927,
                    "duration": 0.12265924999999811
                },
                {
                    "name": "B5",
                    "midi": 83,
                    "time": 104.50568099999973,
                    "velocity": 0.5433070866141733,
                    "duration": 0.12265924999999811
                },
                {
                    "name": "C#6",
                    "midi": 85,
                    "time": 104.62834024999972,
                    "velocity": 0.4409448818897638,
                    "duration": 0.12265924999999811
                },
                {
                    "name": "D6",
                    "midi": 86,
                    "time": 104.75099949999972,
                    "velocity": 0.41732283464566927,
                    "duration": 0.12265924999999811
                },
                {
                    "name": "G5",
                    "midi": 79,
                    "time": 104.87365874999972,
                    "velocity": 0.4409448818897638,
                    "duration": 0.12265924999999811
                },
                {
                    "name": "F#5",
                    "midi": 78,
                    "time": 104.99631799999972,
                    "velocity": 0.48031496062992124,
                    "duration": 0.12265924999999811
                },
                {
                    "name": "G5",
                    "midi": 79,
                    "time": 105.11897724999972,
                    "velocity": 0.4015748031496063,
                    "duration": 0.12265924999999811
                },
                {
                    "name": "A5",
                    "midi": 81,
                    "time": 105.24163649999971,
                    "velocity": 0.4015748031496063,
                    "duration": 0.12265924999999811
                },
                {
                    "name": "D5",
                    "midi": 74,
                    "time": 105.36429574999971,
                    "velocity": 0.4015748031496063,
                    "duration": 0.12265924999999811
                },
                {
                    "name": "E5",
                    "midi": 76,
                    "time": 105.48695499999971,
                    "velocity": 0.4645669291338583,
                    "duration": 0.12265924999999811
                },
                {
                    "name": "F#5",
                    "midi": 78,
                    "time": 105.60961424999971,
                    "velocity": 0.3779527559055118,
                    "duration": 0.12265924999999811
                },
                {
                    "name": "G5",
                    "midi": 79,
                    "time": 105.7322734999997,
                    "velocity": 0.41732283464566927,
                    "duration": 0.12265924999999811
                },
                {
                    "name": "C#5",
                    "midi": 73,
                    "time": 105.8549327499997,
                    "velocity": 0.3779527559055118,
                    "duration": 0.12265924999999811
                },
                {
                    "name": "D5",
                    "midi": 74,
                    "time": 105.9775919999997,
                    "velocity": 0.4566929133858268,
                    "duration": 0.49063700000000665
                },
                {
                    "name": "G4",
                    "midi": 67,
                    "time": 106.95886599999972,
                    "velocity": 0.3937007874015748,
                    "duration": 0.12265924999999811
                },
                {
                    "name": "F#4",
                    "midi": 66,
                    "time": 107.08152524999971,
                    "velocity": 0.3543307086614173,
                    "duration": 0.12265924999999811
                },
                {
                    "name": "E4",
                    "midi": 64,
                    "time": 107.20418449999971,
                    "velocity": 0.3543307086614173,
                    "duration": 0.12265924999999811
                },
                {
                    "name": "D4",
                    "midi": 62,
                    "time": 107.32684374999971,
                    "velocity": 0.3543307086614173,
                    "duration": 0.12265924999999811
                },
                {
                    "name": "D5",
                    "midi": 74,
                    "time": 107.44950299999971,
                    "velocity": 0.3937007874015748,
                    "duration": 0.061329624999999055
                },
                {
                    "name": "D5",
                    "midi": 74,
                    "time": 107.6948214999997,
                    "velocity": 0.3937007874015748,
                    "duration": 0.061329624999999055
                },
                {
                    "name": "D5",
                    "midi": 74,
                    "time": 108.1854584999997,
                    "velocity": 0.3700787401574803,
                    "duration": 0.12265924999999811
                },
                {
                    "name": "E5",
                    "midi": 76,
                    "time": 108.4307769999997,
                    "velocity": 0.41732283464566927,
                    "duration": 0.12265924999999811
                },
                {
                    "name": "D5",
                    "midi": 74,
                    "time": 108.55343624999969,
                    "velocity": 0.3779527559055118,
                    "duration": 0.12265924999999811
                },
                {
                    "name": "C#5",
                    "midi": 73,
                    "time": 108.67609549999969,
                    "velocity": 0.3779527559055118,
                    "duration": 0.12265924999999811
                },
                {
                    "name": "D5",
                    "midi": 74,
                    "time": 108.79875474999969,
                    "velocity": 0.3779527559055118,
                    "duration": 0.12265924999999811
                },
                {
                    "name": "C#5",
                    "midi": 73,
                    "time": 108.92141399999969,
                    "velocity": 0.4015748031496063,
                    "duration": 0.061329624999999055
                },
                {
                    "name": "G5",
                    "midi": 79,
                    "time": 109.16673249999968,
                    "velocity": 0.4094488188976378,
                    "duration": 0.061329624999999055
                },
                {
                    "name": "G5",
                    "midi": 79,
                    "time": 109.65736949999967,
                    "velocity": 0.4409448818897638,
                    "duration": 0.24531849999999622
                },
                {
                    "name": "A5",
                    "midi": 81,
                    "time": 109.90268799999967,
                    "velocity": 0.4015748031496063,
                    "duration": 0.12265924999999811
                },
                {
                    "name": "G5",
                    "midi": 79,
                    "time": 110.02534724999967,
                    "velocity": 0.4015748031496063,
                    "duration": 0.12265924999999811
                },
                {
                    "name": "F#5",
                    "midi": 78,
                    "time": 110.14800649999967,
                    "velocity": 0.4015748031496063,
                    "duration": 0.12265924999999811
                },
                {
                    "name": "E5",
                    "midi": 76,
                    "time": 110.27066574999967,
                    "velocity": 0.4015748031496063,
                    "duration": 0.12265924999999811
                },
                {
                    "name": "G5",
                    "midi": 79,
                    "time": 110.39332499999966,
                    "velocity": 0.4566929133858268,
                    "duration": 0.12265924999999811
                },
                {
                    "name": "F#5",
                    "midi": 78,
                    "time": 110.51598424999966,
                    "velocity": 0.41732283464566927,
                    "duration": 0.12265924999999811
                },
                {
                    "name": "E5",
                    "midi": 76,
                    "time": 110.63864349999966,
                    "velocity": 0.41732283464566927,
                    "duration": 0.12265924999999811
                },
                {
                    "name": "D5",
                    "midi": 74,
                    "time": 110.76130274999966,
                    "velocity": 0.3858267716535433,
                    "duration": 0.12265924999999811
                },
                {
                    "name": "B5",
                    "midi": 83,
                    "time": 110.88396199999966,
                    "velocity": 0.4645669291338583,
                    "duration": 0.12265924999999811
                },
                {
                    "name": "A5",
                    "midi": 81,
                    "time": 111.00662124999965,
                    "velocity": 0.4251968503937008,
                    "duration": 0.12265924999999811
                },
                {
                    "name": "G5",
                    "midi": 79,
                    "time": 111.12928049999965,
                    "velocity": 0.4251968503937008,
                    "duration": 0.12265924999999811
                },
                {
                    "name": "F#5",
                    "midi": 78,
                    "time": 111.25193974999965,
                    "velocity": 0.48031496062992124,
                    "duration": 0.12265924999999811
                },
                {
                    "name": "B5",
                    "midi": 83,
                    "time": 111.37459899999965,
                    "velocity": 0.5354330708661418,
                    "duration": 0.12265924999999811
                },
                {
                    "name": "C#6",
                    "midi": 85,
                    "time": 111.49725824999965,
                    "velocity": 0.47244094488188976,
                    "duration": 0.12265924999999811
                },
                {
                    "name": "D6",
                    "midi": 86,
                    "time": 111.61991749999964,
                    "velocity": 0.4251968503937008,
                    "duration": 0.12265924999999811
                },
                {
                    "name": "G5",
                    "midi": 79,
                    "time": 111.74257674999964,
                    "velocity": 0.33858267716535434,
                    "duration": 0.12265924999999811
                },
                {
                    "name": "D5",
                    "midi": 74,
                    "time": 111.86523599999964,
                    "velocity": 0.4015748031496063,
                    "duration": 0.49063700000000665
                },
                {
                    "name": "F#5",
                    "midi": 78,
                    "time": 111.86523599999964,
                    "velocity": 0.4015748031496063,
                    "duration": 0.49063700000000665
                },
                {
                    "name": "C#5",
                    "midi": 73,
                    "time": 112.35587299999965,
                    "velocity": 0.30708661417322836,
                    "duration": 0.36797774999999433
                },
                {
                    "name": "E5",
                    "midi": 76,
                    "time": 112.35587299999965,
                    "velocity": 0.30708661417322836,
                    "duration": 0.36797774999999433
                },
                {
                    "name": "G4",
                    "midi": 67,
                    "time": 112.84650999999964,
                    "velocity": 0.3937007874015748,
                    "duration": 0.12265924999999811
                },
                {
                    "name": "F#4",
                    "midi": 66,
                    "time": 112.96916924999964,
                    "velocity": 0.3543307086614173,
                    "duration": 0.12265924999999811
                },
                {
                    "name": "E4",
                    "midi": 64,
                    "time": 113.09182849999964,
                    "velocity": 0.3543307086614173,
                    "duration": 0.12265924999999811
                },
                {
                    "name": "D4",
                    "midi": 62,
                    "time": 113.21448774999963,
                    "velocity": 0.3543307086614173,
                    "duration": 0.12265924999999811
                },
                {
                    "name": "D5",
                    "midi": 74,
                    "time": 113.33714699999963,
                    "velocity": 0.3937007874015748,
                    "duration": 0.061329624999999055
                },
                {
                    "name": "D5",
                    "midi": 74,
                    "time": 113.58246549999963,
                    "velocity": 0.3937007874015748,
                    "duration": 0.061329624999999055
                },
                {
                    "name": "D5",
                    "midi": 74,
                    "time": 114.07310249999962,
                    "velocity": 0.3700787401574803,
                    "duration": 0.12265924999999811
                },
                {
                    "name": "E5",
                    "midi": 76,
                    "time": 114.31842099999962,
                    "velocity": 0.3858267716535433,
                    "duration": 0.12265924999999811
                },
                {
                    "name": "D5",
                    "midi": 74,
                    "time": 114.44108024999962,
                    "velocity": 0.33858267716535434,
                    "duration": 0.12265924999999811
                },
                {
                    "name": "C#5",
                    "midi": 73,
                    "time": 114.56373949999961,
                    "velocity": 0.33858267716535434,
                    "duration": 0.12265924999999811
                },
                {
                    "name": "D5",
                    "midi": 74,
                    "time": 114.68639874999961,
                    "velocity": 0.33858267716535434,
                    "duration": 0.12265924999999811
                },
                {
                    "name": "C#5",
                    "midi": 73,
                    "time": 114.80905799999961,
                    "velocity": 0.4015748031496063,
                    "duration": 0.061329624999999055
                },
                {
                    "name": "G5",
                    "midi": 79,
                    "time": 115.0543764999996,
                    "velocity": 0.4094488188976378,
                    "duration": 0.061329624999999055
                },
                {
                    "name": "A5",
                    "midi": 81,
                    "time": 115.2996949999996,
                    "velocity": 0.4409448818897638,
                    "duration": 0.12265924999999811
                },
                {
                    "name": "G5",
                    "midi": 79,
                    "time": 115.4223542499996,
                    "velocity": 0.4015748031496063,
                    "duration": 0.12265924999999811
                },
                {
                    "name": "F#5",
                    "midi": 78,
                    "time": 115.5450134999996,
                    "velocity": 0.4015748031496063,
                    "duration": 0.12265924999999811
                },
                {
                    "name": "E5",
                    "midi": 76,
                    "time": 115.6676727499996,
                    "velocity": 0.3779527559055118,
                    "duration": 0.12265924999999811
                },
                {
                    "name": "G5",
                    "midi": 79,
                    "time": 115.7903319999996,
                    "velocity": 0.4566929133858268,
                    "duration": 0.12265924999999811
                },
                {
                    "name": "F#5",
                    "midi": 78,
                    "time": 115.91299124999959,
                    "velocity": 0.4094488188976378,
                    "duration": 0.12265924999999811
                },
                {
                    "name": "E5",
                    "midi": 76,
                    "time": 116.03565049999959,
                    "velocity": 0.4251968503937008,
                    "duration": 0.12265924999999811
                },
                {
                    "name": "D5",
                    "midi": 74,
                    "time": 116.15830974999959,
                    "velocity": 0.44881889763779526,
                    "duration": 0.12265924999999811
                },
                {
                    "name": "B5",
                    "midi": 83,
                    "time": 116.28096899999959,
                    "velocity": 0.5196850393700787,
                    "duration": 0.12265924999999811
                },
                {
                    "name": "C#6",
                    "midi": 85,
                    "time": 116.40362824999958,
                    "velocity": 0.44881889763779526,
                    "duration": 0.12265924999999811
                },
                {
                    "name": "D6",
                    "midi": 86,
                    "time": 116.52628749999958,
                    "velocity": 0.41732283464566927,
                    "duration": 0.12265924999999811
                },
                {
                    "name": "G5",
                    "midi": 79,
                    "time": 116.64894674999958,
                    "velocity": 0.4015748031496063,
                    "duration": 0.12265924999999811
                },
                {
                    "name": "F#5",
                    "midi": 78,
                    "time": 116.77160599999958,
                    "velocity": 0.48031496062992124,
                    "duration": 0.12265924999999811
                },
                {
                    "name": "G5",
                    "midi": 79,
                    "time": 116.89426524999958,
                    "velocity": 0.4015748031496063,
                    "duration": 0.12265924999999811
                },
                {
                    "name": "A5",
                    "midi": 81,
                    "time": 117.01692449999958,
                    "velocity": 0.4015748031496063,
                    "duration": 0.12265924999999811
                },
                {
                    "name": "D5",
                    "midi": 74,
                    "time": 117.13958374999957,
                    "velocity": 0.4015748031496063,
                    "duration": 0.12265924999999811
                },
                {
                    "name": "E5",
                    "midi": 76,
                    "time": 117.26224299999957,
                    "velocity": 0.4645669291338583,
                    "duration": 0.12265924999999811
                },
                {
                    "name": "F#5",
                    "midi": 78,
                    "time": 117.38490224999957,
                    "velocity": 0.3779527559055118,
                    "duration": 0.12265924999999811
                },
                {
                    "name": "G5",
                    "midi": 79,
                    "time": 117.50756149999957,
                    "velocity": 0.41732283464566927,
                    "duration": 0.12265924999999811
                },
                {
                    "name": "C#5",
                    "midi": 73,
                    "time": 117.63022074999957,
                    "velocity": 0.3779527559055118,
                    "duration": 0.12265924999999811
                },
                {
                    "name": "D5",
                    "midi": 74,
                    "time": 117.75287999999956,
                    "velocity": 0.4566929133858268,
                    "duration": 0.49063700000000665
                },
                {
                    "name": "G4",
                    "midi": 67,
                    "time": 118.73415399999958,
                    "velocity": 0.3937007874015748,
                    "duration": 0.12265924999999811
                },
                {
                    "name": "F#4",
                    "midi": 66,
                    "time": 118.85681324999958,
                    "velocity": 0.3543307086614173,
                    "duration": 0.12265924999999811
                },
                {
                    "name": "E4",
                    "midi": 64,
                    "time": 118.97947249999957,
                    "velocity": 0.3543307086614173,
                    "duration": 0.12265924999999811
                },
                {
                    "name": "D4",
                    "midi": 62,
                    "time": 119.10213174999957,
                    "velocity": 0.3543307086614173,
                    "duration": 0.12265924999999811
                },
                {
                    "name": "D5",
                    "midi": 74,
                    "time": 119.22479099999957,
                    "velocity": 0.3937007874015748,
                    "duration": 0.061329624999999055
                },
                {
                    "name": "D5",
                    "midi": 74,
                    "time": 119.47010949999957,
                    "velocity": 0.3937007874015748,
                    "duration": 0.061329624999999055
                },
                {
                    "name": "G#4",
                    "midi": 68,
                    "time": 119.96074649999956,
                    "velocity": 0.3700787401574803,
                    "duration": 0.12265924999999811
                },
                {
                    "name": "A4",
                    "midi": 69,
                    "time": 120.20606499999955,
                    "velocity": 0.41732283464566927,
                    "duration": 0.12265924999999811
                },
                {
                    "name": "B4",
                    "midi": 71,
                    "time": 120.32872424999955,
                    "velocity": 0.3779527559055118,
                    "duration": 0.12265924999999811
                },
                {
                    "name": "A4",
                    "midi": 69,
                    "time": 120.45138349999955,
                    "velocity": 0.3779527559055118,
                    "duration": 0.12265924999999811
                },
                {
                    "name": "E4",
                    "midi": 64,
                    "time": 120.57404274999955,
                    "velocity": 0.3779527559055118,
                    "duration": 0.12265924999999811
                },
                {
                    "name": "G4",
                    "midi": 67,
                    "time": 120.69670199999955,
                    "velocity": 0.4015748031496063,
                    "duration": 0.061329624999999055
                },
                {
                    "name": "G4",
                    "midi": 67,
                    "time": 120.94202049999954,
                    "velocity": 0.4094488188976378,
                    "duration": 0.061329624999999055
                },
                {
                    "name": "F#4",
                    "midi": 66,
                    "time": 121.43265749999954,
                    "velocity": 0.4409448818897638,
                    "duration": 0.24531849999999622
                },
                {
                    "name": "E4",
                    "midi": 64,
                    "time": 121.67797599999953,
                    "velocity": 0.4015748031496063,
                    "duration": 0.12265924999999811
                },
                {
                    "name": "F#4",
                    "midi": 66,
                    "time": 121.80063524999953,
                    "velocity": 0.3700787401574803,
                    "duration": 0.12265924999999811
                },
                {
                    "name": "E4",
                    "midi": 64,
                    "time": 121.92329449999953,
                    "velocity": 0.3700787401574803,
                    "duration": 0.12265924999999811
                },
                {
                    "name": "B3",
                    "midi": 59,
                    "time": 122.04595374999953,
                    "velocity": 0.3700787401574803,
                    "duration": 0.12265924999999811
                },
                {
                    "name": "D4",
                    "midi": 62,
                    "time": 122.16861299999952,
                    "velocity": 0.41732283464566927,
                    "duration": 0.12265924999999811
                },
                {
                    "name": "E4",
                    "midi": 64,
                    "time": 122.29127224999952,
                    "velocity": 0.36220472440944884,
                    "duration": 0.12265924999999811
                },
                {
                    "name": "D4",
                    "midi": 62,
                    "time": 122.41393149999952,
                    "velocity": 0.36220472440944884,
                    "duration": 0.12265924999999811
                },
                {
                    "name": "A3",
                    "midi": 57,
                    "time": 122.53659074999952,
                    "velocity": 0.36220472440944884,
                    "duration": 0.12265924999999811
                },
                {
                    "name": "G4",
                    "midi": 67,
                    "time": 122.65924999999952,
                    "velocity": 0.4251968503937008,
                    "duration": 0.12265924999999811
                },
                {
                    "name": "A4",
                    "midi": 69,
                    "time": 122.78190924999952,
                    "velocity": 0.36220472440944884,
                    "duration": 0.12265924999999811
                },
                {
                    "name": "G4",
                    "midi": 67,
                    "time": 122.90456849999951,
                    "velocity": 0.36220472440944884,
                    "duration": 0.12265924999999811
                },
                {
                    "name": "E4",
                    "midi": 64,
                    "time": 123.02722774999951,
                    "velocity": 0.33858267716535434,
                    "duration": 0.12265924999999811
                },
                {
                    "name": "F#4",
                    "midi": 66,
                    "time": 123.14988699999951,
                    "velocity": 0.4330708661417323,
                    "duration": 0.12265924999999811
                },
                {
                    "name": "G4",
                    "midi": 67,
                    "time": 123.27254624999951,
                    "velocity": 0.36220472440944884,
                    "duration": 0.12265924999999811
                },
                {
                    "name": "F#4",
                    "midi": 66,
                    "time": 123.3952054999995,
                    "velocity": 0.36220472440944884,
                    "duration": 0.12265924999999811
                },
                {
                    "name": "D4",
                    "midi": 62,
                    "time": 123.5178647499995,
                    "velocity": 0.36220472440944884,
                    "duration": 0.1124376458333387
                },
                {
                    "name": "F#4",
                    "midi": 66,
                    "time": 123.64052399999952,
                    "velocity": 0.4015748031496063,
                    "duration": 0.49063700000000665
                },
                {
                    "name": "D4",
                    "midi": 62,
                    "time": 123.64052399999952,
                    "velocity": 0.33858267716535434,
                    "duration": 0.49063700000000665
                },
                {
                    "name": "C#4",
                    "midi": 61,
                    "time": 124.13116099999952,
                    "velocity": 0.30708661417322836,
                    "duration": 0.36797774999999433
                },
                {
                    "name": "E4",
                    "midi": 64,
                    "time": 124.13116099999952,
                    "velocity": 0.30708661417322836,
                    "duration": 0.36797774999999433
                },
                {
                    "name": "G5",
                    "midi": 79,
                    "time": 124.62179799999952,
                    "velocity": 0.49606299212598426,
                    "duration": 0.12265924999999811
                },
                {
                    "name": "F#5",
                    "midi": 78,
                    "time": 124.74445724999951,
                    "velocity": 0.4409448818897638,
                    "duration": 0.12265924999999811
                },
                {
                    "name": "E5",
                    "midi": 76,
                    "time": 124.86711649999951,
                    "velocity": 0.4409448818897638,
                    "duration": 0.12265924999999811
                },
                {
                    "name": "D5",
                    "midi": 74,
                    "time": 124.98977574999951,
                    "velocity": 0.4409448818897638,
                    "duration": 0.12265924999999811
                },
                {
                    "name": "D6",
                    "midi": 86,
                    "time": 125.11243499999951,
                    "velocity": 0.5511811023622047,
                    "duration": 0.061329624999999055
                },
                {
                    "name": "D6",
                    "midi": 86,
                    "time": 125.3577534999995,
                    "velocity": 0.5275590551181102,
                    "duration": 0.061329624999999055
                },
                {
                    "name": "G#5",
                    "midi": 80,
                    "time": 125.8483904999995,
                    "velocity": 0.41732283464566927,
                    "duration": 0.12265924999999811
                },
                {
                    "name": "G#5",
                    "midi": 80,
                    "time": 126.09370899999949,
                    "velocity": 0.4566929133858268,
                    "duration": 0.12265924999999811
                },
                {
                    "name": "A5",
                    "midi": 81,
                    "time": 126.21636824999949,
                    "velocity": 0.3779527559055118,
                    "duration": 0.12265924999999811
                },
                {
                    "name": "B5",
                    "midi": 83,
                    "time": 126.33902749999949,
                    "velocity": 0.3779527559055118,
                    "duration": 0.12265924999999811
                },
                {
                    "name": "A5",
                    "midi": 81,
                    "time": 126.46168674999949,
                    "velocity": 0.3779527559055118,
                    "duration": 0.09199443750000569
                },
                {
                    "name": "A5",
                    "midi": 81,
                    "time": 126.5843459999995,
                    "velocity": 0.48031496062992124,
                    "duration": 0.12265924999999811
                },
                {
                    "name": "G5",
                    "midi": 79,
                    "time": 126.7070052499995,
                    "velocity": 0.3858267716535433,
                    "duration": 0.12265924999999811
                },
                {
                    "name": "F#5",
                    "midi": 78,
                    "time": 126.8296644999995,
                    "velocity": 0.3858267716535433,
                    "duration": 0.12265924999999811
                },
                {
                    "name": "G5",
                    "midi": 79,
                    "time": 126.9523237499995,
                    "velocity": 0.3858267716535433,
                    "duration": 0.09199443750000569
                },
                {
                    "name": "G5",
                    "midi": 79,
                    "time": 127.0749829999995,
                    "velocity": 0.4645669291338583,
                    "duration": 0.12265924999999811
                },
                {
                    "name": "F#5",
                    "midi": 78,
                    "time": 127.1976422499995,
                    "velocity": 0.3779527559055118,
                    "duration": 0.12265924999999811
                },
                {
                    "name": "E5",
                    "midi": 76,
                    "time": 127.3203014999995,
                    "velocity": 0.3779527559055118,
                    "duration": 0.12265924999999811
                },
                {
                    "name": "F#5",
                    "midi": 78,
                    "time": 127.4429607499995,
                    "velocity": 0.3779527559055118,
                    "duration": 0.09199443750000569
                },
                {
                    "name": "F#5",
                    "midi": 78,
                    "time": 127.56561999999951,
                    "velocity": 0.4566929133858268,
                    "duration": 0.12265924999999811
                },
                {
                    "name": "E5",
                    "midi": 76,
                    "time": 127.68827924999951,
                    "velocity": 0.3700787401574803,
                    "duration": 0.12265924999999811
                },
                {
                    "name": "D5",
                    "midi": 74,
                    "time": 127.81093849999951,
                    "velocity": 0.3700787401574803,
                    "duration": 0.12265924999999811
                },
                {
                    "name": "E5",
                    "midi": 76,
                    "time": 127.9335977499995,
                    "velocity": 0.3700787401574803,
                    "duration": 0.12265924999999811
                },
                {
                    "name": "A5",
                    "midi": 81,
                    "time": 128.0562569999995,
                    "velocity": 0.5354330708661418,
                    "duration": 0.24531849999999622
                },
                {
                    "name": "B5",
                    "midi": 83,
                    "time": 128.4242347499995,
                    "velocity": 0.4251968503937008,
                    "duration": 0.12265924999999811
                },
                {
                    "name": "D5",
                    "midi": 74,
                    "time": 128.5468939999995,
                    "velocity": 0.5196850393700787,
                    "duration": 0.49063699999999244
                },
                {
                    "name": "E5",
                    "midi": 76,
                    "time": 129.0375309999995,
                    "velocity": 0.3700787401574803,
                    "duration": 0.061329625000013266
                },
                {
                    "name": "F#5",
                    "midi": 78,
                    "time": 129.0988606249995,
                    "velocity": 0.3464566929133858,
                    "duration": 0.061329625000013266
                },
                {
                    "name": "E5",
                    "midi": 76,
                    "time": 129.16019024999952,
                    "velocity": 0.3700787401574803,
                    "duration": 0.061329625000013266
                },
                {
                    "name": "F#5",
                    "midi": 78,
                    "time": 129.22151987499953,
                    "velocity": 0.3543307086614173,
                    "duration": 0.061329625000013266
                },
                {
                    "name": "E5",
                    "midi": 76,
                    "time": 129.28284949999954,
                    "velocity": 0.3700787401574803,
                    "duration": 0.061329625000013266
                },
                {
                    "name": "F#5",
                    "midi": 78,
                    "time": 129.34417912499956,
                    "velocity": 0.33858267716535434,
                    "duration": 0.061329625000013266
                },
                {
                    "name": "E5",
                    "midi": 76,
                    "time": 129.40550874999957,
                    "velocity": 0.33858267716535434,
                    "duration": 0.04088641666666604
                },
                {
                    "name": "D5",
                    "midi": 74,
                    "time": 129.44639516666624,
                    "velocity": 0.33858267716535434,
                    "duration": 0.04088641666666604
                },
                {
                    "name": "E5",
                    "midi": 76,
                    "time": 129.48830374374955,
                    "velocity": 0.33858267716535434,
                    "duration": 0.04088641666666604
                },
                {
                    "name": "D5",
                    "midi": 74,
                    "time": 129.52816799999957,
                    "velocity": 0.5196850393700787,
                    "duration": 0.49063699999999244
                },
                {
                    "name": "G4",
                    "midi": 67,
                    "time": 130.50944199999955,
                    "velocity": 0.3937007874015748,
                    "duration": 0.12265924999999811
                },
                {
                    "name": "F#4",
                    "midi": 66,
                    "time": 130.63210124999955,
                    "velocity": 0.3543307086614173,
                    "duration": 0.12265924999999811
                },
                {
                    "name": "E4",
                    "midi": 64,
                    "time": 130.75476049999955,
                    "velocity": 0.3543307086614173,
                    "duration": 0.12265924999999811
                },
                {
                    "name": "D4",
                    "midi": 62,
                    "time": 130.87741974999955,
                    "velocity": 0.3543307086614173,
                    "duration": 0.12265924999999811
                },
                {
                    "name": "D5",
                    "midi": 74,
                    "time": 131.00007899999954,
                    "velocity": 0.3937007874015748,
                    "duration": 0.061329625000013266
                },
                {
                    "name": "D5",
                    "midi": 74,
                    "time": 131.24539749999957,
                    "velocity": 0.3937007874015748,
                    "duration": 0.061329625000013266
                },
                {
                    "name": "G#4",
                    "midi": 68,
                    "time": 131.7360344999996,
                    "velocity": 0.3700787401574803,
                    "duration": 0.12265924999999811
                },
                {
                    "name": "A4",
                    "midi": 69,
                    "time": 131.9813529999996,
                    "velocity": 0.41732283464566927,
                    "duration": 0.12265924999999811
                },
                {
                    "name": "B4",
                    "midi": 71,
                    "time": 132.10401224999958,
                    "velocity": 0.3779527559055118,
                    "duration": 0.12265924999999811
                },
                {
                    "name": "A4",
                    "midi": 69,
                    "time": 132.22667149999958,
                    "velocity": 0.3779527559055118,
                    "duration": 0.12265924999999811
                },
                {
                    "name": "E4",
                    "midi": 64,
                    "time": 132.34933074999958,
                    "velocity": 0.3779527559055118,
                    "duration": 0.12265924999999811
                },
                {
                    "name": "G4",
                    "midi": 67,
                    "time": 132.47198999999958,
                    "velocity": 0.4015748031496063,
                    "duration": 0.061329625000013266
                },
                {
                    "name": "G4",
                    "midi": 67,
                    "time": 132.7173084999996,
                    "velocity": 0.4094488188976378,
                    "duration": 0.061329625000013266
                },
                {
                    "name": "F#4",
                    "midi": 66,
                    "time": 133.20794549999962,
                    "velocity": 0.4409448818897638,
                    "duration": 0.24531849999999622
                },
                {
                    "name": "E4",
                    "midi": 64,
                    "time": 133.45326399999962,
                    "velocity": 0.4015748031496063,
                    "duration": 0.12265924999999811
                },
                {
                    "name": "F#4",
                    "midi": 66,
                    "time": 133.57592324999962,
                    "velocity": 0.3700787401574803,
                    "duration": 0.12265924999999811
                },
                {
                    "name": "E4",
                    "midi": 64,
                    "time": 133.69858249999962,
                    "velocity": 0.3700787401574803,
                    "duration": 0.12265924999999811
                },
                {
                    "name": "B3",
                    "midi": 59,
                    "time": 133.82124174999961,
                    "velocity": 0.3700787401574803,
                    "duration": 0.12265924999999811
                },
                {
                    "name": "D4",
                    "midi": 62,
                    "time": 133.9439009999996,
                    "velocity": 0.41732283464566927,
                    "duration": 0.12265924999999811
                },
                {
                    "name": "E4",
                    "midi": 64,
                    "time": 134.0665602499996,
                    "velocity": 0.36220472440944884,
                    "duration": 0.12265924999999811
                },
                {
                    "name": "D4",
                    "midi": 62,
                    "time": 134.1892194999996,
                    "velocity": 0.36220472440944884,
                    "duration": 0.12265924999999811
                },
                {
                    "name": "A3",
                    "midi": 57,
                    "time": 134.3118787499996,
                    "velocity": 0.36220472440944884,
                    "duration": 0.12265924999999811
                },
                {
                    "name": "G4",
                    "midi": 67,
                    "time": 134.4345379999996,
                    "velocity": 0.4251968503937008,
                    "duration": 0.12265924999999811
                },
                {
                    "name": "A4",
                    "midi": 69,
                    "time": 134.5571972499996,
                    "velocity": 0.36220472440944884,
                    "duration": 0.12265924999999811
                },
                {
                    "name": "G4",
                    "midi": 67,
                    "time": 134.6798564999996,
                    "velocity": 0.36220472440944884,
                    "duration": 0.12265924999999811
                },
                {
                    "name": "E4",
                    "midi": 64,
                    "time": 134.8025157499996,
                    "velocity": 0.33858267716535434,
                    "duration": 0.12265924999999811
                },
                {
                    "name": "F#4",
                    "midi": 66,
                    "time": 134.9251749999996,
                    "velocity": 0.4330708661417323,
                    "duration": 0.12265924999999811
                },
                {
                    "name": "G4",
                    "midi": 67,
                    "time": 135.0478342499996,
                    "velocity": 0.36220472440944884,
                    "duration": 0.12265924999999811
                },
                {
                    "name": "F#4",
                    "midi": 66,
                    "time": 135.1704934999996,
                    "velocity": 0.36220472440944884,
                    "duration": 0.12265924999999811
                },
                {
                    "name": "D4",
                    "midi": 62,
                    "time": 135.2931527499996,
                    "velocity": 0.36220472440944884,
                    "duration": 0.1124376458333245
                },
                {
                    "name": "F#4",
                    "midi": 66,
                    "time": 135.4158119999996,
                    "velocity": 0.4015748031496063,
                    "duration": 0.49063699999999244
                },
                {
                    "name": "D4",
                    "midi": 62,
                    "time": 135.4158119999996,
                    "velocity": 0.33858267716535434,
                    "duration": 0.49063699999999244
                },
                {
                    "name": "C#4",
                    "midi": 61,
                    "time": 135.90644899999958,
                    "velocity": 0.30708661417322836,
                    "duration": 0.36797774999999433
                },
                {
                    "name": "E4",
                    "midi": 64,
                    "time": 135.90644899999958,
                    "velocity": 0.30708661417322836,
                    "duration": 0.36797774999999433
                },
                {
                    "name": "G5",
                    "midi": 79,
                    "time": 136.39708599999958,
                    "velocity": 0.49606299212598426,
                    "duration": 0.12265924999999811
                },
                {
                    "name": "F#5",
                    "midi": 78,
                    "time": 136.51974524999957,
                    "velocity": 0.4409448818897638,
                    "duration": 0.12265924999999811
                },
                {
                    "name": "E5",
                    "midi": 76,
                    "time": 136.64240449999957,
                    "velocity": 0.4409448818897638,
                    "duration": 0.12265924999999811
                },
                {
                    "name": "D5",
                    "midi": 74,
                    "time": 136.76506374999957,
                    "velocity": 0.4409448818897638,
                    "duration": 0.12265924999999811
                },
                {
                    "name": "D6",
                    "midi": 86,
                    "time": 136.88772299999957,
                    "velocity": 0.5511811023622047,
                    "duration": 0.061329625000013266
                },
                {
                    "name": "D6",
                    "midi": 86,
                    "time": 137.1330414999996,
                    "velocity": 0.5275590551181102,
                    "duration": 0.061329625000013266
                },
                {
                    "name": "G#5",
                    "midi": 80,
                    "time": 137.6236784999996,
                    "velocity": 0.41732283464566927,
                    "duration": 0.12265924999999811
                },
                {
                    "name": "G#5",
                    "midi": 80,
                    "time": 137.8689969999996,
                    "velocity": 0.4566929133858268,
                    "duration": 0.12265924999999811
                },
                {
                    "name": "A5",
                    "midi": 81,
                    "time": 137.9916562499996,
                    "velocity": 0.3779527559055118,
                    "duration": 0.12265924999999811
                },
                {
                    "name": "B5",
                    "midi": 83,
                    "time": 138.1143154999996,
                    "velocity": 0.3779527559055118,
                    "duration": 0.12265924999999811
                },
                {
                    "name": "A5",
                    "midi": 81,
                    "time": 138.2369747499996,
                    "velocity": 0.3779527559055118,
                    "duration": 0.09199443750000569
                },
                {
                    "name": "A5",
                    "midi": 81,
                    "time": 138.3596339999996,
                    "velocity": 0.48031496062992124,
                    "duration": 0.12265924999999811
                },
                {
                    "name": "G5",
                    "midi": 79,
                    "time": 138.4822932499996,
                    "velocity": 0.3858267716535433,
                    "duration": 0.12265924999999811
                },
                {
                    "name": "F#5",
                    "midi": 78,
                    "time": 138.6049524999996,
                    "velocity": 0.3858267716535433,
                    "duration": 0.12265924999999811
                },
                {
                    "name": "G5",
                    "midi": 79,
                    "time": 138.7276117499996,
                    "velocity": 0.3858267716535433,
                    "duration": 0.09199443750000569
                },
                {
                    "name": "G5",
                    "midi": 79,
                    "time": 138.8502709999996,
                    "velocity": 0.4645669291338583,
                    "duration": 0.12265924999999811
                },
                {
                    "name": "F#5",
                    "midi": 78,
                    "time": 138.9729302499996,
                    "velocity": 0.3779527559055118,
                    "duration": 0.12265924999999811
                },
                {
                    "name": "E5",
                    "midi": 76,
                    "time": 139.0955894999996,
                    "velocity": 0.3779527559055118,
                    "duration": 0.12265924999999811
                },
                {
                    "name": "F#5",
                    "midi": 78,
                    "time": 139.2182487499996,
                    "velocity": 0.3779527559055118,
                    "duration": 0.09199443750000569
                },
                {
                    "name": "F#5",
                    "midi": 78,
                    "time": 139.3409079999996,
                    "velocity": 0.4566929133858268,
                    "duration": 0.12265924999999811
                },
                {
                    "name": "E5",
                    "midi": 76,
                    "time": 139.46356724999958,
                    "velocity": 0.3700787401574803,
                    "duration": 0.12265924999999811
                },
                {
                    "name": "D5",
                    "midi": 74,
                    "time": 139.58622649999958,
                    "velocity": 0.3700787401574803,
                    "duration": 0.12265924999999811
                },
                {
                    "name": "E5",
                    "midi": 76,
                    "time": 139.70888574999958,
                    "velocity": 0.3700787401574803,
                    "duration": 0.12265924999999811
                },
                {
                    "name": "A5",
                    "midi": 81,
                    "time": 139.83154499999958,
                    "velocity": 0.5275590551181102,
                    "duration": 0.24531849999999622
                },
                {
                    "name": "B5",
                    "midi": 83,
                    "time": 140.19952274999957,
                    "velocity": 0.4566929133858268,
                    "duration": 0.12265924999999811
                },
                {
                    "name": "D5",
                    "midi": 74,
                    "time": 140.32218199999957,
                    "velocity": 0.5511811023622047,
                    "duration": 0.49063699999999244
                },
                {
                    "name": "E5",
                    "midi": 76,
                    "time": 140.81281899999956,
                    "velocity": 0.3700787401574803,
                    "duration": 0.061329625000013266
                },
                {
                    "name": "F#5",
                    "midi": 78,
                    "time": 140.87414862499958,
                    "velocity": 0.3464566929133858,
                    "duration": 0.061329625000013266
                },
                {
                    "name": "E5",
                    "midi": 76,
                    "time": 140.9354782499996,
                    "velocity": 0.3700787401574803,
                    "duration": 0.061329625000013266
                },
                {
                    "name": "F#5",
                    "midi": 78,
                    "time": 140.9968078749996,
                    "velocity": 0.3543307086614173,
                    "duration": 0.061329625000013266
                },
                {
                    "name": "E5",
                    "midi": 76,
                    "time": 141.05813749999962,
                    "velocity": 0.3700787401574803,
                    "duration": 0.061329625000013266
                },
                {
                    "name": "F#5",
                    "midi": 78,
                    "time": 141.11946712499963,
                    "velocity": 0.33858267716535434,
                    "duration": 0.061329625000013266
                },
                {
                    "name": "E5",
                    "midi": 76,
                    "time": 141.18079674999964,
                    "velocity": 0.33858267716535434,
                    "duration": 0.04088641666666604
                },
                {
                    "name": "D5",
                    "midi": 74,
                    "time": 141.2216831666663,
                    "velocity": 0.33858267716535434,
                    "duration": 0.04088641666666604
                },
                {
                    "name": "E5",
                    "midi": 76,
                    "time": 141.26359174374963,
                    "velocity": 0.33858267716535434,
                    "duration": 0.04088641666666604
                },
                {
                    "name": "D5",
                    "midi": 74,
                    "time": 141.30345599999964,
                    "velocity": 0.5196850393700787,
                    "duration": 0.49063699999999244
                },
                {
                    "name": "G4",
                    "midi": 67,
                    "time": 142.28472999999963,
                    "velocity": 0.4566929133858268,
                    "duration": 0.12265924999999811
                },
                {
                    "name": "F4",
                    "midi": 65,
                    "time": 142.40738924999962,
                    "velocity": 0.4566929133858268,
                    "duration": 0.12265924999999811
                },
                {
                    "name": "E4",
                    "midi": 64,
                    "time": 142.53004849999962,
                    "velocity": 0.48031496062992124,
                    "duration": 0.12265924999999811
                },
                {
                    "name": "D4",
                    "midi": 62,
                    "time": 142.65270774999962,
                    "velocity": 0.5118110236220472,
                    "duration": 0.12265924999999811
                },
                {
                    "name": "D5",
                    "midi": 74,
                    "time": 142.77536699999962,
                    "velocity": 0.6456692913385826,
                    "duration": 0.7359554999999887
                },
                {
                    "name": "E5",
                    "midi": 76,
                    "time": 143.5113224999996,
                    "velocity": 0.5039370078740157,
                    "duration": 0.49063699999999244
                },
                {
                    "name": "F5",
                    "midi": 77,
                    "time": 144.0019594999996,
                    "velocity": 0.5433070866141733,
                    "duration": 0.49063699999999244
                },
                {
                    "name": "A4",
                    "midi": 69,
                    "time": 144.4925964999996,
                    "velocity": 0.5433070866141733,
                    "duration": 0.49063699999999244
                },
                {
                    "name": "G#4",
                    "midi": 68,
                    "time": 144.98323349999959,
                    "velocity": 0.5118110236220472,
                    "duration": 0.49063699999999244
                },
                {
                    "name": "G4",
                    "midi": 67,
                    "time": 145.47387049999958,
                    "velocity": 0.5354330708661418,
                    "duration": 0.49063699999999244
                },
                {
                    "name": "F4",
                    "midi": 65,
                    "time": 145.96450749999957,
                    "velocity": 0.5511811023622047,
                    "duration": 0.49063699999999244
                },
                {
                    "name": "A4",
                    "midi": 69,
                    "time": 146.45514449999956,
                    "velocity": 0.5433070866141733,
                    "duration": 0.24531849999999622
                },
                {
                    "name": "A4",
                    "midi": 69,
                    "time": 146.70046299999956,
                    "velocity": 0.5511811023622047,
                    "duration": 0.12265924999999811
                },
                {
                    "name": "A#4",
                    "midi": 70,
                    "time": 146.82312224999956,
                    "velocity": 0.4330708661417323,
                    "duration": 0.04088641666666604
                },
                {
                    "name": "A4",
                    "midi": 69,
                    "time": 146.86400866666622,
                    "velocity": 0.33858267716535434,
                    "duration": 0.04088641666666604
                },
                {
                    "name": "G4",
                    "midi": 67,
                    "time": 146.90591724374954,
                    "velocity": 0.30708661417322836,
                    "duration": 0.04088641666666604
                },
                {
                    "name": "A4",
                    "midi": 69,
                    "time": 146.94578149999955,
                    "velocity": 0.4645669291338583,
                    "duration": 0.12265924999999811
                },
                {
                    "name": "A#4",
                    "midi": 70,
                    "time": 147.06844074999955,
                    "velocity": 0.3858267716535433,
                    "duration": 0.1124376458333245
                },
                {
                    "name": "D4",
                    "midi": 62,
                    "time": 147.19109999999955,
                    "velocity": 0.3937007874015748,
                    "duration": 0.49063699999999244
                },
                {
                    "name": "C#4",
                    "midi": 61,
                    "time": 147.68173699999954,
                    "velocity": 0.3543307086614173,
                    "duration": 0.24531849999999622
                },
                {
                    "name": "A#4",
                    "midi": 70,
                    "time": 148.17237399999954,
                    "velocity": 0.4566929133858268,
                    "duration": 0.12265924999999811
                },
                {
                    "name": "A4",
                    "midi": 69,
                    "time": 148.29503324999953,
                    "velocity": 0.4566929133858268,
                    "duration": 0.12265924999999811
                },
                {
                    "name": "G4",
                    "midi": 67,
                    "time": 148.41769249999953,
                    "velocity": 0.48031496062992124,
                    "duration": 0.12265924999999811
                },
                {
                    "name": "F4",
                    "midi": 65,
                    "time": 148.54035174999953,
                    "velocity": 0.5118110236220472,
                    "duration": 0.12265924999999811
                },
                {
                    "name": "D5",
                    "midi": 74,
                    "time": 148.66301099999953,
                    "velocity": 0.6377952755905512,
                    "duration": 0.12163708958334496
                },
                {
                    "name": "C5",
                    "midi": 72,
                    "time": 148.78567024999953,
                    "velocity": 0.49606299212598426,
                    "duration": 0.12265924999999811
                },
                {
                    "name": "A#4",
                    "midi": 70,
                    "time": 148.90832949999952,
                    "velocity": 0.49606299212598426,
                    "duration": 0.12265924999999811
                },
                {
                    "name": "A4",
                    "midi": 69,
                    "time": 149.03098874999952,
                    "velocity": 0.49606299212598426,
                    "duration": 0.12265924999999811
                },
                {
                    "name": "G5",
                    "midi": 79,
                    "time": 149.15364799999952,
                    "velocity": 0.6141732283464567,
                    "duration": 0.12163708958334496
                },
                {
                    "name": "F5",
                    "midi": 77,
                    "time": 149.27630724999952,
                    "velocity": 0.5039370078740157,
                    "duration": 0.12265924999999811
                },
                {
                    "name": "E5",
                    "midi": 76,
                    "time": 149.39896649999952,
                    "velocity": 0.5039370078740157,
                    "duration": 0.12265924999999811
                },
                {
                    "name": "F5",
                    "midi": 77,
                    "time": 149.52162574999952,
                    "velocity": 0.5039370078740157,
                    "duration": 0.12265924999999811
                },
                {
                    "name": "A#5",
                    "midi": 82,
                    "time": 149.6442849999995,
                    "velocity": 0.6220472440944882,
                    "duration": 0.12163708958334496
                },
                {
                    "name": "A5",
                    "midi": 81,
                    "time": 149.7669442499995,
                    "velocity": 0.5196850393700787,
                    "duration": 0.12265924999999811
                },
                {
                    "name": "G5",
                    "midi": 79,
                    "time": 149.8896034999995,
                    "velocity": 0.5275590551181102,
                    "duration": 0.12265924999999811
                },
                {
                    "name": "F5",
                    "midi": 77,
                    "time": 150.0122627499995,
                    "velocity": 0.5275590551181102,
                    "duration": 0.1124376458333245
                },
                {
                    "name": "C6",
                    "midi": 84,
                    "time": 150.1349219999995,
                    "velocity": 0.6771653543307087,
                    "duration": 0.12163708958334496
                },
                {
                    "name": "A#5",
                    "midi": 82,
                    "time": 150.2575812499995,
                    "velocity": 0.5511811023622047,
                    "duration": 0.12265924999999811
                },
                {
                    "name": "A5",
                    "midi": 81,
                    "time": 150.3802404999995,
                    "velocity": 0.5511811023622047,
                    "duration": 0.12265924999999811
                },
                {
                    "name": "A#5",
                    "midi": 82,
                    "time": 150.5028997499995,
                    "velocity": 0.5511811023622047,
                    "duration": 0.12265924999999811
                },
                {
                    "name": "D6",
                    "midi": 86,
                    "time": 150.6255589999995,
                    "velocity": 0.6771653543307087,
                    "duration": 0.12163708958334496
                },
                {
                    "name": "A#5",
                    "midi": 82,
                    "time": 150.7482182499995,
                    "velocity": 0.5433070866141733,
                    "duration": 0.12265924999999811
                },
                {
                    "name": "A5",
                    "midi": 81,
                    "time": 150.8708774999995,
                    "velocity": 0.5433070866141733,
                    "duration": 0.12265924999999811
                },
                {
                    "name": "G5",
                    "midi": 79,
                    "time": 150.9935367499995,
                    "velocity": 0.5433070866141733,
                    "duration": 0.12265924999999811
                },
                {
                    "name": "E6",
                    "midi": 88,
                    "time": 151.1161959999995,
                    "velocity": 0.6692913385826772,
                    "duration": 0.12163708958334496
                },
                {
                    "name": "A#5",
                    "midi": 82,
                    "time": 151.2388552499995,
                    "velocity": 0.5354330708661418,
                    "duration": 0.12265924999999811
                },
                {
                    "name": "A5",
                    "midi": 81,
                    "time": 151.3615144999995,
                    "velocity": 0.5354330708661418,
                    "duration": 0.12265924999999811
                },
                {
                    "name": "G5",
                    "midi": 79,
                    "time": 151.48417374999948,
                    "velocity": 0.5354330708661418,
                    "duration": 0.12265924999999811
                },
                {
                    "name": "F6",
                    "midi": 89,
                    "time": 151.60683299999948,
                    "velocity": 0.6299212598425197,
                    "duration": 0.12163708958334496
                },
                {
                    "name": "C6",
                    "midi": 84,
                    "time": 151.72949224999948,
                    "velocity": 0.48031496062992124,
                    "duration": 0.12265924999999811
                },
                {
                    "name": "A5",
                    "midi": 81,
                    "time": 151.85215149999948,
                    "velocity": 0.48031496062992124,
                    "duration": 0.12265924999999811
                },
                {
                    "name": "F5",
                    "midi": 77,
                    "time": 151.97481074999948,
                    "velocity": 0.48031496062992124,
                    "duration": 0.12265924999999811
                },
                {
                    "name": "G5",
                    "midi": 79,
                    "time": 152.09746999999948,
                    "velocity": 0.3543307086614173,
                    "duration": 0.061329625000013266
                },
                {
                    "name": "A5",
                    "midi": 81,
                    "time": 152.1587996249995,
                    "velocity": 0.30708661417322836,
                    "duration": 0.061329625000013266
                },
                {
                    "name": "G5",
                    "midi": 79,
                    "time": 152.2201292499995,
                    "velocity": 0.36220472440944884,
                    "duration": 0.061329625000013266
                },
                {
                    "name": "A5",
                    "midi": 81,
                    "time": 152.28145887499952,
                    "velocity": 0.31496062992125984,
                    "duration": 0.061329625000013266
                },
                {
                    "name": "G5",
                    "midi": 79,
                    "time": 152.34278849999953,
                    "velocity": 0.3779527559055118,
                    "duration": 0.061329625000013266
                },
                {
                    "name": "A5",
                    "midi": 81,
                    "time": 152.40411812499954,
                    "velocity": 0.3543307086614173,
                    "duration": 0.061329625000013266
                },
                {
                    "name": "G5",
                    "midi": 79,
                    "time": 152.46544774999956,
                    "velocity": 0.4015748031496063,
                    "duration": 0.061329625000013266
                },
                {
                    "name": "A5",
                    "midi": 81,
                    "time": 152.52677737499957,
                    "velocity": 0.36220472440944884,
                    "duration": 0.061329625000013266
                },
                {
                    "name": "G5",
                    "midi": 79,
                    "time": 152.58810699999958,
                    "velocity": 0.4015748031496063,
                    "duration": 0.061329625000013266
                },
                {
                    "name": "A5",
                    "midi": 81,
                    "time": 152.6494366249996,
                    "velocity": 0.3700787401574803,
                    "duration": 0.061329625000013266
                },
                {
                    "name": "G5",
                    "midi": 79,
                    "time": 152.7107662499996,
                    "velocity": 0.3700787401574803,
                    "duration": 0.061329625000013266
                },
                {
                    "name": "A5",
                    "midi": 81,
                    "time": 152.77209587499962,
                    "velocity": 0.3543307086614173,
                    "duration": 0.061329625000013266
                },
                {
                    "name": "G5",
                    "midi": 79,
                    "time": 152.83342549999963,
                    "velocity": 0.3700787401574803,
                    "duration": 0.061329625000013266
                },
                {
                    "name": "A5",
                    "midi": 81,
                    "time": 152.89475512499965,
                    "velocity": 0.33858267716535434,
                    "duration": 0.061329625000013266
                },
                {
                    "name": "G5",
                    "midi": 79,
                    "time": 152.95608474999966,
                    "velocity": 0.33858267716535434,
                    "duration": 0.04088641666666604
                },
                {
                    "name": "F5",
                    "midi": 77,
                    "time": 152.99697116666633,
                    "velocity": 0.33858267716535434,
                    "duration": 0.04088641666666604
                },
                {
                    "name": "G5",
                    "midi": 79,
                    "time": 153.03887974374965,
                    "velocity": 0.33858267716535434,
                    "duration": 0.04088641666666604
                },
                {
                    "name": "F5",
                    "midi": 77,
                    "time": 153.07874399999966,
                    "velocity": 0.5196850393700787,
                    "duration": 0.8586147499999868
                },
                {
                    "name": "G4",
                    "midi": 67,
                    "time": 154.06001799999964,
                    "velocity": 0.4566929133858268,
                    "duration": 0.12265924999999811
                },
                {
                    "name": "F4",
                    "midi": 65,
                    "time": 154.18267724999964,
                    "velocity": 0.4566929133858268,
                    "duration": 0.12265924999999811
                },
                {
                    "name": "E4",
                    "midi": 64,
                    "time": 154.30533649999964,
                    "velocity": 0.48031496062992124,
                    "duration": 0.12265924999999811
                },
                {
                    "name": "D4",
                    "midi": 62,
                    "time": 154.42799574999964,
                    "velocity": 0.5118110236220472,
                    "duration": 0.12265924999999811
                },
                {
                    "name": "D5",
                    "midi": 74,
                    "time": 154.55065499999964,
                    "velocity": 0.6456692913385826,
                    "duration": 0.7359554999999887
                },
                {
                    "name": "E5",
                    "midi": 76,
                    "time": 155.28661049999963,
                    "velocity": 0.5039370078740157,
                    "duration": 0.49063699999999244
                },
                {
                    "name": "F5",
                    "midi": 77,
                    "time": 155.77724749999962,
                    "velocity": 0.5433070866141733,
                    "duration": 0.49063699999999244
                },
                {
                    "name": "A4",
                    "midi": 69,
                    "time": 156.2678844999996,
                    "velocity": 0.5433070866141733,
                    "duration": 0.49063699999999244
                },
                {
                    "name": "G#4",
                    "midi": 68,
                    "time": 156.7585214999996,
                    "velocity": 0.5118110236220472,
                    "duration": 0.49063699999999244
                },
                {
                    "name": "G4",
                    "midi": 67,
                    "time": 157.2491584999996,
                    "velocity": 0.5354330708661418,
                    "duration": 0.49063699999999244
                },
                {
                    "name": "F4",
                    "midi": 65,
                    "time": 157.7397954999996,
                    "velocity": 0.5511811023622047,
                    "duration": 0.49063699999999244
                },
                {
                    "name": "A4",
                    "midi": 69,
                    "time": 158.23043249999958,
                    "velocity": 0.5433070866141733,
                    "duration": 0.24531849999999622
                },
                {
                    "name": "A4",
                    "midi": 69,
                    "time": 158.47575099999958,
                    "velocity": 0.5511811023622047,
                    "duration": 0.12265924999999811
                },
                {
                    "name": "A#4",
                    "midi": 70,
                    "time": 158.59841024999957,
                    "velocity": 0.3937007874015748,
                    "duration": 0.04088641666666604
                },
                {
                    "name": "A4",
                    "midi": 69,
                    "time": 158.63929666666624,
                    "velocity": 0.33070866141732286,
                    "duration": 0.04088641666666604
                },
                {
                    "name": "G4",
                    "midi": 67,
                    "time": 158.68120524374956,
                    "velocity": 0.30708661417322836,
                    "duration": 0.04088641666666604
                },
                {
                    "name": "A4",
                    "midi": 69,
                    "time": 158.72106949999957,
                    "velocity": 0.4645669291338583,
                    "duration": 0.12265924999999811
                },
                {
                    "name": "A#4",
                    "midi": 70,
                    "time": 158.84372874999957,
                    "velocity": 0.3858267716535433,
                    "duration": 0.1124376458333245
                },
                {
                    "name": "D4",
                    "midi": 62,
                    "time": 158.96638799999957,
                    "velocity": 0.3937007874015748,
                    "duration": 0.49063699999999244
                },
                {
                    "name": "C#4",
                    "midi": 61,
                    "time": 159.45702499999956,
                    "velocity": 0.3543307086614173,
                    "duration": 0.24531849999999622
                },
                {
                    "name": "A#4",
                    "midi": 70,
                    "time": 159.94766199999955,
                    "velocity": 0.4566929133858268,
                    "duration": 0.12265924999999811
                },
                {
                    "name": "A4",
                    "midi": 69,
                    "time": 160.07032124999955,
                    "velocity": 0.4566929133858268,
                    "duration": 0.12265924999999811
                },
                {
                    "name": "G4",
                    "midi": 67,
                    "time": 160.19298049999955,
                    "velocity": 0.48031496062992124,
                    "duration": 0.12265924999999811
                },
                {
                    "name": "F4",
                    "midi": 65,
                    "time": 160.31563974999955,
                    "velocity": 0.5118110236220472,
                    "duration": 0.12265924999999811
                },
                {
                    "name": "D5",
                    "midi": 74,
                    "time": 160.43829899999955,
                    "velocity": 0.6377952755905512,
                    "duration": 0.12163708958334496
                },
                {
                    "name": "C5",
                    "midi": 72,
                    "time": 160.56095824999954,
                    "velocity": 0.49606299212598426,
                    "duration": 0.12265924999999811
                },
                {
                    "name": "A#4",
                    "midi": 70,
                    "time": 160.68361749999954,
                    "velocity": 0.49606299212598426,
                    "duration": 0.12265924999999811
                },
                {
                    "name": "A4",
                    "midi": 69,
                    "time": 160.80627674999954,
                    "velocity": 0.49606299212598426,
                    "duration": 0.12265924999999811
                },
                {
                    "name": "G5",
                    "midi": 79,
                    "time": 160.92893599999954,
                    "velocity": 0.6141732283464567,
                    "duration": 0.12163708958334496
                },
                {
                    "name": "F5",
                    "midi": 77,
                    "time": 161.05159524999954,
                    "velocity": 0.5039370078740157,
                    "duration": 0.12265924999999811
                },
                {
                    "name": "E5",
                    "midi": 76,
                    "time": 161.17425449999953,
                    "velocity": 0.5039370078740157,
                    "duration": 0.12265924999999811
                },
                {
                    "name": "F5",
                    "midi": 77,
                    "time": 161.29691374999953,
                    "velocity": 0.5039370078740157,
                    "duration": 0.12265924999999811
                },
                {
                    "name": "A#5",
                    "midi": 82,
                    "time": 161.41957299999953,
                    "velocity": 0.6220472440944882,
                    "duration": 0.12163708958334496
                },
                {
                    "name": "A5",
                    "midi": 81,
                    "time": 161.54223224999953,
                    "velocity": 0.5196850393700787,
                    "duration": 0.12265924999999811
                },
                {
                    "name": "G5",
                    "midi": 79,
                    "time": 161.66489149999953,
                    "velocity": 0.5275590551181102,
                    "duration": 0.12265924999999811
                },
                {
                    "name": "F5",
                    "midi": 77,
                    "time": 161.78755074999953,
                    "velocity": 0.5275590551181102,
                    "duration": 0.1124376458333245
                },
                {
                    "name": "C6",
                    "midi": 84,
                    "time": 161.91020999999952,
                    "velocity": 0.6771653543307087,
                    "duration": 0.12163708958334496
                },
                {
                    "name": "A#5",
                    "midi": 82,
                    "time": 162.03286924999952,
                    "velocity": 0.5511811023622047,
                    "duration": 0.12265924999999811
                },
                {
                    "name": "A5",
                    "midi": 81,
                    "time": 162.15552849999952,
                    "velocity": 0.5511811023622047,
                    "duration": 0.12265924999999811
                },
                {
                    "name": "A#5",
                    "midi": 82,
                    "time": 162.27818774999952,
                    "velocity": 0.5511811023622047,
                    "duration": 0.12265924999999811
                },
                {
                    "name": "D6",
                    "midi": 86,
                    "time": 162.40084699999952,
                    "velocity": 0.6771653543307087,
                    "duration": 0.12163708958334496
                },
                {
                    "name": "A#5",
                    "midi": 82,
                    "time": 162.5235062499995,
                    "velocity": 0.5433070866141733,
                    "duration": 0.12265924999999811
                },
                {
                    "name": "A5",
                    "midi": 81,
                    "time": 162.6461654999995,
                    "velocity": 0.5433070866141733,
                    "duration": 0.12265924999999811
                },
                {
                    "name": "G5",
                    "midi": 79,
                    "time": 162.7688247499995,
                    "velocity": 0.5433070866141733,
                    "duration": 0.12265924999999811
                },
                {
                    "name": "E6",
                    "midi": 88,
                    "time": 162.8914839999995,
                    "velocity": 0.6692913385826772,
                    "duration": 0.12163708958334496
                },
                {
                    "name": "A#5",
                    "midi": 82,
                    "time": 163.0141432499995,
                    "velocity": 0.5354330708661418,
                    "duration": 0.12265924999999811
                },
                {
                    "name": "A5",
                    "midi": 81,
                    "time": 163.1368024999995,
                    "velocity": 0.5354330708661418,
                    "duration": 0.12265924999999811
                },
                {
                    "name": "G5",
                    "midi": 79,
                    "time": 163.2594617499995,
                    "velocity": 0.5354330708661418,
                    "duration": 0.12265924999999811
                },
                {
                    "name": "F6",
                    "midi": 89,
                    "time": 163.3821209999995,
                    "velocity": 0.6299212598425197,
                    "duration": 0.12163708958334496
                },
                {
                    "name": "C6",
                    "midi": 84,
                    "time": 163.5047802499995,
                    "velocity": 0.48031496062992124,
                    "duration": 0.12265924999999811
                },
                {
                    "name": "A5",
                    "midi": 81,
                    "time": 163.6274394999995,
                    "velocity": 0.48031496062992124,
                    "duration": 0.12265924999999811
                },
                {
                    "name": "F5",
                    "midi": 77,
                    "time": 163.7500987499995,
                    "velocity": 0.48031496062992124,
                    "duration": 0.12265924999999811
                },
                {
                    "name": "G5",
                    "midi": 79,
                    "time": 163.8727579999995,
                    "velocity": 0.3543307086614173,
                    "duration": 0.061329625000013266
                },
                {
                    "name": "A5",
                    "midi": 81,
                    "time": 163.9340876249995,
                    "velocity": 0.30708661417322836,
                    "duration": 0.061329625000013266
                },
                {
                    "name": "G5",
                    "midi": 79,
                    "time": 163.99541724999952,
                    "velocity": 0.36220472440944884,
                    "duration": 0.061329625000013266
                },
                {
                    "name": "A5",
                    "midi": 81,
                    "time": 164.05674687499953,
                    "velocity": 0.31496062992125984,
                    "duration": 0.061329625000013266
                },
                {
                    "name": "G5",
                    "midi": 79,
                    "time": 164.11807649999955,
                    "velocity": 0.3779527559055118,
                    "duration": 0.061329625000013266
                },
                {
                    "name": "A5",
                    "midi": 81,
                    "time": 164.17940612499956,
                    "velocity": 0.3543307086614173,
                    "duration": 0.061329625000013266
                },
                {
                    "name": "G5",
                    "midi": 79,
                    "time": 164.24073574999957,
                    "velocity": 0.4015748031496063,
                    "duration": 0.061329625000013266
                },
                {
                    "name": "A5",
                    "midi": 81,
                    "time": 164.3020653749996,
                    "velocity": 0.36220472440944884,
                    "duration": 0.061329625000013266
                },
                {
                    "name": "G5",
                    "midi": 79,
                    "time": 164.3633949999996,
                    "velocity": 0.4015748031496063,
                    "duration": 0.061329625000013266
                },
                {
                    "name": "A5",
                    "midi": 81,
                    "time": 164.4247246249996,
                    "velocity": 0.3700787401574803,
                    "duration": 0.061329625000013266
                },
                {
                    "name": "G5",
                    "midi": 79,
                    "time": 164.48605424999963,
                    "velocity": 0.3700787401574803,
                    "duration": 0.061329625000013266
                },
                {
                    "name": "A5",
                    "midi": 81,
                    "time": 164.54738387499964,
                    "velocity": 0.3543307086614173,
                    "duration": 0.061329625000013266
                },
                {
                    "name": "G5",
                    "midi": 79,
                    "time": 164.60871349999965,
                    "velocity": 0.3700787401574803,
                    "duration": 0.061329625000013266
                },
                {
                    "name": "A5",
                    "midi": 81,
                    "time": 164.67004312499967,
                    "velocity": 0.33858267716535434,
                    "duration": 0.061329625000013266
                },
                {
                    "name": "G5",
                    "midi": 79,
                    "time": 164.73137274999968,
                    "velocity": 0.33858267716535434,
                    "duration": 0.04088641666666604
                },
                {
                    "name": "F5",
                    "midi": 77,
                    "time": 164.77225916666634,
                    "velocity": 0.33858267716535434,
                    "duration": 0.04088641666666604
                },
                {
                    "name": "G5",
                    "midi": 79,
                    "time": 164.81416774374966,
                    "velocity": 0.33858267716535434,
                    "duration": 0.04088641666666604
                },
                {
                    "name": "F5",
                    "midi": 77,
                    "time": 164.85403199999968,
                    "velocity": 0.5196850393700787,
                    "duration": 0.8586147499999868
                },
                {
                    "name": "A#5",
                    "midi": 82,
                    "time": 165.83530599999966,
                    "velocity": 0.3858267716535433,
                    "duration": 0.12265924999999811
                },
                {
                    "name": "A5",
                    "midi": 81,
                    "time": 165.95796524999966,
                    "velocity": 0.3858267716535433,
                    "duration": 0.12265924999999811
                },
                {
                    "name": "G5",
                    "midi": 79,
                    "time": 166.08062449999966,
                    "velocity": 0.4015748031496063,
                    "duration": 0.12265924999999811
                },
                {
                    "name": "F5",
                    "midi": 77,
                    "time": 166.20328374999966,
                    "velocity": 0.4330708661417323,
                    "duration": 0.12265924999999811
                },
                {
                    "name": "C6",
                    "midi": 84,
                    "time": 166.32594299999965,
                    "velocity": 0.5039370078740157,
                    "duration": 0.6132962499999906
                },
                {
                    "name": "D#5",
                    "midi": 75,
                    "time": 166.93923924999964,
                    "velocity": 0.36220472440944884,
                    "duration": 0.12265924999999811
                },
                {
                    "name": "D5",
                    "midi": 74,
                    "time": 167.06189849999964,
                    "velocity": 0.3858267716535433,
                    "duration": 0.12265924999999811
                },
                {
                    "name": "D#5",
                    "midi": 75,
                    "time": 167.18455774999964,
                    "velocity": 0.36220472440944884,
                    "duration": 0.12265924999999811
                },
                {
                    "name": "F5",
                    "midi": 77,
                    "time": 167.30721699999964,
                    "velocity": 0.4330708661417323,
                    "duration": 0.12265924999999811
                },
                {
                    "name": "D#5",
                    "midi": 75,
                    "time": 167.42987624999964,
                    "velocity": 0.3700787401574803,
                    "duration": 0.12265924999999811
                },
                {
                    "name": "D5",
                    "midi": 74,
                    "time": 167.55253549999964,
                    "velocity": 0.3858267716535433,
                    "duration": 0.12265924999999811
                },
                {
                    "name": "D#5",
                    "midi": 75,
                    "time": 167.67519474999963,
                    "velocity": 0.3464566929133858,
                    "duration": 0.1124376458333245
                },
                {
                    "name": "D5",
                    "midi": 74,
                    "time": 167.79785399999963,
                    "velocity": 0.41732283464566927,
                    "duration": 0.12163708958334496
                },
                {
                    "name": "A5",
                    "midi": 81,
                    "time": 167.92051324999963,
                    "velocity": 0.3543307086614173,
                    "duration": 0.12265924999999811
                },
                {
                    "name": "A#5",
                    "midi": 82,
                    "time": 168.04317249999963,
                    "velocity": 0.3858267716535433,
                    "duration": 0.12265924999999811
                },
                {
                    "name": "A5",
                    "midi": 81,
                    "time": 168.16583174999963,
                    "velocity": 0.3543307086614173,
                    "duration": 0.12265924999999811
                },
                {
                    "name": "D6",
                    "midi": 86,
                    "time": 168.28849099999962,
                    "velocity": 0.47244094488188976,
                    "duration": 0.12163708958334496
                },
                {
                    "name": "C6",
                    "midi": 84,
                    "time": 168.41115024999962,
                    "velocity": 0.3700787401574803,
                    "duration": 0.12265924999999811
                },
                {
                    "name": "A#5",
                    "midi": 82,
                    "time": 168.53380949999962,
                    "velocity": 0.4015748031496063,
                    "duration": 0.12265924999999811
                },
                {
                    "name": "A5",
                    "midi": 81,
                    "time": 168.65646874999962,
                    "velocity": 0.3700787401574803,
                    "duration": 0.12265924999999811
                },
                {
                    "name": "A#5",
                    "midi": 82,
                    "time": 168.77912799999962,
                    "velocity": 0.4566929133858268,
                    "duration": 0.12163708958334496
                },
                {
                    "name": "G5",
                    "midi": 79,
                    "time": 168.90178724999961,
                    "velocity": 0.3937007874015748,
                    "duration": 0.12265924999999811
                },
                {
                    "name": "A5",
                    "midi": 81,
                    "time": 169.0244464999996,
                    "velocity": 0.41732283464566927,
                    "duration": 0.12265924999999811
                },
                {
                    "name": "A#5",
                    "midi": 82,
                    "time": 169.1471057499996,
                    "velocity": 0.3937007874015748,
                    "duration": 0.12265924999999811
                },
                {
                    "name": "C6",
                    "midi": 84,
                    "time": 169.2697649999996,
                    "velocity": 0.47244094488188976,
                    "duration": 0.12163708958334496
                },
                {
                    "name": "A#5",
                    "midi": 82,
                    "time": 169.3924242499996,
                    "velocity": 0.4015748031496063,
                    "duration": 0.12265924999999811
                },
                {
                    "name": "A5",
                    "midi": 81,
                    "time": 169.5150834999996,
                    "velocity": 0.4015748031496063,
                    "duration": 0.12265924999999811
                },
                {
                    "name": "G5",
                    "midi": 79,
                    "time": 169.6377427499996,
                    "velocity": 0.3937007874015748,
                    "duration": 0.12265924999999811
                },
                {
                    "name": "A5",
                    "midi": 81,
                    "time": 169.7604019999996,
                    "velocity": 0.4409448818897638,
                    "duration": 0.12163708958334496
                },
                {
                    "name": "F5",
                    "midi": 77,
                    "time": 169.8830612499996,
                    "velocity": 0.3858267716535433,
                    "duration": 0.12265924999999811
                },
                {
                    "name": "E5",
                    "midi": 76,
                    "time": 170.0057204999996,
                    "velocity": 0.3858267716535433,
                    "duration": 0.12265924999999811
                },
                {
                    "name": "D5",
                    "midi": 74,
                    "time": 170.1283797499996,
                    "velocity": 0.3858267716535433,
                    "duration": 0.12265924999999811
                },
                {
                    "name": "A#5",
                    "midi": 82,
                    "time": 170.2510389999996,
                    "velocity": 0.4330708661417323,
                    "duration": 0.12265924999999811
                },
                {
                    "name": "G5",
                    "midi": 79,
                    "time": 170.3736982499996,
                    "velocity": 0.3779527559055118,
                    "duration": 0.12265924999999811
                },
                {
                    "name": "F5",
                    "midi": 77,
                    "time": 170.4963574999996,
                    "velocity": 0.3779527559055118,
                    "duration": 0.12265924999999811
                },
                {
                    "name": "E5",
                    "midi": 76,
                    "time": 170.6190167499996,
                    "velocity": 0.3228346456692913,
                    "duration": 0.1124376458333245
                },
                {
                    "name": "D5",
                    "midi": 74,
                    "time": 170.7416759999996,
                    "velocity": 0.33070866141732286,
                    "duration": 0.49063699999999244
                },
                {
                    "name": "C#5",
                    "midi": 73,
                    "time": 171.23231299999958,
                    "velocity": 0.2992125984251969,
                    "duration": 0.24531849999999622
                },
                {
                    "name": "A4",
                    "midi": 69,
                    "time": 171.72294999999957,
                    "velocity": 0.3700787401574803,
                    "duration": 0.12265924999999811
                },
                {
                    "name": "G4",
                    "midi": 67,
                    "time": 171.84560924999957,
                    "velocity": 0.3858267716535433,
                    "duration": 0.12265924999999811
                },
                {
                    "name": "F4",
                    "midi": 65,
                    "time": 171.96826849999957,
                    "velocity": 0.3937007874015748,
                    "duration": 0.12265924999999811
                },
                {
                    "name": "E4",
                    "midi": 64,
                    "time": 172.09092774999957,
                    "velocity": 0.4094488188976378,
                    "duration": 0.12265924999999811
                },
                {
                    "name": "G5",
                    "midi": 79,
                    "time": 172.21358699999956,
                    "velocity": 0.5039370078740157,
                    "duration": 0.6132962499999906
                },
                {
                    "name": "A5",
                    "midi": 81,
                    "time": 172.82688324999955,
                    "velocity": 0.5039370078740157,
                    "duration": 0.12265924999999811
                },
                {
                    "name": "G5",
                    "midi": 79,
                    "time": 172.94954249999955,
                    "velocity": 0.5039370078740157,
                    "duration": 0.12265924999999811
                },
                {
                    "name": "E5",
                    "midi": 76,
                    "time": 173.07220174999955,
                    "velocity": 0.5039370078740157,
                    "duration": 0.12265924999999811
                },
                {
                    "name": "C#6",
                    "midi": 85,
                    "time": 173.19486099999955,
                    "velocity": 0.5826771653543307,
                    "duration": 0.12265924999999811
                },
                {
                    "name": "D6",
                    "midi": 86,
                    "time": 173.31752024999955,
                    "velocity": 0.5039370078740157,
                    "duration": 0.12265924999999811
                },
                {
                    "name": "C#6",
                    "midi": 85,
                    "time": 173.44017949999954,
                    "velocity": 0.5433070866141733,
                    "duration": 0.12265924999999811
                },
                {
                    "name": "A#5",
                    "midi": 82,
                    "time": 173.56283874999954,
                    "velocity": 0.5354330708661418,
                    "duration": 0.1124376458333245
                },
                {
                    "name": "D6",
                    "midi": 86,
                    "time": 173.68549799999954,
                    "velocity": 0.6771653543307087,
                    "duration": 0.12265924999999811
                },
                {
                    "name": "E6",
                    "midi": 88,
                    "time": 173.80815724999954,
                    "velocity": 0.5511811023622047,
                    "duration": 0.12265924999999811
                },
                {
                    "name": "D6",
                    "midi": 86,
                    "time": 173.93081649999954,
                    "velocity": 0.5984251968503937,
                    "duration": 0.12265924999999811
                },
                {
                    "name": "A5",
                    "midi": 81,
                    "time": 174.05347574999954,
                    "velocity": 0.5511811023622047,
                    "duration": 0.12265924999999811
                },
                {
                    "name": "E6",
                    "midi": 88,
                    "time": 174.17613499999953,
                    "velocity": 0.6456692913385826,
                    "duration": 0.12265924999999811
                },
                {
                    "name": "F6",
                    "midi": 89,
                    "time": 174.29879424999953,
                    "velocity": 0.5354330708661418,
                    "duration": 0.12265924999999811
                },
                {
                    "name": "E6",
                    "midi": 88,
                    "time": 174.42145349999953,
                    "velocity": 0.6062992125984252,
                    "duration": 0.12265924999999811
                },
                {
                    "name": "A5",
                    "midi": 81,
                    "time": 174.54411274999953,
                    "velocity": 0.5354330708661418,
                    "duration": 0.12265924999999811
                },
                {
                    "name": "F6",
                    "midi": 89,
                    "time": 174.66677199999953,
                    "velocity": 0.6377952755905512,
                    "duration": 0.12265924999999811
                },
                {
                    "name": "D6",
                    "midi": 86,
                    "time": 174.78943124999952,
                    "velocity": 0.5354330708661418,
                    "duration": 0.12265924999999811
                },
                {
                    "name": "C#6",
                    "midi": 85,
                    "time": 174.91209049999952,
                    "velocity": 0.5826771653543307,
                    "duration": 0.12265924999999811
                },
                {
                    "name": "D6",
                    "midi": 86,
                    "time": 175.03474974999952,
                    "velocity": 0.5354330708661418,
                    "duration": 0.12265924999999811
                },
                {
                    "name": "C6",
                    "midi": 84,
                    "time": 175.15740899999952,
                    "velocity": 0.6299212598425197,
                    "duration": 0.12265924999999811
                },
                {
                    "name": "A#5",
                    "midi": 82,
                    "time": 175.28006824999952,
                    "velocity": 0.48031496062992124,
                    "duration": 0.12265924999999811
                },
                {
                    "name": "A5",
                    "midi": 81,
                    "time": 175.40272749999951,
                    "velocity": 0.5354330708661418,
                    "duration": 0.12265924999999811
                },
                {
                    "name": "G5",
                    "midi": 79,
                    "time": 175.5253867499995,
                    "velocity": 0.48031496062992124,
                    "duration": 0.12265924999999811
                },
                {
                    "name": "F5",
                    "midi": 77,
                    "time": 175.6480459999995,
                    "velocity": 0.5196850393700787,
                    "duration": 0.49063699999999244
                },
                {
                    "name": "E5",
                    "midi": 76,
                    "time": 176.1386829999995,
                    "velocity": 0.3700787401574803,
                    "duration": 0.061329625000013266
                },
                {
                    "name": "F5",
                    "midi": 77,
                    "time": 176.20001262499952,
                    "velocity": 0.3464566929133858,
                    "duration": 0.061329625000013266
                },
                {
                    "name": "E5",
                    "midi": 76,
                    "time": 176.26134224999953,
                    "velocity": 0.3700787401574803,
                    "duration": 0.061329625000013266
                },
                {
                    "name": "F5",
                    "midi": 77,
                    "time": 176.32267187499954,
                    "velocity": 0.3543307086614173,
                    "duration": 0.061329625000013266
                },
                {
                    "name": "E5",
                    "midi": 76,
                    "time": 176.38400149999956,
                    "velocity": 0.3700787401574803,
                    "duration": 0.061329625000013266
                },
                {
                    "name": "F5",
                    "midi": 77,
                    "time": 176.44533112499957,
                    "velocity": 0.33858267716535434,
                    "duration": 0.061329625000013266
                },
                {
                    "name": "E5",
                    "midi": 76,
                    "time": 176.50666074999958,
                    "velocity": 0.33858267716535434,
                    "duration": 0.04088641666666604
                },
                {
                    "name": "D5",
                    "midi": 74,
                    "time": 176.54754716666625,
                    "velocity": 0.33858267716535434,
                    "duration": 0.04088641666666604
                },
                {
                    "name": "E5",
                    "midi": 76,
                    "time": 176.58945574374957,
                    "velocity": 0.33858267716535434,
                    "duration": 0.04088641666666604
                },
                {
                    "name": "D5",
                    "midi": 74,
                    "time": 176.62931999999958,
                    "velocity": 0.5196850393700787,
                    "duration": 0.8586147499999868
                },
                {
                    "name": "A#5",
                    "midi": 82,
                    "time": 177.61059399999957,
                    "velocity": 0.3858267716535433,
                    "duration": 0.12265924999999811
                },
                {
                    "name": "A5",
                    "midi": 81,
                    "time": 177.73325324999956,
                    "velocity": 0.3858267716535433,
                    "duration": 0.12265924999999811
                },
                {
                    "name": "G5",
                    "midi": 79,
                    "time": 177.85591249999956,
                    "velocity": 0.4015748031496063,
                    "duration": 0.12265924999999811
                },
                {
                    "name": "F5",
                    "midi": 77,
                    "time": 177.97857174999956,
                    "velocity": 0.4330708661417323,
                    "duration": 0.12265924999999811
                },
                {
                    "name": "C6",
                    "midi": 84,
                    "time": 178.10123099999956,
                    "velocity": 0.5039370078740157,
                    "duration": 0.6132962499999906
                },
                {
                    "name": "D#5",
                    "midi": 75,
                    "time": 178.71452724999955,
                    "velocity": 0.36220472440944884,
                    "duration": 0.12265924999999811
                },
                {
                    "name": "D5",
                    "midi": 74,
                    "time": 178.83718649999955,
                    "velocity": 0.3858267716535433,
                    "duration": 0.12265924999999811
                },
                {
                    "name": "D#5",
                    "midi": 75,
                    "time": 178.95984574999954,
                    "velocity": 0.36220472440944884,
                    "duration": 0.12265924999999811
                },
                {
                    "name": "F5",
                    "midi": 77,
                    "time": 179.08250499999954,
                    "velocity": 0.4330708661417323,
                    "duration": 0.12265924999999811
                },
                {
                    "name": "D#5",
                    "midi": 75,
                    "time": 179.20516424999954,
                    "velocity": 0.3700787401574803,
                    "duration": 0.12265924999999811
                },
                {
                    "name": "D5",
                    "midi": 74,
                    "time": 179.32782349999954,
                    "velocity": 0.3858267716535433,
                    "duration": 0.12265924999999811
                },
                {
                    "name": "D#5",
                    "midi": 75,
                    "time": 179.45048274999954,
                    "velocity": 0.3464566929133858,
                    "duration": 0.1124376458333245
                },
                {
                    "name": "D5",
                    "midi": 74,
                    "time": 179.57314199999954,
                    "velocity": 0.41732283464566927,
                    "duration": 0.12163708958334496
                },
                {
                    "name": "A5",
                    "midi": 81,
                    "time": 179.69580124999953,
                    "velocity": 0.3543307086614173,
                    "duration": 0.12265924999999811
                },
                {
                    "name": "A#5",
                    "midi": 82,
                    "time": 179.81846049999953,
                    "velocity": 0.3858267716535433,
                    "duration": 0.12265924999999811
                },
                {
                    "name": "A5",
                    "midi": 81,
                    "time": 179.94111974999953,
                    "velocity": 0.3543307086614173,
                    "duration": 0.12265924999999811
                },
                {
                    "name": "D6",
                    "midi": 86,
                    "time": 180.06377899999953,
                    "velocity": 0.47244094488188976,
                    "duration": 0.12163708958334496
                },
                {
                    "name": "C6",
                    "midi": 84,
                    "time": 180.18643824999953,
                    "velocity": 0.3700787401574803,
                    "duration": 0.12265924999999811
                },
                {
                    "name": "A#5",
                    "midi": 82,
                    "time": 180.30909749999952,
                    "velocity": 0.4015748031496063,
                    "duration": 0.12265924999999811
                },
                {
                    "name": "A5",
                    "midi": 81,
                    "time": 180.43175674999952,
                    "velocity": 0.3700787401574803,
                    "duration": 0.12265924999999811
                },
                {
                    "name": "A#5",
                    "midi": 82,
                    "time": 180.55441599999952,
                    "velocity": 0.4566929133858268,
                    "duration": 0.12163708958334496
                },
                {
                    "name": "G5",
                    "midi": 79,
                    "time": 180.67707524999952,
                    "velocity": 0.3937007874015748,
                    "duration": 0.12265924999999811
                },
                {
                    "name": "A5",
                    "midi": 81,
                    "time": 180.79973449999952,
                    "velocity": 0.41732283464566927,
                    "duration": 0.12265924999999811
                },
                {
                    "name": "A#5",
                    "midi": 82,
                    "time": 180.92239374999951,
                    "velocity": 0.3937007874015748,
                    "duration": 0.12265924999999811
                },
                {
                    "name": "C6",
                    "midi": 84,
                    "time": 181.0450529999995,
                    "velocity": 0.47244094488188976,
                    "duration": 0.12163708958334496
                },
                {
                    "name": "A#5",
                    "midi": 82,
                    "time": 181.1677122499995,
                    "velocity": 0.4015748031496063,
                    "duration": 0.12265924999999811
                },
                {
                    "name": "A5",
                    "midi": 81,
                    "time": 181.2903714999995,
                    "velocity": 0.4015748031496063,
                    "duration": 0.12265924999999811
                },
                {
                    "name": "G5",
                    "midi": 79,
                    "time": 181.4130307499995,
                    "velocity": 0.3937007874015748,
                    "duration": 0.12265924999999811
                },
                {
                    "name": "A5",
                    "midi": 81,
                    "time": 181.5356899999995,
                    "velocity": 0.4409448818897638,
                    "duration": 0.12163708958334496
                },
                {
                    "name": "F5",
                    "midi": 77,
                    "time": 181.6583492499995,
                    "velocity": 0.3858267716535433,
                    "duration": 0.12265924999999811
                },
                {
                    "name": "E5",
                    "midi": 76,
                    "time": 181.7810084999995,
                    "velocity": 0.3858267716535433,
                    "duration": 0.12265924999999811
                },
                {
                    "name": "D5",
                    "midi": 74,
                    "time": 181.9036677499995,
                    "velocity": 0.3858267716535433,
                    "duration": 0.12265924999999811
                },
                {
                    "name": "A#5",
                    "midi": 82,
                    "time": 182.0263269999995,
                    "velocity": 0.4330708661417323,
                    "duration": 0.12265924999999811
                },
                {
                    "name": "G5",
                    "midi": 79,
                    "time": 182.1489862499995,
                    "velocity": 0.3779527559055118,
                    "duration": 0.12265924999999811
                },
                {
                    "name": "F5",
                    "midi": 77,
                    "time": 182.2716454999995,
                    "velocity": 0.3779527559055118,
                    "duration": 0.12265924999999811
                },
                {
                    "name": "E5",
                    "midi": 76,
                    "time": 182.3943047499995,
                    "velocity": 0.3228346456692913,
                    "duration": 0.1124376458333245
                },
                {
                    "name": "D5",
                    "midi": 74,
                    "time": 182.5169639999995,
                    "velocity": 0.33070866141732286,
                    "duration": 0.49063699999999244
                },
                {
                    "name": "C#5",
                    "midi": 73,
                    "time": 183.00760099999948,
                    "velocity": 0.2992125984251969,
                    "duration": 0.24531849999999622
                },
                {
                    "name": "A4",
                    "midi": 69,
                    "time": 183.49823799999947,
                    "velocity": 0.3700787401574803,
                    "duration": 0.12265924999999811
                },
                {
                    "name": "G4",
                    "midi": 67,
                    "time": 183.62089724999947,
                    "velocity": 0.3858267716535433,
                    "duration": 0.12265924999999811
                },
                {
                    "name": "F4",
                    "midi": 65,
                    "time": 183.74355649999947,
                    "velocity": 0.3937007874015748,
                    "duration": 0.12265924999999811
                },
                {
                    "name": "E4",
                    "midi": 64,
                    "time": 183.86621574999947,
                    "velocity": 0.4094488188976378,
                    "duration": 0.12265924999999811
                },
                {
                    "name": "G5",
                    "midi": 79,
                    "time": 183.98887499999947,
                    "velocity": 0.5039370078740157,
                    "duration": 0.6132962499999906
                },
                {
                    "name": "A5",
                    "midi": 81,
                    "time": 184.60217124999946,
                    "velocity": 0.5039370078740157,
                    "duration": 0.12265924999999811
                },
                {
                    "name": "G5",
                    "midi": 79,
                    "time": 184.72483049999946,
                    "velocity": 0.5039370078740157,
                    "duration": 0.12265924999999811
                },
                {
                    "name": "E5",
                    "midi": 76,
                    "time": 184.84748974999945,
                    "velocity": 0.5039370078740157,
                    "duration": 0.12265924999999811
                },
                {
                    "name": "C#6",
                    "midi": 85,
                    "time": 184.97014899999945,
                    "velocity": 0.5826771653543307,
                    "duration": 0.12265924999999811
                },
                {
                    "name": "D6",
                    "midi": 86,
                    "time": 185.09280824999945,
                    "velocity": 0.5039370078740157,
                    "duration": 0.12265924999999811
                },
                {
                    "name": "C#6",
                    "midi": 85,
                    "time": 185.21546749999945,
                    "velocity": 0.5433070866141733,
                    "duration": 0.12265924999999811
                },
                {
                    "name": "A#5",
                    "midi": 82,
                    "time": 185.33812674999945,
                    "velocity": 0.5354330708661418,
                    "duration": 0.1124376458333245
                },
                {
                    "name": "D6",
                    "midi": 86,
                    "time": 185.46078599999944,
                    "velocity": 0.6771653543307087,
                    "duration": 0.12265924999999811
                },
                {
                    "name": "E6",
                    "midi": 88,
                    "time": 185.58344524999944,
                    "velocity": 0.5511811023622047,
                    "duration": 0.12265924999999811
                },
                {
                    "name": "D6",
                    "midi": 86,
                    "time": 185.70610449999944,
                    "velocity": 0.5984251968503937,
                    "duration": 0.12265924999999811
                },
                {
                    "name": "A5",
                    "midi": 81,
                    "time": 185.82876374999944,
                    "velocity": 0.5511811023622047,
                    "duration": 0.12265924999999811
                },
                {
                    "name": "E6",
                    "midi": 88,
                    "time": 185.95142299999944,
                    "velocity": 0.6456692913385826,
                    "duration": 0.12265924999999811
                },
                {
                    "name": "F6",
                    "midi": 89,
                    "time": 186.07408224999944,
                    "velocity": 0.5354330708661418,
                    "duration": 0.12265924999999811
                },
                {
                    "name": "E6",
                    "midi": 88,
                    "time": 186.19674149999943,
                    "velocity": 0.6062992125984252,
                    "duration": 0.12265924999999811
                },
                {
                    "name": "A5",
                    "midi": 81,
                    "time": 186.31940074999943,
                    "velocity": 0.5354330708661418,
                    "duration": 0.12265924999999811
                },
                {
                    "name": "F6",
                    "midi": 89,
                    "time": 186.44205999999943,
                    "velocity": 0.6377952755905512,
                    "duration": 0.12265924999999811
                },
                {
                    "name": "D6",
                    "midi": 86,
                    "time": 186.56471924999943,
                    "velocity": 0.5354330708661418,
                    "duration": 0.12265924999999811
                },
                {
                    "name": "C#6",
                    "midi": 85,
                    "time": 186.68737849999943,
                    "velocity": 0.5826771653543307,
                    "duration": 0.12265924999999811
                },
                {
                    "name": "D6",
                    "midi": 86,
                    "time": 186.81003774999942,
                    "velocity": 0.5354330708661418,
                    "duration": 0.12265924999999811
                },
                {
                    "name": "C6",
                    "midi": 84,
                    "time": 186.93269699999942,
                    "velocity": 0.6299212598425197,
                    "duration": 0.12265924999999811
                },
                {
                    "name": "A#5",
                    "midi": 82,
                    "time": 187.05535624999942,
                    "velocity": 0.48031496062992124,
                    "duration": 0.12265924999999811
                },
                {
                    "name": "A5",
                    "midi": 81,
                    "time": 187.17801549999942,
                    "velocity": 0.5354330708661418,
                    "duration": 0.12265924999999811
                },
                {
                    "name": "G5",
                    "midi": 79,
                    "time": 187.30067474999942,
                    "velocity": 0.48031496062992124,
                    "duration": 0.12265924999999811
                },
                {
                    "name": "F5",
                    "midi": 77,
                    "time": 187.42333399999941,
                    "velocity": 0.5196850393700787,
                    "duration": 0.49063699999999244
                },
                {
                    "name": "E5",
                    "midi": 76,
                    "time": 187.9139709999994,
                    "velocity": 0.3700787401574803,
                    "duration": 0.061329625000013266
                },
                {
                    "name": "F5",
                    "midi": 77,
                    "time": 187.97530062499942,
                    "velocity": 0.3464566929133858,
                    "duration": 0.061329625000013266
                },
                {
                    "name": "E5",
                    "midi": 76,
                    "time": 188.03663024999943,
                    "velocity": 0.3700787401574803,
                    "duration": 0.061329625000013266
                },
                {
                    "name": "F5",
                    "midi": 77,
                    "time": 188.09795987499945,
                    "velocity": 0.3543307086614173,
                    "duration": 0.061329625000013266
                },
                {
                    "name": "E5",
                    "midi": 76,
                    "time": 188.15928949999946,
                    "velocity": 0.3700787401574803,
                    "duration": 0.061329625000013266
                },
                {
                    "name": "F5",
                    "midi": 77,
                    "time": 188.22061912499947,
                    "velocity": 0.33858267716535434,
                    "duration": 0.061329625000013266
                },
                {
                    "name": "E5",
                    "midi": 76,
                    "time": 188.2819487499995,
                    "velocity": 0.33858267716535434,
                    "duration": 0.04088641666666604
                },
                {
                    "name": "D5",
                    "midi": 74,
                    "time": 188.32283516666615,
                    "velocity": 0.33858267716535434,
                    "duration": 0.04088641666666604
                },
                {
                    "name": "E5",
                    "midi": 76,
                    "time": 188.36474374374947,
                    "velocity": 0.33858267716535434,
                    "duration": 0.04088641666666604
                },
                {
                    "name": "D5",
                    "midi": 74,
                    "time": 188.40460799999948,
                    "velocity": 0.5196850393700787,
                    "duration": 0.8586147499999868
                },
                {
                    "name": "A4",
                    "midi": 69,
                    "time": 189.38588199999947,
                    "velocity": 0.3937007874015748,
                    "duration": 0.36797774999999433
                },
                {
                    "name": "F#4",
                    "midi": 66,
                    "time": 189.75385974999946,
                    "velocity": 0.3543307086614173,
                    "duration": 0.12265924999999811
                },
                {
                    "name": "D5",
                    "midi": 74,
                    "time": 189.87651899999946,
                    "velocity": 0.3937007874015748,
                    "duration": 0.09199443750000569
                },
                {
                    "name": "D5",
                    "midi": 74,
                    "time": 190.36715599999945,
                    "velocity": 0.3700787401574803,
                    "duration": 0.09199443750000569
                },
                {
                    "name": "D5",
                    "midi": 74,
                    "time": 190.85779299999945,
                    "velocity": 0.3700787401574803,
                    "duration": 0.24531849999999622
                },
                {
                    "name": "C#5",
                    "midi": 73,
                    "time": 191.10311149999944,
                    "velocity": 0.3700787401574803,
                    "duration": 0.061329625000013266
                },
                {
                    "name": "D5",
                    "midi": 74,
                    "time": 191.16444112499946,
                    "velocity": 0.3700787401574803,
                    "duration": 0.061329625000013266
                },
                {
                    "name": "E5",
                    "midi": 76,
                    "time": 191.22577074999947,
                    "velocity": 0.3700787401574803,
                    "duration": 0.061329625000013266
                },
                {
                    "name": "D5",
                    "midi": 74,
                    "time": 191.28710037499948,
                    "velocity": 0.3700787401574803,
                    "duration": 0.061329625000013266
                },
                {
                    "name": "C#5",
                    "midi": 73,
                    "time": 191.3484299999995,
                    "velocity": 0.4015748031496063,
                    "duration": 0.36797774999999433
                },
                {
                    "name": "E5",
                    "midi": 76,
                    "time": 191.7164077499995,
                    "velocity": 0.4094488188976378,
                    "duration": 0.12265924999999811
                },
                {
                    "name": "G5",
                    "midi": 79,
                    "time": 191.8390669999995,
                    "velocity": 0.4409448818897638,
                    "duration": 0.8586147499999868
                },
                {
                    "name": "E5",
                    "midi": 76,
                    "time": 192.69768174999948,
                    "velocity": 0.4015748031496063,
                    "duration": 0.12265924999999811
                },
                {
                    "name": "F#5",
                    "midi": 78,
                    "time": 192.82034099999947,
                    "velocity": 0.4566929133858268,
                    "duration": 0.36797774999999433
                },
                {
                    "name": "D5",
                    "midi": 74,
                    "time": 193.18831874999947,
                    "velocity": 0.41732283464566927,
                    "duration": 0.12265924999999811
                },
                {
                    "name": "A5",
                    "midi": 81,
                    "time": 193.31097799999947,
                    "velocity": 0.4566929133858268,
                    "duration": 0.36797774999999433
                },
                {
                    "name": "F#5",
                    "midi": 78,
                    "time": 193.67895574999946,
                    "velocity": 0.4251968503937008,
                    "duration": 0.12265924999999811
                },
                {
                    "name": "B5",
                    "midi": 83,
                    "time": 193.80161499999946,
                    "velocity": 0.4645669291338583,
                    "duration": 0.36797774999999433
                },
                {
                    "name": "G5",
                    "midi": 79,
                    "time": 194.16959274999945,
                    "velocity": 0.3779527559055118,
                    "duration": 0.12265924999999811
                },
                {
                    "name": "F#5",
                    "midi": 78,
                    "time": 194.29225199999945,
                    "velocity": 0.4015748031496063,
                    "duration": 0.49063699999999244
                },
                {
                    "name": "E5",
                    "midi": 76,
                    "time": 194.78288899999944,
                    "velocity": 0.30708661417322836,
                    "duration": 0.36797774999999433
                },
                {
                    "name": "A4",
                    "midi": 69,
                    "time": 195.27352599999944,
                    "velocity": 0.3937007874015748,
                    "duration": 0.36797774999999433
                },
                {
                    "name": "F#4",
                    "midi": 66,
                    "time": 195.64150374999943,
                    "velocity": 0.3543307086614173,
                    "duration": 0.12265924999999811
                },
                {
                    "name": "D5",
                    "midi": 74,
                    "time": 195.76416299999943,
                    "velocity": 0.3937007874015748,
                    "duration": 0.09199443750000569
                },
                {
                    "name": "D5",
                    "midi": 74,
                    "time": 196.25479999999942,
                    "velocity": 0.3700787401574803,
                    "duration": 0.09199443750000569
                },
                {
                    "name": "D5",
                    "midi": 74,
                    "time": 196.7454369999994,
                    "velocity": 0.3700787401574803,
                    "duration": 0.24531849999999622
                },
                {
                    "name": "C#5",
                    "midi": 73,
                    "time": 196.9907554999994,
                    "velocity": 0.3700787401574803,
                    "duration": 0.061329625000013266
                },
                {
                    "name": "D5",
                    "midi": 74,
                    "time": 197.05208512499942,
                    "velocity": 0.3700787401574803,
                    "duration": 0.061329625000013266
                },
                {
                    "name": "E5",
                    "midi": 76,
                    "time": 197.11341474999944,
                    "velocity": 0.3700787401574803,
                    "duration": 0.061329625000013266
                },
                {
                    "name": "D5",
                    "midi": 74,
                    "time": 197.17474437499945,
                    "velocity": 0.3700787401574803,
                    "duration": 0.061329625000013266
                },
                {
                    "name": "C#5",
                    "midi": 73,
                    "time": 197.23607399999946,
                    "velocity": 0.4566929133858268,
                    "duration": 0.36797774999999433
                },
                {
                    "name": "E5",
                    "midi": 76,
                    "time": 197.60405174999946,
                    "velocity": 0.41732283464566927,
                    "duration": 0.12265924999999811
                },
                {
                    "name": "G5",
                    "midi": 79,
                    "time": 197.72671099999945,
                    "velocity": 0.4566929133858268,
                    "duration": 0.36797774999999433
                },
                {
                    "name": "E5",
                    "midi": 76,
                    "time": 198.09468874999945,
                    "velocity": 0.4251968503937008,
                    "duration": 0.12265924999999811
                },
                {
                    "name": "F#5",
                    "midi": 78,
                    "time": 198.21734799999945,
                    "velocity": 0.4645669291338583,
                    "duration": 0.36797774999999433
                },
                {
                    "name": "D5",
                    "midi": 74,
                    "time": 198.58532574999944,
                    "velocity": 0.3779527559055118,
                    "duration": 0.12265924999999811
                },
                {
                    "name": "B4",
                    "midi": 71,
                    "time": 198.70798499999944,
                    "velocity": 0.4566929133858268,
                    "duration": 0.12265924999999811
                },
                {
                    "name": "E5",
                    "midi": 76,
                    "time": 199.19862199999943,
                    "velocity": 0.4409448818897638,
                    "duration": 0.12265924999999811
                },
                {
                    "name": "C#5",
                    "midi": 73,
                    "time": 199.68925899999942,
                    "velocity": 0.3543307086614173,
                    "duration": 0.24531849999999622
                },
                {
                    "name": "G4",
                    "midi": 67,
                    "time": 199.68925899999942,
                    "velocity": 0.3543307086614173,
                    "duration": 0.4906370000000493
                },
                {
                    "name": "D5",
                    "midi": 74,
                    "time": 199.93457749999942,
                    "velocity": 0.4330708661417323,
                    "duration": 0.061329625000013266
                },
                {
                    "name": "C#5",
                    "midi": 73,
                    "time": 199.99590712499943,
                    "velocity": 0.3779527559055118,
                    "duration": 0.061329625000013266
                },
                {
                    "name": "B4",
                    "midi": 71,
                    "time": 200.05723674999945,
                    "velocity": 0.3779527559055118,
                    "duration": 0.061329625000013266
                },
                {
                    "name": "C#5",
                    "midi": 73,
                    "time": 200.11856637499946,
                    "velocity": 0.3779527559055118,
                    "duration": 0.061329625000013266
                },
                {
                    "name": "D5",
                    "midi": 74,
                    "time": 200.17989599999947,
                    "velocity": 0.4566929133858268,
                    "duration": 0.49063699999999244
                },
                {
                    "name": "F#4",
                    "midi": 66,
                    "time": 200.17989599999947,
                    "velocity": 0.3858267716535433,
                    "duration": 0.49063699999999244
                },
                {
                    "name": "F#4",
                    "midi": 66,
                    "time": 201.16116999999946,
                    "velocity": 0.3937007874015748,
                    "duration": 0.12265924999999811
                },
                {
                    "name": "D4",
                    "midi": 62,
                    "time": 201.28382924999946,
                    "velocity": 0.3543307086614173,
                    "duration": 0.12265924999999811
                },
                {
                    "name": "A4",
                    "midi": 69,
                    "time": 201.40648849999945,
                    "velocity": 0.3543307086614173,
                    "duration": 0.12265924999999811
                },
                {
                    "name": "F#4",
                    "midi": 66,
                    "time": 201.52914774999945,
                    "velocity": 0.3543307086614173,
                    "duration": 0.12265924999999811
                },
                {
                    "name": "D5",
                    "midi": 74,
                    "time": 201.65180699999945,
                    "velocity": 0.4409448818897638,
                    "duration": 0.12265924999999811
                },
                {
                    "name": "A4",
                    "midi": 69,
                    "time": 201.77446624999945,
                    "velocity": 0.3543307086614173,
                    "duration": 0.12265924999999811
                },
                {
                    "name": "B4",
                    "midi": 71,
                    "time": 201.89712549999945,
                    "velocity": 0.3543307086614173,
                    "duration": 0.12265924999999811
                },
                {
                    "name": "C#5",
                    "midi": 73,
                    "time": 202.01978474999945,
                    "velocity": 0.3543307086614173,
                    "duration": 0.12265924999999811
                },
                {
                    "name": "D5",
                    "midi": 74,
                    "time": 202.14244399999944,
                    "velocity": 0.4330708661417323,
                    "duration": 0.12265924999999811
                },
                {
                    "name": "E5",
                    "midi": 76,
                    "time": 202.26510324999944,
                    "velocity": 0.3543307086614173,
                    "duration": 0.12265924999999811
                },
                {
                    "name": "F#5",
                    "midi": 78,
                    "time": 202.38776249999944,
                    "velocity": 0.3543307086614173,
                    "duration": 0.12265924999999811
                },
                {
                    "name": "G5",
                    "midi": 79,
                    "time": 202.51042174999944,
                    "velocity": 0.3543307086614173,
                    "duration": 0.12265924999999811
                },
                {
                    "name": "A5",
                    "midi": 81,
                    "time": 202.63308099999944,
                    "velocity": 0.48031496062992124,
                    "duration": 0.12265924999999811
                },
                {
                    "name": "F#5",
                    "midi": 78,
                    "time": 202.75574024999943,
                    "velocity": 0.4094488188976378,
                    "duration": 0.12265924999999811
                },
                {
                    "name": "E5",
                    "midi": 76,
                    "time": 202.87839949999943,
                    "velocity": 0.4094488188976378,
                    "duration": 0.12265924999999811
                },
                {
                    "name": "D5",
                    "midi": 74,
                    "time": 203.00105874999943,
                    "velocity": 0.3937007874015748,
                    "duration": 0.12265924999999811
                },
                {
                    "name": "C#5",
                    "midi": 73,
                    "time": 203.12371799999943,
                    "velocity": 0.4251968503937008,
                    "duration": 0.12265924999999811
                },
                {
                    "name": "D5",
                    "midi": 74,
                    "time": 203.24637724999943,
                    "velocity": 0.3543307086614173,
                    "duration": 0.12265924999999811
                },
                {
                    "name": "E5",
                    "midi": 76,
                    "time": 203.36903649999942,
                    "velocity": 0.3543307086614173,
                    "duration": 0.12265924999999811
                },
                {
                    "name": "F#5",
                    "midi": 78,
                    "time": 203.49169574999942,
                    "velocity": 0.3543307086614173,
                    "duration": 0.12265924999999811
                },
                {
                    "name": "G5",
                    "midi": 79,
                    "time": 203.61435499999942,
                    "velocity": 0.4015748031496063,
                    "duration": 0.12265924999999811
                },
                {
                    "name": "E5",
                    "midi": 76,
                    "time": 203.73701424999942,
                    "velocity": 0.3700787401574803,
                    "duration": 0.12265924999999811
                },
                {
                    "name": "G5",
                    "midi": 79,
                    "time": 203.85967349999942,
                    "velocity": 0.3779527559055118,
                    "duration": 0.12265924999999811
                },
                {
                    "name": "A5",
                    "midi": 81,
                    "time": 203.98233274999942,
                    "velocity": 0.3858267716535433,
                    "duration": 0.12265924999999811
                },
                {
                    "name": "B5",
                    "midi": 83,
                    "time": 204.1049919999994,
                    "velocity": 0.4330708661417323,
                    "duration": 0.12265924999999811
                },
                {
                    "name": "G5",
                    "midi": 79,
                    "time": 204.2276512499994,
                    "velocity": 0.3543307086614173,
                    "duration": 0.12265924999999811
                },
                {
                    "name": "F#5",
                    "midi": 78,
                    "time": 204.3503104999994,
                    "velocity": 0.3543307086614173,
                    "duration": 0.12265924999999811
                },
                {
                    "name": "E5",
                    "midi": 76,
                    "time": 204.4729697499994,
                    "velocity": 0.3543307086614173,
                    "duration": 0.12265924999999811
                },
                {
                    "name": "F#5",
                    "midi": 78,
                    "time": 204.5956289999994,
                    "velocity": 0.4330708661417323,
                    "duration": 0.12265924999999811
                },
                {
                    "name": "D5",
                    "midi": 74,
                    "time": 204.7182882499994,
                    "velocity": 0.41732283464566927,
                    "duration": 0.12265924999999811
                },
                {
                    "name": "E5",
                    "midi": 76,
                    "time": 204.8409474999994,
                    "velocity": 0.41732283464566927,
                    "duration": 0.12265924999999811
                },
                {
                    "name": "F#5",
                    "midi": 78,
                    "time": 204.9636067499994,
                    "velocity": 0.41732283464566927,
                    "duration": 0.12265924999999811
                },
                {
                    "name": "G5",
                    "midi": 79,
                    "time": 205.0862659999994,
                    "velocity": 0.5039370078740157,
                    "duration": 0.12265924999999811
                },
                {
                    "name": "A5",
                    "midi": 81,
                    "time": 205.2089252499994,
                    "velocity": 0.41732283464566927,
                    "duration": 0.12265924999999811
                },
                {
                    "name": "B5",
                    "midi": 83,
                    "time": 205.3315844999994,
                    "velocity": 0.4409448818897638,
                    "duration": 0.12265924999999811
                },
                {
                    "name": "C#6",
                    "midi": 85,
                    "time": 205.4542437499994,
                    "velocity": 0.4566929133858268,
                    "duration": 0.12265924999999811
                },
                {
                    "name": "D6",
                    "midi": 86,
                    "time": 205.5769029999994,
                    "velocity": 0.5118110236220472,
                    "duration": 0.12265924999999811
                },
                {
                    "name": "B5",
                    "midi": 83,
                    "time": 205.6995622499994,
                    "velocity": 0.44881889763779526,
                    "duration": 0.12265924999999811
                },
                {
                    "name": "A5",
                    "midi": 81,
                    "time": 205.8222214999994,
                    "velocity": 0.3543307086614173,
                    "duration": 0.12265924999999811
                },
                {
                    "name": "G5",
                    "midi": 79,
                    "time": 205.94488074999938,
                    "velocity": 0.3543307086614173,
                    "duration": 0.12265924999999811
                },
                {
                    "name": "D5",
                    "midi": 74,
                    "time": 206.06753999999938,
                    "velocity": 0.3700787401574803,
                    "duration": 0.49063699999999244
                },
                {
                    "name": "F#5",
                    "midi": 78,
                    "time": 206.06753999999938,
                    "velocity": 0.4409448818897638,
                    "duration": 0.49063699999999244
                },
                {
                    "name": "C#5",
                    "midi": 73,
                    "time": 206.55817699999938,
                    "velocity": 0.33070866141732286,
                    "duration": 0.24531849999999622
                },
                {
                    "name": "E5",
                    "midi": 76,
                    "time": 206.55817699999938,
                    "velocity": 0.3937007874015748,
                    "duration": 0.24531849999999622
                },
                {
                    "name": "F#4",
                    "midi": 66,
                    "time": 207.04881399999937,
                    "velocity": 0.36220472440944884,
                    "duration": 0.12265924999999811
                },
                {
                    "name": "D4",
                    "midi": 62,
                    "time": 207.17147324999937,
                    "velocity": 0.3700787401574803,
                    "duration": 0.12265924999999811
                },
                {
                    "name": "A4",
                    "midi": 69,
                    "time": 207.29413249999936,
                    "velocity": 0.3858267716535433,
                    "duration": 0.12265924999999811
                },
                {
                    "name": "F#4",
                    "midi": 66,
                    "time": 207.41679174999936,
                    "velocity": 0.41732283464566927,
                    "duration": 0.12265924999999811
                },
                {
                    "name": "D5",
                    "midi": 74,
                    "time": 207.53945099999936,
                    "velocity": 0.4881889763779528,
                    "duration": 0.12265924999999811
                },
                {
                    "name": "A4",
                    "midi": 69,
                    "time": 207.66211024999936,
                    "velocity": 0.3858267716535433,
                    "duration": 0.12265924999999811
                },
                {
                    "name": "B4",
                    "midi": 71,
                    "time": 207.78476949999936,
                    "velocity": 0.3858267716535433,
                    "duration": 0.12265924999999811
                },
                {
                    "name": "C#5",
                    "midi": 73,
                    "time": 207.90742874999935,
                    "velocity": 0.3858267716535433,
                    "duration": 0.12265924999999811
                },
                {
                    "name": "D5",
                    "midi": 74,
                    "time": 208.03008799999935,
                    "velocity": 0.47244094488188976,
                    "duration": 0.12265924999999811
                },
                {
                    "name": "E5",
                    "midi": 76,
                    "time": 208.15274724999935,
                    "velocity": 0.3779527559055118,
                    "duration": 0.12265924999999811
                },
                {
                    "name": "F#5",
                    "midi": 78,
                    "time": 208.27540649999935,
                    "velocity": 0.3779527559055118,
                    "duration": 0.12265924999999811
                },
                {
                    "name": "G5",
                    "midi": 79,
                    "time": 208.39806574999935,
                    "velocity": 0.3779527559055118,
                    "duration": 0.12265924999999811
                },
                {
                    "name": "A5",
                    "midi": 81,
                    "time": 208.52072499999935,
                    "velocity": 0.48031496062992124,
                    "duration": 0.12265924999999811
                },
                {
                    "name": "F#5",
                    "midi": 78,
                    "time": 208.64338424999934,
                    "velocity": 0.4094488188976378,
                    "duration": 0.12265924999999811
                },
                {
                    "name": "E5",
                    "midi": 76,
                    "time": 208.76604349999934,
                    "velocity": 0.4094488188976378,
                    "duration": 0.12265924999999811
                },
                {
                    "name": "D5",
                    "midi": 74,
                    "time": 208.88870274999934,
                    "velocity": 0.3937007874015748,
                    "duration": 0.12265924999999811
                },
                {
                    "name": "C#5",
                    "midi": 73,
                    "time": 209.01136199999934,
                    "velocity": 0.4251968503937008,
                    "duration": 0.12265924999999811
                },
                {
                    "name": "D5",
                    "midi": 74,
                    "time": 209.13402124999934,
                    "velocity": 0.3543307086614173,
                    "duration": 0.12265924999999811
                },
                {
                    "name": "E5",
                    "midi": 76,
                    "time": 209.25668049999933,
                    "velocity": 0.3543307086614173,
                    "duration": 0.12265924999999811
                },
                {
                    "name": "F#5",
                    "midi": 78,
                    "time": 209.37933974999933,
                    "velocity": 0.3543307086614173,
                    "duration": 0.12265924999999811
                },
                {
                    "name": "G5",
                    "midi": 79,
                    "time": 209.50199899999933,
                    "velocity": 0.4409448818897638,
                    "duration": 0.12265924999999811
                },
                {
                    "name": "F#5",
                    "midi": 78,
                    "time": 209.62465824999933,
                    "velocity": 0.3700787401574803,
                    "duration": 0.12265924999999811
                },
                {
                    "name": "E5",
                    "midi": 76,
                    "time": 209.74731749999933,
                    "velocity": 0.3779527559055118,
                    "duration": 0.12265924999999811
                },
                {
                    "name": "D5",
                    "midi": 74,
                    "time": 209.86997674999932,
                    "velocity": 0.3858267716535433,
                    "duration": 0.12265924999999811
                },
                {
                    "name": "C#5",
                    "midi": 73,
                    "time": 209.99263599999932,
                    "velocity": 0.4330708661417323,
                    "duration": 0.12265924999999811
                },
                {
                    "name": "B4",
                    "midi": 71,
                    "time": 210.11529524999932,
                    "velocity": 0.3543307086614173,
                    "duration": 0.12265924999999811
                },
                {
                    "name": "A4",
                    "midi": 69,
                    "time": 210.23795449999932,
                    "velocity": 0.3543307086614173,
                    "duration": 0.12265924999999811
                },
                {
                    "name": "G4",
                    "midi": 67,
                    "time": 210.36061374999932,
                    "velocity": 0.3543307086614173,
                    "duration": 0.12265924999999811
                },
                {
                    "name": "F#4",
                    "midi": 66,
                    "time": 210.48327299999931,
                    "velocity": 0.4330708661417323,
                    "duration": 0.12265924999999811
                },
                {
                    "name": "A4",
                    "midi": 69,
                    "time": 210.6059322499993,
                    "velocity": 0.36220472440944884,
                    "duration": 0.12265924999999811
                },
                {
                    "name": "G4",
                    "midi": 67,
                    "time": 210.7285914999993,
                    "velocity": 0.36220472440944884,
                    "duration": 0.12265924999999811
                },
                {
                    "name": "F#4",
                    "midi": 66,
                    "time": 210.8512507499993,
                    "velocity": 0.36220472440944884,
                    "duration": 0.12265924999999811
                },
                {
                    "name": "E4",
                    "midi": 64,
                    "time": 210.9739099999993,
                    "velocity": 0.4330708661417323,
                    "duration": 0.12265924999999811
                },
                {
                    "name": "B4",
                    "midi": 71,
                    "time": 211.0965692499993,
                    "velocity": 0.3543307086614173,
                    "duration": 0.12265924999999811
                },
                {
                    "name": "A4",
                    "midi": 69,
                    "time": 211.2192284999993,
                    "velocity": 0.3543307086614173,
                    "duration": 0.12265924999999811
                },
                {
                    "name": "G4",
                    "midi": 67,
                    "time": 211.3418877499993,
                    "velocity": 0.3543307086614173,
                    "duration": 0.12265924999999811
                },
                {
                    "name": "F#4",
                    "midi": 66,
                    "time": 211.4645469999993,
                    "velocity": 0.41732283464566927,
                    "duration": 0.12265924999999811
                },
                {
                    "name": "E4",
                    "midi": 64,
                    "time": 211.5872062499993,
                    "velocity": 0.33070866141732286,
                    "duration": 0.12265924999999811
                },
                {
                    "name": "D4",
                    "midi": 62,
                    "time": 211.7098654999993,
                    "velocity": 0.3543307086614173,
                    "duration": 0.12265924999999811
                },
                {
                    "name": "C#4",
                    "midi": 61,
                    "time": 211.8325247499993,
                    "velocity": 0.2992125984251969,
                    "duration": 0.12265924999999811
                },
                {
                    "name": "D4",
                    "midi": 62,
                    "time": 211.9551839999993,
                    "velocity": 0.41732283464566927,
                    "duration": 0.49063699999999244
                },
                {
                    "name": "F#5",
                    "midi": 78,
                    "time": 212.93645799999928,
                    "velocity": 0.41732283464566927,
                    "duration": 0.12265924999999811
                },
                {
                    "name": "D5",
                    "midi": 74,
                    "time": 213.05911724999928,
                    "velocity": 0.4330708661417323,
                    "duration": 0.12265924999999811
                },
                {
                    "name": "A5",
                    "midi": 81,
                    "time": 213.18177649999927,
                    "velocity": 0.48031496062992124,
                    "duration": 0.12265924999999811
                },
                {
                    "name": "F#5",
                    "midi": 78,
                    "time": 213.30443574999927,
                    "velocity": 0.49606299212598426,
                    "duration": 0.12265924999999811
                },
                {
                    "name": "D6",
                    "midi": 86,
                    "time": 213.42709499999927,
                    "velocity": 0.5590551181102362,
                    "duration": 0.12265924999999811
                },
                {
                    "name": "A5",
                    "midi": 81,
                    "time": 213.54975424999927,
                    "velocity": 0.4330708661417323,
                    "duration": 0.12265924999999811
                },
                {
                    "name": "F#5",
                    "midi": 78,
                    "time": 213.67241349999927,
                    "velocity": 0.4330708661417323,
                    "duration": 0.12265924999999811
                },
                {
                    "name": "D5",
                    "midi": 74,
                    "time": 213.79507274999926,
                    "velocity": 0.4330708661417323,
                    "duration": 0.12265924999999811
                },
                {
                    "name": "B4",
                    "midi": 71,
                    "time": 213.91773199999926,
                    "velocity": 0.5433070866141733,
                    "duration": 0.15332406249999053
                },
                {
                    "name": "D5",
                    "midi": 74,
                    "time": 214.04039124999926,
                    "velocity": 0.4409448818897638,
                    "duration": 0.12265924999999811
                },
                {
                    "name": "E5",
                    "midi": 76,
                    "time": 214.16305049999926,
                    "velocity": 0.4409448818897638,
                    "duration": 0.12265924999999811
                },
                {
                    "name": "G#5",
                    "midi": 80,
                    "time": 214.28570974999926,
                    "velocity": 0.4015748031496063,
                    "duration": 0.12265924999999811
                },
                {
                    "name": "C#5",
                    "midi": 73,
                    "time": 214.40836899999925,
                    "velocity": 0.5354330708661418,
                    "duration": 0.15332406249999053
                },
                {
                    "name": "E5",
                    "midi": 76,
                    "time": 214.53102824999925,
                    "velocity": 0.4330708661417323,
                    "duration": 0.12265924999999811
                },
                {
                    "name": "C#6",
                    "midi": 85,
                    "time": 214.65368749999925,
                    "velocity": 0.41732283464566927,
                    "duration": 0.12265924999999811
                },
                {
                    "name": "E6",
                    "midi": 88,
                    "time": 214.77634674999925,
                    "velocity": 0.4015748031496063,
                    "duration": 0.12265924999999811
                },
                {
                    "name": "B4",
                    "midi": 71,
                    "time": 214.89900599999925,
                    "velocity": 0.4881889763779528,
                    "duration": 0.15332406249999053
                },
                {
                    "name": "D5",
                    "midi": 74,
                    "time": 215.02166524999924,
                    "velocity": 0.41732283464566927,
                    "duration": 0.12265924999999811
                },
                {
                    "name": "G5",
                    "midi": 79,
                    "time": 215.14432449999924,
                    "velocity": 0.41732283464566927,
                    "duration": 0.12265924999999811
                },
                {
                    "name": "B5",
                    "midi": 83,
                    "time": 215.26698374999924,
                    "velocity": 0.41732283464566927,
                    "duration": 0.12265924999999811
                },
                {
                    "name": "A4",
                    "midi": 69,
                    "time": 215.38964299999924,
                    "velocity": 0.4566929133858268,
                    "duration": 0.15332406249999053
                },
                {
                    "name": "C#5",
                    "midi": 73,
                    "time": 215.51230224999924,
                    "velocity": 0.3700787401574803,
                    "duration": 0.12265924999999811
                },
                {
                    "name": "F#5",
                    "midi": 78,
                    "time": 215.63496149999924,
                    "velocity": 0.3700787401574803,
                    "duration": 0.12265924999999811
                },
                {
                    "name": "A5",
                    "midi": 81,
                    "time": 215.75762074999923,
                    "velocity": 0.3700787401574803,
                    "duration": 0.12265924999999811
                },
                {
                    "name": "G4",
                    "midi": 67,
                    "time": 215.88027999999923,
                    "velocity": 0.4330708661417323,
                    "duration": 0.15332406249999053
                },
                {
                    "name": "B4",
                    "midi": 71,
                    "time": 216.00293924999923,
                    "velocity": 0.3779527559055118,
                    "duration": 0.12265924999999811
                },
                {
                    "name": "E5",
                    "midi": 76,
                    "time": 216.12559849999923,
                    "velocity": 0.3779527559055118,
                    "duration": 0.12265924999999811
                },
                {
                    "name": "G5",
                    "midi": 79,
                    "time": 216.24825774999923,
                    "velocity": 0.3543307086614173,
                    "duration": 0.12265924999999811
                },
                {
                    "name": "F#4",
                    "midi": 66,
                    "time": 216.37091699999922,
                    "velocity": 0.48031496062992124,
                    "duration": 0.15332406249999053
                },
                {
                    "name": "A4",
                    "midi": 69,
                    "time": 216.49357624999922,
                    "velocity": 0.3937007874015748,
                    "duration": 0.12265924999999811
                },
                {
                    "name": "D5",
                    "midi": 74,
                    "time": 216.61623549999922,
                    "velocity": 0.3937007874015748,
                    "duration": 0.12265924999999811
                },
                {
                    "name": "F#5",
                    "midi": 78,
                    "time": 216.73889474999922,
                    "velocity": 0.3700787401574803,
                    "duration": 0.12265924999999811
                },
                {
                    "name": "E4",
                    "midi": 64,
                    "time": 216.86155399999922,
                    "velocity": 0.4330708661417323,
                    "duration": 0.15332406249999053
                },
                {
                    "name": "G4",
                    "midi": 67,
                    "time": 216.98421324999921,
                    "velocity": 0.3937007874015748,
                    "duration": 0.12265924999999811
                },
                {
                    "name": "C#5",
                    "midi": 73,
                    "time": 217.1068724999992,
                    "velocity": 0.3937007874015748,
                    "duration": 0.12265924999999811
                },
                {
                    "name": "G5",
                    "midi": 79,
                    "time": 217.2295317499992,
                    "velocity": 0.3779527559055118,
                    "duration": 0.12265924999999811
                },
                {
                    "name": "D4",
                    "midi": 62,
                    "time": 217.3521909999992,
                    "velocity": 0.4251968503937008,
                    "duration": 0.12265924999999811
                },
                {
                    "name": "A4",
                    "midi": 69,
                    "time": 217.4748502499992,
                    "velocity": 0.36220472440944884,
                    "duration": 0.12265924999999811
                },
                {
                    "name": "F#5",
                    "midi": 78,
                    "time": 217.5975094999992,
                    "velocity": 0.36220472440944884,
                    "duration": 0.12265924999999811
                },
                {
                    "name": "D6",
                    "midi": 86,
                    "time": 217.7201687499992,
                    "velocity": 0.3700787401574803,
                    "duration": 0.12265924999999811
                },
                {
                    "name": "D5",
                    "midi": 74,
                    "time": 217.8428279999992,
                    "velocity": 0.3700787401574803,
                    "duration": 0.49063699999999244
                },
                {
                    "name": "F#5",
                    "midi": 78,
                    "time": 217.8428279999992,
                    "velocity": 0.4409448818897638,
                    "duration": 0.49063699999999244
                },
                {
                    "name": "C#5",
                    "midi": 73,
                    "time": 218.3334649999992,
                    "velocity": 0.33070866141732286,
                    "duration": 0.24531849999999622
                },
                {
                    "name": "E5",
                    "midi": 76,
                    "time": 218.3334649999992,
                    "velocity": 0.3937007874015748,
                    "duration": 0.24531849999999622
                },
                {
                    "name": "F#5",
                    "midi": 78,
                    "time": 218.8241019999992,
                    "velocity": 0.4094488188976378,
                    "duration": 0.12265924999999811
                },
                {
                    "name": "D5",
                    "midi": 74,
                    "time": 218.94676124999918,
                    "velocity": 0.44881889763779526,
                    "duration": 0.12265924999999811
                },
                {
                    "name": "A5",
                    "midi": 81,
                    "time": 219.06942049999918,
                    "velocity": 0.48031496062992124,
                    "duration": 0.12265924999999811
                },
                {
                    "name": "F#5",
                    "midi": 78,
                    "time": 219.19207974999918,
                    "velocity": 0.48031496062992124,
                    "duration": 0.12265924999999811
                },
                {
                    "name": "D6",
                    "midi": 86,
                    "time": 219.31473899999918,
                    "velocity": 0.5748031496062992,
                    "duration": 0.12265924999999811
                },
                {
                    "name": "A5",
                    "midi": 81,
                    "time": 219.43739824999918,
                    "velocity": 0.44881889763779526,
                    "duration": 0.12265924999999811
                },
                {
                    "name": "F#5",
                    "midi": 78,
                    "time": 219.56005749999917,
                    "velocity": 0.44881889763779526,
                    "duration": 0.12265924999999811
                },
                {
                    "name": "D5",
                    "midi": 74,
                    "time": 219.68271674999917,
                    "velocity": 0.44881889763779526,
                    "duration": 0.12265924999999811
                },
                {
                    "name": "B4",
                    "midi": 71,
                    "time": 219.80537599999917,
                    "velocity": 0.5118110236220472,
                    "duration": 0.15332406249999053
                },
                {
                    "name": "D5",
                    "midi": 74,
                    "time": 219.92803524999917,
                    "velocity": 0.41732283464566927,
                    "duration": 0.12265924999999811
                },
                {
                    "name": "E5",
                    "midi": 76,
                    "time": 220.05069449999917,
                    "velocity": 0.41732283464566927,
                    "duration": 0.12265924999999811
                },
                {
                    "name": "G#5",
                    "midi": 80,
                    "time": 220.17335374999917,
                    "velocity": 0.41732283464566927,
                    "duration": 0.12265924999999811
                },
                {
                    "name": "C#5",
                    "midi": 73,
                    "time": 220.29601299999916,
                    "velocity": 0.5039370078740157,
                    "duration": 0.15332406249999053
                },
                {
                    "name": "E5",
                    "midi": 76,
                    "time": 220.41867224999916,
                    "velocity": 0.41732283464566927,
                    "duration": 0.12265924999999811
                },
                {
                    "name": "C#6",
                    "midi": 85,
                    "time": 220.54133149999916,
                    "velocity": 0.41732283464566927,
                    "duration": 0.12265924999999811
                },
                {
                    "name": "E6",
                    "midi": 88,
                    "time": 220.66399074999916,
                    "velocity": 0.41732283464566927,
                    "duration": 0.12265924999999811
                },
                {
                    "name": "B4",
                    "midi": 71,
                    "time": 220.78664999999916,
                    "velocity": 0.48031496062992124,
                    "duration": 0.15332406249999053
                },
                {
                    "name": "D5",
                    "midi": 74,
                    "time": 220.90930924999915,
                    "velocity": 0.3858267716535433,
                    "duration": 0.12265924999999811
                },
                {
                    "name": "G5",
                    "midi": 79,
                    "time": 221.03196849999915,
                    "velocity": 0.3858267716535433,
                    "duration": 0.12265924999999811
                },
                {
                    "name": "B5",
                    "midi": 83,
                    "time": 221.15462774999915,
                    "velocity": 0.36220472440944884,
                    "duration": 0.12265924999999811
                },
                {
                    "name": "A4",
                    "midi": 69,
                    "time": 221.27728699999915,
                    "velocity": 0.44881889763779526,
                    "duration": 0.15332406249999053
                },
                {
                    "name": "C#5",
                    "midi": 73,
                    "time": 221.39994624999915,
                    "velocity": 0.33858267716535434,
                    "duration": 0.12265924999999811
                },
                {
                    "name": "F#5",
                    "midi": 78,
                    "time": 221.52260549999914,
                    "velocity": 0.33858267716535434,
                    "duration": 0.12265924999999811
                },
                {
                    "name": "A5",
                    "midi": 81,
                    "time": 221.64526474999914,
                    "velocity": 0.33858267716535434,
                    "duration": 0.12265924999999811
                },
                {
                    "name": "G4",
                    "midi": 67,
                    "time": 221.76792399999914,
                    "velocity": 0.3937007874015748,
                    "duration": 0.15332406249999053
                },
                {
                    "name": "B4",
                    "midi": 71,
                    "time": 221.89058324999914,
                    "velocity": 0.3543307086614173,
                    "duration": 0.12265924999999811
                },
                {
                    "name": "E5",
                    "midi": 76,
                    "time": 222.01324249999914,
                    "velocity": 0.3543307086614173,
                    "duration": 0.12265924999999811
                },
                {
                    "name": "G5",
                    "midi": 79,
                    "time": 222.13590174999914,
                    "velocity": 0.3543307086614173,
                    "duration": 0.12265924999999811
                },
                {
                    "name": "F#4",
                    "midi": 66,
                    "time": 222.25856099999913,
                    "velocity": 0.48031496062992124,
                    "duration": 0.15332406249999053
                },
                {
                    "name": "A4",
                    "midi": 69,
                    "time": 222.38122024999913,
                    "velocity": 0.3937007874015748,
                    "duration": 0.12265924999999811
                },
                {
                    "name": "D5",
                    "midi": 74,
                    "time": 222.50387949999913,
                    "velocity": 0.3937007874015748,
                    "duration": 0.12265924999999811
                },
                {
                    "name": "F#5",
                    "midi": 78,
                    "time": 222.62653874999913,
                    "velocity": 0.3700787401574803,
                    "duration": 0.12265924999999811
                },
                {
                    "name": "G4",
                    "midi": 67,
                    "time": 222.74919799999913,
                    "velocity": 0.4251968503937008,
                    "duration": 0.15332406249999053
                },
                {
                    "name": "B4",
                    "midi": 71,
                    "time": 222.87185724999912,
                    "velocity": 0.33858267716535434,
                    "duration": 0.12265924999999811
                },
                {
                    "name": "E5",
                    "midi": 76,
                    "time": 222.99451649999912,
                    "velocity": 0.33858267716535434,
                    "duration": 0.12265924999999811
                },
                {
                    "name": "G5",
                    "midi": 79,
                    "time": 223.11717574999912,
                    "velocity": 0.33070866141732286,
                    "duration": 0.12265924999999811
                },
                {
                    "name": "A3",
                    "midi": 57,
                    "time": 223.23983499999912,
                    "velocity": 0.3937007874015748,
                    "duration": 0.12265924999999811
                },
                {
                    "name": "E4",
                    "midi": 64,
                    "time": 223.36249424999912,
                    "velocity": 0.2992125984251969,
                    "duration": 0.12265924999999811
                },
                {
                    "name": "G4",
                    "midi": 67,
                    "time": 223.48515349999911,
                    "velocity": 0.2992125984251969,
                    "duration": 0.12265924999999811
                },
                {
                    "name": "C#5",
                    "midi": 73,
                    "time": 223.6078127499991,
                    "velocity": 0.2992125984251969,
                    "duration": 0.12265924999999811
                },
                {
                    "name": "D5",
                    "midi": 74,
                    "time": 223.7304719999991,
                    "velocity": 0.3937007874015748,
                    "duration": 0.49063699999999244
                },
                {
                    "name": "F#4",
                    "midi": 66,
                    "time": 223.7304719999991,
                    "velocity": 0.3937007874015748,
                    "duration": 0.49063699999999244
                },
                {
                    "name": "F#5",
                    "midi": 78,
                    "time": 224.7117459999991,
                    "velocity": 0.30708661417322836,
                    "duration": 0.12265924999999811
                },
                {
                    "name": "D5",
                    "midi": 74,
                    "time": 224.8344052499991,
                    "velocity": 0.3228346456692913,
                    "duration": 0.12265924999999811
                },
                {
                    "name": "A5",
                    "midi": 81,
                    "time": 224.9570644999991,
                    "velocity": 0.3543307086614173,
                    "duration": 0.12265924999999811
                },
                {
                    "name": "F#5",
                    "midi": 78,
                    "time": 225.0797237499991,
                    "velocity": 0.3700787401574803,
                    "duration": 0.12265924999999811
                },
                {
                    "name": "D6",
                    "midi": 86,
                    "time": 225.2023829999991,
                    "velocity": 0.41732283464566927,
                    "duration": 0.12265924999999811
                },
                {
                    "name": "A5",
                    "midi": 81,
                    "time": 225.3250422499991,
                    "velocity": 0.3228346456692913,
                    "duration": 0.12265924999999811
                },
                {
                    "name": "F#5",
                    "midi": 78,
                    "time": 225.44770149999908,
                    "velocity": 0.3228346456692913,
                    "duration": 0.12265924999999811
                },
                {
                    "name": "D5",
                    "midi": 74,
                    "time": 225.57036074999908,
                    "velocity": 0.3228346456692913,
                    "duration": 0.12265924999999811
                },
                {
                    "name": "B4",
                    "midi": 71,
                    "time": 225.69301999999908,
                    "velocity": 0.4015748031496063,
                    "duration": 0.15332406249999053
                },
                {
                    "name": "D5",
                    "midi": 74,
                    "time": 225.81567924999908,
                    "velocity": 0.33070866141732286,
                    "duration": 0.12265924999999811
                },
                {
                    "name": "E5",
                    "midi": 76,
                    "time": 225.93833849999908,
                    "velocity": 0.33070866141732286,
                    "duration": 0.12265924999999811
                },
                {
                    "name": "G#5",
                    "midi": 80,
                    "time": 226.06099774999907,
                    "velocity": 0.2992125984251969,
                    "duration": 0.12265924999999811
                },
                {
                    "name": "C#5",
                    "midi": 73,
                    "time": 226.18365699999907,
                    "velocity": 0.4015748031496063,
                    "duration": 0.15332406249999053
                },
                {
                    "name": "E5",
                    "midi": 76,
                    "time": 226.30631624999907,
                    "velocity": 0.3228346456692913,
                    "duration": 0.12265924999999811
                },
                {
                    "name": "C#6",
                    "midi": 85,
                    "time": 226.42897549999907,
                    "velocity": 0.30708661417322836,
                    "duration": 0.12265924999999811
                },
                {
                    "name": "E6",
                    "midi": 88,
                    "time": 226.55163474999907,
                    "velocity": 0.2992125984251969,
                    "duration": 0.12265924999999811
                },
                {
                    "name": "B4",
                    "midi": 71,
                    "time": 226.67429399999907,
                    "velocity": 0.36220472440944884,
                    "duration": 0.15332406249999053
                },
                {
                    "name": "D5",
                    "midi": 74,
                    "time": 226.79695324999906,
                    "velocity": 0.30708661417322836,
                    "duration": 0.12265924999999811
                },
                {
                    "name": "G5",
                    "midi": 79,
                    "time": 226.91961249999906,
                    "velocity": 0.30708661417322836,
                    "duration": 0.12265924999999811
                },
                {
                    "name": "B5",
                    "midi": 83,
                    "time": 227.04227174999906,
                    "velocity": 0.30708661417322836,
                    "duration": 0.12265924999999811
                },
                {
                    "name": "A4",
                    "midi": 69,
                    "time": 227.16493099999906,
                    "velocity": 0.33858267716535434,
                    "duration": 0.15332406249999053
                },
                {
                    "name": "C#5",
                    "midi": 73,
                    "time": 227.28759024999906,
                    "velocity": 0.2755905511811024,
                    "duration": 0.12265924999999811
                },
                {
                    "name": "F#5",
                    "midi": 78,
                    "time": 227.41024949999905,
                    "velocity": 0.2755905511811024,
                    "duration": 0.12265924999999811
                },
                {
                    "name": "A5",
                    "midi": 81,
                    "time": 227.53290874999905,
                    "velocity": 0.2755905511811024,
                    "duration": 0.12265924999999811
                },
                {
                    "name": "G4",
                    "midi": 67,
                    "time": 227.65556799999905,
                    "velocity": 0.3228346456692913,
                    "duration": 0.15332406249999053
                },
                {
                    "name": "B4",
                    "midi": 71,
                    "time": 227.77822724999905,
                    "velocity": 0.28346456692913385,
                    "duration": 0.12265924999999811
                },
                {
                    "name": "E5",
                    "midi": 76,
                    "time": 227.90088649999905,
                    "velocity": 0.28346456692913385,
                    "duration": 0.12265924999999811
                },
                {
                    "name": "G5",
                    "midi": 79,
                    "time": 228.02354574999904,
                    "velocity": 0.25984251968503935,
                    "duration": 0.12265924999999811
                },
                {
                    "name": "F#4",
                    "midi": 66,
                    "time": 228.14620499999904,
                    "velocity": 0.3543307086614173,
                    "duration": 0.15332406249999053
                },
                {
                    "name": "A4",
                    "midi": 69,
                    "time": 228.26886424999904,
                    "velocity": 0.29133858267716534,
                    "duration": 0.12265924999999811
                },
                {
                    "name": "D5",
                    "midi": 74,
                    "time": 228.39152349999904,
                    "velocity": 0.29133858267716534,
                    "duration": 0.12265924999999811
                },
                {
                    "name": "F#5",
                    "midi": 78,
                    "time": 228.51418274999904,
                    "velocity": 0.2755905511811024,
                    "duration": 0.12265924999999811
                },
                {
                    "name": "E4",
                    "midi": 64,
                    "time": 228.63684199999904,
                    "velocity": 0.3228346456692913,
                    "duration": 0.15332406249999053
                },
                {
                    "name": "G4",
                    "midi": 67,
                    "time": 228.75950124999903,
                    "velocity": 0.29133858267716534,
                    "duration": 0.12265924999999811
                },
                {
                    "name": "C#5",
                    "midi": 73,
                    "time": 228.88216049999903,
                    "velocity": 0.29133858267716534,
                    "duration": 0.12265924999999811
                },
                {
                    "name": "G5",
                    "midi": 79,
                    "time": 229.00481974999903,
                    "velocity": 0.28346456692913385,
                    "duration": 0.12265924999999811
                },
                {
                    "name": "D4",
                    "midi": 62,
                    "time": 229.12747899999903,
                    "velocity": 0.31496062992125984,
                    "duration": 0.12265924999999811
                },
                {
                    "name": "A4",
                    "midi": 69,
                    "time": 229.25013824999903,
                    "velocity": 0.2677165354330709,
                    "duration": 0.12265924999999811
                },
                {
                    "name": "F#5",
                    "midi": 78,
                    "time": 229.37279749999902,
                    "velocity": 0.2677165354330709,
                    "duration": 0.12265924999999811
                },
                {
                    "name": "D6",
                    "midi": 86,
                    "time": 229.49545674999902,
                    "velocity": 0.2755905511811024,
                    "duration": 0.12265924999999811
                },
                {
                    "name": "D5",
                    "midi": 74,
                    "time": 229.61811599999902,
                    "velocity": 0.2755905511811024,
                    "duration": 0.49063699999999244
                },
                {
                    "name": "F#5",
                    "midi": 78,
                    "time": 229.61811599999902,
                    "velocity": 0.33070866141732286,
                    "duration": 0.49063699999999244
                },
                {
                    "name": "C#5",
                    "midi": 73,
                    "time": 230.108752999999,
                    "velocity": 0.2440944881889764,
                    "duration": 0.24531849999999622
                },
                {
                    "name": "E5",
                    "midi": 76,
                    "time": 230.108752999999,
                    "velocity": 0.29133858267716534,
                    "duration": 0.24531849999999622
                },
                {
                    "name": "F#5",
                    "midi": 78,
                    "time": 230.599389999999,
                    "velocity": 0.30708661417322836,
                    "duration": 0.12265924999999811
                },
                {
                    "name": "D5",
                    "midi": 74,
                    "time": 230.722049249999,
                    "velocity": 0.33070866141732286,
                    "duration": 0.12265924999999811
                },
                {
                    "name": "A5",
                    "midi": 81,
                    "time": 230.844708499999,
                    "velocity": 0.3543307086614173,
                    "duration": 0.12265924999999811
                },
                {
                    "name": "F#5",
                    "midi": 78,
                    "time": 230.967367749999,
                    "velocity": 0.3543307086614173,
                    "duration": 0.12265924999999811
                },
                {
                    "name": "D6",
                    "midi": 86,
                    "time": 231.090026999999,
                    "velocity": 0.4251968503937008,
                    "duration": 0.12265924999999811
                },
                {
                    "name": "A5",
                    "midi": 81,
                    "time": 231.212686249999,
                    "velocity": 0.33070866141732286,
                    "duration": 0.12265924999999811
                },
                {
                    "name": "F#5",
                    "midi": 78,
                    "time": 231.335345499999,
                    "velocity": 0.33070866141732286,
                    "duration": 0.12265924999999811
                },
                {
                    "name": "D5",
                    "midi": 74,
                    "time": 231.458004749999,
                    "velocity": 0.33070866141732286,
                    "duration": 0.12265924999999811
                },
                {
                    "name": "B4",
                    "midi": 71,
                    "time": 231.580663999999,
                    "velocity": 0.3779527559055118,
                    "duration": 0.15332406249999053
                },
                {
                    "name": "D5",
                    "midi": 74,
                    "time": 231.703323249999,
                    "velocity": 0.30708661417322836,
                    "duration": 0.12265924999999811
                },
                {
                    "name": "E5",
                    "midi": 76,
                    "time": 231.825982499999,
                    "velocity": 0.30708661417322836,
                    "duration": 0.12265924999999811
                },
                {
                    "name": "G#5",
                    "midi": 80,
                    "time": 231.94864174999898,
                    "velocity": 0.30708661417322836,
                    "duration": 0.12265924999999811
                },
                {
                    "name": "C#5",
                    "midi": 73,
                    "time": 232.07130099999898,
                    "velocity": 0.3779527559055118,
                    "duration": 0.15332406249999053
                },
                {
                    "name": "E5",
                    "midi": 76,
                    "time": 232.19396024999898,
                    "velocity": 0.30708661417322836,
                    "duration": 0.12265924999999811
                },
                {
                    "name": "C#6",
                    "midi": 85,
                    "time": 232.31661949999898,
                    "velocity": 0.30708661417322836,
                    "duration": 0.12265924999999811
                },
                {
                    "name": "E6",
                    "midi": 88,
                    "time": 232.43927874999898,
                    "velocity": 0.30708661417322836,
                    "duration": 0.12265924999999811
                },
                {
                    "name": "B4",
                    "midi": 71,
                    "time": 232.56193799999897,
                    "velocity": 0.3543307086614173,
                    "duration": 0.15332406249999053
                },
                {
                    "name": "D5",
                    "midi": 74,
                    "time": 232.68459724999897,
                    "velocity": 0.28346456692913385,
                    "duration": 0.12265924999999811
                },
                {
                    "name": "G5",
                    "midi": 79,
                    "time": 232.80725649999897,
                    "velocity": 0.28346456692913385,
                    "duration": 0.12265924999999811
                },
                {
                    "name": "B5",
                    "midi": 83,
                    "time": 232.92991574999897,
                    "velocity": 0.2677165354330709,
                    "duration": 0.12265924999999811
                },
                {
                    "name": "A4",
                    "midi": 69,
                    "time": 233.05257499999897,
                    "velocity": 0.33070866141732286,
                    "duration": 0.15332406249999053
                },
                {
                    "name": "C#5",
                    "midi": 73,
                    "time": 233.17523424999897,
                    "velocity": 0.25196850393700787,
                    "duration": 0.12265924999999811
                },
                {
                    "name": "F#5",
                    "midi": 78,
                    "time": 233.29789349999896,
                    "velocity": 0.25196850393700787,
                    "duration": 0.12265924999999811
                },
                {
                    "name": "A5",
                    "midi": 81,
                    "time": 233.42055274999896,
                    "velocity": 0.25196850393700787,
                    "duration": 0.12265924999999811
                },
                {
                    "name": "G4",
                    "midi": 67,
                    "time": 233.54321199999896,
                    "velocity": 0.29133858267716534,
                    "duration": 0.15332406249999053
                },
                {
                    "name": "B4",
                    "midi": 71,
                    "time": 233.66587124999896,
                    "velocity": 0.25984251968503935,
                    "duration": 0.12265924999999811
                },
                {
                    "name": "E5",
                    "midi": 76,
                    "time": 233.78853049999896,
                    "velocity": 0.25984251968503935,
                    "duration": 0.12265924999999811
                },
                {
                    "name": "G5",
                    "midi": 79,
                    "time": 233.91118974999895,
                    "velocity": 0.25984251968503935,
                    "duration": 0.12265924999999811
                },
                {
                    "name": "F#4",
                    "midi": 66,
                    "time": 234.03384899999895,
                    "velocity": 0.3543307086614173,
                    "duration": 0.15332406249999053
                },
                {
                    "name": "A4",
                    "midi": 69,
                    "time": 234.15650824999895,
                    "velocity": 0.29133858267716534,
                    "duration": 0.12265924999999811
                },
                {
                    "name": "D5",
                    "midi": 74,
                    "time": 234.27916749999895,
                    "velocity": 0.29133858267716534,
                    "duration": 0.12265924999999811
                },
                {
                    "name": "F#5",
                    "midi": 78,
                    "time": 234.40182674999895,
                    "velocity": 0.2755905511811024,
                    "duration": 0.12265924999999811
                },
                {
                    "name": "G4",
                    "midi": 67,
                    "time": 234.52448599999894,
                    "velocity": 0.31496062992125984,
                    "duration": 0.15332406249999053
                },
                {
                    "name": "B4",
                    "midi": 71,
                    "time": 234.64714524999894,
                    "velocity": 0.25196850393700787,
                    "duration": 0.12265924999999811
                },
                {
                    "name": "E5",
                    "midi": 76,
                    "time": 234.76980449999894,
                    "velocity": 0.25196850393700787,
                    "duration": 0.12265924999999811
                },
                {
                    "name": "G5",
                    "midi": 79,
                    "time": 234.89246374999894,
                    "velocity": 0.2440944881889764,
                    "duration": 0.12265924999999811
                },
                {
                    "name": "A3",
                    "midi": 57,
                    "time": 235.01512299999894,
                    "velocity": 0.29133858267716534,
                    "duration": 0.12265924999999811
                },
                {
                    "name": "E4",
                    "midi": 64,
                    "time": 235.13778224999893,
                    "velocity": 0.2204724409448819,
                    "duration": 0.12265924999999811
                },
                {
                    "name": "G4",
                    "midi": 67,
                    "time": 235.26044149999893,
                    "velocity": 0.2204724409448819,
                    "duration": 0.12265924999999811
                },
                {
                    "name": "C#5",
                    "midi": 73,
                    "time": 235.38310074999893,
                    "velocity": 0.2204724409448819,
                    "duration": 0.12265924999999811
                },
                {
                    "name": "D5",
                    "midi": 74,
                    "time": 235.50575999999893,
                    "velocity": 0.29133858267716534,
                    "duration": 0.49063699999999244
                },
                {
                    "name": "F#4",
                    "midi": 66,
                    "time": 235.50575999999893,
                    "velocity": 0.29133858267716534,
                    "duration": 0.49063699999999244
                }
            ],
            "controlChanges": {},
            "id": 1,
            "name": "Piano right",
            "instrumentNumber": 0,
            "instrument": "acoustic grand piano",
            "instrumentFamily": "piano",
            "channelNumber": 0,
            "isPercussion": false
        },
        {
            "startTime": 1.471911,
            "duration": 236.24171549999946,
            "length": 458,
            "notes": [
                {
                    "name": "D4",
                    "midi": 62,
                    "time": 1.471911,
                    "velocity": 0.36220472440944884,
                    "duration": 0.12265924999999989
                },
                {
                    "name": "F#4",
                    "midi": 66,
                    "time": 1.962548,
                    "velocity": 0.3228346456692913,
                    "duration": 0.12265924999999989
                },
                {
                    "name": "D4",
                    "midi": 62,
                    "time": 2.453185,
                    "velocity": 0.3228346456692913,
                    "duration": 0.24531850000000022
                },
                {
                    "name": "A4",
                    "midi": 69,
                    "time": 2.943822,
                    "velocity": 0.3700787401574803,
                    "duration": 0.490637
                },
                {
                    "name": "A3",
                    "midi": 57,
                    "time": 3.434459,
                    "velocity": 0.2992125984251969,
                    "duration": 0.490637
                },
                {
                    "name": "C#4",
                    "midi": 61,
                    "time": 3.925096,
                    "velocity": 0.2992125984251969,
                    "duration": 0.49063699999999955
                },
                {
                    "name": "D4",
                    "midi": 62,
                    "time": 4.4157329999999995,
                    "velocity": 0.3543307086614173,
                    "duration": 0.49063699999999955
                },
                {
                    "name": "F#4",
                    "midi": 66,
                    "time": 4.906369999999999,
                    "velocity": 0.3700787401574803,
                    "duration": 0.49063699999999955
                },
                {
                    "name": "G4",
                    "midi": 67,
                    "time": 5.3970069999999986,
                    "velocity": 0.3779527559055118,
                    "duration": 0.49063699999999955
                },
                {
                    "name": "A4",
                    "midi": 69,
                    "time": 5.887643999999998,
                    "velocity": 0.30708661417322836,
                    "duration": 0.49063699999999955
                },
                {
                    "name": "A3",
                    "midi": 57,
                    "time": 6.378280999999998,
                    "velocity": 0.23622047244094488,
                    "duration": 0.36797774999999966
                },
                {
                    "name": "D4",
                    "midi": 62,
                    "time": 7.359554999999998,
                    "velocity": 0.36220472440944884,
                    "duration": 0.12265924999999989
                },
                {
                    "name": "F#4",
                    "midi": 66,
                    "time": 7.850191999999997,
                    "velocity": 0.3228346456692913,
                    "duration": 0.12265924999999989
                },
                {
                    "name": "D4",
                    "midi": 62,
                    "time": 8.340828999999998,
                    "velocity": 0.3228346456692913,
                    "duration": 0.24531849999999977
                },
                {
                    "name": "A4",
                    "midi": 69,
                    "time": 8.831465999999997,
                    "velocity": 0.3700787401574803,
                    "duration": 0.49063699999999955
                },
                {
                    "name": "C#4",
                    "midi": 61,
                    "time": 9.322102999999997,
                    "velocity": 0.2992125984251969,
                    "duration": 0.49063699999999955
                },
                {
                    "name": "D4",
                    "midi": 62,
                    "time": 9.812739999999996,
                    "velocity": 0.30708661417322836,
                    "duration": 0.49063699999999955
                },
                {
                    "name": "G3",
                    "midi": 55,
                    "time": 10.303376999999996,
                    "velocity": 0.30708661417322836,
                    "duration": 0.9812740000000009
                },
                {
                    "name": "G4",
                    "midi": 67,
                    "time": 10.303376999999996,
                    "velocity": 0.3700787401574803,
                    "duration": 0.9812740000000009
                },
                {
                    "name": "E4",
                    "midi": 64,
                    "time": 11.284650999999997,
                    "velocity": 0.31496062992125984,
                    "duration": 0.49063699999999955
                },
                {
                    "name": "A3",
                    "midi": 57,
                    "time": 11.284650999999997,
                    "velocity": 0.2677165354330709,
                    "duration": 0.49063699999999955
                },
                {
                    "name": "D4",
                    "midi": 62,
                    "time": 11.775287999999996,
                    "velocity": 0.36220472440944884,
                    "duration": 0.49063699999999955
                },
                {
                    "name": "D3",
                    "midi": 50,
                    "time": 12.265924999999996,
                    "velocity": 0.2204724409448819,
                    "duration": 0.49063699999999955
                },
                {
                    "name": "D4",
                    "midi": 62,
                    "time": 13.247198999999995,
                    "velocity": 0.36220472440944884,
                    "duration": 0.12265924999999989
                },
                {
                    "name": "F#4",
                    "midi": 66,
                    "time": 13.737835999999994,
                    "velocity": 0.3228346456692913,
                    "duration": 0.12265924999999989
                },
                {
                    "name": "D4",
                    "midi": 62,
                    "time": 14.228472999999994,
                    "velocity": 0.3228346456692913,
                    "duration": 0.24531849999999977
                },
                {
                    "name": "A4",
                    "midi": 69,
                    "time": 14.719109999999993,
                    "velocity": 0.3700787401574803,
                    "duration": 0.49063699999999955
                },
                {
                    "name": "A3",
                    "midi": 57,
                    "time": 15.209746999999993,
                    "velocity": 0.2992125984251969,
                    "duration": 0.49063699999999955
                },
                {
                    "name": "C#4",
                    "midi": 61,
                    "time": 15.700383999999993,
                    "velocity": 0.2992125984251969,
                    "duration": 0.49063699999999955
                },
                {
                    "name": "D4",
                    "midi": 62,
                    "time": 16.191020999999992,
                    "velocity": 0.3543307086614173,
                    "duration": 0.49063699999999955
                },
                {
                    "name": "F#4",
                    "midi": 66,
                    "time": 16.68165799999999,
                    "velocity": 0.3700787401574803,
                    "duration": 0.49063699999999955
                },
                {
                    "name": "G4",
                    "midi": 67,
                    "time": 17.17229499999999,
                    "velocity": 0.3779527559055118,
                    "duration": 0.49063699999999955
                },
                {
                    "name": "A4",
                    "midi": 69,
                    "time": 17.66293199999999,
                    "velocity": 0.30708661417322836,
                    "duration": 0.49063699999999955
                },
                {
                    "name": "A3",
                    "midi": 57,
                    "time": 18.15356899999999,
                    "velocity": 0.23622047244094488,
                    "duration": 0.36797775000000144
                },
                {
                    "name": "D4",
                    "midi": 62,
                    "time": 19.134842999999993,
                    "velocity": 0.36220472440944884,
                    "duration": 0.12265925000000166
                },
                {
                    "name": "F#4",
                    "midi": 66,
                    "time": 19.625479999999996,
                    "velocity": 0.3228346456692913,
                    "duration": 0.12265925000000166
                },
                {
                    "name": "D4",
                    "midi": 62,
                    "time": 20.116117,
                    "velocity": 0.3228346456692913,
                    "duration": 0.24531849999999977
                },
                {
                    "name": "A4",
                    "midi": 69,
                    "time": 20.606754,
                    "velocity": 0.3700787401574803,
                    "duration": 0.49063699999999955
                },
                {
                    "name": "C#4",
                    "midi": 61,
                    "time": 21.097391,
                    "velocity": 0.2992125984251969,
                    "duration": 0.49063699999999955
                },
                {
                    "name": "D4",
                    "midi": 62,
                    "time": 21.588027999999998,
                    "velocity": 0.30708661417322836,
                    "duration": 0.49063699999999955
                },
                {
                    "name": "G3",
                    "midi": 55,
                    "time": 22.078664999999997,
                    "velocity": 0.30708661417322836,
                    "duration": 0.9812739999999991
                },
                {
                    "name": "G4",
                    "midi": 67,
                    "time": 22.078664999999997,
                    "velocity": 0.3700787401574803,
                    "duration": 0.9812739999999991
                },
                {
                    "name": "E4",
                    "midi": 64,
                    "time": 23.059938999999996,
                    "velocity": 0.31496062992125984,
                    "duration": 0.49063699999999955
                },
                {
                    "name": "A3",
                    "midi": 57,
                    "time": 23.059938999999996,
                    "velocity": 0.2677165354330709,
                    "duration": 0.49063699999999955
                },
                {
                    "name": "D4",
                    "midi": 62,
                    "time": 23.550575999999996,
                    "velocity": 0.36220472440944884,
                    "duration": 0.49063699999999955
                },
                {
                    "name": "D3",
                    "midi": 50,
                    "time": 24.041212999999996,
                    "velocity": 0.2677165354330709,
                    "duration": 0.49063699999999955
                },
                {
                    "name": "D5",
                    "midi": 74,
                    "time": 25.513123999999994,
                    "velocity": 0.2992125984251969,
                    "duration": 0.49063699999999955
                },
                {
                    "name": "C#5",
                    "midi": 73,
                    "time": 26.003760999999994,
                    "velocity": 0.29133858267716534,
                    "duration": 0.49063699999999955
                },
                {
                    "name": "B4",
                    "midi": 71,
                    "time": 26.494397999999993,
                    "velocity": 0.2992125984251969,
                    "duration": 0.49063699999999955
                },
                {
                    "name": "A4",
                    "midi": 69,
                    "time": 26.985034999999993,
                    "velocity": 0.30708661417322836,
                    "duration": 0.49063699999999955
                },
                {
                    "name": "G4",
                    "midi": 67,
                    "time": 27.475671999999992,
                    "velocity": 0.31496062992125984,
                    "duration": 0.49063699999999955
                },
                {
                    "name": "F#4",
                    "midi": 66,
                    "time": 27.966308999999992,
                    "velocity": 0.36220472440944884,
                    "duration": 0.49063699999999955
                },
                {
                    "name": "E4",
                    "midi": 64,
                    "time": 28.45694599999999,
                    "velocity": 0.3779527559055118,
                    "duration": 0.49063699999999955
                },
                {
                    "name": "D4",
                    "midi": 62,
                    "time": 28.94758299999999,
                    "velocity": 0.3779527559055118,
                    "duration": 0.49063699999999955
                },
                {
                    "name": "A4",
                    "midi": 69,
                    "time": 29.43821999999999,
                    "velocity": 0.33858267716535434,
                    "duration": 0.49063699999999955
                },
                {
                    "name": "A3",
                    "midi": 57,
                    "time": 29.92885699999999,
                    "velocity": 0.28346456692913385,
                    "duration": 0.24531849999999977
                },
                {
                    "name": "D5",
                    "midi": 74,
                    "time": 31.40076799999999,
                    "velocity": 0.2992125984251969,
                    "duration": 0.49063699999999955
                },
                {
                    "name": "C#5",
                    "midi": 73,
                    "time": 31.89140499999999,
                    "velocity": 0.29133858267716534,
                    "duration": 0.4906370000000031
                },
                {
                    "name": "B4",
                    "midi": 71,
                    "time": 32.38204199999999,
                    "velocity": 0.2992125984251969,
                    "duration": 0.49063699999999955
                },
                {
                    "name": "A4",
                    "midi": 69,
                    "time": 32.87267899999999,
                    "velocity": 0.30708661417322836,
                    "duration": 0.49063699999999955
                },
                {
                    "name": "G4",
                    "midi": 67,
                    "time": 33.36331599999999,
                    "velocity": 0.3228346456692913,
                    "duration": 0.49063699999999955
                },
                {
                    "name": "F#4",
                    "midi": 66,
                    "time": 33.85395299999999,
                    "velocity": 0.3700787401574803,
                    "duration": 0.49063699999999955
                },
                {
                    "name": "A4",
                    "midi": 69,
                    "time": 34.34458999999999,
                    "velocity": 0.33070866141732286,
                    "duration": 0.49063699999999955
                },
                {
                    "name": "A3",
                    "midi": 57,
                    "time": 34.83522699999999,
                    "velocity": 0.2992125984251969,
                    "duration": 0.49063699999999955
                },
                {
                    "name": "D4",
                    "midi": 62,
                    "time": 35.32586399999999,
                    "velocity": 0.3700787401574803,
                    "duration": 0.49063699999999955
                },
                {
                    "name": "D3",
                    "midi": 50,
                    "time": 35.81650099999999,
                    "velocity": 0.2440944881889764,
                    "duration": 0.36797775000000144
                },
                {
                    "name": "D5",
                    "midi": 74,
                    "time": 37.28841199999999,
                    "velocity": 0.2992125984251969,
                    "duration": 0.49063699999999955
                },
                {
                    "name": "C#5",
                    "midi": 73,
                    "time": 37.779048999999986,
                    "velocity": 0.29133858267716534,
                    "duration": 0.49063699999999955
                },
                {
                    "name": "B4",
                    "midi": 71,
                    "time": 38.269685999999986,
                    "velocity": 0.2992125984251969,
                    "duration": 0.49063699999999955
                },
                {
                    "name": "A4",
                    "midi": 69,
                    "time": 38.760322999999985,
                    "velocity": 0.30708661417322836,
                    "duration": 0.49063699999999955
                },
                {
                    "name": "G4",
                    "midi": 67,
                    "time": 39.250959999999985,
                    "velocity": 0.31496062992125984,
                    "duration": 0.49063699999999955
                },
                {
                    "name": "F#4",
                    "midi": 66,
                    "time": 39.741596999999985,
                    "velocity": 0.36220472440944884,
                    "duration": 0.49063699999999955
                },
                {
                    "name": "E4",
                    "midi": 64,
                    "time": 40.232233999999984,
                    "velocity": 0.3779527559055118,
                    "duration": 0.49063699999999955
                },
                {
                    "name": "D4",
                    "midi": 62,
                    "time": 40.722870999999984,
                    "velocity": 0.3779527559055118,
                    "duration": 0.49063699999999955
                },
                {
                    "name": "A4",
                    "midi": 69,
                    "time": 41.21350799999998,
                    "velocity": 0.33858267716535434,
                    "duration": 0.49063699999999955
                },
                {
                    "name": "A3",
                    "midi": 57,
                    "time": 41.70414499999998,
                    "velocity": 0.28346456692913385,
                    "duration": 0.24531850000000333
                },
                {
                    "name": "D5",
                    "midi": 74,
                    "time": 43.17605599999999,
                    "velocity": 0.2992125984251969,
                    "duration": 0.49063699999999955
                },
                {
                    "name": "C#5",
                    "midi": 73,
                    "time": 43.66669299999999,
                    "velocity": 0.29133858267716534,
                    "duration": 0.49063699999999955
                },
                {
                    "name": "B4",
                    "midi": 71,
                    "time": 44.15732999999999,
                    "velocity": 0.2992125984251969,
                    "duration": 0.49063699999999955
                },
                {
                    "name": "A4",
                    "midi": 69,
                    "time": 44.64796699999999,
                    "velocity": 0.30708661417322836,
                    "duration": 0.49063699999999955
                },
                {
                    "name": "G4",
                    "midi": 67,
                    "time": 45.13860399999999,
                    "velocity": 0.3228346456692913,
                    "duration": 0.49063699999999955
                },
                {
                    "name": "F#4",
                    "midi": 66,
                    "time": 45.629240999999986,
                    "velocity": 0.3700787401574803,
                    "duration": 0.49063699999999955
                },
                {
                    "name": "A4",
                    "midi": 69,
                    "time": 46.119877999999986,
                    "velocity": 0.33070866141732286,
                    "duration": 0.49063699999999955
                },
                {
                    "name": "A3",
                    "midi": 57,
                    "time": 46.610514999999985,
                    "velocity": 0.2992125984251969,
                    "duration": 0.49063699999999955
                },
                {
                    "name": "D4",
                    "midi": 62,
                    "time": 47.101151999999985,
                    "velocity": 0.3700787401574803,
                    "duration": 0.49063699999999955
                },
                {
                    "name": "D3",
                    "midi": 50,
                    "time": 47.591788999999984,
                    "velocity": 0.2440944881889764,
                    "duration": 0.36797775000000144
                },
                {
                    "name": "F3",
                    "midi": 53,
                    "time": 49.06369999999998,
                    "velocity": 0.3700787401574803,
                    "duration": 0.49063699999999955
                },
                {
                    "name": "D3",
                    "midi": 50,
                    "time": 49.55433699999998,
                    "velocity": 0.31496062992125984,
                    "duration": 0.49063699999999955
                },
                {
                    "name": "E3",
                    "midi": 52,
                    "time": 50.04497399999998,
                    "velocity": 0.3779527559055118,
                    "duration": 0.9812739999999991
                },
                {
                    "name": "C#3",
                    "midi": 49,
                    "time": 51.02624799999998,
                    "velocity": 0.31496062992125984,
                    "duration": 0.49063699999999955
                },
                {
                    "name": "D3",
                    "midi": 50,
                    "time": 51.51688499999998,
                    "velocity": 0.36220472440944884,
                    "duration": 0.49063699999999955
                },
                {
                    "name": "F2",
                    "midi": 41,
                    "time": 52.00752199999998,
                    "velocity": 0.3779527559055118,
                    "duration": 0.49063699999999955
                },
                {
                    "name": "G2",
                    "midi": 43,
                    "time": 52.49815899999998,
                    "velocity": 0.3228346456692913,
                    "duration": 0.49063699999999955
                },
                {
                    "name": "A2",
                    "midi": 45,
                    "time": 52.98879599999998,
                    "velocity": 0.33858267716535434,
                    "duration": 0.49063699999999955
                },
                {
                    "name": "A1",
                    "midi": 33,
                    "time": 53.47943299999998,
                    "velocity": 0.28346456692913385,
                    "duration": 0.24531850000000333
                },
                {
                    "name": "F3",
                    "midi": 53,
                    "time": 54.460706999999985,
                    "velocity": 0.30708661417322836,
                    "duration": 0.9812739999999991
                },
                {
                    "name": "A3",
                    "midi": 57,
                    "time": 54.460706999999985,
                    "velocity": 0.30708661417322836,
                    "duration": 0.9812739999999991
                },
                {
                    "name": "C4",
                    "midi": 60,
                    "time": 54.460706999999985,
                    "velocity": 0.3700787401574803,
                    "duration": 0.9812739999999991
                },
                {
                    "name": "D#4",
                    "midi": 63,
                    "time": 55.441980999999984,
                    "velocity": 0.2677165354330709,
                    "duration": 0.49063699999999955
                },
                {
                    "name": "F4",
                    "midi": 65,
                    "time": 55.441980999999984,
                    "velocity": 0.31496062992125984,
                    "duration": 0.49063699999999955
                },
                {
                    "name": "F4",
                    "midi": 65,
                    "time": 55.932617999999984,
                    "velocity": 0.41732283464566927,
                    "duration": 0.9812739999999991
                },
                {
                    "name": "D4",
                    "midi": 62,
                    "time": 55.932617999999984,
                    "velocity": 0.3543307086614173,
                    "duration": 0.49063699999999955
                },
                {
                    "name": "A#3",
                    "midi": 58,
                    "time": 56.42325499999998,
                    "velocity": 0.33858267716535434,
                    "duration": 0.49063699999999955
                },
                {
                    "name": "A#3",
                    "midi": 58,
                    "time": 56.91389199999998,
                    "velocity": 0.4251968503937008,
                    "duration": 0.49063699999999955
                },
                {
                    "name": "G3",
                    "midi": 55,
                    "time": 56.91389199999998,
                    "velocity": 0.3543307086614173,
                    "duration": 0.49063699999999955
                },
                {
                    "name": "A3",
                    "midi": 57,
                    "time": 57.40452899999998,
                    "velocity": 0.4015748031496063,
                    "duration": 0.49063699999999955
                },
                {
                    "name": "C4",
                    "midi": 60,
                    "time": 57.40452899999998,
                    "velocity": 0.48031496062992124,
                    "duration": 0.49063699999999955
                },
                {
                    "name": "C4",
                    "midi": 60,
                    "time": 57.89516599999998,
                    "velocity": 0.33070866141732286,
                    "duration": 0.49063699999999955
                },
                {
                    "name": "C3",
                    "midi": 48,
                    "time": 58.38580299999998,
                    "velocity": 0.2992125984251969,
                    "duration": 0.49063699999999955
                },
                {
                    "name": "F3",
                    "midi": 53,
                    "time": 58.87643999999998,
                    "velocity": 0.3700787401574803,
                    "duration": 0.49063699999999955
                },
                {
                    "name": "F2",
                    "midi": 41,
                    "time": 59.36707699999998,
                    "velocity": 0.2440944881889764,
                    "duration": 0.36797775000000144
                },
                {
                    "name": "F3",
                    "midi": 53,
                    "time": 60.83898799999998,
                    "velocity": 0.3700787401574803,
                    "duration": 0.49063699999999955
                },
                {
                    "name": "D3",
                    "midi": 50,
                    "time": 61.32962499999998,
                    "velocity": 0.31496062992125984,
                    "duration": 0.49063699999999955
                },
                {
                    "name": "E3",
                    "midi": 52,
                    "time": 61.82026199999998,
                    "velocity": 0.3779527559055118,
                    "duration": 0.9812739999999991
                },
                {
                    "name": "C#3",
                    "midi": 49,
                    "time": 62.80153599999998,
                    "velocity": 0.31496062992125984,
                    "duration": 0.49063699999999955
                },
                {
                    "name": "D3",
                    "midi": 50,
                    "time": 63.29217299999998,
                    "velocity": 0.36220472440944884,
                    "duration": 0.49063699999999955
                },
                {
                    "name": "F2",
                    "midi": 41,
                    "time": 63.78280999999998,
                    "velocity": 0.3779527559055118,
                    "duration": 0.49063699999999955
                },
                {
                    "name": "G2",
                    "midi": 43,
                    "time": 64.27344699999998,
                    "velocity": 0.3228346456692913,
                    "duration": 0.49063700000000665
                },
                {
                    "name": "A2",
                    "midi": 45,
                    "time": 64.76408399999998,
                    "velocity": 0.33858267716535434,
                    "duration": 0.49063700000000665
                },
                {
                    "name": "A1",
                    "midi": 33,
                    "time": 65.25472099999999,
                    "velocity": 0.28346456692913385,
                    "duration": 0.24531849999999622
                },
                {
                    "name": "F3",
                    "midi": 53,
                    "time": 66.23599499999999,
                    "velocity": 0.30708661417322836,
                    "duration": 0.9812739999999991
                },
                {
                    "name": "A3",
                    "midi": 57,
                    "time": 66.23599499999999,
                    "velocity": 0.30708661417322836,
                    "duration": 0.9812739999999991
                },
                {
                    "name": "C4",
                    "midi": 60,
                    "time": 66.23599499999999,
                    "velocity": 0.3700787401574803,
                    "duration": 0.9812739999999991
                },
                {
                    "name": "D#4",
                    "midi": 63,
                    "time": 67.21726899999999,
                    "velocity": 0.2677165354330709,
                    "duration": 0.49063700000000665
                },
                {
                    "name": "F4",
                    "midi": 65,
                    "time": 67.21726899999999,
                    "velocity": 0.31496062992125984,
                    "duration": 0.49063700000000665
                },
                {
                    "name": "F4",
                    "midi": 65,
                    "time": 67.707906,
                    "velocity": 0.41732283464566927,
                    "duration": 0.9812740000000133
                },
                {
                    "name": "D4",
                    "midi": 62,
                    "time": 67.707906,
                    "velocity": 0.3543307086614173,
                    "duration": 0.49063700000000665
                },
                {
                    "name": "A#3",
                    "midi": 58,
                    "time": 68.198543,
                    "velocity": 0.33858267716535434,
                    "duration": 0.49063700000000665
                },
                {
                    "name": "A#3",
                    "midi": 58,
                    "time": 68.68918000000001,
                    "velocity": 0.4251968503937008,
                    "duration": 0.49063700000000665
                },
                {
                    "name": "G3",
                    "midi": 55,
                    "time": 68.68918000000001,
                    "velocity": 0.3543307086614173,
                    "duration": 0.49063700000000665
                },
                {
                    "name": "A3",
                    "midi": 57,
                    "time": 69.17981700000001,
                    "velocity": 0.4015748031496063,
                    "duration": 0.49063700000000665
                },
                {
                    "name": "C4",
                    "midi": 60,
                    "time": 69.17981700000001,
                    "velocity": 0.48031496062992124,
                    "duration": 0.49063700000000665
                },
                {
                    "name": "C4",
                    "midi": 60,
                    "time": 69.67045400000002,
                    "velocity": 0.33070866141732286,
                    "duration": 0.49063700000000665
                },
                {
                    "name": "C3",
                    "midi": 48,
                    "time": 70.16109100000003,
                    "velocity": 0.2992125984251969,
                    "duration": 0.49063700000000665
                },
                {
                    "name": "F3",
                    "midi": 53,
                    "time": 70.65172800000003,
                    "velocity": 0.3700787401574803,
                    "duration": 0.49063700000000665
                },
                {
                    "name": "F2",
                    "midi": 41,
                    "time": 71.14236500000004,
                    "velocity": 0.2440944881889764,
                    "duration": 0.36797774999999433
                },
                {
                    "name": "A4",
                    "midi": 69,
                    "time": 72.61427600000003,
                    "velocity": 0.2283464566929134,
                    "duration": 0.49063700000000665
                },
                {
                    "name": "C5",
                    "midi": 72,
                    "time": 72.61427600000003,
                    "velocity": 0.2755905511811024,
                    "duration": 0.49063700000000665
                },
                {
                    "name": "G4",
                    "midi": 67,
                    "time": 73.10491300000004,
                    "velocity": 0.1968503937007874,
                    "duration": 0.49063700000000665
                },
                {
                    "name": "A#4",
                    "midi": 70,
                    "time": 73.10491300000004,
                    "velocity": 0.23622047244094488,
                    "duration": 0.49063700000000665
                },
                {
                    "name": "A4",
                    "midi": 69,
                    "time": 73.59555000000005,
                    "velocity": 0.28346456692913385,
                    "duration": 0.9812739999999991
                },
                {
                    "name": "F#4",
                    "midi": 66,
                    "time": 73.59555000000005,
                    "velocity": 0.23622047244094488,
                    "duration": 0.9812739999999991
                },
                {
                    "name": "G4",
                    "midi": 67,
                    "time": 74.57682400000004,
                    "velocity": 0.2204724409448819,
                    "duration": 0.49063700000000665
                },
                {
                    "name": "D5",
                    "midi": 74,
                    "time": 74.57682400000004,
                    "velocity": 0.2677165354330709,
                    "duration": 0.49063700000000665
                },
                {
                    "name": "E4",
                    "midi": 64,
                    "time": 75.06746100000005,
                    "velocity": 0.25984251968503935,
                    "duration": 0.49063700000000665
                },
                {
                    "name": "C5",
                    "midi": 72,
                    "time": 75.06746100000005,
                    "velocity": 0.30708661417322836,
                    "duration": 0.9812740000000133
                },
                {
                    "name": "F4",
                    "midi": 65,
                    "time": 75.55809800000006,
                    "velocity": 0.31496062992125984,
                    "duration": 0.49063700000000665
                },
                {
                    "name": "G4",
                    "midi": 67,
                    "time": 76.04873500000006,
                    "velocity": 0.2677165354330709,
                    "duration": 0.49063700000000665
                },
                {
                    "name": "G3",
                    "midi": 55,
                    "time": 76.04873500000006,
                    "velocity": 0.2204724409448819,
                    "duration": 0.49063700000000665
                },
                {
                    "name": "A3",
                    "midi": 57,
                    "time": 76.53937200000007,
                    "velocity": 0.1968503937007874,
                    "duration": 0.7359555000000029
                },
                {
                    "name": "E4",
                    "midi": 64,
                    "time": 76.53937200000007,
                    "velocity": 0.28346456692913385,
                    "duration": 0.7359555000000029
                },
                {
                    "name": "A#3",
                    "midi": 58,
                    "time": 78.50192000000007,
                    "velocity": 0.2755905511811024,
                    "duration": 0.49063700000000665
                },
                {
                    "name": "C#4",
                    "midi": 61,
                    "time": 78.50192000000007,
                    "velocity": 0.33070866141732286,
                    "duration": 0.49063700000000665
                },
                {
                    "name": "G3",
                    "midi": 55,
                    "time": 78.99255700000008,
                    "velocity": 0.23622047244094488,
                    "duration": 0.49063700000000665
                },
                {
                    "name": "A#3",
                    "midi": 58,
                    "time": 78.99255700000008,
                    "velocity": 0.28346456692913385,
                    "duration": 0.49063700000000665
                },
                {
                    "name": "F3",
                    "midi": 53,
                    "time": 79.48319400000008,
                    "velocity": 0.3543307086614173,
                    "duration": 0.49063700000000665
                },
                {
                    "name": "D4",
                    "midi": 62,
                    "time": 79.48319400000008,
                    "velocity": 0.41732283464566927,
                    "duration": 0.49063700000000665
                },
                {
                    "name": "A3",
                    "midi": 57,
                    "time": 79.48319400000008,
                    "velocity": 0.3543307086614173,
                    "duration": 0.49063700000000665
                },
                {
                    "name": "E3",
                    "midi": 52,
                    "time": 79.97383100000009,
                    "velocity": 0.33858267716535434,
                    "duration": 0.49063700000000665
                },
                {
                    "name": "G3",
                    "midi": 55,
                    "time": 79.97383100000009,
                    "velocity": 0.33858267716535434,
                    "duration": 0.49063700000000665
                },
                {
                    "name": "C#4",
                    "midi": 61,
                    "time": 79.97383100000009,
                    "velocity": 0.33858267716535434,
                    "duration": 0.49063700000000665
                },
                {
                    "name": "D3",
                    "midi": 50,
                    "time": 80.4644680000001,
                    "velocity": 0.3543307086614173,
                    "duration": 0.49063700000000665
                },
                {
                    "name": "D4",
                    "midi": 62,
                    "time": 80.4644680000001,
                    "velocity": 0.4251968503937008,
                    "duration": 0.49063700000000665
                },
                {
                    "name": "F3",
                    "midi": 53,
                    "time": 80.4644680000001,
                    "velocity": 0.3543307086614173,
                    "duration": 0.49063700000000665
                },
                {
                    "name": "G3",
                    "midi": 55,
                    "time": 80.9551050000001,
                    "velocity": 0.48031496062992124,
                    "duration": 0.49063700000000665
                },
                {
                    "name": "A3",
                    "midi": 57,
                    "time": 81.44574200000011,
                    "velocity": 0.33070866141732286,
                    "duration": 0.49063700000000665
                },
                {
                    "name": "A2",
                    "midi": 45,
                    "time": 81.93637900000012,
                    "velocity": 0.2992125984251969,
                    "duration": 0.49063700000000665
                },
                {
                    "name": "D3",
                    "midi": 50,
                    "time": 82.42701600000012,
                    "velocity": 0.3700787401574803,
                    "duration": 0.49063700000000665
                },
                {
                    "name": "D2",
                    "midi": 38,
                    "time": 82.91765300000013,
                    "velocity": 0.2440944881889764,
                    "duration": 0.36797774999999433
                },
                {
                    "name": "A4",
                    "midi": 69,
                    "time": 84.38956400000012,
                    "velocity": 0.2283464566929134,
                    "duration": 0.49063700000000665
                },
                {
                    "name": "C5",
                    "midi": 72,
                    "time": 84.38956400000012,
                    "velocity": 0.2755905511811024,
                    "duration": 0.49063700000000665
                },
                {
                    "name": "G4",
                    "midi": 67,
                    "time": 84.88020100000013,
                    "velocity": 0.1968503937007874,
                    "duration": 0.49063700000000665
                },
                {
                    "name": "A#4",
                    "midi": 70,
                    "time": 84.88020100000013,
                    "velocity": 0.23622047244094488,
                    "duration": 0.49063700000000665
                },
                {
                    "name": "A4",
                    "midi": 69,
                    "time": 85.37083800000013,
                    "velocity": 0.28346456692913385,
                    "duration": 0.9812739999999991
                },
                {
                    "name": "F#4",
                    "midi": 66,
                    "time": 85.37083800000013,
                    "velocity": 0.23622047244094488,
                    "duration": 0.9812739999999991
                },
                {
                    "name": "G4",
                    "midi": 67,
                    "time": 86.35211200000013,
                    "velocity": 0.2204724409448819,
                    "duration": 0.49063700000000665
                },
                {
                    "name": "D5",
                    "midi": 74,
                    "time": 86.35211200000013,
                    "velocity": 0.2677165354330709,
                    "duration": 0.49063700000000665
                },
                {
                    "name": "E4",
                    "midi": 64,
                    "time": 86.84274900000014,
                    "velocity": 0.25984251968503935,
                    "duration": 0.49063700000000665
                },
                {
                    "name": "C5",
                    "midi": 72,
                    "time": 86.84274900000014,
                    "velocity": 0.30708661417322836,
                    "duration": 0.9812740000000133
                },
                {
                    "name": "F4",
                    "midi": 65,
                    "time": 87.33338600000015,
                    "velocity": 0.31496062992125984,
                    "duration": 0.49063700000000665
                },
                {
                    "name": "G4",
                    "midi": 67,
                    "time": 87.82402300000015,
                    "velocity": 0.2677165354330709,
                    "duration": 0.49063700000000665
                },
                {
                    "name": "G3",
                    "midi": 55,
                    "time": 87.82402300000015,
                    "velocity": 0.2204724409448819,
                    "duration": 0.49063700000000665
                },
                {
                    "name": "A3",
                    "midi": 57,
                    "time": 88.31466000000016,
                    "velocity": 0.1968503937007874,
                    "duration": 0.7359555000000029
                },
                {
                    "name": "E4",
                    "midi": 64,
                    "time": 88.31466000000016,
                    "velocity": 0.28346456692913385,
                    "duration": 0.7359555000000029
                },
                {
                    "name": "A#3",
                    "midi": 58,
                    "time": 90.27720800000016,
                    "velocity": 0.2755905511811024,
                    "duration": 0.49063700000000665
                },
                {
                    "name": "C#4",
                    "midi": 61,
                    "time": 90.27720800000016,
                    "velocity": 0.33070866141732286,
                    "duration": 0.49063700000000665
                },
                {
                    "name": "G3",
                    "midi": 55,
                    "time": 90.76784500000016,
                    "velocity": 0.23622047244094488,
                    "duration": 0.49063700000000665
                },
                {
                    "name": "A#3",
                    "midi": 58,
                    "time": 90.76784500000016,
                    "velocity": 0.28346456692913385,
                    "duration": 0.49063700000000665
                },
                {
                    "name": "F3",
                    "midi": 53,
                    "time": 91.25848200000017,
                    "velocity": 0.3543307086614173,
                    "duration": 0.49063700000000665
                },
                {
                    "name": "D4",
                    "midi": 62,
                    "time": 91.25848200000017,
                    "velocity": 0.41732283464566927,
                    "duration": 0.49063700000000665
                },
                {
                    "name": "A3",
                    "midi": 57,
                    "time": 91.25848200000017,
                    "velocity": 0.3543307086614173,
                    "duration": 0.49063700000000665
                },
                {
                    "name": "E3",
                    "midi": 52,
                    "time": 91.74911900000018,
                    "velocity": 0.33858267716535434,
                    "duration": 0.49063700000000665
                },
                {
                    "name": "G3",
                    "midi": 55,
                    "time": 91.74911900000018,
                    "velocity": 0.33858267716535434,
                    "duration": 0.49063700000000665
                },
                {
                    "name": "C#4",
                    "midi": 61,
                    "time": 91.74911900000018,
                    "velocity": 0.33858267716535434,
                    "duration": 0.49063700000000665
                },
                {
                    "name": "D3",
                    "midi": 50,
                    "time": 92.23975600000018,
                    "velocity": 0.3543307086614173,
                    "duration": 0.49063700000000665
                },
                {
                    "name": "D4",
                    "midi": 62,
                    "time": 92.23975600000018,
                    "velocity": 0.4251968503937008,
                    "duration": 0.49063700000000665
                },
                {
                    "name": "F3",
                    "midi": 53,
                    "time": 92.23975600000018,
                    "velocity": 0.3543307086614173,
                    "duration": 0.49063700000000665
                },
                {
                    "name": "G3",
                    "midi": 55,
                    "time": 92.73039300000019,
                    "velocity": 0.48031496062992124,
                    "duration": 0.49063700000000665
                },
                {
                    "name": "A3",
                    "midi": 57,
                    "time": 93.2210300000002,
                    "velocity": 0.33070866141732286,
                    "duration": 0.49063700000000665
                },
                {
                    "name": "A2",
                    "midi": 45,
                    "time": 93.7116670000002,
                    "velocity": 0.2992125984251969,
                    "duration": 0.49063700000000665
                },
                {
                    "name": "D3",
                    "midi": 50,
                    "time": 94.20230400000021,
                    "velocity": 0.3700787401574803,
                    "duration": 0.49063700000000665
                },
                {
                    "name": "D2",
                    "midi": 38,
                    "time": 94.69294100000022,
                    "velocity": 0.2440944881889764,
                    "duration": 0.36797774999999433
                },
                {
                    "name": "D4",
                    "midi": 62,
                    "time": 95.67421500000022,
                    "velocity": 0.36220472440944884,
                    "duration": 0.061329624999999055
                },
                {
                    "name": "F#4",
                    "midi": 66,
                    "time": 96.16485200000021,
                    "velocity": 0.3228346456692913,
                    "duration": 0.12265924999999811
                },
                {
                    "name": "D4",
                    "midi": 62,
                    "time": 96.6554890000002,
                    "velocity": 0.3228346456692913,
                    "duration": 0.24531849999999622
                },
                {
                    "name": "A4",
                    "midi": 69,
                    "time": 97.1461260000002,
                    "velocity": 0.3700787401574803,
                    "duration": 0.24531849999999622
                },
                {
                    "name": "A3",
                    "midi": 57,
                    "time": 97.63676300000019,
                    "velocity": 0.2992125984251969,
                    "duration": 0.49063700000000665
                },
                {
                    "name": "C#4",
                    "midi": 61,
                    "time": 98.1274000000002,
                    "velocity": 0.2992125984251969,
                    "duration": 0.49063700000000665
                },
                {
                    "name": "D4",
                    "midi": 62,
                    "time": 98.6180370000002,
                    "velocity": 0.3543307086614173,
                    "duration": 0.49063700000000665
                },
                {
                    "name": "F#4",
                    "midi": 66,
                    "time": 99.1086740000002,
                    "velocity": 0.3700787401574803,
                    "duration": 0.49063700000000665
                },
                {
                    "name": "G4",
                    "midi": 67,
                    "time": 99.59931100000021,
                    "velocity": 0.4330708661417323,
                    "duration": 0.49063700000000665
                },
                {
                    "name": "A4",
                    "midi": 69,
                    "time": 100.08994800000022,
                    "velocity": 0.30708661417322836,
                    "duration": 0.49063700000000665
                },
                {
                    "name": "A3",
                    "midi": 57,
                    "time": 100.58058500000023,
                    "velocity": 0.23622047244094488,
                    "duration": 0.36797774999999433
                },
                {
                    "name": "D4",
                    "midi": 62,
                    "time": 101.56185900000023,
                    "velocity": 0.36220472440944884,
                    "duration": 0.061329624999999055
                },
                {
                    "name": "F#4",
                    "midi": 66,
                    "time": 102.05249600000022,
                    "velocity": 0.3228346456692913,
                    "duration": 0.12265924999999811
                },
                {
                    "name": "D4",
                    "midi": 62,
                    "time": 102.54313300000021,
                    "velocity": 0.3228346456692913,
                    "duration": 0.24531849999999622
                },
                {
                    "name": "A4",
                    "midi": 69,
                    "time": 103.0337700000002,
                    "velocity": 0.3700787401574803,
                    "duration": 0.24531849999999622
                },
                {
                    "name": "C#4",
                    "midi": 61,
                    "time": 103.5244070000002,
                    "velocity": 0.2992125984251969,
                    "duration": 0.49063700000000665
                },
                {
                    "name": "D4",
                    "midi": 62,
                    "time": 104.0150440000002,
                    "velocity": 0.2992125984251969,
                    "duration": 0.49063700000000665
                },
                {
                    "name": "G3",
                    "midi": 55,
                    "time": 104.50568100000021,
                    "velocity": 0.3543307086614173,
                    "duration": 0.49063700000000665
                },
                {
                    "name": "A3",
                    "midi": 57,
                    "time": 104.99631800000022,
                    "velocity": 0.3700787401574803,
                    "duration": 0.49063700000000665
                },
                {
                    "name": "A2",
                    "midi": 45,
                    "time": 105.48695500000022,
                    "velocity": 0.3779527559055118,
                    "duration": 0.49063700000000665
                },
                {
                    "name": "D3",
                    "midi": 50,
                    "time": 105.97759200000023,
                    "velocity": 0.36220472440944884,
                    "duration": 0.49063700000000665
                },
                {
                    "name": "D2",
                    "midi": 38,
                    "time": 106.46822900000024,
                    "velocity": 0.2204724409448819,
                    "duration": 0.49063700000000665
                },
                {
                    "name": "D4",
                    "midi": 62,
                    "time": 107.44950300000025,
                    "velocity": 0.36220472440944884,
                    "duration": 0.061329624999999055
                },
                {
                    "name": "F#4",
                    "midi": 66,
                    "time": 107.94014000000024,
                    "velocity": 0.3228346456692913,
                    "duration": 0.12265924999999811
                },
                {
                    "name": "D4",
                    "midi": 62,
                    "time": 108.43077700000023,
                    "velocity": 0.3228346456692913,
                    "duration": 0.24531849999999622
                },
                {
                    "name": "A4",
                    "midi": 69,
                    "time": 108.92141400000023,
                    "velocity": 0.3700787401574803,
                    "duration": 0.24531849999999622
                },
                {
                    "name": "A3",
                    "midi": 57,
                    "time": 109.41205100000022,
                    "velocity": 0.2992125984251969,
                    "duration": 0.49063700000000665
                },
                {
                    "name": "C#4",
                    "midi": 61,
                    "time": 109.90268800000023,
                    "velocity": 0.2992125984251969,
                    "duration": 0.49063700000000665
                },
                {
                    "name": "D4",
                    "midi": 62,
                    "time": 110.39332500000023,
                    "velocity": 0.3543307086614173,
                    "duration": 0.49063700000000665
                },
                {
                    "name": "F#4",
                    "midi": 66,
                    "time": 110.88396200000024,
                    "velocity": 0.3700787401574803,
                    "duration": 0.49063700000000665
                },
                {
                    "name": "G4",
                    "midi": 67,
                    "time": 111.37459900000025,
                    "velocity": 0.3779527559055118,
                    "duration": 0.49063700000000665
                },
                {
                    "name": "A4",
                    "midi": 69,
                    "time": 111.86523600000025,
                    "velocity": 0.30708661417322836,
                    "duration": 0.49063700000000665
                },
                {
                    "name": "A3",
                    "midi": 57,
                    "time": 112.35587300000026,
                    "velocity": 0.23622047244094488,
                    "duration": 0.36797774999999433
                },
                {
                    "name": "D4",
                    "midi": 62,
                    "time": 113.33714700000026,
                    "velocity": 0.36220472440944884,
                    "duration": 0.061329624999999055
                },
                {
                    "name": "F#4",
                    "midi": 66,
                    "time": 113.82778400000025,
                    "velocity": 0.3228346456692913,
                    "duration": 0.12265924999999811
                },
                {
                    "name": "D4",
                    "midi": 62,
                    "time": 114.31842100000024,
                    "velocity": 0.3228346456692913,
                    "duration": 0.24531849999999622
                },
                {
                    "name": "A4",
                    "midi": 69,
                    "time": 114.80905800000023,
                    "velocity": 0.3700787401574803,
                    "duration": 0.24531849999999622
                },
                {
                    "name": "C#4",
                    "midi": 61,
                    "time": 115.29969500000023,
                    "velocity": 0.33858267716535434,
                    "duration": 0.49063700000000665
                },
                {
                    "name": "D4",
                    "midi": 62,
                    "time": 115.79033200000023,
                    "velocity": 0.3779527559055118,
                    "duration": 0.49063700000000665
                },
                {
                    "name": "G3",
                    "midi": 55,
                    "time": 116.28096900000024,
                    "velocity": 0.3543307086614173,
                    "duration": 0.49063700000000665
                },
                {
                    "name": "A3",
                    "midi": 57,
                    "time": 116.77160600000025,
                    "velocity": 0.3700787401574803,
                    "duration": 0.49063700000000665
                },
                {
                    "name": "A2",
                    "midi": 45,
                    "time": 117.26224300000025,
                    "velocity": 0.3779527559055118,
                    "duration": 0.49063700000000665
                },
                {
                    "name": "D3",
                    "midi": 50,
                    "time": 117.75288000000026,
                    "velocity": 0.36220472440944884,
                    "duration": 0.49063700000000665
                },
                {
                    "name": "D2",
                    "midi": 38,
                    "time": 118.24351700000027,
                    "velocity": 0.2204724409448819,
                    "duration": 0.49063700000000665
                },
                {
                    "name": "D4",
                    "midi": 62,
                    "time": 119.71542800000027,
                    "velocity": 0.2992125984251969,
                    "duration": 0.49063700000000665
                },
                {
                    "name": "C#4",
                    "midi": 61,
                    "time": 120.20606500000028,
                    "velocity": 0.29133858267716534,
                    "duration": 0.49063700000000665
                },
                {
                    "name": "B3",
                    "midi": 59,
                    "time": 120.69670200000029,
                    "velocity": 0.2992125984251969,
                    "duration": 0.49063700000000665
                },
                {
                    "name": "A3",
                    "midi": 57,
                    "time": 121.18733900000029,
                    "velocity": 0.30708661417322836,
                    "duration": 0.49063700000000665
                },
                {
                    "name": "G3",
                    "midi": 55,
                    "time": 121.6779760000003,
                    "velocity": 0.31496062992125984,
                    "duration": 0.49063700000000665
                },
                {
                    "name": "F#3",
                    "midi": 54,
                    "time": 122.1686130000003,
                    "velocity": 0.3228346456692913,
                    "duration": 0.49063700000000665
                },
                {
                    "name": "E3",
                    "midi": 52,
                    "time": 122.65925000000031,
                    "velocity": 0.30708661417322836,
                    "duration": 0.49063700000000665
                },
                {
                    "name": "D3",
                    "midi": 50,
                    "time": 123.14988700000032,
                    "velocity": 0.30708661417322836,
                    "duration": 0.49063700000000665
                },
                {
                    "name": "A3",
                    "midi": 57,
                    "time": 123.64052400000033,
                    "velocity": 0.33858267716535434,
                    "duration": 0.49063700000000665
                },
                {
                    "name": "A2",
                    "midi": 45,
                    "time": 124.13116100000033,
                    "velocity": 0.28346456692913385,
                    "duration": 0.24531849999999622
                },
                {
                    "name": "D5",
                    "midi": 74,
                    "time": 125.60307200000032,
                    "velocity": 0.2992125984251969,
                    "duration": 0.49063700000000665
                },
                {
                    "name": "C#5",
                    "midi": 73,
                    "time": 126.09370900000033,
                    "velocity": 0.29133858267716534,
                    "duration": 0.49063700000000665
                },
                {
                    "name": "B4",
                    "midi": 71,
                    "time": 126.58434600000034,
                    "velocity": 0.2992125984251969,
                    "duration": 0.49063700000000665
                },
                {
                    "name": "A4",
                    "midi": 69,
                    "time": 127.07498300000034,
                    "velocity": 0.30708661417322836,
                    "duration": 0.49063700000000665
                },
                {
                    "name": "G4",
                    "midi": 67,
                    "time": 127.56562000000035,
                    "velocity": 0.31496062992125984,
                    "duration": 0.49063700000000665
                },
                {
                    "name": "F#4",
                    "midi": 66,
                    "time": 128.05625700000036,
                    "velocity": 0.3700787401574803,
                    "duration": 0.24531849999999622
                },
                {
                    "name": "G4",
                    "midi": 67,
                    "time": 128.42423475000035,
                    "velocity": 0.3464566929133858,
                    "duration": 0.12265924999999811
                },
                {
                    "name": "A4",
                    "midi": 69,
                    "time": 128.54689400000035,
                    "velocity": 0.33070866141732286,
                    "duration": 0.49063699999999244
                },
                {
                    "name": "A3",
                    "midi": 57,
                    "time": 129.03753100000034,
                    "velocity": 0.2992125984251969,
                    "duration": 0.49063699999999244
                },
                {
                    "name": "D4",
                    "midi": 62,
                    "time": 129.52816800000033,
                    "velocity": 0.3700787401574803,
                    "duration": 0.49063699999999244
                },
                {
                    "name": "D3",
                    "midi": 50,
                    "time": 130.01880500000033,
                    "velocity": 0.2440944881889764,
                    "duration": 0.36797774999999433
                },
                {
                    "name": "D4",
                    "midi": 62,
                    "time": 131.49071600000033,
                    "velocity": 0.2992125984251969,
                    "duration": 0.49063699999999244
                },
                {
                    "name": "C#4",
                    "midi": 61,
                    "time": 131.98135300000033,
                    "velocity": 0.29133858267716534,
                    "duration": 0.49063699999999244
                },
                {
                    "name": "B3",
                    "midi": 59,
                    "time": 132.47199000000032,
                    "velocity": 0.2992125984251969,
                    "duration": 0.49063699999999244
                },
                {
                    "name": "A3",
                    "midi": 57,
                    "time": 132.9626270000003,
                    "velocity": 0.30708661417322836,
                    "duration": 0.49063699999999244
                },
                {
                    "name": "G3",
                    "midi": 55,
                    "time": 133.4532640000003,
                    "velocity": 0.31496062992125984,
                    "duration": 0.49063699999999244
                },
                {
                    "name": "F#3",
                    "midi": 54,
                    "time": 133.9439010000003,
                    "velocity": 0.3228346456692913,
                    "duration": 0.49063699999999244
                },
                {
                    "name": "E3",
                    "midi": 52,
                    "time": 134.4345380000003,
                    "velocity": 0.30708661417322836,
                    "duration": 0.49063699999999244
                },
                {
                    "name": "D3",
                    "midi": 50,
                    "time": 134.92517500000028,
                    "velocity": 0.30708661417322836,
                    "duration": 0.49063699999999244
                },
                {
                    "name": "A3",
                    "midi": 57,
                    "time": 135.41581200000027,
                    "velocity": 0.33858267716535434,
                    "duration": 0.49063699999999244
                },
                {
                    "name": "A2",
                    "midi": 45,
                    "time": 135.90644900000026,
                    "velocity": 0.28346456692913385,
                    "duration": 0.24531849999999622
                },
                {
                    "name": "D5",
                    "midi": 74,
                    "time": 137.37836000000027,
                    "velocity": 0.2992125984251969,
                    "duration": 0.49063699999999244
                },
                {
                    "name": "C#5",
                    "midi": 73,
                    "time": 137.86899700000026,
                    "velocity": 0.29133858267716534,
                    "duration": 0.49063699999999244
                },
                {
                    "name": "B4",
                    "midi": 71,
                    "time": 138.35963400000026,
                    "velocity": 0.2992125984251969,
                    "duration": 0.49063699999999244
                },
                {
                    "name": "A4",
                    "midi": 69,
                    "time": 138.85027100000025,
                    "velocity": 0.30708661417322836,
                    "duration": 0.49063699999999244
                },
                {
                    "name": "G4",
                    "midi": 67,
                    "time": 139.34090800000024,
                    "velocity": 0.31496062992125984,
                    "duration": 0.49063699999999244
                },
                {
                    "name": "F#4",
                    "midi": 66,
                    "time": 139.83154500000023,
                    "velocity": 0.3700787401574803,
                    "duration": 0.24531849999999622
                },
                {
                    "name": "G4",
                    "midi": 67,
                    "time": 140.19952275000023,
                    "velocity": 0.3464566929133858,
                    "duration": 0.12265924999999811
                },
                {
                    "name": "A4",
                    "midi": 69,
                    "time": 140.32218200000023,
                    "velocity": 0.33070866141732286,
                    "duration": 0.49063699999999244
                },
                {
                    "name": "A3",
                    "midi": 57,
                    "time": 140.81281900000022,
                    "velocity": 0.2992125984251969,
                    "duration": 0.49063699999999244
                },
                {
                    "name": "D4",
                    "midi": 62,
                    "time": 141.3034560000002,
                    "velocity": 0.3700787401574803,
                    "duration": 0.49063699999999244
                },
                {
                    "name": "D3",
                    "midi": 50,
                    "time": 141.7940930000002,
                    "velocity": 0.2440944881889764,
                    "duration": 0.36797774999999433
                },
                {
                    "name": "F3",
                    "midi": 53,
                    "time": 143.2660040000002,
                    "velocity": 0.3700787401574803,
                    "duration": 0.49063699999999244
                },
                {
                    "name": "D3",
                    "midi": 50,
                    "time": 143.7566410000002,
                    "velocity": 0.31496062992125984,
                    "duration": 0.49063699999999244
                },
                {
                    "name": "E3",
                    "midi": 52,
                    "time": 144.2472780000002,
                    "velocity": 0.3779527559055118,
                    "duration": 0.49063699999999244
                },
                {
                    "name": "B2",
                    "midi": 47,
                    "time": 144.73791500000019,
                    "velocity": 0.31496062992125984,
                    "duration": 0.49063699999999244
                },
                {
                    "name": "C#3",
                    "midi": 49,
                    "time": 145.22855200000018,
                    "velocity": 0.31496062992125984,
                    "duration": 0.49063699999999244
                },
                {
                    "name": "D3",
                    "midi": 50,
                    "time": 145.71918900000017,
                    "velocity": 0.36220472440944884,
                    "duration": 0.49063699999999244
                },
                {
                    "name": "F2",
                    "midi": 41,
                    "time": 146.20982600000016,
                    "velocity": 0.3779527559055118,
                    "duration": 0.49063699999999244
                },
                {
                    "name": "G2",
                    "midi": 43,
                    "time": 146.70046300000016,
                    "velocity": 0.3228346456692913,
                    "duration": 0.49063699999999244
                },
                {
                    "name": "A2",
                    "midi": 45,
                    "time": 147.19110000000015,
                    "velocity": 0.33858267716535434,
                    "duration": 0.49063699999999244
                },
                {
                    "name": "A1",
                    "midi": 33,
                    "time": 147.68173700000014,
                    "velocity": 0.28346456692913385,
                    "duration": 0.24531849999999622
                },
                {
                    "name": "F3",
                    "midi": 53,
                    "time": 148.66301100000013,
                    "velocity": 0.30708661417322836,
                    "duration": 0.9812740000000133
                },
                {
                    "name": "A3",
                    "midi": 57,
                    "time": 148.66301100000013,
                    "velocity": 0.30708661417322836,
                    "duration": 0.9812740000000133
                },
                {
                    "name": "C4",
                    "midi": 60,
                    "time": 148.66301100000013,
                    "velocity": 0.3700787401574803,
                    "duration": 0.9812740000000133
                },
                {
                    "name": "D#4",
                    "midi": 63,
                    "time": 149.64428500000014,
                    "velocity": 0.2677165354330709,
                    "duration": 0.49063699999999244
                },
                {
                    "name": "F4",
                    "midi": 65,
                    "time": 149.64428500000014,
                    "velocity": 0.31496062992125984,
                    "duration": 0.49063699999999244
                },
                {
                    "name": "F4",
                    "midi": 65,
                    "time": 150.13492200000013,
                    "velocity": 0.41732283464566927,
                    "duration": 0.9812739999999849
                },
                {
                    "name": "D4",
                    "midi": 62,
                    "time": 150.13492200000013,
                    "velocity": 0.3543307086614173,
                    "duration": 0.49063699999999244
                },
                {
                    "name": "A#3",
                    "midi": 58,
                    "time": 150.62555900000012,
                    "velocity": 0.3700787401574803,
                    "duration": 0.49063699999999244
                },
                {
                    "name": "G3",
                    "midi": 55,
                    "time": 151.11619600000012,
                    "velocity": 0.3858267716535433,
                    "duration": 0.49063699999999244
                },
                {
                    "name": "A#3",
                    "midi": 58,
                    "time": 151.11619600000012,
                    "velocity": 0.4566929133858268,
                    "duration": 0.49063699999999244
                },
                {
                    "name": "C4",
                    "midi": 60,
                    "time": 151.6068330000001,
                    "velocity": 0.5354330708661418,
                    "duration": 0.49063699999999244
                },
                {
                    "name": "A3",
                    "midi": 57,
                    "time": 151.6068330000001,
                    "velocity": 0.44881889763779526,
                    "duration": 0.49063699999999244
                },
                {
                    "name": "C4",
                    "midi": 60,
                    "time": 152.0974700000001,
                    "velocity": 0.33070866141732286,
                    "duration": 0.49063699999999244
                },
                {
                    "name": "C3",
                    "midi": 48,
                    "time": 152.5881070000001,
                    "velocity": 0.2992125984251969,
                    "duration": 0.49063699999999244
                },
                {
                    "name": "F3",
                    "midi": 53,
                    "time": 153.07874400000009,
                    "velocity": 0.3700787401574803,
                    "duration": 0.49063699999999244
                },
                {
                    "name": "F2",
                    "midi": 41,
                    "time": 153.56938100000008,
                    "velocity": 0.2440944881889764,
                    "duration": 0.36797774999999433
                },
                {
                    "name": "F3",
                    "midi": 53,
                    "time": 155.04129200000008,
                    "velocity": 0.3700787401574803,
                    "duration": 0.49063699999999244
                },
                {
                    "name": "D3",
                    "midi": 50,
                    "time": 155.53192900000008,
                    "velocity": 0.31496062992125984,
                    "duration": 0.49063699999999244
                },
                {
                    "name": "E3",
                    "midi": 52,
                    "time": 156.02256600000007,
                    "velocity": 0.3779527559055118,
                    "duration": 0.49063699999999244
                },
                {
                    "name": "B2",
                    "midi": 47,
                    "time": 156.51320300000006,
                    "velocity": 0.31496062992125984,
                    "duration": 0.49063699999999244
                },
                {
                    "name": "C#3",
                    "midi": 49,
                    "time": 157.00384000000005,
                    "velocity": 0.31496062992125984,
                    "duration": 0.49063699999999244
                },
                {
                    "name": "D3",
                    "midi": 50,
                    "time": 157.49447700000005,
                    "velocity": 0.36220472440944884,
                    "duration": 0.49063699999999244
                },
                {
                    "name": "F2",
                    "midi": 41,
                    "time": 157.98511400000004,
                    "velocity": 0.3779527559055118,
                    "duration": 0.49063699999999244
                },
                {
                    "name": "G2",
                    "midi": 43,
                    "time": 158.47575100000003,
                    "velocity": 0.3228346456692913,
                    "duration": 0.49063699999999244
                },
                {
                    "name": "A2",
                    "midi": 45,
                    "time": 158.96638800000002,
                    "velocity": 0.33858267716535434,
                    "duration": 0.49063699999999244
                },
                {
                    "name": "A1",
                    "midi": 33,
                    "time": 159.45702500000002,
                    "velocity": 0.28346456692913385,
                    "duration": 0.24531849999999622
                },
                {
                    "name": "F3",
                    "midi": 53,
                    "time": 160.438299,
                    "velocity": 0.30708661417322836,
                    "duration": 0.9812740000000133
                },
                {
                    "name": "A3",
                    "midi": 57,
                    "time": 160.438299,
                    "velocity": 0.30708661417322836,
                    "duration": 0.9812740000000133
                },
                {
                    "name": "C4",
                    "midi": 60,
                    "time": 160.438299,
                    "velocity": 0.3700787401574803,
                    "duration": 0.9812740000000133
                },
                {
                    "name": "D#4",
                    "midi": 63,
                    "time": 161.419573,
                    "velocity": 0.2677165354330709,
                    "duration": 0.49063699999999244
                },
                {
                    "name": "F4",
                    "midi": 65,
                    "time": 161.419573,
                    "velocity": 0.31496062992125984,
                    "duration": 0.49063699999999244
                },
                {
                    "name": "F4",
                    "midi": 65,
                    "time": 161.91021,
                    "velocity": 0.41732283464566927,
                    "duration": 0.9812739999999849
                },
                {
                    "name": "D4",
                    "midi": 62,
                    "time": 161.91021,
                    "velocity": 0.3543307086614173,
                    "duration": 0.49063699999999244
                },
                {
                    "name": "A#3",
                    "midi": 58,
                    "time": 162.400847,
                    "velocity": 0.3700787401574803,
                    "duration": 0.49063699999999244
                },
                {
                    "name": "G3",
                    "midi": 55,
                    "time": 162.891484,
                    "velocity": 0.3858267716535433,
                    "duration": 0.49063699999999244
                },
                {
                    "name": "A#3",
                    "midi": 58,
                    "time": 162.891484,
                    "velocity": 0.4566929133858268,
                    "duration": 0.49063699999999244
                },
                {
                    "name": "C4",
                    "midi": 60,
                    "time": 163.38212099999998,
                    "velocity": 0.5354330708661418,
                    "duration": 0.49063699999999244
                },
                {
                    "name": "A3",
                    "midi": 57,
                    "time": 163.38212099999998,
                    "velocity": 0.44881889763779526,
                    "duration": 0.49063699999999244
                },
                {
                    "name": "C4",
                    "midi": 60,
                    "time": 163.87275799999998,
                    "velocity": 0.33070866141732286,
                    "duration": 0.49063699999999244
                },
                {
                    "name": "C3",
                    "midi": 48,
                    "time": 164.36339499999997,
                    "velocity": 0.2992125984251969,
                    "duration": 0.49063699999999244
                },
                {
                    "name": "F3",
                    "midi": 53,
                    "time": 164.85403199999996,
                    "velocity": 0.3700787401574803,
                    "duration": 0.49063699999999244
                },
                {
                    "name": "F2",
                    "midi": 41,
                    "time": 165.34466899999995,
                    "velocity": 0.2440944881889764,
                    "duration": 0.36797774999999433
                },
                {
                    "name": "A4",
                    "midi": 69,
                    "time": 166.81657999999996,
                    "velocity": 0.2283464566929134,
                    "duration": 0.49063699999999244
                },
                {
                    "name": "C5",
                    "midi": 72,
                    "time": 166.81657999999996,
                    "velocity": 0.2755905511811024,
                    "duration": 0.49063699999999244
                },
                {
                    "name": "G4",
                    "midi": 67,
                    "time": 167.30721699999995,
                    "velocity": 0.1968503937007874,
                    "duration": 0.49063699999999244
                },
                {
                    "name": "A#4",
                    "midi": 70,
                    "time": 167.30721699999995,
                    "velocity": 0.23622047244094488,
                    "duration": 0.49063699999999244
                },
                {
                    "name": "A4",
                    "midi": 69,
                    "time": 167.79785399999994,
                    "velocity": 0.28346456692913385,
                    "duration": 0.9812740000000133
                },
                {
                    "name": "F#4",
                    "midi": 66,
                    "time": 167.79785399999994,
                    "velocity": 0.23622047244094488,
                    "duration": 0.9812740000000133
                },
                {
                    "name": "G4",
                    "midi": 67,
                    "time": 168.77912799999996,
                    "velocity": 0.2204724409448819,
                    "duration": 0.49063699999999244
                },
                {
                    "name": "D5",
                    "midi": 74,
                    "time": 168.77912799999996,
                    "velocity": 0.2677165354330709,
                    "duration": 0.49063699999999244
                },
                {
                    "name": "E4",
                    "midi": 64,
                    "time": 169.26976499999995,
                    "velocity": 0.25984251968503935,
                    "duration": 0.49063699999999244
                },
                {
                    "name": "C5",
                    "midi": 72,
                    "time": 169.26976499999995,
                    "velocity": 0.30708661417322836,
                    "duration": 0.9812739999999849
                },
                {
                    "name": "F4",
                    "midi": 65,
                    "time": 169.76040199999994,
                    "velocity": 0.31496062992125984,
                    "duration": 0.49063699999999244
                },
                {
                    "name": "G4",
                    "midi": 67,
                    "time": 170.25103899999993,
                    "velocity": 0.2677165354330709,
                    "duration": 0.49063699999999244
                },
                {
                    "name": "G3",
                    "midi": 55,
                    "time": 170.25103899999993,
                    "velocity": 0.2204724409448819,
                    "duration": 0.49063699999999244
                },
                {
                    "name": "A3",
                    "midi": 57,
                    "time": 170.74167599999993,
                    "velocity": 0.1968503937007874,
                    "duration": 0.7359554999999887
                },
                {
                    "name": "E4",
                    "midi": 64,
                    "time": 170.74167599999993,
                    "velocity": 0.28346456692913385,
                    "duration": 0.7359554999999887
                },
                {
                    "name": "A#3",
                    "midi": 58,
                    "time": 172.70422399999993,
                    "velocity": 0.2755905511811024,
                    "duration": 0.49063699999999244
                },
                {
                    "name": "C#4",
                    "midi": 61,
                    "time": 172.70422399999993,
                    "velocity": 0.33070866141732286,
                    "duration": 0.49063699999999244
                },
                {
                    "name": "G3",
                    "midi": 55,
                    "time": 173.19486099999992,
                    "velocity": 0.23622047244094488,
                    "duration": 0.49063699999999244
                },
                {
                    "name": "A#3",
                    "midi": 58,
                    "time": 173.19486099999992,
                    "velocity": 0.28346456692913385,
                    "duration": 0.49063699999999244
                },
                {
                    "name": "F3",
                    "midi": 53,
                    "time": 173.6854979999999,
                    "velocity": 0.3543307086614173,
                    "duration": 0.49063699999999244
                },
                {
                    "name": "D4",
                    "midi": 62,
                    "time": 173.6854979999999,
                    "velocity": 0.41732283464566927,
                    "duration": 0.49063699999999244
                },
                {
                    "name": "A3",
                    "midi": 57,
                    "time": 173.6854979999999,
                    "velocity": 0.3543307086614173,
                    "duration": 0.49063699999999244
                },
                {
                    "name": "E3",
                    "midi": 52,
                    "time": 174.1761349999999,
                    "velocity": 0.33858267716535434,
                    "duration": 0.49063699999999244
                },
                {
                    "name": "G3",
                    "midi": 55,
                    "time": 174.1761349999999,
                    "velocity": 0.33858267716535434,
                    "duration": 0.49063699999999244
                },
                {
                    "name": "C#4",
                    "midi": 61,
                    "time": 174.1761349999999,
                    "velocity": 0.33858267716535434,
                    "duration": 0.49063699999999244
                },
                {
                    "name": "D3",
                    "midi": 50,
                    "time": 174.6667719999999,
                    "velocity": 0.3543307086614173,
                    "duration": 0.49063699999999244
                },
                {
                    "name": "D4",
                    "midi": 62,
                    "time": 174.6667719999999,
                    "velocity": 0.4251968503937008,
                    "duration": 0.49063699999999244
                },
                {
                    "name": "F3",
                    "midi": 53,
                    "time": 174.6667719999999,
                    "velocity": 0.3543307086614173,
                    "duration": 0.49063699999999244
                },
                {
                    "name": "G3",
                    "midi": 55,
                    "time": 175.1574089999999,
                    "velocity": 0.48031496062992124,
                    "duration": 0.49063699999999244
                },
                {
                    "name": "A3",
                    "midi": 57,
                    "time": 175.64804599999988,
                    "velocity": 0.33070866141732286,
                    "duration": 0.49063699999999244
                },
                {
                    "name": "A2",
                    "midi": 45,
                    "time": 176.13868299999987,
                    "velocity": 0.2992125984251969,
                    "duration": 0.49063699999999244
                },
                {
                    "name": "D3",
                    "midi": 50,
                    "time": 176.62931999999986,
                    "velocity": 0.3700787401574803,
                    "duration": 0.49063699999999244
                },
                {
                    "name": "D2",
                    "midi": 38,
                    "time": 177.11995699999986,
                    "velocity": 0.2440944881889764,
                    "duration": 0.36797774999999433
                },
                {
                    "name": "A4",
                    "midi": 69,
                    "time": 178.59186799999986,
                    "velocity": 0.2283464566929134,
                    "duration": 0.49063699999999244
                },
                {
                    "name": "C5",
                    "midi": 72,
                    "time": 178.59186799999986,
                    "velocity": 0.2755905511811024,
                    "duration": 0.49063699999999244
                },
                {
                    "name": "G4",
                    "midi": 67,
                    "time": 179.08250499999986,
                    "velocity": 0.1968503937007874,
                    "duration": 0.49063699999999244
                },
                {
                    "name": "A#4",
                    "midi": 70,
                    "time": 179.08250499999986,
                    "velocity": 0.23622047244094488,
                    "duration": 0.49063699999999244
                },
                {
                    "name": "A4",
                    "midi": 69,
                    "time": 179.57314199999985,
                    "velocity": 0.28346456692913385,
                    "duration": 0.9812740000000133
                },
                {
                    "name": "F#4",
                    "midi": 66,
                    "time": 179.57314199999985,
                    "velocity": 0.23622047244094488,
                    "duration": 0.9812740000000133
                },
                {
                    "name": "G4",
                    "midi": 67,
                    "time": 180.55441599999986,
                    "velocity": 0.2204724409448819,
                    "duration": 0.49063699999999244
                },
                {
                    "name": "D5",
                    "midi": 74,
                    "time": 180.55441599999986,
                    "velocity": 0.2677165354330709,
                    "duration": 0.49063699999999244
                },
                {
                    "name": "E4",
                    "midi": 64,
                    "time": 181.04505299999985,
                    "velocity": 0.25984251968503935,
                    "duration": 0.49063699999999244
                },
                {
                    "name": "C5",
                    "midi": 72,
                    "time": 181.04505299999985,
                    "velocity": 0.30708661417322836,
                    "duration": 0.9812739999999849
                },
                {
                    "name": "F4",
                    "midi": 65,
                    "time": 181.53568999999985,
                    "velocity": 0.31496062992125984,
                    "duration": 0.49063699999999244
                },
                {
                    "name": "G4",
                    "midi": 67,
                    "time": 182.02632699999984,
                    "velocity": 0.2677165354330709,
                    "duration": 0.49063699999999244
                },
                {
                    "name": "G3",
                    "midi": 55,
                    "time": 182.02632699999984,
                    "velocity": 0.2204724409448819,
                    "duration": 0.49063699999999244
                },
                {
                    "name": "A3",
                    "midi": 57,
                    "time": 182.51696399999983,
                    "velocity": 0.1968503937007874,
                    "duration": 0.7359554999999887
                },
                {
                    "name": "E4",
                    "midi": 64,
                    "time": 182.51696399999983,
                    "velocity": 0.28346456692913385,
                    "duration": 0.7359554999999887
                },
                {
                    "name": "A#3",
                    "midi": 58,
                    "time": 184.47951199999983,
                    "velocity": 0.2755905511811024,
                    "duration": 0.49063699999999244
                },
                {
                    "name": "C#4",
                    "midi": 61,
                    "time": 184.47951199999983,
                    "velocity": 0.33070866141732286,
                    "duration": 0.49063699999999244
                },
                {
                    "name": "G3",
                    "midi": 55,
                    "time": 184.97014899999982,
                    "velocity": 0.23622047244094488,
                    "duration": 0.49063699999999244
                },
                {
                    "name": "A#3",
                    "midi": 58,
                    "time": 184.97014899999982,
                    "velocity": 0.28346456692913385,
                    "duration": 0.49063699999999244
                },
                {
                    "name": "F3",
                    "midi": 53,
                    "time": 185.4607859999998,
                    "velocity": 0.3543307086614173,
                    "duration": 0.49063699999999244
                },
                {
                    "name": "D4",
                    "midi": 62,
                    "time": 185.4607859999998,
                    "velocity": 0.41732283464566927,
                    "duration": 0.49063699999999244
                },
                {
                    "name": "A3",
                    "midi": 57,
                    "time": 185.4607859999998,
                    "velocity": 0.3543307086614173,
                    "duration": 0.49063699999999244
                },
                {
                    "name": "E3",
                    "midi": 52,
                    "time": 185.9514229999998,
                    "velocity": 0.33858267716535434,
                    "duration": 0.49063699999999244
                },
                {
                    "name": "G3",
                    "midi": 55,
                    "time": 185.9514229999998,
                    "velocity": 0.33858267716535434,
                    "duration": 0.49063699999999244
                },
                {
                    "name": "C#4",
                    "midi": 61,
                    "time": 185.9514229999998,
                    "velocity": 0.33858267716535434,
                    "duration": 0.49063699999999244
                },
                {
                    "name": "D3",
                    "midi": 50,
                    "time": 186.4420599999998,
                    "velocity": 0.3543307086614173,
                    "duration": 0.49063699999999244
                },
                {
                    "name": "D4",
                    "midi": 62,
                    "time": 186.4420599999998,
                    "velocity": 0.4251968503937008,
                    "duration": 0.49063699999999244
                },
                {
                    "name": "F3",
                    "midi": 53,
                    "time": 186.4420599999998,
                    "velocity": 0.3543307086614173,
                    "duration": 0.49063699999999244
                },
                {
                    "name": "G3",
                    "midi": 55,
                    "time": 186.9326969999998,
                    "velocity": 0.48031496062992124,
                    "duration": 0.49063699999999244
                },
                {
                    "name": "A3",
                    "midi": 57,
                    "time": 187.42333399999978,
                    "velocity": 0.33070866141732286,
                    "duration": 0.49063699999999244
                },
                {
                    "name": "A2",
                    "midi": 45,
                    "time": 187.91397099999978,
                    "velocity": 0.2992125984251969,
                    "duration": 0.49063699999999244
                },
                {
                    "name": "D3",
                    "midi": 50,
                    "time": 188.40460799999977,
                    "velocity": 0.3700787401574803,
                    "duration": 0.49063699999999244
                },
                {
                    "name": "D2",
                    "midi": 38,
                    "time": 188.89524499999976,
                    "velocity": 0.2440944881889764,
                    "duration": 0.36797774999999433
                },
                {
                    "name": "D4",
                    "midi": 62,
                    "time": 189.87651899999975,
                    "velocity": 0.36220472440944884,
                    "duration": 0.09199443750000569
                },
                {
                    "name": "F#4",
                    "midi": 66,
                    "time": 190.36715599999974,
                    "velocity": 0.3228346456692913,
                    "duration": 0.09199443750000569
                },
                {
                    "name": "D4",
                    "midi": 62,
                    "time": 190.85779299999973,
                    "velocity": 0.3228346456692913,
                    "duration": 0.24531849999999622
                },
                {
                    "name": "A4",
                    "midi": 69,
                    "time": 191.34842999999972,
                    "velocity": 0.3700787401574803,
                    "duration": 0.49063699999999244
                },
                {
                    "name": "A3",
                    "midi": 57,
                    "time": 191.83906699999972,
                    "velocity": 0.2992125984251969,
                    "duration": 0.49063699999999244
                },
                {
                    "name": "C#4",
                    "midi": 61,
                    "time": 192.3297039999997,
                    "velocity": 0.2992125984251969,
                    "duration": 0.49063699999999244
                },
                {
                    "name": "D4",
                    "midi": 62,
                    "time": 192.8203409999997,
                    "velocity": 0.3543307086614173,
                    "duration": 0.49063699999999244
                },
                {
                    "name": "F#4",
                    "midi": 66,
                    "time": 193.3109779999997,
                    "velocity": 0.3700787401574803,
                    "duration": 0.49063699999999244
                },
                {
                    "name": "G4",
                    "midi": 67,
                    "time": 193.80161499999969,
                    "velocity": 0.3779527559055118,
                    "duration": 0.49063699999999244
                },
                {
                    "name": "A4",
                    "midi": 69,
                    "time": 194.29225199999968,
                    "velocity": 0.30708661417322836,
                    "duration": 0.49063699999999244
                },
                {
                    "name": "A3",
                    "midi": 57,
                    "time": 194.78288899999967,
                    "velocity": 0.23622047244094488,
                    "duration": 0.36797774999999433
                },
                {
                    "name": "D4",
                    "midi": 62,
                    "time": 195.76416299999966,
                    "velocity": 0.36220472440944884,
                    "duration": 0.09199443750000569
                },
                {
                    "name": "F#4",
                    "midi": 66,
                    "time": 196.25479999999965,
                    "velocity": 0.3228346456692913,
                    "duration": 0.09199443750000569
                },
                {
                    "name": "D4",
                    "midi": 62,
                    "time": 196.74543699999964,
                    "velocity": 0.3228346456692913,
                    "duration": 0.24531849999999622
                },
                {
                    "name": "A4",
                    "midi": 69,
                    "time": 197.23607399999963,
                    "velocity": 0.3700787401574803,
                    "duration": 0.49063699999999244
                },
                {
                    "name": "C#4",
                    "midi": 61,
                    "time": 197.72671099999963,
                    "velocity": 0.2992125984251969,
                    "duration": 0.49063699999999244
                },
                {
                    "name": "D4",
                    "midi": 62,
                    "time": 198.21734799999962,
                    "velocity": 0.30708661417322836,
                    "duration": 0.49063699999999244
                },
                {
                    "name": "G3",
                    "midi": 55,
                    "time": 198.7079849999996,
                    "velocity": 0.30708661417322836,
                    "duration": 0.9812740000000133
                },
                {
                    "name": "G4",
                    "midi": 67,
                    "time": 198.7079849999996,
                    "velocity": 0.3700787401574803,
                    "duration": 0.9812740000000133
                },
                {
                    "name": "E4",
                    "midi": 64,
                    "time": 199.68925899999962,
                    "velocity": 0.31496062992125984,
                    "duration": 0.49063699999999244
                },
                {
                    "name": "A3",
                    "midi": 57,
                    "time": 199.68925899999962,
                    "velocity": 0.2677165354330709,
                    "duration": 0.49063699999999244
                },
                {
                    "name": "D4",
                    "midi": 62,
                    "time": 200.17989599999962,
                    "velocity": 0.36220472440944884,
                    "duration": 0.49063699999999244
                },
                {
                    "name": "D3",
                    "midi": 50,
                    "time": 200.6705329999996,
                    "velocity": 0.2204724409448819,
                    "duration": 0.49063699999999244
                },
                {
                    "name": "F#4",
                    "midi": 66,
                    "time": 202.1424439999996,
                    "velocity": 0.3228346456692913,
                    "duration": 0.49063699999999244
                },
                {
                    "name": "D4",
                    "midi": 62,
                    "time": 202.6330809999996,
                    "velocity": 0.29133858267716534,
                    "duration": 0.49063699999999244
                },
                {
                    "name": "E4",
                    "midi": 64,
                    "time": 203.1237179999996,
                    "velocity": 0.3779527559055118,
                    "duration": 0.49063699999999244
                },
                {
                    "name": "C#4",
                    "midi": 61,
                    "time": 203.6143549999996,
                    "velocity": 0.3228346456692913,
                    "duration": 0.49063699999999244
                },
                {
                    "name": "A3",
                    "midi": 57,
                    "time": 204.10499199999958,
                    "velocity": 0.36220472440944884,
                    "duration": 0.49063699999999244
                },
                {
                    "name": "D4",
                    "midi": 62,
                    "time": 204.59562899999958,
                    "velocity": 0.3543307086614173,
                    "duration": 0.49063699999999244
                },
                {
                    "name": "B3",
                    "midi": 59,
                    "time": 205.08626599999957,
                    "velocity": 0.4094488188976378,
                    "duration": 0.49063699999999244
                },
                {
                    "name": "G3",
                    "midi": 55,
                    "time": 205.57690299999956,
                    "velocity": 0.3700787401574803,
                    "duration": 0.49063699999999244
                },
                {
                    "name": "A3",
                    "midi": 57,
                    "time": 206.06753999999955,
                    "velocity": 0.33858267716535434,
                    "duration": 0.49063699999999244
                },
                {
                    "name": "A2",
                    "midi": 45,
                    "time": 206.55817699999955,
                    "velocity": 0.28346456692913385,
                    "duration": 0.24531849999999622
                },
                {
                    "name": "F#4",
                    "midi": 66,
                    "time": 208.03008799999955,
                    "velocity": 0.3228346456692913,
                    "duration": 0.49063699999999244
                },
                {
                    "name": "D4",
                    "midi": 62,
                    "time": 208.52072499999954,
                    "velocity": 0.3228346456692913,
                    "duration": 0.49063699999999244
                },
                {
                    "name": "E4",
                    "midi": 64,
                    "time": 209.01136199999954,
                    "velocity": 0.41732283464566927,
                    "duration": 0.49063699999999244
                },
                {
                    "name": "A3",
                    "midi": 57,
                    "time": 209.50199899999953,
                    "velocity": 0.3228346456692913,
                    "duration": 0.49063699999999244
                },
                {
                    "name": "C#4",
                    "midi": 61,
                    "time": 209.99263599999952,
                    "velocity": 0.29133858267716534,
                    "duration": 0.49063699999999244
                },
                {
                    "name": "D4",
                    "midi": 62,
                    "time": 210.4832729999995,
                    "velocity": 0.3543307086614173,
                    "duration": 0.49063699999999244
                },
                {
                    "name": "G3",
                    "midi": 55,
                    "time": 210.9739099999995,
                    "velocity": 0.30708661417322836,
                    "duration": 0.49063699999999244
                },
                {
                    "name": "A3",
                    "midi": 57,
                    "time": 211.4645469999995,
                    "velocity": 0.30708661417322836,
                    "duration": 0.49063699999999244
                },
                {
                    "name": "A2",
                    "midi": 45,
                    "time": 211.4645469999995,
                    "velocity": 0.30708661417322836,
                    "duration": 0.49063699999999244
                },
                {
                    "name": "D3",
                    "midi": 50,
                    "time": 211.9551839999995,
                    "velocity": 0.33858267716535434,
                    "duration": 0.49063699999999244
                },
                {
                    "name": "D2",
                    "midi": 38,
                    "time": 212.44582099999948,
                    "velocity": 0.28346456692913385,
                    "duration": 0.24531849999999622
                },
                {
                    "name": "A3",
                    "midi": 57,
                    "time": 217.84282799999949,
                    "velocity": 0.33858267716535434,
                    "duration": 0.49063699999999244
                },
                {
                    "name": "A2",
                    "midi": 45,
                    "time": 218.33346499999948,
                    "velocity": 0.28346456692913385,
                    "duration": 0.24531849999999622
                },
                {
                    "name": "D4",
                    "midi": 62,
                    "time": 223.73047199999948,
                    "velocity": 0.30708661417322836,
                    "duration": 0.49063699999999244
                },
                {
                    "name": "D3",
                    "midi": 50,
                    "time": 224.22110899999947,
                    "velocity": 0.25984251968503935,
                    "duration": 0.24531849999999622
                },
                {
                    "name": "A3",
                    "midi": 57,
                    "time": 229.61811599999947,
                    "velocity": 0.25196850393700787,
                    "duration": 0.49063699999999244
                },
                {
                    "name": "A2",
                    "midi": 45,
                    "time": 230.10875299999947,
                    "velocity": 0.2125984251968504,
                    "duration": 0.24531849999999622
                },
                {
                    "name": "D4",
                    "midi": 62,
                    "time": 235.50575999999947,
                    "velocity": 0.2283464566929134,
                    "duration": 0.49063699999999244
                },
                {
                    "name": "D3",
                    "midi": 50,
                    "time": 235.99639699999946,
                    "velocity": 0.1889763779527559,
                    "duration": 0.24531849999999622
                }
            ],
            "controlChanges": {},
            "id": 2,
            "name": "Piano left",
            "instrumentNumber": 0,
            "instrument": "acoustic grand piano",
            "instrumentFamily": "piano",
            "channelNumber": 0,
            "isPercussion": false
        },
        {
            "startTime": 0,
            "duration": 0,
            "length": 0,
            "notes": [],
            "controlChanges": {
                "64": [
                    {
                        "number": 64,
                        "time": 34.90984471041667,
                        "value": 1
                    },
                    {
                        "number": 64,
                        "time": 35.333019122916674,
                        "value": 0
                    },
                    {
                        "number": 64,
                        "time": 46.685132710416674,
                        "value": 1
                    },
                    {
                        "number": 64,
                        "time": 47.10830712291668,
                        "value": 0
                    },
                    {
                        "number": 64,
                        "time": 54.547590635416675,
                        "value": 1
                    },
                    {
                        "number": 64,
                        "time": 55.932618000000005,
                        "value": 0
                    },
                    {
                        "number": 64,
                        "time": 56.03381188125,
                        "value": 1
                    },
                    {
                        "number": 64,
                        "time": 56.92820224583333,
                        "value": 0
                    },
                    {
                        "number": 64,
                        "time": 57.01508588125,
                        "value": 1
                    },
                    {
                        "number": 64,
                        "time": 57.404529000000004,
                        "value": 0
                    },
                    {
                        "number": 64,
                        "time": 57.51798880625,
                        "value": 1
                    },
                    {
                        "number": 64,
                        "time": 57.92276433125,
                        "value": 0
                    },
                    {
                        "number": 64,
                        "time": 58.46042071041667,
                        "value": 1
                    },
                    {
                        "number": 64,
                        "time": 58.883595122916674,
                        "value": 0
                    },
                    {
                        "number": 64,
                        "time": 66.32287863541667,
                        "value": 1
                    },
                    {
                        "number": 64,
                        "time": 67.70790600000001,
                        "value": 0
                    },
                    {
                        "number": 64,
                        "time": 67.80909988125,
                        "value": 1
                    },
                    {
                        "number": 64,
                        "time": 68.70349024583334,
                        "value": 0
                    },
                    {
                        "number": 64,
                        "time": 68.79037388125,
                        "value": 1
                    },
                    {
                        "number": 64,
                        "time": 69.179817,
                        "value": 0
                    },
                    {
                        "number": 64,
                        "time": 69.29327680625,
                        "value": 1
                    },
                    {
                        "number": 64,
                        "time": 69.69805233125001,
                        "value": 0
                    },
                    {
                        "number": 64,
                        "time": 70.23570871041667,
                        "value": 1
                    },
                    {
                        "number": 64,
                        "time": 70.65888312291668,
                        "value": 0
                    },
                    {
                        "number": 64,
                        "time": 78.15540761875,
                        "value": 1
                    },
                    {
                        "number": 64,
                        "time": 79.483194,
                        "value": 0
                    },
                    {
                        "number": 64,
                        "time": 79.58438788125,
                        "value": 1
                    },
                    {
                        "number": 64,
                        "time": 79.98507476458333,
                        "value": 0
                    },
                    {
                        "number": 64,
                        "time": 80.06786975833333,
                        "value": 1
                    },
                    {
                        "number": 64,
                        "time": 80.47877824583333,
                        "value": 0
                    },
                    {
                        "number": 64,
                        "time": 80.56566188125,
                        "value": 1
                    },
                    {
                        "number": 64,
                        "time": 80.95510499999999,
                        "value": 0
                    },
                    {
                        "number": 64,
                        "time": 81.06856480625,
                        "value": 1
                    },
                    {
                        "number": 64,
                        "time": 81.47334033125,
                        "value": 0
                    },
                    {
                        "number": 64,
                        "time": 82.01099671041666,
                        "value": 1
                    },
                    {
                        "number": 64,
                        "time": 82.43417112291667,
                        "value": 0
                    },
                    {
                        "number": 64,
                        "time": 89.93069561875,
                        "value": 1
                    },
                    {
                        "number": 64,
                        "time": 91.25848199999999,
                        "value": 0
                    },
                    {
                        "number": 64,
                        "time": 91.35967588124998,
                        "value": 1
                    },
                    {
                        "number": 64,
                        "time": 91.76036276458332,
                        "value": 0
                    },
                    {
                        "number": 64,
                        "time": 91.84315775833332,
                        "value": 1
                    },
                    {
                        "number": 64,
                        "time": 92.25406624583331,
                        "value": 0
                    },
                    {
                        "number": 64,
                        "time": 92.34094988124998,
                        "value": 1
                    },
                    {
                        "number": 64,
                        "time": 92.73039299999998,
                        "value": 0
                    },
                    {
                        "number": 64,
                        "time": 92.84385280624998,
                        "value": 1
                    },
                    {
                        "number": 64,
                        "time": 93.24862833124999,
                        "value": 0
                    },
                    {
                        "number": 64,
                        "time": 93.78628471041665,
                        "value": 1
                    },
                    {
                        "number": 64,
                        "time": 94.20945912291666,
                        "value": 0
                    },
                    {
                        "number": 64,
                        "time": 129.11214871041665,
                        "value": 1
                    },
                    {
                        "number": 64,
                        "time": 129.53532312291665,
                        "value": 0
                    },
                    {
                        "number": 64,
                        "time": 140.88743671041664,
                        "value": 1
                    },
                    {
                        "number": 64,
                        "time": 141.31061112291664,
                        "value": 0
                    },
                    {
                        "number": 64,
                        "time": 146.76485910625,
                        "value": 1
                    },
                    {
                        "number": 64,
                        "time": 146.95600310416665,
                        "value": 0
                    },
                    {
                        "number": 64,
                        "time": 151.606833,
                        "value": 0
                    },
                    {
                        "number": 64,
                        "time": 151.72029280625,
                        "value": 1
                    },
                    {
                        "number": 64,
                        "time": 152.12506833125,
                        "value": 0
                    },
                    {
                        "number": 64,
                        "time": 152.19457523958332,
                        "value": 1
                    },
                    {
                        "number": 64,
                        "time": 153.08589912291666,
                        "value": 0
                    },
                    {
                        "number": 64,
                        "time": 158.52481469999998,
                        "value": 1
                    },
                    {
                        "number": 64,
                        "time": 158.73129110416664,
                        "value": 0
                    },
                    {
                        "number": 64,
                        "time": 163.38212099999998,
                        "value": 0
                    },
                    {
                        "number": 64,
                        "time": 163.49558080625,
                        "value": 1
                    },
                    {
                        "number": 64,
                        "time": 163.90035633124998,
                        "value": 0
                    },
                    {
                        "number": 64,
                        "time": 163.9698632395833,
                        "value": 1
                    },
                    {
                        "number": 64,
                        "time": 164.86118712291665,
                        "value": 0
                    },
                    {
                        "number": 64,
                        "time": 176.21330071041666,
                        "value": 1
                    },
                    {
                        "number": 64,
                        "time": 176.63647512291666,
                        "value": 0
                    },
                    {
                        "number": 64,
                        "time": 187.98858871041665,
                        "value": 1
                    },
                    {
                        "number": 64,
                        "time": 188.41176312291665,
                        "value": 0
                    },
                    {
                        "number": 64,
                        "time": 213.00187626666664,
                        "value": 1
                    },
                    {
                        "number": 64,
                        "time": 213.93204224583332,
                        "value": 0
                    },
                    {
                        "number": 64,
                        "time": 217.48916049583332,
                        "value": 1
                    },
                    {
                        "number": 64,
                        "time": 217.8571382458333,
                        "value": 0
                    },
                    {
                        "number": 64,
                        "time": 218.88952026666664,
                        "value": 1
                    },
                    {
                        "number": 64,
                        "time": 219.8196862458333,
                        "value": 0
                    },
                    {
                        "number": 64,
                        "time": 223.3768044958333,
                        "value": 1
                    },
                    {
                        "number": 64,
                        "time": 223.7447822458333,
                        "value": 0
                    },
                    {
                        "number": 64,
                        "time": 224.77716426666663,
                        "value": 1
                    },
                    {
                        "number": 64,
                        "time": 225.7073302458333,
                        "value": 0
                    },
                    {
                        "number": 64,
                        "time": 229.2644484958333,
                        "value": 1
                    },
                    {
                        "number": 64,
                        "time": 229.6324262458333,
                        "value": 0
                    },
                    {
                        "number": 64,
                        "time": 230.66480826666663,
                        "value": 1
                    },
                    {
                        "number": 64,
                        "time": 231.5949742458333,
                        "value": 0
                    },
                    {
                        "number": 64,
                        "time": 235.1520924958333,
                        "value": 1
                    },
                    {
                        "number": 64,
                        "time": 235.5200702458333,
                        "value": 0
                    }
                ]
            },
            "id": 3,
            "name": "Pedale",
            "instrumentNumber": 0,
            "instrument": "acoustic grand piano",
            "instrumentFamily": "piano",
            "channelNumber": 0,
            "isPercussion": false
        },
        {
            "startTime": 0,
            "duration": 0,
            "length": 0,
            "notes": [],
            "controlChanges": {},
            "id": 4,
            "name": "Haydn: Sonata Hoboken XVI:33 3. movement"
        },
        {
            "startTime": 0,
            "duration": 0,
            "length": 0,
            "notes": [],
            "controlChanges": {},
            "id": 5,
            "name": "Copyright  2010 by Bernd Krueger"
        },
        {
            "startTime": 0,
            "duration": 0,
            "length": 0,
            "notes": [],
            "controlChanges": {},
            "id": 6,
            "name": "http://www.piano-midi.de/"
        },
        {
            "startTime": 0,
            "duration": 0,
            "length": 0,
            "notes": [],
            "controlChanges": {},
            "id": 7,
            "name": "Edition: 2012-02-28"
        },
        {
            "startTime": 0,
            "duration": 0,
            "length": 0,
            "notes": [],
            "controlChanges": {},
            "id": 8,
            "name": "Spur 8"
        },
        {
            "startTime": 0,
            "duration": 0,
            "length": 0,
            "notes": [],
            "controlChanges": {},
            "id": 9,
            "name": "Spur 9"
        },
        {
            "startTime": 0,
            "duration": 0,
            "length": 0,
            "notes": [],
            "controlChanges": {},
            "id": 10,
            "name": "Spur 10"
        },
        {
            "startTime": 0,
            "duration": 0,
            "length": 0,
            "notes": [],
            "controlChanges": {},
            "id": 11,
            "name": "Spur 11"
        },
        {
            "startTime": 0,
            "duration": 0,
            "length": 0,
            "notes": [],
            "controlChanges": {},
            "id": 12,
            "name": "Spur 12"
        },
        {
            "startTime": 0,
            "duration": 0,
            "length": 0,
            "notes": [],
            "controlChanges": {},
            "id": 13,
            "name": "Spur 13"
        },
        {
            "startTime": 0,
            "duration": 0,
            "length": 0,
            "notes": [],
            "controlChanges": {},
            "id": 14,
            "name": "Spur 14"
        },
        {
            "startTime": 0,
            "duration": 0,
            "length": 0,
            "notes": [],
            "controlChanges": {},
            "id": 15,
            "name": "Spur 15"
        },
        {
            "startTime": 0,
            "duration": 0,
            "length": 0,
            "notes": [],
            "controlChanges": {},
            "id": 16,
            "name": "Spur 16"
        }
    ]
}