{
    "header": {
        "PPQ": 480,
        "timeSignature": [
            2,
            4
        ],
        "bpm": 89.9999550000225,
        "name": "Sonate Hoboken XVI:8 1. Satz"
    },
    "startTime": 0,
    "duration": 118.16672575000005,
    "tracks": [
        {
            "startTime": 0,
            "duration": 0,
            "length": 0,
            "notes": [],
            "controlChanges": {},
            "id": 0,
            "name": "Sonate Hoboken XVI:8 1. Satz"
        },
        {
            "startTime": 1.0000005,
            "duration": 118.0000589999993,
            "length": 560,
            "notes": [
                {
                    "name": "D5",
                    "midi": 74,
                    "time": 1.0000005,
                    "velocity": 0.5669291338582677,
                    "duration": 0.25000012500000013
                },
                {
                    "name": "G5",
                    "midi": 79,
                    "time": 1.2500006250000002,
                    "velocity": 0.5196850393700787,
                    "duration": 0.08333337500000004
                },
                {
                    "name": "D5",
                    "midi": 74,
                    "time": 1.3333340000000002,
                    "velocity": 0.5669291338582677,
                    "duration": 0.33333349999999995
                },
                {
                    "name": "B4",
                    "midi": 71,
                    "time": 1.6666675000000002,
                    "velocity": 0.5669291338582677,
                    "duration": 0.2500001249999999
                },
                {
                    "name": "D5",
                    "midi": 74,
                    "time": 1.916667625,
                    "velocity": 0.5275590551181102,
                    "duration": 0.08333337500000004
                },
                {
                    "name": "B4",
                    "midi": 71,
                    "time": 2.000001,
                    "velocity": 0.5669291338582677,
                    "duration": 0.33333350000000017
                },
                {
                    "name": "G4",
                    "midi": 67,
                    "time": 2.3333345000000003,
                    "velocity": 0.5669291338582677,
                    "duration": 0.25000012500000013
                },
                {
                    "name": "B4",
                    "midi": 71,
                    "time": 2.5833346250000004,
                    "velocity": 0.5196850393700787,
                    "duration": 0.08333337500000004
                },
                {
                    "name": "G4",
                    "midi": 67,
                    "time": 2.6666680000000005,
                    "velocity": 0.5669291338582677,
                    "duration": 0.6666669999999999
                },
                {
                    "name": "D5",
                    "midi": 74,
                    "time": 3.6666685000000006,
                    "velocity": 0.5669291338582677,
                    "duration": 0.3333334999999997
                },
                {
                    "name": "C5",
                    "midi": 72,
                    "time": 4.000002,
                    "velocity": 0.5669291338582677,
                    "duration": 0.11111116666666643
                },
                {
                    "name": "D5",
                    "midi": 74,
                    "time": 4.111113166666667,
                    "velocity": 0.5196850393700787,
                    "duration": 0.11111116666666643
                },
                {
                    "name": "E5",
                    "midi": 76,
                    "time": 4.222224333333333,
                    "velocity": 0.5196850393700787,
                    "duration": 0.11111116666666643
                },
                {
                    "name": "D5",
                    "midi": 74,
                    "time": 4.3333355,
                    "velocity": 0.5669291338582677,
                    "duration": 0.33333350000000017
                },
                {
                    "name": "B4",
                    "midi": 71,
                    "time": 5.0000025,
                    "velocity": 0.5669291338582677,
                    "duration": 0.33333350000000017
                },
                {
                    "name": "A4",
                    "midi": 69,
                    "time": 5.333336,
                    "velocity": 0.5669291338582677,
                    "duration": 0.11111116666666643
                },
                {
                    "name": "B4",
                    "midi": 71,
                    "time": 5.4444471666666665,
                    "velocity": 0.49606299212598426,
                    "duration": 0.11111116666666643
                },
                {
                    "name": "C5",
                    "midi": 72,
                    "time": 5.555558333333333,
                    "velocity": 0.5039370078740157,
                    "duration": 0.11111116666666643
                },
                {
                    "name": "B4",
                    "midi": 71,
                    "time": 5.666669499999999,
                    "velocity": 0.5669291338582677,
                    "duration": 0.33333350000000017
                },
                {
                    "name": "D5",
                    "midi": 74,
                    "time": 6.3333365,
                    "velocity": 0.5669291338582677,
                    "duration": 0.33333350000000017
                },
                {
                    "name": "E5",
                    "midi": 76,
                    "time": 6.66667,
                    "velocity": 0.5275590551181102,
                    "duration": 0.04166668750000024
                },
                {
                    "name": "F#5",
                    "midi": 78,
                    "time": 6.7083366875,
                    "velocity": 0.4251968503937008,
                    "duration": 0.04166668750000024
                },
                {
                    "name": "E5",
                    "midi": 76,
                    "time": 6.750003375,
                    "velocity": 0.5196850393700787,
                    "duration": 0.0833333749999996
                },
                {
                    "name": "D5",
                    "midi": 74,
                    "time": 6.83333675,
                    "velocity": 0.48031496062992124,
                    "duration": 0.16666675000000009
                },
                {
                    "name": "E5",
                    "midi": 76,
                    "time": 7.0000035,
                    "velocity": 0.5039370078740157,
                    "duration": 0.16666675000000009
                },
                {
                    "name": "F#5",
                    "midi": 78,
                    "time": 7.16667025,
                    "velocity": 0.5433070866141733,
                    "duration": 0.16666675000000009
                },
                {
                    "name": "G5",
                    "midi": 79,
                    "time": 7.333337,
                    "velocity": 0.5826771653543307,
                    "duration": 0.16666675000000009
                },
                {
                    "name": "F#5",
                    "midi": 78,
                    "time": 7.50000375,
                    "velocity": 0.5275590551181102,
                    "duration": 0.16666675000000009
                },
                {
                    "name": "E5",
                    "midi": 76,
                    "time": 7.6666705,
                    "velocity": 0.5275590551181102,
                    "duration": 0.16666675000000009
                },
                {
                    "name": "D5",
                    "midi": 74,
                    "time": 7.8333372500000005,
                    "velocity": 0.5275590551181102,
                    "duration": 0.16666675000000009
                },
                {
                    "name": "C5",
                    "midi": 72,
                    "time": 8.000004,
                    "velocity": 0.48031496062992124,
                    "duration": 0.1666667499999992
                },
                {
                    "name": "D5",
                    "midi": 74,
                    "time": 8.16667075,
                    "velocity": 0.4645669291338583,
                    "duration": 0.08333337500000049
                },
                {
                    "name": "C5",
                    "midi": 72,
                    "time": 8.250004125,
                    "velocity": 0.4094488188976378,
                    "duration": 0.08333337500000049
                },
                {
                    "name": "D5",
                    "midi": 74,
                    "time": 8.3333375,
                    "velocity": 0.4645669291338583,
                    "duration": 0.08333337500000049
                },
                {
                    "name": "C5",
                    "midi": 72,
                    "time": 8.416670875000001,
                    "velocity": 0.4094488188976378,
                    "duration": 0.08333337500000049
                },
                {
                    "name": "B4",
                    "midi": 71,
                    "time": 8.500004250000002,
                    "velocity": 0.4094488188976378,
                    "duration": 0.08333337500000049
                },
                {
                    "name": "C5",
                    "midi": 72,
                    "time": 8.583337625000002,
                    "velocity": 0.4094488188976378,
                    "duration": 0.08333337500000049
                },
                {
                    "name": "B4",
                    "midi": 71,
                    "time": 8.666671000000003,
                    "velocity": 0.4881889763779528,
                    "duration": 0.33333350000000017
                },
                {
                    "name": "B4",
                    "midi": 71,
                    "time": 9.000004500000003,
                    "velocity": 0.4094488188976378,
                    "duration": 0.33333350000000017
                },
                {
                    "name": "A4",
                    "midi": 69,
                    "time": 9.333338000000003,
                    "velocity": 0.4409448818897638,
                    "duration": 0.1666667499999992
                },
                {
                    "name": "C5",
                    "midi": 72,
                    "time": 9.500004750000002,
                    "velocity": 0.3700787401574803,
                    "duration": 0.1666667499999992
                },
                {
                    "name": "B4",
                    "midi": 71,
                    "time": 9.666671500000001,
                    "velocity": 0.4330708661417323,
                    "duration": 0.1666667499999992
                },
                {
                    "name": "A4",
                    "midi": 69,
                    "time": 9.83333825,
                    "velocity": 0.4094488188976378,
                    "duration": 0.1666667499999992
                },
                {
                    "name": "E5",
                    "midi": 76,
                    "time": 10.000005,
                    "velocity": 0.4645669291338583,
                    "duration": 0.33333350000000017
                },
                {
                    "name": "G4",
                    "midi": 67,
                    "time": 10.3333385,
                    "velocity": 0.4251968503937008,
                    "duration": 0.33333350000000017
                },
                {
                    "name": "G4",
                    "midi": 67,
                    "time": 10.666672,
                    "velocity": 0.4015748031496063,
                    "duration": 0.33333350000000017
                },
                {
                    "name": "F#4",
                    "midi": 66,
                    "time": 11.0000055,
                    "velocity": 0.3464566929133858,
                    "duration": 0.33333350000000017
                },
                {
                    "name": "A5",
                    "midi": 81,
                    "time": 11.50000575,
                    "velocity": 0.4015748031496063,
                    "duration": 0.1666667499999992
                },
                {
                    "name": "A5",
                    "midi": 81,
                    "time": 11.833339249999998,
                    "velocity": 0.4015748031496063,
                    "duration": 0.1666667499999992
                },
                {
                    "name": "A5",
                    "midi": 81,
                    "time": 12.166672749999996,
                    "velocity": 0.41732283464566927,
                    "duration": 0.1666667499999992
                },
                {
                    "name": "A5",
                    "midi": 81,
                    "time": 12.500006249999995,
                    "velocity": 0.4330708661417323,
                    "duration": 0.1666667499999992
                },
                {
                    "name": "A5",
                    "midi": 81,
                    "time": 12.833339749999993,
                    "velocity": 0.4409448818897638,
                    "duration": 0.1666667499999992
                },
                {
                    "name": "A5",
                    "midi": 81,
                    "time": 13.166673249999992,
                    "velocity": 0.4566929133858268,
                    "duration": 0.1666667499999992
                },
                {
                    "name": "G5",
                    "midi": 79,
                    "time": 13.33333999999999,
                    "velocity": 0.4645669291338583,
                    "duration": 0.11111116666666732
                },
                {
                    "name": "A5",
                    "midi": 81,
                    "time": 13.444451166666658,
                    "velocity": 0.4015748031496063,
                    "duration": 0.11111116666666732
                },
                {
                    "name": "G5",
                    "midi": 79,
                    "time": 13.555562333333325,
                    "velocity": 0.4015748031496063,
                    "duration": 0.11111116666666732
                },
                {
                    "name": "F#5",
                    "midi": 78,
                    "time": 13.666673499999993,
                    "velocity": 0.47244094488188976,
                    "duration": 0.33333350000000017
                },
                {
                    "name": "E5",
                    "midi": 76,
                    "time": 14.000006999999993,
                    "velocity": 0.4645669291338583,
                    "duration": 0.11111116666666732
                },
                {
                    "name": "F#5",
                    "midi": 78,
                    "time": 14.11111816666666,
                    "velocity": 0.4015748031496063,
                    "duration": 0.11111116666666732
                },
                {
                    "name": "E5",
                    "midi": 76,
                    "time": 14.222229333333328,
                    "velocity": 0.4015748031496063,
                    "duration": 0.11111116666666732
                },
                {
                    "name": "D5",
                    "midi": 74,
                    "time": 14.333340499999995,
                    "velocity": 0.4645669291338583,
                    "duration": 0.33333350000000017
                },
                {
                    "name": "C#5",
                    "midi": 73,
                    "time": 14.666673999999995,
                    "velocity": 0.47244094488188976,
                    "duration": 0.11111116666666732
                },
                {
                    "name": "B4",
                    "midi": 71,
                    "time": 14.777785166666662,
                    "velocity": 0.4015748031496063,
                    "duration": 0.11111116666666732
                },
                {
                    "name": "A4",
                    "midi": 69,
                    "time": 14.88889633333333,
                    "velocity": 0.4015748031496063,
                    "duration": 0.11111116666666732
                },
                {
                    "name": "D5",
                    "midi": 74,
                    "time": 15.000007499999997,
                    "velocity": 0.48031496062992124,
                    "duration": 0.33333350000000017
                },
                {
                    "name": "G5",
                    "midi": 79,
                    "time": 15.500007749999996,
                    "velocity": 0.4251968503937008,
                    "duration": 0.1666667499999992
                },
                {
                    "name": "G5",
                    "midi": 79,
                    "time": 15.833341249999995,
                    "velocity": 0.4409448818897638,
                    "duration": 0.1666667499999992
                },
                {
                    "name": "G5",
                    "midi": 79,
                    "time": 16.166674749999995,
                    "velocity": 0.4645669291338583,
                    "duration": 0.16666675000000097
                },
                {
                    "name": "G5",
                    "midi": 79,
                    "time": 16.500008249999997,
                    "velocity": 0.4881889763779528,
                    "duration": 0.16666675000000097
                },
                {
                    "name": "G5",
                    "midi": 79,
                    "time": 16.83334175,
                    "velocity": 0.5118110236220472,
                    "duration": 0.16666675000000097
                },
                {
                    "name": "G5",
                    "midi": 79,
                    "time": 17.16667525,
                    "velocity": 0.5275590551181102,
                    "duration": 0.16666675000000097
                },
                {
                    "name": "F#5",
                    "midi": 78,
                    "time": 17.333342000000002,
                    "velocity": 0.5590551181102362,
                    "duration": 0.11111116666666732
                },
                {
                    "name": "E5",
                    "midi": 76,
                    "time": 17.44445316666667,
                    "velocity": 0.4881889763779528,
                    "duration": 0.11111116666666732
                },
                {
                    "name": "D5",
                    "midi": 74,
                    "time": 17.555564333333336,
                    "velocity": 0.4409448818897638,
                    "duration": 0.11111116666666732
                },
                {
                    "name": "C#5",
                    "midi": 73,
                    "time": 17.666675500000004,
                    "velocity": 0.47244094488188976,
                    "duration": 0.11111116666666732
                },
                {
                    "name": "B4",
                    "midi": 71,
                    "time": 17.77778666666667,
                    "velocity": 0.4330708661417323,
                    "duration": 0.11111116666666732
                },
                {
                    "name": "A4",
                    "midi": 69,
                    "time": 17.88889783333334,
                    "velocity": 0.4094488188976378,
                    "duration": 0.11111116666666732
                },
                {
                    "name": "E5",
                    "midi": 76,
                    "time": 18.000009000000006,
                    "velocity": 0.4645669291338583,
                    "duration": 0.11111116666666732
                },
                {
                    "name": "F#5",
                    "midi": 78,
                    "time": 18.111120166666673,
                    "velocity": 0.4409448818897638,
                    "duration": 0.11111116666666732
                },
                {
                    "name": "E5",
                    "midi": 76,
                    "time": 18.22223133333334,
                    "velocity": 0.4409448818897638,
                    "duration": 0.11111116666666732
                },
                {
                    "name": "F#5",
                    "midi": 78,
                    "time": 18.333342500000008,
                    "velocity": 0.4645669291338583,
                    "duration": 0.08333337499999871
                },
                {
                    "name": "E5",
                    "midi": 76,
                    "time": 18.416675875000006,
                    "velocity": 0.41732283464566927,
                    "duration": 0.08333337499999871
                },
                {
                    "name": "D5",
                    "midi": 74,
                    "time": 18.500009250000005,
                    "velocity": 0.4645669291338583,
                    "duration": 0.08333337499999871
                },
                {
                    "name": "E5",
                    "midi": 76,
                    "time": 18.583342625000004,
                    "velocity": 0.4251968503937008,
                    "duration": 0.08333337499999871
                },
                {
                    "name": "D5",
                    "midi": 74,
                    "time": 18.666676000000002,
                    "velocity": 0.4645669291338583,
                    "duration": 0.3333334999999984
                },
                {
                    "name": "D6",
                    "midi": 86,
                    "time": 19.0000095,
                    "velocity": 0.4881889763779528,
                    "duration": 0.3333334999999984
                },
                {
                    "name": "C#6",
                    "midi": 85,
                    "time": 19.333343,
                    "velocity": 0.48031496062992124,
                    "duration": 0.3333334999999984
                },
                {
                    "name": "B5",
                    "midi": 83,
                    "time": 19.666676499999998,
                    "velocity": 0.4645669291338583,
                    "duration": 0.3333334999999984
                },
                {
                    "name": "A5",
                    "midi": 81,
                    "time": 20.000009999999996,
                    "velocity": 0.49606299212598426,
                    "duration": 0.3333334999999984
                },
                {
                    "name": "B5",
                    "midi": 83,
                    "time": 20.333343499999994,
                    "velocity": 0.5511811023622047,
                    "duration": 0.11111116666666732
                },
                {
                    "name": "A5",
                    "midi": 81,
                    "time": 20.444454666666662,
                    "velocity": 0.5118110236220472,
                    "duration": 0.11111116666666732
                },
                {
                    "name": "G5",
                    "midi": 79,
                    "time": 20.55556583333333,
                    "velocity": 0.5118110236220472,
                    "duration": 0.11111116666666732
                },
                {
                    "name": "F#5",
                    "midi": 78,
                    "time": 20.666676999999996,
                    "velocity": 0.5905511811023622,
                    "duration": 0.3333334999999984
                },
                {
                    "name": "E5",
                    "midi": 76,
                    "time": 21.000010499999995,
                    "velocity": 0.5748031496062992,
                    "duration": 0.06666669999999897
                },
                {
                    "name": "F#5",
                    "midi": 78,
                    "time": 21.066677199999994,
                    "velocity": 0.5196850393700787,
                    "duration": 0.06666669999999897
                },
                {
                    "name": "E5",
                    "midi": 76,
                    "time": 21.133343899999993,
                    "velocity": 0.5275590551181102,
                    "duration": 0.06666669999999897
                },
                {
                    "name": "D5",
                    "midi": 74,
                    "time": 21.20001059999999,
                    "velocity": 0.5275590551181102,
                    "duration": 0.06666669999999897
                },
                {
                    "name": "E5",
                    "midi": 76,
                    "time": 21.26667729999999,
                    "velocity": 0.5275590551181102,
                    "duration": 0.06666669999999897
                },
                {
                    "name": "D5",
                    "midi": 74,
                    "time": 21.33334399999999,
                    "velocity": 0.5984251968503937,
                    "duration": 0.6666670000000003
                },
                {
                    "name": "D5",
                    "midi": 74,
                    "time": 22.33334449999999,
                    "velocity": 0.5669291338582677,
                    "duration": 0.2500001249999997
                },
                {
                    "name": "G5",
                    "midi": 79,
                    "time": 22.583344624999988,
                    "velocity": 0.5196850393700787,
                    "duration": 0.08333337499999871
                },
                {
                    "name": "D5",
                    "midi": 74,
                    "time": 22.666677999999987,
                    "velocity": 0.5669291338582677,
                    "duration": 0.3333334999999984
                },
                {
                    "name": "B4",
                    "midi": 71,
                    "time": 23.000011499999985,
                    "velocity": 0.5669291338582677,
                    "duration": 0.2500001249999997
                },
                {
                    "name": "D5",
                    "midi": 74,
                    "time": 23.250011624999985,
                    "velocity": 0.5275590551181102,
                    "duration": 0.08333337499999871
                },
                {
                    "name": "B4",
                    "midi": 71,
                    "time": 23.333344999999984,
                    "velocity": 0.5669291338582677,
                    "duration": 0.3333334999999984
                },
                {
                    "name": "G4",
                    "midi": 67,
                    "time": 23.666678499999982,
                    "velocity": 0.5669291338582677,
                    "duration": 0.2500001249999997
                },
                {
                    "name": "B4",
                    "midi": 71,
                    "time": 23.91667862499998,
                    "velocity": 0.5196850393700787,
                    "duration": 0.08333337499999871
                },
                {
                    "name": "G4",
                    "midi": 67,
                    "time": 24.00001199999998,
                    "velocity": 0.5669291338582677,
                    "duration": 0.6666670000000003
                },
                {
                    "name": "D5",
                    "midi": 74,
                    "time": 25.00001249999998,
                    "velocity": 0.5669291338582677,
                    "duration": 0.3333334999999984
                },
                {
                    "name": "C5",
                    "midi": 72,
                    "time": 25.333345999999977,
                    "velocity": 0.5669291338582677,
                    "duration": 0.11111116666666732
                },
                {
                    "name": "D5",
                    "midi": 74,
                    "time": 25.444457166666645,
                    "velocity": 0.5196850393700787,
                    "duration": 0.11111116666666732
                },
                {
                    "name": "E5",
                    "midi": 76,
                    "time": 25.555568333333312,
                    "velocity": 0.5196850393700787,
                    "duration": 0.11111116666666732
                },
                {
                    "name": "D5",
                    "midi": 74,
                    "time": 25.66667949999998,
                    "velocity": 0.5669291338582677,
                    "duration": 0.3333334999999984
                },
                {
                    "name": "B4",
                    "midi": 71,
                    "time": 26.333346499999976,
                    "velocity": 0.5669291338582677,
                    "duration": 0.3333334999999984
                },
                {
                    "name": "A4",
                    "midi": 69,
                    "time": 26.666679999999975,
                    "velocity": 0.5669291338582677,
                    "duration": 0.11111116666666732
                },
                {
                    "name": "B4",
                    "midi": 71,
                    "time": 26.777791166666642,
                    "velocity": 0.49606299212598426,
                    "duration": 0.11111116666666732
                },
                {
                    "name": "C5",
                    "midi": 72,
                    "time": 26.88890233333331,
                    "velocity": 0.5039370078740157,
                    "duration": 0.11111116666666732
                },
                {
                    "name": "B4",
                    "midi": 71,
                    "time": 27.000013499999977,
                    "velocity": 0.5669291338582677,
                    "duration": 0.3333334999999984
                },
                {
                    "name": "D5",
                    "midi": 74,
                    "time": 27.666680499999973,
                    "velocity": 0.5669291338582677,
                    "duration": 0.3333334999999984
                },
                {
                    "name": "E5",
                    "midi": 76,
                    "time": 28.00001399999997,
                    "velocity": 0.5275590551181102,
                    "duration": 0.04166668750000113
                },
                {
                    "name": "F#5",
                    "midi": 78,
                    "time": 28.041680687499973,
                    "velocity": 0.4251968503937008,
                    "duration": 0.04166668750000113
                },
                {
                    "name": "E5",
                    "midi": 76,
                    "time": 28.083347374999974,
                    "velocity": 0.5196850393700787,
                    "duration": 0.08333337499999871
                },
                {
                    "name": "D5",
                    "midi": 74,
                    "time": 28.166680749999973,
                    "velocity": 0.48031496062992124,
                    "duration": 0.16666675000000097
                },
                {
                    "name": "E5",
                    "midi": 76,
                    "time": 28.333347499999974,
                    "velocity": 0.5039370078740157,
                    "duration": 0.16666675000000097
                },
                {
                    "name": "F#5",
                    "midi": 78,
                    "time": 28.500014249999975,
                    "velocity": 0.5433070866141733,
                    "duration": 0.16666675000000097
                },
                {
                    "name": "G5",
                    "midi": 79,
                    "time": 28.666680999999976,
                    "velocity": 0.5826771653543307,
                    "duration": 0.16666675000000097
                },
                {
                    "name": "F#5",
                    "midi": 78,
                    "time": 28.833347749999977,
                    "velocity": 0.5275590551181102,
                    "duration": 0.16666675000000097
                },
                {
                    "name": "E5",
                    "midi": 76,
                    "time": 29.000014499999978,
                    "velocity": 0.5275590551181102,
                    "duration": 0.16666675000000097
                },
                {
                    "name": "D5",
                    "midi": 74,
                    "time": 29.16668124999998,
                    "velocity": 0.5275590551181102,
                    "duration": 0.16666675000000097
                },
                {
                    "name": "C5",
                    "midi": 72,
                    "time": 29.33334799999998,
                    "velocity": 0.48031496062992124,
                    "duration": 0.16666675000000097
                },
                {
                    "name": "D5",
                    "midi": 74,
                    "time": 29.50001474999998,
                    "velocity": 0.4645669291338583,
                    "duration": 0.08333337499999871
                },
                {
                    "name": "C5",
                    "midi": 72,
                    "time": 29.58334812499998,
                    "velocity": 0.4094488188976378,
                    "duration": 0.08333337499999871
                },
                {
                    "name": "D5",
                    "midi": 74,
                    "time": 29.666681499999978,
                    "velocity": 0.4645669291338583,
                    "duration": 0.08333337499999871
                },
                {
                    "name": "C5",
                    "midi": 72,
                    "time": 29.750014874999977,
                    "velocity": 0.4094488188976378,
                    "duration": 0.08333337499999871
                },
                {
                    "name": "B4",
                    "midi": 71,
                    "time": 29.833348249999975,
                    "velocity": 0.4094488188976378,
                    "duration": 0.08333337499999871
                },
                {
                    "name": "C5",
                    "midi": 72,
                    "time": 29.916681624999974,
                    "velocity": 0.4094488188976378,
                    "duration": 0.08333337499999871
                },
                {
                    "name": "B4",
                    "midi": 71,
                    "time": 30.000014999999973,
                    "velocity": 0.4881889763779528,
                    "duration": 0.3333334999999984
                },
                {
                    "name": "B4",
                    "midi": 71,
                    "time": 30.33334849999997,
                    "velocity": 0.4094488188976378,
                    "duration": 0.3333334999999984
                },
                {
                    "name": "A4",
                    "midi": 69,
                    "time": 30.66668199999997,
                    "velocity": 0.4409448818897638,
                    "duration": 0.16666675000000097
                },
                {
                    "name": "C5",
                    "midi": 72,
                    "time": 30.83334874999997,
                    "velocity": 0.3700787401574803,
                    "duration": 0.16666675000000097
                },
                {
                    "name": "B4",
                    "midi": 71,
                    "time": 31.00001549999997,
                    "velocity": 0.4330708661417323,
                    "duration": 0.16666675000000097
                },
                {
                    "name": "A4",
                    "midi": 69,
                    "time": 31.166682249999972,
                    "velocity": 0.4094488188976378,
                    "duration": 0.16666675000000097
                },
                {
                    "name": "E5",
                    "midi": 76,
                    "time": 31.333348999999973,
                    "velocity": 0.4645669291338583,
                    "duration": 0.3333334999999984
                },
                {
                    "name": "G4",
                    "midi": 67,
                    "time": 31.666682499999972,
                    "velocity": 0.4251968503937008,
                    "duration": 0.33333350000000195
                },
                {
                    "name": "G4",
                    "midi": 67,
                    "time": 32.000015999999974,
                    "velocity": 0.4015748031496063,
                    "duration": 0.33333350000000195
                },
                {
                    "name": "F#4",
                    "midi": 66,
                    "time": 32.333349499999976,
                    "velocity": 0.3464566929133858,
                    "duration": 0.33333350000000195
                },
                {
                    "name": "A5",
                    "midi": 81,
                    "time": 32.833349749999975,
                    "velocity": 0.4015748031496063,
                    "duration": 0.16666674999999742
                },
                {
                    "name": "A5",
                    "midi": 81,
                    "time": 33.16668324999997,
                    "velocity": 0.4015748031496063,
                    "duration": 0.16666674999999742
                },
                {
                    "name": "A5",
                    "midi": 81,
                    "time": 33.500016749999965,
                    "velocity": 0.41732283464566927,
                    "duration": 0.16666674999999742
                },
                {
                    "name": "A5",
                    "midi": 81,
                    "time": 33.83335024999996,
                    "velocity": 0.4330708661417323,
                    "duration": 0.16666674999999742
                },
                {
                    "name": "A5",
                    "midi": 81,
                    "time": 34.166683749999955,
                    "velocity": 0.4409448818897638,
                    "duration": 0.16666674999999742
                },
                {
                    "name": "A5",
                    "midi": 81,
                    "time": 34.50001724999995,
                    "velocity": 0.4566929133858268,
                    "duration": 0.16666674999999742
                },
                {
                    "name": "G5",
                    "midi": 79,
                    "time": 34.66668399999995,
                    "velocity": 0.4645669291338583,
                    "duration": 0.11111116666666732
                },
                {
                    "name": "A5",
                    "midi": 81,
                    "time": 34.777795166666614,
                    "velocity": 0.4015748031496063,
                    "duration": 0.11111116666666732
                },
                {
                    "name": "G5",
                    "midi": 79,
                    "time": 34.88890633333328,
                    "velocity": 0.4015748031496063,
                    "duration": 0.11111116666666732
                },
                {
                    "name": "F#5",
                    "midi": 78,
                    "time": 35.00001749999995,
                    "velocity": 0.47244094488188976,
                    "duration": 0.33333350000000195
                },
                {
                    "name": "E5",
                    "midi": 76,
                    "time": 35.33335099999995,
                    "velocity": 0.4645669291338583,
                    "duration": 0.11111116666666732
                },
                {
                    "name": "F#5",
                    "midi": 78,
                    "time": 35.44446216666662,
                    "velocity": 0.4015748031496063,
                    "duration": 0.11111116666666732
                },
                {
                    "name": "E5",
                    "midi": 76,
                    "time": 35.555573333333285,
                    "velocity": 0.4015748031496063,
                    "duration": 0.11111116666666732
                },
                {
                    "name": "D5",
                    "midi": 74,
                    "time": 35.66668449999995,
                    "velocity": 0.4645669291338583,
                    "duration": 0.33333350000000195
                },
                {
                    "name": "C#5",
                    "midi": 73,
                    "time": 36.000017999999955,
                    "velocity": 0.47244094488188976,
                    "duration": 0.11111116666666732
                },
                {
                    "name": "B4",
                    "midi": 71,
                    "time": 36.11112916666662,
                    "velocity": 0.4015748031496063,
                    "duration": 0.11111116666666732
                },
                {
                    "name": "A4",
                    "midi": 69,
                    "time": 36.22224033333329,
                    "velocity": 0.4015748031496063,
                    "duration": 0.11111116666666732
                },
                {
                    "name": "D5",
                    "midi": 74,
                    "time": 36.33335149999996,
                    "velocity": 0.48031496062992124,
                    "duration": 0.33333350000000195
                },
                {
                    "name": "G5",
                    "midi": 79,
                    "time": 36.833351749999956,
                    "velocity": 0.4251968503937008,
                    "duration": 0.16666674999999742
                },
                {
                    "name": "G5",
                    "midi": 79,
                    "time": 37.16668524999995,
                    "velocity": 0.4409448818897638,
                    "duration": 0.16666674999999742
                },
                {
                    "name": "G5",
                    "midi": 79,
                    "time": 37.500018749999946,
                    "velocity": 0.4645669291338583,
                    "duration": 0.16666674999999742
                },
                {
                    "name": "G5",
                    "midi": 79,
                    "time": 37.83335224999994,
                    "velocity": 0.4881889763779528,
                    "duration": 0.16666674999999742
                },
                {
                    "name": "G5",
                    "midi": 79,
                    "time": 38.166685749999935,
                    "velocity": 0.5118110236220472,
                    "duration": 0.16666674999999742
                },
                {
                    "name": "G5",
                    "midi": 79,
                    "time": 38.50001924999993,
                    "velocity": 0.5275590551181102,
                    "duration": 0.16666674999999742
                },
                {
                    "name": "F#5",
                    "midi": 78,
                    "time": 38.66668599999993,
                    "velocity": 0.5590551181102362,
                    "duration": 0.11111116666666732
                },
                {
                    "name": "E5",
                    "midi": 76,
                    "time": 38.777797166666595,
                    "velocity": 0.4881889763779528,
                    "duration": 0.11111116666666732
                },
                {
                    "name": "D5",
                    "midi": 74,
                    "time": 38.88890833333326,
                    "velocity": 0.4409448818897638,
                    "duration": 0.11111116666666732
                },
                {
                    "name": "C#5",
                    "midi": 73,
                    "time": 39.00001949999993,
                    "velocity": 0.47244094488188976,
                    "duration": 0.11111116666666732
                },
                {
                    "name": "B4",
                    "midi": 71,
                    "time": 39.1111306666666,
                    "velocity": 0.4330708661417323,
                    "duration": 0.11111116666666732
                },
                {
                    "name": "A4",
                    "midi": 69,
                    "time": 39.222241833333264,
                    "velocity": 0.4094488188976378,
                    "duration": 0.11111116666666732
                },
                {
                    "name": "E5",
                    "midi": 76,
                    "time": 39.33335299999993,
                    "velocity": 0.4645669291338583,
                    "duration": 0.11111116666666732
                },
                {
                    "name": "F#5",
                    "midi": 78,
                    "time": 39.4444641666666,
                    "velocity": 0.4409448818897638,
                    "duration": 0.11111116666666732
                },
                {
                    "name": "E5",
                    "midi": 76,
                    "time": 39.555575333333266,
                    "velocity": 0.4409448818897638,
                    "duration": 0.11111116666666732
                },
                {
                    "name": "F#5",
                    "midi": 78,
                    "time": 39.66668649999993,
                    "velocity": 0.4645669291338583,
                    "duration": 0.08333337500000226
                },
                {
                    "name": "E5",
                    "midi": 76,
                    "time": 39.750019874999936,
                    "velocity": 0.41732283464566927,
                    "duration": 0.08333337500000226
                },
                {
                    "name": "D5",
                    "midi": 74,
                    "time": 39.83335324999994,
                    "velocity": 0.4645669291338583,
                    "duration": 0.08333337500000226
                },
                {
                    "name": "E5",
                    "midi": 76,
                    "time": 39.91668662499994,
                    "velocity": 0.4251968503937008,
                    "duration": 0.08333337500000226
                },
                {
                    "name": "D5",
                    "midi": 74,
                    "time": 40.00001999999994,
                    "velocity": 0.4645669291338583,
                    "duration": 0.33333350000000195
                },
                {
                    "name": "D6",
                    "midi": 86,
                    "time": 40.333353499999944,
                    "velocity": 0.4881889763779528,
                    "duration": 0.33333350000000195
                },
                {
                    "name": "C#6",
                    "midi": 85,
                    "time": 40.666686999999946,
                    "velocity": 0.48031496062992124,
                    "duration": 0.33333350000000195
                },
                {
                    "name": "B5",
                    "midi": 83,
                    "time": 41.00002049999995,
                    "velocity": 0.4645669291338583,
                    "duration": 0.33333350000000195
                },
                {
                    "name": "A5",
                    "midi": 81,
                    "time": 41.33335399999995,
                    "velocity": 0.49606299212598426,
                    "duration": 0.33333350000000195
                },
                {
                    "name": "B5",
                    "midi": 83,
                    "time": 41.66668749999995,
                    "velocity": 0.5511811023622047,
                    "duration": 0.11111116666666732
                },
                {
                    "name": "A5",
                    "midi": 81,
                    "time": 41.77779866666662,
                    "velocity": 0.5118110236220472,
                    "duration": 0.11111116666666732
                },
                {
                    "name": "G5",
                    "midi": 79,
                    "time": 41.88890983333329,
                    "velocity": 0.5118110236220472,
                    "duration": 0.11111116666666732
                },
                {
                    "name": "F#5",
                    "midi": 78,
                    "time": 42.000020999999954,
                    "velocity": 0.5905511811023622,
                    "duration": 0.33333350000000195
                },
                {
                    "name": "E5",
                    "midi": 76,
                    "time": 42.333354499999956,
                    "velocity": 0.5748031496062992,
                    "duration": 0.06666669999999897
                },
                {
                    "name": "F#5",
                    "midi": 78,
                    "time": 42.400021199999955,
                    "velocity": 0.5196850393700787,
                    "duration": 0.06666669999999897
                },
                {
                    "name": "E5",
                    "midi": 76,
                    "time": 42.466687899999954,
                    "velocity": 0.5275590551181102,
                    "duration": 0.06666669999999897
                },
                {
                    "name": "D5",
                    "midi": 74,
                    "time": 42.53335459999995,
                    "velocity": 0.5275590551181102,
                    "duration": 0.06666669999999897
                },
                {
                    "name": "E5",
                    "midi": 76,
                    "time": 42.60002129999995,
                    "velocity": 0.5275590551181102,
                    "duration": 0.06666669999999897
                },
                {
                    "name": "D5",
                    "midi": 74,
                    "time": 42.66668799999995,
                    "velocity": 0.5984251968503937,
                    "duration": 0.6666669999999968
                },
                {
                    "name": "D5",
                    "midi": 74,
                    "time": 43.66668849999995,
                    "velocity": 0.3937007874015748,
                    "duration": 0.2500001249999997
                },
                {
                    "name": "F#5",
                    "midi": 78,
                    "time": 43.91668862499995,
                    "velocity": 0.33858267716535434,
                    "duration": 0.08333337500000226
                },
                {
                    "name": "D5",
                    "midi": 74,
                    "time": 44.00002199999995,
                    "velocity": 0.3937007874015748,
                    "duration": 0.33333350000000195
                },
                {
                    "name": "C6",
                    "midi": 84,
                    "time": 44.50002224999995,
                    "velocity": 0.3937007874015748,
                    "duration": 0.16666674999999742
                },
                {
                    "name": "F#5",
                    "midi": 78,
                    "time": 44.833355749999946,
                    "velocity": 0.3937007874015748,
                    "duration": 0.16666674999999742
                },
                {
                    "name": "A5",
                    "midi": 81,
                    "time": 45.16668924999994,
                    "velocity": 0.3937007874015748,
                    "duration": 0.16666674999999742
                },
                {
                    "name": "G5",
                    "midi": 79,
                    "time": 45.500022749999935,
                    "velocity": 0.3937007874015748,
                    "duration": 0.16666674999999742
                },
                {
                    "name": "B5",
                    "midi": 83,
                    "time": 45.66668949999993,
                    "velocity": 0.4251968503937008,
                    "duration": 0.16666674999999742
                },
                {
                    "name": "D5",
                    "midi": 74,
                    "time": 45.83335624999993,
                    "velocity": 0.3937007874015748,
                    "duration": 0.16666674999999742
                },
                {
                    "name": "C5",
                    "midi": 72,
                    "time": 46.00002299999993,
                    "velocity": 0.4251968503937008,
                    "duration": 0.11111116666666732
                },
                {
                    "name": "D5",
                    "midi": 74,
                    "time": 46.111134166666595,
                    "velocity": 0.3543307086614173,
                    "duration": 0.11111116666666732
                },
                {
                    "name": "E5",
                    "midi": 76,
                    "time": 46.22224533333326,
                    "velocity": 0.3543307086614173,
                    "duration": 0.11111116666666732
                },
                {
                    "name": "A4",
                    "midi": 69,
                    "time": 46.33335649999993,
                    "velocity": 0.4094488188976378,
                    "duration": 0.11111116666666732
                },
                {
                    "name": "B4",
                    "midi": 71,
                    "time": 46.4444676666666,
                    "velocity": 0.3464566929133858,
                    "duration": 0.11111116666666732
                },
                {
                    "name": "C5",
                    "midi": 72,
                    "time": 46.555578833333264,
                    "velocity": 0.3464566929133858,
                    "duration": 0.11111116666666732
                },
                {
                    "name": "B4",
                    "midi": 71,
                    "time": 46.66668999999993,
                    "velocity": 0.4094488188976378,
                    "duration": 0.11111116666666732
                },
                {
                    "name": "C5",
                    "midi": 72,
                    "time": 46.7778011666666,
                    "velocity": 0.3543307086614173,
                    "duration": 0.11111116666666732
                },
                {
                    "name": "D5",
                    "midi": 74,
                    "time": 46.888912333333266,
                    "velocity": 0.3543307086614173,
                    "duration": 0.11111116666666732
                },
                {
                    "name": "C5",
                    "midi": 72,
                    "time": 47.000023499999934,
                    "velocity": 0.4094488188976378,
                    "duration": 0.11111116666666732
                },
                {
                    "name": "D5",
                    "midi": 74,
                    "time": 47.1111346666666,
                    "velocity": 0.36220472440944884,
                    "duration": 0.11111116666666732
                },
                {
                    "name": "E5",
                    "midi": 76,
                    "time": 47.22224583333327,
                    "velocity": 0.36220472440944884,
                    "duration": 0.11111116666666732
                },
                {
                    "name": "D5",
                    "midi": 74,
                    "time": 47.333356999999936,
                    "velocity": 0.36220472440944884,
                    "duration": 0.33333350000000195
                },
                {
                    "name": "D5",
                    "midi": 74,
                    "time": 47.66669049999994,
                    "velocity": 0.4330708661417323,
                    "duration": 0.2500001249999997
                },
                {
                    "name": "G5",
                    "midi": 79,
                    "time": 47.91669062499994,
                    "velocity": 0.4094488188976378,
                    "duration": 0.08333337500000226
                },
                {
                    "name": "D5",
                    "midi": 74,
                    "time": 48.00002399999994,
                    "velocity": 0.4566929133858268,
                    "duration": 0.33333350000000195
                },
                {
                    "name": "F#4",
                    "midi": 66,
                    "time": 48.33335749999994,
                    "velocity": 0.3779527559055118,
                    "duration": 0.33333350000000195
                },
                {
                    "name": "G4",
                    "midi": 67,
                    "time": 48.66669099999994,
                    "velocity": 0.3937007874015748,
                    "duration": 0.33333350000000195
                },
                {
                    "name": "A4",
                    "midi": 69,
                    "time": 49.000024499999945,
                    "velocity": 0.41732283464566927,
                    "duration": 0.33333350000000195
                },
                {
                    "name": "B4",
                    "midi": 71,
                    "time": 49.33335799999995,
                    "velocity": 0.4330708661417323,
                    "duration": 0.33333350000000195
                },
                {
                    "name": "C5",
                    "midi": 72,
                    "time": 49.66669149999995,
                    "velocity": 0.4409448818897638,
                    "duration": 0.06666669999999897
                },
                {
                    "name": "D5",
                    "midi": 74,
                    "time": 49.73335819999995,
                    "velocity": 0.47244094488188976,
                    "duration": 0.06666669999999897
                },
                {
                    "name": "C5",
                    "midi": 72,
                    "time": 49.80002489999995,
                    "velocity": 0.3937007874015748,
                    "duration": 0.06666669999999897
                },
                {
                    "name": "B4",
                    "midi": 71,
                    "time": 49.866691599999946,
                    "velocity": 0.4094488188976378,
                    "duration": 0.06666669999999897
                },
                {
                    "name": "C5",
                    "midi": 72,
                    "time": 49.933358299999945,
                    "velocity": 0.4409448818897638,
                    "duration": 0.06666669999999897
                },
                {
                    "name": "D5",
                    "midi": 74,
                    "time": 50.000024999999944,
                    "velocity": 0.4645669291338583,
                    "duration": 0.33333350000000195
                },
                {
                    "name": "G5",
                    "midi": 79,
                    "time": 50.333358499999946,
                    "velocity": 0.4881889763779528,
                    "duration": 0.2500001249999997
                },
                {
                    "name": "B5",
                    "midi": 83,
                    "time": 50.583358624999946,
                    "velocity": 0.4566929133858268,
                    "duration": 0.08333337500000226
                },
                {
                    "name": "G5",
                    "midi": 79,
                    "time": 50.66669199999995,
                    "velocity": 0.5118110236220472,
                    "duration": 0.33333350000000195
                },
                {
                    "name": "B4",
                    "midi": 71,
                    "time": 51.00002549999995,
                    "velocity": 0.44881889763779526,
                    "duration": 0.33333350000000195
                },
                {
                    "name": "C5",
                    "midi": 72,
                    "time": 51.33335899999995,
                    "velocity": 0.47244094488188976,
                    "duration": 0.33333350000000195
                },
                {
                    "name": "D5",
                    "midi": 74,
                    "time": 51.666692499999954,
                    "velocity": 0.49606299212598426,
                    "duration": 0.33333350000000195
                },
                {
                    "name": "E5",
                    "midi": 76,
                    "time": 52.000025999999956,
                    "velocity": 0.5275590551181102,
                    "duration": 0.33333350000000195
                },
                {
                    "name": "F5",
                    "midi": 77,
                    "time": 52.33335949999996,
                    "velocity": 0.48031496062992124,
                    "duration": 0.06666669999999897
                },
                {
                    "name": "G5",
                    "midi": 79,
                    "time": 52.40002619999996,
                    "velocity": 0.5196850393700787,
                    "duration": 0.06666669999999897
                },
                {
                    "name": "F5",
                    "midi": 77,
                    "time": 52.466692899999956,
                    "velocity": 0.4566929133858268,
                    "duration": 0.06666669999999897
                },
                {
                    "name": "E5",
                    "midi": 76,
                    "time": 52.533359599999955,
                    "velocity": 0.47244094488188976,
                    "duration": 0.06666669999999897
                },
                {
                    "name": "F5",
                    "midi": 77,
                    "time": 52.60002629999995,
                    "velocity": 0.49606299212598426,
                    "duration": 0.06666669999999897
                },
                {
                    "name": "G5",
                    "midi": 79,
                    "time": 52.66669299999995,
                    "velocity": 0.5196850393700787,
                    "duration": 0.33333350000000195
                },
                {
                    "name": "E5",
                    "midi": 76,
                    "time": 53.000026499999954,
                    "velocity": 0.4881889763779528,
                    "duration": 0.2500001249999997
                },
                {
                    "name": "G5",
                    "midi": 79,
                    "time": 53.250026624999954,
                    "velocity": 0.4330708661417323,
                    "duration": 0.08333337500000226
                },
                {
                    "name": "D5",
                    "midi": 74,
                    "time": 53.333359999999956,
                    "velocity": 0.4881889763779528,
                    "duration": 0.33333350000000195
                },
                {
                    "name": "C5",
                    "midi": 72,
                    "time": 53.66669349999996,
                    "velocity": 0.4566929133858268,
                    "duration": 0.11111116666666732
                },
                {
                    "name": "D5",
                    "midi": 74,
                    "time": 53.777804666666626,
                    "velocity": 0.41732283464566927,
                    "duration": 0.11111116666666732
                },
                {
                    "name": "C5",
                    "midi": 72,
                    "time": 53.88891583333329,
                    "velocity": 0.41732283464566927,
                    "duration": 0.11111116666666732
                },
                {
                    "name": "B4",
                    "midi": 71,
                    "time": 54.00002699999996,
                    "velocity": 0.4566929133858268,
                    "duration": 0.33333350000000195
                },
                {
                    "name": "D5",
                    "midi": 74,
                    "time": 54.33336049999996,
                    "velocity": 0.4566929133858268,
                    "duration": 0.11111116666666732
                },
                {
                    "name": "C5",
                    "midi": 72,
                    "time": 54.44447166666663,
                    "velocity": 0.4094488188976378,
                    "duration": 0.11111116666666732
                },
                {
                    "name": "B4",
                    "midi": 71,
                    "time": 54.5555828333333,
                    "velocity": 0.4094488188976378,
                    "duration": 0.11111116666666732
                },
                {
                    "name": "A4",
                    "midi": 69,
                    "time": 54.666693999999964,
                    "velocity": 0.44881889763779526,
                    "duration": 0.33333350000000195
                },
                {
                    "name": "C5",
                    "midi": 72,
                    "time": 55.000027499999966,
                    "velocity": 0.4251968503937008,
                    "duration": 0.11111116666666732
                },
                {
                    "name": "B4",
                    "midi": 71,
                    "time": 55.11113866666663,
                    "velocity": 0.3858267716535433,
                    "duration": 0.11111116666666732
                },
                {
                    "name": "A4",
                    "midi": 69,
                    "time": 55.2222498333333,
                    "velocity": 0.3858267716535433,
                    "duration": 0.11111116666666732
                },
                {
                    "name": "E5",
                    "midi": 76,
                    "time": 55.33336099999997,
                    "velocity": 0.4409448818897638,
                    "duration": 0.33333350000000195
                },
                {
                    "name": "G4",
                    "midi": 67,
                    "time": 55.66669449999997,
                    "velocity": 0.3700787401574803,
                    "duration": 0.16666674999999742
                },
                {
                    "name": "G4",
                    "midi": 67,
                    "time": 56.000027999999965,
                    "velocity": 0.4566929133858268,
                    "duration": 0.08333337500000226
                },
                {
                    "name": "A4",
                    "midi": 69,
                    "time": 56.08336137499997,
                    "velocity": 0.3858267716535433,
                    "duration": 0.08333337500000226
                },
                {
                    "name": "G4",
                    "midi": 67,
                    "time": 56.16669474999997,
                    "velocity": 0.3858267716535433,
                    "duration": 0.16666674999999742
                },
                {
                    "name": "F#4",
                    "midi": 66,
                    "time": 56.33336149999997,
                    "velocity": 0.4330708661417323,
                    "duration": 0.33333350000000195
                },
                {
                    "name": "D5",
                    "midi": 74,
                    "time": 57.00002849999997,
                    "velocity": 0.5669291338582677,
                    "duration": 0.2500001249999997
                },
                {
                    "name": "G5",
                    "midi": 79,
                    "time": 57.25002862499997,
                    "velocity": 0.5196850393700787,
                    "duration": 0.08333337500000226
                },
                {
                    "name": "D5",
                    "midi": 74,
                    "time": 57.33336199999997,
                    "velocity": 0.5669291338582677,
                    "duration": 0.33333350000000195
                },
                {
                    "name": "B4",
                    "midi": 71,
                    "time": 57.666695499999975,
                    "velocity": 0.5669291338582677,
                    "duration": 0.2500001249999997
                },
                {
                    "name": "D5",
                    "midi": 74,
                    "time": 57.916695624999974,
                    "velocity": 0.5275590551181102,
                    "duration": 0.08333337500000226
                },
                {
                    "name": "B4",
                    "midi": 71,
                    "time": 58.00002899999998,
                    "velocity": 0.5669291338582677,
                    "duration": 0.33333350000000195
                },
                {
                    "name": "G4",
                    "midi": 67,
                    "time": 58.33336249999998,
                    "velocity": 0.5669291338582677,
                    "duration": 0.2500001249999997
                },
                {
                    "name": "B4",
                    "midi": 71,
                    "time": 58.58336262499998,
                    "velocity": 0.5196850393700787,
                    "duration": 0.08333337500000226
                },
                {
                    "name": "G4",
                    "midi": 67,
                    "time": 58.66669599999998,
                    "velocity": 0.5669291338582677,
                    "duration": 0.6666669999999968
                },
                {
                    "name": "D5",
                    "midi": 74,
                    "time": 59.66669649999998,
                    "velocity": 0.5669291338582677,
                    "duration": 0.33333350000000195
                },
                {
                    "name": "C5",
                    "midi": 72,
                    "time": 60.00002999999998,
                    "velocity": 0.5669291338582677,
                    "duration": 0.11111116666666732
                },
                {
                    "name": "D5",
                    "midi": 74,
                    "time": 60.11114116666665,
                    "velocity": 0.5196850393700787,
                    "duration": 0.11111116666666732
                },
                {
                    "name": "E5",
                    "midi": 76,
                    "time": 60.222252333333316,
                    "velocity": 0.5196850393700787,
                    "duration": 0.11111116666666732
                },
                {
                    "name": "D5",
                    "midi": 74,
                    "time": 60.33336349999998,
                    "velocity": 0.5669291338582677,
                    "duration": 0.33333350000000195
                },
                {
                    "name": "B4",
                    "midi": 71,
                    "time": 61.00003049999999,
                    "velocity": 0.5669291338582677,
                    "duration": 0.33333350000000195
                },
                {
                    "name": "A4",
                    "midi": 69,
                    "time": 61.33336399999999,
                    "velocity": 0.5669291338582677,
                    "duration": 0.11111116666666732
                },
                {
                    "name": "B4",
                    "midi": 71,
                    "time": 61.444475166666656,
                    "velocity": 0.49606299212598426,
                    "duration": 0.11111116666666732
                },
                {
                    "name": "C5",
                    "midi": 72,
                    "time": 61.55558633333332,
                    "velocity": 0.5039370078740157,
                    "duration": 0.11111116666666732
                },
                {
                    "name": "B4",
                    "midi": 71,
                    "time": 61.66669749999999,
                    "velocity": 0.5669291338582677,
                    "duration": 0.33333350000000195
                },
                {
                    "name": "D5",
                    "midi": 74,
                    "time": 62.333364499999995,
                    "velocity": 0.5669291338582677,
                    "duration": 0.33333350000000195
                },
                {
                    "name": "E5",
                    "midi": 76,
                    "time": 62.666698,
                    "velocity": 0.5275590551181102,
                    "duration": 0.04166668749999758
                },
                {
                    "name": "F#5",
                    "midi": 78,
                    "time": 62.708364687499994,
                    "velocity": 0.4251968503937008,
                    "duration": 0.04166668749999758
                },
                {
                    "name": "E5",
                    "midi": 76,
                    "time": 62.75003137499999,
                    "velocity": 0.5196850393700787,
                    "duration": 0.08333337500000226
                },
                {
                    "name": "D5",
                    "midi": 74,
                    "time": 62.833364749999994,
                    "velocity": 0.48031496062992124,
                    "duration": 0.16666674999999742
                },
                {
                    "name": "E5",
                    "midi": 76,
                    "time": 63.00003149999999,
                    "velocity": 0.5039370078740157,
                    "duration": 0.16666674999999742
                },
                {
                    "name": "F#5",
                    "midi": 78,
                    "time": 63.16669824999999,
                    "velocity": 0.5433070866141733,
                    "duration": 0.16666674999999742
                },
                {
                    "name": "G5",
                    "midi": 79,
                    "time": 63.333364999999986,
                    "velocity": 0.5826771653543307,
                    "duration": 0.16666674999999742
                },
                {
                    "name": "F#5",
                    "midi": 78,
                    "time": 63.500031749999984,
                    "velocity": 0.5275590551181102,
                    "duration": 0.16666674999999742
                },
                {
                    "name": "E5",
                    "midi": 76,
                    "time": 63.66669849999998,
                    "velocity": 0.5275590551181102,
                    "duration": 0.16666674999999742
                },
                {
                    "name": "D5",
                    "midi": 74,
                    "time": 63.83336524999998,
                    "velocity": 0.5275590551181102,
                    "duration": 0.16666674999999742
                },
                {
                    "name": "C5",
                    "midi": 72,
                    "time": 64.00003199999998,
                    "velocity": 0.48031496062992124,
                    "duration": 0.16666675000000453
                },
                {
                    "name": "D5",
                    "midi": 74,
                    "time": 64.16669874999998,
                    "velocity": 0.4645669291338583,
                    "duration": 0.08333337499999516
                },
                {
                    "name": "C5",
                    "midi": 72,
                    "time": 64.25003212499998,
                    "velocity": 0.4094488188976378,
                    "duration": 0.08333337499999516
                },
                {
                    "name": "D5",
                    "midi": 74,
                    "time": 64.33336549999997,
                    "velocity": 0.4645669291338583,
                    "duration": 0.08333337499999516
                },
                {
                    "name": "C5",
                    "midi": 72,
                    "time": 64.41669887499997,
                    "velocity": 0.4094488188976378,
                    "duration": 0.08333337499999516
                },
                {
                    "name": "B4",
                    "midi": 71,
                    "time": 64.50003224999996,
                    "velocity": 0.4094488188976378,
                    "duration": 0.08333337499999516
                },
                {
                    "name": "C5",
                    "midi": 72,
                    "time": 64.58336562499996,
                    "velocity": 0.4094488188976378,
                    "duration": 0.08333337499999516
                },
                {
                    "name": "B4",
                    "midi": 71,
                    "time": 64.66669899999995,
                    "velocity": 0.4881889763779528,
                    "duration": 0.33333349999999484
                },
                {
                    "name": "B4",
                    "midi": 71,
                    "time": 65.00003249999995,
                    "velocity": 0.4094488188976378,
                    "duration": 0.33333349999999484
                },
                {
                    "name": "A4",
                    "midi": 69,
                    "time": 65.33336599999994,
                    "velocity": 0.4409448818897638,
                    "duration": 0.16666675000000453
                },
                {
                    "name": "C5",
                    "midi": 72,
                    "time": 65.50003274999995,
                    "velocity": 0.3700787401574803,
                    "duration": 0.16666675000000453
                },
                {
                    "name": "B4",
                    "midi": 71,
                    "time": 65.66669949999995,
                    "velocity": 0.4330708661417323,
                    "duration": 0.16666675000000453
                },
                {
                    "name": "A4",
                    "midi": 69,
                    "time": 65.83336624999995,
                    "velocity": 0.4094488188976378,
                    "duration": 0.16666675000000453
                },
                {
                    "name": "E5",
                    "midi": 76,
                    "time": 66.00003299999996,
                    "velocity": 0.4645669291338583,
                    "duration": 0.33333349999999484
                },
                {
                    "name": "G4",
                    "midi": 67,
                    "time": 66.33336649999995,
                    "velocity": 0.4251968503937008,
                    "duration": 0.33333349999999484
                },
                {
                    "name": "G4",
                    "midi": 67,
                    "time": 66.66669999999995,
                    "velocity": 0.4015748031496063,
                    "duration": 0.33333349999999484
                },
                {
                    "name": "F#4",
                    "midi": 66,
                    "time": 67.00003349999994,
                    "velocity": 0.3464566929133858,
                    "duration": 0.33333349999999484
                },
                {
                    "name": "D6",
                    "midi": 86,
                    "time": 67.50003374999994,
                    "velocity": 0.4409448818897638,
                    "duration": 0.16666675000000453
                },
                {
                    "name": "D6",
                    "midi": 86,
                    "time": 67.83336724999995,
                    "velocity": 0.4409448818897638,
                    "duration": 0.16666675000000453
                },
                {
                    "name": "D6",
                    "midi": 86,
                    "time": 68.16670074999996,
                    "velocity": 0.4566929133858268,
                    "duration": 0.16666675000000453
                },
                {
                    "name": "D6",
                    "midi": 86,
                    "time": 68.50003424999997,
                    "velocity": 0.47244094488188976,
                    "duration": 0.16666675000000453
                },
                {
                    "name": "D6",
                    "midi": 86,
                    "time": 68.83336774999998,
                    "velocity": 0.48031496062992124,
                    "duration": 0.16666675000000453
                },
                {
                    "name": "D6",
                    "midi": 86,
                    "time": 69.16670124999999,
                    "velocity": 0.49606299212598426,
                    "duration": 0.16666675000000453
                },
                {
                    "name": "C6",
                    "midi": 84,
                    "time": 69.333368,
                    "velocity": 0.5039370078740157,
                    "duration": 0.11111116666666021
                },
                {
                    "name": "D6",
                    "midi": 86,
                    "time": 69.44447916666665,
                    "velocity": 0.4409448818897638,
                    "duration": 0.11111116666666021
                },
                {
                    "name": "C6",
                    "midi": 84,
                    "time": 69.55559033333331,
                    "velocity": 0.4409448818897638,
                    "duration": 0.11111116666666021
                },
                {
                    "name": "B5",
                    "midi": 83,
                    "time": 69.66670149999997,
                    "velocity": 0.5196850393700787,
                    "duration": 0.33333349999999484
                },
                {
                    "name": "A5",
                    "midi": 81,
                    "time": 70.00003499999997,
                    "velocity": 0.4645669291338583,
                    "duration": 0.11111116666666021
                },
                {
                    "name": "B5",
                    "midi": 83,
                    "time": 70.11114616666663,
                    "velocity": 0.4015748031496063,
                    "duration": 0.11111116666666021
                },
                {
                    "name": "A5",
                    "midi": 81,
                    "time": 70.22225733333329,
                    "velocity": 0.4015748031496063,
                    "duration": 0.11111116666666021
                },
                {
                    "name": "G5",
                    "midi": 79,
                    "time": 70.33336849999995,
                    "velocity": 0.4645669291338583,
                    "duration": 0.33333349999999484
                },
                {
                    "name": "F#5",
                    "midi": 78,
                    "time": 70.66670199999994,
                    "velocity": 0.47244094488188976,
                    "duration": 0.11111116666666021
                },
                {
                    "name": "E5",
                    "midi": 76,
                    "time": 70.7778131666666,
                    "velocity": 0.4015748031496063,
                    "duration": 0.11111116666666021
                },
                {
                    "name": "D5",
                    "midi": 74,
                    "time": 70.88892433333326,
                    "velocity": 0.4015748031496063,
                    "duration": 0.11111116666666021
                },
                {
                    "name": "G5",
                    "midi": 79,
                    "time": 71.00003549999992,
                    "velocity": 0.48031496062992124,
                    "duration": 0.33333349999999484
                },
                {
                    "name": "C6",
                    "midi": 84,
                    "time": 71.50003574999992,
                    "velocity": 0.5275590551181102,
                    "duration": 0.16666675000000453
                },
                {
                    "name": "C6",
                    "midi": 84,
                    "time": 71.83336924999993,
                    "velocity": 0.5354330708661418,
                    "duration": 0.16666675000000453
                },
                {
                    "name": "C6",
                    "midi": 84,
                    "time": 72.16670274999994,
                    "velocity": 0.5511811023622047,
                    "duration": 0.16666675000000453
                },
                {
                    "name": "C6",
                    "midi": 84,
                    "time": 72.50003624999995,
                    "velocity": 0.5669291338582677,
                    "duration": 0.16666675000000453
                },
                {
                    "name": "C6",
                    "midi": 84,
                    "time": 72.83336974999996,
                    "velocity": 0.5748031496062992,
                    "duration": 0.16666675000000453
                },
                {
                    "name": "C6",
                    "midi": 84,
                    "time": 73.16670324999997,
                    "velocity": 0.5354330708661418,
                    "duration": 0.16666675000000453
                },
                {
                    "name": "B5",
                    "midi": 83,
                    "time": 73.33336999999997,
                    "velocity": 0.5826771653543307,
                    "duration": 0.11111116666666021
                },
                {
                    "name": "A5",
                    "midi": 81,
                    "time": 73.44448116666663,
                    "velocity": 0.5118110236220472,
                    "duration": 0.11111116666666021
                },
                {
                    "name": "G5",
                    "midi": 79,
                    "time": 73.5555923333333,
                    "velocity": 0.5118110236220472,
                    "duration": 0.11111116666666021
                },
                {
                    "name": "F#5",
                    "midi": 78,
                    "time": 73.66670349999995,
                    "velocity": 0.5433070866141733,
                    "duration": 0.11111116666666021
                },
                {
                    "name": "E5",
                    "midi": 76,
                    "time": 73.77781466666661,
                    "velocity": 0.4645669291338583,
                    "duration": 0.11111116666666021
                },
                {
                    "name": "D5",
                    "midi": 74,
                    "time": 73.88892583333327,
                    "velocity": 0.4645669291338583,
                    "duration": 0.11111116666666021
                },
                {
                    "name": "A5",
                    "midi": 81,
                    "time": 74.00003699999994,
                    "velocity": 0.5118110236220472,
                    "duration": 0.11111116666666021
                },
                {
                    "name": "B5",
                    "midi": 83,
                    "time": 74.1111481666666,
                    "velocity": 0.4409448818897638,
                    "duration": 0.11111116666666021
                },
                {
                    "name": "A5",
                    "midi": 81,
                    "time": 74.22225933333326,
                    "velocity": 0.4409448818897638,
                    "duration": 0.11111116666666021
                },
                {
                    "name": "B5",
                    "midi": 83,
                    "time": 74.33337049999992,
                    "velocity": 0.4645669291338583,
                    "duration": 0.08333337499999516
                },
                {
                    "name": "A5",
                    "midi": 81,
                    "time": 74.41670387499991,
                    "velocity": 0.41732283464566927,
                    "duration": 0.08333337499999516
                },
                {
                    "name": "G5",
                    "midi": 79,
                    "time": 74.5000372499999,
                    "velocity": 0.4645669291338583,
                    "duration": 0.08333337499999516
                },
                {
                    "name": "A5",
                    "midi": 81,
                    "time": 74.5833706249999,
                    "velocity": 0.4251968503937008,
                    "duration": 0.08333337499999516
                },
                {
                    "name": "G5",
                    "midi": 79,
                    "time": 74.6667039999999,
                    "velocity": 0.4645669291338583,
                    "duration": 0.33333349999999484
                },
                {
                    "name": "G5",
                    "midi": 79,
                    "time": 75.00003749999989,
                    "velocity": 0.5354330708661418,
                    "duration": 0.33333349999999484
                },
                {
                    "name": "F#5",
                    "midi": 78,
                    "time": 75.33337099999989,
                    "velocity": 0.49606299212598426,
                    "duration": 0.33333349999999484
                },
                {
                    "name": "E5",
                    "midi": 76,
                    "time": 75.66670449999988,
                    "velocity": 0.49606299212598426,
                    "duration": 0.33333349999999484
                },
                {
                    "name": "D5",
                    "midi": 74,
                    "time": 76.00003799999988,
                    "velocity": 0.5511811023622047,
                    "duration": 0.33333349999999484
                },
                {
                    "name": "E5",
                    "midi": 76,
                    "time": 76.33337149999987,
                    "velocity": 0.5511811023622047,
                    "duration": 0.11111116666666021
                },
                {
                    "name": "D5",
                    "midi": 74,
                    "time": 76.44448266666653,
                    "velocity": 0.5118110236220472,
                    "duration": 0.11111116666666021
                },
                {
                    "name": "C5",
                    "midi": 72,
                    "time": 76.55559383333319,
                    "velocity": 0.5118110236220472,
                    "duration": 0.11111116666666021
                },
                {
                    "name": "B4",
                    "midi": 71,
                    "time": 76.66670499999985,
                    "velocity": 0.5748031496062992,
                    "duration": 0.33333349999999484
                },
                {
                    "name": "A4",
                    "midi": 69,
                    "time": 77.00003849999985,
                    "velocity": 0.5748031496062992,
                    "duration": 0.06666669999999897
                },
                {
                    "name": "B4",
                    "midi": 71,
                    "time": 77.06670519999984,
                    "velocity": 0.5196850393700787,
                    "duration": 0.06666669999999897
                },
                {
                    "name": "A4",
                    "midi": 69,
                    "time": 77.13337189999984,
                    "velocity": 0.5275590551181102,
                    "duration": 0.06666669999999897
                },
                {
                    "name": "G4",
                    "midi": 67,
                    "time": 77.20003859999984,
                    "velocity": 0.5275590551181102,
                    "duration": 0.06666669999999897
                },
                {
                    "name": "A4",
                    "midi": 69,
                    "time": 77.26670529999984,
                    "velocity": 0.5275590551181102,
                    "duration": 0.06666669999999897
                },
                {
                    "name": "G4",
                    "midi": 67,
                    "time": 77.33337199999984,
                    "velocity": 0.5984251968503937,
                    "duration": 0.33333349999999484
                },
                {
                    "name": "G5",
                    "midi": 79,
                    "time": 77.66670549999984,
                    "velocity": 0.33858267716535434,
                    "duration": 0.33333349999999484
                },
                {
                    "name": "F#5",
                    "midi": 78,
                    "time": 78.00003899999983,
                    "velocity": 0.33070866141732286,
                    "duration": 0.33333349999999484
                },
                {
                    "name": "E5",
                    "midi": 76,
                    "time": 78.33337249999983,
                    "velocity": 0.3228346456692913,
                    "duration": 0.33333349999999484
                },
                {
                    "name": "D5",
                    "midi": 74,
                    "time": 78.66670599999982,
                    "velocity": 0.3464566929133858,
                    "duration": 0.33333349999999484
                },
                {
                    "name": "E5",
                    "midi": 76,
                    "time": 79.00003949999982,
                    "velocity": 0.3858267716535433,
                    "duration": 0.11111116666666021
                },
                {
                    "name": "D5",
                    "midi": 74,
                    "time": 79.11115066666648,
                    "velocity": 0.3543307086614173,
                    "duration": 0.11111116666666021
                },
                {
                    "name": "C5",
                    "midi": 72,
                    "time": 79.22226183333314,
                    "velocity": 0.3543307086614173,
                    "duration": 0.11111116666666021
                },
                {
                    "name": "B4",
                    "midi": 71,
                    "time": 79.3333729999998,
                    "velocity": 0.4094488188976378,
                    "duration": 0.33333349999999484
                },
                {
                    "name": "A4",
                    "midi": 69,
                    "time": 79.66670649999979,
                    "velocity": 0.4015748031496063,
                    "duration": 0.06666669999999897
                },
                {
                    "name": "B4",
                    "midi": 71,
                    "time": 79.73337319999979,
                    "velocity": 0.36220472440944884,
                    "duration": 0.06666669999999897
                },
                {
                    "name": "A4",
                    "midi": 69,
                    "time": 79.80003989999979,
                    "velocity": 0.36220472440944884,
                    "duration": 0.06666669999999897
                },
                {
                    "name": "G4",
                    "midi": 67,
                    "time": 79.86670659999979,
                    "velocity": 0.36220472440944884,
                    "duration": 0.06666669999999897
                },
                {
                    "name": "A4",
                    "midi": 69,
                    "time": 79.93337329999979,
                    "velocity": 0.36220472440944884,
                    "duration": 0.06666669999999897
                },
                {
                    "name": "G4",
                    "midi": 67,
                    "time": 80.00003999999979,
                    "velocity": 0.41732283464566927,
                    "duration": 0.6666670000000039
                },
                {
                    "name": "D5",
                    "midi": 74,
                    "time": 81.00004049999978,
                    "velocity": 0.3937007874015748,
                    "duration": 0.2500001249999997
                },
                {
                    "name": "F#5",
                    "midi": 78,
                    "time": 81.25004062499978,
                    "velocity": 0.33858267716535434,
                    "duration": 0.08333337499999516
                },
                {
                    "name": "D5",
                    "midi": 74,
                    "time": 81.33337399999978,
                    "velocity": 0.3937007874015748,
                    "duration": 0.33333349999999484
                },
                {
                    "name": "C6",
                    "midi": 84,
                    "time": 81.83337424999978,
                    "velocity": 0.3937007874015748,
                    "duration": 0.16666675000000453
                },
                {
                    "name": "F#5",
                    "midi": 78,
                    "time": 82.16670774999979,
                    "velocity": 0.3937007874015748,
                    "duration": 0.16666675000000453
                },
                {
                    "name": "A5",
                    "midi": 81,
                    "time": 82.5000412499998,
                    "velocity": 0.3937007874015748,
                    "duration": 0.16666675000000453
                },
                {
                    "name": "G5",
                    "midi": 79,
                    "time": 82.8333747499998,
                    "velocity": 0.3937007874015748,
                    "duration": 0.16666675000000453
                },
                {
                    "name": "B5",
                    "midi": 83,
                    "time": 83.00004149999981,
                    "velocity": 0.4251968503937008,
                    "duration": 0.16666675000000453
                },
                {
                    "name": "D5",
                    "midi": 74,
                    "time": 83.16670824999981,
                    "velocity": 0.3937007874015748,
                    "duration": 0.16666675000000453
                },
                {
                    "name": "C5",
                    "midi": 72,
                    "time": 83.33337499999982,
                    "velocity": 0.4251968503937008,
                    "duration": 0.11111116666666021
                },
                {
                    "name": "D5",
                    "midi": 74,
                    "time": 83.44448616666648,
                    "velocity": 0.3543307086614173,
                    "duration": 0.11111116666666021
                },
                {
                    "name": "E5",
                    "midi": 76,
                    "time": 83.55559733333314,
                    "velocity": 0.3543307086614173,
                    "duration": 0.11111116666666021
                },
                {
                    "name": "A4",
                    "midi": 69,
                    "time": 83.6667084999998,
                    "velocity": 0.4094488188976378,
                    "duration": 0.11111116666666021
                },
                {
                    "name": "B4",
                    "midi": 71,
                    "time": 83.77781966666646,
                    "velocity": 0.3464566929133858,
                    "duration": 0.11111116666666021
                },
                {
                    "name": "C5",
                    "midi": 72,
                    "time": 83.88893083333312,
                    "velocity": 0.3464566929133858,
                    "duration": 0.11111116666666021
                },
                {
                    "name": "B4",
                    "midi": 71,
                    "time": 84.00004199999978,
                    "velocity": 0.4094488188976378,
                    "duration": 0.11111116666666021
                },
                {
                    "name": "C5",
                    "midi": 72,
                    "time": 84.11115316666644,
                    "velocity": 0.3543307086614173,
                    "duration": 0.11111116666666021
                },
                {
                    "name": "D5",
                    "midi": 74,
                    "time": 84.2222643333331,
                    "velocity": 0.3543307086614173,
                    "duration": 0.11111116666666021
                },
                {
                    "name": "C5",
                    "midi": 72,
                    "time": 84.33337549999976,
                    "velocity": 0.4094488188976378,
                    "duration": 0.11111116666666021
                },
                {
                    "name": "D5",
                    "midi": 74,
                    "time": 84.44448666666642,
                    "velocity": 0.36220472440944884,
                    "duration": 0.11111116666666021
                },
                {
                    "name": "E5",
                    "midi": 76,
                    "time": 84.55559783333308,
                    "velocity": 0.36220472440944884,
                    "duration": 0.11111116666666021
                },
                {
                    "name": "D5",
                    "midi": 74,
                    "time": 84.66670899999974,
                    "velocity": 0.36220472440944884,
                    "duration": 0.33333349999999484
                },
                {
                    "name": "D5",
                    "midi": 74,
                    "time": 85.00004249999974,
                    "velocity": 0.4330708661417323,
                    "duration": 0.2500001249999997
                },
                {
                    "name": "G5",
                    "midi": 79,
                    "time": 85.25004262499974,
                    "velocity": 0.4094488188976378,
                    "duration": 0.08333337499999516
                },
                {
                    "name": "D5",
                    "midi": 74,
                    "time": 85.33337599999973,
                    "velocity": 0.4566929133858268,
                    "duration": 0.33333349999999484
                },
                {
                    "name": "F#4",
                    "midi": 66,
                    "time": 85.66670949999973,
                    "velocity": 0.3779527559055118,
                    "duration": 0.33333349999999484
                },
                {
                    "name": "G4",
                    "midi": 67,
                    "time": 86.00004299999972,
                    "velocity": 0.3937007874015748,
                    "duration": 0.33333349999999484
                },
                {
                    "name": "A4",
                    "midi": 69,
                    "time": 86.33337649999972,
                    "velocity": 0.41732283464566927,
                    "duration": 0.33333349999999484
                },
                {
                    "name": "B4",
                    "midi": 71,
                    "time": 86.66670999999971,
                    "velocity": 0.4330708661417323,
                    "duration": 0.33333349999999484
                },
                {
                    "name": "C5",
                    "midi": 72,
                    "time": 87.0000434999997,
                    "velocity": 0.4409448818897638,
                    "duration": 0.06666669999999897
                },
                {
                    "name": "D5",
                    "midi": 74,
                    "time": 87.0667101999997,
                    "velocity": 0.47244094488188976,
                    "duration": 0.06666669999999897
                },
                {
                    "name": "C5",
                    "midi": 72,
                    "time": 87.1333768999997,
                    "velocity": 0.3937007874015748,
                    "duration": 0.06666669999999897
                },
                {
                    "name": "B4",
                    "midi": 71,
                    "time": 87.2000435999997,
                    "velocity": 0.4094488188976378,
                    "duration": 0.06666669999999897
                },
                {
                    "name": "C5",
                    "midi": 72,
                    "time": 87.2667102999997,
                    "velocity": 0.4409448818897638,
                    "duration": 0.06666669999999897
                },
                {
                    "name": "D5",
                    "midi": 74,
                    "time": 87.3333769999997,
                    "velocity": 0.4645669291338583,
                    "duration": 0.33333349999999484
                },
                {
                    "name": "G5",
                    "midi": 79,
                    "time": 87.6667104999997,
                    "velocity": 0.4881889763779528,
                    "duration": 0.2500001249999997
                },
                {
                    "name": "B5",
                    "midi": 83,
                    "time": 87.9167106249997,
                    "velocity": 0.4566929133858268,
                    "duration": 0.08333337499999516
                },
                {
                    "name": "G5",
                    "midi": 79,
                    "time": 88.00004399999969,
                    "velocity": 0.5118110236220472,
                    "duration": 0.33333349999999484
                },
                {
                    "name": "B4",
                    "midi": 71,
                    "time": 88.33337749999968,
                    "velocity": 0.44881889763779526,
                    "duration": 0.33333349999999484
                },
                {
                    "name": "C5",
                    "midi": 72,
                    "time": 88.66671099999968,
                    "velocity": 0.47244094488188976,
                    "duration": 0.33333349999999484
                },
                {
                    "name": "D5",
                    "midi": 74,
                    "time": 89.00004449999967,
                    "velocity": 0.49606299212598426,
                    "duration": 0.33333349999999484
                },
                {
                    "name": "E5",
                    "midi": 76,
                    "time": 89.33337799999967,
                    "velocity": 0.5275590551181102,
                    "duration": 0.33333349999999484
                },
                {
                    "name": "F5",
                    "midi": 77,
                    "time": 89.66671149999966,
                    "velocity": 0.48031496062992124,
                    "duration": 0.06666669999999897
                },
                {
                    "name": "G5",
                    "midi": 79,
                    "time": 89.73337819999966,
                    "velocity": 0.5196850393700787,
                    "duration": 0.06666669999999897
                },
                {
                    "name": "F5",
                    "midi": 77,
                    "time": 89.80004489999966,
                    "velocity": 0.4566929133858268,
                    "duration": 0.06666669999999897
                },
                {
                    "name": "E5",
                    "midi": 76,
                    "time": 89.86671159999966,
                    "velocity": 0.47244094488188976,
                    "duration": 0.06666669999999897
                },
                {
                    "name": "F5",
                    "midi": 77,
                    "time": 89.93337829999966,
                    "velocity": 0.49606299212598426,
                    "duration": 0.06666669999999897
                },
                {
                    "name": "G5",
                    "midi": 79,
                    "time": 90.00004499999966,
                    "velocity": 0.5196850393700787,
                    "duration": 0.33333349999999484
                },
                {
                    "name": "E5",
                    "midi": 76,
                    "time": 90.33337849999965,
                    "velocity": 0.4881889763779528,
                    "duration": 0.2500001249999997
                },
                {
                    "name": "G5",
                    "midi": 79,
                    "time": 90.58337862499965,
                    "velocity": 0.4330708661417323,
                    "duration": 0.08333337499999516
                },
                {
                    "name": "D5",
                    "midi": 74,
                    "time": 90.66671199999965,
                    "velocity": 0.4881889763779528,
                    "duration": 0.33333349999999484
                },
                {
                    "name": "C5",
                    "midi": 72,
                    "time": 91.00004549999964,
                    "velocity": 0.4566929133858268,
                    "duration": 0.11111116666666021
                },
                {
                    "name": "D5",
                    "midi": 74,
                    "time": 91.1111566666663,
                    "velocity": 0.41732283464566927,
                    "duration": 0.11111116666666021
                },
                {
                    "name": "C5",
                    "midi": 72,
                    "time": 91.22226783333296,
                    "velocity": 0.41732283464566927,
                    "duration": 0.11111116666666021
                },
                {
                    "name": "B4",
                    "midi": 71,
                    "time": 91.33337899999962,
                    "velocity": 0.4566929133858268,
                    "duration": 0.33333349999999484
                },
                {
                    "name": "D5",
                    "midi": 74,
                    "time": 91.66671249999962,
                    "velocity": 0.4566929133858268,
                    "duration": 0.11111116666666021
                },
                {
                    "name": "C5",
                    "midi": 72,
                    "time": 91.77782366666628,
                    "velocity": 0.4094488188976378,
                    "duration": 0.11111116666666021
                },
                {
                    "name": "B4",
                    "midi": 71,
                    "time": 91.88893483333294,
                    "velocity": 0.4094488188976378,
                    "duration": 0.11111116666666021
                },
                {
                    "name": "A4",
                    "midi": 69,
                    "time": 92.0000459999996,
                    "velocity": 0.44881889763779526,
                    "duration": 0.33333349999999484
                },
                {
                    "name": "C5",
                    "midi": 72,
                    "time": 92.3333794999996,
                    "velocity": 0.4251968503937008,
                    "duration": 0.11111116666666021
                },
                {
                    "name": "B4",
                    "midi": 71,
                    "time": 92.44449066666625,
                    "velocity": 0.3858267716535433,
                    "duration": 0.11111116666666021
                },
                {
                    "name": "A4",
                    "midi": 69,
                    "time": 92.55560183333291,
                    "velocity": 0.3858267716535433,
                    "duration": 0.11111116666666021
                },
                {
                    "name": "E5",
                    "midi": 76,
                    "time": 92.66671299999958,
                    "velocity": 0.4409448818897638,
                    "duration": 0.33333349999999484
                },
                {
                    "name": "G4",
                    "midi": 67,
                    "time": 93.00004649999957,
                    "velocity": 0.3700787401574803,
                    "duration": 0.16666675000000453
                },
                {
                    "name": "G4",
                    "midi": 67,
                    "time": 93.33337999999958,
                    "velocity": 0.4566929133858268,
                    "duration": 0.08333337499999516
                },
                {
                    "name": "A4",
                    "midi": 69,
                    "time": 93.41671337499957,
                    "velocity": 0.3858267716535433,
                    "duration": 0.08333337499999516
                },
                {
                    "name": "G4",
                    "midi": 67,
                    "time": 93.50004674999957,
                    "velocity": 0.3858267716535433,
                    "duration": 0.16666675000000453
                },
                {
                    "name": "F#4",
                    "midi": 66,
                    "time": 93.66671349999957,
                    "velocity": 0.4330708661417323,
                    "duration": 0.33333349999999484
                },
                {
                    "name": "D5",
                    "midi": 74,
                    "time": 94.33338049999956,
                    "velocity": 0.5669291338582677,
                    "duration": 0.2500001249999997
                },
                {
                    "name": "G5",
                    "midi": 79,
                    "time": 94.58338062499956,
                    "velocity": 0.5196850393700787,
                    "duration": 0.08333337499999516
                },
                {
                    "name": "D5",
                    "midi": 74,
                    "time": 94.66671399999956,
                    "velocity": 0.5669291338582677,
                    "duration": 0.33333349999999484
                },
                {
                    "name": "B4",
                    "midi": 71,
                    "time": 95.00004749999955,
                    "velocity": 0.5669291338582677,
                    "duration": 0.2500001249999997
                },
                {
                    "name": "D5",
                    "midi": 74,
                    "time": 95.25004762499955,
                    "velocity": 0.5275590551181102,
                    "duration": 0.08333337499999516
                },
                {
                    "name": "B4",
                    "midi": 71,
                    "time": 95.33338099999955,
                    "velocity": 0.5669291338582677,
                    "duration": 0.33333349999999484
                },
                {
                    "name": "G4",
                    "midi": 67,
                    "time": 95.66671449999954,
                    "velocity": 0.5669291338582677,
                    "duration": 0.2500001249999997
                },
                {
                    "name": "B4",
                    "midi": 71,
                    "time": 95.91671462499954,
                    "velocity": 0.5196850393700787,
                    "duration": 0.08333337499999516
                },
                {
                    "name": "G4",
                    "midi": 67,
                    "time": 96.00004799999954,
                    "velocity": 0.5669291338582677,
                    "duration": 0.6666670000000039
                },
                {
                    "name": "D5",
                    "midi": 74,
                    "time": 97.00004849999954,
                    "velocity": 0.5669291338582677,
                    "duration": 0.33333349999999484
                },
                {
                    "name": "C5",
                    "midi": 72,
                    "time": 97.33338199999953,
                    "velocity": 0.5669291338582677,
                    "duration": 0.11111116666666021
                },
                {
                    "name": "D5",
                    "midi": 74,
                    "time": 97.44449316666619,
                    "velocity": 0.5196850393700787,
                    "duration": 0.11111116666666021
                },
                {
                    "name": "E5",
                    "midi": 76,
                    "time": 97.55560433333285,
                    "velocity": 0.5196850393700787,
                    "duration": 0.11111116666666021
                },
                {
                    "name": "D5",
                    "midi": 74,
                    "time": 97.66671549999951,
                    "velocity": 0.5669291338582677,
                    "duration": 0.33333349999999484
                },
                {
                    "name": "B4",
                    "midi": 71,
                    "time": 98.3333824999995,
                    "velocity": 0.5669291338582677,
                    "duration": 0.33333349999999484
                },
                {
                    "name": "A4",
                    "midi": 69,
                    "time": 98.6667159999995,
                    "velocity": 0.5669291338582677,
                    "duration": 0.11111116666666021
                },
                {
                    "name": "B4",
                    "midi": 71,
                    "time": 98.77782716666616,
                    "velocity": 0.49606299212598426,
                    "duration": 0.11111116666666021
                },
                {
                    "name": "C5",
                    "midi": 72,
                    "time": 98.88893833333282,
                    "velocity": 0.5039370078740157,
                    "duration": 0.11111116666666021
                },
                {
                    "name": "B4",
                    "midi": 71,
                    "time": 99.00004949999948,
                    "velocity": 0.5669291338582677,
                    "duration": 0.33333349999999484
                },
                {
                    "name": "D5",
                    "midi": 74,
                    "time": 99.66671649999947,
                    "velocity": 0.5669291338582677,
                    "duration": 0.33333349999999484
                },
                {
                    "name": "E5",
                    "midi": 76,
                    "time": 100.00004999999946,
                    "velocity": 0.5275590551181102,
                    "duration": 0.04166668749999758
                },
                {
                    "name": "F#5",
                    "midi": 78,
                    "time": 100.04171668749946,
                    "velocity": 0.4251968503937008,
                    "duration": 0.04166668749999758
                },
                {
                    "name": "E5",
                    "midi": 76,
                    "time": 100.08338337499946,
                    "velocity": 0.5196850393700787,
                    "duration": 0.08333337499999516
                },
                {
                    "name": "D5",
                    "midi": 74,
                    "time": 100.16671674999945,
                    "velocity": 0.48031496062992124,
                    "duration": 0.16666675000000453
                },
                {
                    "name": "E5",
                    "midi": 76,
                    "time": 100.33338349999946,
                    "velocity": 0.5039370078740157,
                    "duration": 0.16666675000000453
                },
                {
                    "name": "F#5",
                    "midi": 78,
                    "time": 100.50005024999946,
                    "velocity": 0.5433070866141733,
                    "duration": 0.16666675000000453
                },
                {
                    "name": "G5",
                    "midi": 79,
                    "time": 100.66671699999947,
                    "velocity": 0.5826771653543307,
                    "duration": 0.16666675000000453
                },
                {
                    "name": "F#5",
                    "midi": 78,
                    "time": 100.83338374999947,
                    "velocity": 0.5275590551181102,
                    "duration": 0.16666675000000453
                },
                {
                    "name": "E5",
                    "midi": 76,
                    "time": 101.00005049999947,
                    "velocity": 0.5275590551181102,
                    "duration": 0.16666675000000453
                },
                {
                    "name": "D5",
                    "midi": 74,
                    "time": 101.16671724999948,
                    "velocity": 0.5275590551181102,
                    "duration": 0.16666675000000453
                },
                {
                    "name": "C5",
                    "midi": 72,
                    "time": 101.33338399999948,
                    "velocity": 0.48031496062992124,
                    "duration": 0.16666675000000453
                },
                {
                    "name": "D5",
                    "midi": 74,
                    "time": 101.50005074999949,
                    "velocity": 0.4645669291338583,
                    "duration": 0.08333337499999516
                },
                {
                    "name": "C5",
                    "midi": 72,
                    "time": 101.58338412499948,
                    "velocity": 0.4094488188976378,
                    "duration": 0.08333337499999516
                },
                {
                    "name": "D5",
                    "midi": 74,
                    "time": 101.66671749999948,
                    "velocity": 0.4645669291338583,
                    "duration": 0.08333337499999516
                },
                {
                    "name": "C5",
                    "midi": 72,
                    "time": 101.75005087499947,
                    "velocity": 0.4094488188976378,
                    "duration": 0.08333337499999516
                },
                {
                    "name": "B4",
                    "midi": 71,
                    "time": 101.83338424999947,
                    "velocity": 0.4094488188976378,
                    "duration": 0.08333337499999516
                },
                {
                    "name": "C5",
                    "midi": 72,
                    "time": 101.91671762499946,
                    "velocity": 0.4094488188976378,
                    "duration": 0.08333337499999516
                },
                {
                    "name": "B4",
                    "midi": 71,
                    "time": 102.00005099999946,
                    "velocity": 0.4881889763779528,
                    "duration": 0.33333349999999484
                },
                {
                    "name": "B4",
                    "midi": 71,
                    "time": 102.33338449999945,
                    "velocity": 0.4094488188976378,
                    "duration": 0.33333349999999484
                },
                {
                    "name": "A4",
                    "midi": 69,
                    "time": 102.66671799999945,
                    "velocity": 0.4409448818897638,
                    "duration": 0.16666675000000453
                },
                {
                    "name": "C5",
                    "midi": 72,
                    "time": 102.83338474999945,
                    "velocity": 0.3700787401574803,
                    "duration": 0.16666675000000453
                },
                {
                    "name": "B4",
                    "midi": 71,
                    "time": 103.00005149999946,
                    "velocity": 0.4330708661417323,
                    "duration": 0.16666675000000453
                },
                {
                    "name": "A4",
                    "midi": 69,
                    "time": 103.16671824999946,
                    "velocity": 0.4094488188976378,
                    "duration": 0.16666675000000453
                },
                {
                    "name": "E5",
                    "midi": 76,
                    "time": 103.33338499999947,
                    "velocity": 0.4645669291338583,
                    "duration": 0.33333349999999484
                },
                {
                    "name": "G4",
                    "midi": 67,
                    "time": 103.66671849999946,
                    "velocity": 0.4251968503937008,
                    "duration": 0.33333349999999484
                },
                {
                    "name": "G4",
                    "midi": 67,
                    "time": 104.00005199999946,
                    "velocity": 0.4015748031496063,
                    "duration": 0.33333349999999484
                },
                {
                    "name": "F#4",
                    "midi": 66,
                    "time": 104.33338549999945,
                    "velocity": 0.3464566929133858,
                    "duration": 0.33333349999999484
                },
                {
                    "name": "D6",
                    "midi": 86,
                    "time": 104.83338574999945,
                    "velocity": 0.4409448818897638,
                    "duration": 0.16666675000000453
                },
                {
                    "name": "D6",
                    "midi": 86,
                    "time": 105.16671924999946,
                    "velocity": 0.4409448818897638,
                    "duration": 0.16666675000000453
                },
                {
                    "name": "D6",
                    "midi": 86,
                    "time": 105.50005274999947,
                    "velocity": 0.4566929133858268,
                    "duration": 0.16666675000000453
                },
                {
                    "name": "D6",
                    "midi": 86,
                    "time": 105.83338624999948,
                    "velocity": 0.47244094488188976,
                    "duration": 0.16666675000000453
                },
                {
                    "name": "D6",
                    "midi": 86,
                    "time": 106.16671974999949,
                    "velocity": 0.48031496062992124,
                    "duration": 0.16666675000000453
                },
                {
                    "name": "D6",
                    "midi": 86,
                    "time": 106.5000532499995,
                    "velocity": 0.49606299212598426,
                    "duration": 0.16666675000000453
                },
                {
                    "name": "C6",
                    "midi": 84,
                    "time": 106.6667199999995,
                    "velocity": 0.5039370078740157,
                    "duration": 0.11111116666666021
                },
                {
                    "name": "D6",
                    "midi": 86,
                    "time": 106.77783116666616,
                    "velocity": 0.4409448818897638,
                    "duration": 0.11111116666666021
                },
                {
                    "name": "C6",
                    "midi": 84,
                    "time": 106.88894233333282,
                    "velocity": 0.4409448818897638,
                    "duration": 0.11111116666666021
                },
                {
                    "name": "B5",
                    "midi": 83,
                    "time": 107.00005349999948,
                    "velocity": 0.5196850393700787,
                    "duration": 0.33333349999999484
                },
                {
                    "name": "A5",
                    "midi": 81,
                    "time": 107.33338699999948,
                    "velocity": 0.4645669291338583,
                    "duration": 0.11111116666666021
                },
                {
                    "name": "B5",
                    "midi": 83,
                    "time": 107.44449816666614,
                    "velocity": 0.4015748031496063,
                    "duration": 0.11111116666666021
                },
                {
                    "name": "A5",
                    "midi": 81,
                    "time": 107.5556093333328,
                    "velocity": 0.4015748031496063,
                    "duration": 0.11111116666666021
                },
                {
                    "name": "G5",
                    "midi": 79,
                    "time": 107.66672049999946,
                    "velocity": 0.4645669291338583,
                    "duration": 0.33333349999999484
                },
                {
                    "name": "F#5",
                    "midi": 78,
                    "time": 108.00005399999945,
                    "velocity": 0.47244094488188976,
                    "duration": 0.11111116666666021
                },
                {
                    "name": "E5",
                    "midi": 76,
                    "time": 108.11116516666611,
                    "velocity": 0.4015748031496063,
                    "duration": 0.11111116666666021
                },
                {
                    "name": "D5",
                    "midi": 74,
                    "time": 108.22227633333277,
                    "velocity": 0.4015748031496063,
                    "duration": 0.11111116666666021
                },
                {
                    "name": "G5",
                    "midi": 79,
                    "time": 108.33338749999943,
                    "velocity": 0.48031496062992124,
                    "duration": 0.33333349999999484
                },
                {
                    "name": "C6",
                    "midi": 84,
                    "time": 108.83338774999943,
                    "velocity": 0.5275590551181102,
                    "duration": 0.16666675000000453
                },
                {
                    "name": "C6",
                    "midi": 84,
                    "time": 109.16672124999944,
                    "velocity": 0.5354330708661418,
                    "duration": 0.16666675000000453
                },
                {
                    "name": "C6",
                    "midi": 84,
                    "time": 109.50005474999945,
                    "velocity": 0.5511811023622047,
                    "duration": 0.16666675000000453
                },
                {
                    "name": "C6",
                    "midi": 84,
                    "time": 109.83338824999946,
                    "velocity": 0.5669291338582677,
                    "duration": 0.16666675000000453
                },
                {
                    "name": "C6",
                    "midi": 84,
                    "time": 110.16672174999947,
                    "velocity": 0.5748031496062992,
                    "duration": 0.16666675000000453
                },
                {
                    "name": "C6",
                    "midi": 84,
                    "time": 110.50005524999948,
                    "velocity": 0.5354330708661418,
                    "duration": 0.16666675000000453
                },
                {
                    "name": "B5",
                    "midi": 83,
                    "time": 110.66672199999948,
                    "velocity": 0.5826771653543307,
                    "duration": 0.11111116666666021
                },
                {
                    "name": "A5",
                    "midi": 81,
                    "time": 110.77783316666614,
                    "velocity": 0.5118110236220472,
                    "duration": 0.11111116666666021
                },
                {
                    "name": "G5",
                    "midi": 79,
                    "time": 110.8889443333328,
                    "velocity": 0.5118110236220472,
                    "duration": 0.11111116666666021
                },
                {
                    "name": "F#5",
                    "midi": 78,
                    "time": 111.00005549999946,
                    "velocity": 0.5433070866141733,
                    "duration": 0.11111116666666021
                },
                {
                    "name": "E5",
                    "midi": 76,
                    "time": 111.11116666666612,
                    "velocity": 0.4645669291338583,
                    "duration": 0.11111116666666021
                },
                {
                    "name": "D5",
                    "midi": 74,
                    "time": 111.22227783333278,
                    "velocity": 0.4645669291338583,
                    "duration": 0.11111116666666021
                },
                {
                    "name": "A5",
                    "midi": 81,
                    "time": 111.33338899999944,
                    "velocity": 0.5118110236220472,
                    "duration": 0.11111116666666021
                },
                {
                    "name": "B5",
                    "midi": 83,
                    "time": 111.4445001666661,
                    "velocity": 0.4409448818897638,
                    "duration": 0.11111116666666021
                },
                {
                    "name": "A5",
                    "midi": 81,
                    "time": 111.55561133333276,
                    "velocity": 0.4409448818897638,
                    "duration": 0.11111116666666021
                },
                {
                    "name": "B5",
                    "midi": 83,
                    "time": 111.66672249999942,
                    "velocity": 0.4645669291338583,
                    "duration": 0.08333337499999516
                },
                {
                    "name": "A5",
                    "midi": 81,
                    "time": 111.75005587499942,
                    "velocity": 0.41732283464566927,
                    "duration": 0.08333337499999516
                },
                {
                    "name": "G5",
                    "midi": 79,
                    "time": 111.83338924999941,
                    "velocity": 0.4645669291338583,
                    "duration": 0.08333337499999516
                },
                {
                    "name": "A5",
                    "midi": 81,
                    "time": 111.91672262499941,
                    "velocity": 0.4251968503937008,
                    "duration": 0.08333337499999516
                },
                {
                    "name": "G5",
                    "midi": 79,
                    "time": 112.0000559999994,
                    "velocity": 0.4645669291338583,
                    "duration": 0.33333349999999484
                },
                {
                    "name": "G5",
                    "midi": 79,
                    "time": 112.3333894999994,
                    "velocity": 0.5354330708661418,
                    "duration": 0.33333349999999484
                },
                {
                    "name": "F#5",
                    "midi": 78,
                    "time": 112.6667229999994,
                    "velocity": 0.49606299212598426,
                    "duration": 0.33333349999999484
                },
                {
                    "name": "E5",
                    "midi": 76,
                    "time": 113.00005649999939,
                    "velocity": 0.49606299212598426,
                    "duration": 0.33333349999999484
                },
                {
                    "name": "D5",
                    "midi": 74,
                    "time": 113.33338999999938,
                    "velocity": 0.5511811023622047,
                    "duration": 0.33333349999999484
                },
                {
                    "name": "E5",
                    "midi": 76,
                    "time": 113.66672349999938,
                    "velocity": 0.5511811023622047,
                    "duration": 0.11111116666666021
                },
                {
                    "name": "D5",
                    "midi": 74,
                    "time": 113.77783466666604,
                    "velocity": 0.5118110236220472,
                    "duration": 0.11111116666666021
                },
                {
                    "name": "C5",
                    "midi": 72,
                    "time": 113.8889458333327,
                    "velocity": 0.5118110236220472,
                    "duration": 0.11111116666666021
                },
                {
                    "name": "B4",
                    "midi": 71,
                    "time": 114.00005699999936,
                    "velocity": 0.5748031496062992,
                    "duration": 0.33333349999999484
                },
                {
                    "name": "A4",
                    "midi": 69,
                    "time": 114.33339049999935,
                    "velocity": 0.5748031496062992,
                    "duration": 0.06666669999999897
                },
                {
                    "name": "B4",
                    "midi": 71,
                    "time": 114.40005719999935,
                    "velocity": 0.5196850393700787,
                    "duration": 0.06666669999999897
                },
                {
                    "name": "A4",
                    "midi": 69,
                    "time": 114.46672389999935,
                    "velocity": 0.5275590551181102,
                    "duration": 0.06666669999999897
                },
                {
                    "name": "G4",
                    "midi": 67,
                    "time": 114.53339059999935,
                    "velocity": 0.5275590551181102,
                    "duration": 0.06666669999999897
                },
                {
                    "name": "A4",
                    "midi": 69,
                    "time": 114.60005729999935,
                    "velocity": 0.5275590551181102,
                    "duration": 0.06666669999999897
                },
                {
                    "name": "G4",
                    "midi": 67,
                    "time": 114.66672399999935,
                    "velocity": 0.5984251968503937,
                    "duration": 0.33333349999999484
                },
                {
                    "name": "G5",
                    "midi": 79,
                    "time": 115.00005749999934,
                    "velocity": 0.33858267716535434,
                    "duration": 0.33333349999999484
                },
                {
                    "name": "F#5",
                    "midi": 78,
                    "time": 115.33339099999934,
                    "velocity": 0.33070866141732286,
                    "duration": 0.33333349999999484
                },
                {
                    "name": "E5",
                    "midi": 76,
                    "time": 115.66672449999933,
                    "velocity": 0.3228346456692913,
                    "duration": 0.33333349999999484
                },
                {
                    "name": "D5",
                    "midi": 74,
                    "time": 116.00005799999933,
                    "velocity": 0.3464566929133858,
                    "duration": 0.33333349999999484
                },
                {
                    "name": "E5",
                    "midi": 76,
                    "time": 116.33339149999932,
                    "velocity": 0.3858267716535433,
                    "duration": 0.11111116666666021
                },
                {
                    "name": "D5",
                    "midi": 74,
                    "time": 116.44450266666598,
                    "velocity": 0.3543307086614173,
                    "duration": 0.11111116666666021
                },
                {
                    "name": "C5",
                    "midi": 72,
                    "time": 116.55561383333264,
                    "velocity": 0.3543307086614173,
                    "duration": 0.11111116666666021
                },
                {
                    "name": "B4",
                    "midi": 71,
                    "time": 116.6667249999993,
                    "velocity": 0.4094488188976378,
                    "duration": 0.33333349999999484
                },
                {
                    "name": "A4",
                    "midi": 69,
                    "time": 117.0000584999993,
                    "velocity": 0.4015748031496063,
                    "duration": 0.06666669999999897
                },
                {
                    "name": "B4",
                    "midi": 71,
                    "time": 117.0667251999993,
                    "velocity": 0.36220472440944884,
                    "duration": 0.06666669999999897
                },
                {
                    "name": "A4",
                    "midi": 69,
                    "time": 117.1333918999993,
                    "velocity": 0.36220472440944884,
                    "duration": 0.06666669999999897
                },
                {
                    "name": "G4",
                    "midi": 67,
                    "time": 117.2000585999993,
                    "velocity": 0.36220472440944884,
                    "duration": 0.06666669999999897
                },
                {
                    "name": "A4",
                    "midi": 69,
                    "time": 117.2667252999993,
                    "velocity": 0.36220472440944884,
                    "duration": 0.06666669999999897
                },
                {
                    "name": "G4",
                    "midi": 67,
                    "time": 117.3333919999993,
                    "velocity": 0.41732283464566927,
                    "duration": 0.6666670000000039
                }
            ],
            "controlChanges": {},
            "id": 1,
            "name": "Piano right",
            "instrumentNumber": 0,
            "instrument": "acoustic grand piano",
            "instrumentFamily": "piano",
            "channelNumber": 0,
            "isPercussion": false
        },
        {
            "startTime": 1.333334,
            "duration": 118.16672575000005,
            "length": 354,
            "notes": [
                {
                    "name": "G3",
                    "midi": 55,
                    "time": 1.333334,
                    "velocity": 0.4094488188976378,
                    "duration": 0.6666670000000001
                },
                {
                    "name": "B3",
                    "midi": 59,
                    "time": 1.333334,
                    "velocity": 0.4881889763779528,
                    "duration": 0.6666670000000001
                },
                {
                    "name": "G3",
                    "midi": 55,
                    "time": 3.0000015,
                    "velocity": 0.3700787401574803,
                    "duration": 0.33333350000000017
                },
                {
                    "name": "B3",
                    "midi": 59,
                    "time": 3.0000015,
                    "velocity": 0.4409448818897638,
                    "duration": 0.33333350000000017
                },
                {
                    "name": "G3",
                    "midi": 55,
                    "time": 3.3333350000000004,
                    "velocity": 0.4094488188976378,
                    "duration": 0.6666669999999999
                },
                {
                    "name": "B3",
                    "midi": 59,
                    "time": 3.3333350000000004,
                    "velocity": 0.4881889763779528,
                    "duration": 0.6666669999999999
                },
                {
                    "name": "G3",
                    "midi": 55,
                    "time": 4.3333355000000005,
                    "velocity": 0.3700787401574803,
                    "duration": 0.33333350000000017
                },
                {
                    "name": "B3",
                    "midi": 59,
                    "time": 4.3333355000000005,
                    "velocity": 0.4409448818897638,
                    "duration": 0.33333350000000017
                },
                {
                    "name": "G3",
                    "midi": 55,
                    "time": 4.666669000000001,
                    "velocity": 0.4094488188976378,
                    "duration": 0.6666670000000003
                },
                {
                    "name": "B3",
                    "midi": 59,
                    "time": 4.666669000000001,
                    "velocity": 0.4881889763779528,
                    "duration": 0.6666670000000003
                },
                {
                    "name": "G3",
                    "midi": 55,
                    "time": 5.666669500000001,
                    "velocity": 0.3700787401574803,
                    "duration": 0.33333350000000017
                },
                {
                    "name": "B3",
                    "midi": 59,
                    "time": 5.666669500000001,
                    "velocity": 0.4409448818897638,
                    "duration": 0.33333350000000017
                },
                {
                    "name": "G3",
                    "midi": 55,
                    "time": 6.000003000000001,
                    "velocity": 0.4094488188976378,
                    "duration": 0.6666670000000003
                },
                {
                    "name": "B3",
                    "midi": 59,
                    "time": 6.000003000000001,
                    "velocity": 0.4881889763779528,
                    "duration": 0.6666670000000003
                },
                {
                    "name": "C3",
                    "midi": 48,
                    "time": 6.666670000000002,
                    "velocity": 0.4094488188976378,
                    "duration": 0.6666670000000003
                },
                {
                    "name": "C4",
                    "midi": 60,
                    "time": 6.666670000000002,
                    "velocity": 0.4881889763779528,
                    "duration": 0.6666670000000003
                },
                {
                    "name": "B2",
                    "midi": 47,
                    "time": 7.333337000000002,
                    "velocity": 0.4094488188976378,
                    "duration": 0.6666670000000003
                },
                {
                    "name": "B3",
                    "midi": 59,
                    "time": 7.333337000000002,
                    "velocity": 0.4881889763779528,
                    "duration": 0.6666670000000003
                },
                {
                    "name": "A3",
                    "midi": 57,
                    "time": 8.000004000000002,
                    "velocity": 0.4094488188976378,
                    "duration": 0.33333350000000017
                },
                {
                    "name": "D3",
                    "midi": 50,
                    "time": 8.333337500000003,
                    "velocity": 0.3464566929133858,
                    "duration": 0.33333350000000017
                },
                {
                    "name": "G3",
                    "midi": 55,
                    "time": 8.666671000000003,
                    "velocity": 0.4094488188976378,
                    "duration": 0.6666670000000003
                },
                {
                    "name": "C3",
                    "midi": 48,
                    "time": 9.333338000000003,
                    "velocity": 0.4094488188976378,
                    "duration": 1.0000005000000005
                },
                {
                    "name": "C#3",
                    "midi": 49,
                    "time": 10.333338500000004,
                    "velocity": 0.3700787401574803,
                    "duration": 0.33333350000000017
                },
                {
                    "name": "D3",
                    "midi": 50,
                    "time": 10.666672000000004,
                    "velocity": 0.4015748031496063,
                    "duration": 0.33333350000000017
                },
                {
                    "name": "D2",
                    "midi": 38,
                    "time": 11.000005500000004,
                    "velocity": 0.36220472440944884,
                    "duration": 0.33333350000000017
                },
                {
                    "name": "D3",
                    "midi": 50,
                    "time": 11.333339000000004,
                    "velocity": 0.4015748031496063,
                    "duration": 0.1666667499999992
                },
                {
                    "name": "F#3",
                    "midi": 54,
                    "time": 11.666672500000002,
                    "velocity": 0.36220472440944884,
                    "duration": 0.1666667499999992
                },
                {
                    "name": "A3",
                    "midi": 57,
                    "time": 12.000006,
                    "velocity": 0.3700787401574803,
                    "duration": 0.1666667499999992
                },
                {
                    "name": "D4",
                    "midi": 62,
                    "time": 12.3333395,
                    "velocity": 0.4015748031496063,
                    "duration": 0.1666667499999992
                },
                {
                    "name": "F#4",
                    "midi": 66,
                    "time": 12.666672999999998,
                    "velocity": 0.4409448818897638,
                    "duration": 0.1666667499999992
                },
                {
                    "name": "D4",
                    "midi": 62,
                    "time": 13.000006499999996,
                    "velocity": 0.3937007874015748,
                    "duration": 0.1666667499999992
                },
                {
                    "name": "E4",
                    "midi": 64,
                    "time": 13.333339999999994,
                    "velocity": 0.4566929133858268,
                    "duration": 0.33333350000000017
                },
                {
                    "name": "D4",
                    "midi": 62,
                    "time": 13.666673499999995,
                    "velocity": 0.4015748031496063,
                    "duration": 0.33333350000000017
                },
                {
                    "name": "G4",
                    "midi": 67,
                    "time": 14.000006999999995,
                    "velocity": 0.4566929133858268,
                    "duration": 0.33333350000000017
                },
                {
                    "name": "F#4",
                    "midi": 66,
                    "time": 14.333340499999995,
                    "velocity": 0.4094488188976378,
                    "duration": 0.33333350000000017
                },
                {
                    "name": "E4",
                    "midi": 64,
                    "time": 14.666673999999995,
                    "velocity": 0.44881889763779526,
                    "duration": 0.33333350000000017
                },
                {
                    "name": "F#4",
                    "midi": 66,
                    "time": 15.000007499999995,
                    "velocity": 0.4015748031496063,
                    "duration": 0.33333350000000017
                },
                {
                    "name": "A2",
                    "midi": 45,
                    "time": 15.333340999999995,
                    "velocity": 0.4015748031496063,
                    "duration": 0.1666667499999992
                },
                {
                    "name": "C#3",
                    "midi": 49,
                    "time": 15.666674499999994,
                    "velocity": 0.36220472440944884,
                    "duration": 0.1666667499999992
                },
                {
                    "name": "E3",
                    "midi": 52,
                    "time": 16.000007999999994,
                    "velocity": 0.3700787401574803,
                    "duration": 0.16666675000000097
                },
                {
                    "name": "A3",
                    "midi": 57,
                    "time": 16.333341499999996,
                    "velocity": 0.4015748031496063,
                    "duration": 0.16666675000000097
                },
                {
                    "name": "C#4",
                    "midi": 61,
                    "time": 16.666674999999998,
                    "velocity": 0.4409448818897638,
                    "duration": 0.16666675000000097
                },
                {
                    "name": "E4",
                    "midi": 64,
                    "time": 17.0000085,
                    "velocity": 0.3937007874015748,
                    "duration": 0.16666675000000097
                },
                {
                    "name": "D4",
                    "midi": 62,
                    "time": 17.333342000000002,
                    "velocity": 0.4566929133858268,
                    "duration": 0.6666670000000003
                },
                {
                    "name": "D4",
                    "midi": 62,
                    "time": 18.000009000000002,
                    "velocity": 0.4566929133858268,
                    "duration": 0.3333334999999984
                },
                {
                    "name": "C#4",
                    "midi": 61,
                    "time": 18.3333425,
                    "velocity": 0.4094488188976378,
                    "duration": 0.3333334999999984
                },
                {
                    "name": "D4",
                    "midi": 62,
                    "time": 18.666676,
                    "velocity": 0.4566929133858268,
                    "duration": 0.3333334999999984
                },
                {
                    "name": "B3",
                    "midi": 59,
                    "time": 19.000009499999997,
                    "velocity": 0.4330708661417323,
                    "duration": 0.16666675000000097
                },
                {
                    "name": "D4",
                    "midi": 62,
                    "time": 19.16667625,
                    "velocity": 0.3464566929133858,
                    "duration": 0.16666675000000097
                },
                {
                    "name": "A3",
                    "midi": 57,
                    "time": 19.333343,
                    "velocity": 0.4251968503937008,
                    "duration": 0.16666675000000097
                },
                {
                    "name": "D4",
                    "midi": 62,
                    "time": 19.50000975,
                    "velocity": 0.3937007874015748,
                    "duration": 0.16666675000000097
                },
                {
                    "name": "G3",
                    "midi": 55,
                    "time": 19.6666765,
                    "velocity": 0.4330708661417323,
                    "duration": 0.16666675000000097
                },
                {
                    "name": "D4",
                    "midi": 62,
                    "time": 19.833343250000002,
                    "velocity": 0.3700787401574803,
                    "duration": 0.16666675000000097
                },
                {
                    "name": "F#3",
                    "midi": 54,
                    "time": 20.000010000000003,
                    "velocity": 0.4330708661417323,
                    "duration": 0.3333334999999984
                },
                {
                    "name": "G3",
                    "midi": 55,
                    "time": 20.3333435,
                    "velocity": 0.4015748031496063,
                    "duration": 0.3333334999999984
                },
                {
                    "name": "A3",
                    "midi": 57,
                    "time": 20.666677,
                    "velocity": 0.44881889763779526,
                    "duration": 0.3333334999999984
                },
                {
                    "name": "A2",
                    "midi": 45,
                    "time": 21.0000105,
                    "velocity": 0.4330708661417323,
                    "duration": 0.3333334999999984
                },
                {
                    "name": "D3",
                    "midi": 50,
                    "time": 21.333343999999997,
                    "velocity": 0.4645669291338583,
                    "duration": 0.16666675000000097
                },
                {
                    "name": "A2",
                    "midi": 45,
                    "time": 21.6666775,
                    "velocity": 0.4251968503937008,
                    "duration": 0.16666675000000097
                },
                {
                    "name": "D2",
                    "midi": 38,
                    "time": 22.000011,
                    "velocity": 0.3937007874015748,
                    "duration": 0.16666675000000097
                },
                {
                    "name": "G3",
                    "midi": 55,
                    "time": 22.666678,
                    "velocity": 0.4094488188976378,
                    "duration": 0.6666670000000003
                },
                {
                    "name": "B3",
                    "midi": 59,
                    "time": 22.666678,
                    "velocity": 0.4881889763779528,
                    "duration": 0.6666670000000003
                },
                {
                    "name": "G3",
                    "midi": 55,
                    "time": 24.3333455,
                    "velocity": 0.3700787401574803,
                    "duration": 0.3333334999999984
                },
                {
                    "name": "B3",
                    "midi": 59,
                    "time": 24.3333455,
                    "velocity": 0.4409448818897638,
                    "duration": 0.3333334999999984
                },
                {
                    "name": "G3",
                    "midi": 55,
                    "time": 24.666679,
                    "velocity": 0.4094488188976378,
                    "duration": 0.6666670000000003
                },
                {
                    "name": "B3",
                    "midi": 59,
                    "time": 24.666679,
                    "velocity": 0.4881889763779528,
                    "duration": 0.6666670000000003
                },
                {
                    "name": "G3",
                    "midi": 55,
                    "time": 25.666679499999997,
                    "velocity": 0.3700787401574803,
                    "duration": 0.3333334999999984
                },
                {
                    "name": "B3",
                    "midi": 59,
                    "time": 25.666679499999997,
                    "velocity": 0.4409448818897638,
                    "duration": 0.3333334999999984
                },
                {
                    "name": "G3",
                    "midi": 55,
                    "time": 26.000012999999996,
                    "velocity": 0.4094488188976378,
                    "duration": 0.6666670000000003
                },
                {
                    "name": "B3",
                    "midi": 59,
                    "time": 26.000012999999996,
                    "velocity": 0.4881889763779528,
                    "duration": 0.6666670000000003
                },
                {
                    "name": "G3",
                    "midi": 55,
                    "time": 27.000013499999994,
                    "velocity": 0.3700787401574803,
                    "duration": 0.3333334999999984
                },
                {
                    "name": "B3",
                    "midi": 59,
                    "time": 27.000013499999994,
                    "velocity": 0.4409448818897638,
                    "duration": 0.3333334999999984
                },
                {
                    "name": "G3",
                    "midi": 55,
                    "time": 27.333346999999993,
                    "velocity": 0.4094488188976378,
                    "duration": 0.6666670000000003
                },
                {
                    "name": "B3",
                    "midi": 59,
                    "time": 27.333346999999993,
                    "velocity": 0.4881889763779528,
                    "duration": 0.6666670000000003
                },
                {
                    "name": "C3",
                    "midi": 48,
                    "time": 28.000013999999993,
                    "velocity": 0.4094488188976378,
                    "duration": 0.6666670000000003
                },
                {
                    "name": "C4",
                    "midi": 60,
                    "time": 28.000013999999993,
                    "velocity": 0.4881889763779528,
                    "duration": 0.6666670000000003
                },
                {
                    "name": "B2",
                    "midi": 47,
                    "time": 28.666680999999993,
                    "velocity": 0.4094488188976378,
                    "duration": 0.6666670000000003
                },
                {
                    "name": "B3",
                    "midi": 59,
                    "time": 28.666680999999993,
                    "velocity": 0.4881889763779528,
                    "duration": 0.6666670000000003
                },
                {
                    "name": "A3",
                    "midi": 57,
                    "time": 29.333347999999994,
                    "velocity": 0.4094488188976378,
                    "duration": 0.3333334999999984
                },
                {
                    "name": "D3",
                    "midi": 50,
                    "time": 29.666681499999992,
                    "velocity": 0.3464566929133858,
                    "duration": 0.3333334999999984
                },
                {
                    "name": "G3",
                    "midi": 55,
                    "time": 30.00001499999999,
                    "velocity": 0.4094488188976378,
                    "duration": 0.6666670000000003
                },
                {
                    "name": "C3",
                    "midi": 48,
                    "time": 30.66668199999999,
                    "velocity": 0.4094488188976378,
                    "duration": 1.0000004999999987
                },
                {
                    "name": "C#3",
                    "midi": 49,
                    "time": 31.66668249999999,
                    "velocity": 0.3700787401574803,
                    "duration": 0.3333334999999984
                },
                {
                    "name": "D3",
                    "midi": 50,
                    "time": 32.00001599999999,
                    "velocity": 0.4015748031496063,
                    "duration": 0.33333350000000195
                },
                {
                    "name": "D2",
                    "midi": 38,
                    "time": 32.33334949999999,
                    "velocity": 0.36220472440944884,
                    "duration": 0.33333350000000195
                },
                {
                    "name": "D3",
                    "midi": 50,
                    "time": 32.66668299999999,
                    "velocity": 0.4015748031496063,
                    "duration": 0.16666674999999742
                },
                {
                    "name": "F#3",
                    "midi": 54,
                    "time": 33.00001649999999,
                    "velocity": 0.36220472440944884,
                    "duration": 0.16666674999999742
                },
                {
                    "name": "A3",
                    "midi": 57,
                    "time": 33.33334999999998,
                    "velocity": 0.3700787401574803,
                    "duration": 0.16666674999999742
                },
                {
                    "name": "D4",
                    "midi": 62,
                    "time": 33.66668349999998,
                    "velocity": 0.4015748031496063,
                    "duration": 0.16666674999999742
                },
                {
                    "name": "F#4",
                    "midi": 66,
                    "time": 34.00001699999997,
                    "velocity": 0.4409448818897638,
                    "duration": 0.16666674999999742
                },
                {
                    "name": "D4",
                    "midi": 62,
                    "time": 34.333350499999966,
                    "velocity": 0.3937007874015748,
                    "duration": 0.16666674999999742
                },
                {
                    "name": "E4",
                    "midi": 64,
                    "time": 34.66668399999996,
                    "velocity": 0.4566929133858268,
                    "duration": 0.33333350000000195
                },
                {
                    "name": "D4",
                    "midi": 62,
                    "time": 35.00001749999996,
                    "velocity": 0.4015748031496063,
                    "duration": 0.33333350000000195
                },
                {
                    "name": "G4",
                    "midi": 67,
                    "time": 35.333350999999965,
                    "velocity": 0.4566929133858268,
                    "duration": 0.33333350000000195
                },
                {
                    "name": "F#4",
                    "midi": 66,
                    "time": 35.66668449999997,
                    "velocity": 0.4094488188976378,
                    "duration": 0.33333350000000195
                },
                {
                    "name": "E4",
                    "midi": 64,
                    "time": 36.00001799999997,
                    "velocity": 0.44881889763779526,
                    "duration": 0.33333350000000195
                },
                {
                    "name": "F#4",
                    "midi": 66,
                    "time": 36.33335149999997,
                    "velocity": 0.4015748031496063,
                    "duration": 0.33333350000000195
                },
                {
                    "name": "A2",
                    "midi": 45,
                    "time": 36.66668499999997,
                    "velocity": 0.4015748031496063,
                    "duration": 0.16666674999999742
                },
                {
                    "name": "C#3",
                    "midi": 49,
                    "time": 37.00001849999997,
                    "velocity": 0.36220472440944884,
                    "duration": 0.16666674999999742
                },
                {
                    "name": "E3",
                    "midi": 52,
                    "time": 37.33335199999996,
                    "velocity": 0.3700787401574803,
                    "duration": 0.16666674999999742
                },
                {
                    "name": "A3",
                    "midi": 57,
                    "time": 37.66668549999996,
                    "velocity": 0.4015748031496063,
                    "duration": 0.16666674999999742
                },
                {
                    "name": "C#4",
                    "midi": 61,
                    "time": 38.00001899999995,
                    "velocity": 0.4409448818897638,
                    "duration": 0.16666674999999742
                },
                {
                    "name": "E4",
                    "midi": 64,
                    "time": 38.33335249999995,
                    "velocity": 0.3937007874015748,
                    "duration": 0.16666674999999742
                },
                {
                    "name": "D4",
                    "midi": 62,
                    "time": 38.66668599999994,
                    "velocity": 0.4566929133858268,
                    "duration": 0.6666669999999968
                },
                {
                    "name": "D4",
                    "midi": 62,
                    "time": 39.33335299999994,
                    "velocity": 0.4566929133858268,
                    "duration": 0.33333350000000195
                },
                {
                    "name": "C#4",
                    "midi": 61,
                    "time": 39.66668649999994,
                    "velocity": 0.4094488188976378,
                    "duration": 0.33333350000000195
                },
                {
                    "name": "D4",
                    "midi": 62,
                    "time": 40.00001999999994,
                    "velocity": 0.4566929133858268,
                    "duration": 0.33333350000000195
                },
                {
                    "name": "B3",
                    "midi": 59,
                    "time": 40.333353499999944,
                    "velocity": 0.4330708661417323,
                    "duration": 0.16666674999999742
                },
                {
                    "name": "D4",
                    "midi": 62,
                    "time": 40.50002024999994,
                    "velocity": 0.3464566929133858,
                    "duration": 0.16666674999999742
                },
                {
                    "name": "A3",
                    "midi": 57,
                    "time": 40.66668699999994,
                    "velocity": 0.4251968503937008,
                    "duration": 0.16666674999999742
                },
                {
                    "name": "D4",
                    "midi": 62,
                    "time": 40.83335374999994,
                    "velocity": 0.3937007874015748,
                    "duration": 0.16666674999999742
                },
                {
                    "name": "G3",
                    "midi": 55,
                    "time": 41.000020499999934,
                    "velocity": 0.4330708661417323,
                    "duration": 0.16666674999999742
                },
                {
                    "name": "D4",
                    "midi": 62,
                    "time": 41.16668724999993,
                    "velocity": 0.3700787401574803,
                    "duration": 0.16666674999999742
                },
                {
                    "name": "F#3",
                    "midi": 54,
                    "time": 41.33335399999993,
                    "velocity": 0.4330708661417323,
                    "duration": 0.33333350000000195
                },
                {
                    "name": "G3",
                    "midi": 55,
                    "time": 41.66668749999993,
                    "velocity": 0.4015748031496063,
                    "duration": 0.33333350000000195
                },
                {
                    "name": "A3",
                    "midi": 57,
                    "time": 42.00002099999993,
                    "velocity": 0.44881889763779526,
                    "duration": 0.33333350000000195
                },
                {
                    "name": "A2",
                    "midi": 45,
                    "time": 42.333354499999935,
                    "velocity": 0.4330708661417323,
                    "duration": 0.33333350000000195
                },
                {
                    "name": "D3",
                    "midi": 50,
                    "time": 42.66668799999994,
                    "velocity": 0.4645669291338583,
                    "duration": 0.16666674999999742
                },
                {
                    "name": "A2",
                    "midi": 45,
                    "time": 43.00002149999993,
                    "velocity": 0.4251968503937008,
                    "duration": 0.16666674999999742
                },
                {
                    "name": "D2",
                    "midi": 38,
                    "time": 43.333354999999926,
                    "velocity": 0.3937007874015748,
                    "duration": 0.16666674999999742
                },
                {
                    "name": "D4",
                    "midi": 62,
                    "time": 44.00002199999992,
                    "velocity": 0.3937007874015748,
                    "duration": 1.3333340000000078
                },
                {
                    "name": "F#4",
                    "midi": 66,
                    "time": 44.333355499999925,
                    "velocity": 0.33858267716535434,
                    "duration": 0.33333350000000195
                },
                {
                    "name": "A4",
                    "midi": 69,
                    "time": 44.66668899999993,
                    "velocity": 0.33858267716535434,
                    "duration": 0.33333350000000195
                },
                {
                    "name": "C5",
                    "midi": 72,
                    "time": 45.00002249999993,
                    "velocity": 0.33858267716535434,
                    "duration": 0.33333350000000195
                },
                {
                    "name": "B4",
                    "midi": 71,
                    "time": 45.33335599999993,
                    "velocity": 0.3937007874015748,
                    "duration": 0.33333350000000195
                },
                {
                    "name": "D4",
                    "midi": 62,
                    "time": 45.33335599999993,
                    "velocity": 0.3937007874015748,
                    "duration": 1.3333340000000078
                },
                {
                    "name": "G4",
                    "midi": 67,
                    "time": 45.66668949999993,
                    "velocity": 0.36220472440944884,
                    "duration": 0.33333350000000195
                },
                {
                    "name": "A4",
                    "midi": 69,
                    "time": 46.000022999999935,
                    "velocity": 0.36220472440944884,
                    "duration": 0.33333350000000195
                },
                {
                    "name": "F#4",
                    "midi": 66,
                    "time": 46.33335649999994,
                    "velocity": 0.36220472440944884,
                    "duration": 0.33333350000000195
                },
                {
                    "name": "D4",
                    "midi": 62,
                    "time": 46.66668999999994,
                    "velocity": 0.3937007874015748,
                    "duration": 1.0000005000000058
                },
                {
                    "name": "G4",
                    "midi": 67,
                    "time": 46.66668999999994,
                    "velocity": 0.3937007874015748,
                    "duration": 0.33333350000000195
                },
                {
                    "name": "A4",
                    "midi": 69,
                    "time": 47.00002349999994,
                    "velocity": 0.36220472440944884,
                    "duration": 0.33333350000000195
                },
                {
                    "name": "B4",
                    "midi": 71,
                    "time": 47.33335699999994,
                    "velocity": 0.3937007874015748,
                    "duration": 0.33333350000000195
                },
                {
                    "name": "D3",
                    "midi": 50,
                    "time": 48.33335749999994,
                    "velocity": 0.3543307086614173,
                    "duration": 0.16666674999999742
                },
                {
                    "name": "D4",
                    "midi": 62,
                    "time": 48.50002424999994,
                    "velocity": 0.30708661417322836,
                    "duration": 0.16666674999999742
                },
                {
                    "name": "E3",
                    "midi": 52,
                    "time": 48.666690999999936,
                    "velocity": 0.3779527559055118,
                    "duration": 0.16666674999999742
                },
                {
                    "name": "D4",
                    "midi": 62,
                    "time": 48.833357749999934,
                    "velocity": 0.3228346456692913,
                    "duration": 0.16666674999999742
                },
                {
                    "name": "F#3",
                    "midi": 54,
                    "time": 49.00002449999993,
                    "velocity": 0.3858267716535433,
                    "duration": 0.16666674999999742
                },
                {
                    "name": "D4",
                    "midi": 62,
                    "time": 49.16669124999993,
                    "velocity": 0.33858267716535434,
                    "duration": 0.16666674999999742
                },
                {
                    "name": "G3",
                    "midi": 55,
                    "time": 49.333357999999926,
                    "velocity": 0.4015748031496063,
                    "duration": 0.16666674999999742
                },
                {
                    "name": "D4",
                    "midi": 62,
                    "time": 49.50002474999992,
                    "velocity": 0.3543307086614173,
                    "duration": 0.16666674999999742
                },
                {
                    "name": "A3",
                    "midi": 57,
                    "time": 49.66669149999992,
                    "velocity": 0.41732283464566927,
                    "duration": 0.16666674999999742
                },
                {
                    "name": "D4",
                    "midi": 62,
                    "time": 49.83335824999992,
                    "velocity": 0.3543307086614173,
                    "duration": 0.16666674999999742
                },
                {
                    "name": "B3",
                    "midi": 59,
                    "time": 50.000024999999916,
                    "velocity": 0.3937007874015748,
                    "duration": 0.33333350000000195
                },
                {
                    "name": "G2",
                    "midi": 43,
                    "time": 51.000025499999914,
                    "velocity": 0.4015748031496063,
                    "duration": 0.16666674999999742
                },
                {
                    "name": "G3",
                    "midi": 55,
                    "time": 51.16669224999991,
                    "velocity": 0.3464566929133858,
                    "duration": 0.16666674999999742
                },
                {
                    "name": "A2",
                    "midi": 45,
                    "time": 51.33335899999991,
                    "velocity": 0.4330708661417323,
                    "duration": 0.16666674999999742
                },
                {
                    "name": "G3",
                    "midi": 55,
                    "time": 51.50002574999991,
                    "velocity": 0.3700787401574803,
                    "duration": 0.16666674999999742
                },
                {
                    "name": "B2",
                    "midi": 47,
                    "time": 51.666692499999904,
                    "velocity": 0.4409448818897638,
                    "duration": 0.16666674999999742
                },
                {
                    "name": "G3",
                    "midi": 55,
                    "time": 51.8333592499999,
                    "velocity": 0.3858267716535433,
                    "duration": 0.16666674999999742
                },
                {
                    "name": "C3",
                    "midi": 48,
                    "time": 52.0000259999999,
                    "velocity": 0.4566929133858268,
                    "duration": 0.16666674999999742
                },
                {
                    "name": "G3",
                    "midi": 55,
                    "time": 52.166692749999896,
                    "velocity": 0.4015748031496063,
                    "duration": 0.16666674999999742
                },
                {
                    "name": "D3",
                    "midi": 50,
                    "time": 52.333359499999894,
                    "velocity": 0.47244094488188976,
                    "duration": 0.16666674999999742
                },
                {
                    "name": "G3",
                    "midi": 55,
                    "time": 52.50002624999989,
                    "velocity": 0.4015748031496063,
                    "duration": 0.16666674999999742
                },
                {
                    "name": "E3",
                    "midi": 52,
                    "time": 52.66669299999989,
                    "velocity": 0.44881889763779526,
                    "duration": 0.33333350000000195
                },
                {
                    "name": "C4",
                    "midi": 60,
                    "time": 53.00002649999989,
                    "velocity": 0.4094488188976378,
                    "duration": 0.33333350000000195
                },
                {
                    "name": "B3",
                    "midi": 59,
                    "time": 53.33335999999989,
                    "velocity": 0.44881889763779526,
                    "duration": 0.33333350000000195
                },
                {
                    "name": "A3",
                    "midi": 57,
                    "time": 53.666693499999894,
                    "velocity": 0.3858267716535433,
                    "duration": 0.33333350000000195
                },
                {
                    "name": "G3",
                    "midi": 55,
                    "time": 54.000026999999896,
                    "velocity": 0.4251968503937008,
                    "duration": 0.33333350000000195
                },
                {
                    "name": "B3",
                    "midi": 59,
                    "time": 54.3333604999999,
                    "velocity": 0.3937007874015748,
                    "duration": 0.33333350000000195
                },
                {
                    "name": "C4",
                    "midi": 60,
                    "time": 54.6666939999999,
                    "velocity": 0.4251968503937008,
                    "duration": 1.0000004999999987
                },
                {
                    "name": "C#4",
                    "midi": 61,
                    "time": 55.6666944999999,
                    "velocity": 0.3779527559055118,
                    "duration": 0.16666674999999742
                },
                {
                    "name": "D4",
                    "midi": 62,
                    "time": 56.000027999999894,
                    "velocity": 0.4015748031496063,
                    "duration": 0.16666674999999742
                },
                {
                    "name": "A3",
                    "midi": 57,
                    "time": 56.33336149999989,
                    "velocity": 0.36220472440944884,
                    "duration": 0.16666674999999742
                },
                {
                    "name": "D3",
                    "midi": 50,
                    "time": 56.66669499999988,
                    "velocity": 0.36220472440944884,
                    "duration": 0.16666674999999742
                },
                {
                    "name": "G3",
                    "midi": 55,
                    "time": 57.33336199999988,
                    "velocity": 0.4881889763779528,
                    "duration": 0.6666669999999968
                },
                {
                    "name": "B3",
                    "midi": 59,
                    "time": 57.33336199999988,
                    "velocity": 0.4881889763779528,
                    "duration": 0.6666669999999968
                },
                {
                    "name": "G1",
                    "midi": 31,
                    "time": 59.000029499999876,
                    "velocity": 0.4409448818897638,
                    "duration": 0.33333350000000195
                },
                {
                    "name": "G2",
                    "midi": 43,
                    "time": 59.000029499999876,
                    "velocity": 0.5275590551181102,
                    "duration": 0.33333350000000195
                },
                {
                    "name": "G1",
                    "midi": 31,
                    "time": 59.33336299999988,
                    "velocity": 0.4881889763779528,
                    "duration": 0.6666669999999968
                },
                {
                    "name": "G2",
                    "midi": 43,
                    "time": 59.33336299999988,
                    "velocity": 0.5511811023622047,
                    "duration": 0.6666669999999968
                },
                {
                    "name": "G3",
                    "midi": 55,
                    "time": 60.33336349999988,
                    "velocity": 0.3700787401574803,
                    "duration": 0.33333350000000195
                },
                {
                    "name": "B3",
                    "midi": 59,
                    "time": 60.33336349999988,
                    "velocity": 0.4409448818897638,
                    "duration": 0.33333350000000195
                },
                {
                    "name": "G3",
                    "midi": 55,
                    "time": 60.66669699999988,
                    "velocity": 0.4094488188976378,
                    "duration": 0.6666669999999968
                },
                {
                    "name": "B3",
                    "midi": 59,
                    "time": 60.66669699999988,
                    "velocity": 0.4881889763779528,
                    "duration": 0.6666669999999968
                },
                {
                    "name": "G3",
                    "midi": 55,
                    "time": 61.66669749999988,
                    "velocity": 0.3700787401574803,
                    "duration": 0.33333350000000195
                },
                {
                    "name": "B3",
                    "midi": 59,
                    "time": 61.66669749999988,
                    "velocity": 0.4409448818897638,
                    "duration": 0.33333350000000195
                },
                {
                    "name": "G3",
                    "midi": 55,
                    "time": 62.00003099999988,
                    "velocity": 0.4094488188976378,
                    "duration": 0.6666669999999968
                },
                {
                    "name": "B3",
                    "midi": 59,
                    "time": 62.00003099999988,
                    "velocity": 0.4881889763779528,
                    "duration": 0.6666669999999968
                },
                {
                    "name": "C3",
                    "midi": 48,
                    "time": 62.666697999999876,
                    "velocity": 0.4094488188976378,
                    "duration": 0.6666669999999968
                },
                {
                    "name": "C4",
                    "midi": 60,
                    "time": 62.666697999999876,
                    "velocity": 0.4881889763779528,
                    "duration": 0.6666669999999968
                },
                {
                    "name": "B2",
                    "midi": 47,
                    "time": 63.33336499999987,
                    "velocity": 0.4094488188976378,
                    "duration": 0.6666670000000039
                },
                {
                    "name": "B3",
                    "midi": 59,
                    "time": 63.33336499999987,
                    "velocity": 0.4881889763779528,
                    "duration": 0.6666670000000039
                },
                {
                    "name": "A3",
                    "midi": 57,
                    "time": 64.00003199999988,
                    "velocity": 0.4094488188976378,
                    "duration": 0.33333349999999484
                },
                {
                    "name": "D3",
                    "midi": 50,
                    "time": 64.33336549999987,
                    "velocity": 0.3464566929133858,
                    "duration": 0.33333349999999484
                },
                {
                    "name": "G3",
                    "midi": 55,
                    "time": 64.66669899999987,
                    "velocity": 0.4094488188976378,
                    "duration": 0.6666670000000039
                },
                {
                    "name": "C4",
                    "midi": 60,
                    "time": 65.33336599999987,
                    "velocity": 0.4094488188976378,
                    "duration": 1.0000004999999987
                },
                {
                    "name": "C#4",
                    "midi": 61,
                    "time": 66.33336649999987,
                    "velocity": 0.3700787401574803,
                    "duration": 0.33333349999999484
                },
                {
                    "name": "D4",
                    "midi": 62,
                    "time": 66.66669999999986,
                    "velocity": 0.4015748031496063,
                    "duration": 0.33333349999999484
                },
                {
                    "name": "D3",
                    "midi": 50,
                    "time": 67.00003349999986,
                    "velocity": 0.36220472440944884,
                    "duration": 0.33333349999999484
                },
                {
                    "name": "G3",
                    "midi": 55,
                    "time": 67.33336699999985,
                    "velocity": 0.4015748031496063,
                    "duration": 0.16666675000000453
                },
                {
                    "name": "B3",
                    "midi": 59,
                    "time": 67.66670049999986,
                    "velocity": 0.36220472440944884,
                    "duration": 0.16666675000000453
                },
                {
                    "name": "D4",
                    "midi": 62,
                    "time": 68.00003399999987,
                    "velocity": 0.3700787401574803,
                    "duration": 0.16666675000000453
                },
                {
                    "name": "G4",
                    "midi": 67,
                    "time": 68.33336749999988,
                    "velocity": 0.4015748031496063,
                    "duration": 0.16666675000000453
                },
                {
                    "name": "B4",
                    "midi": 71,
                    "time": 68.66670099999989,
                    "velocity": 0.4409448818897638,
                    "duration": 0.16666675000000453
                },
                {
                    "name": "G4",
                    "midi": 67,
                    "time": 69.0000344999999,
                    "velocity": 0.3937007874015748,
                    "duration": 0.16666675000000453
                },
                {
                    "name": "A4",
                    "midi": 69,
                    "time": 69.33336799999991,
                    "velocity": 0.4566929133858268,
                    "duration": 0.33333349999999484
                },
                {
                    "name": "G4",
                    "midi": 67,
                    "time": 69.6667014999999,
                    "velocity": 0.4015748031496063,
                    "duration": 0.33333349999999484
                },
                {
                    "name": "C5",
                    "midi": 72,
                    "time": 70.0000349999999,
                    "velocity": 0.4566929133858268,
                    "duration": 0.33333349999999484
                },
                {
                    "name": "B4",
                    "midi": 71,
                    "time": 70.33336849999989,
                    "velocity": 0.4094488188976378,
                    "duration": 0.33333349999999484
                },
                {
                    "name": "A4",
                    "midi": 69,
                    "time": 70.66670199999989,
                    "velocity": 0.44881889763779526,
                    "duration": 0.33333349999999484
                },
                {
                    "name": "B4",
                    "midi": 71,
                    "time": 71.00003549999988,
                    "velocity": 0.4015748031496063,
                    "duration": 0.33333349999999484
                },
                {
                    "name": "D3",
                    "midi": 50,
                    "time": 71.33336899999988,
                    "velocity": 0.5433070866141733,
                    "duration": 0.16666675000000453
                },
                {
                    "name": "F#3",
                    "midi": 54,
                    "time": 71.66670249999989,
                    "velocity": 0.4645669291338583,
                    "duration": 0.16666675000000453
                },
                {
                    "name": "A3",
                    "midi": 57,
                    "time": 72.0000359999999,
                    "velocity": 0.5669291338582677,
                    "duration": 0.16666675000000453
                },
                {
                    "name": "D4",
                    "midi": 62,
                    "time": 72.3333694999999,
                    "velocity": 0.4881889763779528,
                    "duration": 0.16666675000000453
                },
                {
                    "name": "F#4",
                    "midi": 66,
                    "time": 72.66670299999991,
                    "velocity": 0.5590551181102362,
                    "duration": 0.16666675000000453
                },
                {
                    "name": "A4",
                    "midi": 69,
                    "time": 73.00003649999992,
                    "velocity": 0.5118110236220472,
                    "duration": 0.16666675000000453
                },
                {
                    "name": "G4",
                    "midi": 67,
                    "time": 73.33336999999993,
                    "velocity": 0.6299212598425197,
                    "duration": 0.6666670000000039
                },
                {
                    "name": "D4",
                    "midi": 62,
                    "time": 74.00003699999994,
                    "velocity": 0.4645669291338583,
                    "duration": 0.6666669999999897
                },
                {
                    "name": "G4",
                    "midi": 67,
                    "time": 74.00003699999994,
                    "velocity": 0.5275590551181102,
                    "duration": 0.33333349999999484
                },
                {
                    "name": "F#4",
                    "midi": 66,
                    "time": 74.33337049999993,
                    "velocity": 0.4094488188976378,
                    "duration": 0.33333349999999484
                },
                {
                    "name": "G4",
                    "midi": 67,
                    "time": 74.66670399999992,
                    "velocity": 0.4566929133858268,
                    "duration": 0.33333349999999484
                },
                {
                    "name": "E4",
                    "midi": 64,
                    "time": 75.00003749999992,
                    "velocity": 0.4330708661417323,
                    "duration": 0.16666675000000453
                },
                {
                    "name": "G4",
                    "midi": 67,
                    "time": 75.16670424999992,
                    "velocity": 0.3464566929133858,
                    "duration": 0.16666675000000453
                },
                {
                    "name": "D4",
                    "midi": 62,
                    "time": 75.33337099999993,
                    "velocity": 0.4251968503937008,
                    "duration": 0.16666675000000453
                },
                {
                    "name": "G4",
                    "midi": 67,
                    "time": 75.50003774999993,
                    "velocity": 0.3937007874015748,
                    "duration": 0.16666675000000453
                },
                {
                    "name": "C4",
                    "midi": 60,
                    "time": 75.66670449999994,
                    "velocity": 0.4330708661417323,
                    "duration": 0.16666675000000453
                },
                {
                    "name": "G4",
                    "midi": 67,
                    "time": 75.83337124999994,
                    "velocity": 0.3700787401574803,
                    "duration": 0.16666675000000453
                },
                {
                    "name": "B3",
                    "midi": 59,
                    "time": 76.00003799999995,
                    "velocity": 0.4330708661417323,
                    "duration": 0.33333349999999484
                },
                {
                    "name": "C4",
                    "midi": 60,
                    "time": 76.33337149999994,
                    "velocity": 0.4015748031496063,
                    "duration": 0.33333349999999484
                },
                {
                    "name": "D4",
                    "midi": 62,
                    "time": 76.66670499999994,
                    "velocity": 0.44881889763779526,
                    "duration": 0.33333349999999484
                },
                {
                    "name": "D3",
                    "midi": 50,
                    "time": 77.00003849999993,
                    "velocity": 0.4330708661417323,
                    "duration": 0.33333349999999484
                },
                {
                    "name": "G3",
                    "midi": 55,
                    "time": 77.33337199999993,
                    "velocity": 0.4645669291338583,
                    "duration": 0.33333349999999484
                },
                {
                    "name": "E4",
                    "midi": 64,
                    "time": 77.66670549999992,
                    "velocity": 0.2992125984251969,
                    "duration": 0.16666675000000453
                },
                {
                    "name": "G4",
                    "midi": 67,
                    "time": 77.83337224999993,
                    "velocity": 0.23622047244094488,
                    "duration": 0.16666675000000453
                },
                {
                    "name": "D4",
                    "midi": 62,
                    "time": 78.00003899999993,
                    "velocity": 0.29133858267716534,
                    "duration": 0.16666675000000453
                },
                {
                    "name": "G4",
                    "midi": 67,
                    "time": 78.16670574999993,
                    "velocity": 0.2755905511811024,
                    "duration": 0.16666675000000453
                },
                {
                    "name": "C4",
                    "midi": 60,
                    "time": 78.33337249999994,
                    "velocity": 0.2992125984251969,
                    "duration": 0.16666675000000453
                },
                {
                    "name": "G4",
                    "midi": 67,
                    "time": 78.50003924999994,
                    "velocity": 0.25196850393700787,
                    "duration": 0.16666675000000453
                },
                {
                    "name": "B3",
                    "midi": 59,
                    "time": 78.66670599999995,
                    "velocity": 0.2992125984251969,
                    "duration": 0.33333349999999484
                },
                {
                    "name": "C4",
                    "midi": 60,
                    "time": 79.00003949999994,
                    "velocity": 0.2755905511811024,
                    "duration": 0.33333349999999484
                },
                {
                    "name": "D4",
                    "midi": 62,
                    "time": 79.33337299999994,
                    "velocity": 0.30708661417322836,
                    "duration": 0.33333349999999484
                },
                {
                    "name": "D3",
                    "midi": 50,
                    "time": 79.66670649999993,
                    "velocity": 0.2992125984251969,
                    "duration": 0.33333349999999484
                },
                {
                    "name": "G3",
                    "midi": 55,
                    "time": 80.00003999999993,
                    "velocity": 0.3228346456692913,
                    "duration": 0.16666675000000453
                },
                {
                    "name": "D3",
                    "midi": 50,
                    "time": 80.33337349999994,
                    "velocity": 0.29133858267716534,
                    "duration": 0.16666675000000453
                },
                {
                    "name": "G2",
                    "midi": 43,
                    "time": 80.66670699999995,
                    "velocity": 0.33070866141732286,
                    "duration": 0.16666675000000453
                },
                {
                    "name": "D4",
                    "midi": 62,
                    "time": 81.33337399999995,
                    "velocity": 0.3937007874015748,
                    "duration": 1.3333339999999794
                },
                {
                    "name": "F#4",
                    "midi": 66,
                    "time": 81.66670749999994,
                    "velocity": 0.33858267716535434,
                    "duration": 0.33333349999999484
                },
                {
                    "name": "A4",
                    "midi": 69,
                    "time": 82.00004099999994,
                    "velocity": 0.33858267716535434,
                    "duration": 0.33333349999999484
                },
                {
                    "name": "C5",
                    "midi": 72,
                    "time": 82.33337449999993,
                    "velocity": 0.33858267716535434,
                    "duration": 0.33333349999999484
                },
                {
                    "name": "B4",
                    "midi": 71,
                    "time": 82.66670799999993,
                    "velocity": 0.3937007874015748,
                    "duration": 0.33333349999999484
                },
                {
                    "name": "D4",
                    "midi": 62,
                    "time": 82.66670799999993,
                    "velocity": 0.3937007874015748,
                    "duration": 1.3333339999999794
                },
                {
                    "name": "G4",
                    "midi": 67,
                    "time": 83.00004149999992,
                    "velocity": 0.36220472440944884,
                    "duration": 0.33333349999999484
                },
                {
                    "name": "A4",
                    "midi": 69,
                    "time": 83.33337499999992,
                    "velocity": 0.36220472440944884,
                    "duration": 0.33333349999999484
                },
                {
                    "name": "F#4",
                    "midi": 66,
                    "time": 83.66670849999991,
                    "velocity": 0.36220472440944884,
                    "duration": 0.33333349999999484
                },
                {
                    "name": "D4",
                    "midi": 62,
                    "time": 84.00004199999991,
                    "velocity": 0.3937007874015748,
                    "duration": 1.0000004999999845
                },
                {
                    "name": "G4",
                    "midi": 67,
                    "time": 84.00004199999991,
                    "velocity": 0.3937007874015748,
                    "duration": 0.33333349999999484
                },
                {
                    "name": "A4",
                    "midi": 69,
                    "time": 84.3333754999999,
                    "velocity": 0.36220472440944884,
                    "duration": 0.33333349999999484
                },
                {
                    "name": "B4",
                    "midi": 71,
                    "time": 84.6667089999999,
                    "velocity": 0.3937007874015748,
                    "duration": 0.33333349999999484
                },
                {
                    "name": "D3",
                    "midi": 50,
                    "time": 85.6667094999999,
                    "velocity": 0.3543307086614173,
                    "duration": 0.16666675000000453
                },
                {
                    "name": "D4",
                    "midi": 62,
                    "time": 85.8333762499999,
                    "velocity": 0.30708661417322836,
                    "duration": 0.16666675000000453
                },
                {
                    "name": "E3",
                    "midi": 52,
                    "time": 86.0000429999999,
                    "velocity": 0.3779527559055118,
                    "duration": 0.16666675000000453
                },
                {
                    "name": "D4",
                    "midi": 62,
                    "time": 86.16670974999991,
                    "velocity": 0.3228346456692913,
                    "duration": 0.16666675000000453
                },
                {
                    "name": "F#3",
                    "midi": 54,
                    "time": 86.33337649999991,
                    "velocity": 0.3858267716535433,
                    "duration": 0.16666675000000453
                },
                {
                    "name": "D4",
                    "midi": 62,
                    "time": 86.50004324999992,
                    "velocity": 0.33858267716535434,
                    "duration": 0.16666675000000453
                },
                {
                    "name": "G3",
                    "midi": 55,
                    "time": 86.66670999999992,
                    "velocity": 0.4015748031496063,
                    "duration": 0.16666675000000453
                },
                {
                    "name": "D4",
                    "midi": 62,
                    "time": 86.83337674999993,
                    "velocity": 0.3543307086614173,
                    "duration": 0.16666675000000453
                },
                {
                    "name": "A3",
                    "midi": 57,
                    "time": 87.00004349999993,
                    "velocity": 0.41732283464566927,
                    "duration": 0.16666675000000453
                },
                {
                    "name": "D4",
                    "midi": 62,
                    "time": 87.16671024999994,
                    "velocity": 0.3543307086614173,
                    "duration": 0.16666675000000453
                },
                {
                    "name": "B3",
                    "midi": 59,
                    "time": 87.33337699999994,
                    "velocity": 0.3937007874015748,
                    "duration": 0.33333349999999484
                },
                {
                    "name": "G2",
                    "midi": 43,
                    "time": 88.33337749999994,
                    "velocity": 0.4015748031496063,
                    "duration": 0.16666675000000453
                },
                {
                    "name": "G3",
                    "midi": 55,
                    "time": 88.50004424999995,
                    "velocity": 0.3464566929133858,
                    "duration": 0.16666675000000453
                },
                {
                    "name": "A2",
                    "midi": 45,
                    "time": 88.66671099999995,
                    "velocity": 0.4330708661417323,
                    "duration": 0.16666675000000453
                },
                {
                    "name": "G3",
                    "midi": 55,
                    "time": 88.83337774999995,
                    "velocity": 0.3700787401574803,
                    "duration": 0.16666675000000453
                },
                {
                    "name": "B2",
                    "midi": 47,
                    "time": 89.00004449999996,
                    "velocity": 0.4409448818897638,
                    "duration": 0.16666675000000453
                },
                {
                    "name": "G3",
                    "midi": 55,
                    "time": 89.16671124999996,
                    "velocity": 0.3858267716535433,
                    "duration": 0.16666675000000453
                },
                {
                    "name": "C3",
                    "midi": 48,
                    "time": 89.33337799999997,
                    "velocity": 0.4566929133858268,
                    "duration": 0.16666675000000453
                },
                {
                    "name": "G3",
                    "midi": 55,
                    "time": 89.50004474999997,
                    "velocity": 0.4015748031496063,
                    "duration": 0.16666675000000453
                },
                {
                    "name": "D3",
                    "midi": 50,
                    "time": 89.66671149999998,
                    "velocity": 0.47244094488188976,
                    "duration": 0.16666675000000453
                },
                {
                    "name": "G3",
                    "midi": 55,
                    "time": 89.83337824999998,
                    "velocity": 0.4015748031496063,
                    "duration": 0.16666675000000453
                },
                {
                    "name": "E3",
                    "midi": 52,
                    "time": 90.00004499999999,
                    "velocity": 0.44881889763779526,
                    "duration": 0.33333349999999484
                },
                {
                    "name": "C4",
                    "midi": 60,
                    "time": 90.33337849999998,
                    "velocity": 0.4094488188976378,
                    "duration": 0.33333349999999484
                },
                {
                    "name": "B3",
                    "midi": 59,
                    "time": 90.66671199999998,
                    "velocity": 0.44881889763779526,
                    "duration": 0.33333349999999484
                },
                {
                    "name": "A3",
                    "midi": 57,
                    "time": 91.00004549999997,
                    "velocity": 0.3858267716535433,
                    "duration": 0.33333349999999484
                },
                {
                    "name": "G3",
                    "midi": 55,
                    "time": 91.33337899999997,
                    "velocity": 0.4251968503937008,
                    "duration": 0.33333349999999484
                },
                {
                    "name": "B3",
                    "midi": 59,
                    "time": 91.66671249999996,
                    "velocity": 0.3937007874015748,
                    "duration": 0.33333349999999484
                },
                {
                    "name": "C4",
                    "midi": 60,
                    "time": 92.00004599999995,
                    "velocity": 0.4251968503937008,
                    "duration": 1.0000004999999987
                },
                {
                    "name": "C#4",
                    "midi": 61,
                    "time": 93.00004649999995,
                    "velocity": 0.3779527559055118,
                    "duration": 0.16666675000000453
                },
                {
                    "name": "D4",
                    "midi": 62,
                    "time": 93.33337999999996,
                    "velocity": 0.4015748031496063,
                    "duration": 0.16666675000000453
                },
                {
                    "name": "A3",
                    "midi": 57,
                    "time": 93.66671349999997,
                    "velocity": 0.36220472440944884,
                    "duration": 0.16666675000000453
                },
                {
                    "name": "D3",
                    "midi": 50,
                    "time": 94.00004699999998,
                    "velocity": 0.36220472440944884,
                    "duration": 0.16666675000000453
                },
                {
                    "name": "G3",
                    "midi": 55,
                    "time": 94.66671399999998,
                    "velocity": 0.4881889763779528,
                    "duration": 0.6666670000000039
                },
                {
                    "name": "B3",
                    "midi": 59,
                    "time": 94.66671399999998,
                    "velocity": 0.4881889763779528,
                    "duration": 0.6666670000000039
                },
                {
                    "name": "G1",
                    "midi": 31,
                    "time": 96.33338149999999,
                    "velocity": 0.4409448818897638,
                    "duration": 0.33333349999999484
                },
                {
                    "name": "G2",
                    "midi": 43,
                    "time": 96.33338149999999,
                    "velocity": 0.5275590551181102,
                    "duration": 0.33333349999999484
                },
                {
                    "name": "G1",
                    "midi": 31,
                    "time": 96.66671499999998,
                    "velocity": 0.4881889763779528,
                    "duration": 0.6666670000000039
                },
                {
                    "name": "G2",
                    "midi": 43,
                    "time": 96.66671499999998,
                    "velocity": 0.5511811023622047,
                    "duration": 0.6666670000000039
                },
                {
                    "name": "G3",
                    "midi": 55,
                    "time": 97.66671549999998,
                    "velocity": 0.3700787401574803,
                    "duration": 0.33333349999999484
                },
                {
                    "name": "B3",
                    "midi": 59,
                    "time": 97.66671549999998,
                    "velocity": 0.4409448818897638,
                    "duration": 0.33333349999999484
                },
                {
                    "name": "G3",
                    "midi": 55,
                    "time": 98.00004899999998,
                    "velocity": 0.4094488188976378,
                    "duration": 0.6666670000000039
                },
                {
                    "name": "B3",
                    "midi": 59,
                    "time": 98.00004899999998,
                    "velocity": 0.4881889763779528,
                    "duration": 0.6666670000000039
                },
                {
                    "name": "G3",
                    "midi": 55,
                    "time": 99.00004949999997,
                    "velocity": 0.3700787401574803,
                    "duration": 0.33333349999999484
                },
                {
                    "name": "B3",
                    "midi": 59,
                    "time": 99.00004949999997,
                    "velocity": 0.4409448818897638,
                    "duration": 0.33333349999999484
                },
                {
                    "name": "G3",
                    "midi": 55,
                    "time": 99.33338299999997,
                    "velocity": 0.4094488188976378,
                    "duration": 0.6666670000000039
                },
                {
                    "name": "B3",
                    "midi": 59,
                    "time": 99.33338299999997,
                    "velocity": 0.4881889763779528,
                    "duration": 0.6666670000000039
                },
                {
                    "name": "C3",
                    "midi": 48,
                    "time": 100.00004999999997,
                    "velocity": 0.4094488188976378,
                    "duration": 0.6666670000000039
                },
                {
                    "name": "C4",
                    "midi": 60,
                    "time": 100.00004999999997,
                    "velocity": 0.4881889763779528,
                    "duration": 0.6666670000000039
                },
                {
                    "name": "B2",
                    "midi": 47,
                    "time": 100.66671699999998,
                    "velocity": 0.4094488188976378,
                    "duration": 0.6666670000000039
                },
                {
                    "name": "B3",
                    "midi": 59,
                    "time": 100.66671699999998,
                    "velocity": 0.4881889763779528,
                    "duration": 0.6666670000000039
                },
                {
                    "name": "A3",
                    "midi": 57,
                    "time": 101.33338399999998,
                    "velocity": 0.4094488188976378,
                    "duration": 0.33333349999999484
                },
                {
                    "name": "D3",
                    "midi": 50,
                    "time": 101.66671749999998,
                    "velocity": 0.3464566929133858,
                    "duration": 0.33333349999999484
                },
                {
                    "name": "G3",
                    "midi": 55,
                    "time": 102.00005099999997,
                    "velocity": 0.4094488188976378,
                    "duration": 0.6666670000000039
                },
                {
                    "name": "C4",
                    "midi": 60,
                    "time": 102.66671799999997,
                    "velocity": 0.4094488188976378,
                    "duration": 1.0000004999999987
                },
                {
                    "name": "C#4",
                    "midi": 61,
                    "time": 103.66671849999997,
                    "velocity": 0.3700787401574803,
                    "duration": 0.33333349999999484
                },
                {
                    "name": "D4",
                    "midi": 62,
                    "time": 104.00005199999997,
                    "velocity": 0.4015748031496063,
                    "duration": 0.33333349999999484
                },
                {
                    "name": "D3",
                    "midi": 50,
                    "time": 104.33338549999996,
                    "velocity": 0.36220472440944884,
                    "duration": 0.33333349999999484
                },
                {
                    "name": "G3",
                    "midi": 55,
                    "time": 104.66671899999996,
                    "velocity": 0.4015748031496063,
                    "duration": 0.16666675000000453
                },
                {
                    "name": "B3",
                    "midi": 59,
                    "time": 105.00005249999997,
                    "velocity": 0.36220472440944884,
                    "duration": 0.16666675000000453
                },
                {
                    "name": "D4",
                    "midi": 62,
                    "time": 105.33338599999998,
                    "velocity": 0.3700787401574803,
                    "duration": 0.16666675000000453
                },
                {
                    "name": "G4",
                    "midi": 67,
                    "time": 105.66671949999999,
                    "velocity": 0.4015748031496063,
                    "duration": 0.16666675000000453
                },
                {
                    "name": "B4",
                    "midi": 71,
                    "time": 106.000053,
                    "velocity": 0.4409448818897638,
                    "duration": 0.16666675000000453
                },
                {
                    "name": "G4",
                    "midi": 67,
                    "time": 106.3333865,
                    "velocity": 0.3937007874015748,
                    "duration": 0.16666675000000453
                },
                {
                    "name": "A4",
                    "midi": 69,
                    "time": 106.66672000000001,
                    "velocity": 0.4566929133858268,
                    "duration": 0.33333349999999484
                },
                {
                    "name": "G4",
                    "midi": 67,
                    "time": 107.0000535,
                    "velocity": 0.4015748031496063,
                    "duration": 0.33333349999999484
                },
                {
                    "name": "C5",
                    "midi": 72,
                    "time": 107.333387,
                    "velocity": 0.4566929133858268,
                    "duration": 0.33333349999999484
                },
                {
                    "name": "B4",
                    "midi": 71,
                    "time": 107.6667205,
                    "velocity": 0.4094488188976378,
                    "duration": 0.33333349999999484
                },
                {
                    "name": "A4",
                    "midi": 69,
                    "time": 108.00005399999999,
                    "velocity": 0.44881889763779526,
                    "duration": 0.33333349999999484
                },
                {
                    "name": "B4",
                    "midi": 71,
                    "time": 108.33338749999999,
                    "velocity": 0.4015748031496063,
                    "duration": 0.33333349999999484
                },
                {
                    "name": "D3",
                    "midi": 50,
                    "time": 108.66672099999998,
                    "velocity": 0.5433070866141733,
                    "duration": 0.16666675000000453
                },
                {
                    "name": "F#3",
                    "midi": 54,
                    "time": 109.00005449999999,
                    "velocity": 0.4645669291338583,
                    "duration": 0.16666675000000453
                },
                {
                    "name": "A3",
                    "midi": 57,
                    "time": 109.333388,
                    "velocity": 0.5669291338582677,
                    "duration": 0.16666675000000453
                },
                {
                    "name": "D4",
                    "midi": 62,
                    "time": 109.66672150000001,
                    "velocity": 0.4881889763779528,
                    "duration": 0.16666675000000453
                },
                {
                    "name": "F#4",
                    "midi": 66,
                    "time": 110.00005500000002,
                    "velocity": 0.5590551181102362,
                    "duration": 0.16666675000000453
                },
                {
                    "name": "A4",
                    "midi": 69,
                    "time": 110.33338850000003,
                    "velocity": 0.5118110236220472,
                    "duration": 0.16666675000000453
                },
                {
                    "name": "G4",
                    "midi": 67,
                    "time": 110.66672200000004,
                    "velocity": 0.6299212598425197,
                    "duration": 0.6666670000000039
                },
                {
                    "name": "D4",
                    "midi": 62,
                    "time": 111.33338900000004,
                    "velocity": 0.4645669291338583,
                    "duration": 0.6666669999999897
                },
                {
                    "name": "G4",
                    "midi": 67,
                    "time": 111.33338900000004,
                    "velocity": 0.5275590551181102,
                    "duration": 0.33333349999999484
                },
                {
                    "name": "F#4",
                    "midi": 66,
                    "time": 111.66672250000003,
                    "velocity": 0.4094488188976378,
                    "duration": 0.33333349999999484
                },
                {
                    "name": "G4",
                    "midi": 67,
                    "time": 112.00005600000003,
                    "velocity": 0.4566929133858268,
                    "duration": 0.33333349999999484
                },
                {
                    "name": "E4",
                    "midi": 64,
                    "time": 112.33338950000002,
                    "velocity": 0.4330708661417323,
                    "duration": 0.16666675000000453
                },
                {
                    "name": "G4",
                    "midi": 67,
                    "time": 112.50005625000003,
                    "velocity": 0.3464566929133858,
                    "duration": 0.16666675000000453
                },
                {
                    "name": "D4",
                    "midi": 62,
                    "time": 112.66672300000003,
                    "velocity": 0.4251968503937008,
                    "duration": 0.16666675000000453
                },
                {
                    "name": "G4",
                    "midi": 67,
                    "time": 112.83338975000004,
                    "velocity": 0.3937007874015748,
                    "duration": 0.16666675000000453
                },
                {
                    "name": "C4",
                    "midi": 60,
                    "time": 113.00005650000004,
                    "velocity": 0.4330708661417323,
                    "duration": 0.16666675000000453
                },
                {
                    "name": "G4",
                    "midi": 67,
                    "time": 113.16672325000005,
                    "velocity": 0.3700787401574803,
                    "duration": 0.16666675000000453
                },
                {
                    "name": "B3",
                    "midi": 59,
                    "time": 113.33339000000005,
                    "velocity": 0.4330708661417323,
                    "duration": 0.33333349999999484
                },
                {
                    "name": "C4",
                    "midi": 60,
                    "time": 113.66672350000005,
                    "velocity": 0.4015748031496063,
                    "duration": 0.33333349999999484
                },
                {
                    "name": "D4",
                    "midi": 62,
                    "time": 114.00005700000004,
                    "velocity": 0.44881889763779526,
                    "duration": 0.33333349999999484
                },
                {
                    "name": "D3",
                    "midi": 50,
                    "time": 114.33339050000004,
                    "velocity": 0.4330708661417323,
                    "duration": 0.33333349999999484
                },
                {
                    "name": "G3",
                    "midi": 55,
                    "time": 114.66672400000003,
                    "velocity": 0.4645669291338583,
                    "duration": 0.33333349999999484
                },
                {
                    "name": "E4",
                    "midi": 64,
                    "time": 115.00005750000003,
                    "velocity": 0.2992125984251969,
                    "duration": 0.16666675000000453
                },
                {
                    "name": "G4",
                    "midi": 67,
                    "time": 115.16672425000003,
                    "velocity": 0.23622047244094488,
                    "duration": 0.16666675000000453
                },
                {
                    "name": "D4",
                    "midi": 62,
                    "time": 115.33339100000003,
                    "velocity": 0.29133858267716534,
                    "duration": 0.16666675000000453
                },
                {
                    "name": "G4",
                    "midi": 67,
                    "time": 115.50005775000004,
                    "velocity": 0.2755905511811024,
                    "duration": 0.16666675000000453
                },
                {
                    "name": "C4",
                    "midi": 60,
                    "time": 115.66672450000004,
                    "velocity": 0.2992125984251969,
                    "duration": 0.16666675000000453
                },
                {
                    "name": "G4",
                    "midi": 67,
                    "time": 115.83339125000005,
                    "velocity": 0.25196850393700787,
                    "duration": 0.16666675000000453
                },
                {
                    "name": "B3",
                    "midi": 59,
                    "time": 116.00005800000005,
                    "velocity": 0.2992125984251969,
                    "duration": 0.33333349999999484
                },
                {
                    "name": "C4",
                    "midi": 60,
                    "time": 116.33339150000005,
                    "velocity": 0.2755905511811024,
                    "duration": 0.33333349999999484
                },
                {
                    "name": "D4",
                    "midi": 62,
                    "time": 116.66672500000004,
                    "velocity": 0.30708661417322836,
                    "duration": 0.33333349999999484
                },
                {
                    "name": "D3",
                    "midi": 50,
                    "time": 117.00005850000004,
                    "velocity": 0.2992125984251969,
                    "duration": 0.33333349999999484
                },
                {
                    "name": "G3",
                    "midi": 55,
                    "time": 117.33339200000003,
                    "velocity": 0.3228346456692913,
                    "duration": 0.16666675000000453
                },
                {
                    "name": "D3",
                    "midi": 50,
                    "time": 117.66672550000004,
                    "velocity": 0.29133858267716534,
                    "duration": 0.16666675000000453
                },
                {
                    "name": "G2",
                    "midi": 43,
                    "time": 118.00005900000005,
                    "velocity": 0.33070866141732286,
                    "duration": 0.16666675000000453
                }
            ],
            "controlChanges": {},
            "id": 2,
            "name": "Piano left",
            "instrumentNumber": 0,
            "instrument": "acoustic grand piano",
            "instrumentFamily": "piano",
            "channelNumber": 0,
            "isPercussion": false
        },
        {
            "startTime": 0,
            "duration": 0,
            "length": 0,
            "notes": [],
            "controlChanges": {
                "64": [
                    {
                        "number": 64,
                        "time": 1.0000005,
                        "value": 1
                    },
                    {
                        "number": 64,
                        "time": 4.000002,
                        "value": 0
                    },
                    {
                        "number": 64,
                        "time": 4.063890920833334,
                        "value": 1
                    },
                    {
                        "number": 64,
                        "time": 4.3416688375,
                        "value": 0
                    },
                    {
                        "number": 64,
                        "time": 4.397224420833334,
                        "value": 1
                    },
                    {
                        "number": 64,
                        "time": 5.344447116666667,
                        "value": 0
                    },
                    {
                        "number": 64,
                        "time": 5.383336025,
                        "value": 1
                    },
                    {
                        "number": 64,
                        "time": 5.68750284375,
                        "value": 0
                    },
                    {
                        "number": 64,
                        "time": 5.750002875,
                        "value": 1
                    },
                    {
                        "number": 64,
                        "time": 6.683336675,
                        "value": 0
                    },
                    {
                        "number": 64,
                        "time": 6.7500033749999995,
                        "value": 1
                    },
                    {
                        "number": 64,
                        "time": 7.343059227083333,
                        "value": 0
                    },
                    {
                        "number": 64,
                        "time": 7.47083706875,
                        "value": 1
                    },
                    {
                        "number": 64,
                        "time": 8.000004,
                        "value": 0
                    },
                    {
                        "number": 64,
                        "time": 8.044448466666667,
                        "value": 1
                    },
                    {
                        "number": 64,
                        "time": 8.673615447916667,
                        "value": 0
                    },
                    {
                        "number": 64,
                        "time": 8.780559945833334,
                        "value": 1
                    },
                    {
                        "number": 64,
                        "time": 9.36250468125,
                        "value": 0
                    },
                    {
                        "number": 64,
                        "time": 9.480560295833333,
                        "value": 1
                    },
                    {
                        "number": 64,
                        "time": 10.3416718375,
                        "value": 0
                    },
                    {
                        "number": 64,
                        "time": 10.431949660416667,
                        "value": 1
                    },
                    {
                        "number": 64,
                        "time": 10.666672,
                        "value": 0
                    },
                    {
                        "number": 64,
                        "time": 10.961116591666666,
                        "value": 1
                    },
                    {
                        "number": 64,
                        "time": 11.352783454166666,
                        "value": 0
                    },
                    {
                        "number": 64,
                        "time": 11.451394614583332,
                        "value": 1
                    },
                    {
                        "number": 64,
                        "time": 13.33334,
                        "value": 0
                    },
                    {
                        "number": 64,
                        "time": 13.402784479166666,
                        "value": 1
                    },
                    {
                        "number": 64,
                        "time": 13.681951285416666,
                        "value": 0
                    },
                    {
                        "number": 64,
                        "time": 13.755562433333333,
                        "value": 1
                    },
                    {
                        "number": 64,
                        "time": 14.019451454166667,
                        "value": 0
                    },
                    {
                        "number": 64,
                        "time": 14.073618147916667,
                        "value": 1
                    },
                    {
                        "number": 64,
                        "time": 14.348618285416666,
                        "value": 0
                    },
                    {
                        "number": 64,
                        "time": 14.416673874999999,
                        "value": 1
                    },
                    {
                        "number": 64,
                        "time": 14.666673999999999,
                        "value": 0
                    },
                    {
                        "number": 64,
                        "time": 14.715285135416666,
                        "value": 1
                    },
                    {
                        "number": 64,
                        "time": 15.013896395833333,
                        "value": 0
                    },
                    {
                        "number": 64,
                        "time": 15.083340875,
                        "value": 1
                    },
                    {
                        "number": 64,
                        "time": 15.352785454166666,
                        "value": 0
                    },
                    {
                        "number": 64,
                        "time": 15.451396614583333,
                        "value": 1
                    },
                    {
                        "number": 64,
                        "time": 17.333342,
                        "value": 0
                    },
                    {
                        "number": 64,
                        "time": 17.402786479166664,
                        "value": 1
                    },
                    {
                        "number": 64,
                        "time": 17.681953285416665,
                        "value": 0
                    },
                    {
                        "number": 64,
                        "time": 17.75556443333333,
                        "value": 1
                    },
                    {
                        "number": 64,
                        "time": 18.019453454166662,
                        "value": 0
                    },
                    {
                        "number": 64,
                        "time": 18.07362014791666,
                        "value": 1
                    },
                    {
                        "number": 64,
                        "time": 18.34862028541666,
                        "value": 0
                    },
                    {
                        "number": 64,
                        "time": 18.416675874999996,
                        "value": 1
                    },
                    {
                        "number": 64,
                        "time": 18.666675999999995,
                        "value": 0
                    },
                    {
                        "number": 64,
                        "time": 18.81389829583333,
                        "value": 1
                    },
                    {
                        "number": 64,
                        "time": 19.345843006249996,
                        "value": 0
                    },
                    {
                        "number": 64,
                        "time": 19.461120841666663,
                        "value": 1
                    },
                    {
                        "number": 64,
                        "time": 19.67639872708333,
                        "value": 0
                    },
                    {
                        "number": 64,
                        "time": 19.804176568749998,
                        "value": 1
                    },
                    {
                        "number": 64,
                        "time": 20.00001,
                        "value": 0
                    },
                    {
                        "number": 64,
                        "time": 20.056954472916665,
                        "value": 1
                    },
                    {
                        "number": 64,
                        "time": 20.3416768375,
                        "value": 0
                    },
                    {
                        "number": 64,
                        "time": 20.390287972916667,
                        "value": 1
                    },
                    {
                        "number": 64,
                        "time": 20.67778811666667,
                        "value": 0
                    },
                    {
                        "number": 64,
                        "time": 20.780565945833334,
                        "value": 1
                    },
                    {
                        "number": 64,
                        "time": 21.333344,
                        "value": 0
                    },
                    {
                        "number": 64,
                        "time": 21.50001075,
                        "value": 1
                    },
                    {
                        "number": 64,
                        "time": 22.236122229166668,
                        "value": 0
                    },
                    {
                        "number": 64,
                        "time": 22.333344500000003,
                        "value": 1
                    },
                    {
                        "number": 64,
                        "time": 25.333346000000002,
                        "value": 0
                    },
                    {
                        "number": 64,
                        "time": 25.397234920833334,
                        "value": 1
                    },
                    {
                        "number": 64,
                        "time": 25.675012837500002,
                        "value": 0
                    },
                    {
                        "number": 64,
                        "time": 25.730568420833336,
                        "value": 1
                    },
                    {
                        "number": 64,
                        "time": 26.67779111666667,
                        "value": 0
                    },
                    {
                        "number": 64,
                        "time": 26.716680025000002,
                        "value": 1
                    },
                    {
                        "number": 64,
                        "time": 27.020846843750004,
                        "value": 0
                    },
                    {
                        "number": 64,
                        "time": 27.083346875000004,
                        "value": 1
                    },
                    {
                        "number": 64,
                        "time": 28.008347337500005,
                        "value": 0
                    },
                    {
                        "number": 64,
                        "time": 28.079180706250007,
                        "value": 1
                    },
                    {
                        "number": 64,
                        "time": 28.67640322708334,
                        "value": 0
                    },
                    {
                        "number": 64,
                        "time": 28.804181068750008,
                        "value": 1
                    },
                    {
                        "number": 64,
                        "time": 29.333348000000008,
                        "value": 0
                    },
                    {
                        "number": 64,
                        "time": 29.377792466666676,
                        "value": 1
                    },
                    {
                        "number": 64,
                        "time": 30.006959447916678,
                        "value": 0
                    },
                    {
                        "number": 64,
                        "time": 30.113903945833346,
                        "value": 1
                    },
                    {
                        "number": 64,
                        "time": 30.695848681250013,
                        "value": 0
                    },
                    {
                        "number": 64,
                        "time": 30.813904295833346,
                        "value": 1
                    },
                    {
                        "number": 64,
                        "time": 31.675015837500013,
                        "value": 0
                    },
                    {
                        "number": 64,
                        "time": 31.765293660416678,
                        "value": 1
                    },
                    {
                        "number": 64,
                        "time": 32.00001600000001,
                        "value": 0
                    },
                    {
                        "number": 64,
                        "time": 32.29446059166668,
                        "value": 1
                    },
                    {
                        "number": 64,
                        "time": 32.68612745416668,
                        "value": 0
                    },
                    {
                        "number": 64,
                        "time": 32.78473861458335,
                        "value": 1
                    },
                    {
                        "number": 64,
                        "time": 34.66668400000001,
                        "value": 0
                    },
                    {
                        "number": 64,
                        "time": 34.73612847916668,
                        "value": 1
                    },
                    {
                        "number": 64,
                        "time": 35.01529528541668,
                        "value": 0
                    },
                    {
                        "number": 64,
                        "time": 35.08890643333334,
                        "value": 1
                    },
                    {
                        "number": 64,
                        "time": 35.352795454166674,
                        "value": 0
                    },
                    {
                        "number": 64,
                        "time": 35.40696214791667,
                        "value": 1
                    },
                    {
                        "number": 64,
                        "time": 35.681962285416674,
                        "value": 0
                    },
                    {
                        "number": 64,
                        "time": 35.750017875000005,
                        "value": 1
                    },
                    {
                        "number": 64,
                        "time": 36.000018000000004,
                        "value": 0
                    },
                    {
                        "number": 64,
                        "time": 36.04862913541667,
                        "value": 1
                    },
                    {
                        "number": 64,
                        "time": 36.34724039583333,
                        "value": 0
                    },
                    {
                        "number": 64,
                        "time": 36.416684875,
                        "value": 1
                    },
                    {
                        "number": 64,
                        "time": 36.68612945416667,
                        "value": 0
                    },
                    {
                        "number": 64,
                        "time": 36.784740614583335,
                        "value": 1
                    },
                    {
                        "number": 64,
                        "time": 38.666686,
                        "value": 0
                    },
                    {
                        "number": 64,
                        "time": 38.73613047916667,
                        "value": 1
                    },
                    {
                        "number": 64,
                        "time": 39.015297285416665,
                        "value": 0
                    },
                    {
                        "number": 64,
                        "time": 39.08890843333333,
                        "value": 1
                    },
                    {
                        "number": 64,
                        "time": 39.35279745416666,
                        "value": 0
                    },
                    {
                        "number": 64,
                        "time": 39.40696414791666,
                        "value": 1
                    },
                    {
                        "number": 64,
                        "time": 39.68196428541666,
                        "value": 0
                    },
                    {
                        "number": 64,
                        "time": 39.75001987499999,
                        "value": 1
                    },
                    {
                        "number": 64,
                        "time": 40.00001999999999,
                        "value": 0
                    },
                    {
                        "number": 64,
                        "time": 40.14724229583332,
                        "value": 1
                    },
                    {
                        "number": 64,
                        "time": 40.67918700624999,
                        "value": 0
                    },
                    {
                        "number": 64,
                        "time": 40.79446484166666,
                        "value": 1
                    },
                    {
                        "number": 64,
                        "time": 41.00974272708333,
                        "value": 0
                    },
                    {
                        "number": 64,
                        "time": 41.13752056874999,
                        "value": 1
                    },
                    {
                        "number": 64,
                        "time": 41.33335399999999,
                        "value": 0
                    },
                    {
                        "number": 64,
                        "time": 41.39029847291666,
                        "value": 1
                    },
                    {
                        "number": 64,
                        "time": 41.67502083749999,
                        "value": 0
                    },
                    {
                        "number": 64,
                        "time": 41.72363197291666,
                        "value": 1
                    },
                    {
                        "number": 64,
                        "time": 42.01113211666666,
                        "value": 0
                    },
                    {
                        "number": 64,
                        "time": 42.11390994583333,
                        "value": 1
                    },
                    {
                        "number": 64,
                        "time": 42.66668799999999,
                        "value": 0
                    },
                    {
                        "number": 64,
                        "time": 42.83335474999999,
                        "value": 1
                    },
                    {
                        "number": 64,
                        "time": 43.56946622916666,
                        "value": 0
                    },
                    {
                        "number": 64,
                        "time": 43.65279960416666,
                        "value": 1
                    },
                    {
                        "number": 64,
                        "time": 44.000021999999994,
                        "value": 0
                    },
                    {
                        "number": 64,
                        "time": 44.09863316041666,
                        "value": 1
                    },
                    {
                        "number": 64,
                        "time": 45.343078227083325,
                        "value": 0
                    },
                    {
                        "number": 64,
                        "time": 45.39307825208333,
                        "value": 1
                    },
                    {
                        "number": 64,
                        "time": 46.013911895833324,
                        "value": 0
                    },
                    {
                        "number": 64,
                        "time": 46.093078602083324,
                        "value": 1
                    },
                    {
                        "number": 64,
                        "time": 46.347245395833326,
                        "value": 0
                    },
                    {
                        "number": 64,
                        "time": 46.416689874999996,
                        "value": 1
                    },
                    {
                        "number": 64,
                        "time": 46.68613445416666,
                        "value": 0
                    },
                    {
                        "number": 64,
                        "time": 46.72641225208333,
                        "value": 1
                    },
                    {
                        "number": 64,
                        "time": 47.01252350625,
                        "value": 0
                    },
                    {
                        "number": 64,
                        "time": 47.098634660416664,
                        "value": 1
                    },
                    {
                        "number": 64,
                        "time": 47.35557923333333,
                        "value": 0
                    },
                    {
                        "number": 64,
                        "time": 47.44585705625,
                        "value": 1
                    },
                    {
                        "number": 64,
                        "time": 48.08891293333333,
                        "value": 0
                    },
                    {
                        "number": 64,
                        "time": 48.205579658333335,
                        "value": 1
                    },
                    {
                        "number": 64,
                        "time": 48.67919100625,
                        "value": 0
                    },
                    {
                        "number": 64,
                        "time": 48.82363552291667,
                        "value": 1
                    },
                    {
                        "number": 64,
                        "time": 49.01252450625,
                        "value": 0
                    },
                    {
                        "number": 64,
                        "time": 49.118080114583336,
                        "value": 1
                    },
                    {
                        "number": 64,
                        "time": 49.333358000000004,
                        "value": 0
                    },
                    {
                        "number": 64,
                        "time": 49.4000247,
                        "value": 1
                    },
                    {
                        "number": 64,
                        "time": 49.67780261666667,
                        "value": 0
                    },
                    {
                        "number": 64,
                        "time": 49.7333582,
                        "value": 1
                    },
                    {
                        "number": 64,
                        "time": 50.012525006249994,
                        "value": 0
                    },
                    {
                        "number": 64,
                        "time": 50.75558093333333,
                        "value": 0
                    },
                    {
                        "number": 64,
                        "time": 50.87224765833333,
                        "value": 1
                    },
                    {
                        "number": 64,
                        "time": 51.345859006249995,
                        "value": 0
                    },
                    {
                        "number": 64,
                        "time": 51.49030352291666,
                        "value": 1
                    },
                    {
                        "number": 64,
                        "time": 51.67919250625,
                        "value": 0
                    },
                    {
                        "number": 64,
                        "time": 51.78474811458333,
                        "value": 1
                    },
                    {
                        "number": 64,
                        "time": 52.000026,
                        "value": 0
                    },
                    {
                        "number": 64,
                        "time": 52.0666927,
                        "value": 1
                    },
                    {
                        "number": 64,
                        "time": 52.34447061666666,
                        "value": 0
                    },
                    {
                        "number": 64,
                        "time": 52.40002619999999,
                        "value": 1
                    },
                    {
                        "number": 64,
                        "time": 52.67919300624999,
                        "value": 0
                    },
                    {
                        "number": 64,
                        "time": 53.04447096666666,
                        "value": 1
                    },
                    {
                        "number": 64,
                        "time": 53.34308222708332,
                        "value": 0
                    },
                    {
                        "number": 64,
                        "time": 53.711137966666655,
                        "value": 1
                    },
                    {
                        "number": 64,
                        "time": 54.00974922708332,
                        "value": 0
                    },
                    {
                        "number": 64,
                        "time": 54.426416102083316,
                        "value": 1
                    },
                    {
                        "number": 64,
                        "time": 54.67086066874998,
                        "value": 0
                    },
                    {
                        "number": 64,
                        "time": 55.06947197916665,
                        "value": 1
                    },
                    {
                        "number": 64,
                        "time": 55.34447211666665,
                        "value": 0
                    },
                    {
                        "number": 64,
                        "time": 56.000027999999986,
                        "value": 1
                    },
                    {
                        "number": 64,
                        "time": 56.35419484374999,
                        "value": 0
                    },
                    {
                        "number": 64,
                        "time": 56.41669487499999,
                        "value": 1
                    },
                    {
                        "number": 64,
                        "time": 56.819472854166655,
                        "value": 0
                    },
                    {
                        "number": 64,
                        "time": 57.000028499999985,
                        "value": 1
                    },
                    {
                        "number": 64,
                        "time": 60.00002999999999,
                        "value": 0
                    },
                    {
                        "number": 64,
                        "time": 60.06391892083332,
                        "value": 1
                    },
                    {
                        "number": 64,
                        "time": 60.34169683749999,
                        "value": 0
                    },
                    {
                        "number": 64,
                        "time": 60.39725242083332,
                        "value": 1
                    },
                    {
                        "number": 64,
                        "time": 61.34447511666665,
                        "value": 0
                    },
                    {
                        "number": 64,
                        "time": 61.383364024999985,
                        "value": 1
                    },
                    {
                        "number": 64,
                        "time": 61.68753084374998,
                        "value": 0
                    },
                    {
                        "number": 64,
                        "time": 61.750030874999986,
                        "value": 1
                    },
                    {
                        "number": 64,
                        "time": 62.67919800624998,
                        "value": 0
                    },
                    {
                        "number": 64,
                        "time": 62.72780914166665,
                        "value": 1
                    },
                    {
                        "number": 64,
                        "time": 63.343087227083316,
                        "value": 0
                    },
                    {
                        "number": 64,
                        "time": 63.47086506874998,
                        "value": 1
                    },
                    {
                        "number": 64,
                        "time": 64.00003199999998,
                        "value": 0
                    },
                    {
                        "number": 64,
                        "time": 64.04447646666664,
                        "value": 1
                    },
                    {
                        "number": 64,
                        "time": 64.67364344791663,
                        "value": 0
                    },
                    {
                        "number": 64,
                        "time": 64.7805879458333,
                        "value": 1
                    },
                    {
                        "number": 64,
                        "time": 65.36253268124997,
                        "value": 0
                    },
                    {
                        "number": 64,
                        "time": 65.4805882958333,
                        "value": 1
                    },
                    {
                        "number": 64,
                        "time": 66.34169983749997,
                        "value": 0
                    },
                    {
                        "number": 64,
                        "time": 66.43197766041663,
                        "value": 1
                    },
                    {
                        "number": 64,
                        "time": 66.66669999999996,
                        "value": 0
                    },
                    {
                        "number": 64,
                        "time": 66.96114459166662,
                        "value": 1
                    },
                    {
                        "number": 64,
                        "time": 67.35281145416663,
                        "value": 0
                    },
                    {
                        "number": 64,
                        "time": 67.4514226145833,
                        "value": 1
                    },
                    {
                        "number": 64,
                        "time": 69.33336799999996,
                        "value": 0
                    },
                    {
                        "number": 64,
                        "time": 69.40281247916663,
                        "value": 1
                    },
                    {
                        "number": 64,
                        "time": 69.68197928541663,
                        "value": 0
                    },
                    {
                        "number": 64,
                        "time": 69.7555904333333,
                        "value": 1
                    },
                    {
                        "number": 64,
                        "time": 70.01947945416663,
                        "value": 0
                    },
                    {
                        "number": 64,
                        "time": 70.07364614791663,
                        "value": 1
                    },
                    {
                        "number": 64,
                        "time": 70.34864628541663,
                        "value": 0
                    },
                    {
                        "number": 64,
                        "time": 70.41670187499997,
                        "value": 1
                    },
                    {
                        "number": 64,
                        "time": 70.66670199999997,
                        "value": 0
                    },
                    {
                        "number": 64,
                        "time": 70.71531313541664,
                        "value": 1
                    },
                    {
                        "number": 64,
                        "time": 71.0139243958333,
                        "value": 0
                    },
                    {
                        "number": 64,
                        "time": 71.08336887499996,
                        "value": 1
                    },
                    {
                        "number": 64,
                        "time": 71.35281345416664,
                        "value": 0
                    },
                    {
                        "number": 64,
                        "time": 71.4514246145833,
                        "value": 1
                    },
                    {
                        "number": 64,
                        "time": 73.33336999999997,
                        "value": 0
                    },
                    {
                        "number": 64,
                        "time": 73.40281447916664,
                        "value": 1
                    },
                    {
                        "number": 64,
                        "time": 73.68198128541664,
                        "value": 0
                    },
                    {
                        "number": 64,
                        "time": 73.7555924333333,
                        "value": 1
                    },
                    {
                        "number": 64,
                        "time": 74.01948145416664,
                        "value": 0
                    },
                    {
                        "number": 64,
                        "time": 74.07364814791664,
                        "value": 1
                    },
                    {
                        "number": 64,
                        "time": 74.34864828541664,
                        "value": 0
                    },
                    {
                        "number": 64,
                        "time": 74.41670387499998,
                        "value": 1
                    },
                    {
                        "number": 64,
                        "time": 74.66670399999998,
                        "value": 0
                    },
                    {
                        "number": 64,
                        "time": 74.81392629583331,
                        "value": 1
                    },
                    {
                        "number": 64,
                        "time": 75.34587100624998,
                        "value": 0
                    },
                    {
                        "number": 64,
                        "time": 75.46114884166664,
                        "value": 1
                    },
                    {
                        "number": 64,
                        "time": 75.67642672708331,
                        "value": 0
                    },
                    {
                        "number": 64,
                        "time": 75.80420456874998,
                        "value": 1
                    },
                    {
                        "number": 64,
                        "time": 76.00003799999998,
                        "value": 0
                    },
                    {
                        "number": 64,
                        "time": 76.05698247291664,
                        "value": 1
                    },
                    {
                        "number": 64,
                        "time": 76.34170483749998,
                        "value": 0
                    },
                    {
                        "number": 64,
                        "time": 76.39031597291664,
                        "value": 1
                    },
                    {
                        "number": 64,
                        "time": 76.67781611666663,
                        "value": 0
                    },
                    {
                        "number": 64,
                        "time": 76.7805939458333,
                        "value": 1
                    },
                    {
                        "number": 64,
                        "time": 77.33337199999997,
                        "value": 0
                    },
                    {
                        "number": 64,
                        "time": 77.50003874999997,
                        "value": 1
                    },
                    {
                        "number": 64,
                        "time": 78.01253900624997,
                        "value": 0
                    },
                    {
                        "number": 64,
                        "time": 78.12781684166663,
                        "value": 1
                    },
                    {
                        "number": 64,
                        "time": 78.3430947270833,
                        "value": 0
                    },
                    {
                        "number": 64,
                        "time": 78.47087256874997,
                        "value": 1
                    },
                    {
                        "number": 64,
                        "time": 78.66670599999996,
                        "value": 0
                    },
                    {
                        "number": 64,
                        "time": 78.72365047291663,
                        "value": 1
                    },
                    {
                        "number": 64,
                        "time": 79.00837283749996,
                        "value": 0
                    },
                    {
                        "number": 64,
                        "time": 79.05698397291663,
                        "value": 1
                    },
                    {
                        "number": 64,
                        "time": 79.34448411666662,
                        "value": 0
                    },
                    {
                        "number": 64,
                        "time": 79.44726194583329,
                        "value": 1
                    },
                    {
                        "number": 64,
                        "time": 80.00003999999996,
                        "value": 0
                    },
                    {
                        "number": 64,
                        "time": 80.16670674999996,
                        "value": 1
                    },
                    {
                        "number": 64,
                        "time": 80.90281822916663,
                        "value": 0
                    },
                    {
                        "number": 64,
                        "time": 81.33337399999996,
                        "value": 0
                    },
                    {
                        "number": 64,
                        "time": 81.43198516041663,
                        "value": 1
                    },
                    {
                        "number": 64,
                        "time": 82.6764302270833,
                        "value": 0
                    },
                    {
                        "number": 64,
                        "time": 82.7264302520833,
                        "value": 1
                    },
                    {
                        "number": 64,
                        "time": 83.34726389583331,
                        "value": 0
                    },
                    {
                        "number": 64,
                        "time": 83.42643060208331,
                        "value": 1
                    },
                    {
                        "number": 64,
                        "time": 83.68059739583332,
                        "value": 0
                    },
                    {
                        "number": 64,
                        "time": 83.75004187499998,
                        "value": 1
                    },
                    {
                        "number": 64,
                        "time": 84.01948645416665,
                        "value": 0
                    },
                    {
                        "number": 64,
                        "time": 84.05976425208333,
                        "value": 1
                    },
                    {
                        "number": 64,
                        "time": 84.34587550625,
                        "value": 0
                    },
                    {
                        "number": 64,
                        "time": 84.43198666041667,
                        "value": 1
                    },
                    {
                        "number": 64,
                        "time": 84.68893123333334,
                        "value": 0
                    },
                    {
                        "number": 64,
                        "time": 84.77920905625,
                        "value": 1
                    },
                    {
                        "number": 64,
                        "time": 85.42226493333332,
                        "value": 0
                    },
                    {
                        "number": 64,
                        "time": 85.53893165833333,
                        "value": 1
                    },
                    {
                        "number": 64,
                        "time": 86.01254300625,
                        "value": 0
                    },
                    {
                        "number": 64,
                        "time": 86.15698752291667,
                        "value": 1
                    },
                    {
                        "number": 64,
                        "time": 86.34587650625,
                        "value": 0
                    },
                    {
                        "number": 64,
                        "time": 86.45143211458333,
                        "value": 1
                    },
                    {
                        "number": 64,
                        "time": 86.66671,
                        "value": 0
                    },
                    {
                        "number": 64,
                        "time": 86.7333767,
                        "value": 1
                    },
                    {
                        "number": 64,
                        "time": 87.01115461666666,
                        "value": 0
                    },
                    {
                        "number": 64,
                        "time": 87.06671019999999,
                        "value": 1
                    },
                    {
                        "number": 64,
                        "time": 87.34587700624999,
                        "value": 0
                    },
                    {
                        "number": 64,
                        "time": 88.08893293333333,
                        "value": 0
                    },
                    {
                        "number": 64,
                        "time": 88.20559965833333,
                        "value": 1
                    },
                    {
                        "number": 64,
                        "time": 88.67921100625,
                        "value": 0
                    },
                    {
                        "number": 64,
                        "time": 88.82365552291667,
                        "value": 1
                    },
                    {
                        "number": 64,
                        "time": 89.01254450625,
                        "value": 0
                    },
                    {
                        "number": 64,
                        "time": 89.11810011458333,
                        "value": 1
                    },
                    {
                        "number": 64,
                        "time": 89.333378,
                        "value": 0
                    },
                    {
                        "number": 64,
                        "time": 89.4000447,
                        "value": 1
                    },
                    {
                        "number": 64,
                        "time": 89.67782261666666,
                        "value": 0
                    },
                    {
                        "number": 64,
                        "time": 89.73337819999999,
                        "value": 1
                    },
                    {
                        "number": 64,
                        "time": 90.01254500625,
                        "value": 0
                    },
                    {
                        "number": 64,
                        "time": 90.37782296666666,
                        "value": 1
                    },
                    {
                        "number": 64,
                        "time": 90.67643422708332,
                        "value": 0
                    },
                    {
                        "number": 64,
                        "time": 91.04448996666666,
                        "value": 1
                    },
                    {
                        "number": 64,
                        "time": 91.34310122708332,
                        "value": 0
                    },
                    {
                        "number": 64,
                        "time": 91.75976810208333,
                        "value": 1
                    },
                    {
                        "number": 64,
                        "time": 92.00421266875,
                        "value": 0
                    },
                    {
                        "number": 64,
                        "time": 92.40282397916667,
                        "value": 1
                    },
                    {
                        "number": 64,
                        "time": 92.67782411666667,
                        "value": 0
                    },
                    {
                        "number": 64,
                        "time": 93.33338,
                        "value": 1
                    },
                    {
                        "number": 64,
                        "time": 93.68754684375,
                        "value": 0
                    },
                    {
                        "number": 64,
                        "time": 93.750046875,
                        "value": 1
                    },
                    {
                        "number": 64,
                        "time": 94.15282485416667,
                        "value": 0
                    },
                    {
                        "number": 64,
                        "time": 94.3333805,
                        "value": 1
                    },
                    {
                        "number": 64,
                        "time": 97.333382,
                        "value": 0
                    },
                    {
                        "number": 64,
                        "time": 97.39727092083334,
                        "value": 1
                    },
                    {
                        "number": 64,
                        "time": 97.6750488375,
                        "value": 0
                    },
                    {
                        "number": 64,
                        "time": 97.73060442083333,
                        "value": 1
                    },
                    {
                        "number": 64,
                        "time": 98.67782711666666,
                        "value": 0
                    },
                    {
                        "number": 64,
                        "time": 98.716716025,
                        "value": 1
                    },
                    {
                        "number": 64,
                        "time": 99.02088284375,
                        "value": 0
                    },
                    {
                        "number": 64,
                        "time": 99.083382875,
                        "value": 1
                    },
                    {
                        "number": 64,
                        "time": 100.02227223333333,
                        "value": 0
                    },
                    {
                        "number": 64,
                        "time": 100.06116114166666,
                        "value": 1
                    },
                    {
                        "number": 64,
                        "time": 100.67643922708332,
                        "value": 0
                    },
                    {
                        "number": 64,
                        "time": 100.80421706874999,
                        "value": 1
                    },
                    {
                        "number": 64,
                        "time": 101.333384,
                        "value": 0
                    },
                    {
                        "number": 64,
                        "time": 101.37782846666666,
                        "value": 1
                    },
                    {
                        "number": 64,
                        "time": 102.00699544791665,
                        "value": 0
                    },
                    {
                        "number": 64,
                        "time": 102.11393994583332,
                        "value": 1
                    },
                    {
                        "number": 64,
                        "time": 102.69588468124999,
                        "value": 0
                    },
                    {
                        "number": 64,
                        "time": 102.81394029583332,
                        "value": 1
                    },
                    {
                        "number": 64,
                        "time": 103.67505183749999,
                        "value": 0
                    },
                    {
                        "number": 64,
                        "time": 103.76532966041665,
                        "value": 1
                    },
                    {
                        "number": 64,
                        "time": 104.00005199999998,
                        "value": 0
                    },
                    {
                        "number": 64,
                        "time": 104.29449659166664,
                        "value": 1
                    },
                    {
                        "number": 64,
                        "time": 104.68616345416665,
                        "value": 0
                    },
                    {
                        "number": 64,
                        "time": 104.78477461458331,
                        "value": 1
                    },
                    {
                        "number": 64,
                        "time": 106.66671999999998,
                        "value": 0
                    },
                    {
                        "number": 64,
                        "time": 106.73616447916665,
                        "value": 1
                    },
                    {
                        "number": 64,
                        "time": 107.01533128541665,
                        "value": 0
                    },
                    {
                        "number": 64,
                        "time": 107.08894243333332,
                        "value": 1
                    },
                    {
                        "number": 64,
                        "time": 107.35283145416665,
                        "value": 0
                    },
                    {
                        "number": 64,
                        "time": 107.40699814791665,
                        "value": 1
                    },
                    {
                        "number": 64,
                        "time": 107.68199828541665,
                        "value": 0
                    },
                    {
                        "number": 64,
                        "time": 107.75005387499999,
                        "value": 1
                    },
                    {
                        "number": 64,
                        "time": 108.00005399999999,
                        "value": 0
                    },
                    {
                        "number": 64,
                        "time": 108.04866513541666,
                        "value": 1
                    },
                    {
                        "number": 64,
                        "time": 108.34727639583332,
                        "value": 0
                    },
                    {
                        "number": 64,
                        "time": 108.41672087499998,
                        "value": 1
                    },
                    {
                        "number": 64,
                        "time": 108.68616545416666,
                        "value": 0
                    },
                    {
                        "number": 64,
                        "time": 108.78477661458332,
                        "value": 1
                    },
                    {
                        "number": 64,
                        "time": 110.666722,
                        "value": 0
                    },
                    {
                        "number": 64,
                        "time": 110.73616647916666,
                        "value": 1
                    },
                    {
                        "number": 64,
                        "time": 111.01533328541666,
                        "value": 0
                    },
                    {
                        "number": 64,
                        "time": 111.08894443333332,
                        "value": 1
                    },
                    {
                        "number": 64,
                        "time": 111.35283345416666,
                        "value": 0
                    },
                    {
                        "number": 64,
                        "time": 111.40700014791666,
                        "value": 1
                    },
                    {
                        "number": 64,
                        "time": 111.68200028541666,
                        "value": 0
                    },
                    {
                        "number": 64,
                        "time": 111.750055875,
                        "value": 1
                    },
                    {
                        "number": 64,
                        "time": 112.000056,
                        "value": 0
                    },
                    {
                        "number": 64,
                        "time": 112.14727829583333,
                        "value": 1
                    },
                    {
                        "number": 64,
                        "time": 112.67922300625,
                        "value": 0
                    },
                    {
                        "number": 64,
                        "time": 112.79450084166666,
                        "value": 1
                    },
                    {
                        "number": 64,
                        "time": 113.00977872708333,
                        "value": 0
                    },
                    {
                        "number": 64,
                        "time": 113.13755656875,
                        "value": 1
                    },
                    {
                        "number": 64,
                        "time": 113.33339,
                        "value": 0
                    },
                    {
                        "number": 64,
                        "time": 113.39033447291666,
                        "value": 1
                    },
                    {
                        "number": 64,
                        "time": 113.6750568375,
                        "value": 0
                    },
                    {
                        "number": 64,
                        "time": 113.72366797291666,
                        "value": 1
                    },
                    {
                        "number": 64,
                        "time": 114.01116811666665,
                        "value": 0
                    },
                    {
                        "number": 64,
                        "time": 114.11394594583332,
                        "value": 1
                    },
                    {
                        "number": 64,
                        "time": 114.66672399999999,
                        "value": 0
                    },
                    {
                        "number": 64,
                        "time": 114.83339074999999,
                        "value": 1
                    },
                    {
                        "number": 64,
                        "time": 115.34589100624999,
                        "value": 0
                    },
                    {
                        "number": 64,
                        "time": 115.46116884166665,
                        "value": 1
                    },
                    {
                        "number": 64,
                        "time": 115.67644672708332,
                        "value": 0
                    },
                    {
                        "number": 64,
                        "time": 115.80422456874999,
                        "value": 1
                    },
                    {
                        "number": 64,
                        "time": 116.00005799999998,
                        "value": 0
                    },
                    {
                        "number": 64,
                        "time": 116.05700247291665,
                        "value": 1
                    },
                    {
                        "number": 64,
                        "time": 116.34172483749998,
                        "value": 0
                    },
                    {
                        "number": 64,
                        "time": 116.39033597291665,
                        "value": 1
                    },
                    {
                        "number": 64,
                        "time": 116.67783611666664,
                        "value": 0
                    },
                    {
                        "number": 64,
                        "time": 116.78061394583331,
                        "value": 1
                    },
                    {
                        "number": 64,
                        "time": 117.33339199999998,
                        "value": 0
                    },
                    {
                        "number": 64,
                        "time": 117.50005874999998,
                        "value": 1
                    },
                    {
                        "number": 64,
                        "time": 118.23617022916665,
                        "value": 0
                    }
                ]
            },
            "id": 3,
            "name": "Pedale",
            "instrumentNumber": 0,
            "instrument": "acoustic grand piano",
            "instrumentFamily": "piano",
            "channelNumber": 0,
            "isPercussion": false
        },
        {
            "startTime": 0,
            "duration": 0,
            "length": 0,
            "notes": [],
            "controlChanges": {},
            "id": 4,
            "name": "Haydn: Sonata Hoboken XVI:8 1. movement"
        },
        {
            "startTime": 0,
            "duration": 0,
            "length": 0,
            "notes": [],
            "controlChanges": {},
            "id": 5,
            "name": "Copyright  2009 by Bernd Krueger"
        },
        {
            "startTime": 0,
            "duration": 0,
            "length": 0,
            "notes": [],
            "controlChanges": {},
            "id": 6,
            "name": "http://www.piano-midi.de/"
        },
        {
            "startTime": 0,
            "duration": 0,
            "length": 0,
            "notes": [],
            "controlChanges": {},
            "id": 7,
            "name": "Edition: 2011-11-13"
        },
        {
            "startTime": 0,
            "duration": 0,
            "length": 0,
            "notes": [],
            "controlChanges": {},
            "id": 8,
            "name": "Spur 8"
        },
        {
            "startTime": 0,
            "duration": 0,
            "length": 0,
            "notes": [],
            "controlChanges": {},
            "id": 9,
            "name": "Spur 9"
        },
        {
            "startTime": 0,
            "duration": 0,
            "length": 0,
            "notes": [],
            "controlChanges": {},
            "id": 10,
            "name": "Spur 10"
        },
        {
            "startTime": 0,
            "duration": 0,
            "length": 0,
            "notes": [],
            "controlChanges": {},
            "id": 11,
            "name": "Spur 11"
        },
        {
            "startTime": 0,
            "duration": 0,
            "length": 0,
            "notes": [],
            "controlChanges": {},
            "id": 12,
            "name": "Spur 12"
        },
        {
            "startTime": 0,
            "duration": 0,
            "length": 0,
            "notes": [],
            "controlChanges": {},
            "id": 13,
            "name": "Spur 13"
        },
        {
            "startTime": 0,
            "duration": 0,
            "length": 0,
            "notes": [],
            "controlChanges": {},
            "id": 14,
            "name": "Spur 14"
        },
        {
            "startTime": 0,
            "duration": 0,
            "length": 0,
            "notes": [],
            "controlChanges": {},
            "id": 15,
            "name": "Spur 15"
        },
        {
            "startTime": 0,
            "duration": 0,
            "length": 0,
            "notes": [],
            "controlChanges": {},
            "id": 16,
            "name": "Spur 16"
        }
    ]
}