{
    "header": {
        "PPQ": 480,
        "timeSignature": [
            4,
            4
        ],
        "bpm": 153.7298709950166,
        "name": "Haydn: Klaviersonate Hoboken XVI: 43 1. Satz"
    },
    "startTime": 0,
    "duration": 317.3098349999946,
    "tracks": [
        {
            "startTime": 0,
            "duration": 0,
            "length": 0,
            "notes": [],
            "controlChanges": {},
            "id": 0,
            "name": "Haydn: Klaviersonate Hoboken XVI: 43 1. Satz"
        },
        {
            "startTime": 1.170885,
            "duration": 316.5292449999941,
            "length": 1535,
            "notes": [
                {
                    "name": "D#4",
                    "midi": 63,
                    "time": 1.170885,
                    "velocity": 0.5669291338582677,
                    "duration": 0.29272125000000004
                },
                {
                    "name": "C4",
                    "midi": 60,
                    "time": 1.46360625,
                    "velocity": 0.5196850393700787,
                    "duration": 0.09757375000000001
                },
                {
                    "name": "G#4",
                    "midi": 68,
                    "time": 1.56118,
                    "velocity": 0.5669291338582677,
                    "duration": 0.29272125000000004
                },
                {
                    "name": "G#4",
                    "midi": 68,
                    "time": 1.85390125,
                    "velocity": 0.5118110236220472,
                    "duration": 0.09757375000000001
                },
                {
                    "name": "G#4",
                    "midi": 68,
                    "time": 1.951475,
                    "velocity": 0.5669291338582677,
                    "duration": 0.04878687500000001
                },
                {
                    "name": "A#4",
                    "midi": 70,
                    "time": 2.000261875,
                    "velocity": 0.4881889763779528,
                    "duration": 0.048786874999999785
                },
                {
                    "name": "G#4",
                    "midi": 68,
                    "time": 2.04904875,
                    "velocity": 0.5669291338582677,
                    "duration": 0.048786874999999785
                },
                {
                    "name": "A#4",
                    "midi": 70,
                    "time": 2.0978356249999996,
                    "velocity": 0.4566929133858268,
                    "duration": 0.048786874999999785
                },
                {
                    "name": "G#4",
                    "midi": 68,
                    "time": 2.1466224999999994,
                    "velocity": 0.5433070866141733,
                    "duration": 0.03252458333333319
                },
                {
                    "name": "A#4",
                    "midi": 70,
                    "time": 2.1791470833333326,
                    "velocity": 0.4645669291338583,
                    "duration": 0.03252458333333319
                },
                {
                    "name": "G#4",
                    "midi": 68,
                    "time": 2.211671666666666,
                    "velocity": 0.5433070866141733,
                    "duration": 0.03252458333333319
                },
                {
                    "name": "G4",
                    "midi": 67,
                    "time": 2.244196249999999,
                    "velocity": 0.5118110236220472,
                    "duration": 0.048786874999999785
                },
                {
                    "name": "G#4",
                    "midi": 68,
                    "time": 2.292983124999999,
                    "velocity": 0.4566929133858268,
                    "duration": 0.048786874999999785
                },
                {
                    "name": "A#4",
                    "midi": 70,
                    "time": 2.3417699999999986,
                    "velocity": 0.5669291338582677,
                    "duration": 0.39029500000000006
                },
                {
                    "name": "D#4",
                    "midi": 63,
                    "time": 2.7320649999999986,
                    "velocity": 0.5669291338582677,
                    "duration": 0.29272125000000004
                },
                {
                    "name": "D#5",
                    "midi": 75,
                    "time": 3.0247862499999987,
                    "velocity": 0.5354330708661418,
                    "duration": 0.09757375000000001
                },
                {
                    "name": "C#5",
                    "midi": 73,
                    "time": 3.1223599999999987,
                    "velocity": 0.6456692913385826,
                    "duration": 0.7805900000000001
                },
                {
                    "name": "C5",
                    "midi": 72,
                    "time": 3.902949999999999,
                    "velocity": 0.5669291338582677,
                    "duration": 0.1463606249999998
                },
                {
                    "name": "G#4",
                    "midi": 68,
                    "time": 4.293244999999999,
                    "velocity": 0.3858267716535433,
                    "duration": 0.2927212499999996
                },
                {
                    "name": "F5",
                    "midi": 77,
                    "time": 4.5859662499999985,
                    "velocity": 0.3464566929133858,
                    "duration": 0.09757374999999957
                },
                {
                    "name": "D#5",
                    "midi": 75,
                    "time": 4.683539999999998,
                    "velocity": 0.4330708661417323,
                    "duration": 0.7805900000000001
                },
                {
                    "name": "C#5",
                    "midi": 73,
                    "time": 5.464129999999998,
                    "velocity": 0.3858267716535433,
                    "duration": 0.1463606249999998
                },
                {
                    "name": "D#4",
                    "midi": 63,
                    "time": 5.854424999999998,
                    "velocity": 0.5669291338582677,
                    "duration": 0.2927212499999996
                },
                {
                    "name": "D#5",
                    "midi": 75,
                    "time": 6.147146249999998,
                    "velocity": 0.5354330708661418,
                    "duration": 0.09757374999999957
                },
                {
                    "name": "C#5",
                    "midi": 73,
                    "time": 6.244719999999997,
                    "velocity": 0.6456692913385826,
                    "duration": 0.7805900000000001
                },
                {
                    "name": "C5",
                    "midi": 72,
                    "time": 7.0253099999999975,
                    "velocity": 0.5669291338582677,
                    "duration": 0.1463606249999998
                },
                {
                    "name": "G#5",
                    "midi": 80,
                    "time": 7.415604999999998,
                    "velocity": 0.6377952755905512,
                    "duration": 0.2927212499999996
                },
                {
                    "name": "C5",
                    "midi": 72,
                    "time": 7.708326249999997,
                    "velocity": 0.5354330708661418,
                    "duration": 0.09757374999999957
                },
                {
                    "name": "A#4",
                    "midi": 70,
                    "time": 7.805899999999997,
                    "velocity": 0.6220472440944882,
                    "duration": 0.2927212500000005
                },
                {
                    "name": "A#4",
                    "midi": 70,
                    "time": 8.098621249999997,
                    "velocity": 0.5118110236220472,
                    "duration": 0.09757375000000046
                },
                {
                    "name": "A#4",
                    "midi": 70,
                    "time": 8.196194999999998,
                    "velocity": 0.5669291338582677,
                    "duration": 0.04878687499999934
                },
                {
                    "name": "C5",
                    "midi": 72,
                    "time": 8.244981874999997,
                    "velocity": 0.4881889763779528,
                    "duration": 0.04878687499999934
                },
                {
                    "name": "A#4",
                    "midi": 70,
                    "time": 8.293768749999996,
                    "velocity": 0.5669291338582677,
                    "duration": 0.04878687499999934
                },
                {
                    "name": "C5",
                    "midi": 72,
                    "time": 8.342555624999996,
                    "velocity": 0.4566929133858268,
                    "duration": 0.04878687499999934
                },
                {
                    "name": "A#4",
                    "midi": 70,
                    "time": 8.391342499999995,
                    "velocity": 0.5433070866141733,
                    "duration": 0.03252458333333408
                },
                {
                    "name": "C5",
                    "midi": 72,
                    "time": 8.42386708333333,
                    "velocity": 0.4645669291338583,
                    "duration": 0.03252458333333408
                },
                {
                    "name": "A#4",
                    "midi": 70,
                    "time": 8.456391666666663,
                    "velocity": 0.5433070866141733,
                    "duration": 0.03252458333333408
                },
                {
                    "name": "A4",
                    "midi": 69,
                    "time": 8.488916249999997,
                    "velocity": 0.5118110236220472,
                    "duration": 0.04878687499999934
                },
                {
                    "name": "A#4",
                    "midi": 70,
                    "time": 8.537703124999997,
                    "velocity": 0.4566929133858268,
                    "duration": 0.04878687499999934
                },
                {
                    "name": "C#5",
                    "midi": 73,
                    "time": 8.586489999999996,
                    "velocity": 0.6141732283464567,
                    "duration": 0.2927212499999996
                },
                {
                    "name": "A#4",
                    "midi": 70,
                    "time": 8.879211249999996,
                    "velocity": 0.5590551181102362,
                    "duration": 0.09757375000000046
                },
                {
                    "name": "G4",
                    "midi": 67,
                    "time": 8.976784999999996,
                    "velocity": 0.6220472440944882,
                    "duration": 0.2927212499999996
                },
                {
                    "name": "D#4",
                    "midi": 63,
                    "time": 9.269506249999996,
                    "velocity": 0.5669291338582677,
                    "duration": 0.09757375000000046
                },
                {
                    "name": "G#4",
                    "midi": 68,
                    "time": 9.367079999999996,
                    "velocity": 0.6377952755905512,
                    "duration": 0.2927212499999996
                },
                {
                    "name": "D#4",
                    "midi": 63,
                    "time": 10.537964999999996,
                    "velocity": 0.5669291338582677,
                    "duration": 0.2927212499999996
                },
                {
                    "name": "C4",
                    "midi": 60,
                    "time": 10.830686249999996,
                    "velocity": 0.5196850393700787,
                    "duration": 0.09757375000000046
                },
                {
                    "name": "G#4",
                    "midi": 68,
                    "time": 10.928259999999996,
                    "velocity": 0.5669291338582677,
                    "duration": 0.2927212499999996
                },
                {
                    "name": "G#4",
                    "midi": 68,
                    "time": 11.220981249999996,
                    "velocity": 0.5118110236220472,
                    "duration": 0.09757375000000046
                },
                {
                    "name": "G#4",
                    "midi": 68,
                    "time": 11.318554999999996,
                    "velocity": 0.5669291338582677,
                    "duration": 0.04878687499999934
                },
                {
                    "name": "A#4",
                    "midi": 70,
                    "time": 11.367341874999996,
                    "velocity": 0.4881889763779528,
                    "duration": 0.04878687499999934
                },
                {
                    "name": "G#4",
                    "midi": 68,
                    "time": 11.416128749999995,
                    "velocity": 0.5669291338582677,
                    "duration": 0.04878687499999934
                },
                {
                    "name": "A#4",
                    "midi": 70,
                    "time": 11.464915624999994,
                    "velocity": 0.4566929133858268,
                    "duration": 0.04878687499999934
                },
                {
                    "name": "G#4",
                    "midi": 68,
                    "time": 11.513702499999994,
                    "velocity": 0.5433070866141733,
                    "duration": 0.03252458333333408
                },
                {
                    "name": "A#4",
                    "midi": 70,
                    "time": 11.546227083333328,
                    "velocity": 0.4645669291338583,
                    "duration": 0.03252458333333408
                },
                {
                    "name": "G#4",
                    "midi": 68,
                    "time": 11.578751666666662,
                    "velocity": 0.5433070866141733,
                    "duration": 0.03252458333333408
                },
                {
                    "name": "G4",
                    "midi": 67,
                    "time": 11.611276249999996,
                    "velocity": 0.5118110236220472,
                    "duration": 0.04878687499999934
                },
                {
                    "name": "G#4",
                    "midi": 68,
                    "time": 11.660063124999995,
                    "velocity": 0.4566929133858268,
                    "duration": 0.04878687499999934
                },
                {
                    "name": "A#4",
                    "midi": 70,
                    "time": 11.708849999999995,
                    "velocity": 0.5669291338582677,
                    "duration": 0.39029500000000006
                },
                {
                    "name": "D#4",
                    "midi": 63,
                    "time": 12.099144999999995,
                    "velocity": 0.5669291338582677,
                    "duration": 0.2927212499999996
                },
                {
                    "name": "D#5",
                    "midi": 75,
                    "time": 12.391866249999994,
                    "velocity": 0.5354330708661418,
                    "duration": 0.09757375000000046
                },
                {
                    "name": "C#5",
                    "midi": 73,
                    "time": 12.489439999999995,
                    "velocity": 0.6456692913385826,
                    "duration": 0.7805900000000001
                },
                {
                    "name": "C5",
                    "midi": 72,
                    "time": 13.270029999999995,
                    "velocity": 0.5669291338582677,
                    "duration": 0.1463606249999998
                },
                {
                    "name": "G#4",
                    "midi": 68,
                    "time": 13.660324999999995,
                    "velocity": 0.5984251968503937,
                    "duration": 0.2927212499999996
                },
                {
                    "name": "G#5",
                    "midi": 80,
                    "time": 13.953046249999995,
                    "velocity": 0.5433070866141733,
                    "duration": 0.09757375000000046
                },
                {
                    "name": "G5",
                    "midi": 79,
                    "time": 14.050619999999995,
                    "velocity": 0.6220472440944882,
                    "duration": 0.39029500000000006
                },
                {
                    "name": "F5",
                    "midi": 77,
                    "time": 14.440914999999995,
                    "velocity": 0.5354330708661418,
                    "duration": 0.09757375000000046
                },
                {
                    "name": "G#5",
                    "midi": 80,
                    "time": 14.733636249999995,
                    "velocity": 0.6141732283464567,
                    "duration": 0.09757375000000046
                },
                {
                    "name": "F5",
                    "midi": 77,
                    "time": 14.831209999999995,
                    "velocity": 0.5748031496062992,
                    "duration": 0.39029500000000006
                },
                {
                    "name": "D#5",
                    "midi": 75,
                    "time": 15.221504999999995,
                    "velocity": 0.5984251968503937,
                    "duration": 0.09757375000000046
                },
                {
                    "name": "G#5",
                    "midi": 80,
                    "time": 15.514226249999995,
                    "velocity": 0.5433070866141733,
                    "duration": 0.09757375000000046
                },
                {
                    "name": "D#5",
                    "midi": 75,
                    "time": 15.611799999999995,
                    "velocity": 0.6220472440944882,
                    "duration": 0.3902949999999983
                },
                {
                    "name": "C#5",
                    "midi": 73,
                    "time": 16.002094999999994,
                    "velocity": 0.5354330708661418,
                    "duration": 0.09757374999999868
                },
                {
                    "name": "G#5",
                    "midi": 80,
                    "time": 16.294816249999993,
                    "velocity": 0.6141732283464567,
                    "duration": 0.09757374999999868
                },
                {
                    "name": "C#5",
                    "midi": 73,
                    "time": 16.392389999999992,
                    "velocity": 0.5748031496062992,
                    "duration": 0.3902949999999983
                },
                {
                    "name": "C5",
                    "midi": 72,
                    "time": 16.78268499999999,
                    "velocity": 0.5984251968503937,
                    "duration": 0.09757374999999868
                },
                {
                    "name": "G#5",
                    "midi": 80,
                    "time": 17.07540624999999,
                    "velocity": 0.5433070866141733,
                    "duration": 0.09757374999999868
                },
                {
                    "name": "C5",
                    "midi": 72,
                    "time": 17.17297999999999,
                    "velocity": 0.5826771653543307,
                    "duration": 0.2927212499999996
                },
                {
                    "name": "A#4",
                    "midi": 70,
                    "time": 17.465701249999988,
                    "velocity": 0.5196850393700787,
                    "duration": 0.09757374999999868
                },
                {
                    "name": "C#5",
                    "midi": 73,
                    "time": 17.563274999999987,
                    "velocity": 0.5748031496062992,
                    "duration": 0.2927212499999996
                },
                {
                    "name": "F5",
                    "midi": 77,
                    "time": 17.855996249999986,
                    "velocity": 0.5196850393700787,
                    "duration": 0.09757374999999868
                },
                {
                    "name": "D#5",
                    "midi": 75,
                    "time": 17.953569999999985,
                    "velocity": 0.5984251968503937,
                    "duration": 0.3902949999999983
                },
                {
                    "name": "G4",
                    "midi": 67,
                    "time": 18.343864999999983,
                    "velocity": 0.5433070866141733,
                    "duration": 0.3659015624999995
                },
                {
                    "name": "G4",
                    "midi": 67,
                    "time": 18.709766562499983,
                    "velocity": 0.36220472440944884,
                    "duration": 0.024393437499998782
                },
                {
                    "name": "G#4",
                    "midi": 68,
                    "time": 18.73415999999998,
                    "velocity": 0.5748031496062992,
                    "duration": 0.09757374999999868
                },
                {
                    "name": "G4",
                    "midi": 67,
                    "time": 19.10006156249998,
                    "velocity": 0.41732283464566927,
                    "duration": 0.024393437499998782
                },
                {
                    "name": "G#4",
                    "midi": 68,
                    "time": 19.12445499999998,
                    "velocity": 0.5748031496062992,
                    "duration": 0.09757374999999868
                },
                {
                    "name": "G4",
                    "midi": 67,
                    "time": 19.49035656249998,
                    "velocity": 0.4330708661417323,
                    "duration": 0.024393437499998782
                },
                {
                    "name": "G#4",
                    "midi": 68,
                    "time": 19.514749999999978,
                    "velocity": 0.5748031496062992,
                    "duration": 0.09757374999999868
                },
                {
                    "name": "A4",
                    "midi": 69,
                    "time": 19.880651562499978,
                    "velocity": 0.4330708661417323,
                    "duration": 0.024393437499998782
                },
                {
                    "name": "A#4",
                    "midi": 70,
                    "time": 19.905044999999976,
                    "velocity": 0.6220472440944882,
                    "duration": 0.09757374999999868
                },
                {
                    "name": "B4",
                    "midi": 71,
                    "time": 20.295339999999975,
                    "velocity": 0.5984251968503937,
                    "duration": 0.3902949999999983
                },
                {
                    "name": "C5",
                    "midi": 72,
                    "time": 20.685634999999973,
                    "velocity": 0.5433070866141733,
                    "duration": 0.3902949999999983
                },
                {
                    "name": "G#4",
                    "midi": 68,
                    "time": 21.07592999999997,
                    "velocity": 0.48031496062992124,
                    "duration": 0.7805900000000001
                },
                {
                    "name": "B4",
                    "midi": 71,
                    "time": 21.832126562499973,
                    "velocity": 0.36220472440944884,
                    "duration": 0.024393437499998782
                },
                {
                    "name": "C5",
                    "midi": 72,
                    "time": 21.85651999999997,
                    "velocity": 0.5748031496062992,
                    "duration": 0.09757374999999868
                },
                {
                    "name": "B4",
                    "midi": 71,
                    "time": 22.22242156249997,
                    "velocity": 0.41732283464566927,
                    "duration": 0.024393437499998782
                },
                {
                    "name": "C5",
                    "midi": 72,
                    "time": 22.24681499999997,
                    "velocity": 0.5748031496062992,
                    "duration": 0.09757374999999868
                },
                {
                    "name": "B4",
                    "midi": 71,
                    "time": 22.61271656249997,
                    "velocity": 0.4330708661417323,
                    "duration": 0.024393437499998782
                },
                {
                    "name": "C5",
                    "midi": 72,
                    "time": 22.637109999999968,
                    "velocity": 0.5748031496062992,
                    "duration": 0.09757374999999868
                },
                {
                    "name": "D#5",
                    "midi": 75,
                    "time": 23.027404999999966,
                    "velocity": 0.6220472440944882,
                    "duration": 0.09757374999999868
                },
                {
                    "name": "C#5",
                    "midi": 73,
                    "time": 23.124978749999965,
                    "velocity": 0.5590551181102362,
                    "duration": 0.09757374999999868
                },
                {
                    "name": "C5",
                    "midi": 72,
                    "time": 23.222552499999964,
                    "velocity": 0.5984251968503937,
                    "duration": 0.09757374999999868
                },
                {
                    "name": "C#5",
                    "midi": 73,
                    "time": 23.320126249999962,
                    "velocity": 0.5433070866141733,
                    "duration": 0.09757374999999868
                },
                {
                    "name": "D#5",
                    "midi": 75,
                    "time": 23.41769999999996,
                    "velocity": 0.6220472440944882,
                    "duration": 0.7805900000000001
                },
                {
                    "name": "C5",
                    "midi": 72,
                    "time": 24.19828999999996,
                    "velocity": 0.5354330708661418,
                    "duration": 0.7805900000000001
                },
                {
                    "name": "G#5",
                    "midi": 80,
                    "time": 24.97887999999996,
                    "velocity": 0.7244094488188977,
                    "duration": 0.3902949999999983
                },
                {
                    "name": "G#5",
                    "midi": 80,
                    "time": 25.36917499999996,
                    "velocity": 0.6692913385826772,
                    "duration": 0.13009833333333276
                },
                {
                    "name": "C6",
                    "midi": 84,
                    "time": 25.499273333333292,
                    "velocity": 0.5669291338582677,
                    "duration": 0.13009833333333276
                },
                {
                    "name": "D#6",
                    "midi": 87,
                    "time": 25.629371666666625,
                    "velocity": 0.5669291338582677,
                    "duration": 0.13009833333333276
                },
                {
                    "name": "F#5",
                    "midi": 78,
                    "time": 25.759469999999958,
                    "velocity": 0.6456692913385826,
                    "duration": 0.7805900000000001
                },
                {
                    "name": "F5",
                    "midi": 77,
                    "time": 26.540059999999958,
                    "velocity": 0.7244094488188977,
                    "duration": 0.3902949999999983
                },
                {
                    "name": "F5",
                    "midi": 77,
                    "time": 26.930354999999956,
                    "velocity": 0.6692913385826772,
                    "duration": 0.13009833333333276
                },
                {
                    "name": "A#5",
                    "midi": 82,
                    "time": 27.06045333333329,
                    "velocity": 0.5669291338582677,
                    "duration": 0.13009833333333276
                },
                {
                    "name": "C#6",
                    "midi": 85,
                    "time": 27.19055166666662,
                    "velocity": 0.5669291338582677,
                    "duration": 0.13009833333333276
                },
                {
                    "name": "D#5",
                    "midi": 75,
                    "time": 27.320649999999954,
                    "velocity": 0.6456692913385826,
                    "duration": 0.5854424999999992
                },
                {
                    "name": "F5",
                    "midi": 77,
                    "time": 27.906092499999954,
                    "velocity": 0.5905511811023622,
                    "duration": 0.09757374999999868
                },
                {
                    "name": "G5",
                    "midi": 79,
                    "time": 28.003666249999952,
                    "velocity": 0.6456692913385826,
                    "duration": 0.09757374999999868
                },
                {
                    "name": "G#5",
                    "midi": 80,
                    "time": 28.10123999999995,
                    "velocity": 0.7401574803149606,
                    "duration": 0.3902949999999983
                },
                {
                    "name": "G#5",
                    "midi": 80,
                    "time": 28.49153499999995,
                    "velocity": 0.6377952755905512,
                    "duration": 0.13009833333333276
                },
                {
                    "name": "A#5",
                    "midi": 82,
                    "time": 28.621633333333282,
                    "velocity": 0.5669291338582677,
                    "duration": 0.13009833333333276
                },
                {
                    "name": "C6",
                    "midi": 84,
                    "time": 28.751731666666615,
                    "velocity": 0.5196850393700787,
                    "duration": 0.13009833333333276
                },
                {
                    "name": "C#5",
                    "midi": 73,
                    "time": 28.881829999999947,
                    "velocity": 0.6614173228346457,
                    "duration": 0.7805900000000001
                },
                {
                    "name": "C5",
                    "midi": 72,
                    "time": 29.662419999999948,
                    "velocity": 0.6377952755905512,
                    "duration": 0.13009833333333276
                },
                {
                    "name": "D#5",
                    "midi": 75,
                    "time": 29.79251833333328,
                    "velocity": 0.5590551181102362,
                    "duration": 0.13009833333333276
                },
                {
                    "name": "C#5",
                    "midi": 73,
                    "time": 29.922616666666613,
                    "velocity": 0.5590551181102362,
                    "duration": 0.13009833333333276
                },
                {
                    "name": "C5",
                    "midi": 72,
                    "time": 30.052714999999946,
                    "velocity": 0.5196850393700787,
                    "duration": 0.13009833333333276
                },
                {
                    "name": "C6",
                    "midi": 84,
                    "time": 30.18281333333328,
                    "velocity": 0.6141732283464567,
                    "duration": 0.13009833333333276
                },
                {
                    "name": "A#5",
                    "midi": 82,
                    "time": 30.31291166666661,
                    "velocity": 0.5590551181102362,
                    "duration": 0.13009833333333276
                },
                {
                    "name": "G#5",
                    "midi": 80,
                    "time": 30.443009999999944,
                    "velocity": 0.5590551181102362,
                    "duration": 0.13009833333333276
                },
                {
                    "name": "G5",
                    "midi": 79,
                    "time": 30.573108333333277,
                    "velocity": 0.6141732283464567,
                    "duration": 0.13009833333333276
                },
                {
                    "name": "F5",
                    "midi": 77,
                    "time": 30.70320666666661,
                    "velocity": 0.5354330708661418,
                    "duration": 0.13009833333333276
                },
                {
                    "name": "D#5",
                    "midi": 75,
                    "time": 30.833304999999942,
                    "velocity": 0.6220472440944882,
                    "duration": 0.13009833333333276
                },
                {
                    "name": "C#5",
                    "midi": 73,
                    "time": 30.963403333333275,
                    "velocity": 0.5590551181102362,
                    "duration": 0.13009833333333276
                },
                {
                    "name": "C5",
                    "midi": 72,
                    "time": 31.093501666666608,
                    "velocity": 0.5590551181102362,
                    "duration": 0.13009833333333276
                },
                {
                    "name": "D#5",
                    "midi": 75,
                    "time": 31.22359999999994,
                    "velocity": 0.6377952755905512,
                    "duration": 0.2927212499999996
                },
                {
                    "name": "C5",
                    "midi": 72,
                    "time": 31.51632124999994,
                    "velocity": 0.4566929133858268,
                    "duration": 0.09757374999999868
                },
                {
                    "name": "A#4",
                    "midi": 70,
                    "time": 31.61389499999994,
                    "velocity": 0.5511811023622047,
                    "duration": 0.2927212499999996
                },
                {
                    "name": "A#4",
                    "midi": 70,
                    "time": 32.39448499999994,
                    "velocity": 0.5669291338582677,
                    "duration": 0.2927212499999996
                },
                {
                    "name": "G4",
                    "midi": 67,
                    "time": 32.68720624999994,
                    "velocity": 0.5196850393700787,
                    "duration": 0.09757375000000224
                },
                {
                    "name": "D#5",
                    "midi": 75,
                    "time": 32.78477999999994,
                    "velocity": 0.5669291338582677,
                    "duration": 0.2927212499999996
                },
                {
                    "name": "D#5",
                    "midi": 75,
                    "time": 33.07750124999994,
                    "velocity": 0.5118110236220472,
                    "duration": 0.09757375000000224
                },
                {
                    "name": "D#5",
                    "midi": 75,
                    "time": 33.17507499999994,
                    "velocity": 0.5669291338582677,
                    "duration": 0.048786874999997565
                },
                {
                    "name": "F5",
                    "midi": 77,
                    "time": 33.22386187499994,
                    "velocity": 0.4881889763779528,
                    "duration": 0.048786874999997565
                },
                {
                    "name": "D#5",
                    "midi": 75,
                    "time": 33.27264874999994,
                    "velocity": 0.5669291338582677,
                    "duration": 0.048786874999997565
                },
                {
                    "name": "F5",
                    "midi": 77,
                    "time": 33.321435624999935,
                    "velocity": 0.4566929133858268,
                    "duration": 0.048786874999997565
                },
                {
                    "name": "D#5",
                    "midi": 75,
                    "time": 33.37022249999993,
                    "velocity": 0.5433070866141733,
                    "duration": 0.03252458333333408
                },
                {
                    "name": "F5",
                    "midi": 77,
                    "time": 33.40274708333327,
                    "velocity": 0.4645669291338583,
                    "duration": 0.03252458333333408
                },
                {
                    "name": "D#5",
                    "midi": 75,
                    "time": 33.4352716666666,
                    "velocity": 0.5433070866141733,
                    "duration": 0.03252458333333408
                },
                {
                    "name": "D5",
                    "midi": 74,
                    "time": 33.467796249999935,
                    "velocity": 0.5118110236220472,
                    "duration": 0.048786874999997565
                },
                {
                    "name": "D#5",
                    "midi": 75,
                    "time": 33.51658312499993,
                    "velocity": 0.4566929133858268,
                    "duration": 0.048786874999997565
                },
                {
                    "name": "F5",
                    "midi": 77,
                    "time": 33.56536999999993,
                    "velocity": 0.5669291338582677,
                    "duration": 0.19514749999999736
                },
                {
                    "name": "D5",
                    "midi": 74,
                    "time": 33.955664999999925,
                    "velocity": 0.5669291338582677,
                    "duration": 0.2927212499999996
                },
                {
                    "name": "A#4",
                    "midi": 70,
                    "time": 34.248386249999925,
                    "velocity": 0.5196850393700787,
                    "duration": 0.09757375000000224
                },
                {
                    "name": "F5",
                    "midi": 77,
                    "time": 34.34595999999993,
                    "velocity": 0.5669291338582677,
                    "duration": 0.2927212499999996
                },
                {
                    "name": "F5",
                    "midi": 77,
                    "time": 34.63868124999993,
                    "velocity": 0.5118110236220472,
                    "duration": 0.09757375000000224
                },
                {
                    "name": "F5",
                    "midi": 77,
                    "time": 34.73625499999993,
                    "velocity": 0.5669291338582677,
                    "duration": 0.048786874999997565
                },
                {
                    "name": "G5",
                    "midi": 79,
                    "time": 34.785041874999926,
                    "velocity": 0.4881889763779528,
                    "duration": 0.048786874999997565
                },
                {
                    "name": "F5",
                    "midi": 77,
                    "time": 34.833828749999924,
                    "velocity": 0.5669291338582677,
                    "duration": 0.048786874999997565
                },
                {
                    "name": "G5",
                    "midi": 79,
                    "time": 34.88261562499992,
                    "velocity": 0.4566929133858268,
                    "duration": 0.048786874999997565
                },
                {
                    "name": "F5",
                    "midi": 77,
                    "time": 34.93140249999992,
                    "velocity": 0.5433070866141733,
                    "duration": 0.03252458333333408
                },
                {
                    "name": "G5",
                    "midi": 79,
                    "time": 34.96392708333325,
                    "velocity": 0.4645669291338583,
                    "duration": 0.03252458333333408
                },
                {
                    "name": "F5",
                    "midi": 77,
                    "time": 34.99645166666659,
                    "velocity": 0.5433070866141733,
                    "duration": 0.03252458333333408
                },
                {
                    "name": "D#5",
                    "midi": 75,
                    "time": 35.02897624999992,
                    "velocity": 0.5118110236220472,
                    "duration": 0.048786874999997565
                },
                {
                    "name": "F5",
                    "midi": 77,
                    "time": 35.07776312499992,
                    "velocity": 0.4566929133858268,
                    "duration": 0.048786874999997565
                },
                {
                    "name": "G5",
                    "midi": 79,
                    "time": 35.12654999999992,
                    "velocity": 0.5669291338582677,
                    "duration": 0.2927212499999996
                },
                {
                    "name": "G5",
                    "midi": 79,
                    "time": 35.419271249999916,
                    "velocity": 0.5118110236220472,
                    "duration": 0.09757375000000224
                },
                {
                    "name": "G5",
                    "midi": 79,
                    "time": 35.51684499999992,
                    "velocity": 0.5748031496062992,
                    "duration": 0.048786874999997565
                },
                {
                    "name": "G#5",
                    "midi": 80,
                    "time": 35.565631874999916,
                    "velocity": 0.49606299212598426,
                    "duration": 0.048786874999997565
                },
                {
                    "name": "G5",
                    "midi": 79,
                    "time": 35.61441874999991,
                    "velocity": 0.5748031496062992,
                    "duration": 0.048786874999997565
                },
                {
                    "name": "G#5",
                    "midi": 80,
                    "time": 35.66320562499991,
                    "velocity": 0.4645669291338583,
                    "duration": 0.048786874999997565
                },
                {
                    "name": "G5",
                    "midi": 79,
                    "time": 35.71199249999991,
                    "velocity": 0.5590551181102362,
                    "duration": 0.03252458333333408
                },
                {
                    "name": "G#5",
                    "midi": 80,
                    "time": 35.74451708333324,
                    "velocity": 0.47244094488188976,
                    "duration": 0.03252458333333408
                },
                {
                    "name": "G5",
                    "midi": 79,
                    "time": 35.77704166666658,
                    "velocity": 0.5669291338582677,
                    "duration": 0.03252458333333408
                },
                {
                    "name": "F5",
                    "midi": 77,
                    "time": 35.80956624999991,
                    "velocity": 0.5354330708661418,
                    "duration": 0.048786874999997565
                },
                {
                    "name": "G5",
                    "midi": 79,
                    "time": 35.85835312499991,
                    "velocity": 0.47244094488188976,
                    "duration": 0.048786874999997565
                },
                {
                    "name": "G#5",
                    "midi": 80,
                    "time": 35.907139999999906,
                    "velocity": 0.5984251968503937,
                    "duration": 0.2927212499999996
                },
                {
                    "name": "G#5",
                    "midi": 80,
                    "time": 36.199861249999906,
                    "velocity": 0.5433070866141733,
                    "duration": 0.09757375000000224
                },
                {
                    "name": "G#5",
                    "midi": 80,
                    "time": 36.29743499999991,
                    "velocity": 0.6141732283464567,
                    "duration": 0.048786874999997565
                },
                {
                    "name": "A#5",
                    "midi": 82,
                    "time": 36.346221874999905,
                    "velocity": 0.5196850393700787,
                    "duration": 0.048786874999997565
                },
                {
                    "name": "G#5",
                    "midi": 80,
                    "time": 36.3950087499999,
                    "velocity": 0.6141732283464567,
                    "duration": 0.048786874999997565
                },
                {
                    "name": "A#5",
                    "midi": 82,
                    "time": 36.4437956249999,
                    "velocity": 0.49606299212598426,
                    "duration": 0.048786874999997565
                },
                {
                    "name": "G#5",
                    "midi": 80,
                    "time": 36.4925824999999,
                    "velocity": 0.5905511811023622,
                    "duration": 0.03252458333333408
                },
                {
                    "name": "A#5",
                    "midi": 82,
                    "time": 36.52510708333323,
                    "velocity": 0.5118110236220472,
                    "duration": 0.03252458333333408
                },
                {
                    "name": "G#5",
                    "midi": 80,
                    "time": 36.557631666666566,
                    "velocity": 0.5984251968503937,
                    "duration": 0.03252458333333408
                },
                {
                    "name": "G5",
                    "midi": 79,
                    "time": 36.5901562499999,
                    "velocity": 0.5590551181102362,
                    "duration": 0.048786874999997565
                },
                {
                    "name": "G#5",
                    "midi": 80,
                    "time": 36.6389431249999,
                    "velocity": 0.49606299212598426,
                    "duration": 0.048786874999997565
                },
                {
                    "name": "A#5",
                    "midi": 82,
                    "time": 36.687729999999895,
                    "velocity": 0.6377952755905512,
                    "duration": 0.2927212499999996
                },
                {
                    "name": "A#5",
                    "midi": 82,
                    "time": 36.980451249999895,
                    "velocity": 0.5748031496062992,
                    "duration": 0.09757375000000224
                },
                {
                    "name": "A#5",
                    "midi": 82,
                    "time": 37.0780249999999,
                    "velocity": 0.6456692913385826,
                    "duration": 0.048786874999997565
                },
                {
                    "name": "C6",
                    "midi": 84,
                    "time": 37.126811874999895,
                    "velocity": 0.5590551181102362,
                    "duration": 0.048786874999997565
                },
                {
                    "name": "A#5",
                    "midi": 82,
                    "time": 37.17559874999989,
                    "velocity": 0.6456692913385826,
                    "duration": 0.048786874999997565
                },
                {
                    "name": "C6",
                    "midi": 84,
                    "time": 37.22438562499989,
                    "velocity": 0.5196850393700787,
                    "duration": 0.048786874999997565
                },
                {
                    "name": "A#5",
                    "midi": 82,
                    "time": 37.27317249999989,
                    "velocity": 0.6220472440944882,
                    "duration": 0.03252458333333408
                },
                {
                    "name": "C6",
                    "midi": 84,
                    "time": 37.30569708333322,
                    "velocity": 0.5354330708661418,
                    "duration": 0.03252458333333408
                },
                {
                    "name": "A#5",
                    "midi": 82,
                    "time": 37.338221666666556,
                    "velocity": 0.6377952755905512,
                    "duration": 0.03252458333333408
                },
                {
                    "name": "G#5",
                    "midi": 80,
                    "time": 37.37074624999989,
                    "velocity": 0.5905511811023622,
                    "duration": 0.048786874999997565
                },
                {
                    "name": "A#5",
                    "midi": 82,
                    "time": 37.41953312499989,
                    "velocity": 0.5196850393700787,
                    "duration": 0.048786874999997565
                },
                {
                    "name": "C6",
                    "midi": 84,
                    "time": 37.468319999999885,
                    "velocity": 0.6692913385826772,
                    "duration": 1.1708849999999984
                },
                {
                    "name": "E5",
                    "midi": 76,
                    "time": 38.63920499999988,
                    "velocity": 0.6220472440944882,
                    "duration": 0.39029500000000183
                },
                {
                    "name": "F5",
                    "midi": 77,
                    "time": 39.029499999999885,
                    "velocity": 0.6377952755905512,
                    "duration": 0.1300983333333363
                },
                {
                    "name": "G#5",
                    "midi": 80,
                    "time": 39.15959833333322,
                    "velocity": 0.5590551181102362,
                    "duration": 0.1300983333333363
                },
                {
                    "name": "G5",
                    "midi": 79,
                    "time": 39.28969666666656,
                    "velocity": 0.5590551181102362,
                    "duration": 0.1300983333333363
                },
                {
                    "name": "F5",
                    "midi": 77,
                    "time": 39.419794999999894,
                    "velocity": 0.5196850393700787,
                    "duration": 0.1300983333333363
                },
                {
                    "name": "C6",
                    "midi": 84,
                    "time": 39.54989333333323,
                    "velocity": 0.6062992125984252,
                    "duration": 0.1300983333333363
                },
                {
                    "name": "A#5",
                    "midi": 82,
                    "time": 39.67999166666657,
                    "velocity": 0.5433070866141733,
                    "duration": 0.1300983333333363
                },
                {
                    "name": "G#5",
                    "midi": 80,
                    "time": 39.8100899999999,
                    "velocity": 0.5433070866141733,
                    "duration": 0.1300983333333363
                },
                {
                    "name": "G5",
                    "midi": 79,
                    "time": 39.94018833333324,
                    "velocity": 0.5118110236220472,
                    "duration": 0.1300983333333363
                },
                {
                    "name": "F5",
                    "midi": 77,
                    "time": 40.070286666666576,
                    "velocity": 0.5039370078740157,
                    "duration": 0.1300983333333363
                },
                {
                    "name": "D#5",
                    "midi": 75,
                    "time": 40.20038499999991,
                    "velocity": 0.5748031496062992,
                    "duration": 0.1300983333333363
                },
                {
                    "name": "D5",
                    "midi": 74,
                    "time": 40.33048333333325,
                    "velocity": 0.5196850393700787,
                    "duration": 0.1300983333333363
                },
                {
                    "name": "C5",
                    "midi": 72,
                    "time": 40.460581666666585,
                    "velocity": 0.5118110236220472,
                    "duration": 0.1300983333333363
                },
                {
                    "name": "A#5",
                    "midi": 82,
                    "time": 40.59067999999992,
                    "velocity": 0.6692913385826772,
                    "duration": 1.1708849999999984
                },
                {
                    "name": "D5",
                    "midi": 74,
                    "time": 41.76156499999992,
                    "velocity": 0.6220472440944882,
                    "duration": 0.39029500000000183
                },
                {
                    "name": "D#5",
                    "midi": 75,
                    "time": 42.15185999999992,
                    "velocity": 0.6377952755905512,
                    "duration": 0.1300983333333363
                },
                {
                    "name": "G5",
                    "midi": 79,
                    "time": 42.28195833333326,
                    "velocity": 0.5590551181102362,
                    "duration": 0.1300983333333363
                },
                {
                    "name": "F5",
                    "midi": 77,
                    "time": 42.412056666666594,
                    "velocity": 0.5590551181102362,
                    "duration": 0.1300983333333363
                },
                {
                    "name": "D#5",
                    "midi": 75,
                    "time": 42.54215499999993,
                    "velocity": 0.5196850393700787,
                    "duration": 0.1300983333333363
                },
                {
                    "name": "A#5",
                    "midi": 82,
                    "time": 42.672253333333266,
                    "velocity": 0.6141732283464567,
                    "duration": 0.1300983333333363
                },
                {
                    "name": "G#5",
                    "midi": 80,
                    "time": 42.8023516666666,
                    "velocity": 0.5511811023622047,
                    "duration": 0.1300983333333363
                },
                {
                    "name": "G5",
                    "midi": 79,
                    "time": 42.93244999999994,
                    "velocity": 0.5511811023622047,
                    "duration": 0.1300983333333363
                },
                {
                    "name": "F5",
                    "midi": 77,
                    "time": 43.062548333333275,
                    "velocity": 0.5196850393700787,
                    "duration": 0.1300983333333363
                },
                {
                    "name": "D#5",
                    "midi": 75,
                    "time": 43.19264666666661,
                    "velocity": 0.5196850393700787,
                    "duration": 0.1300983333333363
                },
                {
                    "name": "D5",
                    "midi": 74,
                    "time": 43.32274499999995,
                    "velocity": 0.6062992125984252,
                    "duration": 0.1300983333333363
                },
                {
                    "name": "C5",
                    "midi": 72,
                    "time": 43.452843333333284,
                    "velocity": 0.5511811023622047,
                    "duration": 0.1300983333333363
                },
                {
                    "name": "A#4",
                    "midi": 70,
                    "time": 43.58294166666662,
                    "velocity": 0.5118110236220472,
                    "duration": 0.1300983333333363
                },
                {
                    "name": "G#5",
                    "midi": 80,
                    "time": 43.71303999999996,
                    "velocity": 0.6692913385826772,
                    "duration": 1.1708849999999984
                },
                {
                    "name": "G5",
                    "midi": 79,
                    "time": 44.883924999999955,
                    "velocity": 0.5984251968503937,
                    "duration": 0.1300983333333363
                },
                {
                    "name": "F5",
                    "midi": 77,
                    "time": 45.01402333333329,
                    "velocity": 0.5354330708661418,
                    "duration": 0.1300983333333363
                },
                {
                    "name": "D#5",
                    "midi": 75,
                    "time": 45.14412166666663,
                    "velocity": 0.4566929133858268,
                    "duration": 0.11383604166666572
                },
                {
                    "name": "D#5",
                    "midi": 75,
                    "time": 45.27421999999996,
                    "velocity": 0.5669291338582677,
                    "duration": 0.19514749999999736
                },
                {
                    "name": "D5",
                    "midi": 74,
                    "time": 45.469367499999954,
                    "velocity": 0.4566929133858268,
                    "duration": 0.17888520833333388
                },
                {
                    "name": "D5",
                    "midi": 74,
                    "time": 45.66451499999995,
                    "velocity": 0.4881889763779528,
                    "duration": 0.7805899999999966
                },
                {
                    "name": "D#5",
                    "midi": 75,
                    "time": 46.44510499999995,
                    "velocity": 0.5669291338582677,
                    "duration": 0.39029500000000183
                },
                {
                    "name": "F5",
                    "midi": 77,
                    "time": 46.83539999999995,
                    "velocity": 0.6692913385826772,
                    "duration": 0.1300983333333363
                },
                {
                    "name": "G5",
                    "midi": 79,
                    "time": 46.96549833333329,
                    "velocity": 0.5669291338582677,
                    "duration": 0.1300983333333363
                },
                {
                    "name": "G#5",
                    "midi": 80,
                    "time": 47.09559666666662,
                    "velocity": 0.5196850393700787,
                    "duration": 0.11383604166666572
                },
                {
                    "name": "G#5",
                    "midi": 80,
                    "time": 47.22569499999995,
                    "velocity": 0.6692913385826772,
                    "duration": 0.7805899999999966
                },
                {
                    "name": "G5",
                    "midi": 79,
                    "time": 48.00628499999995,
                    "velocity": 0.5984251968503937,
                    "duration": 0.1300983333333363
                },
                {
                    "name": "F5",
                    "midi": 77,
                    "time": 48.136383333333285,
                    "velocity": 0.5354330708661418,
                    "duration": 0.1300983333333363
                },
                {
                    "name": "D#5",
                    "midi": 75,
                    "time": 48.26648166666662,
                    "velocity": 0.4566929133858268,
                    "duration": 0.11383604166666572
                },
                {
                    "name": "D#5",
                    "midi": 75,
                    "time": 48.39657999999995,
                    "velocity": 0.5669291338582677,
                    "duration": 0.19514749999999736
                },
                {
                    "name": "D5",
                    "midi": 74,
                    "time": 48.59172749999995,
                    "velocity": 0.4566929133858268,
                    "duration": 0.17888520833333388
                },
                {
                    "name": "D5",
                    "midi": 74,
                    "time": 48.786874999999945,
                    "velocity": 0.4881889763779528,
                    "duration": 0.7805899999999966
                },
                {
                    "name": "D#5",
                    "midi": 75,
                    "time": 49.56746499999994,
                    "velocity": 0.5669291338582677,
                    "duration": 0.39029500000000183
                },
                {
                    "name": "F5",
                    "midi": 77,
                    "time": 49.95775999999994,
                    "velocity": 0.6692913385826772,
                    "duration": 0.1300983333333363
                },
                {
                    "name": "G5",
                    "midi": 79,
                    "time": 50.08785833333328,
                    "velocity": 0.5669291338582677,
                    "duration": 0.1300983333333363
                },
                {
                    "name": "G#5",
                    "midi": 80,
                    "time": 50.217956666666616,
                    "velocity": 0.5196850393700787,
                    "duration": 0.11383604166666572
                },
                {
                    "name": "G#5",
                    "midi": 80,
                    "time": 50.348054999999945,
                    "velocity": 0.6692913385826772,
                    "duration": 0.7805899999999966
                },
                {
                    "name": "G5",
                    "midi": 79,
                    "time": 51.12864499999994,
                    "velocity": 0.5984251968503937,
                    "duration": 0.39029500000000183
                },
                {
                    "name": "F5",
                    "midi": 77,
                    "time": 51.518939999999944,
                    "velocity": 0.5196850393700787,
                    "duration": 0.1300983333333363
                },
                {
                    "name": "C6",
                    "midi": 84,
                    "time": 51.64903833333328,
                    "velocity": 0.6377952755905512,
                    "duration": 0.1300983333333363
                },
                {
                    "name": "A#5",
                    "midi": 82,
                    "time": 51.779136666666616,
                    "velocity": 0.5748031496062992,
                    "duration": 0.1300983333333363
                },
                {
                    "name": "G#5",
                    "midi": 80,
                    "time": 51.90923499999995,
                    "velocity": 0.5748031496062992,
                    "duration": 0.1300983333333363
                },
                {
                    "name": "G5",
                    "midi": 79,
                    "time": 52.03933333333329,
                    "velocity": 0.5433070866141733,
                    "duration": 0.1300983333333363
                },
                {
                    "name": "F5",
                    "midi": 77,
                    "time": 52.169431666666625,
                    "velocity": 0.5039370078740157,
                    "duration": 0.1300983333333363
                },
                {
                    "name": "D#5",
                    "midi": 75,
                    "time": 52.29952999999996,
                    "velocity": 0.6220472440944882,
                    "duration": 0.39029500000000183
                },
                {
                    "name": "D5",
                    "midi": 74,
                    "time": 52.68982499999996,
                    "velocity": 0.47244094488188976,
                    "duration": 0.39029500000000183
                },
                {
                    "name": "D5",
                    "midi": 74,
                    "time": 53.080119999999965,
                    "velocity": 0.5354330708661418,
                    "duration": 0.7805899999999966
                },
                {
                    "name": "D#5",
                    "midi": 75,
                    "time": 53.86070999999996,
                    "velocity": 0.3937007874015748,
                    "duration": 0.39029500000000183
                },
                {
                    "name": "G#3",
                    "midi": 56,
                    "time": 54.641299999999966,
                    "velocity": 0.5354330708661418,
                    "duration": 0.9106883333333329
                },
                {
                    "name": "C4",
                    "midi": 60,
                    "time": 55.5519883333333,
                    "velocity": 0.5118110236220472,
                    "duration": 0.1300983333333363
                },
                {
                    "name": "A#3",
                    "midi": 58,
                    "time": 55.682086666666635,
                    "velocity": 0.4409448818897638,
                    "duration": 0.1300983333333363
                },
                {
                    "name": "G#3",
                    "midi": 56,
                    "time": 55.81218499999997,
                    "velocity": 0.5196850393700787,
                    "duration": 0.06504916666666816
                },
                {
                    "name": "G#3",
                    "midi": 56,
                    "time": 55.94228333333331,
                    "velocity": 0.4566929133858268,
                    "duration": 0.06504916666666816
                },
                {
                    "name": "G#3",
                    "midi": 56,
                    "time": 56.072381666666644,
                    "velocity": 0.4566929133858268,
                    "duration": 0.06504916666666816
                },
                {
                    "name": "G#3",
                    "midi": 56,
                    "time": 56.20247999999998,
                    "velocity": 0.5354330708661418,
                    "duration": 0.9106883333333329
                },
                {
                    "name": "F4",
                    "midi": 65,
                    "time": 57.11316833333331,
                    "velocity": 0.5118110236220472,
                    "duration": 0.1300983333333363
                },
                {
                    "name": "D4",
                    "midi": 62,
                    "time": 57.24326666666665,
                    "velocity": 0.4409448818897638,
                    "duration": 0.1300983333333363
                },
                {
                    "name": "G#3",
                    "midi": 56,
                    "time": 57.373364999999986,
                    "velocity": 0.5196850393700787,
                    "duration": 0.06504916666666816
                },
                {
                    "name": "G#3",
                    "midi": 56,
                    "time": 57.50346333333332,
                    "velocity": 0.4566929133858268,
                    "duration": 0.06504916666666816
                },
                {
                    "name": "G#3",
                    "midi": 56,
                    "time": 57.63356166666666,
                    "velocity": 0.4566929133858268,
                    "duration": 0.06504916666666816
                },
                {
                    "name": "G3",
                    "midi": 55,
                    "time": 57.763659999999994,
                    "velocity": 0.47244094488188976,
                    "duration": 0.1300983333333363
                },
                {
                    "name": "A#3",
                    "midi": 58,
                    "time": 57.89375833333333,
                    "velocity": 0.3858267716535433,
                    "duration": 0.1300983333333363
                },
                {
                    "name": "D#4",
                    "midi": 63,
                    "time": 58.02385666666667,
                    "velocity": 0.3858267716535433,
                    "duration": 0.06504916666666816
                },
                {
                    "name": "D#4",
                    "midi": 63,
                    "time": 58.153955,
                    "velocity": 0.4409448818897638,
                    "duration": 0.06504916666666816
                },
                {
                    "name": "D#4",
                    "midi": 63,
                    "time": 58.28405333333334,
                    "velocity": 0.3858267716535433,
                    "duration": 0.06504916666666816
                },
                {
                    "name": "D#4",
                    "midi": 63,
                    "time": 58.414151666666676,
                    "velocity": 0.3858267716535433,
                    "duration": 0.06504916666666816
                },
                {
                    "name": "D4",
                    "midi": 62,
                    "time": 58.54425000000001,
                    "velocity": 0.47244094488188976,
                    "duration": 0.1300983333333363
                },
                {
                    "name": "F4",
                    "midi": 65,
                    "time": 58.67434833333335,
                    "velocity": 0.3858267716535433,
                    "duration": 0.1300983333333363
                },
                {
                    "name": "G#4",
                    "midi": 68,
                    "time": 58.804446666666685,
                    "velocity": 0.3858267716535433,
                    "duration": 0.06504916666666816
                },
                {
                    "name": "G#4",
                    "midi": 68,
                    "time": 58.93454500000002,
                    "velocity": 0.4409448818897638,
                    "duration": 0.06504916666666816
                },
                {
                    "name": "G#4",
                    "midi": 68,
                    "time": 59.06464333333336,
                    "velocity": 0.3858267716535433,
                    "duration": 0.06504916666666816
                },
                {
                    "name": "G#4",
                    "midi": 68,
                    "time": 59.194741666666694,
                    "velocity": 0.3858267716535433,
                    "duration": 0.06504916666666816
                },
                {
                    "name": "G4",
                    "midi": 67,
                    "time": 59.32484000000003,
                    "velocity": 0.5433070866141733,
                    "duration": 0.1300983333333363
                },
                {
                    "name": "A#4",
                    "midi": 70,
                    "time": 59.45493833333337,
                    "velocity": 0.4409448818897638,
                    "duration": 0.1300983333333363
                },
                {
                    "name": "D#5",
                    "midi": 75,
                    "time": 59.5850366666667,
                    "velocity": 0.4409448818897638,
                    "duration": 0.06504916666666816
                },
                {
                    "name": "D#5",
                    "midi": 75,
                    "time": 59.71513500000004,
                    "velocity": 0.49606299212598426,
                    "duration": 0.06504916666666816
                },
                {
                    "name": "D#5",
                    "midi": 75,
                    "time": 59.845233333333375,
                    "velocity": 0.4409448818897638,
                    "duration": 0.06504916666666816
                },
                {
                    "name": "D#5",
                    "midi": 75,
                    "time": 59.97533166666671,
                    "velocity": 0.4409448818897638,
                    "duration": 0.06504916666666816
                },
                {
                    "name": "D5",
                    "midi": 74,
                    "time": 60.10543000000005,
                    "velocity": 0.5905511811023622,
                    "duration": 0.1300983333333363
                },
                {
                    "name": "F5",
                    "midi": 77,
                    "time": 60.235528333333384,
                    "velocity": 0.48031496062992124,
                    "duration": 0.1300983333333363
                },
                {
                    "name": "G#5",
                    "midi": 80,
                    "time": 60.36562666666672,
                    "velocity": 0.48031496062992124,
                    "duration": 0.06504916666666816
                },
                {
                    "name": "G#5",
                    "midi": 80,
                    "time": 60.49572500000006,
                    "velocity": 0.5354330708661418,
                    "duration": 0.06504916666666816
                },
                {
                    "name": "G#5",
                    "midi": 80,
                    "time": 60.62582333333339,
                    "velocity": 0.48031496062992124,
                    "duration": 0.06504916666666816
                },
                {
                    "name": "G#5",
                    "midi": 80,
                    "time": 60.75592166666673,
                    "velocity": 0.48031496062992124,
                    "duration": 0.06504916666666816
                },
                {
                    "name": "G5",
                    "midi": 79,
                    "time": 60.886020000000066,
                    "velocity": 0.6141732283464567,
                    "duration": 0.1300983333333363
                },
                {
                    "name": "G#5",
                    "midi": 80,
                    "time": 61.0161183333334,
                    "velocity": 0.5511811023622047,
                    "duration": 0.1300983333333363
                },
                {
                    "name": "A#5",
                    "midi": 82,
                    "time": 61.14621666666674,
                    "velocity": 0.47244094488188976,
                    "duration": 0.1300983333333363
                },
                {
                    "name": "G#5",
                    "midi": 80,
                    "time": 61.276315000000075,
                    "velocity": 0.5433070866141733,
                    "duration": 0.1300983333333363
                },
                {
                    "name": "G5",
                    "midi": 79,
                    "time": 61.40641333333341,
                    "velocity": 0.5196850393700787,
                    "duration": 0.1300983333333363
                },
                {
                    "name": "F5",
                    "midi": 77,
                    "time": 61.53651166666675,
                    "velocity": 0.5196850393700787,
                    "duration": 0.1300983333333363
                },
                {
                    "name": "D#5",
                    "midi": 75,
                    "time": 61.666610000000084,
                    "velocity": 0.5433070866141733,
                    "duration": 0.1300983333333363
                },
                {
                    "name": "D5",
                    "midi": 74,
                    "time": 61.79670833333342,
                    "velocity": 0.4881889763779528,
                    "duration": 0.1300983333333363
                },
                {
                    "name": "C5",
                    "midi": 72,
                    "time": 61.92680666666676,
                    "velocity": 0.47244094488188976,
                    "duration": 0.1300983333333363
                },
                {
                    "name": "A#4",
                    "midi": 70,
                    "time": 62.05690500000009,
                    "velocity": 0.5433070866141733,
                    "duration": 0.1300983333333363
                },
                {
                    "name": "G#4",
                    "midi": 68,
                    "time": 62.18700333333343,
                    "velocity": 0.4881889763779528,
                    "duration": 0.1300983333333363
                },
                {
                    "name": "G4",
                    "midi": 67,
                    "time": 62.317101666666765,
                    "velocity": 0.4881889763779528,
                    "duration": 0.1300983333333363
                },
                {
                    "name": "F4",
                    "midi": 65,
                    "time": 62.4472000000001,
                    "velocity": 0.5354330708661418,
                    "duration": 0.5854424999999992
                },
                {
                    "name": "C5",
                    "midi": 72,
                    "time": 63.0326425000001,
                    "velocity": 0.4094488188976378,
                    "duration": 0.19514749999999736
                },
                {
                    "name": "D#4",
                    "midi": 63,
                    "time": 63.2277900000001,
                    "velocity": 0.4645669291338583,
                    "duration": 0.39029500000000183
                },
                {
                    "name": "D4",
                    "midi": 62,
                    "time": 63.6180850000001,
                    "velocity": 0.4094488188976378,
                    "duration": 0.39029500000000183
                },
                {
                    "name": "D#5",
                    "midi": 75,
                    "time": 64.0083800000001,
                    "velocity": 0.6377952755905512,
                    "duration": 1.1708849999999984
                },
                {
                    "name": "F5",
                    "midi": 77,
                    "time": 65.1792650000001,
                    "velocity": 0.5748031496062992,
                    "duration": 0.39029499999999473
                },
                {
                    "name": "D5",
                    "midi": 74,
                    "time": 65.1792650000001,
                    "velocity": 0.4881889763779528,
                    "duration": 0.39029499999999473
                },
                {
                    "name": "G5",
                    "midi": 79,
                    "time": 65.5695600000001,
                    "velocity": 0.6377952755905512,
                    "duration": 1.1708849999999984
                },
                {
                    "name": "D#5",
                    "midi": 75,
                    "time": 65.5695600000001,
                    "velocity": 0.5354330708661418,
                    "duration": 1.1708849999999984
                },
                {
                    "name": "G#5",
                    "midi": 80,
                    "time": 66.7404450000001,
                    "velocity": 0.5748031496062992,
                    "duration": 0.39029499999999473
                },
                {
                    "name": "F5",
                    "midi": 77,
                    "time": 66.7404450000001,
                    "velocity": 0.4881889763779528,
                    "duration": 0.39029499999999473
                },
                {
                    "name": "G5",
                    "midi": 79,
                    "time": 67.13074000000009,
                    "velocity": 0.4881889763779528,
                    "duration": 0.1300983333333363
                },
                {
                    "name": "A#5",
                    "midi": 82,
                    "time": 67.13074000000009,
                    "velocity": 0.5748031496062992,
                    "duration": 0.1300983333333363
                },
                {
                    "name": "G#5",
                    "midi": 80,
                    "time": 67.26083833333342,
                    "velocity": 0.5118110236220472,
                    "duration": 0.1300983333333363
                },
                {
                    "name": "F5",
                    "midi": 77,
                    "time": 67.26083833333342,
                    "velocity": 0.4330708661417323,
                    "duration": 0.1300983333333363
                },
                {
                    "name": "A#5",
                    "midi": 82,
                    "time": 67.39093666666676,
                    "velocity": 0.5118110236220472,
                    "duration": 0.1300983333333363
                },
                {
                    "name": "G5",
                    "midi": 79,
                    "time": 67.39093666666676,
                    "velocity": 0.4330708661417323,
                    "duration": 0.1300983333333363
                },
                {
                    "name": "G#5",
                    "midi": 80,
                    "time": 67.5210350000001,
                    "velocity": 0.48031496062992124,
                    "duration": 0.1300983333333363
                },
                {
                    "name": "C6",
                    "midi": 84,
                    "time": 67.5210350000001,
                    "velocity": 0.5669291338582677,
                    "duration": 0.1300983333333363
                },
                {
                    "name": "G5",
                    "midi": 79,
                    "time": 67.65113333333343,
                    "velocity": 0.4251968503937008,
                    "duration": 0.1300983333333363
                },
                {
                    "name": "A#5",
                    "midi": 82,
                    "time": 67.65113333333343,
                    "velocity": 0.5039370078740157,
                    "duration": 0.1300983333333363
                },
                {
                    "name": "F5",
                    "midi": 77,
                    "time": 67.78123166666677,
                    "velocity": 0.4251968503937008,
                    "duration": 0.1300983333333363
                },
                {
                    "name": "G#5",
                    "midi": 80,
                    "time": 67.78123166666677,
                    "velocity": 0.5039370078740157,
                    "duration": 0.1300983333333363
                },
                {
                    "name": "G5",
                    "midi": 79,
                    "time": 67.9113300000001,
                    "velocity": 0.5511811023622047,
                    "duration": 0.39029499999999473
                },
                {
                    "name": "D#5",
                    "midi": 75,
                    "time": 67.9113300000001,
                    "velocity": 0.4645669291338583,
                    "duration": 0.39029499999999473
                },
                {
                    "name": "F5",
                    "midi": 77,
                    "time": 68.3016250000001,
                    "velocity": 0.5118110236220472,
                    "duration": 0.39029499999999473
                },
                {
                    "name": "D5",
                    "midi": 74,
                    "time": 68.3016250000001,
                    "velocity": 0.4330708661417323,
                    "duration": 0.39029499999999473
                },
                {
                    "name": "D#5",
                    "midi": 75,
                    "time": 68.6919200000001,
                    "velocity": 0.6377952755905512,
                    "duration": 1.1708849999999984
                },
                {
                    "name": "F5",
                    "midi": 77,
                    "time": 69.8628050000001,
                    "velocity": 0.5748031496062992,
                    "duration": 0.39029499999999473
                },
                {
                    "name": "D5",
                    "midi": 74,
                    "time": 69.8628050000001,
                    "velocity": 0.4881889763779528,
                    "duration": 0.39029499999999473
                },
                {
                    "name": "G5",
                    "midi": 79,
                    "time": 70.25310000000009,
                    "velocity": 0.6377952755905512,
                    "duration": 1.1708849999999984
                },
                {
                    "name": "D#5",
                    "midi": 75,
                    "time": 70.25310000000009,
                    "velocity": 0.5354330708661418,
                    "duration": 1.1708849999999984
                },
                {
                    "name": "G#5",
                    "midi": 80,
                    "time": 71.42398500000009,
                    "velocity": 0.5748031496062992,
                    "duration": 0.39029499999999473
                },
                {
                    "name": "F5",
                    "midi": 77,
                    "time": 71.42398500000009,
                    "velocity": 0.4881889763779528,
                    "duration": 0.39029499999999473
                },
                {
                    "name": "G5",
                    "midi": 79,
                    "time": 71.81428000000008,
                    "velocity": 0.4881889763779528,
                    "duration": 0.1300983333333363
                },
                {
                    "name": "A#5",
                    "midi": 82,
                    "time": 71.81428000000008,
                    "velocity": 0.5748031496062992,
                    "duration": 0.1300983333333363
                },
                {
                    "name": "G#5",
                    "midi": 80,
                    "time": 71.94437833333342,
                    "velocity": 0.5118110236220472,
                    "duration": 0.1300983333333363
                },
                {
                    "name": "F5",
                    "midi": 77,
                    "time": 71.94437833333342,
                    "velocity": 0.4330708661417323,
                    "duration": 0.1300983333333363
                },
                {
                    "name": "A#5",
                    "midi": 82,
                    "time": 72.07447666666675,
                    "velocity": 0.5118110236220472,
                    "duration": 0.1300983333333363
                },
                {
                    "name": "G5",
                    "midi": 79,
                    "time": 72.07447666666675,
                    "velocity": 0.4330708661417323,
                    "duration": 0.1300983333333363
                },
                {
                    "name": "G#5",
                    "midi": 80,
                    "time": 72.20457500000009,
                    "velocity": 0.48031496062992124,
                    "duration": 0.1300983333333363
                },
                {
                    "name": "C6",
                    "midi": 84,
                    "time": 72.20457500000009,
                    "velocity": 0.5669291338582677,
                    "duration": 0.1300983333333363
                },
                {
                    "name": "G5",
                    "midi": 79,
                    "time": 72.33467333333343,
                    "velocity": 0.4251968503937008,
                    "duration": 0.1300983333333363
                },
                {
                    "name": "A#5",
                    "midi": 82,
                    "time": 72.33467333333343,
                    "velocity": 0.5039370078740157,
                    "duration": 0.1300983333333363
                },
                {
                    "name": "F5",
                    "midi": 77,
                    "time": 72.46477166666676,
                    "velocity": 0.4251968503937008,
                    "duration": 0.1300983333333363
                },
                {
                    "name": "G#5",
                    "midi": 80,
                    "time": 72.46477166666676,
                    "velocity": 0.5039370078740157,
                    "duration": 0.1300983333333363
                },
                {
                    "name": "G5",
                    "midi": 79,
                    "time": 72.5948700000001,
                    "velocity": 0.5511811023622047,
                    "duration": 0.39029499999999473
                },
                {
                    "name": "D#5",
                    "midi": 75,
                    "time": 72.5948700000001,
                    "velocity": 0.4645669291338583,
                    "duration": 0.39029499999999473
                },
                {
                    "name": "F5",
                    "midi": 77,
                    "time": 72.9851650000001,
                    "velocity": 0.5118110236220472,
                    "duration": 0.39029499999999473
                },
                {
                    "name": "D5",
                    "midi": 74,
                    "time": 72.9851650000001,
                    "velocity": 0.4330708661417323,
                    "duration": 0.39029499999999473
                },
                {
                    "name": "D#5",
                    "midi": 75,
                    "time": 73.37546000000009,
                    "velocity": 0.47244094488188976,
                    "duration": 1.1220981249999937
                },
                {
                    "name": "G5",
                    "midi": 79,
                    "time": 74.49755812500008,
                    "velocity": 0.5354330708661418,
                    "duration": 0.04878687500000467
                },
                {
                    "name": "F5",
                    "midi": 77,
                    "time": 74.54634500000009,
                    "velocity": 0.4251968503937008,
                    "duration": 0.39029499999999473
                },
                {
                    "name": "D#5",
                    "midi": 75,
                    "time": 74.93664000000008,
                    "velocity": 0.47244094488188976,
                    "duration": 0.39029499999999473
                },
                {
                    "name": "D#5",
                    "midi": 75,
                    "time": 75.32693500000008,
                    "velocity": 0.4251968503937008,
                    "duration": 0.39029499999999473
                },
                {
                    "name": "D#5",
                    "midi": 75,
                    "time": 75.71723000000007,
                    "velocity": 0.4251968503937008,
                    "duration": 0.39029499999999473
                },
                {
                    "name": "G#5",
                    "midi": 80,
                    "time": 76.10752500000007,
                    "velocity": 0.4566929133858268,
                    "duration": 0.09757374999999513
                },
                {
                    "name": "F5",
                    "midi": 77,
                    "time": 76.20509875000006,
                    "velocity": 0.4094488188976378,
                    "duration": 0.2927212499999996
                },
                {
                    "name": "A#5",
                    "midi": 82,
                    "time": 76.49782000000006,
                    "velocity": 0.4566929133858268,
                    "duration": 0.39029499999999473
                },
                {
                    "name": "A#5",
                    "midi": 82,
                    "time": 76.88811500000006,
                    "velocity": 0.41732283464566927,
                    "duration": 0.39029499999999473
                },
                {
                    "name": "A#5",
                    "midi": 82,
                    "time": 77.27841000000005,
                    "velocity": 0.4094488188976378,
                    "duration": 0.39029499999999473
                },
                {
                    "name": "G#5",
                    "midi": 80,
                    "time": 77.66870500000005,
                    "velocity": 0.44881889763779526,
                    "duration": 0.09757374999999513
                },
                {
                    "name": "F5",
                    "midi": 77,
                    "time": 77.76627875000004,
                    "velocity": 0.4015748031496063,
                    "duration": 0.2927212499999996
                },
                {
                    "name": "D#5",
                    "midi": 75,
                    "time": 78.05900000000004,
                    "velocity": 0.44881889763779526,
                    "duration": 1.1220981249999937
                },
                {
                    "name": "G5",
                    "midi": 79,
                    "time": 79.18109812500003,
                    "velocity": 0.47244094488188976,
                    "duration": 0.04878687500000467
                },
                {
                    "name": "F5",
                    "midi": 77,
                    "time": 79.22988500000004,
                    "velocity": 0.3937007874015748,
                    "duration": 0.39029499999999473
                },
                {
                    "name": "D#5",
                    "midi": 75,
                    "time": 79.62018000000003,
                    "velocity": 0.4330708661417323,
                    "duration": 0.39029499999999473
                },
                {
                    "name": "D#5",
                    "midi": 75,
                    "time": 80.01047500000003,
                    "velocity": 0.3937007874015748,
                    "duration": 0.39029499999999473
                },
                {
                    "name": "D#5",
                    "midi": 75,
                    "time": 80.40077000000002,
                    "velocity": 0.3937007874015748,
                    "duration": 0.39029499999999473
                },
                {
                    "name": "G#5",
                    "midi": 80,
                    "time": 80.79106500000002,
                    "velocity": 0.4251968503937008,
                    "duration": 0.09757374999999513
                },
                {
                    "name": "F5",
                    "midi": 77,
                    "time": 80.88863875000001,
                    "velocity": 0.3858267716535433,
                    "duration": 0.2927212499999996
                },
                {
                    "name": "A#5",
                    "midi": 82,
                    "time": 81.18136000000001,
                    "velocity": 0.4251968503937008,
                    "duration": 0.39029499999999473
                },
                {
                    "name": "A#5",
                    "midi": 82,
                    "time": 81.571655,
                    "velocity": 0.3858267716535433,
                    "duration": 0.39029499999999473
                },
                {
                    "name": "A#5",
                    "midi": 82,
                    "time": 81.96195,
                    "velocity": 0.3779527559055118,
                    "duration": 0.39029499999999473
                },
                {
                    "name": "G#5",
                    "midi": 80,
                    "time": 82.352245,
                    "velocity": 0.41732283464566927,
                    "duration": 0.09757374999999513
                },
                {
                    "name": "F5",
                    "midi": 77,
                    "time": 82.44981874999999,
                    "velocity": 0.3779527559055118,
                    "duration": 0.2927212499999996
                },
                {
                    "name": "D#5",
                    "midi": 75,
                    "time": 82.74253999999999,
                    "velocity": 0.4094488188976378,
                    "duration": 1.1220981249999937
                },
                {
                    "name": "G5",
                    "midi": 79,
                    "time": 83.86463812499998,
                    "velocity": 0.3937007874015748,
                    "duration": 0.04878687500000467
                },
                {
                    "name": "F5",
                    "midi": 77,
                    "time": 83.91342499999999,
                    "velocity": 0.3228346456692913,
                    "duration": 0.39029499999999473
                },
                {
                    "name": "D#5",
                    "midi": 75,
                    "time": 84.30371999999998,
                    "velocity": 0.3779527559055118,
                    "duration": 0.39029499999999473
                },
                {
                    "name": "G5",
                    "midi": 79,
                    "time": 84.69401499999998,
                    "velocity": 0.28346456692913385,
                    "duration": 0.39029499999999473
                },
                {
                    "name": "A#5",
                    "midi": 82,
                    "time": 84.69401499999998,
                    "velocity": 0.33858267716535434,
                    "duration": 0.39029499999999473
                },
                {
                    "name": "G5",
                    "midi": 79,
                    "time": 85.08430999999997,
                    "velocity": 0.28346456692913385,
                    "duration": 0.39029499999999473
                },
                {
                    "name": "A#5",
                    "midi": 82,
                    "time": 85.08430999999997,
                    "velocity": 0.33858267716535434,
                    "duration": 0.39029499999999473
                },
                {
                    "name": "D#4",
                    "midi": 63,
                    "time": 87.03578499999996,
                    "velocity": 0.5669291338582677,
                    "duration": 0.2927212499999996
                },
                {
                    "name": "C4",
                    "midi": 60,
                    "time": 87.32850624999996,
                    "velocity": 0.5196850393700787,
                    "duration": 0.09757374999999513
                },
                {
                    "name": "G#4",
                    "midi": 68,
                    "time": 87.42607999999996,
                    "velocity": 0.5669291338582677,
                    "duration": 0.2927212499999996
                },
                {
                    "name": "G#4",
                    "midi": 68,
                    "time": 87.71880124999996,
                    "velocity": 0.5118110236220472,
                    "duration": 0.09757374999999513
                },
                {
                    "name": "G#4",
                    "midi": 68,
                    "time": 87.81637499999995,
                    "velocity": 0.5669291338582677,
                    "duration": 0.04878687500000467
                },
                {
                    "name": "A#4",
                    "midi": 70,
                    "time": 87.86516187499996,
                    "velocity": 0.4881889763779528,
                    "duration": 0.04878687500000467
                },
                {
                    "name": "G#4",
                    "midi": 68,
                    "time": 87.91394874999996,
                    "velocity": 0.5669291338582677,
                    "duration": 0.04878687500000467
                },
                {
                    "name": "A#4",
                    "midi": 70,
                    "time": 87.96273562499997,
                    "velocity": 0.4566929133858268,
                    "duration": 0.04878687500000467
                },
                {
                    "name": "G#4",
                    "midi": 68,
                    "time": 88.01152249999997,
                    "velocity": 0.5433070866141733,
                    "duration": 0.03252458333332697
                },
                {
                    "name": "A#4",
                    "midi": 70,
                    "time": 88.0440470833333,
                    "velocity": 0.4645669291338583,
                    "duration": 0.03252458333332697
                },
                {
                    "name": "G#4",
                    "midi": 68,
                    "time": 88.07657166666662,
                    "velocity": 0.5433070866141733,
                    "duration": 0.03252458333332697
                },
                {
                    "name": "G4",
                    "midi": 67,
                    "time": 88.10909624999995,
                    "velocity": 0.5118110236220472,
                    "duration": 0.04878687500000467
                },
                {
                    "name": "G#4",
                    "midi": 68,
                    "time": 88.15788312499996,
                    "velocity": 0.4566929133858268,
                    "duration": 0.04878687500000467
                },
                {
                    "name": "A#4",
                    "midi": 70,
                    "time": 88.20666999999996,
                    "velocity": 0.5669291338582677,
                    "duration": 0.39029499999999473
                },
                {
                    "name": "D#4",
                    "midi": 63,
                    "time": 88.59696499999995,
                    "velocity": 0.5669291338582677,
                    "duration": 0.2927212499999996
                },
                {
                    "name": "D#5",
                    "midi": 75,
                    "time": 88.88968624999995,
                    "velocity": 0.5354330708661418,
                    "duration": 0.09757374999999513
                },
                {
                    "name": "C#5",
                    "midi": 73,
                    "time": 88.98725999999995,
                    "velocity": 0.6456692913385826,
                    "duration": 0.7805900000000037
                },
                {
                    "name": "C5",
                    "midi": 72,
                    "time": 89.76784999999995,
                    "velocity": 0.5669291338582677,
                    "duration": 0.1463606249999998
                },
                {
                    "name": "G#4",
                    "midi": 68,
                    "time": 90.15814499999995,
                    "velocity": 0.3858267716535433,
                    "duration": 0.2927212499999996
                },
                {
                    "name": "F5",
                    "midi": 77,
                    "time": 90.45086624999995,
                    "velocity": 0.3464566929133858,
                    "duration": 0.09757374999999513
                },
                {
                    "name": "D#5",
                    "midi": 75,
                    "time": 90.54843999999994,
                    "velocity": 0.4330708661417323,
                    "duration": 0.7805900000000037
                },
                {
                    "name": "C#5",
                    "midi": 73,
                    "time": 91.32902999999995,
                    "velocity": 0.3858267716535433,
                    "duration": 0.1463606249999998
                },
                {
                    "name": "D#4",
                    "midi": 63,
                    "time": 91.71932499999994,
                    "velocity": 0.5669291338582677,
                    "duration": 0.2927212499999996
                },
                {
                    "name": "D#5",
                    "midi": 75,
                    "time": 92.01204624999994,
                    "velocity": 0.5354330708661418,
                    "duration": 0.09757374999999513
                },
                {
                    "name": "C#5",
                    "midi": 73,
                    "time": 92.10961999999994,
                    "velocity": 0.6456692913385826,
                    "duration": 0.7805900000000037
                },
                {
                    "name": "C5",
                    "midi": 72,
                    "time": 92.89020999999994,
                    "velocity": 0.5669291338582677,
                    "duration": 0.1463606249999998
                },
                {
                    "name": "G#5",
                    "midi": 80,
                    "time": 93.28050499999993,
                    "velocity": 0.6377952755905512,
                    "duration": 0.2927212499999996
                },
                {
                    "name": "C5",
                    "midi": 72,
                    "time": 93.57322624999993,
                    "velocity": 0.5354330708661418,
                    "duration": 0.09757374999999513
                },
                {
                    "name": "A#4",
                    "midi": 70,
                    "time": 93.67079999999993,
                    "velocity": 0.6220472440944882,
                    "duration": 0.2927212499999996
                },
                {
                    "name": "A#4",
                    "midi": 70,
                    "time": 93.96352124999993,
                    "velocity": 0.5118110236220472,
                    "duration": 0.09757374999999513
                },
                {
                    "name": "A#4",
                    "midi": 70,
                    "time": 94.06109499999992,
                    "velocity": 0.5669291338582677,
                    "duration": 0.04878687500000467
                },
                {
                    "name": "C5",
                    "midi": 72,
                    "time": 94.10988187499993,
                    "velocity": 0.4881889763779528,
                    "duration": 0.04878687500000467
                },
                {
                    "name": "A#4",
                    "midi": 70,
                    "time": 94.15866874999993,
                    "velocity": 0.5669291338582677,
                    "duration": 0.04878687500000467
                },
                {
                    "name": "C5",
                    "midi": 72,
                    "time": 94.20745562499994,
                    "velocity": 0.4566929133858268,
                    "duration": 0.04878687500000467
                },
                {
                    "name": "A#4",
                    "midi": 70,
                    "time": 94.25624249999994,
                    "velocity": 0.5433070866141733,
                    "duration": 0.03252458333332697
                },
                {
                    "name": "C5",
                    "midi": 72,
                    "time": 94.28876708333327,
                    "velocity": 0.4645669291338583,
                    "duration": 0.03252458333332697
                },
                {
                    "name": "A#4",
                    "midi": 70,
                    "time": 94.3212916666666,
                    "velocity": 0.5433070866141733,
                    "duration": 0.03252458333332697
                },
                {
                    "name": "A4",
                    "midi": 69,
                    "time": 94.35381624999992,
                    "velocity": 0.5118110236220472,
                    "duration": 0.04878687500000467
                },
                {
                    "name": "A#4",
                    "midi": 70,
                    "time": 94.40260312499993,
                    "velocity": 0.4566929133858268,
                    "duration": 0.04878687500000467
                },
                {
                    "name": "C#5",
                    "midi": 73,
                    "time": 94.45138999999993,
                    "velocity": 0.6141732283464567,
                    "duration": 0.2927212499999996
                },
                {
                    "name": "A#4",
                    "midi": 70,
                    "time": 94.74411124999993,
                    "velocity": 0.5590551181102362,
                    "duration": 0.09757374999999513
                },
                {
                    "name": "G4",
                    "midi": 67,
                    "time": 94.84168499999993,
                    "velocity": 0.6220472440944882,
                    "duration": 0.2927212499999996
                },
                {
                    "name": "D#4",
                    "midi": 63,
                    "time": 95.13440624999993,
                    "velocity": 0.5669291338582677,
                    "duration": 0.09757374999999513
                },
                {
                    "name": "G#4",
                    "midi": 68,
                    "time": 95.23197999999992,
                    "velocity": 0.6377952755905512,
                    "duration": 0.2927212499999996
                },
                {
                    "name": "D#4",
                    "midi": 63,
                    "time": 96.40286499999992,
                    "velocity": 0.5669291338582677,
                    "duration": 0.2927212499999996
                },
                {
                    "name": "C4",
                    "midi": 60,
                    "time": 96.69558624999992,
                    "velocity": 0.5196850393700787,
                    "duration": 0.09757374999999513
                },
                {
                    "name": "G#4",
                    "midi": 68,
                    "time": 96.79315999999992,
                    "velocity": 0.5669291338582677,
                    "duration": 0.2927212499999996
                },
                {
                    "name": "G#4",
                    "midi": 68,
                    "time": 97.08588124999991,
                    "velocity": 0.5118110236220472,
                    "duration": 0.09757374999999513
                },
                {
                    "name": "G#4",
                    "midi": 68,
                    "time": 97.18345499999991,
                    "velocity": 0.5669291338582677,
                    "duration": 0.04878687500000467
                },
                {
                    "name": "A#4",
                    "midi": 70,
                    "time": 97.23224187499991,
                    "velocity": 0.4881889763779528,
                    "duration": 0.04878687500000467
                },
                {
                    "name": "G#4",
                    "midi": 68,
                    "time": 97.28102874999992,
                    "velocity": 0.5669291338582677,
                    "duration": 0.04878687500000467
                },
                {
                    "name": "A#4",
                    "midi": 70,
                    "time": 97.32981562499992,
                    "velocity": 0.4566929133858268,
                    "duration": 0.04878687500000467
                },
                {
                    "name": "G#4",
                    "midi": 68,
                    "time": 97.37860249999993,
                    "velocity": 0.5433070866141733,
                    "duration": 0.03252458333332697
                },
                {
                    "name": "A#4",
                    "midi": 70,
                    "time": 97.41112708333326,
                    "velocity": 0.4645669291338583,
                    "duration": 0.03252458333332697
                },
                {
                    "name": "G#4",
                    "midi": 68,
                    "time": 97.44365166666658,
                    "velocity": 0.5433070866141733,
                    "duration": 0.03252458333332697
                },
                {
                    "name": "G4",
                    "midi": 67,
                    "time": 97.47617624999991,
                    "velocity": 0.5118110236220472,
                    "duration": 0.04878687500000467
                },
                {
                    "name": "G#4",
                    "midi": 68,
                    "time": 97.52496312499991,
                    "velocity": 0.4566929133858268,
                    "duration": 0.04878687500000467
                },
                {
                    "name": "A#4",
                    "midi": 70,
                    "time": 97.57374999999992,
                    "velocity": 0.5669291338582677,
                    "duration": 0.39029499999999473
                },
                {
                    "name": "D#4",
                    "midi": 63,
                    "time": 97.96404499999991,
                    "velocity": 0.5669291338582677,
                    "duration": 0.2927212499999996
                },
                {
                    "name": "D#5",
                    "midi": 75,
                    "time": 98.25676624999991,
                    "velocity": 0.5354330708661418,
                    "duration": 0.09757374999999513
                },
                {
                    "name": "C#5",
                    "midi": 73,
                    "time": 98.35433999999991,
                    "velocity": 0.6456692913385826,
                    "duration": 0.7805900000000037
                },
                {
                    "name": "C5",
                    "midi": 72,
                    "time": 99.13492999999991,
                    "velocity": 0.5669291338582677,
                    "duration": 0.1463606249999998
                },
                {
                    "name": "G#4",
                    "midi": 68,
                    "time": 99.5252249999999,
                    "velocity": 0.5984251968503937,
                    "duration": 0.2927212499999996
                },
                {
                    "name": "G#5",
                    "midi": 80,
                    "time": 99.8179462499999,
                    "velocity": 0.5433070866141733,
                    "duration": 0.09757374999999513
                },
                {
                    "name": "G5",
                    "midi": 79,
                    "time": 99.9155199999999,
                    "velocity": 0.6220472440944882,
                    "duration": 0.39029499999999473
                },
                {
                    "name": "F5",
                    "midi": 77,
                    "time": 100.3058149999999,
                    "velocity": 0.5354330708661418,
                    "duration": 0.09757374999999513
                },
                {
                    "name": "G#5",
                    "midi": 80,
                    "time": 100.5985362499999,
                    "velocity": 0.6141732283464567,
                    "duration": 0.09757374999999513
                },
                {
                    "name": "F5",
                    "midi": 77,
                    "time": 100.69610999999989,
                    "velocity": 0.5748031496062992,
                    "duration": 0.39029499999999473
                },
                {
                    "name": "D#5",
                    "midi": 75,
                    "time": 101.08640499999989,
                    "velocity": 0.5984251968503937,
                    "duration": 0.09757374999999513
                },
                {
                    "name": "G#5",
                    "midi": 80,
                    "time": 101.37912624999989,
                    "velocity": 0.5433070866141733,
                    "duration": 0.09757374999999513
                },
                {
                    "name": "D#5",
                    "midi": 75,
                    "time": 101.47669999999988,
                    "velocity": 0.6220472440944882,
                    "duration": 0.39029499999999473
                },
                {
                    "name": "C#5",
                    "midi": 73,
                    "time": 101.86699499999987,
                    "velocity": 0.5354330708661418,
                    "duration": 0.09757374999999513
                },
                {
                    "name": "G#5",
                    "midi": 80,
                    "time": 102.15971624999987,
                    "velocity": 0.6141732283464567,
                    "duration": 0.09757374999999513
                },
                {
                    "name": "C#5",
                    "midi": 73,
                    "time": 102.25728999999987,
                    "velocity": 0.5748031496062992,
                    "duration": 0.39029499999999473
                },
                {
                    "name": "C5",
                    "midi": 72,
                    "time": 102.64758499999986,
                    "velocity": 0.5984251968503937,
                    "duration": 0.09757374999999513
                },
                {
                    "name": "G#5",
                    "midi": 80,
                    "time": 102.94030624999986,
                    "velocity": 0.5433070866141733,
                    "duration": 0.09757374999999513
                },
                {
                    "name": "C5",
                    "midi": 72,
                    "time": 103.03787999999986,
                    "velocity": 0.5826771653543307,
                    "duration": 0.2927212499999996
                },
                {
                    "name": "A#4",
                    "midi": 70,
                    "time": 103.33060124999986,
                    "velocity": 0.5196850393700787,
                    "duration": 0.09757374999999513
                },
                {
                    "name": "C#5",
                    "midi": 73,
                    "time": 103.42817499999985,
                    "velocity": 0.5748031496062992,
                    "duration": 0.2927212499999996
                },
                {
                    "name": "F5",
                    "midi": 77,
                    "time": 103.72089624999985,
                    "velocity": 0.5196850393700787,
                    "duration": 0.09757374999999513
                },
                {
                    "name": "D#5",
                    "midi": 75,
                    "time": 103.81846999999985,
                    "velocity": 0.5984251968503937,
                    "duration": 0.39029499999999473
                },
                {
                    "name": "G4",
                    "midi": 67,
                    "time": 104.20876499999984,
                    "velocity": 0.5433070866141733,
                    "duration": 0.3659015624999995
                },
                {
                    "name": "G4",
                    "midi": 67,
                    "time": 104.57466656249984,
                    "velocity": 0.36220472440944884,
                    "duration": 0.02439343749999523
                },
                {
                    "name": "G#4",
                    "midi": 68,
                    "time": 104.59905999999984,
                    "velocity": 0.5748031496062992,
                    "duration": 0.09757374999999513
                },
                {
                    "name": "G4",
                    "midi": 67,
                    "time": 104.96496156249984,
                    "velocity": 0.41732283464566927,
                    "duration": 0.02439343749999523
                },
                {
                    "name": "G#4",
                    "midi": 68,
                    "time": 104.98935499999983,
                    "velocity": 0.5748031496062992,
                    "duration": 0.09757374999999513
                },
                {
                    "name": "G4",
                    "midi": 67,
                    "time": 105.35525656249983,
                    "velocity": 0.4330708661417323,
                    "duration": 0.02439343749999523
                },
                {
                    "name": "G#4",
                    "midi": 68,
                    "time": 105.37964999999983,
                    "velocity": 0.5748031496062992,
                    "duration": 0.09757374999999513
                },
                {
                    "name": "A4",
                    "midi": 69,
                    "time": 105.74555156249983,
                    "velocity": 0.4330708661417323,
                    "duration": 0.02439343749999523
                },
                {
                    "name": "A#4",
                    "midi": 70,
                    "time": 105.76994499999982,
                    "velocity": 0.6220472440944882,
                    "duration": 0.09757374999999513
                },
                {
                    "name": "B4",
                    "midi": 71,
                    "time": 106.16023999999982,
                    "velocity": 0.5984251968503937,
                    "duration": 0.39029499999999473
                },
                {
                    "name": "C5",
                    "midi": 72,
                    "time": 106.55053499999981,
                    "velocity": 0.5433070866141733,
                    "duration": 0.39029499999999473
                },
                {
                    "name": "G#4",
                    "midi": 68,
                    "time": 106.9408299999998,
                    "velocity": 0.48031496062992124,
                    "duration": 0.7805899999999895
                },
                {
                    "name": "B4",
                    "midi": 71,
                    "time": 107.6970265624998,
                    "velocity": 0.36220472440944884,
                    "duration": 0.02439343749999523
                },
                {
                    "name": "C5",
                    "midi": 72,
                    "time": 107.7214199999998,
                    "velocity": 0.5748031496062992,
                    "duration": 0.09757374999999513
                },
                {
                    "name": "B4",
                    "midi": 71,
                    "time": 108.0873215624998,
                    "velocity": 0.41732283464566927,
                    "duration": 0.02439343749999523
                },
                {
                    "name": "C5",
                    "midi": 72,
                    "time": 108.11171499999979,
                    "velocity": 0.5748031496062992,
                    "duration": 0.09757374999999513
                },
                {
                    "name": "B4",
                    "midi": 71,
                    "time": 108.47761656249979,
                    "velocity": 0.4330708661417323,
                    "duration": 0.02439343749999523
                },
                {
                    "name": "C5",
                    "midi": 72,
                    "time": 108.50200999999979,
                    "velocity": 0.5748031496062992,
                    "duration": 0.09757374999999513
                },
                {
                    "name": "D#5",
                    "midi": 75,
                    "time": 108.89230499999978,
                    "velocity": 0.6220472440944882,
                    "duration": 0.09757374999999513
                },
                {
                    "name": "C#5",
                    "midi": 73,
                    "time": 108.98987874999978,
                    "velocity": 0.5590551181102362,
                    "duration": 0.09757374999999513
                },
                {
                    "name": "C5",
                    "midi": 72,
                    "time": 109.08745249999977,
                    "velocity": 0.5984251968503937,
                    "duration": 0.09757374999999513
                },
                {
                    "name": "C#5",
                    "midi": 73,
                    "time": 109.18502624999977,
                    "velocity": 0.5433070866141733,
                    "duration": 0.09757374999999513
                },
                {
                    "name": "D#5",
                    "midi": 75,
                    "time": 109.28259999999976,
                    "velocity": 0.6220472440944882,
                    "duration": 0.7805900000000037
                },
                {
                    "name": "C5",
                    "midi": 72,
                    "time": 110.06318999999976,
                    "velocity": 0.5354330708661418,
                    "duration": 0.7805900000000037
                },
                {
                    "name": "G#5",
                    "midi": 80,
                    "time": 110.84377999999977,
                    "velocity": 0.7244094488188977,
                    "duration": 0.39029499999999473
                },
                {
                    "name": "G#5",
                    "midi": 80,
                    "time": 111.23407499999976,
                    "velocity": 0.6692913385826772,
                    "duration": 0.1300983333333363
                },
                {
                    "name": "C6",
                    "midi": 84,
                    "time": 111.3641733333331,
                    "velocity": 0.5669291338582677,
                    "duration": 0.1300983333333363
                },
                {
                    "name": "D#6",
                    "midi": 87,
                    "time": 111.49427166666644,
                    "velocity": 0.5669291338582677,
                    "duration": 0.1300983333333363
                },
                {
                    "name": "F#5",
                    "midi": 78,
                    "time": 111.62436999999977,
                    "velocity": 0.6456692913385826,
                    "duration": 0.7805900000000037
                },
                {
                    "name": "F5",
                    "midi": 77,
                    "time": 112.40495999999978,
                    "velocity": 0.7244094488188977,
                    "duration": 0.39029499999999473
                },
                {
                    "name": "F5",
                    "midi": 77,
                    "time": 112.79525499999977,
                    "velocity": 0.6692913385826772,
                    "duration": 0.1300983333333363
                },
                {
                    "name": "A#5",
                    "midi": 82,
                    "time": 112.9253533333331,
                    "velocity": 0.5669291338582677,
                    "duration": 0.1300983333333363
                },
                {
                    "name": "C#6",
                    "midi": 85,
                    "time": 113.05545166666644,
                    "velocity": 0.5669291338582677,
                    "duration": 0.1300983333333363
                },
                {
                    "name": "D#5",
                    "midi": 75,
                    "time": 113.18554999999978,
                    "velocity": 0.6456692913385826,
                    "duration": 0.5854424999999992
                },
                {
                    "name": "F5",
                    "midi": 77,
                    "time": 113.77099249999978,
                    "velocity": 0.5905511811023622,
                    "duration": 0.09757374999999513
                },
                {
                    "name": "G5",
                    "midi": 79,
                    "time": 113.86856624999977,
                    "velocity": 0.6456692913385826,
                    "duration": 0.09757374999999513
                },
                {
                    "name": "G#5",
                    "midi": 80,
                    "time": 113.96613999999977,
                    "velocity": 0.7401574803149606,
                    "duration": 0.39029499999999473
                },
                {
                    "name": "G#5",
                    "midi": 80,
                    "time": 114.35643499999976,
                    "velocity": 0.6377952755905512,
                    "duration": 0.1300983333333363
                },
                {
                    "name": "A#5",
                    "midi": 82,
                    "time": 114.4865333333331,
                    "velocity": 0.5669291338582677,
                    "duration": 0.1300983333333363
                },
                {
                    "name": "C6",
                    "midi": 84,
                    "time": 114.61663166666644,
                    "velocity": 0.5196850393700787,
                    "duration": 0.1300983333333363
                },
                {
                    "name": "C#5",
                    "midi": 73,
                    "time": 114.74672999999977,
                    "velocity": 0.6614173228346457,
                    "duration": 0.7805900000000037
                },
                {
                    "name": "C5",
                    "midi": 72,
                    "time": 115.52731999999978,
                    "velocity": 0.6377952755905512,
                    "duration": 0.1300983333333363
                },
                {
                    "name": "D#5",
                    "midi": 75,
                    "time": 115.65741833333311,
                    "velocity": 0.5590551181102362,
                    "duration": 0.1300983333333363
                },
                {
                    "name": "C#5",
                    "midi": 73,
                    "time": 115.78751666666645,
                    "velocity": 0.5590551181102362,
                    "duration": 0.1300983333333363
                },
                {
                    "name": "C5",
                    "midi": 72,
                    "time": 115.91761499999978,
                    "velocity": 0.5196850393700787,
                    "duration": 0.1300983333333363
                },
                {
                    "name": "C6",
                    "midi": 84,
                    "time": 116.04771333333312,
                    "velocity": 0.6141732283464567,
                    "duration": 0.1300983333333363
                },
                {
                    "name": "A#5",
                    "midi": 82,
                    "time": 116.17781166666646,
                    "velocity": 0.5590551181102362,
                    "duration": 0.1300983333333363
                },
                {
                    "name": "G#5",
                    "midi": 80,
                    "time": 116.3079099999998,
                    "velocity": 0.5590551181102362,
                    "duration": 0.1300983333333363
                },
                {
                    "name": "G5",
                    "midi": 79,
                    "time": 116.43800833333313,
                    "velocity": 0.6141732283464567,
                    "duration": 0.1300983333333363
                },
                {
                    "name": "F5",
                    "midi": 77,
                    "time": 116.56810666666647,
                    "velocity": 0.5354330708661418,
                    "duration": 0.1300983333333363
                },
                {
                    "name": "D#5",
                    "midi": 75,
                    "time": 116.6982049999998,
                    "velocity": 0.6220472440944882,
                    "duration": 0.1300983333333363
                },
                {
                    "name": "C#5",
                    "midi": 73,
                    "time": 116.82830333333314,
                    "velocity": 0.5590551181102362,
                    "duration": 0.1300983333333363
                },
                {
                    "name": "C5",
                    "midi": 72,
                    "time": 116.95840166666648,
                    "velocity": 0.5590551181102362,
                    "duration": 0.1300983333333363
                },
                {
                    "name": "D#5",
                    "midi": 75,
                    "time": 117.08849999999981,
                    "velocity": 0.6377952755905512,
                    "duration": 0.2927212499999996
                },
                {
                    "name": "C5",
                    "midi": 72,
                    "time": 117.38122124999981,
                    "velocity": 0.4566929133858268,
                    "duration": 0.09757374999999513
                },
                {
                    "name": "A#4",
                    "midi": 70,
                    "time": 117.4787949999998,
                    "velocity": 0.5511811023622047,
                    "duration": 0.2927212499999996
                },
                {
                    "name": "A#4",
                    "midi": 70,
                    "time": 118.25938499999981,
                    "velocity": 0.5669291338582677,
                    "duration": 0.2927212499999996
                },
                {
                    "name": "G4",
                    "midi": 67,
                    "time": 118.55210624999981,
                    "velocity": 0.5196850393700787,
                    "duration": 0.09757374999999513
                },
                {
                    "name": "D#5",
                    "midi": 75,
                    "time": 118.6496799999998,
                    "velocity": 0.5669291338582677,
                    "duration": 0.2927212499999996
                },
                {
                    "name": "D#5",
                    "midi": 75,
                    "time": 118.9424012499998,
                    "velocity": 0.5118110236220472,
                    "duration": 0.09757374999999513
                },
                {
                    "name": "D#5",
                    "midi": 75,
                    "time": 119.0399749999998,
                    "velocity": 0.5669291338582677,
                    "duration": 0.04878687500000467
                },
                {
                    "name": "F5",
                    "midi": 77,
                    "time": 119.0887618749998,
                    "velocity": 0.4881889763779528,
                    "duration": 0.04878687500000467
                },
                {
                    "name": "D#5",
                    "midi": 75,
                    "time": 119.13754874999981,
                    "velocity": 0.5669291338582677,
                    "duration": 0.04878687500000467
                },
                {
                    "name": "F5",
                    "midi": 77,
                    "time": 119.18633562499981,
                    "velocity": 0.4566929133858268,
                    "duration": 0.04878687500000467
                },
                {
                    "name": "D#5",
                    "midi": 75,
                    "time": 119.23512249999982,
                    "velocity": 0.5433070866141733,
                    "duration": 0.03252458333332697
                },
                {
                    "name": "F5",
                    "midi": 77,
                    "time": 119.26764708333315,
                    "velocity": 0.4645669291338583,
                    "duration": 0.03252458333332697
                },
                {
                    "name": "D#5",
                    "midi": 75,
                    "time": 119.30017166666647,
                    "velocity": 0.5433070866141733,
                    "duration": 0.03252458333332697
                },
                {
                    "name": "D5",
                    "midi": 74,
                    "time": 119.3326962499998,
                    "velocity": 0.5118110236220472,
                    "duration": 0.04878687500000467
                },
                {
                    "name": "D#5",
                    "midi": 75,
                    "time": 119.3814831249998,
                    "velocity": 0.4566929133858268,
                    "duration": 0.04878687500000467
                },
                {
                    "name": "F5",
                    "midi": 77,
                    "time": 119.43026999999981,
                    "velocity": 0.5669291338582677,
                    "duration": 0.19514750000000447
                },
                {
                    "name": "D5",
                    "midi": 74,
                    "time": 119.82056499999982,
                    "velocity": 0.5669291338582677,
                    "duration": 0.2927212499999996
                },
                {
                    "name": "A#4",
                    "midi": 70,
                    "time": 120.11328624999982,
                    "velocity": 0.5196850393700787,
                    "duration": 0.09757374999999513
                },
                {
                    "name": "F5",
                    "midi": 77,
                    "time": 120.21085999999981,
                    "velocity": 0.5669291338582677,
                    "duration": 0.2927212499999996
                },
                {
                    "name": "F5",
                    "midi": 77,
                    "time": 120.50358124999981,
                    "velocity": 0.5118110236220472,
                    "duration": 0.09757374999999513
                },
                {
                    "name": "F5",
                    "midi": 77,
                    "time": 120.6011549999998,
                    "velocity": 0.5669291338582677,
                    "duration": 0.04878687500000467
                },
                {
                    "name": "G5",
                    "midi": 79,
                    "time": 120.64994187499981,
                    "velocity": 0.4881889763779528,
                    "duration": 0.04878687500000467
                },
                {
                    "name": "F5",
                    "midi": 77,
                    "time": 120.69872874999982,
                    "velocity": 0.5669291338582677,
                    "duration": 0.04878687500000467
                },
                {
                    "name": "G5",
                    "midi": 79,
                    "time": 120.74751562499982,
                    "velocity": 0.4566929133858268,
                    "duration": 0.04878687500000467
                },
                {
                    "name": "F5",
                    "midi": 77,
                    "time": 120.79630249999983,
                    "velocity": 0.5433070866141733,
                    "duration": 0.03252458333332697
                },
                {
                    "name": "G5",
                    "midi": 79,
                    "time": 120.82882708333315,
                    "velocity": 0.4645669291338583,
                    "duration": 0.03252458333332697
                },
                {
                    "name": "F5",
                    "midi": 77,
                    "time": 120.86135166666648,
                    "velocity": 0.5433070866141733,
                    "duration": 0.03252458333332697
                },
                {
                    "name": "D#5",
                    "midi": 75,
                    "time": 120.8938762499998,
                    "velocity": 0.5118110236220472,
                    "duration": 0.04878687500000467
                },
                {
                    "name": "F5",
                    "midi": 77,
                    "time": 120.94266312499981,
                    "velocity": 0.4566929133858268,
                    "duration": 0.04878687500000467
                },
                {
                    "name": "G5",
                    "midi": 79,
                    "time": 120.99144999999982,
                    "velocity": 0.5669291338582677,
                    "duration": 0.2927212499999996
                },
                {
                    "name": "G5",
                    "midi": 79,
                    "time": 121.28417124999982,
                    "velocity": 0.5118110236220472,
                    "duration": 0.09757374999999513
                },
                {
                    "name": "G5",
                    "midi": 79,
                    "time": 121.38174499999981,
                    "velocity": 0.5748031496062992,
                    "duration": 0.04878687500000467
                },
                {
                    "name": "G#5",
                    "midi": 80,
                    "time": 121.43053187499982,
                    "velocity": 0.49606299212598426,
                    "duration": 0.04878687500000467
                },
                {
                    "name": "G5",
                    "midi": 79,
                    "time": 121.47931874999982,
                    "velocity": 0.5748031496062992,
                    "duration": 0.04878687500000467
                },
                {
                    "name": "G#5",
                    "midi": 80,
                    "time": 121.52810562499982,
                    "velocity": 0.4645669291338583,
                    "duration": 0.04878687500000467
                },
                {
                    "name": "G5",
                    "midi": 79,
                    "time": 121.57689249999983,
                    "velocity": 0.5590551181102362,
                    "duration": 0.03252458333332697
                },
                {
                    "name": "G#5",
                    "midi": 80,
                    "time": 121.60941708333316,
                    "velocity": 0.47244094488188976,
                    "duration": 0.03252458333332697
                },
                {
                    "name": "G5",
                    "midi": 79,
                    "time": 121.64194166666648,
                    "velocity": 0.5669291338582677,
                    "duration": 0.03252458333332697
                },
                {
                    "name": "F5",
                    "midi": 77,
                    "time": 121.67446624999981,
                    "velocity": 0.5354330708661418,
                    "duration": 0.04878687500000467
                },
                {
                    "name": "G5",
                    "midi": 79,
                    "time": 121.72325312499981,
                    "velocity": 0.47244094488188976,
                    "duration": 0.04878687500000467
                },
                {
                    "name": "G#5",
                    "midi": 80,
                    "time": 121.77203999999982,
                    "velocity": 0.5984251968503937,
                    "duration": 0.2927212499999996
                },
                {
                    "name": "G#5",
                    "midi": 80,
                    "time": 122.06476124999982,
                    "velocity": 0.5433070866141733,
                    "duration": 0.09757374999999513
                },
                {
                    "name": "G#5",
                    "midi": 80,
                    "time": 122.16233499999981,
                    "velocity": 0.6141732283464567,
                    "duration": 0.04878687500000467
                },
                {
                    "name": "A#5",
                    "midi": 82,
                    "time": 122.21112187499982,
                    "velocity": 0.5196850393700787,
                    "duration": 0.04878687500000467
                },
                {
                    "name": "G#5",
                    "midi": 80,
                    "time": 122.25990874999982,
                    "velocity": 0.6141732283464567,
                    "duration": 0.04878687500000467
                },
                {
                    "name": "A#5",
                    "midi": 82,
                    "time": 122.30869562499983,
                    "velocity": 0.49606299212598426,
                    "duration": 0.04878687500000467
                },
                {
                    "name": "G#5",
                    "midi": 80,
                    "time": 122.35748249999983,
                    "velocity": 0.5905511811023622,
                    "duration": 0.03252458333332697
                },
                {
                    "name": "A#5",
                    "midi": 82,
                    "time": 122.39000708333316,
                    "velocity": 0.5118110236220472,
                    "duration": 0.03252458333332697
                },
                {
                    "name": "G#5",
                    "midi": 80,
                    "time": 122.42253166666649,
                    "velocity": 0.5984251968503937,
                    "duration": 0.03252458333332697
                },
                {
                    "name": "G5",
                    "midi": 79,
                    "time": 122.45505624999981,
                    "velocity": 0.5590551181102362,
                    "duration": 0.04878687500000467
                },
                {
                    "name": "G#5",
                    "midi": 80,
                    "time": 122.50384312499982,
                    "velocity": 0.49606299212598426,
                    "duration": 0.04878687500000467
                },
                {
                    "name": "A#5",
                    "midi": 82,
                    "time": 122.55262999999982,
                    "velocity": 0.6377952755905512,
                    "duration": 0.2927212499999996
                },
                {
                    "name": "A#5",
                    "midi": 82,
                    "time": 122.84535124999982,
                    "velocity": 0.5748031496062992,
                    "duration": 0.09757374999999513
                },
                {
                    "name": "A#5",
                    "midi": 82,
                    "time": 122.94292499999982,
                    "velocity": 0.6456692913385826,
                    "duration": 0.04878687500000467
                },
                {
                    "name": "C6",
                    "midi": 84,
                    "time": 122.99171187499982,
                    "velocity": 0.5590551181102362,
                    "duration": 0.04878687500000467
                },
                {
                    "name": "A#5",
                    "midi": 82,
                    "time": 123.04049874999983,
                    "velocity": 0.6456692913385826,
                    "duration": 0.04878687500000467
                },
                {
                    "name": "C6",
                    "midi": 84,
                    "time": 123.08928562499983,
                    "velocity": 0.5196850393700787,
                    "duration": 0.04878687500000467
                },
                {
                    "name": "A#5",
                    "midi": 82,
                    "time": 123.13807249999984,
                    "velocity": 0.6220472440944882,
                    "duration": 0.03252458333332697
                },
                {
                    "name": "C6",
                    "midi": 84,
                    "time": 123.17059708333316,
                    "velocity": 0.5354330708661418,
                    "duration": 0.03252458333332697
                },
                {
                    "name": "A#5",
                    "midi": 82,
                    "time": 123.20312166666649,
                    "velocity": 0.6377952755905512,
                    "duration": 0.03252458333332697
                },
                {
                    "name": "G#5",
                    "midi": 80,
                    "time": 123.23564624999982,
                    "velocity": 0.5905511811023622,
                    "duration": 0.04878687500000467
                },
                {
                    "name": "A#5",
                    "midi": 82,
                    "time": 123.28443312499982,
                    "velocity": 0.5196850393700787,
                    "duration": 0.04878687500000467
                },
                {
                    "name": "C6",
                    "midi": 84,
                    "time": 123.33321999999983,
                    "velocity": 0.6692913385826772,
                    "duration": 1.1708849999999984
                },
                {
                    "name": "E5",
                    "midi": 76,
                    "time": 124.50410499999983,
                    "velocity": 0.6220472440944882,
                    "duration": 0.39029499999999473
                },
                {
                    "name": "F5",
                    "midi": 77,
                    "time": 124.89439999999982,
                    "velocity": 0.6377952755905512,
                    "duration": 0.1300983333333363
                },
                {
                    "name": "G#5",
                    "midi": 80,
                    "time": 125.02449833333316,
                    "velocity": 0.5590551181102362,
                    "duration": 0.1300983333333363
                },
                {
                    "name": "G5",
                    "midi": 79,
                    "time": 125.15459666666649,
                    "velocity": 0.5590551181102362,
                    "duration": 0.1300983333333363
                },
                {
                    "name": "F5",
                    "midi": 77,
                    "time": 125.28469499999983,
                    "velocity": 0.5196850393700787,
                    "duration": 0.1300983333333363
                },
                {
                    "name": "C6",
                    "midi": 84,
                    "time": 125.41479333333317,
                    "velocity": 0.6062992125984252,
                    "duration": 0.1300983333333363
                },
                {
                    "name": "A#5",
                    "midi": 82,
                    "time": 125.5448916666665,
                    "velocity": 0.5433070866141733,
                    "duration": 0.1300983333333363
                },
                {
                    "name": "G#5",
                    "midi": 80,
                    "time": 125.67498999999984,
                    "velocity": 0.5433070866141733,
                    "duration": 0.1300983333333363
                },
                {
                    "name": "G5",
                    "midi": 79,
                    "time": 125.80508833333317,
                    "velocity": 0.5118110236220472,
                    "duration": 0.1300983333333363
                },
                {
                    "name": "F5",
                    "midi": 77,
                    "time": 125.93518666666651,
                    "velocity": 0.5039370078740157,
                    "duration": 0.1300983333333363
                },
                {
                    "name": "D#5",
                    "midi": 75,
                    "time": 126.06528499999985,
                    "velocity": 0.5748031496062992,
                    "duration": 0.1300983333333363
                },
                {
                    "name": "D5",
                    "midi": 74,
                    "time": 126.19538333333318,
                    "velocity": 0.5196850393700787,
                    "duration": 0.1300983333333363
                },
                {
                    "name": "C5",
                    "midi": 72,
                    "time": 126.32548166666652,
                    "velocity": 0.5118110236220472,
                    "duration": 0.1300983333333363
                },
                {
                    "name": "A#5",
                    "midi": 82,
                    "time": 126.45557999999986,
                    "velocity": 0.6692913385826772,
                    "duration": 1.1708849999999984
                },
                {
                    "name": "D5",
                    "midi": 74,
                    "time": 127.62646499999985,
                    "velocity": 0.6220472440944882,
                    "duration": 0.39029500000000894
                },
                {
                    "name": "D#5",
                    "midi": 75,
                    "time": 128.01675999999986,
                    "velocity": 0.6377952755905512,
                    "duration": 0.1300983333333363
                },
                {
                    "name": "G5",
                    "midi": 79,
                    "time": 128.1468583333332,
                    "velocity": 0.5590551181102362,
                    "duration": 0.1300983333333363
                },
                {
                    "name": "F5",
                    "midi": 77,
                    "time": 128.27695666666654,
                    "velocity": 0.5590551181102362,
                    "duration": 0.1300983333333363
                },
                {
                    "name": "D#5",
                    "midi": 75,
                    "time": 128.40705499999987,
                    "velocity": 0.5196850393700787,
                    "duration": 0.1300983333333363
                },
                {
                    "name": "A#5",
                    "midi": 82,
                    "time": 128.5371533333332,
                    "velocity": 0.6141732283464567,
                    "duration": 0.1300983333333363
                },
                {
                    "name": "G#5",
                    "midi": 80,
                    "time": 128.66725166666654,
                    "velocity": 0.5511811023622047,
                    "duration": 0.1300983333333363
                },
                {
                    "name": "G5",
                    "midi": 79,
                    "time": 128.79734999999988,
                    "velocity": 0.5511811023622047,
                    "duration": 0.1300983333333363
                },
                {
                    "name": "F5",
                    "midi": 77,
                    "time": 128.92744833333322,
                    "velocity": 0.5196850393700787,
                    "duration": 0.1300983333333363
                },
                {
                    "name": "D#5",
                    "midi": 75,
                    "time": 129.05754666666655,
                    "velocity": 0.5196850393700787,
                    "duration": 0.1300983333333363
                },
                {
                    "name": "D5",
                    "midi": 74,
                    "time": 129.1876449999999,
                    "velocity": 0.6062992125984252,
                    "duration": 0.1300983333333363
                },
                {
                    "name": "C5",
                    "midi": 72,
                    "time": 129.31774333333323,
                    "velocity": 0.5511811023622047,
                    "duration": 0.1300983333333363
                },
                {
                    "name": "A#4",
                    "midi": 70,
                    "time": 129.44784166666656,
                    "velocity": 0.5118110236220472,
                    "duration": 0.1300983333333363
                },
                {
                    "name": "G#5",
                    "midi": 80,
                    "time": 129.5779399999999,
                    "velocity": 0.6692913385826772,
                    "duration": 1.1708849999999984
                },
                {
                    "name": "G5",
                    "midi": 79,
                    "time": 130.7488249999999,
                    "velocity": 0.5984251968503937,
                    "duration": 0.1300983333333363
                },
                {
                    "name": "F5",
                    "midi": 77,
                    "time": 130.87892333333323,
                    "velocity": 0.5354330708661418,
                    "duration": 0.1300983333333363
                },
                {
                    "name": "D#5",
                    "midi": 75,
                    "time": 131.00902166666657,
                    "velocity": 0.4566929133858268,
                    "duration": 0.11383604166667283
                },
                {
                    "name": "D#5",
                    "midi": 75,
                    "time": 131.1391199999999,
                    "velocity": 0.5669291338582677,
                    "duration": 0.19514749999999026
                },
                {
                    "name": "D5",
                    "midi": 74,
                    "time": 131.3342674999999,
                    "velocity": 0.4566929133858268,
                    "duration": 0.17888520833332677
                },
                {
                    "name": "D5",
                    "midi": 74,
                    "time": 131.5294149999999,
                    "velocity": 0.4881889763779528,
                    "duration": 0.7805899999999895
                },
                {
                    "name": "D#5",
                    "midi": 75,
                    "time": 132.31000499999988,
                    "velocity": 0.5669291338582677,
                    "duration": 0.39029500000000894
                },
                {
                    "name": "F5",
                    "midi": 77,
                    "time": 132.70029999999988,
                    "velocity": 0.6692913385826772,
                    "duration": 0.1300983333333363
                },
                {
                    "name": "G5",
                    "midi": 79,
                    "time": 132.83039833333322,
                    "velocity": 0.5669291338582677,
                    "duration": 0.1300983333333363
                },
                {
                    "name": "G#5",
                    "midi": 80,
                    "time": 132.96049666666656,
                    "velocity": 0.5196850393700787,
                    "duration": 0.11383604166667283
                },
                {
                    "name": "G#5",
                    "midi": 80,
                    "time": 133.0905949999999,
                    "velocity": 0.6692913385826772,
                    "duration": 0.7805899999999895
                },
                {
                    "name": "G5",
                    "midi": 79,
                    "time": 133.87118499999988,
                    "velocity": 0.5984251968503937,
                    "duration": 0.1300983333333363
                },
                {
                    "name": "F5",
                    "midi": 77,
                    "time": 134.00128333333322,
                    "velocity": 0.5354330708661418,
                    "duration": 0.1300983333333363
                },
                {
                    "name": "D#5",
                    "midi": 75,
                    "time": 134.13138166666656,
                    "velocity": 0.4566929133858268,
                    "duration": 0.11383604166667283
                },
                {
                    "name": "D#5",
                    "midi": 75,
                    "time": 134.2614799999999,
                    "velocity": 0.5669291338582677,
                    "duration": 0.19514749999999026
                },
                {
                    "name": "D5",
                    "midi": 74,
                    "time": 134.45662749999988,
                    "velocity": 0.4566929133858268,
                    "duration": 0.17888520833332677
                },
                {
                    "name": "D5",
                    "midi": 74,
                    "time": 134.65177499999987,
                    "velocity": 0.4881889763779528,
                    "duration": 0.7805899999999895
                },
                {
                    "name": "D#5",
                    "midi": 75,
                    "time": 135.43236499999986,
                    "velocity": 0.5669291338582677,
                    "duration": 0.39029500000000894
                },
                {
                    "name": "F5",
                    "midi": 77,
                    "time": 135.82265999999987,
                    "velocity": 0.6692913385826772,
                    "duration": 0.1300983333333363
                },
                {
                    "name": "G5",
                    "midi": 79,
                    "time": 135.9527583333332,
                    "velocity": 0.5669291338582677,
                    "duration": 0.1300983333333363
                },
                {
                    "name": "G#5",
                    "midi": 80,
                    "time": 136.08285666666654,
                    "velocity": 0.5196850393700787,
                    "duration": 0.11383604166667283
                },
                {
                    "name": "G#5",
                    "midi": 80,
                    "time": 136.21295499999988,
                    "velocity": 0.6692913385826772,
                    "duration": 0.7805899999999895
                },
                {
                    "name": "G5",
                    "midi": 79,
                    "time": 136.99354499999987,
                    "velocity": 0.5984251968503937,
                    "duration": 0.39029500000000894
                },
                {
                    "name": "F5",
                    "midi": 77,
                    "time": 137.38383999999988,
                    "velocity": 0.5196850393700787,
                    "duration": 0.1300983333333363
                },
                {
                    "name": "C6",
                    "midi": 84,
                    "time": 137.51393833333321,
                    "velocity": 0.6377952755905512,
                    "duration": 0.1300983333333363
                },
                {
                    "name": "A#5",
                    "midi": 82,
                    "time": 137.64403666666655,
                    "velocity": 0.5748031496062992,
                    "duration": 0.1300983333333363
                },
                {
                    "name": "G#5",
                    "midi": 80,
                    "time": 137.7741349999999,
                    "velocity": 0.5748031496062992,
                    "duration": 0.1300983333333363
                },
                {
                    "name": "G5",
                    "midi": 79,
                    "time": 137.90423333333322,
                    "velocity": 0.5433070866141733,
                    "duration": 0.1300983333333363
                },
                {
                    "name": "F5",
                    "midi": 77,
                    "time": 138.03433166666656,
                    "velocity": 0.5039370078740157,
                    "duration": 0.1300983333333363
                },
                {
                    "name": "D#5",
                    "midi": 75,
                    "time": 138.1644299999999,
                    "velocity": 0.6220472440944882,
                    "duration": 0.39029500000000894
                },
                {
                    "name": "D5",
                    "midi": 74,
                    "time": 138.5547249999999,
                    "velocity": 0.47244094488188976,
                    "duration": 0.39029500000000894
                },
                {
                    "name": "D5",
                    "midi": 74,
                    "time": 138.94501999999991,
                    "velocity": 0.5354330708661418,
                    "duration": 0.7805899999999895
                },
                {
                    "name": "D#5",
                    "midi": 75,
                    "time": 139.7256099999999,
                    "velocity": 0.3937007874015748,
                    "duration": 0.39029500000000894
                },
                {
                    "name": "G#3",
                    "midi": 56,
                    "time": 140.50619999999992,
                    "velocity": 0.5354330708661418,
                    "duration": 0.9106883333333258
                },
                {
                    "name": "C4",
                    "midi": 60,
                    "time": 141.41688833333325,
                    "velocity": 0.5118110236220472,
                    "duration": 0.1300983333333363
                },
                {
                    "name": "A#3",
                    "midi": 58,
                    "time": 141.54698666666658,
                    "velocity": 0.4409448818897638,
                    "duration": 0.1300983333333363
                },
                {
                    "name": "G#3",
                    "midi": 56,
                    "time": 141.67708499999992,
                    "velocity": 0.5196850393700787,
                    "duration": 0.06504916666665395
                },
                {
                    "name": "G#3",
                    "midi": 56,
                    "time": 141.80718333333323,
                    "velocity": 0.4566929133858268,
                    "duration": 0.06504916666665395
                },
                {
                    "name": "G#3",
                    "midi": 56,
                    "time": 141.93728166666654,
                    "velocity": 0.4566929133858268,
                    "duration": 0.06504916666665395
                },
                {
                    "name": "G#3",
                    "midi": 56,
                    "time": 142.06737999999984,
                    "velocity": 0.5354330708661418,
                    "duration": 0.9106883333333258
                },
                {
                    "name": "F4",
                    "midi": 65,
                    "time": 142.97806833333317,
                    "velocity": 0.5118110236220472,
                    "duration": 0.1300983333333363
                },
                {
                    "name": "D4",
                    "midi": 62,
                    "time": 143.1081666666665,
                    "velocity": 0.4409448818897638,
                    "duration": 0.1300983333333363
                },
                {
                    "name": "G#3",
                    "midi": 56,
                    "time": 143.23826499999984,
                    "velocity": 0.5196850393700787,
                    "duration": 0.06504916666665395
                },
                {
                    "name": "G#3",
                    "midi": 56,
                    "time": 143.36836333333315,
                    "velocity": 0.4566929133858268,
                    "duration": 0.06504916666665395
                },
                {
                    "name": "G#3",
                    "midi": 56,
                    "time": 143.49846166666646,
                    "velocity": 0.4566929133858268,
                    "duration": 0.06504916666665395
                },
                {
                    "name": "G3",
                    "midi": 55,
                    "time": 143.62855999999977,
                    "velocity": 0.47244094488188976,
                    "duration": 0.1300983333333363
                },
                {
                    "name": "A#3",
                    "midi": 58,
                    "time": 143.7586583333331,
                    "velocity": 0.3858267716535433,
                    "duration": 0.1300983333333363
                },
                {
                    "name": "D#4",
                    "midi": 63,
                    "time": 143.88875666666644,
                    "velocity": 0.3858267716535433,
                    "duration": 0.06504916666665395
                },
                {
                    "name": "D#4",
                    "midi": 63,
                    "time": 144.01885499999975,
                    "velocity": 0.4409448818897638,
                    "duration": 0.06504916666665395
                },
                {
                    "name": "D#4",
                    "midi": 63,
                    "time": 144.14895333333305,
                    "velocity": 0.3858267716535433,
                    "duration": 0.06504916666665395
                },
                {
                    "name": "D#4",
                    "midi": 63,
                    "time": 144.27905166666636,
                    "velocity": 0.3858267716535433,
                    "duration": 0.06504916666665395
                },
                {
                    "name": "D4",
                    "midi": 62,
                    "time": 144.40914999999967,
                    "velocity": 0.47244094488188976,
                    "duration": 0.1300983333333363
                },
                {
                    "name": "F4",
                    "midi": 65,
                    "time": 144.539248333333,
                    "velocity": 0.3858267716535433,
                    "duration": 0.1300983333333363
                },
                {
                    "name": "G#4",
                    "midi": 68,
                    "time": 144.66934666666634,
                    "velocity": 0.3858267716535433,
                    "duration": 0.06504916666665395
                },
                {
                    "name": "G#4",
                    "midi": 68,
                    "time": 144.79944499999965,
                    "velocity": 0.4409448818897638,
                    "duration": 0.06504916666665395
                },
                {
                    "name": "G#4",
                    "midi": 68,
                    "time": 144.92954333333296,
                    "velocity": 0.3858267716535433,
                    "duration": 0.06504916666665395
                },
                {
                    "name": "G#4",
                    "midi": 68,
                    "time": 145.05964166666627,
                    "velocity": 0.3858267716535433,
                    "duration": 0.06504916666665395
                },
                {
                    "name": "G4",
                    "midi": 67,
                    "time": 145.18973999999957,
                    "velocity": 0.5433070866141733,
                    "duration": 0.1300983333333363
                },
                {
                    "name": "A#4",
                    "midi": 70,
                    "time": 145.3198383333329,
                    "velocity": 0.4409448818897638,
                    "duration": 0.1300983333333363
                },
                {
                    "name": "D#5",
                    "midi": 75,
                    "time": 145.44993666666625,
                    "velocity": 0.4409448818897638,
                    "duration": 0.06504916666665395
                },
                {
                    "name": "D#5",
                    "midi": 75,
                    "time": 145.58003499999955,
                    "velocity": 0.49606299212598426,
                    "duration": 0.06504916666665395
                },
                {
                    "name": "D#5",
                    "midi": 75,
                    "time": 145.71013333333286,
                    "velocity": 0.4409448818897638,
                    "duration": 0.06504916666665395
                },
                {
                    "name": "D#5",
                    "midi": 75,
                    "time": 145.84023166666617,
                    "velocity": 0.4409448818897638,
                    "duration": 0.06504916666665395
                },
                {
                    "name": "D5",
                    "midi": 74,
                    "time": 145.97032999999948,
                    "velocity": 0.5433070866141733,
                    "duration": 0.1300983333333363
                },
                {
                    "name": "F5",
                    "midi": 77,
                    "time": 146.10042833333281,
                    "velocity": 0.4409448818897638,
                    "duration": 0.1300983333333363
                },
                {
                    "name": "G#5",
                    "midi": 80,
                    "time": 146.23052666666615,
                    "velocity": 0.4409448818897638,
                    "duration": 0.06504916666665395
                },
                {
                    "name": "G#5",
                    "midi": 80,
                    "time": 146.36062499999946,
                    "velocity": 0.5433070866141733,
                    "duration": 0.06504916666665395
                },
                {
                    "name": "G#5",
                    "midi": 80,
                    "time": 146.49072333333277,
                    "velocity": 0.4409448818897638,
                    "duration": 0.06504916666665395
                },
                {
                    "name": "G#5",
                    "midi": 80,
                    "time": 146.62082166666607,
                    "velocity": 0.4409448818897638,
                    "duration": 0.06504916666665395
                },
                {
                    "name": "G5",
                    "midi": 79,
                    "time": 146.75091999999938,
                    "velocity": 0.6220472440944882,
                    "duration": 0.1300983333333363
                },
                {
                    "name": "G#5",
                    "midi": 80,
                    "time": 146.88101833333272,
                    "velocity": 0.5511811023622047,
                    "duration": 0.1300983333333363
                },
                {
                    "name": "A#5",
                    "midi": 82,
                    "time": 147.01111666666606,
                    "velocity": 0.47244094488188976,
                    "duration": 0.1300983333333363
                },
                {
                    "name": "G#5",
                    "midi": 80,
                    "time": 147.1412149999994,
                    "velocity": 0.5433070866141733,
                    "duration": 0.1300983333333363
                },
                {
                    "name": "G5",
                    "midi": 79,
                    "time": 147.27131333333273,
                    "velocity": 0.5196850393700787,
                    "duration": 0.1300983333333363
                },
                {
                    "name": "F5",
                    "midi": 77,
                    "time": 147.40141166666606,
                    "velocity": 0.5196850393700787,
                    "duration": 0.1300983333333363
                },
                {
                    "name": "D#5",
                    "midi": 75,
                    "time": 147.5315099999994,
                    "velocity": 0.5433070866141733,
                    "duration": 0.1300983333333363
                },
                {
                    "name": "D5",
                    "midi": 74,
                    "time": 147.66160833333274,
                    "velocity": 0.4881889763779528,
                    "duration": 0.1300983333333363
                },
                {
                    "name": "C5",
                    "midi": 72,
                    "time": 147.79170666666607,
                    "velocity": 0.47244094488188976,
                    "duration": 0.1300983333333363
                },
                {
                    "name": "A#4",
                    "midi": 70,
                    "time": 147.9218049999994,
                    "velocity": 0.5433070866141733,
                    "duration": 0.1300983333333363
                },
                {
                    "name": "G#4",
                    "midi": 68,
                    "time": 148.05190333333275,
                    "velocity": 0.4881889763779528,
                    "duration": 0.1300983333333363
                },
                {
                    "name": "G4",
                    "midi": 67,
                    "time": 148.18200166666608,
                    "velocity": 0.4881889763779528,
                    "duration": 0.1300983333333363
                },
                {
                    "name": "F4",
                    "midi": 65,
                    "time": 148.31209999999942,
                    "velocity": 0.5354330708661418,
                    "duration": 0.5854424999999992
                },
                {
                    "name": "C5",
                    "midi": 72,
                    "time": 148.89754249999942,
                    "velocity": 0.4094488188976378,
                    "duration": 0.19514749999999026
                },
                {
                    "name": "D#4",
                    "midi": 63,
                    "time": 149.0926899999994,
                    "velocity": 0.4645669291338583,
                    "duration": 0.39029500000000894
                },
                {
                    "name": "D4",
                    "midi": 62,
                    "time": 149.48298499999942,
                    "velocity": 0.4094488188976378,
                    "duration": 0.39029500000000894
                },
                {
                    "name": "D#5",
                    "midi": 75,
                    "time": 149.87327999999943,
                    "velocity": 0.6377952755905512,
                    "duration": 1.1708849999999984
                },
                {
                    "name": "F5",
                    "midi": 77,
                    "time": 151.04416499999942,
                    "velocity": 0.5748031496062992,
                    "duration": 0.39029500000000894
                },
                {
                    "name": "D5",
                    "midi": 74,
                    "time": 151.04416499999942,
                    "velocity": 0.4881889763779528,
                    "duration": 0.39029500000000894
                },
                {
                    "name": "G5",
                    "midi": 79,
                    "time": 151.43445999999943,
                    "velocity": 0.6377952755905512,
                    "duration": 1.1708849999999984
                },
                {
                    "name": "D#5",
                    "midi": 75,
                    "time": 151.43445999999943,
                    "velocity": 0.5354330708661418,
                    "duration": 1.1708849999999984
                },
                {
                    "name": "G#5",
                    "midi": 80,
                    "time": 152.60534499999943,
                    "velocity": 0.5748031496062992,
                    "duration": 0.39029500000000894
                },
                {
                    "name": "F5",
                    "midi": 77,
                    "time": 152.60534499999943,
                    "velocity": 0.4881889763779528,
                    "duration": 0.39029500000000894
                },
                {
                    "name": "G5",
                    "midi": 79,
                    "time": 152.99563999999944,
                    "velocity": 0.4881889763779528,
                    "duration": 0.1300983333333363
                },
                {
                    "name": "A#5",
                    "midi": 82,
                    "time": 152.99563999999944,
                    "velocity": 0.5748031496062992,
                    "duration": 0.1300983333333363
                },
                {
                    "name": "G#5",
                    "midi": 80,
                    "time": 153.12573833333278,
                    "velocity": 0.5118110236220472,
                    "duration": 0.1300983333333363
                },
                {
                    "name": "F5",
                    "midi": 77,
                    "time": 153.12573833333278,
                    "velocity": 0.4330708661417323,
                    "duration": 0.1300983333333363
                },
                {
                    "name": "A#5",
                    "midi": 82,
                    "time": 153.2558366666661,
                    "velocity": 0.5118110236220472,
                    "duration": 0.1300983333333363
                },
                {
                    "name": "G5",
                    "midi": 79,
                    "time": 153.2558366666661,
                    "velocity": 0.4330708661417323,
                    "duration": 0.1300983333333363
                },
                {
                    "name": "G#5",
                    "midi": 80,
                    "time": 153.38593499999945,
                    "velocity": 0.48031496062992124,
                    "duration": 0.1300983333333363
                },
                {
                    "name": "C6",
                    "midi": 84,
                    "time": 153.38593499999945,
                    "velocity": 0.5669291338582677,
                    "duration": 0.1300983333333363
                },
                {
                    "name": "G5",
                    "midi": 79,
                    "time": 153.51603333333279,
                    "velocity": 0.4251968503937008,
                    "duration": 0.1300983333333363
                },
                {
                    "name": "A#5",
                    "midi": 82,
                    "time": 153.51603333333279,
                    "velocity": 0.5039370078740157,
                    "duration": 0.1300983333333363
                },
                {
                    "name": "F5",
                    "midi": 77,
                    "time": 153.64613166666612,
                    "velocity": 0.4251968503937008,
                    "duration": 0.1300983333333363
                },
                {
                    "name": "G#5",
                    "midi": 80,
                    "time": 153.64613166666612,
                    "velocity": 0.5039370078740157,
                    "duration": 0.1300983333333363
                },
                {
                    "name": "G5",
                    "midi": 79,
                    "time": 153.77622999999946,
                    "velocity": 0.5511811023622047,
                    "duration": 0.39029500000000894
                },
                {
                    "name": "D#5",
                    "midi": 75,
                    "time": 153.77622999999946,
                    "velocity": 0.4645669291338583,
                    "duration": 0.39029500000000894
                },
                {
                    "name": "F5",
                    "midi": 77,
                    "time": 154.16652499999947,
                    "velocity": 0.5118110236220472,
                    "duration": 0.39029500000000894
                },
                {
                    "name": "D5",
                    "midi": 74,
                    "time": 154.16652499999947,
                    "velocity": 0.4330708661417323,
                    "duration": 0.39029500000000894
                },
                {
                    "name": "D#5",
                    "midi": 75,
                    "time": 154.55681999999948,
                    "velocity": 0.6377952755905512,
                    "duration": 1.1708849999999984
                },
                {
                    "name": "F5",
                    "midi": 77,
                    "time": 155.72770499999947,
                    "velocity": 0.5748031496062992,
                    "duration": 0.39029500000000894
                },
                {
                    "name": "D5",
                    "midi": 74,
                    "time": 155.72770499999947,
                    "velocity": 0.4881889763779528,
                    "duration": 0.39029500000000894
                },
                {
                    "name": "G5",
                    "midi": 79,
                    "time": 156.11799999999948,
                    "velocity": 0.6377952755905512,
                    "duration": 1.1708849999999984
                },
                {
                    "name": "D#5",
                    "midi": 75,
                    "time": 156.11799999999948,
                    "velocity": 0.5354330708661418,
                    "duration": 1.1708849999999984
                },
                {
                    "name": "G#5",
                    "midi": 80,
                    "time": 157.28888499999948,
                    "velocity": 0.5748031496062992,
                    "duration": 0.39029500000000894
                },
                {
                    "name": "F5",
                    "midi": 77,
                    "time": 157.28888499999948,
                    "velocity": 0.4881889763779528,
                    "duration": 0.39029500000000894
                },
                {
                    "name": "G5",
                    "midi": 79,
                    "time": 157.6791799999995,
                    "velocity": 0.4881889763779528,
                    "duration": 0.1300983333333363
                },
                {
                    "name": "A#5",
                    "midi": 82,
                    "time": 157.6791799999995,
                    "velocity": 0.5748031496062992,
                    "duration": 0.1300983333333363
                },
                {
                    "name": "G#5",
                    "midi": 80,
                    "time": 157.80927833333283,
                    "velocity": 0.5118110236220472,
                    "duration": 0.1300983333333363
                },
                {
                    "name": "F5",
                    "midi": 77,
                    "time": 157.80927833333283,
                    "velocity": 0.4330708661417323,
                    "duration": 0.1300983333333363
                },
                {
                    "name": "A#5",
                    "midi": 82,
                    "time": 157.93937666666616,
                    "velocity": 0.5118110236220472,
                    "duration": 0.1300983333333363
                },
                {
                    "name": "G5",
                    "midi": 79,
                    "time": 157.93937666666616,
                    "velocity": 0.4330708661417323,
                    "duration": 0.1300983333333363
                },
                {
                    "name": "G#5",
                    "midi": 80,
                    "time": 158.0694749999995,
                    "velocity": 0.48031496062992124,
                    "duration": 0.1300983333333363
                },
                {
                    "name": "C6",
                    "midi": 84,
                    "time": 158.0694749999995,
                    "velocity": 0.5669291338582677,
                    "duration": 0.1300983333333363
                },
                {
                    "name": "G5",
                    "midi": 79,
                    "time": 158.19957333333284,
                    "velocity": 0.4251968503937008,
                    "duration": 0.1300983333333363
                },
                {
                    "name": "A#5",
                    "midi": 82,
                    "time": 158.19957333333284,
                    "velocity": 0.5039370078740157,
                    "duration": 0.1300983333333363
                },
                {
                    "name": "F5",
                    "midi": 77,
                    "time": 158.32967166666617,
                    "velocity": 0.4251968503937008,
                    "duration": 0.1300983333333363
                },
                {
                    "name": "G#5",
                    "midi": 80,
                    "time": 158.32967166666617,
                    "velocity": 0.5039370078740157,
                    "duration": 0.1300983333333363
                },
                {
                    "name": "G5",
                    "midi": 79,
                    "time": 158.4597699999995,
                    "velocity": 0.5511811023622047,
                    "duration": 0.39029500000000894
                },
                {
                    "name": "D#5",
                    "midi": 75,
                    "time": 158.4597699999995,
                    "velocity": 0.4645669291338583,
                    "duration": 0.39029500000000894
                },
                {
                    "name": "F5",
                    "midi": 77,
                    "time": 158.85006499999952,
                    "velocity": 0.5118110236220472,
                    "duration": 0.39029500000000894
                },
                {
                    "name": "D5",
                    "midi": 74,
                    "time": 158.85006499999952,
                    "velocity": 0.4330708661417323,
                    "duration": 0.39029500000000894
                },
                {
                    "name": "D#5",
                    "midi": 75,
                    "time": 159.24035999999953,
                    "velocity": 0.47244094488188976,
                    "duration": 1.122098125000008
                },
                {
                    "name": "G5",
                    "midi": 79,
                    "time": 160.36245812499953,
                    "velocity": 0.5354330708661418,
                    "duration": 0.04878687499999046
                },
                {
                    "name": "F5",
                    "midi": 77,
                    "time": 160.41124499999952,
                    "velocity": 0.4251968503937008,
                    "duration": 0.39029500000000894
                },
                {
                    "name": "D#5",
                    "midi": 75,
                    "time": 160.80153999999953,
                    "velocity": 0.47244094488188976,
                    "duration": 0.39029500000000894
                },
                {
                    "name": "D#5",
                    "midi": 75,
                    "time": 161.19183499999954,
                    "velocity": 0.4251968503937008,
                    "duration": 0.39029500000000894
                },
                {
                    "name": "D#5",
                    "midi": 75,
                    "time": 161.58212999999955,
                    "velocity": 0.4251968503937008,
                    "duration": 0.39029500000000894
                },
                {
                    "name": "G#5",
                    "midi": 80,
                    "time": 161.97242499999956,
                    "velocity": 0.4566929133858268,
                    "duration": 0.09757375000000934
                },
                {
                    "name": "F5",
                    "midi": 77,
                    "time": 162.06999874999957,
                    "velocity": 0.4094488188976378,
                    "duration": 0.2927212499999996
                },
                {
                    "name": "A#5",
                    "midi": 82,
                    "time": 162.36271999999957,
                    "velocity": 0.4566929133858268,
                    "duration": 0.39029500000000894
                },
                {
                    "name": "A#5",
                    "midi": 82,
                    "time": 162.75301499999958,
                    "velocity": 0.41732283464566927,
                    "duration": 0.39029500000000894
                },
                {
                    "name": "A#5",
                    "midi": 82,
                    "time": 163.1433099999996,
                    "velocity": 0.4094488188976378,
                    "duration": 0.39029500000000894
                },
                {
                    "name": "G#5",
                    "midi": 80,
                    "time": 163.5336049999996,
                    "velocity": 0.44881889763779526,
                    "duration": 0.09757375000000934
                },
                {
                    "name": "F5",
                    "midi": 77,
                    "time": 163.6311787499996,
                    "velocity": 0.4015748031496063,
                    "duration": 0.2927212499999996
                },
                {
                    "name": "D#5",
                    "midi": 75,
                    "time": 163.9238999999996,
                    "velocity": 0.44881889763779526,
                    "duration": 1.122098125000008
                },
                {
                    "name": "G5",
                    "midi": 79,
                    "time": 165.0459981249996,
                    "velocity": 0.47244094488188976,
                    "duration": 0.04878687499999046
                },
                {
                    "name": "F5",
                    "midi": 77,
                    "time": 165.0947849999996,
                    "velocity": 0.3937007874015748,
                    "duration": 0.39029500000000894
                },
                {
                    "name": "D#5",
                    "midi": 75,
                    "time": 165.4850799999996,
                    "velocity": 0.4330708661417323,
                    "duration": 0.39029500000000894
                },
                {
                    "name": "D#5",
                    "midi": 75,
                    "time": 165.87537499999962,
                    "velocity": 0.3937007874015748,
                    "duration": 0.39029500000000894
                },
                {
                    "name": "D#5",
                    "midi": 75,
                    "time": 166.26566999999963,
                    "velocity": 0.3937007874015748,
                    "duration": 0.39029500000000894
                },
                {
                    "name": "G#5",
                    "midi": 80,
                    "time": 166.65596499999964,
                    "velocity": 0.4251968503937008,
                    "duration": 0.09757375000000934
                },
                {
                    "name": "F5",
                    "midi": 77,
                    "time": 166.75353874999965,
                    "velocity": 0.3858267716535433,
                    "duration": 0.2927212499999996
                },
                {
                    "name": "A#5",
                    "midi": 82,
                    "time": 167.04625999999965,
                    "velocity": 0.4251968503937008,
                    "duration": 0.39029500000000894
                },
                {
                    "name": "A#5",
                    "midi": 82,
                    "time": 167.43655499999966,
                    "velocity": 0.3858267716535433,
                    "duration": 0.39029500000000894
                },
                {
                    "name": "A#5",
                    "midi": 82,
                    "time": 167.82684999999967,
                    "velocity": 0.3779527559055118,
                    "duration": 0.39029500000000894
                },
                {
                    "name": "G#5",
                    "midi": 80,
                    "time": 168.21714499999968,
                    "velocity": 0.41732283464566927,
                    "duration": 0.09757375000000934
                },
                {
                    "name": "F5",
                    "midi": 77,
                    "time": 168.31471874999968,
                    "velocity": 0.3779527559055118,
                    "duration": 0.2927212499999996
                },
                {
                    "name": "D#5",
                    "midi": 75,
                    "time": 168.60743999999968,
                    "velocity": 0.4094488188976378,
                    "duration": 1.122098125000008
                },
                {
                    "name": "G5",
                    "midi": 79,
                    "time": 169.7295381249997,
                    "velocity": 0.3937007874015748,
                    "duration": 0.04878687499999046
                },
                {
                    "name": "F5",
                    "midi": 77,
                    "time": 169.77832499999968,
                    "velocity": 0.3228346456692913,
                    "duration": 0.39029500000000894
                },
                {
                    "name": "D#5",
                    "midi": 75,
                    "time": 170.1686199999997,
                    "velocity": 0.3779527559055118,
                    "duration": 0.39029500000000894
                },
                {
                    "name": "G5",
                    "midi": 79,
                    "time": 170.5589149999997,
                    "velocity": 0.28346456692913385,
                    "duration": 0.39029500000000894
                },
                {
                    "name": "A#5",
                    "midi": 82,
                    "time": 170.5589149999997,
                    "velocity": 0.33858267716535434,
                    "duration": 0.39029500000000894
                },
                {
                    "name": "G5",
                    "midi": 79,
                    "time": 170.9492099999997,
                    "velocity": 0.28346456692913385,
                    "duration": 0.39029500000000894
                },
                {
                    "name": "A#5",
                    "midi": 82,
                    "time": 170.9492099999997,
                    "velocity": 0.33858267716535434,
                    "duration": 0.39029500000000894
                },
                {
                    "name": "A#3",
                    "midi": 58,
                    "time": 172.90068499999973,
                    "velocity": 0.5669291338582677,
                    "duration": 0.2927212499999996
                },
                {
                    "name": "G3",
                    "midi": 55,
                    "time": 173.19340624999973,
                    "velocity": 0.5196850393700787,
                    "duration": 0.09757375000000934
                },
                {
                    "name": "D#4",
                    "midi": 63,
                    "time": 173.29097999999973,
                    "velocity": 0.5669291338582677,
                    "duration": 0.2927212499999996
                },
                {
                    "name": "D#4",
                    "midi": 63,
                    "time": 173.58370124999973,
                    "velocity": 0.5118110236220472,
                    "duration": 0.09757375000000934
                },
                {
                    "name": "D#4",
                    "midi": 63,
                    "time": 173.68127499999974,
                    "velocity": 0.5669291338582677,
                    "duration": 0.04878687499999046
                },
                {
                    "name": "F4",
                    "midi": 65,
                    "time": 173.73006187499973,
                    "velocity": 0.4881889763779528,
                    "duration": 0.04878687499999046
                },
                {
                    "name": "D#4",
                    "midi": 63,
                    "time": 173.77884874999972,
                    "velocity": 0.5669291338582677,
                    "duration": 0.04878687499999046
                },
                {
                    "name": "F4",
                    "midi": 65,
                    "time": 173.82763562499971,
                    "velocity": 0.4566929133858268,
                    "duration": 0.04878687499999046
                },
                {
                    "name": "D#4",
                    "midi": 63,
                    "time": 173.8764224999997,
                    "velocity": 0.5433070866141733,
                    "duration": 0.03252458333332697
                },
                {
                    "name": "F4",
                    "midi": 65,
                    "time": 173.90894708333303,
                    "velocity": 0.4645669291338583,
                    "duration": 0.03252458333332697
                },
                {
                    "name": "D#4",
                    "midi": 63,
                    "time": 173.94147166666636,
                    "velocity": 0.5433070866141733,
                    "duration": 0.03252458333332697
                },
                {
                    "name": "D4",
                    "midi": 62,
                    "time": 173.9739962499997,
                    "velocity": 0.5118110236220472,
                    "duration": 0.04878687499999046
                },
                {
                    "name": "D#4",
                    "midi": 63,
                    "time": 174.02278312499968,
                    "velocity": 0.4566929133858268,
                    "duration": 0.04878687499999046
                },
                {
                    "name": "F4",
                    "midi": 65,
                    "time": 174.07156999999967,
                    "velocity": 0.5669291338582677,
                    "duration": 0.39029500000000894
                },
                {
                    "name": "A#3",
                    "midi": 58,
                    "time": 174.46186499999968,
                    "velocity": 0.5669291338582677,
                    "duration": 0.2927212499999996
                },
                {
                    "name": "A#4",
                    "midi": 70,
                    "time": 174.75458624999968,
                    "velocity": 0.5354330708661418,
                    "duration": 0.09757375000000934
                },
                {
                    "name": "G#4",
                    "midi": 68,
                    "time": 174.85215999999969,
                    "velocity": 0.6456692913385826,
                    "duration": 0.7805899999999895
                },
                {
                    "name": "G4",
                    "midi": 67,
                    "time": 175.63274999999967,
                    "velocity": 0.5669291338582677,
                    "duration": 0.1463606249999998
                },
                {
                    "name": "D#4",
                    "midi": 63,
                    "time": 176.02304499999968,
                    "velocity": 0.3858267716535433,
                    "duration": 0.2927212499999996
                },
                {
                    "name": "C5",
                    "midi": 72,
                    "time": 176.31576624999968,
                    "velocity": 0.3464566929133858,
                    "duration": 0.09757375000000934
                },
                {
                    "name": "A#4",
                    "midi": 70,
                    "time": 176.4133399999997,
                    "velocity": 0.4330708661417323,
                    "duration": 0.7805899999999895
                },
                {
                    "name": "G#4",
                    "midi": 68,
                    "time": 177.19392999999968,
                    "velocity": 0.3858267716535433,
                    "duration": 0.1463606249999998
                },
                {
                    "name": "A#3",
                    "midi": 58,
                    "time": 177.5842249999997,
                    "velocity": 0.5669291338582677,
                    "duration": 0.2927212499999996
                },
                {
                    "name": "A#4",
                    "midi": 70,
                    "time": 177.8769462499997,
                    "velocity": 0.5354330708661418,
                    "duration": 0.09757375000000934
                },
                {
                    "name": "G#4",
                    "midi": 68,
                    "time": 177.9745199999997,
                    "velocity": 0.6456692913385826,
                    "duration": 0.7805899999999895
                },
                {
                    "name": "G4",
                    "midi": 67,
                    "time": 178.7551099999997,
                    "velocity": 0.5669291338582677,
                    "duration": 0.1463606249999998
                },
                {
                    "name": "D#5",
                    "midi": 75,
                    "time": 179.1454049999997,
                    "velocity": 0.6377952755905512,
                    "duration": 0.2927212499999996
                },
                {
                    "name": "G4",
                    "midi": 67,
                    "time": 179.4381262499997,
                    "velocity": 0.5354330708661418,
                    "duration": 0.09757375000000934
                },
                {
                    "name": "F4",
                    "midi": 65,
                    "time": 179.5356999999997,
                    "velocity": 0.6220472440944882,
                    "duration": 0.2927212499999996
                },
                {
                    "name": "F4",
                    "midi": 65,
                    "time": 179.8284212499997,
                    "velocity": 0.5118110236220472,
                    "duration": 0.08944260416666339
                },
                {
                    "name": "F4",
                    "midi": 65,
                    "time": 179.92599499999972,
                    "velocity": 0.5669291338582677,
                    "duration": 0.04878687499999046
                },
                {
                    "name": "G4",
                    "midi": 67,
                    "time": 179.9747818749997,
                    "velocity": 0.4881889763779528,
                    "duration": 0.04878687499999046
                },
                {
                    "name": "F4",
                    "midi": 65,
                    "time": 180.0235687499997,
                    "velocity": 0.5669291338582677,
                    "duration": 0.04878687499999046
                },
                {
                    "name": "G4",
                    "midi": 67,
                    "time": 180.0723556249997,
                    "velocity": 0.4566929133858268,
                    "duration": 0.04878687499999046
                },
                {
                    "name": "F4",
                    "midi": 65,
                    "time": 180.12114249999968,
                    "velocity": 0.5433070866141733,
                    "duration": 0.03252458333332697
                },
                {
                    "name": "G4",
                    "midi": 67,
                    "time": 180.153667083333,
                    "velocity": 0.4645669291338583,
                    "duration": 0.03252458333332697
                },
                {
                    "name": "F4",
                    "midi": 65,
                    "time": 180.18619166666633,
                    "velocity": 0.5433070866141733,
                    "duration": 0.03252458333332697
                },
                {
                    "name": "E4",
                    "midi": 64,
                    "time": 180.21871624999966,
                    "velocity": 0.5118110236220472,
                    "duration": 0.04878687499999046
                },
                {
                    "name": "F4",
                    "midi": 65,
                    "time": 180.26750312499965,
                    "velocity": 0.4566929133858268,
                    "duration": 0.04878687499999046
                },
                {
                    "name": "G#4",
                    "midi": 68,
                    "time": 180.31628999999964,
                    "velocity": 0.6141732283464567,
                    "duration": 0.2927212499999996
                },
                {
                    "name": "F4",
                    "midi": 65,
                    "time": 180.60901124999964,
                    "velocity": 0.5590551181102362,
                    "duration": 0.09757375000000934
                },
                {
                    "name": "D4",
                    "midi": 62,
                    "time": 180.70658499999965,
                    "velocity": 0.6220472440944882,
                    "duration": 0.2927212499999996
                },
                {
                    "name": "A#3",
                    "midi": 58,
                    "time": 180.99930624999965,
                    "velocity": 0.5669291338582677,
                    "duration": 0.09757375000000934
                },
                {
                    "name": "D#4",
                    "midi": 63,
                    "time": 181.09687999999966,
                    "velocity": 0.6377952755905512,
                    "duration": 0.2927212499999996
                },
                {
                    "name": "G4",
                    "midi": 67,
                    "time": 182.17019124999965,
                    "velocity": 0.4409448818897638,
                    "duration": 0.09757375000000934
                },
                {
                    "name": "A#4",
                    "midi": 70,
                    "time": 182.26776499999966,
                    "velocity": 0.5433070866141733,
                    "duration": 0.2927212499999996
                },
                {
                    "name": "D#5",
                    "midi": 75,
                    "time": 182.56048624999966,
                    "velocity": 0.4881889763779528,
                    "duration": 0.09757375000000934
                },
                {
                    "name": "G5",
                    "midi": 79,
                    "time": 182.65805999999967,
                    "velocity": 0.5511811023622047,
                    "duration": 0.2927212499999996
                },
                {
                    "name": "A#4",
                    "midi": 70,
                    "time": 182.95078124999966,
                    "velocity": 0.4409448818897638,
                    "duration": 0.09757375000000934
                },
                {
                    "name": "D#5",
                    "midi": 75,
                    "time": 183.04835499999967,
                    "velocity": 0.5433070866141733,
                    "duration": 0.2927212499999996
                },
                {
                    "name": "G5",
                    "midi": 79,
                    "time": 183.34107624999967,
                    "velocity": 0.4881889763779528,
                    "duration": 0.09757375000000934
                },
                {
                    "name": "A#5",
                    "midi": 82,
                    "time": 183.43864999999968,
                    "velocity": 0.5511811023622047,
                    "duration": 0.2927212499999996
                },
                {
                    "name": "D#5",
                    "midi": 75,
                    "time": 183.73137124999968,
                    "velocity": 0.49606299212598426,
                    "duration": 0.09757375000000934
                },
                {
                    "name": "G5",
                    "midi": 79,
                    "time": 183.8289449999997,
                    "velocity": 0.5669291338582677,
                    "duration": 0.2927212499999996
                },
                {
                    "name": "A#5",
                    "midi": 82,
                    "time": 184.1216662499997,
                    "velocity": 0.5433070866141733,
                    "duration": 0.09757375000000934
                },
                {
                    "name": "C#6",
                    "midi": 85,
                    "time": 184.2192399999997,
                    "velocity": 0.6220472440944882,
                    "duration": 0.7805899999999895
                },
                {
                    "name": "C6",
                    "midi": 84,
                    "time": 184.9998299999997,
                    "velocity": 0.49606299212598426,
                    "duration": 0.04878687499999046
                },
                {
                    "name": "C#6",
                    "midi": 85,
                    "time": 185.04861687499968,
                    "velocity": 0.4409448818897638,
                    "duration": 0.04878687499999046
                },
                {
                    "name": "C6",
                    "midi": 84,
                    "time": 185.09740374999967,
                    "velocity": 0.5039370078740157,
                    "duration": 0.04878687499999046
                },
                {
                    "name": "C#6",
                    "midi": 85,
                    "time": 185.14619062499966,
                    "velocity": 0.44881889763779526,
                    "duration": 0.04878687499999046
                },
                {
                    "name": "C6",
                    "midi": 84,
                    "time": 185.19497749999965,
                    "velocity": 0.47244094488188976,
                    "duration": 0.04878687499999046
                },
                {
                    "name": "C#6",
                    "midi": 85,
                    "time": 185.24376437499964,
                    "velocity": 0.47244094488188976,
                    "duration": 0.04878687499999046
                },
                {
                    "name": "C6",
                    "midi": 84,
                    "time": 185.29255124999963,
                    "velocity": 0.5118110236220472,
                    "duration": 0.04878687499999046
                },
                {
                    "name": "C#6",
                    "midi": 85,
                    "time": 185.34133812499962,
                    "velocity": 0.4881889763779528,
                    "duration": 0.04878687499999046
                },
                {
                    "name": "C6",
                    "midi": 84,
                    "time": 185.3901249999996,
                    "velocity": 0.5196850393700787,
                    "duration": 0.06504916666665395
                },
                {
                    "name": "C#6",
                    "midi": 85,
                    "time": 185.45517416666627,
                    "velocity": 0.4881889763779528,
                    "duration": 0.06504916666665395
                },
                {
                    "name": "C6",
                    "midi": 84,
                    "time": 185.52022333333292,
                    "velocity": 0.4881889763779528,
                    "duration": 0.06504916666665395
                },
                {
                    "name": "A#5",
                    "midi": 82,
                    "time": 185.58527249999958,
                    "velocity": 0.5590551181102362,
                    "duration": 0.19514749999999026
                },
                {
                    "name": "G#5",
                    "midi": 80,
                    "time": 185.78041999999957,
                    "velocity": 0.5748031496062992,
                    "duration": 0.39029500000000894
                },
                {
                    "name": "F5",
                    "midi": 77,
                    "time": 186.17071499999957,
                    "velocity": 0.5118110236220472,
                    "duration": 0.39029500000000894
                },
                {
                    "name": "F5",
                    "midi": 77,
                    "time": 186.56100999999958,
                    "velocity": 0.5118110236220472,
                    "duration": 0.39029500000000894
                },
                {
                    "name": "G5",
                    "midi": 79,
                    "time": 186.9513049999996,
                    "velocity": 0.5669291338582677,
                    "duration": 0.39029500000000894
                },
                {
                    "name": "G5",
                    "midi": 79,
                    "time": 187.3415999999996,
                    "velocity": 0.5984251968503937,
                    "duration": 0.39029500000000894
                },
                {
                    "name": "G#5",
                    "midi": 80,
                    "time": 187.7318949999996,
                    "velocity": 0.5433070866141733,
                    "duration": 0.39029500000000894
                },
                {
                    "name": "F5",
                    "midi": 77,
                    "time": 188.12218999999962,
                    "velocity": 0.48031496062992124,
                    "duration": 0.7805899999999895
                },
                {
                    "name": "G#5",
                    "midi": 80,
                    "time": 188.9027799999996,
                    "velocity": 0.5984251968503937,
                    "duration": 0.39029500000000894
                },
                {
                    "name": "G#5",
                    "midi": 80,
                    "time": 189.29307499999962,
                    "velocity": 0.5511811023622047,
                    "duration": 0.39029500000000894
                },
                {
                    "name": "G#5",
                    "midi": 80,
                    "time": 189.68336999999963,
                    "velocity": 0.5905511811023622,
                    "duration": 0.2927212499999996
                },
                {
                    "name": "C6",
                    "midi": 84,
                    "time": 189.97609124999963,
                    "velocity": 0.5118110236220472,
                    "duration": 0.08944260416666339
                },
                {
                    "name": "C6",
                    "midi": 84,
                    "time": 190.07366499999964,
                    "velocity": 0.5669291338582677,
                    "duration": 0.04878687499999046
                },
                {
                    "name": "C#6",
                    "midi": 85,
                    "time": 190.12245187499963,
                    "velocity": 0.4881889763779528,
                    "duration": 0.04878687499999046
                },
                {
                    "name": "C6",
                    "midi": 84,
                    "time": 190.17123874999962,
                    "velocity": 0.5669291338582677,
                    "duration": 0.04878687499999046
                },
                {
                    "name": "C#6",
                    "midi": 85,
                    "time": 190.2200256249996,
                    "velocity": 0.4566929133858268,
                    "duration": 0.04878687499999046
                },
                {
                    "name": "C6",
                    "midi": 84,
                    "time": 190.2688124999996,
                    "velocity": 0.5433070866141733,
                    "duration": 0.03252458333332697
                },
                {
                    "name": "C#6",
                    "midi": 85,
                    "time": 190.30133708333292,
                    "velocity": 0.4645669291338583,
                    "duration": 0.03252458333332697
                },
                {
                    "name": "C6",
                    "midi": 84,
                    "time": 190.33386166666625,
                    "velocity": 0.5433070866141733,
                    "duration": 0.03252458333332697
                },
                {
                    "name": "A#5",
                    "midi": 82,
                    "time": 190.36638624999958,
                    "velocity": 0.5118110236220472,
                    "duration": 0.04878687499999046
                },
                {
                    "name": "C6",
                    "midi": 84,
                    "time": 190.41517312499957,
                    "velocity": 0.4566929133858268,
                    "duration": 0.04878687499999046
                },
                {
                    "name": "C#6",
                    "midi": 85,
                    "time": 190.46395999999956,
                    "velocity": 0.5669291338582677,
                    "duration": 0.7805899999999895
                },
                {
                    "name": "C#5",
                    "midi": 73,
                    "time": 191.24454999999955,
                    "velocity": 0.48031496062992124,
                    "duration": 0.7805899999999895
                },
                {
                    "name": "A#5",
                    "midi": 82,
                    "time": 192.02513999999954,
                    "velocity": 0.5984251968503937,
                    "duration": 0.39029500000000894
                },
                {
                    "name": "A#5",
                    "midi": 82,
                    "time": 192.41543499999955,
                    "velocity": 0.5511811023622047,
                    "duration": 0.39029500000000894
                },
                {
                    "name": "A#5",
                    "midi": 82,
                    "time": 192.80572999999956,
                    "velocity": 0.5905511811023622,
                    "duration": 0.39029500000000894
                },
                {
                    "name": "G#5",
                    "midi": 80,
                    "time": 193.19602499999957,
                    "velocity": 0.5669291338582677,
                    "duration": 0.04878687499999046
                },
                {
                    "name": "A#5",
                    "midi": 82,
                    "time": 193.24481187499956,
                    "velocity": 0.4881889763779528,
                    "duration": 0.04878687499999046
                },
                {
                    "name": "G#5",
                    "midi": 80,
                    "time": 193.29359874999955,
                    "velocity": 0.5669291338582677,
                    "duration": 0.04878687499999046
                },
                {
                    "name": "A#5",
                    "midi": 82,
                    "time": 193.34238562499954,
                    "velocity": 0.4566929133858268,
                    "duration": 0.04878687499999046
                },
                {
                    "name": "G#5",
                    "midi": 80,
                    "time": 193.39117249999953,
                    "velocity": 0.5433070866141733,
                    "duration": 0.03252458333332697
                },
                {
                    "name": "A#5",
                    "midi": 82,
                    "time": 193.42369708333285,
                    "velocity": 0.4645669291338583,
                    "duration": 0.03252458333332697
                },
                {
                    "name": "G#5",
                    "midi": 80,
                    "time": 193.45622166666618,
                    "velocity": 0.5433070866141733,
                    "duration": 0.03252458333332697
                },
                {
                    "name": "G5",
                    "midi": 79,
                    "time": 193.4887462499995,
                    "velocity": 0.5118110236220472,
                    "duration": 0.04878687499999046
                },
                {
                    "name": "G#5",
                    "midi": 80,
                    "time": 193.5375331249995,
                    "velocity": 0.4566929133858268,
                    "duration": 0.04878687499999046
                },
                {
                    "name": "G5",
                    "midi": 79,
                    "time": 193.5863199999995,
                    "velocity": 0.5433070866141733,
                    "duration": 0.7805899999999895
                },
                {
                    "name": "D#5",
                    "midi": 75,
                    "time": 194.36690999999948,
                    "velocity": 0.48031496062992124,
                    "duration": 0.7805899999999895
                },
                {
                    "name": "D5",
                    "midi": 74,
                    "time": 195.14749999999947,
                    "velocity": 0.5039370078740157,
                    "duration": 0.39029500000000894
                },
                {
                    "name": "D5",
                    "midi": 74,
                    "time": 195.53779499999948,
                    "velocity": 0.47244094488188976,
                    "duration": 0.39029500000000894
                },
                {
                    "name": "D5",
                    "midi": 74,
                    "time": 195.9280899999995,
                    "velocity": 0.5196850393700787,
                    "duration": 0.2927212499999996
                },
                {
                    "name": "D5",
                    "midi": 74,
                    "time": 196.22081124999949,
                    "velocity": 0.4645669291338583,
                    "duration": 0.08944260416666339
                },
                {
                    "name": "D5",
                    "midi": 74,
                    "time": 196.3183849999995,
                    "velocity": 0.5039370078740157,
                    "duration": 0.04878687499999046
                },
                {
                    "name": "D#5",
                    "midi": 75,
                    "time": 196.36717187499949,
                    "velocity": 0.4330708661417323,
                    "duration": 0.04878687499999046
                },
                {
                    "name": "D5",
                    "midi": 74,
                    "time": 196.41595874999948,
                    "velocity": 0.5039370078740157,
                    "duration": 0.04878687499999046
                },
                {
                    "name": "D#5",
                    "midi": 75,
                    "time": 196.46474562499947,
                    "velocity": 0.4094488188976378,
                    "duration": 0.04878687499999046
                },
                {
                    "name": "D5",
                    "midi": 74,
                    "time": 196.51353249999946,
                    "velocity": 0.4881889763779528,
                    "duration": 0.03252458333332697
                },
                {
                    "name": "D#5",
                    "midi": 75,
                    "time": 196.54605708333278,
                    "velocity": 0.41732283464566927,
                    "duration": 0.03252458333332697
                },
                {
                    "name": "D5",
                    "midi": 74,
                    "time": 196.5785816666661,
                    "velocity": 0.4881889763779528,
                    "duration": 0.03252458333332697
                },
                {
                    "name": "C5",
                    "midi": 72,
                    "time": 196.61110624999944,
                    "velocity": 0.4566929133858268,
                    "duration": 0.04878687499999046
                },
                {
                    "name": "D5",
                    "midi": 74,
                    "time": 196.65989312499943,
                    "velocity": 0.4094488188976378,
                    "duration": 0.04878687499999046
                },
                {
                    "name": "D#5",
                    "midi": 75,
                    "time": 196.70867999999942,
                    "velocity": 0.5433070866141733,
                    "duration": 0.39029500000000894
                },
                {
                    "name": "D#5",
                    "midi": 75,
                    "time": 197.09897499999943,
                    "velocity": 0.5039370078740157,
                    "duration": 0.39029500000000894
                },
                {
                    "name": "D#5",
                    "midi": 75,
                    "time": 197.48926999999944,
                    "velocity": 0.5511811023622047,
                    "duration": 0.2927212499999996
                },
                {
                    "name": "D#5",
                    "midi": 75,
                    "time": 197.78199124999944,
                    "velocity": 0.49606299212598426,
                    "duration": 0.08944260416666339
                },
                {
                    "name": "D#5",
                    "midi": 75,
                    "time": 197.87956499999945,
                    "velocity": 0.5354330708661418,
                    "duration": 0.04878687499999046
                },
                {
                    "name": "F5",
                    "midi": 77,
                    "time": 197.92835187499944,
                    "velocity": 0.4645669291338583,
                    "duration": 0.04878687499999046
                },
                {
                    "name": "D#5",
                    "midi": 75,
                    "time": 197.97713874999943,
                    "velocity": 0.5433070866141733,
                    "duration": 0.04878687499999046
                },
                {
                    "name": "F5",
                    "midi": 77,
                    "time": 198.02592562499942,
                    "velocity": 0.4330708661417323,
                    "duration": 0.04878687499999046
                },
                {
                    "name": "D#5",
                    "midi": 75,
                    "time": 198.0747124999994,
                    "velocity": 0.5196850393700787,
                    "duration": 0.03252458333332697
                },
                {
                    "name": "F5",
                    "midi": 77,
                    "time": 198.10723708333273,
                    "velocity": 0.4409448818897638,
                    "duration": 0.03252458333332697
                },
                {
                    "name": "D#5",
                    "midi": 75,
                    "time": 198.13976166666606,
                    "velocity": 0.5196850393700787,
                    "duration": 0.03252458333332697
                },
                {
                    "name": "D5",
                    "midi": 74,
                    "time": 198.1722862499994,
                    "velocity": 0.49606299212598426,
                    "duration": 0.04878687499999046
                },
                {
                    "name": "D#5",
                    "midi": 75,
                    "time": 198.22107312499938,
                    "velocity": 0.4409448818897638,
                    "duration": 0.04878687499999046
                },
                {
                    "name": "F5",
                    "midi": 77,
                    "time": 198.26985999999937,
                    "velocity": 0.5748031496062992,
                    "duration": 0.39029500000000894
                },
                {
                    "name": "F5",
                    "midi": 77,
                    "time": 198.65771565624937,
                    "velocity": 0.5433070866141733,
                    "duration": 0.39029500000000894
                },
                {
                    "name": "F5",
                    "midi": 77,
                    "time": 199.0504499999994,
                    "velocity": 0.5905511811023622,
                    "duration": 0.2927212499999996
                },
                {
                    "name": "F5",
                    "midi": 77,
                    "time": 199.34073190624937,
                    "velocity": 0.5275590551181102,
                    "duration": 0.08944260416669181
                },
                {
                    "name": "F5",
                    "midi": 77,
                    "time": 199.4407449999994,
                    "velocity": 0.5748031496062992,
                    "duration": 0.04878687499999046
                },
                {
                    "name": "G5",
                    "midi": 79,
                    "time": 199.4895318749994,
                    "velocity": 0.49606299212598426,
                    "duration": 0.04878687499999046
                },
                {
                    "name": "F5",
                    "midi": 77,
                    "time": 199.53831874999938,
                    "velocity": 0.5748031496062992,
                    "duration": 0.04878687499999046
                },
                {
                    "name": "G5",
                    "midi": 79,
                    "time": 199.58710562499937,
                    "velocity": 0.4645669291338583,
                    "duration": 0.04878687499999046
                },
                {
                    "name": "F5",
                    "midi": 77,
                    "time": 199.63589249999936,
                    "velocity": 0.5511811023622047,
                    "duration": 0.03252458333332697
                },
                {
                    "name": "G5",
                    "midi": 79,
                    "time": 199.66841708333268,
                    "velocity": 0.47244094488188976,
                    "duration": 0.03252458333332697
                },
                {
                    "name": "F5",
                    "midi": 77,
                    "time": 199.700941666666,
                    "velocity": 0.5590551181102362,
                    "duration": 0.03252458333332697
                },
                {
                    "name": "D#5",
                    "midi": 75,
                    "time": 199.73346624999934,
                    "velocity": 0.5196850393700787,
                    "duration": 0.04878687499999046
                },
                {
                    "name": "F5",
                    "midi": 77,
                    "time": 199.78225312499933,
                    "velocity": 0.4645669291338583,
                    "duration": 0.04878687499999046
                },
                {
                    "name": "F#5",
                    "midi": 78,
                    "time": 199.83103999999932,
                    "velocity": 0.6141732283464567,
                    "duration": 0.39029500000000894
                },
                {
                    "name": "F#5",
                    "midi": 78,
                    "time": 200.22133499999933,
                    "velocity": 0.5748031496062992,
                    "duration": 0.39029500000000894
                },
                {
                    "name": "F#5",
                    "midi": 78,
                    "time": 200.61162999999934,
                    "velocity": 0.6220472440944882,
                    "duration": 0.2927212499999996
                },
                {
                    "name": "F#5",
                    "midi": 78,
                    "time": 200.90435124999934,
                    "velocity": 0.5669291338582677,
                    "duration": 0.08944260416666339
                },
                {
                    "name": "F#5",
                    "midi": 78,
                    "time": 201.00192499999935,
                    "velocity": 0.6062992125984252,
                    "duration": 0.04878687499999046
                },
                {
                    "name": "G#5",
                    "midi": 80,
                    "time": 201.05071187499934,
                    "velocity": 0.5196850393700787,
                    "duration": 0.04878687499999046
                },
                {
                    "name": "F#5",
                    "midi": 78,
                    "time": 201.09949874999933,
                    "velocity": 0.6062992125984252,
                    "duration": 0.04878687499999046
                },
                {
                    "name": "G#5",
                    "midi": 80,
                    "time": 201.14828562499932,
                    "velocity": 0.49606299212598426,
                    "duration": 0.04878687499999046
                },
                {
                    "name": "F#5",
                    "midi": 78,
                    "time": 201.1970724999993,
                    "velocity": 0.5905511811023622,
                    "duration": 0.03252458333332697
                },
                {
                    "name": "G#5",
                    "midi": 80,
                    "time": 201.22959708333264,
                    "velocity": 0.5039370078740157,
                    "duration": 0.03252458333332697
                },
                {
                    "name": "F#5",
                    "midi": 78,
                    "time": 201.26212166666596,
                    "velocity": 0.5905511811023622,
                    "duration": 0.03252458333332697
                },
                {
                    "name": "F5",
                    "midi": 77,
                    "time": 201.2946462499993,
                    "velocity": 0.5511811023622047,
                    "duration": 0.04878687499999046
                },
                {
                    "name": "F#5",
                    "midi": 78,
                    "time": 201.34343312499928,
                    "velocity": 0.49606299212598426,
                    "duration": 0.04878687499999046
                },
                {
                    "name": "B5",
                    "midi": 83,
                    "time": 201.39221999999927,
                    "velocity": 0.6535433070866141,
                    "duration": 0.39029500000000894
                },
                {
                    "name": "B5",
                    "midi": 83,
                    "time": 201.78251499999928,
                    "velocity": 0.6062992125984252,
                    "duration": 0.39029500000000894
                },
                {
                    "name": "B5",
                    "midi": 83,
                    "time": 202.1728099999993,
                    "velocity": 0.6456692913385826,
                    "duration": 0.2927212499999996
                },
                {
                    "name": "B5",
                    "midi": 83,
                    "time": 202.4655312499993,
                    "velocity": 0.5354330708661418,
                    "duration": 0.08944260416666339
                },
                {
                    "name": "C#6",
                    "midi": 85,
                    "time": 202.5631049999993,
                    "velocity": 0.5669291338582677,
                    "duration": 0.09757375000000934
                },
                {
                    "name": "B5",
                    "midi": 83,
                    "time": 202.6606787499993,
                    "velocity": 0.5039370078740157,
                    "duration": 0.09757375000000934
                },
                {
                    "name": "A#5",
                    "midi": 82,
                    "time": 202.75825249999932,
                    "velocity": 0.5039370078740157,
                    "duration": 0.09757375000000934
                },
                {
                    "name": "B5",
                    "midi": 83,
                    "time": 202.85582624999932,
                    "velocity": 0.48031496062992124,
                    "duration": 0.09757375000000934
                },
                {
                    "name": "A#5",
                    "midi": 82,
                    "time": 202.95339999999933,
                    "velocity": 0.5984251968503937,
                    "duration": 0.39029500000000894
                },
                {
                    "name": "A#5",
                    "midi": 82,
                    "time": 203.34369499999934,
                    "velocity": 0.5511811023622047,
                    "duration": 0.39029500000000894
                },
                {
                    "name": "A#5",
                    "midi": 82,
                    "time": 203.73398999999935,
                    "velocity": 0.5905511811023622,
                    "duration": 0.39029500000000894
                },
                {
                    "name": "A#5",
                    "midi": 82,
                    "time": 204.12428499999936,
                    "velocity": 0.5669291338582677,
                    "duration": 0.09757375000000934
                },
                {
                    "name": "G#5",
                    "midi": 80,
                    "time": 204.22185874999937,
                    "velocity": 0.5039370078740157,
                    "duration": 0.09757375000000934
                },
                {
                    "name": "G5",
                    "midi": 79,
                    "time": 204.31943249999938,
                    "velocity": 0.5039370078740157,
                    "duration": 0.09757375000000934
                },
                {
                    "name": "G#5",
                    "midi": 80,
                    "time": 204.4170062499994,
                    "velocity": 0.48031496062992124,
                    "duration": 0.09757375000000934
                },
                {
                    "name": "G5",
                    "midi": 79,
                    "time": 204.5145799999994,
                    "velocity": 0.5433070866141733,
                    "duration": 0.7805899999999895
                },
                {
                    "name": "D#5",
                    "midi": 75,
                    "time": 205.2951699999994,
                    "velocity": 0.48031496062992124,
                    "duration": 0.7805899999999895
                },
                {
                    "name": "C6",
                    "midi": 84,
                    "time": 206.07575999999938,
                    "velocity": 0.5984251968503937,
                    "duration": 0.39029500000000894
                },
                {
                    "name": "C6",
                    "midi": 84,
                    "time": 206.4660549999994,
                    "velocity": 0.5511811023622047,
                    "duration": 0.39029500000000894
                },
                {
                    "name": "C6",
                    "midi": 84,
                    "time": 206.8563499999994,
                    "velocity": 0.5905511811023622,
                    "duration": 0.39029500000000894
                },
                {
                    "name": "C6",
                    "midi": 84,
                    "time": 207.2466449999994,
                    "velocity": 0.5669291338582677,
                    "duration": 0.09757375000000934
                },
                {
                    "name": "A#5",
                    "midi": 82,
                    "time": 207.3442187499994,
                    "velocity": 0.5039370078740157,
                    "duration": 0.09757375000000934
                },
                {
                    "name": "G#5",
                    "midi": 80,
                    "time": 207.44179249999942,
                    "velocity": 0.5039370078740157,
                    "duration": 0.09757375000000934
                },
                {
                    "name": "A#5",
                    "midi": 82,
                    "time": 207.53936624999943,
                    "velocity": 0.48031496062992124,
                    "duration": 0.09757375000000934
                },
                {
                    "name": "G#5",
                    "midi": 80,
                    "time": 207.63693999999944,
                    "velocity": 0.5669291338582677,
                    "duration": 0.1300983333333363
                },
                {
                    "name": "C6",
                    "midi": 84,
                    "time": 207.76703833333278,
                    "velocity": 0.49606299212598426,
                    "duration": 0.1300983333333363
                },
                {
                    "name": "A#5",
                    "midi": 82,
                    "time": 207.8971366666661,
                    "velocity": 0.49606299212598426,
                    "duration": 0.1300983333333363
                },
                {
                    "name": "G#5",
                    "midi": 80,
                    "time": 208.02723499999945,
                    "velocity": 0.4645669291338583,
                    "duration": 0.1300983333333363
                },
                {
                    "name": "G5",
                    "midi": 79,
                    "time": 208.1573333333328,
                    "velocity": 0.5433070866141733,
                    "duration": 0.1300983333333363
                },
                {
                    "name": "F5",
                    "midi": 77,
                    "time": 208.28743166666612,
                    "velocity": 0.4881889763779528,
                    "duration": 0.1300983333333363
                },
                {
                    "name": "D#5",
                    "midi": 75,
                    "time": 208.41752999999946,
                    "velocity": 0.4881889763779528,
                    "duration": 0.1300983333333363
                },
                {
                    "name": "C#5",
                    "midi": 73,
                    "time": 208.5476283333328,
                    "velocity": 0.4566929133858268,
                    "duration": 0.1300983333333363
                },
                {
                    "name": "C5",
                    "midi": 72,
                    "time": 208.67772666666613,
                    "velocity": 0.44881889763779526,
                    "duration": 0.1300983333333363
                },
                {
                    "name": "A#4",
                    "midi": 70,
                    "time": 208.80782499999947,
                    "velocity": 0.5118110236220472,
                    "duration": 0.1300983333333363
                },
                {
                    "name": "G#4",
                    "midi": 68,
                    "time": 208.9379233333328,
                    "velocity": 0.4645669291338583,
                    "duration": 0.1300983333333363
                },
                {
                    "name": "G4",
                    "midi": 67,
                    "time": 209.06802166666614,
                    "velocity": 0.4566929133858268,
                    "duration": 0.1300983333333363
                },
                {
                    "name": "F4",
                    "midi": 65,
                    "time": 209.19811999999948,
                    "velocity": 0.5669291338582677,
                    "duration": 0.1300983333333363
                },
                {
                    "name": "C5",
                    "midi": 72,
                    "time": 209.3282183333328,
                    "velocity": 0.49606299212598426,
                    "duration": 0.1300983333333363
                },
                {
                    "name": "A#4",
                    "midi": 70,
                    "time": 209.45831666666615,
                    "velocity": 0.49606299212598426,
                    "duration": 0.1300983333333363
                },
                {
                    "name": "G#4",
                    "midi": 68,
                    "time": 209.5884149999995,
                    "velocity": 0.4645669291338583,
                    "duration": 0.1300983333333363
                },
                {
                    "name": "G4",
                    "midi": 67,
                    "time": 209.71851333333282,
                    "velocity": 0.5275590551181102,
                    "duration": 0.1300983333333363
                },
                {
                    "name": "F4",
                    "midi": 65,
                    "time": 209.84861166666616,
                    "velocity": 0.4881889763779528,
                    "duration": 0.1300983333333363
                },
                {
                    "name": "D#4",
                    "midi": 63,
                    "time": 209.9787099999995,
                    "velocity": 0.4881889763779528,
                    "duration": 0.1300983333333363
                },
                {
                    "name": "C#4",
                    "midi": 61,
                    "time": 210.10880833333283,
                    "velocity": 0.4566929133858268,
                    "duration": 0.1300983333333363
                },
                {
                    "name": "C4",
                    "midi": 60,
                    "time": 210.23890666666617,
                    "velocity": 0.44881889763779526,
                    "duration": 0.1300983333333363
                },
                {
                    "name": "A#3",
                    "midi": 58,
                    "time": 210.3690049999995,
                    "velocity": 0.5118110236220472,
                    "duration": 0.1300983333333363
                },
                {
                    "name": "G#3",
                    "midi": 56,
                    "time": 210.49910333333284,
                    "velocity": 0.4645669291338583,
                    "duration": 0.1300983333333363
                },
                {
                    "name": "G3",
                    "midi": 55,
                    "time": 210.62920166666618,
                    "velocity": 0.4566929133858268,
                    "duration": 0.1300983333333363
                },
                {
                    "name": "F3",
                    "midi": 53,
                    "time": 210.7592999999995,
                    "velocity": 0.5748031496062992,
                    "duration": 0.39029500000000894
                },
                {
                    "name": "F3",
                    "midi": 53,
                    "time": 211.14959499999952,
                    "velocity": 0.5118110236220472,
                    "duration": 0.39029500000000894
                },
                {
                    "name": "F3",
                    "midi": 53,
                    "time": 211.53988999999953,
                    "velocity": 0.5118110236220472,
                    "duration": 0.39029500000000894
                },
                {
                    "name": "D#4",
                    "midi": 63,
                    "time": 211.93018499999954,
                    "velocity": 0.5669291338582677,
                    "duration": 0.39029500000000894
                },
                {
                    "name": "C#4",
                    "midi": 61,
                    "time": 212.32047999999955,
                    "velocity": 0.4881889763779528,
                    "duration": 0.04878687499999046
                },
                {
                    "name": "D#4",
                    "midi": 63,
                    "time": 212.36926687499954,
                    "velocity": 0.4094488188976378,
                    "duration": 0.04878687499999046
                },
                {
                    "name": "C#4",
                    "midi": 61,
                    "time": 212.41805374999953,
                    "velocity": 0.47244094488188976,
                    "duration": 0.04878687499999046
                },
                {
                    "name": "D#4",
                    "midi": 63,
                    "time": 212.46684062499952,
                    "velocity": 0.41732283464566927,
                    "duration": 0.04878687499999046
                },
                {
                    "name": "C#4",
                    "midi": 61,
                    "time": 212.5156274999995,
                    "velocity": 0.48031496062992124,
                    "duration": 0.04878687499999046
                },
                {
                    "name": "D#4",
                    "midi": 63,
                    "time": 212.5644143749995,
                    "velocity": 0.4330708661417323,
                    "duration": 0.04878687499999046
                },
                {
                    "name": "C#4",
                    "midi": 61,
                    "time": 212.6132012499995,
                    "velocity": 0.5039370078740157,
                    "duration": 0.04878687499999046
                },
                {
                    "name": "D#4",
                    "midi": 63,
                    "time": 212.66198812499948,
                    "velocity": 0.4566929133858268,
                    "duration": 0.04878687499999046
                },
                {
                    "name": "C#4",
                    "midi": 61,
                    "time": 212.71077499999947,
                    "velocity": 0.5433070866141733,
                    "duration": 0.06504916666665395
                },
                {
                    "name": "D#4",
                    "midi": 63,
                    "time": 212.77582416666613,
                    "velocity": 0.47244094488188976,
                    "duration": 0.06504916666665395
                },
                {
                    "name": "C#4",
                    "midi": 61,
                    "time": 212.84087333333278,
                    "velocity": 0.4330708661417323,
                    "duration": 0.06504916666665395
                },
                {
                    "name": "C4",
                    "midi": 60,
                    "time": 212.90592249999943,
                    "velocity": 0.47244094488188976,
                    "duration": 0.19514749999999026
                },
                {
                    "name": "A#3",
                    "midi": 58,
                    "time": 213.09700442708277,
                    "velocity": 0.4881889763779528,
                    "duration": 0.3902949999999805
                },
                {
                    "name": "G3",
                    "midi": 55,
                    "time": 213.8816599999994,
                    "velocity": 0.5748031496062992,
                    "duration": 0.39029500000000894
                },
                {
                    "name": "G3",
                    "midi": 55,
                    "time": 214.27195499999942,
                    "velocity": 0.5118110236220472,
                    "duration": 0.39029500000000894
                },
                {
                    "name": "G3",
                    "midi": 55,
                    "time": 214.66224999999943,
                    "velocity": 0.5118110236220472,
                    "duration": 0.39029500000000894
                },
                {
                    "name": "F4",
                    "midi": 65,
                    "time": 215.05254499999944,
                    "velocity": 0.5669291338582677,
                    "duration": 0.39029500000000894
                },
                {
                    "name": "E4",
                    "midi": 64,
                    "time": 215.44283999999945,
                    "velocity": 0.47244094488188976,
                    "duration": 0.1300983333333363
                },
                {
                    "name": "D4",
                    "midi": 62,
                    "time": 215.5729383333328,
                    "velocity": 0.3858267716535433,
                    "duration": 0.1300983333333363
                },
                {
                    "name": "C4",
                    "midi": 60,
                    "time": 215.70303666666612,
                    "velocity": 0.3858267716535433,
                    "duration": 0.06504916666665395
                },
                {
                    "name": "C4",
                    "midi": 60,
                    "time": 215.83313499999943,
                    "velocity": 0.4409448818897638,
                    "duration": 0.06504916666665395
                },
                {
                    "name": "C4",
                    "midi": 60,
                    "time": 215.96323333333274,
                    "velocity": 0.3858267716535433,
                    "duration": 0.06504916666665395
                },
                {
                    "name": "C4",
                    "midi": 60,
                    "time": 216.09333166666605,
                    "velocity": 0.3858267716535433,
                    "duration": 0.06504916666665395
                },
                {
                    "name": "G4",
                    "midi": 67,
                    "time": 216.22342999999935,
                    "velocity": 0.47244094488188976,
                    "duration": 0.1300983333333363
                },
                {
                    "name": "F4",
                    "midi": 65,
                    "time": 216.3535283333327,
                    "velocity": 0.3858267716535433,
                    "duration": 0.1300983333333363
                },
                {
                    "name": "E4",
                    "midi": 64,
                    "time": 216.48362666666603,
                    "velocity": 0.3858267716535433,
                    "duration": 0.06504916666665395
                },
                {
                    "name": "E4",
                    "midi": 64,
                    "time": 216.61372499999933,
                    "velocity": 0.4409448818897638,
                    "duration": 0.06504916666665395
                },
                {
                    "name": "E4",
                    "midi": 64,
                    "time": 216.74382333333264,
                    "velocity": 0.3858267716535433,
                    "duration": 0.06504916666665395
                },
                {
                    "name": "E4",
                    "midi": 64,
                    "time": 216.87392166666595,
                    "velocity": 0.3858267716535433,
                    "duration": 0.06504916666665395
                },
                {
                    "name": "A#4",
                    "midi": 70,
                    "time": 217.00401999999926,
                    "velocity": 0.5118110236220472,
                    "duration": 0.1300983333333363
                },
                {
                    "name": "G#4",
                    "midi": 68,
                    "time": 217.1341183333326,
                    "velocity": 0.3937007874015748,
                    "duration": 0.1300983333333363
                },
                {
                    "name": "G4",
                    "midi": 67,
                    "time": 217.26421666666593,
                    "velocity": 0.3937007874015748,
                    "duration": 0.06504916666665395
                },
                {
                    "name": "G4",
                    "midi": 67,
                    "time": 217.39431499999924,
                    "velocity": 0.48031496062992124,
                    "duration": 0.06504916666665395
                },
                {
                    "name": "G4",
                    "midi": 67,
                    "time": 217.52441333333255,
                    "velocity": 0.4251968503937008,
                    "duration": 0.06504916666665395
                },
                {
                    "name": "G4",
                    "midi": 67,
                    "time": 217.65451166666585,
                    "velocity": 0.4251968503937008,
                    "duration": 0.06504916666665395
                },
                {
                    "name": "G5",
                    "midi": 79,
                    "time": 217.78460999999916,
                    "velocity": 0.5196850393700787,
                    "duration": 0.1300983333333363
                },
                {
                    "name": "F5",
                    "midi": 77,
                    "time": 217.9147083333325,
                    "velocity": 0.49606299212598426,
                    "duration": 0.1300983333333363
                },
                {
                    "name": "E5",
                    "midi": 76,
                    "time": 218.04480666666583,
                    "velocity": 0.4409448818897638,
                    "duration": 0.1300983333333363
                },
                {
                    "name": "C#5",
                    "midi": 73,
                    "time": 218.17490499999917,
                    "velocity": 0.5196850393700787,
                    "duration": 0.1300983333333363
                },
                {
                    "name": "C5",
                    "midi": 72,
                    "time": 218.3050033333325,
                    "velocity": 0.47244094488188976,
                    "duration": 0.1300983333333363
                },
                {
                    "name": "A#4",
                    "midi": 70,
                    "time": 218.43510166666584,
                    "velocity": 0.44881889763779526,
                    "duration": 0.1300983333333363
                },
                {
                    "name": "G#4",
                    "midi": 68,
                    "time": 218.56519999999918,
                    "velocity": 0.5590551181102362,
                    "duration": 0.1300983333333363
                },
                {
                    "name": "C5",
                    "midi": 72,
                    "time": 218.69529833333252,
                    "velocity": 0.4330708661417323,
                    "duration": 0.1300983333333363
                },
                {
                    "name": "F5",
                    "midi": 77,
                    "time": 218.82539666666585,
                    "velocity": 0.4330708661417323,
                    "duration": 0.06504916666665395
                },
                {
                    "name": "F5",
                    "midi": 77,
                    "time": 218.95549499999916,
                    "velocity": 0.5590551181102362,
                    "duration": 0.06504916666665395
                },
                {
                    "name": "F5",
                    "midi": 77,
                    "time": 219.08559333333247,
                    "velocity": 0.44881889763779526,
                    "duration": 0.06504916666665395
                },
                {
                    "name": "F5",
                    "midi": 77,
                    "time": 219.21569166666578,
                    "velocity": 0.44881889763779526,
                    "duration": 0.06504916666665395
                },
                {
                    "name": "E5",
                    "midi": 76,
                    "time": 219.34578999999908,
                    "velocity": 0.6141732283464567,
                    "duration": 0.1300983333333363
                },
                {
                    "name": "G5",
                    "midi": 79,
                    "time": 219.47588833333242,
                    "velocity": 0.5275590551181102,
                    "duration": 0.1300983333333363
                },
                {
                    "name": "A#5",
                    "midi": 82,
                    "time": 219.60598666666576,
                    "velocity": 0.5275590551181102,
                    "duration": 0.06504916666665395
                },
                {
                    "name": "A#5",
                    "midi": 82,
                    "time": 219.73608499999906,
                    "velocity": 0.5984251968503937,
                    "duration": 0.06504916666665395
                },
                {
                    "name": "A#5",
                    "midi": 82,
                    "time": 219.86618333333237,
                    "velocity": 0.4881889763779528,
                    "duration": 0.06504916666665395
                },
                {
                    "name": "A#5",
                    "midi": 82,
                    "time": 219.99628166666568,
                    "velocity": 0.49606299212598426,
                    "duration": 0.06504916666665395
                },
                {
                    "name": "G#5",
                    "midi": 80,
                    "time": 220.126379999999,
                    "velocity": 0.6141732283464567,
                    "duration": 0.1300983333333363
                },
                {
                    "name": "C6",
                    "midi": 84,
                    "time": 220.25647833333232,
                    "velocity": 0.5118110236220472,
                    "duration": 0.1300983333333363
                },
                {
                    "name": "F6",
                    "midi": 89,
                    "time": 220.38657666666566,
                    "velocity": 0.5118110236220472,
                    "duration": 0.06504916666665395
                },
                {
                    "name": "F6",
                    "midi": 89,
                    "time": 220.51667499999897,
                    "velocity": 0.5669291338582677,
                    "duration": 0.06504916666665395
                },
                {
                    "name": "F6",
                    "midi": 89,
                    "time": 220.64677333333228,
                    "velocity": 0.5039370078740157,
                    "duration": 0.06504916666665395
                },
                {
                    "name": "F6",
                    "midi": 89,
                    "time": 220.77687166666558,
                    "velocity": 0.5039370078740157,
                    "duration": 0.06504916666665395
                },
                {
                    "name": "G5",
                    "midi": 79,
                    "time": 220.9069699999989,
                    "velocity": 0.6141732283464567,
                    "duration": 0.1300983333333363
                },
                {
                    "name": "A#5",
                    "midi": 82,
                    "time": 221.03706833333223,
                    "velocity": 0.5196850393700787,
                    "duration": 0.1300983333333363
                },
                {
                    "name": "C#6",
                    "midi": 85,
                    "time": 221.16716666666557,
                    "velocity": 0.5118110236220472,
                    "duration": 0.06504916666665395
                },
                {
                    "name": "C#6",
                    "midi": 85,
                    "time": 221.29726499999887,
                    "velocity": 0.5590551181102362,
                    "duration": 0.06504916666665395
                },
                {
                    "name": "C#6",
                    "midi": 85,
                    "time": 221.42736333333218,
                    "velocity": 0.4881889763779528,
                    "duration": 0.06504916666665395
                },
                {
                    "name": "C#6",
                    "midi": 85,
                    "time": 221.5574616666655,
                    "velocity": 0.48031496062992124,
                    "duration": 0.06504916666665395
                },
                {
                    "name": "G#5",
                    "midi": 80,
                    "time": 222.0778549999988,
                    "velocity": 0.5039370078740157,
                    "duration": 0.1463606249999998
                },
                {
                    "name": "C6",
                    "midi": 84,
                    "time": 222.0778549999988,
                    "velocity": 0.5984251968503937,
                    "duration": 0.1463606249999998
                },
                {
                    "name": "A#4",
                    "midi": 70,
                    "time": 222.8584449999988,
                    "velocity": 0.47244094488188976,
                    "duration": 0.39029500000000894
                },
                {
                    "name": "E5",
                    "midi": 76,
                    "time": 222.8584449999988,
                    "velocity": 0.47244094488188976,
                    "duration": 0.39029500000000894
                },
                {
                    "name": "D#5",
                    "midi": 75,
                    "time": 223.2487399999988,
                    "velocity": 0.47244094488188976,
                    "duration": 0.39029500000000894
                },
                {
                    "name": "D#5",
                    "midi": 75,
                    "time": 223.6390349999988,
                    "velocity": 0.4251968503937008,
                    "duration": 0.39029500000000894
                },
                {
                    "name": "D#5",
                    "midi": 75,
                    "time": 224.02932999999882,
                    "velocity": 0.47244094488188976,
                    "duration": 0.39029500000000894
                },
                {
                    "name": "D#5",
                    "midi": 75,
                    "time": 224.41962499999883,
                    "velocity": 0.4330708661417323,
                    "duration": 0.39029500000000894
                },
                {
                    "name": "D5",
                    "midi": 74,
                    "time": 224.80991999999884,
                    "velocity": 0.44881889763779526,
                    "duration": 0.7805899999999895
                },
                {
                    "name": "A#4",
                    "midi": 70,
                    "time": 225.59050999999883,
                    "velocity": 0.4566929133858268,
                    "duration": 0.7805899999999895
                },
                {
                    "name": "C#5",
                    "midi": 73,
                    "time": 226.37109999999882,
                    "velocity": 0.6141732283464567,
                    "duration": 0.39029500000000894
                },
                {
                    "name": "C#5",
                    "midi": 73,
                    "time": 226.76139499999883,
                    "velocity": 0.5748031496062992,
                    "duration": 0.39029500000000894
                },
                {
                    "name": "C#5",
                    "midi": 73,
                    "time": 227.15168999999884,
                    "velocity": 0.5748031496062992,
                    "duration": 0.04878687499999046
                },
                {
                    "name": "D#5",
                    "midi": 75,
                    "time": 227.20047687499883,
                    "velocity": 0.4881889763779528,
                    "duration": 0.04878687499999046
                },
                {
                    "name": "C#5",
                    "midi": 73,
                    "time": 227.24926374999882,
                    "velocity": 0.5748031496062992,
                    "duration": 0.04878687499999046
                },
                {
                    "name": "D#5",
                    "midi": 75,
                    "time": 227.2980506249988,
                    "velocity": 0.4645669291338583,
                    "duration": 0.04878687499999046
                },
                {
                    "name": "C#5",
                    "midi": 73,
                    "time": 227.3468374999988,
                    "velocity": 0.5590551181102362,
                    "duration": 0.03252458333332697
                },
                {
                    "name": "D#5",
                    "midi": 75,
                    "time": 227.37936208333213,
                    "velocity": 0.47244094488188976,
                    "duration": 0.03252458333332697
                },
                {
                    "name": "C#5",
                    "midi": 73,
                    "time": 227.41188666666545,
                    "velocity": 0.5590551181102362,
                    "duration": 0.03252458333332697
                },
                {
                    "name": "C5",
                    "midi": 72,
                    "time": 227.44441124999878,
                    "velocity": 0.5196850393700787,
                    "duration": 0.04878687499999046
                },
                {
                    "name": "C#5",
                    "midi": 73,
                    "time": 227.49319812499877,
                    "velocity": 0.4645669291338583,
                    "duration": 0.04878687499999046
                },
                {
                    "name": "A#5",
                    "midi": 82,
                    "time": 227.54198499999876,
                    "velocity": 0.6220472440944882,
                    "duration": 0.19514749999999026
                },
                {
                    "name": "C#5",
                    "midi": 73,
                    "time": 227.73713249999875,
                    "velocity": 0.5669291338582677,
                    "duration": 0.19514749999999026
                },
                {
                    "name": "C5",
                    "midi": 72,
                    "time": 227.93227999999874,
                    "velocity": 0.6141732283464567,
                    "duration": 0.39029500000000894
                },
                {
                    "name": "C5",
                    "midi": 72,
                    "time": 228.32257499999875,
                    "velocity": 0.5748031496062992,
                    "duration": 0.39029500000000894
                },
                {
                    "name": "C5",
                    "midi": 72,
                    "time": 228.71286999999876,
                    "velocity": 0.5748031496062992,
                    "duration": 0.04878687499999046
                },
                {
                    "name": "C#5",
                    "midi": 73,
                    "time": 228.76165687499875,
                    "velocity": 0.4881889763779528,
                    "duration": 0.04878687499999046
                },
                {
                    "name": "C5",
                    "midi": 72,
                    "time": 228.81044374999874,
                    "velocity": 0.5748031496062992,
                    "duration": 0.04878687499999046
                },
                {
                    "name": "C#5",
                    "midi": 73,
                    "time": 228.85923062499873,
                    "velocity": 0.4645669291338583,
                    "duration": 0.04878687499999046
                },
                {
                    "name": "C5",
                    "midi": 72,
                    "time": 228.90801749999872,
                    "velocity": 0.5590551181102362,
                    "duration": 0.03252458333332697
                },
                {
                    "name": "C#5",
                    "midi": 73,
                    "time": 228.94054208333205,
                    "velocity": 0.47244094488188976,
                    "duration": 0.03252458333332697
                },
                {
                    "name": "C5",
                    "midi": 72,
                    "time": 228.97306666666537,
                    "velocity": 0.5590551181102362,
                    "duration": 0.03252458333332697
                },
                {
                    "name": "A#4",
                    "midi": 70,
                    "time": 229.0055912499987,
                    "velocity": 0.5196850393700787,
                    "duration": 0.04878687499999046
                },
                {
                    "name": "C5",
                    "midi": 72,
                    "time": 229.0543781249987,
                    "velocity": 0.4645669291338583,
                    "duration": 0.04878687499999046
                },
                {
                    "name": "D#5",
                    "midi": 75,
                    "time": 229.10316499999868,
                    "velocity": 0.6220472440944882,
                    "duration": 0.19514749999999026
                },
                {
                    "name": "C5",
                    "midi": 72,
                    "time": 229.29831249999867,
                    "velocity": 0.5669291338582677,
                    "duration": 0.19514749999999026
                },
                {
                    "name": "A#4",
                    "midi": 70,
                    "time": 229.49345999999866,
                    "velocity": 0.6141732283464567,
                    "duration": 0.39029500000000894
                },
                {
                    "name": "A#4",
                    "midi": 70,
                    "time": 229.88375499999867,
                    "velocity": 0.5748031496062992,
                    "duration": 0.39029500000000894
                },
                {
                    "name": "A#4",
                    "midi": 70,
                    "time": 230.27404999999868,
                    "velocity": 0.5748031496062992,
                    "duration": 0.04878687499999046
                },
                {
                    "name": "C5",
                    "midi": 72,
                    "time": 230.32283687499867,
                    "velocity": 0.4881889763779528,
                    "duration": 0.04878687499999046
                },
                {
                    "name": "A#4",
                    "midi": 70,
                    "time": 230.37162374999866,
                    "velocity": 0.5748031496062992,
                    "duration": 0.04878687499999046
                },
                {
                    "name": "C5",
                    "midi": 72,
                    "time": 230.42041062499865,
                    "velocity": 0.4645669291338583,
                    "duration": 0.04878687499999046
                },
                {
                    "name": "A#4",
                    "midi": 70,
                    "time": 230.46919749999864,
                    "velocity": 0.5590551181102362,
                    "duration": 0.03252458333332697
                },
                {
                    "name": "C5",
                    "midi": 72,
                    "time": 230.50172208333197,
                    "velocity": 0.47244094488188976,
                    "duration": 0.03252458333332697
                },
                {
                    "name": "A#4",
                    "midi": 70,
                    "time": 230.5342466666653,
                    "velocity": 0.5590551181102362,
                    "duration": 0.03252458333332697
                },
                {
                    "name": "A4",
                    "midi": 69,
                    "time": 230.56677124999862,
                    "velocity": 0.5196850393700787,
                    "duration": 0.04878687499999046
                },
                {
                    "name": "A#4",
                    "midi": 70,
                    "time": 230.6155581249986,
                    "velocity": 0.4645669291338583,
                    "duration": 0.04878687499999046
                },
                {
                    "name": "F5",
                    "midi": 77,
                    "time": 230.6643449999986,
                    "velocity": 0.6220472440944882,
                    "duration": 0.19514749999999026
                },
                {
                    "name": "G#4",
                    "midi": 68,
                    "time": 230.8594924999986,
                    "velocity": 0.5669291338582677,
                    "duration": 0.19514749999999026
                },
                {
                    "name": "G4",
                    "midi": 67,
                    "time": 231.05463999999859,
                    "velocity": 0.6062992125984252,
                    "duration": 0.1300983333333363
                },
                {
                    "name": "A#4",
                    "midi": 70,
                    "time": 231.18473833333192,
                    "velocity": 0.5354330708661418,
                    "duration": 0.1300983333333363
                },
                {
                    "name": "G#4",
                    "midi": 68,
                    "time": 231.31483666666526,
                    "velocity": 0.5354330708661418,
                    "duration": 0.1300983333333363
                },
                {
                    "name": "G4",
                    "midi": 67,
                    "time": 231.4449349999986,
                    "velocity": 0.5196850393700787,
                    "duration": 0.1300983333333363
                },
                {
                    "name": "G5",
                    "midi": 79,
                    "time": 231.57503333333193,
                    "velocity": 0.5984251968503937,
                    "duration": 0.1300983333333363
                },
                {
                    "name": "F5",
                    "midi": 77,
                    "time": 231.70513166666527,
                    "velocity": 0.5433070866141733,
                    "duration": 0.1300983333333363
                },
                {
                    "name": "D#5",
                    "midi": 75,
                    "time": 231.8352299999986,
                    "velocity": 0.5039370078740157,
                    "duration": 0.1300983333333363
                },
                {
                    "name": "A#5",
                    "midi": 82,
                    "time": 231.96532833333194,
                    "velocity": 0.5826771653543307,
                    "duration": 0.1300983333333363
                },
                {
                    "name": "G#5",
                    "midi": 80,
                    "time": 232.09542666666528,
                    "velocity": 0.5433070866141733,
                    "duration": 0.1300983333333363
                },
                {
                    "name": "G5",
                    "midi": 79,
                    "time": 232.2255249999986,
                    "velocity": 0.5354330708661418,
                    "duration": 0.1300983333333363
                },
                {
                    "name": "F5",
                    "midi": 77,
                    "time": 232.35562333333195,
                    "velocity": 0.5196850393700787,
                    "duration": 0.1300983333333363
                },
                {
                    "name": "D#5",
                    "midi": 75,
                    "time": 232.48572166666528,
                    "velocity": 0.5118110236220472,
                    "duration": 0.1300983333333363
                },
                {
                    "name": "D5",
                    "midi": 74,
                    "time": 232.61581999999862,
                    "velocity": 0.6062992125984252,
                    "duration": 0.1300983333333363
                },
                {
                    "name": "F5",
                    "midi": 77,
                    "time": 232.74591833333196,
                    "velocity": 0.5354330708661418,
                    "duration": 0.1300983333333363
                },
                {
                    "name": "D#5",
                    "midi": 75,
                    "time": 232.8760166666653,
                    "velocity": 0.5354330708661418,
                    "duration": 0.1300983333333363
                },
                {
                    "name": "D5",
                    "midi": 74,
                    "time": 233.00611499999863,
                    "velocity": 0.5196850393700787,
                    "duration": 0.1300983333333363
                },
                {
                    "name": "G#5",
                    "midi": 80,
                    "time": 233.13621333333197,
                    "velocity": 0.5984251968503937,
                    "duration": 0.1300983333333363
                },
                {
                    "name": "G5",
                    "midi": 79,
                    "time": 233.2663116666653,
                    "velocity": 0.5433070866141733,
                    "duration": 0.1300983333333363
                },
                {
                    "name": "F5",
                    "midi": 77,
                    "time": 233.39640999999864,
                    "velocity": 0.5039370078740157,
                    "duration": 0.1300983333333363
                },
                {
                    "name": "C6",
                    "midi": 84,
                    "time": 233.52650833333198,
                    "velocity": 0.5826771653543307,
                    "duration": 0.1300983333333363
                },
                {
                    "name": "A#5",
                    "midi": 82,
                    "time": 233.6566066666653,
                    "velocity": 0.5433070866141733,
                    "duration": 0.1300983333333363
                },
                {
                    "name": "G#5",
                    "midi": 80,
                    "time": 233.78670499999865,
                    "velocity": 0.5354330708661418,
                    "duration": 0.1300983333333363
                },
                {
                    "name": "G5",
                    "midi": 79,
                    "time": 233.91680333333198,
                    "velocity": 0.5196850393700787,
                    "duration": 0.1300983333333363
                },
                {
                    "name": "F5",
                    "midi": 77,
                    "time": 234.04690166666532,
                    "velocity": 0.5118110236220472,
                    "duration": 0.1300983333333363
                },
                {
                    "name": "D#5",
                    "midi": 75,
                    "time": 234.17699999999866,
                    "velocity": 0.6062992125984252,
                    "duration": 0.19514749999999026
                },
                {
                    "name": "D5",
                    "midi": 74,
                    "time": 234.37214749999865,
                    "velocity": 0.5354330708661418,
                    "duration": 0.19514749999999026
                },
                {
                    "name": "F5",
                    "midi": 77,
                    "time": 234.56729499999864,
                    "velocity": 0.5826771653543307,
                    "duration": 0.19514749999999026
                },
                {
                    "name": "D#5",
                    "midi": 75,
                    "time": 234.76244249999863,
                    "velocity": 0.5511811023622047,
                    "duration": 0.19514749999999026
                },
                {
                    "name": "G5",
                    "midi": 79,
                    "time": 234.95758999999862,
                    "velocity": 0.5748031496062992,
                    "duration": 0.19514749999999026
                },
                {
                    "name": "F5",
                    "midi": 77,
                    "time": 235.1527374999986,
                    "velocity": 0.5196850393700787,
                    "duration": 0.19514749999999026
                },
                {
                    "name": "G#5",
                    "midi": 80,
                    "time": 235.3478849999986,
                    "velocity": 0.5669291338582677,
                    "duration": 0.19514749999999026
                },
                {
                    "name": "G5",
                    "midi": 79,
                    "time": 235.5430324999986,
                    "velocity": 0.49606299212598426,
                    "duration": 0.19514749999999026
                },
                {
                    "name": "A#5",
                    "midi": 82,
                    "time": 235.73817999999858,
                    "velocity": 0.6062992125984252,
                    "duration": 0.19514749999999026
                },
                {
                    "name": "G#5",
                    "midi": 80,
                    "time": 235.93332749999857,
                    "velocity": 0.5826771653543307,
                    "duration": 0.19514749999999026
                },
                {
                    "name": "C6",
                    "midi": 84,
                    "time": 236.12847499999856,
                    "velocity": 0.6062992125984252,
                    "duration": 0.39029500000000894
                },
                {
                    "name": "A#5",
                    "midi": 82,
                    "time": 236.51876999999857,
                    "velocity": 0.5748031496062992,
                    "duration": 0.39029500000000894
                },
                {
                    "name": "G#5",
                    "midi": 80,
                    "time": 236.90906499999858,
                    "velocity": 0.5433070866141733,
                    "duration": 0.39029500000000894
                },
                {
                    "name": "G5",
                    "midi": 79,
                    "time": 237.2993599999986,
                    "velocity": 0.5433070866141733,
                    "duration": 0.39029500000000894
                },
                {
                    "name": "F5",
                    "midi": 77,
                    "time": 237.6896549999986,
                    "velocity": 0.5196850393700787,
                    "duration": 0.39029500000000894
                },
                {
                    "name": "D#5",
                    "midi": 75,
                    "time": 238.0799499999986,
                    "velocity": 0.4881889763779528,
                    "duration": 0.39029500000000894
                },
                {
                    "name": "D5",
                    "midi": 74,
                    "time": 238.4702449999986,
                    "velocity": 0.4645669291338583,
                    "duration": 0.39029500000000894
                },
                {
                    "name": "G#5",
                    "midi": 80,
                    "time": 238.86053999999862,
                    "velocity": 0.5196850393700787,
                    "duration": 0.7805899999999895
                },
                {
                    "name": "G5",
                    "midi": 79,
                    "time": 239.6411299999986,
                    "velocity": 0.49606299212598426,
                    "duration": 0.19514749999999026
                },
                {
                    "name": "G#5",
                    "midi": 80,
                    "time": 239.8362774999986,
                    "velocity": 0.4409448818897638,
                    "duration": 0.19514749999999026
                },
                {
                    "name": "A#5",
                    "midi": 82,
                    "time": 240.0314249999986,
                    "velocity": 0.4881889763779528,
                    "duration": 0.19514749999999026
                },
                {
                    "name": "G#5",
                    "midi": 80,
                    "time": 240.22657249999858,
                    "velocity": 0.4566929133858268,
                    "duration": 0.17888520833332677
                },
                {
                    "name": "G#5",
                    "midi": 80,
                    "time": 240.42171999999857,
                    "velocity": 0.5118110236220472,
                    "duration": 1.1708849999999984
                },
                {
                    "name": "D5",
                    "midi": 74,
                    "time": 241.59260499999857,
                    "velocity": 0.4409448818897638,
                    "duration": 0.39029500000000894
                },
                {
                    "name": "D5",
                    "midi": 74,
                    "time": 241.98289999999858,
                    "velocity": 0.33070866141732286,
                    "duration": 0.02439343750000944
                },
                {
                    "name": "D#5",
                    "midi": 75,
                    "time": 242.0072934374986,
                    "velocity": 0.3937007874015748,
                    "duration": 0.02439343750000944
                },
                {
                    "name": "F5",
                    "midi": 77,
                    "time": 242.0316868749986,
                    "velocity": 0.36220472440944884,
                    "duration": 0.02439343750000944
                },
                {
                    "name": "D#5",
                    "midi": 75,
                    "time": 242.0560803124986,
                    "velocity": 0.3937007874015748,
                    "duration": 0.02439343750000944
                },
                {
                    "name": "F5",
                    "midi": 77,
                    "time": 242.08047374999862,
                    "velocity": 0.36220472440944884,
                    "duration": 0.02439343750000944
                },
                {
                    "name": "D#5",
                    "midi": 75,
                    "time": 242.10486718749863,
                    "velocity": 0.3937007874015748,
                    "duration": 0.02439343750000944
                },
                {
                    "name": "F5",
                    "midi": 77,
                    "time": 242.12926062499864,
                    "velocity": 0.3543307086614173,
                    "duration": 0.02439343750000944
                },
                {
                    "name": "D#5",
                    "midi": 75,
                    "time": 242.15365406249865,
                    "velocity": 0.3937007874015748,
                    "duration": 0.02439343750000944
                },
                {
                    "name": "F5",
                    "midi": 77,
                    "time": 242.17804749999866,
                    "velocity": 0.36220472440944884,
                    "duration": 0.02439343750000944
                },
                {
                    "name": "D#5",
                    "midi": 75,
                    "time": 242.20244093749866,
                    "velocity": 0.3937007874015748,
                    "duration": 0.02439343750000944
                },
                {
                    "name": "F5",
                    "midi": 77,
                    "time": 242.22683437499867,
                    "velocity": 0.3937007874015748,
                    "duration": 0.02439343750000944
                },
                {
                    "name": "D#5",
                    "midi": 75,
                    "time": 242.25122781249868,
                    "velocity": 0.3543307086614173,
                    "duration": 0.02439343750000944
                },
                {
                    "name": "D5",
                    "midi": 74,
                    "time": 242.2756212499987,
                    "velocity": 0.4330708661417323,
                    "duration": 0.04878687499999046
                },
                {
                    "name": "D#5",
                    "midi": 75,
                    "time": 242.32440812499868,
                    "velocity": 0.4330708661417323,
                    "duration": 0.04878687499999046
                },
                {
                    "name": "D#4",
                    "midi": 63,
                    "time": 243.15378499999866,
                    "velocity": 0.5669291338582677,
                    "duration": 0.2927212499999996
                },
                {
                    "name": "C4",
                    "midi": 60,
                    "time": 243.44650624999866,
                    "velocity": 0.5196850393700787,
                    "duration": 0.09757375000000934
                },
                {
                    "name": "G#4",
                    "midi": 68,
                    "time": 243.54407999999867,
                    "velocity": 0.5669291338582677,
                    "duration": 0.2927212499999996
                },
                {
                    "name": "G#4",
                    "midi": 68,
                    "time": 243.83680124999867,
                    "velocity": 0.5118110236220472,
                    "duration": 0.09757375000000934
                },
                {
                    "name": "G#4",
                    "midi": 68,
                    "time": 243.93437499999868,
                    "velocity": 0.5669291338582677,
                    "duration": 0.04878687499999046
                },
                {
                    "name": "A#4",
                    "midi": 70,
                    "time": 243.98316187499867,
                    "velocity": 0.4881889763779528,
                    "duration": 0.04878687499999046
                },
                {
                    "name": "G#4",
                    "midi": 68,
                    "time": 244.03194874999866,
                    "velocity": 0.5669291338582677,
                    "duration": 0.04878687499999046
                },
                {
                    "name": "A#4",
                    "midi": 70,
                    "time": 244.08073562499865,
                    "velocity": 0.4566929133858268,
                    "duration": 0.04878687499999046
                },
                {
                    "name": "G#4",
                    "midi": 68,
                    "time": 244.12952249999864,
                    "velocity": 0.5433070866141733,
                    "duration": 0.03252458333332697
                },
                {
                    "name": "A#4",
                    "midi": 70,
                    "time": 244.16204708333197,
                    "velocity": 0.4645669291338583,
                    "duration": 0.03252458333332697
                },
                {
                    "name": "G#4",
                    "midi": 68,
                    "time": 244.1945716666653,
                    "velocity": 0.5433070866141733,
                    "duration": 0.03252458333332697
                },
                {
                    "name": "G4",
                    "midi": 67,
                    "time": 244.22709624999862,
                    "velocity": 0.5118110236220472,
                    "duration": 0.04878687499999046
                },
                {
                    "name": "G#4",
                    "midi": 68,
                    "time": 244.27588312499861,
                    "velocity": 0.4566929133858268,
                    "duration": 0.04878687499999046
                },
                {
                    "name": "A#4",
                    "midi": 70,
                    "time": 244.3246699999986,
                    "velocity": 0.5669291338582677,
                    "duration": 0.39029500000000894
                },
                {
                    "name": "D#4",
                    "midi": 63,
                    "time": 244.7149649999986,
                    "velocity": 0.5669291338582677,
                    "duration": 0.2927212499999996
                },
                {
                    "name": "D#5",
                    "midi": 75,
                    "time": 245.0076862499986,
                    "velocity": 0.5354330708661418,
                    "duration": 0.09757375000000934
                },
                {
                    "name": "C#5",
                    "midi": 73,
                    "time": 245.10525999999862,
                    "velocity": 0.6456692913385826,
                    "duration": 0.7805899999999895
                },
                {
                    "name": "C5",
                    "midi": 72,
                    "time": 245.8858499999986,
                    "velocity": 0.5669291338582677,
                    "duration": 0.1463606249999998
                },
                {
                    "name": "G#4",
                    "midi": 68,
                    "time": 246.27614499999862,
                    "velocity": 0.3858267716535433,
                    "duration": 0.2927212499999996
                },
                {
                    "name": "F5",
                    "midi": 77,
                    "time": 246.56886624999862,
                    "velocity": 0.3464566929133858,
                    "duration": 0.09757375000000934
                },
                {
                    "name": "D#5",
                    "midi": 75,
                    "time": 246.66643999999863,
                    "velocity": 0.4330708661417323,
                    "duration": 0.7805899999999895
                },
                {
                    "name": "C#5",
                    "midi": 73,
                    "time": 247.44702999999862,
                    "velocity": 0.3858267716535433,
                    "duration": 0.1463606249999998
                },
                {
                    "name": "D#4",
                    "midi": 63,
                    "time": 247.83732499999863,
                    "velocity": 0.5669291338582677,
                    "duration": 0.2927212499999996
                },
                {
                    "name": "D#5",
                    "midi": 75,
                    "time": 248.13004624999863,
                    "velocity": 0.5354330708661418,
                    "duration": 0.09757375000000934
                },
                {
                    "name": "C#5",
                    "midi": 73,
                    "time": 248.22761999999864,
                    "velocity": 0.6456692913385826,
                    "duration": 0.7805899999999895
                },
                {
                    "name": "C5",
                    "midi": 72,
                    "time": 249.00820999999863,
                    "velocity": 0.5669291338582677,
                    "duration": 0.1463606249999998
                },
                {
                    "name": "G#5",
                    "midi": 80,
                    "time": 249.39850499999864,
                    "velocity": 0.6377952755905512,
                    "duration": 0.2927212499999996
                },
                {
                    "name": "C5",
                    "midi": 72,
                    "time": 249.69122624999864,
                    "velocity": 0.5354330708661418,
                    "duration": 0.09757375000000934
                },
                {
                    "name": "A#4",
                    "midi": 70,
                    "time": 249.78879999999864,
                    "velocity": 0.6220472440944882,
                    "duration": 0.2927212499999996
                },
                {
                    "name": "A#4",
                    "midi": 70,
                    "time": 250.08152124999864,
                    "velocity": 0.5118110236220472,
                    "duration": 0.09757375000000934
                },
                {
                    "name": "A#4",
                    "midi": 70,
                    "time": 250.17909499999865,
                    "velocity": 0.5669291338582677,
                    "duration": 0.04878687499999046
                },
                {
                    "name": "C5",
                    "midi": 72,
                    "time": 250.22788187499864,
                    "velocity": 0.4881889763779528,
                    "duration": 0.04878687499999046
                },
                {
                    "name": "A#4",
                    "midi": 70,
                    "time": 250.27666874999863,
                    "velocity": 0.5669291338582677,
                    "duration": 0.04878687499999046
                },
                {
                    "name": "C5",
                    "midi": 72,
                    "time": 250.32545562499863,
                    "velocity": 0.4566929133858268,
                    "duration": 0.04878687499999046
                },
                {
                    "name": "A#4",
                    "midi": 70,
                    "time": 250.37424249999862,
                    "velocity": 0.5433070866141733,
                    "duration": 0.03252458333332697
                },
                {
                    "name": "C5",
                    "midi": 72,
                    "time": 250.40676708333194,
                    "velocity": 0.4645669291338583,
                    "duration": 0.03252458333332697
                },
                {
                    "name": "A#4",
                    "midi": 70,
                    "time": 250.43929166666527,
                    "velocity": 0.5433070866141733,
                    "duration": 0.03252458333332697
                },
                {
                    "name": "A4",
                    "midi": 69,
                    "time": 250.4718162499986,
                    "velocity": 0.5118110236220472,
                    "duration": 0.04878687499999046
                },
                {
                    "name": "A#4",
                    "midi": 70,
                    "time": 250.5206031249986,
                    "velocity": 0.4566929133858268,
                    "duration": 0.04878687499999046
                },
                {
                    "name": "C#5",
                    "midi": 73,
                    "time": 250.56938999999858,
                    "velocity": 0.6141732283464567,
                    "duration": 0.2927212499999996
                },
                {
                    "name": "A#4",
                    "midi": 70,
                    "time": 250.86211124999858,
                    "velocity": 0.5590551181102362,
                    "duration": 0.09757375000000934
                },
                {
                    "name": "G4",
                    "midi": 67,
                    "time": 250.9596849999986,
                    "velocity": 0.6220472440944882,
                    "duration": 0.2927212499999996
                },
                {
                    "name": "D#4",
                    "midi": 63,
                    "time": 251.2524062499986,
                    "velocity": 0.5669291338582677,
                    "duration": 0.09757375000000934
                },
                {
                    "name": "G#4",
                    "midi": 68,
                    "time": 251.3499799999986,
                    "velocity": 0.6377952755905512,
                    "duration": 0.2927212499999996
                },
                {
                    "name": "D#4",
                    "midi": 63,
                    "time": 252.5208649999986,
                    "velocity": 0.5669291338582677,
                    "duration": 0.2927212499999996
                },
                {
                    "name": "C4",
                    "midi": 60,
                    "time": 252.8135862499986,
                    "velocity": 0.5196850393700787,
                    "duration": 0.09757375000000934
                },
                {
                    "name": "G#4",
                    "midi": 68,
                    "time": 252.9111599999986,
                    "velocity": 0.5669291338582677,
                    "duration": 0.2927212499999996
                },
                {
                    "name": "G#4",
                    "midi": 68,
                    "time": 253.2038812499986,
                    "velocity": 0.5118110236220472,
                    "duration": 0.09757375000000934
                },
                {
                    "name": "G#4",
                    "midi": 68,
                    "time": 253.3014549999986,
                    "velocity": 0.5669291338582677,
                    "duration": 0.04878687499999046
                },
                {
                    "name": "A#4",
                    "midi": 70,
                    "time": 253.3502418749986,
                    "velocity": 0.4881889763779528,
                    "duration": 0.04878687499999046
                },
                {
                    "name": "G#4",
                    "midi": 68,
                    "time": 253.3990287499986,
                    "velocity": 0.5669291338582677,
                    "duration": 0.04878687499999046
                },
                {
                    "name": "A#4",
                    "midi": 70,
                    "time": 253.44781562499858,
                    "velocity": 0.4566929133858268,
                    "duration": 0.04878687499999046
                },
                {
                    "name": "G#4",
                    "midi": 68,
                    "time": 253.49660249999857,
                    "velocity": 0.5433070866141733,
                    "duration": 0.03252458333332697
                },
                {
                    "name": "A#4",
                    "midi": 70,
                    "time": 253.5291270833319,
                    "velocity": 0.4645669291338583,
                    "duration": 0.03252458333332697
                },
                {
                    "name": "G#4",
                    "midi": 68,
                    "time": 253.56165166666523,
                    "velocity": 0.5433070866141733,
                    "duration": 0.03252458333332697
                },
                {
                    "name": "G4",
                    "midi": 67,
                    "time": 253.59417624999855,
                    "velocity": 0.5118110236220472,
                    "duration": 0.04878687499999046
                },
                {
                    "name": "G#4",
                    "midi": 68,
                    "time": 253.64296312499854,
                    "velocity": 0.4566929133858268,
                    "duration": 0.04878687499999046
                },
                {
                    "name": "A#4",
                    "midi": 70,
                    "time": 253.69174999999854,
                    "velocity": 0.5669291338582677,
                    "duration": 0.39029500000000894
                },
                {
                    "name": "D#4",
                    "midi": 63,
                    "time": 254.08204499999854,
                    "velocity": 0.5669291338582677,
                    "duration": 0.2927212499999996
                },
                {
                    "name": "D#5",
                    "midi": 75,
                    "time": 254.37476624999854,
                    "velocity": 0.5354330708661418,
                    "duration": 0.09757375000000934
                },
                {
                    "name": "C#5",
                    "midi": 73,
                    "time": 254.47233999999855,
                    "velocity": 0.6456692913385826,
                    "duration": 0.7805899999999895
                },
                {
                    "name": "C5",
                    "midi": 72,
                    "time": 255.25292999999854,
                    "velocity": 0.5669291338582677,
                    "duration": 0.1463606249999998
                },
                {
                    "name": "G#4",
                    "midi": 68,
                    "time": 255.64322499999855,
                    "velocity": 0.5984251968503937,
                    "duration": 0.2927212499999996
                },
                {
                    "name": "G#5",
                    "midi": 80,
                    "time": 255.93594624999855,
                    "velocity": 0.5433070866141733,
                    "duration": 0.09757374999998092
                },
                {
                    "name": "G5",
                    "midi": 79,
                    "time": 256.03351999999853,
                    "velocity": 0.6220472440944882,
                    "duration": 0.3902949999999805
                },
                {
                    "name": "F5",
                    "midi": 77,
                    "time": 256.4238149999985,
                    "velocity": 0.5354330708661418,
                    "duration": 0.09757374999998092
                },
                {
                    "name": "G#5",
                    "midi": 80,
                    "time": 256.7165362499985,
                    "velocity": 0.6141732283464567,
                    "duration": 0.09757374999998092
                },
                {
                    "name": "F5",
                    "midi": 77,
                    "time": 256.8141099999985,
                    "velocity": 0.5748031496062992,
                    "duration": 0.3902949999999805
                },
                {
                    "name": "D#5",
                    "midi": 75,
                    "time": 257.2044049999985,
                    "velocity": 0.5984251968503937,
                    "duration": 0.09757374999998092
                },
                {
                    "name": "G#5",
                    "midi": 80,
                    "time": 257.4971262499985,
                    "velocity": 0.5433070866141733,
                    "duration": 0.09757374999998092
                },
                {
                    "name": "D#5",
                    "midi": 75,
                    "time": 257.59469999999845,
                    "velocity": 0.6220472440944882,
                    "duration": 0.3902949999999805
                },
                {
                    "name": "C#5",
                    "midi": 73,
                    "time": 257.98499499999843,
                    "velocity": 0.5354330708661418,
                    "duration": 0.09757374999998092
                },
                {
                    "name": "G#5",
                    "midi": 80,
                    "time": 258.27771624999843,
                    "velocity": 0.6141732283464567,
                    "duration": 0.09757374999998092
                },
                {
                    "name": "C#5",
                    "midi": 73,
                    "time": 258.3752899999984,
                    "velocity": 0.5748031496062992,
                    "duration": 0.3902949999999805
                },
                {
                    "name": "C5",
                    "midi": 72,
                    "time": 258.7655849999984,
                    "velocity": 0.5984251968503937,
                    "duration": 0.09757374999998092
                },
                {
                    "name": "G#5",
                    "midi": 80,
                    "time": 259.0583062499984,
                    "velocity": 0.5433070866141733,
                    "duration": 0.09757374999998092
                },
                {
                    "name": "C5",
                    "midi": 72,
                    "time": 259.1558799999984,
                    "velocity": 0.5826771653543307,
                    "duration": 0.2927212499999996
                },
                {
                    "name": "A#4",
                    "midi": 70,
                    "time": 259.4486012499984,
                    "velocity": 0.5196850393700787,
                    "duration": 0.09757374999998092
                },
                {
                    "name": "C#5",
                    "midi": 73,
                    "time": 259.54617499999836,
                    "velocity": 0.5748031496062992,
                    "duration": 0.2927212499999996
                },
                {
                    "name": "F5",
                    "midi": 77,
                    "time": 259.83889624999836,
                    "velocity": 0.5196850393700787,
                    "duration": 0.09757374999998092
                },
                {
                    "name": "D#5",
                    "midi": 75,
                    "time": 259.93646999999834,
                    "velocity": 0.5984251968503937,
                    "duration": 0.3902949999999805
                },
                {
                    "name": "G4",
                    "midi": 67,
                    "time": 260.3267649999983,
                    "velocity": 0.5433070866141733,
                    "duration": 0.3659015625000279
                },
                {
                    "name": "G4",
                    "midi": 67,
                    "time": 260.69266656249835,
                    "velocity": 0.36220472440944884,
                    "duration": 0.02439343750000944
                },
                {
                    "name": "G#4",
                    "midi": 68,
                    "time": 260.71705999999836,
                    "velocity": 0.5748031496062992,
                    "duration": 0.09757374999998092
                },
                {
                    "name": "G4",
                    "midi": 67,
                    "time": 261.0829615624983,
                    "velocity": 0.41732283464566927,
                    "duration": 0.02439343750000944
                },
                {
                    "name": "G#4",
                    "midi": 68,
                    "time": 261.10735499999834,
                    "velocity": 0.5748031496062992,
                    "duration": 0.09757374999998092
                },
                {
                    "name": "G4",
                    "midi": 67,
                    "time": 261.4732565624983,
                    "velocity": 0.4330708661417323,
                    "duration": 0.02439343750000944
                },
                {
                    "name": "G#4",
                    "midi": 68,
                    "time": 261.4976499999983,
                    "velocity": 0.5748031496062992,
                    "duration": 0.09757374999998092
                },
                {
                    "name": "A4",
                    "midi": 69,
                    "time": 261.8635515624983,
                    "velocity": 0.4330708661417323,
                    "duration": 0.02439343750000944
                },
                {
                    "name": "A#4",
                    "midi": 70,
                    "time": 261.8879449999983,
                    "velocity": 0.6220472440944882,
                    "duration": 0.09757374999998092
                },
                {
                    "name": "B4",
                    "midi": 71,
                    "time": 262.2782399999983,
                    "velocity": 0.5984251968503937,
                    "duration": 0.3902949999999805
                },
                {
                    "name": "C5",
                    "midi": 72,
                    "time": 262.66853499999826,
                    "velocity": 0.5433070866141733,
                    "duration": 0.3902949999999805
                },
                {
                    "name": "G#4",
                    "midi": 68,
                    "time": 263.05882999999824,
                    "velocity": 0.48031496062992124,
                    "duration": 0.7805900000000179
                },
                {
                    "name": "B4",
                    "midi": 71,
                    "time": 263.81502656249825,
                    "velocity": 0.36220472440944884,
                    "duration": 0.02439343750000944
                },
                {
                    "name": "C5",
                    "midi": 72,
                    "time": 263.83941999999826,
                    "velocity": 0.5748031496062992,
                    "duration": 0.09757374999998092
                },
                {
                    "name": "B4",
                    "midi": 71,
                    "time": 264.2053215624982,
                    "velocity": 0.41732283464566927,
                    "duration": 0.02439343750000944
                },
                {
                    "name": "C5",
                    "midi": 72,
                    "time": 264.22971499999824,
                    "velocity": 0.5748031496062992,
                    "duration": 0.09757374999998092
                },
                {
                    "name": "B4",
                    "midi": 71,
                    "time": 264.5956165624982,
                    "velocity": 0.4330708661417323,
                    "duration": 0.02439343750000944
                },
                {
                    "name": "C5",
                    "midi": 72,
                    "time": 264.6200099999982,
                    "velocity": 0.5748031496062992,
                    "duration": 0.09757374999998092
                },
                {
                    "name": "D#5",
                    "midi": 75,
                    "time": 265.0103049999982,
                    "velocity": 0.6220472440944882,
                    "duration": 0.09757374999998092
                },
                {
                    "name": "C#5",
                    "midi": 73,
                    "time": 265.1078787499982,
                    "velocity": 0.5590551181102362,
                    "duration": 0.09757374999998092
                },
                {
                    "name": "C5",
                    "midi": 72,
                    "time": 265.20545249999816,
                    "velocity": 0.5984251968503937,
                    "duration": 0.09757374999998092
                },
                {
                    "name": "C#5",
                    "midi": 73,
                    "time": 265.30302624999814,
                    "velocity": 0.5433070866141733,
                    "duration": 0.09757374999998092
                },
                {
                    "name": "D#5",
                    "midi": 75,
                    "time": 265.4005999999981,
                    "velocity": 0.6220472440944882,
                    "duration": 0.7805900000000179
                },
                {
                    "name": "C5",
                    "midi": 72,
                    "time": 266.18118999999814,
                    "velocity": 0.5354330708661418,
                    "duration": 0.7805900000000179
                },
                {
                    "name": "G#5",
                    "midi": 80,
                    "time": 266.96177999999816,
                    "velocity": 0.7244094488188977,
                    "duration": 0.382163854166663
                },
                {
                    "name": "G#5",
                    "midi": 80,
                    "time": 267.35207499999814,
                    "velocity": 0.6692913385826772,
                    "duration": 0.1300983333333079
                },
                {
                    "name": "C6",
                    "midi": 84,
                    "time": 267.48217333333145,
                    "velocity": 0.5669291338582677,
                    "duration": 0.1300983333333079
                },
                {
                    "name": "D#6",
                    "midi": 87,
                    "time": 267.61227166666475,
                    "velocity": 0.5669291338582677,
                    "duration": 0.1300983333333079
                },
                {
                    "name": "F#5",
                    "midi": 78,
                    "time": 267.74236999999806,
                    "velocity": 0.6456692913385826,
                    "duration": 0.7805900000000179
                },
                {
                    "name": "F5",
                    "midi": 77,
                    "time": 268.5229599999981,
                    "velocity": 0.7244094488188977,
                    "duration": 0.382163854166663
                },
                {
                    "name": "F5",
                    "midi": 77,
                    "time": 268.91325499999806,
                    "velocity": 0.6692913385826772,
                    "duration": 0.1300983333333079
                },
                {
                    "name": "A#5",
                    "midi": 82,
                    "time": 269.04335333333137,
                    "velocity": 0.5669291338582677,
                    "duration": 0.1300983333333079
                },
                {
                    "name": "C#6",
                    "midi": 85,
                    "time": 269.1734516666647,
                    "velocity": 0.5669291338582677,
                    "duration": 0.1300983333333079
                },
                {
                    "name": "D#5",
                    "midi": 75,
                    "time": 269.303549999998,
                    "velocity": 0.6456692913385826,
                    "duration": 0.5854424999999992
                },
                {
                    "name": "F5",
                    "midi": 77,
                    "time": 269.888992499998,
                    "velocity": 0.5905511811023622,
                    "duration": 0.09757374999998092
                },
                {
                    "name": "G5",
                    "midi": 79,
                    "time": 269.98656624999796,
                    "velocity": 0.6456692913385826,
                    "duration": 0.09757374999998092
                },
                {
                    "name": "G#5",
                    "midi": 80,
                    "time": 270.08413999999794,
                    "velocity": 0.7401574803149606,
                    "duration": 0.382163854166663
                },
                {
                    "name": "G#5",
                    "midi": 80,
                    "time": 270.4744349999979,
                    "velocity": 0.6377952755905512,
                    "duration": 0.1300983333333079
                },
                {
                    "name": "A#5",
                    "midi": 82,
                    "time": 270.60453333333123,
                    "velocity": 0.5669291338582677,
                    "duration": 0.1300983333333079
                },
                {
                    "name": "C6",
                    "midi": 84,
                    "time": 270.73463166666454,
                    "velocity": 0.5196850393700787,
                    "duration": 0.1300983333333079
                },
                {
                    "name": "C#5",
                    "midi": 73,
                    "time": 270.86472999999785,
                    "velocity": 0.6614173228346457,
                    "duration": 0.7805900000000179
                },
                {
                    "name": "C5",
                    "midi": 72,
                    "time": 271.64531999999787,
                    "velocity": 0.6377952755905512,
                    "duration": 0.1300983333333079
                },
                {
                    "name": "D#5",
                    "midi": 75,
                    "time": 271.7754183333312,
                    "velocity": 0.5590551181102362,
                    "duration": 0.1300983333333079
                },
                {
                    "name": "C#5",
                    "midi": 73,
                    "time": 271.9055166666645,
                    "velocity": 0.5590551181102362,
                    "duration": 0.1300983333333079
                },
                {
                    "name": "C5",
                    "midi": 72,
                    "time": 272.0356149999978,
                    "velocity": 0.5196850393700787,
                    "duration": 0.1300983333333079
                },
                {
                    "name": "C6",
                    "midi": 84,
                    "time": 272.1657133333311,
                    "velocity": 0.6141732283464567,
                    "duration": 0.1300983333333079
                },
                {
                    "name": "A#5",
                    "midi": 82,
                    "time": 272.2958116666644,
                    "velocity": 0.5590551181102362,
                    "duration": 0.1300983333333079
                },
                {
                    "name": "G#5",
                    "midi": 80,
                    "time": 272.4259099999977,
                    "velocity": 0.5590551181102362,
                    "duration": 0.1300983333333079
                },
                {
                    "name": "G5",
                    "midi": 79,
                    "time": 272.556008333331,
                    "velocity": 0.6141732283464567,
                    "duration": 0.1300983333333079
                },
                {
                    "name": "F5",
                    "midi": 77,
                    "time": 272.68610666666433,
                    "velocity": 0.5354330708661418,
                    "duration": 0.1300983333333079
                },
                {
                    "name": "D#5",
                    "midi": 75,
                    "time": 272.81620499999764,
                    "velocity": 0.6220472440944882,
                    "duration": 0.1300983333333079
                },
                {
                    "name": "C#5",
                    "midi": 73,
                    "time": 272.94630333333095,
                    "velocity": 0.5590551181102362,
                    "duration": 0.1300983333333079
                },
                {
                    "name": "C5",
                    "midi": 72,
                    "time": 273.07640166666425,
                    "velocity": 0.5590551181102362,
                    "duration": 0.1300983333333079
                },
                {
                    "name": "D#5",
                    "midi": 75,
                    "time": 273.20649999999756,
                    "velocity": 0.6377952755905512,
                    "duration": 0.2927212499999996
                },
                {
                    "name": "C5",
                    "midi": 72,
                    "time": 273.49922124999756,
                    "velocity": 0.4566929133858268,
                    "duration": 0.09757374999998092
                },
                {
                    "name": "A#4",
                    "midi": 70,
                    "time": 273.59679499999754,
                    "velocity": 0.5511811023622047,
                    "duration": 0.5854424999999992
                },
                {
                    "name": "C#5",
                    "midi": 73,
                    "time": 274.18223749999754,
                    "velocity": 0.4330708661417323,
                    "duration": 0.19514750000001868
                },
                {
                    "name": "C5",
                    "midi": 72,
                    "time": 274.37738499999756,
                    "velocity": 0.47244094488188976,
                    "duration": 0.19514750000001868
                },
                {
                    "name": "D#5",
                    "midi": 75,
                    "time": 274.5725324999976,
                    "velocity": 0.4251968503937008,
                    "duration": 0.19514750000001868
                },
                {
                    "name": "D#5",
                    "midi": 75,
                    "time": 274.7676799999976,
                    "velocity": 0.49606299212598426,
                    "duration": 0.19514750000001868
                },
                {
                    "name": "C#5",
                    "midi": 73,
                    "time": 274.9628274999976,
                    "velocity": 0.41732283464566927,
                    "duration": 0.17888520833332677
                },
                {
                    "name": "C#5",
                    "midi": 73,
                    "time": 275.15797499999763,
                    "velocity": 0.4645669291338583,
                    "duration": 0.7805900000000179
                },
                {
                    "name": "C5",
                    "midi": 72,
                    "time": 275.93856499999765,
                    "velocity": 0.44881889763779526,
                    "duration": 0.1300983333333079
                },
                {
                    "name": "A#4",
                    "midi": 70,
                    "time": 276.06866333333096,
                    "velocity": 0.4094488188976378,
                    "duration": 0.1300983333333079
                },
                {
                    "name": "G#4",
                    "midi": 68,
                    "time": 276.19876166666427,
                    "velocity": 0.4094488188976378,
                    "duration": 0.11383604166667283
                },
                {
                    "name": "G#4",
                    "midi": 68,
                    "time": 276.32885999999763,
                    "velocity": 0.48031496062992124,
                    "duration": 0.19514750000001868
                },
                {
                    "name": "G4",
                    "midi": 67,
                    "time": 276.52400749999765,
                    "velocity": 0.3937007874015748,
                    "duration": 0.17888520833332677
                },
                {
                    "name": "G4",
                    "midi": 67,
                    "time": 276.71915499999767,
                    "velocity": 0.47244094488188976,
                    "duration": 0.7805900000000179
                },
                {
                    "name": "G#4",
                    "midi": 68,
                    "time": 277.4997449999977,
                    "velocity": 0.44881889763779526,
                    "duration": 0.3902949999999805
                },
                {
                    "name": "A#4",
                    "midi": 70,
                    "time": 277.89003999999767,
                    "velocity": 0.49606299212598426,
                    "duration": 0.1300983333333079
                },
                {
                    "name": "C5",
                    "midi": 72,
                    "time": 278.020138333331,
                    "velocity": 0.48031496062992124,
                    "duration": 0.1300983333333079
                },
                {
                    "name": "C#5",
                    "midi": 73,
                    "time": 278.1502366666643,
                    "velocity": 0.49606299212598426,
                    "duration": 0.11383604166667283
                },
                {
                    "name": "C#5",
                    "midi": 73,
                    "time": 278.28033499999765,
                    "velocity": 0.4645669291338583,
                    "duration": 0.7805900000000179
                },
                {
                    "name": "C5",
                    "midi": 72,
                    "time": 279.06092499999767,
                    "velocity": 0.44881889763779526,
                    "duration": 0.1300983333333079
                },
                {
                    "name": "A#4",
                    "midi": 70,
                    "time": 279.191023333331,
                    "velocity": 0.4094488188976378,
                    "duration": 0.1300983333333079
                },
                {
                    "name": "G#4",
                    "midi": 68,
                    "time": 279.3211216666643,
                    "velocity": 0.4094488188976378,
                    "duration": 0.11383604166667283
                },
                {
                    "name": "G#4",
                    "midi": 68,
                    "time": 279.45121999999765,
                    "velocity": 0.48031496062992124,
                    "duration": 0.19514750000001868
                },
                {
                    "name": "G4",
                    "midi": 67,
                    "time": 279.64636749999767,
                    "velocity": 0.3937007874015748,
                    "duration": 0.17888520833332677
                },
                {
                    "name": "G4",
                    "midi": 67,
                    "time": 279.8415149999977,
                    "velocity": 0.47244094488188976,
                    "duration": 0.7805900000000179
                },
                {
                    "name": "G#4",
                    "midi": 68,
                    "time": 280.6221049999977,
                    "velocity": 0.44881889763779526,
                    "duration": 0.3902949999999805
                },
                {
                    "name": "A#4",
                    "midi": 70,
                    "time": 281.0123999999977,
                    "velocity": 0.49606299212598426,
                    "duration": 0.1300983333333079
                },
                {
                    "name": "C5",
                    "midi": 72,
                    "time": 281.142498333331,
                    "velocity": 0.49606299212598426,
                    "duration": 0.1300983333333079
                },
                {
                    "name": "C#5",
                    "midi": 73,
                    "time": 281.2725966666643,
                    "velocity": 0.49606299212598426,
                    "duration": 0.11383604166667283
                },
                {
                    "name": "C#5",
                    "midi": 73,
                    "time": 281.40269499999766,
                    "velocity": 0.4645669291338583,
                    "duration": 0.7805900000000179
                },
                {
                    "name": "C5",
                    "midi": 72,
                    "time": 282.1832849999977,
                    "velocity": 0.44881889763779526,
                    "duration": 0.3902949999999805
                },
                {
                    "name": "A#4",
                    "midi": 70,
                    "time": 282.57357999999766,
                    "velocity": 0.41732283464566927,
                    "duration": 0.1300983333333079
                },
                {
                    "name": "F5",
                    "midi": 77,
                    "time": 282.70367833333097,
                    "velocity": 0.5275590551181102,
                    "duration": 0.1300983333333079
                },
                {
                    "name": "D#5",
                    "midi": 75,
                    "time": 282.8337766666643,
                    "velocity": 0.47244094488188976,
                    "duration": 0.1300983333333079
                },
                {
                    "name": "C#5",
                    "midi": 73,
                    "time": 282.9638749999976,
                    "velocity": 0.5275590551181102,
                    "duration": 0.1300983333333079
                },
                {
                    "name": "C5",
                    "midi": 72,
                    "time": 283.0939733333309,
                    "velocity": 0.48031496062992124,
                    "duration": 0.1300983333333079
                },
                {
                    "name": "A#4",
                    "midi": 70,
                    "time": 283.2240716666642,
                    "velocity": 0.44881889763779526,
                    "duration": 0.1300983333333079
                },
                {
                    "name": "G#4",
                    "midi": 68,
                    "time": 283.3541699999975,
                    "velocity": 0.5433070866141733,
                    "duration": 0.3902949999999805
                },
                {
                    "name": "G4",
                    "midi": 67,
                    "time": 283.7444649999975,
                    "velocity": 0.44881889763779526,
                    "duration": 0.3902949999999805
                },
                {
                    "name": "C4",
                    "midi": 60,
                    "time": 284.13475999999747,
                    "velocity": 0.6535433070866141,
                    "duration": 0.1300983333333079
                },
                {
                    "name": "D#4",
                    "midi": 63,
                    "time": 284.2648583333308,
                    "velocity": 0.5275590551181102,
                    "duration": 0.1300983333333079
                },
                {
                    "name": "G#4",
                    "midi": 68,
                    "time": 284.3949566666641,
                    "velocity": 0.5275590551181102,
                    "duration": 0.06504916666665395
                },
                {
                    "name": "G#4",
                    "midi": 68,
                    "time": 284.5250549999974,
                    "velocity": 0.5669291338582677,
                    "duration": 0.06504916666665395
                },
                {
                    "name": "G#4",
                    "midi": 68,
                    "time": 284.6551533333307,
                    "velocity": 0.49606299212598426,
                    "duration": 0.06504916666665395
                },
                {
                    "name": "G#4",
                    "midi": 68,
                    "time": 284.785251666664,
                    "velocity": 0.49606299212598426,
                    "duration": 0.06504916666665395
                },
                {
                    "name": "G4",
                    "midi": 67,
                    "time": 284.9153499999973,
                    "velocity": 0.6456692913385826,
                    "duration": 0.1300983333333079
                },
                {
                    "name": "A#4",
                    "midi": 70,
                    "time": 285.0454483333306,
                    "velocity": 0.5275590551181102,
                    "duration": 0.1300983333333079
                },
                {
                    "name": "C#5",
                    "midi": 73,
                    "time": 285.17554666666393,
                    "velocity": 0.5275590551181102,
                    "duration": 0.06504916666665395
                },
                {
                    "name": "C#5",
                    "midi": 73,
                    "time": 285.30564499999724,
                    "velocity": 0.5669291338582677,
                    "duration": 0.06504916666665395
                },
                {
                    "name": "C#5",
                    "midi": 73,
                    "time": 285.43574333333055,
                    "velocity": 0.5118110236220472,
                    "duration": 0.06504916666665395
                },
                {
                    "name": "C#5",
                    "midi": 73,
                    "time": 285.56584166666386,
                    "velocity": 0.5118110236220472,
                    "duration": 0.06504916666665395
                },
                {
                    "name": "C5",
                    "midi": 72,
                    "time": 285.69593999999717,
                    "velocity": 0.6771653543307087,
                    "duration": 0.1300983333333079
                },
                {
                    "name": "D#5",
                    "midi": 75,
                    "time": 285.8260383333305,
                    "velocity": 0.5511811023622047,
                    "duration": 0.1300983333333079
                },
                {
                    "name": "G#5",
                    "midi": 80,
                    "time": 285.9561366666638,
                    "velocity": 0.5511811023622047,
                    "duration": 0.06504916666665395
                },
                {
                    "name": "G#5",
                    "midi": 80,
                    "time": 286.0862349999971,
                    "velocity": 0.5511811023622047,
                    "duration": 0.06504916666665395
                },
                {
                    "name": "G#5",
                    "midi": 80,
                    "time": 286.2163333333304,
                    "velocity": 0.5354330708661418,
                    "duration": 0.06504916666665395
                },
                {
                    "name": "G#5",
                    "midi": 80,
                    "time": 286.3464316666637,
                    "velocity": 0.5433070866141733,
                    "duration": 0.06504916666665395
                },
                {
                    "name": "G5",
                    "midi": 79,
                    "time": 286.476529999997,
                    "velocity": 0.5826771653543307,
                    "duration": 0.1300983333333079
                },
                {
                    "name": "A#5",
                    "midi": 82,
                    "time": 286.6066283333303,
                    "velocity": 0.5511811023622047,
                    "duration": 0.1300983333333079
                },
                {
                    "name": "C#6",
                    "midi": 85,
                    "time": 286.7367266666636,
                    "velocity": 0.5511811023622047,
                    "duration": 0.06504916666665395
                },
                {
                    "name": "C#6",
                    "midi": 85,
                    "time": 286.86682499999694,
                    "velocity": 0.5826771653543307,
                    "duration": 0.06504916666665395
                },
                {
                    "name": "C#6",
                    "midi": 85,
                    "time": 286.99692333333024,
                    "velocity": 0.5511811023622047,
                    "duration": 0.06504916666665395
                },
                {
                    "name": "C#6",
                    "midi": 85,
                    "time": 287.12702166666355,
                    "velocity": 0.5196850393700787,
                    "duration": 0.06504916666665395
                },
                {
                    "name": "C6",
                    "midi": 84,
                    "time": 287.25711999999686,
                    "velocity": 0.6771653543307087,
                    "duration": 0.1300983333333079
                },
                {
                    "name": "D#6",
                    "midi": 87,
                    "time": 287.38721833333017,
                    "velocity": 0.6614173228346457,
                    "duration": 0.1300983333333079
                },
                {
                    "name": "C#6",
                    "midi": 85,
                    "time": 287.5173166666635,
                    "velocity": 0.5905511811023622,
                    "duration": 0.1300983333333079
                },
                {
                    "name": "C6",
                    "midi": 84,
                    "time": 287.6474149999968,
                    "velocity": 0.6771653543307087,
                    "duration": 0.1300983333333079
                },
                {
                    "name": "A#5",
                    "midi": 82,
                    "time": 287.7775133333301,
                    "velocity": 0.6141732283464567,
                    "duration": 0.1300983333333079
                },
                {
                    "name": "G#5",
                    "midi": 80,
                    "time": 287.9076116666634,
                    "velocity": 0.6141732283464567,
                    "duration": 0.1300983333333079
                },
                {
                    "name": "G5",
                    "midi": 79,
                    "time": 288.0377099999967,
                    "velocity": 0.6771653543307087,
                    "duration": 0.1300983333333079
                },
                {
                    "name": "F5",
                    "midi": 77,
                    "time": 288.16780833333,
                    "velocity": 0.6062992125984252,
                    "duration": 0.1300983333333079
                },
                {
                    "name": "D#5",
                    "midi": 75,
                    "time": 288.2979066666633,
                    "velocity": 0.5905511811023622,
                    "duration": 0.1300983333333079
                },
                {
                    "name": "C#5",
                    "midi": 73,
                    "time": 288.42800499999663,
                    "velocity": 0.6771653543307087,
                    "duration": 0.1300983333333079
                },
                {
                    "name": "C5",
                    "midi": 72,
                    "time": 288.55810333332994,
                    "velocity": 0.6062992125984252,
                    "duration": 0.1300983333333079
                },
                {
                    "name": "A#4",
                    "midi": 70,
                    "time": 288.68820166666325,
                    "velocity": 0.6062992125984252,
                    "duration": 0.1300983333333079
                },
                {
                    "name": "G#4",
                    "midi": 68,
                    "time": 288.81829999999655,
                    "velocity": 0.6771653543307087,
                    "duration": 0.1300983333333079
                },
                {
                    "name": "C6",
                    "midi": 84,
                    "time": 288.94839833332986,
                    "velocity": 0.6850393700787402,
                    "duration": 0.1300983333333079
                },
                {
                    "name": "A#5",
                    "midi": 82,
                    "time": 289.07849666666317,
                    "velocity": 0.5905511811023622,
                    "duration": 0.1300983333333079
                },
                {
                    "name": "G#5",
                    "midi": 80,
                    "time": 289.2085949999965,
                    "velocity": 0.6771653543307087,
                    "duration": 0.1300983333333079
                },
                {
                    "name": "G5",
                    "midi": 79,
                    "time": 289.3386933333298,
                    "velocity": 0.6456692913385826,
                    "duration": 0.1300983333333079
                },
                {
                    "name": "F5",
                    "midi": 77,
                    "time": 289.4687916666631,
                    "velocity": 0.6456692913385826,
                    "duration": 0.1300983333333079
                },
                {
                    "name": "D#5",
                    "midi": 75,
                    "time": 289.5988899999964,
                    "velocity": 0.6771653543307087,
                    "duration": 0.1300983333333079
                },
                {
                    "name": "C#5",
                    "midi": 73,
                    "time": 289.7289883333297,
                    "velocity": 0.6062992125984252,
                    "duration": 0.1300983333333079
                },
                {
                    "name": "C5",
                    "midi": 72,
                    "time": 289.859086666663,
                    "velocity": 0.5905511811023622,
                    "duration": 0.1300983333333079
                },
                {
                    "name": "A#4",
                    "midi": 70,
                    "time": 289.9891849999963,
                    "velocity": 0.6771653543307087,
                    "duration": 0.1300983333333079
                },
                {
                    "name": "G#4",
                    "midi": 68,
                    "time": 290.11928333332963,
                    "velocity": 0.6062992125984252,
                    "duration": 0.1300983333333079
                },
                {
                    "name": "G4",
                    "midi": 67,
                    "time": 290.24938166666294,
                    "velocity": 0.6062992125984252,
                    "duration": 0.1300983333333079
                },
                {
                    "name": "F4",
                    "midi": 65,
                    "time": 290.37947999999625,
                    "velocity": 0.6771653543307087,
                    "duration": 0.2927212499999996
                },
                {
                    "name": "F5",
                    "midi": 77,
                    "time": 290.67220124999625,
                    "velocity": 0.6141732283464567,
                    "duration": 0.09757374999998092
                },
                {
                    "name": "C#5",
                    "midi": 73,
                    "time": 290.76977499999623,
                    "velocity": 0.6771653543307087,
                    "duration": 0.2927212499999996
                },
                {
                    "name": "A#4",
                    "midi": 70,
                    "time": 291.06249624999623,
                    "velocity": 0.5826771653543307,
                    "duration": 0.09757374999998092
                },
                {
                    "name": "G#4",
                    "midi": 68,
                    "time": 291.1600699999962,
                    "velocity": 0.6692913385826772,
                    "duration": 0.3902949999999805
                },
                {
                    "name": "G4",
                    "midi": 67,
                    "time": 291.5503649999962,
                    "velocity": 0.4881889763779528,
                    "duration": 0.04878687500001888
                },
                {
                    "name": "G#4",
                    "midi": 68,
                    "time": 291.5991518749962,
                    "velocity": 0.4409448818897638,
                    "duration": 0.04878687500001888
                },
                {
                    "name": "G4",
                    "midi": 67,
                    "time": 291.64793874999623,
                    "velocity": 0.4881889763779528,
                    "duration": 0.04878687500001888
                },
                {
                    "name": "G#4",
                    "midi": 68,
                    "time": 291.69672562499625,
                    "velocity": 0.44881889763779526,
                    "duration": 0.04878687500001888
                },
                {
                    "name": "G4",
                    "midi": 67,
                    "time": 291.74551249999627,
                    "velocity": 0.4881889763779528,
                    "duration": 0.04878687500001888
                },
                {
                    "name": "G#4",
                    "midi": 68,
                    "time": 291.7942993749963,
                    "velocity": 0.4330708661417323,
                    "duration": 0.04878687500001888
                },
                {
                    "name": "G4",
                    "midi": 67,
                    "time": 291.8430862499963,
                    "velocity": 0.4881889763779528,
                    "duration": 0.04878687500001888
                },
                {
                    "name": "G#4",
                    "midi": 68,
                    "time": 291.8918731249963,
                    "velocity": 0.4566929133858268,
                    "duration": 0.04878687500001888
                },
                {
                    "name": "C6",
                    "midi": 84,
                    "time": 291.94065999999634,
                    "velocity": 0.6771653543307087,
                    "duration": 0.1300983333333079
                },
                {
                    "name": "D#6",
                    "midi": 87,
                    "time": 292.07075833332965,
                    "velocity": 0.6614173228346457,
                    "duration": 0.1300983333333079
                },
                {
                    "name": "C#6",
                    "midi": 85,
                    "time": 292.20085666666296,
                    "velocity": 0.5905511811023622,
                    "duration": 0.1300983333333079
                },
                {
                    "name": "C6",
                    "midi": 84,
                    "time": 292.33095499999627,
                    "velocity": 0.6771653543307087,
                    "duration": 0.1300983333333079
                },
                {
                    "name": "A#5",
                    "midi": 82,
                    "time": 292.4610533333296,
                    "velocity": 0.6141732283464567,
                    "duration": 0.1300983333333079
                },
                {
                    "name": "G#5",
                    "midi": 80,
                    "time": 292.5911516666629,
                    "velocity": 0.6141732283464567,
                    "duration": 0.1300983333333079
                },
                {
                    "name": "G5",
                    "midi": 79,
                    "time": 292.7212499999962,
                    "velocity": 0.6771653543307087,
                    "duration": 0.1300983333333079
                },
                {
                    "name": "F5",
                    "midi": 77,
                    "time": 292.8513483333295,
                    "velocity": 0.6062992125984252,
                    "duration": 0.1300983333333079
                },
                {
                    "name": "D#5",
                    "midi": 75,
                    "time": 292.9814466666628,
                    "velocity": 0.5905511811023622,
                    "duration": 0.1300983333333079
                },
                {
                    "name": "C#5",
                    "midi": 73,
                    "time": 293.1115449999961,
                    "velocity": 0.6771653543307087,
                    "duration": 0.1300983333333079
                },
                {
                    "name": "C5",
                    "midi": 72,
                    "time": 293.2416433333294,
                    "velocity": 0.6062992125984252,
                    "duration": 0.1300983333333079
                },
                {
                    "name": "A#4",
                    "midi": 70,
                    "time": 293.37174166666273,
                    "velocity": 0.6062992125984252,
                    "duration": 0.1300983333333079
                },
                {
                    "name": "G#4",
                    "midi": 68,
                    "time": 293.50183999999604,
                    "velocity": 0.6771653543307087,
                    "duration": 0.1300983333333079
                },
                {
                    "name": "C6",
                    "midi": 84,
                    "time": 293.63193833332934,
                    "velocity": 0.6850393700787402,
                    "duration": 0.1300983333333079
                },
                {
                    "name": "A#5",
                    "midi": 82,
                    "time": 293.76203666666265,
                    "velocity": 0.5905511811023622,
                    "duration": 0.1300983333333079
                },
                {
                    "name": "G#5",
                    "midi": 80,
                    "time": 293.89213499999596,
                    "velocity": 0.6771653543307087,
                    "duration": 0.1300983333333079
                },
                {
                    "name": "G5",
                    "midi": 79,
                    "time": 294.02223333332927,
                    "velocity": 0.6456692913385826,
                    "duration": 0.1300983333333079
                },
                {
                    "name": "F5",
                    "midi": 77,
                    "time": 294.1523316666626,
                    "velocity": 0.6456692913385826,
                    "duration": 0.1300983333333079
                },
                {
                    "name": "D#5",
                    "midi": 75,
                    "time": 294.2824299999959,
                    "velocity": 0.6771653543307087,
                    "duration": 0.1300983333333079
                },
                {
                    "name": "C#5",
                    "midi": 73,
                    "time": 294.4125283333292,
                    "velocity": 0.6062992125984252,
                    "duration": 0.1300983333333079
                },
                {
                    "name": "C5",
                    "midi": 72,
                    "time": 294.5426266666625,
                    "velocity": 0.5905511811023622,
                    "duration": 0.1300983333333079
                },
                {
                    "name": "A#4",
                    "midi": 70,
                    "time": 294.6727249999958,
                    "velocity": 0.6771653543307087,
                    "duration": 0.1300983333333079
                },
                {
                    "name": "G#4",
                    "midi": 68,
                    "time": 294.8028233333291,
                    "velocity": 0.6062992125984252,
                    "duration": 0.1300983333333079
                },
                {
                    "name": "G4",
                    "midi": 67,
                    "time": 294.9329216666624,
                    "velocity": 0.6062992125984252,
                    "duration": 0.1300983333333079
                },
                {
                    "name": "F4",
                    "midi": 65,
                    "time": 295.06301999999573,
                    "velocity": 0.6771653543307087,
                    "duration": 0.2927212499999996
                },
                {
                    "name": "F5",
                    "midi": 77,
                    "time": 295.35574124999573,
                    "velocity": 0.6141732283464567,
                    "duration": 0.09757374999998092
                },
                {
                    "name": "C#5",
                    "midi": 73,
                    "time": 295.4533149999957,
                    "velocity": 0.6771653543307087,
                    "duration": 0.2927212499999996
                },
                {
                    "name": "A#4",
                    "midi": 70,
                    "time": 295.7460362499957,
                    "velocity": 0.5826771653543307,
                    "duration": 0.09757374999998092
                },
                {
                    "name": "G#4",
                    "midi": 68,
                    "time": 295.8436099999957,
                    "velocity": 0.6692913385826772,
                    "duration": 0.3902949999999805
                },
                {
                    "name": "G4",
                    "midi": 67,
                    "time": 296.2339049999957,
                    "velocity": 0.4881889763779528,
                    "duration": 0.04878687500001888
                },
                {
                    "name": "G#4",
                    "midi": 68,
                    "time": 296.2826918749957,
                    "velocity": 0.4409448818897638,
                    "duration": 0.04878687500001888
                },
                {
                    "name": "G4",
                    "midi": 67,
                    "time": 296.3314787499957,
                    "velocity": 0.4881889763779528,
                    "duration": 0.04878687500001888
                },
                {
                    "name": "G#4",
                    "midi": 68,
                    "time": 296.38026562499573,
                    "velocity": 0.44881889763779526,
                    "duration": 0.04878687500001888
                },
                {
                    "name": "G4",
                    "midi": 67,
                    "time": 296.42905249999575,
                    "velocity": 0.4881889763779528,
                    "duration": 0.04878687500001888
                },
                {
                    "name": "G#4",
                    "midi": 68,
                    "time": 296.47783937499577,
                    "velocity": 0.4330708661417323,
                    "duration": 0.04878687500001888
                },
                {
                    "name": "G4",
                    "midi": 67,
                    "time": 296.5266262499958,
                    "velocity": 0.4881889763779528,
                    "duration": 0.04878687500001888
                },
                {
                    "name": "G#4",
                    "midi": 68,
                    "time": 296.5754131249958,
                    "velocity": 0.4566929133858268,
                    "duration": 0.040655729166644505
                },
                {
                    "name": "G#4",
                    "midi": 68,
                    "time": 296.62419999999577,
                    "velocity": 0.5748031496062992,
                    "duration": 0.1300983333333079
                },
                {
                    "name": "C5",
                    "midi": 72,
                    "time": 296.7542983333291,
                    "velocity": 0.5511811023622047,
                    "duration": 0.1300983333333079
                },
                {
                    "name": "A#4",
                    "midi": 70,
                    "time": 296.8843966666624,
                    "velocity": 0.49606299212598426,
                    "duration": 0.1300983333333079
                },
                {
                    "name": "G#4",
                    "midi": 68,
                    "time": 297.0144949999957,
                    "velocity": 0.5669291338582677,
                    "duration": 0.1300983333333079
                },
                {
                    "name": "G4",
                    "midi": 67,
                    "time": 297.144593333329,
                    "velocity": 0.5039370078740157,
                    "duration": 0.1300983333333079
                },
                {
                    "name": "F4",
                    "midi": 65,
                    "time": 297.2746916666623,
                    "velocity": 0.5039370078740157,
                    "duration": 0.1300983333333079
                },
                {
                    "name": "D#4",
                    "midi": 63,
                    "time": 297.4047899999956,
                    "velocity": 0.5669291338582677,
                    "duration": 0.1300983333333079
                },
                {
                    "name": "C#4",
                    "midi": 61,
                    "time": 297.5348883333289,
                    "velocity": 0.5039370078740157,
                    "duration": 0.1300983333333079
                },
                {
                    "name": "C4",
                    "midi": 60,
                    "time": 297.66498666666223,
                    "velocity": 0.5039370078740157,
                    "duration": 0.1300983333333079
                },
                {
                    "name": "C#4",
                    "midi": 61,
                    "time": 297.79508499999554,
                    "velocity": 0.5669291338582677,
                    "duration": 0.09757374999998092
                },
                {
                    "name": "D#4",
                    "midi": 63,
                    "time": 297.8926587499955,
                    "velocity": 0.5433070866141733,
                    "duration": 0.09757374999998092
                },
                {
                    "name": "F4",
                    "midi": 65,
                    "time": 297.9902324999955,
                    "velocity": 0.5118110236220472,
                    "duration": 0.09757374999998092
                },
                {
                    "name": "G4",
                    "midi": 67,
                    "time": 298.0878062499955,
                    "velocity": 0.4881889763779528,
                    "duration": 0.09757374999998092
                },
                {
                    "name": "G#4",
                    "midi": 68,
                    "time": 298.18537999999546,
                    "velocity": 0.5748031496062992,
                    "duration": 0.1300983333333079
                },
                {
                    "name": "C5",
                    "midi": 72,
                    "time": 298.31547833332877,
                    "velocity": 0.5511811023622047,
                    "duration": 0.1300983333333079
                },
                {
                    "name": "A#4",
                    "midi": 70,
                    "time": 298.4455766666621,
                    "velocity": 0.49606299212598426,
                    "duration": 0.1300983333333079
                },
                {
                    "name": "G#4",
                    "midi": 68,
                    "time": 298.5756749999954,
                    "velocity": 0.5669291338582677,
                    "duration": 0.1300983333333079
                },
                {
                    "name": "G4",
                    "midi": 67,
                    "time": 298.7057733333287,
                    "velocity": 0.5039370078740157,
                    "duration": 0.1300983333333079
                },
                {
                    "name": "F4",
                    "midi": 65,
                    "time": 298.835871666662,
                    "velocity": 0.5039370078740157,
                    "duration": 0.1300983333333079
                },
                {
                    "name": "D#4",
                    "midi": 63,
                    "time": 298.9659699999953,
                    "velocity": 0.5669291338582677,
                    "duration": 0.1300983333333079
                },
                {
                    "name": "C#4",
                    "midi": 61,
                    "time": 299.0960683333286,
                    "velocity": 0.5039370078740157,
                    "duration": 0.1300983333333079
                },
                {
                    "name": "C4",
                    "midi": 60,
                    "time": 299.2261666666619,
                    "velocity": 0.5039370078740157,
                    "duration": 0.1300983333333079
                },
                {
                    "name": "C#4",
                    "midi": 61,
                    "time": 299.35626499999523,
                    "velocity": 0.5669291338582677,
                    "duration": 0.09757374999998092
                },
                {
                    "name": "D#4",
                    "midi": 63,
                    "time": 299.4538387499952,
                    "velocity": 0.5433070866141733,
                    "duration": 0.09757374999998092
                },
                {
                    "name": "F4",
                    "midi": 65,
                    "time": 299.5514124999952,
                    "velocity": 0.5118110236220472,
                    "duration": 0.09757374999998092
                },
                {
                    "name": "G4",
                    "midi": 67,
                    "time": 299.6489862499952,
                    "velocity": 0.4881889763779528,
                    "duration": 0.09757374999998092
                },
                {
                    "name": "G#4",
                    "midi": 68,
                    "time": 299.74655999999516,
                    "velocity": 0.5748031496062992,
                    "duration": 0.1300983333333079
                },
                {
                    "name": "C5",
                    "midi": 72,
                    "time": 299.87665833332846,
                    "velocity": 0.5511811023622047,
                    "duration": 0.1300983333333079
                },
                {
                    "name": "A#4",
                    "midi": 70,
                    "time": 300.0067566666618,
                    "velocity": 0.49606299212598426,
                    "duration": 0.1300983333333079
                },
                {
                    "name": "G#4",
                    "midi": 68,
                    "time": 300.1368549999951,
                    "velocity": 0.5669291338582677,
                    "duration": 0.1300983333333079
                },
                {
                    "name": "G4",
                    "midi": 67,
                    "time": 300.2669533333284,
                    "velocity": 0.5039370078740157,
                    "duration": 0.1300983333333079
                },
                {
                    "name": "F4",
                    "midi": 65,
                    "time": 300.3970516666617,
                    "velocity": 0.5039370078740157,
                    "duration": 0.1300983333333079
                },
                {
                    "name": "D#4",
                    "midi": 63,
                    "time": 300.527149999995,
                    "velocity": 0.5669291338582677,
                    "duration": 0.1300983333333079
                },
                {
                    "name": "C#4",
                    "midi": 61,
                    "time": 300.6572483333283,
                    "velocity": 0.5039370078740157,
                    "duration": 0.1300983333333079
                },
                {
                    "name": "C4",
                    "midi": 60,
                    "time": 300.7873466666616,
                    "velocity": 0.5039370078740157,
                    "duration": 0.1300983333333079
                },
                {
                    "name": "G#4",
                    "midi": 68,
                    "time": 300.9174449999949,
                    "velocity": 0.5669291338582677,
                    "duration": 0.1300983333333079
                },
                {
                    "name": "G4",
                    "midi": 67,
                    "time": 301.04754333332824,
                    "velocity": 0.5039370078740157,
                    "duration": 0.1300983333333079
                },
                {
                    "name": "F4",
                    "midi": 65,
                    "time": 301.17764166666154,
                    "velocity": 0.5039370078740157,
                    "duration": 0.1300983333333079
                },
                {
                    "name": "D#4",
                    "midi": 63,
                    "time": 301.30773999999485,
                    "velocity": 0.5669291338582677,
                    "duration": 0.1300983333333079
                },
                {
                    "name": "C#4",
                    "midi": 61,
                    "time": 301.43783833332816,
                    "velocity": 0.5039370078740157,
                    "duration": 0.1300983333333079
                },
                {
                    "name": "C4",
                    "midi": 60,
                    "time": 301.56793666666147,
                    "velocity": 0.5039370078740157,
                    "duration": 0.1300983333333079
                },
                {
                    "name": "G#4",
                    "midi": 68,
                    "time": 301.6980349999948,
                    "velocity": 0.5669291338582677,
                    "duration": 0.1300983333333079
                },
                {
                    "name": "G4",
                    "midi": 67,
                    "time": 301.8281333333281,
                    "velocity": 0.5039370078740157,
                    "duration": 0.1300983333333079
                },
                {
                    "name": "F4",
                    "midi": 65,
                    "time": 301.9582316666614,
                    "velocity": 0.5039370078740157,
                    "duration": 0.1300983333333079
                },
                {
                    "name": "D#4",
                    "midi": 63,
                    "time": 302.0883299999947,
                    "velocity": 0.5669291338582677,
                    "duration": 0.1300983333333079
                },
                {
                    "name": "C#4",
                    "midi": 61,
                    "time": 302.218428333328,
                    "velocity": 0.5039370078740157,
                    "duration": 0.1300983333333079
                },
                {
                    "name": "C4",
                    "midi": 60,
                    "time": 302.3485266666613,
                    "velocity": 0.5039370078740157,
                    "duration": 0.1300983333333079
                },
                {
                    "name": "G#4",
                    "midi": 68,
                    "time": 302.4786249999946,
                    "velocity": 0.5669291338582677,
                    "duration": 0.2927212499999996
                },
                {
                    "name": "C4",
                    "midi": 60,
                    "time": 302.7713462499946,
                    "velocity": 0.4015748031496063,
                    "duration": 0.08944260416666339
                },
                {
                    "name": "C4",
                    "midi": 60,
                    "time": 302.8689199999946,
                    "velocity": 0.4015748031496063,
                    "duration": 0.06504916666665395
                },
                {
                    "name": "C#4",
                    "midi": 61,
                    "time": 302.93396916666126,
                    "velocity": 0.36220472440944884,
                    "duration": 0.06504916666665395
                },
                {
                    "name": "C4",
                    "midi": 60,
                    "time": 302.9990183333279,
                    "velocity": 0.4015748031496063,
                    "duration": 0.06504916666665395
                },
                {
                    "name": "C#4",
                    "midi": 61,
                    "time": 303.06406749999456,
                    "velocity": 0.3543307086614173,
                    "duration": 0.06504916666665395
                },
                {
                    "name": "C4",
                    "midi": 60,
                    "time": 303.1291166666612,
                    "velocity": 0.4015748031496063,
                    "duration": 0.06504916666665395
                },
                {
                    "name": "C#4",
                    "midi": 61,
                    "time": 303.1941658333279,
                    "velocity": 0.3543307086614173,
                    "duration": 0.06504916666665395
                },
                {
                    "name": "C4",
                    "midi": 60,
                    "time": 303.2592149999945,
                    "velocity": 0.4015748031496063,
                    "duration": 0.04878687500001888
                },
                {
                    "name": "C#4",
                    "midi": 61,
                    "time": 303.30800187499455,
                    "velocity": 0.36220472440944884,
                    "duration": 0.04878687500001888
                },
                {
                    "name": "C4",
                    "midi": 60,
                    "time": 303.35678874999456,
                    "velocity": 0.4015748031496063,
                    "duration": 0.04878687500001888
                },
                {
                    "name": "C#4",
                    "midi": 61,
                    "time": 303.4055756249946,
                    "velocity": 0.3543307086614173,
                    "duration": 0.04878687500001888
                },
                {
                    "name": "C4",
                    "midi": 60,
                    "time": 303.4543624999946,
                    "velocity": 0.4566929133858268,
                    "duration": 0.09757374999998092
                },
                {
                    "name": "C#4",
                    "midi": 61,
                    "time": 303.5519362499946,
                    "velocity": 0.4015748031496063,
                    "duration": 0.09757374999998092
                },
                {
                    "name": "D#4",
                    "midi": 63,
                    "time": 303.64950999999456,
                    "velocity": 0.4645669291338583,
                    "duration": 0.3902949999999805
                },
                {
                    "name": "D#4",
                    "midi": 63,
                    "time": 304.03980499999454,
                    "velocity": 0.4645669291338583,
                    "duration": 0.3902949999999805
                },
                {
                    "name": "G#4",
                    "midi": 68,
                    "time": 304.4300999999945,
                    "velocity": 0.4015748031496063,
                    "duration": 1.1220981249999795
                },
                {
                    "name": "C5",
                    "midi": 72,
                    "time": 305.5521981249945,
                    "velocity": 0.44881889763779526,
                    "duration": 0.04878687500001888
                },
                {
                    "name": "A#4",
                    "midi": 70,
                    "time": 305.6009849999945,
                    "velocity": 0.3543307086614173,
                    "duration": 0.3902949999999805
                },
                {
                    "name": "G#4",
                    "midi": 68,
                    "time": 305.9912799999945,
                    "velocity": 0.4015748031496063,
                    "duration": 0.3902949999999805
                },
                {
                    "name": "G#4",
                    "midi": 68,
                    "time": 306.3815749999945,
                    "velocity": 0.3543307086614173,
                    "duration": 0.3902949999999805
                },
                {
                    "name": "G#4",
                    "midi": 68,
                    "time": 306.77186999999446,
                    "velocity": 0.3543307086614173,
                    "duration": 0.3902949999999805
                },
                {
                    "name": "C#5",
                    "midi": 73,
                    "time": 307.16216499999445,
                    "velocity": 0.3858267716535433,
                    "duration": 0.09757374999998092
                },
                {
                    "name": "A#4",
                    "midi": 70,
                    "time": 307.2597387499944,
                    "velocity": 0.3464566929133858,
                    "duration": 0.2927212499999996
                },
                {
                    "name": "D#5",
                    "midi": 75,
                    "time": 307.5524599999944,
                    "velocity": 0.3858267716535433,
                    "duration": 0.3902949999999805
                },
                {
                    "name": "D#5",
                    "midi": 75,
                    "time": 307.9427549999944,
                    "velocity": 0.3543307086614173,
                    "duration": 0.3902949999999805
                },
                {
                    "name": "D#5",
                    "midi": 75,
                    "time": 308.3330499999944,
                    "velocity": 0.3464566929133858,
                    "duration": 0.3902949999999805
                },
                {
                    "name": "C#5",
                    "midi": 73,
                    "time": 308.72334499999437,
                    "velocity": 0.3779527559055118,
                    "duration": 0.09757374999998092
                },
                {
                    "name": "A#4",
                    "midi": 70,
                    "time": 308.82091874999435,
                    "velocity": 0.33858267716535434,
                    "duration": 0.2927212499999996
                },
                {
                    "name": "G#4",
                    "midi": 68,
                    "time": 309.11363999999435,
                    "velocity": 0.3779527559055118,
                    "duration": 1.1220981249999795
                },
                {
                    "name": "C5",
                    "midi": 72,
                    "time": 310.2357381249943,
                    "velocity": 0.4015748031496063,
                    "duration": 0.04878687500001888
                },
                {
                    "name": "A#4",
                    "midi": 70,
                    "time": 310.28452499999435,
                    "velocity": 0.33070866141732286,
                    "duration": 0.3902949999999805
                },
                {
                    "name": "G#4",
                    "midi": 68,
                    "time": 310.6748199999943,
                    "velocity": 0.36220472440944884,
                    "duration": 0.3902949999999805
                },
                {
                    "name": "G#4",
                    "midi": 68,
                    "time": 311.0651149999943,
                    "velocity": 0.33070866141732286,
                    "duration": 0.3902949999999805
                },
                {
                    "name": "G#4",
                    "midi": 68,
                    "time": 311.4554099999943,
                    "velocity": 0.33070866141732286,
                    "duration": 0.3902949999999805
                },
                {
                    "name": "C#5",
                    "midi": 73,
                    "time": 311.84570499999427,
                    "velocity": 0.3543307086614173,
                    "duration": 0.09757374999998092
                },
                {
                    "name": "A#4",
                    "midi": 70,
                    "time": 311.94327874999425,
                    "velocity": 0.3228346456692913,
                    "duration": 0.2927212499999996
                },
                {
                    "name": "D#5",
                    "midi": 75,
                    "time": 312.23599999999425,
                    "velocity": 0.3543307086614173,
                    "duration": 0.3902949999999805
                },
                {
                    "name": "D#5",
                    "midi": 75,
                    "time": 312.62629499999423,
                    "velocity": 0.3228346456692913,
                    "duration": 0.3902949999999805
                },
                {
                    "name": "D#5",
                    "midi": 75,
                    "time": 313.0165899999942,
                    "velocity": 0.31496062992125984,
                    "duration": 0.3902949999999805
                },
                {
                    "name": "C#5",
                    "midi": 73,
                    "time": 313.4068849999942,
                    "velocity": 0.3543307086614173,
                    "duration": 0.09757374999998092
                },
                {
                    "name": "A#4",
                    "midi": 70,
                    "time": 313.50445874999417,
                    "velocity": 0.31496062992125984,
                    "duration": 0.2927212499999996
                },
                {
                    "name": "G#4",
                    "midi": 68,
                    "time": 313.79717999999417,
                    "velocity": 0.3464566929133858,
                    "duration": 1.1220981249999795
                },
                {
                    "name": "C5",
                    "midi": 72,
                    "time": 314.91927812499415,
                    "velocity": 0.33070866141732286,
                    "duration": 0.04878687500001888
                },
                {
                    "name": "A#4",
                    "midi": 70,
                    "time": 314.96806499999417,
                    "velocity": 0.2677165354330709,
                    "duration": 0.3902949999999805
                },
                {
                    "name": "G#4",
                    "midi": 68,
                    "time": 315.35835999999415,
                    "velocity": 0.31496062992125984,
                    "duration": 0.3902949999999805
                },
                {
                    "name": "D#5",
                    "midi": 75,
                    "time": 315.74865499999413,
                    "velocity": 0.28346456692913385,
                    "duration": 0.3902949999999805
                },
                {
                    "name": "C5",
                    "midi": 72,
                    "time": 315.74865499999413,
                    "velocity": 0.23622047244094488,
                    "duration": 0.3902949999999805
                },
                {
                    "name": "C5",
                    "midi": 72,
                    "time": 316.1389499999941,
                    "velocity": 0.23622047244094488,
                    "duration": 0.3902949999999805
                },
                {
                    "name": "D#5",
                    "midi": 75,
                    "time": 316.1389499999941,
                    "velocity": 0.28346456692913385,
                    "duration": 0.3902949999999805
                }
            ],
            "controlChanges": {},
            "id": 1,
            "name": "Piano right",
            "instrumentNumber": 0,
            "instrument": "acoustic grand piano",
            "instrumentFamily": "piano",
            "channelNumber": 0,
            "isPercussion": false
        },
        {
            "startTime": 1.56118,
            "duration": 317.3098349999946,
            "length": 1476,
            "notes": [
                {
                    "name": "G#2",
                    "midi": 44,
                    "time": 1.56118,
                    "velocity": 0.3858267716535433,
                    "duration": 0.39029500000000006
                },
                {
                    "name": "G#3",
                    "midi": 56,
                    "time": 1.56118,
                    "velocity": 0.4566929133858268,
                    "duration": 0.39029500000000006
                },
                {
                    "name": "G2",
                    "midi": 43,
                    "time": 2.34177,
                    "velocity": 0.3858267716535433,
                    "duration": 0.39029500000000006
                },
                {
                    "name": "G3",
                    "midi": 55,
                    "time": 2.34177,
                    "velocity": 0.4566929133858268,
                    "duration": 0.39029500000000006
                },
                {
                    "name": "G#2",
                    "midi": 44,
                    "time": 3.512655,
                    "velocity": 0.3700787401574803,
                    "duration": 0.39029500000000006
                },
                {
                    "name": "G#3",
                    "midi": 56,
                    "time": 3.90295,
                    "velocity": 0.4566929133858268,
                    "duration": 0.14636062500000024
                },
                {
                    "name": "A#3",
                    "midi": 58,
                    "time": 5.073835000000001,
                    "velocity": 0.2440944881889764,
                    "duration": 0.39029500000000006
                },
                {
                    "name": "G3",
                    "midi": 55,
                    "time": 5.464130000000001,
                    "velocity": 0.30708661417322836,
                    "duration": 0.1463606249999998
                },
                {
                    "name": "G#3",
                    "midi": 56,
                    "time": 6.635015000000001,
                    "velocity": 0.3700787401574803,
                    "duration": 0.39029500000000006
                },
                {
                    "name": "G#2",
                    "midi": 44,
                    "time": 7.025310000000001,
                    "velocity": 0.4566929133858268,
                    "duration": 0.1463606249999998
                },
                {
                    "name": "C3",
                    "midi": 48,
                    "time": 7.415605000000001,
                    "velocity": 0.4094488188976378,
                    "duration": 0.39029500000000006
                },
                {
                    "name": "C#3",
                    "midi": 49,
                    "time": 7.805900000000001,
                    "velocity": 0.4566929133858268,
                    "duration": 0.7805900000000001
                },
                {
                    "name": "D#3",
                    "midi": 51,
                    "time": 8.976785000000001,
                    "velocity": 0.4094488188976378,
                    "duration": 0.39029500000000006
                },
                {
                    "name": "G#2",
                    "midi": 44,
                    "time": 9.659801250000001,
                    "velocity": 0.3700787401574803,
                    "duration": 0.09757375000000046
                },
                {
                    "name": "C3",
                    "midi": 48,
                    "time": 9.757375000000001,
                    "velocity": 0.4566929133858268,
                    "duration": 0.2927212499999996
                },
                {
                    "name": "D#3",
                    "midi": 51,
                    "time": 10.050096250000001,
                    "velocity": 0.4094488188976378,
                    "duration": 0.09757375000000046
                },
                {
                    "name": "G#3",
                    "midi": 56,
                    "time": 10.147670000000002,
                    "velocity": 0.4645669291338583,
                    "duration": 0.2927212499999996
                },
                {
                    "name": "G#3",
                    "midi": 56,
                    "time": 10.928260000000002,
                    "velocity": 0.3858267716535433,
                    "duration": 0.39029500000000006
                },
                {
                    "name": "C4",
                    "midi": 60,
                    "time": 10.928260000000002,
                    "velocity": 0.4566929133858268,
                    "duration": 0.39029500000000006
                },
                {
                    "name": "G3",
                    "midi": 55,
                    "time": 11.708850000000002,
                    "velocity": 0.3858267716535433,
                    "duration": 0.39029500000000006
                },
                {
                    "name": "A#3",
                    "midi": 58,
                    "time": 11.708850000000002,
                    "velocity": 0.4566929133858268,
                    "duration": 0.39029500000000006
                },
                {
                    "name": "G#2",
                    "midi": 44,
                    "time": 12.879735000000002,
                    "velocity": 0.3700787401574803,
                    "duration": 0.39029500000000006
                },
                {
                    "name": "G#3",
                    "midi": 56,
                    "time": 13.270030000000002,
                    "velocity": 0.4566929133858268,
                    "duration": 0.39029500000000006
                },
                {
                    "name": "C4",
                    "midi": 60,
                    "time": 13.660325000000002,
                    "velocity": 0.4566929133858268,
                    "duration": 0.39029500000000006
                },
                {
                    "name": "C#4",
                    "midi": 61,
                    "time": 14.440915000000002,
                    "velocity": 0.4566929133858268,
                    "duration": 0.09757375000000046
                },
                {
                    "name": "C4",
                    "midi": 60,
                    "time": 15.221505000000002,
                    "velocity": 0.4566929133858268,
                    "duration": 0.09757375000000046
                },
                {
                    "name": "A#3",
                    "midi": 58,
                    "time": 16.002095000000004,
                    "velocity": 0.4566929133858268,
                    "duration": 0.09757374999999868
                },
                {
                    "name": "G#3",
                    "midi": 56,
                    "time": 16.782685000000004,
                    "velocity": 0.4566929133858268,
                    "duration": 0.09757374999999868
                },
                {
                    "name": "C#4",
                    "midi": 61,
                    "time": 17.563275000000004,
                    "velocity": 0.3858267716535433,
                    "duration": 0.3902949999999983
                },
                {
                    "name": "C#3",
                    "midi": 49,
                    "time": 17.563275000000004,
                    "velocity": 0.3858267716535433,
                    "duration": 0.3902949999999983
                },
                {
                    "name": "D#3",
                    "midi": 51,
                    "time": 17.953570000000003,
                    "velocity": 0.4566929133858268,
                    "duration": 0.7805899999999966
                },
                {
                    "name": "C4",
                    "midi": 60,
                    "time": 17.953570000000003,
                    "velocity": 0.4566929133858268,
                    "duration": 0.3902949999999983
                },
                {
                    "name": "A#3",
                    "midi": 58,
                    "time": 18.343865,
                    "velocity": 0.4330708661417323,
                    "duration": 0.3902949999999983
                },
                {
                    "name": "G#3",
                    "midi": 56,
                    "time": 18.73416,
                    "velocity": 0.4330708661417323,
                    "duration": 0.13009833333333276
                },
                {
                    "name": "C4",
                    "midi": 60,
                    "time": 18.864258333333332,
                    "velocity": 0.3700787401574803,
                    "duration": 0.13009833333333276
                },
                {
                    "name": "D#4",
                    "midi": 63,
                    "time": 18.994356666666665,
                    "velocity": 0.3700787401574803,
                    "duration": 0.13009833333333276
                },
                {
                    "name": "G#3",
                    "midi": 56,
                    "time": 19.124454999999998,
                    "velocity": 0.4330708661417323,
                    "duration": 0.13009833333333276
                },
                {
                    "name": "C4",
                    "midi": 60,
                    "time": 19.25455333333333,
                    "velocity": 0.3700787401574803,
                    "duration": 0.13009833333333276
                },
                {
                    "name": "D#4",
                    "midi": 63,
                    "time": 19.384651666666663,
                    "velocity": 0.3858267716535433,
                    "duration": 0.13009833333333276
                },
                {
                    "name": "G#3",
                    "midi": 56,
                    "time": 19.514749999999996,
                    "velocity": 0.4330708661417323,
                    "duration": 0.13009833333333276
                },
                {
                    "name": "C4",
                    "midi": 60,
                    "time": 19.64484833333333,
                    "velocity": 0.3937007874015748,
                    "duration": 0.13009833333333276
                },
                {
                    "name": "D#4",
                    "midi": 63,
                    "time": 19.77494666666666,
                    "velocity": 0.3937007874015748,
                    "duration": 0.13009833333333276
                },
                {
                    "name": "G3",
                    "midi": 55,
                    "time": 19.905044999999994,
                    "velocity": 0.4330708661417323,
                    "duration": 0.13009833333333276
                },
                {
                    "name": "A#3",
                    "midi": 58,
                    "time": 20.035143333333327,
                    "velocity": 0.4094488188976378,
                    "duration": 0.13009833333333276
                },
                {
                    "name": "D#4",
                    "midi": 63,
                    "time": 20.16524166666666,
                    "velocity": 0.4094488188976378,
                    "duration": 0.13009833333333276
                },
                {
                    "name": "G#3",
                    "midi": 56,
                    "time": 20.295339999999992,
                    "velocity": 0.4330708661417323,
                    "duration": 0.13009833333333276
                },
                {
                    "name": "C4",
                    "midi": 60,
                    "time": 20.425438333333325,
                    "velocity": 0.3700787401574803,
                    "duration": 0.13009833333333276
                },
                {
                    "name": "D#4",
                    "midi": 63,
                    "time": 20.555536666666658,
                    "velocity": 0.3700787401574803,
                    "duration": 0.13009833333333276
                },
                {
                    "name": "G#3",
                    "midi": 56,
                    "time": 20.68563499999999,
                    "velocity": 0.4330708661417323,
                    "duration": 0.13009833333333276
                },
                {
                    "name": "C4",
                    "midi": 60,
                    "time": 20.815733333333323,
                    "velocity": 0.3700787401574803,
                    "duration": 0.13009833333333276
                },
                {
                    "name": "D#4",
                    "midi": 63,
                    "time": 20.945831666666656,
                    "velocity": 0.29133858267716534,
                    "duration": 0.13009833333333276
                },
                {
                    "name": "G#3",
                    "midi": 56,
                    "time": 21.07592999999999,
                    "velocity": 0.3937007874015748,
                    "duration": 0.13009833333333276
                },
                {
                    "name": "C4",
                    "midi": 60,
                    "time": 21.20602833333332,
                    "velocity": 0.3228346456692913,
                    "duration": 0.13009833333333276
                },
                {
                    "name": "D#4",
                    "midi": 63,
                    "time": 21.336126666666654,
                    "velocity": 0.3228346456692913,
                    "duration": 0.13009833333333276
                },
                {
                    "name": "G#3",
                    "midi": 56,
                    "time": 21.466224999999987,
                    "velocity": 0.3937007874015748,
                    "duration": 0.13009833333333276
                },
                {
                    "name": "C4",
                    "midi": 60,
                    "time": 21.59632333333332,
                    "velocity": 0.36220472440944884,
                    "duration": 0.13009833333333276
                },
                {
                    "name": "D#4",
                    "midi": 63,
                    "time": 21.726421666666653,
                    "velocity": 0.36220472440944884,
                    "duration": 0.13009833333333276
                },
                {
                    "name": "G#3",
                    "midi": 56,
                    "time": 21.856519999999986,
                    "velocity": 0.4330708661417323,
                    "duration": 0.13009833333333276
                },
                {
                    "name": "C4",
                    "midi": 60,
                    "time": 21.98661833333332,
                    "velocity": 0.3700787401574803,
                    "duration": 0.13009833333333276
                },
                {
                    "name": "D#4",
                    "midi": 63,
                    "time": 22.11671666666665,
                    "velocity": 0.3700787401574803,
                    "duration": 0.13009833333333276
                },
                {
                    "name": "G#3",
                    "midi": 56,
                    "time": 22.246814999999984,
                    "velocity": 0.4330708661417323,
                    "duration": 0.13009833333333276
                },
                {
                    "name": "C4",
                    "midi": 60,
                    "time": 22.376913333333317,
                    "velocity": 0.3700787401574803,
                    "duration": 0.13009833333333276
                },
                {
                    "name": "D#4",
                    "midi": 63,
                    "time": 22.50701166666665,
                    "velocity": 0.3858267716535433,
                    "duration": 0.13009833333333276
                },
                {
                    "name": "G#3",
                    "midi": 56,
                    "time": 22.637109999999982,
                    "velocity": 0.4330708661417323,
                    "duration": 0.13009833333333276
                },
                {
                    "name": "C4",
                    "midi": 60,
                    "time": 22.767208333333315,
                    "velocity": 0.3937007874015748,
                    "duration": 0.13009833333333276
                },
                {
                    "name": "D#4",
                    "midi": 63,
                    "time": 22.897306666666648,
                    "velocity": 0.3937007874015748,
                    "duration": 0.13009833333333276
                },
                {
                    "name": "A#3",
                    "midi": 58,
                    "time": 23.02740499999998,
                    "velocity": 0.4330708661417323,
                    "duration": 0.13009833333333276
                },
                {
                    "name": "C#4",
                    "midi": 61,
                    "time": 23.157503333333313,
                    "velocity": 0.4094488188976378,
                    "duration": 0.13009833333333276
                },
                {
                    "name": "G4",
                    "midi": 67,
                    "time": 23.287601666666646,
                    "velocity": 0.4094488188976378,
                    "duration": 0.13009833333333276
                },
                {
                    "name": "C4",
                    "midi": 60,
                    "time": 23.41769999999998,
                    "velocity": 0.4330708661417323,
                    "duration": 0.13009833333333276
                },
                {
                    "name": "D#4",
                    "midi": 63,
                    "time": 23.54779833333331,
                    "velocity": 0.3700787401574803,
                    "duration": 0.13009833333333276
                },
                {
                    "name": "G#4",
                    "midi": 68,
                    "time": 23.677896666666644,
                    "velocity": 0.3700787401574803,
                    "duration": 0.13009833333333276
                },
                {
                    "name": "C4",
                    "midi": 60,
                    "time": 23.807994999999977,
                    "velocity": 0.4330708661417323,
                    "duration": 0.13009833333333276
                },
                {
                    "name": "D#4",
                    "midi": 63,
                    "time": 23.93809333333331,
                    "velocity": 0.3700787401574803,
                    "duration": 0.13009833333333276
                },
                {
                    "name": "G#4",
                    "midi": 68,
                    "time": 24.068191666666642,
                    "velocity": 0.30708661417322836,
                    "duration": 0.13009833333333276
                },
                {
                    "name": "C4",
                    "midi": 60,
                    "time": 24.198289999999975,
                    "velocity": 0.4094488188976378,
                    "duration": 0.13009833333333276
                },
                {
                    "name": "D#4",
                    "midi": 63,
                    "time": 24.328388333333308,
                    "velocity": 0.33858267716535434,
                    "duration": 0.13009833333333276
                },
                {
                    "name": "G#4",
                    "midi": 68,
                    "time": 24.45848666666664,
                    "velocity": 0.33858267716535434,
                    "duration": 0.13009833333333276
                },
                {
                    "name": "C4",
                    "midi": 60,
                    "time": 24.588584999999973,
                    "velocity": 0.41732283464566927,
                    "duration": 0.13009833333333276
                },
                {
                    "name": "D#4",
                    "midi": 63,
                    "time": 24.718683333333306,
                    "velocity": 0.3464566929133858,
                    "duration": 0.13009833333333276
                },
                {
                    "name": "G#4",
                    "midi": 68,
                    "time": 24.84878166666664,
                    "velocity": 0.3464566929133858,
                    "duration": 0.13009833333333276
                },
                {
                    "name": "C4",
                    "midi": 60,
                    "time": 24.97887999999997,
                    "velocity": 0.4330708661417323,
                    "duration": 0.13009833333333276
                },
                {
                    "name": "D#4",
                    "midi": 63,
                    "time": 25.108978333333305,
                    "velocity": 0.3700787401574803,
                    "duration": 0.13009833333333276
                },
                {
                    "name": "G#4",
                    "midi": 68,
                    "time": 25.239076666666637,
                    "velocity": 0.3700787401574803,
                    "duration": 0.13009833333333276
                },
                {
                    "name": "C4",
                    "midi": 60,
                    "time": 25.36917499999997,
                    "velocity": 0.4330708661417323,
                    "duration": 0.13009833333333276
                },
                {
                    "name": "D#4",
                    "midi": 63,
                    "time": 25.499273333333303,
                    "velocity": 0.3700787401574803,
                    "duration": 0.13009833333333276
                },
                {
                    "name": "G#4",
                    "midi": 68,
                    "time": 25.629371666666636,
                    "velocity": 0.30708661417322836,
                    "duration": 0.13009833333333276
                },
                {
                    "name": "C4",
                    "midi": 60,
                    "time": 25.75946999999997,
                    "velocity": 0.36220472440944884,
                    "duration": 0.13009833333333276
                },
                {
                    "name": "D#4",
                    "midi": 63,
                    "time": 25.8895683333333,
                    "velocity": 0.28346456692913385,
                    "duration": 0.13009833333333276
                },
                {
                    "name": "G#4",
                    "midi": 68,
                    "time": 26.019666666666634,
                    "velocity": 0.28346456692913385,
                    "duration": 0.13009833333333276
                },
                {
                    "name": "C4",
                    "midi": 60,
                    "time": 26.149764999999967,
                    "velocity": 0.3700787401574803,
                    "duration": 0.13009833333333276
                },
                {
                    "name": "D#4",
                    "midi": 63,
                    "time": 26.2798633333333,
                    "velocity": 0.31496062992125984,
                    "duration": 0.13009833333333276
                },
                {
                    "name": "G#4",
                    "midi": 68,
                    "time": 26.409961666666632,
                    "velocity": 0.31496062992125984,
                    "duration": 0.13009833333333276
                },
                {
                    "name": "C#4",
                    "midi": 61,
                    "time": 26.540059999999965,
                    "velocity": 0.4330708661417323,
                    "duration": 0.13009833333333276
                },
                {
                    "name": "F4",
                    "midi": 65,
                    "time": 26.670158333333298,
                    "velocity": 0.3700787401574803,
                    "duration": 0.13009833333333276
                },
                {
                    "name": "G#4",
                    "midi": 68,
                    "time": 26.80025666666663,
                    "velocity": 0.3700787401574803,
                    "duration": 0.13009833333333276
                },
                {
                    "name": "C#4",
                    "midi": 61,
                    "time": 26.930354999999963,
                    "velocity": 0.4330708661417323,
                    "duration": 0.13009833333333276
                },
                {
                    "name": "F4",
                    "midi": 65,
                    "time": 27.060453333333296,
                    "velocity": 0.3700787401574803,
                    "duration": 0.13009833333333276
                },
                {
                    "name": "G#4",
                    "midi": 68,
                    "time": 27.19055166666663,
                    "velocity": 0.30708661417322836,
                    "duration": 0.13009833333333276
                },
                {
                    "name": "C#4",
                    "midi": 61,
                    "time": 27.32064999999996,
                    "velocity": 0.3858267716535433,
                    "duration": 0.13009833333333276
                },
                {
                    "name": "D#4",
                    "midi": 63,
                    "time": 27.450748333333294,
                    "velocity": 0.30708661417322836,
                    "duration": 0.13009833333333276
                },
                {
                    "name": "G4",
                    "midi": 67,
                    "time": 27.580846666666627,
                    "velocity": 0.30708661417322836,
                    "duration": 0.13009833333333276
                },
                {
                    "name": "C#4",
                    "midi": 61,
                    "time": 27.71094499999996,
                    "velocity": 0.3937007874015748,
                    "duration": 0.13009833333333276
                },
                {
                    "name": "D#4",
                    "midi": 63,
                    "time": 27.841043333333293,
                    "velocity": 0.3464566929133858,
                    "duration": 0.13009833333333276
                },
                {
                    "name": "G4",
                    "midi": 67,
                    "time": 27.971141666666625,
                    "velocity": 0.3464566929133858,
                    "duration": 0.13009833333333276
                },
                {
                    "name": "C4",
                    "midi": 60,
                    "time": 28.101239999999958,
                    "velocity": 0.4330708661417323,
                    "duration": 0.13009833333333276
                },
                {
                    "name": "D#4",
                    "midi": 63,
                    "time": 28.23133833333329,
                    "velocity": 0.3700787401574803,
                    "duration": 0.13009833333333276
                },
                {
                    "name": "G#4",
                    "midi": 68,
                    "time": 28.361436666666624,
                    "velocity": 0.3700787401574803,
                    "duration": 0.13009833333333276
                },
                {
                    "name": "C4",
                    "midi": 60,
                    "time": 28.491534999999956,
                    "velocity": 0.4330708661417323,
                    "duration": 0.13009833333333276
                },
                {
                    "name": "D#4",
                    "midi": 63,
                    "time": 28.62163333333329,
                    "velocity": 0.3700787401574803,
                    "duration": 0.13009833333333276
                },
                {
                    "name": "G#4",
                    "midi": 68,
                    "time": 28.751731666666622,
                    "velocity": 0.30708661417322836,
                    "duration": 0.13009833333333276
                },
                {
                    "name": "A#3",
                    "midi": 58,
                    "time": 28.881829999999955,
                    "velocity": 0.4094488188976378,
                    "duration": 0.13009833333333276
                },
                {
                    "name": "C#4",
                    "midi": 61,
                    "time": 29.011928333333287,
                    "velocity": 0.33858267716535434,
                    "duration": 0.13009833333333276
                },
                {
                    "name": "G4",
                    "midi": 67,
                    "time": 29.14202666666662,
                    "velocity": 0.33858267716535434,
                    "duration": 0.13009833333333276
                },
                {
                    "name": "A#3",
                    "midi": 58,
                    "time": 29.272124999999953,
                    "velocity": 0.41732283464566927,
                    "duration": 0.13009833333333276
                },
                {
                    "name": "C#4",
                    "midi": 61,
                    "time": 29.402223333333286,
                    "velocity": 0.3464566929133858,
                    "duration": 0.13009833333333276
                },
                {
                    "name": "G4",
                    "midi": 67,
                    "time": 29.53232166666662,
                    "velocity": 0.3464566929133858,
                    "duration": 0.13009833333333276
                },
                {
                    "name": "G#3",
                    "midi": 56,
                    "time": 29.66241999999995,
                    "velocity": 0.4330708661417323,
                    "duration": 0.3902949999999983
                },
                {
                    "name": "D#4",
                    "midi": 63,
                    "time": 31.61389499999995,
                    "velocity": 0.30708661417322836,
                    "duration": 0.39029500000000183
                },
                {
                    "name": "G4",
                    "midi": 67,
                    "time": 31.61389499999995,
                    "velocity": 0.36220472440944884,
                    "duration": 0.39029500000000183
                },
                {
                    "name": "D#3",
                    "midi": 51,
                    "time": 32.78477999999995,
                    "velocity": 0.4566929133858268,
                    "duration": 0.2927212499999996
                },
                {
                    "name": "G3",
                    "midi": 55,
                    "time": 33.17507499999995,
                    "velocity": 0.4566929133858268,
                    "duration": 0.19514749999999736
                },
                {
                    "name": "D3",
                    "midi": 50,
                    "time": 33.565369999999945,
                    "velocity": 0.4566929133858268,
                    "duration": 0.19514749999999736
                },
                {
                    "name": "D3",
                    "midi": 50,
                    "time": 34.34595999999994,
                    "velocity": 0.4566929133858268,
                    "duration": 0.2927212499999996
                },
                {
                    "name": "A#3",
                    "midi": 58,
                    "time": 34.73625499999994,
                    "velocity": 0.3464566929133858,
                    "duration": 0.19514749999999736
                },
                {
                    "name": "D#3",
                    "midi": 51,
                    "time": 35.12654999999994,
                    "velocity": 0.41732283464566927,
                    "duration": 0.2927212499999996
                },
                {
                    "name": "A#3",
                    "midi": 58,
                    "time": 35.51684499999994,
                    "velocity": 0.3700787401574803,
                    "duration": 0.19514749999999736
                },
                {
                    "name": "F3",
                    "midi": 53,
                    "time": 35.907139999999934,
                    "velocity": 0.4330708661417323,
                    "duration": 0.2927212499999996
                },
                {
                    "name": "D4",
                    "midi": 62,
                    "time": 36.297434999999936,
                    "velocity": 0.29133858267716534,
                    "duration": 0.19514749999999736
                },
                {
                    "name": "G3",
                    "midi": 55,
                    "time": 36.68772999999993,
                    "velocity": 0.4409448818897638,
                    "duration": 0.2927212499999996
                },
                {
                    "name": "D#4",
                    "midi": 63,
                    "time": 37.07802499999993,
                    "velocity": 0.3464566929133858,
                    "duration": 0.19514749999999736
                },
                {
                    "name": "G#3",
                    "midi": 56,
                    "time": 37.46831999999993,
                    "velocity": 0.4330708661417323,
                    "duration": 0.1300983333333363
                },
                {
                    "name": "C4",
                    "midi": 60,
                    "time": 37.598418333333264,
                    "velocity": 0.3700787401574803,
                    "duration": 0.1300983333333363
                },
                {
                    "name": "D#4",
                    "midi": 63,
                    "time": 37.7285166666666,
                    "velocity": 0.3700787401574803,
                    "duration": 0.1300983333333363
                },
                {
                    "name": "G#3",
                    "midi": 56,
                    "time": 37.858614999999936,
                    "velocity": 0.4330708661417323,
                    "duration": 0.1300983333333363
                },
                {
                    "name": "C4",
                    "midi": 60,
                    "time": 37.98871333333327,
                    "velocity": 0.3700787401574803,
                    "duration": 0.1300983333333363
                },
                {
                    "name": "D#4",
                    "midi": 63,
                    "time": 38.11881166666661,
                    "velocity": 0.30708661417322836,
                    "duration": 0.1300983333333363
                },
                {
                    "name": "G#3",
                    "midi": 56,
                    "time": 38.248909999999945,
                    "velocity": 0.4094488188976378,
                    "duration": 0.1300983333333363
                },
                {
                    "name": "C4",
                    "midi": 60,
                    "time": 38.37900833333328,
                    "velocity": 0.33858267716535434,
                    "duration": 0.1300983333333363
                },
                {
                    "name": "D#4",
                    "midi": 63,
                    "time": 38.50910666666662,
                    "velocity": 0.33858267716535434,
                    "duration": 0.1300983333333363
                },
                {
                    "name": "G3",
                    "midi": 55,
                    "time": 38.639204999999954,
                    "velocity": 0.41732283464566927,
                    "duration": 0.1300983333333363
                },
                {
                    "name": "A#3",
                    "midi": 58,
                    "time": 38.76930333333329,
                    "velocity": 0.3464566929133858,
                    "duration": 0.1300983333333363
                },
                {
                    "name": "C#4",
                    "midi": 61,
                    "time": 38.89940166666663,
                    "velocity": 0.3464566929133858,
                    "duration": 0.1300983333333363
                },
                {
                    "name": "G#3",
                    "midi": 56,
                    "time": 39.02949999999996,
                    "velocity": 0.4330708661417323,
                    "duration": 0.39029500000000183
                },
                {
                    "name": "G3",
                    "midi": 55,
                    "time": 40.59067999999996,
                    "velocity": 0.4330708661417323,
                    "duration": 0.1300983333333363
                },
                {
                    "name": "A#3",
                    "midi": 58,
                    "time": 40.7207783333333,
                    "velocity": 0.3700787401574803,
                    "duration": 0.1300983333333363
                },
                {
                    "name": "D#4",
                    "midi": 63,
                    "time": 40.850876666666636,
                    "velocity": 0.3700787401574803,
                    "duration": 0.1300983333333363
                },
                {
                    "name": "G3",
                    "midi": 55,
                    "time": 40.98097499999997,
                    "velocity": 0.4330708661417323,
                    "duration": 0.1300983333333363
                },
                {
                    "name": "A#3",
                    "midi": 58,
                    "time": 41.11107333333331,
                    "velocity": 0.3700787401574803,
                    "duration": 0.1300983333333363
                },
                {
                    "name": "D#4",
                    "midi": 63,
                    "time": 41.241171666666645,
                    "velocity": 0.30708661417322836,
                    "duration": 0.1300983333333363
                },
                {
                    "name": "G3",
                    "midi": 55,
                    "time": 41.37126999999998,
                    "velocity": 0.4094488188976378,
                    "duration": 0.1300983333333363
                },
                {
                    "name": "A#3",
                    "midi": 58,
                    "time": 41.50136833333332,
                    "velocity": 0.33858267716535434,
                    "duration": 0.1300983333333363
                },
                {
                    "name": "D#4",
                    "midi": 63,
                    "time": 41.631466666666654,
                    "velocity": 0.33858267716535434,
                    "duration": 0.1300983333333363
                },
                {
                    "name": "F3",
                    "midi": 53,
                    "time": 41.76156499999999,
                    "velocity": 0.41732283464566927,
                    "duration": 0.1300983333333363
                },
                {
                    "name": "G#3",
                    "midi": 56,
                    "time": 41.89166333333333,
                    "velocity": 0.3464566929133858,
                    "duration": 0.1300983333333363
                },
                {
                    "name": "B3",
                    "midi": 59,
                    "time": 42.02176166666666,
                    "velocity": 0.3464566929133858,
                    "duration": 0.1300983333333363
                },
                {
                    "name": "G3",
                    "midi": 55,
                    "time": 42.15186,
                    "velocity": 0.4330708661417323,
                    "duration": 0.39029500000000183
                },
                {
                    "name": "A#3",
                    "midi": 58,
                    "time": 43.71304,
                    "velocity": 0.4330708661417323,
                    "duration": 0.1300983333333363
                },
                {
                    "name": "D4",
                    "midi": 62,
                    "time": 43.843138333333336,
                    "velocity": 0.3700787401574803,
                    "duration": 0.1300983333333363
                },
                {
                    "name": "F4",
                    "midi": 65,
                    "time": 43.97323666666667,
                    "velocity": 0.3700787401574803,
                    "duration": 0.1300983333333363
                },
                {
                    "name": "A#3",
                    "midi": 58,
                    "time": 44.10333500000001,
                    "velocity": 0.4330708661417323,
                    "duration": 0.1300983333333363
                },
                {
                    "name": "D4",
                    "midi": 62,
                    "time": 44.233433333333345,
                    "velocity": 0.3700787401574803,
                    "duration": 0.1300983333333363
                },
                {
                    "name": "F4",
                    "midi": 65,
                    "time": 44.36353166666668,
                    "velocity": 0.30708661417322836,
                    "duration": 0.1300983333333363
                },
                {
                    "name": "A#3",
                    "midi": 58,
                    "time": 44.49363000000002,
                    "velocity": 0.4094488188976378,
                    "duration": 0.1300983333333363
                },
                {
                    "name": "D4",
                    "midi": 62,
                    "time": 44.623728333333354,
                    "velocity": 0.33858267716535434,
                    "duration": 0.1300983333333363
                },
                {
                    "name": "F4",
                    "midi": 65,
                    "time": 44.75382666666669,
                    "velocity": 0.33858267716535434,
                    "duration": 0.1300983333333363
                },
                {
                    "name": "A#3",
                    "midi": 58,
                    "time": 44.883925000000026,
                    "velocity": 0.41732283464566927,
                    "duration": 0.1300983333333363
                },
                {
                    "name": "D#4",
                    "midi": 63,
                    "time": 45.01402333333336,
                    "velocity": 0.3464566929133858,
                    "duration": 0.1300983333333363
                },
                {
                    "name": "G4",
                    "midi": 67,
                    "time": 45.1441216666667,
                    "velocity": 0.3464566929133858,
                    "duration": 0.1300983333333363
                },
                {
                    "name": "A#3",
                    "midi": 58,
                    "time": 45.274220000000035,
                    "velocity": 0.41732283464566927,
                    "duration": 0.1300983333333363
                },
                {
                    "name": "F4",
                    "midi": 65,
                    "time": 45.40431833333337,
                    "velocity": 0.3464566929133858,
                    "duration": 0.1300983333333363
                },
                {
                    "name": "G#4",
                    "midi": 68,
                    "time": 45.53441666666671,
                    "velocity": 0.3464566929133858,
                    "duration": 0.1300983333333363
                },
                {
                    "name": "A#3",
                    "midi": 58,
                    "time": 45.664515000000044,
                    "velocity": 0.3937007874015748,
                    "duration": 0.1300983333333363
                },
                {
                    "name": "F4",
                    "midi": 65,
                    "time": 45.79461333333338,
                    "velocity": 0.30708661417322836,
                    "duration": 0.1300983333333363
                },
                {
                    "name": "G#4",
                    "midi": 68,
                    "time": 45.92471166666672,
                    "velocity": 0.30708661417322836,
                    "duration": 0.1300983333333363
                },
                {
                    "name": "A#3",
                    "midi": 58,
                    "time": 46.05481000000005,
                    "velocity": 0.3700787401574803,
                    "duration": 0.1300983333333363
                },
                {
                    "name": "F4",
                    "midi": 65,
                    "time": 46.18490833333339,
                    "velocity": 0.33070866141732286,
                    "duration": 0.1300983333333363
                },
                {
                    "name": "G#4",
                    "midi": 68,
                    "time": 46.315006666666726,
                    "velocity": 0.33070866141732286,
                    "duration": 0.1300983333333363
                },
                {
                    "name": "A#3",
                    "midi": 58,
                    "time": 46.44510500000006,
                    "velocity": 0.41732283464566927,
                    "duration": 0.1300983333333363
                },
                {
                    "name": "D#4",
                    "midi": 63,
                    "time": 46.5752033333334,
                    "velocity": 0.3464566929133858,
                    "duration": 0.1300983333333363
                },
                {
                    "name": "G4",
                    "midi": 67,
                    "time": 46.705301666666735,
                    "velocity": 0.3464566929133858,
                    "duration": 0.1300983333333363
                },
                {
                    "name": "A#3",
                    "midi": 58,
                    "time": 46.83540000000007,
                    "velocity": 0.4330708661417323,
                    "duration": 0.1300983333333363
                },
                {
                    "name": "D4",
                    "midi": 62,
                    "time": 46.96549833333341,
                    "velocity": 0.3700787401574803,
                    "duration": 0.1300983333333363
                },
                {
                    "name": "F4",
                    "midi": 65,
                    "time": 47.095596666666744,
                    "velocity": 0.3700787401574803,
                    "duration": 0.1300983333333363
                },
                {
                    "name": "A#3",
                    "midi": 58,
                    "time": 47.22569500000008,
                    "velocity": 0.4330708661417323,
                    "duration": 0.1300983333333363
                },
                {
                    "name": "D4",
                    "midi": 62,
                    "time": 47.355793333333416,
                    "velocity": 0.3700787401574803,
                    "duration": 0.1300983333333363
                },
                {
                    "name": "F4",
                    "midi": 65,
                    "time": 47.48589166666675,
                    "velocity": 0.30708661417322836,
                    "duration": 0.1300983333333363
                },
                {
                    "name": "A#3",
                    "midi": 58,
                    "time": 47.61599000000009,
                    "velocity": 0.4094488188976378,
                    "duration": 0.1300983333333363
                },
                {
                    "name": "D4",
                    "midi": 62,
                    "time": 47.746088333333425,
                    "velocity": 0.33858267716535434,
                    "duration": 0.1300983333333363
                },
                {
                    "name": "F4",
                    "midi": 65,
                    "time": 47.87618666666676,
                    "velocity": 0.33858267716535434,
                    "duration": 0.1300983333333363
                },
                {
                    "name": "A#3",
                    "midi": 58,
                    "time": 48.0062850000001,
                    "velocity": 0.41732283464566927,
                    "duration": 0.1300983333333363
                },
                {
                    "name": "D#4",
                    "midi": 63,
                    "time": 48.136383333333434,
                    "velocity": 0.3464566929133858,
                    "duration": 0.1300983333333363
                },
                {
                    "name": "G4",
                    "midi": 67,
                    "time": 48.26648166666677,
                    "velocity": 0.3464566929133858,
                    "duration": 0.1300983333333363
                },
                {
                    "name": "A#3",
                    "midi": 58,
                    "time": 48.39658000000011,
                    "velocity": 0.41732283464566927,
                    "duration": 0.1300983333333363
                },
                {
                    "name": "F4",
                    "midi": 65,
                    "time": 48.52667833333344,
                    "velocity": 0.3464566929133858,
                    "duration": 0.1300983333333363
                },
                {
                    "name": "G#4",
                    "midi": 68,
                    "time": 48.65677666666678,
                    "velocity": 0.3464566929133858,
                    "duration": 0.1300983333333363
                },
                {
                    "name": "A#3",
                    "midi": 58,
                    "time": 48.786875000000116,
                    "velocity": 0.3937007874015748,
                    "duration": 0.1300983333333363
                },
                {
                    "name": "F4",
                    "midi": 65,
                    "time": 48.91697333333345,
                    "velocity": 0.30708661417322836,
                    "duration": 0.1300983333333363
                },
                {
                    "name": "G#4",
                    "midi": 68,
                    "time": 49.04707166666679,
                    "velocity": 0.30708661417322836,
                    "duration": 0.1300983333333363
                },
                {
                    "name": "A#3",
                    "midi": 58,
                    "time": 49.177170000000125,
                    "velocity": 0.3700787401574803,
                    "duration": 0.1300983333333363
                },
                {
                    "name": "F4",
                    "midi": 65,
                    "time": 49.30726833333346,
                    "velocity": 0.33070866141732286,
                    "duration": 0.1300983333333363
                },
                {
                    "name": "G#4",
                    "midi": 68,
                    "time": 49.4373666666668,
                    "velocity": 0.33070866141732286,
                    "duration": 0.1300983333333363
                },
                {
                    "name": "A#3",
                    "midi": 58,
                    "time": 49.567465000000134,
                    "velocity": 0.41732283464566927,
                    "duration": 0.1300983333333363
                },
                {
                    "name": "D#4",
                    "midi": 63,
                    "time": 49.69756333333347,
                    "velocity": 0.3464566929133858,
                    "duration": 0.1300983333333363
                },
                {
                    "name": "G4",
                    "midi": 67,
                    "time": 49.827661666666806,
                    "velocity": 0.3464566929133858,
                    "duration": 0.1300983333333363
                },
                {
                    "name": "A#3",
                    "midi": 58,
                    "time": 49.95776000000014,
                    "velocity": 0.4330708661417323,
                    "duration": 0.1300983333333363
                },
                {
                    "name": "D4",
                    "midi": 62,
                    "time": 50.08785833333348,
                    "velocity": 0.3700787401574803,
                    "duration": 0.1300983333333363
                },
                {
                    "name": "F4",
                    "midi": 65,
                    "time": 50.217956666666815,
                    "velocity": 0.3700787401574803,
                    "duration": 0.1300983333333363
                },
                {
                    "name": "A#3",
                    "midi": 58,
                    "time": 50.34805500000015,
                    "velocity": 0.4330708661417323,
                    "duration": 0.1300983333333363
                },
                {
                    "name": "D4",
                    "midi": 62,
                    "time": 50.47815333333349,
                    "velocity": 0.3700787401574803,
                    "duration": 0.1300983333333363
                },
                {
                    "name": "F4",
                    "midi": 65,
                    "time": 50.608251666666824,
                    "velocity": 0.30708661417322836,
                    "duration": 0.1300983333333363
                },
                {
                    "name": "B3",
                    "midi": 59,
                    "time": 50.73835000000016,
                    "velocity": 0.48031496062992124,
                    "duration": 0.1300983333333363
                },
                {
                    "name": "D4",
                    "midi": 62,
                    "time": 50.8684483333335,
                    "velocity": 0.33858267716535434,
                    "duration": 0.1300983333333363
                },
                {
                    "name": "F4",
                    "midi": 65,
                    "time": 50.99854666666683,
                    "velocity": 0.33858267716535434,
                    "duration": 0.1300983333333363
                },
                {
                    "name": "C4",
                    "midi": 60,
                    "time": 51.12864500000017,
                    "velocity": 0.41732283464566927,
                    "duration": 0.1300983333333363
                },
                {
                    "name": "D4",
                    "midi": 62,
                    "time": 51.258743333333506,
                    "velocity": 0.3464566929133858,
                    "duration": 0.1300983333333363
                },
                {
                    "name": "D#4",
                    "midi": 63,
                    "time": 51.38884166666684,
                    "velocity": 0.3464566929133858,
                    "duration": 0.1300983333333363
                },
                {
                    "name": "G#3",
                    "midi": 56,
                    "time": 51.51894000000018,
                    "velocity": 0.4330708661417323,
                    "duration": 0.39029500000000183
                },
                {
                    "name": "A#3",
                    "midi": 58,
                    "time": 52.29953000000018,
                    "velocity": 0.31496062992125984,
                    "duration": 0.7805900000000037
                },
                {
                    "name": "G4",
                    "midi": 67,
                    "time": 52.29953000000018,
                    "velocity": 0.4881889763779528,
                    "duration": 0.39029500000000183
                },
                {
                    "name": "G#4",
                    "midi": 68,
                    "time": 52.689825000000184,
                    "velocity": 0.3700787401574803,
                    "duration": 0.39029500000000183
                },
                {
                    "name": "C4",
                    "midi": 60,
                    "time": 53.080120000000186,
                    "velocity": 0.23622047244094488,
                    "duration": 1.1708849999999984
                },
                {
                    "name": "G#4",
                    "midi": 68,
                    "time": 53.080120000000186,
                    "velocity": 0.4330708661417323,
                    "duration": 0.7805899999999966
                },
                {
                    "name": "G4",
                    "midi": 67,
                    "time": 53.86071000000018,
                    "velocity": 0.29133858267716534,
                    "duration": 0.39029500000000183
                },
                {
                    "name": "D#3",
                    "midi": 51,
                    "time": 55.03159500000018,
                    "velocity": 0.4409448818897638,
                    "duration": 0.19514749999999736
                },
                {
                    "name": "C3",
                    "midi": 48,
                    "time": 55.03159500000018,
                    "velocity": 0.3700787401574803,
                    "duration": 0.19514749999999736
                },
                {
                    "name": "D#3",
                    "midi": 51,
                    "time": 55.421890000000175,
                    "velocity": 0.4566929133858268,
                    "duration": 0.19514749999999736
                },
                {
                    "name": "C3",
                    "midi": 48,
                    "time": 55.421890000000175,
                    "velocity": 0.3858267716535433,
                    "duration": 0.19514749999999736
                },
                {
                    "name": "D#3",
                    "midi": 51,
                    "time": 55.81218500000017,
                    "velocity": 0.4566929133858268,
                    "duration": 0.19514749999999736
                },
                {
                    "name": "C3",
                    "midi": 48,
                    "time": 55.81218500000017,
                    "velocity": 0.3858267716535433,
                    "duration": 0.19514749999999736
                },
                {
                    "name": "A#2",
                    "midi": 46,
                    "time": 56.59277500000017,
                    "velocity": 0.3700787401574803,
                    "duration": 0.19514749999999736
                },
                {
                    "name": "F3",
                    "midi": 53,
                    "time": 56.59277500000017,
                    "velocity": 0.4409448818897638,
                    "duration": 0.19514749999999736
                },
                {
                    "name": "D3",
                    "midi": 50,
                    "time": 56.59277500000017,
                    "velocity": 0.3700787401574803,
                    "duration": 0.19514749999999736
                },
                {
                    "name": "A#2",
                    "midi": 46,
                    "time": 56.98307000000016,
                    "velocity": 0.3858267716535433,
                    "duration": 0.19514749999999736
                },
                {
                    "name": "F3",
                    "midi": 53,
                    "time": 56.98307000000016,
                    "velocity": 0.4566929133858268,
                    "duration": 0.19514749999999736
                },
                {
                    "name": "D3",
                    "midi": 50,
                    "time": 56.98307000000016,
                    "velocity": 0.3858267716535433,
                    "duration": 0.19514749999999736
                },
                {
                    "name": "A#2",
                    "midi": 46,
                    "time": 57.373365000000156,
                    "velocity": 0.3858267716535433,
                    "duration": 0.19514749999999736
                },
                {
                    "name": "F3",
                    "midi": 53,
                    "time": 57.373365000000156,
                    "velocity": 0.4566929133858268,
                    "duration": 0.19514749999999736
                },
                {
                    "name": "D3",
                    "midi": 50,
                    "time": 57.373365000000156,
                    "velocity": 0.3858267716535433,
                    "duration": 0.19514749999999736
                },
                {
                    "name": "D#3",
                    "midi": 51,
                    "time": 57.76366000000015,
                    "velocity": 0.4409448818897638,
                    "duration": 0.39029500000000183
                },
                {
                    "name": "A#2",
                    "midi": 46,
                    "time": 58.544250000000154,
                    "velocity": 0.3700787401574803,
                    "duration": 0.39029500000000183
                },
                {
                    "name": "F3",
                    "midi": 53,
                    "time": 58.544250000000154,
                    "velocity": 0.4409448818897638,
                    "duration": 0.39029500000000183
                },
                {
                    "name": "D#3",
                    "midi": 51,
                    "time": 59.32484000000016,
                    "velocity": 0.4094488188976378,
                    "duration": 0.39029500000000183
                },
                {
                    "name": "G3",
                    "midi": 55,
                    "time": 59.32484000000016,
                    "velocity": 0.4409448818897638,
                    "duration": 0.39029500000000183
                },
                {
                    "name": "A#2",
                    "midi": 46,
                    "time": 60.10543000000016,
                    "velocity": 0.4015748031496063,
                    "duration": 0.39029500000000183
                },
                {
                    "name": "F3",
                    "midi": 53,
                    "time": 60.10543000000016,
                    "velocity": 0.48031496062992124,
                    "duration": 0.39029500000000183
                },
                {
                    "name": "D#3",
                    "midi": 51,
                    "time": 60.886020000000165,
                    "velocity": 0.44881889763779526,
                    "duration": 0.39029500000000183
                },
                {
                    "name": "G3",
                    "midi": 55,
                    "time": 60.886020000000165,
                    "velocity": 0.48031496062992124,
                    "duration": 0.39029500000000183
                },
                {
                    "name": "G#3",
                    "midi": 56,
                    "time": 62.83749500000017,
                    "velocity": 0.3858267716535433,
                    "duration": 0.39029500000000183
                },
                {
                    "name": "G#2",
                    "midi": 44,
                    "time": 62.83749500000017,
                    "velocity": 0.31496062992125984,
                    "duration": 0.39029500000000183
                },
                {
                    "name": "A#2",
                    "midi": 46,
                    "time": 63.22779000000017,
                    "velocity": 0.33858267716535434,
                    "duration": 0.39029500000000183
                },
                {
                    "name": "G3",
                    "midi": 55,
                    "time": 63.22779000000017,
                    "velocity": 0.4094488188976378,
                    "duration": 0.39029500000000183
                },
                {
                    "name": "F3",
                    "midi": 53,
                    "time": 63.61808500000017,
                    "velocity": 0.3858267716535433,
                    "duration": 0.39029500000000183
                },
                {
                    "name": "A#2",
                    "midi": 46,
                    "time": 63.61808500000017,
                    "velocity": 0.31496062992125984,
                    "duration": 0.39029500000000183
                },
                {
                    "name": "D#4",
                    "midi": 63,
                    "time": 64.00838000000017,
                    "velocity": 0.4566929133858268,
                    "duration": 0.1300983333333363
                },
                {
                    "name": "G4",
                    "midi": 67,
                    "time": 64.13847833333351,
                    "velocity": 0.4881889763779528,
                    "duration": 0.1300983333333363
                },
                {
                    "name": "F4",
                    "midi": 65,
                    "time": 64.26857666666685,
                    "velocity": 0.4015748031496063,
                    "duration": 0.1300983333333363
                },
                {
                    "name": "D#4",
                    "midi": 63,
                    "time": 64.39867500000018,
                    "velocity": 0.4566929133858268,
                    "duration": 0.1300983333333363
                },
                {
                    "name": "D4",
                    "midi": 62,
                    "time": 64.52877333333352,
                    "velocity": 0.4409448818897638,
                    "duration": 0.1300983333333363
                },
                {
                    "name": "C4",
                    "midi": 60,
                    "time": 64.65887166666685,
                    "velocity": 0.4409448818897638,
                    "duration": 0.1300983333333363
                },
                {
                    "name": "A#3",
                    "midi": 58,
                    "time": 64.78897000000019,
                    "velocity": 0.4566929133858268,
                    "duration": 0.1300983333333363
                },
                {
                    "name": "G#3",
                    "midi": 56,
                    "time": 64.91906833333353,
                    "velocity": 0.4094488188976378,
                    "duration": 0.1300983333333363
                },
                {
                    "name": "G3",
                    "midi": 55,
                    "time": 65.04916666666686,
                    "velocity": 0.4015748031496063,
                    "duration": 0.1300983333333363
                },
                {
                    "name": "F3",
                    "midi": 53,
                    "time": 65.1792650000002,
                    "velocity": 0.4566929133858268,
                    "duration": 0.1300983333333363
                },
                {
                    "name": "D#3",
                    "midi": 51,
                    "time": 65.30936333333354,
                    "velocity": 0.4094488188976378,
                    "duration": 0.1300983333333363
                },
                {
                    "name": "D3",
                    "midi": 50,
                    "time": 65.43946166666687,
                    "velocity": 0.4094488188976378,
                    "duration": 0.1300983333333363
                },
                {
                    "name": "C3",
                    "midi": 48,
                    "time": 65.56956000000021,
                    "velocity": 0.4566929133858268,
                    "duration": 0.1300983333333363
                },
                {
                    "name": "D#4",
                    "midi": 63,
                    "time": 65.69965833333355,
                    "velocity": 0.4881889763779528,
                    "duration": 0.1300983333333363
                },
                {
                    "name": "D4",
                    "midi": 62,
                    "time": 65.82975666666688,
                    "velocity": 0.4015748031496063,
                    "duration": 0.1300983333333363
                },
                {
                    "name": "C4",
                    "midi": 60,
                    "time": 65.95985500000022,
                    "velocity": 0.4566929133858268,
                    "duration": 0.1300983333333363
                },
                {
                    "name": "A#3",
                    "midi": 58,
                    "time": 66.08995333333355,
                    "velocity": 0.4409448818897638,
                    "duration": 0.1300983333333363
                },
                {
                    "name": "G#3",
                    "midi": 56,
                    "time": 66.22005166666689,
                    "velocity": 0.4409448818897638,
                    "duration": 0.1300983333333363
                },
                {
                    "name": "G3",
                    "midi": 55,
                    "time": 66.35015000000023,
                    "velocity": 0.4566929133858268,
                    "duration": 0.1300983333333363
                },
                {
                    "name": "F3",
                    "midi": 53,
                    "time": 66.48024833333356,
                    "velocity": 0.4094488188976378,
                    "duration": 0.1300983333333363
                },
                {
                    "name": "D#3",
                    "midi": 51,
                    "time": 66.6103466666669,
                    "velocity": 0.4015748031496063,
                    "duration": 0.1300983333333363
                },
                {
                    "name": "D3",
                    "midi": 50,
                    "time": 66.74044500000024,
                    "velocity": 0.4566929133858268,
                    "duration": 0.1300983333333363
                },
                {
                    "name": "C3",
                    "midi": 48,
                    "time": 66.87054333333357,
                    "velocity": 0.4094488188976378,
                    "duration": 0.1300983333333363
                },
                {
                    "name": "A#2",
                    "midi": 46,
                    "time": 67.00064166666691,
                    "velocity": 0.4094488188976378,
                    "duration": 0.1300983333333363
                },
                {
                    "name": "G#2",
                    "midi": 44,
                    "time": 67.13074000000024,
                    "velocity": 0.4566929133858268,
                    "duration": 0.7805900000000037
                },
                {
                    "name": "A#2",
                    "midi": 46,
                    "time": 67.91133000000025,
                    "velocity": 0.4015748031496063,
                    "duration": 0.39029499999999473
                },
                {
                    "name": "A#2",
                    "midi": 46,
                    "time": 68.30162500000024,
                    "velocity": 0.3937007874015748,
                    "duration": 0.39029499999999473
                },
                {
                    "name": "D#4",
                    "midi": 63,
                    "time": 68.69192000000024,
                    "velocity": 0.3937007874015748,
                    "duration": 0.1300983333333363
                },
                {
                    "name": "G4",
                    "midi": 67,
                    "time": 68.82201833333357,
                    "velocity": 0.41732283464566927,
                    "duration": 0.1300983333333363
                },
                {
                    "name": "F4",
                    "midi": 65,
                    "time": 68.95211666666691,
                    "velocity": 0.3700787401574803,
                    "duration": 0.1300983333333363
                },
                {
                    "name": "D#4",
                    "midi": 63,
                    "time": 69.08221500000025,
                    "velocity": 0.4251968503937008,
                    "duration": 0.1300983333333363
                },
                {
                    "name": "D4",
                    "midi": 62,
                    "time": 69.21231333333358,
                    "velocity": 0.4015748031496063,
                    "duration": 0.1300983333333363
                },
                {
                    "name": "C4",
                    "midi": 60,
                    "time": 69.34241166666692,
                    "velocity": 0.4015748031496063,
                    "duration": 0.1300983333333363
                },
                {
                    "name": "A#3",
                    "midi": 58,
                    "time": 69.47251000000026,
                    "velocity": 0.4566929133858268,
                    "duration": 0.1300983333333363
                },
                {
                    "name": "G#3",
                    "midi": 56,
                    "time": 69.60260833333359,
                    "velocity": 0.4094488188976378,
                    "duration": 0.1300983333333363
                },
                {
                    "name": "G3",
                    "midi": 55,
                    "time": 69.73270666666693,
                    "velocity": 0.4015748031496063,
                    "duration": 0.1300983333333363
                },
                {
                    "name": "F3",
                    "midi": 53,
                    "time": 69.86280500000026,
                    "velocity": 0.4566929133858268,
                    "duration": 0.1300983333333363
                },
                {
                    "name": "D#3",
                    "midi": 51,
                    "time": 69.9929033333336,
                    "velocity": 0.4094488188976378,
                    "duration": 0.1300983333333363
                },
                {
                    "name": "D3",
                    "midi": 50,
                    "time": 70.12300166666694,
                    "velocity": 0.4094488188976378,
                    "duration": 0.1300983333333363
                },
                {
                    "name": "C3",
                    "midi": 48,
                    "time": 70.25310000000027,
                    "velocity": 0.4566929133858268,
                    "duration": 0.1300983333333363
                },
                {
                    "name": "D#4",
                    "midi": 63,
                    "time": 70.38319833333361,
                    "velocity": 0.4881889763779528,
                    "duration": 0.1300983333333363
                },
                {
                    "name": "D4",
                    "midi": 62,
                    "time": 70.51329666666695,
                    "velocity": 0.4015748031496063,
                    "duration": 0.1300983333333363
                },
                {
                    "name": "C4",
                    "midi": 60,
                    "time": 70.64339500000028,
                    "velocity": 0.4566929133858268,
                    "duration": 0.1300983333333363
                },
                {
                    "name": "A#3",
                    "midi": 58,
                    "time": 70.77349333333362,
                    "velocity": 0.4409448818897638,
                    "duration": 0.1300983333333363
                },
                {
                    "name": "G#3",
                    "midi": 56,
                    "time": 70.90359166666696,
                    "velocity": 0.4409448818897638,
                    "duration": 0.1300983333333363
                },
                {
                    "name": "G3",
                    "midi": 55,
                    "time": 71.03369000000029,
                    "velocity": 0.4566929133858268,
                    "duration": 0.1300983333333363
                },
                {
                    "name": "F3",
                    "midi": 53,
                    "time": 71.16378833333363,
                    "velocity": 0.4094488188976378,
                    "duration": 0.1300983333333363
                },
                {
                    "name": "D#3",
                    "midi": 51,
                    "time": 71.29388666666696,
                    "velocity": 0.4015748031496063,
                    "duration": 0.1300983333333363
                },
                {
                    "name": "D3",
                    "midi": 50,
                    "time": 71.4239850000003,
                    "velocity": 0.4566929133858268,
                    "duration": 0.1300983333333363
                },
                {
                    "name": "C3",
                    "midi": 48,
                    "time": 71.55408333333364,
                    "velocity": 0.4094488188976378,
                    "duration": 0.1300983333333363
                },
                {
                    "name": "A#2",
                    "midi": 46,
                    "time": 71.68418166666697,
                    "velocity": 0.4094488188976378,
                    "duration": 0.1300983333333363
                },
                {
                    "name": "G#2",
                    "midi": 44,
                    "time": 71.81428000000031,
                    "velocity": 0.4566929133858268,
                    "duration": 0.7805900000000037
                },
                {
                    "name": "A#2",
                    "midi": 46,
                    "time": 72.59487000000031,
                    "velocity": 0.4015748031496063,
                    "duration": 0.39029499999999473
                },
                {
                    "name": "A#2",
                    "midi": 46,
                    "time": 72.98516500000031,
                    "velocity": 0.3937007874015748,
                    "duration": 0.39029499999999473
                },
                {
                    "name": "D#4",
                    "midi": 63,
                    "time": 73.3754600000003,
                    "velocity": 0.28346456692913385,
                    "duration": 0.1300983333333363
                },
                {
                    "name": "G4",
                    "midi": 67,
                    "time": 73.50555833333364,
                    "velocity": 0.2440944881889764,
                    "duration": 0.1300983333333363
                },
                {
                    "name": "A#4",
                    "midi": 70,
                    "time": 73.63565666666697,
                    "velocity": 0.2440944881889764,
                    "duration": 0.1300983333333363
                },
                {
                    "name": "D#4",
                    "midi": 63,
                    "time": 73.76575500000031,
                    "velocity": 0.28346456692913385,
                    "duration": 0.1300983333333363
                },
                {
                    "name": "G4",
                    "midi": 67,
                    "time": 73.89585333333365,
                    "velocity": 0.25196850393700787,
                    "duration": 0.1300983333333363
                },
                {
                    "name": "A#4",
                    "midi": 70,
                    "time": 74.02595166666698,
                    "velocity": 0.25196850393700787,
                    "duration": 0.1300983333333363
                },
                {
                    "name": "D#4",
                    "midi": 63,
                    "time": 74.15605000000032,
                    "velocity": 0.28346456692913385,
                    "duration": 0.1300983333333363
                },
                {
                    "name": "G4",
                    "midi": 67,
                    "time": 74.28614833333366,
                    "velocity": 0.2440944881889764,
                    "duration": 0.1300983333333363
                },
                {
                    "name": "A#4",
                    "midi": 70,
                    "time": 74.41624666666699,
                    "velocity": 0.2440944881889764,
                    "duration": 0.1300983333333363
                },
                {
                    "name": "D#4",
                    "midi": 63,
                    "time": 74.54634500000033,
                    "velocity": 0.29133858267716534,
                    "duration": 0.1300983333333363
                },
                {
                    "name": "G#4",
                    "midi": 68,
                    "time": 74.67644333333367,
                    "velocity": 0.25196850393700787,
                    "duration": 0.1300983333333363
                },
                {
                    "name": "D5",
                    "midi": 74,
                    "time": 74.806541666667,
                    "velocity": 0.25196850393700787,
                    "duration": 0.1300983333333363
                },
                {
                    "name": "D#4",
                    "midi": 63,
                    "time": 74.93664000000034,
                    "velocity": 0.28346456692913385,
                    "duration": 0.1300983333333363
                },
                {
                    "name": "G4",
                    "midi": 67,
                    "time": 75.06673833333367,
                    "velocity": 0.2440944881889764,
                    "duration": 0.1300983333333363
                },
                {
                    "name": "A#4",
                    "midi": 70,
                    "time": 75.19683666666701,
                    "velocity": 0.23622047244094488,
                    "duration": 0.1300983333333363
                },
                {
                    "name": "D#4",
                    "midi": 63,
                    "time": 75.32693500000035,
                    "velocity": 0.2755905511811024,
                    "duration": 0.1300983333333363
                },
                {
                    "name": "G4",
                    "midi": 67,
                    "time": 75.45703333333368,
                    "velocity": 0.2440944881889764,
                    "duration": 0.1300983333333363
                },
                {
                    "name": "A#4",
                    "midi": 70,
                    "time": 75.58713166666702,
                    "velocity": 0.2440944881889764,
                    "duration": 0.1300983333333363
                },
                {
                    "name": "D#4",
                    "midi": 63,
                    "time": 75.71723000000036,
                    "velocity": 0.2755905511811024,
                    "duration": 0.1300983333333363
                },
                {
                    "name": "G4",
                    "midi": 67,
                    "time": 75.84732833333369,
                    "velocity": 0.23622047244094488,
                    "duration": 0.1300983333333363
                },
                {
                    "name": "A#4",
                    "midi": 70,
                    "time": 75.97742666666703,
                    "velocity": 0.23622047244094488,
                    "duration": 0.1300983333333363
                },
                {
                    "name": "D#4",
                    "midi": 63,
                    "time": 76.10752500000036,
                    "velocity": 0.28346456692913385,
                    "duration": 0.1300983333333363
                },
                {
                    "name": "G#4",
                    "midi": 68,
                    "time": 76.2376233333337,
                    "velocity": 0.2440944881889764,
                    "duration": 0.1300983333333363
                },
                {
                    "name": "D5",
                    "midi": 74,
                    "time": 76.36772166666704,
                    "velocity": 0.2440944881889764,
                    "duration": 0.1300983333333363
                },
                {
                    "name": "D#4",
                    "midi": 63,
                    "time": 76.49782000000037,
                    "velocity": 0.2677165354330709,
                    "duration": 0.1300983333333363
                },
                {
                    "name": "G4",
                    "midi": 67,
                    "time": 76.62791833333371,
                    "velocity": 0.23622047244094488,
                    "duration": 0.1300983333333363
                },
                {
                    "name": "A#4",
                    "midi": 70,
                    "time": 76.75801666666705,
                    "velocity": 0.23622047244094488,
                    "duration": 0.1300983333333363
                },
                {
                    "name": "D#4",
                    "midi": 63,
                    "time": 76.88811500000038,
                    "velocity": 0.2677165354330709,
                    "duration": 0.1300983333333363
                },
                {
                    "name": "G4",
                    "midi": 67,
                    "time": 77.01821333333372,
                    "velocity": 0.2440944881889764,
                    "duration": 0.1300983333333363
                },
                {
                    "name": "A#4",
                    "midi": 70,
                    "time": 77.14831166666706,
                    "velocity": 0.23622047244094488,
                    "duration": 0.1300983333333363
                },
                {
                    "name": "D#4",
                    "midi": 63,
                    "time": 77.27841000000039,
                    "velocity": 0.2677165354330709,
                    "duration": 0.1300983333333363
                },
                {
                    "name": "G4",
                    "midi": 67,
                    "time": 77.40850833333373,
                    "velocity": 0.2283464566929134,
                    "duration": 0.1300983333333363
                },
                {
                    "name": "A#4",
                    "midi": 70,
                    "time": 77.53860666666706,
                    "velocity": 0.2283464566929134,
                    "duration": 0.1300983333333363
                },
                {
                    "name": "D#4",
                    "midi": 63,
                    "time": 77.6687050000004,
                    "velocity": 0.2755905511811024,
                    "duration": 0.1300983333333363
                },
                {
                    "name": "G#4",
                    "midi": 68,
                    "time": 77.79880333333374,
                    "velocity": 0.23622047244094488,
                    "duration": 0.1300983333333363
                },
                {
                    "name": "D5",
                    "midi": 74,
                    "time": 77.92890166666707,
                    "velocity": 0.23622047244094488,
                    "duration": 0.1300983333333363
                },
                {
                    "name": "D#4",
                    "midi": 63,
                    "time": 78.05900000000041,
                    "velocity": 0.2677165354330709,
                    "duration": 0.1300983333333363
                },
                {
                    "name": "G4",
                    "midi": 67,
                    "time": 78.18909833333375,
                    "velocity": 0.2283464566929134,
                    "duration": 0.1300983333333363
                },
                {
                    "name": "A#4",
                    "midi": 70,
                    "time": 78.31919666666708,
                    "velocity": 0.2283464566929134,
                    "duration": 0.1300983333333363
                },
                {
                    "name": "D#4",
                    "midi": 63,
                    "time": 78.44929500000042,
                    "velocity": 0.2677165354330709,
                    "duration": 0.1300983333333363
                },
                {
                    "name": "G4",
                    "midi": 67,
                    "time": 78.57939333333375,
                    "velocity": 0.23622047244094488,
                    "duration": 0.1300983333333363
                },
                {
                    "name": "A#4",
                    "midi": 70,
                    "time": 78.70949166666709,
                    "velocity": 0.23622047244094488,
                    "duration": 0.1300983333333363
                },
                {
                    "name": "D#4",
                    "midi": 63,
                    "time": 78.83959000000043,
                    "velocity": 0.25984251968503935,
                    "duration": 0.1300983333333363
                },
                {
                    "name": "G4",
                    "midi": 67,
                    "time": 78.96968833333376,
                    "velocity": 0.2283464566929134,
                    "duration": 0.1300983333333363
                },
                {
                    "name": "A#4",
                    "midi": 70,
                    "time": 79.0997866666671,
                    "velocity": 0.2283464566929134,
                    "duration": 0.1300983333333363
                },
                {
                    "name": "D#4",
                    "midi": 63,
                    "time": 79.22988500000044,
                    "velocity": 0.2677165354330709,
                    "duration": 0.1300983333333363
                },
                {
                    "name": "G#4",
                    "midi": 68,
                    "time": 79.35998333333377,
                    "velocity": 0.2283464566929134,
                    "duration": 0.1300983333333363
                },
                {
                    "name": "D5",
                    "midi": 74,
                    "time": 79.49008166666711,
                    "velocity": 0.2283464566929134,
                    "duration": 0.1300983333333363
                },
                {
                    "name": "D#4",
                    "midi": 63,
                    "time": 79.62018000000045,
                    "velocity": 0.25984251968503935,
                    "duration": 0.1300983333333363
                },
                {
                    "name": "G4",
                    "midi": 67,
                    "time": 79.75027833333378,
                    "velocity": 0.2204724409448819,
                    "duration": 0.1300983333333363
                },
                {
                    "name": "A#4",
                    "midi": 70,
                    "time": 79.88037666666712,
                    "velocity": 0.2204724409448819,
                    "duration": 0.1300983333333363
                },
                {
                    "name": "D#4",
                    "midi": 63,
                    "time": 80.01047500000045,
                    "velocity": 0.25984251968503935,
                    "duration": 0.1300983333333363
                },
                {
                    "name": "G4",
                    "midi": 67,
                    "time": 80.14057333333379,
                    "velocity": 0.2283464566929134,
                    "duration": 0.1300983333333363
                },
                {
                    "name": "A#4",
                    "midi": 70,
                    "time": 80.27067166666713,
                    "velocity": 0.2283464566929134,
                    "duration": 0.1300983333333363
                },
                {
                    "name": "D#4",
                    "midi": 63,
                    "time": 80.40077000000046,
                    "velocity": 0.25984251968503935,
                    "duration": 0.1300983333333363
                },
                {
                    "name": "G4",
                    "midi": 67,
                    "time": 80.5308683333338,
                    "velocity": 0.2204724409448819,
                    "duration": 0.1300983333333363
                },
                {
                    "name": "A#4",
                    "midi": 70,
                    "time": 80.66096666666714,
                    "velocity": 0.2204724409448819,
                    "duration": 0.1300983333333363
                },
                {
                    "name": "D#4",
                    "midi": 63,
                    "time": 80.79106500000047,
                    "velocity": 0.25984251968503935,
                    "duration": 0.1300983333333363
                },
                {
                    "name": "G#4",
                    "midi": 68,
                    "time": 80.92116333333381,
                    "velocity": 0.2283464566929134,
                    "duration": 0.1300983333333363
                },
                {
                    "name": "D5",
                    "midi": 74,
                    "time": 81.05126166666714,
                    "velocity": 0.2283464566929134,
                    "duration": 0.1300983333333363
                },
                {
                    "name": "D#4",
                    "midi": 63,
                    "time": 81.18136000000048,
                    "velocity": 0.25196850393700787,
                    "duration": 0.1300983333333363
                },
                {
                    "name": "G4",
                    "midi": 67,
                    "time": 81.31145833333382,
                    "velocity": 0.2125984251968504,
                    "duration": 0.1300983333333363
                },
                {
                    "name": "A#4",
                    "midi": 70,
                    "time": 81.44155666666715,
                    "velocity": 0.2125984251968504,
                    "duration": 0.1300983333333363
                },
                {
                    "name": "D#4",
                    "midi": 63,
                    "time": 81.57165500000049,
                    "velocity": 0.25196850393700787,
                    "duration": 0.1300983333333363
                },
                {
                    "name": "G4",
                    "midi": 67,
                    "time": 81.70175333333383,
                    "velocity": 0.2204724409448819,
                    "duration": 0.1300983333333363
                },
                {
                    "name": "A#4",
                    "midi": 70,
                    "time": 81.83185166666716,
                    "velocity": 0.2204724409448819,
                    "duration": 0.1300983333333363
                },
                {
                    "name": "D#4",
                    "midi": 63,
                    "time": 81.9619500000005,
                    "velocity": 0.25196850393700787,
                    "duration": 0.1300983333333363
                },
                {
                    "name": "G4",
                    "midi": 67,
                    "time": 82.09204833333384,
                    "velocity": 0.2125984251968504,
                    "duration": 0.1300983333333363
                },
                {
                    "name": "A#4",
                    "midi": 70,
                    "time": 82.22214666666717,
                    "velocity": 0.2125984251968504,
                    "duration": 0.1300983333333363
                },
                {
                    "name": "D#4",
                    "midi": 63,
                    "time": 82.35224500000051,
                    "velocity": 0.25196850393700787,
                    "duration": 0.1300983333333363
                },
                {
                    "name": "G#4",
                    "midi": 68,
                    "time": 82.48234333333384,
                    "velocity": 0.2204724409448819,
                    "duration": 0.1300983333333363
                },
                {
                    "name": "D5",
                    "midi": 74,
                    "time": 82.61244166666718,
                    "velocity": 0.2204724409448819,
                    "duration": 0.1300983333333363
                },
                {
                    "name": "D#4",
                    "midi": 63,
                    "time": 82.74254000000052,
                    "velocity": 0.2440944881889764,
                    "duration": 0.1300983333333363
                },
                {
                    "name": "G4",
                    "midi": 67,
                    "time": 82.87263833333385,
                    "velocity": 0.2047244094488189,
                    "duration": 0.1300983333333363
                },
                {
                    "name": "A#4",
                    "midi": 70,
                    "time": 83.00273666666719,
                    "velocity": 0.2047244094488189,
                    "duration": 0.1300983333333363
                },
                {
                    "name": "D#4",
                    "midi": 63,
                    "time": 83.13283500000053,
                    "velocity": 0.2283464566929134,
                    "duration": 0.1300983333333363
                },
                {
                    "name": "G4",
                    "midi": 67,
                    "time": 83.26293333333386,
                    "velocity": 0.2047244094488189,
                    "duration": 0.1300983333333363
                },
                {
                    "name": "A#4",
                    "midi": 70,
                    "time": 83.3930316666672,
                    "velocity": 0.1968503937007874,
                    "duration": 0.1300983333333363
                },
                {
                    "name": "D#4",
                    "midi": 63,
                    "time": 83.52313000000053,
                    "velocity": 0.2125984251968504,
                    "duration": 0.1300983333333363
                },
                {
                    "name": "G4",
                    "midi": 67,
                    "time": 83.65322833333387,
                    "velocity": 0.18110236220472442,
                    "duration": 0.1300983333333363
                },
                {
                    "name": "A#4",
                    "midi": 70,
                    "time": 83.78332666666721,
                    "velocity": 0.1732283464566929,
                    "duration": 0.1300983333333363
                },
                {
                    "name": "D#4",
                    "midi": 63,
                    "time": 83.91342500000054,
                    "velocity": 0.2047244094488189,
                    "duration": 0.1300983333333363
                },
                {
                    "name": "G#4",
                    "midi": 68,
                    "time": 84.04352333333388,
                    "velocity": 0.1732283464566929,
                    "duration": 0.1300983333333363
                },
                {
                    "name": "D5",
                    "midi": 74,
                    "time": 84.17362166666722,
                    "velocity": 0.1732283464566929,
                    "duration": 0.1300983333333363
                },
                {
                    "name": "G4",
                    "midi": 67,
                    "time": 84.30372000000055,
                    "velocity": 0.23622047244094488,
                    "duration": 0.39029499999999473
                },
                {
                    "name": "D#4",
                    "midi": 63,
                    "time": 84.30372000000055,
                    "velocity": 0.23622047244094488,
                    "duration": 0.39029499999999473
                },
                {
                    "name": "D#2",
                    "midi": 39,
                    "time": 85.47460500000055,
                    "velocity": 0.1889763779527559,
                    "duration": 0.39029499999999473
                },
                {
                    "name": "G2",
                    "midi": 43,
                    "time": 85.47460500000055,
                    "velocity": 0.2283464566929134,
                    "duration": 0.39029499999999473
                },
                {
                    "name": "D#2",
                    "midi": 39,
                    "time": 85.86490000000055,
                    "velocity": 0.1889763779527559,
                    "duration": 0.39029499999999473
                },
                {
                    "name": "G2",
                    "midi": 43,
                    "time": 85.86490000000055,
                    "velocity": 0.2283464566929134,
                    "duration": 0.39029499999999473
                },
                {
                    "name": "G#2",
                    "midi": 44,
                    "time": 87.42608000000054,
                    "velocity": 0.3858267716535433,
                    "duration": 0.39029499999999473
                },
                {
                    "name": "G#3",
                    "midi": 56,
                    "time": 87.42608000000054,
                    "velocity": 0.4566929133858268,
                    "duration": 0.39029499999999473
                },
                {
                    "name": "G2",
                    "midi": 43,
                    "time": 88.20667000000053,
                    "velocity": 0.3858267716535433,
                    "duration": 0.39029499999999473
                },
                {
                    "name": "G3",
                    "midi": 55,
                    "time": 88.20667000000053,
                    "velocity": 0.4566929133858268,
                    "duration": 0.39029499999999473
                },
                {
                    "name": "G#2",
                    "midi": 44,
                    "time": 89.37755500000053,
                    "velocity": 0.3700787401574803,
                    "duration": 0.39029499999999473
                },
                {
                    "name": "G#3",
                    "midi": 56,
                    "time": 89.76785000000052,
                    "velocity": 0.4566929133858268,
                    "duration": 0.1463606249999998
                },
                {
                    "name": "A#3",
                    "midi": 58,
                    "time": 90.93873500000052,
                    "velocity": 0.2440944881889764,
                    "duration": 0.39029499999999473
                },
                {
                    "name": "G3",
                    "midi": 55,
                    "time": 91.32903000000051,
                    "velocity": 0.30708661417322836,
                    "duration": 0.1463606249999998
                },
                {
                    "name": "G#3",
                    "midi": 56,
                    "time": 92.49991500000051,
                    "velocity": 0.3700787401574803,
                    "duration": 0.39029499999999473
                },
                {
                    "name": "G#2",
                    "midi": 44,
                    "time": 92.89021000000051,
                    "velocity": 0.4566929133858268,
                    "duration": 0.1463606249999998
                },
                {
                    "name": "C3",
                    "midi": 48,
                    "time": 93.2805050000005,
                    "velocity": 0.4094488188976378,
                    "duration": 0.39029499999999473
                },
                {
                    "name": "C#3",
                    "midi": 49,
                    "time": 93.6708000000005,
                    "velocity": 0.4566929133858268,
                    "duration": 0.7805900000000037
                },
                {
                    "name": "D#3",
                    "midi": 51,
                    "time": 94.8416850000005,
                    "velocity": 0.4094488188976378,
                    "duration": 0.39029499999999473
                },
                {
                    "name": "G#2",
                    "midi": 44,
                    "time": 95.52470125000049,
                    "velocity": 0.3700787401574803,
                    "duration": 0.09757374999999513
                },
                {
                    "name": "C3",
                    "midi": 48,
                    "time": 95.62227500000049,
                    "velocity": 0.4566929133858268,
                    "duration": 0.2927212499999996
                },
                {
                    "name": "D#3",
                    "midi": 51,
                    "time": 95.91499625000048,
                    "velocity": 0.4094488188976378,
                    "duration": 0.09757374999999513
                },
                {
                    "name": "G#3",
                    "midi": 56,
                    "time": 96.01257000000048,
                    "velocity": 0.4645669291338583,
                    "duration": 0.2927212499999996
                },
                {
                    "name": "G#3",
                    "midi": 56,
                    "time": 96.79316000000048,
                    "velocity": 0.3858267716535433,
                    "duration": 0.39029499999999473
                },
                {
                    "name": "C4",
                    "midi": 60,
                    "time": 96.79316000000048,
                    "velocity": 0.4566929133858268,
                    "duration": 0.39029499999999473
                },
                {
                    "name": "G3",
                    "midi": 55,
                    "time": 97.57375000000047,
                    "velocity": 0.3858267716535433,
                    "duration": 0.39029499999999473
                },
                {
                    "name": "A#3",
                    "midi": 58,
                    "time": 97.57375000000047,
                    "velocity": 0.4566929133858268,
                    "duration": 0.39029499999999473
                },
                {
                    "name": "G#2",
                    "midi": 44,
                    "time": 98.74463500000047,
                    "velocity": 0.3700787401574803,
                    "duration": 0.39029499999999473
                },
                {
                    "name": "G#3",
                    "midi": 56,
                    "time": 99.13493000000047,
                    "velocity": 0.4566929133858268,
                    "duration": 0.39029499999999473
                },
                {
                    "name": "C4",
                    "midi": 60,
                    "time": 99.52522500000046,
                    "velocity": 0.4566929133858268,
                    "duration": 0.39029499999999473
                },
                {
                    "name": "C#4",
                    "midi": 61,
                    "time": 100.30581500000045,
                    "velocity": 0.4566929133858268,
                    "duration": 0.09757374999999513
                },
                {
                    "name": "C4",
                    "midi": 60,
                    "time": 101.08640500000044,
                    "velocity": 0.4566929133858268,
                    "duration": 0.09757374999999513
                },
                {
                    "name": "A#3",
                    "midi": 58,
                    "time": 101.86699500000043,
                    "velocity": 0.4566929133858268,
                    "duration": 0.09757374999999513
                },
                {
                    "name": "G#3",
                    "midi": 56,
                    "time": 102.64758500000042,
                    "velocity": 0.4566929133858268,
                    "duration": 0.09757374999999513
                },
                {
                    "name": "C#4",
                    "midi": 61,
                    "time": 103.42817500000041,
                    "velocity": 0.3858267716535433,
                    "duration": 0.39029499999999473
                },
                {
                    "name": "C#3",
                    "midi": 49,
                    "time": 103.42817500000041,
                    "velocity": 0.3858267716535433,
                    "duration": 0.39029499999999473
                },
                {
                    "name": "D#3",
                    "midi": 51,
                    "time": 103.8184700000004,
                    "velocity": 0.4566929133858268,
                    "duration": 0.7805899999999895
                },
                {
                    "name": "C4",
                    "midi": 60,
                    "time": 103.8184700000004,
                    "velocity": 0.4566929133858268,
                    "duration": 0.39029499999999473
                },
                {
                    "name": "A#3",
                    "midi": 58,
                    "time": 104.2087650000004,
                    "velocity": 0.4330708661417323,
                    "duration": 0.39029499999999473
                },
                {
                    "name": "G#3",
                    "midi": 56,
                    "time": 104.59906000000039,
                    "velocity": 0.4330708661417323,
                    "duration": 0.1300983333333363
                },
                {
                    "name": "C4",
                    "midi": 60,
                    "time": 104.72915833333373,
                    "velocity": 0.3700787401574803,
                    "duration": 0.1300983333333363
                },
                {
                    "name": "D#4",
                    "midi": 63,
                    "time": 104.85925666666706,
                    "velocity": 0.3700787401574803,
                    "duration": 0.1300983333333363
                },
                {
                    "name": "G#3",
                    "midi": 56,
                    "time": 104.9893550000004,
                    "velocity": 0.4330708661417323,
                    "duration": 0.1300983333333363
                },
                {
                    "name": "C4",
                    "midi": 60,
                    "time": 105.11945333333374,
                    "velocity": 0.3700787401574803,
                    "duration": 0.1300983333333363
                },
                {
                    "name": "D#4",
                    "midi": 63,
                    "time": 105.24955166666707,
                    "velocity": 0.3858267716535433,
                    "duration": 0.1300983333333363
                },
                {
                    "name": "G#3",
                    "midi": 56,
                    "time": 105.37965000000041,
                    "velocity": 0.4330708661417323,
                    "duration": 0.1300983333333363
                },
                {
                    "name": "C4",
                    "midi": 60,
                    "time": 105.50974833333375,
                    "velocity": 0.3937007874015748,
                    "duration": 0.1300983333333363
                },
                {
                    "name": "D#4",
                    "midi": 63,
                    "time": 105.63984666666708,
                    "velocity": 0.3937007874015748,
                    "duration": 0.1300983333333363
                },
                {
                    "name": "G3",
                    "midi": 55,
                    "time": 105.76994500000042,
                    "velocity": 0.4330708661417323,
                    "duration": 0.1300983333333363
                },
                {
                    "name": "A#3",
                    "midi": 58,
                    "time": 105.90004333333376,
                    "velocity": 0.4094488188976378,
                    "duration": 0.1300983333333363
                },
                {
                    "name": "D#4",
                    "midi": 63,
                    "time": 106.03014166666709,
                    "velocity": 0.4094488188976378,
                    "duration": 0.1300983333333363
                },
                {
                    "name": "G#3",
                    "midi": 56,
                    "time": 106.16024000000043,
                    "velocity": 0.4330708661417323,
                    "duration": 0.1300983333333363
                },
                {
                    "name": "C4",
                    "midi": 60,
                    "time": 106.29033833333376,
                    "velocity": 0.3700787401574803,
                    "duration": 0.1300983333333363
                },
                {
                    "name": "D#4",
                    "midi": 63,
                    "time": 106.4204366666671,
                    "velocity": 0.3700787401574803,
                    "duration": 0.1300983333333363
                },
                {
                    "name": "G#3",
                    "midi": 56,
                    "time": 106.55053500000044,
                    "velocity": 0.4330708661417323,
                    "duration": 0.1300983333333363
                },
                {
                    "name": "C4",
                    "midi": 60,
                    "time": 106.68063333333377,
                    "velocity": 0.3700787401574803,
                    "duration": 0.1300983333333363
                },
                {
                    "name": "D#4",
                    "midi": 63,
                    "time": 106.81073166666711,
                    "velocity": 0.29133858267716534,
                    "duration": 0.1300983333333363
                },
                {
                    "name": "G#3",
                    "midi": 56,
                    "time": 106.94083000000045,
                    "velocity": 0.3937007874015748,
                    "duration": 0.1300983333333363
                },
                {
                    "name": "C4",
                    "midi": 60,
                    "time": 107.07092833333378,
                    "velocity": 0.3228346456692913,
                    "duration": 0.1300983333333363
                },
                {
                    "name": "D#4",
                    "midi": 63,
                    "time": 107.20102666666712,
                    "velocity": 0.3228346456692913,
                    "duration": 0.1300983333333363
                },
                {
                    "name": "G#3",
                    "midi": 56,
                    "time": 107.33112500000045,
                    "velocity": 0.3937007874015748,
                    "duration": 0.1300983333333363
                },
                {
                    "name": "C4",
                    "midi": 60,
                    "time": 107.46122333333379,
                    "velocity": 0.36220472440944884,
                    "duration": 0.1300983333333363
                },
                {
                    "name": "D#4",
                    "midi": 63,
                    "time": 107.59132166666713,
                    "velocity": 0.36220472440944884,
                    "duration": 0.1300983333333363
                },
                {
                    "name": "G#3",
                    "midi": 56,
                    "time": 107.72142000000046,
                    "velocity": 0.4330708661417323,
                    "duration": 0.1300983333333363
                },
                {
                    "name": "C4",
                    "midi": 60,
                    "time": 107.8515183333338,
                    "velocity": 0.3700787401574803,
                    "duration": 0.1300983333333363
                },
                {
                    "name": "D#4",
                    "midi": 63,
                    "time": 107.98161666666714,
                    "velocity": 0.3700787401574803,
                    "duration": 0.1300983333333363
                },
                {
                    "name": "G#3",
                    "midi": 56,
                    "time": 108.11171500000047,
                    "velocity": 0.4330708661417323,
                    "duration": 0.1300983333333363
                },
                {
                    "name": "C4",
                    "midi": 60,
                    "time": 108.24181333333381,
                    "velocity": 0.3700787401574803,
                    "duration": 0.1300983333333363
                },
                {
                    "name": "D#4",
                    "midi": 63,
                    "time": 108.37191166666715,
                    "velocity": 0.3858267716535433,
                    "duration": 0.1300983333333363
                },
                {
                    "name": "G#3",
                    "midi": 56,
                    "time": 108.50201000000048,
                    "velocity": 0.4330708661417323,
                    "duration": 0.1300983333333363
                },
                {
                    "name": "C4",
                    "midi": 60,
                    "time": 108.63210833333382,
                    "velocity": 0.3937007874015748,
                    "duration": 0.1300983333333363
                },
                {
                    "name": "D#4",
                    "midi": 63,
                    "time": 108.76220666666715,
                    "velocity": 0.3937007874015748,
                    "duration": 0.1300983333333363
                },
                {
                    "name": "A#3",
                    "midi": 58,
                    "time": 108.89230500000049,
                    "velocity": 0.4330708661417323,
                    "duration": 0.1300983333333363
                },
                {
                    "name": "C#4",
                    "midi": 61,
                    "time": 109.02240333333383,
                    "velocity": 0.4094488188976378,
                    "duration": 0.1300983333333363
                },
                {
                    "name": "G4",
                    "midi": 67,
                    "time": 109.15250166666716,
                    "velocity": 0.4094488188976378,
                    "duration": 0.1300983333333363
                },
                {
                    "name": "C4",
                    "midi": 60,
                    "time": 109.2826000000005,
                    "velocity": 0.4330708661417323,
                    "duration": 0.1300983333333363
                },
                {
                    "name": "D#4",
                    "midi": 63,
                    "time": 109.41269833333384,
                    "velocity": 0.3700787401574803,
                    "duration": 0.1300983333333363
                },
                {
                    "name": "G#4",
                    "midi": 68,
                    "time": 109.54279666666717,
                    "velocity": 0.3700787401574803,
                    "duration": 0.1300983333333363
                },
                {
                    "name": "C4",
                    "midi": 60,
                    "time": 109.67289500000051,
                    "velocity": 0.4330708661417323,
                    "duration": 0.1300983333333363
                },
                {
                    "name": "D#4",
                    "midi": 63,
                    "time": 109.80299333333384,
                    "velocity": 0.3700787401574803,
                    "duration": 0.1300983333333363
                },
                {
                    "name": "G#4",
                    "midi": 68,
                    "time": 109.93309166666718,
                    "velocity": 0.30708661417322836,
                    "duration": 0.1300983333333363
                },
                {
                    "name": "C4",
                    "midi": 60,
                    "time": 110.06319000000052,
                    "velocity": 0.4094488188976378,
                    "duration": 0.1300983333333363
                },
                {
                    "name": "D#4",
                    "midi": 63,
                    "time": 110.19328833333385,
                    "velocity": 0.33858267716535434,
                    "duration": 0.1300983333333363
                },
                {
                    "name": "G#4",
                    "midi": 68,
                    "time": 110.32338666666719,
                    "velocity": 0.33858267716535434,
                    "duration": 0.1300983333333363
                },
                {
                    "name": "C4",
                    "midi": 60,
                    "time": 110.45348500000053,
                    "velocity": 0.41732283464566927,
                    "duration": 0.1300983333333363
                },
                {
                    "name": "D#4",
                    "midi": 63,
                    "time": 110.58358333333386,
                    "velocity": 0.3464566929133858,
                    "duration": 0.1300983333333363
                },
                {
                    "name": "G#4",
                    "midi": 68,
                    "time": 110.7136816666672,
                    "velocity": 0.3464566929133858,
                    "duration": 0.1300983333333363
                },
                {
                    "name": "C4",
                    "midi": 60,
                    "time": 110.84378000000054,
                    "velocity": 0.4330708661417323,
                    "duration": 0.1300983333333363
                },
                {
                    "name": "D#4",
                    "midi": 63,
                    "time": 110.97387833333387,
                    "velocity": 0.3700787401574803,
                    "duration": 0.1300983333333363
                },
                {
                    "name": "G#4",
                    "midi": 68,
                    "time": 111.10397666666721,
                    "velocity": 0.3700787401574803,
                    "duration": 0.1300983333333363
                },
                {
                    "name": "C4",
                    "midi": 60,
                    "time": 111.23407500000054,
                    "velocity": 0.4330708661417323,
                    "duration": 0.1300983333333363
                },
                {
                    "name": "D#4",
                    "midi": 63,
                    "time": 111.36417333333388,
                    "velocity": 0.3700787401574803,
                    "duration": 0.1300983333333363
                },
                {
                    "name": "G#4",
                    "midi": 68,
                    "time": 111.49427166666722,
                    "velocity": 0.30708661417322836,
                    "duration": 0.1300983333333363
                },
                {
                    "name": "C4",
                    "midi": 60,
                    "time": 111.62437000000055,
                    "velocity": 0.36220472440944884,
                    "duration": 0.1300983333333363
                },
                {
                    "name": "D#4",
                    "midi": 63,
                    "time": 111.75446833333389,
                    "velocity": 0.28346456692913385,
                    "duration": 0.1300983333333363
                },
                {
                    "name": "G#4",
                    "midi": 68,
                    "time": 111.88456666666723,
                    "velocity": 0.28346456692913385,
                    "duration": 0.1300983333333363
                },
                {
                    "name": "C4",
                    "midi": 60,
                    "time": 112.01466500000056,
                    "velocity": 0.3700787401574803,
                    "duration": 0.1300983333333363
                },
                {
                    "name": "D#4",
                    "midi": 63,
                    "time": 112.1447633333339,
                    "velocity": 0.31496062992125984,
                    "duration": 0.1300983333333363
                },
                {
                    "name": "G#4",
                    "midi": 68,
                    "time": 112.27486166666723,
                    "velocity": 0.31496062992125984,
                    "duration": 0.1300983333333363
                },
                {
                    "name": "C#4",
                    "midi": 61,
                    "time": 112.40496000000057,
                    "velocity": 0.4330708661417323,
                    "duration": 0.1300983333333363
                },
                {
                    "name": "F4",
                    "midi": 65,
                    "time": 112.53505833333391,
                    "velocity": 0.3700787401574803,
                    "duration": 0.1300983333333363
                },
                {
                    "name": "G#4",
                    "midi": 68,
                    "time": 112.66515666666724,
                    "velocity": 0.3700787401574803,
                    "duration": 0.1300983333333363
                },
                {
                    "name": "C#4",
                    "midi": 61,
                    "time": 112.79525500000058,
                    "velocity": 0.4330708661417323,
                    "duration": 0.1300983333333363
                },
                {
                    "name": "F4",
                    "midi": 65,
                    "time": 112.92535333333392,
                    "velocity": 0.3700787401574803,
                    "duration": 0.1300983333333363
                },
                {
                    "name": "G#4",
                    "midi": 68,
                    "time": 113.05545166666725,
                    "velocity": 0.30708661417322836,
                    "duration": 0.1300983333333363
                },
                {
                    "name": "C#4",
                    "midi": 61,
                    "time": 113.18555000000059,
                    "velocity": 0.3858267716535433,
                    "duration": 0.1300983333333363
                },
                {
                    "name": "D#4",
                    "midi": 63,
                    "time": 113.31564833333393,
                    "velocity": 0.30708661417322836,
                    "duration": 0.1300983333333363
                },
                {
                    "name": "G4",
                    "midi": 67,
                    "time": 113.44574666666726,
                    "velocity": 0.30708661417322836,
                    "duration": 0.1300983333333363
                },
                {
                    "name": "C#4",
                    "midi": 61,
                    "time": 113.5758450000006,
                    "velocity": 0.3937007874015748,
                    "duration": 0.1300983333333363
                },
                {
                    "name": "D#4",
                    "midi": 63,
                    "time": 113.70594333333393,
                    "velocity": 0.3464566929133858,
                    "duration": 0.1300983333333363
                },
                {
                    "name": "G4",
                    "midi": 67,
                    "time": 113.83604166666727,
                    "velocity": 0.3464566929133858,
                    "duration": 0.1300983333333363
                },
                {
                    "name": "C4",
                    "midi": 60,
                    "time": 113.9661400000006,
                    "velocity": 0.4330708661417323,
                    "duration": 0.1300983333333363
                },
                {
                    "name": "D#4",
                    "midi": 63,
                    "time": 114.09623833333394,
                    "velocity": 0.3700787401574803,
                    "duration": 0.1300983333333363
                },
                {
                    "name": "G#4",
                    "midi": 68,
                    "time": 114.22633666666728,
                    "velocity": 0.3700787401574803,
                    "duration": 0.1300983333333363
                },
                {
                    "name": "C4",
                    "midi": 60,
                    "time": 114.35643500000062,
                    "velocity": 0.4330708661417323,
                    "duration": 0.1300983333333363
                },
                {
                    "name": "D#4",
                    "midi": 63,
                    "time": 114.48653333333395,
                    "velocity": 0.3700787401574803,
                    "duration": 0.1300983333333363
                },
                {
                    "name": "G#4",
                    "midi": 68,
                    "time": 114.61663166666729,
                    "velocity": 0.30708661417322836,
                    "duration": 0.1300983333333363
                },
                {
                    "name": "A#3",
                    "midi": 58,
                    "time": 114.74673000000062,
                    "velocity": 0.4094488188976378,
                    "duration": 0.1300983333333363
                },
                {
                    "name": "C#4",
                    "midi": 61,
                    "time": 114.87682833333396,
                    "velocity": 0.33858267716535434,
                    "duration": 0.1300983333333363
                },
                {
                    "name": "G4",
                    "midi": 67,
                    "time": 115.0069266666673,
                    "velocity": 0.33858267716535434,
                    "duration": 0.1300983333333363
                },
                {
                    "name": "A#3",
                    "midi": 58,
                    "time": 115.13702500000063,
                    "velocity": 0.41732283464566927,
                    "duration": 0.1300983333333363
                },
                {
                    "name": "C#4",
                    "midi": 61,
                    "time": 115.26712333333397,
                    "velocity": 0.3464566929133858,
                    "duration": 0.1300983333333363
                },
                {
                    "name": "G4",
                    "midi": 67,
                    "time": 115.3972216666673,
                    "velocity": 0.3464566929133858,
                    "duration": 0.1300983333333363
                },
                {
                    "name": "G#3",
                    "midi": 56,
                    "time": 115.52732000000064,
                    "velocity": 0.4330708661417323,
                    "duration": 0.39029499999999473
                },
                {
                    "name": "D#4",
                    "midi": 63,
                    "time": 117.47879500000063,
                    "velocity": 0.30708661417322836,
                    "duration": 0.39029499999999473
                },
                {
                    "name": "G4",
                    "midi": 67,
                    "time": 117.47879500000063,
                    "velocity": 0.36220472440944884,
                    "duration": 0.39029499999999473
                },
                {
                    "name": "D#3",
                    "midi": 51,
                    "time": 118.64968000000063,
                    "velocity": 0.4566929133858268,
                    "duration": 0.2927212499999996
                },
                {
                    "name": "G3",
                    "midi": 55,
                    "time": 119.03997500000062,
                    "velocity": 0.4566929133858268,
                    "duration": 0.19514750000000447
                },
                {
                    "name": "D3",
                    "midi": 50,
                    "time": 119.43027000000063,
                    "velocity": 0.4566929133858268,
                    "duration": 0.19514750000000447
                },
                {
                    "name": "D3",
                    "midi": 50,
                    "time": 120.21086000000064,
                    "velocity": 0.4566929133858268,
                    "duration": 0.2927212499999996
                },
                {
                    "name": "A#3",
                    "midi": 58,
                    "time": 120.60115500000063,
                    "velocity": 0.3464566929133858,
                    "duration": 0.19514750000000447
                },
                {
                    "name": "D#3",
                    "midi": 51,
                    "time": 120.99145000000064,
                    "velocity": 0.41732283464566927,
                    "duration": 0.2927212499999996
                },
                {
                    "name": "A#3",
                    "midi": 58,
                    "time": 121.38174500000063,
                    "velocity": 0.3700787401574803,
                    "duration": 0.19514750000000447
                },
                {
                    "name": "F3",
                    "midi": 53,
                    "time": 121.77204000000064,
                    "velocity": 0.4330708661417323,
                    "duration": 0.2927212499999996
                },
                {
                    "name": "D4",
                    "midi": 62,
                    "time": 122.16233500000064,
                    "velocity": 0.29133858267716534,
                    "duration": 0.19514750000000447
                },
                {
                    "name": "G3",
                    "midi": 55,
                    "time": 122.55263000000065,
                    "velocity": 0.4409448818897638,
                    "duration": 0.2927212499999996
                },
                {
                    "name": "D#4",
                    "midi": 63,
                    "time": 122.94292500000064,
                    "velocity": 0.3464566929133858,
                    "duration": 0.19514750000000447
                },
                {
                    "name": "G#3",
                    "midi": 56,
                    "time": 123.33322000000065,
                    "velocity": 0.4330708661417323,
                    "duration": 0.1300983333333363
                },
                {
                    "name": "C4",
                    "midi": 60,
                    "time": 123.46331833333399,
                    "velocity": 0.3700787401574803,
                    "duration": 0.1300983333333363
                },
                {
                    "name": "D#4",
                    "midi": 63,
                    "time": 123.59341666666732,
                    "velocity": 0.3700787401574803,
                    "duration": 0.1300983333333363
                },
                {
                    "name": "G#3",
                    "midi": 56,
                    "time": 123.72351500000066,
                    "velocity": 0.4330708661417323,
                    "duration": 0.1300983333333363
                },
                {
                    "name": "C4",
                    "midi": 60,
                    "time": 123.853613333334,
                    "velocity": 0.3700787401574803,
                    "duration": 0.1300983333333363
                },
                {
                    "name": "D#4",
                    "midi": 63,
                    "time": 123.98371166666733,
                    "velocity": 0.30708661417322836,
                    "duration": 0.1300983333333363
                },
                {
                    "name": "G#3",
                    "midi": 56,
                    "time": 124.11381000000067,
                    "velocity": 0.4094488188976378,
                    "duration": 0.1300983333333363
                },
                {
                    "name": "C4",
                    "midi": 60,
                    "time": 124.243908333334,
                    "velocity": 0.33858267716535434,
                    "duration": 0.1300983333333363
                },
                {
                    "name": "D#4",
                    "midi": 63,
                    "time": 124.37400666666734,
                    "velocity": 0.33858267716535434,
                    "duration": 0.1300983333333363
                },
                {
                    "name": "G3",
                    "midi": 55,
                    "time": 124.50410500000068,
                    "velocity": 0.41732283464566927,
                    "duration": 0.1300983333333363
                },
                {
                    "name": "A#3",
                    "midi": 58,
                    "time": 124.63420333333401,
                    "velocity": 0.3464566929133858,
                    "duration": 0.1300983333333363
                },
                {
                    "name": "C#4",
                    "midi": 61,
                    "time": 124.76430166666735,
                    "velocity": 0.3464566929133858,
                    "duration": 0.1300983333333363
                },
                {
                    "name": "G#3",
                    "midi": 56,
                    "time": 124.89440000000069,
                    "velocity": 0.4330708661417323,
                    "duration": 0.39029499999999473
                },
                {
                    "name": "G3",
                    "midi": 55,
                    "time": 126.45558000000068,
                    "velocity": 0.4330708661417323,
                    "duration": 0.1300983333333363
                },
                {
                    "name": "A#3",
                    "midi": 58,
                    "time": 126.58567833333402,
                    "velocity": 0.3700787401574803,
                    "duration": 0.1300983333333363
                },
                {
                    "name": "D#4",
                    "midi": 63,
                    "time": 126.71577666666735,
                    "velocity": 0.3700787401574803,
                    "duration": 0.1300983333333363
                },
                {
                    "name": "G3",
                    "midi": 55,
                    "time": 126.84587500000069,
                    "velocity": 0.4330708661417323,
                    "duration": 0.1300983333333363
                },
                {
                    "name": "A#3",
                    "midi": 58,
                    "time": 126.97597333333403,
                    "velocity": 0.3700787401574803,
                    "duration": 0.1300983333333363
                },
                {
                    "name": "D#4",
                    "midi": 63,
                    "time": 127.10607166666736,
                    "velocity": 0.30708661417322836,
                    "duration": 0.1300983333333363
                },
                {
                    "name": "G3",
                    "midi": 55,
                    "time": 127.2361700000007,
                    "velocity": 0.4094488188976378,
                    "duration": 0.1300983333333363
                },
                {
                    "name": "A#3",
                    "midi": 58,
                    "time": 127.36626833333403,
                    "velocity": 0.33858267716535434,
                    "duration": 0.1300983333333363
                },
                {
                    "name": "D#4",
                    "midi": 63,
                    "time": 127.49636666666737,
                    "velocity": 0.33858267716535434,
                    "duration": 0.1300983333333363
                },
                {
                    "name": "F3",
                    "midi": 53,
                    "time": 127.6264650000007,
                    "velocity": 0.41732283464566927,
                    "duration": 0.1300983333333363
                },
                {
                    "name": "G#3",
                    "midi": 56,
                    "time": 127.75656333333404,
                    "velocity": 0.3464566929133858,
                    "duration": 0.1300983333333363
                },
                {
                    "name": "B3",
                    "midi": 59,
                    "time": 127.88666166666738,
                    "velocity": 0.3464566929133858,
                    "duration": 0.1300983333333363
                },
                {
                    "name": "G3",
                    "midi": 55,
                    "time": 128.01676000000072,
                    "velocity": 0.4330708661417323,
                    "duration": 0.39029500000000894
                },
                {
                    "name": "A#3",
                    "midi": 58,
                    "time": 129.57794000000072,
                    "velocity": 0.4330708661417323,
                    "duration": 0.1300983333333363
                },
                {
                    "name": "D4",
                    "midi": 62,
                    "time": 129.70803833333406,
                    "velocity": 0.3700787401574803,
                    "duration": 0.1300983333333363
                },
                {
                    "name": "F4",
                    "midi": 65,
                    "time": 129.8381366666674,
                    "velocity": 0.3700787401574803,
                    "duration": 0.1300983333333363
                },
                {
                    "name": "A#3",
                    "midi": 58,
                    "time": 129.96823500000073,
                    "velocity": 0.4330708661417323,
                    "duration": 0.1300983333333363
                },
                {
                    "name": "D4",
                    "midi": 62,
                    "time": 130.09833333333407,
                    "velocity": 0.3700787401574803,
                    "duration": 0.1300983333333363
                },
                {
                    "name": "F4",
                    "midi": 65,
                    "time": 130.2284316666674,
                    "velocity": 0.30708661417322836,
                    "duration": 0.1300983333333363
                },
                {
                    "name": "A#3",
                    "midi": 58,
                    "time": 130.35853000000074,
                    "velocity": 0.4094488188976378,
                    "duration": 0.1300983333333363
                },
                {
                    "name": "D4",
                    "midi": 62,
                    "time": 130.48862833333408,
                    "velocity": 0.33858267716535434,
                    "duration": 0.1300983333333363
                },
                {
                    "name": "F4",
                    "midi": 65,
                    "time": 130.6187266666674,
                    "velocity": 0.33858267716535434,
                    "duration": 0.1300983333333363
                },
                {
                    "name": "A#3",
                    "midi": 58,
                    "time": 130.74882500000075,
                    "velocity": 0.41732283464566927,
                    "duration": 0.1300983333333363
                },
                {
                    "name": "D#4",
                    "midi": 63,
                    "time": 130.8789233333341,
                    "velocity": 0.3464566929133858,
                    "duration": 0.1300983333333363
                },
                {
                    "name": "G4",
                    "midi": 67,
                    "time": 131.00902166666742,
                    "velocity": 0.3464566929133858,
                    "duration": 0.1300983333333363
                },
                {
                    "name": "A#3",
                    "midi": 58,
                    "time": 131.13912000000076,
                    "velocity": 0.41732283464566927,
                    "duration": 0.1300983333333363
                },
                {
                    "name": "F4",
                    "midi": 65,
                    "time": 131.2692183333341,
                    "velocity": 0.3464566929133858,
                    "duration": 0.1300983333333363
                },
                {
                    "name": "G#4",
                    "midi": 68,
                    "time": 131.39931666666743,
                    "velocity": 0.3464566929133858,
                    "duration": 0.1300983333333363
                },
                {
                    "name": "A#3",
                    "midi": 58,
                    "time": 131.52941500000077,
                    "velocity": 0.3937007874015748,
                    "duration": 0.1300983333333363
                },
                {
                    "name": "F4",
                    "midi": 65,
                    "time": 131.6595133333341,
                    "velocity": 0.30708661417322836,
                    "duration": 0.1300983333333363
                },
                {
                    "name": "G#4",
                    "midi": 68,
                    "time": 131.78961166666744,
                    "velocity": 0.30708661417322836,
                    "duration": 0.1300983333333363
                },
                {
                    "name": "A#3",
                    "midi": 58,
                    "time": 131.91971000000078,
                    "velocity": 0.3700787401574803,
                    "duration": 0.1300983333333363
                },
                {
                    "name": "F4",
                    "midi": 65,
                    "time": 132.0498083333341,
                    "velocity": 0.33070866141732286,
                    "duration": 0.1300983333333363
                },
                {
                    "name": "G#4",
                    "midi": 68,
                    "time": 132.17990666666745,
                    "velocity": 0.33070866141732286,
                    "duration": 0.1300983333333363
                },
                {
                    "name": "A#3",
                    "midi": 58,
                    "time": 132.31000500000079,
                    "velocity": 0.41732283464566927,
                    "duration": 0.1300983333333363
                },
                {
                    "name": "D#4",
                    "midi": 63,
                    "time": 132.44010333333412,
                    "velocity": 0.3464566929133858,
                    "duration": 0.1300983333333363
                },
                {
                    "name": "G4",
                    "midi": 67,
                    "time": 132.57020166666746,
                    "velocity": 0.3464566929133858,
                    "duration": 0.1300983333333363
                },
                {
                    "name": "A#3",
                    "midi": 58,
                    "time": 132.7003000000008,
                    "velocity": 0.4330708661417323,
                    "duration": 0.1300983333333363
                },
                {
                    "name": "D4",
                    "midi": 62,
                    "time": 132.83039833333413,
                    "velocity": 0.3700787401574803,
                    "duration": 0.1300983333333363
                },
                {
                    "name": "F4",
                    "midi": 65,
                    "time": 132.96049666666747,
                    "velocity": 0.3700787401574803,
                    "duration": 0.1300983333333363
                },
                {
                    "name": "A#3",
                    "midi": 58,
                    "time": 133.0905950000008,
                    "velocity": 0.4330708661417323,
                    "duration": 0.1300983333333363
                },
                {
                    "name": "D4",
                    "midi": 62,
                    "time": 133.22069333333414,
                    "velocity": 0.3700787401574803,
                    "duration": 0.1300983333333363
                },
                {
                    "name": "F4",
                    "midi": 65,
                    "time": 133.35079166666748,
                    "velocity": 0.30708661417322836,
                    "duration": 0.1300983333333363
                },
                {
                    "name": "A#3",
                    "midi": 58,
                    "time": 133.4808900000008,
                    "velocity": 0.4094488188976378,
                    "duration": 0.1300983333333363
                },
                {
                    "name": "D4",
                    "midi": 62,
                    "time": 133.61098833333415,
                    "velocity": 0.33858267716535434,
                    "duration": 0.1300983333333363
                },
                {
                    "name": "F4",
                    "midi": 65,
                    "time": 133.74108666666748,
                    "velocity": 0.33858267716535434,
                    "duration": 0.1300983333333363
                },
                {
                    "name": "A#3",
                    "midi": 58,
                    "time": 133.87118500000082,
                    "velocity": 0.41732283464566927,
                    "duration": 0.1300983333333363
                },
                {
                    "name": "D#4",
                    "midi": 63,
                    "time": 134.00128333333416,
                    "velocity": 0.3464566929133858,
                    "duration": 0.1300983333333363
                },
                {
                    "name": "G4",
                    "midi": 67,
                    "time": 134.1313816666675,
                    "velocity": 0.3464566929133858,
                    "duration": 0.1300983333333363
                },
                {
                    "name": "A#3",
                    "midi": 58,
                    "time": 134.26148000000083,
                    "velocity": 0.41732283464566927,
                    "duration": 0.1300983333333363
                },
                {
                    "name": "F4",
                    "midi": 65,
                    "time": 134.39157833333417,
                    "velocity": 0.3464566929133858,
                    "duration": 0.1300983333333363
                },
                {
                    "name": "G#4",
                    "midi": 68,
                    "time": 134.5216766666675,
                    "velocity": 0.3464566929133858,
                    "duration": 0.1300983333333363
                },
                {
                    "name": "A#3",
                    "midi": 58,
                    "time": 134.65177500000084,
                    "velocity": 0.3937007874015748,
                    "duration": 0.1300983333333363
                },
                {
                    "name": "F4",
                    "midi": 65,
                    "time": 134.78187333333418,
                    "velocity": 0.30708661417322836,
                    "duration": 0.1300983333333363
                },
                {
                    "name": "G#4",
                    "midi": 68,
                    "time": 134.9119716666675,
                    "velocity": 0.30708661417322836,
                    "duration": 0.1300983333333363
                },
                {
                    "name": "A#3",
                    "midi": 58,
                    "time": 135.04207000000085,
                    "velocity": 0.3700787401574803,
                    "duration": 0.1300983333333363
                },
                {
                    "name": "F4",
                    "midi": 65,
                    "time": 135.17216833333418,
                    "velocity": 0.33070866141732286,
                    "duration": 0.1300983333333363
                },
                {
                    "name": "G#4",
                    "midi": 68,
                    "time": 135.30226666666752,
                    "velocity": 0.33070866141732286,
                    "duration": 0.1300983333333363
                },
                {
                    "name": "A#3",
                    "midi": 58,
                    "time": 135.43236500000086,
                    "velocity": 0.41732283464566927,
                    "duration": 0.1300983333333363
                },
                {
                    "name": "D#4",
                    "midi": 63,
                    "time": 135.5624633333342,
                    "velocity": 0.3464566929133858,
                    "duration": 0.1300983333333363
                },
                {
                    "name": "G4",
                    "midi": 67,
                    "time": 135.69256166666753,
                    "velocity": 0.3464566929133858,
                    "duration": 0.1300983333333363
                },
                {
                    "name": "A#3",
                    "midi": 58,
                    "time": 135.82266000000087,
                    "velocity": 0.4330708661417323,
                    "duration": 0.1300983333333363
                },
                {
                    "name": "D4",
                    "midi": 62,
                    "time": 135.9527583333342,
                    "velocity": 0.3700787401574803,
                    "duration": 0.1300983333333363
                },
                {
                    "name": "F4",
                    "midi": 65,
                    "time": 136.08285666666754,
                    "velocity": 0.3700787401574803,
                    "duration": 0.1300983333333363
                },
                {
                    "name": "A#3",
                    "midi": 58,
                    "time": 136.21295500000087,
                    "velocity": 0.4330708661417323,
                    "duration": 0.1300983333333363
                },
                {
                    "name": "D4",
                    "midi": 62,
                    "time": 136.3430533333342,
                    "velocity": 0.3700787401574803,
                    "duration": 0.1300983333333363
                },
                {
                    "name": "F4",
                    "midi": 65,
                    "time": 136.47315166666755,
                    "velocity": 0.30708661417322836,
                    "duration": 0.1300983333333363
                },
                {
                    "name": "B3",
                    "midi": 59,
                    "time": 136.60325000000088,
                    "velocity": 0.48031496062992124,
                    "duration": 0.1300983333333363
                },
                {
                    "name": "D4",
                    "midi": 62,
                    "time": 136.73334833333422,
                    "velocity": 0.33858267716535434,
                    "duration": 0.1300983333333363
                },
                {
                    "name": "F4",
                    "midi": 65,
                    "time": 136.86344666666756,
                    "velocity": 0.33858267716535434,
                    "duration": 0.1300983333333363
                },
                {
                    "name": "C4",
                    "midi": 60,
                    "time": 136.9935450000009,
                    "velocity": 0.41732283464566927,
                    "duration": 0.1300983333333363
                },
                {
                    "name": "D4",
                    "midi": 62,
                    "time": 137.12364333333423,
                    "velocity": 0.3464566929133858,
                    "duration": 0.1300983333333363
                },
                {
                    "name": "D#4",
                    "midi": 63,
                    "time": 137.25374166666757,
                    "velocity": 0.3464566929133858,
                    "duration": 0.1300983333333363
                },
                {
                    "name": "G#3",
                    "midi": 56,
                    "time": 137.3838400000009,
                    "velocity": 0.4330708661417323,
                    "duration": 0.39029500000000894
                },
                {
                    "name": "A#3",
                    "midi": 58,
                    "time": 138.16443000000092,
                    "velocity": 0.31496062992125984,
                    "duration": 0.7805900000000179
                },
                {
                    "name": "G4",
                    "midi": 67,
                    "time": 138.16443000000092,
                    "velocity": 0.4881889763779528,
                    "duration": 0.39029500000000894
                },
                {
                    "name": "G#4",
                    "midi": 68,
                    "time": 138.55472500000093,
                    "velocity": 0.3700787401574803,
                    "duration": 0.39029500000000894
                },
                {
                    "name": "C4",
                    "midi": 60,
                    "time": 138.94502000000094,
                    "velocity": 0.23622047244094488,
                    "duration": 1.1708849999999984
                },
                {
                    "name": "G#4",
                    "midi": 68,
                    "time": 138.94502000000094,
                    "velocity": 0.4330708661417323,
                    "duration": 0.7805899999999895
                },
                {
                    "name": "G4",
                    "midi": 67,
                    "time": 139.72561000000093,
                    "velocity": 0.29133858267716534,
                    "duration": 0.39029500000000894
                },
                {
                    "name": "D#3",
                    "midi": 51,
                    "time": 140.89649500000093,
                    "velocity": 0.4409448818897638,
                    "duration": 0.19514749999999026
                },
                {
                    "name": "C3",
                    "midi": 48,
                    "time": 140.89649500000093,
                    "velocity": 0.3700787401574803,
                    "duration": 0.19514749999999026
                },
                {
                    "name": "D#3",
                    "midi": 51,
                    "time": 141.2867900000009,
                    "velocity": 0.4566929133858268,
                    "duration": 0.19514749999999026
                },
                {
                    "name": "C3",
                    "midi": 48,
                    "time": 141.2867900000009,
                    "velocity": 0.3858267716535433,
                    "duration": 0.19514749999999026
                },
                {
                    "name": "D#3",
                    "midi": 51,
                    "time": 141.6770850000009,
                    "velocity": 0.4566929133858268,
                    "duration": 0.19514749999999026
                },
                {
                    "name": "C3",
                    "midi": 48,
                    "time": 141.6770850000009,
                    "velocity": 0.3858267716535433,
                    "duration": 0.19514749999999026
                },
                {
                    "name": "A#2",
                    "midi": 46,
                    "time": 142.45767500000088,
                    "velocity": 0.3700787401574803,
                    "duration": 0.19514749999999026
                },
                {
                    "name": "F3",
                    "midi": 53,
                    "time": 142.45767500000088,
                    "velocity": 0.4409448818897638,
                    "duration": 0.19514749999999026
                },
                {
                    "name": "D3",
                    "midi": 50,
                    "time": 142.45767500000088,
                    "velocity": 0.3700787401574803,
                    "duration": 0.19514749999999026
                },
                {
                    "name": "A#2",
                    "midi": 46,
                    "time": 142.84797000000086,
                    "velocity": 0.3858267716535433,
                    "duration": 0.19514749999999026
                },
                {
                    "name": "F3",
                    "midi": 53,
                    "time": 142.84797000000086,
                    "velocity": 0.4566929133858268,
                    "duration": 0.19514749999999026
                },
                {
                    "name": "D3",
                    "midi": 50,
                    "time": 142.84797000000086,
                    "velocity": 0.3858267716535433,
                    "duration": 0.19514749999999026
                },
                {
                    "name": "A#2",
                    "midi": 46,
                    "time": 143.23826500000084,
                    "velocity": 0.3858267716535433,
                    "duration": 0.19514749999999026
                },
                {
                    "name": "F3",
                    "midi": 53,
                    "time": 143.23826500000084,
                    "velocity": 0.4566929133858268,
                    "duration": 0.19514749999999026
                },
                {
                    "name": "D3",
                    "midi": 50,
                    "time": 143.23826500000084,
                    "velocity": 0.3858267716535433,
                    "duration": 0.19514749999999026
                },
                {
                    "name": "D#3",
                    "midi": 51,
                    "time": 143.62856000000082,
                    "velocity": 0.4409448818897638,
                    "duration": 0.39029500000000894
                },
                {
                    "name": "A#2",
                    "midi": 46,
                    "time": 144.40915000000084,
                    "velocity": 0.3700787401574803,
                    "duration": 0.39029500000000894
                },
                {
                    "name": "F3",
                    "midi": 53,
                    "time": 144.40915000000084,
                    "velocity": 0.4409448818897638,
                    "duration": 0.39029500000000894
                },
                {
                    "name": "D#3",
                    "midi": 51,
                    "time": 145.18974000000085,
                    "velocity": 0.4094488188976378,
                    "duration": 0.39029500000000894
                },
                {
                    "name": "G3",
                    "midi": 55,
                    "time": 145.18974000000085,
                    "velocity": 0.4409448818897638,
                    "duration": 0.39029500000000894
                },
                {
                    "name": "A#2",
                    "midi": 46,
                    "time": 145.97033000000087,
                    "velocity": 0.3700787401574803,
                    "duration": 0.39029500000000894
                },
                {
                    "name": "F3",
                    "midi": 53,
                    "time": 145.97033000000087,
                    "velocity": 0.4409448818897638,
                    "duration": 0.39029500000000894
                },
                {
                    "name": "D#3",
                    "midi": 51,
                    "time": 146.7509200000009,
                    "velocity": 0.44881889763779526,
                    "duration": 0.39029500000000894
                },
                {
                    "name": "G3",
                    "midi": 55,
                    "time": 146.7509200000009,
                    "velocity": 0.48031496062992124,
                    "duration": 0.39029500000000894
                },
                {
                    "name": "G#3",
                    "midi": 56,
                    "time": 148.7023950000009,
                    "velocity": 0.3858267716535433,
                    "duration": 0.39029500000000894
                },
                {
                    "name": "G#2",
                    "midi": 44,
                    "time": 148.7023950000009,
                    "velocity": 0.31496062992125984,
                    "duration": 0.39029500000000894
                },
                {
                    "name": "A#2",
                    "midi": 46,
                    "time": 149.0926900000009,
                    "velocity": 0.33858267716535434,
                    "duration": 0.39029500000000894
                },
                {
                    "name": "G3",
                    "midi": 55,
                    "time": 149.0926900000009,
                    "velocity": 0.4094488188976378,
                    "duration": 0.39029500000000894
                },
                {
                    "name": "F3",
                    "midi": 53,
                    "time": 149.48298500000092,
                    "velocity": 0.3858267716535433,
                    "duration": 0.39029500000000894
                },
                {
                    "name": "A#2",
                    "midi": 46,
                    "time": 149.48298500000092,
                    "velocity": 0.31496062992125984,
                    "duration": 0.39029500000000894
                },
                {
                    "name": "D#4",
                    "midi": 63,
                    "time": 149.87328000000093,
                    "velocity": 0.4566929133858268,
                    "duration": 0.1300983333333363
                },
                {
                    "name": "G4",
                    "midi": 67,
                    "time": 150.00337833333427,
                    "velocity": 0.4881889763779528,
                    "duration": 0.1300983333333363
                },
                {
                    "name": "F4",
                    "midi": 65,
                    "time": 150.1334766666676,
                    "velocity": 0.4015748031496063,
                    "duration": 0.1300983333333363
                },
                {
                    "name": "D#4",
                    "midi": 63,
                    "time": 150.26357500000094,
                    "velocity": 0.4566929133858268,
                    "duration": 0.1300983333333363
                },
                {
                    "name": "D4",
                    "midi": 62,
                    "time": 150.39367333333428,
                    "velocity": 0.4409448818897638,
                    "duration": 0.1300983333333363
                },
                {
                    "name": "C4",
                    "midi": 60,
                    "time": 150.5237716666676,
                    "velocity": 0.4409448818897638,
                    "duration": 0.1300983333333363
                },
                {
                    "name": "A#3",
                    "midi": 58,
                    "time": 150.65387000000095,
                    "velocity": 0.4566929133858268,
                    "duration": 0.1300983333333363
                },
                {
                    "name": "G#3",
                    "midi": 56,
                    "time": 150.7839683333343,
                    "velocity": 0.4094488188976378,
                    "duration": 0.1300983333333363
                },
                {
                    "name": "G3",
                    "midi": 55,
                    "time": 150.91406666666762,
                    "velocity": 0.4015748031496063,
                    "duration": 0.1300983333333363
                },
                {
                    "name": "F3",
                    "midi": 53,
                    "time": 151.04416500000096,
                    "velocity": 0.4566929133858268,
                    "duration": 0.1300983333333363
                },
                {
                    "name": "D#3",
                    "midi": 51,
                    "time": 151.1742633333343,
                    "velocity": 0.4094488188976378,
                    "duration": 0.1300983333333363
                },
                {
                    "name": "D3",
                    "midi": 50,
                    "time": 151.30436166666763,
                    "velocity": 0.4094488188976378,
                    "duration": 0.1300983333333363
                },
                {
                    "name": "C3",
                    "midi": 48,
                    "time": 151.43446000000097,
                    "velocity": 0.4566929133858268,
                    "duration": 0.1300983333333363
                },
                {
                    "name": "D#4",
                    "midi": 63,
                    "time": 151.5645583333343,
                    "velocity": 0.4881889763779528,
                    "duration": 0.1300983333333363
                },
                {
                    "name": "D4",
                    "midi": 62,
                    "time": 151.69465666666764,
                    "velocity": 0.4015748031496063,
                    "duration": 0.1300983333333363
                },
                {
                    "name": "C4",
                    "midi": 60,
                    "time": 151.82475500000098,
                    "velocity": 0.4566929133858268,
                    "duration": 0.1300983333333363
                },
                {
                    "name": "A#3",
                    "midi": 58,
                    "time": 151.9548533333343,
                    "velocity": 0.4409448818897638,
                    "duration": 0.1300983333333363
                },
                {
                    "name": "G#3",
                    "midi": 56,
                    "time": 152.08495166666765,
                    "velocity": 0.4409448818897638,
                    "duration": 0.1300983333333363
                },
                {
                    "name": "G3",
                    "midi": 55,
                    "time": 152.21505000000099,
                    "velocity": 0.4566929133858268,
                    "duration": 0.1300983333333363
                },
                {
                    "name": "F3",
                    "midi": 53,
                    "time": 152.34514833333432,
                    "velocity": 0.4094488188976378,
                    "duration": 0.1300983333333363
                },
                {
                    "name": "D#3",
                    "midi": 51,
                    "time": 152.47524666666766,
                    "velocity": 0.4015748031496063,
                    "duration": 0.1300983333333363
                },
                {
                    "name": "D3",
                    "midi": 50,
                    "time": 152.605345000001,
                    "velocity": 0.4566929133858268,
                    "duration": 0.1300983333333363
                },
                {
                    "name": "C3",
                    "midi": 48,
                    "time": 152.73544333333433,
                    "velocity": 0.4094488188976378,
                    "duration": 0.1300983333333363
                },
                {
                    "name": "A#2",
                    "midi": 46,
                    "time": 152.86554166666767,
                    "velocity": 0.4094488188976378,
                    "duration": 0.1300983333333363
                },
                {
                    "name": "G#2",
                    "midi": 44,
                    "time": 152.995640000001,
                    "velocity": 0.4566929133858268,
                    "duration": 0.7805899999999895
                },
                {
                    "name": "A#2",
                    "midi": 46,
                    "time": 153.776230000001,
                    "velocity": 0.4015748031496063,
                    "duration": 0.39029500000000894
                },
                {
                    "name": "A#2",
                    "midi": 46,
                    "time": 154.166525000001,
                    "velocity": 0.3937007874015748,
                    "duration": 0.39029500000000894
                },
                {
                    "name": "D#4",
                    "midi": 63,
                    "time": 154.556820000001,
                    "velocity": 0.3937007874015748,
                    "duration": 0.1300983333333363
                },
                {
                    "name": "G4",
                    "midi": 67,
                    "time": 154.68691833333435,
                    "velocity": 0.41732283464566927,
                    "duration": 0.1300983333333363
                },
                {
                    "name": "F4",
                    "midi": 65,
                    "time": 154.81701666666768,
                    "velocity": 0.3700787401574803,
                    "duration": 0.1300983333333363
                },
                {
                    "name": "D#4",
                    "midi": 63,
                    "time": 154.94711500000102,
                    "velocity": 0.4251968503937008,
                    "duration": 0.1300983333333363
                },
                {
                    "name": "D4",
                    "midi": 62,
                    "time": 155.07721333333436,
                    "velocity": 0.4015748031496063,
                    "duration": 0.1300983333333363
                },
                {
                    "name": "C4",
                    "midi": 60,
                    "time": 155.2073116666677,
                    "velocity": 0.4015748031496063,
                    "duration": 0.1300983333333363
                },
                {
                    "name": "A#3",
                    "midi": 58,
                    "time": 155.33741000000103,
                    "velocity": 0.4566929133858268,
                    "duration": 0.1300983333333363
                },
                {
                    "name": "G#3",
                    "midi": 56,
                    "time": 155.46750833333437,
                    "velocity": 0.4094488188976378,
                    "duration": 0.1300983333333363
                },
                {
                    "name": "G3",
                    "midi": 55,
                    "time": 155.5976066666677,
                    "velocity": 0.4015748031496063,
                    "duration": 0.1300983333333363
                },
                {
                    "name": "F3",
                    "midi": 53,
                    "time": 155.72770500000104,
                    "velocity": 0.4566929133858268,
                    "duration": 0.1300983333333363
                },
                {
                    "name": "D#3",
                    "midi": 51,
                    "time": 155.85780333333437,
                    "velocity": 0.4094488188976378,
                    "duration": 0.1300983333333363
                },
                {
                    "name": "D3",
                    "midi": 50,
                    "time": 155.9879016666677,
                    "velocity": 0.4094488188976378,
                    "duration": 0.1300983333333363
                },
                {
                    "name": "C3",
                    "midi": 48,
                    "time": 156.11800000000105,
                    "velocity": 0.4566929133858268,
                    "duration": 0.1300983333333363
                },
                {
                    "name": "D#4",
                    "midi": 63,
                    "time": 156.24809833333438,
                    "velocity": 0.4881889763779528,
                    "duration": 0.1300983333333363
                },
                {
                    "name": "D4",
                    "midi": 62,
                    "time": 156.37819666666772,
                    "velocity": 0.4015748031496063,
                    "duration": 0.1300983333333363
                },
                {
                    "name": "C4",
                    "midi": 60,
                    "time": 156.50829500000106,
                    "velocity": 0.4566929133858268,
                    "duration": 0.1300983333333363
                },
                {
                    "name": "A#3",
                    "midi": 58,
                    "time": 156.6383933333344,
                    "velocity": 0.4409448818897638,
                    "duration": 0.1300983333333363
                },
                {
                    "name": "G#3",
                    "midi": 56,
                    "time": 156.76849166666773,
                    "velocity": 0.4409448818897638,
                    "duration": 0.1300983333333363
                },
                {
                    "name": "G3",
                    "midi": 55,
                    "time": 156.89859000000106,
                    "velocity": 0.4566929133858268,
                    "duration": 0.1300983333333363
                },
                {
                    "name": "F3",
                    "midi": 53,
                    "time": 157.0286883333344,
                    "velocity": 0.4094488188976378,
                    "duration": 0.1300983333333363
                },
                {
                    "name": "D#3",
                    "midi": 51,
                    "time": 157.15878666666774,
                    "velocity": 0.4015748031496063,
                    "duration": 0.1300983333333363
                },
                {
                    "name": "D3",
                    "midi": 50,
                    "time": 157.28888500000107,
                    "velocity": 0.4566929133858268,
                    "duration": 0.1300983333333363
                },
                {
                    "name": "C3",
                    "midi": 48,
                    "time": 157.4189833333344,
                    "velocity": 0.4094488188976378,
                    "duration": 0.1300983333333363
                },
                {
                    "name": "A#2",
                    "midi": 46,
                    "time": 157.54908166666775,
                    "velocity": 0.4094488188976378,
                    "duration": 0.1300983333333363
                },
                {
                    "name": "G#2",
                    "midi": 44,
                    "time": 157.67918000000108,
                    "velocity": 0.4566929133858268,
                    "duration": 0.7805899999999895
                },
                {
                    "name": "A#2",
                    "midi": 46,
                    "time": 158.45977000000107,
                    "velocity": 0.4015748031496063,
                    "duration": 0.39029500000000894
                },
                {
                    "name": "A#2",
                    "midi": 46,
                    "time": 158.85006500000108,
                    "velocity": 0.3937007874015748,
                    "duration": 0.39029500000000894
                },
                {
                    "name": "D#4",
                    "midi": 63,
                    "time": 159.2403600000011,
                    "velocity": 0.28346456692913385,
                    "duration": 0.1300983333333363
                },
                {
                    "name": "G4",
                    "midi": 67,
                    "time": 159.37045833333443,
                    "velocity": 0.2440944881889764,
                    "duration": 0.1300983333333363
                },
                {
                    "name": "A#4",
                    "midi": 70,
                    "time": 159.50055666666776,
                    "velocity": 0.2440944881889764,
                    "duration": 0.1300983333333363
                },
                {
                    "name": "D#4",
                    "midi": 63,
                    "time": 159.6306550000011,
                    "velocity": 0.28346456692913385,
                    "duration": 0.1300983333333363
                },
                {
                    "name": "G4",
                    "midi": 67,
                    "time": 159.76075333333443,
                    "velocity": 0.25196850393700787,
                    "duration": 0.1300983333333363
                },
                {
                    "name": "A#4",
                    "midi": 70,
                    "time": 159.89085166666777,
                    "velocity": 0.25196850393700787,
                    "duration": 0.1300983333333363
                },
                {
                    "name": "D#4",
                    "midi": 63,
                    "time": 160.0209500000011,
                    "velocity": 0.28346456692913385,
                    "duration": 0.1300983333333363
                },
                {
                    "name": "G4",
                    "midi": 67,
                    "time": 160.15104833333444,
                    "velocity": 0.2440944881889764,
                    "duration": 0.1300983333333363
                },
                {
                    "name": "A#4",
                    "midi": 70,
                    "time": 160.28114666666778,
                    "velocity": 0.2440944881889764,
                    "duration": 0.1300983333333363
                },
                {
                    "name": "D#4",
                    "midi": 63,
                    "time": 160.41124500000112,
                    "velocity": 0.29133858267716534,
                    "duration": 0.1300983333333363
                },
                {
                    "name": "G#4",
                    "midi": 68,
                    "time": 160.54134333333445,
                    "velocity": 0.25196850393700787,
                    "duration": 0.1300983333333363
                },
                {
                    "name": "D5",
                    "midi": 74,
                    "time": 160.6714416666678,
                    "velocity": 0.25196850393700787,
                    "duration": 0.1300983333333363
                },
                {
                    "name": "D#4",
                    "midi": 63,
                    "time": 160.80154000000113,
                    "velocity": 0.28346456692913385,
                    "duration": 0.1300983333333363
                },
                {
                    "name": "G4",
                    "midi": 67,
                    "time": 160.93163833333446,
                    "velocity": 0.2440944881889764,
                    "duration": 0.1300983333333363
                },
                {
                    "name": "A#4",
                    "midi": 70,
                    "time": 161.0617366666678,
                    "velocity": 0.23622047244094488,
                    "duration": 0.1300983333333363
                },
                {
                    "name": "D#4",
                    "midi": 63,
                    "time": 161.19183500000113,
                    "velocity": 0.2755905511811024,
                    "duration": 0.1300983333333363
                },
                {
                    "name": "G4",
                    "midi": 67,
                    "time": 161.32193333333447,
                    "velocity": 0.2440944881889764,
                    "duration": 0.1300983333333363
                },
                {
                    "name": "A#4",
                    "midi": 70,
                    "time": 161.4520316666678,
                    "velocity": 0.2440944881889764,
                    "duration": 0.1300983333333363
                },
                {
                    "name": "D#4",
                    "midi": 63,
                    "time": 161.58213000000114,
                    "velocity": 0.2755905511811024,
                    "duration": 0.1300983333333363
                },
                {
                    "name": "G4",
                    "midi": 67,
                    "time": 161.71222833333448,
                    "velocity": 0.23622047244094488,
                    "duration": 0.1300983333333363
                },
                {
                    "name": "A#4",
                    "midi": 70,
                    "time": 161.84232666666782,
                    "velocity": 0.23622047244094488,
                    "duration": 0.1300983333333363
                },
                {
                    "name": "D#4",
                    "midi": 63,
                    "time": 161.97242500000115,
                    "velocity": 0.28346456692913385,
                    "duration": 0.1300983333333363
                },
                {
                    "name": "G#4",
                    "midi": 68,
                    "time": 162.1025233333345,
                    "velocity": 0.2440944881889764,
                    "duration": 0.1300983333333363
                },
                {
                    "name": "D5",
                    "midi": 74,
                    "time": 162.23262166666782,
                    "velocity": 0.2440944881889764,
                    "duration": 0.1300983333333363
                },
                {
                    "name": "D#4",
                    "midi": 63,
                    "time": 162.36272000000116,
                    "velocity": 0.2677165354330709,
                    "duration": 0.1300983333333363
                },
                {
                    "name": "G4",
                    "midi": 67,
                    "time": 162.4928183333345,
                    "velocity": 0.23622047244094488,
                    "duration": 0.1300983333333363
                },
                {
                    "name": "A#4",
                    "midi": 70,
                    "time": 162.62291666666783,
                    "velocity": 0.23622047244094488,
                    "duration": 0.1300983333333363
                },
                {
                    "name": "D#4",
                    "midi": 63,
                    "time": 162.75301500000117,
                    "velocity": 0.2677165354330709,
                    "duration": 0.1300983333333363
                },
                {
                    "name": "G4",
                    "midi": 67,
                    "time": 162.8831133333345,
                    "velocity": 0.2440944881889764,
                    "duration": 0.1300983333333363
                },
                {
                    "name": "A#4",
                    "midi": 70,
                    "time": 163.01321166666784,
                    "velocity": 0.23622047244094488,
                    "duration": 0.1300983333333363
                },
                {
                    "name": "D#4",
                    "midi": 63,
                    "time": 163.14331000000118,
                    "velocity": 0.2677165354330709,
                    "duration": 0.1300983333333363
                },
                {
                    "name": "G4",
                    "midi": 67,
                    "time": 163.27340833333452,
                    "velocity": 0.2283464566929134,
                    "duration": 0.1300983333333363
                },
                {
                    "name": "A#4",
                    "midi": 70,
                    "time": 163.40350666666785,
                    "velocity": 0.2283464566929134,
                    "duration": 0.1300983333333363
                },
                {
                    "name": "D#4",
                    "midi": 63,
                    "time": 163.5336050000012,
                    "velocity": 0.2755905511811024,
                    "duration": 0.1300983333333363
                },
                {
                    "name": "G#4",
                    "midi": 68,
                    "time": 163.66370333333452,
                    "velocity": 0.23622047244094488,
                    "duration": 0.1300983333333363
                },
                {
                    "name": "D5",
                    "midi": 74,
                    "time": 163.79380166666786,
                    "velocity": 0.23622047244094488,
                    "duration": 0.1300983333333363
                },
                {
                    "name": "D#4",
                    "midi": 63,
                    "time": 163.9239000000012,
                    "velocity": 0.2677165354330709,
                    "duration": 0.1300983333333363
                },
                {
                    "name": "G4",
                    "midi": 67,
                    "time": 164.05399833333453,
                    "velocity": 0.2283464566929134,
                    "duration": 0.1300983333333363
                },
                {
                    "name": "A#4",
                    "midi": 70,
                    "time": 164.18409666666787,
                    "velocity": 0.2283464566929134,
                    "duration": 0.1300983333333363
                },
                {
                    "name": "D#4",
                    "midi": 63,
                    "time": 164.3141950000012,
                    "velocity": 0.2677165354330709,
                    "duration": 0.1300983333333363
                },
                {
                    "name": "G4",
                    "midi": 67,
                    "time": 164.44429333333454,
                    "velocity": 0.23622047244094488,
                    "duration": 0.1300983333333363
                },
                {
                    "name": "A#4",
                    "midi": 70,
                    "time": 164.57439166666788,
                    "velocity": 0.23622047244094488,
                    "duration": 0.1300983333333363
                },
                {
                    "name": "D#4",
                    "midi": 63,
                    "time": 164.70449000000121,
                    "velocity": 0.25984251968503935,
                    "duration": 0.1300983333333363
                },
                {
                    "name": "G4",
                    "midi": 67,
                    "time": 164.83458833333455,
                    "velocity": 0.2283464566929134,
                    "duration": 0.1300983333333363
                },
                {
                    "name": "A#4",
                    "midi": 70,
                    "time": 164.9646866666679,
                    "velocity": 0.2283464566929134,
                    "duration": 0.1300983333333363
                },
                {
                    "name": "D#4",
                    "midi": 63,
                    "time": 165.09478500000122,
                    "velocity": 0.2677165354330709,
                    "duration": 0.1300983333333363
                },
                {
                    "name": "G#4",
                    "midi": 68,
                    "time": 165.22488333333456,
                    "velocity": 0.2283464566929134,
                    "duration": 0.1300983333333363
                },
                {
                    "name": "D5",
                    "midi": 74,
                    "time": 165.3549816666679,
                    "velocity": 0.2283464566929134,
                    "duration": 0.1300983333333363
                },
                {
                    "name": "D#4",
                    "midi": 63,
                    "time": 165.48508000000123,
                    "velocity": 0.25984251968503935,
                    "duration": 0.1300983333333363
                },
                {
                    "name": "G4",
                    "midi": 67,
                    "time": 165.61517833333457,
                    "velocity": 0.2204724409448819,
                    "duration": 0.1300983333333363
                },
                {
                    "name": "A#4",
                    "midi": 70,
                    "time": 165.7452766666679,
                    "velocity": 0.2204724409448819,
                    "duration": 0.1300983333333363
                },
                {
                    "name": "D#4",
                    "midi": 63,
                    "time": 165.87537500000124,
                    "velocity": 0.25984251968503935,
                    "duration": 0.1300983333333363
                },
                {
                    "name": "G4",
                    "midi": 67,
                    "time": 166.00547333333458,
                    "velocity": 0.2283464566929134,
                    "duration": 0.1300983333333363
                },
                {
                    "name": "A#4",
                    "midi": 70,
                    "time": 166.13557166666791,
                    "velocity": 0.2283464566929134,
                    "duration": 0.1300983333333363
                },
                {
                    "name": "D#4",
                    "midi": 63,
                    "time": 166.26567000000125,
                    "velocity": 0.25984251968503935,
                    "duration": 0.1300983333333363
                },
                {
                    "name": "G4",
                    "midi": 67,
                    "time": 166.3957683333346,
                    "velocity": 0.2204724409448819,
                    "duration": 0.1300983333333363
                },
                {
                    "name": "A#4",
                    "midi": 70,
                    "time": 166.52586666666792,
                    "velocity": 0.2204724409448819,
                    "duration": 0.1300983333333363
                },
                {
                    "name": "D#4",
                    "midi": 63,
                    "time": 166.65596500000126,
                    "velocity": 0.25984251968503935,
                    "duration": 0.1300983333333363
                },
                {
                    "name": "G#4",
                    "midi": 68,
                    "time": 166.7860633333346,
                    "velocity": 0.2283464566929134,
                    "duration": 0.1300983333333363
                },
                {
                    "name": "D5",
                    "midi": 74,
                    "time": 166.91616166666793,
                    "velocity": 0.2283464566929134,
                    "duration": 0.1300983333333363
                },
                {
                    "name": "D#4",
                    "midi": 63,
                    "time": 167.04626000000127,
                    "velocity": 0.25196850393700787,
                    "duration": 0.1300983333333363
                },
                {
                    "name": "G4",
                    "midi": 67,
                    "time": 167.1763583333346,
                    "velocity": 0.2125984251968504,
                    "duration": 0.1300983333333363
                },
                {
                    "name": "A#4",
                    "midi": 70,
                    "time": 167.30645666666794,
                    "velocity": 0.2125984251968504,
                    "duration": 0.1300983333333363
                },
                {
                    "name": "D#4",
                    "midi": 63,
                    "time": 167.43655500000128,
                    "velocity": 0.25196850393700787,
                    "duration": 0.1300983333333363
                },
                {
                    "name": "G4",
                    "midi": 67,
                    "time": 167.5666533333346,
                    "velocity": 0.2204724409448819,
                    "duration": 0.1300983333333363
                },
                {
                    "name": "A#4",
                    "midi": 70,
                    "time": 167.69675166666795,
                    "velocity": 0.2204724409448819,
                    "duration": 0.1300983333333363
                },
                {
                    "name": "D#4",
                    "midi": 63,
                    "time": 167.8268500000013,
                    "velocity": 0.25196850393700787,
                    "duration": 0.1300983333333363
                },
                {
                    "name": "G4",
                    "midi": 67,
                    "time": 167.95694833333462,
                    "velocity": 0.2125984251968504,
                    "duration": 0.1300983333333363
                },
                {
                    "name": "A#4",
                    "midi": 70,
                    "time": 168.08704666666796,
                    "velocity": 0.2125984251968504,
                    "duration": 0.1300983333333363
                },
                {
                    "name": "D#4",
                    "midi": 63,
                    "time": 168.2171450000013,
                    "velocity": 0.25196850393700787,
                    "duration": 0.1300983333333363
                },
                {
                    "name": "G#4",
                    "midi": 68,
                    "time": 168.34724333333463,
                    "velocity": 0.2204724409448819,
                    "duration": 0.1300983333333363
                },
                {
                    "name": "D5",
                    "midi": 74,
                    "time": 168.47734166666797,
                    "velocity": 0.2204724409448819,
                    "duration": 0.1300983333333363
                },
                {
                    "name": "D#4",
                    "midi": 63,
                    "time": 168.6074400000013,
                    "velocity": 0.2440944881889764,
                    "duration": 0.1300983333333363
                },
                {
                    "name": "G4",
                    "midi": 67,
                    "time": 168.73753833333464,
                    "velocity": 0.2047244094488189,
                    "duration": 0.1300983333333363
                },
                {
                    "name": "A#4",
                    "midi": 70,
                    "time": 168.86763666666798,
                    "velocity": 0.2047244094488189,
                    "duration": 0.1300983333333363
                },
                {
                    "name": "D#4",
                    "midi": 63,
                    "time": 168.9977350000013,
                    "velocity": 0.2283464566929134,
                    "duration": 0.1300983333333363
                },
                {
                    "name": "G4",
                    "midi": 67,
                    "time": 169.12783333333465,
                    "velocity": 0.2047244094488189,
                    "duration": 0.1300983333333363
                },
                {
                    "name": "A#4",
                    "midi": 70,
                    "time": 169.257931666668,
                    "velocity": 0.1968503937007874,
                    "duration": 0.1300983333333363
                },
                {
                    "name": "D#4",
                    "midi": 63,
                    "time": 169.38803000000132,
                    "velocity": 0.2125984251968504,
                    "duration": 0.1300983333333363
                },
                {
                    "name": "G4",
                    "midi": 67,
                    "time": 169.51812833333466,
                    "velocity": 0.18110236220472442,
                    "duration": 0.1300983333333363
                },
                {
                    "name": "A#4",
                    "midi": 70,
                    "time": 169.648226666668,
                    "velocity": 0.1732283464566929,
                    "duration": 0.1300983333333363
                },
                {
                    "name": "D#4",
                    "midi": 63,
                    "time": 169.77832500000133,
                    "velocity": 0.2047244094488189,
                    "duration": 0.1300983333333363
                },
                {
                    "name": "G#4",
                    "midi": 68,
                    "time": 169.90842333333467,
                    "velocity": 0.1732283464566929,
                    "duration": 0.1300983333333363
                },
                {
                    "name": "D5",
                    "midi": 74,
                    "time": 170.038521666668,
                    "velocity": 0.1732283464566929,
                    "duration": 0.1300983333333363
                },
                {
                    "name": "G4",
                    "midi": 67,
                    "time": 170.16862000000134,
                    "velocity": 0.23622047244094488,
                    "duration": 0.39029500000000894
                },
                {
                    "name": "D#4",
                    "midi": 63,
                    "time": 170.16862000000134,
                    "velocity": 0.23622047244094488,
                    "duration": 0.39029500000000894
                },
                {
                    "name": "D#2",
                    "midi": 39,
                    "time": 171.33950500000134,
                    "velocity": 0.1889763779527559,
                    "duration": 0.39029500000000894
                },
                {
                    "name": "G2",
                    "midi": 43,
                    "time": 171.33950500000134,
                    "velocity": 0.2283464566929134,
                    "duration": 0.39029500000000894
                },
                {
                    "name": "D#2",
                    "midi": 39,
                    "time": 171.72980000000135,
                    "velocity": 0.1889763779527559,
                    "duration": 0.39029500000000894
                },
                {
                    "name": "G2",
                    "midi": 43,
                    "time": 171.72980000000135,
                    "velocity": 0.2283464566929134,
                    "duration": 0.39029500000000894
                },
                {
                    "name": "D#2",
                    "midi": 39,
                    "time": 173.29098000000135,
                    "velocity": 0.3858267716535433,
                    "duration": 0.39029500000000894
                },
                {
                    "name": "D#3",
                    "midi": 51,
                    "time": 173.29098000000135,
                    "velocity": 0.4566929133858268,
                    "duration": 0.39029500000000894
                },
                {
                    "name": "D2",
                    "midi": 38,
                    "time": 174.07157000000137,
                    "velocity": 0.3858267716535433,
                    "duration": 0.39029500000000894
                },
                {
                    "name": "D3",
                    "midi": 50,
                    "time": 174.07157000000137,
                    "velocity": 0.4566929133858268,
                    "duration": 0.39029500000000894
                },
                {
                    "name": "D#2",
                    "midi": 39,
                    "time": 175.24245500000137,
                    "velocity": 0.3700787401574803,
                    "duration": 0.39029500000000894
                },
                {
                    "name": "D#3",
                    "midi": 51,
                    "time": 175.63275000000138,
                    "velocity": 0.4566929133858268,
                    "duration": 0.1463606249999998
                },
                {
                    "name": "F3",
                    "midi": 53,
                    "time": 176.80363500000138,
                    "velocity": 0.2440944881889764,
                    "duration": 0.39029500000000894
                },
                {
                    "name": "D3",
                    "midi": 50,
                    "time": 177.1939300000014,
                    "velocity": 0.30708661417322836,
                    "duration": 0.1463606249999998
                },
                {
                    "name": "D#3",
                    "midi": 51,
                    "time": 178.36481500000139,
                    "velocity": 0.3700787401574803,
                    "duration": 0.39029500000000894
                },
                {
                    "name": "D#2",
                    "midi": 39,
                    "time": 178.7551100000014,
                    "velocity": 0.4566929133858268,
                    "duration": 0.1463606249999998
                },
                {
                    "name": "G2",
                    "midi": 43,
                    "time": 179.1454050000014,
                    "velocity": 0.4094488188976378,
                    "duration": 0.39029500000000894
                },
                {
                    "name": "G#2",
                    "midi": 44,
                    "time": 179.5357000000014,
                    "velocity": 0.4566929133858268,
                    "duration": 0.39029500000000894
                },
                {
                    "name": "A#2",
                    "midi": 46,
                    "time": 180.7065850000014,
                    "velocity": 0.4094488188976378,
                    "duration": 0.39029500000000894
                },
                {
                    "name": "D#3",
                    "midi": 51,
                    "time": 181.38960125000142,
                    "velocity": 0.3700787401574803,
                    "duration": 0.09757375000000934
                },
                {
                    "name": "G3",
                    "midi": 55,
                    "time": 181.48717500000143,
                    "velocity": 0.4566929133858268,
                    "duration": 0.2927212499999996
                },
                {
                    "name": "A#3",
                    "midi": 58,
                    "time": 181.77989625000143,
                    "velocity": 0.4094488188976378,
                    "duration": 0.09757375000000934
                },
                {
                    "name": "D#4",
                    "midi": 63,
                    "time": 181.87747000000144,
                    "velocity": 0.4645669291338583,
                    "duration": 0.39029500000000894
                },
                {
                    "name": "G#4",
                    "midi": 68,
                    "time": 184.51196125000143,
                    "velocity": 0.3700787401574803,
                    "duration": 0.09757375000000934
                },
                {
                    "name": "G4",
                    "midi": 67,
                    "time": 184.60953500000144,
                    "velocity": 0.4566929133858268,
                    "duration": 0.2927212499999996
                },
                {
                    "name": "F4",
                    "midi": 65,
                    "time": 184.90225625000144,
                    "velocity": 0.4094488188976378,
                    "duration": 0.09757375000000934
                },
                {
                    "name": "E4",
                    "midi": 64,
                    "time": 184.99983000000145,
                    "velocity": 0.4645669291338583,
                    "duration": 0.2927212499999996
                },
                {
                    "name": "G4",
                    "midi": 67,
                    "time": 185.29255125000145,
                    "velocity": 0.3937007874015748,
                    "duration": 0.09757375000000934
                },
                {
                    "name": "C4",
                    "midi": 60,
                    "time": 185.39012500000146,
                    "velocity": 0.44881889763779526,
                    "duration": 0.2927212499999996
                },
                {
                    "name": "E4",
                    "midi": 64,
                    "time": 185.68284625000146,
                    "velocity": 0.4094488188976378,
                    "duration": 0.09757375000000934
                },
                {
                    "name": "F4",
                    "midi": 65,
                    "time": 185.78042000000147,
                    "velocity": 0.36220472440944884,
                    "duration": 0.1300983333333363
                },
                {
                    "name": "G#4",
                    "midi": 68,
                    "time": 185.9105183333348,
                    "velocity": 0.30708661417322836,
                    "duration": 0.1300983333333363
                },
                {
                    "name": "C5",
                    "midi": 72,
                    "time": 186.04061666666814,
                    "velocity": 0.30708661417322836,
                    "duration": 0.1300983333333363
                },
                {
                    "name": "F4",
                    "midi": 65,
                    "time": 186.17071500000148,
                    "velocity": 0.36220472440944884,
                    "duration": 0.1300983333333363
                },
                {
                    "name": "G#4",
                    "midi": 68,
                    "time": 186.30081333333482,
                    "velocity": 0.30708661417322836,
                    "duration": 0.1300983333333363
                },
                {
                    "name": "C5",
                    "midi": 72,
                    "time": 186.43091166666815,
                    "velocity": 0.3228346456692913,
                    "duration": 0.1300983333333363
                },
                {
                    "name": "F4",
                    "midi": 65,
                    "time": 186.5610100000015,
                    "velocity": 0.36220472440944884,
                    "duration": 0.1300983333333363
                },
                {
                    "name": "G#4",
                    "midi": 68,
                    "time": 186.69110833333482,
                    "velocity": 0.33070866141732286,
                    "duration": 0.1300983333333363
                },
                {
                    "name": "C5",
                    "midi": 72,
                    "time": 186.82120666666816,
                    "velocity": 0.33070866141732286,
                    "duration": 0.1300983333333363
                },
                {
                    "name": "E4",
                    "midi": 64,
                    "time": 186.9513050000015,
                    "velocity": 0.36220472440944884,
                    "duration": 0.1300983333333363
                },
                {
                    "name": "G4",
                    "midi": 67,
                    "time": 187.08140333333483,
                    "velocity": 0.3464566929133858,
                    "duration": 0.1300983333333363
                },
                {
                    "name": "C5",
                    "midi": 72,
                    "time": 187.21150166666817,
                    "velocity": 0.3464566929133858,
                    "duration": 0.1300983333333363
                },
                {
                    "name": "F4",
                    "midi": 65,
                    "time": 187.3416000000015,
                    "velocity": 0.36220472440944884,
                    "duration": 0.1300983333333363
                },
                {
                    "name": "G#4",
                    "midi": 68,
                    "time": 187.47169833333484,
                    "velocity": 0.30708661417322836,
                    "duration": 0.1300983333333363
                },
                {
                    "name": "C5",
                    "midi": 72,
                    "time": 187.60179666666818,
                    "velocity": 0.30708661417322836,
                    "duration": 0.1300983333333363
                },
                {
                    "name": "F4",
                    "midi": 65,
                    "time": 187.73189500000151,
                    "velocity": 0.36220472440944884,
                    "duration": 0.1300983333333363
                },
                {
                    "name": "G#4",
                    "midi": 68,
                    "time": 187.86199333333485,
                    "velocity": 0.30708661417322836,
                    "duration": 0.1300983333333363
                },
                {
                    "name": "C5",
                    "midi": 72,
                    "time": 187.9920916666682,
                    "velocity": 0.2440944881889764,
                    "duration": 0.1300983333333363
                },
                {
                    "name": "F4",
                    "midi": 65,
                    "time": 188.12219000000152,
                    "velocity": 0.33070866141732286,
                    "duration": 0.1300983333333363
                },
                {
                    "name": "G#4",
                    "midi": 68,
                    "time": 188.25228833333486,
                    "velocity": 0.2677165354330709,
                    "duration": 0.1300983333333363
                },
                {
                    "name": "C5",
                    "midi": 72,
                    "time": 188.3823866666682,
                    "velocity": 0.2677165354330709,
                    "duration": 0.1300983333333363
                },
                {
                    "name": "F4",
                    "midi": 65,
                    "time": 188.51248500000153,
                    "velocity": 0.33070866141732286,
                    "duration": 0.1300983333333363
                },
                {
                    "name": "G#4",
                    "midi": 68,
                    "time": 188.64258333333487,
                    "velocity": 0.30708661417322836,
                    "duration": 0.1300983333333363
                },
                {
                    "name": "C5",
                    "midi": 72,
                    "time": 188.7726816666682,
                    "velocity": 0.30708661417322836,
                    "duration": 0.1300983333333363
                },
                {
                    "name": "D#4",
                    "midi": 63,
                    "time": 188.90278000000154,
                    "velocity": 0.36220472440944884,
                    "duration": 0.1300983333333363
                },
                {
                    "name": "F#4",
                    "midi": 66,
                    "time": 189.03287833333488,
                    "velocity": 0.30708661417322836,
                    "duration": 0.1300983333333363
                },
                {
                    "name": "C5",
                    "midi": 72,
                    "time": 189.16297666666821,
                    "velocity": 0.30708661417322836,
                    "duration": 0.1300983333333363
                },
                {
                    "name": "D#4",
                    "midi": 63,
                    "time": 189.29307500000155,
                    "velocity": 0.36220472440944884,
                    "duration": 0.1300983333333363
                },
                {
                    "name": "F#4",
                    "midi": 66,
                    "time": 189.4231733333349,
                    "velocity": 0.30708661417322836,
                    "duration": 0.1300983333333363
                },
                {
                    "name": "C5",
                    "midi": 72,
                    "time": 189.55327166666822,
                    "velocity": 0.2755905511811024,
                    "duration": 0.1300983333333363
                },
                {
                    "name": "D#4",
                    "midi": 63,
                    "time": 189.68337000000156,
                    "velocity": 0.33070866141732286,
                    "duration": 0.1300983333333363
                },
                {
                    "name": "F#4",
                    "midi": 66,
                    "time": 189.8134683333349,
                    "velocity": 0.2992125984251969,
                    "duration": 0.1300983333333363
                },
                {
                    "name": "C5",
                    "midi": 72,
                    "time": 189.94356666666823,
                    "velocity": 0.2992125984251969,
                    "duration": 0.1300983333333363
                },
                {
                    "name": "D#4",
                    "midi": 63,
                    "time": 190.07366500000157,
                    "velocity": 0.33070866141732286,
                    "duration": 0.1300983333333363
                },
                {
                    "name": "F#4",
                    "midi": 66,
                    "time": 190.2037633333349,
                    "velocity": 0.30708661417322836,
                    "duration": 0.1300983333333363
                },
                {
                    "name": "C5",
                    "midi": 72,
                    "time": 190.33386166666824,
                    "velocity": 0.30708661417322836,
                    "duration": 0.1300983333333363
                },
                {
                    "name": "C#4",
                    "midi": 61,
                    "time": 190.46396000000158,
                    "velocity": 0.36220472440944884,
                    "duration": 0.1300983333333363
                },
                {
                    "name": "F4",
                    "midi": 65,
                    "time": 190.5940583333349,
                    "velocity": 0.30708661417322836,
                    "duration": 0.1300983333333363
                },
                {
                    "name": "G#4",
                    "midi": 68,
                    "time": 190.72415666666825,
                    "velocity": 0.30708661417322836,
                    "duration": 0.1300983333333363
                },
                {
                    "name": "C#4",
                    "midi": 61,
                    "time": 190.8542550000016,
                    "velocity": 0.36220472440944884,
                    "duration": 0.1300983333333363
                },
                {
                    "name": "F4",
                    "midi": 65,
                    "time": 190.98435333333492,
                    "velocity": 0.30708661417322836,
                    "duration": 0.1300983333333363
                },
                {
                    "name": "G#4",
                    "midi": 68,
                    "time": 191.11445166666826,
                    "velocity": 0.2440944881889764,
                    "duration": 0.1300983333333363
                },
                {
                    "name": "C#4",
                    "midi": 61,
                    "time": 191.2445500000016,
                    "velocity": 0.33070866141732286,
                    "duration": 0.1300983333333363
                },
                {
                    "name": "F4",
                    "midi": 65,
                    "time": 191.37464833333493,
                    "velocity": 0.2677165354330709,
                    "duration": 0.1300983333333363
                },
                {
                    "name": "G#4",
                    "midi": 68,
                    "time": 191.50474666666827,
                    "velocity": 0.2677165354330709,
                    "duration": 0.1300983333333363
                },
                {
                    "name": "C#4",
                    "midi": 61,
                    "time": 191.6348450000016,
                    "velocity": 0.33070866141732286,
                    "duration": 0.1300983333333363
                },
                {
                    "name": "F4",
                    "midi": 65,
                    "time": 191.76494333333494,
                    "velocity": 0.30708661417322836,
                    "duration": 0.1300983333333363
                },
                {
                    "name": "G#4",
                    "midi": 68,
                    "time": 191.89504166666828,
                    "velocity": 0.30708661417322836,
                    "duration": 0.1300983333333363
                },
                {
                    "name": "D4",
                    "midi": 62,
                    "time": 192.0251400000016,
                    "velocity": 0.36220472440944884,
                    "duration": 0.1300983333333363
                },
                {
                    "name": "F4",
                    "midi": 65,
                    "time": 192.15523833333495,
                    "velocity": 0.30708661417322836,
                    "duration": 0.1300983333333363
                },
                {
                    "name": "A#4",
                    "midi": 70,
                    "time": 192.2853366666683,
                    "velocity": 0.30708661417322836,
                    "duration": 0.1300983333333363
                },
                {
                    "name": "D4",
                    "midi": 62,
                    "time": 192.41543500000162,
                    "velocity": 0.36220472440944884,
                    "duration": 0.1300983333333363
                },
                {
                    "name": "F4",
                    "midi": 65,
                    "time": 192.54553333333496,
                    "velocity": 0.30708661417322836,
                    "duration": 0.1300983333333363
                },
                {
                    "name": "A#4",
                    "midi": 70,
                    "time": 192.6756316666683,
                    "velocity": 0.2755905511811024,
                    "duration": 0.1300983333333363
                },
                {
                    "name": "D4",
                    "midi": 62,
                    "time": 192.80573000000163,
                    "velocity": 0.33070866141732286,
                    "duration": 0.1300983333333363
                },
                {
                    "name": "F4",
                    "midi": 65,
                    "time": 192.93582833333497,
                    "velocity": 0.2992125984251969,
                    "duration": 0.1300983333333363
                },
                {
                    "name": "A#4",
                    "midi": 70,
                    "time": 193.0659266666683,
                    "velocity": 0.2992125984251969,
                    "duration": 0.1300983333333363
                },
                {
                    "name": "D4",
                    "midi": 62,
                    "time": 193.19602500000164,
                    "velocity": 0.33070866141732286,
                    "duration": 0.1300983333333363
                },
                {
                    "name": "F4",
                    "midi": 65,
                    "time": 193.32612333333498,
                    "velocity": 0.30708661417322836,
                    "duration": 0.1300983333333363
                },
                {
                    "name": "A#4",
                    "midi": 70,
                    "time": 193.4562216666683,
                    "velocity": 0.30708661417322836,
                    "duration": 0.1300983333333363
                },
                {
                    "name": "D#4",
                    "midi": 63,
                    "time": 193.58632000000165,
                    "velocity": 0.36220472440944884,
                    "duration": 0.1300983333333363
                },
                {
                    "name": "G4",
                    "midi": 67,
                    "time": 193.71641833333499,
                    "velocity": 0.30708661417322836,
                    "duration": 0.1300983333333363
                },
                {
                    "name": "A#4",
                    "midi": 70,
                    "time": 193.84651666666832,
                    "velocity": 0.30708661417322836,
                    "duration": 0.1300983333333363
                },
                {
                    "name": "D#4",
                    "midi": 63,
                    "time": 193.97661500000166,
                    "velocity": 0.36220472440944884,
                    "duration": 0.1300983333333363
                },
                {
                    "name": "G4",
                    "midi": 67,
                    "time": 194.106713333335,
                    "velocity": 0.30708661417322836,
                    "duration": 0.1300983333333363
                },
                {
                    "name": "A#4",
                    "midi": 70,
                    "time": 194.23681166666833,
                    "velocity": 0.2440944881889764,
                    "duration": 0.1300983333333363
                },
                {
                    "name": "D#4",
                    "midi": 63,
                    "time": 194.36691000000167,
                    "velocity": 0.33070866141732286,
                    "duration": 0.1300983333333363
                },
                {
                    "name": "G4",
                    "midi": 67,
                    "time": 194.497008333335,
                    "velocity": 0.2677165354330709,
                    "duration": 0.1300983333333363
                },
                {
                    "name": "A#4",
                    "midi": 70,
                    "time": 194.62710666666834,
                    "velocity": 0.2677165354330709,
                    "duration": 0.1300983333333363
                },
                {
                    "name": "D#4",
                    "midi": 63,
                    "time": 194.75720500000168,
                    "velocity": 0.33070866141732286,
                    "duration": 0.1300983333333363
                },
                {
                    "name": "G4",
                    "midi": 67,
                    "time": 194.887303333335,
                    "velocity": 0.30708661417322836,
                    "duration": 0.1300983333333363
                },
                {
                    "name": "A#4",
                    "midi": 70,
                    "time": 195.01740166666835,
                    "velocity": 0.30708661417322836,
                    "duration": 0.1300983333333363
                },
                {
                    "name": "F4",
                    "midi": 65,
                    "time": 195.14750000000168,
                    "velocity": 0.30708661417322836,
                    "duration": 0.1300983333333363
                },
                {
                    "name": "G#4",
                    "midi": 68,
                    "time": 195.27759833333502,
                    "velocity": 0.25984251968503935,
                    "duration": 0.1300983333333363
                },
                {
                    "name": "B4",
                    "midi": 71,
                    "time": 195.40769666666836,
                    "velocity": 0.25984251968503935,
                    "duration": 0.1300983333333363
                },
                {
                    "name": "F4",
                    "midi": 65,
                    "time": 195.5377950000017,
                    "velocity": 0.30708661417322836,
                    "duration": 0.1300983333333363
                },
                {
                    "name": "G#4",
                    "midi": 68,
                    "time": 195.66789333333503,
                    "velocity": 0.25984251968503935,
                    "duration": 0.1300983333333363
                },
                {
                    "name": "B4",
                    "midi": 71,
                    "time": 195.79799166666837,
                    "velocity": 0.23622047244094488,
                    "duration": 0.1300983333333363
                },
                {
                    "name": "F4",
                    "midi": 65,
                    "time": 195.9280900000017,
                    "velocity": 0.29133858267716534,
                    "duration": 0.1300983333333363
                },
                {
                    "name": "G#4",
                    "midi": 68,
                    "time": 196.05818833333504,
                    "velocity": 0.25984251968503935,
                    "duration": 0.1300983333333363
                },
                {
                    "name": "B4",
                    "midi": 71,
                    "time": 196.18828666666838,
                    "velocity": 0.2677165354330709,
                    "duration": 0.1300983333333363
                },
                {
                    "name": "F4",
                    "midi": 65,
                    "time": 196.3183850000017,
                    "velocity": 0.2992125984251969,
                    "duration": 0.1300983333333363
                },
                {
                    "name": "G#4",
                    "midi": 68,
                    "time": 196.44848333333505,
                    "velocity": 0.28346456692913385,
                    "duration": 0.1300983333333363
                },
                {
                    "name": "B4",
                    "midi": 71,
                    "time": 196.57858166666838,
                    "velocity": 0.28346456692913385,
                    "duration": 0.1300983333333363
                },
                {
                    "name": "D#4",
                    "midi": 63,
                    "time": 196.70868000000172,
                    "velocity": 0.33858267716535434,
                    "duration": 0.1300983333333363
                },
                {
                    "name": "G#4",
                    "midi": 68,
                    "time": 196.83877833333506,
                    "velocity": 0.29133858267716534,
                    "duration": 0.1300983333333363
                },
                {
                    "name": "B4",
                    "midi": 71,
                    "time": 196.9688766666684,
                    "velocity": 0.29133858267716534,
                    "duration": 0.1300983333333363
                },
                {
                    "name": "D#4",
                    "midi": 63,
                    "time": 197.09897500000173,
                    "velocity": 0.3464566929133858,
                    "duration": 0.1300983333333363
                },
                {
                    "name": "G#4",
                    "midi": 68,
                    "time": 197.22907333333507,
                    "velocity": 0.2992125984251969,
                    "duration": 0.1300983333333363
                },
                {
                    "name": "B4",
                    "midi": 71,
                    "time": 197.3591716666684,
                    "velocity": 0.2677165354330709,
                    "duration": 0.1300983333333363
                },
                {
                    "name": "D#4",
                    "midi": 63,
                    "time": 197.48927000000174,
                    "velocity": 0.33070866141732286,
                    "duration": 0.1300983333333363
                },
                {
                    "name": "G#4",
                    "midi": 68,
                    "time": 197.61936833333507,
                    "velocity": 0.2992125984251969,
                    "duration": 0.1300983333333363
                },
                {
                    "name": "B4",
                    "midi": 71,
                    "time": 197.7494666666684,
                    "velocity": 0.30708661417322836,
                    "duration": 0.1300983333333363
                },
                {
                    "name": "D#4",
                    "midi": 63,
                    "time": 197.87956500000175,
                    "velocity": 0.33070866141732286,
                    "duration": 0.1300983333333363
                },
                {
                    "name": "G#4",
                    "midi": 68,
                    "time": 198.00966333333508,
                    "velocity": 0.3228346456692913,
                    "duration": 0.1300983333333363
                },
                {
                    "name": "B4",
                    "midi": 71,
                    "time": 198.13976166666842,
                    "velocity": 0.3228346456692913,
                    "duration": 0.1300983333333363
                },
                {
                    "name": "C#4",
                    "midi": 61,
                    "time": 198.26986000000176,
                    "velocity": 0.3858267716535433,
                    "duration": 0.1300983333333363
                },
                {
                    "name": "G#4",
                    "midi": 68,
                    "time": 198.3999583333351,
                    "velocity": 0.33070866141732286,
                    "duration": 0.1300983333333363
                },
                {
                    "name": "B4",
                    "midi": 71,
                    "time": 198.53005666666843,
                    "velocity": 0.33070866141732286,
                    "duration": 0.1300983333333363
                },
                {
                    "name": "C#4",
                    "midi": 61,
                    "time": 198.66015500000177,
                    "velocity": 0.3937007874015748,
                    "duration": 0.1300983333333363
                },
                {
                    "name": "G#4",
                    "midi": 68,
                    "time": 198.7902533333351,
                    "velocity": 0.33858267716535434,
                    "duration": 0.1300983333333363
                },
                {
                    "name": "B4",
                    "midi": 71,
                    "time": 198.92035166666844,
                    "velocity": 0.30708661417322836,
                    "duration": 0.1300983333333363
                },
                {
                    "name": "C#4",
                    "midi": 61,
                    "time": 199.05045000000177,
                    "velocity": 0.3779527559055118,
                    "duration": 0.1300983333333363
                },
                {
                    "name": "G#4",
                    "midi": 68,
                    "time": 199.1805483333351,
                    "velocity": 0.33858267716535434,
                    "duration": 0.1300983333333363
                },
                {
                    "name": "B4",
                    "midi": 71,
                    "time": 199.31064666666845,
                    "velocity": 0.3464566929133858,
                    "duration": 0.1300983333333363
                },
                {
                    "name": "C#4",
                    "midi": 61,
                    "time": 199.44074500000178,
                    "velocity": 0.3779527559055118,
                    "duration": 0.1300983333333363
                },
                {
                    "name": "G#4",
                    "midi": 68,
                    "time": 199.57084333333512,
                    "velocity": 0.3543307086614173,
                    "duration": 0.1300983333333363
                },
                {
                    "name": "B4",
                    "midi": 71,
                    "time": 199.70094166666846,
                    "velocity": 0.36220472440944884,
                    "duration": 0.1300983333333363
                },
                {
                    "name": "C#4",
                    "midi": 61,
                    "time": 199.8310400000018,
                    "velocity": 0.4330708661417323,
                    "duration": 0.1300983333333363
                },
                {
                    "name": "F#4",
                    "midi": 66,
                    "time": 199.96113833333513,
                    "velocity": 0.3700787401574803,
                    "duration": 0.1300983333333363
                },
                {
                    "name": "A#4",
                    "midi": 70,
                    "time": 200.09042355208513,
                    "velocity": 0.3700787401574803,
                    "duration": 0.1300983333333363
                },
                {
                    "name": "C#4",
                    "midi": 61,
                    "time": 200.2213350000018,
                    "velocity": 0.44881889763779526,
                    "duration": 0.1300983333333363
                },
                {
                    "name": "F#4",
                    "midi": 66,
                    "time": 200.35143333333514,
                    "velocity": 0.3779527559055118,
                    "duration": 0.1300983333333363
                },
                {
                    "name": "A#4",
                    "midi": 70,
                    "time": 200.48071855208514,
                    "velocity": 0.3464566929133858,
                    "duration": 0.1300983333333363
                },
                {
                    "name": "C#4",
                    "midi": 61,
                    "time": 200.6116300000018,
                    "velocity": 0.41732283464566927,
                    "duration": 0.1300983333333363
                },
                {
                    "name": "F#4",
                    "midi": 66,
                    "time": 200.74172833333515,
                    "velocity": 0.3779527559055118,
                    "duration": 0.1300983333333363
                },
                {
                    "name": "A#4",
                    "midi": 70,
                    "time": 200.87101355208515,
                    "velocity": 0.3779527559055118,
                    "duration": 0.1300983333333363
                },
                {
                    "name": "C#4",
                    "midi": 61,
                    "time": 201.00192500000182,
                    "velocity": 0.4251968503937008,
                    "duration": 0.1300983333333363
                },
                {
                    "name": "F#4",
                    "midi": 66,
                    "time": 201.13202333333516,
                    "velocity": 0.4015748031496063,
                    "duration": 0.1300983333333363
                },
                {
                    "name": "A#4",
                    "midi": 70,
                    "time": 201.26130855208515,
                    "velocity": 0.4015748031496063,
                    "duration": 0.1300983333333363
                },
                {
                    "name": "C#4",
                    "midi": 61,
                    "time": 201.39222000000183,
                    "velocity": 0.4881889763779528,
                    "duration": 0.1300983333333363
                },
                {
                    "name": "F4",
                    "midi": 65,
                    "time": 201.52231833333516,
                    "velocity": 0.4094488188976378,
                    "duration": 0.1300983333333363
                },
                {
                    "name": "G#4",
                    "midi": 68,
                    "time": 201.6524166666685,
                    "velocity": 0.3700787401574803,
                    "duration": 0.1300983333333363
                },
                {
                    "name": "C#4",
                    "midi": 61,
                    "time": 201.78251500000184,
                    "velocity": 0.44881889763779526,
                    "duration": 0.1300983333333363
                },
                {
                    "name": "F4",
                    "midi": 65,
                    "time": 201.91261333333517,
                    "velocity": 0.3700787401574803,
                    "duration": 0.1300983333333363
                },
                {
                    "name": "G#4",
                    "midi": 68,
                    "time": 202.0427116666685,
                    "velocity": 0.3228346456692913,
                    "duration": 0.1300983333333363
                },
                {
                    "name": "C#4",
                    "midi": 61,
                    "time": 202.17281000000185,
                    "velocity": 0.36220472440944884,
                    "duration": 0.1300983333333363
                },
                {
                    "name": "F4",
                    "midi": 65,
                    "time": 202.30290833333518,
                    "velocity": 0.3228346456692913,
                    "duration": 0.1300983333333363
                },
                {
                    "name": "G#4",
                    "midi": 68,
                    "time": 202.43300666666852,
                    "velocity": 0.3228346456692913,
                    "duration": 0.1300983333333363
                },
                {
                    "name": "C#4",
                    "midi": 61,
                    "time": 202.56310500000185,
                    "velocity": 0.33070866141732286,
                    "duration": 0.1300983333333363
                },
                {
                    "name": "F4",
                    "midi": 65,
                    "time": 202.6932033333352,
                    "velocity": 0.30708661417322836,
                    "duration": 0.1300983333333363
                },
                {
                    "name": "G#4",
                    "midi": 68,
                    "time": 202.82330166666853,
                    "velocity": 0.30708661417322836,
                    "duration": 0.1300983333333363
                },
                {
                    "name": "D4",
                    "midi": 62,
                    "time": 202.95340000000186,
                    "velocity": 0.36220472440944884,
                    "duration": 0.1300983333333363
                },
                {
                    "name": "F4",
                    "midi": 65,
                    "time": 203.0834983333352,
                    "velocity": 0.30708661417322836,
                    "duration": 0.1300983333333363
                },
                {
                    "name": "A#4",
                    "midi": 70,
                    "time": 203.21359666666854,
                    "velocity": 0.30708661417322836,
                    "duration": 0.1300983333333363
                },
                {
                    "name": "D4",
                    "midi": 62,
                    "time": 203.34369500000187,
                    "velocity": 0.36220472440944884,
                    "duration": 0.1300983333333363
                },
                {
                    "name": "F4",
                    "midi": 65,
                    "time": 203.4737933333352,
                    "velocity": 0.30708661417322836,
                    "duration": 0.1300983333333363
                },
                {
                    "name": "A#4",
                    "midi": 70,
                    "time": 203.60389166666855,
                    "velocity": 0.2755905511811024,
                    "duration": 0.1300983333333363
                },
                {
                    "name": "D4",
                    "midi": 62,
                    "time": 203.73399000000188,
                    "velocity": 0.33070866141732286,
                    "duration": 0.1300983333333363
                },
                {
                    "name": "F4",
                    "midi": 65,
                    "time": 203.86408833333522,
                    "velocity": 0.2992125984251969,
                    "duration": 0.1300983333333363
                },
                {
                    "name": "A#4",
                    "midi": 70,
                    "time": 203.99418666666855,
                    "velocity": 0.2992125984251969,
                    "duration": 0.1300983333333363
                },
                {
                    "name": "D4",
                    "midi": 62,
                    "time": 204.1242850000019,
                    "velocity": 0.33070866141732286,
                    "duration": 0.1300983333333363
                },
                {
                    "name": "F4",
                    "midi": 65,
                    "time": 204.25438333333523,
                    "velocity": 0.30708661417322836,
                    "duration": 0.1300983333333363
                },
                {
                    "name": "A#4",
                    "midi": 70,
                    "time": 204.38448166666856,
                    "velocity": 0.30708661417322836,
                    "duration": 0.1300983333333363
                },
                {
                    "name": "D#4",
                    "midi": 63,
                    "time": 204.5145800000019,
                    "velocity": 0.36220472440944884,
                    "duration": 0.1300983333333363
                },
                {
                    "name": "A#4",
                    "midi": 70,
                    "time": 204.64467833333524,
                    "velocity": 0.30708661417322836,
                    "duration": 0.1300983333333363
                },
                {
                    "name": "C#5",
                    "midi": 73,
                    "time": 204.77477666666857,
                    "velocity": 0.30708661417322836,
                    "duration": 0.1300983333333363
                },
                {
                    "name": "D#4",
                    "midi": 63,
                    "time": 204.9048750000019,
                    "velocity": 0.36220472440944884,
                    "duration": 0.1300983333333363
                },
                {
                    "name": "A#4",
                    "midi": 70,
                    "time": 205.03497333333524,
                    "velocity": 0.30708661417322836,
                    "duration": 0.1300983333333363
                },
                {
                    "name": "C#5",
                    "midi": 73,
                    "time": 205.16507166666858,
                    "velocity": 0.2440944881889764,
                    "duration": 0.1300983333333363
                },
                {
                    "name": "D#4",
                    "midi": 63,
                    "time": 205.29517000000192,
                    "velocity": 0.33070866141732286,
                    "duration": 0.1300983333333363
                },
                {
                    "name": "A#4",
                    "midi": 70,
                    "time": 205.42526833333525,
                    "velocity": 0.2677165354330709,
                    "duration": 0.1300983333333363
                },
                {
                    "name": "C#5",
                    "midi": 73,
                    "time": 205.5553666666686,
                    "velocity": 0.2677165354330709,
                    "duration": 0.1300983333333363
                },
                {
                    "name": "D#4",
                    "midi": 63,
                    "time": 205.68546500000193,
                    "velocity": 0.33070866141732286,
                    "duration": 0.1300983333333363
                },
                {
                    "name": "G4",
                    "midi": 67,
                    "time": 205.81556333333526,
                    "velocity": 0.30708661417322836,
                    "duration": 0.1300983333333363
                },
                {
                    "name": "A#4",
                    "midi": 70,
                    "time": 205.9456616666686,
                    "velocity": 0.30708661417322836,
                    "duration": 0.1300983333333363
                },
                {
                    "name": "E4",
                    "midi": 64,
                    "time": 206.07576000000194,
                    "velocity": 0.3937007874015748,
                    "duration": 0.1300983333333363
                },
                {
                    "name": "G4",
                    "midi": 67,
                    "time": 206.20585833333527,
                    "velocity": 0.33070866141732286,
                    "duration": 0.1300983333333363
                },
                {
                    "name": "C5",
                    "midi": 72,
                    "time": 206.3359566666686,
                    "velocity": 0.33070866141732286,
                    "duration": 0.1300983333333363
                },
                {
                    "name": "E4",
                    "midi": 64,
                    "time": 206.46605500000194,
                    "velocity": 0.3937007874015748,
                    "duration": 0.1300983333333363
                },
                {
                    "name": "G4",
                    "midi": 67,
                    "time": 206.59615333333528,
                    "velocity": 0.33070866141732286,
                    "duration": 0.1300983333333363
                },
                {
                    "name": "C5",
                    "midi": 72,
                    "time": 206.72625166666862,
                    "velocity": 0.2992125984251969,
                    "duration": 0.1300983333333363
                },
                {
                    "name": "E4",
                    "midi": 64,
                    "time": 206.85635000000195,
                    "velocity": 0.36220472440944884,
                    "duration": 0.1300983333333363
                },
                {
                    "name": "G4",
                    "midi": 67,
                    "time": 206.9864483333353,
                    "velocity": 0.3228346456692913,
                    "duration": 0.1300983333333363
                },
                {
                    "name": "C5",
                    "midi": 72,
                    "time": 207.11654666666863,
                    "velocity": 0.3228346456692913,
                    "duration": 0.1300983333333363
                },
                {
                    "name": "E4",
                    "midi": 64,
                    "time": 207.24664500000196,
                    "velocity": 0.36220472440944884,
                    "duration": 0.1300983333333363
                },
                {
                    "name": "G4",
                    "midi": 67,
                    "time": 207.3767433333353,
                    "velocity": 0.33070866141732286,
                    "duration": 0.1300983333333363
                },
                {
                    "name": "C5",
                    "midi": 72,
                    "time": 207.50684166666863,
                    "velocity": 0.33070866141732286,
                    "duration": 0.1300983333333363
                },
                {
                    "name": "F4",
                    "midi": 65,
                    "time": 207.63694000000197,
                    "velocity": 0.3937007874015748,
                    "duration": 0.39029500000000894
                },
                {
                    "name": "A2",
                    "midi": 45,
                    "time": 210.75930000000199,
                    "velocity": 0.36220472440944884,
                    "duration": 0.1300983333333363
                },
                {
                    "name": "C3",
                    "midi": 48,
                    "time": 210.88939833333532,
                    "velocity": 0.30708661417322836,
                    "duration": 0.1300983333333363
                },
                {
                    "name": "D#3",
                    "midi": 51,
                    "time": 211.01949666666866,
                    "velocity": 0.30708661417322836,
                    "duration": 0.1300983333333363
                },
                {
                    "name": "A2",
                    "midi": 45,
                    "time": 211.149595000002,
                    "velocity": 0.36220472440944884,
                    "duration": 0.1300983333333363
                },
                {
                    "name": "C3",
                    "midi": 48,
                    "time": 211.27969333333533,
                    "velocity": 0.30708661417322836,
                    "duration": 0.1300983333333363
                },
                {
                    "name": "D#3",
                    "midi": 51,
                    "time": 211.40979166666867,
                    "velocity": 0.3228346456692913,
                    "duration": 0.1300983333333363
                },
                {
                    "name": "A2",
                    "midi": 45,
                    "time": 211.539890000002,
                    "velocity": 0.36220472440944884,
                    "duration": 0.1300983333333363
                },
                {
                    "name": "C3",
                    "midi": 48,
                    "time": 211.66998833333534,
                    "velocity": 0.33070866141732286,
                    "duration": 0.1300983333333363
                },
                {
                    "name": "D#3",
                    "midi": 51,
                    "time": 211.80008666666868,
                    "velocity": 0.33070866141732286,
                    "duration": 0.1300983333333363
                },
                {
                    "name": "A2",
                    "midi": 45,
                    "time": 211.930185000002,
                    "velocity": 0.36220472440944884,
                    "duration": 0.1300983333333363
                },
                {
                    "name": "C3",
                    "midi": 48,
                    "time": 212.06028333333535,
                    "velocity": 0.3464566929133858,
                    "duration": 0.1300983333333363
                },
                {
                    "name": "F3",
                    "midi": 53,
                    "time": 212.19038166666869,
                    "velocity": 0.3464566929133858,
                    "duration": 0.1300983333333363
                },
                {
                    "name": "A#2",
                    "midi": 46,
                    "time": 212.32048000000202,
                    "velocity": 0.36220472440944884,
                    "duration": 0.1300983333333363
                },
                {
                    "name": "C#3",
                    "midi": 49,
                    "time": 212.45545702083535,
                    "velocity": 0.30708661417322836,
                    "duration": 0.1300983333333079
                },
                {
                    "name": "F3",
                    "midi": 53,
                    "time": 212.576611093752,
                    "velocity": 0.30708661417322836,
                    "duration": 0.1300983333333079
                },
                {
                    "name": "A#2",
                    "midi": 46,
                    "time": 212.71077500000197,
                    "velocity": 0.36220472440944884,
                    "duration": 0.1300983333333363
                },
                {
                    "name": "C#3",
                    "midi": 49,
                    "time": 212.8408733333353,
                    "velocity": 0.30708661417322836,
                    "duration": 0.1300983333333363
                },
                {
                    "name": "F3",
                    "midi": 53,
                    "time": 212.97097166666865,
                    "velocity": 0.3228346456692913,
                    "duration": 0.1300983333333363
                },
                {
                    "name": "A#2",
                    "midi": 46,
                    "time": 213.09700442708532,
                    "velocity": 0.36220472440944884,
                    "duration": 0.1300983333333363
                },
                {
                    "name": "C#3",
                    "midi": 49,
                    "time": 213.22710276041866,
                    "velocity": 0.33070866141732286,
                    "duration": 0.1300983333333363
                },
                {
                    "name": "F3",
                    "midi": 53,
                    "time": 213.36126666666866,
                    "velocity": 0.33070866141732286,
                    "duration": 0.1300983333333363
                },
                {
                    "name": "A#2",
                    "midi": 46,
                    "time": 213.491365000002,
                    "velocity": 0.36220472440944884,
                    "duration": 0.1300983333333363
                },
                {
                    "name": "C#3",
                    "midi": 49,
                    "time": 213.62146333333533,
                    "velocity": 0.3464566929133858,
                    "duration": 0.1300983333333363
                },
                {
                    "name": "F3",
                    "midi": 53,
                    "time": 213.75156166666866,
                    "velocity": 0.3464566929133858,
                    "duration": 0.1300983333333363
                },
                {
                    "name": "B2",
                    "midi": 47,
                    "time": 213.881660000002,
                    "velocity": 0.36220472440944884,
                    "duration": 0.1300983333333363
                },
                {
                    "name": "D3",
                    "midi": 50,
                    "time": 214.01175833333534,
                    "velocity": 0.30708661417322836,
                    "duration": 0.1300983333333363
                },
                {
                    "name": "F3",
                    "midi": 53,
                    "time": 214.14185666666867,
                    "velocity": 0.30708661417322836,
                    "duration": 0.1300983333333363
                },
                {
                    "name": "B2",
                    "midi": 47,
                    "time": 214.271955000002,
                    "velocity": 0.36220472440944884,
                    "duration": 0.1300983333333363
                },
                {
                    "name": "D3",
                    "midi": 50,
                    "time": 214.40205333333535,
                    "velocity": 0.30708661417322836,
                    "duration": 0.1300983333333363
                },
                {
                    "name": "F3",
                    "midi": 53,
                    "time": 214.53215166666868,
                    "velocity": 0.3228346456692913,
                    "duration": 0.1300983333333363
                },
                {
                    "name": "B2",
                    "midi": 47,
                    "time": 214.66225000000202,
                    "velocity": 0.36220472440944884,
                    "duration": 0.1300983333333363
                },
                {
                    "name": "D3",
                    "midi": 50,
                    "time": 214.79234833333535,
                    "velocity": 0.33070866141732286,
                    "duration": 0.1300983333333363
                },
                {
                    "name": "F3",
                    "midi": 53,
                    "time": 214.9224466666687,
                    "velocity": 0.33070866141732286,
                    "duration": 0.1300983333333363
                },
                {
                    "name": "B2",
                    "midi": 47,
                    "time": 215.05254500000203,
                    "velocity": 0.36220472440944884,
                    "duration": 0.1300983333333363
                },
                {
                    "name": "D3",
                    "midi": 50,
                    "time": 215.18264333333536,
                    "velocity": 0.3464566929133858,
                    "duration": 0.1300983333333363
                },
                {
                    "name": "G3",
                    "midi": 55,
                    "time": 215.3127416666687,
                    "velocity": 0.3464566929133858,
                    "duration": 0.1300983333333363
                },
                {
                    "name": "C3",
                    "midi": 48,
                    "time": 215.44284000000204,
                    "velocity": 0.4409448818897638,
                    "duration": 0.39029500000000894
                },
                {
                    "name": "C3",
                    "midi": 48,
                    "time": 216.22343000000205,
                    "velocity": 0.3700787401574803,
                    "duration": 0.39029500000000894
                },
                {
                    "name": "E3",
                    "midi": 52,
                    "time": 216.22343000000205,
                    "velocity": 0.4409448818897638,
                    "duration": 0.39029500000000894
                },
                {
                    "name": "C3",
                    "midi": 48,
                    "time": 217.00402000000207,
                    "velocity": 0.3700787401574803,
                    "duration": 0.39029500000000894
                },
                {
                    "name": "E3",
                    "midi": 52,
                    "time": 217.00402000000207,
                    "velocity": 0.4409448818897638,
                    "duration": 0.39029500000000894
                },
                {
                    "name": "C3",
                    "midi": 48,
                    "time": 217.7846100000021,
                    "velocity": 0.3779527559055118,
                    "duration": 0.39029500000000894
                },
                {
                    "name": "E3",
                    "midi": 52,
                    "time": 217.7846100000021,
                    "velocity": 0.4566929133858268,
                    "duration": 0.39029500000000894
                },
                {
                    "name": "F3",
                    "midi": 53,
                    "time": 218.5652000000021,
                    "velocity": 0.3937007874015748,
                    "duration": 0.39029500000000894
                },
                {
                    "name": "G#3",
                    "midi": 56,
                    "time": 218.5652000000021,
                    "velocity": 0.4645669291338583,
                    "duration": 0.39029500000000894
                },
                {
                    "name": "C3",
                    "midi": 48,
                    "time": 219.34579000000213,
                    "velocity": 0.4094488188976378,
                    "duration": 0.39029500000000894
                },
                {
                    "name": "G3",
                    "midi": 55,
                    "time": 219.34579000000213,
                    "velocity": 0.4881889763779528,
                    "duration": 0.39029500000000894
                },
                {
                    "name": "F3",
                    "midi": 53,
                    "time": 220.12638000000214,
                    "velocity": 0.41732283464566927,
                    "duration": 0.39029500000000894
                },
                {
                    "name": "G#3",
                    "midi": 56,
                    "time": 220.12638000000214,
                    "velocity": 0.49606299212598426,
                    "duration": 0.39029500000000894
                },
                {
                    "name": "A#2",
                    "midi": 46,
                    "time": 220.90697000000216,
                    "velocity": 0.4251968503937008,
                    "duration": 0.39029500000000894
                },
                {
                    "name": "A#3",
                    "midi": 58,
                    "time": 220.90697000000216,
                    "velocity": 0.5118110236220472,
                    "duration": 0.39029500000000894
                },
                {
                    "name": "C4",
                    "midi": 60,
                    "time": 221.68756000000218,
                    "velocity": 0.5196850393700787,
                    "duration": 0.39029500000000894
                },
                {
                    "name": "C3",
                    "midi": 48,
                    "time": 222.4681500000022,
                    "velocity": 0.4409448818897638,
                    "duration": 0.39029500000000894
                },
                {
                    "name": "A3",
                    "midi": 57,
                    "time": 223.24874000000221,
                    "velocity": 0.31496062992125984,
                    "duration": 0.1300983333333363
                },
                {
                    "name": "C4",
                    "midi": 60,
                    "time": 223.37883833333555,
                    "velocity": 0.25196850393700787,
                    "duration": 0.1300983333333363
                },
                {
                    "name": "F#4",
                    "midi": 66,
                    "time": 223.5089366666689,
                    "velocity": 0.25196850393700787,
                    "duration": 0.1300983333333363
                },
                {
                    "name": "A3",
                    "midi": 57,
                    "time": 223.63903500000222,
                    "velocity": 0.30708661417322836,
                    "duration": 0.1300983333333363
                },
                {
                    "name": "C4",
                    "midi": 60,
                    "time": 223.76913333333556,
                    "velocity": 0.25984251968503935,
                    "duration": 0.1300983333333363
                },
                {
                    "name": "F#4",
                    "midi": 66,
                    "time": 223.8992316666689,
                    "velocity": 0.25984251968503935,
                    "duration": 0.1300983333333363
                },
                {
                    "name": "A3",
                    "midi": 57,
                    "time": 224.02933000000223,
                    "velocity": 0.2992125984251969,
                    "duration": 0.1300983333333363
                },
                {
                    "name": "C4",
                    "midi": 60,
                    "time": 224.15942833333557,
                    "velocity": 0.25984251968503935,
                    "duration": 0.1300983333333363
                },
                {
                    "name": "F#4",
                    "midi": 66,
                    "time": 224.2895266666689,
                    "velocity": 0.25984251968503935,
                    "duration": 0.1300983333333363
                },
                {
                    "name": "A3",
                    "midi": 57,
                    "time": 224.41962500000224,
                    "velocity": 0.31496062992125984,
                    "duration": 0.1300983333333363
                },
                {
                    "name": "C4",
                    "midi": 60,
                    "time": 224.54972333333558,
                    "velocity": 0.25196850393700787,
                    "duration": 0.1300983333333363
                },
                {
                    "name": "F#4",
                    "midi": 66,
                    "time": 224.67982166666891,
                    "velocity": 0.25196850393700787,
                    "duration": 0.1300983333333363
                },
                {
                    "name": "A#3",
                    "midi": 58,
                    "time": 224.80992000000225,
                    "velocity": 0.2992125984251969,
                    "duration": 0.1300983333333363
                },
                {
                    "name": "F4",
                    "midi": 65,
                    "time": 224.9400183333356,
                    "velocity": 0.25984251968503935,
                    "duration": 0.1300983333333363
                },
                {
                    "name": "G#4",
                    "midi": 68,
                    "time": 225.07011666666892,
                    "velocity": 0.25984251968503935,
                    "duration": 0.1300983333333363
                },
                {
                    "name": "A#3",
                    "midi": 58,
                    "time": 225.20021500000226,
                    "velocity": 0.2992125984251969,
                    "duration": 0.1300983333333363
                },
                {
                    "name": "F4",
                    "midi": 65,
                    "time": 225.3303133333356,
                    "velocity": 0.25984251968503935,
                    "duration": 0.1300983333333363
                },
                {
                    "name": "G#4",
                    "midi": 68,
                    "time": 225.46041166666893,
                    "velocity": 0.25984251968503935,
                    "duration": 0.1300983333333363
                },
                {
                    "name": "A#3",
                    "midi": 58,
                    "time": 225.59051000000227,
                    "velocity": 0.2992125984251969,
                    "duration": 0.1300983333333363
                },
                {
                    "name": "F4",
                    "midi": 65,
                    "time": 225.7206083333356,
                    "velocity": 0.25196850393700787,
                    "duration": 0.1300983333333363
                },
                {
                    "name": "G#4",
                    "midi": 68,
                    "time": 225.85070666666894,
                    "velocity": 0.25196850393700787,
                    "duration": 0.1300983333333363
                },
                {
                    "name": "A#3",
                    "midi": 58,
                    "time": 225.98080500000228,
                    "velocity": 0.31496062992125984,
                    "duration": 0.1300983333333363
                },
                {
                    "name": "F4",
                    "midi": 65,
                    "time": 226.1109033333356,
                    "velocity": 0.2677165354330709,
                    "duration": 0.1300983333333363
                },
                {
                    "name": "G#4",
                    "midi": 68,
                    "time": 226.24100166666895,
                    "velocity": 0.2677165354330709,
                    "duration": 0.1300983333333363
                },
                {
                    "name": "G3",
                    "midi": 55,
                    "time": 226.3711000000023,
                    "velocity": 0.3700787401574803,
                    "duration": 0.1300983333333363
                },
                {
                    "name": "A#3",
                    "midi": 58,
                    "time": 226.50119833333562,
                    "velocity": 0.31496062992125984,
                    "duration": 0.1300983333333363
                },
                {
                    "name": "D#4",
                    "midi": 63,
                    "time": 226.63129666666896,
                    "velocity": 0.31496062992125984,
                    "duration": 0.1300983333333363
                },
                {
                    "name": "G3",
                    "midi": 55,
                    "time": 226.7613950000023,
                    "velocity": 0.3779527559055118,
                    "duration": 0.1300983333333363
                },
                {
                    "name": "A#3",
                    "midi": 58,
                    "time": 226.89149333333563,
                    "velocity": 0.31496062992125984,
                    "duration": 0.1300983333333363
                },
                {
                    "name": "D#4",
                    "midi": 63,
                    "time": 227.02159166666897,
                    "velocity": 0.29133858267716534,
                    "duration": 0.1300983333333363
                },
                {
                    "name": "G3",
                    "midi": 55,
                    "time": 227.1516900000023,
                    "velocity": 0.3464566929133858,
                    "duration": 0.1300983333333363
                },
                {
                    "name": "A#3",
                    "midi": 58,
                    "time": 227.28178833333564,
                    "velocity": 0.31496062992125984,
                    "duration": 0.1300983333333363
                },
                {
                    "name": "D#4",
                    "midi": 63,
                    "time": 227.41188666666898,
                    "velocity": 0.31496062992125984,
                    "duration": 0.1300983333333363
                },
                {
                    "name": "G3",
                    "midi": 55,
                    "time": 227.5419850000023,
                    "velocity": 0.3543307086614173,
                    "duration": 0.1300983333333363
                },
                {
                    "name": "A#3",
                    "midi": 58,
                    "time": 227.67208333333565,
                    "velocity": 0.33070866141732286,
                    "duration": 0.1300983333333363
                },
                {
                    "name": "D#4",
                    "midi": 63,
                    "time": 227.802181666669,
                    "velocity": 0.33070866141732286,
                    "duration": 0.1300983333333363
                },
                {
                    "name": "G#3",
                    "midi": 56,
                    "time": 227.93228000000232,
                    "velocity": 0.3700787401574803,
                    "duration": 0.1300983333333363
                },
                {
                    "name": "C4",
                    "midi": 60,
                    "time": 228.06237833333566,
                    "velocity": 0.31496062992125984,
                    "duration": 0.1300983333333363
                },
                {
                    "name": "D#4",
                    "midi": 63,
                    "time": 228.192476666669,
                    "velocity": 0.31496062992125984,
                    "duration": 0.1300983333333363
                },
                {
                    "name": "G#3",
                    "midi": 56,
                    "time": 228.32257500000233,
                    "velocity": 0.3779527559055118,
                    "duration": 0.1300983333333363
                },
                {
                    "name": "C4",
                    "midi": 60,
                    "time": 228.45267333333567,
                    "velocity": 0.31496062992125984,
                    "duration": 0.1300983333333363
                },
                {
                    "name": "D#4",
                    "midi": 63,
                    "time": 228.582771666669,
                    "velocity": 0.29133858267716534,
                    "duration": 0.1300983333333363
                },
                {
                    "name": "C3",
                    "midi": 48,
                    "time": 228.71287000000234,
                    "velocity": 0.3464566929133858,
                    "duration": 0.1300983333333363
                },
                {
                    "name": "D#3",
                    "midi": 51,
                    "time": 228.84296833333568,
                    "velocity": 0.31496062992125984,
                    "duration": 0.1300983333333363
                },
                {
                    "name": "G#3",
                    "midi": 56,
                    "time": 228.973066666669,
                    "velocity": 0.31496062992125984,
                    "duration": 0.1300983333333363
                },
                {
                    "name": "C3",
                    "midi": 48,
                    "time": 229.10316500000235,
                    "velocity": 0.3543307086614173,
                    "duration": 0.1300983333333363
                },
                {
                    "name": "D#3",
                    "midi": 51,
                    "time": 229.23326333333569,
                    "velocity": 0.33070866141732286,
                    "duration": 0.1300983333333363
                },
                {
                    "name": "G#3",
                    "midi": 56,
                    "time": 229.36336166666902,
                    "velocity": 0.33070866141732286,
                    "duration": 0.1300983333333363
                },
                {
                    "name": "C#3",
                    "midi": 49,
                    "time": 229.49346000000236,
                    "velocity": 0.3700787401574803,
                    "duration": 0.1300983333333363
                },
                {
                    "name": "F3",
                    "midi": 53,
                    "time": 229.6235583333357,
                    "velocity": 0.31496062992125984,
                    "duration": 0.1300983333333363
                },
                {
                    "name": "G#3",
                    "midi": 56,
                    "time": 229.75365666666903,
                    "velocity": 0.31496062992125984,
                    "duration": 0.1300983333333363
                },
                {
                    "name": "C#3",
                    "midi": 49,
                    "time": 229.88375500000237,
                    "velocity": 0.3779527559055118,
                    "duration": 0.1300983333333363
                },
                {
                    "name": "F3",
                    "midi": 53,
                    "time": 230.0138533333357,
                    "velocity": 0.31496062992125984,
                    "duration": 0.1300983333333363
                },
                {
                    "name": "G#3",
                    "midi": 56,
                    "time": 230.14395166666904,
                    "velocity": 0.29133858267716534,
                    "duration": 0.1300983333333363
                },
                {
                    "name": "D3",
                    "midi": 50,
                    "time": 230.27405000000238,
                    "velocity": 0.3464566929133858,
                    "duration": 0.1300983333333363
                },
                {
                    "name": "F3",
                    "midi": 53,
                    "time": 230.4041483333357,
                    "velocity": 0.31496062992125984,
                    "duration": 0.1300983333333363
                },
                {
                    "name": "A#3",
                    "midi": 58,
                    "time": 230.53424666666905,
                    "velocity": 0.31496062992125984,
                    "duration": 0.1300983333333363
                },
                {
                    "name": "D3",
                    "midi": 50,
                    "time": 230.66434500000238,
                    "velocity": 0.3543307086614173,
                    "duration": 0.1300983333333363
                },
                {
                    "name": "F3",
                    "midi": 53,
                    "time": 230.79444333333572,
                    "velocity": 0.33070866141732286,
                    "duration": 0.1300983333333363
                },
                {
                    "name": "A#3",
                    "midi": 58,
                    "time": 230.92454166666906,
                    "velocity": 0.33070866141732286,
                    "duration": 0.1300983333333363
                },
                {
                    "name": "D#3",
                    "midi": 51,
                    "time": 231.0546400000024,
                    "velocity": 0.4330708661417323,
                    "duration": 0.7805899999999895
                },
                {
                    "name": "F3",
                    "midi": 53,
                    "time": 232.61582000000237,
                    "velocity": 0.3700787401574803,
                    "duration": 0.7805899999999895
                },
                {
                    "name": "G#3",
                    "midi": 56,
                    "time": 232.61582000000237,
                    "velocity": 0.4330708661417323,
                    "duration": 0.7805899999999895
                },
                {
                    "name": "F3",
                    "midi": 53,
                    "time": 238.47024500000236,
                    "velocity": 0.1889763779527559,
                    "duration": 0.39029500000000894
                },
                {
                    "name": "G#3",
                    "midi": 56,
                    "time": 238.47024500000236,
                    "velocity": 0.1889763779527559,
                    "duration": 0.39029500000000894
                },
                {
                    "name": "A#3",
                    "midi": 58,
                    "time": 238.47024500000236,
                    "velocity": 0.2283464566929134,
                    "duration": 0.39029500000000894
                },
                {
                    "name": "D#2",
                    "midi": 39,
                    "time": 242.37319500000237,
                    "velocity": 0.28346456692913385,
                    "duration": 0.39029500000000894
                },
                {
                    "name": "G#2",
                    "midi": 44,
                    "time": 243.54408000000237,
                    "velocity": 0.3858267716535433,
                    "duration": 0.39029500000000894
                },
                {
                    "name": "G#3",
                    "midi": 56,
                    "time": 243.54408000000237,
                    "velocity": 0.4566929133858268,
                    "duration": 0.39029500000000894
                },
                {
                    "name": "G2",
                    "midi": 43,
                    "time": 244.32467000000238,
                    "velocity": 0.3858267716535433,
                    "duration": 0.39029500000000894
                },
                {
                    "name": "G3",
                    "midi": 55,
                    "time": 244.32467000000238,
                    "velocity": 0.4566929133858268,
                    "duration": 0.39029500000000894
                },
                {
                    "name": "G#2",
                    "midi": 44,
                    "time": 245.49555500000238,
                    "velocity": 0.3700787401574803,
                    "duration": 0.39029500000000894
                },
                {
                    "name": "G#3",
                    "midi": 56,
                    "time": 245.8858500000024,
                    "velocity": 0.4566929133858268,
                    "duration": 0.1463606249999998
                },
                {
                    "name": "A#3",
                    "midi": 58,
                    "time": 247.0567350000024,
                    "velocity": 0.2440944881889764,
                    "duration": 0.39029500000000894
                },
                {
                    "name": "G3",
                    "midi": 55,
                    "time": 247.4470300000024,
                    "velocity": 0.30708661417322836,
                    "duration": 0.1463606249999998
                },
                {
                    "name": "G#3",
                    "midi": 56,
                    "time": 248.6179150000024,
                    "velocity": 0.3700787401574803,
                    "duration": 0.39029500000000894
                },
                {
                    "name": "G#2",
                    "midi": 44,
                    "time": 249.0082100000024,
                    "velocity": 0.4566929133858268,
                    "duration": 0.1463606249999998
                },
                {
                    "name": "C3",
                    "midi": 48,
                    "time": 249.39850500000242,
                    "velocity": 0.4094488188976378,
                    "duration": 0.39029500000000894
                },
                {
                    "name": "C#3",
                    "midi": 49,
                    "time": 249.78880000000242,
                    "velocity": 0.4566929133858268,
                    "duration": 0.7805899999999895
                },
                {
                    "name": "D#3",
                    "midi": 51,
                    "time": 250.95968500000242,
                    "velocity": 0.4094488188976378,
                    "duration": 0.39029500000000894
                },
                {
                    "name": "G#2",
                    "midi": 44,
                    "time": 251.64270125000243,
                    "velocity": 0.3700787401574803,
                    "duration": 0.09757375000000934
                },
                {
                    "name": "C3",
                    "midi": 48,
                    "time": 251.74027500000244,
                    "velocity": 0.4566929133858268,
                    "duration": 0.2927212499999996
                },
                {
                    "name": "D#3",
                    "midi": 51,
                    "time": 252.03299625000244,
                    "velocity": 0.4094488188976378,
                    "duration": 0.09757375000000934
                },
                {
                    "name": "G#3",
                    "midi": 56,
                    "time": 252.13057000000245,
                    "velocity": 0.4645669291338583,
                    "duration": 0.2927212499999996
                },
                {
                    "name": "G#3",
                    "midi": 56,
                    "time": 252.91116000000244,
                    "velocity": 0.3858267716535433,
                    "duration": 0.39029500000000894
                },
                {
                    "name": "C4",
                    "midi": 60,
                    "time": 252.91116000000244,
                    "velocity": 0.4566929133858268,
                    "duration": 0.39029500000000894
                },
                {
                    "name": "G3",
                    "midi": 55,
                    "time": 253.69175000000246,
                    "velocity": 0.3858267716535433,
                    "duration": 0.39029500000000894
                },
                {
                    "name": "A#3",
                    "midi": 58,
                    "time": 253.69175000000246,
                    "velocity": 0.4566929133858268,
                    "duration": 0.39029500000000894
                },
                {
                    "name": "G#2",
                    "midi": 44,
                    "time": 254.86263500000246,
                    "velocity": 0.3700787401574803,
                    "duration": 0.39029500000000894
                },
                {
                    "name": "G#3",
                    "midi": 56,
                    "time": 255.25293000000246,
                    "velocity": 0.4566929133858268,
                    "duration": 0.39029500000000894
                },
                {
                    "name": "C4",
                    "midi": 60,
                    "time": 255.64322500000247,
                    "velocity": 0.4566929133858268,
                    "duration": 0.3902949999999805
                },
                {
                    "name": "C#4",
                    "midi": 61,
                    "time": 256.42381500000243,
                    "velocity": 0.4566929133858268,
                    "duration": 0.09757374999998092
                },
                {
                    "name": "C4",
                    "midi": 60,
                    "time": 257.2044050000024,
                    "velocity": 0.4566929133858268,
                    "duration": 0.09757374999998092
                },
                {
                    "name": "A#3",
                    "midi": 58,
                    "time": 257.98499500000236,
                    "velocity": 0.4566929133858268,
                    "duration": 0.09757374999998092
                },
                {
                    "name": "G#3",
                    "midi": 56,
                    "time": 258.7655850000023,
                    "velocity": 0.4566929133858268,
                    "duration": 0.09757374999998092
                },
                {
                    "name": "C#4",
                    "midi": 61,
                    "time": 259.5461750000023,
                    "velocity": 0.3858267716535433,
                    "duration": 0.3902949999999805
                },
                {
                    "name": "C#3",
                    "midi": 49,
                    "time": 259.5461750000023,
                    "velocity": 0.3858267716535433,
                    "duration": 0.3902949999999805
                },
                {
                    "name": "D#3",
                    "midi": 51,
                    "time": 259.93647000000226,
                    "velocity": 0.4566929133858268,
                    "duration": 0.780589999999961
                },
                {
                    "name": "C4",
                    "midi": 60,
                    "time": 259.93647000000226,
                    "velocity": 0.4566929133858268,
                    "duration": 0.3902949999999805
                },
                {
                    "name": "A#3",
                    "midi": 58,
                    "time": 260.32676500000224,
                    "velocity": 0.4330708661417323,
                    "duration": 0.3902949999999805
                },
                {
                    "name": "G#3",
                    "midi": 56,
                    "time": 260.7170600000022,
                    "velocity": 0.4330708661417323,
                    "duration": 0.1300983333333079
                },
                {
                    "name": "C4",
                    "midi": 60,
                    "time": 260.8471583333355,
                    "velocity": 0.3700787401574803,
                    "duration": 0.1300983333333079
                },
                {
                    "name": "D#4",
                    "midi": 63,
                    "time": 260.97725666666884,
                    "velocity": 0.3700787401574803,
                    "duration": 0.1300983333333079
                },
                {
                    "name": "G#3",
                    "midi": 56,
                    "time": 261.10735500000214,
                    "velocity": 0.4330708661417323,
                    "duration": 0.1300983333333079
                },
                {
                    "name": "C4",
                    "midi": 60,
                    "time": 261.23745333333545,
                    "velocity": 0.3700787401574803,
                    "duration": 0.1300983333333079
                },
                {
                    "name": "D#4",
                    "midi": 63,
                    "time": 261.36755166666876,
                    "velocity": 0.3858267716535433,
                    "duration": 0.1300983333333079
                },
                {
                    "name": "G#3",
                    "midi": 56,
                    "time": 261.49765000000207,
                    "velocity": 0.4330708661417323,
                    "duration": 0.1300983333333079
                },
                {
                    "name": "C4",
                    "midi": 60,
                    "time": 261.6277483333354,
                    "velocity": 0.3937007874015748,
                    "duration": 0.1300983333333079
                },
                {
                    "name": "D#4",
                    "midi": 63,
                    "time": 261.7578466666687,
                    "velocity": 0.3937007874015748,
                    "duration": 0.1300983333333079
                },
                {
                    "name": "G3",
                    "midi": 55,
                    "time": 261.887945000002,
                    "velocity": 0.4330708661417323,
                    "duration": 0.1300983333333079
                },
                {
                    "name": "A#3",
                    "midi": 58,
                    "time": 262.0180433333353,
                    "velocity": 0.4094488188976378,
                    "duration": 0.1300983333333079
                },
                {
                    "name": "D#4",
                    "midi": 63,
                    "time": 262.1481416666686,
                    "velocity": 0.4094488188976378,
                    "duration": 0.1300983333333079
                },
                {
                    "name": "G#3",
                    "midi": 56,
                    "time": 262.2782400000019,
                    "velocity": 0.4330708661417323,
                    "duration": 0.1300983333333079
                },
                {
                    "name": "C4",
                    "midi": 60,
                    "time": 262.4083383333352,
                    "velocity": 0.3700787401574803,
                    "duration": 0.1300983333333079
                },
                {
                    "name": "D#4",
                    "midi": 63,
                    "time": 262.53843666666853,
                    "velocity": 0.3700787401574803,
                    "duration": 0.1300983333333079
                },
                {
                    "name": "G#3",
                    "midi": 56,
                    "time": 262.66853500000184,
                    "velocity": 0.4330708661417323,
                    "duration": 0.1300983333333079
                },
                {
                    "name": "C4",
                    "midi": 60,
                    "time": 262.79863333333515,
                    "velocity": 0.3700787401574803,
                    "duration": 0.1300983333333079
                },
                {
                    "name": "D#4",
                    "midi": 63,
                    "time": 262.92873166666845,
                    "velocity": 0.29133858267716534,
                    "duration": 0.1300983333333079
                },
                {
                    "name": "G#3",
                    "midi": 56,
                    "time": 263.05883000000176,
                    "velocity": 0.3937007874015748,
                    "duration": 0.1300983333333079
                },
                {
                    "name": "C4",
                    "midi": 60,
                    "time": 263.18892833333507,
                    "velocity": 0.3228346456692913,
                    "duration": 0.1300983333333079
                },
                {
                    "name": "D#4",
                    "midi": 63,
                    "time": 263.3190266666684,
                    "velocity": 0.3228346456692913,
                    "duration": 0.1300983333333079
                },
                {
                    "name": "G#3",
                    "midi": 56,
                    "time": 263.4491250000017,
                    "velocity": 0.3937007874015748,
                    "duration": 0.1300983333333079
                },
                {
                    "name": "C4",
                    "midi": 60,
                    "time": 263.579223333335,
                    "velocity": 0.36220472440944884,
                    "duration": 0.1300983333333079
                },
                {
                    "name": "D#4",
                    "midi": 63,
                    "time": 263.7093216666683,
                    "velocity": 0.36220472440944884,
                    "duration": 0.1300983333333079
                },
                {
                    "name": "G#3",
                    "midi": 56,
                    "time": 263.8394200000016,
                    "velocity": 0.4330708661417323,
                    "duration": 0.1300983333333079
                },
                {
                    "name": "C4",
                    "midi": 60,
                    "time": 263.9695183333349,
                    "velocity": 0.3700787401574803,
                    "duration": 0.1300983333333079
                },
                {
                    "name": "D#4",
                    "midi": 63,
                    "time": 264.0996166666682,
                    "velocity": 0.3700787401574803,
                    "duration": 0.1300983333333079
                },
                {
                    "name": "G#3",
                    "midi": 56,
                    "time": 264.22971500000153,
                    "velocity": 0.4330708661417323,
                    "duration": 0.1300983333333079
                },
                {
                    "name": "C4",
                    "midi": 60,
                    "time": 264.35981333333484,
                    "velocity": 0.3700787401574803,
                    "duration": 0.1300983333333079
                },
                {
                    "name": "D#4",
                    "midi": 63,
                    "time": 264.48991166666815,
                    "velocity": 0.3858267716535433,
                    "duration": 0.1300983333333079
                },
                {
                    "name": "G#3",
                    "midi": 56,
                    "time": 264.62001000000146,
                    "velocity": 0.4330708661417323,
                    "duration": 0.1300983333333079
                },
                {
                    "name": "C4",
                    "midi": 60,
                    "time": 264.75010833333477,
                    "velocity": 0.3937007874015748,
                    "duration": 0.1300983333333079
                },
                {
                    "name": "D#4",
                    "midi": 63,
                    "time": 264.8802066666681,
                    "velocity": 0.3937007874015748,
                    "duration": 0.1300983333333079
                },
                {
                    "name": "A#3",
                    "midi": 58,
                    "time": 265.0103050000014,
                    "velocity": 0.4330708661417323,
                    "duration": 0.1300983333333079
                },
                {
                    "name": "C#4",
                    "midi": 61,
                    "time": 265.1404033333347,
                    "velocity": 0.4094488188976378,
                    "duration": 0.1300983333333079
                },
                {
                    "name": "G4",
                    "midi": 67,
                    "time": 265.270501666668,
                    "velocity": 0.4094488188976378,
                    "duration": 0.1300983333333079
                },
                {
                    "name": "C4",
                    "midi": 60,
                    "time": 265.4006000000013,
                    "velocity": 0.4330708661417323,
                    "duration": 0.1300983333333079
                },
                {
                    "name": "D#4",
                    "midi": 63,
                    "time": 265.5306983333346,
                    "velocity": 0.3700787401574803,
                    "duration": 0.1300983333333079
                },
                {
                    "name": "G#4",
                    "midi": 68,
                    "time": 265.6607966666679,
                    "velocity": 0.3700787401574803,
                    "duration": 0.1300983333333079
                },
                {
                    "name": "C4",
                    "midi": 60,
                    "time": 265.7908950000012,
                    "velocity": 0.4330708661417323,
                    "duration": 0.1300983333333079
                },
                {
                    "name": "D#4",
                    "midi": 63,
                    "time": 265.92099333333454,
                    "velocity": 0.3700787401574803,
                    "duration": 0.1300983333333079
                },
                {
                    "name": "G#4",
                    "midi": 68,
                    "time": 266.05109166666784,
                    "velocity": 0.30708661417322836,
                    "duration": 0.1300983333333079
                },
                {
                    "name": "C4",
                    "midi": 60,
                    "time": 266.18119000000115,
                    "velocity": 0.4094488188976378,
                    "duration": 0.1300983333333079
                },
                {
                    "name": "D#4",
                    "midi": 63,
                    "time": 266.31128833333446,
                    "velocity": 0.33858267716535434,
                    "duration": 0.1300983333333079
                },
                {
                    "name": "G#4",
                    "midi": 68,
                    "time": 266.44138666666777,
                    "velocity": 0.33858267716535434,
                    "duration": 0.1300983333333079
                },
                {
                    "name": "C4",
                    "midi": 60,
                    "time": 266.5714850000011,
                    "velocity": 0.41732283464566927,
                    "duration": 0.1300983333333079
                },
                {
                    "name": "D#4",
                    "midi": 63,
                    "time": 266.7015833333344,
                    "velocity": 0.3464566929133858,
                    "duration": 0.1300983333333079
                },
                {
                    "name": "G#4",
                    "midi": 68,
                    "time": 266.8316816666677,
                    "velocity": 0.3464566929133858,
                    "duration": 0.1300983333333079
                },
                {
                    "name": "C4",
                    "midi": 60,
                    "time": 266.961780000001,
                    "velocity": 0.4330708661417323,
                    "duration": 0.1300983333333079
                },
                {
                    "name": "D#4",
                    "midi": 63,
                    "time": 267.0918783333343,
                    "velocity": 0.3700787401574803,
                    "duration": 0.1300983333333079
                },
                {
                    "name": "G#4",
                    "midi": 68,
                    "time": 267.2219766666676,
                    "velocity": 0.3700787401574803,
                    "duration": 0.1300983333333079
                },
                {
                    "name": "C4",
                    "midi": 60,
                    "time": 267.3520750000009,
                    "velocity": 0.4330708661417323,
                    "duration": 0.1300983333333079
                },
                {
                    "name": "D#4",
                    "midi": 63,
                    "time": 267.48217333333423,
                    "velocity": 0.3700787401574803,
                    "duration": 0.1300983333333079
                },
                {
                    "name": "G#4",
                    "midi": 68,
                    "time": 267.61227166666754,
                    "velocity": 0.30708661417322836,
                    "duration": 0.1300983333333079
                },
                {
                    "name": "C4",
                    "midi": 60,
                    "time": 267.74237000000085,
                    "velocity": 0.36220472440944884,
                    "duration": 0.1300983333333079
                },
                {
                    "name": "D#4",
                    "midi": 63,
                    "time": 267.87246833333415,
                    "velocity": 0.28346456692913385,
                    "duration": 0.1300983333333079
                },
                {
                    "name": "G#4",
                    "midi": 68,
                    "time": 268.00256666666746,
                    "velocity": 0.28346456692913385,
                    "duration": 0.1300983333333079
                },
                {
                    "name": "C4",
                    "midi": 60,
                    "time": 268.13266500000077,
                    "velocity": 0.3700787401574803,
                    "duration": 0.1300983333333079
                },
                {
                    "name": "D#4",
                    "midi": 63,
                    "time": 268.2627633333341,
                    "velocity": 0.31496062992125984,
                    "duration": 0.1300983333333079
                },
                {
                    "name": "G#4",
                    "midi": 68,
                    "time": 268.3928616666674,
                    "velocity": 0.31496062992125984,
                    "duration": 0.1300983333333079
                },
                {
                    "name": "C#4",
                    "midi": 61,
                    "time": 268.5229600000007,
                    "velocity": 0.4330708661417323,
                    "duration": 0.1300983333333079
                },
                {
                    "name": "F4",
                    "midi": 65,
                    "time": 268.653058333334,
                    "velocity": 0.3700787401574803,
                    "duration": 0.1300983333333079
                },
                {
                    "name": "G#4",
                    "midi": 68,
                    "time": 268.7831566666673,
                    "velocity": 0.3700787401574803,
                    "duration": 0.1300983333333079
                },
                {
                    "name": "C#4",
                    "midi": 61,
                    "time": 268.9132550000006,
                    "velocity": 0.4330708661417323,
                    "duration": 0.1300983333333079
                },
                {
                    "name": "F4",
                    "midi": 65,
                    "time": 269.0433533333339,
                    "velocity": 0.3700787401574803,
                    "duration": 0.1300983333333079
                },
                {
                    "name": "G#4",
                    "midi": 68,
                    "time": 269.17345166666723,
                    "velocity": 0.30708661417322836,
                    "duration": 0.1300983333333079
                },
                {
                    "name": "C#4",
                    "midi": 61,
                    "time": 269.30355000000054,
                    "velocity": 0.3858267716535433,
                    "duration": 0.1300983333333079
                },
                {
                    "name": "D#4",
                    "midi": 63,
                    "time": 269.43364833333385,
                    "velocity": 0.30708661417322836,
                    "duration": 0.1300983333333079
                },
                {
                    "name": "G4",
                    "midi": 67,
                    "time": 269.56374666666716,
                    "velocity": 0.30708661417322836,
                    "duration": 0.1300983333333079
                },
                {
                    "name": "C#4",
                    "midi": 61,
                    "time": 269.69384500000047,
                    "velocity": 0.3937007874015748,
                    "duration": 0.1300983333333079
                },
                {
                    "name": "D#4",
                    "midi": 63,
                    "time": 269.8239433333338,
                    "velocity": 0.3464566929133858,
                    "duration": 0.1300983333333079
                },
                {
                    "name": "G4",
                    "midi": 67,
                    "time": 269.9540416666671,
                    "velocity": 0.3464566929133858,
                    "duration": 0.1300983333333079
                },
                {
                    "name": "C4",
                    "midi": 60,
                    "time": 270.0841400000004,
                    "velocity": 0.4330708661417323,
                    "duration": 0.1300983333333079
                },
                {
                    "name": "D#4",
                    "midi": 63,
                    "time": 270.2142383333337,
                    "velocity": 0.3700787401574803,
                    "duration": 0.1300983333333079
                },
                {
                    "name": "G#4",
                    "midi": 68,
                    "time": 270.344336666667,
                    "velocity": 0.3700787401574803,
                    "duration": 0.1300983333333079
                },
                {
                    "name": "C4",
                    "midi": 60,
                    "time": 270.4744350000003,
                    "velocity": 0.4330708661417323,
                    "duration": 0.1300983333333079
                },
                {
                    "name": "D#4",
                    "midi": 63,
                    "time": 270.6045333333336,
                    "velocity": 0.3700787401574803,
                    "duration": 0.1300983333333079
                },
                {
                    "name": "G#4",
                    "midi": 68,
                    "time": 270.7346316666669,
                    "velocity": 0.30708661417322836,
                    "duration": 0.1300983333333079
                },
                {
                    "name": "A#3",
                    "midi": 58,
                    "time": 270.86473000000024,
                    "velocity": 0.4094488188976378,
                    "duration": 0.1300983333333079
                },
                {
                    "name": "C#4",
                    "midi": 61,
                    "time": 270.99482833333354,
                    "velocity": 0.33858267716535434,
                    "duration": 0.1300983333333079
                },
                {
                    "name": "G4",
                    "midi": 67,
                    "time": 271.12492666666685,
                    "velocity": 0.33858267716535434,
                    "duration": 0.1300983333333079
                },
                {
                    "name": "A#3",
                    "midi": 58,
                    "time": 271.25502500000016,
                    "velocity": 0.41732283464566927,
                    "duration": 0.1300983333333079
                },
                {
                    "name": "C#4",
                    "midi": 61,
                    "time": 271.38512333333347,
                    "velocity": 0.3464566929133858,
                    "duration": 0.1300983333333079
                },
                {
                    "name": "G4",
                    "midi": 67,
                    "time": 271.5152216666668,
                    "velocity": 0.3464566929133858,
                    "duration": 0.1300983333333079
                },
                {
                    "name": "G#3",
                    "midi": 56,
                    "time": 271.6453200000001,
                    "velocity": 0.4330708661417323,
                    "duration": 0.3902949999999805
                },
                {
                    "name": "D#4",
                    "midi": 63,
                    "time": 273.59679500000004,
                    "velocity": 0.30708661417322836,
                    "duration": 0.3902949999999805
                },
                {
                    "name": "G4",
                    "midi": 67,
                    "time": 273.59679500000004,
                    "velocity": 0.36220472440944884,
                    "duration": 0.3902949999999805
                },
                {
                    "name": "D#3",
                    "midi": 51,
                    "time": 274.76768000000004,
                    "velocity": 0.33070866141732286,
                    "duration": 0.1300983333333079
                },
                {
                    "name": "G3",
                    "midi": 55,
                    "time": 274.89777833333335,
                    "velocity": 0.2755905511811024,
                    "duration": 0.1300983333333079
                },
                {
                    "name": "A#3",
                    "midi": 58,
                    "time": 275.02787666666666,
                    "velocity": 0.2755905511811024,
                    "duration": 0.1300983333333079
                },
                {
                    "name": "D#3",
                    "midi": 51,
                    "time": 275.15797499999996,
                    "velocity": 0.31496062992125984,
                    "duration": 0.1300983333333079
                },
                {
                    "name": "G3",
                    "midi": 55,
                    "time": 275.2880733333333,
                    "velocity": 0.2440944881889764,
                    "duration": 0.1300983333333079
                },
                {
                    "name": "A#3",
                    "midi": 58,
                    "time": 275.4181716666666,
                    "velocity": 0.2440944881889764,
                    "duration": 0.1300983333333079
                },
                {
                    "name": "D#3",
                    "midi": 51,
                    "time": 275.5482699999999,
                    "velocity": 0.29133858267716534,
                    "duration": 0.1300983333333079
                },
                {
                    "name": "G3",
                    "midi": 55,
                    "time": 275.6783683333332,
                    "velocity": 0.25984251968503935,
                    "duration": 0.1300983333333079
                },
                {
                    "name": "A#3",
                    "midi": 58,
                    "time": 275.8084666666665,
                    "velocity": 0.25984251968503935,
                    "duration": 0.1300983333333079
                },
                {
                    "name": "D#3",
                    "midi": 51,
                    "time": 275.9385649999998,
                    "velocity": 0.33070866141732286,
                    "duration": 0.1300983333333079
                },
                {
                    "name": "G#3",
                    "midi": 56,
                    "time": 276.0686633333331,
                    "velocity": 0.2755905511811024,
                    "duration": 0.1300983333333079
                },
                {
                    "name": "C4",
                    "midi": 60,
                    "time": 276.1987616666664,
                    "velocity": 0.2755905511811024,
                    "duration": 0.1300983333333079
                },
                {
                    "name": "D#3",
                    "midi": 51,
                    "time": 276.32885999999974,
                    "velocity": 0.33070866141732286,
                    "duration": 0.1300983333333079
                },
                {
                    "name": "A#3",
                    "midi": 58,
                    "time": 276.45895833333304,
                    "velocity": 0.2755905511811024,
                    "duration": 0.1300983333333079
                },
                {
                    "name": "C#4",
                    "midi": 61,
                    "time": 276.58905666666635,
                    "velocity": 0.2755905511811024,
                    "duration": 0.1300983333333079
                },
                {
                    "name": "D#3",
                    "midi": 51,
                    "time": 276.71915499999966,
                    "velocity": 0.31496062992125984,
                    "duration": 0.1300983333333079
                },
                {
                    "name": "A#3",
                    "midi": 58,
                    "time": 276.84925333333297,
                    "velocity": 0.2440944881889764,
                    "duration": 0.1300983333333079
                },
                {
                    "name": "C#4",
                    "midi": 61,
                    "time": 276.9793516666663,
                    "velocity": 0.2440944881889764,
                    "duration": 0.1300983333333079
                },
                {
                    "name": "D#3",
                    "midi": 51,
                    "time": 277.1094499999996,
                    "velocity": 0.29133858267716534,
                    "duration": 0.1300983333333079
                },
                {
                    "name": "A#3",
                    "midi": 58,
                    "time": 277.2395483333329,
                    "velocity": 0.25984251968503935,
                    "duration": 0.1300983333333079
                },
                {
                    "name": "C#4",
                    "midi": 61,
                    "time": 277.3696466666662,
                    "velocity": 0.25984251968503935,
                    "duration": 0.1300983333333079
                },
                {
                    "name": "D#3",
                    "midi": 51,
                    "time": 277.4997449999995,
                    "velocity": 0.33070866141732286,
                    "duration": 0.1300983333333079
                },
                {
                    "name": "G#3",
                    "midi": 56,
                    "time": 277.6298433333328,
                    "velocity": 0.2755905511811024,
                    "duration": 0.1300983333333079
                },
                {
                    "name": "C4",
                    "midi": 60,
                    "time": 277.7599416666661,
                    "velocity": 0.2755905511811024,
                    "duration": 0.1300983333333079
                },
                {
                    "name": "D#3",
                    "midi": 51,
                    "time": 277.89003999999943,
                    "velocity": 0.33070866141732286,
                    "duration": 0.1300983333333079
                },
                {
                    "name": "G3",
                    "midi": 55,
                    "time": 278.02013833333274,
                    "velocity": 0.2755905511811024,
                    "duration": 0.1300983333333079
                },
                {
                    "name": "A#3",
                    "midi": 58,
                    "time": 278.15023666666605,
                    "velocity": 0.2755905511811024,
                    "duration": 0.1300983333333079
                },
                {
                    "name": "D#3",
                    "midi": 51,
                    "time": 278.28033499999935,
                    "velocity": 0.31496062992125984,
                    "duration": 0.1300983333333079
                },
                {
                    "name": "G3",
                    "midi": 55,
                    "time": 278.41043333333266,
                    "velocity": 0.2440944881889764,
                    "duration": 0.1300983333333079
                },
                {
                    "name": "A#3",
                    "midi": 58,
                    "time": 278.54053166666597,
                    "velocity": 0.2440944881889764,
                    "duration": 0.1300983333333079
                },
                {
                    "name": "D#3",
                    "midi": 51,
                    "time": 278.6706299999993,
                    "velocity": 0.29133858267716534,
                    "duration": 0.1300983333333079
                },
                {
                    "name": "G3",
                    "midi": 55,
                    "time": 278.8007283333326,
                    "velocity": 0.25984251968503935,
                    "duration": 0.1300983333333079
                },
                {
                    "name": "A#3",
                    "midi": 58,
                    "time": 278.9308266666659,
                    "velocity": 0.25984251968503935,
                    "duration": 0.1300983333333079
                },
                {
                    "name": "D#3",
                    "midi": 51,
                    "time": 279.0609249999992,
                    "velocity": 0.33070866141732286,
                    "duration": 0.1300983333333079
                },
                {
                    "name": "G#3",
                    "midi": 56,
                    "time": 279.1910233333325,
                    "velocity": 0.2755905511811024,
                    "duration": 0.1300983333333079
                },
                {
                    "name": "C4",
                    "midi": 60,
                    "time": 279.3211216666658,
                    "velocity": 0.2755905511811024,
                    "duration": 0.1300983333333079
                },
                {
                    "name": "D#3",
                    "midi": 51,
                    "time": 279.4512199999991,
                    "velocity": 0.33070866141732286,
                    "duration": 0.1300983333333079
                },
                {
                    "name": "A#3",
                    "midi": 58,
                    "time": 279.58131833333243,
                    "velocity": 0.2755905511811024,
                    "duration": 0.1300983333333079
                },
                {
                    "name": "C#4",
                    "midi": 61,
                    "time": 279.71141666666574,
                    "velocity": 0.2755905511811024,
                    "duration": 0.1300983333333079
                },
                {
                    "name": "D#3",
                    "midi": 51,
                    "time": 279.84151499999905,
                    "velocity": 0.31496062992125984,
                    "duration": 0.1300983333333079
                },
                {
                    "name": "A#3",
                    "midi": 58,
                    "time": 279.97161333333236,
                    "velocity": 0.2440944881889764,
                    "duration": 0.1300983333333079
                },
                {
                    "name": "C#4",
                    "midi": 61,
                    "time": 280.10171166666566,
                    "velocity": 0.2440944881889764,
                    "duration": 0.1300983333333079
                },
                {
                    "name": "D#3",
                    "midi": 51,
                    "time": 280.231809999999,
                    "velocity": 0.29133858267716534,
                    "duration": 0.1300983333333079
                },
                {
                    "name": "A#3",
                    "midi": 58,
                    "time": 280.3619083333323,
                    "velocity": 0.25984251968503935,
                    "duration": 0.1300983333333079
                },
                {
                    "name": "C#4",
                    "midi": 61,
                    "time": 280.4920066666656,
                    "velocity": 0.25984251968503935,
                    "duration": 0.1300983333333079
                },
                {
                    "name": "D#3",
                    "midi": 51,
                    "time": 280.6221049999989,
                    "velocity": 0.33070866141732286,
                    "duration": 0.1300983333333079
                },
                {
                    "name": "G#3",
                    "midi": 56,
                    "time": 280.7522033333322,
                    "velocity": 0.2755905511811024,
                    "duration": 0.1300983333333079
                },
                {
                    "name": "C4",
                    "midi": 60,
                    "time": 280.8823016666655,
                    "velocity": 0.2755905511811024,
                    "duration": 0.1300983333333079
                },
                {
                    "name": "D#3",
                    "midi": 51,
                    "time": 281.0123999999988,
                    "velocity": 0.33070866141732286,
                    "duration": 0.1300983333333079
                },
                {
                    "name": "G3",
                    "midi": 55,
                    "time": 281.1424983333321,
                    "velocity": 0.2755905511811024,
                    "duration": 0.1300983333333079
                },
                {
                    "name": "A#3",
                    "midi": 58,
                    "time": 281.27259666666544,
                    "velocity": 0.2755905511811024,
                    "duration": 0.1300983333333079
                },
                {
                    "name": "D#3",
                    "midi": 51,
                    "time": 281.40269499999874,
                    "velocity": 0.31496062992125984,
                    "duration": 0.1300983333333079
                },
                {
                    "name": "G3",
                    "midi": 55,
                    "time": 281.53279333333205,
                    "velocity": 0.2440944881889764,
                    "duration": 0.1300983333333079
                },
                {
                    "name": "A#3",
                    "midi": 58,
                    "time": 281.66289166666536,
                    "velocity": 0.2440944881889764,
                    "duration": 0.1300983333333079
                },
                {
                    "name": "E3",
                    "midi": 52,
                    "time": 281.79298999999867,
                    "velocity": 0.3228346456692913,
                    "duration": 0.1300983333333079
                },
                {
                    "name": "G3",
                    "midi": 55,
                    "time": 281.923088333332,
                    "velocity": 0.25984251968503935,
                    "duration": 0.1300983333333079
                },
                {
                    "name": "A#3",
                    "midi": 58,
                    "time": 282.0531866666653,
                    "velocity": 0.25984251968503935,
                    "duration": 0.1300983333333079
                },
                {
                    "name": "F3",
                    "midi": 53,
                    "time": 282.1832849999986,
                    "velocity": 0.33070866141732286,
                    "duration": 0.1300983333333079
                },
                {
                    "name": "G3",
                    "midi": 55,
                    "time": 282.3133833333319,
                    "velocity": 0.2755905511811024,
                    "duration": 0.1300983333333079
                },
                {
                    "name": "G#3",
                    "midi": 56,
                    "time": 282.4434816666652,
                    "velocity": 0.2755905511811024,
                    "duration": 0.1300983333333079
                },
                {
                    "name": "C#3",
                    "midi": 49,
                    "time": 282.5735799999985,
                    "velocity": 0.4094488188976378,
                    "duration": 0.780589999999961
                },
                {
                    "name": "C#4",
                    "midi": 61,
                    "time": 282.9638749999985,
                    "velocity": 0.2992125984251969,
                    "duration": 0.3902949999999805
                },
                {
                    "name": "C4",
                    "midi": 60,
                    "time": 283.3541699999985,
                    "velocity": 0.3937007874015748,
                    "duration": 0.3902949999999805
                },
                {
                    "name": "D#3",
                    "midi": 51,
                    "time": 283.3541699999985,
                    "velocity": 0.3937007874015748,
                    "duration": 0.780589999999961
                },
                {
                    "name": "A#3",
                    "midi": 58,
                    "time": 283.74446499999846,
                    "velocity": 0.30708661417322836,
                    "duration": 0.3902949999999805
                },
                {
                    "name": "G#3",
                    "midi": 56,
                    "time": 284.13475999999844,
                    "velocity": 0.5511811023622047,
                    "duration": 0.3902949999999805
                },
                {
                    "name": "D#3",
                    "midi": 51,
                    "time": 284.9153499999984,
                    "velocity": 0.4566929133858268,
                    "duration": 0.3902949999999805
                },
                {
                    "name": "A#3",
                    "midi": 58,
                    "time": 284.9153499999984,
                    "velocity": 0.5511811023622047,
                    "duration": 0.3902949999999805
                },
                {
                    "name": "G#3",
                    "midi": 56,
                    "time": 285.69593999999836,
                    "velocity": 0.5118110236220472,
                    "duration": 0.3902949999999805
                },
                {
                    "name": "C4",
                    "midi": 60,
                    "time": 285.69593999999836,
                    "velocity": 0.5511811023622047,
                    "duration": 0.3902949999999805
                },
                {
                    "name": "A#3",
                    "midi": 58,
                    "time": 286.4765299999983,
                    "velocity": 0.5354330708661418,
                    "duration": 0.3902949999999805
                },
                {
                    "name": "D#3",
                    "midi": 51,
                    "time": 286.4765299999983,
                    "velocity": 0.5354330708661418,
                    "duration": 0.3902949999999805
                },
                {
                    "name": "G#3",
                    "midi": 56,
                    "time": 287.2571199999983,
                    "velocity": 0.5118110236220472,
                    "duration": 1.1708849999999984
                },
                {
                    "name": "C4",
                    "midi": 60,
                    "time": 287.2571199999983,
                    "velocity": 0.5511811023622047,
                    "duration": 1.1708849999999984
                },
                {
                    "name": "C#4",
                    "midi": 61,
                    "time": 288.4280049999983,
                    "velocity": 0.4251968503937008,
                    "duration": 0.3902949999999805
                },
                {
                    "name": "A#3",
                    "midi": 58,
                    "time": 288.4280049999983,
                    "velocity": 0.4251968503937008,
                    "duration": 0.3902949999999805
                },
                {
                    "name": "C4",
                    "midi": 60,
                    "time": 288.81829999999826,
                    "velocity": 0.5118110236220472,
                    "duration": 0.3902949999999805
                },
                {
                    "name": "D#4",
                    "midi": 63,
                    "time": 288.81829999999826,
                    "velocity": 0.5511811023622047,
                    "duration": 0.3902949999999805
                },
                {
                    "name": "C#3",
                    "midi": 49,
                    "time": 290.37947999999824,
                    "velocity": 0.5118110236220472,
                    "duration": 0.780589999999961
                },
                {
                    "name": "C#4",
                    "midi": 61,
                    "time": 290.7697749999982,
                    "velocity": 0.4566929133858268,
                    "duration": 0.3902949999999805
                },
                {
                    "name": "C4",
                    "midi": 60,
                    "time": 291.1600699999982,
                    "velocity": 0.5118110236220472,
                    "duration": 0.3902949999999805
                },
                {
                    "name": "D#3",
                    "midi": 51,
                    "time": 291.1600699999982,
                    "velocity": 0.4330708661417323,
                    "duration": 0.780589999999961
                },
                {
                    "name": "A#3",
                    "midi": 58,
                    "time": 291.5503649999982,
                    "velocity": 0.48031496062992124,
                    "duration": 0.3902949999999805
                },
                {
                    "name": "G#3",
                    "midi": 56,
                    "time": 291.94065999999816,
                    "velocity": 0.5118110236220472,
                    "duration": 1.1708849999999984
                },
                {
                    "name": "C4",
                    "midi": 60,
                    "time": 291.94065999999816,
                    "velocity": 0.5511811023622047,
                    "duration": 1.1708849999999984
                },
                {
                    "name": "C#4",
                    "midi": 61,
                    "time": 293.11154499999816,
                    "velocity": 0.4251968503937008,
                    "duration": 0.3902949999999805
                },
                {
                    "name": "A#3",
                    "midi": 58,
                    "time": 293.11154499999816,
                    "velocity": 0.4251968503937008,
                    "duration": 0.3902949999999805
                },
                {
                    "name": "C4",
                    "midi": 60,
                    "time": 293.50183999999814,
                    "velocity": 0.5118110236220472,
                    "duration": 0.3902949999999805
                },
                {
                    "name": "D#4",
                    "midi": 63,
                    "time": 293.50183999999814,
                    "velocity": 0.5511811023622047,
                    "duration": 0.3902949999999805
                },
                {
                    "name": "C#3",
                    "midi": 49,
                    "time": 295.0630199999981,
                    "velocity": 0.5118110236220472,
                    "duration": 0.780589999999961
                },
                {
                    "name": "C#4",
                    "midi": 61,
                    "time": 295.4533149999981,
                    "velocity": 0.4566929133858268,
                    "duration": 0.3902949999999805
                },
                {
                    "name": "C4",
                    "midi": 60,
                    "time": 295.8436099999981,
                    "velocity": 0.5118110236220472,
                    "duration": 0.3902949999999805
                },
                {
                    "name": "D#3",
                    "midi": 51,
                    "time": 295.8436099999981,
                    "velocity": 0.4330708661417323,
                    "duration": 0.780589999999961
                },
                {
                    "name": "A#3",
                    "midi": 58,
                    "time": 296.23390499999806,
                    "velocity": 0.48031496062992124,
                    "duration": 0.3902949999999805
                },
                {
                    "name": "G#3",
                    "midi": 56,
                    "time": 296.62419999999804,
                    "velocity": 0.4566929133858268,
                    "duration": 0.1300983333333079
                },
                {
                    "name": "C4",
                    "midi": 60,
                    "time": 296.75429833333135,
                    "velocity": 0.4409448818897638,
                    "duration": 0.1300983333333079
                },
                {
                    "name": "A#3",
                    "midi": 58,
                    "time": 296.88439666666466,
                    "velocity": 0.3937007874015748,
                    "duration": 0.1300983333333079
                },
                {
                    "name": "G#3",
                    "midi": 56,
                    "time": 297.01449499999796,
                    "velocity": 0.44881889763779526,
                    "duration": 0.1300983333333079
                },
                {
                    "name": "G3",
                    "midi": 55,
                    "time": 297.1445933333313,
                    "velocity": 0.4015748031496063,
                    "duration": 0.1300983333333079
                },
                {
                    "name": "F3",
                    "midi": 53,
                    "time": 297.2746916666646,
                    "velocity": 0.4015748031496063,
                    "duration": 0.1300983333333079
                },
                {
                    "name": "D#3",
                    "midi": 51,
                    "time": 297.4047899999979,
                    "velocity": 0.44881889763779526,
                    "duration": 0.1300983333333079
                },
                {
                    "name": "C#3",
                    "midi": 49,
                    "time": 297.5348883333312,
                    "velocity": 0.4015748031496063,
                    "duration": 0.1300983333333079
                },
                {
                    "name": "C3",
                    "midi": 48,
                    "time": 297.6649866666645,
                    "velocity": 0.4015748031496063,
                    "duration": 0.1300983333333079
                },
                {
                    "name": "C#3",
                    "midi": 49,
                    "time": 297.7950849999978,
                    "velocity": 0.44881889763779526,
                    "duration": 0.09757374999998092
                },
                {
                    "name": "D#3",
                    "midi": 51,
                    "time": 297.8926587499978,
                    "velocity": 0.4330708661417323,
                    "duration": 0.09757374999998092
                },
                {
                    "name": "F3",
                    "midi": 53,
                    "time": 297.9902324999978,
                    "velocity": 0.4094488188976378,
                    "duration": 0.09757374999998092
                },
                {
                    "name": "G3",
                    "midi": 55,
                    "time": 298.08780624999775,
                    "velocity": 0.3858267716535433,
                    "duration": 0.09757374999998092
                },
                {
                    "name": "G#3",
                    "midi": 56,
                    "time": 298.18537999999774,
                    "velocity": 0.4566929133858268,
                    "duration": 0.1300983333333079
                },
                {
                    "name": "C4",
                    "midi": 60,
                    "time": 298.31547833333104,
                    "velocity": 0.4409448818897638,
                    "duration": 0.1300983333333079
                },
                {
                    "name": "A#3",
                    "midi": 58,
                    "time": 298.44557666666435,
                    "velocity": 0.3937007874015748,
                    "duration": 0.1300983333333079
                },
                {
                    "name": "G#3",
                    "midi": 56,
                    "time": 298.57567499999766,
                    "velocity": 0.44881889763779526,
                    "duration": 0.1300983333333079
                },
                {
                    "name": "G3",
                    "midi": 55,
                    "time": 298.70577333333097,
                    "velocity": 0.4015748031496063,
                    "duration": 0.1300983333333079
                },
                {
                    "name": "F3",
                    "midi": 53,
                    "time": 298.8358716666643,
                    "velocity": 0.4015748031496063,
                    "duration": 0.1300983333333079
                },
                {
                    "name": "D#3",
                    "midi": 51,
                    "time": 298.9659699999976,
                    "velocity": 0.44881889763779526,
                    "duration": 0.1300983333333079
                },
                {
                    "name": "C#3",
                    "midi": 49,
                    "time": 299.0960683333309,
                    "velocity": 0.4015748031496063,
                    "duration": 0.1300983333333079
                },
                {
                    "name": "C3",
                    "midi": 48,
                    "time": 299.2261666666642,
                    "velocity": 0.4015748031496063,
                    "duration": 0.1300983333333079
                },
                {
                    "name": "C#3",
                    "midi": 49,
                    "time": 299.3562649999975,
                    "velocity": 0.44881889763779526,
                    "duration": 0.09757374999998092
                },
                {
                    "name": "D#3",
                    "midi": 51,
                    "time": 299.4538387499975,
                    "velocity": 0.4330708661417323,
                    "duration": 0.09757374999998092
                },
                {
                    "name": "F3",
                    "midi": 53,
                    "time": 299.55141249999747,
                    "velocity": 0.4094488188976378,
                    "duration": 0.09757374999998092
                },
                {
                    "name": "G3",
                    "midi": 55,
                    "time": 299.64898624999745,
                    "velocity": 0.3858267716535433,
                    "duration": 0.09757374999998092
                },
                {
                    "name": "G#3",
                    "midi": 56,
                    "time": 299.74655999999743,
                    "velocity": 0.4566929133858268,
                    "duration": 0.1300983333333079
                },
                {
                    "name": "C4",
                    "midi": 60,
                    "time": 299.87665833333074,
                    "velocity": 0.4409448818897638,
                    "duration": 0.1300983333333079
                },
                {
                    "name": "A#3",
                    "midi": 58,
                    "time": 300.00675666666405,
                    "velocity": 0.3937007874015748,
                    "duration": 0.1300983333333079
                },
                {
                    "name": "G#3",
                    "midi": 56,
                    "time": 300.13685499999735,
                    "velocity": 0.44881889763779526,
                    "duration": 0.1300983333333079
                },
                {
                    "name": "G3",
                    "midi": 55,
                    "time": 300.26695333333066,
                    "velocity": 0.4015748031496063,
                    "duration": 0.1300983333333079
                },
                {
                    "name": "F3",
                    "midi": 53,
                    "time": 300.39705166666397,
                    "velocity": 0.4015748031496063,
                    "duration": 0.1300983333333079
                },
                {
                    "name": "D#3",
                    "midi": 51,
                    "time": 300.5271499999973,
                    "velocity": 0.44881889763779526,
                    "duration": 0.1300983333333079
                },
                {
                    "name": "C#3",
                    "midi": 49,
                    "time": 300.6572483333306,
                    "velocity": 0.4015748031496063,
                    "duration": 0.1300983333333079
                },
                {
                    "name": "C3",
                    "midi": 48,
                    "time": 300.7873466666639,
                    "velocity": 0.4015748031496063,
                    "duration": 0.1300983333333079
                },
                {
                    "name": "G#3",
                    "midi": 56,
                    "time": 300.9174449999972,
                    "velocity": 0.44881889763779526,
                    "duration": 0.1300983333333079
                },
                {
                    "name": "G3",
                    "midi": 55,
                    "time": 301.0475433333305,
                    "velocity": 0.4015748031496063,
                    "duration": 0.1300983333333079
                },
                {
                    "name": "F3",
                    "midi": 53,
                    "time": 301.1776416666638,
                    "velocity": 0.4015748031496063,
                    "duration": 0.1300983333333079
                },
                {
                    "name": "D#3",
                    "midi": 51,
                    "time": 301.3077399999971,
                    "velocity": 0.44881889763779526,
                    "duration": 0.1300983333333079
                },
                {
                    "name": "C#3",
                    "midi": 49,
                    "time": 301.43783833333043,
                    "velocity": 0.4015748031496063,
                    "duration": 0.1300983333333079
                },
                {
                    "name": "C3",
                    "midi": 48,
                    "time": 301.56793666666374,
                    "velocity": 0.4015748031496063,
                    "duration": 0.1300983333333079
                },
                {
                    "name": "G#3",
                    "midi": 56,
                    "time": 301.69803499999705,
                    "velocity": 0.44881889763779526,
                    "duration": 0.1300983333333079
                },
                {
                    "name": "G3",
                    "midi": 55,
                    "time": 301.82813333333036,
                    "velocity": 0.4015748031496063,
                    "duration": 0.1300983333333079
                },
                {
                    "name": "F3",
                    "midi": 53,
                    "time": 301.95823166666366,
                    "velocity": 0.4015748031496063,
                    "duration": 0.1300983333333079
                },
                {
                    "name": "D#3",
                    "midi": 51,
                    "time": 302.088329999997,
                    "velocity": 0.44881889763779526,
                    "duration": 0.1300983333333079
                },
                {
                    "name": "C#3",
                    "midi": 49,
                    "time": 302.2184283333303,
                    "velocity": 0.4015748031496063,
                    "duration": 0.1300983333333079
                },
                {
                    "name": "C3",
                    "midi": 48,
                    "time": 302.3485266666636,
                    "velocity": 0.4015748031496063,
                    "duration": 0.1300983333333079
                },
                {
                    "name": "G#3",
                    "midi": 56,
                    "time": 302.4786249999969,
                    "velocity": 0.44881889763779526,
                    "duration": 0.2927212499999996
                },
                {
                    "name": "C3",
                    "midi": 48,
                    "time": 302.7713462499969,
                    "velocity": 0.31496062992125984,
                    "duration": 0.08944260416666339
                },
                {
                    "name": "C3",
                    "midi": 48,
                    "time": 302.8689199999969,
                    "velocity": 0.31496062992125984,
                    "duration": 0.06504916666665395
                },
                {
                    "name": "C#3",
                    "midi": 49,
                    "time": 302.93396916666353,
                    "velocity": 0.28346456692913385,
                    "duration": 0.06504916666665395
                },
                {
                    "name": "C3",
                    "midi": 48,
                    "time": 302.9990183333302,
                    "velocity": 0.31496062992125984,
                    "duration": 0.06504916666665395
                },
                {
                    "name": "C#3",
                    "midi": 49,
                    "time": 303.06406749999684,
                    "velocity": 0.28346456692913385,
                    "duration": 0.06504916666665395
                },
                {
                    "name": "C3",
                    "midi": 48,
                    "time": 303.1291166666635,
                    "velocity": 0.31496062992125984,
                    "duration": 0.06504916666665395
                },
                {
                    "name": "C#3",
                    "midi": 49,
                    "time": 303.19416583333015,
                    "velocity": 0.28346456692913385,
                    "duration": 0.06504916666665395
                },
                {
                    "name": "C3",
                    "midi": 48,
                    "time": 303.2592149999968,
                    "velocity": 0.31496062992125984,
                    "duration": 0.04878687500001888
                },
                {
                    "name": "C#3",
                    "midi": 49,
                    "time": 303.3080018749968,
                    "velocity": 0.28346456692913385,
                    "duration": 0.04878687500001888
                },
                {
                    "name": "C3",
                    "midi": 48,
                    "time": 303.35678874999684,
                    "velocity": 0.31496062992125984,
                    "duration": 0.04878687500001888
                },
                {
                    "name": "C#3",
                    "midi": 49,
                    "time": 303.40557562499686,
                    "velocity": 0.28346456692913385,
                    "duration": 0.04878687500001888
                },
                {
                    "name": "C3",
                    "midi": 48,
                    "time": 303.4543624999969,
                    "velocity": 0.36220472440944884,
                    "duration": 0.09757374999998092
                },
                {
                    "name": "C#3",
                    "midi": 49,
                    "time": 303.55193624999686,
                    "velocity": 0.31496062992125984,
                    "duration": 0.09757374999998092
                },
                {
                    "name": "D#3",
                    "midi": 51,
                    "time": 303.64950999999684,
                    "velocity": 0.3700787401574803,
                    "duration": 0.3902949999999805
                },
                {
                    "name": "D#3",
                    "midi": 51,
                    "time": 304.0398049999968,
                    "velocity": 0.3700787401574803,
                    "duration": 0.3902949999999805
                },
                {
                    "name": "G#3",
                    "midi": 56,
                    "time": 304.4300999999968,
                    "velocity": 0.23622047244094488,
                    "duration": 0.1300983333333079
                },
                {
                    "name": "C4",
                    "midi": 60,
                    "time": 304.5601983333301,
                    "velocity": 0.2047244094488189,
                    "duration": 0.1300983333333079
                },
                {
                    "name": "D#4",
                    "midi": 63,
                    "time": 304.6902966666634,
                    "velocity": 0.2047244094488189,
                    "duration": 0.1300983333333079
                },
                {
                    "name": "G#3",
                    "midi": 56,
                    "time": 304.8203949999967,
                    "velocity": 0.23622047244094488,
                    "duration": 0.1300983333333079
                },
                {
                    "name": "C4",
                    "midi": 60,
                    "time": 304.95049333333003,
                    "velocity": 0.2125984251968504,
                    "duration": 0.1300983333333079
                },
                {
                    "name": "D#4",
                    "midi": 63,
                    "time": 305.08059166666334,
                    "velocity": 0.2125984251968504,
                    "duration": 0.1300983333333079
                },
                {
                    "name": "G#3",
                    "midi": 56,
                    "time": 305.21068999999665,
                    "velocity": 0.23622047244094488,
                    "duration": 0.1300983333333079
                },
                {
                    "name": "C4",
                    "midi": 60,
                    "time": 305.34078833332995,
                    "velocity": 0.2047244094488189,
                    "duration": 0.1300983333333079
                },
                {
                    "name": "D#4",
                    "midi": 63,
                    "time": 305.47088666666326,
                    "velocity": 0.2047244094488189,
                    "duration": 0.1300983333333079
                },
                {
                    "name": "G#3",
                    "midi": 56,
                    "time": 305.60098499999657,
                    "velocity": 0.2440944881889764,
                    "duration": 0.1300983333333079
                },
                {
                    "name": "C#4",
                    "midi": 61,
                    "time": 305.7310833333299,
                    "velocity": 0.2125984251968504,
                    "duration": 0.1300983333333079
                },
                {
                    "name": "G4",
                    "midi": 67,
                    "time": 305.8611816666632,
                    "velocity": 0.2125984251968504,
                    "duration": 0.1300983333333079
                },
                {
                    "name": "G#3",
                    "midi": 56,
                    "time": 305.9912799999965,
                    "velocity": 0.23622047244094488,
                    "duration": 0.1300983333333079
                },
                {
                    "name": "C4",
                    "midi": 60,
                    "time": 306.1213783333298,
                    "velocity": 0.2047244094488189,
                    "duration": 0.1300983333333079
                },
                {
                    "name": "D#4",
                    "midi": 63,
                    "time": 306.2514766666631,
                    "velocity": 0.1968503937007874,
                    "duration": 0.1300983333333079
                },
                {
                    "name": "G#3",
                    "midi": 56,
                    "time": 306.3815749999964,
                    "velocity": 0.2283464566929134,
                    "duration": 0.1300983333333079
                },
                {
                    "name": "C4",
                    "midi": 60,
                    "time": 306.5116733333297,
                    "velocity": 0.2047244094488189,
                    "duration": 0.1300983333333079
                },
                {
                    "name": "D#4",
                    "midi": 63,
                    "time": 306.64177166666303,
                    "velocity": 0.2047244094488189,
                    "duration": 0.1300983333333079
                },
                {
                    "name": "G#3",
                    "midi": 56,
                    "time": 306.77186999999634,
                    "velocity": 0.2283464566929134,
                    "duration": 0.1300983333333079
                },
                {
                    "name": "C4",
                    "midi": 60,
                    "time": 306.90196833332965,
                    "velocity": 0.1968503937007874,
                    "duration": 0.1300983333333079
                },
                {
                    "name": "D#4",
                    "midi": 63,
                    "time": 307.03206666666296,
                    "velocity": 0.1968503937007874,
                    "duration": 0.1300983333333079
                },
                {
                    "name": "G#3",
                    "midi": 56,
                    "time": 307.16216499999626,
                    "velocity": 0.23622047244094488,
                    "duration": 0.1300983333333079
                },
                {
                    "name": "C#4",
                    "midi": 61,
                    "time": 307.2922633333296,
                    "velocity": 0.2047244094488189,
                    "duration": 0.1300983333333079
                },
                {
                    "name": "G4",
                    "midi": 67,
                    "time": 307.4223616666629,
                    "velocity": 0.2047244094488189,
                    "duration": 0.1300983333333079
                },
                {
                    "name": "G#3",
                    "midi": 56,
                    "time": 307.5524599999962,
                    "velocity": 0.2204724409448819,
                    "duration": 0.1300983333333079
                },
                {
                    "name": "C4",
                    "midi": 60,
                    "time": 307.6825583333295,
                    "velocity": 0.1968503937007874,
                    "duration": 0.1300983333333079
                },
                {
                    "name": "D#4",
                    "midi": 63,
                    "time": 307.8126566666628,
                    "velocity": 0.1968503937007874,
                    "duration": 0.1300983333333079
                },
                {
                    "name": "G#3",
                    "midi": 56,
                    "time": 307.9427549999961,
                    "velocity": 0.2204724409448819,
                    "duration": 0.1300983333333079
                },
                {
                    "name": "C4",
                    "midi": 60,
                    "time": 308.0728533333294,
                    "velocity": 0.2047244094488189,
                    "duration": 0.1300983333333079
                },
                {
                    "name": "D#4",
                    "midi": 63,
                    "time": 308.2029516666627,
                    "velocity": 0.1968503937007874,
                    "duration": 0.1300983333333079
                },
                {
                    "name": "G#3",
                    "midi": 56,
                    "time": 308.33304999999604,
                    "velocity": 0.2204724409448819,
                    "duration": 0.1300983333333079
                },
                {
                    "name": "C4",
                    "midi": 60,
                    "time": 308.46314833332934,
                    "velocity": 0.1889763779527559,
                    "duration": 0.1300983333333079
                },
                {
                    "name": "D#4",
                    "midi": 63,
                    "time": 308.59324666666265,
                    "velocity": 0.1889763779527559,
                    "duration": 0.1300983333333079
                },
                {
                    "name": "G#3",
                    "midi": 56,
                    "time": 308.72334499999596,
                    "velocity": 0.2283464566929134,
                    "duration": 0.1300983333333079
                },
                {
                    "name": "C#4",
                    "midi": 61,
                    "time": 308.85344333332927,
                    "velocity": 0.1968503937007874,
                    "duration": 0.1300983333333079
                },
                {
                    "name": "G4",
                    "midi": 67,
                    "time": 308.9835416666626,
                    "velocity": 0.1968503937007874,
                    "duration": 0.1300983333333079
                },
                {
                    "name": "G#3",
                    "midi": 56,
                    "time": 309.1136399999959,
                    "velocity": 0.2204724409448819,
                    "duration": 0.1300983333333079
                },
                {
                    "name": "C4",
                    "midi": 60,
                    "time": 309.2437383333292,
                    "velocity": 0.1889763779527559,
                    "duration": 0.1300983333333079
                },
                {
                    "name": "D#4",
                    "midi": 63,
                    "time": 309.3738366666625,
                    "velocity": 0.1889763779527559,
                    "duration": 0.1300983333333079
                },
                {
                    "name": "G#3",
                    "midi": 56,
                    "time": 309.5039349999958,
                    "velocity": 0.2204724409448819,
                    "duration": 0.1300983333333079
                },
                {
                    "name": "C4",
                    "midi": 60,
                    "time": 309.6340333333291,
                    "velocity": 0.1968503937007874,
                    "duration": 0.1300983333333079
                },
                {
                    "name": "D#4",
                    "midi": 63,
                    "time": 309.7641316666624,
                    "velocity": 0.1968503937007874,
                    "duration": 0.1300983333333079
                },
                {
                    "name": "G#3",
                    "midi": 56,
                    "time": 309.89422999999573,
                    "velocity": 0.2204724409448819,
                    "duration": 0.1300983333333079
                },
                {
                    "name": "C4",
                    "midi": 60,
                    "time": 310.02432833332904,
                    "velocity": 0.1889763779527559,
                    "duration": 0.1300983333333079
                },
                {
                    "name": "D#4",
                    "midi": 63,
                    "time": 310.15442666666235,
                    "velocity": 0.1889763779527559,
                    "duration": 0.1300983333333079
                },
                {
                    "name": "G#3",
                    "midi": 56,
                    "time": 310.28452499999565,
                    "velocity": 0.2204724409448819,
                    "duration": 0.1300983333333079
                },
                {
                    "name": "C#4",
                    "midi": 61,
                    "time": 310.41462333332896,
                    "velocity": 0.1889763779527559,
                    "duration": 0.1300983333333079
                },
                {
                    "name": "G4",
                    "midi": 67,
                    "time": 310.54472166666227,
                    "velocity": 0.1889763779527559,
                    "duration": 0.1300983333333079
                },
                {
                    "name": "G#3",
                    "midi": 56,
                    "time": 310.6748199999956,
                    "velocity": 0.2204724409448819,
                    "duration": 0.1300983333333079
                },
                {
                    "name": "C4",
                    "midi": 60,
                    "time": 310.8049183333289,
                    "velocity": 0.18110236220472442,
                    "duration": 0.1300983333333079
                },
                {
                    "name": "D#4",
                    "midi": 63,
                    "time": 310.9350166666622,
                    "velocity": 0.18110236220472442,
                    "duration": 0.1300983333333079
                },
                {
                    "name": "G#3",
                    "midi": 56,
                    "time": 311.0651149999955,
                    "velocity": 0.2204724409448819,
                    "duration": 0.1300983333333079
                },
                {
                    "name": "C4",
                    "midi": 60,
                    "time": 311.1952133333288,
                    "velocity": 0.1889763779527559,
                    "duration": 0.1300983333333079
                },
                {
                    "name": "D#4",
                    "midi": 63,
                    "time": 311.3253116666621,
                    "velocity": 0.1889763779527559,
                    "duration": 0.1300983333333079
                },
                {
                    "name": "G#3",
                    "midi": 56,
                    "time": 311.4554099999954,
                    "velocity": 0.2204724409448819,
                    "duration": 0.1300983333333079
                },
                {
                    "name": "C4",
                    "midi": 60,
                    "time": 311.58550833332873,
                    "velocity": 0.18110236220472442,
                    "duration": 0.1300983333333079
                },
                {
                    "name": "D#4",
                    "midi": 63,
                    "time": 311.71560666666204,
                    "velocity": 0.18110236220472442,
                    "duration": 0.1300983333333079
                },
                {
                    "name": "G#3",
                    "midi": 56,
                    "time": 311.84570499999535,
                    "velocity": 0.2204724409448819,
                    "duration": 0.1300983333333079
                },
                {
                    "name": "C#4",
                    "midi": 61,
                    "time": 311.97580333332866,
                    "velocity": 0.1889763779527559,
                    "duration": 0.1300983333333079
                },
                {
                    "name": "G4",
                    "midi": 67,
                    "time": 312.10590166666196,
                    "velocity": 0.1889763779527559,
                    "duration": 0.1300983333333079
                },
                {
                    "name": "G#3",
                    "midi": 56,
                    "time": 312.2359999999953,
                    "velocity": 0.2125984251968504,
                    "duration": 0.1300983333333079
                },
                {
                    "name": "C4",
                    "midi": 60,
                    "time": 312.3660983333286,
                    "velocity": 0.1732283464566929,
                    "duration": 0.1300983333333079
                },
                {
                    "name": "D#4",
                    "midi": 63,
                    "time": 312.4961966666619,
                    "velocity": 0.1732283464566929,
                    "duration": 0.1300983333333079
                },
                {
                    "name": "G#3",
                    "midi": 56,
                    "time": 312.6262949999952,
                    "velocity": 0.2125984251968504,
                    "duration": 0.1300983333333079
                },
                {
                    "name": "C4",
                    "midi": 60,
                    "time": 312.7563933333285,
                    "velocity": 0.18110236220472442,
                    "duration": 0.1300983333333079
                },
                {
                    "name": "D#4",
                    "midi": 63,
                    "time": 312.8864916666618,
                    "velocity": 0.18110236220472442,
                    "duration": 0.1300983333333079
                },
                {
                    "name": "G#3",
                    "midi": 56,
                    "time": 313.0165899999951,
                    "velocity": 0.2125984251968504,
                    "duration": 0.1300983333333079
                },
                {
                    "name": "C4",
                    "midi": 60,
                    "time": 313.1466883333284,
                    "velocity": 0.1732283464566929,
                    "duration": 0.1300983333333079
                },
                {
                    "name": "D#4",
                    "midi": 63,
                    "time": 313.27678666666174,
                    "velocity": 0.1732283464566929,
                    "duration": 0.1300983333333079
                },
                {
                    "name": "G#3",
                    "midi": 56,
                    "time": 313.40688499999504,
                    "velocity": 0.2125984251968504,
                    "duration": 0.1300983333333079
                },
                {
                    "name": "C#4",
                    "midi": 61,
                    "time": 313.53698333332835,
                    "velocity": 0.18110236220472442,
                    "duration": 0.1300983333333079
                },
                {
                    "name": "G4",
                    "midi": 67,
                    "time": 313.66708166666166,
                    "velocity": 0.18110236220472442,
                    "duration": 0.1300983333333079
                },
                {
                    "name": "G#3",
                    "midi": 56,
                    "time": 313.79717999999497,
                    "velocity": 0.2047244094488189,
                    "duration": 0.1300983333333079
                },
                {
                    "name": "C4",
                    "midi": 60,
                    "time": 313.9272783333283,
                    "velocity": 0.1732283464566929,
                    "duration": 0.1300983333333079
                },
                {
                    "name": "D#4",
                    "midi": 63,
                    "time": 314.0573766666616,
                    "velocity": 0.1732283464566929,
                    "duration": 0.1300983333333079
                },
                {
                    "name": "G#3",
                    "midi": 56,
                    "time": 314.1874749999949,
                    "velocity": 0.1889763779527559,
                    "duration": 0.1300983333333079
                },
                {
                    "name": "C4",
                    "midi": 60,
                    "time": 314.3175733333282,
                    "velocity": 0.1732283464566929,
                    "duration": 0.1300983333333079
                },
                {
                    "name": "D#4",
                    "midi": 63,
                    "time": 314.4476716666615,
                    "velocity": 0.16535433070866143,
                    "duration": 0.1300983333333079
                },
                {
                    "name": "G#3",
                    "midi": 56,
                    "time": 314.5777699999948,
                    "velocity": 0.1732283464566929,
                    "duration": 0.1300983333333079
                },
                {
                    "name": "C4",
                    "midi": 60,
                    "time": 314.7078683333281,
                    "velocity": 0.14960629921259844,
                    "duration": 0.1300983333333079
                },
                {
                    "name": "D#4",
                    "midi": 63,
                    "time": 314.83796666666143,
                    "velocity": 0.14173228346456693,
                    "duration": 0.1300983333333079
                },
                {
                    "name": "G#3",
                    "midi": 56,
                    "time": 314.96806499999474,
                    "velocity": 0.1732283464566929,
                    "duration": 0.1300983333333079
                },
                {
                    "name": "C#4",
                    "midi": 61,
                    "time": 315.09816333332805,
                    "velocity": 0.14173228346456693,
                    "duration": 0.1300983333333079
                },
                {
                    "name": "G4",
                    "midi": 67,
                    "time": 315.22826166666135,
                    "velocity": 0.14173228346456693,
                    "duration": 0.1300983333333079
                },
                {
                    "name": "C4",
                    "midi": 60,
                    "time": 315.35835999999466,
                    "velocity": 0.1968503937007874,
                    "duration": 0.3902949999999805
                },
                {
                    "name": "G#3",
                    "midi": 56,
                    "time": 315.35835999999466,
                    "velocity": 0.1968503937007874,
                    "duration": 0.3902949999999805
                },
                {
                    "name": "G#2",
                    "midi": 44,
                    "time": 316.52924499999466,
                    "velocity": 0.15748031496062992,
                    "duration": 0.3902949999999805
                },
                {
                    "name": "C3",
                    "midi": 48,
                    "time": 316.52924499999466,
                    "velocity": 0.1889763779527559,
                    "duration": 0.3902949999999805
                },
                {
                    "name": "C3",
                    "midi": 48,
                    "time": 316.91953999999464,
                    "velocity": 0.1889763779527559,
                    "duration": 0.3902949999999805
                },
                {
                    "name": "G#2",
                    "midi": 44,
                    "time": 316.91953999999464,
                    "velocity": 0.15748031496062992,
                    "duration": 0.3902949999999805
                }
            ],
            "controlChanges": {},
            "id": 2,
            "name": "Piano left",
            "instrumentNumber": 0,
            "instrument": "acoustic grand piano",
            "instrumentFamily": "piano",
            "channelNumber": 0,
            "isPercussion": false
        },
        {
            "startTime": 0,
            "duration": 0,
            "length": 0,
            "notes": [],
            "controlChanges": {
                "64": [
                    {
                        "number": 64,
                        "time": 2.008393020833333,
                        "value": 1
                    },
                    {
                        "number": 64,
                        "time": 2.3564060624999996,
                        "value": 0
                    },
                    {
                        "number": 64,
                        "time": 7.464391875,
                        "value": 1
                    },
                    {
                        "number": 64,
                        "time": 7.808339343749999,
                        "value": 0
                    },
                    {
                        "number": 64,
                        "time": 7.873388510416666,
                        "value": 1
                    },
                    {
                        "number": 64,
                        "time": 8.210017947916665,
                        "value": 0
                    },
                    {
                        "number": 64,
                        "time": 8.236037614583331,
                        "value": 1
                    },
                    {
                        "number": 64,
                        "time": 8.595434260416665,
                        "value": 0
                    },
                    {
                        "number": 64,
                        "time": 9.516693083333331,
                        "value": 1
                    },
                    {
                        "number": 64,
                        "time": 10.365584708333332,
                        "value": 0
                    },
                    {
                        "number": 64,
                        "time": 10.969728843749998,
                        "value": 1
                    },
                    {
                        "number": 64,
                        "time": 11.329125489583332,
                        "value": 0
                    },
                    {
                        "number": 64,
                        "time": 11.364902531249998,
                        "value": 1
                    },
                    {
                        "number": 64,
                        "time": 11.721859833333331,
                        "value": 0
                    },
                    {
                        "number": 64,
                        "time": 13.735131541666664,
                        "value": 1
                    },
                    {
                        "number": 64,
                        "time": 14.091275729166664,
                        "value": 0
                    },
                    {
                        "number": 64,
                        "time": 18.76912392708333,
                        "value": 1
                    },
                    {
                        "number": 64,
                        "time": 18.887838656249997,
                        "value": 0
                    },
                    {
                        "number": 64,
                        "time": 19.15941892708333,
                        "value": 1
                    },
                    {
                        "number": 64,
                        "time": 19.261871364583328,
                        "value": 0
                    },
                    {
                        "number": 64,
                        "time": 19.561097531249995,
                        "value": 1
                    },
                    {
                        "number": 64,
                        "time": 19.687130291666662,
                        "value": 0
                    },
                    {
                        "number": 64,
                        "time": 19.94488761458333,
                        "value": 1
                    },
                    {
                        "number": 64,
                        "time": 20.063602343749995,
                        "value": 0
                    },
                    {
                        "number": 64,
                        "time": 20.392913749999995,
                        "value": 1
                    },
                    {
                        "number": 64,
                        "time": 20.696205489583328,
                        "value": 0
                    },
                    {
                        "number": 64,
                        "time": 20.77182514583333,
                        "value": 1
                    },
                    {
                        "number": 64,
                        "time": 21.087313604166663,
                        "value": 0
                    },
                    {
                        "number": 64,
                        "time": 21.167811947916665,
                        "value": 1
                    },
                    {
                        "number": 64,
                        "time": 21.886605239583332,
                        "value": 0
                    },
                    {
                        "number": 64,
                        "time": 21.921569166666664,
                        "value": 1
                    },
                    {
                        "number": 64,
                        "time": 22.012638,
                        "value": 0
                    },
                    {
                        "number": 64,
                        "time": 22.30291990625,
                        "value": 1
                    },
                    {
                        "number": 64,
                        "time": 22.411877260416667,
                        "value": 0
                    },
                    {
                        "number": 64,
                        "time": 22.68833621875,
                        "value": 1
                    },
                    {
                        "number": 64,
                        "time": 22.790788656249998,
                        "value": 0
                    },
                    {
                        "number": 64,
                        "time": 23.520965552083332,
                        "value": 1
                    },
                    {
                        "number": 64,
                        "time": 24.97888,
                        "value": 0
                    },
                    {
                        "number": 64,
                        "time": 25.065070145833335,
                        "value": 1
                    },
                    {
                        "number": 64,
                        "time": 26.54006,
                        "value": 0
                    },
                    {
                        "number": 64,
                        "time": 26.597791135416667,
                        "value": 1
                    },
                    {
                        "number": 64,
                        "time": 27.3352860625,
                        "value": 0
                    },
                    {
                        "number": 64,
                        "time": 27.412531947916666,
                        "value": 1
                    },
                    {
                        "number": 64,
                        "time": 28.1061186875,
                        "value": 0
                    },
                    {
                        "number": 64,
                        "time": 28.21588915625,
                        "value": 1
                    },
                    {
                        "number": 64,
                        "time": 28.897279177083334,
                        "value": 0
                    },
                    {
                        "number": 64,
                        "time": 28.990787354166667,
                        "value": 1
                    },
                    {
                        "number": 64,
                        "time": 29.672990489583334,
                        "value": 0
                    },
                    {
                        "number": 64,
                        "time": 31.304098343750002,
                        "value": 1
                    },
                    {
                        "number": 64,
                        "time": 31.622026145833335,
                        "value": 0
                    },
                    {
                        "number": 64,
                        "time": 33.231993020833336,
                        "value": 1
                    },
                    {
                        "number": 64,
                        "time": 33.580006062500004,
                        "value": 0
                    },
                    {
                        "number": 64,
                        "time": 34.793173020833336,
                        "value": 1
                    },
                    {
                        "number": 64,
                        "time": 35.13712048958334,
                        "value": 0
                    },
                    {
                        "number": 64,
                        "time": 35.57376302083334,
                        "value": 1
                    },
                    {
                        "number": 64,
                        "time": 35.97218916666667,
                        "value": 0
                    },
                    {
                        "number": 64,
                        "time": 36.354353020833344,
                        "value": 1
                    },
                    {
                        "number": 64,
                        "time": 36.698300489583346,
                        "value": 0
                    },
                    {
                        "number": 64,
                        "time": 37.13494302083335,
                        "value": 1
                    },
                    {
                        "number": 64,
                        "time": 37.47970360416668,
                        "value": 0
                    },
                    {
                        "number": 64,
                        "time": 37.57158555208335,
                        "value": 1
                    },
                    {
                        "number": 64,
                        "time": 38.652214833333346,
                        "value": 0
                    },
                    {
                        "number": 64,
                        "time": 38.725395145833346,
                        "value": 1
                    },
                    {
                        "number": 64,
                        "time": 39.03519180208335,
                        "value": 0
                    },
                    {
                        "number": 64,
                        "time": 39.04007048958335,
                        "value": 0
                    },
                    {
                        "number": 64,
                        "time": 40.60206360416668,
                        "value": 0
                    },
                    {
                        "number": 64,
                        "time": 40.69394555208335,
                        "value": 1
                    },
                    {
                        "number": 64,
                        "time": 41.77457483333335,
                        "value": 0
                    },
                    {
                        "number": 64,
                        "time": 41.84775514583335,
                        "value": 1
                    },
                    {
                        "number": 64,
                        "time": 42.15755180208335,
                        "value": 0
                    },
                    {
                        "number": 64,
                        "time": 42.16243048958335,
                        "value": 0
                    },
                    {
                        "number": 64,
                        "time": 43.72442360416668,
                        "value": 0
                    },
                    {
                        "number": 64,
                        "time": 43.81630555208335,
                        "value": 1
                    },
                    {
                        "number": 64,
                        "time": 44.89693483333335,
                        "value": 0
                    },
                    {
                        "number": 64,
                        "time": 44.97011514583335,
                        "value": 1
                    },
                    {
                        "number": 64,
                        "time": 45.274220000000014,
                        "value": 0
                    },
                    {
                        "number": 64,
                        "time": 45.32625933333335,
                        "value": 1
                    },
                    {
                        "number": 64,
                        "time": 45.47749864583335,
                        "value": 0
                    },
                    {
                        "number": 64,
                        "time": 45.74501334375002,
                        "value": 1
                    },
                    {
                        "number": 64,
                        "time": 46.45648860416669,
                        "value": 0
                    },
                    {
                        "number": 64,
                        "time": 46.531295145833354,
                        "value": 1
                    },
                    {
                        "number": 64,
                        "time": 46.84678360416669,
                        "value": 0
                    },
                    {
                        "number": 64,
                        "time": 47.22569500000002,
                        "value": 1
                    },
                    {
                        "number": 64,
                        "time": 48.019294833333355,
                        "value": 0
                    },
                    {
                        "number": 64,
                        "time": 48.092475145833355,
                        "value": 1
                    },
                    {
                        "number": 64,
                        "time": 48.39658000000002,
                        "value": 0
                    },
                    {
                        "number": 64,
                        "time": 48.448619333333355,
                        "value": 1
                    },
                    {
                        "number": 64,
                        "time": 48.603111104166686,
                        "value": 0
                    },
                    {
                        "number": 64,
                        "time": 48.86737334375002,
                        "value": 1
                    },
                    {
                        "number": 64,
                        "time": 49.57884860416669,
                        "value": 0
                    },
                    {
                        "number": 64,
                        "time": 49.653655145833355,
                        "value": 1
                    },
                    {
                        "number": 64,
                        "time": 49.96914360416669,
                        "value": 0
                    },
                    {
                        "number": 64,
                        "time": 50.34805500000002,
                        "value": 1
                    },
                    {
                        "number": 64,
                        "time": 50.75217294791669,
                        "value": 0
                    },
                    {
                        "number": 64,
                        "time": 50.831858177083355,
                        "value": 1
                    },
                    {
                        "number": 64,
                        "time": 51.141654833333355,
                        "value": 0
                    },
                    {
                        "number": 64,
                        "time": 73.45026654166669,
                        "value": 1
                    },
                    {
                        "number": 64,
                        "time": 74.5577286041667,
                        "value": 0
                    },
                    {
                        "number": 64,
                        "time": 74.59838433333337,
                        "value": 1
                    },
                    {
                        "number": 64,
                        "time": 74.94151868750004,
                        "value": 0
                    },
                    {
                        "number": 64,
                        "time": 75.02526948958337,
                        "value": 1
                    },
                    {
                        "number": 64,
                        "time": 76.1213479479167,
                        "value": 0
                    },
                    {
                        "number": 64,
                        "time": 76.18639711458337,
                        "value": 1
                    },
                    {
                        "number": 64,
                        "time": 76.50107245833337,
                        "value": 0
                    },
                    {
                        "number": 64,
                        "time": 76.60027243750004,
                        "value": 1
                    },
                    {
                        "number": 64,
                        "time": 77.68252794791671,
                        "value": 0
                    },
                    {
                        "number": 64,
                        "time": 77.74757711458338,
                        "value": 1
                    },
                    {
                        "number": 64,
                        "time": 78.06387868750005,
                        "value": 0
                    },
                    {
                        "number": 64,
                        "time": 78.12811473958338,
                        "value": 1
                    },
                    {
                        "number": 64,
                        "time": 79.23882926041671,
                        "value": 0
                    },
                    {
                        "number": 64,
                        "time": 79.27623253125005,
                        "value": 1
                    },
                    {
                        "number": 64,
                        "time": 79.62668491666672,
                        "value": 0
                    },
                    {
                        "number": 64,
                        "time": 79.69905211458338,
                        "value": 1
                    },
                    {
                        "number": 64,
                        "time": 80.79838303125005,
                        "value": 0
                    },
                    {
                        "number": 64,
                        "time": 80.88863875000006,
                        "value": 1
                    },
                    {
                        "number": 64,
                        "time": 81.18786491666673,
                        "value": 0
                    },
                    {
                        "number": 64,
                        "time": 81.25128785416672,
                        "value": 1
                    },
                    {
                        "number": 64,
                        "time": 82.36200237500005,
                        "value": 0
                    },
                    {
                        "number": 64,
                        "time": 82.43111711458337,
                        "value": 1
                    },
                    {
                        "number": 64,
                        "time": 82.7563629479167,
                        "value": 0
                    },
                    {
                        "number": 64,
                        "time": 82.82059900000003,
                        "value": 1
                    },
                    {
                        "number": 64,
                        "time": 83.92155614583336,
                        "value": 0
                    },
                    {
                        "number": 64,
                        "time": 83.96546433333336,
                        "value": 1
                    },
                    {
                        "number": 64,
                        "time": 84.30372000000003,
                        "value": 0
                    },
                    {
                        "number": 64,
                        "time": 84.54277568750003,
                        "value": 1
                    },
                    {
                        "number": 64,
                        "time": 86.3202441666667,
                        "value": 0
                    },
                    {
                        "number": 64,
                        "time": 87.87329302083336,
                        "value": 1
                    },
                    {
                        "number": 64,
                        "time": 88.22130606250002,
                        "value": 0
                    },
                    {
                        "number": 64,
                        "time": 93.32929187500002,
                        "value": 1
                    },
                    {
                        "number": 64,
                        "time": 93.67323934375003,
                        "value": 0
                    },
                    {
                        "number": 64,
                        "time": 93.7382885104167,
                        "value": 1
                    },
                    {
                        "number": 64,
                        "time": 94.07491794791669,
                        "value": 0
                    },
                    {
                        "number": 64,
                        "time": 94.10093761458336,
                        "value": 1
                    },
                    {
                        "number": 64,
                        "time": 94.46033426041669,
                        "value": 0
                    },
                    {
                        "number": 64,
                        "time": 95.38159308333336,
                        "value": 1
                    },
                    {
                        "number": 64,
                        "time": 96.23048470833335,
                        "value": 0
                    },
                    {
                        "number": 64,
                        "time": 96.83462884375001,
                        "value": 1
                    },
                    {
                        "number": 64,
                        "time": 97.19402548958334,
                        "value": 0
                    },
                    {
                        "number": 64,
                        "time": 97.22980253125,
                        "value": 1
                    },
                    {
                        "number": 64,
                        "time": 97.58675983333333,
                        "value": 0
                    },
                    {
                        "number": 64,
                        "time": 99.60003154166667,
                        "value": 1
                    },
                    {
                        "number": 64,
                        "time": 99.95617572916666,
                        "value": 0
                    },
                    {
                        "number": 64,
                        "time": 104.63402392708332,
                        "value": 1
                    },
                    {
                        "number": 64,
                        "time": 104.75273865624999,
                        "value": 0
                    },
                    {
                        "number": 64,
                        "time": 105.02431892708333,
                        "value": 1
                    },
                    {
                        "number": 64,
                        "time": 105.12677136458333,
                        "value": 0
                    },
                    {
                        "number": 64,
                        "time": 105.42599753125,
                        "value": 1
                    },
                    {
                        "number": 64,
                        "time": 105.55203029166667,
                        "value": 0
                    },
                    {
                        "number": 64,
                        "time": 105.80978761458333,
                        "value": 1
                    },
                    {
                        "number": 64,
                        "time": 105.92850234375,
                        "value": 0
                    },
                    {
                        "number": 64,
                        "time": 106.25781375,
                        "value": 1
                    },
                    {
                        "number": 64,
                        "time": 106.56110548958333,
                        "value": 0
                    },
                    {
                        "number": 64,
                        "time": 106.63672514583332,
                        "value": 1
                    },
                    {
                        "number": 64,
                        "time": 106.95221360416666,
                        "value": 0
                    },
                    {
                        "number": 64,
                        "time": 107.03271194791665,
                        "value": 1
                    },
                    {
                        "number": 64,
                        "time": 107.75150523958332,
                        "value": 0
                    },
                    {
                        "number": 64,
                        "time": 107.78646916666666,
                        "value": 1
                    },
                    {
                        "number": 64,
                        "time": 107.877538,
                        "value": 0
                    },
                    {
                        "number": 64,
                        "time": 108.16781990625,
                        "value": 1
                    },
                    {
                        "number": 64,
                        "time": 108.27677726041667,
                        "value": 0
                    },
                    {
                        "number": 64,
                        "time": 108.55323621875,
                        "value": 1
                    },
                    {
                        "number": 64,
                        "time": 108.65568865625,
                        "value": 0
                    },
                    {
                        "number": 64,
                        "time": 109.38586555208335,
                        "value": 1
                    },
                    {
                        "number": 64,
                        "time": 110.84378000000001,
                        "value": 0
                    },
                    {
                        "number": 64,
                        "time": 110.92997014583334,
                        "value": 1
                    },
                    {
                        "number": 64,
                        "time": 112.40496,
                        "value": 0
                    },
                    {
                        "number": 64,
                        "time": 112.46269113541666,
                        "value": 1
                    },
                    {
                        "number": 64,
                        "time": 113.2001860625,
                        "value": 0
                    },
                    {
                        "number": 64,
                        "time": 113.27743194791667,
                        "value": 1
                    },
                    {
                        "number": 64,
                        "time": 113.9710186875,
                        "value": 0
                    },
                    {
                        "number": 64,
                        "time": 114.08078915625,
                        "value": 1
                    },
                    {
                        "number": 64,
                        "time": 114.76217917708334,
                        "value": 0
                    },
                    {
                        "number": 64,
                        "time": 114.85568735416668,
                        "value": 1
                    },
                    {
                        "number": 64,
                        "time": 115.53789048958335,
                        "value": 0
                    },
                    {
                        "number": 64,
                        "time": 117.16899834375002,
                        "value": 1
                    },
                    {
                        "number": 64,
                        "time": 117.48692614583335,
                        "value": 0
                    },
                    {
                        "number": 64,
                        "time": 119.09689302083335,
                        "value": 1
                    },
                    {
                        "number": 64,
                        "time": 119.44490606250001,
                        "value": 0
                    },
                    {
                        "number": 64,
                        "time": 120.65807302083334,
                        "value": 1
                    },
                    {
                        "number": 64,
                        "time": 121.00202048958334,
                        "value": 0
                    },
                    {
                        "number": 64,
                        "time": 121.43866302083335,
                        "value": 1
                    },
                    {
                        "number": 64,
                        "time": 121.83708916666667,
                        "value": 0
                    },
                    {
                        "number": 64,
                        "time": 122.21925302083334,
                        "value": 1
                    },
                    {
                        "number": 64,
                        "time": 122.56320048958334,
                        "value": 0
                    },
                    {
                        "number": 64,
                        "time": 122.99984302083334,
                        "value": 1
                    },
                    {
                        "number": 64,
                        "time": 123.34460360416668,
                        "value": 0
                    },
                    {
                        "number": 64,
                        "time": 123.43648555208334,
                        "value": 1
                    },
                    {
                        "number": 64,
                        "time": 124.51711483333334,
                        "value": 0
                    },
                    {
                        "number": 64,
                        "time": 124.59029514583334,
                        "value": 1
                    },
                    {
                        "number": 64,
                        "time": 124.90009180208334,
                        "value": 0
                    },
                    {
                        "number": 64,
                        "time": 124.90497048958333,
                        "value": 0
                    },
                    {
                        "number": 64,
                        "time": 126.46696360416666,
                        "value": 0
                    },
                    {
                        "number": 64,
                        "time": 126.55884555208333,
                        "value": 1
                    },
                    {
                        "number": 64,
                        "time": 127.63947483333332,
                        "value": 0
                    },
                    {
                        "number": 64,
                        "time": 127.71265514583332,
                        "value": 1
                    },
                    {
                        "number": 64,
                        "time": 128.0224518020833,
                        "value": 0
                    },
                    {
                        "number": 64,
                        "time": 128.0273304895833,
                        "value": 0
                    },
                    {
                        "number": 64,
                        "time": 129.58932360416665,
                        "value": 0
                    },
                    {
                        "number": 64,
                        "time": 129.68120555208333,
                        "value": 1
                    },
                    {
                        "number": 64,
                        "time": 130.76183483333332,
                        "value": 0
                    },
                    {
                        "number": 64,
                        "time": 130.83501514583332,
                        "value": 1
                    },
                    {
                        "number": 64,
                        "time": 131.13912,
                        "value": 0
                    },
                    {
                        "number": 64,
                        "time": 131.19115933333333,
                        "value": 1
                    },
                    {
                        "number": 64,
                        "time": 131.34239864583333,
                        "value": 0
                    },
                    {
                        "number": 64,
                        "time": 131.60991334374998,
                        "value": 1
                    },
                    {
                        "number": 64,
                        "time": 132.32138860416666,
                        "value": 0
                    },
                    {
                        "number": 64,
                        "time": 132.39619514583333,
                        "value": 1
                    },
                    {
                        "number": 64,
                        "time": 132.71168360416667,
                        "value": 0
                    },
                    {
                        "number": 64,
                        "time": 133.090595,
                        "value": 1
                    },
                    {
                        "number": 64,
                        "time": 133.88419483333334,
                        "value": 0
                    },
                    {
                        "number": 64,
                        "time": 133.95737514583334,
                        "value": 1
                    },
                    {
                        "number": 64,
                        "time": 134.26148,
                        "value": 0
                    },
                    {
                        "number": 64,
                        "time": 134.31351933333335,
                        "value": 1
                    },
                    {
                        "number": 64,
                        "time": 134.4680111041667,
                        "value": 0
                    },
                    {
                        "number": 64,
                        "time": 134.73227334375002,
                        "value": 1
                    },
                    {
                        "number": 64,
                        "time": 135.4437486041667,
                        "value": 0
                    },
                    {
                        "number": 64,
                        "time": 135.51855514583337,
                        "value": 1
                    },
                    {
                        "number": 64,
                        "time": 135.8340436041667,
                        "value": 0
                    },
                    {
                        "number": 64,
                        "time": 136.21295500000005,
                        "value": 1
                    },
                    {
                        "number": 64,
                        "time": 136.6170729479167,
                        "value": 0
                    },
                    {
                        "number": 64,
                        "time": 136.69675817708338,
                        "value": 1
                    },
                    {
                        "number": 64,
                        "time": 137.00655483333338,
                        "value": 0
                    },
                    {
                        "number": 64,
                        "time": 159.3151665416667,
                        "value": 1
                    },
                    {
                        "number": 64,
                        "time": 160.4226286041667,
                        "value": 0
                    },
                    {
                        "number": 64,
                        "time": 160.46328433333338,
                        "value": 1
                    },
                    {
                        "number": 64,
                        "time": 160.80641868750004,
                        "value": 0
                    },
                    {
                        "number": 64,
                        "time": 160.89016948958337,
                        "value": 1
                    },
                    {
                        "number": 64,
                        "time": 161.9862479479167,
                        "value": 0
                    },
                    {
                        "number": 64,
                        "time": 162.05129711458335,
                        "value": 1
                    },
                    {
                        "number": 64,
                        "time": 162.36597245833335,
                        "value": 0
                    },
                    {
                        "number": 64,
                        "time": 162.4651724375,
                        "value": 1
                    },
                    {
                        "number": 64,
                        "time": 163.54742794791667,
                        "value": 0
                    },
                    {
                        "number": 64,
                        "time": 163.61247711458333,
                        "value": 1
                    },
                    {
                        "number": 64,
                        "time": 163.9287786875,
                        "value": 0
                    },
                    {
                        "number": 64,
                        "time": 163.99301473958334,
                        "value": 1
                    },
                    {
                        "number": 64,
                        "time": 165.10372926041669,
                        "value": 0
                    },
                    {
                        "number": 64,
                        "time": 165.14113253125,
                        "value": 1
                    },
                    {
                        "number": 64,
                        "time": 165.49158491666668,
                        "value": 0
                    },
                    {
                        "number": 64,
                        "time": 165.56395211458334,
                        "value": 1
                    },
                    {
                        "number": 64,
                        "time": 166.66328303125002,
                        "value": 0
                    },
                    {
                        "number": 64,
                        "time": 166.75353875000002,
                        "value": 1
                    },
                    {
                        "number": 64,
                        "time": 167.0527649166667,
                        "value": 0
                    },
                    {
                        "number": 64,
                        "time": 167.1161878541667,
                        "value": 1
                    },
                    {
                        "number": 64,
                        "time": 168.22690237500004,
                        "value": 0
                    },
                    {
                        "number": 64,
                        "time": 168.29601711458338,
                        "value": 1
                    },
                    {
                        "number": 64,
                        "time": 168.6212629479167,
                        "value": 0
                    },
                    {
                        "number": 64,
                        "time": 168.68549900000005,
                        "value": 1
                    },
                    {
                        "number": 64,
                        "time": 169.78645614583337,
                        "value": 0
                    },
                    {
                        "number": 64,
                        "time": 169.83036433333336,
                        "value": 1
                    },
                    {
                        "number": 64,
                        "time": 170.16862000000003,
                        "value": 0
                    },
                    {
                        "number": 64,
                        "time": 170.40767568750005,
                        "value": 1
                    },
                    {
                        "number": 64,
                        "time": 172.1851441666667,
                        "value": 0
                    },
                    {
                        "number": 64,
                        "time": 173.73819302083336,
                        "value": 1
                    },
                    {
                        "number": 64,
                        "time": 174.08620606250003,
                        "value": 0
                    },
                    {
                        "number": 64,
                        "time": 179.19419187500003,
                        "value": 1
                    },
                    {
                        "number": 64,
                        "time": 179.53813934375003,
                        "value": 0
                    },
                    {
                        "number": 64,
                        "time": 179.6031885104167,
                        "value": 1
                    },
                    {
                        "number": 64,
                        "time": 179.93981794791668,
                        "value": 0
                    },
                    {
                        "number": 64,
                        "time": 179.96583761458334,
                        "value": 1
                    },
                    {
                        "number": 64,
                        "time": 180.32523426041666,
                        "value": 0
                    },
                    {
                        "number": 64,
                        "time": 181.24649308333332,
                        "value": 1
                    },
                    {
                        "number": 64,
                        "time": 182.10188962499998,
                        "value": 0
                    },
                    {
                        "number": 64,
                        "time": 182.2336141875,
                        "value": 1
                    },
                    {
                        "number": 64,
                        "time": 182.79059767708333,
                        "value": 0
                    },
                    {
                        "number": 64,
                        "time": 182.98574517708332,
                        "value": 1
                    },
                    {
                        "number": 64,
                        "time": 183.68014503125,
                        "value": 0
                    },
                    {
                        "number": 64,
                        "time": 183.82325319791667,
                        "value": 1
                    },
                    {
                        "number": 64,
                        "time": 184.21924,
                        "value": 0
                    },
                    {
                        "number": 64,
                        "time": 185.86417080208335,
                        "value": 1
                    },
                    {
                        "number": 64,
                        "time": 186.96024926041667,
                        "value": 0
                    },
                    {
                        "number": 64,
                        "time": 187.02611154166667,
                        "value": 1
                    },
                    {
                        "number": 64,
                        "time": 187.3416,
                        "value": 0
                    },
                    {
                        "number": 64,
                        "time": 187.43917375,
                        "value": 1
                    },
                    {
                        "number": 64,
                        "time": 187.74246548958334,
                        "value": 0
                    },
                    {
                        "number": 64,
                        "time": 187.81808514583335,
                        "value": 1
                    },
                    {
                        "number": 64,
                        "time": 188.90278,
                        "value": 0
                    },
                    {
                        "number": 64,
                        "time": 188.93123901041668,
                        "value": 1
                    },
                    {
                        "number": 64,
                        "time": 190.46396000000001,
                        "value": 0
                    },
                    {
                        "number": 64,
                        "time": 190.46396000000001,
                        "value": 0
                    },
                    {
                        "number": 64,
                        "time": 190.56153375000002,
                        "value": 1
                    },
                    {
                        "number": 64,
                        "time": 192.02514000000002,
                        "value": 0
                    },
                    {
                        "number": 64,
                        "time": 192.08449736458334,
                        "value": 1
                    },
                    {
                        "number": 64,
                        "time": 193.58632,
                        "value": 0
                    },
                    {
                        "number": 64,
                        "time": 193.58632,
                        "value": 0
                    },
                    {
                        "number": 64,
                        "time": 193.68389375,
                        "value": 1
                    },
                    {
                        "number": 64,
                        "time": 195.1475,
                        "value": 0
                    },
                    {
                        "number": 64,
                        "time": 195.20929670833334,
                        "value": 1
                    },
                    {
                        "number": 64,
                        "time": 196.70868000000002,
                        "value": 0
                    },
                    {
                        "number": 64,
                        "time": 196.77372916666667,
                        "value": 1
                    },
                    {
                        "number": 64,
                        "time": 198.26986,
                        "value": 0
                    },
                    {
                        "number": 64,
                        "time": 198.33490916666665,
                        "value": 1
                    },
                    {
                        "number": 64,
                        "time": 199.83103999999997,
                        "value": 0
                    },
                    {
                        "number": 64,
                        "time": 199.89608916666663,
                        "value": 1
                    },
                    {
                        "number": 64,
                        "time": 201.39221999999995,
                        "value": 0
                    },
                    {
                        "number": 64,
                        "time": 201.4572691666666,
                        "value": 1
                    },
                    {
                        "number": 64,
                        "time": 202.95339999999993,
                        "value": 0
                    },
                    {
                        "number": 64,
                        "time": 203.05666555208327,
                        "value": 1
                    },
                    {
                        "number": 64,
                        "time": 204.51457999999994,
                        "value": 0
                    },
                    {
                        "number": 64,
                        "time": 204.51457999999994,
                        "value": 0
                    },
                    {
                        "number": 64,
                        "time": 204.51457999999994,
                        "value": 0
                    },
                    {
                        "number": 64,
                        "time": 204.61215374999995,
                        "value": 1
                    },
                    {
                        "number": 64,
                        "time": 206.07575999999995,
                        "value": 0
                    },
                    {
                        "number": 64,
                        "time": 206.1408091666666,
                        "value": 1
                    },
                    {
                        "number": 64,
                        "time": 207.6556416354166,
                        "value": 0
                    },
                    {
                        "number": 64,
                        "time": 210.84305080208327,
                        "value": 1
                    },
                    {
                        "number": 64,
                        "time": 211.9391292604166,
                        "value": 0
                    },
                    {
                        "number": 64,
                        "time": 212.00499154166658,
                        "value": 1
                    },
                    {
                        "number": 64,
                        "time": 212.32617180208325,
                        "value": 0
                    },
                    {
                        "number": 64,
                        "time": 212.40423080208325,
                        "value": 1
                    },
                    {
                        "number": 64,
                        "time": 212.91405364583323,
                        "value": 0
                    },
                    {
                        "number": 64,
                        "time": 213.1498568749999,
                        "value": 1
                    },
                    {
                        "number": 64,
                        "time": 213.8816599999999,
                        "value": 0
                    },
                    {
                        "number": 64,
                        "time": 213.96541080208323,
                        "value": 1
                    },
                    {
                        "number": 64,
                        "time": 215.06148926041655,
                        "value": 0
                    },
                    {
                        "number": 64,
                        "time": 215.12735154166654,
                        "value": 1
                    },
                    {
                        "number": 64,
                        "time": 215.45422360416654,
                        "value": 0
                    },
                    {
                        "number": 64,
                        "time": 217.01540360416655,
                        "value": 0
                    },
                    {
                        "number": 64,
                        "time": 218.57658360416656,
                        "value": 0
                    },
                    {
                        "number": 64,
                        "time": 219.35717360416655,
                        "value": 0
                    },
                    {
                        "number": 64,
                        "time": 220.13776360416654,
                        "value": 0
                    },
                    {
                        "number": 64,
                        "time": 220.91835360416653,
                        "value": 0
                    },
                    {
                        "number": 64,
                        "time": 222.85844499999985,
                        "value": 0
                    },
                    {
                        "number": 64,
                        "time": 223.24873999999986,
                        "value": 0
                    },
                    {
                        "number": 64,
                        "time": 223.35119243749986,
                        "value": 1
                    },
                    {
                        "number": 64,
                        "time": 224.80991999999986,
                        "value": 0
                    },
                    {
                        "number": 64,
                        "time": 224.80991999999986,
                        "value": 0
                    },
                    {
                        "number": 64,
                        "time": 224.89041834374987,
                        "value": 1
                    },
                    {
                        "number": 64,
                        "time": 226.37109999999987,
                        "value": 0
                    },
                    {
                        "number": 64,
                        "time": 226.37109999999987,
                        "value": 0
                    },
                    {
                        "number": 64,
                        "time": 226.43614916666652,
                        "value": 1
                    },
                    {
                        "number": 64,
                        "time": 226.43614916666652,
                        "value": 1
                    },
                    {
                        "number": 64,
                        "time": 227.93227999999985,
                        "value": 0
                    },
                    {
                        "number": 64,
                        "time": 227.93227999999985,
                        "value": 0
                    },
                    {
                        "number": 64,
                        "time": 227.9973291666665,
                        "value": 1
                    },
                    {
                        "number": 64,
                        "time": 227.9973291666665,
                        "value": 1
                    },
                    {
                        "number": 64,
                        "time": 229.49345999999983,
                        "value": 0
                    },
                    {
                        "number": 64,
                        "time": 229.49345999999983,
                        "value": 0
                    },
                    {
                        "number": 64,
                        "time": 229.55850916666648,
                        "value": 1
                    },
                    {
                        "number": 64,
                        "time": 229.55850916666648,
                        "value": 1
                    },
                    {
                        "number": 64,
                        "time": 230.28624671874982,
                        "value": 0
                    },
                    {
                        "number": 64,
                        "time": 230.3350335937498,
                        "value": 1
                    },
                    {
                        "number": 64,
                        "time": 231.0595186874998,
                        "value": 0
                    },
                    {
                        "number": 64,
                        "time": 232.6206986874998,
                        "value": 0
                    },
                    {
                        "number": 64,
                        "time": 241.9828999999998,
                        "value": 1
                    },
                    {
                        "number": 64,
                        "time": 242.3829523749998,
                        "value": 0
                    },
                    {
                        "number": 64,
                        "time": 243.99129302083313,
                        "value": 1
                    },
                    {
                        "number": 64,
                        "time": 244.3393060624998,
                        "value": 0
                    },
                    {
                        "number": 64,
                        "time": 249.4472918749998,
                        "value": 1
                    },
                    {
                        "number": 64,
                        "time": 249.7912393437498,
                        "value": 0
                    },
                    {
                        "number": 64,
                        "time": 249.85628851041645,
                        "value": 1
                    },
                    {
                        "number": 64,
                        "time": 250.19291794791644,
                        "value": 0
                    },
                    {
                        "number": 64,
                        "time": 250.2189376145831,
                        "value": 1
                    },
                    {
                        "number": 64,
                        "time": 250.57833426041643,
                        "value": 0
                    },
                    {
                        "number": 64,
                        "time": 251.49959308333308,
                        "value": 1
                    },
                    {
                        "number": 64,
                        "time": 252.34848470833307,
                        "value": 0
                    },
                    {
                        "number": 64,
                        "time": 252.95262884374975,
                        "value": 1
                    },
                    {
                        "number": 64,
                        "time": 253.31202548958308,
                        "value": 0
                    },
                    {
                        "number": 64,
                        "time": 253.34780253124976,
                        "value": 1
                    },
                    {
                        "number": 64,
                        "time": 253.7047598333331,
                        "value": 0
                    },
                    {
                        "number": 64,
                        "time": 255.71803154166642,
                        "value": 1
                    },
                    {
                        "number": 64,
                        "time": 256.0741757291664,
                        "value": 0
                    },
                    {
                        "number": 64,
                        "time": 260.7520239270831,
                        "value": 1
                    },
                    {
                        "number": 64,
                        "time": 260.8707386562497,
                        "value": 0
                    },
                    {
                        "number": 64,
                        "time": 261.14231892708307,
                        "value": 1
                    },
                    {
                        "number": 64,
                        "time": 261.2447713645831,
                        "value": 0
                    },
                    {
                        "number": 64,
                        "time": 261.5439975312497,
                        "value": 1
                    },
                    {
                        "number": 64,
                        "time": 261.67003029166636,
                        "value": 0
                    },
                    {
                        "number": 64,
                        "time": 261.92778761458305,
                        "value": 1
                    },
                    {
                        "number": 64,
                        "time": 262.0465023437497,
                        "value": 0
                    },
                    {
                        "number": 64,
                        "time": 262.3758137499997,
                        "value": 1
                    },
                    {
                        "number": 64,
                        "time": 262.67910548958304,
                        "value": 0
                    },
                    {
                        "number": 64,
                        "time": 262.75472514583305,
                        "value": 1
                    },
                    {
                        "number": 64,
                        "time": 263.0702136041664,
                        "value": 0
                    },
                    {
                        "number": 64,
                        "time": 263.15071194791636,
                        "value": 1
                    },
                    {
                        "number": 64,
                        "time": 263.869505239583,
                        "value": 0
                    },
                    {
                        "number": 64,
                        "time": 263.90446916666633,
                        "value": 1
                    },
                    {
                        "number": 64,
                        "time": 263.99553799999967,
                        "value": 0
                    },
                    {
                        "number": 64,
                        "time": 264.2858199062497,
                        "value": 1
                    },
                    {
                        "number": 64,
                        "time": 264.39477726041633,
                        "value": 0
                    },
                    {
                        "number": 64,
                        "time": 264.67123621874964,
                        "value": 1
                    },
                    {
                        "number": 64,
                        "time": 264.77368865624965,
                        "value": 0
                    },
                    {
                        "number": 64,
                        "time": 265.50386555208297,
                        "value": 1
                    },
                    {
                        "number": 64,
                        "time": 266.96177999999964,
                        "value": 0
                    },
                    {
                        "number": 64,
                        "time": 267.04797014583295,
                        "value": 1
                    },
                    {
                        "number": 64,
                        "time": 268.5229599999996,
                        "value": 0
                    },
                    {
                        "number": 64,
                        "time": 268.58069113541626,
                        "value": 1
                    },
                    {
                        "number": 64,
                        "time": 269.3181860624996,
                        "value": 0
                    },
                    {
                        "number": 64,
                        "time": 269.3954319479163,
                        "value": 1
                    },
                    {
                        "number": 64,
                        "time": 270.0890186874996,
                        "value": 0
                    },
                    {
                        "number": 64,
                        "time": 270.19878915624963,
                        "value": 1
                    },
                    {
                        "number": 64,
                        "time": 270.88017917708294,
                        "value": 0
                    },
                    {
                        "number": 64,
                        "time": 270.97368735416626,
                        "value": 1
                    },
                    {
                        "number": 64,
                        "time": 271.65589048958293,
                        "value": 0
                    },
                    {
                        "number": 64,
                        "time": 273.2869983437496,
                        "value": 1
                    },
                    {
                        "number": 64,
                        "time": 273.6049261458329,
                        "value": 0
                    },
                    {
                        "number": 64,
                        "time": 274.7676799999996,
                        "value": 0
                    },
                    {
                        "number": 64,
                        "time": 274.8197193333329,
                        "value": 1
                    },
                    {
                        "number": 64,
                        "time": 275.17505040624957,
                        "value": 0
                    },
                    {
                        "number": 64,
                        "time": 275.23847334374955,
                        "value": 1
                    },
                    {
                        "number": 64,
                        "time": 275.9499486041662,
                        "value": 0
                    },
                    {
                        "number": 64,
                        "time": 276.02475514583284,
                        "value": 1
                    },
                    {
                        "number": 64,
                        "time": 276.33211245833286,
                        "value": 0
                    },
                    {
                        "number": 64,
                        "time": 276.4207419479162,
                        "value": 1
                    },
                    {
                        "number": 64,
                        "time": 276.73623040624955,
                        "value": 0
                    },
                    {
                        "number": 64,
                        "time": 276.7996533437495,
                        "value": 1
                    },
                    {
                        "number": 64,
                        "time": 277.5111286041662,
                        "value": 0
                    },
                    {
                        "number": 64,
                        "time": 277.5859351458328,
                        "value": 1
                    },
                    {
                        "number": 64,
                        "time": 277.8900399999995,
                        "value": 0
                    },
                    {
                        "number": 64,
                        "time": 277.9420793333328,
                        "value": 1
                    },
                    {
                        "number": 64,
                        "time": 278.29741040624947,
                        "value": 0
                    },
                    {
                        "number": 64,
                        "time": 278.36083334374945,
                        "value": 1
                    },
                    {
                        "number": 64,
                        "time": 279.0723086041661,
                        "value": 0
                    },
                    {
                        "number": 64,
                        "time": 279.14711514583274,
                        "value": 1
                    },
                    {
                        "number": 64,
                        "time": 279.45447245833276,
                        "value": 0
                    },
                    {
                        "number": 64,
                        "time": 279.5431019479161,
                        "value": 1
                    },
                    {
                        "number": 64,
                        "time": 279.85859040624945,
                        "value": 0
                    },
                    {
                        "number": 64,
                        "time": 279.9220133437494,
                        "value": 1
                    },
                    {
                        "number": 64,
                        "time": 280.6334886041661,
                        "value": 0
                    },
                    {
                        "number": 64,
                        "time": 280.7082951458327,
                        "value": 1
                    },
                    {
                        "number": 64,
                        "time": 281.0123999999994,
                        "value": 0
                    },
                    {
                        "number": 64,
                        "time": 281.0644393333327,
                        "value": 1
                    },
                    {
                        "number": 64,
                        "time": 281.41977040624937,
                        "value": 0
                    },
                    {
                        "number": 64,
                        "time": 281.48319334374935,
                        "value": 1
                    },
                    {
                        "number": 64,
                        "time": 281.80030803124936,
                        "value": 0
                    },
                    {
                        "number": 64,
                        "time": 281.86779654166605,
                        "value": 1
                    },
                    {
                        "number": 64,
                        "time": 282.19466860416605,
                        "value": 0
                    },
                    {
                        "number": 64,
                        "time": 284.1347599999994,
                        "value": 0
                    },
                    {
                        "number": 64,
                        "time": 288.8182999999994,
                        "value": 0
                    },
                    {
                        "number": 64,
                        "time": 290.4803062083327,
                        "value": 1
                    },
                    {
                        "number": 64,
                        "time": 291.17389294791604,
                        "value": 0
                    },
                    {
                        "number": 64,
                        "time": 291.22593228124936,
                        "value": 1
                    },
                    {
                        "number": 64,
                        "time": 291.5633748333327,
                        "value": 0
                    },
                    {
                        "number": 64,
                        "time": 291.60240433333274,
                        "value": 1
                    },
                    {
                        "number": 64,
                        "time": 291.9406599999994,
                        "value": 0
                    },
                    {
                        "number": 64,
                        "time": 293.5018399999994,
                        "value": 0
                    },
                    {
                        "number": 64,
                        "time": 295.1638462083327,
                        "value": 1
                    },
                    {
                        "number": 64,
                        "time": 295.85743294791604,
                        "value": 0
                    },
                    {
                        "number": 64,
                        "time": 295.90947228124935,
                        "value": 1
                    },
                    {
                        "number": 64,
                        "time": 296.2469148333327,
                        "value": 0
                    },
                    {
                        "number": 64,
                        "time": 296.28594433333274,
                        "value": 1
                    },
                    {
                        "number": 64,
                        "time": 296.6241999999994,
                        "value": 0
                    },
                    {
                        "number": 64,
                        "time": 298.1853799999994,
                        "value": 0
                    },
                    {
                        "number": 64,
                        "time": 302.9006314687494,
                        "value": 1
                    },
                    {
                        "number": 64,
                        "time": 303.6812214687494,
                        "value": 0
                    },
                    {
                        "number": 64,
                        "time": 304.50490654166606,
                        "value": 1
                    },
                    {
                        "number": 64,
                        "time": 305.6123686041661,
                        "value": 0
                    },
                    {
                        "number": 64,
                        "time": 305.6530243333327,
                        "value": 1
                    },
                    {
                        "number": 64,
                        "time": 305.9961586874994,
                        "value": 0
                    },
                    {
                        "number": 64,
                        "time": 306.07990948958275,
                        "value": 1
                    },
                    {
                        "number": 64,
                        "time": 307.1759879479161,
                        "value": 0
                    },
                    {
                        "number": 64,
                        "time": 307.24103711458275,
                        "value": 1
                    },
                    {
                        "number": 64,
                        "time": 307.5557124583328,
                        "value": 0
                    },
                    {
                        "number": 64,
                        "time": 307.65491243749943,
                        "value": 1
                    },
                    {
                        "number": 64,
                        "time": 308.7371679479161,
                        "value": 0
                    },
                    {
                        "number": 64,
                        "time": 308.80221711458273,
                        "value": 1
                    },
                    {
                        "number": 64,
                        "time": 309.1185186874994,
                        "value": 0
                    },
                    {
                        "number": 64,
                        "time": 309.1827547395827,
                        "value": 1
                    },
                    {
                        "number": 64,
                        "time": 310.29346926041603,
                        "value": 0
                    },
                    {
                        "number": 64,
                        "time": 310.3308725312494,
                        "value": 1
                    },
                    {
                        "number": 64,
                        "time": 310.68132491666603,
                        "value": 0
                    },
                    {
                        "number": 64,
                        "time": 310.7536921145827,
                        "value": 1
                    },
                    {
                        "number": 64,
                        "time": 311.85302303124934,
                        "value": 0
                    },
                    {
                        "number": 64,
                        "time": 311.9432787499993,
                        "value": 1
                    },
                    {
                        "number": 64,
                        "time": 312.24250491666595,
                        "value": 0
                    },
                    {
                        "number": 64,
                        "time": 312.30592785416593,
                        "value": 1
                    },
                    {
                        "number": 64,
                        "time": 313.41664237499924,
                        "value": 0
                    },
                    {
                        "number": 64,
                        "time": 313.48575711458255,
                        "value": 1
                    },
                    {
                        "number": 64,
                        "time": 313.8110029479159,
                        "value": 0
                    },
                    {
                        "number": 64,
                        "time": 313.8752389999992,
                        "value": 1
                    },
                    {
                        "number": 64,
                        "time": 314.97619614583255,
                        "value": 0
                    },
                    {
                        "number": 64,
                        "time": 315.02010433333254,
                        "value": 1
                    },
                    {
                        "number": 64,
                        "time": 315.3583599999992,
                        "value": 0
                    },
                    {
                        "number": 64,
                        "time": 315.5974156874992,
                        "value": 1
                    },
                    {
                        "number": 64,
                        "time": 317.3748841666659,
                        "value": 0
                    }
                ]
            },
            "id": 3,
            "name": "Pedale",
            "instrumentNumber": 0,
            "instrument": "acoustic grand piano",
            "instrumentFamily": "piano",
            "channelNumber": 0,
            "isPercussion": false
        },
        {
            "startTime": 0,
            "duration": 0,
            "length": 0,
            "notes": [],
            "controlChanges": {},
            "id": 4,
            "name": "Haydn: Sonata Hoboken XVI:43 1. movement"
        },
        {
            "startTime": 0,
            "duration": 0,
            "length": 0,
            "notes": [],
            "controlChanges": {},
            "id": 5,
            "name": "Copyright  2010 by Bernd Krueger"
        },
        {
            "startTime": 0,
            "duration": 0,
            "length": 0,
            "notes": [],
            "controlChanges": {},
            "id": 6,
            "name": "http://www.piano-midi.de/"
        },
        {
            "startTime": 0,
            "duration": 0,
            "length": 0,
            "notes": [],
            "controlChanges": {},
            "id": 7,
            "name": "Edition: 2012-01-08"
        },
        {
            "startTime": 0,
            "duration": 0,
            "length": 0,
            "notes": [],
            "controlChanges": {},
            "id": 8,
            "name": "Spur 8"
        },
        {
            "startTime": 0,
            "duration": 0,
            "length": 0,
            "notes": [],
            "controlChanges": {},
            "id": 9,
            "name": "Spur 9"
        },
        {
            "startTime": 0,
            "duration": 0,
            "length": 0,
            "notes": [],
            "controlChanges": {},
            "id": 10,
            "name": "Spur 10"
        },
        {
            "startTime": 0,
            "duration": 0,
            "length": 0,
            "notes": [],
            "controlChanges": {},
            "id": 11,
            "name": "Spur 11"
        },
        {
            "startTime": 0,
            "duration": 0,
            "length": 0,
            "notes": [],
            "controlChanges": {},
            "id": 12,
            "name": "Spur 12"
        },
        {
            "startTime": 0,
            "duration": 0,
            "length": 0,
            "notes": [],
            "controlChanges": {},
            "id": 13,
            "name": "Spur 13"
        },
        {
            "startTime": 0,
            "duration": 0,
            "length": 0,
            "notes": [],
            "controlChanges": {},
            "id": 14,
            "name": "Spur 14"
        },
        {
            "startTime": 0,
            "duration": 0,
            "length": 0,
            "notes": [],
            "controlChanges": {},
            "id": 15,
            "name": "Spur 15"
        },
        {
            "startTime": 0,
            "duration": 0,
            "length": 0,
            "notes": [],
            "controlChanges": {},
            "id": 16,
            "name": "Spur 16"
        }
    ]
}