{
    "header": {
        "PPQ": 480,
        "timeSignature": [
            2,
            4
        ],
        "bpm": 119.30991147204568,
        "name": "Scherzo"
    },
    "startTime": 0,
    "duration": 48.78052400000016,
    "tracks": [
        {
            "startTime": 0,
            "duration": 0,
            "length": 0,
            "notes": [],
            "controlChanges": {},
            "id": 0,
            "name": "Scherzo"
        },
        {
            "startTime": 0.754338,
            "duration": 48.78052400000016,
            "length": 266,
            "notes": [
                {
                    "name": "C5",
                    "midi": 72,
                    "time": 0.754338,
                    "velocity": 0.31496062992125984,
                    "duration": 0.25144600000000006
                },
                {
                    "name": "F5",
                    "midi": 77,
                    "time": 1.005784,
                    "velocity": 0.3543307086614173,
                    "duration": 0.12572300000000003
                },
                {
                    "name": "C5",
                    "midi": 72,
                    "time": 1.131507,
                    "velocity": 0.31496062992125984,
                    "duration": 0.12572300000000003
                },
                {
                    "name": "F5",
                    "midi": 77,
                    "time": 1.25723,
                    "velocity": 0.3228346456692913,
                    "duration": 0.12572300000000003
                },
                {
                    "name": "C5",
                    "midi": 72,
                    "time": 1.382953,
                    "velocity": 0.33070866141732286,
                    "duration": 0.12572300000000003
                },
                {
                    "name": "A5",
                    "midi": 81,
                    "time": 1.5086760000000001,
                    "velocity": 0.3779527559055118,
                    "duration": 0.12572300000000003
                },
                {
                    "name": "F5",
                    "midi": 77,
                    "time": 1.6343990000000002,
                    "velocity": 0.3464566929133858,
                    "duration": 0.12572300000000003
                },
                {
                    "name": "A5",
                    "midi": 81,
                    "time": 1.7601220000000002,
                    "velocity": 0.3464566929133858,
                    "duration": 0.12572300000000003
                },
                {
                    "name": "F5",
                    "midi": 77,
                    "time": 1.8858450000000002,
                    "velocity": 0.3543307086614173,
                    "duration": 0.1257229999999998
                },
                {
                    "name": "C6",
                    "midi": 84,
                    "time": 2.011568,
                    "velocity": 0.4330708661417323,
                    "duration": 0.5028920000000001
                },
                {
                    "name": "A#5",
                    "midi": 82,
                    "time": 2.51446,
                    "velocity": 0.3700787401574803,
                    "duration": 0.1257229999999998
                },
                {
                    "name": "A5",
                    "midi": 81,
                    "time": 2.640183,
                    "velocity": 0.3464566929133858,
                    "duration": 0.1257229999999998
                },
                {
                    "name": "G5",
                    "midi": 79,
                    "time": 2.7659059999999998,
                    "velocity": 0.3464566929133858,
                    "duration": 0.1257229999999998
                },
                {
                    "name": "F5",
                    "midi": 77,
                    "time": 2.8916289999999996,
                    "velocity": 0.3464566929133858,
                    "duration": 0.1257229999999998
                },
                {
                    "name": "E5",
                    "midi": 76,
                    "time": 3.0173519999999994,
                    "velocity": 0.3464566929133858,
                    "duration": 0.1257229999999998
                },
                {
                    "name": "F5",
                    "midi": 77,
                    "time": 3.143074999999999,
                    "velocity": 0.3543307086614173,
                    "duration": 0.1257229999999998
                },
                {
                    "name": "G5",
                    "midi": 79,
                    "time": 3.268797999999999,
                    "velocity": 0.36220472440944884,
                    "duration": 0.1257229999999998
                },
                {
                    "name": "E5",
                    "midi": 76,
                    "time": 3.394520999999999,
                    "velocity": 0.3464566929133858,
                    "duration": 0.1257229999999998
                },
                {
                    "name": "C5",
                    "midi": 72,
                    "time": 3.5202439999999986,
                    "velocity": 0.3700787401574803,
                    "duration": 0.1257229999999998
                },
                {
                    "name": "G5",
                    "midi": 79,
                    "time": 3.771689999999998,
                    "velocity": 0.30708661417322836,
                    "duration": 0.0628614999999999
                },
                {
                    "name": "A#5",
                    "midi": 82,
                    "time": 3.771689999999998,
                    "velocity": 0.3700787401574803,
                    "duration": 0.0628614999999999
                },
                {
                    "name": "G5",
                    "midi": 79,
                    "time": 4.023135999999998,
                    "velocity": 0.30708661417322836,
                    "duration": 0.5028920000000001
                },
                {
                    "name": "A#5",
                    "midi": 82,
                    "time": 4.023135999999998,
                    "velocity": 0.36220472440944884,
                    "duration": 0.5028920000000001
                },
                {
                    "name": "A5",
                    "midi": 81,
                    "time": 4.526027999999998,
                    "velocity": 0.3543307086614173,
                    "duration": 0.2514459999999996
                },
                {
                    "name": "F5",
                    "midi": 77,
                    "time": 4.526027999999998,
                    "velocity": 0.2992125984251969,
                    "duration": 0.2514459999999996
                },
                {
                    "name": "C5",
                    "midi": 72,
                    "time": 4.777473999999998,
                    "velocity": 0.31496062992125984,
                    "duration": 0.2514459999999996
                },
                {
                    "name": "F5",
                    "midi": 77,
                    "time": 5.028919999999998,
                    "velocity": 0.3543307086614173,
                    "duration": 0.1257229999999998
                },
                {
                    "name": "C5",
                    "midi": 72,
                    "time": 5.154642999999997,
                    "velocity": 0.31496062992125984,
                    "duration": 0.1257229999999998
                },
                {
                    "name": "F5",
                    "midi": 77,
                    "time": 5.280365999999997,
                    "velocity": 0.3228346456692913,
                    "duration": 0.1257229999999998
                },
                {
                    "name": "C5",
                    "midi": 72,
                    "time": 5.406088999999997,
                    "velocity": 0.33070866141732286,
                    "duration": 0.1257229999999998
                },
                {
                    "name": "A5",
                    "midi": 81,
                    "time": 5.531811999999997,
                    "velocity": 0.3779527559055118,
                    "duration": 0.1257229999999998
                },
                {
                    "name": "F5",
                    "midi": 77,
                    "time": 5.657534999999997,
                    "velocity": 0.3464566929133858,
                    "duration": 0.1257229999999998
                },
                {
                    "name": "A5",
                    "midi": 81,
                    "time": 5.7832579999999965,
                    "velocity": 0.3464566929133858,
                    "duration": 0.1257229999999998
                },
                {
                    "name": "F5",
                    "midi": 77,
                    "time": 5.908980999999996,
                    "velocity": 0.3543307086614173,
                    "duration": 0.1257229999999998
                },
                {
                    "name": "C6",
                    "midi": 84,
                    "time": 6.034703999999996,
                    "velocity": 0.4330708661417323,
                    "duration": 0.5028920000000001
                },
                {
                    "name": "A#5",
                    "midi": 82,
                    "time": 6.537595999999996,
                    "velocity": 0.3700787401574803,
                    "duration": 0.1257229999999998
                },
                {
                    "name": "A5",
                    "midi": 81,
                    "time": 6.663318999999996,
                    "velocity": 0.3464566929133858,
                    "duration": 0.1257229999999998
                },
                {
                    "name": "G5",
                    "midi": 79,
                    "time": 6.789041999999996,
                    "velocity": 0.3464566929133858,
                    "duration": 0.1257229999999998
                },
                {
                    "name": "F5",
                    "midi": 77,
                    "time": 6.914764999999996,
                    "velocity": 0.3464566929133858,
                    "duration": 0.1257229999999998
                },
                {
                    "name": "G5",
                    "midi": 79,
                    "time": 7.040487999999995,
                    "velocity": 0.31496062992125984,
                    "duration": 0.1257229999999998
                },
                {
                    "name": "A5",
                    "midi": 81,
                    "time": 7.166210999999995,
                    "velocity": 0.3228346456692913,
                    "duration": 0.1257229999999998
                },
                {
                    "name": "A#5",
                    "midi": 82,
                    "time": 7.291933999999995,
                    "velocity": 0.33070866141732286,
                    "duration": 0.1257229999999998
                },
                {
                    "name": "G5",
                    "midi": 79,
                    "time": 7.417656999999995,
                    "velocity": 0.31496062992125984,
                    "duration": 0.1257229999999998
                },
                {
                    "name": "F5",
                    "midi": 77,
                    "time": 7.543379999999995,
                    "velocity": 0.33858267716535434,
                    "duration": 0.1257229999999998
                },
                {
                    "name": "E5",
                    "midi": 76,
                    "time": 7.6691029999999945,
                    "velocity": 0.33858267716535434,
                    "duration": 0.1257229999999998
                },
                {
                    "name": "D5",
                    "midi": 74,
                    "time": 7.794825999999994,
                    "velocity": 0.33858267716535434,
                    "duration": 0.1257229999999998
                },
                {
                    "name": "C5",
                    "midi": 72,
                    "time": 7.920548999999994,
                    "velocity": 0.33858267716535434,
                    "duration": 0.1257230000000007
                },
                {
                    "name": "F5",
                    "midi": 77,
                    "time": 8.046271999999995,
                    "velocity": 0.36220472440944884,
                    "duration": 0.5028919999999992
                },
                {
                    "name": "C5",
                    "midi": 72,
                    "time": 8.800609999999994,
                    "velocity": 0.31496062992125984,
                    "duration": 0.2514459999999996
                },
                {
                    "name": "F5",
                    "midi": 77,
                    "time": 9.052055999999993,
                    "velocity": 0.3543307086614173,
                    "duration": 0.1257230000000007
                },
                {
                    "name": "C5",
                    "midi": 72,
                    "time": 9.177778999999994,
                    "velocity": 0.31496062992125984,
                    "duration": 0.1257230000000007
                },
                {
                    "name": "F5",
                    "midi": 77,
                    "time": 9.303501999999995,
                    "velocity": 0.3228346456692913,
                    "duration": 0.1257230000000007
                },
                {
                    "name": "C5",
                    "midi": 72,
                    "time": 9.429224999999995,
                    "velocity": 0.33070866141732286,
                    "duration": 0.1257230000000007
                },
                {
                    "name": "A5",
                    "midi": 81,
                    "time": 9.554947999999996,
                    "velocity": 0.3779527559055118,
                    "duration": 0.1257230000000007
                },
                {
                    "name": "F5",
                    "midi": 77,
                    "time": 9.680670999999997,
                    "velocity": 0.3464566929133858,
                    "duration": 0.1257230000000007
                },
                {
                    "name": "A5",
                    "midi": 81,
                    "time": 9.806393999999997,
                    "velocity": 0.3464566929133858,
                    "duration": 0.1257230000000007
                },
                {
                    "name": "F5",
                    "midi": 77,
                    "time": 9.932116999999998,
                    "velocity": 0.3543307086614173,
                    "duration": 0.1257230000000007
                },
                {
                    "name": "C6",
                    "midi": 84,
                    "time": 10.057839999999999,
                    "velocity": 0.4330708661417323,
                    "duration": 0.5028919999999992
                },
                {
                    "name": "A#5",
                    "midi": 82,
                    "time": 10.560731999999998,
                    "velocity": 0.3700787401574803,
                    "duration": 0.1257230000000007
                },
                {
                    "name": "A5",
                    "midi": 81,
                    "time": 10.686454999999999,
                    "velocity": 0.3464566929133858,
                    "duration": 0.1257230000000007
                },
                {
                    "name": "G5",
                    "midi": 79,
                    "time": 10.812178,
                    "velocity": 0.3464566929133858,
                    "duration": 0.1257230000000007
                },
                {
                    "name": "F5",
                    "midi": 77,
                    "time": 10.937901,
                    "velocity": 0.3464566929133858,
                    "duration": 0.1257230000000007
                },
                {
                    "name": "E5",
                    "midi": 76,
                    "time": 11.063624,
                    "velocity": 0.3464566929133858,
                    "duration": 0.1257230000000007
                },
                {
                    "name": "F5",
                    "midi": 77,
                    "time": 11.189347000000001,
                    "velocity": 0.3543307086614173,
                    "duration": 0.1257230000000007
                },
                {
                    "name": "G5",
                    "midi": 79,
                    "time": 11.315070000000002,
                    "velocity": 0.36220472440944884,
                    "duration": 0.1257230000000007
                },
                {
                    "name": "E5",
                    "midi": 76,
                    "time": 11.440793000000003,
                    "velocity": 0.3464566929133858,
                    "duration": 0.1257230000000007
                },
                {
                    "name": "C5",
                    "midi": 72,
                    "time": 11.566516000000004,
                    "velocity": 0.3700787401574803,
                    "duration": 0.1257230000000007
                },
                {
                    "name": "G5",
                    "midi": 79,
                    "time": 11.817962000000005,
                    "velocity": 0.30708661417322836,
                    "duration": 0.06286150000000035
                },
                {
                    "name": "A#5",
                    "midi": 82,
                    "time": 11.817962000000005,
                    "velocity": 0.3700787401574803,
                    "duration": 0.06286150000000035
                },
                {
                    "name": "G5",
                    "midi": 79,
                    "time": 12.069408000000005,
                    "velocity": 0.30708661417322836,
                    "duration": 0.5028919999999992
                },
                {
                    "name": "A#5",
                    "midi": 82,
                    "time": 12.069408000000005,
                    "velocity": 0.36220472440944884,
                    "duration": 0.5028919999999992
                },
                {
                    "name": "A5",
                    "midi": 81,
                    "time": 12.572300000000004,
                    "velocity": 0.3543307086614173,
                    "duration": 0.2514459999999996
                },
                {
                    "name": "F5",
                    "midi": 77,
                    "time": 12.572300000000004,
                    "velocity": 0.2992125984251969,
                    "duration": 0.2514459999999996
                },
                {
                    "name": "C5",
                    "midi": 72,
                    "time": 12.823746000000003,
                    "velocity": 0.31496062992125984,
                    "duration": 0.2514459999999996
                },
                {
                    "name": "F5",
                    "midi": 77,
                    "time": 13.075192000000003,
                    "velocity": 0.3543307086614173,
                    "duration": 0.1257230000000007
                },
                {
                    "name": "C5",
                    "midi": 72,
                    "time": 13.200915000000004,
                    "velocity": 0.31496062992125984,
                    "duration": 0.1257230000000007
                },
                {
                    "name": "F5",
                    "midi": 77,
                    "time": 13.326638000000004,
                    "velocity": 0.33070866141732286,
                    "duration": 0.1257230000000007
                },
                {
                    "name": "C5",
                    "midi": 72,
                    "time": 13.452361000000005,
                    "velocity": 0.33070866141732286,
                    "duration": 0.1257230000000007
                },
                {
                    "name": "A5",
                    "midi": 81,
                    "time": 13.578084000000006,
                    "velocity": 0.3858267716535433,
                    "duration": 0.1257230000000007
                },
                {
                    "name": "F5",
                    "midi": 77,
                    "time": 13.703807000000007,
                    "velocity": 0.3464566929133858,
                    "duration": 0.1257230000000007
                },
                {
                    "name": "A5",
                    "midi": 81,
                    "time": 13.829530000000007,
                    "velocity": 0.36220472440944884,
                    "duration": 0.1257230000000007
                },
                {
                    "name": "F5",
                    "midi": 77,
                    "time": 13.955253000000008,
                    "velocity": 0.36220472440944884,
                    "duration": 0.1257230000000007
                },
                {
                    "name": "C6",
                    "midi": 84,
                    "time": 14.080976000000009,
                    "velocity": 0.3779527559055118,
                    "duration": 0.5028919999999992
                },
                {
                    "name": "A#5",
                    "midi": 82,
                    "time": 14.583868000000008,
                    "velocity": 0.3700787401574803,
                    "duration": 0.1257230000000007
                },
                {
                    "name": "A5",
                    "midi": 81,
                    "time": 14.709591000000009,
                    "velocity": 0.3464566929133858,
                    "duration": 0.1257230000000007
                },
                {
                    "name": "G5",
                    "midi": 79,
                    "time": 14.83531400000001,
                    "velocity": 0.3464566929133858,
                    "duration": 0.1257230000000007
                },
                {
                    "name": "F5",
                    "midi": 77,
                    "time": 14.96103700000001,
                    "velocity": 0.3464566929133858,
                    "duration": 0.1257230000000007
                },
                {
                    "name": "G5",
                    "midi": 79,
                    "time": 15.08676000000001,
                    "velocity": 0.31496062992125984,
                    "duration": 0.1257230000000007
                },
                {
                    "name": "A5",
                    "midi": 81,
                    "time": 15.212483000000011,
                    "velocity": 0.3228346456692913,
                    "duration": 0.1257230000000007
                },
                {
                    "name": "A#5",
                    "midi": 82,
                    "time": 15.338206000000012,
                    "velocity": 0.33070866141732286,
                    "duration": 0.1257230000000007
                },
                {
                    "name": "G5",
                    "midi": 79,
                    "time": 15.463929000000013,
                    "velocity": 0.31496062992125984,
                    "duration": 0.1257230000000007
                },
                {
                    "name": "F5",
                    "midi": 77,
                    "time": 15.589652000000013,
                    "velocity": 0.33858267716535434,
                    "duration": 0.1257230000000007
                },
                {
                    "name": "E5",
                    "midi": 76,
                    "time": 15.715375000000014,
                    "velocity": 0.33858267716535434,
                    "duration": 0.1257230000000007
                },
                {
                    "name": "D5",
                    "midi": 74,
                    "time": 15.841098000000015,
                    "velocity": 0.33858267716535434,
                    "duration": 0.1257230000000007
                },
                {
                    "name": "C5",
                    "midi": 72,
                    "time": 15.966821000000015,
                    "velocity": 0.33858267716535434,
                    "duration": 0.12572299999999892
                },
                {
                    "name": "F5",
                    "midi": 77,
                    "time": 16.092544000000014,
                    "velocity": 0.36220472440944884,
                    "duration": 0.5028919999999992
                },
                {
                    "name": "C5",
                    "midi": 72,
                    "time": 16.846882000000015,
                    "velocity": 0.33070866141732286,
                    "duration": 0.2514460000000014
                },
                {
                    "name": "A#5",
                    "midi": 82,
                    "time": 17.098328000000016,
                    "velocity": 0.3543307086614173,
                    "duration": 0.1257230000000007
                },
                {
                    "name": "A#5",
                    "midi": 82,
                    "time": 17.349774000000018,
                    "velocity": 0.30708661417322836,
                    "duration": 0.1257230000000007
                },
                {
                    "name": "A#5",
                    "midi": 82,
                    "time": 17.60122000000002,
                    "velocity": 0.3464566929133858,
                    "duration": 0.1257230000000007
                },
                {
                    "name": "D6",
                    "midi": 86,
                    "time": 17.85266600000002,
                    "velocity": 0.3700787401574803,
                    "duration": 0.1257230000000007
                },
                {
                    "name": "A#5",
                    "midi": 82,
                    "time": 17.97838900000002,
                    "velocity": 0.33858267716535434,
                    "duration": 0.1257230000000007
                },
                {
                    "name": "A5",
                    "midi": 81,
                    "time": 18.104112000000022,
                    "velocity": 0.3937007874015748,
                    "duration": 0.5028919999999992
                },
                {
                    "name": "C6",
                    "midi": 84,
                    "time": 18.858450000000023,
                    "velocity": 0.3937007874015748,
                    "duration": 0.2514460000000014
                },
                {
                    "name": "E5",
                    "midi": 76,
                    "time": 19.109896000000024,
                    "velocity": 0.44881889763779526,
                    "duration": 0.1257230000000007
                },
                {
                    "name": "E5",
                    "midi": 76,
                    "time": 19.361342000000025,
                    "velocity": 0.3543307086614173,
                    "duration": 0.1257230000000007
                },
                {
                    "name": "E5",
                    "midi": 76,
                    "time": 19.612788000000027,
                    "velocity": 0.3937007874015748,
                    "duration": 0.1257230000000007
                },
                {
                    "name": "G5",
                    "midi": 79,
                    "time": 19.864234000000028,
                    "velocity": 0.4251968503937008,
                    "duration": 0.1257230000000007
                },
                {
                    "name": "E5",
                    "midi": 76,
                    "time": 19.98995700000003,
                    "velocity": 0.36220472440944884,
                    "duration": 0.1257230000000007
                },
                {
                    "name": "F5",
                    "midi": 77,
                    "time": 20.11568000000003,
                    "velocity": 0.41732283464566927,
                    "duration": 0.5028919999999992
                },
                {
                    "name": "C5",
                    "midi": 72,
                    "time": 20.87001800000003,
                    "velocity": 0.3937007874015748,
                    "duration": 0.2514460000000014
                },
                {
                    "name": "G5",
                    "midi": 79,
                    "time": 21.12146400000003,
                    "velocity": 0.4330708661417323,
                    "duration": 0.1257230000000007
                },
                {
                    "name": "G5",
                    "midi": 79,
                    "time": 21.372910000000033,
                    "velocity": 0.41732283464566927,
                    "duration": 0.1257230000000007
                },
                {
                    "name": "G5",
                    "midi": 79,
                    "time": 21.624356000000034,
                    "velocity": 0.4409448818897638,
                    "duration": 0.1257230000000007
                },
                {
                    "name": "G4",
                    "midi": 67,
                    "time": 21.875802000000036,
                    "velocity": 0.4251968503937008,
                    "duration": 0.1257230000000007
                },
                {
                    "name": "A#4",
                    "midi": 70,
                    "time": 22.001525000000036,
                    "velocity": 0.3779527559055118,
                    "duration": 0.1257230000000007
                },
                {
                    "name": "A4",
                    "midi": 69,
                    "time": 22.127248000000037,
                    "velocity": 0.4251968503937008,
                    "duration": 0.1257230000000007
                },
                {
                    "name": "C5",
                    "midi": 72,
                    "time": 22.252971000000038,
                    "velocity": 0.36220472440944884,
                    "duration": 0.1257230000000007
                },
                {
                    "name": "A#4",
                    "midi": 70,
                    "time": 22.37869400000004,
                    "velocity": 0.4251968503937008,
                    "duration": 0.1257230000000007
                },
                {
                    "name": "A4",
                    "midi": 69,
                    "time": 22.50441700000004,
                    "velocity": 0.36220472440944884,
                    "duration": 0.1257230000000007
                },
                {
                    "name": "G4",
                    "midi": 67,
                    "time": 22.63014000000004,
                    "velocity": 0.4251968503937008,
                    "duration": 0.1257230000000007
                },
                {
                    "name": "F4",
                    "midi": 65,
                    "time": 22.75586300000004,
                    "velocity": 0.36220472440944884,
                    "duration": 0.1257230000000007
                },
                {
                    "name": "E4",
                    "midi": 64,
                    "time": 22.88158600000004,
                    "velocity": 0.3858267716535433,
                    "duration": 0.1257230000000007
                },
                {
                    "name": "F4",
                    "midi": 65,
                    "time": 23.007309000000042,
                    "velocity": 0.3543307086614173,
                    "duration": 0.1257230000000007
                },
                {
                    "name": "D4",
                    "midi": 62,
                    "time": 23.133032000000043,
                    "velocity": 0.3543307086614173,
                    "duration": 0.1257230000000007
                },
                {
                    "name": "A#4",
                    "midi": 70,
                    "time": 23.258755000000043,
                    "velocity": 0.4015748031496063,
                    "duration": 0.1257230000000007
                },
                {
                    "name": "D5",
                    "midi": 74,
                    "time": 23.384478000000044,
                    "velocity": 0.4566929133858268,
                    "duration": 0.1257230000000007
                },
                {
                    "name": "C5",
                    "midi": 72,
                    "time": 23.510201000000045,
                    "velocity": 0.3543307086614173,
                    "duration": 0.1257230000000007
                },
                {
                    "name": "A#4",
                    "midi": 70,
                    "time": 23.635924000000045,
                    "velocity": 0.4251968503937008,
                    "duration": 0.1257230000000007
                },
                {
                    "name": "A4",
                    "midi": 69,
                    "time": 23.761647000000046,
                    "velocity": 0.36220472440944884,
                    "duration": 0.1257230000000007
                },
                {
                    "name": "G4",
                    "midi": 67,
                    "time": 23.887370000000047,
                    "velocity": 0.3937007874015748,
                    "duration": 0.1257230000000007
                },
                {
                    "name": "F4",
                    "midi": 65,
                    "time": 24.013093000000048,
                    "velocity": 0.3858267716535433,
                    "duration": 0.1257230000000007
                },
                {
                    "name": "E4",
                    "midi": 64,
                    "time": 24.13881600000005,
                    "velocity": 0.4566929133858268,
                    "duration": 0.5028919999999992
                },
                {
                    "name": "C5",
                    "midi": 72,
                    "time": 24.89315400000005,
                    "velocity": 0.31496062992125984,
                    "duration": 0.2514460000000014
                },
                {
                    "name": "F5",
                    "midi": 77,
                    "time": 25.14460000000005,
                    "velocity": 0.3543307086614173,
                    "duration": 0.1257230000000007
                },
                {
                    "name": "C5",
                    "midi": 72,
                    "time": 25.27032300000005,
                    "velocity": 0.31496062992125984,
                    "duration": 0.1257230000000007
                },
                {
                    "name": "F5",
                    "midi": 77,
                    "time": 25.39604600000005,
                    "velocity": 0.3228346456692913,
                    "duration": 0.1257230000000007
                },
                {
                    "name": "C5",
                    "midi": 72,
                    "time": 25.521769000000052,
                    "velocity": 0.33070866141732286,
                    "duration": 0.1257230000000007
                },
                {
                    "name": "A5",
                    "midi": 81,
                    "time": 25.647492000000053,
                    "velocity": 0.3779527559055118,
                    "duration": 0.1257230000000007
                },
                {
                    "name": "F5",
                    "midi": 77,
                    "time": 25.773215000000054,
                    "velocity": 0.3464566929133858,
                    "duration": 0.1257230000000007
                },
                {
                    "name": "A5",
                    "midi": 81,
                    "time": 25.898938000000054,
                    "velocity": 0.3464566929133858,
                    "duration": 0.1257230000000007
                },
                {
                    "name": "F5",
                    "midi": 77,
                    "time": 26.024661000000055,
                    "velocity": 0.3543307086614173,
                    "duration": 0.1257230000000007
                },
                {
                    "name": "C6",
                    "midi": 84,
                    "time": 26.150384000000056,
                    "velocity": 0.4330708661417323,
                    "duration": 0.5028919999999992
                },
                {
                    "name": "A#5",
                    "midi": 82,
                    "time": 26.653276000000055,
                    "velocity": 0.3700787401574803,
                    "duration": 0.1257230000000007
                },
                {
                    "name": "A5",
                    "midi": 81,
                    "time": 26.778999000000056,
                    "velocity": 0.3464566929133858,
                    "duration": 0.1257230000000007
                },
                {
                    "name": "G5",
                    "midi": 79,
                    "time": 26.904722000000056,
                    "velocity": 0.3464566929133858,
                    "duration": 0.1257230000000007
                },
                {
                    "name": "F5",
                    "midi": 77,
                    "time": 27.030445000000057,
                    "velocity": 0.3464566929133858,
                    "duration": 0.1257230000000007
                },
                {
                    "name": "E5",
                    "midi": 76,
                    "time": 27.156168000000058,
                    "velocity": 0.3464566929133858,
                    "duration": 0.1257230000000007
                },
                {
                    "name": "F5",
                    "midi": 77,
                    "time": 27.28189100000006,
                    "velocity": 0.3543307086614173,
                    "duration": 0.1257230000000007
                },
                {
                    "name": "G5",
                    "midi": 79,
                    "time": 27.40761400000006,
                    "velocity": 0.36220472440944884,
                    "duration": 0.1257230000000007
                },
                {
                    "name": "E5",
                    "midi": 76,
                    "time": 27.53333700000006,
                    "velocity": 0.3464566929133858,
                    "duration": 0.1257230000000007
                },
                {
                    "name": "C5",
                    "midi": 72,
                    "time": 27.65906000000006,
                    "velocity": 0.3700787401574803,
                    "duration": 0.1257230000000007
                },
                {
                    "name": "G5",
                    "midi": 79,
                    "time": 27.910506000000062,
                    "velocity": 0.30708661417322836,
                    "duration": 0.06286150000000035
                },
                {
                    "name": "A#5",
                    "midi": 82,
                    "time": 27.910506000000062,
                    "velocity": 0.3700787401574803,
                    "duration": 0.06286150000000035
                },
                {
                    "name": "G5",
                    "midi": 79,
                    "time": 28.161952000000063,
                    "velocity": 0.30708661417322836,
                    "duration": 0.5028919999999992
                },
                {
                    "name": "A#5",
                    "midi": 82,
                    "time": 28.161952000000063,
                    "velocity": 0.36220472440944884,
                    "duration": 0.5028919999999992
                },
                {
                    "name": "A5",
                    "midi": 81,
                    "time": 28.664844000000063,
                    "velocity": 0.3543307086614173,
                    "duration": 0.2514460000000014
                },
                {
                    "name": "F5",
                    "midi": 77,
                    "time": 28.664844000000063,
                    "velocity": 0.2992125984251969,
                    "duration": 0.2514460000000014
                },
                {
                    "name": "C5",
                    "midi": 72,
                    "time": 28.916290000000064,
                    "velocity": 0.31496062992125984,
                    "duration": 0.2514460000000014
                },
                {
                    "name": "F5",
                    "midi": 77,
                    "time": 29.167736000000065,
                    "velocity": 0.3543307086614173,
                    "duration": 0.1257230000000007
                },
                {
                    "name": "C5",
                    "midi": 72,
                    "time": 29.293459000000066,
                    "velocity": 0.31496062992125984,
                    "duration": 0.1257230000000007
                },
                {
                    "name": "F5",
                    "midi": 77,
                    "time": 29.419182000000067,
                    "velocity": 0.3228346456692913,
                    "duration": 0.1257230000000007
                },
                {
                    "name": "C5",
                    "midi": 72,
                    "time": 29.544905000000067,
                    "velocity": 0.33070866141732286,
                    "duration": 0.1257230000000007
                },
                {
                    "name": "A5",
                    "midi": 81,
                    "time": 29.670628000000068,
                    "velocity": 0.3779527559055118,
                    "duration": 0.1257230000000007
                },
                {
                    "name": "F5",
                    "midi": 77,
                    "time": 29.79635100000007,
                    "velocity": 0.3464566929133858,
                    "duration": 0.1257230000000007
                },
                {
                    "name": "A5",
                    "midi": 81,
                    "time": 29.92207400000007,
                    "velocity": 0.3464566929133858,
                    "duration": 0.1257230000000007
                },
                {
                    "name": "F5",
                    "midi": 77,
                    "time": 30.04779700000007,
                    "velocity": 0.3543307086614173,
                    "duration": 0.1257230000000007
                },
                {
                    "name": "C6",
                    "midi": 84,
                    "time": 30.17352000000007,
                    "velocity": 0.4330708661417323,
                    "duration": 0.5028919999999992
                },
                {
                    "name": "A#5",
                    "midi": 82,
                    "time": 30.67641200000007,
                    "velocity": 0.3700787401574803,
                    "duration": 0.1257230000000007
                },
                {
                    "name": "A5",
                    "midi": 81,
                    "time": 30.80213500000007,
                    "velocity": 0.3464566929133858,
                    "duration": 0.1257230000000007
                },
                {
                    "name": "G5",
                    "midi": 79,
                    "time": 30.92785800000007,
                    "velocity": 0.3464566929133858,
                    "duration": 0.1257230000000007
                },
                {
                    "name": "F5",
                    "midi": 77,
                    "time": 31.053581000000072,
                    "velocity": 0.3464566929133858,
                    "duration": 0.1257230000000007
                },
                {
                    "name": "G5",
                    "midi": 79,
                    "time": 31.179304000000073,
                    "velocity": 0.31496062992125984,
                    "duration": 0.1257230000000007
                },
                {
                    "name": "A5",
                    "midi": 81,
                    "time": 31.305027000000074,
                    "velocity": 0.3228346456692913,
                    "duration": 0.1257230000000007
                },
                {
                    "name": "A#5",
                    "midi": 82,
                    "time": 31.430750000000074,
                    "velocity": 0.33070866141732286,
                    "duration": 0.1257230000000007
                },
                {
                    "name": "G5",
                    "midi": 79,
                    "time": 31.556473000000075,
                    "velocity": 0.31496062992125984,
                    "duration": 0.1257230000000007
                },
                {
                    "name": "F5",
                    "midi": 77,
                    "time": 31.682196000000076,
                    "velocity": 0.33858267716535434,
                    "duration": 0.1257230000000007
                },
                {
                    "name": "E5",
                    "midi": 76,
                    "time": 31.807919000000076,
                    "velocity": 0.33858267716535434,
                    "duration": 0.1257230000000007
                },
                {
                    "name": "D5",
                    "midi": 74,
                    "time": 31.933642000000077,
                    "velocity": 0.33858267716535434,
                    "duration": 0.1257230000000007
                },
                {
                    "name": "C5",
                    "midi": 72,
                    "time": 32.05936500000008,
                    "velocity": 0.33858267716535434,
                    "duration": 0.1257230000000007
                },
                {
                    "name": "F5",
                    "midi": 77,
                    "time": 32.18508800000008,
                    "velocity": 0.36220472440944884,
                    "duration": 0.5028920000000028
                },
                {
                    "name": "C5",
                    "midi": 72,
                    "time": 32.93942600000008,
                    "velocity": 0.33070866141732286,
                    "duration": 0.2514460000000014
                },
                {
                    "name": "A#5",
                    "midi": 82,
                    "time": 33.190872000000084,
                    "velocity": 0.36220472440944884,
                    "duration": 0.1257230000000007
                },
                {
                    "name": "A#5",
                    "midi": 82,
                    "time": 33.442318000000085,
                    "velocity": 0.31496062992125984,
                    "duration": 0.1257230000000007
                },
                {
                    "name": "A#5",
                    "midi": 82,
                    "time": 33.69376400000009,
                    "velocity": 0.3543307086614173,
                    "duration": 0.1257230000000007
                },
                {
                    "name": "D6",
                    "midi": 86,
                    "time": 33.94521000000009,
                    "velocity": 0.3700787401574803,
                    "duration": 0.1257230000000007
                },
                {
                    "name": "A#5",
                    "midi": 82,
                    "time": 34.07093300000009,
                    "velocity": 0.3464566929133858,
                    "duration": 0.1257230000000007
                },
                {
                    "name": "A5",
                    "midi": 81,
                    "time": 34.19665600000009,
                    "velocity": 0.4015748031496063,
                    "duration": 0.5028920000000028
                },
                {
                    "name": "C6",
                    "midi": 84,
                    "time": 34.950994000000094,
                    "velocity": 0.3937007874015748,
                    "duration": 0.2514460000000014
                },
                {
                    "name": "E5",
                    "midi": 76,
                    "time": 35.202440000000095,
                    "velocity": 0.4566929133858268,
                    "duration": 0.1257230000000007
                },
                {
                    "name": "E5",
                    "midi": 76,
                    "time": 35.4538860000001,
                    "velocity": 0.36220472440944884,
                    "duration": 0.1257230000000007
                },
                {
                    "name": "E5",
                    "midi": 76,
                    "time": 35.7053320000001,
                    "velocity": 0.3858267716535433,
                    "duration": 0.1257230000000007
                },
                {
                    "name": "G5",
                    "midi": 79,
                    "time": 35.9567780000001,
                    "velocity": 0.4330708661417323,
                    "duration": 0.1257230000000007
                },
                {
                    "name": "E5",
                    "midi": 76,
                    "time": 36.0825010000001,
                    "velocity": 0.3937007874015748,
                    "duration": 0.1257230000000007
                },
                {
                    "name": "F5",
                    "midi": 77,
                    "time": 36.2082240000001,
                    "velocity": 0.4409448818897638,
                    "duration": 0.5028920000000028
                },
                {
                    "name": "C5",
                    "midi": 72,
                    "time": 36.962562000000105,
                    "velocity": 0.3937007874015748,
                    "duration": 0.2514460000000014
                },
                {
                    "name": "G5",
                    "midi": 79,
                    "time": 37.214008000000106,
                    "velocity": 0.4881889763779528,
                    "duration": 0.1257230000000007
                },
                {
                    "name": "G5",
                    "midi": 79,
                    "time": 37.46545400000011,
                    "velocity": 0.4330708661417323,
                    "duration": 0.1257230000000007
                },
                {
                    "name": "G5",
                    "midi": 79,
                    "time": 37.71690000000011,
                    "velocity": 0.4881889763779528,
                    "duration": 0.1257230000000007
                },
                {
                    "name": "G4",
                    "midi": 67,
                    "time": 37.96834600000011,
                    "velocity": 0.4251968503937008,
                    "duration": 0.1257230000000007
                },
                {
                    "name": "A#4",
                    "midi": 70,
                    "time": 38.09406900000011,
                    "velocity": 0.3779527559055118,
                    "duration": 0.1257230000000007
                },
                {
                    "name": "A4",
                    "midi": 69,
                    "time": 38.21979200000011,
                    "velocity": 0.4251968503937008,
                    "duration": 0.1257230000000007
                },
                {
                    "name": "C5",
                    "midi": 72,
                    "time": 38.34551500000011,
                    "velocity": 0.36220472440944884,
                    "duration": 0.1257230000000007
                },
                {
                    "name": "A#4",
                    "midi": 70,
                    "time": 38.47123800000011,
                    "velocity": 0.4251968503937008,
                    "duration": 0.1257230000000007
                },
                {
                    "name": "A4",
                    "midi": 69,
                    "time": 38.596961000000114,
                    "velocity": 0.36220472440944884,
                    "duration": 0.1257230000000007
                },
                {
                    "name": "G4",
                    "midi": 67,
                    "time": 38.722684000000115,
                    "velocity": 0.4251968503937008,
                    "duration": 0.1257230000000007
                },
                {
                    "name": "F4",
                    "midi": 65,
                    "time": 38.848407000000115,
                    "velocity": 0.36220472440944884,
                    "duration": 0.1257230000000007
                },
                {
                    "name": "E4",
                    "midi": 64,
                    "time": 38.974130000000116,
                    "velocity": 0.3858267716535433,
                    "duration": 0.1257230000000007
                },
                {
                    "name": "F4",
                    "midi": 65,
                    "time": 39.09985300000012,
                    "velocity": 0.3543307086614173,
                    "duration": 0.1257230000000007
                },
                {
                    "name": "D4",
                    "midi": 62,
                    "time": 39.22557600000012,
                    "velocity": 0.3543307086614173,
                    "duration": 0.1257230000000007
                },
                {
                    "name": "A#4",
                    "midi": 70,
                    "time": 39.35129900000012,
                    "velocity": 0.4015748031496063,
                    "duration": 0.1257230000000007
                },
                {
                    "name": "D5",
                    "midi": 74,
                    "time": 39.47702200000012,
                    "velocity": 0.4566929133858268,
                    "duration": 0.1257230000000007
                },
                {
                    "name": "C5",
                    "midi": 72,
                    "time": 39.60274500000012,
                    "velocity": 0.3543307086614173,
                    "duration": 0.1257230000000007
                },
                {
                    "name": "A#4",
                    "midi": 70,
                    "time": 39.72846800000012,
                    "velocity": 0.4251968503937008,
                    "duration": 0.1257230000000007
                },
                {
                    "name": "A4",
                    "midi": 69,
                    "time": 39.85419100000012,
                    "velocity": 0.36220472440944884,
                    "duration": 0.1257230000000007
                },
                {
                    "name": "G4",
                    "midi": 67,
                    "time": 39.97991400000012,
                    "velocity": 0.3937007874015748,
                    "duration": 0.1257230000000007
                },
                {
                    "name": "F4",
                    "midi": 65,
                    "time": 40.10563700000012,
                    "velocity": 0.3858267716535433,
                    "duration": 0.1257230000000007
                },
                {
                    "name": "E4",
                    "midi": 64,
                    "time": 40.23136000000012,
                    "velocity": 0.4566929133858268,
                    "duration": 0.5028920000000028
                },
                {
                    "name": "C5",
                    "midi": 72,
                    "time": 40.98569800000013,
                    "velocity": 0.3779527559055118,
                    "duration": 0.2514460000000014
                },
                {
                    "name": "F5",
                    "midi": 77,
                    "time": 41.23714400000013,
                    "velocity": 0.4251968503937008,
                    "duration": 0.1257230000000007
                },
                {
                    "name": "C5",
                    "midi": 72,
                    "time": 41.36286700000013,
                    "velocity": 0.3779527559055118,
                    "duration": 0.1257230000000007
                },
                {
                    "name": "F5",
                    "midi": 77,
                    "time": 41.48859000000013,
                    "velocity": 0.3858267716535433,
                    "duration": 0.1257230000000007
                },
                {
                    "name": "C5",
                    "midi": 72,
                    "time": 41.61431300000013,
                    "velocity": 0.3937007874015748,
                    "duration": 0.1257230000000007
                },
                {
                    "name": "A5",
                    "midi": 81,
                    "time": 41.74003600000013,
                    "velocity": 0.44881889763779526,
                    "duration": 0.1257230000000007
                },
                {
                    "name": "F5",
                    "midi": 77,
                    "time": 41.86575900000013,
                    "velocity": 0.4094488188976378,
                    "duration": 0.1257230000000007
                },
                {
                    "name": "A5",
                    "midi": 81,
                    "time": 41.99148200000013,
                    "velocity": 0.4094488188976378,
                    "duration": 0.1257230000000007
                },
                {
                    "name": "F5",
                    "midi": 77,
                    "time": 42.11720500000013,
                    "velocity": 0.4251968503937008,
                    "duration": 0.1257230000000007
                },
                {
                    "name": "C6",
                    "midi": 84,
                    "time": 42.242928000000134,
                    "velocity": 0.49606299212598426,
                    "duration": 0.5028920000000028
                },
                {
                    "name": "A#5",
                    "midi": 82,
                    "time": 42.74582000000014,
                    "velocity": 0.4409448818897638,
                    "duration": 0.1257230000000007
                },
                {
                    "name": "A5",
                    "midi": 81,
                    "time": 42.87154300000014,
                    "velocity": 0.4094488188976378,
                    "duration": 0.1257230000000007
                },
                {
                    "name": "G5",
                    "midi": 79,
                    "time": 42.99726600000014,
                    "velocity": 0.4094488188976378,
                    "duration": 0.1257230000000007
                },
                {
                    "name": "F5",
                    "midi": 77,
                    "time": 43.12298900000014,
                    "velocity": 0.4094488188976378,
                    "duration": 0.1257230000000007
                },
                {
                    "name": "E5",
                    "midi": 76,
                    "time": 43.24871200000014,
                    "velocity": 0.4094488188976378,
                    "duration": 0.1257230000000007
                },
                {
                    "name": "F5",
                    "midi": 77,
                    "time": 43.37443500000014,
                    "velocity": 0.4251968503937008,
                    "duration": 0.1257230000000007
                },
                {
                    "name": "G5",
                    "midi": 79,
                    "time": 43.50015800000014,
                    "velocity": 0.4330708661417323,
                    "duration": 0.1257230000000007
                },
                {
                    "name": "E5",
                    "midi": 76,
                    "time": 43.62588100000014,
                    "velocity": 0.4094488188976378,
                    "duration": 0.1257230000000007
                },
                {
                    "name": "C5",
                    "midi": 72,
                    "time": 43.75160400000014,
                    "velocity": 0.4409448818897638,
                    "duration": 0.1257230000000007
                },
                {
                    "name": "G5",
                    "midi": 79,
                    "time": 44.003050000000144,
                    "velocity": 0.36220472440944884,
                    "duration": 0.0628614999999968
                },
                {
                    "name": "A#5",
                    "midi": 82,
                    "time": 44.003050000000144,
                    "velocity": 0.4409448818897638,
                    "duration": 0.0628614999999968
                },
                {
                    "name": "G5",
                    "midi": 79,
                    "time": 44.25449600000014,
                    "velocity": 0.36220472440944884,
                    "duration": 0.5028920000000028
                },
                {
                    "name": "A#5",
                    "midi": 82,
                    "time": 44.25449600000014,
                    "velocity": 0.4330708661417323,
                    "duration": 0.5028920000000028
                },
                {
                    "name": "A5",
                    "midi": 81,
                    "time": 44.75738800000014,
                    "velocity": 0.4251968503937008,
                    "duration": 0.2514460000000014
                },
                {
                    "name": "F5",
                    "midi": 77,
                    "time": 44.75738800000014,
                    "velocity": 0.3543307086614173,
                    "duration": 0.2514460000000014
                },
                {
                    "name": "C5",
                    "midi": 72,
                    "time": 45.00883400000014,
                    "velocity": 0.3779527559055118,
                    "duration": 0.2514460000000014
                },
                {
                    "name": "F5",
                    "midi": 77,
                    "time": 45.260280000000144,
                    "velocity": 0.4251968503937008,
                    "duration": 0.1257230000000007
                },
                {
                    "name": "C5",
                    "midi": 72,
                    "time": 45.386003000000144,
                    "velocity": 0.3779527559055118,
                    "duration": 0.1257230000000007
                },
                {
                    "name": "F5",
                    "midi": 77,
                    "time": 45.511726000000145,
                    "velocity": 0.3858267716535433,
                    "duration": 0.1257230000000007
                },
                {
                    "name": "C5",
                    "midi": 72,
                    "time": 45.637449000000146,
                    "velocity": 0.3937007874015748,
                    "duration": 0.1257230000000007
                },
                {
                    "name": "A5",
                    "midi": 81,
                    "time": 45.76317200000015,
                    "velocity": 0.44881889763779526,
                    "duration": 0.1257230000000007
                },
                {
                    "name": "F5",
                    "midi": 77,
                    "time": 45.88889500000015,
                    "velocity": 0.4094488188976378,
                    "duration": 0.1257230000000007
                },
                {
                    "name": "A5",
                    "midi": 81,
                    "time": 46.01461800000015,
                    "velocity": 0.4094488188976378,
                    "duration": 0.1257230000000007
                },
                {
                    "name": "F5",
                    "midi": 77,
                    "time": 46.14034100000015,
                    "velocity": 0.4251968503937008,
                    "duration": 0.1257230000000007
                },
                {
                    "name": "C6",
                    "midi": 84,
                    "time": 46.26606400000015,
                    "velocity": 0.5196850393700787,
                    "duration": 0.5028920000000028
                },
                {
                    "name": "A#5",
                    "midi": 82,
                    "time": 46.76895600000015,
                    "velocity": 0.4409448818897638,
                    "duration": 0.1257230000000007
                },
                {
                    "name": "A5",
                    "midi": 81,
                    "time": 46.89467900000015,
                    "velocity": 0.4094488188976378,
                    "duration": 0.1257230000000007
                },
                {
                    "name": "G5",
                    "midi": 79,
                    "time": 47.02040200000015,
                    "velocity": 0.4094488188976378,
                    "duration": 0.1257230000000007
                },
                {
                    "name": "F5",
                    "midi": 77,
                    "time": 47.146125000000154,
                    "velocity": 0.4094488188976378,
                    "duration": 0.1257230000000007
                },
                {
                    "name": "G5",
                    "midi": 79,
                    "time": 47.271848000000155,
                    "velocity": 0.3779527559055118,
                    "duration": 0.1257230000000007
                },
                {
                    "name": "A5",
                    "midi": 81,
                    "time": 47.397571000000156,
                    "velocity": 0.3858267716535433,
                    "duration": 0.1257230000000007
                },
                {
                    "name": "A#5",
                    "midi": 82,
                    "time": 47.523294000000156,
                    "velocity": 0.3937007874015748,
                    "duration": 0.1257230000000007
                },
                {
                    "name": "G5",
                    "midi": 79,
                    "time": 47.64901700000016,
                    "velocity": 0.3779527559055118,
                    "duration": 0.1257230000000007
                },
                {
                    "name": "F5",
                    "midi": 77,
                    "time": 47.77474000000016,
                    "velocity": 0.4015748031496063,
                    "duration": 0.1257230000000007
                },
                {
                    "name": "E5",
                    "midi": 76,
                    "time": 47.90046300000016,
                    "velocity": 0.4015748031496063,
                    "duration": 0.1257230000000007
                },
                {
                    "name": "D5",
                    "midi": 74,
                    "time": 48.02618600000016,
                    "velocity": 0.4015748031496063,
                    "duration": 0.1257230000000007
                },
                {
                    "name": "C5",
                    "midi": 72,
                    "time": 48.15190900000016,
                    "velocity": 0.4015748031496063,
                    "duration": 0.1257230000000007
                },
                {
                    "name": "F5",
                    "midi": 77,
                    "time": 48.27763200000016,
                    "velocity": 0.4881889763779528,
                    "duration": 0.5028920000000028
                }
            ],
            "controlChanges": {},
            "id": 1,
            "name": "Piano right",
            "instrumentNumber": 0,
            "instrument": "acoustic grand piano",
            "instrumentFamily": "piano",
            "channelNumber": 0,
            "isPercussion": false
        },
        {
            "startTime": 1.005784,
            "duration": 48.78052400000013,
            "length": 240,
            "notes": [
                {
                    "name": "F4",
                    "midi": 65,
                    "time": 1.005784,
                    "velocity": 0.2204724409448819,
                    "duration": 0.5028919999999999
                },
                {
                    "name": "A4",
                    "midi": 69,
                    "time": 1.005784,
                    "velocity": 0.2677165354330709,
                    "duration": 0.5028919999999999
                },
                {
                    "name": "A4",
                    "midi": 69,
                    "time": 2.011568,
                    "velocity": 0.30708661417322836,
                    "duration": 0.1257229999999998
                },
                {
                    "name": "F4",
                    "midi": 65,
                    "time": 2.011568,
                    "velocity": 0.25196850393700787,
                    "duration": 0.1257229999999998
                },
                {
                    "name": "F4",
                    "midi": 65,
                    "time": 2.2630139999999996,
                    "velocity": 0.1889763779527559,
                    "duration": 0.1257229999999998
                },
                {
                    "name": "A4",
                    "midi": 69,
                    "time": 2.2630139999999996,
                    "velocity": 0.2204724409448819,
                    "duration": 0.1257229999999998
                },
                {
                    "name": "F4",
                    "midi": 65,
                    "time": 2.5144599999999993,
                    "velocity": 0.1889763779527559,
                    "duration": 0.1257229999999998
                },
                {
                    "name": "A4",
                    "midi": 69,
                    "time": 2.5144599999999993,
                    "velocity": 0.2204724409448819,
                    "duration": 0.1257229999999998
                },
                {
                    "name": "F4",
                    "midi": 65,
                    "time": 2.765905999999999,
                    "velocity": 0.1889763779527559,
                    "duration": 0.1257229999999998
                },
                {
                    "name": "A4",
                    "midi": 69,
                    "time": 2.765905999999999,
                    "velocity": 0.2204724409448819,
                    "duration": 0.1257229999999998
                },
                {
                    "name": "G4",
                    "midi": 67,
                    "time": 3.0173519999999985,
                    "velocity": 0.29133858267716534,
                    "duration": 0.1257229999999998
                },
                {
                    "name": "C4",
                    "midi": 60,
                    "time": 3.0173519999999985,
                    "velocity": 0.23622047244094488,
                    "duration": 0.1257229999999998
                },
                {
                    "name": "C4",
                    "midi": 60,
                    "time": 3.268797999999998,
                    "velocity": 0.1889763779527559,
                    "duration": 0.1257229999999998
                },
                {
                    "name": "G4",
                    "midi": 67,
                    "time": 3.268797999999998,
                    "velocity": 0.2283464566929134,
                    "duration": 0.1257229999999998
                },
                {
                    "name": "C4",
                    "midi": 60,
                    "time": 3.5202439999999977,
                    "velocity": 0.1889763779527559,
                    "duration": 0.1257229999999998
                },
                {
                    "name": "G4",
                    "midi": 67,
                    "time": 3.5202439999999977,
                    "velocity": 0.2283464566929134,
                    "duration": 0.1257229999999998
                },
                {
                    "name": "C4",
                    "midi": 60,
                    "time": 3.7716899999999973,
                    "velocity": 0.1732283464566929,
                    "duration": 0.0628614999999999
                },
                {
                    "name": "G4",
                    "midi": 67,
                    "time": 3.7716899999999973,
                    "velocity": 0.2125984251968504,
                    "duration": 0.0628614999999999
                },
                {
                    "name": "F4",
                    "midi": 65,
                    "time": 4.023135999999997,
                    "velocity": 0.2677165354330709,
                    "duration": 0.2514459999999996
                },
                {
                    "name": "C4",
                    "midi": 60,
                    "time": 4.274581999999997,
                    "velocity": 0.2047244094488189,
                    "duration": 0.06286150000000035
                },
                {
                    "name": "F3",
                    "midi": 53,
                    "time": 4.5260279999999975,
                    "velocity": 0.25196850393700787,
                    "duration": 0.5028920000000001
                },
                {
                    "name": "F4",
                    "midi": 65,
                    "time": 5.028919999999998,
                    "velocity": 0.2204724409448819,
                    "duration": 0.5028920000000001
                },
                {
                    "name": "A4",
                    "midi": 69,
                    "time": 5.028919999999998,
                    "velocity": 0.2677165354330709,
                    "duration": 0.5028920000000001
                },
                {
                    "name": "A4",
                    "midi": 69,
                    "time": 6.034703999999998,
                    "velocity": 0.30708661417322836,
                    "duration": 0.1257229999999998
                },
                {
                    "name": "F4",
                    "midi": 65,
                    "time": 6.034703999999998,
                    "velocity": 0.25196850393700787,
                    "duration": 0.1257229999999998
                },
                {
                    "name": "F4",
                    "midi": 65,
                    "time": 6.2861499999999975,
                    "velocity": 0.1889763779527559,
                    "duration": 0.1257229999999998
                },
                {
                    "name": "A4",
                    "midi": 69,
                    "time": 6.2861499999999975,
                    "velocity": 0.2204724409448819,
                    "duration": 0.1257229999999998
                },
                {
                    "name": "F4",
                    "midi": 65,
                    "time": 6.537595999999997,
                    "velocity": 0.1889763779527559,
                    "duration": 0.1257229999999998
                },
                {
                    "name": "A4",
                    "midi": 69,
                    "time": 6.537595999999997,
                    "velocity": 0.2204724409448819,
                    "duration": 0.1257229999999998
                },
                {
                    "name": "F4",
                    "midi": 65,
                    "time": 6.789041999999997,
                    "velocity": 0.1889763779527559,
                    "duration": 0.1257229999999998
                },
                {
                    "name": "A4",
                    "midi": 69,
                    "time": 6.789041999999997,
                    "velocity": 0.2204724409448819,
                    "duration": 0.1257229999999998
                },
                {
                    "name": "G4",
                    "midi": 67,
                    "time": 7.040487999999996,
                    "velocity": 0.2677165354330709,
                    "duration": 0.5028920000000001
                },
                {
                    "name": "A#3",
                    "midi": 58,
                    "time": 7.040487999999996,
                    "velocity": 0.2204724409448819,
                    "duration": 0.5028920000000001
                },
                {
                    "name": "C4",
                    "midi": 60,
                    "time": 7.543379999999996,
                    "velocity": 0.1732283464566929,
                    "duration": 0.5028920000000001
                },
                {
                    "name": "G4",
                    "midi": 67,
                    "time": 7.543379999999996,
                    "velocity": 0.2125984251968504,
                    "duration": 0.5028920000000001
                },
                {
                    "name": "F4",
                    "midi": 65,
                    "time": 8.046271999999997,
                    "velocity": 0.2677165354330709,
                    "duration": 0.5028919999999992
                },
                {
                    "name": "F4",
                    "midi": 65,
                    "time": 9.052055999999995,
                    "velocity": 0.2204724409448819,
                    "duration": 0.5028919999999992
                },
                {
                    "name": "A4",
                    "midi": 69,
                    "time": 9.052055999999995,
                    "velocity": 0.2677165354330709,
                    "duration": 0.5028919999999992
                },
                {
                    "name": "A4",
                    "midi": 69,
                    "time": 10.057839999999993,
                    "velocity": 0.30708661417322836,
                    "duration": 0.1257230000000007
                },
                {
                    "name": "F4",
                    "midi": 65,
                    "time": 10.057839999999993,
                    "velocity": 0.25196850393700787,
                    "duration": 0.1257230000000007
                },
                {
                    "name": "F4",
                    "midi": 65,
                    "time": 10.309285999999995,
                    "velocity": 0.1889763779527559,
                    "duration": 0.1257230000000007
                },
                {
                    "name": "A4",
                    "midi": 69,
                    "time": 10.309285999999995,
                    "velocity": 0.2204724409448819,
                    "duration": 0.1257230000000007
                },
                {
                    "name": "F4",
                    "midi": 65,
                    "time": 10.560731999999996,
                    "velocity": 0.1889763779527559,
                    "duration": 0.1257230000000007
                },
                {
                    "name": "A4",
                    "midi": 69,
                    "time": 10.560731999999996,
                    "velocity": 0.2204724409448819,
                    "duration": 0.1257230000000007
                },
                {
                    "name": "F4",
                    "midi": 65,
                    "time": 10.812177999999998,
                    "velocity": 0.1889763779527559,
                    "duration": 0.1257230000000007
                },
                {
                    "name": "A4",
                    "midi": 69,
                    "time": 10.812177999999998,
                    "velocity": 0.2204724409448819,
                    "duration": 0.1257230000000007
                },
                {
                    "name": "G4",
                    "midi": 67,
                    "time": 11.063623999999999,
                    "velocity": 0.29133858267716534,
                    "duration": 0.1257230000000007
                },
                {
                    "name": "C4",
                    "midi": 60,
                    "time": 11.063623999999999,
                    "velocity": 0.23622047244094488,
                    "duration": 0.1257230000000007
                },
                {
                    "name": "C4",
                    "midi": 60,
                    "time": 11.31507,
                    "velocity": 0.1889763779527559,
                    "duration": 0.1257230000000007
                },
                {
                    "name": "G4",
                    "midi": 67,
                    "time": 11.31507,
                    "velocity": 0.2283464566929134,
                    "duration": 0.1257230000000007
                },
                {
                    "name": "C4",
                    "midi": 60,
                    "time": 11.566516000000002,
                    "velocity": 0.1889763779527559,
                    "duration": 0.1257230000000007
                },
                {
                    "name": "G4",
                    "midi": 67,
                    "time": 11.566516000000002,
                    "velocity": 0.2283464566929134,
                    "duration": 0.1257230000000007
                },
                {
                    "name": "C4",
                    "midi": 60,
                    "time": 11.817962000000003,
                    "velocity": 0.1732283464566929,
                    "duration": 0.06286150000000035
                },
                {
                    "name": "G4",
                    "midi": 67,
                    "time": 11.817962000000003,
                    "velocity": 0.2125984251968504,
                    "duration": 0.06286150000000035
                },
                {
                    "name": "F4",
                    "midi": 65,
                    "time": 12.069408000000003,
                    "velocity": 0.2677165354330709,
                    "duration": 0.2514459999999996
                },
                {
                    "name": "C4",
                    "midi": 60,
                    "time": 12.320854000000002,
                    "velocity": 0.2047244094488189,
                    "duration": 0.06286150000000035
                },
                {
                    "name": "F3",
                    "midi": 53,
                    "time": 12.572300000000002,
                    "velocity": 0.25196850393700787,
                    "duration": 0.5028919999999992
                },
                {
                    "name": "F4",
                    "midi": 65,
                    "time": 13.075192000000001,
                    "velocity": 0.2204724409448819,
                    "duration": 0.5028919999999992
                },
                {
                    "name": "A4",
                    "midi": 69,
                    "time": 13.075192000000001,
                    "velocity": 0.2677165354330709,
                    "duration": 0.5028919999999992
                },
                {
                    "name": "A4",
                    "midi": 69,
                    "time": 14.080976,
                    "velocity": 0.2677165354330709,
                    "duration": 0.1257230000000007
                },
                {
                    "name": "F4",
                    "midi": 65,
                    "time": 14.080976,
                    "velocity": 0.2204724409448819,
                    "duration": 0.1257230000000007
                },
                {
                    "name": "F4",
                    "midi": 65,
                    "time": 14.332422000000001,
                    "velocity": 0.1889763779527559,
                    "duration": 0.1257230000000007
                },
                {
                    "name": "A4",
                    "midi": 69,
                    "time": 14.332422000000001,
                    "velocity": 0.2204724409448819,
                    "duration": 0.1257230000000007
                },
                {
                    "name": "F4",
                    "midi": 65,
                    "time": 14.583868000000002,
                    "velocity": 0.1889763779527559,
                    "duration": 0.1257230000000007
                },
                {
                    "name": "A4",
                    "midi": 69,
                    "time": 14.583868000000002,
                    "velocity": 0.2204724409448819,
                    "duration": 0.1257230000000007
                },
                {
                    "name": "F4",
                    "midi": 65,
                    "time": 14.835314000000004,
                    "velocity": 0.1889763779527559,
                    "duration": 0.1257230000000007
                },
                {
                    "name": "A4",
                    "midi": 69,
                    "time": 14.835314000000004,
                    "velocity": 0.2204724409448819,
                    "duration": 0.1257230000000007
                },
                {
                    "name": "G4",
                    "midi": 67,
                    "time": 15.086760000000005,
                    "velocity": 0.2677165354330709,
                    "duration": 0.5028919999999992
                },
                {
                    "name": "A#3",
                    "midi": 58,
                    "time": 15.086760000000005,
                    "velocity": 0.2204724409448819,
                    "duration": 0.5028919999999992
                },
                {
                    "name": "C4",
                    "midi": 60,
                    "time": 15.589652000000005,
                    "velocity": 0.1732283464566929,
                    "duration": 0.5028919999999992
                },
                {
                    "name": "G4",
                    "midi": 67,
                    "time": 15.589652000000005,
                    "velocity": 0.2125984251968504,
                    "duration": 0.5028919999999992
                },
                {
                    "name": "F4",
                    "midi": 65,
                    "time": 16.092544000000004,
                    "velocity": 0.2677165354330709,
                    "duration": 0.5028919999999992
                },
                {
                    "name": "E3",
                    "midi": 52,
                    "time": 17.098328000000002,
                    "velocity": 0.2677165354330709,
                    "duration": 0.1257230000000007
                },
                {
                    "name": "C4",
                    "midi": 60,
                    "time": 17.224051000000003,
                    "velocity": 0.1889763779527559,
                    "duration": 0.1257230000000007
                },
                {
                    "name": "E3",
                    "midi": 52,
                    "time": 17.349774000000004,
                    "velocity": 0.2204724409448819,
                    "duration": 0.1257230000000007
                },
                {
                    "name": "C4",
                    "midi": 60,
                    "time": 17.475497000000004,
                    "velocity": 0.1968503937007874,
                    "duration": 0.1257230000000007
                },
                {
                    "name": "E3",
                    "midi": 52,
                    "time": 17.601220000000005,
                    "velocity": 0.23622047244094488,
                    "duration": 0.1257230000000007
                },
                {
                    "name": "C4",
                    "midi": 60,
                    "time": 17.726943000000006,
                    "velocity": 0.1968503937007874,
                    "duration": 0.1257230000000007
                },
                {
                    "name": "E3",
                    "midi": 52,
                    "time": 17.852666000000006,
                    "velocity": 0.2204724409448819,
                    "duration": 0.1257230000000007
                },
                {
                    "name": "C4",
                    "midi": 60,
                    "time": 17.978389000000007,
                    "velocity": 0.1968503937007874,
                    "duration": 0.1257230000000007
                },
                {
                    "name": "F3",
                    "midi": 53,
                    "time": 18.104112000000008,
                    "velocity": 0.29133858267716534,
                    "duration": 0.1257230000000007
                },
                {
                    "name": "C4",
                    "midi": 60,
                    "time": 18.22983500000001,
                    "velocity": 0.1968503937007874,
                    "duration": 0.1257230000000007
                },
                {
                    "name": "F3",
                    "midi": 53,
                    "time": 18.35555800000001,
                    "velocity": 0.2283464566929134,
                    "duration": 0.1257230000000007
                },
                {
                    "name": "C4",
                    "midi": 60,
                    "time": 18.48128100000001,
                    "velocity": 0.2125984251968504,
                    "duration": 0.1257230000000007
                },
                {
                    "name": "F3",
                    "midi": 53,
                    "time": 18.60700400000001,
                    "velocity": 0.2440944881889764,
                    "duration": 0.1257230000000007
                },
                {
                    "name": "C4",
                    "midi": 60,
                    "time": 18.73272700000001,
                    "velocity": 0.23622047244094488,
                    "duration": 0.1257230000000007
                },
                {
                    "name": "F3",
                    "midi": 53,
                    "time": 18.858450000000012,
                    "velocity": 0.31496062992125984,
                    "duration": 0.1257230000000007
                },
                {
                    "name": "C4",
                    "midi": 60,
                    "time": 18.984173000000013,
                    "velocity": 0.2283464566929134,
                    "duration": 0.1257230000000007
                },
                {
                    "name": "G3",
                    "midi": 55,
                    "time": 19.109896000000013,
                    "velocity": 0.3700787401574803,
                    "duration": 0.1257230000000007
                },
                {
                    "name": "C4",
                    "midi": 60,
                    "time": 19.235619000000014,
                    "velocity": 0.2440944881889764,
                    "duration": 0.1257230000000007
                },
                {
                    "name": "G3",
                    "midi": 55,
                    "time": 19.361342000000015,
                    "velocity": 0.2755905511811024,
                    "duration": 0.1257230000000007
                },
                {
                    "name": "C4",
                    "midi": 60,
                    "time": 19.487065000000015,
                    "velocity": 0.2204724409448819,
                    "duration": 0.1257230000000007
                },
                {
                    "name": "G3",
                    "midi": 55,
                    "time": 19.612788000000016,
                    "velocity": 0.28346456692913385,
                    "duration": 0.1257230000000007
                },
                {
                    "name": "C4",
                    "midi": 60,
                    "time": 19.738511000000017,
                    "velocity": 0.2283464566929134,
                    "duration": 0.1257230000000007
                },
                {
                    "name": "G3",
                    "midi": 55,
                    "time": 19.864234000000017,
                    "velocity": 0.29133858267716534,
                    "duration": 0.1257230000000007
                },
                {
                    "name": "C4",
                    "midi": 60,
                    "time": 19.989957000000018,
                    "velocity": 0.2677165354330709,
                    "duration": 0.1257230000000007
                },
                {
                    "name": "A3",
                    "midi": 57,
                    "time": 20.11568000000002,
                    "velocity": 0.3858267716535433,
                    "duration": 0.1257230000000007
                },
                {
                    "name": "C4",
                    "midi": 60,
                    "time": 20.24140300000002,
                    "velocity": 0.2677165354330709,
                    "duration": 0.1257230000000007
                },
                {
                    "name": "A3",
                    "midi": 57,
                    "time": 20.36712600000002,
                    "velocity": 0.25984251968503935,
                    "duration": 0.1257230000000007
                },
                {
                    "name": "C4",
                    "midi": 60,
                    "time": 20.49284900000002,
                    "velocity": 0.2204724409448819,
                    "duration": 0.1257230000000007
                },
                {
                    "name": "A3",
                    "midi": 57,
                    "time": 20.61857200000002,
                    "velocity": 0.28346456692913385,
                    "duration": 0.1257230000000007
                },
                {
                    "name": "C4",
                    "midi": 60,
                    "time": 20.744295000000022,
                    "velocity": 0.2440944881889764,
                    "duration": 0.1257230000000007
                },
                {
                    "name": "A3",
                    "midi": 57,
                    "time": 20.870018000000023,
                    "velocity": 0.28346456692913385,
                    "duration": 0.1257230000000007
                },
                {
                    "name": "C4",
                    "midi": 60,
                    "time": 20.995741000000024,
                    "velocity": 0.25196850393700787,
                    "duration": 0.1257230000000007
                },
                {
                    "name": "E3",
                    "midi": 52,
                    "time": 21.121464000000024,
                    "velocity": 0.31496062992125984,
                    "duration": 0.1257230000000007
                },
                {
                    "name": "C4",
                    "midi": 60,
                    "time": 21.247187000000025,
                    "velocity": 0.2204724409448819,
                    "duration": 0.1257230000000007
                },
                {
                    "name": "E3",
                    "midi": 52,
                    "time": 21.372910000000026,
                    "velocity": 0.25196850393700787,
                    "duration": 0.1257230000000007
                },
                {
                    "name": "C4",
                    "midi": 60,
                    "time": 21.498633000000027,
                    "velocity": 0.2204724409448819,
                    "duration": 0.1257230000000007
                },
                {
                    "name": "E3",
                    "midi": 52,
                    "time": 21.624356000000027,
                    "velocity": 0.2677165354330709,
                    "duration": 0.1257230000000007
                },
                {
                    "name": "C4",
                    "midi": 60,
                    "time": 21.750079000000028,
                    "velocity": 0.2204724409448819,
                    "duration": 0.1257230000000007
                },
                {
                    "name": "E3",
                    "midi": 52,
                    "time": 21.87580200000003,
                    "velocity": 0.2440944881889764,
                    "duration": 0.1257230000000007
                },
                {
                    "name": "C4",
                    "midi": 60,
                    "time": 22.00152500000003,
                    "velocity": 0.2125984251968504,
                    "duration": 0.1257230000000007
                },
                {
                    "name": "F3",
                    "midi": 53,
                    "time": 22.12724800000003,
                    "velocity": 0.36220472440944884,
                    "duration": 0.5028919999999992
                },
                {
                    "name": "A#3",
                    "midi": 58,
                    "time": 23.13303200000003,
                    "velocity": 0.33070866141732286,
                    "duration": 0.5028919999999992
                },
                {
                    "name": "A#2",
                    "midi": 46,
                    "time": 23.13303200000003,
                    "velocity": 0.33070866141732286,
                    "duration": 0.5028919999999992
                },
                {
                    "name": "B3",
                    "midi": 59,
                    "time": 23.88737000000003,
                    "velocity": 0.3464566929133858,
                    "duration": 0.2514460000000014
                },
                {
                    "name": "C4",
                    "midi": 60,
                    "time": 24.13881600000003,
                    "velocity": 0.3858267716535433,
                    "duration": 0.2514460000000014
                },
                {
                    "name": "G3",
                    "midi": 55,
                    "time": 24.390262000000032,
                    "velocity": 0.30708661417322836,
                    "duration": 0.1257230000000007
                },
                {
                    "name": "C3",
                    "midi": 48,
                    "time": 24.641708000000033,
                    "velocity": 0.3543307086614173,
                    "duration": 0.2514460000000014
                },
                {
                    "name": "F4",
                    "midi": 65,
                    "time": 25.144600000000036,
                    "velocity": 0.2204724409448819,
                    "duration": 0.5028919999999992
                },
                {
                    "name": "A4",
                    "midi": 69,
                    "time": 25.144600000000036,
                    "velocity": 0.2677165354330709,
                    "duration": 0.5028919999999992
                },
                {
                    "name": "A4",
                    "midi": 69,
                    "time": 26.150384000000034,
                    "velocity": 0.30708661417322836,
                    "duration": 0.1257230000000007
                },
                {
                    "name": "F4",
                    "midi": 65,
                    "time": 26.150384000000034,
                    "velocity": 0.25196850393700787,
                    "duration": 0.1257230000000007
                },
                {
                    "name": "F4",
                    "midi": 65,
                    "time": 26.401830000000036,
                    "velocity": 0.1889763779527559,
                    "duration": 0.1257230000000007
                },
                {
                    "name": "A4",
                    "midi": 69,
                    "time": 26.401830000000036,
                    "velocity": 0.2204724409448819,
                    "duration": 0.1257230000000007
                },
                {
                    "name": "F4",
                    "midi": 65,
                    "time": 26.653276000000037,
                    "velocity": 0.1889763779527559,
                    "duration": 0.1257230000000007
                },
                {
                    "name": "A4",
                    "midi": 69,
                    "time": 26.653276000000037,
                    "velocity": 0.2204724409448819,
                    "duration": 0.1257230000000007
                },
                {
                    "name": "F4",
                    "midi": 65,
                    "time": 26.90472200000004,
                    "velocity": 0.1889763779527559,
                    "duration": 0.1257230000000007
                },
                {
                    "name": "A4",
                    "midi": 69,
                    "time": 26.90472200000004,
                    "velocity": 0.2204724409448819,
                    "duration": 0.1257230000000007
                },
                {
                    "name": "G4",
                    "midi": 67,
                    "time": 27.15616800000004,
                    "velocity": 0.29133858267716534,
                    "duration": 0.1257230000000007
                },
                {
                    "name": "C4",
                    "midi": 60,
                    "time": 27.15616800000004,
                    "velocity": 0.23622047244094488,
                    "duration": 0.1257230000000007
                },
                {
                    "name": "C4",
                    "midi": 60,
                    "time": 27.40761400000004,
                    "velocity": 0.1889763779527559,
                    "duration": 0.1257230000000007
                },
                {
                    "name": "G4",
                    "midi": 67,
                    "time": 27.40761400000004,
                    "velocity": 0.2283464566929134,
                    "duration": 0.1257230000000007
                },
                {
                    "name": "C4",
                    "midi": 60,
                    "time": 27.659060000000043,
                    "velocity": 0.1889763779527559,
                    "duration": 0.1257230000000007
                },
                {
                    "name": "G4",
                    "midi": 67,
                    "time": 27.659060000000043,
                    "velocity": 0.2283464566929134,
                    "duration": 0.1257230000000007
                },
                {
                    "name": "C4",
                    "midi": 60,
                    "time": 27.910506000000044,
                    "velocity": 0.1732283464566929,
                    "duration": 0.06286150000000035
                },
                {
                    "name": "G4",
                    "midi": 67,
                    "time": 27.910506000000044,
                    "velocity": 0.2125984251968504,
                    "duration": 0.06286150000000035
                },
                {
                    "name": "F4",
                    "midi": 65,
                    "time": 28.161952000000046,
                    "velocity": 0.2677165354330709,
                    "duration": 0.2514460000000014
                },
                {
                    "name": "C4",
                    "midi": 60,
                    "time": 28.413398000000047,
                    "velocity": 0.2047244094488189,
                    "duration": 0.06286150000000035
                },
                {
                    "name": "F3",
                    "midi": 53,
                    "time": 28.66484400000005,
                    "velocity": 0.25196850393700787,
                    "duration": 0.5028919999999992
                },
                {
                    "name": "F4",
                    "midi": 65,
                    "time": 29.167736000000048,
                    "velocity": 0.2204724409448819,
                    "duration": 0.5028919999999992
                },
                {
                    "name": "A4",
                    "midi": 69,
                    "time": 29.167736000000048,
                    "velocity": 0.2677165354330709,
                    "duration": 0.5028919999999992
                },
                {
                    "name": "A4",
                    "midi": 69,
                    "time": 30.173520000000046,
                    "velocity": 0.30708661417322836,
                    "duration": 0.1257230000000007
                },
                {
                    "name": "F4",
                    "midi": 65,
                    "time": 30.173520000000046,
                    "velocity": 0.25196850393700787,
                    "duration": 0.1257230000000007
                },
                {
                    "name": "F4",
                    "midi": 65,
                    "time": 30.424966000000047,
                    "velocity": 0.1889763779527559,
                    "duration": 0.1257230000000007
                },
                {
                    "name": "A4",
                    "midi": 69,
                    "time": 30.424966000000047,
                    "velocity": 0.2204724409448819,
                    "duration": 0.1257230000000007
                },
                {
                    "name": "F4",
                    "midi": 65,
                    "time": 30.67641200000005,
                    "velocity": 0.1889763779527559,
                    "duration": 0.1257230000000007
                },
                {
                    "name": "A4",
                    "midi": 69,
                    "time": 30.67641200000005,
                    "velocity": 0.2204724409448819,
                    "duration": 0.1257230000000007
                },
                {
                    "name": "F4",
                    "midi": 65,
                    "time": 30.92785800000005,
                    "velocity": 0.1889763779527559,
                    "duration": 0.1257230000000007
                },
                {
                    "name": "A4",
                    "midi": 69,
                    "time": 30.92785800000005,
                    "velocity": 0.2204724409448819,
                    "duration": 0.1257230000000007
                },
                {
                    "name": "G4",
                    "midi": 67,
                    "time": 31.17930400000005,
                    "velocity": 0.2677165354330709,
                    "duration": 0.5028919999999992
                },
                {
                    "name": "A#3",
                    "midi": 58,
                    "time": 31.17930400000005,
                    "velocity": 0.2204724409448819,
                    "duration": 0.5028919999999992
                },
                {
                    "name": "C4",
                    "midi": 60,
                    "time": 31.68219600000005,
                    "velocity": 0.1732283464566929,
                    "duration": 0.5028919999999992
                },
                {
                    "name": "G4",
                    "midi": 67,
                    "time": 31.68219600000005,
                    "velocity": 0.2125984251968504,
                    "duration": 0.5028919999999992
                },
                {
                    "name": "F3",
                    "midi": 53,
                    "time": 32.18508800000005,
                    "velocity": 0.2283464566929134,
                    "duration": 0.5028920000000028
                },
                {
                    "name": "F4",
                    "midi": 65,
                    "time": 32.18508800000005,
                    "velocity": 0.2677165354330709,
                    "duration": 0.5028920000000028
                },
                {
                    "name": "E3",
                    "midi": 52,
                    "time": 33.190872000000056,
                    "velocity": 0.2755905511811024,
                    "duration": 0.1257230000000007
                },
                {
                    "name": "C4",
                    "midi": 60,
                    "time": 33.316595000000056,
                    "velocity": 0.1968503937007874,
                    "duration": 0.1257230000000007
                },
                {
                    "name": "E3",
                    "midi": 52,
                    "time": 33.44231800000006,
                    "velocity": 0.2204724409448819,
                    "duration": 0.1257230000000007
                },
                {
                    "name": "C4",
                    "midi": 60,
                    "time": 33.56804100000006,
                    "velocity": 0.1968503937007874,
                    "duration": 0.1257230000000007
                },
                {
                    "name": "E3",
                    "midi": 52,
                    "time": 33.69376400000006,
                    "velocity": 0.2440944881889764,
                    "duration": 0.1257230000000007
                },
                {
                    "name": "C4",
                    "midi": 60,
                    "time": 33.81948700000006,
                    "velocity": 0.2047244094488189,
                    "duration": 0.1257230000000007
                },
                {
                    "name": "E3",
                    "midi": 52,
                    "time": 33.94521000000006,
                    "velocity": 0.2204724409448819,
                    "duration": 0.1257230000000007
                },
                {
                    "name": "C4",
                    "midi": 60,
                    "time": 34.07093300000006,
                    "velocity": 0.1968503937007874,
                    "duration": 0.1257230000000007
                },
                {
                    "name": "F3",
                    "midi": 53,
                    "time": 34.19665600000006,
                    "velocity": 0.2992125984251969,
                    "duration": 0.1257230000000007
                },
                {
                    "name": "C4",
                    "midi": 60,
                    "time": 34.32237900000006,
                    "velocity": 0.1968503937007874,
                    "duration": 0.1257230000000007
                },
                {
                    "name": "F3",
                    "midi": 53,
                    "time": 34.44810200000006,
                    "velocity": 0.2283464566929134,
                    "duration": 0.1257230000000007
                },
                {
                    "name": "C4",
                    "midi": 60,
                    "time": 34.57382500000006,
                    "velocity": 0.2125984251968504,
                    "duration": 0.1257230000000007
                },
                {
                    "name": "F3",
                    "midi": 53,
                    "time": 34.699548000000064,
                    "velocity": 0.2440944881889764,
                    "duration": 0.1257230000000007
                },
                {
                    "name": "C4",
                    "midi": 60,
                    "time": 34.825271000000065,
                    "velocity": 0.23622047244094488,
                    "duration": 0.1257230000000007
                },
                {
                    "name": "F3",
                    "midi": 53,
                    "time": 34.950994000000065,
                    "velocity": 0.3228346456692913,
                    "duration": 0.1257230000000007
                },
                {
                    "name": "C4",
                    "midi": 60,
                    "time": 35.076717000000066,
                    "velocity": 0.2283464566929134,
                    "duration": 0.1257230000000007
                },
                {
                    "name": "G3",
                    "midi": 55,
                    "time": 35.20244000000007,
                    "velocity": 0.3779527559055118,
                    "duration": 0.1257230000000007
                },
                {
                    "name": "C4",
                    "midi": 60,
                    "time": 35.32816300000007,
                    "velocity": 0.2440944881889764,
                    "duration": 0.1257230000000007
                },
                {
                    "name": "G3",
                    "midi": 55,
                    "time": 35.45388600000007,
                    "velocity": 0.2755905511811024,
                    "duration": 0.1257230000000007
                },
                {
                    "name": "C4",
                    "midi": 60,
                    "time": 35.57960900000007,
                    "velocity": 0.2204724409448819,
                    "duration": 0.1257230000000007
                },
                {
                    "name": "G3",
                    "midi": 55,
                    "time": 35.70533200000007,
                    "velocity": 0.29133858267716534,
                    "duration": 0.1257230000000007
                },
                {
                    "name": "C4",
                    "midi": 60,
                    "time": 35.83105500000007,
                    "velocity": 0.23622047244094488,
                    "duration": 0.1257230000000007
                },
                {
                    "name": "G3",
                    "midi": 55,
                    "time": 35.95677800000007,
                    "velocity": 0.29133858267716534,
                    "duration": 0.1257230000000007
                },
                {
                    "name": "C4",
                    "midi": 60,
                    "time": 36.08250100000007,
                    "velocity": 0.2677165354330709,
                    "duration": 0.1257230000000007
                },
                {
                    "name": "A3",
                    "midi": 57,
                    "time": 36.20822400000007,
                    "velocity": 0.3700787401574803,
                    "duration": 0.1257230000000007
                },
                {
                    "name": "C4",
                    "midi": 60,
                    "time": 36.33394700000007,
                    "velocity": 0.2677165354330709,
                    "duration": 0.1257230000000007
                },
                {
                    "name": "A3",
                    "midi": 57,
                    "time": 36.459670000000074,
                    "velocity": 0.25984251968503935,
                    "duration": 0.1257230000000007
                },
                {
                    "name": "C4",
                    "midi": 60,
                    "time": 36.585393000000074,
                    "velocity": 0.2204724409448819,
                    "duration": 0.1257230000000007
                },
                {
                    "name": "A3",
                    "midi": 57,
                    "time": 36.711116000000075,
                    "velocity": 0.28346456692913385,
                    "duration": 0.1257230000000007
                },
                {
                    "name": "C4",
                    "midi": 60,
                    "time": 36.836839000000076,
                    "velocity": 0.2440944881889764,
                    "duration": 0.1257230000000007
                },
                {
                    "name": "A3",
                    "midi": 57,
                    "time": 36.96256200000008,
                    "velocity": 0.28346456692913385,
                    "duration": 0.1257230000000007
                },
                {
                    "name": "C4",
                    "midi": 60,
                    "time": 37.08828500000008,
                    "velocity": 0.25196850393700787,
                    "duration": 0.1257230000000007
                },
                {
                    "name": "E3",
                    "midi": 52,
                    "time": 37.21400800000008,
                    "velocity": 0.31496062992125984,
                    "duration": 0.1257230000000007
                },
                {
                    "name": "C4",
                    "midi": 60,
                    "time": 37.33973100000008,
                    "velocity": 0.2204724409448819,
                    "duration": 0.1257230000000007
                },
                {
                    "name": "E3",
                    "midi": 52,
                    "time": 37.46545400000008,
                    "velocity": 0.25196850393700787,
                    "duration": 0.1257230000000007
                },
                {
                    "name": "C4",
                    "midi": 60,
                    "time": 37.59117700000008,
                    "velocity": 0.2204724409448819,
                    "duration": 0.1257230000000007
                },
                {
                    "name": "E3",
                    "midi": 52,
                    "time": 37.71690000000008,
                    "velocity": 0.2677165354330709,
                    "duration": 0.1257230000000007
                },
                {
                    "name": "C4",
                    "midi": 60,
                    "time": 37.84262300000008,
                    "velocity": 0.2204724409448819,
                    "duration": 0.1257230000000007
                },
                {
                    "name": "E3",
                    "midi": 52,
                    "time": 37.96834600000008,
                    "velocity": 0.2440944881889764,
                    "duration": 0.1257230000000007
                },
                {
                    "name": "C4",
                    "midi": 60,
                    "time": 38.09406900000008,
                    "velocity": 0.2125984251968504,
                    "duration": 0.1257230000000007
                },
                {
                    "name": "F3",
                    "midi": 53,
                    "time": 38.21979200000008,
                    "velocity": 0.36220472440944884,
                    "duration": 0.5028920000000028
                },
                {
                    "name": "A#3",
                    "midi": 58,
                    "time": 39.22557600000009,
                    "velocity": 0.33070866141732286,
                    "duration": 0.5028920000000028
                },
                {
                    "name": "A#2",
                    "midi": 46,
                    "time": 39.22557600000009,
                    "velocity": 0.33070866141732286,
                    "duration": 0.5028920000000028
                },
                {
                    "name": "B3",
                    "midi": 59,
                    "time": 39.97991400000009,
                    "velocity": 0.3464566929133858,
                    "duration": 0.2514460000000014
                },
                {
                    "name": "C4",
                    "midi": 60,
                    "time": 40.231360000000095,
                    "velocity": 0.3858267716535433,
                    "duration": 0.2514460000000014
                },
                {
                    "name": "G3",
                    "midi": 55,
                    "time": 40.482806000000096,
                    "velocity": 0.30708661417322836,
                    "duration": 0.1257230000000007
                },
                {
                    "name": "C3",
                    "midi": 48,
                    "time": 40.7342520000001,
                    "velocity": 0.3543307086614173,
                    "duration": 0.2514460000000014
                },
                {
                    "name": "F4",
                    "midi": 65,
                    "time": 41.2371440000001,
                    "velocity": 0.25984251968503935,
                    "duration": 0.5028920000000028
                },
                {
                    "name": "A4",
                    "midi": 69,
                    "time": 41.2371440000001,
                    "velocity": 0.31496062992125984,
                    "duration": 0.5028920000000028
                },
                {
                    "name": "A4",
                    "midi": 69,
                    "time": 42.242928000000106,
                    "velocity": 0.36220472440944884,
                    "duration": 0.1257230000000007
                },
                {
                    "name": "F4",
                    "midi": 65,
                    "time": 42.242928000000106,
                    "velocity": 0.2992125984251969,
                    "duration": 0.1257230000000007
                },
                {
                    "name": "F4",
                    "midi": 65,
                    "time": 42.49437400000011,
                    "velocity": 0.2204724409448819,
                    "duration": 0.1257230000000007
                },
                {
                    "name": "A4",
                    "midi": 69,
                    "time": 42.49437400000011,
                    "velocity": 0.25984251968503935,
                    "duration": 0.1257230000000007
                },
                {
                    "name": "F4",
                    "midi": 65,
                    "time": 42.74582000000011,
                    "velocity": 0.2204724409448819,
                    "duration": 0.1257230000000007
                },
                {
                    "name": "A4",
                    "midi": 69,
                    "time": 42.74582000000011,
                    "velocity": 0.25984251968503935,
                    "duration": 0.1257230000000007
                },
                {
                    "name": "F4",
                    "midi": 65,
                    "time": 42.99726600000011,
                    "velocity": 0.2204724409448819,
                    "duration": 0.1257230000000007
                },
                {
                    "name": "A4",
                    "midi": 69,
                    "time": 42.99726600000011,
                    "velocity": 0.25984251968503935,
                    "duration": 0.1257230000000007
                },
                {
                    "name": "G4",
                    "midi": 67,
                    "time": 43.24871200000011,
                    "velocity": 0.3464566929133858,
                    "duration": 0.1257230000000007
                },
                {
                    "name": "C4",
                    "midi": 60,
                    "time": 43.24871200000011,
                    "velocity": 0.28346456692913385,
                    "duration": 0.1257230000000007
                },
                {
                    "name": "C4",
                    "midi": 60,
                    "time": 43.50015800000011,
                    "velocity": 0.2204724409448819,
                    "duration": 0.1257230000000007
                },
                {
                    "name": "G4",
                    "midi": 67,
                    "time": 43.50015800000011,
                    "velocity": 0.2677165354330709,
                    "duration": 0.1257230000000007
                },
                {
                    "name": "C4",
                    "midi": 60,
                    "time": 43.751604000000114,
                    "velocity": 0.2204724409448819,
                    "duration": 0.1257230000000007
                },
                {
                    "name": "G4",
                    "midi": 67,
                    "time": 43.751604000000114,
                    "velocity": 0.2677165354330709,
                    "duration": 0.1257230000000007
                },
                {
                    "name": "C4",
                    "midi": 60,
                    "time": 44.003050000000115,
                    "velocity": 0.2047244094488189,
                    "duration": 0.0628614999999968
                },
                {
                    "name": "G4",
                    "midi": 67,
                    "time": 44.003050000000115,
                    "velocity": 0.25196850393700787,
                    "duration": 0.0628614999999968
                },
                {
                    "name": "F4",
                    "midi": 65,
                    "time": 44.25449600000011,
                    "velocity": 0.31496062992125984,
                    "duration": 0.2514460000000014
                },
                {
                    "name": "C4",
                    "midi": 60,
                    "time": 44.50594200000011,
                    "velocity": 0.2440944881889764,
                    "duration": 0.0628614999999968
                },
                {
                    "name": "F3",
                    "midi": 53,
                    "time": 44.757388000000105,
                    "velocity": 0.2992125984251969,
                    "duration": 0.5028920000000028
                },
                {
                    "name": "F4",
                    "midi": 65,
                    "time": 45.26028000000011,
                    "velocity": 0.25984251968503935,
                    "duration": 0.5028920000000028
                },
                {
                    "name": "A4",
                    "midi": 69,
                    "time": 45.26028000000011,
                    "velocity": 0.31496062992125984,
                    "duration": 0.5028920000000028
                },
                {
                    "name": "A4",
                    "midi": 69,
                    "time": 46.266064000000114,
                    "velocity": 0.36220472440944884,
                    "duration": 0.1257230000000007
                },
                {
                    "name": "F4",
                    "midi": 65,
                    "time": 46.266064000000114,
                    "velocity": 0.2992125984251969,
                    "duration": 0.1257230000000007
                },
                {
                    "name": "F4",
                    "midi": 65,
                    "time": 46.517510000000115,
                    "velocity": 0.2204724409448819,
                    "duration": 0.1257230000000007
                },
                {
                    "name": "A4",
                    "midi": 69,
                    "time": 46.517510000000115,
                    "velocity": 0.25984251968503935,
                    "duration": 0.1257230000000007
                },
                {
                    "name": "F4",
                    "midi": 65,
                    "time": 46.76895600000012,
                    "velocity": 0.2204724409448819,
                    "duration": 0.1257230000000007
                },
                {
                    "name": "A4",
                    "midi": 69,
                    "time": 46.76895600000012,
                    "velocity": 0.25984251968503935,
                    "duration": 0.1257230000000007
                },
                {
                    "name": "F4",
                    "midi": 65,
                    "time": 47.02040200000012,
                    "velocity": 0.2204724409448819,
                    "duration": 0.1257230000000007
                },
                {
                    "name": "A4",
                    "midi": 69,
                    "time": 47.02040200000012,
                    "velocity": 0.25984251968503935,
                    "duration": 0.1257230000000007
                },
                {
                    "name": "G4",
                    "midi": 67,
                    "time": 47.27184800000012,
                    "velocity": 0.31496062992125984,
                    "duration": 0.5028920000000028
                },
                {
                    "name": "A#3",
                    "midi": 58,
                    "time": 47.27184800000012,
                    "velocity": 0.25984251968503935,
                    "duration": 0.5028920000000028
                },
                {
                    "name": "C4",
                    "midi": 60,
                    "time": 47.77474000000012,
                    "velocity": 0.2047244094488189,
                    "duration": 0.5028920000000028
                },
                {
                    "name": "G4",
                    "midi": 67,
                    "time": 47.77474000000012,
                    "velocity": 0.25196850393700787,
                    "duration": 0.5028920000000028
                },
                {
                    "name": "F3",
                    "midi": 53,
                    "time": 48.277632000000125,
                    "velocity": 0.2125984251968504,
                    "duration": 0.5028920000000028
                },
                {
                    "name": "F4",
                    "midi": 65,
                    "time": 48.277632000000125,
                    "velocity": 0.2992125984251969,
                    "duration": 0.5028920000000028
                }
            ],
            "controlChanges": {},
            "id": 2,
            "name": "Piano left",
            "instrumentNumber": 0,
            "instrument": "acoustic grand piano",
            "instrumentFamily": "piano",
            "channelNumber": 0,
            "isPercussion": false
        },
        {
            "startTime": 0,
            "duration": 0,
            "length": 0,
            "notes": [],
            "controlChanges": {},
            "id": 3,
            "name": "Pedale",
            "instrumentNumber": 0,
            "instrument": "acoustic grand piano",
            "instrumentFamily": "piano",
            "channelNumber": 0,
            "isPercussion": false
        },
        {
            "startTime": 0,
            "duration": 0,
            "length": 0,
            "notes": [],
            "controlChanges": {},
            "id": 4,
            "name": "Haydn Piano Sonata in F major, 3. movement"
        },
        {
            "startTime": 0,
            "duration": 0,
            "length": 0,
            "notes": [],
            "controlChanges": {},
            "id": 5,
            "name": "Copyright  2010 by Bernd Krueger"
        },
        {
            "startTime": 0,
            "duration": 0,
            "length": 0,
            "notes": [],
            "controlChanges": {},
            "id": 6,
            "name": "http://www.piano-midi.de/"
        },
        {
            "startTime": 0,
            "duration": 0,
            "length": 0,
            "notes": [],
            "controlChanges": {},
            "id": 7,
            "name": "Edition: 2011-11-12"
        },
        {
            "startTime": 0,
            "duration": 0,
            "length": 0,
            "notes": [],
            "controlChanges": {},
            "id": 8,
            "name": "Spur 8"
        },
        {
            "startTime": 0,
            "duration": 0,
            "length": 0,
            "notes": [],
            "controlChanges": {},
            "id": 9,
            "name": "Spur 9"
        },
        {
            "startTime": 0,
            "duration": 0,
            "length": 0,
            "notes": [],
            "controlChanges": {},
            "id": 10,
            "name": "Spur 10"
        },
        {
            "startTime": 0,
            "duration": 0,
            "length": 0,
            "notes": [],
            "controlChanges": {},
            "id": 11,
            "name": "Spur 11"
        },
        {
            "startTime": 0,
            "duration": 0,
            "length": 0,
            "notes": [],
            "controlChanges": {},
            "id": 12,
            "name": "Spur 12"
        },
        {
            "startTime": 0,
            "duration": 0,
            "length": 0,
            "notes": [],
            "controlChanges": {},
            "id": 13,
            "name": "Spur 13"
        },
        {
            "startTime": 0,
            "duration": 0,
            "length": 0,
            "notes": [],
            "controlChanges": {},
            "id": 14,
            "name": "Spur 14"
        },
        {
            "startTime": 0,
            "duration": 0,
            "length": 0,
            "notes": [],
            "controlChanges": {},
            "id": 15,
            "name": "Spur 15"
        },
        {
            "startTime": 0,
            "duration": 0,
            "length": 0,
            "notes": [],
            "controlChanges": {},
            "id": 16,
            "name": "Spur 16"
        }
    ]
}