{
    "header": {
        "PPQ": 480,
        "timeSignature": [
            4,
            8
        ],
        "bpm": 50.99998215000625,
        "name": "Sonate Hoboken XVI:8 3. Satz"
    },
    "startTime": 0,
    "duration": 86.47061849999997,
    "tracks": [
        {
            "startTime": 0,
            "duration": 0,
            "length": 0,
            "notes": [],
            "controlChanges": {},
            "id": 0,
            "name": "Sonate Hoboken XVI:8 3. Satz"
        },
        {
            "startTime": 1.7647065,
            "duration": 85.88238299999989,
            "length": 216,
            "notes": [
                {
                    "name": "D5",
                    "midi": 74,
                    "time": 1.7647065,
                    "velocity": 0.3700787401574803,
                    "duration": 0.5882355000000001
                },
                {
                    "name": "D5",
                    "midi": 74,
                    "time": 2.352942,
                    "velocity": 0.3937007874015748,
                    "duration": 0.88235325
                },
                {
                    "name": "E5",
                    "midi": 76,
                    "time": 3.23529525,
                    "velocity": 0.36220472440944884,
                    "duration": 0.14705887499999992
                },
                {
                    "name": "F#5",
                    "midi": 78,
                    "time": 3.382354125,
                    "velocity": 0.3858267716535433,
                    "duration": 0.14705887499999992
                },
                {
                    "name": "G5",
                    "midi": 79,
                    "time": 3.529413,
                    "velocity": 0.4094488188976378,
                    "duration": 0.44117662499999977
                },
                {
                    "name": "G5",
                    "midi": 79,
                    "time": 4.1176485,
                    "velocity": 0.3700787401574803,
                    "duration": 0.44117662499999977
                },
                {
                    "name": "G5",
                    "midi": 79,
                    "time": 4.705883999999999,
                    "velocity": 0.3937007874015748,
                    "duration": 1.1764710000000003
                },
                {
                    "name": "F#5",
                    "midi": 78,
                    "time": 5.882355,
                    "velocity": 0.3700787401574803,
                    "duration": 0.5882354999999997
                },
                {
                    "name": "E5",
                    "midi": 76,
                    "time": 6.470590499999999,
                    "velocity": 0.3700787401574803,
                    "duration": 0.5882354999999997
                },
                {
                    "name": "E5",
                    "midi": 76,
                    "time": 7.058825999999999,
                    "velocity": 0.3937007874015748,
                    "duration": 0.29411774999999984
                },
                {
                    "name": "D5",
                    "midi": 74,
                    "time": 7.352943749999999,
                    "velocity": 0.3543307086614173,
                    "duration": 0.29411774999999984
                },
                {
                    "name": "C5",
                    "midi": 72,
                    "time": 7.647061499999999,
                    "velocity": 0.3543307086614173,
                    "duration": 0.29411774999999984
                },
                {
                    "name": "B4",
                    "midi": 71,
                    "time": 7.9411792499999985,
                    "velocity": 0.3543307086614173,
                    "duration": 0.29411775000000073
                },
                {
                    "name": "D5",
                    "midi": 74,
                    "time": 8.235297,
                    "velocity": 0.3937007874015748,
                    "duration": 0.29411774999999984
                },
                {
                    "name": "C5",
                    "midi": 72,
                    "time": 8.529414749999999,
                    "velocity": 0.3543307086614173,
                    "duration": 0.29411774999999984
                },
                {
                    "name": "B4",
                    "midi": 71,
                    "time": 8.823532499999999,
                    "velocity": 0.3543307086614173,
                    "duration": 0.29411774999999984
                },
                {
                    "name": "A4",
                    "midi": 69,
                    "time": 9.117650249999999,
                    "velocity": 0.3543307086614173,
                    "duration": 0.29411774999999984
                },
                {
                    "name": "B4",
                    "midi": 71,
                    "time": 9.411767999999999,
                    "velocity": 0.3937007874015748,
                    "duration": 0.5882354999999997
                },
                {
                    "name": "G4",
                    "midi": 67,
                    "time": 10.000003499999998,
                    "velocity": 0.36220472440944884,
                    "duration": 0.5882354999999997
                },
                {
                    "name": "D5",
                    "midi": 74,
                    "time": 11.176474499999998,
                    "velocity": 0.4409448818897638,
                    "duration": 0.5882354999999997
                },
                {
                    "name": "D5",
                    "midi": 74,
                    "time": 11.764709999999997,
                    "velocity": 0.47244094488188976,
                    "duration": 0.8823532499999995
                },
                {
                    "name": "E5",
                    "midi": 76,
                    "time": 12.647063249999997,
                    "velocity": 0.4566929133858268,
                    "duration": 0.1470588750000008
                },
                {
                    "name": "F#5",
                    "midi": 78,
                    "time": 12.794122124999998,
                    "velocity": 0.4881889763779528,
                    "duration": 0.1470588750000008
                },
                {
                    "name": "G5",
                    "midi": 79,
                    "time": 12.941180999999998,
                    "velocity": 0.5275590551181102,
                    "duration": 0.44117662500000066
                },
                {
                    "name": "B5",
                    "midi": 83,
                    "time": 13.5294165,
                    "velocity": 0.5354330708661418,
                    "duration": 0.29411774999999984
                },
                {
                    "name": "B5",
                    "midi": 83,
                    "time": 14.117652,
                    "velocity": 0.5590551181102362,
                    "duration": 1.1764709999999994
                },
                {
                    "name": "A5",
                    "midi": 81,
                    "time": 15.294122999999999,
                    "velocity": 0.5433070866141733,
                    "duration": 0.5882354999999997
                },
                {
                    "name": "G5",
                    "midi": 79,
                    "time": 15.882358499999999,
                    "velocity": 0.5196850393700787,
                    "duration": 0.5882354999999997
                },
                {
                    "name": "G5",
                    "midi": 79,
                    "time": 16.470594,
                    "velocity": 0.5354330708661418,
                    "duration": 0.2941177500000016
                },
                {
                    "name": "F#5",
                    "midi": 78,
                    "time": 16.76471175,
                    "velocity": 0.48031496062992124,
                    "duration": 0.2941177500000016
                },
                {
                    "name": "E5",
                    "midi": 76,
                    "time": 17.0588295,
                    "velocity": 0.48031496062992124,
                    "duration": 0.2941177500000016
                },
                {
                    "name": "D5",
                    "midi": 74,
                    "time": 17.352947250000003,
                    "velocity": 0.47244094488188976,
                    "duration": 0.2941177500000016
                },
                {
                    "name": "E5",
                    "midi": 76,
                    "time": 17.647065000000005,
                    "velocity": 0.5669291338582677,
                    "duration": 0.15686279999999897
                },
                {
                    "name": "F#5",
                    "midi": 78,
                    "time": 17.803927800000004,
                    "velocity": 0.47244094488188976,
                    "duration": 0.15686279999999897
                },
                {
                    "name": "E5",
                    "midi": 76,
                    "time": 17.960790600000003,
                    "velocity": 0.47244094488188976,
                    "duration": 0.15686279999999897
                },
                {
                    "name": "F#5",
                    "midi": 78,
                    "time": 18.117653400000002,
                    "velocity": 0.5275590551181102,
                    "duration": 0.11764709999999923
                },
                {
                    "name": "E5",
                    "midi": 76,
                    "time": 18.2353005,
                    "velocity": 0.4566929133858268,
                    "duration": 0.11764709999999923
                },
                {
                    "name": "F#5",
                    "midi": 78,
                    "time": 18.3529476,
                    "velocity": 0.4881889763779528,
                    "duration": 0.11764709999999923
                },
                {
                    "name": "E5",
                    "midi": 76,
                    "time": 18.4705947,
                    "velocity": 0.5039370078740157,
                    "duration": 0.11764709999999923
                },
                {
                    "name": "D5",
                    "midi": 74,
                    "time": 18.5882418,
                    "velocity": 0.4881889763779528,
                    "duration": 0.11764709999999923
                },
                {
                    "name": "E5",
                    "midi": 76,
                    "time": 18.705888899999998,
                    "velocity": 0.5039370078740157,
                    "duration": 0.11764709999999923
                },
                {
                    "name": "D5",
                    "midi": 74,
                    "time": 18.823535999999997,
                    "velocity": 0.5354330708661418,
                    "duration": 1.1764709999999994
                },
                {
                    "name": "D5",
                    "midi": 74,
                    "time": 20.588242499999996,
                    "velocity": 0.3700787401574803,
                    "duration": 0.5882354999999997
                },
                {
                    "name": "D5",
                    "midi": 74,
                    "time": 21.176477999999996,
                    "velocity": 0.3937007874015748,
                    "duration": 0.8823532500000013
                },
                {
                    "name": "E5",
                    "midi": 76,
                    "time": 22.058831249999997,
                    "velocity": 0.36220472440944884,
                    "duration": 0.14705887499999903
                },
                {
                    "name": "F#5",
                    "midi": 78,
                    "time": 22.205890124999996,
                    "velocity": 0.3858267716535433,
                    "duration": 0.14705887499999903
                },
                {
                    "name": "G5",
                    "midi": 79,
                    "time": 22.352948999999995,
                    "velocity": 0.4094488188976378,
                    "duration": 0.44117662500000066
                },
                {
                    "name": "G5",
                    "midi": 79,
                    "time": 22.941184499999995,
                    "velocity": 0.3700787401574803,
                    "duration": 0.44117662500000066
                },
                {
                    "name": "G5",
                    "midi": 79,
                    "time": 23.529419999999995,
                    "velocity": 0.3937007874015748,
                    "duration": 1.1764709999999994
                },
                {
                    "name": "F#5",
                    "midi": 78,
                    "time": 24.705890999999994,
                    "velocity": 0.3700787401574803,
                    "duration": 0.5882354999999997
                },
                {
                    "name": "E5",
                    "midi": 76,
                    "time": 25.294126499999994,
                    "velocity": 0.3700787401574803,
                    "duration": 0.5882354999999997
                },
                {
                    "name": "E5",
                    "midi": 76,
                    "time": 25.882361999999993,
                    "velocity": 0.3937007874015748,
                    "duration": 0.2941177500000016
                },
                {
                    "name": "D5",
                    "midi": 74,
                    "time": 26.176479749999995,
                    "velocity": 0.3543307086614173,
                    "duration": 0.2941177500000016
                },
                {
                    "name": "C5",
                    "midi": 72,
                    "time": 26.470597499999997,
                    "velocity": 0.3543307086614173,
                    "duration": 0.2941177500000016
                },
                {
                    "name": "B4",
                    "midi": 71,
                    "time": 26.76471525,
                    "velocity": 0.3543307086614173,
                    "duration": 0.2941177500000016
                },
                {
                    "name": "D5",
                    "midi": 74,
                    "time": 27.058833,
                    "velocity": 0.3937007874015748,
                    "duration": 0.2941177500000016
                },
                {
                    "name": "C5",
                    "midi": 72,
                    "time": 27.35295075,
                    "velocity": 0.3543307086614173,
                    "duration": 0.2941177500000016
                },
                {
                    "name": "B4",
                    "midi": 71,
                    "time": 27.647068500000003,
                    "velocity": 0.3543307086614173,
                    "duration": 0.2941177500000016
                },
                {
                    "name": "A4",
                    "midi": 69,
                    "time": 27.941186250000005,
                    "velocity": 0.3543307086614173,
                    "duration": 0.2941177500000016
                },
                {
                    "name": "B4",
                    "midi": 71,
                    "time": 28.235304000000006,
                    "velocity": 0.3937007874015748,
                    "duration": 0.5882354999999997
                },
                {
                    "name": "G4",
                    "midi": 67,
                    "time": 28.823539500000006,
                    "velocity": 0.36220472440944884,
                    "duration": 0.5882354999999997
                },
                {
                    "name": "D5",
                    "midi": 74,
                    "time": 30.000010500000005,
                    "velocity": 0.4409448818897638,
                    "duration": 0.5882354999999997
                },
                {
                    "name": "D5",
                    "midi": 74,
                    "time": 30.588246000000005,
                    "velocity": 0.47244094488188976,
                    "duration": 0.8823532500000013
                },
                {
                    "name": "E5",
                    "midi": 76,
                    "time": 31.470599250000006,
                    "velocity": 0.4566929133858268,
                    "duration": 0.14705887499999903
                },
                {
                    "name": "F#5",
                    "midi": 78,
                    "time": 31.617658125000005,
                    "velocity": 0.4881889763779528,
                    "duration": 0.14705887499999903
                },
                {
                    "name": "G5",
                    "midi": 79,
                    "time": 31.764717000000005,
                    "velocity": 0.5275590551181102,
                    "duration": 0.4411766249999971
                },
                {
                    "name": "B5",
                    "midi": 83,
                    "time": 32.3529525,
                    "velocity": 0.5354330708661418,
                    "duration": 0.4411766249999971
                },
                {
                    "name": "B5",
                    "midi": 83,
                    "time": 32.941188,
                    "velocity": 0.5590551181102362,
                    "duration": 1.1764709999999994
                },
                {
                    "name": "A5",
                    "midi": 81,
                    "time": 34.117658999999996,
                    "velocity": 0.5433070866141733,
                    "duration": 0.5882355000000032
                },
                {
                    "name": "G5",
                    "midi": 79,
                    "time": 34.7058945,
                    "velocity": 0.5196850393700787,
                    "duration": 0.5882355000000032
                },
                {
                    "name": "G5",
                    "midi": 79,
                    "time": 35.29413,
                    "velocity": 0.5354330708661418,
                    "duration": 0.29411774999999807
                },
                {
                    "name": "F#5",
                    "midi": 78,
                    "time": 35.58824775,
                    "velocity": 0.48031496062992124,
                    "duration": 0.29411774999999807
                },
                {
                    "name": "E5",
                    "midi": 76,
                    "time": 35.8823655,
                    "velocity": 0.48031496062992124,
                    "duration": 0.29411774999999807
                },
                {
                    "name": "D5",
                    "midi": 74,
                    "time": 36.17648325,
                    "velocity": 0.47244094488188976,
                    "duration": 0.29411774999999807
                },
                {
                    "name": "E5",
                    "midi": 76,
                    "time": 36.470600999999995,
                    "velocity": 0.5669291338582677,
                    "duration": 0.15686279999999897
                },
                {
                    "name": "F#5",
                    "midi": 78,
                    "time": 36.627463799999994,
                    "velocity": 0.47244094488188976,
                    "duration": 0.15686279999999897
                },
                {
                    "name": "E5",
                    "midi": 76,
                    "time": 36.78432659999999,
                    "velocity": 0.47244094488188976,
                    "duration": 0.15686279999999897
                },
                {
                    "name": "F#5",
                    "midi": 78,
                    "time": 36.94118939999999,
                    "velocity": 0.5275590551181102,
                    "duration": 0.11764709999999923
                },
                {
                    "name": "E5",
                    "midi": 76,
                    "time": 37.05883649999999,
                    "velocity": 0.4566929133858268,
                    "duration": 0.11764709999999923
                },
                {
                    "name": "F#5",
                    "midi": 78,
                    "time": 37.17648359999999,
                    "velocity": 0.4881889763779528,
                    "duration": 0.11764709999999923
                },
                {
                    "name": "E5",
                    "midi": 76,
                    "time": 37.29413069999999,
                    "velocity": 0.5039370078740157,
                    "duration": 0.11764709999999923
                },
                {
                    "name": "D5",
                    "midi": 74,
                    "time": 37.41177779999999,
                    "velocity": 0.4881889763779528,
                    "duration": 0.11764709999999923
                },
                {
                    "name": "E5",
                    "midi": 76,
                    "time": 37.52942489999999,
                    "velocity": 0.5039370078740157,
                    "duration": 0.11764709999999923
                },
                {
                    "name": "D5",
                    "midi": 74,
                    "time": 37.64707199999999,
                    "velocity": 0.5354330708661418,
                    "duration": 1.1764709999999994
                },
                {
                    "name": "D5",
                    "midi": 74,
                    "time": 39.41177849999999,
                    "velocity": 0.5511811023622047,
                    "duration": 0.29411774999999807
                },
                {
                    "name": "D6",
                    "midi": 86,
                    "time": 39.70589624999999,
                    "velocity": 0.5669291338582677,
                    "duration": 0.29411774999999807
                },
                {
                    "name": "D6",
                    "midi": 86,
                    "time": 40.000013999999986,
                    "velocity": 0.6299212598425197,
                    "duration": 1.1764709999999994
                },
                {
                    "name": "C6",
                    "midi": 84,
                    "time": 41.176484999999985,
                    "velocity": 0.5826771653543307,
                    "duration": 0.29411774999999807
                },
                {
                    "name": "B5",
                    "midi": 83,
                    "time": 41.47060274999998,
                    "velocity": 0.5118110236220472,
                    "duration": 0.14705887499999903
                },
                {
                    "name": "A5",
                    "midi": 81,
                    "time": 41.76472049999998,
                    "velocity": 0.5826771653543307,
                    "duration": 0.14705887499999903
                },
                {
                    "name": "G#5",
                    "midi": 80,
                    "time": 42.05883824999998,
                    "velocity": 0.5433070866141733,
                    "duration": 0.14705887499999903
                },
                {
                    "name": "A5",
                    "midi": 81,
                    "time": 42.35295599999998,
                    "velocity": 0.6141732283464567,
                    "duration": 1.1764709999999994
                },
                {
                    "name": "C5",
                    "midi": 72,
                    "time": 44.11766249999998,
                    "velocity": 0.5354330708661418,
                    "duration": 0.29411774999999807
                },
                {
                    "name": "C6",
                    "midi": 84,
                    "time": 44.41178024999998,
                    "velocity": 0.5669291338582677,
                    "duration": 0.29411774999999807
                },
                {
                    "name": "C6",
                    "midi": 84,
                    "time": 44.705897999999976,
                    "velocity": 0.6299212598425197,
                    "duration": 1.1764709999999994
                },
                {
                    "name": "B5",
                    "midi": 83,
                    "time": 45.882368999999976,
                    "velocity": 0.5905511811023622,
                    "duration": 0.29411774999999807
                },
                {
                    "name": "A5",
                    "midi": 81,
                    "time": 46.176486749999974,
                    "velocity": 0.5118110236220472,
                    "duration": 0.14705887499999903
                },
                {
                    "name": "G5",
                    "midi": 79,
                    "time": 46.47060449999997,
                    "velocity": 0.5826771653543307,
                    "duration": 0.14705887499999903
                },
                {
                    "name": "F#5",
                    "midi": 78,
                    "time": 46.76472224999997,
                    "velocity": 0.5275590551181102,
                    "duration": 0.14705887499999903
                },
                {
                    "name": "G5",
                    "midi": 79,
                    "time": 47.05883999999997,
                    "velocity": 0.6141732283464567,
                    "duration": 1.1764709999999994
                },
                {
                    "name": "D5",
                    "midi": 74,
                    "time": 48.82354649999997,
                    "velocity": 0.3937007874015748,
                    "duration": 0.29411774999999807
                },
                {
                    "name": "G5",
                    "midi": 79,
                    "time": 49.11766424999997,
                    "velocity": 0.36220472440944884,
                    "duration": 0.29411774999999807
                },
                {
                    "name": "E5",
                    "midi": 76,
                    "time": 49.41178199999997,
                    "velocity": 0.3937007874015748,
                    "duration": 0.08333336249999945
                },
                {
                    "name": "F#5",
                    "midi": 78,
                    "time": 49.495115362499966,
                    "velocity": 0.3700787401574803,
                    "duration": 0.08333336249999945
                },
                {
                    "name": "E5",
                    "midi": 76,
                    "time": 49.580899706249966,
                    "velocity": 0.3937007874015748,
                    "duration": 0.08333336249999945
                },
                {
                    "name": "F#5",
                    "midi": 78,
                    "time": 49.664233068749965,
                    "velocity": 0.36220472440944884,
                    "duration": 0.08333336249999945
                },
                {
                    "name": "E5",
                    "midi": 76,
                    "time": 49.747566431249965,
                    "velocity": 0.3937007874015748,
                    "duration": 0.08333336249999945
                },
                {
                    "name": "D5",
                    "midi": 74,
                    "time": 49.830899793749964,
                    "velocity": 0.3700787401574803,
                    "duration": 0.08333336249999945
                },
                {
                    "name": "E5",
                    "midi": 76,
                    "time": 49.91423315624996,
                    "velocity": 0.3700787401574803,
                    "duration": 0.08578434374999944
                },
                {
                    "name": "D5",
                    "midi": 74,
                    "time": 50.00001749999996,
                    "velocity": 0.41732283464566927,
                    "duration": 0.5882355000000032
                },
                {
                    "name": "D5",
                    "midi": 74,
                    "time": 50.588252999999966,
                    "velocity": 0.3937007874015748,
                    "duration": 0.1960784999999987
                },
                {
                    "name": "E5",
                    "midi": 76,
                    "time": 50.784331499999965,
                    "velocity": 0.3700787401574803,
                    "duration": 0.1960784999999987
                },
                {
                    "name": "F#5",
                    "midi": 78,
                    "time": 50.980409999999964,
                    "velocity": 0.3700787401574803,
                    "duration": 0.1960784999999987
                },
                {
                    "name": "G5",
                    "midi": 79,
                    "time": 51.17648849999996,
                    "velocity": 0.3937007874015748,
                    "duration": 0.1960784999999987
                },
                {
                    "name": "F#5",
                    "midi": 78,
                    "time": 51.37256699999996,
                    "velocity": 0.36220472440944884,
                    "duration": 0.1960784999999987
                },
                {
                    "name": "G5",
                    "midi": 79,
                    "time": 51.56864549999996,
                    "velocity": 0.36220472440944884,
                    "duration": 0.1960784999999987
                },
                {
                    "name": "E5",
                    "midi": 76,
                    "time": 51.76472399999996,
                    "velocity": 0.3937007874015748,
                    "duration": 0.08333336249999945
                },
                {
                    "name": "F#5",
                    "midi": 78,
                    "time": 51.84805736249996,
                    "velocity": 0.3700787401574803,
                    "duration": 0.08333336249999945
                },
                {
                    "name": "E5",
                    "midi": 76,
                    "time": 51.93384170624996,
                    "velocity": 0.3937007874015748,
                    "duration": 0.08333336249999945
                },
                {
                    "name": "F#5",
                    "midi": 78,
                    "time": 52.01717506874996,
                    "velocity": 0.36220472440944884,
                    "duration": 0.08333336249999945
                },
                {
                    "name": "E5",
                    "midi": 76,
                    "time": 52.100508431249956,
                    "velocity": 0.3937007874015748,
                    "duration": 0.08333336249999945
                },
                {
                    "name": "D5",
                    "midi": 74,
                    "time": 52.183841793749956,
                    "velocity": 0.3700787401574803,
                    "duration": 0.08333336249999945
                },
                {
                    "name": "E5",
                    "midi": 76,
                    "time": 52.267175156249955,
                    "velocity": 0.3700787401574803,
                    "duration": 0.08578434374999944
                },
                {
                    "name": "D5",
                    "midi": 74,
                    "time": 52.352959499999955,
                    "velocity": 0.41732283464566927,
                    "duration": 0.4411766249999971
                },
                {
                    "name": "A4",
                    "midi": 69,
                    "time": 52.79413612499995,
                    "velocity": 0.41732283464566927,
                    "duration": 0.07352943749999952
                },
                {
                    "name": "B4",
                    "midi": 71,
                    "time": 52.86766556249995,
                    "velocity": 0.41732283464566927,
                    "duration": 0.07352943749999952
                },
                {
                    "name": "C5",
                    "midi": 72,
                    "time": 52.94119499999995,
                    "velocity": 0.4881889763779528,
                    "duration": 1.1764709999999994
                },
                {
                    "name": "C5",
                    "midi": 72,
                    "time": 54.11766599999995,
                    "velocity": 0.41732283464566927,
                    "duration": 0.29411774999999807
                },
                {
                    "name": "B4",
                    "midi": 71,
                    "time": 54.41178374999995,
                    "velocity": 0.3937007874015748,
                    "duration": 0.29411774999999807
                },
                {
                    "name": "A4",
                    "midi": 69,
                    "time": 54.705901499999946,
                    "velocity": 0.3937007874015748,
                    "duration": 0.29411774999999807
                },
                {
                    "name": "G4",
                    "midi": 67,
                    "time": 55.000019249999944,
                    "velocity": 0.4015748031496063,
                    "duration": 0.29411774999999807
                },
                {
                    "name": "B4",
                    "midi": 71,
                    "time": 55.29413699999994,
                    "velocity": 0.4566929133858268,
                    "duration": 0.29411774999999807
                },
                {
                    "name": "A4",
                    "midi": 69,
                    "time": 55.58825474999994,
                    "velocity": 0.4015748031496063,
                    "duration": 0.29411774999999807
                },
                {
                    "name": "G4",
                    "midi": 67,
                    "time": 55.88237249999994,
                    "velocity": 0.4409448818897638,
                    "duration": 0.29411774999999807
                },
                {
                    "name": "F#4",
                    "midi": 66,
                    "time": 56.17649024999994,
                    "velocity": 0.48031496062992124,
                    "duration": 0.29411774999999807
                },
                {
                    "name": "G4",
                    "midi": 67,
                    "time": 56.470607999999935,
                    "velocity": 0.5118110236220472,
                    "duration": 0.29411774999999807
                },
                {
                    "name": "G5",
                    "midi": 79,
                    "time": 56.76472574999993,
                    "velocity": 0.4881889763779528,
                    "duration": 0.29411774999999807
                },
                {
                    "name": "G5",
                    "midi": 79,
                    "time": 57.05884349999993,
                    "velocity": 0.5354330708661418,
                    "duration": 0.29411774999999807
                },
                {
                    "name": "A4",
                    "midi": 69,
                    "time": 57.50002012499993,
                    "velocity": 0.5196850393700787,
                    "duration": 0.07352943749999952
                },
                {
                    "name": "B4",
                    "midi": 71,
                    "time": 57.57354956249993,
                    "velocity": 0.5433070866141733,
                    "duration": 0.07352943749999952
                },
                {
                    "name": "C5",
                    "midi": 72,
                    "time": 57.64707899999993,
                    "velocity": 0.5669291338582677,
                    "duration": 1.1764709999999994
                },
                {
                    "name": "C5",
                    "midi": 72,
                    "time": 58.823549999999926,
                    "velocity": 0.5511811023622047,
                    "duration": 0.29411774999999807
                },
                {
                    "name": "B4",
                    "midi": 71,
                    "time": 59.117667749999924,
                    "velocity": 0.4881889763779528,
                    "duration": 0.29411774999999807
                },
                {
                    "name": "A4",
                    "midi": 69,
                    "time": 59.41178549999992,
                    "velocity": 0.4881889763779528,
                    "duration": 0.29411774999999807
                },
                {
                    "name": "G4",
                    "midi": 67,
                    "time": 59.70590324999992,
                    "velocity": 0.48031496062992124,
                    "duration": 0.29411774999999807
                },
                {
                    "name": "B4",
                    "midi": 71,
                    "time": 60.00002099999992,
                    "velocity": 0.5275590551181102,
                    "duration": 0.29411774999999807
                },
                {
                    "name": "A4",
                    "midi": 69,
                    "time": 60.29413874999992,
                    "velocity": 0.4881889763779528,
                    "duration": 0.29411774999999807
                },
                {
                    "name": "G4",
                    "midi": 67,
                    "time": 60.588256499999915,
                    "velocity": 0.5039370078740157,
                    "duration": 0.29411774999999807
                },
                {
                    "name": "F#4",
                    "midi": 66,
                    "time": 60.88237424999991,
                    "velocity": 0.5196850393700787,
                    "duration": 0.29411774999999807
                },
                {
                    "name": "G4",
                    "midi": 67,
                    "time": 61.17649199999991,
                    "velocity": 0.5748031496062992,
                    "duration": 0.5882355000000032
                },
                {
                    "name": "D5",
                    "midi": 74,
                    "time": 62.94119849999991,
                    "velocity": 0.5354330708661418,
                    "duration": 0.29411774999999807
                },
                {
                    "name": "D6",
                    "midi": 86,
                    "time": 63.23531624999991,
                    "velocity": 0.5669291338582677,
                    "duration": 0.29411774999999807
                },
                {
                    "name": "D6",
                    "midi": 86,
                    "time": 63.52943399999991,
                    "velocity": 0.6299212598425197,
                    "duration": 1.1764710000000065
                },
                {
                    "name": "C6",
                    "midi": 84,
                    "time": 64.70590499999992,
                    "velocity": 0.5748031496062992,
                    "duration": 0.29411774999999807
                },
                {
                    "name": "B5",
                    "midi": 83,
                    "time": 65.00002274999991,
                    "velocity": 0.5196850393700787,
                    "duration": 0.14705887499999903
                },
                {
                    "name": "A5",
                    "midi": 81,
                    "time": 65.29414049999991,
                    "velocity": 0.5748031496062992,
                    "duration": 0.14705887499999903
                },
                {
                    "name": "G#5",
                    "midi": 80,
                    "time": 65.58825824999991,
                    "velocity": 0.5354330708661418,
                    "duration": 0.14705887499999903
                },
                {
                    "name": "A5",
                    "midi": 81,
                    "time": 65.88237599999991,
                    "velocity": 0.6141732283464567,
                    "duration": 1.1764710000000065
                },
                {
                    "name": "C5",
                    "midi": 72,
                    "time": 67.64708249999991,
                    "velocity": 0.5354330708661418,
                    "duration": 0.29411774999999807
                },
                {
                    "name": "C6",
                    "midi": 84,
                    "time": 67.94120024999991,
                    "velocity": 0.5669291338582677,
                    "duration": 0.29411774999999807
                },
                {
                    "name": "C6",
                    "midi": 84,
                    "time": 68.2353179999999,
                    "velocity": 0.6299212598425197,
                    "duration": 1.1764710000000065
                },
                {
                    "name": "B5",
                    "midi": 83,
                    "time": 69.41178899999991,
                    "velocity": 0.5905511811023622,
                    "duration": 0.29411774999999807
                },
                {
                    "name": "A5",
                    "midi": 81,
                    "time": 69.70590674999991,
                    "velocity": 0.5354330708661418,
                    "duration": 0.14705887499999903
                },
                {
                    "name": "G5",
                    "midi": 79,
                    "time": 70.00002449999991,
                    "velocity": 0.5905511811023622,
                    "duration": 0.14705887499999903
                },
                {
                    "name": "F#5",
                    "midi": 78,
                    "time": 70.29414224999991,
                    "velocity": 0.5275590551181102,
                    "duration": 0.14705887499999903
                },
                {
                    "name": "G5",
                    "midi": 79,
                    "time": 70.5882599999999,
                    "velocity": 0.6141732283464567,
                    "duration": 1.1764710000000065
                },
                {
                    "name": "D5",
                    "midi": 74,
                    "time": 72.35296649999991,
                    "velocity": 0.3937007874015748,
                    "duration": 0.29411774999999807
                },
                {
                    "name": "G5",
                    "midi": 79,
                    "time": 72.6470842499999,
                    "velocity": 0.36220472440944884,
                    "duration": 0.29411774999999807
                },
                {
                    "name": "E5",
                    "midi": 76,
                    "time": 72.9412019999999,
                    "velocity": 0.3937007874015748,
                    "duration": 0.08333336249999945
                },
                {
                    "name": "F#5",
                    "midi": 78,
                    "time": 73.0245353624999,
                    "velocity": 0.3700787401574803,
                    "duration": 0.08333336249999945
                },
                {
                    "name": "E5",
                    "midi": 76,
                    "time": 73.11031970624991,
                    "velocity": 0.3937007874015748,
                    "duration": 0.08333336249999945
                },
                {
                    "name": "F#5",
                    "midi": 78,
                    "time": 73.19365306874991,
                    "velocity": 0.36220472440944884,
                    "duration": 0.08333336249999945
                },
                {
                    "name": "E5",
                    "midi": 76,
                    "time": 73.27698643124991,
                    "velocity": 0.3937007874015748,
                    "duration": 0.08333336249999945
                },
                {
                    "name": "D5",
                    "midi": 74,
                    "time": 73.36031979374991,
                    "velocity": 0.3700787401574803,
                    "duration": 0.08333336249999945
                },
                {
                    "name": "E5",
                    "midi": 76,
                    "time": 73.44365315624991,
                    "velocity": 0.3700787401574803,
                    "duration": 0.08578434375000654
                },
                {
                    "name": "D5",
                    "midi": 74,
                    "time": 73.52943749999991,
                    "velocity": 0.41732283464566927,
                    "duration": 0.5882354999999961
                },
                {
                    "name": "D5",
                    "midi": 74,
                    "time": 74.11767299999991,
                    "velocity": 0.3937007874015748,
                    "duration": 0.1960784999999987
                },
                {
                    "name": "E5",
                    "midi": 76,
                    "time": 74.31375149999991,
                    "velocity": 0.3779527559055118,
                    "duration": 0.1960784999999987
                },
                {
                    "name": "F#5",
                    "midi": 78,
                    "time": 74.50982999999991,
                    "velocity": 0.3779527559055118,
                    "duration": 0.1960784999999987
                },
                {
                    "name": "G5",
                    "midi": 79,
                    "time": 74.70590849999991,
                    "velocity": 0.3937007874015748,
                    "duration": 0.1960784999999987
                },
                {
                    "name": "F#5",
                    "midi": 78,
                    "time": 74.9019869999999,
                    "velocity": 0.3779527559055118,
                    "duration": 0.1960784999999987
                },
                {
                    "name": "G5",
                    "midi": 79,
                    "time": 75.0980654999999,
                    "velocity": 0.3779527559055118,
                    "duration": 0.1960784999999987
                },
                {
                    "name": "E5",
                    "midi": 76,
                    "time": 75.2941439999999,
                    "velocity": 0.3937007874015748,
                    "duration": 0.08333336249999945
                },
                {
                    "name": "F#5",
                    "midi": 78,
                    "time": 75.3774773624999,
                    "velocity": 0.3700787401574803,
                    "duration": 0.08333336249999945
                },
                {
                    "name": "E5",
                    "midi": 76,
                    "time": 75.46326170624991,
                    "velocity": 0.3937007874015748,
                    "duration": 0.08333336249999945
                },
                {
                    "name": "F#5",
                    "midi": 78,
                    "time": 75.54659506874991,
                    "velocity": 0.36220472440944884,
                    "duration": 0.08333336249999945
                },
                {
                    "name": "E5",
                    "midi": 76,
                    "time": 75.62992843124991,
                    "velocity": 0.3937007874015748,
                    "duration": 0.08333336249999945
                },
                {
                    "name": "D5",
                    "midi": 74,
                    "time": 75.71326179374991,
                    "velocity": 0.3700787401574803,
                    "duration": 0.08333336249999945
                },
                {
                    "name": "E5",
                    "midi": 76,
                    "time": 75.79659515624991,
                    "velocity": 0.3700787401574803,
                    "duration": 0.08578434375000654
                },
                {
                    "name": "D5",
                    "midi": 74,
                    "time": 75.88237949999991,
                    "velocity": 0.41732283464566927,
                    "duration": 0.4411766249999971
                },
                {
                    "name": "A4",
                    "midi": 69,
                    "time": 76.32355612499991,
                    "velocity": 0.41732283464566927,
                    "duration": 0.07352943749999952
                },
                {
                    "name": "B4",
                    "midi": 71,
                    "time": 76.39708556249991,
                    "velocity": 0.41732283464566927,
                    "duration": 0.07352943749999952
                },
                {
                    "name": "C5",
                    "midi": 72,
                    "time": 76.47061499999991,
                    "velocity": 0.4881889763779528,
                    "duration": 1.1764710000000065
                },
                {
                    "name": "C5",
                    "midi": 72,
                    "time": 77.64708599999992,
                    "velocity": 0.41732283464566927,
                    "duration": 0.29411774999999807
                },
                {
                    "name": "B4",
                    "midi": 71,
                    "time": 77.94120374999991,
                    "velocity": 0.3937007874015748,
                    "duration": 0.29411774999999807
                },
                {
                    "name": "A4",
                    "midi": 69,
                    "time": 78.23532149999991,
                    "velocity": 0.3937007874015748,
                    "duration": 0.29411774999999807
                },
                {
                    "name": "G4",
                    "midi": 67,
                    "time": 78.52943924999991,
                    "velocity": 0.4015748031496063,
                    "duration": 0.29411774999999807
                },
                {
                    "name": "B4",
                    "midi": 71,
                    "time": 78.82355699999991,
                    "velocity": 0.4645669291338583,
                    "duration": 0.29411774999999807
                },
                {
                    "name": "A4",
                    "midi": 69,
                    "time": 79.1176747499999,
                    "velocity": 0.4015748031496063,
                    "duration": 0.29411774999999807
                },
                {
                    "name": "G4",
                    "midi": 67,
                    "time": 79.4117924999999,
                    "velocity": 0.4409448818897638,
                    "duration": 0.29411774999999807
                },
                {
                    "name": "F#4",
                    "midi": 66,
                    "time": 79.7059102499999,
                    "velocity": 0.48031496062992124,
                    "duration": 0.29411774999999807
                },
                {
                    "name": "G4",
                    "midi": 67,
                    "time": 80.0000279999999,
                    "velocity": 0.5118110236220472,
                    "duration": 0.29411774999999807
                },
                {
                    "name": "G5",
                    "midi": 79,
                    "time": 80.2941457499999,
                    "velocity": 0.4881889763779528,
                    "duration": 0.29411774999999807
                },
                {
                    "name": "G5",
                    "midi": 79,
                    "time": 80.5882634999999,
                    "velocity": 0.5354330708661418,
                    "duration": 0.29411774999999807
                },
                {
                    "name": "A4",
                    "midi": 69,
                    "time": 81.0294401249999,
                    "velocity": 0.5196850393700787,
                    "duration": 0.07352943749999952
                },
                {
                    "name": "B4",
                    "midi": 71,
                    "time": 81.1029695624999,
                    "velocity": 0.5433070866141733,
                    "duration": 0.07352943749999952
                },
                {
                    "name": "C5",
                    "midi": 72,
                    "time": 81.1764989999999,
                    "velocity": 0.5669291338582677,
                    "duration": 1.1764710000000065
                },
                {
                    "name": "C5",
                    "midi": 72,
                    "time": 82.3529699999999,
                    "velocity": 0.5511811023622047,
                    "duration": 0.29411774999999807
                },
                {
                    "name": "B4",
                    "midi": 71,
                    "time": 82.6470877499999,
                    "velocity": 0.4881889763779528,
                    "duration": 0.29411774999999807
                },
                {
                    "name": "A4",
                    "midi": 69,
                    "time": 82.9412054999999,
                    "velocity": 0.4881889763779528,
                    "duration": 0.29411774999999807
                },
                {
                    "name": "G4",
                    "midi": 67,
                    "time": 83.2353232499999,
                    "velocity": 0.48031496062992124,
                    "duration": 0.29411774999999807
                },
                {
                    "name": "B4",
                    "midi": 71,
                    "time": 83.52944099999989,
                    "velocity": 0.5354330708661418,
                    "duration": 0.29411774999999807
                },
                {
                    "name": "A4",
                    "midi": 69,
                    "time": 83.82355874999989,
                    "velocity": 0.4881889763779528,
                    "duration": 0.29411774999999807
                },
                {
                    "name": "G4",
                    "midi": 67,
                    "time": 84.11767649999989,
                    "velocity": 0.5039370078740157,
                    "duration": 0.29411774999999807
                },
                {
                    "name": "F#4",
                    "midi": 66,
                    "time": 84.41179424999989,
                    "velocity": 0.5196850393700787,
                    "duration": 0.29411774999999807
                },
                {
                    "name": "G4",
                    "midi": 67,
                    "time": 84.70591199999988,
                    "velocity": 0.5748031496062992,
                    "duration": 1.1764710000000065
                }
            ],
            "controlChanges": {},
            "id": 1,
            "name": "Piano right",
            "instrumentNumber": 0,
            "instrument": "acoustic grand piano",
            "instrumentFamily": "piano",
            "channelNumber": 0,
            "isPercussion": false
        },
        {
            "startTime": 2.9411775000000002,
            "duration": 86.47061849999997,
            "length": 128,
            "notes": [
                {
                    "name": "G3",
                    "midi": 55,
                    "time": 2.9411775000000002,
                    "velocity": 0.31496062992125984,
                    "duration": 0.5882355000000001
                },
                {
                    "name": "B3",
                    "midi": 59,
                    "time": 3.5294130000000004,
                    "velocity": 0.28346456692913385,
                    "duration": 0.5882355000000001
                },
                {
                    "name": "C4",
                    "midi": 60,
                    "time": 4.1176485000000005,
                    "velocity": 0.30708661417322836,
                    "duration": 0.5882354999999997
                },
                {
                    "name": "D4",
                    "midi": 62,
                    "time": 4.705884,
                    "velocity": 0.33858267716535434,
                    "duration": 0.5882354999999997
                },
                {
                    "name": "D3",
                    "midi": 50,
                    "time": 5.2941195,
                    "velocity": 0.28346456692913385,
                    "duration": 0.5882354999999997
                },
                {
                    "name": "D4",
                    "midi": 62,
                    "time": 5.882355,
                    "velocity": 0.3228346456692913,
                    "duration": 0.5882354999999997
                },
                {
                    "name": "C4",
                    "midi": 60,
                    "time": 6.470590499999999,
                    "velocity": 0.2992125984251969,
                    "duration": 0.5882354999999997
                },
                {
                    "name": "B3",
                    "midi": 59,
                    "time": 7.058825999999999,
                    "velocity": 0.31496062992125984,
                    "duration": 0.5882354999999997
                },
                {
                    "name": "G3",
                    "midi": 55,
                    "time": 7.647061499999999,
                    "velocity": 0.25984251968503935,
                    "duration": 0.5882355000000006
                },
                {
                    "name": "A3",
                    "midi": 57,
                    "time": 8.235297,
                    "velocity": 0.31496062992125984,
                    "duration": 0.5882354999999997
                },
                {
                    "name": "D3",
                    "midi": 50,
                    "time": 8.823532499999999,
                    "velocity": 0.2677165354330709,
                    "duration": 0.5882354999999997
                },
                {
                    "name": "G3",
                    "midi": 55,
                    "time": 9.411767999999999,
                    "velocity": 0.31496062992125984,
                    "duration": 0.5882354999999997
                },
                {
                    "name": "D3",
                    "midi": 50,
                    "time": 10.000003499999998,
                    "velocity": 0.2677165354330709,
                    "duration": 0.29411774999999984
                },
                {
                    "name": "B2",
                    "midi": 47,
                    "time": 10.294121249999998,
                    "velocity": 0.2677165354330709,
                    "duration": 0.29411774999999984
                },
                {
                    "name": "G2",
                    "midi": 43,
                    "time": 10.588238999999998,
                    "velocity": 0.31496062992125984,
                    "duration": 0.5882354999999997
                },
                {
                    "name": "G3",
                    "midi": 55,
                    "time": 12.352945499999997,
                    "velocity": 0.3779527559055118,
                    "duration": 0.5882354999999997
                },
                {
                    "name": "B3",
                    "midi": 59,
                    "time": 12.941180999999997,
                    "velocity": 0.33858267716535434,
                    "duration": 0.5882354999999997
                },
                {
                    "name": "G3",
                    "midi": 55,
                    "time": 13.529416499999996,
                    "velocity": 0.4094488188976378,
                    "duration": 0.5882354999999997
                },
                {
                    "name": "G4",
                    "midi": 67,
                    "time": 14.705887499999996,
                    "velocity": 0.4015748031496063,
                    "duration": 0.5882354999999997
                },
                {
                    "name": "C#4",
                    "midi": 61,
                    "time": 15.294122999999995,
                    "velocity": 0.4330708661417323,
                    "duration": 0.5882354999999997
                },
                {
                    "name": "E4",
                    "midi": 64,
                    "time": 15.882358499999995,
                    "velocity": 0.3858267716535433,
                    "duration": 0.5882354999999997
                },
                {
                    "name": "D4",
                    "midi": 62,
                    "time": 16.470593999999995,
                    "velocity": 0.44881889763779526,
                    "duration": 0.5882354999999997
                },
                {
                    "name": "F#3",
                    "midi": 54,
                    "time": 17.058829499999995,
                    "velocity": 0.36220472440944884,
                    "duration": 0.5882354999999997
                },
                {
                    "name": "G3",
                    "midi": 55,
                    "time": 17.647064999999994,
                    "velocity": 0.4251968503937008,
                    "duration": 0.5882354999999997
                },
                {
                    "name": "A3",
                    "midi": 57,
                    "time": 18.235300499999994,
                    "velocity": 0.36220472440944884,
                    "duration": 0.5882354999999997
                },
                {
                    "name": "D3",
                    "midi": 50,
                    "time": 18.823535999999994,
                    "velocity": 0.4251968503937008,
                    "duration": 0.5882354999999997
                },
                {
                    "name": "A2",
                    "midi": 45,
                    "time": 19.411771499999993,
                    "velocity": 0.3464566929133858,
                    "duration": 0.2941177500000016
                },
                {
                    "name": "D2",
                    "midi": 38,
                    "time": 20.000006999999997,
                    "velocity": 0.33070866141732286,
                    "duration": 0.2941177500000016
                },
                {
                    "name": "G3",
                    "midi": 55,
                    "time": 21.7647135,
                    "velocity": 0.31496062992125984,
                    "duration": 0.5882354999999997
                },
                {
                    "name": "B3",
                    "midi": 59,
                    "time": 22.352949,
                    "velocity": 0.28346456692913385,
                    "duration": 0.5882354999999997
                },
                {
                    "name": "C4",
                    "midi": 60,
                    "time": 22.9411845,
                    "velocity": 0.30708661417322836,
                    "duration": 0.5882354999999997
                },
                {
                    "name": "D4",
                    "midi": 62,
                    "time": 23.52942,
                    "velocity": 0.33858267716535434,
                    "duration": 0.5882354999999997
                },
                {
                    "name": "D3",
                    "midi": 50,
                    "time": 24.117655499999998,
                    "velocity": 0.28346456692913385,
                    "duration": 0.5882354999999997
                },
                {
                    "name": "D4",
                    "midi": 62,
                    "time": 24.705890999999998,
                    "velocity": 0.3228346456692913,
                    "duration": 0.5882354999999997
                },
                {
                    "name": "C4",
                    "midi": 60,
                    "time": 25.294126499999997,
                    "velocity": 0.2992125984251969,
                    "duration": 0.5882354999999997
                },
                {
                    "name": "B3",
                    "midi": 59,
                    "time": 25.882361999999997,
                    "velocity": 0.31496062992125984,
                    "duration": 0.5882354999999997
                },
                {
                    "name": "G3",
                    "midi": 55,
                    "time": 26.470597499999997,
                    "velocity": 0.25984251968503935,
                    "duration": 0.5882354999999997
                },
                {
                    "name": "A3",
                    "midi": 57,
                    "time": 27.058832999999996,
                    "velocity": 0.31496062992125984,
                    "duration": 0.5882354999999997
                },
                {
                    "name": "D3",
                    "midi": 50,
                    "time": 27.647068499999996,
                    "velocity": 0.2677165354330709,
                    "duration": 0.5882354999999997
                },
                {
                    "name": "G3",
                    "midi": 55,
                    "time": 28.235303999999996,
                    "velocity": 0.31496062992125984,
                    "duration": 0.5882354999999997
                },
                {
                    "name": "D3",
                    "midi": 50,
                    "time": 28.823539499999995,
                    "velocity": 0.2677165354330709,
                    "duration": 0.2941177500000016
                },
                {
                    "name": "B2",
                    "midi": 47,
                    "time": 29.117657249999997,
                    "velocity": 0.2677165354330709,
                    "duration": 0.2941177500000016
                },
                {
                    "name": "G2",
                    "midi": 43,
                    "time": 29.411775,
                    "velocity": 0.31496062992125984,
                    "duration": 0.5882354999999997
                },
                {
                    "name": "G3",
                    "midi": 55,
                    "time": 31.176481499999998,
                    "velocity": 0.3779527559055118,
                    "duration": 0.5882354999999997
                },
                {
                    "name": "B3",
                    "midi": 59,
                    "time": 31.764716999999997,
                    "velocity": 0.33858267716535434,
                    "duration": 0.5882355000000032
                },
                {
                    "name": "G3",
                    "midi": 55,
                    "time": 32.3529525,
                    "velocity": 0.4094488188976378,
                    "duration": 0.5882355000000032
                },
                {
                    "name": "G4",
                    "midi": 67,
                    "time": 33.52942350000001,
                    "velocity": 0.4015748031496063,
                    "duration": 0.5882355000000032
                },
                {
                    "name": "C#4",
                    "midi": 61,
                    "time": 34.11765900000001,
                    "velocity": 0.4330708661417323,
                    "duration": 0.5882355000000032
                },
                {
                    "name": "E4",
                    "midi": 64,
                    "time": 34.705894500000014,
                    "velocity": 0.3858267716535433,
                    "duration": 0.5882355000000032
                },
                {
                    "name": "D4",
                    "midi": 62,
                    "time": 35.29413000000002,
                    "velocity": 0.44881889763779526,
                    "duration": 0.5882355000000032
                },
                {
                    "name": "F#3",
                    "midi": 54,
                    "time": 35.88236550000002,
                    "velocity": 0.36220472440944884,
                    "duration": 0.5882355000000032
                },
                {
                    "name": "G3",
                    "midi": 55,
                    "time": 36.47060100000002,
                    "velocity": 0.4251968503937008,
                    "duration": 0.5882355000000032
                },
                {
                    "name": "A3",
                    "midi": 57,
                    "time": 37.05883650000003,
                    "velocity": 0.36220472440944884,
                    "duration": 0.5882355000000032
                },
                {
                    "name": "D3",
                    "midi": 50,
                    "time": 37.64707200000003,
                    "velocity": 0.4251968503937008,
                    "duration": 0.5882355000000032
                },
                {
                    "name": "A2",
                    "midi": 45,
                    "time": 38.23530750000003,
                    "velocity": 0.33070866141732286,
                    "duration": 0.29411774999999807
                },
                {
                    "name": "D2",
                    "midi": 38,
                    "time": 38.82354300000003,
                    "velocity": 0.33070866141732286,
                    "duration": 0.29411774999999807
                },
                {
                    "name": "F4",
                    "midi": 65,
                    "time": 40.588249500000025,
                    "velocity": 0.36220472440944884,
                    "duration": 0.5882355000000032
                },
                {
                    "name": "D4",
                    "midi": 62,
                    "time": 41.17648500000003,
                    "velocity": 0.4251968503937008,
                    "duration": 0.5882355000000032
                },
                {
                    "name": "E4",
                    "midi": 64,
                    "time": 41.76472050000003,
                    "velocity": 0.4015748031496063,
                    "duration": 0.5882355000000032
                },
                {
                    "name": "A3",
                    "midi": 57,
                    "time": 42.352956000000034,
                    "velocity": 0.44881889763779526,
                    "duration": 0.5882355000000032
                },
                {
                    "name": "E3",
                    "midi": 52,
                    "time": 42.94119150000004,
                    "velocity": 0.3937007874015748,
                    "duration": 0.29411774999999807
                },
                {
                    "name": "A2",
                    "midi": 45,
                    "time": 43.529427000000034,
                    "velocity": 0.4015748031496063,
                    "duration": 0.29411774999999807
                },
                {
                    "name": "E4",
                    "midi": 64,
                    "time": 45.29413350000003,
                    "velocity": 0.44881889763779526,
                    "duration": 0.5882355000000032
                },
                {
                    "name": "C4",
                    "midi": 60,
                    "time": 45.88236900000003,
                    "velocity": 0.44881889763779526,
                    "duration": 0.5882355000000032
                },
                {
                    "name": "D4",
                    "midi": 62,
                    "time": 46.470604500000036,
                    "velocity": 0.4015748031496063,
                    "duration": 0.5882355000000032
                },
                {
                    "name": "G3",
                    "midi": 55,
                    "time": 47.05884000000004,
                    "velocity": 0.44881889763779526,
                    "duration": 0.5882355000000032
                },
                {
                    "name": "D3",
                    "midi": 50,
                    "time": 47.64707550000004,
                    "velocity": 0.3937007874015748,
                    "duration": 0.29411774999999807
                },
                {
                    "name": "G2",
                    "midi": 43,
                    "time": 48.23531100000004,
                    "velocity": 0.4015748031496063,
                    "duration": 0.29411774999999807
                },
                {
                    "name": "B3",
                    "midi": 59,
                    "time": 48.823546500000035,
                    "velocity": 0.2992125984251969,
                    "duration": 0.5882355000000032
                },
                {
                    "name": "G3",
                    "midi": 55,
                    "time": 48.823546500000035,
                    "velocity": 0.2992125984251969,
                    "duration": 0.5882355000000032
                },
                {
                    "name": "G3",
                    "midi": 55,
                    "time": 49.41178200000004,
                    "velocity": 0.31496062992125984,
                    "duration": 1.1764710000000065
                },
                {
                    "name": "C4",
                    "midi": 60,
                    "time": 49.41178200000004,
                    "velocity": 0.31496062992125984,
                    "duration": 0.5882355000000032
                },
                {
                    "name": "B3",
                    "midi": 59,
                    "time": 50.00001750000004,
                    "velocity": 0.2992125984251969,
                    "duration": 0.5882355000000032
                },
                {
                    "name": "G3",
                    "midi": 55,
                    "time": 51.17648850000005,
                    "velocity": 0.2992125984251969,
                    "duration": 0.5882355000000032
                },
                {
                    "name": "B3",
                    "midi": 59,
                    "time": 51.17648850000005,
                    "velocity": 0.2992125984251969,
                    "duration": 0.5882355000000032
                },
                {
                    "name": "G3",
                    "midi": 55,
                    "time": 51.76472400000005,
                    "velocity": 0.31496062992125984,
                    "duration": 1.1764710000000065
                },
                {
                    "name": "C4",
                    "midi": 60,
                    "time": 51.76472400000005,
                    "velocity": 0.31496062992125984,
                    "duration": 0.5882355000000032
                },
                {
                    "name": "B3",
                    "midi": 59,
                    "time": 52.352959500000054,
                    "velocity": 0.2992125984251969,
                    "duration": 0.5882355000000032
                },
                {
                    "name": "F#3",
                    "midi": 54,
                    "time": 53.52943050000006,
                    "velocity": 0.2992125984251969,
                    "duration": 0.5882355000000032
                },
                {
                    "name": "G3",
                    "midi": 55,
                    "time": 54.117666000000064,
                    "velocity": 0.33858267716535434,
                    "duration": 0.5882355000000032
                },
                {
                    "name": "B2",
                    "midi": 47,
                    "time": 54.70590150000007,
                    "velocity": 0.2992125984251969,
                    "duration": 0.5882355000000032
                },
                {
                    "name": "C3",
                    "midi": 48,
                    "time": 55.29413700000007,
                    "velocity": 0.31496062992125984,
                    "duration": 0.5882355000000032
                },
                {
                    "name": "D3",
                    "midi": 50,
                    "time": 55.88237250000007,
                    "velocity": 0.33858267716535434,
                    "duration": 0.5882355000000032
                },
                {
                    "name": "E3",
                    "midi": 52,
                    "time": 56.47060800000008,
                    "velocity": 0.3858267716535433,
                    "duration": 1.1764709999999994
                },
                {
                    "name": "F#3",
                    "midi": 54,
                    "time": 57.647079000000076,
                    "velocity": 0.36220472440944884,
                    "duration": 1.1764709999999994
                },
                {
                    "name": "G3",
                    "midi": 55,
                    "time": 58.823550000000075,
                    "velocity": 0.4094488188976378,
                    "duration": 0.5882355000000032
                },
                {
                    "name": "B2",
                    "midi": 47,
                    "time": 59.41178550000008,
                    "velocity": 0.3543307086614173,
                    "duration": 0.5882355000000032
                },
                {
                    "name": "C3",
                    "midi": 48,
                    "time": 60.00002100000008,
                    "velocity": 0.3937007874015748,
                    "duration": 0.5882355000000032
                },
                {
                    "name": "D3",
                    "midi": 50,
                    "time": 60.588256500000085,
                    "velocity": 0.3700787401574803,
                    "duration": 0.5882355000000032
                },
                {
                    "name": "G3",
                    "midi": 55,
                    "time": 61.17649200000009,
                    "velocity": 0.4409448818897638,
                    "duration": 0.29411774999999807
                },
                {
                    "name": "D3",
                    "midi": 50,
                    "time": 61.764727500000085,
                    "velocity": 0.3464566929133858,
                    "duration": 0.29411774999999807
                },
                {
                    "name": "G2",
                    "midi": 43,
                    "time": 62.35296300000008,
                    "velocity": 0.3779527559055118,
                    "duration": 0.29411774999999807
                },
                {
                    "name": "F4",
                    "midi": 65,
                    "time": 64.11766950000008,
                    "velocity": 0.4015748031496063,
                    "duration": 0.5882354999999961
                },
                {
                    "name": "D4",
                    "midi": 62,
                    "time": 64.70590500000007,
                    "velocity": 0.4409448818897638,
                    "duration": 0.5882354999999961
                },
                {
                    "name": "E4",
                    "midi": 64,
                    "time": 65.29414050000007,
                    "velocity": 0.4015748031496063,
                    "duration": 0.5882354999999961
                },
                {
                    "name": "A3",
                    "midi": 57,
                    "time": 65.88237600000006,
                    "velocity": 0.44881889763779526,
                    "duration": 0.5882354999999961
                },
                {
                    "name": "E3",
                    "midi": 52,
                    "time": 66.47061150000006,
                    "velocity": 0.3937007874015748,
                    "duration": 0.29411774999999807
                },
                {
                    "name": "A2",
                    "midi": 45,
                    "time": 67.05884700000006,
                    "velocity": 0.4015748031496063,
                    "duration": 0.29411774999999807
                },
                {
                    "name": "E4",
                    "midi": 64,
                    "time": 68.82355350000006,
                    "velocity": 0.44881889763779526,
                    "duration": 0.5882354999999961
                },
                {
                    "name": "C4",
                    "midi": 60,
                    "time": 69.41178900000006,
                    "velocity": 0.44881889763779526,
                    "duration": 0.5882354999999961
                },
                {
                    "name": "D4",
                    "midi": 62,
                    "time": 70.00002450000005,
                    "velocity": 0.4015748031496063,
                    "duration": 0.5882354999999961
                },
                {
                    "name": "G3",
                    "midi": 55,
                    "time": 70.58826000000005,
                    "velocity": 0.44881889763779526,
                    "duration": 0.5882354999999961
                },
                {
                    "name": "D3",
                    "midi": 50,
                    "time": 71.17649550000004,
                    "velocity": 0.3937007874015748,
                    "duration": 0.29411774999999807
                },
                {
                    "name": "G2",
                    "midi": 43,
                    "time": 71.76473100000004,
                    "velocity": 0.4015748031496063,
                    "duration": 0.29411774999999807
                },
                {
                    "name": "B3",
                    "midi": 59,
                    "time": 72.35296650000004,
                    "velocity": 0.2992125984251969,
                    "duration": 0.5882354999999961
                },
                {
                    "name": "G3",
                    "midi": 55,
                    "time": 72.35296650000004,
                    "velocity": 0.2992125984251969,
                    "duration": 0.5882354999999961
                },
                {
                    "name": "G3",
                    "midi": 55,
                    "time": 72.94120200000003,
                    "velocity": 0.31496062992125984,
                    "duration": 1.1764709999999923
                },
                {
                    "name": "C4",
                    "midi": 60,
                    "time": 72.94120200000003,
                    "velocity": 0.31496062992125984,
                    "duration": 0.5882354999999961
                },
                {
                    "name": "B3",
                    "midi": 59,
                    "time": 73.52943750000003,
                    "velocity": 0.2992125984251969,
                    "duration": 0.5882354999999961
                },
                {
                    "name": "G3",
                    "midi": 55,
                    "time": 74.70590850000002,
                    "velocity": 0.2992125984251969,
                    "duration": 0.5882354999999961
                },
                {
                    "name": "B3",
                    "midi": 59,
                    "time": 74.70590850000002,
                    "velocity": 0.2992125984251969,
                    "duration": 0.5882354999999961
                },
                {
                    "name": "G3",
                    "midi": 55,
                    "time": 75.29414400000002,
                    "velocity": 0.31496062992125984,
                    "duration": 1.1764709999999923
                },
                {
                    "name": "C4",
                    "midi": 60,
                    "time": 75.29414400000002,
                    "velocity": 0.31496062992125984,
                    "duration": 0.5882354999999961
                },
                {
                    "name": "B3",
                    "midi": 59,
                    "time": 75.88237950000001,
                    "velocity": 0.2992125984251969,
                    "duration": 0.5882354999999961
                },
                {
                    "name": "F#3",
                    "midi": 54,
                    "time": 77.0588505,
                    "velocity": 0.2992125984251969,
                    "duration": 0.5882354999999961
                },
                {
                    "name": "G3",
                    "midi": 55,
                    "time": 77.647086,
                    "velocity": 0.33858267716535434,
                    "duration": 0.5882354999999961
                },
                {
                    "name": "B2",
                    "midi": 47,
                    "time": 78.2353215,
                    "velocity": 0.2992125984251969,
                    "duration": 0.5882354999999961
                },
                {
                    "name": "C3",
                    "midi": 48,
                    "time": 78.823557,
                    "velocity": 0.31496062992125984,
                    "duration": 0.5882354999999961
                },
                {
                    "name": "D3",
                    "midi": 50,
                    "time": 79.41179249999999,
                    "velocity": 0.33858267716535434,
                    "duration": 0.5882354999999961
                },
                {
                    "name": "E3",
                    "midi": 52,
                    "time": 80.00002799999999,
                    "velocity": 0.3858267716535433,
                    "duration": 1.1764710000000065
                },
                {
                    "name": "F#3",
                    "midi": 54,
                    "time": 81.17649899999999,
                    "velocity": 0.36220472440944884,
                    "duration": 1.1764710000000065
                },
                {
                    "name": "G3",
                    "midi": 55,
                    "time": 82.35297,
                    "velocity": 0.4094488188976378,
                    "duration": 0.5882354999999961
                },
                {
                    "name": "B2",
                    "midi": 47,
                    "time": 82.9412055,
                    "velocity": 0.3543307086614173,
                    "duration": 0.5882354999999961
                },
                {
                    "name": "C3",
                    "midi": 48,
                    "time": 83.52944099999999,
                    "velocity": 0.3937007874015748,
                    "duration": 0.5882354999999961
                },
                {
                    "name": "D3",
                    "midi": 50,
                    "time": 84.11767649999999,
                    "velocity": 0.3700787401574803,
                    "duration": 0.5882354999999961
                },
                {
                    "name": "G3",
                    "midi": 55,
                    "time": 84.70591199999998,
                    "velocity": 0.4409448818897638,
                    "duration": 0.5882354999999961
                },
                {
                    "name": "D3",
                    "midi": 50,
                    "time": 85.29414749999998,
                    "velocity": 0.3858267716535433,
                    "duration": 0.29411774999999807
                },
                {
                    "name": "G2",
                    "midi": 43,
                    "time": 85.88238299999998,
                    "velocity": 0.3937007874015748,
                    "duration": 0.5882354999999961
                }
            ],
            "controlChanges": {},
            "id": 2,
            "name": "Piano left",
            "instrumentNumber": 0,
            "instrument": "acoustic grand piano",
            "instrumentFamily": "piano",
            "channelNumber": 0,
            "isPercussion": false
        },
        {
            "startTime": 0,
            "duration": 0,
            "length": 0,
            "notes": [],
            "controlChanges": {
                "64": [
                    {
                        "number": 64,
                        "time": 1.911765375,
                        "value": 1
                    },
                    {
                        "number": 64,
                        "time": 3.5637267375,
                        "value": 0
                    },
                    {
                        "number": 64,
                        "time": 5.034315487500001,
                        "value": 1
                    },
                    {
                        "number": 64,
                        "time": 5.89951186875,
                        "value": 0
                    },
                    {
                        "number": 64,
                        "time": 7.215688800000001,
                        "value": 1
                    },
                    {
                        "number": 64,
                        "time": 7.686277200000001,
                        "value": 0
                    },
                    {
                        "number": 64,
                        "time": 7.906865512500001,
                        "value": 1
                    },
                    {
                        "number": 64,
                        "time": 8.25735583125,
                        "value": 0
                    },
                    {
                        "number": 64,
                        "time": 8.392159800000002,
                        "value": 1
                    },
                    {
                        "number": 64,
                        "time": 8.843140350000002,
                        "value": 0
                    },
                    {
                        "number": 64,
                        "time": 9.031865906250003,
                        "value": 1
                    },
                    {
                        "number": 64,
                        "time": 9.411768000000002,
                        "value": 0
                    },
                    {
                        "number": 64,
                        "time": 9.620101406250003,
                        "value": 1
                    },
                    {
                        "number": 64,
                        "time": 10.916670487500003,
                        "value": 0
                    },
                    {
                        "number": 64,
                        "time": 11.350494168750004,
                        "value": 1
                    },
                    {
                        "number": 64,
                        "time": 12.924024131250004,
                        "value": 0
                    },
                    {
                        "number": 64,
                        "time": 13.063730062500005,
                        "value": 1
                    },
                    {
                        "number": 64,
                        "time": 14.117652000000005,
                        "value": 0
                    },
                    {
                        "number": 64,
                        "time": 14.678926706250005,
                        "value": 1
                    },
                    {
                        "number": 64,
                        "time": 15.313730850000004,
                        "value": 0
                    },
                    {
                        "number": 64,
                        "time": 15.546574068750004,
                        "value": 1
                    },
                    {
                        "number": 64,
                        "time": 16.470594000000006,
                        "value": 0
                    },
                    {
                        "number": 64,
                        "time": 16.634809743750004,
                        "value": 1
                    },
                    {
                        "number": 64,
                        "time": 17.105398143750005,
                        "value": 0
                    },
                    {
                        "number": 64,
                        "time": 17.188731506250004,
                        "value": 1
                    },
                    {
                        "number": 64,
                        "time": 17.612751262500005,
                        "value": 0
                    },
                    {
                        "number": 64,
                        "time": 17.735300325000004,
                        "value": 1
                    },
                    {
                        "number": 64,
                        "time": 18.257359331250004,
                        "value": 0
                    },
                    {
                        "number": 64,
                        "time": 18.357849562500004,
                        "value": 1
                    },
                    {
                        "number": 64,
                        "time": 18.823536000000004,
                        "value": 0
                    },
                    {
                        "number": 64,
                        "time": 20.727948431250006,
                        "value": 1
                    },
                    {
                        "number": 64,
                        "time": 22.387262737500006,
                        "value": 0
                    },
                    {
                        "number": 64,
                        "time": 23.857851487500007,
                        "value": 1
                    },
                    {
                        "number": 64,
                        "time": 24.723047868750008,
                        "value": 0
                    },
                    {
                        "number": 64,
                        "time": 26.039224800000007,
                        "value": 1
                    },
                    {
                        "number": 64,
                        "time": 26.509813200000007,
                        "value": 0
                    },
                    {
                        "number": 64,
                        "time": 26.730401512500006,
                        "value": 1
                    },
                    {
                        "number": 64,
                        "time": 27.080891831250007,
                        "value": 0
                    },
                    {
                        "number": 64,
                        "time": 27.215695800000006,
                        "value": 1
                    },
                    {
                        "number": 64,
                        "time": 27.666676350000007,
                        "value": 0
                    },
                    {
                        "number": 64,
                        "time": 27.855401906250005,
                        "value": 1
                    },
                    {
                        "number": 64,
                        "time": 28.235304000000006,
                        "value": 0
                    },
                    {
                        "number": 64,
                        "time": 28.443637406250005,
                        "value": 1
                    },
                    {
                        "number": 64,
                        "time": 29.740206487500004,
                        "value": 0
                    },
                    {
                        "number": 64,
                        "time": 30.174030168750004,
                        "value": 1
                    },
                    {
                        "number": 64,
                        "time": 31.747560131250005,
                        "value": 0
                    },
                    {
                        "number": 64,
                        "time": 31.887266062500004,
                        "value": 1
                    },
                    {
                        "number": 64,
                        "time": 32.941188000000004,
                        "value": 0
                    },
                    {
                        "number": 64,
                        "time": 33.50246270625001,
                        "value": 1
                    },
                    {
                        "number": 64,
                        "time": 34.13726685000001,
                        "value": 0
                    },
                    {
                        "number": 64,
                        "time": 34.37011006875001,
                        "value": 1
                    },
                    {
                        "number": 64,
                        "time": 35.29413000000001,
                        "value": 0
                    },
                    {
                        "number": 64,
                        "time": 35.45834574375001,
                        "value": 1
                    },
                    {
                        "number": 64,
                        "time": 35.928934143750006,
                        "value": 0
                    },
                    {
                        "number": 64,
                        "time": 36.012267506250005,
                        "value": 1
                    },
                    {
                        "number": 64,
                        "time": 36.4362872625,
                        "value": 0
                    },
                    {
                        "number": 64,
                        "time": 36.558836325,
                        "value": 1
                    },
                    {
                        "number": 64,
                        "time": 37.08089533125,
                        "value": 0
                    },
                    {
                        "number": 64,
                        "time": 37.1813855625,
                        "value": 1
                    },
                    {
                        "number": 64,
                        "time": 37.647071999999994,
                        "value": 0
                    },
                    {
                        "number": 64,
                        "time": 39.585798168749996,
                        "value": 1
                    },
                    {
                        "number": 64,
                        "time": 41.20344579374999,
                        "value": 0
                    },
                    {
                        "number": 64,
                        "time": 42.37011286874999,
                        "value": 1
                    },
                    {
                        "number": 64,
                        "time": 42.965701312499995,
                        "value": 0
                    },
                    {
                        "number": 64,
                        "time": 44.29168216874999,
                        "value": 1
                    },
                    {
                        "number": 64,
                        "time": 45.90932979374999,
                        "value": 0
                    },
                    {
                        "number": 64,
                        "time": 47.07599686874999,
                        "value": 1
                    },
                    {
                        "number": 64,
                        "time": 47.67158531249999,
                        "value": 0
                    },
                    {
                        "number": 64,
                        "time": 48.94609556249999,
                        "value": 1
                    },
                    {
                        "number": 64,
                        "time": 49.41178199999999,
                        "value": 0
                    },
                    {
                        "number": 64,
                        "time": 49.51962517499999,
                        "value": 1
                    },
                    {
                        "number": 64,
                        "time": 50.036782218749984,
                        "value": 0
                    },
                    {
                        "number": 64,
                        "time": 50.14707637499998,
                        "value": 1
                    },
                    {
                        "number": 64,
                        "time": 50.63482164374998,
                        "value": 0
                    },
                    {
                        "number": 64,
                        "time": 51.76472399999998,
                        "value": 0
                    },
                    {
                        "number": 64,
                        "time": 51.87256717499998,
                        "value": 1
                    },
                    {
                        "number": 64,
                        "time": 52.389724218749976,
                        "value": 0
                    },
                    {
                        "number": 64,
                        "time": 52.500018374999975,
                        "value": 1
                    },
                    {
                        "number": 64,
                        "time": 52.99511658749997,
                        "value": 0
                    },
                    {
                        "number": 64,
                        "time": 56.59315706249997,
                        "value": 1
                    },
                    {
                        "number": 64,
                        "time": 57.35296124999997,
                        "value": 0
                    },
                    {
                        "number": 64,
                        "time": 63.11521816874997,
                        "value": 1
                    },
                    {
                        "number": 64,
                        "time": 64.73286579374997,
                        "value": 0
                    },
                    {
                        "number": 64,
                        "time": 65.89953286874997,
                        "value": 1
                    },
                    {
                        "number": 64,
                        "time": 66.49512131249998,
                        "value": 0
                    },
                    {
                        "number": 64,
                        "time": 67.82110216874997,
                        "value": 1
                    },
                    {
                        "number": 64,
                        "time": 69.43874979374998,
                        "value": 0
                    },
                    {
                        "number": 64,
                        "time": 70.60541686874998,
                        "value": 1
                    },
                    {
                        "number": 64,
                        "time": 71.20100531249999,
                        "value": 0
                    },
                    {
                        "number": 64,
                        "time": 72.4755155625,
                        "value": 1
                    },
                    {
                        "number": 64,
                        "time": 72.94120199999999,
                        "value": 0
                    },
                    {
                        "number": 64,
                        "time": 73.04904517499999,
                        "value": 1
                    },
                    {
                        "number": 64,
                        "time": 73.56620221874999,
                        "value": 0
                    },
                    {
                        "number": 64,
                        "time": 73.676496375,
                        "value": 1
                    },
                    {
                        "number": 64,
                        "time": 74.16424164375,
                        "value": 0
                    },
                    {
                        "number": 64,
                        "time": 75.294144,
                        "value": 0
                    },
                    {
                        "number": 64,
                        "time": 75.401987175,
                        "value": 1
                    },
                    {
                        "number": 64,
                        "time": 75.91914421875,
                        "value": 0
                    },
                    {
                        "number": 64,
                        "time": 76.02943837500001,
                        "value": 1
                    },
                    {
                        "number": 64,
                        "time": 76.52453658750001,
                        "value": 0
                    },
                    {
                        "number": 64,
                        "time": 80.12257706250001,
                        "value": 1
                    },
                    {
                        "number": 64,
                        "time": 80.88238125000001,
                        "value": 0
                    }
                ]
            },
            "id": 3,
            "name": "Pedale",
            "instrumentNumber": 0,
            "instrument": "acoustic grand piano",
            "instrumentFamily": "piano",
            "channelNumber": 0,
            "isPercussion": false
        },
        {
            "startTime": 0,
            "duration": 0,
            "length": 0,
            "notes": [],
            "controlChanges": {},
            "id": 4,
            "name": "Haydn: Sonata Hoboken XVI:8 3. movement"
        },
        {
            "startTime": 0,
            "duration": 0,
            "length": 0,
            "notes": [],
            "controlChanges": {},
            "id": 5,
            "name": "Copyright  2009 by Bernd Krueger"
        },
        {
            "startTime": 0,
            "duration": 0,
            "length": 0,
            "notes": [],
            "controlChanges": {},
            "id": 6,
            "name": "http://www.piano-midi.de/"
        },
        {
            "startTime": 0,
            "duration": 0,
            "length": 0,
            "notes": [],
            "controlChanges": {},
            "id": 7,
            "name": "Edition: 2011-11-15"
        },
        {
            "startTime": 0,
            "duration": 0,
            "length": 0,
            "notes": [],
            "controlChanges": {},
            "id": 8,
            "name": "Spur 8"
        },
        {
            "startTime": 0,
            "duration": 0,
            "length": 0,
            "notes": [],
            "controlChanges": {},
            "id": 9,
            "name": "Spur 9"
        },
        {
            "startTime": 0,
            "duration": 0,
            "length": 0,
            "notes": [],
            "controlChanges": {},
            "id": 10,
            "name": "Spur 10"
        },
        {
            "startTime": 0,
            "duration": 0,
            "length": 0,
            "notes": [],
            "controlChanges": {},
            "id": 11,
            "name": "Spur 11"
        },
        {
            "startTime": 0,
            "duration": 0,
            "length": 0,
            "notes": [],
            "controlChanges": {},
            "id": 12,
            "name": "Spur 12"
        },
        {
            "startTime": 0,
            "duration": 0,
            "length": 0,
            "notes": [],
            "controlChanges": {},
            "id": 13,
            "name": "Spur 13"
        },
        {
            "startTime": 0,
            "duration": 0,
            "length": 0,
            "notes": [],
            "controlChanges": {},
            "id": 14,
            "name": "Spur 14"
        },
        {
            "startTime": 0,
            "duration": 0,
            "length": 0,
            "notes": [],
            "controlChanges": {},
            "id": 15,
            "name": "Spur 15"
        },
        {
            "startTime": 0,
            "duration": 0,
            "length": 0,
            "notes": [],
            "controlChanges": {},
            "id": 16,
            "name": "Spur 16"
        }
    ]
}