{
    "header": {
        "PPQ": 480,
        "timeSignature": [
            4,
            4
        ],
        "bpm": 140.7000766815418,
        "name": "Divertimento"
    },
    "startTime": 0,
    "duration": 142.43062600000005,
    "tracks": [
        {
            "startTime": 0,
            "duration": 0,
            "length": 0,
            "notes": [],
            "controlChanges": {},
            "id": 0,
            "name": "Divertimento"
        },
        {
            "startTime": 0,
            "duration": 142.43062599999962,
            "length": 716,
            "notes": [
                {
                    "name": "F5",
                    "midi": 77,
                    "time": 0,
                    "velocity": 0.5196850393700787,
                    "duration": 0.852878
                },
                {
                    "name": "C5",
                    "midi": 72,
                    "time": 0,
                    "velocity": 0.4330708661417323,
                    "duration": 0.852878
                },
                {
                    "name": "A4",
                    "midi": 69,
                    "time": 0,
                    "velocity": 0.4330708661417323,
                    "duration": 0.852878
                },
                {
                    "name": "F4",
                    "midi": 65,
                    "time": 0,
                    "velocity": 0.4330708661417323,
                    "duration": 0.852878
                },
                {
                    "name": "A4",
                    "midi": 69,
                    "time": 0.852878,
                    "velocity": 0.3937007874015748,
                    "duration": 0.31982924999999995
                },
                {
                    "name": "C5",
                    "midi": 72,
                    "time": 1.17270725,
                    "velocity": 0.3543307086614173,
                    "duration": 0.10660975000000006
                },
                {
                    "name": "A#4",
                    "midi": 70,
                    "time": 1.279317,
                    "velocity": 0.3937007874015748,
                    "duration": 0.31982924999999995
                },
                {
                    "name": "D5",
                    "midi": 74,
                    "time": 1.59914625,
                    "velocity": 0.3543307086614173,
                    "duration": 0.10660975000000006
                },
                {
                    "name": "C5",
                    "midi": 72,
                    "time": 1.705756,
                    "velocity": 0.3937007874015748,
                    "duration": 0.42643900000000023
                },
                {
                    "name": "F4",
                    "midi": 65,
                    "time": 2.1321950000000003,
                    "velocity": 0.36220472440944884,
                    "duration": 0.21321950000000012
                },
                {
                    "name": "F4",
                    "midi": 65,
                    "time": 2.5586340000000005,
                    "velocity": 0.36220472440944884,
                    "duration": 0.21321950000000012
                },
                {
                    "name": "F4",
                    "midi": 65,
                    "time": 2.9850730000000008,
                    "velocity": 0.36220472440944884,
                    "duration": 0.21321950000000012
                },
                {
                    "name": "G4",
                    "midi": 67,
                    "time": 3.411512000000001,
                    "velocity": 0.3543307086614173,
                    "duration": 0.07107316666666685
                },
                {
                    "name": "A4",
                    "midi": 69,
                    "time": 3.482585166666668,
                    "velocity": 0.3228346456692913,
                    "duration": 0.07107316666666685
                },
                {
                    "name": "G4",
                    "midi": 67,
                    "time": 3.5536583333333347,
                    "velocity": 0.3543307086614173,
                    "duration": 0.07107316666666685
                },
                {
                    "name": "A4",
                    "midi": 69,
                    "time": 3.6247315000000015,
                    "velocity": 0.30708661417322836,
                    "duration": 0.05330487499999981
                },
                {
                    "name": "G4",
                    "midi": 67,
                    "time": 3.6780363750000014,
                    "velocity": 0.3543307086614173,
                    "duration": 0.05330487499999981
                },
                {
                    "name": "A4",
                    "midi": 69,
                    "time": 3.731341250000001,
                    "velocity": 0.31496062992125984,
                    "duration": 0.05330487499999981
                },
                {
                    "name": "G4",
                    "midi": 67,
                    "time": 3.784646125000001,
                    "velocity": 0.31496062992125984,
                    "duration": 0.05330487499999981
                },
                {
                    "name": "F4",
                    "midi": 65,
                    "time": 3.837951000000001,
                    "velocity": 0.3937007874015748,
                    "duration": 0.4264389999999998
                },
                {
                    "name": "C5",
                    "midi": 72,
                    "time": 4.264390000000001,
                    "velocity": 0.41732283464566927,
                    "duration": 0.21321950000000012
                },
                {
                    "name": "A4",
                    "midi": 69,
                    "time": 4.477609500000001,
                    "velocity": 0.36220472440944884,
                    "duration": 0.21321950000000012
                },
                {
                    "name": "G4",
                    "midi": 67,
                    "time": 4.690829000000001,
                    "velocity": 0.3937007874015748,
                    "duration": 0.21321950000000012
                },
                {
                    "name": "F4",
                    "midi": 65,
                    "time": 4.904048500000001,
                    "velocity": 0.3700787401574803,
                    "duration": 0.21321950000000012
                },
                {
                    "name": "G4",
                    "midi": 67,
                    "time": 5.117268000000001,
                    "velocity": 0.3543307086614173,
                    "duration": 0.07107316666666641
                },
                {
                    "name": "A4",
                    "midi": 69,
                    "time": 5.1883411666666674,
                    "velocity": 0.3228346456692913,
                    "duration": 0.07107316666666641
                },
                {
                    "name": "G4",
                    "midi": 67,
                    "time": 5.259414333333334,
                    "velocity": 0.3543307086614173,
                    "duration": 0.07107316666666641
                },
                {
                    "name": "A4",
                    "midi": 69,
                    "time": 5.3304875,
                    "velocity": 0.30708661417322836,
                    "duration": 0.05330487500000025
                },
                {
                    "name": "G4",
                    "midi": 67,
                    "time": 5.3837923750000005,
                    "velocity": 0.3543307086614173,
                    "duration": 0.05330487500000025
                },
                {
                    "name": "A4",
                    "midi": 69,
                    "time": 5.437097250000001,
                    "velocity": 0.31496062992125984,
                    "duration": 0.05330487500000025
                },
                {
                    "name": "G4",
                    "midi": 67,
                    "time": 5.490402125000001,
                    "velocity": 0.31496062992125984,
                    "duration": 0.05330487500000025
                },
                {
                    "name": "F4",
                    "midi": 65,
                    "time": 5.543707000000001,
                    "velocity": 0.3937007874015748,
                    "duration": 0.42643900000000023
                },
                {
                    "name": "C5",
                    "midi": 72,
                    "time": 6.396585000000002,
                    "velocity": 0.3937007874015748,
                    "duration": 0.42643900000000023
                },
                {
                    "name": "D5",
                    "midi": 74,
                    "time": 6.823024000000002,
                    "velocity": 0.3937007874015748,
                    "duration": 0.31982924999999973
                },
                {
                    "name": "F5",
                    "midi": 77,
                    "time": 7.142853250000002,
                    "velocity": 0.36220472440944884,
                    "duration": 0.10660974999999961
                },
                {
                    "name": "E5",
                    "midi": 76,
                    "time": 7.249463000000001,
                    "velocity": 0.3937007874015748,
                    "duration": 0.31982924999999973
                },
                {
                    "name": "D5",
                    "midi": 74,
                    "time": 7.569292250000001,
                    "velocity": 0.3543307086614173,
                    "duration": 0.10660974999999961
                },
                {
                    "name": "C5",
                    "midi": 72,
                    "time": 7.675902000000001,
                    "velocity": 0.3937007874015748,
                    "duration": 0.42643900000000023
                },
                {
                    "name": "F5",
                    "midi": 77,
                    "time": 8.102341000000001,
                    "velocity": 0.36220472440944884,
                    "duration": 0.42643900000000023
                },
                {
                    "name": "A#4",
                    "midi": 70,
                    "time": 8.528780000000001,
                    "velocity": 0.3937007874015748,
                    "duration": 0.07107316666666641
                },
                {
                    "name": "C5",
                    "midi": 72,
                    "time": 8.599853166666668,
                    "velocity": 0.3543307086614173,
                    "duration": 0.07107316666666641
                },
                {
                    "name": "A#4",
                    "midi": 70,
                    "time": 8.670926333333334,
                    "velocity": 0.3937007874015748,
                    "duration": 0.07107316666666641
                },
                {
                    "name": "C5",
                    "midi": 72,
                    "time": 8.7419995,
                    "velocity": 0.3543307086614173,
                    "duration": 0.07107316666666641
                },
                {
                    "name": "A#4",
                    "midi": 70,
                    "time": 8.813072666666667,
                    "velocity": 0.3937007874015748,
                    "duration": 0.07107316666666641
                },
                {
                    "name": "C5",
                    "midi": 72,
                    "time": 8.884145833333333,
                    "velocity": 0.3543307086614173,
                    "duration": 0.07107316666666641
                },
                {
                    "name": "A#4",
                    "midi": 70,
                    "time": 8.955219,
                    "velocity": 0.3937007874015748,
                    "duration": 0.07107316666666641
                },
                {
                    "name": "C5",
                    "midi": 72,
                    "time": 9.026292166666666,
                    "velocity": 0.3543307086614173,
                    "duration": 0.07107316666666641
                },
                {
                    "name": "A#4",
                    "midi": 70,
                    "time": 9.097365333333332,
                    "velocity": 0.3937007874015748,
                    "duration": 0.07107316666666641
                },
                {
                    "name": "C5",
                    "midi": 72,
                    "time": 9.168438499999999,
                    "velocity": 0.3543307086614173,
                    "duration": 0.05330487500000025
                },
                {
                    "name": "A#4",
                    "midi": 70,
                    "time": 9.221743374999999,
                    "velocity": 0.3937007874015748,
                    "duration": 0.05330487500000025
                },
                {
                    "name": "C5",
                    "midi": 72,
                    "time": 9.27504825,
                    "velocity": 0.33858267716535434,
                    "duration": 0.05330487500000025
                },
                {
                    "name": "A#4",
                    "midi": 70,
                    "time": 9.328353125,
                    "velocity": 0.3543307086614173,
                    "duration": 0.05330487500000025
                },
                {
                    "name": "A4",
                    "midi": 69,
                    "time": 9.381658,
                    "velocity": 0.3937007874015748,
                    "duration": 0.42643900000000023
                },
                {
                    "name": "C5",
                    "midi": 72,
                    "time": 9.808097,
                    "velocity": 0.36220472440944884,
                    "duration": 0.42643900000000023
                },
                {
                    "name": "D5",
                    "midi": 74,
                    "time": 10.234536,
                    "velocity": 0.3937007874015748,
                    "duration": 0.31982924999999973
                },
                {
                    "name": "F5",
                    "midi": 77,
                    "time": 10.55436525,
                    "velocity": 0.36220472440944884,
                    "duration": 0.1066097500000005
                },
                {
                    "name": "E5",
                    "midi": 76,
                    "time": 10.660975,
                    "velocity": 0.3937007874015748,
                    "duration": 0.31982924999999973
                },
                {
                    "name": "D5",
                    "midi": 74,
                    "time": 10.98080425,
                    "velocity": 0.3543307086614173,
                    "duration": 0.1066097500000005
                },
                {
                    "name": "C5",
                    "midi": 72,
                    "time": 11.087414,
                    "velocity": 0.3937007874015748,
                    "duration": 0.42643900000000023
                },
                {
                    "name": "A5",
                    "midi": 81,
                    "time": 11.513853000000001,
                    "velocity": 0.3937007874015748,
                    "duration": 0.42643900000000023
                },
                {
                    "name": "G5",
                    "midi": 79,
                    "time": 11.940292000000001,
                    "velocity": 0.36220472440944884,
                    "duration": 0.42643900000000023
                },
                {
                    "name": "C5",
                    "midi": 72,
                    "time": 12.366731000000001,
                    "velocity": 0.3779527559055118,
                    "duration": 0.05330487500000025
                },
                {
                    "name": "D5",
                    "midi": 74,
                    "time": 12.420035875000002,
                    "velocity": 0.3937007874015748,
                    "duration": 0.05330487500000025
                },
                {
                    "name": "E5",
                    "midi": 76,
                    "time": 12.473340750000002,
                    "velocity": 0.3937007874015748,
                    "duration": 0.31094510416666665
                },
                {
                    "name": "E5",
                    "midi": 76,
                    "time": 12.793170000000002,
                    "velocity": 0.3858267716535433,
                    "duration": 0.05330487500000025
                },
                {
                    "name": "F5",
                    "midi": 77,
                    "time": 12.846474875000002,
                    "velocity": 0.4094488188976378,
                    "duration": 0.05330487500000025
                },
                {
                    "name": "G5",
                    "midi": 79,
                    "time": 12.899779750000002,
                    "velocity": 0.4251968503937008,
                    "duration": 0.31982924999999973
                },
                {
                    "name": "F5",
                    "midi": 77,
                    "time": 13.219609000000002,
                    "velocity": 0.4094488188976378,
                    "duration": 0.05330487500000025
                },
                {
                    "name": "G5",
                    "midi": 79,
                    "time": 13.272913875000002,
                    "velocity": 0.41732283464566927,
                    "duration": 0.05330487500000025
                },
                {
                    "name": "A5",
                    "midi": 81,
                    "time": 13.326218750000002,
                    "velocity": 0.4330708661417323,
                    "duration": 0.31982924999999973
                },
                {
                    "name": "G5",
                    "midi": 79,
                    "time": 13.646048000000002,
                    "velocity": 0.36220472440944884,
                    "duration": 0.42643900000000023
                },
                {
                    "name": "C5",
                    "midi": 72,
                    "time": 14.072487000000002,
                    "velocity": 0.3779527559055118,
                    "duration": 0.05330487500000025
                },
                {
                    "name": "D5",
                    "midi": 74,
                    "time": 14.125791875000003,
                    "velocity": 0.3937007874015748,
                    "duration": 0.05330487500000025
                },
                {
                    "name": "E5",
                    "midi": 76,
                    "time": 14.179096750000003,
                    "velocity": 0.3937007874015748,
                    "duration": 0.31094510416666665
                },
                {
                    "name": "E5",
                    "midi": 76,
                    "time": 14.498926000000003,
                    "velocity": 0.3858267716535433,
                    "duration": 0.05330487500000025
                },
                {
                    "name": "F5",
                    "midi": 77,
                    "time": 14.552230875000003,
                    "velocity": 0.4094488188976378,
                    "duration": 0.05330487500000025
                },
                {
                    "name": "G5",
                    "midi": 79,
                    "time": 14.605535750000003,
                    "velocity": 0.4251968503937008,
                    "duration": 0.31982924999999973
                },
                {
                    "name": "C6",
                    "midi": 84,
                    "time": 14.925365000000003,
                    "velocity": 0.4094488188976378,
                    "duration": 0.05330487500000025
                },
                {
                    "name": "B5",
                    "midi": 83,
                    "time": 14.978669875000003,
                    "velocity": 0.41732283464566927,
                    "duration": 0.05330487500000025
                },
                {
                    "name": "A5",
                    "midi": 81,
                    "time": 15.031974750000003,
                    "velocity": 0.4330708661417323,
                    "duration": 0.31982924999999973
                },
                {
                    "name": "G5",
                    "midi": 79,
                    "time": 15.351804000000003,
                    "velocity": 0.4330708661417323,
                    "duration": 0.42643900000000023
                },
                {
                    "name": "F5",
                    "midi": 77,
                    "time": 15.778243000000003,
                    "velocity": 0.4409448818897638,
                    "duration": 0.1066097500000005
                },
                {
                    "name": "E5",
                    "midi": 76,
                    "time": 15.884852750000004,
                    "velocity": 0.3779527559055118,
                    "duration": 0.1066097500000005
                },
                {
                    "name": "D5",
                    "midi": 74,
                    "time": 15.991462500000004,
                    "velocity": 0.4330708661417323,
                    "duration": 0.1066097500000005
                },
                {
                    "name": "C5",
                    "midi": 72,
                    "time": 16.098072250000005,
                    "velocity": 0.4015748031496063,
                    "duration": 0.1066097500000005
                },
                {
                    "name": "D5",
                    "midi": 74,
                    "time": 16.204682000000005,
                    "velocity": 0.3937007874015748,
                    "duration": 0.07107316666666819
                },
                {
                    "name": "E5",
                    "midi": 76,
                    "time": 16.275755166666674,
                    "velocity": 0.3543307086614173,
                    "duration": 0.07107316666666819
                },
                {
                    "name": "D5",
                    "midi": 74,
                    "time": 16.34682833333334,
                    "velocity": 0.3937007874015748,
                    "duration": 0.07107316666666819
                },
                {
                    "name": "E5",
                    "midi": 76,
                    "time": 16.41790150000001,
                    "velocity": 0.3543307086614173,
                    "duration": 0.07107316666666819
                },
                {
                    "name": "D5",
                    "midi": 74,
                    "time": 16.488974666666678,
                    "velocity": 0.3937007874015748,
                    "duration": 0.07107316666666819
                },
                {
                    "name": "E5",
                    "midi": 76,
                    "time": 16.560047833333346,
                    "velocity": 0.3543307086614173,
                    "duration": 0.07107316666666819
                },
                {
                    "name": "D5",
                    "midi": 74,
                    "time": 16.631121000000014,
                    "velocity": 0.3937007874015748,
                    "duration": 0.07107316666666819
                },
                {
                    "name": "E5",
                    "midi": 76,
                    "time": 16.702194166666683,
                    "velocity": 0.3543307086614173,
                    "duration": 0.07107316666666819
                },
                {
                    "name": "D5",
                    "midi": 74,
                    "time": 16.77326733333335,
                    "velocity": 0.3937007874015748,
                    "duration": 0.07107316666666819
                },
                {
                    "name": "E5",
                    "midi": 76,
                    "time": 16.84434050000002,
                    "velocity": 0.3543307086614173,
                    "duration": 0.053304874999998475
                },
                {
                    "name": "D5",
                    "midi": 74,
                    "time": 16.897645375000018,
                    "velocity": 0.3937007874015748,
                    "duration": 0.053304874999998475
                },
                {
                    "name": "E5",
                    "midi": 76,
                    "time": 16.950950250000016,
                    "velocity": 0.33858267716535434,
                    "duration": 0.053304874999998475
                },
                {
                    "name": "D5",
                    "midi": 74,
                    "time": 17.004255125000014,
                    "velocity": 0.3543307086614173,
                    "duration": 0.053304874999998475
                },
                {
                    "name": "C5",
                    "midi": 72,
                    "time": 17.057560000000013,
                    "velocity": 0.4645669291338583,
                    "duration": 0.8528780000000005
                },
                {
                    "name": "G5",
                    "midi": 79,
                    "time": 18.123657500000014,
                    "velocity": 0.4409448818897638,
                    "duration": 0.213219500000001
                },
                {
                    "name": "G4",
                    "midi": 67,
                    "time": 18.336877000000015,
                    "velocity": 0.3937007874015748,
                    "duration": 0.213219500000001
                },
                {
                    "name": "G5",
                    "midi": 79,
                    "time": 18.550096500000016,
                    "velocity": 0.4409448818897638,
                    "duration": 0.213219500000001
                },
                {
                    "name": "A4",
                    "midi": 69,
                    "time": 18.763316000000017,
                    "velocity": 0.4645669291338583,
                    "duration": 0.213219500000001
                },
                {
                    "name": "G5",
                    "midi": 79,
                    "time": 18.97653550000002,
                    "velocity": 0.41732283464566927,
                    "duration": 0.213219500000001
                },
                {
                    "name": "F5",
                    "midi": 77,
                    "time": 19.18975500000002,
                    "velocity": 0.4015748031496063,
                    "duration": 0.213219500000001
                },
                {
                    "name": "E5",
                    "midi": 76,
                    "time": 19.40297450000002,
                    "velocity": 0.4251968503937008,
                    "duration": 0.213219500000001
                },
                {
                    "name": "F5",
                    "midi": 77,
                    "time": 19.61619400000002,
                    "velocity": 0.4645669291338583,
                    "duration": 0.213219500000001
                },
                {
                    "name": "D5",
                    "midi": 74,
                    "time": 19.829413500000022,
                    "velocity": 0.4251968503937008,
                    "duration": 0.213219500000001
                },
                {
                    "name": "C5",
                    "midi": 72,
                    "time": 20.042633000000023,
                    "velocity": 0.4251968503937008,
                    "duration": 0.213219500000001
                },
                {
                    "name": "B4",
                    "midi": 71,
                    "time": 20.255852500000024,
                    "velocity": 0.36220472440944884,
                    "duration": 0.213219500000001
                },
                {
                    "name": "C5",
                    "midi": 72,
                    "time": 20.469072000000025,
                    "velocity": 0.4251968503937008,
                    "duration": 0.213219500000001
                },
                {
                    "name": "B4",
                    "midi": 71,
                    "time": 20.682291500000026,
                    "velocity": 0.36220472440944884,
                    "duration": 0.213219500000001
                },
                {
                    "name": "C5",
                    "midi": 72,
                    "time": 20.895511000000027,
                    "velocity": 0.4330708661417323,
                    "duration": 0.213219500000001
                },
                {
                    "name": "E5",
                    "midi": 76,
                    "time": 21.10873050000003,
                    "velocity": 0.3858267716535433,
                    "duration": 0.213219500000001
                },
                {
                    "name": "C5",
                    "midi": 72,
                    "time": 21.32195000000003,
                    "velocity": 0.4015748031496063,
                    "duration": 0.213219500000001
                },
                {
                    "name": "G5",
                    "midi": 79,
                    "time": 21.53516950000003,
                    "velocity": 0.4645669291338583,
                    "duration": 0.213219500000001
                },
                {
                    "name": "G4",
                    "midi": 67,
                    "time": 21.74838900000003,
                    "velocity": 0.4251968503937008,
                    "duration": 0.213219500000001
                },
                {
                    "name": "G5",
                    "midi": 79,
                    "time": 21.961608500000033,
                    "velocity": 0.4251968503937008,
                    "duration": 0.213219500000001
                },
                {
                    "name": "A4",
                    "midi": 69,
                    "time": 22.174828000000034,
                    "velocity": 0.4409448818897638,
                    "duration": 0.213219500000001
                },
                {
                    "name": "G5",
                    "midi": 79,
                    "time": 22.388047500000035,
                    "velocity": 0.41732283464566927,
                    "duration": 0.213219500000001
                },
                {
                    "name": "F5",
                    "midi": 77,
                    "time": 22.601267000000036,
                    "velocity": 0.4645669291338583,
                    "duration": 0.213219500000001
                },
                {
                    "name": "E5",
                    "midi": 76,
                    "time": 22.814486500000037,
                    "velocity": 0.41732283464566927,
                    "duration": 0.213219500000001
                },
                {
                    "name": "F5",
                    "midi": 77,
                    "time": 23.027706000000038,
                    "velocity": 0.44881889763779526,
                    "duration": 0.213219500000001
                },
                {
                    "name": "D5",
                    "midi": 74,
                    "time": 23.24092550000004,
                    "velocity": 0.4251968503937008,
                    "duration": 0.213219500000001
                },
                {
                    "name": "C5",
                    "midi": 72,
                    "time": 23.45414500000004,
                    "velocity": 0.4251968503937008,
                    "duration": 0.07107316666666819
                },
                {
                    "name": "D5",
                    "midi": 74,
                    "time": 23.525218166666708,
                    "velocity": 0.3779527559055118,
                    "duration": 0.07107316666666819
                },
                {
                    "name": "C5",
                    "midi": 72,
                    "time": 23.596291333333376,
                    "velocity": 0.3779527559055118,
                    "duration": 0.07107316666666819
                },
                {
                    "name": "B4",
                    "midi": 71,
                    "time": 23.667364500000044,
                    "velocity": 0.44881889763779526,
                    "duration": 0.213219500000001
                },
                {
                    "name": "C5",
                    "midi": 72,
                    "time": 23.880584000000045,
                    "velocity": 0.49606299212598426,
                    "duration": 0.8528780000000005
                },
                {
                    "name": "F5",
                    "midi": 77,
                    "time": 25.586340000000046,
                    "velocity": 0.5196850393700787,
                    "duration": 0.8528780000000005
                },
                {
                    "name": "C5",
                    "midi": 72,
                    "time": 25.586340000000046,
                    "velocity": 0.4330708661417323,
                    "duration": 0.8528780000000005
                },
                {
                    "name": "A4",
                    "midi": 69,
                    "time": 25.586340000000046,
                    "velocity": 0.4330708661417323,
                    "duration": 0.8528780000000005
                },
                {
                    "name": "F4",
                    "midi": 65,
                    "time": 25.586340000000046,
                    "velocity": 0.4330708661417323,
                    "duration": 0.8528780000000005
                },
                {
                    "name": "A4",
                    "midi": 69,
                    "time": 26.439218000000047,
                    "velocity": 0.3937007874015748,
                    "duration": 0.3198292500000015
                },
                {
                    "name": "C5",
                    "midi": 72,
                    "time": 26.759047250000048,
                    "velocity": 0.3543307086614173,
                    "duration": 0.1066097500000005
                },
                {
                    "name": "A#4",
                    "midi": 70,
                    "time": 26.86565700000005,
                    "velocity": 0.3937007874015748,
                    "duration": 0.3198292500000015
                },
                {
                    "name": "D5",
                    "midi": 74,
                    "time": 27.18548625000005,
                    "velocity": 0.3543307086614173,
                    "duration": 0.1066097500000005
                },
                {
                    "name": "C5",
                    "midi": 72,
                    "time": 27.29209600000005,
                    "velocity": 0.3937007874015748,
                    "duration": 0.42643899999999846
                },
                {
                    "name": "F4",
                    "midi": 65,
                    "time": 27.71853500000005,
                    "velocity": 0.36220472440944884,
                    "duration": 0.213219500000001
                },
                {
                    "name": "F4",
                    "midi": 65,
                    "time": 28.14497400000005,
                    "velocity": 0.36220472440944884,
                    "duration": 0.213219500000001
                },
                {
                    "name": "F4",
                    "midi": 65,
                    "time": 28.571413000000053,
                    "velocity": 0.36220472440944884,
                    "duration": 0.213219500000001
                },
                {
                    "name": "G4",
                    "midi": 67,
                    "time": 28.997852000000055,
                    "velocity": 0.3543307086614173,
                    "duration": 0.07107316666666819
                },
                {
                    "name": "A4",
                    "midi": 69,
                    "time": 29.068925166666723,
                    "velocity": 0.3228346456692913,
                    "duration": 0.07107316666666819
                },
                {
                    "name": "G4",
                    "midi": 67,
                    "time": 29.13999833333339,
                    "velocity": 0.3543307086614173,
                    "duration": 0.07107316666666819
                },
                {
                    "name": "A4",
                    "midi": 69,
                    "time": 29.21107150000006,
                    "velocity": 0.30708661417322836,
                    "duration": 0.053304874999998475
                },
                {
                    "name": "G4",
                    "midi": 67,
                    "time": 29.264376375000058,
                    "velocity": 0.3543307086614173,
                    "duration": 0.053304874999998475
                },
                {
                    "name": "A4",
                    "midi": 69,
                    "time": 29.317681250000057,
                    "velocity": 0.31496062992125984,
                    "duration": 0.053304874999998475
                },
                {
                    "name": "G4",
                    "midi": 67,
                    "time": 29.370986125000055,
                    "velocity": 0.31496062992125984,
                    "duration": 0.053304874999998475
                },
                {
                    "name": "F4",
                    "midi": 65,
                    "time": 29.424291000000053,
                    "velocity": 0.3937007874015748,
                    "duration": 0.42643899999999846
                },
                {
                    "name": "C5",
                    "midi": 72,
                    "time": 29.850730000000052,
                    "velocity": 0.41732283464566927,
                    "duration": 0.213219500000001
                },
                {
                    "name": "A4",
                    "midi": 69,
                    "time": 30.063949500000053,
                    "velocity": 0.36220472440944884,
                    "duration": 0.213219500000001
                },
                {
                    "name": "G4",
                    "midi": 67,
                    "time": 30.277169000000054,
                    "velocity": 0.3937007874015748,
                    "duration": 0.213219500000001
                },
                {
                    "name": "F4",
                    "midi": 65,
                    "time": 30.490388500000055,
                    "velocity": 0.3700787401574803,
                    "duration": 0.213219500000001
                },
                {
                    "name": "G4",
                    "midi": 67,
                    "time": 30.703608000000056,
                    "velocity": 0.3543307086614173,
                    "duration": 0.07107316666666819
                },
                {
                    "name": "A4",
                    "midi": 69,
                    "time": 30.774681166666724,
                    "velocity": 0.3228346456692913,
                    "duration": 0.07107316666666819
                },
                {
                    "name": "G4",
                    "midi": 67,
                    "time": 30.845754333333392,
                    "velocity": 0.3543307086614173,
                    "duration": 0.07107316666666819
                },
                {
                    "name": "A4",
                    "midi": 69,
                    "time": 30.91682750000006,
                    "velocity": 0.30708661417322836,
                    "duration": 0.053304874999998475
                },
                {
                    "name": "G4",
                    "midi": 67,
                    "time": 30.97013237500006,
                    "velocity": 0.3543307086614173,
                    "duration": 0.053304874999998475
                },
                {
                    "name": "A4",
                    "midi": 69,
                    "time": 31.023437250000057,
                    "velocity": 0.31496062992125984,
                    "duration": 0.053304874999998475
                },
                {
                    "name": "G4",
                    "midi": 67,
                    "time": 31.076742125000056,
                    "velocity": 0.31496062992125984,
                    "duration": 0.053304874999998475
                },
                {
                    "name": "F4",
                    "midi": 65,
                    "time": 31.130047000000054,
                    "velocity": 0.3937007874015748,
                    "duration": 0.42643899999999846
                },
                {
                    "name": "C5",
                    "midi": 72,
                    "time": 31.98292500000005,
                    "velocity": 0.3937007874015748,
                    "duration": 0.426439000000002
                },
                {
                    "name": "D5",
                    "midi": 74,
                    "time": 32.40936400000005,
                    "velocity": 0.3937007874015748,
                    "duration": 0.31982924999999796
                },
                {
                    "name": "F5",
                    "midi": 77,
                    "time": 32.72919325000005,
                    "velocity": 0.36220472440944884,
                    "duration": 0.10660974999999695
                },
                {
                    "name": "E5",
                    "midi": 76,
                    "time": 32.83580300000005,
                    "velocity": 0.3937007874015748,
                    "duration": 0.31982924999999796
                },
                {
                    "name": "D5",
                    "midi": 74,
                    "time": 33.155632250000046,
                    "velocity": 0.3543307086614173,
                    "duration": 0.10660974999999695
                },
                {
                    "name": "C5",
                    "midi": 72,
                    "time": 33.26224200000004,
                    "velocity": 0.3937007874015748,
                    "duration": 0.426439000000002
                },
                {
                    "name": "F5",
                    "midi": 77,
                    "time": 33.688681000000045,
                    "velocity": 0.36220472440944884,
                    "duration": 0.426439000000002
                },
                {
                    "name": "A#4",
                    "midi": 70,
                    "time": 34.11512000000005,
                    "velocity": 0.3937007874015748,
                    "duration": 0.07107316666666463
                },
                {
                    "name": "C5",
                    "midi": 72,
                    "time": 34.18619316666671,
                    "velocity": 0.3543307086614173,
                    "duration": 0.07107316666666463
                },
                {
                    "name": "A#4",
                    "midi": 70,
                    "time": 34.25726633333338,
                    "velocity": 0.3937007874015748,
                    "duration": 0.07107316666666463
                },
                {
                    "name": "C5",
                    "midi": 72,
                    "time": 34.32833950000004,
                    "velocity": 0.3543307086614173,
                    "duration": 0.07107316666666463
                },
                {
                    "name": "A#4",
                    "midi": 70,
                    "time": 34.399412666666706,
                    "velocity": 0.3937007874015748,
                    "duration": 0.07107316666666463
                },
                {
                    "name": "C5",
                    "midi": 72,
                    "time": 34.47048583333337,
                    "velocity": 0.3543307086614173,
                    "duration": 0.07107316666666463
                },
                {
                    "name": "A#4",
                    "midi": 70,
                    "time": 34.541559000000035,
                    "velocity": 0.3937007874015748,
                    "duration": 0.07107316666666463
                },
                {
                    "name": "C5",
                    "midi": 72,
                    "time": 34.6126321666667,
                    "velocity": 0.3543307086614173,
                    "duration": 0.07107316666666463
                },
                {
                    "name": "A#4",
                    "midi": 70,
                    "time": 34.683705333333364,
                    "velocity": 0.3937007874015748,
                    "duration": 0.07107316666666463
                },
                {
                    "name": "C5",
                    "midi": 72,
                    "time": 34.75477850000003,
                    "velocity": 0.3543307086614173,
                    "duration": 0.05330487500000203
                },
                {
                    "name": "A#4",
                    "midi": 70,
                    "time": 34.80808337500003,
                    "velocity": 0.3937007874015748,
                    "duration": 0.05330487500000203
                },
                {
                    "name": "C5",
                    "midi": 72,
                    "time": 34.86138825000003,
                    "velocity": 0.33858267716535434,
                    "duration": 0.05330487500000203
                },
                {
                    "name": "A#4",
                    "midi": 70,
                    "time": 34.914693125000035,
                    "velocity": 0.3543307086614173,
                    "duration": 0.05330487500000203
                },
                {
                    "name": "A4",
                    "midi": 69,
                    "time": 34.96799800000004,
                    "velocity": 0.3937007874015748,
                    "duration": 0.426439000000002
                },
                {
                    "name": "C5",
                    "midi": 72,
                    "time": 35.39443700000004,
                    "velocity": 0.36220472440944884,
                    "duration": 0.426439000000002
                },
                {
                    "name": "D5",
                    "midi": 74,
                    "time": 35.82087600000004,
                    "velocity": 0.3937007874015748,
                    "duration": 0.31982924999999796
                },
                {
                    "name": "F5",
                    "midi": 77,
                    "time": 36.14070525000004,
                    "velocity": 0.36220472440944884,
                    "duration": 0.10660974999999695
                },
                {
                    "name": "E5",
                    "midi": 76,
                    "time": 36.247315000000036,
                    "velocity": 0.3937007874015748,
                    "duration": 0.31982924999999796
                },
                {
                    "name": "D5",
                    "midi": 74,
                    "time": 36.567144250000034,
                    "velocity": 0.3543307086614173,
                    "duration": 0.10660974999999695
                },
                {
                    "name": "C5",
                    "midi": 72,
                    "time": 36.67375400000003,
                    "velocity": 0.3937007874015748,
                    "duration": 0.426439000000002
                },
                {
                    "name": "A5",
                    "midi": 81,
                    "time": 37.10019300000003,
                    "velocity": 0.3937007874015748,
                    "duration": 0.426439000000002
                },
                {
                    "name": "G5",
                    "midi": 79,
                    "time": 37.526632000000035,
                    "velocity": 0.36220472440944884,
                    "duration": 0.426439000000002
                },
                {
                    "name": "C5",
                    "midi": 72,
                    "time": 37.95307100000004,
                    "velocity": 0.3779527559055118,
                    "duration": 0.05330487500000203
                },
                {
                    "name": "D5",
                    "midi": 74,
                    "time": 38.00637587500004,
                    "velocity": 0.3937007874015748,
                    "duration": 0.05330487500000203
                },
                {
                    "name": "E5",
                    "midi": 76,
                    "time": 38.05968075000004,
                    "velocity": 0.3937007874015748,
                    "duration": 0.3109451041666631
                },
                {
                    "name": "E5",
                    "midi": 76,
                    "time": 38.37951000000004,
                    "velocity": 0.3858267716535433,
                    "duration": 0.05330487500000203
                },
                {
                    "name": "F5",
                    "midi": 77,
                    "time": 38.43281487500004,
                    "velocity": 0.4094488188976378,
                    "duration": 0.05330487500000203
                },
                {
                    "name": "G5",
                    "midi": 79,
                    "time": 38.48611975000004,
                    "velocity": 0.4251968503937008,
                    "duration": 0.31982924999999796
                },
                {
                    "name": "F5",
                    "midi": 77,
                    "time": 38.80594900000004,
                    "velocity": 0.4094488188976378,
                    "duration": 0.05330487500000203
                },
                {
                    "name": "G5",
                    "midi": 79,
                    "time": 38.85925387500004,
                    "velocity": 0.41732283464566927,
                    "duration": 0.05330487500000203
                },
                {
                    "name": "A5",
                    "midi": 81,
                    "time": 38.912558750000045,
                    "velocity": 0.4330708661417323,
                    "duration": 0.31982924999999796
                },
                {
                    "name": "G5",
                    "midi": 79,
                    "time": 39.23238800000004,
                    "velocity": 0.36220472440944884,
                    "duration": 0.426439000000002
                },
                {
                    "name": "C5",
                    "midi": 72,
                    "time": 39.658827000000045,
                    "velocity": 0.3779527559055118,
                    "duration": 0.05330487500000203
                },
                {
                    "name": "D5",
                    "midi": 74,
                    "time": 39.71213187500005,
                    "velocity": 0.3937007874015748,
                    "duration": 0.05330487500000203
                },
                {
                    "name": "E5",
                    "midi": 76,
                    "time": 39.76543675000005,
                    "velocity": 0.3937007874015748,
                    "duration": 0.3109451041666631
                },
                {
                    "name": "E5",
                    "midi": 76,
                    "time": 40.08526600000005,
                    "velocity": 0.3858267716535433,
                    "duration": 0.05330487500000203
                },
                {
                    "name": "F5",
                    "midi": 77,
                    "time": 40.13857087500005,
                    "velocity": 0.4094488188976378,
                    "duration": 0.05330487500000203
                },
                {
                    "name": "G5",
                    "midi": 79,
                    "time": 40.19187575000005,
                    "velocity": 0.4251968503937008,
                    "duration": 0.31982924999999796
                },
                {
                    "name": "C6",
                    "midi": 84,
                    "time": 40.51170500000005,
                    "velocity": 0.4094488188976378,
                    "duration": 0.05330487500000203
                },
                {
                    "name": "B5",
                    "midi": 83,
                    "time": 40.56500987500005,
                    "velocity": 0.41732283464566927,
                    "duration": 0.05330487500000203
                },
                {
                    "name": "A5",
                    "midi": 81,
                    "time": 40.61831475000005,
                    "velocity": 0.4330708661417323,
                    "duration": 0.31982924999999796
                },
                {
                    "name": "G5",
                    "midi": 79,
                    "time": 40.93814400000005,
                    "velocity": 0.4330708661417323,
                    "duration": 0.426439000000002
                },
                {
                    "name": "F5",
                    "midi": 77,
                    "time": 41.36458300000005,
                    "velocity": 0.4409448818897638,
                    "duration": 0.10660974999999695
                },
                {
                    "name": "E5",
                    "midi": 76,
                    "time": 41.47119275000005,
                    "velocity": 0.3779527559055118,
                    "duration": 0.10660974999999695
                },
                {
                    "name": "D5",
                    "midi": 74,
                    "time": 41.57780250000005,
                    "velocity": 0.4330708661417323,
                    "duration": 0.10660974999999695
                },
                {
                    "name": "C5",
                    "midi": 72,
                    "time": 41.684412250000044,
                    "velocity": 0.4015748031496063,
                    "duration": 0.10660974999999695
                },
                {
                    "name": "D5",
                    "midi": 74,
                    "time": 41.79102200000004,
                    "velocity": 0.3937007874015748,
                    "duration": 0.07107316666666463
                },
                {
                    "name": "E5",
                    "midi": 76,
                    "time": 41.862095166666705,
                    "velocity": 0.3543307086614173,
                    "duration": 0.07107316666666463
                },
                {
                    "name": "D5",
                    "midi": 74,
                    "time": 41.93316833333337,
                    "velocity": 0.3937007874015748,
                    "duration": 0.07107316666666463
                },
                {
                    "name": "E5",
                    "midi": 76,
                    "time": 42.004241500000035,
                    "velocity": 0.3543307086614173,
                    "duration": 0.07107316666666463
                },
                {
                    "name": "D5",
                    "midi": 74,
                    "time": 42.0753146666667,
                    "velocity": 0.3937007874015748,
                    "duration": 0.07107316666666463
                },
                {
                    "name": "E5",
                    "midi": 76,
                    "time": 42.146387833333364,
                    "velocity": 0.3543307086614173,
                    "duration": 0.07107316666666463
                },
                {
                    "name": "D5",
                    "midi": 74,
                    "time": 42.21746100000003,
                    "velocity": 0.3937007874015748,
                    "duration": 0.07107316666666463
                },
                {
                    "name": "E5",
                    "midi": 76,
                    "time": 42.28853416666669,
                    "velocity": 0.3543307086614173,
                    "duration": 0.07107316666666463
                },
                {
                    "name": "D5",
                    "midi": 74,
                    "time": 42.35960733333336,
                    "velocity": 0.3937007874015748,
                    "duration": 0.07107316666666463
                },
                {
                    "name": "E5",
                    "midi": 76,
                    "time": 42.43068050000002,
                    "velocity": 0.3543307086614173,
                    "duration": 0.05330487500000203
                },
                {
                    "name": "D5",
                    "midi": 74,
                    "time": 42.483985375000024,
                    "velocity": 0.3937007874015748,
                    "duration": 0.05330487500000203
                },
                {
                    "name": "E5",
                    "midi": 76,
                    "time": 42.53729025000003,
                    "velocity": 0.33858267716535434,
                    "duration": 0.05330487500000203
                },
                {
                    "name": "D5",
                    "midi": 74,
                    "time": 42.59059512500003,
                    "velocity": 0.3543307086614173,
                    "duration": 0.05330487500000203
                },
                {
                    "name": "C5",
                    "midi": 72,
                    "time": 42.64390000000003,
                    "velocity": 0.4645669291338583,
                    "duration": 0.8528779999999969
                },
                {
                    "name": "G5",
                    "midi": 79,
                    "time": 43.70999750000003,
                    "velocity": 0.4409448818897638,
                    "duration": 0.213219500000001
                },
                {
                    "name": "G4",
                    "midi": 67,
                    "time": 43.92321700000003,
                    "velocity": 0.3937007874015748,
                    "duration": 0.213219500000001
                },
                {
                    "name": "G5",
                    "midi": 79,
                    "time": 44.13643650000003,
                    "velocity": 0.4409448818897638,
                    "duration": 0.213219500000001
                },
                {
                    "name": "A4",
                    "midi": 69,
                    "time": 44.34965600000003,
                    "velocity": 0.4645669291338583,
                    "duration": 0.213219500000001
                },
                {
                    "name": "G5",
                    "midi": 79,
                    "time": 44.56287550000003,
                    "velocity": 0.41732283464566927,
                    "duration": 0.213219500000001
                },
                {
                    "name": "F5",
                    "midi": 77,
                    "time": 44.77609500000003,
                    "velocity": 0.4015748031496063,
                    "duration": 0.213219500000001
                },
                {
                    "name": "E5",
                    "midi": 76,
                    "time": 44.989314500000035,
                    "velocity": 0.4251968503937008,
                    "duration": 0.213219500000001
                },
                {
                    "name": "F5",
                    "midi": 77,
                    "time": 45.202534000000036,
                    "velocity": 0.4645669291338583,
                    "duration": 0.213219500000001
                },
                {
                    "name": "D5",
                    "midi": 74,
                    "time": 45.41575350000004,
                    "velocity": 0.4251968503937008,
                    "duration": 0.213219500000001
                },
                {
                    "name": "C5",
                    "midi": 72,
                    "time": 45.62897300000004,
                    "velocity": 0.4251968503937008,
                    "duration": 0.213219500000001
                },
                {
                    "name": "B4",
                    "midi": 71,
                    "time": 45.84219250000004,
                    "velocity": 0.36220472440944884,
                    "duration": 0.213219500000001
                },
                {
                    "name": "C5",
                    "midi": 72,
                    "time": 46.05541200000004,
                    "velocity": 0.4251968503937008,
                    "duration": 0.213219500000001
                },
                {
                    "name": "B4",
                    "midi": 71,
                    "time": 46.26863150000004,
                    "velocity": 0.36220472440944884,
                    "duration": 0.213219500000001
                },
                {
                    "name": "C5",
                    "midi": 72,
                    "time": 46.48185100000004,
                    "velocity": 0.4330708661417323,
                    "duration": 0.213219500000001
                },
                {
                    "name": "E5",
                    "midi": 76,
                    "time": 46.69507050000004,
                    "velocity": 0.3858267716535433,
                    "duration": 0.213219500000001
                },
                {
                    "name": "C5",
                    "midi": 72,
                    "time": 46.908290000000044,
                    "velocity": 0.4015748031496063,
                    "duration": 0.213219500000001
                },
                {
                    "name": "G5",
                    "midi": 79,
                    "time": 47.121509500000045,
                    "velocity": 0.4645669291338583,
                    "duration": 0.213219500000001
                },
                {
                    "name": "G4",
                    "midi": 67,
                    "time": 47.334729000000046,
                    "velocity": 0.4251968503937008,
                    "duration": 0.213219500000001
                },
                {
                    "name": "G5",
                    "midi": 79,
                    "time": 47.54794850000005,
                    "velocity": 0.4251968503937008,
                    "duration": 0.213219500000001
                },
                {
                    "name": "A4",
                    "midi": 69,
                    "time": 47.76116800000005,
                    "velocity": 0.4409448818897638,
                    "duration": 0.213219500000001
                },
                {
                    "name": "G5",
                    "midi": 79,
                    "time": 47.97438750000005,
                    "velocity": 0.41732283464566927,
                    "duration": 0.213219500000001
                },
                {
                    "name": "F5",
                    "midi": 77,
                    "time": 48.18760700000005,
                    "velocity": 0.4645669291338583,
                    "duration": 0.213219500000001
                },
                {
                    "name": "E5",
                    "midi": 76,
                    "time": 48.40082650000005,
                    "velocity": 0.41732283464566927,
                    "duration": 0.213219500000001
                },
                {
                    "name": "F5",
                    "midi": 77,
                    "time": 48.61404600000005,
                    "velocity": 0.44881889763779526,
                    "duration": 0.213219500000001
                },
                {
                    "name": "D5",
                    "midi": 74,
                    "time": 48.82726550000005,
                    "velocity": 0.4251968503937008,
                    "duration": 0.213219500000001
                },
                {
                    "name": "C5",
                    "midi": 72,
                    "time": 49.040485000000054,
                    "velocity": 0.4251968503937008,
                    "duration": 0.07107316666666463
                },
                {
                    "name": "D5",
                    "midi": 74,
                    "time": 49.11155816666672,
                    "velocity": 0.3779527559055118,
                    "duration": 0.07107316666666463
                },
                {
                    "name": "C5",
                    "midi": 72,
                    "time": 49.18263133333338,
                    "velocity": 0.3779527559055118,
                    "duration": 0.07107316666666463
                },
                {
                    "name": "B4",
                    "midi": 71,
                    "time": 49.25370450000005,
                    "velocity": 0.44881889763779526,
                    "duration": 0.213219500000001
                },
                {
                    "name": "C5",
                    "midi": 72,
                    "time": 49.46692400000005,
                    "velocity": 0.49606299212598426,
                    "duration": 0.8528779999999969
                },
                {
                    "name": "C5",
                    "midi": 72,
                    "time": 51.17268000000004,
                    "velocity": 0.5196850393700787,
                    "duration": 0.8528779999999969
                },
                {
                    "name": "G4",
                    "midi": 67,
                    "time": 51.17268000000004,
                    "velocity": 0.4330708661417323,
                    "duration": 0.8528779999999969
                },
                {
                    "name": "E4",
                    "midi": 64,
                    "time": 51.17268000000004,
                    "velocity": 0.4330708661417323,
                    "duration": 0.8528779999999969
                },
                {
                    "name": "E4",
                    "midi": 64,
                    "time": 52.02555800000004,
                    "velocity": 0.3937007874015748,
                    "duration": 0.31982924999999796
                },
                {
                    "name": "G4",
                    "midi": 67,
                    "time": 52.34538725000004,
                    "velocity": 0.3543307086614173,
                    "duration": 0.10660974999999695
                },
                {
                    "name": "F4",
                    "midi": 65,
                    "time": 52.451997000000034,
                    "velocity": 0.3937007874015748,
                    "duration": 0.31982924999999796
                },
                {
                    "name": "A4",
                    "midi": 69,
                    "time": 52.77182625000003,
                    "velocity": 0.3543307086614173,
                    "duration": 0.10660974999999695
                },
                {
                    "name": "G4",
                    "midi": 67,
                    "time": 52.87843600000003,
                    "velocity": 0.3937007874015748,
                    "duration": 0.426439000000002
                },
                {
                    "name": "A#4",
                    "midi": 70,
                    "time": 53.30487500000003,
                    "velocity": 0.31496062992125984,
                    "duration": 0.213219500000001
                },
                {
                    "name": "G5",
                    "midi": 79,
                    "time": 53.30487500000003,
                    "velocity": 0.3779527559055118,
                    "duration": 0.213219500000001
                },
                {
                    "name": "A#4",
                    "midi": 70,
                    "time": 53.73131400000003,
                    "velocity": 0.31496062992125984,
                    "duration": 0.213219500000001
                },
                {
                    "name": "G5",
                    "midi": 79,
                    "time": 53.73131400000003,
                    "velocity": 0.3779527559055118,
                    "duration": 0.213219500000001
                },
                {
                    "name": "G4",
                    "midi": 67,
                    "time": 54.157753000000035,
                    "velocity": 0.30708661417322836,
                    "duration": 0.213219500000001
                },
                {
                    "name": "A#4",
                    "midi": 70,
                    "time": 54.157753000000035,
                    "velocity": 0.36220472440944884,
                    "duration": 0.213219500000001
                },
                {
                    "name": "A4",
                    "midi": 69,
                    "time": 54.58419200000004,
                    "velocity": 0.41732283464566927,
                    "duration": 0.8528779999999969
                },
                {
                    "name": "F4",
                    "midi": 65,
                    "time": 54.58419200000004,
                    "velocity": 0.3464566929133858,
                    "duration": 0.8528779999999969
                },
                {
                    "name": "F4",
                    "midi": 65,
                    "time": 55.437070000000034,
                    "velocity": 0.3937007874015748,
                    "duration": 0.31982924999999796
                },
                {
                    "name": "A4",
                    "midi": 69,
                    "time": 55.75689925000003,
                    "velocity": 0.3543307086614173,
                    "duration": 0.10660974999999695
                },
                {
                    "name": "G4",
                    "midi": 67,
                    "time": 55.86350900000003,
                    "velocity": 0.3937007874015748,
                    "duration": 0.31982924999999796
                },
                {
                    "name": "A#4",
                    "midi": 70,
                    "time": 56.18333825000003,
                    "velocity": 0.3543307086614173,
                    "duration": 0.10660974999999695
                },
                {
                    "name": "A4",
                    "midi": 69,
                    "time": 56.289948000000024,
                    "velocity": 0.3937007874015748,
                    "duration": 0.426439000000002
                },
                {
                    "name": "A4",
                    "midi": 69,
                    "time": 56.716387000000026,
                    "velocity": 0.31496062992125984,
                    "duration": 0.213219500000001
                },
                {
                    "name": "F5",
                    "midi": 77,
                    "time": 56.716387000000026,
                    "velocity": 0.3779527559055118,
                    "duration": 0.213219500000001
                },
                {
                    "name": "A4",
                    "midi": 69,
                    "time": 57.14282600000003,
                    "velocity": 0.31496062992125984,
                    "duration": 0.213219500000001
                },
                {
                    "name": "F5",
                    "midi": 77,
                    "time": 57.14282600000003,
                    "velocity": 0.3779527559055118,
                    "duration": 0.213219500000001
                },
                {
                    "name": "A4",
                    "midi": 69,
                    "time": 57.56926500000003,
                    "velocity": 0.30708661417322836,
                    "duration": 0.213219500000001
                },
                {
                    "name": "C5",
                    "midi": 72,
                    "time": 57.56926500000003,
                    "velocity": 0.36220472440944884,
                    "duration": 0.213219500000001
                },
                {
                    "name": "A#4",
                    "midi": 70,
                    "time": 57.99570400000003,
                    "velocity": 0.4645669291338583,
                    "duration": 0.8528779999999969
                },
                {
                    "name": "G4",
                    "midi": 67,
                    "time": 57.99570400000003,
                    "velocity": 0.3858267716535433,
                    "duration": 0.8528779999999969
                },
                {
                    "name": "G4",
                    "midi": 67,
                    "time": 58.84858200000003,
                    "velocity": 0.3937007874015748,
                    "duration": 0.31982924999999796
                },
                {
                    "name": "A#4",
                    "midi": 70,
                    "time": 59.16841125000003,
                    "velocity": 0.3543307086614173,
                    "duration": 0.10660974999999695
                },
                {
                    "name": "A4",
                    "midi": 69,
                    "time": 59.275021000000024,
                    "velocity": 0.3937007874015748,
                    "duration": 0.31982924999999796
                },
                {
                    "name": "C5",
                    "midi": 72,
                    "time": 59.59485025000002,
                    "velocity": 0.3543307086614173,
                    "duration": 0.10660974999999695
                },
                {
                    "name": "A#4",
                    "midi": 70,
                    "time": 59.70146000000002,
                    "velocity": 0.3937007874015748,
                    "duration": 0.426439000000002
                },
                {
                    "name": "G5",
                    "midi": 79,
                    "time": 60.12789900000002,
                    "velocity": 0.31496062992125984,
                    "duration": 0.213219500000001
                },
                {
                    "name": "A#5",
                    "midi": 82,
                    "time": 60.12789900000002,
                    "velocity": 0.3779527559055118,
                    "duration": 0.213219500000001
                },
                {
                    "name": "G5",
                    "midi": 79,
                    "time": 60.55433800000002,
                    "velocity": 0.31496062992125984,
                    "duration": 0.213219500000001
                },
                {
                    "name": "A#5",
                    "midi": 82,
                    "time": 60.55433800000002,
                    "velocity": 0.3779527559055118,
                    "duration": 0.213219500000001
                },
                {
                    "name": "G4",
                    "midi": 67,
                    "time": 60.980777000000025,
                    "velocity": 0.30708661417322836,
                    "duration": 0.213219500000001
                },
                {
                    "name": "A#4",
                    "midi": 70,
                    "time": 60.980777000000025,
                    "velocity": 0.36220472440944884,
                    "duration": 0.213219500000001
                },
                {
                    "name": "F4",
                    "midi": 65,
                    "time": 61.40721600000003,
                    "velocity": 0.36220472440944884,
                    "duration": 0.8528779999999969
                },
                {
                    "name": "A4",
                    "midi": 69,
                    "time": 61.40721600000003,
                    "velocity": 0.4409448818897638,
                    "duration": 0.8528779999999969
                },
                {
                    "name": "C6",
                    "midi": 84,
                    "time": 62.260094000000024,
                    "velocity": 0.41732283464566927,
                    "duration": 0.213219500000001
                },
                {
                    "name": "A5",
                    "midi": 81,
                    "time": 62.473313500000025,
                    "velocity": 0.36220472440944884,
                    "duration": 0.213219500000001
                },
                {
                    "name": "G5",
                    "midi": 79,
                    "time": 62.686533000000026,
                    "velocity": 0.4015748031496063,
                    "duration": 0.213219500000001
                },
                {
                    "name": "F5",
                    "midi": 77,
                    "time": 62.89975250000003,
                    "velocity": 0.3700787401574803,
                    "duration": 0.213219500000001
                },
                {
                    "name": "G5",
                    "midi": 79,
                    "time": 63.11297200000003,
                    "velocity": 0.3543307086614173,
                    "duration": 0.07107316666666463
                },
                {
                    "name": "A5",
                    "midi": 81,
                    "time": 63.18404516666669,
                    "velocity": 0.3228346456692913,
                    "duration": 0.07107316666666463
                },
                {
                    "name": "G5",
                    "midi": 79,
                    "time": 63.25511833333336,
                    "velocity": 0.3543307086614173,
                    "duration": 0.07107316666666463
                },
                {
                    "name": "A5",
                    "midi": 81,
                    "time": 63.32619150000002,
                    "velocity": 0.30708661417322836,
                    "duration": 0.05330487500000203
                },
                {
                    "name": "G5",
                    "midi": 79,
                    "time": 63.37949637500002,
                    "velocity": 0.3543307086614173,
                    "duration": 0.05330487500000203
                },
                {
                    "name": "A5",
                    "midi": 81,
                    "time": 63.432801250000026,
                    "velocity": 0.31496062992125984,
                    "duration": 0.05330487500000203
                },
                {
                    "name": "G5",
                    "midi": 79,
                    "time": 63.48610612500003,
                    "velocity": 0.31496062992125984,
                    "duration": 0.05330487500000203
                },
                {
                    "name": "F5",
                    "midi": 77,
                    "time": 63.53941100000003,
                    "velocity": 0.3937007874015748,
                    "duration": 0.426439000000002
                },
                {
                    "name": "C6",
                    "midi": 84,
                    "time": 63.96585000000003,
                    "velocity": 0.41732283464566927,
                    "duration": 0.2132194999999939
                },
                {
                    "name": "A5",
                    "midi": 81,
                    "time": 64.17906950000003,
                    "velocity": 0.36220472440944884,
                    "duration": 0.2132194999999939
                },
                {
                    "name": "G5",
                    "midi": 79,
                    "time": 64.39228900000002,
                    "velocity": 0.3937007874015748,
                    "duration": 0.2132194999999939
                },
                {
                    "name": "F5",
                    "midi": 77,
                    "time": 64.60550850000001,
                    "velocity": 0.3700787401574803,
                    "duration": 0.2132194999999939
                },
                {
                    "name": "G5",
                    "midi": 79,
                    "time": 64.81872800000001,
                    "velocity": 0.3543307086614173,
                    "duration": 0.07107316666666463
                },
                {
                    "name": "A5",
                    "midi": 81,
                    "time": 64.88980116666667,
                    "velocity": 0.3228346456692913,
                    "duration": 0.07107316666666463
                },
                {
                    "name": "G5",
                    "midi": 79,
                    "time": 64.96087433333334,
                    "velocity": 0.3543307086614173,
                    "duration": 0.07107316666666463
                },
                {
                    "name": "A5",
                    "midi": 81,
                    "time": 65.0319475,
                    "velocity": 0.30708661417322836,
                    "duration": 0.05330487499999492
                },
                {
                    "name": "G5",
                    "midi": 79,
                    "time": 65.085252375,
                    "velocity": 0.3543307086614173,
                    "duration": 0.05330487499999492
                },
                {
                    "name": "A5",
                    "midi": 81,
                    "time": 65.13855724999999,
                    "velocity": 0.31496062992125984,
                    "duration": 0.05330487499999492
                },
                {
                    "name": "G5",
                    "midi": 79,
                    "time": 65.19186212499999,
                    "velocity": 0.31496062992125984,
                    "duration": 0.05330487499999492
                },
                {
                    "name": "F5",
                    "midi": 77,
                    "time": 65.24516699999998,
                    "velocity": 0.3937007874015748,
                    "duration": 0.426439000000002
                },
                {
                    "name": "C5",
                    "midi": 72,
                    "time": 65.67160599999998,
                    "velocity": 0.3937007874015748,
                    "duration": 0.2132194999999939
                },
                {
                    "name": "C6",
                    "midi": 84,
                    "time": 65.88482549999998,
                    "velocity": 0.33070866141732286,
                    "duration": 0.2132194999999939
                },
                {
                    "name": "C5",
                    "midi": 72,
                    "time": 66.09804499999997,
                    "velocity": 0.3937007874015748,
                    "duration": 0.2132194999999939
                },
                {
                    "name": "C6",
                    "midi": 84,
                    "time": 66.31126449999996,
                    "velocity": 0.36220472440944884,
                    "duration": 0.2132194999999939
                },
                {
                    "name": "D5",
                    "midi": 74,
                    "time": 66.52448399999996,
                    "velocity": 0.4645669291338583,
                    "duration": 0.2132194999999939
                },
                {
                    "name": "C6",
                    "midi": 84,
                    "time": 66.73770349999995,
                    "velocity": 0.41732283464566927,
                    "duration": 0.2132194999999939
                },
                {
                    "name": "A#5",
                    "midi": 82,
                    "time": 66.95092299999995,
                    "velocity": 0.4015748031496063,
                    "duration": 0.2132194999999939
                },
                {
                    "name": "A5",
                    "midi": 81,
                    "time": 67.16414249999994,
                    "velocity": 0.4251968503937008,
                    "duration": 0.2132194999999939
                },
                {
                    "name": "A#5",
                    "midi": 82,
                    "time": 67.37736199999993,
                    "velocity": 0.4645669291338583,
                    "duration": 0.2132194999999939
                },
                {
                    "name": "D5",
                    "midi": 74,
                    "time": 67.59058149999993,
                    "velocity": 0.4251968503937008,
                    "duration": 0.2132194999999939
                },
                {
                    "name": "A#5",
                    "midi": 82,
                    "time": 67.80380099999992,
                    "velocity": 0.4251968503937008,
                    "duration": 0.2132194999999939
                },
                {
                    "name": "D5",
                    "midi": 74,
                    "time": 68.01702049999992,
                    "velocity": 0.36220472440944884,
                    "duration": 0.2132194999999939
                },
                {
                    "name": "A#5",
                    "midi": 82,
                    "time": 68.23023999999991,
                    "velocity": 0.4645669291338583,
                    "duration": 0.2132194999999939
                },
                {
                    "name": "C5",
                    "midi": 72,
                    "time": 68.4434594999999,
                    "velocity": 0.41732283464566927,
                    "duration": 0.2132194999999939
                },
                {
                    "name": "G5",
                    "midi": 79,
                    "time": 68.6566789999999,
                    "velocity": 0.4015748031496063,
                    "duration": 0.2132194999999939
                },
                {
                    "name": "A#5",
                    "midi": 82,
                    "time": 68.86989849999989,
                    "velocity": 0.4251968503937008,
                    "duration": 0.2132194999999939
                },
                {
                    "name": "A5",
                    "midi": 81,
                    "time": 69.08311799999989,
                    "velocity": 0.4645669291338583,
                    "duration": 0.2132194999999939
                },
                {
                    "name": "F5",
                    "midi": 77,
                    "time": 69.29633749999988,
                    "velocity": 0.4251968503937008,
                    "duration": 0.2132194999999939
                },
                {
                    "name": "E5",
                    "midi": 76,
                    "time": 69.50955699999987,
                    "velocity": 0.4251968503937008,
                    "duration": 0.2132194999999939
                },
                {
                    "name": "F5",
                    "midi": 77,
                    "time": 69.72277649999987,
                    "velocity": 0.36220472440944884,
                    "duration": 0.2132194999999939
                },
                {
                    "name": "D5",
                    "midi": 74,
                    "time": 69.93599599999986,
                    "velocity": 0.4409448818897638,
                    "duration": 0.426439000000002
                },
                {
                    "name": "A#5",
                    "midi": 82,
                    "time": 70.36243499999986,
                    "velocity": 0.4645669291338583,
                    "duration": 0.14214633333332927
                },
                {
                    "name": "A5",
                    "midi": 81,
                    "time": 70.50458133333319,
                    "velocity": 0.3937007874015748,
                    "duration": 0.14214633333332927
                },
                {
                    "name": "G5",
                    "midi": 79,
                    "time": 70.64672766666652,
                    "velocity": 0.4094488188976378,
                    "duration": 0.14214633333332927
                },
                {
                    "name": "A#5",
                    "midi": 82,
                    "time": 70.78887399999985,
                    "velocity": 0.4645669291338583,
                    "duration": 0.14214633333332927
                },
                {
                    "name": "A5",
                    "midi": 81,
                    "time": 70.93102033333318,
                    "velocity": 0.41732283464566927,
                    "duration": 0.14214633333332927
                },
                {
                    "name": "G5",
                    "midi": 79,
                    "time": 71.07316666666651,
                    "velocity": 0.41732283464566927,
                    "duration": 0.14214633333332927
                },
                {
                    "name": "A5",
                    "midi": 81,
                    "time": 71.21531299999984,
                    "velocity": 0.4645669291338583,
                    "duration": 0.14214633333332927
                },
                {
                    "name": "G5",
                    "midi": 79,
                    "time": 71.35745933333317,
                    "velocity": 0.4015748031496063,
                    "duration": 0.14214633333332927
                },
                {
                    "name": "F5",
                    "midi": 77,
                    "time": 71.4996056666665,
                    "velocity": 0.4015748031496063,
                    "duration": 0.14214633333332927
                },
                {
                    "name": "E5",
                    "midi": 76,
                    "time": 71.64175199999983,
                    "velocity": 0.4645669291338583,
                    "duration": 0.14214633333332927
                },
                {
                    "name": "F5",
                    "midi": 77,
                    "time": 71.78389833333316,
                    "velocity": 0.4015748031496063,
                    "duration": 0.14214633333332927
                },
                {
                    "name": "G5",
                    "midi": 79,
                    "time": 71.92604466666648,
                    "velocity": 0.4015748031496063,
                    "duration": 0.14214633333332927
                },
                {
                    "name": "C5",
                    "midi": 72,
                    "time": 72.06819099999981,
                    "velocity": 0.4409448818897638,
                    "duration": 0.426439000000002
                },
                {
                    "name": "F5",
                    "midi": 77,
                    "time": 73.34750799999982,
                    "velocity": 0.5196850393700787,
                    "duration": 0.852878000000004
                },
                {
                    "name": "C5",
                    "midi": 72,
                    "time": 73.34750799999982,
                    "velocity": 0.4330708661417323,
                    "duration": 0.852878000000004
                },
                {
                    "name": "A4",
                    "midi": 69,
                    "time": 73.34750799999982,
                    "velocity": 0.4330708661417323,
                    "duration": 0.852878000000004
                },
                {
                    "name": "F4",
                    "midi": 65,
                    "time": 73.34750799999982,
                    "velocity": 0.4330708661417323,
                    "duration": 0.852878000000004
                },
                {
                    "name": "A4",
                    "midi": 69,
                    "time": 74.20038599999982,
                    "velocity": 0.3937007874015748,
                    "duration": 0.31982924999999796
                },
                {
                    "name": "C5",
                    "midi": 72,
                    "time": 74.52021524999982,
                    "velocity": 0.3543307086614173,
                    "duration": 0.10660975000000406
                },
                {
                    "name": "A#4",
                    "midi": 70,
                    "time": 74.62682499999983,
                    "velocity": 0.3937007874015748,
                    "duration": 0.31982924999999796
                },
                {
                    "name": "D5",
                    "midi": 74,
                    "time": 74.94665424999982,
                    "velocity": 0.3543307086614173,
                    "duration": 0.10660975000000406
                },
                {
                    "name": "C5",
                    "midi": 72,
                    "time": 75.05326399999983,
                    "velocity": 0.3937007874015748,
                    "duration": 0.426439000000002
                },
                {
                    "name": "F4",
                    "midi": 65,
                    "time": 75.47970299999983,
                    "velocity": 0.36220472440944884,
                    "duration": 0.2132194999999939
                },
                {
                    "name": "F4",
                    "midi": 65,
                    "time": 75.90614199999982,
                    "velocity": 0.36220472440944884,
                    "duration": 0.2132194999999939
                },
                {
                    "name": "F4",
                    "midi": 65,
                    "time": 76.3325809999998,
                    "velocity": 0.36220472440944884,
                    "duration": 0.2132194999999939
                },
                {
                    "name": "G4",
                    "midi": 67,
                    "time": 76.7590199999998,
                    "velocity": 0.3543307086614173,
                    "duration": 0.07107316666666463
                },
                {
                    "name": "A4",
                    "midi": 69,
                    "time": 76.83009316666646,
                    "velocity": 0.3228346456692913,
                    "duration": 0.07107316666666463
                },
                {
                    "name": "G4",
                    "midi": 67,
                    "time": 76.90116633333312,
                    "velocity": 0.3543307086614173,
                    "duration": 0.07107316666666463
                },
                {
                    "name": "A4",
                    "midi": 69,
                    "time": 76.97223949999979,
                    "velocity": 0.30708661417322836,
                    "duration": 0.05330487499999492
                },
                {
                    "name": "G4",
                    "midi": 67,
                    "time": 77.02554437499978,
                    "velocity": 0.3543307086614173,
                    "duration": 0.05330487499999492
                },
                {
                    "name": "A4",
                    "midi": 69,
                    "time": 77.07884924999978,
                    "velocity": 0.31496062992125984,
                    "duration": 0.05330487499999492
                },
                {
                    "name": "G4",
                    "midi": 67,
                    "time": 77.13215412499977,
                    "velocity": 0.31496062992125984,
                    "duration": 0.05330487499999492
                },
                {
                    "name": "F4",
                    "midi": 65,
                    "time": 77.18545899999977,
                    "velocity": 0.3937007874015748,
                    "duration": 0.426439000000002
                },
                {
                    "name": "C5",
                    "midi": 72,
                    "time": 77.61189799999977,
                    "velocity": 0.41732283464566927,
                    "duration": 0.2132194999999939
                },
                {
                    "name": "A4",
                    "midi": 69,
                    "time": 77.82511749999976,
                    "velocity": 0.36220472440944884,
                    "duration": 0.2132194999999939
                },
                {
                    "name": "G4",
                    "midi": 67,
                    "time": 78.03833699999976,
                    "velocity": 0.3937007874015748,
                    "duration": 0.2132194999999939
                },
                {
                    "name": "F4",
                    "midi": 65,
                    "time": 78.25155649999975,
                    "velocity": 0.3700787401574803,
                    "duration": 0.2132194999999939
                },
                {
                    "name": "G4",
                    "midi": 67,
                    "time": 78.46477599999974,
                    "velocity": 0.3543307086614173,
                    "duration": 0.07107316666666463
                },
                {
                    "name": "A4",
                    "midi": 69,
                    "time": 78.53584916666641,
                    "velocity": 0.3228346456692913,
                    "duration": 0.07107316666666463
                },
                {
                    "name": "G4",
                    "midi": 67,
                    "time": 78.60692233333307,
                    "velocity": 0.3543307086614173,
                    "duration": 0.07107316666666463
                },
                {
                    "name": "A4",
                    "midi": 69,
                    "time": 78.67799549999974,
                    "velocity": 0.30708661417322836,
                    "duration": 0.05330487499999492
                },
                {
                    "name": "G4",
                    "midi": 67,
                    "time": 78.73130037499973,
                    "velocity": 0.3543307086614173,
                    "duration": 0.05330487499999492
                },
                {
                    "name": "A4",
                    "midi": 69,
                    "time": 78.78460524999973,
                    "velocity": 0.31496062992125984,
                    "duration": 0.05330487499999492
                },
                {
                    "name": "G4",
                    "midi": 67,
                    "time": 78.83791012499972,
                    "velocity": 0.31496062992125984,
                    "duration": 0.05330487499999492
                },
                {
                    "name": "F4",
                    "midi": 65,
                    "time": 78.89121499999972,
                    "velocity": 0.3937007874015748,
                    "duration": 0.426439000000002
                },
                {
                    "name": "C5",
                    "midi": 72,
                    "time": 79.74409299999972,
                    "velocity": 0.3937007874015748,
                    "duration": 0.426439000000002
                },
                {
                    "name": "D5",
                    "midi": 74,
                    "time": 80.17053199999972,
                    "velocity": 0.3937007874015748,
                    "duration": 0.31982924999999796
                },
                {
                    "name": "F5",
                    "midi": 77,
                    "time": 80.49036124999972,
                    "velocity": 0.36220472440944884,
                    "duration": 0.10660975000000406
                },
                {
                    "name": "E5",
                    "midi": 76,
                    "time": 80.59697099999973,
                    "velocity": 0.3937007874015748,
                    "duration": 0.31982924999999796
                },
                {
                    "name": "D5",
                    "midi": 74,
                    "time": 80.91680024999972,
                    "velocity": 0.3543307086614173,
                    "duration": 0.10660975000000406
                },
                {
                    "name": "C5",
                    "midi": 72,
                    "time": 81.02340999999973,
                    "velocity": 0.3937007874015748,
                    "duration": 0.426439000000002
                },
                {
                    "name": "F5",
                    "midi": 77,
                    "time": 81.44984899999973,
                    "velocity": 0.36220472440944884,
                    "duration": 0.426439000000002
                },
                {
                    "name": "A#4",
                    "midi": 70,
                    "time": 81.87628799999973,
                    "velocity": 0.3937007874015748,
                    "duration": 0.07107316666666463
                },
                {
                    "name": "C5",
                    "midi": 72,
                    "time": 81.9473611666664,
                    "velocity": 0.3543307086614173,
                    "duration": 0.07107316666666463
                },
                {
                    "name": "A#4",
                    "midi": 70,
                    "time": 82.01843433333306,
                    "velocity": 0.3937007874015748,
                    "duration": 0.07107316666666463
                },
                {
                    "name": "C5",
                    "midi": 72,
                    "time": 82.08950749999973,
                    "velocity": 0.3543307086614173,
                    "duration": 0.07107316666666463
                },
                {
                    "name": "A#4",
                    "midi": 70,
                    "time": 82.16058066666639,
                    "velocity": 0.3937007874015748,
                    "duration": 0.07107316666666463
                },
                {
                    "name": "C5",
                    "midi": 72,
                    "time": 82.23165383333306,
                    "velocity": 0.3543307086614173,
                    "duration": 0.07107316666666463
                },
                {
                    "name": "A#4",
                    "midi": 70,
                    "time": 82.30272699999972,
                    "velocity": 0.3937007874015748,
                    "duration": 0.07107316666666463
                },
                {
                    "name": "C5",
                    "midi": 72,
                    "time": 82.37380016666638,
                    "velocity": 0.3543307086614173,
                    "duration": 0.07107316666666463
                },
                {
                    "name": "A#4",
                    "midi": 70,
                    "time": 82.44487333333305,
                    "velocity": 0.3937007874015748,
                    "duration": 0.07107316666666463
                },
                {
                    "name": "C5",
                    "midi": 72,
                    "time": 82.51594649999971,
                    "velocity": 0.3543307086614173,
                    "duration": 0.05330487499999492
                },
                {
                    "name": "A#4",
                    "midi": 70,
                    "time": 82.56925137499971,
                    "velocity": 0.3937007874015748,
                    "duration": 0.05330487499999492
                },
                {
                    "name": "C5",
                    "midi": 72,
                    "time": 82.6225562499997,
                    "velocity": 0.33858267716535434,
                    "duration": 0.05330487499999492
                },
                {
                    "name": "A#4",
                    "midi": 70,
                    "time": 82.6758611249997,
                    "velocity": 0.3543307086614173,
                    "duration": 0.05330487499999492
                },
                {
                    "name": "A4",
                    "midi": 69,
                    "time": 82.7291659999997,
                    "velocity": 0.3937007874015748,
                    "duration": 0.426439000000002
                },
                {
                    "name": "F5",
                    "midi": 77,
                    "time": 83.1556049999997,
                    "velocity": 0.4330708661417323,
                    "duration": 0.14214633333332927
                },
                {
                    "name": "E5",
                    "midi": 76,
                    "time": 83.29775133333303,
                    "velocity": 0.3937007874015748,
                    "duration": 0.14214633333332927
                },
                {
                    "name": "D5",
                    "midi": 74,
                    "time": 83.43989766666635,
                    "velocity": 0.3858267716535433,
                    "duration": 0.14214633333332927
                },
                {
                    "name": "C5",
                    "midi": 72,
                    "time": 83.58204399999968,
                    "velocity": 0.36220472440944884,
                    "duration": 0.426439000000002
                },
                {
                    "name": "F4",
                    "midi": 65,
                    "time": 84.00848299999969,
                    "velocity": 0.3779527559055118,
                    "duration": 0.05330487499999492
                },
                {
                    "name": "G4",
                    "midi": 67,
                    "time": 84.06178787499968,
                    "velocity": 0.3937007874015748,
                    "duration": 0.05330487499999492
                },
                {
                    "name": "A4",
                    "midi": 69,
                    "time": 84.11509274999968,
                    "velocity": 0.3937007874015748,
                    "duration": 0.3109451041666631
                },
                {
                    "name": "A4",
                    "midi": 69,
                    "time": 84.43492199999967,
                    "velocity": 0.3858267716535433,
                    "duration": 0.05330487499999492
                },
                {
                    "name": "A#4",
                    "midi": 70,
                    "time": 84.48822687499967,
                    "velocity": 0.4094488188976378,
                    "duration": 0.05330487499999492
                },
                {
                    "name": "C5",
                    "midi": 72,
                    "time": 84.54153174999966,
                    "velocity": 0.4251968503937008,
                    "duration": 0.31982924999999796
                },
                {
                    "name": "A#4",
                    "midi": 70,
                    "time": 84.86136099999966,
                    "velocity": 0.4094488188976378,
                    "duration": 0.05330487499999492
                },
                {
                    "name": "C5",
                    "midi": 72,
                    "time": 84.91466587499966,
                    "velocity": 0.41732283464566927,
                    "duration": 0.05330487499999492
                },
                {
                    "name": "D5",
                    "midi": 74,
                    "time": 84.96797074999965,
                    "velocity": 0.4330708661417323,
                    "duration": 0.31982924999999796
                },
                {
                    "name": "C5",
                    "midi": 72,
                    "time": 85.28779999999965,
                    "velocity": 0.36220472440944884,
                    "duration": 0.426439000000002
                },
                {
                    "name": "C5",
                    "midi": 72,
                    "time": 85.71423899999965,
                    "velocity": 0.3858267716535433,
                    "duration": 0.05330487499999492
                },
                {
                    "name": "D5",
                    "midi": 74,
                    "time": 85.76754387499965,
                    "velocity": 0.41732283464566927,
                    "duration": 0.05330487499999492
                },
                {
                    "name": "E5",
                    "midi": 76,
                    "time": 85.82084874999964,
                    "velocity": 0.4251968503937008,
                    "duration": 0.31982924999999796
                },
                {
                    "name": "F5",
                    "midi": 77,
                    "time": 86.14067799999964,
                    "velocity": 0.4330708661417323,
                    "duration": 0.05330487499999492
                },
                {
                    "name": "G5",
                    "midi": 79,
                    "time": 86.19398287499963,
                    "velocity": 0.44881889763779526,
                    "duration": 0.05330487499999492
                },
                {
                    "name": "A5",
                    "midi": 81,
                    "time": 86.24728774999963,
                    "velocity": 0.4566929133858268,
                    "duration": 0.31982924999999796
                },
                {
                    "name": "A#5",
                    "midi": 82,
                    "time": 86.56711699999963,
                    "velocity": 0.47244094488188976,
                    "duration": 0.05330487499999492
                },
                {
                    "name": "C6",
                    "midi": 84,
                    "time": 86.62042187499962,
                    "velocity": 0.4881889763779528,
                    "duration": 0.05330487499999492
                },
                {
                    "name": "D6",
                    "midi": 86,
                    "time": 86.67372674999962,
                    "velocity": 0.5039370078740157,
                    "duration": 0.31982924999999796
                },
                {
                    "name": "C6",
                    "midi": 84,
                    "time": 86.99355599999961,
                    "velocity": 0.5118110236220472,
                    "duration": 0.426439000000002
                },
                {
                    "name": "A#5",
                    "midi": 82,
                    "time": 87.41999499999962,
                    "velocity": 0.4409448818897638,
                    "duration": 0.10660975000000406
                },
                {
                    "name": "A5",
                    "midi": 81,
                    "time": 87.52660474999962,
                    "velocity": 0.3779527559055118,
                    "duration": 0.10660975000000406
                },
                {
                    "name": "G5",
                    "midi": 79,
                    "time": 87.63321449999962,
                    "velocity": 0.4330708661417323,
                    "duration": 0.10660975000000406
                },
                {
                    "name": "F5",
                    "midi": 77,
                    "time": 87.73982424999963,
                    "velocity": 0.4015748031496063,
                    "duration": 0.10660975000000406
                },
                {
                    "name": "G5",
                    "midi": 79,
                    "time": 87.84643399999963,
                    "velocity": 0.3937007874015748,
                    "duration": 0.07107316666666463
                },
                {
                    "name": "A5",
                    "midi": 81,
                    "time": 87.9175071666663,
                    "velocity": 0.3543307086614173,
                    "duration": 0.07107316666666463
                },
                {
                    "name": "G5",
                    "midi": 79,
                    "time": 87.98858033333296,
                    "velocity": 0.3937007874015748,
                    "duration": 0.07107316666666463
                },
                {
                    "name": "A5",
                    "midi": 81,
                    "time": 88.05965349999963,
                    "velocity": 0.3543307086614173,
                    "duration": 0.07107316666666463
                },
                {
                    "name": "G5",
                    "midi": 79,
                    "time": 88.13072666666629,
                    "velocity": 0.3937007874015748,
                    "duration": 0.07107316666666463
                },
                {
                    "name": "A5",
                    "midi": 81,
                    "time": 88.20179983333296,
                    "velocity": 0.3543307086614173,
                    "duration": 0.07107316666666463
                },
                {
                    "name": "G5",
                    "midi": 79,
                    "time": 88.27287299999962,
                    "velocity": 0.3937007874015748,
                    "duration": 0.07107316666666463
                },
                {
                    "name": "A5",
                    "midi": 81,
                    "time": 88.34394616666629,
                    "velocity": 0.3543307086614173,
                    "duration": 0.07107316666666463
                },
                {
                    "name": "G5",
                    "midi": 79,
                    "time": 88.41501933333295,
                    "velocity": 0.3937007874015748,
                    "duration": 0.07107316666666463
                },
                {
                    "name": "A5",
                    "midi": 81,
                    "time": 88.48609249999961,
                    "velocity": 0.3543307086614173,
                    "duration": 0.05330487499999492
                },
                {
                    "name": "G5",
                    "midi": 79,
                    "time": 88.53939737499961,
                    "velocity": 0.3937007874015748,
                    "duration": 0.05330487499999492
                },
                {
                    "name": "A5",
                    "midi": 81,
                    "time": 88.5927022499996,
                    "velocity": 0.33858267716535434,
                    "duration": 0.05330487499999492
                },
                {
                    "name": "G5",
                    "midi": 79,
                    "time": 88.6460071249996,
                    "velocity": 0.3543307086614173,
                    "duration": 0.05330487499999492
                },
                {
                    "name": "F5",
                    "midi": 77,
                    "time": 88.6993119999996,
                    "velocity": 0.4645669291338583,
                    "duration": 0.852878000000004
                },
                {
                    "name": "C6",
                    "midi": 84,
                    "time": 89.76540949999959,
                    "velocity": 0.4409448818897638,
                    "duration": 0.2132194999999939
                },
                {
                    "name": "C5",
                    "midi": 72,
                    "time": 89.97862899999959,
                    "velocity": 0.3937007874015748,
                    "duration": 0.2132194999999939
                },
                {
                    "name": "C6",
                    "midi": 84,
                    "time": 90.19184849999958,
                    "velocity": 0.4409448818897638,
                    "duration": 0.2132194999999939
                },
                {
                    "name": "D5",
                    "midi": 74,
                    "time": 90.40506799999957,
                    "velocity": 0.4645669291338583,
                    "duration": 0.2132194999999939
                },
                {
                    "name": "C6",
                    "midi": 84,
                    "time": 90.61828749999957,
                    "velocity": 0.41732283464566927,
                    "duration": 0.2132194999999939
                },
                {
                    "name": "A#5",
                    "midi": 82,
                    "time": 90.83150699999956,
                    "velocity": 0.4015748031496063,
                    "duration": 0.2132194999999939
                },
                {
                    "name": "A5",
                    "midi": 81,
                    "time": 91.04472649999956,
                    "velocity": 0.4251968503937008,
                    "duration": 0.2132194999999939
                },
                {
                    "name": "A#5",
                    "midi": 82,
                    "time": 91.25794599999955,
                    "velocity": 0.4645669291338583,
                    "duration": 0.2132194999999939
                },
                {
                    "name": "G5",
                    "midi": 79,
                    "time": 91.47116549999954,
                    "velocity": 0.4251968503937008,
                    "duration": 0.2132194999999939
                },
                {
                    "name": "F5",
                    "midi": 77,
                    "time": 91.68438499999954,
                    "velocity": 0.4251968503937008,
                    "duration": 0.07107316666666463
                },
                {
                    "name": "G5",
                    "midi": 79,
                    "time": 91.7554581666662,
                    "velocity": 0.3779527559055118,
                    "duration": 0.07107316666666463
                },
                {
                    "name": "F5",
                    "midi": 77,
                    "time": 91.82653133333287,
                    "velocity": 0.3779527559055118,
                    "duration": 0.07107316666666463
                },
                {
                    "name": "E5",
                    "midi": 76,
                    "time": 91.89760449999953,
                    "velocity": 0.36220472440944884,
                    "duration": 0.2132194999999939
                },
                {
                    "name": "F5",
                    "midi": 77,
                    "time": 92.11082399999952,
                    "velocity": 0.4251968503937008,
                    "duration": 0.07107316666666463
                },
                {
                    "name": "G5",
                    "midi": 79,
                    "time": 92.18189716666619,
                    "velocity": 0.3779527559055118,
                    "duration": 0.07107316666666463
                },
                {
                    "name": "F5",
                    "midi": 77,
                    "time": 92.25297033333285,
                    "velocity": 0.3779527559055118,
                    "duration": 0.07107316666666463
                },
                {
                    "name": "E5",
                    "midi": 76,
                    "time": 92.32404349999952,
                    "velocity": 0.36220472440944884,
                    "duration": 0.2132194999999939
                },
                {
                    "name": "F5",
                    "midi": 77,
                    "time": 92.53726299999951,
                    "velocity": 0.4330708661417323,
                    "duration": 0.2132194999999939
                },
                {
                    "name": "A5",
                    "midi": 81,
                    "time": 92.7504824999995,
                    "velocity": 0.3858267716535433,
                    "duration": 0.2132194999999939
                },
                {
                    "name": "F5",
                    "midi": 77,
                    "time": 92.9637019999995,
                    "velocity": 0.4015748031496063,
                    "duration": 0.2132194999999939
                },
                {
                    "name": "C6",
                    "midi": 84,
                    "time": 93.1769214999995,
                    "velocity": 0.4645669291338583,
                    "duration": 0.2132194999999939
                },
                {
                    "name": "C5",
                    "midi": 72,
                    "time": 93.39014099999949,
                    "velocity": 0.4251968503937008,
                    "duration": 0.2132194999999939
                },
                {
                    "name": "C6",
                    "midi": 84,
                    "time": 93.60336049999948,
                    "velocity": 0.4251968503937008,
                    "duration": 0.2132194999999939
                },
                {
                    "name": "D5",
                    "midi": 74,
                    "time": 93.81657999999948,
                    "velocity": 0.4409448818897638,
                    "duration": 0.2132194999999939
                },
                {
                    "name": "C6",
                    "midi": 84,
                    "time": 94.02979949999947,
                    "velocity": 0.41732283464566927,
                    "duration": 0.2132194999999939
                },
                {
                    "name": "A#5",
                    "midi": 82,
                    "time": 94.24301899999946,
                    "velocity": 0.4645669291338583,
                    "duration": 0.2132194999999939
                },
                {
                    "name": "A5",
                    "midi": 81,
                    "time": 94.45623849999946,
                    "velocity": 0.41732283464566927,
                    "duration": 0.2132194999999939
                },
                {
                    "name": "A#5",
                    "midi": 82,
                    "time": 94.66945799999945,
                    "velocity": 0.44881889763779526,
                    "duration": 0.2132194999999939
                },
                {
                    "name": "G5",
                    "midi": 79,
                    "time": 94.88267749999945,
                    "velocity": 0.4251968503937008,
                    "duration": 0.2132194999999939
                },
                {
                    "name": "F5",
                    "midi": 77,
                    "time": 95.09589699999944,
                    "velocity": 0.4251968503937008,
                    "duration": 0.07107316666666463
                },
                {
                    "name": "G5",
                    "midi": 79,
                    "time": 95.1669701666661,
                    "velocity": 0.3779527559055118,
                    "duration": 0.07107316666666463
                },
                {
                    "name": "F5",
                    "midi": 77,
                    "time": 95.23804333333277,
                    "velocity": 0.3779527559055118,
                    "duration": 0.07107316666666463
                },
                {
                    "name": "E5",
                    "midi": 76,
                    "time": 95.30911649999943,
                    "velocity": 0.44881889763779526,
                    "duration": 0.2132194999999939
                },
                {
                    "name": "F5",
                    "midi": 77,
                    "time": 95.52233599999943,
                    "velocity": 0.49606299212598426,
                    "duration": 0.852878000000004
                },
                {
                    "name": "C5",
                    "midi": 72,
                    "time": 97.22809199999944,
                    "velocity": 0.5196850393700787,
                    "duration": 0.852878000000004
                },
                {
                    "name": "G4",
                    "midi": 67,
                    "time": 97.22809199999944,
                    "velocity": 0.4330708661417323,
                    "duration": 0.852878000000004
                },
                {
                    "name": "E4",
                    "midi": 64,
                    "time": 97.22809199999944,
                    "velocity": 0.4330708661417323,
                    "duration": 0.852878000000004
                },
                {
                    "name": "E4",
                    "midi": 64,
                    "time": 98.08096999999944,
                    "velocity": 0.3937007874015748,
                    "duration": 0.31982924999999796
                },
                {
                    "name": "G4",
                    "midi": 67,
                    "time": 98.40079924999944,
                    "velocity": 0.3543307086614173,
                    "duration": 0.10660975000000406
                },
                {
                    "name": "F4",
                    "midi": 65,
                    "time": 98.50740899999944,
                    "velocity": 0.3937007874015748,
                    "duration": 0.31982924999999796
                },
                {
                    "name": "A4",
                    "midi": 69,
                    "time": 98.82723824999944,
                    "velocity": 0.3543307086614173,
                    "duration": 0.10660975000000406
                },
                {
                    "name": "G4",
                    "midi": 67,
                    "time": 98.93384799999944,
                    "velocity": 0.3937007874015748,
                    "duration": 0.426439000000002
                },
                {
                    "name": "A#4",
                    "midi": 70,
                    "time": 99.36028699999945,
                    "velocity": 0.31496062992125984,
                    "duration": 0.2132194999999939
                },
                {
                    "name": "G5",
                    "midi": 79,
                    "time": 99.36028699999945,
                    "velocity": 0.3779527559055118,
                    "duration": 0.2132194999999939
                },
                {
                    "name": "A#4",
                    "midi": 70,
                    "time": 99.78672599999943,
                    "velocity": 0.31496062992125984,
                    "duration": 0.2132194999999939
                },
                {
                    "name": "G5",
                    "midi": 79,
                    "time": 99.78672599999943,
                    "velocity": 0.3779527559055118,
                    "duration": 0.2132194999999939
                },
                {
                    "name": "G4",
                    "midi": 67,
                    "time": 100.21316499999942,
                    "velocity": 0.30708661417322836,
                    "duration": 0.2132194999999939
                },
                {
                    "name": "A#4",
                    "midi": 70,
                    "time": 100.21316499999942,
                    "velocity": 0.36220472440944884,
                    "duration": 0.2132194999999939
                },
                {
                    "name": "A4",
                    "midi": 69,
                    "time": 100.63960399999941,
                    "velocity": 0.41732283464566927,
                    "duration": 0.852878000000004
                },
                {
                    "name": "F4",
                    "midi": 65,
                    "time": 100.63960399999941,
                    "velocity": 0.3464566929133858,
                    "duration": 0.852878000000004
                },
                {
                    "name": "F4",
                    "midi": 65,
                    "time": 101.49248199999941,
                    "velocity": 0.3937007874015748,
                    "duration": 0.31982924999999796
                },
                {
                    "name": "A4",
                    "midi": 69,
                    "time": 101.81231124999941,
                    "velocity": 0.3543307086614173,
                    "duration": 0.10660975000000406
                },
                {
                    "name": "G4",
                    "midi": 67,
                    "time": 101.91892099999941,
                    "velocity": 0.3937007874015748,
                    "duration": 0.31982924999999796
                },
                {
                    "name": "A#4",
                    "midi": 70,
                    "time": 102.23875024999941,
                    "velocity": 0.3543307086614173,
                    "duration": 0.10660975000000406
                },
                {
                    "name": "A4",
                    "midi": 69,
                    "time": 102.34535999999942,
                    "velocity": 0.3937007874015748,
                    "duration": 0.426439000000002
                },
                {
                    "name": "A4",
                    "midi": 69,
                    "time": 102.77179899999942,
                    "velocity": 0.31496062992125984,
                    "duration": 0.2132194999999939
                },
                {
                    "name": "F5",
                    "midi": 77,
                    "time": 102.77179899999942,
                    "velocity": 0.3779527559055118,
                    "duration": 0.2132194999999939
                },
                {
                    "name": "A4",
                    "midi": 69,
                    "time": 103.1982379999994,
                    "velocity": 0.31496062992125984,
                    "duration": 0.2132194999999939
                },
                {
                    "name": "F5",
                    "midi": 77,
                    "time": 103.1982379999994,
                    "velocity": 0.3779527559055118,
                    "duration": 0.2132194999999939
                },
                {
                    "name": "A4",
                    "midi": 69,
                    "time": 103.6246769999994,
                    "velocity": 0.30708661417322836,
                    "duration": 0.2132194999999939
                },
                {
                    "name": "C5",
                    "midi": 72,
                    "time": 103.6246769999994,
                    "velocity": 0.36220472440944884,
                    "duration": 0.2132194999999939
                },
                {
                    "name": "A#4",
                    "midi": 70,
                    "time": 104.05111599999938,
                    "velocity": 0.4645669291338583,
                    "duration": 0.852878000000004
                },
                {
                    "name": "G4",
                    "midi": 67,
                    "time": 104.05111599999938,
                    "velocity": 0.3858267716535433,
                    "duration": 0.852878000000004
                },
                {
                    "name": "G4",
                    "midi": 67,
                    "time": 104.90399399999939,
                    "velocity": 0.3937007874015748,
                    "duration": 0.31982924999999796
                },
                {
                    "name": "A#4",
                    "midi": 70,
                    "time": 105.22382324999938,
                    "velocity": 0.3543307086614173,
                    "duration": 0.10660975000000406
                },
                {
                    "name": "A4",
                    "midi": 69,
                    "time": 105.33043299999939,
                    "velocity": 0.3937007874015748,
                    "duration": 0.31982924999999796
                },
                {
                    "name": "C5",
                    "midi": 72,
                    "time": 105.65026224999939,
                    "velocity": 0.3543307086614173,
                    "duration": 0.10660975000000406
                },
                {
                    "name": "A#4",
                    "midi": 70,
                    "time": 105.75687199999939,
                    "velocity": 0.3937007874015748,
                    "duration": 0.426439000000002
                },
                {
                    "name": "G5",
                    "midi": 79,
                    "time": 106.18331099999939,
                    "velocity": 0.31496062992125984,
                    "duration": 0.2132194999999939
                },
                {
                    "name": "A#5",
                    "midi": 82,
                    "time": 106.18331099999939,
                    "velocity": 0.3779527559055118,
                    "duration": 0.2132194999999939
                },
                {
                    "name": "G5",
                    "midi": 79,
                    "time": 106.60974999999938,
                    "velocity": 0.31496062992125984,
                    "duration": 0.2132194999999939
                },
                {
                    "name": "A#5",
                    "midi": 82,
                    "time": 106.60974999999938,
                    "velocity": 0.3779527559055118,
                    "duration": 0.2132194999999939
                },
                {
                    "name": "G4",
                    "midi": 67,
                    "time": 107.03618899999937,
                    "velocity": 0.30708661417322836,
                    "duration": 0.2132194999999939
                },
                {
                    "name": "A#4",
                    "midi": 70,
                    "time": 107.03618899999937,
                    "velocity": 0.36220472440944884,
                    "duration": 0.2132194999999939
                },
                {
                    "name": "F4",
                    "midi": 65,
                    "time": 107.46262799999936,
                    "velocity": 0.36220472440944884,
                    "duration": 0.852878000000004
                },
                {
                    "name": "A4",
                    "midi": 69,
                    "time": 107.46262799999936,
                    "velocity": 0.4409448818897638,
                    "duration": 0.852878000000004
                },
                {
                    "name": "C6",
                    "midi": 84,
                    "time": 108.31550599999936,
                    "velocity": 0.41732283464566927,
                    "duration": 0.2132194999999939
                },
                {
                    "name": "A5",
                    "midi": 81,
                    "time": 108.52872549999935,
                    "velocity": 0.36220472440944884,
                    "duration": 0.2132194999999939
                },
                {
                    "name": "G5",
                    "midi": 79,
                    "time": 108.74194499999935,
                    "velocity": 0.4015748031496063,
                    "duration": 0.2132194999999939
                },
                {
                    "name": "F5",
                    "midi": 77,
                    "time": 108.95516449999934,
                    "velocity": 0.3700787401574803,
                    "duration": 0.2132194999999939
                },
                {
                    "name": "G5",
                    "midi": 79,
                    "time": 109.16838399999934,
                    "velocity": 0.3543307086614173,
                    "duration": 0.07107316666666463
                },
                {
                    "name": "A5",
                    "midi": 81,
                    "time": 109.239457166666,
                    "velocity": 0.3228346456692913,
                    "duration": 0.07107316666666463
                },
                {
                    "name": "G5",
                    "midi": 79,
                    "time": 109.31053033333266,
                    "velocity": 0.3543307086614173,
                    "duration": 0.07107316666666463
                },
                {
                    "name": "A5",
                    "midi": 81,
                    "time": 109.38160349999933,
                    "velocity": 0.30708661417322836,
                    "duration": 0.05330487499999492
                },
                {
                    "name": "G5",
                    "midi": 79,
                    "time": 109.43490837499932,
                    "velocity": 0.3543307086614173,
                    "duration": 0.05330487499999492
                },
                {
                    "name": "A5",
                    "midi": 81,
                    "time": 109.48821324999932,
                    "velocity": 0.31496062992125984,
                    "duration": 0.05330487499999492
                },
                {
                    "name": "G5",
                    "midi": 79,
                    "time": 109.54151812499931,
                    "velocity": 0.31496062992125984,
                    "duration": 0.05330487499999492
                },
                {
                    "name": "F5",
                    "midi": 77,
                    "time": 109.59482299999931,
                    "velocity": 0.3937007874015748,
                    "duration": 0.426439000000002
                },
                {
                    "name": "C6",
                    "midi": 84,
                    "time": 110.02126199999931,
                    "velocity": 0.41732283464566927,
                    "duration": 0.2132194999999939
                },
                {
                    "name": "A5",
                    "midi": 81,
                    "time": 110.2344814999993,
                    "velocity": 0.36220472440944884,
                    "duration": 0.2132194999999939
                },
                {
                    "name": "G5",
                    "midi": 79,
                    "time": 110.4477009999993,
                    "velocity": 0.3937007874015748,
                    "duration": 0.2132194999999939
                },
                {
                    "name": "F5",
                    "midi": 77,
                    "time": 110.66092049999929,
                    "velocity": 0.3700787401574803,
                    "duration": 0.2132194999999939
                },
                {
                    "name": "G5",
                    "midi": 79,
                    "time": 110.87413999999929,
                    "velocity": 0.3543307086614173,
                    "duration": 0.07107316666666463
                },
                {
                    "name": "A5",
                    "midi": 81,
                    "time": 110.94521316666595,
                    "velocity": 0.3228346456692913,
                    "duration": 0.07107316666666463
                },
                {
                    "name": "G5",
                    "midi": 79,
                    "time": 111.01628633333262,
                    "velocity": 0.3543307086614173,
                    "duration": 0.07107316666666463
                },
                {
                    "name": "A5",
                    "midi": 81,
                    "time": 111.08735949999928,
                    "velocity": 0.30708661417322836,
                    "duration": 0.05330487499999492
                },
                {
                    "name": "G5",
                    "midi": 79,
                    "time": 111.14066437499928,
                    "velocity": 0.3543307086614173,
                    "duration": 0.05330487499999492
                },
                {
                    "name": "A5",
                    "midi": 81,
                    "time": 111.19396924999927,
                    "velocity": 0.31496062992125984,
                    "duration": 0.05330487499999492
                },
                {
                    "name": "G5",
                    "midi": 79,
                    "time": 111.24727412499927,
                    "velocity": 0.31496062992125984,
                    "duration": 0.05330487499999492
                },
                {
                    "name": "F5",
                    "midi": 77,
                    "time": 111.30057899999926,
                    "velocity": 0.3937007874015748,
                    "duration": 0.426439000000002
                },
                {
                    "name": "C5",
                    "midi": 72,
                    "time": 111.72701799999926,
                    "velocity": 0.3937007874015748,
                    "duration": 0.2132194999999939
                },
                {
                    "name": "C6",
                    "midi": 84,
                    "time": 111.94023749999926,
                    "velocity": 0.33070866141732286,
                    "duration": 0.2132194999999939
                },
                {
                    "name": "C5",
                    "midi": 72,
                    "time": 112.15345699999925,
                    "velocity": 0.3937007874015748,
                    "duration": 0.2132194999999939
                },
                {
                    "name": "C6",
                    "midi": 84,
                    "time": 112.36667649999924,
                    "velocity": 0.36220472440944884,
                    "duration": 0.2132194999999939
                },
                {
                    "name": "D5",
                    "midi": 74,
                    "time": 112.57989599999924,
                    "velocity": 0.4645669291338583,
                    "duration": 0.2132194999999939
                },
                {
                    "name": "C6",
                    "midi": 84,
                    "time": 112.79311549999923,
                    "velocity": 0.41732283464566927,
                    "duration": 0.2132194999999939
                },
                {
                    "name": "A#5",
                    "midi": 82,
                    "time": 113.00633499999923,
                    "velocity": 0.4015748031496063,
                    "duration": 0.2132194999999939
                },
                {
                    "name": "A5",
                    "midi": 81,
                    "time": 113.21955449999922,
                    "velocity": 0.4251968503937008,
                    "duration": 0.2132194999999939
                },
                {
                    "name": "A#5",
                    "midi": 82,
                    "time": 113.43277399999921,
                    "velocity": 0.4645669291338583,
                    "duration": 0.2132194999999939
                },
                {
                    "name": "D5",
                    "midi": 74,
                    "time": 113.64599349999921,
                    "velocity": 0.4251968503937008,
                    "duration": 0.2132194999999939
                },
                {
                    "name": "A#5",
                    "midi": 82,
                    "time": 113.8592129999992,
                    "velocity": 0.4251968503937008,
                    "duration": 0.2132194999999939
                },
                {
                    "name": "D5",
                    "midi": 74,
                    "time": 114.0724324999992,
                    "velocity": 0.36220472440944884,
                    "duration": 0.2132194999999939
                },
                {
                    "name": "A#5",
                    "midi": 82,
                    "time": 114.28565199999919,
                    "velocity": 0.4645669291338583,
                    "duration": 0.2132194999999939
                },
                {
                    "name": "C5",
                    "midi": 72,
                    "time": 114.49887149999918,
                    "velocity": 0.41732283464566927,
                    "duration": 0.2132194999999939
                },
                {
                    "name": "G5",
                    "midi": 79,
                    "time": 114.71209099999918,
                    "velocity": 0.4015748031496063,
                    "duration": 0.2132194999999939
                },
                {
                    "name": "A#5",
                    "midi": 82,
                    "time": 114.92531049999917,
                    "velocity": 0.4251968503937008,
                    "duration": 0.2132194999999939
                },
                {
                    "name": "A5",
                    "midi": 81,
                    "time": 115.13852999999916,
                    "velocity": 0.4645669291338583,
                    "duration": 0.2132194999999939
                },
                {
                    "name": "F5",
                    "midi": 77,
                    "time": 115.35174949999916,
                    "velocity": 0.4251968503937008,
                    "duration": 0.2132194999999939
                },
                {
                    "name": "E5",
                    "midi": 76,
                    "time": 115.56496899999915,
                    "velocity": 0.4251968503937008,
                    "duration": 0.2132194999999939
                },
                {
                    "name": "F5",
                    "midi": 77,
                    "time": 115.77818849999915,
                    "velocity": 0.36220472440944884,
                    "duration": 0.2132194999999939
                },
                {
                    "name": "D5",
                    "midi": 74,
                    "time": 115.99140799999914,
                    "velocity": 0.4409448818897638,
                    "duration": 0.426439000000002
                },
                {
                    "name": "A#5",
                    "midi": 82,
                    "time": 116.41784699999914,
                    "velocity": 0.4645669291338583,
                    "duration": 0.14214633333332927
                },
                {
                    "name": "A5",
                    "midi": 81,
                    "time": 116.55999333333247,
                    "velocity": 0.3937007874015748,
                    "duration": 0.14214633333332927
                },
                {
                    "name": "G5",
                    "midi": 79,
                    "time": 116.7021396666658,
                    "velocity": 0.4094488188976378,
                    "duration": 0.14214633333332927
                },
                {
                    "name": "A#5",
                    "midi": 82,
                    "time": 116.84428599999913,
                    "velocity": 0.4645669291338583,
                    "duration": 0.14214633333332927
                },
                {
                    "name": "A5",
                    "midi": 81,
                    "time": 116.98643233333246,
                    "velocity": 0.41732283464566927,
                    "duration": 0.14214633333332927
                },
                {
                    "name": "G5",
                    "midi": 79,
                    "time": 117.12857866666579,
                    "velocity": 0.41732283464566927,
                    "duration": 0.14214633333332927
                },
                {
                    "name": "A5",
                    "midi": 81,
                    "time": 117.27072499999912,
                    "velocity": 0.4645669291338583,
                    "duration": 0.14214633333332927
                },
                {
                    "name": "G5",
                    "midi": 79,
                    "time": 117.41287133333245,
                    "velocity": 0.4015748031496063,
                    "duration": 0.14214633333332927
                },
                {
                    "name": "F5",
                    "midi": 77,
                    "time": 117.55501766666578,
                    "velocity": 0.4015748031496063,
                    "duration": 0.14214633333332927
                },
                {
                    "name": "E5",
                    "midi": 76,
                    "time": 117.6971639999991,
                    "velocity": 0.4645669291338583,
                    "duration": 0.14214633333332927
                },
                {
                    "name": "F5",
                    "midi": 77,
                    "time": 117.83931033333243,
                    "velocity": 0.4015748031496063,
                    "duration": 0.14214633333332927
                },
                {
                    "name": "G5",
                    "midi": 79,
                    "time": 117.98145666666576,
                    "velocity": 0.4015748031496063,
                    "duration": 0.14214633333332927
                },
                {
                    "name": "C5",
                    "midi": 72,
                    "time": 118.1236029999991,
                    "velocity": 0.4409448818897638,
                    "duration": 0.426439000000002
                },
                {
                    "name": "F5",
                    "midi": 77,
                    "time": 119.4029199999991,
                    "velocity": 0.5196850393700787,
                    "duration": 0.852878000000004
                },
                {
                    "name": "C5",
                    "midi": 72,
                    "time": 119.4029199999991,
                    "velocity": 0.4330708661417323,
                    "duration": 0.852878000000004
                },
                {
                    "name": "A4",
                    "midi": 69,
                    "time": 119.4029199999991,
                    "velocity": 0.4330708661417323,
                    "duration": 0.852878000000004
                },
                {
                    "name": "F4",
                    "midi": 65,
                    "time": 119.4029199999991,
                    "velocity": 0.4330708661417323,
                    "duration": 0.852878000000004
                },
                {
                    "name": "A4",
                    "midi": 69,
                    "time": 120.2557979999991,
                    "velocity": 0.3937007874015748,
                    "duration": 0.31982924999999796
                },
                {
                    "name": "C5",
                    "midi": 72,
                    "time": 120.5756272499991,
                    "velocity": 0.3543307086614173,
                    "duration": 0.10660975000000406
                },
                {
                    "name": "A#4",
                    "midi": 70,
                    "time": 120.6822369999991,
                    "velocity": 0.3937007874015748,
                    "duration": 0.31982924999999796
                },
                {
                    "name": "D5",
                    "midi": 74,
                    "time": 121.0020662499991,
                    "velocity": 0.3543307086614173,
                    "duration": 0.10660975000000406
                },
                {
                    "name": "C5",
                    "midi": 72,
                    "time": 121.10867599999911,
                    "velocity": 0.3937007874015748,
                    "duration": 0.426439000000002
                },
                {
                    "name": "F4",
                    "midi": 65,
                    "time": 121.53511499999911,
                    "velocity": 0.36220472440944884,
                    "duration": 0.2132194999999939
                },
                {
                    "name": "F4",
                    "midi": 65,
                    "time": 121.9615539999991,
                    "velocity": 0.36220472440944884,
                    "duration": 0.2132194999999939
                },
                {
                    "name": "F4",
                    "midi": 65,
                    "time": 122.38799299999908,
                    "velocity": 0.36220472440944884,
                    "duration": 0.2132194999999939
                },
                {
                    "name": "G4",
                    "midi": 67,
                    "time": 122.81443199999907,
                    "velocity": 0.3543307086614173,
                    "duration": 0.07107316666666463
                },
                {
                    "name": "A4",
                    "midi": 69,
                    "time": 122.88550516666574,
                    "velocity": 0.3228346456692913,
                    "duration": 0.07107316666666463
                },
                {
                    "name": "G4",
                    "midi": 67,
                    "time": 122.9565783333324,
                    "velocity": 0.3543307086614173,
                    "duration": 0.07107316666666463
                },
                {
                    "name": "A4",
                    "midi": 69,
                    "time": 123.02765149999907,
                    "velocity": 0.30708661417322836,
                    "duration": 0.05330487499999492
                },
                {
                    "name": "G4",
                    "midi": 67,
                    "time": 123.08095637499906,
                    "velocity": 0.3543307086614173,
                    "duration": 0.05330487499999492
                },
                {
                    "name": "A4",
                    "midi": 69,
                    "time": 123.13426124999906,
                    "velocity": 0.31496062992125984,
                    "duration": 0.05330487499999492
                },
                {
                    "name": "G4",
                    "midi": 67,
                    "time": 123.18756612499905,
                    "velocity": 0.31496062992125984,
                    "duration": 0.05330487499999492
                },
                {
                    "name": "F4",
                    "midi": 65,
                    "time": 123.24087099999905,
                    "velocity": 0.3937007874015748,
                    "duration": 0.426439000000002
                },
                {
                    "name": "C5",
                    "midi": 72,
                    "time": 123.66730999999905,
                    "velocity": 0.41732283464566927,
                    "duration": 0.2132194999999939
                },
                {
                    "name": "A4",
                    "midi": 69,
                    "time": 123.88052949999904,
                    "velocity": 0.36220472440944884,
                    "duration": 0.2132194999999939
                },
                {
                    "name": "G4",
                    "midi": 67,
                    "time": 124.09374899999904,
                    "velocity": 0.3937007874015748,
                    "duration": 0.2132194999999939
                },
                {
                    "name": "F4",
                    "midi": 65,
                    "time": 124.30696849999903,
                    "velocity": 0.3700787401574803,
                    "duration": 0.2132194999999939
                },
                {
                    "name": "G4",
                    "midi": 67,
                    "time": 124.52018799999902,
                    "velocity": 0.3543307086614173,
                    "duration": 0.07107316666666463
                },
                {
                    "name": "A4",
                    "midi": 69,
                    "time": 124.59126116666569,
                    "velocity": 0.3228346456692913,
                    "duration": 0.07107316666666463
                },
                {
                    "name": "G4",
                    "midi": 67,
                    "time": 124.66233433333235,
                    "velocity": 0.3543307086614173,
                    "duration": 0.07107316666666463
                },
                {
                    "name": "A4",
                    "midi": 69,
                    "time": 124.73340749999902,
                    "velocity": 0.30708661417322836,
                    "duration": 0.05330487499999492
                },
                {
                    "name": "G4",
                    "midi": 67,
                    "time": 124.78671237499901,
                    "velocity": 0.3543307086614173,
                    "duration": 0.05330487499999492
                },
                {
                    "name": "A4",
                    "midi": 69,
                    "time": 124.84001724999901,
                    "velocity": 0.31496062992125984,
                    "duration": 0.05330487499999492
                },
                {
                    "name": "G4",
                    "midi": 67,
                    "time": 124.893322124999,
                    "velocity": 0.31496062992125984,
                    "duration": 0.05330487499999492
                },
                {
                    "name": "F4",
                    "midi": 65,
                    "time": 124.946626999999,
                    "velocity": 0.3937007874015748,
                    "duration": 0.426439000000002
                },
                {
                    "name": "C5",
                    "midi": 72,
                    "time": 125.799504999999,
                    "velocity": 0.3937007874015748,
                    "duration": 0.426439000000002
                },
                {
                    "name": "D5",
                    "midi": 74,
                    "time": 126.225943999999,
                    "velocity": 0.3937007874015748,
                    "duration": 0.31982924999999796
                },
                {
                    "name": "F5",
                    "midi": 77,
                    "time": 126.545773249999,
                    "velocity": 0.36220472440944884,
                    "duration": 0.10660975000000406
                },
                {
                    "name": "E5",
                    "midi": 76,
                    "time": 126.652382999999,
                    "velocity": 0.3937007874015748,
                    "duration": 0.31982924999999796
                },
                {
                    "name": "D5",
                    "midi": 74,
                    "time": 126.972212249999,
                    "velocity": 0.3543307086614173,
                    "duration": 0.10660975000000406
                },
                {
                    "name": "C5",
                    "midi": 72,
                    "time": 127.07882199999901,
                    "velocity": 0.3937007874015748,
                    "duration": 0.426439000000002
                },
                {
                    "name": "F5",
                    "midi": 77,
                    "time": 127.50526099999901,
                    "velocity": 0.36220472440944884,
                    "duration": 0.426439000000002
                },
                {
                    "name": "A#4",
                    "midi": 70,
                    "time": 127.93169999999901,
                    "velocity": 0.3937007874015748,
                    "duration": 0.07107316666667884
                },
                {
                    "name": "C5",
                    "midi": 72,
                    "time": 128.0027731666657,
                    "velocity": 0.3543307086614173,
                    "duration": 0.07107316666667884
                },
                {
                    "name": "A#4",
                    "midi": 70,
                    "time": 128.07384633333237,
                    "velocity": 0.3937007874015748,
                    "duration": 0.07107316666667884
                },
                {
                    "name": "C5",
                    "midi": 72,
                    "time": 128.14491949999905,
                    "velocity": 0.3543307086614173,
                    "duration": 0.07107316666667884
                },
                {
                    "name": "A#4",
                    "midi": 70,
                    "time": 128.21599266666573,
                    "velocity": 0.3937007874015748,
                    "duration": 0.07107316666667884
                },
                {
                    "name": "C5",
                    "midi": 72,
                    "time": 128.2870658333324,
                    "velocity": 0.3543307086614173,
                    "duration": 0.07107316666667884
                },
                {
                    "name": "A#4",
                    "midi": 70,
                    "time": 128.35813899999908,
                    "velocity": 0.3937007874015748,
                    "duration": 0.07107316666667884
                },
                {
                    "name": "C5",
                    "midi": 72,
                    "time": 128.42921216666576,
                    "velocity": 0.3543307086614173,
                    "duration": 0.07107316666667884
                },
                {
                    "name": "A#4",
                    "midi": 70,
                    "time": 128.50028533333244,
                    "velocity": 0.3937007874015748,
                    "duration": 0.07107316666667884
                },
                {
                    "name": "C5",
                    "midi": 72,
                    "time": 128.57135849999912,
                    "velocity": 0.3543307086614173,
                    "duration": 0.05330487500000913
                },
                {
                    "name": "A#4",
                    "midi": 70,
                    "time": 128.62466337499913,
                    "velocity": 0.3937007874015748,
                    "duration": 0.05330487500000913
                },
                {
                    "name": "C5",
                    "midi": 72,
                    "time": 128.67796824999914,
                    "velocity": 0.33858267716535434,
                    "duration": 0.05330487500000913
                },
                {
                    "name": "A#4",
                    "midi": 70,
                    "time": 128.73127312499915,
                    "velocity": 0.3543307086614173,
                    "duration": 0.05330487500000913
                },
                {
                    "name": "A4",
                    "midi": 69,
                    "time": 128.78457799999916,
                    "velocity": 0.3937007874015748,
                    "duration": 0.4264389999999878
                },
                {
                    "name": "F5",
                    "midi": 77,
                    "time": 129.21101699999915,
                    "velocity": 0.4330708661417323,
                    "duration": 0.14214633333332927
                },
                {
                    "name": "E5",
                    "midi": 76,
                    "time": 129.35316333333247,
                    "velocity": 0.3937007874015748,
                    "duration": 0.14214633333332927
                },
                {
                    "name": "D5",
                    "midi": 74,
                    "time": 129.4953096666658,
                    "velocity": 0.3858267716535433,
                    "duration": 0.14214633333332927
                },
                {
                    "name": "C5",
                    "midi": 72,
                    "time": 129.63745599999913,
                    "velocity": 0.36220472440944884,
                    "duration": 0.4264389999999878
                },
                {
                    "name": "F4",
                    "midi": 65,
                    "time": 130.06389499999912,
                    "velocity": 0.3779527559055118,
                    "duration": 0.05330487500000913
                },
                {
                    "name": "G4",
                    "midi": 67,
                    "time": 130.11719987499913,
                    "velocity": 0.3937007874015748,
                    "duration": 0.05330487500000913
                },
                {
                    "name": "A4",
                    "midi": 69,
                    "time": 130.17050474999914,
                    "velocity": 0.3937007874015748,
                    "duration": 0.3109451041666773
                },
                {
                    "name": "A4",
                    "midi": 69,
                    "time": 130.49033399999914,
                    "velocity": 0.3858267716535433,
                    "duration": 0.05330487500000913
                },
                {
                    "name": "A#4",
                    "midi": 70,
                    "time": 130.54363887499915,
                    "velocity": 0.4094488188976378,
                    "duration": 0.05330487500000913
                },
                {
                    "name": "C5",
                    "midi": 72,
                    "time": 130.59694374999916,
                    "velocity": 0.4251968503937008,
                    "duration": 0.31982924999999796
                },
                {
                    "name": "A#4",
                    "midi": 70,
                    "time": 130.91677299999915,
                    "velocity": 0.4094488188976378,
                    "duration": 0.05330487500000913
                },
                {
                    "name": "C5",
                    "midi": 72,
                    "time": 130.97007787499916,
                    "velocity": 0.41732283464566927,
                    "duration": 0.05330487500000913
                },
                {
                    "name": "D5",
                    "midi": 74,
                    "time": 131.02338274999917,
                    "velocity": 0.4330708661417323,
                    "duration": 0.31982924999999796
                },
                {
                    "name": "C5",
                    "midi": 72,
                    "time": 131.34321199999917,
                    "velocity": 0.36220472440944884,
                    "duration": 0.4264389999999878
                },
                {
                    "name": "C5",
                    "midi": 72,
                    "time": 131.76965099999916,
                    "velocity": 0.3858267716535433,
                    "duration": 0.05330487500000913
                },
                {
                    "name": "D5",
                    "midi": 74,
                    "time": 131.82295587499917,
                    "velocity": 0.41732283464566927,
                    "duration": 0.05330487500000913
                },
                {
                    "name": "E5",
                    "midi": 76,
                    "time": 131.87626074999918,
                    "velocity": 0.4251968503937008,
                    "duration": 0.31982924999999796
                },
                {
                    "name": "F5",
                    "midi": 77,
                    "time": 132.19608999999917,
                    "velocity": 0.4330708661417323,
                    "duration": 0.05330487500000913
                },
                {
                    "name": "G5",
                    "midi": 79,
                    "time": 132.24939487499918,
                    "velocity": 0.44881889763779526,
                    "duration": 0.05330487500000913
                },
                {
                    "name": "A5",
                    "midi": 81,
                    "time": 132.3026997499992,
                    "velocity": 0.4566929133858268,
                    "duration": 0.31982924999999796
                },
                {
                    "name": "A#5",
                    "midi": 82,
                    "time": 132.6225289999992,
                    "velocity": 0.47244094488188976,
                    "duration": 0.05330487500000913
                },
                {
                    "name": "C6",
                    "midi": 84,
                    "time": 132.6758338749992,
                    "velocity": 0.4881889763779528,
                    "duration": 0.05330487500000913
                },
                {
                    "name": "D6",
                    "midi": 86,
                    "time": 132.7291387499992,
                    "velocity": 0.5039370078740157,
                    "duration": 0.31982924999999796
                },
                {
                    "name": "C6",
                    "midi": 84,
                    "time": 133.0489679999992,
                    "velocity": 0.5118110236220472,
                    "duration": 0.4264389999999878
                },
                {
                    "name": "A#5",
                    "midi": 82,
                    "time": 133.4754069999992,
                    "velocity": 0.4409448818897638,
                    "duration": 0.10660974999998984
                },
                {
                    "name": "A5",
                    "midi": 81,
                    "time": 133.58201674999918,
                    "velocity": 0.3779527559055118,
                    "duration": 0.10660974999998984
                },
                {
                    "name": "G5",
                    "midi": 79,
                    "time": 133.68862649999917,
                    "velocity": 0.4330708661417323,
                    "duration": 0.10660974999998984
                },
                {
                    "name": "F5",
                    "midi": 77,
                    "time": 133.79523624999916,
                    "velocity": 0.4015748031496063,
                    "duration": 0.10660974999998984
                },
                {
                    "name": "G5",
                    "midi": 79,
                    "time": 133.90184599999915,
                    "velocity": 0.3937007874015748,
                    "duration": 0.07107316666667884
                },
                {
                    "name": "A5",
                    "midi": 81,
                    "time": 133.97291916666583,
                    "velocity": 0.3543307086614173,
                    "duration": 0.07107316666667884
                },
                {
                    "name": "G5",
                    "midi": 79,
                    "time": 134.0439923333325,
                    "velocity": 0.3937007874015748,
                    "duration": 0.07107316666667884
                },
                {
                    "name": "A5",
                    "midi": 81,
                    "time": 134.1150654999992,
                    "velocity": 0.3543307086614173,
                    "duration": 0.07107316666667884
                },
                {
                    "name": "G5",
                    "midi": 79,
                    "time": 134.18613866666587,
                    "velocity": 0.3937007874015748,
                    "duration": 0.07107316666667884
                },
                {
                    "name": "A5",
                    "midi": 81,
                    "time": 134.25721183333255,
                    "velocity": 0.3543307086614173,
                    "duration": 0.07107316666667884
                },
                {
                    "name": "G5",
                    "midi": 79,
                    "time": 134.32828499999923,
                    "velocity": 0.3937007874015748,
                    "duration": 0.07107316666667884
                },
                {
                    "name": "A5",
                    "midi": 81,
                    "time": 134.3993581666659,
                    "velocity": 0.3543307086614173,
                    "duration": 0.07107316666667884
                },
                {
                    "name": "G5",
                    "midi": 79,
                    "time": 134.47043133333258,
                    "velocity": 0.3937007874015748,
                    "duration": 0.07107316666667884
                },
                {
                    "name": "A5",
                    "midi": 81,
                    "time": 134.54150449999926,
                    "velocity": 0.3543307086614173,
                    "duration": 0.05330487500000913
                },
                {
                    "name": "G5",
                    "midi": 79,
                    "time": 134.59480937499927,
                    "velocity": 0.3937007874015748,
                    "duration": 0.05330487500000913
                },
                {
                    "name": "A5",
                    "midi": 81,
                    "time": 134.64811424999928,
                    "velocity": 0.33858267716535434,
                    "duration": 0.05330487500000913
                },
                {
                    "name": "G5",
                    "midi": 79,
                    "time": 134.7014191249993,
                    "velocity": 0.3543307086614173,
                    "duration": 0.05330487500000913
                },
                {
                    "name": "F5",
                    "midi": 77,
                    "time": 134.7547239999993,
                    "velocity": 0.4645669291338583,
                    "duration": 0.852878000000004
                },
                {
                    "name": "C6",
                    "midi": 84,
                    "time": 135.8208214999993,
                    "velocity": 0.4409448818897638,
                    "duration": 0.2132195000000081
                },
                {
                    "name": "C5",
                    "midi": 72,
                    "time": 136.03404099999932,
                    "velocity": 0.3937007874015748,
                    "duration": 0.2132195000000081
                },
                {
                    "name": "C6",
                    "midi": 84,
                    "time": 136.24726049999933,
                    "velocity": 0.4409448818897638,
                    "duration": 0.2132195000000081
                },
                {
                    "name": "D5",
                    "midi": 74,
                    "time": 136.46047999999934,
                    "velocity": 0.4645669291338583,
                    "duration": 0.2132195000000081
                },
                {
                    "name": "C6",
                    "midi": 84,
                    "time": 136.67369949999934,
                    "velocity": 0.41732283464566927,
                    "duration": 0.2132195000000081
                },
                {
                    "name": "A#5",
                    "midi": 82,
                    "time": 136.88691899999935,
                    "velocity": 0.4015748031496063,
                    "duration": 0.2132195000000081
                },
                {
                    "name": "A5",
                    "midi": 81,
                    "time": 137.10013849999936,
                    "velocity": 0.4251968503937008,
                    "duration": 0.2132195000000081
                },
                {
                    "name": "A#5",
                    "midi": 82,
                    "time": 137.31335799999937,
                    "velocity": 0.4645669291338583,
                    "duration": 0.2132195000000081
                },
                {
                    "name": "G5",
                    "midi": 79,
                    "time": 137.52657749999938,
                    "velocity": 0.4251968503937008,
                    "duration": 0.2132195000000081
                },
                {
                    "name": "F5",
                    "midi": 77,
                    "time": 137.73979699999938,
                    "velocity": 0.4251968503937008,
                    "duration": 0.07107316666667884
                },
                {
                    "name": "G5",
                    "midi": 79,
                    "time": 137.81087016666606,
                    "velocity": 0.3779527559055118,
                    "duration": 0.07107316666667884
                },
                {
                    "name": "F5",
                    "midi": 77,
                    "time": 137.88194333333274,
                    "velocity": 0.3779527559055118,
                    "duration": 0.07107316666667884
                },
                {
                    "name": "E5",
                    "midi": 76,
                    "time": 137.95301649999942,
                    "velocity": 0.36220472440944884,
                    "duration": 0.2132195000000081
                },
                {
                    "name": "F5",
                    "midi": 77,
                    "time": 138.16623599999943,
                    "velocity": 0.4251968503937008,
                    "duration": 0.07107316666667884
                },
                {
                    "name": "G5",
                    "midi": 79,
                    "time": 138.2373091666661,
                    "velocity": 0.3779527559055118,
                    "duration": 0.07107316666667884
                },
                {
                    "name": "F5",
                    "midi": 77,
                    "time": 138.3083823333328,
                    "velocity": 0.3779527559055118,
                    "duration": 0.07107316666667884
                },
                {
                    "name": "E5",
                    "midi": 76,
                    "time": 138.37945549999947,
                    "velocity": 0.36220472440944884,
                    "duration": 0.2132195000000081
                },
                {
                    "name": "F5",
                    "midi": 77,
                    "time": 138.59267499999947,
                    "velocity": 0.4330708661417323,
                    "duration": 0.2132195000000081
                },
                {
                    "name": "A5",
                    "midi": 81,
                    "time": 138.80589449999948,
                    "velocity": 0.3858267716535433,
                    "duration": 0.2132195000000081
                },
                {
                    "name": "F5",
                    "midi": 77,
                    "time": 139.0191139999995,
                    "velocity": 0.4015748031496063,
                    "duration": 0.2132195000000081
                },
                {
                    "name": "C6",
                    "midi": 84,
                    "time": 139.2323334999995,
                    "velocity": 0.4645669291338583,
                    "duration": 0.2132195000000081
                },
                {
                    "name": "C5",
                    "midi": 72,
                    "time": 139.4455529999995,
                    "velocity": 0.4251968503937008,
                    "duration": 0.2132195000000081
                },
                {
                    "name": "C6",
                    "midi": 84,
                    "time": 139.65877249999951,
                    "velocity": 0.4251968503937008,
                    "duration": 0.2132195000000081
                },
                {
                    "name": "D5",
                    "midi": 74,
                    "time": 139.87199199999952,
                    "velocity": 0.4409448818897638,
                    "duration": 0.2132195000000081
                },
                {
                    "name": "C6",
                    "midi": 84,
                    "time": 140.08521149999953,
                    "velocity": 0.41732283464566927,
                    "duration": 0.2132195000000081
                },
                {
                    "name": "A#5",
                    "midi": 82,
                    "time": 140.29843099999954,
                    "velocity": 0.4645669291338583,
                    "duration": 0.2132195000000081
                },
                {
                    "name": "A5",
                    "midi": 81,
                    "time": 140.51165049999955,
                    "velocity": 0.41732283464566927,
                    "duration": 0.2132195000000081
                },
                {
                    "name": "A#5",
                    "midi": 82,
                    "time": 140.72486999999956,
                    "velocity": 0.44881889763779526,
                    "duration": 0.2132195000000081
                },
                {
                    "name": "G5",
                    "midi": 79,
                    "time": 140.93808949999956,
                    "velocity": 0.4251968503937008,
                    "duration": 0.2132195000000081
                },
                {
                    "name": "F5",
                    "midi": 77,
                    "time": 141.15130899999957,
                    "velocity": 0.4251968503937008,
                    "duration": 0.07107316666667884
                },
                {
                    "name": "G5",
                    "midi": 79,
                    "time": 141.22238216666625,
                    "velocity": 0.3779527559055118,
                    "duration": 0.07107316666667884
                },
                {
                    "name": "F5",
                    "midi": 77,
                    "time": 141.29345533333293,
                    "velocity": 0.3779527559055118,
                    "duration": 0.07107316666667884
                },
                {
                    "name": "E5",
                    "midi": 76,
                    "time": 141.3645284999996,
                    "velocity": 0.44881889763779526,
                    "duration": 0.2132195000000081
                },
                {
                    "name": "F5",
                    "midi": 77,
                    "time": 141.57774799999962,
                    "velocity": 0.49606299212598426,
                    "duration": 0.852878000000004
                }
            ],
            "controlChanges": {},
            "id": 1,
            "name": "Piano right",
            "instrumentNumber": 0,
            "instrument": "acoustic grand piano",
            "instrumentFamily": "piano",
            "channelNumber": 0,
            "isPercussion": false
        },
        {
            "startTime": 0,
            "duration": 142.43062600000005,
            "length": 358,
            "notes": [
                {
                    "name": "F3",
                    "midi": 53,
                    "time": 0,
                    "velocity": 0.3543307086614173,
                    "duration": 0.852878
                },
                {
                    "name": "F2",
                    "midi": 41,
                    "time": 0,
                    "velocity": 0.2992125984251969,
                    "duration": 0.852878
                },
                {
                    "name": "F3",
                    "midi": 53,
                    "time": 0.852878,
                    "velocity": 0.3228346456692913,
                    "duration": 0.426439
                },
                {
                    "name": "F2",
                    "midi": 41,
                    "time": 0.852878,
                    "velocity": 0.2677165354330709,
                    "duration": 0.426439
                },
                {
                    "name": "G3",
                    "midi": 55,
                    "time": 1.279317,
                    "velocity": 0.25984251968503935,
                    "duration": 0.426439
                },
                {
                    "name": "G2",
                    "midi": 43,
                    "time": 1.279317,
                    "velocity": 0.2204724409448819,
                    "duration": 0.426439
                },
                {
                    "name": "A3",
                    "midi": 57,
                    "time": 1.705756,
                    "velocity": 0.3228346456692913,
                    "duration": 0.852878
                },
                {
                    "name": "A2",
                    "midi": 45,
                    "time": 1.705756,
                    "velocity": 0.2677165354330709,
                    "duration": 0.852878
                },
                {
                    "name": "A3",
                    "midi": 57,
                    "time": 2.985073,
                    "velocity": 0.2283464566929134,
                    "duration": 0.21321950000000012
                },
                {
                    "name": "C4",
                    "midi": 60,
                    "time": 2.985073,
                    "velocity": 0.2755905511811024,
                    "duration": 0.21321950000000012
                },
                {
                    "name": "D4",
                    "midi": 62,
                    "time": 3.411512,
                    "velocity": 0.25196850393700787,
                    "duration": 0.42643900000000023
                },
                {
                    "name": "A#3",
                    "midi": 58,
                    "time": 3.411512,
                    "velocity": 0.2125984251968504,
                    "duration": 0.42643900000000023
                },
                {
                    "name": "A3",
                    "midi": 57,
                    "time": 3.8379510000000003,
                    "velocity": 0.1889763779527559,
                    "duration": 0.42643900000000023
                },
                {
                    "name": "C4",
                    "midi": 60,
                    "time": 3.8379510000000003,
                    "velocity": 0.2283464566929134,
                    "duration": 0.42643900000000023
                },
                {
                    "name": "C4",
                    "midi": 60,
                    "time": 4.690829000000001,
                    "velocity": 0.2755905511811024,
                    "duration": 0.42643900000000023
                },
                {
                    "name": "A3",
                    "midi": 57,
                    "time": 4.690829000000001,
                    "velocity": 0.2283464566929134,
                    "duration": 0.42643900000000023
                },
                {
                    "name": "D4",
                    "midi": 62,
                    "time": 5.117268000000001,
                    "velocity": 0.25196850393700787,
                    "duration": 0.42643900000000023
                },
                {
                    "name": "A#3",
                    "midi": 58,
                    "time": 5.117268000000001,
                    "velocity": 0.2125984251968504,
                    "duration": 0.42643900000000023
                },
                {
                    "name": "A3",
                    "midi": 57,
                    "time": 5.543707000000001,
                    "velocity": 0.1889763779527559,
                    "duration": 0.42643900000000023
                },
                {
                    "name": "C4",
                    "midi": 60,
                    "time": 5.543707000000001,
                    "velocity": 0.2283464566929134,
                    "duration": 0.42643900000000023
                },
                {
                    "name": "A4",
                    "midi": 69,
                    "time": 6.396585000000002,
                    "velocity": 0.2677165354330709,
                    "duration": 0.42643900000000023
                },
                {
                    "name": "F4",
                    "midi": 65,
                    "time": 6.396585000000002,
                    "velocity": 0.2204724409448819,
                    "duration": 0.42643900000000023
                },
                {
                    "name": "A#4",
                    "midi": 70,
                    "time": 6.823024000000002,
                    "velocity": 0.2992125984251969,
                    "duration": 0.8528780000000005
                },
                {
                    "name": "F4",
                    "midi": 65,
                    "time": 6.823024000000002,
                    "velocity": 0.25196850393700787,
                    "duration": 0.8528780000000005
                },
                {
                    "name": "F4",
                    "midi": 65,
                    "time": 7.6759020000000024,
                    "velocity": 0.28346456692913385,
                    "duration": 0.8528780000000005
                },
                {
                    "name": "A4",
                    "midi": 69,
                    "time": 7.6759020000000024,
                    "velocity": 0.2283464566929134,
                    "duration": 0.8528780000000005
                },
                {
                    "name": "G4",
                    "midi": 67,
                    "time": 8.528780000000003,
                    "velocity": 0.2677165354330709,
                    "duration": 0.42643900000000023
                },
                {
                    "name": "C4",
                    "midi": 60,
                    "time": 8.955219000000003,
                    "velocity": 0.25984251968503935,
                    "duration": 0.42643900000000023
                },
                {
                    "name": "F4",
                    "midi": 65,
                    "time": 9.381658000000003,
                    "velocity": 0.3228346456692913,
                    "duration": 0.42643900000000023
                },
                {
                    "name": "F4",
                    "midi": 65,
                    "time": 9.808097000000004,
                    "velocity": 0.23622047244094488,
                    "duration": 0.42643900000000023
                },
                {
                    "name": "A4",
                    "midi": 69,
                    "time": 9.808097000000004,
                    "velocity": 0.29133858267716534,
                    "duration": 0.42643900000000023
                },
                {
                    "name": "A#4",
                    "midi": 70,
                    "time": 10.234536000000004,
                    "velocity": 0.2992125984251969,
                    "duration": 0.8528780000000005
                },
                {
                    "name": "F4",
                    "midi": 65,
                    "time": 10.234536000000004,
                    "velocity": 0.25196850393700787,
                    "duration": 0.8528780000000005
                },
                {
                    "name": "F4",
                    "midi": 65,
                    "time": 11.087414000000004,
                    "velocity": 0.2283464566929134,
                    "duration": 0.42643900000000023
                },
                {
                    "name": "A4",
                    "midi": 69,
                    "time": 11.087414000000004,
                    "velocity": 0.28346456692913385,
                    "duration": 0.42643900000000023
                },
                {
                    "name": "F3",
                    "midi": 53,
                    "time": 11.513853000000005,
                    "velocity": 0.2283464566929134,
                    "duration": 0.42643900000000023
                },
                {
                    "name": "F4",
                    "midi": 65,
                    "time": 11.513853000000005,
                    "velocity": 0.28346456692913385,
                    "duration": 0.42643900000000023
                },
                {
                    "name": "E4",
                    "midi": 64,
                    "time": 11.940292000000005,
                    "velocity": 0.3228346456692913,
                    "duration": 0.8528780000000005
                },
                {
                    "name": "E3",
                    "midi": 52,
                    "time": 11.940292000000005,
                    "velocity": 0.2677165354330709,
                    "duration": 0.8528780000000005
                },
                {
                    "name": "F4",
                    "midi": 65,
                    "time": 13.219609000000005,
                    "velocity": 0.2677165354330709,
                    "duration": 0.42643900000000023
                },
                {
                    "name": "F3",
                    "midi": 53,
                    "time": 13.219609000000005,
                    "velocity": 0.2204724409448819,
                    "duration": 0.42643900000000023
                },
                {
                    "name": "E4",
                    "midi": 64,
                    "time": 13.646048000000006,
                    "velocity": 0.3228346456692913,
                    "duration": 0.8528780000000005
                },
                {
                    "name": "E3",
                    "midi": 52,
                    "time": 13.646048000000006,
                    "velocity": 0.2677165354330709,
                    "duration": 0.8528780000000005
                },
                {
                    "name": "F4",
                    "midi": 65,
                    "time": 14.925365000000006,
                    "velocity": 0.2677165354330709,
                    "duration": 0.42643900000000023
                },
                {
                    "name": "F3",
                    "midi": 53,
                    "time": 14.925365000000006,
                    "velocity": 0.2204724409448819,
                    "duration": 0.42643900000000023
                },
                {
                    "name": "E4",
                    "midi": 64,
                    "time": 15.351804000000007,
                    "velocity": 0.36220472440944884,
                    "duration": 0.42643900000000023
                },
                {
                    "name": "E3",
                    "midi": 52,
                    "time": 15.351804000000007,
                    "velocity": 0.30708661417322836,
                    "duration": 0.42643900000000023
                },
                {
                    "name": "F4",
                    "midi": 65,
                    "time": 15.778243000000007,
                    "velocity": 0.30708661417322836,
                    "duration": 0.42643899999999846
                },
                {
                    "name": "F3",
                    "midi": 53,
                    "time": 15.778243000000007,
                    "velocity": 0.25984251968503935,
                    "duration": 0.42643899999999846
                },
                {
                    "name": "G4",
                    "midi": 67,
                    "time": 16.204682000000005,
                    "velocity": 0.33070866141732286,
                    "duration": 0.42643899999999846
                },
                {
                    "name": "G3",
                    "midi": 55,
                    "time": 16.631121000000004,
                    "velocity": 0.3228346456692913,
                    "duration": 0.42643899999999846
                },
                {
                    "name": "C4",
                    "midi": 60,
                    "time": 17.057560000000002,
                    "velocity": 0.3543307086614173,
                    "duration": 0.42643899999999846
                },
                {
                    "name": "G3",
                    "midi": 55,
                    "time": 17.483999,
                    "velocity": 0.33070866141732286,
                    "duration": 0.1066097500000005
                },
                {
                    "name": "C3",
                    "midi": 48,
                    "time": 17.910438000000003,
                    "velocity": 0.3779527559055118,
                    "duration": 0.42643899999999846
                },
                {
                    "name": "E2",
                    "midi": 40,
                    "time": 18.336877,
                    "velocity": 0.31496062992125984,
                    "duration": 0.42643899999999846
                },
                {
                    "name": "E3",
                    "midi": 52,
                    "time": 18.336877,
                    "velocity": 0.3779527559055118,
                    "duration": 0.42643899999999846
                },
                {
                    "name": "F2",
                    "midi": 41,
                    "time": 18.763316,
                    "velocity": 0.31496062992125984,
                    "duration": 0.42643899999999846
                },
                {
                    "name": "F3",
                    "midi": 53,
                    "time": 18.763316,
                    "velocity": 0.3779527559055118,
                    "duration": 0.42643899999999846
                },
                {
                    "name": "F3",
                    "midi": 53,
                    "time": 19.616193999999997,
                    "velocity": 0.36220472440944884,
                    "duration": 0.42643899999999846
                },
                {
                    "name": "F2",
                    "midi": 41,
                    "time": 19.616193999999997,
                    "velocity": 0.30708661417322836,
                    "duration": 0.42643899999999846
                },
                {
                    "name": "G3",
                    "midi": 55,
                    "time": 20.042632999999995,
                    "velocity": 0.3543307086614173,
                    "duration": 0.42643899999999846
                },
                {
                    "name": "G2",
                    "midi": 43,
                    "time": 20.042632999999995,
                    "velocity": 0.2992125984251969,
                    "duration": 0.42643899999999846
                },
                {
                    "name": "A2",
                    "midi": 45,
                    "time": 20.469071999999993,
                    "velocity": 0.31496062992125984,
                    "duration": 1.279316999999999
                },
                {
                    "name": "A3",
                    "midi": 57,
                    "time": 20.469071999999993,
                    "velocity": 0.3779527559055118,
                    "duration": 1.279316999999999
                },
                {
                    "name": "E3",
                    "midi": 52,
                    "time": 21.748388999999992,
                    "velocity": 0.3543307086614173,
                    "duration": 0.42643899999999846
                },
                {
                    "name": "E2",
                    "midi": 40,
                    "time": 21.748388999999992,
                    "velocity": 0.2992125984251969,
                    "duration": 0.42643899999999846
                },
                {
                    "name": "F2",
                    "midi": 41,
                    "time": 22.17482799999999,
                    "velocity": 0.31496062992125984,
                    "duration": 1.279316999999999
                },
                {
                    "name": "F3",
                    "midi": 53,
                    "time": 22.17482799999999,
                    "velocity": 0.3779527559055118,
                    "duration": 1.279316999999999
                },
                {
                    "name": "G3",
                    "midi": 55,
                    "time": 23.45414499999999,
                    "velocity": 0.36220472440944884,
                    "duration": 0.42643899999999846
                },
                {
                    "name": "G2",
                    "midi": 43,
                    "time": 23.45414499999999,
                    "velocity": 0.30708661417322836,
                    "duration": 0.42643899999999846
                },
                {
                    "name": "C3",
                    "midi": 48,
                    "time": 23.88058399999999,
                    "velocity": 0.3937007874015748,
                    "duration": 0.42643899999999846
                },
                {
                    "name": "G2",
                    "midi": 43,
                    "time": 24.307022999999987,
                    "velocity": 0.3543307086614173,
                    "duration": 0.1066097500000005
                },
                {
                    "name": "C2",
                    "midi": 36,
                    "time": 24.73346199999999,
                    "velocity": 0.3858267716535433,
                    "duration": 0.42643899999999846
                },
                {
                    "name": "F3",
                    "midi": 53,
                    "time": 25.586339999999986,
                    "velocity": 0.3543307086614173,
                    "duration": 0.8528780000000005
                },
                {
                    "name": "F2",
                    "midi": 41,
                    "time": 25.586339999999986,
                    "velocity": 0.2992125984251969,
                    "duration": 0.8528780000000005
                },
                {
                    "name": "F3",
                    "midi": 53,
                    "time": 26.439217999999986,
                    "velocity": 0.3228346456692913,
                    "duration": 0.42643899999999846
                },
                {
                    "name": "F2",
                    "midi": 41,
                    "time": 26.439217999999986,
                    "velocity": 0.2677165354330709,
                    "duration": 0.42643899999999846
                },
                {
                    "name": "G3",
                    "midi": 55,
                    "time": 26.865656999999985,
                    "velocity": 0.25984251968503935,
                    "duration": 0.42643899999999846
                },
                {
                    "name": "G2",
                    "midi": 43,
                    "time": 26.865656999999985,
                    "velocity": 0.2204724409448819,
                    "duration": 0.42643899999999846
                },
                {
                    "name": "A3",
                    "midi": 57,
                    "time": 27.292095999999983,
                    "velocity": 0.3228346456692913,
                    "duration": 0.8528780000000005
                },
                {
                    "name": "A2",
                    "midi": 45,
                    "time": 27.292095999999983,
                    "velocity": 0.2677165354330709,
                    "duration": 0.8528780000000005
                },
                {
                    "name": "A3",
                    "midi": 57,
                    "time": 28.571412999999982,
                    "velocity": 0.2283464566929134,
                    "duration": 0.213219500000001
                },
                {
                    "name": "C4",
                    "midi": 60,
                    "time": 28.571412999999982,
                    "velocity": 0.2755905511811024,
                    "duration": 0.213219500000001
                },
                {
                    "name": "D4",
                    "midi": 62,
                    "time": 28.997851999999984,
                    "velocity": 0.25196850393700787,
                    "duration": 0.42643899999999846
                },
                {
                    "name": "A#3",
                    "midi": 58,
                    "time": 28.997851999999984,
                    "velocity": 0.2125984251968504,
                    "duration": 0.42643899999999846
                },
                {
                    "name": "A3",
                    "midi": 57,
                    "time": 29.424290999999982,
                    "velocity": 0.1889763779527559,
                    "duration": 0.42643899999999846
                },
                {
                    "name": "C4",
                    "midi": 60,
                    "time": 29.424290999999982,
                    "velocity": 0.2283464566929134,
                    "duration": 0.42643899999999846
                },
                {
                    "name": "C4",
                    "midi": 60,
                    "time": 30.27716899999998,
                    "velocity": 0.2755905511811024,
                    "duration": 0.42643899999999846
                },
                {
                    "name": "A3",
                    "midi": 57,
                    "time": 30.27716899999998,
                    "velocity": 0.2283464566929134,
                    "duration": 0.42643899999999846
                },
                {
                    "name": "D4",
                    "midi": 62,
                    "time": 30.703607999999978,
                    "velocity": 0.25196850393700787,
                    "duration": 0.42643899999999846
                },
                {
                    "name": "A#3",
                    "midi": 58,
                    "time": 30.703607999999978,
                    "velocity": 0.2125984251968504,
                    "duration": 0.42643899999999846
                },
                {
                    "name": "A3",
                    "midi": 57,
                    "time": 31.130046999999976,
                    "velocity": 0.1889763779527559,
                    "duration": 0.42643899999999846
                },
                {
                    "name": "C4",
                    "midi": 60,
                    "time": 31.130046999999976,
                    "velocity": 0.2283464566929134,
                    "duration": 0.42643899999999846
                },
                {
                    "name": "A4",
                    "midi": 69,
                    "time": 31.982924999999973,
                    "velocity": 0.2677165354330709,
                    "duration": 0.426439000000002
                },
                {
                    "name": "F4",
                    "midi": 65,
                    "time": 31.982924999999973,
                    "velocity": 0.2204724409448819,
                    "duration": 0.426439000000002
                },
                {
                    "name": "A#4",
                    "midi": 70,
                    "time": 32.409363999999975,
                    "velocity": 0.2992125984251969,
                    "duration": 0.8528779999999969
                },
                {
                    "name": "F4",
                    "midi": 65,
                    "time": 32.409363999999975,
                    "velocity": 0.25196850393700787,
                    "duration": 0.8528779999999969
                },
                {
                    "name": "F4",
                    "midi": 65,
                    "time": 33.26224199999997,
                    "velocity": 0.28346456692913385,
                    "duration": 0.8528779999999969
                },
                {
                    "name": "A4",
                    "midi": 69,
                    "time": 33.26224199999997,
                    "velocity": 0.2283464566929134,
                    "duration": 0.8528779999999969
                },
                {
                    "name": "G4",
                    "midi": 67,
                    "time": 34.11511999999997,
                    "velocity": 0.2677165354330709,
                    "duration": 0.426439000000002
                },
                {
                    "name": "C4",
                    "midi": 60,
                    "time": 34.54155899999997,
                    "velocity": 0.25984251968503935,
                    "duration": 0.426439000000002
                },
                {
                    "name": "F4",
                    "midi": 65,
                    "time": 34.96799799999997,
                    "velocity": 0.3228346456692913,
                    "duration": 0.426439000000002
                },
                {
                    "name": "F4",
                    "midi": 65,
                    "time": 35.394436999999975,
                    "velocity": 0.23622047244094488,
                    "duration": 0.426439000000002
                },
                {
                    "name": "A4",
                    "midi": 69,
                    "time": 35.394436999999975,
                    "velocity": 0.29133858267716534,
                    "duration": 0.426439000000002
                },
                {
                    "name": "A#4",
                    "midi": 70,
                    "time": 35.82087599999998,
                    "velocity": 0.2992125984251969,
                    "duration": 0.8528779999999969
                },
                {
                    "name": "F4",
                    "midi": 65,
                    "time": 35.82087599999998,
                    "velocity": 0.25196850393700787,
                    "duration": 0.8528779999999969
                },
                {
                    "name": "F4",
                    "midi": 65,
                    "time": 36.673753999999974,
                    "velocity": 0.2283464566929134,
                    "duration": 0.426439000000002
                },
                {
                    "name": "A4",
                    "midi": 69,
                    "time": 36.673753999999974,
                    "velocity": 0.28346456692913385,
                    "duration": 0.426439000000002
                },
                {
                    "name": "F3",
                    "midi": 53,
                    "time": 37.100192999999976,
                    "velocity": 0.2283464566929134,
                    "duration": 0.426439000000002
                },
                {
                    "name": "F4",
                    "midi": 65,
                    "time": 37.100192999999976,
                    "velocity": 0.28346456692913385,
                    "duration": 0.426439000000002
                },
                {
                    "name": "E4",
                    "midi": 64,
                    "time": 37.52663199999998,
                    "velocity": 0.3228346456692913,
                    "duration": 0.8528779999999969
                },
                {
                    "name": "E3",
                    "midi": 52,
                    "time": 37.52663199999998,
                    "velocity": 0.2677165354330709,
                    "duration": 0.8528779999999969
                },
                {
                    "name": "F4",
                    "midi": 65,
                    "time": 38.80594899999998,
                    "velocity": 0.2677165354330709,
                    "duration": 0.426439000000002
                },
                {
                    "name": "F3",
                    "midi": 53,
                    "time": 38.80594899999998,
                    "velocity": 0.2204724409448819,
                    "duration": 0.426439000000002
                },
                {
                    "name": "E4",
                    "midi": 64,
                    "time": 39.23238799999998,
                    "velocity": 0.3228346456692913,
                    "duration": 0.8528779999999969
                },
                {
                    "name": "E3",
                    "midi": 52,
                    "time": 39.23238799999998,
                    "velocity": 0.2677165354330709,
                    "duration": 0.8528779999999969
                },
                {
                    "name": "F4",
                    "midi": 65,
                    "time": 40.51170499999998,
                    "velocity": 0.2677165354330709,
                    "duration": 0.426439000000002
                },
                {
                    "name": "F3",
                    "midi": 53,
                    "time": 40.51170499999998,
                    "velocity": 0.2204724409448819,
                    "duration": 0.426439000000002
                },
                {
                    "name": "E4",
                    "midi": 64,
                    "time": 40.93814399999998,
                    "velocity": 0.36220472440944884,
                    "duration": 0.426439000000002
                },
                {
                    "name": "E3",
                    "midi": 52,
                    "time": 40.93814399999998,
                    "velocity": 0.30708661417322836,
                    "duration": 0.426439000000002
                },
                {
                    "name": "F4",
                    "midi": 65,
                    "time": 41.36458299999998,
                    "velocity": 0.30708661417322836,
                    "duration": 0.426439000000002
                },
                {
                    "name": "F3",
                    "midi": 53,
                    "time": 41.36458299999998,
                    "velocity": 0.25984251968503935,
                    "duration": 0.426439000000002
                },
                {
                    "name": "G4",
                    "midi": 67,
                    "time": 41.791021999999984,
                    "velocity": 0.33070866141732286,
                    "duration": 0.426439000000002
                },
                {
                    "name": "G3",
                    "midi": 55,
                    "time": 42.217460999999986,
                    "velocity": 0.3228346456692913,
                    "duration": 0.426439000000002
                },
                {
                    "name": "C4",
                    "midi": 60,
                    "time": 42.64389999999999,
                    "velocity": 0.3543307086614173,
                    "duration": 0.426439000000002
                },
                {
                    "name": "G3",
                    "midi": 55,
                    "time": 43.07033899999999,
                    "velocity": 0.33070866141732286,
                    "duration": 0.10660974999999695
                },
                {
                    "name": "C3",
                    "midi": 48,
                    "time": 43.496777999999985,
                    "velocity": 0.3779527559055118,
                    "duration": 0.426439000000002
                },
                {
                    "name": "E2",
                    "midi": 40,
                    "time": 43.92321699999999,
                    "velocity": 0.31496062992125984,
                    "duration": 0.426439000000002
                },
                {
                    "name": "E3",
                    "midi": 52,
                    "time": 43.92321699999999,
                    "velocity": 0.3779527559055118,
                    "duration": 0.426439000000002
                },
                {
                    "name": "F2",
                    "midi": 41,
                    "time": 44.34965599999999,
                    "velocity": 0.31496062992125984,
                    "duration": 0.426439000000002
                },
                {
                    "name": "F3",
                    "midi": 53,
                    "time": 44.34965599999999,
                    "velocity": 0.3779527559055118,
                    "duration": 0.426439000000002
                },
                {
                    "name": "F3",
                    "midi": 53,
                    "time": 45.20253399999999,
                    "velocity": 0.36220472440944884,
                    "duration": 0.426439000000002
                },
                {
                    "name": "F2",
                    "midi": 41,
                    "time": 45.20253399999999,
                    "velocity": 0.30708661417322836,
                    "duration": 0.426439000000002
                },
                {
                    "name": "G3",
                    "midi": 55,
                    "time": 45.628972999999995,
                    "velocity": 0.3543307086614173,
                    "duration": 0.426439000000002
                },
                {
                    "name": "G2",
                    "midi": 43,
                    "time": 45.628972999999995,
                    "velocity": 0.2992125984251969,
                    "duration": 0.426439000000002
                },
                {
                    "name": "A2",
                    "midi": 45,
                    "time": 46.055412,
                    "velocity": 0.31496062992125984,
                    "duration": 1.279316999999999
                },
                {
                    "name": "A3",
                    "midi": 57,
                    "time": 46.055412,
                    "velocity": 0.3779527559055118,
                    "duration": 1.279316999999999
                },
                {
                    "name": "E3",
                    "midi": 52,
                    "time": 47.334728999999996,
                    "velocity": 0.3543307086614173,
                    "duration": 0.426439000000002
                },
                {
                    "name": "E2",
                    "midi": 40,
                    "time": 47.334728999999996,
                    "velocity": 0.2992125984251969,
                    "duration": 0.426439000000002
                },
                {
                    "name": "F2",
                    "midi": 41,
                    "time": 47.761168,
                    "velocity": 0.31496062992125984,
                    "duration": 1.279316999999999
                },
                {
                    "name": "F3",
                    "midi": 53,
                    "time": 47.761168,
                    "velocity": 0.3779527559055118,
                    "duration": 1.279316999999999
                },
                {
                    "name": "G3",
                    "midi": 55,
                    "time": 49.040485,
                    "velocity": 0.36220472440944884,
                    "duration": 0.426439000000002
                },
                {
                    "name": "G2",
                    "midi": 43,
                    "time": 49.040485,
                    "velocity": 0.30708661417322836,
                    "duration": 0.426439000000002
                },
                {
                    "name": "C3",
                    "midi": 48,
                    "time": 49.466924,
                    "velocity": 0.3937007874015748,
                    "duration": 0.426439000000002
                },
                {
                    "name": "G2",
                    "midi": 43,
                    "time": 49.893363,
                    "velocity": 0.3543307086614173,
                    "duration": 0.10660974999999695
                },
                {
                    "name": "C2",
                    "midi": 36,
                    "time": 50.319801999999996,
                    "velocity": 0.3858267716535433,
                    "duration": 0.426439000000002
                },
                {
                    "name": "C3",
                    "midi": 48,
                    "time": 51.17268,
                    "velocity": 0.3543307086614173,
                    "duration": 0.8528779999999969
                },
                {
                    "name": "C2",
                    "midi": 36,
                    "time": 51.17268,
                    "velocity": 0.2992125984251969,
                    "duration": 0.8528779999999969
                },
                {
                    "name": "C4",
                    "midi": 60,
                    "time": 52.025558,
                    "velocity": 0.3228346456692913,
                    "duration": 0.426439000000002
                },
                {
                    "name": "D4",
                    "midi": 62,
                    "time": 52.451997,
                    "velocity": 0.25984251968503935,
                    "duration": 0.426439000000002
                },
                {
                    "name": "E4",
                    "midi": 64,
                    "time": 52.878436,
                    "velocity": 0.3228346456692913,
                    "duration": 0.8528779999999969
                },
                {
                    "name": "C3",
                    "midi": 48,
                    "time": 54.584191999999994,
                    "velocity": 0.2204724409448819,
                    "duration": 0.8528779999999969
                },
                {
                    "name": "C2",
                    "midi": 36,
                    "time": 54.584191999999994,
                    "velocity": 0.1889763779527559,
                    "duration": 0.8528779999999969
                },
                {
                    "name": "D4",
                    "midi": 62,
                    "time": 55.43706999999999,
                    "velocity": 0.3228346456692913,
                    "duration": 0.426439000000002
                },
                {
                    "name": "E4",
                    "midi": 64,
                    "time": 55.86350899999999,
                    "velocity": 0.25984251968503935,
                    "duration": 0.426439000000002
                },
                {
                    "name": "F4",
                    "midi": 65,
                    "time": 56.289947999999995,
                    "velocity": 0.3228346456692913,
                    "duration": 0.8528779999999969
                },
                {
                    "name": "C3",
                    "midi": 48,
                    "time": 57.99570399999999,
                    "velocity": 0.25196850393700787,
                    "duration": 0.8528779999999969
                },
                {
                    "name": "C2",
                    "midi": 36,
                    "time": 57.99570399999999,
                    "velocity": 0.2125984251968504,
                    "duration": 0.8528779999999969
                },
                {
                    "name": "E4",
                    "midi": 64,
                    "time": 58.848581999999986,
                    "velocity": 0.3228346456692913,
                    "duration": 0.426439000000002
                },
                {
                    "name": "F4",
                    "midi": 65,
                    "time": 59.27502099999999,
                    "velocity": 0.25984251968503935,
                    "duration": 0.426439000000002
                },
                {
                    "name": "G4",
                    "midi": 67,
                    "time": 59.70145999999999,
                    "velocity": 0.3228346456692913,
                    "duration": 0.8528779999999969
                },
                {
                    "name": "F2",
                    "midi": 41,
                    "time": 61.407215999999984,
                    "velocity": 0.2755905511811024,
                    "duration": 0.8528779999999969
                },
                {
                    "name": "C4",
                    "midi": 60,
                    "time": 62.68653299999998,
                    "velocity": 0.2755905511811024,
                    "duration": 0.426439000000002
                },
                {
                    "name": "A3",
                    "midi": 57,
                    "time": 62.68653299999998,
                    "velocity": 0.2283464566929134,
                    "duration": 0.426439000000002
                },
                {
                    "name": "D4",
                    "midi": 62,
                    "time": 63.112971999999985,
                    "velocity": 0.25196850393700787,
                    "duration": 0.426439000000002
                },
                {
                    "name": "A#3",
                    "midi": 58,
                    "time": 63.112971999999985,
                    "velocity": 0.2125984251968504,
                    "duration": 0.426439000000002
                },
                {
                    "name": "A3",
                    "midi": 57,
                    "time": 63.53941099999999,
                    "velocity": 0.1889763779527559,
                    "duration": 0.426439000000002
                },
                {
                    "name": "C4",
                    "midi": 60,
                    "time": 63.53941099999999,
                    "velocity": 0.2283464566929134,
                    "duration": 0.426439000000002
                },
                {
                    "name": "C4",
                    "midi": 60,
                    "time": 64.39228899999999,
                    "velocity": 0.2755905511811024,
                    "duration": 0.426439000000002
                },
                {
                    "name": "A3",
                    "midi": 57,
                    "time": 64.39228899999999,
                    "velocity": 0.2283464566929134,
                    "duration": 0.426439000000002
                },
                {
                    "name": "D4",
                    "midi": 62,
                    "time": 64.818728,
                    "velocity": 0.25196850393700787,
                    "duration": 0.426439000000002
                },
                {
                    "name": "A#3",
                    "midi": 58,
                    "time": 64.818728,
                    "velocity": 0.2125984251968504,
                    "duration": 0.426439000000002
                },
                {
                    "name": "A3",
                    "midi": 57,
                    "time": 65.245167,
                    "velocity": 0.1889763779527559,
                    "duration": 0.426439000000002
                },
                {
                    "name": "C4",
                    "midi": 60,
                    "time": 65.245167,
                    "velocity": 0.2283464566929134,
                    "duration": 0.426439000000002
                },
                {
                    "name": "A2",
                    "midi": 45,
                    "time": 66.098045,
                    "velocity": 0.31496062992125984,
                    "duration": 0.426439000000002
                },
                {
                    "name": "A3",
                    "midi": 57,
                    "time": 66.098045,
                    "velocity": 0.3779527559055118,
                    "duration": 0.426439000000002
                },
                {
                    "name": "A#2",
                    "midi": 46,
                    "time": 66.524484,
                    "velocity": 0.31496062992125984,
                    "duration": 0.852878000000004
                },
                {
                    "name": "A#3",
                    "midi": 58,
                    "time": 66.524484,
                    "velocity": 0.3779527559055118,
                    "duration": 0.852878000000004
                },
                {
                    "name": "G3",
                    "midi": 55,
                    "time": 67.377362,
                    "velocity": 0.36220472440944884,
                    "duration": 0.852878000000004
                },
                {
                    "name": "G2",
                    "midi": 43,
                    "time": 67.377362,
                    "velocity": 0.30708661417322836,
                    "duration": 0.852878000000004
                },
                {
                    "name": "E2",
                    "midi": 40,
                    "time": 68.23024000000001,
                    "velocity": 0.31496062992125984,
                    "duration": 0.852878000000004
                },
                {
                    "name": "E3",
                    "midi": 52,
                    "time": 68.23024000000001,
                    "velocity": 0.3779527559055118,
                    "duration": 0.852878000000004
                },
                {
                    "name": "F2",
                    "midi": 41,
                    "time": 69.08311800000001,
                    "velocity": 0.30708661417322836,
                    "duration": 0.852878000000004
                },
                {
                    "name": "F3",
                    "midi": 53,
                    "time": 69.08311800000001,
                    "velocity": 0.36220472440944884,
                    "duration": 0.852878000000004
                },
                {
                    "name": "A#3",
                    "midi": 58,
                    "time": 69.93599600000002,
                    "velocity": 0.3779527559055118,
                    "duration": 1.279317000000006
                },
                {
                    "name": "A#2",
                    "midi": 46,
                    "time": 69.93599600000002,
                    "velocity": 0.31496062992125984,
                    "duration": 1.279317000000006
                },
                {
                    "name": "B3",
                    "midi": 59,
                    "time": 71.21531300000002,
                    "velocity": 0.3228346456692913,
                    "duration": 0.426439000000002
                },
                {
                    "name": "B2",
                    "midi": 47,
                    "time": 71.21531300000002,
                    "velocity": 0.2677165354330709,
                    "duration": 0.426439000000002
                },
                {
                    "name": "C3",
                    "midi": 48,
                    "time": 71.64175200000003,
                    "velocity": 0.33070866141732286,
                    "duration": 0.852878000000004
                },
                {
                    "name": "C4",
                    "midi": 60,
                    "time": 71.64175200000003,
                    "velocity": 0.3937007874015748,
                    "duration": 0.852878000000004
                },
                {
                    "name": "F3",
                    "midi": 53,
                    "time": 73.34750800000003,
                    "velocity": 0.3543307086614173,
                    "duration": 0.852878000000004
                },
                {
                    "name": "F2",
                    "midi": 41,
                    "time": 73.34750800000003,
                    "velocity": 0.2992125984251969,
                    "duration": 0.852878000000004
                },
                {
                    "name": "F3",
                    "midi": 53,
                    "time": 74.20038600000004,
                    "velocity": 0.3228346456692913,
                    "duration": 0.426439000000002
                },
                {
                    "name": "F2",
                    "midi": 41,
                    "time": 74.20038600000004,
                    "velocity": 0.2677165354330709,
                    "duration": 0.426439000000002
                },
                {
                    "name": "G3",
                    "midi": 55,
                    "time": 74.62682500000004,
                    "velocity": 0.25984251968503935,
                    "duration": 0.426439000000002
                },
                {
                    "name": "G2",
                    "midi": 43,
                    "time": 74.62682500000004,
                    "velocity": 0.2204724409448819,
                    "duration": 0.426439000000002
                },
                {
                    "name": "A3",
                    "midi": 57,
                    "time": 75.05326400000004,
                    "velocity": 0.3228346456692913,
                    "duration": 0.852878000000004
                },
                {
                    "name": "A2",
                    "midi": 45,
                    "time": 75.05326400000004,
                    "velocity": 0.2677165354330709,
                    "duration": 0.852878000000004
                },
                {
                    "name": "A3",
                    "midi": 57,
                    "time": 76.33258100000005,
                    "velocity": 0.2283464566929134,
                    "duration": 0.2132194999999939
                },
                {
                    "name": "C4",
                    "midi": 60,
                    "time": 76.33258100000005,
                    "velocity": 0.2755905511811024,
                    "duration": 0.2132194999999939
                },
                {
                    "name": "D4",
                    "midi": 62,
                    "time": 76.75902000000004,
                    "velocity": 0.25196850393700787,
                    "duration": 0.426439000000002
                },
                {
                    "name": "A#3",
                    "midi": 58,
                    "time": 76.75902000000004,
                    "velocity": 0.2125984251968504,
                    "duration": 0.426439000000002
                },
                {
                    "name": "A3",
                    "midi": 57,
                    "time": 77.18545900000004,
                    "velocity": 0.1889763779527559,
                    "duration": 0.426439000000002
                },
                {
                    "name": "C4",
                    "midi": 60,
                    "time": 77.18545900000004,
                    "velocity": 0.2283464566929134,
                    "duration": 0.426439000000002
                },
                {
                    "name": "C4",
                    "midi": 60,
                    "time": 78.03833700000004,
                    "velocity": 0.2755905511811024,
                    "duration": 0.426439000000002
                },
                {
                    "name": "A3",
                    "midi": 57,
                    "time": 78.03833700000004,
                    "velocity": 0.2283464566929134,
                    "duration": 0.426439000000002
                },
                {
                    "name": "D4",
                    "midi": 62,
                    "time": 78.46477600000004,
                    "velocity": 0.25196850393700787,
                    "duration": 0.426439000000002
                },
                {
                    "name": "A#3",
                    "midi": 58,
                    "time": 78.46477600000004,
                    "velocity": 0.2125984251968504,
                    "duration": 0.426439000000002
                },
                {
                    "name": "A3",
                    "midi": 57,
                    "time": 78.89121500000005,
                    "velocity": 0.1889763779527559,
                    "duration": 0.426439000000002
                },
                {
                    "name": "C4",
                    "midi": 60,
                    "time": 78.89121500000005,
                    "velocity": 0.2283464566929134,
                    "duration": 0.426439000000002
                },
                {
                    "name": "A4",
                    "midi": 69,
                    "time": 79.74409300000005,
                    "velocity": 0.2677165354330709,
                    "duration": 0.426439000000002
                },
                {
                    "name": "F4",
                    "midi": 65,
                    "time": 79.74409300000005,
                    "velocity": 0.2204724409448819,
                    "duration": 0.426439000000002
                },
                {
                    "name": "A#4",
                    "midi": 70,
                    "time": 80.17053200000005,
                    "velocity": 0.2992125984251969,
                    "duration": 0.852878000000004
                },
                {
                    "name": "F4",
                    "midi": 65,
                    "time": 80.17053200000005,
                    "velocity": 0.25196850393700787,
                    "duration": 0.852878000000004
                },
                {
                    "name": "F4",
                    "midi": 65,
                    "time": 81.02341000000006,
                    "velocity": 0.28346456692913385,
                    "duration": 0.852878000000004
                },
                {
                    "name": "A4",
                    "midi": 69,
                    "time": 81.02341000000006,
                    "velocity": 0.2283464566929134,
                    "duration": 0.852878000000004
                },
                {
                    "name": "G4",
                    "midi": 67,
                    "time": 81.87628800000006,
                    "velocity": 0.2677165354330709,
                    "duration": 0.426439000000002
                },
                {
                    "name": "C4",
                    "midi": 60,
                    "time": 82.30272700000006,
                    "velocity": 0.25984251968503935,
                    "duration": 0.426439000000002
                },
                {
                    "name": "F4",
                    "midi": 65,
                    "time": 82.72916600000006,
                    "velocity": 0.3228346456692913,
                    "duration": 0.426439000000002
                },
                {
                    "name": "A#4",
                    "midi": 70,
                    "time": 83.15560500000007,
                    "velocity": 0.29133858267716534,
                    "duration": 0.426439000000002
                },
                {
                    "name": "A4",
                    "midi": 69,
                    "time": 83.58204400000007,
                    "velocity": 0.3228346456692913,
                    "duration": 0.5286066770833315
                },
                {
                    "name": "A#3",
                    "midi": 58,
                    "time": 84.86136100000006,
                    "velocity": 0.2677165354330709,
                    "duration": 0.426439000000002
                },
                {
                    "name": "A#2",
                    "midi": 46,
                    "time": 84.86136100000006,
                    "velocity": 0.2204724409448819,
                    "duration": 0.426439000000002
                },
                {
                    "name": "A3",
                    "midi": 57,
                    "time": 85.28780000000006,
                    "velocity": 0.3228346456692913,
                    "duration": 0.852878000000004
                },
                {
                    "name": "A2",
                    "midi": 45,
                    "time": 85.28780000000006,
                    "velocity": 0.2677165354330709,
                    "duration": 0.852878000000004
                },
                {
                    "name": "A#3",
                    "midi": 58,
                    "time": 86.56711700000007,
                    "velocity": 0.2677165354330709,
                    "duration": 0.426439000000002
                },
                {
                    "name": "A#2",
                    "midi": 46,
                    "time": 86.56711700000007,
                    "velocity": 0.2204724409448819,
                    "duration": 0.426439000000002
                },
                {
                    "name": "A3",
                    "midi": 57,
                    "time": 86.99355600000007,
                    "velocity": 0.36220472440944884,
                    "duration": 0.426439000000002
                },
                {
                    "name": "A2",
                    "midi": 45,
                    "time": 86.99355600000007,
                    "velocity": 0.30708661417322836,
                    "duration": 0.426439000000002
                },
                {
                    "name": "A#3",
                    "midi": 58,
                    "time": 87.41999500000007,
                    "velocity": 0.30708661417322836,
                    "duration": 0.426439000000002
                },
                {
                    "name": "A#2",
                    "midi": 46,
                    "time": 87.41999500000007,
                    "velocity": 0.25984251968503935,
                    "duration": 0.426439000000002
                },
                {
                    "name": "C4",
                    "midi": 60,
                    "time": 87.84643400000007,
                    "velocity": 0.33070866141732286,
                    "duration": 0.426439000000002
                },
                {
                    "name": "C3",
                    "midi": 48,
                    "time": 88.27287300000008,
                    "velocity": 0.3228346456692913,
                    "duration": 0.426439000000002
                },
                {
                    "name": "F3",
                    "midi": 53,
                    "time": 88.69931200000008,
                    "velocity": 0.3543307086614173,
                    "duration": 0.426439000000002
                },
                {
                    "name": "C3",
                    "midi": 48,
                    "time": 89.12575100000008,
                    "velocity": 0.33070866141732286,
                    "duration": 0.10660975000000406
                },
                {
                    "name": "F2",
                    "midi": 41,
                    "time": 89.55219000000008,
                    "velocity": 0.3779527559055118,
                    "duration": 0.426439000000002
                },
                {
                    "name": "A2",
                    "midi": 45,
                    "time": 89.97862900000008,
                    "velocity": 0.31496062992125984,
                    "duration": 0.426439000000002
                },
                {
                    "name": "A3",
                    "midi": 57,
                    "time": 89.97862900000008,
                    "velocity": 0.3779527559055118,
                    "duration": 0.426439000000002
                },
                {
                    "name": "A#2",
                    "midi": 46,
                    "time": 90.40506800000009,
                    "velocity": 0.31496062992125984,
                    "duration": 1.279317000000006
                },
                {
                    "name": "A#3",
                    "midi": 58,
                    "time": 90.40506800000009,
                    "velocity": 0.3779527559055118,
                    "duration": 1.279317000000006
                },
                {
                    "name": "C4",
                    "midi": 60,
                    "time": 91.68438500000009,
                    "velocity": 0.3543307086614173,
                    "duration": 0.426439000000002
                },
                {
                    "name": "C3",
                    "midi": 48,
                    "time": 91.68438500000009,
                    "velocity": 0.2992125984251969,
                    "duration": 0.426439000000002
                },
                {
                    "name": "D3",
                    "midi": 50,
                    "time": 92.1108240000001,
                    "velocity": 0.31496062992125984,
                    "duration": 0.852878000000004
                },
                {
                    "name": "D4",
                    "midi": 62,
                    "time": 92.1108240000001,
                    "velocity": 0.3779527559055118,
                    "duration": 0.852878000000004
                },
                {
                    "name": "A2",
                    "midi": 45,
                    "time": 93.3901410000001,
                    "velocity": 0.3543307086614173,
                    "duration": 0.426439000000002
                },
                {
                    "name": "A1",
                    "midi": 33,
                    "time": 93.3901410000001,
                    "velocity": 0.2992125984251969,
                    "duration": 0.426439000000002
                },
                {
                    "name": "A#1",
                    "midi": 34,
                    "time": 93.8165800000001,
                    "velocity": 0.31496062992125984,
                    "duration": 0.852878000000004
                },
                {
                    "name": "A#2",
                    "midi": 46,
                    "time": 93.8165800000001,
                    "velocity": 0.3779527559055118,
                    "duration": 0.852878000000004
                },
                {
                    "name": "C2",
                    "midi": 36,
                    "time": 94.6694580000001,
                    "velocity": 0.30708661417322836,
                    "duration": 0.852878000000004
                },
                {
                    "name": "C3",
                    "midi": 48,
                    "time": 94.6694580000001,
                    "velocity": 0.36220472440944884,
                    "duration": 0.852878000000004
                },
                {
                    "name": "F1",
                    "midi": 29,
                    "time": 95.52233600000011,
                    "velocity": 0.2992125984251969,
                    "duration": 0.852878000000004
                },
                {
                    "name": "F2",
                    "midi": 41,
                    "time": 95.52233600000011,
                    "velocity": 0.3937007874015748,
                    "duration": 0.852878000000004
                },
                {
                    "name": "C3",
                    "midi": 48,
                    "time": 97.22809200000012,
                    "velocity": 0.3543307086614173,
                    "duration": 0.852878000000004
                },
                {
                    "name": "C2",
                    "midi": 36,
                    "time": 97.22809200000012,
                    "velocity": 0.2992125984251969,
                    "duration": 0.852878000000004
                },
                {
                    "name": "C4",
                    "midi": 60,
                    "time": 98.08097000000012,
                    "velocity": 0.3228346456692913,
                    "duration": 0.426439000000002
                },
                {
                    "name": "D4",
                    "midi": 62,
                    "time": 98.50740900000012,
                    "velocity": 0.25984251968503935,
                    "duration": 0.426439000000002
                },
                {
                    "name": "E4",
                    "midi": 64,
                    "time": 98.93384800000013,
                    "velocity": 0.3228346456692913,
                    "duration": 0.852878000000004
                },
                {
                    "name": "C3",
                    "midi": 48,
                    "time": 100.63960400000013,
                    "velocity": 0.2204724409448819,
                    "duration": 0.852878000000004
                },
                {
                    "name": "C2",
                    "midi": 36,
                    "time": 100.63960400000013,
                    "velocity": 0.1889763779527559,
                    "duration": 0.852878000000004
                },
                {
                    "name": "D4",
                    "midi": 62,
                    "time": 101.49248200000014,
                    "velocity": 0.3228346456692913,
                    "duration": 0.426439000000002
                },
                {
                    "name": "E4",
                    "midi": 64,
                    "time": 101.91892100000014,
                    "velocity": 0.25984251968503935,
                    "duration": 0.426439000000002
                },
                {
                    "name": "F4",
                    "midi": 65,
                    "time": 102.34536000000014,
                    "velocity": 0.3228346456692913,
                    "duration": 0.852878000000004
                },
                {
                    "name": "C3",
                    "midi": 48,
                    "time": 104.05111600000015,
                    "velocity": 0.25196850393700787,
                    "duration": 0.852878000000004
                },
                {
                    "name": "C2",
                    "midi": 36,
                    "time": 104.05111600000015,
                    "velocity": 0.2125984251968504,
                    "duration": 0.852878000000004
                },
                {
                    "name": "E4",
                    "midi": 64,
                    "time": 104.90399400000015,
                    "velocity": 0.3228346456692913,
                    "duration": 0.426439000000002
                },
                {
                    "name": "F4",
                    "midi": 65,
                    "time": 105.33043300000016,
                    "velocity": 0.25984251968503935,
                    "duration": 0.426439000000002
                },
                {
                    "name": "G4",
                    "midi": 67,
                    "time": 105.75687200000016,
                    "velocity": 0.3228346456692913,
                    "duration": 0.852878000000004
                },
                {
                    "name": "F2",
                    "midi": 41,
                    "time": 107.46262800000017,
                    "velocity": 0.2755905511811024,
                    "duration": 0.852878000000004
                },
                {
                    "name": "C4",
                    "midi": 60,
                    "time": 108.74194500000017,
                    "velocity": 0.2755905511811024,
                    "duration": 0.426439000000002
                },
                {
                    "name": "A3",
                    "midi": 57,
                    "time": 108.74194500000017,
                    "velocity": 0.2283464566929134,
                    "duration": 0.426439000000002
                },
                {
                    "name": "D4",
                    "midi": 62,
                    "time": 109.16838400000017,
                    "velocity": 0.25196850393700787,
                    "duration": 0.426439000000002
                },
                {
                    "name": "A#3",
                    "midi": 58,
                    "time": 109.16838400000017,
                    "velocity": 0.2125984251968504,
                    "duration": 0.426439000000002
                },
                {
                    "name": "A3",
                    "midi": 57,
                    "time": 109.59482300000018,
                    "velocity": 0.1889763779527559,
                    "duration": 0.426439000000002
                },
                {
                    "name": "C4",
                    "midi": 60,
                    "time": 109.59482300000018,
                    "velocity": 0.2283464566929134,
                    "duration": 0.426439000000002
                },
                {
                    "name": "C4",
                    "midi": 60,
                    "time": 110.44770100000018,
                    "velocity": 0.2755905511811024,
                    "duration": 0.426439000000002
                },
                {
                    "name": "A3",
                    "midi": 57,
                    "time": 110.44770100000018,
                    "velocity": 0.2283464566929134,
                    "duration": 0.426439000000002
                },
                {
                    "name": "D4",
                    "midi": 62,
                    "time": 110.87414000000018,
                    "velocity": 0.25196850393700787,
                    "duration": 0.426439000000002
                },
                {
                    "name": "A#3",
                    "midi": 58,
                    "time": 110.87414000000018,
                    "velocity": 0.2125984251968504,
                    "duration": 0.426439000000002
                },
                {
                    "name": "A3",
                    "midi": 57,
                    "time": 111.30057900000018,
                    "velocity": 0.1889763779527559,
                    "duration": 0.426439000000002
                },
                {
                    "name": "C4",
                    "midi": 60,
                    "time": 111.30057900000018,
                    "velocity": 0.2283464566929134,
                    "duration": 0.426439000000002
                },
                {
                    "name": "A2",
                    "midi": 45,
                    "time": 112.15345700000019,
                    "velocity": 0.31496062992125984,
                    "duration": 0.426439000000002
                },
                {
                    "name": "A3",
                    "midi": 57,
                    "time": 112.15345700000019,
                    "velocity": 0.3779527559055118,
                    "duration": 0.426439000000002
                },
                {
                    "name": "A#2",
                    "midi": 46,
                    "time": 112.57989600000019,
                    "velocity": 0.31496062992125984,
                    "duration": 0.852878000000004
                },
                {
                    "name": "A#3",
                    "midi": 58,
                    "time": 112.57989600000019,
                    "velocity": 0.3779527559055118,
                    "duration": 0.852878000000004
                },
                {
                    "name": "G3",
                    "midi": 55,
                    "time": 113.4327740000002,
                    "velocity": 0.36220472440944884,
                    "duration": 0.852878000000004
                },
                {
                    "name": "G2",
                    "midi": 43,
                    "time": 113.4327740000002,
                    "velocity": 0.30708661417322836,
                    "duration": 0.852878000000004
                },
                {
                    "name": "E2",
                    "midi": 40,
                    "time": 114.2856520000002,
                    "velocity": 0.31496062992125984,
                    "duration": 0.852878000000004
                },
                {
                    "name": "E3",
                    "midi": 52,
                    "time": 114.2856520000002,
                    "velocity": 0.3779527559055118,
                    "duration": 0.852878000000004
                },
                {
                    "name": "F2",
                    "midi": 41,
                    "time": 115.1385300000002,
                    "velocity": 0.30708661417322836,
                    "duration": 0.852878000000004
                },
                {
                    "name": "F3",
                    "midi": 53,
                    "time": 115.1385300000002,
                    "velocity": 0.36220472440944884,
                    "duration": 0.852878000000004
                },
                {
                    "name": "A#3",
                    "midi": 58,
                    "time": 115.9914080000002,
                    "velocity": 0.3779527559055118,
                    "duration": 1.279317000000006
                },
                {
                    "name": "A#2",
                    "midi": 46,
                    "time": 115.9914080000002,
                    "velocity": 0.31496062992125984,
                    "duration": 1.279317000000006
                },
                {
                    "name": "B3",
                    "midi": 59,
                    "time": 117.27072500000021,
                    "velocity": 0.3228346456692913,
                    "duration": 0.426439000000002
                },
                {
                    "name": "B2",
                    "midi": 47,
                    "time": 117.27072500000021,
                    "velocity": 0.2677165354330709,
                    "duration": 0.426439000000002
                },
                {
                    "name": "C3",
                    "midi": 48,
                    "time": 117.69716400000021,
                    "velocity": 0.33070866141732286,
                    "duration": 0.852878000000004
                },
                {
                    "name": "C4",
                    "midi": 60,
                    "time": 117.69716400000021,
                    "velocity": 0.3937007874015748,
                    "duration": 0.852878000000004
                },
                {
                    "name": "F3",
                    "midi": 53,
                    "time": 119.40292000000022,
                    "velocity": 0.3543307086614173,
                    "duration": 0.852878000000004
                },
                {
                    "name": "F2",
                    "midi": 41,
                    "time": 119.40292000000022,
                    "velocity": 0.2992125984251969,
                    "duration": 0.852878000000004
                },
                {
                    "name": "F3",
                    "midi": 53,
                    "time": 120.25579800000023,
                    "velocity": 0.3228346456692913,
                    "duration": 0.426439000000002
                },
                {
                    "name": "F2",
                    "midi": 41,
                    "time": 120.25579800000023,
                    "velocity": 0.2677165354330709,
                    "duration": 0.426439000000002
                },
                {
                    "name": "G3",
                    "midi": 55,
                    "time": 120.68223700000023,
                    "velocity": 0.25984251968503935,
                    "duration": 0.426439000000002
                },
                {
                    "name": "G2",
                    "midi": 43,
                    "time": 120.68223700000023,
                    "velocity": 0.2204724409448819,
                    "duration": 0.426439000000002
                },
                {
                    "name": "A3",
                    "midi": 57,
                    "time": 121.10867600000023,
                    "velocity": 0.3228346456692913,
                    "duration": 0.852878000000004
                },
                {
                    "name": "A2",
                    "midi": 45,
                    "time": 121.10867600000023,
                    "velocity": 0.2677165354330709,
                    "duration": 0.852878000000004
                },
                {
                    "name": "A3",
                    "midi": 57,
                    "time": 122.38799300000024,
                    "velocity": 0.2283464566929134,
                    "duration": 0.2132194999999939
                },
                {
                    "name": "C4",
                    "midi": 60,
                    "time": 122.38799300000024,
                    "velocity": 0.2755905511811024,
                    "duration": 0.2132194999999939
                },
                {
                    "name": "D4",
                    "midi": 62,
                    "time": 122.81443200000022,
                    "velocity": 0.25196850393700787,
                    "duration": 0.426439000000002
                },
                {
                    "name": "A#3",
                    "midi": 58,
                    "time": 122.81443200000022,
                    "velocity": 0.2125984251968504,
                    "duration": 0.426439000000002
                },
                {
                    "name": "A3",
                    "midi": 57,
                    "time": 123.24087100000023,
                    "velocity": 0.1889763779527559,
                    "duration": 0.426439000000002
                },
                {
                    "name": "C4",
                    "midi": 60,
                    "time": 123.24087100000023,
                    "velocity": 0.2283464566929134,
                    "duration": 0.426439000000002
                },
                {
                    "name": "C4",
                    "midi": 60,
                    "time": 124.09374900000023,
                    "velocity": 0.2755905511811024,
                    "duration": 0.426439000000002
                },
                {
                    "name": "A3",
                    "midi": 57,
                    "time": 124.09374900000023,
                    "velocity": 0.2283464566929134,
                    "duration": 0.426439000000002
                },
                {
                    "name": "D4",
                    "midi": 62,
                    "time": 124.52018800000023,
                    "velocity": 0.25196850393700787,
                    "duration": 0.426439000000002
                },
                {
                    "name": "A#3",
                    "midi": 58,
                    "time": 124.52018800000023,
                    "velocity": 0.2125984251968504,
                    "duration": 0.426439000000002
                },
                {
                    "name": "A3",
                    "midi": 57,
                    "time": 124.94662700000023,
                    "velocity": 0.1889763779527559,
                    "duration": 0.426439000000002
                },
                {
                    "name": "C4",
                    "midi": 60,
                    "time": 124.94662700000023,
                    "velocity": 0.2283464566929134,
                    "duration": 0.426439000000002
                },
                {
                    "name": "A4",
                    "midi": 69,
                    "time": 125.79950500000024,
                    "velocity": 0.2677165354330709,
                    "duration": 0.426439000000002
                },
                {
                    "name": "F4",
                    "midi": 65,
                    "time": 125.79950500000024,
                    "velocity": 0.2204724409448819,
                    "duration": 0.426439000000002
                },
                {
                    "name": "A#4",
                    "midi": 70,
                    "time": 126.22594400000024,
                    "velocity": 0.2992125984251969,
                    "duration": 0.852878000000004
                },
                {
                    "name": "F4",
                    "midi": 65,
                    "time": 126.22594400000024,
                    "velocity": 0.25196850393700787,
                    "duration": 0.852878000000004
                },
                {
                    "name": "F4",
                    "midi": 65,
                    "time": 127.07882200000024,
                    "velocity": 0.28346456692913385,
                    "duration": 0.852878000000004
                },
                {
                    "name": "A4",
                    "midi": 69,
                    "time": 127.07882200000024,
                    "velocity": 0.2283464566929134,
                    "duration": 0.852878000000004
                },
                {
                    "name": "G4",
                    "midi": 67,
                    "time": 127.93170000000025,
                    "velocity": 0.2677165354330709,
                    "duration": 0.426439000000002
                },
                {
                    "name": "C4",
                    "midi": 60,
                    "time": 128.35813900000025,
                    "velocity": 0.25984251968503935,
                    "duration": 0.4264389999999878
                },
                {
                    "name": "F4",
                    "midi": 65,
                    "time": 128.78457800000024,
                    "velocity": 0.3228346456692913,
                    "duration": 0.4264389999999878
                },
                {
                    "name": "A#4",
                    "midi": 70,
                    "time": 129.21101700000023,
                    "velocity": 0.29133858267716534,
                    "duration": 0.4264389999999878
                },
                {
                    "name": "A4",
                    "midi": 69,
                    "time": 129.6374560000002,
                    "velocity": 0.3228346456692913,
                    "duration": 0.5286066770833315
                },
                {
                    "name": "A#3",
                    "midi": 58,
                    "time": 130.9167730000002,
                    "velocity": 0.2677165354330709,
                    "duration": 0.4264389999999878
                },
                {
                    "name": "A#2",
                    "midi": 46,
                    "time": 130.9167730000002,
                    "velocity": 0.2204724409448819,
                    "duration": 0.4264389999999878
                },
                {
                    "name": "A3",
                    "midi": 57,
                    "time": 131.3432120000002,
                    "velocity": 0.3228346456692913,
                    "duration": 0.852878000000004
                },
                {
                    "name": "A2",
                    "midi": 45,
                    "time": 131.3432120000002,
                    "velocity": 0.2677165354330709,
                    "duration": 0.852878000000004
                },
                {
                    "name": "A#3",
                    "midi": 58,
                    "time": 132.62252900000018,
                    "velocity": 0.2677165354330709,
                    "duration": 0.4264389999999878
                },
                {
                    "name": "A#2",
                    "midi": 46,
                    "time": 132.62252900000018,
                    "velocity": 0.2204724409448819,
                    "duration": 0.4264389999999878
                },
                {
                    "name": "A3",
                    "midi": 57,
                    "time": 133.04896800000017,
                    "velocity": 0.36220472440944884,
                    "duration": 0.4264389999999878
                },
                {
                    "name": "A2",
                    "midi": 45,
                    "time": 133.04896800000017,
                    "velocity": 0.30708661417322836,
                    "duration": 0.4264389999999878
                },
                {
                    "name": "A#3",
                    "midi": 58,
                    "time": 133.47540700000016,
                    "velocity": 0.30708661417322836,
                    "duration": 0.4264389999999878
                },
                {
                    "name": "A#2",
                    "midi": 46,
                    "time": 133.47540700000016,
                    "velocity": 0.25984251968503935,
                    "duration": 0.4264389999999878
                },
                {
                    "name": "C4",
                    "midi": 60,
                    "time": 133.90184600000015,
                    "velocity": 0.33070866141732286,
                    "duration": 0.4264389999999878
                },
                {
                    "name": "C3",
                    "midi": 48,
                    "time": 134.32828500000014,
                    "velocity": 0.3228346456692913,
                    "duration": 0.4264389999999878
                },
                {
                    "name": "F3",
                    "midi": 53,
                    "time": 134.75472400000012,
                    "velocity": 0.3543307086614173,
                    "duration": 0.4264389999999878
                },
                {
                    "name": "C3",
                    "midi": 48,
                    "time": 135.1811630000001,
                    "velocity": 0.33070866141732286,
                    "duration": 0.10660974999998984
                },
                {
                    "name": "F2",
                    "midi": 41,
                    "time": 135.6076020000001,
                    "velocity": 0.3779527559055118,
                    "duration": 0.4264389999999878
                },
                {
                    "name": "A2",
                    "midi": 45,
                    "time": 136.0340410000001,
                    "velocity": 0.31496062992125984,
                    "duration": 0.4264389999999878
                },
                {
                    "name": "A3",
                    "midi": 57,
                    "time": 136.0340410000001,
                    "velocity": 0.3779527559055118,
                    "duration": 0.4264389999999878
                },
                {
                    "name": "A#2",
                    "midi": 46,
                    "time": 136.46048000000008,
                    "velocity": 0.31496062992125984,
                    "duration": 1.2793169999999918
                },
                {
                    "name": "A#3",
                    "midi": 58,
                    "time": 136.46048000000008,
                    "velocity": 0.3779527559055118,
                    "duration": 1.2793169999999918
                },
                {
                    "name": "C4",
                    "midi": 60,
                    "time": 137.73979700000007,
                    "velocity": 0.3543307086614173,
                    "duration": 0.4264389999999878
                },
                {
                    "name": "C3",
                    "midi": 48,
                    "time": 137.73979700000007,
                    "velocity": 0.2992125984251969,
                    "duration": 0.4264389999999878
                },
                {
                    "name": "D3",
                    "midi": 50,
                    "time": 138.16623600000005,
                    "velocity": 0.31496062992125984,
                    "duration": 0.852878000000004
                },
                {
                    "name": "D4",
                    "midi": 62,
                    "time": 138.16623600000005,
                    "velocity": 0.3779527559055118,
                    "duration": 0.852878000000004
                },
                {
                    "name": "A2",
                    "midi": 45,
                    "time": 139.44555300000005,
                    "velocity": 0.3543307086614173,
                    "duration": 0.4264389999999878
                },
                {
                    "name": "A1",
                    "midi": 33,
                    "time": 139.44555300000005,
                    "velocity": 0.2992125984251969,
                    "duration": 0.4264389999999878
                },
                {
                    "name": "A#1",
                    "midi": 34,
                    "time": 139.87199200000003,
                    "velocity": 0.31496062992125984,
                    "duration": 0.852878000000004
                },
                {
                    "name": "A#2",
                    "midi": 46,
                    "time": 139.87199200000003,
                    "velocity": 0.3779527559055118,
                    "duration": 0.852878000000004
                },
                {
                    "name": "C2",
                    "midi": 36,
                    "time": 140.72487000000004,
                    "velocity": 0.30708661417322836,
                    "duration": 0.852878000000004
                },
                {
                    "name": "C3",
                    "midi": 48,
                    "time": 140.72487000000004,
                    "velocity": 0.36220472440944884,
                    "duration": 0.852878000000004
                },
                {
                    "name": "F1",
                    "midi": 29,
                    "time": 141.57774800000004,
                    "velocity": 0.2992125984251969,
                    "duration": 0.852878000000004
                },
                {
                    "name": "F2",
                    "midi": 41,
                    "time": 141.57774800000004,
                    "velocity": 0.3937007874015748,
                    "duration": 0.852878000000004
                }
            ],
            "controlChanges": {},
            "id": 2,
            "name": "Piano left",
            "instrumentNumber": 0,
            "instrument": "acoustic grand piano",
            "instrumentFamily": "piano",
            "channelNumber": 0,
            "isPercussion": false
        },
        {
            "startTime": 0,
            "duration": 0,
            "length": 0,
            "notes": [],
            "controlChanges": {
                "64": [
                    {
                        "number": 64,
                        "time": 3.474589435416667,
                        "value": 1
                    },
                    {
                        "number": 64,
                        "time": 3.8539424625000005,
                        "value": 0
                    },
                    {
                        "number": 64,
                        "time": 5.151916168750001,
                        "value": 1
                    },
                    {
                        "number": 64,
                        "time": 5.56236370625,
                        "value": 0
                    },
                    {
                        "number": 64,
                        "time": 8.575865972916667,
                        "value": 1
                    },
                    {
                        "number": 64,
                        "time": 9.391430560416667,
                        "value": 0
                    },
                    {
                        "number": 64,
                        "time": 16.257986875,
                        "value": 1
                    },
                    {
                        "number": 64,
                        "time": 17.0735514625,
                        "value": 0
                    },
                    {
                        "number": 64,
                        "time": 29.060929435416668,
                        "value": 1
                    },
                    {
                        "number": 64,
                        "time": 29.4402824625,
                        "value": 0
                    },
                    {
                        "number": 64,
                        "time": 30.738256168750002,
                        "value": 1
                    },
                    {
                        "number": 64,
                        "time": 31.148703706250004,
                        "value": 0
                    },
                    {
                        "number": 64,
                        "time": 34.162205972916674,
                        "value": 1
                    },
                    {
                        "number": 64,
                        "time": 34.97777056041667,
                        "value": 0
                    },
                    {
                        "number": 64,
                        "time": 41.84432687500001,
                        "value": 1
                    },
                    {
                        "number": 64,
                        "time": 42.659891462500006,
                        "value": 0
                    },
                    {
                        "number": 64,
                        "time": 63.14762016875001,
                        "value": 1
                    },
                    {
                        "number": 64,
                        "time": 63.55806770625001,
                        "value": 0
                    },
                    {
                        "number": 64,
                        "time": 64.85337616875,
                        "value": 1
                    },
                    {
                        "number": 64,
                        "time": 65.26382370625001,
                        "value": 0
                    },
                    {
                        "number": 64,
                        "time": 76.82209743541668,
                        "value": 1
                    },
                    {
                        "number": 64,
                        "time": 77.20145046250002,
                        "value": 0
                    },
                    {
                        "number": 64,
                        "time": 78.49942416875002,
                        "value": 1
                    },
                    {
                        "number": 64,
                        "time": 78.90987170625003,
                        "value": 0
                    },
                    {
                        "number": 64,
                        "time": 81.92337397291669,
                        "value": 1
                    },
                    {
                        "number": 64,
                        "time": 82.7389385604167,
                        "value": 0
                    },
                    {
                        "number": 64,
                        "time": 87.89973887500003,
                        "value": 1
                    },
                    {
                        "number": 64,
                        "time": 88.71530346250003,
                        "value": 0
                    },
                    {
                        "number": 64,
                        "time": 109.20303216875004,
                        "value": 1
                    },
                    {
                        "number": 64,
                        "time": 109.61347970625005,
                        "value": 0
                    },
                    {
                        "number": 64,
                        "time": 110.90878816875005,
                        "value": 1
                    },
                    {
                        "number": 64,
                        "time": 111.31923570625005,
                        "value": 0
                    },
                    {
                        "number": 64,
                        "time": 122.87750943541673,
                        "value": 1
                    },
                    {
                        "number": 64,
                        "time": 123.25686246250007,
                        "value": 0
                    },
                    {
                        "number": 64,
                        "time": 124.55483616875007,
                        "value": 1
                    },
                    {
                        "number": 64,
                        "time": 124.96528370625008,
                        "value": 0
                    },
                    {
                        "number": 64,
                        "time": 127.97878597291674,
                        "value": 1
                    },
                    {
                        "number": 64,
                        "time": 128.79435056041675,
                        "value": 0
                    },
                    {
                        "number": 64,
                        "time": 133.95515087500007,
                        "value": 1
                    },
                    {
                        "number": 64,
                        "time": 134.77071546250008,
                        "value": 0
                    },
                    {
                        "number": 64,
                        "time": 141.83894188750008,
                        "value": 1
                    },
                    {
                        "number": 64,
                        "time": 143.28350400000008,
                        "value": 0
                    }
                ]
            },
            "id": 3,
            "name": "Pedale",
            "instrumentNumber": 0,
            "instrument": "acoustic grand piano",
            "instrumentFamily": "piano",
            "channelNumber": 0,
            "isPercussion": false
        },
        {
            "startTime": 0,
            "duration": 0,
            "length": 0,
            "notes": [],
            "controlChanges": {},
            "id": 4,
            "name": "Haydn Piano Sonata in F major, 1. movement"
        },
        {
            "startTime": 0,
            "duration": 0,
            "length": 0,
            "notes": [],
            "controlChanges": {},
            "id": 5,
            "name": "Copyright  2010 by Bernd Krueger"
        },
        {
            "startTime": 0,
            "duration": 0,
            "length": 0,
            "notes": [],
            "controlChanges": {},
            "id": 6,
            "name": "http://www.piano-midi.de/"
        },
        {
            "startTime": 0,
            "duration": 0,
            "length": 0,
            "notes": [],
            "controlChanges": {},
            "id": 7,
            "name": "Edition: 2011-11-03"
        },
        {
            "startTime": 0,
            "duration": 0,
            "length": 0,
            "notes": [],
            "controlChanges": {},
            "id": 8,
            "name": "Spur 8"
        },
        {
            "startTime": 0,
            "duration": 0,
            "length": 0,
            "notes": [],
            "controlChanges": {},
            "id": 9,
            "name": "Spur 9"
        },
        {
            "startTime": 0,
            "duration": 0,
            "length": 0,
            "notes": [],
            "controlChanges": {},
            "id": 10,
            "name": "Spur 10"
        },
        {
            "startTime": 0,
            "duration": 0,
            "length": 0,
            "notes": [],
            "controlChanges": {},
            "id": 11,
            "name": "Spur 11"
        },
        {
            "startTime": 0,
            "duration": 0,
            "length": 0,
            "notes": [],
            "controlChanges": {},
            "id": 12,
            "name": "Spur 12"
        },
        {
            "startTime": 0,
            "duration": 0,
            "length": 0,
            "notes": [],
            "controlChanges": {},
            "id": 13,
            "name": "Spur 13"
        },
        {
            "startTime": 0,
            "duration": 0,
            "length": 0,
            "notes": [],
            "controlChanges": {},
            "id": 14,
            "name": "Spur 14"
        },
        {
            "startTime": 0,
            "duration": 0,
            "length": 0,
            "notes": [],
            "controlChanges": {},
            "id": 15,
            "name": "Spur 15"
        },
        {
            "startTime": 0,
            "duration": 0,
            "length": 0,
            "notes": [],
            "controlChanges": {},
            "id": 16,
            "name": "Spur 16"
        }
    ]
}