{
    "header": {
        "PPQ": 480,
        "timeSignature": [
            3,
            4
        ],
        "bpm": 141.8298892308565,
        "name": "Klaviersonate Nr. 12 KV 332 1. Satz"
    },
    "startTime": 0,
    "duration": 580.519384500002,
    "tracks": [
        {
            "startTime": 0,
            "duration": 0,
            "length": 0,
            "notes": [],
            "controlChanges": {},
            "id": 0,
            "name": "Klaviersonate Nr. 12 KV 332 1. Satz"
        },
        {
            "startTime": 0,
            "duration": 580.5193844999843,
            "length": 2952,
            "notes": [
                {
                    "name": "F4",
                    "midi": 65,
                    "time": 0,
                    "velocity": 0.3937007874015748,
                    "duration": 0.8460840000000001
                },
                {
                    "name": "A4",
                    "midi": 69,
                    "time": 0.8460840000000001,
                    "velocity": 0.3700787401574803,
                    "duration": 0.4230419999999999
                },
                {
                    "name": "C5",
                    "midi": 72,
                    "time": 1.269126,
                    "velocity": 0.4094488188976378,
                    "duration": 0.8460840000000003
                },
                {
                    "name": "A4",
                    "midi": 69,
                    "time": 2.1152100000000003,
                    "velocity": 0.36220472440944884,
                    "duration": 0.42304200000000014
                },
                {
                    "name": "A#4",
                    "midi": 70,
                    "time": 2.5382520000000004,
                    "velocity": 0.3937007874015748,
                    "duration": 0.8460839999999998
                },
                {
                    "name": "G5",
                    "midi": 79,
                    "time": 3.3843360000000002,
                    "velocity": 0.3700787401574803,
                    "duration": 0.42304200000000014
                },
                {
                    "name": "F5",
                    "midi": 77,
                    "time": 3.8073780000000004,
                    "velocity": 0.3700787401574803,
                    "duration": 0.21152099999999985
                },
                {
                    "name": "E5",
                    "midi": 76,
                    "time": 4.018899,
                    "velocity": 0.3464566929133858,
                    "duration": 0.2115210000000003
                },
                {
                    "name": "E5",
                    "midi": 76,
                    "time": 4.2304200000000005,
                    "velocity": 0.3464566929133858,
                    "duration": 0.4230419999999997
                },
                {
                    "name": "F5",
                    "midi": 77,
                    "time": 5.076504,
                    "velocity": 0.3937007874015748,
                    "duration": 0.4230419999999997
                },
                {
                    "name": "A4",
                    "midi": 69,
                    "time": 5.499546,
                    "velocity": 0.36220472440944884,
                    "duration": 0.4230419999999997
                },
                {
                    "name": "D5",
                    "midi": 74,
                    "time": 5.922587999999999,
                    "velocity": 0.36220472440944884,
                    "duration": 0.4230419999999997
                },
                {
                    "name": "G4",
                    "midi": 67,
                    "time": 6.345629999999999,
                    "velocity": 0.3937007874015748,
                    "duration": 0.4230419999999997
                },
                {
                    "name": "C5",
                    "midi": 72,
                    "time": 6.768671999999999,
                    "velocity": 0.4251968503937008,
                    "duration": 0.634563
                },
                {
                    "name": "A4",
                    "midi": 69,
                    "time": 7.403234999999999,
                    "velocity": 0.3543307086614173,
                    "duration": 0.2115210000000003
                },
                {
                    "name": "F4",
                    "midi": 65,
                    "time": 7.614755999999999,
                    "velocity": 0.3937007874015748,
                    "duration": 1.6921680000000014
                },
                {
                    "name": "G4",
                    "midi": 67,
                    "time": 8.883882,
                    "velocity": 0.3937007874015748,
                    "duration": 1.269126
                },
                {
                    "name": "E4",
                    "midi": 64,
                    "time": 9.306924,
                    "velocity": 0.33070866141732286,
                    "duration": 0.05288024999999941
                },
                {
                    "name": "F4",
                    "midi": 65,
                    "time": 9.35980425,
                    "velocity": 0.29133858267716534,
                    "duration": 0.05288024999999941
                },
                {
                    "name": "E4",
                    "midi": 64,
                    "time": 9.4126845,
                    "velocity": 0.3779527559055118,
                    "duration": 0.10576050000000059
                },
                {
                    "name": "D4",
                    "midi": 62,
                    "time": 9.518445,
                    "velocity": 0.3779527559055118,
                    "duration": 0.2115209999999994
                },
                {
                    "name": "E4",
                    "midi": 64,
                    "time": 9.729966,
                    "velocity": 0.3937007874015748,
                    "duration": 0.4230420000000006
                },
                {
                    "name": "A4",
                    "midi": 69,
                    "time": 10.153008,
                    "velocity": 0.3779527559055118,
                    "duration": 0.4230420000000006
                },
                {
                    "name": "F4",
                    "midi": 65,
                    "time": 10.153008,
                    "velocity": 0.3779527559055118,
                    "duration": 1.6921680000000006
                },
                {
                    "name": "A#4",
                    "midi": 70,
                    "time": 10.57605,
                    "velocity": 0.4094488188976378,
                    "duration": 0.4230420000000006
                },
                {
                    "name": "D5",
                    "midi": 74,
                    "time": 10.999092000000001,
                    "velocity": 0.4330708661417323,
                    "duration": 0.4230420000000006
                },
                {
                    "name": "D5",
                    "midi": 74,
                    "time": 11.422134000000002,
                    "velocity": 0.4566929133858268,
                    "duration": 0.2115209999999994
                },
                {
                    "name": "C5",
                    "midi": 72,
                    "time": 11.633655000000001,
                    "velocity": 0.44881889763779526,
                    "duration": 0.2115209999999994
                },
                {
                    "name": "A#4",
                    "midi": 70,
                    "time": 11.845176,
                    "velocity": 0.4409448818897638,
                    "duration": 0.2115209999999994
                },
                {
                    "name": "A4",
                    "midi": 69,
                    "time": 12.056697,
                    "velocity": 0.4251968503937008,
                    "duration": 0.2115209999999994
                },
                {
                    "name": "G4",
                    "midi": 67,
                    "time": 12.268218,
                    "velocity": 0.41732283464566927,
                    "duration": 0.2115209999999994
                },
                {
                    "name": "F4",
                    "midi": 65,
                    "time": 12.479738999999999,
                    "velocity": 0.4015748031496063,
                    "duration": 0.2115209999999994
                },
                {
                    "name": "G4",
                    "midi": 67,
                    "time": 12.691259999999998,
                    "velocity": 0.4251968503937008,
                    "duration": 0.4230420000000006
                },
                {
                    "name": "A#4",
                    "midi": 70,
                    "time": 13.114301999999999,
                    "velocity": 0.3937007874015748,
                    "duration": 0.10576050000000059
                },
                {
                    "name": "A#3",
                    "midi": 58,
                    "time": 13.537344,
                    "velocity": 0.4251968503937008,
                    "duration": 0.4230420000000006
                },
                {
                    "name": "E4",
                    "midi": 64,
                    "time": 13.537344,
                    "velocity": 0.4251968503937008,
                    "duration": 0.4230420000000006
                },
                {
                    "name": "F4",
                    "midi": 65,
                    "time": 13.960386,
                    "velocity": 0.4409448818897638,
                    "duration": 0.4230420000000006
                },
                {
                    "name": "A3",
                    "midi": 57,
                    "time": 13.960386,
                    "velocity": 0.4409448818897638,
                    "duration": 0.4230420000000006
                },
                {
                    "name": "C6",
                    "midi": 84,
                    "time": 14.806470000000001,
                    "velocity": 0.3937007874015748,
                    "duration": 0.3172815
                },
                {
                    "name": "A#5",
                    "midi": 82,
                    "time": 15.123751500000001,
                    "velocity": 0.3464566929133858,
                    "duration": 0.10576050000000059
                },
                {
                    "name": "A5",
                    "midi": 81,
                    "time": 15.229512000000001,
                    "velocity": 0.3937007874015748,
                    "duration": 0.10576050000000059
                },
                {
                    "name": "A5",
                    "midi": 81,
                    "time": 15.652554000000002,
                    "velocity": 0.3937007874015748,
                    "duration": 0.10576050000000059
                },
                {
                    "name": "A5",
                    "midi": 81,
                    "time": 16.075596000000004,
                    "velocity": 0.3700787401574803,
                    "duration": 0.3172815
                },
                {
                    "name": "G5",
                    "midi": 79,
                    "time": 16.392877500000004,
                    "velocity": 0.33070866141732286,
                    "duration": 0.10576049999999881
                },
                {
                    "name": "F5",
                    "midi": 77,
                    "time": 16.498638000000003,
                    "velocity": 0.3779527559055118,
                    "duration": 0.10576049999999881
                },
                {
                    "name": "F5",
                    "midi": 77,
                    "time": 16.921680000000002,
                    "velocity": 0.3464566929133858,
                    "duration": 0.10576049999999881
                },
                {
                    "name": "F5",
                    "midi": 77,
                    "time": 17.344722,
                    "velocity": 0.3464566929133858,
                    "duration": 0.4230419999999988
                },
                {
                    "name": "E5",
                    "midi": 76,
                    "time": 17.767764,
                    "velocity": 0.36220472440944884,
                    "duration": 0.10576049999999881
                },
                {
                    "name": "G5",
                    "midi": 79,
                    "time": 17.767764,
                    "velocity": 0.36220472440944884,
                    "duration": 0.10576049999999881
                },
                {
                    "name": "E5",
                    "midi": 76,
                    "time": 18.190806,
                    "velocity": 0.3464566929133858,
                    "duration": 0.10576049999999881
                },
                {
                    "name": "G5",
                    "midi": 79,
                    "time": 18.190806,
                    "velocity": 0.3464566929133858,
                    "duration": 0.10576049999999881
                },
                {
                    "name": "G5",
                    "midi": 79,
                    "time": 18.613847999999997,
                    "velocity": 0.3464566929133858,
                    "duration": 0.10576049999999881
                },
                {
                    "name": "E5",
                    "midi": 76,
                    "time": 18.613847999999997,
                    "velocity": 0.3464566929133858,
                    "duration": 0.10576049999999881
                },
                {
                    "name": "E5",
                    "midi": 76,
                    "time": 19.036889999999996,
                    "velocity": 0.3937007874015748,
                    "duration": 0.4230419999999988
                },
                {
                    "name": "G5",
                    "midi": 79,
                    "time": 19.036889999999996,
                    "velocity": 0.3937007874015748,
                    "duration": 0.4230419999999988
                },
                {
                    "name": "A5",
                    "midi": 81,
                    "time": 19.459931999999995,
                    "velocity": 0.3464566929133858,
                    "duration": 0.4230419999999988
                },
                {
                    "name": "F5",
                    "midi": 77,
                    "time": 19.459931999999995,
                    "velocity": 0.3464566929133858,
                    "duration": 0.4230419999999988
                },
                {
                    "name": "C6",
                    "midi": 84,
                    "time": 19.882973999999994,
                    "velocity": 0.3937007874015748,
                    "duration": 0.10576049999999881
                },
                {
                    "name": "D6",
                    "midi": 86,
                    "time": 19.988734499999993,
                    "velocity": 0.3464566929133858,
                    "duration": 0.10576049999999881
                },
                {
                    "name": "C6",
                    "midi": 84,
                    "time": 20.09449499999999,
                    "velocity": 0.3464566929133858,
                    "duration": 0.10576049999999881
                },
                {
                    "name": "A#5",
                    "midi": 82,
                    "time": 20.20025549999999,
                    "velocity": 0.3464566929133858,
                    "duration": 0.10576049999999881
                },
                {
                    "name": "A5",
                    "midi": 81,
                    "time": 20.30601599999999,
                    "velocity": 0.3937007874015748,
                    "duration": 0.10576049999999881
                },
                {
                    "name": "A5",
                    "midi": 81,
                    "time": 20.729057999999988,
                    "velocity": 0.3937007874015748,
                    "duration": 0.10576049999999881
                },
                {
                    "name": "A5",
                    "midi": 81,
                    "time": 21.152099999999987,
                    "velocity": 0.3700787401574803,
                    "duration": 0.10576049999999881
                },
                {
                    "name": "A#5",
                    "midi": 82,
                    "time": 21.257860499999985,
                    "velocity": 0.33070866141732286,
                    "duration": 0.10576049999999881
                },
                {
                    "name": "A5",
                    "midi": 81,
                    "time": 21.363620999999984,
                    "velocity": 0.33070866141732286,
                    "duration": 0.10576049999999881
                },
                {
                    "name": "G5",
                    "midi": 79,
                    "time": 21.469381499999983,
                    "velocity": 0.33070866141732286,
                    "duration": 0.10576049999999881
                },
                {
                    "name": "F5",
                    "midi": 77,
                    "time": 21.575141999999982,
                    "velocity": 0.3779527559055118,
                    "duration": 0.10576049999999881
                },
                {
                    "name": "F5",
                    "midi": 77,
                    "time": 21.99818399999998,
                    "velocity": 0.3464566929133858,
                    "duration": 0.10576049999999881
                },
                {
                    "name": "F5",
                    "midi": 77,
                    "time": 22.42122599999998,
                    "velocity": 0.3464566929133858,
                    "duration": 0.10576049999999881
                },
                {
                    "name": "G5",
                    "midi": 79,
                    "time": 22.84426799999998,
                    "velocity": 0.3858267716535433,
                    "duration": 0.4230419999999988
                },
                {
                    "name": "A#5",
                    "midi": 82,
                    "time": 23.267309999999977,
                    "velocity": 0.3464566929133858,
                    "duration": 0.10576049999999881
                },
                {
                    "name": "E5",
                    "midi": 76,
                    "time": 23.690351999999976,
                    "velocity": 0.3464566929133858,
                    "duration": 0.4230419999999988
                },
                {
                    "name": "A#4",
                    "midi": 70,
                    "time": 23.690351999999976,
                    "velocity": 0.2755905511811024,
                    "duration": 0.4230419999999988
                },
                {
                    "name": "A4",
                    "midi": 69,
                    "time": 24.113393999999975,
                    "velocity": 0.2992125984251969,
                    "duration": 0.4230419999999988
                },
                {
                    "name": "F5",
                    "midi": 77,
                    "time": 24.113393999999975,
                    "velocity": 0.3779527559055118,
                    "duration": 0.4230419999999988
                },
                {
                    "name": "C6",
                    "midi": 84,
                    "time": 24.959477999999972,
                    "velocity": 0.3464566929133858,
                    "duration": 0.4230419999999988
                },
                {
                    "name": "F5",
                    "midi": 77,
                    "time": 25.38251999999997,
                    "velocity": 0.3779527559055118,
                    "duration": 0.4230419999999988
                },
                {
                    "name": "C5",
                    "midi": 72,
                    "time": 26.22860399999997,
                    "velocity": 0.30708661417322836,
                    "duration": 0.4230419999999988
                },
                {
                    "name": "F4",
                    "midi": 65,
                    "time": 26.651645999999968,
                    "velocity": 0.33858267716535434,
                    "duration": 0.4230419999999988
                },
                {
                    "name": "C#4",
                    "midi": 61,
                    "time": 27.497729999999965,
                    "velocity": 0.6299212598425197,
                    "duration": 0.4230419999999988
                },
                {
                    "name": "D4",
                    "midi": 62,
                    "time": 27.920771999999964,
                    "velocity": 0.6692913385826772,
                    "duration": 0.634563
                },
                {
                    "name": "F4",
                    "midi": 65,
                    "time": 28.555334999999964,
                    "velocity": 0.6141732283464567,
                    "duration": 0.10576049999999881
                },
                {
                    "name": "A4",
                    "midi": 69,
                    "time": 28.661095499999963,
                    "velocity": 0.6377952755905512,
                    "duration": 0.10576049999999881
                },
                {
                    "name": "D5",
                    "midi": 74,
                    "time": 28.76685599999996,
                    "velocity": 0.6614173228346457,
                    "duration": 0.10576049999999881
                },
                {
                    "name": "A4",
                    "midi": 69,
                    "time": 28.97837699999996,
                    "velocity": 0.6220472440944882,
                    "duration": 0.10576049999999881
                },
                {
                    "name": "D5",
                    "midi": 74,
                    "time": 29.084137499999958,
                    "velocity": 0.6456692913385826,
                    "duration": 0.10576049999999881
                },
                {
                    "name": "F5",
                    "midi": 77,
                    "time": 29.189897999999957,
                    "velocity": 0.6771653543307087,
                    "duration": 0.10576049999999881
                },
                {
                    "name": "D5",
                    "midi": 74,
                    "time": 29.401418999999954,
                    "velocity": 0.6220472440944882,
                    "duration": 0.10576049999999881
                },
                {
                    "name": "F5",
                    "midi": 77,
                    "time": 29.507179499999953,
                    "velocity": 0.6456692913385826,
                    "duration": 0.10576049999999881
                },
                {
                    "name": "A5",
                    "midi": 81,
                    "time": 29.612939999999952,
                    "velocity": 0.6850393700787402,
                    "duration": 0.10576049999999881
                },
                {
                    "name": "A5",
                    "midi": 81,
                    "time": 29.82446099999995,
                    "velocity": 0.6299212598425197,
                    "duration": 0.21152100000000118
                },
                {
                    "name": "F5",
                    "midi": 77,
                    "time": 30.03598199999995,
                    "velocity": 0.6299212598425197,
                    "duration": 0.21152100000000118
                },
                {
                    "name": "D5",
                    "midi": 74,
                    "time": 30.247502999999952,
                    "velocity": 0.6299212598425197,
                    "duration": 0.10576049999999881
                },
                {
                    "name": "C#5",
                    "midi": 73,
                    "time": 30.35326349999995,
                    "velocity": 0.5511811023622047,
                    "duration": 0.035253499999999605
                },
                {
                    "name": "E5",
                    "midi": 76,
                    "time": 30.38851699999995,
                    "velocity": 0.5511811023622047,
                    "duration": 0.035253499999999605
                },
                {
                    "name": "G5",
                    "midi": 79,
                    "time": 30.42377049999995,
                    "velocity": 0.5511811023622047,
                    "duration": 0.035253499999999605
                },
                {
                    "name": "A#5",
                    "midi": 82,
                    "time": 30.45902399999995,
                    "velocity": 0.7086614173228346,
                    "duration": 0.634563
                },
                {
                    "name": "A5",
                    "midi": 81,
                    "time": 31.09358699999995,
                    "velocity": 0.5590551181102362,
                    "duration": 0.11633654999999976
                },
                {
                    "name": "G5",
                    "midi": 79,
                    "time": 31.19934749999995,
                    "velocity": 0.5354330708661418,
                    "duration": 0.11633655000000331
                },
                {
                    "name": "F5",
                    "midi": 77,
                    "time": 31.30510799999995,
                    "velocity": 0.5354330708661418,
                    "duration": 0.11633655000000331
                },
                {
                    "name": "E5",
                    "midi": 76,
                    "time": 31.410868499999953,
                    "velocity": 0.5354330708661418,
                    "duration": 0.11633655000000331
                },
                {
                    "name": "D5",
                    "midi": 74,
                    "time": 31.516628999999956,
                    "velocity": 0.5433070866141733,
                    "duration": 0.11633655000000331
                },
                {
                    "name": "C#5",
                    "midi": 73,
                    "time": 31.622389499999958,
                    "velocity": 0.5669291338582677,
                    "duration": 0.11633655000000331
                },
                {
                    "name": "A#5",
                    "midi": 82,
                    "time": 31.72814999999996,
                    "velocity": 0.7086614173228346,
                    "duration": 0.6345630000000035
                },
                {
                    "name": "A5",
                    "midi": 81,
                    "time": 32.362712999999964,
                    "velocity": 0.5590551181102362,
                    "duration": 0.11633654999999976
                },
                {
                    "name": "G5",
                    "midi": 79,
                    "time": 32.468473499999966,
                    "velocity": 0.5354330708661418,
                    "duration": 0.11633654999999266
                },
                {
                    "name": "F5",
                    "midi": 77,
                    "time": 32.57423399999996,
                    "velocity": 0.5354330708661418,
                    "duration": 0.11633654999999266
                },
                {
                    "name": "E5",
                    "midi": 76,
                    "time": 32.67999449999996,
                    "velocity": 0.5354330708661418,
                    "duration": 0.11633654999999266
                },
                {
                    "name": "D5",
                    "midi": 74,
                    "time": 32.78575499999995,
                    "velocity": 0.5433070866141733,
                    "duration": 0.11633654999999266
                },
                {
                    "name": "C#5",
                    "midi": 73,
                    "time": 32.89151549999995,
                    "velocity": 0.5669291338582677,
                    "duration": 0.11633654999999266
                },
                {
                    "name": "D5",
                    "midi": 74,
                    "time": 32.99727599999994,
                    "velocity": 0.6929133858267716,
                    "duration": 0.634563
                },
                {
                    "name": "F4",
                    "midi": 65,
                    "time": 33.63183899999994,
                    "velocity": 0.5511811023622047,
                    "duration": 0.10576050000000237
                },
                {
                    "name": "A4",
                    "midi": 69,
                    "time": 33.737599499999945,
                    "velocity": 0.5669291338582677,
                    "duration": 0.10576050000000237
                },
                {
                    "name": "D5",
                    "midi": 74,
                    "time": 33.84335999999995,
                    "velocity": 0.6614173228346457,
                    "duration": 0.10576050000000237
                },
                {
                    "name": "A4",
                    "midi": 69,
                    "time": 34.05488099999995,
                    "velocity": 0.5590551181102362,
                    "duration": 0.10576050000000237
                },
                {
                    "name": "D5",
                    "midi": 74,
                    "time": 34.160641499999954,
                    "velocity": 0.5748031496062992,
                    "duration": 0.10576050000000237
                },
                {
                    "name": "F5",
                    "midi": 77,
                    "time": 34.26640199999996,
                    "velocity": 0.6771653543307087,
                    "duration": 0.10576050000000237
                },
                {
                    "name": "D5",
                    "midi": 74,
                    "time": 34.47792299999996,
                    "velocity": 0.5590551181102362,
                    "duration": 0.10576050000000237
                },
                {
                    "name": "F5",
                    "midi": 77,
                    "time": 34.583683499999964,
                    "velocity": 0.5748031496062992,
                    "duration": 0.10576050000000237
                },
                {
                    "name": "A5",
                    "midi": 81,
                    "time": 34.689443999999966,
                    "velocity": 0.6850393700787402,
                    "duration": 0.10576050000000237
                },
                {
                    "name": "A5",
                    "midi": 81,
                    "time": 34.90096499999997,
                    "velocity": 0.6299212598425197,
                    "duration": 0.21152099999999763
                },
                {
                    "name": "F5",
                    "midi": 77,
                    "time": 35.11248599999997,
                    "velocity": 0.6299212598425197,
                    "duration": 0.21152099999999763
                },
                {
                    "name": "D5",
                    "midi": 74,
                    "time": 35.324006999999966,
                    "velocity": 0.6299212598425197,
                    "duration": 0.21152099999999763
                },
                {
                    "name": "D5",
                    "midi": 74,
                    "time": 35.535527999999964,
                    "velocity": 0.5905511811023622,
                    "duration": 0.634563
                },
                {
                    "name": "G#5",
                    "midi": 80,
                    "time": 35.535527999999964,
                    "velocity": 0.7086614173228346,
                    "duration": 0.634563
                },
                {
                    "name": "F5",
                    "midi": 77,
                    "time": 35.535527999999964,
                    "velocity": 0.5905511811023622,
                    "duration": 0.634563
                },
                {
                    "name": "B4",
                    "midi": 71,
                    "time": 35.535527999999964,
                    "velocity": 0.5905511811023622,
                    "duration": 0.634563
                },
                {
                    "name": "G5",
                    "midi": 79,
                    "time": 36.170090999999964,
                    "velocity": 0.5590551181102362,
                    "duration": 0.11633654999999976
                },
                {
                    "name": "F5",
                    "midi": 77,
                    "time": 36.275851499999966,
                    "velocity": 0.5354330708661418,
                    "duration": 0.11633654999999266
                },
                {
                    "name": "D#5",
                    "midi": 75,
                    "time": 36.38161199999996,
                    "velocity": 0.5354330708661418,
                    "duration": 0.11633654999999266
                },
                {
                    "name": "D5",
                    "midi": 74,
                    "time": 36.48737249999996,
                    "velocity": 0.5354330708661418,
                    "duration": 0.11633654999999266
                },
                {
                    "name": "C5",
                    "midi": 72,
                    "time": 36.59313299999995,
                    "velocity": 0.5433070866141733,
                    "duration": 0.11633654999999266
                },
                {
                    "name": "B4",
                    "midi": 71,
                    "time": 36.69889349999995,
                    "velocity": 0.5669291338582677,
                    "duration": 0.11633654999999266
                },
                {
                    "name": "G#5",
                    "midi": 80,
                    "time": 36.80465399999994,
                    "velocity": 0.7086614173228346,
                    "duration": 0.634563
                },
                {
                    "name": "G5",
                    "midi": 79,
                    "time": 37.43921699999994,
                    "velocity": 0.5590551181102362,
                    "duration": 0.11633654999999976
                },
                {
                    "name": "F5",
                    "midi": 77,
                    "time": 37.544977499999945,
                    "velocity": 0.5354330708661418,
                    "duration": 0.11633654999999266
                },
                {
                    "name": "D#5",
                    "midi": 75,
                    "time": 37.65073799999994,
                    "velocity": 0.5354330708661418,
                    "duration": 0.11633654999999266
                },
                {
                    "name": "D5",
                    "midi": 74,
                    "time": 37.756498499999935,
                    "velocity": 0.5354330708661418,
                    "duration": 0.11633654999999266
                },
                {
                    "name": "C5",
                    "midi": 72,
                    "time": 37.86225899999993,
                    "velocity": 0.5433070866141733,
                    "duration": 0.11633654999999266
                },
                {
                    "name": "B4",
                    "midi": 71,
                    "time": 37.968019499999926,
                    "velocity": 0.5669291338582677,
                    "duration": 0.11633654999999266
                },
                {
                    "name": "C5",
                    "midi": 72,
                    "time": 38.07377999999992,
                    "velocity": 0.6929133858267716,
                    "duration": 0.5288024999999976
                },
                {
                    "name": "G4",
                    "midi": 67,
                    "time": 38.60258249999992,
                    "velocity": 0.5433070866141733,
                    "duration": 0.10576050000000237
                },
                {
                    "name": "C5",
                    "midi": 72,
                    "time": 38.70834299999992,
                    "velocity": 0.5826771653543307,
                    "duration": 0.10576050000000237
                },
                {
                    "name": "G4",
                    "midi": 67,
                    "time": 38.81410349999992,
                    "velocity": 0.5511811023622047,
                    "duration": 0.10576050000000237
                },
                {
                    "name": "D#5",
                    "midi": 75,
                    "time": 38.919863999999926,
                    "velocity": 0.5826771653543307,
                    "duration": 0.10576050000000237
                },
                {
                    "name": "C5",
                    "midi": 72,
                    "time": 39.02562449999993,
                    "velocity": 0.5590551181102362,
                    "duration": 0.10576050000000237
                },
                {
                    "name": "D#5",
                    "midi": 75,
                    "time": 39.13138499999993,
                    "velocity": 0.5905511811023622,
                    "duration": 0.10576050000000237
                },
                {
                    "name": "C5",
                    "midi": 72,
                    "time": 39.23714549999993,
                    "velocity": 0.5511811023622047,
                    "duration": 0.10576050000000237
                },
                {
                    "name": "G5",
                    "midi": 79,
                    "time": 39.342905999999935,
                    "velocity": 0.5826771653543307,
                    "duration": 0.10576050000000237
                },
                {
                    "name": "D#5",
                    "midi": 75,
                    "time": 39.44866649999994,
                    "velocity": 0.5590551181102362,
                    "duration": 0.10576050000000237
                },
                {
                    "name": "G5",
                    "midi": 79,
                    "time": 39.55442699999994,
                    "velocity": 0.5826771653543307,
                    "duration": 0.10576050000000237
                },
                {
                    "name": "D#5",
                    "midi": 75,
                    "time": 39.66018749999994,
                    "velocity": 0.5590551181102362,
                    "duration": 0.10576050000000237
                },
                {
                    "name": "C6",
                    "midi": 84,
                    "time": 39.765947999999945,
                    "velocity": 0.7165354330708661,
                    "duration": 0.21152099999999763
                },
                {
                    "name": "C5",
                    "midi": 72,
                    "time": 40.61203199999994,
                    "velocity": 0.6929133858267716,
                    "duration": 0.5288024999999976
                },
                {
                    "name": "G#4",
                    "midi": 68,
                    "time": 41.14083449999994,
                    "velocity": 0.5433070866141733,
                    "duration": 0.10576050000000237
                },
                {
                    "name": "C5",
                    "midi": 72,
                    "time": 41.24659499999994,
                    "velocity": 0.5826771653543307,
                    "duration": 0.10576050000000237
                },
                {
                    "name": "G#4",
                    "midi": 68,
                    "time": 41.352355499999945,
                    "velocity": 0.5511811023622047,
                    "duration": 0.10576050000000237
                },
                {
                    "name": "D#5",
                    "midi": 75,
                    "time": 41.45811599999995,
                    "velocity": 0.5826771653543307,
                    "duration": 0.10576050000000237
                },
                {
                    "name": "C5",
                    "midi": 72,
                    "time": 41.56387649999995,
                    "velocity": 0.5590551181102362,
                    "duration": 0.10576050000000237
                },
                {
                    "name": "D#5",
                    "midi": 75,
                    "time": 41.66963699999995,
                    "velocity": 0.5905511811023622,
                    "duration": 0.10576050000000237
                },
                {
                    "name": "C5",
                    "midi": 72,
                    "time": 41.775397499999954,
                    "velocity": 0.5511811023622047,
                    "duration": 0.10576050000000237
                },
                {
                    "name": "G#5",
                    "midi": 80,
                    "time": 41.88115799999996,
                    "velocity": 0.5826771653543307,
                    "duration": 0.10576050000000237
                },
                {
                    "name": "D#5",
                    "midi": 75,
                    "time": 41.98691849999996,
                    "velocity": 0.5590551181102362,
                    "duration": 0.10576050000000237
                },
                {
                    "name": "G#5",
                    "midi": 80,
                    "time": 42.09267899999996,
                    "velocity": 0.5826771653543307,
                    "duration": 0.10576050000000237
                },
                {
                    "name": "D#5",
                    "midi": 75,
                    "time": 42.198439499999964,
                    "velocity": 0.5590551181102362,
                    "duration": 0.10576050000000237
                },
                {
                    "name": "C6",
                    "midi": 84,
                    "time": 42.304199999999966,
                    "velocity": 0.7165354330708661,
                    "duration": 0.21152099999999763
                },
                {
                    "name": "C5",
                    "midi": 72,
                    "time": 43.150283999999964,
                    "velocity": 0.6929133858267716,
                    "duration": 0.5288024999999976
                },
                {
                    "name": "F#4",
                    "midi": 66,
                    "time": 43.67908649999996,
                    "velocity": 0.5433070866141733,
                    "duration": 0.10576050000000237
                },
                {
                    "name": "C5",
                    "midi": 72,
                    "time": 43.784846999999964,
                    "velocity": 0.5826771653543307,
                    "duration": 0.10576050000000237
                },
                {
                    "name": "F#4",
                    "midi": 66,
                    "time": 43.890607499999966,
                    "velocity": 0.5511811023622047,
                    "duration": 0.10576050000000237
                },
                {
                    "name": "D#5",
                    "midi": 75,
                    "time": 43.99636799999997,
                    "velocity": 0.5826771653543307,
                    "duration": 0.10576050000000237
                },
                {
                    "name": "C5",
                    "midi": 72,
                    "time": 44.10212849999997,
                    "velocity": 0.5590551181102362,
                    "duration": 0.10576050000000237
                },
                {
                    "name": "D#5",
                    "midi": 75,
                    "time": 44.20788899999997,
                    "velocity": 0.5905511811023622,
                    "duration": 0.10576050000000237
                },
                {
                    "name": "C5",
                    "midi": 72,
                    "time": 44.313649499999975,
                    "velocity": 0.5511811023622047,
                    "duration": 0.10576050000000237
                },
                {
                    "name": "F#5",
                    "midi": 78,
                    "time": 44.41940999999998,
                    "velocity": 0.5826771653543307,
                    "duration": 0.10576050000000237
                },
                {
                    "name": "D#5",
                    "midi": 75,
                    "time": 44.52517049999998,
                    "velocity": 0.5590551181102362,
                    "duration": 0.10576050000000237
                },
                {
                    "name": "F#5",
                    "midi": 78,
                    "time": 44.63093099999998,
                    "velocity": 0.5826771653543307,
                    "duration": 0.10576050000000237
                },
                {
                    "name": "D#5",
                    "midi": 75,
                    "time": 44.736691499999985,
                    "velocity": 0.5590551181102362,
                    "duration": 0.10576050000000237
                },
                {
                    "name": "C6",
                    "midi": 84,
                    "time": 44.84245199999999,
                    "velocity": 0.7165354330708661,
                    "duration": 0.42304200000000236
                },
                {
                    "name": "F#5",
                    "midi": 78,
                    "time": 45.26549399999999,
                    "velocity": 0.6377952755905512,
                    "duration": 0.3172815
                },
                {
                    "name": "G4",
                    "midi": 67,
                    "time": 45.58277549999999,
                    "velocity": 0.5511811023622047,
                    "duration": 0.03525350000000316
                },
                {
                    "name": "B4",
                    "midi": 71,
                    "time": 45.61802899999999,
                    "velocity": 0.5511811023622047,
                    "duration": 0.03525350000000316
                },
                {
                    "name": "D5",
                    "midi": 74,
                    "time": 45.653282499999996,
                    "velocity": 0.5511811023622047,
                    "duration": 0.03525350000000316
                },
                {
                    "name": "G5",
                    "midi": 79,
                    "time": 45.688536,
                    "velocity": 0.7086614173228346,
                    "duration": 0.8460839999999976
                },
                {
                    "name": "F5",
                    "midi": 77,
                    "time": 46.53462,
                    "velocity": 0.5669291338582677,
                    "duration": 0.11457387500000493
                },
                {
                    "name": "D#5",
                    "midi": 75,
                    "time": 46.6403805,
                    "velocity": 0.5669291338582677,
                    "duration": 0.11457387500000493
                },
                {
                    "name": "D5",
                    "midi": 74,
                    "time": 46.746141,
                    "velocity": 0.5748031496062992,
                    "duration": 0.11457387500000493
                },
                {
                    "name": "C5",
                    "midi": 72,
                    "time": 46.851901500000004,
                    "velocity": 0.5984251968503937,
                    "duration": 0.10576050000000237
                },
                {
                    "name": "G5",
                    "midi": 79,
                    "time": 46.957662000000006,
                    "velocity": 0.7086614173228346,
                    "duration": 0.8460839999999976
                },
                {
                    "name": "F5",
                    "midi": 77,
                    "time": 47.803746000000004,
                    "velocity": 0.5669291338582677,
                    "duration": 0.11457387500000493
                },
                {
                    "name": "D#5",
                    "midi": 75,
                    "time": 47.909506500000006,
                    "velocity": 0.5669291338582677,
                    "duration": 0.11457387500000493
                },
                {
                    "name": "D5",
                    "midi": 74,
                    "time": 48.01526700000001,
                    "velocity": 0.5748031496062992,
                    "duration": 0.11457387500000493
                },
                {
                    "name": "C5",
                    "midi": 72,
                    "time": 48.12102750000001,
                    "velocity": 0.5984251968503937,
                    "duration": 0.10576050000000237
                },
                {
                    "name": "G5",
                    "midi": 79,
                    "time": 48.22678800000001,
                    "velocity": 0.7086614173228346,
                    "duration": 0.634563
                },
                {
                    "name": "G#5",
                    "midi": 80,
                    "time": 48.86135100000001,
                    "velocity": 0.6220472440944882,
                    "duration": 0.11457387500000493
                },
                {
                    "name": "G5",
                    "midi": 79,
                    "time": 48.967111500000016,
                    "velocity": 0.6141732283464567,
                    "duration": 0.11457387500000493
                },
                {
                    "name": "F5",
                    "midi": 77,
                    "time": 49.07287200000002,
                    "velocity": 0.5984251968503937,
                    "duration": 0.11457387500000493
                },
                {
                    "name": "D#5",
                    "midi": 75,
                    "time": 49.17863250000002,
                    "velocity": 0.5905511811023622,
                    "duration": 0.11457387500000493
                },
                {
                    "name": "D5",
                    "midi": 74,
                    "time": 49.28439300000002,
                    "velocity": 0.5826771653543307,
                    "duration": 0.11457387500000493
                },
                {
                    "name": "C5",
                    "midi": 72,
                    "time": 49.390153500000025,
                    "velocity": 0.5669291338582677,
                    "duration": 0.11457387500000493
                },
                {
                    "name": "G5",
                    "midi": 79,
                    "time": 49.49591400000003,
                    "velocity": 0.6220472440944882,
                    "duration": 0.10576050000000237
                },
                {
                    "name": "G4",
                    "midi": 67,
                    "time": 49.91895600000003,
                    "velocity": 0.5669291338582677,
                    "duration": 0.10576050000000237
                },
                {
                    "name": "G4",
                    "midi": 67,
                    "time": 50.71215975000003,
                    "velocity": 0.3228346456692913,
                    "duration": 0.05288025000000118
                },
                {
                    "name": "E5",
                    "midi": 76,
                    "time": 50.765040000000035,
                    "velocity": 0.3543307086614173,
                    "duration": 0.10576050000000237
                },
                {
                    "name": "E5",
                    "midi": 76,
                    "time": 51.18808200000004,
                    "velocity": 0.33858267716535434,
                    "duration": 0.10576050000000237
                },
                {
                    "name": "E5",
                    "midi": 76,
                    "time": 51.61112400000004,
                    "velocity": 0.33858267716535434,
                    "duration": 0.10576050000000237
                },
                {
                    "name": "B4",
                    "midi": 71,
                    "time": 51.98128575000004,
                    "velocity": 0.33070866141732286,
                    "duration": 0.05288025000000118
                },
                {
                    "name": "G5",
                    "midi": 79,
                    "time": 52.03416600000004,
                    "velocity": 0.3543307086614173,
                    "duration": 0.634563
                },
                {
                    "name": "F5",
                    "midi": 77,
                    "time": 52.66872900000004,
                    "velocity": 0.3228346456692913,
                    "duration": 0.21152099999999763
                },
                {
                    "name": "D5",
                    "midi": 74,
                    "time": 52.88025000000004,
                    "velocity": 0.3228346456692913,
                    "duration": 0.42304200000000236
                },
                {
                    "name": "E4",
                    "midi": 64,
                    "time": 53.30329200000004,
                    "velocity": 0.3543307086614173,
                    "duration": 0.42304199999999526
                },
                {
                    "name": "D5",
                    "midi": 74,
                    "time": 53.30329200000004,
                    "velocity": 0.3543307086614173,
                    "duration": 0.21152099999999763
                },
                {
                    "name": "C5",
                    "midi": 72,
                    "time": 53.51481300000004,
                    "velocity": 0.3228346456692913,
                    "duration": 0.21152099999999763
                },
                {
                    "name": "C5",
                    "midi": 72,
                    "time": 53.72633400000004,
                    "velocity": 0.3543307086614173,
                    "duration": 0.634563
                },
                {
                    "name": "G4",
                    "midi": 67,
                    "time": 53.72633400000004,
                    "velocity": 0.3543307086614173,
                    "duration": 0.634563
                },
                {
                    "name": "B4",
                    "midi": 71,
                    "time": 54.36089700000004,
                    "velocity": 0.3543307086614173,
                    "duration": 0.21152099999999763
                },
                {
                    "name": "D5",
                    "midi": 74,
                    "time": 54.36089700000004,
                    "velocity": 0.3543307086614173,
                    "duration": 0.21152099999999763
                },
                {
                    "name": "D5",
                    "midi": 74,
                    "time": 54.572418000000035,
                    "velocity": 0.3858267716535433,
                    "duration": 0.8460839999999976
                },
                {
                    "name": "B4",
                    "midi": 71,
                    "time": 54.572418000000035,
                    "velocity": 0.3858267716535433,
                    "duration": 0.8460839999999976
                },
                {
                    "name": "C5",
                    "midi": 72,
                    "time": 55.41850200000003,
                    "velocity": 0.3543307086614173,
                    "duration": 0.42304200000000236
                },
                {
                    "name": "E5",
                    "midi": 76,
                    "time": 55.41850200000003,
                    "velocity": 0.3543307086614173,
                    "duration": 0.42304200000000236
                },
                {
                    "name": "F5",
                    "midi": 77,
                    "time": 55.841544000000034,
                    "velocity": 0.3543307086614173,
                    "duration": 0.634563
                },
                {
                    "name": "G5",
                    "midi": 79,
                    "time": 56.476107000000034,
                    "velocity": 0.36220472440944884,
                    "duration": 0.05288025000000118
                },
                {
                    "name": "F5",
                    "midi": 77,
                    "time": 56.528987250000036,
                    "velocity": 0.33070866141732286,
                    "duration": 0.05288025000000118
                },
                {
                    "name": "E5",
                    "midi": 76,
                    "time": 56.58186750000004,
                    "velocity": 0.33070866141732286,
                    "duration": 0.05288025000000118
                },
                {
                    "name": "F5",
                    "midi": 77,
                    "time": 56.63474775000004,
                    "velocity": 0.3543307086614173,
                    "duration": 0.03525350000000316
                },
                {
                    "name": "G5",
                    "midi": 79,
                    "time": 56.68762800000004,
                    "velocity": 0.3858267716535433,
                    "duration": 0.21152099999999763
                },
                {
                    "name": "A5",
                    "midi": 81,
                    "time": 56.89914900000004,
                    "velocity": 0.3700787401574803,
                    "duration": 0.20799565000000086
                },
                {
                    "name": "A5",
                    "midi": 81,
                    "time": 57.110670000000034,
                    "velocity": 0.4330708661417323,
                    "duration": 0.21152099999999763
                },
                {
                    "name": "G5",
                    "midi": 79,
                    "time": 57.32219100000003,
                    "velocity": 0.3858267716535433,
                    "duration": 0.21152099999999763
                },
                {
                    "name": "F#5",
                    "midi": 78,
                    "time": 57.53371200000003,
                    "velocity": 0.4094488188976378,
                    "duration": 0.21152099999999763
                },
                {
                    "name": "G5",
                    "midi": 79,
                    "time": 57.74523300000003,
                    "velocity": 0.3543307086614173,
                    "duration": 0.21152099999999763
                },
                {
                    "name": "F5",
                    "midi": 77,
                    "time": 57.956754000000025,
                    "velocity": 0.3937007874015748,
                    "duration": 0.21152099999999763
                },
                {
                    "name": "D5",
                    "midi": 74,
                    "time": 58.16827500000002,
                    "velocity": 0.3543307086614173,
                    "duration": 0.21152099999999763
                },
                {
                    "name": "D#5",
                    "midi": 75,
                    "time": 58.37979600000002,
                    "velocity": 0.3858267716535433,
                    "duration": 0.21152099999999763
                },
                {
                    "name": "E5",
                    "midi": 76,
                    "time": 58.59131700000002,
                    "velocity": 0.3543307086614173,
                    "duration": 0.21152099999999763
                },
                {
                    "name": "F5",
                    "midi": 77,
                    "time": 58.802838000000015,
                    "velocity": 0.3937007874015748,
                    "duration": 0.21152099999999763
                },
                {
                    "name": "E5",
                    "midi": 76,
                    "time": 59.01435900000001,
                    "velocity": 0.3543307086614173,
                    "duration": 0.21152099999999763
                },
                {
                    "name": "G5",
                    "midi": 79,
                    "time": 59.22588000000001,
                    "velocity": 0.3858267716535433,
                    "duration": 0.21152099999999763
                },
                {
                    "name": "F5",
                    "midi": 77,
                    "time": 59.43740100000001,
                    "velocity": 0.3543307086614173,
                    "duration": 0.21152099999999763
                },
                {
                    "name": "E5",
                    "midi": 76,
                    "time": 59.648922000000006,
                    "velocity": 0.4094488188976378,
                    "duration": 0.21152099999999763
                },
                {
                    "name": "D5",
                    "midi": 74,
                    "time": 59.860443000000004,
                    "velocity": 0.3543307086614173,
                    "duration": 0.21152099999999763
                },
                {
                    "name": "C5",
                    "midi": 72,
                    "time": 60.071964,
                    "velocity": 0.3779527559055118,
                    "duration": 0.21152099999999763
                },
                {
                    "name": "B4",
                    "midi": 71,
                    "time": 60.283485,
                    "velocity": 0.3543307086614173,
                    "duration": 0.21152099999999763
                },
                {
                    "name": "A4",
                    "midi": 69,
                    "time": 60.495006,
                    "velocity": 0.36220472440944884,
                    "duration": 0.21152099999999763
                },
                {
                    "name": "G4",
                    "midi": 67,
                    "time": 60.706526999999994,
                    "velocity": 0.3543307086614173,
                    "duration": 0.21152099999999763
                },
                {
                    "name": "D#5",
                    "midi": 75,
                    "time": 60.91804799999999,
                    "velocity": 0.3858267716535433,
                    "duration": 0.21152099999999763
                },
                {
                    "name": "E5",
                    "midi": 76,
                    "time": 61.12956899999999,
                    "velocity": 0.33070866141732286,
                    "duration": 0.21152099999999763
                },
                {
                    "name": "D#5",
                    "midi": 75,
                    "time": 61.34108999999999,
                    "velocity": 0.3858267716535433,
                    "duration": 0.21152099999999763
                },
                {
                    "name": "E5",
                    "midi": 76,
                    "time": 61.552610999999985,
                    "velocity": 0.3228346456692913,
                    "duration": 0.21152099999999763
                },
                {
                    "name": "D#5",
                    "midi": 75,
                    "time": 61.76413199999998,
                    "velocity": 0.4094488188976378,
                    "duration": 0.21152099999999763
                },
                {
                    "name": "E5",
                    "midi": 76,
                    "time": 61.97565299999998,
                    "velocity": 0.3779527559055118,
                    "duration": 0.21152099999999763
                },
                {
                    "name": "F#5",
                    "midi": 78,
                    "time": 62.18717399999998,
                    "velocity": 0.4566929133858268,
                    "duration": 0.21152099999999763
                },
                {
                    "name": "G5",
                    "midi": 79,
                    "time": 62.398694999999975,
                    "velocity": 0.41732283464566927,
                    "duration": 0.21152099999999763
                },
                {
                    "name": "F#5",
                    "midi": 78,
                    "time": 62.61021599999997,
                    "velocity": 0.4566929133858268,
                    "duration": 0.21152099999999763
                },
                {
                    "name": "G5",
                    "midi": 79,
                    "time": 62.82173699999997,
                    "velocity": 0.36220472440944884,
                    "duration": 0.21152099999999763
                },
                {
                    "name": "F5",
                    "midi": 77,
                    "time": 63.03325799999997,
                    "velocity": 0.36220472440944884,
                    "duration": 0.21152099999999763
                },
                {
                    "name": "D5",
                    "midi": 74,
                    "time": 63.244778999999966,
                    "velocity": 0.29133858267716534,
                    "duration": 0.21152099999999763
                },
                {
                    "name": "D5",
                    "midi": 74,
                    "time": 63.45629999999996,
                    "velocity": 0.3543307086614173,
                    "duration": 0.21152099999999763
                },
                {
                    "name": "C5",
                    "midi": 72,
                    "time": 63.66782099999996,
                    "velocity": 0.3228346456692913,
                    "duration": 0.21152099999999763
                },
                {
                    "name": "D5",
                    "midi": 74,
                    "time": 63.87934199999996,
                    "velocity": 0.3543307086614173,
                    "duration": 0.21152099999999763
                },
                {
                    "name": "G4",
                    "midi": 67,
                    "time": 63.87934199999996,
                    "velocity": 0.3228346456692913,
                    "duration": 0.42304200000000236
                },
                {
                    "name": "C5",
                    "midi": 72,
                    "time": 64.09086299999996,
                    "velocity": 0.3228346456692913,
                    "duration": 0.21152100000000473
                },
                {
                    "name": "B4",
                    "midi": 71,
                    "time": 64.30238399999996,
                    "velocity": 0.3228346456692913,
                    "duration": 0.42304200000000947
                },
                {
                    "name": "E5",
                    "midi": 76,
                    "time": 64.30238399999996,
                    "velocity": 0.3543307086614173,
                    "duration": 0.21152100000000473
                },
                {
                    "name": "D5",
                    "midi": 74,
                    "time": 64.51390499999997,
                    "velocity": 0.3543307086614173,
                    "duration": 0.21152100000000473
                },
                {
                    "name": "B4",
                    "midi": 71,
                    "time": 64.72542599999997,
                    "velocity": 0.3858267716535433,
                    "duration": 0.8460840000000047
                },
                {
                    "name": "D5",
                    "midi": 74,
                    "time": 64.72542599999997,
                    "velocity": 0.3858267716535433,
                    "duration": 0.634563
                },
                {
                    "name": "D#5",
                    "midi": 75,
                    "time": 65.35998899999997,
                    "velocity": 0.3858267716535433,
                    "duration": 0.21152100000000473
                },
                {
                    "name": "E5",
                    "midi": 76,
                    "time": 65.57150999999998,
                    "velocity": 0.3543307086614173,
                    "duration": 0.42304199999999526
                },
                {
                    "name": "C5",
                    "midi": 72,
                    "time": 65.57150999999998,
                    "velocity": 0.3543307086614173,
                    "duration": 0.42304199999999526
                },
                {
                    "name": "F5",
                    "midi": 77,
                    "time": 65.99455199999997,
                    "velocity": 0.3543307086614173,
                    "duration": 0.634563
                },
                {
                    "name": "G5",
                    "midi": 79,
                    "time": 66.62911499999997,
                    "velocity": 0.36220472440944884,
                    "duration": 0.05288025000000118
                },
                {
                    "name": "F5",
                    "midi": 77,
                    "time": 66.68199524999997,
                    "velocity": 0.33070866141732286,
                    "duration": 0.05288025000000118
                },
                {
                    "name": "E5",
                    "midi": 76,
                    "time": 66.73487549999997,
                    "velocity": 0.33070866141732286,
                    "duration": 0.05288025000000118
                },
                {
                    "name": "F5",
                    "midi": 77,
                    "time": 66.78775574999997,
                    "velocity": 0.3543307086614173,
                    "duration": 0.03525349999999605
                },
                {
                    "name": "G5",
                    "midi": 79,
                    "time": 66.84063599999998,
                    "velocity": 0.3858267716535433,
                    "duration": 0.21152100000000473
                },
                {
                    "name": "A5",
                    "midi": 81,
                    "time": 67.05215699999998,
                    "velocity": 0.3700787401574803,
                    "duration": 0.21152100000000473
                },
                {
                    "name": "A5",
                    "midi": 81,
                    "time": 67.26367799999998,
                    "velocity": 0.4330708661417323,
                    "duration": 0.21152100000000473
                },
                {
                    "name": "G5",
                    "midi": 79,
                    "time": 67.47519899999999,
                    "velocity": 0.3858267716535433,
                    "duration": 0.21152100000000473
                },
                {
                    "name": "F#5",
                    "midi": 78,
                    "time": 67.68672,
                    "velocity": 0.4094488188976378,
                    "duration": 0.21152100000000473
                },
                {
                    "name": "G5",
                    "midi": 79,
                    "time": 67.898241,
                    "velocity": 0.3543307086614173,
                    "duration": 0.21152100000000473
                },
                {
                    "name": "F5",
                    "midi": 77,
                    "time": 68.109762,
                    "velocity": 0.3937007874015748,
                    "duration": 0.21152100000000473
                },
                {
                    "name": "D5",
                    "midi": 74,
                    "time": 68.32128300000001,
                    "velocity": 0.3543307086614173,
                    "duration": 0.21152100000000473
                },
                {
                    "name": "D#5",
                    "midi": 75,
                    "time": 68.53280400000001,
                    "velocity": 0.3858267716535433,
                    "duration": 0.21152100000000473
                },
                {
                    "name": "E5",
                    "midi": 76,
                    "time": 68.74432500000002,
                    "velocity": 0.3543307086614173,
                    "duration": 0.21152100000000473
                },
                {
                    "name": "G5",
                    "midi": 79,
                    "time": 68.95584600000002,
                    "velocity": 0.3937007874015748,
                    "duration": 0.21152100000000473
                },
                {
                    "name": "F5",
                    "midi": 77,
                    "time": 69.16736700000003,
                    "velocity": 0.3543307086614173,
                    "duration": 0.21152100000000473
                },
                {
                    "name": "D5",
                    "midi": 74,
                    "time": 69.37888800000003,
                    "velocity": 0.3858267716535433,
                    "duration": 0.21152100000000473
                },
                {
                    "name": "B4",
                    "midi": 71,
                    "time": 69.59040900000004,
                    "velocity": 0.3543307086614173,
                    "duration": 0.21152100000000473
                },
                {
                    "name": "C5",
                    "midi": 72,
                    "time": 69.80193000000004,
                    "velocity": 0.4094488188976378,
                    "duration": 0.21152100000000473
                },
                {
                    "name": "G4",
                    "midi": 67,
                    "time": 70.01345100000005,
                    "velocity": 0.2677165354330709,
                    "duration": 0.21152100000000473
                },
                {
                    "name": "G4",
                    "midi": 67,
                    "time": 70.43649300000006,
                    "velocity": 0.2677165354330709,
                    "duration": 0.10576050000000237
                },
                {
                    "name": "G4",
                    "midi": 67,
                    "time": 70.85953500000005,
                    "velocity": 0.2677165354330709,
                    "duration": 0.10576050000000237
                },
                {
                    "name": "F4",
                    "midi": 65,
                    "time": 71.07105600000006,
                    "velocity": 0.2677165354330709,
                    "duration": 0.10576050000000237
                },
                {
                    "name": "G4",
                    "midi": 67,
                    "time": 71.07105600000006,
                    "velocity": 0.31496062992125984,
                    "duration": 0.10576050000000237
                },
                {
                    "name": "G4",
                    "midi": 67,
                    "time": 71.28257700000006,
                    "velocity": 0.25984251968503935,
                    "duration": 0.10576050000000237
                },
                {
                    "name": "F4",
                    "midi": 65,
                    "time": 71.28257700000006,
                    "velocity": 0.2204724409448819,
                    "duration": 0.10576050000000237
                },
                {
                    "name": "F4",
                    "midi": 65,
                    "time": 71.70561900000007,
                    "velocity": 0.2204724409448819,
                    "duration": 0.10576050000000237
                },
                {
                    "name": "G4",
                    "midi": 67,
                    "time": 71.70561900000007,
                    "velocity": 0.25984251968503935,
                    "duration": 0.10576050000000237
                },
                {
                    "name": "G4",
                    "midi": 67,
                    "time": 72.12866100000008,
                    "velocity": 0.25984251968503935,
                    "duration": 0.10576050000000237
                },
                {
                    "name": "F4",
                    "midi": 65,
                    "time": 72.12866100000008,
                    "velocity": 0.2204724409448819,
                    "duration": 0.10576050000000237
                },
                {
                    "name": "D#4",
                    "midi": 63,
                    "time": 72.34018200000008,
                    "velocity": 0.2677165354330709,
                    "duration": 0.10576050000000237
                },
                {
                    "name": "G4",
                    "midi": 67,
                    "time": 72.34018200000008,
                    "velocity": 0.31496062992125984,
                    "duration": 0.10576050000000237
                },
                {
                    "name": "D#4",
                    "midi": 63,
                    "time": 72.55170300000009,
                    "velocity": 0.2204724409448819,
                    "duration": 0.10576050000000237
                },
                {
                    "name": "G4",
                    "midi": 67,
                    "time": 72.55170300000009,
                    "velocity": 0.2677165354330709,
                    "duration": 0.10576050000000237
                },
                {
                    "name": "D#4",
                    "midi": 63,
                    "time": 72.9747450000001,
                    "velocity": 0.2204724409448819,
                    "duration": 0.10576050000000237
                },
                {
                    "name": "G4",
                    "midi": 67,
                    "time": 72.9747450000001,
                    "velocity": 0.2677165354330709,
                    "duration": 0.10576050000000237
                },
                {
                    "name": "G4",
                    "midi": 67,
                    "time": 73.39778700000011,
                    "velocity": 0.2677165354330709,
                    "duration": 0.10576050000000237
                },
                {
                    "name": "D#4",
                    "midi": 63,
                    "time": 73.39778700000011,
                    "velocity": 0.2204724409448819,
                    "duration": 0.10576050000000237
                },
                {
                    "name": "G4",
                    "midi": 67,
                    "time": 73.60930800000011,
                    "velocity": 0.31496062992125984,
                    "duration": 0.10576050000000237
                },
                {
                    "name": "F4",
                    "midi": 65,
                    "time": 73.60930800000011,
                    "velocity": 0.2677165354330709,
                    "duration": 0.10576050000000237
                },
                {
                    "name": "G4",
                    "midi": 67,
                    "time": 73.82082900000012,
                    "velocity": 0.25984251968503935,
                    "duration": 0.10576050000000237
                },
                {
                    "name": "F4",
                    "midi": 65,
                    "time": 73.82082900000012,
                    "velocity": 0.2204724409448819,
                    "duration": 0.10576050000000237
                },
                {
                    "name": "G4",
                    "midi": 67,
                    "time": 74.24387100000013,
                    "velocity": 0.25984251968503935,
                    "duration": 0.10576050000000237
                },
                {
                    "name": "F4",
                    "midi": 65,
                    "time": 74.24387100000013,
                    "velocity": 0.2204724409448819,
                    "duration": 0.10576050000000237
                },
                {
                    "name": "F4",
                    "midi": 65,
                    "time": 74.66691300000014,
                    "velocity": 0.2204724409448819,
                    "duration": 0.10576050000000237
                },
                {
                    "name": "G4",
                    "midi": 67,
                    "time": 74.66691300000014,
                    "velocity": 0.25984251968503935,
                    "duration": 0.10576050000000237
                },
                {
                    "name": "G4",
                    "midi": 67,
                    "time": 74.87843400000014,
                    "velocity": 0.49606299212598426,
                    "duration": 0.10576050000000237
                },
                {
                    "name": "D#4",
                    "midi": 63,
                    "time": 74.87843400000014,
                    "velocity": 0.49606299212598426,
                    "duration": 0.10576050000000237
                },
                {
                    "name": "D#4",
                    "midi": 63,
                    "time": 75.08995500000015,
                    "velocity": 0.3937007874015748,
                    "duration": 0.10576050000000237
                },
                {
                    "name": "G4",
                    "midi": 67,
                    "time": 75.08995500000015,
                    "velocity": 0.3937007874015748,
                    "duration": 0.10576050000000237
                },
                {
                    "name": "G4",
                    "midi": 67,
                    "time": 75.51299700000015,
                    "velocity": 0.25984251968503935,
                    "duration": 0.10576050000000237
                },
                {
                    "name": "D#4",
                    "midi": 63,
                    "time": 75.51299700000015,
                    "velocity": 0.25984251968503935,
                    "duration": 0.10576050000000237
                },
                {
                    "name": "G4",
                    "midi": 67,
                    "time": 75.93603900000016,
                    "velocity": 0.25984251968503935,
                    "duration": 0.10576050000000237
                },
                {
                    "name": "D#4",
                    "midi": 63,
                    "time": 75.93603900000016,
                    "velocity": 0.25984251968503935,
                    "duration": 0.10576050000000237
                },
                {
                    "name": "G#4",
                    "midi": 68,
                    "time": 76.14756000000017,
                    "velocity": 0.49606299212598426,
                    "duration": 0.10576050000000237
                },
                {
                    "name": "D#4",
                    "midi": 63,
                    "time": 76.14756000000017,
                    "velocity": 0.49606299212598426,
                    "duration": 0.10576050000000237
                },
                {
                    "name": "D#4",
                    "midi": 63,
                    "time": 76.35908100000017,
                    "velocity": 0.3937007874015748,
                    "duration": 0.10576050000000237
                },
                {
                    "name": "G#4",
                    "midi": 68,
                    "time": 76.35908100000017,
                    "velocity": 0.3937007874015748,
                    "duration": 0.10576050000000237
                },
                {
                    "name": "D#4",
                    "midi": 63,
                    "time": 76.78212300000018,
                    "velocity": 0.25984251968503935,
                    "duration": 0.10576050000000237
                },
                {
                    "name": "G#4",
                    "midi": 68,
                    "time": 76.78212300000018,
                    "velocity": 0.25984251968503935,
                    "duration": 0.10576050000000237
                },
                {
                    "name": "G#4",
                    "midi": 68,
                    "time": 77.20516500000019,
                    "velocity": 0.25984251968503935,
                    "duration": 0.10576050000000237
                },
                {
                    "name": "D#4",
                    "midi": 63,
                    "time": 77.20516500000019,
                    "velocity": 0.25984251968503935,
                    "duration": 0.10576050000000237
                },
                {
                    "name": "D4",
                    "midi": 62,
                    "time": 77.4166860000002,
                    "velocity": 0.49606299212598426,
                    "duration": 0.10576050000000237
                },
                {
                    "name": "G#4",
                    "midi": 68,
                    "time": 77.4166860000002,
                    "velocity": 0.49606299212598426,
                    "duration": 0.10576050000000237
                },
                {
                    "name": "G#4",
                    "midi": 68,
                    "time": 77.6282070000002,
                    "velocity": 0.3937007874015748,
                    "duration": 0.10576050000000237
                },
                {
                    "name": "D4",
                    "midi": 62,
                    "time": 77.6282070000002,
                    "velocity": 0.3937007874015748,
                    "duration": 0.10576050000000237
                },
                {
                    "name": "G#4",
                    "midi": 68,
                    "time": 78.05124900000021,
                    "velocity": 0.25984251968503935,
                    "duration": 0.10576050000000237
                },
                {
                    "name": "D4",
                    "midi": 62,
                    "time": 78.05124900000021,
                    "velocity": 0.25984251968503935,
                    "duration": 0.10576050000000237
                },
                {
                    "name": "D4",
                    "midi": 62,
                    "time": 78.47429100000022,
                    "velocity": 0.25984251968503935,
                    "duration": 0.10576050000000237
                },
                {
                    "name": "G#4",
                    "midi": 68,
                    "time": 78.47429100000022,
                    "velocity": 0.25984251968503935,
                    "duration": 0.10576050000000237
                },
                {
                    "name": "D4",
                    "midi": 62,
                    "time": 78.68581200000023,
                    "velocity": 0.49606299212598426,
                    "duration": 0.10576050000000237
                },
                {
                    "name": "G4",
                    "midi": 67,
                    "time": 78.68581200000023,
                    "velocity": 0.49606299212598426,
                    "duration": 0.10576050000000237
                },
                {
                    "name": "G4",
                    "midi": 67,
                    "time": 78.89733300000023,
                    "velocity": 0.3937007874015748,
                    "duration": 0.10576050000000237
                },
                {
                    "name": "D4",
                    "midi": 62,
                    "time": 78.89733300000023,
                    "velocity": 0.3937007874015748,
                    "duration": 0.10576050000000237
                },
                {
                    "name": "D4",
                    "midi": 62,
                    "time": 79.32037500000024,
                    "velocity": 0.25984251968503935,
                    "duration": 0.10576050000000237
                },
                {
                    "name": "G4",
                    "midi": 67,
                    "time": 79.32037500000024,
                    "velocity": 0.25984251968503935,
                    "duration": 0.10576050000000237
                },
                {
                    "name": "G4",
                    "midi": 67,
                    "time": 79.74341700000025,
                    "velocity": 0.25984251968503935,
                    "duration": 0.10576050000000237
                },
                {
                    "name": "D4",
                    "midi": 62,
                    "time": 79.74341700000025,
                    "velocity": 0.25984251968503935,
                    "duration": 0.10576050000000237
                },
                {
                    "name": "C4",
                    "midi": 60,
                    "time": 79.95493800000025,
                    "velocity": 0.49606299212598426,
                    "duration": 0.10576050000000237
                },
                {
                    "name": "G4",
                    "midi": 67,
                    "time": 79.95493800000025,
                    "velocity": 0.49606299212598426,
                    "duration": 0.10576050000000237
                },
                {
                    "name": "C4",
                    "midi": 60,
                    "time": 80.16645900000026,
                    "velocity": 0.3937007874015748,
                    "duration": 0.10576050000000237
                },
                {
                    "name": "G4",
                    "midi": 67,
                    "time": 80.16645900000026,
                    "velocity": 0.3937007874015748,
                    "duration": 0.10576050000000237
                },
                {
                    "name": "C4",
                    "midi": 60,
                    "time": 80.58950100000027,
                    "velocity": 0.25984251968503935,
                    "duration": 0.10576050000000237
                },
                {
                    "name": "G4",
                    "midi": 67,
                    "time": 80.58950100000027,
                    "velocity": 0.25984251968503935,
                    "duration": 0.10576050000000237
                },
                {
                    "name": "C4",
                    "midi": 60,
                    "time": 80.80102200000027,
                    "velocity": 0.49606299212598426,
                    "duration": 0.10576050000000237
                },
                {
                    "name": "F4",
                    "midi": 65,
                    "time": 80.80102200000027,
                    "velocity": 0.49606299212598426,
                    "duration": 0.10576050000000237
                },
                {
                    "name": "F4",
                    "midi": 65,
                    "time": 81.01254300000028,
                    "velocity": 0.3937007874015748,
                    "duration": 0.10576050000000237
                },
                {
                    "name": "C4",
                    "midi": 60,
                    "time": 81.01254300000028,
                    "velocity": 0.3937007874015748,
                    "duration": 0.10576050000000237
                },
                {
                    "name": "C4",
                    "midi": 60,
                    "time": 81.43558500000029,
                    "velocity": 0.25984251968503935,
                    "duration": 0.10576050000000237
                },
                {
                    "name": "F4",
                    "midi": 65,
                    "time": 81.43558500000029,
                    "velocity": 0.25984251968503935,
                    "duration": 0.10576050000000237
                },
                {
                    "name": "F4",
                    "midi": 65,
                    "time": 81.64710600000029,
                    "velocity": 0.49606299212598426,
                    "duration": 0.10576050000000237
                },
                {
                    "name": "B3",
                    "midi": 59,
                    "time": 81.64710600000029,
                    "velocity": 0.49606299212598426,
                    "duration": 0.10576050000000237
                },
                {
                    "name": "B3",
                    "midi": 59,
                    "time": 81.8586270000003,
                    "velocity": 0.3937007874015748,
                    "duration": 0.10576050000000237
                },
                {
                    "name": "F4",
                    "midi": 65,
                    "time": 81.8586270000003,
                    "velocity": 0.3937007874015748,
                    "duration": 0.10576050000000237
                },
                {
                    "name": "B3",
                    "midi": 59,
                    "time": 82.2816690000003,
                    "velocity": 0.25984251968503935,
                    "duration": 0.10576050000000237
                },
                {
                    "name": "F4",
                    "midi": 65,
                    "time": 82.2816690000003,
                    "velocity": 0.25984251968503935,
                    "duration": 0.10576050000000237
                },
                {
                    "name": "D#4",
                    "midi": 63,
                    "time": 82.70471100000032,
                    "velocity": 0.25984251968503935,
                    "duration": 0.10576050000000237
                },
                {
                    "name": "C4",
                    "midi": 60,
                    "time": 82.70471100000032,
                    "velocity": 0.25984251968503935,
                    "duration": 0.10576050000000237
                },
                {
                    "name": "D#4",
                    "midi": 63,
                    "time": 83.12775300000033,
                    "velocity": 0.25984251968503935,
                    "duration": 0.10576050000000237
                },
                {
                    "name": "C4",
                    "midi": 60,
                    "time": 83.12775300000033,
                    "velocity": 0.25984251968503935,
                    "duration": 0.10576050000000237
                },
                {
                    "name": "C4",
                    "midi": 60,
                    "time": 83.55079500000033,
                    "velocity": 0.25984251968503935,
                    "duration": 0.10576050000000237
                },
                {
                    "name": "D#4",
                    "midi": 63,
                    "time": 83.55079500000033,
                    "velocity": 0.25984251968503935,
                    "duration": 0.10576050000000237
                },
                {
                    "name": "B3",
                    "midi": 59,
                    "time": 83.76231600000034,
                    "velocity": 0.25196850393700787,
                    "duration": 0.21152100000000473
                },
                {
                    "name": "D4",
                    "midi": 62,
                    "time": 83.76231600000034,
                    "velocity": 0.2992125984251969,
                    "duration": 0.21152100000000473
                },
                {
                    "name": "D#4",
                    "midi": 63,
                    "time": 83.97383700000034,
                    "velocity": 0.2440944881889764,
                    "duration": 0.2203343750000073
                },
                {
                    "name": "G4",
                    "midi": 67,
                    "time": 83.97383700000034,
                    "velocity": 0.29133858267716534,
                    "duration": 0.2203343750000073
                },
                {
                    "name": "F4",
                    "midi": 65,
                    "time": 84.18535800000035,
                    "velocity": 0.25984251968503935,
                    "duration": 0.2203343750000073
                },
                {
                    "name": "D4",
                    "midi": 62,
                    "time": 84.18535800000035,
                    "velocity": 0.2204724409448819,
                    "duration": 0.2203343750000073
                },
                {
                    "name": "C4",
                    "midi": 60,
                    "time": 84.39687900000035,
                    "velocity": 0.2047244094488189,
                    "duration": 0.2203343750000073
                },
                {
                    "name": "D#4",
                    "midi": 63,
                    "time": 84.39687900000035,
                    "velocity": 0.2440944881889764,
                    "duration": 0.2203343750000073
                },
                {
                    "name": "B3",
                    "midi": 59,
                    "time": 84.60840000000036,
                    "velocity": 0.2204724409448819,
                    "duration": 0.2203343750000073
                },
                {
                    "name": "D4",
                    "midi": 62,
                    "time": 84.60840000000036,
                    "velocity": 0.25984251968503935,
                    "duration": 0.2203343750000073
                },
                {
                    "name": "D#4",
                    "midi": 63,
                    "time": 84.81992100000036,
                    "velocity": 0.23622047244094488,
                    "duration": 0.2203343750000073
                },
                {
                    "name": "C4",
                    "midi": 60,
                    "time": 84.81992100000036,
                    "velocity": 0.1968503937007874,
                    "duration": 0.2203343750000073
                },
                {
                    "name": "B3",
                    "midi": 59,
                    "time": 85.03144200000037,
                    "velocity": 0.25196850393700787,
                    "duration": 0.21152100000000473
                },
                {
                    "name": "D4",
                    "midi": 62,
                    "time": 85.03144200000037,
                    "velocity": 0.2992125984251969,
                    "duration": 0.21152100000000473
                },
                {
                    "name": "G4",
                    "midi": 67,
                    "time": 85.24296300000037,
                    "velocity": 0.29133858267716534,
                    "duration": 0.2203343750000073
                },
                {
                    "name": "D#4",
                    "midi": 63,
                    "time": 85.24296300000037,
                    "velocity": 0.2440944881889764,
                    "duration": 0.2203343750000073
                },
                {
                    "name": "D4",
                    "midi": 62,
                    "time": 85.45448400000038,
                    "velocity": 0.2204724409448819,
                    "duration": 0.2203343750000073
                },
                {
                    "name": "F4",
                    "midi": 65,
                    "time": 85.45448400000038,
                    "velocity": 0.25984251968503935,
                    "duration": 0.2203343750000073
                },
                {
                    "name": "C4",
                    "midi": 60,
                    "time": 85.66600500000038,
                    "velocity": 0.2047244094488189,
                    "duration": 0.2203343750000073
                },
                {
                    "name": "D#4",
                    "midi": 63,
                    "time": 85.66600500000038,
                    "velocity": 0.2440944881889764,
                    "duration": 0.2203343750000073
                },
                {
                    "name": "D4",
                    "midi": 62,
                    "time": 85.87752600000039,
                    "velocity": 0.25984251968503935,
                    "duration": 0.2203343750000073
                },
                {
                    "name": "B3",
                    "midi": 59,
                    "time": 85.87752600000039,
                    "velocity": 0.2204724409448819,
                    "duration": 0.2203343750000073
                },
                {
                    "name": "C4",
                    "midi": 60,
                    "time": 86.08904700000039,
                    "velocity": 0.1968503937007874,
                    "duration": 0.2203343750000073
                },
                {
                    "name": "D#4",
                    "midi": 63,
                    "time": 86.08904700000039,
                    "velocity": 0.23622047244094488,
                    "duration": 0.2203343750000073
                },
                {
                    "name": "D4",
                    "midi": 62,
                    "time": 86.3005680000004,
                    "velocity": 0.29133858267716534,
                    "duration": 0.2203343750000073
                },
                {
                    "name": "B3",
                    "midi": 59,
                    "time": 86.3005680000004,
                    "velocity": 0.2440944881889764,
                    "duration": 0.2203343750000073
                },
                {
                    "name": "D#4",
                    "midi": 63,
                    "time": 86.5120890000004,
                    "velocity": 0.25196850393700787,
                    "duration": 0.2203343750000073
                },
                {
                    "name": "C4",
                    "midi": 60,
                    "time": 86.5120890000004,
                    "velocity": 0.2125984251968504,
                    "duration": 0.2203343750000073
                },
                {
                    "name": "B3",
                    "midi": 59,
                    "time": 86.7236100000004,
                    "velocity": 0.2440944881889764,
                    "duration": 0.2203343750000073
                },
                {
                    "name": "D4",
                    "midi": 62,
                    "time": 86.7236100000004,
                    "velocity": 0.29133858267716534,
                    "duration": 0.2203343750000073
                },
                {
                    "name": "C4",
                    "midi": 60,
                    "time": 86.93513100000041,
                    "velocity": 0.2204724409448819,
                    "duration": 0.2203343750000073
                },
                {
                    "name": "D#4",
                    "midi": 63,
                    "time": 86.93513100000041,
                    "velocity": 0.2677165354330709,
                    "duration": 0.2203343750000073
                },
                {
                    "name": "D4",
                    "midi": 62,
                    "time": 87.14665200000042,
                    "velocity": 0.29133858267716534,
                    "duration": 0.2203343750000073
                },
                {
                    "name": "B3",
                    "midi": 59,
                    "time": 87.14665200000042,
                    "velocity": 0.2440944881889764,
                    "duration": 0.2203343750000073
                },
                {
                    "name": "D#4",
                    "midi": 63,
                    "time": 87.35817300000042,
                    "velocity": 0.2677165354330709,
                    "duration": 0.2203343750000073
                },
                {
                    "name": "C4",
                    "midi": 60,
                    "time": 87.35817300000042,
                    "velocity": 0.2204724409448819,
                    "duration": 0.2203343750000073
                },
                {
                    "name": "B3",
                    "midi": 59,
                    "time": 87.56969400000042,
                    "velocity": 0.2440944881889764,
                    "duration": 0.21152100000000473
                },
                {
                    "name": "D4",
                    "midi": 62,
                    "time": 87.56969400000042,
                    "velocity": 0.29133858267716534,
                    "duration": 0.21152100000000473
                },
                {
                    "name": "C#4",
                    "midi": 61,
                    "time": 87.78121500000043,
                    "velocity": 0.25984251968503935,
                    "duration": 0.2203343750000073
                },
                {
                    "name": "A#3",
                    "midi": 58,
                    "time": 87.78121500000043,
                    "velocity": 0.25984251968503935,
                    "duration": 0.2203343750000073
                },
                {
                    "name": "B3",
                    "midi": 59,
                    "time": 87.99273600000043,
                    "velocity": 0.2755905511811024,
                    "duration": 0.2203343750000073
                },
                {
                    "name": "D4",
                    "midi": 62,
                    "time": 87.99273600000043,
                    "velocity": 0.2755905511811024,
                    "duration": 0.2203343750000073
                },
                {
                    "name": "E4",
                    "midi": 64,
                    "time": 88.20425700000044,
                    "velocity": 0.28346456692913385,
                    "duration": 0.2203343750000073
                },
                {
                    "name": "C#4",
                    "midi": 61,
                    "time": 88.20425700000044,
                    "velocity": 0.28346456692913385,
                    "duration": 0.2203343750000073
                },
                {
                    "name": "F4",
                    "midi": 65,
                    "time": 88.41577800000044,
                    "velocity": 0.2992125984251969,
                    "duration": 0.2203343750000073
                },
                {
                    "name": "D4",
                    "midi": 62,
                    "time": 88.41577800000044,
                    "velocity": 0.2992125984251969,
                    "duration": 0.2203343750000073
                },
                {
                    "name": "G4",
                    "midi": 67,
                    "time": 88.62729900000045,
                    "velocity": 0.31496062992125984,
                    "duration": 0.2203343750000073
                },
                {
                    "name": "E4",
                    "midi": 64,
                    "time": 88.62729900000045,
                    "velocity": 0.31496062992125984,
                    "duration": 0.2203343750000073
                },
                {
                    "name": "A4",
                    "midi": 69,
                    "time": 88.83882000000045,
                    "velocity": 0.33070866141732286,
                    "duration": 0.42304200000000947
                },
                {
                    "name": "F4",
                    "midi": 65,
                    "time": 88.83882000000045,
                    "velocity": 0.2755905511811024,
                    "duration": 0.42304200000000947
                },
                {
                    "name": "C4",
                    "midi": 60,
                    "time": 89.26186200000046,
                    "velocity": 0.2677165354330709,
                    "duration": 0.42304199999999526
                },
                {
                    "name": "F4",
                    "midi": 65,
                    "time": 89.26186200000046,
                    "velocity": 0.2677165354330709,
                    "duration": 0.42304199999999526
                },
                {
                    "name": "A4",
                    "midi": 69,
                    "time": 89.26186200000046,
                    "velocity": 0.31496062992125984,
                    "duration": 0.42304199999999526
                },
                {
                    "name": "F4",
                    "midi": 65,
                    "time": 89.68490400000046,
                    "velocity": 0.2677165354330709,
                    "duration": 0.42304199999999526
                },
                {
                    "name": "A4",
                    "midi": 69,
                    "time": 89.68490400000046,
                    "velocity": 0.31496062992125984,
                    "duration": 0.42304199999999526
                },
                {
                    "name": "C4",
                    "midi": 60,
                    "time": 89.68490400000046,
                    "velocity": 0.2677165354330709,
                    "duration": 0.42304199999999526
                },
                {
                    "name": "A4",
                    "midi": 69,
                    "time": 90.10794600000045,
                    "velocity": 0.33070866141732286,
                    "duration": 0.8460840000000047
                },
                {
                    "name": "C4",
                    "midi": 60,
                    "time": 90.10794600000045,
                    "velocity": 0.2755905511811024,
                    "duration": 1.269126
                },
                {
                    "name": "F4",
                    "midi": 65,
                    "time": 90.10794600000045,
                    "velocity": 0.2755905511811024,
                    "duration": 0.8460840000000047
                },
                {
                    "name": "E4",
                    "midi": 64,
                    "time": 90.95403000000046,
                    "velocity": 0.2204724409448819,
                    "duration": 0.42304199999999526
                },
                {
                    "name": "G4",
                    "midi": 67,
                    "time": 90.95403000000046,
                    "velocity": 0.2677165354330709,
                    "duration": 0.42304199999999526
                },
                {
                    "name": "B3",
                    "midi": 59,
                    "time": 91.37707200000045,
                    "velocity": 0.2755905511811024,
                    "duration": 0.42304200000000947
                },
                {
                    "name": "D4",
                    "midi": 62,
                    "time": 91.37707200000045,
                    "velocity": 0.2755905511811024,
                    "duration": 0.42304200000000947
                },
                {
                    "name": "G4",
                    "midi": 67,
                    "time": 91.37707200000045,
                    "velocity": 0.33070866141732286,
                    "duration": 0.21152100000000473
                },
                {
                    "name": "F4",
                    "midi": 65,
                    "time": 91.58859300000046,
                    "velocity": 0.2992125984251969,
                    "duration": 0.21152100000000473
                },
                {
                    "name": "F4",
                    "midi": 65,
                    "time": 91.80011400000046,
                    "velocity": 0.33070866141732286,
                    "duration": 0.42304199999999526
                },
                {
                    "name": "B3",
                    "midi": 59,
                    "time": 91.80011400000046,
                    "velocity": 0.2755905511811024,
                    "duration": 0.42304199999999526
                },
                {
                    "name": "D4",
                    "midi": 62,
                    "time": 91.80011400000046,
                    "velocity": 0.2755905511811024,
                    "duration": 0.42304199999999526
                },
                {
                    "name": "F4",
                    "midi": 65,
                    "time": 92.22315600000046,
                    "velocity": 0.2992125984251969,
                    "duration": 0.42304199999999526
                },
                {
                    "name": "D4",
                    "midi": 62,
                    "time": 92.22315600000046,
                    "velocity": 0.25196850393700787,
                    "duration": 0.42304199999999526
                },
                {
                    "name": "B3",
                    "midi": 59,
                    "time": 92.22315600000046,
                    "velocity": 0.25196850393700787,
                    "duration": 0.42304199999999526
                },
                {
                    "name": "B3",
                    "midi": 59,
                    "time": 92.64619800000045,
                    "velocity": 0.2755905511811024,
                    "duration": 0.8460840000000047
                },
                {
                    "name": "D4",
                    "midi": 62,
                    "time": 92.64619800000045,
                    "velocity": 0.2755905511811024,
                    "duration": 0.8460840000000047
                },
                {
                    "name": "F4",
                    "midi": 65,
                    "time": 92.64619800000045,
                    "velocity": 0.33070866141732286,
                    "duration": 0.8460840000000047
                },
                {
                    "name": "E4",
                    "midi": 64,
                    "time": 93.49228200000046,
                    "velocity": 0.30708661417322836,
                    "duration": 0.42304199999999526
                },
                {
                    "name": "C4",
                    "midi": 60,
                    "time": 93.49228200000046,
                    "velocity": 0.25984251968503935,
                    "duration": 0.42304199999999526
                },
                {
                    "name": "G4",
                    "midi": 67,
                    "time": 93.91532400000045,
                    "velocity": 0.33070866141732286,
                    "duration": 0.21152100000000473
                },
                {
                    "name": "E4",
                    "midi": 64,
                    "time": 93.91532400000045,
                    "velocity": 0.2755905511811024,
                    "duration": 0.21152100000000473
                },
                {
                    "name": "F4",
                    "midi": 65,
                    "time": 94.12684500000046,
                    "velocity": 0.29133858267716534,
                    "duration": 0.21152100000000473
                },
                {
                    "name": "D4",
                    "midi": 62,
                    "time": 94.12684500000046,
                    "velocity": 0.2440944881889764,
                    "duration": 0.21152100000000473
                },
                {
                    "name": "C4",
                    "midi": 60,
                    "time": 94.33836600000046,
                    "velocity": 0.2755905511811024,
                    "duration": 0.42304199999999526
                },
                {
                    "name": "E4",
                    "midi": 64,
                    "time": 94.33836600000046,
                    "velocity": 0.33070866141732286,
                    "duration": 0.42304199999999526
                },
                {
                    "name": "B3",
                    "midi": 59,
                    "time": 94.76140800000046,
                    "velocity": 0.23622047244094488,
                    "duration": 0.42304199999999526
                },
                {
                    "name": "D4",
                    "midi": 62,
                    "time": 94.76140800000046,
                    "velocity": 0.28346456692913385,
                    "duration": 0.42304199999999526
                },
                {
                    "name": "C4",
                    "midi": 60,
                    "time": 95.18445000000045,
                    "velocity": 0.2755905511811024,
                    "duration": 0.21152100000000473
                },
                {
                    "name": "E4",
                    "midi": 64,
                    "time": 95.18445000000045,
                    "velocity": 0.33070866141732286,
                    "duration": 0.21152100000000473
                },
                {
                    "name": "C5",
                    "midi": 72,
                    "time": 95.39597100000046,
                    "velocity": 0.2755905511811024,
                    "duration": 0.1938942499999996
                },
                {
                    "name": "D5",
                    "midi": 74,
                    "time": 95.60749200000046,
                    "velocity": 0.29133858267716534,
                    "duration": 0.1938942499999996
                },
                {
                    "name": "E5",
                    "midi": 76,
                    "time": 95.81901300000047,
                    "velocity": 0.2992125984251969,
                    "duration": 0.1938942499999996
                },
                {
                    "name": "F5",
                    "midi": 77,
                    "time": 96.03053400000047,
                    "velocity": 0.31496062992125984,
                    "duration": 0.1938942499999996
                },
                {
                    "name": "G5",
                    "midi": 79,
                    "time": 96.24205500000048,
                    "velocity": 0.3228346456692913,
                    "duration": 0.1938942499999996
                },
                {
                    "name": "A5",
                    "midi": 81,
                    "time": 96.45357600000048,
                    "velocity": 0.36220472440944884,
                    "duration": 0.42304199999999526
                },
                {
                    "name": "A5",
                    "midi": 81,
                    "time": 96.87661800000048,
                    "velocity": 0.3464566929133858,
                    "duration": 0.42304199999999526
                },
                {
                    "name": "A5",
                    "midi": 81,
                    "time": 97.29966000000047,
                    "velocity": 0.3464566929133858,
                    "duration": 0.42304199999999526
                },
                {
                    "name": "A5",
                    "midi": 81,
                    "time": 97.72270200000047,
                    "velocity": 0.36220472440944884,
                    "duration": 0.634563
                },
                {
                    "name": "B5",
                    "midi": 83,
                    "time": 98.35726500000047,
                    "velocity": 0.30708661417322836,
                    "duration": 0.10576050000000237
                },
                {
                    "name": "A5",
                    "midi": 81,
                    "time": 98.46302550000047,
                    "velocity": 0.30708661417322836,
                    "duration": 0.10576050000000237
                },
                {
                    "name": "G5",
                    "midi": 79,
                    "time": 98.56878600000047,
                    "velocity": 0.36220472440944884,
                    "duration": 0.42304199999999526
                },
                {
                    "name": "G5",
                    "midi": 79,
                    "time": 98.99182800000047,
                    "velocity": 0.36220472440944884,
                    "duration": 0.21152100000000473
                },
                {
                    "name": "B4",
                    "midi": 71,
                    "time": 98.99182800000047,
                    "velocity": 0.2755905511811024,
                    "duration": 0.42304200000000947
                },
                {
                    "name": "F5",
                    "midi": 77,
                    "time": 99.20334900000047,
                    "velocity": 0.3228346456692913,
                    "duration": 0.21152100000000473
                },
                {
                    "name": "B4",
                    "midi": 71,
                    "time": 99.41487000000048,
                    "velocity": 0.2755905511811024,
                    "duration": 0.42304199999999526
                },
                {
                    "name": "F5",
                    "midi": 77,
                    "time": 99.41487000000048,
                    "velocity": 0.36220472440944884,
                    "duration": 0.42304199999999526
                },
                {
                    "name": "F5",
                    "midi": 77,
                    "time": 99.83791200000047,
                    "velocity": 0.3228346456692913,
                    "duration": 0.42304199999999526
                },
                {
                    "name": "B4",
                    "midi": 71,
                    "time": 99.83791200000047,
                    "velocity": 0.25196850393700787,
                    "duration": 0.42304199999999526
                },
                {
                    "name": "B4",
                    "midi": 71,
                    "time": 100.26095400000047,
                    "velocity": 0.2755905511811024,
                    "duration": 0.8460840000000047
                },
                {
                    "name": "F5",
                    "midi": 77,
                    "time": 100.26095400000047,
                    "velocity": 0.36220472440944884,
                    "duration": 0.8460840000000047
                },
                {
                    "name": "E5",
                    "midi": 76,
                    "time": 101.10703800000047,
                    "velocity": 0.33070866141732286,
                    "duration": 0.42304199999999526
                },
                {
                    "name": "C5",
                    "midi": 72,
                    "time": 101.10703800000047,
                    "velocity": 0.25984251968503935,
                    "duration": 0.42304199999999526
                },
                {
                    "name": "G5",
                    "midi": 79,
                    "time": 101.53008000000047,
                    "velocity": 0.36220472440944884,
                    "duration": 0.21152100000000473
                },
                {
                    "name": "E5",
                    "midi": 76,
                    "time": 101.53008000000047,
                    "velocity": 0.2755905511811024,
                    "duration": 0.21152100000000473
                },
                {
                    "name": "F5",
                    "midi": 77,
                    "time": 101.74160100000047,
                    "velocity": 0.31496062992125984,
                    "duration": 0.21152100000000473
                },
                {
                    "name": "D5",
                    "midi": 74,
                    "time": 101.74160100000047,
                    "velocity": 0.2440944881889764,
                    "duration": 0.21152100000000473
                },
                {
                    "name": "E5",
                    "midi": 76,
                    "time": 101.95312200000048,
                    "velocity": 0.36220472440944884,
                    "duration": 0.42304199999999526
                },
                {
                    "name": "C5",
                    "midi": 72,
                    "time": 101.95312200000048,
                    "velocity": 0.2755905511811024,
                    "duration": 0.42304199999999526
                },
                {
                    "name": "B4",
                    "midi": 71,
                    "time": 102.37616400000047,
                    "velocity": 0.23622047244094488,
                    "duration": 0.42304199999999526
                },
                {
                    "name": "D5",
                    "midi": 74,
                    "time": 102.37616400000047,
                    "velocity": 0.30708661417322836,
                    "duration": 0.42304199999999526
                },
                {
                    "name": "G5",
                    "midi": 79,
                    "time": 102.79920600000047,
                    "velocity": 0.49606299212598426,
                    "duration": 0.10576050000000237
                },
                {
                    "name": "E5",
                    "midi": 76,
                    "time": 102.79920600000047,
                    "velocity": 0.49606299212598426,
                    "duration": 0.10576050000000237
                },
                {
                    "name": "G5",
                    "midi": 79,
                    "time": 103.01072700000047,
                    "velocity": 0.3937007874015748,
                    "duration": 0.10576050000000237
                },
                {
                    "name": "E5",
                    "midi": 76,
                    "time": 103.01072700000047,
                    "velocity": 0.3937007874015748,
                    "duration": 0.10576050000000237
                },
                {
                    "name": "D5",
                    "midi": 74,
                    "time": 103.43376900000047,
                    "velocity": 0.25984251968503935,
                    "duration": 0.10576050000000237
                },
                {
                    "name": "F5",
                    "midi": 77,
                    "time": 103.43376900000047,
                    "velocity": 0.25984251968503935,
                    "duration": 0.10576050000000237
                },
                {
                    "name": "C5",
                    "midi": 72,
                    "time": 103.85681100000048,
                    "velocity": 0.25984251968503935,
                    "duration": 0.10576050000000237
                },
                {
                    "name": "E5",
                    "midi": 76,
                    "time": 103.85681100000048,
                    "velocity": 0.25984251968503935,
                    "duration": 0.10576050000000237
                },
                {
                    "name": "D5",
                    "midi": 74,
                    "time": 104.27985300000049,
                    "velocity": 0.25984251968503935,
                    "duration": 0.10576050000000237
                },
                {
                    "name": "F4",
                    "midi": 65,
                    "time": 104.27985300000049,
                    "velocity": 0.25984251968503935,
                    "duration": 0.10576050000000237
                },
                {
                    "name": "C5",
                    "midi": 72,
                    "time": 104.7028950000005,
                    "velocity": 0.25984251968503935,
                    "duration": 0.10576050000000237
                },
                {
                    "name": "E4",
                    "midi": 64,
                    "time": 104.7028950000005,
                    "velocity": 0.25984251968503935,
                    "duration": 0.10576050000000237
                },
                {
                    "name": "D4",
                    "midi": 62,
                    "time": 105.1259370000005,
                    "velocity": 0.25984251968503935,
                    "duration": 0.10576050000000237
                },
                {
                    "name": "B4",
                    "midi": 71,
                    "time": 105.1259370000005,
                    "velocity": 0.25984251968503935,
                    "duration": 0.10576050000000237
                },
                {
                    "name": "E5",
                    "midi": 76,
                    "time": 105.44321850000051,
                    "velocity": 0.5669291338582677,
                    "duration": 0.10576050000000237
                },
                {
                    "name": "G5",
                    "midi": 79,
                    "time": 105.54897900000051,
                    "velocity": 0.5905511811023622,
                    "duration": 0.10576050000000237
                },
                {
                    "name": "E5",
                    "midi": 76,
                    "time": 105.65473950000052,
                    "velocity": 0.5669291338582677,
                    "duration": 0.10576050000000237
                },
                {
                    "name": "D5",
                    "midi": 74,
                    "time": 105.86626050000052,
                    "velocity": 0.5511811023622047,
                    "duration": 0.10576050000000237
                },
                {
                    "name": "F5",
                    "midi": 77,
                    "time": 105.97202100000052,
                    "velocity": 0.5905511811023622,
                    "duration": 0.10576050000000237
                },
                {
                    "name": "D5",
                    "midi": 74,
                    "time": 106.07778150000053,
                    "velocity": 0.5511811023622047,
                    "duration": 0.10576050000000237
                },
                {
                    "name": "C5",
                    "midi": 72,
                    "time": 106.28930250000053,
                    "velocity": 0.5669291338582677,
                    "duration": 0.10576050000000237
                },
                {
                    "name": "E5",
                    "midi": 76,
                    "time": 106.39506300000053,
                    "velocity": 0.5905511811023622,
                    "duration": 0.10576050000000237
                },
                {
                    "name": "C5",
                    "midi": 72,
                    "time": 106.50082350000054,
                    "velocity": 0.5590551181102362,
                    "duration": 0.10576050000000237
                },
                {
                    "name": "F4",
                    "midi": 65,
                    "time": 106.71234450000054,
                    "velocity": 0.5590551181102362,
                    "duration": 0.10576050000000237
                },
                {
                    "name": "D5",
                    "midi": 74,
                    "time": 106.81810500000054,
                    "velocity": 0.5905511811023622,
                    "duration": 0.10576050000000237
                },
                {
                    "name": "F4",
                    "midi": 65,
                    "time": 106.92386550000055,
                    "velocity": 0.5590551181102362,
                    "duration": 0.10576050000000237
                },
                {
                    "name": "E4",
                    "midi": 64,
                    "time": 107.13538650000055,
                    "velocity": 0.5590551181102362,
                    "duration": 0.10576050000000237
                },
                {
                    "name": "C5",
                    "midi": 72,
                    "time": 107.24114700000055,
                    "velocity": 0.5905511811023622,
                    "duration": 0.10576050000000237
                },
                {
                    "name": "E4",
                    "midi": 64,
                    "time": 107.34690750000055,
                    "velocity": 0.5590551181102362,
                    "duration": 0.10576050000000237
                },
                {
                    "name": "D4",
                    "midi": 62,
                    "time": 107.55842850000056,
                    "velocity": 0.5590551181102362,
                    "duration": 0.10576050000000237
                },
                {
                    "name": "B4",
                    "midi": 71,
                    "time": 107.66418900000056,
                    "velocity": 0.5905511811023622,
                    "duration": 0.10576050000000237
                },
                {
                    "name": "D4",
                    "midi": 62,
                    "time": 107.76994950000056,
                    "velocity": 0.5590551181102362,
                    "duration": 0.10576050000000237
                },
                {
                    "name": "E4",
                    "midi": 64,
                    "time": 107.87571000000057,
                    "velocity": 0.5905511811023622,
                    "duration": 0.42304199999999526
                },
                {
                    "name": "G4",
                    "midi": 67,
                    "time": 107.87571000000057,
                    "velocity": 0.5905511811023622,
                    "duration": 0.42304199999999526
                },
                {
                    "name": "C5",
                    "midi": 72,
                    "time": 107.87571000000057,
                    "velocity": 0.5905511811023622,
                    "duration": 0.42304199999999526
                },
                {
                    "name": "E5",
                    "midi": 76,
                    "time": 108.72179400000056,
                    "velocity": 0.5511811023622047,
                    "duration": 0.05288025000000118
                },
                {
                    "name": "F5",
                    "midi": 77,
                    "time": 108.77467425000056,
                    "velocity": 0.5118110236220472,
                    "duration": 0.05288025000000118
                },
                {
                    "name": "E5",
                    "midi": 76,
                    "time": 108.82755450000056,
                    "velocity": 0.5511811023622047,
                    "duration": 0.05288025000000118
                },
                {
                    "name": "F5",
                    "midi": 77,
                    "time": 108.88043475000056,
                    "velocity": 0.5196850393700787,
                    "duration": 0.05288025000000118
                },
                {
                    "name": "E5",
                    "midi": 76,
                    "time": 108.93331500000056,
                    "velocity": 0.5511811023622047,
                    "duration": 0.03525349999999605
                },
                {
                    "name": "F5",
                    "midi": 77,
                    "time": 108.96856850000056,
                    "velocity": 0.5196850393700787,
                    "duration": 0.03525349999999605
                },
                {
                    "name": "E5",
                    "midi": 76,
                    "time": 109.00382200000055,
                    "velocity": 0.5196850393700787,
                    "duration": 0.03525349999999605
                },
                {
                    "name": "D5",
                    "midi": 74,
                    "time": 109.03907550000055,
                    "velocity": 0.5511811023622047,
                    "duration": 0.05288025000000118
                },
                {
                    "name": "C5",
                    "midi": 72,
                    "time": 109.09195575000055,
                    "velocity": 0.5196850393700787,
                    "duration": 0.05288025000000118
                },
                {
                    "name": "G5",
                    "midi": 79,
                    "time": 109.14483600000055,
                    "velocity": 0.5905511811023622,
                    "duration": 0.8460840000000047
                },
                {
                    "name": "B5",
                    "midi": 83,
                    "time": 109.99092000000056,
                    "velocity": 0.5511811023622047,
                    "duration": 0.05288025000000118
                },
                {
                    "name": "C6",
                    "midi": 84,
                    "time": 110.04380025000056,
                    "velocity": 0.5196850393700787,
                    "duration": 0.05288025000000118
                },
                {
                    "name": "B5",
                    "midi": 83,
                    "time": 110.09668050000056,
                    "velocity": 0.5511811023622047,
                    "duration": 0.05288025000000118
                },
                {
                    "name": "C6",
                    "midi": 84,
                    "time": 110.14956075000056,
                    "velocity": 0.5196850393700787,
                    "duration": 0.05288025000000118
                },
                {
                    "name": "B5",
                    "midi": 83,
                    "time": 110.20244100000056,
                    "velocity": 0.5511811023622047,
                    "duration": 0.03525349999999605
                },
                {
                    "name": "C6",
                    "midi": 84,
                    "time": 110.23769450000056,
                    "velocity": 0.5118110236220472,
                    "duration": 0.03525349999999605
                },
                {
                    "name": "B5",
                    "midi": 83,
                    "time": 110.27294800000055,
                    "velocity": 0.5196850393700787,
                    "duration": 0.03525349999999605
                },
                {
                    "name": "A5",
                    "midi": 81,
                    "time": 110.30820150000055,
                    "velocity": 0.5511811023622047,
                    "duration": 0.05288025000000118
                },
                {
                    "name": "G5",
                    "midi": 79,
                    "time": 110.36108175000055,
                    "velocity": 0.5118110236220472,
                    "duration": 0.05288025000000118
                },
                {
                    "name": "C6",
                    "midi": 84,
                    "time": 110.41396200000055,
                    "velocity": 0.5905511811023622,
                    "duration": 0.8460840000000047
                },
                {
                    "name": "E5",
                    "midi": 76,
                    "time": 111.26004600000056,
                    "velocity": 0.5511811023622047,
                    "duration": 0.05288025000000118
                },
                {
                    "name": "F5",
                    "midi": 77,
                    "time": 111.31292625000056,
                    "velocity": 0.5118110236220472,
                    "duration": 0.05288025000000118
                },
                {
                    "name": "E5",
                    "midi": 76,
                    "time": 111.36580650000056,
                    "velocity": 0.5511811023622047,
                    "duration": 0.05288025000000118
                },
                {
                    "name": "F5",
                    "midi": 77,
                    "time": 111.41868675000056,
                    "velocity": 0.5196850393700787,
                    "duration": 0.05288025000000118
                },
                {
                    "name": "E5",
                    "midi": 76,
                    "time": 111.47156700000056,
                    "velocity": 0.5511811023622047,
                    "duration": 0.03525349999999605
                },
                {
                    "name": "F5",
                    "midi": 77,
                    "time": 111.50682050000056,
                    "velocity": 0.5196850393700787,
                    "duration": 0.03525349999999605
                },
                {
                    "name": "E5",
                    "midi": 76,
                    "time": 111.54207400000055,
                    "velocity": 0.5196850393700787,
                    "duration": 0.03525349999999605
                },
                {
                    "name": "D5",
                    "midi": 74,
                    "time": 111.57732750000055,
                    "velocity": 0.5511811023622047,
                    "duration": 0.05288025000000118
                },
                {
                    "name": "C5",
                    "midi": 72,
                    "time": 111.63020775000055,
                    "velocity": 0.5196850393700787,
                    "duration": 0.05288025000000118
                },
                {
                    "name": "G5",
                    "midi": 79,
                    "time": 111.68308800000055,
                    "velocity": 0.5905511811023622,
                    "duration": 0.21152100000000473
                },
                {
                    "name": "G5",
                    "midi": 79,
                    "time": 112.10613000000056,
                    "velocity": 0.5905511811023622,
                    "duration": 0.21152100000000473
                },
                {
                    "name": "B5",
                    "midi": 83,
                    "time": 112.52917200000057,
                    "velocity": 0.5511811023622047,
                    "duration": 0.05288025000000118
                },
                {
                    "name": "C6",
                    "midi": 84,
                    "time": 112.58205225000057,
                    "velocity": 0.5196850393700787,
                    "duration": 0.05288025000000118
                },
                {
                    "name": "B5",
                    "midi": 83,
                    "time": 112.63493250000057,
                    "velocity": 0.5511811023622047,
                    "duration": 0.05288025000000118
                },
                {
                    "name": "C6",
                    "midi": 84,
                    "time": 112.68781275000057,
                    "velocity": 0.5196850393700787,
                    "duration": 0.05288025000000118
                },
                {
                    "name": "B5",
                    "midi": 83,
                    "time": 112.74069300000058,
                    "velocity": 0.5511811023622047,
                    "duration": 0.03525349999999605
                },
                {
                    "name": "C6",
                    "midi": 84,
                    "time": 112.77594650000057,
                    "velocity": 0.5118110236220472,
                    "duration": 0.03525349999999605
                },
                {
                    "name": "B5",
                    "midi": 83,
                    "time": 112.81120000000057,
                    "velocity": 0.5196850393700787,
                    "duration": 0.03525349999999605
                },
                {
                    "name": "A5",
                    "midi": 81,
                    "time": 112.84645350000056,
                    "velocity": 0.5511811023622047,
                    "duration": 0.05288025000000118
                },
                {
                    "name": "G5",
                    "midi": 79,
                    "time": 112.89933375000057,
                    "velocity": 0.5118110236220472,
                    "duration": 0.05288025000000118
                },
                {
                    "name": "C6",
                    "midi": 84,
                    "time": 112.95221400000057,
                    "velocity": 0.5905511811023622,
                    "duration": 0.10576050000000237
                },
                {
                    "name": "E6",
                    "midi": 88,
                    "time": 113.37525600000058,
                    "velocity": 0.6929133858267716,
                    "duration": 0.634563
                },
                {
                    "name": "G#5",
                    "midi": 80,
                    "time": 114.00981900000058,
                    "velocity": 0.5905511811023622,
                    "duration": 0.21152100000000473
                },
                {
                    "name": "A5",
                    "midi": 81,
                    "time": 114.22134000000058,
                    "velocity": 0.5905511811023622,
                    "duration": 0.10576050000000237
                },
                {
                    "name": "C6",
                    "midi": 84,
                    "time": 114.64438200000058,
                    "velocity": 0.7007874015748031,
                    "duration": 0.634563
                },
                {
                    "name": "E5",
                    "midi": 76,
                    "time": 115.27894500000058,
                    "velocity": 0.5905511811023622,
                    "duration": 0.21152100000000473
                },
                {
                    "name": "F5",
                    "midi": 77,
                    "time": 115.49046600000058,
                    "velocity": 0.5511811023622047,
                    "duration": 0.05288025000000118
                },
                {
                    "name": "G5",
                    "midi": 79,
                    "time": 115.54334625000058,
                    "velocity": 0.5118110236220472,
                    "duration": 0.05288025000000118
                },
                {
                    "name": "F5",
                    "midi": 77,
                    "time": 115.59622650000058,
                    "velocity": 0.5511811023622047,
                    "duration": 0.05288025000000118
                },
                {
                    "name": "G5",
                    "midi": 79,
                    "time": 115.64910675000058,
                    "velocity": 0.5196850393700787,
                    "duration": 0.05288025000000118
                },
                {
                    "name": "F5",
                    "midi": 77,
                    "time": 115.70198700000059,
                    "velocity": 0.5511811023622047,
                    "duration": 0.03525349999999605
                },
                {
                    "name": "G5",
                    "midi": 79,
                    "time": 115.73724050000058,
                    "velocity": 0.5196850393700787,
                    "duration": 0.03525349999999605
                },
                {
                    "name": "F5",
                    "midi": 77,
                    "time": 115.77249400000058,
                    "velocity": 0.5196850393700787,
                    "duration": 0.03525349999999605
                },
                {
                    "name": "E5",
                    "midi": 76,
                    "time": 115.80774750000057,
                    "velocity": 0.5511811023622047,
                    "duration": 0.05288025000000118
                },
                {
                    "name": "D5",
                    "midi": 74,
                    "time": 115.86062775000057,
                    "velocity": 0.5196850393700787,
                    "duration": 0.05288025000000118
                },
                {
                    "name": "G5",
                    "midi": 79,
                    "time": 115.91350800000058,
                    "velocity": 0.6614173228346457,
                    "duration": 0.10576050000000237
                },
                {
                    "name": "G5",
                    "midi": 79,
                    "time": 116.33655000000059,
                    "velocity": 0.5669291338582677,
                    "duration": 0.10576050000000237
                },
                {
                    "name": "D5",
                    "midi": 74,
                    "time": 116.33655000000059,
                    "velocity": 0.5669291338582677,
                    "duration": 0.10576050000000237
                },
                {
                    "name": "B5",
                    "midi": 83,
                    "time": 116.33655000000059,
                    "velocity": 0.6771653543307087,
                    "duration": 0.10576050000000237
                },
                {
                    "name": "C6",
                    "midi": 84,
                    "time": 116.7595920000006,
                    "velocity": 0.6771653543307087,
                    "duration": 0.10576050000000237
                },
                {
                    "name": "E5",
                    "midi": 76,
                    "time": 116.7595920000006,
                    "velocity": 0.5669291338582677,
                    "duration": 0.10576050000000237
                },
                {
                    "name": "G5",
                    "midi": 79,
                    "time": 116.7595920000006,
                    "velocity": 0.5669291338582677,
                    "duration": 0.10576050000000237
                },
                {
                    "name": "C4",
                    "midi": 60,
                    "time": 117.1826340000006,
                    "velocity": 0.6220472440944882,
                    "duration": 0.10576050000000237
                },
                {
                    "name": "F4",
                    "midi": 65,
                    "time": 118.02871800000061,
                    "velocity": 0.3937007874015748,
                    "duration": 0.8460840000000047
                },
                {
                    "name": "A4",
                    "midi": 69,
                    "time": 118.87480200000061,
                    "velocity": 0.3700787401574803,
                    "duration": 0.42304199999999526
                },
                {
                    "name": "C5",
                    "midi": 72,
                    "time": 119.29784400000061,
                    "velocity": 0.4094488188976378,
                    "duration": 0.8460840000000047
                },
                {
                    "name": "A4",
                    "midi": 69,
                    "time": 120.14392800000061,
                    "velocity": 0.36220472440944884,
                    "duration": 0.42304199999999526
                },
                {
                    "name": "A#4",
                    "midi": 70,
                    "time": 120.56697000000061,
                    "velocity": 0.3937007874015748,
                    "duration": 0.8460840000000047
                },
                {
                    "name": "G5",
                    "midi": 79,
                    "time": 121.41305400000061,
                    "velocity": 0.3700787401574803,
                    "duration": 0.42304199999999526
                },
                {
                    "name": "F5",
                    "midi": 77,
                    "time": 121.83609600000061,
                    "velocity": 0.3700787401574803,
                    "duration": 0.21152100000000473
                },
                {
                    "name": "E5",
                    "midi": 76,
                    "time": 122.04761700000061,
                    "velocity": 0.3464566929133858,
                    "duration": 0.20887698750000538
                },
                {
                    "name": "E5",
                    "midi": 76,
                    "time": 122.25913800000062,
                    "velocity": 0.3464566929133858,
                    "duration": 0.42304199999999526
                },
                {
                    "name": "F5",
                    "midi": 77,
                    "time": 123.10522200000061,
                    "velocity": 0.3937007874015748,
                    "duration": 0.42304199999999526
                },
                {
                    "name": "A4",
                    "midi": 69,
                    "time": 123.5282640000006,
                    "velocity": 0.36220472440944884,
                    "duration": 0.42304199999999526
                },
                {
                    "name": "D5",
                    "midi": 74,
                    "time": 123.9513060000006,
                    "velocity": 0.36220472440944884,
                    "duration": 0.42304199999999526
                },
                {
                    "name": "G4",
                    "midi": 67,
                    "time": 124.3743480000006,
                    "velocity": 0.3937007874015748,
                    "duration": 0.42304199999999526
                },
                {
                    "name": "C5",
                    "midi": 72,
                    "time": 124.79739000000059,
                    "velocity": 0.4251968503937008,
                    "duration": 0.634563
                },
                {
                    "name": "A4",
                    "midi": 69,
                    "time": 125.43195300000059,
                    "velocity": 0.3543307086614173,
                    "duration": 0.21152100000000473
                },
                {
                    "name": "F4",
                    "midi": 65,
                    "time": 125.6434740000006,
                    "velocity": 0.3937007874015748,
                    "duration": 1.6921679999999952
                },
                {
                    "name": "G4",
                    "midi": 67,
                    "time": 126.9126000000006,
                    "velocity": 0.3937007874015748,
                    "duration": 1.269126
                },
                {
                    "name": "E4",
                    "midi": 64,
                    "time": 127.33564200000059,
                    "velocity": 0.33070866141732286,
                    "duration": 0.05288025000000118
                },
                {
                    "name": "F4",
                    "midi": 65,
                    "time": 127.38852225000059,
                    "velocity": 0.29133858267716534,
                    "duration": 0.05288025000000118
                },
                {
                    "name": "E4",
                    "midi": 64,
                    "time": 127.44140250000059,
                    "velocity": 0.3779527559055118,
                    "duration": 0.10576050000000237
                },
                {
                    "name": "D4",
                    "midi": 62,
                    "time": 127.5471630000006,
                    "velocity": 0.3779527559055118,
                    "duration": 0.21152100000000473
                },
                {
                    "name": "E4",
                    "midi": 64,
                    "time": 127.7586840000006,
                    "velocity": 0.3937007874015748,
                    "duration": 0.42304199999999526
                },
                {
                    "name": "A4",
                    "midi": 69,
                    "time": 128.1817260000006,
                    "velocity": 0.3779527559055118,
                    "duration": 0.42304200000000947
                },
                {
                    "name": "F4",
                    "midi": 65,
                    "time": 128.1817260000006,
                    "velocity": 0.3779527559055118,
                    "duration": 1.6921680000000379
                },
                {
                    "name": "A#4",
                    "midi": 70,
                    "time": 128.6047680000006,
                    "velocity": 0.4094488188976378,
                    "duration": 0.42304200000000947
                },
                {
                    "name": "D5",
                    "midi": 74,
                    "time": 129.0278100000006,
                    "velocity": 0.4330708661417323,
                    "duration": 0.4203979874999959
                },
                {
                    "name": "D5",
                    "midi": 74,
                    "time": 129.45085200000062,
                    "velocity": 0.4566929133858268,
                    "duration": 0.21152100000000473
                },
                {
                    "name": "C5",
                    "midi": 72,
                    "time": 129.66237300000063,
                    "velocity": 0.44881889763779526,
                    "duration": 0.21152100000000473
                },
                {
                    "name": "A#4",
                    "midi": 70,
                    "time": 129.87389400000063,
                    "velocity": 0.4409448818897638,
                    "duration": 0.21152100000000473
                },
                {
                    "name": "A4",
                    "midi": 69,
                    "time": 130.08541500000064,
                    "velocity": 0.4251968503937008,
                    "duration": 0.21152100000000473
                },
                {
                    "name": "G4",
                    "midi": 67,
                    "time": 130.29693600000064,
                    "velocity": 0.41732283464566927,
                    "duration": 0.21152100000000473
                },
                {
                    "name": "F4",
                    "midi": 65,
                    "time": 130.50845700000065,
                    "velocity": 0.4015748031496063,
                    "duration": 0.21152100000000473
                },
                {
                    "name": "G4",
                    "midi": 67,
                    "time": 130.71997800000065,
                    "velocity": 0.4251968503937008,
                    "duration": 0.42304200000000947
                },
                {
                    "name": "A#4",
                    "midi": 70,
                    "time": 131.14302000000066,
                    "velocity": 0.3937007874015748,
                    "duration": 0.10576050000000237
                },
                {
                    "name": "E4",
                    "midi": 64,
                    "time": 131.56606200000067,
                    "velocity": 0.4251968503937008,
                    "duration": 0.42304200000000947
                },
                {
                    "name": "A#3",
                    "midi": 58,
                    "time": 131.56606200000067,
                    "velocity": 0.4251968503937008,
                    "duration": 0.42304200000000947
                },
                {
                    "name": "F4",
                    "midi": 65,
                    "time": 131.98910400000068,
                    "velocity": 0.4409448818897638,
                    "duration": 0.42304200000000947
                },
                {
                    "name": "A3",
                    "midi": 57,
                    "time": 131.98910400000068,
                    "velocity": 0.4409448818897638,
                    "duration": 0.42304200000000947
                },
                {
                    "name": "C6",
                    "midi": 84,
                    "time": 132.8351880000007,
                    "velocity": 0.3937007874015748,
                    "duration": 0.3172815000000071
                },
                {
                    "name": "A#5",
                    "midi": 82,
                    "time": 133.1524695000007,
                    "velocity": 0.3464566929133858,
                    "duration": 0.10576050000000237
                },
                {
                    "name": "A5",
                    "midi": 81,
                    "time": 133.2582300000007,
                    "velocity": 0.3937007874015748,
                    "duration": 0.10576050000000237
                },
                {
                    "name": "A5",
                    "midi": 81,
                    "time": 133.68127200000072,
                    "velocity": 0.3937007874015748,
                    "duration": 0.10576050000000237
                },
                {
                    "name": "A5",
                    "midi": 81,
                    "time": 134.10431400000073,
                    "velocity": 0.3700787401574803,
                    "duration": 0.3172815000000071
                },
                {
                    "name": "G5",
                    "midi": 79,
                    "time": 134.42159550000073,
                    "velocity": 0.33070866141732286,
                    "duration": 0.10576050000000237
                },
                {
                    "name": "F5",
                    "midi": 77,
                    "time": 134.52735600000074,
                    "velocity": 0.3779527559055118,
                    "duration": 0.10576050000000237
                },
                {
                    "name": "F5",
                    "midi": 77,
                    "time": 134.95039800000075,
                    "velocity": 0.3464566929133858,
                    "duration": 0.10576050000000237
                },
                {
                    "name": "F5",
                    "midi": 77,
                    "time": 135.37344000000076,
                    "velocity": 0.3464566929133858,
                    "duration": 0.42304200000000947
                },
                {
                    "name": "E5",
                    "midi": 76,
                    "time": 135.79648200000076,
                    "velocity": 0.36220472440944884,
                    "duration": 0.10576050000000237
                },
                {
                    "name": "G5",
                    "midi": 79,
                    "time": 135.79648200000076,
                    "velocity": 0.36220472440944884,
                    "duration": 0.10576050000000237
                },
                {
                    "name": "G5",
                    "midi": 79,
                    "time": 136.21952400000077,
                    "velocity": 0.3464566929133858,
                    "duration": 0.10576050000000237
                },
                {
                    "name": "E5",
                    "midi": 76,
                    "time": 136.21952400000077,
                    "velocity": 0.3464566929133858,
                    "duration": 0.10576050000000237
                },
                {
                    "name": "G5",
                    "midi": 79,
                    "time": 136.64256600000078,
                    "velocity": 0.3464566929133858,
                    "duration": 0.10576050000000237
                },
                {
                    "name": "E5",
                    "midi": 76,
                    "time": 136.64256600000078,
                    "velocity": 0.3464566929133858,
                    "duration": 0.10576050000000237
                },
                {
                    "name": "G5",
                    "midi": 79,
                    "time": 137.0656080000008,
                    "velocity": 0.3937007874015748,
                    "duration": 0.42304200000000947
                },
                {
                    "name": "E5",
                    "midi": 76,
                    "time": 137.0656080000008,
                    "velocity": 0.3937007874015748,
                    "duration": 0.42304200000000947
                },
                {
                    "name": "A5",
                    "midi": 81,
                    "time": 137.4886500000008,
                    "velocity": 0.3464566929133858,
                    "duration": 0.42304200000000947
                },
                {
                    "name": "F5",
                    "midi": 77,
                    "time": 137.4886500000008,
                    "velocity": 0.3464566929133858,
                    "duration": 0.42304200000000947
                },
                {
                    "name": "C6",
                    "midi": 84,
                    "time": 137.9116920000008,
                    "velocity": 0.3937007874015748,
                    "duration": 0.10576050000000237
                },
                {
                    "name": "D6",
                    "midi": 86,
                    "time": 138.01745250000081,
                    "velocity": 0.3464566929133858,
                    "duration": 0.10576050000000237
                },
                {
                    "name": "C6",
                    "midi": 84,
                    "time": 138.12321300000082,
                    "velocity": 0.3464566929133858,
                    "duration": 0.10576050000000237
                },
                {
                    "name": "A#5",
                    "midi": 82,
                    "time": 138.22897350000082,
                    "velocity": 0.3464566929133858,
                    "duration": 0.10576050000000237
                },
                {
                    "name": "A5",
                    "midi": 81,
                    "time": 138.33473400000082,
                    "velocity": 0.3937007874015748,
                    "duration": 0.10576050000000237
                },
                {
                    "name": "A5",
                    "midi": 81,
                    "time": 138.75777600000083,
                    "velocity": 0.3937007874015748,
                    "duration": 0.10576050000000237
                },
                {
                    "name": "A5",
                    "midi": 81,
                    "time": 139.18081800000084,
                    "velocity": 0.3700787401574803,
                    "duration": 0.10576050000000237
                },
                {
                    "name": "A#5",
                    "midi": 82,
                    "time": 139.28657850000084,
                    "velocity": 0.33070866141732286,
                    "duration": 0.10576050000000237
                },
                {
                    "name": "A5",
                    "midi": 81,
                    "time": 139.39233900000085,
                    "velocity": 0.33070866141732286,
                    "duration": 0.10576050000000237
                },
                {
                    "name": "G5",
                    "midi": 79,
                    "time": 139.49809950000085,
                    "velocity": 0.33070866141732286,
                    "duration": 0.10576050000000237
                },
                {
                    "name": "F5",
                    "midi": 77,
                    "time": 139.60386000000085,
                    "velocity": 0.3779527559055118,
                    "duration": 0.10576050000000237
                },
                {
                    "name": "F5",
                    "midi": 77,
                    "time": 140.02690200000086,
                    "velocity": 0.3464566929133858,
                    "duration": 0.10576050000000237
                },
                {
                    "name": "F5",
                    "midi": 77,
                    "time": 140.44994400000087,
                    "velocity": 0.3464566929133858,
                    "duration": 0.10576050000000237
                },
                {
                    "name": "G5",
                    "midi": 79,
                    "time": 140.87298600000088,
                    "velocity": 0.3858267716535433,
                    "duration": 0.42304200000000947
                },
                {
                    "name": "A#5",
                    "midi": 82,
                    "time": 141.2960280000009,
                    "velocity": 0.3464566929133858,
                    "duration": 0.10576050000000237
                },
                {
                    "name": "A#4",
                    "midi": 70,
                    "time": 141.7190700000009,
                    "velocity": 0.2755905511811024,
                    "duration": 0.42304200000000947
                },
                {
                    "name": "E5",
                    "midi": 76,
                    "time": 141.7190700000009,
                    "velocity": 0.3464566929133858,
                    "duration": 0.42304200000000947
                },
                {
                    "name": "F5",
                    "midi": 77,
                    "time": 142.1421120000009,
                    "velocity": 0.3779527559055118,
                    "duration": 0.42304200000000947
                },
                {
                    "name": "A4",
                    "midi": 69,
                    "time": 142.1421120000009,
                    "velocity": 0.2992125984251969,
                    "duration": 0.42304200000000947
                },
                {
                    "name": "C6",
                    "midi": 84,
                    "time": 142.98819600000093,
                    "velocity": 0.3464566929133858,
                    "duration": 0.42304200000000947
                },
                {
                    "name": "F5",
                    "midi": 77,
                    "time": 143.41123800000094,
                    "velocity": 0.3779527559055118,
                    "duration": 0.42304200000000947
                },
                {
                    "name": "C5",
                    "midi": 72,
                    "time": 144.25732200000095,
                    "velocity": 0.30708661417322836,
                    "duration": 0.42304200000000947
                },
                {
                    "name": "F4",
                    "midi": 65,
                    "time": 144.68036400000096,
                    "velocity": 0.33858267716535434,
                    "duration": 0.42304200000000947
                },
                {
                    "name": "C#4",
                    "midi": 61,
                    "time": 145.52644800000098,
                    "velocity": 0.6299212598425197,
                    "duration": 0.42304200000000947
                },
                {
                    "name": "D4",
                    "midi": 62,
                    "time": 145.949490000001,
                    "velocity": 0.6692913385826772,
                    "duration": 0.6345630000000142
                },
                {
                    "name": "F4",
                    "midi": 65,
                    "time": 146.584053000001,
                    "velocity": 0.5511811023622047,
                    "duration": 0.10576050000000237
                },
                {
                    "name": "A4",
                    "midi": 69,
                    "time": 146.689813500001,
                    "velocity": 0.5669291338582677,
                    "duration": 0.10576050000000237
                },
                {
                    "name": "D5",
                    "midi": 74,
                    "time": 146.795574000001,
                    "velocity": 0.6614173228346457,
                    "duration": 0.10576050000000237
                },
                {
                    "name": "A4",
                    "midi": 69,
                    "time": 147.00709500000102,
                    "velocity": 0.5590551181102362,
                    "duration": 0.10576050000000237
                },
                {
                    "name": "D5",
                    "midi": 74,
                    "time": 147.11285550000102,
                    "velocity": 0.5748031496062992,
                    "duration": 0.10576050000000237
                },
                {
                    "name": "F5",
                    "midi": 77,
                    "time": 147.21861600000102,
                    "velocity": 0.6771653543307087,
                    "duration": 0.10576050000000237
                },
                {
                    "name": "D5",
                    "midi": 74,
                    "time": 147.43013700000103,
                    "velocity": 0.5590551181102362,
                    "duration": 0.10576050000000237
                },
                {
                    "name": "F5",
                    "midi": 77,
                    "time": 147.53589750000103,
                    "velocity": 0.5748031496062992,
                    "duration": 0.10576050000000237
                },
                {
                    "name": "A5",
                    "midi": 81,
                    "time": 147.64165800000103,
                    "velocity": 0.6850393700787402,
                    "duration": 0.10576050000000237
                },
                {
                    "name": "A5",
                    "midi": 81,
                    "time": 147.85317900000103,
                    "velocity": 0.6299212598425197,
                    "duration": 0.21152100000000473
                },
                {
                    "name": "F5",
                    "midi": 77,
                    "time": 148.06470000000104,
                    "velocity": 0.6299212598425197,
                    "duration": 0.21152100000000473
                },
                {
                    "name": "D5",
                    "midi": 74,
                    "time": 148.27622100000104,
                    "velocity": 0.6299212598425197,
                    "duration": 0.10576050000000237
                },
                {
                    "name": "C#5",
                    "midi": 73,
                    "time": 148.38198150000105,
                    "velocity": 0.5511811023622047,
                    "duration": 0.03525350000001026
                },
                {
                    "name": "E5",
                    "midi": 76,
                    "time": 148.41723500000106,
                    "velocity": 0.5511811023622047,
                    "duration": 0.03525350000001026
                },
                {
                    "name": "G5",
                    "midi": 79,
                    "time": 148.45248850000107,
                    "velocity": 0.5511811023622047,
                    "duration": 0.03525350000001026
                },
                {
                    "name": "A#5",
                    "midi": 82,
                    "time": 148.48774200000108,
                    "velocity": 0.7086614173228346,
                    "duration": 0.6345629999999858
                },
                {
                    "name": "A5",
                    "midi": 81,
                    "time": 149.12230500000106,
                    "velocity": 0.5590551181102362,
                    "duration": 0.11633654999999976
                },
                {
                    "name": "G5",
                    "midi": 79,
                    "time": 149.22806550000107,
                    "velocity": 0.5354330708661418,
                    "duration": 0.11633654999999976
                },
                {
                    "name": "F5",
                    "midi": 77,
                    "time": 149.33382600000107,
                    "velocity": 0.5354330708661418,
                    "duration": 0.11633654999999976
                },
                {
                    "name": "E5",
                    "midi": 76,
                    "time": 149.43958650000107,
                    "velocity": 0.5354330708661418,
                    "duration": 0.11633654999999976
                },
                {
                    "name": "D5",
                    "midi": 74,
                    "time": 149.54534700000107,
                    "velocity": 0.5433070866141733,
                    "duration": 0.11633654999999976
                },
                {
                    "name": "C#5",
                    "midi": 73,
                    "time": 149.65110750000107,
                    "velocity": 0.5669291338582677,
                    "duration": 0.11633654999999976
                },
                {
                    "name": "A#5",
                    "midi": 82,
                    "time": 149.75686800000108,
                    "velocity": 0.7086614173228346,
                    "duration": 0.6345629999999858
                },
                {
                    "name": "A5",
                    "midi": 81,
                    "time": 150.39143100000106,
                    "velocity": 0.5590551181102362,
                    "duration": 0.11633654999999976
                },
                {
                    "name": "G5",
                    "midi": 79,
                    "time": 150.49719150000107,
                    "velocity": 0.5354330708661418,
                    "duration": 0.11633654999999976
                },
                {
                    "name": "F5",
                    "midi": 77,
                    "time": 150.60295200000107,
                    "velocity": 0.5354330708661418,
                    "duration": 0.11633654999999976
                },
                {
                    "name": "E5",
                    "midi": 76,
                    "time": 150.70871250000107,
                    "velocity": 0.5354330708661418,
                    "duration": 0.11633654999999976
                },
                {
                    "name": "D5",
                    "midi": 74,
                    "time": 150.81447300000107,
                    "velocity": 0.5433070866141733,
                    "duration": 0.11633654999999976
                },
                {
                    "name": "C#5",
                    "midi": 73,
                    "time": 150.92023350000107,
                    "velocity": 0.5669291338582677,
                    "duration": 0.11633654999999976
                },
                {
                    "name": "D5",
                    "midi": 74,
                    "time": 151.02599400000108,
                    "velocity": 0.6929133858267716,
                    "duration": 0.6345629999999858
                },
                {
                    "name": "F4",
                    "midi": 65,
                    "time": 151.66055700000106,
                    "velocity": 0.5511811023622047,
                    "duration": 0.10576050000000237
                },
                {
                    "name": "A4",
                    "midi": 69,
                    "time": 151.76631750000107,
                    "velocity": 0.5669291338582677,
                    "duration": 0.10576050000000237
                },
                {
                    "name": "D5",
                    "midi": 74,
                    "time": 151.87207800000107,
                    "velocity": 0.6614173228346457,
                    "duration": 0.10576050000000237
                },
                {
                    "name": "A4",
                    "midi": 69,
                    "time": 152.08359900000107,
                    "velocity": 0.5590551181102362,
                    "duration": 0.10576050000000237
                },
                {
                    "name": "D5",
                    "midi": 74,
                    "time": 152.18935950000107,
                    "velocity": 0.5748031496062992,
                    "duration": 0.10576050000000237
                },
                {
                    "name": "F5",
                    "midi": 77,
                    "time": 152.29512000000108,
                    "velocity": 0.6771653543307087,
                    "duration": 0.10576050000000237
                },
                {
                    "name": "D5",
                    "midi": 74,
                    "time": 152.50664100000108,
                    "velocity": 0.5590551181102362,
                    "duration": 0.10576050000000237
                },
                {
                    "name": "F5",
                    "midi": 77,
                    "time": 152.61240150000108,
                    "velocity": 0.5748031496062992,
                    "duration": 0.10576050000000237
                },
                {
                    "name": "A5",
                    "midi": 81,
                    "time": 152.7181620000011,
                    "velocity": 0.6850393700787402,
                    "duration": 0.10576050000000237
                },
                {
                    "name": "A5",
                    "midi": 81,
                    "time": 152.9296830000011,
                    "velocity": 0.6299212598425197,
                    "duration": 0.21152100000000473
                },
                {
                    "name": "F5",
                    "midi": 77,
                    "time": 153.1412040000011,
                    "velocity": 0.6299212598425197,
                    "duration": 0.21152100000000473
                },
                {
                    "name": "D5",
                    "midi": 74,
                    "time": 153.3527250000011,
                    "velocity": 0.6299212598425197,
                    "duration": 0.21152100000000473
                },
                {
                    "name": "B4",
                    "midi": 71,
                    "time": 153.5642460000011,
                    "velocity": 0.5905511811023622,
                    "duration": 0.6345630000000142
                },
                {
                    "name": "G#5",
                    "midi": 80,
                    "time": 153.5642460000011,
                    "velocity": 0.7086614173228346,
                    "duration": 0.6345630000000142
                },
                {
                    "name": "D5",
                    "midi": 74,
                    "time": 153.5642460000011,
                    "velocity": 0.5905511811023622,
                    "duration": 0.6345630000000142
                },
                {
                    "name": "F5",
                    "midi": 77,
                    "time": 153.5642460000011,
                    "velocity": 0.5905511811023622,
                    "duration": 0.6345630000000142
                },
                {
                    "name": "G5",
                    "midi": 79,
                    "time": 154.19880900000112,
                    "velocity": 0.5590551181102362,
                    "duration": 0.11633654999999976
                },
                {
                    "name": "F5",
                    "midi": 77,
                    "time": 154.30456950000112,
                    "velocity": 0.5354330708661418,
                    "duration": 0.11633654999999976
                },
                {
                    "name": "D#5",
                    "midi": 75,
                    "time": 154.41033000000112,
                    "velocity": 0.5354330708661418,
                    "duration": 0.11633654999999976
                },
                {
                    "name": "D5",
                    "midi": 74,
                    "time": 154.51609050000113,
                    "velocity": 0.5354330708661418,
                    "duration": 0.11633654999999976
                },
                {
                    "name": "C5",
                    "midi": 72,
                    "time": 154.62185100000113,
                    "velocity": 0.5433070866141733,
                    "duration": 0.11633654999999976
                },
                {
                    "name": "B4",
                    "midi": 71,
                    "time": 154.72761150000113,
                    "velocity": 0.5669291338582677,
                    "duration": 0.11633654999999976
                },
                {
                    "name": "G#5",
                    "midi": 80,
                    "time": 154.83337200000113,
                    "velocity": 0.7086614173228346,
                    "duration": 0.6345629999999858
                },
                {
                    "name": "G5",
                    "midi": 79,
                    "time": 155.46793500000112,
                    "velocity": 0.5590551181102362,
                    "duration": 0.11633654999999976
                },
                {
                    "name": "F5",
                    "midi": 77,
                    "time": 155.57369550000112,
                    "velocity": 0.5354330708661418,
                    "duration": 0.11633654999999976
                },
                {
                    "name": "D#5",
                    "midi": 75,
                    "time": 155.67945600000112,
                    "velocity": 0.5354330708661418,
                    "duration": 0.11633654999999976
                },
                {
                    "name": "D5",
                    "midi": 74,
                    "time": 155.78521650000113,
                    "velocity": 0.5354330708661418,
                    "duration": 0.11633654999999976
                },
                {
                    "name": "C5",
                    "midi": 72,
                    "time": 155.89097700000113,
                    "velocity": 0.5433070866141733,
                    "duration": 0.11633654999999976
                },
                {
                    "name": "B4",
                    "midi": 71,
                    "time": 155.99673750000113,
                    "velocity": 0.5669291338582677,
                    "duration": 0.11633654999999976
                },
                {
                    "name": "C5",
                    "midi": 72,
                    "time": 156.10249800000113,
                    "velocity": 0.6929133858267716,
                    "duration": 0.5288024999999834
                },
                {
                    "name": "G4",
                    "midi": 67,
                    "time": 156.63130050000112,
                    "velocity": 0.5433070866141733,
                    "duration": 0.10576050000000237
                },
                {
                    "name": "C5",
                    "midi": 72,
                    "time": 156.73706100000112,
                    "velocity": 0.5826771653543307,
                    "duration": 0.10576050000000237
                },
                {
                    "name": "G4",
                    "midi": 67,
                    "time": 156.84282150000112,
                    "velocity": 0.5511811023622047,
                    "duration": 0.10576050000000237
                },
                {
                    "name": "D#5",
                    "midi": 75,
                    "time": 156.94858200000112,
                    "velocity": 0.5826771653543307,
                    "duration": 0.10576050000000237
                },
                {
                    "name": "C5",
                    "midi": 72,
                    "time": 157.05434250000113,
                    "velocity": 0.5590551181102362,
                    "duration": 0.10576050000000237
                },
                {
                    "name": "D#5",
                    "midi": 75,
                    "time": 157.16010300000113,
                    "velocity": 0.5905511811023622,
                    "duration": 0.10576050000000237
                },
                {
                    "name": "C5",
                    "midi": 72,
                    "time": 157.26586350000113,
                    "velocity": 0.5511811023622047,
                    "duration": 0.10576050000000237
                },
                {
                    "name": "G5",
                    "midi": 79,
                    "time": 157.37162400000113,
                    "velocity": 0.5826771653543307,
                    "duration": 0.10576050000000237
                },
                {
                    "name": "D#5",
                    "midi": 75,
                    "time": 157.47738450000114,
                    "velocity": 0.5590551181102362,
                    "duration": 0.10576050000000237
                },
                {
                    "name": "G5",
                    "midi": 79,
                    "time": 157.58314500000114,
                    "velocity": 0.5826771653543307,
                    "duration": 0.10576050000000237
                },
                {
                    "name": "D#5",
                    "midi": 75,
                    "time": 157.68890550000114,
                    "velocity": 0.5590551181102362,
                    "duration": 0.10576050000000237
                },
                {
                    "name": "C6",
                    "midi": 84,
                    "time": 157.79466600000114,
                    "velocity": 0.7165354330708661,
                    "duration": 0.21152100000000473
                },
                {
                    "name": "C5",
                    "midi": 72,
                    "time": 158.64075000000116,
                    "velocity": 0.6929133858267716,
                    "duration": 0.5288025000000118
                },
                {
                    "name": "G#4",
                    "midi": 68,
                    "time": 159.16955250000117,
                    "velocity": 0.5433070866141733,
                    "duration": 0.10576050000000237
                },
                {
                    "name": "C5",
                    "midi": 72,
                    "time": 159.27531300000118,
                    "velocity": 0.5826771653543307,
                    "duration": 0.10576050000000237
                },
                {
                    "name": "G#4",
                    "midi": 68,
                    "time": 159.38107350000118,
                    "velocity": 0.5511811023622047,
                    "duration": 0.10576050000000237
                },
                {
                    "name": "D#5",
                    "midi": 75,
                    "time": 159.48683400000118,
                    "velocity": 0.5826771653543307,
                    "duration": 0.10576050000000237
                },
                {
                    "name": "C5",
                    "midi": 72,
                    "time": 159.59259450000118,
                    "velocity": 0.5590551181102362,
                    "duration": 0.10576050000000237
                },
                {
                    "name": "D#5",
                    "midi": 75,
                    "time": 159.6983550000012,
                    "velocity": 0.5905511811023622,
                    "duration": 0.10576050000000237
                },
                {
                    "name": "C5",
                    "midi": 72,
                    "time": 159.8041155000012,
                    "velocity": 0.5511811023622047,
                    "duration": 0.10576050000000237
                },
                {
                    "name": "G#5",
                    "midi": 80,
                    "time": 159.9098760000012,
                    "velocity": 0.5826771653543307,
                    "duration": 0.10576050000000237
                },
                {
                    "name": "D#5",
                    "midi": 75,
                    "time": 160.0156365000012,
                    "velocity": 0.5590551181102362,
                    "duration": 0.10576050000000237
                },
                {
                    "name": "G#5",
                    "midi": 80,
                    "time": 160.1213970000012,
                    "velocity": 0.5826771653543307,
                    "duration": 0.10576050000000237
                },
                {
                    "name": "D#5",
                    "midi": 75,
                    "time": 160.2271575000012,
                    "velocity": 0.5590551181102362,
                    "duration": 0.10576050000000237
                },
                {
                    "name": "C6",
                    "midi": 84,
                    "time": 160.3329180000012,
                    "velocity": 0.7165354330708661,
                    "duration": 0.21152100000000473
                },
                {
                    "name": "C5",
                    "midi": 72,
                    "time": 161.17900200000122,
                    "velocity": 0.6929133858267716,
                    "duration": 0.5288025000000118
                },
                {
                    "name": "F#4",
                    "midi": 66,
                    "time": 161.70780450000123,
                    "velocity": 0.5433070866141733,
                    "duration": 0.10576050000000237
                },
                {
                    "name": "C5",
                    "midi": 72,
                    "time": 161.81356500000123,
                    "velocity": 0.5826771653543307,
                    "duration": 0.10576050000000237
                },
                {
                    "name": "F#4",
                    "midi": 66,
                    "time": 161.91932550000124,
                    "velocity": 0.5511811023622047,
                    "duration": 0.10576050000000237
                },
                {
                    "name": "D#5",
                    "midi": 75,
                    "time": 162.02508600000124,
                    "velocity": 0.5826771653543307,
                    "duration": 0.10576050000000237
                },
                {
                    "name": "C5",
                    "midi": 72,
                    "time": 162.13084650000124,
                    "velocity": 0.5590551181102362,
                    "duration": 0.10576050000000237
                },
                {
                    "name": "D#5",
                    "midi": 75,
                    "time": 162.23660700000124,
                    "velocity": 0.5905511811023622,
                    "duration": 0.10576050000000237
                },
                {
                    "name": "C5",
                    "midi": 72,
                    "time": 162.34236750000125,
                    "velocity": 0.5511811023622047,
                    "duration": 0.10576050000000237
                },
                {
                    "name": "F#5",
                    "midi": 78,
                    "time": 162.44812800000125,
                    "velocity": 0.5826771653543307,
                    "duration": 0.10576050000000237
                },
                {
                    "name": "D#5",
                    "midi": 75,
                    "time": 162.55388850000125,
                    "velocity": 0.5590551181102362,
                    "duration": 0.10576050000000237
                },
                {
                    "name": "F#5",
                    "midi": 78,
                    "time": 162.65964900000125,
                    "velocity": 0.5826771653543307,
                    "duration": 0.10576050000000237
                },
                {
                    "name": "D#5",
                    "midi": 75,
                    "time": 162.76540950000125,
                    "velocity": 0.5590551181102362,
                    "duration": 0.10576050000000237
                },
                {
                    "name": "C6",
                    "midi": 84,
                    "time": 162.87117000000126,
                    "velocity": 0.7165354330708661,
                    "duration": 0.42304200000000947
                },
                {
                    "name": "F#5",
                    "midi": 78,
                    "time": 163.29421200000127,
                    "velocity": 0.6377952755905512,
                    "duration": 0.3172815000000071
                },
                {
                    "name": "G4",
                    "midi": 67,
                    "time": 163.61149350000127,
                    "velocity": 0.5511811023622047,
                    "duration": 0.03525350000001026
                },
                {
                    "name": "B4",
                    "midi": 71,
                    "time": 163.64674700000128,
                    "velocity": 0.5511811023622047,
                    "duration": 0.03525350000001026
                },
                {
                    "name": "D5",
                    "midi": 74,
                    "time": 163.6820005000013,
                    "velocity": 0.5511811023622047,
                    "duration": 0.03525350000001026
                },
                {
                    "name": "G5",
                    "midi": 79,
                    "time": 163.7172540000013,
                    "velocity": 0.7086614173228346,
                    "duration": 0.8460839999999905
                },
                {
                    "name": "F5",
                    "midi": 77,
                    "time": 164.5633380000013,
                    "velocity": 0.5669291338582677,
                    "duration": 0.11457387499999072
                },
                {
                    "name": "D#5",
                    "midi": 75,
                    "time": 164.6690985000013,
                    "velocity": 0.5669291338582677,
                    "duration": 0.11457387499999072
                },
                {
                    "name": "D5",
                    "midi": 74,
                    "time": 164.7748590000013,
                    "velocity": 0.5748031496062992,
                    "duration": 0.11457387499999072
                },
                {
                    "name": "C5",
                    "midi": 72,
                    "time": 164.8806195000013,
                    "velocity": 0.5984251968503937,
                    "duration": 0.10576050000000237
                },
                {
                    "name": "G5",
                    "midi": 79,
                    "time": 164.9863800000013,
                    "velocity": 0.7086614173228346,
                    "duration": 0.8460839999999905
                },
                {
                    "name": "F5",
                    "midi": 77,
                    "time": 165.8324640000013,
                    "velocity": 0.5669291338582677,
                    "duration": 0.11457387499999072
                },
                {
                    "name": "D#5",
                    "midi": 75,
                    "time": 165.9382245000013,
                    "velocity": 0.5669291338582677,
                    "duration": 0.11457387499999072
                },
                {
                    "name": "D5",
                    "midi": 74,
                    "time": 166.0439850000013,
                    "velocity": 0.5748031496062992,
                    "duration": 0.11457387499999072
                },
                {
                    "name": "C5",
                    "midi": 72,
                    "time": 166.1497455000013,
                    "velocity": 0.5984251968503937,
                    "duration": 0.10576050000000237
                },
                {
                    "name": "G5",
                    "midi": 79,
                    "time": 166.2555060000013,
                    "velocity": 0.7086614173228346,
                    "duration": 0.6345629999999858
                },
                {
                    "name": "G#5",
                    "midi": 80,
                    "time": 166.8900690000013,
                    "velocity": 0.6220472440944882,
                    "duration": 0.11457387499999072
                },
                {
                    "name": "G5",
                    "midi": 79,
                    "time": 166.9958295000013,
                    "velocity": 0.6141732283464567,
                    "duration": 0.11457387499999072
                },
                {
                    "name": "F5",
                    "midi": 77,
                    "time": 167.1015900000013,
                    "velocity": 0.5984251968503937,
                    "duration": 0.11457387499999072
                },
                {
                    "name": "D#5",
                    "midi": 75,
                    "time": 167.2073505000013,
                    "velocity": 0.5905511811023622,
                    "duration": 0.11457387499999072
                },
                {
                    "name": "D5",
                    "midi": 74,
                    "time": 167.3131110000013,
                    "velocity": 0.5826771653543307,
                    "duration": 0.11457387499999072
                },
                {
                    "name": "C5",
                    "midi": 72,
                    "time": 167.4188715000013,
                    "velocity": 0.5669291338582677,
                    "duration": 0.11457387499999072
                },
                {
                    "name": "G5",
                    "midi": 79,
                    "time": 167.5246320000013,
                    "velocity": 0.6220472440944882,
                    "duration": 0.10576050000000237
                },
                {
                    "name": "G4",
                    "midi": 67,
                    "time": 167.9476740000013,
                    "velocity": 0.5669291338582677,
                    "duration": 0.10576050000000237
                },
                {
                    "name": "G4",
                    "midi": 67,
                    "time": 168.74087775000132,
                    "velocity": 0.3228346456692913,
                    "duration": 0.05288024999998697
                },
                {
                    "name": "E5",
                    "midi": 76,
                    "time": 168.7937580000013,
                    "velocity": 0.3543307086614173,
                    "duration": 0.10576050000000237
                },
                {
                    "name": "E5",
                    "midi": 76,
                    "time": 169.2168000000013,
                    "velocity": 0.33858267716535434,
                    "duration": 0.10576050000000237
                },
                {
                    "name": "E5",
                    "midi": 76,
                    "time": 169.63984200000132,
                    "velocity": 0.33858267716535434,
                    "duration": 0.10576050000000237
                },
                {
                    "name": "B4",
                    "midi": 71,
                    "time": 170.01000375000132,
                    "velocity": 0.33070866141732286,
                    "duration": 0.05288024999998697
                },
                {
                    "name": "G5",
                    "midi": 79,
                    "time": 170.0628840000013,
                    "velocity": 0.3543307086614173,
                    "duration": 0.6345630000000142
                },
                {
                    "name": "F5",
                    "midi": 77,
                    "time": 170.69744700000132,
                    "velocity": 0.3228346456692913,
                    "duration": 0.21152100000000473
                },
                {
                    "name": "D5",
                    "midi": 74,
                    "time": 170.90896800000132,
                    "velocity": 0.3228346456692913,
                    "duration": 0.42304200000000947
                },
                {
                    "name": "E4",
                    "midi": 64,
                    "time": 171.33201000000133,
                    "velocity": 0.3543307086614173,
                    "duration": 0.42304200000000947
                },
                {
                    "name": "D5",
                    "midi": 74,
                    "time": 171.33201000000133,
                    "velocity": 0.3543307086614173,
                    "duration": 0.21152100000000473
                },
                {
                    "name": "C5",
                    "midi": 72,
                    "time": 171.54353100000134,
                    "velocity": 0.3228346456692913,
                    "duration": 0.2097583249999957
                },
                {
                    "name": "C5",
                    "midi": 72,
                    "time": 171.75505200000134,
                    "velocity": 0.3543307086614173,
                    "duration": 0.6345630000000142
                },
                {
                    "name": "G4",
                    "midi": 67,
                    "time": 171.75505200000134,
                    "velocity": 0.3543307086614173,
                    "duration": 0.6345630000000142
                },
                {
                    "name": "B4",
                    "midi": 71,
                    "time": 172.38961500000136,
                    "velocity": 0.3543307086614173,
                    "duration": 0.21152100000000473
                },
                {
                    "name": "D5",
                    "midi": 74,
                    "time": 172.38961500000136,
                    "velocity": 0.3543307086614173,
                    "duration": 0.21152100000000473
                },
                {
                    "name": "B4",
                    "midi": 71,
                    "time": 172.60113600000136,
                    "velocity": 0.3858267716535433,
                    "duration": 0.8460839999999905
                },
                {
                    "name": "D5",
                    "midi": 74,
                    "time": 172.60113600000136,
                    "velocity": 0.3858267716535433,
                    "duration": 0.8460839999999905
                },
                {
                    "name": "C5",
                    "midi": 72,
                    "time": 173.44722000000135,
                    "velocity": 0.3543307086614173,
                    "duration": 0.42304200000000947
                },
                {
                    "name": "E5",
                    "midi": 76,
                    "time": 173.44722000000135,
                    "velocity": 0.3543307086614173,
                    "duration": 0.42304200000000947
                },
                {
                    "name": "F5",
                    "midi": 77,
                    "time": 173.87026200000136,
                    "velocity": 0.3543307086614173,
                    "duration": 0.6345629999999858
                },
                {
                    "name": "G5",
                    "midi": 79,
                    "time": 174.50482500000135,
                    "velocity": 0.36220472440944884,
                    "duration": 0.05288024999998697
                },
                {
                    "name": "F5",
                    "midi": 77,
                    "time": 174.55770525000133,
                    "velocity": 0.33070866141732286,
                    "duration": 0.05288024999998697
                },
                {
                    "name": "E5",
                    "midi": 76,
                    "time": 174.61058550000132,
                    "velocity": 0.33070866141732286,
                    "duration": 0.05288024999998697
                },
                {
                    "name": "F5",
                    "midi": 77,
                    "time": 174.6634657500013,
                    "velocity": 0.3543307086614173,
                    "duration": 0.03525350000001026
                },
                {
                    "name": "G5",
                    "midi": 79,
                    "time": 174.71634600000132,
                    "velocity": 0.3858267716535433,
                    "duration": 0.21152100000000473
                },
                {
                    "name": "A5",
                    "midi": 81,
                    "time": 174.92786700000133,
                    "velocity": 0.3700787401574803,
                    "duration": 0.21152100000000473
                },
                {
                    "name": "A5",
                    "midi": 81,
                    "time": 175.13938800000133,
                    "velocity": 0.4330708661417323,
                    "duration": 0.21152100000000473
                },
                {
                    "name": "G5",
                    "midi": 79,
                    "time": 175.35090900000134,
                    "velocity": 0.3858267716535433,
                    "duration": 0.21152100000000473
                },
                {
                    "name": "F#5",
                    "midi": 78,
                    "time": 175.56243000000134,
                    "velocity": 0.4094488188976378,
                    "duration": 0.21152100000000473
                },
                {
                    "name": "G5",
                    "midi": 79,
                    "time": 175.77395100000135,
                    "velocity": 0.3543307086614173,
                    "duration": 0.21152100000000473
                },
                {
                    "name": "F5",
                    "midi": 77,
                    "time": 175.98547200000135,
                    "velocity": 0.3937007874015748,
                    "duration": 0.21152100000000473
                },
                {
                    "name": "D5",
                    "midi": 74,
                    "time": 176.19699300000136,
                    "velocity": 0.3543307086614173,
                    "duration": 0.21152100000000473
                },
                {
                    "name": "D#5",
                    "midi": 75,
                    "time": 176.40851400000136,
                    "velocity": 0.3858267716535433,
                    "duration": 0.21152100000000473
                },
                {
                    "name": "E5",
                    "midi": 76,
                    "time": 176.62003500000137,
                    "velocity": 0.3543307086614173,
                    "duration": 0.21152100000000473
                },
                {
                    "name": "F5",
                    "midi": 77,
                    "time": 176.83155600000137,
                    "velocity": 0.3937007874015748,
                    "duration": 0.21152100000000473
                },
                {
                    "name": "E5",
                    "midi": 76,
                    "time": 177.04307700000138,
                    "velocity": 0.3543307086614173,
                    "duration": 0.21152100000000473
                },
                {
                    "name": "G5",
                    "midi": 79,
                    "time": 177.25459800000138,
                    "velocity": 0.3858267716535433,
                    "duration": 0.21152100000000473
                },
                {
                    "name": "F5",
                    "midi": 77,
                    "time": 177.46611900000138,
                    "velocity": 0.3543307086614173,
                    "duration": 0.21152100000000473
                },
                {
                    "name": "E5",
                    "midi": 76,
                    "time": 177.6776400000014,
                    "velocity": 0.4094488188976378,
                    "duration": 0.21152100000000473
                },
                {
                    "name": "D5",
                    "midi": 74,
                    "time": 177.8891610000014,
                    "velocity": 0.3543307086614173,
                    "duration": 0.21152100000000473
                },
                {
                    "name": "C5",
                    "midi": 72,
                    "time": 178.1006820000014,
                    "velocity": 0.3779527559055118,
                    "duration": 0.21152100000000473
                },
                {
                    "name": "B4",
                    "midi": 71,
                    "time": 178.3122030000014,
                    "velocity": 0.3543307086614173,
                    "duration": 0.21152100000000473
                },
                {
                    "name": "A4",
                    "midi": 69,
                    "time": 178.5237240000014,
                    "velocity": 0.36220472440944884,
                    "duration": 0.21152100000000473
                },
                {
                    "name": "G4",
                    "midi": 67,
                    "time": 178.7352450000014,
                    "velocity": 0.3543307086614173,
                    "duration": 0.21152100000000473
                },
                {
                    "name": "D#5",
                    "midi": 75,
                    "time": 178.94676600000142,
                    "velocity": 0.3858267716535433,
                    "duration": 0.21152100000000473
                },
                {
                    "name": "E5",
                    "midi": 76,
                    "time": 179.15828700000142,
                    "velocity": 0.33070866141732286,
                    "duration": 0.21152100000000473
                },
                {
                    "name": "D#5",
                    "midi": 75,
                    "time": 179.36980800000143,
                    "velocity": 0.3858267716535433,
                    "duration": 0.21152100000000473
                },
                {
                    "name": "E5",
                    "midi": 76,
                    "time": 179.58132900000143,
                    "velocity": 0.3228346456692913,
                    "duration": 0.21152100000000473
                },
                {
                    "name": "D#5",
                    "midi": 75,
                    "time": 179.79285000000144,
                    "velocity": 0.4094488188976378,
                    "duration": 0.21152100000000473
                },
                {
                    "name": "E5",
                    "midi": 76,
                    "time": 180.00437100000144,
                    "velocity": 0.3779527559055118,
                    "duration": 0.21152100000000473
                },
                {
                    "name": "F#5",
                    "midi": 78,
                    "time": 180.21589200000145,
                    "velocity": 0.4566929133858268,
                    "duration": 0.21152100000000473
                },
                {
                    "name": "G5",
                    "midi": 79,
                    "time": 180.42741300000145,
                    "velocity": 0.41732283464566927,
                    "duration": 0.21152100000000473
                },
                {
                    "name": "F#5",
                    "midi": 78,
                    "time": 180.63893400000146,
                    "velocity": 0.4566929133858268,
                    "duration": 0.21152100000000473
                },
                {
                    "name": "G5",
                    "midi": 79,
                    "time": 180.85045500000146,
                    "velocity": 0.36220472440944884,
                    "duration": 0.21152100000000473
                },
                {
                    "name": "F5",
                    "midi": 77,
                    "time": 181.06197600000147,
                    "velocity": 0.36220472440944884,
                    "duration": 0.21152100000000473
                },
                {
                    "name": "D5",
                    "midi": 74,
                    "time": 181.27349700000147,
                    "velocity": 0.29133858267716534,
                    "duration": 0.21152100000000473
                },
                {
                    "name": "D5",
                    "midi": 74,
                    "time": 181.48501800000147,
                    "velocity": 0.3543307086614173,
                    "duration": 0.21152100000000473
                },
                {
                    "name": "C5",
                    "midi": 72,
                    "time": 181.69653900000148,
                    "velocity": 0.3228346456692913,
                    "duration": 0.21152100000000473
                },
                {
                    "name": "G4",
                    "midi": 67,
                    "time": 181.90806000000148,
                    "velocity": 0.3228346456692913,
                    "duration": 0.42304200000000947
                },
                {
                    "name": "D5",
                    "midi": 74,
                    "time": 181.90806000000148,
                    "velocity": 0.3543307086614173,
                    "duration": 0.21152100000000473
                },
                {
                    "name": "C5",
                    "midi": 72,
                    "time": 182.1195810000015,
                    "velocity": 0.3228346456692913,
                    "duration": 0.21152100000000473
                },
                {
                    "name": "E5",
                    "midi": 76,
                    "time": 182.3311020000015,
                    "velocity": 0.3543307086614173,
                    "duration": 0.21152100000000473
                },
                {
                    "name": "B4",
                    "midi": 71,
                    "time": 182.3311020000015,
                    "velocity": 0.3228346456692913,
                    "duration": 0.42304200000000947
                },
                {
                    "name": "D5",
                    "midi": 74,
                    "time": 182.5426230000015,
                    "velocity": 0.3543307086614173,
                    "duration": 0.21152100000000473
                },
                {
                    "name": "B4",
                    "midi": 71,
                    "time": 182.7541440000015,
                    "velocity": 0.3858267716535433,
                    "duration": 0.8460839999999905
                },
                {
                    "name": "D5",
                    "midi": 74,
                    "time": 182.7541440000015,
                    "velocity": 0.3858267716535433,
                    "duration": 0.6345629999999858
                },
                {
                    "name": "D#5",
                    "midi": 75,
                    "time": 183.3887070000015,
                    "velocity": 0.3858267716535433,
                    "duration": 0.21152100000000473
                },
                {
                    "name": "C5",
                    "midi": 72,
                    "time": 183.6002280000015,
                    "velocity": 0.3543307086614173,
                    "duration": 0.42304200000000947
                },
                {
                    "name": "E5",
                    "midi": 76,
                    "time": 183.6002280000015,
                    "velocity": 0.3543307086614173,
                    "duration": 0.42304200000000947
                },
                {
                    "name": "F5",
                    "midi": 77,
                    "time": 184.0232700000015,
                    "velocity": 0.3543307086614173,
                    "duration": 0.6345630000000142
                },
                {
                    "name": "G5",
                    "midi": 79,
                    "time": 184.65783300000152,
                    "velocity": 0.36220472440944884,
                    "duration": 0.05288024999998697
                },
                {
                    "name": "F5",
                    "midi": 77,
                    "time": 184.7107132500015,
                    "velocity": 0.33070866141732286,
                    "duration": 0.05288024999998697
                },
                {
                    "name": "E5",
                    "midi": 76,
                    "time": 184.7635935000015,
                    "velocity": 0.33070866141732286,
                    "duration": 0.05288024999998697
                },
                {
                    "name": "F5",
                    "midi": 77,
                    "time": 184.81647375000148,
                    "velocity": 0.3543307086614173,
                    "duration": 0.03525350000001026
                },
                {
                    "name": "G5",
                    "midi": 79,
                    "time": 184.8693540000015,
                    "velocity": 0.3858267716535433,
                    "duration": 0.21152100000000473
                },
                {
                    "name": "A5",
                    "midi": 81,
                    "time": 185.0808750000015,
                    "velocity": 0.3700787401574803,
                    "duration": 0.21152100000000473
                },
                {
                    "name": "A5",
                    "midi": 81,
                    "time": 185.2923960000015,
                    "velocity": 0.4330708661417323,
                    "duration": 0.21152100000000473
                },
                {
                    "name": "G5",
                    "midi": 79,
                    "time": 185.5039170000015,
                    "velocity": 0.3858267716535433,
                    "duration": 0.21152100000000473
                },
                {
                    "name": "F#5",
                    "midi": 78,
                    "time": 185.7154380000015,
                    "velocity": 0.4094488188976378,
                    "duration": 0.21152100000000473
                },
                {
                    "name": "G5",
                    "midi": 79,
                    "time": 185.92695900000152,
                    "velocity": 0.3543307086614173,
                    "duration": 0.21152100000000473
                },
                {
                    "name": "F5",
                    "midi": 77,
                    "time": 186.13848000000152,
                    "velocity": 0.3937007874015748,
                    "duration": 0.21152100000000473
                },
                {
                    "name": "D5",
                    "midi": 74,
                    "time": 186.35000100000153,
                    "velocity": 0.3543307086614173,
                    "duration": 0.21152100000000473
                },
                {
                    "name": "D#5",
                    "midi": 75,
                    "time": 186.56152200000153,
                    "velocity": 0.3858267716535433,
                    "duration": 0.21152100000000473
                },
                {
                    "name": "E5",
                    "midi": 76,
                    "time": 186.77304300000154,
                    "velocity": 0.3543307086614173,
                    "duration": 0.21152100000000473
                },
                {
                    "name": "G5",
                    "midi": 79,
                    "time": 186.98456400000154,
                    "velocity": 0.3937007874015748,
                    "duration": 0.21152100000000473
                },
                {
                    "name": "F5",
                    "midi": 77,
                    "time": 187.19608500000155,
                    "velocity": 0.3543307086614173,
                    "duration": 0.21152100000000473
                },
                {
                    "name": "D5",
                    "midi": 74,
                    "time": 187.40760600000155,
                    "velocity": 0.3858267716535433,
                    "duration": 0.21152100000000473
                },
                {
                    "name": "B4",
                    "midi": 71,
                    "time": 187.61912700000155,
                    "velocity": 0.3543307086614173,
                    "duration": 0.21152100000000473
                },
                {
                    "name": "C5",
                    "midi": 72,
                    "time": 187.83064800000156,
                    "velocity": 0.4094488188976378,
                    "duration": 0.21152100000000473
                },
                {
                    "name": "G4",
                    "midi": 67,
                    "time": 188.04216900000156,
                    "velocity": 0.2677165354330709,
                    "duration": 0.21152100000000473
                },
                {
                    "name": "G4",
                    "midi": 67,
                    "time": 188.46521100000157,
                    "velocity": 0.2677165354330709,
                    "duration": 0.10576050000000237
                },
                {
                    "name": "G4",
                    "midi": 67,
                    "time": 188.88825300000158,
                    "velocity": 0.2677165354330709,
                    "duration": 0.10576050000000237
                },
                {
                    "name": "G4",
                    "midi": 67,
                    "time": 189.0997740000016,
                    "velocity": 0.31496062992125984,
                    "duration": 0.10576050000000237
                },
                {
                    "name": "F4",
                    "midi": 65,
                    "time": 189.0997740000016,
                    "velocity": 0.2677165354330709,
                    "duration": 0.10576050000000237
                },
                {
                    "name": "G4",
                    "midi": 67,
                    "time": 189.3112950000016,
                    "velocity": 0.25984251968503935,
                    "duration": 0.10576050000000237
                },
                {
                    "name": "F4",
                    "midi": 65,
                    "time": 189.3112950000016,
                    "velocity": 0.2204724409448819,
                    "duration": 0.10576050000000237
                },
                {
                    "name": "F4",
                    "midi": 65,
                    "time": 189.7343370000016,
                    "velocity": 0.2204724409448819,
                    "duration": 0.10576050000000237
                },
                {
                    "name": "G4",
                    "midi": 67,
                    "time": 189.7343370000016,
                    "velocity": 0.25984251968503935,
                    "duration": 0.10576050000000237
                },
                {
                    "name": "G4",
                    "midi": 67,
                    "time": 190.1573790000016,
                    "velocity": 0.25984251968503935,
                    "duration": 0.10576050000000237
                },
                {
                    "name": "F4",
                    "midi": 65,
                    "time": 190.1573790000016,
                    "velocity": 0.2204724409448819,
                    "duration": 0.10576050000000237
                },
                {
                    "name": "G4",
                    "midi": 67,
                    "time": 190.36890000000162,
                    "velocity": 0.31496062992125984,
                    "duration": 0.10576050000000237
                },
                {
                    "name": "D#4",
                    "midi": 63,
                    "time": 190.36890000000162,
                    "velocity": 0.2677165354330709,
                    "duration": 0.10576050000000237
                },
                {
                    "name": "G4",
                    "midi": 67,
                    "time": 190.58042100000162,
                    "velocity": 0.2677165354330709,
                    "duration": 0.10576050000000237
                },
                {
                    "name": "D#4",
                    "midi": 63,
                    "time": 190.58042100000162,
                    "velocity": 0.2204724409448819,
                    "duration": 0.10576050000000237
                },
                {
                    "name": "D#4",
                    "midi": 63,
                    "time": 191.00346300000163,
                    "velocity": 0.2204724409448819,
                    "duration": 0.10576050000000237
                },
                {
                    "name": "G4",
                    "midi": 67,
                    "time": 191.00346300000163,
                    "velocity": 0.2677165354330709,
                    "duration": 0.10576050000000237
                },
                {
                    "name": "D#4",
                    "midi": 63,
                    "time": 191.42650500000164,
                    "velocity": 0.2204724409448819,
                    "duration": 0.10576050000000237
                },
                {
                    "name": "G4",
                    "midi": 67,
                    "time": 191.42650500000164,
                    "velocity": 0.2677165354330709,
                    "duration": 0.10576050000000237
                },
                {
                    "name": "G4",
                    "midi": 67,
                    "time": 191.63802600000164,
                    "velocity": 0.31496062992125984,
                    "duration": 0.10576050000000237
                },
                {
                    "name": "F4",
                    "midi": 65,
                    "time": 191.63802600000164,
                    "velocity": 0.2677165354330709,
                    "duration": 0.10576050000000237
                },
                {
                    "name": "F4",
                    "midi": 65,
                    "time": 191.84954700000165,
                    "velocity": 0.2204724409448819,
                    "duration": 0.10576050000000237
                },
                {
                    "name": "G4",
                    "midi": 67,
                    "time": 191.84954700000165,
                    "velocity": 0.25984251968503935,
                    "duration": 0.10576050000000237
                },
                {
                    "name": "G4",
                    "midi": 67,
                    "time": 192.27258900000166,
                    "velocity": 0.25984251968503935,
                    "duration": 0.10576050000000237
                },
                {
                    "name": "F4",
                    "midi": 65,
                    "time": 192.27258900000166,
                    "velocity": 0.2204724409448819,
                    "duration": 0.10576050000000237
                },
                {
                    "name": "G4",
                    "midi": 67,
                    "time": 192.69563100000167,
                    "velocity": 0.25984251968503935,
                    "duration": 0.10576050000000237
                },
                {
                    "name": "F4",
                    "midi": 65,
                    "time": 192.69563100000167,
                    "velocity": 0.2204724409448819,
                    "duration": 0.10576050000000237
                },
                {
                    "name": "G4",
                    "midi": 67,
                    "time": 192.90715200000167,
                    "velocity": 0.49606299212598426,
                    "duration": 0.10576050000000237
                },
                {
                    "name": "D#4",
                    "midi": 63,
                    "time": 192.90715200000167,
                    "velocity": 0.49606299212598426,
                    "duration": 0.10576050000000237
                },
                {
                    "name": "G4",
                    "midi": 67,
                    "time": 193.11867300000168,
                    "velocity": 0.3937007874015748,
                    "duration": 0.10576050000000237
                },
                {
                    "name": "D#4",
                    "midi": 63,
                    "time": 193.11867300000168,
                    "velocity": 0.3937007874015748,
                    "duration": 0.10576050000000237
                },
                {
                    "name": "G4",
                    "midi": 67,
                    "time": 193.5417150000017,
                    "velocity": 0.25984251968503935,
                    "duration": 0.10576050000000237
                },
                {
                    "name": "D#4",
                    "midi": 63,
                    "time": 193.5417150000017,
                    "velocity": 0.25984251968503935,
                    "duration": 0.10576050000000237
                },
                {
                    "name": "D#4",
                    "midi": 63,
                    "time": 193.9647570000017,
                    "velocity": 0.25984251968503935,
                    "duration": 0.10576050000000237
                },
                {
                    "name": "G4",
                    "midi": 67,
                    "time": 193.9647570000017,
                    "velocity": 0.25984251968503935,
                    "duration": 0.10576050000000237
                },
                {
                    "name": "G#4",
                    "midi": 68,
                    "time": 194.1762780000017,
                    "velocity": 0.49606299212598426,
                    "duration": 0.10576050000000237
                },
                {
                    "name": "D#4",
                    "midi": 63,
                    "time": 194.1762780000017,
                    "velocity": 0.49606299212598426,
                    "duration": 0.10576050000000237
                },
                {
                    "name": "D#4",
                    "midi": 63,
                    "time": 194.3877990000017,
                    "velocity": 0.3937007874015748,
                    "duration": 0.10576050000000237
                },
                {
                    "name": "G#4",
                    "midi": 68,
                    "time": 194.3877990000017,
                    "velocity": 0.3937007874015748,
                    "duration": 0.10576050000000237
                },
                {
                    "name": "G#4",
                    "midi": 68,
                    "time": 194.81084100000172,
                    "velocity": 0.25984251968503935,
                    "duration": 0.10576050000000237
                },
                {
                    "name": "D#4",
                    "midi": 63,
                    "time": 194.81084100000172,
                    "velocity": 0.25984251968503935,
                    "duration": 0.10576050000000237
                },
                {
                    "name": "D#4",
                    "midi": 63,
                    "time": 195.23388300000173,
                    "velocity": 0.25984251968503935,
                    "duration": 0.10576050000000237
                },
                {
                    "name": "G#4",
                    "midi": 68,
                    "time": 195.23388300000173,
                    "velocity": 0.25984251968503935,
                    "duration": 0.10576050000000237
                },
                {
                    "name": "D4",
                    "midi": 62,
                    "time": 195.44540400000173,
                    "velocity": 0.49606299212598426,
                    "duration": 0.10576050000000237
                },
                {
                    "name": "G#4",
                    "midi": 68,
                    "time": 195.44540400000173,
                    "velocity": 0.49606299212598426,
                    "duration": 0.10576050000000237
                },
                {
                    "name": "D4",
                    "midi": 62,
                    "time": 195.65692500000173,
                    "velocity": 0.3937007874015748,
                    "duration": 0.10576050000000237
                },
                {
                    "name": "G#4",
                    "midi": 68,
                    "time": 195.65692500000173,
                    "velocity": 0.3937007874015748,
                    "duration": 0.10576050000000237
                },
                {
                    "name": "G#4",
                    "midi": 68,
                    "time": 196.07996700000174,
                    "velocity": 0.25984251968503935,
                    "duration": 0.10576050000000237
                },
                {
                    "name": "D4",
                    "midi": 62,
                    "time": 196.07996700000174,
                    "velocity": 0.25984251968503935,
                    "duration": 0.10576050000000237
                },
                {
                    "name": "G#4",
                    "midi": 68,
                    "time": 196.50300900000175,
                    "velocity": 0.25984251968503935,
                    "duration": 0.10576050000000237
                },
                {
                    "name": "D4",
                    "midi": 62,
                    "time": 196.50300900000175,
                    "velocity": 0.25984251968503935,
                    "duration": 0.10576050000000237
                },
                {
                    "name": "D4",
                    "midi": 62,
                    "time": 196.71453000000176,
                    "velocity": 0.49606299212598426,
                    "duration": 0.10576050000000237
                },
                {
                    "name": "G4",
                    "midi": 67,
                    "time": 196.71453000000176,
                    "velocity": 0.49606299212598426,
                    "duration": 0.10576050000000237
                },
                {
                    "name": "D4",
                    "midi": 62,
                    "time": 196.92605100000176,
                    "velocity": 0.3937007874015748,
                    "duration": 0.10576050000000237
                },
                {
                    "name": "G4",
                    "midi": 67,
                    "time": 196.92605100000176,
                    "velocity": 0.3937007874015748,
                    "duration": 0.10576050000000237
                },
                {
                    "name": "G4",
                    "midi": 67,
                    "time": 197.34909300000177,
                    "velocity": 0.25984251968503935,
                    "duration": 0.10576050000000237
                },
                {
                    "name": "D4",
                    "midi": 62,
                    "time": 197.34909300000177,
                    "velocity": 0.25984251968503935,
                    "duration": 0.10576050000000237
                },
                {
                    "name": "D4",
                    "midi": 62,
                    "time": 197.77213500000178,
                    "velocity": 0.25984251968503935,
                    "duration": 0.10576050000000237
                },
                {
                    "name": "G4",
                    "midi": 67,
                    "time": 197.77213500000178,
                    "velocity": 0.25984251968503935,
                    "duration": 0.10576050000000237
                },
                {
                    "name": "G4",
                    "midi": 67,
                    "time": 197.9836560000018,
                    "velocity": 0.49606299212598426,
                    "duration": 0.10576050000000237
                },
                {
                    "name": "C4",
                    "midi": 60,
                    "time": 197.9836560000018,
                    "velocity": 0.49606299212598426,
                    "duration": 0.10576050000000237
                },
                {
                    "name": "G4",
                    "midi": 67,
                    "time": 198.1951770000018,
                    "velocity": 0.3937007874015748,
                    "duration": 0.10576050000000237
                },
                {
                    "name": "C4",
                    "midi": 60,
                    "time": 198.1951770000018,
                    "velocity": 0.3937007874015748,
                    "duration": 0.10576050000000237
                },
                {
                    "name": "G4",
                    "midi": 67,
                    "time": 198.6182190000018,
                    "velocity": 0.25984251968503935,
                    "duration": 0.10576050000000237
                },
                {
                    "name": "C4",
                    "midi": 60,
                    "time": 198.6182190000018,
                    "velocity": 0.25984251968503935,
                    "duration": 0.10576050000000237
                },
                {
                    "name": "F4",
                    "midi": 65,
                    "time": 198.8297400000018,
                    "velocity": 0.49606299212598426,
                    "duration": 0.10576050000000237
                },
                {
                    "name": "C4",
                    "midi": 60,
                    "time": 198.8297400000018,
                    "velocity": 0.49606299212598426,
                    "duration": 0.10576050000000237
                },
                {
                    "name": "C4",
                    "midi": 60,
                    "time": 199.0412610000018,
                    "velocity": 0.3937007874015748,
                    "duration": 0.10576050000000237
                },
                {
                    "name": "F4",
                    "midi": 65,
                    "time": 199.0412610000018,
                    "velocity": 0.3937007874015748,
                    "duration": 0.10576050000000237
                },
                {
                    "name": "C4",
                    "midi": 60,
                    "time": 199.46430300000182,
                    "velocity": 0.25984251968503935,
                    "duration": 0.10576050000000237
                },
                {
                    "name": "F4",
                    "midi": 65,
                    "time": 199.46430300000182,
                    "velocity": 0.25984251968503935,
                    "duration": 0.10576050000000237
                },
                {
                    "name": "B3",
                    "midi": 59,
                    "time": 199.67582400000182,
                    "velocity": 0.49606299212598426,
                    "duration": 0.10576050000000237
                },
                {
                    "name": "F4",
                    "midi": 65,
                    "time": 199.67582400000182,
                    "velocity": 0.49606299212598426,
                    "duration": 0.10576050000000237
                },
                {
                    "name": "F4",
                    "midi": 65,
                    "time": 199.88734500000183,
                    "velocity": 0.3937007874015748,
                    "duration": 0.10576050000000237
                },
                {
                    "name": "B3",
                    "midi": 59,
                    "time": 199.88734500000183,
                    "velocity": 0.3937007874015748,
                    "duration": 0.10576050000000237
                },
                {
                    "name": "F4",
                    "midi": 65,
                    "time": 200.31038700000184,
                    "velocity": 0.25984251968503935,
                    "duration": 0.10576050000000237
                },
                {
                    "name": "B3",
                    "midi": 59,
                    "time": 200.31038700000184,
                    "velocity": 0.25984251968503935,
                    "duration": 0.10576050000000237
                },
                {
                    "name": "C4",
                    "midi": 60,
                    "time": 200.73342900000185,
                    "velocity": 0.25984251968503935,
                    "duration": 0.10576050000000237
                },
                {
                    "name": "D#4",
                    "midi": 63,
                    "time": 200.73342900000185,
                    "velocity": 0.25984251968503935,
                    "duration": 0.10576050000000237
                },
                {
                    "name": "C4",
                    "midi": 60,
                    "time": 201.15647100000186,
                    "velocity": 0.25984251968503935,
                    "duration": 0.10576050000000237
                },
                {
                    "name": "D#4",
                    "midi": 63,
                    "time": 201.15647100000186,
                    "velocity": 0.25984251968503935,
                    "duration": 0.10576050000000237
                },
                {
                    "name": "D#4",
                    "midi": 63,
                    "time": 201.57951300000187,
                    "velocity": 0.25984251968503935,
                    "duration": 0.10576050000000237
                },
                {
                    "name": "C4",
                    "midi": 60,
                    "time": 201.57951300000187,
                    "velocity": 0.25984251968503935,
                    "duration": 0.10576050000000237
                },
                {
                    "name": "B3",
                    "midi": 59,
                    "time": 201.79103400000187,
                    "velocity": 0.25196850393700787,
                    "duration": 0.21152100000000473
                },
                {
                    "name": "D4",
                    "midi": 62,
                    "time": 201.79103400000187,
                    "velocity": 0.2992125984251969,
                    "duration": 0.21152100000000473
                },
                {
                    "name": "G4",
                    "midi": 67,
                    "time": 202.00255500000188,
                    "velocity": 0.29133858267716534,
                    "duration": 0.2203343749999931
                },
                {
                    "name": "D#4",
                    "midi": 63,
                    "time": 202.00255500000188,
                    "velocity": 0.2440944881889764,
                    "duration": 0.2203343749999931
                },
                {
                    "name": "F4",
                    "midi": 65,
                    "time": 202.21407600000188,
                    "velocity": 0.25984251968503935,
                    "duration": 0.22033437499996467
                },
                {
                    "name": "D4",
                    "midi": 62,
                    "time": 202.21407600000188,
                    "velocity": 0.2204724409448819,
                    "duration": 0.22033437499996467
                },
                {
                    "name": "D#4",
                    "midi": 63,
                    "time": 202.42559700000186,
                    "velocity": 0.2440944881889764,
                    "duration": 0.22033437499996467
                },
                {
                    "name": "C4",
                    "midi": 60,
                    "time": 202.42559700000186,
                    "velocity": 0.2047244094488189,
                    "duration": 0.22033437499996467
                },
                {
                    "name": "D4",
                    "midi": 62,
                    "time": 202.63711800000183,
                    "velocity": 0.25984251968503935,
                    "duration": 0.22033437499996467
                },
                {
                    "name": "B3",
                    "midi": 59,
                    "time": 202.63711800000183,
                    "velocity": 0.2204724409448819,
                    "duration": 0.22033437499996467
                },
                {
                    "name": "C4",
                    "midi": 60,
                    "time": 202.8486390000018,
                    "velocity": 0.1968503937007874,
                    "duration": 0.22033437499996467
                },
                {
                    "name": "D#4",
                    "midi": 63,
                    "time": 202.8486390000018,
                    "velocity": 0.23622047244094488,
                    "duration": 0.22033437499996467
                },
                {
                    "name": "B3",
                    "midi": 59,
                    "time": 203.0601600000018,
                    "velocity": 0.25196850393700787,
                    "duration": 0.2115209999999763
                },
                {
                    "name": "D4",
                    "midi": 62,
                    "time": 203.0601600000018,
                    "velocity": 0.2992125984251969,
                    "duration": 0.2115209999999763
                },
                {
                    "name": "G4",
                    "midi": 67,
                    "time": 203.27168100000176,
                    "velocity": 0.29133858267716534,
                    "duration": 0.2203343749999931
                },
                {
                    "name": "D#4",
                    "midi": 63,
                    "time": 203.27168100000176,
                    "velocity": 0.2440944881889764,
                    "duration": 0.2203343749999931
                },
                {
                    "name": "D4",
                    "midi": 62,
                    "time": 203.48320200000177,
                    "velocity": 0.2204724409448819,
                    "duration": 0.22033437499996467
                },
                {
                    "name": "F4",
                    "midi": 65,
                    "time": 203.48320200000177,
                    "velocity": 0.25984251968503935,
                    "duration": 0.22033437499996467
                },
                {
                    "name": "D#4",
                    "midi": 63,
                    "time": 203.69472300000174,
                    "velocity": 0.2440944881889764,
                    "duration": 0.22033437499996467
                },
                {
                    "name": "C4",
                    "midi": 60,
                    "time": 203.69472300000174,
                    "velocity": 0.2047244094488189,
                    "duration": 0.22033437499996467
                },
                {
                    "name": "B3",
                    "midi": 59,
                    "time": 203.90624400000172,
                    "velocity": 0.2204724409448819,
                    "duration": 0.22033437499996467
                },
                {
                    "name": "D4",
                    "midi": 62,
                    "time": 203.90624400000172,
                    "velocity": 0.25984251968503935,
                    "duration": 0.22033437499996467
                },
                {
                    "name": "C4",
                    "midi": 60,
                    "time": 204.1177650000017,
                    "velocity": 0.1968503937007874,
                    "duration": 0.22033437499996467
                },
                {
                    "name": "D#4",
                    "midi": 63,
                    "time": 204.1177650000017,
                    "velocity": 0.23622047244094488,
                    "duration": 0.22033437499996467
                },
                {
                    "name": "B3",
                    "midi": 59,
                    "time": 204.32928600000167,
                    "velocity": 0.2440944881889764,
                    "duration": 0.22033437499996467
                },
                {
                    "name": "D4",
                    "midi": 62,
                    "time": 204.32928600000167,
                    "velocity": 0.29133858267716534,
                    "duration": 0.22033437499996467
                },
                {
                    "name": "C4",
                    "midi": 60,
                    "time": 204.54080700000165,
                    "velocity": 0.2125984251968504,
                    "duration": 0.22033437499996467
                },
                {
                    "name": "D#4",
                    "midi": 63,
                    "time": 204.54080700000165,
                    "velocity": 0.25196850393700787,
                    "duration": 0.22033437499996467
                },
                {
                    "name": "B3",
                    "midi": 59,
                    "time": 204.75232800000163,
                    "velocity": 0.2440944881889764,
                    "duration": 0.22033437499996467
                },
                {
                    "name": "D4",
                    "midi": 62,
                    "time": 204.75232800000163,
                    "velocity": 0.29133858267716534,
                    "duration": 0.22033437499996467
                },
                {
                    "name": "C4",
                    "midi": 60,
                    "time": 204.9638490000016,
                    "velocity": 0.2204724409448819,
                    "duration": 0.22033437499996467
                },
                {
                    "name": "D#4",
                    "midi": 63,
                    "time": 204.9638490000016,
                    "velocity": 0.2677165354330709,
                    "duration": 0.22033437499996467
                },
                {
                    "name": "B3",
                    "midi": 59,
                    "time": 205.17537000000158,
                    "velocity": 0.2440944881889764,
                    "duration": 0.22033437499996467
                },
                {
                    "name": "D4",
                    "midi": 62,
                    "time": 205.17537000000158,
                    "velocity": 0.29133858267716534,
                    "duration": 0.22033437499996467
                },
                {
                    "name": "D#4",
                    "midi": 63,
                    "time": 205.38689100000155,
                    "velocity": 0.2677165354330709,
                    "duration": 0.22033437499996467
                },
                {
                    "name": "C4",
                    "midi": 60,
                    "time": 205.38689100000155,
                    "velocity": 0.2204724409448819,
                    "duration": 0.22033437499996467
                },
                {
                    "name": "D4",
                    "midi": 62,
                    "time": 205.59841200000153,
                    "velocity": 0.29133858267716534,
                    "duration": 0.2115209999999763
                },
                {
                    "name": "B3",
                    "midi": 59,
                    "time": 205.59841200000153,
                    "velocity": 0.2440944881889764,
                    "duration": 0.2115209999999763
                },
                {
                    "name": "A#3",
                    "midi": 58,
                    "time": 205.8099330000015,
                    "velocity": 0.25984251968503935,
                    "duration": 0.2203343749999931
                },
                {
                    "name": "C#4",
                    "midi": 61,
                    "time": 205.8099330000015,
                    "velocity": 0.25984251968503935,
                    "duration": 0.2203343749999931
                },
                {
                    "name": "B3",
                    "midi": 59,
                    "time": 206.0214540000015,
                    "velocity": 0.2755905511811024,
                    "duration": 0.22033437499996467
                },
                {
                    "name": "D4",
                    "midi": 62,
                    "time": 206.0214540000015,
                    "velocity": 0.2755905511811024,
                    "duration": 0.22033437499996467
                },
                {
                    "name": "E4",
                    "midi": 64,
                    "time": 206.2329750000015,
                    "velocity": 0.28346456692913385,
                    "duration": 0.22033437499996467
                },
                {
                    "name": "C#4",
                    "midi": 61,
                    "time": 206.2329750000015,
                    "velocity": 0.28346456692913385,
                    "duration": 0.22033437499996467
                },
                {
                    "name": "D4",
                    "midi": 62,
                    "time": 206.44449600000146,
                    "velocity": 0.2992125984251969,
                    "duration": 0.22033437499996467
                },
                {
                    "name": "F4",
                    "midi": 65,
                    "time": 206.44449600000146,
                    "velocity": 0.2992125984251969,
                    "duration": 0.22033437499996467
                },
                {
                    "name": "G4",
                    "midi": 67,
                    "time": 206.65601700000144,
                    "velocity": 0.31496062992125984,
                    "duration": 0.22033437499996467
                },
                {
                    "name": "E4",
                    "midi": 64,
                    "time": 206.65601700000144,
                    "velocity": 0.31496062992125984,
                    "duration": 0.22033437499996467
                },
                {
                    "name": "A4",
                    "midi": 69,
                    "time": 206.86753800000142,
                    "velocity": 0.33070866141732286,
                    "duration": 0.42304199999998104
                },
                {
                    "name": "F4",
                    "midi": 65,
                    "time": 206.86753800000142,
                    "velocity": 0.2755905511811024,
                    "duration": 0.42304199999998104
                },
                {
                    "name": "C4",
                    "midi": 60,
                    "time": 207.2905800000014,
                    "velocity": 0.2677165354330709,
                    "duration": 0.42304200000000947
                },
                {
                    "name": "F4",
                    "midi": 65,
                    "time": 207.2905800000014,
                    "velocity": 0.2677165354330709,
                    "duration": 0.42304200000000947
                },
                {
                    "name": "A4",
                    "midi": 69,
                    "time": 207.2905800000014,
                    "velocity": 0.31496062992125984,
                    "duration": 0.42304200000000947
                },
                {
                    "name": "F4",
                    "midi": 65,
                    "time": 207.7136220000014,
                    "velocity": 0.2677165354330709,
                    "duration": 0.42304200000000947
                },
                {
                    "name": "A4",
                    "midi": 69,
                    "time": 207.7136220000014,
                    "velocity": 0.31496062992125984,
                    "duration": 0.42304200000000947
                },
                {
                    "name": "C4",
                    "midi": 60,
                    "time": 207.7136220000014,
                    "velocity": 0.2677165354330709,
                    "duration": 0.42304200000000947
                },
                {
                    "name": "F4",
                    "midi": 65,
                    "time": 208.13666400000142,
                    "velocity": 0.2755905511811024,
                    "duration": 0.8460839999999905
                },
                {
                    "name": "A4",
                    "midi": 69,
                    "time": 208.13666400000142,
                    "velocity": 0.33070866141732286,
                    "duration": 0.8460839999999905
                },
                {
                    "name": "C4",
                    "midi": 60,
                    "time": 208.13666400000142,
                    "velocity": 0.2755905511811024,
                    "duration": 1.269126
                },
                {
                    "name": "G4",
                    "midi": 67,
                    "time": 208.9827480000014,
                    "velocity": 0.2677165354330709,
                    "duration": 0.42304200000000947
                },
                {
                    "name": "E4",
                    "midi": 64,
                    "time": 208.9827480000014,
                    "velocity": 0.2204724409448819,
                    "duration": 0.42304200000000947
                },
                {
                    "name": "D4",
                    "midi": 62,
                    "time": 209.40579000000142,
                    "velocity": 0.2755905511811024,
                    "duration": 0.42304200000000947
                },
                {
                    "name": "B3",
                    "midi": 59,
                    "time": 209.40579000000142,
                    "velocity": 0.2755905511811024,
                    "duration": 0.42304200000000947
                },
                {
                    "name": "G4",
                    "midi": 67,
                    "time": 209.40579000000142,
                    "velocity": 0.33070866141732286,
                    "duration": 0.21152100000000473
                },
                {
                    "name": "F4",
                    "midi": 65,
                    "time": 209.61731100000142,
                    "velocity": 0.2992125984251969,
                    "duration": 0.21152100000000473
                },
                {
                    "name": "D4",
                    "midi": 62,
                    "time": 209.82883200000143,
                    "velocity": 0.2755905511811024,
                    "duration": 0.42304200000000947
                },
                {
                    "name": "B3",
                    "midi": 59,
                    "time": 209.82883200000143,
                    "velocity": 0.2755905511811024,
                    "duration": 0.42304200000000947
                },
                {
                    "name": "F4",
                    "midi": 65,
                    "time": 209.82883200000143,
                    "velocity": 0.33070866141732286,
                    "duration": 0.42304200000000947
                },
                {
                    "name": "D4",
                    "midi": 62,
                    "time": 210.25187400000144,
                    "velocity": 0.25196850393700787,
                    "duration": 0.42304200000000947
                },
                {
                    "name": "B3",
                    "midi": 59,
                    "time": 210.25187400000144,
                    "velocity": 0.25196850393700787,
                    "duration": 0.42304200000000947
                },
                {
                    "name": "F4",
                    "midi": 65,
                    "time": 210.25187400000144,
                    "velocity": 0.2992125984251969,
                    "duration": 0.42304200000000947
                },
                {
                    "name": "F4",
                    "midi": 65,
                    "time": 210.67491600000145,
                    "velocity": 0.33070866141732286,
                    "duration": 0.8460839999999905
                },
                {
                    "name": "D4",
                    "midi": 62,
                    "time": 210.67491600000145,
                    "velocity": 0.2755905511811024,
                    "duration": 0.8460839999999905
                },
                {
                    "name": "B3",
                    "midi": 59,
                    "time": 210.67491600000145,
                    "velocity": 0.2755905511811024,
                    "duration": 0.8460839999999905
                },
                {
                    "name": "E4",
                    "midi": 64,
                    "time": 211.52100000000144,
                    "velocity": 0.30708661417322836,
                    "duration": 0.42304200000000947
                },
                {
                    "name": "C4",
                    "midi": 60,
                    "time": 211.52100000000144,
                    "velocity": 0.25984251968503935,
                    "duration": 0.42304200000000947
                },
                {
                    "name": "E4",
                    "midi": 64,
                    "time": 211.94404200000145,
                    "velocity": 0.2755905511811024,
                    "duration": 0.21152100000000473
                },
                {
                    "name": "G4",
                    "midi": 67,
                    "time": 211.94404200000145,
                    "velocity": 0.33070866141732286,
                    "duration": 0.21152100000000473
                },
                {
                    "name": "F4",
                    "midi": 65,
                    "time": 212.15556300000145,
                    "velocity": 0.29133858267716534,
                    "duration": 0.21152100000000473
                },
                {
                    "name": "D4",
                    "midi": 62,
                    "time": 212.15556300000145,
                    "velocity": 0.2440944881889764,
                    "duration": 0.21152100000000473
                },
                {
                    "name": "C4",
                    "midi": 60,
                    "time": 212.36708400000146,
                    "velocity": 0.2755905511811024,
                    "duration": 0.42304200000000947
                },
                {
                    "name": "E4",
                    "midi": 64,
                    "time": 212.36708400000146,
                    "velocity": 0.33070866141732286,
                    "duration": 0.42304200000000947
                },
                {
                    "name": "B3",
                    "midi": 59,
                    "time": 212.79012600000146,
                    "velocity": 0.23622047244094488,
                    "duration": 0.42304200000000947
                },
                {
                    "name": "D4",
                    "midi": 62,
                    "time": 212.79012600000146,
                    "velocity": 0.28346456692913385,
                    "duration": 0.42304200000000947
                },
                {
                    "name": "C4",
                    "midi": 60,
                    "time": 213.21316800000147,
                    "velocity": 0.2755905511811024,
                    "duration": 0.21152100000000473
                },
                {
                    "name": "E4",
                    "midi": 64,
                    "time": 213.21316800000147,
                    "velocity": 0.33070866141732286,
                    "duration": 0.21152100000000473
                },
                {
                    "name": "C5",
                    "midi": 72,
                    "time": 213.42468900000148,
                    "velocity": 0.2755905511811024,
                    "duration": 0.1938942499999996
                },
                {
                    "name": "D5",
                    "midi": 74,
                    "time": 213.63621000000148,
                    "velocity": 0.29133858267716534,
                    "duration": 0.1938942499999996
                },
                {
                    "name": "E5",
                    "midi": 76,
                    "time": 213.8477310000015,
                    "velocity": 0.2992125984251969,
                    "duration": 0.1938942499999996
                },
                {
                    "name": "F5",
                    "midi": 77,
                    "time": 214.0592520000015,
                    "velocity": 0.31496062992125984,
                    "duration": 0.1938942499999996
                },
                {
                    "name": "G5",
                    "midi": 79,
                    "time": 214.2707730000015,
                    "velocity": 0.3228346456692913,
                    "duration": 0.1938942499999996
                },
                {
                    "name": "A5",
                    "midi": 81,
                    "time": 214.4822940000015,
                    "velocity": 0.36220472440944884,
                    "duration": 0.42304200000000947
                },
                {
                    "name": "A5",
                    "midi": 81,
                    "time": 214.9053360000015,
                    "velocity": 0.3464566929133858,
                    "duration": 0.42304200000000947
                },
                {
                    "name": "A5",
                    "midi": 81,
                    "time": 215.32837800000152,
                    "velocity": 0.3464566929133858,
                    "duration": 0.42304200000000947
                },
                {
                    "name": "A5",
                    "midi": 81,
                    "time": 215.75142000000153,
                    "velocity": 0.36220472440944884,
                    "duration": 0.6345630000000142
                },
                {
                    "name": "B5",
                    "midi": 83,
                    "time": 216.38598300000154,
                    "velocity": 0.30708661417322836,
                    "duration": 0.10576050000000237
                },
                {
                    "name": "A5",
                    "midi": 81,
                    "time": 216.49174350000155,
                    "velocity": 0.30708661417322836,
                    "duration": 0.10576050000000237
                },
                {
                    "name": "G5",
                    "midi": 79,
                    "time": 216.59750400000155,
                    "velocity": 0.36220472440944884,
                    "duration": 0.42304200000000947
                },
                {
                    "name": "G5",
                    "midi": 79,
                    "time": 217.02054600000156,
                    "velocity": 0.36220472440944884,
                    "duration": 0.21152100000000473
                },
                {
                    "name": "B4",
                    "midi": 71,
                    "time": 217.02054600000156,
                    "velocity": 0.2755905511811024,
                    "duration": 0.42304200000000947
                },
                {
                    "name": "F5",
                    "midi": 77,
                    "time": 217.23206700000156,
                    "velocity": 0.3228346456692913,
                    "duration": 0.21152100000000473
                },
                {
                    "name": "F5",
                    "midi": 77,
                    "time": 217.44358800000157,
                    "velocity": 0.36220472440944884,
                    "duration": 0.42304200000000947
                },
                {
                    "name": "B4",
                    "midi": 71,
                    "time": 217.44358800000157,
                    "velocity": 0.2755905511811024,
                    "duration": 0.42304200000000947
                },
                {
                    "name": "F5",
                    "midi": 77,
                    "time": 217.86663000000158,
                    "velocity": 0.3228346456692913,
                    "duration": 0.42304200000000947
                },
                {
                    "name": "B4",
                    "midi": 71,
                    "time": 217.86663000000158,
                    "velocity": 0.25196850393700787,
                    "duration": 0.42304200000000947
                },
                {
                    "name": "F5",
                    "midi": 77,
                    "time": 218.2896720000016,
                    "velocity": 0.36220472440944884,
                    "duration": 0.8460839999999905
                },
                {
                    "name": "B4",
                    "midi": 71,
                    "time": 218.2896720000016,
                    "velocity": 0.2755905511811024,
                    "duration": 0.8460839999999905
                },
                {
                    "name": "C5",
                    "midi": 72,
                    "time": 219.13575600000158,
                    "velocity": 0.25984251968503935,
                    "duration": 0.42304200000000947
                },
                {
                    "name": "E5",
                    "midi": 76,
                    "time": 219.13575600000158,
                    "velocity": 0.33070866141732286,
                    "duration": 0.42304200000000947
                },
                {
                    "name": "E5",
                    "midi": 76,
                    "time": 219.5587980000016,
                    "velocity": 0.2755905511811024,
                    "duration": 0.21152100000000473
                },
                {
                    "name": "G5",
                    "midi": 79,
                    "time": 219.5587980000016,
                    "velocity": 0.36220472440944884,
                    "duration": 0.21152100000000473
                },
                {
                    "name": "F5",
                    "midi": 77,
                    "time": 219.7703190000016,
                    "velocity": 0.31496062992125984,
                    "duration": 0.21152100000000473
                },
                {
                    "name": "D5",
                    "midi": 74,
                    "time": 219.7703190000016,
                    "velocity": 0.2440944881889764,
                    "duration": 0.21152100000000473
                },
                {
                    "name": "E5",
                    "midi": 76,
                    "time": 219.9818400000016,
                    "velocity": 0.36220472440944884,
                    "duration": 0.42304200000000947
                },
                {
                    "name": "C5",
                    "midi": 72,
                    "time": 219.9818400000016,
                    "velocity": 0.2755905511811024,
                    "duration": 0.42304200000000947
                },
                {
                    "name": "D5",
                    "midi": 74,
                    "time": 220.4048820000016,
                    "velocity": 0.30708661417322836,
                    "duration": 0.42304200000000947
                },
                {
                    "name": "B4",
                    "midi": 71,
                    "time": 220.4048820000016,
                    "velocity": 0.23622047244094488,
                    "duration": 0.42304200000000947
                },
                {
                    "name": "E5",
                    "midi": 76,
                    "time": 220.82792400000162,
                    "velocity": 0.49606299212598426,
                    "duration": 0.10576050000000237
                },
                {
                    "name": "G5",
                    "midi": 79,
                    "time": 220.82792400000162,
                    "velocity": 0.49606299212598426,
                    "duration": 0.10576050000000237
                },
                {
                    "name": "G5",
                    "midi": 79,
                    "time": 221.03944500000162,
                    "velocity": 0.3937007874015748,
                    "duration": 0.10576050000000237
                },
                {
                    "name": "E5",
                    "midi": 76,
                    "time": 221.03944500000162,
                    "velocity": 0.3937007874015748,
                    "duration": 0.10576050000000237
                },
                {
                    "name": "F5",
                    "midi": 77,
                    "time": 221.46248700000163,
                    "velocity": 0.25984251968503935,
                    "duration": 0.10576050000000237
                },
                {
                    "name": "D5",
                    "midi": 74,
                    "time": 221.46248700000163,
                    "velocity": 0.25984251968503935,
                    "duration": 0.10576050000000237
                },
                {
                    "name": "C5",
                    "midi": 72,
                    "time": 221.88552900000164,
                    "velocity": 0.25984251968503935,
                    "duration": 0.10576050000000237
                },
                {
                    "name": "E5",
                    "midi": 76,
                    "time": 221.88552900000164,
                    "velocity": 0.25984251968503935,
                    "duration": 0.10576050000000237
                },
                {
                    "name": "F4",
                    "midi": 65,
                    "time": 222.30857100000165,
                    "velocity": 0.25984251968503935,
                    "duration": 0.10576050000000237
                },
                {
                    "name": "D5",
                    "midi": 74,
                    "time": 222.30857100000165,
                    "velocity": 0.25984251968503935,
                    "duration": 0.10576050000000237
                },
                {
                    "name": "C5",
                    "midi": 72,
                    "time": 222.73161300000166,
                    "velocity": 0.25984251968503935,
                    "duration": 0.10576050000000237
                },
                {
                    "name": "E4",
                    "midi": 64,
                    "time": 222.73161300000166,
                    "velocity": 0.25984251968503935,
                    "duration": 0.10576050000000237
                },
                {
                    "name": "B4",
                    "midi": 71,
                    "time": 223.15465500000167,
                    "velocity": 0.25984251968503935,
                    "duration": 0.10576050000000237
                },
                {
                    "name": "D4",
                    "midi": 62,
                    "time": 223.15465500000167,
                    "velocity": 0.25984251968503935,
                    "duration": 0.10576050000000237
                },
                {
                    "name": "E5",
                    "midi": 76,
                    "time": 223.47193650000168,
                    "velocity": 0.5669291338582677,
                    "duration": 0.10576050000000237
                },
                {
                    "name": "G5",
                    "midi": 79,
                    "time": 223.57769700000168,
                    "velocity": 0.5905511811023622,
                    "duration": 0.10576050000000237
                },
                {
                    "name": "E5",
                    "midi": 76,
                    "time": 223.68345750000168,
                    "velocity": 0.5669291338582677,
                    "duration": 0.10576050000000237
                },
                {
                    "name": "D5",
                    "midi": 74,
                    "time": 223.89497850000168,
                    "velocity": 0.5511811023622047,
                    "duration": 0.10576050000000237
                },
                {
                    "name": "F5",
                    "midi": 77,
                    "time": 224.0007390000017,
                    "velocity": 0.5905511811023622,
                    "duration": 0.10576050000000237
                },
                {
                    "name": "D5",
                    "midi": 74,
                    "time": 224.1064995000017,
                    "velocity": 0.5511811023622047,
                    "duration": 0.10576050000000237
                },
                {
                    "name": "C5",
                    "midi": 72,
                    "time": 224.3180205000017,
                    "velocity": 0.5669291338582677,
                    "duration": 0.10576050000000237
                },
                {
                    "name": "E5",
                    "midi": 76,
                    "time": 224.4237810000017,
                    "velocity": 0.5905511811023622,
                    "duration": 0.10576050000000237
                },
                {
                    "name": "C5",
                    "midi": 72,
                    "time": 224.5295415000017,
                    "velocity": 0.5590551181102362,
                    "duration": 0.10576050000000237
                },
                {
                    "name": "F4",
                    "midi": 65,
                    "time": 224.7410625000017,
                    "velocity": 0.5590551181102362,
                    "duration": 0.10576050000000237
                },
                {
                    "name": "D5",
                    "midi": 74,
                    "time": 224.8468230000017,
                    "velocity": 0.5905511811023622,
                    "duration": 0.10576050000000237
                },
                {
                    "name": "F4",
                    "midi": 65,
                    "time": 224.9525835000017,
                    "velocity": 0.5590551181102362,
                    "duration": 0.10576050000000237
                },
                {
                    "name": "E4",
                    "midi": 64,
                    "time": 225.1641045000017,
                    "velocity": 0.5590551181102362,
                    "duration": 0.10576050000000237
                },
                {
                    "name": "C5",
                    "midi": 72,
                    "time": 225.26986500000172,
                    "velocity": 0.5905511811023622,
                    "duration": 0.10576050000000237
                },
                {
                    "name": "E4",
                    "midi": 64,
                    "time": 225.37562550000172,
                    "velocity": 0.5590551181102362,
                    "duration": 0.10576050000000237
                },
                {
                    "name": "D4",
                    "midi": 62,
                    "time": 225.58714650000172,
                    "velocity": 0.5590551181102362,
                    "duration": 0.10576050000000237
                },
                {
                    "name": "B4",
                    "midi": 71,
                    "time": 225.69290700000172,
                    "velocity": 0.5905511811023622,
                    "duration": 0.10576050000000237
                },
                {
                    "name": "D4",
                    "midi": 62,
                    "time": 225.79866750000173,
                    "velocity": 0.5590551181102362,
                    "duration": 0.10576050000000237
                },
                {
                    "name": "E4",
                    "midi": 64,
                    "time": 225.90442800000173,
                    "velocity": 0.5905511811023622,
                    "duration": 0.42304200000000947
                },
                {
                    "name": "G4",
                    "midi": 67,
                    "time": 225.90442800000173,
                    "velocity": 0.5905511811023622,
                    "duration": 0.42304200000000947
                },
                {
                    "name": "C5",
                    "midi": 72,
                    "time": 225.90442800000173,
                    "velocity": 0.5905511811023622,
                    "duration": 0.42304200000000947
                },
                {
                    "name": "E5",
                    "midi": 76,
                    "time": 226.75051200000175,
                    "velocity": 0.5511811023622047,
                    "duration": 0.05288024999998697
                },
                {
                    "name": "F5",
                    "midi": 77,
                    "time": 226.80339225000174,
                    "velocity": 0.5118110236220472,
                    "duration": 0.05288024999998697
                },
                {
                    "name": "E5",
                    "midi": 76,
                    "time": 226.85627250000172,
                    "velocity": 0.5511811023622047,
                    "duration": 0.05288024999998697
                },
                {
                    "name": "F5",
                    "midi": 77,
                    "time": 226.9091527500017,
                    "velocity": 0.5196850393700787,
                    "duration": 0.05288024999998697
                },
                {
                    "name": "E5",
                    "midi": 76,
                    "time": 226.9620330000017,
                    "velocity": 0.5511811023622047,
                    "duration": 0.03525350000001026
                },
                {
                    "name": "F5",
                    "midi": 77,
                    "time": 226.9972865000017,
                    "velocity": 0.5196850393700787,
                    "duration": 0.03525350000001026
                },
                {
                    "name": "E5",
                    "midi": 76,
                    "time": 227.03254000000172,
                    "velocity": 0.5196850393700787,
                    "duration": 0.03525350000001026
                },
                {
                    "name": "D5",
                    "midi": 74,
                    "time": 227.06779350000173,
                    "velocity": 0.5511811023622047,
                    "duration": 0.05288024999998697
                },
                {
                    "name": "C5",
                    "midi": 72,
                    "time": 227.1206737500017,
                    "velocity": 0.5196850393700787,
                    "duration": 0.05288024999998697
                },
                {
                    "name": "G5",
                    "midi": 79,
                    "time": 227.1735540000017,
                    "velocity": 0.5905511811023622,
                    "duration": 0.8460839999999905
                },
                {
                    "name": "B5",
                    "midi": 83,
                    "time": 228.0196380000017,
                    "velocity": 0.5511811023622047,
                    "duration": 0.05288024999998697
                },
                {
                    "name": "C6",
                    "midi": 84,
                    "time": 228.07251825000168,
                    "velocity": 0.5196850393700787,
                    "duration": 0.05288024999998697
                },
                {
                    "name": "B5",
                    "midi": 83,
                    "time": 228.12539850000167,
                    "velocity": 0.5511811023622047,
                    "duration": 0.05288024999998697
                },
                {
                    "name": "C6",
                    "midi": 84,
                    "time": 228.17827875000165,
                    "velocity": 0.5196850393700787,
                    "duration": 0.05288024999998697
                },
                {
                    "name": "B5",
                    "midi": 83,
                    "time": 228.23115900000164,
                    "velocity": 0.5511811023622047,
                    "duration": 0.03525350000001026
                },
                {
                    "name": "C6",
                    "midi": 84,
                    "time": 228.26641250000165,
                    "velocity": 0.5118110236220472,
                    "duration": 0.03525350000001026
                },
                {
                    "name": "B5",
                    "midi": 83,
                    "time": 228.30166600000166,
                    "velocity": 0.5196850393700787,
                    "duration": 0.03525350000001026
                },
                {
                    "name": "A5",
                    "midi": 81,
                    "time": 228.33691950000167,
                    "velocity": 0.5511811023622047,
                    "duration": 0.05288024999998697
                },
                {
                    "name": "G5",
                    "midi": 79,
                    "time": 228.38979975000166,
                    "velocity": 0.5118110236220472,
                    "duration": 0.05288024999998697
                },
                {
                    "name": "C6",
                    "midi": 84,
                    "time": 228.44268000000164,
                    "velocity": 0.5905511811023622,
                    "duration": 0.8460839999999905
                },
                {
                    "name": "E5",
                    "midi": 76,
                    "time": 229.28876400000163,
                    "velocity": 0.5511811023622047,
                    "duration": 0.05288024999998697
                },
                {
                    "name": "F5",
                    "midi": 77,
                    "time": 229.34164425000162,
                    "velocity": 0.5118110236220472,
                    "duration": 0.05288024999998697
                },
                {
                    "name": "E5",
                    "midi": 76,
                    "time": 229.3945245000016,
                    "velocity": 0.5511811023622047,
                    "duration": 0.05288024999998697
                },
                {
                    "name": "F5",
                    "midi": 77,
                    "time": 229.4474047500016,
                    "velocity": 0.5196850393700787,
                    "duration": 0.05288024999998697
                },
                {
                    "name": "E5",
                    "midi": 76,
                    "time": 229.50028500000158,
                    "velocity": 0.5511811023622047,
                    "duration": 0.03525350000001026
                },
                {
                    "name": "F5",
                    "midi": 77,
                    "time": 229.5355385000016,
                    "velocity": 0.5196850393700787,
                    "duration": 0.03525350000001026
                },
                {
                    "name": "E5",
                    "midi": 76,
                    "time": 229.5707920000016,
                    "velocity": 0.5196850393700787,
                    "duration": 0.03525350000001026
                },
                {
                    "name": "D5",
                    "midi": 74,
                    "time": 229.6060455000016,
                    "velocity": 0.5511811023622047,
                    "duration": 0.05288024999998697
                },
                {
                    "name": "C5",
                    "midi": 72,
                    "time": 229.6589257500016,
                    "velocity": 0.5196850393700787,
                    "duration": 0.05288024999998697
                },
                {
                    "name": "G5",
                    "midi": 79,
                    "time": 229.7118060000016,
                    "velocity": 0.5905511811023622,
                    "duration": 0.21152100000000473
                },
                {
                    "name": "G5",
                    "midi": 79,
                    "time": 230.1348480000016,
                    "velocity": 0.5905511811023622,
                    "duration": 0.21152100000000473
                },
                {
                    "name": "B5",
                    "midi": 83,
                    "time": 230.5578900000016,
                    "velocity": 0.5511811023622047,
                    "duration": 0.05288024999998697
                },
                {
                    "name": "C6",
                    "midi": 84,
                    "time": 230.6107702500016,
                    "velocity": 0.5196850393700787,
                    "duration": 0.05288024999998697
                },
                {
                    "name": "B5",
                    "midi": 83,
                    "time": 230.66365050000158,
                    "velocity": 0.5511811023622047,
                    "duration": 0.05288024999998697
                },
                {
                    "name": "C6",
                    "midi": 84,
                    "time": 230.71653075000157,
                    "velocity": 0.5196850393700787,
                    "duration": 0.05288024999998697
                },
                {
                    "name": "B5",
                    "midi": 83,
                    "time": 230.76941100000155,
                    "velocity": 0.5511811023622047,
                    "duration": 0.03525350000001026
                },
                {
                    "name": "C6",
                    "midi": 84,
                    "time": 230.80466450000156,
                    "velocity": 0.5118110236220472,
                    "duration": 0.03525350000001026
                },
                {
                    "name": "B5",
                    "midi": 83,
                    "time": 230.83991800000157,
                    "velocity": 0.5196850393700787,
                    "duration": 0.03525350000001026
                },
                {
                    "name": "A5",
                    "midi": 81,
                    "time": 230.87517150000158,
                    "velocity": 0.5511811023622047,
                    "duration": 0.05288024999998697
                },
                {
                    "name": "G5",
                    "midi": 79,
                    "time": 230.92805175000157,
                    "velocity": 0.5118110236220472,
                    "duration": 0.05288024999998697
                },
                {
                    "name": "C6",
                    "midi": 84,
                    "time": 230.98093200000156,
                    "velocity": 0.5905511811023622,
                    "duration": 0.10576050000000237
                },
                {
                    "name": "E6",
                    "midi": 88,
                    "time": 231.40397400000157,
                    "velocity": 0.6929133858267716,
                    "duration": 0.6345629999999858
                },
                {
                    "name": "G#5",
                    "midi": 80,
                    "time": 232.03853700000155,
                    "velocity": 0.5905511811023622,
                    "duration": 0.21152100000000473
                },
                {
                    "name": "A5",
                    "midi": 81,
                    "time": 232.25005800000156,
                    "velocity": 0.5905511811023622,
                    "duration": 0.10576050000000237
                },
                {
                    "name": "C6",
                    "midi": 84,
                    "time": 232.67310000000157,
                    "velocity": 0.7007874015748031,
                    "duration": 0.6345630000000142
                },
                {
                    "name": "E5",
                    "midi": 76,
                    "time": 233.30766300000158,
                    "velocity": 0.5905511811023622,
                    "duration": 0.21152100000000473
                },
                {
                    "name": "F5",
                    "midi": 77,
                    "time": 233.5191840000016,
                    "velocity": 0.5511811023622047,
                    "duration": 0.05288024999998697
                },
                {
                    "name": "G5",
                    "midi": 79,
                    "time": 233.57206425000157,
                    "velocity": 0.5118110236220472,
                    "duration": 0.05288024999998697
                },
                {
                    "name": "F5",
                    "midi": 77,
                    "time": 233.62494450000156,
                    "velocity": 0.5511811023622047,
                    "duration": 0.05288024999998697
                },
                {
                    "name": "G5",
                    "midi": 79,
                    "time": 233.67782475000155,
                    "velocity": 0.5196850393700787,
                    "duration": 0.05288024999998697
                },
                {
                    "name": "F5",
                    "midi": 77,
                    "time": 233.73070500000154,
                    "velocity": 0.5511811023622047,
                    "duration": 0.03525350000001026
                },
                {
                    "name": "G5",
                    "midi": 79,
                    "time": 233.76595850000155,
                    "velocity": 0.5196850393700787,
                    "duration": 0.03525350000001026
                },
                {
                    "name": "F5",
                    "midi": 77,
                    "time": 233.80121200000156,
                    "velocity": 0.5196850393700787,
                    "duration": 0.03525350000001026
                },
                {
                    "name": "E5",
                    "midi": 76,
                    "time": 233.83646550000157,
                    "velocity": 0.5511811023622047,
                    "duration": 0.05288024999998697
                },
                {
                    "name": "D5",
                    "midi": 74,
                    "time": 233.88934575000155,
                    "velocity": 0.5196850393700787,
                    "duration": 0.05288024999998697
                },
                {
                    "name": "G5",
                    "midi": 79,
                    "time": 233.94222600000154,
                    "velocity": 0.6614173228346457,
                    "duration": 0.10576050000000237
                },
                {
                    "name": "B5",
                    "midi": 83,
                    "time": 234.36526800000155,
                    "velocity": 0.6771653543307087,
                    "duration": 0.10576050000000237
                },
                {
                    "name": "G5",
                    "midi": 79,
                    "time": 234.36526800000155,
                    "velocity": 0.5669291338582677,
                    "duration": 0.10576050000000237
                },
                {
                    "name": "D5",
                    "midi": 74,
                    "time": 234.36526800000155,
                    "velocity": 0.5669291338582677,
                    "duration": 0.10576050000000237
                },
                {
                    "name": "G5",
                    "midi": 79,
                    "time": 234.78831000000156,
                    "velocity": 0.5669291338582677,
                    "duration": 0.10576050000000237
                },
                {
                    "name": "E5",
                    "midi": 76,
                    "time": 234.78831000000156,
                    "velocity": 0.5669291338582677,
                    "duration": 0.10576050000000237
                },
                {
                    "name": "C6",
                    "midi": 84,
                    "time": 234.78831000000156,
                    "velocity": 0.6771653543307087,
                    "duration": 0.10576050000000237
                },
                {
                    "name": "C4",
                    "midi": 60,
                    "time": 235.21135200000157,
                    "velocity": 0.6220472440944882,
                    "duration": 0.10576050000000237
                },
                {
                    "name": "G4",
                    "midi": 67,
                    "time": 236.05743600000156,
                    "velocity": 0.3937007874015748,
                    "duration": 1.2691260000000284
                },
                {
                    "name": "C5",
                    "midi": 72,
                    "time": 236.48047800000157,
                    "velocity": 0.36220472440944884,
                    "duration": 0.42304200000000947
                },
                {
                    "name": "E5",
                    "midi": 76,
                    "time": 236.90352000000158,
                    "velocity": 0.36220472440944884,
                    "duration": 0.42304200000000947
                },
                {
                    "name": "G4",
                    "midi": 67,
                    "time": 237.3265620000016,
                    "velocity": 0.3543307086614173,
                    "duration": 1.269126
                },
                {
                    "name": "E5",
                    "midi": 76,
                    "time": 237.3265620000016,
                    "velocity": 0.41732283464566927,
                    "duration": 0.8460839999999905
                },
                {
                    "name": "C5",
                    "midi": 72,
                    "time": 237.3265620000016,
                    "velocity": 0.3779527559055118,
                    "duration": 0.8460839999999905
                },
                {
                    "name": "B4",
                    "midi": 71,
                    "time": 238.17264600000158,
                    "velocity": 0.33858267716535434,
                    "duration": 0.42304200000000947
                },
                {
                    "name": "D5",
                    "midi": 74,
                    "time": 238.17264600000158,
                    "velocity": 0.33858267716535434,
                    "duration": 0.42304200000000947
                },
                {
                    "name": "G5",
                    "midi": 79,
                    "time": 238.5956880000016,
                    "velocity": 0.3937007874015748,
                    "duration": 0.42304200000000947
                },
                {
                    "name": "C5",
                    "midi": 72,
                    "time": 239.0187300000016,
                    "velocity": 0.36220472440944884,
                    "duration": 0.42304200000000947
                },
                {
                    "name": "G4",
                    "midi": 67,
                    "time": 239.0187300000016,
                    "velocity": 0.31496062992125984,
                    "duration": 0.8460840000000189
                },
                {
                    "name": "E5",
                    "midi": 76,
                    "time": 239.4417720000016,
                    "velocity": 0.36220472440944884,
                    "duration": 0.42304200000000947
                },
                {
                    "name": "G4",
                    "midi": 67,
                    "time": 239.86481400000162,
                    "velocity": 0.3543307086614173,
                    "duration": 1.269126
                },
                {
                    "name": "C5",
                    "midi": 72,
                    "time": 239.86481400000162,
                    "velocity": 0.3779527559055118,
                    "duration": 0.8460839999999905
                },
                {
                    "name": "E5",
                    "midi": 76,
                    "time": 239.86481400000162,
                    "velocity": 0.41732283464566927,
                    "duration": 0.8460839999999905
                },
                {
                    "name": "D5",
                    "midi": 74,
                    "time": 240.7108980000016,
                    "velocity": 0.33858267716535434,
                    "duration": 0.42304200000000947
                },
                {
                    "name": "B4",
                    "midi": 71,
                    "time": 240.7108980000016,
                    "velocity": 0.33858267716535434,
                    "duration": 0.42304200000000947
                },
                {
                    "name": "A4",
                    "midi": 69,
                    "time": 241.13394000000162,
                    "velocity": 0.3937007874015748,
                    "duration": 0.42304200000000947
                },
                {
                    "name": "D5",
                    "midi": 74,
                    "time": 241.55698200000163,
                    "velocity": 0.3937007874015748,
                    "duration": 0.42304200000000947
                },
                {
                    "name": "F5",
                    "midi": 77,
                    "time": 241.98002400000163,
                    "velocity": 0.3937007874015748,
                    "duration": 0.42304200000000947
                },
                {
                    "name": "E5",
                    "midi": 76,
                    "time": 242.40306600000164,
                    "velocity": 0.3937007874015748,
                    "duration": 0.42304200000000947
                },
                {
                    "name": "D5",
                    "midi": 74,
                    "time": 242.82610800000165,
                    "velocity": 0.3937007874015748,
                    "duration": 0.42304200000000947
                },
                {
                    "name": "A5",
                    "midi": 81,
                    "time": 243.24915000000166,
                    "velocity": 0.3937007874015748,
                    "duration": 0.8460839999999905
                },
                {
                    "name": "G5",
                    "midi": 79,
                    "time": 244.09523400000165,
                    "velocity": 0.3937007874015748,
                    "duration": 0.42304200000000947
                },
                {
                    "name": "B4",
                    "midi": 71,
                    "time": 244.51827600000166,
                    "velocity": 0.3937007874015748,
                    "duration": 0.42304200000000947
                },
                {
                    "name": "C5",
                    "midi": 72,
                    "time": 244.94131800000167,
                    "velocity": 0.3937007874015748,
                    "duration": 0.21152100000000473
                },
                {
                    "name": "G4",
                    "midi": 67,
                    "time": 245.15283900000168,
                    "velocity": 0.3937007874015748,
                    "duration": 0.21152100000000473
                },
                {
                    "name": "E4",
                    "midi": 64,
                    "time": 245.36436000000168,
                    "velocity": 0.3937007874015748,
                    "duration": 0.21152100000000473
                },
                {
                    "name": "G4",
                    "midi": 67,
                    "time": 245.5758810000017,
                    "velocity": 0.3937007874015748,
                    "duration": 0.21152100000000473
                },
                {
                    "name": "F4",
                    "midi": 65,
                    "time": 245.7874020000017,
                    "velocity": 0.3937007874015748,
                    "duration": 0.21152100000000473
                },
                {
                    "name": "D4",
                    "midi": 62,
                    "time": 245.9989230000017,
                    "velocity": 0.3937007874015748,
                    "duration": 0.21152100000000473
                },
                {
                    "name": "C4",
                    "midi": 60,
                    "time": 246.2104440000017,
                    "velocity": 0.3937007874015748,
                    "duration": 0.3172815000000071
                },
                {
                    "name": "G3",
                    "midi": 55,
                    "time": 246.5277255000017,
                    "velocity": 0.33858267716535434,
                    "duration": 0.10576050000000237
                },
                {
                    "name": "C4",
                    "midi": 60,
                    "time": 246.6334860000017,
                    "velocity": 0.36220472440944884,
                    "duration": 0.42304200000000947
                },
                {
                    "name": "E4",
                    "midi": 64,
                    "time": 247.05652800000172,
                    "velocity": 0.3779527559055118,
                    "duration": 0.42304200000000947
                },
                {
                    "name": "C4",
                    "midi": 60,
                    "time": 247.47957000000173,
                    "velocity": 0.3937007874015748,
                    "duration": 0.8460839999999905
                },
                {
                    "name": "E4",
                    "midi": 64,
                    "time": 247.47957000000173,
                    "velocity": 0.4330708661417323,
                    "duration": 0.8460839999999905
                },
                {
                    "name": "D4",
                    "midi": 62,
                    "time": 248.32565400000172,
                    "velocity": 0.33858267716535434,
                    "duration": 0.42304200000000947
                },
                {
                    "name": "B3",
                    "midi": 59,
                    "time": 248.32565400000172,
                    "velocity": 0.33858267716535434,
                    "duration": 0.42304200000000947
                },
                {
                    "name": "G4",
                    "midi": 67,
                    "time": 248.74869600000173,
                    "velocity": 0.3937007874015748,
                    "duration": 0.42304200000000947
                },
                {
                    "name": "G3",
                    "midi": 55,
                    "time": 249.17173800000174,
                    "velocity": 0.31496062992125984,
                    "duration": 0.8460840000000189
                },
                {
                    "name": "C4",
                    "midi": 60,
                    "time": 249.17173800000174,
                    "velocity": 0.36220472440944884,
                    "duration": 0.42304200000000947
                },
                {
                    "name": "E4",
                    "midi": 64,
                    "time": 249.59478000000175,
                    "velocity": 0.3779527559055118,
                    "duration": 0.42304200000000947
                },
                {
                    "name": "C4",
                    "midi": 60,
                    "time": 250.01782200000176,
                    "velocity": 0.3937007874015748,
                    "duration": 0.8460839999999905
                },
                {
                    "name": "E4",
                    "midi": 64,
                    "time": 250.01782200000176,
                    "velocity": 0.4330708661417323,
                    "duration": 0.8460839999999905
                },
                {
                    "name": "B3",
                    "midi": 59,
                    "time": 250.86390600000175,
                    "velocity": 0.33858267716535434,
                    "duration": 0.42304200000000947
                },
                {
                    "name": "D4",
                    "midi": 62,
                    "time": 250.86390600000175,
                    "velocity": 0.33858267716535434,
                    "duration": 0.42304200000000947
                },
                {
                    "name": "A3",
                    "midi": 57,
                    "time": 251.28694800000176,
                    "velocity": 0.3937007874015748,
                    "duration": 0.42304200000000947
                },
                {
                    "name": "D4",
                    "midi": 62,
                    "time": 251.70999000000177,
                    "velocity": 0.3937007874015748,
                    "duration": 0.42304200000000947
                },
                {
                    "name": "F4",
                    "midi": 65,
                    "time": 252.13303200000178,
                    "velocity": 0.3937007874015748,
                    "duration": 0.42304200000000947
                },
                {
                    "name": "E4",
                    "midi": 64,
                    "time": 252.5560740000018,
                    "velocity": 0.3937007874015748,
                    "duration": 0.42304200000000947
                },
                {
                    "name": "D4",
                    "midi": 62,
                    "time": 252.9791160000018,
                    "velocity": 0.3937007874015748,
                    "duration": 0.42304200000000947
                },
                {
                    "name": "A4",
                    "midi": 69,
                    "time": 253.4021580000018,
                    "velocity": 0.3937007874015748,
                    "duration": 0.8460839999999905
                },
                {
                    "name": "G4",
                    "midi": 67,
                    "time": 254.2482420000018,
                    "velocity": 0.3937007874015748,
                    "duration": 0.42304200000000947
                },
                {
                    "name": "B3",
                    "midi": 59,
                    "time": 254.6712840000018,
                    "velocity": 0.3937007874015748,
                    "duration": 0.42304200000000947
                },
                {
                    "name": "C4",
                    "midi": 60,
                    "time": 255.09432600000181,
                    "velocity": 0.4094488188976378,
                    "duration": 0.21152100000000473
                },
                {
                    "name": "G4",
                    "midi": 67,
                    "time": 255.30584700000182,
                    "velocity": 0.2677165354330709,
                    "duration": 0.21152100000000473
                },
                {
                    "name": "G4",
                    "midi": 67,
                    "time": 255.72888900000183,
                    "velocity": 0.2677165354330709,
                    "duration": 0.10576050000000237
                },
                {
                    "name": "G4",
                    "midi": 67,
                    "time": 256.1519310000018,
                    "velocity": 0.2677165354330709,
                    "duration": 0.10576049999997394
                },
                {
                    "name": "F4",
                    "midi": 65,
                    "time": 256.36345200000176,
                    "velocity": 0.2677165354330709,
                    "duration": 0.10576049999997394
                },
                {
                    "name": "G4",
                    "midi": 67,
                    "time": 256.36345200000176,
                    "velocity": 0.31496062992125984,
                    "duration": 0.10576049999997394
                },
                {
                    "name": "F4",
                    "midi": 65,
                    "time": 256.5749730000017,
                    "velocity": 0.2204724409448819,
                    "duration": 0.10576049999997394
                },
                {
                    "name": "G4",
                    "midi": 67,
                    "time": 256.5749730000017,
                    "velocity": 0.25984251968503935,
                    "duration": 0.10576049999997394
                },
                {
                    "name": "F4",
                    "midi": 65,
                    "time": 256.99801500000166,
                    "velocity": 0.2204724409448819,
                    "duration": 0.10576049999997394
                },
                {
                    "name": "G4",
                    "midi": 67,
                    "time": 256.99801500000166,
                    "velocity": 0.25984251968503935,
                    "duration": 0.10576049999997394
                },
                {
                    "name": "G4",
                    "midi": 67,
                    "time": 257.4210570000016,
                    "velocity": 0.25984251968503935,
                    "duration": 0.10576049999997394
                },
                {
                    "name": "F4",
                    "midi": 65,
                    "time": 257.4210570000016,
                    "velocity": 0.2204724409448819,
                    "duration": 0.10576049999997394
                },
                {
                    "name": "G4",
                    "midi": 67,
                    "time": 257.63257800000156,
                    "velocity": 0.31496062992125984,
                    "duration": 0.10576049999997394
                },
                {
                    "name": "D#4",
                    "midi": 63,
                    "time": 257.63257800000156,
                    "velocity": 0.2677165354330709,
                    "duration": 0.10576049999997394
                },
                {
                    "name": "G4",
                    "midi": 67,
                    "time": 257.8440990000015,
                    "velocity": 0.2677165354330709,
                    "duration": 0.10576049999997394
                },
                {
                    "name": "D#4",
                    "midi": 63,
                    "time": 257.8440990000015,
                    "velocity": 0.2204724409448819,
                    "duration": 0.10576049999997394
                },
                {
                    "name": "G4",
                    "midi": 67,
                    "time": 258.26714100000146,
                    "velocity": 0.2677165354330709,
                    "duration": 0.10576049999997394
                },
                {
                    "name": "D#4",
                    "midi": 63,
                    "time": 258.26714100000146,
                    "velocity": 0.2204724409448819,
                    "duration": 0.10576049999997394
                },
                {
                    "name": "G4",
                    "midi": 67,
                    "time": 258.6901830000014,
                    "velocity": 0.2677165354330709,
                    "duration": 0.10576049999997394
                },
                {
                    "name": "D#4",
                    "midi": 63,
                    "time": 258.6901830000014,
                    "velocity": 0.2204724409448819,
                    "duration": 0.10576049999997394
                },
                {
                    "name": "F4",
                    "midi": 65,
                    "time": 258.90170400000136,
                    "velocity": 0.2677165354330709,
                    "duration": 0.10576049999997394
                },
                {
                    "name": "G4",
                    "midi": 67,
                    "time": 258.90170400000136,
                    "velocity": 0.31496062992125984,
                    "duration": 0.10576049999997394
                },
                {
                    "name": "F4",
                    "midi": 65,
                    "time": 259.1132250000013,
                    "velocity": 0.2204724409448819,
                    "duration": 0.10576049999997394
                },
                {
                    "name": "G4",
                    "midi": 67,
                    "time": 259.1132250000013,
                    "velocity": 0.25984251968503935,
                    "duration": 0.10576049999997394
                },
                {
                    "name": "F4",
                    "midi": 65,
                    "time": 259.53626700000126,
                    "velocity": 0.2204724409448819,
                    "duration": 0.10576049999997394
                },
                {
                    "name": "G4",
                    "midi": 67,
                    "time": 259.53626700000126,
                    "velocity": 0.25984251968503935,
                    "duration": 0.10576049999997394
                },
                {
                    "name": "F4",
                    "midi": 65,
                    "time": 259.9593090000012,
                    "velocity": 0.18110236220472442,
                    "duration": 0.10576049999997394
                },
                {
                    "name": "G4",
                    "midi": 67,
                    "time": 259.9593090000012,
                    "velocity": 0.25984251968503935,
                    "duration": 0.10576049999997394
                },
                {
                    "name": "D#4",
                    "midi": 63,
                    "time": 260.17083000000116,
                    "velocity": 0.41732283464566927,
                    "duration": 0.10576049999997394
                },
                {
                    "name": "G4",
                    "midi": 67,
                    "time": 260.17083000000116,
                    "velocity": 0.49606299212598426,
                    "duration": 0.10576049999997394
                },
                {
                    "name": "G4",
                    "midi": 67,
                    "time": 260.3823510000011,
                    "velocity": 0.3937007874015748,
                    "duration": 0.10576049999997394
                },
                {
                    "name": "D#4",
                    "midi": 63,
                    "time": 260.3823510000011,
                    "velocity": 0.33070866141732286,
                    "duration": 0.10576049999997394
                },
                {
                    "name": "G4",
                    "midi": 67,
                    "time": 260.80539300000106,
                    "velocity": 0.25984251968503935,
                    "duration": 0.10576049999997394
                },
                {
                    "name": "D#4",
                    "midi": 63,
                    "time": 260.80539300000106,
                    "velocity": 0.2204724409448819,
                    "duration": 0.10576049999997394
                },
                {
                    "name": "D#4",
                    "midi": 63,
                    "time": 261.228435000001,
                    "velocity": 0.2204724409448819,
                    "duration": 0.10576049999997394
                },
                {
                    "name": "G4",
                    "midi": 67,
                    "time": 261.228435000001,
                    "velocity": 0.25984251968503935,
                    "duration": 0.10576049999997394
                },
                {
                    "name": "D#4",
                    "midi": 63,
                    "time": 261.43995600000096,
                    "velocity": 0.41732283464566927,
                    "duration": 0.10576049999997394
                },
                {
                    "name": "C4",
                    "midi": 60,
                    "time": 261.43995600000096,
                    "velocity": 0.41732283464566927,
                    "duration": 0.10576049999997394
                },
                {
                    "name": "F#4",
                    "midi": 66,
                    "time": 261.43995600000096,
                    "velocity": 0.49606299212598426,
                    "duration": 0.10576049999997394
                },
                {
                    "name": "D#4",
                    "midi": 63,
                    "time": 261.6514770000009,
                    "velocity": 0.33070866141732286,
                    "duration": 0.10576049999997394
                },
                {
                    "name": "C4",
                    "midi": 60,
                    "time": 261.6514770000009,
                    "velocity": 0.33070866141732286,
                    "duration": 0.10576049999997394
                },
                {
                    "name": "F#4",
                    "midi": 66,
                    "time": 261.6514770000009,
                    "velocity": 0.3937007874015748,
                    "duration": 0.10576049999997394
                },
                {
                    "name": "F#4",
                    "midi": 66,
                    "time": 262.07451900000086,
                    "velocity": 0.25984251968503935,
                    "duration": 0.10576049999997394
                },
                {
                    "name": "D#4",
                    "midi": 63,
                    "time": 262.07451900000086,
                    "velocity": 0.2204724409448819,
                    "duration": 0.10576049999997394
                },
                {
                    "name": "C4",
                    "midi": 60,
                    "time": 262.07451900000086,
                    "velocity": 0.2204724409448819,
                    "duration": 0.10576049999997394
                },
                {
                    "name": "C4",
                    "midi": 60,
                    "time": 262.4975610000008,
                    "velocity": 0.2204724409448819,
                    "duration": 0.10576049999997394
                },
                {
                    "name": "D#4",
                    "midi": 63,
                    "time": 262.4975610000008,
                    "velocity": 0.2204724409448819,
                    "duration": 0.10576049999997394
                },
                {
                    "name": "F#4",
                    "midi": 66,
                    "time": 262.4975610000008,
                    "velocity": 0.25984251968503935,
                    "duration": 0.10576049999997394
                },
                {
                    "name": "D4",
                    "midi": 62,
                    "time": 262.70908200000076,
                    "velocity": 0.41732283464566927,
                    "duration": 0.10576049999997394
                },
                {
                    "name": "G4",
                    "midi": 67,
                    "time": 262.70908200000076,
                    "velocity": 0.49606299212598426,
                    "duration": 0.10576049999997394
                },
                {
                    "name": "G4",
                    "midi": 67,
                    "time": 262.9206030000007,
                    "velocity": 0.3937007874015748,
                    "duration": 0.10576049999997394
                },
                {
                    "name": "D4",
                    "midi": 62,
                    "time": 262.9206030000007,
                    "velocity": 0.33070866141732286,
                    "duration": 0.10576049999997394
                },
                {
                    "name": "G4",
                    "midi": 67,
                    "time": 263.34364500000066,
                    "velocity": 0.25984251968503935,
                    "duration": 0.10576049999997394
                },
                {
                    "name": "D4",
                    "midi": 62,
                    "time": 263.34364500000066,
                    "velocity": 0.2204724409448819,
                    "duration": 0.10576049999997394
                },
                {
                    "name": "D4",
                    "midi": 62,
                    "time": 263.7666870000006,
                    "velocity": 0.2204724409448819,
                    "duration": 0.10576049999997394
                },
                {
                    "name": "G4",
                    "midi": 67,
                    "time": 263.7666870000006,
                    "velocity": 0.25984251968503935,
                    "duration": 0.10576049999997394
                },
                {
                    "name": "A4",
                    "midi": 69,
                    "time": 263.97820800000056,
                    "velocity": 0.41732283464566927,
                    "duration": 0.10576049999997394
                },
                {
                    "name": "D4",
                    "midi": 62,
                    "time": 263.97820800000056,
                    "velocity": 0.41732283464566927,
                    "duration": 0.10576049999997394
                },
                {
                    "name": "C5",
                    "midi": 72,
                    "time": 263.97820800000056,
                    "velocity": 0.49606299212598426,
                    "duration": 0.10576049999997394
                },
                {
                    "name": "D4",
                    "midi": 62,
                    "time": 264.1897290000005,
                    "velocity": 0.33070866141732286,
                    "duration": 0.10576049999997394
                },
                {
                    "name": "C5",
                    "midi": 72,
                    "time": 264.1897290000005,
                    "velocity": 0.3937007874015748,
                    "duration": 0.10576049999997394
                },
                {
                    "name": "A4",
                    "midi": 69,
                    "time": 264.1897290000005,
                    "velocity": 0.33070866141732286,
                    "duration": 0.10576049999997394
                },
                {
                    "name": "A4",
                    "midi": 69,
                    "time": 264.61277100000046,
                    "velocity": 0.2204724409448819,
                    "duration": 0.10576049999997394
                },
                {
                    "name": "C5",
                    "midi": 72,
                    "time": 264.61277100000046,
                    "velocity": 0.25984251968503935,
                    "duration": 0.10576049999997394
                },
                {
                    "name": "D4",
                    "midi": 62,
                    "time": 264.61277100000046,
                    "velocity": 0.2204724409448819,
                    "duration": 0.10576049999997394
                },
                {
                    "name": "C5",
                    "midi": 72,
                    "time": 265.0358130000004,
                    "velocity": 0.25984251968503935,
                    "duration": 0.10576049999997394
                },
                {
                    "name": "D4",
                    "midi": 62,
                    "time": 265.0358130000004,
                    "velocity": 0.2204724409448819,
                    "duration": 0.10576049999997394
                },
                {
                    "name": "A4",
                    "midi": 69,
                    "time": 265.0358130000004,
                    "velocity": 0.2204724409448819,
                    "duration": 0.10576049999997394
                },
                {
                    "name": "A#4",
                    "midi": 70,
                    "time": 265.24733400000036,
                    "velocity": 0.49606299212598426,
                    "duration": 0.10576049999997394
                },
                {
                    "name": "G4",
                    "midi": 67,
                    "time": 265.24733400000036,
                    "velocity": 0.41732283464566927,
                    "duration": 0.10576049999997394
                },
                {
                    "name": "D4",
                    "midi": 62,
                    "time": 265.24733400000036,
                    "velocity": 0.41732283464566927,
                    "duration": 0.10576049999997394
                },
                {
                    "name": "D4",
                    "midi": 62,
                    "time": 265.4588550000003,
                    "velocity": 0.33070866141732286,
                    "duration": 0.10576049999997394
                },
                {
                    "name": "G4",
                    "midi": 67,
                    "time": 265.4588550000003,
                    "velocity": 0.33070866141732286,
                    "duration": 0.10576049999997394
                },
                {
                    "name": "A#4",
                    "midi": 70,
                    "time": 265.4588550000003,
                    "velocity": 0.3937007874015748,
                    "duration": 0.10576049999997394
                },
                {
                    "name": "D4",
                    "midi": 62,
                    "time": 265.88189700000027,
                    "velocity": 0.2204724409448819,
                    "duration": 0.10576049999997394
                },
                {
                    "name": "A#4",
                    "midi": 70,
                    "time": 265.88189700000027,
                    "velocity": 0.25984251968503935,
                    "duration": 0.10576049999997394
                },
                {
                    "name": "G4",
                    "midi": 67,
                    "time": 265.88189700000027,
                    "velocity": 0.2204724409448819,
                    "duration": 0.10576049999997394
                },
                {
                    "name": "D4",
                    "midi": 62,
                    "time": 266.3049390000002,
                    "velocity": 0.2204724409448819,
                    "duration": 0.10576049999997394
                },
                {
                    "name": "A#4",
                    "midi": 70,
                    "time": 266.3049390000002,
                    "velocity": 0.25984251968503935,
                    "duration": 0.10576049999997394
                },
                {
                    "name": "G4",
                    "midi": 67,
                    "time": 266.3049390000002,
                    "velocity": 0.2204724409448819,
                    "duration": 0.10576049999997394
                },
                {
                    "name": "A#4",
                    "midi": 70,
                    "time": 266.51646000000017,
                    "velocity": 0.41732283464566927,
                    "duration": 0.10576049999997394
                },
                {
                    "name": "G4",
                    "midi": 67,
                    "time": 266.51646000000017,
                    "velocity": 0.41732283464566927,
                    "duration": 0.10576049999997394
                },
                {
                    "name": "C#5",
                    "midi": 73,
                    "time": 266.51646000000017,
                    "velocity": 0.49606299212598426,
                    "duration": 0.10576049999997394
                },
                {
                    "name": "A#4",
                    "midi": 70,
                    "time": 266.7279810000001,
                    "velocity": 0.33070866141732286,
                    "duration": 0.10576049999997394
                },
                {
                    "name": "C#5",
                    "midi": 73,
                    "time": 266.7279810000001,
                    "velocity": 0.3937007874015748,
                    "duration": 0.10576049999997394
                },
                {
                    "name": "G4",
                    "midi": 67,
                    "time": 266.7279810000001,
                    "velocity": 0.33070866141732286,
                    "duration": 0.10576049999997394
                },
                {
                    "name": "G4",
                    "midi": 67,
                    "time": 267.15102300000007,
                    "velocity": 0.2204724409448819,
                    "duration": 0.10576049999997394
                },
                {
                    "name": "A#4",
                    "midi": 70,
                    "time": 267.15102300000007,
                    "velocity": 0.2204724409448819,
                    "duration": 0.10576049999997394
                },
                {
                    "name": "C#5",
                    "midi": 73,
                    "time": 267.15102300000007,
                    "velocity": 0.25984251968503935,
                    "duration": 0.10576049999997394
                },
                {
                    "name": "C#5",
                    "midi": 73,
                    "time": 267.574065,
                    "velocity": 0.25984251968503935,
                    "duration": 0.10576049999997394
                },
                {
                    "name": "A#4",
                    "midi": 70,
                    "time": 267.574065,
                    "velocity": 0.2204724409448819,
                    "duration": 0.10576049999997394
                },
                {
                    "name": "G4",
                    "midi": 67,
                    "time": 267.574065,
                    "velocity": 0.2204724409448819,
                    "duration": 0.10576049999997394
                },
                {
                    "name": "D5",
                    "midi": 74,
                    "time": 267.78558599999997,
                    "velocity": 0.49606299212598426,
                    "duration": 0.10576049999997394
                },
                {
                    "name": "A4",
                    "midi": 69,
                    "time": 267.78558599999997,
                    "velocity": 0.41732283464566927,
                    "duration": 0.10576049999997394
                },
                {
                    "name": "A4",
                    "midi": 69,
                    "time": 267.9971069999999,
                    "velocity": 0.33070866141732286,
                    "duration": 0.10576049999997394
                },
                {
                    "name": "D5",
                    "midi": 74,
                    "time": 267.9971069999999,
                    "velocity": 0.3937007874015748,
                    "duration": 0.10576049999997394
                },
                {
                    "name": "A4",
                    "midi": 69,
                    "time": 268.42014899999987,
                    "velocity": 0.2204724409448819,
                    "duration": 0.10576049999997394
                },
                {
                    "name": "D5",
                    "midi": 74,
                    "time": 268.42014899999987,
                    "velocity": 0.25984251968503935,
                    "duration": 0.10576049999997394
                },
                {
                    "name": "A4",
                    "midi": 69,
                    "time": 268.8431909999998,
                    "velocity": 0.2204724409448819,
                    "duration": 0.10576049999997394
                },
                {
                    "name": "D5",
                    "midi": 74,
                    "time": 268.8431909999998,
                    "velocity": 0.25984251968503935,
                    "duration": 0.10576049999997394
                },
                {
                    "name": "E5",
                    "midi": 76,
                    "time": 269.05471199999977,
                    "velocity": 0.41732283464566927,
                    "duration": 0.10576049999997394
                },
                {
                    "name": "A4",
                    "midi": 69,
                    "time": 269.05471199999977,
                    "velocity": 0.41732283464566927,
                    "duration": 0.10576049999997394
                },
                {
                    "name": "G5",
                    "midi": 79,
                    "time": 269.05471199999977,
                    "velocity": 0.49606299212598426,
                    "duration": 0.10576049999997394
                },
                {
                    "name": "G5",
                    "midi": 79,
                    "time": 269.2662329999997,
                    "velocity": 0.3937007874015748,
                    "duration": 0.10576049999997394
                },
                {
                    "name": "A4",
                    "midi": 69,
                    "time": 269.2662329999997,
                    "velocity": 0.33070866141732286,
                    "duration": 0.10576049999997394
                },
                {
                    "name": "E5",
                    "midi": 76,
                    "time": 269.2662329999997,
                    "velocity": 0.33070866141732286,
                    "duration": 0.10576049999997394
                },
                {
                    "name": "G5",
                    "midi": 79,
                    "time": 269.68927499999967,
                    "velocity": 0.25984251968503935,
                    "duration": 0.10576049999997394
                },
                {
                    "name": "E5",
                    "midi": 76,
                    "time": 269.68927499999967,
                    "velocity": 0.2204724409448819,
                    "duration": 0.10576049999997394
                },
                {
                    "name": "A4",
                    "midi": 69,
                    "time": 269.68927499999967,
                    "velocity": 0.2204724409448819,
                    "duration": 0.10576049999997394
                },
                {
                    "name": "E5",
                    "midi": 76,
                    "time": 270.1123169999996,
                    "velocity": 0.2204724409448819,
                    "duration": 0.10576049999997394
                },
                {
                    "name": "G5",
                    "midi": 79,
                    "time": 270.1123169999996,
                    "velocity": 0.25984251968503935,
                    "duration": 0.10576049999997394
                },
                {
                    "name": "A4",
                    "midi": 69,
                    "time": 270.1123169999996,
                    "velocity": 0.2204724409448819,
                    "duration": 0.10576049999997394
                },
                {
                    "name": "D5",
                    "midi": 74,
                    "time": 270.32383799999957,
                    "velocity": 0.41732283464566927,
                    "duration": 0.10576049999997394
                },
                {
                    "name": "F5",
                    "midi": 77,
                    "time": 270.32383799999957,
                    "velocity": 0.49606299212598426,
                    "duration": 0.10576049999997394
                },
                {
                    "name": "A4",
                    "midi": 69,
                    "time": 270.32383799999957,
                    "velocity": 0.41732283464566927,
                    "duration": 0.10576049999997394
                },
                {
                    "name": "A4",
                    "midi": 69,
                    "time": 270.5353589999995,
                    "velocity": 0.33070866141732286,
                    "duration": 0.10576049999997394
                },
                {
                    "name": "F5",
                    "midi": 77,
                    "time": 270.5353589999995,
                    "velocity": 0.3937007874015748,
                    "duration": 0.10576049999997394
                },
                {
                    "name": "D5",
                    "midi": 74,
                    "time": 270.5353589999995,
                    "velocity": 0.33070866141732286,
                    "duration": 0.10576049999997394
                },
                {
                    "name": "F5",
                    "midi": 77,
                    "time": 270.95840099999947,
                    "velocity": 0.25984251968503935,
                    "duration": 0.10576049999997394
                },
                {
                    "name": "D5",
                    "midi": 74,
                    "time": 270.95840099999947,
                    "velocity": 0.2204724409448819,
                    "duration": 0.10576049999997394
                },
                {
                    "name": "A4",
                    "midi": 69,
                    "time": 270.95840099999947,
                    "velocity": 0.2204724409448819,
                    "duration": 0.10576049999997394
                },
                {
                    "name": "D5",
                    "midi": 74,
                    "time": 271.3814429999994,
                    "velocity": 0.2204724409448819,
                    "duration": 0.10576049999997394
                },
                {
                    "name": "F5",
                    "midi": 77,
                    "time": 271.3814429999994,
                    "velocity": 0.25984251968503935,
                    "duration": 0.10576049999997394
                },
                {
                    "name": "A4",
                    "midi": 69,
                    "time": 271.3814429999994,
                    "velocity": 0.2204724409448819,
                    "duration": 0.10576049999997394
                },
                {
                    "name": "G#5",
                    "midi": 80,
                    "time": 271.59296399999937,
                    "velocity": 0.5118110236220472,
                    "duration": 0.10576049999997394
                },
                {
                    "name": "D5",
                    "midi": 74,
                    "time": 271.59296399999937,
                    "velocity": 0.41732283464566927,
                    "duration": 0.10576049999997394
                },
                {
                    "name": "G#5",
                    "midi": 80,
                    "time": 271.8044849999993,
                    "velocity": 0.4251968503937008,
                    "duration": 0.10576049999997394
                },
                {
                    "name": "D5",
                    "midi": 74,
                    "time": 271.8044849999993,
                    "velocity": 0.33070866141732286,
                    "duration": 0.10576049999997394
                },
                {
                    "name": "G#5",
                    "midi": 80,
                    "time": 272.22752699999927,
                    "velocity": 0.25984251968503935,
                    "duration": 0.10576049999997394
                },
                {
                    "name": "D5",
                    "midi": 74,
                    "time": 272.22752699999927,
                    "velocity": 0.2204724409448819,
                    "duration": 0.10576049999997394
                },
                {
                    "name": "D5",
                    "midi": 74,
                    "time": 272.6505689999992,
                    "velocity": 0.2204724409448819,
                    "duration": 0.10576049999997394
                },
                {
                    "name": "G#5",
                    "midi": 80,
                    "time": 272.6505689999992,
                    "velocity": 0.25984251968503935,
                    "duration": 0.10576049999997394
                },
                {
                    "name": "A5",
                    "midi": 81,
                    "time": 272.86208999999917,
                    "velocity": 0.2992125984251969,
                    "duration": 0.21152100000000473
                },
                {
                    "name": "C#5",
                    "midi": 73,
                    "time": 272.86208999999917,
                    "velocity": 0.25196850393700787,
                    "duration": 0.21152100000000473
                },
                {
                    "name": "A5",
                    "midi": 81,
                    "time": 273.0736109999992,
                    "velocity": 0.29133858267716534,
                    "duration": 0.2203343749999931
                },
                {
                    "name": "F5",
                    "midi": 77,
                    "time": 273.0736109999992,
                    "velocity": 0.2440944881889764,
                    "duration": 0.2203343749999931
                },
                {
                    "name": "E5",
                    "midi": 76,
                    "time": 273.2851319999992,
                    "velocity": 0.2204724409448819,
                    "duration": 0.2203343749999931
                },
                {
                    "name": "G5",
                    "midi": 79,
                    "time": 273.2851319999992,
                    "velocity": 0.25984251968503935,
                    "duration": 0.2203343749999931
                },
                {
                    "name": "F5",
                    "midi": 77,
                    "time": 273.4966529999992,
                    "velocity": 0.2440944881889764,
                    "duration": 0.2203343749999931
                },
                {
                    "name": "D5",
                    "midi": 74,
                    "time": 273.4966529999992,
                    "velocity": 0.2047244094488189,
                    "duration": 0.2203343749999931
                },
                {
                    "name": "C#5",
                    "midi": 73,
                    "time": 273.7081739999992,
                    "velocity": 0.2204724409448819,
                    "duration": 0.2203343749999931
                },
                {
                    "name": "E5",
                    "midi": 76,
                    "time": 273.7081739999992,
                    "velocity": 0.25984251968503935,
                    "duration": 0.2203343749999931
                },
                {
                    "name": "F5",
                    "midi": 77,
                    "time": 273.9196949999992,
                    "velocity": 0.23622047244094488,
                    "duration": 0.2203343749999931
                },
                {
                    "name": "D5",
                    "midi": 74,
                    "time": 273.9196949999992,
                    "velocity": 0.1968503937007874,
                    "duration": 0.2203343749999931
                },
                {
                    "name": "C#5",
                    "midi": 73,
                    "time": 274.1312159999992,
                    "velocity": 0.25196850393700787,
                    "duration": 0.21152100000000473
                },
                {
                    "name": "E5",
                    "midi": 76,
                    "time": 274.1312159999992,
                    "velocity": 0.2992125984251969,
                    "duration": 0.21152100000000473
                },
                {
                    "name": "A4",
                    "midi": 69,
                    "time": 274.3427369999992,
                    "velocity": 0.29133858267716534,
                    "duration": 0.2203343749999931
                },
                {
                    "name": "F4",
                    "midi": 65,
                    "time": 274.3427369999992,
                    "velocity": 0.2440944881889764,
                    "duration": 0.2203343749999931
                },
                {
                    "name": "G4",
                    "midi": 67,
                    "time": 274.5542579999992,
                    "velocity": 0.25984251968503935,
                    "duration": 0.2203343749999931
                },
                {
                    "name": "E4",
                    "midi": 64,
                    "time": 274.5542579999992,
                    "velocity": 0.2204724409448819,
                    "duration": 0.2203343749999931
                },
                {
                    "name": "D4",
                    "midi": 62,
                    "time": 274.7657789999992,
                    "velocity": 0.2047244094488189,
                    "duration": 0.2203343749999931
                },
                {
                    "name": "F4",
                    "midi": 65,
                    "time": 274.7657789999992,
                    "velocity": 0.2440944881889764,
                    "duration": 0.2203343749999931
                },
                {
                    "name": "E4",
                    "midi": 64,
                    "time": 274.9772999999992,
                    "velocity": 0.25984251968503935,
                    "duration": 0.2203343749999931
                },
                {
                    "name": "C#4",
                    "midi": 61,
                    "time": 274.9772999999992,
                    "velocity": 0.2204724409448819,
                    "duration": 0.2203343749999931
                },
                {
                    "name": "F4",
                    "midi": 65,
                    "time": 275.1888209999992,
                    "velocity": 0.23622047244094488,
                    "duration": 0.2203343749999931
                },
                {
                    "name": "D4",
                    "midi": 62,
                    "time": 275.1888209999992,
                    "velocity": 0.1968503937007874,
                    "duration": 0.2203343749999931
                },
                {
                    "name": "C#4",
                    "midi": 61,
                    "time": 275.4003419999992,
                    "velocity": 0.2440944881889764,
                    "duration": 0.2203343749999931
                },
                {
                    "name": "E4",
                    "midi": 64,
                    "time": 275.4003419999992,
                    "velocity": 0.29133858267716534,
                    "duration": 0.2203343749999931
                },
                {
                    "name": "F4",
                    "midi": 65,
                    "time": 275.61186299999923,
                    "velocity": 0.25196850393700787,
                    "duration": 0.2203343749999931
                },
                {
                    "name": "D4",
                    "midi": 62,
                    "time": 275.61186299999923,
                    "velocity": 0.2125984251968504,
                    "duration": 0.2203343749999931
                },
                {
                    "name": "C#4",
                    "midi": 61,
                    "time": 275.82338399999924,
                    "velocity": 0.2440944881889764,
                    "duration": 0.2203343749999931
                },
                {
                    "name": "E4",
                    "midi": 64,
                    "time": 275.82338399999924,
                    "velocity": 0.29133858267716534,
                    "duration": 0.2203343749999931
                },
                {
                    "name": "F4",
                    "midi": 65,
                    "time": 276.03490499999924,
                    "velocity": 0.2677165354330709,
                    "duration": 0.2203343749999931
                },
                {
                    "name": "D4",
                    "midi": 62,
                    "time": 276.03490499999924,
                    "velocity": 0.2204724409448819,
                    "duration": 0.2203343749999931
                },
                {
                    "name": "C#4",
                    "midi": 61,
                    "time": 276.24642599999925,
                    "velocity": 0.2440944881889764,
                    "duration": 0.2203343749999931
                },
                {
                    "name": "E4",
                    "midi": 64,
                    "time": 276.24642599999925,
                    "velocity": 0.29133858267716534,
                    "duration": 0.2203343749999931
                },
                {
                    "name": "D4",
                    "midi": 62,
                    "time": 276.45794699999925,
                    "velocity": 0.2204724409448819,
                    "duration": 0.21152100000000473
                },
                {
                    "name": "F4",
                    "midi": 65,
                    "time": 276.45794699999925,
                    "velocity": 0.2677165354330709,
                    "duration": 0.21152100000000473
                },
                {
                    "name": "E4",
                    "midi": 64,
                    "time": 276.66946799999926,
                    "velocity": 0.29133858267716534,
                    "duration": 0.42304200000000947
                },
                {
                    "name": "C#4",
                    "midi": 61,
                    "time": 276.66946799999926,
                    "velocity": 0.2440944881889764,
                    "duration": 0.42304200000000947
                },
                {
                    "name": "C4",
                    "midi": 60,
                    "time": 277.9385939999993,
                    "velocity": 0.1889763779527559,
                    "duration": 0.2203343749999931
                },
                {
                    "name": "E4",
                    "midi": 64,
                    "time": 277.9385939999993,
                    "velocity": 0.2283464566929134,
                    "duration": 0.2203343749999931
                },
                {
                    "name": "F4",
                    "midi": 65,
                    "time": 278.1501149999993,
                    "velocity": 0.1968503937007874,
                    "duration": 0.2203343749999931
                },
                {
                    "name": "D4",
                    "midi": 62,
                    "time": 278.1501149999993,
                    "velocity": 0.16535433070866143,
                    "duration": 0.2203343749999931
                },
                {
                    "name": "E4",
                    "midi": 64,
                    "time": 278.3616359999993,
                    "velocity": 0.2283464566929134,
                    "duration": 0.2203343749999931
                },
                {
                    "name": "C4",
                    "midi": 60,
                    "time": 278.3616359999993,
                    "velocity": 0.1889763779527559,
                    "duration": 0.2203343749999931
                },
                {
                    "name": "D4",
                    "midi": 62,
                    "time": 278.5731569999993,
                    "velocity": 0.1732283464566929,
                    "duration": 0.2203343749999931
                },
                {
                    "name": "F4",
                    "midi": 65,
                    "time": 278.5731569999993,
                    "velocity": 0.2125984251968504,
                    "duration": 0.2203343749999931
                },
                {
                    "name": "E4",
                    "midi": 64,
                    "time": 278.7846779999993,
                    "velocity": 0.2283464566929134,
                    "duration": 0.2203343749999931
                },
                {
                    "name": "C4",
                    "midi": 60,
                    "time": 278.7846779999993,
                    "velocity": 0.1889763779527559,
                    "duration": 0.2203343749999931
                },
                {
                    "name": "F4",
                    "midi": 65,
                    "time": 278.9961989999993,
                    "velocity": 0.2125984251968504,
                    "duration": 0.2203343749999931
                },
                {
                    "name": "D4",
                    "midi": 62,
                    "time": 278.9961989999993,
                    "velocity": 0.1732283464566929,
                    "duration": 0.2203343749999931
                },
                {
                    "name": "C4",
                    "midi": 60,
                    "time": 279.2077199999993,
                    "velocity": 0.2440944881889764,
                    "duration": 0.42304200000000947
                },
                {
                    "name": "E4",
                    "midi": 64,
                    "time": 279.2077199999993,
                    "velocity": 0.2283464566929134,
                    "duration": 0.42304200000000947
                },
                {
                    "name": "A#3",
                    "midi": 58,
                    "time": 280.47684599999934,
                    "velocity": 0.3858267716535433,
                    "duration": 1.6921680000000379
                },
                {
                    "name": "C4",
                    "midi": 60,
                    "time": 280.47684599999934,
                    "velocity": 0.3858267716535433,
                    "duration": 1.6921680000000379
                },
                {
                    "name": "E4",
                    "midi": 64,
                    "time": 280.47684599999934,
                    "velocity": 0.4645669291338583,
                    "duration": 0.2203343749999931
                },
                {
                    "name": "F4",
                    "midi": 65,
                    "time": 280.68836699999935,
                    "velocity": 0.4015748031496063,
                    "duration": 0.2203343749999931
                },
                {
                    "name": "E4",
                    "midi": 64,
                    "time": 280.89988799999935,
                    "velocity": 0.4645669291338583,
                    "duration": 0.2203343749999931
                },
                {
                    "name": "F4",
                    "midi": 65,
                    "time": 281.11140899999936,
                    "velocity": 0.4330708661417323,
                    "duration": 0.2203343749999931
                },
                {
                    "name": "E4",
                    "midi": 64,
                    "time": 281.32292999999936,
                    "velocity": 0.4645669291338583,
                    "duration": 0.2203343749999931
                },
                {
                    "name": "F4",
                    "midi": 65,
                    "time": 281.53445099999936,
                    "velocity": 0.4330708661417323,
                    "duration": 0.2203343749999931
                },
                {
                    "name": "E4",
                    "midi": 64,
                    "time": 281.74597199999937,
                    "velocity": 0.4645669291338583,
                    "duration": 0.42304200000000947
                },
                {
                    "name": "E5",
                    "midi": 76,
                    "time": 283.0150979999994,
                    "velocity": 0.2440944881889764,
                    "duration": 1.6921680000000379
                },
                {
                    "name": "A#5",
                    "midi": 82,
                    "time": 283.0150979999994,
                    "velocity": 0.29133858267716534,
                    "duration": 0.2203343749999931
                },
                {
                    "name": "A5",
                    "midi": 81,
                    "time": 283.2266189999994,
                    "velocity": 0.25196850393700787,
                    "duration": 0.2203343749999931
                },
                {
                    "name": "A#5",
                    "midi": 82,
                    "time": 283.4381399999994,
                    "velocity": 0.29133858267716534,
                    "duration": 0.2203343749999931
                },
                {
                    "name": "A5",
                    "midi": 81,
                    "time": 283.6496609999994,
                    "velocity": 0.2677165354330709,
                    "duration": 0.2203343749999931
                },
                {
                    "name": "A#5",
                    "midi": 82,
                    "time": 283.8611819999994,
                    "velocity": 0.29133858267716534,
                    "duration": 0.2203343749999931
                },
                {
                    "name": "A5",
                    "midi": 81,
                    "time": 284.0727029999994,
                    "velocity": 0.2677165354330709,
                    "duration": 0.21152100000000473
                },
                {
                    "name": "A#5",
                    "midi": 82,
                    "time": 284.2842239999994,
                    "velocity": 0.29133858267716534,
                    "duration": 0.42304200000000947
                },
                {
                    "name": "F4",
                    "midi": 65,
                    "time": 285.55334999999945,
                    "velocity": 0.3937007874015748,
                    "duration": 0.8460840000000189
                },
                {
                    "name": "A4",
                    "midi": 69,
                    "time": 286.3994339999995,
                    "velocity": 0.3700787401574803,
                    "duration": 0.42304200000000947
                },
                {
                    "name": "C5",
                    "midi": 72,
                    "time": 286.8224759999995,
                    "velocity": 0.4094488188976378,
                    "duration": 0.8460840000000189
                },
                {
                    "name": "A4",
                    "midi": 69,
                    "time": 287.6685599999995,
                    "velocity": 0.36220472440944884,
                    "duration": 0.42304200000000947
                },
                {
                    "name": "A#4",
                    "midi": 70,
                    "time": 288.0916019999995,
                    "velocity": 0.3937007874015748,
                    "duration": 0.8460840000000189
                },
                {
                    "name": "G5",
                    "midi": 79,
                    "time": 288.93768599999953,
                    "velocity": 0.3700787401574803,
                    "duration": 0.42304200000000947
                },
                {
                    "name": "F5",
                    "midi": 77,
                    "time": 289.36072799999954,
                    "velocity": 0.3700787401574803,
                    "duration": 0.21152100000000473
                },
                {
                    "name": "E5",
                    "midi": 76,
                    "time": 289.57224899999954,
                    "velocity": 0.3464566929133858,
                    "duration": 0.20887698749999117
                },
                {
                    "name": "E5",
                    "midi": 76,
                    "time": 289.78376999999955,
                    "velocity": 0.3464566929133858,
                    "duration": 0.42304200000000947
                },
                {
                    "name": "F5",
                    "midi": 77,
                    "time": 290.62985399999957,
                    "velocity": 0.3937007874015748,
                    "duration": 0.42304200000000947
                },
                {
                    "name": "A4",
                    "midi": 69,
                    "time": 291.0528959999996,
                    "velocity": 0.36220472440944884,
                    "duration": 0.42304200000000947
                },
                {
                    "name": "D5",
                    "midi": 74,
                    "time": 291.4759379999996,
                    "velocity": 0.36220472440944884,
                    "duration": 0.42304200000000947
                },
                {
                    "name": "G4",
                    "midi": 67,
                    "time": 291.8989799999996,
                    "velocity": 0.3937007874015748,
                    "duration": 0.42304200000000947
                },
                {
                    "name": "C5",
                    "midi": 72,
                    "time": 292.3220219999996,
                    "velocity": 0.4251968503937008,
                    "duration": 0.6345630000000142
                },
                {
                    "name": "A4",
                    "midi": 69,
                    "time": 292.9565849999996,
                    "velocity": 0.3543307086614173,
                    "duration": 0.21152100000000473
                },
                {
                    "name": "F4",
                    "midi": 65,
                    "time": 293.1681059999996,
                    "velocity": 0.3937007874015748,
                    "duration": 1.6921680000000379
                },
                {
                    "name": "G4",
                    "midi": 67,
                    "time": 294.43723199999965,
                    "velocity": 0.3937007874015748,
                    "duration": 1.2691259999999716
                },
                {
                    "name": "E4",
                    "midi": 64,
                    "time": 294.86027399999966,
                    "velocity": 0.33070866141732286,
                    "duration": 0.05288024999998697
                },
                {
                    "name": "F4",
                    "midi": 65,
                    "time": 294.91315424999965,
                    "velocity": 0.29133858267716534,
                    "duration": 0.05288024999998697
                },
                {
                    "name": "E4",
                    "midi": 64,
                    "time": 294.96603449999964,
                    "velocity": 0.3779527559055118,
                    "duration": 0.10576049999997394
                },
                {
                    "name": "D4",
                    "midi": 62,
                    "time": 295.0717949999996,
                    "velocity": 0.3779527559055118,
                    "duration": 0.21152100000000473
                },
                {
                    "name": "E4",
                    "midi": 64,
                    "time": 295.2833159999996,
                    "velocity": 0.3937007874015748,
                    "duration": 0.42304200000000947
                },
                {
                    "name": "A4",
                    "midi": 69,
                    "time": 295.7063579999996,
                    "velocity": 0.3779527559055118,
                    "duration": 0.42304200000000947
                },
                {
                    "name": "F4",
                    "midi": 65,
                    "time": 295.7063579999996,
                    "velocity": 0.3779527559055118,
                    "duration": 1.6921680000000379
                },
                {
                    "name": "A#4",
                    "midi": 70,
                    "time": 296.12939999999963,
                    "velocity": 0.4094488188976378,
                    "duration": 0.42304200000000947
                },
                {
                    "name": "D5",
                    "midi": 74,
                    "time": 296.55244199999964,
                    "velocity": 0.4330708661417323,
                    "duration": 0.4195166499999914
                },
                {
                    "name": "D5",
                    "midi": 74,
                    "time": 296.97548399999965,
                    "velocity": 0.4566929133858268,
                    "duration": 0.21152100000000473
                },
                {
                    "name": "C5",
                    "midi": 72,
                    "time": 297.18700499999966,
                    "velocity": 0.44881889763779526,
                    "duration": 0.21152100000000473
                },
                {
                    "name": "A#4",
                    "midi": 70,
                    "time": 297.39852599999966,
                    "velocity": 0.4409448818897638,
                    "duration": 0.21152100000000473
                },
                {
                    "name": "A4",
                    "midi": 69,
                    "time": 297.61004699999967,
                    "velocity": 0.4251968503937008,
                    "duration": 0.21152100000000473
                },
                {
                    "name": "G4",
                    "midi": 67,
                    "time": 297.8215679999997,
                    "velocity": 0.41732283464566927,
                    "duration": 0.21152100000000473
                },
                {
                    "name": "F4",
                    "midi": 65,
                    "time": 298.0330889999997,
                    "velocity": 0.4015748031496063,
                    "duration": 0.21152100000000473
                },
                {
                    "name": "G4",
                    "midi": 67,
                    "time": 298.2446099999997,
                    "velocity": 0.4251968503937008,
                    "duration": 0.42304200000000947
                },
                {
                    "name": "A#4",
                    "midi": 70,
                    "time": 298.6676519999997,
                    "velocity": 0.3937007874015748,
                    "duration": 0.10576049999997394
                },
                {
                    "name": "A#3",
                    "midi": 58,
                    "time": 299.09069399999964,
                    "velocity": 0.4251968503937008,
                    "duration": 0.42304200000000947
                },
                {
                    "name": "E4",
                    "midi": 64,
                    "time": 299.09069399999964,
                    "velocity": 0.4251968503937008,
                    "duration": 0.42304200000000947
                },
                {
                    "name": "F4",
                    "midi": 65,
                    "time": 299.51373599999965,
                    "velocity": 0.4409448818897638,
                    "duration": 0.42304200000000947
                },
                {
                    "name": "A3",
                    "midi": 57,
                    "time": 299.51373599999965,
                    "velocity": 0.4409448818897638,
                    "duration": 0.42304200000000947
                },
                {
                    "name": "C6",
                    "midi": 84,
                    "time": 300.3598199999997,
                    "velocity": 0.3937007874015748,
                    "duration": 0.3172814999999787
                },
                {
                    "name": "A#5",
                    "midi": 82,
                    "time": 300.67710149999965,
                    "velocity": 0.3464566929133858,
                    "duration": 0.10576049999997394
                },
                {
                    "name": "A5",
                    "midi": 81,
                    "time": 300.7828619999996,
                    "velocity": 0.3937007874015748,
                    "duration": 0.10576049999997394
                },
                {
                    "name": "A5",
                    "midi": 81,
                    "time": 301.2059039999996,
                    "velocity": 0.3937007874015748,
                    "duration": 0.10576049999997394
                },
                {
                    "name": "A5",
                    "midi": 81,
                    "time": 301.62894599999953,
                    "velocity": 0.3700787401574803,
                    "duration": 0.3172814999999787
                },
                {
                    "name": "G5",
                    "midi": 79,
                    "time": 301.9462274999995,
                    "velocity": 0.33070866141732286,
                    "duration": 0.10576049999997394
                },
                {
                    "name": "F5",
                    "midi": 77,
                    "time": 302.0519879999995,
                    "velocity": 0.3779527559055118,
                    "duration": 0.10576049999997394
                },
                {
                    "name": "F5",
                    "midi": 77,
                    "time": 302.47502999999944,
                    "velocity": 0.3464566929133858,
                    "duration": 0.10576049999997394
                },
                {
                    "name": "F5",
                    "midi": 77,
                    "time": 302.8980719999994,
                    "velocity": 0.3464566929133858,
                    "duration": 0.42304200000000947
                },
                {
                    "name": "E5",
                    "midi": 76,
                    "time": 303.3211139999994,
                    "velocity": 0.36220472440944884,
                    "duration": 0.10576049999997394
                },
                {
                    "name": "G5",
                    "midi": 79,
                    "time": 303.3211139999994,
                    "velocity": 0.36220472440944884,
                    "duration": 0.10576049999997394
                },
                {
                    "name": "E5",
                    "midi": 76,
                    "time": 303.74415599999935,
                    "velocity": 0.3464566929133858,
                    "duration": 0.10576049999997394
                },
                {
                    "name": "G5",
                    "midi": 79,
                    "time": 303.74415599999935,
                    "velocity": 0.3464566929133858,
                    "duration": 0.10576049999997394
                },
                {
                    "name": "G5",
                    "midi": 79,
                    "time": 304.1671979999993,
                    "velocity": 0.3464566929133858,
                    "duration": 0.10576049999997394
                },
                {
                    "name": "E5",
                    "midi": 76,
                    "time": 304.1671979999993,
                    "velocity": 0.3464566929133858,
                    "duration": 0.10576049999997394
                },
                {
                    "name": "E5",
                    "midi": 76,
                    "time": 304.59023999999926,
                    "velocity": 0.3937007874015748,
                    "duration": 0.42304200000000947
                },
                {
                    "name": "G5",
                    "midi": 79,
                    "time": 304.59023999999926,
                    "velocity": 0.3937007874015748,
                    "duration": 0.42304200000000947
                },
                {
                    "name": "A5",
                    "midi": 81,
                    "time": 305.01328199999926,
                    "velocity": 0.3464566929133858,
                    "duration": 0.42304200000000947
                },
                {
                    "name": "F5",
                    "midi": 77,
                    "time": 305.01328199999926,
                    "velocity": 0.3464566929133858,
                    "duration": 0.42304200000000947
                },
                {
                    "name": "C6",
                    "midi": 84,
                    "time": 305.4363239999993,
                    "velocity": 0.3937007874015748,
                    "duration": 0.10576049999997394
                },
                {
                    "name": "D6",
                    "midi": 86,
                    "time": 305.54208449999925,
                    "velocity": 0.3464566929133858,
                    "duration": 0.10576049999997394
                },
                {
                    "name": "C6",
                    "midi": 84,
                    "time": 305.6478449999992,
                    "velocity": 0.3464566929133858,
                    "duration": 0.10576049999997394
                },
                {
                    "name": "A#5",
                    "midi": 82,
                    "time": 305.7536054999992,
                    "velocity": 0.3464566929133858,
                    "duration": 0.10576049999997394
                },
                {
                    "name": "A5",
                    "midi": 81,
                    "time": 305.85936599999917,
                    "velocity": 0.3937007874015748,
                    "duration": 0.10576049999997394
                },
                {
                    "name": "A5",
                    "midi": 81,
                    "time": 306.2824079999991,
                    "velocity": 0.3937007874015748,
                    "duration": 0.10576049999997394
                },
                {
                    "name": "A5",
                    "midi": 81,
                    "time": 306.7054499999991,
                    "velocity": 0.3700787401574803,
                    "duration": 0.10576049999997394
                },
                {
                    "name": "A#5",
                    "midi": 82,
                    "time": 306.81121049999905,
                    "velocity": 0.33070866141732286,
                    "duration": 0.10576049999997394
                },
                {
                    "name": "A5",
                    "midi": 81,
                    "time": 306.916970999999,
                    "velocity": 0.33070866141732286,
                    "duration": 0.10576049999997394
                },
                {
                    "name": "G5",
                    "midi": 79,
                    "time": 307.022731499999,
                    "velocity": 0.33070866141732286,
                    "duration": 0.10576049999997394
                },
                {
                    "name": "F5",
                    "midi": 77,
                    "time": 307.12849199999897,
                    "velocity": 0.3779527559055118,
                    "duration": 0.10576049999997394
                },
                {
                    "name": "F5",
                    "midi": 77,
                    "time": 307.5515339999989,
                    "velocity": 0.3464566929133858,
                    "duration": 0.10576049999997394
                },
                {
                    "name": "F5",
                    "midi": 77,
                    "time": 307.9745759999989,
                    "velocity": 0.3464566929133858,
                    "duration": 0.10576049999997394
                },
                {
                    "name": "G5",
                    "midi": 79,
                    "time": 308.39761799999883,
                    "velocity": 0.3858267716535433,
                    "duration": 0.42304200000000947
                },
                {
                    "name": "A#5",
                    "midi": 82,
                    "time": 308.82065999999884,
                    "velocity": 0.3464566929133858,
                    "duration": 0.10576049999997394
                },
                {
                    "name": "E5",
                    "midi": 76,
                    "time": 309.2437019999988,
                    "velocity": 0.3464566929133858,
                    "duration": 0.42304200000000947
                },
                {
                    "name": "A#4",
                    "midi": 70,
                    "time": 309.2437019999988,
                    "velocity": 0.2755905511811024,
                    "duration": 0.42304200000000947
                },
                {
                    "name": "A4",
                    "midi": 69,
                    "time": 309.6667439999988,
                    "velocity": 0.2992125984251969,
                    "duration": 0.42304200000000947
                },
                {
                    "name": "F5",
                    "midi": 77,
                    "time": 309.6667439999988,
                    "velocity": 0.3779527559055118,
                    "duration": 0.42304200000000947
                },
                {
                    "name": "C6",
                    "midi": 84,
                    "time": 310.5128279999988,
                    "velocity": 0.3464566929133858,
                    "duration": 0.42304200000000947
                },
                {
                    "name": "F5",
                    "midi": 77,
                    "time": 310.93586999999883,
                    "velocity": 0.3779527559055118,
                    "duration": 0.42304200000000947
                },
                {
                    "name": "C5",
                    "midi": 72,
                    "time": 311.78195399999885,
                    "velocity": 0.30708661417322836,
                    "duration": 0.42304200000000947
                },
                {
                    "name": "F4",
                    "midi": 65,
                    "time": 312.20499599999886,
                    "velocity": 0.33858267716535434,
                    "duration": 0.42304200000000947
                },
                {
                    "name": "C#4",
                    "midi": 61,
                    "time": 313.0510799999989,
                    "velocity": 0.6299212598425197,
                    "duration": 0.42304200000000947
                },
                {
                    "name": "D4",
                    "midi": 62,
                    "time": 313.4741219999989,
                    "velocity": 0.6692913385826772,
                    "duration": 0.6345630000000142
                },
                {
                    "name": "F4",
                    "midi": 65,
                    "time": 314.1086849999989,
                    "velocity": 0.5511811023622047,
                    "duration": 0.10576049999997394
                },
                {
                    "name": "A4",
                    "midi": 69,
                    "time": 314.2144454999989,
                    "velocity": 0.5669291338582677,
                    "duration": 0.10576049999997394
                },
                {
                    "name": "D5",
                    "midi": 74,
                    "time": 314.32020599999885,
                    "velocity": 0.6614173228346457,
                    "duration": 0.10576049999997394
                },
                {
                    "name": "A4",
                    "midi": 69,
                    "time": 314.5317269999988,
                    "velocity": 0.5590551181102362,
                    "duration": 0.10576049999997394
                },
                {
                    "name": "D5",
                    "midi": 74,
                    "time": 314.63748749999877,
                    "velocity": 0.5748031496062992,
                    "duration": 0.10576049999997394
                },
                {
                    "name": "F5",
                    "midi": 77,
                    "time": 314.74324799999874,
                    "velocity": 0.6771653543307087,
                    "duration": 0.10576049999997394
                },
                {
                    "name": "D5",
                    "midi": 74,
                    "time": 314.9547689999987,
                    "velocity": 0.5590551181102362,
                    "duration": 0.10576049999997394
                },
                {
                    "name": "F5",
                    "midi": 77,
                    "time": 315.06052949999867,
                    "velocity": 0.5748031496062992,
                    "duration": 0.10576049999997394
                },
                {
                    "name": "A5",
                    "midi": 81,
                    "time": 315.16628999999864,
                    "velocity": 0.6850393700787402,
                    "duration": 0.10576049999997394
                },
                {
                    "name": "A5",
                    "midi": 81,
                    "time": 315.3778109999986,
                    "velocity": 0.6299212598425197,
                    "duration": 0.21152100000000473
                },
                {
                    "name": "F5",
                    "midi": 77,
                    "time": 315.5893319999986,
                    "velocity": 0.6299212598425197,
                    "duration": 0.21152100000000473
                },
                {
                    "name": "D5",
                    "midi": 74,
                    "time": 315.8008529999986,
                    "velocity": 0.6299212598425197,
                    "duration": 0.10576049999997394
                },
                {
                    "name": "C#5",
                    "midi": 73,
                    "time": 315.90661349999857,
                    "velocity": 0.5511811023622047,
                    "duration": 0.03525350000001026
                },
                {
                    "name": "E5",
                    "midi": 76,
                    "time": 315.9418669999986,
                    "velocity": 0.5511811023622047,
                    "duration": 0.03525350000001026
                },
                {
                    "name": "G5",
                    "midi": 79,
                    "time": 315.9771204999986,
                    "velocity": 0.5511811023622047,
                    "duration": 0.03525350000001026
                },
                {
                    "name": "A#5",
                    "midi": 82,
                    "time": 316.0123739999986,
                    "velocity": 0.7086614173228346,
                    "duration": 0.6345630000000142
                },
                {
                    "name": "A5",
                    "midi": 81,
                    "time": 316.6469369999986,
                    "velocity": 0.5590551181102362,
                    "duration": 0.11633654999997134
                },
                {
                    "name": "G5",
                    "midi": 79,
                    "time": 316.7526974999986,
                    "velocity": 0.5354330708661418,
                    "duration": 0.11633654999997134
                },
                {
                    "name": "F5",
                    "midi": 77,
                    "time": 316.85845799999856,
                    "velocity": 0.5354330708661418,
                    "duration": 0.11633654999997134
                },
                {
                    "name": "E5",
                    "midi": 76,
                    "time": 316.96421849999854,
                    "velocity": 0.5354330708661418,
                    "duration": 0.11633654999997134
                },
                {
                    "name": "D5",
                    "midi": 74,
                    "time": 317.0699789999985,
                    "velocity": 0.5433070866141733,
                    "duration": 0.11633654999997134
                },
                {
                    "name": "C#5",
                    "midi": 73,
                    "time": 317.1757394999985,
                    "velocity": 0.5669291338582677,
                    "duration": 0.11633654999997134
                },
                {
                    "name": "A#5",
                    "midi": 82,
                    "time": 317.28149999999846,
                    "velocity": 0.7086614173228346,
                    "duration": 0.6345630000000142
                },
                {
                    "name": "A5",
                    "midi": 81,
                    "time": 317.9160629999985,
                    "velocity": 0.5590551181102362,
                    "duration": 0.11633654999997134
                },
                {
                    "name": "G5",
                    "midi": 79,
                    "time": 318.02182349999845,
                    "velocity": 0.5354330708661418,
                    "duration": 0.11633654999997134
                },
                {
                    "name": "F5",
                    "midi": 77,
                    "time": 318.1275839999984,
                    "velocity": 0.5354330708661418,
                    "duration": 0.11633654999997134
                },
                {
                    "name": "E5",
                    "midi": 76,
                    "time": 318.2333444999984,
                    "velocity": 0.5354330708661418,
                    "duration": 0.11633654999997134
                },
                {
                    "name": "D5",
                    "midi": 74,
                    "time": 318.33910499999837,
                    "velocity": 0.5433070866141733,
                    "duration": 0.11633654999997134
                },
                {
                    "name": "C#5",
                    "midi": 73,
                    "time": 318.44486549999834,
                    "velocity": 0.5669291338582677,
                    "duration": 0.11633654999997134
                },
                {
                    "name": "D5",
                    "midi": 74,
                    "time": 318.5506259999983,
                    "velocity": 0.6929133858267716,
                    "duration": 0.6345630000000142
                },
                {
                    "name": "F4",
                    "midi": 65,
                    "time": 319.18518899999833,
                    "velocity": 0.5511811023622047,
                    "duration": 0.10576049999997394
                },
                {
                    "name": "A4",
                    "midi": 69,
                    "time": 319.2909494999983,
                    "velocity": 0.5669291338582677,
                    "duration": 0.10576049999997394
                },
                {
                    "name": "D5",
                    "midi": 74,
                    "time": 319.3967099999983,
                    "velocity": 0.6614173228346457,
                    "duration": 0.10576049999997394
                },
                {
                    "name": "A4",
                    "midi": 69,
                    "time": 319.6082309999982,
                    "velocity": 0.5590551181102362,
                    "duration": 0.10576049999997394
                },
                {
                    "name": "D5",
                    "midi": 74,
                    "time": 319.7139914999982,
                    "velocity": 0.5748031496062992,
                    "duration": 0.10576049999997394
                },
                {
                    "name": "F5",
                    "midi": 77,
                    "time": 319.8197519999982,
                    "velocity": 0.6771653543307087,
                    "duration": 0.10576049999997394
                },
                {
                    "name": "D5",
                    "midi": 74,
                    "time": 320.0312729999981,
                    "velocity": 0.5590551181102362,
                    "duration": 0.10576049999997394
                },
                {
                    "name": "F5",
                    "midi": 77,
                    "time": 320.1370334999981,
                    "velocity": 0.5748031496062992,
                    "duration": 0.10576049999997394
                },
                {
                    "name": "A5",
                    "midi": 81,
                    "time": 320.24279399999807,
                    "velocity": 0.6850393700787402,
                    "duration": 0.10576049999997394
                },
                {
                    "name": "A5",
                    "midi": 81,
                    "time": 320.454314999998,
                    "velocity": 0.6299212598425197,
                    "duration": 0.21152100000000473
                },
                {
                    "name": "F5",
                    "midi": 77,
                    "time": 320.665835999998,
                    "velocity": 0.6299212598425197,
                    "duration": 0.21152100000000473
                },
                {
                    "name": "D5",
                    "midi": 74,
                    "time": 320.877356999998,
                    "velocity": 0.6299212598425197,
                    "duration": 0.21152100000000473
                },
                {
                    "name": "D5",
                    "midi": 74,
                    "time": 321.08887799999803,
                    "velocity": 0.5905511811023622,
                    "duration": 0.6345630000000142
                },
                {
                    "name": "G#5",
                    "midi": 80,
                    "time": 321.08887799999803,
                    "velocity": 0.7086614173228346,
                    "duration": 0.6345630000000142
                },
                {
                    "name": "F5",
                    "midi": 77,
                    "time": 321.08887799999803,
                    "velocity": 0.5905511811023622,
                    "duration": 0.6345630000000142
                },
                {
                    "name": "B4",
                    "midi": 71,
                    "time": 321.08887799999803,
                    "velocity": 0.5905511811023622,
                    "duration": 0.6345630000000142
                },
                {
                    "name": "G5",
                    "midi": 79,
                    "time": 321.72344099999805,
                    "velocity": 0.5590551181102362,
                    "duration": 0.11633654999997134
                },
                {
                    "name": "F5",
                    "midi": 77,
                    "time": 321.829201499998,
                    "velocity": 0.5354330708661418,
                    "duration": 0.11633654999997134
                },
                {
                    "name": "D#5",
                    "midi": 75,
                    "time": 321.934961999998,
                    "velocity": 0.5354330708661418,
                    "duration": 0.11633654999997134
                },
                {
                    "name": "D5",
                    "midi": 74,
                    "time": 322.04072249999797,
                    "velocity": 0.5354330708661418,
                    "duration": 0.11633654999997134
                },
                {
                    "name": "C5",
                    "midi": 72,
                    "time": 322.14648299999794,
                    "velocity": 0.5433070866141733,
                    "duration": 0.11633654999997134
                },
                {
                    "name": "B4",
                    "midi": 71,
                    "time": 322.2522434999979,
                    "velocity": 0.5669291338582677,
                    "duration": 0.11633654999997134
                },
                {
                    "name": "G#5",
                    "midi": 80,
                    "time": 322.3580039999979,
                    "velocity": 0.7086614173228346,
                    "duration": 0.6345630000000142
                },
                {
                    "name": "G5",
                    "midi": 79,
                    "time": 322.9925669999979,
                    "velocity": 0.5590551181102362,
                    "duration": 0.11633654999997134
                },
                {
                    "name": "F5",
                    "midi": 77,
                    "time": 323.0983274999979,
                    "velocity": 0.5354330708661418,
                    "duration": 0.11633654999997134
                },
                {
                    "name": "D#5",
                    "midi": 75,
                    "time": 323.20408799999785,
                    "velocity": 0.5354330708661418,
                    "duration": 0.11633654999997134
                },
                {
                    "name": "D5",
                    "midi": 74,
                    "time": 323.3098484999978,
                    "velocity": 0.5354330708661418,
                    "duration": 0.11633654999997134
                },
                {
                    "name": "C5",
                    "midi": 72,
                    "time": 323.4156089999978,
                    "velocity": 0.5433070866141733,
                    "duration": 0.11633654999997134
                },
                {
                    "name": "B4",
                    "midi": 71,
                    "time": 323.5213694999978,
                    "velocity": 0.5669291338582677,
                    "duration": 0.11633654999997134
                },
                {
                    "name": "C5",
                    "midi": 72,
                    "time": 323.62712999999775,
                    "velocity": 0.6929133858267716,
                    "duration": 0.6345630000000142
                },
                {
                    "name": "D#4",
                    "midi": 63,
                    "time": 324.26169299999776,
                    "velocity": 0.5511811023622047,
                    "duration": 0.10576049999997394
                },
                {
                    "name": "G4",
                    "midi": 67,
                    "time": 324.36745349999774,
                    "velocity": 0.5669291338582677,
                    "duration": 0.10576049999997394
                },
                {
                    "name": "C5",
                    "midi": 72,
                    "time": 324.4732139999977,
                    "velocity": 0.6614173228346457,
                    "duration": 0.10576049999997394
                },
                {
                    "name": "G4",
                    "midi": 67,
                    "time": 324.68473499999766,
                    "velocity": 0.5590551181102362,
                    "duration": 0.10576049999997394
                },
                {
                    "name": "C5",
                    "midi": 72,
                    "time": 324.79049549999763,
                    "velocity": 0.5748031496062992,
                    "duration": 0.10576049999997394
                },
                {
                    "name": "D#5",
                    "midi": 75,
                    "time": 324.8962559999976,
                    "velocity": 0.6771653543307087,
                    "duration": 0.10576049999997394
                },
                {
                    "name": "C5",
                    "midi": 72,
                    "time": 325.10777699999755,
                    "velocity": 0.5590551181102362,
                    "duration": 0.10576049999997394
                },
                {
                    "name": "D#5",
                    "midi": 75,
                    "time": 325.2135374999975,
                    "velocity": 0.5748031496062992,
                    "duration": 0.10576049999997394
                },
                {
                    "name": "G5",
                    "midi": 79,
                    "time": 325.3192979999975,
                    "velocity": 0.6850393700787402,
                    "duration": 0.10576049999997394
                },
                {
                    "name": "G5",
                    "midi": 79,
                    "time": 325.53081899999745,
                    "velocity": 0.6299212598425197,
                    "duration": 0.21152100000000473
                },
                {
                    "name": "D#5",
                    "midi": 75,
                    "time": 325.74233999999745,
                    "velocity": 0.6299212598425197,
                    "duration": 0.21152100000000473
                },
                {
                    "name": "C5",
                    "midi": 72,
                    "time": 325.95386099999746,
                    "velocity": 0.6299212598425197,
                    "duration": 0.21152100000000473
                },
                {
                    "name": "C5",
                    "midi": 72,
                    "time": 326.16538199999746,
                    "velocity": 0.5905511811023622,
                    "duration": 0.6345630000000142
                },
                {
                    "name": "F#5",
                    "midi": 78,
                    "time": 326.16538199999746,
                    "velocity": 0.7086614173228346,
                    "duration": 0.6345630000000142
                },
                {
                    "name": "D#5",
                    "midi": 75,
                    "time": 326.16538199999746,
                    "velocity": 0.5905511811023622,
                    "duration": 0.6345630000000142
                },
                {
                    "name": "A4",
                    "midi": 69,
                    "time": 326.16538199999746,
                    "velocity": 0.5905511811023622,
                    "duration": 0.6345630000000142
                },
                {
                    "name": "F5",
                    "midi": 77,
                    "time": 326.7999449999975,
                    "velocity": 0.5590551181102362,
                    "duration": 0.11633654999997134
                },
                {
                    "name": "D#5",
                    "midi": 75,
                    "time": 326.90570549999745,
                    "velocity": 0.5354330708661418,
                    "duration": 0.11633654999997134
                },
                {
                    "name": "C#5",
                    "midi": 73,
                    "time": 327.0114659999974,
                    "velocity": 0.5354330708661418,
                    "duration": 0.11633654999997134
                },
                {
                    "name": "C5",
                    "midi": 72,
                    "time": 327.1172264999974,
                    "velocity": 0.5354330708661418,
                    "duration": 0.11633654999997134
                },
                {
                    "name": "A#4",
                    "midi": 70,
                    "time": 327.2229869999974,
                    "velocity": 0.5433070866141733,
                    "duration": 0.11633654999997134
                },
                {
                    "name": "A4",
                    "midi": 69,
                    "time": 327.32874749999735,
                    "velocity": 0.5669291338582677,
                    "duration": 0.11633654999997134
                },
                {
                    "name": "F#5",
                    "midi": 78,
                    "time": 327.4345079999973,
                    "velocity": 0.7086614173228346,
                    "duration": 0.6345630000000142
                },
                {
                    "name": "F5",
                    "midi": 77,
                    "time": 328.06907099999734,
                    "velocity": 0.5590551181102362,
                    "duration": 0.11633654999997134
                },
                {
                    "name": "D#5",
                    "midi": 75,
                    "time": 328.1748314999973,
                    "velocity": 0.5354330708661418,
                    "duration": 0.11633654999997134
                },
                {
                    "name": "C#5",
                    "midi": 73,
                    "time": 328.2805919999973,
                    "velocity": 0.5354330708661418,
                    "duration": 0.11633654999997134
                },
                {
                    "name": "C5",
                    "midi": 72,
                    "time": 328.38635249999726,
                    "velocity": 0.5354330708661418,
                    "duration": 0.11633654999997134
                },
                {
                    "name": "A#4",
                    "midi": 70,
                    "time": 328.49211299999723,
                    "velocity": 0.5433070866141733,
                    "duration": 0.11633654999997134
                },
                {
                    "name": "A4",
                    "midi": 69,
                    "time": 328.5978734999972,
                    "velocity": 0.5669291338582677,
                    "duration": 0.11633654999997134
                },
                {
                    "name": "A#4",
                    "midi": 70,
                    "time": 328.7036339999972,
                    "velocity": 0.6929133858267716,
                    "duration": 0.5288024999999834
                },
                {
                    "name": "F4",
                    "midi": 65,
                    "time": 329.23243649999716,
                    "velocity": 0.5433070866141733,
                    "duration": 0.10576049999997394
                },
                {
                    "name": "A#4",
                    "midi": 70,
                    "time": 329.33819699999714,
                    "velocity": 0.5826771653543307,
                    "duration": 0.10576049999997394
                },
                {
                    "name": "F4",
                    "midi": 65,
                    "time": 329.4439574999971,
                    "velocity": 0.5511811023622047,
                    "duration": 0.10576049999997394
                },
                {
                    "name": "C#5",
                    "midi": 73,
                    "time": 329.5497179999971,
                    "velocity": 0.5826771653543307,
                    "duration": 0.10576049999997394
                },
                {
                    "name": "A#4",
                    "midi": 70,
                    "time": 329.65547849999706,
                    "velocity": 0.5590551181102362,
                    "duration": 0.10576049999997394
                },
                {
                    "name": "C#5",
                    "midi": 73,
                    "time": 329.76123899999703,
                    "velocity": 0.5905511811023622,
                    "duration": 0.10576049999997394
                },
                {
                    "name": "A#4",
                    "midi": 70,
                    "time": 329.866999499997,
                    "velocity": 0.5511811023622047,
                    "duration": 0.10576049999997394
                },
                {
                    "name": "F5",
                    "midi": 77,
                    "time": 329.972759999997,
                    "velocity": 0.5826771653543307,
                    "duration": 0.10576049999997394
                },
                {
                    "name": "C#5",
                    "midi": 73,
                    "time": 330.07852049999696,
                    "velocity": 0.5590551181102362,
                    "duration": 0.10576049999997394
                },
                {
                    "name": "F5",
                    "midi": 77,
                    "time": 330.18428099999693,
                    "velocity": 0.5826771653543307,
                    "duration": 0.10576049999997394
                },
                {
                    "name": "C#5",
                    "midi": 73,
                    "time": 330.2900414999969,
                    "velocity": 0.5590551181102362,
                    "duration": 0.10576049999997394
                },
                {
                    "name": "A#5",
                    "midi": 82,
                    "time": 330.3958019999969,
                    "velocity": 0.7165354330708661,
                    "duration": 0.42304200000000947
                },
                {
                    "name": "A4",
                    "midi": 69,
                    "time": 331.2418859999969,
                    "velocity": 0.6929133858267716,
                    "duration": 0.5288024999999834
                },
                {
                    "name": "F4",
                    "midi": 65,
                    "time": 331.7706884999969,
                    "velocity": 0.5433070866141733,
                    "duration": 0.10576049999997394
                },
                {
                    "name": "A4",
                    "midi": 69,
                    "time": 331.87644899999685,
                    "velocity": 0.5826771653543307,
                    "duration": 0.10576049999997394
                },
                {
                    "name": "F4",
                    "midi": 65,
                    "time": 331.9822094999968,
                    "velocity": 0.5511811023622047,
                    "duration": 0.10576049999997394
                },
                {
                    "name": "C5",
                    "midi": 72,
                    "time": 332.0879699999968,
                    "velocity": 0.5826771653543307,
                    "duration": 0.10576049999997394
                },
                {
                    "name": "A4",
                    "midi": 69,
                    "time": 332.1937304999968,
                    "velocity": 0.5590551181102362,
                    "duration": 0.10576049999997394
                },
                {
                    "name": "C5",
                    "midi": 72,
                    "time": 332.29949099999675,
                    "velocity": 0.5905511811023622,
                    "duration": 0.10576049999997394
                },
                {
                    "name": "A4",
                    "midi": 69,
                    "time": 332.4052514999967,
                    "velocity": 0.5511811023622047,
                    "duration": 0.10576049999997394
                },
                {
                    "name": "F5",
                    "midi": 77,
                    "time": 332.5110119999967,
                    "velocity": 0.5826771653543307,
                    "duration": 0.10576049999997394
                },
                {
                    "name": "C5",
                    "midi": 72,
                    "time": 332.61677249999667,
                    "velocity": 0.5590551181102362,
                    "duration": 0.10576049999997394
                },
                {
                    "name": "F5",
                    "midi": 77,
                    "time": 332.72253299999664,
                    "velocity": 0.5826771653543307,
                    "duration": 0.10576049999997394
                },
                {
                    "name": "C5",
                    "midi": 72,
                    "time": 332.8282934999966,
                    "velocity": 0.5590551181102362,
                    "duration": 0.10576049999997394
                },
                {
                    "name": "A5",
                    "midi": 81,
                    "time": 332.9340539999966,
                    "velocity": 0.7165354330708661,
                    "duration": 0.42304200000000947
                },
                {
                    "name": "G#4",
                    "midi": 68,
                    "time": 333.7801379999966,
                    "velocity": 0.6929133858267716,
                    "duration": 0.5288024999999834
                },
                {
                    "name": "F4",
                    "midi": 65,
                    "time": 334.3089404999966,
                    "velocity": 0.5433070866141733,
                    "duration": 0.10576049999997394
                },
                {
                    "name": "G#4",
                    "midi": 68,
                    "time": 334.41470099999657,
                    "velocity": 0.5826771653543307,
                    "duration": 0.10576049999997394
                },
                {
                    "name": "F4",
                    "midi": 65,
                    "time": 334.52046149999654,
                    "velocity": 0.5511811023622047,
                    "duration": 0.10576049999997394
                },
                {
                    "name": "D5",
                    "midi": 74,
                    "time": 334.6262219999965,
                    "velocity": 0.5826771653543307,
                    "duration": 0.10576049999997394
                },
                {
                    "name": "G#4",
                    "midi": 68,
                    "time": 334.7319824999965,
                    "velocity": 0.5590551181102362,
                    "duration": 0.10576049999997394
                },
                {
                    "name": "D5",
                    "midi": 74,
                    "time": 334.83774299999646,
                    "velocity": 0.5905511811023622,
                    "duration": 0.10576049999997394
                },
                {
                    "name": "G#4",
                    "midi": 68,
                    "time": 334.94350349999644,
                    "velocity": 0.5511811023622047,
                    "duration": 0.10576049999997394
                },
                {
                    "name": "F5",
                    "midi": 77,
                    "time": 335.0492639999964,
                    "velocity": 0.5826771653543307,
                    "duration": 0.10576049999997394
                },
                {
                    "name": "D5",
                    "midi": 74,
                    "time": 335.1550244999964,
                    "velocity": 0.5590551181102362,
                    "duration": 0.10576049999997394
                },
                {
                    "name": "F5",
                    "midi": 77,
                    "time": 335.26078499999636,
                    "velocity": 0.5826771653543307,
                    "duration": 0.10576049999997394
                },
                {
                    "name": "D5",
                    "midi": 74,
                    "time": 335.36654549999633,
                    "velocity": 0.5590551181102362,
                    "duration": 0.10576049999997394
                },
                {
                    "name": "G#5",
                    "midi": 80,
                    "time": 335.4723059999963,
                    "velocity": 0.7165354330708661,
                    "duration": 0.42304200000000947
                },
                {
                    "name": "F5",
                    "midi": 77,
                    "time": 335.8953479999963,
                    "velocity": 0.6377952755905512,
                    "duration": 0.3172814999999787
                },
                {
                    "name": "C5",
                    "midi": 72,
                    "time": 336.2126294999963,
                    "velocity": 0.5511811023622047,
                    "duration": 0.03525350000001026
                },
                {
                    "name": "E5",
                    "midi": 76,
                    "time": 336.2478829999963,
                    "velocity": 0.5511811023622047,
                    "duration": 0.03525350000001026
                },
                {
                    "name": "G5",
                    "midi": 79,
                    "time": 336.2831364999963,
                    "velocity": 0.5511811023622047,
                    "duration": 0.03525350000001026
                },
                {
                    "name": "C6",
                    "midi": 84,
                    "time": 336.3183899999963,
                    "velocity": 0.7086614173228346,
                    "duration": 0.8460840000000189
                },
                {
                    "name": "A#5",
                    "midi": 82,
                    "time": 337.16447399999635,
                    "velocity": 0.5669291338582677,
                    "duration": 0.1145738749999623
                },
                {
                    "name": "G#5",
                    "midi": 80,
                    "time": 337.2702344999963,
                    "velocity": 0.5669291338582677,
                    "duration": 0.1145738749999623
                },
                {
                    "name": "G5",
                    "midi": 79,
                    "time": 337.3759949999963,
                    "velocity": 0.5748031496062992,
                    "duration": 0.1145738749999623
                },
                {
                    "name": "F5",
                    "midi": 77,
                    "time": 337.48175549999627,
                    "velocity": 0.5984251968503937,
                    "duration": 0.10576049999997394
                },
                {
                    "name": "C6",
                    "midi": 84,
                    "time": 337.58751599999624,
                    "velocity": 0.7086614173228346,
                    "duration": 0.8460840000000189
                },
                {
                    "name": "A#5",
                    "midi": 82,
                    "time": 338.43359999999626,
                    "velocity": 0.5669291338582677,
                    "duration": 0.1145738749999623
                },
                {
                    "name": "G#5",
                    "midi": 80,
                    "time": 338.53936049999623,
                    "velocity": 0.5669291338582677,
                    "duration": 0.1145738749999623
                },
                {
                    "name": "G5",
                    "midi": 79,
                    "time": 338.6451209999962,
                    "velocity": 0.5748031496062992,
                    "duration": 0.1145738749999623
                },
                {
                    "name": "F5",
                    "midi": 77,
                    "time": 338.7508814999962,
                    "velocity": 0.5984251968503937,
                    "duration": 0.10576049999997394
                },
                {
                    "name": "C5",
                    "midi": 72,
                    "time": 338.85664199999616,
                    "velocity": 0.7086614173228346,
                    "duration": 0.6345630000000142
                },
                {
                    "name": "C#5",
                    "midi": 73,
                    "time": 339.49120499999617,
                    "velocity": 0.6220472440944882,
                    "duration": 0.1145738749999623
                },
                {
                    "name": "C5",
                    "midi": 72,
                    "time": 339.59696549999614,
                    "velocity": 0.6141732283464567,
                    "duration": 0.1145738749999623
                },
                {
                    "name": "A#4",
                    "midi": 70,
                    "time": 339.7027259999961,
                    "velocity": 0.5984251968503937,
                    "duration": 0.1145738749999623
                },
                {
                    "name": "G#4",
                    "midi": 68,
                    "time": 339.8084864999961,
                    "velocity": 0.5905511811023622,
                    "duration": 0.1145738749999623
                },
                {
                    "name": "G4",
                    "midi": 67,
                    "time": 339.91424699999607,
                    "velocity": 0.5826771653543307,
                    "duration": 0.1145738749999623
                },
                {
                    "name": "F4",
                    "midi": 65,
                    "time": 340.02000749999604,
                    "velocity": 0.5669291338582677,
                    "duration": 0.1145738749999623
                },
                {
                    "name": "C5",
                    "midi": 72,
                    "time": 340.125767999996,
                    "velocity": 0.6220472440944882,
                    "duration": 0.10576049999997394
                },
                {
                    "name": "C4",
                    "midi": 60,
                    "time": 340.54880999999597,
                    "velocity": 0.5669291338582677,
                    "duration": 0.10576049999997394
                },
                {
                    "name": "C4",
                    "midi": 60,
                    "time": 341.34201374999594,
                    "velocity": 0.3228346456692913,
                    "duration": 0.05288024999998697
                },
                {
                    "name": "A4",
                    "midi": 69,
                    "time": 341.39489399999593,
                    "velocity": 0.3543307086614173,
                    "duration": 0.10576049999997394
                },
                {
                    "name": "A4",
                    "midi": 69,
                    "time": 341.8179359999959,
                    "velocity": 0.33858267716535434,
                    "duration": 0.10576049999997394
                },
                {
                    "name": "A4",
                    "midi": 69,
                    "time": 342.24097799999583,
                    "velocity": 0.33858267716535434,
                    "duration": 0.10576049999997394
                },
                {
                    "name": "E4",
                    "midi": 64,
                    "time": 342.6111397499958,
                    "velocity": 0.33070866141732286,
                    "duration": 0.05288024999998697
                },
                {
                    "name": "C5",
                    "midi": 72,
                    "time": 342.6640199999958,
                    "velocity": 0.3543307086614173,
                    "duration": 0.6345630000000142
                },
                {
                    "name": "A#4",
                    "midi": 70,
                    "time": 343.2985829999958,
                    "velocity": 0.3228346456692913,
                    "duration": 0.21152100000000473
                },
                {
                    "name": "G4",
                    "midi": 67,
                    "time": 343.5101039999958,
                    "velocity": 0.3228346456692913,
                    "duration": 0.42304200000000947
                },
                {
                    "name": "A3",
                    "midi": 57,
                    "time": 343.9331459999958,
                    "velocity": 0.3543307086614173,
                    "duration": 0.42304200000000947
                },
                {
                    "name": "G4",
                    "midi": 67,
                    "time": 343.9331459999958,
                    "velocity": 0.3543307086614173,
                    "duration": 0.21152100000000473
                },
                {
                    "name": "F4",
                    "midi": 65,
                    "time": 344.1446669999958,
                    "velocity": 0.3228346456692913,
                    "duration": 0.21152100000000473
                },
                {
                    "name": "F4",
                    "midi": 65,
                    "time": 344.3561879999958,
                    "velocity": 0.3543307086614173,
                    "duration": 0.6345630000000142
                },
                {
                    "name": "C4",
                    "midi": 60,
                    "time": 344.3561879999958,
                    "velocity": 0.3543307086614173,
                    "duration": 0.6345630000000142
                },
                {
                    "name": "E4",
                    "midi": 64,
                    "time": 344.99075099999584,
                    "velocity": 0.3543307086614173,
                    "duration": 0.21152100000000473
                },
                {
                    "name": "G4",
                    "midi": 67,
                    "time": 344.99075099999584,
                    "velocity": 0.3543307086614173,
                    "duration": 0.21152100000000473
                },
                {
                    "name": "G4",
                    "midi": 67,
                    "time": 345.20227199999584,
                    "velocity": 0.3858267716535433,
                    "duration": 0.8460840000000189
                },
                {
                    "name": "E4",
                    "midi": 64,
                    "time": 345.20227199999584,
                    "velocity": 0.3858267716535433,
                    "duration": 0.8460840000000189
                },
                {
                    "name": "F4",
                    "midi": 65,
                    "time": 346.04835599999586,
                    "velocity": 0.3543307086614173,
                    "duration": 0.42304200000000947
                },
                {
                    "name": "A4",
                    "midi": 69,
                    "time": 346.04835599999586,
                    "velocity": 0.3543307086614173,
                    "duration": 0.42304200000000947
                },
                {
                    "name": "A#4",
                    "midi": 70,
                    "time": 346.4713979999959,
                    "velocity": 0.3543307086614173,
                    "duration": 0.6345630000000142
                },
                {
                    "name": "C5",
                    "midi": 72,
                    "time": 347.1059609999959,
                    "velocity": 0.36220472440944884,
                    "duration": 0.05288024999998697
                },
                {
                    "name": "A#4",
                    "midi": 70,
                    "time": 347.1588412499959,
                    "velocity": 0.33070866141732286,
                    "duration": 0.05288024999998697
                },
                {
                    "name": "A4",
                    "midi": 69,
                    "time": 347.21172149999586,
                    "velocity": 0.33070866141732286,
                    "duration": 0.05288024999998697
                },
                {
                    "name": "A#4",
                    "midi": 70,
                    "time": 347.26460174999585,
                    "velocity": 0.3543307086614173,
                    "duration": 0.03525350000001026
                },
                {
                    "name": "C5",
                    "midi": 72,
                    "time": 347.31748199999583,
                    "velocity": 0.3858267716535433,
                    "duration": 0.21152100000000473
                },
                {
                    "name": "D5",
                    "midi": 74,
                    "time": 347.52900299999584,
                    "velocity": 0.3700787401574803,
                    "duration": 0.21152100000000473
                },
                {
                    "name": "D5",
                    "midi": 74,
                    "time": 347.74052399999584,
                    "velocity": 0.4330708661417323,
                    "duration": 0.21152100000000473
                },
                {
                    "name": "C5",
                    "midi": 72,
                    "time": 347.95204499999585,
                    "velocity": 0.3858267716535433,
                    "duration": 0.21152100000000473
                },
                {
                    "name": "B4",
                    "midi": 71,
                    "time": 348.16356599999585,
                    "velocity": 0.4094488188976378,
                    "duration": 0.21152100000000473
                },
                {
                    "name": "C5",
                    "midi": 72,
                    "time": 348.37508699999586,
                    "velocity": 0.3543307086614173,
                    "duration": 0.21152100000000473
                },
                {
                    "name": "A#4",
                    "midi": 70,
                    "time": 348.58660799999586,
                    "velocity": 0.3937007874015748,
                    "duration": 0.21152100000000473
                },
                {
                    "name": "G4",
                    "midi": 67,
                    "time": 348.79812899999587,
                    "velocity": 0.3543307086614173,
                    "duration": 0.21152100000000473
                },
                {
                    "name": "G#4",
                    "midi": 68,
                    "time": 349.0096499999959,
                    "velocity": 0.3858267716535433,
                    "duration": 0.21152100000000473
                },
                {
                    "name": "A4",
                    "midi": 69,
                    "time": 349.2211709999959,
                    "velocity": 0.3543307086614173,
                    "duration": 0.21152100000000473
                },
                {
                    "name": "A#4",
                    "midi": 70,
                    "time": 349.4326919999959,
                    "velocity": 0.3937007874015748,
                    "duration": 0.21152100000000473
                },
                {
                    "name": "A4",
                    "midi": 69,
                    "time": 349.6442129999959,
                    "velocity": 0.3543307086614173,
                    "duration": 0.21152100000000473
                },
                {
                    "name": "C5",
                    "midi": 72,
                    "time": 349.8557339999959,
                    "velocity": 0.3858267716535433,
                    "duration": 0.21152100000000473
                },
                {
                    "name": "A#4",
                    "midi": 70,
                    "time": 350.0672549999959,
                    "velocity": 0.3543307086614173,
                    "duration": 0.21152100000000473
                },
                {
                    "name": "A4",
                    "midi": 69,
                    "time": 350.2787759999959,
                    "velocity": 0.4094488188976378,
                    "duration": 0.21152100000000473
                },
                {
                    "name": "G4",
                    "midi": 67,
                    "time": 350.4902969999959,
                    "velocity": 0.3543307086614173,
                    "duration": 0.21152100000000473
                },
                {
                    "name": "F4",
                    "midi": 65,
                    "time": 350.7018179999959,
                    "velocity": 0.3779527559055118,
                    "duration": 0.21152100000000473
                },
                {
                    "name": "E4",
                    "midi": 64,
                    "time": 350.9133389999959,
                    "velocity": 0.3543307086614173,
                    "duration": 0.21152100000000473
                },
                {
                    "name": "D4",
                    "midi": 62,
                    "time": 351.1248599999959,
                    "velocity": 0.36220472440944884,
                    "duration": 0.21152100000000473
                },
                {
                    "name": "C4",
                    "midi": 60,
                    "time": 351.3363809999959,
                    "velocity": 0.3543307086614173,
                    "duration": 0.21152100000000473
                },
                {
                    "name": "G#4",
                    "midi": 68,
                    "time": 351.54790199999593,
                    "velocity": 0.30708661417322836,
                    "duration": 0.21152100000000473
                },
                {
                    "name": "G#5",
                    "midi": 80,
                    "time": 351.54790199999593,
                    "velocity": 0.3858267716535433,
                    "duration": 0.21152100000000473
                },
                {
                    "name": "A4",
                    "midi": 69,
                    "time": 351.75942299999593,
                    "velocity": 0.25984251968503935,
                    "duration": 0.21152100000000473
                },
                {
                    "name": "A5",
                    "midi": 81,
                    "time": 351.75942299999593,
                    "velocity": 0.33070866141732286,
                    "duration": 0.21152100000000473
                },
                {
                    "name": "G#4",
                    "midi": 68,
                    "time": 351.97094399999594,
                    "velocity": 0.30708661417322836,
                    "duration": 0.21152100000000473
                },
                {
                    "name": "G#5",
                    "midi": 80,
                    "time": 351.97094399999594,
                    "velocity": 0.3858267716535433,
                    "duration": 0.21152100000000473
                },
                {
                    "name": "A4",
                    "midi": 69,
                    "time": 352.18246499999594,
                    "velocity": 0.25196850393700787,
                    "duration": 0.21152100000000473
                },
                {
                    "name": "A5",
                    "midi": 81,
                    "time": 352.18246499999594,
                    "velocity": 0.3228346456692913,
                    "duration": 0.21152100000000473
                },
                {
                    "name": "G#4",
                    "midi": 68,
                    "time": 352.39398599999595,
                    "velocity": 0.3228346456692913,
                    "duration": 0.21152100000000473
                },
                {
                    "name": "G#5",
                    "midi": 80,
                    "time": 352.39398599999595,
                    "velocity": 0.4094488188976378,
                    "duration": 0.21152100000000473
                },
                {
                    "name": "A4",
                    "midi": 69,
                    "time": 352.60550699999595,
                    "velocity": 0.2992125984251969,
                    "duration": 0.21152100000000473
                },
                {
                    "name": "A5",
                    "midi": 81,
                    "time": 352.60550699999595,
                    "velocity": 0.3779527559055118,
                    "duration": 0.21152100000000473
                },
                {
                    "name": "B4",
                    "midi": 71,
                    "time": 352.81702799999596,
                    "velocity": 0.36220472440944884,
                    "duration": 0.21152100000000473
                },
                {
                    "name": "B5",
                    "midi": 83,
                    "time": 352.81702799999596,
                    "velocity": 0.4566929133858268,
                    "duration": 0.21152100000000473
                },
                {
                    "name": "C5",
                    "midi": 72,
                    "time": 353.02854899999596,
                    "velocity": 0.33070866141732286,
                    "duration": 0.21152100000000473
                },
                {
                    "name": "C6",
                    "midi": 84,
                    "time": 353.02854899999596,
                    "velocity": 0.41732283464566927,
                    "duration": 0.21152100000000473
                },
                {
                    "name": "B4",
                    "midi": 71,
                    "time": 353.24006999999597,
                    "velocity": 0.36220472440944884,
                    "duration": 0.21152100000000473
                },
                {
                    "name": "B5",
                    "midi": 83,
                    "time": 353.24006999999597,
                    "velocity": 0.4566929133858268,
                    "duration": 0.21152100000000473
                },
                {
                    "name": "C5",
                    "midi": 72,
                    "time": 353.451590999996,
                    "velocity": 0.28346456692913385,
                    "duration": 0.21152100000000473
                },
                {
                    "name": "C6",
                    "midi": 84,
                    "time": 353.451590999996,
                    "velocity": 0.36220472440944884,
                    "duration": 0.21152100000000473
                },
                {
                    "name": "A#5",
                    "midi": 82,
                    "time": 353.663111999996,
                    "velocity": 0.3858267716535433,
                    "duration": 0.21152100000000473
                },
                {
                    "name": "G5",
                    "midi": 79,
                    "time": 353.874632999996,
                    "velocity": 0.30708661417322836,
                    "duration": 0.21152100000000473
                },
                {
                    "name": "G5",
                    "midi": 79,
                    "time": 354.086153999996,
                    "velocity": 0.3543307086614173,
                    "duration": 0.21152100000000473
                },
                {
                    "name": "F5",
                    "midi": 77,
                    "time": 354.297674999996,
                    "velocity": 0.3228346456692913,
                    "duration": 0.21152100000000473
                },
                {
                    "name": "G5",
                    "midi": 79,
                    "time": 354.509195999996,
                    "velocity": 0.3543307086614173,
                    "duration": 0.21152100000000473
                },
                {
                    "name": "C5",
                    "midi": 72,
                    "time": 354.509195999996,
                    "velocity": 0.3228346456692913,
                    "duration": 0.42304200000000947
                },
                {
                    "name": "F5",
                    "midi": 77,
                    "time": 354.720716999996,
                    "velocity": 0.3228346456692913,
                    "duration": 0.21152100000000473
                },
                {
                    "name": "E5",
                    "midi": 76,
                    "time": 354.932237999996,
                    "velocity": 0.3228346456692913,
                    "duration": 0.42304200000000947
                },
                {
                    "name": "A5",
                    "midi": 81,
                    "time": 354.932237999996,
                    "velocity": 0.3543307086614173,
                    "duration": 0.21152100000000473
                },
                {
                    "name": "G5",
                    "midi": 79,
                    "time": 355.143758999996,
                    "velocity": 0.3543307086614173,
                    "duration": 0.21152100000000473
                },
                {
                    "name": "E5",
                    "midi": 76,
                    "time": 355.355279999996,
                    "velocity": 0.3858267716535433,
                    "duration": 0.8460840000000189
                },
                {
                    "name": "G5",
                    "midi": 79,
                    "time": 355.355279999996,
                    "velocity": 0.3858267716535433,
                    "duration": 0.6345630000000142
                },
                {
                    "name": "G#5",
                    "midi": 80,
                    "time": 355.98984299999603,
                    "velocity": 0.3858267716535433,
                    "duration": 0.21152100000000473
                },
                {
                    "name": "A5",
                    "midi": 81,
                    "time": 356.20136399999603,
                    "velocity": 0.3543307086614173,
                    "duration": 0.42304200000000947
                },
                {
                    "name": "F5",
                    "midi": 77,
                    "time": 356.20136399999603,
                    "velocity": 0.3543307086614173,
                    "duration": 0.42304200000000947
                },
                {
                    "name": "A#5",
                    "midi": 82,
                    "time": 356.62440599999604,
                    "velocity": 0.3858267716535433,
                    "duration": 0.6345630000000142
                },
                {
                    "name": "C6",
                    "midi": 84,
                    "time": 357.25896899999606,
                    "velocity": 0.3937007874015748,
                    "duration": 0.05288024999998697
                },
                {
                    "name": "A#5",
                    "midi": 82,
                    "time": 357.31184924999604,
                    "velocity": 0.36220472440944884,
                    "duration": 0.05288024999998697
                },
                {
                    "name": "A5",
                    "midi": 81,
                    "time": 357.36472949999603,
                    "velocity": 0.36220472440944884,
                    "duration": 0.05288024999998697
                },
                {
                    "name": "A#5",
                    "midi": 82,
                    "time": 357.417609749996,
                    "velocity": 0.3858267716535433,
                    "duration": 0.03525350000001026
                },
                {
                    "name": "C6",
                    "midi": 84,
                    "time": 357.470489999996,
                    "velocity": 0.41732283464566927,
                    "duration": 0.21152100000000473
                },
                {
                    "name": "D6",
                    "midi": 86,
                    "time": 357.682010999996,
                    "velocity": 0.4015748031496063,
                    "duration": 0.21152100000000473
                },
                {
                    "name": "D6",
                    "midi": 86,
                    "time": 357.893531999996,
                    "velocity": 0.47244094488188976,
                    "duration": 0.21152100000000473
                },
                {
                    "name": "C6",
                    "midi": 84,
                    "time": 358.105052999996,
                    "velocity": 0.41732283464566927,
                    "duration": 0.21152100000000473
                },
                {
                    "name": "B5",
                    "midi": 83,
                    "time": 358.316573999996,
                    "velocity": 0.44881889763779526,
                    "duration": 0.21152100000000473
                },
                {
                    "name": "C6",
                    "midi": 84,
                    "time": 358.52809499999603,
                    "velocity": 0.3858267716535433,
                    "duration": 0.21152100000000473
                },
                {
                    "name": "A#5",
                    "midi": 82,
                    "time": 358.73961599999603,
                    "velocity": 0.4330708661417323,
                    "duration": 0.21152100000000473
                },
                {
                    "name": "G5",
                    "midi": 79,
                    "time": 358.95113699999604,
                    "velocity": 0.3858267716535433,
                    "duration": 0.21152100000000473
                },
                {
                    "name": "G#5",
                    "midi": 80,
                    "time": 359.16265799999604,
                    "velocity": 0.41732283464566927,
                    "duration": 0.21152100000000473
                },
                {
                    "name": "A5",
                    "midi": 81,
                    "time": 359.37417899999605,
                    "velocity": 0.3858267716535433,
                    "duration": 0.21152100000000473
                },
                {
                    "name": "C6",
                    "midi": 84,
                    "time": 359.58569999999605,
                    "velocity": 0.4330708661417323,
                    "duration": 0.21152100000000473
                },
                {
                    "name": "A#5",
                    "midi": 82,
                    "time": 359.79722099999606,
                    "velocity": 0.3858267716535433,
                    "duration": 0.21152100000000473
                },
                {
                    "name": "G5",
                    "midi": 79,
                    "time": 360.00874199999606,
                    "velocity": 0.41732283464566927,
                    "duration": 0.21152100000000473
                },
                {
                    "name": "E5",
                    "midi": 76,
                    "time": 360.22026299999607,
                    "velocity": 0.3858267716535433,
                    "duration": 0.21152100000000473
                },
                {
                    "name": "F5",
                    "midi": 77,
                    "time": 360.43178399999607,
                    "velocity": 0.4251968503937008,
                    "duration": 0.21152100000000473
                },
                {
                    "name": "C5",
                    "midi": 72,
                    "time": 360.6433049999961,
                    "velocity": 0.2755905511811024,
                    "duration": 0.21152100000000473
                },
                {
                    "name": "C5",
                    "midi": 72,
                    "time": 361.0663469999961,
                    "velocity": 0.2755905511811024,
                    "duration": 0.10576049999997394
                },
                {
                    "name": "C5",
                    "midi": 72,
                    "time": 361.48938899999604,
                    "velocity": 0.2755905511811024,
                    "duration": 0.10576049999997394
                },
                {
                    "name": "A#4",
                    "midi": 70,
                    "time": 361.700909999996,
                    "velocity": 0.2755905511811024,
                    "duration": 0.10576049999997394
                },
                {
                    "name": "C5",
                    "midi": 72,
                    "time": 361.700909999996,
                    "velocity": 0.33070866141732286,
                    "duration": 0.10576049999997394
                },
                {
                    "name": "C5",
                    "midi": 72,
                    "time": 361.91243099999593,
                    "velocity": 0.2677165354330709,
                    "duration": 0.10576049999997394
                },
                {
                    "name": "A#4",
                    "midi": 70,
                    "time": 361.91243099999593,
                    "velocity": 0.2283464566929134,
                    "duration": 0.10576049999997394
                },
                {
                    "name": "A#4",
                    "midi": 70,
                    "time": 362.3354729999959,
                    "velocity": 0.2283464566929134,
                    "duration": 0.10576049999997394
                },
                {
                    "name": "C5",
                    "midi": 72,
                    "time": 362.3354729999959,
                    "velocity": 0.2677165354330709,
                    "duration": 0.10576049999997394
                },
                {
                    "name": "C5",
                    "midi": 72,
                    "time": 362.75851499999584,
                    "velocity": 0.2677165354330709,
                    "duration": 0.10576049999997394
                },
                {
                    "name": "A#4",
                    "midi": 70,
                    "time": 362.75851499999584,
                    "velocity": 0.2283464566929134,
                    "duration": 0.10576049999997394
                },
                {
                    "name": "G#4",
                    "midi": 68,
                    "time": 362.9700359999958,
                    "velocity": 0.2755905511811024,
                    "duration": 0.10576049999997394
                },
                {
                    "name": "C5",
                    "midi": 72,
                    "time": 362.9700359999958,
                    "velocity": 0.33070866141732286,
                    "duration": 0.10576049999997394
                },
                {
                    "name": "G#4",
                    "midi": 68,
                    "time": 363.18155699999573,
                    "velocity": 0.2283464566929134,
                    "duration": 0.10576049999997394
                },
                {
                    "name": "C5",
                    "midi": 72,
                    "time": 363.18155699999573,
                    "velocity": 0.2755905511811024,
                    "duration": 0.10576049999997394
                },
                {
                    "name": "G#4",
                    "midi": 68,
                    "time": 363.6045989999957,
                    "velocity": 0.2283464566929134,
                    "duration": 0.10576049999997394
                },
                {
                    "name": "C5",
                    "midi": 72,
                    "time": 363.6045989999957,
                    "velocity": 0.2755905511811024,
                    "duration": 0.10576049999997394
                },
                {
                    "name": "C5",
                    "midi": 72,
                    "time": 364.02764099999564,
                    "velocity": 0.2755905511811024,
                    "duration": 0.10576049999997394
                },
                {
                    "name": "G#4",
                    "midi": 68,
                    "time": 364.02764099999564,
                    "velocity": 0.2283464566929134,
                    "duration": 0.10576049999997394
                },
                {
                    "name": "C5",
                    "midi": 72,
                    "time": 364.2391619999956,
                    "velocity": 0.33070866141732286,
                    "duration": 0.10576049999997394
                },
                {
                    "name": "A#4",
                    "midi": 70,
                    "time": 364.2391619999956,
                    "velocity": 0.2755905511811024,
                    "duration": 0.10576049999997394
                },
                {
                    "name": "C5",
                    "midi": 72,
                    "time": 364.45068299999554,
                    "velocity": 0.2677165354330709,
                    "duration": 0.10576049999997394
                },
                {
                    "name": "A#4",
                    "midi": 70,
                    "time": 364.45068299999554,
                    "velocity": 0.2283464566929134,
                    "duration": 0.10576049999997394
                },
                {
                    "name": "C5",
                    "midi": 72,
                    "time": 364.8737249999955,
                    "velocity": 0.2677165354330709,
                    "duration": 0.10576049999997394
                },
                {
                    "name": "A#4",
                    "midi": 70,
                    "time": 364.8737249999955,
                    "velocity": 0.2283464566929134,
                    "duration": 0.10576049999997394
                },
                {
                    "name": "A#4",
                    "midi": 70,
                    "time": 365.29676699999544,
                    "velocity": 0.2283464566929134,
                    "duration": 0.10576049999997394
                },
                {
                    "name": "C5",
                    "midi": 72,
                    "time": 365.29676699999544,
                    "velocity": 0.2677165354330709,
                    "duration": 0.10576049999997394
                },
                {
                    "name": "C5",
                    "midi": 72,
                    "time": 365.5082879999954,
                    "velocity": 0.49606299212598426,
                    "duration": 0.10576049999997394
                },
                {
                    "name": "G#4",
                    "midi": 68,
                    "time": 365.5082879999954,
                    "velocity": 0.49606299212598426,
                    "duration": 0.10576049999997394
                },
                {
                    "name": "G#4",
                    "midi": 68,
                    "time": 365.71980899999534,
                    "velocity": 0.3937007874015748,
                    "duration": 0.10576049999997394
                },
                {
                    "name": "C5",
                    "midi": 72,
                    "time": 365.71980899999534,
                    "velocity": 0.3937007874015748,
                    "duration": 0.10576049999997394
                },
                {
                    "name": "C5",
                    "midi": 72,
                    "time": 366.1428509999953,
                    "velocity": 0.25984251968503935,
                    "duration": 0.10576049999997394
                },
                {
                    "name": "G#4",
                    "midi": 68,
                    "time": 366.1428509999953,
                    "velocity": 0.25984251968503935,
                    "duration": 0.10576049999997394
                },
                {
                    "name": "C5",
                    "midi": 72,
                    "time": 366.56589299999524,
                    "velocity": 0.25984251968503935,
                    "duration": 0.10576049999997394
                },
                {
                    "name": "G#4",
                    "midi": 68,
                    "time": 366.56589299999524,
                    "velocity": 0.25984251968503935,
                    "duration": 0.10576049999997394
                },
                {
                    "name": "C#5",
                    "midi": 73,
                    "time": 366.7774139999952,
                    "velocity": 0.49606299212598426,
                    "duration": 0.10576049999997394
                },
                {
                    "name": "G#4",
                    "midi": 68,
                    "time": 366.7774139999952,
                    "velocity": 0.49606299212598426,
                    "duration": 0.10576049999997394
                },
                {
                    "name": "G#4",
                    "midi": 68,
                    "time": 366.98893499999514,
                    "velocity": 0.3937007874015748,
                    "duration": 0.10576049999997394
                },
                {
                    "name": "C#5",
                    "midi": 73,
                    "time": 366.98893499999514,
                    "velocity": 0.3937007874015748,
                    "duration": 0.10576049999997394
                },
                {
                    "name": "G#4",
                    "midi": 68,
                    "time": 367.4119769999951,
                    "velocity": 0.25984251968503935,
                    "duration": 0.10576049999997394
                },
                {
                    "name": "C#5",
                    "midi": 73,
                    "time": 367.4119769999951,
                    "velocity": 0.25984251968503935,
                    "duration": 0.10576049999997394
                },
                {
                    "name": "C#5",
                    "midi": 73,
                    "time": 367.83501899999504,
                    "velocity": 0.25984251968503935,
                    "duration": 0.10576049999997394
                },
                {
                    "name": "G#4",
                    "midi": 68,
                    "time": 367.83501899999504,
                    "velocity": 0.25984251968503935,
                    "duration": 0.10576049999997394
                },
                {
                    "name": "G4",
                    "midi": 67,
                    "time": 368.046539999995,
                    "velocity": 0.49606299212598426,
                    "duration": 0.10576049999997394
                },
                {
                    "name": "C#5",
                    "midi": 73,
                    "time": 368.046539999995,
                    "velocity": 0.49606299212598426,
                    "duration": 0.10576049999997394
                },
                {
                    "name": "C#5",
                    "midi": 73,
                    "time": 368.25806099999494,
                    "velocity": 0.3937007874015748,
                    "duration": 0.10576049999997394
                },
                {
                    "name": "G4",
                    "midi": 67,
                    "time": 368.25806099999494,
                    "velocity": 0.3937007874015748,
                    "duration": 0.10576049999997394
                },
                {
                    "name": "C#5",
                    "midi": 73,
                    "time": 368.6811029999949,
                    "velocity": 0.25984251968503935,
                    "duration": 0.10576049999997394
                },
                {
                    "name": "G4",
                    "midi": 67,
                    "time": 368.6811029999949,
                    "velocity": 0.25984251968503935,
                    "duration": 0.10576049999997394
                },
                {
                    "name": "G4",
                    "midi": 67,
                    "time": 369.10414499999484,
                    "velocity": 0.25984251968503935,
                    "duration": 0.10576049999997394
                },
                {
                    "name": "C#5",
                    "midi": 73,
                    "time": 369.10414499999484,
                    "velocity": 0.25984251968503935,
                    "duration": 0.10576049999997394
                },
                {
                    "name": "G4",
                    "midi": 67,
                    "time": 369.3156659999948,
                    "velocity": 0.49606299212598426,
                    "duration": 0.10576049999997394
                },
                {
                    "name": "C5",
                    "midi": 72,
                    "time": 369.3156659999948,
                    "velocity": 0.49606299212598426,
                    "duration": 0.10576049999997394
                },
                {
                    "name": "C5",
                    "midi": 72,
                    "time": 369.52718699999474,
                    "velocity": 0.3937007874015748,
                    "duration": 0.10576049999997394
                },
                {
                    "name": "G4",
                    "midi": 67,
                    "time": 369.52718699999474,
                    "velocity": 0.3937007874015748,
                    "duration": 0.10576049999997394
                },
                {
                    "name": "G4",
                    "midi": 67,
                    "time": 369.9502289999947,
                    "velocity": 0.25984251968503935,
                    "duration": 0.10576049999997394
                },
                {
                    "name": "C5",
                    "midi": 72,
                    "time": 369.9502289999947,
                    "velocity": 0.25984251968503935,
                    "duration": 0.10576049999997394
                },
                {
                    "name": "C5",
                    "midi": 72,
                    "time": 370.37327099999465,
                    "velocity": 0.25984251968503935,
                    "duration": 0.10576049999997394
                },
                {
                    "name": "G4",
                    "midi": 67,
                    "time": 370.37327099999465,
                    "velocity": 0.25984251968503935,
                    "duration": 0.10576049999997394
                },
                {
                    "name": "F4",
                    "midi": 65,
                    "time": 370.5847919999946,
                    "velocity": 0.49606299212598426,
                    "duration": 0.10576049999997394
                },
                {
                    "name": "C5",
                    "midi": 72,
                    "time": 370.5847919999946,
                    "velocity": 0.49606299212598426,
                    "duration": 0.10576049999997394
                },
                {
                    "name": "F4",
                    "midi": 65,
                    "time": 370.79631299999454,
                    "velocity": 0.3937007874015748,
                    "duration": 0.10576049999997394
                },
                {
                    "name": "C5",
                    "midi": 72,
                    "time": 370.79631299999454,
                    "velocity": 0.3937007874015748,
                    "duration": 0.10576049999997394
                },
                {
                    "name": "F4",
                    "midi": 65,
                    "time": 371.2193549999945,
                    "velocity": 0.25984251968503935,
                    "duration": 0.10576049999997394
                },
                {
                    "name": "C5",
                    "midi": 72,
                    "time": 371.2193549999945,
                    "velocity": 0.25984251968503935,
                    "duration": 0.10576049999997394
                },
                {
                    "name": "F4",
                    "midi": 65,
                    "time": 371.43087599999444,
                    "velocity": 0.49606299212598426,
                    "duration": 0.10576049999997394
                },
                {
                    "name": "A#4",
                    "midi": 70,
                    "time": 371.43087599999444,
                    "velocity": 0.49606299212598426,
                    "duration": 0.10576049999997394
                },
                {
                    "name": "A#4",
                    "midi": 70,
                    "time": 371.6423969999944,
                    "velocity": 0.3937007874015748,
                    "duration": 0.10576049999997394
                },
                {
                    "name": "F4",
                    "midi": 65,
                    "time": 371.6423969999944,
                    "velocity": 0.3937007874015748,
                    "duration": 0.10576049999997394
                },
                {
                    "name": "F4",
                    "midi": 65,
                    "time": 372.06543899999434,
                    "velocity": 0.25984251968503935,
                    "duration": 0.10576049999997394
                },
                {
                    "name": "A#4",
                    "midi": 70,
                    "time": 372.06543899999434,
                    "velocity": 0.25984251968503935,
                    "duration": 0.10576049999997394
                },
                {
                    "name": "A#4",
                    "midi": 70,
                    "time": 372.2769599999943,
                    "velocity": 0.49606299212598426,
                    "duration": 0.10576049999997394
                },
                {
                    "name": "E4",
                    "midi": 64,
                    "time": 372.2769599999943,
                    "velocity": 0.49606299212598426,
                    "duration": 0.10576049999997394
                },
                {
                    "name": "E4",
                    "midi": 64,
                    "time": 372.48848099999424,
                    "velocity": 0.3937007874015748,
                    "duration": 0.10576049999997394
                },
                {
                    "name": "A#4",
                    "midi": 70,
                    "time": 372.48848099999424,
                    "velocity": 0.3937007874015748,
                    "duration": 0.10576049999997394
                },
                {
                    "name": "E4",
                    "midi": 64,
                    "time": 372.9115229999942,
                    "velocity": 0.25984251968503935,
                    "duration": 0.10576049999997394
                },
                {
                    "name": "A#4",
                    "midi": 70,
                    "time": 372.9115229999942,
                    "velocity": 0.25984251968503935,
                    "duration": 0.10576049999997394
                },
                {
                    "name": "G#4",
                    "midi": 68,
                    "time": 373.33456499999414,
                    "velocity": 0.25984251968503935,
                    "duration": 0.10576049999997394
                },
                {
                    "name": "F4",
                    "midi": 65,
                    "time": 373.33456499999414,
                    "velocity": 0.25984251968503935,
                    "duration": 0.10576049999997394
                },
                {
                    "name": "G#4",
                    "midi": 68,
                    "time": 373.7576069999941,
                    "velocity": 0.25984251968503935,
                    "duration": 0.10576049999997394
                },
                {
                    "name": "F4",
                    "midi": 65,
                    "time": 373.7576069999941,
                    "velocity": 0.25984251968503935,
                    "duration": 0.10576049999997394
                },
                {
                    "name": "F4",
                    "midi": 65,
                    "time": 374.18064899999405,
                    "velocity": 0.25984251968503935,
                    "duration": 0.10576049999997394
                },
                {
                    "name": "G#4",
                    "midi": 68,
                    "time": 374.18064899999405,
                    "velocity": 0.25984251968503935,
                    "duration": 0.10576049999997394
                },
                {
                    "name": "E4",
                    "midi": 64,
                    "time": 374.392169999994,
                    "velocity": 0.25196850393700787,
                    "duration": 0.21152100000000473
                },
                {
                    "name": "G4",
                    "midi": 67,
                    "time": 374.392169999994,
                    "velocity": 0.2992125984251969,
                    "duration": 0.21152100000000473
                },
                {
                    "name": "G#4",
                    "midi": 68,
                    "time": 374.603690999994,
                    "velocity": 0.2440944881889764,
                    "duration": 0.2203343749999931
                },
                {
                    "name": "C5",
                    "midi": 72,
                    "time": 374.603690999994,
                    "velocity": 0.29133858267716534,
                    "duration": 0.2203343749999931
                },
                {
                    "name": "A#4",
                    "midi": 70,
                    "time": 374.815211999994,
                    "velocity": 0.25984251968503935,
                    "duration": 0.2203343749999931
                },
                {
                    "name": "G4",
                    "midi": 67,
                    "time": 374.815211999994,
                    "velocity": 0.2204724409448819,
                    "duration": 0.2203343749999931
                },
                {
                    "name": "F4",
                    "midi": 65,
                    "time": 375.026732999994,
                    "velocity": 0.2047244094488189,
                    "duration": 0.2203343749999931
                },
                {
                    "name": "G#4",
                    "midi": 68,
                    "time": 375.026732999994,
                    "velocity": 0.2440944881889764,
                    "duration": 0.2203343749999931
                },
                {
                    "name": "E4",
                    "midi": 64,
                    "time": 375.238253999994,
                    "velocity": 0.2204724409448819,
                    "duration": 0.2203343749999931
                },
                {
                    "name": "G4",
                    "midi": 67,
                    "time": 375.238253999994,
                    "velocity": 0.25984251968503935,
                    "duration": 0.2203343749999931
                },
                {
                    "name": "G#4",
                    "midi": 68,
                    "time": 375.449774999994,
                    "velocity": 0.23622047244094488,
                    "duration": 0.2203343749999931
                },
                {
                    "name": "F4",
                    "midi": 65,
                    "time": 375.449774999994,
                    "velocity": 0.1968503937007874,
                    "duration": 0.2203343749999931
                },
                {
                    "name": "E4",
                    "midi": 64,
                    "time": 375.661295999994,
                    "velocity": 0.25196850393700787,
                    "duration": 0.21152100000000473
                },
                {
                    "name": "G4",
                    "midi": 67,
                    "time": 375.661295999994,
                    "velocity": 0.2992125984251969,
                    "duration": 0.21152100000000473
                },
                {
                    "name": "C5",
                    "midi": 72,
                    "time": 375.87281699999403,
                    "velocity": 0.29133858267716534,
                    "duration": 0.2203343749999931
                },
                {
                    "name": "G#4",
                    "midi": 68,
                    "time": 375.87281699999403,
                    "velocity": 0.2440944881889764,
                    "duration": 0.2203343749999931
                },
                {
                    "name": "G4",
                    "midi": 67,
                    "time": 376.08433799999403,
                    "velocity": 0.2204724409448819,
                    "duration": 0.2203343749999931
                },
                {
                    "name": "A#4",
                    "midi": 70,
                    "time": 376.08433799999403,
                    "velocity": 0.25984251968503935,
                    "duration": 0.2203343749999931
                },
                {
                    "name": "F4",
                    "midi": 65,
                    "time": 376.29585899999404,
                    "velocity": 0.2047244094488189,
                    "duration": 0.2203343749999931
                },
                {
                    "name": "G#4",
                    "midi": 68,
                    "time": 376.29585899999404,
                    "velocity": 0.2440944881889764,
                    "duration": 0.2203343749999931
                },
                {
                    "name": "G4",
                    "midi": 67,
                    "time": 376.50737999999404,
                    "velocity": 0.25984251968503935,
                    "duration": 0.2203343749999931
                },
                {
                    "name": "E4",
                    "midi": 64,
                    "time": 376.50737999999404,
                    "velocity": 0.2204724409448819,
                    "duration": 0.2203343749999931
                },
                {
                    "name": "F4",
                    "midi": 65,
                    "time": 376.71890099999405,
                    "velocity": 0.1968503937007874,
                    "duration": 0.2203343749999931
                },
                {
                    "name": "G#4",
                    "midi": 68,
                    "time": 376.71890099999405,
                    "velocity": 0.23622047244094488,
                    "duration": 0.2203343749999931
                },
                {
                    "name": "G4",
                    "midi": 67,
                    "time": 376.93042199999405,
                    "velocity": 0.29133858267716534,
                    "duration": 0.2203343749999931
                },
                {
                    "name": "E4",
                    "midi": 64,
                    "time": 376.93042199999405,
                    "velocity": 0.2440944881889764,
                    "duration": 0.2203343749999931
                },
                {
                    "name": "G#4",
                    "midi": 68,
                    "time": 377.14194299999406,
                    "velocity": 0.25196850393700787,
                    "duration": 0.2203343749999931
                },
                {
                    "name": "F4",
                    "midi": 65,
                    "time": 377.14194299999406,
                    "velocity": 0.2125984251968504,
                    "duration": 0.2203343749999931
                },
                {
                    "name": "E4",
                    "midi": 64,
                    "time": 377.35346399999406,
                    "velocity": 0.2440944881889764,
                    "duration": 0.2203343749999931
                },
                {
                    "name": "G4",
                    "midi": 67,
                    "time": 377.35346399999406,
                    "velocity": 0.29133858267716534,
                    "duration": 0.2203343749999931
                },
                {
                    "name": "F4",
                    "midi": 65,
                    "time": 377.56498499999407,
                    "velocity": 0.2204724409448819,
                    "duration": 0.2203343749999931
                },
                {
                    "name": "G#4",
                    "midi": 68,
                    "time": 377.56498499999407,
                    "velocity": 0.2677165354330709,
                    "duration": 0.2203343749999931
                },
                {
                    "name": "G4",
                    "midi": 67,
                    "time": 377.7765059999941,
                    "velocity": 0.29133858267716534,
                    "duration": 0.2203343749999931
                },
                {
                    "name": "E4",
                    "midi": 64,
                    "time": 377.7765059999941,
                    "velocity": 0.2440944881889764,
                    "duration": 0.2203343749999931
                },
                {
                    "name": "G#4",
                    "midi": 68,
                    "time": 377.9880269999941,
                    "velocity": 0.2677165354330709,
                    "duration": 0.2203343749999931
                },
                {
                    "name": "F4",
                    "midi": 65,
                    "time": 377.9880269999941,
                    "velocity": 0.2204724409448819,
                    "duration": 0.2203343749999931
                },
                {
                    "name": "E4",
                    "midi": 64,
                    "time": 378.1995479999941,
                    "velocity": 0.2440944881889764,
                    "duration": 0.21152100000000473
                },
                {
                    "name": "G4",
                    "midi": 67,
                    "time": 378.1995479999941,
                    "velocity": 0.29133858267716534,
                    "duration": 0.21152100000000473
                },
                {
                    "name": "F#4",
                    "midi": 66,
                    "time": 378.4110689999941,
                    "velocity": 0.25984251968503935,
                    "duration": 0.2203343749999931
                },
                {
                    "name": "D#4",
                    "midi": 63,
                    "time": 378.4110689999941,
                    "velocity": 0.25984251968503935,
                    "duration": 0.2203343749999931
                },
                {
                    "name": "E4",
                    "midi": 64,
                    "time": 378.6225899999941,
                    "velocity": 0.2755905511811024,
                    "duration": 0.2203343749999931
                },
                {
                    "name": "G4",
                    "midi": 67,
                    "time": 378.6225899999941,
                    "velocity": 0.2755905511811024,
                    "duration": 0.2203343749999931
                },
                {
                    "name": "A4",
                    "midi": 69,
                    "time": 378.8341109999941,
                    "velocity": 0.28346456692913385,
                    "duration": 0.2203343749999931
                },
                {
                    "name": "F#4",
                    "midi": 66,
                    "time": 378.8341109999941,
                    "velocity": 0.28346456692913385,
                    "duration": 0.2203343749999931
                },
                {
                    "name": "A#4",
                    "midi": 70,
                    "time": 379.0456319999941,
                    "velocity": 0.2992125984251969,
                    "duration": 0.2203343749999931
                },
                {
                    "name": "G4",
                    "midi": 67,
                    "time": 379.0456319999941,
                    "velocity": 0.2992125984251969,
                    "duration": 0.2203343749999931
                },
                {
                    "name": "C5",
                    "midi": 72,
                    "time": 379.2571529999941,
                    "velocity": 0.31496062992125984,
                    "duration": 0.2203343749999931
                },
                {
                    "name": "A4",
                    "midi": 69,
                    "time": 379.2571529999941,
                    "velocity": 0.31496062992125984,
                    "duration": 0.2203343749999931
                },
                {
                    "name": "D5",
                    "midi": 74,
                    "time": 379.4686739999941,
                    "velocity": 0.33070866141732286,
                    "duration": 0.42304200000000947
                },
                {
                    "name": "A#4",
                    "midi": 70,
                    "time": 379.4686739999941,
                    "velocity": 0.2755905511811024,
                    "duration": 0.42304200000000947
                },
                {
                    "name": "F4",
                    "midi": 65,
                    "time": 379.8917159999941,
                    "velocity": 0.2677165354330709,
                    "duration": 0.42304200000000947
                },
                {
                    "name": "A#4",
                    "midi": 70,
                    "time": 379.8917159999941,
                    "velocity": 0.2677165354330709,
                    "duration": 0.42304200000000947
                },
                {
                    "name": "D5",
                    "midi": 74,
                    "time": 379.8917159999941,
                    "velocity": 0.31496062992125984,
                    "duration": 0.42304200000000947
                },
                {
                    "name": "A#4",
                    "midi": 70,
                    "time": 380.31475799999413,
                    "velocity": 0.2677165354330709,
                    "duration": 0.42304200000000947
                },
                {
                    "name": "D5",
                    "midi": 74,
                    "time": 380.31475799999413,
                    "velocity": 0.31496062992125984,
                    "duration": 0.42304200000000947
                },
                {
                    "name": "F4",
                    "midi": 65,
                    "time": 380.31475799999413,
                    "velocity": 0.2677165354330709,
                    "duration": 0.42304200000000947
                },
                {
                    "name": "D5",
                    "midi": 74,
                    "time": 380.73779999999414,
                    "velocity": 0.33070866141732286,
                    "duration": 0.8460840000000189
                },
                {
                    "name": "F4",
                    "midi": 65,
                    "time": 380.73779999999414,
                    "velocity": 0.2755905511811024,
                    "duration": 1.2691260000000284
                },
                {
                    "name": "A#4",
                    "midi": 70,
                    "time": 380.73779999999414,
                    "velocity": 0.2755905511811024,
                    "duration": 0.8460840000000189
                },
                {
                    "name": "A4",
                    "midi": 69,
                    "time": 381.58388399999416,
                    "velocity": 0.2204724409448819,
                    "duration": 0.42304200000000947
                },
                {
                    "name": "C5",
                    "midi": 72,
                    "time": 381.58388399999416,
                    "velocity": 0.2677165354330709,
                    "duration": 0.42304200000000947
                },
                {
                    "name": "E4",
                    "midi": 64,
                    "time": 382.00692599999417,
                    "velocity": 0.2755905511811024,
                    "duration": 0.42304200000000947
                },
                {
                    "name": "G4",
                    "midi": 67,
                    "time": 382.00692599999417,
                    "velocity": 0.2755905511811024,
                    "duration": 0.42304200000000947
                },
                {
                    "name": "C5",
                    "midi": 72,
                    "time": 382.00692599999417,
                    "velocity": 0.33070866141732286,
                    "duration": 0.21152100000000473
                },
                {
                    "name": "A#4",
                    "midi": 70,
                    "time": 382.21844699999417,
                    "velocity": 0.2992125984251969,
                    "duration": 0.21152100000000473
                },
                {
                    "name": "A#4",
                    "midi": 70,
                    "time": 382.4299679999942,
                    "velocity": 0.33070866141732286,
                    "duration": 0.42304200000000947
                },
                {
                    "name": "E4",
                    "midi": 64,
                    "time": 382.4299679999942,
                    "velocity": 0.2755905511811024,
                    "duration": 0.42304200000000947
                },
                {
                    "name": "G4",
                    "midi": 67,
                    "time": 382.4299679999942,
                    "velocity": 0.2755905511811024,
                    "duration": 0.42304200000000947
                },
                {
                    "name": "A#4",
                    "midi": 70,
                    "time": 382.8530099999942,
                    "velocity": 0.2992125984251969,
                    "duration": 0.42304200000000947
                },
                {
                    "name": "G4",
                    "midi": 67,
                    "time": 382.8530099999942,
                    "velocity": 0.25196850393700787,
                    "duration": 0.42304200000000947
                },
                {
                    "name": "E4",
                    "midi": 64,
                    "time": 382.8530099999942,
                    "velocity": 0.25196850393700787,
                    "duration": 0.42304200000000947
                },
                {
                    "name": "E4",
                    "midi": 64,
                    "time": 383.2760519999942,
                    "velocity": 0.2755905511811024,
                    "duration": 0.8460840000000189
                },
                {
                    "name": "G4",
                    "midi": 67,
                    "time": 383.2760519999942,
                    "velocity": 0.2755905511811024,
                    "duration": 0.8460840000000189
                },
                {
                    "name": "A#4",
                    "midi": 70,
                    "time": 383.2760519999942,
                    "velocity": 0.33070866141732286,
                    "duration": 0.8460840000000189
                },
                {
                    "name": "A4",
                    "midi": 69,
                    "time": 384.1221359999942,
                    "velocity": 0.30708661417322836,
                    "duration": 0.42304200000000947
                },
                {
                    "name": "F4",
                    "midi": 65,
                    "time": 384.1221359999942,
                    "velocity": 0.25984251968503935,
                    "duration": 0.42304200000000947
                },
                {
                    "name": "C5",
                    "midi": 72,
                    "time": 384.5451779999942,
                    "velocity": 0.33070866141732286,
                    "duration": 0.21152100000000473
                },
                {
                    "name": "A4",
                    "midi": 69,
                    "time": 384.5451779999942,
                    "velocity": 0.2755905511811024,
                    "duration": 0.21152100000000473
                },
                {
                    "name": "A#4",
                    "midi": 70,
                    "time": 384.7566989999942,
                    "velocity": 0.29133858267716534,
                    "duration": 0.21152100000000473
                },
                {
                    "name": "G4",
                    "midi": 67,
                    "time": 384.7566989999942,
                    "velocity": 0.2440944881889764,
                    "duration": 0.21152100000000473
                },
                {
                    "name": "F4",
                    "midi": 65,
                    "time": 384.96821999999423,
                    "velocity": 0.2755905511811024,
                    "duration": 0.42304200000000947
                },
                {
                    "name": "A4",
                    "midi": 69,
                    "time": 384.96821999999423,
                    "velocity": 0.33070866141732286,
                    "duration": 0.42304200000000947
                },
                {
                    "name": "E4",
                    "midi": 64,
                    "time": 385.39126199999424,
                    "velocity": 0.23622047244094488,
                    "duration": 0.42304200000000947
                },
                {
                    "name": "G4",
                    "midi": 67,
                    "time": 385.39126199999424,
                    "velocity": 0.28346456692913385,
                    "duration": 0.42304200000000947
                },
                {
                    "name": "F4",
                    "midi": 65,
                    "time": 385.81430399999425,
                    "velocity": 0.2755905511811024,
                    "duration": 0.21152100000000473
                },
                {
                    "name": "A4",
                    "midi": 69,
                    "time": 385.81430399999425,
                    "velocity": 0.33070866141732286,
                    "duration": 0.21152100000000473
                },
                {
                    "name": "F5",
                    "midi": 77,
                    "time": 386.02582499999426,
                    "velocity": 0.2755905511811024,
                    "duration": 0.19389425000002802
                },
                {
                    "name": "G5",
                    "midi": 79,
                    "time": 386.23734599999426,
                    "velocity": 0.29133858267716534,
                    "duration": 0.19389425000002802
                },
                {
                    "name": "A5",
                    "midi": 81,
                    "time": 386.44886699999427,
                    "velocity": 0.2992125984251969,
                    "duration": 0.19389425000002802
                },
                {
                    "name": "A#5",
                    "midi": 82,
                    "time": 386.66038799999427,
                    "velocity": 0.31496062992125984,
                    "duration": 0.19389425000002802
                },
                {
                    "name": "C6",
                    "midi": 84,
                    "time": 386.8719089999943,
                    "velocity": 0.3228346456692913,
                    "duration": 0.19389425000002802
                },
                {
                    "name": "D6",
                    "midi": 86,
                    "time": 387.0834299999943,
                    "velocity": 0.36220472440944884,
                    "duration": 0.42304200000000947
                },
                {
                    "name": "D6",
                    "midi": 86,
                    "time": 387.5064719999943,
                    "velocity": 0.3464566929133858,
                    "duration": 0.42304200000000947
                },
                {
                    "name": "D6",
                    "midi": 86,
                    "time": 387.9295139999943,
                    "velocity": 0.3464566929133858,
                    "duration": 0.42304200000000947
                },
                {
                    "name": "D6",
                    "midi": 86,
                    "time": 388.3525559999943,
                    "velocity": 0.36220472440944884,
                    "duration": 0.6345630000000142
                },
                {
                    "name": "E6",
                    "midi": 88,
                    "time": 388.9871189999943,
                    "velocity": 0.30708661417322836,
                    "duration": 0.10576049999997394
                },
                {
                    "name": "D6",
                    "midi": 86,
                    "time": 389.0928794999943,
                    "velocity": 0.30708661417322836,
                    "duration": 0.10576049999997394
                },
                {
                    "name": "C6",
                    "midi": 84,
                    "time": 389.19863999999427,
                    "velocity": 0.36220472440944884,
                    "duration": 0.42304200000000947
                },
                {
                    "name": "C6",
                    "midi": 84,
                    "time": 389.6216819999943,
                    "velocity": 0.36220472440944884,
                    "duration": 0.21152100000000473
                },
                {
                    "name": "E5",
                    "midi": 76,
                    "time": 389.6216819999943,
                    "velocity": 0.2755905511811024,
                    "duration": 0.42304200000000947
                },
                {
                    "name": "A#5",
                    "midi": 82,
                    "time": 389.8332029999943,
                    "velocity": 0.3228346456692913,
                    "duration": 0.21152100000000473
                },
                {
                    "name": "E5",
                    "midi": 76,
                    "time": 390.0447239999943,
                    "velocity": 0.2755905511811024,
                    "duration": 0.42304200000000947
                },
                {
                    "name": "A#5",
                    "midi": 82,
                    "time": 390.0447239999943,
                    "velocity": 0.36220472440944884,
                    "duration": 0.42304200000000947
                },
                {
                    "name": "A#5",
                    "midi": 82,
                    "time": 390.4677659999943,
                    "velocity": 0.3228346456692913,
                    "duration": 0.42304200000000947
                },
                {
                    "name": "E5",
                    "midi": 76,
                    "time": 390.4677659999943,
                    "velocity": 0.25196850393700787,
                    "duration": 0.42304200000000947
                },
                {
                    "name": "E5",
                    "midi": 76,
                    "time": 390.8908079999943,
                    "velocity": 0.2755905511811024,
                    "duration": 0.8460840000000189
                },
                {
                    "name": "A#5",
                    "midi": 82,
                    "time": 390.8908079999943,
                    "velocity": 0.36220472440944884,
                    "duration": 0.8460840000000189
                },
                {
                    "name": "A5",
                    "midi": 81,
                    "time": 391.7368919999943,
                    "velocity": 0.33070866141732286,
                    "duration": 0.42304200000000947
                },
                {
                    "name": "F5",
                    "midi": 77,
                    "time": 391.7368919999943,
                    "velocity": 0.25984251968503935,
                    "duration": 0.42304200000000947
                },
                {
                    "name": "C6",
                    "midi": 84,
                    "time": 392.15993399999434,
                    "velocity": 0.36220472440944884,
                    "duration": 0.21152100000000473
                },
                {
                    "name": "A5",
                    "midi": 81,
                    "time": 392.15993399999434,
                    "velocity": 0.2755905511811024,
                    "duration": 0.21152100000000473
                },
                {
                    "name": "A#5",
                    "midi": 82,
                    "time": 392.37145499999434,
                    "velocity": 0.31496062992125984,
                    "duration": 0.21152100000000473
                },
                {
                    "name": "G5",
                    "midi": 79,
                    "time": 392.37145499999434,
                    "velocity": 0.2440944881889764,
                    "duration": 0.21152100000000473
                },
                {
                    "name": "A5",
                    "midi": 81,
                    "time": 392.58297599999435,
                    "velocity": 0.36220472440944884,
                    "duration": 0.42304200000000947
                },
                {
                    "name": "F5",
                    "midi": 77,
                    "time": 392.58297599999435,
                    "velocity": 0.2755905511811024,
                    "duration": 0.42304200000000947
                },
                {
                    "name": "E5",
                    "midi": 76,
                    "time": 393.00601799999436,
                    "velocity": 0.23622047244094488,
                    "duration": 0.42304200000000947
                },
                {
                    "name": "G5",
                    "midi": 79,
                    "time": 393.00601799999436,
                    "velocity": 0.30708661417322836,
                    "duration": 0.42304200000000947
                },
                {
                    "name": "C6",
                    "midi": 84,
                    "time": 393.42905999999437,
                    "velocity": 0.49606299212598426,
                    "duration": 0.10576049999997394
                },
                {
                    "name": "A5",
                    "midi": 81,
                    "time": 393.42905999999437,
                    "velocity": 0.49606299212598426,
                    "duration": 0.10576049999997394
                },
                {
                    "name": "C6",
                    "midi": 84,
                    "time": 393.6405809999943,
                    "velocity": 0.3937007874015748,
                    "duration": 0.10576049999997394
                },
                {
                    "name": "A5",
                    "midi": 81,
                    "time": 393.6405809999943,
                    "velocity": 0.3937007874015748,
                    "duration": 0.10576049999997394
                },
                {
                    "name": "G5",
                    "midi": 79,
                    "time": 394.06362299999427,
                    "velocity": 0.25984251968503935,
                    "duration": 0.10576049999997394
                },
                {
                    "name": "A#5",
                    "midi": 82,
                    "time": 394.06362299999427,
                    "velocity": 0.25984251968503935,
                    "duration": 0.10576049999997394
                },
                {
                    "name": "F5",
                    "midi": 77,
                    "time": 394.4866649999942,
                    "velocity": 0.25984251968503935,
                    "duration": 0.10576049999997394
                },
                {
                    "name": "A5",
                    "midi": 81,
                    "time": 394.4866649999942,
                    "velocity": 0.25984251968503935,
                    "duration": 0.10576049999997394
                },
                {
                    "name": "G5",
                    "midi": 79,
                    "time": 394.90970699999417,
                    "velocity": 0.25984251968503935,
                    "duration": 0.10576049999997394
                },
                {
                    "name": "A#4",
                    "midi": 70,
                    "time": 394.90970699999417,
                    "velocity": 0.25984251968503935,
                    "duration": 0.10576049999997394
                },
                {
                    "name": "F5",
                    "midi": 77,
                    "time": 395.3327489999941,
                    "velocity": 0.25984251968503935,
                    "duration": 0.10576049999997394
                },
                {
                    "name": "A4",
                    "midi": 69,
                    "time": 395.3327489999941,
                    "velocity": 0.25984251968503935,
                    "duration": 0.10576049999997394
                },
                {
                    "name": "G4",
                    "midi": 67,
                    "time": 395.7557909999941,
                    "velocity": 0.25984251968503935,
                    "duration": 0.10576049999997394
                },
                {
                    "name": "E5",
                    "midi": 76,
                    "time": 395.7557909999941,
                    "velocity": 0.25984251968503935,
                    "duration": 0.10576049999997394
                },
                {
                    "name": "A5",
                    "midi": 81,
                    "time": 396.07307249999405,
                    "velocity": 0.5669291338582677,
                    "duration": 0.10576049999997394
                },
                {
                    "name": "C6",
                    "midi": 84,
                    "time": 396.17883299999403,
                    "velocity": 0.5905511811023622,
                    "duration": 0.10576049999997394
                },
                {
                    "name": "A5",
                    "midi": 81,
                    "time": 396.284593499994,
                    "velocity": 0.5669291338582677,
                    "duration": 0.10576049999997394
                },
                {
                    "name": "G5",
                    "midi": 79,
                    "time": 396.49611449999395,
                    "velocity": 0.5511811023622047,
                    "duration": 0.10576049999997394
                },
                {
                    "name": "A#5",
                    "midi": 82,
                    "time": 396.6018749999939,
                    "velocity": 0.5905511811023622,
                    "duration": 0.10576049999997394
                },
                {
                    "name": "G5",
                    "midi": 79,
                    "time": 396.7076354999939,
                    "velocity": 0.5511811023622047,
                    "duration": 0.10576049999997394
                },
                {
                    "name": "F5",
                    "midi": 77,
                    "time": 396.91915649999385,
                    "velocity": 0.5669291338582677,
                    "duration": 0.10576049999997394
                },
                {
                    "name": "A5",
                    "midi": 81,
                    "time": 397.0249169999938,
                    "velocity": 0.5905511811023622,
                    "duration": 0.10576049999997394
                },
                {
                    "name": "F5",
                    "midi": 77,
                    "time": 397.1306774999938,
                    "velocity": 0.5590551181102362,
                    "duration": 0.10576049999997394
                },
                {
                    "name": "A#4",
                    "midi": 70,
                    "time": 397.34219849999374,
                    "velocity": 0.5590551181102362,
                    "duration": 0.10576049999997394
                },
                {
                    "name": "G5",
                    "midi": 79,
                    "time": 397.4479589999937,
                    "velocity": 0.5905511811023622,
                    "duration": 0.10576049999997394
                },
                {
                    "name": "A#4",
                    "midi": 70,
                    "time": 397.5537194999937,
                    "velocity": 0.5590551181102362,
                    "duration": 0.10576049999997394
                },
                {
                    "name": "A4",
                    "midi": 69,
                    "time": 397.76524049999364,
                    "velocity": 0.5590551181102362,
                    "duration": 0.10576049999997394
                },
                {
                    "name": "F5",
                    "midi": 77,
                    "time": 397.8710009999936,
                    "velocity": 0.5905511811023622,
                    "duration": 0.10576049999997394
                },
                {
                    "name": "A4",
                    "midi": 69,
                    "time": 397.9767614999936,
                    "velocity": 0.5590551181102362,
                    "duration": 0.10576049999997394
                },
                {
                    "name": "G4",
                    "midi": 67,
                    "time": 398.18828249999353,
                    "velocity": 0.5590551181102362,
                    "duration": 0.10576049999997394
                },
                {
                    "name": "E5",
                    "midi": 76,
                    "time": 398.2940429999935,
                    "velocity": 0.5905511811023622,
                    "duration": 0.10576049999997394
                },
                {
                    "name": "G4",
                    "midi": 67,
                    "time": 398.3998034999935,
                    "velocity": 0.5590551181102362,
                    "duration": 0.10576049999997394
                },
                {
                    "name": "A4",
                    "midi": 69,
                    "time": 398.50556399999346,
                    "velocity": 0.5905511811023622,
                    "duration": 0.42304200000000947
                },
                {
                    "name": "C5",
                    "midi": 72,
                    "time": 398.50556399999346,
                    "velocity": 0.5905511811023622,
                    "duration": 0.42304200000000947
                },
                {
                    "name": "F5",
                    "midi": 77,
                    "time": 398.50556399999346,
                    "velocity": 0.5905511811023622,
                    "duration": 0.42304200000000947
                },
                {
                    "name": "A4",
                    "midi": 69,
                    "time": 399.3516479999935,
                    "velocity": 0.5511811023622047,
                    "duration": 0.05288024999998697
                },
                {
                    "name": "A#4",
                    "midi": 70,
                    "time": 399.40452824999346,
                    "velocity": 0.5118110236220472,
                    "duration": 0.05288024999998697
                },
                {
                    "name": "A4",
                    "midi": 69,
                    "time": 399.45740849999345,
                    "velocity": 0.5511811023622047,
                    "duration": 0.05288024999998697
                },
                {
                    "name": "A#4",
                    "midi": 70,
                    "time": 399.51028874999344,
                    "velocity": 0.5196850393700787,
                    "duration": 0.05288024999998697
                },
                {
                    "name": "A4",
                    "midi": 69,
                    "time": 399.5631689999934,
                    "velocity": 0.5511811023622047,
                    "duration": 0.03525350000001026
                },
                {
                    "name": "A#4",
                    "midi": 70,
                    "time": 399.59842249999343,
                    "velocity": 0.5196850393700787,
                    "duration": 0.03525350000001026
                },
                {
                    "name": "A4",
                    "midi": 69,
                    "time": 399.63367599999344,
                    "velocity": 0.5196850393700787,
                    "duration": 0.03525350000001026
                },
                {
                    "name": "G4",
                    "midi": 67,
                    "time": 399.66892949999345,
                    "velocity": 0.5511811023622047,
                    "duration": 0.05288024999998697
                },
                {
                    "name": "F4",
                    "midi": 65,
                    "time": 399.72180974999344,
                    "velocity": 0.5196850393700787,
                    "duration": 0.05288024999998697
                },
                {
                    "name": "C5",
                    "midi": 72,
                    "time": 399.7746899999934,
                    "velocity": 0.5905511811023622,
                    "duration": 0.8460840000000189
                },
                {
                    "name": "E5",
                    "midi": 76,
                    "time": 400.62077399999345,
                    "velocity": 0.5511811023622047,
                    "duration": 0.05288024999998697
                },
                {
                    "name": "F5",
                    "midi": 77,
                    "time": 400.67365424999343,
                    "velocity": 0.5196850393700787,
                    "duration": 0.05288024999998697
                },
                {
                    "name": "E5",
                    "midi": 76,
                    "time": 400.7265344999934,
                    "velocity": 0.5511811023622047,
                    "duration": 0.05288024999998697
                },
                {
                    "name": "F5",
                    "midi": 77,
                    "time": 400.7794147499934,
                    "velocity": 0.5196850393700787,
                    "duration": 0.05288024999998697
                },
                {
                    "name": "E5",
                    "midi": 76,
                    "time": 400.8322949999934,
                    "velocity": 0.5511811023622047,
                    "duration": 0.03525350000001026
                },
                {
                    "name": "F5",
                    "midi": 77,
                    "time": 400.8675484999934,
                    "velocity": 0.5118110236220472,
                    "duration": 0.03525350000001026
                },
                {
                    "name": "E5",
                    "midi": 76,
                    "time": 400.9028019999934,
                    "velocity": 0.5196850393700787,
                    "duration": 0.03525350000001026
                },
                {
                    "name": "D5",
                    "midi": 74,
                    "time": 400.9380554999934,
                    "velocity": 0.5511811023622047,
                    "duration": 0.05288024999998697
                },
                {
                    "name": "C5",
                    "midi": 72,
                    "time": 400.9909357499934,
                    "velocity": 0.5118110236220472,
                    "duration": 0.05288024999998697
                },
                {
                    "name": "F5",
                    "midi": 77,
                    "time": 401.0438159999934,
                    "velocity": 0.5905511811023622,
                    "duration": 0.8460840000000189
                },
                {
                    "name": "A5",
                    "midi": 81,
                    "time": 401.8898999999934,
                    "velocity": 0.5511811023622047,
                    "duration": 0.05288024999998697
                },
                {
                    "name": "A#5",
                    "midi": 82,
                    "time": 401.9427802499934,
                    "velocity": 0.5118110236220472,
                    "duration": 0.05288024999998697
                },
                {
                    "name": "A5",
                    "midi": 81,
                    "time": 401.9956604999934,
                    "velocity": 0.5511811023622047,
                    "duration": 0.05288024999998697
                },
                {
                    "name": "A#5",
                    "midi": 82,
                    "time": 402.0485407499934,
                    "velocity": 0.5196850393700787,
                    "duration": 0.05288024999998697
                },
                {
                    "name": "A5",
                    "midi": 81,
                    "time": 402.10142099999337,
                    "velocity": 0.5511811023622047,
                    "duration": 0.03525350000001026
                },
                {
                    "name": "A#5",
                    "midi": 82,
                    "time": 402.1366744999934,
                    "velocity": 0.5196850393700787,
                    "duration": 0.03525350000001026
                },
                {
                    "name": "A5",
                    "midi": 81,
                    "time": 402.1719279999934,
                    "velocity": 0.5196850393700787,
                    "duration": 0.03525350000001026
                },
                {
                    "name": "G5",
                    "midi": 79,
                    "time": 402.2071814999934,
                    "velocity": 0.5511811023622047,
                    "duration": 0.05288024999998697
                },
                {
                    "name": "F5",
                    "midi": 77,
                    "time": 402.2600617499934,
                    "velocity": 0.5196850393700787,
                    "duration": 0.05288024999998697
                },
                {
                    "name": "C6",
                    "midi": 84,
                    "time": 402.31294199999337,
                    "velocity": 0.5905511811023622,
                    "duration": 0.21152100000000473
                },
                {
                    "name": "C6",
                    "midi": 84,
                    "time": 402.7359839999934,
                    "velocity": 0.5905511811023622,
                    "duration": 0.21152100000000473
                },
                {
                    "name": "E6",
                    "midi": 88,
                    "time": 403.1590259999934,
                    "velocity": 0.5511811023622047,
                    "duration": 0.05288024999998697
                },
                {
                    "name": "F6",
                    "midi": 89,
                    "time": 403.2119062499934,
                    "velocity": 0.5196850393700787,
                    "duration": 0.05288024999998697
                },
                {
                    "name": "E6",
                    "midi": 88,
                    "time": 403.26478649999336,
                    "velocity": 0.5511811023622047,
                    "duration": 0.05288024999998697
                },
                {
                    "name": "F6",
                    "midi": 89,
                    "time": 403.31766674999335,
                    "velocity": 0.5196850393700787,
                    "duration": 0.05288024999998697
                },
                {
                    "name": "E6",
                    "midi": 88,
                    "time": 403.37054699999334,
                    "velocity": 0.5511811023622047,
                    "duration": 0.03525350000001026
                },
                {
                    "name": "F6",
                    "midi": 89,
                    "time": 403.40580049999335,
                    "velocity": 0.5118110236220472,
                    "duration": 0.03525350000001026
                },
                {
                    "name": "E6",
                    "midi": 88,
                    "time": 403.44105399999336,
                    "velocity": 0.5196850393700787,
                    "duration": 0.03525350000001026
                },
                {
                    "name": "D6",
                    "midi": 86,
                    "time": 403.47630749999337,
                    "velocity": 0.5511811023622047,
                    "duration": 0.05288024999998697
                },
                {
                    "name": "C6",
                    "midi": 84,
                    "time": 403.52918774999335,
                    "velocity": 0.5118110236220472,
                    "duration": 0.05288024999998697
                },
                {
                    "name": "F6",
                    "midi": 89,
                    "time": 403.58206799999334,
                    "velocity": 0.5905511811023622,
                    "duration": 0.10576049999997394
                },
                {
                    "name": "A5",
                    "midi": 81,
                    "time": 404.0051099999933,
                    "velocity": 0.6929133858267716,
                    "duration": 0.6345630000000142
                },
                {
                    "name": "C#5",
                    "midi": 73,
                    "time": 404.6396729999933,
                    "velocity": 0.5905511811023622,
                    "duration": 0.21152100000000473
                },
                {
                    "name": "D5",
                    "midi": 74,
                    "time": 404.8511939999933,
                    "velocity": 0.5905511811023622,
                    "duration": 0.10576049999997394
                },
                {
                    "name": "F5",
                    "midi": 77,
                    "time": 405.27423599999327,
                    "velocity": 0.7007874015748031,
                    "duration": 0.6345630000000142
                },
                {
                    "name": "A4",
                    "midi": 69,
                    "time": 405.9087989999933,
                    "velocity": 0.5905511811023622,
                    "duration": 0.21152100000000473
                },
                {
                    "name": "A#4",
                    "midi": 70,
                    "time": 406.1203199999933,
                    "velocity": 0.5511811023622047,
                    "duration": 0.05288024999998697
                },
                {
                    "name": "C5",
                    "midi": 72,
                    "time": 406.1732002499933,
                    "velocity": 0.5118110236220472,
                    "duration": 0.05288024999998697
                },
                {
                    "name": "A#4",
                    "midi": 70,
                    "time": 406.22608049999326,
                    "velocity": 0.5511811023622047,
                    "duration": 0.05288024999998697
                },
                {
                    "name": "C5",
                    "midi": 72,
                    "time": 406.27896074999325,
                    "velocity": 0.5196850393700787,
                    "duration": 0.05288024999998697
                },
                {
                    "name": "A#4",
                    "midi": 70,
                    "time": 406.33184099999323,
                    "velocity": 0.5511811023622047,
                    "duration": 0.03525350000001026
                },
                {
                    "name": "C5",
                    "midi": 72,
                    "time": 406.36709449999324,
                    "velocity": 0.5196850393700787,
                    "duration": 0.03525350000001026
                },
                {
                    "name": "A#4",
                    "midi": 70,
                    "time": 406.40234799999325,
                    "velocity": 0.5196850393700787,
                    "duration": 0.03525350000001026
                },
                {
                    "name": "A4",
                    "midi": 69,
                    "time": 406.43760149999326,
                    "velocity": 0.5511811023622047,
                    "duration": 0.05288024999998697
                },
                {
                    "name": "G4",
                    "midi": 67,
                    "time": 406.49048174999325,
                    "velocity": 0.5196850393700787,
                    "duration": 0.05288024999998697
                },
                {
                    "name": "C5",
                    "midi": 72,
                    "time": 406.54336199999324,
                    "velocity": 0.6614173228346457,
                    "duration": 0.10576049999997394
                },
                {
                    "name": "C5",
                    "midi": 72,
                    "time": 406.9664039999932,
                    "velocity": 0.5669291338582677,
                    "duration": 0.10576049999997394
                },
                {
                    "name": "G4",
                    "midi": 67,
                    "time": 406.9664039999932,
                    "velocity": 0.5669291338582677,
                    "duration": 0.10576049999997394
                },
                {
                    "name": "E5",
                    "midi": 76,
                    "time": 406.9664039999932,
                    "velocity": 0.6771653543307087,
                    "duration": 0.10576049999997394
                },
                {
                    "name": "F5",
                    "midi": 77,
                    "time": 407.38944599999314,
                    "velocity": 0.6771653543307087,
                    "duration": 0.10576049999997394
                },
                {
                    "name": "A4",
                    "midi": 69,
                    "time": 407.38944599999314,
                    "velocity": 0.5669291338582677,
                    "duration": 0.10576049999997394
                },
                {
                    "name": "C5",
                    "midi": 72,
                    "time": 407.38944599999314,
                    "velocity": 0.5669291338582677,
                    "duration": 0.10576049999997394
                },
                {
                    "name": "F4",
                    "midi": 65,
                    "time": 407.8124879999931,
                    "velocity": 0.6220472440944882,
                    "duration": 0.10576049999997394
                },
                {
                    "name": "G4",
                    "midi": 67,
                    "time": 408.65857199999306,
                    "velocity": 0.3937007874015748,
                    "duration": 1.2691260000000284
                },
                {
                    "name": "C5",
                    "midi": 72,
                    "time": 409.08161399999307,
                    "velocity": 0.36220472440944884,
                    "duration": 0.42304200000000947
                },
                {
                    "name": "E5",
                    "midi": 76,
                    "time": 409.5046559999931,
                    "velocity": 0.36220472440944884,
                    "duration": 0.42304200000000947
                },
                {
                    "name": "G4",
                    "midi": 67,
                    "time": 409.9276979999931,
                    "velocity": 0.3543307086614173,
                    "duration": 1.2691260000000284
                },
                {
                    "name": "E5",
                    "midi": 76,
                    "time": 409.9276979999931,
                    "velocity": 0.41732283464566927,
                    "duration": 0.8460840000000189
                },
                {
                    "name": "C5",
                    "midi": 72,
                    "time": 409.9276979999931,
                    "velocity": 0.3779527559055118,
                    "duration": 0.8460840000000189
                },
                {
                    "name": "B4",
                    "midi": 71,
                    "time": 410.7737819999931,
                    "velocity": 0.33858267716535434,
                    "duration": 0.42304200000000947
                },
                {
                    "name": "D5",
                    "midi": 74,
                    "time": 410.7737819999931,
                    "velocity": 0.33858267716535434,
                    "duration": 0.42304200000000947
                },
                {
                    "name": "G5",
                    "midi": 79,
                    "time": 411.1968239999931,
                    "velocity": 0.3937007874015748,
                    "duration": 0.42304200000000947
                },
                {
                    "name": "C5",
                    "midi": 72,
                    "time": 411.6198659999931,
                    "velocity": 0.36220472440944884,
                    "duration": 0.42304200000000947
                },
                {
                    "name": "G4",
                    "midi": 67,
                    "time": 411.6198659999931,
                    "velocity": 0.31496062992125984,
                    "duration": 0.8460840000000189
                },
                {
                    "name": "E5",
                    "midi": 76,
                    "time": 412.04290799999313,
                    "velocity": 0.36220472440944884,
                    "duration": 0.42304200000000947
                },
                {
                    "name": "G4",
                    "midi": 67,
                    "time": 412.46594999999314,
                    "velocity": 0.3543307086614173,
                    "duration": 1.2691260000000284
                },
                {
                    "name": "C5",
                    "midi": 72,
                    "time": 412.46594999999314,
                    "velocity": 0.3779527559055118,
                    "duration": 0.8460840000000189
                },
                {
                    "name": "E5",
                    "midi": 76,
                    "time": 412.46594999999314,
                    "velocity": 0.41732283464566927,
                    "duration": 0.8460840000000189
                },
                {
                    "name": "D5",
                    "midi": 74,
                    "time": 413.31203399999316,
                    "velocity": 0.33858267716535434,
                    "duration": 0.42304200000000947
                },
                {
                    "name": "B4",
                    "midi": 71,
                    "time": 413.31203399999316,
                    "velocity": 0.33858267716535434,
                    "duration": 0.42304200000000947
                },
                {
                    "name": "A4",
                    "midi": 69,
                    "time": 413.73507599999317,
                    "velocity": 0.3937007874015748,
                    "duration": 0.42304200000000947
                },
                {
                    "name": "D5",
                    "midi": 74,
                    "time": 414.1581179999932,
                    "velocity": 0.3937007874015748,
                    "duration": 0.42304200000000947
                },
                {
                    "name": "F5",
                    "midi": 77,
                    "time": 414.5811599999932,
                    "velocity": 0.3937007874015748,
                    "duration": 0.42304200000000947
                },
                {
                    "name": "E5",
                    "midi": 76,
                    "time": 415.0042019999932,
                    "velocity": 0.3937007874015748,
                    "duration": 0.42304200000000947
                },
                {
                    "name": "D5",
                    "midi": 74,
                    "time": 415.4272439999932,
                    "velocity": 0.3937007874015748,
                    "duration": 0.42304200000000947
                },
                {
                    "name": "A5",
                    "midi": 81,
                    "time": 415.8502859999932,
                    "velocity": 0.3937007874015748,
                    "duration": 0.8460840000000189
                },
                {
                    "name": "G5",
                    "midi": 79,
                    "time": 416.69636999999324,
                    "velocity": 0.3937007874015748,
                    "duration": 0.42304200000000947
                },
                {
                    "name": "B4",
                    "midi": 71,
                    "time": 417.11941199999325,
                    "velocity": 0.3937007874015748,
                    "duration": 0.42304200000000947
                },
                {
                    "name": "C5",
                    "midi": 72,
                    "time": 417.54245399999326,
                    "velocity": 0.3937007874015748,
                    "duration": 0.21152100000000473
                },
                {
                    "name": "G4",
                    "midi": 67,
                    "time": 417.75397499999326,
                    "velocity": 0.3937007874015748,
                    "duration": 0.21152100000000473
                },
                {
                    "name": "E4",
                    "midi": 64,
                    "time": 417.96549599999327,
                    "velocity": 0.3937007874015748,
                    "duration": 0.21152100000000473
                },
                {
                    "name": "G4",
                    "midi": 67,
                    "time": 418.17701699999327,
                    "velocity": 0.3937007874015748,
                    "duration": 0.21152100000000473
                },
                {
                    "name": "F4",
                    "midi": 65,
                    "time": 418.3885379999933,
                    "velocity": 0.3937007874015748,
                    "duration": 0.21152100000000473
                },
                {
                    "name": "D4",
                    "midi": 62,
                    "time": 418.6000589999933,
                    "velocity": 0.3937007874015748,
                    "duration": 0.21152100000000473
                },
                {
                    "name": "C4",
                    "midi": 60,
                    "time": 418.8115799999933,
                    "velocity": 0.3937007874015748,
                    "duration": 0.3172814999999787
                },
                {
                    "name": "G3",
                    "midi": 55,
                    "time": 419.12886149999326,
                    "velocity": 0.33858267716535434,
                    "duration": 0.10576049999997394
                },
                {
                    "name": "C4",
                    "midi": 60,
                    "time": 419.23462199999324,
                    "velocity": 0.36220472440944884,
                    "duration": 0.42304200000000947
                },
                {
                    "name": "E4",
                    "midi": 64,
                    "time": 419.65766399999325,
                    "velocity": 0.3779527559055118,
                    "duration": 0.42304200000000947
                },
                {
                    "name": "C4",
                    "midi": 60,
                    "time": 420.08070599999326,
                    "velocity": 0.3937007874015748,
                    "duration": 0.8460840000000189
                },
                {
                    "name": "E4",
                    "midi": 64,
                    "time": 420.08070599999326,
                    "velocity": 0.4330708661417323,
                    "duration": 0.8460840000000189
                },
                {
                    "name": "D4",
                    "midi": 62,
                    "time": 420.9267899999933,
                    "velocity": 0.33858267716535434,
                    "duration": 0.42304200000000947
                },
                {
                    "name": "B3",
                    "midi": 59,
                    "time": 420.9267899999933,
                    "velocity": 0.33858267716535434,
                    "duration": 0.42304200000000947
                },
                {
                    "name": "G4",
                    "midi": 67,
                    "time": 421.3498319999933,
                    "velocity": 0.3937007874015748,
                    "duration": 0.42304200000000947
                },
                {
                    "name": "G3",
                    "midi": 55,
                    "time": 421.7728739999933,
                    "velocity": 0.31496062992125984,
                    "duration": 0.8460840000000189
                },
                {
                    "name": "C4",
                    "midi": 60,
                    "time": 421.7728739999933,
                    "velocity": 0.36220472440944884,
                    "duration": 0.42304200000000947
                },
                {
                    "name": "E4",
                    "midi": 64,
                    "time": 422.1959159999933,
                    "velocity": 0.3779527559055118,
                    "duration": 0.42304200000000947
                },
                {
                    "name": "C4",
                    "midi": 60,
                    "time": 422.6189579999933,
                    "velocity": 0.3937007874015748,
                    "duration": 0.8460840000000189
                },
                {
                    "name": "E4",
                    "midi": 64,
                    "time": 422.6189579999933,
                    "velocity": 0.4330708661417323,
                    "duration": 0.8460840000000189
                },
                {
                    "name": "B3",
                    "midi": 59,
                    "time": 423.46504199999333,
                    "velocity": 0.33858267716535434,
                    "duration": 0.42304200000000947
                },
                {
                    "name": "D4",
                    "midi": 62,
                    "time": 423.46504199999333,
                    "velocity": 0.33858267716535434,
                    "duration": 0.42304200000000947
                },
                {
                    "name": "A3",
                    "midi": 57,
                    "time": 423.88808399999334,
                    "velocity": 0.3937007874015748,
                    "duration": 0.42304200000000947
                },
                {
                    "name": "D4",
                    "midi": 62,
                    "time": 424.31112599999335,
                    "velocity": 0.3937007874015748,
                    "duration": 0.42304200000000947
                },
                {
                    "name": "F4",
                    "midi": 65,
                    "time": 424.73416799999336,
                    "velocity": 0.3937007874015748,
                    "duration": 0.42304200000000947
                },
                {
                    "name": "E4",
                    "midi": 64,
                    "time": 425.15720999999337,
                    "velocity": 0.3937007874015748,
                    "duration": 0.42304200000000947
                },
                {
                    "name": "D4",
                    "midi": 62,
                    "time": 425.5802519999934,
                    "velocity": 0.3937007874015748,
                    "duration": 0.42304200000000947
                },
                {
                    "name": "A4",
                    "midi": 69,
                    "time": 426.0032939999934,
                    "velocity": 0.3937007874015748,
                    "duration": 0.8460840000000189
                },
                {
                    "name": "G4",
                    "midi": 67,
                    "time": 426.8493779999934,
                    "velocity": 0.3937007874015748,
                    "duration": 0.42304200000000947
                },
                {
                    "name": "B3",
                    "midi": 59,
                    "time": 427.2724199999934,
                    "velocity": 0.3937007874015748,
                    "duration": 0.42304200000000947
                },
                {
                    "name": "C4",
                    "midi": 60,
                    "time": 427.6954619999934,
                    "velocity": 0.4094488188976378,
                    "duration": 0.21152100000000473
                },
                {
                    "name": "G4",
                    "midi": 67,
                    "time": 427.90698299999343,
                    "velocity": 0.2677165354330709,
                    "duration": 0.21152100000000473
                },
                {
                    "name": "G4",
                    "midi": 67,
                    "time": 428.33002499999344,
                    "velocity": 0.2677165354330709,
                    "duration": 0.10576049999997394
                },
                {
                    "name": "G4",
                    "midi": 67,
                    "time": 428.7530669999934,
                    "velocity": 0.2677165354330709,
                    "duration": 0.10576049999997394
                },
                {
                    "name": "F4",
                    "midi": 65,
                    "time": 428.96458799999334,
                    "velocity": 0.2677165354330709,
                    "duration": 0.10576049999997394
                },
                {
                    "name": "G4",
                    "midi": 67,
                    "time": 428.96458799999334,
                    "velocity": 0.31496062992125984,
                    "duration": 0.10576049999997394
                },
                {
                    "name": "F4",
                    "midi": 65,
                    "time": 429.1761089999933,
                    "velocity": 0.2204724409448819,
                    "duration": 0.10576049999997394
                },
                {
                    "name": "G4",
                    "midi": 67,
                    "time": 429.1761089999933,
                    "velocity": 0.25984251968503935,
                    "duration": 0.10576049999997394
                },
                {
                    "name": "F4",
                    "midi": 65,
                    "time": 429.59915099999324,
                    "velocity": 0.2204724409448819,
                    "duration": 0.10576049999997394
                },
                {
                    "name": "G4",
                    "midi": 67,
                    "time": 429.59915099999324,
                    "velocity": 0.25984251968503935,
                    "duration": 0.10576049999997394
                },
                {
                    "name": "G4",
                    "midi": 67,
                    "time": 430.0221929999932,
                    "velocity": 0.25984251968503935,
                    "duration": 0.10576049999997394
                },
                {
                    "name": "F4",
                    "midi": 65,
                    "time": 430.0221929999932,
                    "velocity": 0.2204724409448819,
                    "duration": 0.10576049999997394
                },
                {
                    "name": "G4",
                    "midi": 67,
                    "time": 430.23371399999314,
                    "velocity": 0.31496062992125984,
                    "duration": 0.10576049999997394
                },
                {
                    "name": "D#4",
                    "midi": 63,
                    "time": 430.23371399999314,
                    "velocity": 0.2677165354330709,
                    "duration": 0.10576049999997394
                },
                {
                    "name": "G4",
                    "midi": 67,
                    "time": 430.4452349999931,
                    "velocity": 0.2677165354330709,
                    "duration": 0.10576049999997394
                },
                {
                    "name": "D#4",
                    "midi": 63,
                    "time": 430.4452349999931,
                    "velocity": 0.2204724409448819,
                    "duration": 0.10576049999997394
                },
                {
                    "name": "G4",
                    "midi": 67,
                    "time": 430.86827699999304,
                    "velocity": 0.2677165354330709,
                    "duration": 0.10576049999997394
                },
                {
                    "name": "D#4",
                    "midi": 63,
                    "time": 430.86827699999304,
                    "velocity": 0.2204724409448819,
                    "duration": 0.10576049999997394
                },
                {
                    "name": "G4",
                    "midi": 67,
                    "time": 431.291318999993,
                    "velocity": 0.2677165354330709,
                    "duration": 0.10576049999997394
                },
                {
                    "name": "D#4",
                    "midi": 63,
                    "time": 431.291318999993,
                    "velocity": 0.2204724409448819,
                    "duration": 0.10576049999997394
                },
                {
                    "name": "F4",
                    "midi": 65,
                    "time": 431.50283999999294,
                    "velocity": 0.2677165354330709,
                    "duration": 0.10576049999997394
                },
                {
                    "name": "G4",
                    "midi": 67,
                    "time": 431.50283999999294,
                    "velocity": 0.31496062992125984,
                    "duration": 0.10576049999997394
                },
                {
                    "name": "F4",
                    "midi": 65,
                    "time": 431.7143609999929,
                    "velocity": 0.2204724409448819,
                    "duration": 0.10576049999997394
                },
                {
                    "name": "G4",
                    "midi": 67,
                    "time": 431.7143609999929,
                    "velocity": 0.25984251968503935,
                    "duration": 0.10576049999997394
                },
                {
                    "name": "F4",
                    "midi": 65,
                    "time": 432.13740299999284,
                    "velocity": 0.2204724409448819,
                    "duration": 0.10576049999997394
                },
                {
                    "name": "G4",
                    "midi": 67,
                    "time": 432.13740299999284,
                    "velocity": 0.25984251968503935,
                    "duration": 0.10576049999997394
                },
                {
                    "name": "F4",
                    "midi": 65,
                    "time": 432.5604449999928,
                    "velocity": 0.18110236220472442,
                    "duration": 0.10576049999997394
                },
                {
                    "name": "G4",
                    "midi": 67,
                    "time": 432.5604449999928,
                    "velocity": 0.25984251968503935,
                    "duration": 0.10576049999997394
                },
                {
                    "name": "D#4",
                    "midi": 63,
                    "time": 432.77196599999274,
                    "velocity": 0.41732283464566927,
                    "duration": 0.10576049999997394
                },
                {
                    "name": "G4",
                    "midi": 67,
                    "time": 432.77196599999274,
                    "velocity": 0.49606299212598426,
                    "duration": 0.10576049999997394
                },
                {
                    "name": "G4",
                    "midi": 67,
                    "time": 432.9834869999927,
                    "velocity": 0.3937007874015748,
                    "duration": 0.10576049999997394
                },
                {
                    "name": "D#4",
                    "midi": 63,
                    "time": 432.9834869999927,
                    "velocity": 0.33070866141732286,
                    "duration": 0.10576049999997394
                },
                {
                    "name": "G4",
                    "midi": 67,
                    "time": 433.40652899999264,
                    "velocity": 0.25984251968503935,
                    "duration": 0.10576049999997394
                },
                {
                    "name": "D#4",
                    "midi": 63,
                    "time": 433.40652899999264,
                    "velocity": 0.2204724409448819,
                    "duration": 0.10576049999997394
                },
                {
                    "name": "D#4",
                    "midi": 63,
                    "time": 433.8295709999926,
                    "velocity": 0.2204724409448819,
                    "duration": 0.10576049999997394
                },
                {
                    "name": "G4",
                    "midi": 67,
                    "time": 433.8295709999926,
                    "velocity": 0.25984251968503935,
                    "duration": 0.10576049999997394
                },
                {
                    "name": "D#4",
                    "midi": 63,
                    "time": 434.04109199999255,
                    "velocity": 0.41732283464566927,
                    "duration": 0.10576049999997394
                },
                {
                    "name": "C4",
                    "midi": 60,
                    "time": 434.04109199999255,
                    "velocity": 0.41732283464566927,
                    "duration": 0.10576049999997394
                },
                {
                    "name": "F#4",
                    "midi": 66,
                    "time": 434.04109199999255,
                    "velocity": 0.49606299212598426,
                    "duration": 0.10576049999997394
                },
                {
                    "name": "D#4",
                    "midi": 63,
                    "time": 434.2526129999925,
                    "velocity": 0.33070866141732286,
                    "duration": 0.10576049999997394
                },
                {
                    "name": "C4",
                    "midi": 60,
                    "time": 434.2526129999925,
                    "velocity": 0.33070866141732286,
                    "duration": 0.10576049999997394
                },
                {
                    "name": "F#4",
                    "midi": 66,
                    "time": 434.2526129999925,
                    "velocity": 0.3937007874015748,
                    "duration": 0.10576049999997394
                },
                {
                    "name": "F#4",
                    "midi": 66,
                    "time": 434.67565499999245,
                    "velocity": 0.25984251968503935,
                    "duration": 0.10576049999997394
                },
                {
                    "name": "D#4",
                    "midi": 63,
                    "time": 434.67565499999245,
                    "velocity": 0.2204724409448819,
                    "duration": 0.10576049999997394
                },
                {
                    "name": "C4",
                    "midi": 60,
                    "time": 434.67565499999245,
                    "velocity": 0.2204724409448819,
                    "duration": 0.10576049999997394
                },
                {
                    "name": "C4",
                    "midi": 60,
                    "time": 435.0986969999924,
                    "velocity": 0.2204724409448819,
                    "duration": 0.10576049999997394
                },
                {
                    "name": "D#4",
                    "midi": 63,
                    "time": 435.0986969999924,
                    "velocity": 0.2204724409448819,
                    "duration": 0.10576049999997394
                },
                {
                    "name": "F#4",
                    "midi": 66,
                    "time": 435.0986969999924,
                    "velocity": 0.25984251968503935,
                    "duration": 0.10576049999997394
                },
                {
                    "name": "D4",
                    "midi": 62,
                    "time": 435.31021799999235,
                    "velocity": 0.41732283464566927,
                    "duration": 0.10576049999997394
                },
                {
                    "name": "G4",
                    "midi": 67,
                    "time": 435.31021799999235,
                    "velocity": 0.49606299212598426,
                    "duration": 0.10576049999997394
                },
                {
                    "name": "G4",
                    "midi": 67,
                    "time": 435.5217389999923,
                    "velocity": 0.3937007874015748,
                    "duration": 0.10576049999997394
                },
                {
                    "name": "D4",
                    "midi": 62,
                    "time": 435.5217389999923,
                    "velocity": 0.33070866141732286,
                    "duration": 0.10576049999997394
                },
                {
                    "name": "G4",
                    "midi": 67,
                    "time": 435.94478099999225,
                    "velocity": 0.25984251968503935,
                    "duration": 0.10576049999997394
                },
                {
                    "name": "D4",
                    "midi": 62,
                    "time": 435.94478099999225,
                    "velocity": 0.2204724409448819,
                    "duration": 0.10576049999997394
                },
                {
                    "name": "D4",
                    "midi": 62,
                    "time": 436.3678229999922,
                    "velocity": 0.2204724409448819,
                    "duration": 0.10576049999997394
                },
                {
                    "name": "G4",
                    "midi": 67,
                    "time": 436.3678229999922,
                    "velocity": 0.25984251968503935,
                    "duration": 0.10576049999997394
                },
                {
                    "name": "A4",
                    "midi": 69,
                    "time": 436.57934399999215,
                    "velocity": 0.41732283464566927,
                    "duration": 0.10576049999997394
                },
                {
                    "name": "D4",
                    "midi": 62,
                    "time": 436.57934399999215,
                    "velocity": 0.41732283464566927,
                    "duration": 0.10576049999997394
                },
                {
                    "name": "C5",
                    "midi": 72,
                    "time": 436.57934399999215,
                    "velocity": 0.49606299212598426,
                    "duration": 0.10576049999997394
                },
                {
                    "name": "D4",
                    "midi": 62,
                    "time": 436.7908649999921,
                    "velocity": 0.33070866141732286,
                    "duration": 0.10576049999997394
                },
                {
                    "name": "C5",
                    "midi": 72,
                    "time": 436.7908649999921,
                    "velocity": 0.3937007874015748,
                    "duration": 0.10576049999997394
                },
                {
                    "name": "A4",
                    "midi": 69,
                    "time": 436.7908649999921,
                    "velocity": 0.33070866141732286,
                    "duration": 0.10576049999997394
                },
                {
                    "name": "A4",
                    "midi": 69,
                    "time": 437.21390699999205,
                    "velocity": 0.2204724409448819,
                    "duration": 0.10576049999997394
                },
                {
                    "name": "C5",
                    "midi": 72,
                    "time": 437.21390699999205,
                    "velocity": 0.25984251968503935,
                    "duration": 0.10576049999997394
                },
                {
                    "name": "D4",
                    "midi": 62,
                    "time": 437.21390699999205,
                    "velocity": 0.2204724409448819,
                    "duration": 0.10576049999997394
                },
                {
                    "name": "C5",
                    "midi": 72,
                    "time": 437.636948999992,
                    "velocity": 0.25984251968503935,
                    "duration": 0.10576049999997394
                },
                {
                    "name": "D4",
                    "midi": 62,
                    "time": 437.636948999992,
                    "velocity": 0.2204724409448819,
                    "duration": 0.10576049999997394
                },
                {
                    "name": "A4",
                    "midi": 69,
                    "time": 437.636948999992,
                    "velocity": 0.2204724409448819,
                    "duration": 0.10576049999997394
                },
                {
                    "name": "A#4",
                    "midi": 70,
                    "time": 437.84846999999195,
                    "velocity": 0.49606299212598426,
                    "duration": 0.10576049999997394
                },
                {
                    "name": "G4",
                    "midi": 67,
                    "time": 437.84846999999195,
                    "velocity": 0.41732283464566927,
                    "duration": 0.10576049999997394
                },
                {
                    "name": "D4",
                    "midi": 62,
                    "time": 437.84846999999195,
                    "velocity": 0.41732283464566927,
                    "duration": 0.10576049999997394
                },
                {
                    "name": "D4",
                    "midi": 62,
                    "time": 438.0599909999919,
                    "velocity": 0.33070866141732286,
                    "duration": 0.10576049999997394
                },
                {
                    "name": "G4",
                    "midi": 67,
                    "time": 438.0599909999919,
                    "velocity": 0.33070866141732286,
                    "duration": 0.10576049999997394
                },
                {
                    "name": "A#4",
                    "midi": 70,
                    "time": 438.0599909999919,
                    "velocity": 0.3937007874015748,
                    "duration": 0.10576049999997394
                },
                {
                    "name": "D4",
                    "midi": 62,
                    "time": 438.48303299999185,
                    "velocity": 0.2204724409448819,
                    "duration": 0.10576049999997394
                },
                {
                    "name": "A#4",
                    "midi": 70,
                    "time": 438.48303299999185,
                    "velocity": 0.25984251968503935,
                    "duration": 0.10576049999997394
                },
                {
                    "name": "G4",
                    "midi": 67,
                    "time": 438.48303299999185,
                    "velocity": 0.2204724409448819,
                    "duration": 0.10576049999997394
                },
                {
                    "name": "D4",
                    "midi": 62,
                    "time": 438.9060749999918,
                    "velocity": 0.2204724409448819,
                    "duration": 0.10576049999997394
                },
                {
                    "name": "A#4",
                    "midi": 70,
                    "time": 438.9060749999918,
                    "velocity": 0.25984251968503935,
                    "duration": 0.10576049999997394
                },
                {
                    "name": "G4",
                    "midi": 67,
                    "time": 438.9060749999918,
                    "velocity": 0.2204724409448819,
                    "duration": 0.10576049999997394
                },
                {
                    "name": "A#4",
                    "midi": 70,
                    "time": 439.11759599999175,
                    "velocity": 0.41732283464566927,
                    "duration": 0.10576049999997394
                },
                {
                    "name": "G4",
                    "midi": 67,
                    "time": 439.11759599999175,
                    "velocity": 0.41732283464566927,
                    "duration": 0.10576049999997394
                },
                {
                    "name": "C#5",
                    "midi": 73,
                    "time": 439.11759599999175,
                    "velocity": 0.49606299212598426,
                    "duration": 0.10576049999997394
                },
                {
                    "name": "A#4",
                    "midi": 70,
                    "time": 439.3291169999917,
                    "velocity": 0.33070866141732286,
                    "duration": 0.10576049999997394
                },
                {
                    "name": "C#5",
                    "midi": 73,
                    "time": 439.3291169999917,
                    "velocity": 0.3937007874015748,
                    "duration": 0.10576049999997394
                },
                {
                    "name": "G4",
                    "midi": 67,
                    "time": 439.3291169999917,
                    "velocity": 0.33070866141732286,
                    "duration": 0.10576049999997394
                },
                {
                    "name": "G4",
                    "midi": 67,
                    "time": 439.75215899999165,
                    "velocity": 0.2204724409448819,
                    "duration": 0.10576049999997394
                },
                {
                    "name": "A#4",
                    "midi": 70,
                    "time": 439.75215899999165,
                    "velocity": 0.2204724409448819,
                    "duration": 0.10576049999997394
                },
                {
                    "name": "C#5",
                    "midi": 73,
                    "time": 439.75215899999165,
                    "velocity": 0.25984251968503935,
                    "duration": 0.10576049999997394
                },
                {
                    "name": "C#5",
                    "midi": 73,
                    "time": 440.1752009999916,
                    "velocity": 0.25984251968503935,
                    "duration": 0.10576049999997394
                },
                {
                    "name": "A#4",
                    "midi": 70,
                    "time": 440.1752009999916,
                    "velocity": 0.2204724409448819,
                    "duration": 0.10576049999997394
                },
                {
                    "name": "G4",
                    "midi": 67,
                    "time": 440.1752009999916,
                    "velocity": 0.2204724409448819,
                    "duration": 0.10576049999997394
                },
                {
                    "name": "D5",
                    "midi": 74,
                    "time": 440.38672199999155,
                    "velocity": 0.49606299212598426,
                    "duration": 0.10576049999997394
                },
                {
                    "name": "A4",
                    "midi": 69,
                    "time": 440.38672199999155,
                    "velocity": 0.41732283464566927,
                    "duration": 0.10576049999997394
                },
                {
                    "name": "A4",
                    "midi": 69,
                    "time": 440.5982429999915,
                    "velocity": 0.33070866141732286,
                    "duration": 0.10576049999997394
                },
                {
                    "name": "D5",
                    "midi": 74,
                    "time": 440.5982429999915,
                    "velocity": 0.3937007874015748,
                    "duration": 0.10576049999997394
                },
                {
                    "name": "A4",
                    "midi": 69,
                    "time": 441.02128499999145,
                    "velocity": 0.2204724409448819,
                    "duration": 0.10576049999997394
                },
                {
                    "name": "D5",
                    "midi": 74,
                    "time": 441.02128499999145,
                    "velocity": 0.25984251968503935,
                    "duration": 0.10576049999997394
                },
                {
                    "name": "A4",
                    "midi": 69,
                    "time": 441.4443269999914,
                    "velocity": 0.2204724409448819,
                    "duration": 0.10576049999997394
                },
                {
                    "name": "D5",
                    "midi": 74,
                    "time": 441.4443269999914,
                    "velocity": 0.25984251968503935,
                    "duration": 0.10576049999997394
                },
                {
                    "name": "E5",
                    "midi": 76,
                    "time": 441.65584799999135,
                    "velocity": 0.41732283464566927,
                    "duration": 0.10576049999997394
                },
                {
                    "name": "A4",
                    "midi": 69,
                    "time": 441.65584799999135,
                    "velocity": 0.41732283464566927,
                    "duration": 0.10576049999997394
                },
                {
                    "name": "G5",
                    "midi": 79,
                    "time": 441.65584799999135,
                    "velocity": 0.49606299212598426,
                    "duration": 0.10576049999997394
                },
                {
                    "name": "G5",
                    "midi": 79,
                    "time": 441.8673689999913,
                    "velocity": 0.3937007874015748,
                    "duration": 0.10576049999997394
                },
                {
                    "name": "A4",
                    "midi": 69,
                    "time": 441.8673689999913,
                    "velocity": 0.33070866141732286,
                    "duration": 0.10576049999997394
                },
                {
                    "name": "E5",
                    "midi": 76,
                    "time": 441.8673689999913,
                    "velocity": 0.33070866141732286,
                    "duration": 0.10576049999997394
                },
                {
                    "name": "G5",
                    "midi": 79,
                    "time": 442.29041099999125,
                    "velocity": 0.25984251968503935,
                    "duration": 0.10576049999997394
                },
                {
                    "name": "E5",
                    "midi": 76,
                    "time": 442.29041099999125,
                    "velocity": 0.2204724409448819,
                    "duration": 0.10576049999997394
                },
                {
                    "name": "A4",
                    "midi": 69,
                    "time": 442.29041099999125,
                    "velocity": 0.2204724409448819,
                    "duration": 0.10576049999997394
                },
                {
                    "name": "E5",
                    "midi": 76,
                    "time": 442.7134529999912,
                    "velocity": 0.2204724409448819,
                    "duration": 0.10576049999997394
                },
                {
                    "name": "G5",
                    "midi": 79,
                    "time": 442.7134529999912,
                    "velocity": 0.25984251968503935,
                    "duration": 0.10576049999997394
                },
                {
                    "name": "A4",
                    "midi": 69,
                    "time": 442.7134529999912,
                    "velocity": 0.2204724409448819,
                    "duration": 0.10576049999997394
                },
                {
                    "name": "D5",
                    "midi": 74,
                    "time": 442.92497399999115,
                    "velocity": 0.41732283464566927,
                    "duration": 0.10576049999997394
                },
                {
                    "name": "F5",
                    "midi": 77,
                    "time": 442.92497399999115,
                    "velocity": 0.49606299212598426,
                    "duration": 0.10576049999997394
                },
                {
                    "name": "A4",
                    "midi": 69,
                    "time": 442.92497399999115,
                    "velocity": 0.41732283464566927,
                    "duration": 0.10576049999997394
                },
                {
                    "name": "A4",
                    "midi": 69,
                    "time": 443.1364949999911,
                    "velocity": 0.33070866141732286,
                    "duration": 0.10576049999997394
                },
                {
                    "name": "F5",
                    "midi": 77,
                    "time": 443.1364949999911,
                    "velocity": 0.3937007874015748,
                    "duration": 0.10576049999997394
                },
                {
                    "name": "D5",
                    "midi": 74,
                    "time": 443.1364949999911,
                    "velocity": 0.33070866141732286,
                    "duration": 0.10576049999997394
                },
                {
                    "name": "F5",
                    "midi": 77,
                    "time": 443.55953699999105,
                    "velocity": 0.25984251968503935,
                    "duration": 0.10576049999997394
                },
                {
                    "name": "D5",
                    "midi": 74,
                    "time": 443.55953699999105,
                    "velocity": 0.2204724409448819,
                    "duration": 0.10576049999997394
                },
                {
                    "name": "A4",
                    "midi": 69,
                    "time": 443.55953699999105,
                    "velocity": 0.2204724409448819,
                    "duration": 0.10576049999997394
                },
                {
                    "name": "D5",
                    "midi": 74,
                    "time": 443.982578999991,
                    "velocity": 0.2204724409448819,
                    "duration": 0.10576049999997394
                },
                {
                    "name": "F5",
                    "midi": 77,
                    "time": 443.982578999991,
                    "velocity": 0.25984251968503935,
                    "duration": 0.10576049999997394
                },
                {
                    "name": "A4",
                    "midi": 69,
                    "time": 443.982578999991,
                    "velocity": 0.2204724409448819,
                    "duration": 0.10576049999997394
                },
                {
                    "name": "G#5",
                    "midi": 80,
                    "time": 444.19409999999095,
                    "velocity": 0.5118110236220472,
                    "duration": 0.10576049999997394
                },
                {
                    "name": "D5",
                    "midi": 74,
                    "time": 444.19409999999095,
                    "velocity": 0.41732283464566927,
                    "duration": 0.10576049999997394
                },
                {
                    "name": "G#5",
                    "midi": 80,
                    "time": 444.4056209999909,
                    "velocity": 0.4251968503937008,
                    "duration": 0.10576049999997394
                },
                {
                    "name": "D5",
                    "midi": 74,
                    "time": 444.4056209999909,
                    "velocity": 0.33070866141732286,
                    "duration": 0.10576049999997394
                },
                {
                    "name": "G#5",
                    "midi": 80,
                    "time": 444.82866299999085,
                    "velocity": 0.25984251968503935,
                    "duration": 0.10576049999997394
                },
                {
                    "name": "D5",
                    "midi": 74,
                    "time": 444.82866299999085,
                    "velocity": 0.2204724409448819,
                    "duration": 0.10576049999997394
                },
                {
                    "name": "D5",
                    "midi": 74,
                    "time": 445.2517049999908,
                    "velocity": 0.2204724409448819,
                    "duration": 0.10576049999997394
                },
                {
                    "name": "G#5",
                    "midi": 80,
                    "time": 445.2517049999908,
                    "velocity": 0.25984251968503935,
                    "duration": 0.10576049999997394
                },
                {
                    "name": "A5",
                    "midi": 81,
                    "time": 445.46322599999075,
                    "velocity": 0.2992125984251969,
                    "duration": 0.20711431249998213
                },
                {
                    "name": "C#5",
                    "midi": 73,
                    "time": 445.46322599999075,
                    "velocity": 0.25196850393700787,
                    "duration": 0.20711431249998213
                },
                {
                    "name": "A5",
                    "midi": 81,
                    "time": 445.67474699999076,
                    "velocity": 0.29133858267716534,
                    "duration": 0.2203343749999931
                },
                {
                    "name": "F5",
                    "midi": 77,
                    "time": 445.67474699999076,
                    "velocity": 0.2440944881889764,
                    "duration": 0.2203343749999931
                },
                {
                    "name": "E5",
                    "midi": 76,
                    "time": 445.88626799999076,
                    "velocity": 0.2204724409448819,
                    "duration": 0.2203343749999931
                },
                {
                    "name": "G5",
                    "midi": 79,
                    "time": 445.88626799999076,
                    "velocity": 0.25984251968503935,
                    "duration": 0.2203343749999931
                },
                {
                    "name": "F5",
                    "midi": 77,
                    "time": 446.09778899999077,
                    "velocity": 0.2440944881889764,
                    "duration": 0.2203343749999931
                },
                {
                    "name": "D5",
                    "midi": 74,
                    "time": 446.09778899999077,
                    "velocity": 0.2047244094488189,
                    "duration": 0.2203343749999931
                },
                {
                    "name": "C#5",
                    "midi": 73,
                    "time": 446.3093099999908,
                    "velocity": 0.2204724409448819,
                    "duration": 0.2203343749999931
                },
                {
                    "name": "E5",
                    "midi": 76,
                    "time": 446.3093099999908,
                    "velocity": 0.25984251968503935,
                    "duration": 0.2203343749999931
                },
                {
                    "name": "F5",
                    "midi": 77,
                    "time": 446.5208309999908,
                    "velocity": 0.23622047244094488,
                    "duration": 0.2203343749999931
                },
                {
                    "name": "D5",
                    "midi": 74,
                    "time": 446.5208309999908,
                    "velocity": 0.1968503937007874,
                    "duration": 0.2203343749999931
                },
                {
                    "name": "C#5",
                    "midi": 73,
                    "time": 446.7323519999908,
                    "velocity": 0.25196850393700787,
                    "duration": 0.21152100000000473
                },
                {
                    "name": "E5",
                    "midi": 76,
                    "time": 446.7323519999908,
                    "velocity": 0.2992125984251969,
                    "duration": 0.21152100000000473
                },
                {
                    "name": "A4",
                    "midi": 69,
                    "time": 446.9438729999908,
                    "velocity": 0.29133858267716534,
                    "duration": 0.2203343749999931
                },
                {
                    "name": "F4",
                    "midi": 65,
                    "time": 446.9438729999908,
                    "velocity": 0.2440944881889764,
                    "duration": 0.2203343749999931
                },
                {
                    "name": "G4",
                    "midi": 67,
                    "time": 447.1553939999908,
                    "velocity": 0.25984251968503935,
                    "duration": 0.2203343749999931
                },
                {
                    "name": "E4",
                    "midi": 64,
                    "time": 447.1553939999908,
                    "velocity": 0.2204724409448819,
                    "duration": 0.2203343749999931
                },
                {
                    "name": "D4",
                    "midi": 62,
                    "time": 447.3669149999908,
                    "velocity": 0.2047244094488189,
                    "duration": 0.2203343749999931
                },
                {
                    "name": "F4",
                    "midi": 65,
                    "time": 447.3669149999908,
                    "velocity": 0.2440944881889764,
                    "duration": 0.2203343749999931
                },
                {
                    "name": "E4",
                    "midi": 64,
                    "time": 447.5784359999908,
                    "velocity": 0.25984251968503935,
                    "duration": 0.2203343749999931
                },
                {
                    "name": "C#4",
                    "midi": 61,
                    "time": 447.5784359999908,
                    "velocity": 0.2204724409448819,
                    "duration": 0.2203343749999931
                },
                {
                    "name": "F4",
                    "midi": 65,
                    "time": 447.7899569999908,
                    "velocity": 0.23622047244094488,
                    "duration": 0.2203343749999931
                },
                {
                    "name": "D4",
                    "midi": 62,
                    "time": 447.7899569999908,
                    "velocity": 0.1968503937007874,
                    "duration": 0.2203343749999931
                },
                {
                    "name": "C#4",
                    "midi": 61,
                    "time": 448.0014779999908,
                    "velocity": 0.2440944881889764,
                    "duration": 0.2203343749999931
                },
                {
                    "name": "E4",
                    "midi": 64,
                    "time": 448.0014779999908,
                    "velocity": 0.29133858267716534,
                    "duration": 0.2203343749999931
                },
                {
                    "name": "F4",
                    "midi": 65,
                    "time": 448.2129989999908,
                    "velocity": 0.25196850393700787,
                    "duration": 0.2203343749999931
                },
                {
                    "name": "D4",
                    "midi": 62,
                    "time": 448.2129989999908,
                    "velocity": 0.2125984251968504,
                    "duration": 0.2203343749999931
                },
                {
                    "name": "C#4",
                    "midi": 61,
                    "time": 448.4245199999908,
                    "velocity": 0.2440944881889764,
                    "duration": 0.2203343749999931
                },
                {
                    "name": "E4",
                    "midi": 64,
                    "time": 448.4245199999908,
                    "velocity": 0.29133858267716534,
                    "duration": 0.2203343749999931
                },
                {
                    "name": "F4",
                    "midi": 65,
                    "time": 448.6360409999908,
                    "velocity": 0.2677165354330709,
                    "duration": 0.2203343749999931
                },
                {
                    "name": "D4",
                    "midi": 62,
                    "time": 448.6360409999908,
                    "velocity": 0.2204724409448819,
                    "duration": 0.2203343749999931
                },
                {
                    "name": "C#4",
                    "midi": 61,
                    "time": 448.84756199999083,
                    "velocity": 0.2440944881889764,
                    "duration": 0.2203343749999931
                },
                {
                    "name": "E4",
                    "midi": 64,
                    "time": 448.84756199999083,
                    "velocity": 0.29133858267716534,
                    "duration": 0.2203343749999931
                },
                {
                    "name": "D4",
                    "midi": 62,
                    "time": 449.05908299999084,
                    "velocity": 0.2204724409448819,
                    "duration": 0.21152100000000473
                },
                {
                    "name": "F4",
                    "midi": 65,
                    "time": 449.05908299999084,
                    "velocity": 0.2677165354330709,
                    "duration": 0.21152100000000473
                },
                {
                    "name": "E4",
                    "midi": 64,
                    "time": 449.27060399999084,
                    "velocity": 0.29133858267716534,
                    "duration": 0.42304200000000947
                },
                {
                    "name": "C#4",
                    "midi": 61,
                    "time": 449.27060399999084,
                    "velocity": 0.2440944881889764,
                    "duration": 0.42304200000000947
                },
                {
                    "name": "C4",
                    "midi": 60,
                    "time": 450.53972999999087,
                    "velocity": 0.1889763779527559,
                    "duration": 0.2203343749999931
                },
                {
                    "name": "E4",
                    "midi": 64,
                    "time": 450.53972999999087,
                    "velocity": 0.2283464566929134,
                    "duration": 0.2203343749999931
                },
                {
                    "name": "F4",
                    "midi": 65,
                    "time": 450.7512509999909,
                    "velocity": 0.1968503937007874,
                    "duration": 0.2203343749999931
                },
                {
                    "name": "D4",
                    "midi": 62,
                    "time": 450.7512509999909,
                    "velocity": 0.16535433070866143,
                    "duration": 0.2203343749999931
                },
                {
                    "name": "E4",
                    "midi": 64,
                    "time": 450.9627719999909,
                    "velocity": 0.2283464566929134,
                    "duration": 0.2203343749999931
                },
                {
                    "name": "C4",
                    "midi": 60,
                    "time": 450.9627719999909,
                    "velocity": 0.1889763779527559,
                    "duration": 0.2203343749999931
                },
                {
                    "name": "D4",
                    "midi": 62,
                    "time": 451.1742929999909,
                    "velocity": 0.1732283464566929,
                    "duration": 0.2203343749999931
                },
                {
                    "name": "F4",
                    "midi": 65,
                    "time": 451.1742929999909,
                    "velocity": 0.2125984251968504,
                    "duration": 0.2203343749999931
                },
                {
                    "name": "E4",
                    "midi": 64,
                    "time": 451.3858139999909,
                    "velocity": 0.2283464566929134,
                    "duration": 0.2203343749999931
                },
                {
                    "name": "C4",
                    "midi": 60,
                    "time": 451.3858139999909,
                    "velocity": 0.1889763779527559,
                    "duration": 0.2203343749999931
                },
                {
                    "name": "F4",
                    "midi": 65,
                    "time": 451.5973349999909,
                    "velocity": 0.2125984251968504,
                    "duration": 0.2203343749999931
                },
                {
                    "name": "D4",
                    "midi": 62,
                    "time": 451.5973349999909,
                    "velocity": 0.1732283464566929,
                    "duration": 0.2203343749999931
                },
                {
                    "name": "C4",
                    "midi": 60,
                    "time": 451.8088559999909,
                    "velocity": 0.2440944881889764,
                    "duration": 0.42304200000000947
                },
                {
                    "name": "E4",
                    "midi": 64,
                    "time": 451.8088559999909,
                    "velocity": 0.2283464566929134,
                    "duration": 0.42304200000000947
                },
                {
                    "name": "A#3",
                    "midi": 58,
                    "time": 453.0779819999909,
                    "velocity": 0.3858267716535433,
                    "duration": 1.6921680000000379
                },
                {
                    "name": "C4",
                    "midi": 60,
                    "time": 453.0779819999909,
                    "velocity": 0.3858267716535433,
                    "duration": 1.6921680000000379
                },
                {
                    "name": "E4",
                    "midi": 64,
                    "time": 453.0779819999909,
                    "velocity": 0.4645669291338583,
                    "duration": 0.2203343749999931
                },
                {
                    "name": "F4",
                    "midi": 65,
                    "time": 453.28950299999093,
                    "velocity": 0.4015748031496063,
                    "duration": 0.2203343749999931
                },
                {
                    "name": "E4",
                    "midi": 64,
                    "time": 453.50102399999093,
                    "velocity": 0.4645669291338583,
                    "duration": 0.2203343749999931
                },
                {
                    "name": "F4",
                    "midi": 65,
                    "time": 453.71254499999094,
                    "velocity": 0.4330708661417323,
                    "duration": 0.2203343749999931
                },
                {
                    "name": "E4",
                    "midi": 64,
                    "time": 453.92406599999094,
                    "velocity": 0.4645669291338583,
                    "duration": 0.2203343749999931
                },
                {
                    "name": "F4",
                    "midi": 65,
                    "time": 454.13558699999095,
                    "velocity": 0.4330708661417323,
                    "duration": 0.2203343749999931
                },
                {
                    "name": "E4",
                    "midi": 64,
                    "time": 454.34710799999095,
                    "velocity": 0.4645669291338583,
                    "duration": 0.42304200000000947
                },
                {
                    "name": "E5",
                    "midi": 76,
                    "time": 455.616233999991,
                    "velocity": 0.2440944881889764,
                    "duration": 1.6921680000000379
                },
                {
                    "name": "A#5",
                    "midi": 82,
                    "time": 455.616233999991,
                    "velocity": 0.29133858267716534,
                    "duration": 0.2203343749999931
                },
                {
                    "name": "A5",
                    "midi": 81,
                    "time": 455.827754999991,
                    "velocity": 0.25196850393700787,
                    "duration": 0.2203343749999931
                },
                {
                    "name": "A#5",
                    "midi": 82,
                    "time": 456.039275999991,
                    "velocity": 0.29133858267716534,
                    "duration": 0.2203343749999931
                },
                {
                    "name": "A5",
                    "midi": 81,
                    "time": 456.250796999991,
                    "velocity": 0.2677165354330709,
                    "duration": 0.2203343749999931
                },
                {
                    "name": "A#5",
                    "midi": 82,
                    "time": 456.462317999991,
                    "velocity": 0.29133858267716534,
                    "duration": 0.2203343749999931
                },
                {
                    "name": "A5",
                    "midi": 81,
                    "time": 456.673838999991,
                    "velocity": 0.2677165354330709,
                    "duration": 0.21152100000000473
                },
                {
                    "name": "A#5",
                    "midi": 82,
                    "time": 456.885359999991,
                    "velocity": 0.29133858267716534,
                    "duration": 0.42304200000000947
                },
                {
                    "name": "F4",
                    "midi": 65,
                    "time": 458.15448599999104,
                    "velocity": 0.3937007874015748,
                    "duration": 0.8460840000000189
                },
                {
                    "name": "A4",
                    "midi": 69,
                    "time": 459.00056999999106,
                    "velocity": 0.3700787401574803,
                    "duration": 0.42304200000000947
                },
                {
                    "name": "C5",
                    "midi": 72,
                    "time": 459.42361199999107,
                    "velocity": 0.4094488188976378,
                    "duration": 0.8460840000000189
                },
                {
                    "name": "A4",
                    "midi": 69,
                    "time": 460.2696959999911,
                    "velocity": 0.36220472440944884,
                    "duration": 0.42304200000000947
                },
                {
                    "name": "A#4",
                    "midi": 70,
                    "time": 460.6927379999911,
                    "velocity": 0.3937007874015748,
                    "duration": 0.8460840000000189
                },
                {
                    "name": "G5",
                    "midi": 79,
                    "time": 461.5388219999911,
                    "velocity": 0.3700787401574803,
                    "duration": 0.42304200000000947
                },
                {
                    "name": "F5",
                    "midi": 77,
                    "time": 461.9618639999911,
                    "velocity": 0.3700787401574803,
                    "duration": 0.21152100000000473
                },
                {
                    "name": "E5",
                    "midi": 76,
                    "time": 462.17338499999113,
                    "velocity": 0.3464566929133858,
                    "duration": 0.21152100000000473
                },
                {
                    "name": "E5",
                    "midi": 76,
                    "time": 462.38490599999113,
                    "velocity": 0.3464566929133858,
                    "duration": 0.42304200000000947
                },
                {
                    "name": "F5",
                    "midi": 77,
                    "time": 463.23098999999115,
                    "velocity": 0.3937007874015748,
                    "duration": 0.42304200000000947
                },
                {
                    "name": "A4",
                    "midi": 69,
                    "time": 463.65403199999116,
                    "velocity": 0.36220472440944884,
                    "duration": 0.42304200000000947
                },
                {
                    "name": "D5",
                    "midi": 74,
                    "time": 464.07707399999117,
                    "velocity": 0.36220472440944884,
                    "duration": 0.42304200000000947
                },
                {
                    "name": "G4",
                    "midi": 67,
                    "time": 464.5001159999912,
                    "velocity": 0.3937007874015748,
                    "duration": 0.42304200000000947
                },
                {
                    "name": "C5",
                    "midi": 72,
                    "time": 464.9231579999912,
                    "velocity": 0.4251968503937008,
                    "duration": 0.6345630000000142
                },
                {
                    "name": "A4",
                    "midi": 69,
                    "time": 465.5577209999912,
                    "velocity": 0.3543307086614173,
                    "duration": 0.21152100000000473
                },
                {
                    "name": "F4",
                    "midi": 65,
                    "time": 465.7692419999912,
                    "velocity": 0.3937007874015748,
                    "duration": 1.6921680000000379
                },
                {
                    "name": "G4",
                    "midi": 67,
                    "time": 467.03836799999124,
                    "velocity": 0.3937007874015748,
                    "duration": 1.2691259999999716
                },
                {
                    "name": "E4",
                    "midi": 64,
                    "time": 467.46140999999125,
                    "velocity": 0.33070866141732286,
                    "duration": 0.05288024999998697
                },
                {
                    "name": "F4",
                    "midi": 65,
                    "time": 467.51429024999123,
                    "velocity": 0.29133858267716534,
                    "duration": 0.05288024999998697
                },
                {
                    "name": "E4",
                    "midi": 64,
                    "time": 467.5671704999912,
                    "velocity": 0.3779527559055118,
                    "duration": 0.10576049999997394
                },
                {
                    "name": "D4",
                    "midi": 62,
                    "time": 467.6729309999912,
                    "velocity": 0.3779527559055118,
                    "duration": 0.21152100000000473
                },
                {
                    "name": "E4",
                    "midi": 64,
                    "time": 467.8844519999912,
                    "velocity": 0.3937007874015748,
                    "duration": 0.42304200000000947
                },
                {
                    "name": "A4",
                    "midi": 69,
                    "time": 468.3074939999912,
                    "velocity": 0.3779527559055118,
                    "duration": 0.42304200000000947
                },
                {
                    "name": "F4",
                    "midi": 65,
                    "time": 468.3074939999912,
                    "velocity": 0.3779527559055118,
                    "duration": 1.6921680000000379
                },
                {
                    "name": "A#4",
                    "midi": 70,
                    "time": 468.7305359999912,
                    "velocity": 0.4094488188976378,
                    "duration": 0.42304200000000947
                },
                {
                    "name": "D5",
                    "midi": 74,
                    "time": 469.1535779999912,
                    "velocity": 0.4330708661417323,
                    "duration": 0.42304200000000947
                },
                {
                    "name": "D5",
                    "midi": 74,
                    "time": 469.57661999999124,
                    "velocity": 0.4566929133858268,
                    "duration": 0.21152100000000473
                },
                {
                    "name": "C5",
                    "midi": 72,
                    "time": 469.78814099999124,
                    "velocity": 0.44881889763779526,
                    "duration": 0.21152100000000473
                },
                {
                    "name": "A#4",
                    "midi": 70,
                    "time": 469.99966199999125,
                    "velocity": 0.4409448818897638,
                    "duration": 0.21152100000000473
                },
                {
                    "name": "A4",
                    "midi": 69,
                    "time": 470.21118299999125,
                    "velocity": 0.4251968503937008,
                    "duration": 0.21152100000000473
                },
                {
                    "name": "G4",
                    "midi": 67,
                    "time": 470.42270399999126,
                    "velocity": 0.41732283464566927,
                    "duration": 0.21152100000000473
                },
                {
                    "name": "F4",
                    "midi": 65,
                    "time": 470.63422499999126,
                    "velocity": 0.4015748031496063,
                    "duration": 0.21152100000000473
                },
                {
                    "name": "G4",
                    "midi": 67,
                    "time": 470.84574599999127,
                    "velocity": 0.4251968503937008,
                    "duration": 0.42304200000000947
                },
                {
                    "name": "A#4",
                    "midi": 70,
                    "time": 471.2687879999913,
                    "velocity": 0.3937007874015748,
                    "duration": 0.10576049999997394
                },
                {
                    "name": "A#3",
                    "midi": 58,
                    "time": 471.6918299999912,
                    "velocity": 0.4251968503937008,
                    "duration": 0.42304200000000947
                },
                {
                    "name": "E4",
                    "midi": 64,
                    "time": 471.6918299999912,
                    "velocity": 0.4251968503937008,
                    "duration": 0.42304200000000947
                },
                {
                    "name": "F4",
                    "midi": 65,
                    "time": 472.11487199999124,
                    "velocity": 0.4409448818897638,
                    "duration": 0.42304200000000947
                },
                {
                    "name": "A3",
                    "midi": 57,
                    "time": 472.11487199999124,
                    "velocity": 0.4409448818897638,
                    "duration": 0.42304200000000947
                },
                {
                    "name": "C6",
                    "midi": 84,
                    "time": 472.96095599999126,
                    "velocity": 0.3937007874015748,
                    "duration": 0.3172814999999787
                },
                {
                    "name": "A#5",
                    "midi": 82,
                    "time": 473.27823749999123,
                    "velocity": 0.3464566929133858,
                    "duration": 0.10576049999997394
                },
                {
                    "name": "A5",
                    "midi": 81,
                    "time": 473.3839979999912,
                    "velocity": 0.3937007874015748,
                    "duration": 0.10576049999997394
                },
                {
                    "name": "A5",
                    "midi": 81,
                    "time": 473.80703999999116,
                    "velocity": 0.3937007874015748,
                    "duration": 0.10576049999997394
                },
                {
                    "name": "A5",
                    "midi": 81,
                    "time": 474.2300819999911,
                    "velocity": 0.3700787401574803,
                    "duration": 0.3172814999999787
                },
                {
                    "name": "G5",
                    "midi": 79,
                    "time": 474.5473634999911,
                    "velocity": 0.33070866141732286,
                    "duration": 0.10576049999997394
                },
                {
                    "name": "F5",
                    "midi": 77,
                    "time": 474.65312399999107,
                    "velocity": 0.3779527559055118,
                    "duration": 0.10576049999997394
                },
                {
                    "name": "F5",
                    "midi": 77,
                    "time": 475.076165999991,
                    "velocity": 0.3464566929133858,
                    "duration": 0.10576049999997394
                },
                {
                    "name": "F5",
                    "midi": 77,
                    "time": 475.499207999991,
                    "velocity": 0.3464566929133858,
                    "duration": 0.42304200000000947
                },
                {
                    "name": "E5",
                    "midi": 76,
                    "time": 475.922249999991,
                    "velocity": 0.36220472440944884,
                    "duration": 0.10576049999997394
                },
                {
                    "name": "G5",
                    "midi": 79,
                    "time": 475.922249999991,
                    "velocity": 0.36220472440944884,
                    "duration": 0.10576049999997394
                },
                {
                    "name": "E5",
                    "midi": 76,
                    "time": 476.34529199999093,
                    "velocity": 0.3464566929133858,
                    "duration": 0.10576049999997394
                },
                {
                    "name": "G5",
                    "midi": 79,
                    "time": 476.34529199999093,
                    "velocity": 0.3464566929133858,
                    "duration": 0.10576049999997394
                },
                {
                    "name": "G5",
                    "midi": 79,
                    "time": 476.7683339999909,
                    "velocity": 0.3464566929133858,
                    "duration": 0.10576049999997394
                },
                {
                    "name": "E5",
                    "midi": 76,
                    "time": 476.7683339999909,
                    "velocity": 0.3464566929133858,
                    "duration": 0.10576049999997394
                },
                {
                    "name": "E5",
                    "midi": 76,
                    "time": 477.19137599999084,
                    "velocity": 0.3937007874015748,
                    "duration": 0.42304200000000947
                },
                {
                    "name": "G5",
                    "midi": 79,
                    "time": 477.19137599999084,
                    "velocity": 0.3937007874015748,
                    "duration": 0.42304200000000947
                },
                {
                    "name": "A5",
                    "midi": 81,
                    "time": 477.61441799999085,
                    "velocity": 0.3464566929133858,
                    "duration": 0.42304200000000947
                },
                {
                    "name": "F5",
                    "midi": 77,
                    "time": 477.61441799999085,
                    "velocity": 0.3464566929133858,
                    "duration": 0.42304200000000947
                },
                {
                    "name": "C6",
                    "midi": 84,
                    "time": 478.03745999999086,
                    "velocity": 0.3937007874015748,
                    "duration": 0.10576049999997394
                },
                {
                    "name": "D6",
                    "midi": 86,
                    "time": 478.14322049999083,
                    "velocity": 0.3464566929133858,
                    "duration": 0.10576049999997394
                },
                {
                    "name": "C6",
                    "midi": 84,
                    "time": 478.2489809999908,
                    "velocity": 0.3464566929133858,
                    "duration": 0.10576049999997394
                },
                {
                    "name": "A#5",
                    "midi": 82,
                    "time": 478.3547414999908,
                    "velocity": 0.3464566929133858,
                    "duration": 0.10576049999997394
                },
                {
                    "name": "A5",
                    "midi": 81,
                    "time": 478.46050199999075,
                    "velocity": 0.3937007874015748,
                    "duration": 0.10576049999997394
                },
                {
                    "name": "A5",
                    "midi": 81,
                    "time": 478.8835439999907,
                    "velocity": 0.3937007874015748,
                    "duration": 0.10576049999997394
                },
                {
                    "name": "A5",
                    "midi": 81,
                    "time": 479.30658599999066,
                    "velocity": 0.3700787401574803,
                    "duration": 0.10576049999997394
                },
                {
                    "name": "A#5",
                    "midi": 82,
                    "time": 479.41234649999063,
                    "velocity": 0.33070866141732286,
                    "duration": 0.10576049999997394
                },
                {
                    "name": "A5",
                    "midi": 81,
                    "time": 479.5181069999906,
                    "velocity": 0.33070866141732286,
                    "duration": 0.10576049999997394
                },
                {
                    "name": "G5",
                    "midi": 79,
                    "time": 479.6238674999906,
                    "velocity": 0.33070866141732286,
                    "duration": 0.10576049999997394
                },
                {
                    "name": "F5",
                    "midi": 77,
                    "time": 479.72962799999056,
                    "velocity": 0.3779527559055118,
                    "duration": 0.10576049999997394
                },
                {
                    "name": "F5",
                    "midi": 77,
                    "time": 480.1526699999905,
                    "velocity": 0.3464566929133858,
                    "duration": 0.10576049999997394
                },
                {
                    "name": "F5",
                    "midi": 77,
                    "time": 480.57571199999046,
                    "velocity": 0.3464566929133858,
                    "duration": 0.10576049999997394
                },
                {
                    "name": "G5",
                    "midi": 79,
                    "time": 480.9987539999904,
                    "velocity": 0.3858267716535433,
                    "duration": 0.42304200000000947
                },
                {
                    "name": "A#5",
                    "midi": 82,
                    "time": 481.4217959999904,
                    "velocity": 0.3464566929133858,
                    "duration": 0.10576049999997394
                },
                {
                    "name": "E5",
                    "midi": 76,
                    "time": 481.8448379999904,
                    "velocity": 0.3464566929133858,
                    "duration": 0.42304200000000947
                },
                {
                    "name": "A#4",
                    "midi": 70,
                    "time": 481.8448379999904,
                    "velocity": 0.2755905511811024,
                    "duration": 0.42304200000000947
                },
                {
                    "name": "A4",
                    "midi": 69,
                    "time": 482.2678799999904,
                    "velocity": 0.2992125984251969,
                    "duration": 0.42304200000000947
                },
                {
                    "name": "F5",
                    "midi": 77,
                    "time": 482.2678799999904,
                    "velocity": 0.3779527559055118,
                    "duration": 0.42304200000000947
                },
                {
                    "name": "C6",
                    "midi": 84,
                    "time": 483.1139639999904,
                    "velocity": 0.3464566929133858,
                    "duration": 0.42304200000000947
                },
                {
                    "name": "F5",
                    "midi": 77,
                    "time": 483.5370059999904,
                    "velocity": 0.3779527559055118,
                    "duration": 0.42304200000000947
                },
                {
                    "name": "C5",
                    "midi": 72,
                    "time": 484.38308999999043,
                    "velocity": 0.30708661417322836,
                    "duration": 0.42304200000000947
                },
                {
                    "name": "F4",
                    "midi": 65,
                    "time": 484.80613199999044,
                    "velocity": 0.33858267716535434,
                    "duration": 0.42304200000000947
                },
                {
                    "name": "C#4",
                    "midi": 61,
                    "time": 485.65221599999046,
                    "velocity": 0.6299212598425197,
                    "duration": 0.42304200000000947
                },
                {
                    "name": "D4",
                    "midi": 62,
                    "time": 486.07525799999047,
                    "velocity": 0.6692913385826772,
                    "duration": 0.6345630000000142
                },
                {
                    "name": "F4",
                    "midi": 65,
                    "time": 486.7098209999905,
                    "velocity": 0.5511811023622047,
                    "duration": 0.10576049999997394
                },
                {
                    "name": "A4",
                    "midi": 69,
                    "time": 486.81558149999046,
                    "velocity": 0.5669291338582677,
                    "duration": 0.10576049999997394
                },
                {
                    "name": "D5",
                    "midi": 74,
                    "time": 486.92134199999043,
                    "velocity": 0.6614173228346457,
                    "duration": 0.10576049999997394
                },
                {
                    "name": "A4",
                    "midi": 69,
                    "time": 487.1328629999904,
                    "velocity": 0.5590551181102362,
                    "duration": 0.10576049999997394
                },
                {
                    "name": "D5",
                    "midi": 74,
                    "time": 487.23862349999035,
                    "velocity": 0.5748031496062992,
                    "duration": 0.10576049999997394
                },
                {
                    "name": "F5",
                    "midi": 77,
                    "time": 487.3443839999903,
                    "velocity": 0.6771653543307087,
                    "duration": 0.10576049999997394
                },
                {
                    "name": "D5",
                    "midi": 74,
                    "time": 487.5559049999903,
                    "velocity": 0.5590551181102362,
                    "duration": 0.10576049999997394
                },
                {
                    "name": "F5",
                    "midi": 77,
                    "time": 487.66166549999025,
                    "velocity": 0.5748031496062992,
                    "duration": 0.10576049999997394
                },
                {
                    "name": "A5",
                    "midi": 81,
                    "time": 487.7674259999902,
                    "velocity": 0.6850393700787402,
                    "duration": 0.10576049999997394
                },
                {
                    "name": "A5",
                    "midi": 81,
                    "time": 487.97894699999017,
                    "velocity": 0.6299212598425197,
                    "duration": 0.21152100000000473
                },
                {
                    "name": "F5",
                    "midi": 77,
                    "time": 488.1904679999902,
                    "velocity": 0.6299212598425197,
                    "duration": 0.21152100000000473
                },
                {
                    "name": "D5",
                    "midi": 74,
                    "time": 488.4019889999902,
                    "velocity": 0.6299212598425197,
                    "duration": 0.10576049999997394
                },
                {
                    "name": "C#5",
                    "midi": 73,
                    "time": 488.50774949999015,
                    "velocity": 0.5511811023622047,
                    "duration": 0.03525350000001026
                },
                {
                    "name": "E5",
                    "midi": 76,
                    "time": 488.54300299999016,
                    "velocity": 0.5511811023622047,
                    "duration": 0.03525350000001026
                },
                {
                    "name": "G5",
                    "midi": 79,
                    "time": 488.5782564999902,
                    "velocity": 0.5511811023622047,
                    "duration": 0.03525350000001026
                },
                {
                    "name": "A#5",
                    "midi": 82,
                    "time": 488.6135099999902,
                    "velocity": 0.7086614173228346,
                    "duration": 0.6345630000000142
                },
                {
                    "name": "A5",
                    "midi": 81,
                    "time": 489.2480729999902,
                    "velocity": 0.5590551181102362,
                    "duration": 0.11633654999997134
                },
                {
                    "name": "G5",
                    "midi": 79,
                    "time": 489.3538334999902,
                    "velocity": 0.5354330708661418,
                    "duration": 0.11633654999997134
                },
                {
                    "name": "F5",
                    "midi": 77,
                    "time": 489.45959399999015,
                    "velocity": 0.5354330708661418,
                    "duration": 0.11633654999997134
                },
                {
                    "name": "E5",
                    "midi": 76,
                    "time": 489.5653544999901,
                    "velocity": 0.5354330708661418,
                    "duration": 0.11633654999997134
                },
                {
                    "name": "D5",
                    "midi": 74,
                    "time": 489.6711149999901,
                    "velocity": 0.5433070866141733,
                    "duration": 0.11633654999997134
                },
                {
                    "name": "C#5",
                    "midi": 73,
                    "time": 489.77687549999007,
                    "velocity": 0.5669291338582677,
                    "duration": 0.11633654999997134
                },
                {
                    "name": "A#5",
                    "midi": 82,
                    "time": 489.88263599999004,
                    "velocity": 0.7086614173228346,
                    "duration": 0.6345630000000142
                },
                {
                    "name": "A5",
                    "midi": 81,
                    "time": 490.51719899999006,
                    "velocity": 0.5590551181102362,
                    "duration": 0.11633654999997134
                },
                {
                    "name": "G5",
                    "midi": 79,
                    "time": 490.62295949999003,
                    "velocity": 0.5354330708661418,
                    "duration": 0.11633654999997134
                },
                {
                    "name": "F5",
                    "midi": 77,
                    "time": 490.72871999999,
                    "velocity": 0.5354330708661418,
                    "duration": 0.11633654999997134
                },
                {
                    "name": "E5",
                    "midi": 76,
                    "time": 490.83448049999,
                    "velocity": 0.5354330708661418,
                    "duration": 0.11633654999997134
                },
                {
                    "name": "D5",
                    "midi": 74,
                    "time": 490.94024099998995,
                    "velocity": 0.5433070866141733,
                    "duration": 0.11633654999997134
                },
                {
                    "name": "C#5",
                    "midi": 73,
                    "time": 491.0460014999899,
                    "velocity": 0.5669291338582677,
                    "duration": 0.11633654999997134
                },
                {
                    "name": "D5",
                    "midi": 74,
                    "time": 491.1517619999899,
                    "velocity": 0.6929133858267716,
                    "duration": 0.6345630000000142
                },
                {
                    "name": "F4",
                    "midi": 65,
                    "time": 491.7863249999899,
                    "velocity": 0.5511811023622047,
                    "duration": 0.10576049999997394
                },
                {
                    "name": "A4",
                    "midi": 69,
                    "time": 491.8920854999899,
                    "velocity": 0.5669291338582677,
                    "duration": 0.10576049999997394
                },
                {
                    "name": "D5",
                    "midi": 74,
                    "time": 491.99784599998986,
                    "velocity": 0.6614173228346457,
                    "duration": 0.10576049999997394
                },
                {
                    "name": "A4",
                    "midi": 69,
                    "time": 492.2093669999898,
                    "velocity": 0.5590551181102362,
                    "duration": 0.10576049999997394
                },
                {
                    "name": "D5",
                    "midi": 74,
                    "time": 492.3151274999898,
                    "velocity": 0.5748031496062992,
                    "duration": 0.10576049999997394
                },
                {
                    "name": "F5",
                    "midi": 77,
                    "time": 492.42088799998976,
                    "velocity": 0.6771653543307087,
                    "duration": 0.10576049999997394
                },
                {
                    "name": "D5",
                    "midi": 74,
                    "time": 492.6324089999897,
                    "velocity": 0.5590551181102362,
                    "duration": 0.10576049999997394
                },
                {
                    "name": "F5",
                    "midi": 77,
                    "time": 492.7381694999897,
                    "velocity": 0.5748031496062992,
                    "duration": 0.10576049999997394
                },
                {
                    "name": "A5",
                    "midi": 81,
                    "time": 492.84392999998965,
                    "velocity": 0.6850393700787402,
                    "duration": 0.10576049999997394
                },
                {
                    "name": "A5",
                    "midi": 81,
                    "time": 493.0554509999896,
                    "velocity": 0.6299212598425197,
                    "duration": 0.21152100000000473
                },
                {
                    "name": "F5",
                    "midi": 77,
                    "time": 493.2669719999896,
                    "velocity": 0.6299212598425197,
                    "duration": 0.21152100000000473
                },
                {
                    "name": "D5",
                    "midi": 74,
                    "time": 493.4784929999896,
                    "velocity": 0.6299212598425197,
                    "duration": 0.21152100000000473
                },
                {
                    "name": "D5",
                    "midi": 74,
                    "time": 493.6900139999896,
                    "velocity": 0.5905511811023622,
                    "duration": 0.6345630000000142
                },
                {
                    "name": "G#5",
                    "midi": 80,
                    "time": 493.6900139999896,
                    "velocity": 0.7086614173228346,
                    "duration": 0.6345630000000142
                },
                {
                    "name": "F5",
                    "midi": 77,
                    "time": 493.6900139999896,
                    "velocity": 0.5905511811023622,
                    "duration": 0.6345630000000142
                },
                {
                    "name": "B4",
                    "midi": 71,
                    "time": 493.6900139999896,
                    "velocity": 0.5905511811023622,
                    "duration": 0.6345630000000142
                },
                {
                    "name": "G5",
                    "midi": 79,
                    "time": 494.32457699998963,
                    "velocity": 0.5590551181102362,
                    "duration": 0.11633654999997134
                },
                {
                    "name": "F5",
                    "midi": 77,
                    "time": 494.4303374999896,
                    "velocity": 0.5354330708661418,
                    "duration": 0.11633654999997134
                },
                {
                    "name": "D#5",
                    "midi": 75,
                    "time": 494.5360979999896,
                    "velocity": 0.5354330708661418,
                    "duration": 0.11633654999997134
                },
                {
                    "name": "D5",
                    "midi": 74,
                    "time": 494.64185849998955,
                    "velocity": 0.5354330708661418,
                    "duration": 0.11633654999997134
                },
                {
                    "name": "C5",
                    "midi": 72,
                    "time": 494.7476189999895,
                    "velocity": 0.5433070866141733,
                    "duration": 0.11633654999997134
                },
                {
                    "name": "B4",
                    "midi": 71,
                    "time": 494.8533794999895,
                    "velocity": 0.5669291338582677,
                    "duration": 0.11633654999997134
                },
                {
                    "name": "G#5",
                    "midi": 80,
                    "time": 494.9591399999895,
                    "velocity": 0.7086614173228346,
                    "duration": 0.6345630000000142
                },
                {
                    "name": "G5",
                    "midi": 79,
                    "time": 495.5937029999895,
                    "velocity": 0.5590551181102362,
                    "duration": 0.11633654999997134
                },
                {
                    "name": "F5",
                    "midi": 77,
                    "time": 495.69946349998946,
                    "velocity": 0.5354330708661418,
                    "duration": 0.11633654999997134
                },
                {
                    "name": "D#5",
                    "midi": 75,
                    "time": 495.80522399998944,
                    "velocity": 0.5354330708661418,
                    "duration": 0.11633654999997134
                },
                {
                    "name": "D5",
                    "midi": 74,
                    "time": 495.9109844999894,
                    "velocity": 0.5354330708661418,
                    "duration": 0.11633654999997134
                },
                {
                    "name": "C5",
                    "midi": 72,
                    "time": 496.0167449999894,
                    "velocity": 0.5433070866141733,
                    "duration": 0.11633654999997134
                },
                {
                    "name": "B4",
                    "midi": 71,
                    "time": 496.12250549998936,
                    "velocity": 0.5669291338582677,
                    "duration": 0.11633654999997134
                },
                {
                    "name": "C5",
                    "midi": 72,
                    "time": 496.22826599998933,
                    "velocity": 0.6929133858267716,
                    "duration": 0.6345630000000142
                },
                {
                    "name": "D#4",
                    "midi": 63,
                    "time": 496.86282899998935,
                    "velocity": 0.5511811023622047,
                    "duration": 0.10576049999997394
                },
                {
                    "name": "G4",
                    "midi": 67,
                    "time": 496.9685894999893,
                    "velocity": 0.5669291338582677,
                    "duration": 0.10576049999997394
                },
                {
                    "name": "C5",
                    "midi": 72,
                    "time": 497.0743499999893,
                    "velocity": 0.6614173228346457,
                    "duration": 0.10576049999997394
                },
                {
                    "name": "G4",
                    "midi": 67,
                    "time": 497.28587099998924,
                    "velocity": 0.5590551181102362,
                    "duration": 0.10576049999997394
                },
                {
                    "name": "C5",
                    "midi": 72,
                    "time": 497.3916314999892,
                    "velocity": 0.5748031496062992,
                    "duration": 0.10576049999997394
                },
                {
                    "name": "D#5",
                    "midi": 75,
                    "time": 497.4973919999892,
                    "velocity": 0.6771653543307087,
                    "duration": 0.10576049999997394
                },
                {
                    "name": "C5",
                    "midi": 72,
                    "time": 497.70891299998914,
                    "velocity": 0.5590551181102362,
                    "duration": 0.10576049999997394
                },
                {
                    "name": "D#5",
                    "midi": 75,
                    "time": 497.8146734999891,
                    "velocity": 0.5748031496062992,
                    "duration": 0.10576049999997394
                },
                {
                    "name": "G5",
                    "midi": 79,
                    "time": 497.9204339999891,
                    "velocity": 0.6850393700787402,
                    "duration": 0.10576049999997394
                },
                {
                    "name": "G5",
                    "midi": 79,
                    "time": 498.13195499998903,
                    "velocity": 0.6299212598425197,
                    "duration": 0.21152100000000473
                },
                {
                    "name": "D#5",
                    "midi": 75,
                    "time": 498.34347599998904,
                    "velocity": 0.6299212598425197,
                    "duration": 0.21152100000000473
                },
                {
                    "name": "C5",
                    "midi": 72,
                    "time": 498.55499699998904,
                    "velocity": 0.6299212598425197,
                    "duration": 0.21152100000000473
                },
                {
                    "name": "C5",
                    "midi": 72,
                    "time": 498.76651799998905,
                    "velocity": 0.5905511811023622,
                    "duration": 0.6345630000000142
                },
                {
                    "name": "F#5",
                    "midi": 78,
                    "time": 498.76651799998905,
                    "velocity": 0.7086614173228346,
                    "duration": 0.6345630000000142
                },
                {
                    "name": "D#5",
                    "midi": 75,
                    "time": 498.76651799998905,
                    "velocity": 0.5905511811023622,
                    "duration": 0.6345630000000142
                },
                {
                    "name": "A4",
                    "midi": 69,
                    "time": 498.76651799998905,
                    "velocity": 0.5905511811023622,
                    "duration": 0.6345630000000142
                },
                {
                    "name": "F5",
                    "midi": 77,
                    "time": 499.40108099998906,
                    "velocity": 0.5590551181102362,
                    "duration": 0.11633654999997134
                },
                {
                    "name": "D#5",
                    "midi": 75,
                    "time": 499.50684149998904,
                    "velocity": 0.5354330708661418,
                    "duration": 0.11633654999997134
                },
                {
                    "name": "C#5",
                    "midi": 73,
                    "time": 499.612601999989,
                    "velocity": 0.5354330708661418,
                    "duration": 0.11633654999997134
                },
                {
                    "name": "C5",
                    "midi": 72,
                    "time": 499.718362499989,
                    "velocity": 0.5354330708661418,
                    "duration": 0.11633654999997134
                },
                {
                    "name": "A#4",
                    "midi": 70,
                    "time": 499.82412299998896,
                    "velocity": 0.5433070866141733,
                    "duration": 0.11633654999997134
                },
                {
                    "name": "A4",
                    "midi": 69,
                    "time": 499.92988349998893,
                    "velocity": 0.5669291338582677,
                    "duration": 0.11633654999997134
                },
                {
                    "name": "F#5",
                    "midi": 78,
                    "time": 500.0356439999889,
                    "velocity": 0.7086614173228346,
                    "duration": 0.6345630000000142
                },
                {
                    "name": "F5",
                    "midi": 77,
                    "time": 500.6702069999889,
                    "velocity": 0.5590551181102362,
                    "duration": 0.11633654999997134
                },
                {
                    "name": "D#5",
                    "midi": 75,
                    "time": 500.7759674999889,
                    "velocity": 0.5354330708661418,
                    "duration": 0.11633654999997134
                },
                {
                    "name": "C#5",
                    "midi": 73,
                    "time": 500.88172799998887,
                    "velocity": 0.5354330708661418,
                    "duration": 0.11633654999997134
                },
                {
                    "name": "C5",
                    "midi": 72,
                    "time": 500.98748849998884,
                    "velocity": 0.5354330708661418,
                    "duration": 0.11633654999997134
                },
                {
                    "name": "A#4",
                    "midi": 70,
                    "time": 501.0932489999888,
                    "velocity": 0.5433070866141733,
                    "duration": 0.11633654999997134
                },
                {
                    "name": "A4",
                    "midi": 69,
                    "time": 501.1990094999888,
                    "velocity": 0.5669291338582677,
                    "duration": 0.11633654999997134
                },
                {
                    "name": "A#4",
                    "midi": 70,
                    "time": 501.30476999998876,
                    "velocity": 0.6929133858267716,
                    "duration": 0.5288024999999834
                },
                {
                    "name": "F4",
                    "midi": 65,
                    "time": 501.83357249998875,
                    "velocity": 0.5433070866141733,
                    "duration": 0.10576049999997394
                },
                {
                    "name": "A#4",
                    "midi": 70,
                    "time": 501.9393329999887,
                    "velocity": 0.5826771653543307,
                    "duration": 0.10576049999997394
                },
                {
                    "name": "F4",
                    "midi": 65,
                    "time": 502.0450934999887,
                    "velocity": 0.5511811023622047,
                    "duration": 0.10576049999997394
                },
                {
                    "name": "C#5",
                    "midi": 73,
                    "time": 502.15085399998867,
                    "velocity": 0.5826771653543307,
                    "duration": 0.10576049999997394
                },
                {
                    "name": "A#4",
                    "midi": 70,
                    "time": 502.25661449998864,
                    "velocity": 0.5590551181102362,
                    "duration": 0.10576049999997394
                },
                {
                    "name": "C#5",
                    "midi": 73,
                    "time": 502.3623749999886,
                    "velocity": 0.5905511811023622,
                    "duration": 0.10576049999997394
                },
                {
                    "name": "A#4",
                    "midi": 70,
                    "time": 502.4681354999886,
                    "velocity": 0.5511811023622047,
                    "duration": 0.10576049999997394
                },
                {
                    "name": "F5",
                    "midi": 77,
                    "time": 502.57389599998857,
                    "velocity": 0.5826771653543307,
                    "duration": 0.10576049999997394
                },
                {
                    "name": "C#5",
                    "midi": 73,
                    "time": 502.67965649998854,
                    "velocity": 0.5590551181102362,
                    "duration": 0.10576049999997394
                },
                {
                    "name": "F5",
                    "midi": 77,
                    "time": 502.7854169999885,
                    "velocity": 0.5826771653543307,
                    "duration": 0.10576049999997394
                },
                {
                    "name": "C#5",
                    "midi": 73,
                    "time": 502.8911774999885,
                    "velocity": 0.5590551181102362,
                    "duration": 0.10576049999997394
                },
                {
                    "name": "A#5",
                    "midi": 82,
                    "time": 502.99693799998846,
                    "velocity": 0.7165354330708661,
                    "duration": 0.42304200000000947
                },
                {
                    "name": "A4",
                    "midi": 69,
                    "time": 503.8430219999885,
                    "velocity": 0.6929133858267716,
                    "duration": 0.5288024999999834
                },
                {
                    "name": "F4",
                    "midi": 65,
                    "time": 504.37182449998846,
                    "velocity": 0.5433070866141733,
                    "duration": 0.10576049999997394
                },
                {
                    "name": "A4",
                    "midi": 69,
                    "time": 504.47758499998844,
                    "velocity": 0.5826771653543307,
                    "duration": 0.10576049999997394
                },
                {
                    "name": "F4",
                    "midi": 65,
                    "time": 504.5833454999884,
                    "velocity": 0.5511811023622047,
                    "duration": 0.10576049999997394
                },
                {
                    "name": "C5",
                    "midi": 72,
                    "time": 504.6891059999884,
                    "velocity": 0.5826771653543307,
                    "duration": 0.10576049999997394
                },
                {
                    "name": "A4",
                    "midi": 69,
                    "time": 504.79486649998836,
                    "velocity": 0.5590551181102362,
                    "duration": 0.10576049999997394
                },
                {
                    "name": "C5",
                    "midi": 72,
                    "time": 504.90062699998833,
                    "velocity": 0.5905511811023622,
                    "duration": 0.10576049999997394
                },
                {
                    "name": "A4",
                    "midi": 69,
                    "time": 505.0063874999883,
                    "velocity": 0.5511811023622047,
                    "duration": 0.10576049999997394
                },
                {
                    "name": "F5",
                    "midi": 77,
                    "time": 505.1121479999883,
                    "velocity": 0.5826771653543307,
                    "duration": 0.10576049999997394
                },
                {
                    "name": "C5",
                    "midi": 72,
                    "time": 505.21790849998825,
                    "velocity": 0.5590551181102362,
                    "duration": 0.10576049999997394
                },
                {
                    "name": "F5",
                    "midi": 77,
                    "time": 505.32366899998823,
                    "velocity": 0.5826771653543307,
                    "duration": 0.10576049999997394
                },
                {
                    "name": "C5",
                    "midi": 72,
                    "time": 505.4294294999882,
                    "velocity": 0.5590551181102362,
                    "duration": 0.10576049999997394
                },
                {
                    "name": "A5",
                    "midi": 81,
                    "time": 505.5351899999882,
                    "velocity": 0.7165354330708661,
                    "duration": 0.42304200000000947
                },
                {
                    "name": "G#4",
                    "midi": 68,
                    "time": 506.3812739999882,
                    "velocity": 0.6929133858267716,
                    "duration": 0.5288024999999834
                },
                {
                    "name": "F4",
                    "midi": 65,
                    "time": 506.9100764999882,
                    "velocity": 0.5433070866141733,
                    "duration": 0.10576049999997394
                },
                {
                    "name": "G#4",
                    "midi": 68,
                    "time": 507.01583699998815,
                    "velocity": 0.5826771653543307,
                    "duration": 0.10576049999997394
                },
                {
                    "name": "F4",
                    "midi": 65,
                    "time": 507.1215974999881,
                    "velocity": 0.5511811023622047,
                    "duration": 0.10576049999997394
                },
                {
                    "name": "D5",
                    "midi": 74,
                    "time": 507.2273579999881,
                    "velocity": 0.5826771653543307,
                    "duration": 0.10576049999997394
                },
                {
                    "name": "G#4",
                    "midi": 68,
                    "time": 507.3331184999881,
                    "velocity": 0.5590551181102362,
                    "duration": 0.10576049999997394
                },
                {
                    "name": "D5",
                    "midi": 74,
                    "time": 507.43887899998805,
                    "velocity": 0.5905511811023622,
                    "duration": 0.10576049999997394
                },
                {
                    "name": "G#4",
                    "midi": 68,
                    "time": 507.544639499988,
                    "velocity": 0.5511811023622047,
                    "duration": 0.10576049999997394
                },
                {
                    "name": "F5",
                    "midi": 77,
                    "time": 507.650399999988,
                    "velocity": 0.5826771653543307,
                    "duration": 0.10576049999997394
                },
                {
                    "name": "D5",
                    "midi": 74,
                    "time": 507.75616049998797,
                    "velocity": 0.5590551181102362,
                    "duration": 0.10576049999997394
                },
                {
                    "name": "F5",
                    "midi": 77,
                    "time": 507.86192099998794,
                    "velocity": 0.5826771653543307,
                    "duration": 0.10576049999997394
                },
                {
                    "name": "D5",
                    "midi": 74,
                    "time": 507.9676814999879,
                    "velocity": 0.5590551181102362,
                    "duration": 0.10576049999997394
                },
                {
                    "name": "G#5",
                    "midi": 80,
                    "time": 508.0734419999879,
                    "velocity": 0.7165354330708661,
                    "duration": 0.42304200000000947
                },
                {
                    "name": "F5",
                    "midi": 77,
                    "time": 508.4964839999879,
                    "velocity": 0.6377952755905512,
                    "duration": 0.3172814999999787
                },
                {
                    "name": "C5",
                    "midi": 72,
                    "time": 508.8137654999879,
                    "velocity": 0.5511811023622047,
                    "duration": 0.03525350000001026
                },
                {
                    "name": "E5",
                    "midi": 76,
                    "time": 508.8490189999879,
                    "velocity": 0.5511811023622047,
                    "duration": 0.03525350000001026
                },
                {
                    "name": "G5",
                    "midi": 79,
                    "time": 508.8842724999879,
                    "velocity": 0.5511811023622047,
                    "duration": 0.03525350000001026
                },
                {
                    "name": "C6",
                    "midi": 84,
                    "time": 508.9195259999879,
                    "velocity": 0.7086614173228346,
                    "duration": 0.8460840000000189
                },
                {
                    "name": "A#5",
                    "midi": 82,
                    "time": 509.76560999998793,
                    "velocity": 0.5669291338582677,
                    "duration": 0.1145738749999623
                },
                {
                    "name": "G#5",
                    "midi": 80,
                    "time": 509.8713704999879,
                    "velocity": 0.5669291338582677,
                    "duration": 0.1145738749999623
                },
                {
                    "name": "G5",
                    "midi": 79,
                    "time": 509.9771309999879,
                    "velocity": 0.5748031496062992,
                    "duration": 0.1145738749999623
                },
                {
                    "name": "F5",
                    "midi": 77,
                    "time": 510.08289149998785,
                    "velocity": 0.5984251968503937,
                    "duration": 0.10576049999997394
                },
                {
                    "name": "C6",
                    "midi": 84,
                    "time": 510.1886519999878,
                    "velocity": 0.7086614173228346,
                    "duration": 0.8460840000000189
                },
                {
                    "name": "A#5",
                    "midi": 82,
                    "time": 511.03473599998784,
                    "velocity": 0.5669291338582677,
                    "duration": 0.1145738749999623
                },
                {
                    "name": "G#5",
                    "midi": 80,
                    "time": 511.1404964999878,
                    "velocity": 0.5669291338582677,
                    "duration": 0.1145738749999623
                },
                {
                    "name": "G5",
                    "midi": 79,
                    "time": 511.2462569999878,
                    "velocity": 0.5748031496062992,
                    "duration": 0.1145738749999623
                },
                {
                    "name": "F5",
                    "midi": 77,
                    "time": 511.35201749998777,
                    "velocity": 0.5984251968503937,
                    "duration": 0.10576049999997394
                },
                {
                    "name": "C5",
                    "midi": 72,
                    "time": 511.45777799998774,
                    "velocity": 0.7086614173228346,
                    "duration": 0.6345630000000142
                },
                {
                    "name": "C#5",
                    "midi": 73,
                    "time": 512.0923409999878,
                    "velocity": 0.6220472440944882,
                    "duration": 0.11457387500001914
                },
                {
                    "name": "C5",
                    "midi": 72,
                    "time": 512.1981014999877,
                    "velocity": 0.6141732283464567,
                    "duration": 0.11457387500013283
                },
                {
                    "name": "A#4",
                    "midi": 70,
                    "time": 512.3038619999878,
                    "velocity": 0.5984251968503937,
                    "duration": 0.11457387500013283
                },
                {
                    "name": "G#4",
                    "midi": 68,
                    "time": 512.4096224999879,
                    "velocity": 0.5905511811023622,
                    "duration": 0.11457387500013283
                },
                {
                    "name": "G4",
                    "midi": 67,
                    "time": 512.515382999988,
                    "velocity": 0.5826771653543307,
                    "duration": 0.11457387500013283
                },
                {
                    "name": "F4",
                    "midi": 65,
                    "time": 512.6211434999881,
                    "velocity": 0.5669291338582677,
                    "duration": 0.11457387500013283
                },
                {
                    "name": "C5",
                    "midi": 72,
                    "time": 512.7269039999882,
                    "velocity": 0.6220472440944882,
                    "duration": 0.10576050000008763
                },
                {
                    "name": "C4",
                    "midi": 60,
                    "time": 513.1499459999883,
                    "velocity": 0.5669291338582677,
                    "duration": 0.10576049999997394
                },
                {
                    "name": "C4",
                    "midi": 60,
                    "time": 513.9431497499883,
                    "velocity": 0.3228346456692913,
                    "duration": 0.052880250000043816
                },
                {
                    "name": "A4",
                    "midi": 69,
                    "time": 513.9960299999883,
                    "velocity": 0.3543307086614173,
                    "duration": 0.10576049999997394
                },
                {
                    "name": "A4",
                    "midi": 69,
                    "time": 514.4190719999883,
                    "velocity": 0.33858267716535434,
                    "duration": 0.10576049999997394
                },
                {
                    "name": "A4",
                    "midi": 69,
                    "time": 514.8421139999883,
                    "velocity": 0.33858267716535434,
                    "duration": 0.10576049999997394
                },
                {
                    "name": "E4",
                    "midi": 64,
                    "time": 515.2122757499883,
                    "velocity": 0.33070866141732286,
                    "duration": 0.052880250000043816
                },
                {
                    "name": "C5",
                    "midi": 72,
                    "time": 515.2651559999883,
                    "velocity": 0.3543307086614173,
                    "duration": 0.6345629999999574
                },
                {
                    "name": "A#4",
                    "midi": 70,
                    "time": 515.8997189999883,
                    "velocity": 0.3228346456692913,
                    "duration": 0.2115209999999479
                },
                {
                    "name": "G4",
                    "midi": 67,
                    "time": 516.1112399999882,
                    "velocity": 0.3228346456692913,
                    "duration": 0.42304200000000947
                },
                {
                    "name": "A3",
                    "midi": 57,
                    "time": 516.5342819999883,
                    "velocity": 0.3543307086614173,
                    "duration": 0.4230419999998958
                },
                {
                    "name": "G4",
                    "midi": 67,
                    "time": 516.5342819999883,
                    "velocity": 0.3543307086614173,
                    "duration": 0.2115209999999479
                },
                {
                    "name": "F4",
                    "midi": 65,
                    "time": 516.7458029999882,
                    "velocity": 0.3228346456692913,
                    "duration": 0.2115209999999479
                },
                {
                    "name": "F4",
                    "midi": 65,
                    "time": 516.9573239999881,
                    "velocity": 0.3543307086614173,
                    "duration": 0.6345629999999574
                },
                {
                    "name": "C4",
                    "midi": 60,
                    "time": 516.9573239999881,
                    "velocity": 0.3543307086614173,
                    "duration": 0.6345629999999574
                },
                {
                    "name": "E4",
                    "midi": 64,
                    "time": 517.5918869999881,
                    "velocity": 0.3543307086614173,
                    "duration": 0.2115209999999479
                },
                {
                    "name": "G4",
                    "midi": 67,
                    "time": 517.5918869999881,
                    "velocity": 0.3543307086614173,
                    "duration": 0.2115209999999479
                },
                {
                    "name": "G4",
                    "midi": 67,
                    "time": 517.803407999988,
                    "velocity": 0.3858267716535433,
                    "duration": 0.8460840000000189
                },
                {
                    "name": "E4",
                    "midi": 64,
                    "time": 517.803407999988,
                    "velocity": 0.3858267716535433,
                    "duration": 0.8460840000000189
                },
                {
                    "name": "F4",
                    "midi": 65,
                    "time": 518.6494919999881,
                    "velocity": 0.3543307086614173,
                    "duration": 0.42304200000000947
                },
                {
                    "name": "A4",
                    "midi": 69,
                    "time": 518.6494919999881,
                    "velocity": 0.3543307086614173,
                    "duration": 0.42304200000000947
                },
                {
                    "name": "A#4",
                    "midi": 70,
                    "time": 519.0725339999881,
                    "velocity": 0.3543307086614173,
                    "duration": 0.6345629999999574
                },
                {
                    "name": "C5",
                    "midi": 72,
                    "time": 519.707096999988,
                    "velocity": 0.36220472440944884,
                    "duration": 0.052880250000043816
                },
                {
                    "name": "A#4",
                    "midi": 70,
                    "time": 519.7599772499881,
                    "velocity": 0.33070866141732286,
                    "duration": 0.052880250000043816
                },
                {
                    "name": "A4",
                    "midi": 69,
                    "time": 519.8128574999881,
                    "velocity": 0.33070866141732286,
                    "duration": 0.052880250000043816
                },
                {
                    "name": "A#4",
                    "midi": 70,
                    "time": 519.8657377499882,
                    "velocity": 0.3543307086614173,
                    "duration": 0.03525349999995342
                },
                {
                    "name": "C5",
                    "midi": 72,
                    "time": 519.9186179999881,
                    "velocity": 0.3858267716535433,
                    "duration": 0.2115209999999479
                },
                {
                    "name": "D5",
                    "midi": 74,
                    "time": 520.130138999988,
                    "velocity": 0.3700787401574803,
                    "duration": 0.2115209999999479
                },
                {
                    "name": "D5",
                    "midi": 74,
                    "time": 520.341659999988,
                    "velocity": 0.4330708661417323,
                    "duration": 0.2115209999999479
                },
                {
                    "name": "C5",
                    "midi": 72,
                    "time": 520.553180999988,
                    "velocity": 0.3858267716535433,
                    "duration": 0.2115209999999479
                },
                {
                    "name": "B4",
                    "midi": 71,
                    "time": 520.7647019999879,
                    "velocity": 0.4094488188976378,
                    "duration": 0.2115209999999479
                },
                {
                    "name": "C5",
                    "midi": 72,
                    "time": 520.9762229999878,
                    "velocity": 0.3543307086614173,
                    "duration": 0.2115209999999479
                },
                {
                    "name": "A#4",
                    "midi": 70,
                    "time": 521.1877439999878,
                    "velocity": 0.3937007874015748,
                    "duration": 0.2115209999999479
                },
                {
                    "name": "G4",
                    "midi": 67,
                    "time": 521.3992649999877,
                    "velocity": 0.3543307086614173,
                    "duration": 0.2115209999999479
                },
                {
                    "name": "G#4",
                    "midi": 68,
                    "time": 521.6107859999877,
                    "velocity": 0.3858267716535433,
                    "duration": 0.2115209999999479
                },
                {
                    "name": "A4",
                    "midi": 69,
                    "time": 521.8223069999876,
                    "velocity": 0.3543307086614173,
                    "duration": 0.2115209999999479
                },
                {
                    "name": "A#4",
                    "midi": 70,
                    "time": 522.0338279999876,
                    "velocity": 0.3937007874015748,
                    "duration": 0.2115209999999479
                },
                {
                    "name": "A4",
                    "midi": 69,
                    "time": 522.2453489999875,
                    "velocity": 0.3543307086614173,
                    "duration": 0.2115209999999479
                },
                {
                    "name": "C5",
                    "midi": 72,
                    "time": 522.4568699999875,
                    "velocity": 0.3858267716535433,
                    "duration": 0.2115209999999479
                },
                {
                    "name": "A#4",
                    "midi": 70,
                    "time": 522.6683909999874,
                    "velocity": 0.3543307086614173,
                    "duration": 0.2115209999999479
                },
                {
                    "name": "A4",
                    "midi": 69,
                    "time": 522.8799119999874,
                    "velocity": 0.4094488188976378,
                    "duration": 0.2115209999999479
                },
                {
                    "name": "G4",
                    "midi": 67,
                    "time": 523.0914329999873,
                    "velocity": 0.3543307086614173,
                    "duration": 0.2115209999999479
                },
                {
                    "name": "F4",
                    "midi": 65,
                    "time": 523.3029539999873,
                    "velocity": 0.3779527559055118,
                    "duration": 0.2115209999999479
                },
                {
                    "name": "E4",
                    "midi": 64,
                    "time": 523.5144749999872,
                    "velocity": 0.3543307086614173,
                    "duration": 0.2115209999999479
                },
                {
                    "name": "D4",
                    "midi": 62,
                    "time": 523.7259959999872,
                    "velocity": 0.36220472440944884,
                    "duration": 0.2115209999999479
                },
                {
                    "name": "C4",
                    "midi": 60,
                    "time": 523.9375169999871,
                    "velocity": 0.3543307086614173,
                    "duration": 0.2115209999999479
                },
                {
                    "name": "G#4",
                    "midi": 68,
                    "time": 524.1490379999871,
                    "velocity": 0.30708661417322836,
                    "duration": 0.2115209999999479
                },
                {
                    "name": "G#5",
                    "midi": 80,
                    "time": 524.1490379999871,
                    "velocity": 0.3858267716535433,
                    "duration": 0.2115209999999479
                },
                {
                    "name": "A4",
                    "midi": 69,
                    "time": 524.360558999987,
                    "velocity": 0.25984251968503935,
                    "duration": 0.2115209999999479
                },
                {
                    "name": "A5",
                    "midi": 81,
                    "time": 524.360558999987,
                    "velocity": 0.33070866141732286,
                    "duration": 0.2115209999999479
                },
                {
                    "name": "G#4",
                    "midi": 68,
                    "time": 524.572079999987,
                    "velocity": 0.30708661417322836,
                    "duration": 0.2115209999999479
                },
                {
                    "name": "G#5",
                    "midi": 80,
                    "time": 524.572079999987,
                    "velocity": 0.3858267716535433,
                    "duration": 0.2115209999999479
                },
                {
                    "name": "A4",
                    "midi": 69,
                    "time": 524.7836009999869,
                    "velocity": 0.25196850393700787,
                    "duration": 0.2115209999999479
                },
                {
                    "name": "A5",
                    "midi": 81,
                    "time": 524.7836009999869,
                    "velocity": 0.3228346456692913,
                    "duration": 0.2115209999999479
                },
                {
                    "name": "G#4",
                    "midi": 68,
                    "time": 524.9951219999868,
                    "velocity": 0.3228346456692913,
                    "duration": 0.2115209999999479
                },
                {
                    "name": "G#5",
                    "midi": 80,
                    "time": 524.9951219999868,
                    "velocity": 0.4094488188976378,
                    "duration": 0.2115209999999479
                },
                {
                    "name": "A4",
                    "midi": 69,
                    "time": 525.2066429999868,
                    "velocity": 0.2992125984251969,
                    "duration": 0.2115209999999479
                },
                {
                    "name": "A5",
                    "midi": 81,
                    "time": 525.2066429999868,
                    "velocity": 0.3779527559055118,
                    "duration": 0.2115209999999479
                },
                {
                    "name": "B4",
                    "midi": 71,
                    "time": 525.4181639999867,
                    "velocity": 0.36220472440944884,
                    "duration": 0.2115209999999479
                },
                {
                    "name": "B5",
                    "midi": 83,
                    "time": 525.4181639999867,
                    "velocity": 0.4566929133858268,
                    "duration": 0.2115209999999479
                },
                {
                    "name": "C5",
                    "midi": 72,
                    "time": 525.6296849999867,
                    "velocity": 0.33070866141732286,
                    "duration": 0.2115209999999479
                },
                {
                    "name": "C6",
                    "midi": 84,
                    "time": 525.6296849999867,
                    "velocity": 0.41732283464566927,
                    "duration": 0.2115209999999479
                },
                {
                    "name": "B4",
                    "midi": 71,
                    "time": 525.8412059999866,
                    "velocity": 0.36220472440944884,
                    "duration": 0.2115209999999479
                },
                {
                    "name": "B5",
                    "midi": 83,
                    "time": 525.8412059999866,
                    "velocity": 0.4566929133858268,
                    "duration": 0.2115209999999479
                },
                {
                    "name": "C5",
                    "midi": 72,
                    "time": 526.0527269999866,
                    "velocity": 0.28346456692913385,
                    "duration": 0.2115209999999479
                },
                {
                    "name": "C6",
                    "midi": 84,
                    "time": 526.0527269999866,
                    "velocity": 0.36220472440944884,
                    "duration": 0.2115209999999479
                },
                {
                    "name": "A#5",
                    "midi": 82,
                    "time": 526.2642479999865,
                    "velocity": 0.3858267716535433,
                    "duration": 0.2115209999999479
                },
                {
                    "name": "G5",
                    "midi": 79,
                    "time": 526.4757689999865,
                    "velocity": 0.30708661417322836,
                    "duration": 0.2115209999999479
                },
                {
                    "name": "G5",
                    "midi": 79,
                    "time": 526.6872899999864,
                    "velocity": 0.3543307086614173,
                    "duration": 0.2115209999999479
                },
                {
                    "name": "F5",
                    "midi": 77,
                    "time": 526.8988109999864,
                    "velocity": 0.3228346456692913,
                    "duration": 0.2115209999999479
                },
                {
                    "name": "G5",
                    "midi": 79,
                    "time": 527.1103319999863,
                    "velocity": 0.3543307086614173,
                    "duration": 0.2115209999999479
                },
                {
                    "name": "C5",
                    "midi": 72,
                    "time": 527.1103319999863,
                    "velocity": 0.3228346456692913,
                    "duration": 0.4230419999998958
                },
                {
                    "name": "F5",
                    "midi": 77,
                    "time": 527.3218529999863,
                    "velocity": 0.3228346456692913,
                    "duration": 0.2115209999999479
                },
                {
                    "name": "E5",
                    "midi": 76,
                    "time": 527.5333739999862,
                    "velocity": 0.3228346456692913,
                    "duration": 0.4230419999998958
                },
                {
                    "name": "A5",
                    "midi": 81,
                    "time": 527.5333739999862,
                    "velocity": 0.3543307086614173,
                    "duration": 0.2115209999999479
                },
                {
                    "name": "G5",
                    "midi": 79,
                    "time": 527.7448949999862,
                    "velocity": 0.3543307086614173,
                    "duration": 0.2115209999999479
                },
                {
                    "name": "E5",
                    "midi": 76,
                    "time": 527.9564159999861,
                    "velocity": 0.3858267716535433,
                    "duration": 0.8460839999999052
                },
                {
                    "name": "G5",
                    "midi": 79,
                    "time": 527.9564159999861,
                    "velocity": 0.3858267716535433,
                    "duration": 0.6345629999999574
                },
                {
                    "name": "G#5",
                    "midi": 80,
                    "time": 528.5909789999861,
                    "velocity": 0.3858267716535433,
                    "duration": 0.2115209999999479
                },
                {
                    "name": "A5",
                    "midi": 81,
                    "time": 528.802499999986,
                    "velocity": 0.3543307086614173,
                    "duration": 0.42304200000000947
                },
                {
                    "name": "F5",
                    "midi": 77,
                    "time": 528.802499999986,
                    "velocity": 0.3543307086614173,
                    "duration": 0.42304200000000947
                },
                {
                    "name": "A#5",
                    "midi": 82,
                    "time": 529.225541999986,
                    "velocity": 0.3858267716535433,
                    "duration": 0.6345629999999574
                },
                {
                    "name": "C6",
                    "midi": 84,
                    "time": 529.860104999986,
                    "velocity": 0.3937007874015748,
                    "duration": 0.052880250000043816
                },
                {
                    "name": "A#5",
                    "midi": 82,
                    "time": 529.912985249986,
                    "velocity": 0.36220472440944884,
                    "duration": 0.052880250000043816
                },
                {
                    "name": "A5",
                    "midi": 81,
                    "time": 529.9658654999861,
                    "velocity": 0.36220472440944884,
                    "duration": 0.052880250000043816
                },
                {
                    "name": "A#5",
                    "midi": 82,
                    "time": 530.0187457499861,
                    "velocity": 0.3858267716535433,
                    "duration": 0.03525349999995342
                },
                {
                    "name": "C6",
                    "midi": 84,
                    "time": 530.071625999986,
                    "velocity": 0.41732283464566927,
                    "duration": 0.2115209999999479
                },
                {
                    "name": "D6",
                    "midi": 86,
                    "time": 530.283146999986,
                    "velocity": 0.4015748031496063,
                    "duration": 0.2115209999999479
                },
                {
                    "name": "D6",
                    "midi": 86,
                    "time": 530.494667999986,
                    "velocity": 0.47244094488188976,
                    "duration": 0.2115209999999479
                },
                {
                    "name": "C6",
                    "midi": 84,
                    "time": 530.7061889999859,
                    "velocity": 0.41732283464566927,
                    "duration": 0.2115209999999479
                },
                {
                    "name": "B5",
                    "midi": 83,
                    "time": 530.9177099999858,
                    "velocity": 0.44881889763779526,
                    "duration": 0.2115209999999479
                },
                {
                    "name": "C6",
                    "midi": 84,
                    "time": 531.1292309999858,
                    "velocity": 0.3858267716535433,
                    "duration": 0.2115209999999479
                },
                {
                    "name": "A#5",
                    "midi": 82,
                    "time": 531.3407519999857,
                    "velocity": 0.4330708661417323,
                    "duration": 0.2115209999999479
                },
                {
                    "name": "G5",
                    "midi": 79,
                    "time": 531.5522729999857,
                    "velocity": 0.3858267716535433,
                    "duration": 0.2115209999999479
                },
                {
                    "name": "G#5",
                    "midi": 80,
                    "time": 531.7637939999856,
                    "velocity": 0.41732283464566927,
                    "duration": 0.2115209999999479
                },
                {
                    "name": "A5",
                    "midi": 81,
                    "time": 531.9753149999856,
                    "velocity": 0.3858267716535433,
                    "duration": 0.2115209999999479
                },
                {
                    "name": "C6",
                    "midi": 84,
                    "time": 532.1868359999855,
                    "velocity": 0.4330708661417323,
                    "duration": 0.2115209999999479
                },
                {
                    "name": "A#5",
                    "midi": 82,
                    "time": 532.3983569999855,
                    "velocity": 0.3858267716535433,
                    "duration": 0.2115209999999479
                },
                {
                    "name": "G5",
                    "midi": 79,
                    "time": 532.6098779999854,
                    "velocity": 0.41732283464566927,
                    "duration": 0.2115209999999479
                },
                {
                    "name": "E5",
                    "midi": 76,
                    "time": 532.8213989999854,
                    "velocity": 0.3858267716535433,
                    "duration": 0.2115209999999479
                },
                {
                    "name": "F5",
                    "midi": 77,
                    "time": 533.0329199999853,
                    "velocity": 0.4251968503937008,
                    "duration": 0.2115209999999479
                },
                {
                    "name": "C5",
                    "midi": 72,
                    "time": 533.2444409999853,
                    "velocity": 0.2755905511811024,
                    "duration": 0.2115209999999479
                },
                {
                    "name": "C5",
                    "midi": 72,
                    "time": 533.6674829999852,
                    "velocity": 0.2755905511811024,
                    "duration": 0.10576049999997394
                },
                {
                    "name": "C5",
                    "midi": 72,
                    "time": 534.0905249999852,
                    "velocity": 0.2755905511811024,
                    "duration": 0.10576049999997394
                },
                {
                    "name": "A#4",
                    "midi": 70,
                    "time": 534.3020459999851,
                    "velocity": 0.2755905511811024,
                    "duration": 0.10576049999997394
                },
                {
                    "name": "C5",
                    "midi": 72,
                    "time": 534.3020459999851,
                    "velocity": 0.33070866141732286,
                    "duration": 0.10576049999997394
                },
                {
                    "name": "C5",
                    "midi": 72,
                    "time": 534.5135669999851,
                    "velocity": 0.2677165354330709,
                    "duration": 0.10576049999997394
                },
                {
                    "name": "A#4",
                    "midi": 70,
                    "time": 534.5135669999851,
                    "velocity": 0.2283464566929134,
                    "duration": 0.10576049999997394
                },
                {
                    "name": "A#4",
                    "midi": 70,
                    "time": 534.9366089999851,
                    "velocity": 0.2283464566929134,
                    "duration": 0.10576049999997394
                },
                {
                    "name": "C5",
                    "midi": 72,
                    "time": 534.9366089999851,
                    "velocity": 0.2677165354330709,
                    "duration": 0.10576049999997394
                },
                {
                    "name": "C5",
                    "midi": 72,
                    "time": 535.3596509999851,
                    "velocity": 0.2677165354330709,
                    "duration": 0.10576049999997394
                },
                {
                    "name": "A#4",
                    "midi": 70,
                    "time": 535.3596509999851,
                    "velocity": 0.2283464566929134,
                    "duration": 0.10576049999997394
                },
                {
                    "name": "G#4",
                    "midi": 68,
                    "time": 535.571171999985,
                    "velocity": 0.2755905511811024,
                    "duration": 0.10576049999997394
                },
                {
                    "name": "C5",
                    "midi": 72,
                    "time": 535.571171999985,
                    "velocity": 0.33070866141732286,
                    "duration": 0.10576049999997394
                },
                {
                    "name": "G#4",
                    "midi": 68,
                    "time": 535.782692999985,
                    "velocity": 0.2283464566929134,
                    "duration": 0.10576049999997394
                },
                {
                    "name": "C5",
                    "midi": 72,
                    "time": 535.782692999985,
                    "velocity": 0.2755905511811024,
                    "duration": 0.10576049999997394
                },
                {
                    "name": "G#4",
                    "midi": 68,
                    "time": 536.205734999985,
                    "velocity": 0.2283464566929134,
                    "duration": 0.10576049999997394
                },
                {
                    "name": "C5",
                    "midi": 72,
                    "time": 536.205734999985,
                    "velocity": 0.2755905511811024,
                    "duration": 0.10576049999997394
                },
                {
                    "name": "C5",
                    "midi": 72,
                    "time": 536.628776999985,
                    "velocity": 0.2755905511811024,
                    "duration": 0.10576049999997394
                },
                {
                    "name": "G#4",
                    "midi": 68,
                    "time": 536.628776999985,
                    "velocity": 0.2283464566929134,
                    "duration": 0.10576049999997394
                },
                {
                    "name": "C5",
                    "midi": 72,
                    "time": 536.840297999985,
                    "velocity": 0.33070866141732286,
                    "duration": 0.10576049999997394
                },
                {
                    "name": "A#4",
                    "midi": 70,
                    "time": 536.840297999985,
                    "velocity": 0.2755905511811024,
                    "duration": 0.10576049999997394
                },
                {
                    "name": "C5",
                    "midi": 72,
                    "time": 537.0518189999849,
                    "velocity": 0.2677165354330709,
                    "duration": 0.10576049999997394
                },
                {
                    "name": "A#4",
                    "midi": 70,
                    "time": 537.0518189999849,
                    "velocity": 0.2283464566929134,
                    "duration": 0.10576049999997394
                },
                {
                    "name": "C5",
                    "midi": 72,
                    "time": 537.4748609999849,
                    "velocity": 0.2677165354330709,
                    "duration": 0.10576049999997394
                },
                {
                    "name": "A#4",
                    "midi": 70,
                    "time": 537.4748609999849,
                    "velocity": 0.2283464566929134,
                    "duration": 0.10576049999997394
                },
                {
                    "name": "A#4",
                    "midi": 70,
                    "time": 537.8979029999849,
                    "velocity": 0.2283464566929134,
                    "duration": 0.10576049999997394
                },
                {
                    "name": "C5",
                    "midi": 72,
                    "time": 537.8979029999849,
                    "velocity": 0.2677165354330709,
                    "duration": 0.10576049999997394
                },
                {
                    "name": "C5",
                    "midi": 72,
                    "time": 538.1094239999849,
                    "velocity": 0.49606299212598426,
                    "duration": 0.10576049999997394
                },
                {
                    "name": "G#4",
                    "midi": 68,
                    "time": 538.1094239999849,
                    "velocity": 0.49606299212598426,
                    "duration": 0.10576049999997394
                },
                {
                    "name": "G#4",
                    "midi": 68,
                    "time": 538.3209449999848,
                    "velocity": 0.3937007874015748,
                    "duration": 0.10576049999997394
                },
                {
                    "name": "C5",
                    "midi": 72,
                    "time": 538.3209449999848,
                    "velocity": 0.3937007874015748,
                    "duration": 0.10576049999997394
                },
                {
                    "name": "C5",
                    "midi": 72,
                    "time": 538.7439869999848,
                    "velocity": 0.25984251968503935,
                    "duration": 0.10576049999997394
                },
                {
                    "name": "G#4",
                    "midi": 68,
                    "time": 538.7439869999848,
                    "velocity": 0.25984251968503935,
                    "duration": 0.10576049999997394
                },
                {
                    "name": "C5",
                    "midi": 72,
                    "time": 539.1670289999848,
                    "velocity": 0.25984251968503935,
                    "duration": 0.10576049999997394
                },
                {
                    "name": "G#4",
                    "midi": 68,
                    "time": 539.1670289999848,
                    "velocity": 0.25984251968503935,
                    "duration": 0.10576049999997394
                },
                {
                    "name": "C#5",
                    "midi": 73,
                    "time": 539.3785499999848,
                    "velocity": 0.49606299212598426,
                    "duration": 0.10576049999997394
                },
                {
                    "name": "G#4",
                    "midi": 68,
                    "time": 539.3785499999848,
                    "velocity": 0.49606299212598426,
                    "duration": 0.10576049999997394
                },
                {
                    "name": "G#4",
                    "midi": 68,
                    "time": 539.5900709999847,
                    "velocity": 0.3937007874015748,
                    "duration": 0.10576049999997394
                },
                {
                    "name": "C#5",
                    "midi": 73,
                    "time": 539.5900709999847,
                    "velocity": 0.3937007874015748,
                    "duration": 0.10576049999997394
                },
                {
                    "name": "G#4",
                    "midi": 68,
                    "time": 540.0131129999847,
                    "velocity": 0.25984251968503935,
                    "duration": 0.10576049999997394
                },
                {
                    "name": "C#5",
                    "midi": 73,
                    "time": 540.0131129999847,
                    "velocity": 0.25984251968503935,
                    "duration": 0.10576049999997394
                },
                {
                    "name": "C#5",
                    "midi": 73,
                    "time": 540.4361549999848,
                    "velocity": 0.25984251968503935,
                    "duration": 0.10576049999997394
                },
                {
                    "name": "G#4",
                    "midi": 68,
                    "time": 540.4361549999848,
                    "velocity": 0.25984251968503935,
                    "duration": 0.10576049999997394
                },
                {
                    "name": "G4",
                    "midi": 67,
                    "time": 540.6476759999847,
                    "velocity": 0.49606299212598426,
                    "duration": 0.10576049999997394
                },
                {
                    "name": "C#5",
                    "midi": 73,
                    "time": 540.6476759999847,
                    "velocity": 0.49606299212598426,
                    "duration": 0.10576049999997394
                },
                {
                    "name": "C#5",
                    "midi": 73,
                    "time": 540.8591969999846,
                    "velocity": 0.3937007874015748,
                    "duration": 0.10576049999997394
                },
                {
                    "name": "G4",
                    "midi": 67,
                    "time": 540.8591969999846,
                    "velocity": 0.3937007874015748,
                    "duration": 0.10576049999997394
                },
                {
                    "name": "C#5",
                    "midi": 73,
                    "time": 541.2822389999847,
                    "velocity": 0.25984251968503935,
                    "duration": 0.10576049999997394
                },
                {
                    "name": "G4",
                    "midi": 67,
                    "time": 541.2822389999847,
                    "velocity": 0.25984251968503935,
                    "duration": 0.10576049999997394
                },
                {
                    "name": "G4",
                    "midi": 67,
                    "time": 541.7052809999847,
                    "velocity": 0.25984251968503935,
                    "duration": 0.10576049999997394
                },
                {
                    "name": "C#5",
                    "midi": 73,
                    "time": 541.7052809999847,
                    "velocity": 0.25984251968503935,
                    "duration": 0.10576049999997394
                },
                {
                    "name": "G4",
                    "midi": 67,
                    "time": 541.9168019999846,
                    "velocity": 0.49606299212598426,
                    "duration": 0.10576049999997394
                },
                {
                    "name": "C5",
                    "midi": 72,
                    "time": 541.9168019999846,
                    "velocity": 0.49606299212598426,
                    "duration": 0.10576049999997394
                },
                {
                    "name": "C5",
                    "midi": 72,
                    "time": 542.1283229999846,
                    "velocity": 0.3937007874015748,
                    "duration": 0.10576049999997394
                },
                {
                    "name": "G4",
                    "midi": 67,
                    "time": 542.1283229999846,
                    "velocity": 0.3937007874015748,
                    "duration": 0.10576049999997394
                },
                {
                    "name": "G4",
                    "midi": 67,
                    "time": 542.5513649999846,
                    "velocity": 0.25984251968503935,
                    "duration": 0.10576049999997394
                },
                {
                    "name": "C5",
                    "midi": 72,
                    "time": 542.5513649999846,
                    "velocity": 0.25984251968503935,
                    "duration": 0.10576049999997394
                },
                {
                    "name": "C5",
                    "midi": 72,
                    "time": 542.9744069999846,
                    "velocity": 0.25984251968503935,
                    "duration": 0.10576049999997394
                },
                {
                    "name": "G4",
                    "midi": 67,
                    "time": 542.9744069999846,
                    "velocity": 0.25984251968503935,
                    "duration": 0.10576049999997394
                },
                {
                    "name": "F4",
                    "midi": 65,
                    "time": 543.1859279999845,
                    "velocity": 0.49606299212598426,
                    "duration": 0.10576049999997394
                },
                {
                    "name": "C5",
                    "midi": 72,
                    "time": 543.1859279999845,
                    "velocity": 0.49606299212598426,
                    "duration": 0.10576049999997394
                },
                {
                    "name": "F4",
                    "midi": 65,
                    "time": 543.3974489999845,
                    "velocity": 0.3937007874015748,
                    "duration": 0.10576049999997394
                },
                {
                    "name": "C5",
                    "midi": 72,
                    "time": 543.3974489999845,
                    "velocity": 0.3937007874015748,
                    "duration": 0.10576049999997394
                },
                {
                    "name": "F4",
                    "midi": 65,
                    "time": 543.8204909999845,
                    "velocity": 0.25984251968503935,
                    "duration": 0.10576049999997394
                },
                {
                    "name": "C5",
                    "midi": 72,
                    "time": 543.8204909999845,
                    "velocity": 0.25984251968503935,
                    "duration": 0.10576049999997394
                },
                {
                    "name": "F4",
                    "midi": 65,
                    "time": 544.0320119999844,
                    "velocity": 0.49606299212598426,
                    "duration": 0.10576049999997394
                },
                {
                    "name": "A#4",
                    "midi": 70,
                    "time": 544.0320119999844,
                    "velocity": 0.49606299212598426,
                    "duration": 0.10576049999997394
                },
                {
                    "name": "A#4",
                    "midi": 70,
                    "time": 544.2435329999844,
                    "velocity": 0.3937007874015748,
                    "duration": 0.10576049999997394
                },
                {
                    "name": "F4",
                    "midi": 65,
                    "time": 544.2435329999844,
                    "velocity": 0.3937007874015748,
                    "duration": 0.10576049999997394
                },
                {
                    "name": "F4",
                    "midi": 65,
                    "time": 544.6665749999844,
                    "velocity": 0.25984251968503935,
                    "duration": 0.10576049999997394
                },
                {
                    "name": "A#4",
                    "midi": 70,
                    "time": 544.6665749999844,
                    "velocity": 0.25984251968503935,
                    "duration": 0.10576049999997394
                },
                {
                    "name": "A#4",
                    "midi": 70,
                    "time": 544.8780959999843,
                    "velocity": 0.49606299212598426,
                    "duration": 0.10576049999997394
                },
                {
                    "name": "E4",
                    "midi": 64,
                    "time": 544.8780959999843,
                    "velocity": 0.49606299212598426,
                    "duration": 0.10576049999997394
                },
                {
                    "name": "E4",
                    "midi": 64,
                    "time": 545.0896169999843,
                    "velocity": 0.3937007874015748,
                    "duration": 0.10576049999997394
                },
                {
                    "name": "A#4",
                    "midi": 70,
                    "time": 545.0896169999843,
                    "velocity": 0.3937007874015748,
                    "duration": 0.10576049999997394
                },
                {
                    "name": "E4",
                    "midi": 64,
                    "time": 545.5126589999843,
                    "velocity": 0.25984251968503935,
                    "duration": 0.10576049999997394
                },
                {
                    "name": "A#4",
                    "midi": 70,
                    "time": 545.5126589999843,
                    "velocity": 0.25984251968503935,
                    "duration": 0.10576049999997394
                },
                {
                    "name": "G#4",
                    "midi": 68,
                    "time": 545.9357009999843,
                    "velocity": 0.25984251968503935,
                    "duration": 0.10576049999997394
                },
                {
                    "name": "F4",
                    "midi": 65,
                    "time": 545.9357009999843,
                    "velocity": 0.25984251968503935,
                    "duration": 0.10576049999997394
                },
                {
                    "name": "G#4",
                    "midi": 68,
                    "time": 546.3587429999843,
                    "velocity": 0.25984251968503935,
                    "duration": 0.10576049999997394
                },
                {
                    "name": "F4",
                    "midi": 65,
                    "time": 546.3587429999843,
                    "velocity": 0.25984251968503935,
                    "duration": 0.10576049999997394
                },
                {
                    "name": "F4",
                    "midi": 65,
                    "time": 546.7817849999843,
                    "velocity": 0.25984251968503935,
                    "duration": 0.10576049999997394
                },
                {
                    "name": "G#4",
                    "midi": 68,
                    "time": 546.7817849999843,
                    "velocity": 0.25984251968503935,
                    "duration": 0.10576049999997394
                },
                {
                    "name": "E4",
                    "midi": 64,
                    "time": 546.9933059999843,
                    "velocity": 0.25196850393700787,
                    "duration": 0.2115209999999479
                },
                {
                    "name": "G4",
                    "midi": 67,
                    "time": 546.9933059999843,
                    "velocity": 0.2992125984251969,
                    "duration": 0.2115209999999479
                },
                {
                    "name": "G#4",
                    "midi": 68,
                    "time": 547.2048269999842,
                    "velocity": 0.2440944881889764,
                    "duration": 0.2203343749999931
                },
                {
                    "name": "C5",
                    "midi": 72,
                    "time": 547.2048269999842,
                    "velocity": 0.29133858267716534,
                    "duration": 0.2203343749999931
                },
                {
                    "name": "A#4",
                    "midi": 70,
                    "time": 547.4163479999842,
                    "velocity": 0.25984251968503935,
                    "duration": 0.22033437500010677
                },
                {
                    "name": "G4",
                    "midi": 67,
                    "time": 547.4163479999842,
                    "velocity": 0.2204724409448819,
                    "duration": 0.22033437500010677
                },
                {
                    "name": "F4",
                    "midi": 65,
                    "time": 547.6278689999842,
                    "velocity": 0.2047244094488189,
                    "duration": 0.22033437500010677
                },
                {
                    "name": "G#4",
                    "midi": 68,
                    "time": 547.6278689999842,
                    "velocity": 0.2440944881889764,
                    "duration": 0.22033437500010677
                },
                {
                    "name": "E4",
                    "midi": 64,
                    "time": 547.8393899999843,
                    "velocity": 0.2204724409448819,
                    "duration": 0.22033437500010677
                },
                {
                    "name": "G4",
                    "midi": 67,
                    "time": 547.8393899999843,
                    "velocity": 0.25984251968503935,
                    "duration": 0.22033437500010677
                },
                {
                    "name": "G#4",
                    "midi": 68,
                    "time": 548.0509109999844,
                    "velocity": 0.23622047244094488,
                    "duration": 0.22033437500010677
                },
                {
                    "name": "F4",
                    "midi": 65,
                    "time": 548.0509109999844,
                    "velocity": 0.1968503937007874,
                    "duration": 0.22033437500010677
                },
                {
                    "name": "E4",
                    "midi": 64,
                    "time": 548.2624319999844,
                    "velocity": 0.25196850393700787,
                    "duration": 0.21152100000006158
                },
                {
                    "name": "G4",
                    "midi": 67,
                    "time": 548.2624319999844,
                    "velocity": 0.2992125984251969,
                    "duration": 0.21152100000006158
                },
                {
                    "name": "C5",
                    "midi": 72,
                    "time": 548.4739529999845,
                    "velocity": 0.29133858267716534,
                    "duration": 0.2203343749999931
                },
                {
                    "name": "G#4",
                    "midi": 68,
                    "time": 548.4739529999845,
                    "velocity": 0.2440944881889764,
                    "duration": 0.2203343749999931
                },
                {
                    "name": "G4",
                    "midi": 67,
                    "time": 548.6854739999844,
                    "velocity": 0.2204724409448819,
                    "duration": 0.22033437500010677
                },
                {
                    "name": "A#4",
                    "midi": 70,
                    "time": 548.6854739999844,
                    "velocity": 0.25984251968503935,
                    "duration": 0.22033437500010677
                },
                {
                    "name": "F4",
                    "midi": 65,
                    "time": 548.8969949999845,
                    "velocity": 0.2047244094488189,
                    "duration": 0.22033437500010677
                },
                {
                    "name": "G#4",
                    "midi": 68,
                    "time": 548.8969949999845,
                    "velocity": 0.2440944881889764,
                    "duration": 0.22033437500010677
                },
                {
                    "name": "G4",
                    "midi": 67,
                    "time": 549.1085159999845,
                    "velocity": 0.25984251968503935,
                    "duration": 0.22033437500010677
                },
                {
                    "name": "E4",
                    "midi": 64,
                    "time": 549.1085159999845,
                    "velocity": 0.2204724409448819,
                    "duration": 0.22033437500010677
                },
                {
                    "name": "F4",
                    "midi": 65,
                    "time": 549.3200369999846,
                    "velocity": 0.1968503937007874,
                    "duration": 0.22033437500010677
                },
                {
                    "name": "G#4",
                    "midi": 68,
                    "time": 549.3200369999846,
                    "velocity": 0.23622047244094488,
                    "duration": 0.22033437500010677
                },
                {
                    "name": "G4",
                    "midi": 67,
                    "time": 549.5315579999847,
                    "velocity": 0.29133858267716534,
                    "duration": 0.22033437500010677
                },
                {
                    "name": "E4",
                    "midi": 64,
                    "time": 549.5315579999847,
                    "velocity": 0.2440944881889764,
                    "duration": 0.22033437500010677
                },
                {
                    "name": "G#4",
                    "midi": 68,
                    "time": 549.7430789999847,
                    "velocity": 0.25196850393700787,
                    "duration": 0.22033437500010677
                },
                {
                    "name": "F4",
                    "midi": 65,
                    "time": 549.7430789999847,
                    "velocity": 0.2125984251968504,
                    "duration": 0.22033437500010677
                },
                {
                    "name": "E4",
                    "midi": 64,
                    "time": 549.9545999999848,
                    "velocity": 0.2440944881889764,
                    "duration": 0.22033437500010677
                },
                {
                    "name": "G4",
                    "midi": 67,
                    "time": 549.9545999999848,
                    "velocity": 0.29133858267716534,
                    "duration": 0.22033437500010677
                },
                {
                    "name": "F4",
                    "midi": 65,
                    "time": 550.1661209999849,
                    "velocity": 0.2204724409448819,
                    "duration": 0.22033437500010677
                },
                {
                    "name": "G#4",
                    "midi": 68,
                    "time": 550.1661209999849,
                    "velocity": 0.2677165354330709,
                    "duration": 0.22033437500010677
                },
                {
                    "name": "G4",
                    "midi": 67,
                    "time": 550.3776419999849,
                    "velocity": 0.29133858267716534,
                    "duration": 0.22033437500010677
                },
                {
                    "name": "E4",
                    "midi": 64,
                    "time": 550.3776419999849,
                    "velocity": 0.2440944881889764,
                    "duration": 0.22033437500010677
                },
                {
                    "name": "G#4",
                    "midi": 68,
                    "time": 550.589162999985,
                    "velocity": 0.2677165354330709,
                    "duration": 0.22033437500010677
                },
                {
                    "name": "F4",
                    "midi": 65,
                    "time": 550.589162999985,
                    "velocity": 0.2204724409448819,
                    "duration": 0.22033437500010677
                },
                {
                    "name": "E4",
                    "midi": 64,
                    "time": 550.800683999985,
                    "velocity": 0.2440944881889764,
                    "duration": 0.21152100000006158
                },
                {
                    "name": "G4",
                    "midi": 67,
                    "time": 550.800683999985,
                    "velocity": 0.29133858267716534,
                    "duration": 0.21152100000006158
                },
                {
                    "name": "F#4",
                    "midi": 66,
                    "time": 551.0122049999851,
                    "velocity": 0.25984251968503935,
                    "duration": 0.2203343749999931
                },
                {
                    "name": "D#4",
                    "midi": 63,
                    "time": 551.0122049999851,
                    "velocity": 0.25984251968503935,
                    "duration": 0.2203343749999931
                },
                {
                    "name": "E4",
                    "midi": 64,
                    "time": 551.223725999985,
                    "velocity": 0.2755905511811024,
                    "duration": 0.22033437500010677
                },
                {
                    "name": "G4",
                    "midi": 67,
                    "time": 551.223725999985,
                    "velocity": 0.2755905511811024,
                    "duration": 0.22033437500010677
                },
                {
                    "name": "A4",
                    "midi": 69,
                    "time": 551.4352469999851,
                    "velocity": 0.28346456692913385,
                    "duration": 0.22033437500010677
                },
                {
                    "name": "F#4",
                    "midi": 66,
                    "time": 551.4352469999851,
                    "velocity": 0.28346456692913385,
                    "duration": 0.22033437500010677
                },
                {
                    "name": "A#4",
                    "midi": 70,
                    "time": 551.6467679999852,
                    "velocity": 0.2992125984251969,
                    "duration": 0.22033437500010677
                },
                {
                    "name": "G4",
                    "midi": 67,
                    "time": 551.6467679999852,
                    "velocity": 0.2992125984251969,
                    "duration": 0.22033437500010677
                },
                {
                    "name": "C5",
                    "midi": 72,
                    "time": 551.8582889999852,
                    "velocity": 0.31496062992125984,
                    "duration": 0.22033437500010677
                },
                {
                    "name": "A4",
                    "midi": 69,
                    "time": 551.8582889999852,
                    "velocity": 0.31496062992125984,
                    "duration": 0.22033437500010677
                },
                {
                    "name": "D5",
                    "midi": 74,
                    "time": 552.0698099999853,
                    "velocity": 0.33070866141732286,
                    "duration": 0.42304200000000947
                },
                {
                    "name": "A#4",
                    "midi": 70,
                    "time": 552.0698099999853,
                    "velocity": 0.2755905511811024,
                    "duration": 0.42304200000000947
                },
                {
                    "name": "F4",
                    "midi": 65,
                    "time": 552.4928519999853,
                    "velocity": 0.2677165354330709,
                    "duration": 0.42304200000000947
                },
                {
                    "name": "A#4",
                    "midi": 70,
                    "time": 552.4928519999853,
                    "velocity": 0.2677165354330709,
                    "duration": 0.42304200000000947
                },
                {
                    "name": "D5",
                    "midi": 74,
                    "time": 552.4928519999853,
                    "velocity": 0.31496062992125984,
                    "duration": 0.42304200000000947
                },
                {
                    "name": "A#4",
                    "midi": 70,
                    "time": 552.9158939999853,
                    "velocity": 0.2677165354330709,
                    "duration": 0.42304200000000947
                },
                {
                    "name": "D5",
                    "midi": 74,
                    "time": 552.9158939999853,
                    "velocity": 0.31496062992125984,
                    "duration": 0.42304200000000947
                },
                {
                    "name": "F4",
                    "midi": 65,
                    "time": 552.9158939999853,
                    "velocity": 0.2677165354330709,
                    "duration": 0.42304200000000947
                },
                {
                    "name": "D5",
                    "midi": 74,
                    "time": 553.3389359999853,
                    "velocity": 0.33070866141732286,
                    "duration": 0.8460840000000189
                },
                {
                    "name": "F4",
                    "midi": 65,
                    "time": 553.3389359999853,
                    "velocity": 0.2755905511811024,
                    "duration": 1.2691260000000284
                },
                {
                    "name": "A#4",
                    "midi": 70,
                    "time": 553.3389359999853,
                    "velocity": 0.2755905511811024,
                    "duration": 0.8460840000000189
                },
                {
                    "name": "A4",
                    "midi": 69,
                    "time": 554.1850199999853,
                    "velocity": 0.2204724409448819,
                    "duration": 0.42304200000000947
                },
                {
                    "name": "C5",
                    "midi": 72,
                    "time": 554.1850199999853,
                    "velocity": 0.2677165354330709,
                    "duration": 0.42304200000000947
                },
                {
                    "name": "E4",
                    "midi": 64,
                    "time": 554.6080619999854,
                    "velocity": 0.2755905511811024,
                    "duration": 0.4230419999998958
                },
                {
                    "name": "G4",
                    "midi": 67,
                    "time": 554.6080619999854,
                    "velocity": 0.2755905511811024,
                    "duration": 0.4230419999998958
                },
                {
                    "name": "C5",
                    "midi": 72,
                    "time": 554.6080619999854,
                    "velocity": 0.33070866141732286,
                    "duration": 0.2115209999999479
                },
                {
                    "name": "A#4",
                    "midi": 70,
                    "time": 554.8195829999853,
                    "velocity": 0.2992125984251969,
                    "duration": 0.2115209999999479
                },
                {
                    "name": "A#4",
                    "midi": 70,
                    "time": 555.0311039999852,
                    "velocity": 0.33070866141732286,
                    "duration": 0.42304200000000947
                },
                {
                    "name": "E4",
                    "midi": 64,
                    "time": 555.0311039999852,
                    "velocity": 0.2755905511811024,
                    "duration": 0.42304200000000947
                },
                {
                    "name": "G4",
                    "midi": 67,
                    "time": 555.0311039999852,
                    "velocity": 0.2755905511811024,
                    "duration": 0.42304200000000947
                },
                {
                    "name": "A#4",
                    "midi": 70,
                    "time": 555.4541459999853,
                    "velocity": 0.2992125984251969,
                    "duration": 0.42304200000000947
                },
                {
                    "name": "G4",
                    "midi": 67,
                    "time": 555.4541459999853,
                    "velocity": 0.25196850393700787,
                    "duration": 0.42304200000000947
                },
                {
                    "name": "E4",
                    "midi": 64,
                    "time": 555.4541459999853,
                    "velocity": 0.25196850393700787,
                    "duration": 0.42304200000000947
                },
                {
                    "name": "E4",
                    "midi": 64,
                    "time": 555.8771879999853,
                    "velocity": 0.2755905511811024,
                    "duration": 0.8460840000000189
                },
                {
                    "name": "G4",
                    "midi": 67,
                    "time": 555.8771879999853,
                    "velocity": 0.2755905511811024,
                    "duration": 0.8460840000000189
                },
                {
                    "name": "A#4",
                    "midi": 70,
                    "time": 555.8771879999853,
                    "velocity": 0.33070866141732286,
                    "duration": 0.8460840000000189
                },
                {
                    "name": "A4",
                    "midi": 69,
                    "time": 556.7232719999853,
                    "velocity": 0.30708661417322836,
                    "duration": 0.42304200000000947
                },
                {
                    "name": "F4",
                    "midi": 65,
                    "time": 556.7232719999853,
                    "velocity": 0.25984251968503935,
                    "duration": 0.42304200000000947
                },
                {
                    "name": "C5",
                    "midi": 72,
                    "time": 557.1463139999853,
                    "velocity": 0.33070866141732286,
                    "duration": 0.2115209999999479
                },
                {
                    "name": "A4",
                    "midi": 69,
                    "time": 557.1463139999853,
                    "velocity": 0.2755905511811024,
                    "duration": 0.2115209999999479
                },
                {
                    "name": "A#4",
                    "midi": 70,
                    "time": 557.3578349999852,
                    "velocity": 0.29133858267716534,
                    "duration": 0.2115209999999479
                },
                {
                    "name": "G4",
                    "midi": 67,
                    "time": 557.3578349999852,
                    "velocity": 0.2440944881889764,
                    "duration": 0.2115209999999479
                },
                {
                    "name": "F4",
                    "midi": 65,
                    "time": 557.5693559999852,
                    "velocity": 0.2755905511811024,
                    "duration": 0.42304200000000947
                },
                {
                    "name": "A4",
                    "midi": 69,
                    "time": 557.5693559999852,
                    "velocity": 0.33070866141732286,
                    "duration": 0.42304200000000947
                },
                {
                    "name": "E4",
                    "midi": 64,
                    "time": 557.9923979999852,
                    "velocity": 0.23622047244094488,
                    "duration": 0.42304200000000947
                },
                {
                    "name": "G4",
                    "midi": 67,
                    "time": 557.9923979999852,
                    "velocity": 0.28346456692913385,
                    "duration": 0.42304200000000947
                },
                {
                    "name": "F4",
                    "midi": 65,
                    "time": 558.4154399999852,
                    "velocity": 0.2755905511811024,
                    "duration": 0.2115209999999479
                },
                {
                    "name": "A4",
                    "midi": 69,
                    "time": 558.4154399999852,
                    "velocity": 0.33070866141732286,
                    "duration": 0.2115209999999479
                },
                {
                    "name": "F5",
                    "midi": 77,
                    "time": 558.6269609999852,
                    "velocity": 0.2755905511811024,
                    "duration": 0.19389424999997118
                },
                {
                    "name": "G5",
                    "midi": 79,
                    "time": 558.8384819999851,
                    "velocity": 0.29133858267716534,
                    "duration": 0.19389424999997118
                },
                {
                    "name": "A5",
                    "midi": 81,
                    "time": 559.050002999985,
                    "velocity": 0.2992125984251969,
                    "duration": 0.19389424999997118
                },
                {
                    "name": "A#5",
                    "midi": 82,
                    "time": 559.261523999985,
                    "velocity": 0.31496062992125984,
                    "duration": 0.19389424999997118
                },
                {
                    "name": "C6",
                    "midi": 84,
                    "time": 559.473044999985,
                    "velocity": 0.3228346456692913,
                    "duration": 0.19389424999997118
                },
                {
                    "name": "D6",
                    "midi": 86,
                    "time": 559.6845659999849,
                    "velocity": 0.36220472440944884,
                    "duration": 0.42304200000000947
                },
                {
                    "name": "D6",
                    "midi": 86,
                    "time": 560.1076079999849,
                    "velocity": 0.3464566929133858,
                    "duration": 0.42304200000000947
                },
                {
                    "name": "D6",
                    "midi": 86,
                    "time": 560.5306499999849,
                    "velocity": 0.3464566929133858,
                    "duration": 0.42304200000000947
                },
                {
                    "name": "D6",
                    "midi": 86,
                    "time": 560.9536919999849,
                    "velocity": 0.36220472440944884,
                    "duration": 0.6345629999999574
                },
                {
                    "name": "E6",
                    "midi": 88,
                    "time": 561.5882549999849,
                    "velocity": 0.30708661417322836,
                    "duration": 0.10576049999997394
                },
                {
                    "name": "D6",
                    "midi": 86,
                    "time": 561.6940154999849,
                    "velocity": 0.30708661417322836,
                    "duration": 0.10576049999997394
                },
                {
                    "name": "C6",
                    "midi": 84,
                    "time": 561.7997759999848,
                    "velocity": 0.36220472440944884,
                    "duration": 0.42304200000000947
                },
                {
                    "name": "C6",
                    "midi": 84,
                    "time": 562.2228179999848,
                    "velocity": 0.36220472440944884,
                    "duration": 0.2115209999999479
                },
                {
                    "name": "E5",
                    "midi": 76,
                    "time": 562.2228179999848,
                    "velocity": 0.2755905511811024,
                    "duration": 0.4230419999998958
                },
                {
                    "name": "A#5",
                    "midi": 82,
                    "time": 562.4343389999848,
                    "velocity": 0.3228346456692913,
                    "duration": 0.2115209999999479
                },
                {
                    "name": "E5",
                    "midi": 76,
                    "time": 562.6458599999847,
                    "velocity": 0.2755905511811024,
                    "duration": 0.42304200000000947
                },
                {
                    "name": "A#5",
                    "midi": 82,
                    "time": 562.6458599999847,
                    "velocity": 0.36220472440944884,
                    "duration": 0.42304200000000947
                },
                {
                    "name": "A#5",
                    "midi": 82,
                    "time": 563.0689019999847,
                    "velocity": 0.3228346456692913,
                    "duration": 0.42304200000000947
                },
                {
                    "name": "E5",
                    "midi": 76,
                    "time": 563.0689019999847,
                    "velocity": 0.25196850393700787,
                    "duration": 0.42304200000000947
                },
                {
                    "name": "E5",
                    "midi": 76,
                    "time": 563.4919439999848,
                    "velocity": 0.2755905511811024,
                    "duration": 0.8460840000000189
                },
                {
                    "name": "A#5",
                    "midi": 82,
                    "time": 563.4919439999848,
                    "velocity": 0.36220472440944884,
                    "duration": 0.8460840000000189
                },
                {
                    "name": "A5",
                    "midi": 81,
                    "time": 564.3380279999848,
                    "velocity": 0.33070866141732286,
                    "duration": 0.42304200000000947
                },
                {
                    "name": "F5",
                    "midi": 77,
                    "time": 564.3380279999848,
                    "velocity": 0.25984251968503935,
                    "duration": 0.42304200000000947
                },
                {
                    "name": "C6",
                    "midi": 84,
                    "time": 564.7610699999848,
                    "velocity": 0.36220472440944884,
                    "duration": 0.2115209999999479
                },
                {
                    "name": "A5",
                    "midi": 81,
                    "time": 564.7610699999848,
                    "velocity": 0.2755905511811024,
                    "duration": 0.2115209999999479
                },
                {
                    "name": "A#5",
                    "midi": 82,
                    "time": 564.9725909999847,
                    "velocity": 0.31496062992125984,
                    "duration": 0.2115209999999479
                },
                {
                    "name": "G5",
                    "midi": 79,
                    "time": 564.9725909999847,
                    "velocity": 0.2440944881889764,
                    "duration": 0.2115209999999479
                },
                {
                    "name": "A5",
                    "midi": 81,
                    "time": 565.1841119999847,
                    "velocity": 0.36220472440944884,
                    "duration": 0.42304200000000947
                },
                {
                    "name": "F5",
                    "midi": 77,
                    "time": 565.1841119999847,
                    "velocity": 0.2755905511811024,
                    "duration": 0.42304200000000947
                },
                {
                    "name": "E5",
                    "midi": 76,
                    "time": 565.6071539999847,
                    "velocity": 0.23622047244094488,
                    "duration": 0.42304200000000947
                },
                {
                    "name": "G5",
                    "midi": 79,
                    "time": 565.6071539999847,
                    "velocity": 0.30708661417322836,
                    "duration": 0.42304200000000947
                },
                {
                    "name": "C6",
                    "midi": 84,
                    "time": 566.0301959999847,
                    "velocity": 0.49606299212598426,
                    "duration": 0.10576049999997394
                },
                {
                    "name": "A5",
                    "midi": 81,
                    "time": 566.0301959999847,
                    "velocity": 0.49606299212598426,
                    "duration": 0.10576049999997394
                },
                {
                    "name": "C6",
                    "midi": 84,
                    "time": 566.2417169999846,
                    "velocity": 0.3937007874015748,
                    "duration": 0.10576049999997394
                },
                {
                    "name": "A5",
                    "midi": 81,
                    "time": 566.2417169999846,
                    "velocity": 0.3937007874015748,
                    "duration": 0.10576049999997394
                },
                {
                    "name": "G5",
                    "midi": 79,
                    "time": 566.6647589999847,
                    "velocity": 0.25984251968503935,
                    "duration": 0.10576049999997394
                },
                {
                    "name": "A#5",
                    "midi": 82,
                    "time": 566.6647589999847,
                    "velocity": 0.25984251968503935,
                    "duration": 0.10576049999997394
                },
                {
                    "name": "F5",
                    "midi": 77,
                    "time": 567.0878009999847,
                    "velocity": 0.25984251968503935,
                    "duration": 0.10576049999997394
                },
                {
                    "name": "A5",
                    "midi": 81,
                    "time": 567.0878009999847,
                    "velocity": 0.25984251968503935,
                    "duration": 0.10576049999997394
                },
                {
                    "name": "G5",
                    "midi": 79,
                    "time": 567.5108429999847,
                    "velocity": 0.25984251968503935,
                    "duration": 0.10576049999997394
                },
                {
                    "name": "A#4",
                    "midi": 70,
                    "time": 567.5108429999847,
                    "velocity": 0.25984251968503935,
                    "duration": 0.10576049999997394
                },
                {
                    "name": "F5",
                    "midi": 77,
                    "time": 567.9338849999847,
                    "velocity": 0.25984251968503935,
                    "duration": 0.10576049999997394
                },
                {
                    "name": "A4",
                    "midi": 69,
                    "time": 567.9338849999847,
                    "velocity": 0.25984251968503935,
                    "duration": 0.10576049999997394
                },
                {
                    "name": "G4",
                    "midi": 67,
                    "time": 568.3569269999847,
                    "velocity": 0.25984251968503935,
                    "duration": 0.10576049999997394
                },
                {
                    "name": "E5",
                    "midi": 76,
                    "time": 568.3569269999847,
                    "velocity": 0.25984251968503935,
                    "duration": 0.10576049999997394
                },
                {
                    "name": "A5",
                    "midi": 81,
                    "time": 568.6742084999846,
                    "velocity": 0.5669291338582677,
                    "duration": 0.10576049999997394
                },
                {
                    "name": "C6",
                    "midi": 84,
                    "time": 568.7799689999846,
                    "velocity": 0.5905511811023622,
                    "duration": 0.10576049999997394
                },
                {
                    "name": "A5",
                    "midi": 81,
                    "time": 568.8857294999846,
                    "velocity": 0.5669291338582677,
                    "duration": 0.10576049999997394
                },
                {
                    "name": "G5",
                    "midi": 79,
                    "time": 569.0972504999845,
                    "velocity": 0.5511811023622047,
                    "duration": 0.10576049999997394
                },
                {
                    "name": "A#5",
                    "midi": 82,
                    "time": 569.2030109999845,
                    "velocity": 0.5905511811023622,
                    "duration": 0.10576049999997394
                },
                {
                    "name": "G5",
                    "midi": 79,
                    "time": 569.3087714999845,
                    "velocity": 0.5511811023622047,
                    "duration": 0.10576049999997394
                },
                {
                    "name": "F5",
                    "midi": 77,
                    "time": 569.5202924999844,
                    "velocity": 0.5669291338582677,
                    "duration": 0.10576049999997394
                },
                {
                    "name": "A5",
                    "midi": 81,
                    "time": 569.6260529999844,
                    "velocity": 0.5905511811023622,
                    "duration": 0.10576049999997394
                },
                {
                    "name": "F5",
                    "midi": 77,
                    "time": 569.7318134999844,
                    "velocity": 0.5590551181102362,
                    "duration": 0.10576049999997394
                },
                {
                    "name": "A#4",
                    "midi": 70,
                    "time": 569.9433344999843,
                    "velocity": 0.5590551181102362,
                    "duration": 0.10576049999997394
                },
                {
                    "name": "G5",
                    "midi": 79,
                    "time": 570.0490949999843,
                    "velocity": 0.5905511811023622,
                    "duration": 0.10576049999997394
                },
                {
                    "name": "A#4",
                    "midi": 70,
                    "time": 570.1548554999843,
                    "velocity": 0.5590551181102362,
                    "duration": 0.10576049999997394
                },
                {
                    "name": "A4",
                    "midi": 69,
                    "time": 570.3663764999842,
                    "velocity": 0.5590551181102362,
                    "duration": 0.10576049999997394
                },
                {
                    "name": "F5",
                    "midi": 77,
                    "time": 570.4721369999842,
                    "velocity": 0.5905511811023622,
                    "duration": 0.10576049999997394
                },
                {
                    "name": "A4",
                    "midi": 69,
                    "time": 570.5778974999841,
                    "velocity": 0.5590551181102362,
                    "duration": 0.10576049999997394
                },
                {
                    "name": "G4",
                    "midi": 67,
                    "time": 570.7894184999841,
                    "velocity": 0.5590551181102362,
                    "duration": 0.10576049999997394
                },
                {
                    "name": "E5",
                    "midi": 76,
                    "time": 570.8951789999841,
                    "velocity": 0.5905511811023622,
                    "duration": 0.10576049999997394
                },
                {
                    "name": "G4",
                    "midi": 67,
                    "time": 571.000939499984,
                    "velocity": 0.5590551181102362,
                    "duration": 0.10576049999997394
                },
                {
                    "name": "A4",
                    "midi": 69,
                    "time": 571.106699999984,
                    "velocity": 0.5905511811023622,
                    "duration": 0.42304200000000947
                },
                {
                    "name": "C5",
                    "midi": 72,
                    "time": 571.106699999984,
                    "velocity": 0.5905511811023622,
                    "duration": 0.42304200000000947
                },
                {
                    "name": "F5",
                    "midi": 77,
                    "time": 571.106699999984,
                    "velocity": 0.5905511811023622,
                    "duration": 0.42304200000000947
                },
                {
                    "name": "A4",
                    "midi": 69,
                    "time": 571.952783999984,
                    "velocity": 0.5511811023622047,
                    "duration": 0.052880250000043816
                },
                {
                    "name": "A#4",
                    "midi": 70,
                    "time": 572.0056642499841,
                    "velocity": 0.5118110236220472,
                    "duration": 0.052880250000043816
                },
                {
                    "name": "A4",
                    "midi": 69,
                    "time": 572.0585444999841,
                    "velocity": 0.5511811023622047,
                    "duration": 0.052880250000043816
                },
                {
                    "name": "A#4",
                    "midi": 70,
                    "time": 572.1114247499842,
                    "velocity": 0.5196850393700787,
                    "duration": 0.052880250000043816
                },
                {
                    "name": "A4",
                    "midi": 69,
                    "time": 572.1643049999842,
                    "velocity": 0.5511811023622047,
                    "duration": 0.03525349999995342
                },
                {
                    "name": "A#4",
                    "midi": 70,
                    "time": 572.1995584999842,
                    "velocity": 0.5196850393700787,
                    "duration": 0.03525349999995342
                },
                {
                    "name": "A4",
                    "midi": 69,
                    "time": 572.2348119999841,
                    "velocity": 0.5196850393700787,
                    "duration": 0.03525349999995342
                },
                {
                    "name": "G4",
                    "midi": 67,
                    "time": 572.2700654999841,
                    "velocity": 0.5511811023622047,
                    "duration": 0.052880250000043816
                },
                {
                    "name": "F4",
                    "midi": 65,
                    "time": 572.3229457499841,
                    "velocity": 0.5196850393700787,
                    "duration": 0.052880250000043816
                },
                {
                    "name": "C5",
                    "midi": 72,
                    "time": 572.3758259999842,
                    "velocity": 0.5905511811023622,
                    "duration": 0.8460840000000189
                },
                {
                    "name": "E5",
                    "midi": 76,
                    "time": 573.2219099999842,
                    "velocity": 0.5511811023622047,
                    "duration": 0.052880250000043816
                },
                {
                    "name": "F5",
                    "midi": 77,
                    "time": 573.2747902499842,
                    "velocity": 0.5196850393700787,
                    "duration": 0.052880250000043816
                },
                {
                    "name": "E5",
                    "midi": 76,
                    "time": 573.3276704999843,
                    "velocity": 0.5511811023622047,
                    "duration": 0.052880250000043816
                },
                {
                    "name": "F5",
                    "midi": 77,
                    "time": 573.3805507499843,
                    "velocity": 0.5196850393700787,
                    "duration": 0.052880250000043816
                },
                {
                    "name": "E5",
                    "midi": 76,
                    "time": 573.4334309999844,
                    "velocity": 0.5511811023622047,
                    "duration": 0.03525349999995342
                },
                {
                    "name": "F5",
                    "midi": 77,
                    "time": 573.4686844999843,
                    "velocity": 0.5118110236220472,
                    "duration": 0.03525349999995342
                },
                {
                    "name": "E5",
                    "midi": 76,
                    "time": 573.5039379999843,
                    "velocity": 0.5196850393700787,
                    "duration": 0.03525349999995342
                },
                {
                    "name": "D5",
                    "midi": 74,
                    "time": 573.5391914999842,
                    "velocity": 0.5511811023622047,
                    "duration": 0.052880250000043816
                },
                {
                    "name": "C5",
                    "midi": 72,
                    "time": 573.5920717499843,
                    "velocity": 0.5118110236220472,
                    "duration": 0.052880250000043816
                },
                {
                    "name": "F5",
                    "midi": 77,
                    "time": 573.6449519999843,
                    "velocity": 0.5905511811023622,
                    "duration": 0.8460840000000189
                },
                {
                    "name": "A5",
                    "midi": 81,
                    "time": 574.4910359999843,
                    "velocity": 0.5511811023622047,
                    "duration": 0.052880250000043816
                },
                {
                    "name": "A#5",
                    "midi": 82,
                    "time": 574.5439162499844,
                    "velocity": 0.5118110236220472,
                    "duration": 0.052880250000043816
                },
                {
                    "name": "A5",
                    "midi": 81,
                    "time": 574.5967964999844,
                    "velocity": 0.5511811023622047,
                    "duration": 0.052880250000043816
                },
                {
                    "name": "A#5",
                    "midi": 82,
                    "time": 574.6496767499845,
                    "velocity": 0.5196850393700787,
                    "duration": 0.052880250000043816
                },
                {
                    "name": "A5",
                    "midi": 81,
                    "time": 574.7025569999845,
                    "velocity": 0.5511811023622047,
                    "duration": 0.03525349999995342
                },
                {
                    "name": "A#5",
                    "midi": 82,
                    "time": 574.7378104999844,
                    "velocity": 0.5196850393700787,
                    "duration": 0.03525349999995342
                },
                {
                    "name": "A5",
                    "midi": 81,
                    "time": 574.7730639999844,
                    "velocity": 0.5196850393700787,
                    "duration": 0.03525349999995342
                },
                {
                    "name": "G5",
                    "midi": 79,
                    "time": 574.8083174999844,
                    "velocity": 0.5511811023622047,
                    "duration": 0.052880250000043816
                },
                {
                    "name": "F5",
                    "midi": 77,
                    "time": 574.8611977499844,
                    "velocity": 0.5196850393700787,
                    "duration": 0.052880250000043816
                },
                {
                    "name": "C6",
                    "midi": 84,
                    "time": 574.9140779999844,
                    "velocity": 0.5905511811023622,
                    "duration": 0.2115209999999479
                },
                {
                    "name": "C6",
                    "midi": 84,
                    "time": 575.3371199999843,
                    "velocity": 0.5905511811023622,
                    "duration": 0.2115209999999479
                },
                {
                    "name": "E6",
                    "midi": 88,
                    "time": 575.7601619999842,
                    "velocity": 0.5511811023622047,
                    "duration": 0.052880250000043816
                },
                {
                    "name": "F6",
                    "midi": 89,
                    "time": 575.8130422499843,
                    "velocity": 0.5196850393700787,
                    "duration": 0.052880250000043816
                },
                {
                    "name": "E6",
                    "midi": 88,
                    "time": 575.8659224999843,
                    "velocity": 0.5511811023622047,
                    "duration": 0.052880250000043816
                },
                {
                    "name": "F6",
                    "midi": 89,
                    "time": 575.9188027499844,
                    "velocity": 0.5196850393700787,
                    "duration": 0.052880250000043816
                },
                {
                    "name": "E6",
                    "midi": 88,
                    "time": 575.9716829999844,
                    "velocity": 0.5511811023622047,
                    "duration": 0.03525349999995342
                },
                {
                    "name": "F6",
                    "midi": 89,
                    "time": 576.0069364999844,
                    "velocity": 0.5118110236220472,
                    "duration": 0.03525349999995342
                },
                {
                    "name": "E6",
                    "midi": 88,
                    "time": 576.0421899999843,
                    "velocity": 0.5196850393700787,
                    "duration": 0.03525349999995342
                },
                {
                    "name": "D6",
                    "midi": 86,
                    "time": 576.0774434999843,
                    "velocity": 0.5511811023622047,
                    "duration": 0.052880250000043816
                },
                {
                    "name": "C6",
                    "midi": 84,
                    "time": 576.1303237499843,
                    "velocity": 0.5118110236220472,
                    "duration": 0.052880250000043816
                },
                {
                    "name": "F6",
                    "midi": 89,
                    "time": 576.1832039999844,
                    "velocity": 0.5905511811023622,
                    "duration": 0.10576049999997394
                },
                {
                    "name": "A5",
                    "midi": 81,
                    "time": 576.6062459999844,
                    "velocity": 0.6929133858267716,
                    "duration": 0.6345629999999574
                },
                {
                    "name": "C#5",
                    "midi": 73,
                    "time": 577.2408089999843,
                    "velocity": 0.5905511811023622,
                    "duration": 0.2115209999999479
                },
                {
                    "name": "D5",
                    "midi": 74,
                    "time": 577.4523299999843,
                    "velocity": 0.5905511811023622,
                    "duration": 0.10576049999997394
                },
                {
                    "name": "F5",
                    "midi": 77,
                    "time": 577.8753719999843,
                    "velocity": 0.7007874015748031,
                    "duration": 0.6345629999999574
                },
                {
                    "name": "A4",
                    "midi": 69,
                    "time": 578.5099349999842,
                    "velocity": 0.5905511811023622,
                    "duration": 0.2115209999999479
                },
                {
                    "name": "A#4",
                    "midi": 70,
                    "time": 578.7214559999842,
                    "velocity": 0.5511811023622047,
                    "duration": 0.052880250000043816
                },
                {
                    "name": "C5",
                    "midi": 72,
                    "time": 578.7743362499842,
                    "velocity": 0.5118110236220472,
                    "duration": 0.052880250000043816
                },
                {
                    "name": "A#4",
                    "midi": 70,
                    "time": 578.8272164999843,
                    "velocity": 0.5511811023622047,
                    "duration": 0.052880250000043816
                },
                {
                    "name": "C5",
                    "midi": 72,
                    "time": 578.8800967499843,
                    "velocity": 0.5196850393700787,
                    "duration": 0.052880250000043816
                },
                {
                    "name": "A#4",
                    "midi": 70,
                    "time": 578.9329769999844,
                    "velocity": 0.5511811023622047,
                    "duration": 0.03525349999995342
                },
                {
                    "name": "C5",
                    "midi": 72,
                    "time": 578.9682304999843,
                    "velocity": 0.5196850393700787,
                    "duration": 0.03525349999995342
                },
                {
                    "name": "A#4",
                    "midi": 70,
                    "time": 579.0034839999843,
                    "velocity": 0.5196850393700787,
                    "duration": 0.03525349999995342
                },
                {
                    "name": "A4",
                    "midi": 69,
                    "time": 579.0387374999842,
                    "velocity": 0.5511811023622047,
                    "duration": 0.052880250000043816
                },
                {
                    "name": "G4",
                    "midi": 67,
                    "time": 579.0916177499843,
                    "velocity": 0.5196850393700787,
                    "duration": 0.052880250000043816
                },
                {
                    "name": "C5",
                    "midi": 72,
                    "time": 579.1444979999843,
                    "velocity": 0.6614173228346457,
                    "duration": 0.10576049999997394
                },
                {
                    "name": "C5",
                    "midi": 72,
                    "time": 579.5675399999843,
                    "velocity": 0.5669291338582677,
                    "duration": 0.10576049999997394
                },
                {
                    "name": "G4",
                    "midi": 67,
                    "time": 579.5675399999843,
                    "velocity": 0.5669291338582677,
                    "duration": 0.10576049999997394
                },
                {
                    "name": "E5",
                    "midi": 76,
                    "time": 579.5675399999843,
                    "velocity": 0.6771653543307087,
                    "duration": 0.10576049999997394
                },
                {
                    "name": "F5",
                    "midi": 77,
                    "time": 579.9905819999843,
                    "velocity": 0.6771653543307087,
                    "duration": 0.10576049999997394
                },
                {
                    "name": "A4",
                    "midi": 69,
                    "time": 579.9905819999843,
                    "velocity": 0.5669291338582677,
                    "duration": 0.10576049999997394
                },
                {
                    "name": "C5",
                    "midi": 72,
                    "time": 579.9905819999843,
                    "velocity": 0.5669291338582677,
                    "duration": 0.10576049999997394
                },
                {
                    "name": "F4",
                    "midi": 65,
                    "time": 580.4136239999843,
                    "velocity": 0.6220472440944882,
                    "duration": 0.10576049999997394
                }
            ],
            "controlChanges": {
                "7": [
                    {
                        "number": 7,
                        "time": 0,
                        "value": 0.7874015748031497
                    }
                ],
                "10": [
                    {
                        "number": 10,
                        "time": 0,
                        "value": 0.5039370078740157
                    }
                ],
                "91": [
                    {
                        "number": 91,
                        "time": 0,
                        "value": 1
                    },
                    {
                        "number": 91,
                        "time": 118.02871800000061,
                        "value": 1
                    },
                    {
                        "number": 91,
                        "time": 285.55334999999945,
                        "value": 1
                    },
                    {
                        "number": 91,
                        "time": 458.15448599999104,
                        "value": 1
                    }
                ]
            },
            "id": 1,
            "name": "Piano right",
            "instrumentNumber": 0,
            "instrument": "acoustic grand piano",
            "instrumentFamily": "piano",
            "channelNumber": 0,
            "isPercussion": false
        },
        {
            "startTime": 0,
            "duration": 580.519384500002,
            "length": 2124,
            "notes": [
                {
                    "name": "F3",
                    "midi": 53,
                    "time": 0,
                    "velocity": 0.31496062992125984,
                    "duration": 0.21152100000000001
                },
                {
                    "name": "A3",
                    "midi": 57,
                    "time": 0.21152100000000001,
                    "velocity": 0.23622047244094488,
                    "duration": 0.21152100000000001
                },
                {
                    "name": "C4",
                    "midi": 60,
                    "time": 0.42304200000000003,
                    "velocity": 0.25984251968503935,
                    "duration": 0.21152099999999996
                },
                {
                    "name": "A3",
                    "midi": 57,
                    "time": 0.634563,
                    "velocity": 0.23622047244094488,
                    "duration": 0.21152100000000007
                },
                {
                    "name": "C4",
                    "midi": 60,
                    "time": 0.8460840000000001,
                    "velocity": 0.2677165354330709,
                    "duration": 0.21152100000000007
                },
                {
                    "name": "A3",
                    "midi": 57,
                    "time": 1.0576050000000001,
                    "velocity": 0.23622047244094488,
                    "duration": 0.21152100000000007
                },
                {
                    "name": "F3",
                    "midi": 53,
                    "time": 1.2691260000000002,
                    "velocity": 0.31496062992125984,
                    "duration": 0.21152100000000007
                },
                {
                    "name": "C4",
                    "midi": 60,
                    "time": 1.4806470000000003,
                    "velocity": 0.2283464566929134,
                    "duration": 0.21152100000000007
                },
                {
                    "name": "D#4",
                    "midi": 63,
                    "time": 1.6921680000000003,
                    "velocity": 0.2440944881889764,
                    "duration": 0.21152100000000007
                },
                {
                    "name": "C4",
                    "midi": 60,
                    "time": 1.9036890000000004,
                    "velocity": 0.2125984251968504,
                    "duration": 0.21152099999999985
                },
                {
                    "name": "D#4",
                    "midi": 63,
                    "time": 2.1152100000000003,
                    "velocity": 0.2440944881889764,
                    "duration": 0.21152099999999985
                },
                {
                    "name": "C4",
                    "midi": 60,
                    "time": 2.326731,
                    "velocity": 0.2204724409448819,
                    "duration": 0.21152099999999985
                },
                {
                    "name": "F3",
                    "midi": 53,
                    "time": 2.538252,
                    "velocity": 0.31496062992125984,
                    "duration": 0.21152099999999985
                },
                {
                    "name": "A#3",
                    "midi": 58,
                    "time": 2.749773,
                    "velocity": 0.23622047244094488,
                    "duration": 0.21152099999999985
                },
                {
                    "name": "D4",
                    "midi": 62,
                    "time": 2.9612939999999996,
                    "velocity": 0.25984251968503935,
                    "duration": 0.21152099999999985
                },
                {
                    "name": "A#3",
                    "midi": 58,
                    "time": 3.1728149999999995,
                    "velocity": 0.23622047244094488,
                    "duration": 0.21152099999999985
                },
                {
                    "name": "D4",
                    "midi": 62,
                    "time": 3.3843359999999993,
                    "velocity": 0.25984251968503935,
                    "duration": 0.21152099999999985
                },
                {
                    "name": "A#3",
                    "midi": 58,
                    "time": 3.595856999999999,
                    "velocity": 0.23622047244094488,
                    "duration": 0.21152099999999985
                },
                {
                    "name": "F3",
                    "midi": 53,
                    "time": 3.807377999999999,
                    "velocity": 0.31496062992125984,
                    "duration": 0.2115210000000003
                },
                {
                    "name": "G3",
                    "midi": 55,
                    "time": 4.018898999999999,
                    "velocity": 0.18110236220472442,
                    "duration": 0.2115210000000003
                },
                {
                    "name": "A#3",
                    "midi": 58,
                    "time": 4.23042,
                    "velocity": 0.2204724409448819,
                    "duration": 0.2115210000000003
                },
                {
                    "name": "G3",
                    "midi": 55,
                    "time": 4.441941,
                    "velocity": 0.1889763779527559,
                    "duration": 0.2115210000000003
                },
                {
                    "name": "A#3",
                    "midi": 58,
                    "time": 4.653462,
                    "velocity": 0.2283464566929134,
                    "duration": 0.2115210000000003
                },
                {
                    "name": "G3",
                    "midi": 55,
                    "time": 4.8649830000000005,
                    "velocity": 0.1889763779527559,
                    "duration": 0.2115210000000003
                },
                {
                    "name": "F3",
                    "midi": 53,
                    "time": 5.076504000000001,
                    "velocity": 0.23622047244094488,
                    "duration": 0.4230419999999997
                },
                {
                    "name": "A3",
                    "midi": 57,
                    "time": 5.076504000000001,
                    "velocity": 0.23622047244094488,
                    "duration": 0.4230419999999997
                },
                {
                    "name": "F3",
                    "midi": 53,
                    "time": 7.614756000000001,
                    "velocity": 0.3700787401574803,
                    "duration": 0.4230419999999997
                },
                {
                    "name": "A2",
                    "midi": 45,
                    "time": 8.037798,
                    "velocity": 0.3464566929133858,
                    "duration": 0.4230420000000006
                },
                {
                    "name": "D3",
                    "midi": 50,
                    "time": 8.460840000000001,
                    "velocity": 0.3779527559055118,
                    "duration": 0.4230420000000006
                },
                {
                    "name": "G2",
                    "midi": 43,
                    "time": 8.883882000000002,
                    "velocity": 0.3779527559055118,
                    "duration": 0.4230420000000006
                },
                {
                    "name": "C3",
                    "midi": 48,
                    "time": 9.306924000000002,
                    "velocity": 0.3858267716535433,
                    "duration": 0.634563
                },
                {
                    "name": "A2",
                    "midi": 45,
                    "time": 9.941487000000002,
                    "velocity": 0.3700787401574803,
                    "duration": 0.2115209999999994
                },
                {
                    "name": "F2",
                    "midi": 41,
                    "time": 10.153008000000002,
                    "velocity": 0.4094488188976378,
                    "duration": 0.4230420000000006
                },
                {
                    "name": "D3",
                    "midi": 50,
                    "time": 10.576050000000002,
                    "velocity": 0.31496062992125984,
                    "duration": 0.4230420000000006
                },
                {
                    "name": "A#2",
                    "midi": 46,
                    "time": 10.999092000000003,
                    "velocity": 0.3464566929133858,
                    "duration": 0.4230420000000006
                },
                {
                    "name": "A2",
                    "midi": 45,
                    "time": 11.422134000000003,
                    "velocity": 0.3700787401574803,
                    "duration": 0.4230420000000006
                },
                {
                    "name": "D3",
                    "midi": 50,
                    "time": 12.268218000000005,
                    "velocity": 0.31496062992125984,
                    "duration": 0.4230420000000006
                },
                {
                    "name": "A#2",
                    "midi": 46,
                    "time": 12.691260000000005,
                    "velocity": 0.31496062992125984,
                    "duration": 0.4230420000000006
                },
                {
                    "name": "C3",
                    "midi": 48,
                    "time": 13.537344000000006,
                    "velocity": 0.3228346456692913,
                    "duration": 0.4230420000000006
                },
                {
                    "name": "F2",
                    "midi": 41,
                    "time": 13.960386000000007,
                    "velocity": 0.33858267716535434,
                    "duration": 0.4230420000000006
                },
                {
                    "name": "C5",
                    "midi": 72,
                    "time": 14.806470000000008,
                    "velocity": 0.31496062992125984,
                    "duration": 0.3172815
                },
                {
                    "name": "A4",
                    "midi": 69,
                    "time": 14.806470000000008,
                    "velocity": 0.25196850393700787,
                    "duration": 0.3172815
                },
                {
                    "name": "G4",
                    "midi": 67,
                    "time": 15.123751500000008,
                    "velocity": 0.2204724409448819,
                    "duration": 0.10576050000000059
                },
                {
                    "name": "A#4",
                    "midi": 70,
                    "time": 15.123751500000008,
                    "velocity": 0.2755905511811024,
                    "duration": 0.10576050000000059
                },
                {
                    "name": "A4",
                    "midi": 69,
                    "time": 15.229512000000009,
                    "velocity": 0.31496062992125984,
                    "duration": 0.10576050000000059
                },
                {
                    "name": "F4",
                    "midi": 65,
                    "time": 15.229512000000009,
                    "velocity": 0.25196850393700787,
                    "duration": 0.10576050000000059
                },
                {
                    "name": "F4",
                    "midi": 65,
                    "time": 15.65255400000001,
                    "velocity": 0.25196850393700787,
                    "duration": 0.10576050000000059
                },
                {
                    "name": "A4",
                    "midi": 69,
                    "time": 15.65255400000001,
                    "velocity": 0.31496062992125984,
                    "duration": 0.10576050000000059
                },
                {
                    "name": "F4",
                    "midi": 65,
                    "time": 16.07559600000001,
                    "velocity": 0.2283464566929134,
                    "duration": 0.3172815
                },
                {
                    "name": "A4",
                    "midi": 69,
                    "time": 16.07559600000001,
                    "velocity": 0.29133858267716534,
                    "duration": 0.3172815
                },
                {
                    "name": "G4",
                    "midi": 67,
                    "time": 16.39287750000001,
                    "velocity": 0.25984251968503935,
                    "duration": 0.10576049999999881
                },
                {
                    "name": "C4",
                    "midi": 60,
                    "time": 16.39287750000001,
                    "velocity": 0.2047244094488189,
                    "duration": 0.10576049999999881
                },
                {
                    "name": "F4",
                    "midi": 65,
                    "time": 16.49863800000001,
                    "velocity": 0.2992125984251969,
                    "duration": 0.10576049999999881
                },
                {
                    "name": "A3",
                    "midi": 57,
                    "time": 16.49863800000001,
                    "velocity": 0.23622047244094488,
                    "duration": 0.10576049999999881
                },
                {
                    "name": "F4",
                    "midi": 65,
                    "time": 16.92168000000001,
                    "velocity": 0.2755905511811024,
                    "duration": 0.10576049999999881
                },
                {
                    "name": "A3",
                    "midi": 57,
                    "time": 16.92168000000001,
                    "velocity": 0.2204724409448819,
                    "duration": 0.10576049999999881
                },
                {
                    "name": "F4",
                    "midi": 65,
                    "time": 17.344722000000008,
                    "velocity": 0.2755905511811024,
                    "duration": 0.4230419999999988
                },
                {
                    "name": "A3",
                    "midi": 57,
                    "time": 17.344722000000008,
                    "velocity": 0.2204724409448819,
                    "duration": 0.4230419999999988
                },
                {
                    "name": "C4",
                    "midi": 60,
                    "time": 17.767764000000007,
                    "velocity": 0.2204724409448819,
                    "duration": 0.10576049999999881
                },
                {
                    "name": "G4",
                    "midi": 67,
                    "time": 17.767764000000007,
                    "velocity": 0.28346456692913385,
                    "duration": 0.10576049999999881
                },
                {
                    "name": "G4",
                    "midi": 67,
                    "time": 18.190806000000006,
                    "velocity": 0.2755905511811024,
                    "duration": 0.10576049999999881
                },
                {
                    "name": "C4",
                    "midi": 60,
                    "time": 18.190806000000006,
                    "velocity": 0.2204724409448819,
                    "duration": 0.10576049999999881
                },
                {
                    "name": "C4",
                    "midi": 60,
                    "time": 18.613848000000004,
                    "velocity": 0.2204724409448819,
                    "duration": 0.10576049999999881
                },
                {
                    "name": "G4",
                    "midi": 67,
                    "time": 18.613848000000004,
                    "velocity": 0.2755905511811024,
                    "duration": 0.10576049999999881
                },
                {
                    "name": "G4",
                    "midi": 67,
                    "time": 19.036890000000003,
                    "velocity": 0.31496062992125984,
                    "duration": 0.4230419999999988
                },
                {
                    "name": "C4",
                    "midi": 60,
                    "time": 19.036890000000003,
                    "velocity": 0.25196850393700787,
                    "duration": 0.4230419999999988
                },
                {
                    "name": "A4",
                    "midi": 69,
                    "time": 19.459932000000002,
                    "velocity": 0.2755905511811024,
                    "duration": 0.4230419999999988
                },
                {
                    "name": "F4",
                    "midi": 65,
                    "time": 19.459932000000002,
                    "velocity": 0.2204724409448819,
                    "duration": 0.4230419999999988
                },
                {
                    "name": "C5",
                    "midi": 72,
                    "time": 19.882974,
                    "velocity": 0.31496062992125984,
                    "duration": 0.3172815
                },
                {
                    "name": "A4",
                    "midi": 69,
                    "time": 19.882974,
                    "velocity": 0.25196850393700787,
                    "duration": 0.3172815
                },
                {
                    "name": "A#4",
                    "midi": 70,
                    "time": 20.2002555,
                    "velocity": 0.2755905511811024,
                    "duration": 0.10576049999999881
                },
                {
                    "name": "G4",
                    "midi": 67,
                    "time": 20.2002555,
                    "velocity": 0.2204724409448819,
                    "duration": 0.10576049999999881
                },
                {
                    "name": "F4",
                    "midi": 65,
                    "time": 20.306016,
                    "velocity": 0.25196850393700787,
                    "duration": 0.10576049999999881
                },
                {
                    "name": "A4",
                    "midi": 69,
                    "time": 20.306016,
                    "velocity": 0.31496062992125984,
                    "duration": 0.10576049999999881
                },
                {
                    "name": "F4",
                    "midi": 65,
                    "time": 20.729058,
                    "velocity": 0.25196850393700787,
                    "duration": 0.10576049999999881
                },
                {
                    "name": "A4",
                    "midi": 69,
                    "time": 20.729058,
                    "velocity": 0.31496062992125984,
                    "duration": 0.10576049999999881
                },
                {
                    "name": "A4",
                    "midi": 69,
                    "time": 21.152099999999997,
                    "velocity": 0.29133858267716534,
                    "duration": 0.3172815
                },
                {
                    "name": "F4",
                    "midi": 65,
                    "time": 21.152099999999997,
                    "velocity": 0.2283464566929134,
                    "duration": 0.3172815
                },
                {
                    "name": "G4",
                    "midi": 67,
                    "time": 21.469381499999997,
                    "velocity": 0.25984251968503935,
                    "duration": 0.10576049999999881
                },
                {
                    "name": "C4",
                    "midi": 60,
                    "time": 21.469381499999997,
                    "velocity": 0.2047244094488189,
                    "duration": 0.10576049999999881
                },
                {
                    "name": "F4",
                    "midi": 65,
                    "time": 21.575141999999996,
                    "velocity": 0.2992125984251969,
                    "duration": 0.10576049999999881
                },
                {
                    "name": "A3",
                    "midi": 57,
                    "time": 21.575141999999996,
                    "velocity": 0.23622047244094488,
                    "duration": 0.10576049999999881
                },
                {
                    "name": "A3",
                    "midi": 57,
                    "time": 21.998183999999995,
                    "velocity": 0.2204724409448819,
                    "duration": 0.10576049999999881
                },
                {
                    "name": "F4",
                    "midi": 65,
                    "time": 21.998183999999995,
                    "velocity": 0.2755905511811024,
                    "duration": 0.10576049999999881
                },
                {
                    "name": "A3",
                    "midi": 57,
                    "time": 22.421225999999994,
                    "velocity": 0.2204724409448819,
                    "duration": 0.10576049999999881
                },
                {
                    "name": "F4",
                    "midi": 65,
                    "time": 22.421225999999994,
                    "velocity": 0.2755905511811024,
                    "duration": 0.10576049999999881
                },
                {
                    "name": "G4",
                    "midi": 67,
                    "time": 22.844267999999992,
                    "velocity": 0.29133858267716534,
                    "duration": 0.4230419999999988
                },
                {
                    "name": "C4",
                    "midi": 60,
                    "time": 22.844267999999992,
                    "velocity": 0.2283464566929134,
                    "duration": 0.4230419999999988
                },
                {
                    "name": "C4",
                    "midi": 60,
                    "time": 23.69035199999999,
                    "velocity": 0.2204724409448819,
                    "duration": 0.4230419999999988
                },
                {
                    "name": "G4",
                    "midi": 67,
                    "time": 23.69035199999999,
                    "velocity": 0.2755905511811024,
                    "duration": 0.4230419999999988
                },
                {
                    "name": "F4",
                    "midi": 65,
                    "time": 24.11339399999999,
                    "velocity": 0.30708661417322836,
                    "duration": 0.4230419999999988
                },
                {
                    "name": "A#4",
                    "midi": 70,
                    "time": 24.959477999999987,
                    "velocity": 0.2755905511811024,
                    "duration": 0.4230419999999988
                },
                {
                    "name": "C4",
                    "midi": 60,
                    "time": 24.959477999999987,
                    "velocity": 0.2204724409448819,
                    "duration": 0.4230419999999988
                },
                {
                    "name": "E4",
                    "midi": 64,
                    "time": 24.959477999999987,
                    "velocity": 0.2204724409448819,
                    "duration": 0.4230419999999988
                },
                {
                    "name": "A4",
                    "midi": 69,
                    "time": 25.382519999999985,
                    "velocity": 0.30708661417322836,
                    "duration": 0.4230419999999988
                },
                {
                    "name": "F4",
                    "midi": 65,
                    "time": 25.382519999999985,
                    "velocity": 0.2440944881889764,
                    "duration": 0.4230419999999988
                },
                {
                    "name": "A#3",
                    "midi": 58,
                    "time": 26.228603999999983,
                    "velocity": 0.2440944881889764,
                    "duration": 0.4230419999999988
                },
                {
                    "name": "E3",
                    "midi": 52,
                    "time": 26.228603999999983,
                    "velocity": 0.1968503937007874,
                    "duration": 0.4230419999999988
                },
                {
                    "name": "C3",
                    "midi": 48,
                    "time": 26.228603999999983,
                    "velocity": 0.1968503937007874,
                    "duration": 0.4230419999999988
                },
                {
                    "name": "F3",
                    "midi": 53,
                    "time": 26.65164599999998,
                    "velocity": 0.2125984251968504,
                    "duration": 0.4230419999999988
                },
                {
                    "name": "A3",
                    "midi": 57,
                    "time": 26.65164599999998,
                    "velocity": 0.2755905511811024,
                    "duration": 0.4230419999999988
                },
                {
                    "name": "C#2",
                    "midi": 37,
                    "time": 27.49772999999998,
                    "velocity": 0.4015748031496063,
                    "duration": 0.4230419999999988
                },
                {
                    "name": "C#3",
                    "midi": 49,
                    "time": 27.49772999999998,
                    "velocity": 0.47244094488188976,
                    "duration": 0.4230419999999988
                },
                {
                    "name": "D3",
                    "midi": 50,
                    "time": 27.920771999999978,
                    "velocity": 0.5196850393700787,
                    "duration": 0.21152100000000118
                },
                {
                    "name": "D2",
                    "midi": 38,
                    "time": 27.920771999999978,
                    "velocity": 0.4409448818897638,
                    "duration": 0.21152100000000118
                },
                {
                    "name": "F3",
                    "midi": 53,
                    "time": 28.13229299999998,
                    "velocity": 0.47244094488188976,
                    "duration": 0.21152100000000118
                },
                {
                    "name": "A3",
                    "midi": 57,
                    "time": 28.34381399999998,
                    "velocity": 0.47244094488188976,
                    "duration": 0.21152100000000118
                },
                {
                    "name": "F3",
                    "midi": 53,
                    "time": 28.55533499999998,
                    "velocity": 0.47244094488188976,
                    "duration": 0.21152100000000118
                },
                {
                    "name": "A3",
                    "midi": 57,
                    "time": 28.766855999999983,
                    "velocity": 0.49606299212598426,
                    "duration": 0.21152100000000118
                },
                {
                    "name": "F3",
                    "midi": 53,
                    "time": 28.978376999999984,
                    "velocity": 0.47244094488188976,
                    "duration": 0.21152100000000118
                },
                {
                    "name": "D3",
                    "midi": 50,
                    "time": 29.189897999999985,
                    "velocity": 0.5118110236220472,
                    "duration": 0.21152100000000118
                },
                {
                    "name": "F3",
                    "midi": 53,
                    "time": 29.401418999999986,
                    "velocity": 0.47244094488188976,
                    "duration": 0.21152100000000118
                },
                {
                    "name": "A3",
                    "midi": 57,
                    "time": 29.612939999999988,
                    "velocity": 0.49606299212598426,
                    "duration": 0.21152100000000118
                },
                {
                    "name": "F3",
                    "midi": 53,
                    "time": 29.82446099999999,
                    "velocity": 0.47244094488188976,
                    "duration": 0.21152100000000118
                },
                {
                    "name": "A3",
                    "midi": 57,
                    "time": 30.03598199999999,
                    "velocity": 0.47244094488188976,
                    "duration": 0.21152100000000118
                },
                {
                    "name": "F3",
                    "midi": 53,
                    "time": 30.24750299999999,
                    "velocity": 0.4881889763779528,
                    "duration": 0.21152100000000118
                },
                {
                    "name": "E2",
                    "midi": 40,
                    "time": 30.459023999999992,
                    "velocity": 0.47244094488188976,
                    "duration": 0.10576049999999881
                },
                {
                    "name": "E3",
                    "midi": 52,
                    "time": 30.459023999999992,
                    "velocity": 0.5590551181102362,
                    "duration": 0.10576049999999881
                },
                {
                    "name": "G3",
                    "midi": 55,
                    "time": 30.88206599999999,
                    "velocity": 0.47244094488188976,
                    "duration": 0.10576049999999881
                },
                {
                    "name": "E3",
                    "midi": 52,
                    "time": 30.88206599999999,
                    "velocity": 0.47244094488188976,
                    "duration": 0.10576049999999881
                },
                {
                    "name": "A#3",
                    "midi": 58,
                    "time": 30.88206599999999,
                    "velocity": 0.47244094488188976,
                    "duration": 0.10576049999999881
                },
                {
                    "name": "C#4",
                    "midi": 61,
                    "time": 30.88206599999999,
                    "velocity": 0.5590551181102362,
                    "duration": 0.10576049999999881
                },
                {
                    "name": "E3",
                    "midi": 52,
                    "time": 31.72814999999999,
                    "velocity": 0.5590551181102362,
                    "duration": 0.10576049999999881
                },
                {
                    "name": "E2",
                    "midi": 40,
                    "time": 31.72814999999999,
                    "velocity": 0.47244094488188976,
                    "duration": 0.10576049999999881
                },
                {
                    "name": "C#4",
                    "midi": 61,
                    "time": 32.15119199999999,
                    "velocity": 0.5590551181102362,
                    "duration": 0.10576050000000237
                },
                {
                    "name": "E3",
                    "midi": 52,
                    "time": 32.15119199999999,
                    "velocity": 0.47244094488188976,
                    "duration": 0.10576050000000237
                },
                {
                    "name": "G3",
                    "midi": 55,
                    "time": 32.15119199999999,
                    "velocity": 0.47244094488188976,
                    "duration": 0.10576050000000237
                },
                {
                    "name": "A#3",
                    "midi": 58,
                    "time": 32.15119199999999,
                    "velocity": 0.47244094488188976,
                    "duration": 0.10576050000000237
                },
                {
                    "name": "F3",
                    "midi": 53,
                    "time": 32.99727599999999,
                    "velocity": 0.5196850393700787,
                    "duration": 0.21152099999999763
                },
                {
                    "name": "A3",
                    "midi": 57,
                    "time": 33.20879699999999,
                    "velocity": 0.47244094488188976,
                    "duration": 0.21152099999999763
                },
                {
                    "name": "D4",
                    "midi": 62,
                    "time": 33.42031799999999,
                    "velocity": 0.47244094488188976,
                    "duration": 0.21152099999999763
                },
                {
                    "name": "A3",
                    "midi": 57,
                    "time": 33.631838999999985,
                    "velocity": 0.47244094488188976,
                    "duration": 0.21152099999999763
                },
                {
                    "name": "D4",
                    "midi": 62,
                    "time": 33.84335999999998,
                    "velocity": 0.49606299212598426,
                    "duration": 0.21152099999999763
                },
                {
                    "name": "A3",
                    "midi": 57,
                    "time": 34.05488099999998,
                    "velocity": 0.47244094488188976,
                    "duration": 0.21152099999999763
                },
                {
                    "name": "F3",
                    "midi": 53,
                    "time": 34.26640199999998,
                    "velocity": 0.5118110236220472,
                    "duration": 0.21152099999999763
                },
                {
                    "name": "A3",
                    "midi": 57,
                    "time": 34.477922999999976,
                    "velocity": 0.47244094488188976,
                    "duration": 0.21152099999999763
                },
                {
                    "name": "D4",
                    "midi": 62,
                    "time": 34.68944399999997,
                    "velocity": 0.49606299212598426,
                    "duration": 0.21152099999999763
                },
                {
                    "name": "A3",
                    "midi": 57,
                    "time": 34.90096499999997,
                    "velocity": 0.47244094488188976,
                    "duration": 0.21152099999999763
                },
                {
                    "name": "D4",
                    "midi": 62,
                    "time": 35.11248599999997,
                    "velocity": 0.47244094488188976,
                    "duration": 0.21152099999999763
                },
                {
                    "name": "A3",
                    "midi": 57,
                    "time": 35.324006999999966,
                    "velocity": 0.4881889763779528,
                    "duration": 0.21152099999999763
                },
                {
                    "name": "D2",
                    "midi": 38,
                    "time": 35.535527999999964,
                    "velocity": 0.47244094488188976,
                    "duration": 0.10576050000000237
                },
                {
                    "name": "D3",
                    "midi": 50,
                    "time": 35.535527999999964,
                    "velocity": 0.5590551181102362,
                    "duration": 0.10576050000000237
                },
                {
                    "name": "G#3",
                    "midi": 56,
                    "time": 35.958569999999966,
                    "velocity": 0.47244094488188976,
                    "duration": 0.10576050000000237
                },
                {
                    "name": "D3",
                    "midi": 50,
                    "time": 35.958569999999966,
                    "velocity": 0.47244094488188976,
                    "duration": 0.10576050000000237
                },
                {
                    "name": "B3",
                    "midi": 59,
                    "time": 35.958569999999966,
                    "velocity": 0.5590551181102362,
                    "duration": 0.10576050000000237
                },
                {
                    "name": "F3",
                    "midi": 53,
                    "time": 35.958569999999966,
                    "velocity": 0.47244094488188976,
                    "duration": 0.10576050000000237
                },
                {
                    "name": "D2",
                    "midi": 38,
                    "time": 36.80465399999997,
                    "velocity": 0.47244094488188976,
                    "duration": 0.10576050000000237
                },
                {
                    "name": "D3",
                    "midi": 50,
                    "time": 36.80465399999997,
                    "velocity": 0.5590551181102362,
                    "duration": 0.10576050000000237
                },
                {
                    "name": "F3",
                    "midi": 53,
                    "time": 37.22769599999997,
                    "velocity": 0.47244094488188976,
                    "duration": 0.10576050000000237
                },
                {
                    "name": "B3",
                    "midi": 59,
                    "time": 37.22769599999997,
                    "velocity": 0.5590551181102362,
                    "duration": 0.10576050000000237
                },
                {
                    "name": "G#3",
                    "midi": 56,
                    "time": 37.22769599999997,
                    "velocity": 0.47244094488188976,
                    "duration": 0.10576050000000237
                },
                {
                    "name": "D3",
                    "midi": 50,
                    "time": 37.22769599999997,
                    "velocity": 0.47244094488188976,
                    "duration": 0.10576050000000237
                },
                {
                    "name": "D#3",
                    "midi": 51,
                    "time": 38.07377999999998,
                    "velocity": 0.5196850393700787,
                    "duration": 0.21152099999999763
                },
                {
                    "name": "G3",
                    "midi": 55,
                    "time": 38.285300999999976,
                    "velocity": 0.47244094488188976,
                    "duration": 0.21152099999999763
                },
                {
                    "name": "C4",
                    "midi": 60,
                    "time": 38.49682199999997,
                    "velocity": 0.47244094488188976,
                    "duration": 0.21152099999999763
                },
                {
                    "name": "G3",
                    "midi": 55,
                    "time": 38.70834299999997,
                    "velocity": 0.47244094488188976,
                    "duration": 0.21152099999999763
                },
                {
                    "name": "C4",
                    "midi": 60,
                    "time": 38.91986399999997,
                    "velocity": 0.49606299212598426,
                    "duration": 0.21152099999999763
                },
                {
                    "name": "G3",
                    "midi": 55,
                    "time": 39.131384999999966,
                    "velocity": 0.47244094488188976,
                    "duration": 0.21152099999999763
                },
                {
                    "name": "D#3",
                    "midi": 51,
                    "time": 39.342905999999964,
                    "velocity": 0.5196850393700787,
                    "duration": 0.21152099999999763
                },
                {
                    "name": "G3",
                    "midi": 55,
                    "time": 39.55442699999996,
                    "velocity": 0.47244094488188976,
                    "duration": 0.21152099999999763
                },
                {
                    "name": "C4",
                    "midi": 60,
                    "time": 39.76594799999996,
                    "velocity": 0.47244094488188976,
                    "duration": 0.21152099999999763
                },
                {
                    "name": "G3",
                    "midi": 55,
                    "time": 39.97746899999996,
                    "velocity": 0.47244094488188976,
                    "duration": 0.21152099999999763
                },
                {
                    "name": "C4",
                    "midi": 60,
                    "time": 40.188989999999954,
                    "velocity": 0.49606299212598426,
                    "duration": 0.21152099999999763
                },
                {
                    "name": "G3",
                    "midi": 55,
                    "time": 40.40051099999995,
                    "velocity": 0.47244094488188976,
                    "duration": 0.21152099999999763
                },
                {
                    "name": "C3",
                    "midi": 48,
                    "time": 40.61203199999995,
                    "velocity": 0.5196850393700787,
                    "duration": 0.21152099999999763
                },
                {
                    "name": "D#3",
                    "midi": 51,
                    "time": 40.82355299999995,
                    "velocity": 0.47244094488188976,
                    "duration": 0.21152099999999763
                },
                {
                    "name": "G#3",
                    "midi": 56,
                    "time": 41.035073999999945,
                    "velocity": 0.47244094488188976,
                    "duration": 0.21152099999999763
                },
                {
                    "name": "D#3",
                    "midi": 51,
                    "time": 41.24659499999994,
                    "velocity": 0.47244094488188976,
                    "duration": 0.21152099999999763
                },
                {
                    "name": "G#3",
                    "midi": 56,
                    "time": 41.45811599999994,
                    "velocity": 0.49606299212598426,
                    "duration": 0.21152099999999763
                },
                {
                    "name": "D#3",
                    "midi": 51,
                    "time": 41.66963699999994,
                    "velocity": 0.47244094488188976,
                    "duration": 0.21152099999999763
                },
                {
                    "name": "C3",
                    "midi": 48,
                    "time": 41.881157999999935,
                    "velocity": 0.5196850393700787,
                    "duration": 0.21152099999999763
                },
                {
                    "name": "D#3",
                    "midi": 51,
                    "time": 42.09267899999993,
                    "velocity": 0.47244094488188976,
                    "duration": 0.21152099999999763
                },
                {
                    "name": "G#3",
                    "midi": 56,
                    "time": 42.30419999999993,
                    "velocity": 0.47244094488188976,
                    "duration": 0.21152099999999763
                },
                {
                    "name": "D#3",
                    "midi": 51,
                    "time": 42.51572099999993,
                    "velocity": 0.47244094488188976,
                    "duration": 0.21152099999999763
                },
                {
                    "name": "G#3",
                    "midi": 56,
                    "time": 42.727241999999926,
                    "velocity": 0.49606299212598426,
                    "duration": 0.21152099999999763
                },
                {
                    "name": "D#3",
                    "midi": 51,
                    "time": 42.93876299999992,
                    "velocity": 0.47244094488188976,
                    "duration": 0.21152099999999763
                },
                {
                    "name": "G#2",
                    "midi": 44,
                    "time": 43.15028399999992,
                    "velocity": 0.5196850393700787,
                    "duration": 0.21152099999999763
                },
                {
                    "name": "C3",
                    "midi": 48,
                    "time": 43.36180499999992,
                    "velocity": 0.47244094488188976,
                    "duration": 0.21152099999999763
                },
                {
                    "name": "D#3",
                    "midi": 51,
                    "time": 43.573325999999916,
                    "velocity": 0.47244094488188976,
                    "duration": 0.21152099999999763
                },
                {
                    "name": "C3",
                    "midi": 48,
                    "time": 43.784846999999914,
                    "velocity": 0.47244094488188976,
                    "duration": 0.21152099999999763
                },
                {
                    "name": "D#3",
                    "midi": 51,
                    "time": 43.99636799999991,
                    "velocity": 0.49606299212598426,
                    "duration": 0.21152099999999763
                },
                {
                    "name": "C3",
                    "midi": 48,
                    "time": 44.20788899999991,
                    "velocity": 0.47244094488188976,
                    "duration": 0.21152099999999763
                },
                {
                    "name": "G#2",
                    "midi": 44,
                    "time": 44.41940999999991,
                    "velocity": 0.5196850393700787,
                    "duration": 0.21152099999999763
                },
                {
                    "name": "C3",
                    "midi": 48,
                    "time": 44.630930999999904,
                    "velocity": 0.47244094488188976,
                    "duration": 0.21152099999999763
                },
                {
                    "name": "D#3",
                    "midi": 51,
                    "time": 44.8424519999999,
                    "velocity": 0.47244094488188976,
                    "duration": 0.21152099999999763
                },
                {
                    "name": "C3",
                    "midi": 48,
                    "time": 45.0539729999999,
                    "velocity": 0.47244094488188976,
                    "duration": 0.21152099999999763
                },
                {
                    "name": "D#3",
                    "midi": 51,
                    "time": 45.2654939999999,
                    "velocity": 0.49606299212598426,
                    "duration": 0.21152099999999763
                },
                {
                    "name": "C3",
                    "midi": 48,
                    "time": 45.477014999999895,
                    "velocity": 0.47244094488188976,
                    "duration": 0.10576050000000237
                },
                {
                    "name": "G2",
                    "midi": 43,
                    "time": 45.6885359999999,
                    "velocity": 0.5196850393700787,
                    "duration": 0.21152099999999763
                },
                {
                    "name": "B2",
                    "midi": 47,
                    "time": 45.9000569999999,
                    "velocity": 0.47244094488188976,
                    "duration": 0.21152099999999763
                },
                {
                    "name": "D3",
                    "midi": 50,
                    "time": 46.111577999999895,
                    "velocity": 0.47244094488188976,
                    "duration": 0.21152099999999763
                },
                {
                    "name": "G3",
                    "midi": 55,
                    "time": 46.32309899999989,
                    "velocity": 0.47244094488188976,
                    "duration": 0.21152099999999763
                },
                {
                    "name": "C3",
                    "midi": 48,
                    "time": 46.53461999999989,
                    "velocity": 0.49606299212598426,
                    "duration": 0.21152099999999763
                },
                {
                    "name": "D#3",
                    "midi": 51,
                    "time": 46.74614099999989,
                    "velocity": 0.47244094488188976,
                    "duration": 0.21152099999999763
                },
                {
                    "name": "G2",
                    "midi": 43,
                    "time": 46.957661999999885,
                    "velocity": 0.5196850393700787,
                    "duration": 0.21152099999999763
                },
                {
                    "name": "B2",
                    "midi": 47,
                    "time": 47.16918299999988,
                    "velocity": 0.47244094488188976,
                    "duration": 0.21152099999999763
                },
                {
                    "name": "D3",
                    "midi": 50,
                    "time": 47.38070399999988,
                    "velocity": 0.47244094488188976,
                    "duration": 0.21152099999999763
                },
                {
                    "name": "G3",
                    "midi": 55,
                    "time": 47.59222499999988,
                    "velocity": 0.47244094488188976,
                    "duration": 0.21152099999999763
                },
                {
                    "name": "C3",
                    "midi": 48,
                    "time": 47.803745999999876,
                    "velocity": 0.49606299212598426,
                    "duration": 0.21152099999999763
                },
                {
                    "name": "D#3",
                    "midi": 51,
                    "time": 48.015266999999874,
                    "velocity": 0.47244094488188976,
                    "duration": 0.21152099999999763
                },
                {
                    "name": "G2",
                    "midi": 43,
                    "time": 48.22678799999987,
                    "velocity": 0.5669291338582677,
                    "duration": 0.634563
                },
                {
                    "name": "G3",
                    "midi": 55,
                    "time": 48.23736404999987,
                    "velocity": 0.5669291338582677,
                    "duration": 0.634563
                },
                {
                    "name": "G#3",
                    "midi": 56,
                    "time": 48.86135099999987,
                    "velocity": 0.49606299212598426,
                    "duration": 0.11457387499999783
                },
                {
                    "name": "G3",
                    "midi": 55,
                    "time": 48.96711149999987,
                    "velocity": 0.4881889763779528,
                    "duration": 0.11457387500000493
                },
                {
                    "name": "F3",
                    "midi": 53,
                    "time": 49.07287199999987,
                    "velocity": 0.47244094488188976,
                    "duration": 0.11457387500000493
                },
                {
                    "name": "D#3",
                    "midi": 51,
                    "time": 49.17863249999987,
                    "velocity": 0.47244094488188976,
                    "duration": 0.11457387500000493
                },
                {
                    "name": "D3",
                    "midi": 50,
                    "time": 49.28439299999987,
                    "velocity": 0.4645669291338583,
                    "duration": 0.11457387500000493
                },
                {
                    "name": "C3",
                    "midi": 48,
                    "time": 49.390153499999876,
                    "velocity": 0.44881889763779526,
                    "duration": 0.11457387500000493
                },
                {
                    "name": "G3",
                    "midi": 55,
                    "time": 49.49591399999988,
                    "velocity": 0.49606299212598426,
                    "duration": 0.10576050000000237
                },
                {
                    "name": "G2",
                    "midi": 43,
                    "time": 49.91895599999988,
                    "velocity": 0.44881889763779526,
                    "duration": 0.10576050000000237
                },
                {
                    "name": "C3",
                    "midi": 48,
                    "time": 50.60639924999988,
                    "velocity": 0.2755905511811024,
                    "duration": 0.05288025000000118
                },
                {
                    "name": "G3",
                    "midi": 55,
                    "time": 50.65927949999988,
                    "velocity": 0.2755905511811024,
                    "duration": 0.05288025000000118
                },
                {
                    "name": "C4",
                    "midi": 60,
                    "time": 50.765039999999885,
                    "velocity": 0.2755905511811024,
                    "duration": 0.42304200000000236
                },
                {
                    "name": "G3",
                    "midi": 55,
                    "time": 51.87552524999989,
                    "velocity": 0.2677165354330709,
                    "duration": 0.05288025000000118
                },
                {
                    "name": "D4",
                    "midi": 62,
                    "time": 51.92840549999989,
                    "velocity": 0.2677165354330709,
                    "duration": 0.05288025000000118
                },
                {
                    "name": "F4",
                    "midi": 65,
                    "time": 52.03416599999989,
                    "velocity": 0.2755905511811024,
                    "duration": 0.42304200000000236
                },
                {
                    "name": "C3",
                    "midi": 48,
                    "time": 53.30329199999989,
                    "velocity": 0.2755905511811024,
                    "duration": 0.42304200000000236
                },
                {
                    "name": "E3",
                    "midi": 52,
                    "time": 53.726333999999895,
                    "velocity": 0.2440944881889764,
                    "duration": 0.42304200000000236
                },
                {
                    "name": "G3",
                    "midi": 55,
                    "time": 54.1493759999999,
                    "velocity": 0.2440944881889764,
                    "duration": 0.42304200000000236
                },
                {
                    "name": "C4",
                    "midi": 60,
                    "time": 54.5724179999999,
                    "velocity": 0.2755905511811024,
                    "duration": 0.42304200000000236
                },
                {
                    "name": "C3",
                    "midi": 48,
                    "time": 54.9954599999999,
                    "velocity": 0.2440944881889764,
                    "duration": 0.42304200000000236
                },
                {
                    "name": "A3",
                    "midi": 57,
                    "time": 55.84154399999991,
                    "velocity": 0.2755905511811024,
                    "duration": 0.8460840000000047
                },
                {
                    "name": "C4",
                    "midi": 60,
                    "time": 56.26458599999991,
                    "velocity": 0.25984251968503935,
                    "duration": 0.42304200000000236
                },
                {
                    "name": "F4",
                    "midi": 65,
                    "time": 56.26458599999991,
                    "velocity": 0.25984251968503935,
                    "duration": 0.42304200000000236
                },
                {
                    "name": "B3",
                    "midi": 59,
                    "time": 57.110669999999914,
                    "velocity": 0.2992125984251969,
                    "duration": 0.8460840000000047
                },
                {
                    "name": "G4",
                    "midi": 67,
                    "time": 57.533711999999916,
                    "velocity": 0.2755905511811024,
                    "duration": 0.42304200000000236
                },
                {
                    "name": "D4",
                    "midi": 62,
                    "time": 57.533711999999916,
                    "velocity": 0.2755905511811024,
                    "duration": 0.42304200000000236
                },
                {
                    "name": "C4",
                    "midi": 60,
                    "time": 58.37979599999992,
                    "velocity": 0.3228346456692913,
                    "duration": 0.42304200000000236
                },
                {
                    "name": "A3",
                    "midi": 57,
                    "time": 58.80283799999992,
                    "velocity": 0.29133858267716534,
                    "duration": 0.42304200000000236
                },
                {
                    "name": "C4",
                    "midi": 60,
                    "time": 58.80283799999992,
                    "velocity": 0.29133858267716534,
                    "duration": 0.42304200000000236
                },
                {
                    "name": "F3",
                    "midi": 53,
                    "time": 59.225879999999925,
                    "velocity": 0.2755905511811024,
                    "duration": 0.42304200000000236
                },
                {
                    "name": "D4",
                    "midi": 62,
                    "time": 59.225879999999925,
                    "velocity": 0.2755905511811024,
                    "duration": 0.42304200000000236
                },
                {
                    "name": "G3",
                    "midi": 55,
                    "time": 59.64892199999993,
                    "velocity": 0.3228346456692913,
                    "duration": 0.42304200000000236
                },
                {
                    "name": "B3",
                    "midi": 59,
                    "time": 59.64892199999993,
                    "velocity": 0.3228346456692913,
                    "duration": 0.42304200000000236
                },
                {
                    "name": "C4",
                    "midi": 60,
                    "time": 60.91804799999993,
                    "velocity": 0.30708661417322836,
                    "duration": 0.14101399999999842
                },
                {
                    "name": "E4",
                    "midi": 64,
                    "time": 61.059061999999926,
                    "velocity": 0.2440944881889764,
                    "duration": 0.14101399999999842
                },
                {
                    "name": "G4",
                    "midi": 67,
                    "time": 61.200075999999925,
                    "velocity": 0.2440944881889764,
                    "duration": 0.14101399999999842
                },
                {
                    "name": "C4",
                    "midi": 60,
                    "time": 61.34108999999992,
                    "velocity": 0.30708661417322836,
                    "duration": 0.14101399999999842
                },
                {
                    "name": "E4",
                    "midi": 64,
                    "time": 61.48210399999992,
                    "velocity": 0.25196850393700787,
                    "duration": 0.14101399999999842
                },
                {
                    "name": "G4",
                    "midi": 67,
                    "time": 61.62311799999992,
                    "velocity": 0.25196850393700787,
                    "duration": 0.14101399999999842
                },
                {
                    "name": "C4",
                    "midi": 60,
                    "time": 61.76413199999992,
                    "velocity": 0.31496062992125984,
                    "duration": 0.14101399999999842
                },
                {
                    "name": "E4",
                    "midi": 64,
                    "time": 61.90514599999992,
                    "velocity": 0.25196850393700787,
                    "duration": 0.14101399999999842
                },
                {
                    "name": "G4",
                    "midi": 67,
                    "time": 62.046159999999915,
                    "velocity": 0.25196850393700787,
                    "duration": 0.14101399999999842
                },
                {
                    "name": "B3",
                    "midi": 59,
                    "time": 62.187173999999914,
                    "velocity": 0.33858267716535434,
                    "duration": 0.14101399999999842
                },
                {
                    "name": "D4",
                    "midi": 62,
                    "time": 62.32818799999991,
                    "velocity": 0.28346456692913385,
                    "duration": 0.14101399999999842
                },
                {
                    "name": "G4",
                    "midi": 67,
                    "time": 62.46920199999991,
                    "velocity": 0.2755905511811024,
                    "duration": 0.14101399999999842
                },
                {
                    "name": "B3",
                    "midi": 59,
                    "time": 62.61021599999991,
                    "velocity": 0.31496062992125984,
                    "duration": 0.14101399999999842
                },
                {
                    "name": "D4",
                    "midi": 62,
                    "time": 62.75122999999991,
                    "velocity": 0.25984251968503935,
                    "duration": 0.14101399999999842
                },
                {
                    "name": "G4",
                    "midi": 67,
                    "time": 62.892243999999906,
                    "velocity": 0.2283464566929134,
                    "duration": 0.14101399999999842
                },
                {
                    "name": "B3",
                    "midi": 59,
                    "time": 63.033257999999904,
                    "velocity": 0.29133858267716534,
                    "duration": 0.14101399999999842
                },
                {
                    "name": "F4",
                    "midi": 65,
                    "time": 63.1742719999999,
                    "velocity": 0.2283464566929134,
                    "duration": 0.14101399999999842
                },
                {
                    "name": "G4",
                    "midi": 67,
                    "time": 63.3152859999999,
                    "velocity": 0.2283464566929134,
                    "duration": 0.14101399999999842
                },
                {
                    "name": "C4",
                    "midi": 60,
                    "time": 63.4562999999999,
                    "velocity": 0.2283464566929134,
                    "duration": 0.42304200000000236
                },
                {
                    "name": "E4",
                    "midi": 64,
                    "time": 63.4562999999999,
                    "velocity": 0.2755905511811024,
                    "duration": 0.42304200000000236
                },
                {
                    "name": "E3",
                    "midi": 52,
                    "time": 63.8793419999999,
                    "velocity": 0.2440944881889764,
                    "duration": 0.42304200000000236
                },
                {
                    "name": "G3",
                    "midi": 55,
                    "time": 64.3023839999999,
                    "velocity": 0.2440944881889764,
                    "duration": 0.42304199999999526
                },
                {
                    "name": "C4",
                    "midi": 60,
                    "time": 64.7254259999999,
                    "velocity": 0.2755905511811024,
                    "duration": 0.42304199999999526
                },
                {
                    "name": "G3",
                    "midi": 55,
                    "time": 65.1484679999999,
                    "velocity": 0.2440944881889764,
                    "duration": 0.42304199999999526
                },
                {
                    "name": "C3",
                    "midi": 48,
                    "time": 65.57150999999989,
                    "velocity": 0.2440944881889764,
                    "duration": 0.42304199999999526
                },
                {
                    "name": "A3",
                    "midi": 57,
                    "time": 65.99455199999989,
                    "velocity": 0.2755905511811024,
                    "duration": 0.21152100000000473
                },
                {
                    "name": "C4",
                    "midi": 60,
                    "time": 66.20607299999989,
                    "velocity": 0.2440944881889764,
                    "duration": 0.21152100000000473
                },
                {
                    "name": "F4",
                    "midi": 65,
                    "time": 66.4175939999999,
                    "velocity": 0.25196850393700787,
                    "duration": 0.21152100000000473
                },
                {
                    "name": "C4",
                    "midi": 60,
                    "time": 66.6291149999999,
                    "velocity": 0.25984251968503935,
                    "duration": 0.21152100000000473
                },
                {
                    "name": "A3",
                    "midi": 57,
                    "time": 66.8406359999999,
                    "velocity": 0.2755905511811024,
                    "duration": 0.21152100000000473
                },
                {
                    "name": "C4",
                    "midi": 60,
                    "time": 67.05215699999991,
                    "velocity": 0.2992125984251969,
                    "duration": 0.21152100000000473
                },
                {
                    "name": "B3",
                    "midi": 59,
                    "time": 67.26367799999991,
                    "velocity": 0.31496062992125984,
                    "duration": 0.21152100000000473
                },
                {
                    "name": "D4",
                    "midi": 62,
                    "time": 67.47519899999992,
                    "velocity": 0.2755905511811024,
                    "duration": 0.21152100000000473
                },
                {
                    "name": "G4",
                    "midi": 67,
                    "time": 67.68671999999992,
                    "velocity": 0.33070866141732286,
                    "duration": 0.21152100000000473
                },
                {
                    "name": "D4",
                    "midi": 62,
                    "time": 67.89824099999993,
                    "velocity": 0.2755905511811024,
                    "duration": 0.21152100000000473
                },
                {
                    "name": "B3",
                    "midi": 59,
                    "time": 68.10976199999993,
                    "velocity": 0.2755905511811024,
                    "duration": 0.21152100000000473
                },
                {
                    "name": "D4",
                    "midi": 62,
                    "time": 68.32128299999994,
                    "velocity": 0.2677165354330709,
                    "duration": 0.21152100000000473
                },
                {
                    "name": "C4",
                    "midi": 60,
                    "time": 68.53280399999994,
                    "velocity": 0.3228346456692913,
                    "duration": 0.42304199999999526
                },
                {
                    "name": "F3",
                    "midi": 53,
                    "time": 68.95584599999994,
                    "velocity": 0.29133858267716534,
                    "duration": 0.42304199999999526
                },
                {
                    "name": "D4",
                    "midi": 62,
                    "time": 68.95584599999994,
                    "velocity": 0.29133858267716534,
                    "duration": 0.42304199999999526
                },
                {
                    "name": "G3",
                    "midi": 55,
                    "time": 69.37888799999993,
                    "velocity": 0.2755905511811024,
                    "duration": 0.42304199999999526
                },
                {
                    "name": "F4",
                    "midi": 65,
                    "time": 69.37888799999993,
                    "velocity": 0.2755905511811024,
                    "duration": 0.42304199999999526
                },
                {
                    "name": "E4",
                    "midi": 64,
                    "time": 69.80192999999993,
                    "velocity": 0.29133858267716534,
                    "duration": 0.42304199999999526
                },
                {
                    "name": "C4",
                    "midi": 60,
                    "time": 69.80192999999993,
                    "velocity": 0.25196850393700787,
                    "duration": 0.42304199999999526
                },
                {
                    "name": "E4",
                    "midi": 64,
                    "time": 70.22497199999992,
                    "velocity": 0.31496062992125984,
                    "duration": 0.42304199999999526
                },
                {
                    "name": "C4",
                    "midi": 60,
                    "time": 70.64801399999992,
                    "velocity": 0.29133858267716534,
                    "duration": 0.42304199999999526
                },
                {
                    "name": "D4",
                    "midi": 62,
                    "time": 71.07105599999991,
                    "velocity": 0.31496062992125984,
                    "duration": 0.42304199999999526
                },
                {
                    "name": "B3",
                    "midi": 59,
                    "time": 71.49409799999991,
                    "velocity": 0.2992125984251969,
                    "duration": 0.42304199999999526
                },
                {
                    "name": "G3",
                    "midi": 55,
                    "time": 71.9171399999999,
                    "velocity": 0.2992125984251969,
                    "duration": 0.42304199999999526
                },
                {
                    "name": "C3",
                    "midi": 48,
                    "time": 72.3401819999999,
                    "velocity": 0.31496062992125984,
                    "duration": 0.42304199999999526
                },
                {
                    "name": "D#3",
                    "midi": 51,
                    "time": 72.7632239999999,
                    "velocity": 0.31496062992125984,
                    "duration": 0.42304199999999526
                },
                {
                    "name": "C3",
                    "midi": 48,
                    "time": 73.18626599999989,
                    "velocity": 0.29133858267716534,
                    "duration": 0.42304199999999526
                },
                {
                    "name": "D3",
                    "midi": 50,
                    "time": 73.60930799999988,
                    "velocity": 0.31496062992125984,
                    "duration": 0.42304199999999526
                },
                {
                    "name": "B2",
                    "midi": 47,
                    "time": 74.03234999999988,
                    "velocity": 0.2992125984251969,
                    "duration": 0.42304199999999526
                },
                {
                    "name": "G2",
                    "midi": 43,
                    "time": 74.45539199999988,
                    "velocity": 0.2992125984251969,
                    "duration": 0.42304199999999526
                },
                {
                    "name": "C2",
                    "midi": 36,
                    "time": 74.87843399999987,
                    "velocity": 0.4566929133858268,
                    "duration": 0.42304199999999526
                },
                {
                    "name": "C3",
                    "midi": 48,
                    "time": 74.87843399999987,
                    "velocity": 0.5433070866141733,
                    "duration": 0.42304199999999526
                },
                {
                    "name": "D#3",
                    "midi": 51,
                    "time": 75.30147599999987,
                    "velocity": 0.31496062992125984,
                    "duration": 0.42304199999999526
                },
                {
                    "name": "G3",
                    "midi": 55,
                    "time": 75.72451799999986,
                    "velocity": 0.31496062992125984,
                    "duration": 0.42304199999999526
                },
                {
                    "name": "F3",
                    "midi": 53,
                    "time": 76.14755999999986,
                    "velocity": 0.5433070866141733,
                    "duration": 0.42304199999999526
                },
                {
                    "name": "F2",
                    "midi": 41,
                    "time": 76.14755999999986,
                    "velocity": 0.4566929133858268,
                    "duration": 0.42304199999999526
                },
                {
                    "name": "G#3",
                    "midi": 56,
                    "time": 76.57060199999985,
                    "velocity": 0.31496062992125984,
                    "duration": 0.42304199999999526
                },
                {
                    "name": "C4",
                    "midi": 60,
                    "time": 76.99364399999985,
                    "velocity": 0.31496062992125984,
                    "duration": 0.42304199999999526
                },
                {
                    "name": "A#2",
                    "midi": 46,
                    "time": 77.41668599999984,
                    "velocity": 0.5433070866141733,
                    "duration": 0.42304199999999526
                },
                {
                    "name": "A#1",
                    "midi": 34,
                    "time": 77.41668599999984,
                    "velocity": 0.4566929133858268,
                    "duration": 0.42304199999999526
                },
                {
                    "name": "D3",
                    "midi": 50,
                    "time": 77.83972799999984,
                    "velocity": 0.31496062992125984,
                    "duration": 0.42304199999999526
                },
                {
                    "name": "F3",
                    "midi": 53,
                    "time": 78.26276999999983,
                    "velocity": 0.31496062992125984,
                    "duration": 0.42304199999999526
                },
                {
                    "name": "D#2",
                    "midi": 39,
                    "time": 78.68581199999983,
                    "velocity": 0.4566929133858268,
                    "duration": 0.42304199999999526
                },
                {
                    "name": "D#3",
                    "midi": 51,
                    "time": 78.68581199999983,
                    "velocity": 0.5433070866141733,
                    "duration": 0.42304199999999526
                },
                {
                    "name": "G3",
                    "midi": 55,
                    "time": 79.10885399999982,
                    "velocity": 0.31496062992125984,
                    "duration": 0.42304199999999526
                },
                {
                    "name": "A#3",
                    "midi": 58,
                    "time": 79.53189599999982,
                    "velocity": 0.31496062992125984,
                    "duration": 0.42304199999999526
                },
                {
                    "name": "G#1",
                    "midi": 32,
                    "time": 79.95493799999981,
                    "velocity": 0.4566929133858268,
                    "duration": 0.42304199999999526
                },
                {
                    "name": "G#2",
                    "midi": 44,
                    "time": 79.95493799999981,
                    "velocity": 0.5433070866141733,
                    "duration": 0.42304199999999526
                },
                {
                    "name": "G#3",
                    "midi": 56,
                    "time": 80.37797999999981,
                    "velocity": 0.31496062992125984,
                    "duration": 0.42304199999999526
                },
                {
                    "name": "D3",
                    "midi": 50,
                    "time": 80.8010219999998,
                    "velocity": 0.5433070866141733,
                    "duration": 0.42304199999999526
                },
                {
                    "name": "D2",
                    "midi": 38,
                    "time": 80.8010219999998,
                    "velocity": 0.4566929133858268,
                    "duration": 0.42304199999999526
                },
                {
                    "name": "D4",
                    "midi": 62,
                    "time": 81.2240639999998,
                    "velocity": 0.31496062992125984,
                    "duration": 0.42304199999999526
                },
                {
                    "name": "G1",
                    "midi": 31,
                    "time": 81.6471059999998,
                    "velocity": 0.4566929133858268,
                    "duration": 0.42304199999999526
                },
                {
                    "name": "G2",
                    "midi": 43,
                    "time": 81.6471059999998,
                    "velocity": 0.5433070866141733,
                    "duration": 0.42304199999999526
                },
                {
                    "name": "G3",
                    "midi": 55,
                    "time": 82.07014799999979,
                    "velocity": 0.31496062992125984,
                    "duration": 0.42304199999999526
                },
                {
                    "name": "G#3",
                    "midi": 56,
                    "time": 82.49318999999979,
                    "velocity": 0.3543307086614173,
                    "duration": 0.42304199999999526
                },
                {
                    "name": "G3",
                    "midi": 55,
                    "time": 82.91623199999978,
                    "velocity": 0.30708661417322836,
                    "duration": 0.42304199999999526
                },
                {
                    "name": "F#3",
                    "midi": 54,
                    "time": 83.33927399999978,
                    "velocity": 0.30708661417322836,
                    "duration": 0.42304199999999526
                },
                {
                    "name": "G3",
                    "midi": 55,
                    "time": 83.76231599999977,
                    "velocity": 0.3464566929133858,
                    "duration": 0.42304199999999526
                },
                {
                    "name": "F#3",
                    "midi": 54,
                    "time": 84.81992099999977,
                    "velocity": 0.3228346456692913,
                    "duration": 0.21152100000000473
                },
                {
                    "name": "G3",
                    "midi": 55,
                    "time": 85.03144199999977,
                    "velocity": 0.3464566929133858,
                    "duration": 0.42304199999999526
                },
                {
                    "name": "F#3",
                    "midi": 54,
                    "time": 86.08904699999977,
                    "velocity": 0.25196850393700787,
                    "duration": 0.2203343750000073
                },
                {
                    "name": "G3",
                    "midi": 55,
                    "time": 86.30056799999977,
                    "velocity": 0.30708661417322836,
                    "duration": 0.2203343750000073
                },
                {
                    "name": "F#3",
                    "midi": 54,
                    "time": 86.51208899999978,
                    "velocity": 0.2755905511811024,
                    "duration": 0.2203343750000073
                },
                {
                    "name": "G3",
                    "midi": 55,
                    "time": 86.72360999999978,
                    "velocity": 0.30708661417322836,
                    "duration": 0.2203343750000073
                },
                {
                    "name": "F#3",
                    "midi": 54,
                    "time": 86.93513099999979,
                    "velocity": 0.2440944881889764,
                    "duration": 0.2203343750000073
                },
                {
                    "name": "G3",
                    "midi": 55,
                    "time": 87.14665199999979,
                    "velocity": 0.30708661417322836,
                    "duration": 0.2203343750000073
                },
                {
                    "name": "F#3",
                    "midi": 54,
                    "time": 87.3581729999998,
                    "velocity": 0.25196850393700787,
                    "duration": 0.2203343750000073
                },
                {
                    "name": "G3",
                    "midi": 55,
                    "time": 87.5696939999998,
                    "velocity": 0.2992125984251969,
                    "duration": 0.42304200000000947
                },
                {
                    "name": "F3",
                    "midi": 53,
                    "time": 88.83881999999981,
                    "velocity": 0.25984251968503935,
                    "duration": 0.42304199999999526
                },
                {
                    "name": "F3",
                    "midi": 53,
                    "time": 89.26186199999981,
                    "velocity": 0.2440944881889764,
                    "duration": 0.42304199999999526
                },
                {
                    "name": "F3",
                    "midi": 53,
                    "time": 89.6849039999998,
                    "velocity": 0.2440944881889764,
                    "duration": 0.42304199999999526
                },
                {
                    "name": "F3",
                    "midi": 53,
                    "time": 90.1079459999998,
                    "velocity": 0.25984251968503935,
                    "duration": 0.8460840000000047
                },
                {
                    "name": "C3",
                    "midi": 48,
                    "time": 90.9540299999998,
                    "velocity": 0.2440944881889764,
                    "duration": 0.42304199999999526
                },
                {
                    "name": "G2",
                    "midi": 43,
                    "time": 91.3770719999998,
                    "velocity": 0.25984251968503935,
                    "duration": 0.42304199999999526
                },
                {
                    "name": "G2",
                    "midi": 43,
                    "time": 91.8001139999998,
                    "velocity": 0.23622047244094488,
                    "duration": 0.42304199999999526
                },
                {
                    "name": "G2",
                    "midi": 43,
                    "time": 92.22315599999979,
                    "velocity": 0.23622047244094488,
                    "duration": 0.42304199999999526
                },
                {
                    "name": "G2",
                    "midi": 43,
                    "time": 92.64619799999979,
                    "velocity": 0.25984251968503935,
                    "duration": 0.8460840000000047
                },
                {
                    "name": "A2",
                    "midi": 45,
                    "time": 93.49228199999979,
                    "velocity": 0.23622047244094488,
                    "duration": 0.42304199999999526
                },
                {
                    "name": "F2",
                    "midi": 41,
                    "time": 93.91532399999979,
                    "velocity": 0.25984251968503935,
                    "duration": 0.42304199999999526
                },
                {
                    "name": "G2",
                    "midi": 43,
                    "time": 94.33836599999978,
                    "velocity": 0.25196850393700787,
                    "duration": 0.42304199999999526
                },
                {
                    "name": "G2",
                    "midi": 43,
                    "time": 94.76140799999978,
                    "velocity": 0.25196850393700787,
                    "duration": 0.42304199999999526
                },
                {
                    "name": "C3",
                    "midi": 48,
                    "time": 95.18444999999977,
                    "velocity": 0.25984251968503935,
                    "duration": 0.42304199999999526
                },
                {
                    "name": "C4",
                    "midi": 60,
                    "time": 96.45357599999977,
                    "velocity": 0.2204724409448819,
                    "duration": 0.42304199999999526
                },
                {
                    "name": "F4",
                    "midi": 65,
                    "time": 96.45357599999977,
                    "velocity": 0.25984251968503935,
                    "duration": 0.42304199999999526
                },
                {
                    "name": "C4",
                    "midi": 60,
                    "time": 96.87661799999977,
                    "velocity": 0.2047244094488189,
                    "duration": 0.42304199999999526
                },
                {
                    "name": "F4",
                    "midi": 65,
                    "time": 96.87661799999977,
                    "velocity": 0.2440944881889764,
                    "duration": 0.42304199999999526
                },
                {
                    "name": "F4",
                    "midi": 65,
                    "time": 97.29965999999976,
                    "velocity": 0.2440944881889764,
                    "duration": 0.42304199999999526
                },
                {
                    "name": "C4",
                    "midi": 60,
                    "time": 97.29965999999976,
                    "velocity": 0.2047244094488189,
                    "duration": 0.42304199999999526
                },
                {
                    "name": "F4",
                    "midi": 65,
                    "time": 97.72270199999976,
                    "velocity": 0.25984251968503935,
                    "duration": 0.8460840000000047
                },
                {
                    "name": "C4",
                    "midi": 60,
                    "time": 97.72270199999976,
                    "velocity": 0.2204724409448819,
                    "duration": 1.269126
                },
                {
                    "name": "E4",
                    "midi": 64,
                    "time": 98.56878599999976,
                    "velocity": 0.2440944881889764,
                    "duration": 0.42304199999999526
                },
                {
                    "name": "G3",
                    "midi": 55,
                    "time": 98.99182799999976,
                    "velocity": 0.2204724409448819,
                    "duration": 0.42304199999999526
                },
                {
                    "name": "D4",
                    "midi": 62,
                    "time": 98.99182799999976,
                    "velocity": 0.25984251968503935,
                    "duration": 0.42304199999999526
                },
                {
                    "name": "D4",
                    "midi": 62,
                    "time": 99.41486999999975,
                    "velocity": 0.23622047244094488,
                    "duration": 0.42304199999999526
                },
                {
                    "name": "G3",
                    "midi": 55,
                    "time": 99.41486999999975,
                    "velocity": 0.1968503937007874,
                    "duration": 0.42304199999999526
                },
                {
                    "name": "D4",
                    "midi": 62,
                    "time": 99.83791199999975,
                    "velocity": 0.23622047244094488,
                    "duration": 0.42304199999999526
                },
                {
                    "name": "G3",
                    "midi": 55,
                    "time": 99.83791199999975,
                    "velocity": 0.1968503937007874,
                    "duration": 0.42304199999999526
                },
                {
                    "name": "G3",
                    "midi": 55,
                    "time": 100.26095399999974,
                    "velocity": 0.2204724409448819,
                    "duration": 0.8460840000000047
                },
                {
                    "name": "D4",
                    "midi": 62,
                    "time": 100.26095399999974,
                    "velocity": 0.25984251968503935,
                    "duration": 0.8460840000000047
                },
                {
                    "name": "C4",
                    "midi": 60,
                    "time": 101.10703799999975,
                    "velocity": 0.23622047244094488,
                    "duration": 0.42304199999999526
                },
                {
                    "name": "A3",
                    "midi": 57,
                    "time": 101.10703799999975,
                    "velocity": 0.1968503937007874,
                    "duration": 0.42304199999999526
                },
                {
                    "name": "F3",
                    "midi": 53,
                    "time": 101.53007999999974,
                    "velocity": 0.25984251968503935,
                    "duration": 0.42304199999999526
                },
                {
                    "name": "G3",
                    "midi": 55,
                    "time": 101.95312199999974,
                    "velocity": 0.25196850393700787,
                    "duration": 0.42304199999999526
                },
                {
                    "name": "F3",
                    "midi": 53,
                    "time": 102.37616399999973,
                    "velocity": 0.25196850393700787,
                    "duration": 0.42304199999999526
                },
                {
                    "name": "E2",
                    "midi": 40,
                    "time": 102.79920599999973,
                    "velocity": 0.4566929133858268,
                    "duration": 0.21152100000000473
                },
                {
                    "name": "E3",
                    "midi": 52,
                    "time": 102.79920599999973,
                    "velocity": 0.5433070866141733,
                    "duration": 0.21152100000000473
                },
                {
                    "name": "G#3",
                    "midi": 56,
                    "time": 103.22224799999974,
                    "velocity": 0.31496062992125984,
                    "duration": 0.10576050000000237
                },
                {
                    "name": "A3",
                    "midi": 57,
                    "time": 103.64528999999973,
                    "velocity": 0.31496062992125984,
                    "duration": 0.10576050000000237
                },
                {
                    "name": "F3",
                    "midi": 53,
                    "time": 104.06833199999974,
                    "velocity": 0.31496062992125984,
                    "duration": 0.10576050000000237
                },
                {
                    "name": "G3",
                    "midi": 55,
                    "time": 104.49137399999975,
                    "velocity": 0.31496062992125984,
                    "duration": 0.10576050000000237
                },
                {
                    "name": "F3",
                    "midi": 53,
                    "time": 104.91441599999976,
                    "velocity": 0.31496062992125984,
                    "duration": 0.10576050000000237
                },
                {
                    "name": "E2",
                    "midi": 40,
                    "time": 105.33745799999977,
                    "velocity": 0.5905511811023622,
                    "duration": 0.10576050000000237
                },
                {
                    "name": "E3",
                    "midi": 52,
                    "time": 105.33745799999977,
                    "velocity": 0.5905511811023622,
                    "duration": 0.10576050000000237
                },
                {
                    "name": "G#2",
                    "midi": 44,
                    "time": 105.76049999999978,
                    "velocity": 0.5748031496062992,
                    "duration": 0.10576050000000237
                },
                {
                    "name": "G#3",
                    "midi": 56,
                    "time": 105.76049999999978,
                    "velocity": 0.5748031496062992,
                    "duration": 0.10576050000000237
                },
                {
                    "name": "A3",
                    "midi": 57,
                    "time": 106.18354199999979,
                    "velocity": 0.5748031496062992,
                    "duration": 0.10576050000000237
                },
                {
                    "name": "A2",
                    "midi": 45,
                    "time": 106.18354199999979,
                    "velocity": 0.5748031496062992,
                    "duration": 0.10576050000000237
                },
                {
                    "name": "F2",
                    "midi": 41,
                    "time": 106.6065839999998,
                    "velocity": 0.5905511811023622,
                    "duration": 0.10576050000000237
                },
                {
                    "name": "F3",
                    "midi": 53,
                    "time": 106.6065839999998,
                    "velocity": 0.5905511811023622,
                    "duration": 0.10576050000000237
                },
                {
                    "name": "G3",
                    "midi": 55,
                    "time": 107.02962599999981,
                    "velocity": 0.5748031496062992,
                    "duration": 0.10576050000000237
                },
                {
                    "name": "G2",
                    "midi": 43,
                    "time": 107.02962599999981,
                    "velocity": 0.5748031496062992,
                    "duration": 0.10576050000000237
                },
                {
                    "name": "G3",
                    "midi": 55,
                    "time": 107.45266799999982,
                    "velocity": 0.5748031496062992,
                    "duration": 0.10576050000000237
                },
                {
                    "name": "G2",
                    "midi": 43,
                    "time": 107.45266799999982,
                    "velocity": 0.5748031496062992,
                    "duration": 0.10576050000000237
                },
                {
                    "name": "C3",
                    "midi": 48,
                    "time": 107.87570999999983,
                    "velocity": 0.5039370078740157,
                    "duration": 0.10576050000000237
                },
                {
                    "name": "E3",
                    "midi": 52,
                    "time": 107.98147049999983,
                    "velocity": 0.4645669291338583,
                    "duration": 0.10576050000000237
                },
                {
                    "name": "G3",
                    "midi": 55,
                    "time": 108.08723099999983,
                    "velocity": 0.4645669291338583,
                    "duration": 0.10576050000000237
                },
                {
                    "name": "C4",
                    "midi": 60,
                    "time": 108.19299149999983,
                    "velocity": 0.4645669291338583,
                    "duration": 0.10576050000000237
                },
                {
                    "name": "C3",
                    "midi": 48,
                    "time": 108.29875199999984,
                    "velocity": 0.49606299212598426,
                    "duration": 0.10576050000000237
                },
                {
                    "name": "E3",
                    "midi": 52,
                    "time": 108.40451249999984,
                    "velocity": 0.4566929133858268,
                    "duration": 0.10576050000000237
                },
                {
                    "name": "G3",
                    "midi": 55,
                    "time": 108.51027299999984,
                    "velocity": 0.4566929133858268,
                    "duration": 0.10576050000000237
                },
                {
                    "name": "C4",
                    "midi": 60,
                    "time": 108.61603349999984,
                    "velocity": 0.4566929133858268,
                    "duration": 0.10576050000000237
                },
                {
                    "name": "C3",
                    "midi": 48,
                    "time": 108.72179399999985,
                    "velocity": 0.49606299212598426,
                    "duration": 0.10576050000000237
                },
                {
                    "name": "E3",
                    "midi": 52,
                    "time": 108.82755449999985,
                    "velocity": 0.44881889763779526,
                    "duration": 0.10576050000000237
                },
                {
                    "name": "G3",
                    "midi": 55,
                    "time": 108.93331499999985,
                    "velocity": 0.4566929133858268,
                    "duration": 0.10576050000000237
                },
                {
                    "name": "C4",
                    "midi": 60,
                    "time": 109.03907549999985,
                    "velocity": 0.4566929133858268,
                    "duration": 0.10576050000000237
                },
                {
                    "name": "C3",
                    "midi": 48,
                    "time": 109.14483599999986,
                    "velocity": 0.49606299212598426,
                    "duration": 0.10576050000000237
                },
                {
                    "name": "E3",
                    "midi": 52,
                    "time": 109.25059649999986,
                    "velocity": 0.4566929133858268,
                    "duration": 0.10576050000000237
                },
                {
                    "name": "G3",
                    "midi": 55,
                    "time": 109.35635699999986,
                    "velocity": 0.4645669291338583,
                    "duration": 0.10576050000000237
                },
                {
                    "name": "C4",
                    "midi": 60,
                    "time": 109.46211749999986,
                    "velocity": 0.4645669291338583,
                    "duration": 0.10576050000000237
                },
                {
                    "name": "C3",
                    "midi": 48,
                    "time": 109.56787799999987,
                    "velocity": 0.49606299212598426,
                    "duration": 0.10576050000000237
                },
                {
                    "name": "E3",
                    "midi": 52,
                    "time": 109.67363849999987,
                    "velocity": 0.44881889763779526,
                    "duration": 0.10576050000000237
                },
                {
                    "name": "G3",
                    "midi": 55,
                    "time": 109.77939899999987,
                    "velocity": 0.44881889763779526,
                    "duration": 0.10576050000000237
                },
                {
                    "name": "C4",
                    "midi": 60,
                    "time": 109.88515949999987,
                    "velocity": 0.44881889763779526,
                    "duration": 0.10576050000000237
                },
                {
                    "name": "C3",
                    "midi": 48,
                    "time": 109.99091999999987,
                    "velocity": 0.49606299212598426,
                    "duration": 0.10576050000000237
                },
                {
                    "name": "F3",
                    "midi": 53,
                    "time": 110.09668049999988,
                    "velocity": 0.44881889763779526,
                    "duration": 0.10576050000000237
                },
                {
                    "name": "G3",
                    "midi": 55,
                    "time": 110.20244099999988,
                    "velocity": 0.44881889763779526,
                    "duration": 0.10576050000000237
                },
                {
                    "name": "D4",
                    "midi": 62,
                    "time": 110.30820149999988,
                    "velocity": 0.44881889763779526,
                    "duration": 0.10576050000000237
                },
                {
                    "name": "C3",
                    "midi": 48,
                    "time": 110.41396199999988,
                    "velocity": 0.49606299212598426,
                    "duration": 0.10576050000000237
                },
                {
                    "name": "E3",
                    "midi": 52,
                    "time": 110.51972249999989,
                    "velocity": 0.44881889763779526,
                    "duration": 0.10576050000000237
                },
                {
                    "name": "G3",
                    "midi": 55,
                    "time": 110.62548299999989,
                    "velocity": 0.44881889763779526,
                    "duration": 0.10576050000000237
                },
                {
                    "name": "C4",
                    "midi": 60,
                    "time": 110.73124349999989,
                    "velocity": 0.44881889763779526,
                    "duration": 0.10576050000000237
                },
                {
                    "name": "C3",
                    "midi": 48,
                    "time": 110.8370039999999,
                    "velocity": 0.49606299212598426,
                    "duration": 0.10576050000000237
                },
                {
                    "name": "E3",
                    "midi": 52,
                    "time": 110.9427644999999,
                    "velocity": 0.44881889763779526,
                    "duration": 0.10576050000000237
                },
                {
                    "name": "G3",
                    "midi": 55,
                    "time": 111.0485249999999,
                    "velocity": 0.44881889763779526,
                    "duration": 0.10576050000000237
                },
                {
                    "name": "C4",
                    "midi": 60,
                    "time": 111.1542854999999,
                    "velocity": 0.44881889763779526,
                    "duration": 0.10576050000000237
                },
                {
                    "name": "C3",
                    "midi": 48,
                    "time": 111.2600459999999,
                    "velocity": 0.49606299212598426,
                    "duration": 0.10576050000000237
                },
                {
                    "name": "E3",
                    "midi": 52,
                    "time": 111.3658064999999,
                    "velocity": 0.44881889763779526,
                    "duration": 0.10576050000000237
                },
                {
                    "name": "G3",
                    "midi": 55,
                    "time": 111.47156699999991,
                    "velocity": 0.4566929133858268,
                    "duration": 0.10576050000000237
                },
                {
                    "name": "C4",
                    "midi": 60,
                    "time": 111.57732749999991,
                    "velocity": 0.4566929133858268,
                    "duration": 0.10576050000000237
                },
                {
                    "name": "C3",
                    "midi": 48,
                    "time": 111.68308799999991,
                    "velocity": 0.49606299212598426,
                    "duration": 0.10576050000000237
                },
                {
                    "name": "E3",
                    "midi": 52,
                    "time": 111.78884849999992,
                    "velocity": 0.4566929133858268,
                    "duration": 0.10576050000000237
                },
                {
                    "name": "G3",
                    "midi": 55,
                    "time": 111.89460899999992,
                    "velocity": 0.4645669291338583,
                    "duration": 0.10576050000000237
                },
                {
                    "name": "C4",
                    "midi": 60,
                    "time": 112.00036949999992,
                    "velocity": 0.4645669291338583,
                    "duration": 0.10576050000000237
                },
                {
                    "name": "C3",
                    "midi": 48,
                    "time": 112.10612999999992,
                    "velocity": 0.49606299212598426,
                    "duration": 0.10576050000000237
                },
                {
                    "name": "E3",
                    "midi": 52,
                    "time": 112.21189049999992,
                    "velocity": 0.44881889763779526,
                    "duration": 0.10576050000000237
                },
                {
                    "name": "G3",
                    "midi": 55,
                    "time": 112.31765099999993,
                    "velocity": 0.44881889763779526,
                    "duration": 0.10576050000000237
                },
                {
                    "name": "C4",
                    "midi": 60,
                    "time": 112.42341149999993,
                    "velocity": 0.44881889763779526,
                    "duration": 0.10576050000000237
                },
                {
                    "name": "C3",
                    "midi": 48,
                    "time": 112.52917199999993,
                    "velocity": 0.49606299212598426,
                    "duration": 0.10576050000000237
                },
                {
                    "name": "F3",
                    "midi": 53,
                    "time": 112.63493249999993,
                    "velocity": 0.44881889763779526,
                    "duration": 0.10576050000000237
                },
                {
                    "name": "G3",
                    "midi": 55,
                    "time": 112.74069299999994,
                    "velocity": 0.44881889763779526,
                    "duration": 0.10576050000000237
                },
                {
                    "name": "D4",
                    "midi": 62,
                    "time": 112.84645349999994,
                    "velocity": 0.44881889763779526,
                    "duration": 0.10576050000000237
                },
                {
                    "name": "C4",
                    "midi": 60,
                    "time": 112.95221399999994,
                    "velocity": 0.49606299212598426,
                    "duration": 0.10576050000000237
                },
                {
                    "name": "C3",
                    "midi": 48,
                    "time": 112.95221399999994,
                    "velocity": 0.49606299212598426,
                    "duration": 0.10576050000000237
                },
                {
                    "name": "E3",
                    "midi": 52,
                    "time": 112.95221399999994,
                    "velocity": 0.49606299212598426,
                    "duration": 0.10576050000000237
                },
                {
                    "name": "G3",
                    "midi": 55,
                    "time": 112.95221399999994,
                    "velocity": 0.49606299212598426,
                    "duration": 0.10576050000000237
                },
                {
                    "name": "E4",
                    "midi": 64,
                    "time": 113.37525599999995,
                    "velocity": 0.5433070866141733,
                    "duration": 0.634563
                },
                {
                    "name": "E3",
                    "midi": 52,
                    "time": 113.37525599999995,
                    "velocity": 0.4566929133858268,
                    "duration": 0.634563
                },
                {
                    "name": "G#3",
                    "midi": 56,
                    "time": 114.00981899999995,
                    "velocity": 0.49606299212598426,
                    "duration": 0.21152100000000473
                },
                {
                    "name": "G#2",
                    "midi": 44,
                    "time": 114.00981899999995,
                    "velocity": 0.49606299212598426,
                    "duration": 0.21152100000000473
                },
                {
                    "name": "A3",
                    "midi": 57,
                    "time": 114.22133999999996,
                    "velocity": 0.49606299212598426,
                    "duration": 0.10576050000000237
                },
                {
                    "name": "A2",
                    "midi": 45,
                    "time": 114.22133999999996,
                    "velocity": 0.49606299212598426,
                    "duration": 0.10576050000000237
                },
                {
                    "name": "C4",
                    "midi": 60,
                    "time": 114.64438199999995,
                    "velocity": 0.5590551181102362,
                    "duration": 0.634563
                },
                {
                    "name": "C3",
                    "midi": 48,
                    "time": 114.64438199999995,
                    "velocity": 0.47244094488188976,
                    "duration": 0.634563
                },
                {
                    "name": "E3",
                    "midi": 52,
                    "time": 115.27894499999995,
                    "velocity": 0.49606299212598426,
                    "duration": 0.21152100000000473
                },
                {
                    "name": "F3",
                    "midi": 53,
                    "time": 115.49046599999996,
                    "velocity": 0.4409448818897638,
                    "duration": 0.05288025000000118
                },
                {
                    "name": "G3",
                    "midi": 55,
                    "time": 115.54334624999996,
                    "velocity": 0.4094488188976378,
                    "duration": 0.05288025000000118
                },
                {
                    "name": "F3",
                    "midi": 53,
                    "time": 115.59622649999996,
                    "velocity": 0.4409448818897638,
                    "duration": 0.05288025000000118
                },
                {
                    "name": "G3",
                    "midi": 55,
                    "time": 115.64910674999996,
                    "velocity": 0.4094488188976378,
                    "duration": 0.05288025000000118
                },
                {
                    "name": "F3",
                    "midi": 53,
                    "time": 115.70198699999996,
                    "velocity": 0.4409448818897638,
                    "duration": 0.03525349999999605
                },
                {
                    "name": "G3",
                    "midi": 55,
                    "time": 115.73724049999996,
                    "velocity": 0.4094488188976378,
                    "duration": 0.03525349999999605
                },
                {
                    "name": "F3",
                    "midi": 53,
                    "time": 115.77249399999995,
                    "velocity": 0.4094488188976378,
                    "duration": 0.03525349999999605
                },
                {
                    "name": "E3",
                    "midi": 52,
                    "time": 115.80774749999995,
                    "velocity": 0.4409448818897638,
                    "duration": 0.05288025000000118
                },
                {
                    "name": "D3",
                    "midi": 50,
                    "time": 115.86062774999995,
                    "velocity": 0.4094488188976378,
                    "duration": 0.05288025000000118
                },
                {
                    "name": "G3",
                    "midi": 55,
                    "time": 115.91350799999995,
                    "velocity": 0.49606299212598426,
                    "duration": 0.10576050000000237
                },
                {
                    "name": "G3",
                    "midi": 55,
                    "time": 116.33654999999996,
                    "velocity": 0.5275590551181102,
                    "duration": 0.10576050000000237
                },
                {
                    "name": "G2",
                    "midi": 43,
                    "time": 116.33654999999996,
                    "velocity": 0.4409448818897638,
                    "duration": 0.10576050000000237
                },
                {
                    "name": "C3",
                    "midi": 48,
                    "time": 116.75959199999997,
                    "velocity": 0.47244094488188976,
                    "duration": 0.10576050000000237
                },
                {
                    "name": "C4",
                    "midi": 60,
                    "time": 116.75959199999997,
                    "velocity": 0.5669291338582677,
                    "duration": 0.10576050000000237
                },
                {
                    "name": "C3",
                    "midi": 48,
                    "time": 117.18263399999998,
                    "velocity": 0.5433070866141733,
                    "duration": 0.10576050000000237
                },
                {
                    "name": "C2",
                    "midi": 36,
                    "time": 117.18263399999998,
                    "velocity": 0.4566929133858268,
                    "duration": 0.10576050000000237
                },
                {
                    "name": "F3",
                    "midi": 53,
                    "time": 118.02871799999998,
                    "velocity": 0.31496062992125984,
                    "duration": 0.21152100000000473
                },
                {
                    "name": "A3",
                    "midi": 57,
                    "time": 118.24023899999999,
                    "velocity": 0.23622047244094488,
                    "duration": 0.21152100000000473
                },
                {
                    "name": "C4",
                    "midi": 60,
                    "time": 118.45176,
                    "velocity": 0.25984251968503935,
                    "duration": 0.21152100000000473
                },
                {
                    "name": "A3",
                    "midi": 57,
                    "time": 118.663281,
                    "velocity": 0.23622047244094488,
                    "duration": 0.21152100000000473
                },
                {
                    "name": "C4",
                    "midi": 60,
                    "time": 118.874802,
                    "velocity": 0.2677165354330709,
                    "duration": 0.21152100000000473
                },
                {
                    "name": "A3",
                    "midi": 57,
                    "time": 119.08632300000001,
                    "velocity": 0.23622047244094488,
                    "duration": 0.21152100000000473
                },
                {
                    "name": "F3",
                    "midi": 53,
                    "time": 119.29784400000001,
                    "velocity": 0.31496062992125984,
                    "duration": 0.21152100000000473
                },
                {
                    "name": "C4",
                    "midi": 60,
                    "time": 119.50936500000002,
                    "velocity": 0.2283464566929134,
                    "duration": 0.21152100000000473
                },
                {
                    "name": "D#4",
                    "midi": 63,
                    "time": 119.72088600000002,
                    "velocity": 0.2440944881889764,
                    "duration": 0.21152100000000473
                },
                {
                    "name": "C4",
                    "midi": 60,
                    "time": 119.93240700000003,
                    "velocity": 0.2125984251968504,
                    "duration": 0.21152100000000473
                },
                {
                    "name": "D#4",
                    "midi": 63,
                    "time": 120.14392800000003,
                    "velocity": 0.2440944881889764,
                    "duration": 0.21152100000000473
                },
                {
                    "name": "C4",
                    "midi": 60,
                    "time": 120.35544900000004,
                    "velocity": 0.2204724409448819,
                    "duration": 0.21152100000000473
                },
                {
                    "name": "F3",
                    "midi": 53,
                    "time": 120.56697000000004,
                    "velocity": 0.31496062992125984,
                    "duration": 0.21152100000000473
                },
                {
                    "name": "A#3",
                    "midi": 58,
                    "time": 120.77849100000005,
                    "velocity": 0.23622047244094488,
                    "duration": 0.21152100000000473
                },
                {
                    "name": "D4",
                    "midi": 62,
                    "time": 120.99001200000005,
                    "velocity": 0.25984251968503935,
                    "duration": 0.21152100000000473
                },
                {
                    "name": "A#3",
                    "midi": 58,
                    "time": 121.20153300000005,
                    "velocity": 0.23622047244094488,
                    "duration": 0.21152100000000473
                },
                {
                    "name": "D4",
                    "midi": 62,
                    "time": 121.41305400000006,
                    "velocity": 0.25984251968503935,
                    "duration": 0.21152100000000473
                },
                {
                    "name": "A#3",
                    "midi": 58,
                    "time": 121.62457500000006,
                    "velocity": 0.23622047244094488,
                    "duration": 0.21152100000000473
                },
                {
                    "name": "F3",
                    "midi": 53,
                    "time": 121.83609600000007,
                    "velocity": 0.31496062992125984,
                    "duration": 0.21152100000000473
                },
                {
                    "name": "G3",
                    "midi": 55,
                    "time": 122.04761700000007,
                    "velocity": 0.18110236220472442,
                    "duration": 0.21152100000000473
                },
                {
                    "name": "A#3",
                    "midi": 58,
                    "time": 122.25913800000008,
                    "velocity": 0.2204724409448819,
                    "duration": 0.21152100000000473
                },
                {
                    "name": "G3",
                    "midi": 55,
                    "time": 122.47065900000008,
                    "velocity": 0.1889763779527559,
                    "duration": 0.21152100000000473
                },
                {
                    "name": "A#3",
                    "midi": 58,
                    "time": 122.68218000000009,
                    "velocity": 0.2283464566929134,
                    "duration": 0.21152100000000473
                },
                {
                    "name": "G3",
                    "midi": 55,
                    "time": 122.89370100000009,
                    "velocity": 0.1889763779527559,
                    "duration": 0.21152100000000473
                },
                {
                    "name": "A3",
                    "midi": 57,
                    "time": 123.1052220000001,
                    "velocity": 0.23622047244094488,
                    "duration": 0.42304199999999526
                },
                {
                    "name": "F3",
                    "midi": 53,
                    "time": 123.1052220000001,
                    "velocity": 0.23622047244094488,
                    "duration": 0.42304199999999526
                },
                {
                    "name": "F3",
                    "midi": 53,
                    "time": 125.6434740000001,
                    "velocity": 0.3700787401574803,
                    "duration": 0.42304199999999526
                },
                {
                    "name": "A2",
                    "midi": 45,
                    "time": 126.06651600000009,
                    "velocity": 0.3464566929133858,
                    "duration": 0.42304199999999526
                },
                {
                    "name": "D3",
                    "midi": 50,
                    "time": 126.48955800000009,
                    "velocity": 0.3779527559055118,
                    "duration": 0.42304199999999526
                },
                {
                    "name": "G2",
                    "midi": 43,
                    "time": 126.91260000000008,
                    "velocity": 0.3779527559055118,
                    "duration": 0.42304199999999526
                },
                {
                    "name": "C3",
                    "midi": 48,
                    "time": 127.33564200000008,
                    "velocity": 0.3858267716535433,
                    "duration": 0.634563
                },
                {
                    "name": "A2",
                    "midi": 45,
                    "time": 127.97020500000008,
                    "velocity": 0.3700787401574803,
                    "duration": 0.21152100000000473
                },
                {
                    "name": "F2",
                    "midi": 41,
                    "time": 128.18172600000008,
                    "velocity": 0.4094488188976378,
                    "duration": 0.42304200000000947
                },
                {
                    "name": "D3",
                    "midi": 50,
                    "time": 128.6047680000001,
                    "velocity": 0.31496062992125984,
                    "duration": 0.42304200000000947
                },
                {
                    "name": "A#2",
                    "midi": 46,
                    "time": 129.0278100000001,
                    "velocity": 0.3464566929133858,
                    "duration": 0.42304200000000947
                },
                {
                    "name": "A2",
                    "midi": 45,
                    "time": 129.4508520000001,
                    "velocity": 0.3700787401574803,
                    "duration": 0.42304200000000947
                },
                {
                    "name": "D3",
                    "midi": 50,
                    "time": 130.29693600000013,
                    "velocity": 0.31496062992125984,
                    "duration": 0.42304200000000947
                },
                {
                    "name": "A#2",
                    "midi": 46,
                    "time": 130.71997800000014,
                    "velocity": 0.31496062992125984,
                    "duration": 0.42304200000000947
                },
                {
                    "name": "C3",
                    "midi": 48,
                    "time": 131.56606200000016,
                    "velocity": 0.3228346456692913,
                    "duration": 0.42304200000000947
                },
                {
                    "name": "F2",
                    "midi": 41,
                    "time": 131.98910400000017,
                    "velocity": 0.33858267716535434,
                    "duration": 0.42304200000000947
                },
                {
                    "name": "A4",
                    "midi": 69,
                    "time": 132.8351880000002,
                    "velocity": 0.25196850393700787,
                    "duration": 0.3172815000000071
                },
                {
                    "name": "C5",
                    "midi": 72,
                    "time": 132.8351880000002,
                    "velocity": 0.31496062992125984,
                    "duration": 0.3172815000000071
                },
                {
                    "name": "G4",
                    "midi": 67,
                    "time": 133.1524695000002,
                    "velocity": 0.2204724409448819,
                    "duration": 0.10576050000000237
                },
                {
                    "name": "A#4",
                    "midi": 70,
                    "time": 133.1524695000002,
                    "velocity": 0.2755905511811024,
                    "duration": 0.10576050000000237
                },
                {
                    "name": "A4",
                    "midi": 69,
                    "time": 133.2582300000002,
                    "velocity": 0.31496062992125984,
                    "duration": 0.10576050000000237
                },
                {
                    "name": "F4",
                    "midi": 65,
                    "time": 133.2582300000002,
                    "velocity": 0.25196850393700787,
                    "duration": 0.10576050000000237
                },
                {
                    "name": "A4",
                    "midi": 69,
                    "time": 133.6812720000002,
                    "velocity": 0.31496062992125984,
                    "duration": 0.10576050000000237
                },
                {
                    "name": "F4",
                    "midi": 65,
                    "time": 133.6812720000002,
                    "velocity": 0.25196850393700787,
                    "duration": 0.10576050000000237
                },
                {
                    "name": "F4",
                    "midi": 65,
                    "time": 134.10431400000022,
                    "velocity": 0.2283464566929134,
                    "duration": 0.3172815000000071
                },
                {
                    "name": "A4",
                    "midi": 69,
                    "time": 134.10431400000022,
                    "velocity": 0.29133858267716534,
                    "duration": 0.3172815000000071
                },
                {
                    "name": "C4",
                    "midi": 60,
                    "time": 134.42159550000022,
                    "velocity": 0.2047244094488189,
                    "duration": 0.10576050000000237
                },
                {
                    "name": "G4",
                    "midi": 67,
                    "time": 134.42159550000022,
                    "velocity": 0.25984251968503935,
                    "duration": 0.10576050000000237
                },
                {
                    "name": "F4",
                    "midi": 65,
                    "time": 134.52735600000022,
                    "velocity": 0.2992125984251969,
                    "duration": 0.10576050000000237
                },
                {
                    "name": "A3",
                    "midi": 57,
                    "time": 134.52735600000022,
                    "velocity": 0.23622047244094488,
                    "duration": 0.10576050000000237
                },
                {
                    "name": "A3",
                    "midi": 57,
                    "time": 134.95039800000023,
                    "velocity": 0.2204724409448819,
                    "duration": 0.10576050000000237
                },
                {
                    "name": "F4",
                    "midi": 65,
                    "time": 134.95039800000023,
                    "velocity": 0.2755905511811024,
                    "duration": 0.10576050000000237
                },
                {
                    "name": "A3",
                    "midi": 57,
                    "time": 135.37344000000024,
                    "velocity": 0.2204724409448819,
                    "duration": 0.42304200000000947
                },
                {
                    "name": "F4",
                    "midi": 65,
                    "time": 135.37344000000024,
                    "velocity": 0.2755905511811024,
                    "duration": 0.42304200000000947
                },
                {
                    "name": "G4",
                    "midi": 67,
                    "time": 135.79648200000025,
                    "velocity": 0.28346456692913385,
                    "duration": 0.10576050000000237
                },
                {
                    "name": "C4",
                    "midi": 60,
                    "time": 135.79648200000025,
                    "velocity": 0.2204724409448819,
                    "duration": 0.10576050000000237
                },
                {
                    "name": "G4",
                    "midi": 67,
                    "time": 136.21952400000026,
                    "velocity": 0.2755905511811024,
                    "duration": 0.10576050000000237
                },
                {
                    "name": "C4",
                    "midi": 60,
                    "time": 136.21952400000026,
                    "velocity": 0.2204724409448819,
                    "duration": 0.10576050000000237
                },
                {
                    "name": "C4",
                    "midi": 60,
                    "time": 136.64256600000027,
                    "velocity": 0.2204724409448819,
                    "duration": 0.10576050000000237
                },
                {
                    "name": "G4",
                    "midi": 67,
                    "time": 136.64256600000027,
                    "velocity": 0.2755905511811024,
                    "duration": 0.10576050000000237
                },
                {
                    "name": "C4",
                    "midi": 60,
                    "time": 137.06560800000028,
                    "velocity": 0.25196850393700787,
                    "duration": 0.42304200000000947
                },
                {
                    "name": "G4",
                    "midi": 67,
                    "time": 137.06560800000028,
                    "velocity": 0.31496062992125984,
                    "duration": 0.42304200000000947
                },
                {
                    "name": "A4",
                    "midi": 69,
                    "time": 137.4886500000003,
                    "velocity": 0.2755905511811024,
                    "duration": 0.42304200000000947
                },
                {
                    "name": "F4",
                    "midi": 65,
                    "time": 137.4886500000003,
                    "velocity": 0.2204724409448819,
                    "duration": 0.42304200000000947
                },
                {
                    "name": "A4",
                    "midi": 69,
                    "time": 137.9116920000003,
                    "velocity": 0.25196850393700787,
                    "duration": 0.3172815000000071
                },
                {
                    "name": "C5",
                    "midi": 72,
                    "time": 137.9116920000003,
                    "velocity": 0.31496062992125984,
                    "duration": 0.3172815000000071
                },
                {
                    "name": "G4",
                    "midi": 67,
                    "time": 138.2289735000003,
                    "velocity": 0.2204724409448819,
                    "duration": 0.10576050000000237
                },
                {
                    "name": "A#4",
                    "midi": 70,
                    "time": 138.2289735000003,
                    "velocity": 0.2755905511811024,
                    "duration": 0.10576050000000237
                },
                {
                    "name": "F4",
                    "midi": 65,
                    "time": 138.3347340000003,
                    "velocity": 0.25196850393700787,
                    "duration": 0.10576050000000237
                },
                {
                    "name": "A4",
                    "midi": 69,
                    "time": 138.3347340000003,
                    "velocity": 0.31496062992125984,
                    "duration": 0.10576050000000237
                },
                {
                    "name": "F4",
                    "midi": 65,
                    "time": 138.75777600000032,
                    "velocity": 0.25196850393700787,
                    "duration": 0.10576050000000237
                },
                {
                    "name": "A4",
                    "midi": 69,
                    "time": 138.75777600000032,
                    "velocity": 0.31496062992125984,
                    "duration": 0.10576050000000237
                },
                {
                    "name": "F4",
                    "midi": 65,
                    "time": 139.18081800000033,
                    "velocity": 0.2283464566929134,
                    "duration": 0.3172815000000071
                },
                {
                    "name": "A4",
                    "midi": 69,
                    "time": 139.18081800000033,
                    "velocity": 0.29133858267716534,
                    "duration": 0.3172815000000071
                },
                {
                    "name": "C4",
                    "midi": 60,
                    "time": 139.49809950000034,
                    "velocity": 0.2047244094488189,
                    "duration": 0.10576050000000237
                },
                {
                    "name": "G4",
                    "midi": 67,
                    "time": 139.49809950000034,
                    "velocity": 0.25984251968503935,
                    "duration": 0.10576050000000237
                },
                {
                    "name": "A3",
                    "midi": 57,
                    "time": 139.60386000000034,
                    "velocity": 0.23622047244094488,
                    "duration": 0.10576050000000237
                },
                {
                    "name": "F4",
                    "midi": 65,
                    "time": 139.60386000000034,
                    "velocity": 0.2992125984251969,
                    "duration": 0.10576050000000237
                },
                {
                    "name": "F4",
                    "midi": 65,
                    "time": 140.02690200000035,
                    "velocity": 0.2755905511811024,
                    "duration": 0.10576050000000237
                },
                {
                    "name": "A3",
                    "midi": 57,
                    "time": 140.02690200000035,
                    "velocity": 0.2204724409448819,
                    "duration": 0.10576050000000237
                },
                {
                    "name": "A3",
                    "midi": 57,
                    "time": 140.44994400000036,
                    "velocity": 0.2204724409448819,
                    "duration": 0.10576050000000237
                },
                {
                    "name": "F4",
                    "midi": 65,
                    "time": 140.44994400000036,
                    "velocity": 0.2755905511811024,
                    "duration": 0.10576050000000237
                },
                {
                    "name": "G4",
                    "midi": 67,
                    "time": 140.87298600000037,
                    "velocity": 0.29133858267716534,
                    "duration": 0.42304200000000947
                },
                {
                    "name": "C4",
                    "midi": 60,
                    "time": 140.87298600000037,
                    "velocity": 0.2283464566929134,
                    "duration": 0.42304200000000947
                },
                {
                    "name": "C4",
                    "midi": 60,
                    "time": 141.7190700000004,
                    "velocity": 0.2204724409448819,
                    "duration": 0.42304200000000947
                },
                {
                    "name": "G4",
                    "midi": 67,
                    "time": 141.7190700000004,
                    "velocity": 0.2755905511811024,
                    "duration": 0.42304200000000947
                },
                {
                    "name": "F4",
                    "midi": 65,
                    "time": 142.1421120000004,
                    "velocity": 0.30708661417322836,
                    "duration": 0.42304200000000947
                },
                {
                    "name": "E4",
                    "midi": 64,
                    "time": 142.9881960000004,
                    "velocity": 0.2204724409448819,
                    "duration": 0.42304200000000947
                },
                {
                    "name": "C4",
                    "midi": 60,
                    "time": 142.9881960000004,
                    "velocity": 0.2204724409448819,
                    "duration": 0.42304200000000947
                },
                {
                    "name": "A#4",
                    "midi": 70,
                    "time": 142.9881960000004,
                    "velocity": 0.2755905511811024,
                    "duration": 0.42304200000000947
                },
                {
                    "name": "A4",
                    "midi": 69,
                    "time": 143.41123800000042,
                    "velocity": 0.30708661417322836,
                    "duration": 0.42304200000000947
                },
                {
                    "name": "F4",
                    "midi": 65,
                    "time": 143.41123800000042,
                    "velocity": 0.2440944881889764,
                    "duration": 0.42304200000000947
                },
                {
                    "name": "A#3",
                    "midi": 58,
                    "time": 144.25732200000044,
                    "velocity": 0.2440944881889764,
                    "duration": 0.42304200000000947
                },
                {
                    "name": "E3",
                    "midi": 52,
                    "time": 144.25732200000044,
                    "velocity": 0.1968503937007874,
                    "duration": 0.42304200000000947
                },
                {
                    "name": "C3",
                    "midi": 48,
                    "time": 144.25732200000044,
                    "velocity": 0.1968503937007874,
                    "duration": 0.42304200000000947
                },
                {
                    "name": "F3",
                    "midi": 53,
                    "time": 144.68036400000045,
                    "velocity": 0.2125984251968504,
                    "duration": 0.42304200000000947
                },
                {
                    "name": "A3",
                    "midi": 57,
                    "time": 144.68036400000045,
                    "velocity": 0.2755905511811024,
                    "duration": 0.42304200000000947
                },
                {
                    "name": "C#2",
                    "midi": 37,
                    "time": 145.52644800000047,
                    "velocity": 0.4015748031496063,
                    "duration": 0.42304200000000947
                },
                {
                    "name": "C#3",
                    "midi": 49,
                    "time": 145.52644800000047,
                    "velocity": 0.47244094488188976,
                    "duration": 0.42304200000000947
                },
                {
                    "name": "D3",
                    "midi": 50,
                    "time": 145.94949000000048,
                    "velocity": 0.5196850393700787,
                    "duration": 0.21152100000000473
                },
                {
                    "name": "D2",
                    "midi": 38,
                    "time": 145.94949000000048,
                    "velocity": 0.4409448818897638,
                    "duration": 0.21152100000000473
                },
                {
                    "name": "F3",
                    "midi": 53,
                    "time": 146.16101100000049,
                    "velocity": 0.47244094488188976,
                    "duration": 0.21152100000000473
                },
                {
                    "name": "A3",
                    "midi": 57,
                    "time": 146.3725320000005,
                    "velocity": 0.47244094488188976,
                    "duration": 0.21152100000000473
                },
                {
                    "name": "F3",
                    "midi": 53,
                    "time": 146.5840530000005,
                    "velocity": 0.47244094488188976,
                    "duration": 0.21152100000000473
                },
                {
                    "name": "A3",
                    "midi": 57,
                    "time": 146.7955740000005,
                    "velocity": 0.49606299212598426,
                    "duration": 0.21152100000000473
                },
                {
                    "name": "F3",
                    "midi": 53,
                    "time": 147.0070950000005,
                    "velocity": 0.47244094488188976,
                    "duration": 0.21152100000000473
                },
                {
                    "name": "D3",
                    "midi": 50,
                    "time": 147.2186160000005,
                    "velocity": 0.5118110236220472,
                    "duration": 0.21152100000000473
                },
                {
                    "name": "F3",
                    "midi": 53,
                    "time": 147.4301370000005,
                    "velocity": 0.47244094488188976,
                    "duration": 0.21152100000000473
                },
                {
                    "name": "A3",
                    "midi": 57,
                    "time": 147.64165800000052,
                    "velocity": 0.49606299212598426,
                    "duration": 0.21152100000000473
                },
                {
                    "name": "F3",
                    "midi": 53,
                    "time": 147.85317900000052,
                    "velocity": 0.47244094488188976,
                    "duration": 0.21152100000000473
                },
                {
                    "name": "A3",
                    "midi": 57,
                    "time": 148.06470000000053,
                    "velocity": 0.47244094488188976,
                    "duration": 0.21152100000000473
                },
                {
                    "name": "F3",
                    "midi": 53,
                    "time": 148.27622100000053,
                    "velocity": 0.4881889763779528,
                    "duration": 0.21152100000000473
                },
                {
                    "name": "E3",
                    "midi": 52,
                    "time": 148.48774200000054,
                    "velocity": 0.5590551181102362,
                    "duration": 0.10576050000000237
                },
                {
                    "name": "E2",
                    "midi": 40,
                    "time": 148.48774200000054,
                    "velocity": 0.47244094488188976,
                    "duration": 0.10576050000000237
                },
                {
                    "name": "G3",
                    "midi": 55,
                    "time": 148.91078400000055,
                    "velocity": 0.47244094488188976,
                    "duration": 0.10576050000000237
                },
                {
                    "name": "E3",
                    "midi": 52,
                    "time": 148.91078400000055,
                    "velocity": 0.47244094488188976,
                    "duration": 0.10576050000000237
                },
                {
                    "name": "A#3",
                    "midi": 58,
                    "time": 148.91078400000055,
                    "velocity": 0.47244094488188976,
                    "duration": 0.10576050000000237
                },
                {
                    "name": "C#4",
                    "midi": 61,
                    "time": 148.91078400000055,
                    "velocity": 0.5590551181102362,
                    "duration": 0.10576050000000237
                },
                {
                    "name": "E3",
                    "midi": 52,
                    "time": 149.75686800000054,
                    "velocity": 0.5590551181102362,
                    "duration": 0.10576050000000237
                },
                {
                    "name": "E2",
                    "midi": 40,
                    "time": 149.75686800000054,
                    "velocity": 0.47244094488188976,
                    "duration": 0.10576050000000237
                },
                {
                    "name": "A#3",
                    "midi": 58,
                    "time": 150.17991000000055,
                    "velocity": 0.47244094488188976,
                    "duration": 0.10576050000000237
                },
                {
                    "name": "C#4",
                    "midi": 61,
                    "time": 150.17991000000055,
                    "velocity": 0.5590551181102362,
                    "duration": 0.10576050000000237
                },
                {
                    "name": "E3",
                    "midi": 52,
                    "time": 150.17991000000055,
                    "velocity": 0.47244094488188976,
                    "duration": 0.10576050000000237
                },
                {
                    "name": "G3",
                    "midi": 55,
                    "time": 150.17991000000055,
                    "velocity": 0.47244094488188976,
                    "duration": 0.10576050000000237
                },
                {
                    "name": "F3",
                    "midi": 53,
                    "time": 151.02599400000054,
                    "velocity": 0.5196850393700787,
                    "duration": 0.21152100000000473
                },
                {
                    "name": "A3",
                    "midi": 57,
                    "time": 151.23751500000054,
                    "velocity": 0.47244094488188976,
                    "duration": 0.21152100000000473
                },
                {
                    "name": "D4",
                    "midi": 62,
                    "time": 151.44903600000055,
                    "velocity": 0.47244094488188976,
                    "duration": 0.21152100000000473
                },
                {
                    "name": "A3",
                    "midi": 57,
                    "time": 151.66055700000055,
                    "velocity": 0.47244094488188976,
                    "duration": 0.21152100000000473
                },
                {
                    "name": "D4",
                    "midi": 62,
                    "time": 151.87207800000056,
                    "velocity": 0.49606299212598426,
                    "duration": 0.21152100000000473
                },
                {
                    "name": "A3",
                    "midi": 57,
                    "time": 152.08359900000056,
                    "velocity": 0.47244094488188976,
                    "duration": 0.21152100000000473
                },
                {
                    "name": "F3",
                    "midi": 53,
                    "time": 152.29512000000057,
                    "velocity": 0.5118110236220472,
                    "duration": 0.21152100000000473
                },
                {
                    "name": "A3",
                    "midi": 57,
                    "time": 152.50664100000057,
                    "velocity": 0.47244094488188976,
                    "duration": 0.21152100000000473
                },
                {
                    "name": "D4",
                    "midi": 62,
                    "time": 152.71816200000058,
                    "velocity": 0.49606299212598426,
                    "duration": 0.21152100000000473
                },
                {
                    "name": "A3",
                    "midi": 57,
                    "time": 152.92968300000058,
                    "velocity": 0.47244094488188976,
                    "duration": 0.21152100000000473
                },
                {
                    "name": "D4",
                    "midi": 62,
                    "time": 153.14120400000058,
                    "velocity": 0.47244094488188976,
                    "duration": 0.21152100000000473
                },
                {
                    "name": "A3",
                    "midi": 57,
                    "time": 153.3527250000006,
                    "velocity": 0.4881889763779528,
                    "duration": 0.21152100000000473
                },
                {
                    "name": "D2",
                    "midi": 38,
                    "time": 153.5642460000006,
                    "velocity": 0.47244094488188976,
                    "duration": 0.10576050000000237
                },
                {
                    "name": "D3",
                    "midi": 50,
                    "time": 153.5642460000006,
                    "velocity": 0.5590551181102362,
                    "duration": 0.10576050000000237
                },
                {
                    "name": "B3",
                    "midi": 59,
                    "time": 153.9872880000006,
                    "velocity": 0.5590551181102362,
                    "duration": 0.10576050000000237
                },
                {
                    "name": "G#3",
                    "midi": 56,
                    "time": 153.9872880000006,
                    "velocity": 0.47244094488188976,
                    "duration": 0.10576050000000237
                },
                {
                    "name": "D3",
                    "midi": 50,
                    "time": 153.9872880000006,
                    "velocity": 0.47244094488188976,
                    "duration": 0.10576050000000237
                },
                {
                    "name": "F3",
                    "midi": 53,
                    "time": 153.9872880000006,
                    "velocity": 0.47244094488188976,
                    "duration": 0.10576050000000237
                },
                {
                    "name": "D2",
                    "midi": 38,
                    "time": 154.8333720000006,
                    "velocity": 0.47244094488188976,
                    "duration": 0.10576050000000237
                },
                {
                    "name": "D3",
                    "midi": 50,
                    "time": 154.8333720000006,
                    "velocity": 0.5590551181102362,
                    "duration": 0.10576050000000237
                },
                {
                    "name": "F3",
                    "midi": 53,
                    "time": 155.2564140000006,
                    "velocity": 0.47244094488188976,
                    "duration": 0.10576050000000237
                },
                {
                    "name": "D3",
                    "midi": 50,
                    "time": 155.2564140000006,
                    "velocity": 0.47244094488188976,
                    "duration": 0.10576050000000237
                },
                {
                    "name": "B3",
                    "midi": 59,
                    "time": 155.2564140000006,
                    "velocity": 0.5590551181102362,
                    "duration": 0.10576050000000237
                },
                {
                    "name": "G#3",
                    "midi": 56,
                    "time": 155.2564140000006,
                    "velocity": 0.47244094488188976,
                    "duration": 0.10576050000000237
                },
                {
                    "name": "D#3",
                    "midi": 51,
                    "time": 156.1024980000006,
                    "velocity": 0.5196850393700787,
                    "duration": 0.21152100000000473
                },
                {
                    "name": "G3",
                    "midi": 55,
                    "time": 156.3140190000006,
                    "velocity": 0.47244094488188976,
                    "duration": 0.21152100000000473
                },
                {
                    "name": "C4",
                    "midi": 60,
                    "time": 156.5255400000006,
                    "velocity": 0.47244094488188976,
                    "duration": 0.21152100000000473
                },
                {
                    "name": "G3",
                    "midi": 55,
                    "time": 156.7370610000006,
                    "velocity": 0.47244094488188976,
                    "duration": 0.21152100000000473
                },
                {
                    "name": "C4",
                    "midi": 60,
                    "time": 156.9485820000006,
                    "velocity": 0.49606299212598426,
                    "duration": 0.21152100000000473
                },
                {
                    "name": "G3",
                    "midi": 55,
                    "time": 157.16010300000062,
                    "velocity": 0.47244094488188976,
                    "duration": 0.21152100000000473
                },
                {
                    "name": "D#3",
                    "midi": 51,
                    "time": 157.37162400000062,
                    "velocity": 0.5196850393700787,
                    "duration": 0.21152100000000473
                },
                {
                    "name": "G3",
                    "midi": 55,
                    "time": 157.58314500000063,
                    "velocity": 0.47244094488188976,
                    "duration": 0.21152100000000473
                },
                {
                    "name": "C4",
                    "midi": 60,
                    "time": 157.79466600000063,
                    "velocity": 0.47244094488188976,
                    "duration": 0.21152100000000473
                },
                {
                    "name": "G3",
                    "midi": 55,
                    "time": 158.00618700000064,
                    "velocity": 0.47244094488188976,
                    "duration": 0.21152100000000473
                },
                {
                    "name": "C4",
                    "midi": 60,
                    "time": 158.21770800000064,
                    "velocity": 0.49606299212598426,
                    "duration": 0.21152100000000473
                },
                {
                    "name": "G3",
                    "midi": 55,
                    "time": 158.42922900000065,
                    "velocity": 0.47244094488188976,
                    "duration": 0.21152100000000473
                },
                {
                    "name": "C3",
                    "midi": 48,
                    "time": 158.64075000000065,
                    "velocity": 0.5196850393700787,
                    "duration": 0.21152100000000473
                },
                {
                    "name": "D#3",
                    "midi": 51,
                    "time": 158.85227100000066,
                    "velocity": 0.47244094488188976,
                    "duration": 0.21152100000000473
                },
                {
                    "name": "G#3",
                    "midi": 56,
                    "time": 159.06379200000066,
                    "velocity": 0.47244094488188976,
                    "duration": 0.21152100000000473
                },
                {
                    "name": "D#3",
                    "midi": 51,
                    "time": 159.27531300000066,
                    "velocity": 0.47244094488188976,
                    "duration": 0.21152100000000473
                },
                {
                    "name": "G#3",
                    "midi": 56,
                    "time": 159.48683400000067,
                    "velocity": 0.49606299212598426,
                    "duration": 0.21152100000000473
                },
                {
                    "name": "D#3",
                    "midi": 51,
                    "time": 159.69835500000067,
                    "velocity": 0.47244094488188976,
                    "duration": 0.21152100000000473
                },
                {
                    "name": "C3",
                    "midi": 48,
                    "time": 159.90987600000068,
                    "velocity": 0.5196850393700787,
                    "duration": 0.21152100000000473
                },
                {
                    "name": "D#3",
                    "midi": 51,
                    "time": 160.12139700000068,
                    "velocity": 0.47244094488188976,
                    "duration": 0.21152100000000473
                },
                {
                    "name": "G#3",
                    "midi": 56,
                    "time": 160.3329180000007,
                    "velocity": 0.47244094488188976,
                    "duration": 0.21152100000000473
                },
                {
                    "name": "D#3",
                    "midi": 51,
                    "time": 160.5444390000007,
                    "velocity": 0.47244094488188976,
                    "duration": 0.21152100000000473
                },
                {
                    "name": "G#3",
                    "midi": 56,
                    "time": 160.7559600000007,
                    "velocity": 0.49606299212598426,
                    "duration": 0.21152100000000473
                },
                {
                    "name": "D#3",
                    "midi": 51,
                    "time": 160.9674810000007,
                    "velocity": 0.47244094488188976,
                    "duration": 0.21152100000000473
                },
                {
                    "name": "G#2",
                    "midi": 44,
                    "time": 161.1790020000007,
                    "velocity": 0.5196850393700787,
                    "duration": 0.21152100000000473
                },
                {
                    "name": "C3",
                    "midi": 48,
                    "time": 161.3905230000007,
                    "velocity": 0.47244094488188976,
                    "duration": 0.21152100000000473
                },
                {
                    "name": "D#3",
                    "midi": 51,
                    "time": 161.60204400000072,
                    "velocity": 0.47244094488188976,
                    "duration": 0.21152100000000473
                },
                {
                    "name": "C3",
                    "midi": 48,
                    "time": 161.81356500000072,
                    "velocity": 0.47244094488188976,
                    "duration": 0.21152100000000473
                },
                {
                    "name": "D#3",
                    "midi": 51,
                    "time": 162.02508600000073,
                    "velocity": 0.49606299212598426,
                    "duration": 0.21152100000000473
                },
                {
                    "name": "C3",
                    "midi": 48,
                    "time": 162.23660700000073,
                    "velocity": 0.47244094488188976,
                    "duration": 0.21152100000000473
                },
                {
                    "name": "G#2",
                    "midi": 44,
                    "time": 162.44812800000074,
                    "velocity": 0.5196850393700787,
                    "duration": 0.21152100000000473
                },
                {
                    "name": "C3",
                    "midi": 48,
                    "time": 162.65964900000074,
                    "velocity": 0.47244094488188976,
                    "duration": 0.21152100000000473
                },
                {
                    "name": "D#3",
                    "midi": 51,
                    "time": 162.87117000000075,
                    "velocity": 0.47244094488188976,
                    "duration": 0.21152100000000473
                },
                {
                    "name": "C3",
                    "midi": 48,
                    "time": 163.08269100000075,
                    "velocity": 0.47244094488188976,
                    "duration": 0.21152100000000473
                },
                {
                    "name": "D#3",
                    "midi": 51,
                    "time": 163.29421200000075,
                    "velocity": 0.49606299212598426,
                    "duration": 0.21152100000000473
                },
                {
                    "name": "C3",
                    "midi": 48,
                    "time": 163.50573300000076,
                    "velocity": 0.47244094488188976,
                    "duration": 0.10576050000000237
                },
                {
                    "name": "G2",
                    "midi": 43,
                    "time": 163.71725400000076,
                    "velocity": 0.5196850393700787,
                    "duration": 0.21152100000000473
                },
                {
                    "name": "B2",
                    "midi": 47,
                    "time": 163.92877500000077,
                    "velocity": 0.47244094488188976,
                    "duration": 0.21152100000000473
                },
                {
                    "name": "D3",
                    "midi": 50,
                    "time": 164.14029600000077,
                    "velocity": 0.47244094488188976,
                    "duration": 0.21152100000000473
                },
                {
                    "name": "G3",
                    "midi": 55,
                    "time": 164.35181700000078,
                    "velocity": 0.47244094488188976,
                    "duration": 0.21152100000000473
                },
                {
                    "name": "C3",
                    "midi": 48,
                    "time": 164.56333800000078,
                    "velocity": 0.49606299212598426,
                    "duration": 0.21152100000000473
                },
                {
                    "name": "D#3",
                    "midi": 51,
                    "time": 164.7748590000008,
                    "velocity": 0.47244094488188976,
                    "duration": 0.21152100000000473
                },
                {
                    "name": "G2",
                    "midi": 43,
                    "time": 164.9863800000008,
                    "velocity": 0.5196850393700787,
                    "duration": 0.21152100000000473
                },
                {
                    "name": "B2",
                    "midi": 47,
                    "time": 165.1979010000008,
                    "velocity": 0.47244094488188976,
                    "duration": 0.21152100000000473
                },
                {
                    "name": "D3",
                    "midi": 50,
                    "time": 165.4094220000008,
                    "velocity": 0.47244094488188976,
                    "duration": 0.21152100000000473
                },
                {
                    "name": "G3",
                    "midi": 55,
                    "time": 165.6209430000008,
                    "velocity": 0.47244094488188976,
                    "duration": 0.21152100000000473
                },
                {
                    "name": "C3",
                    "midi": 48,
                    "time": 165.8324640000008,
                    "velocity": 0.49606299212598426,
                    "duration": 0.21152100000000473
                },
                {
                    "name": "D#3",
                    "midi": 51,
                    "time": 166.04398500000082,
                    "velocity": 0.47244094488188976,
                    "duration": 0.21152100000000473
                },
                {
                    "name": "G2",
                    "midi": 43,
                    "time": 166.25550600000082,
                    "velocity": 0.5669291338582677,
                    "duration": 0.6345629999999858
                },
                {
                    "name": "G3",
                    "midi": 55,
                    "time": 166.26608205000082,
                    "velocity": 0.5669291338582677,
                    "duration": 0.6345629999999858
                },
                {
                    "name": "G#3",
                    "midi": 56,
                    "time": 166.8900690000008,
                    "velocity": 0.49606299212598426,
                    "duration": 0.11457387499999072
                },
                {
                    "name": "G3",
                    "midi": 55,
                    "time": 166.9958295000008,
                    "velocity": 0.4881889763779528,
                    "duration": 0.11457387499999072
                },
                {
                    "name": "F3",
                    "midi": 53,
                    "time": 167.1015900000008,
                    "velocity": 0.47244094488188976,
                    "duration": 0.11457387499999072
                },
                {
                    "name": "D#3",
                    "midi": 51,
                    "time": 167.2073505000008,
                    "velocity": 0.47244094488188976,
                    "duration": 0.11457387499999072
                },
                {
                    "name": "D3",
                    "midi": 50,
                    "time": 167.31311100000082,
                    "velocity": 0.4645669291338583,
                    "duration": 0.11457387499999072
                },
                {
                    "name": "C3",
                    "midi": 48,
                    "time": 167.41887150000082,
                    "velocity": 0.44881889763779526,
                    "duration": 0.11457387499999072
                },
                {
                    "name": "G3",
                    "midi": 55,
                    "time": 167.52463200000082,
                    "velocity": 0.49606299212598426,
                    "duration": 0.10576050000000237
                },
                {
                    "name": "G2",
                    "midi": 43,
                    "time": 167.94767400000083,
                    "velocity": 0.44881889763779526,
                    "duration": 0.10576050000000237
                },
                {
                    "name": "C3",
                    "midi": 48,
                    "time": 168.63511725000083,
                    "velocity": 0.2755905511811024,
                    "duration": 0.05288024999998697
                },
                {
                    "name": "G3",
                    "midi": 55,
                    "time": 168.68799750000082,
                    "velocity": 0.2755905511811024,
                    "duration": 0.05288024999998697
                },
                {
                    "name": "C4",
                    "midi": 60,
                    "time": 168.7937580000008,
                    "velocity": 0.2755905511811024,
                    "duration": 0.42304200000000947
                },
                {
                    "name": "G3",
                    "midi": 55,
                    "time": 169.9042432500008,
                    "velocity": 0.2677165354330709,
                    "duration": 0.05288024999998697
                },
                {
                    "name": "D4",
                    "midi": 62,
                    "time": 169.9571235000008,
                    "velocity": 0.2677165354330709,
                    "duration": 0.05288024999998697
                },
                {
                    "name": "F4",
                    "midi": 65,
                    "time": 170.06288400000076,
                    "velocity": 0.2755905511811024,
                    "duration": 0.42304200000000947
                },
                {
                    "name": "C3",
                    "midi": 48,
                    "time": 171.33201000000076,
                    "velocity": 0.2755905511811024,
                    "duration": 0.42304200000000947
                },
                {
                    "name": "E3",
                    "midi": 52,
                    "time": 171.75505200000077,
                    "velocity": 0.2440944881889764,
                    "duration": 0.42304200000000947
                },
                {
                    "name": "G3",
                    "midi": 55,
                    "time": 172.17809400000078,
                    "velocity": 0.2440944881889764,
                    "duration": 0.42304200000000947
                },
                {
                    "name": "C4",
                    "midi": 60,
                    "time": 172.6011360000008,
                    "velocity": 0.2755905511811024,
                    "duration": 0.42304200000000947
                },
                {
                    "name": "C3",
                    "midi": 48,
                    "time": 173.0241780000008,
                    "velocity": 0.2440944881889764,
                    "duration": 0.42304200000000947
                },
                {
                    "name": "A3",
                    "midi": 57,
                    "time": 173.87026200000082,
                    "velocity": 0.2755905511811024,
                    "duration": 0.8460840000000189
                },
                {
                    "name": "F4",
                    "midi": 65,
                    "time": 174.29330400000083,
                    "velocity": 0.25984251968503935,
                    "duration": 0.42304200000000947
                },
                {
                    "name": "C4",
                    "midi": 60,
                    "time": 174.29330400000083,
                    "velocity": 0.25984251968503935,
                    "duration": 0.42304200000000947
                },
                {
                    "name": "B3",
                    "midi": 59,
                    "time": 175.13938800000085,
                    "velocity": 0.2992125984251969,
                    "duration": 0.8460840000000189
                },
                {
                    "name": "D4",
                    "midi": 62,
                    "time": 175.56243000000086,
                    "velocity": 0.2755905511811024,
                    "duration": 0.42304200000000947
                },
                {
                    "name": "G4",
                    "midi": 67,
                    "time": 175.56243000000086,
                    "velocity": 0.2755905511811024,
                    "duration": 0.42304200000000947
                },
                {
                    "name": "C4",
                    "midi": 60,
                    "time": 176.40851400000088,
                    "velocity": 0.3228346456692913,
                    "duration": 0.42304200000000947
                },
                {
                    "name": "A3",
                    "midi": 57,
                    "time": 176.8315560000009,
                    "velocity": 0.29133858267716534,
                    "duration": 0.42304200000000947
                },
                {
                    "name": "C4",
                    "midi": 60,
                    "time": 176.8315560000009,
                    "velocity": 0.29133858267716534,
                    "duration": 0.42304200000000947
                },
                {
                    "name": "D4",
                    "midi": 62,
                    "time": 177.2545980000009,
                    "velocity": 0.2755905511811024,
                    "duration": 0.42304200000000947
                },
                {
                    "name": "F3",
                    "midi": 53,
                    "time": 177.2545980000009,
                    "velocity": 0.2755905511811024,
                    "duration": 0.42304200000000947
                },
                {
                    "name": "G3",
                    "midi": 55,
                    "time": 177.6776400000009,
                    "velocity": 0.3228346456692913,
                    "duration": 0.42304200000000947
                },
                {
                    "name": "B3",
                    "midi": 59,
                    "time": 177.6776400000009,
                    "velocity": 0.3228346456692913,
                    "duration": 0.42304200000000947
                },
                {
                    "name": "C4",
                    "midi": 60,
                    "time": 178.9467660000009,
                    "velocity": 0.30708661417322836,
                    "duration": 0.14101400000001263
                },
                {
                    "name": "E4",
                    "midi": 64,
                    "time": 179.08778000000092,
                    "velocity": 0.2440944881889764,
                    "duration": 0.14101400000001263
                },
                {
                    "name": "G4",
                    "midi": 67,
                    "time": 179.22879400000093,
                    "velocity": 0.2440944881889764,
                    "duration": 0.14101400000001263
                },
                {
                    "name": "C4",
                    "midi": 60,
                    "time": 179.36980800000094,
                    "velocity": 0.30708661417322836,
                    "duration": 0.14101400000001263
                },
                {
                    "name": "E4",
                    "midi": 64,
                    "time": 179.51082200000096,
                    "velocity": 0.25196850393700787,
                    "duration": 0.14101400000001263
                },
                {
                    "name": "G4",
                    "midi": 67,
                    "time": 179.65183600000097,
                    "velocity": 0.25196850393700787,
                    "duration": 0.14101400000001263
                },
                {
                    "name": "C4",
                    "midi": 60,
                    "time": 179.79285000000098,
                    "velocity": 0.31496062992125984,
                    "duration": 0.14101400000001263
                },
                {
                    "name": "E4",
                    "midi": 64,
                    "time": 179.933864000001,
                    "velocity": 0.25196850393700787,
                    "duration": 0.14101400000001263
                },
                {
                    "name": "G4",
                    "midi": 67,
                    "time": 180.074878000001,
                    "velocity": 0.25196850393700787,
                    "duration": 0.14101400000001263
                },
                {
                    "name": "B3",
                    "midi": 59,
                    "time": 180.21589200000102,
                    "velocity": 0.33858267716535434,
                    "duration": 0.14101400000001263
                },
                {
                    "name": "D4",
                    "midi": 62,
                    "time": 180.35690600000103,
                    "velocity": 0.28346456692913385,
                    "duration": 0.14101400000001263
                },
                {
                    "name": "G4",
                    "midi": 67,
                    "time": 180.49792000000105,
                    "velocity": 0.2755905511811024,
                    "duration": 0.14101400000001263
                },
                {
                    "name": "B3",
                    "midi": 59,
                    "time": 180.63893400000106,
                    "velocity": 0.31496062992125984,
                    "duration": 0.14101400000001263
                },
                {
                    "name": "D4",
                    "midi": 62,
                    "time": 180.77994800000107,
                    "velocity": 0.25984251968503935,
                    "duration": 0.14101400000001263
                },
                {
                    "name": "G4",
                    "midi": 67,
                    "time": 180.92096200000108,
                    "velocity": 0.2283464566929134,
                    "duration": 0.14101400000001263
                },
                {
                    "name": "B3",
                    "midi": 59,
                    "time": 181.0619760000011,
                    "velocity": 0.29133858267716534,
                    "duration": 0.14101400000001263
                },
                {
                    "name": "F4",
                    "midi": 65,
                    "time": 181.2029900000011,
                    "velocity": 0.2283464566929134,
                    "duration": 0.14101400000001263
                },
                {
                    "name": "G4",
                    "midi": 67,
                    "time": 181.34400400000112,
                    "velocity": 0.2283464566929134,
                    "duration": 0.14101400000001263
                },
                {
                    "name": "E4",
                    "midi": 64,
                    "time": 181.48501800000113,
                    "velocity": 0.2755905511811024,
                    "duration": 0.42304200000000947
                },
                {
                    "name": "C4",
                    "midi": 60,
                    "time": 181.48501800000113,
                    "velocity": 0.2283464566929134,
                    "duration": 0.42304200000000947
                },
                {
                    "name": "E3",
                    "midi": 52,
                    "time": 181.90806000000114,
                    "velocity": 0.2440944881889764,
                    "duration": 0.42304200000000947
                },
                {
                    "name": "G3",
                    "midi": 55,
                    "time": 182.33110200000115,
                    "velocity": 0.2440944881889764,
                    "duration": 0.42304200000000947
                },
                {
                    "name": "C4",
                    "midi": 60,
                    "time": 182.75414400000116,
                    "velocity": 0.2755905511811024,
                    "duration": 0.42304200000000947
                },
                {
                    "name": "G3",
                    "midi": 55,
                    "time": 183.17718600000117,
                    "velocity": 0.2440944881889764,
                    "duration": 0.42304200000000947
                },
                {
                    "name": "C3",
                    "midi": 48,
                    "time": 183.60022800000118,
                    "velocity": 0.2440944881889764,
                    "duration": 0.42304200000000947
                },
                {
                    "name": "A3",
                    "midi": 57,
                    "time": 184.0232700000012,
                    "velocity": 0.2755905511811024,
                    "duration": 0.21152100000000473
                },
                {
                    "name": "C4",
                    "midi": 60,
                    "time": 184.2347910000012,
                    "velocity": 0.2440944881889764,
                    "duration": 0.21152100000000473
                },
                {
                    "name": "F4",
                    "midi": 65,
                    "time": 184.4463120000012,
                    "velocity": 0.25196850393700787,
                    "duration": 0.21152100000000473
                },
                {
                    "name": "C4",
                    "midi": 60,
                    "time": 184.6578330000012,
                    "velocity": 0.25984251968503935,
                    "duration": 0.21152100000000473
                },
                {
                    "name": "A3",
                    "midi": 57,
                    "time": 184.8693540000012,
                    "velocity": 0.2755905511811024,
                    "duration": 0.21152100000000473
                },
                {
                    "name": "C4",
                    "midi": 60,
                    "time": 185.0808750000012,
                    "velocity": 0.2992125984251969,
                    "duration": 0.21152100000000473
                },
                {
                    "name": "B3",
                    "midi": 59,
                    "time": 185.29239600000122,
                    "velocity": 0.31496062992125984,
                    "duration": 0.21152100000000473
                },
                {
                    "name": "D4",
                    "midi": 62,
                    "time": 185.50391700000122,
                    "velocity": 0.2755905511811024,
                    "duration": 0.21152100000000473
                },
                {
                    "name": "G4",
                    "midi": 67,
                    "time": 185.71543800000123,
                    "velocity": 0.33070866141732286,
                    "duration": 0.21152100000000473
                },
                {
                    "name": "D4",
                    "midi": 62,
                    "time": 185.92695900000123,
                    "velocity": 0.2755905511811024,
                    "duration": 0.21152100000000473
                },
                {
                    "name": "B3",
                    "midi": 59,
                    "time": 186.13848000000124,
                    "velocity": 0.2755905511811024,
                    "duration": 0.21152100000000473
                },
                {
                    "name": "D4",
                    "midi": 62,
                    "time": 186.35000100000124,
                    "velocity": 0.2677165354330709,
                    "duration": 0.21152100000000473
                },
                {
                    "name": "C4",
                    "midi": 60,
                    "time": 186.56152200000125,
                    "velocity": 0.3228346456692913,
                    "duration": 0.42304200000000947
                },
                {
                    "name": "D4",
                    "midi": 62,
                    "time": 186.98456400000126,
                    "velocity": 0.29133858267716534,
                    "duration": 0.42304200000000947
                },
                {
                    "name": "F3",
                    "midi": 53,
                    "time": 186.98456400000126,
                    "velocity": 0.29133858267716534,
                    "duration": 0.42304200000000947
                },
                {
                    "name": "G3",
                    "midi": 55,
                    "time": 187.40760600000127,
                    "velocity": 0.2755905511811024,
                    "duration": 0.42304200000000947
                },
                {
                    "name": "F4",
                    "midi": 65,
                    "time": 187.40760600000127,
                    "velocity": 0.2755905511811024,
                    "duration": 0.42304200000000947
                },
                {
                    "name": "E4",
                    "midi": 64,
                    "time": 187.83064800000128,
                    "velocity": 0.29133858267716534,
                    "duration": 0.42304200000000947
                },
                {
                    "name": "C4",
                    "midi": 60,
                    "time": 187.83064800000128,
                    "velocity": 0.25196850393700787,
                    "duration": 0.42304200000000947
                },
                {
                    "name": "E4",
                    "midi": 64,
                    "time": 188.25369000000128,
                    "velocity": 0.31496062992125984,
                    "duration": 0.42304200000000947
                },
                {
                    "name": "C4",
                    "midi": 60,
                    "time": 188.6767320000013,
                    "velocity": 0.29133858267716534,
                    "duration": 0.42304200000000947
                },
                {
                    "name": "D4",
                    "midi": 62,
                    "time": 189.0997740000013,
                    "velocity": 0.31496062992125984,
                    "duration": 0.42304200000000947
                },
                {
                    "name": "B3",
                    "midi": 59,
                    "time": 189.5228160000013,
                    "velocity": 0.2992125984251969,
                    "duration": 0.42304200000000947
                },
                {
                    "name": "G3",
                    "midi": 55,
                    "time": 189.94585800000132,
                    "velocity": 0.2992125984251969,
                    "duration": 0.42304200000000947
                },
                {
                    "name": "C3",
                    "midi": 48,
                    "time": 190.36890000000133,
                    "velocity": 0.31496062992125984,
                    "duration": 0.42304200000000947
                },
                {
                    "name": "D#3",
                    "midi": 51,
                    "time": 190.79194200000134,
                    "velocity": 0.31496062992125984,
                    "duration": 0.42304200000000947
                },
                {
                    "name": "C3",
                    "midi": 48,
                    "time": 191.21498400000135,
                    "velocity": 0.29133858267716534,
                    "duration": 0.42304200000000947
                },
                {
                    "name": "D3",
                    "midi": 50,
                    "time": 191.63802600000136,
                    "velocity": 0.31496062992125984,
                    "duration": 0.42304200000000947
                },
                {
                    "name": "B2",
                    "midi": 47,
                    "time": 192.06106800000137,
                    "velocity": 0.2992125984251969,
                    "duration": 0.42304200000000947
                },
                {
                    "name": "G2",
                    "midi": 43,
                    "time": 192.48411000000138,
                    "velocity": 0.2992125984251969,
                    "duration": 0.42304200000000947
                },
                {
                    "name": "C3",
                    "midi": 48,
                    "time": 192.9071520000014,
                    "velocity": 0.5433070866141733,
                    "duration": 0.42304200000000947
                },
                {
                    "name": "C2",
                    "midi": 36,
                    "time": 192.9071520000014,
                    "velocity": 0.4566929133858268,
                    "duration": 0.42304200000000947
                },
                {
                    "name": "D#3",
                    "midi": 51,
                    "time": 193.3301940000014,
                    "velocity": 0.31496062992125984,
                    "duration": 0.42304200000000947
                },
                {
                    "name": "G3",
                    "midi": 55,
                    "time": 193.7532360000014,
                    "velocity": 0.31496062992125984,
                    "duration": 0.42304200000000947
                },
                {
                    "name": "F2",
                    "midi": 41,
                    "time": 194.17627800000142,
                    "velocity": 0.4566929133858268,
                    "duration": 0.42304200000000947
                },
                {
                    "name": "F3",
                    "midi": 53,
                    "time": 194.17627800000142,
                    "velocity": 0.5433070866141733,
                    "duration": 0.42304200000000947
                },
                {
                    "name": "G#3",
                    "midi": 56,
                    "time": 194.59932000000143,
                    "velocity": 0.31496062992125984,
                    "duration": 0.42304200000000947
                },
                {
                    "name": "C4",
                    "midi": 60,
                    "time": 195.02236200000144,
                    "velocity": 0.31496062992125984,
                    "duration": 0.42304200000000947
                },
                {
                    "name": "A#1",
                    "midi": 34,
                    "time": 195.44540400000145,
                    "velocity": 0.4566929133858268,
                    "duration": 0.42304200000000947
                },
                {
                    "name": "A#2",
                    "midi": 46,
                    "time": 195.44540400000145,
                    "velocity": 0.5433070866141733,
                    "duration": 0.42304200000000947
                },
                {
                    "name": "D3",
                    "midi": 50,
                    "time": 195.86844600000146,
                    "velocity": 0.31496062992125984,
                    "duration": 0.42304200000000947
                },
                {
                    "name": "F3",
                    "midi": 53,
                    "time": 196.29148800000146,
                    "velocity": 0.31496062992125984,
                    "duration": 0.42304200000000947
                },
                {
                    "name": "D#3",
                    "midi": 51,
                    "time": 196.71453000000147,
                    "velocity": 0.5433070866141733,
                    "duration": 0.42304200000000947
                },
                {
                    "name": "D#2",
                    "midi": 39,
                    "time": 196.71453000000147,
                    "velocity": 0.4566929133858268,
                    "duration": 0.42304200000000947
                },
                {
                    "name": "G3",
                    "midi": 55,
                    "time": 197.13757200000148,
                    "velocity": 0.31496062992125984,
                    "duration": 0.42304200000000947
                },
                {
                    "name": "A#3",
                    "midi": 58,
                    "time": 197.5606140000015,
                    "velocity": 0.31496062992125984,
                    "duration": 0.42304200000000947
                },
                {
                    "name": "G#2",
                    "midi": 44,
                    "time": 197.9836560000015,
                    "velocity": 0.5433070866141733,
                    "duration": 0.42304200000000947
                },
                {
                    "name": "G#1",
                    "midi": 32,
                    "time": 197.9836560000015,
                    "velocity": 0.4566929133858268,
                    "duration": 0.42304200000000947
                },
                {
                    "name": "G#3",
                    "midi": 56,
                    "time": 198.4066980000015,
                    "velocity": 0.31496062992125984,
                    "duration": 0.42304200000000947
                },
                {
                    "name": "D2",
                    "midi": 38,
                    "time": 198.82974000000152,
                    "velocity": 0.4566929133858268,
                    "duration": 0.42304200000000947
                },
                {
                    "name": "D3",
                    "midi": 50,
                    "time": 198.82974000000152,
                    "velocity": 0.5433070866141733,
                    "duration": 0.42304200000000947
                },
                {
                    "name": "D4",
                    "midi": 62,
                    "time": 199.25278200000153,
                    "velocity": 0.31496062992125984,
                    "duration": 0.42304200000000947
                },
                {
                    "name": "G2",
                    "midi": 43,
                    "time": 199.67582400000154,
                    "velocity": 0.5433070866141733,
                    "duration": 0.42304200000000947
                },
                {
                    "name": "G1",
                    "midi": 31,
                    "time": 199.67582400000154,
                    "velocity": 0.4566929133858268,
                    "duration": 0.42304200000000947
                },
                {
                    "name": "G3",
                    "midi": 55,
                    "time": 200.09886600000155,
                    "velocity": 0.31496062992125984,
                    "duration": 0.42304200000000947
                },
                {
                    "name": "G#3",
                    "midi": 56,
                    "time": 200.52190800000156,
                    "velocity": 0.3543307086614173,
                    "duration": 0.42304200000000947
                },
                {
                    "name": "G3",
                    "midi": 55,
                    "time": 200.94495000000157,
                    "velocity": 0.30708661417322836,
                    "duration": 0.42304200000000947
                },
                {
                    "name": "F#3",
                    "midi": 54,
                    "time": 201.36799200000158,
                    "velocity": 0.30708661417322836,
                    "duration": 0.42304200000000947
                },
                {
                    "name": "G3",
                    "midi": 55,
                    "time": 201.7910340000016,
                    "velocity": 0.3464566929133858,
                    "duration": 0.42304200000000947
                },
                {
                    "name": "F#3",
                    "midi": 54,
                    "time": 202.84863900000158,
                    "velocity": 0.3228346456692913,
                    "duration": 0.21152100000000473
                },
                {
                    "name": "G3",
                    "midi": 55,
                    "time": 203.0601600000016,
                    "velocity": 0.3464566929133858,
                    "duration": 0.42304200000000947
                },
                {
                    "name": "F#3",
                    "midi": 54,
                    "time": 204.1177650000016,
                    "velocity": 0.25196850393700787,
                    "duration": 0.2203343749999931
                },
                {
                    "name": "G3",
                    "midi": 55,
                    "time": 204.32928600000162,
                    "velocity": 0.30708661417322836,
                    "duration": 0.22033437499996467
                },
                {
                    "name": "F#3",
                    "midi": 54,
                    "time": 204.5408070000016,
                    "velocity": 0.2755905511811024,
                    "duration": 0.22033437499996467
                },
                {
                    "name": "G3",
                    "midi": 55,
                    "time": 204.75232800000157,
                    "velocity": 0.30708661417322836,
                    "duration": 0.22033437499996467
                },
                {
                    "name": "F#3",
                    "midi": 54,
                    "time": 204.96384900000155,
                    "velocity": 0.2440944881889764,
                    "duration": 0.22033437499996467
                },
                {
                    "name": "G3",
                    "midi": 55,
                    "time": 205.17537000000152,
                    "velocity": 0.30708661417322836,
                    "duration": 0.22033437499996467
                },
                {
                    "name": "F#3",
                    "midi": 54,
                    "time": 205.3868910000015,
                    "velocity": 0.25196850393700787,
                    "duration": 0.22033437499996467
                },
                {
                    "name": "G3",
                    "midi": 55,
                    "time": 205.59841200000147,
                    "velocity": 0.2992125984251969,
                    "duration": 0.42304199999998104
                },
                {
                    "name": "F3",
                    "midi": 53,
                    "time": 206.86753800000145,
                    "velocity": 0.25984251968503935,
                    "duration": 0.42304200000000947
                },
                {
                    "name": "F3",
                    "midi": 53,
                    "time": 207.29058000000146,
                    "velocity": 0.2440944881889764,
                    "duration": 0.42304200000000947
                },
                {
                    "name": "F3",
                    "midi": 53,
                    "time": 207.71362200000146,
                    "velocity": 0.2440944881889764,
                    "duration": 0.42304200000000947
                },
                {
                    "name": "F3",
                    "midi": 53,
                    "time": 208.13666400000147,
                    "velocity": 0.25984251968503935,
                    "duration": 0.8460839999999905
                },
                {
                    "name": "C3",
                    "midi": 48,
                    "time": 208.98274800000146,
                    "velocity": 0.2440944881889764,
                    "duration": 0.42304200000000947
                },
                {
                    "name": "G2",
                    "midi": 43,
                    "time": 209.40579000000147,
                    "velocity": 0.25984251968503935,
                    "duration": 0.42304200000000947
                },
                {
                    "name": "G2",
                    "midi": 43,
                    "time": 209.82883200000148,
                    "velocity": 0.23622047244094488,
                    "duration": 0.42304200000000947
                },
                {
                    "name": "G2",
                    "midi": 43,
                    "time": 210.2518740000015,
                    "velocity": 0.23622047244094488,
                    "duration": 0.42304200000000947
                },
                {
                    "name": "G2",
                    "midi": 43,
                    "time": 210.6749160000015,
                    "velocity": 0.25984251968503935,
                    "duration": 0.8460839999999905
                },
                {
                    "name": "A2",
                    "midi": 45,
                    "time": 211.5210000000015,
                    "velocity": 0.23622047244094488,
                    "duration": 0.42304200000000947
                },
                {
                    "name": "F2",
                    "midi": 41,
                    "time": 211.9440420000015,
                    "velocity": 0.25984251968503935,
                    "duration": 0.42304200000000947
                },
                {
                    "name": "G2",
                    "midi": 43,
                    "time": 212.3670840000015,
                    "velocity": 0.25196850393700787,
                    "duration": 0.42304200000000947
                },
                {
                    "name": "G2",
                    "midi": 43,
                    "time": 212.79012600000152,
                    "velocity": 0.25196850393700787,
                    "duration": 0.42304200000000947
                },
                {
                    "name": "C3",
                    "midi": 48,
                    "time": 213.21316800000153,
                    "velocity": 0.25984251968503935,
                    "duration": 0.42304200000000947
                },
                {
                    "name": "C4",
                    "midi": 60,
                    "time": 214.48229400000153,
                    "velocity": 0.2204724409448819,
                    "duration": 0.42304200000000947
                },
                {
                    "name": "F4",
                    "midi": 65,
                    "time": 214.48229400000153,
                    "velocity": 0.25984251968503935,
                    "duration": 0.42304200000000947
                },
                {
                    "name": "C4",
                    "midi": 60,
                    "time": 214.90533600000154,
                    "velocity": 0.2047244094488189,
                    "duration": 0.42304200000000947
                },
                {
                    "name": "F4",
                    "midi": 65,
                    "time": 214.90533600000154,
                    "velocity": 0.2440944881889764,
                    "duration": 0.42304200000000947
                },
                {
                    "name": "F4",
                    "midi": 65,
                    "time": 215.32837800000155,
                    "velocity": 0.2440944881889764,
                    "duration": 0.42304200000000947
                },
                {
                    "name": "C4",
                    "midi": 60,
                    "time": 215.32837800000155,
                    "velocity": 0.2047244094488189,
                    "duration": 0.42304200000000947
                },
                {
                    "name": "C4",
                    "midi": 60,
                    "time": 215.75142000000156,
                    "velocity": 0.2204724409448819,
                    "duration": 1.269126
                },
                {
                    "name": "F4",
                    "midi": 65,
                    "time": 215.75142000000156,
                    "velocity": 0.25984251968503935,
                    "duration": 0.8460839999999905
                },
                {
                    "name": "E4",
                    "midi": 64,
                    "time": 216.59750400000155,
                    "velocity": 0.2440944881889764,
                    "duration": 0.42304200000000947
                },
                {
                    "name": "G3",
                    "midi": 55,
                    "time": 217.02054600000156,
                    "velocity": 0.2204724409448819,
                    "duration": 0.42304200000000947
                },
                {
                    "name": "D4",
                    "midi": 62,
                    "time": 217.02054600000156,
                    "velocity": 0.25984251968503935,
                    "duration": 0.42304200000000947
                },
                {
                    "name": "G3",
                    "midi": 55,
                    "time": 217.44358800000157,
                    "velocity": 0.1968503937007874,
                    "duration": 0.42304200000000947
                },
                {
                    "name": "D4",
                    "midi": 62,
                    "time": 217.44358800000157,
                    "velocity": 0.23622047244094488,
                    "duration": 0.42304200000000947
                },
                {
                    "name": "G3",
                    "midi": 55,
                    "time": 217.86663000000158,
                    "velocity": 0.1968503937007874,
                    "duration": 0.42304200000000947
                },
                {
                    "name": "D4",
                    "midi": 62,
                    "time": 217.86663000000158,
                    "velocity": 0.23622047244094488,
                    "duration": 0.42304200000000947
                },
                {
                    "name": "G3",
                    "midi": 55,
                    "time": 218.2896720000016,
                    "velocity": 0.2204724409448819,
                    "duration": 0.8460839999999905
                },
                {
                    "name": "D4",
                    "midi": 62,
                    "time": 218.2896720000016,
                    "velocity": 0.25984251968503935,
                    "duration": 0.8460839999999905
                },
                {
                    "name": "C4",
                    "midi": 60,
                    "time": 219.13575600000158,
                    "velocity": 0.23622047244094488,
                    "duration": 0.42304200000000947
                },
                {
                    "name": "A3",
                    "midi": 57,
                    "time": 219.13575600000158,
                    "velocity": 0.1968503937007874,
                    "duration": 0.42304200000000947
                },
                {
                    "name": "F3",
                    "midi": 53,
                    "time": 219.5587980000016,
                    "velocity": 0.25984251968503935,
                    "duration": 0.42304200000000947
                },
                {
                    "name": "G3",
                    "midi": 55,
                    "time": 219.9818400000016,
                    "velocity": 0.25196850393700787,
                    "duration": 0.42304200000000947
                },
                {
                    "name": "F3",
                    "midi": 53,
                    "time": 220.4048820000016,
                    "velocity": 0.25196850393700787,
                    "duration": 0.42304200000000947
                },
                {
                    "name": "E2",
                    "midi": 40,
                    "time": 220.82792400000162,
                    "velocity": 0.4566929133858268,
                    "duration": 0.21152100000000473
                },
                {
                    "name": "E3",
                    "midi": 52,
                    "time": 220.82792400000162,
                    "velocity": 0.5433070866141733,
                    "duration": 0.21152100000000473
                },
                {
                    "name": "G#3",
                    "midi": 56,
                    "time": 221.25096600000163,
                    "velocity": 0.31496062992125984,
                    "duration": 0.10576050000000237
                },
                {
                    "name": "A3",
                    "midi": 57,
                    "time": 221.67400800000163,
                    "velocity": 0.31496062992125984,
                    "duration": 0.10576050000000237
                },
                {
                    "name": "F3",
                    "midi": 53,
                    "time": 222.09705000000164,
                    "velocity": 0.31496062992125984,
                    "duration": 0.10576050000000237
                },
                {
                    "name": "G3",
                    "midi": 55,
                    "time": 222.52009200000165,
                    "velocity": 0.31496062992125984,
                    "duration": 0.10576050000000237
                },
                {
                    "name": "F3",
                    "midi": 53,
                    "time": 222.94313400000166,
                    "velocity": 0.31496062992125984,
                    "duration": 0.10576050000000237
                },
                {
                    "name": "E2",
                    "midi": 40,
                    "time": 223.36617600000167,
                    "velocity": 0.5905511811023622,
                    "duration": 0.10576050000000237
                },
                {
                    "name": "E3",
                    "midi": 52,
                    "time": 223.36617600000167,
                    "velocity": 0.5905511811023622,
                    "duration": 0.10576050000000237
                },
                {
                    "name": "G#2",
                    "midi": 44,
                    "time": 223.78921800000168,
                    "velocity": 0.5748031496062992,
                    "duration": 0.10576050000000237
                },
                {
                    "name": "G#3",
                    "midi": 56,
                    "time": 223.78921800000168,
                    "velocity": 0.5748031496062992,
                    "duration": 0.10576050000000237
                },
                {
                    "name": "A3",
                    "midi": 57,
                    "time": 224.2122600000017,
                    "velocity": 0.5748031496062992,
                    "duration": 0.10576050000000237
                },
                {
                    "name": "A2",
                    "midi": 45,
                    "time": 224.2122600000017,
                    "velocity": 0.5748031496062992,
                    "duration": 0.10576050000000237
                },
                {
                    "name": "F2",
                    "midi": 41,
                    "time": 224.6353020000017,
                    "velocity": 0.5905511811023622,
                    "duration": 0.10576050000000237
                },
                {
                    "name": "F3",
                    "midi": 53,
                    "time": 224.6353020000017,
                    "velocity": 0.5905511811023622,
                    "duration": 0.10576050000000237
                },
                {
                    "name": "G3",
                    "midi": 55,
                    "time": 225.0583440000017,
                    "velocity": 0.5748031496062992,
                    "duration": 0.10576050000000237
                },
                {
                    "name": "G2",
                    "midi": 43,
                    "time": 225.0583440000017,
                    "velocity": 0.5748031496062992,
                    "duration": 0.10576050000000237
                },
                {
                    "name": "G3",
                    "midi": 55,
                    "time": 225.48138600000172,
                    "velocity": 0.5748031496062992,
                    "duration": 0.10576050000000237
                },
                {
                    "name": "G2",
                    "midi": 43,
                    "time": 225.48138600000172,
                    "velocity": 0.5748031496062992,
                    "duration": 0.10576050000000237
                },
                {
                    "name": "C3",
                    "midi": 48,
                    "time": 225.90442800000173,
                    "velocity": 0.5039370078740157,
                    "duration": 0.10576050000000237
                },
                {
                    "name": "E3",
                    "midi": 52,
                    "time": 226.01018850000173,
                    "velocity": 0.4645669291338583,
                    "duration": 0.10576050000000237
                },
                {
                    "name": "G3",
                    "midi": 55,
                    "time": 226.11594900000173,
                    "velocity": 0.4645669291338583,
                    "duration": 0.10576050000000237
                },
                {
                    "name": "C4",
                    "midi": 60,
                    "time": 226.22170950000174,
                    "velocity": 0.4645669291338583,
                    "duration": 0.10576050000000237
                },
                {
                    "name": "C3",
                    "midi": 48,
                    "time": 226.32747000000174,
                    "velocity": 0.49606299212598426,
                    "duration": 0.10576050000000237
                },
                {
                    "name": "E3",
                    "midi": 52,
                    "time": 226.43323050000174,
                    "velocity": 0.4566929133858268,
                    "duration": 0.10576050000000237
                },
                {
                    "name": "G3",
                    "midi": 55,
                    "time": 226.53899100000174,
                    "velocity": 0.4566929133858268,
                    "duration": 0.10576050000000237
                },
                {
                    "name": "C4",
                    "midi": 60,
                    "time": 226.64475150000175,
                    "velocity": 0.4566929133858268,
                    "duration": 0.10576050000000237
                },
                {
                    "name": "C3",
                    "midi": 48,
                    "time": 226.75051200000175,
                    "velocity": 0.49606299212598426,
                    "duration": 0.10576050000000237
                },
                {
                    "name": "E3",
                    "midi": 52,
                    "time": 226.85627250000175,
                    "velocity": 0.44881889763779526,
                    "duration": 0.10576050000000237
                },
                {
                    "name": "G3",
                    "midi": 55,
                    "time": 226.96203300000175,
                    "velocity": 0.4566929133858268,
                    "duration": 0.10576050000000237
                },
                {
                    "name": "C4",
                    "midi": 60,
                    "time": 227.06779350000176,
                    "velocity": 0.4566929133858268,
                    "duration": 0.10576050000000237
                },
                {
                    "name": "C3",
                    "midi": 48,
                    "time": 227.17355400000176,
                    "velocity": 0.49606299212598426,
                    "duration": 0.10576050000000237
                },
                {
                    "name": "E3",
                    "midi": 52,
                    "time": 227.27931450000176,
                    "velocity": 0.4566929133858268,
                    "duration": 0.10576050000000237
                },
                {
                    "name": "G3",
                    "midi": 55,
                    "time": 227.38507500000176,
                    "velocity": 0.4645669291338583,
                    "duration": 0.10576050000000237
                },
                {
                    "name": "C4",
                    "midi": 60,
                    "time": 227.49083550000177,
                    "velocity": 0.4645669291338583,
                    "duration": 0.10576050000000237
                },
                {
                    "name": "C3",
                    "midi": 48,
                    "time": 227.59659600000177,
                    "velocity": 0.49606299212598426,
                    "duration": 0.10576050000000237
                },
                {
                    "name": "E3",
                    "midi": 52,
                    "time": 227.70235650000177,
                    "velocity": 0.44881889763779526,
                    "duration": 0.10576050000000237
                },
                {
                    "name": "G3",
                    "midi": 55,
                    "time": 227.80811700000177,
                    "velocity": 0.44881889763779526,
                    "duration": 0.10576050000000237
                },
                {
                    "name": "C4",
                    "midi": 60,
                    "time": 227.91387750000177,
                    "velocity": 0.44881889763779526,
                    "duration": 0.10576050000000237
                },
                {
                    "name": "C3",
                    "midi": 48,
                    "time": 228.01963800000178,
                    "velocity": 0.49606299212598426,
                    "duration": 0.10576050000000237
                },
                {
                    "name": "F3",
                    "midi": 53,
                    "time": 228.12539850000178,
                    "velocity": 0.44881889763779526,
                    "duration": 0.10576050000000237
                },
                {
                    "name": "G3",
                    "midi": 55,
                    "time": 228.23115900000178,
                    "velocity": 0.44881889763779526,
                    "duration": 0.10576050000000237
                },
                {
                    "name": "D4",
                    "midi": 62,
                    "time": 228.33691950000178,
                    "velocity": 0.44881889763779526,
                    "duration": 0.10576050000000237
                },
                {
                    "name": "C3",
                    "midi": 48,
                    "time": 228.4426800000018,
                    "velocity": 0.49606299212598426,
                    "duration": 0.10576050000000237
                },
                {
                    "name": "E3",
                    "midi": 52,
                    "time": 228.5484405000018,
                    "velocity": 0.44881889763779526,
                    "duration": 0.10576050000000237
                },
                {
                    "name": "G3",
                    "midi": 55,
                    "time": 228.6542010000018,
                    "velocity": 0.44881889763779526,
                    "duration": 0.10576050000000237
                },
                {
                    "name": "C4",
                    "midi": 60,
                    "time": 228.7599615000018,
                    "velocity": 0.44881889763779526,
                    "duration": 0.10576050000000237
                },
                {
                    "name": "C3",
                    "midi": 48,
                    "time": 228.8657220000018,
                    "velocity": 0.49606299212598426,
                    "duration": 0.10576050000000237
                },
                {
                    "name": "E3",
                    "midi": 52,
                    "time": 228.9714825000018,
                    "velocity": 0.44881889763779526,
                    "duration": 0.10576050000000237
                },
                {
                    "name": "G3",
                    "midi": 55,
                    "time": 229.0772430000018,
                    "velocity": 0.44881889763779526,
                    "duration": 0.10576050000000237
                },
                {
                    "name": "C4",
                    "midi": 60,
                    "time": 229.1830035000018,
                    "velocity": 0.44881889763779526,
                    "duration": 0.10576050000000237
                },
                {
                    "name": "C3",
                    "midi": 48,
                    "time": 229.2887640000018,
                    "velocity": 0.49606299212598426,
                    "duration": 0.10576050000000237
                },
                {
                    "name": "E3",
                    "midi": 52,
                    "time": 229.3945245000018,
                    "velocity": 0.44881889763779526,
                    "duration": 0.10576050000000237
                },
                {
                    "name": "G3",
                    "midi": 55,
                    "time": 229.5002850000018,
                    "velocity": 0.4566929133858268,
                    "duration": 0.10576050000000237
                },
                {
                    "name": "C4",
                    "midi": 60,
                    "time": 229.6060455000018,
                    "velocity": 0.4566929133858268,
                    "duration": 0.10576050000000237
                },
                {
                    "name": "C3",
                    "midi": 48,
                    "time": 229.71180600000181,
                    "velocity": 0.49606299212598426,
                    "duration": 0.10576050000000237
                },
                {
                    "name": "E3",
                    "midi": 52,
                    "time": 229.81756650000182,
                    "velocity": 0.4566929133858268,
                    "duration": 0.10576050000000237
                },
                {
                    "name": "G3",
                    "midi": 55,
                    "time": 229.92332700000182,
                    "velocity": 0.4645669291338583,
                    "duration": 0.10576050000000237
                },
                {
                    "name": "C4",
                    "midi": 60,
                    "time": 230.02908750000182,
                    "velocity": 0.4645669291338583,
                    "duration": 0.10576050000000237
                },
                {
                    "name": "C3",
                    "midi": 48,
                    "time": 230.13484800000182,
                    "velocity": 0.49606299212598426,
                    "duration": 0.10576050000000237
                },
                {
                    "name": "E3",
                    "midi": 52,
                    "time": 230.24060850000183,
                    "velocity": 0.44881889763779526,
                    "duration": 0.10576050000000237
                },
                {
                    "name": "G3",
                    "midi": 55,
                    "time": 230.34636900000183,
                    "velocity": 0.44881889763779526,
                    "duration": 0.10576050000000237
                },
                {
                    "name": "C4",
                    "midi": 60,
                    "time": 230.45212950000183,
                    "velocity": 0.44881889763779526,
                    "duration": 0.10576050000000237
                },
                {
                    "name": "C3",
                    "midi": 48,
                    "time": 230.55789000000183,
                    "velocity": 0.49606299212598426,
                    "duration": 0.10576050000000237
                },
                {
                    "name": "F3",
                    "midi": 53,
                    "time": 230.66365050000184,
                    "velocity": 0.44881889763779526,
                    "duration": 0.10576050000000237
                },
                {
                    "name": "G3",
                    "midi": 55,
                    "time": 230.76941100000184,
                    "velocity": 0.44881889763779526,
                    "duration": 0.10576050000000237
                },
                {
                    "name": "D4",
                    "midi": 62,
                    "time": 230.87517150000184,
                    "velocity": 0.44881889763779526,
                    "duration": 0.10576050000000237
                },
                {
                    "name": "E3",
                    "midi": 52,
                    "time": 230.98093200000184,
                    "velocity": 0.49606299212598426,
                    "duration": 0.10576050000000237
                },
                {
                    "name": "C3",
                    "midi": 48,
                    "time": 230.98093200000184,
                    "velocity": 0.49606299212598426,
                    "duration": 0.10576050000000237
                },
                {
                    "name": "G3",
                    "midi": 55,
                    "time": 230.98093200000184,
                    "velocity": 0.49606299212598426,
                    "duration": 0.10576050000000237
                },
                {
                    "name": "C4",
                    "midi": 60,
                    "time": 230.98093200000184,
                    "velocity": 0.49606299212598426,
                    "duration": 0.10576050000000237
                },
                {
                    "name": "E3",
                    "midi": 52,
                    "time": 231.40397400000185,
                    "velocity": 0.4566929133858268,
                    "duration": 0.6345629999999858
                },
                {
                    "name": "E4",
                    "midi": 64,
                    "time": 231.40397400000185,
                    "velocity": 0.5433070866141733,
                    "duration": 0.6345629999999858
                },
                {
                    "name": "G#3",
                    "midi": 56,
                    "time": 232.03853700000184,
                    "velocity": 0.49606299212598426,
                    "duration": 0.21152100000000473
                },
                {
                    "name": "G#2",
                    "midi": 44,
                    "time": 232.03853700000184,
                    "velocity": 0.49606299212598426,
                    "duration": 0.21152100000000473
                },
                {
                    "name": "A2",
                    "midi": 45,
                    "time": 232.25005800000184,
                    "velocity": 0.49606299212598426,
                    "duration": 0.10576050000000237
                },
                {
                    "name": "A3",
                    "midi": 57,
                    "time": 232.25005800000184,
                    "velocity": 0.49606299212598426,
                    "duration": 0.10576050000000237
                },
                {
                    "name": "C4",
                    "midi": 60,
                    "time": 232.67310000000185,
                    "velocity": 0.5590551181102362,
                    "duration": 0.6345630000000142
                },
                {
                    "name": "C3",
                    "midi": 48,
                    "time": 232.67310000000185,
                    "velocity": 0.47244094488188976,
                    "duration": 0.6345630000000142
                },
                {
                    "name": "E3",
                    "midi": 52,
                    "time": 233.30766300000187,
                    "velocity": 0.49606299212598426,
                    "duration": 0.21152100000000473
                },
                {
                    "name": "F3",
                    "midi": 53,
                    "time": 233.51918400000187,
                    "velocity": 0.4409448818897638,
                    "duration": 0.05288024999998697
                },
                {
                    "name": "G3",
                    "midi": 55,
                    "time": 233.57206425000186,
                    "velocity": 0.4094488188976378,
                    "duration": 0.05288024999998697
                },
                {
                    "name": "F3",
                    "midi": 53,
                    "time": 233.62494450000185,
                    "velocity": 0.4409448818897638,
                    "duration": 0.05288024999998697
                },
                {
                    "name": "G3",
                    "midi": 55,
                    "time": 233.67782475000183,
                    "velocity": 0.4094488188976378,
                    "duration": 0.05288024999998697
                },
                {
                    "name": "F3",
                    "midi": 53,
                    "time": 233.73070500000182,
                    "velocity": 0.4409448818897638,
                    "duration": 0.03525350000001026
                },
                {
                    "name": "G3",
                    "midi": 55,
                    "time": 233.76595850000183,
                    "velocity": 0.4094488188976378,
                    "duration": 0.03525350000001026
                },
                {
                    "name": "F3",
                    "midi": 53,
                    "time": 233.80121200000184,
                    "velocity": 0.4094488188976378,
                    "duration": 0.03525350000001026
                },
                {
                    "name": "E3",
                    "midi": 52,
                    "time": 233.83646550000185,
                    "velocity": 0.4409448818897638,
                    "duration": 0.05288024999998697
                },
                {
                    "name": "D3",
                    "midi": 50,
                    "time": 233.88934575000184,
                    "velocity": 0.4094488188976378,
                    "duration": 0.05288024999998697
                },
                {
                    "name": "G3",
                    "midi": 55,
                    "time": 233.94222600000182,
                    "velocity": 0.49606299212598426,
                    "duration": 0.10576050000000237
                },
                {
                    "name": "G2",
                    "midi": 43,
                    "time": 234.36526800000183,
                    "velocity": 0.4409448818897638,
                    "duration": 0.10576050000000237
                },
                {
                    "name": "G3",
                    "midi": 55,
                    "time": 234.36526800000183,
                    "velocity": 0.5275590551181102,
                    "duration": 0.10576050000000237
                },
                {
                    "name": "C4",
                    "midi": 60,
                    "time": 234.78831000000184,
                    "velocity": 0.5669291338582677,
                    "duration": 0.10576050000000237
                },
                {
                    "name": "C3",
                    "midi": 48,
                    "time": 234.78831000000184,
                    "velocity": 0.47244094488188976,
                    "duration": 0.10576050000000237
                },
                {
                    "name": "C3",
                    "midi": 48,
                    "time": 235.21135200000185,
                    "velocity": 0.5433070866141733,
                    "duration": 0.10576050000000237
                },
                {
                    "name": "C2",
                    "midi": 36,
                    "time": 235.21135200000185,
                    "velocity": 0.4566929133858268,
                    "duration": 0.10576050000000237
                },
                {
                    "name": "E3",
                    "midi": 52,
                    "time": 236.48047800000185,
                    "velocity": 0.36220472440944884,
                    "duration": 0.42304200000000947
                },
                {
                    "name": "C3",
                    "midi": 48,
                    "time": 236.90352000000186,
                    "velocity": 0.33070866141732286,
                    "duration": 0.42304200000000947
                },
                {
                    "name": "G3",
                    "midi": 55,
                    "time": 237.32656200000187,
                    "velocity": 0.36220472440944884,
                    "duration": 1.269126
                },
                {
                    "name": "E3",
                    "midi": 52,
                    "time": 239.01873000000188,
                    "velocity": 0.36220472440944884,
                    "duration": 0.42304200000000947
                },
                {
                    "name": "C3",
                    "midi": 48,
                    "time": 239.4417720000019,
                    "velocity": 0.33070866141732286,
                    "duration": 0.42304200000000947
                },
                {
                    "name": "G3",
                    "midi": 55,
                    "time": 239.8648140000019,
                    "velocity": 0.36220472440944884,
                    "duration": 1.269126
                },
                {
                    "name": "D4",
                    "midi": 62,
                    "time": 241.1339400000019,
                    "velocity": 0.2755905511811024,
                    "duration": 0.42304200000000947
                },
                {
                    "name": "F3",
                    "midi": 53,
                    "time": 241.1339400000019,
                    "velocity": 0.2283464566929134,
                    "duration": 0.42304200000000947
                },
                {
                    "name": "A3",
                    "midi": 57,
                    "time": 241.1339400000019,
                    "velocity": 0.2283464566929134,
                    "duration": 0.42304200000000947
                },
                {
                    "name": "D4",
                    "midi": 62,
                    "time": 242.4030660000019,
                    "velocity": 0.2755905511811024,
                    "duration": 0.42304200000000947
                },
                {
                    "name": "F3",
                    "midi": 53,
                    "time": 242.4030660000019,
                    "velocity": 0.2283464566929134,
                    "duration": 0.42304200000000947
                },
                {
                    "name": "A3",
                    "midi": 57,
                    "time": 242.4030660000019,
                    "velocity": 0.2283464566929134,
                    "duration": 0.42304200000000947
                },
                {
                    "name": "D4",
                    "midi": 62,
                    "time": 243.6721920000019,
                    "velocity": 0.2125984251968504,
                    "duration": 1.269126
                },
                {
                    "name": "G3",
                    "midi": 55,
                    "time": 243.6721920000019,
                    "velocity": 0.2125984251968504,
                    "duration": 1.269126
                },
                {
                    "name": "F4",
                    "midi": 65,
                    "time": 243.6721920000019,
                    "velocity": 0.25196850393700787,
                    "duration": 1.269126
                },
                {
                    "name": "E4",
                    "midi": 64,
                    "time": 244.9413180000019,
                    "velocity": 0.33070866141732286,
                    "duration": 0.42304200000000947
                },
                {
                    "name": "C4",
                    "midi": 60,
                    "time": 244.9413180000019,
                    "velocity": 0.2755905511811024,
                    "duration": 0.42304200000000947
                },
                {
                    "name": "E3",
                    "midi": 52,
                    "time": 246.6334860000019,
                    "velocity": 0.36220472440944884,
                    "duration": 0.42304200000000947
                },
                {
                    "name": "C3",
                    "midi": 48,
                    "time": 247.05652800000192,
                    "velocity": 0.3464566929133858,
                    "duration": 0.42304200000000947
                },
                {
                    "name": "G2",
                    "midi": 43,
                    "time": 247.47957000000193,
                    "velocity": 0.3779527559055118,
                    "duration": 1.269126
                },
                {
                    "name": "G3",
                    "midi": 55,
                    "time": 247.47957000000193,
                    "velocity": 0.3700787401574803,
                    "duration": 1.269126
                },
                {
                    "name": "E3",
                    "midi": 52,
                    "time": 249.17173800000194,
                    "velocity": 0.36220472440944884,
                    "duration": 0.42304200000000947
                },
                {
                    "name": "C3",
                    "midi": 48,
                    "time": 249.59478000000195,
                    "velocity": 0.3464566929133858,
                    "duration": 0.42304200000000947
                },
                {
                    "name": "G2",
                    "midi": 43,
                    "time": 250.01782200000196,
                    "velocity": 0.3779527559055118,
                    "duration": 1.269126
                },
                {
                    "name": "G3",
                    "midi": 55,
                    "time": 250.01782200000196,
                    "velocity": 0.3700787401574803,
                    "duration": 1.269126
                },
                {
                    "name": "A2",
                    "midi": 45,
                    "time": 251.28694800000196,
                    "velocity": 0.2283464566929134,
                    "duration": 0.42304200000000947
                },
                {
                    "name": "F2",
                    "midi": 41,
                    "time": 251.28694800000196,
                    "velocity": 0.2283464566929134,
                    "duration": 0.42304200000000947
                },
                {
                    "name": "D3",
                    "midi": 50,
                    "time": 251.28694800000196,
                    "velocity": 0.2755905511811024,
                    "duration": 0.42304200000000947
                },
                {
                    "name": "A2",
                    "midi": 45,
                    "time": 252.55607400000196,
                    "velocity": 0.2283464566929134,
                    "duration": 0.42304200000000947
                },
                {
                    "name": "F2",
                    "midi": 41,
                    "time": 252.55607400000196,
                    "velocity": 0.2283464566929134,
                    "duration": 0.42304200000000947
                },
                {
                    "name": "D3",
                    "midi": 50,
                    "time": 252.55607400000196,
                    "velocity": 0.2755905511811024,
                    "duration": 0.42304200000000947
                },
                {
                    "name": "F3",
                    "midi": 53,
                    "time": 253.82520000000196,
                    "velocity": 0.28346456692913385,
                    "duration": 0.42304200000000947
                },
                {
                    "name": "D3",
                    "midi": 50,
                    "time": 253.82520000000196,
                    "velocity": 0.23622047244094488,
                    "duration": 0.42304200000000947
                },
                {
                    "name": "G2",
                    "midi": 43,
                    "time": 253.82520000000196,
                    "velocity": 0.23622047244094488,
                    "duration": 0.42304200000000947
                },
                {
                    "name": "C3",
                    "midi": 48,
                    "time": 255.09432600000196,
                    "velocity": 0.25196850393700787,
                    "duration": 0.42304200000000947
                },
                {
                    "name": "E3",
                    "midi": 52,
                    "time": 255.09432600000196,
                    "velocity": 0.29133858267716534,
                    "duration": 0.42304200000000947
                },
                {
                    "name": "E4",
                    "midi": 64,
                    "time": 255.51736800000197,
                    "velocity": 0.31496062992125984,
                    "duration": 0.42304200000000947
                },
                {
                    "name": "C4",
                    "midi": 60,
                    "time": 255.94041000000198,
                    "velocity": 0.29133858267716534,
                    "duration": 0.42304200000000947
                },
                {
                    "name": "D4",
                    "midi": 62,
                    "time": 256.363452000002,
                    "velocity": 0.31496062992125984,
                    "duration": 0.42304200000000947
                },
                {
                    "name": "B3",
                    "midi": 59,
                    "time": 256.786494000002,
                    "velocity": 0.2992125984251969,
                    "duration": 0.42304200000000947
                },
                {
                    "name": "G3",
                    "midi": 55,
                    "time": 257.209536000002,
                    "velocity": 0.2992125984251969,
                    "duration": 0.42304200000000947
                },
                {
                    "name": "C3",
                    "midi": 48,
                    "time": 257.632578000002,
                    "velocity": 0.31496062992125984,
                    "duration": 0.42304200000000947
                },
                {
                    "name": "D#3",
                    "midi": 51,
                    "time": 258.055620000002,
                    "velocity": 0.31496062992125984,
                    "duration": 0.42304200000000947
                },
                {
                    "name": "C3",
                    "midi": 48,
                    "time": 258.47866200000203,
                    "velocity": 0.29133858267716534,
                    "duration": 0.42304200000000947
                },
                {
                    "name": "D3",
                    "midi": 50,
                    "time": 258.90170400000204,
                    "velocity": 0.31496062992125984,
                    "duration": 0.42304200000000947
                },
                {
                    "name": "B2",
                    "midi": 47,
                    "time": 259.32474600000205,
                    "velocity": 0.2992125984251969,
                    "duration": 0.42304200000000947
                },
                {
                    "name": "G2",
                    "midi": 43,
                    "time": 259.74778800000206,
                    "velocity": 0.2992125984251969,
                    "duration": 0.42304200000000947
                },
                {
                    "name": "C3",
                    "midi": 48,
                    "time": 260.17083000000207,
                    "velocity": 0.5433070866141733,
                    "duration": 0.42304200000000947
                },
                {
                    "name": "C2",
                    "midi": 36,
                    "time": 260.17083000000207,
                    "velocity": 0.4566929133858268,
                    "duration": 0.42304200000000947
                },
                {
                    "name": "C4",
                    "midi": 60,
                    "time": 260.5938720000021,
                    "velocity": 0.31496062992125984,
                    "duration": 0.42304200000000947
                },
                {
                    "name": "C3",
                    "midi": 48,
                    "time": 261.0169140000021,
                    "velocity": 0.31496062992125984,
                    "duration": 0.42304200000000947
                },
                {
                    "name": "A2",
                    "midi": 45,
                    "time": 261.4399560000021,
                    "velocity": 0.5433070866141733,
                    "duration": 0.42304200000000947
                },
                {
                    "name": "A1",
                    "midi": 33,
                    "time": 261.4399560000021,
                    "velocity": 0.4566929133858268,
                    "duration": 0.42304200000000947
                },
                {
                    "name": "A3",
                    "midi": 57,
                    "time": 261.8629980000021,
                    "velocity": 0.31496062992125984,
                    "duration": 0.42304200000000947
                },
                {
                    "name": "A2",
                    "midi": 45,
                    "time": 262.2860400000021,
                    "velocity": 0.31496062992125984,
                    "duration": 0.42304200000000947
                },
                {
                    "name": "A#1",
                    "midi": 34,
                    "time": 262.7090820000021,
                    "velocity": 0.4566929133858268,
                    "duration": 0.42304200000000947
                },
                {
                    "name": "A#2",
                    "midi": 46,
                    "time": 262.7090820000021,
                    "velocity": 0.5433070866141733,
                    "duration": 0.42304200000000947
                },
                {
                    "name": "A#3",
                    "midi": 58,
                    "time": 263.13212400000214,
                    "velocity": 0.31496062992125984,
                    "duration": 0.42304200000000947
                },
                {
                    "name": "A#2",
                    "midi": 46,
                    "time": 263.55516600000215,
                    "velocity": 0.31496062992125984,
                    "duration": 0.42304200000000947
                },
                {
                    "name": "F#1",
                    "midi": 30,
                    "time": 263.97820800000216,
                    "velocity": 0.4566929133858268,
                    "duration": 0.42304200000000947
                },
                {
                    "name": "F#2",
                    "midi": 42,
                    "time": 263.97820800000216,
                    "velocity": 0.5433070866141733,
                    "duration": 0.42304200000000947
                },
                {
                    "name": "F#3",
                    "midi": 54,
                    "time": 264.40125000000216,
                    "velocity": 0.31496062992125984,
                    "duration": 0.42304200000000947
                },
                {
                    "name": "F#2",
                    "midi": 42,
                    "time": 264.8242920000022,
                    "velocity": 0.31496062992125984,
                    "duration": 0.42304200000000947
                },
                {
                    "name": "G2",
                    "midi": 43,
                    "time": 265.2473340000022,
                    "velocity": 0.5433070866141733,
                    "duration": 0.42304200000000947
                },
                {
                    "name": "G1",
                    "midi": 31,
                    "time": 265.2473340000022,
                    "velocity": 0.4566929133858268,
                    "duration": 0.42304200000000947
                },
                {
                    "name": "G3",
                    "midi": 55,
                    "time": 265.6703760000022,
                    "velocity": 0.31496062992125984,
                    "duration": 0.42304200000000947
                },
                {
                    "name": "G2",
                    "midi": 43,
                    "time": 266.0934180000022,
                    "velocity": 0.31496062992125984,
                    "duration": 0.42304200000000947
                },
                {
                    "name": "E2",
                    "midi": 40,
                    "time": 266.5164600000022,
                    "velocity": 0.4566929133858268,
                    "duration": 0.42304200000000947
                },
                {
                    "name": "E3",
                    "midi": 52,
                    "time": 266.5164600000022,
                    "velocity": 0.5433070866141733,
                    "duration": 0.42304200000000947
                },
                {
                    "name": "E4",
                    "midi": 64,
                    "time": 266.9395020000022,
                    "velocity": 0.31496062992125984,
                    "duration": 0.42304200000000947
                },
                {
                    "name": "E3",
                    "midi": 52,
                    "time": 267.36254400000223,
                    "velocity": 0.31496062992125984,
                    "duration": 0.42304200000000947
                },
                {
                    "name": "F2",
                    "midi": 41,
                    "time": 267.78558600000224,
                    "velocity": 0.4566929133858268,
                    "duration": 0.42304200000000947
                },
                {
                    "name": "F3",
                    "midi": 53,
                    "time": 267.78558600000224,
                    "velocity": 0.5433070866141733,
                    "duration": 0.42304200000000947
                },
                {
                    "name": "F4",
                    "midi": 65,
                    "time": 268.20862800000225,
                    "velocity": 0.31496062992125984,
                    "duration": 0.42304200000000947
                },
                {
                    "name": "F3",
                    "midi": 53,
                    "time": 268.63167000000226,
                    "velocity": 0.31496062992125984,
                    "duration": 0.42304200000000947
                },
                {
                    "name": "C#2",
                    "midi": 37,
                    "time": 269.05471200000227,
                    "velocity": 0.4566929133858268,
                    "duration": 0.42304200000000947
                },
                {
                    "name": "C#3",
                    "midi": 49,
                    "time": 269.05471200000227,
                    "velocity": 0.5433070866141733,
                    "duration": 0.42304200000000947
                },
                {
                    "name": "C#4",
                    "midi": 61,
                    "time": 269.4777540000023,
                    "velocity": 0.31496062992125984,
                    "duration": 0.42304200000000947
                },
                {
                    "name": "C#3",
                    "midi": 49,
                    "time": 269.9007960000023,
                    "velocity": 0.31496062992125984,
                    "duration": 0.42304200000000947
                },
                {
                    "name": "D3",
                    "midi": 50,
                    "time": 270.3238380000023,
                    "velocity": 0.5433070866141733,
                    "duration": 0.42304200000000947
                },
                {
                    "name": "D2",
                    "midi": 38,
                    "time": 270.3238380000023,
                    "velocity": 0.4566929133858268,
                    "duration": 0.42304200000000947
                },
                {
                    "name": "D4",
                    "midi": 62,
                    "time": 270.7468800000023,
                    "velocity": 0.31496062992125984,
                    "duration": 0.42304200000000947
                },
                {
                    "name": "D3",
                    "midi": 50,
                    "time": 271.1699220000023,
                    "velocity": 0.31496062992125984,
                    "duration": 0.42304200000000947
                },
                {
                    "name": "A#2",
                    "midi": 46,
                    "time": 271.5929640000023,
                    "velocity": 0.5433070866141733,
                    "duration": 0.42304200000000947
                },
                {
                    "name": "A#1",
                    "midi": 34,
                    "time": 271.5929640000023,
                    "velocity": 0.4566929133858268,
                    "duration": 0.42304200000000947
                },
                {
                    "name": "A#3",
                    "midi": 58,
                    "time": 272.01600600000233,
                    "velocity": 0.31496062992125984,
                    "duration": 0.42304200000000947
                },
                {
                    "name": "A#2",
                    "midi": 46,
                    "time": 272.43904800000234,
                    "velocity": 0.31496062992125984,
                    "duration": 0.42304200000000947
                },
                {
                    "name": "A2",
                    "midi": 45,
                    "time": 272.86209000000235,
                    "velocity": 0.3464566929133858,
                    "duration": 0.42304200000000947
                },
                {
                    "name": "G#4",
                    "midi": 68,
                    "time": 273.9196950000024,
                    "velocity": 0.2992125984251969,
                    "duration": 0.21152100000000473
                },
                {
                    "name": "A4",
                    "midi": 69,
                    "time": 274.1312160000024,
                    "velocity": 0.3228346456692913,
                    "duration": 0.42304200000000947
                },
                {
                    "name": "G#3",
                    "midi": 56,
                    "time": 275.1888210000024,
                    "velocity": 0.25196850393700787,
                    "duration": 0.2203343749999931
                },
                {
                    "name": "A3",
                    "midi": 57,
                    "time": 275.4003420000024,
                    "velocity": 0.30708661417322836,
                    "duration": 0.2203343749999931
                },
                {
                    "name": "G#3",
                    "midi": 56,
                    "time": 275.6118630000024,
                    "velocity": 0.2755905511811024,
                    "duration": 0.2203343749999931
                },
                {
                    "name": "A3",
                    "midi": 57,
                    "time": 275.8233840000024,
                    "velocity": 0.30708661417322836,
                    "duration": 0.2203343749999931
                },
                {
                    "name": "G#3",
                    "midi": 56,
                    "time": 276.0349050000024,
                    "velocity": 0.2440944881889764,
                    "duration": 0.2203343749999931
                },
                {
                    "name": "A3",
                    "midi": 57,
                    "time": 276.24642600000243,
                    "velocity": 0.30708661417322836,
                    "duration": 0.2203343749999931
                },
                {
                    "name": "G#3",
                    "midi": 56,
                    "time": 276.45794700000243,
                    "velocity": 0.25196850393700787,
                    "duration": 0.2203343749999931
                },
                {
                    "name": "A3",
                    "midi": 57,
                    "time": 276.66946800000244,
                    "velocity": 0.30708661417322836,
                    "duration": 0.42304200000000947
                },
                {
                    "name": "A3",
                    "midi": 57,
                    "time": 277.93859400000247,
                    "velocity": 0.2440944881889764,
                    "duration": 0.2203343749999931
                },
                {
                    "name": "G#3",
                    "midi": 56,
                    "time": 278.1501150000025,
                    "velocity": 0.2204724409448819,
                    "duration": 0.2203343749999931
                },
                {
                    "name": "A3",
                    "midi": 57,
                    "time": 278.3616360000025,
                    "velocity": 0.2440944881889764,
                    "duration": 0.2203343749999931
                },
                {
                    "name": "G#3",
                    "midi": 56,
                    "time": 278.5731570000025,
                    "velocity": 0.1889763779527559,
                    "duration": 0.2203343749999931
                },
                {
                    "name": "A3",
                    "midi": 57,
                    "time": 278.7846780000025,
                    "velocity": 0.2440944881889764,
                    "duration": 0.2203343749999931
                },
                {
                    "name": "G#3",
                    "midi": 56,
                    "time": 278.9961990000025,
                    "velocity": 0.1968503937007874,
                    "duration": 0.2203343749999931
                },
                {
                    "name": "A3",
                    "midi": 57,
                    "time": 279.2077200000025,
                    "velocity": 0.2440944881889764,
                    "duration": 0.42304200000000947
                },
                {
                    "name": "G3",
                    "midi": 55,
                    "time": 280.4768460000025,
                    "velocity": 0.49606299212598426,
                    "duration": 0.2203343749999931
                },
                {
                    "name": "A3",
                    "midi": 57,
                    "time": 280.68836700000253,
                    "velocity": 0.44881889763779526,
                    "duration": 0.2203343749999931
                },
                {
                    "name": "G3",
                    "midi": 55,
                    "time": 280.89988800000253,
                    "velocity": 0.49606299212598426,
                    "duration": 0.2203343749999931
                },
                {
                    "name": "A3",
                    "midi": 57,
                    "time": 281.11140900000254,
                    "velocity": 0.3858267716535433,
                    "duration": 0.2203343749999931
                },
                {
                    "name": "G3",
                    "midi": 55,
                    "time": 281.32293000000254,
                    "velocity": 0.49606299212598426,
                    "duration": 0.2203343749999931
                },
                {
                    "name": "A3",
                    "midi": 57,
                    "time": 281.53445100000255,
                    "velocity": 0.4015748031496063,
                    "duration": 0.2203343749999931
                },
                {
                    "name": "G3",
                    "midi": 55,
                    "time": 281.74597200000255,
                    "velocity": 0.49606299212598426,
                    "duration": 0.42304200000000947
                },
                {
                    "name": "C4",
                    "midi": 60,
                    "time": 283.0150980000026,
                    "velocity": 0.2283464566929134,
                    "duration": 1.6921680000000379
                },
                {
                    "name": "G4",
                    "midi": 67,
                    "time": 283.0150980000026,
                    "velocity": 0.30708661417322836,
                    "duration": 0.2203343749999931
                },
                {
                    "name": "F#4",
                    "midi": 66,
                    "time": 283.2266190000026,
                    "velocity": 0.2755905511811024,
                    "duration": 0.2203343749999931
                },
                {
                    "name": "G4",
                    "midi": 67,
                    "time": 283.4381400000026,
                    "velocity": 0.30708661417322836,
                    "duration": 0.2203343749999931
                },
                {
                    "name": "F#4",
                    "midi": 66,
                    "time": 283.6496610000026,
                    "velocity": 0.2440944881889764,
                    "duration": 0.2203343749999931
                },
                {
                    "name": "G4",
                    "midi": 67,
                    "time": 283.8611820000026,
                    "velocity": 0.30708661417322836,
                    "duration": 0.2203343749999931
                },
                {
                    "name": "F#4",
                    "midi": 66,
                    "time": 284.0727030000026,
                    "velocity": 0.25196850393700787,
                    "duration": 0.2203343749999931
                },
                {
                    "name": "G4",
                    "midi": 67,
                    "time": 284.2842240000026,
                    "velocity": 0.30708661417322836,
                    "duration": 0.42304200000000947
                },
                {
                    "name": "F3",
                    "midi": 53,
                    "time": 285.55335000000264,
                    "velocity": 0.31496062992125984,
                    "duration": 0.21152100000000473
                },
                {
                    "name": "A3",
                    "midi": 57,
                    "time": 285.76487100000264,
                    "velocity": 0.23622047244094488,
                    "duration": 0.21152100000000473
                },
                {
                    "name": "C4",
                    "midi": 60,
                    "time": 285.97639200000265,
                    "velocity": 0.25984251968503935,
                    "duration": 0.21152100000000473
                },
                {
                    "name": "A3",
                    "midi": 57,
                    "time": 286.18791300000265,
                    "velocity": 0.23622047244094488,
                    "duration": 0.21152100000000473
                },
                {
                    "name": "C4",
                    "midi": 60,
                    "time": 286.39943400000266,
                    "velocity": 0.2677165354330709,
                    "duration": 0.21152100000000473
                },
                {
                    "name": "A3",
                    "midi": 57,
                    "time": 286.61095500000266,
                    "velocity": 0.23622047244094488,
                    "duration": 0.21152100000000473
                },
                {
                    "name": "F3",
                    "midi": 53,
                    "time": 286.82247600000267,
                    "velocity": 0.31496062992125984,
                    "duration": 0.21152100000000473
                },
                {
                    "name": "C4",
                    "midi": 60,
                    "time": 287.03399700000267,
                    "velocity": 0.2283464566929134,
                    "duration": 0.21152100000000473
                },
                {
                    "name": "D#4",
                    "midi": 63,
                    "time": 287.2455180000027,
                    "velocity": 0.2440944881889764,
                    "duration": 0.21152100000000473
                },
                {
                    "name": "C4",
                    "midi": 60,
                    "time": 287.4570390000027,
                    "velocity": 0.2125984251968504,
                    "duration": 0.21152100000000473
                },
                {
                    "name": "D#4",
                    "midi": 63,
                    "time": 287.6685600000027,
                    "velocity": 0.2440944881889764,
                    "duration": 0.21152100000000473
                },
                {
                    "name": "C4",
                    "midi": 60,
                    "time": 287.8800810000027,
                    "velocity": 0.2204724409448819,
                    "duration": 0.21152100000000473
                },
                {
                    "name": "F3",
                    "midi": 53,
                    "time": 288.0916020000027,
                    "velocity": 0.31496062992125984,
                    "duration": 0.21152100000000473
                },
                {
                    "name": "A#3",
                    "midi": 58,
                    "time": 288.3031230000027,
                    "velocity": 0.23622047244094488,
                    "duration": 0.21152100000000473
                },
                {
                    "name": "D4",
                    "midi": 62,
                    "time": 288.5146440000027,
                    "velocity": 0.25984251968503935,
                    "duration": 0.21152100000000473
                },
                {
                    "name": "A#3",
                    "midi": 58,
                    "time": 288.7261650000027,
                    "velocity": 0.23622047244094488,
                    "duration": 0.21152100000000473
                },
                {
                    "name": "D4",
                    "midi": 62,
                    "time": 288.9376860000027,
                    "velocity": 0.25984251968503935,
                    "duration": 0.21152100000000473
                },
                {
                    "name": "A#3",
                    "midi": 58,
                    "time": 289.1492070000027,
                    "velocity": 0.23622047244094488,
                    "duration": 0.21152100000000473
                },
                {
                    "name": "F3",
                    "midi": 53,
                    "time": 289.3607280000027,
                    "velocity": 0.31496062992125984,
                    "duration": 0.21152100000000473
                },
                {
                    "name": "G3",
                    "midi": 55,
                    "time": 289.5722490000027,
                    "velocity": 0.18110236220472442,
                    "duration": 0.21152100000000473
                },
                {
                    "name": "A#3",
                    "midi": 58,
                    "time": 289.78377000000273,
                    "velocity": 0.2204724409448819,
                    "duration": 0.21152100000000473
                },
                {
                    "name": "G3",
                    "midi": 55,
                    "time": 289.99529100000274,
                    "velocity": 0.1889763779527559,
                    "duration": 0.21152100000000473
                },
                {
                    "name": "A#3",
                    "midi": 58,
                    "time": 290.20681200000274,
                    "velocity": 0.2283464566929134,
                    "duration": 0.21152100000000473
                },
                {
                    "name": "G3",
                    "midi": 55,
                    "time": 290.41833300000275,
                    "velocity": 0.1889763779527559,
                    "duration": 0.21152100000000473
                },
                {
                    "name": "F3",
                    "midi": 53,
                    "time": 290.62985400000275,
                    "velocity": 0.23622047244094488,
                    "duration": 0.42304200000000947
                },
                {
                    "name": "A3",
                    "midi": 57,
                    "time": 290.62985400000275,
                    "velocity": 0.23622047244094488,
                    "duration": 0.42304200000000947
                },
                {
                    "name": "F3",
                    "midi": 53,
                    "time": 293.16810600000275,
                    "velocity": 0.3700787401574803,
                    "duration": 0.42304200000000947
                },
                {
                    "name": "A2",
                    "midi": 45,
                    "time": 293.59114800000276,
                    "velocity": 0.3464566929133858,
                    "duration": 0.42304200000000947
                },
                {
                    "name": "D3",
                    "midi": 50,
                    "time": 294.01419000000277,
                    "velocity": 0.3779527559055118,
                    "duration": 0.42304200000000947
                },
                {
                    "name": "G2",
                    "midi": 43,
                    "time": 294.4372320000028,
                    "velocity": 0.3779527559055118,
                    "duration": 0.42304200000000947
                },
                {
                    "name": "C3",
                    "midi": 48,
                    "time": 294.8602740000028,
                    "velocity": 0.3858267716535433,
                    "duration": 0.6345630000000142
                },
                {
                    "name": "A2",
                    "midi": 45,
                    "time": 295.4948370000028,
                    "velocity": 0.3700787401574803,
                    "duration": 0.21152100000000473
                },
                {
                    "name": "F2",
                    "midi": 41,
                    "time": 295.7063580000028,
                    "velocity": 0.4094488188976378,
                    "duration": 0.42304200000000947
                },
                {
                    "name": "D3",
                    "midi": 50,
                    "time": 296.1294000000028,
                    "velocity": 0.31496062992125984,
                    "duration": 0.42304200000000947
                },
                {
                    "name": "A#2",
                    "midi": 46,
                    "time": 296.5524420000028,
                    "velocity": 0.3464566929133858,
                    "duration": 0.42304200000000947
                },
                {
                    "name": "A2",
                    "midi": 45,
                    "time": 296.97548400000284,
                    "velocity": 0.3700787401574803,
                    "duration": 0.42304200000000947
                },
                {
                    "name": "D3",
                    "midi": 50,
                    "time": 297.82156800000286,
                    "velocity": 0.31496062992125984,
                    "duration": 0.42304200000000947
                },
                {
                    "name": "A#2",
                    "midi": 46,
                    "time": 298.24461000000287,
                    "velocity": 0.31496062992125984,
                    "duration": 0.42304200000000947
                },
                {
                    "name": "C3",
                    "midi": 48,
                    "time": 299.0906940000029,
                    "velocity": 0.3228346456692913,
                    "duration": 0.42304200000000947
                },
                {
                    "name": "F2",
                    "midi": 41,
                    "time": 299.5137360000029,
                    "velocity": 0.33858267716535434,
                    "duration": 0.42304200000000947
                },
                {
                    "name": "C5",
                    "midi": 72,
                    "time": 300.3598200000029,
                    "velocity": 0.31496062992125984,
                    "duration": 0.3172814999999787
                },
                {
                    "name": "A4",
                    "midi": 69,
                    "time": 300.3598200000029,
                    "velocity": 0.25196850393700787,
                    "duration": 0.3172814999999787
                },
                {
                    "name": "G4",
                    "midi": 67,
                    "time": 300.6771015000029,
                    "velocity": 0.2204724409448819,
                    "duration": 0.10576049999997394
                },
                {
                    "name": "A#4",
                    "midi": 70,
                    "time": 300.6771015000029,
                    "velocity": 0.2755905511811024,
                    "duration": 0.10576049999997394
                },
                {
                    "name": "A4",
                    "midi": 69,
                    "time": 300.78286200000286,
                    "velocity": 0.31496062992125984,
                    "duration": 0.10576049999997394
                },
                {
                    "name": "F4",
                    "midi": 65,
                    "time": 300.78286200000286,
                    "velocity": 0.25196850393700787,
                    "duration": 0.10576049999997394
                },
                {
                    "name": "F4",
                    "midi": 65,
                    "time": 301.2059040000028,
                    "velocity": 0.25196850393700787,
                    "duration": 0.10576049999997394
                },
                {
                    "name": "A4",
                    "midi": 69,
                    "time": 301.2059040000028,
                    "velocity": 0.31496062992125984,
                    "duration": 0.10576049999997394
                },
                {
                    "name": "F4",
                    "midi": 65,
                    "time": 301.62894600000277,
                    "velocity": 0.2283464566929134,
                    "duration": 0.3172814999999787
                },
                {
                    "name": "A4",
                    "midi": 69,
                    "time": 301.62894600000277,
                    "velocity": 0.29133858267716534,
                    "duration": 0.3172814999999787
                },
                {
                    "name": "G4",
                    "midi": 67,
                    "time": 301.94622750000275,
                    "velocity": 0.25984251968503935,
                    "duration": 0.10576049999997394
                },
                {
                    "name": "C4",
                    "midi": 60,
                    "time": 301.94622750000275,
                    "velocity": 0.2047244094488189,
                    "duration": 0.10576049999997394
                },
                {
                    "name": "F4",
                    "midi": 65,
                    "time": 302.0519880000027,
                    "velocity": 0.2992125984251969,
                    "duration": 0.10576049999997394
                },
                {
                    "name": "A3",
                    "midi": 57,
                    "time": 302.0519880000027,
                    "velocity": 0.23622047244094488,
                    "duration": 0.10576049999997394
                },
                {
                    "name": "F4",
                    "midi": 65,
                    "time": 302.4750300000027,
                    "velocity": 0.2755905511811024,
                    "duration": 0.10576049999997394
                },
                {
                    "name": "A3",
                    "midi": 57,
                    "time": 302.4750300000027,
                    "velocity": 0.2204724409448819,
                    "duration": 0.10576049999997394
                },
                {
                    "name": "F4",
                    "midi": 65,
                    "time": 302.8980720000026,
                    "velocity": 0.2755905511811024,
                    "duration": 0.42304200000000947
                },
                {
                    "name": "A3",
                    "midi": 57,
                    "time": 302.8980720000026,
                    "velocity": 0.2204724409448819,
                    "duration": 0.42304200000000947
                },
                {
                    "name": "C4",
                    "midi": 60,
                    "time": 303.32111400000264,
                    "velocity": 0.2204724409448819,
                    "duration": 0.10576049999997394
                },
                {
                    "name": "G4",
                    "midi": 67,
                    "time": 303.32111400000264,
                    "velocity": 0.28346456692913385,
                    "duration": 0.10576049999997394
                },
                {
                    "name": "G4",
                    "midi": 67,
                    "time": 303.7441560000026,
                    "velocity": 0.2755905511811024,
                    "duration": 0.10576049999997394
                },
                {
                    "name": "C4",
                    "midi": 60,
                    "time": 303.7441560000026,
                    "velocity": 0.2204724409448819,
                    "duration": 0.10576049999997394
                },
                {
                    "name": "C4",
                    "midi": 60,
                    "time": 304.16719800000254,
                    "velocity": 0.2204724409448819,
                    "duration": 0.10576049999997394
                },
                {
                    "name": "G4",
                    "midi": 67,
                    "time": 304.16719800000254,
                    "velocity": 0.2755905511811024,
                    "duration": 0.10576049999997394
                },
                {
                    "name": "G4",
                    "midi": 67,
                    "time": 304.5902400000025,
                    "velocity": 0.31496062992125984,
                    "duration": 0.42304200000000947
                },
                {
                    "name": "C4",
                    "midi": 60,
                    "time": 304.5902400000025,
                    "velocity": 0.25196850393700787,
                    "duration": 0.42304200000000947
                },
                {
                    "name": "A4",
                    "midi": 69,
                    "time": 305.0132820000025,
                    "velocity": 0.2755905511811024,
                    "duration": 0.42304200000000947
                },
                {
                    "name": "F4",
                    "midi": 65,
                    "time": 305.0132820000025,
                    "velocity": 0.2204724409448819,
                    "duration": 0.42304200000000947
                },
                {
                    "name": "C5",
                    "midi": 72,
                    "time": 305.4363240000025,
                    "velocity": 0.31496062992125984,
                    "duration": 0.3172814999999787
                },
                {
                    "name": "A4",
                    "midi": 69,
                    "time": 305.4363240000025,
                    "velocity": 0.25196850393700787,
                    "duration": 0.3172814999999787
                },
                {
                    "name": "A#4",
                    "midi": 70,
                    "time": 305.7536055000025,
                    "velocity": 0.2755905511811024,
                    "duration": 0.10576049999997394
                },
                {
                    "name": "G4",
                    "midi": 67,
                    "time": 305.7536055000025,
                    "velocity": 0.2204724409448819,
                    "duration": 0.10576049999997394
                },
                {
                    "name": "F4",
                    "midi": 65,
                    "time": 305.85936600000247,
                    "velocity": 0.25196850393700787,
                    "duration": 0.10576049999997394
                },
                {
                    "name": "A4",
                    "midi": 69,
                    "time": 305.85936600000247,
                    "velocity": 0.31496062992125984,
                    "duration": 0.10576049999997394
                },
                {
                    "name": "F4",
                    "midi": 65,
                    "time": 306.2824080000024,
                    "velocity": 0.25196850393700787,
                    "duration": 0.10576049999997394
                },
                {
                    "name": "A4",
                    "midi": 69,
                    "time": 306.2824080000024,
                    "velocity": 0.31496062992125984,
                    "duration": 0.10576049999997394
                },
                {
                    "name": "A4",
                    "midi": 69,
                    "time": 306.7054500000024,
                    "velocity": 0.29133858267716534,
                    "duration": 0.3172814999999787
                },
                {
                    "name": "F4",
                    "midi": 65,
                    "time": 306.7054500000024,
                    "velocity": 0.2283464566929134,
                    "duration": 0.3172814999999787
                },
                {
                    "name": "G4",
                    "midi": 67,
                    "time": 307.02273150000235,
                    "velocity": 0.25984251968503935,
                    "duration": 0.10576049999997394
                },
                {
                    "name": "C4",
                    "midi": 60,
                    "time": 307.02273150000235,
                    "velocity": 0.2047244094488189,
                    "duration": 0.10576049999997394
                },
                {
                    "name": "F4",
                    "midi": 65,
                    "time": 307.1284920000023,
                    "velocity": 0.2992125984251969,
                    "duration": 0.10576049999997394
                },
                {
                    "name": "A3",
                    "midi": 57,
                    "time": 307.1284920000023,
                    "velocity": 0.23622047244094488,
                    "duration": 0.10576049999997394
                },
                {
                    "name": "A3",
                    "midi": 57,
                    "time": 307.5515340000023,
                    "velocity": 0.2204724409448819,
                    "duration": 0.10576049999997394
                },
                {
                    "name": "F4",
                    "midi": 65,
                    "time": 307.5515340000023,
                    "velocity": 0.2755905511811024,
                    "duration": 0.10576049999997394
                },
                {
                    "name": "A3",
                    "midi": 57,
                    "time": 307.97457600000223,
                    "velocity": 0.2204724409448819,
                    "duration": 0.10576049999997394
                },
                {
                    "name": "F4",
                    "midi": 65,
                    "time": 307.97457600000223,
                    "velocity": 0.2755905511811024,
                    "duration": 0.10576049999997394
                },
                {
                    "name": "G4",
                    "midi": 67,
                    "time": 308.3976180000022,
                    "velocity": 0.29133858267716534,
                    "duration": 0.42304200000000947
                },
                {
                    "name": "C4",
                    "midi": 60,
                    "time": 308.3976180000022,
                    "velocity": 0.2283464566929134,
                    "duration": 0.42304200000000947
                },
                {
                    "name": "C4",
                    "midi": 60,
                    "time": 309.2437020000022,
                    "velocity": 0.2204724409448819,
                    "duration": 0.42304200000000947
                },
                {
                    "name": "G4",
                    "midi": 67,
                    "time": 309.2437020000022,
                    "velocity": 0.2755905511811024,
                    "duration": 0.42304200000000947
                },
                {
                    "name": "F4",
                    "midi": 65,
                    "time": 309.6667440000022,
                    "velocity": 0.30708661417322836,
                    "duration": 0.42304200000000947
                },
                {
                    "name": "A#4",
                    "midi": 70,
                    "time": 310.51282800000223,
                    "velocity": 0.2755905511811024,
                    "duration": 0.42304200000000947
                },
                {
                    "name": "C4",
                    "midi": 60,
                    "time": 310.51282800000223,
                    "velocity": 0.2204724409448819,
                    "duration": 0.42304200000000947
                },
                {
                    "name": "E4",
                    "midi": 64,
                    "time": 310.51282800000223,
                    "velocity": 0.2204724409448819,
                    "duration": 0.42304200000000947
                },
                {
                    "name": "A4",
                    "midi": 69,
                    "time": 310.93587000000224,
                    "velocity": 0.30708661417322836,
                    "duration": 0.42304200000000947
                },
                {
                    "name": "F4",
                    "midi": 65,
                    "time": 310.93587000000224,
                    "velocity": 0.2440944881889764,
                    "duration": 0.42304200000000947
                },
                {
                    "name": "A#3",
                    "midi": 58,
                    "time": 311.78195400000226,
                    "velocity": 0.2440944881889764,
                    "duration": 0.42304200000000947
                },
                {
                    "name": "E3",
                    "midi": 52,
                    "time": 311.78195400000226,
                    "velocity": 0.1968503937007874,
                    "duration": 0.42304200000000947
                },
                {
                    "name": "C3",
                    "midi": 48,
                    "time": 311.78195400000226,
                    "velocity": 0.1968503937007874,
                    "duration": 0.42304200000000947
                },
                {
                    "name": "F3",
                    "midi": 53,
                    "time": 312.20499600000227,
                    "velocity": 0.2125984251968504,
                    "duration": 0.42304200000000947
                },
                {
                    "name": "A3",
                    "midi": 57,
                    "time": 312.20499600000227,
                    "velocity": 0.2755905511811024,
                    "duration": 0.42304200000000947
                },
                {
                    "name": "C#2",
                    "midi": 37,
                    "time": 313.0510800000023,
                    "velocity": 0.4015748031496063,
                    "duration": 0.42304200000000947
                },
                {
                    "name": "C#3",
                    "midi": 49,
                    "time": 313.0510800000023,
                    "velocity": 0.47244094488188976,
                    "duration": 0.42304200000000947
                },
                {
                    "name": "D3",
                    "midi": 50,
                    "time": 313.4741220000023,
                    "velocity": 0.5196850393700787,
                    "duration": 0.21152100000000473
                },
                {
                    "name": "D2",
                    "midi": 38,
                    "time": 313.4741220000023,
                    "velocity": 0.4409448818897638,
                    "duration": 0.21152100000000473
                },
                {
                    "name": "F3",
                    "midi": 53,
                    "time": 313.6856430000023,
                    "velocity": 0.47244094488188976,
                    "duration": 0.21152100000000473
                },
                {
                    "name": "A3",
                    "midi": 57,
                    "time": 313.8971640000023,
                    "velocity": 0.47244094488188976,
                    "duration": 0.21152100000000473
                },
                {
                    "name": "F3",
                    "midi": 53,
                    "time": 314.1086850000023,
                    "velocity": 0.47244094488188976,
                    "duration": 0.21152100000000473
                },
                {
                    "name": "A3",
                    "midi": 57,
                    "time": 314.3202060000023,
                    "velocity": 0.49606299212598426,
                    "duration": 0.21152100000000473
                },
                {
                    "name": "F3",
                    "midi": 53,
                    "time": 314.5317270000023,
                    "velocity": 0.47244094488188976,
                    "duration": 0.21152100000000473
                },
                {
                    "name": "D3",
                    "midi": 50,
                    "time": 314.7432480000023,
                    "velocity": 0.5118110236220472,
                    "duration": 0.21152100000000473
                },
                {
                    "name": "F3",
                    "midi": 53,
                    "time": 314.95476900000233,
                    "velocity": 0.47244094488188976,
                    "duration": 0.21152100000000473
                },
                {
                    "name": "A3",
                    "midi": 57,
                    "time": 315.16629000000233,
                    "velocity": 0.49606299212598426,
                    "duration": 0.21152100000000473
                },
                {
                    "name": "F3",
                    "midi": 53,
                    "time": 315.37781100000234,
                    "velocity": 0.47244094488188976,
                    "duration": 0.21152100000000473
                },
                {
                    "name": "A3",
                    "midi": 57,
                    "time": 315.58933200000234,
                    "velocity": 0.47244094488188976,
                    "duration": 0.21152100000000473
                },
                {
                    "name": "F3",
                    "midi": 53,
                    "time": 315.80085300000235,
                    "velocity": 0.4881889763779528,
                    "duration": 0.21152100000000473
                },
                {
                    "name": "E2",
                    "midi": 40,
                    "time": 316.01237400000235,
                    "velocity": 0.47244094488188976,
                    "duration": 0.10576049999997394
                },
                {
                    "name": "E3",
                    "midi": 52,
                    "time": 316.01237400000235,
                    "velocity": 0.5590551181102362,
                    "duration": 0.10576049999997394
                },
                {
                    "name": "G3",
                    "midi": 55,
                    "time": 316.4354160000023,
                    "velocity": 0.47244094488188976,
                    "duration": 0.10576049999997394
                },
                {
                    "name": "E3",
                    "midi": 52,
                    "time": 316.4354160000023,
                    "velocity": 0.47244094488188976,
                    "duration": 0.10576049999997394
                },
                {
                    "name": "A#3",
                    "midi": 58,
                    "time": 316.4354160000023,
                    "velocity": 0.47244094488188976,
                    "duration": 0.10576049999997394
                },
                {
                    "name": "C#4",
                    "midi": 61,
                    "time": 316.4354160000023,
                    "velocity": 0.5590551181102362,
                    "duration": 0.10576049999997394
                },
                {
                    "name": "E3",
                    "midi": 52,
                    "time": 317.28150000000227,
                    "velocity": 0.5590551181102362,
                    "duration": 0.10576049999997394
                },
                {
                    "name": "E2",
                    "midi": 40,
                    "time": 317.28150000000227,
                    "velocity": 0.47244094488188976,
                    "duration": 0.10576049999997394
                },
                {
                    "name": "C#4",
                    "midi": 61,
                    "time": 317.7045420000022,
                    "velocity": 0.5590551181102362,
                    "duration": 0.10576049999997394
                },
                {
                    "name": "E3",
                    "midi": 52,
                    "time": 317.7045420000022,
                    "velocity": 0.47244094488188976,
                    "duration": 0.10576049999997394
                },
                {
                    "name": "G3",
                    "midi": 55,
                    "time": 317.7045420000022,
                    "velocity": 0.47244094488188976,
                    "duration": 0.10576049999997394
                },
                {
                    "name": "A#3",
                    "midi": 58,
                    "time": 317.7045420000022,
                    "velocity": 0.47244094488188976,
                    "duration": 0.10576049999997394
                },
                {
                    "name": "F3",
                    "midi": 53,
                    "time": 318.5506260000022,
                    "velocity": 0.5196850393700787,
                    "duration": 0.21152100000000473
                },
                {
                    "name": "A3",
                    "midi": 57,
                    "time": 318.7621470000022,
                    "velocity": 0.47244094488188976,
                    "duration": 0.21152100000000473
                },
                {
                    "name": "D4",
                    "midi": 62,
                    "time": 318.9736680000022,
                    "velocity": 0.47244094488188976,
                    "duration": 0.21152100000000473
                },
                {
                    "name": "A3",
                    "midi": 57,
                    "time": 319.1851890000022,
                    "velocity": 0.47244094488188976,
                    "duration": 0.21152100000000473
                },
                {
                    "name": "D4",
                    "midi": 62,
                    "time": 319.3967100000022,
                    "velocity": 0.49606299212598426,
                    "duration": 0.21152100000000473
                },
                {
                    "name": "A3",
                    "midi": 57,
                    "time": 319.6082310000022,
                    "velocity": 0.47244094488188976,
                    "duration": 0.21152100000000473
                },
                {
                    "name": "F3",
                    "midi": 53,
                    "time": 319.8197520000022,
                    "velocity": 0.5118110236220472,
                    "duration": 0.21152100000000473
                },
                {
                    "name": "A3",
                    "midi": 57,
                    "time": 320.0312730000022,
                    "velocity": 0.47244094488188976,
                    "duration": 0.21152100000000473
                },
                {
                    "name": "D4",
                    "midi": 62,
                    "time": 320.2427940000022,
                    "velocity": 0.49606299212598426,
                    "duration": 0.21152100000000473
                },
                {
                    "name": "A3",
                    "midi": 57,
                    "time": 320.4543150000022,
                    "velocity": 0.47244094488188976,
                    "duration": 0.21152100000000473
                },
                {
                    "name": "D4",
                    "midi": 62,
                    "time": 320.66583600000223,
                    "velocity": 0.47244094488188976,
                    "duration": 0.21152100000000473
                },
                {
                    "name": "A3",
                    "midi": 57,
                    "time": 320.87735700000223,
                    "velocity": 0.4881889763779528,
                    "duration": 0.21152100000000473
                },
                {
                    "name": "D2",
                    "midi": 38,
                    "time": 321.08887800000224,
                    "velocity": 0.47244094488188976,
                    "duration": 0.10576049999997394
                },
                {
                    "name": "D3",
                    "midi": 50,
                    "time": 321.08887800000224,
                    "velocity": 0.5590551181102362,
                    "duration": 0.10576049999997394
                },
                {
                    "name": "G#3",
                    "midi": 56,
                    "time": 321.5119200000022,
                    "velocity": 0.47244094488188976,
                    "duration": 0.10576049999997394
                },
                {
                    "name": "D3",
                    "midi": 50,
                    "time": 321.5119200000022,
                    "velocity": 0.47244094488188976,
                    "duration": 0.10576049999997394
                },
                {
                    "name": "B3",
                    "midi": 59,
                    "time": 321.5119200000022,
                    "velocity": 0.5590551181102362,
                    "duration": 0.10576049999997394
                },
                {
                    "name": "F3",
                    "midi": 53,
                    "time": 321.5119200000022,
                    "velocity": 0.47244094488188976,
                    "duration": 0.10576049999997394
                },
                {
                    "name": "D2",
                    "midi": 38,
                    "time": 322.35800400000215,
                    "velocity": 0.47244094488188976,
                    "duration": 0.10576049999997394
                },
                {
                    "name": "D3",
                    "midi": 50,
                    "time": 322.35800400000215,
                    "velocity": 0.5590551181102362,
                    "duration": 0.10576049999997394
                },
                {
                    "name": "F3",
                    "midi": 53,
                    "time": 322.7810460000021,
                    "velocity": 0.47244094488188976,
                    "duration": 0.10576049999997394
                },
                {
                    "name": "B3",
                    "midi": 59,
                    "time": 322.7810460000021,
                    "velocity": 0.5590551181102362,
                    "duration": 0.10576049999997394
                },
                {
                    "name": "G#3",
                    "midi": 56,
                    "time": 322.7810460000021,
                    "velocity": 0.47244094488188976,
                    "duration": 0.10576049999997394
                },
                {
                    "name": "D3",
                    "midi": 50,
                    "time": 322.7810460000021,
                    "velocity": 0.47244094488188976,
                    "duration": 0.10576049999997394
                },
                {
                    "name": "D#3",
                    "midi": 51,
                    "time": 323.62713000000207,
                    "velocity": 0.5196850393700787,
                    "duration": 0.21152100000000473
                },
                {
                    "name": "G3",
                    "midi": 55,
                    "time": 323.8386510000021,
                    "velocity": 0.47244094488188976,
                    "duration": 0.21152100000000473
                },
                {
                    "name": "C4",
                    "midi": 60,
                    "time": 324.0501720000021,
                    "velocity": 0.47244094488188976,
                    "duration": 0.21152100000000473
                },
                {
                    "name": "G3",
                    "midi": 55,
                    "time": 324.2616930000021,
                    "velocity": 0.47244094488188976,
                    "duration": 0.21152100000000473
                },
                {
                    "name": "C4",
                    "midi": 60,
                    "time": 324.4732140000021,
                    "velocity": 0.49606299212598426,
                    "duration": 0.21152100000000473
                },
                {
                    "name": "G3",
                    "midi": 55,
                    "time": 324.6847350000021,
                    "velocity": 0.47244094488188976,
                    "duration": 0.21152100000000473
                },
                {
                    "name": "D#3",
                    "midi": 51,
                    "time": 324.8962560000021,
                    "velocity": 0.5118110236220472,
                    "duration": 0.21152100000000473
                },
                {
                    "name": "G3",
                    "midi": 55,
                    "time": 325.1077770000021,
                    "velocity": 0.47244094488188976,
                    "duration": 0.21152100000000473
                },
                {
                    "name": "C4",
                    "midi": 60,
                    "time": 325.3192980000021,
                    "velocity": 0.49606299212598426,
                    "duration": 0.21152100000000473
                },
                {
                    "name": "G3",
                    "midi": 55,
                    "time": 325.5308190000021,
                    "velocity": 0.47244094488188976,
                    "duration": 0.21152100000000473
                },
                {
                    "name": "C4",
                    "midi": 60,
                    "time": 325.7423400000021,
                    "velocity": 0.47244094488188976,
                    "duration": 0.21152100000000473
                },
                {
                    "name": "G3",
                    "midi": 55,
                    "time": 325.9538610000021,
                    "velocity": 0.4881889763779528,
                    "duration": 0.21152100000000473
                },
                {
                    "name": "D#2",
                    "midi": 39,
                    "time": 326.1653820000021,
                    "velocity": 0.5590551181102362,
                    "duration": 0.10576049999997394
                },
                {
                    "name": "A3",
                    "midi": 57,
                    "time": 326.5884240000021,
                    "velocity": 0.47244094488188976,
                    "duration": 0.10576049999997394
                },
                {
                    "name": "F#3",
                    "midi": 54,
                    "time": 326.5884240000021,
                    "velocity": 0.47244094488188976,
                    "duration": 0.10576049999997394
                },
                {
                    "name": "C4",
                    "midi": 60,
                    "time": 326.5884240000021,
                    "velocity": 0.5590551181102362,
                    "duration": 0.10576049999997394
                },
                {
                    "name": "D#3",
                    "midi": 51,
                    "time": 326.5884240000021,
                    "velocity": 0.47244094488188976,
                    "duration": 0.10576049999997394
                },
                {
                    "name": "D#2",
                    "midi": 39,
                    "time": 327.43450800000204,
                    "velocity": 0.5590551181102362,
                    "duration": 0.10576049999997394
                },
                {
                    "name": "D#3",
                    "midi": 51,
                    "time": 327.857550000002,
                    "velocity": 0.47244094488188976,
                    "duration": 0.10576049999997394
                },
                {
                    "name": "C4",
                    "midi": 60,
                    "time": 327.857550000002,
                    "velocity": 0.5590551181102362,
                    "duration": 0.10576049999997394
                },
                {
                    "name": "A3",
                    "midi": 57,
                    "time": 327.857550000002,
                    "velocity": 0.47244094488188976,
                    "duration": 0.10576049999997394
                },
                {
                    "name": "F#3",
                    "midi": 54,
                    "time": 327.857550000002,
                    "velocity": 0.47244094488188976,
                    "duration": 0.10576049999997394
                },
                {
                    "name": "C#3",
                    "midi": 49,
                    "time": 328.70363400000195,
                    "velocity": 0.5196850393700787,
                    "duration": 0.21152100000000473
                },
                {
                    "name": "F3",
                    "midi": 53,
                    "time": 328.91515500000196,
                    "velocity": 0.47244094488188976,
                    "duration": 0.21152100000000473
                },
                {
                    "name": "A#3",
                    "midi": 58,
                    "time": 329.12667600000196,
                    "velocity": 0.47244094488188976,
                    "duration": 0.21152100000000473
                },
                {
                    "name": "F3",
                    "midi": 53,
                    "time": 329.33819700000197,
                    "velocity": 0.47244094488188976,
                    "duration": 0.21152100000000473
                },
                {
                    "name": "A#3",
                    "midi": 58,
                    "time": 329.549718000002,
                    "velocity": 0.49606299212598426,
                    "duration": 0.21152100000000473
                },
                {
                    "name": "F3",
                    "midi": 53,
                    "time": 329.761239000002,
                    "velocity": 0.47244094488188976,
                    "duration": 0.21152100000000473
                },
                {
                    "name": "C#3",
                    "midi": 49,
                    "time": 329.972760000002,
                    "velocity": 0.5196850393700787,
                    "duration": 0.21152100000000473
                },
                {
                    "name": "F3",
                    "midi": 53,
                    "time": 330.184281000002,
                    "velocity": 0.47244094488188976,
                    "duration": 0.21152100000000473
                },
                {
                    "name": "A#3",
                    "midi": 58,
                    "time": 330.395802000002,
                    "velocity": 0.47244094488188976,
                    "duration": 0.21152100000000473
                },
                {
                    "name": "F3",
                    "midi": 53,
                    "time": 330.607323000002,
                    "velocity": 0.47244094488188976,
                    "duration": 0.21152100000000473
                },
                {
                    "name": "A#3",
                    "midi": 58,
                    "time": 330.818844000002,
                    "velocity": 0.49606299212598426,
                    "duration": 0.21152100000000473
                },
                {
                    "name": "F3",
                    "midi": 53,
                    "time": 331.030365000002,
                    "velocity": 0.47244094488188976,
                    "duration": 0.21152100000000473
                },
                {
                    "name": "C3",
                    "midi": 48,
                    "time": 331.241886000002,
                    "velocity": 0.5196850393700787,
                    "duration": 0.21152100000000473
                },
                {
                    "name": "F3",
                    "midi": 53,
                    "time": 331.453407000002,
                    "velocity": 0.47244094488188976,
                    "duration": 0.21152100000000473
                },
                {
                    "name": "A3",
                    "midi": 57,
                    "time": 331.664928000002,
                    "velocity": 0.47244094488188976,
                    "duration": 0.21152100000000473
                },
                {
                    "name": "F3",
                    "midi": 53,
                    "time": 331.876449000002,
                    "velocity": 0.47244094488188976,
                    "duration": 0.21152100000000473
                },
                {
                    "name": "A3",
                    "midi": 57,
                    "time": 332.08797000000203,
                    "velocity": 0.49606299212598426,
                    "duration": 0.21152100000000473
                },
                {
                    "name": "F3",
                    "midi": 53,
                    "time": 332.29949100000204,
                    "velocity": 0.47244094488188976,
                    "duration": 0.21152100000000473
                },
                {
                    "name": "C3",
                    "midi": 48,
                    "time": 332.51101200000204,
                    "velocity": 0.5196850393700787,
                    "duration": 0.21152100000000473
                },
                {
                    "name": "F3",
                    "midi": 53,
                    "time": 332.72253300000204,
                    "velocity": 0.47244094488188976,
                    "duration": 0.21152100000000473
                },
                {
                    "name": "A3",
                    "midi": 57,
                    "time": 332.93405400000205,
                    "velocity": 0.47244094488188976,
                    "duration": 0.21152100000000473
                },
                {
                    "name": "F3",
                    "midi": 53,
                    "time": 333.14557500000205,
                    "velocity": 0.47244094488188976,
                    "duration": 0.21152100000000473
                },
                {
                    "name": "A3",
                    "midi": 57,
                    "time": 333.35709600000206,
                    "velocity": 0.49606299212598426,
                    "duration": 0.21152100000000473
                },
                {
                    "name": "F3",
                    "midi": 53,
                    "time": 333.56861700000206,
                    "velocity": 0.47244094488188976,
                    "duration": 0.21152100000000473
                },
                {
                    "name": "B2",
                    "midi": 47,
                    "time": 333.78013800000207,
                    "velocity": 0.5196850393700787,
                    "duration": 0.21152100000000473
                },
                {
                    "name": "F3",
                    "midi": 53,
                    "time": 333.9916590000021,
                    "velocity": 0.47244094488188976,
                    "duration": 0.21152100000000473
                },
                {
                    "name": "G#3",
                    "midi": 56,
                    "time": 334.2031800000021,
                    "velocity": 0.47244094488188976,
                    "duration": 0.21152100000000473
                },
                {
                    "name": "F3",
                    "midi": 53,
                    "time": 334.4147010000021,
                    "velocity": 0.47244094488188976,
                    "duration": 0.21152100000000473
                },
                {
                    "name": "G#3",
                    "midi": 56,
                    "time": 334.6262220000021,
                    "velocity": 0.49606299212598426,
                    "duration": 0.21152100000000473
                },
                {
                    "name": "F3",
                    "midi": 53,
                    "time": 334.8377430000021,
                    "velocity": 0.47244094488188976,
                    "duration": 0.21152100000000473
                },
                {
                    "name": "B2",
                    "midi": 47,
                    "time": 335.0492640000021,
                    "velocity": 0.5196850393700787,
                    "duration": 0.21152100000000473
                },
                {
                    "name": "F3",
                    "midi": 53,
                    "time": 335.2607850000021,
                    "velocity": 0.47244094488188976,
                    "duration": 0.21152100000000473
                },
                {
                    "name": "G#3",
                    "midi": 56,
                    "time": 335.4723060000021,
                    "velocity": 0.47244094488188976,
                    "duration": 0.21152100000000473
                },
                {
                    "name": "F3",
                    "midi": 53,
                    "time": 335.6838270000021,
                    "velocity": 0.47244094488188976,
                    "duration": 0.21152100000000473
                },
                {
                    "name": "G#3",
                    "midi": 56,
                    "time": 335.8953480000021,
                    "velocity": 0.49606299212598426,
                    "duration": 0.21152100000000473
                },
                {
                    "name": "F3",
                    "midi": 53,
                    "time": 336.1068690000021,
                    "velocity": 0.47244094488188976,
                    "duration": 0.21152100000000473
                },
                {
                    "name": "C3",
                    "midi": 48,
                    "time": 336.3183900000021,
                    "velocity": 0.5196850393700787,
                    "duration": 0.21152100000000473
                },
                {
                    "name": "E3",
                    "midi": 52,
                    "time": 336.52991100000213,
                    "velocity": 0.47244094488188976,
                    "duration": 0.21152100000000473
                },
                {
                    "name": "G3",
                    "midi": 55,
                    "time": 336.74143200000213,
                    "velocity": 0.47244094488188976,
                    "duration": 0.21152100000000473
                },
                {
                    "name": "C4",
                    "midi": 60,
                    "time": 336.95295300000214,
                    "velocity": 0.47244094488188976,
                    "duration": 0.21152100000000473
                },
                {
                    "name": "F3",
                    "midi": 53,
                    "time": 337.16447400000214,
                    "velocity": 0.49606299212598426,
                    "duration": 0.21152100000000473
                },
                {
                    "name": "G#3",
                    "midi": 56,
                    "time": 337.37599500000215,
                    "velocity": 0.47244094488188976,
                    "duration": 0.21152100000000473
                },
                {
                    "name": "C3",
                    "midi": 48,
                    "time": 337.58751600000215,
                    "velocity": 0.5196850393700787,
                    "duration": 0.21152100000000473
                },
                {
                    "name": "E3",
                    "midi": 52,
                    "time": 337.79903700000216,
                    "velocity": 0.47244094488188976,
                    "duration": 0.21152100000000473
                },
                {
                    "name": "G3",
                    "midi": 55,
                    "time": 338.01055800000216,
                    "velocity": 0.47244094488188976,
                    "duration": 0.21152100000000473
                },
                {
                    "name": "C4",
                    "midi": 60,
                    "time": 338.22207900000217,
                    "velocity": 0.47244094488188976,
                    "duration": 0.21152100000000473
                },
                {
                    "name": "F3",
                    "midi": 53,
                    "time": 338.4336000000022,
                    "velocity": 0.49606299212598426,
                    "duration": 0.21152100000000473
                },
                {
                    "name": "G#3",
                    "midi": 56,
                    "time": 338.6451210000022,
                    "velocity": 0.47244094488188976,
                    "duration": 0.21152100000000473
                },
                {
                    "name": "C4",
                    "midi": 60,
                    "time": 338.8566420000022,
                    "velocity": 0.5669291338582677,
                    "duration": 0.6345630000000142
                },
                {
                    "name": "C#4",
                    "midi": 61,
                    "time": 339.4912050000022,
                    "velocity": 0.49606299212598426,
                    "duration": 0.1145738749999623
                },
                {
                    "name": "C4",
                    "midi": 60,
                    "time": 339.59696550000217,
                    "velocity": 0.4881889763779528,
                    "duration": 0.1145738749999623
                },
                {
                    "name": "A#3",
                    "midi": 58,
                    "time": 339.70272600000214,
                    "velocity": 0.47244094488188976,
                    "duration": 0.1145738749999623
                },
                {
                    "name": "G#3",
                    "midi": 56,
                    "time": 339.8084865000021,
                    "velocity": 0.47244094488188976,
                    "duration": 0.1145738749999623
                },
                {
                    "name": "G3",
                    "midi": 55,
                    "time": 339.9142470000021,
                    "velocity": 0.4645669291338583,
                    "duration": 0.1145738749999623
                },
                {
                    "name": "F3",
                    "midi": 53,
                    "time": 340.02000750000207,
                    "velocity": 0.44881889763779526,
                    "duration": 0.1145738749999623
                },
                {
                    "name": "C4",
                    "midi": 60,
                    "time": 340.12576800000204,
                    "velocity": 0.49606299212598426,
                    "duration": 0.10576049999997394
                },
                {
                    "name": "C3",
                    "midi": 48,
                    "time": 340.548810000002,
                    "velocity": 0.44881889763779526,
                    "duration": 0.10576049999997394
                },
                {
                    "name": "C2",
                    "midi": 36,
                    "time": 340.548810000002,
                    "velocity": 0.3779527559055118,
                    "duration": 0.10576049999997394
                },
                {
                    "name": "F2",
                    "midi": 41,
                    "time": 341.236253250002,
                    "velocity": 0.2755905511811024,
                    "duration": 0.05288024999998697
                },
                {
                    "name": "C3",
                    "midi": 48,
                    "time": 341.289133500002,
                    "velocity": 0.2755905511811024,
                    "duration": 0.05288024999998697
                },
                {
                    "name": "F3",
                    "midi": 53,
                    "time": 341.39489400000195,
                    "velocity": 0.2755905511811024,
                    "duration": 0.42304200000000947
                },
                {
                    "name": "C3",
                    "midi": 48,
                    "time": 342.50537925000197,
                    "velocity": 0.2677165354330709,
                    "duration": 0.05288024999998697
                },
                {
                    "name": "G3",
                    "midi": 55,
                    "time": 342.55825950000195,
                    "velocity": 0.2677165354330709,
                    "duration": 0.05288024999998697
                },
                {
                    "name": "A#3",
                    "midi": 58,
                    "time": 342.6640200000019,
                    "velocity": 0.2755905511811024,
                    "duration": 0.42304200000000947
                },
                {
                    "name": "F2",
                    "midi": 41,
                    "time": 343.93314600000195,
                    "velocity": 0.2755905511811024,
                    "duration": 0.42304200000000947
                },
                {
                    "name": "A2",
                    "midi": 45,
                    "time": 344.35618800000196,
                    "velocity": 0.2440944881889764,
                    "duration": 0.42304200000000947
                },
                {
                    "name": "C3",
                    "midi": 48,
                    "time": 344.779230000002,
                    "velocity": 0.2440944881889764,
                    "duration": 0.42304200000000947
                },
                {
                    "name": "F3",
                    "midi": 53,
                    "time": 345.202272000002,
                    "velocity": 0.2755905511811024,
                    "duration": 0.42304200000000947
                },
                {
                    "name": "F2",
                    "midi": 41,
                    "time": 345.625314000002,
                    "velocity": 0.2440944881889764,
                    "duration": 0.42304200000000947
                },
                {
                    "name": "D3",
                    "midi": 50,
                    "time": 346.471398000002,
                    "velocity": 0.2755905511811024,
                    "duration": 0.8460840000000189
                },
                {
                    "name": "F3",
                    "midi": 53,
                    "time": 346.894440000002,
                    "velocity": 0.25984251968503935,
                    "duration": 0.42304200000000947
                },
                {
                    "name": "A#3",
                    "midi": 58,
                    "time": 346.894440000002,
                    "velocity": 0.25984251968503935,
                    "duration": 0.42304200000000947
                },
                {
                    "name": "E3",
                    "midi": 52,
                    "time": 347.74052400000204,
                    "velocity": 0.2992125984251969,
                    "duration": 0.8460840000000189
                },
                {
                    "name": "C4",
                    "midi": 60,
                    "time": 348.16356600000205,
                    "velocity": 0.2755905511811024,
                    "duration": 0.42304200000000947
                },
                {
                    "name": "G3",
                    "midi": 55,
                    "time": 348.16356600000205,
                    "velocity": 0.2755905511811024,
                    "duration": 0.42304200000000947
                },
                {
                    "name": "F3",
                    "midi": 53,
                    "time": 349.00965000000207,
                    "velocity": 0.3228346456692913,
                    "duration": 0.42304200000000947
                },
                {
                    "name": "D3",
                    "midi": 50,
                    "time": 349.4326920000021,
                    "velocity": 0.2440944881889764,
                    "duration": 0.42304200000000947
                },
                {
                    "name": "F3",
                    "midi": 53,
                    "time": 349.4326920000021,
                    "velocity": 0.29133858267716534,
                    "duration": 0.42304200000000947
                },
                {
                    "name": "A#2",
                    "midi": 46,
                    "time": 349.8557340000021,
                    "velocity": 0.2283464566929134,
                    "duration": 0.42304200000000947
                },
                {
                    "name": "G3",
                    "midi": 55,
                    "time": 349.8557340000021,
                    "velocity": 0.2755905511811024,
                    "duration": 0.42304200000000947
                },
                {
                    "name": "C3",
                    "midi": 48,
                    "time": 350.2787760000021,
                    "velocity": 0.2677165354330709,
                    "duration": 0.42304200000000947
                },
                {
                    "name": "E3",
                    "midi": 52,
                    "time": 350.2787760000021,
                    "velocity": 0.3228346456692913,
                    "duration": 0.42304200000000947
                },
                {
                    "name": "F3",
                    "midi": 53,
                    "time": 351.5479020000021,
                    "velocity": 0.30708661417322836,
                    "duration": 0.1410139999999842
                },
                {
                    "name": "A3",
                    "midi": 57,
                    "time": 351.6889160000021,
                    "velocity": 0.2440944881889764,
                    "duration": 0.1410139999999842
                },
                {
                    "name": "C4",
                    "midi": 60,
                    "time": 351.8299300000021,
                    "velocity": 0.2440944881889764,
                    "duration": 0.1410139999999842
                },
                {
                    "name": "F3",
                    "midi": 53,
                    "time": 351.9709440000021,
                    "velocity": 0.30708661417322836,
                    "duration": 0.1410139999999842
                },
                {
                    "name": "A3",
                    "midi": 57,
                    "time": 352.11195800000206,
                    "velocity": 0.25196850393700787,
                    "duration": 0.1410139999999842
                },
                {
                    "name": "C4",
                    "midi": 60,
                    "time": 352.25297200000205,
                    "velocity": 0.25196850393700787,
                    "duration": 0.1410139999999842
                },
                {
                    "name": "F3",
                    "midi": 53,
                    "time": 352.39398600000203,
                    "velocity": 0.31496062992125984,
                    "duration": 0.1410139999999842
                },
                {
                    "name": "A3",
                    "midi": 57,
                    "time": 352.535000000002,
                    "velocity": 0.25196850393700787,
                    "duration": 0.1410139999999842
                },
                {
                    "name": "C4",
                    "midi": 60,
                    "time": 352.676014000002,
                    "velocity": 0.25196850393700787,
                    "duration": 0.1410139999999842
                },
                {
                    "name": "E3",
                    "midi": 52,
                    "time": 352.817028000002,
                    "velocity": 0.33858267716535434,
                    "duration": 0.1410139999999842
                },
                {
                    "name": "G3",
                    "midi": 55,
                    "time": 352.95804200000197,
                    "velocity": 0.28346456692913385,
                    "duration": 0.1410139999999842
                },
                {
                    "name": "C4",
                    "midi": 60,
                    "time": 353.09905600000195,
                    "velocity": 0.2755905511811024,
                    "duration": 0.1410139999999842
                },
                {
                    "name": "E3",
                    "midi": 52,
                    "time": 353.24007000000194,
                    "velocity": 0.31496062992125984,
                    "duration": 0.1410139999999842
                },
                {
                    "name": "G3",
                    "midi": 55,
                    "time": 353.3810840000019,
                    "velocity": 0.25984251968503935,
                    "duration": 0.1410139999999842
                },
                {
                    "name": "C4",
                    "midi": 60,
                    "time": 353.5220980000019,
                    "velocity": 0.2283464566929134,
                    "duration": 0.1410139999999842
                },
                {
                    "name": "E3",
                    "midi": 52,
                    "time": 353.6631120000019,
                    "velocity": 0.29133858267716534,
                    "duration": 0.1410139999999842
                },
                {
                    "name": "A#3",
                    "midi": 58,
                    "time": 353.8041260000019,
                    "velocity": 0.2283464566929134,
                    "duration": 0.1410139999999842
                },
                {
                    "name": "C4",
                    "midi": 60,
                    "time": 353.94514000000186,
                    "velocity": 0.2283464566929134,
                    "duration": 0.1410139999999842
                },
                {
                    "name": "F3",
                    "midi": 53,
                    "time": 354.08615400000184,
                    "velocity": 0.2283464566929134,
                    "duration": 0.42304200000000947
                },
                {
                    "name": "A3",
                    "midi": 57,
                    "time": 354.08615400000184,
                    "velocity": 0.2755905511811024,
                    "duration": 0.42304200000000947
                },
                {
                    "name": "A3",
                    "midi": 57,
                    "time": 354.50919600000185,
                    "velocity": 0.2440944881889764,
                    "duration": 0.42304200000000947
                },
                {
                    "name": "C4",
                    "midi": 60,
                    "time": 354.93223800000186,
                    "velocity": 0.2440944881889764,
                    "duration": 0.42304200000000947
                },
                {
                    "name": "F4",
                    "midi": 65,
                    "time": 355.35528000000187,
                    "velocity": 0.2755905511811024,
                    "duration": 0.42304200000000947
                },
                {
                    "name": "C4",
                    "midi": 60,
                    "time": 355.7783220000019,
                    "velocity": 0.2440944881889764,
                    "duration": 0.42304200000000947
                },
                {
                    "name": "F3",
                    "midi": 53,
                    "time": 356.2013640000019,
                    "velocity": 0.2440944881889764,
                    "duration": 0.42304200000000947
                },
                {
                    "name": "D4",
                    "midi": 62,
                    "time": 356.6244060000019,
                    "velocity": 0.2755905511811024,
                    "duration": 0.21152100000000473
                },
                {
                    "name": "F4",
                    "midi": 65,
                    "time": 356.8359270000019,
                    "velocity": 0.2440944881889764,
                    "duration": 0.21152100000000473
                },
                {
                    "name": "A#4",
                    "midi": 70,
                    "time": 357.0474480000019,
                    "velocity": 0.25196850393700787,
                    "duration": 0.21152100000000473
                },
                {
                    "name": "F4",
                    "midi": 65,
                    "time": 357.2589690000019,
                    "velocity": 0.25984251968503935,
                    "duration": 0.21152100000000473
                },
                {
                    "name": "D4",
                    "midi": 62,
                    "time": 357.4704900000019,
                    "velocity": 0.2755905511811024,
                    "duration": 0.21152100000000473
                },
                {
                    "name": "F4",
                    "midi": 65,
                    "time": 357.6820110000019,
                    "velocity": 0.2992125984251969,
                    "duration": 0.21152100000000473
                },
                {
                    "name": "E4",
                    "midi": 64,
                    "time": 357.8935320000019,
                    "velocity": 0.31496062992125984,
                    "duration": 0.21152100000000473
                },
                {
                    "name": "G4",
                    "midi": 67,
                    "time": 358.10505300000193,
                    "velocity": 0.2755905511811024,
                    "duration": 0.21152100000000473
                },
                {
                    "name": "C5",
                    "midi": 72,
                    "time": 358.31657400000194,
                    "velocity": 0.33070866141732286,
                    "duration": 0.21152100000000473
                },
                {
                    "name": "G4",
                    "midi": 67,
                    "time": 358.52809500000194,
                    "velocity": 0.2755905511811024,
                    "duration": 0.21152100000000473
                },
                {
                    "name": "E4",
                    "midi": 64,
                    "time": 358.73961600000194,
                    "velocity": 0.2755905511811024,
                    "duration": 0.21152100000000473
                },
                {
                    "name": "G4",
                    "midi": 67,
                    "time": 358.95113700000195,
                    "velocity": 0.2677165354330709,
                    "duration": 0.21152100000000473
                },
                {
                    "name": "F4",
                    "midi": 65,
                    "time": 359.16265800000195,
                    "velocity": 0.3228346456692913,
                    "duration": 0.42304200000000947
                },
                {
                    "name": "A#3",
                    "midi": 58,
                    "time": 359.58570000000196,
                    "velocity": 0.29133858267716534,
                    "duration": 0.42304200000000947
                },
                {
                    "name": "G4",
                    "midi": 67,
                    "time": 359.58570000000196,
                    "velocity": 0.29133858267716534,
                    "duration": 0.42304200000000947
                },
                {
                    "name": "C4",
                    "midi": 60,
                    "time": 360.008742000002,
                    "velocity": 0.2755905511811024,
                    "duration": 0.42304200000000947
                },
                {
                    "name": "A#4",
                    "midi": 70,
                    "time": 360.008742000002,
                    "velocity": 0.2755905511811024,
                    "duration": 0.42304200000000947
                },
                {
                    "name": "A4",
                    "midi": 69,
                    "time": 360.431784000002,
                    "velocity": 0.29133858267716534,
                    "duration": 0.42304200000000947
                },
                {
                    "name": "F4",
                    "midi": 65,
                    "time": 360.431784000002,
                    "velocity": 0.25196850393700787,
                    "duration": 0.42304200000000947
                },
                {
                    "name": "A4",
                    "midi": 69,
                    "time": 360.854826000002,
                    "velocity": 0.31496062992125984,
                    "duration": 0.42304200000000947
                },
                {
                    "name": "F4",
                    "midi": 65,
                    "time": 361.277868000002,
                    "velocity": 0.29133858267716534,
                    "duration": 0.42304200000000947
                },
                {
                    "name": "G4",
                    "midi": 67,
                    "time": 361.700910000002,
                    "velocity": 0.31496062992125984,
                    "duration": 0.42304200000000947
                },
                {
                    "name": "E4",
                    "midi": 64,
                    "time": 362.123952000002,
                    "velocity": 0.2992125984251969,
                    "duration": 0.42304200000000947
                },
                {
                    "name": "C4",
                    "midi": 60,
                    "time": 362.54699400000203,
                    "velocity": 0.2992125984251969,
                    "duration": 0.42304200000000947
                },
                {
                    "name": "F3",
                    "midi": 53,
                    "time": 362.97003600000204,
                    "velocity": 0.31496062992125984,
                    "duration": 0.42304200000000947
                },
                {
                    "name": "G#3",
                    "midi": 56,
                    "time": 363.39307800000205,
                    "velocity": 0.31496062992125984,
                    "duration": 0.42304200000000947
                },
                {
                    "name": "F3",
                    "midi": 53,
                    "time": 363.81612000000206,
                    "velocity": 0.29133858267716534,
                    "duration": 0.42304200000000947
                },
                {
                    "name": "G3",
                    "midi": 55,
                    "time": 364.23916200000207,
                    "velocity": 0.31496062992125984,
                    "duration": 0.42304200000000947
                },
                {
                    "name": "E3",
                    "midi": 52,
                    "time": 364.6622040000021,
                    "velocity": 0.2992125984251969,
                    "duration": 0.42304200000000947
                },
                {
                    "name": "C3",
                    "midi": 48,
                    "time": 365.0852460000021,
                    "velocity": 0.2992125984251969,
                    "duration": 0.42304200000000947
                },
                {
                    "name": "F2",
                    "midi": 41,
                    "time": 365.5082880000021,
                    "velocity": 0.4566929133858268,
                    "duration": 0.42304200000000947
                },
                {
                    "name": "F3",
                    "midi": 53,
                    "time": 365.5082880000021,
                    "velocity": 0.5433070866141733,
                    "duration": 0.42304200000000947
                },
                {
                    "name": "G#3",
                    "midi": 56,
                    "time": 365.9313300000021,
                    "velocity": 0.31496062992125984,
                    "duration": 0.42304200000000947
                },
                {
                    "name": "C4",
                    "midi": 60,
                    "time": 366.3543720000021,
                    "velocity": 0.31496062992125984,
                    "duration": 0.42304200000000947
                },
                {
                    "name": "A#3",
                    "midi": 58,
                    "time": 366.7774140000021,
                    "velocity": 0.5433070866141733,
                    "duration": 0.42304200000000947
                },
                {
                    "name": "A#2",
                    "midi": 46,
                    "time": 366.7774140000021,
                    "velocity": 0.4566929133858268,
                    "duration": 0.42304200000000947
                },
                {
                    "name": "C#4",
                    "midi": 61,
                    "time": 367.20045600000213,
                    "velocity": 0.31496062992125984,
                    "duration": 0.42304200000000947
                },
                {
                    "name": "F4",
                    "midi": 65,
                    "time": 367.62349800000214,
                    "velocity": 0.31496062992125984,
                    "duration": 0.42304200000000947
                },
                {
                    "name": "D#3",
                    "midi": 51,
                    "time": 368.04654000000215,
                    "velocity": 0.5433070866141733,
                    "duration": 0.42304200000000947
                },
                {
                    "name": "D#2",
                    "midi": 39,
                    "time": 368.04654000000215,
                    "velocity": 0.4566929133858268,
                    "duration": 0.42304200000000947
                },
                {
                    "name": "G3",
                    "midi": 55,
                    "time": 368.46958200000216,
                    "velocity": 0.31496062992125984,
                    "duration": 0.42304200000000947
                },
                {
                    "name": "A#3",
                    "midi": 58,
                    "time": 368.8926240000022,
                    "velocity": 0.31496062992125984,
                    "duration": 0.42304200000000947
                },
                {
                    "name": "G#2",
                    "midi": 44,
                    "time": 369.3156660000022,
                    "velocity": 0.4566929133858268,
                    "duration": 0.42304200000000947
                },
                {
                    "name": "G#3",
                    "midi": 56,
                    "time": 369.3156660000022,
                    "velocity": 0.5433070866141733,
                    "duration": 0.42304200000000947
                },
                {
                    "name": "C4",
                    "midi": 60,
                    "time": 369.7387080000022,
                    "velocity": 0.31496062992125984,
                    "duration": 0.42304200000000947
                },
                {
                    "name": "D#4",
                    "midi": 63,
                    "time": 370.1617500000022,
                    "velocity": 0.31496062992125984,
                    "duration": 0.42304200000000947
                },
                {
                    "name": "C#2",
                    "midi": 37,
                    "time": 370.5847920000022,
                    "velocity": 0.4566929133858268,
                    "duration": 0.42304200000000947
                },
                {
                    "name": "C#3",
                    "midi": 49,
                    "time": 370.5847920000022,
                    "velocity": 0.5433070866141733,
                    "duration": 0.42304200000000947
                },
                {
                    "name": "C#4",
                    "midi": 61,
                    "time": 371.0078340000022,
                    "velocity": 0.31496062992125984,
                    "duration": 0.42304200000000947
                },
                {
                    "name": "G3",
                    "midi": 55,
                    "time": 371.43087600000223,
                    "velocity": 0.5433070866141733,
                    "duration": 0.42304200000000947
                },
                {
                    "name": "G2",
                    "midi": 43,
                    "time": 371.43087600000223,
                    "velocity": 0.4566929133858268,
                    "duration": 0.42304200000000947
                },
                {
                    "name": "G4",
                    "midi": 67,
                    "time": 371.85391800000224,
                    "velocity": 0.31496062992125984,
                    "duration": 0.42304200000000947
                },
                {
                    "name": "C2",
                    "midi": 36,
                    "time": 372.27696000000225,
                    "velocity": 0.4566929133858268,
                    "duration": 0.42304200000000947
                },
                {
                    "name": "C3",
                    "midi": 48,
                    "time": 372.27696000000225,
                    "velocity": 0.5433070866141733,
                    "duration": 0.42304200000000947
                },
                {
                    "name": "C4",
                    "midi": 60,
                    "time": 372.70000200000226,
                    "velocity": 0.31496062992125984,
                    "duration": 0.42304200000000947
                },
                {
                    "name": "C#4",
                    "midi": 61,
                    "time": 373.12304400000227,
                    "velocity": 0.3543307086614173,
                    "duration": 0.42304200000000947
                },
                {
                    "name": "C4",
                    "midi": 60,
                    "time": 373.5460860000023,
                    "velocity": 0.30708661417322836,
                    "duration": 0.42304200000000947
                },
                {
                    "name": "B3",
                    "midi": 59,
                    "time": 373.9691280000023,
                    "velocity": 0.30708661417322836,
                    "duration": 0.42304200000000947
                },
                {
                    "name": "C4",
                    "midi": 60,
                    "time": 374.3921700000023,
                    "velocity": 0.3464566929133858,
                    "duration": 0.42304200000000947
                },
                {
                    "name": "B3",
                    "midi": 59,
                    "time": 375.4497750000023,
                    "velocity": 0.3228346456692913,
                    "duration": 0.21152100000000473
                },
                {
                    "name": "C4",
                    "midi": 60,
                    "time": 375.6612960000023,
                    "velocity": 0.3464566929133858,
                    "duration": 0.42304200000000947
                },
                {
                    "name": "B3",
                    "midi": 59,
                    "time": 376.71890100000235,
                    "velocity": 0.25196850393700787,
                    "duration": 0.2203343749999931
                },
                {
                    "name": "C4",
                    "midi": 60,
                    "time": 376.93042200000235,
                    "velocity": 0.30708661417322836,
                    "duration": 0.2203343749999931
                },
                {
                    "name": "B3",
                    "midi": 59,
                    "time": 377.14194300000236,
                    "velocity": 0.2755905511811024,
                    "duration": 0.2203343749999931
                },
                {
                    "name": "C4",
                    "midi": 60,
                    "time": 377.35346400000236,
                    "velocity": 0.30708661417322836,
                    "duration": 0.2203343749999931
                },
                {
                    "name": "B3",
                    "midi": 59,
                    "time": 377.56498500000237,
                    "velocity": 0.2440944881889764,
                    "duration": 0.2203343749999931
                },
                {
                    "name": "C4",
                    "midi": 60,
                    "time": 377.77650600000237,
                    "velocity": 0.30708661417322836,
                    "duration": 0.2203343749999931
                },
                {
                    "name": "B3",
                    "midi": 59,
                    "time": 377.9880270000024,
                    "velocity": 0.25196850393700787,
                    "duration": 0.2203343749999931
                },
                {
                    "name": "C4",
                    "midi": 60,
                    "time": 378.1995480000024,
                    "velocity": 0.2992125984251969,
                    "duration": 0.42304200000000947
                },
                {
                    "name": "A#3",
                    "midi": 58,
                    "time": 379.4686740000024,
                    "velocity": 0.25984251968503935,
                    "duration": 0.42304200000000947
                },
                {
                    "name": "A#3",
                    "midi": 58,
                    "time": 379.8917160000024,
                    "velocity": 0.2440944881889764,
                    "duration": 0.42304200000000947
                },
                {
                    "name": "A#3",
                    "midi": 58,
                    "time": 380.3147580000024,
                    "velocity": 0.2440944881889764,
                    "duration": 0.42304200000000947
                },
                {
                    "name": "A#3",
                    "midi": 58,
                    "time": 380.73780000000244,
                    "velocity": 0.25984251968503935,
                    "duration": 0.8460840000000189
                },
                {
                    "name": "F3",
                    "midi": 53,
                    "time": 381.58388400000246,
                    "velocity": 0.2440944881889764,
                    "duration": 0.42304200000000947
                },
                {
                    "name": "C3",
                    "midi": 48,
                    "time": 382.00692600000247,
                    "velocity": 0.25984251968503935,
                    "duration": 0.42304200000000947
                },
                {
                    "name": "C3",
                    "midi": 48,
                    "time": 382.4299680000025,
                    "velocity": 0.23622047244094488,
                    "duration": 0.42304200000000947
                },
                {
                    "name": "C3",
                    "midi": 48,
                    "time": 382.8530100000025,
                    "velocity": 0.23622047244094488,
                    "duration": 0.42304200000000947
                },
                {
                    "name": "C3",
                    "midi": 48,
                    "time": 383.2760520000025,
                    "velocity": 0.25984251968503935,
                    "duration": 0.8460840000000189
                },
                {
                    "name": "D3",
                    "midi": 50,
                    "time": 384.1221360000025,
                    "velocity": 0.23622047244094488,
                    "duration": 0.42304200000000947
                },
                {
                    "name": "A#2",
                    "midi": 46,
                    "time": 384.5451780000025,
                    "velocity": 0.25984251968503935,
                    "duration": 0.42304200000000947
                },
                {
                    "name": "C3",
                    "midi": 48,
                    "time": 384.96822000000253,
                    "velocity": 0.25196850393700787,
                    "duration": 0.42304200000000947
                },
                {
                    "name": "C3",
                    "midi": 48,
                    "time": 385.39126200000254,
                    "velocity": 0.25196850393700787,
                    "duration": 0.42304200000000947
                },
                {
                    "name": "F3",
                    "midi": 53,
                    "time": 385.81430400000255,
                    "velocity": 0.25984251968503935,
                    "duration": 0.42304200000000947
                },
                {
                    "name": "F4",
                    "midi": 65,
                    "time": 387.0834300000026,
                    "velocity": 0.2204724409448819,
                    "duration": 0.42304200000000947
                },
                {
                    "name": "A#4",
                    "midi": 70,
                    "time": 387.0834300000026,
                    "velocity": 0.25984251968503935,
                    "duration": 0.42304200000000947
                },
                {
                    "name": "F4",
                    "midi": 65,
                    "time": 387.5064720000026,
                    "velocity": 0.2047244094488189,
                    "duration": 0.42304200000000947
                },
                {
                    "name": "A#4",
                    "midi": 70,
                    "time": 387.5064720000026,
                    "velocity": 0.2440944881889764,
                    "duration": 0.42304200000000947
                },
                {
                    "name": "A#4",
                    "midi": 70,
                    "time": 387.9295140000026,
                    "velocity": 0.2440944881889764,
                    "duration": 0.42304200000000947
                },
                {
                    "name": "F4",
                    "midi": 65,
                    "time": 387.9295140000026,
                    "velocity": 0.2047244094488189,
                    "duration": 0.42304200000000947
                },
                {
                    "name": "A#4",
                    "midi": 70,
                    "time": 388.3525560000026,
                    "velocity": 0.25984251968503935,
                    "duration": 0.8460840000000189
                },
                {
                    "name": "F4",
                    "midi": 65,
                    "time": 388.3525560000026,
                    "velocity": 0.2204724409448819,
                    "duration": 1.2691260000000284
                },
                {
                    "name": "A4",
                    "midi": 69,
                    "time": 389.1986400000026,
                    "velocity": 0.2440944881889764,
                    "duration": 0.42304200000000947
                },
                {
                    "name": "C4",
                    "midi": 60,
                    "time": 389.62168200000264,
                    "velocity": 0.2204724409448819,
                    "duration": 0.42304200000000947
                },
                {
                    "name": "G4",
                    "midi": 67,
                    "time": 389.62168200000264,
                    "velocity": 0.25984251968503935,
                    "duration": 0.42304200000000947
                },
                {
                    "name": "G4",
                    "midi": 67,
                    "time": 390.04472400000265,
                    "velocity": 0.23622047244094488,
                    "duration": 0.42304200000000947
                },
                {
                    "name": "C4",
                    "midi": 60,
                    "time": 390.04472400000265,
                    "velocity": 0.1968503937007874,
                    "duration": 0.42304200000000947
                },
                {
                    "name": "G4",
                    "midi": 67,
                    "time": 390.46776600000265,
                    "velocity": 0.23622047244094488,
                    "duration": 0.42304200000000947
                },
                {
                    "name": "C4",
                    "midi": 60,
                    "time": 390.46776600000265,
                    "velocity": 0.1968503937007874,
                    "duration": 0.42304200000000947
                },
                {
                    "name": "C4",
                    "midi": 60,
                    "time": 390.89080800000266,
                    "velocity": 0.2204724409448819,
                    "duration": 0.8460840000000189
                },
                {
                    "name": "G4",
                    "midi": 67,
                    "time": 390.89080800000266,
                    "velocity": 0.25984251968503935,
                    "duration": 0.8460840000000189
                },
                {
                    "name": "F4",
                    "midi": 65,
                    "time": 391.7368920000027,
                    "velocity": 0.23622047244094488,
                    "duration": 0.42304200000000947
                },
                {
                    "name": "D4",
                    "midi": 62,
                    "time": 391.7368920000027,
                    "velocity": 0.1968503937007874,
                    "duration": 0.42304200000000947
                },
                {
                    "name": "A#3",
                    "midi": 58,
                    "time": 392.1599340000027,
                    "velocity": 0.25984251968503935,
                    "duration": 0.42304200000000947
                },
                {
                    "name": "C4",
                    "midi": 60,
                    "time": 392.5829760000027,
                    "velocity": 0.25196850393700787,
                    "duration": 0.42304200000000947
                },
                {
                    "name": "A#3",
                    "midi": 58,
                    "time": 393.0060180000027,
                    "velocity": 0.25196850393700787,
                    "duration": 0.42304200000000947
                },
                {
                    "name": "A2",
                    "midi": 45,
                    "time": 393.4290600000027,
                    "velocity": 0.4566929133858268,
                    "duration": 0.21152100000000473
                },
                {
                    "name": "A3",
                    "midi": 57,
                    "time": 393.4290600000027,
                    "velocity": 0.5433070866141733,
                    "duration": 0.21152100000000473
                },
                {
                    "name": "C#4",
                    "midi": 61,
                    "time": 393.85210200000273,
                    "velocity": 0.31496062992125984,
                    "duration": 0.10576049999997394
                },
                {
                    "name": "D4",
                    "midi": 62,
                    "time": 394.2751440000027,
                    "velocity": 0.31496062992125984,
                    "duration": 0.10576049999997394
                },
                {
                    "name": "A#3",
                    "midi": 58,
                    "time": 394.69818600000264,
                    "velocity": 0.31496062992125984,
                    "duration": 0.10576049999997394
                },
                {
                    "name": "C4",
                    "midi": 60,
                    "time": 395.1212280000026,
                    "velocity": 0.31496062992125984,
                    "duration": 0.10576049999997394
                },
                {
                    "name": "A#3",
                    "midi": 58,
                    "time": 395.54427000000254,
                    "velocity": 0.31496062992125984,
                    "duration": 0.10576049999997394
                },
                {
                    "name": "A2",
                    "midi": 45,
                    "time": 395.9673120000025,
                    "velocity": 0.5905511811023622,
                    "duration": 0.10576049999997394
                },
                {
                    "name": "A3",
                    "midi": 57,
                    "time": 395.9673120000025,
                    "velocity": 0.5905511811023622,
                    "duration": 0.10576049999997394
                },
                {
                    "name": "C#3",
                    "midi": 49,
                    "time": 396.39035400000245,
                    "velocity": 0.5748031496062992,
                    "duration": 0.10576049999997394
                },
                {
                    "name": "C#4",
                    "midi": 61,
                    "time": 396.39035400000245,
                    "velocity": 0.5748031496062992,
                    "duration": 0.10576049999997394
                },
                {
                    "name": "D4",
                    "midi": 62,
                    "time": 396.8133960000024,
                    "velocity": 0.5748031496062992,
                    "duration": 0.10576049999997394
                },
                {
                    "name": "D3",
                    "midi": 50,
                    "time": 396.8133960000024,
                    "velocity": 0.5748031496062992,
                    "duration": 0.10576049999997394
                },
                {
                    "name": "A#2",
                    "midi": 46,
                    "time": 397.23643800000235,
                    "velocity": 0.5905511811023622,
                    "duration": 0.10576049999997394
                },
                {
                    "name": "A#3",
                    "midi": 58,
                    "time": 397.23643800000235,
                    "velocity": 0.5905511811023622,
                    "duration": 0.10576049999997394
                },
                {
                    "name": "C4",
                    "midi": 60,
                    "time": 397.6594800000023,
                    "velocity": 0.5748031496062992,
                    "duration": 0.10576049999997394
                },
                {
                    "name": "C3",
                    "midi": 48,
                    "time": 397.6594800000023,
                    "velocity": 0.5748031496062992,
                    "duration": 0.10576049999997394
                },
                {
                    "name": "C3",
                    "midi": 48,
                    "time": 398.08252200000226,
                    "velocity": 0.5748031496062992,
                    "duration": 0.10576049999997394
                },
                {
                    "name": "C2",
                    "midi": 36,
                    "time": 398.08252200000226,
                    "velocity": 0.5748031496062992,
                    "duration": 0.10576049999997394
                },
                {
                    "name": "F2",
                    "midi": 41,
                    "time": 398.5055640000022,
                    "velocity": 0.5039370078740157,
                    "duration": 0.10576049999997394
                },
                {
                    "name": "A2",
                    "midi": 45,
                    "time": 398.6113245000022,
                    "velocity": 0.4645669291338583,
                    "duration": 0.10576049999997394
                },
                {
                    "name": "C3",
                    "midi": 48,
                    "time": 398.71708500000216,
                    "velocity": 0.4645669291338583,
                    "duration": 0.10576049999997394
                },
                {
                    "name": "F3",
                    "midi": 53,
                    "time": 398.82284550000213,
                    "velocity": 0.4645669291338583,
                    "duration": 0.10576049999997394
                },
                {
                    "name": "F2",
                    "midi": 41,
                    "time": 398.9286060000021,
                    "velocity": 0.49606299212598426,
                    "duration": 0.10576049999997394
                },
                {
                    "name": "A2",
                    "midi": 45,
                    "time": 399.0343665000021,
                    "velocity": 0.4566929133858268,
                    "duration": 0.10576049999997394
                },
                {
                    "name": "C3",
                    "midi": 48,
                    "time": 399.14012700000205,
                    "velocity": 0.4566929133858268,
                    "duration": 0.10576049999997394
                },
                {
                    "name": "F3",
                    "midi": 53,
                    "time": 399.245887500002,
                    "velocity": 0.4566929133858268,
                    "duration": 0.10576049999997394
                },
                {
                    "name": "F2",
                    "midi": 41,
                    "time": 399.351648000002,
                    "velocity": 0.49606299212598426,
                    "duration": 0.10576049999997394
                },
                {
                    "name": "A2",
                    "midi": 45,
                    "time": 399.457408500002,
                    "velocity": 0.44881889763779526,
                    "duration": 0.10576049999997394
                },
                {
                    "name": "C3",
                    "midi": 48,
                    "time": 399.56316900000195,
                    "velocity": 0.4566929133858268,
                    "duration": 0.10576049999997394
                },
                {
                    "name": "F3",
                    "midi": 53,
                    "time": 399.6689295000019,
                    "velocity": 0.4566929133858268,
                    "duration": 0.10576049999997394
                },
                {
                    "name": "F2",
                    "midi": 41,
                    "time": 399.7746900000019,
                    "velocity": 0.49606299212598426,
                    "duration": 0.10576049999997394
                },
                {
                    "name": "A2",
                    "midi": 45,
                    "time": 399.88045050000187,
                    "velocity": 0.4566929133858268,
                    "duration": 0.10576049999997394
                },
                {
                    "name": "C3",
                    "midi": 48,
                    "time": 399.98621100000184,
                    "velocity": 0.4645669291338583,
                    "duration": 0.10576049999997394
                },
                {
                    "name": "F3",
                    "midi": 53,
                    "time": 400.0919715000018,
                    "velocity": 0.4645669291338583,
                    "duration": 0.10576049999997394
                },
                {
                    "name": "F2",
                    "midi": 41,
                    "time": 400.1977320000018,
                    "velocity": 0.49606299212598426,
                    "duration": 0.10576049999997394
                },
                {
                    "name": "A2",
                    "midi": 45,
                    "time": 400.30349250000177,
                    "velocity": 0.44881889763779526,
                    "duration": 0.10576049999997394
                },
                {
                    "name": "C3",
                    "midi": 48,
                    "time": 400.40925300000174,
                    "velocity": 0.44881889763779526,
                    "duration": 0.10576049999997394
                },
                {
                    "name": "F3",
                    "midi": 53,
                    "time": 400.5150135000017,
                    "velocity": 0.44881889763779526,
                    "duration": 0.10576049999997394
                },
                {
                    "name": "F2",
                    "midi": 41,
                    "time": 400.6207740000017,
                    "velocity": 0.49606299212598426,
                    "duration": 0.10576049999997394
                },
                {
                    "name": "A#2",
                    "midi": 46,
                    "time": 400.72653450000166,
                    "velocity": 0.44881889763779526,
                    "duration": 0.10576049999997394
                },
                {
                    "name": "C3",
                    "midi": 48,
                    "time": 400.83229500000164,
                    "velocity": 0.44881889763779526,
                    "duration": 0.10576049999997394
                },
                {
                    "name": "G3",
                    "midi": 55,
                    "time": 400.9380555000016,
                    "velocity": 0.44881889763779526,
                    "duration": 0.10576049999997394
                },
                {
                    "name": "F2",
                    "midi": 41,
                    "time": 401.0438160000016,
                    "velocity": 0.49606299212598426,
                    "duration": 0.10576049999997394
                },
                {
                    "name": "A2",
                    "midi": 45,
                    "time": 401.14957650000156,
                    "velocity": 0.44881889763779526,
                    "duration": 0.10576049999997394
                },
                {
                    "name": "C3",
                    "midi": 48,
                    "time": 401.25533700000153,
                    "velocity": 0.44881889763779526,
                    "duration": 0.10576049999997394
                },
                {
                    "name": "F3",
                    "midi": 53,
                    "time": 401.3610975000015,
                    "velocity": 0.44881889763779526,
                    "duration": 0.10576049999997394
                },
                {
                    "name": "F2",
                    "midi": 41,
                    "time": 401.4668580000015,
                    "velocity": 0.49606299212598426,
                    "duration": 0.10576049999997394
                },
                {
                    "name": "A2",
                    "midi": 45,
                    "time": 401.57261850000145,
                    "velocity": 0.44881889763779526,
                    "duration": 0.10576049999997394
                },
                {
                    "name": "C3",
                    "midi": 48,
                    "time": 401.6783790000014,
                    "velocity": 0.44881889763779526,
                    "duration": 0.10576049999997394
                },
                {
                    "name": "F3",
                    "midi": 53,
                    "time": 401.7841395000014,
                    "velocity": 0.44881889763779526,
                    "duration": 0.10576049999997394
                },
                {
                    "name": "F2",
                    "midi": 41,
                    "time": 401.8899000000014,
                    "velocity": 0.49606299212598426,
                    "duration": 0.10576049999997394
                },
                {
                    "name": "A2",
                    "midi": 45,
                    "time": 401.99566050000135,
                    "velocity": 0.44881889763779526,
                    "duration": 0.10576049999997394
                },
                {
                    "name": "C3",
                    "midi": 48,
                    "time": 402.1014210000013,
                    "velocity": 0.4566929133858268,
                    "duration": 0.10576049999997394
                },
                {
                    "name": "F3",
                    "midi": 53,
                    "time": 402.2071815000013,
                    "velocity": 0.4566929133858268,
                    "duration": 0.10576049999997394
                },
                {
                    "name": "F2",
                    "midi": 41,
                    "time": 402.31294200000127,
                    "velocity": 0.49606299212598426,
                    "duration": 0.10576049999997394
                },
                {
                    "name": "A2",
                    "midi": 45,
                    "time": 402.41870250000125,
                    "velocity": 0.4566929133858268,
                    "duration": 0.10576049999997394
                },
                {
                    "name": "C3",
                    "midi": 48,
                    "time": 402.5244630000012,
                    "velocity": 0.4645669291338583,
                    "duration": 0.10576049999997394
                },
                {
                    "name": "F3",
                    "midi": 53,
                    "time": 402.6302235000012,
                    "velocity": 0.4645669291338583,
                    "duration": 0.10576049999997394
                },
                {
                    "name": "F2",
                    "midi": 41,
                    "time": 402.73598400000117,
                    "velocity": 0.49606299212598426,
                    "duration": 0.10576049999997394
                },
                {
                    "name": "A2",
                    "midi": 45,
                    "time": 402.84174450000114,
                    "velocity": 0.44881889763779526,
                    "duration": 0.10576049999997394
                },
                {
                    "name": "C3",
                    "midi": 48,
                    "time": 402.9475050000011,
                    "velocity": 0.44881889763779526,
                    "duration": 0.10576049999997394
                },
                {
                    "name": "F3",
                    "midi": 53,
                    "time": 403.0532655000011,
                    "velocity": 0.44881889763779526,
                    "duration": 0.10576049999997394
                },
                {
                    "name": "F2",
                    "midi": 41,
                    "time": 403.15902600000106,
                    "velocity": 0.49606299212598426,
                    "duration": 0.10576049999997394
                },
                {
                    "name": "A#2",
                    "midi": 46,
                    "time": 403.26478650000104,
                    "velocity": 0.44881889763779526,
                    "duration": 0.10576049999997394
                },
                {
                    "name": "C3",
                    "midi": 48,
                    "time": 403.370547000001,
                    "velocity": 0.44881889763779526,
                    "duration": 0.10576049999997394
                },
                {
                    "name": "G3",
                    "midi": 55,
                    "time": 403.476307500001,
                    "velocity": 0.44881889763779526,
                    "duration": 0.10576049999997394
                },
                {
                    "name": "F4",
                    "midi": 65,
                    "time": 403.58206800000096,
                    "velocity": 0.49606299212598426,
                    "duration": 0.10576049999997394
                },
                {
                    "name": "F3",
                    "midi": 53,
                    "time": 403.58206800000096,
                    "velocity": 0.49606299212598426,
                    "duration": 0.10576049999997394
                },
                {
                    "name": "A3",
                    "midi": 57,
                    "time": 403.58206800000096,
                    "velocity": 0.49606299212598426,
                    "duration": 0.10576049999997394
                },
                {
                    "name": "C4",
                    "midi": 60,
                    "time": 403.58206800000096,
                    "velocity": 0.49606299212598426,
                    "duration": 0.10576049999997394
                },
                {
                    "name": "A3",
                    "midi": 57,
                    "time": 404.0051100000009,
                    "velocity": 0.5433070866141733,
                    "duration": 0.6345630000000142
                },
                {
                    "name": "A2",
                    "midi": 45,
                    "time": 404.0051100000009,
                    "velocity": 0.4566929133858268,
                    "duration": 0.6345630000000142
                },
                {
                    "name": "C#4",
                    "midi": 61,
                    "time": 404.6396730000009,
                    "velocity": 0.49606299212598426,
                    "duration": 0.21152100000000473
                },
                {
                    "name": "C#3",
                    "midi": 49,
                    "time": 404.6396730000009,
                    "velocity": 0.49606299212598426,
                    "duration": 0.21152100000000473
                },
                {
                    "name": "D4",
                    "midi": 62,
                    "time": 404.85119400000093,
                    "velocity": 0.49606299212598426,
                    "duration": 0.10576049999997394
                },
                {
                    "name": "D3",
                    "midi": 50,
                    "time": 404.85119400000093,
                    "velocity": 0.49606299212598426,
                    "duration": 0.10576049999997394
                },
                {
                    "name": "F4",
                    "midi": 65,
                    "time": 405.2742360000009,
                    "velocity": 0.5590551181102362,
                    "duration": 0.6345630000000142
                },
                {
                    "name": "F3",
                    "midi": 53,
                    "time": 405.2742360000009,
                    "velocity": 0.47244094488188976,
                    "duration": 0.6345630000000142
                },
                {
                    "name": "A3",
                    "midi": 57,
                    "time": 405.9087990000009,
                    "velocity": 0.49606299212598426,
                    "duration": 0.21152100000000473
                },
                {
                    "name": "A#3",
                    "midi": 58,
                    "time": 406.1203200000009,
                    "velocity": 0.4409448818897638,
                    "duration": 0.05288024999998697
                },
                {
                    "name": "C4",
                    "midi": 60,
                    "time": 406.1732002500009,
                    "velocity": 0.4094488188976378,
                    "duration": 0.05288024999998697
                },
                {
                    "name": "A#3",
                    "midi": 58,
                    "time": 406.2260805000009,
                    "velocity": 0.4409448818897638,
                    "duration": 0.05288024999998697
                },
                {
                    "name": "C4",
                    "midi": 60,
                    "time": 406.27896075000086,
                    "velocity": 0.4094488188976378,
                    "duration": 0.05288024999998697
                },
                {
                    "name": "A#3",
                    "midi": 58,
                    "time": 406.33184100000085,
                    "velocity": 0.4409448818897638,
                    "duration": 0.03525350000001026
                },
                {
                    "name": "C4",
                    "midi": 60,
                    "time": 406.36709450000086,
                    "velocity": 0.4094488188976378,
                    "duration": 0.03525350000001026
                },
                {
                    "name": "A#3",
                    "midi": 58,
                    "time": 406.40234800000087,
                    "velocity": 0.4094488188976378,
                    "duration": 0.03525350000001026
                },
                {
                    "name": "A3",
                    "midi": 57,
                    "time": 406.4376015000009,
                    "velocity": 0.4409448818897638,
                    "duration": 0.05288024999998697
                },
                {
                    "name": "G3",
                    "midi": 55,
                    "time": 406.49048175000087,
                    "velocity": 0.4094488188976378,
                    "duration": 0.05288024999998697
                },
                {
                    "name": "C4",
                    "midi": 60,
                    "time": 406.54336200000085,
                    "velocity": 0.49606299212598426,
                    "duration": 0.10576049999997394
                },
                {
                    "name": "C4",
                    "midi": 60,
                    "time": 406.9664040000008,
                    "velocity": 0.5275590551181102,
                    "duration": 0.10576049999997394
                },
                {
                    "name": "C3",
                    "midi": 48,
                    "time": 406.9664040000008,
                    "velocity": 0.4409448818897638,
                    "duration": 0.10576049999997394
                },
                {
                    "name": "F3",
                    "midi": 53,
                    "time": 407.38944600000076,
                    "velocity": 0.47244094488188976,
                    "duration": 0.10576049999997394
                },
                {
                    "name": "F4",
                    "midi": 65,
                    "time": 407.38944600000076,
                    "velocity": 0.5669291338582677,
                    "duration": 0.10576049999997394
                },
                {
                    "name": "F3",
                    "midi": 53,
                    "time": 407.8124880000007,
                    "velocity": 0.5433070866141733,
                    "duration": 0.10576049999997394
                },
                {
                    "name": "F2",
                    "midi": 41,
                    "time": 407.8124880000007,
                    "velocity": 0.4566929133858268,
                    "duration": 0.10576049999997394
                },
                {
                    "name": "E3",
                    "midi": 52,
                    "time": 409.0816140000007,
                    "velocity": 0.36220472440944884,
                    "duration": 0.42304200000000947
                },
                {
                    "name": "C3",
                    "midi": 48,
                    "time": 409.5046560000007,
                    "velocity": 0.33070866141732286,
                    "duration": 0.42304200000000947
                },
                {
                    "name": "G3",
                    "midi": 55,
                    "time": 409.9276980000007,
                    "velocity": 0.36220472440944884,
                    "duration": 1.2691259999999716
                },
                {
                    "name": "E3",
                    "midi": 52,
                    "time": 411.6198660000007,
                    "velocity": 0.36220472440944884,
                    "duration": 0.42304200000000947
                },
                {
                    "name": "C3",
                    "midi": 48,
                    "time": 412.0429080000007,
                    "velocity": 0.33070866141732286,
                    "duration": 0.42304200000000947
                },
                {
                    "name": "G3",
                    "midi": 55,
                    "time": 412.4659500000007,
                    "velocity": 0.36220472440944884,
                    "duration": 1.2691260000000284
                },
                {
                    "name": "D4",
                    "midi": 62,
                    "time": 413.73507600000073,
                    "velocity": 0.2755905511811024,
                    "duration": 0.42304200000000947
                },
                {
                    "name": "F3",
                    "midi": 53,
                    "time": 413.73507600000073,
                    "velocity": 0.2283464566929134,
                    "duration": 0.42304200000000947
                },
                {
                    "name": "A3",
                    "midi": 57,
                    "time": 413.73507600000073,
                    "velocity": 0.2283464566929134,
                    "duration": 0.42304200000000947
                },
                {
                    "name": "D4",
                    "midi": 62,
                    "time": 415.00420200000076,
                    "velocity": 0.2755905511811024,
                    "duration": 0.42304200000000947
                },
                {
                    "name": "F3",
                    "midi": 53,
                    "time": 415.00420200000076,
                    "velocity": 0.2283464566929134,
                    "duration": 0.42304200000000947
                },
                {
                    "name": "A3",
                    "midi": 57,
                    "time": 415.00420200000076,
                    "velocity": 0.2283464566929134,
                    "duration": 0.42304200000000947
                },
                {
                    "name": "D4",
                    "midi": 62,
                    "time": 416.2733280000008,
                    "velocity": 0.2125984251968504,
                    "duration": 1.2691260000000284
                },
                {
                    "name": "G3",
                    "midi": 55,
                    "time": 416.2733280000008,
                    "velocity": 0.2125984251968504,
                    "duration": 1.2691260000000284
                },
                {
                    "name": "F4",
                    "midi": 65,
                    "time": 416.2733280000008,
                    "velocity": 0.25196850393700787,
                    "duration": 1.2691260000000284
                },
                {
                    "name": "E4",
                    "midi": 64,
                    "time": 417.5424540000008,
                    "velocity": 0.33070866141732286,
                    "duration": 0.42304200000000947
                },
                {
                    "name": "C4",
                    "midi": 60,
                    "time": 417.5424540000008,
                    "velocity": 0.2755905511811024,
                    "duration": 0.42304200000000947
                },
                {
                    "name": "E3",
                    "midi": 52,
                    "time": 419.23462200000085,
                    "velocity": 0.36220472440944884,
                    "duration": 0.42304200000000947
                },
                {
                    "name": "C3",
                    "midi": 48,
                    "time": 419.65766400000086,
                    "velocity": 0.3464566929133858,
                    "duration": 0.42304200000000947
                },
                {
                    "name": "G2",
                    "midi": 43,
                    "time": 420.0807060000009,
                    "velocity": 0.3779527559055118,
                    "duration": 1.2691260000000284
                },
                {
                    "name": "G3",
                    "midi": 55,
                    "time": 420.0807060000009,
                    "velocity": 0.3700787401574803,
                    "duration": 1.2691260000000284
                },
                {
                    "name": "E3",
                    "midi": 52,
                    "time": 421.7728740000009,
                    "velocity": 0.36220472440944884,
                    "duration": 0.42304200000000947
                },
                {
                    "name": "C3",
                    "midi": 48,
                    "time": 422.1959160000009,
                    "velocity": 0.3464566929133858,
                    "duration": 0.42304200000000947
                },
                {
                    "name": "G2",
                    "midi": 43,
                    "time": 422.61895800000093,
                    "velocity": 0.3779527559055118,
                    "duration": 1.2691260000000284
                },
                {
                    "name": "G3",
                    "midi": 55,
                    "time": 422.61895800000093,
                    "velocity": 0.3700787401574803,
                    "duration": 1.2691260000000284
                },
                {
                    "name": "A2",
                    "midi": 45,
                    "time": 423.88808400000096,
                    "velocity": 0.2283464566929134,
                    "duration": 0.42304200000000947
                },
                {
                    "name": "F2",
                    "midi": 41,
                    "time": 423.88808400000096,
                    "velocity": 0.2283464566929134,
                    "duration": 0.42304200000000947
                },
                {
                    "name": "D3",
                    "midi": 50,
                    "time": 423.88808400000096,
                    "velocity": 0.2755905511811024,
                    "duration": 0.42304200000000947
                },
                {
                    "name": "A2",
                    "midi": 45,
                    "time": 425.157210000001,
                    "velocity": 0.2283464566929134,
                    "duration": 0.42304200000000947
                },
                {
                    "name": "F2",
                    "midi": 41,
                    "time": 425.157210000001,
                    "velocity": 0.2283464566929134,
                    "duration": 0.42304200000000947
                },
                {
                    "name": "D3",
                    "midi": 50,
                    "time": 425.157210000001,
                    "velocity": 0.2755905511811024,
                    "duration": 0.42304200000000947
                },
                {
                    "name": "F3",
                    "midi": 53,
                    "time": 426.426336000001,
                    "velocity": 0.28346456692913385,
                    "duration": 0.42304200000000947
                },
                {
                    "name": "D3",
                    "midi": 50,
                    "time": 426.426336000001,
                    "velocity": 0.23622047244094488,
                    "duration": 0.42304200000000947
                },
                {
                    "name": "G2",
                    "midi": 43,
                    "time": 426.426336000001,
                    "velocity": 0.23622047244094488,
                    "duration": 0.42304200000000947
                },
                {
                    "name": "C3",
                    "midi": 48,
                    "time": 427.69546200000104,
                    "velocity": 0.25196850393700787,
                    "duration": 0.42304200000000947
                },
                {
                    "name": "E3",
                    "midi": 52,
                    "time": 427.69546200000104,
                    "velocity": 0.29133858267716534,
                    "duration": 0.42304200000000947
                },
                {
                    "name": "E4",
                    "midi": 64,
                    "time": 428.11850400000105,
                    "velocity": 0.31496062992125984,
                    "duration": 0.42304200000000947
                },
                {
                    "name": "C4",
                    "midi": 60,
                    "time": 428.54154600000106,
                    "velocity": 0.29133858267716534,
                    "duration": 0.42304200000000947
                },
                {
                    "name": "D4",
                    "midi": 62,
                    "time": 428.9645880000011,
                    "velocity": 0.31496062992125984,
                    "duration": 0.42304200000000947
                },
                {
                    "name": "B3",
                    "midi": 59,
                    "time": 429.3876300000011,
                    "velocity": 0.2992125984251969,
                    "duration": 0.42304200000000947
                },
                {
                    "name": "G3",
                    "midi": 55,
                    "time": 429.8106720000011,
                    "velocity": 0.2992125984251969,
                    "duration": 0.42304200000000947
                },
                {
                    "name": "C3",
                    "midi": 48,
                    "time": 430.2337140000011,
                    "velocity": 0.31496062992125984,
                    "duration": 0.42304200000000947
                },
                {
                    "name": "D#3",
                    "midi": 51,
                    "time": 430.6567560000011,
                    "velocity": 0.31496062992125984,
                    "duration": 0.42304200000000947
                },
                {
                    "name": "C3",
                    "midi": 48,
                    "time": 431.0797980000011,
                    "velocity": 0.29133858267716534,
                    "duration": 0.42304200000000947
                },
                {
                    "name": "D3",
                    "midi": 50,
                    "time": 431.50284000000113,
                    "velocity": 0.31496062992125984,
                    "duration": 0.42304200000000947
                },
                {
                    "name": "B2",
                    "midi": 47,
                    "time": 431.92588200000114,
                    "velocity": 0.2992125984251969,
                    "duration": 0.42304200000000947
                },
                {
                    "name": "G2",
                    "midi": 43,
                    "time": 432.34892400000115,
                    "velocity": 0.2992125984251969,
                    "duration": 0.42304200000000947
                },
                {
                    "name": "C3",
                    "midi": 48,
                    "time": 432.77196600000116,
                    "velocity": 0.5433070866141733,
                    "duration": 0.42304200000000947
                },
                {
                    "name": "C2",
                    "midi": 36,
                    "time": 432.77196600000116,
                    "velocity": 0.4566929133858268,
                    "duration": 0.42304200000000947
                },
                {
                    "name": "C4",
                    "midi": 60,
                    "time": 433.19500800000117,
                    "velocity": 0.31496062992125984,
                    "duration": 0.42304200000000947
                },
                {
                    "name": "C3",
                    "midi": 48,
                    "time": 433.6180500000012,
                    "velocity": 0.31496062992125984,
                    "duration": 0.42304200000000947
                },
                {
                    "name": "A2",
                    "midi": 45,
                    "time": 434.0410920000012,
                    "velocity": 0.5433070866141733,
                    "duration": 0.42304200000000947
                },
                {
                    "name": "A1",
                    "midi": 33,
                    "time": 434.0410920000012,
                    "velocity": 0.4566929133858268,
                    "duration": 0.42304200000000947
                },
                {
                    "name": "A3",
                    "midi": 57,
                    "time": 434.4641340000012,
                    "velocity": 0.31496062992125984,
                    "duration": 0.42304200000000947
                },
                {
                    "name": "A2",
                    "midi": 45,
                    "time": 434.8871760000012,
                    "velocity": 0.31496062992125984,
                    "duration": 0.42304200000000947
                },
                {
                    "name": "A#1",
                    "midi": 34,
                    "time": 435.3102180000012,
                    "velocity": 0.4566929133858268,
                    "duration": 0.42304200000000947
                },
                {
                    "name": "A#2",
                    "midi": 46,
                    "time": 435.3102180000012,
                    "velocity": 0.5433070866141733,
                    "duration": 0.42304200000000947
                },
                {
                    "name": "A#3",
                    "midi": 58,
                    "time": 435.7332600000012,
                    "velocity": 0.31496062992125984,
                    "duration": 0.42304200000000947
                },
                {
                    "name": "A#2",
                    "midi": 46,
                    "time": 436.15630200000123,
                    "velocity": 0.31496062992125984,
                    "duration": 0.42304200000000947
                },
                {
                    "name": "F#1",
                    "midi": 30,
                    "time": 436.57934400000124,
                    "velocity": 0.4566929133858268,
                    "duration": 0.42304200000000947
                },
                {
                    "name": "F#2",
                    "midi": 42,
                    "time": 436.57934400000124,
                    "velocity": 0.5433070866141733,
                    "duration": 0.42304200000000947
                },
                {
                    "name": "F#3",
                    "midi": 54,
                    "time": 437.00238600000125,
                    "velocity": 0.31496062992125984,
                    "duration": 0.42304200000000947
                },
                {
                    "name": "F#2",
                    "midi": 42,
                    "time": 437.42542800000126,
                    "velocity": 0.31496062992125984,
                    "duration": 0.42304200000000947
                },
                {
                    "name": "G2",
                    "midi": 43,
                    "time": 437.84847000000127,
                    "velocity": 0.5433070866141733,
                    "duration": 0.42304200000000947
                },
                {
                    "name": "G1",
                    "midi": 31,
                    "time": 437.84847000000127,
                    "velocity": 0.4566929133858268,
                    "duration": 0.42304200000000947
                },
                {
                    "name": "G3",
                    "midi": 55,
                    "time": 438.2715120000013,
                    "velocity": 0.31496062992125984,
                    "duration": 0.42304200000000947
                },
                {
                    "name": "G2",
                    "midi": 43,
                    "time": 438.6945540000013,
                    "velocity": 0.31496062992125984,
                    "duration": 0.42304200000000947
                },
                {
                    "name": "E2",
                    "midi": 40,
                    "time": 439.1175960000013,
                    "velocity": 0.4566929133858268,
                    "duration": 0.42304200000000947
                },
                {
                    "name": "E3",
                    "midi": 52,
                    "time": 439.1175960000013,
                    "velocity": 0.5433070866141733,
                    "duration": 0.42304200000000947
                },
                {
                    "name": "E4",
                    "midi": 64,
                    "time": 439.5406380000013,
                    "velocity": 0.31496062992125984,
                    "duration": 0.42304200000000947
                },
                {
                    "name": "E3",
                    "midi": 52,
                    "time": 439.9636800000013,
                    "velocity": 0.31496062992125984,
                    "duration": 0.42304200000000947
                },
                {
                    "name": "F2",
                    "midi": 41,
                    "time": 440.3867220000013,
                    "velocity": 0.4566929133858268,
                    "duration": 0.42304200000000947
                },
                {
                    "name": "F3",
                    "midi": 53,
                    "time": 440.3867220000013,
                    "velocity": 0.5433070866141733,
                    "duration": 0.42304200000000947
                },
                {
                    "name": "F4",
                    "midi": 65,
                    "time": 440.80976400000134,
                    "velocity": 0.31496062992125984,
                    "duration": 0.42304200000000947
                },
                {
                    "name": "F3",
                    "midi": 53,
                    "time": 441.23280600000135,
                    "velocity": 0.31496062992125984,
                    "duration": 0.42304200000000947
                },
                {
                    "name": "C#2",
                    "midi": 37,
                    "time": 441.65584800000136,
                    "velocity": 0.4566929133858268,
                    "duration": 0.42304200000000947
                },
                {
                    "name": "C#3",
                    "midi": 49,
                    "time": 441.65584800000136,
                    "velocity": 0.5433070866141733,
                    "duration": 0.42304200000000947
                },
                {
                    "name": "C#4",
                    "midi": 61,
                    "time": 442.07889000000137,
                    "velocity": 0.31496062992125984,
                    "duration": 0.42304200000000947
                },
                {
                    "name": "C#3",
                    "midi": 49,
                    "time": 442.5019320000014,
                    "velocity": 0.31496062992125984,
                    "duration": 0.42304200000000947
                },
                {
                    "name": "D3",
                    "midi": 50,
                    "time": 442.9249740000014,
                    "velocity": 0.5433070866141733,
                    "duration": 0.42304200000000947
                },
                {
                    "name": "D2",
                    "midi": 38,
                    "time": 442.9249740000014,
                    "velocity": 0.4566929133858268,
                    "duration": 0.42304200000000947
                },
                {
                    "name": "D4",
                    "midi": 62,
                    "time": 443.3480160000014,
                    "velocity": 0.31496062992125984,
                    "duration": 0.42304200000000947
                },
                {
                    "name": "D3",
                    "midi": 50,
                    "time": 443.7710580000014,
                    "velocity": 0.31496062992125984,
                    "duration": 0.42304200000000947
                },
                {
                    "name": "A#2",
                    "midi": 46,
                    "time": 444.1941000000014,
                    "velocity": 0.5433070866141733,
                    "duration": 0.42304200000000947
                },
                {
                    "name": "A#1",
                    "midi": 34,
                    "time": 444.1941000000014,
                    "velocity": 0.4566929133858268,
                    "duration": 0.42304200000000947
                },
                {
                    "name": "A#3",
                    "midi": 58,
                    "time": 444.6171420000014,
                    "velocity": 0.31496062992125984,
                    "duration": 0.42304200000000947
                },
                {
                    "name": "A#2",
                    "midi": 46,
                    "time": 445.04018400000143,
                    "velocity": 0.31496062992125984,
                    "duration": 0.42304200000000947
                },
                {
                    "name": "A2",
                    "midi": 45,
                    "time": 445.46322600000144,
                    "velocity": 0.3464566929133858,
                    "duration": 0.42304200000000947
                },
                {
                    "name": "G#4",
                    "midi": 68,
                    "time": 446.52083100000146,
                    "velocity": 0.2992125984251969,
                    "duration": 0.21152100000000473
                },
                {
                    "name": "A4",
                    "midi": 69,
                    "time": 446.73235200000147,
                    "velocity": 0.3228346456692913,
                    "duration": 0.42304200000000947
                },
                {
                    "name": "G#3",
                    "midi": 56,
                    "time": 447.7899570000015,
                    "velocity": 0.25196850393700787,
                    "duration": 0.2203343749999931
                },
                {
                    "name": "A3",
                    "midi": 57,
                    "time": 448.0014780000015,
                    "velocity": 0.30708661417322836,
                    "duration": 0.2203343749999931
                },
                {
                    "name": "G#3",
                    "midi": 56,
                    "time": 448.2129990000015,
                    "velocity": 0.2755905511811024,
                    "duration": 0.2203343749999931
                },
                {
                    "name": "A3",
                    "midi": 57,
                    "time": 448.4245200000015,
                    "velocity": 0.30708661417322836,
                    "duration": 0.2203343749999931
                },
                {
                    "name": "G#3",
                    "midi": 56,
                    "time": 448.6360410000015,
                    "velocity": 0.2440944881889764,
                    "duration": 0.2203343749999931
                },
                {
                    "name": "A3",
                    "midi": 57,
                    "time": 448.8475620000015,
                    "velocity": 0.30708661417322836,
                    "duration": 0.2203343749999931
                },
                {
                    "name": "G#3",
                    "midi": 56,
                    "time": 449.0590830000015,
                    "velocity": 0.25196850393700787,
                    "duration": 0.2203343749999931
                },
                {
                    "name": "A3",
                    "midi": 57,
                    "time": 449.2706040000015,
                    "velocity": 0.30708661417322836,
                    "duration": 0.42304200000000947
                },
                {
                    "name": "A3",
                    "midi": 57,
                    "time": 450.53973000000155,
                    "velocity": 0.2440944881889764,
                    "duration": 0.2203343749999931
                },
                {
                    "name": "G#3",
                    "midi": 56,
                    "time": 450.75125100000156,
                    "velocity": 0.2204724409448819,
                    "duration": 0.2203343749999931
                },
                {
                    "name": "A3",
                    "midi": 57,
                    "time": 450.96277200000156,
                    "velocity": 0.2440944881889764,
                    "duration": 0.2203343749999931
                },
                {
                    "name": "G#3",
                    "midi": 56,
                    "time": 451.17429300000157,
                    "velocity": 0.1889763779527559,
                    "duration": 0.2203343749999931
                },
                {
                    "name": "A3",
                    "midi": 57,
                    "time": 451.3858140000016,
                    "velocity": 0.2440944881889764,
                    "duration": 0.2203343749999931
                },
                {
                    "name": "G#3",
                    "midi": 56,
                    "time": 451.5973350000016,
                    "velocity": 0.1968503937007874,
                    "duration": 0.2203343749999931
                },
                {
                    "name": "A3",
                    "midi": 57,
                    "time": 451.8088560000016,
                    "velocity": 0.2440944881889764,
                    "duration": 0.42304200000000947
                },
                {
                    "name": "G3",
                    "midi": 55,
                    "time": 453.0779820000016,
                    "velocity": 0.49606299212598426,
                    "duration": 0.2203343749999931
                },
                {
                    "name": "A3",
                    "midi": 57,
                    "time": 453.2895030000016,
                    "velocity": 0.44881889763779526,
                    "duration": 0.2203343749999931
                },
                {
                    "name": "G3",
                    "midi": 55,
                    "time": 453.5010240000016,
                    "velocity": 0.49606299212598426,
                    "duration": 0.2203343749999931
                },
                {
                    "name": "A3",
                    "midi": 57,
                    "time": 453.7125450000016,
                    "velocity": 0.3858267716535433,
                    "duration": 0.2203343749999931
                },
                {
                    "name": "G3",
                    "midi": 55,
                    "time": 453.92406600000163,
                    "velocity": 0.49606299212598426,
                    "duration": 0.2203343749999931
                },
                {
                    "name": "A3",
                    "midi": 57,
                    "time": 454.13558700000164,
                    "velocity": 0.4015748031496063,
                    "duration": 0.2203343749999931
                },
                {
                    "name": "G3",
                    "midi": 55,
                    "time": 454.34710800000164,
                    "velocity": 0.49606299212598426,
                    "duration": 0.42304200000000947
                },
                {
                    "name": "C4",
                    "midi": 60,
                    "time": 455.61623400000167,
                    "velocity": 0.2283464566929134,
                    "duration": 1.6921680000000379
                },
                {
                    "name": "G4",
                    "midi": 67,
                    "time": 455.61623400000167,
                    "velocity": 0.30708661417322836,
                    "duration": 0.2203343749999931
                },
                {
                    "name": "F#4",
                    "midi": 66,
                    "time": 455.8277550000017,
                    "velocity": 0.2755905511811024,
                    "duration": 0.2203343749999931
                },
                {
                    "name": "G4",
                    "midi": 67,
                    "time": 456.0392760000017,
                    "velocity": 0.30708661417322836,
                    "duration": 0.2203343749999931
                },
                {
                    "name": "F#4",
                    "midi": 66,
                    "time": 456.2507970000017,
                    "velocity": 0.2440944881889764,
                    "duration": 0.2203343749999931
                },
                {
                    "name": "G4",
                    "midi": 67,
                    "time": 456.4623180000017,
                    "velocity": 0.30708661417322836,
                    "duration": 0.2203343749999931
                },
                {
                    "name": "F#4",
                    "midi": 66,
                    "time": 456.6738390000017,
                    "velocity": 0.25196850393700787,
                    "duration": 0.2203343749999931
                },
                {
                    "name": "G4",
                    "midi": 67,
                    "time": 456.8853600000017,
                    "velocity": 0.30708661417322836,
                    "duration": 0.42304200000000947
                },
                {
                    "name": "F3",
                    "midi": 53,
                    "time": 458.1544860000017,
                    "velocity": 0.31496062992125984,
                    "duration": 0.21152100000000473
                },
                {
                    "name": "A3",
                    "midi": 57,
                    "time": 458.36600700000173,
                    "velocity": 0.23622047244094488,
                    "duration": 0.21152100000000473
                },
                {
                    "name": "C4",
                    "midi": 60,
                    "time": 458.57752800000173,
                    "velocity": 0.25984251968503935,
                    "duration": 0.21152100000000473
                },
                {
                    "name": "A3",
                    "midi": 57,
                    "time": 458.78904900000174,
                    "velocity": 0.23622047244094488,
                    "duration": 0.21152100000000473
                },
                {
                    "name": "C4",
                    "midi": 60,
                    "time": 459.00057000000174,
                    "velocity": 0.2677165354330709,
                    "duration": 0.21152100000000473
                },
                {
                    "name": "A3",
                    "midi": 57,
                    "time": 459.21209100000175,
                    "velocity": 0.23622047244094488,
                    "duration": 0.21152100000000473
                },
                {
                    "name": "F3",
                    "midi": 53,
                    "time": 459.42361200000175,
                    "velocity": 0.31496062992125984,
                    "duration": 0.21152100000000473
                },
                {
                    "name": "C4",
                    "midi": 60,
                    "time": 459.63513300000176,
                    "velocity": 0.2283464566929134,
                    "duration": 0.21152100000000473
                },
                {
                    "name": "D#4",
                    "midi": 63,
                    "time": 459.84665400000176,
                    "velocity": 0.2440944881889764,
                    "duration": 0.21152100000000473
                },
                {
                    "name": "C4",
                    "midi": 60,
                    "time": 460.05817500000177,
                    "velocity": 0.2125984251968504,
                    "duration": 0.21152100000000473
                },
                {
                    "name": "D#4",
                    "midi": 63,
                    "time": 460.2696960000018,
                    "velocity": 0.2440944881889764,
                    "duration": 0.21152100000000473
                },
                {
                    "name": "C4",
                    "midi": 60,
                    "time": 460.4812170000018,
                    "velocity": 0.2204724409448819,
                    "duration": 0.21152100000000473
                },
                {
                    "name": "F3",
                    "midi": 53,
                    "time": 460.6927380000018,
                    "velocity": 0.31496062992125984,
                    "duration": 0.21152100000000473
                },
                {
                    "name": "A#3",
                    "midi": 58,
                    "time": 460.9042590000018,
                    "velocity": 0.23622047244094488,
                    "duration": 0.21152100000000473
                },
                {
                    "name": "D4",
                    "midi": 62,
                    "time": 461.1157800000018,
                    "velocity": 0.25984251968503935,
                    "duration": 0.21152100000000473
                },
                {
                    "name": "A#3",
                    "midi": 58,
                    "time": 461.3273010000018,
                    "velocity": 0.23622047244094488,
                    "duration": 0.21152100000000473
                },
                {
                    "name": "D4",
                    "midi": 62,
                    "time": 461.5388220000018,
                    "velocity": 0.25984251968503935,
                    "duration": 0.21152100000000473
                },
                {
                    "name": "A#3",
                    "midi": 58,
                    "time": 461.7503430000018,
                    "velocity": 0.23622047244094488,
                    "duration": 0.21152100000000473
                },
                {
                    "name": "F3",
                    "midi": 53,
                    "time": 461.9618640000018,
                    "velocity": 0.31496062992125984,
                    "duration": 0.21152100000000473
                },
                {
                    "name": "G3",
                    "midi": 55,
                    "time": 462.1733850000018,
                    "velocity": 0.18110236220472442,
                    "duration": 0.21152100000000473
                },
                {
                    "name": "A#3",
                    "midi": 58,
                    "time": 462.3849060000018,
                    "velocity": 0.2204724409448819,
                    "duration": 0.21152100000000473
                },
                {
                    "name": "G3",
                    "midi": 55,
                    "time": 462.5964270000018,
                    "velocity": 0.1889763779527559,
                    "duration": 0.21152100000000473
                },
                {
                    "name": "A#3",
                    "midi": 58,
                    "time": 462.80794800000183,
                    "velocity": 0.2283464566929134,
                    "duration": 0.21152100000000473
                },
                {
                    "name": "G3",
                    "midi": 55,
                    "time": 463.01946900000183,
                    "velocity": 0.1889763779527559,
                    "duration": 0.21152100000000473
                },
                {
                    "name": "F3",
                    "midi": 53,
                    "time": 463.23099000000184,
                    "velocity": 0.23622047244094488,
                    "duration": 0.42304200000000947
                },
                {
                    "name": "A3",
                    "midi": 57,
                    "time": 463.23099000000184,
                    "velocity": 0.23622047244094488,
                    "duration": 0.42304200000000947
                },
                {
                    "name": "F3",
                    "midi": 53,
                    "time": 465.76924200000184,
                    "velocity": 0.3700787401574803,
                    "duration": 0.42304200000000947
                },
                {
                    "name": "A2",
                    "midi": 45,
                    "time": 466.19228400000185,
                    "velocity": 0.3464566929133858,
                    "duration": 0.42304200000000947
                },
                {
                    "name": "D3",
                    "midi": 50,
                    "time": 466.61532600000186,
                    "velocity": 0.3779527559055118,
                    "duration": 0.42304200000000947
                },
                {
                    "name": "G2",
                    "midi": 43,
                    "time": 467.03836800000187,
                    "velocity": 0.3779527559055118,
                    "duration": 0.42304200000000947
                },
                {
                    "name": "C3",
                    "midi": 48,
                    "time": 467.4614100000019,
                    "velocity": 0.3858267716535433,
                    "duration": 0.6345630000000142
                },
                {
                    "name": "A2",
                    "midi": 45,
                    "time": 468.0959730000019,
                    "velocity": 0.3700787401574803,
                    "duration": 0.21152100000000473
                },
                {
                    "name": "F2",
                    "midi": 41,
                    "time": 468.3074940000019,
                    "velocity": 0.4094488188976378,
                    "duration": 0.42304200000000947
                },
                {
                    "name": "D3",
                    "midi": 50,
                    "time": 468.7305360000019,
                    "velocity": 0.31496062992125984,
                    "duration": 0.42304200000000947
                },
                {
                    "name": "A#2",
                    "midi": 46,
                    "time": 469.1535780000019,
                    "velocity": 0.3464566929133858,
                    "duration": 0.42304200000000947
                },
                {
                    "name": "A2",
                    "midi": 45,
                    "time": 469.5766200000019,
                    "velocity": 0.3700787401574803,
                    "duration": 0.42304200000000947
                },
                {
                    "name": "D3",
                    "midi": 50,
                    "time": 470.42270400000194,
                    "velocity": 0.31496062992125984,
                    "duration": 0.42304200000000947
                },
                {
                    "name": "A#2",
                    "midi": 46,
                    "time": 470.84574600000195,
                    "velocity": 0.31496062992125984,
                    "duration": 0.42304200000000947
                },
                {
                    "name": "C3",
                    "midi": 48,
                    "time": 471.69183000000197,
                    "velocity": 0.3228346456692913,
                    "duration": 0.42304200000000947
                },
                {
                    "name": "F2",
                    "midi": 41,
                    "time": 472.114872000002,
                    "velocity": 0.33858267716535434,
                    "duration": 0.42304200000000947
                },
                {
                    "name": "C5",
                    "midi": 72,
                    "time": 472.960956000002,
                    "velocity": 0.31496062992125984,
                    "duration": 0.3172814999999787
                },
                {
                    "name": "A4",
                    "midi": 69,
                    "time": 472.960956000002,
                    "velocity": 0.25196850393700787,
                    "duration": 0.3172814999999787
                },
                {
                    "name": "G4",
                    "midi": 67,
                    "time": 473.278237500002,
                    "velocity": 0.2204724409448819,
                    "duration": 0.10576049999997394
                },
                {
                    "name": "A#4",
                    "midi": 70,
                    "time": 473.278237500002,
                    "velocity": 0.2755905511811024,
                    "duration": 0.10576049999997394
                },
                {
                    "name": "A4",
                    "midi": 69,
                    "time": 473.38399800000195,
                    "velocity": 0.31496062992125984,
                    "duration": 0.10576049999997394
                },
                {
                    "name": "F4",
                    "midi": 65,
                    "time": 473.38399800000195,
                    "velocity": 0.25196850393700787,
                    "duration": 0.10576049999997394
                },
                {
                    "name": "F4",
                    "midi": 65,
                    "time": 473.8070400000019,
                    "velocity": 0.25196850393700787,
                    "duration": 0.10576049999997394
                },
                {
                    "name": "A4",
                    "midi": 69,
                    "time": 473.8070400000019,
                    "velocity": 0.31496062992125984,
                    "duration": 0.10576049999997394
                },
                {
                    "name": "F4",
                    "midi": 65,
                    "time": 474.23008200000186,
                    "velocity": 0.2283464566929134,
                    "duration": 0.3172814999999787
                },
                {
                    "name": "A4",
                    "midi": 69,
                    "time": 474.23008200000186,
                    "velocity": 0.29133858267716534,
                    "duration": 0.3172814999999787
                },
                {
                    "name": "G4",
                    "midi": 67,
                    "time": 474.54736350000184,
                    "velocity": 0.25984251968503935,
                    "duration": 0.10576049999997394
                },
                {
                    "name": "C4",
                    "midi": 60,
                    "time": 474.54736350000184,
                    "velocity": 0.2047244094488189,
                    "duration": 0.10576049999997394
                },
                {
                    "name": "F4",
                    "midi": 65,
                    "time": 474.6531240000018,
                    "velocity": 0.2992125984251969,
                    "duration": 0.10576049999997394
                },
                {
                    "name": "A3",
                    "midi": 57,
                    "time": 474.6531240000018,
                    "velocity": 0.23622047244094488,
                    "duration": 0.10576049999997394
                },
                {
                    "name": "F4",
                    "midi": 65,
                    "time": 475.07616600000176,
                    "velocity": 0.2755905511811024,
                    "duration": 0.10576049999997394
                },
                {
                    "name": "A3",
                    "midi": 57,
                    "time": 475.07616600000176,
                    "velocity": 0.2204724409448819,
                    "duration": 0.10576049999997394
                },
                {
                    "name": "F4",
                    "midi": 65,
                    "time": 475.4992080000017,
                    "velocity": 0.2755905511811024,
                    "duration": 0.42304200000000947
                },
                {
                    "name": "A3",
                    "midi": 57,
                    "time": 475.4992080000017,
                    "velocity": 0.2204724409448819,
                    "duration": 0.42304200000000947
                },
                {
                    "name": "C4",
                    "midi": 60,
                    "time": 475.9222500000017,
                    "velocity": 0.2204724409448819,
                    "duration": 0.10576049999997394
                },
                {
                    "name": "G4",
                    "midi": 67,
                    "time": 475.9222500000017,
                    "velocity": 0.28346456692913385,
                    "duration": 0.10576049999997394
                },
                {
                    "name": "G4",
                    "midi": 67,
                    "time": 476.3452920000017,
                    "velocity": 0.2755905511811024,
                    "duration": 0.10576049999997394
                },
                {
                    "name": "C4",
                    "midi": 60,
                    "time": 476.3452920000017,
                    "velocity": 0.2204724409448819,
                    "duration": 0.10576049999997394
                },
                {
                    "name": "C4",
                    "midi": 60,
                    "time": 476.76833400000163,
                    "velocity": 0.2204724409448819,
                    "duration": 0.10576049999997394
                },
                {
                    "name": "G4",
                    "midi": 67,
                    "time": 476.76833400000163,
                    "velocity": 0.2755905511811024,
                    "duration": 0.10576049999997394
                },
                {
                    "name": "G4",
                    "midi": 67,
                    "time": 477.1913760000016,
                    "velocity": 0.31496062992125984,
                    "duration": 0.42304200000000947
                },
                {
                    "name": "C4",
                    "midi": 60,
                    "time": 477.1913760000016,
                    "velocity": 0.25196850393700787,
                    "duration": 0.42304200000000947
                },
                {
                    "name": "A4",
                    "midi": 69,
                    "time": 477.6144180000016,
                    "velocity": 0.2755905511811024,
                    "duration": 0.42304200000000947
                },
                {
                    "name": "F4",
                    "midi": 65,
                    "time": 477.6144180000016,
                    "velocity": 0.2204724409448819,
                    "duration": 0.42304200000000947
                },
                {
                    "name": "C5",
                    "midi": 72,
                    "time": 478.0374600000016,
                    "velocity": 0.31496062992125984,
                    "duration": 0.3172814999999787
                },
                {
                    "name": "A4",
                    "midi": 69,
                    "time": 478.0374600000016,
                    "velocity": 0.25196850393700787,
                    "duration": 0.3172814999999787
                },
                {
                    "name": "A#4",
                    "midi": 70,
                    "time": 478.3547415000016,
                    "velocity": 0.2755905511811024,
                    "duration": 0.10576049999997394
                },
                {
                    "name": "G4",
                    "midi": 67,
                    "time": 478.3547415000016,
                    "velocity": 0.2204724409448819,
                    "duration": 0.10576049999997394
                },
                {
                    "name": "F4",
                    "midi": 65,
                    "time": 478.46050200000155,
                    "velocity": 0.25196850393700787,
                    "duration": 0.10576049999997394
                },
                {
                    "name": "A4",
                    "midi": 69,
                    "time": 478.46050200000155,
                    "velocity": 0.31496062992125984,
                    "duration": 0.10576049999997394
                },
                {
                    "name": "F4",
                    "midi": 65,
                    "time": 478.8835440000015,
                    "velocity": 0.25196850393700787,
                    "duration": 0.10576049999997394
                },
                {
                    "name": "A4",
                    "midi": 69,
                    "time": 478.8835440000015,
                    "velocity": 0.31496062992125984,
                    "duration": 0.10576049999997394
                },
                {
                    "name": "A4",
                    "midi": 69,
                    "time": 479.30658600000146,
                    "velocity": 0.29133858267716534,
                    "duration": 0.3172814999999787
                },
                {
                    "name": "F4",
                    "midi": 65,
                    "time": 479.30658600000146,
                    "velocity": 0.2283464566929134,
                    "duration": 0.3172814999999787
                },
                {
                    "name": "G4",
                    "midi": 67,
                    "time": 479.62386750000144,
                    "velocity": 0.25984251968503935,
                    "duration": 0.10576049999997394
                },
                {
                    "name": "C4",
                    "midi": 60,
                    "time": 479.62386750000144,
                    "velocity": 0.2047244094488189,
                    "duration": 0.10576049999997394
                },
                {
                    "name": "F4",
                    "midi": 65,
                    "time": 479.7296280000014,
                    "velocity": 0.2992125984251969,
                    "duration": 0.10576049999997394
                },
                {
                    "name": "A3",
                    "midi": 57,
                    "time": 479.7296280000014,
                    "velocity": 0.23622047244094488,
                    "duration": 0.10576049999997394
                },
                {
                    "name": "A3",
                    "midi": 57,
                    "time": 480.15267000000136,
                    "velocity": 0.2204724409448819,
                    "duration": 0.10576049999997394
                },
                {
                    "name": "F4",
                    "midi": 65,
                    "time": 480.15267000000136,
                    "velocity": 0.2755905511811024,
                    "duration": 0.10576049999997394
                },
                {
                    "name": "A3",
                    "midi": 57,
                    "time": 480.5757120000013,
                    "velocity": 0.2204724409448819,
                    "duration": 0.10576049999997394
                },
                {
                    "name": "F4",
                    "midi": 65,
                    "time": 480.5757120000013,
                    "velocity": 0.2755905511811024,
                    "duration": 0.10576049999997394
                },
                {
                    "name": "G4",
                    "midi": 67,
                    "time": 480.99875400000127,
                    "velocity": 0.29133858267716534,
                    "duration": 0.42304200000000947
                },
                {
                    "name": "C4",
                    "midi": 60,
                    "time": 480.99875400000127,
                    "velocity": 0.2283464566929134,
                    "duration": 0.42304200000000947
                },
                {
                    "name": "C4",
                    "midi": 60,
                    "time": 481.8448380000013,
                    "velocity": 0.2204724409448819,
                    "duration": 0.42304200000000947
                },
                {
                    "name": "G4",
                    "midi": 67,
                    "time": 481.8448380000013,
                    "velocity": 0.2755905511811024,
                    "duration": 0.42304200000000947
                },
                {
                    "name": "F4",
                    "midi": 65,
                    "time": 482.2678800000013,
                    "velocity": 0.30708661417322836,
                    "duration": 0.42304200000000947
                },
                {
                    "name": "A#4",
                    "midi": 70,
                    "time": 483.1139640000013,
                    "velocity": 0.2755905511811024,
                    "duration": 0.42304200000000947
                },
                {
                    "name": "C4",
                    "midi": 60,
                    "time": 483.1139640000013,
                    "velocity": 0.2204724409448819,
                    "duration": 0.42304200000000947
                },
                {
                    "name": "E4",
                    "midi": 64,
                    "time": 483.1139640000013,
                    "velocity": 0.2204724409448819,
                    "duration": 0.42304200000000947
                },
                {
                    "name": "A4",
                    "midi": 69,
                    "time": 483.5370060000013,
                    "velocity": 0.30708661417322836,
                    "duration": 0.42304200000000947
                },
                {
                    "name": "F4",
                    "midi": 65,
                    "time": 483.5370060000013,
                    "velocity": 0.2440944881889764,
                    "duration": 0.42304200000000947
                },
                {
                    "name": "A#3",
                    "midi": 58,
                    "time": 484.38309000000135,
                    "velocity": 0.2440944881889764,
                    "duration": 0.42304200000000947
                },
                {
                    "name": "E3",
                    "midi": 52,
                    "time": 484.38309000000135,
                    "velocity": 0.1968503937007874,
                    "duration": 0.42304200000000947
                },
                {
                    "name": "C3",
                    "midi": 48,
                    "time": 484.38309000000135,
                    "velocity": 0.1968503937007874,
                    "duration": 0.42304200000000947
                },
                {
                    "name": "F3",
                    "midi": 53,
                    "time": 484.80613200000136,
                    "velocity": 0.2125984251968504,
                    "duration": 0.42304200000000947
                },
                {
                    "name": "A3",
                    "midi": 57,
                    "time": 484.80613200000136,
                    "velocity": 0.2755905511811024,
                    "duration": 0.42304200000000947
                },
                {
                    "name": "C#2",
                    "midi": 37,
                    "time": 485.6522160000014,
                    "velocity": 0.4015748031496063,
                    "duration": 0.42304200000000947
                },
                {
                    "name": "C#3",
                    "midi": 49,
                    "time": 485.6522160000014,
                    "velocity": 0.47244094488188976,
                    "duration": 0.42304200000000947
                },
                {
                    "name": "D3",
                    "midi": 50,
                    "time": 486.0752580000014,
                    "velocity": 0.5196850393700787,
                    "duration": 0.21152100000000473
                },
                {
                    "name": "D2",
                    "midi": 38,
                    "time": 486.0752580000014,
                    "velocity": 0.4409448818897638,
                    "duration": 0.21152100000000473
                },
                {
                    "name": "F3",
                    "midi": 53,
                    "time": 486.2867790000014,
                    "velocity": 0.47244094488188976,
                    "duration": 0.21152100000000473
                },
                {
                    "name": "A3",
                    "midi": 57,
                    "time": 486.4983000000014,
                    "velocity": 0.47244094488188976,
                    "duration": 0.21152100000000473
                },
                {
                    "name": "F3",
                    "midi": 53,
                    "time": 486.7098210000014,
                    "velocity": 0.47244094488188976,
                    "duration": 0.21152100000000473
                },
                {
                    "name": "A3",
                    "midi": 57,
                    "time": 486.9213420000014,
                    "velocity": 0.49606299212598426,
                    "duration": 0.21152100000000473
                },
                {
                    "name": "F3",
                    "midi": 53,
                    "time": 487.1328630000014,
                    "velocity": 0.47244094488188976,
                    "duration": 0.21152100000000473
                },
                {
                    "name": "D3",
                    "midi": 50,
                    "time": 487.3443840000014,
                    "velocity": 0.5118110236220472,
                    "duration": 0.21152100000000473
                },
                {
                    "name": "F3",
                    "midi": 53,
                    "time": 487.5559050000014,
                    "velocity": 0.47244094488188976,
                    "duration": 0.21152100000000473
                },
                {
                    "name": "A3",
                    "midi": 57,
                    "time": 487.7674260000014,
                    "velocity": 0.49606299212598426,
                    "duration": 0.21152100000000473
                },
                {
                    "name": "F3",
                    "midi": 53,
                    "time": 487.9789470000014,
                    "velocity": 0.47244094488188976,
                    "duration": 0.21152100000000473
                },
                {
                    "name": "A3",
                    "midi": 57,
                    "time": 488.19046800000143,
                    "velocity": 0.47244094488188976,
                    "duration": 0.21152100000000473
                },
                {
                    "name": "F3",
                    "midi": 53,
                    "time": 488.40198900000144,
                    "velocity": 0.4881889763779528,
                    "duration": 0.21152100000000473
                },
                {
                    "name": "E2",
                    "midi": 40,
                    "time": 488.61351000000144,
                    "velocity": 0.47244094488188976,
                    "duration": 0.10576049999997394
                },
                {
                    "name": "E3",
                    "midi": 52,
                    "time": 488.61351000000144,
                    "velocity": 0.5590551181102362,
                    "duration": 0.10576049999997394
                },
                {
                    "name": "G3",
                    "midi": 55,
                    "time": 489.0365520000014,
                    "velocity": 0.47244094488188976,
                    "duration": 0.10576049999997394
                },
                {
                    "name": "E3",
                    "midi": 52,
                    "time": 489.0365520000014,
                    "velocity": 0.47244094488188976,
                    "duration": 0.10576049999997394
                },
                {
                    "name": "A#3",
                    "midi": 58,
                    "time": 489.0365520000014,
                    "velocity": 0.47244094488188976,
                    "duration": 0.10576049999997394
                },
                {
                    "name": "C#4",
                    "midi": 61,
                    "time": 489.0365520000014,
                    "velocity": 0.5590551181102362,
                    "duration": 0.10576049999997394
                },
                {
                    "name": "E3",
                    "midi": 52,
                    "time": 489.88263600000136,
                    "velocity": 0.5590551181102362,
                    "duration": 0.10576049999997394
                },
                {
                    "name": "E2",
                    "midi": 40,
                    "time": 489.88263600000136,
                    "velocity": 0.47244094488188976,
                    "duration": 0.10576049999997394
                },
                {
                    "name": "C#4",
                    "midi": 61,
                    "time": 490.3056780000013,
                    "velocity": 0.5590551181102362,
                    "duration": 0.10576049999997394
                },
                {
                    "name": "E3",
                    "midi": 52,
                    "time": 490.3056780000013,
                    "velocity": 0.47244094488188976,
                    "duration": 0.10576049999997394
                },
                {
                    "name": "G3",
                    "midi": 55,
                    "time": 490.3056780000013,
                    "velocity": 0.47244094488188976,
                    "duration": 0.10576049999997394
                },
                {
                    "name": "A#3",
                    "midi": 58,
                    "time": 490.3056780000013,
                    "velocity": 0.47244094488188976,
                    "duration": 0.10576049999997394
                },
                {
                    "name": "F3",
                    "midi": 53,
                    "time": 491.15176200000127,
                    "velocity": 0.5196850393700787,
                    "duration": 0.21152100000000473
                },
                {
                    "name": "A3",
                    "midi": 57,
                    "time": 491.3632830000013,
                    "velocity": 0.47244094488188976,
                    "duration": 0.21152100000000473
                },
                {
                    "name": "D4",
                    "midi": 62,
                    "time": 491.5748040000013,
                    "velocity": 0.47244094488188976,
                    "duration": 0.21152100000000473
                },
                {
                    "name": "A3",
                    "midi": 57,
                    "time": 491.7863250000013,
                    "velocity": 0.47244094488188976,
                    "duration": 0.21152100000000473
                },
                {
                    "name": "D4",
                    "midi": 62,
                    "time": 491.9978460000013,
                    "velocity": 0.49606299212598426,
                    "duration": 0.21152100000000473
                },
                {
                    "name": "A3",
                    "midi": 57,
                    "time": 492.2093670000013,
                    "velocity": 0.47244094488188976,
                    "duration": 0.21152100000000473
                },
                {
                    "name": "F3",
                    "midi": 53,
                    "time": 492.4208880000013,
                    "velocity": 0.5118110236220472,
                    "duration": 0.21152100000000473
                },
                {
                    "name": "A3",
                    "midi": 57,
                    "time": 492.6324090000013,
                    "velocity": 0.47244094488188976,
                    "duration": 0.21152100000000473
                },
                {
                    "name": "D4",
                    "midi": 62,
                    "time": 492.8439300000013,
                    "velocity": 0.49606299212598426,
                    "duration": 0.21152100000000473
                },
                {
                    "name": "A3",
                    "midi": 57,
                    "time": 493.0554510000013,
                    "velocity": 0.47244094488188976,
                    "duration": 0.21152100000000473
                },
                {
                    "name": "D4",
                    "midi": 62,
                    "time": 493.2669720000013,
                    "velocity": 0.47244094488188976,
                    "duration": 0.21152100000000473
                },
                {
                    "name": "A3",
                    "midi": 57,
                    "time": 493.4784930000013,
                    "velocity": 0.4881889763779528,
                    "duration": 0.21152100000000473
                },
                {
                    "name": "D2",
                    "midi": 38,
                    "time": 493.6900140000013,
                    "velocity": 0.47244094488188976,
                    "duration": 0.10576049999997394
                },
                {
                    "name": "D3",
                    "midi": 50,
                    "time": 493.6900140000013,
                    "velocity": 0.5590551181102362,
                    "duration": 0.10576049999997394
                },
                {
                    "name": "G#3",
                    "midi": 56,
                    "time": 494.1130560000013,
                    "velocity": 0.47244094488188976,
                    "duration": 0.10576049999997394
                },
                {
                    "name": "D3",
                    "midi": 50,
                    "time": 494.1130560000013,
                    "velocity": 0.47244094488188976,
                    "duration": 0.10576049999997394
                },
                {
                    "name": "B3",
                    "midi": 59,
                    "time": 494.1130560000013,
                    "velocity": 0.5590551181102362,
                    "duration": 0.10576049999997394
                },
                {
                    "name": "F3",
                    "midi": 53,
                    "time": 494.1130560000013,
                    "velocity": 0.47244094488188976,
                    "duration": 0.10576049999997394
                },
                {
                    "name": "D2",
                    "midi": 38,
                    "time": 494.95914000000124,
                    "velocity": 0.47244094488188976,
                    "duration": 0.10576049999997394
                },
                {
                    "name": "D3",
                    "midi": 50,
                    "time": 494.95914000000124,
                    "velocity": 0.5590551181102362,
                    "duration": 0.10576049999997394
                },
                {
                    "name": "F3",
                    "midi": 53,
                    "time": 495.3821820000012,
                    "velocity": 0.47244094488188976,
                    "duration": 0.10576049999997394
                },
                {
                    "name": "B3",
                    "midi": 59,
                    "time": 495.3821820000012,
                    "velocity": 0.5590551181102362,
                    "duration": 0.10576049999997394
                },
                {
                    "name": "G#3",
                    "midi": 56,
                    "time": 495.3821820000012,
                    "velocity": 0.47244094488188976,
                    "duration": 0.10576049999997394
                },
                {
                    "name": "D3",
                    "midi": 50,
                    "time": 495.3821820000012,
                    "velocity": 0.47244094488188976,
                    "duration": 0.10576049999997394
                },
                {
                    "name": "D#3",
                    "midi": 51,
                    "time": 496.22826600000116,
                    "velocity": 0.5196850393700787,
                    "duration": 0.21152100000000473
                },
                {
                    "name": "G3",
                    "midi": 55,
                    "time": 496.43978700000116,
                    "velocity": 0.47244094488188976,
                    "duration": 0.21152100000000473
                },
                {
                    "name": "C4",
                    "midi": 60,
                    "time": 496.65130800000117,
                    "velocity": 0.47244094488188976,
                    "duration": 0.21152100000000473
                },
                {
                    "name": "G3",
                    "midi": 55,
                    "time": 496.86282900000117,
                    "velocity": 0.47244094488188976,
                    "duration": 0.21152100000000473
                },
                {
                    "name": "C4",
                    "midi": 60,
                    "time": 497.0743500000012,
                    "velocity": 0.49606299212598426,
                    "duration": 0.21152100000000473
                },
                {
                    "name": "G3",
                    "midi": 55,
                    "time": 497.2858710000012,
                    "velocity": 0.47244094488188976,
                    "duration": 0.21152100000000473
                },
                {
                    "name": "D#3",
                    "midi": 51,
                    "time": 497.4973920000012,
                    "velocity": 0.5118110236220472,
                    "duration": 0.21152100000000473
                },
                {
                    "name": "G3",
                    "midi": 55,
                    "time": 497.7089130000012,
                    "velocity": 0.47244094488188976,
                    "duration": 0.21152100000000473
                },
                {
                    "name": "C4",
                    "midi": 60,
                    "time": 497.9204340000012,
                    "velocity": 0.49606299212598426,
                    "duration": 0.21152100000000473
                },
                {
                    "name": "G3",
                    "midi": 55,
                    "time": 498.1319550000012,
                    "velocity": 0.47244094488188976,
                    "duration": 0.21152100000000473
                },
                {
                    "name": "C4",
                    "midi": 60,
                    "time": 498.3434760000012,
                    "velocity": 0.47244094488188976,
                    "duration": 0.21152100000000473
                },
                {
                    "name": "G3",
                    "midi": 55,
                    "time": 498.5549970000012,
                    "velocity": 0.4881889763779528,
                    "duration": 0.21152100000000473
                },
                {
                    "name": "D#2",
                    "midi": 39,
                    "time": 498.7665180000012,
                    "velocity": 0.5590551181102362,
                    "duration": 0.10576049999997394
                },
                {
                    "name": "A3",
                    "midi": 57,
                    "time": 499.18956000000117,
                    "velocity": 0.47244094488188976,
                    "duration": 0.10576049999997394
                },
                {
                    "name": "F#3",
                    "midi": 54,
                    "time": 499.18956000000117,
                    "velocity": 0.47244094488188976,
                    "duration": 0.10576049999997394
                },
                {
                    "name": "C4",
                    "midi": 60,
                    "time": 499.18956000000117,
                    "velocity": 0.5590551181102362,
                    "duration": 0.10576049999997394
                },
                {
                    "name": "D#3",
                    "midi": 51,
                    "time": 499.18956000000117,
                    "velocity": 0.47244094488188976,
                    "duration": 0.10576049999997394
                },
                {
                    "name": "D#2",
                    "midi": 39,
                    "time": 500.0356440000011,
                    "velocity": 0.5590551181102362,
                    "duration": 0.10576049999997394
                },
                {
                    "name": "D#3",
                    "midi": 51,
                    "time": 500.4586860000011,
                    "velocity": 0.47244094488188976,
                    "duration": 0.10576049999997394
                },
                {
                    "name": "C4",
                    "midi": 60,
                    "time": 500.4586860000011,
                    "velocity": 0.5590551181102362,
                    "duration": 0.10576049999997394
                },
                {
                    "name": "A3",
                    "midi": 57,
                    "time": 500.4586860000011,
                    "velocity": 0.47244094488188976,
                    "duration": 0.10576049999997394
                },
                {
                    "name": "F#3",
                    "midi": 54,
                    "time": 500.4586860000011,
                    "velocity": 0.47244094488188976,
                    "duration": 0.10576049999997394
                },
                {
                    "name": "C#3",
                    "midi": 49,
                    "time": 501.30477000000104,
                    "velocity": 0.5196850393700787,
                    "duration": 0.21152100000000473
                },
                {
                    "name": "F3",
                    "midi": 53,
                    "time": 501.51629100000105,
                    "velocity": 0.47244094488188976,
                    "duration": 0.21152100000000473
                },
                {
                    "name": "A#3",
                    "midi": 58,
                    "time": 501.72781200000105,
                    "velocity": 0.47244094488188976,
                    "duration": 0.21152100000000473
                },
                {
                    "name": "F3",
                    "midi": 53,
                    "time": 501.93933300000106,
                    "velocity": 0.47244094488188976,
                    "duration": 0.21152100000000473
                },
                {
                    "name": "A#3",
                    "midi": 58,
                    "time": 502.15085400000106,
                    "velocity": 0.49606299212598426,
                    "duration": 0.21152100000000473
                },
                {
                    "name": "F3",
                    "midi": 53,
                    "time": 502.36237500000107,
                    "velocity": 0.47244094488188976,
                    "duration": 0.21152100000000473
                },
                {
                    "name": "C#3",
                    "midi": 49,
                    "time": 502.57389600000107,
                    "velocity": 0.5196850393700787,
                    "duration": 0.21152100000000473
                },
                {
                    "name": "F3",
                    "midi": 53,
                    "time": 502.7854170000011,
                    "velocity": 0.47244094488188976,
                    "duration": 0.21152100000000473
                },
                {
                    "name": "A#3",
                    "midi": 58,
                    "time": 502.9969380000011,
                    "velocity": 0.47244094488188976,
                    "duration": 0.21152100000000473
                },
                {
                    "name": "F3",
                    "midi": 53,
                    "time": 503.2084590000011,
                    "velocity": 0.47244094488188976,
                    "duration": 0.21152100000000473
                },
                {
                    "name": "A#3",
                    "midi": 58,
                    "time": 503.4199800000011,
                    "velocity": 0.49606299212598426,
                    "duration": 0.21152100000000473
                },
                {
                    "name": "F3",
                    "midi": 53,
                    "time": 503.6315010000011,
                    "velocity": 0.47244094488188976,
                    "duration": 0.21152100000000473
                },
                {
                    "name": "C3",
                    "midi": 48,
                    "time": 503.8430220000011,
                    "velocity": 0.5196850393700787,
                    "duration": 0.21152100000000473
                },
                {
                    "name": "F3",
                    "midi": 53,
                    "time": 504.0545430000011,
                    "velocity": 0.47244094488188976,
                    "duration": 0.21152100000000473
                },
                {
                    "name": "A3",
                    "midi": 57,
                    "time": 504.2660640000011,
                    "velocity": 0.47244094488188976,
                    "duration": 0.21152100000000473
                },
                {
                    "name": "F3",
                    "midi": 53,
                    "time": 504.4775850000011,
                    "velocity": 0.47244094488188976,
                    "duration": 0.21152100000000473
                },
                {
                    "name": "A3",
                    "midi": 57,
                    "time": 504.6891060000011,
                    "velocity": 0.49606299212598426,
                    "duration": 0.21152100000000473
                },
                {
                    "name": "F3",
                    "midi": 53,
                    "time": 504.9006270000011,
                    "velocity": 0.47244094488188976,
                    "duration": 0.21152100000000473
                },
                {
                    "name": "C3",
                    "midi": 48,
                    "time": 505.1121480000011,
                    "velocity": 0.5196850393700787,
                    "duration": 0.21152100000000473
                },
                {
                    "name": "F3",
                    "midi": 53,
                    "time": 505.32366900000113,
                    "velocity": 0.47244094488188976,
                    "duration": 0.21152100000000473
                },
                {
                    "name": "A3",
                    "midi": 57,
                    "time": 505.53519000000114,
                    "velocity": 0.47244094488188976,
                    "duration": 0.21152100000000473
                },
                {
                    "name": "F3",
                    "midi": 53,
                    "time": 505.74671100000114,
                    "velocity": 0.47244094488188976,
                    "duration": 0.21152100000000473
                },
                {
                    "name": "A3",
                    "midi": 57,
                    "time": 505.95823200000115,
                    "velocity": 0.49606299212598426,
                    "duration": 0.21152100000000473
                },
                {
                    "name": "F3",
                    "midi": 53,
                    "time": 506.16975300000115,
                    "velocity": 0.47244094488188976,
                    "duration": 0.21152100000000473
                },
                {
                    "name": "B2",
                    "midi": 47,
                    "time": 506.38127400000116,
                    "velocity": 0.5196850393700787,
                    "duration": 0.21152100000000473
                },
                {
                    "name": "F3",
                    "midi": 53,
                    "time": 506.59279500000116,
                    "velocity": 0.47244094488188976,
                    "duration": 0.21152100000000473
                },
                {
                    "name": "G#3",
                    "midi": 56,
                    "time": 506.80431600000117,
                    "velocity": 0.47244094488188976,
                    "duration": 0.21152100000000473
                },
                {
                    "name": "F3",
                    "midi": 53,
                    "time": 507.01583700000117,
                    "velocity": 0.47244094488188976,
                    "duration": 0.21152100000000473
                },
                {
                    "name": "G#3",
                    "midi": 56,
                    "time": 507.2273580000012,
                    "velocity": 0.49606299212598426,
                    "duration": 0.21152100000000473
                },
                {
                    "name": "F3",
                    "midi": 53,
                    "time": 507.4388790000012,
                    "velocity": 0.47244094488188976,
                    "duration": 0.21152100000000473
                },
                {
                    "name": "B2",
                    "midi": 47,
                    "time": 507.6504000000012,
                    "velocity": 0.5196850393700787,
                    "duration": 0.21152100000000473
                },
                {
                    "name": "F3",
                    "midi": 53,
                    "time": 507.8619210000012,
                    "velocity": 0.47244094488188976,
                    "duration": 0.21152100000000473
                },
                {
                    "name": "G#3",
                    "midi": 56,
                    "time": 508.0734420000012,
                    "velocity": 0.47244094488188976,
                    "duration": 0.21152100000000473
                },
                {
                    "name": "F3",
                    "midi": 53,
                    "time": 508.2849630000012,
                    "velocity": 0.47244094488188976,
                    "duration": 0.21152100000000473
                },
                {
                    "name": "G#3",
                    "midi": 56,
                    "time": 508.4964840000012,
                    "velocity": 0.49606299212598426,
                    "duration": 0.21152100000000473
                },
                {
                    "name": "F3",
                    "midi": 53,
                    "time": 508.7080050000012,
                    "velocity": 0.47244094488188976,
                    "duration": 0.21152100000000473
                },
                {
                    "name": "C3",
                    "midi": 48,
                    "time": 508.9195260000012,
                    "velocity": 0.5196850393700787,
                    "duration": 0.21152100000000473
                },
                {
                    "name": "E3",
                    "midi": 52,
                    "time": 509.1310470000012,
                    "velocity": 0.47244094488188976,
                    "duration": 0.21152100000000473
                },
                {
                    "name": "G3",
                    "midi": 55,
                    "time": 509.3425680000012,
                    "velocity": 0.47244094488188976,
                    "duration": 0.21152100000000473
                },
                {
                    "name": "C4",
                    "midi": 60,
                    "time": 509.5540890000012,
                    "velocity": 0.47244094488188976,
                    "duration": 0.21152100000000473
                },
                {
                    "name": "F3",
                    "midi": 53,
                    "time": 509.76561000000123,
                    "velocity": 0.49606299212598426,
                    "duration": 0.21152100000000473
                },
                {
                    "name": "G#3",
                    "midi": 56,
                    "time": 509.97713100000124,
                    "velocity": 0.47244094488188976,
                    "duration": 0.21152100000000473
                },
                {
                    "name": "C3",
                    "midi": 48,
                    "time": 510.18865200000124,
                    "velocity": 0.5196850393700787,
                    "duration": 0.21152100000000473
                },
                {
                    "name": "E3",
                    "midi": 52,
                    "time": 510.40017300000125,
                    "velocity": 0.47244094488188976,
                    "duration": 0.21152100000000473
                },
                {
                    "name": "G3",
                    "midi": 55,
                    "time": 510.61169400000125,
                    "velocity": 0.47244094488188976,
                    "duration": 0.21152100000000473
                },
                {
                    "name": "C4",
                    "midi": 60,
                    "time": 510.82321500000126,
                    "velocity": 0.47244094488188976,
                    "duration": 0.21152100000000473
                },
                {
                    "name": "F3",
                    "midi": 53,
                    "time": 511.03473600000126,
                    "velocity": 0.49606299212598426,
                    "duration": 0.21152100000000473
                },
                {
                    "name": "G#3",
                    "midi": 56,
                    "time": 511.24625700000126,
                    "velocity": 0.47244094488188976,
                    "duration": 0.21152100000000473
                },
                {
                    "name": "C4",
                    "midi": 60,
                    "time": 511.45777800000127,
                    "velocity": 0.5669291338582677,
                    "duration": 0.6345630000000142
                },
                {
                    "name": "C#4",
                    "midi": 61,
                    "time": 512.0923410000013,
                    "velocity": 0.49606299212598426,
                    "duration": 0.11457387500001914
                },
                {
                    "name": "C4",
                    "midi": 60,
                    "time": 512.1981015000013,
                    "velocity": 0.4881889763779528,
                    "duration": 0.11457387500013283
                },
                {
                    "name": "A#3",
                    "midi": 58,
                    "time": 512.3038620000013,
                    "velocity": 0.47244094488188976,
                    "duration": 0.11457387500013283
                },
                {
                    "name": "G#3",
                    "midi": 56,
                    "time": 512.4096225000014,
                    "velocity": 0.47244094488188976,
                    "duration": 0.11457387500013283
                },
                {
                    "name": "G3",
                    "midi": 55,
                    "time": 512.5153830000015,
                    "velocity": 0.4645669291338583,
                    "duration": 0.11457387500013283
                },
                {
                    "name": "F3",
                    "midi": 53,
                    "time": 512.6211435000016,
                    "velocity": 0.44881889763779526,
                    "duration": 0.11457387500013283
                },
                {
                    "name": "C4",
                    "midi": 60,
                    "time": 512.7269040000017,
                    "velocity": 0.49606299212598426,
                    "duration": 0.10576050000008763
                },
                {
                    "name": "C3",
                    "midi": 48,
                    "time": 513.1499460000018,
                    "velocity": 0.44881889763779526,
                    "duration": 0.10576049999997394
                },
                {
                    "name": "C2",
                    "midi": 36,
                    "time": 513.1499460000018,
                    "velocity": 0.3779527559055118,
                    "duration": 0.10576049999997394
                },
                {
                    "name": "F2",
                    "midi": 41,
                    "time": 513.8373892500018,
                    "velocity": 0.2755905511811024,
                    "duration": 0.052880250000043816
                },
                {
                    "name": "C3",
                    "midi": 48,
                    "time": 513.8902695000019,
                    "velocity": 0.2755905511811024,
                    "duration": 0.052880250000043816
                },
                {
                    "name": "F3",
                    "midi": 53,
                    "time": 513.996030000002,
                    "velocity": 0.2755905511811024,
                    "duration": 0.42304200000000947
                },
                {
                    "name": "C3",
                    "midi": 48,
                    "time": 515.106515250002,
                    "velocity": 0.2677165354330709,
                    "duration": 0.052880250000043816
                },
                {
                    "name": "G3",
                    "midi": 55,
                    "time": 515.159395500002,
                    "velocity": 0.2677165354330709,
                    "duration": 0.052880250000043816
                },
                {
                    "name": "A#3",
                    "midi": 58,
                    "time": 515.2651560000021,
                    "velocity": 0.2755905511811024,
                    "duration": 0.42304200000000947
                },
                {
                    "name": "F2",
                    "midi": 41,
                    "time": 516.5342820000021,
                    "velocity": 0.2755905511811024,
                    "duration": 0.42304200000000947
                },
                {
                    "name": "A2",
                    "midi": 45,
                    "time": 516.9573240000021,
                    "velocity": 0.2440944881889764,
                    "duration": 0.42304200000000947
                },
                {
                    "name": "C3",
                    "midi": 48,
                    "time": 517.3803660000021,
                    "velocity": 0.2440944881889764,
                    "duration": 0.42304200000000947
                },
                {
                    "name": "F3",
                    "midi": 53,
                    "time": 517.8034080000022,
                    "velocity": 0.2755905511811024,
                    "duration": 0.42304200000000947
                },
                {
                    "name": "F2",
                    "midi": 41,
                    "time": 518.2264500000022,
                    "velocity": 0.2440944881889764,
                    "duration": 0.42304200000000947
                },
                {
                    "name": "D3",
                    "midi": 50,
                    "time": 519.0725340000022,
                    "velocity": 0.2755905511811024,
                    "duration": 0.8460840000000189
                },
                {
                    "name": "F3",
                    "midi": 53,
                    "time": 519.4955760000022,
                    "velocity": 0.25984251968503935,
                    "duration": 0.42304200000000947
                },
                {
                    "name": "A#3",
                    "midi": 58,
                    "time": 519.4955760000022,
                    "velocity": 0.25984251968503935,
                    "duration": 0.42304200000000947
                },
                {
                    "name": "E3",
                    "midi": 52,
                    "time": 520.3416600000022,
                    "velocity": 0.2992125984251969,
                    "duration": 0.8460840000000189
                },
                {
                    "name": "C4",
                    "midi": 60,
                    "time": 520.7647020000022,
                    "velocity": 0.2755905511811024,
                    "duration": 0.42304200000000947
                },
                {
                    "name": "G3",
                    "midi": 55,
                    "time": 520.7647020000022,
                    "velocity": 0.2755905511811024,
                    "duration": 0.42304200000000947
                },
                {
                    "name": "F3",
                    "midi": 53,
                    "time": 521.6107860000022,
                    "velocity": 0.3228346456692913,
                    "duration": 0.42304200000000947
                },
                {
                    "name": "D3",
                    "midi": 50,
                    "time": 522.0338280000022,
                    "velocity": 0.2440944881889764,
                    "duration": 0.42304200000000947
                },
                {
                    "name": "F3",
                    "midi": 53,
                    "time": 522.0338280000022,
                    "velocity": 0.29133858267716534,
                    "duration": 0.42304200000000947
                },
                {
                    "name": "A#2",
                    "midi": 46,
                    "time": 522.4568700000023,
                    "velocity": 0.2283464566929134,
                    "duration": 0.42304200000000947
                },
                {
                    "name": "G3",
                    "midi": 55,
                    "time": 522.4568700000023,
                    "velocity": 0.2755905511811024,
                    "duration": 0.42304200000000947
                },
                {
                    "name": "C3",
                    "midi": 48,
                    "time": 522.8799120000023,
                    "velocity": 0.2677165354330709,
                    "duration": 0.42304200000000947
                },
                {
                    "name": "E3",
                    "midi": 52,
                    "time": 522.8799120000023,
                    "velocity": 0.3228346456692913,
                    "duration": 0.42304200000000947
                },
                {
                    "name": "F3",
                    "midi": 53,
                    "time": 524.1490380000023,
                    "velocity": 0.30708661417322836,
                    "duration": 0.14101400000004105
                },
                {
                    "name": "A3",
                    "midi": 57,
                    "time": 524.2900520000023,
                    "velocity": 0.2440944881889764,
                    "duration": 0.14101400000004105
                },
                {
                    "name": "C4",
                    "midi": 60,
                    "time": 524.4310660000024,
                    "velocity": 0.2440944881889764,
                    "duration": 0.14101400000004105
                },
                {
                    "name": "F3",
                    "midi": 53,
                    "time": 524.5720800000024,
                    "velocity": 0.30708661417322836,
                    "duration": 0.14101400000004105
                },
                {
                    "name": "A3",
                    "midi": 57,
                    "time": 524.7130940000025,
                    "velocity": 0.25196850393700787,
                    "duration": 0.14101400000004105
                },
                {
                    "name": "C4",
                    "midi": 60,
                    "time": 524.8541080000025,
                    "velocity": 0.25196850393700787,
                    "duration": 0.14101400000004105
                },
                {
                    "name": "F3",
                    "midi": 53,
                    "time": 524.9951220000025,
                    "velocity": 0.31496062992125984,
                    "duration": 0.14101400000004105
                },
                {
                    "name": "A3",
                    "midi": 57,
                    "time": 525.1361360000026,
                    "velocity": 0.25196850393700787,
                    "duration": 0.14101400000004105
                },
                {
                    "name": "C4",
                    "midi": 60,
                    "time": 525.2771500000026,
                    "velocity": 0.25196850393700787,
                    "duration": 0.14101400000004105
                },
                {
                    "name": "E3",
                    "midi": 52,
                    "time": 525.4181640000027,
                    "velocity": 0.33858267716535434,
                    "duration": 0.14101400000004105
                },
                {
                    "name": "G3",
                    "midi": 55,
                    "time": 525.5591780000027,
                    "velocity": 0.28346456692913385,
                    "duration": 0.14101400000004105
                },
                {
                    "name": "C4",
                    "midi": 60,
                    "time": 525.7001920000027,
                    "velocity": 0.2755905511811024,
                    "duration": 0.14101400000004105
                },
                {
                    "name": "E3",
                    "midi": 52,
                    "time": 525.8412060000028,
                    "velocity": 0.31496062992125984,
                    "duration": 0.14101400000004105
                },
                {
                    "name": "G3",
                    "midi": 55,
                    "time": 525.9822200000028,
                    "velocity": 0.25984251968503935,
                    "duration": 0.14101400000004105
                },
                {
                    "name": "C4",
                    "midi": 60,
                    "time": 526.1232340000029,
                    "velocity": 0.2283464566929134,
                    "duration": 0.14101400000004105
                },
                {
                    "name": "E3",
                    "midi": 52,
                    "time": 526.2642480000029,
                    "velocity": 0.29133858267716534,
                    "duration": 0.14101400000004105
                },
                {
                    "name": "A#3",
                    "midi": 58,
                    "time": 526.405262000003,
                    "velocity": 0.2283464566929134,
                    "duration": 0.14101400000004105
                },
                {
                    "name": "C4",
                    "midi": 60,
                    "time": 526.546276000003,
                    "velocity": 0.2283464566929134,
                    "duration": 0.14101400000004105
                },
                {
                    "name": "F3",
                    "midi": 53,
                    "time": 526.687290000003,
                    "velocity": 0.2283464566929134,
                    "duration": 0.42304200000000947
                },
                {
                    "name": "A3",
                    "midi": 57,
                    "time": 526.687290000003,
                    "velocity": 0.2755905511811024,
                    "duration": 0.42304200000000947
                },
                {
                    "name": "A3",
                    "midi": 57,
                    "time": 527.110332000003,
                    "velocity": 0.2440944881889764,
                    "duration": 0.42304200000000947
                },
                {
                    "name": "C4",
                    "midi": 60,
                    "time": 527.533374000003,
                    "velocity": 0.2440944881889764,
                    "duration": 0.42304200000000947
                },
                {
                    "name": "F4",
                    "midi": 65,
                    "time": 527.9564160000031,
                    "velocity": 0.2755905511811024,
                    "duration": 0.42304200000000947
                },
                {
                    "name": "C4",
                    "midi": 60,
                    "time": 528.3794580000031,
                    "velocity": 0.2440944881889764,
                    "duration": 0.42304200000000947
                },
                {
                    "name": "F3",
                    "midi": 53,
                    "time": 528.8025000000031,
                    "velocity": 0.2440944881889764,
                    "duration": 0.42304200000000947
                },
                {
                    "name": "D4",
                    "midi": 62,
                    "time": 529.2255420000031,
                    "velocity": 0.2755905511811024,
                    "duration": 0.2115209999999479
                },
                {
                    "name": "F4",
                    "midi": 65,
                    "time": 529.437063000003,
                    "velocity": 0.2440944881889764,
                    "duration": 0.2115209999999479
                },
                {
                    "name": "A#4",
                    "midi": 70,
                    "time": 529.648584000003,
                    "velocity": 0.25196850393700787,
                    "duration": 0.2115209999999479
                },
                {
                    "name": "F4",
                    "midi": 65,
                    "time": 529.8601050000029,
                    "velocity": 0.25984251968503935,
                    "duration": 0.2115209999999479
                },
                {
                    "name": "D4",
                    "midi": 62,
                    "time": 530.0716260000029,
                    "velocity": 0.2755905511811024,
                    "duration": 0.2115209999999479
                },
                {
                    "name": "F4",
                    "midi": 65,
                    "time": 530.2831470000028,
                    "velocity": 0.2992125984251969,
                    "duration": 0.2115209999999479
                },
                {
                    "name": "E4",
                    "midi": 64,
                    "time": 530.4946680000028,
                    "velocity": 0.31496062992125984,
                    "duration": 0.2115209999999479
                },
                {
                    "name": "G4",
                    "midi": 67,
                    "time": 530.7061890000027,
                    "velocity": 0.2755905511811024,
                    "duration": 0.2115209999999479
                },
                {
                    "name": "C5",
                    "midi": 72,
                    "time": 530.9177100000027,
                    "velocity": 0.33070866141732286,
                    "duration": 0.2115209999999479
                },
                {
                    "name": "G4",
                    "midi": 67,
                    "time": 531.1292310000026,
                    "velocity": 0.2755905511811024,
                    "duration": 0.2115209999999479
                },
                {
                    "name": "E4",
                    "midi": 64,
                    "time": 531.3407520000026,
                    "velocity": 0.2755905511811024,
                    "duration": 0.2115209999999479
                },
                {
                    "name": "G4",
                    "midi": 67,
                    "time": 531.5522730000025,
                    "velocity": 0.2677165354330709,
                    "duration": 0.2115209999999479
                },
                {
                    "name": "F4",
                    "midi": 65,
                    "time": 531.7637940000025,
                    "velocity": 0.3228346456692913,
                    "duration": 0.42304200000000947
                },
                {
                    "name": "A#3",
                    "midi": 58,
                    "time": 532.1868360000025,
                    "velocity": 0.29133858267716534,
                    "duration": 0.42304200000000947
                },
                {
                    "name": "G4",
                    "midi": 67,
                    "time": 532.1868360000025,
                    "velocity": 0.29133858267716534,
                    "duration": 0.42304200000000947
                },
                {
                    "name": "C4",
                    "midi": 60,
                    "time": 532.6098780000025,
                    "velocity": 0.2755905511811024,
                    "duration": 0.42304200000000947
                },
                {
                    "name": "A#4",
                    "midi": 70,
                    "time": 532.6098780000025,
                    "velocity": 0.2755905511811024,
                    "duration": 0.42304200000000947
                },
                {
                    "name": "A4",
                    "midi": 69,
                    "time": 533.0329200000025,
                    "velocity": 0.29133858267716534,
                    "duration": 0.42304200000000947
                },
                {
                    "name": "F4",
                    "midi": 65,
                    "time": 533.0329200000025,
                    "velocity": 0.25196850393700787,
                    "duration": 0.42304200000000947
                },
                {
                    "name": "A4",
                    "midi": 69,
                    "time": 533.4559620000025,
                    "velocity": 0.31496062992125984,
                    "duration": 0.42304200000000947
                },
                {
                    "name": "F4",
                    "midi": 65,
                    "time": 533.8790040000025,
                    "velocity": 0.29133858267716534,
                    "duration": 0.42304200000000947
                },
                {
                    "name": "G4",
                    "midi": 67,
                    "time": 534.3020460000025,
                    "velocity": 0.31496062992125984,
                    "duration": 0.42304200000000947
                },
                {
                    "name": "E4",
                    "midi": 64,
                    "time": 534.7250880000025,
                    "velocity": 0.2992125984251969,
                    "duration": 0.42304200000000947
                },
                {
                    "name": "C4",
                    "midi": 60,
                    "time": 535.1481300000025,
                    "velocity": 0.2992125984251969,
                    "duration": 0.42304200000000947
                },
                {
                    "name": "F3",
                    "midi": 53,
                    "time": 535.5711720000025,
                    "velocity": 0.31496062992125984,
                    "duration": 0.42304200000000947
                },
                {
                    "name": "G#3",
                    "midi": 56,
                    "time": 535.9942140000026,
                    "velocity": 0.31496062992125984,
                    "duration": 0.42304200000000947
                },
                {
                    "name": "F3",
                    "midi": 53,
                    "time": 536.4172560000026,
                    "velocity": 0.29133858267716534,
                    "duration": 0.42304200000000947
                },
                {
                    "name": "G3",
                    "midi": 55,
                    "time": 536.8402980000026,
                    "velocity": 0.31496062992125984,
                    "duration": 0.42304200000000947
                },
                {
                    "name": "E3",
                    "midi": 52,
                    "time": 537.2633400000026,
                    "velocity": 0.2992125984251969,
                    "duration": 0.42304200000000947
                },
                {
                    "name": "C3",
                    "midi": 48,
                    "time": 537.6863820000026,
                    "velocity": 0.2992125984251969,
                    "duration": 0.42304200000000947
                },
                {
                    "name": "F2",
                    "midi": 41,
                    "time": 538.1094240000026,
                    "velocity": 0.4566929133858268,
                    "duration": 0.42304200000000947
                },
                {
                    "name": "F3",
                    "midi": 53,
                    "time": 538.1094240000026,
                    "velocity": 0.5433070866141733,
                    "duration": 0.42304200000000947
                },
                {
                    "name": "G#3",
                    "midi": 56,
                    "time": 538.5324660000026,
                    "velocity": 0.31496062992125984,
                    "duration": 0.42304200000000947
                },
                {
                    "name": "C4",
                    "midi": 60,
                    "time": 538.9555080000026,
                    "velocity": 0.31496062992125984,
                    "duration": 0.42304200000000947
                },
                {
                    "name": "A#3",
                    "midi": 58,
                    "time": 539.3785500000026,
                    "velocity": 0.5433070866141733,
                    "duration": 0.42304200000000947
                },
                {
                    "name": "A#2",
                    "midi": 46,
                    "time": 539.3785500000026,
                    "velocity": 0.4566929133858268,
                    "duration": 0.42304200000000947
                },
                {
                    "name": "C#4",
                    "midi": 61,
                    "time": 539.8015920000026,
                    "velocity": 0.31496062992125984,
                    "duration": 0.42304200000000947
                },
                {
                    "name": "F4",
                    "midi": 65,
                    "time": 540.2246340000027,
                    "velocity": 0.31496062992125984,
                    "duration": 0.42304200000000947
                },
                {
                    "name": "D#3",
                    "midi": 51,
                    "time": 540.6476760000027,
                    "velocity": 0.5433070866141733,
                    "duration": 0.42304200000000947
                },
                {
                    "name": "D#2",
                    "midi": 39,
                    "time": 540.6476760000027,
                    "velocity": 0.4566929133858268,
                    "duration": 0.42304200000000947
                },
                {
                    "name": "G3",
                    "midi": 55,
                    "time": 541.0707180000027,
                    "velocity": 0.31496062992125984,
                    "duration": 0.42304200000000947
                },
                {
                    "name": "A#3",
                    "midi": 58,
                    "time": 541.4937600000027,
                    "velocity": 0.31496062992125984,
                    "duration": 0.42304200000000947
                },
                {
                    "name": "G#2",
                    "midi": 44,
                    "time": 541.9168020000027,
                    "velocity": 0.4566929133858268,
                    "duration": 0.42304200000000947
                },
                {
                    "name": "G#3",
                    "midi": 56,
                    "time": 541.9168020000027,
                    "velocity": 0.5433070866141733,
                    "duration": 0.42304200000000947
                },
                {
                    "name": "C4",
                    "midi": 60,
                    "time": 542.3398440000027,
                    "velocity": 0.31496062992125984,
                    "duration": 0.42304200000000947
                },
                {
                    "name": "D#4",
                    "midi": 63,
                    "time": 542.7628860000027,
                    "velocity": 0.31496062992125984,
                    "duration": 0.42304200000000947
                },
                {
                    "name": "C#2",
                    "midi": 37,
                    "time": 543.1859280000027,
                    "velocity": 0.4566929133858268,
                    "duration": 0.42304200000000947
                },
                {
                    "name": "C#3",
                    "midi": 49,
                    "time": 543.1859280000027,
                    "velocity": 0.5433070866141733,
                    "duration": 0.42304200000000947
                },
                {
                    "name": "C#4",
                    "midi": 61,
                    "time": 543.6089700000027,
                    "velocity": 0.31496062992125984,
                    "duration": 0.42304200000000947
                },
                {
                    "name": "G3",
                    "midi": 55,
                    "time": 544.0320120000027,
                    "velocity": 0.5433070866141733,
                    "duration": 0.42304200000000947
                },
                {
                    "name": "G2",
                    "midi": 43,
                    "time": 544.0320120000027,
                    "velocity": 0.4566929133858268,
                    "duration": 0.42304200000000947
                },
                {
                    "name": "G4",
                    "midi": 67,
                    "time": 544.4550540000027,
                    "velocity": 0.31496062992125984,
                    "duration": 0.42304200000000947
                },
                {
                    "name": "C2",
                    "midi": 36,
                    "time": 544.8780960000028,
                    "velocity": 0.4566929133858268,
                    "duration": 0.42304200000000947
                },
                {
                    "name": "C3",
                    "midi": 48,
                    "time": 544.8780960000028,
                    "velocity": 0.5433070866141733,
                    "duration": 0.42304200000000947
                },
                {
                    "name": "C4",
                    "midi": 60,
                    "time": 545.3011380000028,
                    "velocity": 0.31496062992125984,
                    "duration": 0.42304200000000947
                },
                {
                    "name": "C#4",
                    "midi": 61,
                    "time": 545.7241800000028,
                    "velocity": 0.3543307086614173,
                    "duration": 0.42304200000000947
                },
                {
                    "name": "C4",
                    "midi": 60,
                    "time": 546.1472220000028,
                    "velocity": 0.30708661417322836,
                    "duration": 0.42304200000000947
                },
                {
                    "name": "B3",
                    "midi": 59,
                    "time": 546.5702640000028,
                    "velocity": 0.30708661417322836,
                    "duration": 0.42304200000000947
                },
                {
                    "name": "C4",
                    "midi": 60,
                    "time": 546.9933060000028,
                    "velocity": 0.3464566929133858,
                    "duration": 0.42304200000000947
                },
                {
                    "name": "B3",
                    "midi": 59,
                    "time": 548.0509110000028,
                    "velocity": 0.3228346456692913,
                    "duration": 0.2115209999999479
                },
                {
                    "name": "C4",
                    "midi": 60,
                    "time": 548.2624320000027,
                    "velocity": 0.3464566929133858,
                    "duration": 0.42304200000000947
                },
                {
                    "name": "B3",
                    "midi": 59,
                    "time": 549.3200370000027,
                    "velocity": 0.25196850393700787,
                    "duration": 0.2203343749999931
                },
                {
                    "name": "C4",
                    "midi": 60,
                    "time": 549.5315580000026,
                    "velocity": 0.30708661417322836,
                    "duration": 0.22033437500010677
                },
                {
                    "name": "B3",
                    "midi": 59,
                    "time": 549.7430790000027,
                    "velocity": 0.2755905511811024,
                    "duration": 0.22033437500010677
                },
                {
                    "name": "C4",
                    "midi": 60,
                    "time": 549.9546000000028,
                    "velocity": 0.30708661417322836,
                    "duration": 0.22033437500010677
                },
                {
                    "name": "B3",
                    "midi": 59,
                    "time": 550.1661210000028,
                    "velocity": 0.2440944881889764,
                    "duration": 0.22033437500010677
                },
                {
                    "name": "C4",
                    "midi": 60,
                    "time": 550.3776420000029,
                    "velocity": 0.30708661417322836,
                    "duration": 0.22033437500010677
                },
                {
                    "name": "B3",
                    "midi": 59,
                    "time": 550.5891630000029,
                    "velocity": 0.25196850393700787,
                    "duration": 0.22033437500010677
                },
                {
                    "name": "C4",
                    "midi": 60,
                    "time": 550.800684000003,
                    "velocity": 0.2992125984251969,
                    "duration": 0.42304200000000947
                },
                {
                    "name": "A#3",
                    "midi": 58,
                    "time": 552.069810000003,
                    "velocity": 0.25984251968503935,
                    "duration": 0.42304200000000947
                },
                {
                    "name": "A#3",
                    "midi": 58,
                    "time": 552.492852000003,
                    "velocity": 0.2440944881889764,
                    "duration": 0.42304200000000947
                },
                {
                    "name": "A#3",
                    "midi": 58,
                    "time": 552.915894000003,
                    "velocity": 0.2440944881889764,
                    "duration": 0.42304200000000947
                },
                {
                    "name": "A#3",
                    "midi": 58,
                    "time": 553.3389360000031,
                    "velocity": 0.25984251968503935,
                    "duration": 0.8460840000000189
                },
                {
                    "name": "F3",
                    "midi": 53,
                    "time": 554.1850200000031,
                    "velocity": 0.2440944881889764,
                    "duration": 0.42304200000000947
                },
                {
                    "name": "C3",
                    "midi": 48,
                    "time": 554.6080620000031,
                    "velocity": 0.25984251968503935,
                    "duration": 0.42304200000000947
                },
                {
                    "name": "C3",
                    "midi": 48,
                    "time": 555.0311040000031,
                    "velocity": 0.23622047244094488,
                    "duration": 0.42304200000000947
                },
                {
                    "name": "C3",
                    "midi": 48,
                    "time": 555.4541460000031,
                    "velocity": 0.23622047244094488,
                    "duration": 0.42304200000000947
                },
                {
                    "name": "C3",
                    "midi": 48,
                    "time": 555.8771880000031,
                    "velocity": 0.25984251968503935,
                    "duration": 0.8460840000000189
                },
                {
                    "name": "D3",
                    "midi": 50,
                    "time": 556.7232720000031,
                    "velocity": 0.23622047244094488,
                    "duration": 0.42304200000000947
                },
                {
                    "name": "A#2",
                    "midi": 46,
                    "time": 557.1463140000031,
                    "velocity": 0.25984251968503935,
                    "duration": 0.42304200000000947
                },
                {
                    "name": "C3",
                    "midi": 48,
                    "time": 557.5693560000032,
                    "velocity": 0.25196850393700787,
                    "duration": 0.42304200000000947
                },
                {
                    "name": "C3",
                    "midi": 48,
                    "time": 557.9923980000032,
                    "velocity": 0.25196850393700787,
                    "duration": 0.42304200000000947
                },
                {
                    "name": "F3",
                    "midi": 53,
                    "time": 558.4154400000032,
                    "velocity": 0.25984251968503935,
                    "duration": 0.42304200000000947
                },
                {
                    "name": "F4",
                    "midi": 65,
                    "time": 559.6845660000032,
                    "velocity": 0.2204724409448819,
                    "duration": 0.42304200000000947
                },
                {
                    "name": "A#4",
                    "midi": 70,
                    "time": 559.6845660000032,
                    "velocity": 0.25984251968503935,
                    "duration": 0.42304200000000947
                },
                {
                    "name": "F4",
                    "midi": 65,
                    "time": 560.1076080000032,
                    "velocity": 0.2047244094488189,
                    "duration": 0.42304200000000947
                },
                {
                    "name": "A#4",
                    "midi": 70,
                    "time": 560.1076080000032,
                    "velocity": 0.2440944881889764,
                    "duration": 0.42304200000000947
                },
                {
                    "name": "A#4",
                    "midi": 70,
                    "time": 560.5306500000032,
                    "velocity": 0.2440944881889764,
                    "duration": 0.42304200000000947
                },
                {
                    "name": "F4",
                    "midi": 65,
                    "time": 560.5306500000032,
                    "velocity": 0.2047244094488189,
                    "duration": 0.42304200000000947
                },
                {
                    "name": "A#4",
                    "midi": 70,
                    "time": 560.9536920000032,
                    "velocity": 0.25984251968503935,
                    "duration": 0.8460840000000189
                },
                {
                    "name": "F4",
                    "midi": 65,
                    "time": 560.9536920000032,
                    "velocity": 0.2204724409448819,
                    "duration": 1.2691260000000284
                },
                {
                    "name": "A4",
                    "midi": 69,
                    "time": 561.7997760000032,
                    "velocity": 0.2440944881889764,
                    "duration": 0.42304200000000947
                },
                {
                    "name": "C4",
                    "midi": 60,
                    "time": 562.2228180000033,
                    "velocity": 0.2204724409448819,
                    "duration": 0.42304200000000947
                },
                {
                    "name": "G4",
                    "midi": 67,
                    "time": 562.2228180000033,
                    "velocity": 0.25984251968503935,
                    "duration": 0.42304200000000947
                },
                {
                    "name": "G4",
                    "midi": 67,
                    "time": 562.6458600000033,
                    "velocity": 0.23622047244094488,
                    "duration": 0.42304200000000947
                },
                {
                    "name": "C4",
                    "midi": 60,
                    "time": 562.6458600000033,
                    "velocity": 0.1968503937007874,
                    "duration": 0.42304200000000947
                },
                {
                    "name": "G4",
                    "midi": 67,
                    "time": 563.0689020000033,
                    "velocity": 0.23622047244094488,
                    "duration": 0.42304200000000947
                },
                {
                    "name": "C4",
                    "midi": 60,
                    "time": 563.0689020000033,
                    "velocity": 0.1968503937007874,
                    "duration": 0.42304200000000947
                },
                {
                    "name": "C4",
                    "midi": 60,
                    "time": 563.4919440000033,
                    "velocity": 0.2204724409448819,
                    "duration": 0.8460840000000189
                },
                {
                    "name": "G4",
                    "midi": 67,
                    "time": 563.4919440000033,
                    "velocity": 0.25984251968503935,
                    "duration": 0.8460840000000189
                },
                {
                    "name": "F4",
                    "midi": 65,
                    "time": 564.3380280000033,
                    "velocity": 0.23622047244094488,
                    "duration": 0.42304200000000947
                },
                {
                    "name": "D4",
                    "midi": 62,
                    "time": 564.3380280000033,
                    "velocity": 0.1968503937007874,
                    "duration": 0.42304200000000947
                },
                {
                    "name": "A#3",
                    "midi": 58,
                    "time": 564.7610700000033,
                    "velocity": 0.25984251968503935,
                    "duration": 0.42304200000000947
                },
                {
                    "name": "C4",
                    "midi": 60,
                    "time": 565.1841120000033,
                    "velocity": 0.25196850393700787,
                    "duration": 0.42304200000000947
                },
                {
                    "name": "A#3",
                    "midi": 58,
                    "time": 565.6071540000033,
                    "velocity": 0.25196850393700787,
                    "duration": 0.42304200000000947
                },
                {
                    "name": "A2",
                    "midi": 45,
                    "time": 566.0301960000033,
                    "velocity": 0.4566929133858268,
                    "duration": 0.2115209999999479
                },
                {
                    "name": "A3",
                    "midi": 57,
                    "time": 566.0301960000033,
                    "velocity": 0.5433070866141733,
                    "duration": 0.2115209999999479
                },
                {
                    "name": "C#4",
                    "midi": 61,
                    "time": 566.4532380000032,
                    "velocity": 0.31496062992125984,
                    "duration": 0.10576049999997394
                },
                {
                    "name": "D4",
                    "midi": 62,
                    "time": 566.8762800000032,
                    "velocity": 0.31496062992125984,
                    "duration": 0.10576049999997394
                },
                {
                    "name": "A#3",
                    "midi": 58,
                    "time": 567.2993220000033,
                    "velocity": 0.31496062992125984,
                    "duration": 0.10576049999997394
                },
                {
                    "name": "C4",
                    "midi": 60,
                    "time": 567.7223640000033,
                    "velocity": 0.31496062992125984,
                    "duration": 0.10576049999997394
                },
                {
                    "name": "A#3",
                    "midi": 58,
                    "time": 568.1454060000033,
                    "velocity": 0.31496062992125984,
                    "duration": 0.10576049999997394
                },
                {
                    "name": "A2",
                    "midi": 45,
                    "time": 568.5684480000033,
                    "velocity": 0.5905511811023622,
                    "duration": 0.10576049999997394
                },
                {
                    "name": "A3",
                    "midi": 57,
                    "time": 568.5684480000033,
                    "velocity": 0.5905511811023622,
                    "duration": 0.10576049999997394
                },
                {
                    "name": "C#3",
                    "midi": 49,
                    "time": 568.9914900000033,
                    "velocity": 0.5748031496062992,
                    "duration": 0.10576049999997394
                },
                {
                    "name": "C#4",
                    "midi": 61,
                    "time": 568.9914900000033,
                    "velocity": 0.5748031496062992,
                    "duration": 0.10576049999997394
                },
                {
                    "name": "D4",
                    "midi": 62,
                    "time": 569.4145320000033,
                    "velocity": 0.5748031496062992,
                    "duration": 0.10576049999997394
                },
                {
                    "name": "D3",
                    "midi": 50,
                    "time": 569.4145320000033,
                    "velocity": 0.5748031496062992,
                    "duration": 0.10576049999997394
                },
                {
                    "name": "A#2",
                    "midi": 46,
                    "time": 569.8375740000033,
                    "velocity": 0.5905511811023622,
                    "duration": 0.10576049999997394
                },
                {
                    "name": "A#3",
                    "midi": 58,
                    "time": 569.8375740000033,
                    "velocity": 0.5905511811023622,
                    "duration": 0.10576049999997394
                },
                {
                    "name": "C4",
                    "midi": 60,
                    "time": 570.2606160000033,
                    "velocity": 0.5748031496062992,
                    "duration": 0.10576049999997394
                },
                {
                    "name": "C3",
                    "midi": 48,
                    "time": 570.2606160000033,
                    "velocity": 0.5748031496062992,
                    "duration": 0.10576049999997394
                },
                {
                    "name": "C3",
                    "midi": 48,
                    "time": 570.6836580000033,
                    "velocity": 0.5748031496062992,
                    "duration": 0.10576049999997394
                },
                {
                    "name": "C2",
                    "midi": 36,
                    "time": 570.6836580000033,
                    "velocity": 0.5748031496062992,
                    "duration": 0.10576049999997394
                },
                {
                    "name": "F2",
                    "midi": 41,
                    "time": 571.1067000000033,
                    "velocity": 0.5039370078740157,
                    "duration": 0.10576049999997394
                },
                {
                    "name": "A2",
                    "midi": 45,
                    "time": 571.2124605000033,
                    "velocity": 0.4645669291338583,
                    "duration": 0.10576049999997394
                },
                {
                    "name": "C3",
                    "midi": 48,
                    "time": 571.3182210000033,
                    "velocity": 0.4645669291338583,
                    "duration": 0.10576049999997394
                },
                {
                    "name": "F3",
                    "midi": 53,
                    "time": 571.4239815000033,
                    "velocity": 0.4645669291338583,
                    "duration": 0.10576049999997394
                },
                {
                    "name": "F2",
                    "midi": 41,
                    "time": 571.5297420000032,
                    "velocity": 0.49606299212598426,
                    "duration": 0.10576049999997394
                },
                {
                    "name": "A2",
                    "midi": 45,
                    "time": 571.6355025000032,
                    "velocity": 0.4566929133858268,
                    "duration": 0.10576049999997394
                },
                {
                    "name": "C3",
                    "midi": 48,
                    "time": 571.7412630000032,
                    "velocity": 0.4566929133858268,
                    "duration": 0.10576049999997394
                },
                {
                    "name": "F3",
                    "midi": 53,
                    "time": 571.8470235000032,
                    "velocity": 0.4566929133858268,
                    "duration": 0.10576049999997394
                },
                {
                    "name": "F2",
                    "midi": 41,
                    "time": 571.9527840000031,
                    "velocity": 0.49606299212598426,
                    "duration": 0.10576049999997394
                },
                {
                    "name": "A2",
                    "midi": 45,
                    "time": 572.0585445000031,
                    "velocity": 0.44881889763779526,
                    "duration": 0.10576049999997394
                },
                {
                    "name": "C3",
                    "midi": 48,
                    "time": 572.1643050000031,
                    "velocity": 0.4566929133858268,
                    "duration": 0.10576049999997394
                },
                {
                    "name": "F3",
                    "midi": 53,
                    "time": 572.270065500003,
                    "velocity": 0.4566929133858268,
                    "duration": 0.10576049999997394
                },
                {
                    "name": "F2",
                    "midi": 41,
                    "time": 572.375826000003,
                    "velocity": 0.49606299212598426,
                    "duration": 0.10576049999997394
                },
                {
                    "name": "A2",
                    "midi": 45,
                    "time": 572.481586500003,
                    "velocity": 0.4566929133858268,
                    "duration": 0.10576049999997394
                },
                {
                    "name": "C3",
                    "midi": 48,
                    "time": 572.587347000003,
                    "velocity": 0.4645669291338583,
                    "duration": 0.10576049999997394
                },
                {
                    "name": "F3",
                    "midi": 53,
                    "time": 572.693107500003,
                    "velocity": 0.4645669291338583,
                    "duration": 0.10576049999997394
                },
                {
                    "name": "F2",
                    "midi": 41,
                    "time": 572.7988680000029,
                    "velocity": 0.49606299212598426,
                    "duration": 0.10576049999997394
                },
                {
                    "name": "A2",
                    "midi": 45,
                    "time": 572.9046285000029,
                    "velocity": 0.44881889763779526,
                    "duration": 0.10576049999997394
                },
                {
                    "name": "C3",
                    "midi": 48,
                    "time": 573.0103890000029,
                    "velocity": 0.44881889763779526,
                    "duration": 0.10576049999997394
                },
                {
                    "name": "F3",
                    "midi": 53,
                    "time": 573.1161495000028,
                    "velocity": 0.44881889763779526,
                    "duration": 0.10576049999997394
                },
                {
                    "name": "F2",
                    "midi": 41,
                    "time": 573.2219100000028,
                    "velocity": 0.49606299212598426,
                    "duration": 0.10576049999997394
                },
                {
                    "name": "A#2",
                    "midi": 46,
                    "time": 573.3276705000028,
                    "velocity": 0.44881889763779526,
                    "duration": 0.10576049999997394
                },
                {
                    "name": "C3",
                    "midi": 48,
                    "time": 573.4334310000028,
                    "velocity": 0.44881889763779526,
                    "duration": 0.10576049999997394
                },
                {
                    "name": "G3",
                    "midi": 55,
                    "time": 573.5391915000027,
                    "velocity": 0.44881889763779526,
                    "duration": 0.10576049999997394
                },
                {
                    "name": "F2",
                    "midi": 41,
                    "time": 573.6449520000027,
                    "velocity": 0.49606299212598426,
                    "duration": 0.10576049999997394
                },
                {
                    "name": "A2",
                    "midi": 45,
                    "time": 573.7507125000027,
                    "velocity": 0.44881889763779526,
                    "duration": 0.10576049999997394
                },
                {
                    "name": "C3",
                    "midi": 48,
                    "time": 573.8564730000027,
                    "velocity": 0.44881889763779526,
                    "duration": 0.10576049999997394
                },
                {
                    "name": "F3",
                    "midi": 53,
                    "time": 573.9622335000026,
                    "velocity": 0.44881889763779526,
                    "duration": 0.10576049999997394
                },
                {
                    "name": "F2",
                    "midi": 41,
                    "time": 574.0679940000026,
                    "velocity": 0.49606299212598426,
                    "duration": 0.10576049999997394
                },
                {
                    "name": "A2",
                    "midi": 45,
                    "time": 574.1737545000026,
                    "velocity": 0.44881889763779526,
                    "duration": 0.10576049999997394
                },
                {
                    "name": "C3",
                    "midi": 48,
                    "time": 574.2795150000026,
                    "velocity": 0.44881889763779526,
                    "duration": 0.10576049999997394
                },
                {
                    "name": "F3",
                    "midi": 53,
                    "time": 574.3852755000025,
                    "velocity": 0.44881889763779526,
                    "duration": 0.10576049999997394
                },
                {
                    "name": "F2",
                    "midi": 41,
                    "time": 574.4910360000025,
                    "velocity": 0.49606299212598426,
                    "duration": 0.10576049999997394
                },
                {
                    "name": "A2",
                    "midi": 45,
                    "time": 574.5967965000025,
                    "velocity": 0.44881889763779526,
                    "duration": 0.10576049999997394
                },
                {
                    "name": "C3",
                    "midi": 48,
                    "time": 574.7025570000025,
                    "velocity": 0.4566929133858268,
                    "duration": 0.10576049999997394
                },
                {
                    "name": "F3",
                    "midi": 53,
                    "time": 574.8083175000024,
                    "velocity": 0.4566929133858268,
                    "duration": 0.10576049999997394
                },
                {
                    "name": "F2",
                    "midi": 41,
                    "time": 574.9140780000024,
                    "velocity": 0.49606299212598426,
                    "duration": 0.10576049999997394
                },
                {
                    "name": "A2",
                    "midi": 45,
                    "time": 575.0198385000024,
                    "velocity": 0.4566929133858268,
                    "duration": 0.10576049999997394
                },
                {
                    "name": "C3",
                    "midi": 48,
                    "time": 575.1255990000024,
                    "velocity": 0.4645669291338583,
                    "duration": 0.10576049999997394
                },
                {
                    "name": "F3",
                    "midi": 53,
                    "time": 575.2313595000023,
                    "velocity": 0.4645669291338583,
                    "duration": 0.10576049999997394
                },
                {
                    "name": "F2",
                    "midi": 41,
                    "time": 575.3371200000023,
                    "velocity": 0.49606299212598426,
                    "duration": 0.10576049999997394
                },
                {
                    "name": "A2",
                    "midi": 45,
                    "time": 575.4428805000023,
                    "velocity": 0.44881889763779526,
                    "duration": 0.10576049999997394
                },
                {
                    "name": "C3",
                    "midi": 48,
                    "time": 575.5486410000022,
                    "velocity": 0.44881889763779526,
                    "duration": 0.10576049999997394
                },
                {
                    "name": "F3",
                    "midi": 53,
                    "time": 575.6544015000022,
                    "velocity": 0.44881889763779526,
                    "duration": 0.10576049999997394
                },
                {
                    "name": "F2",
                    "midi": 41,
                    "time": 575.7601620000022,
                    "velocity": 0.49606299212598426,
                    "duration": 0.10576049999997394
                },
                {
                    "name": "A#2",
                    "midi": 46,
                    "time": 575.8659225000022,
                    "velocity": 0.44881889763779526,
                    "duration": 0.10576049999997394
                },
                {
                    "name": "C3",
                    "midi": 48,
                    "time": 575.9716830000021,
                    "velocity": 0.44881889763779526,
                    "duration": 0.10576049999997394
                },
                {
                    "name": "G3",
                    "midi": 55,
                    "time": 576.0774435000021,
                    "velocity": 0.44881889763779526,
                    "duration": 0.10576049999997394
                },
                {
                    "name": "F4",
                    "midi": 65,
                    "time": 576.1832040000021,
                    "velocity": 0.49606299212598426,
                    "duration": 0.10576049999997394
                },
                {
                    "name": "F3",
                    "midi": 53,
                    "time": 576.1832040000021,
                    "velocity": 0.49606299212598426,
                    "duration": 0.10576049999997394
                },
                {
                    "name": "A3",
                    "midi": 57,
                    "time": 576.1832040000021,
                    "velocity": 0.49606299212598426,
                    "duration": 0.10576049999997394
                },
                {
                    "name": "C4",
                    "midi": 60,
                    "time": 576.1832040000021,
                    "velocity": 0.49606299212598426,
                    "duration": 0.10576049999997394
                },
                {
                    "name": "A3",
                    "midi": 57,
                    "time": 576.6062460000021,
                    "velocity": 0.5433070866141733,
                    "duration": 0.6345629999999574
                },
                {
                    "name": "A2",
                    "midi": 45,
                    "time": 576.6062460000021,
                    "velocity": 0.4566929133858268,
                    "duration": 0.6345629999999574
                },
                {
                    "name": "C#4",
                    "midi": 61,
                    "time": 577.2408090000021,
                    "velocity": 0.49606299212598426,
                    "duration": 0.2115209999999479
                },
                {
                    "name": "C#3",
                    "midi": 49,
                    "time": 577.2408090000021,
                    "velocity": 0.49606299212598426,
                    "duration": 0.2115209999999479
                },
                {
                    "name": "D4",
                    "midi": 62,
                    "time": 577.452330000002,
                    "velocity": 0.49606299212598426,
                    "duration": 0.10576049999997394
                },
                {
                    "name": "D3",
                    "midi": 50,
                    "time": 577.452330000002,
                    "velocity": 0.49606299212598426,
                    "duration": 0.10576049999997394
                },
                {
                    "name": "F4",
                    "midi": 65,
                    "time": 577.875372000002,
                    "velocity": 0.5590551181102362,
                    "duration": 0.6345629999999574
                },
                {
                    "name": "F3",
                    "midi": 53,
                    "time": 577.875372000002,
                    "velocity": 0.47244094488188976,
                    "duration": 0.6345629999999574
                },
                {
                    "name": "A3",
                    "midi": 57,
                    "time": 578.509935000002,
                    "velocity": 0.49606299212598426,
                    "duration": 0.2115209999999479
                },
                {
                    "name": "A#3",
                    "midi": 58,
                    "time": 578.7214560000019,
                    "velocity": 0.4409448818897638,
                    "duration": 0.052880250000043816
                },
                {
                    "name": "C4",
                    "midi": 60,
                    "time": 578.774336250002,
                    "velocity": 0.4094488188976378,
                    "duration": 0.052880250000043816
                },
                {
                    "name": "A#3",
                    "midi": 58,
                    "time": 578.827216500002,
                    "velocity": 0.4409448818897638,
                    "duration": 0.052880250000043816
                },
                {
                    "name": "C4",
                    "midi": 60,
                    "time": 578.880096750002,
                    "velocity": 0.4094488188976378,
                    "duration": 0.052880250000043816
                },
                {
                    "name": "A#3",
                    "midi": 58,
                    "time": 578.9329770000021,
                    "velocity": 0.4409448818897638,
                    "duration": 0.03525349999995342
                },
                {
                    "name": "C4",
                    "midi": 60,
                    "time": 578.968230500002,
                    "velocity": 0.4094488188976378,
                    "duration": 0.03525349999995342
                },
                {
                    "name": "A#3",
                    "midi": 58,
                    "time": 579.003484000002,
                    "velocity": 0.4094488188976378,
                    "duration": 0.03525349999995342
                },
                {
                    "name": "A3",
                    "midi": 57,
                    "time": 579.038737500002,
                    "velocity": 0.4409448818897638,
                    "duration": 0.052880250000043816
                },
                {
                    "name": "G3",
                    "midi": 55,
                    "time": 579.091617750002,
                    "velocity": 0.4094488188976378,
                    "duration": 0.052880250000043816
                },
                {
                    "name": "C4",
                    "midi": 60,
                    "time": 579.144498000002,
                    "velocity": 0.49606299212598426,
                    "duration": 0.10576049999997394
                },
                {
                    "name": "C4",
                    "midi": 60,
                    "time": 579.567540000002,
                    "velocity": 0.5275590551181102,
                    "duration": 0.10576049999997394
                },
                {
                    "name": "C3",
                    "midi": 48,
                    "time": 579.567540000002,
                    "velocity": 0.4409448818897638,
                    "duration": 0.10576049999997394
                },
                {
                    "name": "F3",
                    "midi": 53,
                    "time": 579.9905820000021,
                    "velocity": 0.47244094488188976,
                    "duration": 0.10576049999997394
                },
                {
                    "name": "F4",
                    "midi": 65,
                    "time": 579.9905820000021,
                    "velocity": 0.5669291338582677,
                    "duration": 0.10576049999997394
                },
                {
                    "name": "F3",
                    "midi": 53,
                    "time": 580.4136240000021,
                    "velocity": 0.5433070866141733,
                    "duration": 0.10576049999997394
                },
                {
                    "name": "F2",
                    "midi": 41,
                    "time": 580.4136240000021,
                    "velocity": 0.4566929133858268,
                    "duration": 0.10576049999997394
                }
            ],
            "controlChanges": {
                "7": [
                    {
                        "number": 7,
                        "time": 0,
                        "value": 0.7874015748031497
                    }
                ],
                "10": [
                    {
                        "number": 10,
                        "time": 0,
                        "value": 0.5039370078740157
                    }
                ]
            },
            "id": 2,
            "name": "Piano left",
            "instrumentNumber": 0,
            "instrument": "acoustic grand piano",
            "instrumentFamily": "piano",
            "channelNumber": 0,
            "isPercussion": false
        },
        {
            "startTime": 0,
            "duration": 0,
            "length": 0,
            "notes": [],
            "controlChanges": {
                "64": [
                    {
                        "number": 64,
                        "time": 0,
                        "value": 1
                    },
                    {
                        "number": 64,
                        "time": 1.2788207125000002,
                        "value": 0
                    },
                    {
                        "number": 64,
                        "time": 1.3801745250000002,
                        "value": 1
                    },
                    {
                        "number": 64,
                        "time": 2.5444213625000005,
                        "value": 0
                    },
                    {
                        "number": 64,
                        "time": 2.6757406500000007,
                        "value": 1
                    },
                    {
                        "number": 64,
                        "time": 3.8153100375000006,
                        "value": 0
                    },
                    {
                        "number": 64,
                        "time": 3.9942215500000007,
                        "value": 1
                    },
                    {
                        "number": 64,
                        "time": 4.242758725000001,
                        "value": 0
                    },
                    {
                        "number": 64,
                        "time": 5.2413141125000005,
                        "value": 1
                    },
                    {
                        "number": 64,
                        "time": 5.9463841125000005,
                        "value": 0
                    },
                    {
                        "number": 64,
                        "time": 6.5077961,
                        "value": 1
                    },
                    {
                        "number": 64,
                        "time": 7.614756,
                        "value": 0
                    },
                    {
                        "number": 64,
                        "time": 7.873869225,
                        "value": 1
                    },
                    {
                        "number": 64,
                        "time": 8.8935767125,
                        "value": 0
                    },
                    {
                        "number": 64,
                        "time": 8.9305928875,
                        "value": 1
                    },
                    {
                        "number": 64,
                        "time": 9.2725518375,
                        "value": 0
                    },
                    {
                        "number": 64,
                        "time": 10.435036,
                        "value": 1
                    },
                    {
                        "number": 64,
                        "time": 11.422134,
                        "value": 0
                    },
                    {
                        "number": 64,
                        "time": 12.7538349625,
                        "value": 1
                    },
                    {
                        "number": 64,
                        "time": 13.226231862499999,
                        "value": 0
                    },
                    {
                        "number": 64,
                        "time": 19.9332102375,
                        "value": 1
                    },
                    {
                        "number": 64,
                        "time": 20.306016,
                        "value": 0
                    },
                    {
                        "number": 64,
                        "time": 21.196166875,
                        "value": 1
                    },
                    {
                        "number": 64,
                        "time": 21.575142,
                        "value": 0
                    },
                    {
                        "number": 64,
                        "time": 22.8504373625,
                        "value": 1
                    },
                    {
                        "number": 64,
                        "time": 23.29198745,
                        "value": 0
                    },
                    {
                        "number": 64,
                        "time": 28.0327018625,
                        "value": 1
                    },
                    {
                        "number": 64,
                        "time": 30.459024000000003,
                        "value": 0
                    },
                    {
                        "number": 64,
                        "time": 30.525124312500004,
                        "value": 1
                    },
                    {
                        "number": 64,
                        "time": 31.013385287500004,
                        "value": 0
                    },
                    {
                        "number": 64,
                        "time": 31.728150000000003,
                        "value": 0
                    },
                    {
                        "number": 64,
                        "time": 31.794250312500004,
                        "value": 1
                    },
                    {
                        "number": 64,
                        "time": 32.28251128750001,
                        "value": 0
                    },
                    {
                        "number": 64,
                        "time": 33.109205862500005,
                        "value": 1
                    },
                    {
                        "number": 64,
                        "time": 35.535528000000006,
                        "value": 0
                    },
                    {
                        "number": 64,
                        "time": 35.601628312500004,
                        "value": 1
                    },
                    {
                        "number": 64,
                        "time": 36.08988928750001,
                        "value": 0
                    },
                    {
                        "number": 64,
                        "time": 36.804654000000006,
                        "value": 0
                    },
                    {
                        "number": 64,
                        "time": 36.870754312500004,
                        "value": 1
                    },
                    {
                        "number": 64,
                        "time": 37.35901528750001,
                        "value": 0
                    },
                    {
                        "number": 64,
                        "time": 38.185709862500005,
                        "value": 1
                    },
                    {
                        "number": 64,
                        "time": 40.617320025000005,
                        "value": 0
                    },
                    {
                        "number": 64,
                        "time": 40.723961862500005,
                        "value": 1
                    },
                    {
                        "number": 64,
                        "time": 43.155572025000005,
                        "value": 0
                    },
                    {
                        "number": 64,
                        "time": 43.262213862500005,
                        "value": 1
                    },
                    {
                        "number": 64,
                        "time": 45.5907075375,
                        "value": 0
                    },
                    {
                        "number": 64,
                        "time": 45.6559265125,
                        "value": 1
                    },
                    {
                        "number": 64,
                        "time": 46.5478400625,
                        "value": 0
                    },
                    {
                        "number": 64,
                        "time": 46.957662,
                        "value": 0
                    },
                    {
                        "number": 64,
                        "time": 47.0237623125,
                        "value": 1
                    },
                    {
                        "number": 64,
                        "time": 47.819610075,
                        "value": 0
                    },
                    {
                        "number": 64,
                        "time": 48.3387178625,
                        "value": 1
                    },
                    {
                        "number": 64,
                        "time": 48.864876349999996,
                        "value": 0
                    },
                    {
                        "number": 64,
                        "time": 50.59758587499999,
                        "value": 1
                    },
                    {
                        "number": 64,
                        "time": 51.13520174999999,
                        "value": 0
                    },
                    {
                        "number": 64,
                        "time": 51.90372804999999,
                        "value": 1
                    },
                    {
                        "number": 64,
                        "time": 52.69340644999999,
                        "value": 0
                    },
                    {
                        "number": 64,
                        "time": 53.30329199999999,
                        "value": 1
                    },
                    {
                        "number": 64,
                        "time": 53.73250336249999,
                        "value": 0
                    },
                    {
                        "number": 64,
                        "time": 53.87792404999999,
                        "value": 1
                    },
                    {
                        "number": 64,
                        "time": 54.57241799999999,
                        "value": 0
                    },
                    {
                        "number": 64,
                        "time": 54.83153122499999,
                        "value": 1
                    },
                    {
                        "number": 64,
                        "time": 55.325080224999994,
                        "value": 0
                    },
                    {
                        "number": 64,
                        "time": 55.86357743749999,
                        "value": 1
                    },
                    {
                        "number": 64,
                        "time": 56.70613608749999,
                        "value": 0
                    },
                    {
                        "number": 64,
                        "time": 56.756372324999994,
                        "value": 1
                    },
                    {
                        "number": 64,
                        "time": 57.1186020375,
                        "value": 0
                    },
                    {
                        "number": 64,
                        "time": 57.221718525,
                        "value": 1
                    },
                    {
                        "number": 64,
                        "time": 57.5434067125,
                        "value": 0
                    },
                    {
                        "number": 64,
                        "time": 57.6244897625,
                        "value": 1
                    },
                    {
                        "number": 64,
                        "time": 57.971736737499995,
                        "value": 0
                    },
                    {
                        "number": 64,
                        "time": 58.029023675,
                        "value": 1
                    },
                    {
                        "number": 64,
                        "time": 58.3842026875,
                        "value": 0
                    },
                    {
                        "number": 64,
                        "time": 58.5410807625,
                        "value": 1
                    },
                    {
                        "number": 64,
                        "time": 58.818702075000004,
                        "value": 0
                    },
                    {
                        "number": 64,
                        "time": 58.913886525,
                        "value": 1
                    },
                    {
                        "number": 64,
                        "time": 59.237337387500006,
                        "value": 0
                    },
                    {
                        "number": 64,
                        "time": 59.336928525000005,
                        "value": 1
                    },
                    {
                        "number": 64,
                        "time": 59.65332868750001,
                        "value": 0
                    },
                    {
                        "number": 64,
                        "time": 59.75027581250001,
                        "value": 1
                    },
                    {
                        "number": 64,
                        "time": 60.080777375000004,
                        "value": 0
                    },
                    {
                        "number": 64,
                        "time": 60.930386725000005,
                        "value": 1
                    },
                    {
                        "number": 64,
                        "time": 61.351666050000006,
                        "value": 0
                    },
                    {
                        "number": 64,
                        "time": 61.446850500000004,
                        "value": 1
                    },
                    {
                        "number": 64,
                        "time": 61.77470805,
                        "value": 0
                    },
                    {
                        "number": 64,
                        "time": 61.839045687500004,
                        "value": 1
                    },
                    {
                        "number": 64,
                        "time": 62.199512725000005,
                        "value": 0
                    },
                    {
                        "number": 64,
                        "time": 62.253274312500004,
                        "value": 1
                    },
                    {
                        "number": 64,
                        "time": 62.6199107125,
                        "value": 0
                    },
                    {
                        "number": 64,
                        "time": 62.6657402625,
                        "value": 1
                    },
                    {
                        "number": 64,
                        "time": 63.04383405,
                        "value": 0
                    },
                    {
                        "number": 64,
                        "time": 63.1390185,
                        "value": 1
                    },
                    {
                        "number": 64,
                        "time": 63.4563,
                        "value": 0
                    },
                    {
                        "number": 64,
                        "time": 63.5576538125,
                        "value": 1
                    },
                    {
                        "number": 64,
                        "time": 63.8855113625,
                        "value": 0
                    },
                    {
                        "number": 64,
                        "time": 64.03093205,
                        "value": 1
                    },
                    {
                        "number": 64,
                        "time": 64.311197375,
                        "value": 0
                    },
                    {
                        "number": 64,
                        "time": 64.413432525,
                        "value": 1
                    },
                    {
                        "number": 64,
                        "time": 64.725426,
                        "value": 0
                    },
                    {
                        "number": 64,
                        "time": 64.98453922499999,
                        "value": 1
                    },
                    {
                        "number": 64,
                        "time": 65.478088225,
                        "value": 0
                    },
                    {
                        "number": 64,
                        "time": 66.0165854375,
                        "value": 1
                    },
                    {
                        "number": 64,
                        "time": 66.8591440875,
                        "value": 0
                    },
                    {
                        "number": 64,
                        "time": 66.909380325,
                        "value": 1
                    },
                    {
                        "number": 64,
                        "time": 67.2716100375,
                        "value": 0
                    },
                    {
                        "number": 64,
                        "time": 67.374726525,
                        "value": 1
                    },
                    {
                        "number": 64,
                        "time": 67.6964147125,
                        "value": 0
                    },
                    {
                        "number": 64,
                        "time": 67.7774977625,
                        "value": 1
                    },
                    {
                        "number": 64,
                        "time": 68.12474473750001,
                        "value": 0
                    },
                    {
                        "number": 64,
                        "time": 68.182031675,
                        "value": 1
                    },
                    {
                        "number": 64,
                        "time": 68.53721068750001,
                        "value": 0
                    },
                    {
                        "number": 64,
                        "time": 68.6940887625,
                        "value": 1
                    },
                    {
                        "number": 64,
                        "time": 68.971710075,
                        "value": 0
                    },
                    {
                        "number": 64,
                        "time": 69.06689452500001,
                        "value": 1
                    },
                    {
                        "number": 64,
                        "time": 69.3903453875,
                        "value": 0
                    },
                    {
                        "number": 64,
                        "time": 69.489936525,
                        "value": 1
                    },
                    {
                        "number": 64,
                        "time": 69.8063366875,
                        "value": 0
                    },
                    {
                        "number": 64,
                        "time": 69.9032838125,
                        "value": 1
                    },
                    {
                        "number": 64,
                        "time": 70.22497200000001,
                        "value": 0
                    },
                    {
                        "number": 64,
                        "time": 74.96921176250001,
                        "value": 1
                    },
                    {
                        "number": 64,
                        "time": 75.31117071250002,
                        "value": 0
                    },
                    {
                        "number": 64,
                        "time": 75.39225376250002,
                        "value": 1
                    },
                    {
                        "number": 64,
                        "time": 75.73421271250002,
                        "value": 0
                    },
                    {
                        "number": 64,
                        "time": 75.80031302500002,
                        "value": 1
                    },
                    {
                        "number": 64,
                        "time": 76.14756000000003,
                        "value": 0
                    },
                    {
                        "number": 64,
                        "time": 76.23833776250002,
                        "value": 1
                    },
                    {
                        "number": 64,
                        "time": 76.58029671250003,
                        "value": 0
                    },
                    {
                        "number": 64,
                        "time": 76.66137976250003,
                        "value": 1
                    },
                    {
                        "number": 64,
                        "time": 77.00333871250004,
                        "value": 0
                    },
                    {
                        "number": 64,
                        "time": 77.06943902500004,
                        "value": 1
                    },
                    {
                        "number": 64,
                        "time": 77.41668600000004,
                        "value": 0
                    },
                    {
                        "number": 64,
                        "time": 77.50746376250004,
                        "value": 1
                    },
                    {
                        "number": 64,
                        "time": 77.84942271250004,
                        "value": 0
                    },
                    {
                        "number": 64,
                        "time": 77.93050576250005,
                        "value": 1
                    },
                    {
                        "number": 64,
                        "time": 78.27246471250005,
                        "value": 0
                    },
                    {
                        "number": 64,
                        "time": 78.33856502500005,
                        "value": 1
                    },
                    {
                        "number": 64,
                        "time": 78.68581200000006,
                        "value": 0
                    },
                    {
                        "number": 64,
                        "time": 78.77658976250005,
                        "value": 1
                    },
                    {
                        "number": 64,
                        "time": 79.11854871250006,
                        "value": 0
                    },
                    {
                        "number": 64,
                        "time": 79.19963176250006,
                        "value": 1
                    },
                    {
                        "number": 64,
                        "time": 79.54159071250007,
                        "value": 0
                    },
                    {
                        "number": 64,
                        "time": 79.60769102500007,
                        "value": 1
                    },
                    {
                        "number": 64,
                        "time": 79.95493800000007,
                        "value": 0
                    },
                    {
                        "number": 64,
                        "time": 80.04571576250007,
                        "value": 1
                    },
                    {
                        "number": 64,
                        "time": 80.38767471250007,
                        "value": 0
                    },
                    {
                        "number": 64,
                        "time": 80.46875776250008,
                        "value": 1
                    },
                    {
                        "number": 64,
                        "time": 80.80102200000007,
                        "value": 0
                    },
                    {
                        "number": 64,
                        "time": 80.89179976250007,
                        "value": 1
                    },
                    {
                        "number": 64,
                        "time": 81.23375871250008,
                        "value": 0
                    },
                    {
                        "number": 64,
                        "time": 81.31484176250008,
                        "value": 1
                    },
                    {
                        "number": 64,
                        "time": 81.64710600000008,
                        "value": 0
                    },
                    {
                        "number": 64,
                        "time": 81.73788376250008,
                        "value": 1
                    },
                    {
                        "number": 64,
                        "time": 82.07984271250008,
                        "value": 0
                    },
                    {
                        "number": 64,
                        "time": 82.16092576250009,
                        "value": 1
                    },
                    {
                        "number": 64,
                        "time": 82.49847802500008,
                        "value": 0
                    },
                    {
                        "number": 64,
                        "time": 82.55929031250008,
                        "value": 1
                    },
                    {
                        "number": 64,
                        "time": 82.92592671250009,
                        "value": 0
                    },
                    {
                        "number": 64,
                        "time": 82.98233231250009,
                        "value": 1
                    },
                    {
                        "number": 64,
                        "time": 83.34985005000009,
                        "value": 0
                    },
                    {
                        "number": 64,
                        "time": 83.42035705000009,
                        "value": 1
                    },
                    {
                        "number": 64,
                        "time": 83.7623160000001,
                        "value": 0
                    },
                    {
                        "number": 64,
                        "time": 85.0314420000001,
                        "value": 0
                    },
                    {
                        "number": 64,
                        "time": 88.9798340000001,
                        "value": 1
                    },
                    {
                        "number": 64,
                        "time": 90.9593180250001,
                        "value": 0
                    },
                    {
                        "number": 64,
                        "time": 91.3770720000001,
                        "value": 0
                    },
                    {
                        "number": 64,
                        "time": 91.4890018625001,
                        "value": 1
                    },
                    {
                        "number": 64,
                        "time": 91.8247914500001,
                        "value": 0
                    },
                    {
                        "number": 64,
                        "time": 91.9376026500001,
                        "value": 1
                    },
                    {
                        "number": 64,
                        "time": 93.5028580500001,
                        "value": 0
                    },
                    {
                        "number": 64,
                        "time": 93.9778989625001,
                        "value": 1
                    },
                    {
                        "number": 64,
                        "time": 94.3436540250001,
                        "value": 0
                    },
                    {
                        "number": 64,
                        "time": 94.4256184125001,
                        "value": 1
                    },
                    {
                        "number": 64,
                        "time": 94.7658146875001,
                        "value": 0
                    },
                    {
                        "number": 64,
                        "time": 94.9359128250001,
                        "value": 1
                    },
                    {
                        "number": 64,
                        "time": 95.1844500000001,
                        "value": 0
                    },
                    {
                        "number": 64,
                        "time": 96.5945900000001,
                        "value": 1
                    },
                    {
                        "number": 64,
                        "time": 98.5740740250001,
                        "value": 0
                    },
                    {
                        "number": 64,
                        "time": 98.9918280000001,
                        "value": 0
                    },
                    {
                        "number": 64,
                        "time": 99.1037578625001,
                        "value": 1
                    },
                    {
                        "number": 64,
                        "time": 99.4395474500001,
                        "value": 0
                    },
                    {
                        "number": 64,
                        "time": 99.5523586500001,
                        "value": 1
                    },
                    {
                        "number": 64,
                        "time": 101.1176140500001,
                        "value": 0
                    },
                    {
                        "number": 64,
                        "time": 101.5926549625001,
                        "value": 1
                    },
                    {
                        "number": 64,
                        "time": 101.9584100250001,
                        "value": 0
                    },
                    {
                        "number": 64,
                        "time": 102.0403744125001,
                        "value": 1
                    },
                    {
                        "number": 64,
                        "time": 102.3805706875001,
                        "value": 0
                    },
                    {
                        "number": 64,
                        "time": 102.5506688250001,
                        "value": 1
                    },
                    {
                        "number": 64,
                        "time": 102.7992060000001,
                        "value": 0
                    },
                    {
                        "number": 64,
                        "time": 102.8899837625001,
                        "value": 1
                    },
                    {
                        "number": 64,
                        "time": 103.1420462875001,
                        "value": 0
                    },
                    {
                        "number": 64,
                        "time": 105.35772876250009,
                        "value": 1
                    },
                    {
                        "number": 64,
                        "time": 105.76931337500008,
                        "value": 0
                    },
                    {
                        "number": 64,
                        "time": 105.83100700000008,
                        "value": 1
                    },
                    {
                        "number": 64,
                        "time": 106.19323671250008,
                        "value": 0
                    },
                    {
                        "number": 64,
                        "time": 106.27960778750008,
                        "value": 1
                    },
                    {
                        "number": 64,
                        "time": 106.61187202500008,
                        "value": 0
                    },
                    {
                        "number": 64,
                        "time": 106.68237902500009,
                        "value": 1
                    },
                    {
                        "number": 64,
                        "time": 107.04020205000009,
                        "value": 0
                    },
                    {
                        "number": 64,
                        "time": 107.12040376250009,
                        "value": 1
                    },
                    {
                        "number": 64,
                        "time": 107.46148137500009,
                        "value": 0
                    },
                    {
                        "number": 64,
                        "time": 107.54344576250008,
                        "value": 1
                    },
                    {
                        "number": 64,
                        "time": 107.87571000000008,
                        "value": 0
                    },
                    {
                        "number": 64,
                        "time": 107.92594623750009,
                        "value": 1
                    },
                    {
                        "number": 64,
                        "time": 109.15364937500009,
                        "value": 0
                    },
                    {
                        "number": 64,
                        "time": 109.20829230000008,
                        "value": 1
                    },
                    {
                        "number": 64,
                        "time": 109.99620802500009,
                        "value": 0
                    },
                    {
                        "number": 64,
                        "time": 110.03410553750008,
                        "value": 1
                    },
                    {
                        "number": 64,
                        "time": 110.41396200000008,
                        "value": 0
                    },
                    {
                        "number": 64,
                        "time": 110.50121441250009,
                        "value": 1
                    },
                    {
                        "number": 64,
                        "time": 111.70071475000009,
                        "value": 0
                    },
                    {
                        "number": 64,
                        "time": 111.7544763375001,
                        "value": 1
                    },
                    {
                        "number": 64,
                        "time": 112.53005333750009,
                        "value": 0
                    },
                    {
                        "number": 64,
                        "time": 112.5503241000001,
                        "value": 1
                    },
                    {
                        "number": 64,
                        "time": 112.9548580125001,
                        "value": 0
                    },
                    {
                        "number": 64,
                        "time": 113.0209583250001,
                        "value": 1
                    },
                    {
                        "number": 64,
                        "time": 113.13905755000009,
                        "value": 0
                    },
                    {
                        "number": 64,
                        "time": 113.49335522500009,
                        "value": 1
                    },
                    {
                        "number": 64,
                        "time": 114.04771651250009,
                        "value": 0
                    },
                    {
                        "number": 64,
                        "time": 114.27774560000009,
                        "value": 1
                    },
                    {
                        "number": 64,
                        "time": 114.38262476250009,
                        "value": 0
                    },
                    {
                        "number": 64,
                        "time": 114.7192956875001,
                        "value": 1
                    },
                    {
                        "number": 64,
                        "time": 115.28952105000009,
                        "value": 0
                    },
                    {
                        "number": 64,
                        "time": 115.52924485000008,
                        "value": 1
                    },
                    {
                        "number": 64,
                        "time": 115.92320271250009,
                        "value": 0
                    },
                    {
                        "number": 64,
                        "time": 115.94699882500008,
                        "value": 1
                    },
                    {
                        "number": 64,
                        "time": 116.01662448750008,
                        "value": 0
                    },
                    {
                        "number": 64,
                        "time": 116.34800738750008,
                        "value": 1
                    },
                    {
                        "number": 64,
                        "time": 116.46786928750008,
                        "value": 0
                    },
                    {
                        "number": 64,
                        "time": 116.75959200000008,
                        "value": 1
                    },
                    {
                        "number": 64,
                        "time": 116.92792746250008,
                        "value": 0
                    },
                    {
                        "number": 64,
                        "time": 117.26988641250009,
                        "value": 1
                    },
                    {
                        "number": 64,
                        "time": 117.44439123750008,
                        "value": 0
                    },
                    {
                        "number": 64,
                        "time": 118.02871800000008,
                        "value": 1
                    },
                    {
                        "number": 64,
                        "time": 119.30753871250009,
                        "value": 0
                    },
                    {
                        "number": 64,
                        "time": 119.40889252500008,
                        "value": 1
                    },
                    {
                        "number": 64,
                        "time": 120.57313936250009,
                        "value": 0
                    },
                    {
                        "number": 64,
                        "time": 120.70445865000009,
                        "value": 1
                    },
                    {
                        "number": 64,
                        "time": 121.8440280375001,
                        "value": 0
                    },
                    {
                        "number": 64,
                        "time": 122.02293955000009,
                        "value": 1
                    },
                    {
                        "number": 64,
                        "time": 122.27147672500008,
                        "value": 0
                    },
                    {
                        "number": 64,
                        "time": 123.27003211250009,
                        "value": 1
                    },
                    {
                        "number": 64,
                        "time": 123.9751021125001,
                        "value": 0
                    },
                    {
                        "number": 64,
                        "time": 124.53651410000009,
                        "value": 1
                    },
                    {
                        "number": 64,
                        "time": 125.6434740000001,
                        "value": 0
                    },
                    {
                        "number": 64,
                        "time": 125.90258722500009,
                        "value": 1
                    },
                    {
                        "number": 64,
                        "time": 126.92229471250009,
                        "value": 0
                    },
                    {
                        "number": 64,
                        "time": 126.9593108875001,
                        "value": 1
                    },
                    {
                        "number": 64,
                        "time": 127.3012698375001,
                        "value": 0
                    },
                    {
                        "number": 64,
                        "time": 128.2760291125001,
                        "value": 1
                    },
                    {
                        "number": 64,
                        "time": 129.4508520000001,
                        "value": 0
                    },
                    {
                        "number": 64,
                        "time": 130.78255296250012,
                        "value": 1
                    },
                    {
                        "number": 64,
                        "time": 131.25494986250013,
                        "value": 0
                    },
                    {
                        "number": 64,
                        "time": 137.96192823750013,
                        "value": 1
                    },
                    {
                        "number": 64,
                        "time": 138.33473400000014,
                        "value": 0
                    },
                    {
                        "number": 64,
                        "time": 139.22488487500013,
                        "value": 1
                    },
                    {
                        "number": 64,
                        "time": 139.60386000000014,
                        "value": 0
                    },
                    {
                        "number": 64,
                        "time": 140.87915536250014,
                        "value": 1
                    },
                    {
                        "number": 64,
                        "time": 141.32070545000013,
                        "value": 0
                    },
                    {
                        "number": 64,
                        "time": 146.06141986250014,
                        "value": 1
                    },
                    {
                        "number": 64,
                        "time": 148.48774200000014,
                        "value": 0
                    },
                    {
                        "number": 64,
                        "time": 148.55384231250014,
                        "value": 1
                    },
                    {
                        "number": 64,
                        "time": 149.04210328750014,
                        "value": 0
                    },
                    {
                        "number": 64,
                        "time": 149.75686800000014,
                        "value": 0
                    },
                    {
                        "number": 64,
                        "time": 149.82296831250014,
                        "value": 1
                    },
                    {
                        "number": 64,
                        "time": 150.31122928750014,
                        "value": 0
                    },
                    {
                        "number": 64,
                        "time": 151.13792386250014,
                        "value": 1
                    },
                    {
                        "number": 64,
                        "time": 153.56424600000014,
                        "value": 0
                    },
                    {
                        "number": 64,
                        "time": 153.63034631250014,
                        "value": 1
                    },
                    {
                        "number": 64,
                        "time": 154.11860728750014,
                        "value": 0
                    },
                    {
                        "number": 64,
                        "time": 154.83337200000014,
                        "value": 0
                    },
                    {
                        "number": 64,
                        "time": 154.89947231250014,
                        "value": 1
                    },
                    {
                        "number": 64,
                        "time": 155.38773328750014,
                        "value": 0
                    },
                    {
                        "number": 64,
                        "time": 156.21442786250014,
                        "value": 1
                    },
                    {
                        "number": 64,
                        "time": 158.64603802500014,
                        "value": 0
                    },
                    {
                        "number": 64,
                        "time": 158.75267986250014,
                        "value": 1
                    },
                    {
                        "number": 64,
                        "time": 161.18429002500014,
                        "value": 0
                    },
                    {
                        "number": 64,
                        "time": 161.29093186250014,
                        "value": 1
                    },
                    {
                        "number": 64,
                        "time": 163.61942553750015,
                        "value": 0
                    },
                    {
                        "number": 64,
                        "time": 163.68464451250014,
                        "value": 1
                    },
                    {
                        "number": 64,
                        "time": 164.57655806250014,
                        "value": 0
                    },
                    {
                        "number": 64,
                        "time": 164.98638000000014,
                        "value": 0
                    },
                    {
                        "number": 64,
                        "time": 165.05248031250014,
                        "value": 1
                    },
                    {
                        "number": 64,
                        "time": 165.84832807500013,
                        "value": 0
                    },
                    {
                        "number": 64,
                        "time": 166.36743586250012,
                        "value": 1
                    },
                    {
                        "number": 64,
                        "time": 166.89359435000011,
                        "value": 0
                    },
                    {
                        "number": 64,
                        "time": 168.6263038750001,
                        "value": 1
                    },
                    {
                        "number": 64,
                        "time": 169.1639197500001,
                        "value": 0
                    },
                    {
                        "number": 64,
                        "time": 169.9324460500001,
                        "value": 1
                    },
                    {
                        "number": 64,
                        "time": 170.7221244500001,
                        "value": 0
                    },
                    {
                        "number": 64,
                        "time": 171.3320100000001,
                        "value": 1
                    },
                    {
                        "number": 64,
                        "time": 171.76122136250012,
                        "value": 0
                    },
                    {
                        "number": 64,
                        "time": 171.90664205000013,
                        "value": 1
                    },
                    {
                        "number": 64,
                        "time": 172.60113600000014,
                        "value": 0
                    },
                    {
                        "number": 64,
                        "time": 172.86024922500013,
                        "value": 1
                    },
                    {
                        "number": 64,
                        "time": 173.35379822500013,
                        "value": 0
                    },
                    {
                        "number": 64,
                        "time": 173.89229543750014,
                        "value": 1
                    },
                    {
                        "number": 64,
                        "time": 174.73485408750014,
                        "value": 0
                    },
                    {
                        "number": 64,
                        "time": 174.78509032500014,
                        "value": 1
                    },
                    {
                        "number": 64,
                        "time": 175.14732003750015,
                        "value": 0
                    },
                    {
                        "number": 64,
                        "time": 175.25043652500014,
                        "value": 1
                    },
                    {
                        "number": 64,
                        "time": 175.57212471250014,
                        "value": 0
                    },
                    {
                        "number": 64,
                        "time": 175.65320776250013,
                        "value": 1
                    },
                    {
                        "number": 64,
                        "time": 176.00045473750012,
                        "value": 0
                    },
                    {
                        "number": 64,
                        "time": 176.05774167500013,
                        "value": 1
                    },
                    {
                        "number": 64,
                        "time": 176.41292068750013,
                        "value": 0
                    },
                    {
                        "number": 64,
                        "time": 176.56979876250014,
                        "value": 1
                    },
                    {
                        "number": 64,
                        "time": 176.84742007500014,
                        "value": 0
                    },
                    {
                        "number": 64,
                        "time": 176.94260452500015,
                        "value": 1
                    },
                    {
                        "number": 64,
                        "time": 177.26605538750016,
                        "value": 0
                    },
                    {
                        "number": 64,
                        "time": 177.36564652500016,
                        "value": 1
                    },
                    {
                        "number": 64,
                        "time": 177.68204668750016,
                        "value": 0
                    },
                    {
                        "number": 64,
                        "time": 177.77899381250018,
                        "value": 1
                    },
                    {
                        "number": 64,
                        "time": 178.10949537500017,
                        "value": 0
                    },
                    {
                        "number": 64,
                        "time": 178.95910472500017,
                        "value": 1
                    },
                    {
                        "number": 64,
                        "time": 179.38038405000017,
                        "value": 0
                    },
                    {
                        "number": 64,
                        "time": 179.47556850000018,
                        "value": 1
                    },
                    {
                        "number": 64,
                        "time": 179.80342605000018,
                        "value": 0
                    },
                    {
                        "number": 64,
                        "time": 179.86776368750017,
                        "value": 1
                    },
                    {
                        "number": 64,
                        "time": 180.22823072500017,
                        "value": 0
                    },
                    {
                        "number": 64,
                        "time": 180.28199231250017,
                        "value": 1
                    },
                    {
                        "number": 64,
                        "time": 180.64862871250017,
                        "value": 0
                    },
                    {
                        "number": 64,
                        "time": 180.69445826250018,
                        "value": 1
                    },
                    {
                        "number": 64,
                        "time": 181.07255205000018,
                        "value": 0
                    },
                    {
                        "number": 64,
                        "time": 181.1677365000002,
                        "value": 1
                    },
                    {
                        "number": 64,
                        "time": 181.4850180000002,
                        "value": 0
                    },
                    {
                        "number": 64,
                        "time": 181.5863718125002,
                        "value": 1
                    },
                    {
                        "number": 64,
                        "time": 181.9142293625002,
                        "value": 0
                    },
                    {
                        "number": 64,
                        "time": 182.05965005000022,
                        "value": 1
                    },
                    {
                        "number": 64,
                        "time": 182.3399153750002,
                        "value": 0
                    },
                    {
                        "number": 64,
                        "time": 182.44215052500022,
                        "value": 1
                    },
                    {
                        "number": 64,
                        "time": 182.75414400000022,
                        "value": 0
                    },
                    {
                        "number": 64,
                        "time": 183.01325722500022,
                        "value": 1
                    },
                    {
                        "number": 64,
                        "time": 183.50680622500022,
                        "value": 0
                    },
                    {
                        "number": 64,
                        "time": 184.04530343750022,
                        "value": 1
                    },
                    {
                        "number": 64,
                        "time": 184.88786208750022,
                        "value": 0
                    },
                    {
                        "number": 64,
                        "time": 184.93809832500023,
                        "value": 1
                    },
                    {
                        "number": 64,
                        "time": 185.30032803750024,
                        "value": 0
                    },
                    {
                        "number": 64,
                        "time": 185.40344452500022,
                        "value": 1
                    },
                    {
                        "number": 64,
                        "time": 185.72513271250023,
                        "value": 0
                    },
                    {
                        "number": 64,
                        "time": 185.80621576250022,
                        "value": 1
                    },
                    {
                        "number": 64,
                        "time": 186.1534627375002,
                        "value": 0
                    },
                    {
                        "number": 64,
                        "time": 186.21074967500022,
                        "value": 1
                    },
                    {
                        "number": 64,
                        "time": 186.56592868750022,
                        "value": 0
                    },
                    {
                        "number": 64,
                        "time": 186.72280676250023,
                        "value": 1
                    },
                    {
                        "number": 64,
                        "time": 187.00042807500023,
                        "value": 0
                    },
                    {
                        "number": 64,
                        "time": 187.09561252500023,
                        "value": 1
                    },
                    {
                        "number": 64,
                        "time": 187.41906338750024,
                        "value": 0
                    },
                    {
                        "number": 64,
                        "time": 187.51865452500024,
                        "value": 1
                    },
                    {
                        "number": 64,
                        "time": 187.83505468750025,
                        "value": 0
                    },
                    {
                        "number": 64,
                        "time": 187.93200181250026,
                        "value": 1
                    },
                    {
                        "number": 64,
                        "time": 188.25369000000026,
                        "value": 0
                    },
                    {
                        "number": 64,
                        "time": 192.99792976250026,
                        "value": 1
                    },
                    {
                        "number": 64,
                        "time": 193.33988871250025,
                        "value": 0
                    },
                    {
                        "number": 64,
                        "time": 193.42097176250024,
                        "value": 1
                    },
                    {
                        "number": 64,
                        "time": 193.76293071250024,
                        "value": 0
                    },
                    {
                        "number": 64,
                        "time": 193.82903102500023,
                        "value": 1
                    },
                    {
                        "number": 64,
                        "time": 194.17627800000022,
                        "value": 0
                    },
                    {
                        "number": 64,
                        "time": 194.26705576250023,
                        "value": 1
                    },
                    {
                        "number": 64,
                        "time": 194.60901471250023,
                        "value": 0
                    },
                    {
                        "number": 64,
                        "time": 194.69009776250022,
                        "value": 1
                    },
                    {
                        "number": 64,
                        "time": 195.0320567125002,
                        "value": 0
                    },
                    {
                        "number": 64,
                        "time": 195.0981570250002,
                        "value": 1
                    },
                    {
                        "number": 64,
                        "time": 195.4454040000002,
                        "value": 0
                    },
                    {
                        "number": 64,
                        "time": 195.5361817625002,
                        "value": 1
                    },
                    {
                        "number": 64,
                        "time": 195.8781407125002,
                        "value": 0
                    },
                    {
                        "number": 64,
                        "time": 195.9592237625002,
                        "value": 1
                    },
                    {
                        "number": 64,
                        "time": 196.30118271250018,
                        "value": 0
                    },
                    {
                        "number": 64,
                        "time": 196.36728302500018,
                        "value": 1
                    },
                    {
                        "number": 64,
                        "time": 196.71453000000017,
                        "value": 0
                    },
                    {
                        "number": 64,
                        "time": 196.80530776250018,
                        "value": 1
                    },
                    {
                        "number": 64,
                        "time": 197.14726671250017,
                        "value": 0
                    },
                    {
                        "number": 64,
                        "time": 197.22834976250016,
                        "value": 1
                    },
                    {
                        "number": 64,
                        "time": 197.57030871250015,
                        "value": 0
                    },
                    {
                        "number": 64,
                        "time": 197.63640902500015,
                        "value": 1
                    },
                    {
                        "number": 64,
                        "time": 197.98365600000014,
                        "value": 0
                    },
                    {
                        "number": 64,
                        "time": 198.07443376250015,
                        "value": 1
                    },
                    {
                        "number": 64,
                        "time": 198.41639271250014,
                        "value": 0
                    },
                    {
                        "number": 64,
                        "time": 198.49747576250013,
                        "value": 1
                    },
                    {
                        "number": 64,
                        "time": 198.82974000000013,
                        "value": 0
                    },
                    {
                        "number": 64,
                        "time": 198.92051776250014,
                        "value": 1
                    },
                    {
                        "number": 64,
                        "time": 199.26247671250013,
                        "value": 0
                    },
                    {
                        "number": 64,
                        "time": 199.34355976250012,
                        "value": 1
                    },
                    {
                        "number": 64,
                        "time": 199.67582400000012,
                        "value": 0
                    },
                    {
                        "number": 64,
                        "time": 199.76660176250013,
                        "value": 1
                    },
                    {
                        "number": 64,
                        "time": 200.10856071250012,
                        "value": 0
                    },
                    {
                        "number": 64,
                        "time": 200.1896437625001,
                        "value": 1
                    },
                    {
                        "number": 64,
                        "time": 200.5271960250001,
                        "value": 0
                    },
                    {
                        "number": 64,
                        "time": 200.5880083125001,
                        "value": 1
                    },
                    {
                        "number": 64,
                        "time": 200.9546447125001,
                        "value": 0
                    },
                    {
                        "number": 64,
                        "time": 201.01105031250012,
                        "value": 1
                    },
                    {
                        "number": 64,
                        "time": 201.37856805000013,
                        "value": 0
                    },
                    {
                        "number": 64,
                        "time": 201.44907505000012,
                        "value": 1
                    },
                    {
                        "number": 64,
                        "time": 201.7910340000001,
                        "value": 0
                    },
                    {
                        "number": 64,
                        "time": 203.0601600000001,
                        "value": 0
                    },
                    {
                        "number": 64,
                        "time": 207.00855200000012,
                        "value": 1
                    },
                    {
                        "number": 64,
                        "time": 208.98803602500013,
                        "value": 0
                    },
                    {
                        "number": 64,
                        "time": 209.40579000000014,
                        "value": 0
                    },
                    {
                        "number": 64,
                        "time": 209.51771986250014,
                        "value": 1
                    },
                    {
                        "number": 64,
                        "time": 209.85350945000013,
                        "value": 0
                    },
                    {
                        "number": 64,
                        "time": 209.96632065000014,
                        "value": 1
                    },
                    {
                        "number": 64,
                        "time": 211.53157605000015,
                        "value": 0
                    },
                    {
                        "number": 64,
                        "time": 212.00661696250015,
                        "value": 1
                    },
                    {
                        "number": 64,
                        "time": 212.37237202500015,
                        "value": 0
                    },
                    {
                        "number": 64,
                        "time": 212.45433641250014,
                        "value": 1
                    },
                    {
                        "number": 64,
                        "time": 212.79453268750015,
                        "value": 0
                    },
                    {
                        "number": 64,
                        "time": 212.96463082500014,
                        "value": 1
                    },
                    {
                        "number": 64,
                        "time": 213.21316800000014,
                        "value": 0
                    },
                    {
                        "number": 64,
                        "time": 214.62330800000015,
                        "value": 1
                    },
                    {
                        "number": 64,
                        "time": 216.60279202500016,
                        "value": 0
                    },
                    {
                        "number": 64,
                        "time": 217.02054600000017,
                        "value": 0
                    },
                    {
                        "number": 64,
                        "time": 217.13247586250017,
                        "value": 1
                    },
                    {
                        "number": 64,
                        "time": 217.46826545000016,
                        "value": 0
                    },
                    {
                        "number": 64,
                        "time": 217.58107665000017,
                        "value": 1
                    },
                    {
                        "number": 64,
                        "time": 219.14633205000018,
                        "value": 0
                    },
                    {
                        "number": 64,
                        "time": 219.62137296250017,
                        "value": 1
                    },
                    {
                        "number": 64,
                        "time": 219.98712802500017,
                        "value": 0
                    },
                    {
                        "number": 64,
                        "time": 220.06909241250017,
                        "value": 1
                    },
                    {
                        "number": 64,
                        "time": 220.40928868750018,
                        "value": 0
                    },
                    {
                        "number": 64,
                        "time": 220.57938682500017,
                        "value": 1
                    },
                    {
                        "number": 64,
                        "time": 220.82792400000017,
                        "value": 0
                    },
                    {
                        "number": 64,
                        "time": 220.91870176250018,
                        "value": 1
                    },
                    {
                        "number": 64,
                        "time": 221.1707642875002,
                        "value": 0
                    },
                    {
                        "number": 64,
                        "time": 223.38644676250019,
                        "value": 1
                    },
                    {
                        "number": 64,
                        "time": 223.7980313750002,
                        "value": 0
                    },
                    {
                        "number": 64,
                        "time": 223.8597250000002,
                        "value": 1
                    },
                    {
                        "number": 64,
                        "time": 224.2219547125002,
                        "value": 0
                    },
                    {
                        "number": 64,
                        "time": 224.3083257875002,
                        "value": 1
                    },
                    {
                        "number": 64,
                        "time": 224.6405900250002,
                        "value": 0
                    },
                    {
                        "number": 64,
                        "time": 224.71109702500019,
                        "value": 1
                    },
                    {
                        "number": 64,
                        "time": 225.06892005000017,
                        "value": 0
                    },
                    {
                        "number": 64,
                        "time": 225.1491217625002,
                        "value": 1
                    },
                    {
                        "number": 64,
                        "time": 225.49019937500017,
                        "value": 0
                    },
                    {
                        "number": 64,
                        "time": 225.57216376250017,
                        "value": 1
                    },
                    {
                        "number": 64,
                        "time": 225.90442800000017,
                        "value": 0
                    },
                    {
                        "number": 64,
                        "time": 225.95466423750017,
                        "value": 1
                    },
                    {
                        "number": 64,
                        "time": 227.18236737500015,
                        "value": 0
                    },
                    {
                        "number": 64,
                        "time": 227.23701030000015,
                        "value": 1
                    },
                    {
                        "number": 64,
                        "time": 228.01258730000015,
                        "value": 0
                    },
                    {
                        "number": 64,
                        "time": 228.03285806250014,
                        "value": 1
                    },
                    {
                        "number": 64,
                        "time": 228.44268000000014,
                        "value": 0
                    },
                    {
                        "number": 64,
                        "time": 228.52993241250013,
                        "value": 1
                    },
                    {
                        "number": 64,
                        "time": 229.72943275000014,
                        "value": 0
                    },
                    {
                        "number": 64,
                        "time": 229.78319433750013,
                        "value": 1
                    },
                    {
                        "number": 64,
                        "time": 230.55877133750013,
                        "value": 0
                    },
                    {
                        "number": 64,
                        "time": 230.57904210000012,
                        "value": 1
                    },
                    {
                        "number": 64,
                        "time": 230.98357601250012,
                        "value": 0
                    },
                    {
                        "number": 64,
                        "time": 231.04967632500012,
                        "value": 1
                    },
                    {
                        "number": 64,
                        "time": 231.16777555000013,
                        "value": 0
                    },
                    {
                        "number": 64,
                        "time": 231.52207322500013,
                        "value": 1
                    },
                    {
                        "number": 64,
                        "time": 232.07643451250013,
                        "value": 0
                    },
                    {
                        "number": 64,
                        "time": 232.30646360000011,
                        "value": 1
                    },
                    {
                        "number": 64,
                        "time": 232.4113427625001,
                        "value": 0
                    },
                    {
                        "number": 64,
                        "time": 232.7480136875001,
                        "value": 1
                    },
                    {
                        "number": 64,
                        "time": 233.3182390500001,
                        "value": 0
                    },
                    {
                        "number": 64,
                        "time": 233.5579628500001,
                        "value": 1
                    },
                    {
                        "number": 64,
                        "time": 233.9519207125001,
                        "value": 0
                    },
                    {
                        "number": 64,
                        "time": 233.97571682500012,
                        "value": 1
                    },
                    {
                        "number": 64,
                        "time": 234.0453424875001,
                        "value": 0
                    },
                    {
                        "number": 64,
                        "time": 234.3767253875001,
                        "value": 1
                    },
                    {
                        "number": 64,
                        "time": 234.4965872875001,
                        "value": 0
                    },
                    {
                        "number": 64,
                        "time": 234.78831000000008,
                        "value": 1
                    },
                    {
                        "number": 64,
                        "time": 234.9566454625001,
                        "value": 0
                    },
                    {
                        "number": 64,
                        "time": 235.29860441250008,
                        "value": 1
                    },
                    {
                        "number": 64,
                        "time": 235.4731092375001,
                        "value": 0
                    },
                    {
                        "number": 64,
                        "time": 236.0574360000001,
                        "value": 1
                    },
                    {
                        "number": 64,
                        "time": 237.33361270000012,
                        "value": 0
                    },
                    {
                        "number": 64,
                        "time": 237.50811752500013,
                        "value": 1
                    },
                    {
                        "number": 64,
                        "time": 238.18145937500014,
                        "value": 0
                    },
                    {
                        "number": 64,
                        "time": 238.61948411250015,
                        "value": 1
                    },
                    {
                        "number": 64,
                        "time": 239.86922068750016,
                        "value": 0
                    },
                    {
                        "number": 64,
                        "time": 240.04636952500016,
                        "value": 1
                    },
                    {
                        "number": 64,
                        "time": 240.72059271250015,
                        "value": 0
                    },
                    {
                        "number": 64,
                        "time": 241.22824311250014,
                        "value": 1
                    },
                    {
                        "number": 64,
                        "time": 242.40482867500015,
                        "value": 0
                    },
                    {
                        "number": 64,
                        "time": 242.66217922500016,
                        "value": 1
                    },
                    {
                        "number": 64,
                        "time": 243.25884471250015,
                        "value": 0
                    },
                    {
                        "number": 64,
                        "time": 243.79293523750016,
                        "value": 1
                    },
                    {
                        "number": 64,
                        "time": 244.94131800000017,
                        "value": 0
                    },
                    {
                        "number": 64,
                        "time": 245.09114537500017,
                        "value": 1
                    },
                    {
                        "number": 64,
                        "time": 245.82529951250018,
                        "value": 0
                    },
                    {
                        "number": 64,
                        "time": 246.68284090000017,
                        "value": 1
                    },
                    {
                        "number": 64,
                        "time": 247.48662070000017,
                        "value": 0
                    },
                    {
                        "number": 64,
                        "time": 247.6611255250002,
                        "value": 1
                    },
                    {
                        "number": 64,
                        "time": 248.3344673750002,
                        "value": 0
                    },
                    {
                        "number": 64,
                        "time": 248.7724921125002,
                        "value": 1
                    },
                    {
                        "number": 64,
                        "time": 250.02222868750022,
                        "value": 0
                    },
                    {
                        "number": 64,
                        "time": 250.19937752500022,
                        "value": 1
                    },
                    {
                        "number": 64,
                        "time": 250.8736007125002,
                        "value": 0
                    },
                    {
                        "number": 64,
                        "time": 251.4050472250002,
                        "value": 1
                    },
                    {
                        "number": 64,
                        "time": 252.5587180125002,
                        "value": 0
                    },
                    {
                        "number": 64,
                        "time": 252.81518722500022,
                        "value": 1
                    },
                    {
                        "number": 64,
                        "time": 253.4109713750002,
                        "value": 0
                    },
                    {
                        "number": 64,
                        "time": 253.8252000000002,
                        "value": 1
                    },
                    {
                        "number": 64,
                        "time": 255.0943260000002,
                        "value": 0
                    },
                    {
                        "number": 64,
                        "time": 255.0987326875002,
                        "value": 0
                    },
                    {
                        "number": 64,
                        "time": 255.1956798125002,
                        "value": 1
                    },
                    {
                        "number": 64,
                        "time": 255.5173680000002,
                        "value": 0
                    },
                    {
                        "number": 64,
                        "time": 260.2616077625002,
                        "value": 1
                    },
                    {
                        "number": 64,
                        "time": 260.6035667125002,
                        "value": 0
                    },
                    {
                        "number": 64,
                        "time": 260.6846497625002,
                        "value": 1
                    },
                    {
                        "number": 64,
                        "time": 261.0266087125002,
                        "value": 0
                    },
                    {
                        "number": 64,
                        "time": 261.0927090250002,
                        "value": 1
                    },
                    {
                        "number": 64,
                        "time": 261.4399560000002,
                        "value": 0
                    },
                    {
                        "number": 64,
                        "time": 261.53073376250023,
                        "value": 1
                    },
                    {
                        "number": 64,
                        "time": 261.8726927125002,
                        "value": 0
                    },
                    {
                        "number": 64,
                        "time": 261.95377576250024,
                        "value": 1
                    },
                    {
                        "number": 64,
                        "time": 262.29573471250023,
                        "value": 0
                    },
                    {
                        "number": 64,
                        "time": 262.36183502500023,
                        "value": 1
                    },
                    {
                        "number": 64,
                        "time": 262.70908200000025,
                        "value": 0
                    },
                    {
                        "number": 64,
                        "time": 262.79985976250026,
                        "value": 1
                    },
                    {
                        "number": 64,
                        "time": 263.14181871250025,
                        "value": 0
                    },
                    {
                        "number": 64,
                        "time": 263.22290176250027,
                        "value": 1
                    },
                    {
                        "number": 64,
                        "time": 263.56486071250026,
                        "value": 0
                    },
                    {
                        "number": 64,
                        "time": 263.63096102500026,
                        "value": 1
                    },
                    {
                        "number": 64,
                        "time": 263.9782080000003,
                        "value": 0
                    },
                    {
                        "number": 64,
                        "time": 264.0689857625003,
                        "value": 1
                    },
                    {
                        "number": 64,
                        "time": 264.4109447125003,
                        "value": 0
                    },
                    {
                        "number": 64,
                        "time": 264.4920277625003,
                        "value": 1
                    },
                    {
                        "number": 64,
                        "time": 264.8339867125003,
                        "value": 0
                    },
                    {
                        "number": 64,
                        "time": 264.9000870250003,
                        "value": 1
                    },
                    {
                        "number": 64,
                        "time": 265.2473340000003,
                        "value": 0
                    },
                    {
                        "number": 64,
                        "time": 265.3381117625003,
                        "value": 1
                    },
                    {
                        "number": 64,
                        "time": 265.6800707125003,
                        "value": 0
                    },
                    {
                        "number": 64,
                        "time": 265.7611537625003,
                        "value": 1
                    },
                    {
                        "number": 64,
                        "time": 266.1031127125003,
                        "value": 0
                    },
                    {
                        "number": 64,
                        "time": 266.1692130250003,
                        "value": 1
                    },
                    {
                        "number": 64,
                        "time": 266.51646000000034,
                        "value": 0
                    },
                    {
                        "number": 64,
                        "time": 266.60723776250035,
                        "value": 1
                    },
                    {
                        "number": 64,
                        "time": 266.94919671250034,
                        "value": 0
                    },
                    {
                        "number": 64,
                        "time": 267.03027976250036,
                        "value": 1
                    },
                    {
                        "number": 64,
                        "time": 267.37223871250035,
                        "value": 0
                    },
                    {
                        "number": 64,
                        "time": 267.43833902500035,
                        "value": 1
                    },
                    {
                        "number": 64,
                        "time": 267.78558600000036,
                        "value": 0
                    },
                    {
                        "number": 64,
                        "time": 267.8763637625004,
                        "value": 1
                    },
                    {
                        "number": 64,
                        "time": 268.21832271250037,
                        "value": 0
                    },
                    {
                        "number": 64,
                        "time": 268.2994057625004,
                        "value": 1
                    },
                    {
                        "number": 64,
                        "time": 268.6413647125004,
                        "value": 0
                    },
                    {
                        "number": 64,
                        "time": 268.7074650250004,
                        "value": 1
                    },
                    {
                        "number": 64,
                        "time": 269.0547120000004,
                        "value": 0
                    },
                    {
                        "number": 64,
                        "time": 269.1454897625004,
                        "value": 1
                    },
                    {
                        "number": 64,
                        "time": 269.4874487125004,
                        "value": 0
                    },
                    {
                        "number": 64,
                        "time": 269.5685317625004,
                        "value": 1
                    },
                    {
                        "number": 64,
                        "time": 269.9104907125004,
                        "value": 0
                    },
                    {
                        "number": 64,
                        "time": 269.9765910250004,
                        "value": 1
                    },
                    {
                        "number": 64,
                        "time": 270.3238380000004,
                        "value": 0
                    },
                    {
                        "number": 64,
                        "time": 270.41461576250043,
                        "value": 1
                    },
                    {
                        "number": 64,
                        "time": 270.7565747125004,
                        "value": 0
                    },
                    {
                        "number": 64,
                        "time": 270.83765776250044,
                        "value": 1
                    },
                    {
                        "number": 64,
                        "time": 271.17961671250043,
                        "value": 0
                    },
                    {
                        "number": 64,
                        "time": 271.24571702500043,
                        "value": 1
                    },
                    {
                        "number": 64,
                        "time": 271.59296400000045,
                        "value": 0
                    },
                    {
                        "number": 64,
                        "time": 271.68374176250046,
                        "value": 1
                    },
                    {
                        "number": 64,
                        "time": 272.02570071250045,
                        "value": 0
                    },
                    {
                        "number": 64,
                        "time": 272.10678376250047,
                        "value": 1
                    },
                    {
                        "number": 64,
                        "time": 272.44874271250046,
                        "value": 0
                    },
                    {
                        "number": 64,
                        "time": 272.51484302500046,
                        "value": 1
                    },
                    {
                        "number": 64,
                        "time": 272.8620900000005,
                        "value": 0
                    },
                    {
                        "number": 64,
                        "time": 274.13121600000045,
                        "value": 0
                    },
                    {
                        "number": 64,
                        "time": 285.5533500000005,
                        "value": 1
                    },
                    {
                        "number": 64,
                        "time": 286.8321707125005,
                        "value": 0
                    },
                    {
                        "number": 64,
                        "time": 286.9335245250005,
                        "value": 1
                    },
                    {
                        "number": 64,
                        "time": 288.0977713625005,
                        "value": 0
                    },
                    {
                        "number": 64,
                        "time": 288.2290906500005,
                        "value": 1
                    },
                    {
                        "number": 64,
                        "time": 289.3686600375005,
                        "value": 0
                    },
                    {
                        "number": 64,
                        "time": 289.5475715500005,
                        "value": 1
                    },
                    {
                        "number": 64,
                        "time": 289.7961087250005,
                        "value": 0
                    },
                    {
                        "number": 64,
                        "time": 290.7946641125005,
                        "value": 1
                    },
                    {
                        "number": 64,
                        "time": 291.4997341125005,
                        "value": 0
                    },
                    {
                        "number": 64,
                        "time": 292.0611461000005,
                        "value": 1
                    },
                    {
                        "number": 64,
                        "time": 293.1681060000005,
                        "value": 0
                    },
                    {
                        "number": 64,
                        "time": 293.4272192250005,
                        "value": 1
                    },
                    {
                        "number": 64,
                        "time": 294.4469267125005,
                        "value": 0
                    },
                    {
                        "number": 64,
                        "time": 294.4839428875005,
                        "value": 1
                    },
                    {
                        "number": 64,
                        "time": 294.8259018375005,
                        "value": 0
                    },
                    {
                        "number": 64,
                        "time": 295.8006611125005,
                        "value": 1
                    },
                    {
                        "number": 64,
                        "time": 296.9754840000005,
                        "value": 0
                    },
                    {
                        "number": 64,
                        "time": 298.3071849625005,
                        "value": 1
                    },
                    {
                        "number": 64,
                        "time": 298.7795818625005,
                        "value": 0
                    },
                    {
                        "number": 64,
                        "time": 305.4865602375005,
                        "value": 1
                    },
                    {
                        "number": 64,
                        "time": 305.8593660000005,
                        "value": 0
                    },
                    {
                        "number": 64,
                        "time": 306.7495168750005,
                        "value": 1
                    },
                    {
                        "number": 64,
                        "time": 307.1284920000005,
                        "value": 0
                    },
                    {
                        "number": 64,
                        "time": 308.4037873625005,
                        "value": 1
                    },
                    {
                        "number": 64,
                        "time": 308.8453374500005,
                        "value": 0
                    },
                    {
                        "number": 64,
                        "time": 313.5860518625005,
                        "value": 1
                    },
                    {
                        "number": 64,
                        "time": 316.0123740000005,
                        "value": 0
                    },
                    {
                        "number": 64,
                        "time": 316.0784743125005,
                        "value": 1
                    },
                    {
                        "number": 64,
                        "time": 316.5667352875005,
                        "value": 0
                    },
                    {
                        "number": 64,
                        "time": 317.2815000000005,
                        "value": 0
                    },
                    {
                        "number": 64,
                        "time": 317.3476003125005,
                        "value": 1
                    },
                    {
                        "number": 64,
                        "time": 317.8358612875005,
                        "value": 0
                    },
                    {
                        "number": 64,
                        "time": 318.6625558625005,
                        "value": 1
                    },
                    {
                        "number": 64,
                        "time": 321.0888780000005,
                        "value": 0
                    },
                    {
                        "number": 64,
                        "time": 321.1549783125005,
                        "value": 1
                    },
                    {
                        "number": 64,
                        "time": 321.6432392875005,
                        "value": 0
                    },
                    {
                        "number": 64,
                        "time": 322.3580040000005,
                        "value": 0
                    },
                    {
                        "number": 64,
                        "time": 322.4241043125005,
                        "value": 1
                    },
                    {
                        "number": 64,
                        "time": 322.9123652875005,
                        "value": 0
                    },
                    {
                        "number": 64,
                        "time": 323.7390598625005,
                        "value": 1
                    },
                    {
                        "number": 64,
                        "time": 326.1653820000005,
                        "value": 0
                    },
                    {
                        "number": 64,
                        "time": 326.2314823125005,
                        "value": 1
                    },
                    {
                        "number": 64,
                        "time": 326.7197432875005,
                        "value": 0
                    },
                    {
                        "number": 64,
                        "time": 327.4345080000005,
                        "value": 0
                    },
                    {
                        "number": 64,
                        "time": 327.5006083125005,
                        "value": 1
                    },
                    {
                        "number": 64,
                        "time": 327.9888692875005,
                        "value": 0
                    },
                    {
                        "number": 64,
                        "time": 328.8155638625005,
                        "value": 1
                    },
                    {
                        "number": 64,
                        "time": 331.25069937500047,
                        "value": 0
                    },
                    {
                        "number": 64,
                        "time": 331.3978827375005,
                        "value": 1
                    },
                    {
                        "number": 64,
                        "time": 333.78895137500047,
                        "value": 0
                    },
                    {
                        "number": 64,
                        "time": 333.9361347375005,
                        "value": 1
                    },
                    {
                        "number": 64,
                        "time": 336.1844267000005,
                        "value": 0
                    },
                    {
                        "number": 64,
                        "time": 336.2857805125005,
                        "value": 1
                    },
                    {
                        "number": 64,
                        "time": 337.1776940625005,
                        "value": 0
                    },
                    {
                        "number": 64,
                        "time": 337.5875160000005,
                        "value": 0
                    },
                    {
                        "number": 64,
                        "time": 337.6536163125005,
                        "value": 1
                    },
                    {
                        "number": 64,
                        "time": 338.4494640750005,
                        "value": 0
                    },
                    {
                        "number": 64,
                        "time": 338.9685718625005,
                        "value": 1
                    },
                    {
                        "number": 64,
                        "time": 339.4947303500005,
                        "value": 0
                    },
                    {
                        "number": 64,
                        "time": 341.2274398750005,
                        "value": 1
                    },
                    {
                        "number": 64,
                        "time": 341.7650557500005,
                        "value": 0
                    },
                    {
                        "number": 64,
                        "time": 342.5335820500005,
                        "value": 1
                    },
                    {
                        "number": 64,
                        "time": 343.32326045000053,
                        "value": 0
                    },
                    {
                        "number": 64,
                        "time": 343.9957209625005,
                        "value": 1
                    },
                    {
                        "number": 64,
                        "time": 344.3623573625005,
                        "value": 0
                    },
                    {
                        "number": 64,
                        "time": 344.5077780500005,
                        "value": 1
                    },
                    {
                        "number": 64,
                        "time": 345.2022720000005,
                        "value": 0
                    },
                    {
                        "number": 64,
                        "time": 345.4613852250005,
                        "value": 1
                    },
                    {
                        "number": 64,
                        "time": 345.9549342250005,
                        "value": 0
                    },
                    {
                        "number": 64,
                        "time": 346.4934314375005,
                        "value": 1
                    },
                    {
                        "number": 64,
                        "time": 347.3359900875005,
                        "value": 0
                    },
                    {
                        "number": 64,
                        "time": 347.38622632500045,
                        "value": 1
                    },
                    {
                        "number": 64,
                        "time": 347.74845603750043,
                        "value": 0
                    },
                    {
                        "number": 64,
                        "time": 347.85157252500045,
                        "value": 1
                    },
                    {
                        "number": 64,
                        "time": 348.17326071250045,
                        "value": 0
                    },
                    {
                        "number": 64,
                        "time": 348.25434376250047,
                        "value": 1
                    },
                    {
                        "number": 64,
                        "time": 348.6015907375005,
                        "value": 0
                    },
                    {
                        "number": 64,
                        "time": 348.6588776750005,
                        "value": 1
                    },
                    {
                        "number": 64,
                        "time": 349.0140566875005,
                        "value": 0
                    },
                    {
                        "number": 64,
                        "time": 349.1709347625005,
                        "value": 1
                    },
                    {
                        "number": 64,
                        "time": 349.4485560750005,
                        "value": 0
                    },
                    {
                        "number": 64,
                        "time": 349.5437405250005,
                        "value": 1
                    },
                    {
                        "number": 64,
                        "time": 349.8671913875005,
                        "value": 0
                    },
                    {
                        "number": 64,
                        "time": 349.9667825250005,
                        "value": 1
                    },
                    {
                        "number": 64,
                        "time": 350.28318268750047,
                        "value": 0
                    },
                    {
                        "number": 64,
                        "time": 350.38012981250046,
                        "value": 1
                    },
                    {
                        "number": 64,
                        "time": 350.71063137500045,
                        "value": 0
                    },
                    {
                        "number": 64,
                        "time": 351.5602407250004,
                        "value": 1
                    },
                    {
                        "number": 64,
                        "time": 351.9815200500004,
                        "value": 0
                    },
                    {
                        "number": 64,
                        "time": 352.0767045000004,
                        "value": 1
                    },
                    {
                        "number": 64,
                        "time": 352.4045620500004,
                        "value": 0
                    },
                    {
                        "number": 64,
                        "time": 352.46889968750037,
                        "value": 1
                    },
                    {
                        "number": 64,
                        "time": 352.82936672500034,
                        "value": 0
                    },
                    {
                        "number": 64,
                        "time": 352.88312831250033,
                        "value": 1
                    },
                    {
                        "number": 64,
                        "time": 353.24976471250034,
                        "value": 0
                    },
                    {
                        "number": 64,
                        "time": 353.29559426250034,
                        "value": 1
                    },
                    {
                        "number": 64,
                        "time": 353.67368805000035,
                        "value": 0
                    },
                    {
                        "number": 64,
                        "time": 353.7688725000003,
                        "value": 1
                    },
                    {
                        "number": 64,
                        "time": 354.0861540000003,
                        "value": 0
                    },
                    {
                        "number": 64,
                        "time": 354.1875078125003,
                        "value": 1
                    },
                    {
                        "number": 64,
                        "time": 354.5153653625003,
                        "value": 0
                    },
                    {
                        "number": 64,
                        "time": 354.6607860500003,
                        "value": 1
                    },
                    {
                        "number": 64,
                        "time": 354.9410513750003,
                        "value": 0
                    },
                    {
                        "number": 64,
                        "time": 355.0432865250003,
                        "value": 1
                    },
                    {
                        "number": 64,
                        "time": 355.35528000000033,
                        "value": 0
                    },
                    {
                        "number": 64,
                        "time": 355.61439322500036,
                        "value": 1
                    },
                    {
                        "number": 64,
                        "time": 356.10794222500033,
                        "value": 0
                    },
                    {
                        "number": 64,
                        "time": 356.6464394375003,
                        "value": 1
                    },
                    {
                        "number": 64,
                        "time": 357.4889980875003,
                        "value": 0
                    },
                    {
                        "number": 64,
                        "time": 357.5392343250003,
                        "value": 1
                    },
                    {
                        "number": 64,
                        "time": 357.90146403750026,
                        "value": 0
                    },
                    {
                        "number": 64,
                        "time": 358.0045805250003,
                        "value": 1
                    },
                    {
                        "number": 64,
                        "time": 358.3262687125003,
                        "value": 0
                    },
                    {
                        "number": 64,
                        "time": 358.4073517625003,
                        "value": 1
                    },
                    {
                        "number": 64,
                        "time": 358.7545987375003,
                        "value": 0
                    },
                    {
                        "number": 64,
                        "time": 358.8118856750003,
                        "value": 1
                    },
                    {
                        "number": 64,
                        "time": 359.16706468750033,
                        "value": 0
                    },
                    {
                        "number": 64,
                        "time": 359.32394276250034,
                        "value": 1
                    },
                    {
                        "number": 64,
                        "time": 359.60156407500034,
                        "value": 0
                    },
                    {
                        "number": 64,
                        "time": 359.6967485250003,
                        "value": 1
                    },
                    {
                        "number": 64,
                        "time": 360.0201993875003,
                        "value": 0
                    },
                    {
                        "number": 64,
                        "time": 360.1197905250003,
                        "value": 1
                    },
                    {
                        "number": 64,
                        "time": 360.4361906875003,
                        "value": 0
                    },
                    {
                        "number": 64,
                        "time": 360.5331378125003,
                        "value": 1
                    },
                    {
                        "number": 64,
                        "time": 360.8548260000003,
                        "value": 0
                    },
                    {
                        "number": 64,
                        "time": 365.5990657625003,
                        "value": 1
                    },
                    {
                        "number": 64,
                        "time": 365.9410247125003,
                        "value": 0
                    },
                    {
                        "number": 64,
                        "time": 366.0221077625003,
                        "value": 1
                    },
                    {
                        "number": 64,
                        "time": 366.3640667125003,
                        "value": 0
                    },
                    {
                        "number": 64,
                        "time": 366.4301670250003,
                        "value": 1
                    },
                    {
                        "number": 64,
                        "time": 366.7774140000003,
                        "value": 0
                    },
                    {
                        "number": 64,
                        "time": 366.8681917625003,
                        "value": 1
                    },
                    {
                        "number": 64,
                        "time": 367.2101507125003,
                        "value": 0
                    },
                    {
                        "number": 64,
                        "time": 367.2912337625003,
                        "value": 1
                    },
                    {
                        "number": 64,
                        "time": 367.6331927125003,
                        "value": 0
                    },
                    {
                        "number": 64,
                        "time": 367.6992930250003,
                        "value": 1
                    },
                    {
                        "number": 64,
                        "time": 368.04654000000033,
                        "value": 0
                    },
                    {
                        "number": 64,
                        "time": 368.13731776250034,
                        "value": 1
                    },
                    {
                        "number": 64,
                        "time": 368.47927671250034,
                        "value": 0
                    },
                    {
                        "number": 64,
                        "time": 368.56035976250035,
                        "value": 1
                    },
                    {
                        "number": 64,
                        "time": 368.90231871250035,
                        "value": 0
                    },
                    {
                        "number": 64,
                        "time": 368.96841902500034,
                        "value": 1
                    },
                    {
                        "number": 64,
                        "time": 369.31566600000036,
                        "value": 0
                    },
                    {
                        "number": 64,
                        "time": 369.4064437625004,
                        "value": 1
                    },
                    {
                        "number": 64,
                        "time": 369.74840271250036,
                        "value": 0
                    },
                    {
                        "number": 64,
                        "time": 369.8294857625004,
                        "value": 1
                    },
                    {
                        "number": 64,
                        "time": 370.1714447125004,
                        "value": 0
                    },
                    {
                        "number": 64,
                        "time": 370.2375450250004,
                        "value": 1
                    },
                    {
                        "number": 64,
                        "time": 370.5847920000004,
                        "value": 0
                    },
                    {
                        "number": 64,
                        "time": 370.6755697625004,
                        "value": 1
                    },
                    {
                        "number": 64,
                        "time": 371.0175287125004,
                        "value": 0
                    },
                    {
                        "number": 64,
                        "time": 371.0986117625004,
                        "value": 1
                    },
                    {
                        "number": 64,
                        "time": 371.4308760000004,
                        "value": 0
                    },
                    {
                        "number": 64,
                        "time": 371.5216537625004,
                        "value": 1
                    },
                    {
                        "number": 64,
                        "time": 371.8636127125004,
                        "value": 0
                    },
                    {
                        "number": 64,
                        "time": 371.94469576250043,
                        "value": 1
                    },
                    {
                        "number": 64,
                        "time": 372.27696000000043,
                        "value": 0
                    },
                    {
                        "number": 64,
                        "time": 372.36773776250044,
                        "value": 1
                    },
                    {
                        "number": 64,
                        "time": 372.70969671250043,
                        "value": 0
                    },
                    {
                        "number": 64,
                        "time": 372.79077976250045,
                        "value": 1
                    },
                    {
                        "number": 64,
                        "time": 373.1283320250005,
                        "value": 0
                    },
                    {
                        "number": 64,
                        "time": 373.1891443125005,
                        "value": 1
                    },
                    {
                        "number": 64,
                        "time": 373.5557807125005,
                        "value": 0
                    },
                    {
                        "number": 64,
                        "time": 373.6121863125005,
                        "value": 1
                    },
                    {
                        "number": 64,
                        "time": 373.9797040500005,
                        "value": 0
                    },
                    {
                        "number": 64,
                        "time": 374.05021105000054,
                        "value": 1
                    },
                    {
                        "number": 64,
                        "time": 374.39217000000053,
                        "value": 0
                    },
                    {
                        "number": 64,
                        "time": 375.66129600000056,
                        "value": 0
                    },
                    {
                        "number": 64,
                        "time": 379.6096880000006,
                        "value": 1
                    },
                    {
                        "number": 64,
                        "time": 381.58917202500055,
                        "value": 0
                    },
                    {
                        "number": 64,
                        "time": 382.00692600000053,
                        "value": 0
                    },
                    {
                        "number": 64,
                        "time": 382.11885586250054,
                        "value": 1
                    },
                    {
                        "number": 64,
                        "time": 382.45464545000056,
                        "value": 0
                    },
                    {
                        "number": 64,
                        "time": 382.56745665000057,
                        "value": 1
                    },
                    {
                        "number": 64,
                        "time": 384.1327120500006,
                        "value": 0
                    },
                    {
                        "number": 64,
                        "time": 384.60775296250057,
                        "value": 1
                    },
                    {
                        "number": 64,
                        "time": 384.97350802500057,
                        "value": 0
                    },
                    {
                        "number": 64,
                        "time": 385.0554724125006,
                        "value": 1
                    },
                    {
                        "number": 64,
                        "time": 385.3956686875006,
                        "value": 0
                    },
                    {
                        "number": 64,
                        "time": 385.5657668250006,
                        "value": 1
                    },
                    {
                        "number": 64,
                        "time": 385.8143040000006,
                        "value": 0
                    },
                    {
                        "number": 64,
                        "time": 387.22444400000063,
                        "value": 1
                    },
                    {
                        "number": 64,
                        "time": 389.2039280250006,
                        "value": 0
                    },
                    {
                        "number": 64,
                        "time": 389.6216820000006,
                        "value": 0
                    },
                    {
                        "number": 64,
                        "time": 389.7336118625006,
                        "value": 1
                    },
                    {
                        "number": 64,
                        "time": 390.0694014500006,
                        "value": 0
                    },
                    {
                        "number": 64,
                        "time": 390.1822126500006,
                        "value": 1
                    },
                    {
                        "number": 64,
                        "time": 391.74746805000063,
                        "value": 0
                    },
                    {
                        "number": 64,
                        "time": 392.2225089625006,
                        "value": 1
                    },
                    {
                        "number": 64,
                        "time": 392.5882640250006,
                        "value": 0
                    },
                    {
                        "number": 64,
                        "time": 392.67022841250065,
                        "value": 1
                    },
                    {
                        "number": 64,
                        "time": 393.01042468750063,
                        "value": 0
                    },
                    {
                        "number": 64,
                        "time": 393.18052282500065,
                        "value": 1
                    },
                    {
                        "number": 64,
                        "time": 393.4290600000007,
                        "value": 0
                    },
                    {
                        "number": 64,
                        "time": 393.5198377625007,
                        "value": 1
                    },
                    {
                        "number": 64,
                        "time": 393.77190028750067,
                        "value": 0
                    },
                    {
                        "number": 64,
                        "time": 395.98758276250067,
                        "value": 1
                    },
                    {
                        "number": 64,
                        "time": 396.3991673750007,
                        "value": 0
                    },
                    {
                        "number": 64,
                        "time": 396.46086100000065,
                        "value": 1
                    },
                    {
                        "number": 64,
                        "time": 396.82309071250063,
                        "value": 0
                    },
                    {
                        "number": 64,
                        "time": 396.9094617875006,
                        "value": 1
                    },
                    {
                        "number": 64,
                        "time": 397.2417260250006,
                        "value": 0
                    },
                    {
                        "number": 64,
                        "time": 397.31223302500064,
                        "value": 1
                    },
                    {
                        "number": 64,
                        "time": 397.67005605000065,
                        "value": 0
                    },
                    {
                        "number": 64,
                        "time": 397.75025776250067,
                        "value": 1
                    },
                    {
                        "number": 64,
                        "time": 398.09133537500065,
                        "value": 0
                    },
                    {
                        "number": 64,
                        "time": 398.1732997625007,
                        "value": 1
                    },
                    {
                        "number": 64,
                        "time": 398.5055640000007,
                        "value": 0
                    },
                    {
                        "number": 64,
                        "time": 398.55580023750065,
                        "value": 1
                    },
                    {
                        "number": 64,
                        "time": 399.78350337500063,
                        "value": 0
                    },
                    {
                        "number": 64,
                        "time": 399.83814630000063,
                        "value": 1
                    },
                    {
                        "number": 64,
                        "time": 400.61372330000063,
                        "value": 0
                    },
                    {
                        "number": 64,
                        "time": 400.6339940625006,
                        "value": 1
                    },
                    {
                        "number": 64,
                        "time": 401.0438160000006,
                        "value": 0
                    },
                    {
                        "number": 64,
                        "time": 401.1310684125006,
                        "value": 1
                    },
                    {
                        "number": 64,
                        "time": 402.3305687500006,
                        "value": 0
                    },
                    {
                        "number": 64,
                        "time": 402.3843303375006,
                        "value": 1
                    },
                    {
                        "number": 64,
                        "time": 403.1599073375006,
                        "value": 0
                    },
                    {
                        "number": 64,
                        "time": 403.1801781000006,
                        "value": 1
                    },
                    {
                        "number": 64,
                        "time": 403.58471201250063,
                        "value": 0
                    },
                    {
                        "number": 64,
                        "time": 403.65081232500063,
                        "value": 1
                    },
                    {
                        "number": 64,
                        "time": 403.7689115500006,
                        "value": 0
                    },
                    {
                        "number": 64,
                        "time": 404.1232092250006,
                        "value": 1
                    },
                    {
                        "number": 64,
                        "time": 404.6775705125006,
                        "value": 0
                    },
                    {
                        "number": 64,
                        "time": 404.9075996000006,
                        "value": 1
                    },
                    {
                        "number": 64,
                        "time": 405.0124787625006,
                        "value": 0
                    },
                    {
                        "number": 64,
                        "time": 405.34914968750064,
                        "value": 1
                    },
                    {
                        "number": 64,
                        "time": 405.91937505000067,
                        "value": 0
                    },
                    {
                        "number": 64,
                        "time": 406.15909885000065,
                        "value": 1
                    },
                    {
                        "number": 64,
                        "time": 406.5530567125006,
                        "value": 0
                    },
                    {
                        "number": 64,
                        "time": 406.5768528250006,
                        "value": 1
                    },
                    {
                        "number": 64,
                        "time": 406.64647848750064,
                        "value": 0
                    },
                    {
                        "number": 64,
                        "time": 406.97786138750064,
                        "value": 1
                    },
                    {
                        "number": 64,
                        "time": 407.0977232875006,
                        "value": 0
                    },
                    {
                        "number": 64,
                        "time": 407.38944600000065,
                        "value": 1
                    },
                    {
                        "number": 64,
                        "time": 407.55778146250066,
                        "value": 0
                    },
                    {
                        "number": 64,
                        "time": 407.89974041250065,
                        "value": 1
                    },
                    {
                        "number": 64,
                        "time": 408.07424523750063,
                        "value": 0
                    },
                    {
                        "number": 64,
                        "time": 408.6585720000006,
                        "value": 1
                    },
                    {
                        "number": 64,
                        "time": 409.9347487000006,
                        "value": 0
                    },
                    {
                        "number": 64,
                        "time": 410.1092535250006,
                        "value": 1
                    },
                    {
                        "number": 64,
                        "time": 410.7825953750006,
                        "value": 0
                    },
                    {
                        "number": 64,
                        "time": 411.22062011250057,
                        "value": 1
                    },
                    {
                        "number": 64,
                        "time": 412.47035668750055,
                        "value": 0
                    },
                    {
                        "number": 64,
                        "time": 412.64750552500055,
                        "value": 1
                    },
                    {
                        "number": 64,
                        "time": 413.32172871250054,
                        "value": 0
                    },
                    {
                        "number": 64,
                        "time": 413.82937911250053,
                        "value": 1
                    },
                    {
                        "number": 64,
                        "time": 415.00596467500054,
                        "value": 0
                    },
                    {
                        "number": 64,
                        "time": 415.26331522500055,
                        "value": 1
                    },
                    {
                        "number": 64,
                        "time": 415.85998071250054,
                        "value": 0
                    },
                    {
                        "number": 64,
                        "time": 416.39407123750055,
                        "value": 1
                    },
                    {
                        "number": 64,
                        "time": 417.54245400000053,
                        "value": 0
                    },
                    {
                        "number": 64,
                        "time": 417.6922813750005,
                        "value": 1
                    },
                    {
                        "number": 64,
                        "time": 418.4264355125005,
                        "value": 0
                    },
                    {
                        "number": 64,
                        "time": 419.28397690000054,
                        "value": 1
                    },
                    {
                        "number": 64,
                        "time": 420.0877567000005,
                        "value": 0
                    },
                    {
                        "number": 64,
                        "time": 420.2622615250005,
                        "value": 1
                    },
                    {
                        "number": 64,
                        "time": 420.9356033750005,
                        "value": 0
                    },
                    {
                        "number": 64,
                        "time": 421.5146421125005,
                        "value": 1
                    },
                    {
                        "number": 64,
                        "time": 422.6233646875005,
                        "value": 0
                    },
                    {
                        "number": 64,
                        "time": 422.8005135250005,
                        "value": 1
                    },
                    {
                        "number": 64,
                        "time": 423.4747367125005,
                        "value": 0
                    },
                    {
                        "number": 64,
                        "time": 424.0061832250005,
                        "value": 1
                    },
                    {
                        "number": 64,
                        "time": 425.1598540125005,
                        "value": 0
                    },
                    {
                        "number": 64,
                        "time": 425.4163232250005,
                        "value": 1
                    },
                    {
                        "number": 64,
                        "time": 426.0121073750005,
                        "value": 0
                    },
                    {
                        "number": 64,
                        "time": 426.4263360000005,
                        "value": 1
                    },
                    {
                        "number": 64,
                        "time": 427.6954620000005,
                        "value": 0
                    },
                    {
                        "number": 64,
                        "time": 427.6998686875005,
                        "value": 0
                    },
                    {
                        "number": 64,
                        "time": 427.7968158125005,
                        "value": 1
                    },
                    {
                        "number": 64,
                        "time": 428.1185040000005,
                        "value": 0
                    },
                    {
                        "number": 64,
                        "time": 432.8627437625005,
                        "value": 1
                    },
                    {
                        "number": 64,
                        "time": 433.2047027125005,
                        "value": 0
                    },
                    {
                        "number": 64,
                        "time": 433.2857857625005,
                        "value": 1
                    },
                    {
                        "number": 64,
                        "time": 433.6277447125005,
                        "value": 0
                    },
                    {
                        "number": 64,
                        "time": 433.6938450250005,
                        "value": 1
                    },
                    {
                        "number": 64,
                        "time": 434.0410920000005,
                        "value": 0
                    },
                    {
                        "number": 64,
                        "time": 434.1318697625005,
                        "value": 1
                    },
                    {
                        "number": 64,
                        "time": 434.4738287125005,
                        "value": 0
                    },
                    {
                        "number": 64,
                        "time": 434.5549117625005,
                        "value": 1
                    },
                    {
                        "number": 64,
                        "time": 434.8968707125005,
                        "value": 0
                    },
                    {
                        "number": 64,
                        "time": 434.9629710250005,
                        "value": 1
                    },
                    {
                        "number": 64,
                        "time": 435.31021800000053,
                        "value": 0
                    },
                    {
                        "number": 64,
                        "time": 435.40099576250054,
                        "value": 1
                    },
                    {
                        "number": 64,
                        "time": 435.74295471250053,
                        "value": 0
                    },
                    {
                        "number": 64,
                        "time": 435.82403776250055,
                        "value": 1
                    },
                    {
                        "number": 64,
                        "time": 436.16599671250054,
                        "value": 0
                    },
                    {
                        "number": 64,
                        "time": 436.23209702500054,
                        "value": 1
                    },
                    {
                        "number": 64,
                        "time": 436.57934400000056,
                        "value": 0
                    },
                    {
                        "number": 64,
                        "time": 436.67012176250057,
                        "value": 1
                    },
                    {
                        "number": 64,
                        "time": 437.01208071250056,
                        "value": 0
                    },
                    {
                        "number": 64,
                        "time": 437.0931637625006,
                        "value": 1
                    },
                    {
                        "number": 64,
                        "time": 437.4351227125006,
                        "value": 0
                    },
                    {
                        "number": 64,
                        "time": 437.50122302500057,
                        "value": 1
                    },
                    {
                        "number": 64,
                        "time": 437.8484700000006,
                        "value": 0
                    },
                    {
                        "number": 64,
                        "time": 437.9392477625006,
                        "value": 1
                    },
                    {
                        "number": 64,
                        "time": 438.2812067125006,
                        "value": 0
                    },
                    {
                        "number": 64,
                        "time": 438.3622897625006,
                        "value": 1
                    },
                    {
                        "number": 64,
                        "time": 438.7042487125006,
                        "value": 0
                    },
                    {
                        "number": 64,
                        "time": 438.7703490250006,
                        "value": 1
                    },
                    {
                        "number": 64,
                        "time": 439.1175960000006,
                        "value": 0
                    },
                    {
                        "number": 64,
                        "time": 439.2083737625006,
                        "value": 1
                    },
                    {
                        "number": 64,
                        "time": 439.5503327125006,
                        "value": 0
                    },
                    {
                        "number": 64,
                        "time": 439.63141576250064,
                        "value": 1
                    },
                    {
                        "number": 64,
                        "time": 439.97337471250063,
                        "value": 0
                    },
                    {
                        "number": 64,
                        "time": 440.0394750250006,
                        "value": 1
                    },
                    {
                        "number": 64,
                        "time": 440.38672200000065,
                        "value": 0
                    },
                    {
                        "number": 64,
                        "time": 440.47749976250066,
                        "value": 1
                    },
                    {
                        "number": 64,
                        "time": 440.81945871250065,
                        "value": 0
                    },
                    {
                        "number": 64,
                        "time": 440.90054176250067,
                        "value": 1
                    },
                    {
                        "number": 64,
                        "time": 441.24250071250066,
                        "value": 0
                    },
                    {
                        "number": 64,
                        "time": 441.30860102500066,
                        "value": 1
                    },
                    {
                        "number": 64,
                        "time": 441.6558480000007,
                        "value": 0
                    },
                    {
                        "number": 64,
                        "time": 441.7466257625007,
                        "value": 1
                    },
                    {
                        "number": 64,
                        "time": 442.0885847125007,
                        "value": 0
                    },
                    {
                        "number": 64,
                        "time": 442.1696677625007,
                        "value": 1
                    },
                    {
                        "number": 64,
                        "time": 442.5116267125007,
                        "value": 0
                    },
                    {
                        "number": 64,
                        "time": 442.5777270250007,
                        "value": 1
                    },
                    {
                        "number": 64,
                        "time": 442.9249740000007,
                        "value": 0
                    },
                    {
                        "number": 64,
                        "time": 443.0157517625007,
                        "value": 1
                    },
                    {
                        "number": 64,
                        "time": 443.3577107125007,
                        "value": 0
                    },
                    {
                        "number": 64,
                        "time": 443.4387937625007,
                        "value": 1
                    },
                    {
                        "number": 64,
                        "time": 443.7807527125007,
                        "value": 0
                    },
                    {
                        "number": 64,
                        "time": 443.8468530250007,
                        "value": 1
                    },
                    {
                        "number": 64,
                        "time": 444.19410000000073,
                        "value": 0
                    },
                    {
                        "number": 64,
                        "time": 444.28487776250074,
                        "value": 1
                    },
                    {
                        "number": 64,
                        "time": 444.62683671250073,
                        "value": 0
                    },
                    {
                        "number": 64,
                        "time": 444.70791976250075,
                        "value": 1
                    },
                    {
                        "number": 64,
                        "time": 445.04987871250074,
                        "value": 0
                    },
                    {
                        "number": 64,
                        "time": 445.11597902500074,
                        "value": 1
                    },
                    {
                        "number": 64,
                        "time": 445.46322600000076,
                        "value": 0
                    },
                    {
                        "number": 64,
                        "time": 446.7323520000008,
                        "value": 0
                    },
                    {
                        "number": 64,
                        "time": 458.1544860000008,
                        "value": 1
                    },
                    {
                        "number": 64,
                        "time": 459.43330671250084,
                        "value": 0
                    },
                    {
                        "number": 64,
                        "time": 459.53466052500085,
                        "value": 1
                    },
                    {
                        "number": 64,
                        "time": 460.69890736250085,
                        "value": 0
                    },
                    {
                        "number": 64,
                        "time": 460.83022665000084,
                        "value": 1
                    },
                    {
                        "number": 64,
                        "time": 461.9697960375008,
                        "value": 0
                    },
                    {
                        "number": 64,
                        "time": 462.14870755000084,
                        "value": 1
                    },
                    {
                        "number": 64,
                        "time": 462.39724472500086,
                        "value": 0
                    },
                    {
                        "number": 64,
                        "time": 463.39580011250086,
                        "value": 1
                    },
                    {
                        "number": 64,
                        "time": 464.10087011250084,
                        "value": 0
                    },
                    {
                        "number": 64,
                        "time": 464.6622821000008,
                        "value": 1
                    },
                    {
                        "number": 64,
                        "time": 465.7692420000008,
                        "value": 0
                    },
                    {
                        "number": 64,
                        "time": 466.02835522500084,
                        "value": 1
                    },
                    {
                        "number": 64,
                        "time": 467.04806271250084,
                        "value": 0
                    },
                    {
                        "number": 64,
                        "time": 467.08507888750086,
                        "value": 1
                    },
                    {
                        "number": 64,
                        "time": 467.42703783750085,
                        "value": 0
                    },
                    {
                        "number": 64,
                        "time": 468.40179711250084,
                        "value": 1
                    },
                    {
                        "number": 64,
                        "time": 469.57662000000084,
                        "value": 0
                    },
                    {
                        "number": 64,
                        "time": 470.90832096250085,
                        "value": 1
                    },
                    {
                        "number": 64,
                        "time": 471.38071786250083,
                        "value": 0
                    },
                    {
                        "number": 64,
                        "time": 478.08769623750084,
                        "value": 1
                    },
                    {
                        "number": 64,
                        "time": 478.4605020000008,
                        "value": 0
                    },
                    {
                        "number": 64,
                        "time": 479.35065287500083,
                        "value": 1
                    },
                    {
                        "number": 64,
                        "time": 479.72962800000084,
                        "value": 0
                    },
                    {
                        "number": 64,
                        "time": 481.00492336250085,
                        "value": 1
                    },
                    {
                        "number": 64,
                        "time": 481.44647345000084,
                        "value": 0
                    },
                    {
                        "number": 64,
                        "time": 486.1871878625008,
                        "value": 1
                    },
                    {
                        "number": 64,
                        "time": 488.6135100000008,
                        "value": 0
                    },
                    {
                        "number": 64,
                        "time": 488.6796103125008,
                        "value": 1
                    },
                    {
                        "number": 64,
                        "time": 489.1678712875008,
                        "value": 0
                    },
                    {
                        "number": 64,
                        "time": 489.88263600000084,
                        "value": 0
                    },
                    {
                        "number": 64,
                        "time": 489.94873631250084,
                        "value": 1
                    },
                    {
                        "number": 64,
                        "time": 490.43699728750084,
                        "value": 0
                    },
                    {
                        "number": 64,
                        "time": 491.2636918625008,
                        "value": 1
                    },
                    {
                        "number": 64,
                        "time": 493.6900140000008,
                        "value": 0
                    },
                    {
                        "number": 64,
                        "time": 493.7561143125008,
                        "value": 1
                    },
                    {
                        "number": 64,
                        "time": 494.2443752875008,
                        "value": 0
                    },
                    {
                        "number": 64,
                        "time": 494.95914000000084,
                        "value": 0
                    },
                    {
                        "number": 64,
                        "time": 495.02524031250084,
                        "value": 1
                    },
                    {
                        "number": 64,
                        "time": 495.51350128750084,
                        "value": 0
                    },
                    {
                        "number": 64,
                        "time": 496.3401958625008,
                        "value": 1
                    },
                    {
                        "number": 64,
                        "time": 498.7665180000008,
                        "value": 0
                    },
                    {
                        "number": 64,
                        "time": 498.8326183125008,
                        "value": 1
                    },
                    {
                        "number": 64,
                        "time": 499.3208792875008,
                        "value": 0
                    },
                    {
                        "number": 64,
                        "time": 500.03564400000084,
                        "value": 0
                    },
                    {
                        "number": 64,
                        "time": 500.10174431250084,
                        "value": 1
                    },
                    {
                        "number": 64,
                        "time": 500.59000528750084,
                        "value": 0
                    },
                    {
                        "number": 64,
                        "time": 501.4166998625008,
                        "value": 1
                    },
                    {
                        "number": 64,
                        "time": 503.8518353750008,
                        "value": 0
                    },
                    {
                        "number": 64,
                        "time": 503.9990187375008,
                        "value": 1
                    },
                    {
                        "number": 64,
                        "time": 506.3900873750008,
                        "value": 0
                    },
                    {
                        "number": 64,
                        "time": 506.5372707375008,
                        "value": 1
                    },
                    {
                        "number": 64,
                        "time": 508.7855627000008,
                        "value": 0
                    },
                    {
                        "number": 64,
                        "time": 508.8869165125008,
                        "value": 1
                    },
                    {
                        "number": 64,
                        "time": 509.77883006250084,
                        "value": 0
                    },
                    {
                        "number": 64,
                        "time": 510.18865200000084,
                        "value": 0
                    },
                    {
                        "number": 64,
                        "time": 510.25475231250084,
                        "value": 1
                    },
                    {
                        "number": 64,
                        "time": 511.05060007500083,
                        "value": 0
                    },
                    {
                        "number": 64,
                        "time": 511.5697078625008,
                        "value": 1
                    },
                    {
                        "number": 64,
                        "time": 512.0958663500008,
                        "value": 0
                    },
                    {
                        "number": 64,
                        "time": 513.8285758750009,
                        "value": 1
                    },
                    {
                        "number": 64,
                        "time": 514.3661917500009,
                        "value": 0
                    },
                    {
                        "number": 64,
                        "time": 515.1347180500009,
                        "value": 1
                    },
                    {
                        "number": 64,
                        "time": 515.9243964500008,
                        "value": 0
                    },
                    {
                        "number": 64,
                        "time": 516.5342820000008,
                        "value": 1
                    },
                    {
                        "number": 64,
                        "time": 516.9634933625008,
                        "value": 0
                    },
                    {
                        "number": 64,
                        "time": 517.1089140500007,
                        "value": 1
                    },
                    {
                        "number": 64,
                        "time": 517.8034080000008,
                        "value": 0
                    },
                    {
                        "number": 64,
                        "time": 518.0625212250008,
                        "value": 1
                    },
                    {
                        "number": 64,
                        "time": 518.5560702250008,
                        "value": 0
                    },
                    {
                        "number": 64,
                        "time": 519.0945674375008,
                        "value": 1
                    },
                    {
                        "number": 64,
                        "time": 519.9371260875008,
                        "value": 0
                    },
                    {
                        "number": 64,
                        "time": 519.9873623250008,
                        "value": 1
                    },
                    {
                        "number": 64,
                        "time": 520.3495920375009,
                        "value": 0
                    },
                    {
                        "number": 64,
                        "time": 520.4527085250008,
                        "value": 1
                    },
                    {
                        "number": 64,
                        "time": 520.7743967125008,
                        "value": 0
                    },
                    {
                        "number": 64,
                        "time": 520.8554797625007,
                        "value": 1
                    },
                    {
                        "number": 64,
                        "time": 521.2027267375007,
                        "value": 0
                    },
                    {
                        "number": 64,
                        "time": 521.2600136750007,
                        "value": 1
                    },
                    {
                        "number": 64,
                        "time": 521.6151926875007,
                        "value": 0
                    },
                    {
                        "number": 64,
                        "time": 521.7720707625007,
                        "value": 1
                    },
                    {
                        "number": 64,
                        "time": 522.0496920750006,
                        "value": 0
                    },
                    {
                        "number": 64,
                        "time": 522.1448765250007,
                        "value": 1
                    },
                    {
                        "number": 64,
                        "time": 522.4683273875006,
                        "value": 0
                    },
                    {
                        "number": 64,
                        "time": 522.5679185250007,
                        "value": 1
                    },
                    {
                        "number": 64,
                        "time": 522.8843186875007,
                        "value": 0
                    },
                    {
                        "number": 64,
                        "time": 522.9812658125007,
                        "value": 1
                    },
                    {
                        "number": 64,
                        "time": 523.3117673750007,
                        "value": 0
                    },
                    {
                        "number": 64,
                        "time": 524.1613767250008,
                        "value": 1
                    },
                    {
                        "number": 64,
                        "time": 524.5826560500008,
                        "value": 0
                    },
                    {
                        "number": 64,
                        "time": 524.6778405000008,
                        "value": 1
                    },
                    {
                        "number": 64,
                        "time": 525.0056980500008,
                        "value": 0
                    },
                    {
                        "number": 64,
                        "time": 525.0700356875008,
                        "value": 1
                    },
                    {
                        "number": 64,
                        "time": 525.4305027250008,
                        "value": 0
                    },
                    {
                        "number": 64,
                        "time": 525.4842643125008,
                        "value": 1
                    },
                    {
                        "number": 64,
                        "time": 525.8509007125008,
                        "value": 0
                    },
                    {
                        "number": 64,
                        "time": 525.8967302625008,
                        "value": 1
                    },
                    {
                        "number": 64,
                        "time": 526.2748240500008,
                        "value": 0
                    },
                    {
                        "number": 64,
                        "time": 526.3700085000008,
                        "value": 1
                    },
                    {
                        "number": 64,
                        "time": 526.6872900000009,
                        "value": 0
                    },
                    {
                        "number": 64,
                        "time": 526.7886438125008,
                        "value": 1
                    },
                    {
                        "number": 64,
                        "time": 527.1165013625008,
                        "value": 0
                    },
                    {
                        "number": 64,
                        "time": 527.2619220500007,
                        "value": 1
                    },
                    {
                        "number": 64,
                        "time": 527.5421873750007,
                        "value": 0
                    },
                    {
                        "number": 64,
                        "time": 527.6444225250007,
                        "value": 1
                    },
                    {
                        "number": 64,
                        "time": 527.9564160000007,
                        "value": 0
                    },
                    {
                        "number": 64,
                        "time": 528.2155292250006,
                        "value": 1
                    },
                    {
                        "number": 64,
                        "time": 528.7090782250007,
                        "value": 0
                    },
                    {
                        "number": 64,
                        "time": 529.2475754375007,
                        "value": 1
                    },
                    {
                        "number": 64,
                        "time": 530.0901340875007,
                        "value": 0
                    },
                    {
                        "number": 64,
                        "time": 530.1403703250007,
                        "value": 1
                    },
                    {
                        "number": 64,
                        "time": 530.5026000375008,
                        "value": 0
                    },
                    {
                        "number": 64,
                        "time": 530.6057165250007,
                        "value": 1
                    },
                    {
                        "number": 64,
                        "time": 530.9274047125007,
                        "value": 0
                    },
                    {
                        "number": 64,
                        "time": 531.0084877625006,
                        "value": 1
                    },
                    {
                        "number": 64,
                        "time": 531.3557347375006,
                        "value": 0
                    },
                    {
                        "number": 64,
                        "time": 531.4130216750006,
                        "value": 1
                    },
                    {
                        "number": 64,
                        "time": 531.7682006875006,
                        "value": 0
                    },
                    {
                        "number": 64,
                        "time": 531.9250787625006,
                        "value": 1
                    },
                    {
                        "number": 64,
                        "time": 532.2027000750005,
                        "value": 0
                    },
                    {
                        "number": 64,
                        "time": 532.2978845250005,
                        "value": 1
                    },
                    {
                        "number": 64,
                        "time": 532.6213353875005,
                        "value": 0
                    },
                    {
                        "number": 64,
                        "time": 532.7209265250006,
                        "value": 1
                    },
                    {
                        "number": 64,
                        "time": 533.0373266875006,
                        "value": 0
                    },
                    {
                        "number": 64,
                        "time": 533.1342738125006,
                        "value": 1
                    },
                    {
                        "number": 64,
                        "time": 533.4559620000006,
                        "value": 0
                    },
                    {
                        "number": 64,
                        "time": 538.2002017625006,
                        "value": 1
                    },
                    {
                        "number": 64,
                        "time": 538.5421607125006,
                        "value": 0
                    },
                    {
                        "number": 64,
                        "time": 538.6232437625006,
                        "value": 1
                    },
                    {
                        "number": 64,
                        "time": 538.9652027125006,
                        "value": 0
                    },
                    {
                        "number": 64,
                        "time": 539.0313030250006,
                        "value": 1
                    },
                    {
                        "number": 64,
                        "time": 539.3785500000006,
                        "value": 0
                    },
                    {
                        "number": 64,
                        "time": 539.4693277625006,
                        "value": 1
                    },
                    {
                        "number": 64,
                        "time": 539.8112867125006,
                        "value": 0
                    },
                    {
                        "number": 64,
                        "time": 539.8923697625006,
                        "value": 1
                    },
                    {
                        "number": 64,
                        "time": 540.2343287125007,
                        "value": 0
                    },
                    {
                        "number": 64,
                        "time": 540.3004290250007,
                        "value": 1
                    },
                    {
                        "number": 64,
                        "time": 540.6476760000006,
                        "value": 0
                    },
                    {
                        "number": 64,
                        "time": 540.7384537625006,
                        "value": 1
                    },
                    {
                        "number": 64,
                        "time": 541.0804127125007,
                        "value": 0
                    },
                    {
                        "number": 64,
                        "time": 541.1614957625006,
                        "value": 1
                    },
                    {
                        "number": 64,
                        "time": 541.5034547125007,
                        "value": 0
                    },
                    {
                        "number": 64,
                        "time": 541.5695550250007,
                        "value": 1
                    },
                    {
                        "number": 64,
                        "time": 541.9168020000006,
                        "value": 0
                    },
                    {
                        "number": 64,
                        "time": 542.0075797625007,
                        "value": 1
                    },
                    {
                        "number": 64,
                        "time": 542.3495387125007,
                        "value": 0
                    },
                    {
                        "number": 64,
                        "time": 542.4306217625007,
                        "value": 1
                    },
                    {
                        "number": 64,
                        "time": 542.7725807125007,
                        "value": 0
                    },
                    {
                        "number": 64,
                        "time": 542.8386810250007,
                        "value": 1
                    },
                    {
                        "number": 64,
                        "time": 543.1859280000007,
                        "value": 0
                    },
                    {
                        "number": 64,
                        "time": 543.2767057625007,
                        "value": 1
                    },
                    {
                        "number": 64,
                        "time": 543.6186647125007,
                        "value": 0
                    },
                    {
                        "number": 64,
                        "time": 543.6997477625007,
                        "value": 1
                    },
                    {
                        "number": 64,
                        "time": 544.0320120000007,
                        "value": 0
                    },
                    {
                        "number": 64,
                        "time": 544.1227897625007,
                        "value": 1
                    },
                    {
                        "number": 64,
                        "time": 544.4647487125008,
                        "value": 0
                    },
                    {
                        "number": 64,
                        "time": 544.5458317625007,
                        "value": 1
                    },
                    {
                        "number": 64,
                        "time": 544.8780960000007,
                        "value": 0
                    },
                    {
                        "number": 64,
                        "time": 544.9688737625007,
                        "value": 1
                    },
                    {
                        "number": 64,
                        "time": 545.3108327125008,
                        "value": 0
                    },
                    {
                        "number": 64,
                        "time": 545.3919157625007,
                        "value": 1
                    },
                    {
                        "number": 64,
                        "time": 545.7294680250008,
                        "value": 0
                    },
                    {
                        "number": 64,
                        "time": 545.7902803125007,
                        "value": 1
                    },
                    {
                        "number": 64,
                        "time": 546.1569167125007,
                        "value": 0
                    },
                    {
                        "number": 64,
                        "time": 546.2133223125006,
                        "value": 1
                    },
                    {
                        "number": 64,
                        "time": 546.5808400500006,
                        "value": 0
                    },
                    {
                        "number": 64,
                        "time": 546.6513470500006,
                        "value": 1
                    },
                    {
                        "number": 64,
                        "time": 546.9933060000006,
                        "value": 0
                    },
                    {
                        "number": 64,
                        "time": 548.2624320000007,
                        "value": 0
                    },
                    {
                        "number": 64,
                        "time": 552.2108240000007,
                        "value": 1
                    },
                    {
                        "number": 64,
                        "time": 554.1903080250007,
                        "value": 0
                    },
                    {
                        "number": 64,
                        "time": 554.6080620000007,
                        "value": 0
                    },
                    {
                        "number": 64,
                        "time": 554.7199918625007,
                        "value": 1
                    },
                    {
                        "number": 64,
                        "time": 555.0557814500007,
                        "value": 0
                    },
                    {
                        "number": 64,
                        "time": 555.1685926500007,
                        "value": 1
                    },
                    {
                        "number": 64,
                        "time": 556.7338480500007,
                        "value": 0
                    },
                    {
                        "number": 64,
                        "time": 557.2088889625007,
                        "value": 1
                    },
                    {
                        "number": 64,
                        "time": 557.5746440250008,
                        "value": 0
                    },
                    {
                        "number": 64,
                        "time": 557.6566084125008,
                        "value": 1
                    },
                    {
                        "number": 64,
                        "time": 557.9968046875008,
                        "value": 0
                    },
                    {
                        "number": 64,
                        "time": 558.1669028250008,
                        "value": 1
                    },
                    {
                        "number": 64,
                        "time": 558.4154400000008,
                        "value": 0
                    },
                    {
                        "number": 64,
                        "time": 559.8255800000007,
                        "value": 1
                    },
                    {
                        "number": 64,
                        "time": 561.8050640250008,
                        "value": 0
                    },
                    {
                        "number": 64,
                        "time": 562.2228180000008,
                        "value": 0
                    },
                    {
                        "number": 64,
                        "time": 562.3347478625008,
                        "value": 1
                    },
                    {
                        "number": 64,
                        "time": 562.6705374500008,
                        "value": 0
                    },
                    {
                        "number": 64,
                        "time": 562.7833486500008,
                        "value": 1
                    },
                    {
                        "number": 64,
                        "time": 564.3486040500007,
                        "value": 0
                    },
                    {
                        "number": 64,
                        "time": 564.8236449625008,
                        "value": 1
                    },
                    {
                        "number": 64,
                        "time": 565.1894000250009,
                        "value": 0
                    },
                    {
                        "number": 64,
                        "time": 565.2713644125008,
                        "value": 1
                    },
                    {
                        "number": 64,
                        "time": 565.6115606875009,
                        "value": 0
                    },
                    {
                        "number": 64,
                        "time": 565.7816588250008,
                        "value": 1
                    },
                    {
                        "number": 64,
                        "time": 566.0301960000008,
                        "value": 0
                    },
                    {
                        "number": 64,
                        "time": 566.1209737625009,
                        "value": 1
                    },
                    {
                        "number": 64,
                        "time": 566.3730362875009,
                        "value": 0
                    },
                    {
                        "number": 64,
                        "time": 568.5887187625009,
                        "value": 1
                    },
                    {
                        "number": 64,
                        "time": 569.0003033750008,
                        "value": 0
                    },
                    {
                        "number": 64,
                        "time": 569.0619970000008,
                        "value": 1
                    },
                    {
                        "number": 64,
                        "time": 569.4242267125009,
                        "value": 0
                    },
                    {
                        "number": 64,
                        "time": 569.5105977875008,
                        "value": 1
                    },
                    {
                        "number": 64,
                        "time": 569.8428620250008,
                        "value": 0
                    },
                    {
                        "number": 64,
                        "time": 569.9133690250009,
                        "value": 1
                    },
                    {
                        "number": 64,
                        "time": 570.2711920500009,
                        "value": 0
                    },
                    {
                        "number": 64,
                        "time": 570.3513937625008,
                        "value": 1
                    },
                    {
                        "number": 64,
                        "time": 570.6924713750009,
                        "value": 0
                    },
                    {
                        "number": 64,
                        "time": 570.7744357625008,
                        "value": 1
                    },
                    {
                        "number": 64,
                        "time": 571.1067000000008,
                        "value": 0
                    },
                    {
                        "number": 64,
                        "time": 571.1569362375009,
                        "value": 1
                    },
                    {
                        "number": 64,
                        "time": 572.3846393750009,
                        "value": 0
                    },
                    {
                        "number": 64,
                        "time": 572.439282300001,
                        "value": 1
                    },
                    {
                        "number": 64,
                        "time": 573.214859300001,
                        "value": 0
                    },
                    {
                        "number": 64,
                        "time": 573.235130062501,
                        "value": 1
                    },
                    {
                        "number": 64,
                        "time": 573.644952000001,
                        "value": 0
                    },
                    {
                        "number": 64,
                        "time": 573.732204412501,
                        "value": 1
                    },
                    {
                        "number": 64,
                        "time": 574.931704750001,
                        "value": 0
                    },
                    {
                        "number": 64,
                        "time": 574.9854663375011,
                        "value": 1
                    },
                    {
                        "number": 64,
                        "time": 575.7610433375011,
                        "value": 0
                    },
                    {
                        "number": 64,
                        "time": 575.781314100001,
                        "value": 1
                    },
                    {
                        "number": 64,
                        "time": 576.1858480125011,
                        "value": 0
                    },
                    {
                        "number": 64,
                        "time": 576.2519483250011,
                        "value": 1
                    },
                    {
                        "number": 64,
                        "time": 576.3700475500011,
                        "value": 0
                    },
                    {
                        "number": 64,
                        "time": 576.7243452250011,
                        "value": 1
                    },
                    {
                        "number": 64,
                        "time": 577.2787065125011,
                        "value": 0
                    },
                    {
                        "number": 64,
                        "time": 577.5087356000012,
                        "value": 1
                    },
                    {
                        "number": 64,
                        "time": 577.6136147625011,
                        "value": 0
                    },
                    {
                        "number": 64,
                        "time": 577.9502856875012,
                        "value": 1
                    },
                    {
                        "number": 64,
                        "time": 578.5205110500011,
                        "value": 0
                    },
                    {
                        "number": 64,
                        "time": 578.7602348500011,
                        "value": 1
                    },
                    {
                        "number": 64,
                        "time": 579.1541927125011,
                        "value": 0
                    },
                    {
                        "number": 64,
                        "time": 579.1779888250011,
                        "value": 1
                    },
                    {
                        "number": 64,
                        "time": 579.2476144875011,
                        "value": 0
                    },
                    {
                        "number": 64,
                        "time": 579.5789973875011,
                        "value": 1
                    },
                    {
                        "number": 64,
                        "time": 579.6988592875011,
                        "value": 0
                    },
                    {
                        "number": 64,
                        "time": 579.9905820000012,
                        "value": 1
                    },
                    {
                        "number": 64,
                        "time": 580.1589174625011,
                        "value": 0
                    },
                    {
                        "number": 64,
                        "time": 580.5008764125012,
                        "value": 1
                    },
                    {
                        "number": 64,
                        "time": 580.6753812375011,
                        "value": 0
                    }
                ]
            },
            "id": 3,
            "name": "Pedal",
            "instrumentNumber": 0,
            "instrument": "acoustic grand piano",
            "instrumentFamily": "piano",
            "channelNumber": 0,
            "isPercussion": false
        },
        {
            "startTime": 0,
            "duration": 0,
            "length": 0,
            "notes": [],
            "controlChanges": {},
            "id": 4,
            "name": "Mozart: Sonate KV 332"
        },
        {
            "startTime": 0,
            "duration": 0,
            "length": 0,
            "notes": [],
            "controlChanges": {},
            "id": 5,
            "name": "Copyright  2005 by Bernd Krger"
        },
        {
            "startTime": 0,
            "duration": 0,
            "length": 0,
            "notes": [],
            "controlChanges": {},
            "id": 6,
            "name": "http://www.piano-midi.de"
        },
        {
            "startTime": 0,
            "duration": 0,
            "length": 0,
            "notes": [],
            "controlChanges": {},
            "id": 7,
            "name": "Edition: 2013-07-22"
        },
        {
            "startTime": 0,
            "duration": 0,
            "length": 0,
            "notes": [],
            "controlChanges": {},
            "id": 8,
            "name": "Spur 8"
        },
        {
            "startTime": 0,
            "duration": 0,
            "length": 0,
            "notes": [],
            "controlChanges": {},
            "id": 9,
            "name": "Spur 9"
        }
    ]
}