{
    "header": {
        "PPQ": 480,
        "timeSignature": [
            2,
            4
        ],
        "bpm": 150.99999748333337,
        "name": "Klaviersonate Nr. 11 KV 331 3. Satz"
    },
    "startTime": 0,
    "duration": 177.6158969999971,
    "tracks": [
        {
            "startTime": 0,
            "duration": 0,
            "length": 0,
            "notes": [],
            "controlChanges": {},
            "id": 0,
            "name": "Klaviersonate Nr. 11 KV 331 3. Satz"
        },
        {
            "startTime": 0.397351,
            "duration": 177.6158969999971,
            "length": 1512,
            "notes": [
                {
                    "name": "B4",
                    "midi": 71,
                    "time": 0.397351,
                    "velocity": 0.5196850393700787,
                    "duration": 0.09933775
                },
                {
                    "name": "A4",
                    "midi": 69,
                    "time": 0.49668875,
                    "velocity": 0.5039370078740157,
                    "duration": 0.09933775
                },
                {
                    "name": "G#4",
                    "midi": 68,
                    "time": 0.5960265,
                    "velocity": 0.5039370078740157,
                    "duration": 0.09933775
                },
                {
                    "name": "A4",
                    "midi": 69,
                    "time": 0.69536425,
                    "velocity": 0.5039370078740157,
                    "duration": 0.09933775
                },
                {
                    "name": "C5",
                    "midi": 72,
                    "time": 0.794702,
                    "velocity": 0.5590551181102362,
                    "duration": 0.09933775
                },
                {
                    "name": "D5",
                    "midi": 74,
                    "time": 1.192053,
                    "velocity": 0.5196850393700787,
                    "duration": 0.09933775000000011
                },
                {
                    "name": "C5",
                    "midi": 72,
                    "time": 1.2913907500000001,
                    "velocity": 0.49606299212598426,
                    "duration": 0.09933775000000011
                },
                {
                    "name": "B4",
                    "midi": 71,
                    "time": 1.3907285000000003,
                    "velocity": 0.49606299212598426,
                    "duration": 0.09933775000000011
                },
                {
                    "name": "C5",
                    "midi": 72,
                    "time": 1.4900662500000004,
                    "velocity": 0.49606299212598426,
                    "duration": 0.09933775000000011
                },
                {
                    "name": "E5",
                    "midi": 76,
                    "time": 1.5894040000000005,
                    "velocity": 0.5669291338582677,
                    "duration": 0.09933775000000011
                },
                {
                    "name": "F5",
                    "midi": 77,
                    "time": 1.9867550000000005,
                    "velocity": 0.5196850393700787,
                    "duration": 0.09933775000000011
                },
                {
                    "name": "E5",
                    "midi": 76,
                    "time": 2.0860927500000006,
                    "velocity": 0.49606299212598426,
                    "duration": 0.09933775000000011
                },
                {
                    "name": "D#5",
                    "midi": 75,
                    "time": 2.1854305000000007,
                    "velocity": 0.49606299212598426,
                    "duration": 0.09933775000000011
                },
                {
                    "name": "E5",
                    "midi": 76,
                    "time": 2.284768250000001,
                    "velocity": 0.49606299212598426,
                    "duration": 0.09933775000000011
                },
                {
                    "name": "B5",
                    "midi": 83,
                    "time": 2.384106000000001,
                    "velocity": 0.5511811023622047,
                    "duration": 0.09933775000000011
                },
                {
                    "name": "A5",
                    "midi": 81,
                    "time": 2.483443750000001,
                    "velocity": 0.5039370078740157,
                    "duration": 0.09933775000000011
                },
                {
                    "name": "G#5",
                    "midi": 80,
                    "time": 2.582781500000001,
                    "velocity": 0.5039370078740157,
                    "duration": 0.09933775000000011
                },
                {
                    "name": "A5",
                    "midi": 81,
                    "time": 2.6821192500000013,
                    "velocity": 0.5039370078740157,
                    "duration": 0.09933775000000011
                },
                {
                    "name": "B5",
                    "midi": 83,
                    "time": 2.7814570000000014,
                    "velocity": 0.5433070866141733,
                    "duration": 0.09933775000000011
                },
                {
                    "name": "A5",
                    "midi": 81,
                    "time": 2.8807947500000015,
                    "velocity": 0.5039370078740157,
                    "duration": 0.09933775000000011
                },
                {
                    "name": "G#5",
                    "midi": 80,
                    "time": 2.9801325000000016,
                    "velocity": 0.5039370078740157,
                    "duration": 0.09933775000000011
                },
                {
                    "name": "A5",
                    "midi": 81,
                    "time": 3.0794702500000017,
                    "velocity": 0.5039370078740157,
                    "duration": 0.09933775000000011
                },
                {
                    "name": "C6",
                    "midi": 84,
                    "time": 3.178808000000002,
                    "velocity": 0.5669291338582677,
                    "duration": 0.397351
                },
                {
                    "name": "A5",
                    "midi": 81,
                    "time": 3.576159000000002,
                    "velocity": 0.5354330708661418,
                    "duration": 0.09933775000000011
                },
                {
                    "name": "C6",
                    "midi": 84,
                    "time": 3.774834500000002,
                    "velocity": 0.5118110236220472,
                    "duration": 0.09933775000000011
                },
                {
                    "name": "G5",
                    "midi": 79,
                    "time": 3.9238411250000023,
                    "velocity": 0.49606299212598426,
                    "duration": 0.02483443750000003
                },
                {
                    "name": "A5",
                    "midi": 81,
                    "time": 3.9486755625000023,
                    "velocity": 0.49606299212598426,
                    "duration": 0.02483443750000003
                },
                {
                    "name": "B5",
                    "midi": 83,
                    "time": 3.9735100000000023,
                    "velocity": 0.6299212598425197,
                    "duration": 0.09933774999999967
                },
                {
                    "name": "F#5",
                    "midi": 78,
                    "time": 4.172185500000002,
                    "velocity": 0.4251968503937008,
                    "duration": 0.09933775000000011
                },
                {
                    "name": "A5",
                    "midi": 81,
                    "time": 4.172185500000002,
                    "velocity": 0.5039370078740157,
                    "duration": 0.09933775000000011
                },
                {
                    "name": "E5",
                    "midi": 76,
                    "time": 4.370861000000002,
                    "velocity": 0.4566929133858268,
                    "duration": 0.09933775000000011
                },
                {
                    "name": "G5",
                    "midi": 79,
                    "time": 4.370861000000002,
                    "velocity": 0.5433070866141733,
                    "duration": 0.09933775000000011
                },
                {
                    "name": "F#5",
                    "midi": 78,
                    "time": 4.5695365000000026,
                    "velocity": 0.4251968503937008,
                    "duration": 0.09933775000000011
                },
                {
                    "name": "A5",
                    "midi": 81,
                    "time": 4.5695365000000026,
                    "velocity": 0.5039370078740157,
                    "duration": 0.09933775000000011
                },
                {
                    "name": "G5",
                    "midi": 79,
                    "time": 4.718543125000003,
                    "velocity": 0.5118110236220472,
                    "duration": 0.02483443750000003
                },
                {
                    "name": "A5",
                    "midi": 81,
                    "time": 4.743377562500003,
                    "velocity": 0.5118110236220472,
                    "duration": 0.02483443750000003
                },
                {
                    "name": "B5",
                    "midi": 83,
                    "time": 4.768212000000003,
                    "velocity": 0.6456692913385826,
                    "duration": 0.09933775000000011
                },
                {
                    "name": "F#5",
                    "midi": 78,
                    "time": 4.966887500000003,
                    "velocity": 0.4409448818897638,
                    "duration": 0.09933775000000011
                },
                {
                    "name": "A5",
                    "midi": 81,
                    "time": 4.966887500000003,
                    "velocity": 0.5196850393700787,
                    "duration": 0.09933775000000011
                },
                {
                    "name": "E5",
                    "midi": 76,
                    "time": 5.165563000000003,
                    "velocity": 0.4566929133858268,
                    "duration": 0.09933775000000011
                },
                {
                    "name": "G5",
                    "midi": 79,
                    "time": 5.165563000000003,
                    "velocity": 0.5433070866141733,
                    "duration": 0.09933775000000011
                },
                {
                    "name": "F#5",
                    "midi": 78,
                    "time": 5.3642385000000035,
                    "velocity": 0.4330708661417323,
                    "duration": 0.09933775000000011
                },
                {
                    "name": "A5",
                    "midi": 81,
                    "time": 5.3642385000000035,
                    "velocity": 0.5118110236220472,
                    "duration": 0.09933775000000011
                },
                {
                    "name": "G5",
                    "midi": 79,
                    "time": 5.513245125000004,
                    "velocity": 0.5039370078740157,
                    "duration": 0.02483443750000003
                },
                {
                    "name": "A5",
                    "midi": 81,
                    "time": 5.538079562500004,
                    "velocity": 0.5039370078740157,
                    "duration": 0.04966887500000006
                },
                {
                    "name": "B5",
                    "midi": 83,
                    "time": 5.562914000000004,
                    "velocity": 0.6220472440944882,
                    "duration": 0.09933775000000011
                },
                {
                    "name": "F#5",
                    "midi": 78,
                    "time": 5.761589500000004,
                    "velocity": 0.44881889763779526,
                    "duration": 0.09933775000000011
                },
                {
                    "name": "A5",
                    "midi": 81,
                    "time": 5.761589500000004,
                    "velocity": 0.5354330708661418,
                    "duration": 0.09933775000000011
                },
                {
                    "name": "E5",
                    "midi": 76,
                    "time": 5.960265000000004,
                    "velocity": 0.4566929133858268,
                    "duration": 0.09933775000000011
                },
                {
                    "name": "G5",
                    "midi": 79,
                    "time": 5.960265000000004,
                    "velocity": 0.5433070866141733,
                    "duration": 0.09933775000000011
                },
                {
                    "name": "D#5",
                    "midi": 75,
                    "time": 6.158940500000004,
                    "velocity": 0.4409448818897638,
                    "duration": 0.09933775000000011
                },
                {
                    "name": "F#5",
                    "midi": 78,
                    "time": 6.158940500000004,
                    "velocity": 0.5196850393700787,
                    "duration": 0.09933775000000011
                },
                {
                    "name": "E5",
                    "midi": 76,
                    "time": 6.357616000000005,
                    "velocity": 0.5433070866141733,
                    "duration": 0.3725165625000004
                },
                {
                    "name": "B4",
                    "midi": 71,
                    "time": 6.754967000000005,
                    "velocity": 0.5196850393700787,
                    "duration": 0.09933775000000011
                },
                {
                    "name": "A4",
                    "midi": 69,
                    "time": 6.854304750000005,
                    "velocity": 0.5039370078740157,
                    "duration": 0.09933775000000011
                },
                {
                    "name": "G#4",
                    "midi": 68,
                    "time": 6.953642500000005,
                    "velocity": 0.5039370078740157,
                    "duration": 0.09933775000000011
                },
                {
                    "name": "A4",
                    "midi": 69,
                    "time": 7.052980250000005,
                    "velocity": 0.5039370078740157,
                    "duration": 0.09933775000000011
                },
                {
                    "name": "C5",
                    "midi": 72,
                    "time": 7.1523180000000055,
                    "velocity": 0.5590551181102362,
                    "duration": 0.09933775000000011
                },
                {
                    "name": "D5",
                    "midi": 74,
                    "time": 7.549669000000006,
                    "velocity": 0.5196850393700787,
                    "duration": 0.09933775000000011
                },
                {
                    "name": "C5",
                    "midi": 72,
                    "time": 7.649006750000006,
                    "velocity": 0.49606299212598426,
                    "duration": 0.09933775000000011
                },
                {
                    "name": "B4",
                    "midi": 71,
                    "time": 7.748344500000006,
                    "velocity": 0.49606299212598426,
                    "duration": 0.09933775000000011
                },
                {
                    "name": "C5",
                    "midi": 72,
                    "time": 7.847682250000006,
                    "velocity": 0.49606299212598426,
                    "duration": 0.09933775000000011
                },
                {
                    "name": "E5",
                    "midi": 76,
                    "time": 7.947020000000006,
                    "velocity": 0.5669291338582677,
                    "duration": 0.09933774999999923
                },
                {
                    "name": "F5",
                    "midi": 77,
                    "time": 8.344371000000006,
                    "velocity": 0.5196850393700787,
                    "duration": 0.09933775000000011
                },
                {
                    "name": "E5",
                    "midi": 76,
                    "time": 8.443708750000006,
                    "velocity": 0.49606299212598426,
                    "duration": 0.09933775000000011
                },
                {
                    "name": "D#5",
                    "midi": 75,
                    "time": 8.543046500000006,
                    "velocity": 0.49606299212598426,
                    "duration": 0.09933775000000011
                },
                {
                    "name": "E5",
                    "midi": 76,
                    "time": 8.642384250000006,
                    "velocity": 0.49606299212598426,
                    "duration": 0.09933775000000011
                },
                {
                    "name": "B5",
                    "midi": 83,
                    "time": 8.741722000000006,
                    "velocity": 0.5511811023622047,
                    "duration": 0.09933775000000011
                },
                {
                    "name": "A5",
                    "midi": 81,
                    "time": 8.841059750000007,
                    "velocity": 0.5039370078740157,
                    "duration": 0.09933775000000011
                },
                {
                    "name": "G#5",
                    "midi": 80,
                    "time": 8.940397500000007,
                    "velocity": 0.5039370078740157,
                    "duration": 0.09933775000000011
                },
                {
                    "name": "A5",
                    "midi": 81,
                    "time": 9.039735250000007,
                    "velocity": 0.5039370078740157,
                    "duration": 0.09933775000000011
                },
                {
                    "name": "B5",
                    "midi": 83,
                    "time": 9.139073000000007,
                    "velocity": 0.5433070866141733,
                    "duration": 0.09933775000000011
                },
                {
                    "name": "A5",
                    "midi": 81,
                    "time": 9.238410750000007,
                    "velocity": 0.5039370078740157,
                    "duration": 0.09933775000000011
                },
                {
                    "name": "G#5",
                    "midi": 80,
                    "time": 9.337748500000007,
                    "velocity": 0.5039370078740157,
                    "duration": 0.09933775000000011
                },
                {
                    "name": "A5",
                    "midi": 81,
                    "time": 9.437086250000007,
                    "velocity": 0.5039370078740157,
                    "duration": 0.09933775000000011
                },
                {
                    "name": "C6",
                    "midi": 84,
                    "time": 9.536424000000007,
                    "velocity": 0.5669291338582677,
                    "duration": 0.39735100000000045
                },
                {
                    "name": "A5",
                    "midi": 81,
                    "time": 9.933775000000008,
                    "velocity": 0.5354330708661418,
                    "duration": 0.09933775000000011
                },
                {
                    "name": "C6",
                    "midi": 84,
                    "time": 10.132450500000008,
                    "velocity": 0.5118110236220472,
                    "duration": 0.09933775000000011
                },
                {
                    "name": "G5",
                    "midi": 79,
                    "time": 10.281457125000008,
                    "velocity": 0.49606299212598426,
                    "duration": 0.02483443749999914
                },
                {
                    "name": "A5",
                    "midi": 81,
                    "time": 10.306291562500007,
                    "velocity": 0.49606299212598426,
                    "duration": 0.02483443749999914
                },
                {
                    "name": "B5",
                    "midi": 83,
                    "time": 10.331126000000006,
                    "velocity": 0.6299212598425197,
                    "duration": 0.09933775000000011
                },
                {
                    "name": "F#5",
                    "midi": 78,
                    "time": 10.529801500000007,
                    "velocity": 0.4251968503937008,
                    "duration": 0.09933775000000011
                },
                {
                    "name": "A5",
                    "midi": 81,
                    "time": 10.529801500000007,
                    "velocity": 0.5039370078740157,
                    "duration": 0.09933775000000011
                },
                {
                    "name": "E5",
                    "midi": 76,
                    "time": 10.728477000000007,
                    "velocity": 0.4566929133858268,
                    "duration": 0.09933775000000011
                },
                {
                    "name": "G5",
                    "midi": 79,
                    "time": 10.728477000000007,
                    "velocity": 0.5433070866141733,
                    "duration": 0.09933775000000011
                },
                {
                    "name": "F#5",
                    "midi": 78,
                    "time": 10.927152500000007,
                    "velocity": 0.4251968503937008,
                    "duration": 0.09933775000000011
                },
                {
                    "name": "A5",
                    "midi": 81,
                    "time": 10.927152500000007,
                    "velocity": 0.5039370078740157,
                    "duration": 0.09933775000000011
                },
                {
                    "name": "G5",
                    "midi": 79,
                    "time": 11.076159125000007,
                    "velocity": 0.5118110236220472,
                    "duration": 0.02483443749999914
                },
                {
                    "name": "A5",
                    "midi": 81,
                    "time": 11.100993562500006,
                    "velocity": 0.5118110236220472,
                    "duration": 0.02483443749999914
                },
                {
                    "name": "B5",
                    "midi": 83,
                    "time": 11.125828000000006,
                    "velocity": 0.6456692913385826,
                    "duration": 0.09933775000000011
                },
                {
                    "name": "F#5",
                    "midi": 78,
                    "time": 11.324503500000006,
                    "velocity": 0.4409448818897638,
                    "duration": 0.09933775000000011
                },
                {
                    "name": "A5",
                    "midi": 81,
                    "time": 11.324503500000006,
                    "velocity": 0.5196850393700787,
                    "duration": 0.09933775000000011
                },
                {
                    "name": "E5",
                    "midi": 76,
                    "time": 11.523179000000006,
                    "velocity": 0.4566929133858268,
                    "duration": 0.09933775000000011
                },
                {
                    "name": "G5",
                    "midi": 79,
                    "time": 11.523179000000006,
                    "velocity": 0.5433070866141733,
                    "duration": 0.09933775000000011
                },
                {
                    "name": "F#5",
                    "midi": 78,
                    "time": 11.721854500000006,
                    "velocity": 0.4330708661417323,
                    "duration": 0.09933775000000011
                },
                {
                    "name": "A5",
                    "midi": 81,
                    "time": 11.721854500000006,
                    "velocity": 0.5118110236220472,
                    "duration": 0.09933775000000011
                },
                {
                    "name": "G5",
                    "midi": 79,
                    "time": 11.870861125000006,
                    "velocity": 0.5039370078740157,
                    "duration": 0.02483443749999914
                },
                {
                    "name": "A5",
                    "midi": 81,
                    "time": 11.895695562500006,
                    "velocity": 0.5039370078740157,
                    "duration": 0.04966887499999828
                },
                {
                    "name": "B5",
                    "midi": 83,
                    "time": 11.920530000000005,
                    "velocity": 0.6220472440944882,
                    "duration": 0.09933774999999834
                },
                {
                    "name": "F#5",
                    "midi": 78,
                    "time": 12.119205500000003,
                    "velocity": 0.44881889763779526,
                    "duration": 0.09933775000000011
                },
                {
                    "name": "A5",
                    "midi": 81,
                    "time": 12.119205500000003,
                    "velocity": 0.5354330708661418,
                    "duration": 0.09933775000000011
                },
                {
                    "name": "E5",
                    "midi": 76,
                    "time": 12.317881000000003,
                    "velocity": 0.4566929133858268,
                    "duration": 0.09933775000000011
                },
                {
                    "name": "G5",
                    "midi": 79,
                    "time": 12.317881000000003,
                    "velocity": 0.5433070866141733,
                    "duration": 0.09933775000000011
                },
                {
                    "name": "D#5",
                    "midi": 75,
                    "time": 12.516556500000004,
                    "velocity": 0.4409448818897638,
                    "duration": 0.09933775000000011
                },
                {
                    "name": "F#5",
                    "midi": 78,
                    "time": 12.516556500000004,
                    "velocity": 0.5196850393700787,
                    "duration": 0.09933775000000011
                },
                {
                    "name": "E5",
                    "midi": 76,
                    "time": 12.715232000000004,
                    "velocity": 0.5433070866141733,
                    "duration": 0.37251656249999954
                },
                {
                    "name": "C5",
                    "midi": 72,
                    "time": 13.112583000000003,
                    "velocity": 0.4409448818897638,
                    "duration": 0.09933775000000011
                },
                {
                    "name": "E5",
                    "midi": 76,
                    "time": 13.112583000000003,
                    "velocity": 0.4409448818897638,
                    "duration": 0.09933775000000011
                },
                {
                    "name": "D5",
                    "midi": 74,
                    "time": 13.311258500000003,
                    "velocity": 0.4409448818897638,
                    "duration": 0.09933775000000011
                },
                {
                    "name": "F5",
                    "midi": 77,
                    "time": 13.311258500000003,
                    "velocity": 0.4409448818897638,
                    "duration": 0.09933775000000011
                },
                {
                    "name": "E5",
                    "midi": 76,
                    "time": 13.509934000000003,
                    "velocity": 0.5196850393700787,
                    "duration": 0.09933775000000011
                },
                {
                    "name": "G5",
                    "midi": 79,
                    "time": 13.509934000000003,
                    "velocity": 0.5196850393700787,
                    "duration": 0.09933775000000011
                },
                {
                    "name": "E5",
                    "midi": 76,
                    "time": 13.708609500000003,
                    "velocity": 0.44881889763779526,
                    "duration": 0.09933775000000011
                },
                {
                    "name": "G5",
                    "midi": 79,
                    "time": 13.708609500000003,
                    "velocity": 0.44881889763779526,
                    "duration": 0.09933775000000011
                },
                {
                    "name": "A5",
                    "midi": 81,
                    "time": 13.907285000000003,
                    "velocity": 0.5039370078740157,
                    "duration": 0.09933775000000011
                },
                {
                    "name": "G5",
                    "midi": 79,
                    "time": 14.006622750000004,
                    "velocity": 0.44881889763779526,
                    "duration": 0.09933775000000011
                },
                {
                    "name": "F5",
                    "midi": 77,
                    "time": 14.105960500000004,
                    "velocity": 0.44881889763779526,
                    "duration": 0.09933775000000011
                },
                {
                    "name": "E5",
                    "midi": 76,
                    "time": 14.205298250000004,
                    "velocity": 0.44881889763779526,
                    "duration": 0.09933775000000011
                },
                {
                    "name": "D5",
                    "midi": 74,
                    "time": 14.304636000000004,
                    "velocity": 0.5118110236220472,
                    "duration": 0.39735100000000045
                },
                {
                    "name": "B4",
                    "midi": 71,
                    "time": 14.304636000000004,
                    "velocity": 0.5118110236220472,
                    "duration": 0.19867550000000023
                },
                {
                    "name": "G4",
                    "midi": 67,
                    "time": 14.503311500000004,
                    "velocity": 0.4645669291338583,
                    "duration": 0.19867550000000023
                },
                {
                    "name": "C5",
                    "midi": 72,
                    "time": 14.701987000000004,
                    "velocity": 0.4409448818897638,
                    "duration": 0.09933775000000011
                },
                {
                    "name": "E5",
                    "midi": 76,
                    "time": 14.701987000000004,
                    "velocity": 0.4409448818897638,
                    "duration": 0.09933775000000011
                },
                {
                    "name": "D5",
                    "midi": 74,
                    "time": 14.900662500000005,
                    "velocity": 0.4409448818897638,
                    "duration": 0.09933775000000011
                },
                {
                    "name": "F5",
                    "midi": 77,
                    "time": 14.900662500000005,
                    "velocity": 0.4409448818897638,
                    "duration": 0.09933775000000011
                },
                {
                    "name": "E5",
                    "midi": 76,
                    "time": 15.099338000000005,
                    "velocity": 0.5196850393700787,
                    "duration": 0.09933775000000011
                },
                {
                    "name": "G5",
                    "midi": 79,
                    "time": 15.099338000000005,
                    "velocity": 0.5196850393700787,
                    "duration": 0.09933775000000011
                },
                {
                    "name": "E5",
                    "midi": 76,
                    "time": 15.298013500000005,
                    "velocity": 0.44881889763779526,
                    "duration": 0.09933775000000011
                },
                {
                    "name": "G5",
                    "midi": 79,
                    "time": 15.298013500000005,
                    "velocity": 0.44881889763779526,
                    "duration": 0.09933775000000011
                },
                {
                    "name": "A5",
                    "midi": 81,
                    "time": 15.496689000000005,
                    "velocity": 0.5039370078740157,
                    "duration": 0.09933775000000011
                },
                {
                    "name": "G5",
                    "midi": 79,
                    "time": 15.596026750000005,
                    "velocity": 0.44881889763779526,
                    "duration": 0.09933775000000011
                },
                {
                    "name": "F5",
                    "midi": 77,
                    "time": 15.695364500000005,
                    "velocity": 0.44881889763779526,
                    "duration": 0.09933775000000011
                },
                {
                    "name": "E5",
                    "midi": 76,
                    "time": 15.794702250000006,
                    "velocity": 0.44881889763779526,
                    "duration": 0.09933775000000011
                },
                {
                    "name": "D5",
                    "midi": 74,
                    "time": 15.894040000000006,
                    "velocity": 0.5118110236220472,
                    "duration": 0.3973509999999987
                },
                {
                    "name": "B4",
                    "midi": 71,
                    "time": 15.894040000000006,
                    "velocity": 0.5118110236220472,
                    "duration": 0.3973509999999987
                },
                {
                    "name": "A4",
                    "midi": 69,
                    "time": 16.291391000000004,
                    "velocity": 0.4409448818897638,
                    "duration": 0.09933775000000011
                },
                {
                    "name": "C5",
                    "midi": 72,
                    "time": 16.291391000000004,
                    "velocity": 0.4409448818897638,
                    "duration": 0.09933775000000011
                },
                {
                    "name": "B4",
                    "midi": 71,
                    "time": 16.490066500000005,
                    "velocity": 0.4409448818897638,
                    "duration": 0.09933775000000011
                },
                {
                    "name": "D5",
                    "midi": 74,
                    "time": 16.490066500000005,
                    "velocity": 0.4409448818897638,
                    "duration": 0.09933775000000011
                },
                {
                    "name": "C5",
                    "midi": 72,
                    "time": 16.688742000000005,
                    "velocity": 0.5196850393700787,
                    "duration": 0.09933775000000011
                },
                {
                    "name": "E5",
                    "midi": 76,
                    "time": 16.688742000000005,
                    "velocity": 0.5196850393700787,
                    "duration": 0.09933775000000011
                },
                {
                    "name": "C5",
                    "midi": 72,
                    "time": 16.887417500000005,
                    "velocity": 0.44881889763779526,
                    "duration": 0.09933775000000011
                },
                {
                    "name": "E5",
                    "midi": 76,
                    "time": 16.887417500000005,
                    "velocity": 0.44881889763779526,
                    "duration": 0.09933775000000011
                },
                {
                    "name": "F5",
                    "midi": 77,
                    "time": 17.086093000000005,
                    "velocity": 0.5039370078740157,
                    "duration": 0.09933775000000011
                },
                {
                    "name": "E5",
                    "midi": 76,
                    "time": 17.185430750000005,
                    "velocity": 0.44881889763779526,
                    "duration": 0.09933775000000011
                },
                {
                    "name": "D5",
                    "midi": 74,
                    "time": 17.284768500000006,
                    "velocity": 0.44881889763779526,
                    "duration": 0.09933775000000011
                },
                {
                    "name": "C5",
                    "midi": 72,
                    "time": 17.384106250000006,
                    "velocity": 0.44881889763779526,
                    "duration": 0.09933775000000011
                },
                {
                    "name": "B4",
                    "midi": 71,
                    "time": 17.483444000000006,
                    "velocity": 0.5118110236220472,
                    "duration": 0.39735100000000045
                },
                {
                    "name": "G#4",
                    "midi": 68,
                    "time": 17.483444000000006,
                    "velocity": 0.5118110236220472,
                    "duration": 0.19867550000000023
                },
                {
                    "name": "E4",
                    "midi": 64,
                    "time": 17.682119500000006,
                    "velocity": 0.4645669291338583,
                    "duration": 0.19867550000000023
                },
                {
                    "name": "A4",
                    "midi": 69,
                    "time": 17.880795000000006,
                    "velocity": 0.4409448818897638,
                    "duration": 0.09933775000000011
                },
                {
                    "name": "C5",
                    "midi": 72,
                    "time": 17.880795000000006,
                    "velocity": 0.4409448818897638,
                    "duration": 0.09933775000000011
                },
                {
                    "name": "B4",
                    "midi": 71,
                    "time": 18.079470500000006,
                    "velocity": 0.4409448818897638,
                    "duration": 0.09933775000000011
                },
                {
                    "name": "D5",
                    "midi": 74,
                    "time": 18.079470500000006,
                    "velocity": 0.4409448818897638,
                    "duration": 0.09933775000000011
                },
                {
                    "name": "C5",
                    "midi": 72,
                    "time": 18.278146000000007,
                    "velocity": 0.5196850393700787,
                    "duration": 0.09933775000000011
                },
                {
                    "name": "E5",
                    "midi": 76,
                    "time": 18.278146000000007,
                    "velocity": 0.5196850393700787,
                    "duration": 0.09933775000000011
                },
                {
                    "name": "C5",
                    "midi": 72,
                    "time": 18.476821500000007,
                    "velocity": 0.44881889763779526,
                    "duration": 0.09933775000000011
                },
                {
                    "name": "E5",
                    "midi": 76,
                    "time": 18.476821500000007,
                    "velocity": 0.44881889763779526,
                    "duration": 0.09933775000000011
                },
                {
                    "name": "F5",
                    "midi": 77,
                    "time": 18.675497000000007,
                    "velocity": 0.5039370078740157,
                    "duration": 0.09933775000000011
                },
                {
                    "name": "E5",
                    "midi": 76,
                    "time": 18.774834750000007,
                    "velocity": 0.44881889763779526,
                    "duration": 0.09933775000000011
                },
                {
                    "name": "D5",
                    "midi": 74,
                    "time": 18.874172500000007,
                    "velocity": 0.44881889763779526,
                    "duration": 0.09933775000000011
                },
                {
                    "name": "C5",
                    "midi": 72,
                    "time": 18.973510250000007,
                    "velocity": 0.44881889763779526,
                    "duration": 0.09933775000000011
                },
                {
                    "name": "B4",
                    "midi": 71,
                    "time": 19.072848000000008,
                    "velocity": 0.5118110236220472,
                    "duration": 0.39735100000000045
                },
                {
                    "name": "G#4",
                    "midi": 68,
                    "time": 19.072848000000008,
                    "velocity": 0.5118110236220472,
                    "duration": 0.39735100000000045
                },
                {
                    "name": "B4",
                    "midi": 71,
                    "time": 19.470199000000008,
                    "velocity": 0.4409448818897638,
                    "duration": 0.09933775000000011
                },
                {
                    "name": "A4",
                    "midi": 69,
                    "time": 19.569536750000008,
                    "velocity": 0.4409448818897638,
                    "duration": 0.09933775000000011
                },
                {
                    "name": "G#4",
                    "midi": 68,
                    "time": 19.66887450000001,
                    "velocity": 0.4409448818897638,
                    "duration": 0.09933775000000011
                },
                {
                    "name": "A4",
                    "midi": 69,
                    "time": 19.76821225000001,
                    "velocity": 0.4409448818897638,
                    "duration": 0.09933775000000011
                },
                {
                    "name": "C5",
                    "midi": 72,
                    "time": 19.86755000000001,
                    "velocity": 0.4645669291338583,
                    "duration": 0.09933775000000011
                },
                {
                    "name": "D5",
                    "midi": 74,
                    "time": 20.26490100000001,
                    "velocity": 0.4881889763779528,
                    "duration": 0.09933775000000011
                },
                {
                    "name": "C5",
                    "midi": 72,
                    "time": 20.36423875000001,
                    "velocity": 0.44881889763779526,
                    "duration": 0.09933775000000011
                },
                {
                    "name": "B4",
                    "midi": 71,
                    "time": 20.46357650000001,
                    "velocity": 0.44881889763779526,
                    "duration": 0.09933775000000011
                },
                {
                    "name": "C5",
                    "midi": 72,
                    "time": 20.56291425000001,
                    "velocity": 0.44881889763779526,
                    "duration": 0.09933775000000011
                },
                {
                    "name": "E5",
                    "midi": 76,
                    "time": 20.66225200000001,
                    "velocity": 0.5196850393700787,
                    "duration": 0.09933775000000011
                },
                {
                    "name": "F5",
                    "midi": 77,
                    "time": 21.05960300000001,
                    "velocity": 0.49606299212598426,
                    "duration": 0.09933775000000011
                },
                {
                    "name": "E5",
                    "midi": 76,
                    "time": 21.15894075000001,
                    "velocity": 0.4566929133858268,
                    "duration": 0.09933775000000011
                },
                {
                    "name": "D#5",
                    "midi": 75,
                    "time": 21.25827850000001,
                    "velocity": 0.4566929133858268,
                    "duration": 0.09933775000000011
                },
                {
                    "name": "E5",
                    "midi": 76,
                    "time": 21.35761625000001,
                    "velocity": 0.4566929133858268,
                    "duration": 0.09933775000000011
                },
                {
                    "name": "B5",
                    "midi": 83,
                    "time": 21.45695400000001,
                    "velocity": 0.5511811023622047,
                    "duration": 0.09933775000000011
                },
                {
                    "name": "A5",
                    "midi": 81,
                    "time": 21.55629175000001,
                    "velocity": 0.49606299212598426,
                    "duration": 0.09933775000000011
                },
                {
                    "name": "G#5",
                    "midi": 80,
                    "time": 21.65562950000001,
                    "velocity": 0.49606299212598426,
                    "duration": 0.09933775000000011
                },
                {
                    "name": "A5",
                    "midi": 81,
                    "time": 21.75496725000001,
                    "velocity": 0.49606299212598426,
                    "duration": 0.09933775000000011
                },
                {
                    "name": "B5",
                    "midi": 83,
                    "time": 21.85430500000001,
                    "velocity": 0.5590551181102362,
                    "duration": 0.09933775000000011
                },
                {
                    "name": "A5",
                    "midi": 81,
                    "time": 21.95364275000001,
                    "velocity": 0.5039370078740157,
                    "duration": 0.09933775000000011
                },
                {
                    "name": "G#5",
                    "midi": 80,
                    "time": 22.05298050000001,
                    "velocity": 0.5039370078740157,
                    "duration": 0.09933775000000011
                },
                {
                    "name": "A5",
                    "midi": 81,
                    "time": 22.15231825000001,
                    "velocity": 0.5039370078740157,
                    "duration": 0.09933775000000011
                },
                {
                    "name": "C6",
                    "midi": 84,
                    "time": 22.25165600000001,
                    "velocity": 0.5984251968503937,
                    "duration": 0.39735100000000045
                },
                {
                    "name": "A5",
                    "midi": 81,
                    "time": 22.64900700000001,
                    "velocity": 0.4881889763779528,
                    "duration": 0.09933775000000011
                },
                {
                    "name": "B5",
                    "midi": 83,
                    "time": 22.847682500000012,
                    "velocity": 0.4881889763779528,
                    "duration": 0.09933775000000011
                },
                {
                    "name": "C6",
                    "midi": 84,
                    "time": 23.046358000000012,
                    "velocity": 0.5511811023622047,
                    "duration": 0.09933775000000011
                },
                {
                    "name": "B5",
                    "midi": 83,
                    "time": 23.245033500000012,
                    "velocity": 0.4881889763779528,
                    "duration": 0.09933775000000011
                },
                {
                    "name": "A5",
                    "midi": 81,
                    "time": 23.443709000000013,
                    "velocity": 0.4881889763779528,
                    "duration": 0.09933775000000011
                },
                {
                    "name": "G#5",
                    "midi": 80,
                    "time": 23.642384500000013,
                    "velocity": 0.4881889763779528,
                    "duration": 0.09933775000000011
                },
                {
                    "name": "A5",
                    "midi": 81,
                    "time": 23.841060000000013,
                    "velocity": 0.5590551181102362,
                    "duration": 0.09933775000000011
                },
                {
                    "name": "E5",
                    "midi": 76,
                    "time": 24.039735500000013,
                    "velocity": 0.5039370078740157,
                    "duration": 0.09933775000000011
                },
                {
                    "name": "F5",
                    "midi": 77,
                    "time": 24.241722258333347,
                    "velocity": 0.5039370078740157,
                    "duration": 0.09933775000000011
                },
                {
                    "name": "D5",
                    "midi": 74,
                    "time": 24.437086500000014,
                    "velocity": 0.5039370078740157,
                    "duration": 0.09933775000000011
                },
                {
                    "name": "C5",
                    "midi": 72,
                    "time": 24.635762000000014,
                    "velocity": 0.5826771653543307,
                    "duration": 0.39735100000000045
                },
                {
                    "name": "B4",
                    "midi": 71,
                    "time": 25.033113000000014,
                    "velocity": 0.5039370078740157,
                    "duration": 0.04966887499999828
                },
                {
                    "name": "C5",
                    "midi": 72,
                    "time": 25.082781875000013,
                    "velocity": 0.44881889763779526,
                    "duration": 0.04966887499999828
                },
                {
                    "name": "B4",
                    "midi": 71,
                    "time": 25.13245075000001,
                    "velocity": 0.44881889763779526,
                    "duration": 0.04966887499999828
                },
                {
                    "name": "C5",
                    "midi": 72,
                    "time": 25.18211962500001,
                    "velocity": 0.44881889763779526,
                    "duration": 0.04966887499999828
                },
                {
                    "name": "B4",
                    "midi": 71,
                    "time": 25.231788500000008,
                    "velocity": 0.44881889763779526,
                    "duration": 0.0033112583333334555
                },
                {
                    "name": "C5",
                    "midi": 72,
                    "time": 25.264901083333342,
                    "velocity": 0.44881889763779526,
                    "duration": 0.033112583333334555
                },
                {
                    "name": "B4",
                    "midi": 71,
                    "time": 25.298013666666677,
                    "velocity": 0.44881889763779526,
                    "duration": 0.033112583333334555
                },
                {
                    "name": "A4",
                    "midi": 69,
                    "time": 25.33112625000001,
                    "velocity": 0.5039370078740157,
                    "duration": 0.04966887499999828
                },
                {
                    "name": "B4",
                    "midi": 71,
                    "time": 25.38079512500001,
                    "velocity": 0.44881889763779526,
                    "duration": 0.04966887499999828
                },
                {
                    "name": "A4",
                    "midi": 69,
                    "time": 25.430464000000008,
                    "velocity": 0.5118110236220472,
                    "duration": 0.37251656249999954
                },
                {
                    "name": "C5",
                    "midi": 72,
                    "time": 25.827815000000008,
                    "velocity": 0.4409448818897638,
                    "duration": 0.09933775000000011
                },
                {
                    "name": "E5",
                    "midi": 76,
                    "time": 25.827815000000008,
                    "velocity": 0.4409448818897638,
                    "duration": 0.09933775000000011
                },
                {
                    "name": "D5",
                    "midi": 74,
                    "time": 26.02649050000001,
                    "velocity": 0.4409448818897638,
                    "duration": 0.09933775000000011
                },
                {
                    "name": "F5",
                    "midi": 77,
                    "time": 26.02649050000001,
                    "velocity": 0.4409448818897638,
                    "duration": 0.09933775000000011
                },
                {
                    "name": "E5",
                    "midi": 76,
                    "time": 26.22516600000001,
                    "velocity": 0.5196850393700787,
                    "duration": 0.09933775000000011
                },
                {
                    "name": "G5",
                    "midi": 79,
                    "time": 26.22516600000001,
                    "velocity": 0.5196850393700787,
                    "duration": 0.09933775000000011
                },
                {
                    "name": "E5",
                    "midi": 76,
                    "time": 26.42384150000001,
                    "velocity": 0.44881889763779526,
                    "duration": 0.09933775000000011
                },
                {
                    "name": "G5",
                    "midi": 79,
                    "time": 26.42384150000001,
                    "velocity": 0.44881889763779526,
                    "duration": 0.09933775000000011
                },
                {
                    "name": "A5",
                    "midi": 81,
                    "time": 26.62251700000001,
                    "velocity": 0.5039370078740157,
                    "duration": 0.09933775000000011
                },
                {
                    "name": "G5",
                    "midi": 79,
                    "time": 26.72185475000001,
                    "velocity": 0.44881889763779526,
                    "duration": 0.09933775000000011
                },
                {
                    "name": "F5",
                    "midi": 77,
                    "time": 26.82119250000001,
                    "velocity": 0.44881889763779526,
                    "duration": 0.09933775000000011
                },
                {
                    "name": "E5",
                    "midi": 76,
                    "time": 26.92053025000001,
                    "velocity": 0.44881889763779526,
                    "duration": 0.09933775000000011
                },
                {
                    "name": "D5",
                    "midi": 74,
                    "time": 27.01986800000001,
                    "velocity": 0.5118110236220472,
                    "duration": 0.39735100000000045
                },
                {
                    "name": "B4",
                    "midi": 71,
                    "time": 27.01986800000001,
                    "velocity": 0.5118110236220472,
                    "duration": 0.19867550000000023
                },
                {
                    "name": "G4",
                    "midi": 67,
                    "time": 27.21854350000001,
                    "velocity": 0.4645669291338583,
                    "duration": 0.19867550000000023
                },
                {
                    "name": "C5",
                    "midi": 72,
                    "time": 27.41721900000001,
                    "velocity": 0.4409448818897638,
                    "duration": 0.09933775000000011
                },
                {
                    "name": "E5",
                    "midi": 76,
                    "time": 27.41721900000001,
                    "velocity": 0.4409448818897638,
                    "duration": 0.09933775000000011
                },
                {
                    "name": "D5",
                    "midi": 74,
                    "time": 27.61589450000001,
                    "velocity": 0.4409448818897638,
                    "duration": 0.09933775000000011
                },
                {
                    "name": "F5",
                    "midi": 77,
                    "time": 27.61589450000001,
                    "velocity": 0.4409448818897638,
                    "duration": 0.09933775000000011
                },
                {
                    "name": "E5",
                    "midi": 76,
                    "time": 27.81457000000001,
                    "velocity": 0.5196850393700787,
                    "duration": 0.09933775000000011
                },
                {
                    "name": "G5",
                    "midi": 79,
                    "time": 27.81457000000001,
                    "velocity": 0.5196850393700787,
                    "duration": 0.09933775000000011
                },
                {
                    "name": "E5",
                    "midi": 76,
                    "time": 28.01324550000001,
                    "velocity": 0.44881889763779526,
                    "duration": 0.09933775000000011
                },
                {
                    "name": "G5",
                    "midi": 79,
                    "time": 28.01324550000001,
                    "velocity": 0.44881889763779526,
                    "duration": 0.09933775000000011
                },
                {
                    "name": "A5",
                    "midi": 81,
                    "time": 28.21192100000001,
                    "velocity": 0.5039370078740157,
                    "duration": 0.09933775000000011
                },
                {
                    "name": "G5",
                    "midi": 79,
                    "time": 28.31125875000001,
                    "velocity": 0.44881889763779526,
                    "duration": 0.09933775000000011
                },
                {
                    "name": "F5",
                    "midi": 77,
                    "time": 28.41059650000001,
                    "velocity": 0.44881889763779526,
                    "duration": 0.09933775000000011
                },
                {
                    "name": "E5",
                    "midi": 76,
                    "time": 28.50993425000001,
                    "velocity": 0.44881889763779526,
                    "duration": 0.09933775000000011
                },
                {
                    "name": "D5",
                    "midi": 74,
                    "time": 28.60927200000001,
                    "velocity": 0.5118110236220472,
                    "duration": 0.39735100000000045
                },
                {
                    "name": "B4",
                    "midi": 71,
                    "time": 28.60927200000001,
                    "velocity": 0.5118110236220472,
                    "duration": 0.39735100000000045
                },
                {
                    "name": "A4",
                    "midi": 69,
                    "time": 29.006623000000012,
                    "velocity": 0.4409448818897638,
                    "duration": 0.09933775000000011
                },
                {
                    "name": "C5",
                    "midi": 72,
                    "time": 29.006623000000012,
                    "velocity": 0.4409448818897638,
                    "duration": 0.09933775000000011
                },
                {
                    "name": "B4",
                    "midi": 71,
                    "time": 29.205298500000012,
                    "velocity": 0.4409448818897638,
                    "duration": 0.09933775000000011
                },
                {
                    "name": "D5",
                    "midi": 74,
                    "time": 29.205298500000012,
                    "velocity": 0.4409448818897638,
                    "duration": 0.09933775000000011
                },
                {
                    "name": "C5",
                    "midi": 72,
                    "time": 29.403974000000012,
                    "velocity": 0.5196850393700787,
                    "duration": 0.09933775000000011
                },
                {
                    "name": "E5",
                    "midi": 76,
                    "time": 29.403974000000012,
                    "velocity": 0.5196850393700787,
                    "duration": 0.09933775000000011
                },
                {
                    "name": "C5",
                    "midi": 72,
                    "time": 29.602649500000012,
                    "velocity": 0.44881889763779526,
                    "duration": 0.09933775000000011
                },
                {
                    "name": "E5",
                    "midi": 76,
                    "time": 29.602649500000012,
                    "velocity": 0.44881889763779526,
                    "duration": 0.09933775000000011
                },
                {
                    "name": "F5",
                    "midi": 77,
                    "time": 29.801325000000013,
                    "velocity": 0.5039370078740157,
                    "duration": 0.09933775000000011
                },
                {
                    "name": "E5",
                    "midi": 76,
                    "time": 29.900662750000013,
                    "velocity": 0.44881889763779526,
                    "duration": 0.09933775000000011
                },
                {
                    "name": "D5",
                    "midi": 74,
                    "time": 30.000000500000013,
                    "velocity": 0.44881889763779526,
                    "duration": 0.09933775000000011
                },
                {
                    "name": "C5",
                    "midi": 72,
                    "time": 30.099338250000013,
                    "velocity": 0.44881889763779526,
                    "duration": 0.09933775000000011
                },
                {
                    "name": "B4",
                    "midi": 71,
                    "time": 30.198676000000013,
                    "velocity": 0.5118110236220472,
                    "duration": 0.39735100000000045
                },
                {
                    "name": "G#4",
                    "midi": 68,
                    "time": 30.198676000000013,
                    "velocity": 0.5118110236220472,
                    "duration": 0.19867550000000023
                },
                {
                    "name": "E4",
                    "midi": 64,
                    "time": 30.397351500000013,
                    "velocity": 0.4645669291338583,
                    "duration": 0.19867550000000023
                },
                {
                    "name": "A4",
                    "midi": 69,
                    "time": 30.596027000000014,
                    "velocity": 0.4409448818897638,
                    "duration": 0.09933775000000011
                },
                {
                    "name": "C5",
                    "midi": 72,
                    "time": 30.596027000000014,
                    "velocity": 0.4409448818897638,
                    "duration": 0.09933775000000011
                },
                {
                    "name": "B4",
                    "midi": 71,
                    "time": 30.794702500000014,
                    "velocity": 0.4409448818897638,
                    "duration": 0.09933775000000011
                },
                {
                    "name": "D5",
                    "midi": 74,
                    "time": 30.794702500000014,
                    "velocity": 0.4409448818897638,
                    "duration": 0.09933775000000011
                },
                {
                    "name": "C5",
                    "midi": 72,
                    "time": 30.993378000000014,
                    "velocity": 0.5196850393700787,
                    "duration": 0.09933775000000011
                },
                {
                    "name": "E5",
                    "midi": 76,
                    "time": 30.993378000000014,
                    "velocity": 0.5196850393700787,
                    "duration": 0.09933775000000011
                },
                {
                    "name": "C5",
                    "midi": 72,
                    "time": 31.192053500000014,
                    "velocity": 0.44881889763779526,
                    "duration": 0.09933775000000011
                },
                {
                    "name": "E5",
                    "midi": 76,
                    "time": 31.192053500000014,
                    "velocity": 0.44881889763779526,
                    "duration": 0.09933775000000011
                },
                {
                    "name": "F5",
                    "midi": 77,
                    "time": 31.390729000000015,
                    "velocity": 0.5039370078740157,
                    "duration": 0.09933775000000011
                },
                {
                    "name": "E5",
                    "midi": 76,
                    "time": 31.490066750000015,
                    "velocity": 0.44881889763779526,
                    "duration": 0.09933775000000011
                },
                {
                    "name": "D5",
                    "midi": 74,
                    "time": 31.589404500000015,
                    "velocity": 0.44881889763779526,
                    "duration": 0.09933775000000011
                },
                {
                    "name": "C5",
                    "midi": 72,
                    "time": 31.688742250000015,
                    "velocity": 0.44881889763779526,
                    "duration": 0.09933775000000011
                },
                {
                    "name": "B4",
                    "midi": 71,
                    "time": 31.788080000000015,
                    "velocity": 0.5118110236220472,
                    "duration": 0.39735100000000045
                },
                {
                    "name": "G#4",
                    "midi": 68,
                    "time": 31.788080000000015,
                    "velocity": 0.5118110236220472,
                    "duration": 0.39735100000000045
                },
                {
                    "name": "B4",
                    "midi": 71,
                    "time": 32.185431000000015,
                    "velocity": 0.4409448818897638,
                    "duration": 0.09933774999999656
                },
                {
                    "name": "A4",
                    "midi": 69,
                    "time": 32.28476875000001,
                    "velocity": 0.4409448818897638,
                    "duration": 0.09933774999999656
                },
                {
                    "name": "G#4",
                    "midi": 68,
                    "time": 32.38410650000001,
                    "velocity": 0.4409448818897638,
                    "duration": 0.09933774999999656
                },
                {
                    "name": "A4",
                    "midi": 69,
                    "time": 32.483444250000005,
                    "velocity": 0.4409448818897638,
                    "duration": 0.09933774999999656
                },
                {
                    "name": "C5",
                    "midi": 72,
                    "time": 32.582782,
                    "velocity": 0.4645669291338583,
                    "duration": 0.09933774999999656
                },
                {
                    "name": "D5",
                    "midi": 74,
                    "time": 32.980132999999995,
                    "velocity": 0.4881889763779528,
                    "duration": 0.09933774999999656
                },
                {
                    "name": "C5",
                    "midi": 72,
                    "time": 33.07947074999999,
                    "velocity": 0.44881889763779526,
                    "duration": 0.09933774999999656
                },
                {
                    "name": "B4",
                    "midi": 71,
                    "time": 33.17880849999999,
                    "velocity": 0.44881889763779526,
                    "duration": 0.09933774999999656
                },
                {
                    "name": "C5",
                    "midi": 72,
                    "time": 33.278146249999985,
                    "velocity": 0.44881889763779526,
                    "duration": 0.09933774999999656
                },
                {
                    "name": "E5",
                    "midi": 76,
                    "time": 33.37748399999998,
                    "velocity": 0.5196850393700787,
                    "duration": 0.09933774999999656
                },
                {
                    "name": "F5",
                    "midi": 77,
                    "time": 33.774834999999975,
                    "velocity": 0.49606299212598426,
                    "duration": 0.09933774999999656
                },
                {
                    "name": "E5",
                    "midi": 76,
                    "time": 33.87417274999997,
                    "velocity": 0.4566929133858268,
                    "duration": 0.09933774999999656
                },
                {
                    "name": "D#5",
                    "midi": 75,
                    "time": 33.97351049999997,
                    "velocity": 0.4566929133858268,
                    "duration": 0.09933774999999656
                },
                {
                    "name": "E5",
                    "midi": 76,
                    "time": 34.072848249999964,
                    "velocity": 0.4566929133858268,
                    "duration": 0.09933774999999656
                },
                {
                    "name": "B5",
                    "midi": 83,
                    "time": 34.17218599999996,
                    "velocity": 0.5511811023622047,
                    "duration": 0.09933774999999656
                },
                {
                    "name": "A5",
                    "midi": 81,
                    "time": 34.27152374999996,
                    "velocity": 0.49606299212598426,
                    "duration": 0.09933774999999656
                },
                {
                    "name": "G#5",
                    "midi": 80,
                    "time": 34.370861499999954,
                    "velocity": 0.49606299212598426,
                    "duration": 0.09933774999999656
                },
                {
                    "name": "A5",
                    "midi": 81,
                    "time": 34.47019924999995,
                    "velocity": 0.49606299212598426,
                    "duration": 0.09933774999999656
                },
                {
                    "name": "B5",
                    "midi": 83,
                    "time": 34.56953699999995,
                    "velocity": 0.5590551181102362,
                    "duration": 0.09933774999999656
                },
                {
                    "name": "A5",
                    "midi": 81,
                    "time": 34.668874749999944,
                    "velocity": 0.5039370078740157,
                    "duration": 0.09933774999999656
                },
                {
                    "name": "G#5",
                    "midi": 80,
                    "time": 34.76821249999994,
                    "velocity": 0.5039370078740157,
                    "duration": 0.09933774999999656
                },
                {
                    "name": "A5",
                    "midi": 81,
                    "time": 34.86755024999994,
                    "velocity": 0.5039370078740157,
                    "duration": 0.09933774999999656
                },
                {
                    "name": "C6",
                    "midi": 84,
                    "time": 34.96688799999993,
                    "velocity": 0.5984251968503937,
                    "duration": 0.39735100000000045
                },
                {
                    "name": "A5",
                    "midi": 81,
                    "time": 35.364238999999934,
                    "velocity": 0.4881889763779528,
                    "duration": 0.09933774999999656
                },
                {
                    "name": "B5",
                    "midi": 83,
                    "time": 35.56291449999993,
                    "velocity": 0.4881889763779528,
                    "duration": 0.09933774999999656
                },
                {
                    "name": "C6",
                    "midi": 84,
                    "time": 35.76158999999992,
                    "velocity": 0.5511811023622047,
                    "duration": 0.09933774999999656
                },
                {
                    "name": "B5",
                    "midi": 83,
                    "time": 35.96026549999991,
                    "velocity": 0.4881889763779528,
                    "duration": 0.09933774999999656
                },
                {
                    "name": "A5",
                    "midi": 81,
                    "time": 36.158940999999906,
                    "velocity": 0.4881889763779528,
                    "duration": 0.09933774999999656
                },
                {
                    "name": "G#5",
                    "midi": 80,
                    "time": 36.3576164999999,
                    "velocity": 0.4881889763779528,
                    "duration": 0.09933774999999656
                },
                {
                    "name": "A5",
                    "midi": 81,
                    "time": 36.55629199999989,
                    "velocity": 0.5590551181102362,
                    "duration": 0.09933774999999656
                },
                {
                    "name": "E5",
                    "midi": 76,
                    "time": 36.754967499999886,
                    "velocity": 0.5039370078740157,
                    "duration": 0.09933774999999656
                },
                {
                    "name": "F5",
                    "midi": 77,
                    "time": 36.95695425833321,
                    "velocity": 0.5039370078740157,
                    "duration": 0.09933774999999656
                },
                {
                    "name": "D5",
                    "midi": 74,
                    "time": 37.15231849999988,
                    "velocity": 0.5039370078740157,
                    "duration": 0.09933774999999656
                },
                {
                    "name": "C5",
                    "midi": 72,
                    "time": 37.35099399999987,
                    "velocity": 0.5826771653543307,
                    "duration": 0.39735100000000045
                },
                {
                    "name": "B4",
                    "midi": 71,
                    "time": 37.74834499999987,
                    "velocity": 0.5039370078740157,
                    "duration": 0.04966887500000183
                },
                {
                    "name": "C5",
                    "midi": 72,
                    "time": 37.798013874999874,
                    "velocity": 0.44881889763779526,
                    "duration": 0.04966887500000183
                },
                {
                    "name": "B4",
                    "midi": 71,
                    "time": 37.847682749999876,
                    "velocity": 0.44881889763779526,
                    "duration": 0.04966887500000183
                },
                {
                    "name": "C5",
                    "midi": 72,
                    "time": 37.89735162499988,
                    "velocity": 0.44881889763779526,
                    "duration": 0.04966887500000183
                },
                {
                    "name": "B4",
                    "midi": 71,
                    "time": 37.94702049999988,
                    "velocity": 0.44881889763779526,
                    "duration": 0.0033112583333334555
                },
                {
                    "name": "C5",
                    "midi": 72,
                    "time": 37.980133083333214,
                    "velocity": 0.44881889763779526,
                    "duration": 0.033112583333334555
                },
                {
                    "name": "B4",
                    "midi": 71,
                    "time": 38.01324566666655,
                    "velocity": 0.44881889763779526,
                    "duration": 0.033112583333334555
                },
                {
                    "name": "A4",
                    "midi": 69,
                    "time": 38.046358249999884,
                    "velocity": 0.5039370078740157,
                    "duration": 0.04966887500000183
                },
                {
                    "name": "B4",
                    "midi": 71,
                    "time": 38.096027124999885,
                    "velocity": 0.44881889763779526,
                    "duration": 0.04966887500000183
                },
                {
                    "name": "A4",
                    "midi": 69,
                    "time": 38.14569599999989,
                    "velocity": 0.5118110236220472,
                    "duration": 0.3725165625000031
                },
                {
                    "name": "A4",
                    "midi": 69,
                    "time": 38.54304699999989,
                    "velocity": 0.5748031496062992,
                    "duration": 0.09933774999999656
                },
                {
                    "name": "A5",
                    "midi": 81,
                    "time": 38.54304699999989,
                    "velocity": 0.6614173228346457,
                    "duration": 0.09933774999999656
                },
                {
                    "name": "B4",
                    "midi": 71,
                    "time": 38.74172249999988,
                    "velocity": 0.5748031496062992,
                    "duration": 0.09933774999999656
                },
                {
                    "name": "B5",
                    "midi": 83,
                    "time": 38.74172249999988,
                    "velocity": 0.6614173228346457,
                    "duration": 0.09933774999999656
                },
                {
                    "name": "C#5",
                    "midi": 73,
                    "time": 38.940397999999874,
                    "velocity": 0.6141732283464567,
                    "duration": 0.39735100000000045
                },
                {
                    "name": "C#6",
                    "midi": 85,
                    "time": 38.940397999999874,
                    "velocity": 0.7086614173228346,
                    "duration": 0.39735100000000045
                },
                {
                    "name": "A4",
                    "midi": 69,
                    "time": 39.337748999999874,
                    "velocity": 0.5748031496062992,
                    "duration": 0.09933774999999656
                },
                {
                    "name": "A5",
                    "midi": 81,
                    "time": 39.337748999999874,
                    "velocity": 0.6614173228346457,
                    "duration": 0.09933774999999656
                },
                {
                    "name": "B4",
                    "midi": 71,
                    "time": 39.53642449999987,
                    "velocity": 0.5748031496062992,
                    "duration": 0.09933774999999656
                },
                {
                    "name": "B5",
                    "midi": 83,
                    "time": 39.53642449999987,
                    "velocity": 0.6614173228346457,
                    "duration": 0.09933774999999656
                },
                {
                    "name": "C#5",
                    "midi": 73,
                    "time": 39.73509999999986,
                    "velocity": 0.6220472440944882,
                    "duration": 0.09933774999999656
                },
                {
                    "name": "C#6",
                    "midi": 85,
                    "time": 39.73509999999986,
                    "velocity": 0.7165354330708661,
                    "duration": 0.09933774999999656
                },
                {
                    "name": "B4",
                    "midi": 71,
                    "time": 39.933775499999854,
                    "velocity": 0.5669291338582677,
                    "duration": 0.09933774999999656
                },
                {
                    "name": "B5",
                    "midi": 83,
                    "time": 39.933775499999854,
                    "velocity": 0.6456692913385826,
                    "duration": 0.09933774999999656
                },
                {
                    "name": "A4",
                    "midi": 69,
                    "time": 40.13245099999985,
                    "velocity": 0.6062992125984252,
                    "duration": 0.09933774999999656
                },
                {
                    "name": "A5",
                    "midi": 81,
                    "time": 40.13245099999985,
                    "velocity": 0.7007874015748031,
                    "duration": 0.09933774999999656
                },
                {
                    "name": "G#4",
                    "midi": 68,
                    "time": 40.33112649999984,
                    "velocity": 0.5748031496062992,
                    "duration": 0.09933774999999656
                },
                {
                    "name": "G#5",
                    "midi": 80,
                    "time": 40.33112649999984,
                    "velocity": 0.6614173228346457,
                    "duration": 0.09933774999999656
                },
                {
                    "name": "F#4",
                    "midi": 66,
                    "time": 40.52980199999983,
                    "velocity": 0.6299212598425197,
                    "duration": 0.09933774999999656
                },
                {
                    "name": "F#5",
                    "midi": 78,
                    "time": 40.52980199999983,
                    "velocity": 0.7244094488188977,
                    "duration": 0.09933774999999656
                },
                {
                    "name": "G#4",
                    "midi": 68,
                    "time": 40.728477499999826,
                    "velocity": 0.5433070866141733,
                    "duration": 0.09933774999999656
                },
                {
                    "name": "G#5",
                    "midi": 80,
                    "time": 40.728477499999826,
                    "velocity": 0.6141732283464567,
                    "duration": 0.09933774999999656
                },
                {
                    "name": "A4",
                    "midi": 69,
                    "time": 40.92715299999982,
                    "velocity": 0.5905511811023622,
                    "duration": 0.09933774999999656
                },
                {
                    "name": "A5",
                    "midi": 81,
                    "time": 40.92715299999982,
                    "velocity": 0.6771653543307087,
                    "duration": 0.09933774999999656
                },
                {
                    "name": "B4",
                    "midi": 71,
                    "time": 41.12582849999981,
                    "velocity": 0.5511811023622047,
                    "duration": 0.09933774999999656
                },
                {
                    "name": "B5",
                    "midi": 83,
                    "time": 41.12582849999981,
                    "velocity": 0.6299212598425197,
                    "duration": 0.09933774999999656
                },
                {
                    "name": "G#4",
                    "midi": 68,
                    "time": 41.324503999999806,
                    "velocity": 0.6141732283464567,
                    "duration": 0.19867550000000023
                },
                {
                    "name": "G#5",
                    "midi": 80,
                    "time": 41.324503999999806,
                    "velocity": 0.7086614173228346,
                    "duration": 0.19867550000000023
                },
                {
                    "name": "E4",
                    "midi": 64,
                    "time": 41.523179499999806,
                    "velocity": 0.5748031496062992,
                    "duration": 0.09933774999999656
                },
                {
                    "name": "E5",
                    "midi": 76,
                    "time": 41.523179499999806,
                    "velocity": 0.6614173228346457,
                    "duration": 0.09933774999999656
                },
                {
                    "name": "A4",
                    "midi": 69,
                    "time": 41.7218549999998,
                    "velocity": 0.5748031496062992,
                    "duration": 0.09933774999999656
                },
                {
                    "name": "A5",
                    "midi": 81,
                    "time": 41.7218549999998,
                    "velocity": 0.6614173228346457,
                    "duration": 0.09933774999999656
                },
                {
                    "name": "B4",
                    "midi": 71,
                    "time": 41.92053049999979,
                    "velocity": 0.5748031496062992,
                    "duration": 0.09933774999999656
                },
                {
                    "name": "B5",
                    "midi": 83,
                    "time": 41.92053049999979,
                    "velocity": 0.6614173228346457,
                    "duration": 0.09933774999999656
                },
                {
                    "name": "C#5",
                    "midi": 73,
                    "time": 42.119205999999785,
                    "velocity": 0.6141732283464567,
                    "duration": 0.39735100000000045
                },
                {
                    "name": "C#6",
                    "midi": 85,
                    "time": 42.119205999999785,
                    "velocity": 0.7086614173228346,
                    "duration": 0.39735100000000045
                },
                {
                    "name": "A4",
                    "midi": 69,
                    "time": 42.516556999999786,
                    "velocity": 0.5748031496062992,
                    "duration": 0.09933774999999656
                },
                {
                    "name": "A5",
                    "midi": 81,
                    "time": 42.516556999999786,
                    "velocity": 0.6614173228346457,
                    "duration": 0.09933774999999656
                },
                {
                    "name": "B4",
                    "midi": 71,
                    "time": 42.71523249999978,
                    "velocity": 0.5748031496062992,
                    "duration": 0.09933774999999656
                },
                {
                    "name": "B5",
                    "midi": 83,
                    "time": 42.71523249999978,
                    "velocity": 0.6614173228346457,
                    "duration": 0.09933774999999656
                },
                {
                    "name": "C#5",
                    "midi": 73,
                    "time": 42.91390799999977,
                    "velocity": 0.6220472440944882,
                    "duration": 0.09933774999999656
                },
                {
                    "name": "C#6",
                    "midi": 85,
                    "time": 42.91390799999977,
                    "velocity": 0.7165354330708661,
                    "duration": 0.09933774999999656
                },
                {
                    "name": "B4",
                    "midi": 71,
                    "time": 43.112583499999765,
                    "velocity": 0.5669291338582677,
                    "duration": 0.09933774999999656
                },
                {
                    "name": "B5",
                    "midi": 83,
                    "time": 43.112583499999765,
                    "velocity": 0.6456692913385826,
                    "duration": 0.09933774999999656
                },
                {
                    "name": "A4",
                    "midi": 69,
                    "time": 43.31125899999976,
                    "velocity": 0.6062992125984252,
                    "duration": 0.09933774999999656
                },
                {
                    "name": "A5",
                    "midi": 81,
                    "time": 43.31125899999976,
                    "velocity": 0.7007874015748031,
                    "duration": 0.09933774999999656
                },
                {
                    "name": "G#4",
                    "midi": 68,
                    "time": 43.50993449999975,
                    "velocity": 0.5748031496062992,
                    "duration": 0.09933774999999656
                },
                {
                    "name": "G#5",
                    "midi": 80,
                    "time": 43.50993449999975,
                    "velocity": 0.6614173228346457,
                    "duration": 0.09933774999999656
                },
                {
                    "name": "F#4",
                    "midi": 66,
                    "time": 43.708609999999744,
                    "velocity": 0.6299212598425197,
                    "duration": 0.09933774999999656
                },
                {
                    "name": "F#5",
                    "midi": 78,
                    "time": 43.708609999999744,
                    "velocity": 0.7244094488188977,
                    "duration": 0.09933774999999656
                },
                {
                    "name": "B4",
                    "midi": 71,
                    "time": 43.90728549999974,
                    "velocity": 0.5433070866141733,
                    "duration": 0.09933774999999656
                },
                {
                    "name": "B5",
                    "midi": 83,
                    "time": 43.90728549999974,
                    "velocity": 0.6141732283464567,
                    "duration": 0.09933774999999656
                },
                {
                    "name": "G#4",
                    "midi": 68,
                    "time": 44.10596099999973,
                    "velocity": 0.5905511811023622,
                    "duration": 0.09933774999999656
                },
                {
                    "name": "G#5",
                    "midi": 80,
                    "time": 44.10596099999973,
                    "velocity": 0.6771653543307087,
                    "duration": 0.09933774999999656
                },
                {
                    "name": "E4",
                    "midi": 64,
                    "time": 44.304636499999724,
                    "velocity": 0.5511811023622047,
                    "duration": 0.09933774999999656
                },
                {
                    "name": "E5",
                    "midi": 76,
                    "time": 44.304636499999724,
                    "velocity": 0.6299212598425197,
                    "duration": 0.09933774999999656
                },
                {
                    "name": "A4",
                    "midi": 69,
                    "time": 44.50331199999972,
                    "velocity": 0.6141732283464567,
                    "duration": 0.3725165625000031
                },
                {
                    "name": "A5",
                    "midi": 81,
                    "time": 44.50331199999972,
                    "velocity": 0.7086614173228346,
                    "duration": 0.3725165625000031
                },
                {
                    "name": "A4",
                    "midi": 69,
                    "time": 44.90066299999972,
                    "velocity": 0.5748031496062992,
                    "duration": 0.09933774999999656
                },
                {
                    "name": "A5",
                    "midi": 81,
                    "time": 44.90066299999972,
                    "velocity": 0.6614173228346457,
                    "duration": 0.09933774999999656
                },
                {
                    "name": "B4",
                    "midi": 71,
                    "time": 45.09933849999971,
                    "velocity": 0.5748031496062992,
                    "duration": 0.09933774999999656
                },
                {
                    "name": "B5",
                    "midi": 83,
                    "time": 45.09933849999971,
                    "velocity": 0.6614173228346457,
                    "duration": 0.09933774999999656
                },
                {
                    "name": "C#5",
                    "midi": 73,
                    "time": 45.298013999999704,
                    "velocity": 0.6141732283464567,
                    "duration": 0.39735100000000045
                },
                {
                    "name": "C#6",
                    "midi": 85,
                    "time": 45.298013999999704,
                    "velocity": 0.7086614173228346,
                    "duration": 0.39735100000000045
                },
                {
                    "name": "A4",
                    "midi": 69,
                    "time": 45.695364999999704,
                    "velocity": 0.5748031496062992,
                    "duration": 0.09933774999999656
                },
                {
                    "name": "A5",
                    "midi": 81,
                    "time": 45.695364999999704,
                    "velocity": 0.6614173228346457,
                    "duration": 0.09933774999999656
                },
                {
                    "name": "B4",
                    "midi": 71,
                    "time": 45.8940404999997,
                    "velocity": 0.5748031496062992,
                    "duration": 0.09933774999999656
                },
                {
                    "name": "B5",
                    "midi": 83,
                    "time": 45.8940404999997,
                    "velocity": 0.6614173228346457,
                    "duration": 0.09933774999999656
                },
                {
                    "name": "C#5",
                    "midi": 73,
                    "time": 46.09271599999969,
                    "velocity": 0.6220472440944882,
                    "duration": 0.09933774999999656
                },
                {
                    "name": "C#6",
                    "midi": 85,
                    "time": 46.09271599999969,
                    "velocity": 0.7165354330708661,
                    "duration": 0.09933774999999656
                },
                {
                    "name": "B4",
                    "midi": 71,
                    "time": 46.29139149999968,
                    "velocity": 0.5669291338582677,
                    "duration": 0.09933774999999656
                },
                {
                    "name": "B5",
                    "midi": 83,
                    "time": 46.29139149999968,
                    "velocity": 0.6456692913385826,
                    "duration": 0.09933774999999656
                },
                {
                    "name": "A4",
                    "midi": 69,
                    "time": 46.49006699999968,
                    "velocity": 0.6062992125984252,
                    "duration": 0.09933774999999656
                },
                {
                    "name": "A5",
                    "midi": 81,
                    "time": 46.49006699999968,
                    "velocity": 0.7007874015748031,
                    "duration": 0.09933774999999656
                },
                {
                    "name": "G#4",
                    "midi": 68,
                    "time": 46.68874249999967,
                    "velocity": 0.5748031496062992,
                    "duration": 0.09933774999999656
                },
                {
                    "name": "G#5",
                    "midi": 80,
                    "time": 46.68874249999967,
                    "velocity": 0.6614173228346457,
                    "duration": 0.09933774999999656
                },
                {
                    "name": "F#4",
                    "midi": 66,
                    "time": 46.88741799999966,
                    "velocity": 0.6299212598425197,
                    "duration": 0.09933774999999656
                },
                {
                    "name": "F#5",
                    "midi": 78,
                    "time": 46.88741799999966,
                    "velocity": 0.7244094488188977,
                    "duration": 0.09933774999999656
                },
                {
                    "name": "G#4",
                    "midi": 68,
                    "time": 47.086093499999656,
                    "velocity": 0.5433070866141733,
                    "duration": 0.09933774999999656
                },
                {
                    "name": "G#5",
                    "midi": 80,
                    "time": 47.086093499999656,
                    "velocity": 0.6141732283464567,
                    "duration": 0.09933774999999656
                },
                {
                    "name": "A4",
                    "midi": 69,
                    "time": 47.28476899999965,
                    "velocity": 0.5905511811023622,
                    "duration": 0.09933774999999656
                },
                {
                    "name": "A5",
                    "midi": 81,
                    "time": 47.28476899999965,
                    "velocity": 0.6771653543307087,
                    "duration": 0.09933774999999656
                },
                {
                    "name": "B4",
                    "midi": 71,
                    "time": 47.48344449999964,
                    "velocity": 0.5511811023622047,
                    "duration": 0.09933774999999656
                },
                {
                    "name": "B5",
                    "midi": 83,
                    "time": 47.48344449999964,
                    "velocity": 0.6299212598425197,
                    "duration": 0.09933774999999656
                },
                {
                    "name": "G#4",
                    "midi": 68,
                    "time": 47.682119999999635,
                    "velocity": 0.6141732283464567,
                    "duration": 0.19867550000000023
                },
                {
                    "name": "G#5",
                    "midi": 80,
                    "time": 47.682119999999635,
                    "velocity": 0.7086614173228346,
                    "duration": 0.19867550000000023
                },
                {
                    "name": "E4",
                    "midi": 64,
                    "time": 47.880795499999635,
                    "velocity": 0.5748031496062992,
                    "duration": 0.09933774999999656
                },
                {
                    "name": "E5",
                    "midi": 76,
                    "time": 47.880795499999635,
                    "velocity": 0.6614173228346457,
                    "duration": 0.09933774999999656
                },
                {
                    "name": "A4",
                    "midi": 69,
                    "time": 48.07947099999963,
                    "velocity": 0.5748031496062992,
                    "duration": 0.09933774999999656
                },
                {
                    "name": "A5",
                    "midi": 81,
                    "time": 48.07947099999963,
                    "velocity": 0.6614173228346457,
                    "duration": 0.09933774999999656
                },
                {
                    "name": "B4",
                    "midi": 71,
                    "time": 48.27814649999962,
                    "velocity": 0.5748031496062992,
                    "duration": 0.09933774999999656
                },
                {
                    "name": "B5",
                    "midi": 83,
                    "time": 48.27814649999962,
                    "velocity": 0.6614173228346457,
                    "duration": 0.09933774999999656
                },
                {
                    "name": "C#5",
                    "midi": 73,
                    "time": 48.476821999999615,
                    "velocity": 0.6141732283464567,
                    "duration": 0.39735100000000045
                },
                {
                    "name": "C#6",
                    "midi": 85,
                    "time": 48.476821999999615,
                    "velocity": 0.7086614173228346,
                    "duration": 0.39735100000000045
                },
                {
                    "name": "A4",
                    "midi": 69,
                    "time": 48.874172999999615,
                    "velocity": 0.5748031496062992,
                    "duration": 0.09933774999999656
                },
                {
                    "name": "A5",
                    "midi": 81,
                    "time": 48.874172999999615,
                    "velocity": 0.6614173228346457,
                    "duration": 0.09933774999999656
                },
                {
                    "name": "B4",
                    "midi": 71,
                    "time": 49.07284849999961,
                    "velocity": 0.5748031496062992,
                    "duration": 0.09933774999999656
                },
                {
                    "name": "B5",
                    "midi": 83,
                    "time": 49.07284849999961,
                    "velocity": 0.6614173228346457,
                    "duration": 0.09933774999999656
                },
                {
                    "name": "C#5",
                    "midi": 73,
                    "time": 49.2715239999996,
                    "velocity": 0.6220472440944882,
                    "duration": 0.09933774999999656
                },
                {
                    "name": "C#6",
                    "midi": 85,
                    "time": 49.2715239999996,
                    "velocity": 0.7165354330708661,
                    "duration": 0.09933774999999656
                },
                {
                    "name": "B4",
                    "midi": 71,
                    "time": 49.470199499999595,
                    "velocity": 0.5669291338582677,
                    "duration": 0.09933774999999656
                },
                {
                    "name": "B5",
                    "midi": 83,
                    "time": 49.470199499999595,
                    "velocity": 0.6456692913385826,
                    "duration": 0.09933774999999656
                },
                {
                    "name": "A4",
                    "midi": 69,
                    "time": 49.66887499999959,
                    "velocity": 0.6062992125984252,
                    "duration": 0.09933774999999656
                },
                {
                    "name": "A5",
                    "midi": 81,
                    "time": 49.66887499999959,
                    "velocity": 0.7007874015748031,
                    "duration": 0.09933774999999656
                },
                {
                    "name": "G#4",
                    "midi": 68,
                    "time": 49.86755049999958,
                    "velocity": 0.5748031496062992,
                    "duration": 0.09933774999999656
                },
                {
                    "name": "G#5",
                    "midi": 80,
                    "time": 49.86755049999958,
                    "velocity": 0.6614173228346457,
                    "duration": 0.09933774999999656
                },
                {
                    "name": "F#4",
                    "midi": 66,
                    "time": 50.066225999999574,
                    "velocity": 0.6299212598425197,
                    "duration": 0.09933774999999656
                },
                {
                    "name": "F#5",
                    "midi": 78,
                    "time": 50.066225999999574,
                    "velocity": 0.7244094488188977,
                    "duration": 0.09933774999999656
                },
                {
                    "name": "B4",
                    "midi": 71,
                    "time": 50.26490149999957,
                    "velocity": 0.5433070866141733,
                    "duration": 0.09933774999999656
                },
                {
                    "name": "B5",
                    "midi": 83,
                    "time": 50.26490149999957,
                    "velocity": 0.6141732283464567,
                    "duration": 0.09933774999999656
                },
                {
                    "name": "G#4",
                    "midi": 68,
                    "time": 50.46357699999956,
                    "velocity": 0.5905511811023622,
                    "duration": 0.09933774999999656
                },
                {
                    "name": "G#5",
                    "midi": 80,
                    "time": 50.46357699999956,
                    "velocity": 0.6771653543307087,
                    "duration": 0.09933774999999656
                },
                {
                    "name": "E4",
                    "midi": 64,
                    "time": 50.66225249999955,
                    "velocity": 0.5511811023622047,
                    "duration": 0.09933774999999656
                },
                {
                    "name": "E5",
                    "midi": 76,
                    "time": 50.66225249999955,
                    "velocity": 0.6299212598425197,
                    "duration": 0.09933774999999656
                },
                {
                    "name": "A4",
                    "midi": 69,
                    "time": 50.86092799999955,
                    "velocity": 0.6141732283464567,
                    "duration": 0.3725165625000031
                },
                {
                    "name": "A5",
                    "midi": 81,
                    "time": 50.86092799999955,
                    "velocity": 0.7086614173228346,
                    "duration": 0.3725165625000031
                },
                {
                    "name": "C#6",
                    "midi": 85,
                    "time": 51.25827899999955,
                    "velocity": 0.47244094488188976,
                    "duration": 0.10927152499999693
                },
                {
                    "name": "D6",
                    "midi": 86,
                    "time": 51.35761674999954,
                    "velocity": 0.4094488188976378,
                    "duration": 0.10927152500000403
                },
                {
                    "name": "C#6",
                    "midi": 85,
                    "time": 51.45695449999955,
                    "velocity": 0.4094488188976378,
                    "duration": 0.10927152500000403
                },
                {
                    "name": "B5",
                    "midi": 83,
                    "time": 51.55629224999955,
                    "velocity": 0.4094488188976378,
                    "duration": 0.10927152500000403
                },
                {
                    "name": "A5",
                    "midi": 81,
                    "time": 51.655629999999555,
                    "velocity": 0.4566929133858268,
                    "duration": 0.10927152500000403
                },
                {
                    "name": "B5",
                    "midi": 83,
                    "time": 51.75496774999956,
                    "velocity": 0.3937007874015748,
                    "duration": 0.10927152500000403
                },
                {
                    "name": "A5",
                    "midi": 81,
                    "time": 51.85430549999956,
                    "velocity": 0.3937007874015748,
                    "duration": 0.10927152500000403
                },
                {
                    "name": "G#5",
                    "midi": 80,
                    "time": 51.953643249999566,
                    "velocity": 0.3937007874015748,
                    "duration": 0.10927152500000403
                },
                {
                    "name": "F#5",
                    "midi": 78,
                    "time": 52.05298099999957,
                    "velocity": 0.4409448818897638,
                    "duration": 0.10927152500000403
                },
                {
                    "name": "A5",
                    "midi": 81,
                    "time": 52.15231874999957,
                    "velocity": 0.3937007874015748,
                    "duration": 0.10927152500000403
                },
                {
                    "name": "G#5",
                    "midi": 80,
                    "time": 52.25165649999958,
                    "velocity": 0.36220472440944884,
                    "duration": 0.10927152500000403
                },
                {
                    "name": "F#5",
                    "midi": 78,
                    "time": 52.35099424999958,
                    "velocity": 0.36220472440944884,
                    "duration": 0.10927152500000403
                },
                {
                    "name": "F5",
                    "midi": 77,
                    "time": 52.450331999999584,
                    "velocity": 0.4566929133858268,
                    "duration": 0.10927152500000403
                },
                {
                    "name": "F#5",
                    "midi": 78,
                    "time": 52.54966974999959,
                    "velocity": 0.3700787401574803,
                    "duration": 0.10927152500000403
                },
                {
                    "name": "G#5",
                    "midi": 80,
                    "time": 52.64900749999959,
                    "velocity": 0.3858267716535433,
                    "duration": 0.10927152500000403
                },
                {
                    "name": "F5",
                    "midi": 77,
                    "time": 52.748345249999595,
                    "velocity": 0.36220472440944884,
                    "duration": 0.10927152500000403
                },
                {
                    "name": "C#5",
                    "midi": 73,
                    "time": 52.8476829999996,
                    "velocity": 0.4409448818897638,
                    "duration": 0.10927152500000403
                },
                {
                    "name": "D#5",
                    "midi": 75,
                    "time": 52.9470207499996,
                    "velocity": 0.3700787401574803,
                    "duration": 0.10927152500000403
                },
                {
                    "name": "F5",
                    "midi": 77,
                    "time": 53.046358499999606,
                    "velocity": 0.3937007874015748,
                    "duration": 0.10927152500000403
                },
                {
                    "name": "C#5",
                    "midi": 73,
                    "time": 53.14569624999961,
                    "velocity": 0.3700787401574803,
                    "duration": 0.10927152500000403
                },
                {
                    "name": "F#5",
                    "midi": 78,
                    "time": 53.24503399999961,
                    "velocity": 0.4409448818897638,
                    "duration": 0.10927152500000403
                },
                {
                    "name": "F5",
                    "midi": 77,
                    "time": 53.34437174999962,
                    "velocity": 0.3700787401574803,
                    "duration": 0.10927152500000403
                },
                {
                    "name": "F#5",
                    "midi": 78,
                    "time": 53.44370949999962,
                    "velocity": 0.4015748031496063,
                    "duration": 0.10927152500000403
                },
                {
                    "name": "G#5",
                    "midi": 80,
                    "time": 53.543047249999624,
                    "velocity": 0.3779527559055118,
                    "duration": 0.10927152500000403
                },
                {
                    "name": "A5",
                    "midi": 81,
                    "time": 53.64238499999963,
                    "velocity": 0.4566929133858268,
                    "duration": 0.10927152500000403
                },
                {
                    "name": "G#5",
                    "midi": 80,
                    "time": 53.74172274999963,
                    "velocity": 0.4251968503937008,
                    "duration": 0.10927152500000403
                },
                {
                    "name": "A5",
                    "midi": 81,
                    "time": 53.841060499999635,
                    "velocity": 0.4409448818897638,
                    "duration": 0.10927152500000403
                },
                {
                    "name": "B5",
                    "midi": 83,
                    "time": 53.94039824999964,
                    "velocity": 0.4645669291338583,
                    "duration": 0.10927152500000403
                },
                {
                    "name": "C#6",
                    "midi": 85,
                    "time": 54.03973599999964,
                    "velocity": 0.5354330708661418,
                    "duration": 0.10927152500000403
                },
                {
                    "name": "C6",
                    "midi": 84,
                    "time": 54.139073749999646,
                    "velocity": 0.4881889763779528,
                    "duration": 0.10927152500000403
                },
                {
                    "name": "C#6",
                    "midi": 85,
                    "time": 54.23841149999965,
                    "velocity": 0.5196850393700787,
                    "duration": 0.10927152500000403
                },
                {
                    "name": "C6",
                    "midi": 84,
                    "time": 54.33774924999965,
                    "velocity": 0.4645669291338583,
                    "duration": 0.09933775000000367
                },
                {
                    "name": "C#6",
                    "midi": 85,
                    "time": 54.43708699999966,
                    "velocity": 0.48031496062992124,
                    "duration": 0.10927152499999693
                },
                {
                    "name": "D6",
                    "midi": 86,
                    "time": 54.536424749999654,
                    "velocity": 0.4330708661417323,
                    "duration": 0.10927152500000403
                },
                {
                    "name": "C#6",
                    "midi": 85,
                    "time": 54.63576249999966,
                    "velocity": 0.4330708661417323,
                    "duration": 0.10927152500000403
                },
                {
                    "name": "B5",
                    "midi": 83,
                    "time": 54.73510024999966,
                    "velocity": 0.4330708661417323,
                    "duration": 0.10927152500000403
                },
                {
                    "name": "A5",
                    "midi": 81,
                    "time": 54.834437999999665,
                    "velocity": 0.4566929133858268,
                    "duration": 0.10927152500000403
                },
                {
                    "name": "B5",
                    "midi": 83,
                    "time": 54.93377574999967,
                    "velocity": 0.3700787401574803,
                    "duration": 0.10927152500000403
                },
                {
                    "name": "A5",
                    "midi": 81,
                    "time": 55.03311349999967,
                    "velocity": 0.41732283464566927,
                    "duration": 0.10927152500000403
                },
                {
                    "name": "G#5",
                    "midi": 80,
                    "time": 55.132451249999676,
                    "velocity": 0.3700787401574803,
                    "duration": 0.10927152500000403
                },
                {
                    "name": "F#5",
                    "midi": 78,
                    "time": 55.23178899999968,
                    "velocity": 0.4251968503937008,
                    "duration": 0.10927152500000403
                },
                {
                    "name": "A5",
                    "midi": 81,
                    "time": 55.33112674999968,
                    "velocity": 0.3700787401574803,
                    "duration": 0.10927152500000403
                },
                {
                    "name": "G#5",
                    "midi": 80,
                    "time": 55.43046449999969,
                    "velocity": 0.3937007874015748,
                    "duration": 0.10927152500000403
                },
                {
                    "name": "F#5",
                    "midi": 78,
                    "time": 55.52980224999969,
                    "velocity": 0.36220472440944884,
                    "duration": 0.10927152500000403
                },
                {
                    "name": "E5",
                    "midi": 76,
                    "time": 55.629139999999694,
                    "velocity": 0.4409448818897638,
                    "duration": 0.10927152500000403
                },
                {
                    "name": "F#5",
                    "midi": 78,
                    "time": 55.7284777499997,
                    "velocity": 0.3700787401574803,
                    "duration": 0.10927152500000403
                },
                {
                    "name": "G#5",
                    "midi": 80,
                    "time": 55.8278154999997,
                    "velocity": 0.3937007874015748,
                    "duration": 0.10927152500000403
                },
                {
                    "name": "E5",
                    "midi": 76,
                    "time": 55.927153249999705,
                    "velocity": 0.3700787401574803,
                    "duration": 0.10927152500000403
                },
                {
                    "name": "C#5",
                    "midi": 73,
                    "time": 56.02649099999971,
                    "velocity": 0.4251968503937008,
                    "duration": 0.10927152500000403
                },
                {
                    "name": "D#5",
                    "midi": 75,
                    "time": 56.12582874999971,
                    "velocity": 0.3700787401574803,
                    "duration": 0.10927152500000403
                },
                {
                    "name": "E5",
                    "midi": 76,
                    "time": 56.225166499999716,
                    "velocity": 0.41732283464566927,
                    "duration": 0.10927152500000403
                },
                {
                    "name": "C#5",
                    "midi": 73,
                    "time": 56.32450424999972,
                    "velocity": 0.3700787401574803,
                    "duration": 0.10927152500000403
                },
                {
                    "name": "D#5",
                    "midi": 75,
                    "time": 56.42384199999972,
                    "velocity": 0.41732283464566927,
                    "duration": 0.10927152500000403
                },
                {
                    "name": "E5",
                    "midi": 76,
                    "time": 56.52317974999973,
                    "velocity": 0.3700787401574803,
                    "duration": 0.10927152500000403
                },
                {
                    "name": "F#5",
                    "midi": 78,
                    "time": 56.62251749999973,
                    "velocity": 0.4015748031496063,
                    "duration": 0.10927152500000403
                },
                {
                    "name": "D#5",
                    "midi": 75,
                    "time": 56.721855249999734,
                    "velocity": 0.3700787401574803,
                    "duration": 0.10927152500000403
                },
                {
                    "name": "C5",
                    "midi": 72,
                    "time": 56.82119299999974,
                    "velocity": 0.3937007874015748,
                    "duration": 0.10927152500000403
                },
                {
                    "name": "C#5",
                    "midi": 73,
                    "time": 56.92053074999974,
                    "velocity": 0.3700787401574803,
                    "duration": 0.10927152500000403
                },
                {
                    "name": "D#5",
                    "midi": 75,
                    "time": 57.019868499999745,
                    "velocity": 0.3937007874015748,
                    "duration": 0.10927152500000403
                },
                {
                    "name": "C5",
                    "midi": 72,
                    "time": 57.11920624999975,
                    "velocity": 0.36220472440944884,
                    "duration": 0.10927152500000403
                },
                {
                    "name": "C#5",
                    "midi": 73,
                    "time": 57.21854399999975,
                    "velocity": 0.4094488188976378,
                    "duration": 0.3725165625000031
                },
                {
                    "name": "C#6",
                    "midi": 85,
                    "time": 57.61589499999975,
                    "velocity": 0.47244094488188976,
                    "duration": 0.10927152499999693
                },
                {
                    "name": "D6",
                    "midi": 86,
                    "time": 57.71523274999975,
                    "velocity": 0.4094488188976378,
                    "duration": 0.10927152500000403
                },
                {
                    "name": "C#6",
                    "midi": 85,
                    "time": 57.81457049999975,
                    "velocity": 0.4094488188976378,
                    "duration": 0.10927152500000403
                },
                {
                    "name": "B5",
                    "midi": 83,
                    "time": 57.91390824999976,
                    "velocity": 0.4094488188976378,
                    "duration": 0.10927152500000403
                },
                {
                    "name": "A5",
                    "midi": 81,
                    "time": 58.01324599999976,
                    "velocity": 0.4566929133858268,
                    "duration": 0.10927152500000403
                },
                {
                    "name": "B5",
                    "midi": 83,
                    "time": 58.112583749999764,
                    "velocity": 0.3937007874015748,
                    "duration": 0.10927152500000403
                },
                {
                    "name": "A5",
                    "midi": 81,
                    "time": 58.21192149999977,
                    "velocity": 0.3937007874015748,
                    "duration": 0.10927152500000403
                },
                {
                    "name": "G#5",
                    "midi": 80,
                    "time": 58.31125924999977,
                    "velocity": 0.3937007874015748,
                    "duration": 0.10927152500000403
                },
                {
                    "name": "F#5",
                    "midi": 78,
                    "time": 58.410596999999775,
                    "velocity": 0.4409448818897638,
                    "duration": 0.10927152500000403
                },
                {
                    "name": "A5",
                    "midi": 81,
                    "time": 58.50993474999978,
                    "velocity": 0.3937007874015748,
                    "duration": 0.10927152500000403
                },
                {
                    "name": "G#5",
                    "midi": 80,
                    "time": 58.60927249999978,
                    "velocity": 0.36220472440944884,
                    "duration": 0.10927152500000403
                },
                {
                    "name": "F#5",
                    "midi": 78,
                    "time": 58.708610249999786,
                    "velocity": 0.36220472440944884,
                    "duration": 0.10927152500000403
                },
                {
                    "name": "F5",
                    "midi": 77,
                    "time": 58.80794799999979,
                    "velocity": 0.4566929133858268,
                    "duration": 0.10927152500000403
                },
                {
                    "name": "F#5",
                    "midi": 78,
                    "time": 58.907285749999794,
                    "velocity": 0.3700787401574803,
                    "duration": 0.10927152500000403
                },
                {
                    "name": "G#5",
                    "midi": 80,
                    "time": 59.0066234999998,
                    "velocity": 0.3858267716535433,
                    "duration": 0.10927152500000403
                },
                {
                    "name": "F5",
                    "midi": 77,
                    "time": 59.1059612499998,
                    "velocity": 0.36220472440944884,
                    "duration": 0.10927152500000403
                },
                {
                    "name": "C#5",
                    "midi": 73,
                    "time": 59.205298999999805,
                    "velocity": 0.4409448818897638,
                    "duration": 0.10927152500000403
                },
                {
                    "name": "D#5",
                    "midi": 75,
                    "time": 59.30463674999981,
                    "velocity": 0.3700787401574803,
                    "duration": 0.10927152500000403
                },
                {
                    "name": "F5",
                    "midi": 77,
                    "time": 59.40397449999981,
                    "velocity": 0.3937007874015748,
                    "duration": 0.10927152500000403
                },
                {
                    "name": "C#5",
                    "midi": 73,
                    "time": 59.503312249999816,
                    "velocity": 0.3700787401574803,
                    "duration": 0.10927152500000403
                },
                {
                    "name": "F#5",
                    "midi": 78,
                    "time": 59.60264999999982,
                    "velocity": 0.4409448818897638,
                    "duration": 0.10927152500000403
                },
                {
                    "name": "F5",
                    "midi": 77,
                    "time": 59.70198774999982,
                    "velocity": 0.3700787401574803,
                    "duration": 0.10927152500000403
                },
                {
                    "name": "F#5",
                    "midi": 78,
                    "time": 59.80132549999983,
                    "velocity": 0.4015748031496063,
                    "duration": 0.10927152500000403
                },
                {
                    "name": "G#5",
                    "midi": 80,
                    "time": 59.90066324999983,
                    "velocity": 0.3779527559055118,
                    "duration": 0.10927152500000403
                },
                {
                    "name": "A5",
                    "midi": 81,
                    "time": 60.000000999999834,
                    "velocity": 0.4566929133858268,
                    "duration": 0.10927152500000403
                },
                {
                    "name": "G#5",
                    "midi": 80,
                    "time": 60.09933874999984,
                    "velocity": 0.4251968503937008,
                    "duration": 0.10927152500000403
                },
                {
                    "name": "A5",
                    "midi": 81,
                    "time": 60.19867649999984,
                    "velocity": 0.4409448818897638,
                    "duration": 0.10927152500000403
                },
                {
                    "name": "B5",
                    "midi": 83,
                    "time": 60.298014249999845,
                    "velocity": 0.4645669291338583,
                    "duration": 0.10927152500000403
                },
                {
                    "name": "C#6",
                    "midi": 85,
                    "time": 60.39735199999985,
                    "velocity": 0.5354330708661418,
                    "duration": 0.10927152500000403
                },
                {
                    "name": "C6",
                    "midi": 84,
                    "time": 60.49668974999985,
                    "velocity": 0.4881889763779528,
                    "duration": 0.10927152500000403
                },
                {
                    "name": "C#6",
                    "midi": 85,
                    "time": 60.596027499999856,
                    "velocity": 0.5196850393700787,
                    "duration": 0.10927152500000403
                },
                {
                    "name": "C6",
                    "midi": 84,
                    "time": 60.69536524999986,
                    "velocity": 0.4645669291338583,
                    "duration": 0.09933775000000367
                },
                {
                    "name": "C#6",
                    "midi": 85,
                    "time": 60.79470299999986,
                    "velocity": 0.5039370078740157,
                    "duration": 0.10927152499999693
                },
                {
                    "name": "D6",
                    "midi": 86,
                    "time": 60.89404074999986,
                    "velocity": 0.44881889763779526,
                    "duration": 0.10927152500000403
                },
                {
                    "name": "C#6",
                    "midi": 85,
                    "time": 60.993378499999864,
                    "velocity": 0.44881889763779526,
                    "duration": 0.10927152500000403
                },
                {
                    "name": "B5",
                    "midi": 83,
                    "time": 61.09271624999987,
                    "velocity": 0.44881889763779526,
                    "duration": 0.10927152500000403
                },
                {
                    "name": "A5",
                    "midi": 81,
                    "time": 61.19205399999987,
                    "velocity": 0.47244094488188976,
                    "duration": 0.10927152500000403
                },
                {
                    "name": "B5",
                    "midi": 83,
                    "time": 61.291391749999875,
                    "velocity": 0.4015748031496063,
                    "duration": 0.10927152500000403
                },
                {
                    "name": "A5",
                    "midi": 81,
                    "time": 61.39072949999988,
                    "velocity": 0.4330708661417323,
                    "duration": 0.10927152500000403
                },
                {
                    "name": "G#5",
                    "midi": 80,
                    "time": 61.49006724999988,
                    "velocity": 0.3700787401574803,
                    "duration": 0.10927152500000403
                },
                {
                    "name": "F#5",
                    "midi": 78,
                    "time": 61.589404999999886,
                    "velocity": 0.4251968503937008,
                    "duration": 0.10927152500000403
                },
                {
                    "name": "A5",
                    "midi": 81,
                    "time": 61.68874274999989,
                    "velocity": 0.3700787401574803,
                    "duration": 0.10927152500000403
                },
                {
                    "name": "G#5",
                    "midi": 80,
                    "time": 61.78808049999989,
                    "velocity": 0.3937007874015748,
                    "duration": 0.10927152500000403
                },
                {
                    "name": "F#5",
                    "midi": 78,
                    "time": 61.8874182499999,
                    "velocity": 0.36220472440944884,
                    "duration": 0.10927152500000403
                },
                {
                    "name": "E5",
                    "midi": 76,
                    "time": 61.9867559999999,
                    "velocity": 0.41732283464566927,
                    "duration": 0.10927152500000403
                },
                {
                    "name": "F#5",
                    "midi": 78,
                    "time": 62.086093749999904,
                    "velocity": 0.3700787401574803,
                    "duration": 0.10927152500000403
                },
                {
                    "name": "G#5",
                    "midi": 80,
                    "time": 62.18543149999991,
                    "velocity": 0.3937007874015748,
                    "duration": 0.10927152500000403
                },
                {
                    "name": "E5",
                    "midi": 76,
                    "time": 62.28476924999991,
                    "velocity": 0.3700787401574803,
                    "duration": 0.10927152500000403
                },
                {
                    "name": "C#5",
                    "midi": 73,
                    "time": 62.384106999999915,
                    "velocity": 0.4251968503937008,
                    "duration": 0.10927152500000403
                },
                {
                    "name": "D#5",
                    "midi": 75,
                    "time": 62.48344474999992,
                    "velocity": 0.3700787401574803,
                    "duration": 0.10927152500000403
                },
                {
                    "name": "E5",
                    "midi": 76,
                    "time": 62.58278249999992,
                    "velocity": 0.41732283464566927,
                    "duration": 0.10927152500000403
                },
                {
                    "name": "C#5",
                    "midi": 73,
                    "time": 62.682120249999926,
                    "velocity": 0.3700787401574803,
                    "duration": 0.10927152500000403
                },
                {
                    "name": "D#5",
                    "midi": 75,
                    "time": 62.78145799999993,
                    "velocity": 0.41732283464566927,
                    "duration": 0.10927152500000403
                },
                {
                    "name": "E5",
                    "midi": 76,
                    "time": 62.88079574999993,
                    "velocity": 0.3700787401574803,
                    "duration": 0.10927152500000403
                },
                {
                    "name": "F#5",
                    "midi": 78,
                    "time": 62.98013349999994,
                    "velocity": 0.4015748031496063,
                    "duration": 0.10927152500000403
                },
                {
                    "name": "D#5",
                    "midi": 75,
                    "time": 63.07947124999994,
                    "velocity": 0.3700787401574803,
                    "duration": 0.10927152500000403
                },
                {
                    "name": "C5",
                    "midi": 72,
                    "time": 63.178808999999944,
                    "velocity": 0.3937007874015748,
                    "duration": 0.10927152500000403
                },
                {
                    "name": "C#5",
                    "midi": 73,
                    "time": 63.27814674999995,
                    "velocity": 0.3700787401574803,
                    "duration": 0.10927152500000403
                },
                {
                    "name": "D#5",
                    "midi": 75,
                    "time": 63.37748449999995,
                    "velocity": 0.3937007874015748,
                    "duration": 0.10927152500000403
                },
                {
                    "name": "C5",
                    "midi": 72,
                    "time": 63.476822249999955,
                    "velocity": 0.36220472440944884,
                    "duration": 0.10927152500000403
                },
                {
                    "name": "C#5",
                    "midi": 73,
                    "time": 63.57615999999996,
                    "velocity": 0.4094488188976378,
                    "duration": 0.3725165625000031
                },
                {
                    "name": "E5",
                    "midi": 76,
                    "time": 63.97351099999996,
                    "velocity": 0.5433070866141733,
                    "duration": 0.10927152499999693
                },
                {
                    "name": "D5",
                    "midi": 74,
                    "time": 64.07284874999996,
                    "velocity": 0.4645669291338583,
                    "duration": 0.10927152499998272
                },
                {
                    "name": "C#5",
                    "midi": 73,
                    "time": 64.17218649999995,
                    "velocity": 0.4645669291338583,
                    "duration": 0.10927152499998272
                },
                {
                    "name": "B4",
                    "midi": 71,
                    "time": 64.27152424999994,
                    "velocity": 0.4645669291338583,
                    "duration": 0.10927152499998272
                },
                {
                    "name": "A4",
                    "midi": 69,
                    "time": 64.37086199999993,
                    "velocity": 0.5196850393700787,
                    "duration": 0.10927152499998272
                },
                {
                    "name": "B4",
                    "midi": 71,
                    "time": 64.47019974999992,
                    "velocity": 0.44881889763779526,
                    "duration": 0.10927152499998272
                },
                {
                    "name": "C#5",
                    "midi": 73,
                    "time": 64.56953749999991,
                    "velocity": 0.44881889763779526,
                    "duration": 0.10927152499998272
                },
                {
                    "name": "D5",
                    "midi": 74,
                    "time": 64.6688752499999,
                    "velocity": 0.44881889763779526,
                    "duration": 0.10927152499998272
                },
                {
                    "name": "E5",
                    "midi": 76,
                    "time": 64.76821299999989,
                    "velocity": 0.5039370078740157,
                    "duration": 0.10927152499998272
                },
                {
                    "name": "F#5",
                    "midi": 78,
                    "time": 64.86755074999988,
                    "velocity": 0.44881889763779526,
                    "duration": 0.10927152499998272
                },
                {
                    "name": "G#5",
                    "midi": 80,
                    "time": 64.96688849999987,
                    "velocity": 0.4409448818897638,
                    "duration": 0.10927152499998272
                },
                {
                    "name": "A5",
                    "midi": 81,
                    "time": 65.06622624999986,
                    "velocity": 0.4409448818897638,
                    "duration": 0.09519867708333152
                },
                {
                    "name": "A5",
                    "midi": 81,
                    "time": 65.16556399999986,
                    "velocity": 0.5196850393700787,
                    "duration": 0.10927152499999693
                },
                {
                    "name": "G#5",
                    "midi": 80,
                    "time": 65.26490174999986,
                    "velocity": 0.47244094488188976,
                    "duration": 0.10927152499998272
                },
                {
                    "name": "F#5",
                    "midi": 78,
                    "time": 65.36423949999985,
                    "velocity": 0.47244094488188976,
                    "duration": 0.10927152499998272
                },
                {
                    "name": "E5",
                    "midi": 76,
                    "time": 65.46357724999984,
                    "velocity": 0.44881889763779526,
                    "duration": 0.09519867708333152
                },
                {
                    "name": "E5",
                    "midi": 76,
                    "time": 65.56291499999985,
                    "velocity": 0.5039370078740157,
                    "duration": 0.10927152499999693
                },
                {
                    "name": "D5",
                    "midi": 74,
                    "time": 65.66225274999985,
                    "velocity": 0.4645669291338583,
                    "duration": 0.10927152499998272
                },
                {
                    "name": "C#5",
                    "midi": 73,
                    "time": 65.76159049999984,
                    "velocity": 0.4645669291338583,
                    "duration": 0.10927152499998272
                },
                {
                    "name": "B4",
                    "midi": 71,
                    "time": 65.86092824999983,
                    "velocity": 0.4645669291338583,
                    "duration": 0.10927152499998272
                },
                {
                    "name": "A4",
                    "midi": 69,
                    "time": 65.96026599999982,
                    "velocity": 0.5039370078740157,
                    "duration": 0.10927152499998272
                },
                {
                    "name": "B4",
                    "midi": 71,
                    "time": 66.05960374999981,
                    "velocity": 0.4251968503937008,
                    "duration": 0.10927152499998272
                },
                {
                    "name": "C#5",
                    "midi": 73,
                    "time": 66.1589414999998,
                    "velocity": 0.44881889763779526,
                    "duration": 0.10927152499998272
                },
                {
                    "name": "D5",
                    "midi": 74,
                    "time": 66.25827924999979,
                    "velocity": 0.4251968503937008,
                    "duration": 0.10927152499998272
                },
                {
                    "name": "E5",
                    "midi": 76,
                    "time": 66.35761699999978,
                    "velocity": 0.5039370078740157,
                    "duration": 0.10927152499998272
                },
                {
                    "name": "F#5",
                    "midi": 78,
                    "time": 66.45695474999977,
                    "velocity": 0.4566929133858268,
                    "duration": 0.10927152499998272
                },
                {
                    "name": "G#5",
                    "midi": 80,
                    "time": 66.55629249999976,
                    "velocity": 0.47244094488188976,
                    "duration": 0.10927152499998272
                },
                {
                    "name": "A5",
                    "midi": 81,
                    "time": 66.65563024999975,
                    "velocity": 0.49606299212598426,
                    "duration": 0.09933774999998946
                },
                {
                    "name": "A#5",
                    "midi": 82,
                    "time": 66.75496799999974,
                    "velocity": 0.5905511811023622,
                    "duration": 0.19867549999999312
                },
                {
                    "name": "B5",
                    "midi": 83,
                    "time": 66.95364349999973,
                    "velocity": 0.5433070866141733,
                    "duration": 0.10927152499999693
                },
                {
                    "name": "E5",
                    "midi": 76,
                    "time": 67.15231899999972,
                    "velocity": 0.5433070866141733,
                    "duration": 0.10927152499999693
                },
                {
                    "name": "D5",
                    "midi": 74,
                    "time": 67.25165674999973,
                    "velocity": 0.4645669291338583,
                    "duration": 0.10927152499998272
                },
                {
                    "name": "C#5",
                    "midi": 73,
                    "time": 67.35099449999971,
                    "velocity": 0.4645669291338583,
                    "duration": 0.10927152499998272
                },
                {
                    "name": "B4",
                    "midi": 71,
                    "time": 67.4503322499997,
                    "velocity": 0.4645669291338583,
                    "duration": 0.10927152499998272
                },
                {
                    "name": "A4",
                    "midi": 69,
                    "time": 67.5496699999997,
                    "velocity": 0.5196850393700787,
                    "duration": 0.10927152499998272
                },
                {
                    "name": "B4",
                    "midi": 71,
                    "time": 67.64900774999968,
                    "velocity": 0.44881889763779526,
                    "duration": 0.10927152499998272
                },
                {
                    "name": "C#5",
                    "midi": 73,
                    "time": 67.74834549999967,
                    "velocity": 0.44881889763779526,
                    "duration": 0.10927152499998272
                },
                {
                    "name": "D5",
                    "midi": 74,
                    "time": 67.84768324999966,
                    "velocity": 0.44881889763779526,
                    "duration": 0.10927152499998272
                },
                {
                    "name": "E5",
                    "midi": 76,
                    "time": 67.94702099999965,
                    "velocity": 0.5039370078740157,
                    "duration": 0.10927152499998272
                },
                {
                    "name": "F#5",
                    "midi": 78,
                    "time": 68.04635874999964,
                    "velocity": 0.44881889763779526,
                    "duration": 0.10927152499998272
                },
                {
                    "name": "G#5",
                    "midi": 80,
                    "time": 68.14569649999963,
                    "velocity": 0.4409448818897638,
                    "duration": 0.10927152499998272
                },
                {
                    "name": "A5",
                    "midi": 81,
                    "time": 68.24503424999962,
                    "velocity": 0.4409448818897638,
                    "duration": 0.09519867708333152
                },
                {
                    "name": "A5",
                    "midi": 81,
                    "time": 68.34437199999962,
                    "velocity": 0.5196850393700787,
                    "duration": 0.10927152499999693
                },
                {
                    "name": "G#5",
                    "midi": 80,
                    "time": 68.44370974999963,
                    "velocity": 0.44881889763779526,
                    "duration": 0.10927152499998272
                },
                {
                    "name": "F#5",
                    "midi": 78,
                    "time": 68.54304749999962,
                    "velocity": 0.47244094488188976,
                    "duration": 0.10927152499998272
                },
                {
                    "name": "E5",
                    "midi": 76,
                    "time": 68.6423852499996,
                    "velocity": 0.44881889763779526,
                    "duration": 0.09519867708333152
                },
                {
                    "name": "E5",
                    "midi": 76,
                    "time": 68.74172299999961,
                    "velocity": 0.5039370078740157,
                    "duration": 0.10927152499999693
                },
                {
                    "name": "D5",
                    "midi": 74,
                    "time": 68.84106074999961,
                    "velocity": 0.4645669291338583,
                    "duration": 0.10927152499998272
                },
                {
                    "name": "C#5",
                    "midi": 73,
                    "time": 68.9403984999996,
                    "velocity": 0.4645669291338583,
                    "duration": 0.10927152499998272
                },
                {
                    "name": "B4",
                    "midi": 71,
                    "time": 69.03973624999959,
                    "velocity": 0.4645669291338583,
                    "duration": 0.10927152499998272
                },
                {
                    "name": "C#5",
                    "midi": 73,
                    "time": 69.13907399999958,
                    "velocity": 0.5039370078740157,
                    "duration": 0.10927152499998272
                },
                {
                    "name": "E5",
                    "midi": 76,
                    "time": 69.23841174999957,
                    "velocity": 0.4251968503937008,
                    "duration": 0.10927152499998272
                },
                {
                    "name": "A4",
                    "midi": 69,
                    "time": 69.33774949999956,
                    "velocity": 0.44881889763779526,
                    "duration": 0.10927152499998272
                },
                {
                    "name": "C#5",
                    "midi": 73,
                    "time": 69.43708724999955,
                    "velocity": 0.4251968503937008,
                    "duration": 0.10927152499998272
                },
                {
                    "name": "B4",
                    "midi": 71,
                    "time": 69.53642499999954,
                    "velocity": 0.5039370078740157,
                    "duration": 0.10927152499998272
                },
                {
                    "name": "D5",
                    "midi": 74,
                    "time": 69.63576274999953,
                    "velocity": 0.4566929133858268,
                    "duration": 0.10927152499998272
                },
                {
                    "name": "G#4",
                    "midi": 68,
                    "time": 69.73510049999952,
                    "velocity": 0.47244094488188976,
                    "duration": 0.10927152499998272
                },
                {
                    "name": "B4",
                    "midi": 71,
                    "time": 69.83443824999951,
                    "velocity": 0.4330708661417323,
                    "duration": 0.09933774999998946
                },
                {
                    "name": "A4",
                    "midi": 69,
                    "time": 69.9337759999995,
                    "velocity": 0.5196850393700787,
                    "duration": 0.2980132499999968
                },
                {
                    "name": "C#6",
                    "midi": 85,
                    "time": 70.3311269999995,
                    "velocity": 0.47244094488188976,
                    "duration": 0.10927152499999693
                },
                {
                    "name": "D6",
                    "midi": 86,
                    "time": 70.4304647499995,
                    "velocity": 0.4094488188976378,
                    "duration": 0.10927152499998272
                },
                {
                    "name": "C#6",
                    "midi": 85,
                    "time": 70.52980249999949,
                    "velocity": 0.4094488188976378,
                    "duration": 0.10927152499998272
                },
                {
                    "name": "B5",
                    "midi": 83,
                    "time": 70.62914024999948,
                    "velocity": 0.4094488188976378,
                    "duration": 0.10927152499998272
                },
                {
                    "name": "A5",
                    "midi": 81,
                    "time": 70.72847799999947,
                    "velocity": 0.4566929133858268,
                    "duration": 0.10927152499998272
                },
                {
                    "name": "B5",
                    "midi": 83,
                    "time": 70.82781574999946,
                    "velocity": 0.3937007874015748,
                    "duration": 0.10927152499998272
                },
                {
                    "name": "A5",
                    "midi": 81,
                    "time": 70.92715349999945,
                    "velocity": 0.3937007874015748,
                    "duration": 0.10927152499998272
                },
                {
                    "name": "G#5",
                    "midi": 80,
                    "time": 71.02649124999944,
                    "velocity": 0.3937007874015748,
                    "duration": 0.10927152499998272
                },
                {
                    "name": "F#5",
                    "midi": 78,
                    "time": 71.12582899999943,
                    "velocity": 0.4409448818897638,
                    "duration": 0.10927152499998272
                },
                {
                    "name": "A5",
                    "midi": 81,
                    "time": 71.22516674999942,
                    "velocity": 0.3937007874015748,
                    "duration": 0.10927152499998272
                },
                {
                    "name": "G#5",
                    "midi": 80,
                    "time": 71.3245044999994,
                    "velocity": 0.36220472440944884,
                    "duration": 0.10927152499998272
                },
                {
                    "name": "F#5",
                    "midi": 78,
                    "time": 71.4238422499994,
                    "velocity": 0.36220472440944884,
                    "duration": 0.10927152499998272
                },
                {
                    "name": "F5",
                    "midi": 77,
                    "time": 71.52317999999939,
                    "velocity": 0.4566929133858268,
                    "duration": 0.10927152499998272
                },
                {
                    "name": "F#5",
                    "midi": 78,
                    "time": 71.62251774999937,
                    "velocity": 0.3700787401574803,
                    "duration": 0.10927152499998272
                },
                {
                    "name": "G#5",
                    "midi": 80,
                    "time": 71.72185549999936,
                    "velocity": 0.3858267716535433,
                    "duration": 0.10927152499998272
                },
                {
                    "name": "F5",
                    "midi": 77,
                    "time": 71.82119324999935,
                    "velocity": 0.36220472440944884,
                    "duration": 0.10927152499998272
                },
                {
                    "name": "C#5",
                    "midi": 73,
                    "time": 71.92053099999934,
                    "velocity": 0.4409448818897638,
                    "duration": 0.10927152499998272
                },
                {
                    "name": "D#5",
                    "midi": 75,
                    "time": 72.01986874999933,
                    "velocity": 0.3700787401574803,
                    "duration": 0.10927152499998272
                },
                {
                    "name": "F5",
                    "midi": 77,
                    "time": 72.11920649999932,
                    "velocity": 0.3937007874015748,
                    "duration": 0.10927152499998272
                },
                {
                    "name": "C#5",
                    "midi": 73,
                    "time": 72.21854424999931,
                    "velocity": 0.3700787401574803,
                    "duration": 0.10927152499998272
                },
                {
                    "name": "F#5",
                    "midi": 78,
                    "time": 72.3178819999993,
                    "velocity": 0.4409448818897638,
                    "duration": 0.10927152499998272
                },
                {
                    "name": "F5",
                    "midi": 77,
                    "time": 72.41721974999929,
                    "velocity": 0.3700787401574803,
                    "duration": 0.10927152499998272
                },
                {
                    "name": "F#5",
                    "midi": 78,
                    "time": 72.51655749999928,
                    "velocity": 0.3937007874015748,
                    "duration": 0.10927152499998272
                },
                {
                    "name": "G#5",
                    "midi": 80,
                    "time": 72.61589524999927,
                    "velocity": 0.3700787401574803,
                    "duration": 0.10927152499998272
                },
                {
                    "name": "A5",
                    "midi": 81,
                    "time": 72.71523299999926,
                    "velocity": 0.4409448818897638,
                    "duration": 0.10927152499998272
                },
                {
                    "name": "G#5",
                    "midi": 80,
                    "time": 72.81457074999925,
                    "velocity": 0.4015748031496063,
                    "duration": 0.10927152499998272
                },
                {
                    "name": "A5",
                    "midi": 81,
                    "time": 72.91390849999924,
                    "velocity": 0.41732283464566927,
                    "duration": 0.10927152499998272
                },
                {
                    "name": "B5",
                    "midi": 83,
                    "time": 73.01324624999923,
                    "velocity": 0.4330708661417323,
                    "duration": 0.10927152499998272
                },
                {
                    "name": "C#6",
                    "midi": 85,
                    "time": 73.11258399999922,
                    "velocity": 0.4881889763779528,
                    "duration": 0.10927152499998272
                },
                {
                    "name": "C6",
                    "midi": 84,
                    "time": 73.2119217499992,
                    "velocity": 0.44881889763779526,
                    "duration": 0.10927152499998272
                },
                {
                    "name": "C#6",
                    "midi": 85,
                    "time": 73.3112594999992,
                    "velocity": 0.47244094488188976,
                    "duration": 0.10927152499998272
                },
                {
                    "name": "C6",
                    "midi": 84,
                    "time": 73.41059724999919,
                    "velocity": 0.4251968503937008,
                    "duration": 0.09933774999998946
                },
                {
                    "name": "C#6",
                    "midi": 85,
                    "time": 73.50993499999917,
                    "velocity": 0.4881889763779528,
                    "duration": 0.10927152499999693
                },
                {
                    "name": "D6",
                    "midi": 86,
                    "time": 73.60927274999918,
                    "velocity": 0.4409448818897638,
                    "duration": 0.10927152499998272
                },
                {
                    "name": "C#6",
                    "midi": 85,
                    "time": 73.70861049999917,
                    "velocity": 0.5118110236220472,
                    "duration": 0.10927152499998272
                },
                {
                    "name": "A#5",
                    "midi": 82,
                    "time": 73.80794824999916,
                    "velocity": 0.47244094488188976,
                    "duration": 0.10927152499998272
                },
                {
                    "name": "D6",
                    "midi": 86,
                    "time": 73.90728599999915,
                    "velocity": 0.5433070866141733,
                    "duration": 0.10927152499998272
                },
                {
                    "name": "C#6",
                    "midi": 85,
                    "time": 74.00662374999914,
                    "velocity": 0.49606299212598426,
                    "duration": 0.10927152499998272
                },
                {
                    "name": "D6",
                    "midi": 86,
                    "time": 74.10596149999913,
                    "velocity": 0.5433070866141733,
                    "duration": 0.10927152499998272
                },
                {
                    "name": "C#6",
                    "midi": 85,
                    "time": 74.20529924999911,
                    "velocity": 0.5039370078740157,
                    "duration": 0.10927152499998272
                },
                {
                    "name": "D6",
                    "midi": 86,
                    "time": 74.3046369999991,
                    "velocity": 0.5354330708661418,
                    "duration": 0.10927152499998272
                },
                {
                    "name": "C#6",
                    "midi": 85,
                    "time": 74.4039747499991,
                    "velocity": 0.5196850393700787,
                    "duration": 0.10927152499998272
                },
                {
                    "name": "D6",
                    "midi": 86,
                    "time": 74.50331249999908,
                    "velocity": 0.5669291338582677,
                    "duration": 0.10927152499998272
                },
                {
                    "name": "C#6",
                    "midi": 85,
                    "time": 74.60265024999907,
                    "velocity": 0.5354330708661418,
                    "duration": 0.10927152499998272
                },
                {
                    "name": "D6",
                    "midi": 86,
                    "time": 74.70198799999906,
                    "velocity": 0.5511811023622047,
                    "duration": 0.10927152499998272
                },
                {
                    "name": "C#6",
                    "midi": 85,
                    "time": 74.80132574999905,
                    "velocity": 0.5433070866141733,
                    "duration": 0.10927152499998272
                },
                {
                    "name": "B5",
                    "midi": 83,
                    "time": 74.90066349999904,
                    "velocity": 0.5275590551181102,
                    "duration": 0.10927152499998272
                },
                {
                    "name": "A5",
                    "midi": 81,
                    "time": 75.00000124999903,
                    "velocity": 0.5196850393700787,
                    "duration": 0.10927152499998272
                },
                {
                    "name": "G#5",
                    "midi": 80,
                    "time": 75.09933899999902,
                    "velocity": 0.5039370078740157,
                    "duration": 0.10927152499998272
                },
                {
                    "name": "A5",
                    "midi": 81,
                    "time": 75.19867674999901,
                    "velocity": 0.48031496062992124,
                    "duration": 0.10927152499998272
                },
                {
                    "name": "B5",
                    "midi": 83,
                    "time": 75.298014499999,
                    "velocity": 0.5039370078740157,
                    "duration": 0.10927152499998272
                },
                {
                    "name": "G#5",
                    "midi": 80,
                    "time": 75.39735224999899,
                    "velocity": 0.48031496062992124,
                    "duration": 0.10927152499998272
                },
                {
                    "name": "A5",
                    "midi": 81,
                    "time": 75.49668999999898,
                    "velocity": 0.44881889763779526,
                    "duration": 0.10927152499998272
                },
                {
                    "name": "B5",
                    "midi": 83,
                    "time": 75.59602774999897,
                    "velocity": 0.3858267716535433,
                    "duration": 0.10927152499998272
                },
                {
                    "name": "C#6",
                    "midi": 85,
                    "time": 75.69536549999896,
                    "velocity": 0.4330708661417323,
                    "duration": 0.10927152499998272
                },
                {
                    "name": "F#5",
                    "midi": 78,
                    "time": 75.79470324999895,
                    "velocity": 0.3937007874015748,
                    "duration": 0.10927152499998272
                },
                {
                    "name": "F5",
                    "midi": 77,
                    "time": 75.89404099999894,
                    "velocity": 0.41732283464566927,
                    "duration": 0.10927152499998272
                },
                {
                    "name": "F#5",
                    "midi": 78,
                    "time": 75.99337874999893,
                    "velocity": 0.3700787401574803,
                    "duration": 0.10927152499998272
                },
                {
                    "name": "G#5",
                    "midi": 80,
                    "time": 76.09271649999891,
                    "velocity": 0.4251968503937008,
                    "duration": 0.10927152499998272
                },
                {
                    "name": "F5",
                    "midi": 77,
                    "time": 76.1920542499989,
                    "velocity": 0.3700787401574803,
                    "duration": 0.10927152499998272
                },
                {
                    "name": "F#5",
                    "midi": 78,
                    "time": 76.2913919999989,
                    "velocity": 0.4251968503937008,
                    "duration": 0.372516562499996
                },
                {
                    "name": "E5",
                    "midi": 76,
                    "time": 76.6887429999989,
                    "velocity": 0.5433070866141733,
                    "duration": 0.10927152499999693
                },
                {
                    "name": "D5",
                    "midi": 74,
                    "time": 76.7880807499989,
                    "velocity": 0.4645669291338583,
                    "duration": 0.10927152499998272
                },
                {
                    "name": "C#5",
                    "midi": 73,
                    "time": 76.88741849999889,
                    "velocity": 0.4645669291338583,
                    "duration": 0.10927152499998272
                },
                {
                    "name": "B4",
                    "midi": 71,
                    "time": 76.98675624999888,
                    "velocity": 0.4645669291338583,
                    "duration": 0.10927152499998272
                },
                {
                    "name": "A4",
                    "midi": 69,
                    "time": 77.08609399999887,
                    "velocity": 0.5196850393700787,
                    "duration": 0.10927152499998272
                },
                {
                    "name": "B4",
                    "midi": 71,
                    "time": 77.18543174999886,
                    "velocity": 0.44881889763779526,
                    "duration": 0.10927152499998272
                },
                {
                    "name": "C#5",
                    "midi": 73,
                    "time": 77.28476949999884,
                    "velocity": 0.44881889763779526,
                    "duration": 0.10927152499998272
                },
                {
                    "name": "D5",
                    "midi": 74,
                    "time": 77.38410724999883,
                    "velocity": 0.44881889763779526,
                    "duration": 0.10927152499998272
                },
                {
                    "name": "E5",
                    "midi": 76,
                    "time": 77.48344499999882,
                    "velocity": 0.5039370078740157,
                    "duration": 0.10927152499998272
                },
                {
                    "name": "F#5",
                    "midi": 78,
                    "time": 77.58278274999881,
                    "velocity": 0.44881889763779526,
                    "duration": 0.10927152499998272
                },
                {
                    "name": "G#5",
                    "midi": 80,
                    "time": 77.6821204999988,
                    "velocity": 0.4409448818897638,
                    "duration": 0.10927152499998272
                },
                {
                    "name": "A5",
                    "midi": 81,
                    "time": 77.78145824999879,
                    "velocity": 0.4409448818897638,
                    "duration": 0.09519867708333152
                },
                {
                    "name": "A5",
                    "midi": 81,
                    "time": 77.8807959999988,
                    "velocity": 0.5196850393700787,
                    "duration": 0.10927152499999693
                },
                {
                    "name": "G#5",
                    "midi": 80,
                    "time": 77.9801337499988,
                    "velocity": 0.47244094488188976,
                    "duration": 0.10927152499998272
                },
                {
                    "name": "F#5",
                    "midi": 78,
                    "time": 78.07947149999879,
                    "velocity": 0.47244094488188976,
                    "duration": 0.10927152499998272
                },
                {
                    "name": "E5",
                    "midi": 76,
                    "time": 78.17880924999878,
                    "velocity": 0.44881889763779526,
                    "duration": 0.09519867708333152
                },
                {
                    "name": "E5",
                    "midi": 76,
                    "time": 78.27814699999878,
                    "velocity": 0.5039370078740157,
                    "duration": 0.10927152499999693
                },
                {
                    "name": "D5",
                    "midi": 74,
                    "time": 78.37748474999879,
                    "velocity": 0.4645669291338583,
                    "duration": 0.10927152499998272
                },
                {
                    "name": "C#5",
                    "midi": 73,
                    "time": 78.47682249999878,
                    "velocity": 0.4645669291338583,
                    "duration": 0.10927152499998272
                },
                {
                    "name": "B4",
                    "midi": 71,
                    "time": 78.57616024999876,
                    "velocity": 0.4645669291338583,
                    "duration": 0.10927152499998272
                },
                {
                    "name": "A4",
                    "midi": 69,
                    "time": 78.67549799999875,
                    "velocity": 0.5039370078740157,
                    "duration": 0.10927152499998272
                },
                {
                    "name": "B4",
                    "midi": 71,
                    "time": 78.77483574999874,
                    "velocity": 0.4251968503937008,
                    "duration": 0.10927152499998272
                },
                {
                    "name": "C#5",
                    "midi": 73,
                    "time": 78.87417349999873,
                    "velocity": 0.44881889763779526,
                    "duration": 0.10927152499998272
                },
                {
                    "name": "D5",
                    "midi": 74,
                    "time": 78.97351124999872,
                    "velocity": 0.4251968503937008,
                    "duration": 0.10927152499998272
                },
                {
                    "name": "E5",
                    "midi": 76,
                    "time": 79.07284899999871,
                    "velocity": 0.5039370078740157,
                    "duration": 0.10927152499998272
                },
                {
                    "name": "F#5",
                    "midi": 78,
                    "time": 79.1721867499987,
                    "velocity": 0.4566929133858268,
                    "duration": 0.10927152499998272
                },
                {
                    "name": "G#5",
                    "midi": 80,
                    "time": 79.27152449999869,
                    "velocity": 0.47244094488188976,
                    "duration": 0.10927152499998272
                },
                {
                    "name": "A5",
                    "midi": 81,
                    "time": 79.37086224999868,
                    "velocity": 0.49606299212598426,
                    "duration": 0.09933774999998946
                },
                {
                    "name": "A#5",
                    "midi": 82,
                    "time": 79.47019999999867,
                    "velocity": 0.5905511811023622,
                    "duration": 0.19867549999999312
                },
                {
                    "name": "B5",
                    "midi": 83,
                    "time": 79.66887549999866,
                    "velocity": 0.5433070866141733,
                    "duration": 0.10927152499999693
                },
                {
                    "name": "E5",
                    "midi": 76,
                    "time": 79.86755099999866,
                    "velocity": 0.5433070866141733,
                    "duration": 0.10927152499999693
                },
                {
                    "name": "D5",
                    "midi": 74,
                    "time": 79.96688874999866,
                    "velocity": 0.4645669291338583,
                    "duration": 0.10927152499998272
                },
                {
                    "name": "C#5",
                    "midi": 73,
                    "time": 80.06622649999865,
                    "velocity": 0.4645669291338583,
                    "duration": 0.10927152499998272
                },
                {
                    "name": "B4",
                    "midi": 71,
                    "time": 80.16556424999864,
                    "velocity": 0.4645669291338583,
                    "duration": 0.10927152499998272
                },
                {
                    "name": "A4",
                    "midi": 69,
                    "time": 80.26490199999863,
                    "velocity": 0.5196850393700787,
                    "duration": 0.10927152499998272
                },
                {
                    "name": "B4",
                    "midi": 71,
                    "time": 80.36423974999862,
                    "velocity": 0.44881889763779526,
                    "duration": 0.10927152499998272
                },
                {
                    "name": "C#5",
                    "midi": 73,
                    "time": 80.4635774999986,
                    "velocity": 0.44881889763779526,
                    "duration": 0.10927152499998272
                },
                {
                    "name": "D5",
                    "midi": 74,
                    "time": 80.5629152499986,
                    "velocity": 0.44881889763779526,
                    "duration": 0.10927152499998272
                },
                {
                    "name": "E5",
                    "midi": 76,
                    "time": 80.66225299999859,
                    "velocity": 0.5039370078740157,
                    "duration": 0.10927152499998272
                },
                {
                    "name": "F#5",
                    "midi": 78,
                    "time": 80.76159074999858,
                    "velocity": 0.44881889763779526,
                    "duration": 0.10927152499998272
                },
                {
                    "name": "G#5",
                    "midi": 80,
                    "time": 80.86092849999856,
                    "velocity": 0.4409448818897638,
                    "duration": 0.10927152499998272
                },
                {
                    "name": "A5",
                    "midi": 81,
                    "time": 80.96026624999855,
                    "velocity": 0.4409448818897638,
                    "duration": 0.09519867708333152
                },
                {
                    "name": "A5",
                    "midi": 81,
                    "time": 81.05960399999856,
                    "velocity": 0.5196850393700787,
                    "duration": 0.10927152499999693
                },
                {
                    "name": "G#5",
                    "midi": 80,
                    "time": 81.15894174999856,
                    "velocity": 0.44881889763779526,
                    "duration": 0.10927152499998272
                },
                {
                    "name": "F#5",
                    "midi": 78,
                    "time": 81.25827949999855,
                    "velocity": 0.47244094488188976,
                    "duration": 0.10927152499998272
                },
                {
                    "name": "E5",
                    "midi": 76,
                    "time": 81.35761724999854,
                    "velocity": 0.44881889763779526,
                    "duration": 0.09519867708333152
                },
                {
                    "name": "E5",
                    "midi": 76,
                    "time": 81.45695499999854,
                    "velocity": 0.5039370078740157,
                    "duration": 0.10927152499999693
                },
                {
                    "name": "D5",
                    "midi": 74,
                    "time": 81.55629274999855,
                    "velocity": 0.4645669291338583,
                    "duration": 0.10927152499998272
                },
                {
                    "name": "C#5",
                    "midi": 73,
                    "time": 81.65563049999854,
                    "velocity": 0.4645669291338583,
                    "duration": 0.10927152499998272
                },
                {
                    "name": "B4",
                    "midi": 71,
                    "time": 81.75496824999853,
                    "velocity": 0.4645669291338583,
                    "duration": 0.10927152499998272
                },
                {
                    "name": "C#5",
                    "midi": 73,
                    "time": 81.85430599999852,
                    "velocity": 0.5039370078740157,
                    "duration": 0.10927152499998272
                },
                {
                    "name": "E5",
                    "midi": 76,
                    "time": 81.9536437499985,
                    "velocity": 0.4251968503937008,
                    "duration": 0.10927152499998272
                },
                {
                    "name": "A4",
                    "midi": 69,
                    "time": 82.0529814999985,
                    "velocity": 0.44881889763779526,
                    "duration": 0.10927152499998272
                },
                {
                    "name": "C#5",
                    "midi": 73,
                    "time": 82.15231924999848,
                    "velocity": 0.4251968503937008,
                    "duration": 0.10927152499998272
                },
                {
                    "name": "B4",
                    "midi": 71,
                    "time": 82.25165699999847,
                    "velocity": 0.5039370078740157,
                    "duration": 0.10927152499998272
                },
                {
                    "name": "D5",
                    "midi": 74,
                    "time": 82.35099474999846,
                    "velocity": 0.4566929133858268,
                    "duration": 0.10927152499998272
                },
                {
                    "name": "G#4",
                    "midi": 68,
                    "time": 82.45033249999845,
                    "velocity": 0.47244094488188976,
                    "duration": 0.10927152499998272
                },
                {
                    "name": "B4",
                    "midi": 71,
                    "time": 82.54967024999844,
                    "velocity": 0.4330708661417323,
                    "duration": 0.09933774999998946
                },
                {
                    "name": "A4",
                    "midi": 69,
                    "time": 82.64900799999843,
                    "velocity": 0.5196850393700787,
                    "duration": 0.2980132499999968
                },
                {
                    "name": "C#6",
                    "midi": 85,
                    "time": 83.04635899999843,
                    "velocity": 0.47244094488188976,
                    "duration": 0.10927152499999693
                },
                {
                    "name": "D6",
                    "midi": 86,
                    "time": 83.14569674999844,
                    "velocity": 0.4094488188976378,
                    "duration": 0.10927152499998272
                },
                {
                    "name": "C#6",
                    "midi": 85,
                    "time": 83.24503449999843,
                    "velocity": 0.4094488188976378,
                    "duration": 0.10927152499998272
                },
                {
                    "name": "B5",
                    "midi": 83,
                    "time": 83.34437224999841,
                    "velocity": 0.4094488188976378,
                    "duration": 0.10927152499998272
                },
                {
                    "name": "A5",
                    "midi": 81,
                    "time": 83.4437099999984,
                    "velocity": 0.4566929133858268,
                    "duration": 0.10927152499998272
                },
                {
                    "name": "B5",
                    "midi": 83,
                    "time": 83.5430477499984,
                    "velocity": 0.3937007874015748,
                    "duration": 0.10927152499998272
                },
                {
                    "name": "A5",
                    "midi": 81,
                    "time": 83.64238549999838,
                    "velocity": 0.3937007874015748,
                    "duration": 0.10927152499998272
                },
                {
                    "name": "G#5",
                    "midi": 80,
                    "time": 83.74172324999837,
                    "velocity": 0.3937007874015748,
                    "duration": 0.10927152499998272
                },
                {
                    "name": "F#5",
                    "midi": 78,
                    "time": 83.84106099999836,
                    "velocity": 0.4409448818897638,
                    "duration": 0.10927152499998272
                },
                {
                    "name": "A5",
                    "midi": 81,
                    "time": 83.94039874999835,
                    "velocity": 0.3937007874015748,
                    "duration": 0.10927152499998272
                },
                {
                    "name": "G#5",
                    "midi": 80,
                    "time": 84.03973649999834,
                    "velocity": 0.36220472440944884,
                    "duration": 0.10927152499998272
                },
                {
                    "name": "F#5",
                    "midi": 78,
                    "time": 84.13907424999833,
                    "velocity": 0.36220472440944884,
                    "duration": 0.10927152499998272
                },
                {
                    "name": "F5",
                    "midi": 77,
                    "time": 84.23841199999832,
                    "velocity": 0.4566929133858268,
                    "duration": 0.10927152499998272
                },
                {
                    "name": "F#5",
                    "midi": 78,
                    "time": 84.33774974999831,
                    "velocity": 0.3700787401574803,
                    "duration": 0.10927152499998272
                },
                {
                    "name": "G#5",
                    "midi": 80,
                    "time": 84.4370874999983,
                    "velocity": 0.3858267716535433,
                    "duration": 0.10927152499998272
                },
                {
                    "name": "F5",
                    "midi": 77,
                    "time": 84.53642524999829,
                    "velocity": 0.36220472440944884,
                    "duration": 0.10927152499998272
                },
                {
                    "name": "C#5",
                    "midi": 73,
                    "time": 84.63576299999828,
                    "velocity": 0.4409448818897638,
                    "duration": 0.10927152499998272
                },
                {
                    "name": "D#5",
                    "midi": 75,
                    "time": 84.73510074999827,
                    "velocity": 0.3700787401574803,
                    "duration": 0.10927152499998272
                },
                {
                    "name": "F5",
                    "midi": 77,
                    "time": 84.83443849999826,
                    "velocity": 0.3937007874015748,
                    "duration": 0.10927152499998272
                },
                {
                    "name": "C#5",
                    "midi": 73,
                    "time": 84.93377624999825,
                    "velocity": 0.3700787401574803,
                    "duration": 0.10927152499998272
                },
                {
                    "name": "F#5",
                    "midi": 78,
                    "time": 85.03311399999824,
                    "velocity": 0.4409448818897638,
                    "duration": 0.10927152499998272
                },
                {
                    "name": "F5",
                    "midi": 77,
                    "time": 85.13245174999822,
                    "velocity": 0.3700787401574803,
                    "duration": 0.10927152499998272
                },
                {
                    "name": "F#5",
                    "midi": 78,
                    "time": 85.23178949999821,
                    "velocity": 0.3937007874015748,
                    "duration": 0.10927152499998272
                },
                {
                    "name": "G#5",
                    "midi": 80,
                    "time": 85.3311272499982,
                    "velocity": 0.3700787401574803,
                    "duration": 0.10927152499998272
                },
                {
                    "name": "A5",
                    "midi": 81,
                    "time": 85.4304649999982,
                    "velocity": 0.4409448818897638,
                    "duration": 0.10927152499998272
                },
                {
                    "name": "G#5",
                    "midi": 80,
                    "time": 85.52980274999818,
                    "velocity": 0.4015748031496063,
                    "duration": 0.10927152499998272
                },
                {
                    "name": "A5",
                    "midi": 81,
                    "time": 85.62914049999817,
                    "velocity": 0.41732283464566927,
                    "duration": 0.10927152499998272
                },
                {
                    "name": "B5",
                    "midi": 83,
                    "time": 85.72847824999816,
                    "velocity": 0.4330708661417323,
                    "duration": 0.10927152499998272
                },
                {
                    "name": "C#6",
                    "midi": 85,
                    "time": 85.82781599999815,
                    "velocity": 0.4881889763779528,
                    "duration": 0.10927152499998272
                },
                {
                    "name": "C6",
                    "midi": 84,
                    "time": 85.92715374999814,
                    "velocity": 0.44881889763779526,
                    "duration": 0.10927152499998272
                },
                {
                    "name": "C#6",
                    "midi": 85,
                    "time": 86.02649149999813,
                    "velocity": 0.47244094488188976,
                    "duration": 0.10927152499998272
                },
                {
                    "name": "C6",
                    "midi": 84,
                    "time": 86.12582924999812,
                    "velocity": 0.4251968503937008,
                    "duration": 0.09933774999998946
                },
                {
                    "name": "C#6",
                    "midi": 85,
                    "time": 86.22516699999811,
                    "velocity": 0.4881889763779528,
                    "duration": 0.10927152499999693
                },
                {
                    "name": "D6",
                    "midi": 86,
                    "time": 86.32450474999811,
                    "velocity": 0.4409448818897638,
                    "duration": 0.10927152499998272
                },
                {
                    "name": "C#6",
                    "midi": 85,
                    "time": 86.4238424999981,
                    "velocity": 0.5118110236220472,
                    "duration": 0.10927152499998272
                },
                {
                    "name": "A#5",
                    "midi": 82,
                    "time": 86.52318024999809,
                    "velocity": 0.47244094488188976,
                    "duration": 0.10927152499998272
                },
                {
                    "name": "D6",
                    "midi": 86,
                    "time": 86.62251799999808,
                    "velocity": 0.5433070866141733,
                    "duration": 0.10927152499998272
                },
                {
                    "name": "C#6",
                    "midi": 85,
                    "time": 86.72185574999807,
                    "velocity": 0.49606299212598426,
                    "duration": 0.10927152499998272
                },
                {
                    "name": "D6",
                    "midi": 86,
                    "time": 86.82119349999806,
                    "velocity": 0.5433070866141733,
                    "duration": 0.10927152499998272
                },
                {
                    "name": "C#6",
                    "midi": 85,
                    "time": 86.92053124999805,
                    "velocity": 0.5039370078740157,
                    "duration": 0.10927152499998272
                },
                {
                    "name": "D6",
                    "midi": 86,
                    "time": 87.01986899999804,
                    "velocity": 0.5354330708661418,
                    "duration": 0.10927152499998272
                },
                {
                    "name": "C#6",
                    "midi": 85,
                    "time": 87.11920674999803,
                    "velocity": 0.5196850393700787,
                    "duration": 0.10927152499998272
                },
                {
                    "name": "D6",
                    "midi": 86,
                    "time": 87.21854449999802,
                    "velocity": 0.5669291338582677,
                    "duration": 0.10927152499998272
                },
                {
                    "name": "C#6",
                    "midi": 85,
                    "time": 87.31788224999801,
                    "velocity": 0.5354330708661418,
                    "duration": 0.10927152499998272
                },
                {
                    "name": "D6",
                    "midi": 86,
                    "time": 87.417219999998,
                    "velocity": 0.5511811023622047,
                    "duration": 0.10927152499998272
                },
                {
                    "name": "C#6",
                    "midi": 85,
                    "time": 87.51655774999799,
                    "velocity": 0.5433070866141733,
                    "duration": 0.10927152499998272
                },
                {
                    "name": "B5",
                    "midi": 83,
                    "time": 87.61589549999798,
                    "velocity": 0.5275590551181102,
                    "duration": 0.10927152499998272
                },
                {
                    "name": "A5",
                    "midi": 81,
                    "time": 87.71523324999797,
                    "velocity": 0.5196850393700787,
                    "duration": 0.10927152499998272
                },
                {
                    "name": "G#5",
                    "midi": 80,
                    "time": 87.81457099999795,
                    "velocity": 0.5039370078740157,
                    "duration": 0.10927152499998272
                },
                {
                    "name": "A5",
                    "midi": 81,
                    "time": 87.91390874999794,
                    "velocity": 0.48031496062992124,
                    "duration": 0.10927152499998272
                },
                {
                    "name": "B5",
                    "midi": 83,
                    "time": 88.01324649999793,
                    "velocity": 0.5039370078740157,
                    "duration": 0.10927152499998272
                },
                {
                    "name": "G#5",
                    "midi": 80,
                    "time": 88.11258424999792,
                    "velocity": 0.48031496062992124,
                    "duration": 0.10927152499998272
                },
                {
                    "name": "A5",
                    "midi": 81,
                    "time": 88.21192199999791,
                    "velocity": 0.44881889763779526,
                    "duration": 0.10927152499998272
                },
                {
                    "name": "B5",
                    "midi": 83,
                    "time": 88.3112597499979,
                    "velocity": 0.3858267716535433,
                    "duration": 0.10927152499998272
                },
                {
                    "name": "C#6",
                    "midi": 85,
                    "time": 88.41059749999789,
                    "velocity": 0.4330708661417323,
                    "duration": 0.10927152499998272
                },
                {
                    "name": "F#5",
                    "midi": 78,
                    "time": 88.50993524999788,
                    "velocity": 0.3937007874015748,
                    "duration": 0.10927152499998272
                },
                {
                    "name": "F5",
                    "midi": 77,
                    "time": 88.60927299999787,
                    "velocity": 0.41732283464566927,
                    "duration": 0.10927152499998272
                },
                {
                    "name": "F#5",
                    "midi": 78,
                    "time": 88.70861074999786,
                    "velocity": 0.3700787401574803,
                    "duration": 0.10927152499998272
                },
                {
                    "name": "G#5",
                    "midi": 80,
                    "time": 88.80794849999785,
                    "velocity": 0.4251968503937008,
                    "duration": 0.10927152499998272
                },
                {
                    "name": "F5",
                    "midi": 77,
                    "time": 88.90728624999784,
                    "velocity": 0.3700787401574803,
                    "duration": 0.10927152499998272
                },
                {
                    "name": "F#5",
                    "midi": 78,
                    "time": 89.00662399999783,
                    "velocity": 0.4251968503937008,
                    "duration": 0.372516562499996
                },
                {
                    "name": "A4",
                    "midi": 69,
                    "time": 89.40397499999783,
                    "velocity": 0.5748031496062992,
                    "duration": 0.09933775000000367
                },
                {
                    "name": "A5",
                    "midi": 81,
                    "time": 89.40397499999783,
                    "velocity": 0.6614173228346457,
                    "duration": 0.09933775000000367
                },
                {
                    "name": "B4",
                    "midi": 71,
                    "time": 89.60265049999784,
                    "velocity": 0.5748031496062992,
                    "duration": 0.09933775000000367
                },
                {
                    "name": "B5",
                    "midi": 83,
                    "time": 89.60265049999784,
                    "velocity": 0.6614173228346457,
                    "duration": 0.09933775000000367
                },
                {
                    "name": "C#5",
                    "midi": 73,
                    "time": 89.80132599999784,
                    "velocity": 0.6141732283464567,
                    "duration": 0.39735100000000045
                },
                {
                    "name": "C#6",
                    "midi": 85,
                    "time": 89.80132599999784,
                    "velocity": 0.7086614173228346,
                    "duration": 0.39735100000000045
                },
                {
                    "name": "A4",
                    "midi": 69,
                    "time": 90.19867699999784,
                    "velocity": 0.5748031496062992,
                    "duration": 0.09933775000000367
                },
                {
                    "name": "A5",
                    "midi": 81,
                    "time": 90.19867699999784,
                    "velocity": 0.6614173228346457,
                    "duration": 0.09933775000000367
                },
                {
                    "name": "B4",
                    "midi": 71,
                    "time": 90.39735249999785,
                    "velocity": 0.5748031496062992,
                    "duration": 0.09933775000000367
                },
                {
                    "name": "B5",
                    "midi": 83,
                    "time": 90.39735249999785,
                    "velocity": 0.6614173228346457,
                    "duration": 0.09933775000000367
                },
                {
                    "name": "C#5",
                    "midi": 73,
                    "time": 90.59602799999786,
                    "velocity": 0.6220472440944882,
                    "duration": 0.09933775000000367
                },
                {
                    "name": "C#6",
                    "midi": 85,
                    "time": 90.59602799999786,
                    "velocity": 0.7165354330708661,
                    "duration": 0.09933775000000367
                },
                {
                    "name": "B4",
                    "midi": 71,
                    "time": 90.79470349999787,
                    "velocity": 0.5669291338582677,
                    "duration": 0.09933775000000367
                },
                {
                    "name": "B5",
                    "midi": 83,
                    "time": 90.79470349999787,
                    "velocity": 0.6456692913385826,
                    "duration": 0.09933775000000367
                },
                {
                    "name": "A4",
                    "midi": 69,
                    "time": 90.99337899999787,
                    "velocity": 0.6062992125984252,
                    "duration": 0.09933775000000367
                },
                {
                    "name": "A5",
                    "midi": 81,
                    "time": 90.99337899999787,
                    "velocity": 0.7007874015748031,
                    "duration": 0.09933775000000367
                },
                {
                    "name": "G#4",
                    "midi": 68,
                    "time": 91.19205449999788,
                    "velocity": 0.5748031496062992,
                    "duration": 0.09933775000000367
                },
                {
                    "name": "G#5",
                    "midi": 80,
                    "time": 91.19205449999788,
                    "velocity": 0.6614173228346457,
                    "duration": 0.09933775000000367
                },
                {
                    "name": "F#4",
                    "midi": 66,
                    "time": 91.39072999999789,
                    "velocity": 0.6299212598425197,
                    "duration": 0.09933775000000367
                },
                {
                    "name": "F#5",
                    "midi": 78,
                    "time": 91.39072999999789,
                    "velocity": 0.7244094488188977,
                    "duration": 0.09933775000000367
                },
                {
                    "name": "G#4",
                    "midi": 68,
                    "time": 91.5894054999979,
                    "velocity": 0.5433070866141733,
                    "duration": 0.09933775000000367
                },
                {
                    "name": "G#5",
                    "midi": 80,
                    "time": 91.5894054999979,
                    "velocity": 0.6141732283464567,
                    "duration": 0.09933775000000367
                },
                {
                    "name": "A4",
                    "midi": 69,
                    "time": 91.7880809999979,
                    "velocity": 0.5905511811023622,
                    "duration": 0.09933775000000367
                },
                {
                    "name": "A5",
                    "midi": 81,
                    "time": 91.7880809999979,
                    "velocity": 0.6771653543307087,
                    "duration": 0.09933775000000367
                },
                {
                    "name": "B4",
                    "midi": 71,
                    "time": 91.98675649999791,
                    "velocity": 0.5511811023622047,
                    "duration": 0.09933775000000367
                },
                {
                    "name": "B5",
                    "midi": 83,
                    "time": 91.98675649999791,
                    "velocity": 0.6299212598425197,
                    "duration": 0.09933775000000367
                },
                {
                    "name": "G#4",
                    "midi": 68,
                    "time": 92.18543199999792,
                    "velocity": 0.6141732283464567,
                    "duration": 0.19867549999999312
                },
                {
                    "name": "G#5",
                    "midi": 80,
                    "time": 92.18543199999792,
                    "velocity": 0.7086614173228346,
                    "duration": 0.19867549999999312
                },
                {
                    "name": "E4",
                    "midi": 64,
                    "time": 92.38410749999791,
                    "velocity": 0.5748031496062992,
                    "duration": 0.09933775000000367
                },
                {
                    "name": "E5",
                    "midi": 76,
                    "time": 92.38410749999791,
                    "velocity": 0.6614173228346457,
                    "duration": 0.09933775000000367
                },
                {
                    "name": "A4",
                    "midi": 69,
                    "time": 92.58278299999792,
                    "velocity": 0.5748031496062992,
                    "duration": 0.09933775000000367
                },
                {
                    "name": "A5",
                    "midi": 81,
                    "time": 92.58278299999792,
                    "velocity": 0.6614173228346457,
                    "duration": 0.09933775000000367
                },
                {
                    "name": "B4",
                    "midi": 71,
                    "time": 92.78145849999792,
                    "velocity": 0.5748031496062992,
                    "duration": 0.09933775000000367
                },
                {
                    "name": "B5",
                    "midi": 83,
                    "time": 92.78145849999792,
                    "velocity": 0.6614173228346457,
                    "duration": 0.09933775000000367
                },
                {
                    "name": "C#5",
                    "midi": 73,
                    "time": 92.98013399999793,
                    "velocity": 0.6141732283464567,
                    "duration": 0.39735100000000045
                },
                {
                    "name": "C#6",
                    "midi": 85,
                    "time": 92.98013399999793,
                    "velocity": 0.7086614173228346,
                    "duration": 0.39735100000000045
                },
                {
                    "name": "A4",
                    "midi": 69,
                    "time": 93.37748499999793,
                    "velocity": 0.5748031496062992,
                    "duration": 0.09933775000000367
                },
                {
                    "name": "A5",
                    "midi": 81,
                    "time": 93.37748499999793,
                    "velocity": 0.6614173228346457,
                    "duration": 0.09933775000000367
                },
                {
                    "name": "B4",
                    "midi": 71,
                    "time": 93.57616049999794,
                    "velocity": 0.5748031496062992,
                    "duration": 0.09933775000000367
                },
                {
                    "name": "B5",
                    "midi": 83,
                    "time": 93.57616049999794,
                    "velocity": 0.6614173228346457,
                    "duration": 0.09933775000000367
                },
                {
                    "name": "C#5",
                    "midi": 73,
                    "time": 93.77483599999795,
                    "velocity": 0.6220472440944882,
                    "duration": 0.09933775000000367
                },
                {
                    "name": "C#6",
                    "midi": 85,
                    "time": 93.77483599999795,
                    "velocity": 0.7165354330708661,
                    "duration": 0.09933775000000367
                },
                {
                    "name": "B4",
                    "midi": 71,
                    "time": 93.97351149999795,
                    "velocity": 0.5669291338582677,
                    "duration": 0.09933775000000367
                },
                {
                    "name": "B5",
                    "midi": 83,
                    "time": 93.97351149999795,
                    "velocity": 0.6456692913385826,
                    "duration": 0.09933775000000367
                },
                {
                    "name": "A4",
                    "midi": 69,
                    "time": 94.17218699999796,
                    "velocity": 0.6062992125984252,
                    "duration": 0.09933775000000367
                },
                {
                    "name": "A5",
                    "midi": 81,
                    "time": 94.17218699999796,
                    "velocity": 0.7007874015748031,
                    "duration": 0.09933775000000367
                },
                {
                    "name": "G#4",
                    "midi": 68,
                    "time": 94.37086249999797,
                    "velocity": 0.5748031496062992,
                    "duration": 0.09933775000000367
                },
                {
                    "name": "G#5",
                    "midi": 80,
                    "time": 94.37086249999797,
                    "velocity": 0.6614173228346457,
                    "duration": 0.09933775000000367
                },
                {
                    "name": "F#4",
                    "midi": 66,
                    "time": 94.56953799999798,
                    "velocity": 0.6299212598425197,
                    "duration": 0.09933775000000367
                },
                {
                    "name": "F#5",
                    "midi": 78,
                    "time": 94.56953799999798,
                    "velocity": 0.7244094488188977,
                    "duration": 0.09933775000000367
                },
                {
                    "name": "B4",
                    "midi": 71,
                    "time": 94.76821349999798,
                    "velocity": 0.5433070866141733,
                    "duration": 0.09933775000000367
                },
                {
                    "name": "B5",
                    "midi": 83,
                    "time": 94.76821349999798,
                    "velocity": 0.6141732283464567,
                    "duration": 0.09933775000000367
                },
                {
                    "name": "G#4",
                    "midi": 68,
                    "time": 94.96688899999799,
                    "velocity": 0.5905511811023622,
                    "duration": 0.09933775000000367
                },
                {
                    "name": "G#5",
                    "midi": 80,
                    "time": 94.96688899999799,
                    "velocity": 0.6771653543307087,
                    "duration": 0.09933775000000367
                },
                {
                    "name": "E4",
                    "midi": 64,
                    "time": 95.165564499998,
                    "velocity": 0.5511811023622047,
                    "duration": 0.09933775000000367
                },
                {
                    "name": "E5",
                    "midi": 76,
                    "time": 95.165564499998,
                    "velocity": 0.6299212598425197,
                    "duration": 0.09933775000000367
                },
                {
                    "name": "A4",
                    "midi": 69,
                    "time": 95.364239999998,
                    "velocity": 0.6141732283464567,
                    "duration": 0.372516562499996
                },
                {
                    "name": "A5",
                    "midi": 81,
                    "time": 95.364239999998,
                    "velocity": 0.7086614173228346,
                    "duration": 0.372516562499996
                },
                {
                    "name": "A4",
                    "midi": 69,
                    "time": 95.761590999998,
                    "velocity": 0.5748031496062992,
                    "duration": 0.09933775000000367
                },
                {
                    "name": "A5",
                    "midi": 81,
                    "time": 95.761590999998,
                    "velocity": 0.6614173228346457,
                    "duration": 0.09933775000000367
                },
                {
                    "name": "B4",
                    "midi": 71,
                    "time": 95.96026649999801,
                    "velocity": 0.5748031496062992,
                    "duration": 0.09933775000000367
                },
                {
                    "name": "B5",
                    "midi": 83,
                    "time": 95.96026649999801,
                    "velocity": 0.6614173228346457,
                    "duration": 0.09933775000000367
                },
                {
                    "name": "C#5",
                    "midi": 73,
                    "time": 96.15894199999802,
                    "velocity": 0.6141732283464567,
                    "duration": 0.39735100000000045
                },
                {
                    "name": "C#6",
                    "midi": 85,
                    "time": 96.15894199999802,
                    "velocity": 0.7086614173228346,
                    "duration": 0.39735100000000045
                },
                {
                    "name": "A4",
                    "midi": 69,
                    "time": 96.55629299999802,
                    "velocity": 0.5748031496062992,
                    "duration": 0.09933775000000367
                },
                {
                    "name": "A5",
                    "midi": 81,
                    "time": 96.55629299999802,
                    "velocity": 0.6614173228346457,
                    "duration": 0.09933775000000367
                },
                {
                    "name": "B4",
                    "midi": 71,
                    "time": 96.75496849999803,
                    "velocity": 0.5748031496062992,
                    "duration": 0.09933775000000367
                },
                {
                    "name": "B5",
                    "midi": 83,
                    "time": 96.75496849999803,
                    "velocity": 0.6614173228346457,
                    "duration": 0.09933775000000367
                },
                {
                    "name": "C#5",
                    "midi": 73,
                    "time": 96.95364399999804,
                    "velocity": 0.6220472440944882,
                    "duration": 0.09933775000000367
                },
                {
                    "name": "C#6",
                    "midi": 85,
                    "time": 96.95364399999804,
                    "velocity": 0.7165354330708661,
                    "duration": 0.09933775000000367
                },
                {
                    "name": "B4",
                    "midi": 71,
                    "time": 97.15231949999804,
                    "velocity": 0.5669291338582677,
                    "duration": 0.09933775000000367
                },
                {
                    "name": "B5",
                    "midi": 83,
                    "time": 97.15231949999804,
                    "velocity": 0.6456692913385826,
                    "duration": 0.09933775000000367
                },
                {
                    "name": "A4",
                    "midi": 69,
                    "time": 97.35099499999805,
                    "velocity": 0.6062992125984252,
                    "duration": 0.09933775000000367
                },
                {
                    "name": "A5",
                    "midi": 81,
                    "time": 97.35099499999805,
                    "velocity": 0.7007874015748031,
                    "duration": 0.09933775000000367
                },
                {
                    "name": "G#4",
                    "midi": 68,
                    "time": 97.54967049999806,
                    "velocity": 0.5748031496062992,
                    "duration": 0.09933775000000367
                },
                {
                    "name": "G#5",
                    "midi": 80,
                    "time": 97.54967049999806,
                    "velocity": 0.6614173228346457,
                    "duration": 0.09933775000000367
                },
                {
                    "name": "F#4",
                    "midi": 66,
                    "time": 97.74834599999807,
                    "velocity": 0.6299212598425197,
                    "duration": 0.09933775000000367
                },
                {
                    "name": "F#5",
                    "midi": 78,
                    "time": 97.74834599999807,
                    "velocity": 0.7244094488188977,
                    "duration": 0.09933775000000367
                },
                {
                    "name": "G#4",
                    "midi": 68,
                    "time": 97.94702149999807,
                    "velocity": 0.5433070866141733,
                    "duration": 0.09933775000000367
                },
                {
                    "name": "G#5",
                    "midi": 80,
                    "time": 97.94702149999807,
                    "velocity": 0.6141732283464567,
                    "duration": 0.09933775000000367
                },
                {
                    "name": "A4",
                    "midi": 69,
                    "time": 98.14569699999808,
                    "velocity": 0.5905511811023622,
                    "duration": 0.09933775000000367
                },
                {
                    "name": "A5",
                    "midi": 81,
                    "time": 98.14569699999808,
                    "velocity": 0.6771653543307087,
                    "duration": 0.09933775000000367
                },
                {
                    "name": "B4",
                    "midi": 71,
                    "time": 98.34437249999809,
                    "velocity": 0.5511811023622047,
                    "duration": 0.09933775000000367
                },
                {
                    "name": "B5",
                    "midi": 83,
                    "time": 98.34437249999809,
                    "velocity": 0.6299212598425197,
                    "duration": 0.09933775000000367
                },
                {
                    "name": "G#4",
                    "midi": 68,
                    "time": 98.5430479999981,
                    "velocity": 0.6141732283464567,
                    "duration": 0.19867549999999312
                },
                {
                    "name": "G#5",
                    "midi": 80,
                    "time": 98.5430479999981,
                    "velocity": 0.7086614173228346,
                    "duration": 0.19867549999999312
                },
                {
                    "name": "E4",
                    "midi": 64,
                    "time": 98.74172349999809,
                    "velocity": 0.5748031496062992,
                    "duration": 0.09933775000000367
                },
                {
                    "name": "E5",
                    "midi": 76,
                    "time": 98.74172349999809,
                    "velocity": 0.6614173228346457,
                    "duration": 0.09933775000000367
                },
                {
                    "name": "A4",
                    "midi": 69,
                    "time": 98.9403989999981,
                    "velocity": 0.5748031496062992,
                    "duration": 0.09933775000000367
                },
                {
                    "name": "A5",
                    "midi": 81,
                    "time": 98.9403989999981,
                    "velocity": 0.6614173228346457,
                    "duration": 0.09933775000000367
                },
                {
                    "name": "B4",
                    "midi": 71,
                    "time": 99.1390744999981,
                    "velocity": 0.5748031496062992,
                    "duration": 0.09933775000000367
                },
                {
                    "name": "B5",
                    "midi": 83,
                    "time": 99.1390744999981,
                    "velocity": 0.6614173228346457,
                    "duration": 0.09933775000000367
                },
                {
                    "name": "C#5",
                    "midi": 73,
                    "time": 99.33774999999811,
                    "velocity": 0.6141732283464567,
                    "duration": 0.39735100000000045
                },
                {
                    "name": "C#6",
                    "midi": 85,
                    "time": 99.33774999999811,
                    "velocity": 0.7086614173228346,
                    "duration": 0.39735100000000045
                },
                {
                    "name": "A4",
                    "midi": 69,
                    "time": 99.73510099999811,
                    "velocity": 0.5748031496062992,
                    "duration": 0.09933775000000367
                },
                {
                    "name": "A5",
                    "midi": 81,
                    "time": 99.73510099999811,
                    "velocity": 0.6614173228346457,
                    "duration": 0.09933775000000367
                },
                {
                    "name": "B4",
                    "midi": 71,
                    "time": 99.93377649999812,
                    "velocity": 0.5748031496062992,
                    "duration": 0.09933775000000367
                },
                {
                    "name": "B5",
                    "midi": 83,
                    "time": 99.93377649999812,
                    "velocity": 0.6614173228346457,
                    "duration": 0.09933775000000367
                },
                {
                    "name": "C#5",
                    "midi": 73,
                    "time": 100.13245199999812,
                    "velocity": 0.6220472440944882,
                    "duration": 0.09933775000000367
                },
                {
                    "name": "C#6",
                    "midi": 85,
                    "time": 100.13245199999812,
                    "velocity": 0.7165354330708661,
                    "duration": 0.09933775000000367
                },
                {
                    "name": "B4",
                    "midi": 71,
                    "time": 100.33112749999813,
                    "velocity": 0.5669291338582677,
                    "duration": 0.09933775000000367
                },
                {
                    "name": "B5",
                    "midi": 83,
                    "time": 100.33112749999813,
                    "velocity": 0.6456692913385826,
                    "duration": 0.09933775000000367
                },
                {
                    "name": "A4",
                    "midi": 69,
                    "time": 100.52980299999814,
                    "velocity": 0.6062992125984252,
                    "duration": 0.09933775000000367
                },
                {
                    "name": "A5",
                    "midi": 81,
                    "time": 100.52980299999814,
                    "velocity": 0.7007874015748031,
                    "duration": 0.09933775000000367
                },
                {
                    "name": "G#4",
                    "midi": 68,
                    "time": 100.72847849999815,
                    "velocity": 0.5748031496062992,
                    "duration": 0.09933775000000367
                },
                {
                    "name": "G#5",
                    "midi": 80,
                    "time": 100.72847849999815,
                    "velocity": 0.6614173228346457,
                    "duration": 0.09933775000000367
                },
                {
                    "name": "F#4",
                    "midi": 66,
                    "time": 100.92715399999815,
                    "velocity": 0.6299212598425197,
                    "duration": 0.09933775000000367
                },
                {
                    "name": "F#5",
                    "midi": 78,
                    "time": 100.92715399999815,
                    "velocity": 0.7244094488188977,
                    "duration": 0.09933775000000367
                },
                {
                    "name": "B4",
                    "midi": 71,
                    "time": 101.12582949999816,
                    "velocity": 0.5433070866141733,
                    "duration": 0.09933775000000367
                },
                {
                    "name": "B5",
                    "midi": 83,
                    "time": 101.12582949999816,
                    "velocity": 0.6141732283464567,
                    "duration": 0.09933775000000367
                },
                {
                    "name": "G#4",
                    "midi": 68,
                    "time": 101.32450499999817,
                    "velocity": 0.5905511811023622,
                    "duration": 0.09933775000000367
                },
                {
                    "name": "G#5",
                    "midi": 80,
                    "time": 101.32450499999817,
                    "velocity": 0.6771653543307087,
                    "duration": 0.09933775000000367
                },
                {
                    "name": "E4",
                    "midi": 64,
                    "time": 101.52318049999818,
                    "velocity": 0.5511811023622047,
                    "duration": 0.09933775000000367
                },
                {
                    "name": "E5",
                    "midi": 76,
                    "time": 101.52318049999818,
                    "velocity": 0.6299212598425197,
                    "duration": 0.09933775000000367
                },
                {
                    "name": "A4",
                    "midi": 69,
                    "time": 101.72185599999818,
                    "velocity": 0.6141732283464567,
                    "duration": 0.372516562499996
                },
                {
                    "name": "A5",
                    "midi": 81,
                    "time": 101.72185599999818,
                    "velocity": 0.7086614173228346,
                    "duration": 0.372516562499996
                },
                {
                    "name": "B4",
                    "midi": 71,
                    "time": 102.11920699999818,
                    "velocity": 0.5196850393700787,
                    "duration": 0.09933775000000367
                },
                {
                    "name": "A4",
                    "midi": 69,
                    "time": 102.21854474999819,
                    "velocity": 0.5039370078740157,
                    "duration": 0.09933775000000367
                },
                {
                    "name": "G#4",
                    "midi": 68,
                    "time": 102.31788249999819,
                    "velocity": 0.5039370078740157,
                    "duration": 0.09933775000000367
                },
                {
                    "name": "A4",
                    "midi": 69,
                    "time": 102.4172202499982,
                    "velocity": 0.5039370078740157,
                    "duration": 0.09933775000000367
                },
                {
                    "name": "C5",
                    "midi": 72,
                    "time": 102.5165579999982,
                    "velocity": 0.5590551181102362,
                    "duration": 0.09933775000000367
                },
                {
                    "name": "D5",
                    "midi": 74,
                    "time": 102.9139089999982,
                    "velocity": 0.5196850393700787,
                    "duration": 0.09933775000000367
                },
                {
                    "name": "C5",
                    "midi": 72,
                    "time": 103.0132467499982,
                    "velocity": 0.49606299212598426,
                    "duration": 0.09933775000000367
                },
                {
                    "name": "B4",
                    "midi": 71,
                    "time": 103.1125844999982,
                    "velocity": 0.49606299212598426,
                    "duration": 0.09933775000000367
                },
                {
                    "name": "C5",
                    "midi": 72,
                    "time": 103.21192224999821,
                    "velocity": 0.49606299212598426,
                    "duration": 0.09933775000000367
                },
                {
                    "name": "E5",
                    "midi": 76,
                    "time": 103.31125999999821,
                    "velocity": 0.5669291338582677,
                    "duration": 0.09933775000000367
                },
                {
                    "name": "F5",
                    "midi": 77,
                    "time": 103.70861099999821,
                    "velocity": 0.5196850393700787,
                    "duration": 0.09933775000000367
                },
                {
                    "name": "E5",
                    "midi": 76,
                    "time": 103.80794874999822,
                    "velocity": 0.49606299212598426,
                    "duration": 0.09933775000000367
                },
                {
                    "name": "D#5",
                    "midi": 75,
                    "time": 103.90728649999822,
                    "velocity": 0.49606299212598426,
                    "duration": 0.09933775000000367
                },
                {
                    "name": "E5",
                    "midi": 76,
                    "time": 104.00662424999823,
                    "velocity": 0.49606299212598426,
                    "duration": 0.09933775000000367
                },
                {
                    "name": "B5",
                    "midi": 83,
                    "time": 104.10596199999823,
                    "velocity": 0.5511811023622047,
                    "duration": 0.09933775000000367
                },
                {
                    "name": "A5",
                    "midi": 81,
                    "time": 104.20529974999823,
                    "velocity": 0.5039370078740157,
                    "duration": 0.09933775000000367
                },
                {
                    "name": "G#5",
                    "midi": 80,
                    "time": 104.30463749999824,
                    "velocity": 0.5039370078740157,
                    "duration": 0.09933775000000367
                },
                {
                    "name": "A5",
                    "midi": 81,
                    "time": 104.40397524999824,
                    "velocity": 0.5039370078740157,
                    "duration": 0.09933775000000367
                },
                {
                    "name": "B5",
                    "midi": 83,
                    "time": 104.50331299999824,
                    "velocity": 0.5433070866141733,
                    "duration": 0.09933775000000367
                },
                {
                    "name": "A5",
                    "midi": 81,
                    "time": 104.60265074999825,
                    "velocity": 0.5039370078740157,
                    "duration": 0.09933775000000367
                },
                {
                    "name": "G#5",
                    "midi": 80,
                    "time": 104.70198849999825,
                    "velocity": 0.5039370078740157,
                    "duration": 0.09933775000000367
                },
                {
                    "name": "A5",
                    "midi": 81,
                    "time": 104.80132624999825,
                    "velocity": 0.5039370078740157,
                    "duration": 0.09933775000000367
                },
                {
                    "name": "C6",
                    "midi": 84,
                    "time": 104.90066399999826,
                    "velocity": 0.5669291338582677,
                    "duration": 0.39735100000000045
                },
                {
                    "name": "A5",
                    "midi": 81,
                    "time": 105.29801499999826,
                    "velocity": 0.5354330708661418,
                    "duration": 0.09933775000000367
                },
                {
                    "name": "C6",
                    "midi": 84,
                    "time": 105.49669049999827,
                    "velocity": 0.5118110236220472,
                    "duration": 0.09933775000000367
                },
                {
                    "name": "G5",
                    "midi": 79,
                    "time": 105.64569712499826,
                    "velocity": 0.49606299212598426,
                    "duration": 0.02483443750000447
                },
                {
                    "name": "A5",
                    "midi": 81,
                    "time": 105.67053156249827,
                    "velocity": 0.49606299212598426,
                    "duration": 0.02483443750000447
                },
                {
                    "name": "B5",
                    "midi": 83,
                    "time": 105.69536599999827,
                    "velocity": 0.6299212598425197,
                    "duration": 0.09933775000000367
                },
                {
                    "name": "F#5",
                    "midi": 78,
                    "time": 105.89404149999828,
                    "velocity": 0.4251968503937008,
                    "duration": 0.09933775000000367
                },
                {
                    "name": "A5",
                    "midi": 81,
                    "time": 105.89404149999828,
                    "velocity": 0.5039370078740157,
                    "duration": 0.09933775000000367
                },
                {
                    "name": "E5",
                    "midi": 76,
                    "time": 106.09271699999829,
                    "velocity": 0.4566929133858268,
                    "duration": 0.09933775000000367
                },
                {
                    "name": "G5",
                    "midi": 79,
                    "time": 106.09271699999829,
                    "velocity": 0.5433070866141733,
                    "duration": 0.09933775000000367
                },
                {
                    "name": "F#5",
                    "midi": 78,
                    "time": 106.2913924999983,
                    "velocity": 0.4251968503937008,
                    "duration": 0.09933775000000367
                },
                {
                    "name": "A5",
                    "midi": 81,
                    "time": 106.2913924999983,
                    "velocity": 0.5039370078740157,
                    "duration": 0.09933775000000367
                },
                {
                    "name": "G5",
                    "midi": 79,
                    "time": 106.4403991249983,
                    "velocity": 0.5118110236220472,
                    "duration": 0.02483443750000447
                },
                {
                    "name": "A5",
                    "midi": 81,
                    "time": 106.4652335624983,
                    "velocity": 0.5118110236220472,
                    "duration": 0.02483443750000447
                },
                {
                    "name": "B5",
                    "midi": 83,
                    "time": 106.4900679999983,
                    "velocity": 0.6456692913385826,
                    "duration": 0.09933775000000367
                },
                {
                    "name": "F#5",
                    "midi": 78,
                    "time": 106.68874349999831,
                    "velocity": 0.4409448818897638,
                    "duration": 0.09933775000000367
                },
                {
                    "name": "A5",
                    "midi": 81,
                    "time": 106.68874349999831,
                    "velocity": 0.5196850393700787,
                    "duration": 0.09933775000000367
                },
                {
                    "name": "E5",
                    "midi": 76,
                    "time": 106.88741899999832,
                    "velocity": 0.4566929133858268,
                    "duration": 0.09933775000000367
                },
                {
                    "name": "G5",
                    "midi": 79,
                    "time": 106.88741899999832,
                    "velocity": 0.5433070866141733,
                    "duration": 0.09933775000000367
                },
                {
                    "name": "F#5",
                    "midi": 78,
                    "time": 107.08609449999832,
                    "velocity": 0.4330708661417323,
                    "duration": 0.09933775000000367
                },
                {
                    "name": "A5",
                    "midi": 81,
                    "time": 107.08609449999832,
                    "velocity": 0.5118110236220472,
                    "duration": 0.09933775000000367
                },
                {
                    "name": "G5",
                    "midi": 79,
                    "time": 107.23510112499832,
                    "velocity": 0.5039370078740157,
                    "duration": 0.02483443750000447
                },
                {
                    "name": "A5",
                    "midi": 81,
                    "time": 107.25993556249833,
                    "velocity": 0.5039370078740157,
                    "duration": 0.04966887500000894
                },
                {
                    "name": "B5",
                    "midi": 83,
                    "time": 107.28476999999833,
                    "velocity": 0.6220472440944882,
                    "duration": 0.09933775000000367
                },
                {
                    "name": "F#5",
                    "midi": 78,
                    "time": 107.48344549999834,
                    "velocity": 0.44881889763779526,
                    "duration": 0.09933775000000367
                },
                {
                    "name": "A5",
                    "midi": 81,
                    "time": 107.48344549999834,
                    "velocity": 0.5354330708661418,
                    "duration": 0.09933775000000367
                },
                {
                    "name": "E5",
                    "midi": 76,
                    "time": 107.68212099999835,
                    "velocity": 0.4566929133858268,
                    "duration": 0.09933775000000367
                },
                {
                    "name": "G5",
                    "midi": 79,
                    "time": 107.68212099999835,
                    "velocity": 0.5433070866141733,
                    "duration": 0.09933775000000367
                },
                {
                    "name": "D#5",
                    "midi": 75,
                    "time": 107.88079649999835,
                    "velocity": 0.4409448818897638,
                    "duration": 0.09933775000000367
                },
                {
                    "name": "F#5",
                    "midi": 78,
                    "time": 107.88079649999835,
                    "velocity": 0.5196850393700787,
                    "duration": 0.09933775000000367
                },
                {
                    "name": "E5",
                    "midi": 76,
                    "time": 108.07947199999836,
                    "velocity": 0.5433070866141733,
                    "duration": 0.372516562499996
                },
                {
                    "name": "B4",
                    "midi": 71,
                    "time": 108.47682299999836,
                    "velocity": 0.5196850393700787,
                    "duration": 0.09933775000000367
                },
                {
                    "name": "A4",
                    "midi": 69,
                    "time": 108.57616074999837,
                    "velocity": 0.5039370078740157,
                    "duration": 0.09933775000000367
                },
                {
                    "name": "G#4",
                    "midi": 68,
                    "time": 108.67549849999837,
                    "velocity": 0.5039370078740157,
                    "duration": 0.09933775000000367
                },
                {
                    "name": "A4",
                    "midi": 69,
                    "time": 108.77483624999837,
                    "velocity": 0.5039370078740157,
                    "duration": 0.09933775000000367
                },
                {
                    "name": "C5",
                    "midi": 72,
                    "time": 108.87417399999838,
                    "velocity": 0.5590551181102362,
                    "duration": 0.09933775000000367
                },
                {
                    "name": "D5",
                    "midi": 74,
                    "time": 109.27152499999838,
                    "velocity": 0.5196850393700787,
                    "duration": 0.09933775000000367
                },
                {
                    "name": "C5",
                    "midi": 72,
                    "time": 109.37086274999838,
                    "velocity": 0.49606299212598426,
                    "duration": 0.09933775000000367
                },
                {
                    "name": "B4",
                    "midi": 71,
                    "time": 109.47020049999838,
                    "velocity": 0.49606299212598426,
                    "duration": 0.09933775000000367
                },
                {
                    "name": "C5",
                    "midi": 72,
                    "time": 109.56953824999839,
                    "velocity": 0.49606299212598426,
                    "duration": 0.09933775000000367
                },
                {
                    "name": "E5",
                    "midi": 76,
                    "time": 109.66887599999839,
                    "velocity": 0.5669291338582677,
                    "duration": 0.09933775000000367
                },
                {
                    "name": "F5",
                    "midi": 77,
                    "time": 110.06622699999839,
                    "velocity": 0.5196850393700787,
                    "duration": 0.09933775000000367
                },
                {
                    "name": "E5",
                    "midi": 76,
                    "time": 110.1655647499984,
                    "velocity": 0.49606299212598426,
                    "duration": 0.09933775000000367
                },
                {
                    "name": "D#5",
                    "midi": 75,
                    "time": 110.2649024999984,
                    "velocity": 0.49606299212598426,
                    "duration": 0.09933775000000367
                },
                {
                    "name": "E5",
                    "midi": 76,
                    "time": 110.3642402499984,
                    "velocity": 0.49606299212598426,
                    "duration": 0.09933775000000367
                },
                {
                    "name": "B5",
                    "midi": 83,
                    "time": 110.4635779999984,
                    "velocity": 0.5511811023622047,
                    "duration": 0.09933775000000367
                },
                {
                    "name": "A5",
                    "midi": 81,
                    "time": 110.56291574999841,
                    "velocity": 0.5039370078740157,
                    "duration": 0.09933775000000367
                },
                {
                    "name": "G#5",
                    "midi": 80,
                    "time": 110.66225349999841,
                    "velocity": 0.5039370078740157,
                    "duration": 0.09933775000000367
                },
                {
                    "name": "A5",
                    "midi": 81,
                    "time": 110.76159124999842,
                    "velocity": 0.5039370078740157,
                    "duration": 0.09933775000000367
                },
                {
                    "name": "B5",
                    "midi": 83,
                    "time": 110.86092899999842,
                    "velocity": 0.5433070866141733,
                    "duration": 0.09933775000000367
                },
                {
                    "name": "A5",
                    "midi": 81,
                    "time": 110.96026674999842,
                    "velocity": 0.5039370078740157,
                    "duration": 0.09933775000000367
                },
                {
                    "name": "G#5",
                    "midi": 80,
                    "time": 111.05960449999843,
                    "velocity": 0.5039370078740157,
                    "duration": 0.09933775000000367
                },
                {
                    "name": "A5",
                    "midi": 81,
                    "time": 111.15894224999843,
                    "velocity": 0.5039370078740157,
                    "duration": 0.09933775000000367
                },
                {
                    "name": "C6",
                    "midi": 84,
                    "time": 111.25827999999844,
                    "velocity": 0.5669291338582677,
                    "duration": 0.39735100000000045
                },
                {
                    "name": "A5",
                    "midi": 81,
                    "time": 111.65563099999844,
                    "velocity": 0.5354330708661418,
                    "duration": 0.09933775000000367
                },
                {
                    "name": "C6",
                    "midi": 84,
                    "time": 111.85430649999844,
                    "velocity": 0.5118110236220472,
                    "duration": 0.09933775000000367
                },
                {
                    "name": "G5",
                    "midi": 79,
                    "time": 112.00331312499844,
                    "velocity": 0.49606299212598426,
                    "duration": 0.02483443750000447
                },
                {
                    "name": "A5",
                    "midi": 81,
                    "time": 112.02814756249845,
                    "velocity": 0.49606299212598426,
                    "duration": 0.02483443750000447
                },
                {
                    "name": "B5",
                    "midi": 83,
                    "time": 112.05298199999845,
                    "velocity": 0.6299212598425197,
                    "duration": 0.09933775000000367
                },
                {
                    "name": "F#5",
                    "midi": 78,
                    "time": 112.25165749999846,
                    "velocity": 0.4251968503937008,
                    "duration": 0.09933775000000367
                },
                {
                    "name": "A5",
                    "midi": 81,
                    "time": 112.25165749999846,
                    "velocity": 0.5039370078740157,
                    "duration": 0.09933775000000367
                },
                {
                    "name": "E5",
                    "midi": 76,
                    "time": 112.45033299999847,
                    "velocity": 0.4566929133858268,
                    "duration": 0.09933775000000367
                },
                {
                    "name": "G5",
                    "midi": 79,
                    "time": 112.45033299999847,
                    "velocity": 0.5433070866141733,
                    "duration": 0.09933775000000367
                },
                {
                    "name": "F#5",
                    "midi": 78,
                    "time": 112.64900849999847,
                    "velocity": 0.4251968503937008,
                    "duration": 0.09933775000000367
                },
                {
                    "name": "A5",
                    "midi": 81,
                    "time": 112.64900849999847,
                    "velocity": 0.5039370078740157,
                    "duration": 0.09933775000000367
                },
                {
                    "name": "G5",
                    "midi": 79,
                    "time": 112.79801512499847,
                    "velocity": 0.5118110236220472,
                    "duration": 0.02483443750000447
                },
                {
                    "name": "A5",
                    "midi": 81,
                    "time": 112.82284956249848,
                    "velocity": 0.5118110236220472,
                    "duration": 0.02483443750000447
                },
                {
                    "name": "B5",
                    "midi": 83,
                    "time": 112.84768399999848,
                    "velocity": 0.6456692913385826,
                    "duration": 0.09933775000000367
                },
                {
                    "name": "F#5",
                    "midi": 78,
                    "time": 113.04635949999849,
                    "velocity": 0.4409448818897638,
                    "duration": 0.09933775000000367
                },
                {
                    "name": "A5",
                    "midi": 81,
                    "time": 113.04635949999849,
                    "velocity": 0.5196850393700787,
                    "duration": 0.09933775000000367
                },
                {
                    "name": "E5",
                    "midi": 76,
                    "time": 113.2450349999985,
                    "velocity": 0.4566929133858268,
                    "duration": 0.09933775000000367
                },
                {
                    "name": "G5",
                    "midi": 79,
                    "time": 113.2450349999985,
                    "velocity": 0.5433070866141733,
                    "duration": 0.09933775000000367
                },
                {
                    "name": "F#5",
                    "midi": 78,
                    "time": 113.4437104999985,
                    "velocity": 0.4330708661417323,
                    "duration": 0.09933775000000367
                },
                {
                    "name": "A5",
                    "midi": 81,
                    "time": 113.4437104999985,
                    "velocity": 0.5118110236220472,
                    "duration": 0.09933775000000367
                },
                {
                    "name": "G5",
                    "midi": 79,
                    "time": 113.5927171249985,
                    "velocity": 0.5039370078740157,
                    "duration": 0.02483443750000447
                },
                {
                    "name": "A5",
                    "midi": 81,
                    "time": 113.6175515624985,
                    "velocity": 0.5039370078740157,
                    "duration": 0.04966887500000894
                },
                {
                    "name": "B5",
                    "midi": 83,
                    "time": 113.64238599999851,
                    "velocity": 0.6220472440944882,
                    "duration": 0.09933775000000367
                },
                {
                    "name": "F#5",
                    "midi": 78,
                    "time": 113.84106149999852,
                    "velocity": 0.44881889763779526,
                    "duration": 0.09933775000000367
                },
                {
                    "name": "A5",
                    "midi": 81,
                    "time": 113.84106149999852,
                    "velocity": 0.5354330708661418,
                    "duration": 0.09933775000000367
                },
                {
                    "name": "E5",
                    "midi": 76,
                    "time": 114.03973699999852,
                    "velocity": 0.4566929133858268,
                    "duration": 0.09933775000000367
                },
                {
                    "name": "G5",
                    "midi": 79,
                    "time": 114.03973699999852,
                    "velocity": 0.5433070866141733,
                    "duration": 0.09933775000000367
                },
                {
                    "name": "D#5",
                    "midi": 75,
                    "time": 114.23841249999853,
                    "velocity": 0.4409448818897638,
                    "duration": 0.09933775000000367
                },
                {
                    "name": "F#5",
                    "midi": 78,
                    "time": 114.23841249999853,
                    "velocity": 0.5196850393700787,
                    "duration": 0.09933775000000367
                },
                {
                    "name": "E5",
                    "midi": 76,
                    "time": 114.43708799999854,
                    "velocity": 0.5433070866141733,
                    "duration": 0.372516562499996
                },
                {
                    "name": "C5",
                    "midi": 72,
                    "time": 114.83443899999854,
                    "velocity": 0.4409448818897638,
                    "duration": 0.09933775000000367
                },
                {
                    "name": "E5",
                    "midi": 76,
                    "time": 114.83443899999854,
                    "velocity": 0.4409448818897638,
                    "duration": 0.09933775000000367
                },
                {
                    "name": "D5",
                    "midi": 74,
                    "time": 115.03311449999855,
                    "velocity": 0.4409448818897638,
                    "duration": 0.09933775000000367
                },
                {
                    "name": "F5",
                    "midi": 77,
                    "time": 115.03311449999855,
                    "velocity": 0.4409448818897638,
                    "duration": 0.09933775000000367
                },
                {
                    "name": "E5",
                    "midi": 76,
                    "time": 115.23178999999855,
                    "velocity": 0.5196850393700787,
                    "duration": 0.09933775000000367
                },
                {
                    "name": "G5",
                    "midi": 79,
                    "time": 115.23178999999855,
                    "velocity": 0.5196850393700787,
                    "duration": 0.09933775000000367
                },
                {
                    "name": "E5",
                    "midi": 76,
                    "time": 115.43046549999856,
                    "velocity": 0.44881889763779526,
                    "duration": 0.09933775000000367
                },
                {
                    "name": "G5",
                    "midi": 79,
                    "time": 115.43046549999856,
                    "velocity": 0.44881889763779526,
                    "duration": 0.09933775000000367
                },
                {
                    "name": "A5",
                    "midi": 81,
                    "time": 115.62914099999857,
                    "velocity": 0.5039370078740157,
                    "duration": 0.09933775000000367
                },
                {
                    "name": "G5",
                    "midi": 79,
                    "time": 115.72847874999857,
                    "velocity": 0.44881889763779526,
                    "duration": 0.09933775000000367
                },
                {
                    "name": "F5",
                    "midi": 77,
                    "time": 115.82781649999858,
                    "velocity": 0.44881889763779526,
                    "duration": 0.09933775000000367
                },
                {
                    "name": "E5",
                    "midi": 76,
                    "time": 115.92715424999858,
                    "velocity": 0.44881889763779526,
                    "duration": 0.09933775000000367
                },
                {
                    "name": "D5",
                    "midi": 74,
                    "time": 116.02649199999858,
                    "velocity": 0.5118110236220472,
                    "duration": 0.39735099999998624
                },
                {
                    "name": "B4",
                    "midi": 71,
                    "time": 116.02649199999858,
                    "velocity": 0.5118110236220472,
                    "duration": 0.19867549999999312
                },
                {
                    "name": "G4",
                    "midi": 67,
                    "time": 116.22516749999858,
                    "velocity": 0.4645669291338583,
                    "duration": 0.19867549999999312
                },
                {
                    "name": "C5",
                    "midi": 72,
                    "time": 116.42384299999857,
                    "velocity": 0.4409448818897638,
                    "duration": 0.09933775000000367
                },
                {
                    "name": "E5",
                    "midi": 76,
                    "time": 116.42384299999857,
                    "velocity": 0.4409448818897638,
                    "duration": 0.09933775000000367
                },
                {
                    "name": "D5",
                    "midi": 74,
                    "time": 116.62251849999858,
                    "velocity": 0.4409448818897638,
                    "duration": 0.09933775000000367
                },
                {
                    "name": "F5",
                    "midi": 77,
                    "time": 116.62251849999858,
                    "velocity": 0.4409448818897638,
                    "duration": 0.09933775000000367
                },
                {
                    "name": "E5",
                    "midi": 76,
                    "time": 116.82119399999858,
                    "velocity": 0.5196850393700787,
                    "duration": 0.09933775000000367
                },
                {
                    "name": "G5",
                    "midi": 79,
                    "time": 116.82119399999858,
                    "velocity": 0.5196850393700787,
                    "duration": 0.09933775000000367
                },
                {
                    "name": "E5",
                    "midi": 76,
                    "time": 117.01986949999859,
                    "velocity": 0.44881889763779526,
                    "duration": 0.09933775000000367
                },
                {
                    "name": "G5",
                    "midi": 79,
                    "time": 117.01986949999859,
                    "velocity": 0.44881889763779526,
                    "duration": 0.09933775000000367
                },
                {
                    "name": "A5",
                    "midi": 81,
                    "time": 117.2185449999986,
                    "velocity": 0.5039370078740157,
                    "duration": 0.09933775000000367
                },
                {
                    "name": "G5",
                    "midi": 79,
                    "time": 117.3178827499986,
                    "velocity": 0.44881889763779526,
                    "duration": 0.09933775000000367
                },
                {
                    "name": "F5",
                    "midi": 77,
                    "time": 117.4172204999986,
                    "velocity": 0.44881889763779526,
                    "duration": 0.09933775000000367
                },
                {
                    "name": "E5",
                    "midi": 76,
                    "time": 117.51655824999861,
                    "velocity": 0.44881889763779526,
                    "duration": 0.09933775000000367
                },
                {
                    "name": "D5",
                    "midi": 74,
                    "time": 117.61589599999861,
                    "velocity": 0.5118110236220472,
                    "duration": 0.39735100000000045
                },
                {
                    "name": "B4",
                    "midi": 71,
                    "time": 117.61589599999861,
                    "velocity": 0.5118110236220472,
                    "duration": 0.39735100000000045
                },
                {
                    "name": "A4",
                    "midi": 69,
                    "time": 118.01324699999861,
                    "velocity": 0.4409448818897638,
                    "duration": 0.09933775000000367
                },
                {
                    "name": "C5",
                    "midi": 72,
                    "time": 118.01324699999861,
                    "velocity": 0.4409448818897638,
                    "duration": 0.09933775000000367
                },
                {
                    "name": "B4",
                    "midi": 71,
                    "time": 118.21192249999862,
                    "velocity": 0.4409448818897638,
                    "duration": 0.09933775000000367
                },
                {
                    "name": "D5",
                    "midi": 74,
                    "time": 118.21192249999862,
                    "velocity": 0.4409448818897638,
                    "duration": 0.09933775000000367
                },
                {
                    "name": "C5",
                    "midi": 72,
                    "time": 118.41059799999863,
                    "velocity": 0.5196850393700787,
                    "duration": 0.09933775000000367
                },
                {
                    "name": "E5",
                    "midi": 76,
                    "time": 118.41059799999863,
                    "velocity": 0.5196850393700787,
                    "duration": 0.09933775000000367
                },
                {
                    "name": "C5",
                    "midi": 72,
                    "time": 118.60927349999864,
                    "velocity": 0.44881889763779526,
                    "duration": 0.09933775000000367
                },
                {
                    "name": "E5",
                    "midi": 76,
                    "time": 118.60927349999864,
                    "velocity": 0.44881889763779526,
                    "duration": 0.09933775000000367
                },
                {
                    "name": "F5",
                    "midi": 77,
                    "time": 118.80794899999864,
                    "velocity": 0.5039370078740157,
                    "duration": 0.09933775000000367
                },
                {
                    "name": "E5",
                    "midi": 76,
                    "time": 118.90728674999865,
                    "velocity": 0.44881889763779526,
                    "duration": 0.09933775000000367
                },
                {
                    "name": "D5",
                    "midi": 74,
                    "time": 119.00662449999865,
                    "velocity": 0.44881889763779526,
                    "duration": 0.09933775000000367
                },
                {
                    "name": "C5",
                    "midi": 72,
                    "time": 119.10596224999865,
                    "velocity": 0.44881889763779526,
                    "duration": 0.09933775000000367
                },
                {
                    "name": "B4",
                    "midi": 71,
                    "time": 119.20529999999866,
                    "velocity": 0.5118110236220472,
                    "duration": 0.39735099999998624
                },
                {
                    "name": "G#4",
                    "midi": 68,
                    "time": 119.20529999999866,
                    "velocity": 0.5118110236220472,
                    "duration": 0.19867549999999312
                },
                {
                    "name": "E4",
                    "midi": 64,
                    "time": 119.40397549999865,
                    "velocity": 0.4645669291338583,
                    "duration": 0.19867549999999312
                },
                {
                    "name": "A4",
                    "midi": 69,
                    "time": 119.60265099999864,
                    "velocity": 0.4409448818897638,
                    "duration": 0.09933775000000367
                },
                {
                    "name": "C5",
                    "midi": 72,
                    "time": 119.60265099999864,
                    "velocity": 0.4409448818897638,
                    "duration": 0.09933775000000367
                },
                {
                    "name": "B4",
                    "midi": 71,
                    "time": 119.80132649999865,
                    "velocity": 0.4409448818897638,
                    "duration": 0.09933775000000367
                },
                {
                    "name": "D5",
                    "midi": 74,
                    "time": 119.80132649999865,
                    "velocity": 0.4409448818897638,
                    "duration": 0.09933775000000367
                },
                {
                    "name": "C5",
                    "midi": 72,
                    "time": 120.00000199999866,
                    "velocity": 0.5196850393700787,
                    "duration": 0.09933775000000367
                },
                {
                    "name": "E5",
                    "midi": 76,
                    "time": 120.00000199999866,
                    "velocity": 0.5196850393700787,
                    "duration": 0.09933775000000367
                },
                {
                    "name": "C5",
                    "midi": 72,
                    "time": 120.19867749999867,
                    "velocity": 0.44881889763779526,
                    "duration": 0.09933775000000367
                },
                {
                    "name": "E5",
                    "midi": 76,
                    "time": 120.19867749999867,
                    "velocity": 0.44881889763779526,
                    "duration": 0.09933775000000367
                },
                {
                    "name": "F5",
                    "midi": 77,
                    "time": 120.39735299999867,
                    "velocity": 0.5039370078740157,
                    "duration": 0.09933775000000367
                },
                {
                    "name": "E5",
                    "midi": 76,
                    "time": 120.49669074999868,
                    "velocity": 0.44881889763779526,
                    "duration": 0.09933775000000367
                },
                {
                    "name": "D5",
                    "midi": 74,
                    "time": 120.59602849999868,
                    "velocity": 0.44881889763779526,
                    "duration": 0.09933775000000367
                },
                {
                    "name": "C5",
                    "midi": 72,
                    "time": 120.69536624999868,
                    "velocity": 0.44881889763779526,
                    "duration": 0.09933775000000367
                },
                {
                    "name": "B4",
                    "midi": 71,
                    "time": 120.79470399999869,
                    "velocity": 0.5118110236220472,
                    "duration": 0.39735100000000045
                },
                {
                    "name": "G#4",
                    "midi": 68,
                    "time": 120.79470399999869,
                    "velocity": 0.5118110236220472,
                    "duration": 0.39735100000000045
                },
                {
                    "name": "B4",
                    "midi": 71,
                    "time": 121.19205499999869,
                    "velocity": 0.4409448818897638,
                    "duration": 0.09933775000000367
                },
                {
                    "name": "A4",
                    "midi": 69,
                    "time": 121.29139274999869,
                    "velocity": 0.4409448818897638,
                    "duration": 0.09933775000000367
                },
                {
                    "name": "G#4",
                    "midi": 68,
                    "time": 121.3907304999987,
                    "velocity": 0.4409448818897638,
                    "duration": 0.09933775000000367
                },
                {
                    "name": "A4",
                    "midi": 69,
                    "time": 121.4900682499987,
                    "velocity": 0.4409448818897638,
                    "duration": 0.09933775000000367
                },
                {
                    "name": "C5",
                    "midi": 72,
                    "time": 121.5894059999987,
                    "velocity": 0.4645669291338583,
                    "duration": 0.09933775000000367
                },
                {
                    "name": "D5",
                    "midi": 74,
                    "time": 121.9867569999987,
                    "velocity": 0.4881889763779528,
                    "duration": 0.09933775000000367
                },
                {
                    "name": "C5",
                    "midi": 72,
                    "time": 122.08609474999871,
                    "velocity": 0.44881889763779526,
                    "duration": 0.09933775000000367
                },
                {
                    "name": "B4",
                    "midi": 71,
                    "time": 122.18543249999871,
                    "velocity": 0.44881889763779526,
                    "duration": 0.09933775000000367
                },
                {
                    "name": "C5",
                    "midi": 72,
                    "time": 122.28477024999872,
                    "velocity": 0.44881889763779526,
                    "duration": 0.09933775000000367
                },
                {
                    "name": "E5",
                    "midi": 76,
                    "time": 122.38410799999872,
                    "velocity": 0.5196850393700787,
                    "duration": 0.09933775000000367
                },
                {
                    "name": "F5",
                    "midi": 77,
                    "time": 122.78145899999872,
                    "velocity": 0.49606299212598426,
                    "duration": 0.09933775000000367
                },
                {
                    "name": "E5",
                    "midi": 76,
                    "time": 122.88079674999872,
                    "velocity": 0.4566929133858268,
                    "duration": 0.09933775000000367
                },
                {
                    "name": "D#5",
                    "midi": 75,
                    "time": 122.98013449999873,
                    "velocity": 0.4566929133858268,
                    "duration": 0.09933775000000367
                },
                {
                    "name": "E5",
                    "midi": 76,
                    "time": 123.07947224999873,
                    "velocity": 0.4566929133858268,
                    "duration": 0.09933775000000367
                },
                {
                    "name": "B5",
                    "midi": 83,
                    "time": 123.17880999999873,
                    "velocity": 0.5511811023622047,
                    "duration": 0.09933775000000367
                },
                {
                    "name": "A5",
                    "midi": 81,
                    "time": 123.27814774999874,
                    "velocity": 0.49606299212598426,
                    "duration": 0.09933775000000367
                },
                {
                    "name": "G#5",
                    "midi": 80,
                    "time": 123.37748549999874,
                    "velocity": 0.49606299212598426,
                    "duration": 0.09933775000000367
                },
                {
                    "name": "A5",
                    "midi": 81,
                    "time": 123.47682324999874,
                    "velocity": 0.49606299212598426,
                    "duration": 0.09933775000000367
                },
                {
                    "name": "B5",
                    "midi": 83,
                    "time": 123.57616099999875,
                    "velocity": 0.5590551181102362,
                    "duration": 0.09933775000000367
                },
                {
                    "name": "A5",
                    "midi": 81,
                    "time": 123.67549874999875,
                    "velocity": 0.5039370078740157,
                    "duration": 0.09933775000000367
                },
                {
                    "name": "G#5",
                    "midi": 80,
                    "time": 123.77483649999876,
                    "velocity": 0.5039370078740157,
                    "duration": 0.09933775000000367
                },
                {
                    "name": "A5",
                    "midi": 81,
                    "time": 123.87417424999876,
                    "velocity": 0.5039370078740157,
                    "duration": 0.09933775000000367
                },
                {
                    "name": "C6",
                    "midi": 84,
                    "time": 123.97351199999876,
                    "velocity": 0.5984251968503937,
                    "duration": 0.39735100000000045
                },
                {
                    "name": "A5",
                    "midi": 81,
                    "time": 124.37086299999876,
                    "velocity": 0.4881889763779528,
                    "duration": 0.09933775000000367
                },
                {
                    "name": "B5",
                    "midi": 83,
                    "time": 124.56953849999877,
                    "velocity": 0.4881889763779528,
                    "duration": 0.09933775000000367
                },
                {
                    "name": "C6",
                    "midi": 84,
                    "time": 124.76821399999878,
                    "velocity": 0.5511811023622047,
                    "duration": 0.09933775000000367
                },
                {
                    "name": "B5",
                    "midi": 83,
                    "time": 124.96688949999879,
                    "velocity": 0.4881889763779528,
                    "duration": 0.09933775000000367
                },
                {
                    "name": "A5",
                    "midi": 81,
                    "time": 125.1655649999988,
                    "velocity": 0.4881889763779528,
                    "duration": 0.09933775000000367
                },
                {
                    "name": "G#5",
                    "midi": 80,
                    "time": 125.3642404999988,
                    "velocity": 0.4881889763779528,
                    "duration": 0.09933775000000367
                },
                {
                    "name": "A5",
                    "midi": 81,
                    "time": 125.56291599999881,
                    "velocity": 0.5590551181102362,
                    "duration": 0.09933775000000367
                },
                {
                    "name": "E5",
                    "midi": 76,
                    "time": 125.76159149999881,
                    "velocity": 0.5039370078740157,
                    "duration": 0.09933775000000367
                },
                {
                    "name": "F5",
                    "midi": 77,
                    "time": 125.96357825833215,
                    "velocity": 0.5039370078740157,
                    "duration": 0.09933775000000367
                },
                {
                    "name": "D5",
                    "midi": 74,
                    "time": 126.15894249999882,
                    "velocity": 0.5039370078740157,
                    "duration": 0.09933775000000367
                },
                {
                    "name": "C5",
                    "midi": 72,
                    "time": 126.35761799999882,
                    "velocity": 0.5826771653543307,
                    "duration": 0.39735100000000045
                },
                {
                    "name": "B4",
                    "midi": 71,
                    "time": 126.75496899999882,
                    "velocity": 0.5039370078740157,
                    "duration": 0.04966887499999473
                },
                {
                    "name": "C5",
                    "midi": 72,
                    "time": 126.80463787499882,
                    "velocity": 0.44881889763779526,
                    "duration": 0.04966887499999473
                },
                {
                    "name": "B4",
                    "midi": 71,
                    "time": 126.85430674999881,
                    "velocity": 0.44881889763779526,
                    "duration": 0.04966887499999473
                },
                {
                    "name": "C5",
                    "midi": 72,
                    "time": 126.90397562499881,
                    "velocity": 0.44881889763779526,
                    "duration": 0.04966887499999473
                },
                {
                    "name": "B4",
                    "midi": 71,
                    "time": 126.9536444999988,
                    "velocity": 0.44881889763779526,
                    "duration": 0.00331125833332635
                },
                {
                    "name": "C5",
                    "midi": 72,
                    "time": 126.98675708333212,
                    "velocity": 0.44881889763779526,
                    "duration": 0.033112583333334555
                },
                {
                    "name": "B4",
                    "midi": 71,
                    "time": 127.01986966666546,
                    "velocity": 0.44881889763779526,
                    "duration": 0.033112583333334555
                },
                {
                    "name": "A4",
                    "midi": 69,
                    "time": 127.05298224999879,
                    "velocity": 0.5039370078740157,
                    "duration": 0.04966887499999473
                },
                {
                    "name": "B4",
                    "midi": 71,
                    "time": 127.10265112499879,
                    "velocity": 0.44881889763779526,
                    "duration": 0.04966887499999473
                },
                {
                    "name": "A4",
                    "midi": 69,
                    "time": 127.15231999999878,
                    "velocity": 0.5118110236220472,
                    "duration": 0.372516562499996
                },
                {
                    "name": "C5",
                    "midi": 72,
                    "time": 127.54967099999878,
                    "velocity": 0.4409448818897638,
                    "duration": 0.09933775000000367
                },
                {
                    "name": "E5",
                    "midi": 76,
                    "time": 127.54967099999878,
                    "velocity": 0.4409448818897638,
                    "duration": 0.09933775000000367
                },
                {
                    "name": "D5",
                    "midi": 74,
                    "time": 127.74834649999879,
                    "velocity": 0.4409448818897638,
                    "duration": 0.09933775000000367
                },
                {
                    "name": "F5",
                    "midi": 77,
                    "time": 127.74834649999879,
                    "velocity": 0.4409448818897638,
                    "duration": 0.09933775000000367
                },
                {
                    "name": "E5",
                    "midi": 76,
                    "time": 127.9470219999988,
                    "velocity": 0.5196850393700787,
                    "duration": 0.09933775000000367
                },
                {
                    "name": "G5",
                    "midi": 79,
                    "time": 127.9470219999988,
                    "velocity": 0.5196850393700787,
                    "duration": 0.09933775000000367
                },
                {
                    "name": "E5",
                    "midi": 76,
                    "time": 128.1456974999988,
                    "velocity": 0.44881889763779526,
                    "duration": 0.09933774999998946
                },
                {
                    "name": "G5",
                    "midi": 79,
                    "time": 128.1456974999988,
                    "velocity": 0.44881889763779526,
                    "duration": 0.09933774999998946
                },
                {
                    "name": "A5",
                    "midi": 81,
                    "time": 128.34437299999877,
                    "velocity": 0.5039370078740157,
                    "duration": 0.09933774999998946
                },
                {
                    "name": "G5",
                    "midi": 79,
                    "time": 128.44371074999876,
                    "velocity": 0.44881889763779526,
                    "duration": 0.09933774999998946
                },
                {
                    "name": "F5",
                    "midi": 77,
                    "time": 128.54304849999875,
                    "velocity": 0.44881889763779526,
                    "duration": 0.09933774999998946
                },
                {
                    "name": "E5",
                    "midi": 76,
                    "time": 128.64238624999874,
                    "velocity": 0.44881889763779526,
                    "duration": 0.09933774999998946
                },
                {
                    "name": "D5",
                    "midi": 74,
                    "time": 128.74172399999873,
                    "velocity": 0.5118110236220472,
                    "duration": 0.39735100000001466
                },
                {
                    "name": "B4",
                    "midi": 71,
                    "time": 128.74172399999873,
                    "velocity": 0.5118110236220472,
                    "duration": 0.19867550000000733
                },
                {
                    "name": "G4",
                    "midi": 67,
                    "time": 128.94039949999873,
                    "velocity": 0.4645669291338583,
                    "duration": 0.19867550000000733
                },
                {
                    "name": "C5",
                    "midi": 72,
                    "time": 129.13907499999874,
                    "velocity": 0.4409448818897638,
                    "duration": 0.09933774999998946
                },
                {
                    "name": "E5",
                    "midi": 76,
                    "time": 129.13907499999874,
                    "velocity": 0.4409448818897638,
                    "duration": 0.09933774999998946
                },
                {
                    "name": "D5",
                    "midi": 74,
                    "time": 129.33775049999872,
                    "velocity": 0.4409448818897638,
                    "duration": 0.09933774999998946
                },
                {
                    "name": "F5",
                    "midi": 77,
                    "time": 129.33775049999872,
                    "velocity": 0.4409448818897638,
                    "duration": 0.09933774999998946
                },
                {
                    "name": "E5",
                    "midi": 76,
                    "time": 129.5364259999987,
                    "velocity": 0.5196850393700787,
                    "duration": 0.09933774999998946
                },
                {
                    "name": "G5",
                    "midi": 79,
                    "time": 129.5364259999987,
                    "velocity": 0.5196850393700787,
                    "duration": 0.09933774999998946
                },
                {
                    "name": "E5",
                    "midi": 76,
                    "time": 129.73510149999868,
                    "velocity": 0.44881889763779526,
                    "duration": 0.09933774999998946
                },
                {
                    "name": "G5",
                    "midi": 79,
                    "time": 129.73510149999868,
                    "velocity": 0.44881889763779526,
                    "duration": 0.09933774999998946
                },
                {
                    "name": "A5",
                    "midi": 81,
                    "time": 129.93377699999866,
                    "velocity": 0.5039370078740157,
                    "duration": 0.09933774999998946
                },
                {
                    "name": "G5",
                    "midi": 79,
                    "time": 130.03311474999865,
                    "velocity": 0.44881889763779526,
                    "duration": 0.09933774999998946
                },
                {
                    "name": "F5",
                    "midi": 77,
                    "time": 130.13245249999864,
                    "velocity": 0.44881889763779526,
                    "duration": 0.09933774999998946
                },
                {
                    "name": "E5",
                    "midi": 76,
                    "time": 130.23179024999862,
                    "velocity": 0.44881889763779526,
                    "duration": 0.09933774999998946
                },
                {
                    "name": "D5",
                    "midi": 74,
                    "time": 130.3311279999986,
                    "velocity": 0.5118110236220472,
                    "duration": 0.39735099999998624
                },
                {
                    "name": "B4",
                    "midi": 71,
                    "time": 130.3311279999986,
                    "velocity": 0.5118110236220472,
                    "duration": 0.39735099999998624
                },
                {
                    "name": "A4",
                    "midi": 69,
                    "time": 130.7284789999986,
                    "velocity": 0.4409448818897638,
                    "duration": 0.09933774999998946
                },
                {
                    "name": "C5",
                    "midi": 72,
                    "time": 130.7284789999986,
                    "velocity": 0.4409448818897638,
                    "duration": 0.09933774999998946
                },
                {
                    "name": "B4",
                    "midi": 71,
                    "time": 130.92715449999858,
                    "velocity": 0.4409448818897638,
                    "duration": 0.09933774999998946
                },
                {
                    "name": "D5",
                    "midi": 74,
                    "time": 130.92715449999858,
                    "velocity": 0.4409448818897638,
                    "duration": 0.09933774999998946
                },
                {
                    "name": "C5",
                    "midi": 72,
                    "time": 131.12582999999856,
                    "velocity": 0.5196850393700787,
                    "duration": 0.09933774999998946
                },
                {
                    "name": "E5",
                    "midi": 76,
                    "time": 131.12582999999856,
                    "velocity": 0.5196850393700787,
                    "duration": 0.09933774999998946
                },
                {
                    "name": "C5",
                    "midi": 72,
                    "time": 131.32450549999854,
                    "velocity": 0.44881889763779526,
                    "duration": 0.09933774999998946
                },
                {
                    "name": "E5",
                    "midi": 76,
                    "time": 131.32450549999854,
                    "velocity": 0.44881889763779526,
                    "duration": 0.09933774999998946
                },
                {
                    "name": "F5",
                    "midi": 77,
                    "time": 131.52318099999852,
                    "velocity": 0.5039370078740157,
                    "duration": 0.09933774999998946
                },
                {
                    "name": "E5",
                    "midi": 76,
                    "time": 131.6225187499985,
                    "velocity": 0.44881889763779526,
                    "duration": 0.09933774999998946
                },
                {
                    "name": "D5",
                    "midi": 74,
                    "time": 131.7218564999985,
                    "velocity": 0.44881889763779526,
                    "duration": 0.09933774999998946
                },
                {
                    "name": "C5",
                    "midi": 72,
                    "time": 131.82119424999848,
                    "velocity": 0.44881889763779526,
                    "duration": 0.09933774999998946
                },
                {
                    "name": "B4",
                    "midi": 71,
                    "time": 131.92053199999847,
                    "velocity": 0.5118110236220472,
                    "duration": 0.39735100000001466
                },
                {
                    "name": "G#4",
                    "midi": 68,
                    "time": 131.92053199999847,
                    "velocity": 0.5118110236220472,
                    "duration": 0.19867550000000733
                },
                {
                    "name": "E4",
                    "midi": 64,
                    "time": 132.11920749999848,
                    "velocity": 0.4645669291338583,
                    "duration": 0.19867550000000733
                },
                {
                    "name": "A4",
                    "midi": 69,
                    "time": 132.3178829999985,
                    "velocity": 0.4409448818897638,
                    "duration": 0.09933774999998946
                },
                {
                    "name": "C5",
                    "midi": 72,
                    "time": 132.3178829999985,
                    "velocity": 0.4409448818897638,
                    "duration": 0.09933774999998946
                },
                {
                    "name": "B4",
                    "midi": 71,
                    "time": 132.51655849999847,
                    "velocity": 0.4409448818897638,
                    "duration": 0.09933774999998946
                },
                {
                    "name": "D5",
                    "midi": 74,
                    "time": 132.51655849999847,
                    "velocity": 0.4409448818897638,
                    "duration": 0.09933774999998946
                },
                {
                    "name": "C5",
                    "midi": 72,
                    "time": 132.71523399999845,
                    "velocity": 0.5196850393700787,
                    "duration": 0.09933774999998946
                },
                {
                    "name": "E5",
                    "midi": 76,
                    "time": 132.71523399999845,
                    "velocity": 0.5196850393700787,
                    "duration": 0.09933774999998946
                },
                {
                    "name": "C5",
                    "midi": 72,
                    "time": 132.91390949999843,
                    "velocity": 0.44881889763779526,
                    "duration": 0.09933774999998946
                },
                {
                    "name": "E5",
                    "midi": 76,
                    "time": 132.91390949999843,
                    "velocity": 0.44881889763779526,
                    "duration": 0.09933774999998946
                },
                {
                    "name": "F5",
                    "midi": 77,
                    "time": 133.1125849999984,
                    "velocity": 0.5039370078740157,
                    "duration": 0.09933774999998946
                },
                {
                    "name": "E5",
                    "midi": 76,
                    "time": 133.2119227499984,
                    "velocity": 0.44881889763779526,
                    "duration": 0.09933774999998946
                },
                {
                    "name": "D5",
                    "midi": 74,
                    "time": 133.31126049999838,
                    "velocity": 0.44881889763779526,
                    "duration": 0.09933774999998946
                },
                {
                    "name": "C5",
                    "midi": 72,
                    "time": 133.41059824999837,
                    "velocity": 0.44881889763779526,
                    "duration": 0.09933774999998946
                },
                {
                    "name": "B4",
                    "midi": 71,
                    "time": 133.50993599999836,
                    "velocity": 0.5118110236220472,
                    "duration": 0.39735099999998624
                },
                {
                    "name": "G#4",
                    "midi": 68,
                    "time": 133.50993599999836,
                    "velocity": 0.5118110236220472,
                    "duration": 0.39735099999998624
                },
                {
                    "name": "B4",
                    "midi": 71,
                    "time": 133.90728699999835,
                    "velocity": 0.4409448818897638,
                    "duration": 0.09933774999998946
                },
                {
                    "name": "A4",
                    "midi": 69,
                    "time": 134.00662474999834,
                    "velocity": 0.4409448818897638,
                    "duration": 0.09933774999998946
                },
                {
                    "name": "G#4",
                    "midi": 68,
                    "time": 134.10596249999833,
                    "velocity": 0.4409448818897638,
                    "duration": 0.09933774999998946
                },
                {
                    "name": "A4",
                    "midi": 69,
                    "time": 134.20530024999832,
                    "velocity": 0.4409448818897638,
                    "duration": 0.09933774999998946
                },
                {
                    "name": "C5",
                    "midi": 72,
                    "time": 134.3046379999983,
                    "velocity": 0.4645669291338583,
                    "duration": 0.09933774999998946
                },
                {
                    "name": "D5",
                    "midi": 74,
                    "time": 134.7019889999983,
                    "velocity": 0.4881889763779528,
                    "duration": 0.09933774999998946
                },
                {
                    "name": "C5",
                    "midi": 72,
                    "time": 134.80132674999828,
                    "velocity": 0.44881889763779526,
                    "duration": 0.09933774999998946
                },
                {
                    "name": "B4",
                    "midi": 71,
                    "time": 134.90066449999827,
                    "velocity": 0.44881889763779526,
                    "duration": 0.09933774999998946
                },
                {
                    "name": "C5",
                    "midi": 72,
                    "time": 135.00000224999826,
                    "velocity": 0.44881889763779526,
                    "duration": 0.09933774999998946
                },
                {
                    "name": "E5",
                    "midi": 76,
                    "time": 135.09933999999825,
                    "velocity": 0.5196850393700787,
                    "duration": 0.09933774999998946
                },
                {
                    "name": "F5",
                    "midi": 77,
                    "time": 135.49669099999824,
                    "velocity": 0.49606299212598426,
                    "duration": 0.09933774999998946
                },
                {
                    "name": "E5",
                    "midi": 76,
                    "time": 135.59602874999823,
                    "velocity": 0.4566929133858268,
                    "duration": 0.09933774999998946
                },
                {
                    "name": "D#5",
                    "midi": 75,
                    "time": 135.69536649999822,
                    "velocity": 0.4566929133858268,
                    "duration": 0.09933774999998946
                },
                {
                    "name": "E5",
                    "midi": 76,
                    "time": 135.7947042499982,
                    "velocity": 0.4566929133858268,
                    "duration": 0.09933774999998946
                },
                {
                    "name": "B5",
                    "midi": 83,
                    "time": 135.8940419999982,
                    "velocity": 0.5511811023622047,
                    "duration": 0.09933774999998946
                },
                {
                    "name": "A5",
                    "midi": 81,
                    "time": 135.99337974999818,
                    "velocity": 0.49606299212598426,
                    "duration": 0.09933774999998946
                },
                {
                    "name": "G#5",
                    "midi": 80,
                    "time": 136.09271749999817,
                    "velocity": 0.49606299212598426,
                    "duration": 0.09933774999998946
                },
                {
                    "name": "A5",
                    "midi": 81,
                    "time": 136.19205524999816,
                    "velocity": 0.49606299212598426,
                    "duration": 0.09933774999998946
                },
                {
                    "name": "B5",
                    "midi": 83,
                    "time": 136.29139299999815,
                    "velocity": 0.5590551181102362,
                    "duration": 0.09933774999998946
                },
                {
                    "name": "A5",
                    "midi": 81,
                    "time": 136.39073074999814,
                    "velocity": 0.5039370078740157,
                    "duration": 0.09933774999998946
                },
                {
                    "name": "G#5",
                    "midi": 80,
                    "time": 136.49006849999813,
                    "velocity": 0.5039370078740157,
                    "duration": 0.09933774999998946
                },
                {
                    "name": "A5",
                    "midi": 81,
                    "time": 136.58940624999812,
                    "velocity": 0.5039370078740157,
                    "duration": 0.09933774999998946
                },
                {
                    "name": "C6",
                    "midi": 84,
                    "time": 136.6887439999981,
                    "velocity": 0.5984251968503937,
                    "duration": 0.39735099999998624
                },
                {
                    "name": "A5",
                    "midi": 81,
                    "time": 137.0860949999981,
                    "velocity": 0.4881889763779528,
                    "duration": 0.09933774999998946
                },
                {
                    "name": "B5",
                    "midi": 83,
                    "time": 137.28477049999807,
                    "velocity": 0.4881889763779528,
                    "duration": 0.09933774999998946
                },
                {
                    "name": "C6",
                    "midi": 84,
                    "time": 137.48344599999805,
                    "velocity": 0.5511811023622047,
                    "duration": 0.09933774999998946
                },
                {
                    "name": "B5",
                    "midi": 83,
                    "time": 137.68212149999803,
                    "velocity": 0.4881889763779528,
                    "duration": 0.09933774999998946
                },
                {
                    "name": "A5",
                    "midi": 81,
                    "time": 137.880796999998,
                    "velocity": 0.4881889763779528,
                    "duration": 0.09933774999998946
                },
                {
                    "name": "G#5",
                    "midi": 80,
                    "time": 138.079472499998,
                    "velocity": 0.4881889763779528,
                    "duration": 0.09933774999998946
                },
                {
                    "name": "A5",
                    "midi": 81,
                    "time": 138.27814799999797,
                    "velocity": 0.5590551181102362,
                    "duration": 0.09933774999998946
                },
                {
                    "name": "E5",
                    "midi": 76,
                    "time": 138.47682349999795,
                    "velocity": 0.5039370078740157,
                    "duration": 0.09933774999998946
                },
                {
                    "name": "F5",
                    "midi": 77,
                    "time": 138.67881025833128,
                    "velocity": 0.5039370078740157,
                    "duration": 0.09933774999998946
                },
                {
                    "name": "D5",
                    "midi": 74,
                    "time": 138.87417449999793,
                    "velocity": 0.5039370078740157,
                    "duration": 0.09933774999998946
                },
                {
                    "name": "C5",
                    "midi": 72,
                    "time": 139.0728499999979,
                    "velocity": 0.5826771653543307,
                    "duration": 0.39735099999998624
                },
                {
                    "name": "B4",
                    "midi": 71,
                    "time": 139.4702009999979,
                    "velocity": 0.5039370078740157,
                    "duration": 0.04966887500000894
                },
                {
                    "name": "C5",
                    "midi": 72,
                    "time": 139.5198698749979,
                    "velocity": 0.44881889763779526,
                    "duration": 0.04966887500000894
                },
                {
                    "name": "B4",
                    "midi": 71,
                    "time": 139.56953874999792,
                    "velocity": 0.44881889763779526,
                    "duration": 0.04966887500000894
                },
                {
                    "name": "C5",
                    "midi": 72,
                    "time": 139.61920762499793,
                    "velocity": 0.44881889763779526,
                    "duration": 0.04966887500000894
                },
                {
                    "name": "B4",
                    "midi": 71,
                    "time": 139.66887649999794,
                    "velocity": 0.44881889763779526,
                    "duration": 0.00331125833332635
                },
                {
                    "name": "C5",
                    "midi": 72,
                    "time": 139.70198908333126,
                    "velocity": 0.44881889763779526,
                    "duration": 0.033112583333320345
                },
                {
                    "name": "B4",
                    "midi": 71,
                    "time": 139.73510166666458,
                    "velocity": 0.44881889763779526,
                    "duration": 0.033112583333320345
                },
                {
                    "name": "A4",
                    "midi": 69,
                    "time": 139.7682142499979,
                    "velocity": 0.5039370078740157,
                    "duration": 0.04966887500000894
                },
                {
                    "name": "B4",
                    "midi": 71,
                    "time": 139.8178831249979,
                    "velocity": 0.44881889763779526,
                    "duration": 0.04966887500000894
                },
                {
                    "name": "A4",
                    "midi": 69,
                    "time": 139.86755199999791,
                    "velocity": 0.5118110236220472,
                    "duration": 0.3725165625000102
                },
                {
                    "name": "A4",
                    "midi": 69,
                    "time": 140.26490299999793,
                    "velocity": 0.6456692913385826,
                    "duration": 0.09933774999998946
                },
                {
                    "name": "A5",
                    "midi": 81,
                    "time": 140.36424074999792,
                    "velocity": 0.6220472440944882,
                    "duration": 0.09933774999998946
                },
                {
                    "name": "B4",
                    "midi": 71,
                    "time": 140.4635784999979,
                    "velocity": 0.6535433070866141,
                    "duration": 0.09933774999998946
                },
                {
                    "name": "B5",
                    "midi": 83,
                    "time": 140.5629162499979,
                    "velocity": 0.6299212598425197,
                    "duration": 0.09933774999998946
                },
                {
                    "name": "C#5",
                    "midi": 73,
                    "time": 140.6622539999979,
                    "velocity": 0.7007874015748031,
                    "duration": 0.09933774999998946
                },
                {
                    "name": "C#6",
                    "midi": 85,
                    "time": 140.76159174999788,
                    "velocity": 0.6614173228346457,
                    "duration": 0.09933774999998946
                },
                {
                    "name": "A4",
                    "midi": 69,
                    "time": 141.05960499999787,
                    "velocity": 0.6692913385826772,
                    "duration": 0.09933774999998946
                },
                {
                    "name": "A5",
                    "midi": 81,
                    "time": 141.15894274999786,
                    "velocity": 0.5748031496062992,
                    "duration": 0.09933774999998946
                },
                {
                    "name": "B4",
                    "midi": 71,
                    "time": 141.25828049999785,
                    "velocity": 0.6614173228346457,
                    "duration": 0.09933774999998946
                },
                {
                    "name": "B5",
                    "midi": 83,
                    "time": 141.35761824999784,
                    "velocity": 0.5669291338582677,
                    "duration": 0.09933774999998946
                },
                {
                    "name": "C#5",
                    "midi": 73,
                    "time": 141.45695599999783,
                    "velocity": 0.7086614173228346,
                    "duration": 0.09933774999998946
                },
                {
                    "name": "C#6",
                    "midi": 85,
                    "time": 141.55629374999782,
                    "velocity": 0.5905511811023622,
                    "duration": 0.09933774999998946
                },
                {
                    "name": "B4",
                    "midi": 71,
                    "time": 141.6556314999978,
                    "velocity": 0.6614173228346457,
                    "duration": 0.09933774999998946
                },
                {
                    "name": "B5",
                    "midi": 83,
                    "time": 141.7549692499978,
                    "velocity": 0.5748031496062992,
                    "duration": 0.09933774999998946
                },
                {
                    "name": "A4",
                    "midi": 69,
                    "time": 141.8543069999978,
                    "velocity": 0.6850393700787402,
                    "duration": 0.09933774999998946
                },
                {
                    "name": "A5",
                    "midi": 81,
                    "time": 141.95364474999778,
                    "velocity": 0.5826771653543307,
                    "duration": 0.09933774999998946
                },
                {
                    "name": "G#4",
                    "midi": 68,
                    "time": 142.05298249999777,
                    "velocity": 0.6535433070866141,
                    "duration": 0.09933774999998946
                },
                {
                    "name": "G#5",
                    "midi": 80,
                    "time": 142.15232024999776,
                    "velocity": 0.5984251968503937,
                    "duration": 0.09933774999998946
                },
                {
                    "name": "F#4",
                    "midi": 66,
                    "time": 142.25165799999775,
                    "velocity": 0.6929133858267716,
                    "duration": 0.09933774999998946
                },
                {
                    "name": "F#5",
                    "midi": 78,
                    "time": 142.35099574999774,
                    "velocity": 0.5905511811023622,
                    "duration": 0.09933774999998946
                },
                {
                    "name": "G#4",
                    "midi": 68,
                    "time": 142.45033349999773,
                    "velocity": 0.6535433070866141,
                    "duration": 0.09933774999998946
                },
                {
                    "name": "G#5",
                    "midi": 80,
                    "time": 142.54967124999771,
                    "velocity": 0.5433070866141733,
                    "duration": 0.09933774999998946
                },
                {
                    "name": "A4",
                    "midi": 69,
                    "time": 142.6490089999977,
                    "velocity": 0.6220472440944882,
                    "duration": 0.09933774999998946
                },
                {
                    "name": "A5",
                    "midi": 81,
                    "time": 142.7483467499977,
                    "velocity": 0.5590551181102362,
                    "duration": 0.09933774999998946
                },
                {
                    "name": "B4",
                    "midi": 71,
                    "time": 142.84768449999768,
                    "velocity": 0.6377952755905512,
                    "duration": 0.09933774999998946
                },
                {
                    "name": "B5",
                    "midi": 83,
                    "time": 142.94702224999767,
                    "velocity": 0.5748031496062992,
                    "duration": 0.09933774999998946
                },
                {
                    "name": "G#4",
                    "midi": 68,
                    "time": 143.04635999999766,
                    "velocity": 0.6771653543307087,
                    "duration": 0.09933774999998946
                },
                {
                    "name": "G#5",
                    "midi": 80,
                    "time": 143.14569774999765,
                    "velocity": 0.5748031496062992,
                    "duration": 0.09933774999998946
                },
                {
                    "name": "E4",
                    "midi": 64,
                    "time": 143.24503549999764,
                    "velocity": 0.6377952755905512,
                    "duration": 0.09933774999998946
                },
                {
                    "name": "E5",
                    "midi": 76,
                    "time": 143.34437324999763,
                    "velocity": 0.5669291338582677,
                    "duration": 0.09933774999998946
                },
                {
                    "name": "A4",
                    "midi": 69,
                    "time": 143.44371099999762,
                    "velocity": 0.6535433070866141,
                    "duration": 0.09933774999998946
                },
                {
                    "name": "A5",
                    "midi": 81,
                    "time": 143.5430487499976,
                    "velocity": 0.5748031496062992,
                    "duration": 0.09933774999998946
                },
                {
                    "name": "B4",
                    "midi": 71,
                    "time": 143.6423864999976,
                    "velocity": 0.6456692913385826,
                    "duration": 0.09933774999998946
                },
                {
                    "name": "B5",
                    "midi": 83,
                    "time": 143.7417242499976,
                    "velocity": 0.5748031496062992,
                    "duration": 0.09933774999998946
                },
                {
                    "name": "C#5",
                    "midi": 73,
                    "time": 143.84106199999758,
                    "velocity": 0.7007874015748031,
                    "duration": 0.09933774999998946
                },
                {
                    "name": "C#6",
                    "midi": 85,
                    "time": 143.94039974999757,
                    "velocity": 0.6062992125984252,
                    "duration": 0.09933774999998946
                },
                {
                    "name": "A4",
                    "midi": 69,
                    "time": 144.23841299999756,
                    "velocity": 0.6692913385826772,
                    "duration": 0.09933774999998946
                },
                {
                    "name": "A5",
                    "midi": 81,
                    "time": 144.33775074999755,
                    "velocity": 0.5984251968503937,
                    "duration": 0.09933774999998946
                },
                {
                    "name": "B4",
                    "midi": 71,
                    "time": 144.43708849999754,
                    "velocity": 0.6614173228346457,
                    "duration": 0.09933774999998946
                },
                {
                    "name": "B5",
                    "midi": 83,
                    "time": 144.53642624999753,
                    "velocity": 0.6062992125984252,
                    "duration": 0.09933774999998946
                },
                {
                    "name": "C#5",
                    "midi": 73,
                    "time": 144.63576399999752,
                    "velocity": 0.7244094488188977,
                    "duration": 0.09933774999998946
                },
                {
                    "name": "C#6",
                    "midi": 85,
                    "time": 144.7351017499975,
                    "velocity": 0.6062992125984252,
                    "duration": 0.09933774999998946
                },
                {
                    "name": "B4",
                    "midi": 71,
                    "time": 144.8344394999975,
                    "velocity": 0.6614173228346457,
                    "duration": 0.09933774999998946
                },
                {
                    "name": "B5",
                    "midi": 83,
                    "time": 144.9337772499975,
                    "velocity": 0.5905511811023622,
                    "duration": 0.09933774999998946
                },
                {
                    "name": "A4",
                    "midi": 69,
                    "time": 145.03311499999748,
                    "velocity": 0.6929133858267716,
                    "duration": 0.09933774999998946
                },
                {
                    "name": "A5",
                    "midi": 81,
                    "time": 145.13245274999747,
                    "velocity": 0.6062992125984252,
                    "duration": 0.09933774999998946
                },
                {
                    "name": "G#4",
                    "midi": 68,
                    "time": 145.23179049999746,
                    "velocity": 0.6614173228346457,
                    "duration": 0.09933774999998946
                },
                {
                    "name": "G#5",
                    "midi": 80,
                    "time": 145.33112824999745,
                    "velocity": 0.5905511811023622,
                    "duration": 0.09933774999998946
                },
                {
                    "name": "F#4",
                    "midi": 66,
                    "time": 145.43046599999744,
                    "velocity": 0.7165354330708661,
                    "duration": 0.09933774999998946
                },
                {
                    "name": "F#5",
                    "midi": 78,
                    "time": 145.52980374999743,
                    "velocity": 0.6220472440944882,
                    "duration": 0.09933774999998946
                },
                {
                    "name": "B4",
                    "midi": 71,
                    "time": 145.62914149999742,
                    "velocity": 0.6456692913385826,
                    "duration": 0.09933774999998946
                },
                {
                    "name": "B5",
                    "midi": 83,
                    "time": 145.7284792499974,
                    "velocity": 0.5669291338582677,
                    "duration": 0.09933774999998946
                },
                {
                    "name": "G#4",
                    "midi": 68,
                    "time": 145.8278169999974,
                    "velocity": 0.6771653543307087,
                    "duration": 0.09933774999998946
                },
                {
                    "name": "G#5",
                    "midi": 80,
                    "time": 145.92715474999738,
                    "velocity": 0.5905511811023622,
                    "duration": 0.09933774999998946
                },
                {
                    "name": "E4",
                    "midi": 64,
                    "time": 146.02649249999737,
                    "velocity": 0.6299212598425197,
                    "duration": 0.09933774999998946
                },
                {
                    "name": "E5",
                    "midi": 76,
                    "time": 146.12583024999736,
                    "velocity": 0.5826771653543307,
                    "duration": 0.09933774999998946
                },
                {
                    "name": "A4",
                    "midi": 69,
                    "time": 146.22516799999735,
                    "velocity": 0.6141732283464567,
                    "duration": 0.3725165625000102
                },
                {
                    "name": "A5",
                    "midi": 81,
                    "time": 146.22516799999735,
                    "velocity": 0.7086614173228346,
                    "duration": 0.3725165625000102
                },
                {
                    "name": "A4",
                    "midi": 69,
                    "time": 146.62251899999737,
                    "velocity": 0.6456692913385826,
                    "duration": 0.09933774999998946
                },
                {
                    "name": "A5",
                    "midi": 81,
                    "time": 146.72185674999736,
                    "velocity": 0.6220472440944882,
                    "duration": 0.09933774999998946
                },
                {
                    "name": "B4",
                    "midi": 71,
                    "time": 146.82119449999735,
                    "velocity": 0.6535433070866141,
                    "duration": 0.09933774999998946
                },
                {
                    "name": "B5",
                    "midi": 83,
                    "time": 146.92053224999734,
                    "velocity": 0.6299212598425197,
                    "duration": 0.09933774999998946
                },
                {
                    "name": "C#5",
                    "midi": 73,
                    "time": 147.01986999999733,
                    "velocity": 0.7007874015748031,
                    "duration": 0.09933774999998946
                },
                {
                    "name": "C#6",
                    "midi": 85,
                    "time": 147.11920774999732,
                    "velocity": 0.6614173228346457,
                    "duration": 0.09933774999998946
                },
                {
                    "name": "A4",
                    "midi": 69,
                    "time": 147.4172209999973,
                    "velocity": 0.6692913385826772,
                    "duration": 0.09933774999998946
                },
                {
                    "name": "A5",
                    "midi": 81,
                    "time": 147.5165587499973,
                    "velocity": 0.5748031496062992,
                    "duration": 0.09933774999998946
                },
                {
                    "name": "B4",
                    "midi": 71,
                    "time": 147.6158964999973,
                    "velocity": 0.6614173228346457,
                    "duration": 0.09933774999998946
                },
                {
                    "name": "B5",
                    "midi": 83,
                    "time": 147.71523424999728,
                    "velocity": 0.5669291338582677,
                    "duration": 0.09933774999998946
                },
                {
                    "name": "C#5",
                    "midi": 73,
                    "time": 147.81457199999727,
                    "velocity": 0.7086614173228346,
                    "duration": 0.09933774999998946
                },
                {
                    "name": "C#6",
                    "midi": 85,
                    "time": 147.91390974999726,
                    "velocity": 0.5905511811023622,
                    "duration": 0.09933774999998946
                },
                {
                    "name": "B4",
                    "midi": 71,
                    "time": 148.01324749999725,
                    "velocity": 0.6614173228346457,
                    "duration": 0.09933774999998946
                },
                {
                    "name": "B5",
                    "midi": 83,
                    "time": 148.11258524999724,
                    "velocity": 0.5748031496062992,
                    "duration": 0.09933774999998946
                },
                {
                    "name": "A4",
                    "midi": 69,
                    "time": 148.21192299999723,
                    "velocity": 0.6850393700787402,
                    "duration": 0.09933774999998946
                },
                {
                    "name": "A5",
                    "midi": 81,
                    "time": 148.31126074999722,
                    "velocity": 0.5826771653543307,
                    "duration": 0.09933774999998946
                },
                {
                    "name": "G#4",
                    "midi": 68,
                    "time": 148.4105984999972,
                    "velocity": 0.6535433070866141,
                    "duration": 0.09933774999998946
                },
                {
                    "name": "G#5",
                    "midi": 80,
                    "time": 148.5099362499972,
                    "velocity": 0.5984251968503937,
                    "duration": 0.09933774999998946
                },
                {
                    "name": "F#4",
                    "midi": 66,
                    "time": 148.60927399999719,
                    "velocity": 0.6929133858267716,
                    "duration": 0.09933774999998946
                },
                {
                    "name": "F#5",
                    "midi": 78,
                    "time": 148.70861174999717,
                    "velocity": 0.5905511811023622,
                    "duration": 0.09933774999998946
                },
                {
                    "name": "G#4",
                    "midi": 68,
                    "time": 148.80794949999716,
                    "velocity": 0.6535433070866141,
                    "duration": 0.09933774999998946
                },
                {
                    "name": "G#5",
                    "midi": 80,
                    "time": 148.90728724999715,
                    "velocity": 0.5433070866141733,
                    "duration": 0.09933774999998946
                },
                {
                    "name": "A4",
                    "midi": 69,
                    "time": 149.00662499999714,
                    "velocity": 0.6220472440944882,
                    "duration": 0.09933774999998946
                },
                {
                    "name": "A5",
                    "midi": 81,
                    "time": 149.10596274999713,
                    "velocity": 0.5590551181102362,
                    "duration": 0.09933774999998946
                },
                {
                    "name": "B4",
                    "midi": 71,
                    "time": 149.20530049999712,
                    "velocity": 0.6377952755905512,
                    "duration": 0.09933774999998946
                },
                {
                    "name": "B5",
                    "midi": 83,
                    "time": 149.3046382499971,
                    "velocity": 0.5748031496062992,
                    "duration": 0.09933774999998946
                },
                {
                    "name": "G#4",
                    "midi": 68,
                    "time": 149.4039759999971,
                    "velocity": 0.6771653543307087,
                    "duration": 0.09933774999998946
                },
                {
                    "name": "G#5",
                    "midi": 80,
                    "time": 149.5033137499971,
                    "velocity": 0.5748031496062992,
                    "duration": 0.09933774999998946
                },
                {
                    "name": "E4",
                    "midi": 64,
                    "time": 149.60265149999708,
                    "velocity": 0.6377952755905512,
                    "duration": 0.09933774999998946
                },
                {
                    "name": "E5",
                    "midi": 76,
                    "time": 149.70198924999707,
                    "velocity": 0.5669291338582677,
                    "duration": 0.09933774999998946
                },
                {
                    "name": "A4",
                    "midi": 69,
                    "time": 149.80132699999706,
                    "velocity": 0.6535433070866141,
                    "duration": 0.09933774999998946
                },
                {
                    "name": "A5",
                    "midi": 81,
                    "time": 149.90066474999705,
                    "velocity": 0.5748031496062992,
                    "duration": 0.09933774999998946
                },
                {
                    "name": "B4",
                    "midi": 71,
                    "time": 150.00000249999704,
                    "velocity": 0.6456692913385826,
                    "duration": 0.09933774999998946
                },
                {
                    "name": "B5",
                    "midi": 83,
                    "time": 150.09934024999703,
                    "velocity": 0.5748031496062992,
                    "duration": 0.09933774999998946
                },
                {
                    "name": "C#5",
                    "midi": 73,
                    "time": 150.19867799999702,
                    "velocity": 0.7007874015748031,
                    "duration": 0.09933774999998946
                },
                {
                    "name": "C#6",
                    "midi": 85,
                    "time": 150.298015749997,
                    "velocity": 0.6062992125984252,
                    "duration": 0.09933774999998946
                },
                {
                    "name": "A4",
                    "midi": 69,
                    "time": 150.596028999997,
                    "velocity": 0.6692913385826772,
                    "duration": 0.09933774999998946
                },
                {
                    "name": "A5",
                    "midi": 81,
                    "time": 150.695366749997,
                    "velocity": 0.5984251968503937,
                    "duration": 0.09933774999998946
                },
                {
                    "name": "B4",
                    "midi": 71,
                    "time": 150.79470449999698,
                    "velocity": 0.6614173228346457,
                    "duration": 0.09933774999998946
                },
                {
                    "name": "B5",
                    "midi": 83,
                    "time": 150.89404224999697,
                    "velocity": 0.6062992125984252,
                    "duration": 0.09933774999998946
                },
                {
                    "name": "C#5",
                    "midi": 73,
                    "time": 150.99337999999696,
                    "velocity": 0.7244094488188977,
                    "duration": 0.09933774999998946
                },
                {
                    "name": "C#6",
                    "midi": 85,
                    "time": 151.09271774999695,
                    "velocity": 0.6062992125984252,
                    "duration": 0.09933774999998946
                },
                {
                    "name": "B4",
                    "midi": 71,
                    "time": 151.19205549999694,
                    "velocity": 0.6614173228346457,
                    "duration": 0.09933774999998946
                },
                {
                    "name": "B5",
                    "midi": 83,
                    "time": 151.29139324999693,
                    "velocity": 0.5905511811023622,
                    "duration": 0.09933774999998946
                },
                {
                    "name": "A4",
                    "midi": 69,
                    "time": 151.39073099999692,
                    "velocity": 0.6929133858267716,
                    "duration": 0.09933774999998946
                },
                {
                    "name": "A5",
                    "midi": 81,
                    "time": 151.4900687499969,
                    "velocity": 0.6062992125984252,
                    "duration": 0.09933774999998946
                },
                {
                    "name": "G#4",
                    "midi": 68,
                    "time": 151.5894064999969,
                    "velocity": 0.6614173228346457,
                    "duration": 0.09933774999998946
                },
                {
                    "name": "G#5",
                    "midi": 80,
                    "time": 151.6887442499969,
                    "velocity": 0.5905511811023622,
                    "duration": 0.09933774999998946
                },
                {
                    "name": "F#4",
                    "midi": 66,
                    "time": 151.78808199999688,
                    "velocity": 0.7165354330708661,
                    "duration": 0.09933774999998946
                },
                {
                    "name": "F#5",
                    "midi": 78,
                    "time": 151.88741974999687,
                    "velocity": 0.6220472440944882,
                    "duration": 0.09933774999998946
                },
                {
                    "name": "B4",
                    "midi": 71,
                    "time": 151.98675749999686,
                    "velocity": 0.6456692913385826,
                    "duration": 0.09933774999998946
                },
                {
                    "name": "B5",
                    "midi": 83,
                    "time": 152.08609524999684,
                    "velocity": 0.5669291338582677,
                    "duration": 0.09933774999998946
                },
                {
                    "name": "G#4",
                    "midi": 68,
                    "time": 152.18543299999683,
                    "velocity": 0.6771653543307087,
                    "duration": 0.09933774999998946
                },
                {
                    "name": "G#5",
                    "midi": 80,
                    "time": 152.28477074999682,
                    "velocity": 0.5905511811023622,
                    "duration": 0.09933774999998946
                },
                {
                    "name": "E4",
                    "midi": 64,
                    "time": 152.3841084999968,
                    "velocity": 0.6299212598425197,
                    "duration": 0.09933774999998946
                },
                {
                    "name": "E5",
                    "midi": 76,
                    "time": 152.4834462499968,
                    "velocity": 0.5826771653543307,
                    "duration": 0.09933774999998946
                },
                {
                    "name": "A4",
                    "midi": 69,
                    "time": 152.5827839999968,
                    "velocity": 0.6141732283464567,
                    "duration": 0.39735099999998624
                },
                {
                    "name": "A5",
                    "midi": 81,
                    "time": 152.5827839999968,
                    "velocity": 0.7086614173228346,
                    "duration": 0.39735099999998624
                },
                {
                    "name": "C#6",
                    "midi": 85,
                    "time": 152.98013499999678,
                    "velocity": 0.7086614173228346,
                    "duration": 0.2980132499999968
                },
                {
                    "name": "C#5",
                    "midi": 73,
                    "time": 152.98013499999678,
                    "velocity": 0.6141732283464567,
                    "duration": 0.3973510000000431
                },
                {
                    "name": "C#6",
                    "midi": 85,
                    "time": 153.27814824999678,
                    "velocity": 0.7086614173228346,
                    "duration": 0.07450331250001341
                },
                {
                    "name": "C#5",
                    "midi": 73,
                    "time": 153.3526515624968,
                    "velocity": 0.5826771653543307,
                    "duration": 0.42218543750001913
                },
                {
                    "name": "E5",
                    "midi": 76,
                    "time": 153.36092970833013,
                    "velocity": 0.6062992125984252,
                    "duration": 0.41390729166667484
                },
                {
                    "name": "A5",
                    "midi": 81,
                    "time": 153.36920785416348,
                    "velocity": 0.6299212598425197,
                    "duration": 0.40562914583333054
                },
                {
                    "name": "C#6",
                    "midi": 85,
                    "time": 153.37748599999682,
                    "velocity": 0.7086614173228346,
                    "duration": 0.7947020000000293
                },
                {
                    "name": "C#5",
                    "midi": 73,
                    "time": 154.14735356249682,
                    "velocity": 0.5826771653543307,
                    "duration": 0.42218543750001913
                },
                {
                    "name": "E5",
                    "midi": 76,
                    "time": 154.15563170833016,
                    "velocity": 0.6062992125984252,
                    "duration": 0.41390729166667484
                },
                {
                    "name": "A5",
                    "midi": 81,
                    "time": 154.1639098541635,
                    "velocity": 0.6299212598425197,
                    "duration": 0.40562914583333054
                },
                {
                    "name": "C#6",
                    "midi": 85,
                    "time": 154.17218799999685,
                    "velocity": 0.7086614173228346,
                    "duration": 0.7947019999999725
                },
                {
                    "name": "D6",
                    "midi": 86,
                    "time": 154.96688999999682,
                    "velocity": 0.7086614173228346,
                    "duration": 0.09933774999998946
                },
                {
                    "name": "C#6",
                    "midi": 85,
                    "time": 155.0662277499968,
                    "velocity": 0.6850393700787402,
                    "duration": 0.09933774999998946
                },
                {
                    "name": "B5",
                    "midi": 83,
                    "time": 155.1655654999968,
                    "velocity": 0.6771653543307087,
                    "duration": 0.04966887500000894
                },
                {
                    "name": "C#6",
                    "midi": 85,
                    "time": 155.26490324999682,
                    "velocity": 0.6771653543307087,
                    "duration": 0.04966887500000894
                },
                {
                    "name": "D6",
                    "midi": 86,
                    "time": 155.36424099999684,
                    "velocity": 0.7086614173228346,
                    "duration": 0.09933774999998946
                },
                {
                    "name": "C#6",
                    "midi": 85,
                    "time": 155.46357874999683,
                    "velocity": 0.6614173228346457,
                    "duration": 0.09933774999998946
                },
                {
                    "name": "B5",
                    "midi": 83,
                    "time": 155.56291649999682,
                    "velocity": 0.6614173228346457,
                    "duration": 0.04966887500000894
                },
                {
                    "name": "C#6",
                    "midi": 85,
                    "time": 155.66225424999683,
                    "velocity": 0.6692913385826772,
                    "duration": 0.04966887500000894
                },
                {
                    "name": "F#5",
                    "midi": 78,
                    "time": 155.76159199999685,
                    "velocity": 0.6299212598425197,
                    "duration": 0.7947020000000009
                },
                {
                    "name": "A5",
                    "midi": 81,
                    "time": 155.76159199999685,
                    "velocity": 0.6299212598425197,
                    "duration": 0.7947020000000009
                },
                {
                    "name": "D6",
                    "midi": 86,
                    "time": 155.76159199999685,
                    "velocity": 0.7086614173228346,
                    "duration": 0.7947020000000009
                },
                {
                    "name": "D6",
                    "midi": 86,
                    "time": 156.53145956249685,
                    "velocity": 0.5984251968503937,
                    "duration": 0.02483443750000447
                },
                {
                    "name": "E5",
                    "midi": 76,
                    "time": 156.55629399999685,
                    "velocity": 0.5984251968503937,
                    "duration": 0.04966887500000894
                },
                {
                    "name": "A5",
                    "midi": 81,
                    "time": 156.55629399999685,
                    "velocity": 0.5984251968503937,
                    "duration": 0.04966887500000894
                },
                {
                    "name": "C#6",
                    "midi": 85,
                    "time": 156.55629399999685,
                    "velocity": 0.7086614173228346,
                    "duration": 0.04966887500000894
                },
                {
                    "name": "D6",
                    "midi": 86,
                    "time": 156.73013506249686,
                    "velocity": 0.5984251968503937,
                    "duration": 0.02483443750000447
                },
                {
                    "name": "E5",
                    "midi": 76,
                    "time": 156.75496949999686,
                    "velocity": 0.5669291338582677,
                    "duration": 0.04966887500000894
                },
                {
                    "name": "A5",
                    "midi": 81,
                    "time": 156.75496949999686,
                    "velocity": 0.5669291338582677,
                    "duration": 0.04966887500000894
                },
                {
                    "name": "C#6",
                    "midi": 85,
                    "time": 156.75496949999686,
                    "velocity": 0.6692913385826772,
                    "duration": 0.04966887500000894
                },
                {
                    "name": "D6",
                    "midi": 86,
                    "time": 156.92881056249686,
                    "velocity": 0.5984251968503937,
                    "duration": 0.02483443750000447
                },
                {
                    "name": "E5",
                    "midi": 76,
                    "time": 156.95364499999687,
                    "velocity": 0.5669291338582677,
                    "duration": 0.04966887500000894
                },
                {
                    "name": "A5",
                    "midi": 81,
                    "time": 156.95364499999687,
                    "velocity": 0.5669291338582677,
                    "duration": 0.04966887500000894
                },
                {
                    "name": "C#6",
                    "midi": 85,
                    "time": 156.95364499999687,
                    "velocity": 0.6692913385826772,
                    "duration": 0.04966887500000894
                },
                {
                    "name": "D6",
                    "midi": 86,
                    "time": 157.12748606249687,
                    "velocity": 0.5984251968503937,
                    "duration": 0.02483443750000447
                },
                {
                    "name": "E5",
                    "midi": 76,
                    "time": 157.15232049999688,
                    "velocity": 0.5669291338582677,
                    "duration": 0.04966887500000894
                },
                {
                    "name": "A5",
                    "midi": 81,
                    "time": 157.15232049999688,
                    "velocity": 0.5669291338582677,
                    "duration": 0.04966887500000894
                },
                {
                    "name": "C#6",
                    "midi": 85,
                    "time": 157.15232049999688,
                    "velocity": 0.6692913385826772,
                    "duration": 0.04966887500000894
                },
                {
                    "name": "E5",
                    "midi": 76,
                    "time": 157.35099599999688,
                    "velocity": 0.6299212598425197,
                    "duration": 0.7947020000000578
                },
                {
                    "name": "G#5",
                    "midi": 80,
                    "time": 157.35099599999688,
                    "velocity": 0.6299212598425197,
                    "duration": 0.7947020000000578
                },
                {
                    "name": "B5",
                    "midi": 83,
                    "time": 157.35099599999688,
                    "velocity": 0.7086614173228346,
                    "duration": 0.6953642500000115
                },
                {
                    "name": "E6",
                    "midi": 88,
                    "time": 158.0463602499969,
                    "velocity": 0.8110236220472441,
                    "duration": 0.07450331250001341
                },
                {
                    "name": "C#5",
                    "midi": 73,
                    "time": 158.1208635624969,
                    "velocity": 0.5826771653543307,
                    "duration": 0.42218543750001913
                },
                {
                    "name": "E5",
                    "midi": 76,
                    "time": 158.12914170833025,
                    "velocity": 0.6062992125984252,
                    "duration": 0.41390729166667484
                },
                {
                    "name": "A5",
                    "midi": 81,
                    "time": 158.1374198541636,
                    "velocity": 0.6299212598425197,
                    "duration": 0.40562914583333054
                },
                {
                    "name": "C#6",
                    "midi": 85,
                    "time": 158.14569799999694,
                    "velocity": 0.7086614173228346,
                    "duration": 0.7947020000000293
                },
                {
                    "name": "C#5",
                    "midi": 73,
                    "time": 158.91556556249694,
                    "velocity": 0.5826771653543307,
                    "duration": 0.42218543750001913
                },
                {
                    "name": "E5",
                    "midi": 76,
                    "time": 158.92384370833028,
                    "velocity": 0.6062992125984252,
                    "duration": 0.41390729166667484
                },
                {
                    "name": "A5",
                    "midi": 81,
                    "time": 158.93212185416363,
                    "velocity": 0.6299212598425197,
                    "duration": 0.40562914583333054
                },
                {
                    "name": "C#6",
                    "midi": 85,
                    "time": 158.94039999999697,
                    "velocity": 0.7086614173228346,
                    "duration": 0.7947019999999725
                },
                {
                    "name": "D6",
                    "midi": 86,
                    "time": 159.73510199999694,
                    "velocity": 0.7086614173228346,
                    "duration": 0.09933774999998946
                },
                {
                    "name": "C#6",
                    "midi": 85,
                    "time": 159.83443974999693,
                    "velocity": 0.6850393700787402,
                    "duration": 0.09933774999998946
                },
                {
                    "name": "B5",
                    "midi": 83,
                    "time": 159.93377749999692,
                    "velocity": 0.6771653543307087,
                    "duration": 0.04966887500000894
                },
                {
                    "name": "C#6",
                    "midi": 85,
                    "time": 160.03311524999694,
                    "velocity": 0.6771653543307087,
                    "duration": 0.04966887500000894
                },
                {
                    "name": "D6",
                    "midi": 86,
                    "time": 160.13245299999696,
                    "velocity": 0.7086614173228346,
                    "duration": 0.09933774999998946
                },
                {
                    "name": "C#6",
                    "midi": 85,
                    "time": 160.23179074999695,
                    "velocity": 0.6614173228346457,
                    "duration": 0.09933774999998946
                },
                {
                    "name": "B5",
                    "midi": 83,
                    "time": 160.33112849999694,
                    "velocity": 0.6614173228346457,
                    "duration": 0.04966887500000894
                },
                {
                    "name": "C#6",
                    "midi": 85,
                    "time": 160.43046624999695,
                    "velocity": 0.6692913385826772,
                    "duration": 0.04966887500000894
                },
                {
                    "name": "F#5",
                    "midi": 78,
                    "time": 160.52980399999697,
                    "velocity": 0.6299212598425197,
                    "duration": 0.7947020000000009
                },
                {
                    "name": "A5",
                    "midi": 81,
                    "time": 160.52980399999697,
                    "velocity": 0.6299212598425197,
                    "duration": 0.7947020000000009
                },
                {
                    "name": "D6",
                    "midi": 86,
                    "time": 160.52980399999697,
                    "velocity": 0.7086614173228346,
                    "duration": 0.7947020000000009
                },
                {
                    "name": "D6",
                    "midi": 86,
                    "time": 161.29967156249697,
                    "velocity": 0.5984251968503937,
                    "duration": 0.02483443750000447
                },
                {
                    "name": "E5",
                    "midi": 76,
                    "time": 161.32450599999697,
                    "velocity": 0.5984251968503937,
                    "duration": 0.7947020000000009
                },
                {
                    "name": "A5",
                    "midi": 81,
                    "time": 161.32450599999697,
                    "velocity": 0.5984251968503937,
                    "duration": 0.7947020000000009
                },
                {
                    "name": "C#6",
                    "midi": 85,
                    "time": 161.32450599999697,
                    "velocity": 0.7086614173228346,
                    "duration": 0.7947020000000009
                },
                {
                    "name": "C#6",
                    "midi": 85,
                    "time": 162.09437356249697,
                    "velocity": 0.5984251968503937,
                    "duration": 0.02483443750000447
                },
                {
                    "name": "E5",
                    "midi": 76,
                    "time": 162.11920799999697,
                    "velocity": 0.5984251968503937,
                    "duration": 0.04966887500000894
                },
                {
                    "name": "G#5",
                    "midi": 80,
                    "time": 162.11920799999697,
                    "velocity": 0.5984251968503937,
                    "duration": 0.04966887500000894
                },
                {
                    "name": "B5",
                    "midi": 83,
                    "time": 162.11920799999697,
                    "velocity": 0.7086614173228346,
                    "duration": 0.04966887500000894
                },
                {
                    "name": "C#6",
                    "midi": 85,
                    "time": 162.29304906249698,
                    "velocity": 0.5984251968503937,
                    "duration": 0.02483443750000447
                },
                {
                    "name": "E5",
                    "midi": 76,
                    "time": 162.31788349999698,
                    "velocity": 0.5669291338582677,
                    "duration": 0.04966887500000894
                },
                {
                    "name": "G#5",
                    "midi": 80,
                    "time": 162.31788349999698,
                    "velocity": 0.5669291338582677,
                    "duration": 0.04966887500000894
                },
                {
                    "name": "B5",
                    "midi": 83,
                    "time": 162.31788349999698,
                    "velocity": 0.6692913385826772,
                    "duration": 0.04966887500000894
                },
                {
                    "name": "C#6",
                    "midi": 85,
                    "time": 162.49172456249698,
                    "velocity": 0.5984251968503937,
                    "duration": 0.02483443750000447
                },
                {
                    "name": "E5",
                    "midi": 76,
                    "time": 162.516558999997,
                    "velocity": 0.5669291338582677,
                    "duration": 0.04966887500000894
                },
                {
                    "name": "G#5",
                    "midi": 80,
                    "time": 162.516558999997,
                    "velocity": 0.5669291338582677,
                    "duration": 0.04966887500000894
                },
                {
                    "name": "B5",
                    "midi": 83,
                    "time": 162.516558999997,
                    "velocity": 0.6692913385826772,
                    "duration": 0.04966887500000894
                },
                {
                    "name": "C#6",
                    "midi": 85,
                    "time": 162.690400062497,
                    "velocity": 0.5984251968503937,
                    "duration": 0.02483443750000447
                },
                {
                    "name": "E5",
                    "midi": 76,
                    "time": 162.715234499997,
                    "velocity": 0.5669291338582677,
                    "duration": 0.04966887500000894
                },
                {
                    "name": "G#5",
                    "midi": 80,
                    "time": 162.715234499997,
                    "velocity": 0.5669291338582677,
                    "duration": 0.04966887500000894
                },
                {
                    "name": "B5",
                    "midi": 83,
                    "time": 162.715234499997,
                    "velocity": 0.6692913385826772,
                    "duration": 0.04966887500000894
                },
                {
                    "name": "A5",
                    "midi": 81,
                    "time": 162.913909999997,
                    "velocity": 0.7086614173228346,
                    "duration": 0.3476821250000057
                },
                {
                    "name": "E5",
                    "midi": 76,
                    "time": 163.261592124997,
                    "velocity": 0.4330708661417323,
                    "duration": 0.02483443750000447
                },
                {
                    "name": "A5",
                    "midi": 81,
                    "time": 163.286426562497,
                    "velocity": 0.47244094488188976,
                    "duration": 0.02483443750000447
                },
                {
                    "name": "C#6",
                    "midi": 85,
                    "time": 163.31126099999702,
                    "velocity": 0.5275590551181102,
                    "duration": 0.2980132499999968
                },
                {
                    "name": "C#6",
                    "midi": 85,
                    "time": 163.60927424999701,
                    "velocity": 0.49606299212598426,
                    "duration": 0.04966887500000894
                },
                {
                    "name": "E5",
                    "midi": 76,
                    "time": 163.65894312499702,
                    "velocity": 0.4330708661417323,
                    "duration": 0.02483443750000447
                },
                {
                    "name": "A5",
                    "midi": 81,
                    "time": 163.68377756249703,
                    "velocity": 0.47244094488188976,
                    "duration": 0.02483443750000447
                },
                {
                    "name": "C#6",
                    "midi": 85,
                    "time": 163.70861199999703,
                    "velocity": 0.5511811023622047,
                    "duration": 0.745033124999992
                },
                {
                    "name": "E5",
                    "midi": 76,
                    "time": 164.45364512499702,
                    "velocity": 0.4330708661417323,
                    "duration": 0.02483443750000447
                },
                {
                    "name": "A5",
                    "midi": 81,
                    "time": 164.47847956249703,
                    "velocity": 0.47244094488188976,
                    "duration": 0.02483443750000447
                },
                {
                    "name": "C#6",
                    "midi": 85,
                    "time": 164.50331399999703,
                    "velocity": 0.5433070866141733,
                    "duration": 0.7947020000000009
                },
                {
                    "name": "D6",
                    "midi": 86,
                    "time": 165.29801599999703,
                    "velocity": 0.5433070866141733,
                    "duration": 0.09933774999998946
                },
                {
                    "name": "C#6",
                    "midi": 85,
                    "time": 165.39735374999702,
                    "velocity": 0.47244094488188976,
                    "duration": 0.09933774999998946
                },
                {
                    "name": "B5",
                    "midi": 83,
                    "time": 165.496691499997,
                    "velocity": 0.47244094488188976,
                    "duration": 0.04966887500000894
                },
                {
                    "name": "C#6",
                    "midi": 85,
                    "time": 165.59602924999703,
                    "velocity": 0.47244094488188976,
                    "duration": 0.04966887500000894
                },
                {
                    "name": "D6",
                    "midi": 86,
                    "time": 165.69536699999705,
                    "velocity": 0.5354330708661418,
                    "duration": 0.09933774999998946
                },
                {
                    "name": "C#6",
                    "midi": 85,
                    "time": 165.79470474999704,
                    "velocity": 0.48031496062992124,
                    "duration": 0.09933774999998946
                },
                {
                    "name": "B5",
                    "midi": 83,
                    "time": 165.89404249999703,
                    "velocity": 0.48031496062992124,
                    "duration": 0.04966887500000894
                },
                {
                    "name": "C#6",
                    "midi": 85,
                    "time": 165.99338024999705,
                    "velocity": 0.48031496062992124,
                    "duration": 0.04966887500000894
                },
                {
                    "name": "D6",
                    "midi": 86,
                    "time": 166.09271799999706,
                    "velocity": 0.5275590551181102,
                    "duration": 0.7947020000000009
                },
                {
                    "name": "D6",
                    "midi": 86,
                    "time": 166.86258556249706,
                    "velocity": 0.4645669291338583,
                    "duration": 0.02483443750000447
                },
                {
                    "name": "C#6",
                    "midi": 85,
                    "time": 166.88741999999706,
                    "velocity": 0.5590551181102362,
                    "duration": 0.04966887500000894
                },
                {
                    "name": "D6",
                    "midi": 86,
                    "time": 167.06126106249707,
                    "velocity": 0.4409448818897638,
                    "duration": 0.02483443750000447
                },
                {
                    "name": "C#6",
                    "midi": 85,
                    "time": 167.08609549999707,
                    "velocity": 0.5039370078740157,
                    "duration": 0.04966887500000894
                },
                {
                    "name": "D6",
                    "midi": 86,
                    "time": 167.25993656249707,
                    "velocity": 0.44881889763779526,
                    "duration": 0.02483443750000447
                },
                {
                    "name": "C#6",
                    "midi": 85,
                    "time": 167.28477099999708,
                    "velocity": 0.5118110236220472,
                    "duration": 0.04966887500000894
                },
                {
                    "name": "D6",
                    "midi": 86,
                    "time": 167.45861206249708,
                    "velocity": 0.4645669291338583,
                    "duration": 0.02483443750000447
                },
                {
                    "name": "C#6",
                    "midi": 85,
                    "time": 167.4834464999971,
                    "velocity": 0.5196850393700787,
                    "duration": 0.04966887500000894
                },
                {
                    "name": "B5",
                    "midi": 83,
                    "time": 167.6821219999971,
                    "velocity": 0.5275590551181102,
                    "duration": 0.6953642500000115
                },
                {
                    "name": "E6",
                    "midi": 88,
                    "time": 168.3774862499971,
                    "velocity": 0.7401574803149606,
                    "duration": 0.07450331250001341
                },
                {
                    "name": "C#5",
                    "midi": 73,
                    "time": 168.45198956249712,
                    "velocity": 0.5826771653543307,
                    "duration": 0.42218543750001913
                },
                {
                    "name": "E5",
                    "midi": 76,
                    "time": 168.46026770833046,
                    "velocity": 0.6062992125984252,
                    "duration": 0.41390729166667484
                },
                {
                    "name": "A5",
                    "midi": 81,
                    "time": 168.4685458541638,
                    "velocity": 0.6299212598425197,
                    "duration": 0.40562914583333054
                },
                {
                    "name": "C#6",
                    "midi": 85,
                    "time": 168.47682399999715,
                    "velocity": 0.7086614173228346,
                    "duration": 0.7947020000000293
                },
                {
                    "name": "C#5",
                    "midi": 73,
                    "time": 169.24669156249715,
                    "velocity": 0.5826771653543307,
                    "duration": 0.42218543750001913
                },
                {
                    "name": "E5",
                    "midi": 76,
                    "time": 169.2549697083305,
                    "velocity": 0.6062992125984252,
                    "duration": 0.41390729166667484
                },
                {
                    "name": "A5",
                    "midi": 81,
                    "time": 169.26324785416384,
                    "velocity": 0.6299212598425197,
                    "duration": 0.40562914583333054
                },
                {
                    "name": "C#6",
                    "midi": 85,
                    "time": 169.27152599999718,
                    "velocity": 0.7086614173228346,
                    "duration": 0.7947019999999725
                },
                {
                    "name": "D6",
                    "midi": 86,
                    "time": 170.06622799999715,
                    "velocity": 0.7086614173228346,
                    "duration": 0.09933774999998946
                },
                {
                    "name": "C#6",
                    "midi": 85,
                    "time": 170.16556574999714,
                    "velocity": 0.6850393700787402,
                    "duration": 0.09933774999998946
                },
                {
                    "name": "B5",
                    "midi": 83,
                    "time": 170.26490349999713,
                    "velocity": 0.6771653543307087,
                    "duration": 0.04966887500000894
                },
                {
                    "name": "C#6",
                    "midi": 85,
                    "time": 170.36424124999715,
                    "velocity": 0.6771653543307087,
                    "duration": 0.04966887500000894
                },
                {
                    "name": "D6",
                    "midi": 86,
                    "time": 170.46357899999717,
                    "velocity": 0.7086614173228346,
                    "duration": 0.09933774999998946
                },
                {
                    "name": "C#6",
                    "midi": 85,
                    "time": 170.56291674999716,
                    "velocity": 0.6614173228346457,
                    "duration": 0.09933774999998946
                },
                {
                    "name": "B5",
                    "midi": 83,
                    "time": 170.66225449999715,
                    "velocity": 0.6614173228346457,
                    "duration": 0.04966887500000894
                },
                {
                    "name": "C#6",
                    "midi": 85,
                    "time": 170.76159224999716,
                    "velocity": 0.6692913385826772,
                    "duration": 0.04966887500000894
                },
                {
                    "name": "F#5",
                    "midi": 78,
                    "time": 170.86092999999718,
                    "velocity": 0.6299212598425197,
                    "duration": 0.7947020000000009
                },
                {
                    "name": "A5",
                    "midi": 81,
                    "time": 170.86092999999718,
                    "velocity": 0.6299212598425197,
                    "duration": 0.7947020000000009
                },
                {
                    "name": "D6",
                    "midi": 86,
                    "time": 170.86092999999718,
                    "velocity": 0.7086614173228346,
                    "duration": 0.7947020000000009
                },
                {
                    "name": "D6",
                    "midi": 86,
                    "time": 171.63079756249718,
                    "velocity": 0.5984251968503937,
                    "duration": 0.02483443750000447
                },
                {
                    "name": "E5",
                    "midi": 76,
                    "time": 171.65563199999718,
                    "velocity": 0.5984251968503937,
                    "duration": 0.7947020000000009
                },
                {
                    "name": "A5",
                    "midi": 81,
                    "time": 171.65563199999718,
                    "velocity": 0.5984251968503937,
                    "duration": 0.7947020000000009
                },
                {
                    "name": "C#6",
                    "midi": 85,
                    "time": 171.65563199999718,
                    "velocity": 0.7086614173228346,
                    "duration": 0.7947020000000009
                },
                {
                    "name": "C#6",
                    "midi": 85,
                    "time": 172.42549956249718,
                    "velocity": 0.5984251968503937,
                    "duration": 0.02483443750000447
                },
                {
                    "name": "E5",
                    "midi": 76,
                    "time": 172.45033399999718,
                    "velocity": 0.5984251968503937,
                    "duration": 0.04966887500000894
                },
                {
                    "name": "G#5",
                    "midi": 80,
                    "time": 172.45033399999718,
                    "velocity": 0.5984251968503937,
                    "duration": 0.04966887500000894
                },
                {
                    "name": "B5",
                    "midi": 83,
                    "time": 172.45033399999718,
                    "velocity": 0.7086614173228346,
                    "duration": 0.04966887500000894
                },
                {
                    "name": "C#6",
                    "midi": 85,
                    "time": 172.6241750624972,
                    "velocity": 0.5984251968503937,
                    "duration": 0.02483443750000447
                },
                {
                    "name": "E5",
                    "midi": 76,
                    "time": 172.6490094999972,
                    "velocity": 0.5669291338582677,
                    "duration": 0.04966887500000894
                },
                {
                    "name": "G#5",
                    "midi": 80,
                    "time": 172.6490094999972,
                    "velocity": 0.5669291338582677,
                    "duration": 0.04966887500000894
                },
                {
                    "name": "B5",
                    "midi": 83,
                    "time": 172.6490094999972,
                    "velocity": 0.6692913385826772,
                    "duration": 0.04966887500000894
                },
                {
                    "name": "C#6",
                    "midi": 85,
                    "time": 172.8228505624972,
                    "velocity": 0.5984251968503937,
                    "duration": 0.02483443750000447
                },
                {
                    "name": "E5",
                    "midi": 76,
                    "time": 172.8476849999972,
                    "velocity": 0.5669291338582677,
                    "duration": 0.04966887500000894
                },
                {
                    "name": "G#5",
                    "midi": 80,
                    "time": 172.8476849999972,
                    "velocity": 0.5669291338582677,
                    "duration": 0.04966887500000894
                },
                {
                    "name": "B5",
                    "midi": 83,
                    "time": 172.8476849999972,
                    "velocity": 0.6692913385826772,
                    "duration": 0.04966887500000894
                },
                {
                    "name": "C#6",
                    "midi": 85,
                    "time": 173.0215260624972,
                    "velocity": 0.5984251968503937,
                    "duration": 0.02483443750000447
                },
                {
                    "name": "E5",
                    "midi": 76,
                    "time": 173.0463604999972,
                    "velocity": 0.5669291338582677,
                    "duration": 0.04966887500000894
                },
                {
                    "name": "G#5",
                    "midi": 80,
                    "time": 173.0463604999972,
                    "velocity": 0.5669291338582677,
                    "duration": 0.04966887500000894
                },
                {
                    "name": "B5",
                    "midi": 83,
                    "time": 173.0463604999972,
                    "velocity": 0.6692913385826772,
                    "duration": 0.04966887500000894
                },
                {
                    "name": "A4",
                    "midi": 69,
                    "time": 173.2450359999972,
                    "velocity": 0.7086614173228346,
                    "duration": 0.5960264999999936
                },
                {
                    "name": "C#5",
                    "midi": 73,
                    "time": 173.2450359999972,
                    "velocity": 0.7086614173228346,
                    "duration": 0.5960264999999936
                },
                {
                    "name": "E5",
                    "midi": 76,
                    "time": 173.2450359999972,
                    "velocity": 0.7086614173228346,
                    "duration": 0.5960264999999936
                },
                {
                    "name": "A5",
                    "midi": 81,
                    "time": 173.2450359999972,
                    "velocity": 0.7086614173228346,
                    "duration": 0.5960264999999936
                },
                {
                    "name": "C#5",
                    "midi": 73,
                    "time": 173.8410624999972,
                    "velocity": 0.5748031496062992,
                    "duration": 0.04966887500000894
                },
                {
                    "name": "C#6",
                    "midi": 85,
                    "time": 173.8410624999972,
                    "velocity": 0.6850393700787402,
                    "duration": 0.04966887500000894
                },
                {
                    "name": "A4",
                    "midi": 69,
                    "time": 174.03973799999721,
                    "velocity": 0.7086614173228346,
                    "duration": 0.5960264999999936
                },
                {
                    "name": "A5",
                    "midi": 81,
                    "time": 174.03973799999721,
                    "velocity": 0.7086614173228346,
                    "duration": 0.5960264999999936
                },
                {
                    "name": "C#5",
                    "midi": 73,
                    "time": 174.6357644999972,
                    "velocity": 0.5748031496062992,
                    "duration": 0.04966887500000894
                },
                {
                    "name": "C#6",
                    "midi": 85,
                    "time": 174.6357644999972,
                    "velocity": 0.6850393700787402,
                    "duration": 0.04966887500000894
                },
                {
                    "name": "A4",
                    "midi": 69,
                    "time": 174.83443999999722,
                    "velocity": 0.7086614173228346,
                    "duration": 0.5960264999999936
                },
                {
                    "name": "A5",
                    "midi": 81,
                    "time": 174.83443999999722,
                    "velocity": 0.7086614173228346,
                    "duration": 0.5960264999999936
                },
                {
                    "name": "C#5",
                    "midi": 73,
                    "time": 175.4304664999972,
                    "velocity": 0.5748031496062992,
                    "duration": 0.04966887500000894
                },
                {
                    "name": "C#6",
                    "midi": 85,
                    "time": 175.4304664999972,
                    "velocity": 0.6850393700787402,
                    "duration": 0.04966887500000894
                },
                {
                    "name": "A4",
                    "midi": 69,
                    "time": 175.62914199999722,
                    "velocity": 0.6456692913385826,
                    "duration": 0.09933774999998946
                },
                {
                    "name": "A5",
                    "midi": 81,
                    "time": 175.62914199999722,
                    "velocity": 0.7637795275590551,
                    "duration": 0.09933774999998946
                },
                {
                    "name": "C#5",
                    "midi": 73,
                    "time": 175.8278174999972,
                    "velocity": 0.6141732283464567,
                    "duration": 0.09933774999998946
                },
                {
                    "name": "C#6",
                    "midi": 85,
                    "time": 175.8278174999972,
                    "velocity": 0.7244094488188977,
                    "duration": 0.09933774999998946
                },
                {
                    "name": "A4",
                    "midi": 69,
                    "time": 176.02649299999717,
                    "velocity": 0.6535433070866141,
                    "duration": 0.09933774999998946
                },
                {
                    "name": "A5",
                    "midi": 81,
                    "time": 176.02649299999717,
                    "velocity": 0.7795275590551181,
                    "duration": 0.09933774999998946
                },
                {
                    "name": "C#5",
                    "midi": 73,
                    "time": 176.22516849999715,
                    "velocity": 0.6220472440944882,
                    "duration": 0.09933774999998946
                },
                {
                    "name": "C#6",
                    "midi": 85,
                    "time": 176.22516849999715,
                    "velocity": 0.7322834645669292,
                    "duration": 0.09933774999998946
                },
                {
                    "name": "A4",
                    "midi": 69,
                    "time": 176.42384399999713,
                    "velocity": 0.7086614173228346,
                    "duration": 0.39735099999998624
                },
                {
                    "name": "A5",
                    "midi": 81,
                    "time": 176.42384399999713,
                    "velocity": 0.8503937007874016,
                    "duration": 0.39735099999998624
                },
                {
                    "name": "A4",
                    "midi": 69,
                    "time": 176.82119499999712,
                    "velocity": 0.6456692913385826,
                    "duration": 0.39735099999998624
                },
                {
                    "name": "C#5",
                    "midi": 73,
                    "time": 176.82119499999712,
                    "velocity": 0.6456692913385826,
                    "duration": 0.39735099999998624
                },
                {
                    "name": "E5",
                    "midi": 76,
                    "time": 176.82119499999712,
                    "velocity": 0.6456692913385826,
                    "duration": 0.39735099999998624
                },
                {
                    "name": "A5",
                    "midi": 81,
                    "time": 176.82119499999712,
                    "velocity": 0.7637795275590551,
                    "duration": 0.39735099999998624
                },
                {
                    "name": "A4",
                    "midi": 69,
                    "time": 177.2185459999971,
                    "velocity": 0.6771653543307087,
                    "duration": 0.39735099999998624
                },
                {
                    "name": "C#5",
                    "midi": 73,
                    "time": 177.2185459999971,
                    "velocity": 0.6771653543307087,
                    "duration": 0.39735099999998624
                },
                {
                    "name": "E5",
                    "midi": 76,
                    "time": 177.2185459999971,
                    "velocity": 0.6771653543307087,
                    "duration": 0.39735099999998624
                },
                {
                    "name": "A5",
                    "midi": 81,
                    "time": 177.2185459999971,
                    "velocity": 0.8110236220472441,
                    "duration": 0.39735099999998624
                }
            ],
            "controlChanges": {
                "7": [
                    {
                        "number": 7,
                        "time": 0,
                        "value": 0.7874015748031497
                    }
                ],
                "10": [
                    {
                        "number": 10,
                        "time": 0,
                        "value": 0.5039370078740157
                    }
                ],
                "91": [
                    {
                        "number": 91,
                        "time": 0,
                        "value": 1
                    }
                ]
            },
            "id": 1,
            "name": "Piano right",
            "instrumentNumber": 0,
            "instrument": "acoustic grand piano",
            "instrumentFamily": "piano",
            "channelNumber": 0,
            "isPercussion": false
        },
        {
            "startTime": 0.794702,
            "duration": 177.6158969999957,
            "length": 1307,
            "notes": [
                {
                    "name": "A3",
                    "midi": 57,
                    "time": 0.794702,
                    "velocity": 0.44881889763779526,
                    "duration": 0.09933775
                },
                {
                    "name": "E4",
                    "midi": 64,
                    "time": 0.9933775,
                    "velocity": 0.4094488188976378,
                    "duration": 0.09933774999999989
                },
                {
                    "name": "C4",
                    "midi": 60,
                    "time": 0.9933775,
                    "velocity": 0.33858267716535434,
                    "duration": 0.09933774999999989
                },
                {
                    "name": "C4",
                    "midi": 60,
                    "time": 1.192053,
                    "velocity": 0.33858267716535434,
                    "duration": 0.09933775000000011
                },
                {
                    "name": "E4",
                    "midi": 64,
                    "time": 1.192053,
                    "velocity": 0.4094488188976378,
                    "duration": 0.09933775000000011
                },
                {
                    "name": "C4",
                    "midi": 60,
                    "time": 1.3907285000000003,
                    "velocity": 0.33070866141732286,
                    "duration": 0.09933775000000011
                },
                {
                    "name": "E4",
                    "midi": 64,
                    "time": 1.3907285000000003,
                    "velocity": 0.4015748031496063,
                    "duration": 0.09933775000000011
                },
                {
                    "name": "A3",
                    "midi": 57,
                    "time": 1.5894040000000005,
                    "velocity": 0.44881889763779526,
                    "duration": 0.09933775000000011
                },
                {
                    "name": "E4",
                    "midi": 64,
                    "time": 1.7880795000000007,
                    "velocity": 0.4094488188976378,
                    "duration": 0.09933775000000011
                },
                {
                    "name": "C4",
                    "midi": 60,
                    "time": 1.7880795000000007,
                    "velocity": 0.33858267716535434,
                    "duration": 0.09933775000000011
                },
                {
                    "name": "E4",
                    "midi": 64,
                    "time": 1.986755000000001,
                    "velocity": 0.4094488188976378,
                    "duration": 0.09933775000000011
                },
                {
                    "name": "C4",
                    "midi": 60,
                    "time": 1.986755000000001,
                    "velocity": 0.33858267716535434,
                    "duration": 0.09933775000000011
                },
                {
                    "name": "E4",
                    "midi": 64,
                    "time": 2.185430500000001,
                    "velocity": 0.4094488188976378,
                    "duration": 0.09933775000000011
                },
                {
                    "name": "C4",
                    "midi": 60,
                    "time": 2.185430500000001,
                    "velocity": 0.33858267716535434,
                    "duration": 0.09933775000000011
                },
                {
                    "name": "A3",
                    "midi": 57,
                    "time": 2.3841060000000014,
                    "velocity": 0.44881889763779526,
                    "duration": 0.09933775000000011
                },
                {
                    "name": "E4",
                    "midi": 64,
                    "time": 2.5827815000000016,
                    "velocity": 0.3937007874015748,
                    "duration": 0.09933775000000011
                },
                {
                    "name": "C4",
                    "midi": 60,
                    "time": 2.5827815000000016,
                    "velocity": 0.33070866141732286,
                    "duration": 0.09933775000000011
                },
                {
                    "name": "A3",
                    "midi": 57,
                    "time": 2.781457000000002,
                    "velocity": 0.44881889763779526,
                    "duration": 0.09933775000000011
                },
                {
                    "name": "E4",
                    "midi": 64,
                    "time": 2.980132500000002,
                    "velocity": 0.4094488188976378,
                    "duration": 0.09933775000000011
                },
                {
                    "name": "C4",
                    "midi": 60,
                    "time": 2.980132500000002,
                    "velocity": 0.33858267716535434,
                    "duration": 0.09933775000000011
                },
                {
                    "name": "A3",
                    "midi": 57,
                    "time": 3.1788080000000023,
                    "velocity": 0.44881889763779526,
                    "duration": 0.09933775000000011
                },
                {
                    "name": "E4",
                    "midi": 64,
                    "time": 3.3774835000000025,
                    "velocity": 0.3937007874015748,
                    "duration": 0.09933775000000011
                },
                {
                    "name": "C4",
                    "midi": 60,
                    "time": 3.3774835000000025,
                    "velocity": 0.33070866141732286,
                    "duration": 0.09933775000000011
                },
                {
                    "name": "E4",
                    "midi": 64,
                    "time": 3.5761590000000028,
                    "velocity": 0.3937007874015748,
                    "duration": 0.09933775000000011
                },
                {
                    "name": "C4",
                    "midi": 60,
                    "time": 3.5761590000000028,
                    "velocity": 0.33070866141732286,
                    "duration": 0.09933775000000011
                },
                {
                    "name": "E4",
                    "midi": 64,
                    "time": 3.774834500000003,
                    "velocity": 0.3937007874015748,
                    "duration": 0.09933775000000011
                },
                {
                    "name": "C4",
                    "midi": 60,
                    "time": 3.774834500000003,
                    "velocity": 0.33070866141732286,
                    "duration": 0.09933775000000011
                },
                {
                    "name": "E3",
                    "midi": 52,
                    "time": 3.973510000000003,
                    "velocity": 0.5118110236220472,
                    "duration": 0.09933774999999967
                },
                {
                    "name": "E4",
                    "midi": 64,
                    "time": 4.172185500000003,
                    "velocity": 0.41732283464566927,
                    "duration": 0.09933775000000011
                },
                {
                    "name": "B3",
                    "midi": 59,
                    "time": 4.172185500000003,
                    "velocity": 0.3464566929133858,
                    "duration": 0.09933775000000011
                },
                {
                    "name": "E4",
                    "midi": 64,
                    "time": 4.370861000000003,
                    "velocity": 0.41732283464566927,
                    "duration": 0.09933775000000011
                },
                {
                    "name": "B3",
                    "midi": 59,
                    "time": 4.370861000000003,
                    "velocity": 0.3464566929133858,
                    "duration": 0.09933775000000011
                },
                {
                    "name": "E4",
                    "midi": 64,
                    "time": 4.569536500000003,
                    "velocity": 0.41732283464566927,
                    "duration": 0.09933775000000011
                },
                {
                    "name": "B3",
                    "midi": 59,
                    "time": 4.569536500000003,
                    "velocity": 0.3464566929133858,
                    "duration": 0.09933775000000011
                },
                {
                    "name": "E3",
                    "midi": 52,
                    "time": 4.768212000000004,
                    "velocity": 0.5196850393700787,
                    "duration": 0.09933775000000011
                },
                {
                    "name": "E4",
                    "midi": 64,
                    "time": 4.966887500000004,
                    "velocity": 0.4094488188976378,
                    "duration": 0.09933775000000011
                },
                {
                    "name": "B3",
                    "midi": 59,
                    "time": 4.966887500000004,
                    "velocity": 0.33858267716535434,
                    "duration": 0.09933775000000011
                },
                {
                    "name": "E4",
                    "midi": 64,
                    "time": 5.165563000000004,
                    "velocity": 0.4094488188976378,
                    "duration": 0.09933775000000011
                },
                {
                    "name": "B3",
                    "midi": 59,
                    "time": 5.165563000000004,
                    "velocity": 0.33858267716535434,
                    "duration": 0.09933775000000011
                },
                {
                    "name": "E4",
                    "midi": 64,
                    "time": 5.364238500000004,
                    "velocity": 0.4094488188976378,
                    "duration": 0.09933775000000011
                },
                {
                    "name": "B3",
                    "midi": 59,
                    "time": 5.364238500000004,
                    "velocity": 0.33858267716535434,
                    "duration": 0.09933775000000011
                },
                {
                    "name": "E3",
                    "midi": 52,
                    "time": 5.562914000000005,
                    "velocity": 0.5275590551181102,
                    "duration": 0.09933775000000011
                },
                {
                    "name": "E4",
                    "midi": 64,
                    "time": 5.761589500000005,
                    "velocity": 0.4094488188976378,
                    "duration": 0.09933775000000011
                },
                {
                    "name": "B3",
                    "midi": 59,
                    "time": 5.761589500000005,
                    "velocity": 0.33858267716535434,
                    "duration": 0.09933775000000011
                },
                {
                    "name": "B2",
                    "midi": 47,
                    "time": 5.960265000000005,
                    "velocity": 0.4094488188976378,
                    "duration": 0.09933775000000011
                },
                {
                    "name": "B3",
                    "midi": 59,
                    "time": 6.158940500000005,
                    "velocity": 0.4094488188976378,
                    "duration": 0.09933775000000011
                },
                {
                    "name": "E3",
                    "midi": 52,
                    "time": 6.3576160000000055,
                    "velocity": 0.44881889763779526,
                    "duration": 0.37251656249999954
                },
                {
                    "name": "A3",
                    "midi": 57,
                    "time": 7.152318000000005,
                    "velocity": 0.44881889763779526,
                    "duration": 0.09933775000000011
                },
                {
                    "name": "E4",
                    "midi": 64,
                    "time": 7.350993500000005,
                    "velocity": 0.4094488188976378,
                    "duration": 0.09933775000000011
                },
                {
                    "name": "C4",
                    "midi": 60,
                    "time": 7.350993500000005,
                    "velocity": 0.33858267716535434,
                    "duration": 0.09933775000000011
                },
                {
                    "name": "C4",
                    "midi": 60,
                    "time": 7.549669000000005,
                    "velocity": 0.33858267716535434,
                    "duration": 0.09933775000000011
                },
                {
                    "name": "E4",
                    "midi": 64,
                    "time": 7.549669000000005,
                    "velocity": 0.4094488188976378,
                    "duration": 0.09933775000000011
                },
                {
                    "name": "C4",
                    "midi": 60,
                    "time": 7.748344500000005,
                    "velocity": 0.33070866141732286,
                    "duration": 0.09933775000000011
                },
                {
                    "name": "E4",
                    "midi": 64,
                    "time": 7.748344500000005,
                    "velocity": 0.4015748031496063,
                    "duration": 0.09933775000000011
                },
                {
                    "name": "A3",
                    "midi": 57,
                    "time": 7.9470200000000055,
                    "velocity": 0.44881889763779526,
                    "duration": 0.09933775000000011
                },
                {
                    "name": "E4",
                    "midi": 64,
                    "time": 8.145695500000006,
                    "velocity": 0.4094488188976378,
                    "duration": 0.09933775000000011
                },
                {
                    "name": "C4",
                    "midi": 60,
                    "time": 8.145695500000006,
                    "velocity": 0.33858267716535434,
                    "duration": 0.09933775000000011
                },
                {
                    "name": "E4",
                    "midi": 64,
                    "time": 8.344371000000006,
                    "velocity": 0.4094488188976378,
                    "duration": 0.09933775000000011
                },
                {
                    "name": "C4",
                    "midi": 60,
                    "time": 8.344371000000006,
                    "velocity": 0.33858267716535434,
                    "duration": 0.09933775000000011
                },
                {
                    "name": "E4",
                    "midi": 64,
                    "time": 8.543046500000006,
                    "velocity": 0.4094488188976378,
                    "duration": 0.09933775000000011
                },
                {
                    "name": "C4",
                    "midi": 60,
                    "time": 8.543046500000006,
                    "velocity": 0.33858267716535434,
                    "duration": 0.09933775000000011
                },
                {
                    "name": "A3",
                    "midi": 57,
                    "time": 8.741722000000006,
                    "velocity": 0.44881889763779526,
                    "duration": 0.09933775000000011
                },
                {
                    "name": "E4",
                    "midi": 64,
                    "time": 8.940397500000007,
                    "velocity": 0.3937007874015748,
                    "duration": 0.09933775000000011
                },
                {
                    "name": "C4",
                    "midi": 60,
                    "time": 8.940397500000007,
                    "velocity": 0.33070866141732286,
                    "duration": 0.09933775000000011
                },
                {
                    "name": "A3",
                    "midi": 57,
                    "time": 9.139073000000007,
                    "velocity": 0.44881889763779526,
                    "duration": 0.09933775000000011
                },
                {
                    "name": "E4",
                    "midi": 64,
                    "time": 9.337748500000007,
                    "velocity": 0.4094488188976378,
                    "duration": 0.09933775000000011
                },
                {
                    "name": "C4",
                    "midi": 60,
                    "time": 9.337748500000007,
                    "velocity": 0.33858267716535434,
                    "duration": 0.09933775000000011
                },
                {
                    "name": "A3",
                    "midi": 57,
                    "time": 9.536424000000007,
                    "velocity": 0.44881889763779526,
                    "duration": 0.09933775000000011
                },
                {
                    "name": "E4",
                    "midi": 64,
                    "time": 9.735099500000008,
                    "velocity": 0.3937007874015748,
                    "duration": 0.09933775000000011
                },
                {
                    "name": "C4",
                    "midi": 60,
                    "time": 9.735099500000008,
                    "velocity": 0.33070866141732286,
                    "duration": 0.09933775000000011
                },
                {
                    "name": "E4",
                    "midi": 64,
                    "time": 9.933775000000008,
                    "velocity": 0.3937007874015748,
                    "duration": 0.09933775000000011
                },
                {
                    "name": "C4",
                    "midi": 60,
                    "time": 9.933775000000008,
                    "velocity": 0.33070866141732286,
                    "duration": 0.09933775000000011
                },
                {
                    "name": "E4",
                    "midi": 64,
                    "time": 10.132450500000008,
                    "velocity": 0.3937007874015748,
                    "duration": 0.09933775000000011
                },
                {
                    "name": "C4",
                    "midi": 60,
                    "time": 10.132450500000008,
                    "velocity": 0.33070866141732286,
                    "duration": 0.09933775000000011
                },
                {
                    "name": "E3",
                    "midi": 52,
                    "time": 10.331126000000008,
                    "velocity": 0.5118110236220472,
                    "duration": 0.09933775000000011
                },
                {
                    "name": "E4",
                    "midi": 64,
                    "time": 10.529801500000008,
                    "velocity": 0.41732283464566927,
                    "duration": 0.09933775000000011
                },
                {
                    "name": "B3",
                    "midi": 59,
                    "time": 10.529801500000008,
                    "velocity": 0.3464566929133858,
                    "duration": 0.09933775000000011
                },
                {
                    "name": "E4",
                    "midi": 64,
                    "time": 10.728477000000009,
                    "velocity": 0.41732283464566927,
                    "duration": 0.09933775000000011
                },
                {
                    "name": "B3",
                    "midi": 59,
                    "time": 10.728477000000009,
                    "velocity": 0.3464566929133858,
                    "duration": 0.09933775000000011
                },
                {
                    "name": "E4",
                    "midi": 64,
                    "time": 10.927152500000009,
                    "velocity": 0.41732283464566927,
                    "duration": 0.09933775000000011
                },
                {
                    "name": "B3",
                    "midi": 59,
                    "time": 10.927152500000009,
                    "velocity": 0.3464566929133858,
                    "duration": 0.09933775000000011
                },
                {
                    "name": "E3",
                    "midi": 52,
                    "time": 11.12582800000001,
                    "velocity": 0.5196850393700787,
                    "duration": 0.09933775000000011
                },
                {
                    "name": "E4",
                    "midi": 64,
                    "time": 11.32450350000001,
                    "velocity": 0.4094488188976378,
                    "duration": 0.09933775000000011
                },
                {
                    "name": "B3",
                    "midi": 59,
                    "time": 11.32450350000001,
                    "velocity": 0.33858267716535434,
                    "duration": 0.09933775000000011
                },
                {
                    "name": "E4",
                    "midi": 64,
                    "time": 11.52317900000001,
                    "velocity": 0.4094488188976378,
                    "duration": 0.09933775000000011
                },
                {
                    "name": "B3",
                    "midi": 59,
                    "time": 11.52317900000001,
                    "velocity": 0.33858267716535434,
                    "duration": 0.09933775000000011
                },
                {
                    "name": "E4",
                    "midi": 64,
                    "time": 11.72185450000001,
                    "velocity": 0.4094488188976378,
                    "duration": 0.09933775000000011
                },
                {
                    "name": "B3",
                    "midi": 59,
                    "time": 11.72185450000001,
                    "velocity": 0.33858267716535434,
                    "duration": 0.09933775000000011
                },
                {
                    "name": "E3",
                    "midi": 52,
                    "time": 11.92053000000001,
                    "velocity": 0.5275590551181102,
                    "duration": 0.09933775000000011
                },
                {
                    "name": "E4",
                    "midi": 64,
                    "time": 12.11920550000001,
                    "velocity": 0.4094488188976378,
                    "duration": 0.09933775000000011
                },
                {
                    "name": "B3",
                    "midi": 59,
                    "time": 12.11920550000001,
                    "velocity": 0.33858267716535434,
                    "duration": 0.09933775000000011
                },
                {
                    "name": "B2",
                    "midi": 47,
                    "time": 12.31788100000001,
                    "velocity": 0.4094488188976378,
                    "duration": 0.09933775000000011
                },
                {
                    "name": "B3",
                    "midi": 59,
                    "time": 12.51655650000001,
                    "velocity": 0.4094488188976378,
                    "duration": 0.09933775000000011
                },
                {
                    "name": "E3",
                    "midi": 52,
                    "time": 12.715232000000011,
                    "velocity": 0.44881889763779526,
                    "duration": 0.37251656249999954
                },
                {
                    "name": "C3",
                    "midi": 48,
                    "time": 13.50993400000001,
                    "velocity": 0.4645669291338583,
                    "duration": 0.09933775000000011
                },
                {
                    "name": "C4",
                    "midi": 60,
                    "time": 13.70860950000001,
                    "velocity": 0.41732283464566927,
                    "duration": 0.09933775000000011
                },
                {
                    "name": "E3",
                    "midi": 52,
                    "time": 13.90728500000001,
                    "velocity": 0.4645669291338583,
                    "duration": 0.09933775000000011
                },
                {
                    "name": "E4",
                    "midi": 64,
                    "time": 14.10596050000001,
                    "velocity": 0.44881889763779526,
                    "duration": 0.09933775000000011
                },
                {
                    "name": "G3",
                    "midi": 55,
                    "time": 14.304636000000011,
                    "velocity": 0.47244094488188976,
                    "duration": 0.39735100000000045
                },
                {
                    "name": "C3",
                    "midi": 48,
                    "time": 15.099338000000012,
                    "velocity": 0.4645669291338583,
                    "duration": 0.09933775000000011
                },
                {
                    "name": "C4",
                    "midi": 60,
                    "time": 15.298013500000012,
                    "velocity": 0.41732283464566927,
                    "duration": 0.09933775000000011
                },
                {
                    "name": "E3",
                    "midi": 52,
                    "time": 15.496689000000012,
                    "velocity": 0.4645669291338583,
                    "duration": 0.09933775000000011
                },
                {
                    "name": "E4",
                    "midi": 64,
                    "time": 15.695364500000013,
                    "velocity": 0.44881889763779526,
                    "duration": 0.09933775000000011
                },
                {
                    "name": "G3",
                    "midi": 55,
                    "time": 15.894040000000013,
                    "velocity": 0.47244094488188976,
                    "duration": 0.3973509999999987
                },
                {
                    "name": "A2",
                    "midi": 45,
                    "time": 16.688742000000012,
                    "velocity": 0.4645669291338583,
                    "duration": 0.09933775000000011
                },
                {
                    "name": "A3",
                    "midi": 57,
                    "time": 16.887417500000012,
                    "velocity": 0.41732283464566927,
                    "duration": 0.09933775000000011
                },
                {
                    "name": "C3",
                    "midi": 48,
                    "time": 17.086093000000012,
                    "velocity": 0.4645669291338583,
                    "duration": 0.09933775000000011
                },
                {
                    "name": "C4",
                    "midi": 60,
                    "time": 17.284768500000013,
                    "velocity": 0.44881889763779526,
                    "duration": 0.09933775000000011
                },
                {
                    "name": "E3",
                    "midi": 52,
                    "time": 17.483444000000013,
                    "velocity": 0.47244094488188976,
                    "duration": 0.39735100000000045
                },
                {
                    "name": "A2",
                    "midi": 45,
                    "time": 18.278146000000014,
                    "velocity": 0.4645669291338583,
                    "duration": 0.09933775000000011
                },
                {
                    "name": "A3",
                    "midi": 57,
                    "time": 18.476821500000014,
                    "velocity": 0.41732283464566927,
                    "duration": 0.09933775000000011
                },
                {
                    "name": "C3",
                    "midi": 48,
                    "time": 18.675497000000014,
                    "velocity": 0.4645669291338583,
                    "duration": 0.09933775000000011
                },
                {
                    "name": "C4",
                    "midi": 60,
                    "time": 18.874172500000014,
                    "velocity": 0.44881889763779526,
                    "duration": 0.09933775000000011
                },
                {
                    "name": "E3",
                    "midi": 52,
                    "time": 19.072848000000015,
                    "velocity": 0.47244094488188976,
                    "duration": 0.39735100000000045
                },
                {
                    "name": "A3",
                    "midi": 57,
                    "time": 19.867550000000016,
                    "velocity": 0.41732283464566927,
                    "duration": 0.09933775000000011
                },
                {
                    "name": "E4",
                    "midi": 64,
                    "time": 20.066225500000016,
                    "velocity": 0.3700787401574803,
                    "duration": 0.09933775000000011
                },
                {
                    "name": "C4",
                    "midi": 60,
                    "time": 20.066225500000016,
                    "velocity": 0.3700787401574803,
                    "duration": 0.09933775000000011
                },
                {
                    "name": "C4",
                    "midi": 60,
                    "time": 20.264901000000016,
                    "velocity": 0.3700787401574803,
                    "duration": 0.09933775000000011
                },
                {
                    "name": "E4",
                    "midi": 64,
                    "time": 20.264901000000016,
                    "velocity": 0.3700787401574803,
                    "duration": 0.09933775000000011
                },
                {
                    "name": "C4",
                    "midi": 60,
                    "time": 20.463576500000016,
                    "velocity": 0.3700787401574803,
                    "duration": 0.09933775000000011
                },
                {
                    "name": "E4",
                    "midi": 64,
                    "time": 20.463576500000016,
                    "velocity": 0.3700787401574803,
                    "duration": 0.09933775000000011
                },
                {
                    "name": "A3",
                    "midi": 57,
                    "time": 20.662252000000016,
                    "velocity": 0.4251968503937008,
                    "duration": 0.09933775000000011
                },
                {
                    "name": "E4",
                    "midi": 64,
                    "time": 20.860927500000017,
                    "velocity": 0.3779527559055118,
                    "duration": 0.09933775000000011
                },
                {
                    "name": "C4",
                    "midi": 60,
                    "time": 20.860927500000017,
                    "velocity": 0.3779527559055118,
                    "duration": 0.09933775000000011
                },
                {
                    "name": "E4",
                    "midi": 64,
                    "time": 21.059603000000017,
                    "velocity": 0.3779527559055118,
                    "duration": 0.09933775000000011
                },
                {
                    "name": "C4",
                    "midi": 60,
                    "time": 21.059603000000017,
                    "velocity": 0.3779527559055118,
                    "duration": 0.09933775000000011
                },
                {
                    "name": "E4",
                    "midi": 64,
                    "time": 21.258278500000017,
                    "velocity": 0.3779527559055118,
                    "duration": 0.09933775000000011
                },
                {
                    "name": "C4",
                    "midi": 60,
                    "time": 21.258278500000017,
                    "velocity": 0.3779527559055118,
                    "duration": 0.09933775000000011
                },
                {
                    "name": "A3",
                    "midi": 57,
                    "time": 21.456954000000017,
                    "velocity": 0.4409448818897638,
                    "duration": 0.09933775000000011
                },
                {
                    "name": "E4",
                    "midi": 64,
                    "time": 21.655629500000018,
                    "velocity": 0.3858267716535433,
                    "duration": 0.09933775000000011
                },
                {
                    "name": "C4",
                    "midi": 60,
                    "time": 21.655629500000018,
                    "velocity": 0.3858267716535433,
                    "duration": 0.09933775000000011
                },
                {
                    "name": "A3",
                    "midi": 57,
                    "time": 21.854305000000018,
                    "velocity": 0.44881889763779526,
                    "duration": 0.09933775000000011
                },
                {
                    "name": "E4",
                    "midi": 64,
                    "time": 22.052980500000018,
                    "velocity": 0.4094488188976378,
                    "duration": 0.09933775000000011
                },
                {
                    "name": "C4",
                    "midi": 60,
                    "time": 22.052980500000018,
                    "velocity": 0.33858267716535434,
                    "duration": 0.09933775000000011
                },
                {
                    "name": "F3",
                    "midi": 53,
                    "time": 22.25165600000002,
                    "velocity": 0.44881889763779526,
                    "duration": 0.09933775000000011
                },
                {
                    "name": "D#4",
                    "midi": 63,
                    "time": 22.45033150000002,
                    "velocity": 0.4015748031496063,
                    "duration": 0.09933775000000011
                },
                {
                    "name": "A3",
                    "midi": 57,
                    "time": 22.45033150000002,
                    "velocity": 0.4015748031496063,
                    "duration": 0.09933775000000011
                },
                {
                    "name": "D#4",
                    "midi": 63,
                    "time": 22.64900700000002,
                    "velocity": 0.33858267716535434,
                    "duration": 0.09933775000000011
                },
                {
                    "name": "A3",
                    "midi": 57,
                    "time": 22.64900700000002,
                    "velocity": 0.33858267716535434,
                    "duration": 0.09933775000000011
                },
                {
                    "name": "D#4",
                    "midi": 63,
                    "time": 22.84768250000002,
                    "velocity": 0.30708661417322836,
                    "duration": 0.09933775000000011
                },
                {
                    "name": "A3",
                    "midi": 57,
                    "time": 22.84768250000002,
                    "velocity": 0.30708661417322836,
                    "duration": 0.09933775000000011
                },
                {
                    "name": "E3",
                    "midi": 52,
                    "time": 23.04635800000002,
                    "velocity": 0.36220472440944884,
                    "duration": 0.09933775000000011
                },
                {
                    "name": "E4",
                    "midi": 64,
                    "time": 23.24503350000002,
                    "velocity": 0.33070866141732286,
                    "duration": 0.09933775000000011
                },
                {
                    "name": "A3",
                    "midi": 57,
                    "time": 23.24503350000002,
                    "velocity": 0.33070866141732286,
                    "duration": 0.09933775000000011
                },
                {
                    "name": "D3",
                    "midi": 50,
                    "time": 23.44370900000002,
                    "velocity": 0.33070866141732286,
                    "duration": 0.09933775000000011
                },
                {
                    "name": "B3",
                    "midi": 59,
                    "time": 23.64238450000002,
                    "velocity": 0.33070866141732286,
                    "duration": 0.09933775000000011
                },
                {
                    "name": "F3",
                    "midi": 53,
                    "time": 23.64238450000002,
                    "velocity": 0.33070866141732286,
                    "duration": 0.09933775000000011
                },
                {
                    "name": "C3",
                    "midi": 48,
                    "time": 23.84106000000002,
                    "velocity": 0.3700787401574803,
                    "duration": 0.09933775000000011
                },
                {
                    "name": "A3",
                    "midi": 57,
                    "time": 24.03973550000002,
                    "velocity": 0.30708661417322836,
                    "duration": 0.09933775000000011
                },
                {
                    "name": "E3",
                    "midi": 52,
                    "time": 24.03973550000002,
                    "velocity": 0.30708661417322836,
                    "duration": 0.09933775000000011
                },
                {
                    "name": "D3",
                    "midi": 50,
                    "time": 24.23841100000002,
                    "velocity": 0.3228346456692913,
                    "duration": 0.09933775000000011
                },
                {
                    "name": "B3",
                    "midi": 59,
                    "time": 24.43708650000002,
                    "velocity": 0.3228346456692913,
                    "duration": 0.09933775000000011
                },
                {
                    "name": "F3",
                    "midi": 53,
                    "time": 24.43708650000002,
                    "velocity": 0.3228346456692913,
                    "duration": 0.09933775000000011
                },
                {
                    "name": "E3",
                    "midi": 52,
                    "time": 24.63576200000002,
                    "velocity": 0.3779527559055118,
                    "duration": 0.09933775000000011
                },
                {
                    "name": "A3",
                    "midi": 57,
                    "time": 24.63576200000002,
                    "velocity": 0.3779527559055118,
                    "duration": 0.09933775000000011
                },
                {
                    "name": "A3",
                    "midi": 57,
                    "time": 24.83443750000002,
                    "velocity": 0.3228346456692913,
                    "duration": 0.09933775000000011
                },
                {
                    "name": "E3",
                    "midi": 52,
                    "time": 24.83443750000002,
                    "velocity": 0.3228346456692913,
                    "duration": 0.09933775000000011
                },
                {
                    "name": "E3",
                    "midi": 52,
                    "time": 25.028973927083356,
                    "velocity": 0.3228346456692913,
                    "duration": 0.09933775000000011
                },
                {
                    "name": "G#3",
                    "midi": 56,
                    "time": 25.03311300000002,
                    "velocity": 0.3228346456692913,
                    "duration": 0.09933775000000011
                },
                {
                    "name": "E3",
                    "midi": 52,
                    "time": 25.23178850000002,
                    "velocity": 0.3228346456692913,
                    "duration": 0.09933775000000011
                },
                {
                    "name": "G#3",
                    "midi": 56,
                    "time": 25.23178850000002,
                    "velocity": 0.3228346456692913,
                    "duration": 0.09933775000000011
                },
                {
                    "name": "A2",
                    "midi": 45,
                    "time": 25.430464000000022,
                    "velocity": 0.36220472440944884,
                    "duration": 0.39735100000000045
                },
                {
                    "name": "A3",
                    "midi": 57,
                    "time": 25.430464000000022,
                    "velocity": 0.36220472440944884,
                    "duration": 0.37251656249999954
                },
                {
                    "name": "C3",
                    "midi": 48,
                    "time": 26.225166000000023,
                    "velocity": 0.4645669291338583,
                    "duration": 0.09933775000000011
                },
                {
                    "name": "C4",
                    "midi": 60,
                    "time": 26.423841500000023,
                    "velocity": 0.41732283464566927,
                    "duration": 0.09933775000000011
                },
                {
                    "name": "E3",
                    "midi": 52,
                    "time": 26.622517000000023,
                    "velocity": 0.4645669291338583,
                    "duration": 0.09933775000000011
                },
                {
                    "name": "E4",
                    "midi": 64,
                    "time": 26.821192500000024,
                    "velocity": 0.44881889763779526,
                    "duration": 0.09933775000000011
                },
                {
                    "name": "G3",
                    "midi": 55,
                    "time": 27.019868000000024,
                    "velocity": 0.47244094488188976,
                    "duration": 0.39735100000000045
                },
                {
                    "name": "C3",
                    "midi": 48,
                    "time": 27.814570000000025,
                    "velocity": 0.4645669291338583,
                    "duration": 0.09933775000000011
                },
                {
                    "name": "C4",
                    "midi": 60,
                    "time": 28.013245500000025,
                    "velocity": 0.41732283464566927,
                    "duration": 0.09933775000000011
                },
                {
                    "name": "E3",
                    "midi": 52,
                    "time": 28.211921000000025,
                    "velocity": 0.4645669291338583,
                    "duration": 0.09933775000000011
                },
                {
                    "name": "E4",
                    "midi": 64,
                    "time": 28.410596500000025,
                    "velocity": 0.44881889763779526,
                    "duration": 0.09933775000000011
                },
                {
                    "name": "G3",
                    "midi": 55,
                    "time": 28.609272000000026,
                    "velocity": 0.47244094488188976,
                    "duration": 0.39735100000000045
                },
                {
                    "name": "A2",
                    "midi": 45,
                    "time": 29.403974000000026,
                    "velocity": 0.4645669291338583,
                    "duration": 0.09933775000000011
                },
                {
                    "name": "A3",
                    "midi": 57,
                    "time": 29.602649500000027,
                    "velocity": 0.41732283464566927,
                    "duration": 0.09933775000000011
                },
                {
                    "name": "C3",
                    "midi": 48,
                    "time": 29.801325000000027,
                    "velocity": 0.4645669291338583,
                    "duration": 0.09933775000000011
                },
                {
                    "name": "C4",
                    "midi": 60,
                    "time": 30.000000500000027,
                    "velocity": 0.44881889763779526,
                    "duration": 0.09933775000000011
                },
                {
                    "name": "E3",
                    "midi": 52,
                    "time": 30.198676000000027,
                    "velocity": 0.47244094488188976,
                    "duration": 0.39735100000000045
                },
                {
                    "name": "A2",
                    "midi": 45,
                    "time": 30.99337800000003,
                    "velocity": 0.4645669291338583,
                    "duration": 0.09933775000000011
                },
                {
                    "name": "A3",
                    "midi": 57,
                    "time": 31.19205350000003,
                    "velocity": 0.41732283464566927,
                    "duration": 0.09933775000000011
                },
                {
                    "name": "C3",
                    "midi": 48,
                    "time": 31.39072900000003,
                    "velocity": 0.4645669291338583,
                    "duration": 0.09933775000000011
                },
                {
                    "name": "C4",
                    "midi": 60,
                    "time": 31.58940450000003,
                    "velocity": 0.44881889763779526,
                    "duration": 0.09933775000000011
                },
                {
                    "name": "E3",
                    "midi": 52,
                    "time": 31.78808000000003,
                    "velocity": 0.47244094488188976,
                    "duration": 0.39735100000000045
                },
                {
                    "name": "A3",
                    "midi": 57,
                    "time": 32.58278200000003,
                    "velocity": 0.41732283464566927,
                    "duration": 0.09933774999999656
                },
                {
                    "name": "E4",
                    "midi": 64,
                    "time": 32.78145750000002,
                    "velocity": 0.3700787401574803,
                    "duration": 0.09933774999999656
                },
                {
                    "name": "C4",
                    "midi": 60,
                    "time": 32.78145750000002,
                    "velocity": 0.3700787401574803,
                    "duration": 0.09933774999999656
                },
                {
                    "name": "C4",
                    "midi": 60,
                    "time": 32.980133000000016,
                    "velocity": 0.3700787401574803,
                    "duration": 0.09933774999999656
                },
                {
                    "name": "E4",
                    "midi": 64,
                    "time": 32.980133000000016,
                    "velocity": 0.3700787401574803,
                    "duration": 0.09933774999999656
                },
                {
                    "name": "C4",
                    "midi": 60,
                    "time": 33.17880850000001,
                    "velocity": 0.3700787401574803,
                    "duration": 0.09933774999999656
                },
                {
                    "name": "E4",
                    "midi": 64,
                    "time": 33.17880850000001,
                    "velocity": 0.3700787401574803,
                    "duration": 0.09933774999999656
                },
                {
                    "name": "A3",
                    "midi": 57,
                    "time": 33.377484,
                    "velocity": 0.4251968503937008,
                    "duration": 0.09933774999999656
                },
                {
                    "name": "E4",
                    "midi": 64,
                    "time": 33.576159499999996,
                    "velocity": 0.3779527559055118,
                    "duration": 0.09933774999999656
                },
                {
                    "name": "C4",
                    "midi": 60,
                    "time": 33.576159499999996,
                    "velocity": 0.3779527559055118,
                    "duration": 0.09933774999999656
                },
                {
                    "name": "E4",
                    "midi": 64,
                    "time": 33.77483499999999,
                    "velocity": 0.3779527559055118,
                    "duration": 0.09933774999999656
                },
                {
                    "name": "C4",
                    "midi": 60,
                    "time": 33.77483499999999,
                    "velocity": 0.3779527559055118,
                    "duration": 0.09933774999999656
                },
                {
                    "name": "E4",
                    "midi": 64,
                    "time": 33.97351049999998,
                    "velocity": 0.3779527559055118,
                    "duration": 0.09933774999999656
                },
                {
                    "name": "C4",
                    "midi": 60,
                    "time": 33.97351049999998,
                    "velocity": 0.3779527559055118,
                    "duration": 0.09933774999999656
                },
                {
                    "name": "A3",
                    "midi": 57,
                    "time": 34.172185999999975,
                    "velocity": 0.4409448818897638,
                    "duration": 0.09933774999999656
                },
                {
                    "name": "E4",
                    "midi": 64,
                    "time": 34.37086149999997,
                    "velocity": 0.3858267716535433,
                    "duration": 0.09933774999999656
                },
                {
                    "name": "C4",
                    "midi": 60,
                    "time": 34.37086149999997,
                    "velocity": 0.3858267716535433,
                    "duration": 0.09933774999999656
                },
                {
                    "name": "A3",
                    "midi": 57,
                    "time": 34.56953699999996,
                    "velocity": 0.44881889763779526,
                    "duration": 0.09933774999999656
                },
                {
                    "name": "E4",
                    "midi": 64,
                    "time": 34.768212499999954,
                    "velocity": 0.4094488188976378,
                    "duration": 0.09933774999999656
                },
                {
                    "name": "C4",
                    "midi": 60,
                    "time": 34.768212499999954,
                    "velocity": 0.33858267716535434,
                    "duration": 0.09933774999999656
                },
                {
                    "name": "F3",
                    "midi": 53,
                    "time": 34.96688799999995,
                    "velocity": 0.44881889763779526,
                    "duration": 0.09933774999999656
                },
                {
                    "name": "D#4",
                    "midi": 63,
                    "time": 35.16556349999994,
                    "velocity": 0.4015748031496063,
                    "duration": 0.09933774999999656
                },
                {
                    "name": "A3",
                    "midi": 57,
                    "time": 35.16556349999994,
                    "velocity": 0.4015748031496063,
                    "duration": 0.09933774999999656
                },
                {
                    "name": "D#4",
                    "midi": 63,
                    "time": 35.364238999999934,
                    "velocity": 0.33858267716535434,
                    "duration": 0.09933774999999656
                },
                {
                    "name": "A3",
                    "midi": 57,
                    "time": 35.364238999999934,
                    "velocity": 0.33858267716535434,
                    "duration": 0.09933774999999656
                },
                {
                    "name": "D#4",
                    "midi": 63,
                    "time": 35.56291449999993,
                    "velocity": 0.30708661417322836,
                    "duration": 0.09933774999999656
                },
                {
                    "name": "A3",
                    "midi": 57,
                    "time": 35.56291449999993,
                    "velocity": 0.30708661417322836,
                    "duration": 0.09933774999999656
                },
                {
                    "name": "E3",
                    "midi": 52,
                    "time": 35.76158999999992,
                    "velocity": 0.36220472440944884,
                    "duration": 0.09933774999999656
                },
                {
                    "name": "E4",
                    "midi": 64,
                    "time": 35.96026549999991,
                    "velocity": 0.33070866141732286,
                    "duration": 0.09933774999999656
                },
                {
                    "name": "A3",
                    "midi": 57,
                    "time": 35.96026549999991,
                    "velocity": 0.33070866141732286,
                    "duration": 0.09933774999999656
                },
                {
                    "name": "D3",
                    "midi": 50,
                    "time": 36.158940999999906,
                    "velocity": 0.33070866141732286,
                    "duration": 0.09933774999999656
                },
                {
                    "name": "B3",
                    "midi": 59,
                    "time": 36.3576164999999,
                    "velocity": 0.33070866141732286,
                    "duration": 0.09933774999999656
                },
                {
                    "name": "F3",
                    "midi": 53,
                    "time": 36.3576164999999,
                    "velocity": 0.33070866141732286,
                    "duration": 0.09933774999999656
                },
                {
                    "name": "C3",
                    "midi": 48,
                    "time": 36.55629199999989,
                    "velocity": 0.3700787401574803,
                    "duration": 0.09933774999999656
                },
                {
                    "name": "A3",
                    "midi": 57,
                    "time": 36.754967499999886,
                    "velocity": 0.30708661417322836,
                    "duration": 0.09933774999999656
                },
                {
                    "name": "E3",
                    "midi": 52,
                    "time": 36.754967499999886,
                    "velocity": 0.30708661417322836,
                    "duration": 0.09933774999999656
                },
                {
                    "name": "D3",
                    "midi": 50,
                    "time": 36.95364299999988,
                    "velocity": 0.3228346456692913,
                    "duration": 0.09933774999999656
                },
                {
                    "name": "B3",
                    "midi": 59,
                    "time": 37.15231849999987,
                    "velocity": 0.3228346456692913,
                    "duration": 0.09933774999999656
                },
                {
                    "name": "F3",
                    "midi": 53,
                    "time": 37.15231849999987,
                    "velocity": 0.3228346456692913,
                    "duration": 0.09933774999999656
                },
                {
                    "name": "E3",
                    "midi": 52,
                    "time": 37.350993999999865,
                    "velocity": 0.3779527559055118,
                    "duration": 0.09933774999999656
                },
                {
                    "name": "A3",
                    "midi": 57,
                    "time": 37.350993999999865,
                    "velocity": 0.3779527559055118,
                    "duration": 0.09933774999999656
                },
                {
                    "name": "A3",
                    "midi": 57,
                    "time": 37.54966949999986,
                    "velocity": 0.3228346456692913,
                    "duration": 0.09933774999999656
                },
                {
                    "name": "E3",
                    "midi": 52,
                    "time": 37.54966949999986,
                    "velocity": 0.3228346456692913,
                    "duration": 0.09933774999999656
                },
                {
                    "name": "E3",
                    "midi": 52,
                    "time": 37.744205927083186,
                    "velocity": 0.3228346456692913,
                    "duration": 0.09933774999999656
                },
                {
                    "name": "G#3",
                    "midi": 56,
                    "time": 37.74834499999985,
                    "velocity": 0.3228346456692913,
                    "duration": 0.09933774999999656
                },
                {
                    "name": "E3",
                    "midi": 52,
                    "time": 37.947020499999844,
                    "velocity": 0.3228346456692913,
                    "duration": 0.09933774999999656
                },
                {
                    "name": "G#3",
                    "midi": 56,
                    "time": 37.947020499999844,
                    "velocity": 0.3228346456692913,
                    "duration": 0.09933774999999656
                },
                {
                    "name": "A2",
                    "midi": 45,
                    "time": 38.14569599999984,
                    "velocity": 0.36220472440944884,
                    "duration": 0.39735100000000045
                },
                {
                    "name": "A3",
                    "midi": 57,
                    "time": 38.14569599999984,
                    "velocity": 0.36220472440944884,
                    "duration": 0.3725165625000031
                },
                {
                    "name": "A2",
                    "midi": 45,
                    "time": 38.841060249999835,
                    "velocity": 0.5039370078740157,
                    "duration": 0.033112583333334555
                },
                {
                    "name": "C#3",
                    "midi": 49,
                    "time": 38.87417283333317,
                    "velocity": 0.5039370078740157,
                    "duration": 0.033112583333334555
                },
                {
                    "name": "E3",
                    "midi": 52,
                    "time": 38.907285416666504,
                    "velocity": 0.5039370078740157,
                    "duration": 0.033112583333334555
                },
                {
                    "name": "A3",
                    "midi": 57,
                    "time": 38.94039799999984,
                    "velocity": 0.5748031496062992,
                    "duration": 0.09933774999999656
                },
                {
                    "name": "A3",
                    "midi": 57,
                    "time": 39.13907349999983,
                    "velocity": 0.5433070866141733,
                    "duration": 0.09933774999999656
                },
                {
                    "name": "A3",
                    "midi": 57,
                    "time": 39.337748999999825,
                    "velocity": 0.5433070866141733,
                    "duration": 0.09933774999999656
                },
                {
                    "name": "A3",
                    "midi": 57,
                    "time": 39.53642449999982,
                    "velocity": 0.5433070866141733,
                    "duration": 0.09933774999999656
                },
                {
                    "name": "A2",
                    "midi": 45,
                    "time": 39.635762249999814,
                    "velocity": 0.47244094488188976,
                    "duration": 0.033112583333334555
                },
                {
                    "name": "C#3",
                    "midi": 49,
                    "time": 39.66887483333315,
                    "velocity": 0.47244094488188976,
                    "duration": 0.033112583333334555
                },
                {
                    "name": "E3",
                    "midi": 52,
                    "time": 39.70198741666648,
                    "velocity": 0.47244094488188976,
                    "duration": 0.033112583333334555
                },
                {
                    "name": "A3",
                    "midi": 57,
                    "time": 39.73509999999982,
                    "velocity": 0.5669291338582677,
                    "duration": 0.09933774999999656
                },
                {
                    "name": "A3",
                    "midi": 57,
                    "time": 39.93377549999981,
                    "velocity": 0.5039370078740157,
                    "duration": 0.09933774999999656
                },
                {
                    "name": "A3",
                    "midi": 57,
                    "time": 40.132450999999804,
                    "velocity": 0.5118110236220472,
                    "duration": 0.09933774999999656
                },
                {
                    "name": "A3",
                    "midi": 57,
                    "time": 40.3311264999998,
                    "velocity": 0.5275590551181102,
                    "duration": 0.09933774999999656
                },
                {
                    "name": "D2",
                    "midi": 38,
                    "time": 40.430464249999794,
                    "velocity": 0.49606299212598426,
                    "duration": 0.033112583333334555
                },
                {
                    "name": "F#2",
                    "midi": 42,
                    "time": 40.46357683333313,
                    "velocity": 0.49606299212598426,
                    "duration": 0.033112583333334555
                },
                {
                    "name": "A2",
                    "midi": 45,
                    "time": 40.49668941666646,
                    "velocity": 0.49606299212598426,
                    "duration": 0.033112583333334555
                },
                {
                    "name": "D3",
                    "midi": 50,
                    "time": 40.5298019999998,
                    "velocity": 0.5748031496062992,
                    "duration": 0.09933774999999656
                },
                {
                    "name": "D3",
                    "midi": 50,
                    "time": 40.72847749999979,
                    "velocity": 0.5433070866141733,
                    "duration": 0.09933774999999656
                },
                {
                    "name": "D#2",
                    "midi": 39,
                    "time": 40.82781524999979,
                    "velocity": 0.49606299212598426,
                    "duration": 0.033112583333334555
                },
                {
                    "name": "F#2",
                    "midi": 42,
                    "time": 40.86092783333312,
                    "velocity": 0.49606299212598426,
                    "duration": 0.033112583333334555
                },
                {
                    "name": "A2",
                    "midi": 45,
                    "time": 40.894040416666456,
                    "velocity": 0.49606299212598426,
                    "duration": 0.033112583333334555
                },
                {
                    "name": "D#3",
                    "midi": 51,
                    "time": 40.92715299999979,
                    "velocity": 0.5748031496062992,
                    "duration": 0.09933774999999656
                },
                {
                    "name": "D#3",
                    "midi": 51,
                    "time": 41.125828499999784,
                    "velocity": 0.5590551181102362,
                    "duration": 0.09933774999999656
                },
                {
                    "name": "E2",
                    "midi": 40,
                    "time": 41.22516624999978,
                    "velocity": 0.49606299212598426,
                    "duration": 0.033112583333334555
                },
                {
                    "name": "G#2",
                    "midi": 44,
                    "time": 41.258278833333115,
                    "velocity": 0.49606299212598426,
                    "duration": 0.033112583333334555
                },
                {
                    "name": "B2",
                    "midi": 47,
                    "time": 41.29139141666645,
                    "velocity": 0.49606299212598426,
                    "duration": 0.033112583333334555
                },
                {
                    "name": "E3",
                    "midi": 52,
                    "time": 41.324503999999784,
                    "velocity": 0.5748031496062992,
                    "duration": 0.19867550000000023
                },
                {
                    "name": "E3",
                    "midi": 52,
                    "time": 41.523179499999785,
                    "velocity": 0.5748031496062992,
                    "duration": 0.09933774999999656
                },
                {
                    "name": "A2",
                    "midi": 45,
                    "time": 42.01986824999978,
                    "velocity": 0.5039370078740157,
                    "duration": 0.033112583333334555
                },
                {
                    "name": "C#3",
                    "midi": 49,
                    "time": 42.052980833333116,
                    "velocity": 0.5039370078740157,
                    "duration": 0.033112583333334555
                },
                {
                    "name": "E3",
                    "midi": 52,
                    "time": 42.08609341666645,
                    "velocity": 0.5039370078740157,
                    "duration": 0.033112583333334555
                },
                {
                    "name": "A3",
                    "midi": 57,
                    "time": 42.119205999999785,
                    "velocity": 0.5748031496062992,
                    "duration": 0.09933774999999656
                },
                {
                    "name": "A3",
                    "midi": 57,
                    "time": 42.31788149999978,
                    "velocity": 0.5433070866141733,
                    "duration": 0.09933774999999656
                },
                {
                    "name": "A3",
                    "midi": 57,
                    "time": 42.51655699999977,
                    "velocity": 0.5433070866141733,
                    "duration": 0.09933774999999656
                },
                {
                    "name": "A3",
                    "midi": 57,
                    "time": 42.715232499999765,
                    "velocity": 0.5433070866141733,
                    "duration": 0.09933774999999656
                },
                {
                    "name": "A2",
                    "midi": 45,
                    "time": 42.81457024999976,
                    "velocity": 0.47244094488188976,
                    "duration": 0.033112583333334555
                },
                {
                    "name": "C#3",
                    "midi": 49,
                    "time": 42.847682833333096,
                    "velocity": 0.47244094488188976,
                    "duration": 0.033112583333334555
                },
                {
                    "name": "E3",
                    "midi": 52,
                    "time": 42.88079541666643,
                    "velocity": 0.47244094488188976,
                    "duration": 0.033112583333334555
                },
                {
                    "name": "A3",
                    "midi": 57,
                    "time": 42.913907999999765,
                    "velocity": 0.5669291338582677,
                    "duration": 0.09933774999999656
                },
                {
                    "name": "A3",
                    "midi": 57,
                    "time": 43.11258349999976,
                    "velocity": 0.5039370078740157,
                    "duration": 0.09933774999999656
                },
                {
                    "name": "A3",
                    "midi": 57,
                    "time": 43.31125899999975,
                    "velocity": 0.5118110236220472,
                    "duration": 0.09933774999999656
                },
                {
                    "name": "A3",
                    "midi": 57,
                    "time": 43.509934499999744,
                    "velocity": 0.5275590551181102,
                    "duration": 0.09933774999999656
                },
                {
                    "name": "D2",
                    "midi": 38,
                    "time": 43.60927224999974,
                    "velocity": 0.49606299212598426,
                    "duration": 0.033112583333334555
                },
                {
                    "name": "F#2",
                    "midi": 42,
                    "time": 43.642384833333075,
                    "velocity": 0.49606299212598426,
                    "duration": 0.033112583333334555
                },
                {
                    "name": "A2",
                    "midi": 45,
                    "time": 43.67549741666641,
                    "velocity": 0.49606299212598426,
                    "duration": 0.033112583333334555
                },
                {
                    "name": "D3",
                    "midi": 50,
                    "time": 43.708609999999744,
                    "velocity": 0.5748031496062992,
                    "duration": 0.09933774999999656
                },
                {
                    "name": "D3",
                    "midi": 50,
                    "time": 43.90728549999974,
                    "velocity": 0.5433070866141733,
                    "duration": 0.09933774999999656
                },
                {
                    "name": "E2",
                    "midi": 40,
                    "time": 44.006623249999734,
                    "velocity": 0.49606299212598426,
                    "duration": 0.033112583333334555
                },
                {
                    "name": "G#2",
                    "midi": 44,
                    "time": 44.03973583333307,
                    "velocity": 0.49606299212598426,
                    "duration": 0.033112583333334555
                },
                {
                    "name": "B2",
                    "midi": 47,
                    "time": 44.0728484166664,
                    "velocity": 0.49606299212598426,
                    "duration": 0.033112583333334555
                },
                {
                    "name": "E3",
                    "midi": 52,
                    "time": 44.10596099999974,
                    "velocity": 0.5748031496062992,
                    "duration": 0.09933774999999656
                },
                {
                    "name": "E3",
                    "midi": 52,
                    "time": 44.30463649999973,
                    "velocity": 0.5590551181102362,
                    "duration": 0.09933774999999656
                },
                {
                    "name": "A2",
                    "midi": 45,
                    "time": 44.503311999999724,
                    "velocity": 0.5748031496062992,
                    "duration": 0.3725165625000031
                },
                {
                    "name": "A2",
                    "midi": 45,
                    "time": 45.19867624999973,
                    "velocity": 0.5039370078740157,
                    "duration": 0.033112583333334555
                },
                {
                    "name": "C#3",
                    "midi": 49,
                    "time": 45.23178883333306,
                    "velocity": 0.5039370078740157,
                    "duration": 0.033112583333334555
                },
                {
                    "name": "E3",
                    "midi": 52,
                    "time": 45.2649014166664,
                    "velocity": 0.5039370078740157,
                    "duration": 0.033112583333334555
                },
                {
                    "name": "A3",
                    "midi": 57,
                    "time": 45.29801399999973,
                    "velocity": 0.5748031496062992,
                    "duration": 0.09933774999999656
                },
                {
                    "name": "A3",
                    "midi": 57,
                    "time": 45.496689499999725,
                    "velocity": 0.5433070866141733,
                    "duration": 0.09933774999999656
                },
                {
                    "name": "A3",
                    "midi": 57,
                    "time": 45.69536499999972,
                    "velocity": 0.5433070866141733,
                    "duration": 0.09933774999999656
                },
                {
                    "name": "A3",
                    "midi": 57,
                    "time": 45.89404049999971,
                    "velocity": 0.5433070866141733,
                    "duration": 0.09933774999999656
                },
                {
                    "name": "A2",
                    "midi": 45,
                    "time": 45.99337824999971,
                    "velocity": 0.47244094488188976,
                    "duration": 0.033112583333334555
                },
                {
                    "name": "C#3",
                    "midi": 49,
                    "time": 46.02649083333304,
                    "velocity": 0.47244094488188976,
                    "duration": 0.033112583333334555
                },
                {
                    "name": "E3",
                    "midi": 52,
                    "time": 46.05960341666638,
                    "velocity": 0.47244094488188976,
                    "duration": 0.033112583333334555
                },
                {
                    "name": "A3",
                    "midi": 57,
                    "time": 46.09271599999971,
                    "velocity": 0.5669291338582677,
                    "duration": 0.09933774999999656
                },
                {
                    "name": "A3",
                    "midi": 57,
                    "time": 46.291391499999705,
                    "velocity": 0.5039370078740157,
                    "duration": 0.09933774999999656
                },
                {
                    "name": "A3",
                    "midi": 57,
                    "time": 46.4900669999997,
                    "velocity": 0.5118110236220472,
                    "duration": 0.09933774999999656
                },
                {
                    "name": "A3",
                    "midi": 57,
                    "time": 46.68874249999969,
                    "velocity": 0.5275590551181102,
                    "duration": 0.09933774999999656
                },
                {
                    "name": "D2",
                    "midi": 38,
                    "time": 46.78808024999969,
                    "velocity": 0.49606299212598426,
                    "duration": 0.033112583333334555
                },
                {
                    "name": "F#2",
                    "midi": 42,
                    "time": 46.82119283333302,
                    "velocity": 0.49606299212598426,
                    "duration": 0.033112583333334555
                },
                {
                    "name": "A2",
                    "midi": 45,
                    "time": 46.85430541666636,
                    "velocity": 0.49606299212598426,
                    "duration": 0.033112583333334555
                },
                {
                    "name": "D3",
                    "midi": 50,
                    "time": 46.88741799999969,
                    "velocity": 0.5748031496062992,
                    "duration": 0.09933774999999656
                },
                {
                    "name": "D3",
                    "midi": 50,
                    "time": 47.086093499999684,
                    "velocity": 0.5433070866141733,
                    "duration": 0.09933774999999656
                },
                {
                    "name": "D#2",
                    "midi": 39,
                    "time": 47.18543124999968,
                    "velocity": 0.49606299212598426,
                    "duration": 0.033112583333334555
                },
                {
                    "name": "F#2",
                    "midi": 42,
                    "time": 47.218543833333015,
                    "velocity": 0.49606299212598426,
                    "duration": 0.033112583333334555
                },
                {
                    "name": "A2",
                    "midi": 45,
                    "time": 47.25165641666635,
                    "velocity": 0.49606299212598426,
                    "duration": 0.033112583333334555
                },
                {
                    "name": "D#3",
                    "midi": 51,
                    "time": 47.284768999999685,
                    "velocity": 0.5748031496062992,
                    "duration": 0.09933774999999656
                },
                {
                    "name": "D#3",
                    "midi": 51,
                    "time": 47.48344449999968,
                    "velocity": 0.5590551181102362,
                    "duration": 0.09933774999999656
                },
                {
                    "name": "E2",
                    "midi": 40,
                    "time": 47.582782249999674,
                    "velocity": 0.49606299212598426,
                    "duration": 0.033112583333334555
                },
                {
                    "name": "G#2",
                    "midi": 44,
                    "time": 47.61589483333301,
                    "velocity": 0.49606299212598426,
                    "duration": 0.033112583333334555
                },
                {
                    "name": "B2",
                    "midi": 47,
                    "time": 47.64900741666634,
                    "velocity": 0.49606299212598426,
                    "duration": 0.033112583333334555
                },
                {
                    "name": "E3",
                    "midi": 52,
                    "time": 47.68211999999968,
                    "velocity": 0.5748031496062992,
                    "duration": 0.19867550000000023
                },
                {
                    "name": "E3",
                    "midi": 52,
                    "time": 47.88079549999968,
                    "velocity": 0.5748031496062992,
                    "duration": 0.09933774999999656
                },
                {
                    "name": "A2",
                    "midi": 45,
                    "time": 48.377484249999675,
                    "velocity": 0.5039370078740157,
                    "duration": 0.033112583333334555
                },
                {
                    "name": "C#3",
                    "midi": 49,
                    "time": 48.41059683333301,
                    "velocity": 0.5039370078740157,
                    "duration": 0.033112583333334555
                },
                {
                    "name": "E3",
                    "midi": 52,
                    "time": 48.443709416666344,
                    "velocity": 0.5039370078740157,
                    "duration": 0.033112583333334555
                },
                {
                    "name": "A3",
                    "midi": 57,
                    "time": 48.47682199999968,
                    "velocity": 0.5748031496062992,
                    "duration": 0.09933774999999656
                },
                {
                    "name": "A3",
                    "midi": 57,
                    "time": 48.67549749999967,
                    "velocity": 0.5433070866141733,
                    "duration": 0.09933774999999656
                },
                {
                    "name": "A3",
                    "midi": 57,
                    "time": 48.874172999999665,
                    "velocity": 0.5433070866141733,
                    "duration": 0.09933774999999656
                },
                {
                    "name": "A3",
                    "midi": 57,
                    "time": 49.07284849999966,
                    "velocity": 0.5433070866141733,
                    "duration": 0.09933774999999656
                },
                {
                    "name": "A2",
                    "midi": 45,
                    "time": 49.172186249999655,
                    "velocity": 0.47244094488188976,
                    "duration": 0.033112583333334555
                },
                {
                    "name": "C#3",
                    "midi": 49,
                    "time": 49.20529883333299,
                    "velocity": 0.47244094488188976,
                    "duration": 0.033112583333334555
                },
                {
                    "name": "E3",
                    "midi": 52,
                    "time": 49.238411416666324,
                    "velocity": 0.47244094488188976,
                    "duration": 0.033112583333334555
                },
                {
                    "name": "A3",
                    "midi": 57,
                    "time": 49.27152399999966,
                    "velocity": 0.5669291338582677,
                    "duration": 0.09933774999999656
                },
                {
                    "name": "A3",
                    "midi": 57,
                    "time": 49.47019949999965,
                    "velocity": 0.5039370078740157,
                    "duration": 0.09933774999999656
                },
                {
                    "name": "A3",
                    "midi": 57,
                    "time": 49.668874999999645,
                    "velocity": 0.5118110236220472,
                    "duration": 0.09933774999999656
                },
                {
                    "name": "A3",
                    "midi": 57,
                    "time": 49.86755049999964,
                    "velocity": 0.5275590551181102,
                    "duration": 0.09933774999999656
                },
                {
                    "name": "D2",
                    "midi": 38,
                    "time": 49.966888249999634,
                    "velocity": 0.49606299212598426,
                    "duration": 0.033112583333334555
                },
                {
                    "name": "F#2",
                    "midi": 42,
                    "time": 50.00000083333297,
                    "velocity": 0.49606299212598426,
                    "duration": 0.033112583333334555
                },
                {
                    "name": "A2",
                    "midi": 45,
                    "time": 50.0331134166663,
                    "velocity": 0.49606299212598426,
                    "duration": 0.033112583333334555
                },
                {
                    "name": "D3",
                    "midi": 50,
                    "time": 50.06622599999964,
                    "velocity": 0.5748031496062992,
                    "duration": 0.09933774999999656
                },
                {
                    "name": "D3",
                    "midi": 50,
                    "time": 50.26490149999963,
                    "velocity": 0.5433070866141733,
                    "duration": 0.09933774999999656
                },
                {
                    "name": "E2",
                    "midi": 40,
                    "time": 50.36423924999963,
                    "velocity": 0.49606299212598426,
                    "duration": 0.033112583333334555
                },
                {
                    "name": "G#2",
                    "midi": 44,
                    "time": 50.39735183333296,
                    "velocity": 0.49606299212598426,
                    "duration": 0.033112583333334555
                },
                {
                    "name": "B2",
                    "midi": 47,
                    "time": 50.4304644166663,
                    "velocity": 0.49606299212598426,
                    "duration": 0.033112583333334555
                },
                {
                    "name": "E3",
                    "midi": 52,
                    "time": 50.46357699999963,
                    "velocity": 0.5748031496062992,
                    "duration": 0.09933774999999656
                },
                {
                    "name": "E3",
                    "midi": 52,
                    "time": 50.662252499999624,
                    "velocity": 0.5590551181102362,
                    "duration": 0.09933774999999656
                },
                {
                    "name": "A2",
                    "midi": 45,
                    "time": 50.86092799999962,
                    "velocity": 0.5748031496062992,
                    "duration": 0.3725165625000031
                },
                {
                    "name": "F#3",
                    "midi": 54,
                    "time": 51.65562999999962,
                    "velocity": 0.3937007874015748,
                    "duration": 0.09933774999999656
                },
                {
                    "name": "C#4",
                    "midi": 61,
                    "time": 51.85430549999961,
                    "velocity": 0.29133858267716534,
                    "duration": 0.09933774999999656
                },
                {
                    "name": "A3",
                    "midi": 57,
                    "time": 51.85430549999961,
                    "velocity": 0.2440944881889764,
                    "duration": 0.09933774999999656
                },
                {
                    "name": "C#4",
                    "midi": 61,
                    "time": 52.052980999999605,
                    "velocity": 0.29133858267716534,
                    "duration": 0.09933774999999656
                },
                {
                    "name": "A3",
                    "midi": 57,
                    "time": 52.052980999999605,
                    "velocity": 0.2440944881889764,
                    "duration": 0.09933774999999656
                },
                {
                    "name": "C#4",
                    "midi": 61,
                    "time": 52.2516564999996,
                    "velocity": 0.29133858267716534,
                    "duration": 0.09933774999999656
                },
                {
                    "name": "A3",
                    "midi": 57,
                    "time": 52.2516564999996,
                    "velocity": 0.2440944881889764,
                    "duration": 0.09933774999999656
                },
                {
                    "name": "G#3",
                    "midi": 56,
                    "time": 52.45033199999959,
                    "velocity": 0.3937007874015748,
                    "duration": 0.09933774999999656
                },
                {
                    "name": "C#4",
                    "midi": 61,
                    "time": 52.649007499999584,
                    "velocity": 0.28346456692913385,
                    "duration": 0.09933774999999656
                },
                {
                    "name": "B3",
                    "midi": 59,
                    "time": 52.649007499999584,
                    "velocity": 0.23622047244094488,
                    "duration": 0.09933774999999656
                },
                {
                    "name": "C#4",
                    "midi": 61,
                    "time": 52.84768299999958,
                    "velocity": 0.28346456692913385,
                    "duration": 0.09933774999999656
                },
                {
                    "name": "B3",
                    "midi": 59,
                    "time": 52.84768299999958,
                    "velocity": 0.23622047244094488,
                    "duration": 0.09933774999999656
                },
                {
                    "name": "C#4",
                    "midi": 61,
                    "time": 53.04635849999957,
                    "velocity": 0.28346456692913385,
                    "duration": 0.09933774999999656
                },
                {
                    "name": "B3",
                    "midi": 59,
                    "time": 53.04635849999957,
                    "velocity": 0.23622047244094488,
                    "duration": 0.09933774999999656
                },
                {
                    "name": "F#3",
                    "midi": 54,
                    "time": 53.24503399999956,
                    "velocity": 0.3937007874015748,
                    "duration": 0.09933774999999656
                },
                {
                    "name": "C#4",
                    "midi": 61,
                    "time": 53.44370949999956,
                    "velocity": 0.28346456692913385,
                    "duration": 0.09933774999999656
                },
                {
                    "name": "A3",
                    "midi": 57,
                    "time": 53.44370949999956,
                    "velocity": 0.23622047244094488,
                    "duration": 0.09933774999999656
                },
                {
                    "name": "C#4",
                    "midi": 61,
                    "time": 53.64238499999955,
                    "velocity": 0.29133858267716534,
                    "duration": 0.09933774999999656
                },
                {
                    "name": "A3",
                    "midi": 57,
                    "time": 53.64238499999955,
                    "velocity": 0.2440944881889764,
                    "duration": 0.09933774999999656
                },
                {
                    "name": "C#4",
                    "midi": 61,
                    "time": 53.84106049999954,
                    "velocity": 0.2992125984251969,
                    "duration": 0.09933774999999656
                },
                {
                    "name": "A3",
                    "midi": 57,
                    "time": 53.84106049999954,
                    "velocity": 0.25196850393700787,
                    "duration": 0.09933774999999656
                },
                {
                    "name": "F3",
                    "midi": 53,
                    "time": 54.039735999999536,
                    "velocity": 0.4330708661417323,
                    "duration": 0.09933774999999656
                },
                {
                    "name": "C#4",
                    "midi": 61,
                    "time": 54.23841149999953,
                    "velocity": 0.2992125984251969,
                    "duration": 0.09933774999999656
                },
                {
                    "name": "G#3",
                    "midi": 56,
                    "time": 54.23841149999953,
                    "velocity": 0.2440944881889764,
                    "duration": 0.09933774999999656
                },
                {
                    "name": "C#4",
                    "midi": 61,
                    "time": 54.43708699999952,
                    "velocity": 0.2992125984251969,
                    "duration": 0.09933774999999656
                },
                {
                    "name": "G#3",
                    "midi": 56,
                    "time": 54.43708699999952,
                    "velocity": 0.2440944881889764,
                    "duration": 0.09933774999999656
                },
                {
                    "name": "C#4",
                    "midi": 61,
                    "time": 54.635762499999515,
                    "velocity": 0.2992125984251969,
                    "duration": 0.09933774999999656
                },
                {
                    "name": "G#3",
                    "midi": 56,
                    "time": 54.635762499999515,
                    "velocity": 0.2440944881889764,
                    "duration": 0.09933774999999656
                },
                {
                    "name": "F#3",
                    "midi": 54,
                    "time": 54.83443799999951,
                    "velocity": 0.3937007874015748,
                    "duration": 0.09933774999999656
                },
                {
                    "name": "C#4",
                    "midi": 61,
                    "time": 55.0331134999995,
                    "velocity": 0.28346456692913385,
                    "duration": 0.09933774999999656
                },
                {
                    "name": "A3",
                    "midi": 57,
                    "time": 55.0331134999995,
                    "velocity": 0.23622047244094488,
                    "duration": 0.09933774999999656
                },
                {
                    "name": "C#4",
                    "midi": 61,
                    "time": 55.231788999999495,
                    "velocity": 0.28346456692913385,
                    "duration": 0.09933774999999656
                },
                {
                    "name": "A3",
                    "midi": 57,
                    "time": 55.231788999999495,
                    "velocity": 0.23622047244094488,
                    "duration": 0.09933774999999656
                },
                {
                    "name": "C#4",
                    "midi": 61,
                    "time": 55.43046449999949,
                    "velocity": 0.28346456692913385,
                    "duration": 0.09933774999999656
                },
                {
                    "name": "A3",
                    "midi": 57,
                    "time": 55.43046449999949,
                    "velocity": 0.23622047244094488,
                    "duration": 0.09933774999999656
                },
                {
                    "name": "G#3",
                    "midi": 56,
                    "time": 55.62913999999948,
                    "velocity": 0.3937007874015748,
                    "duration": 0.09933774999999656
                },
                {
                    "name": "E4",
                    "midi": 64,
                    "time": 55.827815499999474,
                    "velocity": 0.28346456692913385,
                    "duration": 0.09933774999999656
                },
                {
                    "name": "C#4",
                    "midi": 61,
                    "time": 55.827815499999474,
                    "velocity": 0.23622047244094488,
                    "duration": 0.09933774999999656
                },
                {
                    "name": "E4",
                    "midi": 64,
                    "time": 56.02649099999947,
                    "velocity": 0.28346456692913385,
                    "duration": 0.09933774999999656
                },
                {
                    "name": "C#4",
                    "midi": 61,
                    "time": 56.02649099999947,
                    "velocity": 0.23622047244094488,
                    "duration": 0.09933774999999656
                },
                {
                    "name": "E4",
                    "midi": 64,
                    "time": 56.22516649999946,
                    "velocity": 0.28346456692913385,
                    "duration": 0.09933774999999656
                },
                {
                    "name": "C#4",
                    "midi": 61,
                    "time": 56.22516649999946,
                    "velocity": 0.23622047244094488,
                    "duration": 0.09933774999999656
                },
                {
                    "name": "G#3",
                    "midi": 56,
                    "time": 56.42384199999945,
                    "velocity": 0.3937007874015748,
                    "duration": 0.09933774999999656
                },
                {
                    "name": "F#4",
                    "midi": 66,
                    "time": 56.62251749999945,
                    "velocity": 0.29133858267716534,
                    "duration": 0.09933774999999656
                },
                {
                    "name": "D#4",
                    "midi": 63,
                    "time": 56.62251749999945,
                    "velocity": 0.2440944881889764,
                    "duration": 0.09933774999999656
                },
                {
                    "name": "D#4",
                    "midi": 63,
                    "time": 56.82119299999944,
                    "velocity": 0.2440944881889764,
                    "duration": 0.09933774999999656
                },
                {
                    "name": "F#4",
                    "midi": 66,
                    "time": 56.82119299999944,
                    "velocity": 0.29133858267716534,
                    "duration": 0.09933774999999656
                },
                {
                    "name": "D#4",
                    "midi": 63,
                    "time": 57.01986849999943,
                    "velocity": 0.2440944881889764,
                    "duration": 0.09933774999999656
                },
                {
                    "name": "F#4",
                    "midi": 66,
                    "time": 57.01986849999943,
                    "velocity": 0.29133858267716534,
                    "duration": 0.09933774999999656
                },
                {
                    "name": "E4",
                    "midi": 64,
                    "time": 57.218543999999426,
                    "velocity": 0.3937007874015748,
                    "duration": 0.3725165625000031
                },
                {
                    "name": "C#4",
                    "midi": 61,
                    "time": 57.218543999999426,
                    "velocity": 0.33070866141732286,
                    "duration": 0.3725165625000031
                },
                {
                    "name": "F#3",
                    "midi": 54,
                    "time": 58.01324599999943,
                    "velocity": 0.3937007874015748,
                    "duration": 0.09933774999999656
                },
                {
                    "name": "C#4",
                    "midi": 61,
                    "time": 58.21192149999942,
                    "velocity": 0.29133858267716534,
                    "duration": 0.09933774999999656
                },
                {
                    "name": "A3",
                    "midi": 57,
                    "time": 58.21192149999942,
                    "velocity": 0.2440944881889764,
                    "duration": 0.09933774999999656
                },
                {
                    "name": "C#4",
                    "midi": 61,
                    "time": 58.41059699999941,
                    "velocity": 0.29133858267716534,
                    "duration": 0.09933774999999656
                },
                {
                    "name": "A3",
                    "midi": 57,
                    "time": 58.41059699999941,
                    "velocity": 0.2440944881889764,
                    "duration": 0.09933774999999656
                },
                {
                    "name": "C#4",
                    "midi": 61,
                    "time": 58.609272499999406,
                    "velocity": 0.29133858267716534,
                    "duration": 0.09933774999999656
                },
                {
                    "name": "A3",
                    "midi": 57,
                    "time": 58.609272499999406,
                    "velocity": 0.2440944881889764,
                    "duration": 0.09933774999999656
                },
                {
                    "name": "G#3",
                    "midi": 56,
                    "time": 58.8079479999994,
                    "velocity": 0.3937007874015748,
                    "duration": 0.09933774999999656
                },
                {
                    "name": "C#4",
                    "midi": 61,
                    "time": 59.00662349999939,
                    "velocity": 0.28346456692913385,
                    "duration": 0.09933774999999656
                },
                {
                    "name": "B3",
                    "midi": 59,
                    "time": 59.00662349999939,
                    "velocity": 0.23622047244094488,
                    "duration": 0.09933774999999656
                },
                {
                    "name": "C#4",
                    "midi": 61,
                    "time": 59.205298999999386,
                    "velocity": 0.28346456692913385,
                    "duration": 0.09933774999999656
                },
                {
                    "name": "B3",
                    "midi": 59,
                    "time": 59.205298999999386,
                    "velocity": 0.23622047244094488,
                    "duration": 0.09933774999999656
                },
                {
                    "name": "C#4",
                    "midi": 61,
                    "time": 59.40397449999938,
                    "velocity": 0.28346456692913385,
                    "duration": 0.09933774999999656
                },
                {
                    "name": "B3",
                    "midi": 59,
                    "time": 59.40397449999938,
                    "velocity": 0.23622047244094488,
                    "duration": 0.09933774999999656
                },
                {
                    "name": "F#3",
                    "midi": 54,
                    "time": 59.60264999999937,
                    "velocity": 0.3937007874015748,
                    "duration": 0.09933774999999656
                },
                {
                    "name": "C#4",
                    "midi": 61,
                    "time": 59.801325499999365,
                    "velocity": 0.28346456692913385,
                    "duration": 0.09933774999999656
                },
                {
                    "name": "A3",
                    "midi": 57,
                    "time": 59.801325499999365,
                    "velocity": 0.23622047244094488,
                    "duration": 0.09933774999999656
                },
                {
                    "name": "C#4",
                    "midi": 61,
                    "time": 60.00000099999936,
                    "velocity": 0.29133858267716534,
                    "duration": 0.09933774999999656
                },
                {
                    "name": "A3",
                    "midi": 57,
                    "time": 60.00000099999936,
                    "velocity": 0.2440944881889764,
                    "duration": 0.09933774999999656
                },
                {
                    "name": "C#4",
                    "midi": 61,
                    "time": 60.19867649999935,
                    "velocity": 0.2992125984251969,
                    "duration": 0.09933774999999656
                },
                {
                    "name": "A3",
                    "midi": 57,
                    "time": 60.19867649999935,
                    "velocity": 0.25196850393700787,
                    "duration": 0.09933774999999656
                },
                {
                    "name": "F3",
                    "midi": 53,
                    "time": 60.397351999999344,
                    "velocity": 0.4330708661417323,
                    "duration": 0.09933774999999656
                },
                {
                    "name": "C#4",
                    "midi": 61,
                    "time": 60.59602749999934,
                    "velocity": 0.2992125984251969,
                    "duration": 0.09933774999999656
                },
                {
                    "name": "G#3",
                    "midi": 56,
                    "time": 60.59602749999934,
                    "velocity": 0.2440944881889764,
                    "duration": 0.09933774999999656
                },
                {
                    "name": "C#4",
                    "midi": 61,
                    "time": 60.79470299999933,
                    "velocity": 0.2992125984251969,
                    "duration": 0.09933774999999656
                },
                {
                    "name": "G#3",
                    "midi": 56,
                    "time": 60.79470299999933,
                    "velocity": 0.2440944881889764,
                    "duration": 0.09933774999999656
                },
                {
                    "name": "C#4",
                    "midi": 61,
                    "time": 60.993378499999324,
                    "velocity": 0.2992125984251969,
                    "duration": 0.09933774999999656
                },
                {
                    "name": "G#3",
                    "midi": 56,
                    "time": 60.993378499999324,
                    "velocity": 0.2440944881889764,
                    "duration": 0.09933774999999656
                },
                {
                    "name": "F#3",
                    "midi": 54,
                    "time": 61.19205399999932,
                    "velocity": 0.3937007874015748,
                    "duration": 0.09933774999999656
                },
                {
                    "name": "C#4",
                    "midi": 61,
                    "time": 61.39072949999931,
                    "velocity": 0.28346456692913385,
                    "duration": 0.09933774999999656
                },
                {
                    "name": "A3",
                    "midi": 57,
                    "time": 61.39072949999931,
                    "velocity": 0.23622047244094488,
                    "duration": 0.09933774999999656
                },
                {
                    "name": "C#4",
                    "midi": 61,
                    "time": 61.5894049999993,
                    "velocity": 0.28346456692913385,
                    "duration": 0.09933774999999656
                },
                {
                    "name": "A3",
                    "midi": 57,
                    "time": 61.5894049999993,
                    "velocity": 0.23622047244094488,
                    "duration": 0.09933774999999656
                },
                {
                    "name": "C#4",
                    "midi": 61,
                    "time": 61.788080499999296,
                    "velocity": 0.28346456692913385,
                    "duration": 0.09933774999999656
                },
                {
                    "name": "A3",
                    "midi": 57,
                    "time": 61.788080499999296,
                    "velocity": 0.23622047244094488,
                    "duration": 0.09933774999999656
                },
                {
                    "name": "G#3",
                    "midi": 56,
                    "time": 61.98675599999929,
                    "velocity": 0.3937007874015748,
                    "duration": 0.09933774999999656
                },
                {
                    "name": "E4",
                    "midi": 64,
                    "time": 62.18543149999928,
                    "velocity": 0.28346456692913385,
                    "duration": 0.09933774999999656
                },
                {
                    "name": "C#4",
                    "midi": 61,
                    "time": 62.18543149999928,
                    "velocity": 0.23622047244094488,
                    "duration": 0.09933774999999656
                },
                {
                    "name": "E4",
                    "midi": 64,
                    "time": 62.384106999999275,
                    "velocity": 0.28346456692913385,
                    "duration": 0.09933774999999656
                },
                {
                    "name": "C#4",
                    "midi": 61,
                    "time": 62.384106999999275,
                    "velocity": 0.23622047244094488,
                    "duration": 0.09933774999999656
                },
                {
                    "name": "E4",
                    "midi": 64,
                    "time": 62.58278249999927,
                    "velocity": 0.28346456692913385,
                    "duration": 0.09933774999999656
                },
                {
                    "name": "C#4",
                    "midi": 61,
                    "time": 62.58278249999927,
                    "velocity": 0.23622047244094488,
                    "duration": 0.09933774999999656
                },
                {
                    "name": "G#3",
                    "midi": 56,
                    "time": 62.78145799999926,
                    "velocity": 0.3937007874015748,
                    "duration": 0.09933774999999656
                },
                {
                    "name": "F#4",
                    "midi": 66,
                    "time": 62.980133499999255,
                    "velocity": 0.29133858267716534,
                    "duration": 0.09933774999999656
                },
                {
                    "name": "D#4",
                    "midi": 63,
                    "time": 62.980133499999255,
                    "velocity": 0.2440944881889764,
                    "duration": 0.09933774999999656
                },
                {
                    "name": "D#4",
                    "midi": 63,
                    "time": 63.17880899999925,
                    "velocity": 0.2440944881889764,
                    "duration": 0.09933774999999656
                },
                {
                    "name": "F#4",
                    "midi": 66,
                    "time": 63.17880899999925,
                    "velocity": 0.29133858267716534,
                    "duration": 0.09933774999999656
                },
                {
                    "name": "D#4",
                    "midi": 63,
                    "time": 63.37748449999924,
                    "velocity": 0.2440944881889764,
                    "duration": 0.09933774999999656
                },
                {
                    "name": "F#4",
                    "midi": 66,
                    "time": 63.37748449999924,
                    "velocity": 0.29133858267716534,
                    "duration": 0.09933774999999656
                },
                {
                    "name": "E4",
                    "midi": 64,
                    "time": 63.576159999999234,
                    "velocity": 0.3937007874015748,
                    "duration": 0.3725165625000031
                },
                {
                    "name": "C#4",
                    "midi": 61,
                    "time": 63.576159999999234,
                    "velocity": 0.33070866141732286,
                    "duration": 0.3725165625000031
                },
                {
                    "name": "A3",
                    "midi": 57,
                    "time": 64.37086199999924,
                    "velocity": 0.44881889763779526,
                    "duration": 0.09933775000000367
                },
                {
                    "name": "E4",
                    "midi": 64,
                    "time": 64.56953749999924,
                    "velocity": 0.33858267716535434,
                    "duration": 0.09933775000000367
                },
                {
                    "name": "C#4",
                    "midi": 61,
                    "time": 64.56953749999924,
                    "velocity": 0.28346456692913385,
                    "duration": 0.09933775000000367
                },
                {
                    "name": "E4",
                    "midi": 64,
                    "time": 64.76821299999925,
                    "velocity": 0.33858267716535434,
                    "duration": 0.09933775000000367
                },
                {
                    "name": "C#4",
                    "midi": 61,
                    "time": 64.76821299999925,
                    "velocity": 0.28346456692913385,
                    "duration": 0.09933775000000367
                },
                {
                    "name": "E4",
                    "midi": 64,
                    "time": 64.96688849999926,
                    "velocity": 0.33858267716535434,
                    "duration": 0.09933775000000367
                },
                {
                    "name": "C#4",
                    "midi": 61,
                    "time": 64.96688849999926,
                    "velocity": 0.28346456692913385,
                    "duration": 0.09933775000000367
                },
                {
                    "name": "B3",
                    "midi": 59,
                    "time": 65.16556399999926,
                    "velocity": 0.44881889763779526,
                    "duration": 0.09933775000000367
                },
                {
                    "name": "E4",
                    "midi": 64,
                    "time": 65.36423949999927,
                    "velocity": 0.33070866141732286,
                    "duration": 0.09933775000000367
                },
                {
                    "name": "D4",
                    "midi": 62,
                    "time": 65.36423949999927,
                    "velocity": 0.2755905511811024,
                    "duration": 0.09933775000000367
                },
                {
                    "name": "G#3",
                    "midi": 56,
                    "time": 65.56291499999928,
                    "velocity": 0.44881889763779526,
                    "duration": 0.09933775000000367
                },
                {
                    "name": "E4",
                    "midi": 64,
                    "time": 65.76159049999929,
                    "velocity": 0.33070866141732286,
                    "duration": 0.09933775000000367
                },
                {
                    "name": "D4",
                    "midi": 62,
                    "time": 65.76159049999929,
                    "velocity": 0.2755905511811024,
                    "duration": 0.09933775000000367
                },
                {
                    "name": "A3",
                    "midi": 57,
                    "time": 65.9602659999993,
                    "velocity": 0.44881889763779526,
                    "duration": 0.09933775000000367
                },
                {
                    "name": "E4",
                    "midi": 64,
                    "time": 66.1589414999993,
                    "velocity": 0.3228346456692913,
                    "duration": 0.09933775000000367
                },
                {
                    "name": "C#4",
                    "midi": 61,
                    "time": 66.1589414999993,
                    "velocity": 0.2755905511811024,
                    "duration": 0.09933775000000367
                },
                {
                    "name": "E4",
                    "midi": 64,
                    "time": 66.35761699999931,
                    "velocity": 0.3228346456692913,
                    "duration": 0.09933775000000367
                },
                {
                    "name": "C#4",
                    "midi": 61,
                    "time": 66.35761699999931,
                    "velocity": 0.2755905511811024,
                    "duration": 0.09933775000000367
                },
                {
                    "name": "E4",
                    "midi": 64,
                    "time": 66.55629249999932,
                    "velocity": 0.3228346456692913,
                    "duration": 0.09933775000000367
                },
                {
                    "name": "C#4",
                    "midi": 61,
                    "time": 66.55629249999932,
                    "velocity": 0.2755905511811024,
                    "duration": 0.09933775000000367
                },
                {
                    "name": "E3",
                    "midi": 52,
                    "time": 66.75496799999932,
                    "velocity": 0.44881889763779526,
                    "duration": 0.19867549999999312
                },
                {
                    "name": "D4",
                    "midi": 62,
                    "time": 66.95364349999932,
                    "velocity": 0.30708661417322836,
                    "duration": 0.09933775000000367
                },
                {
                    "name": "G#3",
                    "midi": 56,
                    "time": 66.95364349999932,
                    "velocity": 0.25984251968503935,
                    "duration": 0.09933775000000367
                },
                {
                    "name": "G#3",
                    "midi": 56,
                    "time": 67.15231899999932,
                    "velocity": 0.25984251968503935,
                    "duration": 0.09933775000000367
                },
                {
                    "name": "D4",
                    "midi": 62,
                    "time": 67.15231899999932,
                    "velocity": 0.30708661417322836,
                    "duration": 0.09933775000000367
                },
                {
                    "name": "G#3",
                    "midi": 56,
                    "time": 67.35099449999933,
                    "velocity": 0.25984251968503935,
                    "duration": 0.09933775000000367
                },
                {
                    "name": "D4",
                    "midi": 62,
                    "time": 67.35099449999933,
                    "velocity": 0.30708661417322836,
                    "duration": 0.09933775000000367
                },
                {
                    "name": "A3",
                    "midi": 57,
                    "time": 67.54966999999934,
                    "velocity": 0.44881889763779526,
                    "duration": 0.09933775000000367
                },
                {
                    "name": "E4",
                    "midi": 64,
                    "time": 67.74834549999935,
                    "velocity": 0.33858267716535434,
                    "duration": 0.09933775000000367
                },
                {
                    "name": "C#4",
                    "midi": 61,
                    "time": 67.74834549999935,
                    "velocity": 0.28346456692913385,
                    "duration": 0.09933775000000367
                },
                {
                    "name": "E4",
                    "midi": 64,
                    "time": 67.94702099999935,
                    "velocity": 0.33858267716535434,
                    "duration": 0.09933775000000367
                },
                {
                    "name": "C#4",
                    "midi": 61,
                    "time": 67.94702099999935,
                    "velocity": 0.28346456692913385,
                    "duration": 0.09933775000000367
                },
                {
                    "name": "E4",
                    "midi": 64,
                    "time": 68.14569649999936,
                    "velocity": 0.33858267716535434,
                    "duration": 0.09933775000000367
                },
                {
                    "name": "C#4",
                    "midi": 61,
                    "time": 68.14569649999936,
                    "velocity": 0.28346456692913385,
                    "duration": 0.09933775000000367
                },
                {
                    "name": "B3",
                    "midi": 59,
                    "time": 68.34437199999937,
                    "velocity": 0.44881889763779526,
                    "duration": 0.09933775000000367
                },
                {
                    "name": "E4",
                    "midi": 64,
                    "time": 68.54304749999937,
                    "velocity": 0.33070866141732286,
                    "duration": 0.09933775000000367
                },
                {
                    "name": "D4",
                    "midi": 62,
                    "time": 68.54304749999937,
                    "velocity": 0.2755905511811024,
                    "duration": 0.09933775000000367
                },
                {
                    "name": "G#3",
                    "midi": 56,
                    "time": 68.74172299999938,
                    "velocity": 0.44881889763779526,
                    "duration": 0.09933775000000367
                },
                {
                    "name": "E4",
                    "midi": 64,
                    "time": 68.94039849999939,
                    "velocity": 0.33070866141732286,
                    "duration": 0.09933775000000367
                },
                {
                    "name": "D4",
                    "midi": 62,
                    "time": 68.94039849999939,
                    "velocity": 0.2755905511811024,
                    "duration": 0.09933775000000367
                },
                {
                    "name": "A3",
                    "midi": 57,
                    "time": 69.1390739999994,
                    "velocity": 0.44881889763779526,
                    "duration": 0.09933775000000367
                },
                {
                    "name": "F#3",
                    "midi": 54,
                    "time": 69.3377494999994,
                    "velocity": 0.36220472440944884,
                    "duration": 0.09933775000000367
                },
                {
                    "name": "D3",
                    "midi": 50,
                    "time": 69.53642499999941,
                    "velocity": 0.36220472440944884,
                    "duration": 0.09933775000000367
                },
                {
                    "name": "E3",
                    "midi": 52,
                    "time": 69.73510049999942,
                    "velocity": 0.36220472440944884,
                    "duration": 0.09933775000000367
                },
                {
                    "name": "A2",
                    "midi": 45,
                    "time": 69.93377599999943,
                    "velocity": 0.44881889763779526,
                    "duration": 0.19867549999999312
                },
                {
                    "name": "A3",
                    "midi": 57,
                    "time": 70.13245149999942,
                    "velocity": 0.3464566929133858,
                    "duration": 0.09933775000000367
                },
                {
                    "name": "E3",
                    "midi": 52,
                    "time": 70.72847799999943,
                    "velocity": 0.3937007874015748,
                    "duration": 0.09933775000000367
                },
                {
                    "name": "C#4",
                    "midi": 61,
                    "time": 70.92715349999943,
                    "velocity": 0.33070866141732286,
                    "duration": 0.09933775000000367
                },
                {
                    "name": "A3",
                    "midi": 57,
                    "time": 70.92715349999943,
                    "velocity": 0.2755905511811024,
                    "duration": 0.09933775000000367
                },
                {
                    "name": "C#4",
                    "midi": 61,
                    "time": 71.12582899999944,
                    "velocity": 0.33070866141732286,
                    "duration": 0.09933775000000367
                },
                {
                    "name": "A3",
                    "midi": 57,
                    "time": 71.12582899999944,
                    "velocity": 0.2755905511811024,
                    "duration": 0.09933775000000367
                },
                {
                    "name": "C#4",
                    "midi": 61,
                    "time": 71.32450449999945,
                    "velocity": 0.33070866141732286,
                    "duration": 0.09933775000000367
                },
                {
                    "name": "A3",
                    "midi": 57,
                    "time": 71.32450449999945,
                    "velocity": 0.2755905511811024,
                    "duration": 0.09933775000000367
                },
                {
                    "name": "G#3",
                    "midi": 56,
                    "time": 71.52317999999946,
                    "velocity": 0.3937007874015748,
                    "duration": 0.09933775000000367
                },
                {
                    "name": "C#4",
                    "midi": 61,
                    "time": 71.72185549999946,
                    "velocity": 0.3228346456692913,
                    "duration": 0.09933775000000367
                },
                {
                    "name": "B3",
                    "midi": 59,
                    "time": 71.72185549999946,
                    "velocity": 0.2677165354330709,
                    "duration": 0.09933775000000367
                },
                {
                    "name": "C#4",
                    "midi": 61,
                    "time": 71.92053099999947,
                    "velocity": 0.3228346456692913,
                    "duration": 0.09933775000000367
                },
                {
                    "name": "B3",
                    "midi": 59,
                    "time": 71.92053099999947,
                    "velocity": 0.2677165354330709,
                    "duration": 0.09933775000000367
                },
                {
                    "name": "C#4",
                    "midi": 61,
                    "time": 72.11920649999948,
                    "velocity": 0.3228346456692913,
                    "duration": 0.09933775000000367
                },
                {
                    "name": "B3",
                    "midi": 59,
                    "time": 72.11920649999948,
                    "velocity": 0.2677165354330709,
                    "duration": 0.09933775000000367
                },
                {
                    "name": "F#3",
                    "midi": 54,
                    "time": 72.31788199999949,
                    "velocity": 0.3937007874015748,
                    "duration": 0.09933775000000367
                },
                {
                    "name": "C#4",
                    "midi": 61,
                    "time": 72.5165574999995,
                    "velocity": 0.31496062992125984,
                    "duration": 0.09933775000000367
                },
                {
                    "name": "A3",
                    "midi": 57,
                    "time": 72.5165574999995,
                    "velocity": 0.2677165354330709,
                    "duration": 0.09933775000000367
                },
                {
                    "name": "C#4",
                    "midi": 61,
                    "time": 72.7152329999995,
                    "velocity": 0.31496062992125984,
                    "duration": 0.09933775000000367
                },
                {
                    "name": "A3",
                    "midi": 57,
                    "time": 72.7152329999995,
                    "velocity": 0.2677165354330709,
                    "duration": 0.09933775000000367
                },
                {
                    "name": "C#4",
                    "midi": 61,
                    "time": 72.91390849999951,
                    "velocity": 0.31496062992125984,
                    "duration": 0.09933775000000367
                },
                {
                    "name": "A3",
                    "midi": 57,
                    "time": 72.91390849999951,
                    "velocity": 0.2677165354330709,
                    "duration": 0.09933775000000367
                },
                {
                    "name": "C#3",
                    "midi": 49,
                    "time": 73.11258399999952,
                    "velocity": 0.3937007874015748,
                    "duration": 0.09933775000000367
                },
                {
                    "name": "C#4",
                    "midi": 61,
                    "time": 73.31125949999952,
                    "velocity": 0.3858267716535433,
                    "duration": 0.09933775000000367
                },
                {
                    "name": "G#3",
                    "midi": 56,
                    "time": 73.31125949999952,
                    "velocity": 0.3228346456692913,
                    "duration": 0.09933775000000367
                },
                {
                    "name": "C#4",
                    "midi": 61,
                    "time": 73.50993499999953,
                    "velocity": 0.3779527559055118,
                    "duration": 0.09933775000000367
                },
                {
                    "name": "G3",
                    "midi": 55,
                    "time": 73.50993499999953,
                    "velocity": 0.31496062992125984,
                    "duration": 0.09933775000000367
                },
                {
                    "name": "C#4",
                    "midi": 61,
                    "time": 73.70861049999954,
                    "velocity": 0.3779527559055118,
                    "duration": 0.09933775000000367
                },
                {
                    "name": "F#3",
                    "midi": 54,
                    "time": 73.70861049999954,
                    "velocity": 0.31496062992125984,
                    "duration": 0.09933775000000367
                },
                {
                    "name": "B2",
                    "midi": 47,
                    "time": 73.90728599999954,
                    "velocity": 0.4645669291338583,
                    "duration": 0.09933775000000367
                },
                {
                    "name": "B3",
                    "midi": 59,
                    "time": 74.10596149999955,
                    "velocity": 0.41732283464566927,
                    "duration": 0.09933775000000367
                },
                {
                    "name": "F#3",
                    "midi": 54,
                    "time": 74.10596149999955,
                    "velocity": 0.3543307086614173,
                    "duration": 0.09933775000000367
                },
                {
                    "name": "B3",
                    "midi": 59,
                    "time": 74.30463699999956,
                    "velocity": 0.4409448818897638,
                    "duration": 0.09933775000000367
                },
                {
                    "name": "F#3",
                    "midi": 54,
                    "time": 74.30463699999956,
                    "velocity": 0.3700787401574803,
                    "duration": 0.09933775000000367
                },
                {
                    "name": "B3",
                    "midi": 59,
                    "time": 74.50331249999957,
                    "velocity": 0.4251968503937008,
                    "duration": 0.09933775000000367
                },
                {
                    "name": "F#3",
                    "midi": 54,
                    "time": 74.50331249999957,
                    "velocity": 0.3543307086614173,
                    "duration": 0.09933775000000367
                },
                {
                    "name": "B2",
                    "midi": 47,
                    "time": 74.70198799999957,
                    "velocity": 0.5118110236220472,
                    "duration": 0.09933775000000367
                },
                {
                    "name": "B3",
                    "midi": 59,
                    "time": 74.90066349999958,
                    "velocity": 0.4251968503937008,
                    "duration": 0.09933775000000367
                },
                {
                    "name": "G#3",
                    "midi": 56,
                    "time": 74.90066349999958,
                    "velocity": 0.3543307086614173,
                    "duration": 0.09933775000000367
                },
                {
                    "name": "B3",
                    "midi": 59,
                    "time": 75.09933899999959,
                    "velocity": 0.47244094488188976,
                    "duration": 0.09933775000000367
                },
                {
                    "name": "G#3",
                    "midi": 56,
                    "time": 75.09933899999959,
                    "velocity": 0.4015748031496063,
                    "duration": 0.09933775000000367
                },
                {
                    "name": "B3",
                    "midi": 59,
                    "time": 75.2980144999996,
                    "velocity": 0.4251968503937008,
                    "duration": 0.09933775000000367
                },
                {
                    "name": "G#3",
                    "midi": 56,
                    "time": 75.2980144999996,
                    "velocity": 0.3543307086614173,
                    "duration": 0.09933775000000367
                },
                {
                    "name": "C#3",
                    "midi": 49,
                    "time": 75.4966899999996,
                    "velocity": 0.4566929133858268,
                    "duration": 0.09933775000000367
                },
                {
                    "name": "A3",
                    "midi": 57,
                    "time": 75.69536549999961,
                    "velocity": 0.3700787401574803,
                    "duration": 0.09933775000000367
                },
                {
                    "name": "F#3",
                    "midi": 54,
                    "time": 75.69536549999961,
                    "velocity": 0.30708661417322836,
                    "duration": 0.09933775000000367
                },
                {
                    "name": "C#3",
                    "midi": 49,
                    "time": 75.89404099999962,
                    "velocity": 0.4330708661417323,
                    "duration": 0.09933775000000367
                },
                {
                    "name": "G#3",
                    "midi": 56,
                    "time": 76.09271649999963,
                    "velocity": 0.3228346456692913,
                    "duration": 0.09933775000000367
                },
                {
                    "name": "B3",
                    "midi": 59,
                    "time": 76.09271649999963,
                    "velocity": 0.3858267716535433,
                    "duration": 0.09933775000000367
                },
                {
                    "name": "A3",
                    "midi": 57,
                    "time": 76.29139199999963,
                    "velocity": 0.36220472440944884,
                    "duration": 0.372516562499996
                },
                {
                    "name": "F#3",
                    "midi": 54,
                    "time": 76.29139199999963,
                    "velocity": 0.30708661417322836,
                    "duration": 0.372516562499996
                },
                {
                    "name": "A3",
                    "midi": 57,
                    "time": 77.08609399999963,
                    "velocity": 0.44881889763779526,
                    "duration": 0.09933775000000367
                },
                {
                    "name": "E4",
                    "midi": 64,
                    "time": 77.28476949999964,
                    "velocity": 0.33858267716535434,
                    "duration": 0.09933775000000367
                },
                {
                    "name": "C#4",
                    "midi": 61,
                    "time": 77.28476949999964,
                    "velocity": 0.28346456692913385,
                    "duration": 0.09933775000000367
                },
                {
                    "name": "E4",
                    "midi": 64,
                    "time": 77.48344499999965,
                    "velocity": 0.33858267716535434,
                    "duration": 0.09933775000000367
                },
                {
                    "name": "C#4",
                    "midi": 61,
                    "time": 77.48344499999965,
                    "velocity": 0.28346456692913385,
                    "duration": 0.09933775000000367
                },
                {
                    "name": "E4",
                    "midi": 64,
                    "time": 77.68212049999966,
                    "velocity": 0.33858267716535434,
                    "duration": 0.09933775000000367
                },
                {
                    "name": "C#4",
                    "midi": 61,
                    "time": 77.68212049999966,
                    "velocity": 0.28346456692913385,
                    "duration": 0.09933775000000367
                },
                {
                    "name": "B3",
                    "midi": 59,
                    "time": 77.88079599999966,
                    "velocity": 0.44881889763779526,
                    "duration": 0.09933775000000367
                },
                {
                    "name": "E4",
                    "midi": 64,
                    "time": 78.07947149999967,
                    "velocity": 0.33070866141732286,
                    "duration": 0.09933775000000367
                },
                {
                    "name": "D4",
                    "midi": 62,
                    "time": 78.07947149999967,
                    "velocity": 0.2755905511811024,
                    "duration": 0.09933775000000367
                },
                {
                    "name": "G#3",
                    "midi": 56,
                    "time": 78.27814699999968,
                    "velocity": 0.44881889763779526,
                    "duration": 0.09933775000000367
                },
                {
                    "name": "E4",
                    "midi": 64,
                    "time": 78.47682249999968,
                    "velocity": 0.33070866141732286,
                    "duration": 0.09933775000000367
                },
                {
                    "name": "D4",
                    "midi": 62,
                    "time": 78.47682249999968,
                    "velocity": 0.2755905511811024,
                    "duration": 0.09933775000000367
                },
                {
                    "name": "A3",
                    "midi": 57,
                    "time": 78.67549799999969,
                    "velocity": 0.44881889763779526,
                    "duration": 0.09933775000000367
                },
                {
                    "name": "E4",
                    "midi": 64,
                    "time": 78.8741734999997,
                    "velocity": 0.3228346456692913,
                    "duration": 0.09933775000000367
                },
                {
                    "name": "C#4",
                    "midi": 61,
                    "time": 78.8741734999997,
                    "velocity": 0.2755905511811024,
                    "duration": 0.09933775000000367
                },
                {
                    "name": "E4",
                    "midi": 64,
                    "time": 79.0728489999997,
                    "velocity": 0.3228346456692913,
                    "duration": 0.09933775000000367
                },
                {
                    "name": "C#4",
                    "midi": 61,
                    "time": 79.0728489999997,
                    "velocity": 0.2755905511811024,
                    "duration": 0.09933775000000367
                },
                {
                    "name": "E4",
                    "midi": 64,
                    "time": 79.27152449999971,
                    "velocity": 0.3228346456692913,
                    "duration": 0.09933775000000367
                },
                {
                    "name": "C#4",
                    "midi": 61,
                    "time": 79.27152449999971,
                    "velocity": 0.2755905511811024,
                    "duration": 0.09933775000000367
                },
                {
                    "name": "E3",
                    "midi": 52,
                    "time": 79.47019999999972,
                    "velocity": 0.44881889763779526,
                    "duration": 0.19867549999999312
                },
                {
                    "name": "D4",
                    "midi": 62,
                    "time": 79.66887549999971,
                    "velocity": 0.30708661417322836,
                    "duration": 0.09933775000000367
                },
                {
                    "name": "G#3",
                    "midi": 56,
                    "time": 79.66887549999971,
                    "velocity": 0.25984251968503935,
                    "duration": 0.09933775000000367
                },
                {
                    "name": "G#3",
                    "midi": 56,
                    "time": 79.86755099999972,
                    "velocity": 0.25984251968503935,
                    "duration": 0.09933775000000367
                },
                {
                    "name": "D4",
                    "midi": 62,
                    "time": 79.86755099999972,
                    "velocity": 0.30708661417322836,
                    "duration": 0.09933775000000367
                },
                {
                    "name": "G#3",
                    "midi": 56,
                    "time": 80.06622649999973,
                    "velocity": 0.25984251968503935,
                    "duration": 0.09933775000000367
                },
                {
                    "name": "D4",
                    "midi": 62,
                    "time": 80.06622649999973,
                    "velocity": 0.30708661417322836,
                    "duration": 0.09933775000000367
                },
                {
                    "name": "A3",
                    "midi": 57,
                    "time": 80.26490199999974,
                    "velocity": 0.44881889763779526,
                    "duration": 0.09933775000000367
                },
                {
                    "name": "E4",
                    "midi": 64,
                    "time": 80.46357749999974,
                    "velocity": 0.33858267716535434,
                    "duration": 0.09933775000000367
                },
                {
                    "name": "C#4",
                    "midi": 61,
                    "time": 80.46357749999974,
                    "velocity": 0.28346456692913385,
                    "duration": 0.09933775000000367
                },
                {
                    "name": "E4",
                    "midi": 64,
                    "time": 80.66225299999975,
                    "velocity": 0.33858267716535434,
                    "duration": 0.09933775000000367
                },
                {
                    "name": "C#4",
                    "midi": 61,
                    "time": 80.66225299999975,
                    "velocity": 0.28346456692913385,
                    "duration": 0.09933775000000367
                },
                {
                    "name": "E4",
                    "midi": 64,
                    "time": 80.86092849999976,
                    "velocity": 0.33858267716535434,
                    "duration": 0.09933775000000367
                },
                {
                    "name": "C#4",
                    "midi": 61,
                    "time": 80.86092849999976,
                    "velocity": 0.28346456692913385,
                    "duration": 0.09933775000000367
                },
                {
                    "name": "B3",
                    "midi": 59,
                    "time": 81.05960399999977,
                    "velocity": 0.44881889763779526,
                    "duration": 0.09933775000000367
                },
                {
                    "name": "E4",
                    "midi": 64,
                    "time": 81.25827949999977,
                    "velocity": 0.33070866141732286,
                    "duration": 0.09933775000000367
                },
                {
                    "name": "D4",
                    "midi": 62,
                    "time": 81.25827949999977,
                    "velocity": 0.2755905511811024,
                    "duration": 0.09933775000000367
                },
                {
                    "name": "G#3",
                    "midi": 56,
                    "time": 81.45695499999978,
                    "velocity": 0.44881889763779526,
                    "duration": 0.09933775000000367
                },
                {
                    "name": "E4",
                    "midi": 64,
                    "time": 81.65563049999979,
                    "velocity": 0.33070866141732286,
                    "duration": 0.09933775000000367
                },
                {
                    "name": "D4",
                    "midi": 62,
                    "time": 81.65563049999979,
                    "velocity": 0.2755905511811024,
                    "duration": 0.09933775000000367
                },
                {
                    "name": "A3",
                    "midi": 57,
                    "time": 81.8543059999998,
                    "velocity": 0.44881889763779526,
                    "duration": 0.09933775000000367
                },
                {
                    "name": "F#3",
                    "midi": 54,
                    "time": 82.0529814999998,
                    "velocity": 0.36220472440944884,
                    "duration": 0.09933775000000367
                },
                {
                    "name": "D3",
                    "midi": 50,
                    "time": 82.25165699999981,
                    "velocity": 0.36220472440944884,
                    "duration": 0.09933775000000367
                },
                {
                    "name": "E3",
                    "midi": 52,
                    "time": 82.45033249999982,
                    "velocity": 0.36220472440944884,
                    "duration": 0.09933775000000367
                },
                {
                    "name": "A2",
                    "midi": 45,
                    "time": 82.64900799999982,
                    "velocity": 0.44881889763779526,
                    "duration": 0.19867549999999312
                },
                {
                    "name": "A3",
                    "midi": 57,
                    "time": 82.84768349999982,
                    "velocity": 0.3464566929133858,
                    "duration": 0.09933775000000367
                },
                {
                    "name": "E3",
                    "midi": 52,
                    "time": 83.44370999999983,
                    "velocity": 0.3937007874015748,
                    "duration": 0.09933775000000367
                },
                {
                    "name": "C#4",
                    "midi": 61,
                    "time": 83.64238549999983,
                    "velocity": 0.33070866141732286,
                    "duration": 0.09933775000000367
                },
                {
                    "name": "A3",
                    "midi": 57,
                    "time": 83.64238549999983,
                    "velocity": 0.2755905511811024,
                    "duration": 0.09933775000000367
                },
                {
                    "name": "C#4",
                    "midi": 61,
                    "time": 83.84106099999984,
                    "velocity": 0.33070866141732286,
                    "duration": 0.09933775000000367
                },
                {
                    "name": "A3",
                    "midi": 57,
                    "time": 83.84106099999984,
                    "velocity": 0.2755905511811024,
                    "duration": 0.09933775000000367
                },
                {
                    "name": "C#4",
                    "midi": 61,
                    "time": 84.03973649999985,
                    "velocity": 0.33070866141732286,
                    "duration": 0.09933775000000367
                },
                {
                    "name": "A3",
                    "midi": 57,
                    "time": 84.03973649999985,
                    "velocity": 0.2755905511811024,
                    "duration": 0.09933775000000367
                },
                {
                    "name": "G#3",
                    "midi": 56,
                    "time": 84.23841199999985,
                    "velocity": 0.3937007874015748,
                    "duration": 0.09933775000000367
                },
                {
                    "name": "C#4",
                    "midi": 61,
                    "time": 84.43708749999986,
                    "velocity": 0.3228346456692913,
                    "duration": 0.09933775000000367
                },
                {
                    "name": "B3",
                    "midi": 59,
                    "time": 84.43708749999986,
                    "velocity": 0.2677165354330709,
                    "duration": 0.09933775000000367
                },
                {
                    "name": "C#4",
                    "midi": 61,
                    "time": 84.63576299999987,
                    "velocity": 0.3228346456692913,
                    "duration": 0.09933775000000367
                },
                {
                    "name": "B3",
                    "midi": 59,
                    "time": 84.63576299999987,
                    "velocity": 0.2677165354330709,
                    "duration": 0.09933775000000367
                },
                {
                    "name": "C#4",
                    "midi": 61,
                    "time": 84.83443849999988,
                    "velocity": 0.3228346456692913,
                    "duration": 0.09933775000000367
                },
                {
                    "name": "B3",
                    "midi": 59,
                    "time": 84.83443849999988,
                    "velocity": 0.2677165354330709,
                    "duration": 0.09933775000000367
                },
                {
                    "name": "F#3",
                    "midi": 54,
                    "time": 85.03311399999988,
                    "velocity": 0.3937007874015748,
                    "duration": 0.09933775000000367
                },
                {
                    "name": "C#4",
                    "midi": 61,
                    "time": 85.23178949999989,
                    "velocity": 0.31496062992125984,
                    "duration": 0.09933775000000367
                },
                {
                    "name": "A3",
                    "midi": 57,
                    "time": 85.23178949999989,
                    "velocity": 0.2677165354330709,
                    "duration": 0.09933775000000367
                },
                {
                    "name": "C#4",
                    "midi": 61,
                    "time": 85.4304649999999,
                    "velocity": 0.31496062992125984,
                    "duration": 0.09933775000000367
                },
                {
                    "name": "A3",
                    "midi": 57,
                    "time": 85.4304649999999,
                    "velocity": 0.2677165354330709,
                    "duration": 0.09933775000000367
                },
                {
                    "name": "C#4",
                    "midi": 61,
                    "time": 85.6291404999999,
                    "velocity": 0.31496062992125984,
                    "duration": 0.09933775000000367
                },
                {
                    "name": "A3",
                    "midi": 57,
                    "time": 85.6291404999999,
                    "velocity": 0.2677165354330709,
                    "duration": 0.09933775000000367
                },
                {
                    "name": "C#3",
                    "midi": 49,
                    "time": 85.82781599999991,
                    "velocity": 0.3937007874015748,
                    "duration": 0.09933775000000367
                },
                {
                    "name": "C#4",
                    "midi": 61,
                    "time": 86.02649149999992,
                    "velocity": 0.3858267716535433,
                    "duration": 0.09933775000000367
                },
                {
                    "name": "G#3",
                    "midi": 56,
                    "time": 86.02649149999992,
                    "velocity": 0.3228346456692913,
                    "duration": 0.09933775000000367
                },
                {
                    "name": "C#4",
                    "midi": 61,
                    "time": 86.22516699999993,
                    "velocity": 0.3779527559055118,
                    "duration": 0.09933775000000367
                },
                {
                    "name": "G3",
                    "midi": 55,
                    "time": 86.22516699999993,
                    "velocity": 0.31496062992125984,
                    "duration": 0.09933775000000367
                },
                {
                    "name": "C#4",
                    "midi": 61,
                    "time": 86.42384249999994,
                    "velocity": 0.3779527559055118,
                    "duration": 0.09933775000000367
                },
                {
                    "name": "F#3",
                    "midi": 54,
                    "time": 86.42384249999994,
                    "velocity": 0.31496062992125984,
                    "duration": 0.09933775000000367
                },
                {
                    "name": "B2",
                    "midi": 47,
                    "time": 86.62251799999994,
                    "velocity": 0.4645669291338583,
                    "duration": 0.09933775000000367
                },
                {
                    "name": "B3",
                    "midi": 59,
                    "time": 86.82119349999995,
                    "velocity": 0.41732283464566927,
                    "duration": 0.09933775000000367
                },
                {
                    "name": "F#3",
                    "midi": 54,
                    "time": 86.82119349999995,
                    "velocity": 0.3543307086614173,
                    "duration": 0.09933775000000367
                },
                {
                    "name": "B3",
                    "midi": 59,
                    "time": 87.01986899999996,
                    "velocity": 0.4409448818897638,
                    "duration": 0.09933775000000367
                },
                {
                    "name": "F#3",
                    "midi": 54,
                    "time": 87.01986899999996,
                    "velocity": 0.3700787401574803,
                    "duration": 0.09933775000000367
                },
                {
                    "name": "B3",
                    "midi": 59,
                    "time": 87.21854449999996,
                    "velocity": 0.4251968503937008,
                    "duration": 0.09933775000000367
                },
                {
                    "name": "F#3",
                    "midi": 54,
                    "time": 87.21854449999996,
                    "velocity": 0.3543307086614173,
                    "duration": 0.09933775000000367
                },
                {
                    "name": "B2",
                    "midi": 47,
                    "time": 87.41721999999997,
                    "velocity": 0.5118110236220472,
                    "duration": 0.09933775000000367
                },
                {
                    "name": "B3",
                    "midi": 59,
                    "time": 87.61589549999998,
                    "velocity": 0.4251968503937008,
                    "duration": 0.09933775000000367
                },
                {
                    "name": "G#3",
                    "midi": 56,
                    "time": 87.61589549999998,
                    "velocity": 0.3543307086614173,
                    "duration": 0.09933775000000367
                },
                {
                    "name": "B3",
                    "midi": 59,
                    "time": 87.81457099999999,
                    "velocity": 0.47244094488188976,
                    "duration": 0.09933775000000367
                },
                {
                    "name": "G#3",
                    "midi": 56,
                    "time": 87.81457099999999,
                    "velocity": 0.4015748031496063,
                    "duration": 0.09933775000000367
                },
                {
                    "name": "B3",
                    "midi": 59,
                    "time": 88.0132465,
                    "velocity": 0.4251968503937008,
                    "duration": 0.09933775000000367
                },
                {
                    "name": "G#3",
                    "midi": 56,
                    "time": 88.0132465,
                    "velocity": 0.3543307086614173,
                    "duration": 0.09933775000000367
                },
                {
                    "name": "C#3",
                    "midi": 49,
                    "time": 88.211922,
                    "velocity": 0.4566929133858268,
                    "duration": 0.09933775000000367
                },
                {
                    "name": "A3",
                    "midi": 57,
                    "time": 88.41059750000001,
                    "velocity": 0.3700787401574803,
                    "duration": 0.09933775000000367
                },
                {
                    "name": "F#3",
                    "midi": 54,
                    "time": 88.41059750000001,
                    "velocity": 0.30708661417322836,
                    "duration": 0.09933775000000367
                },
                {
                    "name": "C#3",
                    "midi": 49,
                    "time": 88.60927300000002,
                    "velocity": 0.4330708661417323,
                    "duration": 0.09933775000000367
                },
                {
                    "name": "G#3",
                    "midi": 56,
                    "time": 88.80794850000002,
                    "velocity": 0.3228346456692913,
                    "duration": 0.09933775000000367
                },
                {
                    "name": "B3",
                    "midi": 59,
                    "time": 88.80794850000002,
                    "velocity": 0.3858267716535433,
                    "duration": 0.09933775000000367
                },
                {
                    "name": "A3",
                    "midi": 57,
                    "time": 89.00662400000003,
                    "velocity": 0.36220472440944884,
                    "duration": 0.372516562499996
                },
                {
                    "name": "F#3",
                    "midi": 54,
                    "time": 89.00662400000003,
                    "velocity": 0.30708661417322836,
                    "duration": 0.372516562499996
                },
                {
                    "name": "A2",
                    "midi": 45,
                    "time": 89.70198825000003,
                    "velocity": 0.5039370078740157,
                    "duration": 0.033112583333334555
                },
                {
                    "name": "C#3",
                    "midi": 49,
                    "time": 89.73510083333336,
                    "velocity": 0.5039370078740157,
                    "duration": 0.033112583333334555
                },
                {
                    "name": "E3",
                    "midi": 52,
                    "time": 89.7682134166667,
                    "velocity": 0.5039370078740157,
                    "duration": 0.033112583333334555
                },
                {
                    "name": "A3",
                    "midi": 57,
                    "time": 89.80132600000003,
                    "velocity": 0.5748031496062992,
                    "duration": 0.09933775000000367
                },
                {
                    "name": "A3",
                    "midi": 57,
                    "time": 90.00000150000004,
                    "velocity": 0.5433070866141733,
                    "duration": 0.09933775000000367
                },
                {
                    "name": "A3",
                    "midi": 57,
                    "time": 90.19867700000005,
                    "velocity": 0.5433070866141733,
                    "duration": 0.09933775000000367
                },
                {
                    "name": "A3",
                    "midi": 57,
                    "time": 90.39735250000005,
                    "velocity": 0.5433070866141733,
                    "duration": 0.09933775000000367
                },
                {
                    "name": "A2",
                    "midi": 45,
                    "time": 90.49669025000006,
                    "velocity": 0.47244094488188976,
                    "duration": 0.033112583333334555
                },
                {
                    "name": "C#3",
                    "midi": 49,
                    "time": 90.52980283333339,
                    "velocity": 0.47244094488188976,
                    "duration": 0.033112583333334555
                },
                {
                    "name": "E3",
                    "midi": 52,
                    "time": 90.56291541666673,
                    "velocity": 0.47244094488188976,
                    "duration": 0.033112583333334555
                },
                {
                    "name": "A3",
                    "midi": 57,
                    "time": 90.59602800000006,
                    "velocity": 0.5669291338582677,
                    "duration": 0.09933775000000367
                },
                {
                    "name": "A3",
                    "midi": 57,
                    "time": 90.79470350000007,
                    "velocity": 0.5039370078740157,
                    "duration": 0.09933775000000367
                },
                {
                    "name": "A3",
                    "midi": 57,
                    "time": 90.99337900000008,
                    "velocity": 0.5118110236220472,
                    "duration": 0.09933775000000367
                },
                {
                    "name": "A3",
                    "midi": 57,
                    "time": 91.19205450000008,
                    "velocity": 0.5275590551181102,
                    "duration": 0.09933775000000367
                },
                {
                    "name": "D2",
                    "midi": 38,
                    "time": 91.29139225000009,
                    "velocity": 0.49606299212598426,
                    "duration": 0.033112583333334555
                },
                {
                    "name": "F#2",
                    "midi": 42,
                    "time": 91.32450483333342,
                    "velocity": 0.49606299212598426,
                    "duration": 0.033112583333334555
                },
                {
                    "name": "A2",
                    "midi": 45,
                    "time": 91.35761741666676,
                    "velocity": 0.49606299212598426,
                    "duration": 0.033112583333334555
                },
                {
                    "name": "D3",
                    "midi": 50,
                    "time": 91.39073000000009,
                    "velocity": 0.5748031496062992,
                    "duration": 0.09933775000000367
                },
                {
                    "name": "D3",
                    "midi": 50,
                    "time": 91.5894055000001,
                    "velocity": 0.5433070866141733,
                    "duration": 0.09933775000000367
                },
                {
                    "name": "D#2",
                    "midi": 39,
                    "time": 91.6887432500001,
                    "velocity": 0.49606299212598426,
                    "duration": 0.033112583333334555
                },
                {
                    "name": "F#2",
                    "midi": 42,
                    "time": 91.72185583333344,
                    "velocity": 0.49606299212598426,
                    "duration": 0.033112583333334555
                },
                {
                    "name": "A2",
                    "midi": 45,
                    "time": 91.75496841666677,
                    "velocity": 0.49606299212598426,
                    "duration": 0.033112583333334555
                },
                {
                    "name": "D#3",
                    "midi": 51,
                    "time": 91.7880810000001,
                    "velocity": 0.5748031496062992,
                    "duration": 0.09933775000000367
                },
                {
                    "name": "D#3",
                    "midi": 51,
                    "time": 91.98675650000011,
                    "velocity": 0.5590551181102362,
                    "duration": 0.09933775000000367
                },
                {
                    "name": "E2",
                    "midi": 40,
                    "time": 92.08609425000012,
                    "velocity": 0.49606299212598426,
                    "duration": 0.033112583333334555
                },
                {
                    "name": "G#2",
                    "midi": 44,
                    "time": 92.11920683333345,
                    "velocity": 0.49606299212598426,
                    "duration": 0.033112583333334555
                },
                {
                    "name": "B2",
                    "midi": 47,
                    "time": 92.15231941666678,
                    "velocity": 0.49606299212598426,
                    "duration": 0.033112583333334555
                },
                {
                    "name": "E3",
                    "midi": 52,
                    "time": 92.18543200000012,
                    "velocity": 0.5748031496062992,
                    "duration": 0.19867549999999312
                },
                {
                    "name": "E3",
                    "midi": 52,
                    "time": 92.38410750000011,
                    "velocity": 0.5748031496062992,
                    "duration": 0.09933775000000367
                },
                {
                    "name": "A2",
                    "midi": 45,
                    "time": 92.88079625000012,
                    "velocity": 0.5039370078740157,
                    "duration": 0.033112583333334555
                },
                {
                    "name": "C#3",
                    "midi": 49,
                    "time": 92.91390883333345,
                    "velocity": 0.5039370078740157,
                    "duration": 0.033112583333334555
                },
                {
                    "name": "E3",
                    "midi": 52,
                    "time": 92.94702141666679,
                    "velocity": 0.5039370078740157,
                    "duration": 0.033112583333334555
                },
                {
                    "name": "A3",
                    "midi": 57,
                    "time": 92.98013400000012,
                    "velocity": 0.5748031496062992,
                    "duration": 0.09933775000000367
                },
                {
                    "name": "A3",
                    "midi": 57,
                    "time": 93.17880950000013,
                    "velocity": 0.5433070866141733,
                    "duration": 0.09933775000000367
                },
                {
                    "name": "A3",
                    "midi": 57,
                    "time": 93.37748500000014,
                    "velocity": 0.5433070866141733,
                    "duration": 0.09933775000000367
                },
                {
                    "name": "A3",
                    "midi": 57,
                    "time": 93.57616050000014,
                    "velocity": 0.5433070866141733,
                    "duration": 0.09933775000000367
                },
                {
                    "name": "A2",
                    "midi": 45,
                    "time": 93.67549825000015,
                    "velocity": 0.47244094488188976,
                    "duration": 0.033112583333334555
                },
                {
                    "name": "C#3",
                    "midi": 49,
                    "time": 93.70861083333348,
                    "velocity": 0.47244094488188976,
                    "duration": 0.033112583333334555
                },
                {
                    "name": "E3",
                    "midi": 52,
                    "time": 93.74172341666682,
                    "velocity": 0.47244094488188976,
                    "duration": 0.033112583333334555
                },
                {
                    "name": "A3",
                    "midi": 57,
                    "time": 93.77483600000015,
                    "velocity": 0.5669291338582677,
                    "duration": 0.09933775000000367
                },
                {
                    "name": "A3",
                    "midi": 57,
                    "time": 93.97351150000016,
                    "velocity": 0.5039370078740157,
                    "duration": 0.09933775000000367
                },
                {
                    "name": "A3",
                    "midi": 57,
                    "time": 94.17218700000016,
                    "velocity": 0.5118110236220472,
                    "duration": 0.09933775000000367
                },
                {
                    "name": "A3",
                    "midi": 57,
                    "time": 94.37086250000017,
                    "velocity": 0.5275590551181102,
                    "duration": 0.09933775000000367
                },
                {
                    "name": "D2",
                    "midi": 38,
                    "time": 94.47020025000018,
                    "velocity": 0.49606299212598426,
                    "duration": 0.033112583333334555
                },
                {
                    "name": "F#2",
                    "midi": 42,
                    "time": 94.50331283333351,
                    "velocity": 0.49606299212598426,
                    "duration": 0.033112583333334555
                },
                {
                    "name": "A2",
                    "midi": 45,
                    "time": 94.53642541666684,
                    "velocity": 0.49606299212598426,
                    "duration": 0.033112583333334555
                },
                {
                    "name": "D3",
                    "midi": 50,
                    "time": 94.56953800000018,
                    "velocity": 0.5748031496062992,
                    "duration": 0.09933775000000367
                },
                {
                    "name": "D3",
                    "midi": 50,
                    "time": 94.76821350000019,
                    "velocity": 0.5433070866141733,
                    "duration": 0.09933775000000367
                },
                {
                    "name": "E2",
                    "midi": 40,
                    "time": 94.86755125000019,
                    "velocity": 0.49606299212598426,
                    "duration": 0.033112583333334555
                },
                {
                    "name": "G#2",
                    "midi": 44,
                    "time": 94.90066383333352,
                    "velocity": 0.49606299212598426,
                    "duration": 0.033112583333334555
                },
                {
                    "name": "B2",
                    "midi": 47,
                    "time": 94.93377641666686,
                    "velocity": 0.49606299212598426,
                    "duration": 0.033112583333334555
                },
                {
                    "name": "E3",
                    "midi": 52,
                    "time": 94.9668890000002,
                    "velocity": 0.5748031496062992,
                    "duration": 0.09933775000000367
                },
                {
                    "name": "E3",
                    "midi": 52,
                    "time": 95.1655645000002,
                    "velocity": 0.5590551181102362,
                    "duration": 0.09933775000000367
                },
                {
                    "name": "A2",
                    "midi": 45,
                    "time": 95.36424000000021,
                    "velocity": 0.5748031496062992,
                    "duration": 0.372516562499996
                },
                {
                    "name": "A2",
                    "midi": 45,
                    "time": 96.0596042500002,
                    "velocity": 0.5039370078740157,
                    "duration": 0.033112583333334555
                },
                {
                    "name": "C#3",
                    "midi": 49,
                    "time": 96.09271683333354,
                    "velocity": 0.5039370078740157,
                    "duration": 0.033112583333334555
                },
                {
                    "name": "E3",
                    "midi": 52,
                    "time": 96.12582941666687,
                    "velocity": 0.5039370078740157,
                    "duration": 0.033112583333334555
                },
                {
                    "name": "A3",
                    "midi": 57,
                    "time": 96.15894200000021,
                    "velocity": 0.5748031496062992,
                    "duration": 0.09933775000000367
                },
                {
                    "name": "A3",
                    "midi": 57,
                    "time": 96.35761750000022,
                    "velocity": 0.5433070866141733,
                    "duration": 0.09933775000000367
                },
                {
                    "name": "A3",
                    "midi": 57,
                    "time": 96.55629300000022,
                    "velocity": 0.5433070866141733,
                    "duration": 0.09933775000000367
                },
                {
                    "name": "A3",
                    "midi": 57,
                    "time": 96.75496850000023,
                    "velocity": 0.5433070866141733,
                    "duration": 0.09933775000000367
                },
                {
                    "name": "A2",
                    "midi": 45,
                    "time": 96.85430625000023,
                    "velocity": 0.47244094488188976,
                    "duration": 0.033112583333334555
                },
                {
                    "name": "C#3",
                    "midi": 49,
                    "time": 96.88741883333357,
                    "velocity": 0.47244094488188976,
                    "duration": 0.033112583333334555
                },
                {
                    "name": "E3",
                    "midi": 52,
                    "time": 96.9205314166669,
                    "velocity": 0.47244094488188976,
                    "duration": 0.033112583333334555
                },
                {
                    "name": "A3",
                    "midi": 57,
                    "time": 96.95364400000024,
                    "velocity": 0.5669291338582677,
                    "duration": 0.09933775000000367
                },
                {
                    "name": "A3",
                    "midi": 57,
                    "time": 97.15231950000025,
                    "velocity": 0.5039370078740157,
                    "duration": 0.09933775000000367
                },
                {
                    "name": "A3",
                    "midi": 57,
                    "time": 97.35099500000025,
                    "velocity": 0.5118110236220472,
                    "duration": 0.09933775000000367
                },
                {
                    "name": "A3",
                    "midi": 57,
                    "time": 97.54967050000026,
                    "velocity": 0.5275590551181102,
                    "duration": 0.09933775000000367
                },
                {
                    "name": "D2",
                    "midi": 38,
                    "time": 97.64900825000026,
                    "velocity": 0.49606299212598426,
                    "duration": 0.033112583333334555
                },
                {
                    "name": "F#2",
                    "midi": 42,
                    "time": 97.6821208333336,
                    "velocity": 0.49606299212598426,
                    "duration": 0.033112583333334555
                },
                {
                    "name": "A2",
                    "midi": 45,
                    "time": 97.71523341666693,
                    "velocity": 0.49606299212598426,
                    "duration": 0.033112583333334555
                },
                {
                    "name": "D3",
                    "midi": 50,
                    "time": 97.74834600000027,
                    "velocity": 0.5748031496062992,
                    "duration": 0.09933775000000367
                },
                {
                    "name": "D3",
                    "midi": 50,
                    "time": 97.94702150000028,
                    "velocity": 0.5433070866141733,
                    "duration": 0.09933775000000367
                },
                {
                    "name": "D#2",
                    "midi": 39,
                    "time": 98.04635925000028,
                    "velocity": 0.49606299212598426,
                    "duration": 0.033112583333334555
                },
                {
                    "name": "F#2",
                    "midi": 42,
                    "time": 98.07947183333361,
                    "velocity": 0.49606299212598426,
                    "duration": 0.033112583333334555
                },
                {
                    "name": "A2",
                    "midi": 45,
                    "time": 98.11258441666695,
                    "velocity": 0.49606299212598426,
                    "duration": 0.033112583333334555
                },
                {
                    "name": "D#3",
                    "midi": 51,
                    "time": 98.14569700000028,
                    "velocity": 0.5748031496062992,
                    "duration": 0.09933775000000367
                },
                {
                    "name": "D#3",
                    "midi": 51,
                    "time": 98.34437250000029,
                    "velocity": 0.5590551181102362,
                    "duration": 0.09933775000000367
                },
                {
                    "name": "E2",
                    "midi": 40,
                    "time": 98.4437102500003,
                    "velocity": 0.49606299212598426,
                    "duration": 0.033112583333334555
                },
                {
                    "name": "G#2",
                    "midi": 44,
                    "time": 98.47682283333363,
                    "velocity": 0.49606299212598426,
                    "duration": 0.033112583333334555
                },
                {
                    "name": "B2",
                    "midi": 47,
                    "time": 98.50993541666696,
                    "velocity": 0.49606299212598426,
                    "duration": 0.033112583333334555
                },
                {
                    "name": "E3",
                    "midi": 52,
                    "time": 98.5430480000003,
                    "velocity": 0.5748031496062992,
                    "duration": 0.19867549999999312
                },
                {
                    "name": "E3",
                    "midi": 52,
                    "time": 98.74172350000029,
                    "velocity": 0.5748031496062992,
                    "duration": 0.09933775000000367
                },
                {
                    "name": "A2",
                    "midi": 45,
                    "time": 99.2384122500003,
                    "velocity": 0.5039370078740157,
                    "duration": 0.033112583333334555
                },
                {
                    "name": "C#3",
                    "midi": 49,
                    "time": 99.27152483333363,
                    "velocity": 0.5039370078740157,
                    "duration": 0.033112583333334555
                },
                {
                    "name": "E3",
                    "midi": 52,
                    "time": 99.30463741666696,
                    "velocity": 0.5039370078740157,
                    "duration": 0.033112583333334555
                },
                {
                    "name": "A3",
                    "midi": 57,
                    "time": 99.3377500000003,
                    "velocity": 0.5748031496062992,
                    "duration": 0.09933775000000367
                },
                {
                    "name": "A3",
                    "midi": 57,
                    "time": 99.5364255000003,
                    "velocity": 0.5433070866141733,
                    "duration": 0.09933775000000367
                },
                {
                    "name": "A3",
                    "midi": 57,
                    "time": 99.73510100000031,
                    "velocity": 0.5433070866141733,
                    "duration": 0.09933775000000367
                },
                {
                    "name": "A3",
                    "midi": 57,
                    "time": 99.93377650000032,
                    "velocity": 0.5433070866141733,
                    "duration": 0.09933775000000367
                },
                {
                    "name": "A2",
                    "midi": 45,
                    "time": 100.03311425000032,
                    "velocity": 0.47244094488188976,
                    "duration": 0.033112583333334555
                },
                {
                    "name": "C#3",
                    "midi": 49,
                    "time": 100.06622683333366,
                    "velocity": 0.47244094488188976,
                    "duration": 0.033112583333334555
                },
                {
                    "name": "E3",
                    "midi": 52,
                    "time": 100.099339416667,
                    "velocity": 0.47244094488188976,
                    "duration": 0.033112583333334555
                },
                {
                    "name": "A3",
                    "midi": 57,
                    "time": 100.13245200000033,
                    "velocity": 0.5669291338582677,
                    "duration": 0.09933775000000367
                },
                {
                    "name": "A3",
                    "midi": 57,
                    "time": 100.33112750000033,
                    "velocity": 0.5039370078740157,
                    "duration": 0.09933775000000367
                },
                {
                    "name": "A3",
                    "midi": 57,
                    "time": 100.52980300000034,
                    "velocity": 0.5118110236220472,
                    "duration": 0.09933775000000367
                },
                {
                    "name": "A3",
                    "midi": 57,
                    "time": 100.72847850000035,
                    "velocity": 0.5275590551181102,
                    "duration": 0.09933775000000367
                },
                {
                    "name": "D2",
                    "midi": 38,
                    "time": 100.82781625000035,
                    "velocity": 0.49606299212598426,
                    "duration": 0.033112583333334555
                },
                {
                    "name": "F#2",
                    "midi": 42,
                    "time": 100.86092883333369,
                    "velocity": 0.49606299212598426,
                    "duration": 0.033112583333334555
                },
                {
                    "name": "A2",
                    "midi": 45,
                    "time": 100.89404141666702,
                    "velocity": 0.49606299212598426,
                    "duration": 0.033112583333334555
                },
                {
                    "name": "D3",
                    "midi": 50,
                    "time": 100.92715400000036,
                    "velocity": 0.5748031496062992,
                    "duration": 0.09933775000000367
                },
                {
                    "name": "D3",
                    "midi": 50,
                    "time": 101.12582950000036,
                    "velocity": 0.5433070866141733,
                    "duration": 0.09933775000000367
                },
                {
                    "name": "E2",
                    "midi": 40,
                    "time": 101.22516725000037,
                    "velocity": 0.49606299212598426,
                    "duration": 0.033112583333334555
                },
                {
                    "name": "G#2",
                    "midi": 44,
                    "time": 101.2582798333337,
                    "velocity": 0.49606299212598426,
                    "duration": 0.033112583333334555
                },
                {
                    "name": "B2",
                    "midi": 47,
                    "time": 101.29139241666704,
                    "velocity": 0.49606299212598426,
                    "duration": 0.033112583333334555
                },
                {
                    "name": "E3",
                    "midi": 52,
                    "time": 101.32450500000037,
                    "velocity": 0.5748031496062992,
                    "duration": 0.09933775000000367
                },
                {
                    "name": "E3",
                    "midi": 52,
                    "time": 101.52318050000038,
                    "velocity": 0.5590551181102362,
                    "duration": 0.09933775000000367
                },
                {
                    "name": "A2",
                    "midi": 45,
                    "time": 101.72185600000039,
                    "velocity": 0.5748031496062992,
                    "duration": 0.372516562499996
                },
                {
                    "name": "A3",
                    "midi": 57,
                    "time": 102.51655800000039,
                    "velocity": 0.44881889763779526,
                    "duration": 0.09933775000000367
                },
                {
                    "name": "E4",
                    "midi": 64,
                    "time": 102.7152335000004,
                    "velocity": 0.4094488188976378,
                    "duration": 0.09933775000000367
                },
                {
                    "name": "C4",
                    "midi": 60,
                    "time": 102.7152335000004,
                    "velocity": 0.33858267716535434,
                    "duration": 0.09933775000000367
                },
                {
                    "name": "C4",
                    "midi": 60,
                    "time": 102.9139090000004,
                    "velocity": 0.33858267716535434,
                    "duration": 0.09933775000000367
                },
                {
                    "name": "E4",
                    "midi": 64,
                    "time": 102.9139090000004,
                    "velocity": 0.4094488188976378,
                    "duration": 0.09933775000000367
                },
                {
                    "name": "C4",
                    "midi": 60,
                    "time": 103.11258450000041,
                    "velocity": 0.33070866141732286,
                    "duration": 0.09933775000000367
                },
                {
                    "name": "E4",
                    "midi": 64,
                    "time": 103.11258450000041,
                    "velocity": 0.4015748031496063,
                    "duration": 0.09933775000000367
                },
                {
                    "name": "A3",
                    "midi": 57,
                    "time": 103.31126000000042,
                    "velocity": 0.44881889763779526,
                    "duration": 0.09933775000000367
                },
                {
                    "name": "E4",
                    "midi": 64,
                    "time": 103.50993550000042,
                    "velocity": 0.4094488188976378,
                    "duration": 0.09933775000000367
                },
                {
                    "name": "C4",
                    "midi": 60,
                    "time": 103.50993550000042,
                    "velocity": 0.33858267716535434,
                    "duration": 0.09933775000000367
                },
                {
                    "name": "E4",
                    "midi": 64,
                    "time": 103.70861100000043,
                    "velocity": 0.4094488188976378,
                    "duration": 0.09933775000000367
                },
                {
                    "name": "C4",
                    "midi": 60,
                    "time": 103.70861100000043,
                    "velocity": 0.33858267716535434,
                    "duration": 0.09933775000000367
                },
                {
                    "name": "E4",
                    "midi": 64,
                    "time": 103.90728650000044,
                    "velocity": 0.4094488188976378,
                    "duration": 0.09933775000000367
                },
                {
                    "name": "C4",
                    "midi": 60,
                    "time": 103.90728650000044,
                    "velocity": 0.33858267716535434,
                    "duration": 0.09933775000000367
                },
                {
                    "name": "A3",
                    "midi": 57,
                    "time": 104.10596200000045,
                    "velocity": 0.44881889763779526,
                    "duration": 0.09933775000000367
                },
                {
                    "name": "E4",
                    "midi": 64,
                    "time": 104.30463750000045,
                    "velocity": 0.3937007874015748,
                    "duration": 0.09933775000000367
                },
                {
                    "name": "C4",
                    "midi": 60,
                    "time": 104.30463750000045,
                    "velocity": 0.33070866141732286,
                    "duration": 0.09933775000000367
                },
                {
                    "name": "A3",
                    "midi": 57,
                    "time": 104.50331300000046,
                    "velocity": 0.44881889763779526,
                    "duration": 0.09933775000000367
                },
                {
                    "name": "E4",
                    "midi": 64,
                    "time": 104.70198850000047,
                    "velocity": 0.4094488188976378,
                    "duration": 0.09933775000000367
                },
                {
                    "name": "C4",
                    "midi": 60,
                    "time": 104.70198850000047,
                    "velocity": 0.33858267716535434,
                    "duration": 0.09933775000000367
                },
                {
                    "name": "A3",
                    "midi": 57,
                    "time": 104.90066400000048,
                    "velocity": 0.44881889763779526,
                    "duration": 0.09933775000000367
                },
                {
                    "name": "E4",
                    "midi": 64,
                    "time": 105.09933950000048,
                    "velocity": 0.3937007874015748,
                    "duration": 0.09933775000000367
                },
                {
                    "name": "C4",
                    "midi": 60,
                    "time": 105.09933950000048,
                    "velocity": 0.33070866141732286,
                    "duration": 0.09933775000000367
                },
                {
                    "name": "E4",
                    "midi": 64,
                    "time": 105.29801500000049,
                    "velocity": 0.3937007874015748,
                    "duration": 0.09933775000000367
                },
                {
                    "name": "C4",
                    "midi": 60,
                    "time": 105.29801500000049,
                    "velocity": 0.33070866141732286,
                    "duration": 0.09933775000000367
                },
                {
                    "name": "E4",
                    "midi": 64,
                    "time": 105.4966905000005,
                    "velocity": 0.3937007874015748,
                    "duration": 0.09933775000000367
                },
                {
                    "name": "C4",
                    "midi": 60,
                    "time": 105.4966905000005,
                    "velocity": 0.33070866141732286,
                    "duration": 0.09933775000000367
                },
                {
                    "name": "E3",
                    "midi": 52,
                    "time": 105.6953660000005,
                    "velocity": 0.5118110236220472,
                    "duration": 0.09933775000000367
                },
                {
                    "name": "E4",
                    "midi": 64,
                    "time": 105.89404150000051,
                    "velocity": 0.41732283464566927,
                    "duration": 0.09933775000000367
                },
                {
                    "name": "B3",
                    "midi": 59,
                    "time": 105.89404150000051,
                    "velocity": 0.3464566929133858,
                    "duration": 0.09933775000000367
                },
                {
                    "name": "E4",
                    "midi": 64,
                    "time": 106.09271700000052,
                    "velocity": 0.41732283464566927,
                    "duration": 0.09933775000000367
                },
                {
                    "name": "B3",
                    "midi": 59,
                    "time": 106.09271700000052,
                    "velocity": 0.3464566929133858,
                    "duration": 0.09933775000000367
                },
                {
                    "name": "E4",
                    "midi": 64,
                    "time": 106.29139250000053,
                    "velocity": 0.41732283464566927,
                    "duration": 0.09933775000000367
                },
                {
                    "name": "B3",
                    "midi": 59,
                    "time": 106.29139250000053,
                    "velocity": 0.3464566929133858,
                    "duration": 0.09933775000000367
                },
                {
                    "name": "E3",
                    "midi": 52,
                    "time": 106.49006800000053,
                    "velocity": 0.5196850393700787,
                    "duration": 0.09933775000000367
                },
                {
                    "name": "E4",
                    "midi": 64,
                    "time": 106.68874350000054,
                    "velocity": 0.4094488188976378,
                    "duration": 0.09933775000000367
                },
                {
                    "name": "B3",
                    "midi": 59,
                    "time": 106.68874350000054,
                    "velocity": 0.33858267716535434,
                    "duration": 0.09933775000000367
                },
                {
                    "name": "E4",
                    "midi": 64,
                    "time": 106.88741900000055,
                    "velocity": 0.4094488188976378,
                    "duration": 0.09933775000000367
                },
                {
                    "name": "B3",
                    "midi": 59,
                    "time": 106.88741900000055,
                    "velocity": 0.33858267716535434,
                    "duration": 0.09933775000000367
                },
                {
                    "name": "E4",
                    "midi": 64,
                    "time": 107.08609450000056,
                    "velocity": 0.4094488188976378,
                    "duration": 0.09933775000000367
                },
                {
                    "name": "B3",
                    "midi": 59,
                    "time": 107.08609450000056,
                    "velocity": 0.33858267716535434,
                    "duration": 0.09933775000000367
                },
                {
                    "name": "E3",
                    "midi": 52,
                    "time": 107.28477000000056,
                    "velocity": 0.5275590551181102,
                    "duration": 0.09933775000000367
                },
                {
                    "name": "E4",
                    "midi": 64,
                    "time": 107.48344550000057,
                    "velocity": 0.4094488188976378,
                    "duration": 0.09933775000000367
                },
                {
                    "name": "B3",
                    "midi": 59,
                    "time": 107.48344550000057,
                    "velocity": 0.33858267716535434,
                    "duration": 0.09933775000000367
                },
                {
                    "name": "B2",
                    "midi": 47,
                    "time": 107.68212100000058,
                    "velocity": 0.4094488188976378,
                    "duration": 0.09933775000000367
                },
                {
                    "name": "B3",
                    "midi": 59,
                    "time": 107.88079650000059,
                    "velocity": 0.4094488188976378,
                    "duration": 0.09933775000000367
                },
                {
                    "name": "E3",
                    "midi": 52,
                    "time": 108.07947200000059,
                    "velocity": 0.44881889763779526,
                    "duration": 0.372516562499996
                },
                {
                    "name": "A3",
                    "midi": 57,
                    "time": 108.8741740000006,
                    "velocity": 0.44881889763779526,
                    "duration": 0.09933775000000367
                },
                {
                    "name": "E4",
                    "midi": 64,
                    "time": 109.0728495000006,
                    "velocity": 0.4094488188976378,
                    "duration": 0.09933775000000367
                },
                {
                    "name": "C4",
                    "midi": 60,
                    "time": 109.0728495000006,
                    "velocity": 0.33858267716535434,
                    "duration": 0.09933775000000367
                },
                {
                    "name": "C4",
                    "midi": 60,
                    "time": 109.27152500000061,
                    "velocity": 0.33858267716535434,
                    "duration": 0.09933775000000367
                },
                {
                    "name": "E4",
                    "midi": 64,
                    "time": 109.27152500000061,
                    "velocity": 0.4094488188976378,
                    "duration": 0.09933775000000367
                },
                {
                    "name": "C4",
                    "midi": 60,
                    "time": 109.47020050000062,
                    "velocity": 0.33070866141732286,
                    "duration": 0.09933775000000367
                },
                {
                    "name": "E4",
                    "midi": 64,
                    "time": 109.47020050000062,
                    "velocity": 0.4015748031496063,
                    "duration": 0.09933775000000367
                },
                {
                    "name": "A3",
                    "midi": 57,
                    "time": 109.66887600000062,
                    "velocity": 0.44881889763779526,
                    "duration": 0.09933775000000367
                },
                {
                    "name": "E4",
                    "midi": 64,
                    "time": 109.86755150000063,
                    "velocity": 0.4094488188976378,
                    "duration": 0.09933775000000367
                },
                {
                    "name": "C4",
                    "midi": 60,
                    "time": 109.86755150000063,
                    "velocity": 0.33858267716535434,
                    "duration": 0.09933775000000367
                },
                {
                    "name": "E4",
                    "midi": 64,
                    "time": 110.06622700000064,
                    "velocity": 0.4094488188976378,
                    "duration": 0.09933775000000367
                },
                {
                    "name": "C4",
                    "midi": 60,
                    "time": 110.06622700000064,
                    "velocity": 0.33858267716535434,
                    "duration": 0.09933775000000367
                },
                {
                    "name": "E4",
                    "midi": 64,
                    "time": 110.26490250000064,
                    "velocity": 0.4094488188976378,
                    "duration": 0.09933775000000367
                },
                {
                    "name": "C4",
                    "midi": 60,
                    "time": 110.26490250000064,
                    "velocity": 0.33858267716535434,
                    "duration": 0.09933775000000367
                },
                {
                    "name": "A3",
                    "midi": 57,
                    "time": 110.46357800000065,
                    "velocity": 0.44881889763779526,
                    "duration": 0.09933775000000367
                },
                {
                    "name": "E4",
                    "midi": 64,
                    "time": 110.66225350000066,
                    "velocity": 0.3937007874015748,
                    "duration": 0.09933775000000367
                },
                {
                    "name": "C4",
                    "midi": 60,
                    "time": 110.66225350000066,
                    "velocity": 0.33070866141732286,
                    "duration": 0.09933775000000367
                },
                {
                    "name": "A3",
                    "midi": 57,
                    "time": 110.86092900000067,
                    "velocity": 0.44881889763779526,
                    "duration": 0.09933775000000367
                },
                {
                    "name": "E4",
                    "midi": 64,
                    "time": 111.05960450000067,
                    "velocity": 0.4094488188976378,
                    "duration": 0.09933775000000367
                },
                {
                    "name": "C4",
                    "midi": 60,
                    "time": 111.05960450000067,
                    "velocity": 0.33858267716535434,
                    "duration": 0.09933775000000367
                },
                {
                    "name": "A3",
                    "midi": 57,
                    "time": 111.25828000000068,
                    "velocity": 0.44881889763779526,
                    "duration": 0.09933775000000367
                },
                {
                    "name": "E4",
                    "midi": 64,
                    "time": 111.45695550000069,
                    "velocity": 0.3937007874015748,
                    "duration": 0.09933775000000367
                },
                {
                    "name": "C4",
                    "midi": 60,
                    "time": 111.45695550000069,
                    "velocity": 0.33070866141732286,
                    "duration": 0.09933775000000367
                },
                {
                    "name": "E4",
                    "midi": 64,
                    "time": 111.6556310000007,
                    "velocity": 0.3937007874015748,
                    "duration": 0.09933775000000367
                },
                {
                    "name": "C4",
                    "midi": 60,
                    "time": 111.6556310000007,
                    "velocity": 0.33070866141732286,
                    "duration": 0.09933775000000367
                },
                {
                    "name": "E4",
                    "midi": 64,
                    "time": 111.8543065000007,
                    "velocity": 0.3937007874015748,
                    "duration": 0.09933775000000367
                },
                {
                    "name": "C4",
                    "midi": 60,
                    "time": 111.8543065000007,
                    "velocity": 0.33070866141732286,
                    "duration": 0.09933775000000367
                },
                {
                    "name": "E3",
                    "midi": 52,
                    "time": 112.05298200000071,
                    "velocity": 0.5118110236220472,
                    "duration": 0.09933775000000367
                },
                {
                    "name": "E4",
                    "midi": 64,
                    "time": 112.25165750000072,
                    "velocity": 0.41732283464566927,
                    "duration": 0.09933775000000367
                },
                {
                    "name": "B3",
                    "midi": 59,
                    "time": 112.25165750000072,
                    "velocity": 0.3464566929133858,
                    "duration": 0.09933775000000367
                },
                {
                    "name": "E4",
                    "midi": 64,
                    "time": 112.45033300000073,
                    "velocity": 0.41732283464566927,
                    "duration": 0.09933775000000367
                },
                {
                    "name": "B3",
                    "midi": 59,
                    "time": 112.45033300000073,
                    "velocity": 0.3464566929133858,
                    "duration": 0.09933775000000367
                },
                {
                    "name": "E4",
                    "midi": 64,
                    "time": 112.64900850000073,
                    "velocity": 0.41732283464566927,
                    "duration": 0.09933775000000367
                },
                {
                    "name": "B3",
                    "midi": 59,
                    "time": 112.64900850000073,
                    "velocity": 0.3464566929133858,
                    "duration": 0.09933775000000367
                },
                {
                    "name": "E3",
                    "midi": 52,
                    "time": 112.84768400000074,
                    "velocity": 0.5196850393700787,
                    "duration": 0.09933775000000367
                },
                {
                    "name": "E4",
                    "midi": 64,
                    "time": 113.04635950000075,
                    "velocity": 0.4094488188976378,
                    "duration": 0.09933775000000367
                },
                {
                    "name": "B3",
                    "midi": 59,
                    "time": 113.04635950000075,
                    "velocity": 0.33858267716535434,
                    "duration": 0.09933775000000367
                },
                {
                    "name": "E4",
                    "midi": 64,
                    "time": 113.24503500000075,
                    "velocity": 0.4094488188976378,
                    "duration": 0.09933775000000367
                },
                {
                    "name": "B3",
                    "midi": 59,
                    "time": 113.24503500000075,
                    "velocity": 0.33858267716535434,
                    "duration": 0.09933775000000367
                },
                {
                    "name": "E4",
                    "midi": 64,
                    "time": 113.44371050000076,
                    "velocity": 0.4094488188976378,
                    "duration": 0.09933775000000367
                },
                {
                    "name": "B3",
                    "midi": 59,
                    "time": 113.44371050000076,
                    "velocity": 0.33858267716535434,
                    "duration": 0.09933775000000367
                },
                {
                    "name": "E3",
                    "midi": 52,
                    "time": 113.64238600000077,
                    "velocity": 0.5275590551181102,
                    "duration": 0.09933775000000367
                },
                {
                    "name": "E4",
                    "midi": 64,
                    "time": 113.84106150000078,
                    "velocity": 0.4094488188976378,
                    "duration": 0.09933775000000367
                },
                {
                    "name": "B3",
                    "midi": 59,
                    "time": 113.84106150000078,
                    "velocity": 0.33858267716535434,
                    "duration": 0.09933775000000367
                },
                {
                    "name": "B2",
                    "midi": 47,
                    "time": 114.03973700000078,
                    "velocity": 0.4094488188976378,
                    "duration": 0.09933775000000367
                },
                {
                    "name": "B3",
                    "midi": 59,
                    "time": 114.23841250000079,
                    "velocity": 0.4094488188976378,
                    "duration": 0.09933775000000367
                },
                {
                    "name": "E3",
                    "midi": 52,
                    "time": 114.4370880000008,
                    "velocity": 0.44881889763779526,
                    "duration": 0.372516562499996
                },
                {
                    "name": "C3",
                    "midi": 48,
                    "time": 115.2317900000008,
                    "velocity": 0.4645669291338583,
                    "duration": 0.09933775000000367
                },
                {
                    "name": "C4",
                    "midi": 60,
                    "time": 115.4304655000008,
                    "velocity": 0.41732283464566927,
                    "duration": 0.09933775000000367
                },
                {
                    "name": "E3",
                    "midi": 52,
                    "time": 115.62914100000081,
                    "velocity": 0.4645669291338583,
                    "duration": 0.09933775000000367
                },
                {
                    "name": "E4",
                    "midi": 64,
                    "time": 115.82781650000082,
                    "velocity": 0.44881889763779526,
                    "duration": 0.09933775000000367
                },
                {
                    "name": "G3",
                    "midi": 55,
                    "time": 116.02649200000083,
                    "velocity": 0.47244094488188976,
                    "duration": 0.39735100000000045
                },
                {
                    "name": "C3",
                    "midi": 48,
                    "time": 116.82119400000083,
                    "velocity": 0.4645669291338583,
                    "duration": 0.09933775000000367
                },
                {
                    "name": "C4",
                    "midi": 60,
                    "time": 117.01986950000084,
                    "velocity": 0.41732283464566927,
                    "duration": 0.09933775000000367
                },
                {
                    "name": "E3",
                    "midi": 52,
                    "time": 117.21854500000084,
                    "velocity": 0.4645669291338583,
                    "duration": 0.09933775000000367
                },
                {
                    "name": "E4",
                    "midi": 64,
                    "time": 117.41722050000085,
                    "velocity": 0.44881889763779526,
                    "duration": 0.09933775000000367
                },
                {
                    "name": "G3",
                    "midi": 55,
                    "time": 117.61589600000086,
                    "velocity": 0.47244094488188976,
                    "duration": 0.39735100000000045
                },
                {
                    "name": "A2",
                    "midi": 45,
                    "time": 118.41059800000086,
                    "velocity": 0.4645669291338583,
                    "duration": 0.09933775000000367
                },
                {
                    "name": "A3",
                    "midi": 57,
                    "time": 118.60927350000087,
                    "velocity": 0.41732283464566927,
                    "duration": 0.09933775000000367
                },
                {
                    "name": "C3",
                    "midi": 48,
                    "time": 118.80794900000087,
                    "velocity": 0.4645669291338583,
                    "duration": 0.09933775000000367
                },
                {
                    "name": "C4",
                    "midi": 60,
                    "time": 119.00662450000088,
                    "velocity": 0.44881889763779526,
                    "duration": 0.09933775000000367
                },
                {
                    "name": "E3",
                    "midi": 52,
                    "time": 119.20530000000089,
                    "velocity": 0.47244094488188976,
                    "duration": 0.39735100000000045
                },
                {
                    "name": "A2",
                    "midi": 45,
                    "time": 120.00000200000089,
                    "velocity": 0.4645669291338583,
                    "duration": 0.09933775000000367
                },
                {
                    "name": "A3",
                    "midi": 57,
                    "time": 120.1986775000009,
                    "velocity": 0.41732283464566927,
                    "duration": 0.09933775000000367
                },
                {
                    "name": "C3",
                    "midi": 48,
                    "time": 120.3973530000009,
                    "velocity": 0.4645669291338583,
                    "duration": 0.09933775000000367
                },
                {
                    "name": "C4",
                    "midi": 60,
                    "time": 120.59602850000091,
                    "velocity": 0.44881889763779526,
                    "duration": 0.09933775000000367
                },
                {
                    "name": "E3",
                    "midi": 52,
                    "time": 120.79470400000092,
                    "velocity": 0.47244094488188976,
                    "duration": 0.39735100000000045
                },
                {
                    "name": "A3",
                    "midi": 57,
                    "time": 121.58940600000092,
                    "velocity": 0.41732283464566927,
                    "duration": 0.09933775000000367
                },
                {
                    "name": "E4",
                    "midi": 64,
                    "time": 121.78808150000093,
                    "velocity": 0.3700787401574803,
                    "duration": 0.09933775000000367
                },
                {
                    "name": "C4",
                    "midi": 60,
                    "time": 121.78808150000093,
                    "velocity": 0.3700787401574803,
                    "duration": 0.09933775000000367
                },
                {
                    "name": "C4",
                    "midi": 60,
                    "time": 121.98675700000094,
                    "velocity": 0.3700787401574803,
                    "duration": 0.09933775000000367
                },
                {
                    "name": "E4",
                    "midi": 64,
                    "time": 121.98675700000094,
                    "velocity": 0.3700787401574803,
                    "duration": 0.09933775000000367
                },
                {
                    "name": "C4",
                    "midi": 60,
                    "time": 122.18543250000094,
                    "velocity": 0.3700787401574803,
                    "duration": 0.09933775000000367
                },
                {
                    "name": "E4",
                    "midi": 64,
                    "time": 122.18543250000094,
                    "velocity": 0.3700787401574803,
                    "duration": 0.09933775000000367
                },
                {
                    "name": "A3",
                    "midi": 57,
                    "time": 122.38410800000095,
                    "velocity": 0.4251968503937008,
                    "duration": 0.09933775000000367
                },
                {
                    "name": "E4",
                    "midi": 64,
                    "time": 122.58278350000096,
                    "velocity": 0.3779527559055118,
                    "duration": 0.09933775000000367
                },
                {
                    "name": "C4",
                    "midi": 60,
                    "time": 122.58278350000096,
                    "velocity": 0.3779527559055118,
                    "duration": 0.09933775000000367
                },
                {
                    "name": "E4",
                    "midi": 64,
                    "time": 122.78145900000096,
                    "velocity": 0.3779527559055118,
                    "duration": 0.09933775000000367
                },
                {
                    "name": "C4",
                    "midi": 60,
                    "time": 122.78145900000096,
                    "velocity": 0.3779527559055118,
                    "duration": 0.09933775000000367
                },
                {
                    "name": "E4",
                    "midi": 64,
                    "time": 122.98013450000097,
                    "velocity": 0.3779527559055118,
                    "duration": 0.09933775000000367
                },
                {
                    "name": "C4",
                    "midi": 60,
                    "time": 122.98013450000097,
                    "velocity": 0.3779527559055118,
                    "duration": 0.09933775000000367
                },
                {
                    "name": "A3",
                    "midi": 57,
                    "time": 123.17881000000098,
                    "velocity": 0.4409448818897638,
                    "duration": 0.09933775000000367
                },
                {
                    "name": "E4",
                    "midi": 64,
                    "time": 123.37748550000099,
                    "velocity": 0.3858267716535433,
                    "duration": 0.09933775000000367
                },
                {
                    "name": "C4",
                    "midi": 60,
                    "time": 123.37748550000099,
                    "velocity": 0.3858267716535433,
                    "duration": 0.09933775000000367
                },
                {
                    "name": "A3",
                    "midi": 57,
                    "time": 123.576161000001,
                    "velocity": 0.44881889763779526,
                    "duration": 0.09933775000000367
                },
                {
                    "name": "E4",
                    "midi": 64,
                    "time": 123.774836500001,
                    "velocity": 0.4094488188976378,
                    "duration": 0.09933775000000367
                },
                {
                    "name": "C4",
                    "midi": 60,
                    "time": 123.774836500001,
                    "velocity": 0.33858267716535434,
                    "duration": 0.09933775000000367
                },
                {
                    "name": "F3",
                    "midi": 53,
                    "time": 123.97351200000101,
                    "velocity": 0.44881889763779526,
                    "duration": 0.09933775000000367
                },
                {
                    "name": "D#4",
                    "midi": 63,
                    "time": 124.17218750000102,
                    "velocity": 0.4015748031496063,
                    "duration": 0.09933775000000367
                },
                {
                    "name": "A3",
                    "midi": 57,
                    "time": 124.17218750000102,
                    "velocity": 0.4015748031496063,
                    "duration": 0.09933775000000367
                },
                {
                    "name": "D#4",
                    "midi": 63,
                    "time": 124.37086300000102,
                    "velocity": 0.33858267716535434,
                    "duration": 0.09933775000000367
                },
                {
                    "name": "A3",
                    "midi": 57,
                    "time": 124.37086300000102,
                    "velocity": 0.33858267716535434,
                    "duration": 0.09933775000000367
                },
                {
                    "name": "D#4",
                    "midi": 63,
                    "time": 124.56953850000103,
                    "velocity": 0.30708661417322836,
                    "duration": 0.09933775000000367
                },
                {
                    "name": "A3",
                    "midi": 57,
                    "time": 124.56953850000103,
                    "velocity": 0.30708661417322836,
                    "duration": 0.09933775000000367
                },
                {
                    "name": "E3",
                    "midi": 52,
                    "time": 124.76821400000104,
                    "velocity": 0.36220472440944884,
                    "duration": 0.09933775000000367
                },
                {
                    "name": "E4",
                    "midi": 64,
                    "time": 124.96688950000105,
                    "velocity": 0.33070866141732286,
                    "duration": 0.09933775000000367
                },
                {
                    "name": "A3",
                    "midi": 57,
                    "time": 124.96688950000105,
                    "velocity": 0.33070866141732286,
                    "duration": 0.09933775000000367
                },
                {
                    "name": "D3",
                    "midi": 50,
                    "time": 125.16556500000105,
                    "velocity": 0.33070866141732286,
                    "duration": 0.09933775000000367
                },
                {
                    "name": "B3",
                    "midi": 59,
                    "time": 125.36424050000106,
                    "velocity": 0.33070866141732286,
                    "duration": 0.09933775000000367
                },
                {
                    "name": "F3",
                    "midi": 53,
                    "time": 125.36424050000106,
                    "velocity": 0.33070866141732286,
                    "duration": 0.09933775000000367
                },
                {
                    "name": "C3",
                    "midi": 48,
                    "time": 125.56291600000107,
                    "velocity": 0.3700787401574803,
                    "duration": 0.09933775000000367
                },
                {
                    "name": "A3",
                    "midi": 57,
                    "time": 125.76159150000107,
                    "velocity": 0.30708661417322836,
                    "duration": 0.09933775000000367
                },
                {
                    "name": "E3",
                    "midi": 52,
                    "time": 125.76159150000107,
                    "velocity": 0.30708661417322836,
                    "duration": 0.09933775000000367
                },
                {
                    "name": "D3",
                    "midi": 50,
                    "time": 125.96026700000108,
                    "velocity": 0.3228346456692913,
                    "duration": 0.09933775000000367
                },
                {
                    "name": "B3",
                    "midi": 59,
                    "time": 126.15894250000109,
                    "velocity": 0.3228346456692913,
                    "duration": 0.09933775000000367
                },
                {
                    "name": "F3",
                    "midi": 53,
                    "time": 126.15894250000109,
                    "velocity": 0.3228346456692913,
                    "duration": 0.09933775000000367
                },
                {
                    "name": "E3",
                    "midi": 52,
                    "time": 126.3576180000011,
                    "velocity": 0.3779527559055118,
                    "duration": 0.09933775000000367
                },
                {
                    "name": "A3",
                    "midi": 57,
                    "time": 126.3576180000011,
                    "velocity": 0.3779527559055118,
                    "duration": 0.09933775000000367
                },
                {
                    "name": "A3",
                    "midi": 57,
                    "time": 126.5562935000011,
                    "velocity": 0.3228346456692913,
                    "duration": 0.09933775000000367
                },
                {
                    "name": "E3",
                    "midi": 52,
                    "time": 126.5562935000011,
                    "velocity": 0.3228346456692913,
                    "duration": 0.09933775000000367
                },
                {
                    "name": "E3",
                    "midi": 52,
                    "time": 126.75082992708444,
                    "velocity": 0.3228346456692913,
                    "duration": 0.09933775000000367
                },
                {
                    "name": "G#3",
                    "midi": 56,
                    "time": 126.75496900000111,
                    "velocity": 0.3228346456692913,
                    "duration": 0.09933775000000367
                },
                {
                    "name": "E3",
                    "midi": 52,
                    "time": 126.95364450000112,
                    "velocity": 0.3228346456692913,
                    "duration": 0.09933775000000367
                },
                {
                    "name": "G#3",
                    "midi": 56,
                    "time": 126.95364450000112,
                    "velocity": 0.3228346456692913,
                    "duration": 0.09933775000000367
                },
                {
                    "name": "A2",
                    "midi": 45,
                    "time": 127.15232000000113,
                    "velocity": 0.36220472440944884,
                    "duration": 0.39735100000000045
                },
                {
                    "name": "A3",
                    "midi": 57,
                    "time": 127.15232000000113,
                    "velocity": 0.36220472440944884,
                    "duration": 0.372516562499996
                },
                {
                    "name": "C3",
                    "midi": 48,
                    "time": 127.94702200000113,
                    "velocity": 0.4645669291338583,
                    "duration": 0.09933775000000367
                },
                {
                    "name": "C4",
                    "midi": 60,
                    "time": 128.14569750000112,
                    "velocity": 0.41732283464566927,
                    "duration": 0.09933774999998946
                },
                {
                    "name": "E3",
                    "midi": 52,
                    "time": 128.3443730000011,
                    "velocity": 0.4645669291338583,
                    "duration": 0.09933774999998946
                },
                {
                    "name": "E4",
                    "midi": 64,
                    "time": 128.54304850000108,
                    "velocity": 0.44881889763779526,
                    "duration": 0.09933774999998946
                },
                {
                    "name": "G3",
                    "midi": 55,
                    "time": 128.74172400000106,
                    "velocity": 0.47244094488188976,
                    "duration": 0.39735099999998624
                },
                {
                    "name": "C3",
                    "midi": 48,
                    "time": 129.53642600000103,
                    "velocity": 0.4645669291338583,
                    "duration": 0.09933774999998946
                },
                {
                    "name": "C4",
                    "midi": 60,
                    "time": 129.735101500001,
                    "velocity": 0.41732283464566927,
                    "duration": 0.09933774999998946
                },
                {
                    "name": "E3",
                    "midi": 52,
                    "time": 129.933777000001,
                    "velocity": 0.4645669291338583,
                    "duration": 0.09933774999998946
                },
                {
                    "name": "E4",
                    "midi": 64,
                    "time": 130.13245250000097,
                    "velocity": 0.44881889763779526,
                    "duration": 0.09933774999998946
                },
                {
                    "name": "G3",
                    "midi": 55,
                    "time": 130.33112800000094,
                    "velocity": 0.47244094488188976,
                    "duration": 0.39735099999998624
                },
                {
                    "name": "A2",
                    "midi": 45,
                    "time": 131.12583000000092,
                    "velocity": 0.4645669291338583,
                    "duration": 0.09933774999998946
                },
                {
                    "name": "A3",
                    "midi": 57,
                    "time": 131.3245055000009,
                    "velocity": 0.41732283464566927,
                    "duration": 0.09933774999998946
                },
                {
                    "name": "C3",
                    "midi": 48,
                    "time": 131.52318100000087,
                    "velocity": 0.4645669291338583,
                    "duration": 0.09933774999998946
                },
                {
                    "name": "C4",
                    "midi": 60,
                    "time": 131.72185650000085,
                    "velocity": 0.44881889763779526,
                    "duration": 0.09933774999998946
                },
                {
                    "name": "E3",
                    "midi": 52,
                    "time": 131.92053200000083,
                    "velocity": 0.47244094488188976,
                    "duration": 0.39735099999998624
                },
                {
                    "name": "A2",
                    "midi": 45,
                    "time": 132.7152340000008,
                    "velocity": 0.4645669291338583,
                    "duration": 0.09933774999998946
                },
                {
                    "name": "A3",
                    "midi": 57,
                    "time": 132.91390950000078,
                    "velocity": 0.41732283464566927,
                    "duration": 0.09933774999998946
                },
                {
                    "name": "C3",
                    "midi": 48,
                    "time": 133.11258500000076,
                    "velocity": 0.4645669291338583,
                    "duration": 0.09933774999998946
                },
                {
                    "name": "C4",
                    "midi": 60,
                    "time": 133.31126050000074,
                    "velocity": 0.44881889763779526,
                    "duration": 0.09933774999998946
                },
                {
                    "name": "E3",
                    "midi": 52,
                    "time": 133.50993600000072,
                    "velocity": 0.47244094488188976,
                    "duration": 0.39735099999998624
                },
                {
                    "name": "A3",
                    "midi": 57,
                    "time": 134.3046380000007,
                    "velocity": 0.41732283464566927,
                    "duration": 0.09933774999998946
                },
                {
                    "name": "E4",
                    "midi": 64,
                    "time": 134.50331350000067,
                    "velocity": 0.3700787401574803,
                    "duration": 0.09933774999998946
                },
                {
                    "name": "C4",
                    "midi": 60,
                    "time": 134.50331350000067,
                    "velocity": 0.3700787401574803,
                    "duration": 0.09933774999998946
                },
                {
                    "name": "C4",
                    "midi": 60,
                    "time": 134.70198900000065,
                    "velocity": 0.3700787401574803,
                    "duration": 0.09933774999998946
                },
                {
                    "name": "E4",
                    "midi": 64,
                    "time": 134.70198900000065,
                    "velocity": 0.3700787401574803,
                    "duration": 0.09933774999998946
                },
                {
                    "name": "C4",
                    "midi": 60,
                    "time": 134.90066450000063,
                    "velocity": 0.3700787401574803,
                    "duration": 0.09933774999998946
                },
                {
                    "name": "E4",
                    "midi": 64,
                    "time": 134.90066450000063,
                    "velocity": 0.3700787401574803,
                    "duration": 0.09933774999998946
                },
                {
                    "name": "A3",
                    "midi": 57,
                    "time": 135.0993400000006,
                    "velocity": 0.4251968503937008,
                    "duration": 0.09933774999998946
                },
                {
                    "name": "E4",
                    "midi": 64,
                    "time": 135.2980155000006,
                    "velocity": 0.3779527559055118,
                    "duration": 0.09933774999998946
                },
                {
                    "name": "C4",
                    "midi": 60,
                    "time": 135.2980155000006,
                    "velocity": 0.3779527559055118,
                    "duration": 0.09933774999998946
                },
                {
                    "name": "E4",
                    "midi": 64,
                    "time": 135.49669100000057,
                    "velocity": 0.3779527559055118,
                    "duration": 0.09933774999998946
                },
                {
                    "name": "C4",
                    "midi": 60,
                    "time": 135.49669100000057,
                    "velocity": 0.3779527559055118,
                    "duration": 0.09933774999998946
                },
                {
                    "name": "E4",
                    "midi": 64,
                    "time": 135.69536650000055,
                    "velocity": 0.3779527559055118,
                    "duration": 0.09933774999998946
                },
                {
                    "name": "C4",
                    "midi": 60,
                    "time": 135.69536650000055,
                    "velocity": 0.3779527559055118,
                    "duration": 0.09933774999998946
                },
                {
                    "name": "A3",
                    "midi": 57,
                    "time": 135.89404200000052,
                    "velocity": 0.4409448818897638,
                    "duration": 0.09933774999998946
                },
                {
                    "name": "E4",
                    "midi": 64,
                    "time": 136.0927175000005,
                    "velocity": 0.3858267716535433,
                    "duration": 0.09933774999998946
                },
                {
                    "name": "C4",
                    "midi": 60,
                    "time": 136.0927175000005,
                    "velocity": 0.3858267716535433,
                    "duration": 0.09933774999998946
                },
                {
                    "name": "A3",
                    "midi": 57,
                    "time": 136.29139300000048,
                    "velocity": 0.44881889763779526,
                    "duration": 0.09933774999998946
                },
                {
                    "name": "E4",
                    "midi": 64,
                    "time": 136.49006850000046,
                    "velocity": 0.4094488188976378,
                    "duration": 0.09933774999998946
                },
                {
                    "name": "C4",
                    "midi": 60,
                    "time": 136.49006850000046,
                    "velocity": 0.33858267716535434,
                    "duration": 0.09933774999998946
                },
                {
                    "name": "A3",
                    "midi": 57,
                    "time": 136.68874400000044,
                    "velocity": 0.44881889763779526,
                    "duration": 0.09933774999998946
                },
                {
                    "name": "D#4",
                    "midi": 63,
                    "time": 136.88741950000042,
                    "velocity": 0.4015748031496063,
                    "duration": 0.09933774999998946
                },
                {
                    "name": "A3",
                    "midi": 57,
                    "time": 136.88741950000042,
                    "velocity": 0.4015748031496063,
                    "duration": 0.09933774999998946
                },
                {
                    "name": "D#4",
                    "midi": 63,
                    "time": 137.0860950000004,
                    "velocity": 0.33858267716535434,
                    "duration": 0.09933774999998946
                },
                {
                    "name": "A3",
                    "midi": 57,
                    "time": 137.0860950000004,
                    "velocity": 0.33858267716535434,
                    "duration": 0.09933774999998946
                },
                {
                    "name": "D#4",
                    "midi": 63,
                    "time": 137.28477050000038,
                    "velocity": 0.30708661417322836,
                    "duration": 0.09933774999998946
                },
                {
                    "name": "A3",
                    "midi": 57,
                    "time": 137.28477050000038,
                    "velocity": 0.30708661417322836,
                    "duration": 0.09933774999998946
                },
                {
                    "name": "E3",
                    "midi": 52,
                    "time": 137.48344600000036,
                    "velocity": 0.36220472440944884,
                    "duration": 0.09933774999998946
                },
                {
                    "name": "E4",
                    "midi": 64,
                    "time": 137.68212150000033,
                    "velocity": 0.33070866141732286,
                    "duration": 0.09933774999998946
                },
                {
                    "name": "A3",
                    "midi": 57,
                    "time": 137.68212150000033,
                    "velocity": 0.33070866141732286,
                    "duration": 0.09933774999998946
                },
                {
                    "name": "D3",
                    "midi": 50,
                    "time": 137.8807970000003,
                    "velocity": 0.33070866141732286,
                    "duration": 0.09933774999998946
                },
                {
                    "name": "B3",
                    "midi": 59,
                    "time": 138.0794725000003,
                    "velocity": 0.33070866141732286,
                    "duration": 0.09933774999998946
                },
                {
                    "name": "F3",
                    "midi": 53,
                    "time": 138.0794725000003,
                    "velocity": 0.33070866141732286,
                    "duration": 0.09933774999998946
                },
                {
                    "name": "C3",
                    "midi": 48,
                    "time": 138.27814800000027,
                    "velocity": 0.3700787401574803,
                    "duration": 0.09933774999998946
                },
                {
                    "name": "A3",
                    "midi": 57,
                    "time": 138.47682350000025,
                    "velocity": 0.30708661417322836,
                    "duration": 0.09933774999998946
                },
                {
                    "name": "E3",
                    "midi": 52,
                    "time": 138.47682350000025,
                    "velocity": 0.30708661417322836,
                    "duration": 0.09933774999998946
                },
                {
                    "name": "D3",
                    "midi": 50,
                    "time": 138.67549900000023,
                    "velocity": 0.3228346456692913,
                    "duration": 0.09933774999998946
                },
                {
                    "name": "B3",
                    "midi": 59,
                    "time": 138.8741745000002,
                    "velocity": 0.3228346456692913,
                    "duration": 0.09933774999998946
                },
                {
                    "name": "F3",
                    "midi": 53,
                    "time": 138.8741745000002,
                    "velocity": 0.3228346456692913,
                    "duration": 0.09933774999998946
                },
                {
                    "name": "E3",
                    "midi": 52,
                    "time": 139.0728500000002,
                    "velocity": 0.3779527559055118,
                    "duration": 0.09933774999998946
                },
                {
                    "name": "A3",
                    "midi": 57,
                    "time": 139.0728500000002,
                    "velocity": 0.3779527559055118,
                    "duration": 0.09933774999998946
                },
                {
                    "name": "A3",
                    "midi": 57,
                    "time": 139.27152550000017,
                    "velocity": 0.3228346456692913,
                    "duration": 0.09933774999998946
                },
                {
                    "name": "E3",
                    "midi": 52,
                    "time": 139.27152550000017,
                    "velocity": 0.3228346456692913,
                    "duration": 0.09933774999998946
                },
                {
                    "name": "E3",
                    "midi": 52,
                    "time": 139.4660619270835,
                    "velocity": 0.3228346456692913,
                    "duration": 0.09933775000001788
                },
                {
                    "name": "G#3",
                    "midi": 56,
                    "time": 139.47020100000017,
                    "velocity": 0.3228346456692913,
                    "duration": 0.09933775000001788
                },
                {
                    "name": "E3",
                    "midi": 52,
                    "time": 139.66887650000018,
                    "velocity": 0.3228346456692913,
                    "duration": 0.09933774999998946
                },
                {
                    "name": "G#3",
                    "midi": 56,
                    "time": 139.66887650000018,
                    "velocity": 0.3228346456692913,
                    "duration": 0.09933774999998946
                },
                {
                    "name": "A2",
                    "midi": 45,
                    "time": 139.86755200000016,
                    "velocity": 0.36220472440944884,
                    "duration": 0.39735100000001466
                },
                {
                    "name": "A3",
                    "midi": 57,
                    "time": 139.86755200000016,
                    "velocity": 0.36220472440944884,
                    "duration": 0.3725165625000102
                },
                {
                    "name": "A2",
                    "midi": 45,
                    "time": 140.56291625000017,
                    "velocity": 0.5039370078740157,
                    "duration": 0.033112583333320345
                },
                {
                    "name": "C#3",
                    "midi": 49,
                    "time": 140.5960288333335,
                    "velocity": 0.5511811023622047,
                    "duration": 0.033112583333320345
                },
                {
                    "name": "E3",
                    "midi": 52,
                    "time": 140.6291414166668,
                    "velocity": 0.5984251968503937,
                    "duration": 0.033112583333320345
                },
                {
                    "name": "A3",
                    "midi": 57,
                    "time": 140.66225400000013,
                    "velocity": 0.6850393700787402,
                    "duration": 0.09933774999998946
                },
                {
                    "name": "A3",
                    "midi": 57,
                    "time": 140.8609295000001,
                    "velocity": 0.5433070866141733,
                    "duration": 0.09933774999998946
                },
                {
                    "name": "A3",
                    "midi": 57,
                    "time": 141.0596050000001,
                    "velocity": 0.5433070866141733,
                    "duration": 0.09933774999998946
                },
                {
                    "name": "A3",
                    "midi": 57,
                    "time": 141.25828050000007,
                    "velocity": 0.5433070866141733,
                    "duration": 0.09933774999998946
                },
                {
                    "name": "A2",
                    "midi": 45,
                    "time": 141.35761825000006,
                    "velocity": 0.5118110236220472,
                    "duration": 0.033112583333320345
                },
                {
                    "name": "C#3",
                    "midi": 49,
                    "time": 141.39073083333338,
                    "velocity": 0.5433070866141733,
                    "duration": 0.033112583333320345
                },
                {
                    "name": "E3",
                    "midi": 52,
                    "time": 141.4238434166667,
                    "velocity": 0.5748031496062992,
                    "duration": 0.033112583333320345
                },
                {
                    "name": "A3",
                    "midi": 57,
                    "time": 141.45695600000002,
                    "velocity": 0.6692913385826772,
                    "duration": 0.09933774999998946
                },
                {
                    "name": "A3",
                    "midi": 57,
                    "time": 141.6556315,
                    "velocity": 0.5039370078740157,
                    "duration": 0.09933774999998946
                },
                {
                    "name": "A3",
                    "midi": 57,
                    "time": 141.85430699999998,
                    "velocity": 0.5118110236220472,
                    "duration": 0.09933774999998946
                },
                {
                    "name": "A3",
                    "midi": 57,
                    "time": 142.05298249999996,
                    "velocity": 0.5275590551181102,
                    "duration": 0.09933774999998946
                },
                {
                    "name": "D2",
                    "midi": 38,
                    "time": 142.15232024999995,
                    "velocity": 0.5196850393700787,
                    "duration": 0.033112583333320345
                },
                {
                    "name": "F#2",
                    "midi": 42,
                    "time": 142.18543283333327,
                    "velocity": 0.5590551181102362,
                    "duration": 0.033112583333320345
                },
                {
                    "name": "A2",
                    "midi": 45,
                    "time": 142.2185454166666,
                    "velocity": 0.6062992125984252,
                    "duration": 0.033112583333320345
                },
                {
                    "name": "D3",
                    "midi": 50,
                    "time": 142.2516579999999,
                    "velocity": 0.6692913385826772,
                    "duration": 0.09933774999998946
                },
                {
                    "name": "D3",
                    "midi": 50,
                    "time": 142.45033349999989,
                    "velocity": 0.5433070866141733,
                    "duration": 0.09933774999998946
                },
                {
                    "name": "D#2",
                    "midi": 39,
                    "time": 142.54967124999988,
                    "velocity": 0.5354330708661418,
                    "duration": 0.033112583333320345
                },
                {
                    "name": "F#2",
                    "midi": 42,
                    "time": 142.5827838333332,
                    "velocity": 0.5669291338582677,
                    "duration": 0.033112583333320345
                },
                {
                    "name": "A2",
                    "midi": 45,
                    "time": 142.61589641666652,
                    "velocity": 0.5905511811023622,
                    "duration": 0.033112583333320345
                },
                {
                    "name": "D#3",
                    "midi": 51,
                    "time": 142.64900899999984,
                    "velocity": 0.6692913385826772,
                    "duration": 0.09933774999998946
                },
                {
                    "name": "D#3",
                    "midi": 51,
                    "time": 142.84768449999981,
                    "velocity": 0.5590551181102362,
                    "duration": 0.09933774999998946
                },
                {
                    "name": "E2",
                    "midi": 40,
                    "time": 142.9470222499998,
                    "velocity": 0.5039370078740157,
                    "duration": 0.033112583333320345
                },
                {
                    "name": "G#2",
                    "midi": 44,
                    "time": 142.98013483333312,
                    "velocity": 0.5433070866141733,
                    "duration": 0.033112583333320345
                },
                {
                    "name": "B2",
                    "midi": 47,
                    "time": 143.01324741666645,
                    "velocity": 0.5826771653543307,
                    "duration": 0.033112583333320345
                },
                {
                    "name": "E3",
                    "midi": 52,
                    "time": 143.04635999999977,
                    "velocity": 0.6692913385826772,
                    "duration": 0.19867550000000733
                },
                {
                    "name": "E3",
                    "midi": 52,
                    "time": 143.24503549999977,
                    "velocity": 0.5748031496062992,
                    "duration": 0.09933774999998946
                },
                {
                    "name": "A2",
                    "midi": 45,
                    "time": 143.74172424999975,
                    "velocity": 0.5275590551181102,
                    "duration": 0.033112583333320345
                },
                {
                    "name": "C#3",
                    "midi": 49,
                    "time": 143.77483683333307,
                    "velocity": 0.5590551181102362,
                    "duration": 0.033112583333320345
                },
                {
                    "name": "E3",
                    "midi": 52,
                    "time": 143.8079494166664,
                    "velocity": 0.5984251968503937,
                    "duration": 0.033112583333320345
                },
                {
                    "name": "A3",
                    "midi": 57,
                    "time": 143.8410619999997,
                    "velocity": 0.6614173228346457,
                    "duration": 0.09933774999998946
                },
                {
                    "name": "A3",
                    "midi": 57,
                    "time": 144.0397374999997,
                    "velocity": 0.5433070866141733,
                    "duration": 0.09933774999998946
                },
                {
                    "name": "A3",
                    "midi": 57,
                    "time": 144.23841299999967,
                    "velocity": 0.5433070866141733,
                    "duration": 0.09933774999998946
                },
                {
                    "name": "A3",
                    "midi": 57,
                    "time": 144.43708849999965,
                    "velocity": 0.5433070866141733,
                    "duration": 0.09933774999998946
                },
                {
                    "name": "A2",
                    "midi": 45,
                    "time": 144.53642624999964,
                    "velocity": 0.48031496062992124,
                    "duration": 0.033112583333320345
                },
                {
                    "name": "C#3",
                    "midi": 49,
                    "time": 144.56953883333296,
                    "velocity": 0.5196850393700787,
                    "duration": 0.033112583333320345
                },
                {
                    "name": "E3",
                    "midi": 52,
                    "time": 144.60265141666628,
                    "velocity": 0.5669291338582677,
                    "duration": 0.033112583333320345
                },
                {
                    "name": "A3",
                    "midi": 57,
                    "time": 144.6357639999996,
                    "velocity": 0.6850393700787402,
                    "duration": 0.09933774999998946
                },
                {
                    "name": "A3",
                    "midi": 57,
                    "time": 144.83443949999958,
                    "velocity": 0.5039370078740157,
                    "duration": 0.09933774999998946
                },
                {
                    "name": "A3",
                    "midi": 57,
                    "time": 145.03311499999955,
                    "velocity": 0.5118110236220472,
                    "duration": 0.09933774999998946
                },
                {
                    "name": "A3",
                    "midi": 57,
                    "time": 145.23179049999953,
                    "velocity": 0.5275590551181102,
                    "duration": 0.09933774999998946
                },
                {
                    "name": "D2",
                    "midi": 38,
                    "time": 145.33112824999952,
                    "velocity": 0.5354330708661418,
                    "duration": 0.033112583333320345
                },
                {
                    "name": "F#2",
                    "midi": 42,
                    "time": 145.36424083333284,
                    "velocity": 0.5669291338582677,
                    "duration": 0.033112583333320345
                },
                {
                    "name": "A2",
                    "midi": 45,
                    "time": 145.39735341666616,
                    "velocity": 0.5984251968503937,
                    "duration": 0.033112583333320345
                },
                {
                    "name": "D3",
                    "midi": 50,
                    "time": 145.43046599999948,
                    "velocity": 0.6535433070866141,
                    "duration": 0.09933774999998946
                },
                {
                    "name": "D3",
                    "midi": 50,
                    "time": 145.62914149999946,
                    "velocity": 0.5433070866141733,
                    "duration": 0.09933774999998946
                },
                {
                    "name": "E2",
                    "midi": 40,
                    "time": 145.72847924999945,
                    "velocity": 0.5275590551181102,
                    "duration": 0.033112583333320345
                },
                {
                    "name": "G#2",
                    "midi": 44,
                    "time": 145.76159183333277,
                    "velocity": 0.5669291338582677,
                    "duration": 0.033112583333320345
                },
                {
                    "name": "B2",
                    "midi": 47,
                    "time": 145.7947044166661,
                    "velocity": 0.6141732283464567,
                    "duration": 0.033112583333320345
                },
                {
                    "name": "E3",
                    "midi": 52,
                    "time": 145.8278169999994,
                    "velocity": 0.6456692913385826,
                    "duration": 0.09933774999998946
                },
                {
                    "name": "E3",
                    "midi": 52,
                    "time": 146.0264924999994,
                    "velocity": 0.5590551181102362,
                    "duration": 0.09933774999998946
                },
                {
                    "name": "A2",
                    "midi": 45,
                    "time": 146.22516799999937,
                    "velocity": 0.6614173228346457,
                    "duration": 0.3725165625000102
                },
                {
                    "name": "A2",
                    "midi": 45,
                    "time": 146.92053224999938,
                    "velocity": 0.5039370078740157,
                    "duration": 0.033112583333320345
                },
                {
                    "name": "C#3",
                    "midi": 49,
                    "time": 146.9536448333327,
                    "velocity": 0.5511811023622047,
                    "duration": 0.033112583333320345
                },
                {
                    "name": "E3",
                    "midi": 52,
                    "time": 146.98675741666602,
                    "velocity": 0.5984251968503937,
                    "duration": 0.033112583333320345
                },
                {
                    "name": "A3",
                    "midi": 57,
                    "time": 147.01986999999934,
                    "velocity": 0.6850393700787402,
                    "duration": 0.09933774999998946
                },
                {
                    "name": "A3",
                    "midi": 57,
                    "time": 147.21854549999932,
                    "velocity": 0.5433070866141733,
                    "duration": 0.09933774999998946
                },
                {
                    "name": "A3",
                    "midi": 57,
                    "time": 147.4172209999993,
                    "velocity": 0.5433070866141733,
                    "duration": 0.09933774999998946
                },
                {
                    "name": "A3",
                    "midi": 57,
                    "time": 147.61589649999928,
                    "velocity": 0.5433070866141733,
                    "duration": 0.09933774999998946
                },
                {
                    "name": "A2",
                    "midi": 45,
                    "time": 147.71523424999927,
                    "velocity": 0.5118110236220472,
                    "duration": 0.033112583333320345
                },
                {
                    "name": "C#3",
                    "midi": 49,
                    "time": 147.7483468333326,
                    "velocity": 0.5433070866141733,
                    "duration": 0.033112583333320345
                },
                {
                    "name": "E3",
                    "midi": 52,
                    "time": 147.7814594166659,
                    "velocity": 0.5748031496062992,
                    "duration": 0.033112583333320345
                },
                {
                    "name": "A3",
                    "midi": 57,
                    "time": 147.81457199999923,
                    "velocity": 0.6692913385826772,
                    "duration": 0.09933774999998946
                },
                {
                    "name": "A3",
                    "midi": 57,
                    "time": 148.0132474999992,
                    "velocity": 0.5039370078740157,
                    "duration": 0.09933774999998946
                },
                {
                    "name": "A3",
                    "midi": 57,
                    "time": 148.2119229999992,
                    "velocity": 0.5118110236220472,
                    "duration": 0.09933774999998946
                },
                {
                    "name": "A3",
                    "midi": 57,
                    "time": 148.41059849999917,
                    "velocity": 0.5275590551181102,
                    "duration": 0.09933774999998946
                },
                {
                    "name": "D2",
                    "midi": 38,
                    "time": 148.50993624999916,
                    "velocity": 0.5196850393700787,
                    "duration": 0.033112583333320345
                },
                {
                    "name": "F#2",
                    "midi": 42,
                    "time": 148.54304883333248,
                    "velocity": 0.5590551181102362,
                    "duration": 0.033112583333320345
                },
                {
                    "name": "A2",
                    "midi": 45,
                    "time": 148.5761614166658,
                    "velocity": 0.6062992125984252,
                    "duration": 0.033112583333320345
                },
                {
                    "name": "D3",
                    "midi": 50,
                    "time": 148.60927399999912,
                    "velocity": 0.6692913385826772,
                    "duration": 0.09933774999998946
                },
                {
                    "name": "D3",
                    "midi": 50,
                    "time": 148.8079494999991,
                    "velocity": 0.5433070866141733,
                    "duration": 0.09933774999998946
                },
                {
                    "name": "D#2",
                    "midi": 39,
                    "time": 148.9072872499991,
                    "velocity": 0.5354330708661418,
                    "duration": 0.033112583333320345
                },
                {
                    "name": "F#2",
                    "midi": 42,
                    "time": 148.9403998333324,
                    "velocity": 0.5669291338582677,
                    "duration": 0.033112583333320345
                },
                {
                    "name": "A2",
                    "midi": 45,
                    "time": 148.97351241666573,
                    "velocity": 0.5905511811023622,
                    "duration": 0.033112583333320345
                },
                {
                    "name": "D#3",
                    "midi": 51,
                    "time": 149.00662499999905,
                    "velocity": 0.6692913385826772,
                    "duration": 0.09933774999998946
                },
                {
                    "name": "D#3",
                    "midi": 51,
                    "time": 149.20530049999903,
                    "velocity": 0.5590551181102362,
                    "duration": 0.09933774999998946
                },
                {
                    "name": "E2",
                    "midi": 40,
                    "time": 149.30463824999902,
                    "velocity": 0.5039370078740157,
                    "duration": 0.033112583333320345
                },
                {
                    "name": "G#2",
                    "midi": 44,
                    "time": 149.33775083333234,
                    "velocity": 0.5433070866141733,
                    "duration": 0.033112583333320345
                },
                {
                    "name": "B2",
                    "midi": 47,
                    "time": 149.37086341666566,
                    "velocity": 0.5826771653543307,
                    "duration": 0.033112583333320345
                },
                {
                    "name": "E3",
                    "midi": 52,
                    "time": 149.40397599999898,
                    "velocity": 0.6692913385826772,
                    "duration": 0.19867550000000733
                },
                {
                    "name": "E3",
                    "midi": 52,
                    "time": 149.60265149999898,
                    "velocity": 0.5748031496062992,
                    "duration": 0.09933774999998946
                },
                {
                    "name": "A2",
                    "midi": 45,
                    "time": 150.09934024999896,
                    "velocity": 0.5275590551181102,
                    "duration": 0.033112583333320345
                },
                {
                    "name": "C#3",
                    "midi": 49,
                    "time": 150.13245283333228,
                    "velocity": 0.5590551181102362,
                    "duration": 0.033112583333320345
                },
                {
                    "name": "E3",
                    "midi": 52,
                    "time": 150.1655654166656,
                    "velocity": 0.5984251968503937,
                    "duration": 0.033112583333320345
                },
                {
                    "name": "A3",
                    "midi": 57,
                    "time": 150.19867799999892,
                    "velocity": 0.6614173228346457,
                    "duration": 0.09933774999998946
                },
                {
                    "name": "A3",
                    "midi": 57,
                    "time": 150.3973534999989,
                    "velocity": 0.5433070866141733,
                    "duration": 0.09933774999998946
                },
                {
                    "name": "A3",
                    "midi": 57,
                    "time": 150.59602899999888,
                    "velocity": 0.5433070866141733,
                    "duration": 0.09933774999998946
                },
                {
                    "name": "A3",
                    "midi": 57,
                    "time": 150.79470449999886,
                    "velocity": 0.5433070866141733,
                    "duration": 0.09933774999998946
                },
                {
                    "name": "A2",
                    "midi": 45,
                    "time": 150.89404224999885,
                    "velocity": 0.48031496062992124,
                    "duration": 0.033112583333320345
                },
                {
                    "name": "C#3",
                    "midi": 49,
                    "time": 150.92715483333217,
                    "velocity": 0.5196850393700787,
                    "duration": 0.033112583333320345
                },
                {
                    "name": "E3",
                    "midi": 52,
                    "time": 150.9602674166655,
                    "velocity": 0.5669291338582677,
                    "duration": 0.033112583333320345
                },
                {
                    "name": "A3",
                    "midi": 57,
                    "time": 150.9933799999988,
                    "velocity": 0.6850393700787402,
                    "duration": 0.09933774999998946
                },
                {
                    "name": "A3",
                    "midi": 57,
                    "time": 151.1920554999988,
                    "velocity": 0.5039370078740157,
                    "duration": 0.09933774999998946
                },
                {
                    "name": "A3",
                    "midi": 57,
                    "time": 151.39073099999877,
                    "velocity": 0.5118110236220472,
                    "duration": 0.09933774999998946
                },
                {
                    "name": "A3",
                    "midi": 57,
                    "time": 151.58940649999874,
                    "velocity": 0.5275590551181102,
                    "duration": 0.09933774999998946
                },
                {
                    "name": "D2",
                    "midi": 38,
                    "time": 151.68874424999873,
                    "velocity": 0.5354330708661418,
                    "duration": 0.033112583333320345
                },
                {
                    "name": "F#2",
                    "midi": 42,
                    "time": 151.72185683333205,
                    "velocity": 0.5669291338582677,
                    "duration": 0.033112583333320345
                },
                {
                    "name": "A2",
                    "midi": 45,
                    "time": 151.75496941666538,
                    "velocity": 0.5984251968503937,
                    "duration": 0.033112583333320345
                },
                {
                    "name": "D3",
                    "midi": 50,
                    "time": 151.7880819999987,
                    "velocity": 0.6535433070866141,
                    "duration": 0.09933774999998946
                },
                {
                    "name": "D3",
                    "midi": 50,
                    "time": 151.98675749999867,
                    "velocity": 0.5433070866141733,
                    "duration": 0.09933774999998946
                },
                {
                    "name": "E2",
                    "midi": 40,
                    "time": 152.08609524999866,
                    "velocity": 0.5275590551181102,
                    "duration": 0.033112583333320345
                },
                {
                    "name": "G#2",
                    "midi": 44,
                    "time": 152.11920783333198,
                    "velocity": 0.5669291338582677,
                    "duration": 0.033112583333320345
                },
                {
                    "name": "B2",
                    "midi": 47,
                    "time": 152.1523204166653,
                    "velocity": 0.6141732283464567,
                    "duration": 0.033112583333320345
                },
                {
                    "name": "E3",
                    "midi": 52,
                    "time": 152.18543299999862,
                    "velocity": 0.6456692913385826,
                    "duration": 0.09933774999998946
                },
                {
                    "name": "E3",
                    "midi": 52,
                    "time": 152.3841084999986,
                    "velocity": 0.5590551181102362,
                    "duration": 0.09933774999998946
                },
                {
                    "name": "A2",
                    "midi": 45,
                    "time": 152.4834462499986,
                    "velocity": 0.48031496062992124,
                    "duration": 0.033112583333320345
                },
                {
                    "name": "C#3",
                    "midi": 49,
                    "time": 152.5165588333319,
                    "velocity": 0.5196850393700787,
                    "duration": 0.033112583333320345
                },
                {
                    "name": "E3",
                    "midi": 52,
                    "time": 152.54967141666523,
                    "velocity": 0.5669291338582677,
                    "duration": 0.033112583333320345
                },
                {
                    "name": "A3",
                    "midi": 57,
                    "time": 152.58278399999855,
                    "velocity": 0.6850393700787402,
                    "duration": 0.09933774999998946
                },
                {
                    "name": "A3",
                    "midi": 57,
                    "time": 152.78145949999853,
                    "velocity": 0.5039370078740157,
                    "duration": 0.09933774999998946
                },
                {
                    "name": "A3",
                    "midi": 57,
                    "time": 152.9801349999985,
                    "velocity": 0.5118110236220472,
                    "duration": 0.09933774999998946
                },
                {
                    "name": "A3",
                    "midi": 57,
                    "time": 153.1788104999985,
                    "velocity": 0.5039370078740157,
                    "duration": 0.09933774999998946
                },
                {
                    "name": "A2",
                    "midi": 45,
                    "time": 153.27814824999848,
                    "velocity": 0.48031496062992124,
                    "duration": 0.033112583333320345
                },
                {
                    "name": "C#3",
                    "midi": 49,
                    "time": 153.3112608333318,
                    "velocity": 0.5196850393700787,
                    "duration": 0.033112583333320345
                },
                {
                    "name": "E3",
                    "midi": 52,
                    "time": 153.34437341666512,
                    "velocity": 0.5669291338582677,
                    "duration": 0.033112583333320345
                },
                {
                    "name": "A3",
                    "midi": 57,
                    "time": 153.37748599999844,
                    "velocity": 0.6850393700787402,
                    "duration": 0.09933774999998946
                },
                {
                    "name": "A3",
                    "midi": 57,
                    "time": 153.57616149999842,
                    "velocity": 0.5354330708661418,
                    "duration": 0.09933774999998946
                },
                {
                    "name": "A3",
                    "midi": 57,
                    "time": 153.7748369999984,
                    "velocity": 0.5354330708661418,
                    "duration": 0.09933774999998946
                },
                {
                    "name": "A3",
                    "midi": 57,
                    "time": 153.97351249999838,
                    "velocity": 0.5354330708661418,
                    "duration": 0.09933774999998946
                },
                {
                    "name": "A2",
                    "midi": 45,
                    "time": 154.07285024999837,
                    "velocity": 0.48031496062992124,
                    "duration": 0.033112583333320345
                },
                {
                    "name": "C#3",
                    "midi": 49,
                    "time": 154.1059628333317,
                    "velocity": 0.5196850393700787,
                    "duration": 0.033112583333320345
                },
                {
                    "name": "E3",
                    "midi": 52,
                    "time": 154.139075416665,
                    "velocity": 0.5669291338582677,
                    "duration": 0.033112583333320345
                },
                {
                    "name": "A3",
                    "midi": 57,
                    "time": 154.17218799999833,
                    "velocity": 0.6850393700787402,
                    "duration": 0.09933774999998946
                },
                {
                    "name": "A3",
                    "midi": 57,
                    "time": 154.3708634999983,
                    "velocity": 0.5354330708661418,
                    "duration": 0.09933774999998946
                },
                {
                    "name": "A3",
                    "midi": 57,
                    "time": 154.5695389999983,
                    "velocity": 0.5354330708661418,
                    "duration": 0.09933774999998946
                },
                {
                    "name": "A3",
                    "midi": 57,
                    "time": 154.76821449999827,
                    "velocity": 0.5354330708661418,
                    "duration": 0.09933774999998946
                },
                {
                    "name": "A2",
                    "midi": 45,
                    "time": 154.86755224999825,
                    "velocity": 0.48031496062992124,
                    "duration": 0.033112583333320345
                },
                {
                    "name": "C#3",
                    "midi": 49,
                    "time": 154.90066483333158,
                    "velocity": 0.5196850393700787,
                    "duration": 0.033112583333320345
                },
                {
                    "name": "E3",
                    "midi": 52,
                    "time": 154.9337774166649,
                    "velocity": 0.5669291338582677,
                    "duration": 0.033112583333320345
                },
                {
                    "name": "A3",
                    "midi": 57,
                    "time": 154.96688999999822,
                    "velocity": 0.6850393700787402,
                    "duration": 0.09933774999998946
                },
                {
                    "name": "A3",
                    "midi": 57,
                    "time": 155.1655654999982,
                    "velocity": 0.5275590551181102,
                    "duration": 0.09933774999998946
                },
                {
                    "name": "A3",
                    "midi": 57,
                    "time": 155.36424099999817,
                    "velocity": 0.5275590551181102,
                    "duration": 0.09933774999998946
                },
                {
                    "name": "A3",
                    "midi": 57,
                    "time": 155.56291649999815,
                    "velocity": 0.5275590551181102,
                    "duration": 0.09933774999998946
                },
                {
                    "name": "D2",
                    "midi": 38,
                    "time": 155.66225424999814,
                    "velocity": 0.48031496062992124,
                    "duration": 0.033112583333320345
                },
                {
                    "name": "F#2",
                    "midi": 42,
                    "time": 155.69536683333146,
                    "velocity": 0.5196850393700787,
                    "duration": 0.033112583333320345
                },
                {
                    "name": "A2",
                    "midi": 45,
                    "time": 155.72847941666478,
                    "velocity": 0.5669291338582677,
                    "duration": 0.033112583333320345
                },
                {
                    "name": "D3",
                    "midi": 50,
                    "time": 155.7615919999981,
                    "velocity": 0.6850393700787402,
                    "duration": 0.09933774999998946
                },
                {
                    "name": "D3",
                    "midi": 50,
                    "time": 155.96026749999808,
                    "velocity": 0.5275590551181102,
                    "duration": 0.09933774999998946
                },
                {
                    "name": "D3",
                    "midi": 50,
                    "time": 156.15894299999806,
                    "velocity": 0.5275590551181102,
                    "duration": 0.09933774999998946
                },
                {
                    "name": "D3",
                    "midi": 50,
                    "time": 156.3518237979147,
                    "velocity": 0.5275590551181102,
                    "duration": 0.09933774999998946
                },
                {
                    "name": "A2",
                    "midi": 45,
                    "time": 156.45695624999803,
                    "velocity": 0.48031496062992124,
                    "duration": 0.033112583333320345
                },
                {
                    "name": "C#3",
                    "midi": 49,
                    "time": 156.49006883333135,
                    "velocity": 0.5196850393700787,
                    "duration": 0.033112583333320345
                },
                {
                    "name": "E3",
                    "midi": 52,
                    "time": 156.52318141666467,
                    "velocity": 0.5669291338582677,
                    "duration": 0.033112583333320345
                },
                {
                    "name": "A3",
                    "midi": 57,
                    "time": 156.556293999998,
                    "velocity": 0.6850393700787402,
                    "duration": 0.04966887500000894
                },
                {
                    "name": "A3",
                    "midi": 57,
                    "time": 156.754969499998,
                    "velocity": 0.5275590551181102,
                    "duration": 0.04966887500000894
                },
                {
                    "name": "A3",
                    "midi": 57,
                    "time": 156.953644999998,
                    "velocity": 0.5275590551181102,
                    "duration": 0.04966887500000894
                },
                {
                    "name": "A3",
                    "midi": 57,
                    "time": 157.152320499998,
                    "velocity": 0.5275590551181102,
                    "duration": 0.04966887500000894
                },
                {
                    "name": "E2",
                    "midi": 40,
                    "time": 157.25165824999803,
                    "velocity": 0.48031496062992124,
                    "duration": 0.033112583333320345
                },
                {
                    "name": "G#2",
                    "midi": 44,
                    "time": 157.28477083333135,
                    "velocity": 0.5196850393700787,
                    "duration": 0.033112583333320345
                },
                {
                    "name": "B2",
                    "midi": 47,
                    "time": 157.31788341666467,
                    "velocity": 0.5669291338582677,
                    "duration": 0.033112583333320345
                },
                {
                    "name": "E3",
                    "midi": 52,
                    "time": 157.350995999998,
                    "velocity": 0.6850393700787402,
                    "duration": 0.09933774999998946
                },
                {
                    "name": "E3",
                    "midi": 52,
                    "time": 157.54967149999797,
                    "velocity": 0.5196850393700787,
                    "duration": 0.09933774999998946
                },
                {
                    "name": "E3",
                    "midi": 52,
                    "time": 157.74834699999795,
                    "velocity": 0.5196850393700787,
                    "duration": 0.09933774999998946
                },
                {
                    "name": "E3",
                    "midi": 52,
                    "time": 157.94702249999793,
                    "velocity": 0.5196850393700787,
                    "duration": 0.09933774999998946
                },
                {
                    "name": "A2",
                    "midi": 45,
                    "time": 158.04636024999792,
                    "velocity": 0.48031496062992124,
                    "duration": 0.033112583333320345
                },
                {
                    "name": "C#3",
                    "midi": 49,
                    "time": 158.07947283333124,
                    "velocity": 0.5196850393700787,
                    "duration": 0.033112583333320345
                },
                {
                    "name": "E3",
                    "midi": 52,
                    "time": 158.11258541666456,
                    "velocity": 0.5669291338582677,
                    "duration": 0.033112583333320345
                },
                {
                    "name": "A3",
                    "midi": 57,
                    "time": 158.14569799999788,
                    "velocity": 0.6850393700787402,
                    "duration": 0.09933774999998946
                },
                {
                    "name": "A3",
                    "midi": 57,
                    "time": 158.34437349999786,
                    "velocity": 0.5354330708661418,
                    "duration": 0.09933774999998946
                },
                {
                    "name": "A3",
                    "midi": 57,
                    "time": 158.54304899999784,
                    "velocity": 0.5354330708661418,
                    "duration": 0.09933774999998946
                },
                {
                    "name": "A3",
                    "midi": 57,
                    "time": 158.74172449999782,
                    "velocity": 0.5354330708661418,
                    "duration": 0.09933774999998946
                },
                {
                    "name": "A2",
                    "midi": 45,
                    "time": 158.8410622499978,
                    "velocity": 0.48031496062992124,
                    "duration": 0.033112583333320345
                },
                {
                    "name": "C#3",
                    "midi": 49,
                    "time": 158.87417483333113,
                    "velocity": 0.5196850393700787,
                    "duration": 0.033112583333320345
                },
                {
                    "name": "E3",
                    "midi": 52,
                    "time": 158.90728741666445,
                    "velocity": 0.5669291338582677,
                    "duration": 0.033112583333320345
                },
                {
                    "name": "A3",
                    "midi": 57,
                    "time": 158.94039999999777,
                    "velocity": 0.6850393700787402,
                    "duration": 0.09933774999998946
                },
                {
                    "name": "A3",
                    "midi": 57,
                    "time": 159.13907549999774,
                    "velocity": 0.5196850393700787,
                    "duration": 0.09933774999998946
                },
                {
                    "name": "A3",
                    "midi": 57,
                    "time": 159.33775099999772,
                    "velocity": 0.5196850393700787,
                    "duration": 0.09933774999998946
                },
                {
                    "name": "A3",
                    "midi": 57,
                    "time": 159.5364264999977,
                    "velocity": 0.5196850393700787,
                    "duration": 0.09933774999998946
                },
                {
                    "name": "A2",
                    "midi": 45,
                    "time": 159.6357642499977,
                    "velocity": 0.48031496062992124,
                    "duration": 0.033112583333320345
                },
                {
                    "name": "C#3",
                    "midi": 49,
                    "time": 159.668876833331,
                    "velocity": 0.5196850393700787,
                    "duration": 0.033112583333320345
                },
                {
                    "name": "E3",
                    "midi": 52,
                    "time": 159.70198941666433,
                    "velocity": 0.5669291338582677,
                    "duration": 0.033112583333320345
                },
                {
                    "name": "A3",
                    "midi": 57,
                    "time": 159.73510199999765,
                    "velocity": 0.6850393700787402,
                    "duration": 0.09933774999998946
                },
                {
                    "name": "A3",
                    "midi": 57,
                    "time": 159.93377749999763,
                    "velocity": 0.5196850393700787,
                    "duration": 0.09933774999998946
                },
                {
                    "name": "A3",
                    "midi": 57,
                    "time": 160.1324529999976,
                    "velocity": 0.5196850393700787,
                    "duration": 0.09933774999998946
                },
                {
                    "name": "A3",
                    "midi": 57,
                    "time": 160.3311284999976,
                    "velocity": 0.5196850393700787,
                    "duration": 0.09933774999998946
                },
                {
                    "name": "D2",
                    "midi": 38,
                    "time": 160.43046624999758,
                    "velocity": 0.48031496062992124,
                    "duration": 0.033112583333320345
                },
                {
                    "name": "F#2",
                    "midi": 42,
                    "time": 160.4635788333309,
                    "velocity": 0.5196850393700787,
                    "duration": 0.033112583333320345
                },
                {
                    "name": "A2",
                    "midi": 45,
                    "time": 160.49669141666422,
                    "velocity": 0.5669291338582677,
                    "duration": 0.033112583333320345
                },
                {
                    "name": "D3",
                    "midi": 50,
                    "time": 160.52980399999754,
                    "velocity": 0.6850393700787402,
                    "duration": 0.09933774999998946
                },
                {
                    "name": "D3",
                    "midi": 50,
                    "time": 160.72847949999752,
                    "velocity": 0.5196850393700787,
                    "duration": 0.09933774999998946
                },
                {
                    "name": "D3",
                    "midi": 50,
                    "time": 160.9271549999975,
                    "velocity": 0.5196850393700787,
                    "duration": 0.09933774999998946
                },
                {
                    "name": "D3",
                    "midi": 50,
                    "time": 161.12003579791414,
                    "velocity": 0.5196850393700787,
                    "duration": 0.09933774999998946
                },
                {
                    "name": "A2",
                    "midi": 45,
                    "time": 161.22516824999747,
                    "velocity": 0.48031496062992124,
                    "duration": 0.033112583333320345
                },
                {
                    "name": "C#3",
                    "midi": 49,
                    "time": 161.2582808333308,
                    "velocity": 0.5196850393700787,
                    "duration": 0.033112583333320345
                },
                {
                    "name": "E3",
                    "midi": 52,
                    "time": 161.2913934166641,
                    "velocity": 0.5669291338582677,
                    "duration": 0.033112583333320345
                },
                {
                    "name": "A3",
                    "midi": 57,
                    "time": 161.32450599999743,
                    "velocity": 0.6850393700787402,
                    "duration": 0.09933774999998946
                },
                {
                    "name": "A3",
                    "midi": 57,
                    "time": 161.5231814999974,
                    "velocity": 0.5196850393700787,
                    "duration": 0.09933774999998946
                },
                {
                    "name": "A3",
                    "midi": 57,
                    "time": 161.72185699999739,
                    "velocity": 0.5196850393700787,
                    "duration": 0.09933774999998946
                },
                {
                    "name": "A3",
                    "midi": 57,
                    "time": 161.92053249999736,
                    "velocity": 0.5196850393700787,
                    "duration": 0.09933774999998946
                },
                {
                    "name": "E2",
                    "midi": 40,
                    "time": 162.01987024999735,
                    "velocity": 0.48031496062992124,
                    "duration": 0.033112583333320345
                },
                {
                    "name": "G#2",
                    "midi": 44,
                    "time": 162.05298283333067,
                    "velocity": 0.5196850393700787,
                    "duration": 0.033112583333320345
                },
                {
                    "name": "B2",
                    "midi": 47,
                    "time": 162.086095416664,
                    "velocity": 0.5669291338582677,
                    "duration": 0.033112583333320345
                },
                {
                    "name": "E3",
                    "midi": 52,
                    "time": 162.11920799999731,
                    "velocity": 0.6850393700787402,
                    "duration": 0.04966887500000894
                },
                {
                    "name": "E3",
                    "midi": 52,
                    "time": 162.31788349999732,
                    "velocity": 0.5196850393700787,
                    "duration": 0.04966887500000894
                },
                {
                    "name": "E3",
                    "midi": 52,
                    "time": 162.51655899999733,
                    "velocity": 0.5118110236220472,
                    "duration": 0.04966887500000894
                },
                {
                    "name": "E3",
                    "midi": 52,
                    "time": 162.71523449999734,
                    "velocity": 0.5118110236220472,
                    "duration": 0.04966887500000894
                },
                {
                    "name": "A3",
                    "midi": 57,
                    "time": 162.91390999999734,
                    "velocity": 0.5039370078740157,
                    "duration": 0.09933774999998946
                },
                {
                    "name": "E4",
                    "midi": 64,
                    "time": 163.01324774999733,
                    "velocity": 0.4251968503937008,
                    "duration": 0.09933774999998946
                },
                {
                    "name": "C#4",
                    "midi": 61,
                    "time": 163.11258549999732,
                    "velocity": 0.4251968503937008,
                    "duration": 0.09933774999998946
                },
                {
                    "name": "E4",
                    "midi": 64,
                    "time": 163.2119232499973,
                    "velocity": 0.4251968503937008,
                    "duration": 0.09933774999998946
                },
                {
                    "name": "A3",
                    "midi": 57,
                    "time": 163.3112609999973,
                    "velocity": 0.31496062992125984,
                    "duration": 0.09933774999998946
                },
                {
                    "name": "E4",
                    "midi": 64,
                    "time": 163.4105987499973,
                    "velocity": 0.2440944881889764,
                    "duration": 0.09933774999998946
                },
                {
                    "name": "C#4",
                    "midi": 61,
                    "time": 163.50993649999728,
                    "velocity": 0.2440944881889764,
                    "duration": 0.09933774999998946
                },
                {
                    "name": "E4",
                    "midi": 64,
                    "time": 163.60927424999727,
                    "velocity": 0.2440944881889764,
                    "duration": 0.09933774999998946
                },
                {
                    "name": "A3",
                    "midi": 57,
                    "time": 163.70861199999726,
                    "velocity": 0.31496062992125984,
                    "duration": 0.09933774999998946
                },
                {
                    "name": "E4",
                    "midi": 64,
                    "time": 163.80794974999725,
                    "velocity": 0.2440944881889764,
                    "duration": 0.09933774999998946
                },
                {
                    "name": "C#4",
                    "midi": 61,
                    "time": 163.90728749999724,
                    "velocity": 0.2440944881889764,
                    "duration": 0.09933774999998946
                },
                {
                    "name": "E4",
                    "midi": 64,
                    "time": 164.00662524999723,
                    "velocity": 0.2440944881889764,
                    "duration": 0.09933774999998946
                },
                {
                    "name": "A3",
                    "midi": 57,
                    "time": 164.10596299999722,
                    "velocity": 0.31496062992125984,
                    "duration": 0.09933774999998946
                },
                {
                    "name": "E4",
                    "midi": 64,
                    "time": 164.2053007499972,
                    "velocity": 0.2440944881889764,
                    "duration": 0.09933774999998946
                },
                {
                    "name": "C#4",
                    "midi": 61,
                    "time": 164.3046384999972,
                    "velocity": 0.2440944881889764,
                    "duration": 0.09933774999998946
                },
                {
                    "name": "E4",
                    "midi": 64,
                    "time": 164.40397624999719,
                    "velocity": 0.2440944881889764,
                    "duration": 0.09933774999998946
                },
                {
                    "name": "A3",
                    "midi": 57,
                    "time": 164.50331399999718,
                    "velocity": 0.31496062992125984,
                    "duration": 0.09933774999998946
                },
                {
                    "name": "E4",
                    "midi": 64,
                    "time": 164.60265174999716,
                    "velocity": 0.2440944881889764,
                    "duration": 0.09933774999998946
                },
                {
                    "name": "C#4",
                    "midi": 61,
                    "time": 164.70198949999715,
                    "velocity": 0.2440944881889764,
                    "duration": 0.09933774999998946
                },
                {
                    "name": "E4",
                    "midi": 64,
                    "time": 164.80132724999714,
                    "velocity": 0.2440944881889764,
                    "duration": 0.09933774999998946
                },
                {
                    "name": "A3",
                    "midi": 57,
                    "time": 164.90066499999713,
                    "velocity": 0.31496062992125984,
                    "duration": 0.09933774999998946
                },
                {
                    "name": "E4",
                    "midi": 64,
                    "time": 165.00000274999712,
                    "velocity": 0.2440944881889764,
                    "duration": 0.09933774999998946
                },
                {
                    "name": "C#4",
                    "midi": 61,
                    "time": 165.0993404999971,
                    "velocity": 0.2440944881889764,
                    "duration": 0.09933774999998946
                },
                {
                    "name": "E4",
                    "midi": 64,
                    "time": 165.1986782499971,
                    "velocity": 0.2440944881889764,
                    "duration": 0.09933774999998946
                },
                {
                    "name": "A3",
                    "midi": 57,
                    "time": 165.2980159999971,
                    "velocity": 0.31496062992125984,
                    "duration": 0.09933774999998946
                },
                {
                    "name": "E4",
                    "midi": 64,
                    "time": 165.39735374999708,
                    "velocity": 0.2440944881889764,
                    "duration": 0.09933774999998946
                },
                {
                    "name": "C#4",
                    "midi": 61,
                    "time": 165.49669149999707,
                    "velocity": 0.2440944881889764,
                    "duration": 0.09933774999998946
                },
                {
                    "name": "E4",
                    "midi": 64,
                    "time": 165.59602924999706,
                    "velocity": 0.2440944881889764,
                    "duration": 0.09933774999998946
                },
                {
                    "name": "A3",
                    "midi": 57,
                    "time": 165.69536699999705,
                    "velocity": 0.31496062992125984,
                    "duration": 0.09933774999998946
                },
                {
                    "name": "E4",
                    "midi": 64,
                    "time": 165.79470474999704,
                    "velocity": 0.2440944881889764,
                    "duration": 0.09933774999998946
                },
                {
                    "name": "C#4",
                    "midi": 61,
                    "time": 165.89404249999703,
                    "velocity": 0.2440944881889764,
                    "duration": 0.09933774999998946
                },
                {
                    "name": "E4",
                    "midi": 64,
                    "time": 165.99338024999702,
                    "velocity": 0.2440944881889764,
                    "duration": 0.09933774999998946
                },
                {
                    "name": "A3",
                    "midi": 57,
                    "time": 166.092717999997,
                    "velocity": 0.31496062992125984,
                    "duration": 0.09933774999998946
                },
                {
                    "name": "F#4",
                    "midi": 66,
                    "time": 166.192055749997,
                    "velocity": 0.2440944881889764,
                    "duration": 0.09933774999998946
                },
                {
                    "name": "D4",
                    "midi": 62,
                    "time": 166.29139349999699,
                    "velocity": 0.2440944881889764,
                    "duration": 0.09933774999998946
                },
                {
                    "name": "F#4",
                    "midi": 66,
                    "time": 166.39073124999697,
                    "velocity": 0.2440944881889764,
                    "duration": 0.09933774999998946
                },
                {
                    "name": "A3",
                    "midi": 57,
                    "time": 166.49006899999696,
                    "velocity": 0.31496062992125984,
                    "duration": 0.09933774999998946
                },
                {
                    "name": "F#4",
                    "midi": 66,
                    "time": 166.58940674999695,
                    "velocity": 0.2440944881889764,
                    "duration": 0.09933774999998946
                },
                {
                    "name": "D4",
                    "midi": 62,
                    "time": 166.68874449999694,
                    "velocity": 0.2440944881889764,
                    "duration": 0.09933774999998946
                },
                {
                    "name": "F#4",
                    "midi": 66,
                    "time": 166.78808224999693,
                    "velocity": 0.2440944881889764,
                    "duration": 0.09933774999998946
                },
                {
                    "name": "A3",
                    "midi": 57,
                    "time": 166.88741999999692,
                    "velocity": 0.31496062992125984,
                    "duration": 0.09933774999998946
                },
                {
                    "name": "E4",
                    "midi": 64,
                    "time": 166.9867577499969,
                    "velocity": 0.2440944881889764,
                    "duration": 0.09933774999998946
                },
                {
                    "name": "C#4",
                    "midi": 61,
                    "time": 167.0860954999969,
                    "velocity": 0.2440944881889764,
                    "duration": 0.09933774999998946
                },
                {
                    "name": "E4",
                    "midi": 64,
                    "time": 167.1854332499969,
                    "velocity": 0.2440944881889764,
                    "duration": 0.09933774999998946
                },
                {
                    "name": "A3",
                    "midi": 57,
                    "time": 167.28477099999688,
                    "velocity": 0.31496062992125984,
                    "duration": 0.09933774999998946
                },
                {
                    "name": "E4",
                    "midi": 64,
                    "time": 167.38410874999687,
                    "velocity": 0.2440944881889764,
                    "duration": 0.09933774999998946
                },
                {
                    "name": "C#4",
                    "midi": 61,
                    "time": 167.48344649999686,
                    "velocity": 0.2440944881889764,
                    "duration": 0.09933774999998946
                },
                {
                    "name": "E4",
                    "midi": 64,
                    "time": 167.58278424999685,
                    "velocity": 0.2440944881889764,
                    "duration": 0.09933774999998946
                },
                {
                    "name": "E3",
                    "midi": 52,
                    "time": 167.68212199999684,
                    "velocity": 0.31496062992125984,
                    "duration": 0.09933774999998946
                },
                {
                    "name": "E4",
                    "midi": 64,
                    "time": 167.78145974999683,
                    "velocity": 0.2440944881889764,
                    "duration": 0.09933774999998946
                },
                {
                    "name": "B3",
                    "midi": 59,
                    "time": 167.88079749999682,
                    "velocity": 0.2440944881889764,
                    "duration": 0.09933774999998946
                },
                {
                    "name": "E4",
                    "midi": 64,
                    "time": 167.9801352499968,
                    "velocity": 0.2440944881889764,
                    "duration": 0.09933774999998946
                },
                {
                    "name": "E3",
                    "midi": 52,
                    "time": 168.0794729999968,
                    "velocity": 0.31496062992125984,
                    "duration": 0.09933774999998946
                },
                {
                    "name": "E4",
                    "midi": 64,
                    "time": 168.17881074999679,
                    "velocity": 0.2440944881889764,
                    "duration": 0.09933774999998946
                },
                {
                    "name": "B3",
                    "midi": 59,
                    "time": 168.27814849999677,
                    "velocity": 0.2440944881889764,
                    "duration": 0.09933774999998946
                },
                {
                    "name": "E4",
                    "midi": 64,
                    "time": 168.37748624999676,
                    "velocity": 0.2440944881889764,
                    "duration": 0.04966887500000894
                },
                {
                    "name": "A2",
                    "midi": 45,
                    "time": 168.42715512499677,
                    "velocity": 0.48031496062992124,
                    "duration": 0.016556291666660172
                },
                {
                    "name": "C#3",
                    "midi": 49,
                    "time": 168.44371141666343,
                    "velocity": 0.48031496062992124,
                    "duration": 0.016556291666660172
                },
                {
                    "name": "E3",
                    "midi": 52,
                    "time": 168.4602677083301,
                    "velocity": 0.48031496062992124,
                    "duration": 0.016556291666660172
                },
                {
                    "name": "A3",
                    "midi": 57,
                    "time": 168.47682399999675,
                    "velocity": 0.6850393700787402,
                    "duration": 0.09933774999998946
                },
                {
                    "name": "A3",
                    "midi": 57,
                    "time": 168.67549949999673,
                    "velocity": 0.5275590551181102,
                    "duration": 0.09933774999998946
                },
                {
                    "name": "A3",
                    "midi": 57,
                    "time": 168.8741749999967,
                    "velocity": 0.5275590551181102,
                    "duration": 0.09933774999998946
                },
                {
                    "name": "A3",
                    "midi": 57,
                    "time": 169.0728504999967,
                    "velocity": 0.5039370078740157,
                    "duration": 0.09933774999998946
                },
                {
                    "name": "A2",
                    "midi": 45,
                    "time": 169.17218824999668,
                    "velocity": 0.48031496062992124,
                    "duration": 0.033112583333320345
                },
                {
                    "name": "C#3",
                    "midi": 49,
                    "time": 169.20530083333,
                    "velocity": 0.5196850393700787,
                    "duration": 0.033112583333320345
                },
                {
                    "name": "E3",
                    "midi": 52,
                    "time": 169.23841341666332,
                    "velocity": 0.5669291338582677,
                    "duration": 0.033112583333320345
                },
                {
                    "name": "A3",
                    "midi": 57,
                    "time": 169.27152599999664,
                    "velocity": 0.6850393700787402,
                    "duration": 0.09933774999998946
                },
                {
                    "name": "A3",
                    "midi": 57,
                    "time": 169.47020149999662,
                    "velocity": 0.5196850393700787,
                    "duration": 0.09933774999998946
                },
                {
                    "name": "A3",
                    "midi": 57,
                    "time": 169.6688769999966,
                    "velocity": 0.5196850393700787,
                    "duration": 0.09933774999998946
                },
                {
                    "name": "A3",
                    "midi": 57,
                    "time": 169.86755249999658,
                    "velocity": 0.5196850393700787,
                    "duration": 0.09933774999998946
                },
                {
                    "name": "A2",
                    "midi": 45,
                    "time": 169.96689024999657,
                    "velocity": 0.48031496062992124,
                    "duration": 0.033112583333320345
                },
                {
                    "name": "C#3",
                    "midi": 49,
                    "time": 170.0000028333299,
                    "velocity": 0.5196850393700787,
                    "duration": 0.033112583333320345
                },
                {
                    "name": "E3",
                    "midi": 52,
                    "time": 170.0331154166632,
                    "velocity": 0.5669291338582677,
                    "duration": 0.033112583333320345
                },
                {
                    "name": "A3",
                    "midi": 57,
                    "time": 170.06622799999653,
                    "velocity": 0.6850393700787402,
                    "duration": 0.09933774999998946
                },
                {
                    "name": "A3",
                    "midi": 57,
                    "time": 170.2649034999965,
                    "velocity": 0.5275590551181102,
                    "duration": 0.09933774999998946
                },
                {
                    "name": "A3",
                    "midi": 57,
                    "time": 170.46357899999649,
                    "velocity": 0.5275590551181102,
                    "duration": 0.09933774999998946
                },
                {
                    "name": "A3",
                    "midi": 57,
                    "time": 170.66225449999646,
                    "velocity": 0.5275590551181102,
                    "duration": 0.09933774999998946
                },
                {
                    "name": "D2",
                    "midi": 38,
                    "time": 170.76159224999645,
                    "velocity": 0.48031496062992124,
                    "duration": 0.033112583333320345
                },
                {
                    "name": "F#2",
                    "midi": 42,
                    "time": 170.79470483332977,
                    "velocity": 0.5196850393700787,
                    "duration": 0.033112583333320345
                },
                {
                    "name": "A2",
                    "midi": 45,
                    "time": 170.8278174166631,
                    "velocity": 0.5669291338582677,
                    "duration": 0.033112583333320345
                },
                {
                    "name": "D3",
                    "midi": 50,
                    "time": 170.86092999999642,
                    "velocity": 0.6850393700787402,
                    "duration": 0.09933774999998946
                },
                {
                    "name": "D3",
                    "midi": 50,
                    "time": 171.0596054999964,
                    "velocity": 0.5354330708661418,
                    "duration": 0.09933774999998946
                },
                {
                    "name": "D3",
                    "midi": 50,
                    "time": 171.25828099999637,
                    "velocity": 0.5354330708661418,
                    "duration": 0.09933774999998946
                },
                {
                    "name": "D3",
                    "midi": 50,
                    "time": 171.45116179791302,
                    "velocity": 0.5354330708661418,
                    "duration": 0.09933774999998946
                },
                {
                    "name": "A2",
                    "midi": 45,
                    "time": 171.55629424999634,
                    "velocity": 0.48031496062992124,
                    "duration": 0.033112583333320345
                },
                {
                    "name": "C#3",
                    "midi": 49,
                    "time": 171.58940683332966,
                    "velocity": 0.5196850393700787,
                    "duration": 0.033112583333320345
                },
                {
                    "name": "E3",
                    "midi": 52,
                    "time": 171.62251941666298,
                    "velocity": 0.5669291338582677,
                    "duration": 0.033112583333320345
                },
                {
                    "name": "A3",
                    "midi": 57,
                    "time": 171.6556319999963,
                    "velocity": 0.6850393700787402,
                    "duration": 0.09933774999998946
                },
                {
                    "name": "A3",
                    "midi": 57,
                    "time": 171.85430749999628,
                    "velocity": 0.5275590551181102,
                    "duration": 0.09933774999998946
                },
                {
                    "name": "A3",
                    "midi": 57,
                    "time": 172.05298299999626,
                    "velocity": 0.5275590551181102,
                    "duration": 0.09933774999998946
                },
                {
                    "name": "A3",
                    "midi": 57,
                    "time": 172.25165849999624,
                    "velocity": 0.5275590551181102,
                    "duration": 0.09933774999998946
                },
                {
                    "name": "E2",
                    "midi": 40,
                    "time": 172.35099624999623,
                    "velocity": 0.48031496062992124,
                    "duration": 0.033112583333320345
                },
                {
                    "name": "G#2",
                    "midi": 44,
                    "time": 172.38410883332955,
                    "velocity": 0.5196850393700787,
                    "duration": 0.033112583333320345
                },
                {
                    "name": "B2",
                    "midi": 47,
                    "time": 172.41722141666287,
                    "velocity": 0.5669291338582677,
                    "duration": 0.033112583333320345
                },
                {
                    "name": "E3",
                    "midi": 52,
                    "time": 172.4503339999962,
                    "velocity": 0.6850393700787402,
                    "duration": 0.04966887500000894
                },
                {
                    "name": "E3",
                    "midi": 52,
                    "time": 172.6490094999962,
                    "velocity": 0.5275590551181102,
                    "duration": 0.04966887500000894
                },
                {
                    "name": "E3",
                    "midi": 52,
                    "time": 172.8476849999962,
                    "velocity": 0.5275590551181102,
                    "duration": 0.04966887500000894
                },
                {
                    "name": "E3",
                    "midi": 52,
                    "time": 173.0463604999962,
                    "velocity": 0.5275590551181102,
                    "duration": 0.04966887500000894
                },
                {
                    "name": "A2",
                    "midi": 45,
                    "time": 173.14569824999623,
                    "velocity": 0.48031496062992124,
                    "duration": 0.033112583333320345
                },
                {
                    "name": "C#3",
                    "midi": 49,
                    "time": 173.17881083332955,
                    "velocity": 0.5196850393700787,
                    "duration": 0.033112583333320345
                },
                {
                    "name": "E3",
                    "midi": 52,
                    "time": 173.21192341666287,
                    "velocity": 0.5669291338582677,
                    "duration": 0.033112583333320345
                },
                {
                    "name": "A3",
                    "midi": 57,
                    "time": 173.2450359999962,
                    "velocity": 0.6850393700787402,
                    "duration": 0.09933774999998946
                },
                {
                    "name": "A3",
                    "midi": 57,
                    "time": 173.44371149999617,
                    "velocity": 0.5275590551181102,
                    "duration": 0.09933774999998946
                },
                {
                    "name": "A3",
                    "midi": 57,
                    "time": 173.64238699999615,
                    "velocity": 0.5275590551181102,
                    "duration": 0.09933774999998946
                },
                {
                    "name": "A3",
                    "midi": 57,
                    "time": 173.84106249999613,
                    "velocity": 0.5275590551181102,
                    "duration": 0.09933774999998946
                },
                {
                    "name": "A2",
                    "midi": 45,
                    "time": 173.94040024999612,
                    "velocity": 0.48031496062992124,
                    "duration": 0.033112583333320345
                },
                {
                    "name": "C#3",
                    "midi": 49,
                    "time": 173.97351283332944,
                    "velocity": 0.5196850393700787,
                    "duration": 0.033112583333320345
                },
                {
                    "name": "E3",
                    "midi": 52,
                    "time": 174.00662541666276,
                    "velocity": 0.5669291338582677,
                    "duration": 0.033112583333320345
                },
                {
                    "name": "A3",
                    "midi": 57,
                    "time": 174.03973799999608,
                    "velocity": 0.6850393700787402,
                    "duration": 0.09933774999998946
                },
                {
                    "name": "A3",
                    "midi": 57,
                    "time": 174.23841349999606,
                    "velocity": 0.5196850393700787,
                    "duration": 0.09933774999998946
                },
                {
                    "name": "A3",
                    "midi": 57,
                    "time": 174.43708899999604,
                    "velocity": 0.5196850393700787,
                    "duration": 0.09933774999998946
                },
                {
                    "name": "A3",
                    "midi": 57,
                    "time": 174.63576449999601,
                    "velocity": 0.5196850393700787,
                    "duration": 0.09933774999998946
                },
                {
                    "name": "A2",
                    "midi": 45,
                    "time": 174.735102249996,
                    "velocity": 0.48031496062992124,
                    "duration": 0.033112583333320345
                },
                {
                    "name": "C#3",
                    "midi": 49,
                    "time": 174.76821483332932,
                    "velocity": 0.5196850393700787,
                    "duration": 0.033112583333320345
                },
                {
                    "name": "E3",
                    "midi": 52,
                    "time": 174.80132741666264,
                    "velocity": 0.5669291338582677,
                    "duration": 0.033112583333320345
                },
                {
                    "name": "A3",
                    "midi": 57,
                    "time": 174.83443999999596,
                    "velocity": 0.6850393700787402,
                    "duration": 0.09933774999998946
                },
                {
                    "name": "A3",
                    "midi": 57,
                    "time": 175.03311549999594,
                    "velocity": 0.5275590551181102,
                    "duration": 0.09933774999998946
                },
                {
                    "name": "A3",
                    "midi": 57,
                    "time": 175.23179099999592,
                    "velocity": 0.5275590551181102,
                    "duration": 0.09933774999998946
                },
                {
                    "name": "A3",
                    "midi": 57,
                    "time": 175.4304664999959,
                    "velocity": 0.5275590551181102,
                    "duration": 0.09933774999998946
                },
                {
                    "name": "A2",
                    "midi": 45,
                    "time": 175.5298042499959,
                    "velocity": 0.48031496062992124,
                    "duration": 0.033112583333320345
                },
                {
                    "name": "C#3",
                    "midi": 49,
                    "time": 175.5629168333292,
                    "velocity": 0.5196850393700787,
                    "duration": 0.033112583333320345
                },
                {
                    "name": "E3",
                    "midi": 52,
                    "time": 175.59602941666253,
                    "velocity": 0.5669291338582677,
                    "duration": 0.033112583333320345
                },
                {
                    "name": "A3",
                    "midi": 57,
                    "time": 175.62914199999585,
                    "velocity": 0.7480314960629921,
                    "duration": 0.09933774999998946
                },
                {
                    "name": "A3",
                    "midi": 57,
                    "time": 175.82781749999583,
                    "velocity": 0.5511811023622047,
                    "duration": 0.09933774999998946
                },
                {
                    "name": "A2",
                    "midi": 45,
                    "time": 175.92715524999582,
                    "velocity": 0.5275590551181102,
                    "duration": 0.033112583333320345
                },
                {
                    "name": "C#3",
                    "midi": 49,
                    "time": 175.96026783332914,
                    "velocity": 0.5669291338582677,
                    "duration": 0.033112583333320345
                },
                {
                    "name": "E3",
                    "midi": 52,
                    "time": 175.99338041666246,
                    "velocity": 0.6220472440944882,
                    "duration": 0.033112583333320345
                },
                {
                    "name": "A3",
                    "midi": 57,
                    "time": 176.02649299999578,
                    "velocity": 0.7480314960629921,
                    "duration": 0.09933774999998946
                },
                {
                    "name": "A3",
                    "midi": 57,
                    "time": 176.22516849999576,
                    "velocity": 0.5511811023622047,
                    "duration": 0.09933774999998946
                },
                {
                    "name": "A2",
                    "midi": 45,
                    "time": 176.42384399999574,
                    "velocity": 0.6929133858267716,
                    "duration": 0.39735099999998624
                },
                {
                    "name": "A3",
                    "midi": 57,
                    "time": 176.82119499999573,
                    "velocity": 0.6929133858267716,
                    "duration": 0.39735099999998624
                },
                {
                    "name": "A2",
                    "midi": 45,
                    "time": 177.2185459999957,
                    "velocity": 0.5826771653543307,
                    "duration": 0.39735099999998624
                },
                {
                    "name": "C#3",
                    "midi": 49,
                    "time": 177.2185459999957,
                    "velocity": 0.5826771653543307,
                    "duration": 0.39735099999998624
                },
                {
                    "name": "E3",
                    "midi": 52,
                    "time": 177.2185459999957,
                    "velocity": 0.5826771653543307,
                    "duration": 0.39735099999998624
                },
                {
                    "name": "A3",
                    "midi": 57,
                    "time": 177.2185459999957,
                    "velocity": 0.6929133858267716,
                    "duration": 0.39735099999998624
                }
            ],
            "controlChanges": {
                "7": [
                    {
                        "number": 7,
                        "time": 0,
                        "value": 0.7874015748031497
                    }
                ],
                "10": [
                    {
                        "number": 10,
                        "time": 0,
                        "value": 0.5039370078740157
                    }
                ]
            },
            "id": 2,
            "name": "Piano left",
            "instrumentNumber": 0,
            "instrument": "acoustic grand piano",
            "instrumentFamily": "piano",
            "channelNumber": 0,
            "isPercussion": false
        },
        {
            "startTime": 0,
            "duration": 0,
            "length": 0,
            "notes": [],
            "controlChanges": {
                "64": [
                    {
                        "number": 64,
                        "time": 0.8650662395833334,
                        "value": 1
                    },
                    {
                        "number": 64,
                        "time": 1.0016556458333334,
                        "value": 0
                    },
                    {
                        "number": 64,
                        "time": 1.2740066437500002,
                        "value": 1
                    },
                    {
                        "number": 64,
                        "time": 1.589404,
                        "value": 0
                    },
                    {
                        "number": 64,
                        "time": 1.65149009375,
                        "value": 1
                    },
                    {
                        "number": 64,
                        "time": 1.7963576458333335,
                        "value": 0
                    },
                    {
                        "number": 64,
                        "time": 2.04387420625,
                        "value": 1
                    },
                    {
                        "number": 64,
                        "time": 2.384106,
                        "value": 0
                    },
                    {
                        "number": 64,
                        "time": 2.460264941666667,
                        "value": 1
                    },
                    {
                        "number": 64,
                        "time": 2.781457,
                        "value": 0
                    },
                    {
                        "number": 64,
                        "time": 2.82864243125,
                        "value": 1
                    },
                    {
                        "number": 64,
                        "time": 3.178808,
                        "value": 0
                    },
                    {
                        "number": 64,
                        "time": 3.220198729166667,
                        "value": 1
                    },
                    {
                        "number": 64,
                        "time": 3.3857616458333335,
                        "value": 0
                    },
                    {
                        "number": 64,
                        "time": 7.222682239583333,
                        "value": 1
                    },
                    {
                        "number": 64,
                        "time": 7.359271645833333,
                        "value": 0
                    },
                    {
                        "number": 64,
                        "time": 7.63162264375,
                        "value": 1
                    },
                    {
                        "number": 64,
                        "time": 7.94702,
                        "value": 0
                    },
                    {
                        "number": 64,
                        "time": 8.00910609375,
                        "value": 1
                    },
                    {
                        "number": 64,
                        "time": 8.153973645833334,
                        "value": 0
                    },
                    {
                        "number": 64,
                        "time": 8.401490206250001,
                        "value": 1
                    },
                    {
                        "number": 64,
                        "time": 8.741722000000001,
                        "value": 0
                    },
                    {
                        "number": 64,
                        "time": 8.817880941666667,
                        "value": 1
                    },
                    {
                        "number": 64,
                        "time": 9.139073,
                        "value": 0
                    },
                    {
                        "number": 64,
                        "time": 9.18625843125,
                        "value": 1
                    },
                    {
                        "number": 64,
                        "time": 9.536424,
                        "value": 0
                    },
                    {
                        "number": 64,
                        "time": 9.577814729166667,
                        "value": 1
                    },
                    {
                        "number": 64,
                        "time": 9.743377645833334,
                        "value": 0
                    },
                    {
                        "number": 64,
                        "time": 14.036424075000001,
                        "value": 1
                    },
                    {
                        "number": 64,
                        "time": 14.308775072916667,
                        "value": 0
                    },
                    {
                        "number": 64,
                        "time": 14.409768452083334,
                        "value": 1
                    },
                    {
                        "number": 64,
                        "time": 14.701987,
                        "value": 0
                    },
                    {
                        "number": 64,
                        "time": 15.625828075000001,
                        "value": 1
                    },
                    {
                        "number": 64,
                        "time": 15.898179072916667,
                        "value": 0
                    },
                    {
                        "number": 64,
                        "time": 15.999172452083334,
                        "value": 1
                    },
                    {
                        "number": 64,
                        "time": 16.291391,
                        "value": 0
                    },
                    {
                        "number": 64,
                        "time": 17.215232075,
                        "value": 1
                    },
                    {
                        "number": 64,
                        "time": 17.487583072916667,
                        "value": 0
                    },
                    {
                        "number": 64,
                        "time": 17.588576452083334,
                        "value": 1
                    },
                    {
                        "number": 64,
                        "time": 17.880795,
                        "value": 0
                    },
                    {
                        "number": 64,
                        "time": 18.804636074999998,
                        "value": 1
                    },
                    {
                        "number": 64,
                        "time": 19.076987072916666,
                        "value": 0
                    },
                    {
                        "number": 64,
                        "time": 19.177980452083332,
                        "value": 1
                    },
                    {
                        "number": 64,
                        "time": 19.470198999999997,
                        "value": 0
                    },
                    {
                        "number": 64,
                        "time": 19.937914239583332,
                        "value": 1
                    },
                    {
                        "number": 64,
                        "time": 20.07450364583333,
                        "value": 0
                    },
                    {
                        "number": 64,
                        "time": 20.34685464375,
                        "value": 1
                    },
                    {
                        "number": 64,
                        "time": 20.662252,
                        "value": 0
                    },
                    {
                        "number": 64,
                        "time": 20.72433809375,
                        "value": 1
                    },
                    {
                        "number": 64,
                        "time": 20.869205645833333,
                        "value": 0
                    },
                    {
                        "number": 64,
                        "time": 21.11672220625,
                        "value": 1
                    },
                    {
                        "number": 64,
                        "time": 21.456954,
                        "value": 0
                    },
                    {
                        "number": 64,
                        "time": 21.533112941666666,
                        "value": 1
                    },
                    {
                        "number": 64,
                        "time": 21.854305,
                        "value": 0
                    },
                    {
                        "number": 64,
                        "time": 21.90149043125,
                        "value": 1
                    },
                    {
                        "number": 64,
                        "time": 22.251656,
                        "value": 0
                    },
                    {
                        "number": 64,
                        "time": 22.29304672916667,
                        "value": 1
                    },
                    {
                        "number": 64,
                        "time": 22.458609645833334,
                        "value": 0
                    },
                    {
                        "number": 64,
                        "time": 24.70198716666667,
                        "value": 1
                    },
                    {
                        "number": 64,
                        "time": 25.04221896041667,
                        "value": 0
                    },
                    {
                        "number": 64,
                        "time": 25.10927194166667,
                        "value": 1
                    },
                    {
                        "number": 64,
                        "time": 25.430464000000004,
                        "value": 0
                    },
                    {
                        "number": 64,
                        "time": 26.751656075000003,
                        "value": 1
                    },
                    {
                        "number": 64,
                        "time": 27.02400707291667,
                        "value": 0
                    },
                    {
                        "number": 64,
                        "time": 27.125000452083338,
                        "value": 1
                    },
                    {
                        "number": 64,
                        "time": 27.417219000000003,
                        "value": 0
                    },
                    {
                        "number": 64,
                        "time": 28.341060075,
                        "value": 1
                    },
                    {
                        "number": 64,
                        "time": 28.61341107291667,
                        "value": 0
                    },
                    {
                        "number": 64,
                        "time": 28.714404452083336,
                        "value": 1
                    },
                    {
                        "number": 64,
                        "time": 29.006623,
                        "value": 0
                    },
                    {
                        "number": 64,
                        "time": 29.930464075,
                        "value": 1
                    },
                    {
                        "number": 64,
                        "time": 30.202815072916668,
                        "value": 0
                    },
                    {
                        "number": 64,
                        "time": 30.303808452083334,
                        "value": 1
                    },
                    {
                        "number": 64,
                        "time": 30.596027,
                        "value": 0
                    },
                    {
                        "number": 64,
                        "time": 31.519868074999998,
                        "value": 1
                    },
                    {
                        "number": 64,
                        "time": 31.792219072916666,
                        "value": 0
                    },
                    {
                        "number": 64,
                        "time": 31.893212452083333,
                        "value": 1
                    },
                    {
                        "number": 64,
                        "time": 32.185431,
                        "value": 0
                    },
                    {
                        "number": 64,
                        "time": 32.653146239583336,
                        "value": 1
                    },
                    {
                        "number": 64,
                        "time": 32.78973564583334,
                        "value": 0
                    },
                    {
                        "number": 64,
                        "time": 33.06208664375001,
                        "value": 1
                    },
                    {
                        "number": 64,
                        "time": 33.37748400000001,
                        "value": 0
                    },
                    {
                        "number": 64,
                        "time": 33.43957009375001,
                        "value": 1
                    },
                    {
                        "number": 64,
                        "time": 33.58443764583334,
                        "value": 0
                    },
                    {
                        "number": 64,
                        "time": 33.83195420625,
                        "value": 1
                    },
                    {
                        "number": 64,
                        "time": 34.172186,
                        "value": 0
                    },
                    {
                        "number": 64,
                        "time": 34.24834494166667,
                        "value": 1
                    },
                    {
                        "number": 64,
                        "time": 34.569537000000004,
                        "value": 0
                    },
                    {
                        "number": 64,
                        "time": 34.616722431250004,
                        "value": 1
                    },
                    {
                        "number": 64,
                        "time": 34.966888000000004,
                        "value": 0
                    },
                    {
                        "number": 64,
                        "time": 35.00827872916667,
                        "value": 1
                    },
                    {
                        "number": 64,
                        "time": 35.173841645833335,
                        "value": 0
                    },
                    {
                        "number": 64,
                        "time": 37.41721916666667,
                        "value": 1
                    },
                    {
                        "number": 64,
                        "time": 37.75745096041667,
                        "value": 0
                    },
                    {
                        "number": 64,
                        "time": 37.82450394166667,
                        "value": 1
                    },
                    {
                        "number": 64,
                        "time": 38.145696,
                        "value": 0
                    },
                    {
                        "number": 64,
                        "time": 38.876656277083335,
                        "value": 1
                    },
                    {
                        "number": 64,
                        "time": 39.14735164583333,
                        "value": 0
                    },
                    {
                        "number": 64,
                        "time": 39.64735165416666,
                        "value": 1
                    },
                    {
                        "number": 64,
                        "time": 39.942053645833326,
                        "value": 0
                    },
                    {
                        "number": 64,
                        "time": 40.451159614583325,
                        "value": 1
                    },
                    {
                        "number": 64,
                        "time": 40.74006690416666,
                        "value": 0
                    },
                    {
                        "number": 64,
                        "time": 40.95778213958333,
                        "value": 1
                    },
                    {
                        "number": 64,
                        "time": 41.135762275,
                        "value": 0
                    },
                    {
                        "number": 64,
                        "time": 41.24172254166666,
                        "value": 1
                    },
                    {
                        "number": 64,
                        "time": 41.61092784583333,
                        "value": 0
                    },
                    {
                        "number": 64,
                        "time": 42.03725235625,
                        "value": 1
                    },
                    {
                        "number": 64,
                        "time": 42.326159645833336,
                        "value": 0
                    },
                    {
                        "number": 64,
                        "time": 42.80629210416667,
                        "value": 1
                    },
                    {
                        "number": 64,
                        "time": 43.12086164583334,
                        "value": 0
                    },
                    {
                        "number": 64,
                        "time": 43.63245105833334,
                        "value": 1
                    },
                    {
                        "number": 64,
                        "time": 43.91887490416667,
                        "value": 0
                    },
                    {
                        "number": 64,
                        "time": 44.036424575000005,
                        "value": 1
                    },
                    {
                        "number": 64,
                        "time": 44.31457027500001,
                        "value": 0
                    },
                    {
                        "number": 64,
                        "time": 44.50331200000001,
                        "value": 1
                    },
                    {
                        "number": 64,
                        "time": 44.78973584583334,
                        "value": 0
                    },
                    {
                        "number": 64,
                        "time": 45.20447095208334,
                        "value": 1
                    },
                    {
                        "number": 64,
                        "time": 45.50496764583334,
                        "value": 0
                    },
                    {
                        "number": 64,
                        "time": 46.010762356250005,
                        "value": 1
                    },
                    {
                        "number": 64,
                        "time": 46.29966964583334,
                        "value": 0
                    },
                    {
                        "number": 64,
                        "time": 46.887418000000004,
                        "value": 1
                    },
                    {
                        "number": 64,
                        "time": 47.09768290416667,
                        "value": 0
                    },
                    {
                        "number": 64,
                        "time": 47.31539813958334,
                        "value": 1
                    },
                    {
                        "number": 64,
                        "time": 47.493378275000005,
                        "value": 0
                    },
                    {
                        "number": 64,
                        "time": 47.682120000000005,
                        "value": 1
                    },
                    {
                        "number": 64,
                        "time": 47.96854384583334,
                        "value": 0
                    },
                    {
                        "number": 64,
                        "time": 48.409769018750005,
                        "value": 1
                    },
                    {
                        "number": 64,
                        "time": 48.683775645833336,
                        "value": 0
                    },
                    {
                        "number": 64,
                        "time": 49.183775654166666,
                        "value": 1
                    },
                    {
                        "number": 64,
                        "time": 49.47847764583333,
                        "value": 0
                    },
                    {
                        "number": 64,
                        "time": 49.97847765416666,
                        "value": 1
                    },
                    {
                        "number": 64,
                        "time": 50.27649090416666,
                        "value": 0
                    },
                    {
                        "number": 64,
                        "time": 50.41142468124999,
                        "value": 1
                    },
                    {
                        "number": 64,
                        "time": 50.67218627499999,
                        "value": 0
                    },
                    {
                        "number": 64,
                        "time": 50.86092799999999,
                        "value": 1
                    },
                    {
                        "number": 64,
                        "time": 51.14735184583332,
                        "value": 0
                    },
                    {
                        "number": 64,
                        "time": 82.69039872916666,
                        "value": 1
                    },
                    {
                        "number": 64,
                        "time": 82.87086230833333,
                        "value": 0
                    },
                    {
                        "number": 64,
                        "time": 89.73427301875,
                        "value": 1
                    },
                    {
                        "number": 64,
                        "time": 90.00827964583334,
                        "value": 0
                    },
                    {
                        "number": 64,
                        "time": 90.51159091250001,
                        "value": 1
                    },
                    {
                        "number": 64,
                        "time": 90.80298164583334,
                        "value": 0
                    },
                    {
                        "number": 64,
                        "time": 91.39073,
                        "value": 1
                    },
                    {
                        "number": 64,
                        "time": 91.60099490416667,
                        "value": 0
                    },
                    {
                        "number": 64,
                        "time": 91.81871013958333,
                        "value": 1
                    },
                    {
                        "number": 64,
                        "time": 91.99669027499999,
                        "value": 0
                    },
                    {
                        "number": 64,
                        "time": 92.18543199999999,
                        "value": 1
                    },
                    {
                        "number": 64,
                        "time": 92.47185584583333,
                        "value": 0
                    },
                    {
                        "number": 64,
                        "time": 92.91639227708333,
                        "value": 1
                    },
                    {
                        "number": 64,
                        "time": 93.18708764583333,
                        "value": 0
                    },
                    {
                        "number": 64,
                        "time": 93.68708765416666,
                        "value": 1
                    },
                    {
                        "number": 64,
                        "time": 93.98178964583333,
                        "value": 0
                    },
                    {
                        "number": 64,
                        "time": 94.49669031666666,
                        "value": 1
                    },
                    {
                        "number": 64,
                        "time": 94.77980290416666,
                        "value": 0
                    },
                    {
                        "number": 64,
                        "time": 94.89073005833332,
                        "value": 1
                    },
                    {
                        "number": 64,
                        "time": 95.17549827499998,
                        "value": 0
                    },
                    {
                        "number": 64,
                        "time": 95.36423999999998,
                        "value": 1
                    },
                    {
                        "number": 64,
                        "time": 95.65066384583332,
                        "value": 0
                    },
                    {
                        "number": 64,
                        "time": 96.08940557499999,
                        "value": 1
                    },
                    {
                        "number": 64,
                        "time": 96.36589564583332,
                        "value": 0
                    },
                    {
                        "number": 64,
                        "time": 96.86589565416665,
                        "value": 1
                    },
                    {
                        "number": 64,
                        "time": 97.16059764583332,
                        "value": 0
                    },
                    {
                        "number": 64,
                        "time": 97.67549831666665,
                        "value": 1
                    },
                    {
                        "number": 64,
                        "time": 97.95861090416665,
                        "value": 0
                    },
                    {
                        "number": 64,
                        "time": 98.17632613958331,
                        "value": 1
                    },
                    {
                        "number": 64,
                        "time": 98.35430627499997,
                        "value": 0
                    },
                    {
                        "number": 64,
                        "time": 98.54304799999997,
                        "value": 1
                    },
                    {
                        "number": 64,
                        "time": 98.82947184583331,
                        "value": 0
                    },
                    {
                        "number": 64,
                        "time": 99.25910761458331,
                        "value": 1
                    },
                    {
                        "number": 64,
                        "time": 99.54470364583331,
                        "value": 0
                    },
                    {
                        "number": 64,
                        "time": 100.05049835624997,
                        "value": 1
                    },
                    {
                        "number": 64,
                        "time": 100.33940564583331,
                        "value": 0
                    },
                    {
                        "number": 64,
                        "time": 100.86341227708331,
                        "value": 1
                    },
                    {
                        "number": 64,
                        "time": 101.13741890416665,
                        "value": 0
                    },
                    {
                        "number": 64,
                        "time": 101.24255135624999,
                        "value": 1
                    },
                    {
                        "number": 64,
                        "time": 101.53311427499999,
                        "value": 0
                    },
                    {
                        "number": 64,
                        "time": 101.72185599999999,
                        "value": 1
                    },
                    {
                        "number": 64,
                        "time": 102.00827984583333,
                        "value": 0
                    },
                    {
                        "number": 64,
                        "time": 102.58692223958333,
                        "value": 1
                    },
                    {
                        "number": 64,
                        "time": 102.72351164583333,
                        "value": 0
                    },
                    {
                        "number": 64,
                        "time": 102.99586264374999,
                        "value": 1
                    },
                    {
                        "number": 64,
                        "time": 103.31125999999999,
                        "value": 0
                    },
                    {
                        "number": 64,
                        "time": 103.37334609374999,
                        "value": 1
                    },
                    {
                        "number": 64,
                        "time": 103.51821364583331,
                        "value": 0
                    },
                    {
                        "number": 64,
                        "time": 103.76573020624998,
                        "value": 1
                    },
                    {
                        "number": 64,
                        "time": 104.10596199999998,
                        "value": 0
                    },
                    {
                        "number": 64,
                        "time": 104.18212094166664,
                        "value": 1
                    },
                    {
                        "number": 64,
                        "time": 104.50331299999998,
                        "value": 0
                    },
                    {
                        "number": 64,
                        "time": 104.55049843124998,
                        "value": 1
                    },
                    {
                        "number": 64,
                        "time": 104.90066399999998,
                        "value": 0
                    },
                    {
                        "number": 64,
                        "time": 104.94205472916664,
                        "value": 1
                    },
                    {
                        "number": 64,
                        "time": 105.10761764583332,
                        "value": 0
                    },
                    {
                        "number": 64,
                        "time": 108.94453823958331,
                        "value": 1
                    },
                    {
                        "number": 64,
                        "time": 109.0811276458333,
                        "value": 0
                    },
                    {
                        "number": 64,
                        "time": 109.35347864374997,
                        "value": 1
                    },
                    {
                        "number": 64,
                        "time": 109.66887599999997,
                        "value": 0
                    },
                    {
                        "number": 64,
                        "time": 109.73096209374997,
                        "value": 1
                    },
                    {
                        "number": 64,
                        "time": 109.87582964583329,
                        "value": 0
                    },
                    {
                        "number": 64,
                        "time": 110.12334620624996,
                        "value": 1
                    },
                    {
                        "number": 64,
                        "time": 110.46357799999996,
                        "value": 0
                    },
                    {
                        "number": 64,
                        "time": 110.53973694166662,
                        "value": 1
                    },
                    {
                        "number": 64,
                        "time": 110.86092899999996,
                        "value": 0
                    },
                    {
                        "number": 64,
                        "time": 110.90811443124996,
                        "value": 1
                    },
                    {
                        "number": 64,
                        "time": 111.25827999999996,
                        "value": 0
                    },
                    {
                        "number": 64,
                        "time": 111.29967072916662,
                        "value": 1
                    },
                    {
                        "number": 64,
                        "time": 111.4652336458333,
                        "value": 0
                    },
                    {
                        "number": 64,
                        "time": 115.75828007499996,
                        "value": 1
                    },
                    {
                        "number": 64,
                        "time": 116.03063107291662,
                        "value": 0
                    },
                    {
                        "number": 64,
                        "time": 116.13162445208329,
                        "value": 1
                    },
                    {
                        "number": 64,
                        "time": 116.42384299999995,
                        "value": 0
                    },
                    {
                        "number": 64,
                        "time": 117.34768407499995,
                        "value": 1
                    },
                    {
                        "number": 64,
                        "time": 117.62003507291661,
                        "value": 0
                    },
                    {
                        "number": 64,
                        "time": 117.72102845208327,
                        "value": 1
                    },
                    {
                        "number": 64,
                        "time": 118.01324699999994,
                        "value": 0
                    },
                    {
                        "number": 64,
                        "time": 118.93708807499993,
                        "value": 1
                    },
                    {
                        "number": 64,
                        "time": 119.2094390729166,
                        "value": 0
                    },
                    {
                        "number": 64,
                        "time": 119.31043245208326,
                        "value": 1
                    },
                    {
                        "number": 64,
                        "time": 119.60265099999992,
                        "value": 0
                    },
                    {
                        "number": 64,
                        "time": 120.52649207499992,
                        "value": 1
                    },
                    {
                        "number": 64,
                        "time": 120.79884307291658,
                        "value": 0
                    },
                    {
                        "number": 64,
                        "time": 120.89983645208325,
                        "value": 1
                    },
                    {
                        "number": 64,
                        "time": 121.19205499999991,
                        "value": 0
                    },
                    {
                        "number": 64,
                        "time": 121.65977023958324,
                        "value": 1
                    },
                    {
                        "number": 64,
                        "time": 121.79635964583323,
                        "value": 0
                    },
                    {
                        "number": 64,
                        "time": 122.0687106437499,
                        "value": 1
                    },
                    {
                        "number": 64,
                        "time": 122.3841079999999,
                        "value": 0
                    },
                    {
                        "number": 64,
                        "time": 122.4461940937499,
                        "value": 1
                    },
                    {
                        "number": 64,
                        "time": 122.59106164583322,
                        "value": 0
                    },
                    {
                        "number": 64,
                        "time": 122.83857820624989,
                        "value": 1
                    },
                    {
                        "number": 64,
                        "time": 123.17880999999988,
                        "value": 0
                    },
                    {
                        "number": 64,
                        "time": 123.25496894166655,
                        "value": 1
                    },
                    {
                        "number": 64,
                        "time": 123.57616099999989,
                        "value": 0
                    },
                    {
                        "number": 64,
                        "time": 123.62334643124989,
                        "value": 1
                    },
                    {
                        "number": 64,
                        "time": 123.97351199999989,
                        "value": 0
                    },
                    {
                        "number": 64,
                        "time": 124.01490272916655,
                        "value": 1
                    },
                    {
                        "number": 64,
                        "time": 124.18046564583322,
                        "value": 0
                    },
                    {
                        "number": 64,
                        "time": 126.42384316666656,
                        "value": 1
                    },
                    {
                        "number": 64,
                        "time": 126.76407496041655,
                        "value": 0
                    },
                    {
                        "number": 64,
                        "time": 126.83112794166655,
                        "value": 1
                    },
                    {
                        "number": 64,
                        "time": 127.15231999999989,
                        "value": 0
                    },
                    {
                        "number": 64,
                        "time": 128.4735120749999,
                        "value": 1
                    },
                    {
                        "number": 64,
                        "time": 128.74586307291656,
                        "value": 0
                    },
                    {
                        "number": 64,
                        "time": 128.84685645208322,
                        "value": 1
                    },
                    {
                        "number": 64,
                        "time": 129.13907499999988,
                        "value": 0
                    },
                    {
                        "number": 64,
                        "time": 130.0629160749999,
                        "value": 1
                    },
                    {
                        "number": 64,
                        "time": 130.33526707291657,
                        "value": 0
                    },
                    {
                        "number": 64,
                        "time": 130.43626045208322,
                        "value": 1
                    },
                    {
                        "number": 64,
                        "time": 130.72847899999988,
                        "value": 0
                    },
                    {
                        "number": 64,
                        "time": 131.6523200749999,
                        "value": 1
                    },
                    {
                        "number": 64,
                        "time": 131.92467107291657,
                        "value": 0
                    },
                    {
                        "number": 64,
                        "time": 132.02566445208322,
                        "value": 1
                    },
                    {
                        "number": 64,
                        "time": 132.31788299999988,
                        "value": 0
                    },
                    {
                        "number": 64,
                        "time": 133.2417240749999,
                        "value": 1
                    },
                    {
                        "number": 64,
                        "time": 133.51407507291657,
                        "value": 0
                    },
                    {
                        "number": 64,
                        "time": 133.61506845208322,
                        "value": 1
                    },
                    {
                        "number": 64,
                        "time": 133.90728699999988,
                        "value": 0
                    },
                    {
                        "number": 64,
                        "time": 134.3750022395832,
                        "value": 1
                    },
                    {
                        "number": 64,
                        "time": 134.51159164583322,
                        "value": 0
                    },
                    {
                        "number": 64,
                        "time": 134.7839426437499,
                        "value": 1
                    },
                    {
                        "number": 64,
                        "time": 135.0993399999999,
                        "value": 0
                    },
                    {
                        "number": 64,
                        "time": 135.1614260937499,
                        "value": 1
                    },
                    {
                        "number": 64,
                        "time": 135.30629364583322,
                        "value": 0
                    },
                    {
                        "number": 64,
                        "time": 135.5538102062499,
                        "value": 1
                    },
                    {
                        "number": 64,
                        "time": 135.8940419999999,
                        "value": 0
                    },
                    {
                        "number": 64,
                        "time": 135.97020094166658,
                        "value": 1
                    },
                    {
                        "number": 64,
                        "time": 136.2913929999999,
                        "value": 0
                    },
                    {
                        "number": 64,
                        "time": 136.3385784312499,
                        "value": 1
                    },
                    {
                        "number": 64,
                        "time": 136.6887439999999,
                        "value": 0
                    },
                    {
                        "number": 64,
                        "time": 136.73013472916656,
                        "value": 1
                    },
                    {
                        "number": 64,
                        "time": 136.89569764583322,
                        "value": 0
                    },
                    {
                        "number": 64,
                        "time": 139.13907516666654,
                        "value": 1
                    },
                    {
                        "number": 64,
                        "time": 139.47930696041655,
                        "value": 0
                    },
                    {
                        "number": 64,
                        "time": 139.54635994166654,
                        "value": 1
                    },
                    {
                        "number": 64,
                        "time": 139.86755199999988,
                        "value": 0
                    },
                    {
                        "number": 64,
                        "time": 140.30049902708322,
                        "value": 1
                    },
                    {
                        "number": 64,
                        "time": 140.66887651666656,
                        "value": 0
                    },
                    {
                        "number": 64,
                        "time": 140.70033347083321,
                        "value": 1
                    },
                    {
                        "number": 64,
                        "time": 141.45695599999988,
                        "value": 0
                    },
                    {
                        "number": 64,
                        "time": 141.50414143124988,
                        "value": 1
                    },
                    {
                        "number": 64,
                        "time": 142.25165799999988,
                        "value": 0
                    },
                    {
                        "number": 64,
                        "time": 142.2847705833332,
                        "value": 1
                    },
                    {
                        "number": 64,
                        "time": 142.6523202583332,
                        "value": 0
                    },
                    {
                        "number": 64,
                        "time": 142.6796381395832,
                        "value": 1
                    },
                    {
                        "number": 64,
                        "time": 143.05049907291655,
                        "value": 0
                    },
                    {
                        "number": 64,
                        "time": 143.0960288749999,
                        "value": 1
                    },
                    {
                        "number": 64,
                        "time": 143.4610951062499,
                        "value": 0
                    },
                    {
                        "number": 64,
                        "time": 143.49917457708324,
                        "value": 1
                    },
                    {
                        "number": 64,
                        "time": 143.8460288874999,
                        "value": 0
                    },
                    {
                        "number": 64,
                        "time": 143.91142623958322,
                        "value": 1
                    },
                    {
                        "number": 64,
                        "time": 144.64155870208322,
                        "value": 0
                    },
                    {
                        "number": 64,
                        "time": 144.67715472916655,
                        "value": 1
                    },
                    {
                        "number": 64,
                        "time": 145.43791633124988,
                        "value": 0
                    },
                    {
                        "number": 64,
                        "time": 145.49172427916653,
                        "value": 1
                    },
                    {
                        "number": 64,
                        "time": 145.83443951666652,
                        "value": 0
                    },
                    {
                        "number": 64,
                        "time": 145.85844613958318,
                        "value": 1
                    },
                    {
                        "number": 64,
                        "time": 146.23344614583317,
                        "value": 0
                    },
                    {
                        "number": 64,
                        "time": 146.31457197499984,
                        "value": 1
                    },
                    {
                        "number": 64,
                        "time": 146.51159184583318,
                        "value": 0
                    },
                    {
                        "number": 64,
                        "time": 146.65811502708317,
                        "value": 1
                    },
                    {
                        "number": 64,
                        "time": 147.0264925166665,
                        "value": 0
                    },
                    {
                        "number": 64,
                        "time": 147.05794947083317,
                        "value": 1
                    },
                    {
                        "number": 64,
                        "time": 147.81457199999983,
                        "value": 0
                    },
                    {
                        "number": 64,
                        "time": 147.86175743124983,
                        "value": 1
                    },
                    {
                        "number": 64,
                        "time": 148.60927399999983,
                        "value": 0
                    },
                    {
                        "number": 64,
                        "time": 148.64238658333315,
                        "value": 1
                    },
                    {
                        "number": 64,
                        "time": 149.00993625833314,
                        "value": 0
                    },
                    {
                        "number": 64,
                        "time": 149.03725413958315,
                        "value": 1
                    },
                    {
                        "number": 64,
                        "time": 149.4081150729165,
                        "value": 0
                    },
                    {
                        "number": 64,
                        "time": 149.45364487499984,
                        "value": 1
                    },
                    {
                        "number": 64,
                        "time": 149.81871110624985,
                        "value": 0
                    },
                    {
                        "number": 64,
                        "time": 149.8567905770832,
                        "value": 1
                    },
                    {
                        "number": 64,
                        "time": 150.20364488749985,
                        "value": 0
                    },
                    {
                        "number": 64,
                        "time": 150.26904223958317,
                        "value": 1
                    },
                    {
                        "number": 64,
                        "time": 150.99917470208317,
                        "value": 0
                    },
                    {
                        "number": 64,
                        "time": 151.0347707291665,
                        "value": 1
                    },
                    {
                        "number": 64,
                        "time": 151.79553233124983,
                        "value": 0
                    },
                    {
                        "number": 64,
                        "time": 151.84934027916648,
                        "value": 1
                    },
                    {
                        "number": 64,
                        "time": 152.19205551666647,
                        "value": 0
                    },
                    {
                        "number": 64,
                        "time": 152.21606213958313,
                        "value": 1
                    },
                    {
                        "number": 64,
                        "time": 152.59106214583312,
                        "value": 0
                    },
                    {
                        "number": 64,
                        "time": 152.6721879749998,
                        "value": 1
                    },
                    {
                        "number": 64,
                        "time": 153.29801579999977,
                        "value": 0
                    },
                    {
                        "number": 64,
                        "time": 153.3336118270831,
                        "value": 1
                    },
                    {
                        "number": 64,
                        "time": 154.0935456145831,
                        "value": 0
                    },
                    {
                        "number": 64,
                        "time": 154.12003568124976,
                        "value": 1
                    },
                    {
                        "number": 64,
                        "time": 154.8708635083331,
                        "value": 0
                    },
                    {
                        "number": 64,
                        "time": 154.90894297916643,
                        "value": 1
                    },
                    {
                        "number": 64,
                        "time": 155.71192312499977,
                        "value": 0
                    },
                    {
                        "number": 64,
                        "time": 155.7351019333331,
                        "value": 1
                    },
                    {
                        "number": 64,
                        "time": 156.47765161458312,
                        "value": 0
                    },
                    {
                        "number": 64,
                        "time": 156.51241982708314,
                        "value": 1
                    },
                    {
                        "number": 64,
                        "time": 156.62086353749982,
                        "value": 0
                    },
                    {
                        "number": 64,
                        "time": 157.28063176041647,
                        "value": 1
                    },
                    {
                        "number": 64,
                        "time": 158.0662277999998,
                        "value": 0
                    },
                    {
                        "number": 64,
                        "time": 158.10513508541646,
                        "value": 1
                    },
                    {
                        "number": 64,
                        "time": 158.86175761458313,
                        "value": 0
                    },
                    {
                        "number": 64,
                        "time": 158.89983708541646,
                        "value": 1
                    },
                    {
                        "number": 64,
                        "time": 159.63907550833312,
                        "value": 0
                    },
                    {
                        "number": 64,
                        "time": 159.67136027708312,
                        "value": 1
                    },
                    {
                        "number": 64,
                        "time": 160.43626095208313,
                        "value": 0
                    },
                    {
                        "number": 64,
                        "time": 160.50083048958314,
                        "value": 1
                    },
                    {
                        "number": 64,
                        "time": 161.24586361458313,
                        "value": 0
                    },
                    {
                        "number": 64,
                        "time": 161.34768480833313,
                        "value": 1
                    },
                    {
                        "number": 64,
                        "time": 162.0198702499998,
                        "value": 0
                    },
                    {
                        "number": 64,
                        "time": 162.0844397874998,
                        "value": 1
                    },
                    {
                        "number": 64,
                        "time": 162.91390999999982,
                        "value": 0
                    },
                    {
                        "number": 64,
                        "time": 162.9751682791665,
                        "value": 1
                    },
                    {
                        "number": 64,
                        "time": 163.70861199999982,
                        "value": 0
                    },
                    {
                        "number": 64,
                        "time": 163.75000272916648,
                        "value": 1
                    },
                    {
                        "number": 64,
                        "time": 164.50331399999982,
                        "value": 0
                    },
                    {
                        "number": 64,
                        "time": 164.54139347083316,
                        "value": 1
                    },
                    {
                        "number": 64,
                        "time": 165.29801599999982,
                        "value": 0
                    },
                    {
                        "number": 64,
                        "time": 165.3418901729165,
                        "value": 1
                    },
                    {
                        "number": 64,
                        "time": 166.10099614583316,
                        "value": 0
                    },
                    {
                        "number": 64,
                        "time": 166.2036451541665,
                        "value": 1
                    },
                    {
                        "number": 64,
                        "time": 166.92301602708318,
                        "value": 0
                    },
                    {
                        "number": 64,
                        "time": 166.9726849020832,
                        "value": 1
                    },
                    {
                        "number": 64,
                        "time": 167.68212199999985,
                        "value": 0
                    },
                    {
                        "number": 64,
                        "time": 167.72351272916652,
                        "value": 1
                    },
                    {
                        "number": 64,
                        "time": 168.47847962916651,
                        "value": 0
                    },
                    {
                        "number": 64,
                        "time": 168.52400943124985,
                        "value": 1
                    },
                    {
                        "number": 64,
                        "time": 169.1928836145832,
                        "value": 0
                    },
                    {
                        "number": 64,
                        "time": 169.23344652916654,
                        "value": 1
                    },
                    {
                        "number": 64,
                        "time": 169.97020150833322,
                        "value": 0
                    },
                    {
                        "number": 64,
                        "time": 170.01076442291657,
                        "value": 1
                    },
                    {
                        "number": 64,
                        "time": 170.8112611249999,
                        "value": 0
                    },
                    {
                        "number": 64,
                        "time": 170.88410880833322,
                        "value": 1
                    },
                    {
                        "number": 64,
                        "time": 171.57698961458323,
                        "value": 0
                    },
                    {
                        "number": 64,
                        "time": 171.69371147083322,
                        "value": 1
                    },
                    {
                        "number": 64,
                        "time": 172.3509962499999,
                        "value": 0
                    },
                    {
                        "number": 64,
                        "time": 172.4006651249999,
                        "value": 1
                    },
                    {
                        "number": 64,
                        "time": 173.1605989124999,
                        "value": 0
                    },
                    {
                        "number": 64,
                        "time": 173.1904002374999,
                        "value": 1
                    },
                    {
                        "number": 64,
                        "time": 176.43046651666654,
                        "value": 0
                    },
                    {
                        "number": 64,
                        "time": 176.6672214874999,
                        "value": 1
                    },
                    {
                        "number": 64,
                        "time": 178.0132479999999,
                        "value": 0
                    }
                ]
            },
            "id": 3,
            "name": "Pedal",
            "instrumentNumber": 0,
            "instrument": "acoustic grand piano",
            "instrumentFamily": "piano",
            "channelNumber": 0,
            "isPercussion": false
        },
        {
            "startTime": 0,
            "duration": 0,
            "length": 0,
            "notes": [],
            "controlChanges": {},
            "id": 4,
            "name": "Mozart: Sonate KV 331"
        },
        {
            "startTime": 0,
            "duration": 0,
            "length": 0,
            "notes": [],
            "controlChanges": {},
            "id": 5,
            "name": "Copyright  2005 by Bernd Krger"
        },
        {
            "startTime": 0,
            "duration": 0,
            "length": 0,
            "notes": [],
            "controlChanges": {},
            "id": 6,
            "name": "http://www.piano-midi.de"
        },
        {
            "startTime": 0,
            "duration": 0,
            "length": 0,
            "notes": [],
            "controlChanges": {},
            "id": 7,
            "name": "Edition: 2013-07-15"
        },
        {
            "startTime": 0,
            "duration": 0,
            "length": 0,
            "notes": [],
            "controlChanges": {},
            "id": 8,
            "name": "Spur 8"
        },
        {
            "startTime": 0,
            "duration": 0,
            "length": 0,
            "notes": [],
            "controlChanges": {},
            "id": 9,
            "name": "Spur 9"
        }
    ]
}