{
    "header": {
        "PPQ": 480,
        "timeSignature": [
            4,
            4
        ],
        "bpm": 42.380004548787156,
        "name": "Klaviersonate KV 570 2.. Satz"
    },
    "startTime": 0,
    "duration": 490.5615330000015,
    "tracks": [
        {
            "startTime": 0,
            "duration": 0,
            "length": 0,
            "notes": [],
            "controlChanges": {},
            "id": 0,
            "name": "Klaviersonate KV 570 2.. Satz"
        },
        {
            "startTime": 0,
            "duration": 490.561532999999,
            "length": 1014,
            "notes": [
                {
                    "name": "G4",
                    "midi": 67,
                    "time": 0,
                    "velocity": 0.2440944881889764,
                    "duration": 1.415762
                },
                {
                    "name": "A#4",
                    "midi": 70,
                    "time": 0,
                    "velocity": 0.3543307086614173,
                    "duration": 1.415762
                },
                {
                    "name": "D#4",
                    "midi": 63,
                    "time": 1.415762,
                    "velocity": 0.2283464566929134,
                    "duration": 0.707881
                },
                {
                    "name": "G4",
                    "midi": 67,
                    "time": 1.415762,
                    "velocity": 0.3464566929133858,
                    "duration": 0.707881
                },
                {
                    "name": "A#3",
                    "midi": 58,
                    "time": 2.123643,
                    "velocity": 0.23622047244094488,
                    "duration": 0.707881
                },
                {
                    "name": "F4",
                    "midi": 65,
                    "time": 2.123643,
                    "velocity": 0.3543307086614173,
                    "duration": 0.707881
                },
                {
                    "name": "G3",
                    "midi": 55,
                    "time": 2.831524,
                    "velocity": 0.23622047244094488,
                    "duration": 0.707881
                },
                {
                    "name": "D#4",
                    "midi": 63,
                    "time": 2.831524,
                    "velocity": 0.3543307086614173,
                    "duration": 0.707881
                },
                {
                    "name": "A#3",
                    "midi": 58,
                    "time": 3.539405,
                    "velocity": 0.33858267716535434,
                    "duration": 0.707881
                },
                {
                    "name": "D#4",
                    "midi": 63,
                    "time": 4.247286,
                    "velocity": 0.3543307086614173,
                    "duration": 0.7078809999999995
                },
                {
                    "name": "D4",
                    "midi": 62,
                    "time": 4.955166999999999,
                    "velocity": 0.2440944881889764,
                    "duration": 0.7078810000000004
                },
                {
                    "name": "F4",
                    "midi": 65,
                    "time": 4.955166999999999,
                    "velocity": 0.3543307086614173,
                    "duration": 0.7078810000000004
                },
                {
                    "name": "D#4",
                    "midi": 63,
                    "time": 5.663048,
                    "velocity": 0.2677165354330709,
                    "duration": 2.8315240000000017
                },
                {
                    "name": "G4",
                    "midi": 67,
                    "time": 5.663048,
                    "velocity": 0.3700787401574803,
                    "duration": 0.7078810000000004
                },
                {
                    "name": "G#4",
                    "midi": 68,
                    "time": 6.370929,
                    "velocity": 0.48031496062992124,
                    "duration": 0.7078810000000004
                },
                {
                    "name": "A#4",
                    "midi": 70,
                    "time": 7.078810000000001,
                    "velocity": 0.4881889763779528,
                    "duration": 0.7078810000000004
                },
                {
                    "name": "C5",
                    "midi": 72,
                    "time": 7.786691000000001,
                    "velocity": 0.4881889763779528,
                    "duration": 0.7078810000000004
                },
                {
                    "name": "G4",
                    "midi": 67,
                    "time": 8.494572000000002,
                    "velocity": 0.44881889763779526,
                    "duration": 1.0618215000000006
                },
                {
                    "name": "D#4",
                    "midi": 63,
                    "time": 8.494572000000002,
                    "velocity": 0.31496062992125984,
                    "duration": 1.4157620000000009
                },
                {
                    "name": "G#4",
                    "midi": 68,
                    "time": 9.556393500000002,
                    "velocity": 0.3779527559055118,
                    "duration": 0.3539405000000002
                },
                {
                    "name": "D4",
                    "midi": 62,
                    "time": 9.910334000000002,
                    "velocity": 0.2755905511811024,
                    "duration": 1.4157620000000009
                },
                {
                    "name": "F4",
                    "midi": 65,
                    "time": 9.910334000000002,
                    "velocity": 0.3937007874015748,
                    "duration": 0.3834355416666675
                },
                {
                    "name": "G4",
                    "midi": 67,
                    "time": 10.264274500000003,
                    "velocity": 0.3779527559055118,
                    "duration": 0.3834355416666675
                },
                {
                    "name": "G#4",
                    "midi": 68,
                    "time": 10.618215000000003,
                    "velocity": 0.3858267716535433,
                    "duration": 0.3834355416666675
                },
                {
                    "name": "A4",
                    "midi": 69,
                    "time": 10.972155500000003,
                    "velocity": 0.3858267716535433,
                    "duration": 0.3539405000000002
                },
                {
                    "name": "A#4",
                    "midi": 70,
                    "time": 11.326096000000003,
                    "velocity": 0.3937007874015748,
                    "duration": 2.8315240000000017
                },
                {
                    "name": "A#5",
                    "midi": 82,
                    "time": 11.326096000000003,
                    "velocity": 0.4645669291338583,
                    "duration": 1.4157620000000009
                },
                {
                    "name": "G5",
                    "midi": 79,
                    "time": 12.741858000000004,
                    "velocity": 0.4881889763779528,
                    "duration": 0.7078810000000004
                },
                {
                    "name": "F5",
                    "midi": 77,
                    "time": 13.449739000000005,
                    "velocity": 0.4566929133858268,
                    "duration": 0.7078810000000004
                },
                {
                    "name": "A#4",
                    "midi": 70,
                    "time": 14.157620000000005,
                    "velocity": 0.3937007874015748,
                    "duration": 0.5309107500000003
                },
                {
                    "name": "D#5",
                    "midi": 75,
                    "time": 14.157620000000005,
                    "velocity": 0.47244094488188976,
                    "duration": 0.5309107500000003
                },
                {
                    "name": "D5",
                    "midi": 74,
                    "time": 14.865501000000005,
                    "velocity": 0.36220472440944884,
                    "duration": 0.5309107500000003
                },
                {
                    "name": "F5",
                    "midi": 77,
                    "time": 14.865501000000005,
                    "velocity": 0.4330708661417323,
                    "duration": 0.5309107500000003
                },
                {
                    "name": "D#5",
                    "midi": 75,
                    "time": 15.573382000000006,
                    "velocity": 0.3858267716535433,
                    "duration": 0.5309107500000003
                },
                {
                    "name": "G5",
                    "midi": 79,
                    "time": 15.573382000000006,
                    "velocity": 0.4566929133858268,
                    "duration": 0.5309107500000003
                },
                {
                    "name": "D#5",
                    "midi": 75,
                    "time": 16.281263000000006,
                    "velocity": 0.4015748031496063,
                    "duration": 0.5309107500000003
                },
                {
                    "name": "G#5",
                    "midi": 80,
                    "time": 16.281263000000006,
                    "velocity": 0.48031496062992124,
                    "duration": 0.5309107500000003
                },
                {
                    "name": "A#5",
                    "midi": 82,
                    "time": 16.989144000000007,
                    "velocity": 0.49606299212598426,
                    "duration": 0.7078810000000004
                },
                {
                    "name": "D#5",
                    "midi": 75,
                    "time": 16.989144000000007,
                    "velocity": 0.4251968503937008,
                    "duration": 0.7078810000000004
                },
                {
                    "name": "B5",
                    "midi": 83,
                    "time": 17.697025000000007,
                    "velocity": 0.4881889763779528,
                    "duration": 0.20646529166666738
                },
                {
                    "name": "C6",
                    "midi": 84,
                    "time": 17.873995250000007,
                    "velocity": 0.4645669291338583,
                    "duration": 0.20646529166666738
                },
                {
                    "name": "G#5",
                    "midi": 80,
                    "time": 18.050965500000007,
                    "velocity": 0.4645669291338583,
                    "duration": 0.20646529166666738
                },
                {
                    "name": "F5",
                    "midi": 77,
                    "time": 18.227935750000007,
                    "velocity": 0.44881889763779526,
                    "duration": 0.1769702500000001
                },
                {
                    "name": "D#5",
                    "midi": 75,
                    "time": 18.404906000000008,
                    "velocity": 0.5039370078740157,
                    "duration": 0.7078810000000004
                },
                {
                    "name": "G5",
                    "midi": 79,
                    "time": 19.112787000000008,
                    "velocity": 0.47244094488188976,
                    "duration": 0.20646529166666738
                },
                {
                    "name": "F5",
                    "midi": 77,
                    "time": 19.289757250000008,
                    "velocity": 0.4409448818897638,
                    "duration": 0.20646529166666738
                },
                {
                    "name": "E5",
                    "midi": 76,
                    "time": 19.466727500000008,
                    "velocity": 0.4409448818897638,
                    "duration": 0.20646529166666738
                },
                {
                    "name": "F5",
                    "midi": 77,
                    "time": 19.64369775000001,
                    "velocity": 0.41732283464566927,
                    "duration": 0.14747520833333283
                },
                {
                    "name": "D5",
                    "midi": 74,
                    "time": 19.82066800000001,
                    "velocity": 0.4015748031496063,
                    "duration": 1.4157620000000009
                },
                {
                    "name": "F5",
                    "midi": 77,
                    "time": 19.82066800000001,
                    "velocity": 0.48031496062992124,
                    "duration": 1.4157620000000009
                },
                {
                    "name": "D#5",
                    "midi": 75,
                    "time": 21.23643000000001,
                    "velocity": 0.4251968503937008,
                    "duration": 0.7078810000000004
                },
                {
                    "name": "G4",
                    "midi": 67,
                    "time": 22.65219200000001,
                    "velocity": 0.2440944881889764,
                    "duration": 1.4157620000000009
                },
                {
                    "name": "A#4",
                    "midi": 70,
                    "time": 22.65219200000001,
                    "velocity": 0.3543307086614173,
                    "duration": 1.4157620000000009
                },
                {
                    "name": "D#4",
                    "midi": 63,
                    "time": 24.06795400000001,
                    "velocity": 0.2283464566929134,
                    "duration": 0.7078810000000004
                },
                {
                    "name": "G4",
                    "midi": 67,
                    "time": 24.06795400000001,
                    "velocity": 0.3464566929133858,
                    "duration": 0.7078810000000004
                },
                {
                    "name": "A#3",
                    "midi": 58,
                    "time": 24.77583500000001,
                    "velocity": 0.23622047244094488,
                    "duration": 0.7078810000000004
                },
                {
                    "name": "F4",
                    "midi": 65,
                    "time": 24.77583500000001,
                    "velocity": 0.3543307086614173,
                    "duration": 0.7078810000000004
                },
                {
                    "name": "G3",
                    "midi": 55,
                    "time": 25.483716000000012,
                    "velocity": 0.23622047244094488,
                    "duration": 0.7078810000000004
                },
                {
                    "name": "D#4",
                    "midi": 63,
                    "time": 25.483716000000012,
                    "velocity": 0.3543307086614173,
                    "duration": 0.7078810000000004
                },
                {
                    "name": "A#3",
                    "midi": 58,
                    "time": 26.191597000000012,
                    "velocity": 0.33858267716535434,
                    "duration": 0.7078810000000004
                },
                {
                    "name": "D#4",
                    "midi": 63,
                    "time": 26.899478000000013,
                    "velocity": 0.3543307086614173,
                    "duration": 0.7078810000000004
                },
                {
                    "name": "D4",
                    "midi": 62,
                    "time": 27.607359000000013,
                    "velocity": 0.2440944881889764,
                    "duration": 0.7078810000000004
                },
                {
                    "name": "F4",
                    "midi": 65,
                    "time": 27.607359000000013,
                    "velocity": 0.3543307086614173,
                    "duration": 0.7078810000000004
                },
                {
                    "name": "D#4",
                    "midi": 63,
                    "time": 28.315240000000014,
                    "velocity": 0.2677165354330709,
                    "duration": 2.8315240000000017
                },
                {
                    "name": "G4",
                    "midi": 67,
                    "time": 28.315240000000014,
                    "velocity": 0.3700787401574803,
                    "duration": 0.7078810000000004
                },
                {
                    "name": "G#4",
                    "midi": 68,
                    "time": 29.023121000000014,
                    "velocity": 0.4645669291338583,
                    "duration": 0.7078810000000004
                },
                {
                    "name": "A#4",
                    "midi": 70,
                    "time": 29.731002000000014,
                    "velocity": 0.4881889763779528,
                    "duration": 0.7078810000000004
                },
                {
                    "name": "C5",
                    "midi": 72,
                    "time": 30.438883000000015,
                    "velocity": 0.4645669291338583,
                    "duration": 0.7078810000000004
                },
                {
                    "name": "G4",
                    "midi": 67,
                    "time": 31.146764000000015,
                    "velocity": 0.44881889763779526,
                    "duration": 1.061821499999997
                },
                {
                    "name": "D#4",
                    "midi": 63,
                    "time": 31.146764000000015,
                    "velocity": 0.31496062992125984,
                    "duration": 1.4157619999999973
                },
                {
                    "name": "G#4",
                    "midi": 68,
                    "time": 32.20858550000001,
                    "velocity": 0.3779527559055118,
                    "duration": 0.3539405000000002
                },
                {
                    "name": "D4",
                    "midi": 62,
                    "time": 32.56252600000001,
                    "velocity": 0.2755905511811024,
                    "duration": 1.4157620000000009
                },
                {
                    "name": "F4",
                    "midi": 65,
                    "time": 32.56252600000001,
                    "velocity": 0.3937007874015748,
                    "duration": 0.38343554166666394
                },
                {
                    "name": "G4",
                    "midi": 67,
                    "time": 32.91646650000001,
                    "velocity": 0.3779527559055118,
                    "duration": 0.38343554166666394
                },
                {
                    "name": "G#4",
                    "midi": 68,
                    "time": 33.27040700000001,
                    "velocity": 0.3858267716535433,
                    "duration": 0.38343554166666394
                },
                {
                    "name": "A4",
                    "midi": 69,
                    "time": 33.62434750000001,
                    "velocity": 0.3858267716535433,
                    "duration": 0.3539405000000002
                },
                {
                    "name": "A#4",
                    "midi": 70,
                    "time": 33.97828800000001,
                    "velocity": 0.3937007874015748,
                    "duration": 2.8315240000000017
                },
                {
                    "name": "A#5",
                    "midi": 82,
                    "time": 33.97828800000001,
                    "velocity": 0.4645669291338583,
                    "duration": 1.4157620000000009
                },
                {
                    "name": "G5",
                    "midi": 79,
                    "time": 35.394050000000014,
                    "velocity": 0.4881889763779528,
                    "duration": 0.7078810000000004
                },
                {
                    "name": "F5",
                    "midi": 77,
                    "time": 36.101931000000015,
                    "velocity": 0.4566929133858268,
                    "duration": 0.7078810000000004
                },
                {
                    "name": "A#4",
                    "midi": 70,
                    "time": 36.809812000000015,
                    "velocity": 0.3937007874015748,
                    "duration": 0.5309107499999968
                },
                {
                    "name": "D#5",
                    "midi": 75,
                    "time": 36.809812000000015,
                    "velocity": 0.47244094488188976,
                    "duration": 0.5309107499999968
                },
                {
                    "name": "D5",
                    "midi": 74,
                    "time": 37.51769300000001,
                    "velocity": 0.36220472440944884,
                    "duration": 0.5309107499999968
                },
                {
                    "name": "F5",
                    "midi": 77,
                    "time": 37.51769300000001,
                    "velocity": 0.4330708661417323,
                    "duration": 0.5309107499999968
                },
                {
                    "name": "D#5",
                    "midi": 75,
                    "time": 38.225574,
                    "velocity": 0.3858267716535433,
                    "duration": 0.5309107499999968
                },
                {
                    "name": "G5",
                    "midi": 79,
                    "time": 38.225574,
                    "velocity": 0.4566929133858268,
                    "duration": 0.5309107499999968
                },
                {
                    "name": "D#5",
                    "midi": 75,
                    "time": 38.933454999999995,
                    "velocity": 0.4015748031496063,
                    "duration": 0.5309107499999968
                },
                {
                    "name": "G#5",
                    "midi": 80,
                    "time": 38.933454999999995,
                    "velocity": 0.48031496062992124,
                    "duration": 0.5309107499999968
                },
                {
                    "name": "A#5",
                    "midi": 82,
                    "time": 39.64133599999999,
                    "velocity": 0.49606299212598426,
                    "duration": 0.7078810000000004
                },
                {
                    "name": "D#5",
                    "midi": 75,
                    "time": 39.64133599999999,
                    "velocity": 0.4251968503937008,
                    "duration": 0.7078810000000004
                },
                {
                    "name": "B5",
                    "midi": 83,
                    "time": 40.34921699999999,
                    "velocity": 0.49606299212598426,
                    "duration": 0.20646529166666028
                },
                {
                    "name": "C6",
                    "midi": 84,
                    "time": 40.526187249999985,
                    "velocity": 0.4645669291338583,
                    "duration": 0.20646529166666028
                },
                {
                    "name": "G#5",
                    "midi": 80,
                    "time": 40.70315749999998,
                    "velocity": 0.4645669291338583,
                    "duration": 0.20646529166666028
                },
                {
                    "name": "F5",
                    "midi": 77,
                    "time": 40.88012774999998,
                    "velocity": 0.44881889763779526,
                    "duration": 0.17697024999999655
                },
                {
                    "name": "D#5",
                    "midi": 75,
                    "time": 41.057097999999975,
                    "velocity": 0.5039370078740157,
                    "duration": 0.7078810000000004
                },
                {
                    "name": "G5",
                    "midi": 79,
                    "time": 41.764978999999975,
                    "velocity": 0.47244094488188976,
                    "duration": 0.20646529166666028
                },
                {
                    "name": "F5",
                    "midi": 77,
                    "time": 41.94194924999997,
                    "velocity": 0.4409448818897638,
                    "duration": 0.20646529166666028
                },
                {
                    "name": "E5",
                    "midi": 76,
                    "time": 42.11891949999997,
                    "velocity": 0.4409448818897638,
                    "duration": 0.20646529166666028
                },
                {
                    "name": "F5",
                    "midi": 77,
                    "time": 42.295889749999965,
                    "velocity": 0.41732283464566927,
                    "duration": 0.14747520833333283
                },
                {
                    "name": "D5",
                    "midi": 74,
                    "time": 42.47285999999996,
                    "velocity": 0.4015748031496063,
                    "duration": 1.4157620000000009
                },
                {
                    "name": "F5",
                    "midi": 77,
                    "time": 42.47285999999996,
                    "velocity": 0.48031496062992124,
                    "duration": 1.4157620000000009
                },
                {
                    "name": "D#5",
                    "midi": 75,
                    "time": 43.88862199999996,
                    "velocity": 0.4251968503937008,
                    "duration": 0.7078810000000004
                },
                {
                    "name": "F5",
                    "midi": 77,
                    "time": 45.30438399999996,
                    "velocity": 0.47244094488188976,
                    "duration": 1.4157620000000009
                },
                {
                    "name": "G5",
                    "midi": 79,
                    "time": 46.720145999999964,
                    "velocity": 0.47244094488188976,
                    "duration": 0.7078810000000004
                },
                {
                    "name": "D#5",
                    "midi": 75,
                    "time": 47.428026999999965,
                    "velocity": 0.4330708661417323,
                    "duration": 0.7078810000000004
                },
                {
                    "name": "G#5",
                    "midi": 80,
                    "time": 48.135907999999965,
                    "velocity": 0.47244094488188976,
                    "duration": 1.0618215000000006
                },
                {
                    "name": "F5",
                    "midi": 77,
                    "time": 49.197729499999966,
                    "velocity": 0.4251968503937008,
                    "duration": 0.3539405000000002
                },
                {
                    "name": "D5",
                    "midi": 74,
                    "time": 49.551669999999966,
                    "velocity": 0.4409448818897638,
                    "duration": 0.38343554166666394
                },
                {
                    "name": "D#5",
                    "midi": 75,
                    "time": 49.905610499999966,
                    "velocity": 0.4330708661417323,
                    "duration": 0.38343554166666394
                },
                {
                    "name": "F5",
                    "midi": 77,
                    "time": 50.259550999999966,
                    "velocity": 0.44881889763779526,
                    "duration": 0.38343554166666394
                },
                {
                    "name": "F#5",
                    "midi": 78,
                    "time": 50.61349149999997,
                    "velocity": 0.4645669291338583,
                    "duration": 0.38343554166666394
                },
                {
                    "name": "G5",
                    "midi": 79,
                    "time": 50.96743199999997,
                    "velocity": 0.47244094488188976,
                    "duration": 0.7078810000000004
                },
                {
                    "name": "G5",
                    "midi": 79,
                    "time": 51.67531299999997,
                    "velocity": 0.49606299212598426,
                    "duration": 0.7078810000000004
                },
                {
                    "name": "G#5",
                    "midi": 80,
                    "time": 52.38319399999997,
                    "velocity": 0.49606299212598426,
                    "duration": 0.7078810000000004
                },
                {
                    "name": "A5",
                    "midi": 81,
                    "time": 53.09107499999997,
                    "velocity": 0.49606299212598426,
                    "duration": 0.7078810000000004
                },
                {
                    "name": "A#5",
                    "midi": 82,
                    "time": 53.79895599999997,
                    "velocity": 0.5275590551181102,
                    "duration": 1.0618215000000006
                },
                {
                    "name": "C6",
                    "midi": 84,
                    "time": 54.86077749999997,
                    "velocity": 0.4566929133858268,
                    "duration": 0.14747520833333283
                },
                {
                    "name": "A#5",
                    "midi": 82,
                    "time": 54.97875766666664,
                    "velocity": 0.4566929133858268,
                    "duration": 0.14747520833332572
                },
                {
                    "name": "G#5",
                    "midi": 80,
                    "time": 55.0967378333333,
                    "velocity": 0.4566929133858268,
                    "duration": 0.14747520833332572
                },
                {
                    "name": "G5",
                    "midi": 79,
                    "time": 55.21471799999996,
                    "velocity": 0.4881889763779528,
                    "duration": 0.3539405000000002
                },
                {
                    "name": "G#5",
                    "midi": 80,
                    "time": 55.56865849999996,
                    "velocity": 0.4409448818897638,
                    "duration": 0.38343554166666394
                },
                {
                    "name": "A#5",
                    "midi": 82,
                    "time": 55.92259899999996,
                    "velocity": 0.47244094488188976,
                    "duration": 0.38343554166666394
                },
                {
                    "name": "B5",
                    "midi": 83,
                    "time": 56.27653949999996,
                    "velocity": 0.49606299212598426,
                    "duration": 0.3539405000000002
                },
                {
                    "name": "C6",
                    "midi": 84,
                    "time": 56.63047999999996,
                    "velocity": 0.49606299212598426,
                    "duration": 1.4157620000000009
                },
                {
                    "name": "A#5",
                    "midi": 82,
                    "time": 58.046241999999964,
                    "velocity": 0.49606299212598426,
                    "duration": 1.4157620000000009
                },
                {
                    "name": "A5",
                    "midi": 81,
                    "time": 59.462003999999965,
                    "velocity": 0.49606299212598426,
                    "duration": 1.4157620000000009
                },
                {
                    "name": "G#5",
                    "midi": 80,
                    "time": 60.877765999999966,
                    "velocity": 0.49606299212598426,
                    "duration": 1.4157620000000009
                },
                {
                    "name": "G5",
                    "midi": 79,
                    "time": 62.29352799999997,
                    "velocity": 0.5275590551181102,
                    "duration": 0.7078810000000004
                },
                {
                    "name": "D#6",
                    "midi": 87,
                    "time": 63.00140899999997,
                    "velocity": 0.5354330708661418,
                    "duration": 0.7078810000000004
                },
                {
                    "name": "F5",
                    "midi": 77,
                    "time": 63.70928999999997,
                    "velocity": 0.5275590551181102,
                    "duration": 0.7078810000000004
                },
                {
                    "name": "C6",
                    "midi": 84,
                    "time": 64.41717099999997,
                    "velocity": 0.5039370078740157,
                    "duration": 0.7078810000000004
                },
                {
                    "name": "D#5",
                    "midi": 75,
                    "time": 65.12505199999997,
                    "velocity": 0.4409448818897638,
                    "duration": 1.0618214999999935
                },
                {
                    "name": "F5",
                    "midi": 77,
                    "time": 66.18687349999996,
                    "velocity": 0.36220472440944884,
                    "duration": 0.17697024999999655
                },
                {
                    "name": "D#5",
                    "midi": 75,
                    "time": 66.36384374999996,
                    "velocity": 0.33070866141732286,
                    "duration": 0.17697024999999655
                },
                {
                    "name": "D5",
                    "midi": 74,
                    "time": 66.54081399999995,
                    "velocity": 0.3543307086614173,
                    "duration": 0.7078810000000004
                },
                {
                    "name": "G4",
                    "midi": 67,
                    "time": 67.95657599999996,
                    "velocity": 0.2440944881889764,
                    "duration": 1.4157620000000009
                },
                {
                    "name": "A#4",
                    "midi": 70,
                    "time": 67.95657599999996,
                    "velocity": 0.3543307086614173,
                    "duration": 1.4157620000000009
                },
                {
                    "name": "D#4",
                    "midi": 63,
                    "time": 69.37233799999996,
                    "velocity": 0.2283464566929134,
                    "duration": 0.7078810000000004
                },
                {
                    "name": "G4",
                    "midi": 67,
                    "time": 69.37233799999996,
                    "velocity": 0.3464566929133858,
                    "duration": 0.7078810000000004
                },
                {
                    "name": "A#3",
                    "midi": 58,
                    "time": 70.08021899999996,
                    "velocity": 0.23622047244094488,
                    "duration": 0.7078810000000004
                },
                {
                    "name": "F4",
                    "midi": 65,
                    "time": 70.08021899999996,
                    "velocity": 0.3543307086614173,
                    "duration": 0.7078810000000004
                },
                {
                    "name": "G3",
                    "midi": 55,
                    "time": 70.78809999999996,
                    "velocity": 0.23622047244094488,
                    "duration": 0.7078810000000004
                },
                {
                    "name": "D#4",
                    "midi": 63,
                    "time": 70.78809999999996,
                    "velocity": 0.3543307086614173,
                    "duration": 0.7078810000000004
                },
                {
                    "name": "A#3",
                    "midi": 58,
                    "time": 71.49598099999996,
                    "velocity": 0.33858267716535434,
                    "duration": 0.7078810000000004
                },
                {
                    "name": "D#4",
                    "midi": 63,
                    "time": 72.20386199999996,
                    "velocity": 0.3543307086614173,
                    "duration": 0.7078810000000004
                },
                {
                    "name": "D4",
                    "midi": 62,
                    "time": 72.91174299999996,
                    "velocity": 0.2440944881889764,
                    "duration": 0.7078810000000004
                },
                {
                    "name": "F4",
                    "midi": 65,
                    "time": 72.91174299999996,
                    "velocity": 0.3543307086614173,
                    "duration": 0.7078810000000004
                },
                {
                    "name": "D#4",
                    "midi": 63,
                    "time": 73.61962399999996,
                    "velocity": 0.2677165354330709,
                    "duration": 2.8315240000000017
                },
                {
                    "name": "G4",
                    "midi": 67,
                    "time": 73.61962399999996,
                    "velocity": 0.3700787401574803,
                    "duration": 0.7078810000000004
                },
                {
                    "name": "G#4",
                    "midi": 68,
                    "time": 74.32750499999996,
                    "velocity": 0.48031496062992124,
                    "duration": 0.7078810000000004
                },
                {
                    "name": "A#4",
                    "midi": 70,
                    "time": 75.03538599999996,
                    "velocity": 0.4881889763779528,
                    "duration": 0.7078810000000004
                },
                {
                    "name": "C5",
                    "midi": 72,
                    "time": 75.74326699999996,
                    "velocity": 0.4881889763779528,
                    "duration": 0.7078810000000004
                },
                {
                    "name": "G4",
                    "midi": 67,
                    "time": 76.45114799999996,
                    "velocity": 0.44881889763779526,
                    "duration": 1.0618214999999935
                },
                {
                    "name": "D#4",
                    "midi": 63,
                    "time": 76.45114799999996,
                    "velocity": 0.31496062992125984,
                    "duration": 1.4157619999999866
                },
                {
                    "name": "G#4",
                    "midi": 68,
                    "time": 77.51296949999995,
                    "velocity": 0.3779527559055118,
                    "duration": 0.3539404999999931
                },
                {
                    "name": "D4",
                    "midi": 62,
                    "time": 77.86690999999995,
                    "velocity": 0.2755905511811024,
                    "duration": 1.4157619999999724
                },
                {
                    "name": "F4",
                    "midi": 65,
                    "time": 77.86690999999995,
                    "velocity": 0.3937007874015748,
                    "duration": 0.38343554166665683
                },
                {
                    "name": "G4",
                    "midi": 67,
                    "time": 78.22085049999994,
                    "velocity": 0.3779527559055118,
                    "duration": 0.38343554166665683
                },
                {
                    "name": "G#4",
                    "midi": 68,
                    "time": 78.57479099999993,
                    "velocity": 0.3858267716535433,
                    "duration": 0.38343554166665683
                },
                {
                    "name": "A4",
                    "midi": 69,
                    "time": 78.92873149999993,
                    "velocity": 0.3858267716535433,
                    "duration": 0.3539404999999931
                },
                {
                    "name": "A#4",
                    "midi": 70,
                    "time": 79.28267199999992,
                    "velocity": 0.3937007874015748,
                    "duration": 2.8315240000000017
                },
                {
                    "name": "A#5",
                    "midi": 82,
                    "time": 79.28267199999992,
                    "velocity": 0.4645669291338583,
                    "duration": 1.4157620000000009
                },
                {
                    "name": "G5",
                    "midi": 79,
                    "time": 80.69843399999992,
                    "velocity": 0.4881889763779528,
                    "duration": 0.7078810000000004
                },
                {
                    "name": "F5",
                    "midi": 77,
                    "time": 81.40631499999992,
                    "velocity": 0.4566929133858268,
                    "duration": 0.7078810000000004
                },
                {
                    "name": "A#4",
                    "midi": 70,
                    "time": 82.11419599999992,
                    "velocity": 0.3937007874015748,
                    "duration": 0.5309107500000039
                },
                {
                    "name": "D#5",
                    "midi": 75,
                    "time": 82.11419599999992,
                    "velocity": 0.47244094488188976,
                    "duration": 0.5309107500000039
                },
                {
                    "name": "D5",
                    "midi": 74,
                    "time": 82.82207699999992,
                    "velocity": 0.36220472440944884,
                    "duration": 0.5309107500000039
                },
                {
                    "name": "F5",
                    "midi": 77,
                    "time": 82.82207699999992,
                    "velocity": 0.4330708661417323,
                    "duration": 0.5309107500000039
                },
                {
                    "name": "D#5",
                    "midi": 75,
                    "time": 83.52995799999992,
                    "velocity": 0.3858267716535433,
                    "duration": 0.5309107500000039
                },
                {
                    "name": "G5",
                    "midi": 79,
                    "time": 83.52995799999992,
                    "velocity": 0.4566929133858268,
                    "duration": 0.5309107500000039
                },
                {
                    "name": "D#5",
                    "midi": 75,
                    "time": 84.23783899999992,
                    "velocity": 0.4015748031496063,
                    "duration": 0.5309107500000039
                },
                {
                    "name": "G#5",
                    "midi": 80,
                    "time": 84.23783899999992,
                    "velocity": 0.48031496062992124,
                    "duration": 0.5309107500000039
                },
                {
                    "name": "A#5",
                    "midi": 82,
                    "time": 84.94571999999992,
                    "velocity": 0.49606299212598426,
                    "duration": 0.7078810000000004
                },
                {
                    "name": "D#5",
                    "midi": 75,
                    "time": 84.94571999999992,
                    "velocity": 0.4251968503937008,
                    "duration": 0.7078810000000004
                },
                {
                    "name": "B5",
                    "midi": 83,
                    "time": 85.65360099999992,
                    "velocity": 0.4881889763779528,
                    "duration": 0.20646529166666028
                },
                {
                    "name": "C6",
                    "midi": 84,
                    "time": 85.83057124999992,
                    "velocity": 0.4645669291338583,
                    "duration": 0.20646529166666028
                },
                {
                    "name": "G#5",
                    "midi": 80,
                    "time": 86.00754149999992,
                    "velocity": 0.4645669291338583,
                    "duration": 0.20646529166666028
                },
                {
                    "name": "F5",
                    "midi": 77,
                    "time": 86.18451174999991,
                    "velocity": 0.44881889763779526,
                    "duration": 0.17697024999999655
                },
                {
                    "name": "D#5",
                    "midi": 75,
                    "time": 86.36148199999991,
                    "velocity": 0.5039370078740157,
                    "duration": 0.7078810000000004
                },
                {
                    "name": "G5",
                    "midi": 79,
                    "time": 87.06936299999991,
                    "velocity": 0.47244094488188976,
                    "duration": 0.20646529166666028
                },
                {
                    "name": "F5",
                    "midi": 77,
                    "time": 87.2463332499999,
                    "velocity": 0.4409448818897638,
                    "duration": 0.20646529166666028
                },
                {
                    "name": "E5",
                    "midi": 76,
                    "time": 87.4233034999999,
                    "velocity": 0.4409448818897638,
                    "duration": 0.20646529166666028
                },
                {
                    "name": "F5",
                    "midi": 77,
                    "time": 87.6002737499999,
                    "velocity": 0.41732283464566927,
                    "duration": 0.14747520833333283
                },
                {
                    "name": "D5",
                    "midi": 74,
                    "time": 87.7772439999999,
                    "velocity": 0.4015748031496063,
                    "duration": 1.4157620000000009
                },
                {
                    "name": "F5",
                    "midi": 77,
                    "time": 87.7772439999999,
                    "velocity": 0.48031496062992124,
                    "duration": 1.4157620000000009
                },
                {
                    "name": "D#5",
                    "midi": 75,
                    "time": 89.1930059999999,
                    "velocity": 0.4251968503937008,
                    "duration": 0.7078810000000004
                },
                {
                    "name": "F5",
                    "midi": 77,
                    "time": 90.6087679999999,
                    "velocity": 0.47244094488188976,
                    "duration": 1.4157620000000009
                },
                {
                    "name": "G5",
                    "midi": 79,
                    "time": 92.0245299999999,
                    "velocity": 0.47244094488188976,
                    "duration": 0.7078810000000004
                },
                {
                    "name": "D#5",
                    "midi": 75,
                    "time": 92.7324109999999,
                    "velocity": 0.4330708661417323,
                    "duration": 0.7078810000000004
                },
                {
                    "name": "G#5",
                    "midi": 80,
                    "time": 93.4402919999999,
                    "velocity": 0.47244094488188976,
                    "duration": 1.0618214999999935
                },
                {
                    "name": "F5",
                    "midi": 77,
                    "time": 94.5021134999999,
                    "velocity": 0.4251968503937008,
                    "duration": 0.3539404999999931
                },
                {
                    "name": "D5",
                    "midi": 74,
                    "time": 94.85605399999989,
                    "velocity": 0.4409448818897638,
                    "duration": 0.38343554166665683
                },
                {
                    "name": "D#5",
                    "midi": 75,
                    "time": 95.20999449999988,
                    "velocity": 0.4330708661417323,
                    "duration": 0.38343554166665683
                },
                {
                    "name": "F5",
                    "midi": 77,
                    "time": 95.56393499999987,
                    "velocity": 0.44881889763779526,
                    "duration": 0.38343554166665683
                },
                {
                    "name": "F#5",
                    "midi": 78,
                    "time": 95.91787549999987,
                    "velocity": 0.4645669291338583,
                    "duration": 0.38343554166665683
                },
                {
                    "name": "G5",
                    "midi": 79,
                    "time": 96.27181599999986,
                    "velocity": 0.47244094488188976,
                    "duration": 0.7078810000000004
                },
                {
                    "name": "G5",
                    "midi": 79,
                    "time": 96.97969699999986,
                    "velocity": 0.49606299212598426,
                    "duration": 0.7078810000000004
                },
                {
                    "name": "G#5",
                    "midi": 80,
                    "time": 97.68757799999986,
                    "velocity": 0.49606299212598426,
                    "duration": 0.7078810000000004
                },
                {
                    "name": "A5",
                    "midi": 81,
                    "time": 98.39545899999986,
                    "velocity": 0.49606299212598426,
                    "duration": 0.7078810000000004
                },
                {
                    "name": "A#5",
                    "midi": 82,
                    "time": 99.10333999999986,
                    "velocity": 0.5275590551181102,
                    "duration": 1.0618214999999935
                },
                {
                    "name": "C6",
                    "midi": 84,
                    "time": 100.16516149999985,
                    "velocity": 0.4566929133858268,
                    "duration": 0.14747520833333283
                },
                {
                    "name": "A#5",
                    "midi": 82,
                    "time": 100.28314166666652,
                    "velocity": 0.4566929133858268,
                    "duration": 0.14747520833333283
                },
                {
                    "name": "G#5",
                    "midi": 80,
                    "time": 100.40112183333319,
                    "velocity": 0.4566929133858268,
                    "duration": 0.14747520833333283
                },
                {
                    "name": "G5",
                    "midi": 79,
                    "time": 100.51910199999986,
                    "velocity": 0.4881889763779528,
                    "duration": 0.3539404999999931
                },
                {
                    "name": "G#5",
                    "midi": 80,
                    "time": 100.87304249999985,
                    "velocity": 0.4409448818897638,
                    "duration": 0.38343554166665683
                },
                {
                    "name": "A#5",
                    "midi": 82,
                    "time": 101.22698299999985,
                    "velocity": 0.47244094488188976,
                    "duration": 0.38343554166665683
                },
                {
                    "name": "B5",
                    "midi": 83,
                    "time": 101.58092349999984,
                    "velocity": 0.49606299212598426,
                    "duration": 0.3539404999999931
                },
                {
                    "name": "C6",
                    "midi": 84,
                    "time": 101.93486399999983,
                    "velocity": 0.49606299212598426,
                    "duration": 1.4157620000000009
                },
                {
                    "name": "A#5",
                    "midi": 82,
                    "time": 103.35062599999983,
                    "velocity": 0.49606299212598426,
                    "duration": 1.4157620000000009
                },
                {
                    "name": "A5",
                    "midi": 81,
                    "time": 104.76638799999984,
                    "velocity": 0.49606299212598426,
                    "duration": 1.4157620000000009
                },
                {
                    "name": "G#5",
                    "midi": 80,
                    "time": 106.18214999999984,
                    "velocity": 0.49606299212598426,
                    "duration": 1.4157620000000009
                },
                {
                    "name": "G5",
                    "midi": 79,
                    "time": 107.59791199999984,
                    "velocity": 0.5275590551181102,
                    "duration": 0.7078810000000004
                },
                {
                    "name": "D#6",
                    "midi": 87,
                    "time": 108.30579299999984,
                    "velocity": 0.5354330708661418,
                    "duration": 0.7078810000000004
                },
                {
                    "name": "F5",
                    "midi": 77,
                    "time": 109.01367399999984,
                    "velocity": 0.5275590551181102,
                    "duration": 0.7078810000000004
                },
                {
                    "name": "C6",
                    "midi": 84,
                    "time": 109.72155499999984,
                    "velocity": 0.5039370078740157,
                    "duration": 0.7078810000000004
                },
                {
                    "name": "D#5",
                    "midi": 75,
                    "time": 110.42943599999984,
                    "velocity": 0.4409448818897638,
                    "duration": 1.0618214999999935
                },
                {
                    "name": "F5",
                    "midi": 77,
                    "time": 111.49125749999983,
                    "velocity": 0.36220472440944884,
                    "duration": 0.17697024999999655
                },
                {
                    "name": "D#5",
                    "midi": 75,
                    "time": 111.66822774999983,
                    "velocity": 0.33070866141732286,
                    "duration": 0.17697024999999655
                },
                {
                    "name": "D5",
                    "midi": 74,
                    "time": 111.84519799999983,
                    "velocity": 0.3543307086614173,
                    "duration": 0.7078810000000004
                },
                {
                    "name": "G4",
                    "midi": 67,
                    "time": 113.26095999999983,
                    "velocity": 0.2440944881889764,
                    "duration": 1.4157620000000009
                },
                {
                    "name": "A#4",
                    "midi": 70,
                    "time": 113.26095999999983,
                    "velocity": 0.3543307086614173,
                    "duration": 1.4157620000000009
                },
                {
                    "name": "D#4",
                    "midi": 63,
                    "time": 114.67672199999983,
                    "velocity": 0.2283464566929134,
                    "duration": 0.7078810000000004
                },
                {
                    "name": "G4",
                    "midi": 67,
                    "time": 114.67672199999983,
                    "velocity": 0.3464566929133858,
                    "duration": 0.7078810000000004
                },
                {
                    "name": "A#3",
                    "midi": 58,
                    "time": 115.38460299999983,
                    "velocity": 0.23622047244094488,
                    "duration": 0.7078810000000004
                },
                {
                    "name": "F4",
                    "midi": 65,
                    "time": 115.38460299999983,
                    "velocity": 0.3543307086614173,
                    "duration": 0.7078810000000004
                },
                {
                    "name": "G3",
                    "midi": 55,
                    "time": 116.09248399999983,
                    "velocity": 0.23622047244094488,
                    "duration": 0.7078810000000004
                },
                {
                    "name": "D#4",
                    "midi": 63,
                    "time": 116.09248399999983,
                    "velocity": 0.3543307086614173,
                    "duration": 0.7078810000000004
                },
                {
                    "name": "A#3",
                    "midi": 58,
                    "time": 116.80036499999983,
                    "velocity": 0.33858267716535434,
                    "duration": 0.7078810000000004
                },
                {
                    "name": "D#4",
                    "midi": 63,
                    "time": 117.50824599999983,
                    "velocity": 0.3543307086614173,
                    "duration": 0.7078810000000004
                },
                {
                    "name": "D4",
                    "midi": 62,
                    "time": 118.21612699999983,
                    "velocity": 0.2440944881889764,
                    "duration": 0.7078810000000004
                },
                {
                    "name": "F4",
                    "midi": 65,
                    "time": 118.21612699999983,
                    "velocity": 0.3543307086614173,
                    "duration": 0.7078810000000004
                },
                {
                    "name": "D#4",
                    "midi": 63,
                    "time": 118.92400799999983,
                    "velocity": 0.2677165354330709,
                    "duration": 2.8315240000000017
                },
                {
                    "name": "G4",
                    "midi": 67,
                    "time": 118.92400799999983,
                    "velocity": 0.3700787401574803,
                    "duration": 0.7078810000000004
                },
                {
                    "name": "G#4",
                    "midi": 68,
                    "time": 119.63188899999983,
                    "velocity": 0.48031496062992124,
                    "duration": 0.7078810000000004
                },
                {
                    "name": "A#4",
                    "midi": 70,
                    "time": 120.33976999999983,
                    "velocity": 0.4881889763779528,
                    "duration": 0.7078810000000004
                },
                {
                    "name": "C5",
                    "midi": 72,
                    "time": 121.04765099999983,
                    "velocity": 0.4881889763779528,
                    "duration": 0.7078810000000004
                },
                {
                    "name": "G4",
                    "midi": 67,
                    "time": 121.75553199999983,
                    "velocity": 0.44881889763779526,
                    "duration": 1.0618214999999935
                },
                {
                    "name": "D#4",
                    "midi": 63,
                    "time": 121.75553199999983,
                    "velocity": 0.31496062992125984,
                    "duration": 1.4157619999999866
                },
                {
                    "name": "G#4",
                    "midi": 68,
                    "time": 122.81735349999983,
                    "velocity": 0.3779527559055118,
                    "duration": 0.3539404999999931
                },
                {
                    "name": "D4",
                    "midi": 62,
                    "time": 123.17129399999982,
                    "velocity": 0.2755905511811024,
                    "duration": 1.4157619999999724
                },
                {
                    "name": "F4",
                    "midi": 65,
                    "time": 123.17129399999982,
                    "velocity": 0.3937007874015748,
                    "duration": 0.38343554166665683
                },
                {
                    "name": "G4",
                    "midi": 67,
                    "time": 123.52523449999981,
                    "velocity": 0.3779527559055118,
                    "duration": 0.38343554166665683
                },
                {
                    "name": "G#4",
                    "midi": 68,
                    "time": 123.8791749999998,
                    "velocity": 0.3858267716535433,
                    "duration": 0.38343554166665683
                },
                {
                    "name": "A4",
                    "midi": 69,
                    "time": 124.2331154999998,
                    "velocity": 0.3858267716535433,
                    "duration": 0.3539404999999931
                },
                {
                    "name": "A#4",
                    "midi": 70,
                    "time": 124.58705599999979,
                    "velocity": 0.3937007874015748,
                    "duration": 2.8315240000000017
                },
                {
                    "name": "A#5",
                    "midi": 82,
                    "time": 124.58705599999979,
                    "velocity": 0.4645669291338583,
                    "duration": 1.4157620000000009
                },
                {
                    "name": "G5",
                    "midi": 79,
                    "time": 126.00281799999979,
                    "velocity": 0.4881889763779528,
                    "duration": 0.7078810000000004
                },
                {
                    "name": "F5",
                    "midi": 77,
                    "time": 126.71069899999979,
                    "velocity": 0.4566929133858268,
                    "duration": 0.7078810000000004
                },
                {
                    "name": "A#4",
                    "midi": 70,
                    "time": 127.41857999999979,
                    "velocity": 0.3937007874015748,
                    "duration": 0.5309107500000039
                },
                {
                    "name": "D#5",
                    "midi": 75,
                    "time": 127.41857999999979,
                    "velocity": 0.47244094488188976,
                    "duration": 0.5309107500000039
                },
                {
                    "name": "D5",
                    "midi": 74,
                    "time": 128.1264609999998,
                    "velocity": 0.36220472440944884,
                    "duration": 0.5309107500000039
                },
                {
                    "name": "F5",
                    "midi": 77,
                    "time": 128.1264609999998,
                    "velocity": 0.4330708661417323,
                    "duration": 0.5309107500000039
                },
                {
                    "name": "D#5",
                    "midi": 75,
                    "time": 128.83434199999982,
                    "velocity": 0.3858267716535433,
                    "duration": 0.5309107500000039
                },
                {
                    "name": "G5",
                    "midi": 79,
                    "time": 128.83434199999982,
                    "velocity": 0.4566929133858268,
                    "duration": 0.5309107500000039
                },
                {
                    "name": "D#5",
                    "midi": 75,
                    "time": 129.54222299999984,
                    "velocity": 0.4015748031496063,
                    "duration": 0.5309107500000039
                },
                {
                    "name": "G#5",
                    "midi": 80,
                    "time": 129.54222299999984,
                    "velocity": 0.48031496062992124,
                    "duration": 0.5309107500000039
                },
                {
                    "name": "A#5",
                    "midi": 82,
                    "time": 130.25010399999985,
                    "velocity": 0.49606299212598426,
                    "duration": 0.7078809999999862
                },
                {
                    "name": "D#5",
                    "midi": 75,
                    "time": 130.25010399999985,
                    "velocity": 0.4251968503937008,
                    "duration": 0.7078809999999862
                },
                {
                    "name": "B5",
                    "midi": 83,
                    "time": 130.95798499999984,
                    "velocity": 0.4881889763779528,
                    "duration": 0.2064652916666887
                },
                {
                    "name": "C6",
                    "midi": 84,
                    "time": 131.13495524999985,
                    "velocity": 0.4645669291338583,
                    "duration": 0.2064652916666887
                },
                {
                    "name": "G#5",
                    "midi": 80,
                    "time": 131.31192549999986,
                    "velocity": 0.4645669291338583,
                    "duration": 0.2064652916666887
                },
                {
                    "name": "F5",
                    "midi": 77,
                    "time": 131.48889574999987,
                    "velocity": 0.44881889763779526,
                    "duration": 0.17697025000001076
                },
                {
                    "name": "D#5",
                    "midi": 75,
                    "time": 131.66586599999988,
                    "velocity": 0.5039370078740157,
                    "duration": 0.7078809999999862
                },
                {
                    "name": "G5",
                    "midi": 79,
                    "time": 132.37374699999987,
                    "velocity": 0.47244094488188976,
                    "duration": 0.2064652916666887
                },
                {
                    "name": "F5",
                    "midi": 77,
                    "time": 132.55071724999988,
                    "velocity": 0.4409448818897638,
                    "duration": 0.2064652916666887
                },
                {
                    "name": "E5",
                    "midi": 76,
                    "time": 132.7276874999999,
                    "velocity": 0.4409448818897638,
                    "duration": 0.2064652916666887
                },
                {
                    "name": "F5",
                    "midi": 77,
                    "time": 132.9046577499999,
                    "velocity": 0.41732283464566927,
                    "duration": 0.14747520833333283
                },
                {
                    "name": "D5",
                    "midi": 74,
                    "time": 133.0816279999999,
                    "velocity": 0.4015748031496063,
                    "duration": 1.4157620000000009
                },
                {
                    "name": "F5",
                    "midi": 77,
                    "time": 133.0816279999999,
                    "velocity": 0.48031496062992124,
                    "duration": 1.4157620000000009
                },
                {
                    "name": "D#5",
                    "midi": 75,
                    "time": 134.4973899999999,
                    "velocity": 0.4251968503937008,
                    "duration": 0.7078809999999862
                },
                {
                    "name": "D#5",
                    "midi": 75,
                    "time": 135.91315199999988,
                    "velocity": 0.3858267716535433,
                    "duration": 1.0618215000000077
                },
                {
                    "name": "G5",
                    "midi": 79,
                    "time": 135.91315199999988,
                    "velocity": 0.4645669291338583,
                    "duration": 1.0618215000000077
                },
                {
                    "name": "D5",
                    "midi": 74,
                    "time": 136.9749734999999,
                    "velocity": 0.3700787401574803,
                    "duration": 0.3539404999999931
                },
                {
                    "name": "F5",
                    "midi": 77,
                    "time": 136.9749734999999,
                    "velocity": 0.4409448818897638,
                    "duration": 0.3539404999999931
                },
                {
                    "name": "C5",
                    "midi": 72,
                    "time": 137.32891399999988,
                    "velocity": 0.3700787401574803,
                    "duration": 0.7078809999999862
                },
                {
                    "name": "D#5",
                    "midi": 75,
                    "time": 137.32891399999988,
                    "velocity": 0.4409448818897638,
                    "duration": 0.7078809999999862
                },
                {
                    "name": "F5",
                    "midi": 77,
                    "time": 138.74467599999986,
                    "velocity": 0.4094488188976378,
                    "duration": 1.0618215000000077
                },
                {
                    "name": "G#5",
                    "midi": 80,
                    "time": 138.74467599999986,
                    "velocity": 0.49606299212598426,
                    "duration": 1.0618215000000077
                },
                {
                    "name": "D#5",
                    "midi": 75,
                    "time": 139.80649749999986,
                    "velocity": 0.36220472440944884,
                    "duration": 0.3539404999999931
                },
                {
                    "name": "G5",
                    "midi": 79,
                    "time": 139.80649749999986,
                    "velocity": 0.4251968503937008,
                    "duration": 0.3539404999999931
                },
                {
                    "name": "D5",
                    "midi": 74,
                    "time": 140.16043799999986,
                    "velocity": 0.3779527559055118,
                    "duration": 0.7078809999999862
                },
                {
                    "name": "F5",
                    "midi": 77,
                    "time": 140.16043799999986,
                    "velocity": 0.4566929133858268,
                    "duration": 0.7078809999999862
                },
                {
                    "name": "C5",
                    "midi": 72,
                    "time": 141.93014049999985,
                    "velocity": 0.3700787401574803,
                    "duration": 0.38933455000000095
                },
                {
                    "name": "D#5",
                    "midi": 75,
                    "time": 141.93014049999985,
                    "velocity": 0.44881889763779526,
                    "duration": 0.38933455000000095
                },
                {
                    "name": "D5",
                    "midi": 74,
                    "time": 142.28408099999984,
                    "velocity": 0.3937007874015748,
                    "duration": 0.38933455000002937
                },
                {
                    "name": "F5",
                    "midi": 77,
                    "time": 142.28408099999984,
                    "velocity": 0.47244094488188976,
                    "duration": 0.38933455000002937
                },
                {
                    "name": "D#5",
                    "midi": 75,
                    "time": 142.63802149999987,
                    "velocity": 0.4094488188976378,
                    "duration": 0.26545537500001615
                },
                {
                    "name": "G5",
                    "midi": 79,
                    "time": 142.63802149999987,
                    "velocity": 0.4881889763779528,
                    "duration": 0.26545537500001615
                },
                {
                    "name": "D#5",
                    "midi": 75,
                    "time": 142.9919619999999,
                    "velocity": 0.4015748031496063,
                    "duration": 0.3539404999999931
                },
                {
                    "name": "G5",
                    "midi": 79,
                    "time": 142.9919619999999,
                    "velocity": 0.48031496062992124,
                    "duration": 0.3539404999999931
                },
                {
                    "name": "D5",
                    "midi": 74,
                    "time": 143.34590249999988,
                    "velocity": 0.3937007874015748,
                    "duration": 0.3539404999999931
                },
                {
                    "name": "F5",
                    "midi": 77,
                    "time": 143.34590249999988,
                    "velocity": 0.47244094488188976,
                    "duration": 0.3539404999999931
                },
                {
                    "name": "D5",
                    "midi": 74,
                    "time": 143.69984299999987,
                    "velocity": 0.3779527559055118,
                    "duration": 0.3539404999999931
                },
                {
                    "name": "F5",
                    "midi": 77,
                    "time": 143.69984299999987,
                    "velocity": 0.4566929133858268,
                    "duration": 0.3539404999999931
                },
                {
                    "name": "C5",
                    "midi": 72,
                    "time": 144.05378349999987,
                    "velocity": 0.3700787401574803,
                    "duration": 0.2654553749999877
                },
                {
                    "name": "D#5",
                    "midi": 75,
                    "time": 144.05378349999987,
                    "velocity": 0.4409448818897638,
                    "duration": 0.2654553749999877
                },
                {
                    "name": "C5",
                    "midi": 72,
                    "time": 144.40772399999986,
                    "velocity": 0.3858267716535433,
                    "duration": 1.4157620000000009
                },
                {
                    "name": "D#5",
                    "midi": 75,
                    "time": 144.40772399999986,
                    "velocity": 0.4566929133858268,
                    "duration": 1.4157620000000009
                },
                {
                    "name": "B4",
                    "midi": 71,
                    "time": 145.82348599999986,
                    "velocity": 0.3543307086614173,
                    "duration": 0.7078809999999862
                },
                {
                    "name": "D5",
                    "midi": 74,
                    "time": 145.82348599999986,
                    "velocity": 0.4251968503937008,
                    "duration": 0.7078809999999862
                },
                {
                    "name": "D#5",
                    "midi": 75,
                    "time": 147.59318849999985,
                    "velocity": 0.44881889763779526,
                    "duration": 0.3539404999999931
                },
                {
                    "name": "C5",
                    "midi": 72,
                    "time": 147.94712899999985,
                    "velocity": 0.41732283464566927,
                    "duration": 0.3539404999999931
                },
                {
                    "name": "G#4",
                    "midi": 68,
                    "time": 148.30106949999984,
                    "velocity": 0.41732283464566927,
                    "duration": 0.3539404999999931
                },
                {
                    "name": "G4",
                    "midi": 67,
                    "time": 148.65500999999983,
                    "velocity": 0.41732283464566927,
                    "duration": 0.7078809999999862
                },
                {
                    "name": "F#4",
                    "midi": 66,
                    "time": 149.36289099999982,
                    "velocity": 0.4330708661417323,
                    "duration": 0.7078809999999862
                },
                {
                    "name": "A#5",
                    "midi": 82,
                    "time": 150.4247124999998,
                    "velocity": 0.48031496062992124,
                    "duration": 0.3539404999999931
                },
                {
                    "name": "G5",
                    "midi": 79,
                    "time": 150.7786529999998,
                    "velocity": 0.48031496062992124,
                    "duration": 0.3539404999999931
                },
                {
                    "name": "D#5",
                    "midi": 75,
                    "time": 151.13259349999979,
                    "velocity": 0.48031496062992124,
                    "duration": 0.3539404999999931
                },
                {
                    "name": "D5",
                    "midi": 74,
                    "time": 151.48653399999978,
                    "velocity": 0.5118110236220472,
                    "duration": 0.7078809999999862
                },
                {
                    "name": "C#5",
                    "midi": 73,
                    "time": 152.19441499999976,
                    "velocity": 0.48031496062992124,
                    "duration": 0.7078809999999862
                },
                {
                    "name": "D5",
                    "midi": 74,
                    "time": 153.25623649999974,
                    "velocity": 0.4251968503937008,
                    "duration": 0.3539404999999931
                },
                {
                    "name": "A#4",
                    "midi": 70,
                    "time": 153.96411749999973,
                    "velocity": 0.41732283464566927,
                    "duration": 0.3539404999999931
                },
                {
                    "name": "G4",
                    "midi": 67,
                    "time": 153.96411749999973,
                    "velocity": 0.3543307086614173,
                    "duration": 0.3539404999999931
                },
                {
                    "name": "A4",
                    "midi": 69,
                    "time": 154.67199849999972,
                    "velocity": 0.3543307086614173,
                    "duration": 0.3539404999999931
                },
                {
                    "name": "C5",
                    "midi": 72,
                    "time": 154.67199849999972,
                    "velocity": 0.41732283464566927,
                    "duration": 0.3539404999999931
                },
                {
                    "name": "A4",
                    "midi": 69,
                    "time": 155.3798794999997,
                    "velocity": 0.3543307086614173,
                    "duration": 0.3539404999999931
                },
                {
                    "name": "F#4",
                    "midi": 66,
                    "time": 155.3798794999997,
                    "velocity": 0.41732283464566927,
                    "duration": 0.3539404999999931
                },
                {
                    "name": "G4",
                    "midi": 67,
                    "time": 156.0877604999997,
                    "velocity": 0.3858267716535433,
                    "duration": 0.3539404999999931
                },
                {
                    "name": "A4",
                    "midi": 69,
                    "time": 156.44170099999968,
                    "velocity": 0.3858267716535433,
                    "duration": 0.3539404999999931
                },
                {
                    "name": "B4",
                    "midi": 71,
                    "time": 156.79564149999968,
                    "velocity": 0.3858267716535433,
                    "duration": 0.3539404999999931
                },
                {
                    "name": "A4",
                    "midi": 69,
                    "time": 157.14958199999967,
                    "velocity": 0.3228346456692913,
                    "duration": 0.3539404999999931
                },
                {
                    "name": "C5",
                    "midi": 72,
                    "time": 157.14958199999967,
                    "velocity": 0.3858267716535433,
                    "duration": 0.3539404999999931
                },
                {
                    "name": "B4",
                    "midi": 71,
                    "time": 157.50352249999966,
                    "velocity": 0.33070866141732286,
                    "duration": 0.3539404999999931
                },
                {
                    "name": "D5",
                    "midi": 74,
                    "time": 157.50352249999966,
                    "velocity": 0.3937007874015748,
                    "duration": 0.3539404999999931
                },
                {
                    "name": "C5",
                    "midi": 72,
                    "time": 157.85746299999965,
                    "velocity": 0.3464566929133858,
                    "duration": 0.3539404999999931
                },
                {
                    "name": "D#5",
                    "midi": 75,
                    "time": 157.85746299999965,
                    "velocity": 0.4094488188976378,
                    "duration": 0.3539404999999931
                },
                {
                    "name": "D5",
                    "midi": 74,
                    "time": 158.21140349999965,
                    "velocity": 0.3543307086614173,
                    "duration": 0.3539404999999931
                },
                {
                    "name": "F5",
                    "midi": 77,
                    "time": 158.21140349999965,
                    "velocity": 0.4251968503937008,
                    "duration": 0.3539404999999931
                },
                {
                    "name": "D#5",
                    "midi": 75,
                    "time": 158.56534399999964,
                    "velocity": 0.3858267716535433,
                    "duration": 1.0618215000000077
                },
                {
                    "name": "G5",
                    "midi": 79,
                    "time": 158.56534399999964,
                    "velocity": 0.4645669291338583,
                    "duration": 1.0618215000000077
                },
                {
                    "name": "D5",
                    "midi": 74,
                    "time": 159.62716549999965,
                    "velocity": 0.3700787401574803,
                    "duration": 0.3539404999999931
                },
                {
                    "name": "F5",
                    "midi": 77,
                    "time": 159.62716549999965,
                    "velocity": 0.4409448818897638,
                    "duration": 0.3539404999999931
                },
                {
                    "name": "C5",
                    "midi": 72,
                    "time": 159.98110599999964,
                    "velocity": 0.3700787401574803,
                    "duration": 0.7078809999999862
                },
                {
                    "name": "D#5",
                    "midi": 75,
                    "time": 159.98110599999964,
                    "velocity": 0.4409448818897638,
                    "duration": 0.7078809999999862
                },
                {
                    "name": "F5",
                    "midi": 77,
                    "time": 161.3968679999996,
                    "velocity": 0.4094488188976378,
                    "duration": 1.0618215000000077
                },
                {
                    "name": "G#5",
                    "midi": 80,
                    "time": 161.3968679999996,
                    "velocity": 0.49606299212598426,
                    "duration": 1.0618215000000077
                },
                {
                    "name": "D#5",
                    "midi": 75,
                    "time": 162.45868949999962,
                    "velocity": 0.36220472440944884,
                    "duration": 0.3539404999999931
                },
                {
                    "name": "G5",
                    "midi": 79,
                    "time": 162.45868949999962,
                    "velocity": 0.4251968503937008,
                    "duration": 0.3539404999999931
                },
                {
                    "name": "D5",
                    "midi": 74,
                    "time": 162.81262999999961,
                    "velocity": 0.3779527559055118,
                    "duration": 0.7078809999999862
                },
                {
                    "name": "F5",
                    "midi": 77,
                    "time": 162.81262999999961,
                    "velocity": 0.4566929133858268,
                    "duration": 0.7078809999999862
                },
                {
                    "name": "C5",
                    "midi": 72,
                    "time": 164.5823324999996,
                    "velocity": 0.3700787401574803,
                    "duration": 0.38933455000000095
                },
                {
                    "name": "D#5",
                    "midi": 75,
                    "time": 164.5823324999996,
                    "velocity": 0.44881889763779526,
                    "duration": 0.38933455000000095
                },
                {
                    "name": "D5",
                    "midi": 74,
                    "time": 164.9362729999996,
                    "velocity": 0.3937007874015748,
                    "duration": 0.38933455000002937
                },
                {
                    "name": "F5",
                    "midi": 77,
                    "time": 164.9362729999996,
                    "velocity": 0.47244094488188976,
                    "duration": 0.38933455000002937
                },
                {
                    "name": "D#5",
                    "midi": 75,
                    "time": 165.29021349999962,
                    "velocity": 0.4094488188976378,
                    "duration": 0.26545537500001615
                },
                {
                    "name": "G5",
                    "midi": 79,
                    "time": 165.29021349999962,
                    "velocity": 0.4881889763779528,
                    "duration": 0.26545537500001615
                },
                {
                    "name": "D#5",
                    "midi": 75,
                    "time": 165.64415399999965,
                    "velocity": 0.4015748031496063,
                    "duration": 0.3539404999999931
                },
                {
                    "name": "G5",
                    "midi": 79,
                    "time": 165.64415399999965,
                    "velocity": 0.48031496062992124,
                    "duration": 0.3539404999999931
                },
                {
                    "name": "D5",
                    "midi": 74,
                    "time": 165.99809449999964,
                    "velocity": 0.3937007874015748,
                    "duration": 0.3539404999999931
                },
                {
                    "name": "F5",
                    "midi": 77,
                    "time": 165.99809449999964,
                    "velocity": 0.47244094488188976,
                    "duration": 0.3539404999999931
                },
                {
                    "name": "D5",
                    "midi": 74,
                    "time": 166.35203499999963,
                    "velocity": 0.3779527559055118,
                    "duration": 0.3539404999999931
                },
                {
                    "name": "F5",
                    "midi": 77,
                    "time": 166.35203499999963,
                    "velocity": 0.4566929133858268,
                    "duration": 0.3539404999999931
                },
                {
                    "name": "C5",
                    "midi": 72,
                    "time": 166.70597549999962,
                    "velocity": 0.3700787401574803,
                    "duration": 0.2654553749999877
                },
                {
                    "name": "D#5",
                    "midi": 75,
                    "time": 166.70597549999962,
                    "velocity": 0.4409448818897638,
                    "duration": 0.2654553749999877
                },
                {
                    "name": "C5",
                    "midi": 72,
                    "time": 167.05991599999962,
                    "velocity": 0.3858267716535433,
                    "duration": 1.4157620000000009
                },
                {
                    "name": "D#5",
                    "midi": 75,
                    "time": 167.05991599999962,
                    "velocity": 0.4566929133858268,
                    "duration": 1.4157620000000009
                },
                {
                    "name": "B4",
                    "midi": 71,
                    "time": 168.47567799999962,
                    "velocity": 0.3543307086614173,
                    "duration": 0.7078809999999862
                },
                {
                    "name": "D5",
                    "midi": 74,
                    "time": 168.47567799999962,
                    "velocity": 0.4251968503937008,
                    "duration": 0.7078809999999862
                },
                {
                    "name": "D#5",
                    "midi": 75,
                    "time": 170.2453804999996,
                    "velocity": 0.44881889763779526,
                    "duration": 0.3539404999999931
                },
                {
                    "name": "C5",
                    "midi": 72,
                    "time": 170.5993209999996,
                    "velocity": 0.41732283464566927,
                    "duration": 0.3539404999999931
                },
                {
                    "name": "G#4",
                    "midi": 68,
                    "time": 170.9532614999996,
                    "velocity": 0.41732283464566927,
                    "duration": 0.3539404999999931
                },
                {
                    "name": "G4",
                    "midi": 67,
                    "time": 171.3072019999996,
                    "velocity": 0.41732283464566927,
                    "duration": 0.7078809999999862
                },
                {
                    "name": "F#4",
                    "midi": 66,
                    "time": 172.01508299999958,
                    "velocity": 0.4330708661417323,
                    "duration": 0.7078809999999862
                },
                {
                    "name": "A#5",
                    "midi": 82,
                    "time": 173.07690449999956,
                    "velocity": 0.48031496062992124,
                    "duration": 0.3539404999999931
                },
                {
                    "name": "G5",
                    "midi": 79,
                    "time": 173.43084499999955,
                    "velocity": 0.48031496062992124,
                    "duration": 0.3539404999999931
                },
                {
                    "name": "D#5",
                    "midi": 75,
                    "time": 173.78478549999954,
                    "velocity": 0.48031496062992124,
                    "duration": 0.3539404999999931
                },
                {
                    "name": "D5",
                    "midi": 74,
                    "time": 174.13872599999954,
                    "velocity": 0.5118110236220472,
                    "duration": 0.7078809999999862
                },
                {
                    "name": "C#5",
                    "midi": 73,
                    "time": 174.84660699999952,
                    "velocity": 0.48031496062992124,
                    "duration": 0.7078809999999862
                },
                {
                    "name": "D5",
                    "midi": 74,
                    "time": 175.9084284999995,
                    "velocity": 0.4251968503937008,
                    "duration": 0.3539404999999931
                },
                {
                    "name": "A#4",
                    "midi": 70,
                    "time": 176.6163094999995,
                    "velocity": 0.41732283464566927,
                    "duration": 0.3539404999999931
                },
                {
                    "name": "G4",
                    "midi": 67,
                    "time": 176.6163094999995,
                    "velocity": 0.3543307086614173,
                    "duration": 0.3539404999999931
                },
                {
                    "name": "A4",
                    "midi": 69,
                    "time": 177.32419049999947,
                    "velocity": 0.3543307086614173,
                    "duration": 0.3539404999999931
                },
                {
                    "name": "C5",
                    "midi": 72,
                    "time": 177.32419049999947,
                    "velocity": 0.41732283464566927,
                    "duration": 0.3539404999999931
                },
                {
                    "name": "A4",
                    "midi": 69,
                    "time": 178.03207149999946,
                    "velocity": 0.3543307086614173,
                    "duration": 0.3539404999999931
                },
                {
                    "name": "F#4",
                    "midi": 66,
                    "time": 178.03207149999946,
                    "velocity": 0.41732283464566927,
                    "duration": 0.3539404999999931
                },
                {
                    "name": "G4",
                    "midi": 67,
                    "time": 178.73995249999945,
                    "velocity": 0.3858267716535433,
                    "duration": 0.3539404999999931
                },
                {
                    "name": "A4",
                    "midi": 69,
                    "time": 179.09389299999944,
                    "velocity": 0.3858267716535433,
                    "duration": 0.3539404999999931
                },
                {
                    "name": "B4",
                    "midi": 71,
                    "time": 179.44783349999943,
                    "velocity": 0.3858267716535433,
                    "duration": 0.3539404999999931
                },
                {
                    "name": "A4",
                    "midi": 69,
                    "time": 179.80177399999943,
                    "velocity": 0.3228346456692913,
                    "duration": 0.3539404999999931
                },
                {
                    "name": "C5",
                    "midi": 72,
                    "time": 179.80177399999943,
                    "velocity": 0.3858267716535433,
                    "duration": 0.3539404999999931
                },
                {
                    "name": "B4",
                    "midi": 71,
                    "time": 180.15571449999942,
                    "velocity": 0.33070866141732286,
                    "duration": 0.3539404999999931
                },
                {
                    "name": "D5",
                    "midi": 74,
                    "time": 180.15571449999942,
                    "velocity": 0.3937007874015748,
                    "duration": 0.3539404999999931
                },
                {
                    "name": "C5",
                    "midi": 72,
                    "time": 180.5096549999994,
                    "velocity": 0.3464566929133858,
                    "duration": 0.3539404999999931
                },
                {
                    "name": "D#5",
                    "midi": 75,
                    "time": 180.5096549999994,
                    "velocity": 0.4094488188976378,
                    "duration": 0.3539404999999931
                },
                {
                    "name": "D5",
                    "midi": 74,
                    "time": 180.8635954999994,
                    "velocity": 0.3543307086614173,
                    "duration": 0.3539404999999931
                },
                {
                    "name": "F5",
                    "midi": 77,
                    "time": 180.8635954999994,
                    "velocity": 0.4251968503937008,
                    "duration": 0.3539404999999931
                },
                {
                    "name": "E5",
                    "midi": 76,
                    "time": 181.2175359999994,
                    "velocity": 0.3858267716535433,
                    "duration": 1.4157620000000009
                },
                {
                    "name": "G5",
                    "midi": 79,
                    "time": 181.2175359999994,
                    "velocity": 0.4645669291338583,
                    "duration": 1.4157620000000009
                },
                {
                    "name": "F5",
                    "midi": 77,
                    "time": 182.6332979999994,
                    "velocity": 0.3700787401574803,
                    "duration": 1.4157620000000009
                },
                {
                    "name": "G#5",
                    "midi": 80,
                    "time": 182.6332979999994,
                    "velocity": 0.4409448818897638,
                    "duration": 1.4157620000000009
                },
                {
                    "name": "G5",
                    "midi": 79,
                    "time": 184.0490599999994,
                    "velocity": 0.4094488188976378,
                    "duration": 1.4157620000000009
                },
                {
                    "name": "A#5",
                    "midi": 82,
                    "time": 184.0490599999994,
                    "velocity": 0.49606299212598426,
                    "duration": 1.4157620000000009
                },
                {
                    "name": "F5",
                    "midi": 77,
                    "time": 185.4648219999994,
                    "velocity": 0.3779527559055118,
                    "duration": 0.7078809999999862
                },
                {
                    "name": "G#5",
                    "midi": 80,
                    "time": 185.4648219999994,
                    "velocity": 0.4566929133858268,
                    "duration": 0.7078809999999862
                },
                {
                    "name": "D5",
                    "midi": 74,
                    "time": 186.88058399999937,
                    "velocity": 0.44881889763779526,
                    "duration": 1.4157620000000009
                },
                {
                    "name": "F5",
                    "midi": 77,
                    "time": 186.88058399999937,
                    "velocity": 0.5354330708661418,
                    "duration": 1.4157620000000009
                },
                {
                    "name": "D#5",
                    "midi": 75,
                    "time": 188.29634599999937,
                    "velocity": 0.4251968503937008,
                    "duration": 1.4157620000000009
                },
                {
                    "name": "G5",
                    "midi": 79,
                    "time": 188.29634599999937,
                    "velocity": 0.5039370078740157,
                    "duration": 1.4157620000000009
                },
                {
                    "name": "F5",
                    "midi": 77,
                    "time": 189.71210799999938,
                    "velocity": 0.44881889763779526,
                    "duration": 1.4157620000000009
                },
                {
                    "name": "G#5",
                    "midi": 80,
                    "time": 189.71210799999938,
                    "velocity": 0.5354330708661418,
                    "duration": 1.4157620000000009
                },
                {
                    "name": "D#5",
                    "midi": 75,
                    "time": 191.12786999999938,
                    "velocity": 0.4251968503937008,
                    "duration": 0.7078809999999862
                },
                {
                    "name": "G5",
                    "midi": 79,
                    "time": 191.12786999999938,
                    "velocity": 0.49606299212598426,
                    "duration": 0.7078809999999862
                },
                {
                    "name": "F#5",
                    "midi": 78,
                    "time": 192.89757249999937,
                    "velocity": 0.48031496062992124,
                    "duration": 0.38933455000000095
                },
                {
                    "name": "G5",
                    "midi": 79,
                    "time": 193.25151299999936,
                    "velocity": 0.49606299212598426,
                    "duration": 0.38933455000002937
                },
                {
                    "name": "F#5",
                    "midi": 78,
                    "time": 193.60545349999938,
                    "velocity": 0.47244094488188976,
                    "duration": 0.35394050000002153
                },
                {
                    "name": "D6",
                    "midi": 86,
                    "time": 193.9593939999994,
                    "velocity": 0.5196850393700787,
                    "duration": 0.7078809999999862
                },
                {
                    "name": "F5",
                    "midi": 77,
                    "time": 194.6672749999994,
                    "velocity": 0.4881889763779528,
                    "duration": 0.7078809999999862
                },
                {
                    "name": "E5",
                    "midi": 76,
                    "time": 195.72909649999937,
                    "velocity": 0.47244094488188976,
                    "duration": 0.38933455000000095
                },
                {
                    "name": "F5",
                    "midi": 77,
                    "time": 196.08303699999936,
                    "velocity": 0.4881889763779528,
                    "duration": 0.38933455000002937
                },
                {
                    "name": "E5",
                    "midi": 76,
                    "time": 196.4369774999994,
                    "velocity": 0.44881889763779526,
                    "duration": 0.35394050000002153
                },
                {
                    "name": "C6",
                    "midi": 84,
                    "time": 196.7909179999994,
                    "velocity": 0.49606299212598426,
                    "duration": 0.7078809999999862
                },
                {
                    "name": "D#5",
                    "midi": 75,
                    "time": 197.4987989999994,
                    "velocity": 0.44881889763779526,
                    "duration": 0.7078809999999862
                },
                {
                    "name": "C#5",
                    "midi": 73,
                    "time": 198.56062049999937,
                    "velocity": 0.4251968503937008,
                    "duration": 0.38933455000000095
                },
                {
                    "name": "C5",
                    "midi": 72,
                    "time": 198.91456099999937,
                    "velocity": 0.4409448818897638,
                    "duration": 0.38933455000002937
                },
                {
                    "name": "C#5",
                    "midi": 73,
                    "time": 199.2685014999994,
                    "velocity": 0.4251968503937008,
                    "duration": 0.38933455000002937
                },
                {
                    "name": "E5",
                    "midi": 76,
                    "time": 199.6224419999994,
                    "velocity": 0.4566929133858268,
                    "duration": 0.38933455000002937
                },
                {
                    "name": "F5",
                    "midi": 77,
                    "time": 199.97638249999943,
                    "velocity": 0.3937007874015748,
                    "duration": 0.38933455000002937
                },
                {
                    "name": "G5",
                    "midi": 79,
                    "time": 200.33032299999945,
                    "velocity": 0.41732283464566927,
                    "duration": 0.38933455000002937
                },
                {
                    "name": "G#5",
                    "midi": 80,
                    "time": 200.68426349999947,
                    "velocity": 0.4330708661417323,
                    "duration": 0.35394050000002153
                },
                {
                    "name": "C5",
                    "midi": 72,
                    "time": 201.0382039999995,
                    "velocity": 0.4330708661417323,
                    "duration": 1.4157620000000009
                },
                {
                    "name": "B4",
                    "midi": 71,
                    "time": 202.4539659999995,
                    "velocity": 0.4251968503937008,
                    "duration": 0.38933455000000095
                },
                {
                    "name": "D5",
                    "midi": 74,
                    "time": 202.8079064999995,
                    "velocity": 0.3858267716535433,
                    "duration": 0.38933455000002937
                },
                {
                    "name": "D#5",
                    "midi": 75,
                    "time": 203.1618469999995,
                    "velocity": 0.4094488188976378,
                    "duration": 0.38933455000002937
                },
                {
                    "name": "F5",
                    "midi": 77,
                    "time": 203.51578749999953,
                    "velocity": 0.4251968503937008,
                    "duration": 0.35394050000002153
                },
                {
                    "name": "D#5",
                    "midi": 75,
                    "time": 203.86972799999955,
                    "velocity": 0.3858267716535433,
                    "duration": 1.0618215000000077
                },
                {
                    "name": "G5",
                    "midi": 79,
                    "time": 203.86972799999955,
                    "velocity": 0.4645669291338583,
                    "duration": 1.0618215000000077
                },
                {
                    "name": "D5",
                    "midi": 74,
                    "time": 204.93154949999956,
                    "velocity": 0.3700787401574803,
                    "duration": 0.3539404999999931
                },
                {
                    "name": "F5",
                    "midi": 77,
                    "time": 204.93154949999956,
                    "velocity": 0.4409448818897638,
                    "duration": 0.3539404999999931
                },
                {
                    "name": "C5",
                    "midi": 72,
                    "time": 205.28548999999956,
                    "velocity": 0.3700787401574803,
                    "duration": 0.7078809999999862
                },
                {
                    "name": "D#5",
                    "midi": 75,
                    "time": 205.28548999999956,
                    "velocity": 0.4409448818897638,
                    "duration": 0.7078809999999862
                },
                {
                    "name": "F5",
                    "midi": 77,
                    "time": 206.70125199999953,
                    "velocity": 0.4094488188976378,
                    "duration": 1.0618215000000077
                },
                {
                    "name": "G#5",
                    "midi": 80,
                    "time": 206.70125199999953,
                    "velocity": 0.49606299212598426,
                    "duration": 1.0618215000000077
                },
                {
                    "name": "D#5",
                    "midi": 75,
                    "time": 207.76307349999954,
                    "velocity": 0.36220472440944884,
                    "duration": 0.3539404999999931
                },
                {
                    "name": "G5",
                    "midi": 79,
                    "time": 207.76307349999954,
                    "velocity": 0.4251968503937008,
                    "duration": 0.3539404999999931
                },
                {
                    "name": "D5",
                    "midi": 74,
                    "time": 208.11701399999953,
                    "velocity": 0.3779527559055118,
                    "duration": 0.7078809999999862
                },
                {
                    "name": "F5",
                    "midi": 77,
                    "time": 208.11701399999953,
                    "velocity": 0.4566929133858268,
                    "duration": 0.7078809999999862
                },
                {
                    "name": "C5",
                    "midi": 72,
                    "time": 209.88671649999952,
                    "velocity": 0.3700787401574803,
                    "duration": 0.38933455000000095
                },
                {
                    "name": "D#5",
                    "midi": 75,
                    "time": 209.88671649999952,
                    "velocity": 0.44881889763779526,
                    "duration": 0.38933455000000095
                },
                {
                    "name": "D5",
                    "midi": 74,
                    "time": 210.24065699999952,
                    "velocity": 0.3937007874015748,
                    "duration": 0.38933455000002937
                },
                {
                    "name": "F5",
                    "midi": 77,
                    "time": 210.24065699999952,
                    "velocity": 0.47244094488188976,
                    "duration": 0.38933455000002937
                },
                {
                    "name": "D#5",
                    "midi": 75,
                    "time": 210.59459749999954,
                    "velocity": 0.4094488188976378,
                    "duration": 0.26545537500001615
                },
                {
                    "name": "G5",
                    "midi": 79,
                    "time": 210.59459749999954,
                    "velocity": 0.4881889763779528,
                    "duration": 0.26545537500001615
                },
                {
                    "name": "D#5",
                    "midi": 75,
                    "time": 210.94853799999956,
                    "velocity": 0.4015748031496063,
                    "duration": 0.3539404999999931
                },
                {
                    "name": "G5",
                    "midi": 79,
                    "time": 210.94853799999956,
                    "velocity": 0.48031496062992124,
                    "duration": 0.3539404999999931
                },
                {
                    "name": "D5",
                    "midi": 74,
                    "time": 211.30247849999955,
                    "velocity": 0.3937007874015748,
                    "duration": 0.3539404999999931
                },
                {
                    "name": "F5",
                    "midi": 77,
                    "time": 211.30247849999955,
                    "velocity": 0.47244094488188976,
                    "duration": 0.3539404999999931
                },
                {
                    "name": "D5",
                    "midi": 74,
                    "time": 211.65641899999954,
                    "velocity": 0.3779527559055118,
                    "duration": 0.3539404999999931
                },
                {
                    "name": "F5",
                    "midi": 77,
                    "time": 211.65641899999954,
                    "velocity": 0.4566929133858268,
                    "duration": 0.3539404999999931
                },
                {
                    "name": "C5",
                    "midi": 72,
                    "time": 212.01035949999954,
                    "velocity": 0.3700787401574803,
                    "duration": 0.2654553749999877
                },
                {
                    "name": "D#5",
                    "midi": 75,
                    "time": 212.01035949999954,
                    "velocity": 0.4409448818897638,
                    "duration": 0.2654553749999877
                },
                {
                    "name": "C5",
                    "midi": 72,
                    "time": 212.36429999999953,
                    "velocity": 0.3858267716535433,
                    "duration": 1.4157620000000009
                },
                {
                    "name": "D#5",
                    "midi": 75,
                    "time": 212.36429999999953,
                    "velocity": 0.4566929133858268,
                    "duration": 1.4157620000000009
                },
                {
                    "name": "B4",
                    "midi": 71,
                    "time": 213.78006199999953,
                    "velocity": 0.3543307086614173,
                    "duration": 0.7078809999999862
                },
                {
                    "name": "D5",
                    "midi": 74,
                    "time": 213.78006199999953,
                    "velocity": 0.4251968503937008,
                    "duration": 0.7078809999999862
                },
                {
                    "name": "G5",
                    "midi": 79,
                    "time": 215.54976449999953,
                    "velocity": 0.48031496062992124,
                    "duration": 0.3539404999999931
                },
                {
                    "name": "D#5",
                    "midi": 75,
                    "time": 215.90370499999952,
                    "velocity": 0.4409448818897638,
                    "duration": 0.3539404999999931
                },
                {
                    "name": "B4",
                    "midi": 71,
                    "time": 216.2576454999995,
                    "velocity": 0.4409448818897638,
                    "duration": 0.3539404999999931
                },
                {
                    "name": "D5",
                    "midi": 74,
                    "time": 216.6115859999995,
                    "velocity": 0.47244094488188976,
                    "duration": 0.7078809999999862
                },
                {
                    "name": "C5",
                    "midi": 72,
                    "time": 217.3194669999995,
                    "velocity": 0.4330708661417323,
                    "duration": 0.7078809999999862
                },
                {
                    "name": "C6",
                    "midi": 84,
                    "time": 218.38128849999947,
                    "velocity": 0.48031496062992124,
                    "duration": 0.3539404999999931
                },
                {
                    "name": "G#5",
                    "midi": 80,
                    "time": 218.73522899999946,
                    "velocity": 0.48031496062992124,
                    "duration": 0.3539404999999931
                },
                {
                    "name": "E5",
                    "midi": 76,
                    "time": 219.08916949999946,
                    "velocity": 0.48031496062992124,
                    "duration": 0.3539404999999931
                },
                {
                    "name": "G5",
                    "midi": 79,
                    "time": 219.44310999999945,
                    "velocity": 0.5118110236220472,
                    "duration": 0.7078809999999862
                },
                {
                    "name": "F#5",
                    "midi": 78,
                    "time": 220.15099099999944,
                    "velocity": 0.48031496062992124,
                    "duration": 0.7078809999999862
                },
                {
                    "name": "G5",
                    "midi": 79,
                    "time": 221.21281249999942,
                    "velocity": 0.4251968503937008,
                    "duration": 0.3539404999999931
                },
                {
                    "name": "D#5",
                    "midi": 75,
                    "time": 221.9206934999994,
                    "velocity": 0.41732283464566927,
                    "duration": 0.3539404999999931
                },
                {
                    "name": "C5",
                    "midi": 72,
                    "time": 221.9206934999994,
                    "velocity": 0.3543307086614173,
                    "duration": 0.3539404999999931
                },
                {
                    "name": "D5",
                    "midi": 74,
                    "time": 222.6285744999994,
                    "velocity": 0.3543307086614173,
                    "duration": 0.3539404999999931
                },
                {
                    "name": "F5",
                    "midi": 77,
                    "time": 222.6285744999994,
                    "velocity": 0.41732283464566927,
                    "duration": 0.3539404999999931
                },
                {
                    "name": "D5",
                    "midi": 74,
                    "time": 223.33645549999937,
                    "velocity": 0.3543307086614173,
                    "duration": 0.3539404999999931
                },
                {
                    "name": "B4",
                    "midi": 71,
                    "time": 223.33645549999937,
                    "velocity": 0.41732283464566927,
                    "duration": 0.3539404999999931
                },
                {
                    "name": "B4",
                    "midi": 71,
                    "time": 224.04433649999936,
                    "velocity": 0.3858267716535433,
                    "duration": 0.3539404999999931
                },
                {
                    "name": "C5",
                    "midi": 72,
                    "time": 224.39827699999935,
                    "velocity": 0.3858267716535433,
                    "duration": 0.3539404999999931
                },
                {
                    "name": "B4",
                    "midi": 71,
                    "time": 224.75221749999935,
                    "velocity": 0.3858267716535433,
                    "duration": 0.3539404999999931
                },
                {
                    "name": "C5",
                    "midi": 72,
                    "time": 225.10615799999934,
                    "velocity": 0.3858267716535433,
                    "duration": 0.3539404999999931
                },
                {
                    "name": "B4",
                    "midi": 71,
                    "time": 225.46009849999933,
                    "velocity": 0.33070866141732286,
                    "duration": 0.3539404999999931
                },
                {
                    "name": "D5",
                    "midi": 74,
                    "time": 225.46009849999933,
                    "velocity": 0.3937007874015748,
                    "duration": 0.3539404999999931
                },
                {
                    "name": "C5",
                    "midi": 72,
                    "time": 225.81403899999933,
                    "velocity": 0.3464566929133858,
                    "duration": 0.3539404999999931
                },
                {
                    "name": "D#5",
                    "midi": 75,
                    "time": 225.81403899999933,
                    "velocity": 0.4094488188976378,
                    "duration": 0.3539404999999931
                },
                {
                    "name": "D5",
                    "midi": 74,
                    "time": 226.16797949999932,
                    "velocity": 0.3543307086614173,
                    "duration": 0.3539404999999931
                },
                {
                    "name": "F5",
                    "midi": 77,
                    "time": 226.16797949999932,
                    "velocity": 0.4251968503937008,
                    "duration": 0.3539404999999931
                },
                {
                    "name": "E5",
                    "midi": 76,
                    "time": 226.5219199999993,
                    "velocity": 0.3858267716535433,
                    "duration": 1.4157620000000009
                },
                {
                    "name": "G5",
                    "midi": 79,
                    "time": 226.5219199999993,
                    "velocity": 0.4645669291338583,
                    "duration": 1.4157620000000009
                },
                {
                    "name": "F5",
                    "midi": 77,
                    "time": 227.9376819999993,
                    "velocity": 0.3700787401574803,
                    "duration": 1.4157620000000009
                },
                {
                    "name": "G#5",
                    "midi": 80,
                    "time": 227.9376819999993,
                    "velocity": 0.4409448818897638,
                    "duration": 1.4157620000000009
                },
                {
                    "name": "G5",
                    "midi": 79,
                    "time": 229.3534439999993,
                    "velocity": 0.4094488188976378,
                    "duration": 1.4157620000000009
                },
                {
                    "name": "A#5",
                    "midi": 82,
                    "time": 229.3534439999993,
                    "velocity": 0.49606299212598426,
                    "duration": 1.4157620000000009
                },
                {
                    "name": "F5",
                    "midi": 77,
                    "time": 230.76920599999931,
                    "velocity": 0.3779527559055118,
                    "duration": 0.7078809999999862
                },
                {
                    "name": "G#5",
                    "midi": 80,
                    "time": 230.76920599999931,
                    "velocity": 0.4566929133858268,
                    "duration": 0.7078809999999862
                },
                {
                    "name": "D5",
                    "midi": 74,
                    "time": 232.1849679999993,
                    "velocity": 0.44881889763779526,
                    "duration": 1.4157620000000009
                },
                {
                    "name": "F5",
                    "midi": 77,
                    "time": 232.1849679999993,
                    "velocity": 0.5354330708661418,
                    "duration": 1.4157620000000009
                },
                {
                    "name": "D#5",
                    "midi": 75,
                    "time": 233.6007299999993,
                    "velocity": 0.4251968503937008,
                    "duration": 1.4157620000000009
                },
                {
                    "name": "G5",
                    "midi": 79,
                    "time": 233.6007299999993,
                    "velocity": 0.5039370078740157,
                    "duration": 1.4157620000000009
                },
                {
                    "name": "F5",
                    "midi": 77,
                    "time": 235.0164919999993,
                    "velocity": 0.44881889763779526,
                    "duration": 1.4157620000000009
                },
                {
                    "name": "G#5",
                    "midi": 80,
                    "time": 235.0164919999993,
                    "velocity": 0.5354330708661418,
                    "duration": 1.4157620000000009
                },
                {
                    "name": "D#5",
                    "midi": 75,
                    "time": 236.4322539999993,
                    "velocity": 0.4251968503937008,
                    "duration": 0.7078809999999862
                },
                {
                    "name": "G5",
                    "midi": 79,
                    "time": 236.4322539999993,
                    "velocity": 0.49606299212598426,
                    "duration": 0.7078809999999862
                },
                {
                    "name": "F#5",
                    "midi": 78,
                    "time": 238.20195649999928,
                    "velocity": 0.48031496062992124,
                    "duration": 0.38933455000000095
                },
                {
                    "name": "G5",
                    "midi": 79,
                    "time": 238.55589699999928,
                    "velocity": 0.49606299212598426,
                    "duration": 0.38933455000002937
                },
                {
                    "name": "F#5",
                    "midi": 78,
                    "time": 238.9098374999993,
                    "velocity": 0.47244094488188976,
                    "duration": 0.35394050000002153
                },
                {
                    "name": "D6",
                    "midi": 86,
                    "time": 239.26377799999932,
                    "velocity": 0.5196850393700787,
                    "duration": 0.7078809999999862
                },
                {
                    "name": "F5",
                    "midi": 77,
                    "time": 239.9716589999993,
                    "velocity": 0.4881889763779528,
                    "duration": 0.7078809999999862
                },
                {
                    "name": "E5",
                    "midi": 76,
                    "time": 241.03348049999929,
                    "velocity": 0.47244094488188976,
                    "duration": 0.38933455000000095
                },
                {
                    "name": "F5",
                    "midi": 77,
                    "time": 241.38742099999928,
                    "velocity": 0.4881889763779528,
                    "duration": 0.38933455000002937
                },
                {
                    "name": "E5",
                    "midi": 76,
                    "time": 241.7413614999993,
                    "velocity": 0.44881889763779526,
                    "duration": 0.35394050000002153
                },
                {
                    "name": "C6",
                    "midi": 84,
                    "time": 242.09530199999932,
                    "velocity": 0.49606299212598426,
                    "duration": 0.7078809999999862
                },
                {
                    "name": "D#5",
                    "midi": 75,
                    "time": 242.8031829999993,
                    "velocity": 0.44881889763779526,
                    "duration": 0.7078809999999862
                },
                {
                    "name": "C#5",
                    "midi": 73,
                    "time": 243.8650044999993,
                    "velocity": 0.4251968503937008,
                    "duration": 0.38933455000000095
                },
                {
                    "name": "C5",
                    "midi": 72,
                    "time": 244.21894499999928,
                    "velocity": 0.4409448818897638,
                    "duration": 0.38933455000002937
                },
                {
                    "name": "C#5",
                    "midi": 73,
                    "time": 244.5728854999993,
                    "velocity": 0.4251968503937008,
                    "duration": 0.38933455000002937
                },
                {
                    "name": "E5",
                    "midi": 76,
                    "time": 244.92682599999932,
                    "velocity": 0.4566929133858268,
                    "duration": 0.38933455000002937
                },
                {
                    "name": "F5",
                    "midi": 77,
                    "time": 245.28076649999934,
                    "velocity": 0.3937007874015748,
                    "duration": 0.38933455000002937
                },
                {
                    "name": "G5",
                    "midi": 79,
                    "time": 245.63470699999937,
                    "velocity": 0.41732283464566927,
                    "duration": 0.38933455000002937
                },
                {
                    "name": "G#5",
                    "midi": 80,
                    "time": 245.9886474999994,
                    "velocity": 0.4330708661417323,
                    "duration": 0.35394050000002153
                },
                {
                    "name": "C5",
                    "midi": 72,
                    "time": 246.3425879999994,
                    "velocity": 0.4330708661417323,
                    "duration": 1.4157620000000009
                },
                {
                    "name": "B4",
                    "midi": 71,
                    "time": 247.7583499999994,
                    "velocity": 0.4251968503937008,
                    "duration": 0.38933455000000095
                },
                {
                    "name": "D5",
                    "midi": 74,
                    "time": 248.1122904999994,
                    "velocity": 0.3858267716535433,
                    "duration": 0.38933455000002937
                },
                {
                    "name": "D#5",
                    "midi": 75,
                    "time": 248.46623099999942,
                    "velocity": 0.4094488188976378,
                    "duration": 0.38933455000002937
                },
                {
                    "name": "F5",
                    "midi": 77,
                    "time": 248.82017149999945,
                    "velocity": 0.4251968503937008,
                    "duration": 0.35394050000002153
                },
                {
                    "name": "D#5",
                    "midi": 75,
                    "time": 249.17411199999947,
                    "velocity": 0.3858267716535433,
                    "duration": 1.0618215000000077
                },
                {
                    "name": "G5",
                    "midi": 79,
                    "time": 249.17411199999947,
                    "velocity": 0.4645669291338583,
                    "duration": 1.0618215000000077
                },
                {
                    "name": "D5",
                    "midi": 74,
                    "time": 250.23593349999948,
                    "velocity": 0.3700787401574803,
                    "duration": 0.3539404999999931
                },
                {
                    "name": "F5",
                    "midi": 77,
                    "time": 250.23593349999948,
                    "velocity": 0.4409448818897638,
                    "duration": 0.3539404999999931
                },
                {
                    "name": "C5",
                    "midi": 72,
                    "time": 250.58987399999947,
                    "velocity": 0.3700787401574803,
                    "duration": 0.7078809999999862
                },
                {
                    "name": "D#5",
                    "midi": 75,
                    "time": 250.58987399999947,
                    "velocity": 0.4409448818897638,
                    "duration": 0.7078809999999862
                },
                {
                    "name": "F5",
                    "midi": 77,
                    "time": 252.00563599999944,
                    "velocity": 0.4094488188976378,
                    "duration": 1.0618215000000077
                },
                {
                    "name": "G#5",
                    "midi": 80,
                    "time": 252.00563599999944,
                    "velocity": 0.49606299212598426,
                    "duration": 1.0618215000000077
                },
                {
                    "name": "D#5",
                    "midi": 75,
                    "time": 253.06745749999945,
                    "velocity": 0.36220472440944884,
                    "duration": 0.3539404999999931
                },
                {
                    "name": "G5",
                    "midi": 79,
                    "time": 253.06745749999945,
                    "velocity": 0.4251968503937008,
                    "duration": 0.3539404999999931
                },
                {
                    "name": "D5",
                    "midi": 74,
                    "time": 253.42139799999944,
                    "velocity": 0.3779527559055118,
                    "duration": 0.7078809999999862
                },
                {
                    "name": "F5",
                    "midi": 77,
                    "time": 253.42139799999944,
                    "velocity": 0.4566929133858268,
                    "duration": 0.7078809999999862
                },
                {
                    "name": "C5",
                    "midi": 72,
                    "time": 255.19110049999944,
                    "velocity": 0.3700787401574803,
                    "duration": 0.38933455000000095
                },
                {
                    "name": "D#5",
                    "midi": 75,
                    "time": 255.19110049999944,
                    "velocity": 0.44881889763779526,
                    "duration": 0.38933455000000095
                },
                {
                    "name": "D5",
                    "midi": 74,
                    "time": 255.54504099999943,
                    "velocity": 0.3937007874015748,
                    "duration": 0.38933455000002937
                },
                {
                    "name": "F5",
                    "midi": 77,
                    "time": 255.54504099999943,
                    "velocity": 0.47244094488188976,
                    "duration": 0.38933455000002937
                },
                {
                    "name": "D#5",
                    "midi": 75,
                    "time": 255.89898149999945,
                    "velocity": 0.4094488188976378,
                    "duration": 0.26545537500001615
                },
                {
                    "name": "G5",
                    "midi": 79,
                    "time": 255.89898149999945,
                    "velocity": 0.4881889763779528,
                    "duration": 0.26545537500001615
                },
                {
                    "name": "D#5",
                    "midi": 75,
                    "time": 256.25292199999944,
                    "velocity": 0.4015748031496063,
                    "duration": 0.35394050000002153
                },
                {
                    "name": "G5",
                    "midi": 79,
                    "time": 256.25292199999944,
                    "velocity": 0.48031496062992124,
                    "duration": 0.35394050000002153
                },
                {
                    "name": "D5",
                    "midi": 74,
                    "time": 256.60686249999947,
                    "velocity": 0.3937007874015748,
                    "duration": 0.35394050000002153
                },
                {
                    "name": "F5",
                    "midi": 77,
                    "time": 256.60686249999947,
                    "velocity": 0.47244094488188976,
                    "duration": 0.35394050000002153
                },
                {
                    "name": "D5",
                    "midi": 74,
                    "time": 256.9608029999995,
                    "velocity": 0.3779527559055118,
                    "duration": 0.35394050000002153
                },
                {
                    "name": "F5",
                    "midi": 77,
                    "time": 256.9608029999995,
                    "velocity": 0.4566929133858268,
                    "duration": 0.35394050000002153
                },
                {
                    "name": "C5",
                    "midi": 72,
                    "time": 257.3147434999995,
                    "velocity": 0.3700787401574803,
                    "duration": 0.2654553749999877
                },
                {
                    "name": "D#5",
                    "midi": 75,
                    "time": 257.3147434999995,
                    "velocity": 0.4409448818897638,
                    "duration": 0.2654553749999877
                },
                {
                    "name": "C5",
                    "midi": 72,
                    "time": 257.6686839999995,
                    "velocity": 0.3858267716535433,
                    "duration": 1.4157619999999724
                },
                {
                    "name": "D#5",
                    "midi": 75,
                    "time": 257.6686839999995,
                    "velocity": 0.4566929133858268,
                    "duration": 1.4157619999999724
                },
                {
                    "name": "B4",
                    "midi": 71,
                    "time": 259.08444599999945,
                    "velocity": 0.3543307086614173,
                    "duration": 0.7078809999999862
                },
                {
                    "name": "D5",
                    "midi": 74,
                    "time": 259.08444599999945,
                    "velocity": 0.4251968503937008,
                    "duration": 0.7078809999999862
                },
                {
                    "name": "G5",
                    "midi": 79,
                    "time": 260.85414849999944,
                    "velocity": 0.48031496062992124,
                    "duration": 0.35394050000002153
                },
                {
                    "name": "D#5",
                    "midi": 75,
                    "time": 261.20808899999946,
                    "velocity": 0.4409448818897638,
                    "duration": 0.35394050000002153
                },
                {
                    "name": "B4",
                    "midi": 71,
                    "time": 261.5620294999995,
                    "velocity": 0.4409448818897638,
                    "duration": 0.35394050000002153
                },
                {
                    "name": "D5",
                    "midi": 74,
                    "time": 261.9159699999995,
                    "velocity": 0.47244094488188976,
                    "duration": 0.7078809999999862
                },
                {
                    "name": "C5",
                    "midi": 72,
                    "time": 262.6238509999995,
                    "velocity": 0.4330708661417323,
                    "duration": 0.7078809999999862
                },
                {
                    "name": "C6",
                    "midi": 84,
                    "time": 263.6856724999995,
                    "velocity": 0.48031496062992124,
                    "duration": 0.35394050000002153
                },
                {
                    "name": "G#5",
                    "midi": 80,
                    "time": 264.0396129999995,
                    "velocity": 0.48031496062992124,
                    "duration": 0.35394050000002153
                },
                {
                    "name": "E5",
                    "midi": 76,
                    "time": 264.39355349999954,
                    "velocity": 0.48031496062992124,
                    "duration": 0.35394050000002153
                },
                {
                    "name": "G5",
                    "midi": 79,
                    "time": 264.74749399999956,
                    "velocity": 0.5118110236220472,
                    "duration": 0.7078809999999862
                },
                {
                    "name": "F#5",
                    "midi": 78,
                    "time": 265.45537499999955,
                    "velocity": 0.48031496062992124,
                    "duration": 0.7078809999999862
                },
                {
                    "name": "G5",
                    "midi": 79,
                    "time": 266.51719649999956,
                    "velocity": 0.4251968503937008,
                    "duration": 0.35394050000002153
                },
                {
                    "name": "D#5",
                    "midi": 75,
                    "time": 267.2250774999996,
                    "velocity": 0.41732283464566927,
                    "duration": 0.35394050000002153
                },
                {
                    "name": "C5",
                    "midi": 72,
                    "time": 267.2250774999996,
                    "velocity": 0.3543307086614173,
                    "duration": 0.35394050000002153
                },
                {
                    "name": "D5",
                    "midi": 74,
                    "time": 267.93295849999964,
                    "velocity": 0.3543307086614173,
                    "duration": 0.35394050000002153
                },
                {
                    "name": "F5",
                    "midi": 77,
                    "time": 267.93295849999964,
                    "velocity": 0.41732283464566927,
                    "duration": 0.35394050000002153
                },
                {
                    "name": "D5",
                    "midi": 74,
                    "time": 268.6408394999997,
                    "velocity": 0.3543307086614173,
                    "duration": 0.35394050000002153
                },
                {
                    "name": "B4",
                    "midi": 71,
                    "time": 268.6408394999997,
                    "velocity": 0.41732283464566927,
                    "duration": 0.35394050000002153
                },
                {
                    "name": "B4",
                    "midi": 71,
                    "time": 269.34872049999973,
                    "velocity": 0.3858267716535433,
                    "duration": 0.38933455000000095
                },
                {
                    "name": "C5",
                    "midi": 72,
                    "time": 269.70266099999975,
                    "velocity": 0.4094488188976378,
                    "duration": 0.3893345499999441
                },
                {
                    "name": "B4",
                    "midi": 71,
                    "time": 270.0566014999997,
                    "velocity": 0.3858267716535433,
                    "duration": 0.3539404999999647
                },
                {
                    "name": "C5",
                    "midi": 72,
                    "time": 270.4105419999997,
                    "velocity": 0.4251968503937008,
                    "duration": 1.769702499999994
                },
                {
                    "name": "C#5",
                    "midi": 73,
                    "time": 272.1802444999997,
                    "velocity": 0.4251968503937008,
                    "duration": 0.38933455000000095
                },
                {
                    "name": "C5",
                    "midi": 72,
                    "time": 272.5341849999997,
                    "velocity": 0.4015748031496063,
                    "duration": 0.3893345499999441
                },
                {
                    "name": "C#5",
                    "midi": 73,
                    "time": 272.88812549999966,
                    "velocity": 0.41732283464566927,
                    "duration": 0.3539404999999647
                },
                {
                    "name": "C5",
                    "midi": 72,
                    "time": 273.2420659999996,
                    "velocity": 0.4251968503937008,
                    "duration": 1.769702499999994
                },
                {
                    "name": "E5",
                    "midi": 76,
                    "time": 275.0117684999996,
                    "velocity": 0.4409448818897638,
                    "duration": 0.38933455000000095
                },
                {
                    "name": "F5",
                    "midi": 77,
                    "time": 275.36570899999964,
                    "velocity": 0.4566929133858268,
                    "duration": 0.3893345499999441
                },
                {
                    "name": "G#5",
                    "midi": 80,
                    "time": 275.7196494999996,
                    "velocity": 0.48031496062992124,
                    "duration": 0.3539404999999647
                },
                {
                    "name": "B4",
                    "midi": 71,
                    "time": 276.07358999999957,
                    "velocity": 0.4409448818897638,
                    "duration": 1.769702499999994
                },
                {
                    "name": "A4",
                    "midi": 69,
                    "time": 277.84329249999956,
                    "velocity": 0.3937007874015748,
                    "duration": 0.38933455000000095
                },
                {
                    "name": "A#4",
                    "midi": 70,
                    "time": 278.1972329999996,
                    "velocity": 0.4251968503937008,
                    "duration": 0.3893345499999441
                },
                {
                    "name": "A4",
                    "midi": 69,
                    "time": 278.55117349999955,
                    "velocity": 0.3937007874015748,
                    "duration": 0.3539404999999647
                },
                {
                    "name": "A#4",
                    "midi": 70,
                    "time": 278.9051139999995,
                    "velocity": 0.4251968503937008,
                    "duration": 1.769702499999994
                },
                {
                    "name": "C#5",
                    "midi": 73,
                    "time": 280.6748164999995,
                    "velocity": 0.36220472440944884,
                    "duration": 0.38933455000000095
                },
                {
                    "name": "D5",
                    "midi": 74,
                    "time": 281.02875699999953,
                    "velocity": 0.3779527559055118,
                    "duration": 0.3893345499999441
                },
                {
                    "name": "D#5",
                    "midi": 75,
                    "time": 281.3826974999995,
                    "velocity": 0.3858267716535433,
                    "duration": 0.3893345499999441
                },
                {
                    "name": "E5",
                    "midi": 76,
                    "time": 281.73663799999946,
                    "velocity": 0.4015748031496063,
                    "duration": 0.3893345499999441
                },
                {
                    "name": "F5",
                    "midi": 77,
                    "time": 282.0905784999994,
                    "velocity": 0.4094488188976378,
                    "duration": 0.3893345499999441
                },
                {
                    "name": "F#5",
                    "midi": 78,
                    "time": 282.4445189999994,
                    "velocity": 0.41732283464566927,
                    "duration": 0.3893345499999441
                },
                {
                    "name": "G5",
                    "midi": 79,
                    "time": 282.79845949999935,
                    "velocity": 0.4251968503937008,
                    "duration": 0.3539404999999647
                },
                {
                    "name": "A#5",
                    "midi": 82,
                    "time": 283.1523999999993,
                    "velocity": 0.4330708661417323,
                    "duration": 1.0618215000000077
                },
                {
                    "name": "A5",
                    "midi": 81,
                    "time": 284.2142214999993,
                    "velocity": 0.3937007874015748,
                    "duration": 0.35394050000002153
                },
                {
                    "name": "G#5",
                    "midi": 80,
                    "time": 284.56816199999935,
                    "velocity": 0.3543307086614173,
                    "duration": 0.7078809999999862
                },
                {
                    "name": "E4",
                    "midi": 64,
                    "time": 286.33786449999934,
                    "velocity": 0.3228346456692913,
                    "duration": 0.35394050000002153
                },
                {
                    "name": "F4",
                    "midi": 65,
                    "time": 286.69180499999936,
                    "velocity": 0.3464566929133858,
                    "duration": 0.35394050000002153
                },
                {
                    "name": "G4",
                    "midi": 67,
                    "time": 287.0457454999994,
                    "velocity": 0.3228346456692913,
                    "duration": 0.35394050000002153
                },
                {
                    "name": "G#4",
                    "midi": 68,
                    "time": 287.3996859999994,
                    "velocity": 0.3464566929133858,
                    "duration": 0.35394050000002153
                },
                {
                    "name": "G4",
                    "midi": 67,
                    "time": 287.7536264999994,
                    "velocity": 0.3543307086614173,
                    "duration": 0.35394050000002153
                },
                {
                    "name": "G#4",
                    "midi": 68,
                    "time": 288.10756699999945,
                    "velocity": 0.3543307086614173,
                    "duration": 0.35394050000002153
                },
                {
                    "name": "A4",
                    "midi": 69,
                    "time": 288.46150749999947,
                    "velocity": 0.36220472440944884,
                    "duration": 0.35394050000002153
                },
                {
                    "name": "G4",
                    "midi": 67,
                    "time": 288.8154479999995,
                    "velocity": 0.2677165354330709,
                    "duration": 1.4157619999999724
                },
                {
                    "name": "A#4",
                    "midi": 70,
                    "time": 288.8154479999995,
                    "velocity": 0.3858267716535433,
                    "duration": 1.4157619999999724
                },
                {
                    "name": "D#4",
                    "midi": 63,
                    "time": 290.23120999999946,
                    "velocity": 0.25196850393700787,
                    "duration": 0.7078809999999862
                },
                {
                    "name": "G4",
                    "midi": 67,
                    "time": 290.23120999999946,
                    "velocity": 0.3700787401574803,
                    "duration": 0.7078809999999862
                },
                {
                    "name": "A#3",
                    "midi": 58,
                    "time": 290.93909099999945,
                    "velocity": 0.25984251968503935,
                    "duration": 0.7078809999999862
                },
                {
                    "name": "F4",
                    "midi": 65,
                    "time": 290.93909099999945,
                    "velocity": 0.3858267716535433,
                    "duration": 0.7078809999999862
                },
                {
                    "name": "G3",
                    "midi": 55,
                    "time": 291.64697199999944,
                    "velocity": 0.25984251968503935,
                    "duration": 0.7078809999999862
                },
                {
                    "name": "D#4",
                    "midi": 63,
                    "time": 291.64697199999944,
                    "velocity": 0.3858267716535433,
                    "duration": 0.7078809999999862
                },
                {
                    "name": "A#3",
                    "midi": 58,
                    "time": 292.3548529999994,
                    "velocity": 0.36220472440944884,
                    "duration": 0.7078809999999862
                },
                {
                    "name": "D#4",
                    "midi": 63,
                    "time": 293.0627339999994,
                    "velocity": 0.3858267716535433,
                    "duration": 0.7078809999999862
                },
                {
                    "name": "D4",
                    "midi": 62,
                    "time": 293.7706149999994,
                    "velocity": 0.2677165354330709,
                    "duration": 0.7078809999999862
                },
                {
                    "name": "F4",
                    "midi": 65,
                    "time": 293.7706149999994,
                    "velocity": 0.3858267716535433,
                    "duration": 0.7078809999999862
                },
                {
                    "name": "D#4",
                    "midi": 63,
                    "time": 294.4784959999994,
                    "velocity": 0.28346456692913385,
                    "duration": 2.831523999999945
                },
                {
                    "name": "G4",
                    "midi": 67,
                    "time": 294.4784959999994,
                    "velocity": 0.4094488188976378,
                    "duration": 0.7078809999999862
                },
                {
                    "name": "G#4",
                    "midi": 68,
                    "time": 295.18637699999937,
                    "velocity": 0.4566929133858268,
                    "duration": 0.7078809999999862
                },
                {
                    "name": "A#4",
                    "midi": 70,
                    "time": 295.89425799999935,
                    "velocity": 0.47244094488188976,
                    "duration": 0.7078809999999862
                },
                {
                    "name": "C5",
                    "midi": 72,
                    "time": 296.60213899999934,
                    "velocity": 0.44881889763779526,
                    "duration": 0.7078809999999862
                },
                {
                    "name": "G4",
                    "midi": 67,
                    "time": 297.3100199999993,
                    "velocity": 0.49606299212598426,
                    "duration": 1.0618215000000077
                },
                {
                    "name": "D#4",
                    "midi": 63,
                    "time": 297.3100199999993,
                    "velocity": 0.3464566929133858,
                    "duration": 1.4157620000000293
                },
                {
                    "name": "G#4",
                    "midi": 68,
                    "time": 298.37184149999933,
                    "velocity": 0.41732283464566927,
                    "duration": 0.35394050000002153
                },
                {
                    "name": "D4",
                    "midi": 62,
                    "time": 298.72578199999936,
                    "velocity": 0.29133858267716534,
                    "duration": 1.4157620000000861
                },
                {
                    "name": "F4",
                    "midi": 65,
                    "time": 298.72578199999936,
                    "velocity": 0.4251968503937008,
                    "duration": 0.38343554166669946
                },
                {
                    "name": "G4",
                    "midi": 67,
                    "time": 299.0797224999994,
                    "velocity": 0.41732283464566927,
                    "duration": 0.38343554166669946
                },
                {
                    "name": "G#4",
                    "midi": 68,
                    "time": 299.4336629999994,
                    "velocity": 0.4251968503937008,
                    "duration": 0.38343554166669946
                },
                {
                    "name": "A4",
                    "midi": 69,
                    "time": 299.7876034999994,
                    "velocity": 0.4251968503937008,
                    "duration": 0.35394050000002153
                },
                {
                    "name": "A#4",
                    "midi": 70,
                    "time": 300.14154399999944,
                    "velocity": 0.3937007874015748,
                    "duration": 2.831523999999945
                },
                {
                    "name": "A#5",
                    "midi": 82,
                    "time": 300.14154399999944,
                    "velocity": 0.4645669291338583,
                    "duration": 1.4157619999999724
                },
                {
                    "name": "G5",
                    "midi": 79,
                    "time": 301.5573059999994,
                    "velocity": 0.4881889763779528,
                    "duration": 0.7078809999999862
                },
                {
                    "name": "F5",
                    "midi": 77,
                    "time": 302.2651869999994,
                    "velocity": 0.4566929133858268,
                    "duration": 0.7078809999999862
                },
                {
                    "name": "A#4",
                    "midi": 70,
                    "time": 302.9730679999994,
                    "velocity": 0.3937007874015748,
                    "duration": 0.5309107499999755
                },
                {
                    "name": "D#5",
                    "midi": 75,
                    "time": 302.9730679999994,
                    "velocity": 0.47244094488188976,
                    "duration": 0.5309107499999755
                },
                {
                    "name": "D5",
                    "midi": 74,
                    "time": 303.6809489999994,
                    "velocity": 0.36220472440944884,
                    "duration": 0.5309107499999755
                },
                {
                    "name": "F5",
                    "midi": 77,
                    "time": 303.6809489999994,
                    "velocity": 0.4330708661417323,
                    "duration": 0.5309107499999755
                },
                {
                    "name": "D#5",
                    "midi": 75,
                    "time": 304.38882999999936,
                    "velocity": 0.3858267716535433,
                    "duration": 0.5309107499999755
                },
                {
                    "name": "G5",
                    "midi": 79,
                    "time": 304.38882999999936,
                    "velocity": 0.4566929133858268,
                    "duration": 0.5309107499999755
                },
                {
                    "name": "D#5",
                    "midi": 75,
                    "time": 305.09671099999935,
                    "velocity": 0.4015748031496063,
                    "duration": 0.5309107499999755
                },
                {
                    "name": "G#5",
                    "midi": 80,
                    "time": 305.09671099999935,
                    "velocity": 0.48031496062992124,
                    "duration": 0.5309107499999755
                },
                {
                    "name": "A#5",
                    "midi": 82,
                    "time": 305.80459199999933,
                    "velocity": 0.49606299212598426,
                    "duration": 0.7078809999999862
                },
                {
                    "name": "D#5",
                    "midi": 75,
                    "time": 305.80459199999933,
                    "velocity": 0.4251968503937008,
                    "duration": 0.7078809999999862
                },
                {
                    "name": "B5",
                    "midi": 83,
                    "time": 306.5124729999993,
                    "velocity": 0.4881889763779528,
                    "duration": 0.2064652916666887
                },
                {
                    "name": "C6",
                    "midi": 84,
                    "time": 306.68944324999933,
                    "velocity": 0.4645669291338583,
                    "duration": 0.2064652916666887
                },
                {
                    "name": "G#5",
                    "midi": 80,
                    "time": 306.86641349999934,
                    "velocity": 0.4645669291338583,
                    "duration": 0.2064652916666887
                },
                {
                    "name": "F5",
                    "midi": 77,
                    "time": 307.04338374999935,
                    "velocity": 0.44881889763779526,
                    "duration": 0.17697025000001076
                },
                {
                    "name": "D#5",
                    "midi": 75,
                    "time": 307.22035399999936,
                    "velocity": 0.5039370078740157,
                    "duration": 0.7078809999999862
                },
                {
                    "name": "G5",
                    "midi": 79,
                    "time": 307.92823499999935,
                    "velocity": 0.47244094488188976,
                    "duration": 0.2064652916666887
                },
                {
                    "name": "F5",
                    "midi": 77,
                    "time": 308.10520524999936,
                    "velocity": 0.4409448818897638,
                    "duration": 0.2064652916666887
                },
                {
                    "name": "E5",
                    "midi": 76,
                    "time": 308.28217549999937,
                    "velocity": 0.4409448818897638,
                    "duration": 0.2064652916666887
                },
                {
                    "name": "F5",
                    "midi": 77,
                    "time": 308.4591457499994,
                    "velocity": 0.41732283464566927,
                    "duration": 0.14747520833333283
                },
                {
                    "name": "D5",
                    "midi": 74,
                    "time": 308.6361159999994,
                    "velocity": 0.4015748031496063,
                    "duration": 1.4157619999999724
                },
                {
                    "name": "F5",
                    "midi": 77,
                    "time": 308.6361159999994,
                    "velocity": 0.48031496062992124,
                    "duration": 1.4157619999999724
                },
                {
                    "name": "D#5",
                    "midi": 75,
                    "time": 310.05187799999936,
                    "velocity": 0.4251968503937008,
                    "duration": 0.7078809999999862
                },
                {
                    "name": "C5",
                    "midi": 72,
                    "time": 311.46763999999934,
                    "velocity": 0.4251968503937008,
                    "duration": 1.4157619999999724
                },
                {
                    "name": "D#5",
                    "midi": 75,
                    "time": 312.8834019999993,
                    "velocity": 0.4251968503937008,
                    "duration": 0.35394050000002153
                },
                {
                    "name": "C#5",
                    "midi": 73,
                    "time": 313.23734249999933,
                    "velocity": 0.3937007874015748,
                    "duration": 0.35394050000002153
                },
                {
                    "name": "A#4",
                    "midi": 70,
                    "time": 313.59128299999935,
                    "velocity": 0.4251968503937008,
                    "duration": 0.35394050000002153
                },
                {
                    "name": "G4",
                    "midi": 67,
                    "time": 313.9452234999994,
                    "velocity": 0.3937007874015748,
                    "duration": 0.35394050000002153
                },
                {
                    "name": "G#4",
                    "midi": 68,
                    "time": 314.2991639999994,
                    "velocity": 0.4251968503937008,
                    "duration": 1.0618215000000077
                },
                {
                    "name": "A#4",
                    "midi": 70,
                    "time": 315.3609854999994,
                    "velocity": 0.3937007874015748,
                    "duration": 0.17697025000001076
                },
                {
                    "name": "C5",
                    "midi": 72,
                    "time": 315.5379557499994,
                    "velocity": 0.3937007874015748,
                    "duration": 0.17697025000001076
                },
                {
                    "name": "A#4",
                    "midi": 70,
                    "time": 315.7267240166661,
                    "velocity": 0.4251968503937008,
                    "duration": 0.7078809999999862
                },
                {
                    "name": "C#5",
                    "midi": 73,
                    "time": 317.1306879999994,
                    "velocity": 0.4645669291338583,
                    "duration": 1.4157619999999724
                },
                {
                    "name": "F5",
                    "midi": 77,
                    "time": 318.54644999999937,
                    "velocity": 0.48031496062992124,
                    "duration": 0.38933455000000095
                },
                {
                    "name": "D#5",
                    "midi": 75,
                    "time": 318.9003904999994,
                    "velocity": 0.4409448818897638,
                    "duration": 0.3893345499999441
                },
                {
                    "name": "C#5",
                    "midi": 73,
                    "time": 319.25433099999935,
                    "velocity": 0.4566929133858268,
                    "duration": 0.3893345499999441
                },
                {
                    "name": "C5",
                    "midi": 72,
                    "time": 319.6082714999993,
                    "velocity": 0.4251968503937008,
                    "duration": 0.3893345499999441
                },
                {
                    "name": "A#4",
                    "midi": 70,
                    "time": 319.9622119999993,
                    "velocity": 0.49606299212598426,
                    "duration": 1.0618215000000077
                },
                {
                    "name": "C5",
                    "midi": 72,
                    "time": 321.0240334999993,
                    "velocity": 0.4251968503937008,
                    "duration": 0.17697025000001076
                },
                {
                    "name": "C#5",
                    "midi": 73,
                    "time": 321.2010037499993,
                    "velocity": 0.4251968503937008,
                    "duration": 0.17697025000001076
                },
                {
                    "name": "C5",
                    "midi": 72,
                    "time": 321.3779739999993,
                    "velocity": 0.49606299212598426,
                    "duration": 0.7078809999999862
                },
                {
                    "name": "C6",
                    "midi": 84,
                    "time": 322.7937359999993,
                    "velocity": 0.5275590551181102,
                    "duration": 1.0618215000000077
                },
                {
                    "name": "E5",
                    "midi": 76,
                    "time": 323.8555574999993,
                    "velocity": 0.4645669291338583,
                    "duration": 0.35394050000002153
                },
                {
                    "name": "F5",
                    "midi": 77,
                    "time": 324.2094979999993,
                    "velocity": 0.48031496062992124,
                    "duration": 0.17697025000001076
                },
                {
                    "name": "G5",
                    "midi": 79,
                    "time": 324.56343849999934,
                    "velocity": 0.4409448818897638,
                    "duration": 0.17697025000001076
                },
                {
                    "name": "G#5",
                    "midi": 80,
                    "time": 324.91737899999936,
                    "velocity": 0.44881889763779526,
                    "duration": 0.17697025000001076
                },
                {
                    "name": "A5",
                    "midi": 81,
                    "time": 325.2713194999994,
                    "velocity": 0.4566929133858268,
                    "duration": 0.17697025000001076
                },
                {
                    "name": "A#5",
                    "midi": 82,
                    "time": 325.6252599999994,
                    "velocity": 0.49606299212598426,
                    "duration": 1.0618215000000077
                },
                {
                    "name": "D5",
                    "midi": 74,
                    "time": 326.6870814999994,
                    "velocity": 0.41732283464566927,
                    "duration": 0.35394050000002153
                },
                {
                    "name": "D#5",
                    "midi": 75,
                    "time": 327.04102199999943,
                    "velocity": 0.4881889763779528,
                    "duration": 0.17697025000001076
                },
                {
                    "name": "F5",
                    "midi": 77,
                    "time": 327.39496249999945,
                    "velocity": 0.4251968503937008,
                    "duration": 0.17697025000001076
                },
                {
                    "name": "F#5",
                    "midi": 78,
                    "time": 327.7489029999995,
                    "velocity": 0.4330708661417323,
                    "duration": 0.17697025000001076
                },
                {
                    "name": "G5",
                    "midi": 79,
                    "time": 328.1028434999995,
                    "velocity": 0.4409448818897638,
                    "duration": 0.17697025000001076
                },
                {
                    "name": "G5",
                    "midi": 79,
                    "time": 328.4567839999995,
                    "velocity": 0.4881889763779528,
                    "duration": 0.35394050000002153
                },
                {
                    "name": "C5",
                    "midi": 72,
                    "time": 328.81072449999954,
                    "velocity": 0.4330708661417323,
                    "duration": 0.35394050000002153
                },
                {
                    "name": "G#5",
                    "midi": 80,
                    "time": 329.16466499999956,
                    "velocity": 0.4881889763779528,
                    "duration": 0.35394050000002153
                },
                {
                    "name": "F5",
                    "midi": 77,
                    "time": 329.5186054999996,
                    "velocity": 0.4409448818897638,
                    "duration": 0.2654553749999877
                },
                {
                    "name": "F5",
                    "midi": 77,
                    "time": 329.87254599999955,
                    "velocity": 0.4566929133858268,
                    "duration": 0.35394050000002153
                },
                {
                    "name": "D#5",
                    "midi": 75,
                    "time": 330.22648649999957,
                    "velocity": 0.41732283464566927,
                    "duration": 0.2654553749999877
                },
                {
                    "name": "D#5",
                    "midi": 75,
                    "time": 330.58042699999953,
                    "velocity": 0.4566929133858268,
                    "duration": 0.35394050000002153
                },
                {
                    "name": "D5",
                    "midi": 74,
                    "time": 330.93436749999955,
                    "velocity": 0.41732283464566927,
                    "duration": 0.2654553749999877
                },
                {
                    "name": "D#5",
                    "midi": 75,
                    "time": 331.2883079999995,
                    "velocity": 0.4566929133858268,
                    "duration": 0.38933455000000095
                },
                {
                    "name": "D5",
                    "midi": 74,
                    "time": 331.64224849999954,
                    "velocity": 0.4094488188976378,
                    "duration": 0.3893345499999441
                },
                {
                    "name": "D#5",
                    "midi": 75,
                    "time": 331.9961889999995,
                    "velocity": 0.4330708661417323,
                    "duration": 0.3893345499999441
                },
                {
                    "name": "F5",
                    "midi": 77,
                    "time": 332.35012949999947,
                    "velocity": 0.4015748031496063,
                    "duration": 0.3893345499999441
                },
                {
                    "name": "D#5",
                    "midi": 75,
                    "time": 332.70406999999943,
                    "velocity": 0.4251968503937008,
                    "duration": 0.3893345499999441
                },
                {
                    "name": "D5",
                    "midi": 74,
                    "time": 333.0580104999994,
                    "velocity": 0.4251968503937008,
                    "duration": 0.3893345499999441
                },
                {
                    "name": "C#5",
                    "midi": 73,
                    "time": 333.41195099999936,
                    "velocity": 0.4094488188976378,
                    "duration": 0.3893345499999441
                },
                {
                    "name": "A#4",
                    "midi": 70,
                    "time": 333.7658914999993,
                    "velocity": 0.4015748031496063,
                    "duration": 0.3539404999999647
                },
                {
                    "name": "C5",
                    "midi": 72,
                    "time": 334.1198319999993,
                    "velocity": 0.4251968503937008,
                    "duration": 1.4157619999999724
                },
                {
                    "name": "D#5",
                    "midi": 75,
                    "time": 335.53559399999926,
                    "velocity": 0.4251968503937008,
                    "duration": 0.35394050000002153
                },
                {
                    "name": "C#5",
                    "midi": 73,
                    "time": 335.8895344999993,
                    "velocity": 0.3937007874015748,
                    "duration": 0.35394050000002153
                },
                {
                    "name": "A#4",
                    "midi": 70,
                    "time": 336.2434749999993,
                    "velocity": 0.4251968503937008,
                    "duration": 0.35394050000002153
                },
                {
                    "name": "G4",
                    "midi": 67,
                    "time": 336.59741549999933,
                    "velocity": 0.3937007874015748,
                    "duration": 0.35394050000002153
                },
                {
                    "name": "G#4",
                    "midi": 68,
                    "time": 336.95135599999935,
                    "velocity": 0.4251968503937008,
                    "duration": 1.0618215000000077
                },
                {
                    "name": "A#4",
                    "midi": 70,
                    "time": 338.01317749999936,
                    "velocity": 0.3937007874015748,
                    "duration": 0.17697025000001076
                },
                {
                    "name": "C5",
                    "midi": 72,
                    "time": 338.19014774999937,
                    "velocity": 0.3937007874015748,
                    "duration": 0.17697025000001076
                },
                {
                    "name": "A#4",
                    "midi": 70,
                    "time": 338.37891601666604,
                    "velocity": 0.4251968503937008,
                    "duration": 0.7078809999999862
                },
                {
                    "name": "C#5",
                    "midi": 73,
                    "time": 339.78287999999935,
                    "velocity": 0.4645669291338583,
                    "duration": 1.4157619999999724
                },
                {
                    "name": "F5",
                    "midi": 77,
                    "time": 341.1986419999993,
                    "velocity": 0.48031496062992124,
                    "duration": 0.38933455000000095
                },
                {
                    "name": "D#5",
                    "midi": 75,
                    "time": 341.55258249999935,
                    "velocity": 0.4409448818897638,
                    "duration": 0.3893345499999441
                },
                {
                    "name": "C#5",
                    "midi": 73,
                    "time": 341.9065229999993,
                    "velocity": 0.4566929133858268,
                    "duration": 0.3893345499999441
                },
                {
                    "name": "C5",
                    "midi": 72,
                    "time": 342.2604634999993,
                    "velocity": 0.4251968503937008,
                    "duration": 0.3893345499999441
                },
                {
                    "name": "A#4",
                    "midi": 70,
                    "time": 342.61440399999924,
                    "velocity": 0.49606299212598426,
                    "duration": 1.061821499999951
                },
                {
                    "name": "C5",
                    "midi": 72,
                    "time": 343.6762254999992,
                    "velocity": 0.4251968503937008,
                    "duration": 0.17697025000001076
                },
                {
                    "name": "C#5",
                    "midi": 73,
                    "time": 343.8531957499992,
                    "velocity": 0.4251968503937008,
                    "duration": 0.17697025000001076
                },
                {
                    "name": "C5",
                    "midi": 72,
                    "time": 344.0301659999992,
                    "velocity": 0.49606299212598426,
                    "duration": 0.7078809999999862
                },
                {
                    "name": "C6",
                    "midi": 84,
                    "time": 345.4459279999992,
                    "velocity": 0.5275590551181102,
                    "duration": 1.0618215000000077
                },
                {
                    "name": "E5",
                    "midi": 76,
                    "time": 346.5077494999992,
                    "velocity": 0.4645669291338583,
                    "duration": 0.35394050000002153
                },
                {
                    "name": "F5",
                    "midi": 77,
                    "time": 346.8616899999992,
                    "velocity": 0.48031496062992124,
                    "duration": 0.17697025000001076
                },
                {
                    "name": "G5",
                    "midi": 79,
                    "time": 347.21563049999924,
                    "velocity": 0.4409448818897638,
                    "duration": 0.17697025000001076
                },
                {
                    "name": "G#5",
                    "midi": 80,
                    "time": 347.56957099999926,
                    "velocity": 0.44881889763779526,
                    "duration": 0.17697025000001076
                },
                {
                    "name": "A5",
                    "midi": 81,
                    "time": 347.9235114999993,
                    "velocity": 0.4566929133858268,
                    "duration": 0.17697025000001076
                },
                {
                    "name": "A#5",
                    "midi": 82,
                    "time": 348.2774519999993,
                    "velocity": 0.49606299212598426,
                    "duration": 1.0618215000000077
                },
                {
                    "name": "D5",
                    "midi": 74,
                    "time": 349.3392734999993,
                    "velocity": 0.41732283464566927,
                    "duration": 0.35394050000002153
                },
                {
                    "name": "D#5",
                    "midi": 75,
                    "time": 349.69321399999933,
                    "velocity": 0.4881889763779528,
                    "duration": 0.17697025000001076
                },
                {
                    "name": "F5",
                    "midi": 77,
                    "time": 350.04715449999935,
                    "velocity": 0.4251968503937008,
                    "duration": 0.17697025000001076
                },
                {
                    "name": "F#5",
                    "midi": 78,
                    "time": 350.4010949999994,
                    "velocity": 0.4330708661417323,
                    "duration": 0.17697025000001076
                },
                {
                    "name": "G5",
                    "midi": 79,
                    "time": 350.7550354999994,
                    "velocity": 0.4409448818897638,
                    "duration": 0.17697025000001076
                },
                {
                    "name": "G5",
                    "midi": 79,
                    "time": 351.1089759999994,
                    "velocity": 0.4881889763779528,
                    "duration": 0.35394050000002153
                },
                {
                    "name": "C5",
                    "midi": 72,
                    "time": 351.46291649999944,
                    "velocity": 0.4330708661417323,
                    "duration": 0.35394050000002153
                },
                {
                    "name": "G#5",
                    "midi": 80,
                    "time": 351.81685699999946,
                    "velocity": 0.4881889763779528,
                    "duration": 0.35394050000002153
                },
                {
                    "name": "F5",
                    "midi": 77,
                    "time": 352.1707974999995,
                    "velocity": 0.4409448818897638,
                    "duration": 0.2654553749999877
                },
                {
                    "name": "F5",
                    "midi": 77,
                    "time": 352.52473799999945,
                    "velocity": 0.4566929133858268,
                    "duration": 0.35394050000002153
                },
                {
                    "name": "D#5",
                    "midi": 75,
                    "time": 352.87867849999947,
                    "velocity": 0.41732283464566927,
                    "duration": 0.2654553749999877
                },
                {
                    "name": "D#5",
                    "midi": 75,
                    "time": 353.23261899999943,
                    "velocity": 0.4566929133858268,
                    "duration": 0.35394050000002153
                },
                {
                    "name": "D5",
                    "midi": 74,
                    "time": 353.58655949999945,
                    "velocity": 0.41732283464566927,
                    "duration": 0.2654553749999877
                },
                {
                    "name": "D#5",
                    "midi": 75,
                    "time": 353.9404999999994,
                    "velocity": 0.4566929133858268,
                    "duration": 0.38933455000000095
                },
                {
                    "name": "D5",
                    "midi": 74,
                    "time": 354.29444049999944,
                    "velocity": 0.4094488188976378,
                    "duration": 0.3893345499999441
                },
                {
                    "name": "D#5",
                    "midi": 75,
                    "time": 354.6483809999994,
                    "velocity": 0.4330708661417323,
                    "duration": 0.3893345499999441
                },
                {
                    "name": "F5",
                    "midi": 77,
                    "time": 355.00232149999937,
                    "velocity": 0.4015748031496063,
                    "duration": 0.3893345499999441
                },
                {
                    "name": "D#5",
                    "midi": 75,
                    "time": 355.35626199999933,
                    "velocity": 0.4251968503937008,
                    "duration": 0.3893345499999441
                },
                {
                    "name": "D5",
                    "midi": 74,
                    "time": 355.7102024999993,
                    "velocity": 0.4251968503937008,
                    "duration": 0.3893345499999441
                },
                {
                    "name": "C#5",
                    "midi": 73,
                    "time": 356.06414299999926,
                    "velocity": 0.4094488188976378,
                    "duration": 0.3893345499999441
                },
                {
                    "name": "A#4",
                    "midi": 70,
                    "time": 356.4180834999992,
                    "velocity": 0.4015748031496063,
                    "duration": 0.3539404999999647
                },
                {
                    "name": "A4",
                    "midi": 69,
                    "time": 356.7720239999992,
                    "velocity": 0.3543307086614173,
                    "duration": 2.831523999999888
                },
                {
                    "name": "C5",
                    "midi": 72,
                    "time": 356.7720239999992,
                    "velocity": 0.4645669291338583,
                    "duration": 1.4157619999999724
                },
                {
                    "name": "B4",
                    "midi": 71,
                    "time": 358.18778599999916,
                    "velocity": 0.4645669291338583,
                    "duration": 0.38933455000000095
                },
                {
                    "name": "C5",
                    "midi": 72,
                    "time": 358.5417264999992,
                    "velocity": 0.4251968503937008,
                    "duration": 0.3893345499999441
                },
                {
                    "name": "C#5",
                    "midi": 73,
                    "time": 358.89566699999915,
                    "velocity": 0.4881889763779528,
                    "duration": 0.3893345499999441
                },
                {
                    "name": "C5",
                    "midi": 72,
                    "time": 359.2496074999991,
                    "velocity": 0.44881889763779526,
                    "duration": 0.3539404999999647
                },
                {
                    "name": "G#4",
                    "midi": 68,
                    "time": 359.6035479999991,
                    "velocity": 0.3937007874015748,
                    "duration": 1.4157619999999724
                },
                {
                    "name": "F5",
                    "midi": 77,
                    "time": 359.6035479999991,
                    "velocity": 0.5039370078740157,
                    "duration": 0.7078809999999862
                },
                {
                    "name": "A#4",
                    "midi": 70,
                    "time": 360.31142899999907,
                    "velocity": 0.4645669291338583,
                    "duration": 0.7078809999999862
                },
                {
                    "name": "G4",
                    "midi": 67,
                    "time": 361.01930999999905,
                    "velocity": 0.3543307086614173,
                    "duration": 1.4157619999999156
                },
                {
                    "name": "A4",
                    "midi": 69,
                    "time": 361.01930999999905,
                    "velocity": 0.4645669291338583,
                    "duration": 0.38933455000000095
                },
                {
                    "name": "A#4",
                    "midi": 70,
                    "time": 361.3732504999991,
                    "velocity": 0.4251968503937008,
                    "duration": 0.3893345499999441
                },
                {
                    "name": "C5",
                    "midi": 72,
                    "time": 361.72719099999904,
                    "velocity": 0.4645669291338583,
                    "duration": 0.3893345499999441
                },
                {
                    "name": "A#4",
                    "midi": 70,
                    "time": 362.081131499999,
                    "velocity": 0.4251968503937008,
                    "duration": 0.3539404999999647
                },
                {
                    "name": "F#4",
                    "midi": 66,
                    "time": 362.43507199999897,
                    "velocity": 0.3543307086614173,
                    "duration": 1.4157619999999724
                },
                {
                    "name": "D#5",
                    "midi": 75,
                    "time": 362.43507199999897,
                    "velocity": 0.4645669291338583,
                    "duration": 0.7078809999999862
                },
                {
                    "name": "G#4",
                    "midi": 68,
                    "time": 363.14295299999895,
                    "velocity": 0.4645669291338583,
                    "duration": 1.0618215000000077
                },
                {
                    "name": "F4",
                    "midi": 65,
                    "time": 363.85083399999894,
                    "velocity": 0.3858267716535433,
                    "duration": 0.35394050000002153
                },
                {
                    "name": "A#4",
                    "midi": 70,
                    "time": 364.20477449999896,
                    "velocity": 0.3937007874015748,
                    "duration": 0.35394050000002153
                },
                {
                    "name": "G4",
                    "midi": 67,
                    "time": 364.20477449999896,
                    "velocity": 0.3543307086614173,
                    "duration": 0.35394050000002153
                },
                {
                    "name": "C5",
                    "midi": 72,
                    "time": 364.558714999999,
                    "velocity": 0.3858267716535433,
                    "duration": 0.35394050000002153
                },
                {
                    "name": "G#4",
                    "midi": 68,
                    "time": 364.558714999999,
                    "velocity": 0.3543307086614173,
                    "duration": 0.35394050000002153
                },
                {
                    "name": "C#5",
                    "midi": 73,
                    "time": 364.912655499999,
                    "velocity": 0.3858267716535433,
                    "duration": 0.35394050000002153
                },
                {
                    "name": "A#4",
                    "midi": 70,
                    "time": 364.912655499999,
                    "velocity": 0.3543307086614173,
                    "duration": 0.35394050000002153
                },
                {
                    "name": "G#4",
                    "midi": 68,
                    "time": 365.266595999999,
                    "velocity": 0.4094488188976378,
                    "duration": 1.4157619999999724
                },
                {
                    "name": "C5",
                    "midi": 72,
                    "time": 365.266595999999,
                    "velocity": 0.4409448818897638,
                    "duration": 1.4157619999999724
                },
                {
                    "name": "G4",
                    "midi": 67,
                    "time": 366.682357999999,
                    "velocity": 0.3543307086614173,
                    "duration": 0.7078809999999862
                },
                {
                    "name": "A#4",
                    "midi": 70,
                    "time": 366.682357999999,
                    "velocity": 0.3937007874015748,
                    "duration": 0.7078809999999862
                },
                {
                    "name": "G#5",
                    "midi": 80,
                    "time": 368.09811999999897,
                    "velocity": 0.5275590551181102,
                    "duration": 1.4157619999999724
                },
                {
                    "name": "G5",
                    "midi": 79,
                    "time": 369.51388199999894,
                    "velocity": 0.48031496062992124,
                    "duration": 0.38933455000000095
                },
                {
                    "name": "F5",
                    "midi": 77,
                    "time": 369.86782249999897,
                    "velocity": 0.4409448818897638,
                    "duration": 0.3893345499999441
                },
                {
                    "name": "D#5",
                    "midi": 75,
                    "time": 370.22176299999893,
                    "velocity": 0.49606299212598426,
                    "duration": 0.3893345499999441
                },
                {
                    "name": "D5",
                    "midi": 74,
                    "time": 370.5757034999989,
                    "velocity": 0.44881889763779526,
                    "duration": 0.3539404999999647
                },
                {
                    "name": "C#6",
                    "midi": 85,
                    "time": 370.92964399999886,
                    "velocity": 0.5590551181102362,
                    "duration": 1.4157619999999724
                },
                {
                    "name": "C6",
                    "midi": 84,
                    "time": 372.34540599999883,
                    "velocity": 0.5118110236220472,
                    "duration": 0.38933455000000095
                },
                {
                    "name": "A#5",
                    "midi": 82,
                    "time": 372.69934649999885,
                    "velocity": 0.49606299212598426,
                    "duration": 0.3893345499999441
                },
                {
                    "name": "G#5",
                    "midi": 80,
                    "time": 373.0532869999988,
                    "velocity": 0.4566929133858268,
                    "duration": 0.3893345499999441
                },
                {
                    "name": "G5",
                    "midi": 79,
                    "time": 373.4072274999988,
                    "velocity": 0.4251968503937008,
                    "duration": 0.3539404999999647
                },
                {
                    "name": "G#5",
                    "midi": 80,
                    "time": 373.76116799999875,
                    "velocity": 0.4409448818897638,
                    "duration": 0.35394050000002153
                },
                {
                    "name": "C5",
                    "midi": 72,
                    "time": 374.11510849999877,
                    "velocity": 0.4094488188976378,
                    "duration": 0.35394050000002153
                },
                {
                    "name": "A#4",
                    "midi": 70,
                    "time": 374.4690489999988,
                    "velocity": 0.4094488188976378,
                    "duration": 0.35394050000002153
                },
                {
                    "name": "F5",
                    "midi": 77,
                    "time": 374.8229894999988,
                    "velocity": 0.4094488188976378,
                    "duration": 0.35394050000002153
                },
                {
                    "name": "D#5",
                    "midi": 75,
                    "time": 375.17692999999883,
                    "velocity": 0.4409448818897638,
                    "duration": 0.35394050000002153
                },
                {
                    "name": "G#4",
                    "midi": 68,
                    "time": 375.53087049999885,
                    "velocity": 0.4015748031496063,
                    "duration": 0.35394050000002153
                },
                {
                    "name": "C#5",
                    "midi": 73,
                    "time": 375.8848109999989,
                    "velocity": 0.4330708661417323,
                    "duration": 0.35394050000002153
                },
                {
                    "name": "G4",
                    "midi": 67,
                    "time": 376.2387514999989,
                    "velocity": 0.4015748031496063,
                    "duration": 0.35394050000002153
                },
                {
                    "name": "A#4",
                    "midi": 70,
                    "time": 376.5926919999989,
                    "velocity": 0.4251968503937008,
                    "duration": 1.4157619999999724
                },
                {
                    "name": "G#4",
                    "midi": 68,
                    "time": 378.0084539999989,
                    "velocity": 0.4094488188976378,
                    "duration": 0.35394050000002153
                },
                {
                    "name": "A#4",
                    "midi": 70,
                    "time": 378.3623944999989,
                    "velocity": 0.3700787401574803,
                    "duration": 0.38933455000000095
                },
                {
                    "name": "B4",
                    "midi": 71,
                    "time": 378.71633499999894,
                    "velocity": 0.3543307086614173,
                    "duration": 0.3893345499999441
                },
                {
                    "name": "C5",
                    "midi": 72,
                    "time": 379.0702754999989,
                    "velocity": 0.3543307086614173,
                    "duration": 0.3539404999999647
                },
                {
                    "name": "A4",
                    "midi": 69,
                    "time": 379.42421599999886,
                    "velocity": 0.30708661417322836,
                    "duration": 2.831523999999888
                },
                {
                    "name": "C5",
                    "midi": 72,
                    "time": 379.42421599999886,
                    "velocity": 0.4645669291338583,
                    "duration": 1.4157619999999724
                },
                {
                    "name": "B4",
                    "midi": 71,
                    "time": 380.83997799999884,
                    "velocity": 0.4645669291338583,
                    "duration": 0.38933455000000095
                },
                {
                    "name": "C5",
                    "midi": 72,
                    "time": 381.19391849999886,
                    "velocity": 0.4251968503937008,
                    "duration": 0.3893345499999441
                },
                {
                    "name": "C#5",
                    "midi": 73,
                    "time": 381.5478589999988,
                    "velocity": 0.4881889763779528,
                    "duration": 0.3893345499999441
                },
                {
                    "name": "C5",
                    "midi": 72,
                    "time": 381.9017994999988,
                    "velocity": 0.44881889763779526,
                    "duration": 0.3539404999999647
                },
                {
                    "name": "G#4",
                    "midi": 68,
                    "time": 382.25573999999875,
                    "velocity": 0.3937007874015748,
                    "duration": 1.4157619999999724
                },
                {
                    "name": "F5",
                    "midi": 77,
                    "time": 382.25573999999875,
                    "velocity": 0.5039370078740157,
                    "duration": 0.7078809999999862
                },
                {
                    "name": "A#4",
                    "midi": 70,
                    "time": 382.96362099999874,
                    "velocity": 0.4645669291338583,
                    "duration": 0.7078809999999862
                },
                {
                    "name": "G4",
                    "midi": 67,
                    "time": 383.6715019999987,
                    "velocity": 0.3543307086614173,
                    "duration": 1.4157619999999156
                },
                {
                    "name": "A4",
                    "midi": 69,
                    "time": 383.6715019999987,
                    "velocity": 0.4645669291338583,
                    "duration": 0.38933455000000095
                },
                {
                    "name": "A#4",
                    "midi": 70,
                    "time": 384.02544249999875,
                    "velocity": 0.4251968503937008,
                    "duration": 0.3893345499999441
                },
                {
                    "name": "C5",
                    "midi": 72,
                    "time": 384.3793829999987,
                    "velocity": 0.4645669291338583,
                    "duration": 0.3893345499999441
                },
                {
                    "name": "A#4",
                    "midi": 70,
                    "time": 384.7333234999987,
                    "velocity": 0.4251968503937008,
                    "duration": 0.3539404999999647
                },
                {
                    "name": "F#4",
                    "midi": 66,
                    "time": 385.08726399999864,
                    "velocity": 0.3543307086614173,
                    "duration": 1.4157619999999724
                },
                {
                    "name": "D#5",
                    "midi": 75,
                    "time": 385.08726399999864,
                    "velocity": 0.4645669291338583,
                    "duration": 0.7078809999999862
                },
                {
                    "name": "G#4",
                    "midi": 68,
                    "time": 385.7951449999986,
                    "velocity": 0.4645669291338583,
                    "duration": 1.0618215000000077
                },
                {
                    "name": "F4",
                    "midi": 65,
                    "time": 386.5030259999986,
                    "velocity": 0.3858267716535433,
                    "duration": 0.35394050000002153
                },
                {
                    "name": "A#4",
                    "midi": 70,
                    "time": 386.85696649999863,
                    "velocity": 0.3937007874015748,
                    "duration": 0.35394050000002153
                },
                {
                    "name": "G4",
                    "midi": 67,
                    "time": 386.85696649999863,
                    "velocity": 0.3543307086614173,
                    "duration": 0.35394050000002153
                },
                {
                    "name": "C5",
                    "midi": 72,
                    "time": 387.21090699999866,
                    "velocity": 0.3858267716535433,
                    "duration": 0.35394050000002153
                },
                {
                    "name": "G#4",
                    "midi": 68,
                    "time": 387.21090699999866,
                    "velocity": 0.3543307086614173,
                    "duration": 0.35394050000002153
                },
                {
                    "name": "C#5",
                    "midi": 73,
                    "time": 387.5648474999987,
                    "velocity": 0.3858267716535433,
                    "duration": 0.35394050000002153
                },
                {
                    "name": "A#4",
                    "midi": 70,
                    "time": 387.5648474999987,
                    "velocity": 0.3543307086614173,
                    "duration": 0.35394050000002153
                },
                {
                    "name": "G#4",
                    "midi": 68,
                    "time": 387.9187879999987,
                    "velocity": 0.4094488188976378,
                    "duration": 1.4157619999999724
                },
                {
                    "name": "C5",
                    "midi": 72,
                    "time": 387.9187879999987,
                    "velocity": 0.4409448818897638,
                    "duration": 1.4157619999999724
                },
                {
                    "name": "G4",
                    "midi": 67,
                    "time": 389.33454999999867,
                    "velocity": 0.3543307086614173,
                    "duration": 0.7078809999999862
                },
                {
                    "name": "A#4",
                    "midi": 70,
                    "time": 389.33454999999867,
                    "velocity": 0.3937007874015748,
                    "duration": 0.7078809999999862
                },
                {
                    "name": "G#5",
                    "midi": 80,
                    "time": 390.75031199999864,
                    "velocity": 0.5118110236220472,
                    "duration": 1.4157619999999724
                },
                {
                    "name": "G5",
                    "midi": 79,
                    "time": 392.1660739999986,
                    "velocity": 0.4881889763779528,
                    "duration": 0.38933455000000095
                },
                {
                    "name": "F5",
                    "midi": 77,
                    "time": 392.52001449999864,
                    "velocity": 0.44881889763779526,
                    "duration": 0.3893345499999441
                },
                {
                    "name": "D#5",
                    "midi": 75,
                    "time": 392.8739549999986,
                    "velocity": 0.47244094488188976,
                    "duration": 0.3893345499999441
                },
                {
                    "name": "D5",
                    "midi": 74,
                    "time": 393.22789549999857,
                    "velocity": 0.44881889763779526,
                    "duration": 0.3539404999999647
                },
                {
                    "name": "C#6",
                    "midi": 85,
                    "time": 393.58183599999853,
                    "velocity": 0.5590551181102362,
                    "duration": 1.4157619999999724
                },
                {
                    "name": "C6",
                    "midi": 84,
                    "time": 394.9975979999985,
                    "velocity": 0.5118110236220472,
                    "duration": 0.38933455000000095
                },
                {
                    "name": "A#5",
                    "midi": 82,
                    "time": 395.3515384999985,
                    "velocity": 0.48031496062992124,
                    "duration": 0.3893345499999441
                },
                {
                    "name": "G#5",
                    "midi": 80,
                    "time": 395.7054789999985,
                    "velocity": 0.48031496062992124,
                    "duration": 0.3893345499999441
                },
                {
                    "name": "G5",
                    "midi": 79,
                    "time": 396.05941949999846,
                    "velocity": 0.4330708661417323,
                    "duration": 0.3539404999999647
                },
                {
                    "name": "G#5",
                    "midi": 80,
                    "time": 396.4133599999984,
                    "velocity": 0.4409448818897638,
                    "duration": 0.35394050000002153
                },
                {
                    "name": "C5",
                    "midi": 72,
                    "time": 396.76730049999844,
                    "velocity": 0.4094488188976378,
                    "duration": 0.35394050000002153
                },
                {
                    "name": "A#4",
                    "midi": 70,
                    "time": 397.12124099999846,
                    "velocity": 0.4094488188976378,
                    "duration": 0.35394050000002153
                },
                {
                    "name": "F5",
                    "midi": 77,
                    "time": 397.4751814999985,
                    "velocity": 0.4094488188976378,
                    "duration": 0.35394050000002153
                },
                {
                    "name": "D#5",
                    "midi": 75,
                    "time": 397.8291219999985,
                    "velocity": 0.4409448818897638,
                    "duration": 0.35394050000002153
                },
                {
                    "name": "G#4",
                    "midi": 68,
                    "time": 398.1830624999985,
                    "velocity": 0.4015748031496063,
                    "duration": 0.35394050000002153
                },
                {
                    "name": "C#5",
                    "midi": 73,
                    "time": 398.53700299999855,
                    "velocity": 0.4330708661417323,
                    "duration": 0.35394050000002153
                },
                {
                    "name": "G4",
                    "midi": 67,
                    "time": 398.89094349999857,
                    "velocity": 0.4015748031496063,
                    "duration": 0.35394050000002153
                },
                {
                    "name": "A#4",
                    "midi": 70,
                    "time": 399.2448839999986,
                    "velocity": 0.4251968503937008,
                    "duration": 1.4157619999999724
                },
                {
                    "name": "G#4",
                    "midi": 68,
                    "time": 400.66064599999856,
                    "velocity": 0.4094488188976378,
                    "duration": 0.35394050000002153
                },
                {
                    "name": "A#4",
                    "midi": 70,
                    "time": 401.0145864999986,
                    "velocity": 0.3700787401574803,
                    "duration": 0.38933455000000095
                },
                {
                    "name": "B4",
                    "midi": 71,
                    "time": 401.3685269999986,
                    "velocity": 0.3543307086614173,
                    "duration": 0.3893345499999441
                },
                {
                    "name": "C5",
                    "midi": 72,
                    "time": 401.7224674999986,
                    "velocity": 0.3543307086614173,
                    "duration": 0.3539404999999647
                },
                {
                    "name": "C5",
                    "midi": 72,
                    "time": 402.43034849999856,
                    "velocity": 0.41732283464566927,
                    "duration": 0.4129305833333774
                },
                {
                    "name": "C#5",
                    "midi": 73,
                    "time": 402.7842889999986,
                    "velocity": 0.4409448818897638,
                    "duration": 0.4129305833333774
                },
                {
                    "name": "C5",
                    "midi": 72,
                    "time": 403.1382294999986,
                    "velocity": 0.4094488188976378,
                    "duration": 0.35394050000002153
                },
                {
                    "name": "C5",
                    "midi": 72,
                    "time": 403.84611049999864,
                    "velocity": 0.41732283464566927,
                    "duration": 0.35394050000002153
                },
                {
                    "name": "C6",
                    "midi": 84,
                    "time": 404.20005099999867,
                    "velocity": 0.4409448818897638,
                    "duration": 0.35394050000002153
                },
                {
                    "name": "C5",
                    "midi": 72,
                    "time": 404.5539914999987,
                    "velocity": 0.4094488188976378,
                    "duration": 0.35394050000002153
                },
                {
                    "name": "A#4",
                    "midi": 70,
                    "time": 405.26187249999873,
                    "velocity": 0.41732283464566927,
                    "duration": 0.4129305833333774
                },
                {
                    "name": "B4",
                    "midi": 71,
                    "time": 405.61581299999875,
                    "velocity": 0.4409448818897638,
                    "duration": 0.4129305833333774
                },
                {
                    "name": "A#4",
                    "midi": 70,
                    "time": 405.9697534999988,
                    "velocity": 0.41732283464566927,
                    "duration": 0.35394050000002153
                },
                {
                    "name": "A#4",
                    "midi": 70,
                    "time": 406.6776344999988,
                    "velocity": 0.41732283464566927,
                    "duration": 0.35394050000002153
                },
                {
                    "name": "A#5",
                    "midi": 82,
                    "time": 407.03157499999884,
                    "velocity": 0.4409448818897638,
                    "duration": 0.35394050000002153
                },
                {
                    "name": "A#4",
                    "midi": 70,
                    "time": 407.38551549999886,
                    "velocity": 0.41732283464566927,
                    "duration": 0.35394050000002153
                },
                {
                    "name": "A4",
                    "midi": 69,
                    "time": 408.0933964999989,
                    "velocity": 0.4251968503937008,
                    "duration": 0.4129305833333774
                },
                {
                    "name": "A#4",
                    "midi": 70,
                    "time": 408.4473369999989,
                    "velocity": 0.4409448818897638,
                    "duration": 0.4129305833333774
                },
                {
                    "name": "A4",
                    "midi": 69,
                    "time": 408.80127749999895,
                    "velocity": 0.41732283464566927,
                    "duration": 0.35394050000002153
                },
                {
                    "name": "D#5",
                    "midi": 75,
                    "time": 409.15521799999897,
                    "velocity": 0.4645669291338583,
                    "duration": 0.35394050000002153
                },
                {
                    "name": "A4",
                    "midi": 69,
                    "time": 409.509158499999,
                    "velocity": 0.4409448818897638,
                    "duration": 0.35394050000002153
                },
                {
                    "name": "F#5",
                    "midi": 78,
                    "time": 409.863098999999,
                    "velocity": 0.49606299212598426,
                    "duration": 0.35394050000002153
                },
                {
                    "name": "A4",
                    "midi": 69,
                    "time": 410.21703949999903,
                    "velocity": 0.4566929133858268,
                    "duration": 0.35394050000002153
                },
                {
                    "name": "A#4",
                    "midi": 70,
                    "time": 410.57097999999905,
                    "velocity": 0.5039370078740157,
                    "duration": 1.769702499999994
                },
                {
                    "name": "A4",
                    "midi": 69,
                    "time": 412.34068249999905,
                    "velocity": 0.4645669291338583,
                    "duration": 0.35394050000002153
                },
                {
                    "name": "F#5",
                    "midi": 78,
                    "time": 412.69462299999907,
                    "velocity": 0.48031496062992124,
                    "duration": 0.35394050000002153
                },
                {
                    "name": "A4",
                    "midi": 69,
                    "time": 413.0485634999991,
                    "velocity": 0.47244094488188976,
                    "duration": 0.35394050000002153
                },
                {
                    "name": "A#4",
                    "midi": 70,
                    "time": 413.4025039999991,
                    "velocity": 0.5118110236220472,
                    "duration": 1.769702499999994
                },
                {
                    "name": "A4",
                    "midi": 69,
                    "time": 415.1722064999991,
                    "velocity": 0.47244094488188976,
                    "duration": 0.35394050000002153
                },
                {
                    "name": "F#5",
                    "midi": 78,
                    "time": 415.5261469999991,
                    "velocity": 0.49606299212598426,
                    "duration": 0.35394050000002153
                },
                {
                    "name": "A4",
                    "midi": 69,
                    "time": 415.88008749999915,
                    "velocity": 0.4645669291338583,
                    "duration": 0.35394050000002153
                },
                {
                    "name": "A#4",
                    "midi": 70,
                    "time": 416.23402799999917,
                    "velocity": 0.5118110236220472,
                    "duration": 1.769702499999994
                },
                {
                    "name": "D5",
                    "midi": 74,
                    "time": 418.00373049999916,
                    "velocity": 0.4409448818897638,
                    "duration": 0.35394050000002153
                },
                {
                    "name": "F5",
                    "midi": 77,
                    "time": 418.3576709999992,
                    "velocity": 0.4566929133858268,
                    "duration": 0.35394050000002153
                },
                {
                    "name": "G#5",
                    "midi": 80,
                    "time": 418.7116114999992,
                    "velocity": 0.47244094488188976,
                    "duration": 0.35394050000002153
                },
                {
                    "name": "B5",
                    "midi": 83,
                    "time": 419.06555199999923,
                    "velocity": 0.48031496062992124,
                    "duration": 0.38933455000000095
                },
                {
                    "name": "C6",
                    "midi": 84,
                    "time": 419.41949249999925,
                    "velocity": 0.49606299212598426,
                    "duration": 0.3893345499999441
                },
                {
                    "name": "D6",
                    "midi": 86,
                    "time": 419.7734329999992,
                    "velocity": 0.5039370078740157,
                    "duration": 0.3893345499999441
                },
                {
                    "name": "C6",
                    "midi": 84,
                    "time": 420.1273734999992,
                    "velocity": 0.4881889763779528,
                    "duration": 0.3893345499999441
                },
                {
                    "name": "A#5",
                    "midi": 82,
                    "time": 420.48131399999914,
                    "velocity": 0.48031496062992124,
                    "duration": 0.3893345499999441
                },
                {
                    "name": "G#5",
                    "midi": 80,
                    "time": 420.8352544999991,
                    "velocity": 0.47244094488188976,
                    "duration": 0.3893345499999441
                },
                {
                    "name": "G5",
                    "midi": 79,
                    "time": 421.1891949999991,
                    "velocity": 0.4566929133858268,
                    "duration": 0.3893345499999441
                },
                {
                    "name": "F5",
                    "midi": 77,
                    "time": 421.54313549999904,
                    "velocity": 0.44881889763779526,
                    "duration": 0.3893345499999441
                },
                {
                    "name": "D#5",
                    "midi": 75,
                    "time": 421.897075999999,
                    "velocity": 0.44881889763779526,
                    "duration": 1.0618215000000077
                },
                {
                    "name": "F5",
                    "midi": 77,
                    "time": 422.958897499999,
                    "velocity": 0.3464566929133858,
                    "duration": 0.2064652916666887
                },
                {
                    "name": "D#5",
                    "midi": 75,
                    "time": 423.135867749999,
                    "velocity": 0.31496062992125984,
                    "duration": 0.2064652916666887
                },
                {
                    "name": "D5",
                    "midi": 74,
                    "time": 423.31283799999903,
                    "velocity": 0.3779527559055118,
                    "duration": 0.7078809999999862
                },
                {
                    "name": "G4",
                    "midi": 67,
                    "time": 424.728599999999,
                    "velocity": 0.2677165354330709,
                    "duration": 1.4157619999999724
                },
                {
                    "name": "A#4",
                    "midi": 70,
                    "time": 424.728599999999,
                    "velocity": 0.3858267716535433,
                    "duration": 1.4157619999999724
                },
                {
                    "name": "D#4",
                    "midi": 63,
                    "time": 426.144361999999,
                    "velocity": 0.25196850393700787,
                    "duration": 0.7078809999999862
                },
                {
                    "name": "G4",
                    "midi": 67,
                    "time": 426.144361999999,
                    "velocity": 0.3700787401574803,
                    "duration": 0.7078809999999862
                },
                {
                    "name": "A#3",
                    "midi": 58,
                    "time": 426.85224299999896,
                    "velocity": 0.25984251968503935,
                    "duration": 0.7078809999999862
                },
                {
                    "name": "F4",
                    "midi": 65,
                    "time": 426.85224299999896,
                    "velocity": 0.3858267716535433,
                    "duration": 0.7078809999999862
                },
                {
                    "name": "G3",
                    "midi": 55,
                    "time": 427.56012399999895,
                    "velocity": 0.25984251968503935,
                    "duration": 0.7078809999999862
                },
                {
                    "name": "D#4",
                    "midi": 63,
                    "time": 427.56012399999895,
                    "velocity": 0.3858267716535433,
                    "duration": 0.7078809999999862
                },
                {
                    "name": "A#3",
                    "midi": 58,
                    "time": 428.26800499999894,
                    "velocity": 0.36220472440944884,
                    "duration": 0.7078809999999862
                },
                {
                    "name": "D#4",
                    "midi": 63,
                    "time": 428.9758859999989,
                    "velocity": 0.3858267716535433,
                    "duration": 0.7078809999999862
                },
                {
                    "name": "D4",
                    "midi": 62,
                    "time": 429.6837669999989,
                    "velocity": 0.2677165354330709,
                    "duration": 0.7078809999999862
                },
                {
                    "name": "F4",
                    "midi": 65,
                    "time": 429.6837669999989,
                    "velocity": 0.3858267716535433,
                    "duration": 0.7078809999999862
                },
                {
                    "name": "D#4",
                    "midi": 63,
                    "time": 430.3916479999989,
                    "velocity": 0.28346456692913385,
                    "duration": 2.831523999999945
                },
                {
                    "name": "G4",
                    "midi": 67,
                    "time": 430.3916479999989,
                    "velocity": 0.4094488188976378,
                    "duration": 0.7078809999999862
                },
                {
                    "name": "G#4",
                    "midi": 68,
                    "time": 431.0995289999989,
                    "velocity": 0.4566929133858268,
                    "duration": 0.7078809999999862
                },
                {
                    "name": "A#4",
                    "midi": 70,
                    "time": 431.80740999999887,
                    "velocity": 0.47244094488188976,
                    "duration": 0.7078809999999862
                },
                {
                    "name": "C5",
                    "midi": 72,
                    "time": 432.51529099999885,
                    "velocity": 0.44881889763779526,
                    "duration": 0.7078809999999862
                },
                {
                    "name": "G4",
                    "midi": 67,
                    "time": 433.22317199999884,
                    "velocity": 0.49606299212598426,
                    "duration": 1.0618215000000077
                },
                {
                    "name": "D#4",
                    "midi": 63,
                    "time": 433.22317199999884,
                    "velocity": 0.3464566929133858,
                    "duration": 1.4157620000000293
                },
                {
                    "name": "G#4",
                    "midi": 68,
                    "time": 434.28499349999885,
                    "velocity": 0.41732283464566927,
                    "duration": 0.35394050000002153
                },
                {
                    "name": "D4",
                    "midi": 62,
                    "time": 434.63893399999887,
                    "velocity": 0.29133858267716534,
                    "duration": 1.4157620000000861
                },
                {
                    "name": "F4",
                    "midi": 65,
                    "time": 434.63893399999887,
                    "velocity": 0.4251968503937008,
                    "duration": 0.38343554166669946
                },
                {
                    "name": "G4",
                    "midi": 67,
                    "time": 434.9928744999989,
                    "velocity": 0.41732283464566927,
                    "duration": 0.38343554166669946
                },
                {
                    "name": "G#4",
                    "midi": 68,
                    "time": 435.3468149999989,
                    "velocity": 0.4251968503937008,
                    "duration": 0.38343554166669946
                },
                {
                    "name": "A4",
                    "midi": 69,
                    "time": 435.70075549999893,
                    "velocity": 0.4251968503937008,
                    "duration": 0.35394050000002153
                },
                {
                    "name": "A#4",
                    "midi": 70,
                    "time": 436.05469599999896,
                    "velocity": 0.3937007874015748,
                    "duration": 2.831523999999945
                },
                {
                    "name": "A#5",
                    "midi": 82,
                    "time": 436.05469599999896,
                    "velocity": 0.4645669291338583,
                    "duration": 1.4157619999999724
                },
                {
                    "name": "G5",
                    "midi": 79,
                    "time": 437.4704579999989,
                    "velocity": 0.4881889763779528,
                    "duration": 0.7078809999999862
                },
                {
                    "name": "F5",
                    "midi": 77,
                    "time": 438.1783389999989,
                    "velocity": 0.4566929133858268,
                    "duration": 0.7078809999999862
                },
                {
                    "name": "A#4",
                    "midi": 70,
                    "time": 438.8862199999989,
                    "velocity": 0.3937007874015748,
                    "duration": 0.5309107499999755
                },
                {
                    "name": "D#5",
                    "midi": 75,
                    "time": 438.8862199999989,
                    "velocity": 0.47244094488188976,
                    "duration": 0.5309107499999755
                },
                {
                    "name": "D5",
                    "midi": 74,
                    "time": 439.5941009999989,
                    "velocity": 0.36220472440944884,
                    "duration": 0.5309107499999755
                },
                {
                    "name": "F5",
                    "midi": 77,
                    "time": 439.5941009999989,
                    "velocity": 0.4330708661417323,
                    "duration": 0.5309107499999755
                },
                {
                    "name": "D#5",
                    "midi": 75,
                    "time": 440.3019819999989,
                    "velocity": 0.3858267716535433,
                    "duration": 0.5309107499999755
                },
                {
                    "name": "G5",
                    "midi": 79,
                    "time": 440.3019819999989,
                    "velocity": 0.4566929133858268,
                    "duration": 0.5309107499999755
                },
                {
                    "name": "D#5",
                    "midi": 75,
                    "time": 441.00986299999886,
                    "velocity": 0.4015748031496063,
                    "duration": 0.5309107499999755
                },
                {
                    "name": "G#5",
                    "midi": 80,
                    "time": 441.00986299999886,
                    "velocity": 0.48031496062992124,
                    "duration": 0.5309107499999755
                },
                {
                    "name": "A#5",
                    "midi": 82,
                    "time": 441.71774399999885,
                    "velocity": 0.49606299212598426,
                    "duration": 0.7078809999999862
                },
                {
                    "name": "D#5",
                    "midi": 75,
                    "time": 441.71774399999885,
                    "velocity": 0.4251968503937008,
                    "duration": 0.7078809999999862
                },
                {
                    "name": "B5",
                    "midi": 83,
                    "time": 442.42562499999883,
                    "velocity": 0.4881889763779528,
                    "duration": 0.2064652916666887
                },
                {
                    "name": "C6",
                    "midi": 84,
                    "time": 442.60259524999884,
                    "velocity": 0.4645669291338583,
                    "duration": 0.2064652916666887
                },
                {
                    "name": "G#5",
                    "midi": 80,
                    "time": 442.77956549999885,
                    "velocity": 0.4645669291338583,
                    "duration": 0.2064652916666887
                },
                {
                    "name": "F5",
                    "midi": 77,
                    "time": 442.95653574999886,
                    "velocity": 0.44881889763779526,
                    "duration": 0.17697025000001076
                },
                {
                    "name": "D#5",
                    "midi": 75,
                    "time": 443.1335059999989,
                    "velocity": 0.5039370078740157,
                    "duration": 0.7078809999999862
                },
                {
                    "name": "G5",
                    "midi": 79,
                    "time": 443.84138699999886,
                    "velocity": 0.47244094488188976,
                    "duration": 0.2064652916666887
                },
                {
                    "name": "F5",
                    "midi": 77,
                    "time": 444.01835724999887,
                    "velocity": 0.4409448818897638,
                    "duration": 0.2064652916666887
                },
                {
                    "name": "E5",
                    "midi": 76,
                    "time": 444.1953274999989,
                    "velocity": 0.4409448818897638,
                    "duration": 0.2064652916666887
                },
                {
                    "name": "F5",
                    "midi": 77,
                    "time": 444.3722977499989,
                    "velocity": 0.41732283464566927,
                    "duration": 0.14747520833333283
                },
                {
                    "name": "D5",
                    "midi": 74,
                    "time": 444.5492679999989,
                    "velocity": 0.4015748031496063,
                    "duration": 1.4157619999999724
                },
                {
                    "name": "F5",
                    "midi": 77,
                    "time": 444.5492679999989,
                    "velocity": 0.48031496062992124,
                    "duration": 1.4157619999999724
                },
                {
                    "name": "D#5",
                    "midi": 75,
                    "time": 445.9650299999989,
                    "velocity": 0.4251968503937008,
                    "duration": 0.7078809999999862
                },
                {
                    "name": "C5",
                    "midi": 72,
                    "time": 447.38079199999885,
                    "velocity": 0.4251968503937008,
                    "duration": 1.0618215000000077
                },
                {
                    "name": "D5",
                    "midi": 74,
                    "time": 448.44261349999886,
                    "velocity": 0.4015748031496063,
                    "duration": 0.35394050000002153
                },
                {
                    "name": "D#5",
                    "midi": 75,
                    "time": 448.7965539999989,
                    "velocity": 0.4330708661417323,
                    "duration": 0.7078809999999862
                },
                {
                    "name": "D#5",
                    "midi": 75,
                    "time": 449.50443499999886,
                    "velocity": 0.4251968503937008,
                    "duration": 0.7078809999999862
                },
                {
                    "name": "D#5",
                    "midi": 75,
                    "time": 450.21231599999885,
                    "velocity": 0.4566929133858268,
                    "duration": 1.0618215000000077
                },
                {
                    "name": "D5",
                    "midi": 74,
                    "time": 451.27413749999886,
                    "velocity": 0.3937007874015748,
                    "duration": 0.17697025000001076
                },
                {
                    "name": "C5",
                    "midi": 72,
                    "time": 451.45110774999887,
                    "velocity": 0.3937007874015748,
                    "duration": 0.17697025000001076
                },
                {
                    "name": "A#4",
                    "midi": 70,
                    "time": 451.6280779999989,
                    "velocity": 0.4251968503937008,
                    "duration": 0.7078809999999862
                },
                {
                    "name": "C5",
                    "midi": 72,
                    "time": 453.04383999999885,
                    "velocity": 0.4251968503937008,
                    "duration": 1.0618215000000077
                },
                {
                    "name": "D5",
                    "midi": 74,
                    "time": 454.10566149999886,
                    "velocity": 0.4015748031496063,
                    "duration": 0.35394050000002153
                },
                {
                    "name": "D#5",
                    "midi": 75,
                    "time": 454.4596019999989,
                    "velocity": 0.4330708661417323,
                    "duration": 0.2654553749999877
                },
                {
                    "name": "D#5",
                    "midi": 75,
                    "time": 454.81354249999885,
                    "velocity": 0.3937007874015748,
                    "duration": 0.2654553749999877
                },
                {
                    "name": "D#5",
                    "midi": 75,
                    "time": 455.1674829999988,
                    "velocity": 0.4251968503937008,
                    "duration": 0.2654553749999877
                },
                {
                    "name": "D#5",
                    "midi": 75,
                    "time": 455.5214234999988,
                    "velocity": 0.4015748031496063,
                    "duration": 0.2654553749999877
                },
                {
                    "name": "D#5",
                    "midi": 75,
                    "time": 455.87536399999874,
                    "velocity": 0.4330708661417323,
                    "duration": 0.17697025000001076
                },
                {
                    "name": "G5",
                    "midi": 79,
                    "time": 456.05233424999875,
                    "velocity": 0.3937007874015748,
                    "duration": 0.17697025000001076
                },
                {
                    "name": "F5",
                    "midi": 77,
                    "time": 456.22930449999876,
                    "velocity": 0.3937007874015748,
                    "duration": 0.17697025000001076
                },
                {
                    "name": "D#5",
                    "midi": 75,
                    "time": 456.4062747499988,
                    "velocity": 0.3937007874015748,
                    "duration": 0.17697025000001076
                },
                {
                    "name": "D5",
                    "midi": 74,
                    "time": 456.5832449999988,
                    "velocity": 0.4330708661417323,
                    "duration": 0.17697025000001076
                },
                {
                    "name": "F5",
                    "midi": 77,
                    "time": 456.7602152499988,
                    "velocity": 0.3937007874015748,
                    "duration": 0.17697025000001076
                },
                {
                    "name": "D#5",
                    "midi": 75,
                    "time": 456.9371854999988,
                    "velocity": 0.3937007874015748,
                    "duration": 0.17697025000001076
                },
                {
                    "name": "C5",
                    "midi": 72,
                    "time": 457.1141557499988,
                    "velocity": 0.3937007874015748,
                    "duration": 0.17697025000001076
                },
                {
                    "name": "A#4",
                    "midi": 70,
                    "time": 457.2911259999988,
                    "velocity": 0.4330708661417323,
                    "duration": 0.7078809999999862
                },
                {
                    "name": "G5",
                    "midi": 79,
                    "time": 459.0608284999988,
                    "velocity": 0.4409448818897638,
                    "duration": 0.35394050000002153
                },
                {
                    "name": "G#5",
                    "midi": 80,
                    "time": 459.41476899999884,
                    "velocity": 0.4881889763779528,
                    "duration": 0.35394050000002153
                },
                {
                    "name": "C6",
                    "midi": 84,
                    "time": 459.76870949999886,
                    "velocity": 0.44881889763779526,
                    "duration": 0.35394050000002153
                },
                {
                    "name": "E5",
                    "midi": 76,
                    "time": 460.1226499999989,
                    "velocity": 0.48031496062992124,
                    "duration": 0.7078809999999862
                },
                {
                    "name": "F5",
                    "midi": 77,
                    "time": 460.83053099999887,
                    "velocity": 0.47244094488188976,
                    "duration": 0.7078809999999862
                },
                {
                    "name": "F#5",
                    "midi": 78,
                    "time": 461.8923524999989,
                    "velocity": 0.4251968503937008,
                    "duration": 0.35394050000002153
                },
                {
                    "name": "G5",
                    "midi": 79,
                    "time": 462.2462929999989,
                    "velocity": 0.4881889763779528,
                    "duration": 0.35394050000002153
                },
                {
                    "name": "A#5",
                    "midi": 82,
                    "time": 462.6002334999989,
                    "velocity": 0.4409448818897638,
                    "duration": 0.35394050000002153
                },
                {
                    "name": "D5",
                    "midi": 74,
                    "time": 462.95417399999894,
                    "velocity": 0.48031496062992124,
                    "duration": 0.7078809999999862
                },
                {
                    "name": "D#5",
                    "midi": 75,
                    "time": 463.66205499999893,
                    "velocity": 0.44881889763779526,
                    "duration": 0.7078809999999862
                },
                {
                    "name": "E5",
                    "midi": 76,
                    "time": 464.72387649999894,
                    "velocity": 0.4251968503937008,
                    "duration": 0.35394050000002153
                },
                {
                    "name": "F5",
                    "midi": 77,
                    "time": 465.07781699999896,
                    "velocity": 0.4881889763779528,
                    "duration": 0.35394050000002153
                },
                {
                    "name": "G#5",
                    "midi": 80,
                    "time": 465.431757499999,
                    "velocity": 0.4409448818897638,
                    "duration": 0.35394050000002153
                },
                {
                    "name": "B4",
                    "midi": 71,
                    "time": 465.785697999999,
                    "velocity": 0.4645669291338583,
                    "duration": 0.38933455000000095
                },
                {
                    "name": "C5",
                    "midi": 72,
                    "time": 466.139638499999,
                    "velocity": 0.4251968503937008,
                    "duration": 0.3893345499999441
                },
                {
                    "name": "D#5",
                    "midi": 75,
                    "time": 466.493578999999,
                    "velocity": 0.4645669291338583,
                    "duration": 0.3893345499999441
                },
                {
                    "name": "D5",
                    "midi": 74,
                    "time": 466.84751949999895,
                    "velocity": 0.4251968503937008,
                    "duration": 0.3539404999999647
                },
                {
                    "name": "F5",
                    "midi": 77,
                    "time": 467.2014599999989,
                    "velocity": 0.44881889763779526,
                    "duration": 1.4157619999999724
                },
                {
                    "name": "D#5",
                    "midi": 75,
                    "time": 468.6172219999989,
                    "velocity": 0.4094488188976378,
                    "duration": 0.7078809999999862
                },
                {
                    "name": "D#5",
                    "midi": 75,
                    "time": 470.03298399999886,
                    "velocity": 0.4251968503937008,
                    "duration": 1.4157619999999724
                },
                {
                    "name": "D5",
                    "midi": 74,
                    "time": 471.44874599999883,
                    "velocity": 0.4251968503937008,
                    "duration": 0.38933455000000095
                },
                {
                    "name": "C5",
                    "midi": 72,
                    "time": 471.80268649999886,
                    "velocity": 0.3937007874015748,
                    "duration": 0.3893345499999441
                },
                {
                    "name": "A#4",
                    "midi": 70,
                    "time": 472.1566269999988,
                    "velocity": 0.4251968503937008,
                    "duration": 0.3893345499999441
                },
                {
                    "name": "A4",
                    "midi": 69,
                    "time": 472.5105674999988,
                    "velocity": 0.3937007874015748,
                    "duration": 0.3539404999999647
                },
                {
                    "name": "G#5",
                    "midi": 80,
                    "time": 472.86450799999875,
                    "velocity": 0.49606299212598426,
                    "duration": 1.4157619999999724
                },
                {
                    "name": "G5",
                    "midi": 79,
                    "time": 474.2802699999987,
                    "velocity": 0.4251968503937008,
                    "duration": 0.38933455000000095
                },
                {
                    "name": "F5",
                    "midi": 77,
                    "time": 474.63421049999874,
                    "velocity": 0.3937007874015748,
                    "duration": 0.3893345499999441
                },
                {
                    "name": "D#5",
                    "midi": 75,
                    "time": 474.9881509999987,
                    "velocity": 0.4251968503937008,
                    "duration": 0.3893345499999441
                },
                {
                    "name": "D5",
                    "midi": 74,
                    "time": 475.3420914999987,
                    "velocity": 0.3937007874015748,
                    "duration": 0.3539404999999647
                },
                {
                    "name": "D#5",
                    "midi": 75,
                    "time": 475.69603199999864,
                    "velocity": 0.4409448818897638,
                    "duration": 0.35394050000002153
                },
                {
                    "name": "G4",
                    "midi": 67,
                    "time": 476.04997249999866,
                    "velocity": 0.4251968503937008,
                    "duration": 0.35394050000002153
                },
                {
                    "name": "F4",
                    "midi": 65,
                    "time": 476.4039129999987,
                    "velocity": 0.4409448818897638,
                    "duration": 0.35394050000002153
                },
                {
                    "name": "C5",
                    "midi": 72,
                    "time": 476.7578534999987,
                    "velocity": 0.3937007874015748,
                    "duration": 0.35394050000002153
                },
                {
                    "name": "A#4",
                    "midi": 70,
                    "time": 477.1117939999987,
                    "velocity": 0.4251968503937008,
                    "duration": 0.35394050000002153
                },
                {
                    "name": "D#4",
                    "midi": 63,
                    "time": 477.46573449999875,
                    "velocity": 0.3858267716535433,
                    "duration": 0.35394050000002153
                },
                {
                    "name": "G#4",
                    "midi": 68,
                    "time": 477.81967499999877,
                    "velocity": 0.4251968503937008,
                    "duration": 0.35394050000002153
                },
                {
                    "name": "D4",
                    "midi": 62,
                    "time": 478.1736154999988,
                    "velocity": 0.3858267716535433,
                    "duration": 0.35394050000002153
                },
                {
                    "name": "D#4",
                    "midi": 63,
                    "time": 478.5275559999988,
                    "velocity": 0.4330708661417323,
                    "duration": 1.4157619999999724
                },
                {
                    "name": "G#5",
                    "midi": 80,
                    "time": 480.2972584999988,
                    "velocity": 0.3858267716535433,
                    "duration": 0.35394050000002153
                },
                {
                    "name": "F5",
                    "midi": 77,
                    "time": 480.6511989999988,
                    "velocity": 0.41732283464566927,
                    "duration": 0.35394050000002153
                },
                {
                    "name": "D5",
                    "midi": 74,
                    "time": 481.00513949999885,
                    "velocity": 0.3937007874015748,
                    "duration": 0.35394050000002153
                },
                {
                    "name": "A#5",
                    "midi": 82,
                    "time": 481.35907999999887,
                    "velocity": 0.4566929133858268,
                    "duration": 1.4157619999999724
                },
                {
                    "name": "G#5",
                    "midi": 80,
                    "time": 483.12878249999886,
                    "velocity": 0.36220472440944884,
                    "duration": 0.35394050000002153
                },
                {
                    "name": "F5",
                    "midi": 77,
                    "time": 483.4827229999989,
                    "velocity": 0.3858267716535433,
                    "duration": 0.35394050000002153
                },
                {
                    "name": "D5",
                    "midi": 74,
                    "time": 483.8366634999989,
                    "velocity": 0.36220472440944884,
                    "duration": 0.35394050000002153
                },
                {
                    "name": "D#5",
                    "midi": 75,
                    "time": 484.1906039999989,
                    "velocity": 0.4330708661417323,
                    "duration": 1.4157619999999724
                },
                {
                    "name": "G#4",
                    "midi": 68,
                    "time": 485.9603064999989,
                    "velocity": 0.3543307086614173,
                    "duration": 0.35394050000002153
                },
                {
                    "name": "F4",
                    "midi": 65,
                    "time": 486.31424699999894,
                    "velocity": 0.3700787401574803,
                    "duration": 0.35394050000002153
                },
                {
                    "name": "D4",
                    "midi": 62,
                    "time": 486.66818749999896,
                    "velocity": 0.30708661417322836,
                    "duration": 0.35394050000002153
                },
                {
                    "name": "G#3",
                    "midi": 56,
                    "time": 487.022127999999,
                    "velocity": 0.23622047244094488,
                    "duration": 2.8315240000000017
                },
                {
                    "name": "F4",
                    "midi": 65,
                    "time": 487.022127999999,
                    "velocity": 0.28346456692913385,
                    "duration": 2.8315240000000017
                },
                {
                    "name": "G3",
                    "midi": 55,
                    "time": 489.853651999999,
                    "velocity": 0.1968503937007874,
                    "duration": 0.7078809999999862
                },
                {
                    "name": "D#4",
                    "midi": 63,
                    "time": 489.853651999999,
                    "velocity": 0.2283464566929134,
                    "duration": 0.7078809999999862
                }
            ],
            "controlChanges": {},
            "id": 1,
            "name": "Piano right",
            "instrumentNumber": 0,
            "instrument": "acoustic grand piano",
            "instrumentFamily": "piano",
            "channelNumber": 0,
            "isPercussion": false
        },
        {
            "startTime": 0,
            "duration": 490.5615330000015,
            "length": 954,
            "notes": [
                {
                    "name": "D#2",
                    "midi": 39,
                    "time": 0,
                    "velocity": 0.1968503937007874,
                    "duration": 1.415762
                },
                {
                    "name": "D#3",
                    "midi": 51,
                    "time": 0,
                    "velocity": 0.28346456692913385,
                    "duration": 1.415762
                },
                {
                    "name": "A#2",
                    "midi": 46,
                    "time": 2.123643,
                    "velocity": 0.23622047244094488,
                    "duration": 0.707881
                },
                {
                    "name": "D#3",
                    "midi": 51,
                    "time": 2.831524,
                    "velocity": 0.28346456692913385,
                    "duration": 1.415762
                },
                {
                    "name": "A#2",
                    "midi": 46,
                    "time": 4.955166999999999,
                    "velocity": 0.25984251968503935,
                    "duration": 0.7078810000000004
                },
                {
                    "name": "D#3",
                    "midi": 51,
                    "time": 5.663048,
                    "velocity": 0.28346456692913385,
                    "duration": 0.7078810000000004
                },
                {
                    "name": "C3",
                    "midi": 48,
                    "time": 6.370929,
                    "velocity": 0.2440944881889764,
                    "duration": 0.7078810000000004
                },
                {
                    "name": "G2",
                    "midi": 43,
                    "time": 7.078810000000001,
                    "velocity": 0.28346456692913385,
                    "duration": 0.7078810000000004
                },
                {
                    "name": "G#2",
                    "midi": 44,
                    "time": 7.786691000000001,
                    "velocity": 0.2677165354330709,
                    "duration": 0.7078810000000004
                },
                {
                    "name": "A#2",
                    "midi": 46,
                    "time": 8.494572000000002,
                    "velocity": 0.28346456692913385,
                    "duration": 2.1236429999999995
                },
                {
                    "name": "G4",
                    "midi": 67,
                    "time": 11.326096000000001,
                    "velocity": 0.28346456692913385,
                    "duration": 1.415761999999999
                },
                {
                    "name": "D#4",
                    "midi": 63,
                    "time": 12.741858,
                    "velocity": 0.28346456692913385,
                    "duration": 0.7078810000000004
                },
                {
                    "name": "A#3",
                    "midi": 58,
                    "time": 13.449739000000001,
                    "velocity": 0.2677165354330709,
                    "duration": 0.7078810000000004
                },
                {
                    "name": "G3",
                    "midi": 55,
                    "time": 14.157620000000001,
                    "velocity": 0.2992125984251969,
                    "duration": 0.5309107500000003
                },
                {
                    "name": "A#3",
                    "midi": 58,
                    "time": 14.865501000000002,
                    "velocity": 0.2677165354330709,
                    "duration": 0.5309107500000003
                },
                {
                    "name": "D#4",
                    "midi": 63,
                    "time": 15.573382000000002,
                    "velocity": 0.28346456692913385,
                    "duration": 0.5309107500000003
                },
                {
                    "name": "C4",
                    "midi": 60,
                    "time": 16.281263000000003,
                    "velocity": 0.30708661417322836,
                    "duration": 0.5309107500000003
                },
                {
                    "name": "G3",
                    "midi": 55,
                    "time": 16.989144000000003,
                    "velocity": 0.33070866141732286,
                    "duration": 0.7078810000000004
                },
                {
                    "name": "F4",
                    "midi": 65,
                    "time": 17.697025000000004,
                    "velocity": 0.28346456692913385,
                    "duration": 0.7078810000000004
                },
                {
                    "name": "G#3",
                    "midi": 56,
                    "time": 17.697025000000004,
                    "velocity": 0.23622047244094488,
                    "duration": 0.7078810000000004
                },
                {
                    "name": "A#3",
                    "midi": 58,
                    "time": 18.404906000000004,
                    "velocity": 0.2755905511811024,
                    "duration": 1.4157620000000009
                },
                {
                    "name": "G4",
                    "midi": 67,
                    "time": 18.404906000000004,
                    "velocity": 0.33070866141732286,
                    "duration": 0.7078810000000004
                },
                {
                    "name": "G#4",
                    "midi": 68,
                    "time": 19.112787000000004,
                    "velocity": 0.25984251968503935,
                    "duration": 0.7078810000000004
                },
                {
                    "name": "D#4",
                    "midi": 63,
                    "time": 19.820668000000005,
                    "velocity": 0.2204724409448819,
                    "duration": 2.1236430000000013
                },
                {
                    "name": "G#4",
                    "midi": 68,
                    "time": 19.820668000000005,
                    "velocity": 0.2677165354330709,
                    "duration": 1.4157620000000009
                },
                {
                    "name": "G4",
                    "midi": 67,
                    "time": 21.236430000000006,
                    "velocity": 0.25196850393700787,
                    "duration": 0.7078810000000004
                },
                {
                    "name": "D#2",
                    "midi": 39,
                    "time": 22.652192000000007,
                    "velocity": 0.1968503937007874,
                    "duration": 1.4157620000000009
                },
                {
                    "name": "D#3",
                    "midi": 51,
                    "time": 22.652192000000007,
                    "velocity": 0.28346456692913385,
                    "duration": 1.4157620000000009
                },
                {
                    "name": "A#2",
                    "midi": 46,
                    "time": 24.775835000000008,
                    "velocity": 0.23622047244094488,
                    "duration": 0.7078810000000004
                },
                {
                    "name": "D#3",
                    "midi": 51,
                    "time": 25.48371600000001,
                    "velocity": 0.28346456692913385,
                    "duration": 1.4157620000000009
                },
                {
                    "name": "A#2",
                    "midi": 46,
                    "time": 27.60735900000001,
                    "velocity": 0.25984251968503935,
                    "duration": 0.7078810000000004
                },
                {
                    "name": "D#3",
                    "midi": 51,
                    "time": 28.31524000000001,
                    "velocity": 0.28346456692913385,
                    "duration": 0.7078810000000004
                },
                {
                    "name": "C3",
                    "midi": 48,
                    "time": 29.02312100000001,
                    "velocity": 0.2440944881889764,
                    "duration": 0.7078810000000004
                },
                {
                    "name": "G2",
                    "midi": 43,
                    "time": 29.73100200000001,
                    "velocity": 0.28346456692913385,
                    "duration": 0.7078810000000004
                },
                {
                    "name": "G#2",
                    "midi": 44,
                    "time": 30.43888300000001,
                    "velocity": 0.2677165354330709,
                    "duration": 0.7078810000000004
                },
                {
                    "name": "A#2",
                    "midi": 46,
                    "time": 31.14676400000001,
                    "velocity": 0.28346456692913385,
                    "duration": 2.1236430000000013
                },
                {
                    "name": "G4",
                    "midi": 67,
                    "time": 33.97828800000001,
                    "velocity": 0.28346456692913385,
                    "duration": 1.4157620000000009
                },
                {
                    "name": "D#4",
                    "midi": 63,
                    "time": 35.394050000000014,
                    "velocity": 0.28346456692913385,
                    "duration": 0.7078810000000004
                },
                {
                    "name": "A#3",
                    "midi": 58,
                    "time": 36.101931000000015,
                    "velocity": 0.2677165354330709,
                    "duration": 0.7078810000000004
                },
                {
                    "name": "G3",
                    "midi": 55,
                    "time": 36.809812000000015,
                    "velocity": 0.2992125984251969,
                    "duration": 0.5309107499999968
                },
                {
                    "name": "A#3",
                    "midi": 58,
                    "time": 37.51769300000001,
                    "velocity": 0.2677165354330709,
                    "duration": 0.5309107499999968
                },
                {
                    "name": "D#4",
                    "midi": 63,
                    "time": 38.225574,
                    "velocity": 0.28346456692913385,
                    "duration": 0.5309107499999968
                },
                {
                    "name": "C4",
                    "midi": 60,
                    "time": 38.933454999999995,
                    "velocity": 0.30708661417322836,
                    "duration": 0.5309107499999968
                },
                {
                    "name": "G3",
                    "midi": 55,
                    "time": 39.64133599999999,
                    "velocity": 0.33070866141732286,
                    "duration": 0.7078810000000004
                },
                {
                    "name": "F4",
                    "midi": 65,
                    "time": 40.34921699999999,
                    "velocity": 0.28346456692913385,
                    "duration": 0.7078810000000004
                },
                {
                    "name": "G#3",
                    "midi": 56,
                    "time": 40.34921699999999,
                    "velocity": 0.23622047244094488,
                    "duration": 0.7078810000000004
                },
                {
                    "name": "A#3",
                    "midi": 58,
                    "time": 41.05709799999999,
                    "velocity": 0.2755905511811024,
                    "duration": 1.4157620000000009
                },
                {
                    "name": "G4",
                    "midi": 67,
                    "time": 41.05709799999999,
                    "velocity": 0.33070866141732286,
                    "duration": 0.7078810000000004
                },
                {
                    "name": "G#4",
                    "midi": 68,
                    "time": 41.76497899999999,
                    "velocity": 0.25984251968503935,
                    "duration": 0.7078810000000004
                },
                {
                    "name": "D#4",
                    "midi": 63,
                    "time": 42.47285999999999,
                    "velocity": 0.2204724409448819,
                    "duration": 2.1236430000000013
                },
                {
                    "name": "G#4",
                    "midi": 68,
                    "time": 42.47285999999999,
                    "velocity": 0.2677165354330709,
                    "duration": 1.4157620000000009
                },
                {
                    "name": "G4",
                    "midi": 67,
                    "time": 43.88862199999999,
                    "velocity": 0.25196850393700787,
                    "duration": 0.7078810000000004
                },
                {
                    "name": "D4",
                    "midi": 62,
                    "time": 45.30438399999999,
                    "velocity": 0.25196850393700787,
                    "duration": 0.7078810000000004
                },
                {
                    "name": "A#3",
                    "midi": 58,
                    "time": 46.01226499999999,
                    "velocity": 0.2283464566929134,
                    "duration": 0.7078810000000004
                },
                {
                    "name": "D#4",
                    "midi": 63,
                    "time": 46.72014599999999,
                    "velocity": 0.25196850393700787,
                    "duration": 0.7078810000000004
                },
                {
                    "name": "A#3",
                    "midi": 58,
                    "time": 47.42802699999999,
                    "velocity": 0.2204724409448819,
                    "duration": 0.7078810000000004
                },
                {
                    "name": "A#3",
                    "midi": 58,
                    "time": 48.13590799999999,
                    "velocity": 0.2283464566929134,
                    "duration": 1.4157620000000009
                },
                {
                    "name": "F4",
                    "midi": 65,
                    "time": 48.13590799999999,
                    "velocity": 0.2755905511811024,
                    "duration": 1.4157620000000009
                },
                {
                    "name": "D#4",
                    "midi": 63,
                    "time": 50.967431999999995,
                    "velocity": 0.25196850393700787,
                    "duration": 0.7078810000000004
                },
                {
                    "name": "D#4",
                    "midi": 63,
                    "time": 51.675312999999996,
                    "velocity": 0.25196850393700787,
                    "duration": 0.7078810000000004
                },
                {
                    "name": "F4",
                    "midi": 65,
                    "time": 52.383193999999996,
                    "velocity": 0.25196850393700787,
                    "duration": 0.7078810000000004
                },
                {
                    "name": "D#4",
                    "midi": 63,
                    "time": 52.383193999999996,
                    "velocity": 0.2125984251968504,
                    "duration": 0.7078810000000004
                },
                {
                    "name": "F#4",
                    "midi": 66,
                    "time": 53.091075,
                    "velocity": 0.25196850393700787,
                    "duration": 0.7078810000000004
                },
                {
                    "name": "D#4",
                    "midi": 63,
                    "time": 53.091075,
                    "velocity": 0.2125984251968504,
                    "duration": 0.7078810000000004
                },
                {
                    "name": "D#4",
                    "midi": 63,
                    "time": 53.798956,
                    "velocity": 0.23622047244094488,
                    "duration": 1.4157620000000009
                },
                {
                    "name": "G4",
                    "midi": 67,
                    "time": 53.798956,
                    "velocity": 0.28346456692913385,
                    "duration": 1.4157620000000009
                },
                {
                    "name": "G#4",
                    "midi": 68,
                    "time": 57.338361,
                    "velocity": 0.2204724409448819,
                    "duration": 0.7078810000000004
                },
                {
                    "name": "D#5",
                    "midi": 75,
                    "time": 57.338361,
                    "velocity": 0.2677165354330709,
                    "duration": 0.7078810000000004
                },
                {
                    "name": "F#4",
                    "midi": 66,
                    "time": 58.754123,
                    "velocity": 0.2204724409448819,
                    "duration": 0.7078810000000004
                },
                {
                    "name": "D#5",
                    "midi": 75,
                    "time": 58.754123,
                    "velocity": 0.2677165354330709,
                    "duration": 0.7078810000000004
                },
                {
                    "name": "F4",
                    "midi": 65,
                    "time": 60.169885,
                    "velocity": 0.2204724409448819,
                    "duration": 0.7078810000000004
                },
                {
                    "name": "D#5",
                    "midi": 75,
                    "time": 60.169885,
                    "velocity": 0.2677165354330709,
                    "duration": 0.7078810000000004
                },
                {
                    "name": "B3",
                    "midi": 59,
                    "time": 61.585647,
                    "velocity": 0.2204724409448819,
                    "duration": 0.7078810000000004
                },
                {
                    "name": "D4",
                    "midi": 62,
                    "time": 61.585647,
                    "velocity": 0.2677165354330709,
                    "duration": 0.7078810000000004
                },
                {
                    "name": "C4",
                    "midi": 60,
                    "time": 62.293528,
                    "velocity": 0.23622047244094488,
                    "duration": 1.4157620000000009
                },
                {
                    "name": "D#4",
                    "midi": 63,
                    "time": 62.293528,
                    "velocity": 0.28346456692913385,
                    "duration": 1.4157620000000009
                },
                {
                    "name": "G#3",
                    "midi": 56,
                    "time": 63.70929,
                    "velocity": 0.23622047244094488,
                    "duration": 0.7078809999999933
                },
                {
                    "name": "C4",
                    "midi": 60,
                    "time": 63.70929,
                    "velocity": 0.28346456692913385,
                    "duration": 0.7078809999999933
                },
                {
                    "name": "G#4",
                    "midi": 68,
                    "time": 64.417171,
                    "velocity": 0.23622047244094488,
                    "duration": 0.7078810000000004
                },
                {
                    "name": "A#3",
                    "midi": 58,
                    "time": 65.125052,
                    "velocity": 0.2125984251968504,
                    "duration": 2.1236430000000013
                },
                {
                    "name": "G4",
                    "midi": 67,
                    "time": 65.125052,
                    "velocity": 0.25196850393700787,
                    "duration": 1.4157620000000009
                },
                {
                    "name": "F4",
                    "midi": 65,
                    "time": 66.540814,
                    "velocity": 0.25196850393700787,
                    "duration": 0.7078810000000004
                },
                {
                    "name": "D#2",
                    "midi": 39,
                    "time": 67.956576,
                    "velocity": 0.1968503937007874,
                    "duration": 1.4157620000000009
                },
                {
                    "name": "D#3",
                    "midi": 51,
                    "time": 67.956576,
                    "velocity": 0.28346456692913385,
                    "duration": 1.4157620000000009
                },
                {
                    "name": "A#2",
                    "midi": 46,
                    "time": 70.080219,
                    "velocity": 0.23622047244094488,
                    "duration": 0.7078810000000004
                },
                {
                    "name": "D#3",
                    "midi": 51,
                    "time": 70.7881,
                    "velocity": 0.28346456692913385,
                    "duration": 1.4157620000000009
                },
                {
                    "name": "A#2",
                    "midi": 46,
                    "time": 72.911743,
                    "velocity": 0.25984251968503935,
                    "duration": 0.7078810000000004
                },
                {
                    "name": "D#3",
                    "midi": 51,
                    "time": 73.619624,
                    "velocity": 0.28346456692913385,
                    "duration": 0.7078810000000004
                },
                {
                    "name": "C3",
                    "midi": 48,
                    "time": 74.327505,
                    "velocity": 0.2440944881889764,
                    "duration": 0.7078810000000004
                },
                {
                    "name": "G2",
                    "midi": 43,
                    "time": 75.035386,
                    "velocity": 0.28346456692913385,
                    "duration": 0.7078810000000004
                },
                {
                    "name": "G#2",
                    "midi": 44,
                    "time": 75.743267,
                    "velocity": 0.2677165354330709,
                    "duration": 0.7078810000000004
                },
                {
                    "name": "A#2",
                    "midi": 46,
                    "time": 76.451148,
                    "velocity": 0.28346456692913385,
                    "duration": 2.1236430000000013
                },
                {
                    "name": "G4",
                    "midi": 67,
                    "time": 79.282672,
                    "velocity": 0.28346456692913385,
                    "duration": 1.4157620000000009
                },
                {
                    "name": "D#4",
                    "midi": 63,
                    "time": 80.698434,
                    "velocity": 0.28346456692913385,
                    "duration": 0.7078810000000004
                },
                {
                    "name": "A#3",
                    "midi": 58,
                    "time": 81.406315,
                    "velocity": 0.2677165354330709,
                    "duration": 0.7078810000000004
                },
                {
                    "name": "G3",
                    "midi": 55,
                    "time": 82.114196,
                    "velocity": 0.2992125984251969,
                    "duration": 0.5309107500000039
                },
                {
                    "name": "A#3",
                    "midi": 58,
                    "time": 82.82207700000001,
                    "velocity": 0.2677165354330709,
                    "duration": 0.5309107500000039
                },
                {
                    "name": "D#4",
                    "midi": 63,
                    "time": 83.52995800000001,
                    "velocity": 0.28346456692913385,
                    "duration": 0.5309107500000039
                },
                {
                    "name": "C4",
                    "midi": 60,
                    "time": 84.23783900000001,
                    "velocity": 0.30708661417322836,
                    "duration": 0.5309107500000039
                },
                {
                    "name": "G3",
                    "midi": 55,
                    "time": 84.94572000000001,
                    "velocity": 0.33070866141732286,
                    "duration": 0.7078810000000004
                },
                {
                    "name": "F4",
                    "midi": 65,
                    "time": 85.65360100000001,
                    "velocity": 0.28346456692913385,
                    "duration": 0.7078810000000004
                },
                {
                    "name": "G#3",
                    "midi": 56,
                    "time": 85.65360100000001,
                    "velocity": 0.23622047244094488,
                    "duration": 0.7078810000000004
                },
                {
                    "name": "A#3",
                    "midi": 58,
                    "time": 86.36148200000001,
                    "velocity": 0.2755905511811024,
                    "duration": 1.4157620000000009
                },
                {
                    "name": "G4",
                    "midi": 67,
                    "time": 86.36148200000001,
                    "velocity": 0.33070866141732286,
                    "duration": 0.7078810000000004
                },
                {
                    "name": "G#4",
                    "midi": 68,
                    "time": 87.06936300000001,
                    "velocity": 0.25984251968503935,
                    "duration": 0.7078810000000004
                },
                {
                    "name": "D#4",
                    "midi": 63,
                    "time": 87.77724400000001,
                    "velocity": 0.2204724409448819,
                    "duration": 2.1236430000000013
                },
                {
                    "name": "G#4",
                    "midi": 68,
                    "time": 87.77724400000001,
                    "velocity": 0.2677165354330709,
                    "duration": 1.4157620000000009
                },
                {
                    "name": "G4",
                    "midi": 67,
                    "time": 89.19300600000001,
                    "velocity": 0.25196850393700787,
                    "duration": 0.7078810000000004
                },
                {
                    "name": "D4",
                    "midi": 62,
                    "time": 90.60876800000001,
                    "velocity": 0.25196850393700787,
                    "duration": 0.7078810000000004
                },
                {
                    "name": "A#3",
                    "midi": 58,
                    "time": 91.31664900000001,
                    "velocity": 0.2283464566929134,
                    "duration": 0.7078810000000004
                },
                {
                    "name": "D#4",
                    "midi": 63,
                    "time": 92.02453000000001,
                    "velocity": 0.25196850393700787,
                    "duration": 0.7078810000000004
                },
                {
                    "name": "A#3",
                    "midi": 58,
                    "time": 92.73241100000001,
                    "velocity": 0.2204724409448819,
                    "duration": 0.7078810000000004
                },
                {
                    "name": "A#3",
                    "midi": 58,
                    "time": 93.44029200000001,
                    "velocity": 0.2283464566929134,
                    "duration": 1.4157620000000009
                },
                {
                    "name": "F4",
                    "midi": 65,
                    "time": 93.44029200000001,
                    "velocity": 0.2755905511811024,
                    "duration": 1.4157620000000009
                },
                {
                    "name": "D#4",
                    "midi": 63,
                    "time": 96.27181600000002,
                    "velocity": 0.25196850393700787,
                    "duration": 0.7078810000000004
                },
                {
                    "name": "D#4",
                    "midi": 63,
                    "time": 96.97969700000002,
                    "velocity": 0.25196850393700787,
                    "duration": 0.7078810000000004
                },
                {
                    "name": "F4",
                    "midi": 65,
                    "time": 97.68757800000002,
                    "velocity": 0.25196850393700787,
                    "duration": 0.7078810000000004
                },
                {
                    "name": "D#4",
                    "midi": 63,
                    "time": 97.68757800000002,
                    "velocity": 0.2125984251968504,
                    "duration": 0.7078810000000004
                },
                {
                    "name": "F#4",
                    "midi": 66,
                    "time": 98.39545900000002,
                    "velocity": 0.25196850393700787,
                    "duration": 0.7078810000000004
                },
                {
                    "name": "D#4",
                    "midi": 63,
                    "time": 98.39545900000002,
                    "velocity": 0.2125984251968504,
                    "duration": 0.7078810000000004
                },
                {
                    "name": "D#4",
                    "midi": 63,
                    "time": 99.10334000000002,
                    "velocity": 0.23622047244094488,
                    "duration": 1.4157620000000009
                },
                {
                    "name": "G4",
                    "midi": 67,
                    "time": 99.10334000000002,
                    "velocity": 0.28346456692913385,
                    "duration": 1.4157620000000009
                },
                {
                    "name": "G#4",
                    "midi": 68,
                    "time": 102.64274500000002,
                    "velocity": 0.2204724409448819,
                    "duration": 0.7078810000000004
                },
                {
                    "name": "D#5",
                    "midi": 75,
                    "time": 102.64274500000002,
                    "velocity": 0.2677165354330709,
                    "duration": 0.7078810000000004
                },
                {
                    "name": "F#4",
                    "midi": 66,
                    "time": 104.05850700000002,
                    "velocity": 0.2204724409448819,
                    "duration": 0.7078810000000004
                },
                {
                    "name": "D#5",
                    "midi": 75,
                    "time": 104.05850700000002,
                    "velocity": 0.2677165354330709,
                    "duration": 0.7078810000000004
                },
                {
                    "name": "F4",
                    "midi": 65,
                    "time": 105.47426900000002,
                    "velocity": 0.2204724409448819,
                    "duration": 0.7078810000000004
                },
                {
                    "name": "D#5",
                    "midi": 75,
                    "time": 105.47426900000002,
                    "velocity": 0.2677165354330709,
                    "duration": 0.7078810000000004
                },
                {
                    "name": "B3",
                    "midi": 59,
                    "time": 106.89003100000002,
                    "velocity": 0.2204724409448819,
                    "duration": 0.7078810000000004
                },
                {
                    "name": "D4",
                    "midi": 62,
                    "time": 106.89003100000002,
                    "velocity": 0.2677165354330709,
                    "duration": 0.7078810000000004
                },
                {
                    "name": "C4",
                    "midi": 60,
                    "time": 107.59791200000002,
                    "velocity": 0.23622047244094488,
                    "duration": 1.4157620000000009
                },
                {
                    "name": "D#4",
                    "midi": 63,
                    "time": 107.59791200000002,
                    "velocity": 0.28346456692913385,
                    "duration": 1.4157620000000009
                },
                {
                    "name": "G#3",
                    "midi": 56,
                    "time": 109.01367400000002,
                    "velocity": 0.23622047244094488,
                    "duration": 0.7078810000000004
                },
                {
                    "name": "C4",
                    "midi": 60,
                    "time": 109.01367400000002,
                    "velocity": 0.28346456692913385,
                    "duration": 0.7078810000000004
                },
                {
                    "name": "G#4",
                    "midi": 68,
                    "time": 109.72155500000002,
                    "velocity": 0.23622047244094488,
                    "duration": 0.7078810000000004
                },
                {
                    "name": "A#3",
                    "midi": 58,
                    "time": 110.42943600000002,
                    "velocity": 0.2125984251968504,
                    "duration": 2.1236430000000013
                },
                {
                    "name": "G4",
                    "midi": 67,
                    "time": 110.42943600000002,
                    "velocity": 0.25196850393700787,
                    "duration": 1.4157620000000009
                },
                {
                    "name": "F4",
                    "midi": 65,
                    "time": 111.84519800000002,
                    "velocity": 0.25196850393700787,
                    "duration": 0.7078810000000004
                },
                {
                    "name": "D#2",
                    "midi": 39,
                    "time": 113.26096000000003,
                    "velocity": 0.1968503937007874,
                    "duration": 1.4157620000000009
                },
                {
                    "name": "D#3",
                    "midi": 51,
                    "time": 113.26096000000003,
                    "velocity": 0.28346456692913385,
                    "duration": 1.4157620000000009
                },
                {
                    "name": "A#2",
                    "midi": 46,
                    "time": 115.38460300000003,
                    "velocity": 0.23622047244094488,
                    "duration": 0.7078810000000004
                },
                {
                    "name": "D#3",
                    "midi": 51,
                    "time": 116.09248400000003,
                    "velocity": 0.28346456692913385,
                    "duration": 1.4157620000000009
                },
                {
                    "name": "A#2",
                    "midi": 46,
                    "time": 118.21612700000003,
                    "velocity": 0.25984251968503935,
                    "duration": 0.7078810000000004
                },
                {
                    "name": "D#3",
                    "midi": 51,
                    "time": 118.92400800000003,
                    "velocity": 0.28346456692913385,
                    "duration": 0.7078810000000004
                },
                {
                    "name": "C3",
                    "midi": 48,
                    "time": 119.63188900000003,
                    "velocity": 0.2440944881889764,
                    "duration": 0.7078810000000004
                },
                {
                    "name": "G2",
                    "midi": 43,
                    "time": 120.33977000000003,
                    "velocity": 0.28346456692913385,
                    "duration": 0.7078810000000004
                },
                {
                    "name": "G#2",
                    "midi": 44,
                    "time": 121.04765100000003,
                    "velocity": 0.2677165354330709,
                    "duration": 0.7078810000000004
                },
                {
                    "name": "A#2",
                    "midi": 46,
                    "time": 121.75553200000003,
                    "velocity": 0.28346456692913385,
                    "duration": 2.1236430000000013
                },
                {
                    "name": "G4",
                    "midi": 67,
                    "time": 124.58705600000003,
                    "velocity": 0.28346456692913385,
                    "duration": 1.4157620000000009
                },
                {
                    "name": "D#4",
                    "midi": 63,
                    "time": 126.00281800000003,
                    "velocity": 0.28346456692913385,
                    "duration": 0.7078810000000004
                },
                {
                    "name": "A#3",
                    "midi": 58,
                    "time": 126.71069900000003,
                    "velocity": 0.2677165354330709,
                    "duration": 0.7078810000000004
                },
                {
                    "name": "G3",
                    "midi": 55,
                    "time": 127.41858000000003,
                    "velocity": 0.2992125984251969,
                    "duration": 0.5309107500000039
                },
                {
                    "name": "A#3",
                    "midi": 58,
                    "time": 128.12646100000003,
                    "velocity": 0.2677165354330709,
                    "duration": 0.5309107500000039
                },
                {
                    "name": "D#4",
                    "midi": 63,
                    "time": 128.83434200000005,
                    "velocity": 0.28346456692913385,
                    "duration": 0.5309107500000039
                },
                {
                    "name": "C4",
                    "midi": 60,
                    "time": 129.54222300000006,
                    "velocity": 0.30708661417322836,
                    "duration": 0.5309107500000039
                },
                {
                    "name": "G3",
                    "midi": 55,
                    "time": 130.25010400000008,
                    "velocity": 0.33070866141732286,
                    "duration": 0.7078809999999862
                },
                {
                    "name": "F4",
                    "midi": 65,
                    "time": 130.95798500000006,
                    "velocity": 0.28346456692913385,
                    "duration": 0.7078809999999862
                },
                {
                    "name": "G#3",
                    "midi": 56,
                    "time": 130.95798500000006,
                    "velocity": 0.23622047244094488,
                    "duration": 0.7078809999999862
                },
                {
                    "name": "A#3",
                    "midi": 58,
                    "time": 131.66586600000005,
                    "velocity": 0.2755905511811024,
                    "duration": 1.4157619999999724
                },
                {
                    "name": "G4",
                    "midi": 67,
                    "time": 131.66586600000005,
                    "velocity": 0.33070866141732286,
                    "duration": 0.7078809999999862
                },
                {
                    "name": "G#4",
                    "midi": 68,
                    "time": 132.37374700000004,
                    "velocity": 0.25984251968503935,
                    "duration": 0.7078809999999862
                },
                {
                    "name": "D#4",
                    "midi": 63,
                    "time": 133.08162800000002,
                    "velocity": 0.2204724409448819,
                    "duration": 2.123642999999987
                },
                {
                    "name": "G#4",
                    "midi": 68,
                    "time": 133.08162800000002,
                    "velocity": 0.2677165354330709,
                    "duration": 1.4157620000000009
                },
                {
                    "name": "G4",
                    "midi": 67,
                    "time": 134.49739000000002,
                    "velocity": 0.25196850393700787,
                    "duration": 0.7078809999999862
                },
                {
                    "name": "C3",
                    "midi": 48,
                    "time": 135.913152,
                    "velocity": 0.28346456692913385,
                    "duration": 0.3539404999999931
                },
                {
                    "name": "C4",
                    "midi": 60,
                    "time": 136.2670925,
                    "velocity": 0.23622047244094488,
                    "duration": 0.2654553749999877
                },
                {
                    "name": "C4",
                    "midi": 60,
                    "time": 136.62103299999998,
                    "velocity": 0.23622047244094488,
                    "duration": 0.2654553749999877
                },
                {
                    "name": "C4",
                    "midi": 60,
                    "time": 136.97497349999998,
                    "velocity": 0.25196850393700787,
                    "duration": 0.2654553749999877
                },
                {
                    "name": "C4",
                    "midi": 60,
                    "time": 137.32891399999997,
                    "velocity": 0.25196850393700787,
                    "duration": 0.2654553749999877
                },
                {
                    "name": "C4",
                    "midi": 60,
                    "time": 137.68285449999996,
                    "velocity": 0.2283464566929134,
                    "duration": 0.2654553749999877
                },
                {
                    "name": "C4",
                    "midi": 60,
                    "time": 138.03679499999996,
                    "velocity": 0.2283464566929134,
                    "duration": 0.2654553749999877
                },
                {
                    "name": "C4",
                    "midi": 60,
                    "time": 138.39073549999995,
                    "velocity": 0.2283464566929134,
                    "duration": 0.2654553749999877
                },
                {
                    "name": "B2",
                    "midi": 47,
                    "time": 138.74467599999994,
                    "velocity": 0.28346456692913385,
                    "duration": 0.3539404999999931
                },
                {
                    "name": "B3",
                    "midi": 59,
                    "time": 139.09861649999993,
                    "velocity": 0.25196850393700787,
                    "duration": 0.2654553749999877
                },
                {
                    "name": "B3",
                    "midi": 59,
                    "time": 139.45255699999993,
                    "velocity": 0.25196850393700787,
                    "duration": 0.2654553749999877
                },
                {
                    "name": "B3",
                    "midi": 59,
                    "time": 139.80649749999992,
                    "velocity": 0.25196850393700787,
                    "duration": 0.2654553749999877
                },
                {
                    "name": "B3",
                    "midi": 59,
                    "time": 140.1604379999999,
                    "velocity": 0.28346456692913385,
                    "duration": 0.2654553749999877
                },
                {
                    "name": "B3",
                    "midi": 59,
                    "time": 140.5143784999999,
                    "velocity": 0.2283464566929134,
                    "duration": 0.2654553749999877
                },
                {
                    "name": "B3",
                    "midi": 59,
                    "time": 140.8683189999999,
                    "velocity": 0.2283464566929134,
                    "duration": 0.2654553749999877
                },
                {
                    "name": "B3",
                    "midi": 59,
                    "time": 141.2222594999999,
                    "velocity": 0.2283464566929134,
                    "duration": 0.2654553749999877
                },
                {
                    "name": "C4",
                    "midi": 60,
                    "time": 141.5761999999999,
                    "velocity": 0.36220472440944884,
                    "duration": 1.4157620000000009
                },
                {
                    "name": "G#3",
                    "midi": 56,
                    "time": 142.9919619999999,
                    "velocity": 0.31496062992125984,
                    "duration": 0.7078809999999862
                },
                {
                    "name": "F#3",
                    "midi": 54,
                    "time": 143.69984299999987,
                    "velocity": 0.28346456692913385,
                    "duration": 0.7078809999999862
                },
                {
                    "name": "G3",
                    "midi": 55,
                    "time": 144.40772399999986,
                    "velocity": 0.36220472440944884,
                    "duration": 0.3539404999999931
                },
                {
                    "name": "G2",
                    "midi": 43,
                    "time": 144.76166449999985,
                    "velocity": 0.3228346456692913,
                    "duration": 0.3539404999999931
                },
                {
                    "name": "G3",
                    "midi": 55,
                    "time": 145.11560499999985,
                    "velocity": 0.36220472440944884,
                    "duration": 0.17697025000001076
                },
                {
                    "name": "G3",
                    "midi": 55,
                    "time": 145.46954549999987,
                    "velocity": 0.33070866141732286,
                    "duration": 0.17697025000001076
                },
                {
                    "name": "G3",
                    "midi": 55,
                    "time": 145.8234859999999,
                    "velocity": 0.3779527559055118,
                    "duration": 0.38343554166667104
                },
                {
                    "name": "F3",
                    "midi": 53,
                    "time": 146.17742649999988,
                    "velocity": 0.3543307086614173,
                    "duration": 0.38343554166669946
                },
                {
                    "name": "D#3",
                    "midi": 51,
                    "time": 146.5313669999999,
                    "velocity": 0.33858267716535434,
                    "duration": 0.38343554166669946
                },
                {
                    "name": "D3",
                    "midi": 50,
                    "time": 146.88530749999993,
                    "velocity": 0.30708661417322836,
                    "duration": 0.38343554166669946
                },
                {
                    "name": "C3",
                    "midi": 48,
                    "time": 147.23924799999995,
                    "velocity": 0.36220472440944884,
                    "duration": 1.4157620000000009
                },
                {
                    "name": "D#4",
                    "midi": 63,
                    "time": 149.00895049999994,
                    "velocity": 0.30708661417322836,
                    "duration": 0.2654553749999877
                },
                {
                    "name": "C4",
                    "midi": 60,
                    "time": 149.00895049999994,
                    "velocity": 0.25984251968503935,
                    "duration": 0.2654553749999877
                },
                {
                    "name": "C4",
                    "midi": 60,
                    "time": 149.36289099999993,
                    "velocity": 0.28346456692913385,
                    "duration": 0.2654553749999877
                },
                {
                    "name": "D#4",
                    "midi": 63,
                    "time": 149.36289099999993,
                    "velocity": 0.33858267716535434,
                    "duration": 0.2654553749999877
                },
                {
                    "name": "C4",
                    "midi": 60,
                    "time": 149.71683149999993,
                    "velocity": 0.2677165354330709,
                    "duration": 0.2654553749999877
                },
                {
                    "name": "D#4",
                    "midi": 63,
                    "time": 149.71683149999993,
                    "velocity": 0.31496062992125984,
                    "duration": 0.2654553749999877
                },
                {
                    "name": "A#3",
                    "midi": 58,
                    "time": 150.07077199999992,
                    "velocity": 0.33858267716535434,
                    "duration": 1.4157620000000009
                },
                {
                    "name": "D4",
                    "midi": 62,
                    "time": 150.07077199999992,
                    "velocity": 0.4015748031496063,
                    "duration": 1.4157620000000009
                },
                {
                    "name": "E4",
                    "midi": 64,
                    "time": 151.8404744999999,
                    "velocity": 0.28346456692913385,
                    "duration": 0.2654553749999877
                },
                {
                    "name": "G4",
                    "midi": 67,
                    "time": 151.8404744999999,
                    "velocity": 0.33858267716535434,
                    "duration": 0.2654553749999877
                },
                {
                    "name": "E4",
                    "midi": 64,
                    "time": 152.1944149999999,
                    "velocity": 0.2992125984251969,
                    "duration": 0.2654553749999877
                },
                {
                    "name": "G4",
                    "midi": 67,
                    "time": 152.1944149999999,
                    "velocity": 0.3543307086614173,
                    "duration": 0.2654553749999877
                },
                {
                    "name": "E4",
                    "midi": 64,
                    "time": 152.5483554999999,
                    "velocity": 0.28346456692913385,
                    "duration": 0.2654553749999877
                },
                {
                    "name": "G4",
                    "midi": 67,
                    "time": 152.5483554999999,
                    "velocity": 0.33858267716535434,
                    "duration": 0.2654553749999877
                },
                {
                    "name": "D4",
                    "midi": 62,
                    "time": 152.9022959999999,
                    "velocity": 0.3543307086614173,
                    "duration": 0.3539404999999931
                },
                {
                    "name": "F#4",
                    "midi": 66,
                    "time": 152.9022959999999,
                    "velocity": 0.4251968503937008,
                    "duration": 0.3539404999999931
                },
                {
                    "name": "D#4",
                    "midi": 63,
                    "time": 153.61017699999988,
                    "velocity": 0.3937007874015748,
                    "duration": 0.3539404999999931
                },
                {
                    "name": "C4",
                    "midi": 60,
                    "time": 154.31805799999987,
                    "velocity": 0.4251968503937008,
                    "duration": 0.3539404999999931
                },
                {
                    "name": "D4",
                    "midi": 62,
                    "time": 155.02593899999985,
                    "velocity": 0.4015748031496063,
                    "duration": 0.3539404999999931
                },
                {
                    "name": "G3",
                    "midi": 55,
                    "time": 155.73381999999984,
                    "velocity": 0.44881889763779526,
                    "duration": 1.4157620000000009
                },
                {
                    "name": "C3",
                    "midi": 48,
                    "time": 158.56534399999984,
                    "velocity": 0.28346456692913385,
                    "duration": 0.2654553749999877
                },
                {
                    "name": "C4",
                    "midi": 60,
                    "time": 158.91928449999983,
                    "velocity": 0.23622047244094488,
                    "duration": 0.2654553749999877
                },
                {
                    "name": "C4",
                    "midi": 60,
                    "time": 159.27322499999983,
                    "velocity": 0.23622047244094488,
                    "duration": 0.2654553749999877
                },
                {
                    "name": "C4",
                    "midi": 60,
                    "time": 159.62716549999982,
                    "velocity": 0.25196850393700787,
                    "duration": 0.2654553749999877
                },
                {
                    "name": "C4",
                    "midi": 60,
                    "time": 159.9811059999998,
                    "velocity": 0.25196850393700787,
                    "duration": 0.2654553749999877
                },
                {
                    "name": "C4",
                    "midi": 60,
                    "time": 160.3350464999998,
                    "velocity": 0.2283464566929134,
                    "duration": 0.2654553749999877
                },
                {
                    "name": "C4",
                    "midi": 60,
                    "time": 160.6889869999998,
                    "velocity": 0.2283464566929134,
                    "duration": 0.2654553749999877
                },
                {
                    "name": "C4",
                    "midi": 60,
                    "time": 161.0429274999998,
                    "velocity": 0.2283464566929134,
                    "duration": 0.2654553749999877
                },
                {
                    "name": "B2",
                    "midi": 47,
                    "time": 161.39686799999978,
                    "velocity": 0.28346456692913385,
                    "duration": 0.3539404999999931
                },
                {
                    "name": "B3",
                    "midi": 59,
                    "time": 161.75080849999978,
                    "velocity": 0.25196850393700787,
                    "duration": 0.2654553749999877
                },
                {
                    "name": "B3",
                    "midi": 59,
                    "time": 162.10474899999977,
                    "velocity": 0.25196850393700787,
                    "duration": 0.2654553749999877
                },
                {
                    "name": "B3",
                    "midi": 59,
                    "time": 162.45868949999976,
                    "velocity": 0.25196850393700787,
                    "duration": 0.2654553749999877
                },
                {
                    "name": "B3",
                    "midi": 59,
                    "time": 162.81262999999976,
                    "velocity": 0.28346456692913385,
                    "duration": 0.2654553749999877
                },
                {
                    "name": "B3",
                    "midi": 59,
                    "time": 163.16657049999975,
                    "velocity": 0.2283464566929134,
                    "duration": 0.2654553749999877
                },
                {
                    "name": "B3",
                    "midi": 59,
                    "time": 163.52051099999974,
                    "velocity": 0.2283464566929134,
                    "duration": 0.2654553749999877
                },
                {
                    "name": "B3",
                    "midi": 59,
                    "time": 163.87445149999974,
                    "velocity": 0.2283464566929134,
                    "duration": 0.2654553749999877
                },
                {
                    "name": "C4",
                    "midi": 60,
                    "time": 164.22839199999973,
                    "velocity": 0.36220472440944884,
                    "duration": 1.4157620000000009
                },
                {
                    "name": "G#3",
                    "midi": 56,
                    "time": 165.64415399999973,
                    "velocity": 0.31496062992125984,
                    "duration": 0.7078809999999862
                },
                {
                    "name": "F#3",
                    "midi": 54,
                    "time": 166.35203499999972,
                    "velocity": 0.28346456692913385,
                    "duration": 0.7078809999999862
                },
                {
                    "name": "G3",
                    "midi": 55,
                    "time": 167.0599159999997,
                    "velocity": 0.36220472440944884,
                    "duration": 0.3539404999999931
                },
                {
                    "name": "G2",
                    "midi": 43,
                    "time": 167.4138564999997,
                    "velocity": 0.3228346456692913,
                    "duration": 0.3539404999999931
                },
                {
                    "name": "G3",
                    "midi": 55,
                    "time": 167.7677969999997,
                    "velocity": 0.36220472440944884,
                    "duration": 0.17697025000001076
                },
                {
                    "name": "G3",
                    "midi": 55,
                    "time": 168.1217374999997,
                    "velocity": 0.33070866141732286,
                    "duration": 0.17697025000001076
                },
                {
                    "name": "G3",
                    "midi": 55,
                    "time": 168.47567799999973,
                    "velocity": 0.3779527559055118,
                    "duration": 0.38343554166667104
                },
                {
                    "name": "F3",
                    "midi": 53,
                    "time": 168.82961849999973,
                    "velocity": 0.3543307086614173,
                    "duration": 0.38343554166669946
                },
                {
                    "name": "D#3",
                    "midi": 51,
                    "time": 169.18355899999975,
                    "velocity": 0.33858267716535434,
                    "duration": 0.38343554166669946
                },
                {
                    "name": "D3",
                    "midi": 50,
                    "time": 169.53749949999977,
                    "velocity": 0.30708661417322836,
                    "duration": 0.38343554166669946
                },
                {
                    "name": "C3",
                    "midi": 48,
                    "time": 169.8914399999998,
                    "velocity": 0.36220472440944884,
                    "duration": 1.4157620000000009
                },
                {
                    "name": "D#4",
                    "midi": 63,
                    "time": 171.66114249999978,
                    "velocity": 0.30708661417322836,
                    "duration": 0.2654553749999877
                },
                {
                    "name": "C4",
                    "midi": 60,
                    "time": 171.66114249999978,
                    "velocity": 0.25984251968503935,
                    "duration": 0.2654553749999877
                },
                {
                    "name": "C4",
                    "midi": 60,
                    "time": 172.01508299999978,
                    "velocity": 0.28346456692913385,
                    "duration": 0.2654553749999877
                },
                {
                    "name": "D#4",
                    "midi": 63,
                    "time": 172.01508299999978,
                    "velocity": 0.33858267716535434,
                    "duration": 0.2654553749999877
                },
                {
                    "name": "C4",
                    "midi": 60,
                    "time": 172.36902349999977,
                    "velocity": 0.2677165354330709,
                    "duration": 0.2654553749999877
                },
                {
                    "name": "D#4",
                    "midi": 63,
                    "time": 172.36902349999977,
                    "velocity": 0.31496062992125984,
                    "duration": 0.2654553749999877
                },
                {
                    "name": "A#3",
                    "midi": 58,
                    "time": 172.72296399999976,
                    "velocity": 0.33858267716535434,
                    "duration": 1.4157620000000009
                },
                {
                    "name": "D4",
                    "midi": 62,
                    "time": 172.72296399999976,
                    "velocity": 0.4015748031496063,
                    "duration": 1.4157620000000009
                },
                {
                    "name": "E4",
                    "midi": 64,
                    "time": 174.49266649999976,
                    "velocity": 0.28346456692913385,
                    "duration": 0.2654553749999877
                },
                {
                    "name": "G4",
                    "midi": 67,
                    "time": 174.49266649999976,
                    "velocity": 0.33858267716535434,
                    "duration": 0.2654553749999877
                },
                {
                    "name": "E4",
                    "midi": 64,
                    "time": 174.84660699999975,
                    "velocity": 0.2992125984251969,
                    "duration": 0.2654553749999877
                },
                {
                    "name": "G4",
                    "midi": 67,
                    "time": 174.84660699999975,
                    "velocity": 0.3543307086614173,
                    "duration": 0.2654553749999877
                },
                {
                    "name": "E4",
                    "midi": 64,
                    "time": 175.20054749999974,
                    "velocity": 0.28346456692913385,
                    "duration": 0.2654553749999877
                },
                {
                    "name": "G4",
                    "midi": 67,
                    "time": 175.20054749999974,
                    "velocity": 0.33858267716535434,
                    "duration": 0.2654553749999877
                },
                {
                    "name": "D4",
                    "midi": 62,
                    "time": 175.55448799999974,
                    "velocity": 0.3543307086614173,
                    "duration": 0.3539404999999931
                },
                {
                    "name": "F#4",
                    "midi": 66,
                    "time": 175.55448799999974,
                    "velocity": 0.4251968503937008,
                    "duration": 0.3539404999999931
                },
                {
                    "name": "D#4",
                    "midi": 63,
                    "time": 176.26236899999972,
                    "velocity": 0.3937007874015748,
                    "duration": 0.3539404999999931
                },
                {
                    "name": "C4",
                    "midi": 60,
                    "time": 176.9702499999997,
                    "velocity": 0.4251968503937008,
                    "duration": 0.3539404999999931
                },
                {
                    "name": "D4",
                    "midi": 62,
                    "time": 177.6781309999997,
                    "velocity": 0.4015748031496063,
                    "duration": 0.3539404999999931
                },
                {
                    "name": "G3",
                    "midi": 55,
                    "time": 178.38601199999968,
                    "velocity": 0.44881889763779526,
                    "duration": 1.4157620000000009
                },
                {
                    "name": "C4",
                    "midi": 60,
                    "time": 181.21753599999968,
                    "velocity": 0.2992125984251969,
                    "duration": 0.3539404999999931
                },
                {
                    "name": "G4",
                    "midi": 67,
                    "time": 181.57147649999968,
                    "velocity": 0.1968503937007874,
                    "duration": 0.2654553749999877
                },
                {
                    "name": "A#4",
                    "midi": 70,
                    "time": 181.57147649999968,
                    "velocity": 0.23622047244094488,
                    "duration": 0.2654553749999877
                },
                {
                    "name": "G4",
                    "midi": 67,
                    "time": 181.92541699999967,
                    "velocity": 0.1968503937007874,
                    "duration": 0.2654553749999877
                },
                {
                    "name": "A#4",
                    "midi": 70,
                    "time": 181.92541699999967,
                    "velocity": 0.23622047244094488,
                    "duration": 0.2654553749999877
                },
                {
                    "name": "G4",
                    "midi": 67,
                    "time": 182.27935749999966,
                    "velocity": 0.2125984251968504,
                    "duration": 0.2654553749999877
                },
                {
                    "name": "A#4",
                    "midi": 70,
                    "time": 182.27935749999966,
                    "velocity": 0.25984251968503935,
                    "duration": 0.2654553749999877
                },
                {
                    "name": "C4",
                    "midi": 60,
                    "time": 182.63329799999966,
                    "velocity": 0.28346456692913385,
                    "duration": 0.3539404999999931
                },
                {
                    "name": "F4",
                    "midi": 65,
                    "time": 182.98723849999965,
                    "velocity": 0.1968503937007874,
                    "duration": 0.2654553749999877
                },
                {
                    "name": "G#4",
                    "midi": 68,
                    "time": 182.98723849999965,
                    "velocity": 0.2440944881889764,
                    "duration": 0.2654553749999877
                },
                {
                    "name": "F4",
                    "midi": 65,
                    "time": 183.34117899999964,
                    "velocity": 0.2047244094488189,
                    "duration": 0.2654553749999877
                },
                {
                    "name": "G#4",
                    "midi": 68,
                    "time": 183.34117899999964,
                    "velocity": 0.2440944881889764,
                    "duration": 0.2654553749999877
                },
                {
                    "name": "G#4",
                    "midi": 68,
                    "time": 183.69511949999963,
                    "velocity": 0.2440944881889764,
                    "duration": 0.2654553749999877
                },
                {
                    "name": "F4",
                    "midi": 65,
                    "time": 183.69511949999963,
                    "velocity": 0.2047244094488189,
                    "duration": 0.2654553749999877
                },
                {
                    "name": "C4",
                    "midi": 60,
                    "time": 184.04905999999963,
                    "velocity": 0.2992125984251969,
                    "duration": 0.3539404999999931
                },
                {
                    "name": "E4",
                    "midi": 64,
                    "time": 184.40300049999962,
                    "velocity": 0.2204724409448819,
                    "duration": 0.2654553749999877
                },
                {
                    "name": "G4",
                    "midi": 67,
                    "time": 184.40300049999962,
                    "velocity": 0.2677165354330709,
                    "duration": 0.2654553749999877
                },
                {
                    "name": "G4",
                    "midi": 67,
                    "time": 184.7569409999996,
                    "velocity": 0.2677165354330709,
                    "duration": 0.2654553749999877
                },
                {
                    "name": "E4",
                    "midi": 64,
                    "time": 184.7569409999996,
                    "velocity": 0.2204724409448819,
                    "duration": 0.2654553749999877
                },
                {
                    "name": "E4",
                    "midi": 64,
                    "time": 185.1108814999996,
                    "velocity": 0.2204724409448819,
                    "duration": 0.2654553749999877
                },
                {
                    "name": "G4",
                    "midi": 67,
                    "time": 185.1108814999996,
                    "velocity": 0.2677165354330709,
                    "duration": 0.2654553749999877
                },
                {
                    "name": "C4",
                    "midi": 60,
                    "time": 185.4648219999996,
                    "velocity": 0.3700787401574803,
                    "duration": 0.3539404999999931
                },
                {
                    "name": "F4",
                    "midi": 65,
                    "time": 185.8187624999996,
                    "velocity": 0.30708661417322836,
                    "duration": 0.3539404999999931
                },
                {
                    "name": "G#4",
                    "midi": 68,
                    "time": 185.8187624999996,
                    "velocity": 0.30708661417322836,
                    "duration": 0.3539404999999931
                },
                {
                    "name": "B3",
                    "midi": 59,
                    "time": 186.1727029999996,
                    "velocity": 0.3858267716535433,
                    "duration": 0.3539404999999931
                },
                {
                    "name": "F4",
                    "midi": 65,
                    "time": 186.52664349999958,
                    "velocity": 0.33070866141732286,
                    "duration": 0.3539404999999931
                },
                {
                    "name": "G#4",
                    "midi": 68,
                    "time": 186.52664349999958,
                    "velocity": 0.33070866141732286,
                    "duration": 0.3539404999999931
                },
                {
                    "name": "A#3",
                    "midi": 58,
                    "time": 186.88058399999957,
                    "velocity": 0.4330708661417323,
                    "duration": 0.3539404999999931
                },
                {
                    "name": "F4",
                    "midi": 65,
                    "time": 187.23452449999957,
                    "velocity": 0.2992125984251969,
                    "duration": 0.2654553749999877
                },
                {
                    "name": "G#4",
                    "midi": 68,
                    "time": 187.23452449999957,
                    "velocity": 0.3543307086614173,
                    "duration": 0.2654553749999877
                },
                {
                    "name": "F4",
                    "midi": 65,
                    "time": 187.58846499999956,
                    "velocity": 0.2992125984251969,
                    "duration": 0.2654553749999877
                },
                {
                    "name": "G#4",
                    "midi": 68,
                    "time": 187.58846499999956,
                    "velocity": 0.3543307086614173,
                    "duration": 0.2654553749999877
                },
                {
                    "name": "F4",
                    "midi": 65,
                    "time": 187.94240549999955,
                    "velocity": 0.2992125984251969,
                    "duration": 0.2654553749999877
                },
                {
                    "name": "G#4",
                    "midi": 68,
                    "time": 187.94240549999955,
                    "velocity": 0.3543307086614173,
                    "duration": 0.2654553749999877
                },
                {
                    "name": "A#3",
                    "midi": 58,
                    "time": 188.29634599999955,
                    "velocity": 0.4251968503937008,
                    "duration": 0.3539404999999931
                },
                {
                    "name": "D#4",
                    "midi": 63,
                    "time": 188.65028649999954,
                    "velocity": 0.30708661417322836,
                    "duration": 0.2654553749999877
                },
                {
                    "name": "G4",
                    "midi": 67,
                    "time": 188.65028649999954,
                    "velocity": 0.36220472440944884,
                    "duration": 0.2654553749999877
                },
                {
                    "name": "D#4",
                    "midi": 63,
                    "time": 189.00422699999953,
                    "velocity": 0.30708661417322836,
                    "duration": 0.2654553749999877
                },
                {
                    "name": "G4",
                    "midi": 67,
                    "time": 189.00422699999953,
                    "velocity": 0.36220472440944884,
                    "duration": 0.2654553749999877
                },
                {
                    "name": "G4",
                    "midi": 67,
                    "time": 189.35816749999952,
                    "velocity": 0.36220472440944884,
                    "duration": 0.2654553749999877
                },
                {
                    "name": "D#4",
                    "midi": 63,
                    "time": 189.35816749999952,
                    "velocity": 0.30708661417322836,
                    "duration": 0.2654553749999877
                },
                {
                    "name": "A#3",
                    "midi": 58,
                    "time": 189.71210799999952,
                    "velocity": 0.4251968503937008,
                    "duration": 0.3539404999999931
                },
                {
                    "name": "D4",
                    "midi": 62,
                    "time": 190.0660484999995,
                    "velocity": 0.30708661417322836,
                    "duration": 0.2654553749999877
                },
                {
                    "name": "F4",
                    "midi": 65,
                    "time": 190.0660484999995,
                    "velocity": 0.36220472440944884,
                    "duration": 0.2654553749999877
                },
                {
                    "name": "F4",
                    "midi": 65,
                    "time": 190.4199889999995,
                    "velocity": 0.36220472440944884,
                    "duration": 0.2654553749999877
                },
                {
                    "name": "D4",
                    "midi": 62,
                    "time": 190.4199889999995,
                    "velocity": 0.30708661417322836,
                    "duration": 0.2654553749999877
                },
                {
                    "name": "D4",
                    "midi": 62,
                    "time": 190.7739294999995,
                    "velocity": 0.30708661417322836,
                    "duration": 0.2654553749999877
                },
                {
                    "name": "F4",
                    "midi": 65,
                    "time": 190.7739294999995,
                    "velocity": 0.36220472440944884,
                    "duration": 0.2654553749999877
                },
                {
                    "name": "A#3",
                    "midi": 58,
                    "time": 191.1278699999995,
                    "velocity": 0.4251968503937008,
                    "duration": 0.3539404999999931
                },
                {
                    "name": "D#4",
                    "midi": 63,
                    "time": 191.48181049999948,
                    "velocity": 0.29133858267716534,
                    "duration": 0.2654553749999877
                },
                {
                    "name": "G4",
                    "midi": 67,
                    "time": 191.48181049999948,
                    "velocity": 0.3779527559055118,
                    "duration": 0.2654553749999877
                },
                {
                    "name": "D#4",
                    "midi": 63,
                    "time": 191.83575099999948,
                    "velocity": 0.29133858267716534,
                    "duration": 0.2654553749999877
                },
                {
                    "name": "G4",
                    "midi": 67,
                    "time": 191.83575099999948,
                    "velocity": 0.3543307086614173,
                    "duration": 0.2654553749999877
                },
                {
                    "name": "D#4",
                    "midi": 63,
                    "time": 192.18969149999947,
                    "velocity": 0.23622047244094488,
                    "duration": 0.2654553749999877
                },
                {
                    "name": "G4",
                    "midi": 67,
                    "time": 192.18969149999947,
                    "velocity": 0.3543307086614173,
                    "duration": 0.2654553749999877
                },
                {
                    "name": "A3",
                    "midi": 57,
                    "time": 192.54363199999946,
                    "velocity": 0.3543307086614173,
                    "duration": 1.4157620000000009
                },
                {
                    "name": "C4",
                    "midi": 60,
                    "time": 192.54363199999946,
                    "velocity": 0.4251968503937008,
                    "duration": 1.4157620000000009
                },
                {
                    "name": "G4",
                    "midi": 67,
                    "time": 194.31333449999946,
                    "velocity": 0.30708661417322836,
                    "duration": 0.2654553749999877
                },
                {
                    "name": "B3",
                    "midi": 59,
                    "time": 194.31333449999946,
                    "velocity": 0.2125984251968504,
                    "duration": 0.2654553749999877
                },
                {
                    "name": "B3",
                    "midi": 59,
                    "time": 194.66727499999945,
                    "velocity": 0.23622047244094488,
                    "duration": 0.2654553749999877
                },
                {
                    "name": "G4",
                    "midi": 67,
                    "time": 194.66727499999945,
                    "velocity": 0.33858267716535434,
                    "duration": 0.2654553749999877
                },
                {
                    "name": "B3",
                    "midi": 59,
                    "time": 195.02121549999944,
                    "velocity": 0.2204724409448819,
                    "duration": 0.2654553749999877
                },
                {
                    "name": "G4",
                    "midi": 67,
                    "time": 195.02121549999944,
                    "velocity": 0.31496062992125984,
                    "duration": 0.2654553749999877
                },
                {
                    "name": "C4",
                    "midi": 60,
                    "time": 195.37515599999944,
                    "velocity": 0.25984251968503935,
                    "duration": 1.4157620000000009
                },
                {
                    "name": "G4",
                    "midi": 67,
                    "time": 195.37515599999944,
                    "velocity": 0.3543307086614173,
                    "duration": 1.4157620000000009
                },
                {
                    "name": "G#3",
                    "midi": 56,
                    "time": 197.14485849999943,
                    "velocity": 0.25984251968503935,
                    "duration": 0.2654553749999877
                },
                {
                    "name": "C4",
                    "midi": 60,
                    "time": 197.14485849999943,
                    "velocity": 0.30708661417322836,
                    "duration": 0.2654553749999877
                },
                {
                    "name": "G#3",
                    "midi": 56,
                    "time": 197.49879899999942,
                    "velocity": 0.2755905511811024,
                    "duration": 0.2654553749999877
                },
                {
                    "name": "C4",
                    "midi": 60,
                    "time": 197.49879899999942,
                    "velocity": 0.33070866141732286,
                    "duration": 0.2654553749999877
                },
                {
                    "name": "G#3",
                    "midi": 56,
                    "time": 197.85273949999942,
                    "velocity": 0.25196850393700787,
                    "duration": 0.2654553749999877
                },
                {
                    "name": "C4",
                    "midi": 60,
                    "time": 197.85273949999942,
                    "velocity": 0.2992125984251969,
                    "duration": 0.2654553749999877
                },
                {
                    "name": "F3",
                    "midi": 53,
                    "time": 198.2066799999994,
                    "velocity": 0.28346456692913385,
                    "duration": 1.4157620000000009
                },
                {
                    "name": "G#3",
                    "midi": 56,
                    "time": 198.2066799999994,
                    "velocity": 0.3464566929133858,
                    "duration": 1.4157620000000009
                },
                {
                    "name": "G3",
                    "midi": 55,
                    "time": 201.0382039999994,
                    "velocity": 0.2992125984251969,
                    "duration": 1.4157620000000577
                },
                {
                    "name": "D#4",
                    "midi": 63,
                    "time": 201.0382039999994,
                    "velocity": 0.2992125984251969,
                    "duration": 0.38933455000000095
                },
                {
                    "name": "E4",
                    "midi": 64,
                    "time": 201.3921444999994,
                    "velocity": 0.2755905511811024,
                    "duration": 0.38933455000002937
                },
                {
                    "name": "F4",
                    "midi": 65,
                    "time": 201.74608499999943,
                    "velocity": 0.28346456692913385,
                    "duration": 0.38933455000002937
                },
                {
                    "name": "F#4",
                    "midi": 66,
                    "time": 202.10002549999945,
                    "velocity": 0.28346456692913385,
                    "duration": 0.38933455000002937
                },
                {
                    "name": "G3",
                    "midi": 55,
                    "time": 202.45396599999947,
                    "velocity": 0.2992125984251969,
                    "duration": 0.7078810000000146
                },
                {
                    "name": "G4",
                    "midi": 67,
                    "time": 202.45396599999947,
                    "velocity": 0.2992125984251969,
                    "duration": 0.7078810000000146
                },
                {
                    "name": "C3",
                    "midi": 48,
                    "time": 203.86972799999947,
                    "velocity": 0.28346456692913385,
                    "duration": 0.3539404999999931
                },
                {
                    "name": "C4",
                    "midi": 60,
                    "time": 204.22366849999946,
                    "velocity": 0.23622047244094488,
                    "duration": 0.2654553749999877
                },
                {
                    "name": "C4",
                    "midi": 60,
                    "time": 204.57760899999946,
                    "velocity": 0.23622047244094488,
                    "duration": 0.2654553749999877
                },
                {
                    "name": "C4",
                    "midi": 60,
                    "time": 204.93154949999945,
                    "velocity": 0.25196850393700787,
                    "duration": 0.2654553749999877
                },
                {
                    "name": "C4",
                    "midi": 60,
                    "time": 205.28548999999944,
                    "velocity": 0.25196850393700787,
                    "duration": 0.2654553749999877
                },
                {
                    "name": "C4",
                    "midi": 60,
                    "time": 205.63943049999943,
                    "velocity": 0.2283464566929134,
                    "duration": 0.2654553749999877
                },
                {
                    "name": "C4",
                    "midi": 60,
                    "time": 205.99337099999943,
                    "velocity": 0.2283464566929134,
                    "duration": 0.2654553749999877
                },
                {
                    "name": "C4",
                    "midi": 60,
                    "time": 206.34731149999942,
                    "velocity": 0.2283464566929134,
                    "duration": 0.2654553749999877
                },
                {
                    "name": "B2",
                    "midi": 47,
                    "time": 206.7012519999994,
                    "velocity": 0.28346456692913385,
                    "duration": 0.3539404999999931
                },
                {
                    "name": "B3",
                    "midi": 59,
                    "time": 207.0551924999994,
                    "velocity": 0.25196850393700787,
                    "duration": 0.2654553749999877
                },
                {
                    "name": "B3",
                    "midi": 59,
                    "time": 207.4091329999994,
                    "velocity": 0.25196850393700787,
                    "duration": 0.2654553749999877
                },
                {
                    "name": "B3",
                    "midi": 59,
                    "time": 207.7630734999994,
                    "velocity": 0.25196850393700787,
                    "duration": 0.2654553749999877
                },
                {
                    "name": "B3",
                    "midi": 59,
                    "time": 208.1170139999994,
                    "velocity": 0.28346456692913385,
                    "duration": 0.2654553749999877
                },
                {
                    "name": "B3",
                    "midi": 59,
                    "time": 208.47095449999938,
                    "velocity": 0.2283464566929134,
                    "duration": 0.2654553749999877
                },
                {
                    "name": "B3",
                    "midi": 59,
                    "time": 208.82489499999937,
                    "velocity": 0.2283464566929134,
                    "duration": 0.2654553749999877
                },
                {
                    "name": "B3",
                    "midi": 59,
                    "time": 209.17883549999937,
                    "velocity": 0.2283464566929134,
                    "duration": 0.2654553749999877
                },
                {
                    "name": "C4",
                    "midi": 60,
                    "time": 209.53277599999936,
                    "velocity": 0.36220472440944884,
                    "duration": 1.4157620000000009
                },
                {
                    "name": "G#3",
                    "midi": 56,
                    "time": 210.94853799999936,
                    "velocity": 0.31496062992125984,
                    "duration": 0.7078809999999862
                },
                {
                    "name": "F#3",
                    "midi": 54,
                    "time": 211.65641899999935,
                    "velocity": 0.28346456692913385,
                    "duration": 0.7078809999999862
                },
                {
                    "name": "G3",
                    "midi": 55,
                    "time": 212.36429999999933,
                    "velocity": 0.36220472440944884,
                    "duration": 0.3539404999999931
                },
                {
                    "name": "G2",
                    "midi": 43,
                    "time": 212.71824049999933,
                    "velocity": 0.3228346456692913,
                    "duration": 0.3539404999999931
                },
                {
                    "name": "G3",
                    "midi": 55,
                    "time": 213.07218099999932,
                    "velocity": 0.36220472440944884,
                    "duration": 0.17697025000001076
                },
                {
                    "name": "G3",
                    "midi": 55,
                    "time": 213.42612149999934,
                    "velocity": 0.33070866141732286,
                    "duration": 0.17697025000001076
                },
                {
                    "name": "G3",
                    "midi": 55,
                    "time": 213.78006199999936,
                    "velocity": 0.3779527559055118,
                    "duration": 0.38343554166667104
                },
                {
                    "name": "F3",
                    "midi": 53,
                    "time": 214.13400249999935,
                    "velocity": 0.3543307086614173,
                    "duration": 0.38343554166669946
                },
                {
                    "name": "D#3",
                    "midi": 51,
                    "time": 214.48794299999938,
                    "velocity": 0.33858267716535434,
                    "duration": 0.38343554166669946
                },
                {
                    "name": "D3",
                    "midi": 50,
                    "time": 214.8418834999994,
                    "velocity": 0.30708661417322836,
                    "duration": 0.38343554166669946
                },
                {
                    "name": "C3",
                    "midi": 48,
                    "time": 215.19582399999942,
                    "velocity": 0.36220472440944884,
                    "duration": 1.4157620000000009
                },
                {
                    "name": "G4",
                    "midi": 67,
                    "time": 216.9655264999994,
                    "velocity": 0.30708661417322836,
                    "duration": 0.2654553749999877
                },
                {
                    "name": "E4",
                    "midi": 64,
                    "time": 216.9655264999994,
                    "velocity": 0.25984251968503935,
                    "duration": 0.2654553749999877
                },
                {
                    "name": "E4",
                    "midi": 64,
                    "time": 217.3194669999994,
                    "velocity": 0.28346456692913385,
                    "duration": 0.2654553749999877
                },
                {
                    "name": "G4",
                    "midi": 67,
                    "time": 217.3194669999994,
                    "velocity": 0.33858267716535434,
                    "duration": 0.2654553749999877
                },
                {
                    "name": "E4",
                    "midi": 64,
                    "time": 217.6734074999994,
                    "velocity": 0.2677165354330709,
                    "duration": 0.2654553749999877
                },
                {
                    "name": "G4",
                    "midi": 67,
                    "time": 217.6734074999994,
                    "velocity": 0.31496062992125984,
                    "duration": 0.2654553749999877
                },
                {
                    "name": "F4",
                    "midi": 65,
                    "time": 218.0273479999994,
                    "velocity": 0.33858267716535434,
                    "duration": 1.4157620000000009
                },
                {
                    "name": "G#4",
                    "midi": 68,
                    "time": 218.0273479999994,
                    "velocity": 0.4015748031496063,
                    "duration": 1.4157620000000009
                },
                {
                    "name": "A4",
                    "midi": 69,
                    "time": 219.7970504999994,
                    "velocity": 0.28346456692913385,
                    "duration": 0.2654553749999877
                },
                {
                    "name": "C5",
                    "midi": 72,
                    "time": 219.7970504999994,
                    "velocity": 0.33858267716535434,
                    "duration": 0.2654553749999877
                },
                {
                    "name": "A4",
                    "midi": 69,
                    "time": 220.15099099999938,
                    "velocity": 0.2992125984251969,
                    "duration": 0.2654553749999877
                },
                {
                    "name": "C5",
                    "midi": 72,
                    "time": 220.15099099999938,
                    "velocity": 0.3543307086614173,
                    "duration": 0.2654553749999877
                },
                {
                    "name": "A4",
                    "midi": 69,
                    "time": 220.50493149999937,
                    "velocity": 0.28346456692913385,
                    "duration": 0.2654553749999877
                },
                {
                    "name": "C5",
                    "midi": 72,
                    "time": 220.50493149999937,
                    "velocity": 0.33858267716535434,
                    "duration": 0.2654553749999877
                },
                {
                    "name": "G4",
                    "midi": 67,
                    "time": 220.85887199999937,
                    "velocity": 0.3543307086614173,
                    "duration": 0.3539404999999931
                },
                {
                    "name": "B4",
                    "midi": 71,
                    "time": 220.85887199999937,
                    "velocity": 0.4251968503937008,
                    "duration": 0.3539404999999931
                },
                {
                    "name": "G#4",
                    "midi": 68,
                    "time": 221.56675299999935,
                    "velocity": 0.3937007874015748,
                    "duration": 0.3539404999999931
                },
                {
                    "name": "F4",
                    "midi": 65,
                    "time": 222.27463399999934,
                    "velocity": 0.4251968503937008,
                    "duration": 0.3539404999999931
                },
                {
                    "name": "G4",
                    "midi": 67,
                    "time": 222.98251499999932,
                    "velocity": 0.4015748031496063,
                    "duration": 0.3539404999999931
                },
                {
                    "name": "C4",
                    "midi": 60,
                    "time": 223.6903959999993,
                    "velocity": 0.44881889763779526,
                    "duration": 1.4157620000000009
                },
                {
                    "name": "C4",
                    "midi": 60,
                    "time": 226.5219199999993,
                    "velocity": 0.2992125984251969,
                    "duration": 0.3539404999999931
                },
                {
                    "name": "G4",
                    "midi": 67,
                    "time": 226.8758604999993,
                    "velocity": 0.1968503937007874,
                    "duration": 0.2654553749999877
                },
                {
                    "name": "A#4",
                    "midi": 70,
                    "time": 226.8758604999993,
                    "velocity": 0.23622047244094488,
                    "duration": 0.2654553749999877
                },
                {
                    "name": "G4",
                    "midi": 67,
                    "time": 227.2298009999993,
                    "velocity": 0.1968503937007874,
                    "duration": 0.2654553749999877
                },
                {
                    "name": "A#4",
                    "midi": 70,
                    "time": 227.2298009999993,
                    "velocity": 0.23622047244094488,
                    "duration": 0.2654553749999877
                },
                {
                    "name": "G4",
                    "midi": 67,
                    "time": 227.5837414999993,
                    "velocity": 0.2125984251968504,
                    "duration": 0.2654553749999877
                },
                {
                    "name": "A#4",
                    "midi": 70,
                    "time": 227.5837414999993,
                    "velocity": 0.25984251968503935,
                    "duration": 0.2654553749999877
                },
                {
                    "name": "C4",
                    "midi": 60,
                    "time": 227.93768199999928,
                    "velocity": 0.28346456692913385,
                    "duration": 0.3539404999999931
                },
                {
                    "name": "F4",
                    "midi": 65,
                    "time": 228.29162249999928,
                    "velocity": 0.1968503937007874,
                    "duration": 0.2654553749999877
                },
                {
                    "name": "G#4",
                    "midi": 68,
                    "time": 228.29162249999928,
                    "velocity": 0.2440944881889764,
                    "duration": 0.2654553749999877
                },
                {
                    "name": "F4",
                    "midi": 65,
                    "time": 228.64556299999927,
                    "velocity": 0.2047244094488189,
                    "duration": 0.2654553749999877
                },
                {
                    "name": "G#4",
                    "midi": 68,
                    "time": 228.64556299999927,
                    "velocity": 0.2440944881889764,
                    "duration": 0.2654553749999877
                },
                {
                    "name": "G#4",
                    "midi": 68,
                    "time": 228.99950349999926,
                    "velocity": 0.2440944881889764,
                    "duration": 0.2654553749999877
                },
                {
                    "name": "F4",
                    "midi": 65,
                    "time": 228.99950349999926,
                    "velocity": 0.2047244094488189,
                    "duration": 0.2654553749999877
                },
                {
                    "name": "C4",
                    "midi": 60,
                    "time": 229.35344399999926,
                    "velocity": 0.2992125984251969,
                    "duration": 0.3539404999999931
                },
                {
                    "name": "E4",
                    "midi": 64,
                    "time": 229.70738449999925,
                    "velocity": 0.2204724409448819,
                    "duration": 0.2654553749999877
                },
                {
                    "name": "G4",
                    "midi": 67,
                    "time": 229.70738449999925,
                    "velocity": 0.2677165354330709,
                    "duration": 0.2654553749999877
                },
                {
                    "name": "G4",
                    "midi": 67,
                    "time": 230.06132499999924,
                    "velocity": 0.2677165354330709,
                    "duration": 0.2654553749999877
                },
                {
                    "name": "E4",
                    "midi": 64,
                    "time": 230.06132499999924,
                    "velocity": 0.2204724409448819,
                    "duration": 0.2654553749999877
                },
                {
                    "name": "E4",
                    "midi": 64,
                    "time": 230.41526549999924,
                    "velocity": 0.2204724409448819,
                    "duration": 0.2654553749999877
                },
                {
                    "name": "G4",
                    "midi": 67,
                    "time": 230.41526549999924,
                    "velocity": 0.2677165354330709,
                    "duration": 0.2654553749999877
                },
                {
                    "name": "C4",
                    "midi": 60,
                    "time": 230.76920599999923,
                    "velocity": 0.3700787401574803,
                    "duration": 0.3539404999999931
                },
                {
                    "name": "F4",
                    "midi": 65,
                    "time": 231.12314649999922,
                    "velocity": 0.30708661417322836,
                    "duration": 0.3539404999999931
                },
                {
                    "name": "G#4",
                    "midi": 68,
                    "time": 231.12314649999922,
                    "velocity": 0.30708661417322836,
                    "duration": 0.3539404999999931
                },
                {
                    "name": "B3",
                    "midi": 59,
                    "time": 231.47708699999922,
                    "velocity": 0.3858267716535433,
                    "duration": 0.3539404999999931
                },
                {
                    "name": "F4",
                    "midi": 65,
                    "time": 231.8310274999992,
                    "velocity": 0.33070866141732286,
                    "duration": 0.3539404999999931
                },
                {
                    "name": "G#4",
                    "midi": 68,
                    "time": 231.8310274999992,
                    "velocity": 0.33070866141732286,
                    "duration": 0.3539404999999931
                },
                {
                    "name": "A#3",
                    "midi": 58,
                    "time": 232.1849679999992,
                    "velocity": 0.4330708661417323,
                    "duration": 0.3539404999999931
                },
                {
                    "name": "F4",
                    "midi": 65,
                    "time": 232.5389084999992,
                    "velocity": 0.2992125984251969,
                    "duration": 0.2654553749999877
                },
                {
                    "name": "G#4",
                    "midi": 68,
                    "time": 232.5389084999992,
                    "velocity": 0.3543307086614173,
                    "duration": 0.2654553749999877
                },
                {
                    "name": "F4",
                    "midi": 65,
                    "time": 232.8928489999992,
                    "velocity": 0.2992125984251969,
                    "duration": 0.2654553749999877
                },
                {
                    "name": "G#4",
                    "midi": 68,
                    "time": 232.8928489999992,
                    "velocity": 0.3543307086614173,
                    "duration": 0.2654553749999877
                },
                {
                    "name": "F4",
                    "midi": 65,
                    "time": 233.24678949999918,
                    "velocity": 0.2992125984251969,
                    "duration": 0.2654553749999877
                },
                {
                    "name": "G#4",
                    "midi": 68,
                    "time": 233.24678949999918,
                    "velocity": 0.3543307086614173,
                    "duration": 0.2654553749999877
                },
                {
                    "name": "A#3",
                    "midi": 58,
                    "time": 233.60072999999917,
                    "velocity": 0.4251968503937008,
                    "duration": 0.3539404999999931
                },
                {
                    "name": "D#4",
                    "midi": 63,
                    "time": 233.95467049999917,
                    "velocity": 0.30708661417322836,
                    "duration": 0.2654553749999877
                },
                {
                    "name": "G4",
                    "midi": 67,
                    "time": 233.95467049999917,
                    "velocity": 0.36220472440944884,
                    "duration": 0.2654553749999877
                },
                {
                    "name": "D#4",
                    "midi": 63,
                    "time": 234.30861099999916,
                    "velocity": 0.30708661417322836,
                    "duration": 0.2654553749999877
                },
                {
                    "name": "G4",
                    "midi": 67,
                    "time": 234.30861099999916,
                    "velocity": 0.36220472440944884,
                    "duration": 0.2654553749999877
                },
                {
                    "name": "G4",
                    "midi": 67,
                    "time": 234.66255149999915,
                    "velocity": 0.36220472440944884,
                    "duration": 0.2654553749999877
                },
                {
                    "name": "D#4",
                    "midi": 63,
                    "time": 234.66255149999915,
                    "velocity": 0.30708661417322836,
                    "duration": 0.2654553749999877
                },
                {
                    "name": "A#3",
                    "midi": 58,
                    "time": 235.01649199999915,
                    "velocity": 0.4251968503937008,
                    "duration": 0.3539404999999931
                },
                {
                    "name": "D4",
                    "midi": 62,
                    "time": 235.37043249999914,
                    "velocity": 0.30708661417322836,
                    "duration": 0.2654553749999877
                },
                {
                    "name": "F4",
                    "midi": 65,
                    "time": 235.37043249999914,
                    "velocity": 0.36220472440944884,
                    "duration": 0.2654553749999877
                },
                {
                    "name": "F4",
                    "midi": 65,
                    "time": 235.72437299999913,
                    "velocity": 0.36220472440944884,
                    "duration": 0.2654553749999877
                },
                {
                    "name": "D4",
                    "midi": 62,
                    "time": 235.72437299999913,
                    "velocity": 0.30708661417322836,
                    "duration": 0.2654553749999877
                },
                {
                    "name": "D4",
                    "midi": 62,
                    "time": 236.07831349999913,
                    "velocity": 0.30708661417322836,
                    "duration": 0.2654553749999877
                },
                {
                    "name": "F4",
                    "midi": 65,
                    "time": 236.07831349999913,
                    "velocity": 0.36220472440944884,
                    "duration": 0.2654553749999877
                },
                {
                    "name": "A#3",
                    "midi": 58,
                    "time": 236.43225399999912,
                    "velocity": 0.4251968503937008,
                    "duration": 0.3539404999999931
                },
                {
                    "name": "D#4",
                    "midi": 63,
                    "time": 236.7861944999991,
                    "velocity": 0.29133858267716534,
                    "duration": 0.2654553749999877
                },
                {
                    "name": "G4",
                    "midi": 67,
                    "time": 236.7861944999991,
                    "velocity": 0.3779527559055118,
                    "duration": 0.2654553749999877
                },
                {
                    "name": "D#4",
                    "midi": 63,
                    "time": 237.1401349999991,
                    "velocity": 0.29133858267716534,
                    "duration": 0.2654553749999877
                },
                {
                    "name": "G4",
                    "midi": 67,
                    "time": 237.1401349999991,
                    "velocity": 0.3543307086614173,
                    "duration": 0.2654553749999877
                },
                {
                    "name": "D#4",
                    "midi": 63,
                    "time": 237.4940754999991,
                    "velocity": 0.23622047244094488,
                    "duration": 0.2654553749999877
                },
                {
                    "name": "G4",
                    "midi": 67,
                    "time": 237.4940754999991,
                    "velocity": 0.3543307086614173,
                    "duration": 0.2654553749999877
                },
                {
                    "name": "A3",
                    "midi": 57,
                    "time": 237.8480159999991,
                    "velocity": 0.3543307086614173,
                    "duration": 1.4157620000000009
                },
                {
                    "name": "C4",
                    "midi": 60,
                    "time": 237.8480159999991,
                    "velocity": 0.4251968503937008,
                    "duration": 1.4157620000000009
                },
                {
                    "name": "G4",
                    "midi": 67,
                    "time": 239.61771849999909,
                    "velocity": 0.30708661417322836,
                    "duration": 0.2654553749999877
                },
                {
                    "name": "B3",
                    "midi": 59,
                    "time": 239.61771849999909,
                    "velocity": 0.2125984251968504,
                    "duration": 0.2654553749999877
                },
                {
                    "name": "B3",
                    "midi": 59,
                    "time": 239.97165899999908,
                    "velocity": 0.23622047244094488,
                    "duration": 0.2654553749999877
                },
                {
                    "name": "G4",
                    "midi": 67,
                    "time": 239.97165899999908,
                    "velocity": 0.33858267716535434,
                    "duration": 0.2654553749999877
                },
                {
                    "name": "B3",
                    "midi": 59,
                    "time": 240.32559949999907,
                    "velocity": 0.2204724409448819,
                    "duration": 0.2654553749999877
                },
                {
                    "name": "G4",
                    "midi": 67,
                    "time": 240.32559949999907,
                    "velocity": 0.31496062992125984,
                    "duration": 0.2654553749999877
                },
                {
                    "name": "C4",
                    "midi": 60,
                    "time": 240.67953999999907,
                    "velocity": 0.25984251968503935,
                    "duration": 1.4157620000000009
                },
                {
                    "name": "G4",
                    "midi": 67,
                    "time": 240.67953999999907,
                    "velocity": 0.3543307086614173,
                    "duration": 1.4157620000000009
                },
                {
                    "name": "G#3",
                    "midi": 56,
                    "time": 242.44924249999906,
                    "velocity": 0.25984251968503935,
                    "duration": 0.2654553749999877
                },
                {
                    "name": "C4",
                    "midi": 60,
                    "time": 242.44924249999906,
                    "velocity": 0.30708661417322836,
                    "duration": 0.2654553749999877
                },
                {
                    "name": "G#3",
                    "midi": 56,
                    "time": 242.80318299999905,
                    "velocity": 0.2755905511811024,
                    "duration": 0.2654553749999877
                },
                {
                    "name": "C4",
                    "midi": 60,
                    "time": 242.80318299999905,
                    "velocity": 0.33070866141732286,
                    "duration": 0.2654553749999877
                },
                {
                    "name": "G#3",
                    "midi": 56,
                    "time": 243.15712349999905,
                    "velocity": 0.25196850393700787,
                    "duration": 0.2654553749999877
                },
                {
                    "name": "C4",
                    "midi": 60,
                    "time": 243.15712349999905,
                    "velocity": 0.2992125984251969,
                    "duration": 0.2654553749999877
                },
                {
                    "name": "F3",
                    "midi": 53,
                    "time": 243.51106399999904,
                    "velocity": 0.28346456692913385,
                    "duration": 1.4157620000000009
                },
                {
                    "name": "G#3",
                    "midi": 56,
                    "time": 243.51106399999904,
                    "velocity": 0.3464566929133858,
                    "duration": 1.4157620000000009
                },
                {
                    "name": "G3",
                    "midi": 55,
                    "time": 246.34258799999904,
                    "velocity": 0.2992125984251969,
                    "duration": 1.4157620000000577
                },
                {
                    "name": "D#4",
                    "midi": 63,
                    "time": 246.34258799999904,
                    "velocity": 0.2992125984251969,
                    "duration": 0.38933455000000095
                },
                {
                    "name": "E4",
                    "midi": 64,
                    "time": 246.69652849999903,
                    "velocity": 0.2755905511811024,
                    "duration": 0.38933455000002937
                },
                {
                    "name": "F4",
                    "midi": 65,
                    "time": 247.05046899999905,
                    "velocity": 0.28346456692913385,
                    "duration": 0.38933455000002937
                },
                {
                    "name": "F#4",
                    "midi": 66,
                    "time": 247.40440949999908,
                    "velocity": 0.28346456692913385,
                    "duration": 0.38933455000002937
                },
                {
                    "name": "G3",
                    "midi": 55,
                    "time": 247.7583499999991,
                    "velocity": 0.2992125984251969,
                    "duration": 0.7078810000000146
                },
                {
                    "name": "G4",
                    "midi": 67,
                    "time": 247.7583499999991,
                    "velocity": 0.2992125984251969,
                    "duration": 0.7078810000000146
                },
                {
                    "name": "C3",
                    "midi": 48,
                    "time": 249.1741119999991,
                    "velocity": 0.28346456692913385,
                    "duration": 0.3539404999999931
                },
                {
                    "name": "C4",
                    "midi": 60,
                    "time": 249.5280524999991,
                    "velocity": 0.23622047244094488,
                    "duration": 0.2654553749999877
                },
                {
                    "name": "C4",
                    "midi": 60,
                    "time": 249.88199299999908,
                    "velocity": 0.23622047244094488,
                    "duration": 0.2654553749999877
                },
                {
                    "name": "C4",
                    "midi": 60,
                    "time": 250.23593349999908,
                    "velocity": 0.25196850393700787,
                    "duration": 0.2654553749999877
                },
                {
                    "name": "C4",
                    "midi": 60,
                    "time": 250.58987399999907,
                    "velocity": 0.25196850393700787,
                    "duration": 0.2654553749999877
                },
                {
                    "name": "C4",
                    "midi": 60,
                    "time": 250.94381449999906,
                    "velocity": 0.2283464566929134,
                    "duration": 0.2654553749999877
                },
                {
                    "name": "C4",
                    "midi": 60,
                    "time": 251.29775499999906,
                    "velocity": 0.2283464566929134,
                    "duration": 0.2654553749999877
                },
                {
                    "name": "C4",
                    "midi": 60,
                    "time": 251.65169549999905,
                    "velocity": 0.2283464566929134,
                    "duration": 0.2654553749999877
                },
                {
                    "name": "B2",
                    "midi": 47,
                    "time": 252.00563599999904,
                    "velocity": 0.28346456692913385,
                    "duration": 0.3539404999999931
                },
                {
                    "name": "B3",
                    "midi": 59,
                    "time": 252.35957649999904,
                    "velocity": 0.25196850393700787,
                    "duration": 0.2654553749999877
                },
                {
                    "name": "B3",
                    "midi": 59,
                    "time": 252.71351699999903,
                    "velocity": 0.25196850393700787,
                    "duration": 0.2654553749999877
                },
                {
                    "name": "B3",
                    "midi": 59,
                    "time": 253.06745749999902,
                    "velocity": 0.25196850393700787,
                    "duration": 0.2654553749999877
                },
                {
                    "name": "B3",
                    "midi": 59,
                    "time": 253.42139799999902,
                    "velocity": 0.28346456692913385,
                    "duration": 0.2654553749999877
                },
                {
                    "name": "B3",
                    "midi": 59,
                    "time": 253.775338499999,
                    "velocity": 0.2283464566929134,
                    "duration": 0.2654553749999877
                },
                {
                    "name": "B3",
                    "midi": 59,
                    "time": 254.129278999999,
                    "velocity": 0.2283464566929134,
                    "duration": 0.2654553749999877
                },
                {
                    "name": "B3",
                    "midi": 59,
                    "time": 254.483219499999,
                    "velocity": 0.2283464566929134,
                    "duration": 0.2654553749999877
                },
                {
                    "name": "C4",
                    "midi": 60,
                    "time": 254.837159999999,
                    "velocity": 0.36220472440944884,
                    "duration": 1.4157620000000009
                },
                {
                    "name": "G#3",
                    "midi": 56,
                    "time": 256.252921999999,
                    "velocity": 0.31496062992125984,
                    "duration": 0.7078809999999862
                },
                {
                    "name": "F#3",
                    "midi": 54,
                    "time": 256.960802999999,
                    "velocity": 0.28346456692913385,
                    "duration": 0.7078809999999862
                },
                {
                    "name": "G3",
                    "midi": 55,
                    "time": 257.66868399999896,
                    "velocity": 0.36220472440944884,
                    "duration": 0.35394050000002153
                },
                {
                    "name": "G2",
                    "midi": 43,
                    "time": 258.022624499999,
                    "velocity": 0.3228346456692913,
                    "duration": 0.35394050000002153
                },
                {
                    "name": "G3",
                    "midi": 55,
                    "time": 258.376564999999,
                    "velocity": 0.36220472440944884,
                    "duration": 0.17697025000001076
                },
                {
                    "name": "G3",
                    "midi": 55,
                    "time": 258.730505499999,
                    "velocity": 0.33070866141732286,
                    "duration": 0.17697025000001076
                },
                {
                    "name": "G3",
                    "midi": 55,
                    "time": 259.08444599999905,
                    "velocity": 0.3779527559055118,
                    "duration": 0.38343554166669946
                },
                {
                    "name": "F3",
                    "midi": 53,
                    "time": 259.43838649999907,
                    "velocity": 0.3543307086614173,
                    "duration": 0.38343554166669946
                },
                {
                    "name": "D#3",
                    "midi": 51,
                    "time": 259.7923269999991,
                    "velocity": 0.33858267716535434,
                    "duration": 0.38343554166669946
                },
                {
                    "name": "D3",
                    "midi": 50,
                    "time": 260.1462674999991,
                    "velocity": 0.30708661417322836,
                    "duration": 0.38343554166669946
                },
                {
                    "name": "C3",
                    "midi": 48,
                    "time": 260.50020799999913,
                    "velocity": 0.36220472440944884,
                    "duration": 1.4157620000000293
                },
                {
                    "name": "G4",
                    "midi": 67,
                    "time": 262.2699104999992,
                    "velocity": 0.30708661417322836,
                    "duration": 0.2654553749999877
                },
                {
                    "name": "E4",
                    "midi": 64,
                    "time": 262.2699104999992,
                    "velocity": 0.25984251968503935,
                    "duration": 0.2654553749999877
                },
                {
                    "name": "E4",
                    "midi": 64,
                    "time": 262.62385099999915,
                    "velocity": 0.28346456692913385,
                    "duration": 0.2654553749999877
                },
                {
                    "name": "G4",
                    "midi": 67,
                    "time": 262.62385099999915,
                    "velocity": 0.33858267716535434,
                    "duration": 0.2654553749999877
                },
                {
                    "name": "E4",
                    "midi": 64,
                    "time": 262.9777914999991,
                    "velocity": 0.2677165354330709,
                    "duration": 0.2654553749999877
                },
                {
                    "name": "G4",
                    "midi": 67,
                    "time": 262.9777914999991,
                    "velocity": 0.31496062992125984,
                    "duration": 0.2654553749999877
                },
                {
                    "name": "F4",
                    "midi": 65,
                    "time": 263.3317319999991,
                    "velocity": 0.33858267716535434,
                    "duration": 1.4157619999999724
                },
                {
                    "name": "G#4",
                    "midi": 68,
                    "time": 263.3317319999991,
                    "velocity": 0.4015748031496063,
                    "duration": 1.4157619999999724
                },
                {
                    "name": "A4",
                    "midi": 69,
                    "time": 265.1014344999991,
                    "velocity": 0.28346456692913385,
                    "duration": 0.2654553749999877
                },
                {
                    "name": "C5",
                    "midi": 72,
                    "time": 265.1014344999991,
                    "velocity": 0.33858267716535434,
                    "duration": 0.2654553749999877
                },
                {
                    "name": "A4",
                    "midi": 69,
                    "time": 265.45537499999904,
                    "velocity": 0.2992125984251969,
                    "duration": 0.2654553749999877
                },
                {
                    "name": "C5",
                    "midi": 72,
                    "time": 265.45537499999904,
                    "velocity": 0.3543307086614173,
                    "duration": 0.2654553749999877
                },
                {
                    "name": "A4",
                    "midi": 69,
                    "time": 265.809315499999,
                    "velocity": 0.28346456692913385,
                    "duration": 0.2654553749999877
                },
                {
                    "name": "C5",
                    "midi": 72,
                    "time": 265.809315499999,
                    "velocity": 0.33858267716535434,
                    "duration": 0.2654553749999877
                },
                {
                    "name": "G4",
                    "midi": 67,
                    "time": 266.16325599999897,
                    "velocity": 0.3543307086614173,
                    "duration": 0.35394050000002153
                },
                {
                    "name": "B4",
                    "midi": 71,
                    "time": 266.16325599999897,
                    "velocity": 0.4251968503937008,
                    "duration": 0.35394050000002153
                },
                {
                    "name": "G#4",
                    "midi": 68,
                    "time": 266.871136999999,
                    "velocity": 0.3937007874015748,
                    "duration": 0.35394050000002153
                },
                {
                    "name": "F4",
                    "midi": 65,
                    "time": 267.57901799999905,
                    "velocity": 0.4251968503937008,
                    "duration": 0.35394050000002153
                },
                {
                    "name": "G4",
                    "midi": 67,
                    "time": 268.2868989999991,
                    "velocity": 0.4015748031496063,
                    "duration": 0.35394050000002153
                },
                {
                    "name": "C4",
                    "midi": 60,
                    "time": 268.99477999999914,
                    "velocity": 0.44881889763779526,
                    "duration": 1.4157619999999724
                },
                {
                    "name": "D#4",
                    "midi": 63,
                    "time": 270.76448249999913,
                    "velocity": 0.2755905511811024,
                    "duration": 0.38933455000000095
                },
                {
                    "name": "F#4",
                    "midi": 66,
                    "time": 270.76448249999913,
                    "velocity": 0.3228346456692913,
                    "duration": 0.38933455000000095
                },
                {
                    "name": "E4",
                    "midi": 64,
                    "time": 271.11842299999915,
                    "velocity": 0.29133858267716534,
                    "duration": 0.3893345499999441
                },
                {
                    "name": "G4",
                    "midi": 67,
                    "time": 271.11842299999915,
                    "velocity": 0.3543307086614173,
                    "duration": 0.3893345499999441
                },
                {
                    "name": "D#4",
                    "midi": 63,
                    "time": 271.4723634999991,
                    "velocity": 0.2755905511811024,
                    "duration": 0.3539404999999647
                },
                {
                    "name": "F#4",
                    "midi": 66,
                    "time": 271.4723634999991,
                    "velocity": 0.3228346456692913,
                    "duration": 0.3539404999999647
                },
                {
                    "name": "E4",
                    "midi": 64,
                    "time": 271.8263039999991,
                    "velocity": 0.31496062992125984,
                    "duration": 1.769702499999994
                },
                {
                    "name": "G4",
                    "midi": 67,
                    "time": 271.8263039999991,
                    "velocity": 0.3700787401574803,
                    "duration": 1.769702499999994
                },
                {
                    "name": "E4",
                    "midi": 64,
                    "time": 273.5960064999991,
                    "velocity": 0.28346456692913385,
                    "duration": 0.38933455000000095
                },
                {
                    "name": "G4",
                    "midi": 67,
                    "time": 273.5960064999991,
                    "velocity": 0.33858267716535434,
                    "duration": 0.38933455000000095
                },
                {
                    "name": "F4",
                    "midi": 65,
                    "time": 273.9499469999991,
                    "velocity": 0.2992125984251969,
                    "duration": 0.3893345499999441
                },
                {
                    "name": "G#4",
                    "midi": 68,
                    "time": 273.9499469999991,
                    "velocity": 0.3543307086614173,
                    "duration": 0.3893345499999441
                },
                {
                    "name": "E4",
                    "midi": 64,
                    "time": 274.30388749999906,
                    "velocity": 0.2755905511811024,
                    "duration": 0.3539404999999647
                },
                {
                    "name": "G4",
                    "midi": 67,
                    "time": 274.30388749999906,
                    "velocity": 0.33070866141732286,
                    "duration": 0.3539404999999647
                },
                {
                    "name": "F4",
                    "midi": 65,
                    "time": 274.65782799999903,
                    "velocity": 0.31496062992125984,
                    "duration": 1.769702499999994
                },
                {
                    "name": "G#4",
                    "midi": 68,
                    "time": 274.65782799999903,
                    "velocity": 0.3700787401574803,
                    "duration": 1.769702499999994
                },
                {
                    "name": "D#4",
                    "midi": 63,
                    "time": 276.427530499999,
                    "velocity": 0.25984251968503935,
                    "duration": 0.38933455000000095
                },
                {
                    "name": "F#4",
                    "midi": 66,
                    "time": 276.427530499999,
                    "velocity": 0.30708661417322836,
                    "duration": 0.38933455000000095
                },
                {
                    "name": "D4",
                    "midi": 62,
                    "time": 276.78147099999904,
                    "velocity": 0.28346456692913385,
                    "duration": 0.3893345499999441
                },
                {
                    "name": "F4",
                    "midi": 65,
                    "time": 276.78147099999904,
                    "velocity": 0.3464566929133858,
                    "duration": 0.3893345499999441
                },
                {
                    "name": "D#4",
                    "midi": 63,
                    "time": 277.135411499999,
                    "velocity": 0.25984251968503935,
                    "duration": 0.3539404999999647
                },
                {
                    "name": "F#4",
                    "midi": 66,
                    "time": 277.135411499999,
                    "velocity": 0.30708661417322836,
                    "duration": 0.3539404999999647
                },
                {
                    "name": "D4",
                    "midi": 62,
                    "time": 277.489351999999,
                    "velocity": 0.3228346456692913,
                    "duration": 1.769702499999994
                },
                {
                    "name": "F4",
                    "midi": 65,
                    "time": 277.489351999999,
                    "velocity": 0.3858267716535433,
                    "duration": 1.769702499999994
                },
                {
                    "name": "E4",
                    "midi": 64,
                    "time": 279.25905449999897,
                    "velocity": 0.2125984251968504,
                    "duration": 0.38933455000000095
                },
                {
                    "name": "G4",
                    "midi": 67,
                    "time": 279.25905449999897,
                    "velocity": 0.25984251968503935,
                    "duration": 0.38933455000000095
                },
                {
                    "name": "F4",
                    "midi": 65,
                    "time": 279.612994999999,
                    "velocity": 0.2283464566929134,
                    "duration": 0.3893345499999441
                },
                {
                    "name": "G#4",
                    "midi": 68,
                    "time": 279.612994999999,
                    "velocity": 0.28346456692913385,
                    "duration": 0.3893345499999441
                },
                {
                    "name": "E4",
                    "midi": 64,
                    "time": 279.96693549999895,
                    "velocity": 0.2125984251968504,
                    "duration": 0.3539404999999647
                },
                {
                    "name": "G4",
                    "midi": 67,
                    "time": 279.96693549999895,
                    "velocity": 0.25984251968503935,
                    "duration": 0.3539404999999647
                },
                {
                    "name": "F4",
                    "midi": 65,
                    "time": 280.3208759999989,
                    "velocity": 0.25984251968503935,
                    "duration": 1.4157619999999724
                },
                {
                    "name": "G#4",
                    "midi": 68,
                    "time": 280.3208759999989,
                    "velocity": 0.30708661417322836,
                    "duration": 1.4157619999999724
                },
                {
                    "name": "D4",
                    "midi": 62,
                    "time": 283.15239999999886,
                    "velocity": 0.25196850393700787,
                    "duration": 2.1236430000000155
                },
                {
                    "name": "F4",
                    "midi": 65,
                    "time": 283.15239999999886,
                    "velocity": 0.25196850393700787,
                    "duration": 2.1236430000000155
                },
                {
                    "name": "A#4",
                    "midi": 70,
                    "time": 283.15239999999886,
                    "velocity": 0.2992125984251969,
                    "duration": 2.1236430000000155
                },
                {
                    "name": "D#2",
                    "midi": 39,
                    "time": 288.81544799999887,
                    "velocity": 0.2125984251968504,
                    "duration": 1.4157619999999724
                },
                {
                    "name": "D#3",
                    "midi": 51,
                    "time": 288.81544799999887,
                    "velocity": 0.30708661417322836,
                    "duration": 1.4157619999999724
                },
                {
                    "name": "A#2",
                    "midi": 46,
                    "time": 290.9390909999988,
                    "velocity": 0.25984251968503935,
                    "duration": 0.7078809999999862
                },
                {
                    "name": "D#3",
                    "midi": 51,
                    "time": 291.6469719999988,
                    "velocity": 0.30708661417322836,
                    "duration": 1.4157619999999724
                },
                {
                    "name": "A#2",
                    "midi": 46,
                    "time": 293.77061499999877,
                    "velocity": 0.28346456692913385,
                    "duration": 0.7078809999999862
                },
                {
                    "name": "D#3",
                    "midi": 51,
                    "time": 294.47849599999876,
                    "velocity": 0.30708661417322836,
                    "duration": 0.7078809999999862
                },
                {
                    "name": "C3",
                    "midi": 48,
                    "time": 295.18637699999874,
                    "velocity": 0.2677165354330709,
                    "duration": 0.7078809999999862
                },
                {
                    "name": "G2",
                    "midi": 43,
                    "time": 295.89425799999873,
                    "velocity": 0.30708661417322836,
                    "duration": 0.7078809999999862
                },
                {
                    "name": "G#2",
                    "midi": 44,
                    "time": 296.6021389999987,
                    "velocity": 0.28346456692913385,
                    "duration": 0.7078809999999862
                },
                {
                    "name": "A#2",
                    "midi": 46,
                    "time": 297.3100199999987,
                    "velocity": 0.30708661417322836,
                    "duration": 2.1236430000000155
                },
                {
                    "name": "G4",
                    "midi": 67,
                    "time": 300.1415439999987,
                    "velocity": 0.28346456692913385,
                    "duration": 1.4157619999999724
                },
                {
                    "name": "D#4",
                    "midi": 63,
                    "time": 301.5573059999987,
                    "velocity": 0.28346456692913385,
                    "duration": 0.7078809999999862
                },
                {
                    "name": "A#3",
                    "midi": 58,
                    "time": 302.26518699999866,
                    "velocity": 0.2677165354330709,
                    "duration": 0.7078809999999862
                },
                {
                    "name": "G3",
                    "midi": 55,
                    "time": 302.97306799999865,
                    "velocity": 0.2992125984251969,
                    "duration": 0.5309107499999755
                },
                {
                    "name": "A#3",
                    "midi": 58,
                    "time": 303.68094899999863,
                    "velocity": 0.2677165354330709,
                    "duration": 0.5309107499999755
                },
                {
                    "name": "D#4",
                    "midi": 63,
                    "time": 304.3888299999986,
                    "velocity": 0.28346456692913385,
                    "duration": 0.5309107499999755
                },
                {
                    "name": "C4",
                    "midi": 60,
                    "time": 305.0967109999986,
                    "velocity": 0.30708661417322836,
                    "duration": 0.5309107499999755
                },
                {
                    "name": "G3",
                    "midi": 55,
                    "time": 305.8045919999986,
                    "velocity": 0.33070866141732286,
                    "duration": 0.7078809999999862
                },
                {
                    "name": "F4",
                    "midi": 65,
                    "time": 306.5124729999986,
                    "velocity": 0.28346456692913385,
                    "duration": 0.7078809999999862
                },
                {
                    "name": "G#3",
                    "midi": 56,
                    "time": 306.5124729999986,
                    "velocity": 0.23622047244094488,
                    "duration": 0.7078809999999862
                },
                {
                    "name": "A#3",
                    "midi": 58,
                    "time": 307.22035399999857,
                    "velocity": 0.2755905511811024,
                    "duration": 1.4157619999999724
                },
                {
                    "name": "G4",
                    "midi": 67,
                    "time": 307.22035399999857,
                    "velocity": 0.33070866141732286,
                    "duration": 0.7078809999999862
                },
                {
                    "name": "G#4",
                    "midi": 68,
                    "time": 307.92823499999855,
                    "velocity": 0.25984251968503935,
                    "duration": 0.7078809999999862
                },
                {
                    "name": "D#4",
                    "midi": 63,
                    "time": 308.63611599999854,
                    "velocity": 0.2204724409448819,
                    "duration": 2.1236429999999586
                },
                {
                    "name": "G#4",
                    "midi": 68,
                    "time": 308.63611599999854,
                    "velocity": 0.2677165354330709,
                    "duration": 1.4157619999999724
                },
                {
                    "name": "G4",
                    "midi": 67,
                    "time": 310.0518779999985,
                    "velocity": 0.25196850393700787,
                    "duration": 0.7078809999999862
                },
                {
                    "name": "G#3",
                    "midi": 56,
                    "time": 311.4676399999985,
                    "velocity": 0.28346456692913385,
                    "duration": 0.35394050000002153
                },
                {
                    "name": "D#4",
                    "midi": 63,
                    "time": 311.8215804999985,
                    "velocity": 0.2440944881889764,
                    "duration": 0.35394050000002153
                },
                {
                    "name": "C4",
                    "midi": 60,
                    "time": 312.1755209999985,
                    "velocity": 0.2440944881889764,
                    "duration": 0.35394050000002153
                },
                {
                    "name": "D#4",
                    "midi": 63,
                    "time": 312.52946149999855,
                    "velocity": 0.2440944881889764,
                    "duration": 0.35394050000002153
                },
                {
                    "name": "A#3",
                    "midi": 58,
                    "time": 312.88340199999857,
                    "velocity": 0.28346456692913385,
                    "duration": 0.35394050000002153
                },
                {
                    "name": "D#4",
                    "midi": 63,
                    "time": 313.2373424999986,
                    "velocity": 0.25984251968503935,
                    "duration": 0.35394050000002153
                },
                {
                    "name": "C#4",
                    "midi": 61,
                    "time": 313.5912829999986,
                    "velocity": 0.25196850393700787,
                    "duration": 0.35394050000002153
                },
                {
                    "name": "D#4",
                    "midi": 63,
                    "time": 313.94522349999863,
                    "velocity": 0.25196850393700787,
                    "duration": 0.35394050000002153
                },
                {
                    "name": "C4",
                    "midi": 60,
                    "time": 314.29916399999865,
                    "velocity": 0.28346456692913385,
                    "duration": 0.35394050000002153
                },
                {
                    "name": "D#4",
                    "midi": 63,
                    "time": 314.6531044999987,
                    "velocity": 0.2440944881889764,
                    "duration": 0.35394050000002153
                },
                {
                    "name": "G#3",
                    "midi": 56,
                    "time": 315.0070449999987,
                    "velocity": 0.28346456692913385,
                    "duration": 0.35394050000002153
                },
                {
                    "name": "D#4",
                    "midi": 63,
                    "time": 315.3609854999987,
                    "velocity": 0.2440944881889764,
                    "duration": 0.35394050000002153
                },
                {
                    "name": "G3",
                    "midi": 55,
                    "time": 315.71492599999874,
                    "velocity": 0.28346456692913385,
                    "duration": 0.35394050000002153
                },
                {
                    "name": "D#4",
                    "midi": 63,
                    "time": 316.06886649999876,
                    "velocity": 0.25196850393700787,
                    "duration": 0.35394050000002153
                },
                {
                    "name": "D#3",
                    "midi": 51,
                    "time": 316.4228069999988,
                    "velocity": 0.25196850393700787,
                    "duration": 0.35394050000002153
                },
                {
                    "name": "D#4",
                    "midi": 63,
                    "time": 316.7767474999988,
                    "velocity": 0.25196850393700787,
                    "duration": 0.35394050000002153
                },
                {
                    "name": "G3",
                    "midi": 55,
                    "time": 317.1306879999988,
                    "velocity": 0.33858267716535434,
                    "duration": 0.35394050000002153
                },
                {
                    "name": "D#4",
                    "midi": 63,
                    "time": 317.48462849999885,
                    "velocity": 0.29133858267716534,
                    "duration": 0.35394050000002153
                },
                {
                    "name": "A#3",
                    "midi": 58,
                    "time": 317.83856899999887,
                    "velocity": 0.29133858267716534,
                    "duration": 0.35394050000002153
                },
                {
                    "name": "D#4",
                    "midi": 63,
                    "time": 318.1925094999989,
                    "velocity": 0.29133858267716534,
                    "duration": 0.35394050000002153
                },
                {
                    "name": "G#3",
                    "midi": 56,
                    "time": 318.5464499999989,
                    "velocity": 0.3464566929133858,
                    "duration": 0.35394050000002153
                },
                {
                    "name": "D#4",
                    "midi": 63,
                    "time": 318.90039049999893,
                    "velocity": 0.25984251968503935,
                    "duration": 0.35394050000002153
                },
                {
                    "name": "C4",
                    "midi": 60,
                    "time": 319.25433099999896,
                    "velocity": 0.28346456692913385,
                    "duration": 0.35394050000002153
                },
                {
                    "name": "D#4",
                    "midi": 63,
                    "time": 319.608271499999,
                    "velocity": 0.28346456692913385,
                    "duration": 0.35394050000002153
                },
                {
                    "name": "G3",
                    "midi": 55,
                    "time": 319.962211999999,
                    "velocity": 0.33858267716535434,
                    "duration": 0.35394050000002153
                },
                {
                    "name": "D#4",
                    "midi": 63,
                    "time": 320.316152499999,
                    "velocity": 0.2992125984251969,
                    "duration": 0.35394050000002153
                },
                {
                    "name": "D#3",
                    "midi": 51,
                    "time": 320.67009299999904,
                    "velocity": 0.33070866141732286,
                    "duration": 0.35394050000002153
                },
                {
                    "name": "D#4",
                    "midi": 63,
                    "time": 321.02403349999906,
                    "velocity": 0.33070866141732286,
                    "duration": 0.35394050000002153
                },
                {
                    "name": "G#3",
                    "midi": 56,
                    "time": 321.3779739999991,
                    "velocity": 0.3779527559055118,
                    "duration": 0.35394050000002153
                },
                {
                    "name": "D#4",
                    "midi": 63,
                    "time": 321.7319144999991,
                    "velocity": 0.33858267716535434,
                    "duration": 0.35394050000002153
                },
                {
                    "name": "C4",
                    "midi": 60,
                    "time": 322.0858549999991,
                    "velocity": 0.4015748031496063,
                    "duration": 0.35394050000002153
                },
                {
                    "name": "D#4",
                    "midi": 63,
                    "time": 322.43979549999915,
                    "velocity": 0.33858267716535434,
                    "duration": 0.35394050000002153
                },
                {
                    "name": "A#3",
                    "midi": 58,
                    "time": 322.79373599999917,
                    "velocity": 0.4409448818897638,
                    "duration": 0.35394050000002153
                },
                {
                    "name": "G4",
                    "midi": 67,
                    "time": 323.1476764999992,
                    "velocity": 0.33070866141732286,
                    "duration": 0.35394050000002153
                },
                {
                    "name": "E4",
                    "midi": 64,
                    "time": 323.5016169999992,
                    "velocity": 0.4015748031496063,
                    "duration": 0.35394050000002153
                },
                {
                    "name": "G4",
                    "midi": 67,
                    "time": 323.85555749999924,
                    "velocity": 0.3543307086614173,
                    "duration": 0.35394050000002153
                },
                {
                    "name": "G#3",
                    "midi": 56,
                    "time": 324.20949799999926,
                    "velocity": 0.4251968503937008,
                    "duration": 0.35394050000002153
                },
                {
                    "name": "F4",
                    "midi": 65,
                    "time": 324.5634384999993,
                    "velocity": 0.3464566929133858,
                    "duration": 0.35394050000002153
                },
                {
                    "name": "C4",
                    "midi": 60,
                    "time": 324.9173789999993,
                    "velocity": 0.36220472440944884,
                    "duration": 0.35394050000002153
                },
                {
                    "name": "F4",
                    "midi": 65,
                    "time": 325.2713194999993,
                    "velocity": 0.36220472440944884,
                    "duration": 0.35394050000002153
                },
                {
                    "name": "G#3",
                    "midi": 56,
                    "time": 325.62525999999934,
                    "velocity": 0.4330708661417323,
                    "duration": 0.35394050000002153
                },
                {
                    "name": "F4",
                    "midi": 65,
                    "time": 325.97920049999937,
                    "velocity": 0.33070866141732286,
                    "duration": 0.35394050000002153
                },
                {
                    "name": "D4",
                    "midi": 62,
                    "time": 326.3331409999994,
                    "velocity": 0.3700787401574803,
                    "duration": 0.35394050000002153
                },
                {
                    "name": "F4",
                    "midi": 65,
                    "time": 326.6870814999994,
                    "velocity": 0.33070866141732286,
                    "duration": 0.35394050000002153
                },
                {
                    "name": "G3",
                    "midi": 55,
                    "time": 327.04102199999943,
                    "velocity": 0.3543307086614173,
                    "duration": 0.35394050000002153
                },
                {
                    "name": "D#4",
                    "midi": 63,
                    "time": 327.39496249999945,
                    "velocity": 0.31496062992125984,
                    "duration": 0.35394050000002153
                },
                {
                    "name": "A#3",
                    "midi": 58,
                    "time": 327.7489029999995,
                    "velocity": 0.3543307086614173,
                    "duration": 0.35394050000002153
                },
                {
                    "name": "D#4",
                    "midi": 63,
                    "time": 328.1028434999995,
                    "velocity": 0.2992125984251969,
                    "duration": 0.35394050000002153
                },
                {
                    "name": "G#3",
                    "midi": 56,
                    "time": 328.4567839999995,
                    "velocity": 0.3464566929133858,
                    "duration": 0.35394050000002153
                },
                {
                    "name": "F4",
                    "midi": 65,
                    "time": 328.81072449999954,
                    "velocity": 0.2992125984251969,
                    "duration": 0.35394050000002153
                },
                {
                    "name": "C4",
                    "midi": 60,
                    "time": 329.16466499999956,
                    "velocity": 0.31496062992125984,
                    "duration": 0.35394050000002153
                },
                {
                    "name": "F4",
                    "midi": 65,
                    "time": 329.5186054999996,
                    "velocity": 0.31496062992125984,
                    "duration": 0.35394050000002153
                },
                {
                    "name": "A#3",
                    "midi": 58,
                    "time": 329.8725459999996,
                    "velocity": 0.31496062992125984,
                    "duration": 0.35394050000002153
                },
                {
                    "name": "G4",
                    "midi": 67,
                    "time": 330.2264864999996,
                    "velocity": 0.28346456692913385,
                    "duration": 0.35394050000002153
                },
                {
                    "name": "A#3",
                    "midi": 58,
                    "time": 330.58042699999964,
                    "velocity": 0.28346456692913385,
                    "duration": 0.35394050000002153
                },
                {
                    "name": "G#4",
                    "midi": 68,
                    "time": 330.93436749999967,
                    "velocity": 0.28346456692913385,
                    "duration": 0.2654553749999877
                },
                {
                    "name": "D#4",
                    "midi": 63,
                    "time": 331.28830799999963,
                    "velocity": 0.33070866141732286,
                    "duration": 1.4157619999999724
                },
                {
                    "name": "G4",
                    "midi": 67,
                    "time": 331.28830799999963,
                    "velocity": 0.33070866141732286,
                    "duration": 1.4157619999999724
                },
                {
                    "name": "G#3",
                    "midi": 56,
                    "time": 334.1198319999996,
                    "velocity": 0.28346456692913385,
                    "duration": 0.35394050000002153
                },
                {
                    "name": "D#4",
                    "midi": 63,
                    "time": 334.4737724999996,
                    "velocity": 0.2440944881889764,
                    "duration": 0.35394050000002153
                },
                {
                    "name": "C4",
                    "midi": 60,
                    "time": 334.8277129999996,
                    "velocity": 0.2440944881889764,
                    "duration": 0.35394050000002153
                },
                {
                    "name": "D#4",
                    "midi": 63,
                    "time": 335.18165349999964,
                    "velocity": 0.2440944881889764,
                    "duration": 0.35394050000002153
                },
                {
                    "name": "A#3",
                    "midi": 58,
                    "time": 335.53559399999966,
                    "velocity": 0.28346456692913385,
                    "duration": 0.35394050000002153
                },
                {
                    "name": "D#4",
                    "midi": 63,
                    "time": 335.8895344999997,
                    "velocity": 0.25984251968503935,
                    "duration": 0.35394050000002153
                },
                {
                    "name": "C#4",
                    "midi": 61,
                    "time": 336.2434749999997,
                    "velocity": 0.25196850393700787,
                    "duration": 0.35394050000002153
                },
                {
                    "name": "D#4",
                    "midi": 63,
                    "time": 336.5974154999997,
                    "velocity": 0.25196850393700787,
                    "duration": 0.35394050000002153
                },
                {
                    "name": "C4",
                    "midi": 60,
                    "time": 336.95135599999975,
                    "velocity": 0.28346456692913385,
                    "duration": 0.35394050000002153
                },
                {
                    "name": "D#4",
                    "midi": 63,
                    "time": 337.30529649999977,
                    "velocity": 0.2440944881889764,
                    "duration": 0.35394050000002153
                },
                {
                    "name": "G#3",
                    "midi": 56,
                    "time": 337.6592369999998,
                    "velocity": 0.28346456692913385,
                    "duration": 0.35394050000002153
                },
                {
                    "name": "D#4",
                    "midi": 63,
                    "time": 338.0131774999998,
                    "velocity": 0.2440944881889764,
                    "duration": 0.35394050000002153
                },
                {
                    "name": "G3",
                    "midi": 55,
                    "time": 338.36711799999983,
                    "velocity": 0.28346456692913385,
                    "duration": 0.35394050000002153
                },
                {
                    "name": "D#4",
                    "midi": 63,
                    "time": 338.72105849999986,
                    "velocity": 0.25196850393700787,
                    "duration": 0.35394050000002153
                },
                {
                    "name": "D#3",
                    "midi": 51,
                    "time": 339.0749989999999,
                    "velocity": 0.25196850393700787,
                    "duration": 0.35394050000002153
                },
                {
                    "name": "D#4",
                    "midi": 63,
                    "time": 339.4289394999999,
                    "velocity": 0.25196850393700787,
                    "duration": 0.35394050000002153
                },
                {
                    "name": "G3",
                    "midi": 55,
                    "time": 339.7828799999999,
                    "velocity": 0.33858267716535434,
                    "duration": 0.35394050000002153
                },
                {
                    "name": "D#4",
                    "midi": 63,
                    "time": 340.13682049999994,
                    "velocity": 0.29133858267716534,
                    "duration": 0.35394050000002153
                },
                {
                    "name": "A#3",
                    "midi": 58,
                    "time": 340.49076099999996,
                    "velocity": 0.29133858267716534,
                    "duration": 0.35394050000002153
                },
                {
                    "name": "D#4",
                    "midi": 63,
                    "time": 340.8447015,
                    "velocity": 0.29133858267716534,
                    "duration": 0.35394050000002153
                },
                {
                    "name": "G#3",
                    "midi": 56,
                    "time": 341.198642,
                    "velocity": 0.3464566929133858,
                    "duration": 0.35394050000002153
                },
                {
                    "name": "D#4",
                    "midi": 63,
                    "time": 341.5525825,
                    "velocity": 0.25984251968503935,
                    "duration": 0.35394050000002153
                },
                {
                    "name": "C4",
                    "midi": 60,
                    "time": 341.90652300000005,
                    "velocity": 0.28346456692913385,
                    "duration": 0.35394050000002153
                },
                {
                    "name": "D#4",
                    "midi": 63,
                    "time": 342.26046350000007,
                    "velocity": 0.28346456692913385,
                    "duration": 0.35394050000002153
                },
                {
                    "name": "G3",
                    "midi": 55,
                    "time": 342.6144040000001,
                    "velocity": 0.33858267716535434,
                    "duration": 0.35394050000002153
                },
                {
                    "name": "D#4",
                    "midi": 63,
                    "time": 342.9683445000001,
                    "velocity": 0.2992125984251969,
                    "duration": 0.35394050000002153
                },
                {
                    "name": "D#3",
                    "midi": 51,
                    "time": 343.32228500000014,
                    "velocity": 0.33070866141732286,
                    "duration": 0.35394050000002153
                },
                {
                    "name": "D#4",
                    "midi": 63,
                    "time": 343.67622550000016,
                    "velocity": 0.33070866141732286,
                    "duration": 0.35394050000002153
                },
                {
                    "name": "G#3",
                    "midi": 56,
                    "time": 344.0301660000002,
                    "velocity": 0.3779527559055118,
                    "duration": 0.35394050000002153
                },
                {
                    "name": "D#4",
                    "midi": 63,
                    "time": 344.3841065000002,
                    "velocity": 0.33858267716535434,
                    "duration": 0.35394050000002153
                },
                {
                    "name": "C4",
                    "midi": 60,
                    "time": 344.7380470000002,
                    "velocity": 0.4015748031496063,
                    "duration": 0.35394050000002153
                },
                {
                    "name": "D#4",
                    "midi": 63,
                    "time": 345.09198750000024,
                    "velocity": 0.33858267716535434,
                    "duration": 0.35394050000002153
                },
                {
                    "name": "A#3",
                    "midi": 58,
                    "time": 345.44592800000027,
                    "velocity": 0.4409448818897638,
                    "duration": 0.35394050000002153
                },
                {
                    "name": "G4",
                    "midi": 67,
                    "time": 345.7998685000003,
                    "velocity": 0.33070866141732286,
                    "duration": 0.35394050000002153
                },
                {
                    "name": "E4",
                    "midi": 64,
                    "time": 346.1538090000003,
                    "velocity": 0.4015748031496063,
                    "duration": 0.35394050000002153
                },
                {
                    "name": "G4",
                    "midi": 67,
                    "time": 346.50774950000033,
                    "velocity": 0.3543307086614173,
                    "duration": 0.35394050000002153
                },
                {
                    "name": "G#3",
                    "midi": 56,
                    "time": 346.86169000000035,
                    "velocity": 0.4251968503937008,
                    "duration": 0.35394050000002153
                },
                {
                    "name": "F4",
                    "midi": 65,
                    "time": 347.2156305000004,
                    "velocity": 0.3464566929133858,
                    "duration": 0.35394050000002153
                },
                {
                    "name": "C4",
                    "midi": 60,
                    "time": 347.5695710000004,
                    "velocity": 0.36220472440944884,
                    "duration": 0.35394050000002153
                },
                {
                    "name": "F4",
                    "midi": 65,
                    "time": 347.9235115000004,
                    "velocity": 0.36220472440944884,
                    "duration": 0.35394050000002153
                },
                {
                    "name": "G#3",
                    "midi": 56,
                    "time": 348.27745200000044,
                    "velocity": 0.4330708661417323,
                    "duration": 0.35394050000002153
                },
                {
                    "name": "F4",
                    "midi": 65,
                    "time": 348.63139250000046,
                    "velocity": 0.33070866141732286,
                    "duration": 0.35394050000002153
                },
                {
                    "name": "D4",
                    "midi": 62,
                    "time": 348.9853330000005,
                    "velocity": 0.3700787401574803,
                    "duration": 0.35394050000002153
                },
                {
                    "name": "F4",
                    "midi": 65,
                    "time": 349.3392735000005,
                    "velocity": 0.33070866141732286,
                    "duration": 0.35394050000002153
                },
                {
                    "name": "G3",
                    "midi": 55,
                    "time": 349.6932140000005,
                    "velocity": 0.3543307086614173,
                    "duration": 0.35394050000002153
                },
                {
                    "name": "D#4",
                    "midi": 63,
                    "time": 350.04715450000054,
                    "velocity": 0.31496062992125984,
                    "duration": 0.35394050000002153
                },
                {
                    "name": "A#3",
                    "midi": 58,
                    "time": 350.40109500000057,
                    "velocity": 0.3543307086614173,
                    "duration": 0.35394050000002153
                },
                {
                    "name": "D#4",
                    "midi": 63,
                    "time": 350.7550355000006,
                    "velocity": 0.2992125984251969,
                    "duration": 0.35394050000002153
                },
                {
                    "name": "G#3",
                    "midi": 56,
                    "time": 351.1089760000006,
                    "velocity": 0.3464566929133858,
                    "duration": 0.35394050000002153
                },
                {
                    "name": "F4",
                    "midi": 65,
                    "time": 351.46291650000063,
                    "velocity": 0.2992125984251969,
                    "duration": 0.35394050000002153
                },
                {
                    "name": "C4",
                    "midi": 60,
                    "time": 351.81685700000065,
                    "velocity": 0.31496062992125984,
                    "duration": 0.35394050000002153
                },
                {
                    "name": "F4",
                    "midi": 65,
                    "time": 352.1707975000007,
                    "velocity": 0.31496062992125984,
                    "duration": 0.35394050000002153
                },
                {
                    "name": "A#3",
                    "midi": 58,
                    "time": 352.5247380000007,
                    "velocity": 0.31496062992125984,
                    "duration": 0.35394050000002153
                },
                {
                    "name": "G4",
                    "midi": 67,
                    "time": 352.8786785000007,
                    "velocity": 0.28346456692913385,
                    "duration": 0.35394050000002153
                },
                {
                    "name": "A#3",
                    "midi": 58,
                    "time": 353.23261900000074,
                    "velocity": 0.28346456692913385,
                    "duration": 0.35394050000002153
                },
                {
                    "name": "G#4",
                    "midi": 68,
                    "time": 353.58655950000076,
                    "velocity": 0.28346456692913385,
                    "duration": 0.2654553749999877
                },
                {
                    "name": "D#4",
                    "midi": 63,
                    "time": 353.9405000000007,
                    "velocity": 0.33070866141732286,
                    "duration": 1.4157619999999724
                },
                {
                    "name": "G4",
                    "midi": 67,
                    "time": 353.9405000000007,
                    "velocity": 0.33070866141732286,
                    "duration": 1.4157619999999724
                },
                {
                    "name": "D#4",
                    "midi": 63,
                    "time": 356.77202400000067,
                    "velocity": 0.28346456692913385,
                    "duration": 0.35394050000002153
                },
                {
                    "name": "F#4",
                    "midi": 66,
                    "time": 357.1259645000007,
                    "velocity": 0.2440944881889764,
                    "duration": 0.35394050000002153
                },
                {
                    "name": "D#4",
                    "midi": 63,
                    "time": 357.4799050000007,
                    "velocity": 0.2440944881889764,
                    "duration": 0.35394050000002153
                },
                {
                    "name": "F#4",
                    "midi": 66,
                    "time": 357.83384550000073,
                    "velocity": 0.2440944881889764,
                    "duration": 0.35394050000002153
                },
                {
                    "name": "D#4",
                    "midi": 63,
                    "time": 358.18778600000076,
                    "velocity": 0.30708661417322836,
                    "duration": 0.38933455000000095
                },
                {
                    "name": "F4",
                    "midi": 65,
                    "time": 358.5417265000008,
                    "velocity": 0.25984251968503935,
                    "duration": 0.3893345499999441
                },
                {
                    "name": "D#4",
                    "midi": 63,
                    "time": 358.89566700000074,
                    "velocity": 0.28346456692913385,
                    "duration": 0.3893345499999441
                },
                {
                    "name": "F4",
                    "midi": 65,
                    "time": 359.2496075000007,
                    "velocity": 0.25196850393700787,
                    "duration": 0.3539404999999647
                },
                {
                    "name": "D4",
                    "midi": 62,
                    "time": 359.60354800000067,
                    "velocity": 0.30708661417322836,
                    "duration": 0.35394050000002153
                },
                {
                    "name": "F4",
                    "midi": 65,
                    "time": 359.9574885000007,
                    "velocity": 0.2440944881889764,
                    "duration": 0.35394050000002153
                },
                {
                    "name": "D4",
                    "midi": 62,
                    "time": 360.3114290000007,
                    "velocity": 0.2440944881889764,
                    "duration": 0.35394050000002153
                },
                {
                    "name": "F4",
                    "midi": 65,
                    "time": 360.66536950000074,
                    "velocity": 0.2440944881889764,
                    "duration": 0.35394050000002153
                },
                {
                    "name": "C#4",
                    "midi": 61,
                    "time": 361.01931000000076,
                    "velocity": 0.28346456692913385,
                    "duration": 0.38933455000000095
                },
                {
                    "name": "F4",
                    "midi": 65,
                    "time": 361.3732505000008,
                    "velocity": 0.25984251968503935,
                    "duration": 0.3893345499999441
                },
                {
                    "name": "C#4",
                    "midi": 61,
                    "time": 361.72719100000074,
                    "velocity": 0.25196850393700787,
                    "duration": 0.3893345499999441
                },
                {
                    "name": "F4",
                    "midi": 65,
                    "time": 362.0811315000007,
                    "velocity": 0.25196850393700787,
                    "duration": 0.3539404999999647
                },
                {
                    "name": "C4",
                    "midi": 60,
                    "time": 362.4350720000007,
                    "velocity": 0.28346456692913385,
                    "duration": 0.35394050000002153
                },
                {
                    "name": "D#4",
                    "midi": 63,
                    "time": 362.7890125000007,
                    "velocity": 0.2440944881889764,
                    "duration": 0.35394050000002153
                },
                {
                    "name": "C4",
                    "midi": 60,
                    "time": 363.1429530000007,
                    "velocity": 0.2440944881889764,
                    "duration": 0.35394050000002153
                },
                {
                    "name": "D#4",
                    "midi": 63,
                    "time": 363.49689350000074,
                    "velocity": 0.2440944881889764,
                    "duration": 0.35394050000002153
                },
                {
                    "name": "C#4",
                    "midi": 61,
                    "time": 363.85083400000076,
                    "velocity": 0.28346456692913385,
                    "duration": 0.7078809999999862
                },
                {
                    "name": "A#3",
                    "midi": 58,
                    "time": 364.55871500000075,
                    "velocity": 0.25984251968503935,
                    "duration": 0.7078809999999862
                },
                {
                    "name": "D#4",
                    "midi": 63,
                    "time": 365.26659600000073,
                    "velocity": 0.3228346456692913,
                    "duration": 0.35394050000002153
                },
                {
                    "name": "D4",
                    "midi": 62,
                    "time": 365.62053650000075,
                    "velocity": 0.28346456692913385,
                    "duration": 0.35394050000002153
                },
                {
                    "name": "D#4",
                    "midi": 63,
                    "time": 365.9744770000008,
                    "velocity": 0.28346456692913385,
                    "duration": 0.35394050000002153
                },
                {
                    "name": "D4",
                    "midi": 62,
                    "time": 366.3284175000008,
                    "velocity": 0.28346456692913385,
                    "duration": 0.35394050000002153
                },
                {
                    "name": "D#4",
                    "midi": 63,
                    "time": 366.6823580000008,
                    "velocity": 0.31496062992125984,
                    "duration": 0.35394050000002153
                },
                {
                    "name": "A#3",
                    "midi": 58,
                    "time": 367.03629850000084,
                    "velocity": 0.28346456692913385,
                    "duration": 0.35394050000002153
                },
                {
                    "name": "G3",
                    "midi": 55,
                    "time": 367.39023900000086,
                    "velocity": 0.28346456692913385,
                    "duration": 0.35394050000002153
                },
                {
                    "name": "D#3",
                    "midi": 51,
                    "time": 367.7441795000009,
                    "velocity": 0.28346456692913385,
                    "duration": 0.35394050000002153
                },
                {
                    "name": "F3",
                    "midi": 53,
                    "time": 368.0981200000009,
                    "velocity": 0.28346456692913385,
                    "duration": 0.35394050000002153
                },
                {
                    "name": "C4",
                    "midi": 60,
                    "time": 368.4520605000009,
                    "velocity": 0.2440944881889764,
                    "duration": 0.35394050000002153
                },
                {
                    "name": "G#3",
                    "midi": 56,
                    "time": 368.80600100000095,
                    "velocity": 0.2440944881889764,
                    "duration": 0.35394050000002153
                },
                {
                    "name": "C4",
                    "midi": 60,
                    "time": 369.15994150000097,
                    "velocity": 0.2440944881889764,
                    "duration": 0.35394050000002153
                },
                {
                    "name": "G#3",
                    "midi": 56,
                    "time": 369.513882000001,
                    "velocity": 0.30708661417322836,
                    "duration": 0.38933455000000095
                },
                {
                    "name": "F4",
                    "midi": 65,
                    "time": 369.867822500001,
                    "velocity": 0.25984251968503935,
                    "duration": 0.3893345499999441
                },
                {
                    "name": "A#3",
                    "midi": 58,
                    "time": 370.221763000001,
                    "velocity": 0.28346456692913385,
                    "duration": 0.3893345499999441
                },
                {
                    "name": "F4",
                    "midi": 65,
                    "time": 370.57570350000094,
                    "velocity": 0.25196850393700787,
                    "duration": 0.3539404999999647
                },
                {
                    "name": "G3",
                    "midi": 55,
                    "time": 370.9296440000009,
                    "velocity": 0.33858267716535434,
                    "duration": 0.35394050000002153
                },
                {
                    "name": "D#4",
                    "midi": 63,
                    "time": 371.2835845000009,
                    "velocity": 0.28346456692913385,
                    "duration": 0.35394050000002153
                },
                {
                    "name": "A#3",
                    "midi": 58,
                    "time": 371.63752500000095,
                    "velocity": 0.31496062992125984,
                    "duration": 0.35394050000002153
                },
                {
                    "name": "D#4",
                    "midi": 63,
                    "time": 372.009162525001,
                    "velocity": 0.28346456692913385,
                    "duration": 0.35394050000002153
                },
                {
                    "name": "C#4",
                    "midi": 61,
                    "time": 372.345406000001,
                    "velocity": 0.3228346456692913,
                    "duration": 0.38933455000000095
                },
                {
                    "name": "A#4",
                    "midi": 70,
                    "time": 372.699346500001,
                    "velocity": 0.25984251968503935,
                    "duration": 0.3893345499999441
                },
                {
                    "name": "D#4",
                    "midi": 63,
                    "time": 373.053287000001,
                    "velocity": 0.28346456692913385,
                    "duration": 0.3893345499999441
                },
                {
                    "name": "A#4",
                    "midi": 70,
                    "time": 373.40722750000094,
                    "velocity": 0.25196850393700787,
                    "duration": 0.3539404999999647
                },
                {
                    "name": "C4",
                    "midi": 60,
                    "time": 373.7611680000009,
                    "velocity": 0.30708661417322836,
                    "duration": 0.7078809999999862
                },
                {
                    "name": "G#4",
                    "midi": 68,
                    "time": 373.7611680000009,
                    "velocity": 0.30708661417322836,
                    "duration": 0.7078809999999862
                },
                {
                    "name": "C#4",
                    "midi": 61,
                    "time": 374.4690490000009,
                    "velocity": 0.28346456692913385,
                    "duration": 0.7078809999999862
                },
                {
                    "name": "F4",
                    "midi": 65,
                    "time": 374.4690490000009,
                    "velocity": 0.28346456692913385,
                    "duration": 0.7078809999999862
                },
                {
                    "name": "D#3",
                    "midi": 51,
                    "time": 375.1769300000009,
                    "velocity": 0.30708661417322836,
                    "duration": 0.7078809999999862
                },
                {
                    "name": "C4",
                    "midi": 60,
                    "time": 375.1769300000009,
                    "velocity": 0.30708661417322836,
                    "duration": 0.7078809999999862
                },
                {
                    "name": "D#3",
                    "midi": 51,
                    "time": 375.88481100000087,
                    "velocity": 0.28346456692913385,
                    "duration": 0.7078809999999862
                },
                {
                    "name": "A#3",
                    "midi": 58,
                    "time": 375.88481100000087,
                    "velocity": 0.28346456692913385,
                    "duration": 0.7078809999999862
                },
                {
                    "name": "G#3",
                    "midi": 56,
                    "time": 376.59269200000085,
                    "velocity": 0.30708661417322836,
                    "duration": 2.1236429999999586
                },
                {
                    "name": "C#4",
                    "midi": 61,
                    "time": 376.59269200000085,
                    "velocity": 0.30708661417322836,
                    "duration": 1.4157619999999724
                },
                {
                    "name": "C4",
                    "midi": 60,
                    "time": 378.0084540000008,
                    "velocity": 0.28346456692913385,
                    "duration": 0.7078809999999862
                },
                {
                    "name": "D#4",
                    "midi": 63,
                    "time": 379.4242160000008,
                    "velocity": 0.28346456692913385,
                    "duration": 0.35394050000002153
                },
                {
                    "name": "F#4",
                    "midi": 66,
                    "time": 379.7781565000008,
                    "velocity": 0.2440944881889764,
                    "duration": 0.35394050000002153
                },
                {
                    "name": "D#4",
                    "midi": 63,
                    "time": 380.13209700000084,
                    "velocity": 0.2440944881889764,
                    "duration": 0.35394050000002153
                },
                {
                    "name": "F#4",
                    "midi": 66,
                    "time": 380.48603750000086,
                    "velocity": 0.2440944881889764,
                    "duration": 0.35394050000002153
                },
                {
                    "name": "D#4",
                    "midi": 63,
                    "time": 380.8399780000009,
                    "velocity": 0.30708661417322836,
                    "duration": 0.38933455000000095
                },
                {
                    "name": "F4",
                    "midi": 65,
                    "time": 381.1939185000009,
                    "velocity": 0.25984251968503935,
                    "duration": 0.3893345499999441
                },
                {
                    "name": "D#4",
                    "midi": 63,
                    "time": 381.54785900000087,
                    "velocity": 0.28346456692913385,
                    "duration": 0.3893345499999441
                },
                {
                    "name": "F4",
                    "midi": 65,
                    "time": 381.90179950000083,
                    "velocity": 0.25196850393700787,
                    "duration": 0.3539404999999647
                },
                {
                    "name": "D4",
                    "midi": 62,
                    "time": 382.2557400000008,
                    "velocity": 0.30708661417322836,
                    "duration": 0.35394050000002153
                },
                {
                    "name": "F4",
                    "midi": 65,
                    "time": 382.6096805000008,
                    "velocity": 0.2440944881889764,
                    "duration": 0.35394050000002153
                },
                {
                    "name": "D4",
                    "midi": 62,
                    "time": 382.96362100000084,
                    "velocity": 0.2440944881889764,
                    "duration": 0.35394050000002153
                },
                {
                    "name": "F4",
                    "midi": 65,
                    "time": 383.31756150000086,
                    "velocity": 0.2440944881889764,
                    "duration": 0.35394050000002153
                },
                {
                    "name": "C#4",
                    "midi": 61,
                    "time": 383.6715020000009,
                    "velocity": 0.28346456692913385,
                    "duration": 0.38933455000000095
                },
                {
                    "name": "F4",
                    "midi": 65,
                    "time": 384.0254425000009,
                    "velocity": 0.25984251968503935,
                    "duration": 0.3893345499999441
                },
                {
                    "name": "C#4",
                    "midi": 61,
                    "time": 384.37938300000087,
                    "velocity": 0.25196850393700787,
                    "duration": 0.3893345499999441
                },
                {
                    "name": "F4",
                    "midi": 65,
                    "time": 384.73332350000084,
                    "velocity": 0.25196850393700787,
                    "duration": 0.3539404999999647
                },
                {
                    "name": "C4",
                    "midi": 60,
                    "time": 385.0872640000008,
                    "velocity": 0.28346456692913385,
                    "duration": 0.35394050000002153
                },
                {
                    "name": "D#4",
                    "midi": 63,
                    "time": 385.4412045000008,
                    "velocity": 0.2440944881889764,
                    "duration": 0.35394050000002153
                },
                {
                    "name": "C4",
                    "midi": 60,
                    "time": 385.79514500000084,
                    "velocity": 0.2440944881889764,
                    "duration": 0.35394050000002153
                },
                {
                    "name": "D#4",
                    "midi": 63,
                    "time": 386.14908550000087,
                    "velocity": 0.2440944881889764,
                    "duration": 0.35394050000002153
                },
                {
                    "name": "C#4",
                    "midi": 61,
                    "time": 386.5030260000009,
                    "velocity": 0.28346456692913385,
                    "duration": 0.7078809999999862
                },
                {
                    "name": "A#3",
                    "midi": 58,
                    "time": 387.2109070000009,
                    "velocity": 0.25984251968503935,
                    "duration": 0.7078809999999862
                },
                {
                    "name": "D#4",
                    "midi": 63,
                    "time": 387.91878800000086,
                    "velocity": 0.3228346456692913,
                    "duration": 0.35394050000002153
                },
                {
                    "name": "D4",
                    "midi": 62,
                    "time": 388.2727285000009,
                    "velocity": 0.28346456692913385,
                    "duration": 0.35394050000002153
                },
                {
                    "name": "D#4",
                    "midi": 63,
                    "time": 388.6266690000009,
                    "velocity": 0.28346456692913385,
                    "duration": 0.35394050000002153
                },
                {
                    "name": "D4",
                    "midi": 62,
                    "time": 388.9806095000009,
                    "velocity": 0.28346456692913385,
                    "duration": 0.35394050000002153
                },
                {
                    "name": "D#4",
                    "midi": 63,
                    "time": 389.33455000000095,
                    "velocity": 0.31496062992125984,
                    "duration": 0.35394050000002153
                },
                {
                    "name": "A#3",
                    "midi": 58,
                    "time": 389.68849050000097,
                    "velocity": 0.28346456692913385,
                    "duration": 0.35394050000002153
                },
                {
                    "name": "G3",
                    "midi": 55,
                    "time": 390.042431000001,
                    "velocity": 0.28346456692913385,
                    "duration": 0.35394050000002153
                },
                {
                    "name": "D#3",
                    "midi": 51,
                    "time": 390.396371500001,
                    "velocity": 0.28346456692913385,
                    "duration": 0.35394050000002153
                },
                {
                    "name": "F3",
                    "midi": 53,
                    "time": 390.75031200000103,
                    "velocity": 0.28346456692913385,
                    "duration": 0.35394050000002153
                },
                {
                    "name": "C4",
                    "midi": 60,
                    "time": 391.10425250000105,
                    "velocity": 0.2440944881889764,
                    "duration": 0.35394050000002153
                },
                {
                    "name": "G#3",
                    "midi": 56,
                    "time": 391.4581930000011,
                    "velocity": 0.2440944881889764,
                    "duration": 0.35394050000002153
                },
                {
                    "name": "C4",
                    "midi": 60,
                    "time": 391.8121335000011,
                    "velocity": 0.2440944881889764,
                    "duration": 0.35394050000002153
                },
                {
                    "name": "G#3",
                    "midi": 56,
                    "time": 392.1660740000011,
                    "velocity": 0.30708661417322836,
                    "duration": 0.38933455000000095
                },
                {
                    "name": "F4",
                    "midi": 65,
                    "time": 392.52001450000114,
                    "velocity": 0.25984251968503935,
                    "duration": 0.3893345499999441
                },
                {
                    "name": "A#3",
                    "midi": 58,
                    "time": 392.8739550000011,
                    "velocity": 0.28346456692913385,
                    "duration": 0.3893345499999441
                },
                {
                    "name": "F4",
                    "midi": 65,
                    "time": 393.22789550000107,
                    "velocity": 0.25196850393700787,
                    "duration": 0.3539404999999647
                },
                {
                    "name": "G3",
                    "midi": 55,
                    "time": 393.58183600000103,
                    "velocity": 0.33858267716535434,
                    "duration": 0.35394050000002153
                },
                {
                    "name": "D#4",
                    "midi": 63,
                    "time": 393.93577650000105,
                    "velocity": 0.2440944881889764,
                    "duration": 0.35394050000002153
                },
                {
                    "name": "A#3",
                    "midi": 58,
                    "time": 394.2897170000011,
                    "velocity": 0.28346456692913385,
                    "duration": 0.35394050000002153
                },
                {
                    "name": "D#4",
                    "midi": 63,
                    "time": 394.6613545250011,
                    "velocity": 0.2440944881889764,
                    "duration": 0.35394050000002153
                },
                {
                    "name": "C#4",
                    "midi": 61,
                    "time": 394.9975980000011,
                    "velocity": 0.30708661417322836,
                    "duration": 0.38933455000000095
                },
                {
                    "name": "A#4",
                    "midi": 70,
                    "time": 395.35153850000114,
                    "velocity": 0.25984251968503935,
                    "duration": 0.3893345499999441
                },
                {
                    "name": "D#4",
                    "midi": 63,
                    "time": 395.7054790000011,
                    "velocity": 0.25196850393700787,
                    "duration": 0.3893345499999441
                },
                {
                    "name": "A#4",
                    "midi": 70,
                    "time": 396.05941950000107,
                    "velocity": 0.25196850393700787,
                    "duration": 0.3539404999999647
                },
                {
                    "name": "C4",
                    "midi": 60,
                    "time": 396.41336000000103,
                    "velocity": 0.30708661417322836,
                    "duration": 0.7078809999999862
                },
                {
                    "name": "G#4",
                    "midi": 68,
                    "time": 396.41336000000103,
                    "velocity": 0.30708661417322836,
                    "duration": 0.7078809999999862
                },
                {
                    "name": "C#4",
                    "midi": 61,
                    "time": 397.121241000001,
                    "velocity": 0.28346456692913385,
                    "duration": 0.7078809999999862
                },
                {
                    "name": "F4",
                    "midi": 65,
                    "time": 397.121241000001,
                    "velocity": 0.28346456692913385,
                    "duration": 0.7078809999999862
                },
                {
                    "name": "D#3",
                    "midi": 51,
                    "time": 397.829122000001,
                    "velocity": 0.30708661417322836,
                    "duration": 0.7078809999999862
                },
                {
                    "name": "C4",
                    "midi": 60,
                    "time": 397.829122000001,
                    "velocity": 0.30708661417322836,
                    "duration": 0.7078809999999862
                },
                {
                    "name": "D#3",
                    "midi": 51,
                    "time": 398.537003000001,
                    "velocity": 0.28346456692913385,
                    "duration": 0.7078809999999862
                },
                {
                    "name": "A#3",
                    "midi": 58,
                    "time": 398.537003000001,
                    "velocity": 0.28346456692913385,
                    "duration": 0.7078809999999862
                },
                {
                    "name": "G#3",
                    "midi": 56,
                    "time": 399.244884000001,
                    "velocity": 0.30708661417322836,
                    "duration": 2.1236429999999586
                },
                {
                    "name": "C#4",
                    "midi": 61,
                    "time": 399.244884000001,
                    "velocity": 0.30708661417322836,
                    "duration": 1.4157619999999724
                },
                {
                    "name": "C4",
                    "midi": 60,
                    "time": 400.66064600000095,
                    "velocity": 0.28346456692913385,
                    "duration": 0.7078809999999862
                },
                {
                    "name": "E4",
                    "midi": 64,
                    "time": 402.0764080000009,
                    "velocity": 0.30708661417322836,
                    "duration": 1.0618215000000077
                },
                {
                    "name": "G4",
                    "midi": 67,
                    "time": 402.0764080000009,
                    "velocity": 0.30708661417322836,
                    "duration": 1.0618215000000077
                },
                {
                    "name": "F4",
                    "midi": 65,
                    "time": 403.49217000000095,
                    "velocity": 0.30708661417322836,
                    "duration": 0.7078809999999862
                },
                {
                    "name": "G#4",
                    "midi": 68,
                    "time": 403.49217000000095,
                    "velocity": 0.30708661417322836,
                    "duration": 0.7078809999999862
                },
                {
                    "name": "D4",
                    "midi": 62,
                    "time": 404.9079320000009,
                    "velocity": 0.30708661417322836,
                    "duration": 1.0618215000000077
                },
                {
                    "name": "F4",
                    "midi": 65,
                    "time": 404.9079320000009,
                    "velocity": 0.30708661417322836,
                    "duration": 1.0618215000000077
                },
                {
                    "name": "D#4",
                    "midi": 63,
                    "time": 406.32369400000096,
                    "velocity": 0.30708661417322836,
                    "duration": 0.7078809999999862
                },
                {
                    "name": "G4",
                    "midi": 67,
                    "time": 406.32369400000096,
                    "velocity": 0.30708661417322836,
                    "duration": 0.7078809999999862
                },
                {
                    "name": "C4",
                    "midi": 60,
                    "time": 407.7394560000009,
                    "velocity": 0.30708661417322836,
                    "duration": 2.8315240000000017
                },
                {
                    "name": "D#4",
                    "midi": 63,
                    "time": 407.7394560000009,
                    "velocity": 0.30708661417322836,
                    "duration": 2.8315240000000017
                },
                {
                    "name": "A#3",
                    "midi": 58,
                    "time": 410.92492050000095,
                    "velocity": 0.3937007874015748,
                    "duration": 1.0618215000000646
                },
                {
                    "name": "D4",
                    "midi": 62,
                    "time": 411.278861000001,
                    "velocity": 0.41732283464566927,
                    "duration": 0.35394050000002153
                },
                {
                    "name": "F4",
                    "midi": 65,
                    "time": 411.632801500001,
                    "velocity": 0.4330708661417323,
                    "duration": 0.35394050000002153
                },
                {
                    "name": "F#4",
                    "midi": 66,
                    "time": 411.986742000001,
                    "velocity": 0.4566929133858268,
                    "duration": 0.7078809999999862
                },
                {
                    "name": "D#4",
                    "midi": 63,
                    "time": 412.694623000001,
                    "velocity": 0.4251968503937008,
                    "duration": 0.7078809999999862
                },
                {
                    "name": "A#3",
                    "midi": 58,
                    "time": 413.756444500001,
                    "velocity": 0.4251968503937008,
                    "duration": 1.0618215000000646
                },
                {
                    "name": "D4",
                    "midi": 62,
                    "time": 414.11038500000103,
                    "velocity": 0.4566929133858268,
                    "duration": 0.35394050000002153
                },
                {
                    "name": "F4",
                    "midi": 65,
                    "time": 414.46432550000105,
                    "velocity": 0.48031496062992124,
                    "duration": 0.35394050000002153
                },
                {
                    "name": "F#4",
                    "midi": 66,
                    "time": 414.8182660000011,
                    "velocity": 0.49606299212598426,
                    "duration": 0.7078809999999862
                },
                {
                    "name": "D#4",
                    "midi": 63,
                    "time": 415.52614700000106,
                    "velocity": 0.4251968503937008,
                    "duration": 0.7078809999999862
                },
                {
                    "name": "A#3",
                    "midi": 58,
                    "time": 416.58796850000107,
                    "velocity": 0.3700787401574803,
                    "duration": 7.432750500000054
                },
                {
                    "name": "D4",
                    "midi": 62,
                    "time": 416.9419090000011,
                    "velocity": 0.3858267716535433,
                    "duration": 0.35394050000002153
                },
                {
                    "name": "F4",
                    "midi": 65,
                    "time": 417.2958495000011,
                    "velocity": 0.4015748031496063,
                    "duration": 0.35394050000002153
                },
                {
                    "name": "G#4",
                    "midi": 68,
                    "time": 417.64979000000113,
                    "velocity": 0.4409448818897638,
                    "duration": 6.37092899999999
                },
                {
                    "name": "D#2",
                    "midi": 39,
                    "time": 424.7286000000011,
                    "velocity": 0.2125984251968504,
                    "duration": 1.4157619999999724
                },
                {
                    "name": "D#3",
                    "midi": 51,
                    "time": 424.7286000000011,
                    "velocity": 0.30708661417322836,
                    "duration": 1.4157619999999724
                },
                {
                    "name": "A#2",
                    "midi": 46,
                    "time": 426.85224300000107,
                    "velocity": 0.25984251968503935,
                    "duration": 0.7078809999999862
                },
                {
                    "name": "D#3",
                    "midi": 51,
                    "time": 427.56012400000105,
                    "velocity": 0.30708661417322836,
                    "duration": 1.4157619999999724
                },
                {
                    "name": "A#2",
                    "midi": 46,
                    "time": 429.683767000001,
                    "velocity": 0.28346456692913385,
                    "duration": 0.7078809999999862
                },
                {
                    "name": "D#3",
                    "midi": 51,
                    "time": 430.391648000001,
                    "velocity": 0.30708661417322836,
                    "duration": 0.7078809999999862
                },
                {
                    "name": "C3",
                    "midi": 48,
                    "time": 431.099529000001,
                    "velocity": 0.2677165354330709,
                    "duration": 0.7078809999999862
                },
                {
                    "name": "G2",
                    "midi": 43,
                    "time": 431.80741000000097,
                    "velocity": 0.30708661417322836,
                    "duration": 0.7078809999999862
                },
                {
                    "name": "G#2",
                    "midi": 44,
                    "time": 432.51529100000096,
                    "velocity": 0.28346456692913385,
                    "duration": 0.7078809999999862
                },
                {
                    "name": "A#2",
                    "midi": 46,
                    "time": 433.22317200000094,
                    "velocity": 0.30708661417322836,
                    "duration": 2.1236430000000155
                },
                {
                    "name": "G4",
                    "midi": 67,
                    "time": 436.05469600000094,
                    "velocity": 0.28346456692913385,
                    "duration": 1.4157619999999724
                },
                {
                    "name": "D#4",
                    "midi": 63,
                    "time": 437.4704580000009,
                    "velocity": 0.28346456692913385,
                    "duration": 0.7078809999999862
                },
                {
                    "name": "A#3",
                    "midi": 58,
                    "time": 438.1783390000009,
                    "velocity": 0.2677165354330709,
                    "duration": 0.7078809999999862
                },
                {
                    "name": "G3",
                    "midi": 55,
                    "time": 438.8862200000009,
                    "velocity": 0.2992125984251969,
                    "duration": 0.5309107499999755
                },
                {
                    "name": "A#3",
                    "midi": 58,
                    "time": 439.5941010000009,
                    "velocity": 0.2677165354330709,
                    "duration": 0.5309107499999755
                },
                {
                    "name": "D#4",
                    "midi": 63,
                    "time": 440.30198200000086,
                    "velocity": 0.28346456692913385,
                    "duration": 0.5309107499999755
                },
                {
                    "name": "C4",
                    "midi": 60,
                    "time": 441.00986300000085,
                    "velocity": 0.30708661417322836,
                    "duration": 0.5309107499999755
                },
                {
                    "name": "G3",
                    "midi": 55,
                    "time": 441.71774400000083,
                    "velocity": 0.33070866141732286,
                    "duration": 0.7078809999999862
                },
                {
                    "name": "F4",
                    "midi": 65,
                    "time": 442.4256250000008,
                    "velocity": 0.28346456692913385,
                    "duration": 0.7078809999999862
                },
                {
                    "name": "G#3",
                    "midi": 56,
                    "time": 442.4256250000008,
                    "velocity": 0.23622047244094488,
                    "duration": 0.7078809999999862
                },
                {
                    "name": "A#3",
                    "midi": 58,
                    "time": 443.1335060000008,
                    "velocity": 0.2755905511811024,
                    "duration": 1.4157619999999724
                },
                {
                    "name": "G4",
                    "midi": 67,
                    "time": 443.1335060000008,
                    "velocity": 0.33070866141732286,
                    "duration": 0.7078809999999862
                },
                {
                    "name": "G#4",
                    "midi": 68,
                    "time": 443.8413870000008,
                    "velocity": 0.25984251968503935,
                    "duration": 0.7078809999999862
                },
                {
                    "name": "D#4",
                    "midi": 63,
                    "time": 444.5492680000008,
                    "velocity": 0.2204724409448819,
                    "duration": 2.1236429999999586
                },
                {
                    "name": "G#4",
                    "midi": 68,
                    "time": 444.5492680000008,
                    "velocity": 0.2677165354330709,
                    "duration": 1.4157619999999724
                },
                {
                    "name": "G4",
                    "midi": 67,
                    "time": 445.96503000000075,
                    "velocity": 0.25196850393700787,
                    "duration": 0.7078809999999862
                },
                {
                    "name": "D#3",
                    "midi": 51,
                    "time": 447.3807920000007,
                    "velocity": 0.28346456692913385,
                    "duration": 0.35394050000002153
                },
                {
                    "name": "C4",
                    "midi": 60,
                    "time": 447.73473250000075,
                    "velocity": 0.2440944881889764,
                    "duration": 0.35394050000002153
                },
                {
                    "name": "G#3",
                    "midi": 56,
                    "time": 448.08867300000077,
                    "velocity": 0.2440944881889764,
                    "duration": 0.35394050000002153
                },
                {
                    "name": "C4",
                    "midi": 60,
                    "time": 448.4426135000008,
                    "velocity": 0.2440944881889764,
                    "duration": 0.35394050000002153
                },
                {
                    "name": "D#3",
                    "midi": 51,
                    "time": 448.7965540000008,
                    "velocity": 0.28346456692913385,
                    "duration": 0.35394050000002153
                },
                {
                    "name": "C4",
                    "midi": 60,
                    "time": 449.15049450000083,
                    "velocity": 0.25984251968503935,
                    "duration": 0.35394050000002153
                },
                {
                    "name": "G#3",
                    "midi": 56,
                    "time": 449.50443500000085,
                    "velocity": 0.25196850393700787,
                    "duration": 0.35394050000002153
                },
                {
                    "name": "C4",
                    "midi": 60,
                    "time": 449.8583755000009,
                    "velocity": 0.25196850393700787,
                    "duration": 0.35394050000002153
                },
                {
                    "name": "D#3",
                    "midi": 51,
                    "time": 450.2123160000009,
                    "velocity": 0.28346456692913385,
                    "duration": 0.35394050000002153
                },
                {
                    "name": "A#3",
                    "midi": 58,
                    "time": 450.5662565000009,
                    "velocity": 0.2125984251968504,
                    "duration": 0.35394050000002153
                },
                {
                    "name": "G3",
                    "midi": 55,
                    "time": 450.92019700000094,
                    "velocity": 0.2440944881889764,
                    "duration": 0.35394050000002153
                },
                {
                    "name": "A#3",
                    "midi": 58,
                    "time": 451.27413750000096,
                    "velocity": 0.2047244094488189,
                    "duration": 0.35394050000002153
                },
                {
                    "name": "D#3",
                    "midi": 51,
                    "time": 451.628078000001,
                    "velocity": 0.28346456692913385,
                    "duration": 0.35394050000002153
                },
                {
                    "name": "A#3",
                    "midi": 58,
                    "time": 451.982018500001,
                    "velocity": 0.2204724409448819,
                    "duration": 0.35394050000002153
                },
                {
                    "name": "G3",
                    "midi": 55,
                    "time": 452.335959000001,
                    "velocity": 0.25196850393700787,
                    "duration": 0.35394050000002153
                },
                {
                    "name": "A#3",
                    "midi": 58,
                    "time": 452.68989950000105,
                    "velocity": 0.23622047244094488,
                    "duration": 0.35394050000002153
                },
                {
                    "name": "D#3",
                    "midi": 51,
                    "time": 453.04384000000107,
                    "velocity": 0.28346456692913385,
                    "duration": 0.35394050000002153
                },
                {
                    "name": "C4",
                    "midi": 60,
                    "time": 453.3977805000011,
                    "velocity": 0.2440944881889764,
                    "duration": 0.35394050000002153
                },
                {
                    "name": "G#3",
                    "midi": 56,
                    "time": 453.7517210000011,
                    "velocity": 0.2440944881889764,
                    "duration": 0.35394050000002153
                },
                {
                    "name": "C4",
                    "midi": 60,
                    "time": 454.10566150000113,
                    "velocity": 0.2440944881889764,
                    "duration": 0.35394050000002153
                },
                {
                    "name": "D#3",
                    "midi": 51,
                    "time": 454.45960200000115,
                    "velocity": 0.28346456692913385,
                    "duration": 0.35394050000002153
                },
                {
                    "name": "C4",
                    "midi": 60,
                    "time": 454.8135425000012,
                    "velocity": 0.2283464566929134,
                    "duration": 0.35394050000002153
                },
                {
                    "name": "G#3",
                    "midi": 56,
                    "time": 455.1674830000012,
                    "velocity": 0.25196850393700787,
                    "duration": 0.35394050000002153
                },
                {
                    "name": "C4",
                    "midi": 60,
                    "time": 455.5214235000012,
                    "velocity": 0.23622047244094488,
                    "duration": 0.35394050000002153
                },
                {
                    "name": "D#3",
                    "midi": 51,
                    "time": 455.87536400000124,
                    "velocity": 0.28346456692913385,
                    "duration": 0.35394050000002153
                },
                {
                    "name": "A#3",
                    "midi": 58,
                    "time": 456.22930450000126,
                    "velocity": 0.2440944881889764,
                    "duration": 0.35394050000002153
                },
                {
                    "name": "G3",
                    "midi": 55,
                    "time": 456.5832450000013,
                    "velocity": 0.28346456692913385,
                    "duration": 0.35394050000002153
                },
                {
                    "name": "A#3",
                    "midi": 58,
                    "time": 456.9371855000013,
                    "velocity": 0.2440944881889764,
                    "duration": 0.35394050000002153
                },
                {
                    "name": "D#3",
                    "midi": 51,
                    "time": 457.2911260000013,
                    "velocity": 0.28346456692913385,
                    "duration": 0.35394050000002153
                },
                {
                    "name": "A#3",
                    "midi": 58,
                    "time": 457.64506650000135,
                    "velocity": 0.23622047244094488,
                    "duration": 0.35394050000002153
                },
                {
                    "name": "G3",
                    "midi": 55,
                    "time": 457.99900700000137,
                    "velocity": 0.25196850393700787,
                    "duration": 0.35394050000002153
                },
                {
                    "name": "A#3",
                    "midi": 58,
                    "time": 458.3529475000014,
                    "velocity": 0.23622047244094488,
                    "duration": 0.35394050000002153
                },
                {
                    "name": "C4",
                    "midi": 60,
                    "time": 458.7068880000014,
                    "velocity": 0.33070866141732286,
                    "duration": 1.4157619999999724
                },
                {
                    "name": "D4",
                    "midi": 62,
                    "time": 460.4765905000014,
                    "velocity": 0.25196850393700787,
                    "duration": 0.2654553749999877
                },
                {
                    "name": "A#4",
                    "midi": 70,
                    "time": 460.4765905000014,
                    "velocity": 0.25196850393700787,
                    "duration": 0.2654553749999877
                },
                {
                    "name": "D4",
                    "midi": 62,
                    "time": 460.8305310000014,
                    "velocity": 0.28346456692913385,
                    "duration": 0.2654553749999877
                },
                {
                    "name": "A#4",
                    "midi": 70,
                    "time": 460.8305310000014,
                    "velocity": 0.28346456692913385,
                    "duration": 0.2654553749999877
                },
                {
                    "name": "D4",
                    "midi": 62,
                    "time": 461.18447150000134,
                    "velocity": 0.25196850393700787,
                    "duration": 0.2654553749999877
                },
                {
                    "name": "A#4",
                    "midi": 70,
                    "time": 461.18447150000134,
                    "velocity": 0.25196850393700787,
                    "duration": 0.2654553749999877
                },
                {
                    "name": "D#4",
                    "midi": 63,
                    "time": 461.5384120000013,
                    "velocity": 0.29133858267716534,
                    "duration": 1.4157619999999724
                },
                {
                    "name": "A#4",
                    "midi": 70,
                    "time": 461.5384120000013,
                    "velocity": 0.29133858267716534,
                    "duration": 1.4157619999999724
                },
                {
                    "name": "G4",
                    "midi": 67,
                    "time": 463.3081145000013,
                    "velocity": 0.25196850393700787,
                    "duration": 0.2654553749999877
                },
                {
                    "name": "A#4",
                    "midi": 70,
                    "time": 463.3081145000013,
                    "velocity": 0.25196850393700787,
                    "duration": 0.2654553749999877
                },
                {
                    "name": "G4",
                    "midi": 67,
                    "time": 463.66205500000126,
                    "velocity": 0.28346456692913385,
                    "duration": 0.2654553749999877
                },
                {
                    "name": "A#4",
                    "midi": 70,
                    "time": 463.66205500000126,
                    "velocity": 0.28346456692913385,
                    "duration": 0.2654553749999877
                },
                {
                    "name": "G4",
                    "midi": 67,
                    "time": 464.0159955000012,
                    "velocity": 0.25196850393700787,
                    "duration": 0.2654553749999877
                },
                {
                    "name": "A#4",
                    "midi": 70,
                    "time": 464.0159955000012,
                    "velocity": 0.25196850393700787,
                    "duration": 0.2654553749999877
                },
                {
                    "name": "G#4",
                    "midi": 68,
                    "time": 464.3699360000012,
                    "velocity": 0.29133858267716534,
                    "duration": 1.4157619999999724
                },
                {
                    "name": "C5",
                    "midi": 72,
                    "time": 464.3699360000012,
                    "velocity": 0.29133858267716534,
                    "duration": 1.4157619999999724
                },
                {
                    "name": "A#3",
                    "midi": 58,
                    "time": 466.49357900000115,
                    "velocity": 0.28346456692913385,
                    "duration": 0.7078809999999862
                },
                {
                    "name": "G#4",
                    "midi": 68,
                    "time": 466.49357900000115,
                    "velocity": 0.28346456692913385,
                    "duration": 0.7078809999999862
                },
                {
                    "name": "B3",
                    "midi": 59,
                    "time": 467.20146000000113,
                    "velocity": 0.2992125984251969,
                    "duration": 1.4157619999999724
                },
                {
                    "name": "G#4",
                    "midi": 68,
                    "time": 467.20146000000113,
                    "velocity": 0.2992125984251969,
                    "duration": 1.4157619999999724
                },
                {
                    "name": "C4",
                    "midi": 60,
                    "time": 468.6172220000011,
                    "velocity": 0.28346456692913385,
                    "duration": 0.7078809999999862
                },
                {
                    "name": "G4",
                    "midi": 67,
                    "time": 468.6172220000011,
                    "velocity": 0.28346456692913385,
                    "duration": 0.7078809999999862
                },
                {
                    "name": "F3",
                    "midi": 53,
                    "time": 470.0329840000011,
                    "velocity": 0.2992125984251969,
                    "duration": 0.35394050000002153
                },
                {
                    "name": "C4",
                    "midi": 60,
                    "time": 470.3869245000011,
                    "velocity": 0.2440944881889764,
                    "duration": 0.35394050000002153
                },
                {
                    "name": "A3",
                    "midi": 57,
                    "time": 470.7408650000011,
                    "velocity": 0.28346456692913385,
                    "duration": 0.35394050000002153
                },
                {
                    "name": "C4",
                    "midi": 60,
                    "time": 471.09480550000114,
                    "velocity": 0.2440944881889764,
                    "duration": 0.35394050000002153
                },
                {
                    "name": "D#3",
                    "midi": 51,
                    "time": 471.44874600000117,
                    "velocity": 0.2992125984251969,
                    "duration": 0.35394050000002153
                },
                {
                    "name": "C4",
                    "midi": 60,
                    "time": 471.8026865000012,
                    "velocity": 0.25984251968503935,
                    "duration": 0.35394050000002153
                },
                {
                    "name": "F3",
                    "midi": 53,
                    "time": 472.1566270000012,
                    "velocity": 0.28346456692913385,
                    "duration": 0.35394050000002153
                },
                {
                    "name": "C4",
                    "midi": 60,
                    "time": 472.51056750000123,
                    "velocity": 0.25196850393700787,
                    "duration": 0.35394050000002153
                },
                {
                    "name": "D3",
                    "midi": 50,
                    "time": 472.86450800000125,
                    "velocity": 0.31496062992125984,
                    "duration": 0.35394050000002153
                },
                {
                    "name": "A#3",
                    "midi": 58,
                    "time": 473.2184485000013,
                    "velocity": 0.2440944881889764,
                    "duration": 0.35394050000002153
                },
                {
                    "name": "F3",
                    "midi": 53,
                    "time": 473.5900860250013,
                    "velocity": 0.28346456692913385,
                    "duration": 0.35394050000002153
                },
                {
                    "name": "A#3",
                    "midi": 58,
                    "time": 473.9263295000013,
                    "velocity": 0.2440944881889764,
                    "duration": 0.35394050000002153
                },
                {
                    "name": "G#3",
                    "midi": 56,
                    "time": 474.28027000000134,
                    "velocity": 0.31496062992125984,
                    "duration": 0.35394050000002153
                },
                {
                    "name": "F4",
                    "midi": 65,
                    "time": 474.63421050000136,
                    "velocity": 0.25984251968503935,
                    "duration": 0.35394050000002153
                },
                {
                    "name": "A#3",
                    "midi": 58,
                    "time": 474.9881510000014,
                    "velocity": 0.28346456692913385,
                    "duration": 0.35394050000002153
                },
                {
                    "name": "F4",
                    "midi": 65,
                    "time": 475.3420915000014,
                    "velocity": 0.25196850393700787,
                    "duration": 0.35394050000002153
                },
                {
                    "name": "D#4",
                    "midi": 63,
                    "time": 475.6960320000014,
                    "velocity": 0.28346456692913385,
                    "duration": 0.7078809999999862
                },
                {
                    "name": "G3",
                    "midi": 55,
                    "time": 475.6960320000014,
                    "velocity": 0.23622047244094488,
                    "duration": 0.7078809999999862
                },
                {
                    "name": "C4",
                    "midi": 60,
                    "time": 476.4039130000014,
                    "velocity": 0.25196850393700787,
                    "duration": 0.7078809999999862
                },
                {
                    "name": "G#3",
                    "midi": 56,
                    "time": 476.4039130000014,
                    "velocity": 0.2125984251968504,
                    "duration": 0.7078809999999862
                },
                {
                    "name": "A#2",
                    "midi": 46,
                    "time": 477.1117940000014,
                    "velocity": 0.23622047244094488,
                    "duration": 0.7078809999999862
                },
                {
                    "name": "G3",
                    "midi": 55,
                    "time": 477.1117940000014,
                    "velocity": 0.28346456692913385,
                    "duration": 0.7078809999999862
                },
                {
                    "name": "A#2",
                    "midi": 46,
                    "time": 477.8196750000014,
                    "velocity": 0.2125984251968504,
                    "duration": 0.7078809999999862
                },
                {
                    "name": "F3",
                    "midi": 53,
                    "time": 477.840321529168,
                    "velocity": 0.25196850393700787,
                    "duration": 0.7078809999999862
                },
                {
                    "name": "D#3",
                    "midi": 51,
                    "time": 478.52755600000137,
                    "velocity": 0.31496062992125984,
                    "duration": 0.3539404999999647
                },
                {
                    "name": "G3",
                    "midi": 55,
                    "time": 478.88149650000133,
                    "velocity": 0.28346456692913385,
                    "duration": 0.35394050000002153
                },
                {
                    "name": "A#3",
                    "midi": 58,
                    "time": 479.23543700000135,
                    "velocity": 0.30708661417322836,
                    "duration": 0.17697025000001076
                },
                {
                    "name": "A#3",
                    "midi": 58,
                    "time": 479.5893775000014,
                    "velocity": 0.28346456692913385,
                    "duration": 0.17697025000001076
                },
                {
                    "name": "A#3",
                    "midi": 58,
                    "time": 479.96396452916804,
                    "velocity": 0.31496062992125984,
                    "duration": 0.7078809999999862
                },
                {
                    "name": "D#4",
                    "midi": 63,
                    "time": 481.35908000000137,
                    "velocity": 0.29133858267716534,
                    "duration": 0.35394050000002153
                },
                {
                    "name": "G4",
                    "midi": 67,
                    "time": 481.7130205000014,
                    "velocity": 0.25984251968503935,
                    "duration": 0.35394050000002153
                },
                {
                    "name": "A#4",
                    "midi": 70,
                    "time": 482.0669610000014,
                    "velocity": 0.29133858267716534,
                    "duration": 0.17697025000001076
                },
                {
                    "name": "A#4",
                    "midi": 70,
                    "time": 482.42090150000143,
                    "velocity": 0.25984251968503935,
                    "duration": 0.17697025000001076
                },
                {
                    "name": "A#4",
                    "midi": 70,
                    "time": 482.7954885291681,
                    "velocity": 0.2992125984251969,
                    "duration": 0.7078809999999862
                },
                {
                    "name": "D#2",
                    "midi": 39,
                    "time": 484.19060400000143,
                    "velocity": 0.28346456692913385,
                    "duration": 0.35394050000002153
                },
                {
                    "name": "G2",
                    "midi": 43,
                    "time": 484.54454450000145,
                    "velocity": 0.2440944881889764,
                    "duration": 0.35394050000002153
                },
                {
                    "name": "A#2",
                    "midi": 46,
                    "time": 484.8984850000015,
                    "velocity": 0.28346456692913385,
                    "duration": 0.17697025000001076
                },
                {
                    "name": "A#2",
                    "midi": 46,
                    "time": 485.2524255000015,
                    "velocity": 0.25984251968503935,
                    "duration": 0.17697025000001076
                },
                {
                    "name": "A#2",
                    "midi": 46,
                    "time": 485.62701252916816,
                    "velocity": 0.29133858267716534,
                    "duration": 0.7078809999999862
                },
                {
                    "name": "A#1",
                    "midi": 34,
                    "time": 487.0221280000015,
                    "velocity": 0.1968503937007874,
                    "duration": 2.8315240000000017
                },
                {
                    "name": "A#2",
                    "midi": 46,
                    "time": 487.0221280000015,
                    "velocity": 0.23622047244094488,
                    "duration": 2.8315240000000017
                },
                {
                    "name": "D#2",
                    "midi": 39,
                    "time": 489.8536520000015,
                    "velocity": 0.2125984251968504,
                    "duration": 0.7078809999999862
                }
            ],
            "controlChanges": {},
            "id": 2,
            "name": "Piano left",
            "instrumentNumber": 0,
            "instrument": "acoustic grand piano",
            "instrumentFamily": "piano",
            "channelNumber": 0,
            "isPercussion": false
        },
        {
            "startTime": 0,
            "duration": 0,
            "length": 0,
            "notes": [],
            "controlChanges": {
                "64": [
                    {
                        "number": 64,
                        "time": 0,
                        "value": 1
                    },
                    {
                        "number": 64,
                        "time": 2.1472390333333333,
                        "value": 0
                    },
                    {
                        "number": 64,
                        "time": 2.4156439125,
                        "value": 1
                    },
                    {
                        "number": 64,
                        "time": 2.8610190416666668,
                        "value": 0
                    },
                    {
                        "number": 64,
                        "time": 3.580698058333333,
                        "value": 1
                    },
                    {
                        "number": 64,
                        "time": 4.9640155125,
                        "value": 0
                    },
                    {
                        "number": 64,
                        "time": 5.247167912499999,
                        "value": 1
                    },
                    {
                        "number": 64,
                        "time": 5.686644033333333,
                        "value": 0
                    },
                    {
                        "number": 64,
                        "time": 5.848866762499999,
                        "value": 1
                    },
                    {
                        "number": 64,
                        "time": 6.397474537499999,
                        "value": 0
                    },
                    {
                        "number": 64,
                        "time": 6.574444787499999,
                        "value": 1
                    },
                    {
                        "number": 64,
                        "time": 7.102406033333333,
                        "value": 0
                    },
                    {
                        "number": 64,
                        "time": 7.264628762499999,
                        "value": 1
                    },
                    {
                        "number": 64,
                        "time": 7.813236537499999,
                        "value": 0
                    },
                    {
                        "number": 64,
                        "time": 8.007903812499999,
                        "value": 1
                    },
                    {
                        "number": 64,
                        "time": 8.494571999999998,
                        "value": 0
                    },
                    {
                        "number": 64,
                        "time": 8.698087787499999,
                        "value": 1
                    },
                    {
                        "number": 64,
                        "time": 9.939829041666666,
                        "value": 0
                    },
                    {
                        "number": 64,
                        "time": 11.482419720833333,
                        "value": 1
                    },
                    {
                        "number": 64,
                        "time": 13.470385529166666,
                        "value": 0
                    },
                    {
                        "number": 64,
                        "time": 13.597214208333334,
                        "value": 1
                    },
                    {
                        "number": 64,
                        "time": 14.178266529166667,
                        "value": 0
                    },
                    {
                        "number": 64,
                        "time": 17.142518216666666,
                        "value": 1
                    },
                    {
                        "number": 64,
                        "time": 17.7058735125,
                        "value": 0
                    },
                    {
                        "number": 64,
                        "time": 18.68510889583333,
                        "value": 1
                    },
                    {
                        "number": 64,
                        "time": 19.139332537499996,
                        "value": 0
                    },
                    {
                        "number": 64,
                        "time": 19.956345191666664,
                        "value": 1
                    },
                    {
                        "number": 64,
                        "time": 21.26002603333333,
                        "value": 0
                    },
                    {
                        "number": 64,
                        "time": 22.652191999999996,
                        "value": 1
                    },
                    {
                        "number": 64,
                        "time": 24.799431033333327,
                        "value": 0
                    },
                    {
                        "number": 64,
                        "time": 25.067835912499994,
                        "value": 1
                    },
                    {
                        "number": 64,
                        "time": 25.51321104166666,
                        "value": 0
                    },
                    {
                        "number": 64,
                        "time": 26.23289005833333,
                        "value": 1
                    },
                    {
                        "number": 64,
                        "time": 27.616207512499994,
                        "value": 0
                    },
                    {
                        "number": 64,
                        "time": 27.899359912499992,
                        "value": 1
                    },
                    {
                        "number": 64,
                        "time": 28.338836033333326,
                        "value": 0
                    },
                    {
                        "number": 64,
                        "time": 28.501058762499994,
                        "value": 1
                    },
                    {
                        "number": 64,
                        "time": 29.049666537499995,
                        "value": 0
                    },
                    {
                        "number": 64,
                        "time": 29.226636787499995,
                        "value": 1
                    },
                    {
                        "number": 64,
                        "time": 29.754598033333327,
                        "value": 0
                    },
                    {
                        "number": 64,
                        "time": 29.916820762499995,
                        "value": 1
                    },
                    {
                        "number": 64,
                        "time": 30.465428537499996,
                        "value": 0
                    },
                    {
                        "number": 64,
                        "time": 30.660095812499996,
                        "value": 1
                    },
                    {
                        "number": 64,
                        "time": 31.146763999999997,
                        "value": 0
                    },
                    {
                        "number": 64,
                        "time": 31.350279787499996,
                        "value": 1
                    },
                    {
                        "number": 64,
                        "time": 32.59202104166666,
                        "value": 0
                    },
                    {
                        "number": 64,
                        "time": 34.13461172083333,
                        "value": 1
                    },
                    {
                        "number": 64,
                        "time": 36.12257752916666,
                        "value": 0
                    },
                    {
                        "number": 64,
                        "time": 36.249406208333326,
                        "value": 1
                    },
                    {
                        "number": 64,
                        "time": 36.83045852916666,
                        "value": 0
                    },
                    {
                        "number": 64,
                        "time": 39.794710216666665,
                        "value": 1
                    },
                    {
                        "number": 64,
                        "time": 40.3580655125,
                        "value": 0
                    },
                    {
                        "number": 64,
                        "time": 41.33730089583333,
                        "value": 1
                    },
                    {
                        "number": 64,
                        "time": 41.791524537499996,
                        "value": 0
                    },
                    {
                        "number": 64,
                        "time": 42.60853719166666,
                        "value": 1
                    },
                    {
                        "number": 64,
                        "time": 43.91221803333333,
                        "value": 0
                    },
                    {
                        "number": 64,
                        "time": 45.322081024999996,
                        "value": 1
                    },
                    {
                        "number": 64,
                        "time": 46.758489554166665,
                        "value": 0
                    },
                    {
                        "number": 64,
                        "time": 46.99150038333333,
                        "value": 1
                    },
                    {
                        "number": 64,
                        "time": 48.221443620833334,
                        "value": 0
                    },
                    {
                        "number": 64,
                        "time": 48.40726238333333,
                        "value": 1
                    },
                    {
                        "number": 64,
                        "time": 49.58706405,
                        "value": 0
                    },
                    {
                        "number": 64,
                        "time": 56.63048,
                        "value": 1
                    },
                    {
                        "number": 64,
                        "time": 58.078686545833335,
                        "value": 0
                    },
                    {
                        "number": 64,
                        "time": 58.38543497916667,
                        "value": 1
                    },
                    {
                        "number": 64,
                        "time": 59.49739805,
                        "value": 0
                    },
                    {
                        "number": 64,
                        "time": 59.901480120833334,
                        "value": 1
                    },
                    {
                        "number": 64,
                        "time": 60.907261041666665,
                        "value": 0
                    },
                    {
                        "number": 64,
                        "time": 61.48536385833333,
                        "value": 1
                    },
                    {
                        "number": 64,
                        "time": 62.293527999999995,
                        "value": 0
                    },
                    {
                        "number": 64,
                        "time": 62.44100320833333,
                        "value": 1
                    },
                    {
                        "number": 64,
                        "time": 63.735835537499995,
                        "value": 0
                    },
                    {
                        "number": 64,
                        "time": 63.83611867916666,
                        "value": 1
                    },
                    {
                        "number": 64,
                        "time": 65.15454704166666,
                        "value": 0
                    },
                    {
                        "number": 64,
                        "time": 65.35511332499999,
                        "value": 1
                    },
                    {
                        "number": 64,
                        "time": 66.57325854583333,
                        "value": 0
                    },
                    {
                        "number": 64,
                        "time": 67.956576,
                        "value": 1
                    },
                    {
                        "number": 64,
                        "time": 70.10381503333333,
                        "value": 0
                    },
                    {
                        "number": 64,
                        "time": 70.3722199125,
                        "value": 1
                    },
                    {
                        "number": 64,
                        "time": 70.81759504166666,
                        "value": 0
                    },
                    {
                        "number": 64,
                        "time": 71.53727405833332,
                        "value": 1
                    },
                    {
                        "number": 64,
                        "time": 72.9205915125,
                        "value": 0
                    },
                    {
                        "number": 64,
                        "time": 73.2037439125,
                        "value": 1
                    },
                    {
                        "number": 64,
                        "time": 73.64322003333334,
                        "value": 0
                    },
                    {
                        "number": 64,
                        "time": 73.80544276250001,
                        "value": 1
                    },
                    {
                        "number": 64,
                        "time": 74.3540505375,
                        "value": 0
                    },
                    {
                        "number": 64,
                        "time": 74.5310207875,
                        "value": 1
                    },
                    {
                        "number": 64,
                        "time": 75.05898203333334,
                        "value": 0
                    },
                    {
                        "number": 64,
                        "time": 75.22120476250001,
                        "value": 1
                    },
                    {
                        "number": 64,
                        "time": 75.7698125375,
                        "value": 0
                    },
                    {
                        "number": 64,
                        "time": 75.9644798125,
                        "value": 1
                    },
                    {
                        "number": 64,
                        "time": 76.451148,
                        "value": 0
                    },
                    {
                        "number": 64,
                        "time": 76.6546637875,
                        "value": 1
                    },
                    {
                        "number": 64,
                        "time": 77.89640504166667,
                        "value": 0
                    },
                    {
                        "number": 64,
                        "time": 79.43899572083333,
                        "value": 1
                    },
                    {
                        "number": 64,
                        "time": 81.42696152916666,
                        "value": 0
                    },
                    {
                        "number": 64,
                        "time": 81.55379020833333,
                        "value": 1
                    },
                    {
                        "number": 64,
                        "time": 82.13484252916666,
                        "value": 0
                    },
                    {
                        "number": 64,
                        "time": 85.12269024999999,
                        "value": 1
                    },
                    {
                        "number": 64,
                        "time": 85.66244951249999,
                        "value": 0
                    },
                    {
                        "number": 64,
                        "time": 86.63283638333333,
                        "value": 1
                    },
                    {
                        "number": 64,
                        "time": 87.0959085375,
                        "value": 0
                    },
                    {
                        "number": 64,
                        "time": 88.1223359875,
                        "value": 1
                    },
                    {
                        "number": 64,
                        "time": 89.21660203333333,
                        "value": 0
                    },
                    {
                        "number": 64,
                        "time": 90.626465025,
                        "value": 1
                    },
                    {
                        "number": 64,
                        "time": 92.06287355416667,
                        "value": 0
                    },
                    {
                        "number": 64,
                        "time": 92.29588438333334,
                        "value": 1
                    },
                    {
                        "number": 64,
                        "time": 93.52582762083334,
                        "value": 0
                    },
                    {
                        "number": 64,
                        "time": 93.71164638333335,
                        "value": 1
                    },
                    {
                        "number": 64,
                        "time": 94.89144805000001,
                        "value": 0
                    },
                    {
                        "number": 64,
                        "time": 101.934864,
                        "value": 1
                    },
                    {
                        "number": 64,
                        "time": 103.38307054583333,
                        "value": 0
                    },
                    {
                        "number": 64,
                        "time": 103.68981897916667,
                        "value": 1
                    },
                    {
                        "number": 64,
                        "time": 104.80178205000001,
                        "value": 0
                    },
                    {
                        "number": 64,
                        "time": 105.20586412083335,
                        "value": 1
                    },
                    {
                        "number": 64,
                        "time": 106.21164504166669,
                        "value": 0
                    },
                    {
                        "number": 64,
                        "time": 106.78974785833336,
                        "value": 1
                    },
                    {
                        "number": 64,
                        "time": 107.59791200000002,
                        "value": 0
                    },
                    {
                        "number": 64,
                        "time": 107.74538720833336,
                        "value": 1
                    },
                    {
                        "number": 64,
                        "time": 109.04021953750002,
                        "value": 0
                    },
                    {
                        "number": 64,
                        "time": 109.14050267916669,
                        "value": 1
                    },
                    {
                        "number": 64,
                        "time": 110.45893104166669,
                        "value": 0
                    },
                    {
                        "number": 64,
                        "time": 110.65949732500002,
                        "value": 1
                    },
                    {
                        "number": 64,
                        "time": 111.87764254583335,
                        "value": 0
                    },
                    {
                        "number": 64,
                        "time": 113.26096000000003,
                        "value": 1
                    },
                    {
                        "number": 64,
                        "time": 115.40819903333336,
                        "value": 0
                    },
                    {
                        "number": 64,
                        "time": 115.67660391250003,
                        "value": 1
                    },
                    {
                        "number": 64,
                        "time": 116.12197904166669,
                        "value": 0
                    },
                    {
                        "number": 64,
                        "time": 116.84165805833335,
                        "value": 1
                    },
                    {
                        "number": 64,
                        "time": 118.22497551250002,
                        "value": 0
                    },
                    {
                        "number": 64,
                        "time": 118.50812791250003,
                        "value": 1
                    },
                    {
                        "number": 64,
                        "time": 118.94760403333336,
                        "value": 0
                    },
                    {
                        "number": 64,
                        "time": 119.10982676250003,
                        "value": 1
                    },
                    {
                        "number": 64,
                        "time": 119.65843453750003,
                        "value": 0
                    },
                    {
                        "number": 64,
                        "time": 119.83540478750002,
                        "value": 1
                    },
                    {
                        "number": 64,
                        "time": 120.36336603333336,
                        "value": 0
                    },
                    {
                        "number": 64,
                        "time": 120.52558876250004,
                        "value": 1
                    },
                    {
                        "number": 64,
                        "time": 121.07419653750003,
                        "value": 0
                    },
                    {
                        "number": 64,
                        "time": 121.26886381250003,
                        "value": 1
                    },
                    {
                        "number": 64,
                        "time": 121.75553200000003,
                        "value": 0
                    },
                    {
                        "number": 64,
                        "time": 121.95904778750003,
                        "value": 1
                    },
                    {
                        "number": 64,
                        "time": 123.2007890416667,
                        "value": 0
                    },
                    {
                        "number": 64,
                        "time": 124.74337972083336,
                        "value": 1
                    },
                    {
                        "number": 64,
                        "time": 126.73134552916669,
                        "value": 0
                    },
                    {
                        "number": 64,
                        "time": 126.85817420833335,
                        "value": 1
                    },
                    {
                        "number": 64,
                        "time": 127.43922652916669,
                        "value": 0
                    },
                    {
                        "number": 64,
                        "time": 130.4123267291667,
                        "value": 1
                    },
                    {
                        "number": 64,
                        "time": 130.96683351250002,
                        "value": 0
                    },
                    {
                        "number": 64,
                        "time": 131.83398773750002,
                        "value": 1
                    },
                    {
                        "number": 64,
                        "time": 132.40029253750004,
                        "value": 0
                    },
                    {
                        "number": 64,
                        "time": 133.2173051916667,
                        "value": 1
                    },
                    {
                        "number": 64,
                        "time": 134.52098603333337,
                        "value": 0
                    },
                    {
                        "number": 64,
                        "time": 135.91315200000003,
                        "value": 1
                    },
                    {
                        "number": 64,
                        "time": 137.3495605291667,
                        "value": 0
                    },
                    {
                        "number": 64,
                        "time": 137.4822882166667,
                        "value": 1
                    },
                    {
                        "number": 64,
                        "time": 138.05154252083335,
                        "value": 0
                    },
                    {
                        "number": 64,
                        "time": 138.17247219166669,
                        "value": 1
                    },
                    {
                        "number": 64,
                        "time": 138.64439285833336,
                        "value": 0
                    },
                    {
                        "number": 64,
                        "time": 138.83021162083335,
                        "value": 1
                    },
                    {
                        "number": 64,
                        "time": 140.19288254583336,
                        "value": 0
                    },
                    {
                        "number": 64,
                        "time": 140.3639537875,
                        "value": 1
                    },
                    {
                        "number": 64,
                        "time": 140.90076354583334,
                        "value": 0
                    },
                    {
                        "number": 64,
                        "time": 141.0718347875,
                        "value": 1
                    },
                    {
                        "number": 64,
                        "time": 141.5762,
                        "value": 0
                    },
                    {
                        "number": 64,
                        "time": 143.01555803333332,
                        "value": 0
                    },
                    {
                        "number": 64,
                        "time": 143.2131748125,
                        "value": 1
                    },
                    {
                        "number": 64,
                        "time": 143.37539754166667,
                        "value": 0
                    },
                    {
                        "number": 64,
                        "time": 143.93580333333333,
                        "value": 1
                    },
                    {
                        "number": 64,
                        "time": 144.10097556666665,
                        "value": 0
                    },
                    {
                        "number": 64,
                        "time": 144.67907838333332,
                        "value": 1
                    },
                    {
                        "number": 64,
                        "time": 145.2011406208333,
                        "value": 0
                    },
                    {
                        "number": 64,
                        "time": 147.37492519166665,
                        "value": 1
                    },
                    {
                        "number": 64,
                        "time": 148.6963030583333,
                        "value": 0
                    },
                    {
                        "number": 64,
                        "time": 148.92636438333332,
                        "value": 1
                    },
                    {
                        "number": 64,
                        "time": 149.3894365375,
                        "value": 0
                    },
                    {
                        "number": 64,
                        "time": 149.64899290416665,
                        "value": 1
                    },
                    {
                        "number": 64,
                        "time": 150.12091357083332,
                        "value": 0
                    },
                    {
                        "number": 64,
                        "time": 150.40996497916666,
                        "value": 1
                    },
                    {
                        "number": 64,
                        "time": 151.51897854583333,
                        "value": 0
                    },
                    {
                        "number": 64,
                        "time": 151.63990821666667,
                        "value": 1
                    },
                    {
                        "number": 64,
                        "time": 152.22980905,
                        "value": 0
                    },
                    {
                        "number": 64,
                        "time": 152.43037533333333,
                        "value": 1
                    },
                    {
                        "number": 64,
                        "time": 152.902296,
                        "value": 0
                    },
                    {
                        "number": 64,
                        "time": 153.0881147625,
                        "value": 1
                    },
                    {
                        "number": 64,
                        "time": 153.62492452083333,
                        "value": 0
                    },
                    {
                        "number": 64,
                        "time": 153.8136927875,
                        "value": 1
                    },
                    {
                        "number": 64,
                        "time": 154.35345205000002,
                        "value": 0
                    },
                    {
                        "number": 64,
                        "time": 154.50387676250003,
                        "value": 1
                    },
                    {
                        "number": 64,
                        "time": 155.06133305000003,
                        "value": 0
                    },
                    {
                        "number": 64,
                        "time": 155.26189933333336,
                        "value": 1
                    },
                    {
                        "number": 64,
                        "time": 155.7633150416667,
                        "value": 0
                    },
                    {
                        "number": 64,
                        "time": 158.72461722500003,
                        "value": 1
                    },
                    {
                        "number": 64,
                        "time": 160.0017525291667,
                        "value": 0
                    },
                    {
                        "number": 64,
                        "time": 160.1344802166667,
                        "value": 1
                    },
                    {
                        "number": 64,
                        "time": 160.70373452083336,
                        "value": 0
                    },
                    {
                        "number": 64,
                        "time": 160.8246641916667,
                        "value": 1
                    },
                    {
                        "number": 64,
                        "time": 161.29658485833338,
                        "value": 0
                    },
                    {
                        "number": 64,
                        "time": 161.48240362083337,
                        "value": 1
                    },
                    {
                        "number": 64,
                        "time": 162.84507454583337,
                        "value": 0
                    },
                    {
                        "number": 64,
                        "time": 163.01614578750002,
                        "value": 1
                    },
                    {
                        "number": 64,
                        "time": 163.55295554583336,
                        "value": 0
                    },
                    {
                        "number": 64,
                        "time": 163.7240267875,
                        "value": 1
                    },
                    {
                        "number": 64,
                        "time": 164.228392,
                        "value": 0
                    },
                    {
                        "number": 64,
                        "time": 165.66775003333333,
                        "value": 0
                    },
                    {
                        "number": 64,
                        "time": 165.8653668125,
                        "value": 1
                    },
                    {
                        "number": 64,
                        "time": 166.03938755833335,
                        "value": 0
                    },
                    {
                        "number": 64,
                        "time": 166.58799533333334,
                        "value": 1
                    },
                    {
                        "number": 64,
                        "time": 166.74431905416668,
                        "value": 0
                    },
                    {
                        "number": 64,
                        "time": 167.33127038333336,
                        "value": 1
                    },
                    {
                        "number": 64,
                        "time": 167.85333262083336,
                        "value": 0
                    },
                    {
                        "number": 64,
                        "time": 170.0271171916667,
                        "value": 1
                    },
                    {
                        "number": 64,
                        "time": 171.34849505833336,
                        "value": 0
                    },
                    {
                        "number": 64,
                        "time": 171.57855638333336,
                        "value": 1
                    },
                    {
                        "number": 64,
                        "time": 172.04162853750003,
                        "value": 0
                    },
                    {
                        "number": 64,
                        "time": 172.3011849041667,
                        "value": 1
                    },
                    {
                        "number": 64,
                        "time": 172.77310557083337,
                        "value": 0
                    },
                    {
                        "number": 64,
                        "time": 173.0621569791667,
                        "value": 1
                    },
                    {
                        "number": 64,
                        "time": 174.17117054583338,
                        "value": 0
                    },
                    {
                        "number": 64,
                        "time": 174.2921002166667,
                        "value": 1
                    },
                    {
                        "number": 64,
                        "time": 174.88200105000004,
                        "value": 0
                    },
                    {
                        "number": 64,
                        "time": 175.08256733333337,
                        "value": 1
                    },
                    {
                        "number": 64,
                        "time": 175.55448800000005,
                        "value": 0
                    },
                    {
                        "number": 64,
                        "time": 175.74030676250004,
                        "value": 1
                    },
                    {
                        "number": 64,
                        "time": 176.27711652083337,
                        "value": 0
                    },
                    {
                        "number": 64,
                        "time": 176.46588478750004,
                        "value": 1
                    },
                    {
                        "number": 64,
                        "time": 177.00564405000006,
                        "value": 0
                    },
                    {
                        "number": 64,
                        "time": 177.15606876250007,
                        "value": 1
                    },
                    {
                        "number": 64,
                        "time": 177.71352505000007,
                        "value": 0
                    },
                    {
                        "number": 64,
                        "time": 177.9140913333334,
                        "value": 1
                    },
                    {
                        "number": 64,
                        "time": 178.41550704166673,
                        "value": 0
                    },
                    {
                        "number": 64,
                        "time": 181.37680922500007,
                        "value": 1
                    },
                    {
                        "number": 64,
                        "time": 182.65394452916675,
                        "value": 0
                    },
                    {
                        "number": 64,
                        "time": 182.78667221666674,
                        "value": 1
                    },
                    {
                        "number": 64,
                        "time": 184.07855504166673,
                        "value": 0
                    },
                    {
                        "number": 64,
                        "time": 184.1876866958334,
                        "value": 1
                    },
                    {
                        "number": 64,
                        "time": 185.4972665458334,
                        "value": 0
                    },
                    {
                        "number": 64,
                        "time": 185.6683377875001,
                        "value": 1
                    },
                    {
                        "number": 64,
                        "time": 186.20514754583343,
                        "value": 0
                    },
                    {
                        "number": 64,
                        "time": 186.37621878750008,
                        "value": 1
                    },
                    {
                        "number": 64,
                        "time": 186.8894325125001,
                        "value": 0
                    },
                    {
                        "number": 64,
                        "time": 187.06345325833342,
                        "value": 1
                    },
                    {
                        "number": 64,
                        "time": 188.31699252916675,
                        "value": 0
                    },
                    {
                        "number": 64,
                        "time": 188.44972021666675,
                        "value": 1
                    },
                    {
                        "number": 64,
                        "time": 189.73865353750008,
                        "value": 0
                    },
                    {
                        "number": 64,
                        "time": 189.90087626666676,
                        "value": 1
                    },
                    {
                        "number": 64,
                        "time": 191.16031454583342,
                        "value": 0
                    },
                    {
                        "number": 64,
                        "time": 191.3313857875001,
                        "value": 1
                    },
                    {
                        "number": 64,
                        "time": 191.86819554583343,
                        "value": 0
                    },
                    {
                        "number": 64,
                        "time": 192.03926678750008,
                        "value": 1
                    },
                    {
                        "number": 64,
                        "time": 192.57607654583342,
                        "value": 0
                    },
                    {
                        "number": 64,
                        "time": 194.00068705833343,
                        "value": 0
                    },
                    {
                        "number": 64,
                        "time": 194.16585929166675,
                        "value": 1
                    },
                    {
                        "number": 64,
                        "time": 195.4252975708334,
                        "value": 0
                    },
                    {
                        "number": 64,
                        "time": 196.82336254583342,
                        "value": 0
                    },
                    {
                        "number": 64,
                        "time": 196.94429221666675,
                        "value": 1
                    },
                    {
                        "number": 64,
                        "time": 198.2066800000001,
                        "value": 0
                    },
                    {
                        "number": 64,
                        "time": 204.0290012250001,
                        "value": 1
                    },
                    {
                        "number": 64,
                        "time": 205.30613652916676,
                        "value": 0
                    },
                    {
                        "number": 64,
                        "time": 205.43886421666676,
                        "value": 1
                    },
                    {
                        "number": 64,
                        "time": 206.00811852083342,
                        "value": 0
                    },
                    {
                        "number": 64,
                        "time": 206.12904819166675,
                        "value": 1
                    },
                    {
                        "number": 64,
                        "time": 206.60096885833343,
                        "value": 0
                    },
                    {
                        "number": 64,
                        "time": 206.78678762083342,
                        "value": 1
                    },
                    {
                        "number": 64,
                        "time": 208.14945854583343,
                        "value": 0
                    },
                    {
                        "number": 64,
                        "time": 208.3205297875001,
                        "value": 1
                    },
                    {
                        "number": 64,
                        "time": 208.85733954583344,
                        "value": 0
                    },
                    {
                        "number": 64,
                        "time": 209.0284107875001,
                        "value": 1
                    },
                    {
                        "number": 64,
                        "time": 209.5327760000001,
                        "value": 0
                    },
                    {
                        "number": 64,
                        "time": 210.97213403333342,
                        "value": 0
                    },
                    {
                        "number": 64,
                        "time": 211.1697508125001,
                        "value": 1
                    },
                    {
                        "number": 64,
                        "time": 211.3555695750001,
                        "value": 0
                    },
                    {
                        "number": 64,
                        "time": 211.89237933333342,
                        "value": 1
                    },
                    {
                        "number": 64,
                        "time": 212.06640007916675,
                        "value": 0
                    },
                    {
                        "number": 64,
                        "time": 212.63565438333342,
                        "value": 1
                    },
                    {
                        "number": 64,
                        "time": 213.1577166208334,
                        "value": 0
                    },
                    {
                        "number": 64,
                        "time": 215.4494813583334,
                        "value": 1
                    },
                    {
                        "number": 64,
                        "time": 216.6528790583334,
                        "value": 0
                    },
                    {
                        "number": 64,
                        "time": 216.88294038333342,
                        "value": 1
                    },
                    {
                        "number": 64,
                        "time": 217.3460125375001,
                        "value": 0
                    },
                    {
                        "number": 64,
                        "time": 217.60556890416674,
                        "value": 1
                    },
                    {
                        "number": 64,
                        "time": 218.07748957083342,
                        "value": 0
                    },
                    {
                        "number": 64,
                        "time": 218.36654097916676,
                        "value": 1
                    },
                    {
                        "number": 64,
                        "time": 219.47555454583343,
                        "value": 0
                    },
                    {
                        "number": 64,
                        "time": 219.59648421666677,
                        "value": 1
                    },
                    {
                        "number": 64,
                        "time": 220.1863850500001,
                        "value": 0
                    },
                    {
                        "number": 64,
                        "time": 220.38695133333343,
                        "value": 1
                    },
                    {
                        "number": 64,
                        "time": 220.8588720000001,
                        "value": 0
                    },
                    {
                        "number": 64,
                        "time": 221.0446907625001,
                        "value": 1
                    },
                    {
                        "number": 64,
                        "time": 221.58150052083343,
                        "value": 0
                    },
                    {
                        "number": 64,
                        "time": 221.7702687875001,
                        "value": 1
                    },
                    {
                        "number": 64,
                        "time": 222.3100280500001,
                        "value": 0
                    },
                    {
                        "number": 64,
                        "time": 222.46045276250013,
                        "value": 1
                    },
                    {
                        "number": 64,
                        "time": 223.01790905000013,
                        "value": 0
                    },
                    {
                        "number": 64,
                        "time": 223.21847533333346,
                        "value": 1
                    },
                    {
                        "number": 64,
                        "time": 223.71989104166678,
                        "value": 0
                    },
                    {
                        "number": 64,
                        "time": 226.68119322500013,
                        "value": 1
                    },
                    {
                        "number": 64,
                        "time": 227.9583285291668,
                        "value": 0
                    },
                    {
                        "number": 64,
                        "time": 228.0910562166668,
                        "value": 1
                    },
                    {
                        "number": 64,
                        "time": 229.3917875541668,
                        "value": 0
                    },
                    {
                        "number": 64,
                        "time": 229.55695978750012,
                        "value": 1
                    },
                    {
                        "number": 64,
                        "time": 230.80165054583344,
                        "value": 0
                    },
                    {
                        "number": 64,
                        "time": 230.97272178750012,
                        "value": 1
                    },
                    {
                        "number": 64,
                        "time": 231.50953154583345,
                        "value": 0
                    },
                    {
                        "number": 64,
                        "time": 231.6806027875001,
                        "value": 1
                    },
                    {
                        "number": 64,
                        "time": 232.19381651250012,
                        "value": 0
                    },
                    {
                        "number": 64,
                        "time": 232.36783725833345,
                        "value": 1
                    },
                    {
                        "number": 64,
                        "time": 233.62137652916678,
                        "value": 0
                    },
                    {
                        "number": 64,
                        "time": 233.75410421666678,
                        "value": 1
                    },
                    {
                        "number": 64,
                        "time": 234.91620885833345,
                        "value": 0
                    },
                    {
                        "number": 64,
                        "time": 235.10202762083344,
                        "value": 1
                    },
                    {
                        "number": 64,
                        "time": 236.46469854583344,
                        "value": 0
                    },
                    {
                        "number": 64,
                        "time": 236.63576978750012,
                        "value": 1
                    },
                    {
                        "number": 64,
                        "time": 237.17257954583346,
                        "value": 0
                    },
                    {
                        "number": 64,
                        "time": 237.3436507875001,
                        "value": 1
                    },
                    {
                        "number": 64,
                        "time": 237.88046054583344,
                        "value": 0
                    },
                    {
                        "number": 64,
                        "time": 239.30507105833345,
                        "value": 0
                    },
                    {
                        "number": 64,
                        "time": 239.47024329166678,
                        "value": 1
                    },
                    {
                        "number": 64,
                        "time": 240.72968157083343,
                        "value": 0
                    },
                    {
                        "number": 64,
                        "time": 242.12774654583345,
                        "value": 0
                    },
                    {
                        "number": 64,
                        "time": 242.24867621666678,
                        "value": 1
                    },
                    {
                        "number": 64,
                        "time": 243.51106400000012,
                        "value": 0
                    },
                    {
                        "number": 64,
                        "time": 249.44546638333344,
                        "value": 1
                    },
                    {
                        "number": 64,
                        "time": 250.61052052916676,
                        "value": 0
                    },
                    {
                        "number": 64,
                        "time": 250.74324821666676,
                        "value": 1
                    },
                    {
                        "number": 64,
                        "time": 251.31250252083342,
                        "value": 0
                    },
                    {
                        "number": 64,
                        "time": 251.43343219166675,
                        "value": 1
                    },
                    {
                        "number": 64,
                        "time": 251.90535285833343,
                        "value": 0
                    },
                    {
                        "number": 64,
                        "time": 252.09117162083342,
                        "value": 1
                    },
                    {
                        "number": 64,
                        "time": 253.45384254583342,
                        "value": 0
                    },
                    {
                        "number": 64,
                        "time": 253.62491378750008,
                        "value": 1
                    },
                    {
                        "number": 64,
                        "time": 254.1617235458334,
                        "value": 0
                    },
                    {
                        "number": 64,
                        "time": 254.33279478750006,
                        "value": 1
                    },
                    {
                        "number": 64,
                        "time": 254.83716000000007,
                        "value": 0
                    },
                    {
                        "number": 64,
                        "time": 256.2765180333334,
                        "value": 0
                    },
                    {
                        "number": 64,
                        "time": 256.47413481250004,
                        "value": 1
                    },
                    {
                        "number": 64,
                        "time": 256.65110506250005,
                        "value": 0
                    },
                    {
                        "number": 64,
                        "time": 257.19676333333337,
                        "value": 1
                    },
                    {
                        "number": 64,
                        "time": 257.367834575,
                        "value": 0
                    },
                    {
                        "number": 64,
                        "time": 257.94003838333333,
                        "value": 1
                    },
                    {
                        "number": 64,
                        "time": 258.4621006208333,
                        "value": 0
                    },
                    {
                        "number": 64,
                        "time": 260.63588519166666,
                        "value": 1
                    },
                    {
                        "number": 64,
                        "time": 261.95726305833335,
                        "value": 0
                    },
                    {
                        "number": 64,
                        "time": 262.18732438333336,
                        "value": 1
                    },
                    {
                        "number": 64,
                        "time": 262.6503965375,
                        "value": 0
                    },
                    {
                        "number": 64,
                        "time": 262.9099529041667,
                        "value": 1
                    },
                    {
                        "number": 64,
                        "time": 263.38187357083336,
                        "value": 0
                    },
                    {
                        "number": 64,
                        "time": 263.67092497916667,
                        "value": 1
                    },
                    {
                        "number": 64,
                        "time": 264.7799385458333,
                        "value": 0
                    },
                    {
                        "number": 64,
                        "time": 264.90086821666665,
                        "value": 1
                    },
                    {
                        "number": 64,
                        "time": 265.49076905,
                        "value": 0
                    },
                    {
                        "number": 64,
                        "time": 265.6913353333333,
                        "value": 1
                    },
                    {
                        "number": 64,
                        "time": 266.163256,
                        "value": 0
                    },
                    {
                        "number": 64,
                        "time": 266.3490747625,
                        "value": 1
                    },
                    {
                        "number": 64,
                        "time": 266.8858845208333,
                        "value": 0
                    },
                    {
                        "number": 64,
                        "time": 267.0746527875,
                        "value": 1
                    },
                    {
                        "number": 64,
                        "time": 267.61441205,
                        "value": 0
                    },
                    {
                        "number": 64,
                        "time": 267.7648367625,
                        "value": 1
                    },
                    {
                        "number": 64,
                        "time": 268.32229305,
                        "value": 0
                    },
                    {
                        "number": 64,
                        "time": 268.5228593333333,
                        "value": 1
                    },
                    {
                        "number": 64,
                        "time": 269.02427504166667,
                        "value": 0
                    },
                    {
                        "number": 64,
                        "time": 289.06615585416665,
                        "value": 1
                    },
                    {
                        "number": 64,
                        "time": 290.96268703333334,
                        "value": 0
                    },
                    {
                        "number": 64,
                        "time": 291.2310919125,
                        "value": 1
                    },
                    {
                        "number": 64,
                        "time": 291.6764670416667,
                        "value": 0
                    },
                    {
                        "number": 64,
                        "time": 292.39614605833333,
                        "value": 1
                    },
                    {
                        "number": 64,
                        "time": 293.7794635125,
                        "value": 0
                    },
                    {
                        "number": 64,
                        "time": 294.0626159125,
                        "value": 1
                    },
                    {
                        "number": 64,
                        "time": 294.5020920333333,
                        "value": 0
                    },
                    {
                        "number": 64,
                        "time": 294.6643147625,
                        "value": 1
                    },
                    {
                        "number": 64,
                        "time": 295.2129225375,
                        "value": 0
                    },
                    {
                        "number": 64,
                        "time": 295.3898927875,
                        "value": 1
                    },
                    {
                        "number": 64,
                        "time": 295.91785403333336,
                        "value": 0
                    },
                    {
                        "number": 64,
                        "time": 296.0800767625,
                        "value": 1
                    },
                    {
                        "number": 64,
                        "time": 296.6286845375,
                        "value": 0
                    },
                    {
                        "number": 64,
                        "time": 296.8233518125,
                        "value": 1
                    },
                    {
                        "number": 64,
                        "time": 297.31002,
                        "value": 0
                    },
                    {
                        "number": 64,
                        "time": 297.5135357875,
                        "value": 1
                    },
                    {
                        "number": 64,
                        "time": 298.75527704166666,
                        "value": 0
                    },
                    {
                        "number": 64,
                        "time": 300.2978677208333,
                        "value": 1
                    },
                    {
                        "number": 64,
                        "time": 302.28583352916667,
                        "value": 0
                    },
                    {
                        "number": 64,
                        "time": 302.41266220833336,
                        "value": 1
                    },
                    {
                        "number": 64,
                        "time": 302.9937145291667,
                        "value": 0
                    },
                    {
                        "number": 64,
                        "time": 305.97271373750004,
                        "value": 1
                    },
                    {
                        "number": 64,
                        "time": 306.52132151250004,
                        "value": 0
                    },
                    {
                        "number": 64,
                        "time": 307.4917083833334,
                        "value": 1
                    },
                    {
                        "number": 64,
                        "time": 307.9547805375,
                        "value": 0
                    },
                    {
                        "number": 64,
                        "time": 308.7717931916667,
                        "value": 1
                    },
                    {
                        "number": 64,
                        "time": 310.07547403333336,
                        "value": 0
                    },
                    {
                        "number": 64,
                        "time": 311.52957958750005,
                        "value": 1
                    },
                    {
                        "number": 64,
                        "time": 312.9158465458334,
                        "value": 0
                    },
                    {
                        "number": 64,
                        "time": 313.0308772083334,
                        "value": 1
                    },
                    {
                        "number": 64,
                        "time": 314.3286590416667,
                        "value": 0
                    },
                    {
                        "number": 64,
                        "time": 314.4259926791667,
                        "value": 1
                    },
                    {
                        "number": 64,
                        "time": 315.7473705458334,
                        "value": 0
                    },
                    {
                        "number": 64,
                        "time": 315.9036942666667,
                        "value": 1
                    },
                    {
                        "number": 64,
                        "time": 317.1631325458334,
                        "value": 0
                    },
                    {
                        "number": 64,
                        "time": 317.40204238333337,
                        "value": 1
                    },
                    {
                        "number": 64,
                        "time": 318.57889454583335,
                        "value": 0
                    },
                    {
                        "number": 64,
                        "time": 319.9917070416667,
                        "value": 0
                    },
                    {
                        "number": 64,
                        "time": 320.0890406791667,
                        "value": 1
                    },
                    {
                        "number": 64,
                        "time": 321.4104185458334,
                        "value": 0
                    },
                    {
                        "number": 64,
                        "time": 321.5667422666667,
                        "value": 1
                    },
                    {
                        "number": 64,
                        "time": 322.8261805458334,
                        "value": 0
                    },
                    {
                        "number": 64,
                        "time": 323.06509038333337,
                        "value": 1
                    },
                    {
                        "number": 64,
                        "time": 324.24194254583335,
                        "value": 0
                    },
                    {
                        "number": 64,
                        "time": 324.35697320833333,
                        "value": 1
                    },
                    {
                        "number": 64,
                        "time": 324.39826626666667,
                        "value": 0
                    },
                    {
                        "number": 64,
                        "time": 325.75208867916666,
                        "value": 1
                    },
                    {
                        "number": 64,
                        "time": 327.07346654583336,
                        "value": 0
                    },
                    {
                        "number": 64,
                        "time": 327.22979026666667,
                        "value": 1
                    },
                    {
                        "number": 64,
                        "time": 327.3271239041667,
                        "value": 0
                    },
                    {
                        "number": 64,
                        "time": 328.6426027625,
                        "value": 1
                    },
                    {
                        "number": 64,
                        "time": 329.20005905,
                        "value": 0
                    },
                    {
                        "number": 64,
                        "time": 329.36818078749997,
                        "value": 1
                    },
                    {
                        "number": 64,
                        "time": 329.8224044291666,
                        "value": 0
                    },
                    {
                        "number": 64,
                        "time": 330.05836476249993,
                        "value": 1
                    },
                    {
                        "number": 64,
                        "time": 330.39460823749994,
                        "value": 0
                    },
                    {
                        "number": 64,
                        "time": 330.78394278749994,
                        "value": 1
                    },
                    {
                        "number": 64,
                        "time": 331.13788328749996,
                        "value": 0
                    },
                    {
                        "number": 64,
                        "time": 334.3705398541666,
                        "value": 1
                    },
                    {
                        "number": 64,
                        "time": 335.5680385458333,
                        "value": 0
                    },
                    {
                        "number": 64,
                        "time": 335.6830692083333,
                        "value": 1
                    },
                    {
                        "number": 64,
                        "time": 336.9808510416666,
                        "value": 0
                    },
                    {
                        "number": 64,
                        "time": 337.0781846791666,
                        "value": 1
                    },
                    {
                        "number": 64,
                        "time": 338.3995625458333,
                        "value": 0
                    },
                    {
                        "number": 64,
                        "time": 338.5558862666666,
                        "value": 1
                    },
                    {
                        "number": 64,
                        "time": 339.8153245458333,
                        "value": 0
                    },
                    {
                        "number": 64,
                        "time": 340.05423438333327,
                        "value": 1
                    },
                    {
                        "number": 64,
                        "time": 341.23108654583325,
                        "value": 0
                    },
                    {
                        "number": 64,
                        "time": 342.6438990416666,
                        "value": 0
                    },
                    {
                        "number": 64,
                        "time": 342.7412326791666,
                        "value": 1
                    },
                    {
                        "number": 64,
                        "time": 344.0626105458333,
                        "value": 0
                    },
                    {
                        "number": 64,
                        "time": 344.2189342666666,
                        "value": 1
                    },
                    {
                        "number": 64,
                        "time": 345.4783725458333,
                        "value": 0
                    },
                    {
                        "number": 64,
                        "time": 345.71728238333327,
                        "value": 1
                    },
                    {
                        "number": 64,
                        "time": 346.89413454583325,
                        "value": 0
                    },
                    {
                        "number": 64,
                        "time": 347.00916520833323,
                        "value": 1
                    },
                    {
                        "number": 64,
                        "time": 347.05045826666657,
                        "value": 0
                    },
                    {
                        "number": 64,
                        "time": 348.40428067916656,
                        "value": 1
                    },
                    {
                        "number": 64,
                        "time": 349.72565854583326,
                        "value": 0
                    },
                    {
                        "number": 64,
                        "time": 349.88198226666657,
                        "value": 1
                    },
                    {
                        "number": 64,
                        "time": 349.9793159041666,
                        "value": 0
                    },
                    {
                        "number": 64,
                        "time": 351.2947947624999,
                        "value": 1
                    },
                    {
                        "number": 64,
                        "time": 351.8522510499999,
                        "value": 0
                    },
                    {
                        "number": 64,
                        "time": 352.02037278749987,
                        "value": 1
                    },
                    {
                        "number": 64,
                        "time": 352.4745964291665,
                        "value": 0
                    },
                    {
                        "number": 64,
                        "time": 352.71055676249983,
                        "value": 1
                    },
                    {
                        "number": 64,
                        "time": 353.04680023749984,
                        "value": 0
                    },
                    {
                        "number": 64,
                        "time": 353.43613478749984,
                        "value": 1
                    },
                    {
                        "number": 64,
                        "time": 353.79007528749986,
                        "value": 0
                    },
                    {
                        "number": 64,
                        "time": 356.91065069583317,
                        "value": 1
                    },
                    {
                        "number": 64,
                        "time": 358.22023054583315,
                        "value": 0
                    },
                    {
                        "number": 64,
                        "time": 359.87490238333316,
                        "value": 1
                    },
                    {
                        "number": 64,
                        "time": 361.05175454583315,
                        "value": 0
                    },
                    {
                        "number": 64,
                        "time": 362.6031937374998,
                        "value": 1
                    },
                    {
                        "number": 64,
                        "time": 363.98651119166647,
                        "value": 0
                    },
                    {
                        "number": 64,
                        "time": 366.8770252749998,
                        "value": 1
                    },
                    {
                        "number": 64,
                        "time": 368.1276150416665,
                        "value": 0
                    },
                    {
                        "number": 64,
                        "time": 368.2839387624998,
                        "value": 1
                    },
                    {
                        "number": 64,
                        "time": 369.54632654583315,
                        "value": 0
                    },
                    {
                        "number": 64,
                        "time": 371.2009983833332,
                        "value": 1
                    },
                    {
                        "number": 64,
                        "time": 372.37785054583316,
                        "value": 0
                    },
                    {
                        "number": 64,
                        "time": 373.86440064583314,
                        "value": 1
                    },
                    {
                        "number": 64,
                        "time": 374.50149354583317,
                        "value": 0
                    },
                    {
                        "number": 64,
                        "time": 374.63717073749984,
                        "value": 1
                    },
                    {
                        "number": 64,
                        "time": 375.2182230583332,
                        "value": 0
                    },
                    {
                        "number": 64,
                        "time": 375.36274876249985,
                        "value": 1
                    },
                    {
                        "number": 64,
                        "time": 375.9172555458332,
                        "value": 0
                    },
                    {
                        "number": 64,
                        "time": 376.10602381249987,
                        "value": 1
                    },
                    {
                        "number": 64,
                        "time": 376.6251365458332,
                        "value": 0
                    },
                    {
                        "number": 64,
                        "time": 376.8787939041665,
                        "value": 1
                    },
                    {
                        "number": 64,
                        "time": 378.0497470583332,
                        "value": 0
                    },
                    {
                        "number": 64,
                        "time": 379.5628426958332,
                        "value": 1
                    },
                    {
                        "number": 64,
                        "time": 380.87242254583316,
                        "value": 0
                    },
                    {
                        "number": 64,
                        "time": 382.5270943833332,
                        "value": 1
                    },
                    {
                        "number": 64,
                        "time": 383.70394654583316,
                        "value": 0
                    },
                    {
                        "number": 64,
                        "time": 385.2553857374998,
                        "value": 1
                    },
                    {
                        "number": 64,
                        "time": 386.6387031916665,
                        "value": 0
                    },
                    {
                        "number": 64,
                        "time": 389.52921727499984,
                        "value": 1
                    },
                    {
                        "number": 64,
                        "time": 390.7798070416665,
                        "value": 0
                    },
                    {
                        "number": 64,
                        "time": 390.93613076249983,
                        "value": 1
                    },
                    {
                        "number": 64,
                        "time": 392.19851854583317,
                        "value": 0
                    },
                    {
                        "number": 64,
                        "time": 393.8531903833332,
                        "value": 1
                    },
                    {
                        "number": 64,
                        "time": 395.03004254583317,
                        "value": 0
                    },
                    {
                        "number": 64,
                        "time": 396.51659264583316,
                        "value": 1
                    },
                    {
                        "number": 64,
                        "time": 397.1536855458332,
                        "value": 0
                    },
                    {
                        "number": 64,
                        "time": 397.3277062916665,
                        "value": 1
                    },
                    {
                        "number": 64,
                        "time": 397.8704150583332,
                        "value": 0
                    },
                    {
                        "number": 64,
                        "time": 398.01494076249986,
                        "value": 1
                    },
                    {
                        "number": 64,
                        "time": 398.5694475458332,
                        "value": 0
                    },
                    {
                        "number": 64,
                        "time": 398.7582158124999,
                        "value": 1
                    },
                    {
                        "number": 64,
                        "time": 399.2773285458332,
                        "value": 0
                    },
                    {
                        "number": 64,
                        "time": 399.5309859041665,
                        "value": 1
                    },
                    {
                        "number": 64,
                        "time": 400.7019390583332,
                        "value": 0
                    },
                    {
                        "number": 64,
                        "time": 403.7281303333332,
                        "value": 1
                    },
                    {
                        "number": 64,
                        "time": 404.9433260499998,
                        "value": 0
                    },
                    {
                        "number": 64,
                        "time": 406.62749292916646,
                        "value": 1
                    },
                    {
                        "number": 64,
                        "time": 407.7394559999998,
                        "value": 0
                    },
                    {
                        "number": 64,
                        "time": 409.2879456874998,
                        "value": 1
                    },
                    {
                        "number": 64,
                        "time": 410.5709799999998,
                        "value": 0
                    },
                    {
                        "number": 64,
                        "time": 410.7567987624998,
                        "value": 1
                    },
                    {
                        "number": 64,
                        "time": 412.0221360499998,
                        "value": 0
                    },
                    {
                        "number": 64,
                        "time": 413.4025039999998,
                        "value": 0
                    },
                    {
                        "number": 64,
                        "time": 413.5883227624998,
                        "value": 1
                    },
                    {
                        "number": 64,
                        "time": 414.8536600499998,
                        "value": 0
                    },
                    {
                        "number": 64,
                        "time": 416.2340279999998,
                        "value": 0
                    },
                    {
                        "number": 64,
                        "time": 416.4198467624998,
                        "value": 1
                    },
                    {
                        "number": 64,
                        "time": 419.0655519999998,
                        "value": 0
                    },
                    {
                        "number": 64,
                        "time": 424.97930785416645,
                        "value": 1
                    },
                    {
                        "number": 64,
                        "time": 426.87583903333314,
                        "value": 0
                    },
                    {
                        "number": 64,
                        "time": 427.1442439124998,
                        "value": 1
                    },
                    {
                        "number": 64,
                        "time": 427.5896190416665,
                        "value": 0
                    },
                    {
                        "number": 64,
                        "time": 428.3092980583331,
                        "value": 1
                    },
                    {
                        "number": 64,
                        "time": 429.6926155124998,
                        "value": 0
                    },
                    {
                        "number": 64,
                        "time": 429.9757679124998,
                        "value": 1
                    },
                    {
                        "number": 64,
                        "time": 430.4152440333331,
                        "value": 0
                    },
                    {
                        "number": 64,
                        "time": 430.5774667624998,
                        "value": 1
                    },
                    {
                        "number": 64,
                        "time": 431.1260745374998,
                        "value": 0
                    },
                    {
                        "number": 64,
                        "time": 431.3030447874998,
                        "value": 1
                    },
                    {
                        "number": 64,
                        "time": 431.83100603333315,
                        "value": 0
                    },
                    {
                        "number": 64,
                        "time": 431.9932287624998,
                        "value": 1
                    },
                    {
                        "number": 64,
                        "time": 432.5418365374998,
                        "value": 0
                    },
                    {
                        "number": 64,
                        "time": 432.7365038124998,
                        "value": 1
                    },
                    {
                        "number": 64,
                        "time": 433.2231719999998,
                        "value": 0
                    },
                    {
                        "number": 64,
                        "time": 433.4266877874998,
                        "value": 1
                    },
                    {
                        "number": 64,
                        "time": 434.66842904166646,
                        "value": 0
                    },
                    {
                        "number": 64,
                        "time": 436.2110197208331,
                        "value": 1
                    },
                    {
                        "number": 64,
                        "time": 438.19898552916646,
                        "value": 0
                    },
                    {
                        "number": 64,
                        "time": 438.32581420833316,
                        "value": 1
                    },
                    {
                        "number": 64,
                        "time": 438.9068665291665,
                        "value": 0
                    },
                    {
                        "number": 64,
                        "time": 441.8445726791665,
                        "value": 1
                    },
                    {
                        "number": 64,
                        "time": 442.43447351249984,
                        "value": 0
                    },
                    {
                        "number": 64,
                        "time": 443.4048603833332,
                        "value": 1
                    },
                    {
                        "number": 64,
                        "time": 443.8679325374998,
                        "value": 0
                    },
                    {
                        "number": 64,
                        "time": 444.6849451916665,
                        "value": 1
                    },
                    {
                        "number": 64,
                        "time": 445.98862603333316,
                        "value": 0
                    },
                    {
                        "number": 64,
                        "time": 447.5076206791665,
                        "value": 1
                    },
                    {
                        "number": 64,
                        "time": 448.8289985458332,
                        "value": 0
                    },
                    {
                        "number": 64,
                        "time": 448.9440292083332,
                        "value": 1
                    },
                    {
                        "number": 64,
                        "time": 450.2418110416665,
                        "value": 0
                    },
                    {
                        "number": 64,
                        "time": 450.3391446791665,
                        "value": 1
                    },
                    {
                        "number": 64,
                        "time": 451.6605225458332,
                        "value": 0
                    },
                    {
                        "number": 64,
                        "time": 451.8168462666665,
                        "value": 1
                    },
                    {
                        "number": 64,
                        "time": 453.0644865291665,
                        "value": 0
                    },
                    {
                        "number": 64,
                        "time": 453.1706686791665,
                        "value": 1
                    },
                    {
                        "number": 64,
                        "time": 454.4920465458332,
                        "value": 0
                    },
                    {
                        "number": 64,
                        "time": 454.6070772083332,
                        "value": 1
                    },
                    {
                        "number": 64,
                        "time": 455.9048590416665,
                        "value": 0
                    },
                    {
                        "number": 64,
                        "time": 456.0021926791665,
                        "value": 1
                    },
                    {
                        "number": 64,
                        "time": 456.61568954583316,
                        "value": 0
                    },
                    {
                        "number": 64,
                        "time": 456.7602152499998,
                        "value": 1
                    },
                    {
                        "number": 64,
                        "time": 457.32357054583315,
                        "value": 0
                    },
                    {
                        "number": 64,
                        "time": 457.47989426666646,
                        "value": 1
                    },
                    {
                        "number": 64,
                        "time": 458.73638304166644,
                        "value": 0
                    },
                    {
                        "number": 64,
                        "time": 459.5003046208331,
                        "value": 1
                    },
                    {
                        "number": 64,
                        "time": 460.16099355416645,
                        "value": 0
                    },
                    {
                        "number": 64,
                        "time": 460.3084687624998,
                        "value": 1
                    },
                    {
                        "number": 64,
                        "time": 460.86592504999976,
                        "value": 0
                    },
                    {
                        "number": 64,
                        "time": 461.0841883583331,
                        "value": 1
                    },
                    {
                        "number": 64,
                        "time": 461.55905852916646,
                        "value": 0
                    },
                    {
                        "number": 64,
                        "time": 462.2816870499998,
                        "value": 1
                    },
                    {
                        "number": 64,
                        "time": 462.9836690416665,
                        "value": 0
                    },
                    {
                        "number": 64,
                        "time": 463.22552838333314,
                        "value": 1
                    },
                    {
                        "number": 64,
                        "time": 463.6974490499998,
                        "value": 0
                    },
                    {
                        "number": 64,
                        "time": 463.89801533333315,
                        "value": 1
                    },
                    {
                        "number": 64,
                        "time": 464.39058252916647,
                        "value": 0
                    },
                    {
                        "number": 64,
                        "time": 465.2134941916665,
                        "value": 1
                    },
                    {
                        "number": 64,
                        "time": 465.8151930416665,
                        "value": 0
                    },
                    {
                        "number": 64,
                        "time": 470.1509641666665,
                        "value": 1
                    },
                    {
                        "number": 64,
                        "time": 471.48119054583316,
                        "value": 0
                    },
                    {
                        "number": 64,
                        "time": 472.90580105833317,
                        "value": 0
                    },
                    {
                        "number": 64,
                        "time": 473.11816535833316,
                        "value": 1
                    },
                    {
                        "number": 64,
                        "time": 474.31271454583316,
                        "value": 0
                    },
                    {
                        "number": 64,
                        "time": 475.7048805124998,
                        "value": 0
                    },
                    {
                        "number": 64,
                        "time": 475.9467398541665,
                        "value": 1
                    },
                    {
                        "number": 64,
                        "time": 476.42455952916646,
                        "value": 0
                    },
                    {
                        "number": 64,
                        "time": 476.63397432499977,
                        "value": 1
                    },
                    {
                        "number": 64,
                        "time": 477.1353900333331,
                        "value": 0
                    },
                    {
                        "number": 64,
                        "time": 477.36250185416645,
                        "value": 1
                    },
                    {
                        "number": 64,
                        "time": 477.82852351249977,
                        "value": 0
                    },
                    {
                        "number": 64,
                        "time": 477.98779673749976,
                        "value": 1
                    },
                    {
                        "number": 64,
                        "time": 478.58949558749975,
                        "value": 0
                    },
                    {
                        "number": 64,
                        "time": 480.3709961041664,
                        "value": 1
                    },
                    {
                        "number": 64,
                        "time": 481.42101958749976,
                        "value": 0
                    },
                    {
                        "number": 64,
                        "time": 483.2025201041664,
                        "value": 1
                    },
                    {
                        "number": 64,
                        "time": 484.25254358749976,
                        "value": 0
                    },
                    {
                        "number": 64,
                        "time": 486.0340441041664,
                        "value": 1
                    },
                    {
                        "number": 64,
                        "time": 487.0516230416664,
                        "value": 0
                    },
                    {
                        "number": 64,
                        "time": 488.10459602916643,
                        "value": 1
                    },
                    {
                        "number": 64,
                        "time": 489.89199555416644,
                        "value": 0
                    },
                    {
                        "number": 64,
                        "time": 490.4789468833331,
                        "value": 1
                    },
                    {
                        "number": 64,
                        "time": 491.7295366499998,
                        "value": 0
                    }
                ]
            },
            "id": 3,
            "name": "Pedale",
            "instrumentNumber": 0,
            "instrument": "acoustic grand piano",
            "instrumentFamily": "piano",
            "channelNumber": 0,
            "isPercussion": false
        },
        {
            "startTime": 0,
            "duration": 0,
            "length": 0,
            "notes": [],
            "controlChanges": {},
            "id": 4,
            "name": "Mozart: Klaviersonate KV 570 2. Satz"
        },
        {
            "startTime": 0,
            "duration": 0,
            "length": 0,
            "notes": [],
            "controlChanges": {},
            "id": 5,
            "name": "Copyright  2006 by Bernd Krueger"
        },
        {
            "startTime": 0,
            "duration": 0,
            "length": 0,
            "notes": [],
            "controlChanges": {},
            "id": 6,
            "name": "http://www.piano-midi.de/"
        },
        {
            "startTime": 0,
            "duration": 0,
            "length": 0,
            "notes": [],
            "controlChanges": {},
            "id": 7,
            "name": "Edition: 2013-10-17"
        },
        {
            "startTime": 0,
            "duration": 0,
            "length": 0,
            "notes": [],
            "controlChanges": {},
            "id": 8,
            "name": "Spur 8"
        },
        {
            "startTime": 0,
            "duration": 0,
            "length": 0,
            "notes": [],
            "controlChanges": {},
            "id": 9,
            "name": "Spur 9"
        },
        {
            "startTime": 0,
            "duration": 0,
            "length": 0,
            "notes": [],
            "controlChanges": {},
            "id": 10,
            "name": "Spur 10"
        },
        {
            "startTime": 0,
            "duration": 0,
            "length": 0,
            "notes": [],
            "controlChanges": {},
            "id": 11,
            "name": "Spur 11"
        },
        {
            "startTime": 0,
            "duration": 0,
            "length": 0,
            "notes": [],
            "controlChanges": {},
            "id": 12,
            "name": "Spur 12"
        },
        {
            "startTime": 0,
            "duration": 0,
            "length": 0,
            "notes": [],
            "controlChanges": {},
            "id": 13,
            "name": "Spur 13"
        },
        {
            "startTime": 0,
            "duration": 0,
            "length": 0,
            "notes": [],
            "controlChanges": {},
            "id": 14,
            "name": "Spur 14"
        },
        {
            "startTime": 0,
            "duration": 0,
            "length": 0,
            "notes": [],
            "controlChanges": {},
            "id": 15,
            "name": "Spur 15"
        },
        {
            "startTime": 0,
            "duration": 0,
            "length": 0,
            "notes": [],
            "controlChanges": {},
            "id": 16,
            "name": "Spur 16"
        }
    ]
}