{
    "header": {
        "PPQ": 480,
        "timeSignature": [
            2,
            4
        ],
        "bpm": 101.75993812995762,
        "name": "Klaviersonate KV 545 3. Satz"
    },
    "startTime": 0,
    "duration": 96.10854900000027,
    "tracks": [
        {
            "startTime": 0,
            "duration": 0,
            "length": 0,
            "notes": [],
            "controlChanges": {},
            "id": 0,
            "name": "Klaviersonate KV 545 3. Satz"
        },
        {
            "startTime": 0.589623,
            "duration": 96.1085490000001,
            "length": 543,
            "notes": [
                {
                    "name": "E5",
                    "midi": 76,
                    "time": 0.589623,
                    "velocity": 0.33070866141732286,
                    "duration": 0.07370287499999995
                },
                {
                    "name": "G5",
                    "midi": 79,
                    "time": 0.589623,
                    "velocity": 0.3937007874015748,
                    "duration": 0.07370287499999995
                },
                {
                    "name": "E5",
                    "midi": 76,
                    "time": 0.8844345,
                    "velocity": 0.28346456692913385,
                    "duration": 0.07370287499999995
                },
                {
                    "name": "G5",
                    "midi": 79,
                    "time": 0.8844345,
                    "velocity": 0.33858267716535434,
                    "duration": 0.07370287499999995
                },
                {
                    "name": "C5",
                    "midi": 72,
                    "time": 1.179246,
                    "velocity": 0.31496062992125984,
                    "duration": 0.22110862500000006
                },
                {
                    "name": "E5",
                    "midi": 76,
                    "time": 1.179246,
                    "velocity": 0.3779527559055118,
                    "duration": 0.22110862500000006
                },
                {
                    "name": "D5",
                    "midi": 74,
                    "time": 1.768869,
                    "velocity": 0.33070866141732286,
                    "duration": 0.07370287499999995
                },
                {
                    "name": "F5",
                    "midi": 77,
                    "time": 1.768869,
                    "velocity": 0.3937007874015748,
                    "duration": 0.07370287499999995
                },
                {
                    "name": "D5",
                    "midi": 74,
                    "time": 2.0636805,
                    "velocity": 0.29133858267716534,
                    "duration": 0.07370287499999995
                },
                {
                    "name": "F5",
                    "midi": 77,
                    "time": 2.0636805,
                    "velocity": 0.3464566929133858,
                    "duration": 0.07370287499999995
                },
                {
                    "name": "B4",
                    "midi": 71,
                    "time": 2.3584919999999996,
                    "velocity": 0.3228346456692913,
                    "duration": 0.22110862499999984
                },
                {
                    "name": "D5",
                    "midi": 74,
                    "time": 2.3584919999999996,
                    "velocity": 0.3858267716535433,
                    "duration": 0.22110862499999984
                },
                {
                    "name": "C5",
                    "midi": 72,
                    "time": 2.9481149999999996,
                    "velocity": 0.4251968503937008,
                    "duration": 0.1621463249999997
                },
                {
                    "name": "D5",
                    "midi": 74,
                    "time": 3.0955207499999995,
                    "velocity": 0.3858267716535433,
                    "duration": 0.1621463249999997
                },
                {
                    "name": "E5",
                    "midi": 76,
                    "time": 3.2429264999999994,
                    "velocity": 0.41732283464566927,
                    "duration": 0.1621463249999997
                },
                {
                    "name": "C5",
                    "midi": 72,
                    "time": 3.3903322499999993,
                    "velocity": 0.3858267716535433,
                    "duration": 0.1621463249999997
                },
                {
                    "name": "A4",
                    "midi": 69,
                    "time": 3.537737999999999,
                    "velocity": 0.4330708661417323,
                    "duration": 0.1621463249999997
                },
                {
                    "name": "B4",
                    "midi": 71,
                    "time": 3.685143749999999,
                    "velocity": 0.44881889763779526,
                    "duration": 0.1621463249999997
                },
                {
                    "name": "C5",
                    "midi": 72,
                    "time": 3.832549499999999,
                    "velocity": 0.47244094488188976,
                    "duration": 0.1621463249999997
                },
                {
                    "name": "C#5",
                    "midi": 73,
                    "time": 3.979955249999999,
                    "velocity": 0.49606299212598426,
                    "duration": 0.16214632500000015
                },
                {
                    "name": "D5",
                    "midi": 74,
                    "time": 4.127360999999999,
                    "velocity": 0.5196850393700787,
                    "duration": 0.16214632500000015
                },
                {
                    "name": "E5",
                    "midi": 76,
                    "time": 4.274766749999999,
                    "velocity": 0.4645669291338583,
                    "duration": 0.16214632500000015
                },
                {
                    "name": "F5",
                    "midi": 77,
                    "time": 4.4221724999999985,
                    "velocity": 0.5196850393700787,
                    "duration": 0.16214632500000015
                },
                {
                    "name": "D5",
                    "midi": 74,
                    "time": 4.569578249999998,
                    "velocity": 0.47244094488188976,
                    "duration": 0.16214632500000015
                },
                {
                    "name": "C5",
                    "midi": 72,
                    "time": 4.716983999999998,
                    "velocity": 0.5039370078740157,
                    "duration": 0.16214632500000015
                },
                {
                    "name": "B4",
                    "midi": 71,
                    "time": 4.864389749999998,
                    "velocity": 0.4645669291338583,
                    "duration": 0.16214632500000015
                },
                {
                    "name": "A4",
                    "midi": 69,
                    "time": 5.011795499999998,
                    "velocity": 0.41732283464566927,
                    "duration": 0.16214632500000015
                },
                {
                    "name": "G4",
                    "midi": 67,
                    "time": 5.159201249999998,
                    "velocity": 0.3779527559055118,
                    "duration": 0.1474057499999999
                },
                {
                    "name": "E5",
                    "midi": 76,
                    "time": 5.306606999999998,
                    "velocity": 0.4645669291338583,
                    "duration": 0.07370287500000039
                },
                {
                    "name": "G5",
                    "midi": 79,
                    "time": 5.306606999999998,
                    "velocity": 0.4645669291338583,
                    "duration": 0.07370287500000039
                },
                {
                    "name": "E5",
                    "midi": 76,
                    "time": 5.6014184999999985,
                    "velocity": 0.3779527559055118,
                    "duration": 0.07370287500000039
                },
                {
                    "name": "G5",
                    "midi": 79,
                    "time": 5.6014184999999985,
                    "velocity": 0.3779527559055118,
                    "duration": 0.07370287500000039
                },
                {
                    "name": "C5",
                    "midi": 72,
                    "time": 5.896229999999999,
                    "velocity": 0.4645669291338583,
                    "duration": 0.22110862500000028
                },
                {
                    "name": "E5",
                    "midi": 76,
                    "time": 5.896229999999999,
                    "velocity": 0.4645669291338583,
                    "duration": 0.22110862500000028
                },
                {
                    "name": "F5",
                    "midi": 77,
                    "time": 6.485853,
                    "velocity": 0.49606299212598426,
                    "duration": 0.07370287500000039
                },
                {
                    "name": "A5",
                    "midi": 81,
                    "time": 6.485853,
                    "velocity": 0.49606299212598426,
                    "duration": 0.07370287500000039
                },
                {
                    "name": "F5",
                    "midi": 77,
                    "time": 6.7806645,
                    "velocity": 0.4330708661417323,
                    "duration": 0.07370287500000039
                },
                {
                    "name": "A5",
                    "midi": 81,
                    "time": 6.7806645,
                    "velocity": 0.4330708661417323,
                    "duration": 0.07370287500000039
                },
                {
                    "name": "B4",
                    "midi": 71,
                    "time": 7.075476000000001,
                    "velocity": 0.49606299212598426,
                    "duration": 0.22110862500000028
                },
                {
                    "name": "D5",
                    "midi": 74,
                    "time": 7.075476000000001,
                    "velocity": 0.49606299212598426,
                    "duration": 0.22110862500000028
                },
                {
                    "name": "A5",
                    "midi": 81,
                    "time": 7.665099000000001,
                    "velocity": 0.5511811023622047,
                    "duration": 0.16214632500000015
                },
                {
                    "name": "G5",
                    "midi": 79,
                    "time": 7.812504750000001,
                    "velocity": 0.5354330708661418,
                    "duration": 0.16214632500000015
                },
                {
                    "name": "F5",
                    "midi": 77,
                    "time": 7.959910500000001,
                    "velocity": 0.5118110236220472,
                    "duration": 0.16214632500000015
                },
                {
                    "name": "E5",
                    "midi": 76,
                    "time": 8.107316250000002,
                    "velocity": 0.49606299212598426,
                    "duration": 0.147405749999999
                },
                {
                    "name": "C#5",
                    "midi": 73,
                    "time": 8.254722000000001,
                    "velocity": 0.47244094488188976,
                    "duration": 0.16214632500000015
                },
                {
                    "name": "D5",
                    "midi": 74,
                    "time": 8.402127750000002,
                    "velocity": 0.4881889763779528,
                    "duration": 0.16214632499999837
                },
                {
                    "name": "E5",
                    "midi": 76,
                    "time": 8.5495335,
                    "velocity": 0.5196850393700787,
                    "duration": 0.16214632499999837
                },
                {
                    "name": "F5",
                    "midi": 77,
                    "time": 8.69693925,
                    "velocity": 0.4566929133858268,
                    "duration": 0.147405749999999
                },
                {
                    "name": "A4",
                    "midi": 69,
                    "time": 8.844344999999999,
                    "velocity": 0.47244094488188976,
                    "duration": 0.14740575000000078
                },
                {
                    "name": "C5",
                    "midi": 72,
                    "time": 8.99175075,
                    "velocity": 0.4094488188976378,
                    "duration": 0.14740575000000078
                },
                {
                    "name": "B4",
                    "midi": 71,
                    "time": 9.1391565,
                    "velocity": 0.4566929133858268,
                    "duration": 0.14740575000000078
                },
                {
                    "name": "D5",
                    "midi": 74,
                    "time": 9.286562250000001,
                    "velocity": 0.3937007874015748,
                    "duration": 0.14740575000000078
                },
                {
                    "name": "C5",
                    "midi": 72,
                    "time": 9.433968000000002,
                    "velocity": 0.4409448818897638,
                    "duration": 0.2948114999999998
                },
                {
                    "name": "E5",
                    "midi": 76,
                    "time": 10.023591000000001,
                    "velocity": 0.33070866141732286,
                    "duration": 0.07370287500000039
                },
                {
                    "name": "G5",
                    "midi": 79,
                    "time": 10.023591000000001,
                    "velocity": 0.3937007874015748,
                    "duration": 0.07370287500000039
                },
                {
                    "name": "E5",
                    "midi": 76,
                    "time": 10.318402500000001,
                    "velocity": 0.28346456692913385,
                    "duration": 0.07370287500000039
                },
                {
                    "name": "G5",
                    "midi": 79,
                    "time": 10.318402500000001,
                    "velocity": 0.33858267716535434,
                    "duration": 0.07370287500000039
                },
                {
                    "name": "C5",
                    "midi": 72,
                    "time": 10.613214000000001,
                    "velocity": 0.31496062992125984,
                    "duration": 0.2211086249999994
                },
                {
                    "name": "E5",
                    "midi": 76,
                    "time": 10.613214000000001,
                    "velocity": 0.3779527559055118,
                    "duration": 0.2211086249999994
                },
                {
                    "name": "D5",
                    "midi": 74,
                    "time": 11.202837,
                    "velocity": 0.33070866141732286,
                    "duration": 0.07370287500000039
                },
                {
                    "name": "F5",
                    "midi": 77,
                    "time": 11.202837,
                    "velocity": 0.3937007874015748,
                    "duration": 0.07370287500000039
                },
                {
                    "name": "D5",
                    "midi": 74,
                    "time": 11.4976485,
                    "velocity": 0.29133858267716534,
                    "duration": 0.07370287500000039
                },
                {
                    "name": "F5",
                    "midi": 77,
                    "time": 11.4976485,
                    "velocity": 0.3464566929133858,
                    "duration": 0.07370287500000039
                },
                {
                    "name": "B4",
                    "midi": 71,
                    "time": 11.79246,
                    "velocity": 0.3228346456692913,
                    "duration": 0.2211086249999994
                },
                {
                    "name": "D5",
                    "midi": 74,
                    "time": 11.79246,
                    "velocity": 0.3858267716535433,
                    "duration": 0.2211086249999994
                },
                {
                    "name": "C5",
                    "midi": 72,
                    "time": 12.382083,
                    "velocity": 0.4330708661417323,
                    "duration": 0.16214632500000015
                },
                {
                    "name": "D5",
                    "midi": 74,
                    "time": 12.52948875,
                    "velocity": 0.3858267716535433,
                    "duration": 0.16214632499999837
                },
                {
                    "name": "E5",
                    "midi": 76,
                    "time": 12.6768945,
                    "velocity": 0.4251968503937008,
                    "duration": 0.16214632499999837
                },
                {
                    "name": "C5",
                    "midi": 72,
                    "time": 12.824300249999999,
                    "velocity": 0.3858267716535433,
                    "duration": 0.16214632499999837
                },
                {
                    "name": "A4",
                    "midi": 69,
                    "time": 12.971705999999998,
                    "velocity": 0.4015748031496063,
                    "duration": 0.16214632499999837
                },
                {
                    "name": "B4",
                    "midi": 71,
                    "time": 13.119111749999997,
                    "velocity": 0.4330708661417323,
                    "duration": 0.16214632499999837
                },
                {
                    "name": "C5",
                    "midi": 72,
                    "time": 13.266517499999996,
                    "velocity": 0.4645669291338583,
                    "duration": 0.16214632499999837
                },
                {
                    "name": "C#5",
                    "midi": 73,
                    "time": 13.413923249999995,
                    "velocity": 0.4881889763779528,
                    "duration": 0.16214632499999837
                },
                {
                    "name": "D5",
                    "midi": 74,
                    "time": 13.561328999999994,
                    "velocity": 0.5196850393700787,
                    "duration": 0.16214632499999837
                },
                {
                    "name": "E5",
                    "midi": 76,
                    "time": 13.708734749999993,
                    "velocity": 0.47244094488188976,
                    "duration": 0.16214632499999837
                },
                {
                    "name": "F5",
                    "midi": 77,
                    "time": 13.856140499999992,
                    "velocity": 0.5118110236220472,
                    "duration": 0.16214632499999837
                },
                {
                    "name": "D5",
                    "midi": 74,
                    "time": 14.00354624999999,
                    "velocity": 0.49606299212598426,
                    "duration": 0.16214632499999837
                },
                {
                    "name": "C5",
                    "midi": 72,
                    "time": 14.15095199999999,
                    "velocity": 0.47244094488188976,
                    "duration": 0.16214632499999837
                },
                {
                    "name": "B4",
                    "midi": 71,
                    "time": 14.298357749999989,
                    "velocity": 0.44881889763779526,
                    "duration": 0.16214632499999837
                },
                {
                    "name": "A4",
                    "midi": 69,
                    "time": 14.445763499999988,
                    "velocity": 0.4251968503937008,
                    "duration": 0.16214632499999837
                },
                {
                    "name": "G4",
                    "midi": 67,
                    "time": 14.593169249999987,
                    "velocity": 0.3858267716535433,
                    "duration": 0.147405749999999
                },
                {
                    "name": "E5",
                    "midi": 76,
                    "time": 14.740574999999986,
                    "velocity": 0.4409448818897638,
                    "duration": 0.07370287500000039
                },
                {
                    "name": "G5",
                    "midi": 79,
                    "time": 14.740574999999986,
                    "velocity": 0.4409448818897638,
                    "duration": 0.07370287500000039
                },
                {
                    "name": "E5",
                    "midi": 76,
                    "time": 15.035386499999985,
                    "velocity": 0.3858267716535433,
                    "duration": 0.07370287500000039
                },
                {
                    "name": "G5",
                    "midi": 79,
                    "time": 15.035386499999985,
                    "velocity": 0.3858267716535433,
                    "duration": 0.07370287500000039
                },
                {
                    "name": "C5",
                    "midi": 72,
                    "time": 15.330197999999985,
                    "velocity": 0.4330708661417323,
                    "duration": 0.2211086249999994
                },
                {
                    "name": "E5",
                    "midi": 76,
                    "time": 15.330197999999985,
                    "velocity": 0.4330708661417323,
                    "duration": 0.2211086249999994
                },
                {
                    "name": "F5",
                    "midi": 77,
                    "time": 15.919820999999985,
                    "velocity": 0.5196850393700787,
                    "duration": 0.07370287500000039
                },
                {
                    "name": "A5",
                    "midi": 81,
                    "time": 15.919820999999985,
                    "velocity": 0.5196850393700787,
                    "duration": 0.07370287500000039
                },
                {
                    "name": "F5",
                    "midi": 77,
                    "time": 16.214632499999986,
                    "velocity": 0.44881889763779526,
                    "duration": 0.07370287499999861
                },
                {
                    "name": "A5",
                    "midi": 81,
                    "time": 16.214632499999986,
                    "velocity": 0.44881889763779526,
                    "duration": 0.07370287499999861
                },
                {
                    "name": "B4",
                    "midi": 71,
                    "time": 16.509443999999984,
                    "velocity": 0.49606299212598426,
                    "duration": 0.2211086249999994
                },
                {
                    "name": "D5",
                    "midi": 74,
                    "time": 16.509443999999984,
                    "velocity": 0.49606299212598426,
                    "duration": 0.2211086249999994
                },
                {
                    "name": "A5",
                    "midi": 81,
                    "time": 17.099066999999984,
                    "velocity": 0.5354330708661418,
                    "duration": 0.16214632500000192
                },
                {
                    "name": "G5",
                    "midi": 79,
                    "time": 17.246472749999985,
                    "velocity": 0.5118110236220472,
                    "duration": 0.16214632500000192
                },
                {
                    "name": "F5",
                    "midi": 77,
                    "time": 17.393878499999985,
                    "velocity": 0.49606299212598426,
                    "duration": 0.16214632500000192
                },
                {
                    "name": "E5",
                    "midi": 76,
                    "time": 17.541284249999986,
                    "velocity": 0.48031496062992124,
                    "duration": 0.14740575000000078
                },
                {
                    "name": "C#5",
                    "midi": 73,
                    "time": 17.688689999999987,
                    "velocity": 0.4409448818897638,
                    "duration": 0.16214632500000192
                },
                {
                    "name": "D5",
                    "midi": 74,
                    "time": 17.836095749999988,
                    "velocity": 0.4566929133858268,
                    "duration": 0.16214632500000192
                },
                {
                    "name": "E5",
                    "midi": 76,
                    "time": 17.98350149999999,
                    "velocity": 0.4645669291338583,
                    "duration": 0.16214632500000192
                },
                {
                    "name": "F5",
                    "midi": 77,
                    "time": 18.13090724999999,
                    "velocity": 0.4409448818897638,
                    "duration": 0.14740575000000078
                },
                {
                    "name": "A4",
                    "midi": 69,
                    "time": 18.27831299999999,
                    "velocity": 0.47244094488188976,
                    "duration": 0.14740575000000078
                },
                {
                    "name": "C5",
                    "midi": 72,
                    "time": 18.42571874999999,
                    "velocity": 0.4094488188976378,
                    "duration": 0.14740575000000078
                },
                {
                    "name": "B4",
                    "midi": 71,
                    "time": 18.57312449999999,
                    "velocity": 0.4566929133858268,
                    "duration": 0.14740575000000078
                },
                {
                    "name": "D5",
                    "midi": 74,
                    "time": 18.720530249999992,
                    "velocity": 0.3937007874015748,
                    "duration": 0.14740575000000078
                },
                {
                    "name": "C5",
                    "midi": 72,
                    "time": 18.867935999999993,
                    "velocity": 0.4409448818897638,
                    "duration": 0.29481150000000156
                },
                {
                    "name": "E5",
                    "midi": 76,
                    "time": 19.457558999999996,
                    "velocity": 0.48031496062992124,
                    "duration": 0.16214632500000192
                },
                {
                    "name": "F#5",
                    "midi": 78,
                    "time": 19.604964749999997,
                    "velocity": 0.4409448818897638,
                    "duration": 0.16214632500000192
                },
                {
                    "name": "G5",
                    "midi": 79,
                    "time": 19.752370499999998,
                    "velocity": 0.41732283464566927,
                    "duration": 0.07370287500000217
                },
                {
                    "name": "G5",
                    "midi": 79,
                    "time": 19.89977625,
                    "velocity": 0.41732283464566927,
                    "duration": 0.07370287499999861
                },
                {
                    "name": "A5",
                    "midi": 81,
                    "time": 20.047181999999996,
                    "velocity": 0.4881889763779528,
                    "duration": 0.16214632500000192
                },
                {
                    "name": "G5",
                    "midi": 79,
                    "time": 20.194587749999997,
                    "velocity": 0.4566929133858268,
                    "duration": 0.16214632500000192
                },
                {
                    "name": "F#5",
                    "midi": 78,
                    "time": 20.341993499999997,
                    "velocity": 0.4409448818897638,
                    "duration": 0.16214632500000192
                },
                {
                    "name": "E5",
                    "midi": 76,
                    "time": 20.489399249999998,
                    "velocity": 0.4330708661417323,
                    "duration": 0.14740575000000078
                },
                {
                    "name": "D5",
                    "midi": 74,
                    "time": 20.636805,
                    "velocity": 0.48031496062992124,
                    "duration": 0.07370287499999861
                },
                {
                    "name": "D5",
                    "midi": 74,
                    "time": 20.784210749999996,
                    "velocity": 0.4251968503937008,
                    "duration": 0.07370287499999861
                },
                {
                    "name": "D5",
                    "midi": 74,
                    "time": 20.931616499999993,
                    "velocity": 0.4251968503937008,
                    "duration": 0.07370287499999861
                },
                {
                    "name": "D5",
                    "midi": 74,
                    "time": 21.07902224999999,
                    "velocity": 0.4251968503937008,
                    "duration": 0.07370287499999861
                },
                {
                    "name": "E5",
                    "midi": 76,
                    "time": 21.226427999999988,
                    "velocity": 0.5196850393700787,
                    "duration": 0.16214632500000192
                },
                {
                    "name": "D5",
                    "midi": 74,
                    "time": 21.37383374999999,
                    "velocity": 0.4645669291338583,
                    "duration": 0.16214632500000192
                },
                {
                    "name": "C5",
                    "midi": 72,
                    "time": 21.52123949999999,
                    "velocity": 0.4566929133858268,
                    "duration": 0.16214632500000192
                },
                {
                    "name": "B4",
                    "midi": 71,
                    "time": 21.66864524999999,
                    "velocity": 0.44881889763779526,
                    "duration": 0.14740575000000078
                },
                {
                    "name": "E6",
                    "midi": 88,
                    "time": 21.81605099999999,
                    "velocity": 0.5826771653543307,
                    "duration": 0.16214632500000192
                },
                {
                    "name": "D6",
                    "midi": 86,
                    "time": 21.96345674999999,
                    "velocity": 0.5196850393700787,
                    "duration": 0.16214632500000192
                },
                {
                    "name": "C6",
                    "midi": 84,
                    "time": 22.110862499999993,
                    "velocity": 0.5118110236220472,
                    "duration": 0.16214632500000192
                },
                {
                    "name": "B5",
                    "midi": 83,
                    "time": 22.258268249999993,
                    "velocity": 0.5039370078740157,
                    "duration": 0.14740575000000078
                },
                {
                    "name": "G#5",
                    "midi": 80,
                    "time": 22.405673999999994,
                    "velocity": 0.5905511811023622,
                    "duration": 0.16214632500000192
                },
                {
                    "name": "A5",
                    "midi": 81,
                    "time": 22.553079749999995,
                    "velocity": 0.5275590551181102,
                    "duration": 0.16214632500000192
                },
                {
                    "name": "B5",
                    "midi": 83,
                    "time": 22.700485499999996,
                    "velocity": 0.5118110236220472,
                    "duration": 0.16214632500000192
                },
                {
                    "name": "C6",
                    "midi": 84,
                    "time": 22.847891249999996,
                    "velocity": 0.5118110236220472,
                    "duration": 0.14740575000000078
                },
                {
                    "name": "E5",
                    "midi": 76,
                    "time": 22.995296999999997,
                    "velocity": 0.5826771653543307,
                    "duration": 0.16214632500000192
                },
                {
                    "name": "F#5",
                    "midi": 78,
                    "time": 23.142702749999998,
                    "velocity": 0.5354330708661418,
                    "duration": 0.16214632500000192
                },
                {
                    "name": "G5",
                    "midi": 79,
                    "time": 23.2901085,
                    "velocity": 0.4881889763779528,
                    "duration": 0.16214632500000192
                },
                {
                    "name": "A5",
                    "midi": 81,
                    "time": 23.43751425,
                    "velocity": 0.5118110236220472,
                    "duration": 0.14740575000000078
                },
                {
                    "name": "G5",
                    "midi": 79,
                    "time": 23.58492,
                    "velocity": 0.5826771653543307,
                    "duration": 0.16214632500000192
                },
                {
                    "name": "F#5",
                    "midi": 78,
                    "time": 23.73232575,
                    "velocity": 0.5511811023622047,
                    "duration": 0.16214632500000192
                },
                {
                    "name": "E5",
                    "midi": 76,
                    "time": 23.879731500000002,
                    "velocity": 0.4881889763779528,
                    "duration": 0.16214632500000192
                },
                {
                    "name": "D5",
                    "midi": 74,
                    "time": 24.027137250000003,
                    "velocity": 0.49606299212598426,
                    "duration": 0.14740575000000078
                },
                {
                    "name": "B5",
                    "midi": 83,
                    "time": 24.174543000000003,
                    "velocity": 0.49606299212598426,
                    "duration": 0.07370287499999861
                },
                {
                    "name": "D6",
                    "midi": 86,
                    "time": 24.174543000000003,
                    "velocity": 0.5905511811023622,
                    "duration": 0.07370287499999861
                },
                {
                    "name": "B5",
                    "midi": 83,
                    "time": 24.4693545,
                    "velocity": 0.4566929133858268,
                    "duration": 0.07370287499999861
                },
                {
                    "name": "D6",
                    "midi": 86,
                    "time": 24.4693545,
                    "velocity": 0.5433070866141733,
                    "duration": 0.07370287499999861
                },
                {
                    "name": "G5",
                    "midi": 79,
                    "time": 24.764166,
                    "velocity": 0.49606299212598426,
                    "duration": 0.2211086249999994
                },
                {
                    "name": "B5",
                    "midi": 83,
                    "time": 24.764166,
                    "velocity": 0.5905511811023622,
                    "duration": 0.2211086249999994
                },
                {
                    "name": "A5",
                    "midi": 81,
                    "time": 25.353789,
                    "velocity": 0.47244094488188976,
                    "duration": 0.07370287499999861
                },
                {
                    "name": "C6",
                    "midi": 84,
                    "time": 25.353789,
                    "velocity": 0.5590551181102362,
                    "duration": 0.07370287499999861
                },
                {
                    "name": "A5",
                    "midi": 81,
                    "time": 25.648600499999997,
                    "velocity": 0.4251968503937008,
                    "duration": 0.07370287499999861
                },
                {
                    "name": "C6",
                    "midi": 84,
                    "time": 25.648600499999997,
                    "velocity": 0.5039370078740157,
                    "duration": 0.07370287499999861
                },
                {
                    "name": "F#5",
                    "midi": 78,
                    "time": 25.943411999999995,
                    "velocity": 0.4645669291338583,
                    "duration": 0.2211086249999994
                },
                {
                    "name": "A5",
                    "midi": 81,
                    "time": 25.943411999999995,
                    "velocity": 0.5511811023622047,
                    "duration": 0.2211086249999994
                },
                {
                    "name": "G5",
                    "midi": 79,
                    "time": 26.533034999999995,
                    "velocity": 0.5354330708661418,
                    "duration": 0.16214632500000192
                },
                {
                    "name": "A5",
                    "midi": 81,
                    "time": 26.680440749999995,
                    "velocity": 0.5354330708661418,
                    "duration": 0.16214632500000192
                },
                {
                    "name": "B5",
                    "midi": 83,
                    "time": 26.827846499999996,
                    "velocity": 0.5669291338582677,
                    "duration": 0.16214632500000192
                },
                {
                    "name": "G5",
                    "midi": 79,
                    "time": 26.975252249999997,
                    "velocity": 0.5275590551181102,
                    "duration": 0.14740575000000078
                },
                {
                    "name": "D#5",
                    "midi": 75,
                    "time": 27.122657999999998,
                    "velocity": 0.48031496062992124,
                    "duration": 0.16214632500000192
                },
                {
                    "name": "E5",
                    "midi": 76,
                    "time": 27.27006375,
                    "velocity": 0.49606299212598426,
                    "duration": 0.16214632500000192
                },
                {
                    "name": "G5",
                    "midi": 79,
                    "time": 27.4174695,
                    "velocity": 0.5196850393700787,
                    "duration": 0.16214632500000192
                },
                {
                    "name": "E5",
                    "midi": 76,
                    "time": 27.56487525,
                    "velocity": 0.4645669291338583,
                    "duration": 0.14740575000000078
                },
                {
                    "name": "D5",
                    "midi": 74,
                    "time": 27.712281,
                    "velocity": 0.4881889763779528,
                    "duration": 0.14740575000000078
                },
                {
                    "name": "B4",
                    "midi": 71,
                    "time": 27.85968675,
                    "velocity": 0.4409448818897638,
                    "duration": 0.14740575000000078
                },
                {
                    "name": "C5",
                    "midi": 72,
                    "time": 28.007092500000002,
                    "velocity": 0.4566929133858268,
                    "duration": 0.14740575000000078
                },
                {
                    "name": "A4",
                    "midi": 69,
                    "time": 28.154498250000003,
                    "velocity": 0.3937007874015748,
                    "duration": 0.14740575000000078
                },
                {
                    "name": "G4",
                    "midi": 67,
                    "time": 28.301904000000004,
                    "velocity": 0.4409448818897638,
                    "duration": 0.14740575000000078
                },
                {
                    "name": "G4",
                    "midi": 67,
                    "time": 28.891527000000004,
                    "velocity": 0.4251968503937008,
                    "duration": 0.14740575000000078
                },
                {
                    "name": "A4",
                    "midi": 69,
                    "time": 29.038932750000004,
                    "velocity": 0.4409448818897638,
                    "duration": 0.14740575000000078
                },
                {
                    "name": "B4",
                    "midi": 71,
                    "time": 29.186338500000005,
                    "velocity": 0.4566929133858268,
                    "duration": 0.14740575000000078
                },
                {
                    "name": "C5",
                    "midi": 72,
                    "time": 29.333744250000006,
                    "velocity": 0.4645669291338583,
                    "duration": 0.14740575000000078
                },
                {
                    "name": "D5",
                    "midi": 74,
                    "time": 29.481150000000007,
                    "velocity": 0.48031496062992124,
                    "duration": 0.14740575000000078
                },
                {
                    "name": "B4",
                    "midi": 71,
                    "time": 30.070773000000006,
                    "velocity": 0.4881889763779528,
                    "duration": 0.14740575000000078
                },
                {
                    "name": "C5",
                    "midi": 72,
                    "time": 30.218178750000007,
                    "velocity": 0.5118110236220472,
                    "duration": 0.14740575000000078
                },
                {
                    "name": "D5",
                    "midi": 74,
                    "time": 30.365584500000008,
                    "velocity": 0.5433070866141733,
                    "duration": 0.14740575000000078
                },
                {
                    "name": "E5",
                    "midi": 76,
                    "time": 30.51299025000001,
                    "velocity": 0.5669291338582677,
                    "duration": 0.14740575000000078
                },
                {
                    "name": "F5",
                    "midi": 77,
                    "time": 30.66039600000001,
                    "velocity": 0.5905511811023622,
                    "duration": 0.14740575000000078
                },
                {
                    "name": "D5",
                    "midi": 74,
                    "time": 31.25001900000001,
                    "velocity": 0.5039370078740157,
                    "duration": 0.14740575000000078
                },
                {
                    "name": "E5",
                    "midi": 76,
                    "time": 31.39742475000001,
                    "velocity": 0.5275590551181102,
                    "duration": 0.14740575000000078
                },
                {
                    "name": "F5",
                    "midi": 77,
                    "time": 31.54483050000001,
                    "velocity": 0.5590551181102362,
                    "duration": 0.14740575000000078
                },
                {
                    "name": "G5",
                    "midi": 79,
                    "time": 31.69223625000001,
                    "velocity": 0.5826771653543307,
                    "duration": 0.14740575000000078
                },
                {
                    "name": "A5",
                    "midi": 81,
                    "time": 31.839642000000012,
                    "velocity": 0.6062992125984252,
                    "duration": 0.07370287499999861
                },
                {
                    "name": "G#5",
                    "midi": 80,
                    "time": 32.13445350000001,
                    "velocity": 0.5433070866141733,
                    "duration": 0.07370287500000217
                },
                {
                    "name": "G5",
                    "midi": 79,
                    "time": 32.429265000000015,
                    "velocity": 0.5196850393700787,
                    "duration": 0.07370287500000217
                },
                {
                    "name": "F#5",
                    "midi": 78,
                    "time": 32.72407650000002,
                    "velocity": 0.47244094488188976,
                    "duration": 0.07370287500000217
                },
                {
                    "name": "F5",
                    "midi": 77,
                    "time": 33.01888800000002,
                    "velocity": 0.4645669291338583,
                    "duration": 0.29481150000000156
                },
                {
                    "name": "E5",
                    "midi": 76,
                    "time": 33.60851100000002,
                    "velocity": 0.33070866141732286,
                    "duration": 0.07370287500000217
                },
                {
                    "name": "G5",
                    "midi": 79,
                    "time": 33.60851100000002,
                    "velocity": 0.3937007874015748,
                    "duration": 0.07370287500000217
                },
                {
                    "name": "E5",
                    "midi": 76,
                    "time": 33.90332250000002,
                    "velocity": 0.28346456692913385,
                    "duration": 0.07370287500000217
                },
                {
                    "name": "G5",
                    "midi": 79,
                    "time": 33.90332250000002,
                    "velocity": 0.33858267716535434,
                    "duration": 0.07370287500000217
                },
                {
                    "name": "C5",
                    "midi": 72,
                    "time": 34.198134000000024,
                    "velocity": 0.31496062992125984,
                    "duration": 0.2211086249999994
                },
                {
                    "name": "E5",
                    "midi": 76,
                    "time": 34.198134000000024,
                    "velocity": 0.3779527559055118,
                    "duration": 0.2211086249999994
                },
                {
                    "name": "D5",
                    "midi": 74,
                    "time": 34.78775700000002,
                    "velocity": 0.33070866141732286,
                    "duration": 0.07370287500000217
                },
                {
                    "name": "F5",
                    "midi": 77,
                    "time": 34.78775700000002,
                    "velocity": 0.3937007874015748,
                    "duration": 0.07370287500000217
                },
                {
                    "name": "D5",
                    "midi": 74,
                    "time": 35.08256850000002,
                    "velocity": 0.29133858267716534,
                    "duration": 0.07370287500000217
                },
                {
                    "name": "F5",
                    "midi": 77,
                    "time": 35.08256850000002,
                    "velocity": 0.3464566929133858,
                    "duration": 0.07370287500000217
                },
                {
                    "name": "B4",
                    "midi": 71,
                    "time": 35.377380000000024,
                    "velocity": 0.3228346456692913,
                    "duration": 0.2211086249999994
                },
                {
                    "name": "D5",
                    "midi": 74,
                    "time": 35.377380000000024,
                    "velocity": 0.3858267716535433,
                    "duration": 0.2211086249999994
                },
                {
                    "name": "C5",
                    "midi": 72,
                    "time": 35.96700300000002,
                    "velocity": 0.4330708661417323,
                    "duration": 0.16214632499999482
                },
                {
                    "name": "D5",
                    "midi": 74,
                    "time": 36.11440875000002,
                    "velocity": 0.3700787401574803,
                    "duration": 0.16214632499999482
                },
                {
                    "name": "E5",
                    "midi": 76,
                    "time": 36.261814500000014,
                    "velocity": 0.4251968503937008,
                    "duration": 0.16214632499999482
                },
                {
                    "name": "C5",
                    "midi": 72,
                    "time": 36.40922025000001,
                    "velocity": 0.3700787401574803,
                    "duration": 0.16214632499999482
                },
                {
                    "name": "A4",
                    "midi": 69,
                    "time": 36.55662600000001,
                    "velocity": 0.3937007874015748,
                    "duration": 0.16214632499999482
                },
                {
                    "name": "B4",
                    "midi": 71,
                    "time": 36.704031750000006,
                    "velocity": 0.4251968503937008,
                    "duration": 0.16214632499999482
                },
                {
                    "name": "C5",
                    "midi": 72,
                    "time": 36.8514375,
                    "velocity": 0.4566929133858268,
                    "duration": 0.16214632499999482
                },
                {
                    "name": "C#5",
                    "midi": 73,
                    "time": 36.99884325,
                    "velocity": 0.48031496062992124,
                    "duration": 0.16214632499999482
                },
                {
                    "name": "D5",
                    "midi": 74,
                    "time": 37.146249,
                    "velocity": 0.5196850393700787,
                    "duration": 0.16214632499999482
                },
                {
                    "name": "E5",
                    "midi": 76,
                    "time": 37.293654749999995,
                    "velocity": 0.4566929133858268,
                    "duration": 0.16214632499999482
                },
                {
                    "name": "F5",
                    "midi": 77,
                    "time": 37.44106049999999,
                    "velocity": 0.49606299212598426,
                    "duration": 0.16214632499999482
                },
                {
                    "name": "D5",
                    "midi": 74,
                    "time": 37.58846624999999,
                    "velocity": 0.4409448818897638,
                    "duration": 0.16214632499999482
                },
                {
                    "name": "C5",
                    "midi": 72,
                    "time": 37.735871999999986,
                    "velocity": 0.4881889763779528,
                    "duration": 0.16214632499999482
                },
                {
                    "name": "B4",
                    "midi": 71,
                    "time": 37.88327774999998,
                    "velocity": 0.4645669291338583,
                    "duration": 0.16214632499999482
                },
                {
                    "name": "A4",
                    "midi": 69,
                    "time": 38.03068349999998,
                    "velocity": 0.4251968503937008,
                    "duration": 0.16214632499999482
                },
                {
                    "name": "G4",
                    "midi": 67,
                    "time": 38.17808924999998,
                    "velocity": 0.4015748031496063,
                    "duration": 0.14740574999999723
                },
                {
                    "name": "E5",
                    "midi": 76,
                    "time": 38.325494999999975,
                    "velocity": 0.4251968503937008,
                    "duration": 0.07370287500000217
                },
                {
                    "name": "G5",
                    "midi": 79,
                    "time": 38.325494999999975,
                    "velocity": 0.4251968503937008,
                    "duration": 0.07370287500000217
                },
                {
                    "name": "E5",
                    "midi": 76,
                    "time": 38.62030649999998,
                    "velocity": 0.3543307086614173,
                    "duration": 0.07370287500000217
                },
                {
                    "name": "G5",
                    "midi": 79,
                    "time": 38.62030649999998,
                    "velocity": 0.3543307086614173,
                    "duration": 0.07370287500000217
                },
                {
                    "name": "C5",
                    "midi": 72,
                    "time": 38.91511799999998,
                    "velocity": 0.41732283464566927,
                    "duration": 0.2211086249999994
                },
                {
                    "name": "E5",
                    "midi": 76,
                    "time": 38.91511799999998,
                    "velocity": 0.41732283464566927,
                    "duration": 0.2211086249999994
                },
                {
                    "name": "F5",
                    "midi": 77,
                    "time": 39.504740999999974,
                    "velocity": 0.4881889763779528,
                    "duration": 0.07370287500000217
                },
                {
                    "name": "A5",
                    "midi": 81,
                    "time": 39.504740999999974,
                    "velocity": 0.4881889763779528,
                    "duration": 0.07370287500000217
                },
                {
                    "name": "F5",
                    "midi": 77,
                    "time": 39.799552499999976,
                    "velocity": 0.4409448818897638,
                    "duration": 0.07370287500000217
                },
                {
                    "name": "A5",
                    "midi": 81,
                    "time": 39.799552499999976,
                    "velocity": 0.4409448818897638,
                    "duration": 0.07370287500000217
                },
                {
                    "name": "B4",
                    "midi": 71,
                    "time": 40.09436399999998,
                    "velocity": 0.5196850393700787,
                    "duration": 0.2211086249999994
                },
                {
                    "name": "D5",
                    "midi": 74,
                    "time": 40.09436399999998,
                    "velocity": 0.5196850393700787,
                    "duration": 0.2211086249999994
                },
                {
                    "name": "A5",
                    "midi": 81,
                    "time": 40.68398699999997,
                    "velocity": 0.5748031496062992,
                    "duration": 0.16214632499999482
                },
                {
                    "name": "G5",
                    "midi": 79,
                    "time": 40.83139274999997,
                    "velocity": 0.5511811023622047,
                    "duration": 0.16214632499999482
                },
                {
                    "name": "F5",
                    "midi": 77,
                    "time": 40.97879849999997,
                    "velocity": 0.5275590551181102,
                    "duration": 0.16214632499999482
                },
                {
                    "name": "E5",
                    "midi": 76,
                    "time": 41.126204249999965,
                    "velocity": 0.5039370078740157,
                    "duration": 0.14740574999999723
                },
                {
                    "name": "C#5",
                    "midi": 73,
                    "time": 41.27360999999996,
                    "velocity": 0.4409448818897638,
                    "duration": 0.16214632499999482
                },
                {
                    "name": "D5",
                    "midi": 74,
                    "time": 41.42101574999996,
                    "velocity": 0.47244094488188976,
                    "duration": 0.16214632499999482
                },
                {
                    "name": "E5",
                    "midi": 76,
                    "time": 41.56842149999996,
                    "velocity": 0.5039370078740157,
                    "duration": 0.16214632499999482
                },
                {
                    "name": "F5",
                    "midi": 77,
                    "time": 41.715827249999954,
                    "velocity": 0.4409448818897638,
                    "duration": 0.14740574999999723
                },
                {
                    "name": "A4",
                    "midi": 69,
                    "time": 41.86323299999995,
                    "velocity": 0.47244094488188976,
                    "duration": 0.14740574999999723
                },
                {
                    "name": "C5",
                    "midi": 72,
                    "time": 42.01063874999995,
                    "velocity": 0.4094488188976378,
                    "duration": 0.14740574999999723
                },
                {
                    "name": "B4",
                    "midi": 71,
                    "time": 42.158044499999946,
                    "velocity": 0.4566929133858268,
                    "duration": 0.14740574999999723
                },
                {
                    "name": "D5",
                    "midi": 74,
                    "time": 42.30545024999994,
                    "velocity": 0.3937007874015748,
                    "duration": 0.14740574999999723
                },
                {
                    "name": "C5",
                    "midi": 72,
                    "time": 42.45285599999994,
                    "velocity": 0.4409448818897638,
                    "duration": 0.29481150000000156
                },
                {
                    "name": "E5",
                    "midi": 76,
                    "time": 43.63210199999994,
                    "velocity": 0.44881889763779526,
                    "duration": 0.16214632499999482
                },
                {
                    "name": "D#5",
                    "midi": 75,
                    "time": 43.77950774999994,
                    "velocity": 0.4094488188976378,
                    "duration": 0.16214632499999482
                },
                {
                    "name": "F5",
                    "midi": 77,
                    "time": 43.926913499999934,
                    "velocity": 0.4566929133858268,
                    "duration": 0.16214632499999482
                },
                {
                    "name": "E5",
                    "midi": 76,
                    "time": 44.07431924999993,
                    "velocity": 0.3937007874015748,
                    "duration": 0.14740574999999723
                },
                {
                    "name": "E5",
                    "midi": 76,
                    "time": 44.81134799999993,
                    "velocity": 0.4330708661417323,
                    "duration": 0.16214632499999482
                },
                {
                    "name": "D#5",
                    "midi": 75,
                    "time": 44.95875374999993,
                    "velocity": 0.3700787401574803,
                    "duration": 0.16214632499999482
                },
                {
                    "name": "F5",
                    "midi": 77,
                    "time": 45.106159499999926,
                    "velocity": 0.41732283464566927,
                    "duration": 0.16214632499999482
                },
                {
                    "name": "E5",
                    "midi": 76,
                    "time": 45.25356524999992,
                    "velocity": 0.3700787401574803,
                    "duration": 0.14740574999999723
                },
                {
                    "name": "C6",
                    "midi": 84,
                    "time": 45.40097099999992,
                    "velocity": 0.5669291338582677,
                    "duration": 0.07370287500000217
                },
                {
                    "name": "E5",
                    "midi": 76,
                    "time": 45.40097099999992,
                    "velocity": 0.4645669291338583,
                    "duration": 0.07370287500000217
                },
                {
                    "name": "C6",
                    "midi": 84,
                    "time": 45.69578249999992,
                    "velocity": 0.5354330708661418,
                    "duration": 0.07370287500000217
                },
                {
                    "name": "E5",
                    "midi": 76,
                    "time": 45.69578249999992,
                    "velocity": 0.4409448818897638,
                    "duration": 0.07370287500000217
                },
                {
                    "name": "A5",
                    "midi": 81,
                    "time": 45.99059399999992,
                    "velocity": 0.5748031496062992,
                    "duration": 0.14740574999999723
                },
                {
                    "name": "C5",
                    "midi": 72,
                    "time": 45.99059399999992,
                    "velocity": 0.5039370078740157,
                    "duration": 0.14740574999999723
                },
                {
                    "name": "D5",
                    "midi": 74,
                    "time": 46.58021699999992,
                    "velocity": 0.4881889763779528,
                    "duration": 0.07370287500000217
                },
                {
                    "name": "B5",
                    "midi": 83,
                    "time": 46.58021699999992,
                    "velocity": 0.5748031496062992,
                    "duration": 0.07370287500000217
                },
                {
                    "name": "D5",
                    "midi": 74,
                    "time": 46.87502849999992,
                    "velocity": 0.4251968503937008,
                    "duration": 0.07370287500000217
                },
                {
                    "name": "B5",
                    "midi": 83,
                    "time": 46.87502849999992,
                    "velocity": 0.5039370078740157,
                    "duration": 0.07370287500000217
                },
                {
                    "name": "B4",
                    "midi": 71,
                    "time": 47.16983999999992,
                    "velocity": 0.4881889763779528,
                    "duration": 0.14740574999999723
                },
                {
                    "name": "G#5",
                    "midi": 80,
                    "time": 47.16983999999992,
                    "velocity": 0.5748031496062992,
                    "duration": 0.14740574999999723
                },
                {
                    "name": "A5",
                    "midi": 81,
                    "time": 47.75946299999992,
                    "velocity": 0.5354330708661418,
                    "duration": 0.14740574999999723
                },
                {
                    "name": "E5",
                    "midi": 76,
                    "time": 47.906868749999916,
                    "velocity": 0.4251968503937008,
                    "duration": 0.14740574999999723
                },
                {
                    "name": "C5",
                    "midi": 72,
                    "time": 48.05427449999991,
                    "velocity": 0.4251968503937008,
                    "duration": 0.14740574999999723
                },
                {
                    "name": "A4",
                    "midi": 69,
                    "time": 48.20168024999991,
                    "velocity": 0.4094488188976378,
                    "duration": 0.14740574999999723
                },
                {
                    "name": "C5",
                    "midi": 72,
                    "time": 48.34908599999991,
                    "velocity": 0.5039370078740157,
                    "duration": 0.14740574999999723
                },
                {
                    "name": "A#4",
                    "midi": 70,
                    "time": 48.496491749999905,
                    "velocity": 0.4409448818897638,
                    "duration": 0.14126384374999645
                },
                {
                    "name": "A#4",
                    "midi": 70,
                    "time": 48.6438974999999,
                    "velocity": 0.4409448818897638,
                    "duration": 0.07370287500000217
                },
                {
                    "name": "A#4",
                    "midi": 70,
                    "time": 48.791303249999906,
                    "velocity": 0.4094488188976378,
                    "duration": 0.14740574999999723
                },
                {
                    "name": "D5",
                    "midi": 74,
                    "time": 48.9387089999999,
                    "velocity": 0.5354330708661418,
                    "duration": 0.14740574999999723
                },
                {
                    "name": "C#5",
                    "midi": 73,
                    "time": 49.0861147499999,
                    "velocity": 0.4409448818897638,
                    "duration": 0.14126384375000356
                },
                {
                    "name": "C#5",
                    "midi": 73,
                    "time": 49.233520499999905,
                    "velocity": 0.4409448818897638,
                    "duration": 0.07370287500000217
                },
                {
                    "name": "C#5",
                    "midi": 73,
                    "time": 49.38092624999991,
                    "velocity": 0.4409448818897638,
                    "duration": 0.07370287500000217
                },
                {
                    "name": "E5",
                    "midi": 76,
                    "time": 49.528331999999914,
                    "velocity": 0.5590551181102362,
                    "duration": 0.14740574999999723
                },
                {
                    "name": "D5",
                    "midi": 74,
                    "time": 49.67573774999991,
                    "velocity": 0.4645669291338583,
                    "duration": 0.07370287500000217
                },
                {
                    "name": "F5",
                    "midi": 77,
                    "time": 49.823143499999915,
                    "velocity": 0.5354330708661418,
                    "duration": 0.14740574999999723
                },
                {
                    "name": "E5",
                    "midi": 76,
                    "time": 49.97054924999991,
                    "velocity": 0.4645669291338583,
                    "duration": 0.07370287500000217
                },
                {
                    "name": "G5",
                    "midi": 79,
                    "time": 50.11795499999992,
                    "velocity": 0.5826771653543307,
                    "duration": 0.14740574999999723
                },
                {
                    "name": "F5",
                    "midi": 77,
                    "time": 50.265360749999914,
                    "velocity": 0.4330708661417323,
                    "duration": 0.07370287500000217
                },
                {
                    "name": "F5",
                    "midi": 77,
                    "time": 50.41276649999992,
                    "velocity": 0.5590551181102362,
                    "duration": 0.14740574999999723
                },
                {
                    "name": "E5",
                    "midi": 76,
                    "time": 50.560172249999916,
                    "velocity": 0.47244094488188976,
                    "duration": 0.07370287500000217
                },
                {
                    "name": "E5",
                    "midi": 76,
                    "time": 50.70757799999992,
                    "velocity": 0.5669291338582677,
                    "duration": 0.14740574999999723
                },
                {
                    "name": "D#5",
                    "midi": 75,
                    "time": 50.85498374999992,
                    "velocity": 0.4881889763779528,
                    "duration": 0.07370287500000217
                },
                {
                    "name": "C6",
                    "midi": 84,
                    "time": 51.00238949999992,
                    "velocity": 0.6141732283464567,
                    "duration": 0.5896230000000031
                },
                {
                    "name": "D#5",
                    "midi": 75,
                    "time": 51.592012499999925,
                    "velocity": 0.4409448818897638,
                    "duration": 0.29481150000000156
                },
                {
                    "name": "E5",
                    "midi": 76,
                    "time": 51.886823999999926,
                    "velocity": 0.5196850393700787,
                    "duration": 0.29481150000000156
                },
                {
                    "name": "B5",
                    "midi": 83,
                    "time": 52.47644699999993,
                    "velocity": 0.5196850393700787,
                    "duration": 0.14740574999999723
                },
                {
                    "name": "G#5",
                    "midi": 80,
                    "time": 52.62385274999993,
                    "velocity": 0.4881889763779528,
                    "duration": 0.14740574999999723
                },
                {
                    "name": "E5",
                    "midi": 76,
                    "time": 52.771258499999924,
                    "velocity": 0.4881889763779528,
                    "duration": 0.14740574999999723
                },
                {
                    "name": "D5",
                    "midi": 74,
                    "time": 52.91866424999992,
                    "velocity": 0.4566929133858268,
                    "duration": 0.14740574999999723
                },
                {
                    "name": "C5",
                    "midi": 72,
                    "time": 53.06606999999992,
                    "velocity": 0.5196850393700787,
                    "duration": 0.14740574999999723
                },
                {
                    "name": "E5",
                    "midi": 76,
                    "time": 53.213475749999915,
                    "velocity": 0.48031496062992124,
                    "duration": 0.14740574999999723
                },
                {
                    "name": "A5",
                    "midi": 81,
                    "time": 53.36088149999991,
                    "velocity": 0.48031496062992124,
                    "duration": 0.14740574999999723
                },
                {
                    "name": "G#5",
                    "midi": 80,
                    "time": 53.50828724999991,
                    "velocity": 0.47244094488188976,
                    "duration": 0.14740574999999723
                },
                {
                    "name": "A5",
                    "midi": 81,
                    "time": 53.65569299999991,
                    "velocity": 0.5511811023622047,
                    "duration": 0.14740574999999723
                },
                {
                    "name": "E5",
                    "midi": 76,
                    "time": 53.803098749999904,
                    "velocity": 0.49606299212598426,
                    "duration": 0.14740574999999723
                },
                {
                    "name": "C5",
                    "midi": 72,
                    "time": 53.9505044999999,
                    "velocity": 0.49606299212598426,
                    "duration": 0.14740574999999723
                },
                {
                    "name": "A4",
                    "midi": 69,
                    "time": 54.0979102499999,
                    "velocity": 0.4645669291338583,
                    "duration": 0.14740574999999723
                },
                {
                    "name": "G#4",
                    "midi": 68,
                    "time": 54.245315999999896,
                    "velocity": 0.5511811023622047,
                    "duration": 0.14740574999999723
                },
                {
                    "name": "B4",
                    "midi": 71,
                    "time": 54.39272174999989,
                    "velocity": 0.49606299212598426,
                    "duration": 0.14740574999999723
                },
                {
                    "name": "E5",
                    "midi": 76,
                    "time": 54.54012749999989,
                    "velocity": 0.4881889763779528,
                    "duration": 0.14740574999999723
                },
                {
                    "name": "G#5",
                    "midi": 80,
                    "time": 54.68753324999989,
                    "velocity": 0.4645669291338583,
                    "duration": 0.14740574999999723
                },
                {
                    "name": "B5",
                    "midi": 83,
                    "time": 54.834938999999885,
                    "velocity": 0.5590551181102362,
                    "duration": 0.14740574999999723
                },
                {
                    "name": "G#5",
                    "midi": 80,
                    "time": 54.98234474999988,
                    "velocity": 0.4881889763779528,
                    "duration": 0.14740574999999723
                },
                {
                    "name": "E5",
                    "midi": 76,
                    "time": 55.12975049999988,
                    "velocity": 0.4881889763779528,
                    "duration": 0.14740574999999723
                },
                {
                    "name": "D5",
                    "midi": 74,
                    "time": 55.27715624999988,
                    "velocity": 0.4645669291338583,
                    "duration": 0.14740574999999723
                },
                {
                    "name": "C5",
                    "midi": 72,
                    "time": 55.424561999999874,
                    "velocity": 0.5511811023622047,
                    "duration": 0.14740574999999723
                },
                {
                    "name": "E5",
                    "midi": 76,
                    "time": 55.57196774999987,
                    "velocity": 0.49606299212598426,
                    "duration": 0.14740574999999723
                },
                {
                    "name": "A5",
                    "midi": 81,
                    "time": 55.71937349999987,
                    "velocity": 0.49606299212598426,
                    "duration": 0.14740574999999723
                },
                {
                    "name": "G#5",
                    "midi": 80,
                    "time": 55.866779249999865,
                    "velocity": 0.4645669291338583,
                    "duration": 0.14740574999999723
                },
                {
                    "name": "A5",
                    "midi": 81,
                    "time": 56.01418499999986,
                    "velocity": 0.5196850393700787,
                    "duration": 0.14740574999999723
                },
                {
                    "name": "E5",
                    "midi": 76,
                    "time": 56.16159074999986,
                    "velocity": 0.4881889763779528,
                    "duration": 0.14740574999999723
                },
                {
                    "name": "C5",
                    "midi": 72,
                    "time": 56.30899649999986,
                    "velocity": 0.4881889763779528,
                    "duration": 0.14740574999999723
                },
                {
                    "name": "A4",
                    "midi": 69,
                    "time": 56.456402249999854,
                    "velocity": 0.4645669291338583,
                    "duration": 0.14740574999999723
                },
                {
                    "name": "E4",
                    "midi": 64,
                    "time": 56.60380799999985,
                    "velocity": 0.5511811023622047,
                    "duration": 0.29481150000000156
                },
                {
                    "name": "C5",
                    "midi": 72,
                    "time": 57.193430999999855,
                    "velocity": 0.30708661417322836,
                    "duration": 0.07370287500000217
                },
                {
                    "name": "E5",
                    "midi": 76,
                    "time": 57.193430999999855,
                    "velocity": 0.36220472440944884,
                    "duration": 0.07370287500000217
                },
                {
                    "name": "C5",
                    "midi": 72,
                    "time": 57.488242499999856,
                    "velocity": 0.2677165354330709,
                    "duration": 0.07370287500000217
                },
                {
                    "name": "E5",
                    "midi": 76,
                    "time": 57.488242499999856,
                    "velocity": 0.3228346456692913,
                    "duration": 0.07370287500000217
                },
                {
                    "name": "A4",
                    "midi": 69,
                    "time": 57.78305399999986,
                    "velocity": 0.1889763779527559,
                    "duration": 0.14740574999999723
                },
                {
                    "name": "C5",
                    "midi": 72,
                    "time": 57.78305399999986,
                    "velocity": 0.3937007874015748,
                    "duration": 0.14740574999999723
                },
                {
                    "name": "B4",
                    "midi": 71,
                    "time": 58.372676999999854,
                    "velocity": 0.30708661417322836,
                    "duration": 0.07370287500000217
                },
                {
                    "name": "D5",
                    "midi": 74,
                    "time": 58.372676999999854,
                    "velocity": 0.3700787401574803,
                    "duration": 0.07370287500000217
                },
                {
                    "name": "B4",
                    "midi": 71,
                    "time": 58.667488499999855,
                    "velocity": 0.25984251968503935,
                    "duration": 0.07370287500000217
                },
                {
                    "name": "D5",
                    "midi": 74,
                    "time": 58.667488499999855,
                    "velocity": 0.30708661417322836,
                    "duration": 0.07370287500000217
                },
                {
                    "name": "G#4",
                    "midi": 68,
                    "time": 58.96229999999986,
                    "velocity": 0.31496062992125984,
                    "duration": 0.14740574999999723
                },
                {
                    "name": "B4",
                    "midi": 71,
                    "time": 58.96229999999986,
                    "velocity": 0.3779527559055118,
                    "duration": 0.14740574999999723
                },
                {
                    "name": "E4",
                    "midi": 64,
                    "time": 60.141545999999856,
                    "velocity": 0.44881889763779526,
                    "duration": 0.16214632499999482
                },
                {
                    "name": "D#4",
                    "midi": 63,
                    "time": 60.28895174999985,
                    "velocity": 0.4094488188976378,
                    "duration": 0.16214632499999482
                },
                {
                    "name": "F4",
                    "midi": 65,
                    "time": 60.43635749999985,
                    "velocity": 0.44881889763779526,
                    "duration": 0.16214632499999482
                },
                {
                    "name": "E4",
                    "midi": 64,
                    "time": 60.58376324999985,
                    "velocity": 0.4094488188976378,
                    "duration": 0.14740574999999723
                },
                {
                    "name": "E6",
                    "midi": 88,
                    "time": 61.32079199999985,
                    "velocity": 0.5984251968503937,
                    "duration": 0.14740574999999723
                },
                {
                    "name": "D#6",
                    "midi": 87,
                    "time": 61.468197749999845,
                    "velocity": 0.5039370078740157,
                    "duration": 0.14740574999999723
                },
                {
                    "name": "F6",
                    "midi": 89,
                    "time": 61.61560349999984,
                    "velocity": 0.5354330708661418,
                    "duration": 0.14740574999999723
                },
                {
                    "name": "E6",
                    "midi": 88,
                    "time": 61.76300924999984,
                    "velocity": 0.4881889763779528,
                    "duration": 0.14740574999999723
                },
                {
                    "name": "D6",
                    "midi": 86,
                    "time": 61.91041499999984,
                    "velocity": 0.5748031496062992,
                    "duration": 0.14740574999999723
                },
                {
                    "name": "C#6",
                    "midi": 85,
                    "time": 62.057820749999834,
                    "velocity": 0.49606299212598426,
                    "duration": 0.14740574999999723
                },
                {
                    "name": "E6",
                    "midi": 88,
                    "time": 62.20522649999983,
                    "velocity": 0.5590551181102362,
                    "duration": 0.14740574999999723
                },
                {
                    "name": "D6",
                    "midi": 86,
                    "time": 62.35263224999983,
                    "velocity": 0.4645669291338583,
                    "duration": 0.14126384374999645
                },
                {
                    "name": "D6",
                    "midi": 86,
                    "time": 62.500037999999826,
                    "velocity": 0.5669291338582677,
                    "duration": 0.14740574999999723
                },
                {
                    "name": "C6",
                    "midi": 84,
                    "time": 62.64744374999982,
                    "velocity": 0.4881889763779528,
                    "duration": 0.1105543124999997
                },
                {
                    "name": "C6",
                    "midi": 84,
                    "time": 62.79484949999982,
                    "velocity": 0.5275590551181102,
                    "duration": 0.07370287500000217
                },
                {
                    "name": "B5",
                    "midi": 83,
                    "time": 62.942255249999825,
                    "velocity": 0.48031496062992124,
                    "duration": 0.14740574999999723
                },
                {
                    "name": "B5",
                    "midi": 83,
                    "time": 63.08966099999982,
                    "velocity": 0.5590551181102362,
                    "duration": 0.1105543124999997
                },
                {
                    "name": "A5",
                    "midi": 81,
                    "time": 63.23706674999982,
                    "velocity": 0.4645669291338583,
                    "duration": 0.14740574999999723
                },
                {
                    "name": "A5",
                    "midi": 81,
                    "time": 63.384472499999816,
                    "velocity": 0.5354330708661418,
                    "duration": 0.07370287500000217
                },
                {
                    "name": "G5",
                    "midi": 79,
                    "time": 63.53187824999982,
                    "velocity": 0.44881889763779526,
                    "duration": 0.07370287500000217
                },
                {
                    "name": "G5",
                    "midi": 79,
                    "time": 63.679283999999825,
                    "velocity": 0.5433070866141733,
                    "duration": 0.14740574999999723
                },
                {
                    "name": "F5",
                    "midi": 77,
                    "time": 63.82668974999982,
                    "velocity": 0.44881889763779526,
                    "duration": 0.07370287500000217
                },
                {
                    "name": "F5",
                    "midi": 77,
                    "time": 63.97409549999983,
                    "velocity": 0.5118110236220472,
                    "duration": 0.14740574999999723
                },
                {
                    "name": "E5",
                    "midi": 76,
                    "time": 64.12150124999982,
                    "velocity": 0.44881889763779526,
                    "duration": 0.07370287499999506
                },
                {
                    "name": "E5",
                    "midi": 76,
                    "time": 64.26890699999981,
                    "velocity": 0.5039370078740157,
                    "duration": 0.14740575000000433
                },
                {
                    "name": "D5",
                    "midi": 74,
                    "time": 64.41631274999982,
                    "velocity": 0.4409448818897638,
                    "duration": 0.07370287499999506
                },
                {
                    "name": "D5",
                    "midi": 74,
                    "time": 64.56371849999981,
                    "velocity": 0.4881889763779528,
                    "duration": 0.14740575000000433
                },
                {
                    "name": "C5",
                    "midi": 72,
                    "time": 64.71112424999981,
                    "velocity": 0.4330708661417323,
                    "duration": 0.07370287499999506
                },
                {
                    "name": "A#4",
                    "midi": 70,
                    "time": 64.8585299999998,
                    "velocity": 0.5196850393700787,
                    "duration": 0.14740575000000433
                },
                {
                    "name": "F5",
                    "midi": 77,
                    "time": 65.00593574999981,
                    "velocity": 0.4251968503937008,
                    "duration": 0.14740575000000433
                },
                {
                    "name": "D5",
                    "midi": 74,
                    "time": 65.15334149999981,
                    "velocity": 0.44881889763779526,
                    "duration": 0.14740575000000433
                },
                {
                    "name": "A#4",
                    "midi": 70,
                    "time": 65.30074724999982,
                    "velocity": 0.41732283464566927,
                    "duration": 0.14740575000000433
                },
                {
                    "name": "A4",
                    "midi": 69,
                    "time": 65.44815299999982,
                    "velocity": 0.47244094488188976,
                    "duration": 0.29481149999999445
                },
                {
                    "name": "G#4",
                    "midi": 68,
                    "time": 65.74296449999981,
                    "velocity": 0.4409448818897638,
                    "duration": 0.29481149999999445
                },
                {
                    "name": "A4",
                    "midi": 69,
                    "time": 66.03777599999981,
                    "velocity": 0.5196850393700787,
                    "duration": 0.29481149999999445
                },
                {
                    "name": "G#4",
                    "midi": 68,
                    "time": 66.6273989999998,
                    "velocity": 0.5196850393700787,
                    "duration": 0.14740575000000433
                },
                {
                    "name": "D5",
                    "midi": 74,
                    "time": 66.7748047499998,
                    "velocity": 0.4881889763779528,
                    "duration": 0.14740575000000433
                },
                {
                    "name": "B4",
                    "midi": 71,
                    "time": 66.9222104999998,
                    "velocity": 0.4881889763779528,
                    "duration": 0.14740575000000433
                },
                {
                    "name": "G#4",
                    "midi": 68,
                    "time": 67.06961624999981,
                    "velocity": 0.4566929133858268,
                    "duration": 0.14740575000000433
                },
                {
                    "name": "A4",
                    "midi": 69,
                    "time": 67.21702199999982,
                    "velocity": 0.5196850393700787,
                    "duration": 0.29481149999999445
                },
                {
                    "name": "G#4",
                    "midi": 68,
                    "time": 67.8066449999998,
                    "velocity": 0.5511811023622047,
                    "duration": 0.14740575000000433
                },
                {
                    "name": "D5",
                    "midi": 74,
                    "time": 67.95405074999981,
                    "velocity": 0.49606299212598426,
                    "duration": 0.14740575000000433
                },
                {
                    "name": "B4",
                    "midi": 71,
                    "time": 68.10145649999981,
                    "velocity": 0.49606299212598426,
                    "duration": 0.14740575000000433
                },
                {
                    "name": "G#4",
                    "midi": 68,
                    "time": 68.24886224999982,
                    "velocity": 0.4645669291338583,
                    "duration": 0.14740575000000433
                },
                {
                    "name": "A4",
                    "midi": 69,
                    "time": 68.39626799999982,
                    "velocity": 0.5196850393700787,
                    "duration": 0.29481149999999445
                },
                {
                    "name": "G#4",
                    "midi": 68,
                    "time": 68.98589099999981,
                    "velocity": 0.5196850393700787,
                    "duration": 0.14740575000000433
                },
                {
                    "name": "D5",
                    "midi": 74,
                    "time": 69.13329674999981,
                    "velocity": 0.47244094488188976,
                    "duration": 0.14740575000000433
                },
                {
                    "name": "B4",
                    "midi": 71,
                    "time": 69.28070249999982,
                    "velocity": 0.47244094488188976,
                    "duration": 0.14740575000000433
                },
                {
                    "name": "G#4",
                    "midi": 68,
                    "time": 69.42810824999982,
                    "velocity": 0.4251968503937008,
                    "duration": 0.14740575000000433
                },
                {
                    "name": "A4",
                    "midi": 69,
                    "time": 69.57551399999983,
                    "velocity": 0.5433070866141733,
                    "duration": 0.14740575000000433
                },
                {
                    "name": "E5",
                    "midi": 76,
                    "time": 69.72291974999983,
                    "velocity": 0.5039370078740157,
                    "duration": 0.14740575000000433
                },
                {
                    "name": "C5",
                    "midi": 72,
                    "time": 69.87032549999984,
                    "velocity": 0.5039370078740157,
                    "duration": 0.14740575000000433
                },
                {
                    "name": "A4",
                    "midi": 69,
                    "time": 70.01773124999984,
                    "velocity": 0.4566929133858268,
                    "duration": 0.14740575000000433
                },
                {
                    "name": "B4",
                    "midi": 71,
                    "time": 70.16513699999985,
                    "velocity": 0.6062992125984252,
                    "duration": 0.14740575000000433
                },
                {
                    "name": "F5",
                    "midi": 77,
                    "time": 70.31254274999985,
                    "velocity": 0.5196850393700787,
                    "duration": 0.14740575000000433
                },
                {
                    "name": "D5",
                    "midi": 74,
                    "time": 70.45994849999985,
                    "velocity": 0.5196850393700787,
                    "duration": 0.14740575000000433
                },
                {
                    "name": "B4",
                    "midi": 71,
                    "time": 70.60735424999986,
                    "velocity": 0.4645669291338583,
                    "duration": 0.14740575000000433
                },
                {
                    "name": "E5",
                    "midi": 76,
                    "time": 71.34438299999987,
                    "velocity": 0.33070866141732286,
                    "duration": 0.07370287499999506
                },
                {
                    "name": "G5",
                    "midi": 79,
                    "time": 71.34438299999987,
                    "velocity": 0.3937007874015748,
                    "duration": 0.07370287499999506
                },
                {
                    "name": "E5",
                    "midi": 76,
                    "time": 71.63919449999986,
                    "velocity": 0.28346456692913385,
                    "duration": 0.07370287499999506
                },
                {
                    "name": "G5",
                    "midi": 79,
                    "time": 71.63919449999986,
                    "velocity": 0.33858267716535434,
                    "duration": 0.07370287499999506
                },
                {
                    "name": "C5",
                    "midi": 72,
                    "time": 71.93400599999985,
                    "velocity": 0.31496062992125984,
                    "duration": 0.2211086249999994
                },
                {
                    "name": "E5",
                    "midi": 76,
                    "time": 71.93400599999985,
                    "velocity": 0.3779527559055118,
                    "duration": 0.2211086249999994
                },
                {
                    "name": "D5",
                    "midi": 74,
                    "time": 72.52362899999986,
                    "velocity": 0.33070866141732286,
                    "duration": 0.07370287499999506
                },
                {
                    "name": "F5",
                    "midi": 77,
                    "time": 72.52362899999986,
                    "velocity": 0.3937007874015748,
                    "duration": 0.07370287499999506
                },
                {
                    "name": "D5",
                    "midi": 74,
                    "time": 72.81844049999985,
                    "velocity": 0.29133858267716534,
                    "duration": 0.07370287499999506
                },
                {
                    "name": "F5",
                    "midi": 77,
                    "time": 72.81844049999985,
                    "velocity": 0.3464566929133858,
                    "duration": 0.07370287499999506
                },
                {
                    "name": "B4",
                    "midi": 71,
                    "time": 73.11325199999985,
                    "velocity": 0.3228346456692913,
                    "duration": 0.2211086249999994
                },
                {
                    "name": "D5",
                    "midi": 74,
                    "time": 73.11325199999985,
                    "velocity": 0.3858267716535433,
                    "duration": 0.2211086249999994
                },
                {
                    "name": "C5",
                    "midi": 72,
                    "time": 73.70287499999985,
                    "velocity": 0.41732283464566927,
                    "duration": 0.16214632500000903
                },
                {
                    "name": "D5",
                    "midi": 74,
                    "time": 73.85028074999985,
                    "velocity": 0.3700787401574803,
                    "duration": 0.16214632500000903
                },
                {
                    "name": "E5",
                    "midi": 76,
                    "time": 73.99768649999986,
                    "velocity": 0.41732283464566927,
                    "duration": 0.16214632500000903
                },
                {
                    "name": "C5",
                    "midi": 72,
                    "time": 74.14509224999986,
                    "velocity": 0.3700787401574803,
                    "duration": 0.16214632500000903
                },
                {
                    "name": "A4",
                    "midi": 69,
                    "time": 74.29249799999987,
                    "velocity": 0.3937007874015748,
                    "duration": 0.16214632500000903
                },
                {
                    "name": "B4",
                    "midi": 71,
                    "time": 74.43990374999987,
                    "velocity": 0.41732283464566927,
                    "duration": 0.16214632500000903
                },
                {
                    "name": "C5",
                    "midi": 72,
                    "time": 74.58730949999988,
                    "velocity": 0.4566929133858268,
                    "duration": 0.16214632500000903
                },
                {
                    "name": "C#5",
                    "midi": 73,
                    "time": 74.73471524999988,
                    "velocity": 0.4881889763779528,
                    "duration": 0.16214632500000903
                },
                {
                    "name": "D5",
                    "midi": 74,
                    "time": 74.88212099999988,
                    "velocity": 0.5196850393700787,
                    "duration": 0.16214632500000903
                },
                {
                    "name": "E5",
                    "midi": 76,
                    "time": 75.02952674999989,
                    "velocity": 0.4409448818897638,
                    "duration": 0.16214632500000903
                },
                {
                    "name": "F5",
                    "midi": 77,
                    "time": 75.1769324999999,
                    "velocity": 0.4881889763779528,
                    "duration": 0.16214632500000903
                },
                {
                    "name": "D5",
                    "midi": 74,
                    "time": 75.3243382499999,
                    "velocity": 0.47244094488188976,
                    "duration": 0.16214632500000903
                },
                {
                    "name": "C5",
                    "midi": 72,
                    "time": 75.4717439999999,
                    "velocity": 0.5275590551181102,
                    "duration": 0.16214632500000903
                },
                {
                    "name": "B4",
                    "midi": 71,
                    "time": 75.6191497499999,
                    "velocity": 0.4881889763779528,
                    "duration": 0.16214632500000903
                },
                {
                    "name": "A4",
                    "midi": 69,
                    "time": 75.76655549999991,
                    "velocity": 0.4566929133858268,
                    "duration": 0.16214632500000903
                },
                {
                    "name": "G4",
                    "midi": 67,
                    "time": 75.91396124999991,
                    "velocity": 0.3700787401574803,
                    "duration": 0.14740575000000433
                },
                {
                    "name": "E5",
                    "midi": 76,
                    "time": 76.06136699999992,
                    "velocity": 0.33070866141732286,
                    "duration": 0.07370287499999506
                },
                {
                    "name": "G5",
                    "midi": 79,
                    "time": 76.06136699999992,
                    "velocity": 0.3937007874015748,
                    "duration": 0.07370287499999506
                },
                {
                    "name": "E5",
                    "midi": 76,
                    "time": 76.35617849999991,
                    "velocity": 0.28346456692913385,
                    "duration": 0.07370287499999506
                },
                {
                    "name": "G5",
                    "midi": 79,
                    "time": 76.35617849999991,
                    "velocity": 0.33858267716535434,
                    "duration": 0.07370287499999506
                },
                {
                    "name": "C5",
                    "midi": 72,
                    "time": 76.65098999999991,
                    "velocity": 0.31496062992125984,
                    "duration": 0.2211086249999994
                },
                {
                    "name": "E5",
                    "midi": 76,
                    "time": 76.65098999999991,
                    "velocity": 0.3779527559055118,
                    "duration": 0.2211086249999994
                },
                {
                    "name": "F5",
                    "midi": 77,
                    "time": 77.24061299999991,
                    "velocity": 0.4881889763779528,
                    "duration": 0.07370287499999506
                },
                {
                    "name": "A5",
                    "midi": 81,
                    "time": 77.24061299999991,
                    "velocity": 0.4881889763779528,
                    "duration": 0.07370287499999506
                },
                {
                    "name": "F5",
                    "midi": 77,
                    "time": 77.5354244999999,
                    "velocity": 0.4330708661417323,
                    "duration": 0.07370287499999506
                },
                {
                    "name": "A5",
                    "midi": 81,
                    "time": 77.5354244999999,
                    "velocity": 0.4330708661417323,
                    "duration": 0.07370287499999506
                },
                {
                    "name": "B4",
                    "midi": 71,
                    "time": 77.8302359999999,
                    "velocity": 0.47244094488188976,
                    "duration": 0.2211086249999994
                },
                {
                    "name": "D5",
                    "midi": 74,
                    "time": 77.8302359999999,
                    "velocity": 0.47244094488188976,
                    "duration": 0.2211086249999994
                },
                {
                    "name": "A5",
                    "midi": 81,
                    "time": 78.4198589999999,
                    "velocity": 0.5511811023622047,
                    "duration": 0.16214632500000903
                },
                {
                    "name": "G5",
                    "midi": 79,
                    "time": 78.56726474999991,
                    "velocity": 0.5275590551181102,
                    "duration": 0.16214632500000903
                },
                {
                    "name": "F5",
                    "midi": 77,
                    "time": 78.71467049999991,
                    "velocity": 0.5039370078740157,
                    "duration": 0.16214632500000903
                },
                {
                    "name": "E5",
                    "midi": 76,
                    "time": 78.86207624999992,
                    "velocity": 0.48031496062992124,
                    "duration": 0.14740575000000433
                },
                {
                    "name": "C#5",
                    "midi": 73,
                    "time": 79.00948199999992,
                    "velocity": 0.44881889763779526,
                    "duration": 0.16214632500000903
                },
                {
                    "name": "D5",
                    "midi": 74,
                    "time": 79.15688774999992,
                    "velocity": 0.4566929133858268,
                    "duration": 0.16214632500000903
                },
                {
                    "name": "E5",
                    "midi": 76,
                    "time": 79.30429349999993,
                    "velocity": 0.4645669291338583,
                    "duration": 0.16214632500000903
                },
                {
                    "name": "F5",
                    "midi": 77,
                    "time": 79.45169924999993,
                    "velocity": 0.4409448818897638,
                    "duration": 0.14740575000000433
                },
                {
                    "name": "A4",
                    "midi": 69,
                    "time": 79.59910499999994,
                    "velocity": 0.47244094488188976,
                    "duration": 0.14740575000000433
                },
                {
                    "name": "C5",
                    "midi": 72,
                    "time": 79.74651074999994,
                    "velocity": 0.4094488188976378,
                    "duration": 0.14740575000000433
                },
                {
                    "name": "B4",
                    "midi": 71,
                    "time": 79.89391649999995,
                    "velocity": 0.4566929133858268,
                    "duration": 0.14740575000000433
                },
                {
                    "name": "D5",
                    "midi": 74,
                    "time": 80.04132224999995,
                    "velocity": 0.3937007874015748,
                    "duration": 0.14740575000000433
                },
                {
                    "name": "C5",
                    "midi": 72,
                    "time": 80.18872799999995,
                    "velocity": 0.4409448818897638,
                    "duration": 0.29481149999999445
                },
                {
                    "name": "B4",
                    "midi": 71,
                    "time": 80.77835099999994,
                    "velocity": 0.48031496062992124,
                    "duration": 0.14740575000000433
                },
                {
                    "name": "F5",
                    "midi": 77,
                    "time": 80.92575674999995,
                    "velocity": 0.4409448818897638,
                    "duration": 0.14740575000000433
                },
                {
                    "name": "D5",
                    "midi": 74,
                    "time": 81.07316249999995,
                    "velocity": 0.4409448818897638,
                    "duration": 0.14740575000000433
                },
                {
                    "name": "B4",
                    "midi": 71,
                    "time": 81.22056824999996,
                    "velocity": 0.4409448818897638,
                    "duration": 0.14740575000000433
                },
                {
                    "name": "A5",
                    "midi": 81,
                    "time": 81.36797399999996,
                    "velocity": 0.48031496062992124,
                    "duration": 0.14740575000000433
                },
                {
                    "name": "G5",
                    "midi": 79,
                    "time": 81.51537974999997,
                    "velocity": 0.44881889763779526,
                    "duration": 0.14740575000000433
                },
                {
                    "name": "F5",
                    "midi": 77,
                    "time": 81.66278549999997,
                    "velocity": 0.4645669291338583,
                    "duration": 0.14740575000000433
                },
                {
                    "name": "E5",
                    "midi": 76,
                    "time": 81.81019124999997,
                    "velocity": 0.48031496062992124,
                    "duration": 0.14740575000000433
                },
                {
                    "name": "D5",
                    "midi": 74,
                    "time": 81.95759699999998,
                    "velocity": 0.5354330708661418,
                    "duration": 0.14740575000000433
                },
                {
                    "name": "F5",
                    "midi": 77,
                    "time": 82.10500274999998,
                    "velocity": 0.4881889763779528,
                    "duration": 0.14740575000000433
                },
                {
                    "name": "D5",
                    "midi": 74,
                    "time": 82.25240849999999,
                    "velocity": 0.48031496062992124,
                    "duration": 0.14740575000000433
                },
                {
                    "name": "B4",
                    "midi": 71,
                    "time": 82.39981424999999,
                    "velocity": 0.48031496062992124,
                    "duration": 0.14740575000000433
                },
                {
                    "name": "A5",
                    "midi": 81,
                    "time": 82.54722,
                    "velocity": 0.5669291338582677,
                    "duration": 0.14740575000000433
                },
                {
                    "name": "G5",
                    "midi": 79,
                    "time": 82.69462575,
                    "velocity": 0.48031496062992124,
                    "duration": 0.14740575000000433
                },
                {
                    "name": "F5",
                    "midi": 77,
                    "time": 82.8420315,
                    "velocity": 0.48031496062992124,
                    "duration": 0.14740575000000433
                },
                {
                    "name": "E5",
                    "midi": 76,
                    "time": 82.98943725000001,
                    "velocity": 0.48031496062992124,
                    "duration": 0.14740575000000433
                },
                {
                    "name": "D6",
                    "midi": 86,
                    "time": 83.13684300000001,
                    "velocity": 0.5826771653543307,
                    "duration": 0.14740575000000433
                },
                {
                    "name": "C6",
                    "midi": 84,
                    "time": 83.28424875000002,
                    "velocity": 0.5039370078740157,
                    "duration": 0.14740575000000433
                },
                {
                    "name": "B5",
                    "midi": 83,
                    "time": 83.43165450000002,
                    "velocity": 0.5039370078740157,
                    "duration": 0.14740575000000433
                },
                {
                    "name": "A5",
                    "midi": 81,
                    "time": 83.57906025000003,
                    "velocity": 0.5039370078740157,
                    "duration": 0.14126384374999645
                },
                {
                    "name": "A5",
                    "midi": 81,
                    "time": 83.72646600000002,
                    "velocity": 0.5590551181102362,
                    "duration": 0.14740575000000433
                },
                {
                    "name": "G5",
                    "midi": 79,
                    "time": 83.87387175000002,
                    "velocity": 0.48031496062992124,
                    "duration": 0.14740575000000433
                },
                {
                    "name": "F5",
                    "midi": 77,
                    "time": 84.02127750000002,
                    "velocity": 0.48031496062992124,
                    "duration": 0.07370287499999506
                },
                {
                    "name": "E5",
                    "midi": 76,
                    "time": 84.16868325000002,
                    "velocity": 0.48031496062992124,
                    "duration": 0.07370287499999506
                },
                {
                    "name": "E5",
                    "midi": 76,
                    "time": 84.316089,
                    "velocity": 0.5275590551181102,
                    "duration": 0.14740575000000433
                },
                {
                    "name": "D5",
                    "midi": 74,
                    "time": 84.46349475000001,
                    "velocity": 0.44881889763779526,
                    "duration": 0.14740575000000433
                },
                {
                    "name": "C5",
                    "midi": 72,
                    "time": 84.61090050000001,
                    "velocity": 0.44881889763779526,
                    "duration": 0.07370287499999506
                },
                {
                    "name": "B4",
                    "midi": 71,
                    "time": 84.75830625,
                    "velocity": 0.44881889763779526,
                    "duration": 0.07370287499999506
                },
                {
                    "name": "D5",
                    "midi": 74,
                    "time": 84.905712,
                    "velocity": 0.48031496062992124,
                    "duration": 0.29481149999999445
                },
                {
                    "name": "C5",
                    "midi": 72,
                    "time": 85.20052349999999,
                    "velocity": 0.44881889763779526,
                    "duration": 0.29481149999999445
                },
                {
                    "name": "B4",
                    "midi": 71,
                    "time": 85.49533499999998,
                    "velocity": 0.48031496062992124,
                    "duration": 0.14740575000000433
                },
                {
                    "name": "F5",
                    "midi": 77,
                    "time": 85.64274074999999,
                    "velocity": 0.4409448818897638,
                    "duration": 0.14740575000000433
                },
                {
                    "name": "D5",
                    "midi": 74,
                    "time": 85.79014649999999,
                    "velocity": 0.4409448818897638,
                    "duration": 0.14740575000000433
                },
                {
                    "name": "B4",
                    "midi": 71,
                    "time": 85.93755225,
                    "velocity": 0.4409448818897638,
                    "duration": 0.14740575000000433
                },
                {
                    "name": "A5",
                    "midi": 81,
                    "time": 86.084958,
                    "velocity": 0.48031496062992124,
                    "duration": 0.14740575000000433
                },
                {
                    "name": "G5",
                    "midi": 79,
                    "time": 86.23236375,
                    "velocity": 0.44881889763779526,
                    "duration": 0.14740575000000433
                },
                {
                    "name": "F5",
                    "midi": 77,
                    "time": 86.37976950000001,
                    "velocity": 0.4645669291338583,
                    "duration": 0.14740575000000433
                },
                {
                    "name": "E5",
                    "midi": 76,
                    "time": 86.52717525000001,
                    "velocity": 0.48031496062992124,
                    "duration": 0.14740575000000433
                },
                {
                    "name": "D5",
                    "midi": 74,
                    "time": 86.67458100000002,
                    "velocity": 0.5354330708661418,
                    "duration": 0.14740575000000433
                },
                {
                    "name": "F5",
                    "midi": 77,
                    "time": 86.82198675000002,
                    "velocity": 0.4881889763779528,
                    "duration": 0.14740575000000433
                },
                {
                    "name": "D5",
                    "midi": 74,
                    "time": 86.96939250000003,
                    "velocity": 0.48031496062992124,
                    "duration": 0.14740575000000433
                },
                {
                    "name": "B4",
                    "midi": 71,
                    "time": 87.11679825000003,
                    "velocity": 0.48031496062992124,
                    "duration": 0.14740575000000433
                },
                {
                    "name": "A5",
                    "midi": 81,
                    "time": 87.26420400000003,
                    "velocity": 0.5669291338582677,
                    "duration": 0.14740575000000433
                },
                {
                    "name": "G5",
                    "midi": 79,
                    "time": 87.41160975000004,
                    "velocity": 0.48031496062992124,
                    "duration": 0.14740575000000433
                },
                {
                    "name": "F5",
                    "midi": 77,
                    "time": 87.55901550000004,
                    "velocity": 0.48031496062992124,
                    "duration": 0.14740575000000433
                },
                {
                    "name": "E5",
                    "midi": 76,
                    "time": 87.70642125000005,
                    "velocity": 0.48031496062992124,
                    "duration": 0.14740575000000433
                },
                {
                    "name": "D6",
                    "midi": 86,
                    "time": 87.85382700000005,
                    "velocity": 0.6062992125984252,
                    "duration": 0.14740575000000433
                },
                {
                    "name": "C6",
                    "midi": 84,
                    "time": 88.00123275000006,
                    "velocity": 0.5039370078740157,
                    "duration": 0.14740575000000433
                },
                {
                    "name": "B5",
                    "midi": 83,
                    "time": 88.14863850000006,
                    "velocity": 0.5039370078740157,
                    "duration": 0.14740575000000433
                },
                {
                    "name": "A5",
                    "midi": 81,
                    "time": 88.29604425000007,
                    "velocity": 0.5039370078740157,
                    "duration": 0.14126384374999645
                },
                {
                    "name": "A5",
                    "midi": 81,
                    "time": 88.44345000000006,
                    "velocity": 0.6299212598425197,
                    "duration": 0.14740575000000433
                },
                {
                    "name": "G5",
                    "midi": 79,
                    "time": 88.59085575000006,
                    "velocity": 0.5433070866141733,
                    "duration": 0.14740575000000433
                },
                {
                    "name": "F5",
                    "midi": 77,
                    "time": 88.73826150000006,
                    "velocity": 0.5511811023622047,
                    "duration": 0.07370287499999506
                },
                {
                    "name": "E5",
                    "midi": 76,
                    "time": 88.88566725000005,
                    "velocity": 0.5590551181102362,
                    "duration": 0.07370287499999506
                },
                {
                    "name": "E5",
                    "midi": 76,
                    "time": 89.03307300000004,
                    "velocity": 0.6535433070866141,
                    "duration": 0.14740575000000433
                },
                {
                    "name": "D5",
                    "midi": 74,
                    "time": 89.18047875000005,
                    "velocity": 0.5590551181102362,
                    "duration": 0.14740575000000433
                },
                {
                    "name": "C5",
                    "midi": 72,
                    "time": 89.32788450000005,
                    "velocity": 0.5433070866141733,
                    "duration": 0.07370287499999506
                },
                {
                    "name": "B4",
                    "midi": 71,
                    "time": 89.47529025000004,
                    "velocity": 0.5905511811023622,
                    "duration": 0.07370287499999506
                },
                {
                    "name": "C5",
                    "midi": 72,
                    "time": 89.62269600000003,
                    "velocity": 0.6771653543307087,
                    "duration": 0.14740575000000433
                },
                {
                    "name": "E5",
                    "midi": 76,
                    "time": 89.77010175000004,
                    "velocity": 0.5905511811023622,
                    "duration": 0.14740575000000433
                },
                {
                    "name": "G4",
                    "midi": 67,
                    "time": 89.91750750000004,
                    "velocity": 0.6299212598425197,
                    "duration": 0.14740575000000433
                },
                {
                    "name": "C5",
                    "midi": 72,
                    "time": 90.06491325000005,
                    "velocity": 0.5905511811023622,
                    "duration": 0.14740575000000433
                },
                {
                    "name": "E4",
                    "midi": 64,
                    "time": 90.21231900000005,
                    "velocity": 0.6299212598425197,
                    "duration": 0.14740575000000433
                },
                {
                    "name": "G4",
                    "midi": 67,
                    "time": 90.35972475000005,
                    "velocity": 0.5905511811023622,
                    "duration": 0.14740575000000433
                },
                {
                    "name": "C4",
                    "midi": 60,
                    "time": 90.50713050000006,
                    "velocity": 0.6299212598425197,
                    "duration": 0.14740575000000433
                },
                {
                    "name": "E4",
                    "midi": 64,
                    "time": 90.65453625000006,
                    "velocity": 0.5905511811023622,
                    "duration": 0.14740575000000433
                },
                {
                    "name": "G4",
                    "midi": 67,
                    "time": 90.80194200000007,
                    "velocity": 0.5590551181102362,
                    "duration": 0.14740575000000433
                },
                {
                    "name": "C5",
                    "midi": 72,
                    "time": 90.94934775000007,
                    "velocity": 0.5748031496062992,
                    "duration": 0.14740575000000433
                },
                {
                    "name": "C5",
                    "midi": 72,
                    "time": 91.09675350000008,
                    "velocity": 0.4881889763779528,
                    "duration": 0.14740575000000433
                },
                {
                    "name": "E5",
                    "midi": 76,
                    "time": 91.09675350000008,
                    "velocity": 0.5826771653543307,
                    "duration": 0.14740575000000433
                },
                {
                    "name": "E5",
                    "midi": 76,
                    "time": 91.24415925000008,
                    "velocity": 0.49606299212598426,
                    "duration": 0.1105543124999997
                },
                {
                    "name": "G5",
                    "midi": 79,
                    "time": 91.24415925000008,
                    "velocity": 0.6062992125984252,
                    "duration": 0.1105543124999997
                },
                {
                    "name": "E5",
                    "midi": 76,
                    "time": 91.39156500000009,
                    "velocity": 0.5275590551181102,
                    "duration": 0.14740575000000433
                },
                {
                    "name": "G5",
                    "midi": 79,
                    "time": 91.39156500000009,
                    "velocity": 0.6299212598425197,
                    "duration": 0.14740575000000433
                },
                {
                    "name": "D5",
                    "midi": 74,
                    "time": 91.53897075000009,
                    "velocity": 0.49606299212598426,
                    "duration": 0.14740575000000433
                },
                {
                    "name": "F5",
                    "midi": 77,
                    "time": 91.53897075000009,
                    "velocity": 0.5905511811023622,
                    "duration": 0.14740575000000433
                },
                {
                    "name": "C5",
                    "midi": 72,
                    "time": 91.6863765000001,
                    "velocity": 0.4881889763779528,
                    "duration": 0.07370287499999506
                },
                {
                    "name": "E5",
                    "midi": 76,
                    "time": 91.6863765000001,
                    "velocity": 0.5826771653543307,
                    "duration": 0.07370287499999506
                },
                {
                    "name": "B4",
                    "midi": 71,
                    "time": 91.83378225000008,
                    "velocity": 0.48031496062992124,
                    "duration": 0.07370287499999506
                },
                {
                    "name": "D5",
                    "midi": 74,
                    "time": 91.83378225000008,
                    "velocity": 0.5748031496062992,
                    "duration": 0.07370287499999506
                },
                {
                    "name": "C5",
                    "midi": 72,
                    "time": 91.98118800000007,
                    "velocity": 0.6535433070866141,
                    "duration": 0.14740575000000433
                },
                {
                    "name": "E5",
                    "midi": 76,
                    "time": 92.12859375000008,
                    "velocity": 0.5748031496062992,
                    "duration": 0.14740575000000433
                },
                {
                    "name": "G4",
                    "midi": 67,
                    "time": 92.27599950000008,
                    "velocity": 0.6062992125984252,
                    "duration": 0.14740575000000433
                },
                {
                    "name": "C5",
                    "midi": 72,
                    "time": 92.42340525000009,
                    "velocity": 0.5669291338582677,
                    "duration": 0.14740575000000433
                },
                {
                    "name": "E4",
                    "midi": 64,
                    "time": 92.57081100000009,
                    "velocity": 0.6535433070866141,
                    "duration": 0.14740575000000433
                },
                {
                    "name": "G4",
                    "midi": 67,
                    "time": 92.7182167500001,
                    "velocity": 0.5590551181102362,
                    "duration": 0.14740575000000433
                },
                {
                    "name": "C4",
                    "midi": 60,
                    "time": 92.8656225000001,
                    "velocity": 0.6141732283464567,
                    "duration": 0.14740575000000433
                },
                {
                    "name": "E4",
                    "midi": 64,
                    "time": 93.0130282500001,
                    "velocity": 0.5826771653543307,
                    "duration": 0.14740575000000433
                },
                {
                    "name": "G4",
                    "midi": 67,
                    "time": 93.16043400000011,
                    "velocity": 0.5590551181102362,
                    "duration": 0.14740575000000433
                },
                {
                    "name": "C5",
                    "midi": 72,
                    "time": 93.30783975000011,
                    "velocity": 0.5748031496062992,
                    "duration": 0.14740575000000433
                },
                {
                    "name": "C5",
                    "midi": 72,
                    "time": 93.45524550000012,
                    "velocity": 0.4881889763779528,
                    "duration": 0.14740575000000433
                },
                {
                    "name": "E5",
                    "midi": 76,
                    "time": 93.45524550000012,
                    "velocity": 0.5826771653543307,
                    "duration": 0.14740575000000433
                },
                {
                    "name": "E5",
                    "midi": 76,
                    "time": 93.60265125000012,
                    "velocity": 0.49606299212598426,
                    "duration": 0.1105543124999997
                },
                {
                    "name": "G5",
                    "midi": 79,
                    "time": 93.60265125000012,
                    "velocity": 0.6062992125984252,
                    "duration": 0.1105543124999997
                },
                {
                    "name": "E5",
                    "midi": 76,
                    "time": 93.75005700000013,
                    "velocity": 0.5275590551181102,
                    "duration": 0.14740575000000433
                },
                {
                    "name": "G5",
                    "midi": 79,
                    "time": 93.75005700000013,
                    "velocity": 0.6299212598425197,
                    "duration": 0.14740575000000433
                },
                {
                    "name": "D5",
                    "midi": 74,
                    "time": 93.89746275000013,
                    "velocity": 0.49606299212598426,
                    "duration": 0.14740575000000433
                },
                {
                    "name": "F5",
                    "midi": 77,
                    "time": 93.89746275000013,
                    "velocity": 0.5905511811023622,
                    "duration": 0.14740575000000433
                },
                {
                    "name": "C5",
                    "midi": 72,
                    "time": 94.04486850000013,
                    "velocity": 0.4881889763779528,
                    "duration": 0.07370287499999506
                },
                {
                    "name": "E5",
                    "midi": 76,
                    "time": 94.04486850000013,
                    "velocity": 0.5826771653543307,
                    "duration": 0.07370287499999506
                },
                {
                    "name": "B4",
                    "midi": 71,
                    "time": 94.19227425000012,
                    "velocity": 0.48031496062992124,
                    "duration": 0.07370287499999506
                },
                {
                    "name": "D5",
                    "midi": 74,
                    "time": 94.19227425000012,
                    "velocity": 0.5748031496062992,
                    "duration": 0.07370287499999506
                },
                {
                    "name": "C5",
                    "midi": 72,
                    "time": 94.33968000000012,
                    "velocity": 0.6929133858267716,
                    "duration": 0.29481149999999445
                },
                {
                    "name": "C6",
                    "midi": 84,
                    "time": 94.63449150000011,
                    "velocity": 0.6299212598425197,
                    "duration": 0.2211086249999994
                },
                {
                    "name": "G5",
                    "midi": 79,
                    "time": 94.63449150000011,
                    "velocity": 0.5275590551181102,
                    "duration": 0.2211086249999994
                },
                {
                    "name": "E5",
                    "midi": 76,
                    "time": 94.63449150000011,
                    "velocity": 0.5275590551181102,
                    "duration": 0.2211086249999994
                },
                {
                    "name": "E4",
                    "midi": 64,
                    "time": 94.9293030000001,
                    "velocity": 0.5669291338582677,
                    "duration": 0.2211086249999994
                },
                {
                    "name": "C5",
                    "midi": 72,
                    "time": 94.9293030000001,
                    "velocity": 0.6692913385826772,
                    "duration": 0.2211086249999994
                },
                {
                    "name": "E4",
                    "midi": 64,
                    "time": 95.2241145000001,
                    "velocity": 0.5275590551181102,
                    "duration": 0.2211086249999994
                },
                {
                    "name": "C5",
                    "midi": 72,
                    "time": 95.2241145000001,
                    "velocity": 0.6535433070866141,
                    "duration": 0.2211086249999994
                },
                {
                    "name": "E4",
                    "midi": 64,
                    "time": 95.51892600000009,
                    "velocity": 0.5748031496062992,
                    "duration": 0.5896230000000031
                },
                {
                    "name": "C5",
                    "midi": 72,
                    "time": 95.51892600000009,
                    "velocity": 0.6771653543307087,
                    "duration": 0.5896230000000031
                }
            ],
            "controlChanges": {},
            "id": 1,
            "name": "Piano right",
            "instrumentNumber": 0,
            "instrument": "acoustic grand piano",
            "instrumentFamily": "piano",
            "channelNumber": 0,
            "isPercussion": false
        },
        {
            "startTime": 1.179246,
            "duration": 96.10854900000027,
            "length": 418,
            "notes": [
                {
                    "name": "C4",
                    "midi": 60,
                    "time": 1.179246,
                    "velocity": 0.28346456692913385,
                    "duration": 0.07370287499999995
                },
                {
                    "name": "A3",
                    "midi": 57,
                    "time": 1.179246,
                    "velocity": 0.23622047244094488,
                    "duration": 0.07370287499999995
                },
                {
                    "name": "C4",
                    "midi": 60,
                    "time": 1.4740575,
                    "velocity": 0.2677165354330709,
                    "duration": 0.07370287499999995
                },
                {
                    "name": "A3",
                    "midi": 57,
                    "time": 1.4740575,
                    "velocity": 0.2204724409448819,
                    "duration": 0.07370287499999995
                },
                {
                    "name": "A3",
                    "midi": 57,
                    "time": 1.768869,
                    "velocity": 0.2283464566929134,
                    "duration": 0.1474057499999999
                },
                {
                    "name": "F3",
                    "midi": 53,
                    "time": 1.768869,
                    "velocity": 0.1889763779527559,
                    "duration": 0.1474057499999999
                },
                {
                    "name": "G3",
                    "midi": 55,
                    "time": 2.358492,
                    "velocity": 0.2677165354330709,
                    "duration": 0.07370287499999995
                },
                {
                    "name": "B3",
                    "midi": 59,
                    "time": 2.358492,
                    "velocity": 0.31496062992125984,
                    "duration": 0.07370287499999995
                },
                {
                    "name": "G3",
                    "midi": 55,
                    "time": 2.6533035,
                    "velocity": 0.2204724409448819,
                    "duration": 0.07370287499999995
                },
                {
                    "name": "B3",
                    "midi": 59,
                    "time": 2.6533035,
                    "velocity": 0.25984251968503935,
                    "duration": 0.07370287499999995
                },
                {
                    "name": "E3",
                    "midi": 52,
                    "time": 2.9481149999999996,
                    "velocity": 0.25196850393700787,
                    "duration": 0.1474057499999999
                },
                {
                    "name": "G3",
                    "midi": 55,
                    "time": 2.9481149999999996,
                    "velocity": 0.2992125984251969,
                    "duration": 0.1474057499999999
                },
                {
                    "name": "F3",
                    "midi": 53,
                    "time": 3.5377379999999996,
                    "velocity": 0.33070866141732286,
                    "duration": 0.8844344999999998
                },
                {
                    "name": "D3",
                    "midi": 50,
                    "time": 4.422172499999999,
                    "velocity": 0.2992125984251969,
                    "duration": 0.2948114999999998
                },
                {
                    "name": "G3",
                    "midi": 55,
                    "time": 4.716983999999999,
                    "velocity": 0.3464566929133858,
                    "duration": 0.2948114999999998
                },
                {
                    "name": "C4",
                    "midi": 60,
                    "time": 5.896229999999999,
                    "velocity": 0.28346456692913385,
                    "duration": 0.07370287500000039
                },
                {
                    "name": "A3",
                    "midi": 57,
                    "time": 5.896229999999999,
                    "velocity": 0.23622047244094488,
                    "duration": 0.07370287500000039
                },
                {
                    "name": "C4",
                    "midi": 60,
                    "time": 6.1910415,
                    "velocity": 0.2677165354330709,
                    "duration": 0.07370287500000039
                },
                {
                    "name": "A3",
                    "midi": 57,
                    "time": 6.1910415,
                    "velocity": 0.2204724409448819,
                    "duration": 0.07370287500000039
                },
                {
                    "name": "F3",
                    "midi": 53,
                    "time": 6.4858530000000005,
                    "velocity": 0.2283464566929134,
                    "duration": 0.1474057499999999
                },
                {
                    "name": "D3",
                    "midi": 50,
                    "time": 6.4858530000000005,
                    "velocity": 0.1889763779527559,
                    "duration": 0.1474057499999999
                },
                {
                    "name": "G3",
                    "midi": 55,
                    "time": 7.075476,
                    "velocity": 0.30708661417322836,
                    "duration": 0.07370287500000039
                },
                {
                    "name": "B3",
                    "midi": 59,
                    "time": 7.075476,
                    "velocity": 0.36220472440944884,
                    "duration": 0.07370287500000039
                },
                {
                    "name": "G3",
                    "midi": 55,
                    "time": 7.370287500000001,
                    "velocity": 0.2440944881889764,
                    "duration": 0.07370287500000039
                },
                {
                    "name": "B3",
                    "midi": 59,
                    "time": 7.370287500000001,
                    "velocity": 0.29133858267716534,
                    "duration": 0.07370287500000039
                },
                {
                    "name": "C3",
                    "midi": 48,
                    "time": 7.665099000000001,
                    "velocity": 0.29133858267716534,
                    "duration": 0.1474057499999999
                },
                {
                    "name": "E3",
                    "midi": 52,
                    "time": 7.665099000000001,
                    "velocity": 0.3464566929133858,
                    "duration": 0.1474057499999999
                },
                {
                    "name": "A3",
                    "midi": 57,
                    "time": 8.254722000000001,
                    "velocity": 0.33070866141732286,
                    "duration": 0.8844344999999993
                },
                {
                    "name": "F3",
                    "midi": 53,
                    "time": 8.254722000000001,
                    "velocity": 0.2755905511811024,
                    "duration": 0.8844344999999993
                },
                {
                    "name": "F4",
                    "midi": 65,
                    "time": 9.1391565,
                    "velocity": 0.33858267716535434,
                    "duration": 0.2948114999999998
                },
                {
                    "name": "G3",
                    "midi": 55,
                    "time": 9.1391565,
                    "velocity": 0.28346456692913385,
                    "duration": 0.2948114999999998
                },
                {
                    "name": "E4",
                    "midi": 64,
                    "time": 9.433968,
                    "velocity": 0.4015748031496063,
                    "duration": 0.2948114999999998
                },
                {
                    "name": "C4",
                    "midi": 60,
                    "time": 9.433968,
                    "velocity": 0.33858267716535434,
                    "duration": 0.2948114999999998
                },
                {
                    "name": "C3",
                    "midi": 48,
                    "time": 9.7287795,
                    "velocity": 0.3700787401574803,
                    "duration": 0.14740575000000078
                },
                {
                    "name": "C4",
                    "midi": 60,
                    "time": 10.613214000000001,
                    "velocity": 0.28346456692913385,
                    "duration": 0.07370287500000039
                },
                {
                    "name": "A3",
                    "midi": 57,
                    "time": 10.613214000000001,
                    "velocity": 0.23622047244094488,
                    "duration": 0.07370287500000039
                },
                {
                    "name": "C4",
                    "midi": 60,
                    "time": 10.9080255,
                    "velocity": 0.2677165354330709,
                    "duration": 0.07370287500000039
                },
                {
                    "name": "A3",
                    "midi": 57,
                    "time": 10.9080255,
                    "velocity": 0.2204724409448819,
                    "duration": 0.07370287500000039
                },
                {
                    "name": "A3",
                    "midi": 57,
                    "time": 11.202837,
                    "velocity": 0.2283464566929134,
                    "duration": 0.14740575000000078
                },
                {
                    "name": "F3",
                    "midi": 53,
                    "time": 11.202837,
                    "velocity": 0.1889763779527559,
                    "duration": 0.14740575000000078
                },
                {
                    "name": "G3",
                    "midi": 55,
                    "time": 11.792460000000002,
                    "velocity": 0.2677165354330709,
                    "duration": 0.07370287500000039
                },
                {
                    "name": "B3",
                    "midi": 59,
                    "time": 11.792460000000002,
                    "velocity": 0.31496062992125984,
                    "duration": 0.07370287500000039
                },
                {
                    "name": "G3",
                    "midi": 55,
                    "time": 12.087271500000002,
                    "velocity": 0.2204724409448819,
                    "duration": 0.07370287500000039
                },
                {
                    "name": "B3",
                    "midi": 59,
                    "time": 12.087271500000002,
                    "velocity": 0.25984251968503935,
                    "duration": 0.07370287500000039
                },
                {
                    "name": "E3",
                    "midi": 52,
                    "time": 12.382083000000002,
                    "velocity": 0.25196850393700787,
                    "duration": 0.14740575000000078
                },
                {
                    "name": "G3",
                    "midi": 55,
                    "time": 12.382083000000002,
                    "velocity": 0.2992125984251969,
                    "duration": 0.14740575000000078
                },
                {
                    "name": "F3",
                    "midi": 53,
                    "time": 12.971706000000003,
                    "velocity": 0.33070866141732286,
                    "duration": 0.8844344999999993
                },
                {
                    "name": "D3",
                    "midi": 50,
                    "time": 13.856140500000002,
                    "velocity": 0.2992125984251969,
                    "duration": 0.2948114999999998
                },
                {
                    "name": "G3",
                    "midi": 55,
                    "time": 14.150952000000002,
                    "velocity": 0.3464566929133858,
                    "duration": 0.2948114999999998
                },
                {
                    "name": "C4",
                    "midi": 60,
                    "time": 15.330198000000001,
                    "velocity": 0.28346456692913385,
                    "duration": 0.07370287500000039
                },
                {
                    "name": "A3",
                    "midi": 57,
                    "time": 15.330198000000001,
                    "velocity": 0.23622047244094488,
                    "duration": 0.07370287500000039
                },
                {
                    "name": "C4",
                    "midi": 60,
                    "time": 15.6250095,
                    "velocity": 0.2677165354330709,
                    "duration": 0.07370287500000039
                },
                {
                    "name": "A3",
                    "midi": 57,
                    "time": 15.6250095,
                    "velocity": 0.2204724409448819,
                    "duration": 0.07370287500000039
                },
                {
                    "name": "F3",
                    "midi": 53,
                    "time": 15.919821,
                    "velocity": 0.2283464566929134,
                    "duration": 0.147405749999999
                },
                {
                    "name": "D3",
                    "midi": 50,
                    "time": 15.919821,
                    "velocity": 0.1889763779527559,
                    "duration": 0.147405749999999
                },
                {
                    "name": "G3",
                    "midi": 55,
                    "time": 16.509444,
                    "velocity": 0.30708661417322836,
                    "duration": 0.07370287499999861
                },
                {
                    "name": "B3",
                    "midi": 59,
                    "time": 16.509444,
                    "velocity": 0.36220472440944884,
                    "duration": 0.07370287499999861
                },
                {
                    "name": "G3",
                    "midi": 55,
                    "time": 16.804255499999996,
                    "velocity": 0.2440944881889764,
                    "duration": 0.07370287499999861
                },
                {
                    "name": "B3",
                    "midi": 59,
                    "time": 16.804255499999996,
                    "velocity": 0.29133858267716534,
                    "duration": 0.07370287499999861
                },
                {
                    "name": "C3",
                    "midi": 48,
                    "time": 17.099066999999994,
                    "velocity": 0.29133858267716534,
                    "duration": 0.14740575000000078
                },
                {
                    "name": "E3",
                    "midi": 52,
                    "time": 17.099066999999994,
                    "velocity": 0.3464566929133858,
                    "duration": 0.14740575000000078
                },
                {
                    "name": "A3",
                    "midi": 57,
                    "time": 17.688689999999994,
                    "velocity": 0.33070866141732286,
                    "duration": 0.8844345000000011
                },
                {
                    "name": "F3",
                    "midi": 53,
                    "time": 17.688689999999994,
                    "velocity": 0.2755905511811024,
                    "duration": 0.8844345000000011
                },
                {
                    "name": "F4",
                    "midi": 65,
                    "time": 18.573124499999995,
                    "velocity": 0.33858267716535434,
                    "duration": 0.29481150000000156
                },
                {
                    "name": "G3",
                    "midi": 55,
                    "time": 18.573124499999995,
                    "velocity": 0.28346456692913385,
                    "duration": 0.29481150000000156
                },
                {
                    "name": "E4",
                    "midi": 64,
                    "time": 18.867935999999997,
                    "velocity": 0.4015748031496063,
                    "duration": 0.29481150000000156
                },
                {
                    "name": "C4",
                    "midi": 60,
                    "time": 18.867935999999997,
                    "velocity": 0.33858267716535434,
                    "duration": 0.29481150000000156
                },
                {
                    "name": "C3",
                    "midi": 48,
                    "time": 19.1627475,
                    "velocity": 0.3700787401574803,
                    "duration": 0.14740575000000078
                },
                {
                    "name": "C4",
                    "midi": 60,
                    "time": 19.457559,
                    "velocity": 0.31496062992125984,
                    "duration": 0.16214632500000192
                },
                {
                    "name": "G4",
                    "midi": 67,
                    "time": 19.60496475,
                    "velocity": 0.28346456692913385,
                    "duration": 0.16214632500000192
                },
                {
                    "name": "E4",
                    "midi": 64,
                    "time": 19.7523705,
                    "velocity": 0.28346456692913385,
                    "duration": 0.16214632500000192
                },
                {
                    "name": "G4",
                    "midi": 67,
                    "time": 19.899776250000002,
                    "velocity": 0.28346456692913385,
                    "duration": 0.14740575000000078
                },
                {
                    "name": "B3",
                    "midi": 59,
                    "time": 20.047182000000003,
                    "velocity": 0.31496062992125984,
                    "duration": 0.16214632500000192
                },
                {
                    "name": "G4",
                    "midi": 67,
                    "time": 20.194587750000004,
                    "velocity": 0.2755905511811024,
                    "duration": 0.16214632500000192
                },
                {
                    "name": "D4",
                    "midi": 62,
                    "time": 20.341993500000005,
                    "velocity": 0.2755905511811024,
                    "duration": 0.16214632500000192
                },
                {
                    "name": "G4",
                    "midi": 67,
                    "time": 20.489399250000005,
                    "velocity": 0.2755905511811024,
                    "duration": 0.14740575000000078
                },
                {
                    "name": "F#3",
                    "midi": 54,
                    "time": 20.636805000000006,
                    "velocity": 0.31496062992125984,
                    "duration": 0.16214632500000192
                },
                {
                    "name": "D4",
                    "midi": 62,
                    "time": 20.784210750000007,
                    "velocity": 0.28346456692913385,
                    "duration": 0.16214632500000192
                },
                {
                    "name": "A3",
                    "midi": 57,
                    "time": 20.931616500000008,
                    "velocity": 0.28346456692913385,
                    "duration": 0.16214632500000192
                },
                {
                    "name": "D4",
                    "midi": 62,
                    "time": 21.07902225000001,
                    "velocity": 0.28346456692913385,
                    "duration": 0.14740575000000078
                },
                {
                    "name": "G3",
                    "midi": 55,
                    "time": 21.22642800000001,
                    "velocity": 0.31496062992125984,
                    "duration": 0.16214632500000192
                },
                {
                    "name": "D4",
                    "midi": 62,
                    "time": 21.37383375000001,
                    "velocity": 0.28346456692913385,
                    "duration": 0.16214632500000192
                },
                {
                    "name": "B3",
                    "midi": 59,
                    "time": 21.52123950000001,
                    "velocity": 0.28346456692913385,
                    "duration": 0.16214632500000192
                },
                {
                    "name": "D4",
                    "midi": 62,
                    "time": 21.66864525000001,
                    "velocity": 0.28346456692913385,
                    "duration": 0.14740575000000078
                },
                {
                    "name": "B2",
                    "midi": 47,
                    "time": 21.816051000000012,
                    "velocity": 0.3464566929133858,
                    "duration": 0.16214632500000192
                },
                {
                    "name": "G3",
                    "midi": 55,
                    "time": 21.963456750000013,
                    "velocity": 0.2992125984251969,
                    "duration": 0.16214632500000192
                },
                {
                    "name": "D3",
                    "midi": 50,
                    "time": 22.110862500000014,
                    "velocity": 0.2992125984251969,
                    "duration": 0.16214632500000192
                },
                {
                    "name": "G3",
                    "midi": 55,
                    "time": 22.258268250000015,
                    "velocity": 0.2992125984251969,
                    "duration": 0.14740575000000078
                },
                {
                    "name": "C3",
                    "midi": 48,
                    "time": 22.405674000000015,
                    "velocity": 0.3700787401574803,
                    "duration": 0.16214632500000192
                },
                {
                    "name": "A3",
                    "midi": 57,
                    "time": 22.553079750000016,
                    "velocity": 0.31496062992125984,
                    "duration": 0.16214632500000192
                },
                {
                    "name": "E3",
                    "midi": 52,
                    "time": 22.700485500000017,
                    "velocity": 0.31496062992125984,
                    "duration": 0.16214632500000192
                },
                {
                    "name": "A3",
                    "midi": 57,
                    "time": 22.847891250000018,
                    "velocity": 0.31496062992125984,
                    "duration": 0.14740575000000078
                },
                {
                    "name": "C#3",
                    "midi": 49,
                    "time": 22.99529700000002,
                    "velocity": 0.3779527559055118,
                    "duration": 0.16214632500000192
                },
                {
                    "name": "A3",
                    "midi": 57,
                    "time": 23.14270275000002,
                    "velocity": 0.31496062992125984,
                    "duration": 0.16214632500000192
                },
                {
                    "name": "E3",
                    "midi": 52,
                    "time": 23.29010850000002,
                    "velocity": 0.30708661417322836,
                    "duration": 0.16214632500000192
                },
                {
                    "name": "A3",
                    "midi": 57,
                    "time": 23.43751425000002,
                    "velocity": 0.30708661417322836,
                    "duration": 0.14740575000000078
                },
                {
                    "name": "D3",
                    "midi": 50,
                    "time": 23.58492000000002,
                    "velocity": 0.3779527559055118,
                    "duration": 0.29481150000000156
                },
                {
                    "name": "G4",
                    "midi": 67,
                    "time": 24.764166000000024,
                    "velocity": 0.41732283464566927,
                    "duration": 0.07370287499999861
                },
                {
                    "name": "E4",
                    "midi": 64,
                    "time": 24.764166000000024,
                    "velocity": 0.3543307086614173,
                    "duration": 0.07370287499999861
                },
                {
                    "name": "G4",
                    "midi": 67,
                    "time": 25.058977500000022,
                    "velocity": 0.36220472440944884,
                    "duration": 0.07370287499999861
                },
                {
                    "name": "E4",
                    "midi": 64,
                    "time": 25.058977500000022,
                    "velocity": 0.30708661417322836,
                    "duration": 0.07370287499999861
                },
                {
                    "name": "E4",
                    "midi": 64,
                    "time": 25.35378900000002,
                    "velocity": 0.28346456692913385,
                    "duration": 0.14740575000000078
                },
                {
                    "name": "C4",
                    "midi": 60,
                    "time": 25.35378900000002,
                    "velocity": 0.1968503937007874,
                    "duration": 0.14740575000000078
                },
                {
                    "name": "D4",
                    "midi": 62,
                    "time": 25.94341200000002,
                    "velocity": 0.33070866141732286,
                    "duration": 0.07370287499999861
                },
                {
                    "name": "F#4",
                    "midi": 66,
                    "time": 25.94341200000002,
                    "velocity": 0.3937007874015748,
                    "duration": 0.07370287499999861
                },
                {
                    "name": "D4",
                    "midi": 62,
                    "time": 26.238223500000018,
                    "velocity": 0.30708661417322836,
                    "duration": 0.07370287499999861
                },
                {
                    "name": "F#4",
                    "midi": 66,
                    "time": 26.238223500000018,
                    "velocity": 0.3700787401574803,
                    "duration": 0.07370287499999861
                },
                {
                    "name": "B3",
                    "midi": 59,
                    "time": 26.533035000000016,
                    "velocity": 0.4409448818897638,
                    "duration": 0.14740575000000078
                },
                {
                    "name": "D4",
                    "midi": 62,
                    "time": 26.533035000000016,
                    "velocity": 0.5275590551181102,
                    "duration": 0.14740575000000078
                },
                {
                    "name": "G3",
                    "midi": 55,
                    "time": 27.122658000000015,
                    "velocity": 0.49606299212598426,
                    "duration": 0.8844345000000011
                },
                {
                    "name": "C3",
                    "midi": 48,
                    "time": 27.122658000000015,
                    "velocity": 0.41732283464566927,
                    "duration": 0.5896229999999996
                },
                {
                    "name": "D3",
                    "midi": 50,
                    "time": 27.712281000000015,
                    "velocity": 0.3543307086614173,
                    "duration": 0.5896230000000031
                },
                {
                    "name": "F#3",
                    "midi": 54,
                    "time": 28.007092500000017,
                    "velocity": 0.4094488188976378,
                    "duration": 0.29481150000000156
                },
                {
                    "name": "G3",
                    "midi": 55,
                    "time": 28.301904000000018,
                    "velocity": 0.5039370078740157,
                    "duration": 0.14740575000000078
                },
                {
                    "name": "G2",
                    "midi": 43,
                    "time": 28.59671550000002,
                    "velocity": 0.4251968503937008,
                    "duration": 0.14740575000000078
                },
                {
                    "name": "G3",
                    "midi": 55,
                    "time": 29.48115000000002,
                    "velocity": 0.4251968503937008,
                    "duration": 0.14740575000000078
                },
                {
                    "name": "B3",
                    "midi": 59,
                    "time": 29.48115000000002,
                    "velocity": 0.5039370078740157,
                    "duration": 0.14740575000000078
                },
                {
                    "name": "G2",
                    "midi": 43,
                    "time": 29.775961500000022,
                    "velocity": 0.4251968503937008,
                    "duration": 0.14740575000000078
                },
                {
                    "name": "G3",
                    "midi": 55,
                    "time": 30.660396000000024,
                    "velocity": 0.5511811023622047,
                    "duration": 0.14740575000000078
                },
                {
                    "name": "B3",
                    "midi": 59,
                    "time": 30.660396000000024,
                    "velocity": 0.5511811023622047,
                    "duration": 0.14740575000000078
                },
                {
                    "name": "G2",
                    "midi": 43,
                    "time": 30.955207500000025,
                    "velocity": 0.44881889763779526,
                    "duration": 0.14740575000000078
                },
                {
                    "name": "C4",
                    "midi": 60,
                    "time": 34.198134000000024,
                    "velocity": 0.28346456692913385,
                    "duration": 0.07370287500000217
                },
                {
                    "name": "A3",
                    "midi": 57,
                    "time": 34.198134000000024,
                    "velocity": 0.23622047244094488,
                    "duration": 0.07370287500000217
                },
                {
                    "name": "C4",
                    "midi": 60,
                    "time": 34.492945500000026,
                    "velocity": 0.2677165354330709,
                    "duration": 0.07370287500000217
                },
                {
                    "name": "A3",
                    "midi": 57,
                    "time": 34.492945500000026,
                    "velocity": 0.2204724409448819,
                    "duration": 0.07370287500000217
                },
                {
                    "name": "A3",
                    "midi": 57,
                    "time": 34.78775700000003,
                    "velocity": 0.2283464566929134,
                    "duration": 0.14740574999999723
                },
                {
                    "name": "F3",
                    "midi": 53,
                    "time": 34.78775700000003,
                    "velocity": 0.1889763779527559,
                    "duration": 0.14740574999999723
                },
                {
                    "name": "G3",
                    "midi": 55,
                    "time": 35.377380000000024,
                    "velocity": 0.2677165354330709,
                    "duration": 0.07370287500000217
                },
                {
                    "name": "B3",
                    "midi": 59,
                    "time": 35.377380000000024,
                    "velocity": 0.31496062992125984,
                    "duration": 0.07370287500000217
                },
                {
                    "name": "G3",
                    "midi": 55,
                    "time": 35.672191500000025,
                    "velocity": 0.2204724409448819,
                    "duration": 0.07370287500000217
                },
                {
                    "name": "B3",
                    "midi": 59,
                    "time": 35.672191500000025,
                    "velocity": 0.25984251968503935,
                    "duration": 0.07370287500000217
                },
                {
                    "name": "E3",
                    "midi": 52,
                    "time": 35.96700300000003,
                    "velocity": 0.25196850393700787,
                    "duration": 0.14740574999999723
                },
                {
                    "name": "G3",
                    "midi": 55,
                    "time": 35.96700300000003,
                    "velocity": 0.2992125984251969,
                    "duration": 0.14740574999999723
                },
                {
                    "name": "F3",
                    "midi": 53,
                    "time": 36.55662600000002,
                    "velocity": 0.33070866141732286,
                    "duration": 0.8844344999999976
                },
                {
                    "name": "D3",
                    "midi": 50,
                    "time": 37.44106050000002,
                    "velocity": 0.2992125984251969,
                    "duration": 0.29481150000000156
                },
                {
                    "name": "G3",
                    "midi": 55,
                    "time": 37.73587200000002,
                    "velocity": 0.3464566929133858,
                    "duration": 0.29481150000000156
                },
                {
                    "name": "C4",
                    "midi": 60,
                    "time": 38.91511800000002,
                    "velocity": 0.28346456692913385,
                    "duration": 0.07370287500000217
                },
                {
                    "name": "A3",
                    "midi": 57,
                    "time": 38.91511800000002,
                    "velocity": 0.23622047244094488,
                    "duration": 0.07370287500000217
                },
                {
                    "name": "C4",
                    "midi": 60,
                    "time": 39.20992950000002,
                    "velocity": 0.2677165354330709,
                    "duration": 0.07370287500000217
                },
                {
                    "name": "A3",
                    "midi": 57,
                    "time": 39.20992950000002,
                    "velocity": 0.2204724409448819,
                    "duration": 0.07370287500000217
                },
                {
                    "name": "F3",
                    "midi": 53,
                    "time": 39.504741000000024,
                    "velocity": 0.2283464566929134,
                    "duration": 0.14740574999999723
                },
                {
                    "name": "D3",
                    "midi": 50,
                    "time": 39.504741000000024,
                    "velocity": 0.1889763779527559,
                    "duration": 0.14740574999999723
                },
                {
                    "name": "G3",
                    "midi": 55,
                    "time": 40.09436400000002,
                    "velocity": 0.30708661417322836,
                    "duration": 0.07370287500000217
                },
                {
                    "name": "B3",
                    "midi": 59,
                    "time": 40.09436400000002,
                    "velocity": 0.36220472440944884,
                    "duration": 0.07370287500000217
                },
                {
                    "name": "G3",
                    "midi": 55,
                    "time": 40.38917550000002,
                    "velocity": 0.2440944881889764,
                    "duration": 0.07370287500000217
                },
                {
                    "name": "B3",
                    "midi": 59,
                    "time": 40.38917550000002,
                    "velocity": 0.29133858267716534,
                    "duration": 0.07370287500000217
                },
                {
                    "name": "C3",
                    "midi": 48,
                    "time": 40.68398700000002,
                    "velocity": 0.29133858267716534,
                    "duration": 0.14740574999999723
                },
                {
                    "name": "E3",
                    "midi": 52,
                    "time": 40.68398700000002,
                    "velocity": 0.3464566929133858,
                    "duration": 0.14740574999999723
                },
                {
                    "name": "A3",
                    "midi": 57,
                    "time": 41.27361000000002,
                    "velocity": 0.33070866141732286,
                    "duration": 0.8844344999999976
                },
                {
                    "name": "F3",
                    "midi": 53,
                    "time": 41.27361000000002,
                    "velocity": 0.2755905511811024,
                    "duration": 0.8844344999999976
                },
                {
                    "name": "F4",
                    "midi": 65,
                    "time": 42.15804450000002,
                    "velocity": 0.33858267716535434,
                    "duration": 0.29481150000000156
                },
                {
                    "name": "G3",
                    "midi": 55,
                    "time": 42.15804450000002,
                    "velocity": 0.28346456692913385,
                    "duration": 0.29481150000000156
                },
                {
                    "name": "E4",
                    "midi": 64,
                    "time": 42.45285600000002,
                    "velocity": 0.4015748031496063,
                    "duration": 0.29481150000000156
                },
                {
                    "name": "C4",
                    "midi": 60,
                    "time": 42.45285600000002,
                    "velocity": 0.33858267716535434,
                    "duration": 0.29481150000000156
                },
                {
                    "name": "C3",
                    "midi": 48,
                    "time": 42.74766750000002,
                    "velocity": 0.3700787401574803,
                    "duration": 0.14740574999999723
                },
                {
                    "name": "E4",
                    "midi": 64,
                    "time": 43.042479000000014,
                    "velocity": 0.41732283464566927,
                    "duration": 0.07370287500000217
                },
                {
                    "name": "C4",
                    "midi": 60,
                    "time": 43.042479000000014,
                    "velocity": 0.3543307086614173,
                    "duration": 0.07370287500000217
                },
                {
                    "name": "E4",
                    "midi": 64,
                    "time": 43.337290500000016,
                    "velocity": 0.3464566929133858,
                    "duration": 0.07370287500000217
                },
                {
                    "name": "C4",
                    "midi": 60,
                    "time": 43.337290500000016,
                    "velocity": 0.29133858267716534,
                    "duration": 0.07370287500000217
                },
                {
                    "name": "C4",
                    "midi": 60,
                    "time": 43.63210200000002,
                    "velocity": 0.3543307086614173,
                    "duration": 0.14740574999999723
                },
                {
                    "name": "A3",
                    "midi": 57,
                    "time": 43.63210200000002,
                    "velocity": 0.2992125984251969,
                    "duration": 0.14740574999999723
                },
                {
                    "name": "B3",
                    "midi": 59,
                    "time": 44.22172500000001,
                    "velocity": 0.31496062992125984,
                    "duration": 0.07370287500000217
                },
                {
                    "name": "D4",
                    "midi": 62,
                    "time": 44.22172500000001,
                    "velocity": 0.3779527559055118,
                    "duration": 0.07370287500000217
                },
                {
                    "name": "B3",
                    "midi": 59,
                    "time": 44.516536500000015,
                    "velocity": 0.25196850393700787,
                    "duration": 0.07370287500000217
                },
                {
                    "name": "D4",
                    "midi": 62,
                    "time": 44.516536500000015,
                    "velocity": 0.2992125984251969,
                    "duration": 0.07370287500000217
                },
                {
                    "name": "G#3",
                    "midi": 56,
                    "time": 44.81134800000002,
                    "velocity": 0.31496062992125984,
                    "duration": 0.14740574999999723
                },
                {
                    "name": "B3",
                    "midi": 59,
                    "time": 44.81134800000002,
                    "velocity": 0.3779527559055118,
                    "duration": 0.14740574999999723
                },
                {
                    "name": "E4",
                    "midi": 64,
                    "time": 45.990594000000016,
                    "velocity": 0.47244094488188976,
                    "duration": 0.16214632499999482
                },
                {
                    "name": "D#4",
                    "midi": 63,
                    "time": 46.13799975000001,
                    "velocity": 0.41732283464566927,
                    "duration": 0.16214632499999482
                },
                {
                    "name": "F4",
                    "midi": 65,
                    "time": 46.28540550000001,
                    "velocity": 0.4566929133858268,
                    "duration": 0.16214632499999482
                },
                {
                    "name": "E4",
                    "midi": 64,
                    "time": 46.43281125000001,
                    "velocity": 0.4094488188976378,
                    "duration": 0.14740574999999723
                },
                {
                    "name": "E4",
                    "midi": 64,
                    "time": 47.16984000000001,
                    "velocity": 0.4566929133858268,
                    "duration": 0.16214632499999482
                },
                {
                    "name": "D#4",
                    "midi": 63,
                    "time": 47.317245750000005,
                    "velocity": 0.3937007874015748,
                    "duration": 0.16214632499999482
                },
                {
                    "name": "F4",
                    "midi": 65,
                    "time": 47.4646515,
                    "velocity": 0.44881889763779526,
                    "duration": 0.16214632499999482
                },
                {
                    "name": "E4",
                    "midi": 64,
                    "time": 47.61205725,
                    "velocity": 0.3937007874015748,
                    "duration": 0.14126384374999645
                },
                {
                    "name": "C4",
                    "midi": 60,
                    "time": 47.759463,
                    "velocity": 0.47244094488188976,
                    "duration": 0.5896230000000031
                },
                {
                    "name": "E4",
                    "midi": 64,
                    "time": 47.759463,
                    "velocity": 0.47244094488188976,
                    "duration": 0.5896230000000031
                },
                {
                    "name": "D4",
                    "midi": 62,
                    "time": 48.349086,
                    "velocity": 0.3779527559055118,
                    "duration": 0.5896230000000031
                },
                {
                    "name": "F4",
                    "midi": 65,
                    "time": 48.349086,
                    "velocity": 0.44881889763779526,
                    "duration": 0.5896230000000031
                },
                {
                    "name": "E4",
                    "midi": 64,
                    "time": 48.938709,
                    "velocity": 0.3858267716535433,
                    "duration": 0.5896230000000031
                },
                {
                    "name": "G4",
                    "midi": 67,
                    "time": 48.938709,
                    "velocity": 0.4566929133858268,
                    "duration": 0.5896230000000031
                },
                {
                    "name": "F4",
                    "midi": 65,
                    "time": 49.528332000000006,
                    "velocity": 0.4881889763779528,
                    "duration": 0.29481150000000156
                },
                {
                    "name": "A4",
                    "midi": 69,
                    "time": 49.528332000000006,
                    "velocity": 0.4094488188976378,
                    "duration": 1.1792460000000062
                },
                {
                    "name": "C#4",
                    "midi": 61,
                    "time": 49.82314350000001,
                    "velocity": 0.4566929133858268,
                    "duration": 0.29481150000000156
                },
                {
                    "name": "D4",
                    "midi": 62,
                    "time": 50.11795500000001,
                    "velocity": 0.5039370078740157,
                    "duration": 0.29481150000000156
                },
                {
                    "name": "E4",
                    "midi": 64,
                    "time": 50.41276650000001,
                    "velocity": 0.47244094488188976,
                    "duration": 0.29481150000000156
                },
                {
                    "name": "A4",
                    "midi": 69,
                    "time": 50.70757800000001,
                    "velocity": 0.5275590551181102,
                    "duration": 0.29481150000000156
                },
                {
                    "name": "F4",
                    "midi": 65,
                    "time": 50.70757800000001,
                    "velocity": 0.44881889763779526,
                    "duration": 0.29481150000000156
                },
                {
                    "name": "F4",
                    "midi": 65,
                    "time": 51.297201000000015,
                    "velocity": 0.28346456692913385,
                    "duration": 0.29481150000000156
                },
                {
                    "name": "A4",
                    "midi": 69,
                    "time": 51.297201000000015,
                    "velocity": 0.33858267716535434,
                    "duration": 0.29481150000000156
                },
                {
                    "name": "E3",
                    "midi": 52,
                    "time": 51.88682400000002,
                    "velocity": 0.33858267716535434,
                    "duration": 0.14740574999999723
                },
                {
                    "name": "E4",
                    "midi": 64,
                    "time": 52.034229750000016,
                    "velocity": 0.30708661417322836,
                    "duration": 0.14740574999999723
                },
                {
                    "name": "G#3",
                    "midi": 56,
                    "time": 52.18163550000001,
                    "velocity": 0.30708661417322836,
                    "duration": 0.14740574999999723
                },
                {
                    "name": "E4",
                    "midi": 64,
                    "time": 52.32904125000001,
                    "velocity": 0.30708661417322836,
                    "duration": 0.14740574999999723
                },
                {
                    "name": "B3",
                    "midi": 59,
                    "time": 52.47644700000001,
                    "velocity": 0.36220472440944884,
                    "duration": 0.14740574999999723
                },
                {
                    "name": "E4",
                    "midi": 64,
                    "time": 52.623852750000005,
                    "velocity": 0.30708661417322836,
                    "duration": 0.14740574999999723
                },
                {
                    "name": "G#3",
                    "midi": 56,
                    "time": 52.7712585,
                    "velocity": 0.30708661417322836,
                    "duration": 0.14740574999999723
                },
                {
                    "name": "E4",
                    "midi": 64,
                    "time": 52.91866425,
                    "velocity": 0.30708661417322836,
                    "duration": 0.14740574999999723
                },
                {
                    "name": "E3",
                    "midi": 52,
                    "time": 53.066069999999996,
                    "velocity": 0.3700787401574803,
                    "duration": 0.14740574999999723
                },
                {
                    "name": "E4",
                    "midi": 64,
                    "time": 53.21347574999999,
                    "velocity": 0.3228346456692913,
                    "duration": 0.14740574999999723
                },
                {
                    "name": "A3",
                    "midi": 57,
                    "time": 53.36088149999999,
                    "velocity": 0.3228346456692913,
                    "duration": 0.14740574999999723
                },
                {
                    "name": "E4",
                    "midi": 64,
                    "time": 53.50828724999999,
                    "velocity": 0.3228346456692913,
                    "duration": 0.14740574999999723
                },
                {
                    "name": "C4",
                    "midi": 60,
                    "time": 53.655692999999985,
                    "velocity": 0.3779527559055118,
                    "duration": 0.14740574999999723
                },
                {
                    "name": "E4",
                    "midi": 64,
                    "time": 53.80309874999998,
                    "velocity": 0.31496062992125984,
                    "duration": 0.14740574999999723
                },
                {
                    "name": "A3",
                    "midi": 57,
                    "time": 53.95050449999998,
                    "velocity": 0.31496062992125984,
                    "duration": 0.14740574999999723
                },
                {
                    "name": "E4",
                    "midi": 64,
                    "time": 54.09791024999998,
                    "velocity": 0.31496062992125984,
                    "duration": 0.14740574999999723
                },
                {
                    "name": "E3",
                    "midi": 52,
                    "time": 54.245315999999974,
                    "velocity": 0.4094488188976378,
                    "duration": 0.14740574999999723
                },
                {
                    "name": "E4",
                    "midi": 64,
                    "time": 54.39272174999997,
                    "velocity": 0.33070866141732286,
                    "duration": 0.14740574999999723
                },
                {
                    "name": "G#3",
                    "midi": 56,
                    "time": 54.54012749999997,
                    "velocity": 0.33070866141732286,
                    "duration": 0.14740574999999723
                },
                {
                    "name": "E4",
                    "midi": 64,
                    "time": 54.687533249999966,
                    "velocity": 0.33070866141732286,
                    "duration": 0.14740574999999723
                },
                {
                    "name": "B3",
                    "midi": 59,
                    "time": 54.83493899999996,
                    "velocity": 0.4094488188976378,
                    "duration": 0.14740574999999723
                },
                {
                    "name": "E4",
                    "midi": 64,
                    "time": 54.98234474999996,
                    "velocity": 0.33858267716535434,
                    "duration": 0.14740574999999723
                },
                {
                    "name": "G#3",
                    "midi": 56,
                    "time": 55.12975049999996,
                    "velocity": 0.33858267716535434,
                    "duration": 0.14740574999999723
                },
                {
                    "name": "E4",
                    "midi": 64,
                    "time": 55.277156249999955,
                    "velocity": 0.33858267716535434,
                    "duration": 0.14740574999999723
                },
                {
                    "name": "E3",
                    "midi": 52,
                    "time": 55.42456199999995,
                    "velocity": 0.4015748031496063,
                    "duration": 0.14740574999999723
                },
                {
                    "name": "E4",
                    "midi": 64,
                    "time": 55.57196774999995,
                    "velocity": 0.33858267716535434,
                    "duration": 0.14740574999999723
                },
                {
                    "name": "A3",
                    "midi": 57,
                    "time": 55.719373499999946,
                    "velocity": 0.33858267716535434,
                    "duration": 0.14740574999999723
                },
                {
                    "name": "E4",
                    "midi": 64,
                    "time": 55.866779249999944,
                    "velocity": 0.33858267716535434,
                    "duration": 0.14740574999999723
                },
                {
                    "name": "C4",
                    "midi": 60,
                    "time": 56.01418499999994,
                    "velocity": 0.4094488188976378,
                    "duration": 0.14740574999999723
                },
                {
                    "name": "E4",
                    "midi": 64,
                    "time": 56.16159074999994,
                    "velocity": 0.33858267716535434,
                    "duration": 0.14740574999999723
                },
                {
                    "name": "A3",
                    "midi": 57,
                    "time": 56.308996499999935,
                    "velocity": 0.33858267716535434,
                    "duration": 0.14740574999999723
                },
                {
                    "name": "E4",
                    "midi": 64,
                    "time": 56.45640224999993,
                    "velocity": 0.33858267716535434,
                    "duration": 0.14494898750000118
                },
                {
                    "name": "E3",
                    "midi": 52,
                    "time": 56.60380799999994,
                    "velocity": 0.4015748031496063,
                    "duration": 0.29481150000000156
                },
                {
                    "name": "E4",
                    "midi": 64,
                    "time": 57.783053999999936,
                    "velocity": 0.36220472440944884,
                    "duration": 0.16214632499999482
                },
                {
                    "name": "D#4",
                    "midi": 63,
                    "time": 57.93045974999993,
                    "velocity": 0.30708661417322836,
                    "duration": 0.16214632499999482
                },
                {
                    "name": "F4",
                    "midi": 65,
                    "time": 58.07786549999993,
                    "velocity": 0.36220472440944884,
                    "duration": 0.16214632499999482
                },
                {
                    "name": "E4",
                    "midi": 64,
                    "time": 58.22527124999993,
                    "velocity": 0.30708661417322836,
                    "duration": 0.14740574999999723
                },
                {
                    "name": "E4",
                    "midi": 64,
                    "time": 58.96229999999993,
                    "velocity": 0.3543307086614173,
                    "duration": 0.16214632499999482
                },
                {
                    "name": "D#4",
                    "midi": 63,
                    "time": 59.109705749999925,
                    "velocity": 0.30708661417322836,
                    "duration": 0.16214632499999482
                },
                {
                    "name": "F4",
                    "midi": 65,
                    "time": 59.25711149999992,
                    "velocity": 0.36220472440944884,
                    "duration": 0.16214632499999482
                },
                {
                    "name": "E4",
                    "midi": 64,
                    "time": 59.40451724999992,
                    "velocity": 0.30708661417322836,
                    "duration": 0.14740574999999723
                },
                {
                    "name": "E3",
                    "midi": 52,
                    "time": 59.55192299999992,
                    "velocity": 0.3937007874015748,
                    "duration": 0.07370287500000217
                },
                {
                    "name": "C4",
                    "midi": 60,
                    "time": 59.55192299999992,
                    "velocity": 0.4645669291338583,
                    "duration": 0.07370287500000217
                },
                {
                    "name": "E3",
                    "midi": 52,
                    "time": 59.84673449999992,
                    "velocity": 0.3464566929133858,
                    "duration": 0.07370287500000217
                },
                {
                    "name": "C4",
                    "midi": 60,
                    "time": 59.84673449999992,
                    "velocity": 0.4251968503937008,
                    "duration": 0.07370287500000217
                },
                {
                    "name": "C3",
                    "midi": 48,
                    "time": 60.14154599999992,
                    "velocity": 0.4015748031496063,
                    "duration": 0.14740574999999723
                },
                {
                    "name": "A3",
                    "midi": 57,
                    "time": 60.14154599999992,
                    "velocity": 0.47244094488188976,
                    "duration": 0.14740574999999723
                },
                {
                    "name": "D3",
                    "midi": 50,
                    "time": 60.731168999999916,
                    "velocity": 0.3779527559055118,
                    "duration": 0.07370287500000217
                },
                {
                    "name": "B3",
                    "midi": 59,
                    "time": 60.731168999999916,
                    "velocity": 0.44881889763779526,
                    "duration": 0.07370287500000217
                },
                {
                    "name": "D3",
                    "midi": 50,
                    "time": 61.02598049999992,
                    "velocity": 0.3228346456692913,
                    "duration": 0.07370287500000217
                },
                {
                    "name": "B3",
                    "midi": 59,
                    "time": 61.02598049999992,
                    "velocity": 0.3858267716535433,
                    "duration": 0.07370287500000217
                },
                {
                    "name": "B2",
                    "midi": 47,
                    "time": 61.32079199999992,
                    "velocity": 0.4015748031496063,
                    "duration": 0.14740574999999723
                },
                {
                    "name": "G#3",
                    "midi": 56,
                    "time": 61.32079199999992,
                    "velocity": 0.47244094488188976,
                    "duration": 0.14740574999999723
                },
                {
                    "name": "G#3",
                    "midi": 56,
                    "time": 61.910414999999915,
                    "velocity": 0.30708661417322836,
                    "duration": 0.5896230000000031
                },
                {
                    "name": "B3",
                    "midi": 59,
                    "time": 61.910414999999915,
                    "velocity": 0.3700787401574803,
                    "duration": 0.5896230000000031
                },
                {
                    "name": "A3",
                    "midi": 57,
                    "time": 62.50003799999992,
                    "velocity": 0.33070866141732286,
                    "duration": 0.29481150000000156
                },
                {
                    "name": "C4",
                    "midi": 60,
                    "time": 62.50003799999992,
                    "velocity": 0.3937007874015748,
                    "duration": 0.29481150000000156
                },
                {
                    "name": "B3",
                    "midi": 59,
                    "time": 62.79484949999992,
                    "velocity": 0.33070866141732286,
                    "duration": 0.29481150000000156
                },
                {
                    "name": "D4",
                    "midi": 62,
                    "time": 62.79484949999992,
                    "velocity": 0.3937007874015748,
                    "duration": 0.29481150000000156
                },
                {
                    "name": "C4",
                    "midi": 60,
                    "time": 63.08966099999992,
                    "velocity": 0.33858267716535434,
                    "duration": 0.29481150000000156
                },
                {
                    "name": "E4",
                    "midi": 64,
                    "time": 63.08966099999992,
                    "velocity": 0.4015748031496063,
                    "duration": 0.5896230000000031
                },
                {
                    "name": "C#4",
                    "midi": 61,
                    "time": 63.38447249999992,
                    "velocity": 0.33858267716535434,
                    "duration": 0.29481150000000156
                },
                {
                    "name": "D4",
                    "midi": 62,
                    "time": 63.679283999999925,
                    "velocity": 0.4330708661417323,
                    "duration": 0.29481150000000156
                },
                {
                    "name": "A4",
                    "midi": 69,
                    "time": 63.679283999999925,
                    "velocity": 0.36220472440944884,
                    "duration": 1.179245999999992
                },
                {
                    "name": "E4",
                    "midi": 64,
                    "time": 63.974095499999926,
                    "velocity": 0.4015748031496063,
                    "duration": 0.29481150000000156
                },
                {
                    "name": "F4",
                    "midi": 65,
                    "time": 64.26890699999993,
                    "velocity": 0.44881889763779526,
                    "duration": 0.29481149999999445
                },
                {
                    "name": "E4",
                    "midi": 64,
                    "time": 64.56371849999992,
                    "velocity": 0.41732283464566927,
                    "duration": 0.29481149999999445
                },
                {
                    "name": "F4",
                    "midi": 65,
                    "time": 64.85852999999992,
                    "velocity": 0.4645669291338583,
                    "duration": 0.5896230000000031
                },
                {
                    "name": "D4",
                    "midi": 62,
                    "time": 64.85852999999992,
                    "velocity": 0.3937007874015748,
                    "duration": 0.5896230000000031
                },
                {
                    "name": "E3",
                    "midi": 52,
                    "time": 65.44815299999992,
                    "velocity": 0.28346456692913385,
                    "duration": 0.5896229999999889
                },
                {
                    "name": "C4",
                    "midi": 60,
                    "time": 65.44815299999992,
                    "velocity": 0.33858267716535434,
                    "duration": 0.29481149999999445
                },
                {
                    "name": "B3",
                    "midi": 59,
                    "time": 65.74296449999991,
                    "velocity": 0.33858267716535434,
                    "duration": 0.29481149999999445
                },
                {
                    "name": "A3",
                    "midi": 57,
                    "time": 66.03777599999991,
                    "velocity": 0.33858267716535434,
                    "duration": 0.14740575000000433
                },
                {
                    "name": "C4",
                    "midi": 60,
                    "time": 66.18518174999991,
                    "velocity": 0.30708661417322836,
                    "duration": 0.14740575000000433
                },
                {
                    "name": "E4",
                    "midi": 64,
                    "time": 66.33258749999992,
                    "velocity": 0.30708661417322836,
                    "duration": 0.14740575000000433
                },
                {
                    "name": "C4",
                    "midi": 60,
                    "time": 66.47999324999992,
                    "velocity": 0.30708661417322836,
                    "duration": 0.14740575000000433
                },
                {
                    "name": "E3",
                    "midi": 52,
                    "time": 66.62739899999993,
                    "velocity": 0.36220472440944884,
                    "duration": 0.14740575000000433
                },
                {
                    "name": "B3",
                    "midi": 59,
                    "time": 66.77480474999993,
                    "velocity": 0.30708661417322836,
                    "duration": 0.14740575000000433
                },
                {
                    "name": "D4",
                    "midi": 62,
                    "time": 66.92221049999993,
                    "velocity": 0.30708661417322836,
                    "duration": 0.14740575000000433
                },
                {
                    "name": "B3",
                    "midi": 59,
                    "time": 67.06961624999994,
                    "velocity": 0.30708661417322836,
                    "duration": 0.14740575000000433
                },
                {
                    "name": "A3",
                    "midi": 57,
                    "time": 67.21702199999994,
                    "velocity": 0.3700787401574803,
                    "duration": 0.14740575000000433
                },
                {
                    "name": "C4",
                    "midi": 60,
                    "time": 67.36442774999995,
                    "velocity": 0.3228346456692913,
                    "duration": 0.14740575000000433
                },
                {
                    "name": "E4",
                    "midi": 64,
                    "time": 67.51183349999995,
                    "velocity": 0.3228346456692913,
                    "duration": 0.14740575000000433
                },
                {
                    "name": "C4",
                    "midi": 60,
                    "time": 67.65923924999996,
                    "velocity": 0.3228346456692913,
                    "duration": 0.14740575000000433
                },
                {
                    "name": "E3",
                    "midi": 52,
                    "time": 67.80664499999996,
                    "velocity": 0.3779527559055118,
                    "duration": 0.14740575000000433
                },
                {
                    "name": "B3",
                    "midi": 59,
                    "time": 67.95405074999996,
                    "velocity": 0.31496062992125984,
                    "duration": 0.14740575000000433
                },
                {
                    "name": "D4",
                    "midi": 62,
                    "time": 68.10145649999997,
                    "velocity": 0.31496062992125984,
                    "duration": 0.14740575000000433
                },
                {
                    "name": "B3",
                    "midi": 59,
                    "time": 68.24886224999997,
                    "velocity": 0.31496062992125984,
                    "duration": 0.14740575000000433
                },
                {
                    "name": "A3",
                    "midi": 57,
                    "time": 68.39626799999998,
                    "velocity": 0.3700787401574803,
                    "duration": 0.14740575000000433
                },
                {
                    "name": "C4",
                    "midi": 60,
                    "time": 68.54367374999998,
                    "velocity": 0.3228346456692913,
                    "duration": 0.14740575000000433
                },
                {
                    "name": "E4",
                    "midi": 64,
                    "time": 68.69107949999999,
                    "velocity": 0.3228346456692913,
                    "duration": 0.14740575000000433
                },
                {
                    "name": "C4",
                    "midi": 60,
                    "time": 68.83848524999999,
                    "velocity": 0.3228346456692913,
                    "duration": 0.14740575000000433
                },
                {
                    "name": "E3",
                    "midi": 52,
                    "time": 68.985891,
                    "velocity": 0.33858267716535434,
                    "duration": 0.14740575000000433
                },
                {
                    "name": "B3",
                    "midi": 59,
                    "time": 69.13329675,
                    "velocity": 0.2755905511811024,
                    "duration": 0.14740575000000433
                },
                {
                    "name": "D4",
                    "midi": 62,
                    "time": 69.2807025,
                    "velocity": 0.29133858267716534,
                    "duration": 0.14740575000000433
                },
                {
                    "name": "B3",
                    "midi": 59,
                    "time": 69.42810825000001,
                    "velocity": 0.31496062992125984,
                    "duration": 0.14740575000000433
                },
                {
                    "name": "A3",
                    "midi": 57,
                    "time": 69.57551400000001,
                    "velocity": 0.4094488188976378,
                    "duration": 0.14740575000000433
                },
                {
                    "name": "C4",
                    "midi": 60,
                    "time": 69.72291975000002,
                    "velocity": 0.33858267716535434,
                    "duration": 0.14740575000000433
                },
                {
                    "name": "E4",
                    "midi": 64,
                    "time": 69.87032550000002,
                    "velocity": 0.3464566929133858,
                    "duration": 0.14740575000000433
                },
                {
                    "name": "C4",
                    "midi": 60,
                    "time": 70.01773125000003,
                    "velocity": 0.3543307086614173,
                    "duration": 0.14740575000000433
                },
                {
                    "name": "G3",
                    "midi": 55,
                    "time": 70.16513700000003,
                    "velocity": 0.44881889763779526,
                    "duration": 0.14740575000000433
                },
                {
                    "name": "D4",
                    "midi": 62,
                    "time": 70.31254275000003,
                    "velocity": 0.3543307086614173,
                    "duration": 0.14740575000000433
                },
                {
                    "name": "F4",
                    "midi": 65,
                    "time": 70.45994850000004,
                    "velocity": 0.36220472440944884,
                    "duration": 0.14740575000000433
                },
                {
                    "name": "D4",
                    "midi": 62,
                    "time": 70.60735425000004,
                    "velocity": 0.36220472440944884,
                    "duration": 0.14740575000000433
                },
                {
                    "name": "C4",
                    "midi": 60,
                    "time": 71.93400600000005,
                    "velocity": 0.28346456692913385,
                    "duration": 0.07370287499999506
                },
                {
                    "name": "A3",
                    "midi": 57,
                    "time": 71.93400600000005,
                    "velocity": 0.23622047244094488,
                    "duration": 0.07370287499999506
                },
                {
                    "name": "C4",
                    "midi": 60,
                    "time": 72.22881750000005,
                    "velocity": 0.2677165354330709,
                    "duration": 0.07370287499999506
                },
                {
                    "name": "A3",
                    "midi": 57,
                    "time": 72.22881750000005,
                    "velocity": 0.2204724409448819,
                    "duration": 0.07370287499999506
                },
                {
                    "name": "A3",
                    "midi": 57,
                    "time": 72.52362900000004,
                    "velocity": 0.2283464566929134,
                    "duration": 0.14740575000000433
                },
                {
                    "name": "F3",
                    "midi": 53,
                    "time": 72.52362900000004,
                    "velocity": 0.1889763779527559,
                    "duration": 0.14740575000000433
                },
                {
                    "name": "G3",
                    "midi": 55,
                    "time": 73.11325200000005,
                    "velocity": 0.2677165354330709,
                    "duration": 0.07370287499999506
                },
                {
                    "name": "B3",
                    "midi": 59,
                    "time": 73.11325200000005,
                    "velocity": 0.31496062992125984,
                    "duration": 0.07370287499999506
                },
                {
                    "name": "G3",
                    "midi": 55,
                    "time": 73.40806350000004,
                    "velocity": 0.2204724409448819,
                    "duration": 0.07370287499999506
                },
                {
                    "name": "B3",
                    "midi": 59,
                    "time": 73.40806350000004,
                    "velocity": 0.25984251968503935,
                    "duration": 0.07370287499999506
                },
                {
                    "name": "E3",
                    "midi": 52,
                    "time": 73.70287500000003,
                    "velocity": 0.25196850393700787,
                    "duration": 0.14740575000000433
                },
                {
                    "name": "G3",
                    "midi": 55,
                    "time": 73.70287500000003,
                    "velocity": 0.2992125984251969,
                    "duration": 0.14740575000000433
                },
                {
                    "name": "F3",
                    "midi": 53,
                    "time": 74.29249800000004,
                    "velocity": 0.33070866141732286,
                    "duration": 0.8844344999999976
                },
                {
                    "name": "D3",
                    "midi": 50,
                    "time": 75.17693250000004,
                    "velocity": 0.2992125984251969,
                    "duration": 0.29481149999999445
                },
                {
                    "name": "G3",
                    "midi": 55,
                    "time": 75.47174400000003,
                    "velocity": 0.3464566929133858,
                    "duration": 0.29481149999999445
                },
                {
                    "name": "C4",
                    "midi": 60,
                    "time": 76.65099000000002,
                    "velocity": 0.28346456692913385,
                    "duration": 0.07370287499999506
                },
                {
                    "name": "A3",
                    "midi": 57,
                    "time": 76.65099000000002,
                    "velocity": 0.23622047244094488,
                    "duration": 0.07370287499999506
                },
                {
                    "name": "C4",
                    "midi": 60,
                    "time": 76.94580150000002,
                    "velocity": 0.2677165354330709,
                    "duration": 0.07370287499999506
                },
                {
                    "name": "A3",
                    "midi": 57,
                    "time": 76.94580150000002,
                    "velocity": 0.2204724409448819,
                    "duration": 0.07370287499999506
                },
                {
                    "name": "F3",
                    "midi": 53,
                    "time": 77.24061300000001,
                    "velocity": 0.2283464566929134,
                    "duration": 0.14740575000000433
                },
                {
                    "name": "D3",
                    "midi": 50,
                    "time": 77.24061300000001,
                    "velocity": 0.1889763779527559,
                    "duration": 0.14740575000000433
                },
                {
                    "name": "G3",
                    "midi": 55,
                    "time": 77.83023600000001,
                    "velocity": 0.30708661417322836,
                    "duration": 0.07370287499999506
                },
                {
                    "name": "B3",
                    "midi": 59,
                    "time": 77.83023600000001,
                    "velocity": 0.36220472440944884,
                    "duration": 0.07370287499999506
                },
                {
                    "name": "G3",
                    "midi": 55,
                    "time": 78.12504750000001,
                    "velocity": 0.2440944881889764,
                    "duration": 0.07370287499999506
                },
                {
                    "name": "B3",
                    "midi": 59,
                    "time": 78.12504750000001,
                    "velocity": 0.29133858267716534,
                    "duration": 0.07370287499999506
                },
                {
                    "name": "C3",
                    "midi": 48,
                    "time": 78.419859,
                    "velocity": 0.29133858267716534,
                    "duration": 0.14740575000000433
                },
                {
                    "name": "E3",
                    "midi": 52,
                    "time": 78.419859,
                    "velocity": 0.3464566929133858,
                    "duration": 0.14740575000000433
                },
                {
                    "name": "A3",
                    "midi": 57,
                    "time": 79.009482,
                    "velocity": 0.33070866141732286,
                    "duration": 0.8844344999999976
                },
                {
                    "name": "F3",
                    "midi": 53,
                    "time": 79.009482,
                    "velocity": 0.2755905511811024,
                    "duration": 0.8844344999999976
                },
                {
                    "name": "F4",
                    "midi": 65,
                    "time": 79.8939165,
                    "velocity": 0.33858267716535434,
                    "duration": 0.29481149999999445
                },
                {
                    "name": "G3",
                    "midi": 55,
                    "time": 79.8939165,
                    "velocity": 0.28346456692913385,
                    "duration": 0.29481149999999445
                },
                {
                    "name": "E4",
                    "midi": 64,
                    "time": 80.188728,
                    "velocity": 0.4015748031496063,
                    "duration": 0.29481149999999445
                },
                {
                    "name": "C4",
                    "midi": 60,
                    "time": 80.188728,
                    "velocity": 0.33858267716535434,
                    "duration": 0.29481149999999445
                },
                {
                    "name": "C3",
                    "midi": 48,
                    "time": 80.48353949999999,
                    "velocity": 0.3700787401574803,
                    "duration": 0.14740575000000433
                },
                {
                    "name": "F3",
                    "midi": 53,
                    "time": 80.778351,
                    "velocity": 0.3464566929133858,
                    "duration": 0.14740575000000433
                },
                {
                    "name": "B3",
                    "midi": 59,
                    "time": 80.92575675,
                    "velocity": 0.2992125984251969,
                    "duration": 0.14740575000000433
                },
                {
                    "name": "G3",
                    "midi": 55,
                    "time": 81.07316250000001,
                    "velocity": 0.2992125984251969,
                    "duration": 0.14740575000000433
                },
                {
                    "name": "B3",
                    "midi": 59,
                    "time": 81.22056825000001,
                    "velocity": 0.2992125984251969,
                    "duration": 0.14740575000000433
                },
                {
                    "name": "E3",
                    "midi": 52,
                    "time": 81.36797400000002,
                    "velocity": 0.3464566929133858,
                    "duration": 0.14740575000000433
                },
                {
                    "name": "C4",
                    "midi": 60,
                    "time": 81.51537975000002,
                    "velocity": 0.30708661417322836,
                    "duration": 0.14740575000000433
                },
                {
                    "name": "G3",
                    "midi": 55,
                    "time": 81.66278550000003,
                    "velocity": 0.3228346456692913,
                    "duration": 0.14740575000000433
                },
                {
                    "name": "C4",
                    "midi": 60,
                    "time": 81.81019125000003,
                    "velocity": 0.33070866141732286,
                    "duration": 0.14740575000000433
                },
                {
                    "name": "F3",
                    "midi": 53,
                    "time": 81.95759700000004,
                    "velocity": 0.3779527559055118,
                    "duration": 0.14740575000000433
                },
                {
                    "name": "B3",
                    "midi": 59,
                    "time": 82.10500275000004,
                    "velocity": 0.3228346456692913,
                    "duration": 0.14740575000000433
                },
                {
                    "name": "G3",
                    "midi": 55,
                    "time": 82.25240850000004,
                    "velocity": 0.3228346456692913,
                    "duration": 0.14740575000000433
                },
                {
                    "name": "B3",
                    "midi": 59,
                    "time": 82.39981425000005,
                    "velocity": 0.33070866141732286,
                    "duration": 0.14740575000000433
                },
                {
                    "name": "E3",
                    "midi": 52,
                    "time": 82.54722000000005,
                    "velocity": 0.4015748031496063,
                    "duration": 0.14740575000000433
                },
                {
                    "name": "C4",
                    "midi": 60,
                    "time": 82.69462575000006,
                    "velocity": 0.3464566929133858,
                    "duration": 0.14740575000000433
                },
                {
                    "name": "G3",
                    "midi": 55,
                    "time": 82.84203150000006,
                    "velocity": 0.3464566929133858,
                    "duration": 0.14740575000000433
                },
                {
                    "name": "C4",
                    "midi": 60,
                    "time": 82.98943725000007,
                    "velocity": 0.3464566929133858,
                    "duration": 0.14740575000000433
                },
                {
                    "name": "F3",
                    "midi": 53,
                    "time": 83.13684300000007,
                    "velocity": 0.41732283464566927,
                    "duration": 0.14740575000000433
                },
                {
                    "name": "D4",
                    "midi": 62,
                    "time": 83.28424875000007,
                    "velocity": 0.3464566929133858,
                    "duration": 0.14740575000000433
                },
                {
                    "name": "A3",
                    "midi": 57,
                    "time": 83.43165450000008,
                    "velocity": 0.3464566929133858,
                    "duration": 0.14740575000000433
                },
                {
                    "name": "D4",
                    "midi": 62,
                    "time": 83.57906025000008,
                    "velocity": 0.3464566929133858,
                    "duration": 0.14740575000000433
                },
                {
                    "name": "G3",
                    "midi": 55,
                    "time": 83.72646600000009,
                    "velocity": 0.4015748031496063,
                    "duration": 0.14740575000000433
                },
                {
                    "name": "E4",
                    "midi": 64,
                    "time": 83.87387175000009,
                    "velocity": 0.3464566929133858,
                    "duration": 0.14740575000000433
                },
                {
                    "name": "C4",
                    "midi": 60,
                    "time": 84.0212775000001,
                    "velocity": 0.3464566929133858,
                    "duration": 0.14740575000000433
                },
                {
                    "name": "E4",
                    "midi": 64,
                    "time": 84.1686832500001,
                    "velocity": 0.3464566929133858,
                    "duration": 0.14740575000000433
                },
                {
                    "name": "G3",
                    "midi": 55,
                    "time": 84.3160890000001,
                    "velocity": 0.3937007874015748,
                    "duration": 0.14740575000000433
                },
                {
                    "name": "F4",
                    "midi": 65,
                    "time": 84.46349475000011,
                    "velocity": 0.3228346456692913,
                    "duration": 0.14740575000000433
                },
                {
                    "name": "D4",
                    "midi": 62,
                    "time": 84.61090050000011,
                    "velocity": 0.3228346456692913,
                    "duration": 0.14740575000000433
                },
                {
                    "name": "F4",
                    "midi": 65,
                    "time": 84.75830625000012,
                    "velocity": 0.3464566929133858,
                    "duration": 0.14740575000000433
                },
                {
                    "name": "C4",
                    "midi": 60,
                    "time": 84.90571200000012,
                    "velocity": 0.3464566929133858,
                    "duration": 0.14740575000000433
                },
                {
                    "name": "G4",
                    "midi": 67,
                    "time": 85.05311775000013,
                    "velocity": 0.28346456692913385,
                    "duration": 0.14740575000000433
                },
                {
                    "name": "E4",
                    "midi": 64,
                    "time": 85.20052350000013,
                    "velocity": 0.30708661417322836,
                    "duration": 0.14740575000000433
                },
                {
                    "name": "G4",
                    "midi": 67,
                    "time": 85.34792925000013,
                    "velocity": 0.28346456692913385,
                    "duration": 0.14740575000000433
                },
                {
                    "name": "F3",
                    "midi": 53,
                    "time": 85.49533500000014,
                    "velocity": 0.3464566929133858,
                    "duration": 0.14740575000000433
                },
                {
                    "name": "B3",
                    "midi": 59,
                    "time": 85.64274075000014,
                    "velocity": 0.2992125984251969,
                    "duration": 0.14740575000000433
                },
                {
                    "name": "G3",
                    "midi": 55,
                    "time": 85.79014650000015,
                    "velocity": 0.2992125984251969,
                    "duration": 0.14740575000000433
                },
                {
                    "name": "B3",
                    "midi": 59,
                    "time": 85.93755225000015,
                    "velocity": 0.2992125984251969,
                    "duration": 0.14740575000000433
                },
                {
                    "name": "E3",
                    "midi": 52,
                    "time": 86.08495800000016,
                    "velocity": 0.3464566929133858,
                    "duration": 0.14740575000000433
                },
                {
                    "name": "C4",
                    "midi": 60,
                    "time": 86.23236375000016,
                    "velocity": 0.30708661417322836,
                    "duration": 0.14740575000000433
                },
                {
                    "name": "G3",
                    "midi": 55,
                    "time": 86.37976950000017,
                    "velocity": 0.3228346456692913,
                    "duration": 0.14740575000000433
                },
                {
                    "name": "C4",
                    "midi": 60,
                    "time": 86.52717525000017,
                    "velocity": 0.33070866141732286,
                    "duration": 0.14740575000000433
                },
                {
                    "name": "F3",
                    "midi": 53,
                    "time": 86.67458100000017,
                    "velocity": 0.3779527559055118,
                    "duration": 0.14740575000000433
                },
                {
                    "name": "B3",
                    "midi": 59,
                    "time": 86.82198675000018,
                    "velocity": 0.3228346456692913,
                    "duration": 0.14740575000000433
                },
                {
                    "name": "G3",
                    "midi": 55,
                    "time": 86.96939250000018,
                    "velocity": 0.3228346456692913,
                    "duration": 0.14740575000000433
                },
                {
                    "name": "B3",
                    "midi": 59,
                    "time": 87.11679825000019,
                    "velocity": 0.33070866141732286,
                    "duration": 0.14740575000000433
                },
                {
                    "name": "E3",
                    "midi": 52,
                    "time": 87.26420400000019,
                    "velocity": 0.4015748031496063,
                    "duration": 0.14740575000000433
                },
                {
                    "name": "C4",
                    "midi": 60,
                    "time": 87.4116097500002,
                    "velocity": 0.3464566929133858,
                    "duration": 0.14740575000000433
                },
                {
                    "name": "G3",
                    "midi": 55,
                    "time": 87.5590155000002,
                    "velocity": 0.3464566929133858,
                    "duration": 0.14740575000000433
                },
                {
                    "name": "C4",
                    "midi": 60,
                    "time": 87.7064212500002,
                    "velocity": 0.3464566929133858,
                    "duration": 0.14740575000000433
                },
                {
                    "name": "F3",
                    "midi": 53,
                    "time": 87.85382700000021,
                    "velocity": 0.41732283464566927,
                    "duration": 0.14740575000000433
                },
                {
                    "name": "D4",
                    "midi": 62,
                    "time": 88.00123275000021,
                    "velocity": 0.36220472440944884,
                    "duration": 0.14740575000000433
                },
                {
                    "name": "A3",
                    "midi": 57,
                    "time": 88.14863850000022,
                    "velocity": 0.36220472440944884,
                    "duration": 0.14740575000000433
                },
                {
                    "name": "D4",
                    "midi": 62,
                    "time": 88.29604425000022,
                    "velocity": 0.36220472440944884,
                    "duration": 0.14740575000000433
                },
                {
                    "name": "G3",
                    "midi": 55,
                    "time": 88.44345000000023,
                    "velocity": 0.4015748031496063,
                    "duration": 0.14740575000000433
                },
                {
                    "name": "E4",
                    "midi": 64,
                    "time": 88.59085575000023,
                    "velocity": 0.3779527559055118,
                    "duration": 0.14740575000000433
                },
                {
                    "name": "C4",
                    "midi": 60,
                    "time": 88.73826150000023,
                    "velocity": 0.3858267716535433,
                    "duration": 0.14740575000000433
                },
                {
                    "name": "E4",
                    "midi": 64,
                    "time": 88.88566725000024,
                    "velocity": 0.4015748031496063,
                    "duration": 0.14740575000000433
                },
                {
                    "name": "G3",
                    "midi": 55,
                    "time": 89.03307300000024,
                    "velocity": 0.44881889763779526,
                    "duration": 0.14740575000000433
                },
                {
                    "name": "F4",
                    "midi": 65,
                    "time": 89.18047875000025,
                    "velocity": 0.4015748031496063,
                    "duration": 0.14740575000000433
                },
                {
                    "name": "D4",
                    "midi": 62,
                    "time": 89.32788450000025,
                    "velocity": 0.4330708661417323,
                    "duration": 0.14740575000000433
                },
                {
                    "name": "F4",
                    "midi": 65,
                    "time": 89.47529025000026,
                    "velocity": 0.4566929133858268,
                    "duration": 0.14740575000000433
                },
                {
                    "name": "C4",
                    "midi": 60,
                    "time": 89.62269600000026,
                    "velocity": 0.5275590551181102,
                    "duration": 0.14740575000000433
                },
                {
                    "name": "E4",
                    "midi": 64,
                    "time": 89.77010175000026,
                    "velocity": 0.4566929133858268,
                    "duration": 0.14740575000000433
                },
                {
                    "name": "G3",
                    "midi": 55,
                    "time": 89.91750750000027,
                    "velocity": 0.47244094488188976,
                    "duration": 0.14740575000000433
                },
                {
                    "name": "C4",
                    "midi": 60,
                    "time": 90.06491325000027,
                    "velocity": 0.4409448818897638,
                    "duration": 0.14740575000000433
                },
                {
                    "name": "E3",
                    "midi": 52,
                    "time": 90.21231900000028,
                    "velocity": 0.4881889763779528,
                    "duration": 0.14740575000000433
                },
                {
                    "name": "G3",
                    "midi": 55,
                    "time": 90.35972475000028,
                    "velocity": 0.4330708661417323,
                    "duration": 0.14740575000000433
                },
                {
                    "name": "C3",
                    "midi": 48,
                    "time": 90.50713050000029,
                    "velocity": 0.4566929133858268,
                    "duration": 0.14740575000000433
                },
                {
                    "name": "E3",
                    "midi": 52,
                    "time": 90.65453625000029,
                    "velocity": 0.3858267716535433,
                    "duration": 0.14740575000000433
                },
                {
                    "name": "G3",
                    "midi": 55,
                    "time": 90.8019420000003,
                    "velocity": 0.49606299212598426,
                    "duration": 0.29481149999999445
                },
                {
                    "name": "G2",
                    "midi": 43,
                    "time": 91.39156500000028,
                    "velocity": 0.49606299212598426,
                    "duration": 0.29481149999999445
                },
                {
                    "name": "C4",
                    "midi": 60,
                    "time": 91.98118800000027,
                    "velocity": 0.5275590551181102,
                    "duration": 0.14740575000000433
                },
                {
                    "name": "E4",
                    "midi": 64,
                    "time": 92.12859375000028,
                    "velocity": 0.4409448818897638,
                    "duration": 0.14740575000000433
                },
                {
                    "name": "G3",
                    "midi": 55,
                    "time": 92.27599950000028,
                    "velocity": 0.47244094488188976,
                    "duration": 0.14740575000000433
                },
                {
                    "name": "C4",
                    "midi": 60,
                    "time": 92.42340525000029,
                    "velocity": 0.4409448818897638,
                    "duration": 0.14740575000000433
                },
                {
                    "name": "E3",
                    "midi": 52,
                    "time": 92.57081100000029,
                    "velocity": 0.5039370078740157,
                    "duration": 0.14740575000000433
                },
                {
                    "name": "G3",
                    "midi": 55,
                    "time": 92.7182167500003,
                    "velocity": 0.4409448818897638,
                    "duration": 0.14740575000000433
                },
                {
                    "name": "C3",
                    "midi": 48,
                    "time": 92.8656225000003,
                    "velocity": 0.47244094488188976,
                    "duration": 0.14740575000000433
                },
                {
                    "name": "E3",
                    "midi": 52,
                    "time": 93.0130282500003,
                    "velocity": 0.41732283464566927,
                    "duration": 0.14740575000000433
                },
                {
                    "name": "G3",
                    "midi": 55,
                    "time": 93.16043400000031,
                    "velocity": 0.5275590551181102,
                    "duration": 0.29481149999999445
                },
                {
                    "name": "G2",
                    "midi": 43,
                    "time": 93.7500570000003,
                    "velocity": 0.49606299212598426,
                    "duration": 0.29481149999999445
                },
                {
                    "name": "C2",
                    "midi": 36,
                    "time": 94.33968000000029,
                    "velocity": 0.4645669291338583,
                    "duration": 0.29481149999999445
                },
                {
                    "name": "C3",
                    "midi": 48,
                    "time": 94.33968000000029,
                    "velocity": 0.5590551181102362,
                    "duration": 0.29481149999999445
                },
                {
                    "name": "E2",
                    "midi": 40,
                    "time": 94.63449150000028,
                    "velocity": 0.41732283464566927,
                    "duration": 0.2211086249999994
                },
                {
                    "name": "E3",
                    "midi": 52,
                    "time": 94.63449150000028,
                    "velocity": 0.49606299212598426,
                    "duration": 0.2211086249999994
                },
                {
                    "name": "G2",
                    "midi": 43,
                    "time": 94.92930300000027,
                    "velocity": 0.4645669291338583,
                    "duration": 0.2211086249999994
                },
                {
                    "name": "G3",
                    "midi": 55,
                    "time": 94.92930300000027,
                    "velocity": 0.5590551181102362,
                    "duration": 0.2211086249999994
                },
                {
                    "name": "E2",
                    "midi": 40,
                    "time": 95.22411450000027,
                    "velocity": 0.41732283464566927,
                    "duration": 0.2211086249999994
                },
                {
                    "name": "E3",
                    "midi": 52,
                    "time": 95.22411450000027,
                    "velocity": 0.49606299212598426,
                    "duration": 0.2211086249999994
                },
                {
                    "name": "C2",
                    "midi": 36,
                    "time": 95.51892600000026,
                    "velocity": 0.48031496062992124,
                    "duration": 0.5896230000000031
                },
                {
                    "name": "C3",
                    "midi": 48,
                    "time": 95.51892600000026,
                    "velocity": 0.5748031496062992,
                    "duration": 0.5896230000000031
                }
            ],
            "controlChanges": {},
            "id": 2,
            "name": "Piano left",
            "instrumentNumber": 0,
            "instrument": "acoustic grand piano",
            "instrumentFamily": "piano",
            "channelNumber": 0,
            "isPercussion": false
        },
        {
            "startTime": 0,
            "duration": 0,
            "length": 0,
            "notes": [],
            "controlChanges": {
                "64": [
                    {
                        "number": 64,
                        "time": 8.91436273125,
                        "value": 1
                    },
                    {
                        "number": 64,
                        "time": 9.15021193125,
                        "value": 0
                    },
                    {
                        "number": 64,
                        "time": 9.265679768750001,
                        "value": 1
                    },
                    {
                        "number": 64,
                        "time": 9.433968,
                        "value": 0
                    },
                    {
                        "number": 64,
                        "time": 18.34833073125,
                        "value": 1
                    },
                    {
                        "number": 64,
                        "time": 18.584179931250002,
                        "value": 0
                    },
                    {
                        "number": 64,
                        "time": 18.69964776875,
                        "value": 1
                    },
                    {
                        "number": 64,
                        "time": 18.867936,
                        "value": 0
                    },
                    {
                        "number": 64,
                        "time": 27.782298731250002,
                        "value": 1
                    },
                    {
                        "number": 64,
                        "time": 28.018147931250002,
                        "value": 0
                    },
                    {
                        "number": 64,
                        "time": 28.13361576875,
                        "value": 1
                    },
                    {
                        "number": 64,
                        "time": 28.301904,
                        "value": 0
                    },
                    {
                        "number": 64,
                        "time": 41.93325073125,
                        "value": 1
                    },
                    {
                        "number": 64,
                        "time": 42.169099931249995,
                        "value": 0
                    },
                    {
                        "number": 64,
                        "time": 42.284567768749994,
                        "value": 1
                    },
                    {
                        "number": 64,
                        "time": 42.452856,
                        "value": 0
                    },
                    {
                        "number": 64,
                        "time": 47.872474075,
                        "value": 1
                    },
                    {
                        "number": 64,
                        "time": 48.349086,
                        "value": 0
                    },
                    {
                        "number": 64,
                        "time": 48.393307725,
                        "value": 1
                    },
                    {
                        "number": 64,
                        "time": 48.501405274999996,
                        "value": 0
                    },
                    {
                        "number": 64,
                        "time": 49.0296092125,
                        "value": 1
                    },
                    {
                        "number": 64,
                        "time": 49.1082256125,
                        "value": 0
                    },
                    {
                        "number": 64,
                        "time": 49.55904153125,
                        "value": 1
                    },
                    {
                        "number": 64,
                        "time": 49.70644728125,
                        "value": 0
                    },
                    {
                        "number": 64,
                        "time": 49.8624517,
                        "value": 1
                    },
                    {
                        "number": 64,
                        "time": 49.9926601125,
                        "value": 0
                    },
                    {
                        "number": 64,
                        "time": 50.16586186875,
                        "value": 1
                    },
                    {
                        "number": 64,
                        "time": 50.309582475,
                        "value": 0
                    },
                    {
                        "number": 64,
                        "time": 50.5085802375,
                        "value": 1
                    },
                    {
                        "number": 64,
                        "time": 50.59948045,
                        "value": 0
                    },
                    {
                        "number": 64,
                        "time": 50.76039839375,
                        "value": 1
                    },
                    {
                        "number": 64,
                        "time": 50.820589075,
                        "value": 0
                    },
                    {
                        "number": 64,
                        "time": 51.076092375,
                        "value": 1
                    },
                    {
                        "number": 64,
                        "time": 51.59569764375,
                        "value": 0
                    },
                    {
                        "number": 64,
                        "time": 51.9433295375,
                        "value": 1
                    },
                    {
                        "number": 64,
                        "time": 52.48504566875,
                        "value": 0
                    },
                    {
                        "number": 64,
                        "time": 52.550149874999995,
                        "value": 1
                    },
                    {
                        "number": 64,
                        "time": 53.0783538125,
                        "value": 0
                    },
                    {
                        "number": 64,
                        "time": 53.137316112499995,
                        "value": 1
                    },
                    {
                        "number": 64,
                        "time": 53.669205193749995,
                        "value": 0
                    },
                    {
                        "number": 64,
                        "time": 53.74782159375,
                        "value": 1
                    },
                    {
                        "number": 64,
                        "time": 54.25882819375,
                        "value": 0
                    },
                    {
                        "number": 64,
                        "time": 54.33007430625,
                        "value": 1
                    },
                    {
                        "number": 64,
                        "time": 54.848451193749995,
                        "value": 0
                    },
                    {
                        "number": 64,
                        "time": 54.9332095,
                        "value": 1
                    },
                    {
                        "number": 64,
                        "time": 55.43807419375,
                        "value": 0
                    },
                    {
                        "number": 64,
                        "time": 55.50932030625,
                        "value": 1
                    },
                    {
                        "number": 64,
                        "time": 56.027697193749994,
                        "value": 0
                    },
                    {
                        "number": 64,
                        "time": 56.11982578749999,
                        "value": 1
                    },
                    {
                        "number": 64,
                        "time": 56.603807999999994,
                        "value": 0
                    },
                    {
                        "number": 64,
                        "time": 62.544259724999996,
                        "value": 1
                    },
                    {
                        "number": 64,
                        "time": 62.65235727499999,
                        "value": 0
                    },
                    {
                        "number": 64,
                        "time": 63.180561212499995,
                        "value": 1
                    },
                    {
                        "number": 64,
                        "time": 63.2591776125,
                        "value": 0
                    },
                    {
                        "number": 64,
                        "time": 63.70999353125,
                        "value": 1
                    },
                    {
                        "number": 64,
                        "time": 63.85739928125,
                        "value": 0
                    },
                    {
                        "number": 64,
                        "time": 64.0134037,
                        "value": 1
                    },
                    {
                        "number": 64,
                        "time": 64.1436121125,
                        "value": 0
                    },
                    {
                        "number": 64,
                        "time": 64.31681386874999,
                        "value": 1
                    },
                    {
                        "number": 64,
                        "time": 64.46053447499999,
                        "value": 0
                    },
                    {
                        "number": 64,
                        "time": 64.65953223749999,
                        "value": 1
                    },
                    {
                        "number": 64,
                        "time": 64.75043244999999,
                        "value": 0
                    },
                    {
                        "number": 64,
                        "time": 64.91135039374998,
                        "value": 1
                    },
                    {
                        "number": 64,
                        "time": 64.97154107499999,
                        "value": 0
                    },
                    {
                        "number": 64,
                        "time": 65.54028159375,
                        "value": 1
                    },
                    {
                        "number": 64,
                        "time": 65.74664964374999,
                        "value": 0
                    },
                    {
                        "number": 64,
                        "time": 66.150787075,
                        "value": 1
                    },
                    {
                        "number": 64,
                        "time": 66.63599766875,
                        "value": 0
                    },
                    {
                        "number": 64,
                        "time": 66.70110187499999,
                        "value": 1
                    },
                    {
                        "number": 64,
                        "time": 67.22930581249999,
                        "value": 0
                    },
                    {
                        "number": 64,
                        "time": 67.28826811249999,
                        "value": 1
                    },
                    {
                        "number": 64,
                        "time": 67.82015719374999,
                        "value": 0
                    },
                    {
                        "number": 64,
                        "time": 67.89877359375,
                        "value": 1
                    },
                    {
                        "number": 64,
                        "time": 68.40978019375,
                        "value": 0
                    },
                    {
                        "number": 64,
                        "time": 68.48102630625,
                        "value": 1
                    },
                    {
                        "number": 64,
                        "time": 68.99940319375,
                        "value": 0
                    },
                    {
                        "number": 64,
                        "time": 69.0841615,
                        "value": 1
                    },
                    {
                        "number": 64,
                        "time": 69.58902619374999,
                        "value": 0
                    },
                    {
                        "number": 64,
                        "time": 69.66027230625,
                        "value": 1
                    },
                    {
                        "number": 64,
                        "time": 70.17864919374999,
                        "value": 0
                    },
                    {
                        "number": 64,
                        "time": 70.2707777875,
                        "value": 1
                    },
                    {
                        "number": 64,
                        "time": 70.75475999999999,
                        "value": 0
                    },
                    {
                        "number": 64,
                        "time": 79.66912273124998,
                        "value": 1
                    },
                    {
                        "number": 64,
                        "time": 79.90497193124999,
                        "value": 0
                    },
                    {
                        "number": 64,
                        "time": 80.02043976875,
                        "value": 1
                    },
                    {
                        "number": 64,
                        "time": 80.188728,
                        "value": 0
                    },
                    {
                        "number": 64,
                        "time": 80.86556606875,
                        "value": 1
                    },
                    {
                        "number": 64,
                        "time": 81.37657266875,
                        "value": 0
                    },
                    {
                        "number": 64,
                        "time": 81.45518906875,
                        "value": 1
                    },
                    {
                        "number": 64,
                        "time": 81.97602271875,
                        "value": 0
                    },
                    {
                        "number": 64,
                        "time": 82.0878054125,
                        "value": 1
                    },
                    {
                        "number": 64,
                        "time": 82.55336190625,
                        "value": 0
                    },
                    {
                        "number": 64,
                        "time": 82.6430337375,
                        "value": 1
                    },
                    {
                        "number": 64,
                        "time": 83.14789843125,
                        "value": 0
                    },
                    {
                        "number": 64,
                        "time": 83.22405806875,
                        "value": 1
                    },
                    {
                        "number": 64,
                        "time": 83.726466,
                        "value": 0
                    },
                    {
                        "number": 64,
                        "time": 83.7829715375,
                        "value": 1
                    },
                    {
                        "number": 64,
                        "time": 84.0237342625,
                        "value": 0
                    },
                    {
                        "number": 64,
                        "time": 84.3725945375,
                        "value": 1
                    },
                    {
                        "number": 64,
                        "time": 84.6133572625,
                        "value": 0
                    },
                    {
                        "number": 64,
                        "time": 84.91922419375,
                        "value": 1
                    },
                    {
                        "number": 64,
                        "time": 85.21035055,
                        "value": 0
                    },
                    {
                        "number": 64,
                        "time": 85.2963372375,
                        "value": 1
                    },
                    {
                        "number": 64,
                        "time": 85.495335,
                        "value": 0
                    },
                    {
                        "number": 64,
                        "time": 85.65133941875,
                        "value": 1
                    },
                    {
                        "number": 64,
                        "time": 86.09355666875,
                        "value": 0
                    },
                    {
                        "number": 64,
                        "time": 86.17217306875,
                        "value": 1
                    },
                    {
                        "number": 64,
                        "time": 86.69300671875,
                        "value": 0
                    },
                    {
                        "number": 64,
                        "time": 86.8047894125,
                        "value": 1
                    },
                    {
                        "number": 64,
                        "time": 87.27034590625,
                        "value": 0
                    },
                    {
                        "number": 64,
                        "time": 87.3600177375,
                        "value": 1
                    },
                    {
                        "number": 64,
                        "time": 87.86488243125,
                        "value": 0
                    },
                    {
                        "number": 64,
                        "time": 87.94104206875,
                        "value": 1
                    },
                    {
                        "number": 64,
                        "time": 88.44345,
                        "value": 0
                    },
                    {
                        "number": 64,
                        "time": 88.4999555375,
                        "value": 1
                    },
                    {
                        "number": 64,
                        "time": 88.7407182625,
                        "value": 0
                    },
                    {
                        "number": 64,
                        "time": 89.0895785375,
                        "value": 1
                    },
                    {
                        "number": 64,
                        "time": 89.3303412625,
                        "value": 0
                    },
                    {
                        "number": 64,
                        "time": 89.63620819375,
                        "value": 1
                    },
                    {
                        "number": 64,
                        "time": 90.801942,
                        "value": 0
                    },
                    {
                        "number": 64,
                        "time": 90.8584475375,
                        "value": 1
                    },
                    {
                        "number": 64,
                        "time": 91.42227453125,
                        "value": 0
                    },
                    {
                        "number": 64,
                        "time": 91.465267875,
                        "value": 1
                    },
                    {
                        "number": 64,
                        "time": 91.71708603124999,
                        "value": 0
                    },
                    {
                        "number": 64,
                        "time": 91.99470019374999,
                        "value": 1
                    },
                    {
                        "number": 64,
                        "time": 93.160434,
                        "value": 0
                    },
                    {
                        "number": 64,
                        "time": 93.2169395375,
                        "value": 1
                    },
                    {
                        "number": 64,
                        "time": 93.78076653125,
                        "value": 0
                    },
                    {
                        "number": 64,
                        "time": 93.823759875,
                        "value": 1
                    },
                    {
                        "number": 64,
                        "time": 94.07557803124999,
                        "value": 0
                    },
                    {
                        "number": 64,
                        "time": 94.51288175625,
                        "value": 1
                    },
                    {
                        "number": 64,
                        "time": 95.518926,
                        "value": 0
                    },
                    {
                        "number": 64,
                        "time": 95.88007008749999,
                        "value": 1
                    },
                    {
                        "number": 64,
                        "time": 96.30508999999999,
                        "value": 0
                    }
                ]
            },
            "id": 3,
            "name": "Pedale",
            "instrumentNumber": 0,
            "instrument": "acoustic grand piano",
            "instrumentFamily": "piano",
            "channelNumber": 0,
            "isPercussion": false
        },
        {
            "startTime": 0,
            "duration": 0,
            "length": 0,
            "notes": [],
            "controlChanges": {},
            "id": 4,
            "name": "Mozart: Sonate KV 541 3. Satz"
        },
        {
            "startTime": 0,
            "duration": 0,
            "length": 0,
            "notes": [],
            "controlChanges": {},
            "id": 5,
            "name": "Copyright  2006 by Bernd Krueger"
        },
        {
            "startTime": 0,
            "duration": 0,
            "length": 0,
            "notes": [],
            "controlChanges": {},
            "id": 6,
            "name": "http://www.piano-midi.de/"
        },
        {
            "startTime": 0,
            "duration": 0,
            "length": 0,
            "notes": [],
            "controlChanges": {},
            "id": 7,
            "name": "Edition: 2013-09-29"
        },
        {
            "startTime": 0,
            "duration": 0,
            "length": 0,
            "notes": [],
            "controlChanges": {},
            "id": 8,
            "name": "Spur 8"
        },
        {
            "startTime": 0,
            "duration": 0,
            "length": 0,
            "notes": [],
            "controlChanges": {},
            "id": 9,
            "name": "Spur 9"
        },
        {
            "startTime": 0,
            "duration": 0,
            "length": 0,
            "notes": [],
            "controlChanges": {},
            "id": 10,
            "name": "Spur 10"
        },
        {
            "startTime": 0,
            "duration": 0,
            "length": 0,
            "notes": [],
            "controlChanges": {},
            "id": 11,
            "name": "Spur 11"
        },
        {
            "startTime": 0,
            "duration": 0,
            "length": 0,
            "notes": [],
            "controlChanges": {},
            "id": 12,
            "name": "Spur 12"
        },
        {
            "startTime": 0,
            "duration": 0,
            "length": 0,
            "notes": [],
            "controlChanges": {},
            "id": 13,
            "name": "Spur 13"
        },
        {
            "startTime": 0,
            "duration": 0,
            "length": 0,
            "notes": [],
            "controlChanges": {},
            "id": 14,
            "name": "Spur 14"
        },
        {
            "startTime": 0,
            "duration": 0,
            "length": 0,
            "notes": [],
            "controlChanges": {},
            "id": 15,
            "name": "Spur 15"
        },
        {
            "startTime": 0,
            "duration": 0,
            "length": 0,
            "notes": [],
            "controlChanges": {},
            "id": 16,
            "name": "Spur 16"
        }
    ]
}